<svg xmlns="http://www.w3.org/2000/svg" viewBox="0 0 90.9 93.3" width="24" height="24"><path d="M2.06,24.62 L10.17,30.95 L9.29,37.73 L0,41.42 L2.95,54.24 L13.41,52.92 L17.39,58.52 L13.56,67.66 L24.47,74.44 L30.81,66.33 L37.88,67.21 L41.57,76.5 L54.24,73.55 L53.06,62.94 L58.52,58.52 L67.21,63.09 L74.58,51.88 L66.03,45.25 L66.92,38.62 L76.5,34.93 L73.7,22.26 L62.64,23.44 L58.81,18.42 L62.79,8.7 L51.74,2.21 L44.81,10.47 L38.03,9.43 L33.75,0 L21.52,3.24 L22.7,13.56 L18.13,17.54 L8.7,13.56 Z M24.8,39 Z" fill="none" stroke="currentColor" stroke-width="1.5"/><path d="M16.46,41.42 L24.57,47.75 L23.69,54.53 L14.4,58.22 L17.35,71.04 L27.81,69.72 L31.79,75.32 L27.96,84.46 L38.87,91.24 L45.21,83.13 L52.28,84.01 L55.97,93.3 L68.64,90.35 L67.46,79.74 L72.92,75.32 L81.61,79.89 L88.98,68.68 L80.43,62.05 L81.32,55.42 L90.9,51.73 L88.1,39.06 L77.04,40.24 L73.21,35.22 L77.19,25.5 L66.14,19.01 L59.21,27.27 L52.43,26.23 L48.15,16.8 L35.92,20.04 L37.1,30.36 L32.53,34.34 L23.1,30.36 Z M39.2,55.8 Z" fill="none" stroke="currentColor" stroke-width="1.5"/></svg>