<svg xmlns="http://www.w3.org/2000/svg" viewBox="0 0 150.0 90.0" width="24" height="24"><rect x="0" y="0" width="150" height="90" fill="none" stroke="currentColor"/><path d="M65,45 L110,45 M62.75,32.52 L105.05,17.19 M63.23,58.75 L106.02,72.7" fill="none" stroke="currentColor" stroke-width="1.5"/><path d="M102,39 L102,51 L115,45 Z M132,37 L140,45 L132,53 L124,45 Z M121.25,6.75 L129.25,14.75 L121.25,22.75 L113.25,14.75 Z M121.5,68 L129.5,76 L121.5,84 L113.5,76 Z M95.49,14.27 L99.58,25.55 L109.75,15.48 Z M100.27,64.51 L96.55,75.92 L110.77,74.25 Z" fill="none" stroke="currentColor" stroke-width="1.5"/><path d="M46,38 L46,53 L61,45 Z" fill="none" stroke="currentColor" stroke-width="1.5"/><path d="M11,45.25 L56,45.25" fill="none" stroke="currentColor" stroke-width="1.5"/></svg>