<svg xmlns="http://www.w3.org/2000/svg" viewBox="0 0 150.0 90.0" width="24" height="24"><rect x="0" y="0" width="150" height="90" fill="none" stroke="currentColor"/><path d="M65,45 L110,45 M69.52,41.59 L107.66,17.7 M69.85,48.29 L107.65,72.7" fill="none" stroke="currentColor" stroke-width="1.5"/><path d="M102,39 L102,51 L115,45 Z M132,37 L140,45 L132,53 L124,45 Z M121.25,6.75 L129.25,14.75 L121.25,22.75 L113.25,14.75 Z M121.5,68 L129.5,76 L121.5,84 L113.5,76 Z M97.7,16.86 L104.07,27.03 L111.9,15.05 Z M104.18,63.32 L97.67,73.4 L111.85,75.42 Z M69,37 L77,45 L69,53 L61,45 Z" fill="none" stroke="currentColor" stroke-width="1.5"/><path d="M46,38 L46,53 L61,45 Z" fill="none" stroke="currentColor" stroke-width="1.5"/><path d="M11,45.25 L56,45.25" fill="none" stroke="currentColor" stroke-width="1.5"/></svg>