<svg xmlns="http://www.w3.org/2000/svg" viewBox="0 0 70.0 90.0" width="24" height="24"><rect x="0" y="0" width="70" height="90" fill="none" stroke="currentColor"/><ellipse cx="25.0" cy="80.0" rx="4.0" ry="4.0" fill="none" stroke="currentColor"/><ellipse cx="25.0" cy="69.0" rx="4.0" ry="4.0" fill="none" stroke="currentColor"/><ellipse cx="25.0" cy="58.0" rx="4.0" ry="4.0" fill="none" stroke="currentColor"/><ellipse cx="45.0" cy="69.0" rx="4.0" ry="4.0" fill="none" stroke="currentColor"/><ellipse cx="35.0" cy="25.0" rx="4.0" ry="4.0" fill="none" stroke="currentColor"/><path d="M8,25 L62,25 M8,58 L25,58 M8,69 L25,69 M8,80 L25,80 M24.5,58 L43.25,69.25 M45,69 L62,69 M35,25 L35,33" fill="none" stroke="currentColor" stroke-width="1.5"/><path d="M35,39 L35,63" fill="none" stroke="currentColor" stroke-width="1.5"/><path d="M31,33 L39,33 L35,39 Z" fill="none" stroke="currentColor" stroke-width="1.5"/></svg>