<svg xmlns="http://www.w3.org/2000/svg" viewBox="0 0 108.72 107.15" width="24" height="24"><path d="M10.76,0.1 L18.74,20.19 C40.77,20.2 57.89,29.59 70,42.83 C82.11,56.07 88.65,73.31 88.65,86.94 L88.67,96.39 L108.65,86.94 C108.65,67.28 100.13,46.14 84.76,29.33 C69.38,12.52 46.6,0.19 18.86,0.19 L18.97,0.19 Z M20.37,36.64 L10.59,36.65 L20.38,56.64 C27.13,56.64 35.49,60.29 41.81,66.47 C48.13,72.64 52.19,80.88 52.19,89.1 L52.24,96.62 L72.19,89.1 C72.19,74.51 65.36,61.51 55.79,52.16 C46.21,42.81 33.67,36.64 20.38,36.64 Z M31.55,90.99 Z" fill="none" stroke="currentColor" stroke-width="1.5"/></svg>