<svg xmlns="http://www.w3.org/2000/svg" viewBox="0 0 190.99 279.26" width="24" height="24"><path d="M20.21,126.35 L29.21,126.35 L29.21,123.35 L20.21,123.35 Z M38.21,126.35 L47.21,126.35 L47.21,123.35 L38.21,123.35 Z M56.21,126.35 L65.21,126.35 L65.21,123.35 L56.21,123.35 Z M74.21,126.35 L83.21,126.35 L83.21,123.35 L74.21,123.35 Z M92.21,126.35 L101.21,126.35 L101.21,123.35 L92.21,123.35 Z M110.21,126.35 L119.21,126.35 L119.21,123.35 L110.21,123.35 Z M128.21,126.35 L137.21,126.35 L137.21,123.35 L128.21,123.35 Z M146.21,126.35 L155.21,126.35 L155.21,123.35 L146.21,123.35 Z M164.21,126.35 L173.21,126.35 L173.21,123.35 L164.21,123.35 Z M172.63,141.92 L175.63,141.92 L175.63,132.92 L172.63,132.92 Z M18.71,142.72 L21.71,142.72 L21.71,133.72 L18.71,133.72 Z M172.63,159.92 L175.63,159.92 L175.63,150.92 L172.63,150.92 Z M18.71,160.72 L21.71,160.72 L21.71,151.72 L18.71,151.72 Z M172.63,177.92 L175.63,177.92 L175.63,168.92 L172.63,168.92 Z M18.71,178.72 L21.71,178.72 L21.71,169.72 L18.71,169.72 Z M172.63,195.92 L175.63,195.92 L175.63,186.92 L172.63,186.92 Z M18.71,196.72 L21.71,196.72 L21.71,187.72 L18.71,187.72 Z M172.63,213.92 L175.63,213.92 L175.63,204.92 L172.63,204.92 Z M18.71,214.72 L21.71,214.72 L21.71,205.72 L18.71,205.72 Z M172.63,231.92 L175.63,231.92 L175.63,222.92 L172.63,222.92 Z M18.71,232.72 L21.71,232.72 L21.71,223.72 L18.71,223.72 Z M172.63,249.86 L174.07,249.86 L174.07,251.36 L174.13,251.36 L175.63,251.36 L175.63,249.86 L175.63,240.92 L172.63,240.92 Z M18.71,249.86 L18.71,251.36 L20.21,251.36 L21.07,251.36 L21.07,249.86 L21.71,249.86 L21.71,241.72 L18.71,241.72 Z M30.07,251.36 L39.07,251.36 L39.07,248.36 L30.07,248.36 Z M48.07,251.36 L57.07,251.36 L57.07,248.36 L48.07,248.36 Z M66.07,251.36 L75.07,251.36 L75.07,248.36 L66.07,248.36 Z M84.07,251.36 L93.07,251.36 L93.07,248.36 L84.07,248.36 Z M102.07,251.36 L111.07,251.36 L111.07,248.36 L102.07,248.36 Z M120.07,251.36 L129.07,251.36 L129.07,248.36 L120.07,248.36 Z M138.07,251.36 L147.07,251.36 L147.07,248.36 L138.07,248.36 Z M156.07,251.36 L165.07,251.36 L165.07,248.36 L156.07,248.36 Z M36.74,15.11 L36.74,29.19 L64.3,29.19 L92.3,40.13 L65.18,50.73 L65.18,50.48 L36.74,50.48 L36.74,64.56 L65.18,64.56 L65.18,58.93 L127.04,58.93 L127.04,64.56 L155.48,64.56 L155.48,50.48 L127.04,50.48 L127.04,50.49 L100.54,40.13 L128.54,29.19 L155.48,29.19 L155.48,15.11 L127.04,15.11 L127.04,20.65 L65.18,20.65 L65.18,15.11 Z M65.18,23.65 L127.04,23.65 L127.04,26.55 L96.42,38.52 L65.18,26.31 Z M96.42,41.74 L127.04,53.71 L127.04,55.93 L65.18,55.93 L65.18,53.95 Z M59.36,152.79 L52.59,162.53 L57.09,162.53 L57.09,172.87 C55.11,173.21 53.24,174 51.61,175.17 L44.27,167.88 L47.44,164.69 L35.82,162.56 L37.96,174.23 L41.13,171.04 L48.46,178.34 C47.35,179.94 46.6,181.77 46.27,183.69 L35.92,183.69 L35.92,179.2 L26.18,185.88 L35.92,192.65 L35.92,188.15 L46.26,188.15 C46.59,190.09 47.36,191.94 48.5,193.54 L41.18,200.87 L38,197.69 L35.9,209.37 L47.51,207.2 L44.34,204.02 L51.64,196.71 C53.26,197.86 55.12,198.63 57.09,198.97 L57.09,209.32 L52.59,209.32 L59.36,219.06 L66.04,209.32 L61.55,209.32 L61.55,198.98 C63.5,198.64 65.34,197.87 66.96,196.72 L74.3,204.03 L71.13,207.21 L82.81,209.29 L80.61,197.68 L77.45,200.86 L70.12,193.58 C70.96,192.39 71.59,191.07 72,189.67 L88.85,189.67 C89.04,193.96 89.53,197.81 90.25,200.85 C90.72,202.8 91.27,204.41 91.97,205.66 C92.68,206.91 93.67,208.04 95.2,208.04 C96.72,208.04 97.72,206.91 98.42,205.66 C99.13,204.41 99.67,202.8 100.14,200.85 C100.87,197.81 101.36,193.96 101.54,189.67 L119.79,189.67 C120.2,191.07 120.84,192.39 121.68,193.58 L114.35,200.86 L111.18,197.68 L108.99,209.29 L120.66,207.21 L117.49,204.03 L124.84,196.72 C126.45,197.87 128.3,198.64 130.25,198.98 L130.25,209.32 L125.75,209.32 L132.44,219.06 L139.2,209.32 L134.71,209.32 L134.71,198.97 C136.67,198.63 138.53,197.86 140.15,196.71 L147.46,204.02 L144.28,207.2 L155.89,209.37 L153.8,197.69 L150.62,200.87 L143.3,193.54 C144.44,191.94 145.2,190.09 145.54,188.15 L155.87,188.15 L155.87,192.65 L165.61,185.88 L155.87,179.2 L155.87,183.69 L145.52,183.69 C145.2,181.77 144.45,179.94 143.33,178.34 L150.67,171.04 L153.84,174.23 L155.98,162.56 L144.35,164.69 L147.52,167.88 L140.19,175.17 C138.56,174 136.69,173.21 134.71,172.87 L134.71,162.53 L139.2,162.53 L132.44,152.79 L125.75,162.53 L130.25,162.53 L130.25,172.88 C128.31,173.21 126.48,173.96 124.87,175.09 L117.56,167.77 L120.74,164.59 L109.07,162.48 L111.22,174.1 L114.4,170.92 L121.71,178.24 C120.85,179.44 120.2,180.77 119.78,182.17 L101.54,182.17 C101.36,177.89 100.87,174.03 100.14,171 C99.67,169.05 99.13,167.44 98.42,166.19 C97.72,164.94 96.72,163.81 95.2,163.81 C93.67,163.81 92.68,164.94 91.97,166.19 C91.27,167.44 90.72,169.05 90.25,171 C89.53,174.03 89.04,177.89 88.85,182.17 L72.01,182.17 C71.59,180.77 70.94,179.44 70.09,178.24 L77.39,170.92 L80.57,174.1 L82.73,162.48 L71.06,164.59 L74.24,167.77 L66.93,175.09 C65.32,173.96 63.48,173.21 61.55,172.88 L61.55,162.53 L66.04,162.53 Z M95.2,166.86 C95.28,166.93 95.5,167.12 95.81,167.67 C96.28,168.51 96.8,169.91 97.22,171.7 C97.88,174.44 98.35,178.09 98.54,182.17 L91.86,182.17 C92.04,178.09 92.51,174.44 93.17,171.7 C93.6,169.91 94.11,168.51 94.58,167.67 C94.89,167.12 95.11,166.93 95.2,166.86 Z M91.86,189.67 L98.54,189.67 C98.35,193.76 97.88,197.41 97.22,200.15 C96.8,201.93 96.28,203.34 95.81,204.18 C95.5,204.73 95.28,204.91 95.2,204.99 C95.11,204.91 94.89,204.73 94.58,204.18 C94.11,203.34 93.6,201.93 93.17,200.15 C92.51,197.41 92.04,193.76 91.86,189.67 Z M11.72,0 C5.27,0 0,5.27 0,11.72 L0,67.91 C0,74.36 5.27,79.63 11.72,79.63 L179.27,79.63 C185.72,79.63 190.99,74.36 190.99,67.91 L190.99,11.72 C190.99,5.27 185.72,0 179.27,0 Z M11.72,5.29 L179.27,5.29 C182.88,5.29 185.7,8.11 185.7,11.72 L185.7,67.91 C185.7,71.52 182.88,74.34 179.27,74.34 L11.72,74.34 C8.11,74.34 5.29,71.52 5.29,67.91 L5.29,11.72 C5.29,8.11 8.11,5.29 11.72,5.29 Z M11.72,87.37 C5.27,87.37 0,92.64 0,99.09 L0,267.55 C0,273.99 5.27,279.26 11.72,279.26 L179.27,279.26 C185.72,279.26 190.99,273.99 190.99,267.55 L190.99,99.09 C190.99,92.64 185.72,87.37 179.27,87.37 Z M11.72,92.66 L179.27,92.66 C182.88,92.66 185.7,95.48 185.7,99.09 L185.7,267.55 C185.7,271.15 182.88,273.97 179.27,273.97 L11.72,273.97 C8.11,273.97 5.29,271.15 5.29,267.55 L5.29,99.09 C5.29,95.48 8.11,92.66 11.72,92.66 Z" fill="none" stroke="currentColor" stroke-width="1.5"/></svg>