<svg xmlns="http://www.w3.org/2000/svg" viewBox="0 0 721.85 725.26" width="24" height="24"><path d="M447.58,123.59 C431.84,123.33 416.8,129.58 406.25,139.76 L158,360.26 C140.95,376.87 135.36,447.12 132.19,483.26 C131.16,495.17 132.16,498.25 136.44,503.76 L153.94,524.63 C127.59,549.38 111.77,576.06 103.86,606.88 C102.18,612.94 105.79,621.73 114.15,623.85 C126.04,626.16 133.79,620.62 136.5,611.76 C148.84,574.14 169.25,547.08 209.25,526.88 C216.07,523.23 222.55,513.57 216,502.13 C210.74,494.12 203.72,491.06 197.75,494.51 C188.28,499.05 180.27,504.22 173.12,509.76 C173.35,502.89 177.42,495.74 188.62,488.63 C199.29,481.68 212.99,485.11 221.25,494.38 C231.17,505.84 229.62,519.84 220.88,529.88 C213.37,537.72 208.63,538.33 200,538.13 L182.05,555.72 L199.01,573.79 C206.59,581.46 210.25,583.26 226,583.26 C259.79,584.78 291.13,583.63 319.73,579.49 C335.03,576.9 343.2,574.98 356.11,563.38 L605.35,341.79 C626.43,320.78 625.1,285.15 600.36,261.49 L488.25,141.26 C475.89,129.11 461.46,123.82 447.58,123.59 Z M427.53,156.32 C434.37,156.32 441.18,159.1 446.16,164.57 L571.68,302.54 C581.06,312.85 580.31,328.69 570,338.07 L352.88,535.62 C342.57,545 326.72,544.25 317.34,533.94 L191.82,395.97 C182.44,385.67 183.19,369.82 193.5,360.44 L410.62,162.89 C415.45,158.5 421.5,156.33 427.53,156.32 Z M406,234.22 C400.31,241.32 395.72,240.75 389.94,239.52 C400.69,249.52 409.63,249.83 417.82,247.53 C431.87,252.68 441.21,253.64 452.39,258.01 C442.7,246.11 433.5,245.4 419.66,240.2 C415.9,238.42 412.26,236.14 407.11,234.43 Z M381.93,248.42 C369.57,251.15 363.1,255.72 358.26,258.94 C367.35,261.97 372.4,258.41 382.2,256.06 C385.11,256.15 387.02,256.91 389.52,257.27 C381.83,260.69 373.64,264.12 367.81,267.51 C379.72,269.33 390.34,264.59 403.02,259.26 C414.48,257.83 422.93,256.27 429.94,260.58 C423.97,248.04 413.22,250.37 401.96,251.78 C396.21,249.98 389.81,248.63 381.93,248.42 Z M349.7,253.53 C325.73,262.24 302.81,287.73 292.28,325.79 C286.73,347.75 283.95,379.35 304.78,406.36 C319.23,423.98 339.01,431.9 354.18,432.22 C341.75,424.4 323.65,417.4 310.74,401.71 C291.9,377.24 294.33,348.55 299.58,327.77 C309.59,291.64 331.56,268.14 350.99,260.87 Z M443.1,258.78 C442.67,258.78 442.25,258.8 441.82,258.83 L441.82,258.83 C445.97,266.1 451.47,268.46 456.65,272.3 C459.25,274.23 460.95,276.54 463.19,278.81 C455.27,277.6 448.08,273.8 435.47,265.55 L435.55,265.61 C427.84,260.25 415.99,260.82 403.99,263.47 C391.99,266.11 379.86,271.23 372.14,278.1 C383.25,278.33 394.63,273.27 405.62,270.85 C416.6,268.43 427.23,269.04 431.24,271.82 C448.48,283.1 458.29,287.26 471.96,286.74 C478.46,285.86 483.85,287.27 489.91,288.7 C486.4,280.1 480.53,278.7 474.27,279.29 C470.85,274.96 466.46,270.16 461.15,266.22 C455.61,262.11 449.47,258.77 443.1,258.78 Z M469.56,259.81 C471,270.11 475.46,272.37 479.78,274.1 C478.7,265.52 475.25,263.72 472.29,260.89 Z M351.83,264.32 C327.13,282.97 298.1,309.11 299.03,361.82 C300.72,378.44 308.41,392.31 316.66,402.31 C320.79,407.31 325.06,411.34 328.91,414.27 C332.76,417.2 335.86,419.13 339.29,419.6 C356.54,420.04 366.13,424.79 371.55,429.95 C397.51,434.64 421.76,430.27 441.08,421.63 C420.08,422.74 397.29,426.83 375.16,423.51 C368.11,417.43 357.22,412.6 340.31,412.11 C339.87,412.05 336.8,410.78 333.48,408.26 C330.16,405.73 326.26,402.06 322.49,397.5 C314.99,388.41 308.09,375.79 306.59,361.48 C305.8,311.68 332.15,288.64 354.21,271.09 Z M411.56,271.63 C409.63,271.63 407.64,271.72 405.58,271.92 C395.08,273.9 381.62,281.88 369.06,290.33 C356.49,298.78 345.46,307.47 341.09,311.9 C332.94,320.92 328.11,328.4 326.19,336.77 C324.26,345.14 325.32,353.92 328.06,365.27 C333.17,384.04 345.93,393.94 356.73,399.65 L348.36,400.15 C341.58,398.59 333.37,392.04 327.5,386.18 C328.47,397.83 337.16,405.54 347.02,407.66 L373.01,406.25 C411.54,412.31 443.26,394.73 467.34,387.44 C439.58,387.95 409.62,404.55 373.76,398.74 C367.52,397.09 342.49,389.32 335.41,363.44 C332.78,352.56 332.03,345.1 333.55,338.47 C335.08,331.85 338.94,325.57 346.52,317.17 C349.78,313.86 361.05,304.82 373.28,296.61 C385.47,288.41 399.19,280.88 406.52,279.44 C415.3,278.63 422.08,280.14 428.17,282.59 C402.12,283.73 384.78,293.48 372.91,304.01 C391.06,298.02 409.1,287.12 442.06,289.91 C460.77,294.53 468.15,298.73 473.43,302.78 C478.75,306.85 482.71,311.55 493.05,315.77 C486.71,305.02 484.07,301.4 478.02,296.77 C472.06,292.21 463.23,287.41 444.15,282.66 C435.27,276.39 425.04,271.65 411.56,271.63 Z M361.43,272.83 C347.36,280.47 334.59,292.25 322.06,313.42 C307.1,341.52 311.11,365.82 318,380.21 C318.85,364.5 314.9,343.03 328.61,317.21 C340.61,296.96 352.33,286.31 363.21,279.89 Z M364.8,282.66 C357.84,285.94 352.91,290.03 348.11,294.21 C357.76,295.82 362.48,291.99 366.44,289.76 Z M479.4,287.64 C480.87,296.64 484.05,297.77 486.57,298.8 C489.09,299.82 490.83,300.76 491.63,301.65 C494.99,294.08 492.14,292.9 489.41,291.79 C486.69,290.69 483.99,289.69 481.56,288.21 Z M432.16,297.05 C410.22,297.09 396.8,303.71 382.8,313.07 C374.51,319.15 366.43,324.51 360.41,330.72 C354.41,336.9 350.44,344.52 351.95,353.5 C353.61,366.22 365.28,380.26 384.14,381.13 C389.58,381.14 395.85,381.37 401.34,382.31 C404.54,382.85 406.13,384.08 408.38,385.09 C404.46,387.53 400.86,388.85 395.43,389.14 C375.94,391.08 363.23,383.86 353.17,370.29 C348.1,361.94 345.46,353.49 346.95,344.94 C348.45,336.34 354.15,327.15 367.29,317.47 C348.64,321.81 341.41,332.72 339.5,343.64 C337.6,354.57 341.08,365.02 346.79,374.38 C358.17,389.83 374.27,398.8 395.91,396.67 C404.04,396.23 410.26,393.9 417.45,388.02 C425.08,379.66 431.22,373.33 443.27,367.86 C456.13,363.98 470.71,364.25 476.6,365.97 C470.2,356.23 455.25,356.26 440.83,360.67 C428.25,366.3 421.28,373.04 415.5,379.68 C411.76,377.27 407.41,375.67 402.61,374.85 C396.4,373.8 389.8,373.58 384.31,373.58 L384.49,373.58 C369.23,372.88 360.56,361.32 359.43,352.49 C358.3,345.96 360.69,341.28 365.83,335.98 C370.95,330.71 378.76,325.41 387.03,319.35 C400.57,310.3 411.69,304.65 432.13,304.61 C442.09,304.79 447.72,306.8 453.12,308.9 C458.52,311.01 463.95,313.39 471.83,313.26 C465.34,305.81 461.46,304.04 455.87,301.86 C450.28,299.68 443.23,297.24 432.23,297.05 Z M427.53,309.18 C423.52,309.2 419.35,309.58 415.48,310.5 C402.59,313.87 395.25,318.88 390.66,323.37 C388.36,325.61 386.75,327.69 385.51,329.17 C384.28,330.64 383.46,331.33 383.13,331.48 L383.31,331.41 C379,333.08 375.66,335.37 373.83,338.73 C372,342.08 372.15,346.11 373.61,349.79 C376.11,354.66 379.38,358.3 384.05,359.49 C388.46,360.62 393.37,359.51 399.29,357.12 C420.73,360.28 432.58,353.63 443.09,351.36 C459.29,347.5 469.42,347.5 479.91,351.86 C470.67,339.83 458.3,339.98 441.5,343.97 C441.49,343.97 441.48,343.97 441.47,343.97 C429.03,346.67 419.71,352.88 399.41,349.58 C391.6,352.26 388,352.7 385.92,352.17 C383.9,351.65 382.42,350.17 380.63,346.8 C379.84,344.7 379.86,343.45 380.46,342.34 C381.09,341.19 382.71,339.75 386.03,338.46 C388.54,337.35 389.94,335.66 391.31,334.02 C392.69,332.38 394.05,330.62 395.94,328.78 C399.72,325.09 405.56,320.92 417.26,317.86 C422.22,316.69 428.6,316.54 433.79,317.02 C436.39,317.27 438.71,317.66 440.35,318.09 C441.99,318.51 443.06,319.57 442.18,318.53 C449.4,325.6 458.51,325.39 466.68,325.52 C474.85,325.64 482.38,325.96 489.37,331.67 C485.15,318.47 475.1,318.09 466.79,317.96 C458.49,317.83 452.24,317.82 447.7,313.39 L447.94,313.65 C446.06,311.43 444.44,311.34 442.25,310.77 C440.06,310.2 437.42,309.77 434.49,309.49 C432.29,309.29 429.94,309.17 427.53,309.18 Z M287.19,318.29 C278.02,329.75 276.91,334.67 275.89,348.8 C275.77,350.45 274.36,352.16 272.09,354.67 C269.82,357.18 266.71,360.61 266.69,365.67 C266.94,382.66 273.25,404.1 283.51,414.49 C292.13,422.4 295.43,428.98 299.65,434.99 C303.67,440.69 309.26,445.54 319.25,448.19 C321.24,448.88 321.25,448.88 321.25,448.88 C335.75,452.14 348.12,452.38 361.42,458.57 C350.04,444.94 337.04,444.55 323.65,441.64 C320.87,438.37 319.62,436.01 318.67,433.11 C317.64,429.95 316.55,425.81 313.41,420.29 C311.39,416.12 307.9,414.04 304.09,410.41 C300.27,406.76 295.77,401.68 291.28,392.61 C288.31,385.77 285.92,375.41 285.74,365.71 C278.38,376.68 280.88,387.71 284.38,395.71 C289.37,405.82 294.62,411.82 298.87,415.87 C303.12,419.93 305.99,422.23 306.65,423.62 C309.59,428.76 310.32,431.88 311.49,435.46 C311.68,436.06 312.06,436.74 312.29,437.36 C309.69,435.58 307.8,433.42 305.84,430.64 C302.1,425.32 298.12,417.66 288.83,409.12 C281.49,401.61 274.49,380.55 274.25,365.7 C274.27,363.76 275.51,362.16 277.69,359.75 C279.88,357.33 283.06,354.24 283.43,349.36 C284.44,335.37 284.71,333.32 290.54,324.15 Z M424.52,318.74 C422.11,318.72 419.56,319.12 416.88,320.12 C408.83,323.71 404.23,326.7 401.27,329.9 C399.08,332.26 398.56,334.54 397.86,336.75 C392.02,337.6 387.67,339.05 384.88,342.24 C392.01,345.57 394.28,344.58 400.37,343.89 C409.91,344.94 417.72,343.25 424.96,341.09 C432.58,338.82 439.74,336.31 447.66,335.9 C447.68,335.9 447.69,335.89 447.71,335.89 C447.73,335.89 447.75,335.89 447.77,335.89 C454.99,336.62 462.57,336.49 469.03,337.01 C475.65,337.53 480.78,338.92 483.22,341.39 C483.82,331.23 476.83,330.04 469.63,329.47 C462.59,328.91 455.06,329.03 448.48,328.37 C443.96,326.91 439.97,323.98 435.16,321.53 C432.72,320.29 429.93,319.27 426.87,318.89 C426.1,318.8 425.32,318.74 424.52,318.74 Z M424.6,326.16 C425.1,326.15 425.58,326.18 426.05,326.24 C427.95,326.49 429.73,327.25 431.74,328.27 C432.8,328.81 434.48,329.55 435.63,330.24 C431.12,331.33 426.85,332.64 422.81,333.85 C417.17,335.53 411.78,336.41 406.18,336.37 C406.46,335.96 406.39,335.5 406.81,335.04 C408.66,333.05 412.41,330.43 419.62,327.19 C421.51,326.49 423.12,326.17 424.6,326.16 Z M365.52,343.48 L365.62,357.25 L369.06,345.86 Z M421.63,358.07 C410.71,361.69 389.14,364.38 376.51,359.11 C389.56,372.74 411.34,369.48 422.79,365.43 Z M473.18,368.8 C466.54,369.67 463.13,370.76 452.82,371.46 C442.05,372.51 435.33,376.61 430.06,380.75 C439.54,382.91 444.29,379.88 453.44,379 C464.09,378.27 468.13,377.07 473.56,376.33 Z M263.02,375.12 C262.08,398.27 270.39,412.09 278.2,422.87 C278.03,422.8 277.76,422.76 277.6,422.69 C274.63,421.4 272.84,420.05 271.82,417.19 C266.53,424.84 270.57,427.89 274.59,429.63 C278.28,431.22 282.01,432 285.3,432.98 C289.4,436.87 291.86,441.09 295.62,445.57 C299.53,450.23 305.03,454.76 314.65,457.86 C308.5,447.94 304.71,444.66 301.4,440.71 C298.34,437.06 295.46,432.45 290.8,427.89 C281.76,416.94 269.98,400.24 266.96,378.43 Z M260.51,396.95 L258.19,408.15 L264.27,400.04 Z M449.48,399.02 L409.59,412.78 L377.13,410.71 L409.88,420.38 L450.62,406.38 Z M322.8,426.13 C326.22,436.12 333.28,438.94 340.02,440.85 C343.39,441.8 346.66,442.51 349.63,442.86 C352.6,443.2 355.23,443.29 357.8,442.34 C363.91,440.06 367.22,439.23 370.09,439.34 C372.97,439.46 376.05,440.56 381.65,443.03 C384.03,444.08 386.3,444.02 388.81,443.89 C391.31,443.76 393.96,443.38 396.44,442.94 C401.4,442.06 405.68,440.9 405.68,440.9 C403.71,433.61 399.69,434.69 395.12,435.5 C392.83,435.91 390.41,436.24 388.41,436.34 C386.42,436.45 384.77,436.14 384.7,436.11 C378.95,433.58 374.92,431.97 370.4,431.79 C365.88,431.61 361.52,432.88 355.17,435.25 C354.73,435.41 352.88,435.62 350.49,435.35 C348.11,435.07 345.16,434.44 342.08,433.57 C335.91,431.82 329.14,429.1 324.61,426.62 Z M278.26,433.48 C279.33,442.33 281.28,442.69 282.42,445.57 C287.14,436.93 281.76,435.01 280.06,434.02 Z M363.98,441.55 C368.88,449.25 373.5,451.84 380.66,451.22 C375.22,444.11 371.15,441.76 364.37,441.55 Z M327,451.36 L339.05,460.65 L327.75,451.4 Z M44.28,20 L677.57,20 C691.2,20 701.86,30.66 701.86,44.28 L701.86,680.96 C701.86,694.59 691.2,705.25 677.57,705.25 L44.28,705.25 C30.66,705.25 20,694.59 20,680.96 L20,44.28 C20,30.66 30.66,20 44.28,20 Z M44.28,0 C19.92,0 0,19.92 0,44.28 L0,680.96 C0,705.33 19.92,725.26 44.28,725.26 L677.57,725.26 C701.93,725.26 721.85,705.33 721.85,680.96 L721.85,44.28 C721.85,19.92 701.93,0 677.57,0 Z" fill="none" stroke="currentColor" stroke-width="1.5"/></svg>