<svg xmlns="http://www.w3.org/2000/svg" viewBox="0 0 718.73 707.63" width="24" height="24"><path d="M359.29,0 C312.03,0 273.61,38.42 273.61,85.68 C273.61,106.77 281.27,126.08 293.94,141.02 L140.69,293.94 C125.8,281.45 106.61,273.9 85.68,273.9 C38.42,273.9 0,312.32 0,359.58 C0,406.85 38.42,445.27 85.68,445.27 C106.47,445.27 125.55,437.82 140.4,425.47 L288.81,573.29 C279.24,587.12 273.61,603.88 273.61,621.96 C273.61,669.22 312.02,707.63 359.29,707.63 C406.55,707.63 444.97,669.22 444.97,621.96 C444.97,603.91 439.35,587.16 429.8,573.34 L577.97,425.17 C592.88,437.7 612.09,445.27 633.05,445.27 C680.31,445.27 718.73,406.85 718.73,359.58 C718.73,312.32 680.31,273.9 633.05,273.9 C612.05,273.9 592.81,281.5 577.9,294.07 L424.64,141.01 C437.31,126.08 444.96,106.77 444.96,85.68 C444.96,38.42 406.56,0 359.29,0 Z M359.29,9.45 C401.45,9.45 435.52,43.52 435.52,85.68 C435.52,127.84 401.45,161.91 359.29,161.91 C317.13,161.91 283.06,127.84 283.06,85.68 C283.06,43.52 317.13,9.45 359.29,9.45 Z M359.13,46.85 C345.85,46.85 334.89,57.1 334.89,69.54 C334.89,79.27 341.29,85.9 347.89,90.92 C329.14,96.37 318.76,111.33 318.76,127.58 L399.08,127.59 C399.08,114.34 392.38,96.89 371.14,91.05 C377.73,87.02 383.45,79.93 383.45,70.65 C383.45,57.19 373.3,46.85 359.13,46.85 Z M419.51,146.57 L572.33,299.18 C556.91,314.68 547.37,336.03 547.37,359.58 C547.37,383.17 556.94,404.55 572.4,420.05 L425.19,567.25 C409.47,548.34 385.77,536.27 359.29,536.27 C332.83,536.27 309.15,548.32 293.42,567.21 L146.01,420.38 C161.66,404.85 171.36,383.34 171.36,359.58 C171.36,335.97 161.77,314.56 146.27,299.05 L299.07,146.57 C314.56,161.89 335.83,171.36 359.29,171.36 C382.75,171.36 404.03,161.89 419.51,146.57 Z M85.68,283.35 C127.84,283.35 161.92,317.43 161.92,359.58 C161.92,401.74 127.84,435.82 85.68,435.82 C43.52,435.82 9.45,401.74 9.45,359.58 C9.45,317.43 43.52,283.35 85.68,283.35 Z M633.05,283.35 C675.21,283.35 709.28,317.43 709.28,359.58 C709.28,401.74 675.21,435.82 633.05,435.82 C590.89,435.82 556.82,401.74 556.82,359.58 C556.82,317.43 590.89,283.35 633.05,283.35 Z M633.65,303.07 C617.8,303.07 606.65,314.81 606.65,326.43 L606.65,349.18 L590.69,349.18 L590.69,404.23 L676.01,404.23 L676.01,349.18 L660.66,349.18 L660.66,326.43 C660.66,320.44 657.17,314.84 652.27,310.52 C647.37,306.19 640.79,303.07 633.65,303.07 Z M85.36,309.62 C58.28,309.62 36.25,331.65 36.25,358.73 C36.25,385.8 58.28,407.83 85.36,407.83 C112.43,407.83 134.47,385.8 134.47,358.73 C134.47,331.65 112.43,309.62 85.36,309.62 Z M633.65,310.63 C638.52,310.63 643.56,312.91 647.27,316.19 C650.98,319.46 653.1,323.66 653.1,326.43 L653.1,349.18 L614.21,349.18 L614.21,326.43 C614.21,319.99 621.6,310.63 633.65,310.63 Z M472.55,316.1 C457.98,316.1 446.44,320.19 437.93,328.35 C429.41,336.47 425.15,347.53 425.15,361.51 C425.15,375.46 429.41,386.51 437.93,394.68 C446.44,402.8 457.98,406.87 472.55,406.87 C477.44,406.87 482.12,406.32 486.62,405.22 C491.11,404.13 495.43,402.51 499.57,400.36 L499.57,382.26 C495.39,385.11 491.27,387.2 487.2,388.53 C483.14,389.85 478.86,390.52 474.37,390.52 C466.32,390.52 460,387.94 455.39,382.78 C450.78,377.63 448.47,370.54 448.47,361.51 C448.47,352.45 450.78,345.34 455.39,340.19 C460,335.03 466.32,332.45 474.37,332.45 C478.86,332.45 483.14,333.12 487.2,334.44 C491.27,335.77 495.39,337.86 499.57,340.71 L499.57,322.61 C495.43,320.46 491.11,318.84 486.62,317.74 C482.12,316.65 477.44,316.1 472.55,316.1 Z M83.25,317.23 L83.25,328.37 L88.92,317.34 C98.04,318.11 106.3,321.8 112.78,327.49 L105.4,334.87 L116.77,331.51 C122.42,338.03 126.07,346.33 126.77,355.48 L117.25,355.48 L126.83,361.15 C125.58,383.01 107.54,400.27 85.36,400.27 C63.18,400.27 45.14,383.01 43.89,361.15 L54.92,361.15 L43.95,355.48 C44.66,346.25 48.36,337.88 54.1,331.34 L61.64,338.88 L58.12,327.34 C64.91,321.44 73.64,317.7 83.25,317.23 Z M239.42,317.69 L207.01,405.17 L229.69,405.17 L235.26,389.23 L270.53,389.23 L276.04,405.17 L298.71,405.17 L266.31,317.69 Z M306.75,317.69 L306.75,405.17 L329.3,405.17 L329.3,374.81 L344.19,374.81 C355.32,374.81 363.86,372.35 369.79,367.43 C375.77,362.47 378.76,355.4 378.76,346.22 C378.76,337.08 375.77,330.05 369.79,325.13 C363.86,320.17 355.32,317.69 344.19,317.69 Z M392.22,317.69 L392.22,405.17 L414.78,405.17 L414.78,317.69 Z M329.3,334.03 L341.79,334.03 C346.16,334.03 349.54,335.09 351.92,337.2 C354.3,339.31 355.5,342.31 355.5,346.22 C355.5,350.13 354.3,353.15 351.92,355.3 C349.54,357.41 346.16,358.47 341.79,358.47 L329.3,358.47 Z M252.89,338.19 L264.85,373 L240.88,373 Z M103.7,343.27 L98.58,345.03 L85.76,372.24 L105.75,348.04 Z M75.46,382.08 C71.05,383.15 66.59,385.9 62.58,388.22 C67.96,391.77 74.68,396.06 84.8,396.06 C95.54,396.06 102.92,392.42 109.4,388.53 C105.09,386.28 100.78,383.17 95.94,382.13 C95.12,387.09 89.96,390.77 85.01,390.77 C80.8,390.77 75.8,387.37 75.46,382.08 Z M359.29,545.72 C401.44,545.72 435.52,579.8 435.52,621.96 C435.52,664.11 401.44,698.19 359.29,698.19 C317.13,698.19 283.05,664.11 283.05,621.96 C283.05,579.8 317.13,545.72 359.29,545.72 Z M350.46,568.21 L352.98,579.55 L352.98,587.28 C330.84,590.33 313.71,609.39 313.71,632.35 C313.71,657.43 334.14,677.87 359.22,677.87 C384.3,677.87 404.73,657.43 404.73,632.35 C404.73,608.99 387.01,589.67 364.31,587.13 L364.31,579.55 L367.52,579.55 Z M359.22,596.29 C379.19,596.29 395.28,612.37 395.28,632.35 C395.28,652.32 379.19,668.42 359.22,668.42 C339.25,668.42 323.16,652.32 323.16,632.35 C323.16,612.37 339.25,596.29 359.22,596.29 Z M360.76,626.56 C359.38,626.62 358.04,627.13 357.13,627.82 C354.52,629.87 354.52,632.95 356.63,635.11 L378.3,656.35 L380.47,654.26 L365.51,629.1 C364.39,627.15 362.54,626.49 360.76,626.56 Z" fill="none" stroke="currentColor" stroke-width="1.5"/></svg>