<svg xmlns="http://www.w3.org/2000/svg" viewBox="0 0 2037.36 2005.89" width="24" height="24"><path d="M1018.46,26.32 C1137.96,26.32 1234.53,122.91 1234.53,242.41 C1234.53,361.91 1137.96,458.5 1018.46,458.5 C898.96,458.5 802.37,361.91 802.37,242.41 C802.37,122.91 898.96,26.32 1018.46,26.32 L1018.46,26.32 Z M242.88,802.73 C362.38,802.73 458.98,899.33 458.98,1018.83 C458.98,1138.33 362.38,1234.92 242.88,1234.92 C123.38,1234.92 26.79,1138.33 26.79,1018.83 C26.79,899.33 123.38,802.73 242.88,802.73 L242.88,802.73 Z M1794.47,802.74 C1913.97,802.74 2010.57,899.33 2010.57,1018.83 C2010.57,1138.33 1913.97,1234.92 1794.47,1234.92 C1674.97,1234.92 1578.38,1138.33 1578.38,1018.83 C1578.38,899.33 1674.97,802.74 1794.47,802.74 Z M1018.45,1546.46 C1137.95,1546.46 1234.55,1643.06 1234.55,1762.56 C1234.55,1882.06 1137.95,1978.65 1018.45,1978.65 C898.95,1978.65 802.36,1882.06 802.36,1762.56 C802.36,1643.06 898.95,1546.46 1018.45,1546.46 Z" fill="none" stroke="currentColor" stroke-width="1.5"/><rect x="0" y="0" width="0" height="0" fill="none" stroke="currentColor"/><path d="M1018.46,0 C884.49,0 775.59,108.9 775.59,242.88 C775.59,302.65 797.3,357.39 833.21,399.74 L398.81,833.23 C356.6,797.8 302.21,776.42 242.89,776.42 C108.9,776.42 0,885.32 0,1019.29 C0,1153.26 108.9,1262.17 242.88,1262.17 C301.82,1262.17 355.89,1241.08 397.99,1206.06 L818.69,1625.06 C791.54,1664.27 775.58,1711.79 775.58,1763.02 C775.58,1897 884.48,2005.89 1018.46,2005.89 C1152.44,2005.89 1261.34,1897 1261.34,1763.02 C1261.34,1711.86 1245.43,1664.38 1218.33,1625.2 L1638.36,1205.19 C1680.6,1240.72 1735.06,1262.17 1794.48,1262.17 C1928.46,1262.17 2037.36,1153.27 2037.36,1019.29 C2037.36,885.31 1928.46,776.41 1794.48,776.41 C1734.96,776.41 1680.42,797.94 1638.14,833.58 L1203.73,399.72 C1239.62,357.38 1261.33,302.64 1261.33,242.87 C1261.32,108.9 1152.44,0 1018.46,0 Z M1018.46,26.79 C1137.96,26.79 1234.53,123.38 1234.53,242.88 C1234.53,362.38 1137.96,458.97 1018.46,458.97 C898.96,458.97 802.37,362.38 802.37,242.88 C802.37,123.38 898.96,26.79 1018.46,26.79 L1018.46,26.79 Z M1018,132.8 C980.35,132.8 949.29,161.86 949.29,197.13 C949.29,224.71 967.45,243.49 986.16,257.73 C933.01,273.18 903.58,315.57 903.58,361.63 L1131.27,361.66 C1131.27,324.12 1112.27,274.65 1052.06,258.1 C1070.74,246.66 1086.95,226.56 1086.95,200.27 C1086.95,162.12 1058.19,132.8 1018,132.8 L1018,132.8 Z M1189.17,415.47 L1622.34,848.07 C1578.63,892.01 1551.58,952.53 1551.58,1019.28 C1551.58,1086.03 1578.71,1146.74 1622.53,1190.69 L1205.26,1607.94 C1160.68,1554.32 1093.5,1520.13 1018.44,1520.13 C943.38,1520.13 876.31,1554.27 831.74,1607.82 L413.87,1191.61 C458.23,1147.59 485.75,1086.61 485.75,1019.28 C485.75,951.95 458.55,891.64 414.62,847.68 L847.75,415.47 C891.64,458.89 951.95,485.74 1018.45,485.74 C1084.95,485.74 1145.27,458.88 1189.16,415.46 Z M242.88,803.2 C362.38,803.2 458.98,899.8 458.98,1019.3 C458.98,1138.8 362.38,1235.39 242.88,1235.39 C123.38,1235.39 26.79,1138.8 26.79,1019.3 C26.79,899.8 123.38,803.2 242.88,803.2 L242.88,803.2 Z M1794.47,803.2 C1913.97,803.2 2010.57,899.79 2010.57,1019.29 C2010.57,1138.79 1913.97,1235.38 1794.47,1235.38 C1674.97,1235.38 1578.38,1138.79 1578.38,1019.29 C1578.38,899.79 1674.97,803.2 1794.47,803.2 Z M1796.19,859.11 C1751.24,859.11 1719.65,892.39 1719.65,925.32 L1719.65,989.81 L1674.4,989.81 L1674.4,1145.86 L1916.25,1145.86 L1916.25,989.81 L1872.73,989.81 L1872.73,925.32 C1872.73,908.32 1862.86,892.46 1848.96,880.2 C1835.06,867.94 1816.41,859.11 1796.19,859.11 Z M241.96,877.65 C165.21,877.65 102.77,940.11 102.77,1016.86 C102.77,1093.61 165.21,1156.06 241.96,1156.06 C318.71,1156.06 381.17,1093.62 381.17,1016.86 C381.17,940.1 318.71,877.65 241.96,877.65 Z M1796.19,880.54 C1809.98,880.54 1824.27,887 1834.78,896.27 C1845.29,905.54 1851.31,917.46 1851.31,925.31 L1851.31,989.8 L1741.07,989.8 L1741.07,925.31 C1741.07,907.04 1762.03,880.53 1796.19,880.53 Z M1339.53,896.04 C1298.23,896.04 1265.51,907.61 1241.37,930.75 C1217.23,953.78 1205.16,985.12 1205.16,1024.76 C1205.16,1064.4 1217.23,1095.63 1241.37,1118.77 C1265.51,1141.8 1298.23,1153.32 1339.53,1153.32 C1353.37,1153.32 1366.66,1151.77 1379.39,1148.67 C1392.12,1145.57 1404.36,1140.97 1416.1,1134.88 L1416.1,1083.56 C1404.25,1091.64 1392.57,1097.57 1381.05,1101.33 C1369.53,1105.09 1357.41,1106.98 1344.68,1106.98 C1321.87,1106.98 1303.93,1099.67 1290.87,1085.06 C1277.8,1070.44 1271.27,1050.35 1271.27,1024.77 C1271.27,999.19 1277.8,978.93 1290.87,964.31 C1303.94,949.69 1321.87,942.39 1344.68,942.39 C1357.41,942.39 1369.54,944.27 1381.05,948.04 C1392.56,951.81 1404.25,957.73 1416.1,965.81 L1416.1,914.49 C1404.36,908.4 1392.13,903.8 1379.39,900.7 C1366.66,897.6 1353.37,896.05 1339.53,896.05 Z M236,899.23 L236,930.83 C236,935.27 239.59,938.87 244.03,938.87 C248.47,938.87 252.07,935.28 252.07,930.84 L252.07,930.84 L252.07,899.54 C277.91,901.73 301.33,912.2 319.69,928.32 L298.77,949.24 C295.59,952.33 295.52,957.42 298.61,960.6 C301.7,963.78 306.79,963.85 309.97,960.76 C310.02,960.71 310.08,960.65 310.13,960.6 L331,939.72 C347.02,958.2 357.35,981.73 359.35,1007.66 L332.35,1007.66 C327.91,1007.66 324.32,1011.27 324.33,1015.71 C324.33,1020.14 327.92,1023.72 332.35,1023.73 L359.52,1023.73 C355.98,1085.69 304.81,1134.63 241.95,1134.63 C179.09,1134.63 127.94,1085.69 124.4,1023.73 L155.68,1023.73 C160.12,1023.73 163.72,1020.15 163.73,1015.71 C163.73,1011.27 160.15,1007.67 155.71,1007.66 L124.57,1007.66 C126.58,981.5 137.08,957.78 153.34,939.22 L174.71,960.6 C177.8,963.78 182.89,963.86 186.07,960.76 C189.25,957.66 189.33,952.58 186.23,949.4 C186.18,949.35 186.12,949.29 186.07,949.24 L164.72,927.89 C183.98,911.16 208.73,900.58 235.97,899.23 Z M678.66,900.53 L586.81,1148.51 L651.09,1148.51 L666.87,1103.33 L766.86,1103.33 L782.47,1148.51 L846.75,1148.51 L754.9,900.53 L678.66,900.53 Z M869.52,900.53 L869.52,1148.51 L933.47,1148.51 L933.47,1062.47 L975.66,1062.47 C1007.22,1062.47 1031.41,1055.49 1048.24,1041.54 C1065.18,1027.48 1073.65,1007.44 1073.65,981.41 C1073.65,955.38 1065.18,935.57 1048.24,921.62 C1031.41,907.56 1007.22,900.53 975.66,900.53 L869.53,900.53 Z M1111.82,900.53 L1111.82,1148.51 L1175.77,1148.51 L1175.77,900.53 L1111.82,900.53 Z M933.46,946.87 L968.84,946.87 C981.24,946.87 990.82,949.86 997.57,955.84 C1004.32,961.82 1007.7,970.35 1007.7,981.42 C1007.7,992.49 1004.32,1001.07 997.57,1007.16 C990.82,1013.14 981.24,1016.13 968.84,1016.13 L933.46,1016.13 L933.46,946.87 Z M716.86,958.66 L750.74,1057.32 L682.81,1057.32 L716.86,958.66 Z M293.95,973.05 L279.44,978.04 L243.1,1055.17 L243.05,1055.17 C230.67,1055.17 220.64,1065.21 220.63,1077.59 C220.63,1089.97 230.67,1100.01 243.05,1100.01 C255.43,1100.01 265.47,1089.97 265.47,1077.59 L265.47,1077.59 C265.47,1074.09 264.65,1070.65 263.08,1067.53 L299.76,986.58 L293.94,973.05 Z M213.92,1083.06 C201.39,1086.09 188.75,1093.89 177.41,1100.47 C192.66,1110.54 211.71,1122.7 240.4,1122.7 C270.83,1122.7 291.75,1112.36 310.11,1101.33 C297.91,1094.96 285.68,1086.14 271.96,1083.19 C269.64,1097.26 255.01,1107.68 240.97,1107.68 C229.06,1107.68 214.87,1098.04 213.92,1083.06 Z M1018.45,1546.92 C1137.95,1546.92 1234.55,1643.52 1234.55,1763.02 C1234.55,1882.52 1137.95,1979.11 1018.45,1979.11 C898.95,1979.11 802.36,1882.52 802.36,1763.02 C802.36,1643.52 898.95,1546.92 1018.45,1546.92 Z M993.43,1610.69 C984.56,1610.53 977.23,1617.6 977.07,1626.47 C976.91,1635.35 983.98,1642.67 992.85,1642.83 C993.04,1642.83 993.23,1642.83 993.43,1642.83 L1000.56,1642.83 L1000.56,1664.73 C937.81,1673.4 889.27,1727.4 889.27,1792.49 C889.27,1863.58 947.17,1921.52 1018.26,1921.52 C1089.35,1921.52 1147.26,1863.59 1147.26,1792.49 C1147.26,1726.28 1097.02,1671.53 1032.69,1664.32 L1032.69,1642.84 L1041.78,1642.84 C1050.65,1643 1057.98,1635.93 1058.14,1627.06 C1058.3,1618.18 1051.23,1610.86 1042.36,1610.7 C1042.17,1610.7 1041.98,1610.7 1041.78,1610.7 L993.42,1610.7 Z M1018.26,1690.26 C1074.88,1690.26 1120.48,1735.86 1120.48,1792.48 C1120.48,1849.1 1074.88,1894.72 1018.26,1894.72 C961.64,1894.72 916.04,1849.1 916.04,1792.48 C916.04,1735.86 961.64,1690.26 1018.26,1690.26 Z M1022.62,1776.09 C1018.7,1776.26 1014.91,1777.7 1012.34,1779.64 C1004.93,1785.47 1004.95,1794.18 1010.92,1800.3 L1072.35,1860.53 L1078.51,1854.59 L1036.09,1783.26 C1032.93,1777.73 1027.67,1775.86 1022.63,1776.08 Z" fill="none" stroke="currentColor" stroke-width="1.5"/></svg>