<svg xmlns="http://www.w3.org/2000/svg" viewBox="0 0 938.03 725.26" width="24" height="24"><path d="M475.84,154.52 C375.54,154.52 293.78,236.28 293.78,336.58 C293.78,380.06 309.14,420.04 334.71,451.4 L231.99,557.61 L275.46,599.65 L380.17,491.38 C408,508.66 440.79,518.65 475.84,518.65 C576.15,518.65 657.91,436.89 657.91,336.58 C657.91,236.28 576.15,154.52 475.84,154.52 Z M184.78,195.37 L110.97,247.88 L184.78,300.4 L184.78,264.66 L269.45,264.66 L269.45,231.1 L184.78,231.1 Z M758.67,195.37 L758.67,231.1 L674,231.1 L674,264.66 L758.67,264.66 L758.67,300.4 L832.48,247.88 Z M475.84,196.09 C553.68,196.09 616.34,258.75 616.34,336.58 C616.34,414.42 553.68,477.08 475.84,477.08 C398.01,477.08 335.35,414.42 335.35,336.58 C335.35,258.75 398.01,196.09 475.84,196.09 Z M478.18,227.53 C447.5,227.53 429.9,252.74 429.9,275.16 L429.9,313.99 L397.94,313.99 L397.94,420.7 L553.75,420.7 L553.75,313.99 L526.46,313.99 L526.46,275.16 C526.46,248.21 503.93,227.53 478.18,227.53 Z M478.18,238.23 C498.23,238.23 515.76,254.17 515.76,275.16 L515.76,313.99 L440.61,313.99 L440.61,275.16 C440.61,258.23 453.3,238.23 478.18,238.23 Z M475.84,347.47 C481.82,347.47 486.66,352.31 486.66,358.29 C486.66,362.61 484.09,366.51 480.12,368.21 L480.12,393.28 L471.56,393.28 L471.56,368.22 C467.59,366.51 465.02,362.61 465.02,358.29 C465.02,352.31 469.87,347.47 475.84,347.47 Z M197.05,384.6 L197.05,420.33 L112.38,420.33 L112.38,453.89 L197.05,453.89 L197.05,489.62 L270.87,437.11 Z M732.79,384.6 L658.98,437.11 L732.79,489.62 L732.79,453.89 L817.46,453.89 L817.46,420.33 L732.79,420.33 Z M44.28,0 C19.92,0 0,19.92 0,44.28 L0,680.96 C0,705.33 19.92,725.26 44.28,725.26 L893.74,725.26 C918.1,725.26 938.03,705.33 938.03,680.96 L938.03,44.28 C938.03,19.92 918.1,0 893.74,0 Z M44.28,20 L893.74,20 C907.37,20 918.03,30.66 918.03,44.28 L918.03,680.96 C918.03,694.59 907.37,705.25 893.74,705.25 L44.28,705.25 C30.66,705.25 20,694.59 20,680.96 L20,44.28 C20,30.66 30.66,20 44.28,20 Z" fill="none" stroke="currentColor" stroke-width="1.5"/></svg>