<svg xmlns="http://www.w3.org/2000/svg" viewBox="0 0 196.97 196.97" width="24" height="24"><path d="M66.63,132.09 L66.63,138.52 L75.64,138.52 L90.16,148.69 L90.16,150.05 L79.2,150.05 L79.2,148.59 L66.63,148.59 L66.63,155.02 L79.2,155.02 L79.2,153.55 L90.16,153.55 L90.16,156.11 L77.35,165.09 L66.63,165.09 L66.63,171.52 L79.2,171.52 L79.2,168.07 L90.91,159.86 L96.73,159.86 L96.73,165.09 L92.2,165.09 L92.2,171.52 L104.77,171.52 L104.77,165.09 L100.23,165.09 L100.23,159.86 L106.1,159.86 L117.77,168.04 L117.77,171.52 L130.34,171.52 L130.34,165.09 L119.66,165.09 L106.81,156.08 L106.81,153.55 L117.77,153.55 L117.77,155.02 L130.34,155.02 L130.34,148.59 L117.77,148.59 L117.77,150.05 L106.81,150.05 L106.81,148.72 L121.37,138.52 L130.34,138.52 L130.34,132.09 L117.77,132.09 L117.77,136.76 L106.81,144.45 L106.81,143.75 L100.23,143.75 L100.23,138.52 L104.77,138.52 L104.77,132.09 L92.2,132.09 L92.2,138.52 L96.73,138.52 L96.73,143.75 L90.16,143.75 L90.16,144.42 L79.2,136.73 L79.2,132.09 Z M98.48,2.5 C151.51,2.5 194.47,45.46 194.47,98.48 C194.47,151.51 151.51,194.47 98.48,194.47 C45.46,194.47 2.5,151.51 2.5,98.48 C2.5,45.46 45.46,2.5 98.48,2.5 Z M98.48,0 C44.11,0 0,44.11 0,98.48 C0,152.86 44.11,196.97 98.48,196.97 C152.86,196.97 196.97,152.86 196.97,98.48 C196.97,44.11 152.86,0 98.48,0 Z M101.49,66.26 L123,44.33 L113.9,35.4 L146.72,28.58 L140.63,61.62 L131.61,52.77 L110.1,74.71 Z M53.17,24.77 L75.11,46.28 L84.03,37.18 L90.86,70 L57.82,63.91 L66.66,54.89 L44.73,33.38 Z M94.58,90.14 L73.07,112.08 L82.17,121 L49.35,127.83 L55.44,94.79 L64.46,103.63 L85.97,81.7 Z M143.8,131.88 L121.86,110.37 L112.94,119.47 L106.11,86.65 L139.15,92.74 L130.3,101.76 L152.24,123.27 Z" fill="none" stroke="currentColor" stroke-width="1.5"/></svg>