<svg xmlns="http://www.w3.org/2000/svg" viewBox="0 0 190.99 191.89" width="24" height="24"><path d="M90.07,86.88 L90.07,74.25 L92.59,74.25 L95.58,83.19 L99.87,74.25 L102.12,74.25 L102.12,86.88 L100.51,86.88 L100.51,76.31 L96.84,86.88 L95.33,86.88 L91.68,76.13 L91.68,86.88 Z M78.38,86.88 L78.38,74.25 L87.51,74.25 L87.51,75.74 L80.05,75.74 L80.05,79.61 L87.03,79.61 L87.03,81.09 L80.05,81.09 L80.05,85.39 L87.8,85.39 L87.8,86.88 Z M73.73,86.88 L73.73,74.25 L75.4,74.25 L75.4,86.88 Z M61.1,82.82 L62.67,82.69 L69.17,77.93 Z M97.37,136.12 C97.38,135.92 97.34,135.72 97.25,135.53 L95.96,132.9 C95.66,132.29 94.93,132.04 94.33,132.34 L91.41,133.76 C90.63,132.68 89.68,131.72 88.59,130.94 L90.02,128.03 C90.32,127.42 90.07,126.69 89.46,126.39 L86.83,125.11 C86.22,124.81 85.49,125.06 85.19,125.67 L83.64,128.84 C82.94,128.71 82.21,128.64 81.47,128.64 C80.73,128.64 80,128.71 79.3,128.84 L77.75,125.67 C77.45,125.06 76.72,124.81 76.11,125.11 L73.48,126.39 C72.87,126.69 72.62,127.42 72.92,128.03 L74.34,130.94 C73.26,131.72 72.31,132.68 71.53,133.76 L68.61,132.34 C68,132.04 67.27,132.29 66.98,132.9 L65.69,135.53 C65.39,136.14 65.64,136.87 66.25,137.16 L69.42,138.71 C69.29,139.42 69.23,140.14 69.23,140.89 C69.23,141.63 69.29,142.35 69.42,143.06 L66.25,144.61 C65.64,144.9 65.39,145.63 65.69,146.24 L66.98,148.87 C67.27,149.48 68,149.73 68.61,149.44 L71.53,148.01 C72.31,149.1 73.26,150.05 74.34,150.83 L72.92,153.74 C72.62,154.35 72.87,155.08 73.48,155.38 L76.11,156.66 C76.72,156.96 77.45,156.71 77.75,156.1 L79.3,152.94 C80,153.06 80.73,153.13 81.47,153.13 C82.21,153.13 82.94,153.06 83.64,152.94 L85.19,156.1 C85.49,156.71 86.22,156.96 86.83,156.66 L89.46,155.38 C90.07,155.08 90.32,154.35 90.02,153.74 L88.59,150.83 C89.68,150.05 90.63,149.09 91.41,148.01 L94.33,149.44 C94.93,149.73 95.66,149.48 95.96,148.87 L97.25,146.24 C97.55,145.63 97.3,144.9 96.69,144.61 L93.52,143.06 C93.65,142.35 93.71,141.63 93.71,140.89 C93.71,140.14 93.65,139.42 93.52,138.71 L96.69,137.16 C97.11,136.96 97.35,136.55 97.37,136.12 Z M89.48,140.89 C89.48,145.33 85.92,148.9 81.47,148.9 C77.02,148.9 73.46,145.33 73.46,140.89 C73.46,136.44 77.02,132.87 81.47,132.87 C85.92,132.87 89.48,136.44 89.48,140.89 Z M156.84,75.81 C156.85,75.61 156.81,75.41 156.72,75.22 L155.43,72.59 C155.14,71.98 154.41,71.73 153.8,72.03 L150.88,73.45 C150.1,72.37 149.15,71.42 148.07,70.64 L149.49,67.72 C149.79,67.11 149.54,66.38 148.93,66.09 L146.3,64.8 C145.69,64.5 144.96,64.75 144.66,65.36 L143.11,68.53 C142.41,68.4 141.68,68.33 140.94,68.33 C140.2,68.33 139.47,68.4 138.77,68.53 L137.22,65.36 C136.92,64.75 136.19,64.5 135.58,64.8 L132.95,66.09 C132.34,66.38 132.09,67.11 132.39,67.72 L133.81,70.64 C132.73,71.42 131.78,72.37 131,73.45 L128.08,72.03 C127.47,71.73 126.74,71.98 126.45,72.59 L125.16,75.22 C124.86,75.83 125.11,76.56 125.72,76.86 L128.89,78.41 C128.76,79.11 128.7,79.84 128.7,80.58 C128.7,81.32 128.76,82.05 128.89,82.75 L125.72,84.3 C125.11,84.6 124.86,85.33 125.16,85.94 L126.45,88.57 C126.74,89.18 127.47,89.43 128.08,89.13 L131,87.7 C131.78,88.79 132.73,89.74 133.81,90.52 L132.39,93.43 C132.09,94.04 132.34,94.77 132.95,95.07 L135.58,96.36 C136.19,96.66 136.92,96.4 137.22,95.8 L138.77,92.63 C139.47,92.76 140.2,92.82 140.94,92.82 C141.68,92.82 142.41,92.76 143.11,92.63 L144.66,95.8 C144.96,96.4 145.69,96.66 146.3,96.36 L148.93,95.07 C149.54,94.77 149.79,94.04 149.49,93.43 L148.07,90.52 C149.15,89.74 150.1,88.79 150.88,87.7 L153.8,89.13 C154.41,89.43 155.14,89.18 155.43,88.57 L156.72,85.94 C157.02,85.33 156.77,84.6 156.16,84.3 L152.99,82.75 C153.12,82.05 153.18,81.32 153.18,80.58 C153.18,79.84 153.12,79.11 152.99,78.41 L156.16,76.86 C156.58,76.65 156.83,76.24 156.84,75.81 Z M148.95,80.58 C148.95,85.03 145.39,88.59 140.94,88.59 C136.49,88.59 132.93,85.03 132.93,80.58 C132.93,76.13 136.49,72.57 140.94,72.57 C145.39,72.57 148.95,76.13 148.95,80.58 Z M67.95,35.5 C67.39,35.48 66.82,35.59 66.28,35.85 L58.83,39.5 C57.1,40.34 56.39,42.41 57.23,44.14 L61.27,52.39 C58.2,54.61 55.5,57.31 53.29,60.38 L45.03,56.34 C43.3,55.5 41.23,56.21 40.39,57.93 L36.74,65.39 C35.9,67.12 36.61,69.19 38.33,70.03 L47.31,74.42 C46.95,76.42 46.76,78.48 46.76,80.58 C46.76,82.68 46.95,84.74 47.31,86.74 L38.33,91.13 C36.61,91.97 35.9,94.04 36.74,95.77 L40.39,103.22 C41.23,104.95 43.3,105.66 45.03,104.81 L53.29,100.78 C55.5,103.85 58.2,106.55 61.27,108.76 L57.23,117.02 C56.39,118.75 57.1,120.82 58.83,121.66 L66.28,125.31 C68.01,126.15 70.08,125.44 70.92,123.71 L75.31,114.73 C77.31,115.1 79.37,115.29 81.47,115.29 C83.57,115.29 85.63,115.1 87.63,114.73 L92.02,123.71 C92.86,125.44 94.93,126.15 96.66,125.31 L104.11,121.66 C105.84,120.82 106.55,118.75 105.71,117.02 L101.67,108.76 C104.74,106.55 107.44,103.85 109.65,100.78 L117.91,104.81 C119.64,105.66 121.71,104.95 122.55,103.22 L126.2,95.77 C127.04,94.04 126.33,91.97 124.6,91.13 L115.63,86.74 C115.99,84.74 116.18,82.68 116.18,80.58 C116.18,78.48 115.99,76.42 115.63,74.42 L124.6,70.03 C126.33,69.19 127.04,67.12 126.2,65.39 L122.55,57.93 C121.71,56.21 119.64,55.5 117.91,56.34 L109.65,60.38 C107.44,57.31 104.74,54.61 101.67,52.39 L105.71,44.14 C106.55,42.41 105.84,40.34 104.11,39.5 L96.66,35.85 C94.93,35.01 92.86,35.72 92.02,37.44 L87.63,46.42 C85.63,46.06 83.57,45.87 81.47,45.87 C79.37,45.87 77.31,46.06 75.31,46.42 L70.92,37.44 C70.34,36.26 69.18,35.55 67.95,35.5 Z M81.47,57.87 C94.08,57.87 104.18,67.97 104.18,80.58 C104.18,93.19 94.08,103.29 81.47,103.29 C68.86,103.29 58.76,93.19 58.76,80.58 C58.76,67.97 68.86,57.87 81.47,57.87 Z M11.72,5.29 L179.27,5.29 C182.88,5.29 185.7,8.11 185.7,11.72 L185.7,180.17 C185.7,183.78 182.88,186.6 179.27,186.6 L11.72,186.6 C8.11,186.6 5.29,183.78 5.29,180.17 L5.29,11.72 C5.29,8.11 8.11,5.29 11.72,5.29 Z M11.72,0 C5.27,0 0,5.27 0,11.72 L0,180.17 C0,186.62 5.27,191.89 11.72,191.89 L179.27,191.89 C185.72,191.89 190.99,186.62 190.99,180.17 L190.99,11.72 C190.99,5.27 185.72,0 179.27,0 Z" fill="none" stroke="currentColor" stroke-width="1.5"/></svg>