<svg xmlns="http://www.w3.org/2000/svg" viewBox="0 0 190.99 191.89" width="24" height="24"><path d="M39.28,33.16 L39.28,158.73 L151.71,158.73 L151.71,33.16 Z M50.59,44.08 L61.36,44.08 L61.36,91.21 L50.59,91.21 Z M77.25,44.08 L88.03,44.08 L88.03,91.21 L77.25,91.21 Z M103.92,44.08 L114.7,44.08 L114.7,91.21 L103.92,91.21 Z M130.59,44.08 L141.37,44.08 L141.37,91.21 L130.59,91.21 Z M50.59,100.36 L61.36,100.36 L61.36,147.49 L50.59,147.49 Z M77.25,100.36 L88.03,100.36 L88.03,147.49 L77.25,147.49 Z M103.92,100.36 L114.7,100.36 L114.7,147.49 L103.92,147.49 Z M130.59,100.36 L141.37,100.36 L141.37,147.49 L130.59,147.49 Z M11.72,5.29 L179.27,5.29 C182.88,5.29 185.7,8.11 185.7,11.72 L185.7,180.17 C185.7,183.78 182.88,186.6 179.27,186.6 L11.72,186.6 C8.11,186.6 5.29,183.78 5.29,180.17 L5.29,11.72 C5.29,8.11 8.11,5.29 11.72,5.29 Z M11.72,0 C5.27,0 0,5.27 0,11.72 L0,180.17 C0,186.62 5.27,191.89 11.72,191.89 L179.27,191.89 C185.72,191.89 190.99,186.62 190.99,180.17 L190.99,11.72 C190.99,5.27 185.72,0 179.27,0 Z" fill="none" stroke="currentColor" stroke-width="1.5"/></svg>