<svg xmlns="http://www.w3.org/2000/svg" viewBox="0 0 212.35 215.95" width="24" height="24"><rect x="5.67" y="5.67" width="201.01" height="204.61" fill="none" stroke="currentColor"/><rect x="0" y="0" width="0" height="0" fill="none" stroke="currentColor"/><path d="M0,0 L0,215.95 L212.35,215.95 L212.35,0 L0,0 Z M123.87,210.28 L86.38,210.28 L86.38,144.83 L123.87,144.83 L123.87,210.28 Z M206.68,210.28 L129.54,210.28 L129.54,139.16 L80.71,139.16 L80.71,210.28 L5.67,210.28 L5.67,5.67 L206.68,5.67 L206.68,210.28 Z M17.99,34.04 L17.99,72.82 L52.24,72.82 L52.24,34.04 L17.99,34.04 Z M64.47,34.04 L64.47,72.82 L98.72,72.82 L98.72,34.04 L64.47,34.04 Z M110.94,34.04 L110.94,72.82 L145.19,72.82 L145.19,34.04 L110.94,34.04 Z M157.42,34.04 L157.42,72.82 L191.67,72.82 L191.67,34.04 L157.42,34.04 Z M23.66,39.71 L46.57,39.71 L46.57,67.15 L23.66,67.15 L23.66,39.71 Z M70.13,39.71 L93.04,39.71 L93.04,67.15 L70.13,67.15 L70.13,39.71 Z M116.61,39.71 L139.52,39.71 L139.52,67.15 L116.61,67.15 L116.61,39.71 Z M163.09,39.71 L186.01,39.71 L186.01,67.15 L163.09,67.15 L163.09,39.71 Z M17.99,86.28 L17.99,125.05 L52.24,125.05 L52.24,86.28 L17.99,86.28 Z M64.47,86.28 L64.47,125.05 L98.72,125.05 L98.72,86.28 L64.47,86.28 Z M110.94,86.28 L110.94,125.05 L145.19,125.05 L145.19,86.28 L110.94,86.28 Z M157.42,86.28 L157.42,125.05 L191.67,125.05 L191.67,86.28 L157.42,86.28 Z M23.66,91.95 L46.57,91.95 L46.57,119.38 L23.66,119.38 L23.66,91.95 Z M70.13,91.95 L93.04,91.95 L93.04,119.38 L70.13,119.38 L70.13,91.95 Z M116.61,91.95 L139.52,91.95 L139.52,119.38 L116.61,119.38 L116.61,91.95 Z M163.09,91.95 L186.01,91.95 L186.01,119.38 L163.09,119.38 L163.09,91.95 Z" fill="none" stroke="currentColor" stroke-width="1.5"/></svg>