<svg xmlns="http://www.w3.org/2000/svg" viewBox="0 0 938.03 725.26" width="24" height="24"><path d="M361.54,579.48 L654.46,579.57 L654.46,619.36 C654.46,627.93 647.74,634.65 639.17,634.65 L376.84,634.65 C368.27,634.65 361.54,627.93 361.54,619.36 Z M654.46,490.82 L654.46,541.27 L361.54,540.71 L361.54,491.01 Z M500.99,287.7 L500.99,311.92 L512.33,287.7 C522.75,290.23 530.43,299.57 530.43,310.79 C530.43,323.97 519.84,334.55 506.66,334.55 C493.47,334.55 482.89,323.97 482.89,310.79 C482.89,299.57 490.57,290.23 500.99,287.7 Z M506.66,277.57 C488.37,277.57 473.45,292.5 473.45,310.79 C473.45,329.08 488.37,344 506.66,344 C524.94,344 539.88,329.08 539.88,310.79 C539.88,292.5 524.94,277.57 506.66,277.57 Z M361.54,255.42 L654.46,255.42 L654.46,328.9 C636.58,329.27 615.78,329.44 590.38,329.48 L590.38,275.31 L509.11,356.88 L590.38,438.45 L590.38,382.39 C615.25,382.35 636.14,382.13 654.46,381.71 L654.46,452.14 L361.54,451.95 Z M376.84,94.44 L639.17,94.44 C647.74,94.44 654.46,101.17 654.46,109.74 L654.46,209.73 L361.54,209.59 L361.54,109.74 C361.54,101.17 368.27,94.44 376.84,94.44 Z M208.04,554.35 Z M208.04,516.47 C246.02,516.47 276.52,546.97 276.52,584.95 C276.52,622.93 246.02,653.43 208.04,653.43 C170.06,653.43 139.55,622.93 139.55,584.95 C139.55,546.97 170.06,516.47 208.04,516.47 Z M185.62,332.5 L164.04,353.67 L185.25,375.29 L164.04,396.92 L185.62,418.1 L206.42,396.89 L227.23,418.1 L248.82,396.92 L227.6,375.29 L248.82,353.67 L227.23,332.5 L206.42,353.7 Z M206.43,306.81 C244.41,306.81 274.91,337.32 274.91,375.29 C274.91,413.27 244.41,443.78 206.43,443.78 C168.45,443.78 137.95,413.27 137.95,375.29 C137.95,337.32 168.45,306.81 206.43,306.81 Z M252.3,111.54 L190.8,171.7 L188.61,142.8 L173.57,194.4 L258.65,127.58 Z M215.54,88.85 C253.52,88.85 284.02,119.35 284.02,157.33 C284.02,195.31 253.52,225.81 215.54,225.81 C177.56,225.81 147.05,195.31 147.05,157.33 C147.05,119.35 177.56,88.85 215.54,88.85 Z M350.21,566.37 L350.21,619.36 C350.21,634.01 362.18,645.99 376.84,645.99 L639.17,645.99 C653.83,645.99 665.8,634.01 665.8,619.36 L665.8,566.67 Z M208.04,490.01 C155.76,490.01 113.1,532.67 113.1,584.95 C113.1,637.23 155.76,679.89 208.04,679.89 C260.31,679.89 302.97,637.23 302.97,584.95 C302.97,532.67 260.31,490.01 208.04,490.01 Z M350.21,475.33 L350.21,554.2 L665.8,554.17 L665.8,475.42 Z M206.43,280.36 C154.15,280.36 111.49,323.02 111.49,375.29 C111.49,427.57 154.15,470.23 206.43,470.23 C258.7,470.23 301.37,427.57 301.37,375.29 C301.37,323.02 258.7,280.36 206.43,280.36 Z M376.84,83.11 C362.18,83.11 350.21,95.08 350.21,109.74 L350.21,222.36 L665.8,222.63 L665.8,109.74 C665.8,95.08 653.83,83.11 639.17,83.11 Z M215.54,62.39 C163.26,62.39 120.6,105.05 120.6,157.33 C120.6,209.61 163.26,252.27 215.54,252.27 C267.81,252.27 310.47,209.61 310.47,157.33 C310.47,105.05 267.81,62.39 215.54,62.39 Z M44.28,20 L893.74,20 C907.37,20 918.03,30.66 918.03,44.28 L918.03,259.76 C879.76,280.13 846.97,296.86 784.72,313.64 C744.34,323.08 719.92,327.08 665.8,328.62 L665.8,240.37 L350.21,240.37 L350.21,464.97 L665.8,465.06 L665.8,381.42 C724.94,379.64 754.47,375.08 797.33,365.04 L797.76,364.94 L798.18,364.83 C850.89,350.64 886.24,335.4 918.03,319.4 L918.03,680.96 C918.03,694.59 907.37,705.25 893.74,705.25 L44.28,705.25 C30.66,705.25 20,694.59 20,680.96 L20,44.28 C20,30.66 30.66,20 44.28,20 Z M44.28,0 C19.92,0 0,19.92 0,44.28 L0,680.96 C0,705.33 19.92,725.26 44.28,725.26 L893.74,725.26 C918.1,725.26 938.03,705.33 938.03,680.96 L938.03,44.28 C938.03,19.92 918.1,0 893.74,0 Z" fill="none" stroke="currentColor" stroke-width="1.5"/></svg>