<svg xmlns="http://www.w3.org/2000/svg" viewBox="0 0 248.19 191.89" width="24" height="24"><path d="M89.75,25.86 L159.15,25.86 C161.42,25.86 163.2,27.64 163.2,29.91 L163.2,56.36 L85.7,56.33 L85.7,29.91 C85.7,27.64 87.48,25.86 89.75,25.86 Z M163.2,120.5 L85.7,120.45 L85.7,68.45 L163.2,68.45 Z M124.09,74.31 C119.25,74.31 115.31,78.26 115.31,83.1 C115.31,87.94 119.25,91.89 124.09,91.89 C128.93,91.89 132.88,87.94 132.88,83.1 C132.88,78.26 128.93,74.31 124.09,74.31 Z M122.59,76.99 L122.59,83.4 C122.59,85.4 125.6,85.4 125.6,83.4 L125.6,76.99 C128.35,77.66 130.38,80.13 130.38,83.1 C130.38,86.59 127.58,89.39 124.09,89.39 C120.61,89.39 117.81,86.59 117.81,83.1 C117.81,80.13 119.84,77.66 122.59,76.99 Z M163.2,130.73 L163.2,144.09 L85.7,143.94 L85.7,130.79 Z M85.7,154.19 L163.2,154.22 L163.2,164.74 C163.2,167.01 161.42,168.79 159.15,168.79 L89.75,168.79 C87.48,168.79 85.7,167.01 85.7,164.74 Z M11.72,5.29 L236.47,5.29 C240.07,5.29 242.89,8.11 242.89,11.72 L242.89,180.17 C242.89,183.78 240.07,186.6 236.47,186.6 L11.72,186.6 C8.11,186.6 5.29,183.78 5.29,180.17 L5.29,11.72 C5.29,8.11 8.11,5.29 11.72,5.29 Z M11.72,0 C5.27,0 0,5.27 0,11.72 L0,180.17 C0,186.62 5.27,191.89 11.72,191.89 L236.47,191.89 C242.91,191.89 248.19,186.62 248.19,180.17 L248.19,11.72 C248.19,5.27 242.91,0 236.47,0 Z M89.75,22.86 C85.87,22.86 82.7,26.03 82.7,29.91 L82.7,59.71 L166.2,59.78 L166.2,29.91 C166.2,26.03 163.03,22.86 159.15,22.86 Z M166.2,64.47 L82.7,64.47 L82.7,123.9 L166.2,123.92 Z M82.7,126.64 L82.7,147.51 L166.2,147.5 L166.2,126.66 Z M82.7,150.72 L82.7,164.74 C82.7,168.62 85.87,171.79 89.75,171.79 L159.15,171.79 C163.03,171.79 166.2,168.62 166.2,164.74 L166.2,150.81 Z M200.6,103.42 L176.87,120.31 L200.6,137.19 L200.6,125.7 L227.83,125.7 L227.83,114.91 L200.6,114.91 Z M48.27,103.42 L48.27,114.91 L21.04,114.91 L21.04,125.7 L48.27,125.7 L48.27,137.19 L72.01,120.31 Z M204.1,64.89 L204.1,76.38 L176.87,76.38 L176.87,87.17 L204.1,87.17 L204.1,98.66 L227.83,81.78 Z M44.78,64.89 L21.04,81.78 L44.78,98.66 L44.78,87.17 L72.01,87.17 L72.01,76.38 L44.78,76.38 Z" fill="none" stroke="currentColor" stroke-width="1.5"/></svg>