<svg xmlns="http://www.w3.org/2000/svg" viewBox="0 0 938.03 725.26" width="24" height="24"><path d="M547.61,281.52 C533.72,281.52 520.97,284.71 509.37,291.08 C497.84,297.38 488.93,306.66 482.62,318.9 C476.39,331.08 473.28,345.37 473.28,361.77 C473.28,376.8 476.03,390.88 481.55,403.98 C487.13,417.09 495.23,427.11 505.83,434.06 C516.5,440.94 530.32,444.37 547.29,444.37 C563.69,444.37 577.55,439.9 588.86,430.95 C600.25,421.92 608.13,408.85 612.5,391.74 L591.66,386.47 C588.79,399.72 583.31,409.71 575.22,416.44 C567.13,423.18 557.25,426.54 545.57,426.54 C535.98,426.54 527.06,424.07 518.82,419.13 C510.59,414.19 504.5,406.74 500.56,396.79 C496.7,386.76 494.76,375.05 494.76,361.66 C494.76,351.27 496.41,341.21 499.7,331.47 C503,321.66 508.69,313.86 516.78,308.05 C524.95,302.25 535.08,299.35 547.18,299.35 C557.71,299.35 566.45,301.97 573.39,307.2 C580.34,312.42 585.64,320.77 589.29,332.22 L609.81,327.39 C605.59,312.85 598.1,301.57 587.36,293.55 C576.62,285.53 563.37,281.52 547.61,281.52 Z M388.63,281.52 C374.74,281.52 361.99,284.71 350.39,291.08 C338.86,297.38 329.94,306.66 323.64,318.9 C317.41,331.08 314.29,345.37 314.29,361.77 C314.29,376.8 317.05,390.88 322.56,403.98 C328.15,417.09 336.24,427.11 346.84,434.06 C357.51,440.94 371.33,444.37 388.31,444.37 C404.71,444.37 418.56,439.9 429.88,430.95 C441.27,421.92 449.14,408.85 453.51,391.74 L432.67,386.47 C429.81,399.72 424.33,409.71 416.24,416.44 C408.14,423.18 398.26,426.54 386.59,426.54 C376.99,426.54 368.08,424.07 359.84,419.13 C351.6,414.19 345.52,406.74 341.58,396.79 C337.71,386.76 335.78,375.05 335.78,361.66 C335.78,351.27 337.42,341.21 340.72,331.47 C344.01,321.66 349.71,313.86 357.8,308.05 C365.96,302.25 376.1,299.35 388.2,299.35 C398.73,299.35 407.46,301.97 414.41,307.2 C421.36,312.42 426.66,320.77 430.31,332.22 L450.83,327.39 C446.6,312.85 439.12,301.57 428.38,293.55 C417.63,285.53 404.38,281.52 388.63,281.52 Z M462.85,160.87 C574.92,160.87 665.45,251.4 665.45,363.47 C665.45,475.54 574.92,566.07 462.85,566.07 C350.78,566.07 260.25,475.54 260.25,363.47 C260.25,251.4 350.78,160.87 462.85,160.87 Z M44.28,20 L893.74,20 C907.37,20 918.03,30.66 918.03,44.28 L918.03,680.96 C918.03,694.59 907.37,705.25 893.74,705.25 L44.28,705.25 C30.66,705.25 20,694.59 20,680.96 L20,44.28 C20,30.66 30.66,20 44.28,20 Z M44.28,0 C19.92,0 0,19.92 0,44.28 L0,680.96 C0,705.33 19.92,725.26 44.28,725.26 L893.74,725.26 C918.1,725.26 938.03,705.33 938.03,680.96 L938.03,44.28 C938.03,19.92 918.1,0 893.74,0 Z M612.68,597.82 L681.27,684.49 L749.86,597.82 Z M228.46,513.09 L141.78,581.68 L228.46,650.27 Z M462.89,130.45 L462.89,130.64 C462.87,130.64 462.86,130.64 462.85,130.64 C375.56,130.64 299.38,178.89 259.52,250.12 L259.52,139.84 L231.18,139.84 L231.18,340.15 C230.41,347.82 230.01,355.6 230.01,363.47 C230.01,451.28 278.84,527.85 350.78,567.51 L238.89,567.51 L238.89,595.86 L448.67,595.86 C453.36,596.14 458.08,596.3 462.85,596.3 C550.8,596.3 627.5,547.31 667.1,475.17 L667.1,587.38 L695.45,587.38 L695.45,373.74 C695.59,370.33 695.68,366.91 695.68,363.47 C695.68,275.2 646.34,198.27 573.78,158.79 L691.36,158.79 L691.36,130.45 Z M701.79,76.04 L701.79,213.21 L788.47,144.62 Z M245.35,42.73 L176.76,129.41 L313.94,129.41 Z" fill="none" stroke="currentColor" stroke-width="1.5"/></svg>