<svg xmlns="http://www.w3.org/2000/svg" viewBox="0 0 721.85 934.06" width="24" height="24"><path d="M44.28,0 C19.92,0 0,19.92 0,44.28 L0,889.76 C0,914.13 19.92,934.06 44.28,934.06 L677.57,934.06 C701.93,934.06 721.85,914.13 721.85,889.76 L721.85,44.28 C721.85,19.92 701.93,0 677.57,0 Z M44.28,20 L677.57,20 C691.2,20 701.86,30.66 701.86,44.28 L701.86,889.76 C701.86,903.39 691.2,914.05 677.57,914.05 L44.28,914.05 C30.66,914.05 20,903.39 20,889.76 L20,44.28 C20,30.66 30.66,20 44.28,20 Z M194.55,797.39 L531.55,835.18 Z M206.17,101.64 L518.05,101.64 C535.18,101.64 548.98,115.43 548.98,132.56 L548.98,739.07 C548.98,756.21 535.18,770 518.05,770 L206.17,770 C189.04,770 175.25,756.21 175.25,739.07 L175.25,132.56 C175.25,115.43 189.04,101.64 206.17,101.64 Z" fill="none" stroke="currentColor" stroke-width="1.5"/><path d="M228.07,149.71 L496.97,187.5 Z M282.99,466.89 C271.07,466.89 261.41,476.55 261.41,488.46 C261.41,500.38 271.07,510.04 282.99,510.04 C294.91,510.04 304.57,500.38 304.57,488.46 C304.57,476.55 294.91,466.89 282.99,466.89 Z M355.97,466.89 C344.05,466.89 334.39,476.55 334.39,488.46 C334.39,500.38 344.05,510.04 355.97,510.04 C367.89,510.04 377.55,500.38 377.55,488.46 C377.55,476.55 367.89,466.89 355.97,466.89 Z M428.96,466.89 C417.04,466.89 407.38,476.55 407.38,488.46 C407.38,500.38 417.04,510.04 428.96,510.04 C440.87,510.04 450.53,500.38 450.53,488.46 C450.53,476.55 440.87,466.89 428.96,466.89 Z M211.24,234.12 L211.24,406.27 C211.24,422.49 224.3,435.55 240.52,435.55 L482.23,435.55 C498.45,435.55 511.51,422.49 511.51,406.27 L511.51,234.12 C511.51,217.9 498.45,204.84 482.23,204.84 L240.52,204.84 C224.3,204.84 211.24,217.9 211.24,234.12 Z M406.65,286.86 C406.64,303.94 397.84,319.82 383.35,328.88 C399.42,347.39 413.43,369.43 411.69,416.96 L301.87,416.44 C300.41,387.02 309.67,353.38 330.98,328.98 C316.37,319.96 307.47,304.02 307.45,286.86 C307.45,259.46 329.65,237.26 357.05,237.26 C384.44,237.26 406.64,259.46 406.65,286.86 Z" fill="none" stroke="currentColor" stroke-width="1.5"/></svg>