<svg xmlns="http://www.w3.org/2000/svg" viewBox="0 0 248.19 191.89" width="24" height="24"><path d="M11.72,5.29 L236.47,5.29 C240.07,5.29 242.89,8.11 242.89,11.72 L242.89,180.17 C242.89,183.78 240.07,186.6 236.47,186.6 L11.72,186.6 C8.11,186.6 5.29,183.78 5.29,180.17 L5.29,11.72 C5.29,8.11 8.11,5.29 11.72,5.29 Z M11.72,0 C5.27,0 0,5.27 0,11.72 L0,180.17 C0,186.62 5.27,191.89 11.72,191.89 L236.47,191.89 C242.91,191.89 248.19,186.62 248.19,180.17 L248.19,11.72 C248.19,5.27 242.91,0 236.47,0 Z M17.49,18.84 L230.94,18.84 L230.94,172.14 L17.49,172.14 Z" fill="none" stroke="currentColor" stroke-width="1.5"/><path d="M51.28,91.29 L91.76,91.29 L91.76,47.03 L51.28,47.03 Z M104.3,91.29 L144.77,91.29 L144.77,47.03 L104.3,47.03 Z M157.24,91.29 L197.72,91.29 L197.72,47.03 L157.24,47.03 Z M51.28,144.97 L91.76,144.97 L91.76,100.7 L51.28,100.7 Z M104.3,144.97 L144.77,144.97 L144.77,100.7 L104.3,100.7 Z M157.24,144.97 L197.72,144.97 L197.72,100.7 L157.24,100.7 Z" fill="none" stroke="currentColor" stroke-width="1.5"/></svg>