<svg xmlns="http://www.w3.org/2000/svg" viewBox="0 0 248.19 191.89" width="24" height="24"><path d="M195.46,61.48 C194.87,61.48 194.34,61.76 194,62.06 C193.67,62.37 193.46,62.7 193.27,63.05 C192.89,63.75 192.62,64.58 192.35,65.6 C191.83,67.63 191.39,70.4 191,73.7 C190.2,80.3 189.57,89.03 188.98,97.76 C188.38,106.48 187.82,115.2 187.17,121.69 C186.92,124.18 186.64,125.94 186.36,127.63 C186.22,126.52 186.06,125.64 185.95,124.2 C185.55,119.2 185.3,112.46 185.04,105.72 C184.79,98.98 184.53,92.23 184.11,87.11 C183.9,84.56 183.66,82.42 183.33,80.82 C183.16,80.02 182.99,79.37 182.71,78.78 C182.58,78.48 182.42,78.2 182.13,77.91 C181.84,77.62 181.34,77.31 180.75,77.31 C179.72,77.31 179.22,78 178.94,78.47 C178.66,78.94 178.48,79.43 178.3,80.02 C177.95,81.19 177.64,82.72 177.33,84.55 C176.73,88.21 176.16,93 175.56,97.79 C174.97,102.58 174.36,107.35 173.68,110.87 C173.45,112.05 173.22,112.79 172.99,113.62 C172.82,112.82 172.65,112.14 172.49,111.04 C171.98,107.57 171.5,102.87 170.98,98.15 C170.46,93.44 169.9,88.71 169.17,85.08 C168.8,83.26 168.41,81.73 167.9,80.53 C167.64,79.92 167.36,79.39 166.95,78.92 C166.53,78.45 165.86,77.99 165.05,77.99 C164.49,77.99 164.04,78.28 163.79,78.52 C163.54,78.77 163.4,78.99 163.29,79.22 C163.05,79.67 162.9,80.14 162.75,80.7 C162.45,81.83 162.18,83.31 161.92,85.08 C161.4,88.61 160.89,93.26 160.36,97.9 C159.82,102.53 159.25,107.16 158.62,110.56 C158.41,111.67 158.2,112.36 157.99,113.15 C157.9,112.81 157.82,112.63 157.73,112.23 C157.18,109.85 156.6,106.59 156.02,103.33 C155.43,100.07 154.85,96.8 154.27,94.29 C153.99,93.04 153.71,91.99 153.39,91.15 C153.24,90.73 153.08,90.37 152.84,90.01 C152.59,89.65 152.16,89.05 151.22,89.05 L151.21,89.05 L133.87,89.19 L133.89,92.19 L150.52,92.06 C150.55,92.13 150.55,92.12 150.58,92.2 C150.81,92.79 151.08,93.78 151.35,94.97 C151.9,97.35 152.48,100.6 153.06,103.86 C153.65,107.12 154.23,110.39 154.81,112.9 C155.09,114.16 155.38,115.21 155.69,116.05 C155.85,116.47 156,116.83 156.25,117.19 C156.49,117.55 156.93,118.14 157.87,118.14 C158.76,118.14 159.36,117.57 159.7,117.11 C160.04,116.64 160.26,116.14 160.47,115.56 C160.89,114.39 161.24,112.89 161.57,111.11 C162.23,107.55 162.8,102.89 163.34,98.24 C163.87,93.59 164.38,88.95 164.89,85.52 C165.07,84.33 165.24,83.55 165.42,82.71 C165.69,83.55 165.97,84.39 166.23,85.67 C166.92,89.1 167.48,93.78 168,98.48 C168.52,103.18 168.99,107.88 169.52,111.47 C169.78,113.27 170.06,114.78 170.39,115.94 C170.56,116.52 170.73,117.01 171,117.47 C171.28,117.94 171.8,118.64 172.81,118.64 C173.7,118.64 174.31,118.07 174.66,117.6 C175.01,117.13 175.24,116.61 175.46,116.01 C175.91,114.81 176.27,113.27 176.63,111.43 C177.33,107.76 177.95,102.95 178.54,98.16 C179.14,93.36 179.71,88.58 180.29,85.04 C180.41,84.36 180.52,84.01 180.64,83.43 C180.81,84.63 180.99,85.7 181.12,87.36 C181.53,92.36 181.79,99.09 182.04,105.83 C182.3,112.57 182.55,119.32 182.96,124.44 C183.16,126.99 183.4,129.13 183.72,130.72 C183.88,131.52 184.05,132.17 184.32,132.76 C184.45,133.05 184.6,133.34 184.88,133.63 C185.17,133.92 185.68,134.24 186.27,134.24 C186.95,134.24 187.48,133.85 187.76,133.53 C188.04,133.21 188.2,132.89 188.35,132.55 C188.64,131.86 188.85,131.05 189.05,130.05 C189.47,128.04 189.82,125.29 190.15,121.99 C190.81,115.4 191.38,106.68 191.97,97.96 C192.57,89.24 193.19,80.53 193.97,74.06 C194.33,71.11 194.73,68.81 195.14,67.04 C195.36,68.79 195.55,70.94 195.68,73.76 C195.97,80.14 196.06,88.71 196.18,97.28 C196.31,105.86 196.46,114.43 196.87,120.92 C197.08,124.17 197.34,126.88 197.73,128.88 C197.92,129.88 198.13,130.7 198.45,131.4 C198.61,131.75 198.8,132.08 199.12,132.4 C199.44,132.73 199.98,133.04 200.59,133.04 C201.2,133.04 201.72,132.73 202.04,132.43 C202.35,132.13 202.55,131.81 202.72,131.47 C203.07,130.8 203.31,130 203.56,129.02 C204.05,127.07 204.46,124.42 204.85,121.25 C205.64,114.9 206.3,106.51 206.96,98.12 C207.62,89.74 208.28,81.36 209.04,75.13 C209.42,72.01 209.83,69.42 210.25,67.71 C210.29,67.56 210.31,67.53 210.35,67.39 C210.61,68.17 210.88,68.97 211.14,70.16 C211.84,73.3 212.5,77.58 213.12,81.85 C213.74,86.13 214.33,90.41 214.9,93.65 C215.19,95.27 215.46,96.62 215.77,97.65 C215.92,98.17 216.07,98.6 216.31,99.02 C216.43,99.23 216.56,99.45 216.84,99.68 C217.11,99.92 217.62,100.18 218.19,100.12 L218,100.13 L233.62,100.26 L233.64,97.26 L218.77,97.13 C218.72,97.01 218.7,96.98 218.64,96.8 C218.41,95.99 218.13,94.7 217.85,93.13 C217.3,89.99 216.71,85.72 216.09,81.42 C215.47,77.13 214.8,72.82 214.07,69.51 C213.7,67.86 213.33,66.47 212.88,65.38 C212.65,64.83 212.42,64.36 212.07,63.92 C211.72,63.48 211.13,62.97 210.28,62.97 C209.66,62.97 209.14,63.28 208.83,63.59 C208.52,63.89 208.33,64.21 208.16,64.55 C207.82,65.22 207.58,66.02 207.34,66.99 C206.86,68.94 206.45,71.6 206.06,74.77 C205.29,81.11 204.63,89.5 203.97,97.89 C203.31,106.27 202.65,114.65 201.88,120.88 C201.5,123.96 201.09,126.5 200.66,128.22 C200.33,126.47 200.06,123.88 199.86,120.73 C199.46,114.37 199.31,105.81 199.18,97.24 C199.06,88.67 198.97,80.1 198.67,73.62 C198.52,70.38 198.33,67.68 198.04,65.7 C197.89,64.72 197.73,63.92 197.49,63.24 C197.37,62.9 197.23,62.58 196.96,62.24 C196.7,61.9 196.16,61.48 195.46,61.48 Z M79.96,116.31 L67.33,80.95 L75.07,80.95 L84.02,107.12 L92.67,80.95 L100.25,80.95 L87.58,116.31 Z M54.31,23.39 L69.27,42 L39.35,42 Z M57.75,44.61 L57.75,75.99 C63.82,68.09 73.33,62.98 84,62.98 C84.45,62.98 84.9,63 85.35,63.01 L135.73,63.01 L135.77,63.01 L135.77,69.9 L135.73,69.9 L104.18,69.9 C112.09,76.01 117.2,85.61 117.2,96.37 C117.2,96.83 117.18,97.29 117.16,97.74 L117.16,148.1 L110.28,148.1 L110.28,116.72 C104.21,124.62 94.71,129.73 84.04,129.73 C83.58,129.73 83.13,129.71 82.68,129.7 L32.3,129.7 L32.27,129.7 L32.27,122.81 L32.3,122.81 L63.86,122.81 C55.95,116.7 50.84,107.1 50.84,96.34 C50.84,95.88 50.85,95.42 50.87,94.97 L50.87,44.61 Z M138.34,51.5 L156.95,66.46 L138.34,81.42 Z M84.04,69.93 C69.51,69.93 57.79,81.71 57.79,96.37 C57.79,104.61 61.5,111.95 67.33,116.79 C67.33,116.79 67.33,116.79 67.33,116.79 C67.37,116.82 67.41,116.85 67.44,116.88 C67.72,117.11 68,117.33 68.29,117.55 C72.67,120.84 78.1,122.78 84,122.78 C98.52,122.78 110.24,111 110.24,96.34 C110.24,88.1 106.54,80.77 100.71,75.93 C100.4,75.67 100.08,75.41 99.75,75.17 C95.37,71.87 89.94,69.93 84.04,69.93 Z M29.66,111.29 L29.66,141.21 L11.05,126.25 Z M128.68,150.71 L113.72,169.32 L98.76,150.71 Z M11.72,0 C5.27,0 0,5.27 0,11.72 L0,180.17 C0,186.62 5.27,191.89 11.72,191.89 L236.47,191.89 C242.91,191.89 248.19,186.62 248.19,180.17 L248.19,11.72 C248.19,5.27 242.91,0 236.47,0 Z M11.72,5.29 L236.47,5.29 C240.07,5.29 242.89,8.11 242.89,11.72 L242.89,180.17 C242.89,183.78 240.07,186.6 236.47,186.6 L11.72,186.6 C8.11,186.6 5.29,183.78 5.29,180.17 L5.29,11.72 C5.29,8.11 8.11,5.29 11.72,5.29 Z" fill="none" stroke="currentColor" stroke-width="1.5"/></svg>