<svg xmlns="http://www.w3.org/2000/svg" viewBox="0 0 248.19 191.89" width="24" height="24"><path d="M165.71,165.43 L173.2,154.11 L130.74,126 L135.15,119.33 L177.62,147.44 L184.74,136.68 L199.68,167.41 Z M165.43,26.72 L172.92,38.04 L130.45,66.15 L134.87,72.82 L177.34,44.71 L184.46,55.47 L199.4,24.74 Z M186.49,78.43 L186.49,92.01 L135.56,92.01 L135.56,100.01 L186.49,100.01 L186.49,112.91 L215.9,95.54 Z M83,78.43 L83,92.01 L32.07,92.01 L32.07,100.01 L83,100.01 L83,112.91 L112.42,95.54 Z M11.72,0 C5.27,0 0,5.27 0,11.72 L0,180.17 C0,186.62 5.27,191.89 11.72,191.89 L236.47,191.89 C242.91,191.89 248.19,186.62 248.19,180.17 L248.19,11.72 C248.19,5.27 242.91,0 236.47,0 Z M11.72,5.29 L236.47,5.29 C240.07,5.29 242.89,8.11 242.89,11.72 L242.89,180.17 C242.89,183.78 240.07,186.6 236.47,186.6 L11.72,186.6 C8.11,186.6 5.29,183.78 5.29,180.17 L5.29,11.72 C5.29,8.11 8.11,5.29 11.72,5.29 Z" fill="none" stroke="currentColor" stroke-width="1.5"/></svg>