<svg xmlns="http://www.w3.org/2000/svg" viewBox="0 0 248.19 191.89" width="24" height="24"><path d="M202.33,30.16 C202.94,32.28 203.86,34.99 205.11,38.28 L209.19,49.12 L195.92,49.12 L200.22,37.64 C201.13,35.17 201.83,32.67 202.33,30.16 Z M199.66,26.05 L184.63,65.19 L190.13,65.19 L194.43,53.34 L210.8,53.34 L215.36,65.19 L221.26,65.19 L205.24,26.05 Z M199.76,77.72 L202.68,110.1 L194.69,106.41 L173.01,153.36 L75.74,153.58 L75.71,138.58 L163.4,138.39 L181.07,100.13 L173.22,96.5 Z M32.16,132.39 L40.39,132.39 C43.47,132.39 45.7,132.66 47.09,133.19 C49.01,133.94 50.64,135.42 51.97,137.62 C53.33,139.81 54,142.96 54,147.05 C54,150 53.66,152.52 52.96,154.61 C52.28,156.67 51.33,158.32 50.1,159.54 C49.23,160.42 48.06,161.09 46.58,161.57 C45.12,162.05 43.1,162.3 40.52,162.3 L32.16,162.3 Z M26.98,127.77 L26.98,166.91 L41.11,166.91 C43.47,166.91 45.57,166.69 47.38,166.25 C49.21,165.8 50.77,165.15 52.05,164.3 C53.35,163.43 54.55,162.24 55.63,160.75 C56.72,159.23 57.61,157.33 58.3,155.03 C59,152.74 59.34,150.1 59.34,147.13 C59.34,143.64 58.83,140.54 57.79,137.84 C56.78,135.11 55.24,132.88 53.17,131.14 C51.59,129.78 49.68,128.85 47.43,128.33 C45.83,127.96 43.51,127.77 40.47,127.77 Z M11.72,0 C5.27,0 0,5.27 0,11.72 L0,180.17 C0,186.62 5.27,191.89 11.72,191.89 L236.47,191.89 C242.91,191.89 248.19,186.62 248.19,180.17 L248.19,11.72 C248.19,5.27 242.91,0 236.47,0 Z M11.72,5.29 L236.47,5.29 C240.07,5.29 242.89,8.11 242.89,11.72 L242.89,180.17 C242.89,183.78 240.07,186.6 236.47,186.6 L11.72,186.6 C8.11,186.6 5.29,183.78 5.29,180.17 L5.29,11.72 C5.29,8.11 8.11,5.29 11.72,5.29 Z" fill="none" stroke="currentColor" stroke-width="1.5"/></svg>