<svg xmlns="http://www.w3.org/2000/svg" viewBox="0 0 938.03 725.26" width="24" height="24"><path d="M104.13,93.81 L104.13,241.74 L157.51,241.74 C166.46,241.74 174.37,240.9 181.23,239.22 C188.16,237.54 194.04,235.08 198.89,231.86 C203.8,228.56 208.31,224.08 212.41,218.43 C216.51,212.72 219.88,205.52 222.5,196.84 C225.12,188.16 226.44,178.2 226.44,166.97 C226.44,153.78 224.49,142.08 220.58,131.85 C216.75,121.56 210.93,113.12 203.12,106.52 C197.14,101.41 189.91,97.88 181.43,95.93 C175.38,94.51 166.6,93.81 155.09,93.81 Z M123.71,111.27 L154.79,111.27 C166.43,111.27 174.87,112.27 180.12,114.29 C187.38,117.12 193.54,122.7 198.58,131.04 C203.7,139.32 206.25,151.19 206.25,166.67 C206.25,177.83 204.94,187.35 202.32,195.22 C199.76,203.03 196.16,209.25 191.52,213.89 C188.23,217.19 183.78,219.75 178.2,221.56 C172.68,223.38 165.05,224.29 155.29,224.29 L123.71,224.29 Z M178.91,292.66 L167.87,415.06 L198.1,401.11 L280.04,578.57 L647.67,579.37 L647.78,522.67 L316.34,521.96 L249.57,377.35 L279.23,363.66 Z M751.82,482.52 L695,630.45 L715.79,630.45 L732.04,585.65 L793.9,585.65 L811.15,630.45 L833.45,630.45 L772.91,482.52 Z M761.91,498.05 C764.2,506.06 767.69,516.29 772.4,528.73 L787.84,569.7 L737.69,569.7 L753.94,526.31 C757.37,516.96 760.02,507.54 761.91,498.05 Z M44.28,0 C19.92,0 0,19.92 0,44.28 L0,680.96 C0,705.33 19.92,725.26 44.28,725.26 L893.74,725.26 C918.1,725.26 938.03,705.33 938.03,680.96 L938.03,44.28 C938.03,19.92 918.1,0 893.74,0 Z M44.28,20 L893.74,20 C907.37,20 918.03,30.66 918.03,44.28 L918.03,680.96 C918.03,694.59 907.37,705.25 893.74,705.25 L44.28,705.25 C30.66,705.25 20,694.59 20,680.96 L20,44.28 C20,30.66 30.66,20 44.28,20 Z" fill="none" stroke="currentColor" stroke-width="1.5"/></svg>