<svg xmlns="http://www.w3.org/2000/svg" viewBox="0 0 473.85 326.06" width="24" height="24"><path d="M154.64,0 L154.64,110.1 L0,110.1 L0,326.06 L2.83,326.06 L473.85,326.06 L473.85,110.1 L321,110.1 L321,0 L154.64,0 Z" fill="none" stroke="currentColor" stroke-width="1.5"/><path d="M160.31,5.67 L315.33,5.67 L315.33,115.77 L468.18,115.77 L468.18,320.39 L5.67,320.39 L5.67,115.77 L160.31,115.77 L160.31,5.67 Z" fill="none" stroke="currentColor" stroke-width="1.5"/><rect x="0" y="0" width="0" height="0" fill="none" stroke="currentColor"/><path d="M171.52,18.15 L171.52,59.66 L210.14,59.66 L210.14,18.15 L171.52,18.15 Z M217.62,18.15 L217.62,59.66 L256.24,59.66 L256.24,18.15 L217.62,18.15 Z M263.71,18.15 L263.71,59.66 L302.33,59.66 L302.33,18.15 L263.71,18.15 Z M177.19,23.82 L204.47,23.82 L204.47,53.99 L177.19,53.99 L177.19,23.82 Z M223.29,23.82 L250.57,23.82 L250.57,53.99 L223.29,53.99 L223.29,23.82 Z M269.38,23.82 L296.66,23.82 L296.66,53.99 L269.38,53.99 L269.38,23.82 Z M171.52,71.26 L171.52,112.78 L210.14,112.78 L210.14,71.26 L171.52,71.26 Z M217.62,71.26 L217.62,112.78 L256.24,112.78 L256.24,71.26 L217.62,71.26 Z M263.71,71.26 L263.71,112.78 L302.33,112.78 L302.33,71.26 L263.71,71.26 Z M177.19,76.93 L204.47,76.93 L204.47,107.11 L177.19,107.11 L177.19,76.93 Z M223.29,76.93 L250.57,76.93 L250.57,107.11 L223.29,107.11 L223.29,76.93 Z M269.38,76.93 L296.66,76.93 L296.66,107.11 L269.38,107.11 L269.38,76.93 Z M14.89,124.35 L14.89,165.86 L53.51,165.86 L53.51,124.35 L14.89,124.35 Z M60.98,124.35 L60.98,165.86 L99.6,165.86 L99.6,124.35 L60.98,124.35 Z M107.07,124.35 L107.07,165.86 L145.69,165.86 L145.69,124.35 L107.07,124.35 Z M328.16,124.35 L328.16,165.86 L366.78,165.86 L366.78,124.35 L328.16,124.35 Z M374.25,124.35 L374.25,165.86 L412.87,165.86 L412.87,124.35 L374.25,124.35 Z M420.34,124.35 L420.34,165.86 L458.96,165.86 L458.96,124.35 L420.34,124.35 Z M171.52,124.38 L171.52,165.89 L210.14,165.89 L210.14,124.38 L171.52,124.38 Z M217.62,124.38 L217.62,165.89 L256.24,165.89 L256.24,124.38 L217.62,124.38 Z M263.71,124.38 L263.71,165.89 L302.33,165.89 L302.33,124.38 L263.71,124.38 Z M20.56,130.02 L47.84,130.02 L47.84,160.19 L20.56,160.19 L20.56,130.02 Z M66.65,130.02 L93.93,130.02 L93.93,160.19 L66.65,160.19 L66.65,130.02 Z M112.74,130.02 L140.02,130.02 L140.02,160.19 L112.74,160.19 L112.74,130.02 Z M333.83,130.02 L361.11,130.02 L361.11,160.19 L333.83,160.19 L333.83,130.02 Z M379.92,130.02 L407.2,130.02 L407.2,160.19 L379.92,160.19 L379.92,130.02 Z M426.01,130.02 L453.29,130.02 L453.29,160.19 L426.01,160.19 L426.01,130.02 Z M177.19,130.05 L204.47,130.05 L204.47,160.22 L177.19,160.22 L177.19,130.05 Z M223.29,130.05 L250.57,130.05 L250.57,160.22 L223.29,160.22 L223.29,130.05 Z M269.38,130.05 L296.66,130.05 L296.66,160.22 L269.38,160.22 L269.38,130.05 Z M14.89,177.47 L14.89,218.98 L53.51,218.98 L53.51,177.47 L14.89,177.47 Z M60.98,177.47 L60.98,218.98 L99.6,218.98 L99.6,177.47 L60.98,177.47 Z M107.07,177.47 L107.07,218.98 L145.69,218.98 L145.69,177.47 L107.07,177.47 Z M328.16,177.47 L328.16,218.98 L366.78,218.98 L366.78,177.47 L328.16,177.47 Z M374.25,177.47 L374.25,218.98 L412.87,218.98 L412.87,177.47 L374.25,177.47 Z M420.34,177.47 L420.34,218.98 L458.96,218.98 L458.96,177.47 L420.34,177.47 Z M171.52,177.5 L171.52,219.01 L210.14,219.01 L210.14,177.5 L171.52,177.5 Z M217.62,177.5 L217.62,219.01 L256.24,219.01 L256.24,177.5 L217.62,177.5 Z M263.71,177.5 L263.71,219.01 L302.33,219.01 L302.33,177.5 L263.71,177.5 Z M20.56,183.14 L47.84,183.14 L47.84,213.31 L20.56,213.31 L20.56,183.14 Z M66.65,183.14 L93.93,183.14 L93.93,213.31 L66.65,213.31 L66.65,183.14 Z M112.74,183.14 L140.02,183.14 L140.02,213.31 L112.74,213.31 L112.74,183.14 Z M333.83,183.14 L361.11,183.14 L361.11,213.31 L333.83,213.31 L333.83,183.14 Z M379.92,183.14 L407.2,183.14 L407.2,213.31 L379.92,213.31 L379.92,183.14 Z M426.01,183.14 L453.29,183.14 L453.29,213.31 L426.01,213.31 L426.01,183.14 Z M177.19,183.17 L204.47,183.17 L204.47,213.34 L177.19,213.34 L177.19,183.17 Z M223.29,183.17 L250.57,183.17 L250.57,213.34 L223.29,213.34 L223.29,183.17 Z M269.38,183.17 L296.66,183.17 L296.66,213.34 L269.38,213.34 L269.38,183.17 Z M14.89,230.58 L14.89,272.1 L53.51,272.1 L53.51,230.58 L14.89,230.58 Z M60.98,230.58 L60.98,272.1 L99.6,272.1 L99.6,230.58 L60.98,230.58 Z M107.07,230.58 L107.07,272.1 L145.69,272.1 L145.69,230.58 L107.07,230.58 Z M328.16,230.58 L328.16,272.1 L366.78,272.1 L366.78,230.58 L328.16,230.58 Z M374.25,230.58 L374.25,272.1 L412.87,272.1 L412.87,230.58 L374.25,230.58 Z M420.34,230.58 L420.34,272.1 L458.96,272.1 L458.96,230.58 L420.34,230.58 Z M20.56,236.25 L47.84,236.25 L47.84,266.43 L20.56,266.43 L20.56,236.25 Z M66.65,236.25 L93.93,236.25 L93.93,266.43 L66.65,266.43 L66.65,236.25 Z M112.74,236.25 L140.02,236.25 L140.02,266.43 L112.74,266.43 L112.74,236.25 Z M333.83,236.25 L361.11,236.25 L361.11,266.43 L333.83,266.43 L333.83,236.25 Z M379.92,236.25 L407.2,236.25 L407.2,266.43 L379.92,266.43 L379.92,236.25 Z M426.01,236.25 L453.29,236.25 L453.29,266.43 L426.01,266.43 L426.01,236.25 Z" fill="none" stroke="currentColor" stroke-width="1.5"/></svg>