<svg xmlns="http://www.w3.org/2000/svg" viewBox="0 0 248.19 191.89" width="24" height="24"><path d="M61.29,114.61 C56.78,114.61 53.23,117.23 50.75,120.1 C49.49,121.57 48.42,123.15 47.48,124.73 C46.83,123.66 46.11,122.61 45.32,121.64 C43.09,118.9 40.04,116.61 36.16,116.61 C32.19,116.61 28.69,119.01 26.07,121.87 C23.57,124.62 21.75,127.8 21.61,130.92 L19.6,130.92 C19.6,135.06 21.74,138.56 24.6,141.69 C27.45,144.82 31.33,147.6 36.16,147.6 C40.82,147.6 44.43,144.82 46.87,141.84 C48.01,140.44 48.98,138.94 49.82,137.47 C50.56,138.63 51.36,139.76 52.26,140.8 C54.53,143.44 57.55,145.6 61.29,145.6 C65.07,145.6 68,143.28 70.2,140.61 C71.19,139.43 72.06,138.14 72.86,136.86 C73.96,138.5 75.2,140.2 76.56,141.77 C79.05,144.64 81.89,147.6 86.41,147.6 C90.39,147.6 93.44,145.23 95.91,142.51 C97.37,140.91 98.71,139.06 99.96,137.09 C100.9,138.64 101.87,140.07 102.96,141.33 C105.12,143.81 107.98,145.6 111.53,145.6 C115.25,145.6 118.12,143.36 120.28,140.73 C121.28,139.53 122.17,138.21 123.01,136.89 C123.97,138.49 125.02,140.17 126.27,141.75 C128.59,144.69 132.04,147.6 136.65,147.6 C141.11,147.6 144.6,144.92 146.92,142.04 C148.19,140.46 149.26,138.77 150.26,137.08 C151.08,138.45 151.95,139.78 152.93,140.98 C155.04,143.56 157.95,145.6 161.78,145.6 C165.62,145.6 168.53,143.5 170.63,140.91 C171.61,139.69 172.47,138.36 173.29,137 C174.29,138.67 175.35,140.37 176.62,141.95 C178.93,144.85 182.4,147.6 186.9,147.6 C191.39,147.6 194.9,144.93 197.28,142.02 C198.52,140.5 199.58,138.86 200.54,137.22 C201.19,138.38 201.89,139.54 202.7,140.63 C204.71,143.32 207.75,145.6 212.03,145.6 C216.49,145.6 220.11,142.89 222.58,139.88 C225.05,136.87 226.59,133.7 226.59,130.92 L228.59,130.92 C228.59,122.56 221.72,114.61 212.03,114.61 C207.14,114.61 203.25,117.14 200.98,120.1 C199.74,121.71 198.81,123.39 197.98,125.02 C197.27,123.9 196.52,122.78 195.7,121.73 C193.56,119.01 190.71,116.61 186.9,116.61 C183.16,116.61 180.31,118.84 178.18,121.51 C177.26,122.66 176.43,123.93 175.63,125.22 C174.62,123.48 173.53,121.71 172.19,120.05 C169.89,117.21 166.3,114.61 161.78,114.61 C157.29,114.61 153.7,117.13 151.38,119.96 C150.04,121.61 148.94,123.38 147.93,125.14 C147.13,123.84 146.29,122.58 145.37,121.43 C143.23,118.78 140.37,116.61 136.65,116.61 C132.86,116.61 129.99,118.98 127.84,121.7 C126.94,122.84 126.13,124.07 125.36,125.31 C124.33,123.62 123.19,121.85 121.83,120.2 C119.48,117.36 116.04,114.61 111.53,114.61 C107.36,114.61 103.84,116.83 101.46,119.57 C99.98,121.27 98.76,123.16 97.6,125.16 C96.59,123.66 95.54,122.26 94.43,121.04 C92.14,118.52 89.52,116.61 86.41,116.61 C83.03,116.61 80.41,119.05 78.07,121.75 C77.07,122.9 76.13,124.15 75.25,125.41 C74.25,123.75 73.11,121.98 71.75,120.32 C69.36,117.44 65.89,114.61 61.29,114.61 Z M36.16,120.61 C38.49,120.61 40.39,121.93 42.22,124.17 C43.33,125.53 44.34,127.19 45.26,128.9 C45.22,128.98 45.17,129.07 45.13,129.16 C43.81,131.86 42.29,134.79 40.67,136.78 C39.05,138.77 37.72,139.6 36.16,139.6 C34.79,139.6 32.38,138.35 30.51,136.3 C28.64,134.25 27.6,131.4 27.6,130.92 L25.63,130.92 C25.82,129.4 27.09,126.7 29.03,124.56 C31.15,122.24 33.92,120.61 36.16,120.61 Z M86.41,120.61 C87.78,120.61 89.55,121.62 91.47,123.73 C92.77,125.16 94.09,127.03 95.39,129.13 C93.59,132.35 91.7,135.25 89.99,137.13 C88.25,139.04 86.91,139.6 86.41,139.6 C86.44,139.6 84.52,138.74 82.6,136.53 C80.78,134.43 78.93,131.6 77.5,129.22 C78.6,127.54 79.83,125.82 81.09,124.37 C83.15,122 85.3,120.61 86.41,120.61 Z M136.65,120.61 C138.89,120.61 140.5,121.76 142.25,123.94 C143.39,125.35 144.49,127.18 145.63,129.13 C143.8,132.19 142.21,135.13 140.69,137.02 C139.13,138.97 138.14,139.6 136.65,139.6 C135.32,139.6 134.18,138.85 132.55,136.79 C131,134.82 129.44,131.95 127.72,129.17 C128.79,127.37 129.85,125.61 130.98,124.18 C132.78,121.9 134.5,120.61 136.65,120.61 Z M186.9,120.61 C189.05,120.61 190.75,121.91 192.55,124.2 C193.68,125.64 194.75,127.41 195.83,129.21 C194.21,132.17 192.64,135.06 191.09,136.96 C189.49,138.9 188.37,139.6 186.9,139.6 C185.45,139.6 184.45,138.94 182.88,136.96 C181.35,135.06 179.78,132.14 177.95,129.16 C179.08,127.24 180.17,125.43 181.31,124 C183.07,121.79 184.69,120.61 186.9,120.61 Z M61.29,122.61 C62.63,122.61 63.92,123.42 65.58,125.42 C67.23,127.42 68.83,130.32 70.41,132.97 C70.43,133 70.46,133.04 70.48,133.07 C69.42,134.85 68.32,136.62 67.12,138.07 C65.28,140.29 63.44,141.6 61.29,141.6 C59.08,141.6 57.15,140.34 55.29,138.19 C54.09,136.79 52.99,135.07 52.01,133.29 C52.11,133.09 52.22,132.87 52.32,132.67 C53.6,130.05 55.16,127.24 56.81,125.33 C58.45,123.42 59.85,122.61 61.29,122.61 Z M111.53,122.61 C112.88,122.61 114.03,123.33 115.65,125.3 C117.27,127.25 118.9,130.18 120.69,133.01 C119.54,134.89 118.4,136.73 117.2,138.19 C115.39,140.37 113.67,141.6 111.53,141.6 C109.22,141.6 107.69,140.66 105.98,138.7 C104.76,137.3 103.57,135.38 102.3,133.15 C102.36,133.05 102.41,132.95 102.47,132.85 C104.37,129.42 106,126.53 107.49,124.83 C108.97,123.12 109.84,122.61 111.53,122.61 Z M161.78,122.61 C163.59,122.61 164.47,123.23 165.97,125.08 C167.46,126.92 169.01,129.89 170.94,133.02 C170.94,133.03 170.95,133.05 170.96,133.06 C169.78,135.07 168.68,136.95 167.52,138.39 C165.83,140.48 164.27,141.6 161.78,141.6 C159.27,141.6 157.71,140.52 156.03,138.45 C154.86,137.03 153.76,135.14 152.58,133.09 C152.6,133.05 152.63,133.01 152.65,132.97 C154.55,129.79 156.1,126.83 157.58,125.02 C159.05,123.22 159.93,122.61 161.78,122.61 Z M212.03,122.61 C217.39,122.61 220.59,126.91 220.59,130.92 L222.59,130.92 C222.59,131.75 221.48,134.92 219.49,137.34 C217.49,139.77 214.83,141.6 212.03,141.6 C209.03,141.6 207.5,140.37 205.91,138.24 C204.84,136.81 203.9,134.98 202.84,133.08 C202.88,133 202.93,132.92 202.97,132.85 C204.75,129.61 206.02,126.67 207.32,124.97 C208.63,123.26 209.39,122.61 212.03,122.61 Z M61.29,44.29 C56.78,44.29 53.23,46.91 50.75,49.78 C49.49,51.25 48.42,52.83 47.48,54.4 C46.83,53.34 46.11,52.29 45.32,51.32 C43.09,48.58 40.04,46.29 36.16,46.29 C32.19,46.29 28.69,48.68 26.07,51.55 C23.57,54.3 21.75,57.48 21.61,60.59 L19.6,60.59 C19.6,64.74 21.74,68.24 24.6,71.37 C27.45,74.5 31.33,77.28 36.16,77.28 C40.82,77.28 44.43,74.5 46.87,71.51 C48.01,70.12 48.98,68.62 49.82,67.15 C50.56,68.31 51.36,69.44 52.26,70.48 C54.53,73.12 57.55,75.28 61.29,75.28 C65.07,75.28 68,72.96 70.2,70.29 C71.19,69.1 72.06,67.82 72.86,66.54 C73.96,68.18 75.2,69.88 76.56,71.45 C79.05,74.32 81.89,77.28 86.41,77.28 C90.39,77.28 93.44,74.91 95.91,72.19 C97.37,70.58 98.71,68.74 99.96,66.77 C100.9,68.32 101.87,69.75 102.96,71 C105.12,73.48 107.98,75.28 111.53,75.28 C115.25,75.28 118.12,73.04 120.28,70.41 C121.28,69.21 122.17,67.89 123.01,66.57 C123.97,68.17 125.02,69.85 126.27,71.43 C128.59,74.37 132.04,77.28 136.65,77.28 C141.11,77.28 144.6,74.6 146.92,71.72 C148.19,70.14 149.26,68.44 150.26,66.76 C151.08,68.13 151.95,69.46 152.93,70.66 C155.04,73.24 157.95,75.28 161.78,75.28 C165.62,75.28 168.53,73.18 170.63,70.58 C171.61,69.37 172.47,68.04 173.29,66.68 C174.29,68.35 175.35,70.04 176.62,71.63 C178.93,74.53 182.4,77.28 186.9,77.28 C191.39,77.28 194.9,74.61 197.28,71.7 C198.52,70.18 199.58,68.54 200.54,66.9 C201.19,68.06 201.89,69.22 202.7,70.31 C204.71,73 207.75,75.28 212.03,75.28 C216.49,75.28 220.11,72.57 222.58,69.56 C225.05,66.55 226.59,63.38 226.59,60.59 L228.59,60.59 C228.59,52.24 221.72,44.29 212.03,44.29 C207.14,44.29 203.25,46.81 200.98,49.78 C199.74,51.38 198.81,53.07 197.98,54.7 C197.27,53.58 196.52,52.46 195.7,51.41 C193.56,48.69 190.71,46.29 186.9,46.29 C183.16,46.29 180.31,48.52 178.18,51.19 C177.26,52.34 176.43,53.61 175.63,54.9 C174.62,53.16 173.53,51.39 172.19,49.73 C169.89,46.89 166.3,44.29 161.78,44.29 C157.29,44.29 153.7,46.81 151.38,49.64 C150.04,51.29 148.94,53.06 147.93,54.82 C147.13,53.52 146.29,52.26 145.37,51.11 C143.23,48.46 140.37,46.29 136.65,46.29 C132.86,46.29 129.99,48.66 127.84,51.38 C126.94,52.52 126.13,53.75 125.36,54.99 C124.33,53.3 123.19,51.53 121.83,49.88 C119.48,47.04 116.04,44.29 111.53,44.29 C107.36,44.29 103.84,46.51 101.46,49.25 C99.98,50.95 98.76,52.84 97.6,54.84 C96.59,53.33 95.54,51.94 94.43,50.72 C92.14,48.2 89.52,46.29 86.41,46.29 C83.03,46.29 80.41,48.72 78.07,51.43 C77.07,52.58 76.13,53.83 75.25,55.09 C74.25,53.42 73.11,51.66 71.75,50 C69.36,47.11 65.89,44.29 61.29,44.29 Z M36.16,50.29 C38.49,50.29 40.39,51.61 42.22,53.85 C43.33,55.21 44.34,56.87 45.26,58.58 C45.22,58.66 45.17,58.75 45.13,58.84 C43.81,61.54 42.29,64.47 40.67,66.46 C39.05,68.45 37.72,69.28 36.16,69.28 C34.79,69.28 32.38,68.03 30.51,65.98 C28.64,63.93 27.6,61.08 27.6,60.59 L25.63,60.59 C25.82,59.08 27.09,56.37 29.03,54.24 C31.15,51.92 33.92,50.29 36.16,50.29 Z M86.41,50.29 C87.78,50.29 89.55,51.3 91.47,53.41 C92.77,54.84 94.09,56.71 95.39,58.81 C93.59,62.03 91.7,64.92 89.99,66.81 C88.25,68.72 86.91,69.28 86.41,69.28 C86.44,69.28 84.52,68.42 82.6,66.21 C80.78,64.11 78.93,61.28 77.5,58.9 C78.6,57.22 79.83,55.5 81.09,54.05 C83.15,51.67 85.3,50.29 86.41,50.29 Z M136.65,50.29 C138.89,50.29 140.5,51.44 142.25,53.62 C143.39,55.03 144.49,56.86 145.63,58.81 C143.8,61.87 142.21,64.81 140.69,66.7 C139.13,68.64 138.14,69.28 136.65,69.28 C135.32,69.28 134.18,68.53 132.55,66.47 C131,64.5 129.44,61.63 127.72,58.85 C128.79,57.05 129.85,55.29 130.98,53.86 C132.78,51.58 134.5,50.29 136.65,50.29 Z M186.9,50.29 C189.05,50.29 190.75,51.59 192.55,53.88 C193.68,55.32 194.75,57.09 195.83,58.89 C194.21,61.85 192.64,64.74 191.09,66.63 C189.49,68.58 188.37,69.28 186.9,69.28 C185.45,69.28 184.45,68.62 182.88,66.64 C181.35,64.74 179.78,61.82 177.95,58.83 C179.08,56.92 180.17,55.11 181.31,53.68 C183.07,51.47 184.69,50.29 186.9,50.29 Z M61.29,52.29 C62.63,52.29 63.92,53.1 65.58,55.1 C67.23,57.1 68.83,60 70.41,62.65 C70.43,62.68 70.46,62.72 70.48,62.75 C69.42,64.52 68.32,66.3 67.12,67.74 C65.28,69.97 63.44,71.28 61.29,71.28 C59.08,71.28 57.15,70.02 55.29,67.87 C54.09,66.47 52.99,64.74 52.01,62.97 C52.11,62.77 52.22,62.55 52.32,62.35 C53.6,59.73 55.16,56.92 56.81,55.01 C58.45,53.1 59.85,52.29 61.29,52.29 Z M111.53,52.29 C112.88,52.29 114.03,53.01 115.65,54.97 C117.27,56.93 118.9,59.86 120.69,62.69 C119.54,64.57 118.4,66.41 117.2,67.87 C115.39,70.05 113.67,71.28 111.53,71.28 C109.22,71.28 107.69,70.34 105.98,68.38 C104.76,66.98 103.57,65.06 102.3,62.83 C102.36,62.73 102.41,62.63 102.47,62.53 C104.37,59.1 106,56.21 107.49,54.5 C108.97,52.8 109.84,52.29 111.53,52.29 Z M161.78,52.29 C163.59,52.29 164.47,52.91 165.97,54.76 C167.46,56.6 169.01,59.57 170.94,62.7 C170.94,62.71 170.95,62.72 170.96,62.74 C169.78,64.75 168.68,66.63 167.52,68.07 C165.83,70.16 164.27,71.28 161.78,71.28 C159.27,71.28 157.71,70.19 156.03,68.13 C154.86,66.71 153.76,64.82 152.58,62.77 C152.6,62.73 152.63,62.69 152.65,62.65 C154.55,59.46 156.1,56.51 157.58,54.7 C159.05,52.89 159.93,52.29 161.78,52.29 Z M212.03,52.29 C217.39,52.29 220.59,56.58 220.59,60.59 L222.59,60.59 C222.59,61.42 221.48,64.59 219.49,67.02 C217.49,69.45 214.83,71.28 212.03,71.28 C209.03,71.28 207.5,70.05 205.91,67.92 C204.84,66.49 203.9,64.66 202.84,62.76 C202.88,62.68 202.93,62.6 202.97,62.53 C204.75,59.29 206.02,56.35 207.32,54.64 C208.63,52.94 209.39,52.29 212.03,52.29 Z M11.72,0 C5.27,0 0,5.27 0,11.72 L0,180.17 C0,186.62 5.27,191.89 11.72,191.89 L236.47,191.89 C242.91,191.89 248.19,186.62 248.19,180.17 L248.19,11.72 C248.19,5.27 242.91,0 236.47,0 Z M11.72,5.29 L236.47,5.29 C240.07,5.29 242.89,8.11 242.89,11.72 L242.89,180.17 C242.89,183.78 240.07,186.6 236.47,186.6 L11.72,186.6 C8.11,186.6 5.29,183.78 5.29,180.17 L5.29,11.72 C5.29,8.11 8.11,5.29 11.72,5.29 Z" fill="none" stroke="currentColor" stroke-width="1.5"/></svg>