<svg xmlns="http://www.w3.org/2000/svg" viewBox="0 0 721.85 725.26" width="24" height="24"><path d="M103.12,512.4 L103.12,528.85 L80.28,528.85 L80.28,532.63 L80.28,548.37 L65.13,548.37 L65.13,555.92 L80.28,555.92 L80.28,581.82 L65.13,581.82 L65.13,589.38 L80.28,589.38 L80.28,615.27 L65.13,615.27 L65.13,622.83 L80.28,622.83 L80.28,642.34 L103.12,642.34 L103.12,660 L110.68,660 L110.68,642.34 L136.58,642.34 L136.58,660 L144.13,660 L144.13,642.34 L170.03,642.34 L170.03,660 L177.59,660 L177.59,642.34 L200.43,642.34 L200.43,622.83 L214.83,622.83 L214.83,615.27 L200.43,615.27 L200.43,589.38 L214.83,589.38 L214.83,581.82 L200.43,581.82 L200.43,555.92 L214.83,555.92 L214.83,548.37 L200.43,548.37 L200.43,528.85 L177.59,528.85 L177.59,512.4 L170.03,512.4 L170.03,528.85 L144.13,528.85 L144.13,512.4 L136.58,512.4 L136.58,528.85 L110.68,528.85 L110.68,512.4 Z M87.84,536.41 L103.12,536.41 L103.12,543.32 L110.68,543.32 L110.68,536.41 L136.58,536.41 L136.58,543.32 L144.13,543.32 L144.13,536.41 L170.03,536.41 L170.03,543.32 L177.59,543.32 L177.59,536.41 L192.87,536.41 L192.87,548.37 L183.91,548.37 L183.91,555.92 L192.87,555.92 L192.87,581.82 L183.91,581.82 L183.91,589.38 L192.87,589.38 L192.87,615.27 L183.91,615.27 L183.91,622.83 L192.87,622.83 L192.87,634.78 L177.59,634.78 L177.59,629.08 L170.03,629.08 L170.03,634.78 L144.13,634.78 L144.13,629.08 L136.58,629.08 L136.58,634.78 L110.68,634.78 L110.68,629.08 L103.12,629.08 L103.12,634.78 L87.84,634.78 L87.84,622.83 L96.05,622.83 L96.05,615.27 L87.84,615.27 L87.84,589.38 L96.05,589.38 L96.05,581.82 L87.84,581.82 L87.84,555.92 L96.05,555.92 L96.05,548.37 L87.84,548.37 Z M111.16,556.33 L111.16,576.18 L131.01,576.18 L131.01,556.33 Z M149.7,556.33 L149.7,576.18 L169.55,576.18 L169.55,556.33 Z M111.16,595.02 L111.16,614.87 L131.01,614.87 L131.01,595.02 Z M149.7,595.02 L149.7,614.87 L169.55,614.87 L169.55,595.02 Z M314.17,438.84 L314.17,390.14 L185.21,390.14 L185.21,351.66 L75.41,416.82 L185.21,480.98 L185.21,438.84 Z M387.99,248.4 L387.99,199.69 L259.03,199.69 L259.03,161.22 L149.23,226.37 L259.03,290.53 L259.03,248.4 Z M340.3,341.45 L340.3,292.75 L469.26,292.75 L469.26,254.27 L579.06,319.43 L469.26,383.58 L469.26,341.45 Z M412.07,150.75 L412.07,102.04 L541.02,102.04 L541.02,63.57 L650.82,128.72 L541.02,192.88 L541.02,150.75 Z M526.13,567.46 C537.64,603.7 525.25,613.05 514.68,619.75 C506.34,625.04 499.09,628.67 493.87,630.32 C491.26,631.14 489.17,631.44 487.92,631.4 C486.67,631.36 486.49,631.11 486.47,631.09 C486.45,631.07 486.21,630.88 486.18,629.63 C486.16,628.38 486.49,626.3 487.36,623.7 C489.08,618.51 492.83,611.32 498.24,603.06 C505.1,592.6 514.64,580.36 526.13,567.46 Z M595.68,567.42 C607.19,580.34 616.73,592.59 623.6,603.06 C629.02,611.31 632.75,618.51 634.48,623.7 C635.35,626.3 635.68,628.38 635.66,629.63 C635.64,630.88 635.39,631.07 635.37,631.09 C635.35,631.11 635.17,631.36 633.92,631.4 C632.67,631.44 630.58,631.14 627.97,630.32 C622.75,628.67 615.5,625.04 607.16,619.75 C596.58,613.05 584.2,603.69 571.11,592.4 Z M487.92,484.15 C489.18,484.11 491.26,484.41 493.87,485.23 C499.09,486.88 506.34,490.51 514.68,495.8 C525.26,502.5 537.64,511.86 550.73,523.15 C514.65,535.21 505.11,522.97 498.24,512.5 C492.82,504.24 489.08,497.04 487.36,491.85 C486.49,489.25 486.16,487.17 486.18,485.92 C486.21,484.67 486.45,484.48 486.47,484.46 C486.49,484.44 486.67,484.19 487.92,484.15 Z M633.92,484.15 C635.17,484.19 635.35,484.44 635.37,484.46 C635.39,484.48 635.63,484.67 635.66,485.92 C635.68,487.17 635.35,489.25 634.48,491.85 C632.75,497.04 629.02,504.24 623.6,512.5 C616.74,522.96 607.2,535.19 595.71,548.1 C584.2,511.85 596.59,502.5 607.16,495.8 C615.5,490.51 622.75,486.88 627.97,485.23 C630.58,484.41 632.66,484.1 633.92,484.15 Z M561.29,457.96 L542.55,475.89 L555.81,475.89 L555.81,514 C543.03,503.07 530.86,493.93 520.17,487.15 C511.38,481.57 503.62,477.56 496.96,475.46 C493.63,474.41 490.56,473.81 487.57,473.91 C484.58,474.01 481.44,474.96 479.17,477.27 C476.89,479.58 475.99,482.73 475.93,485.73 C475.88,488.72 476.53,491.77 477.63,495.09 C479.83,501.71 483.96,509.41 489.67,518.12 C496.49,528.52 505.61,540.3 516.48,552.67 L479.03,552.67 L479.03,539.41 L461.1,558.14 L479.03,576.15 L479.03,563.84 L515.64,563.84 C505.14,575.86 496.31,587.31 489.67,597.43 C483.96,606.14 479.84,613.84 477.63,620.47 C476.53,623.78 475.88,626.84 475.93,629.83 C475.99,632.82 476.89,635.98 479.16,638.29 C481.44,640.59 484.58,641.54 487.57,641.65 C490.56,641.75 493.63,641.15 496.96,640.09 C503.62,637.99 511.38,633.99 520.17,628.41 C530.86,621.63 543.03,612.49 555.81,601.55 L555.81,639.67 L542.55,639.67 L561.29,657.6 L579.29,639.67 L566.99,639.67 L566.99,602.37 C579.42,612.94 591.24,621.8 601.67,628.41 C610.46,633.99 618.22,637.99 624.88,640.09 C628.21,641.15 631.28,641.75 634.27,641.65 C637.26,641.54 640.4,640.59 642.68,638.29 C644.95,635.98 645.85,632.82 645.9,629.83 C645.96,626.84 645.31,623.78 644.21,620.47 C642,613.84 637.88,606.14 632.17,597.44 C625.53,587.31 616.7,575.86 606.2,563.84 L642.81,563.84 L642.81,576.15 L660.74,558.14 L642.81,539.41 L642.81,552.67 L605.36,552.67 C616.22,540.3 625.35,528.52 632.17,518.12 C637.88,509.41 642,501.71 644.21,495.09 C645.31,491.77 645.96,488.72 645.9,485.73 C645.85,482.73 644.95,479.57 642.67,477.27 C640.4,474.96 637.26,474.01 634.27,473.91 C631.27,473.81 628.21,474.41 624.88,475.46 C618.22,477.57 610.46,481.57 601.67,487.14 C591.24,493.76 579.42,502.61 566.99,513.19 L566.99,475.89 L579.29,475.89 Z M44.28,20 L677.57,20 C691.2,20 701.86,30.66 701.86,44.28 L701.86,680.96 C701.86,694.59 691.2,705.25 677.57,705.25 L44.28,705.25 C30.66,705.25 20,694.59 20,680.96 L20,44.28 C20,30.66 30.66,20 44.28,20 Z M44.28,0 C19.92,0 0,19.92 0,44.28 L0,680.96 C0,705.33 19.92,725.26 44.28,725.26 L677.57,725.26 C701.93,725.26 721.85,705.33 721.85,680.96 L721.85,44.28 C721.85,19.92 701.93,0 677.57,0 Z" fill="none" stroke="currentColor" stroke-width="1.5"/><path d="M597.01,557.77 Z" fill="none" stroke="currentColor" stroke-width="1.5"/></svg>