<svg xmlns="http://www.w3.org/2000/svg" viewBox="0 0 190.99 275.55" width="24" height="24"><path d="M11.72,201.21 L179.27,201.21 C182.88,201.21 185.7,204.03 185.7,207.64 L185.7,263.84 C185.7,267.44 182.88,270.26 179.27,270.26 L11.72,270.26 C8.11,270.26 5.29,267.44 5.29,263.84 L5.29,207.64 C5.29,204.03 8.11,201.21 11.72,201.21 Z M11.72,195.92 C5.27,195.92 0,201.19 0,207.64 L0,263.84 C0,270.28 5.27,275.55 11.72,275.55 L179.27,275.55 C185.72,275.55 190.99,270.28 190.99,263.84 L190.99,207.64 C190.99,201.19 185.72,195.92 179.27,195.92 Z M11.72,5.29 L179.27,5.29 C182.88,5.29 185.7,8.11 185.7,11.72 L185.7,180.17 C185.7,183.78 182.88,186.6 179.27,186.6 L11.72,186.6 C8.11,186.6 5.29,183.78 5.29,180.17 L5.29,11.72 C5.29,8.11 8.11,5.29 11.72,5.29 Z M11.72,0 C5.27,0 0,5.27 0,11.72 L0,180.17 C0,186.62 5.27,191.89 11.72,191.89 L179.27,191.89 C185.72,191.89 190.99,186.62 190.99,180.17 L190.99,11.72 C190.99,5.27 185.72,0 179.27,0 Z M71.74,103.28 C79.6,128.03 71.14,134.42 63.92,138.99 C58.22,142.61 53.27,145.09 49.71,146.21 C47.92,146.77 46.5,146.98 45.64,146.95 C44.79,146.92 44.66,146.75 44.65,146.74 C44.64,146.73 44.47,146.6 44.46,145.74 C44.44,144.89 44.67,143.47 45.26,141.69 C46.44,138.15 48.99,133.23 52.69,127.59 C57.38,120.45 63.89,112.09 71.74,103.28 Z M119.24,103.26 C127.09,112.08 133.61,120.44 138.3,127.59 C142,133.23 144.55,138.15 145.73,141.69 C146.32,143.47 146.55,144.89 146.54,145.74 C146.52,146.6 146.35,146.73 146.34,146.74 C146.33,146.76 146.2,146.92 145.35,146.95 C144.49,146.98 143.07,146.77 141.28,146.21 C137.72,145.09 132.77,142.61 127.07,139 C119.85,134.42 111.39,128.03 102.46,120.31 Z M45.65,46.39 C46.5,46.36 47.92,46.57 49.71,47.13 C53.27,48.26 58.22,50.73 63.92,54.35 C71.14,58.92 79.6,65.31 88.53,73.03 C63.9,81.26 57.38,72.9 52.69,65.75 C48.99,60.11 46.44,55.19 45.26,51.65 C44.67,49.88 44.44,48.45 44.46,47.6 C44.47,46.74 44.64,46.62 44.65,46.6 C44.66,46.59 44.79,46.42 45.65,46.39 Z M145.35,46.39 C146.2,46.42 146.33,46.59 146.34,46.6 C146.35,46.61 146.52,46.74 146.54,47.6 C146.55,48.45 146.32,49.87 145.73,51.65 C144.55,55.19 142,60.11 138.3,65.75 C133.61,72.89 127.1,81.25 119.25,90.06 C111.4,65.32 119.86,58.93 127.07,54.35 C132.77,50.74 137.72,48.26 141.29,47.13 C143.07,46.57 144.49,46.36 145.35,46.39 Z M95.75,28.5 L82.95,40.75 L92.01,40.75 L92.01,66.78 C83.28,59.31 74.97,53.07 67.67,48.44 C61.66,44.63 56.36,41.89 51.82,40.45 C49.54,39.74 47.45,39.32 45.41,39.39 C43.36,39.46 41.22,40.11 39.66,41.69 C38.11,43.27 37.5,45.42 37.46,47.47 C37.42,49.51 37.86,51.6 38.61,53.86 C40.12,58.38 42.94,63.64 46.84,69.59 C51.5,76.69 57.73,84.74 65.15,93.18 L39.57,93.18 L39.57,84.13 L27.33,96.92 L39.57,109.22 L39.57,100.81 L64.57,100.81 C57.4,109.02 51.38,116.84 46.84,123.75 C42.94,129.7 40.12,134.96 38.62,139.48 C37.86,141.75 37.42,143.83 37.46,145.88 C37.49,147.92 38.11,150.08 39.66,151.65 C41.21,153.23 43.36,153.88 45.4,153.95 C47.45,154.02 49.54,153.6 51.81,152.89 C56.36,151.45 61.66,148.72 67.67,144.91 C74.97,140.28 83.28,134.03 92.01,126.56 L92.01,152.6 L82.95,152.6 L95.75,164.84 L108.04,152.6 L99.64,152.6 L99.64,127.12 C108.13,134.34 116.2,140.39 123.32,144.91 C129.33,148.72 134.63,151.45 139.18,152.89 C141.45,153.61 143.54,154.02 145.59,153.95 C147.63,153.88 149.78,153.23 151.33,151.65 C152.88,150.08 153.49,147.92 153.53,145.88 C153.57,143.83 153.13,141.75 152.38,139.48 C150.87,134.96 148.05,129.7 144.15,123.75 C139.62,116.84 133.59,109.02 126.42,100.81 L151.42,100.81 L151.42,109.22 L163.66,96.92 L151.42,84.13 L151.42,93.18 L125.84,93.18 C133.26,84.74 139.5,76.69 144.15,69.59 C148.05,63.64 150.87,58.38 152.37,53.86 C153.13,51.6 153.57,49.51 153.53,47.47 C153.49,45.42 152.88,43.26 151.33,41.69 C149.78,40.11 147.63,39.46 145.58,39.39 C143.54,39.32 141.45,39.74 139.18,40.46 C134.63,41.89 129.33,44.63 123.32,48.43 C116.2,52.95 108.13,59 99.64,66.22 L99.64,40.75 L108.04,40.75 Z" fill="none" stroke="currentColor" stroke-width="1.5"/><path d="M120.16,96.67 Z" fill="none" stroke="currentColor" stroke-width="1.5"/></svg>