<svg xmlns="http://www.w3.org/2000/svg" viewBox="0 0 190.99 275.55" width="24" height="24"><path d="M11.72,201.21 L179.27,201.21 C182.88,201.21 185.7,204.03 185.7,207.64 L185.7,263.84 C185.7,267.44 182.88,270.26 179.27,270.26 L11.72,270.26 C8.11,270.26 5.29,267.44 5.29,263.84 L5.29,207.64 C5.29,204.03 8.11,201.21 11.72,201.21 Z M11.72,195.92 C5.27,195.92 0,201.19 0,207.64 L0,263.84 C0,270.28 5.27,275.55 11.72,275.55 L179.27,275.55 C185.72,275.55 190.99,270.28 190.99,263.84 L190.99,207.64 C190.99,201.19 185.72,195.92 179.27,195.92 Z M11.72,5.29 L179.27,5.29 C182.88,5.29 185.7,8.11 185.7,11.72 L185.7,180.17 C185.7,183.78 182.88,186.6 179.27,186.6 L11.72,186.6 C8.11,186.6 5.29,183.78 5.29,180.17 L5.29,11.72 C5.29,8.11 8.11,5.29 11.72,5.29 Z M11.72,0 C5.27,0 0,5.27 0,11.72 L0,180.17 C0,186.62 5.27,191.89 11.72,191.89 L179.27,191.89 C185.72,191.89 190.99,186.62 190.99,180.17 L190.99,11.72 C190.99,5.27 185.72,0 179.27,0 Z M38.63,128.37 L33.53,135.71 L36.92,135.71 L36.92,143.5 L27.26,139.74 L29.65,137.34 L20.89,135.74 L22.5,144.53 L24.89,142.12 L30.42,147.62 L20.97,151.66 L20.97,148.27 L13.63,153.31 L20.97,158.4 L20.97,155.02 L28.76,155.02 L24.93,164.6 L22.54,162.21 L20.95,171 L29.7,169.37 L27.31,166.98 L32.81,161.46 L36.92,170.96 L33.53,170.96 L38.63,178.3 L43.66,170.96 L40.28,170.96 L40.28,163.18 L49.89,166.98 L47.5,169.38 L56.3,170.94 L54.64,162.19 L52.26,164.59 L46.74,159.1 L56.22,155.02 L56.22,158.4 L63.56,153.31 L56.22,148.27 L56.22,151.66 L48.43,151.66 L52.22,142.03 L54.61,144.43 L56.24,135.67 L47.44,137.27 L49.84,139.66 L44.33,145.18 L40.28,135.71 L43.66,135.71 Z M142.81,16.9 L142.81,27.08 L108.69,27.08 L108.69,39.96 L142.81,39.96 L142.81,51.11 L171.86,34.14 Z M68.2,42.73 L39.15,59.97 L68.2,76.95 L68.2,65.8 L102.32,65.8 L102.32,52.91 L68.2,52.91 Z M123.83,67.35 L123.83,77.53 L89.71,77.53 L89.71,90.42 L123.83,90.42 L123.83,101.57 L152.88,84.59 Z M48.67,93.12 L19.62,110.36 L48.67,127.34 L48.67,116.19 L82.79,116.19 L82.79,103.3 L48.67,103.3 Z M147.78,122.06 L142.82,126.8 L146.33,126.8 L146.33,136.89 C142.95,133.99 139.73,131.57 136.9,129.78 C134.58,128.3 132.52,127.25 130.76,126.69 C129.88,126.41 129.07,126.25 128.28,126.28 C127.49,126.3 126.66,126.56 126.05,127.17 C125.45,127.78 125.21,128.61 125.2,129.4 C125.18,130.2 125.36,131.01 125.65,131.88 C126.23,133.63 127.32,135.67 128.83,137.98 C130.64,140.73 133.05,143.84 135.93,147.12 L126.02,147.12 L126.02,143.61 L121.27,148.57 L126.02,153.33 L126.02,150.07 L135.7,150.07 C132.93,153.25 130.59,156.28 128.83,158.96 C127.32,161.26 126.23,163.3 125.65,165.06 C125.36,165.93 125.18,166.74 125.2,167.53 C125.21,168.32 125.45,169.16 126.05,169.77 C126.65,170.38 127.49,170.63 128.28,170.66 C129.07,170.69 129.88,170.53 130.76,170.25 C132.52,169.69 134.58,168.63 136.9,167.16 C139.73,165.36 142.95,162.94 146.33,160.05 L146.33,170.14 L142.82,170.14 L147.78,174.88 L152.54,170.14 L149.29,170.14 L149.29,160.27 C152.58,163.06 155.71,165.41 158.47,167.16 C160.79,168.63 162.85,169.69 164.61,170.25 C165.49,170.53 166.3,170.69 167.09,170.66 C167.88,170.63 168.71,170.38 169.32,169.77 C169.92,169.16 170.16,168.32 170.17,167.53 C170.19,166.74 170.01,165.93 169.72,165.05 C169.14,163.3 168.05,161.27 166.54,158.96 C164.78,156.28 162.44,153.25 159.66,150.07 L169.35,150.07 L169.35,153.33 L174.1,148.57 L169.35,143.61 L169.35,147.12 L159.44,147.12 C162.32,143.84 164.73,140.73 166.54,137.98 C168.05,135.67 169.14,133.63 169.72,131.88 C170.01,131.01 170.19,130.2 170.17,129.4 C170.16,128.61 169.92,127.78 169.32,127.17 C168.71,126.56 167.88,126.3 167.09,126.28 C166.3,126.25 165.49,126.41 164.61,126.69 C162.85,127.25 160.79,128.3 158.47,129.78 C155.71,131.53 152.58,133.87 149.29,136.67 L149.29,126.8 L152.54,126.8 Z M167,128.99 L167,128.99 C167.33,129 167.38,129.06 167.38,129.07 C167.39,129.07 167.45,129.12 167.46,129.46 C167.47,129.79 167.38,130.34 167.15,131.03 C166.69,132.4 165.7,134.3 164.27,136.49 C162.45,139.26 159.93,142.49 156.89,145.91 C153.84,136.32 157.12,133.84 159.92,132.07 C162.13,130.67 164.04,129.71 165.42,129.27 C166.11,129.06 166.67,128.98 167,128.99 Z M128.37,128.99 C128.7,128.98 129.25,129.06 129.94,129.27 C131.33,129.71 133.24,130.67 135.45,132.07 C138.25,133.84 141.53,136.32 144.99,139.31 C135.44,142.5 132.92,139.26 131.1,136.49 C129.67,134.3 128.68,132.4 128.22,131.02 C127.99,130.34 127.9,129.79 127.91,129.46 C127.92,129.12 127.98,129.07 127.99,129.07 C127.99,129.06 128.04,129 128.37,128.99 Z M156.88,151.02 C159.93,154.44 162.45,157.68 164.27,160.45 C165.7,162.63 166.69,164.54 167.15,165.91 C167.38,166.6 167.47,167.15 167.46,167.48 C167.45,167.81 167.39,167.86 167.38,167.87 C167.38,167.87 167.33,167.94 167,167.95 C166.67,167.96 166.11,167.88 165.42,167.66 C164.04,167.23 162.13,166.27 159.92,164.87 C157.12,163.09 153.84,160.62 150.38,157.63 Z M138.48,151.03 C141.52,160.62 138.25,163.09 135.45,164.87 C133.24,166.27 131.32,167.23 129.94,167.66 C129.25,167.88 128.7,167.96 128.37,167.95 C128.04,167.94 127.99,167.87 127.99,167.87 C127.98,167.86 127.92,167.81 127.91,167.48 C127.9,167.15 127.99,166.6 128.22,165.91 C128.68,164.54 129.67,162.63 131.1,160.45 C132.92,157.68 135.44,154.44 138.48,151.03 Z" fill="none" stroke="currentColor" stroke-width="1.5"/><path d="M157.24,148.47 Z" fill="none" stroke="currentColor" stroke-width="1.5"/></svg>