<svg xmlns="http://www.w3.org/2000/svg" viewBox="0 0 938.03 725.26" width="24" height="24"><path d="M42.47,45.77 L42.47,79.1 L290.48,79.1 L290.48,165.43 L42.47,165.43 L42.47,198.76 L124.44,198.76 L124.44,285.09 L42.47,285.09 L42.47,318.42 L290.48,318.42 L290.48,404.76 L42.47,404.76 L42.47,438.09 L124.44,438.09 L124.44,524.42 L42.47,524.42 L42.47,557.75 L290.48,557.75 L290.48,644.08 L42.47,644.08 L42.47,677.41 L898.28,677.41 L898.28,644.08 L655.9,644.08 L655.9,557.75 L898.28,557.75 L898.28,524.42 L821.94,524.42 L821.94,438.09 L898.28,438.09 L898.28,404.76 L655.9,404.76 L655.9,318.42 L898.28,318.42 L898.28,285.09 L821.94,285.09 L821.94,198.76 L898.28,198.76 L898.28,165.43 L655.9,165.43 L655.9,79.1 L898.28,79.1 L898.28,45.77 Z M323.81,79.1 L622.57,79.1 L622.57,165.43 L323.81,165.43 Z M157.77,198.76 L456.53,198.76 L456.53,285.09 L157.77,285.09 Z M489.86,198.76 L788.61,198.76 L788.61,285.09 L489.86,285.09 Z M323.81,318.42 L622.57,318.42 L622.57,404.76 L323.81,404.76 Z M157.77,438.09 L456.53,438.09 L456.53,524.42 L157.77,524.42 Z M489.86,438.09 L788.61,438.09 L788.61,524.42 L489.86,524.42 Z M323.81,557.75 L622.57,557.75 L622.57,644.08 L323.81,644.08 Z M44.28,0 C19.92,0 0,19.92 0,44.28 L0,680.96 C0,705.33 19.92,725.26 44.28,725.26 L893.74,725.26 C918.1,725.26 938.03,705.33 938.03,680.96 L938.03,44.28 C938.03,19.92 918.1,0 893.74,0 Z M44.28,20 L893.74,20 C907.37,20 918.03,30.66 918.03,44.28 L918.03,680.96 C918.03,694.59 907.37,705.25 893.74,705.25 L44.28,705.25 C30.66,705.25 20,694.59 20,680.96 L20,44.28 C20,30.66 30.66,20 44.28,20 Z" fill="none" stroke="currentColor" stroke-width="1.5"/></svg>