<svg xmlns="http://www.w3.org/2000/svg" viewBox="0 0 938.03 725.26" width="24" height="24"><path d="M429.52,95.97 C357.47,95.97 293.66,131.77 254.93,186.52 L277.6,200.05 C311.59,153 366.91,122.43 429.52,122.43 C533.11,122.43 616.8,206.12 616.8,309.71 C616.8,413.31 533.11,497 429.52,497 C367.13,497 311.97,466.64 277.95,419.86 L255.27,433.4 C294.04,487.87 357.69,523.46 429.52,523.46 C473.3,523.46 514.04,510.22 547.96,487.56 L686.56,630.36 L724.53,593.5 L588.08,452.92 C622.36,414.99 643.26,364.76 643.26,309.71 C643.26,191.83 547.41,95.97 429.52,95.97 Z M255.27,433.4 C249.31,425.03 243.94,416.22 239.22,407.02 L151.94,459.1 L167.75,485.61 Z M239.22,407.02 L261.92,393.48 C251.5,372.64 244.85,349.56 242.86,325.15 L216.34,325.15 C218.44,354.46 226.46,382.15 239.22,407.02 Z M216.34,325.15 C215.97,320.05 215.77,314.91 215.77,309.71 C215.77,304.52 215.97,299.38 216.34,294.28 L121.63,294.28 L121.63,325.15 Z M216.34,294.28 L242.87,294.28 C244.83,270.07 251.38,247.19 261.65,226.48 L238.96,212.94 C226.35,237.68 218.42,265.18 216.34,294.28 Z M238.96,212.94 C243.65,203.73 248.99,194.9 254.93,186.52 L166.6,133.82 L150.78,160.33 Z M261.65,226.48 L281.02,238.04 L277.6,200.05 C271.59,208.37 266.25,217.21 261.65,226.48 Z M297.02,211.64 L317.98,224.14 L325.72,211.17 L356.26,264.96 L294.42,263.63 L302.16,250.65 L281.02,238.04 L297.91,294.28 L297.91,279.17 L351.7,309.71 L297.91,340.26 L297.91,325.15 L265.26,325.15 L303.32,368.78 L295.58,355.8 L357.42,354.47 L326.88,408.26 L319.14,395.29 L297.39,408.26 Z M297.39,408.26 L261.92,393.48 C266.54,402.74 271.91,411.56 277.95,419.86 Z M265.26,325.15 L242.87,294.28 C242.45,299.37 242.23,304.52 242.23,309.71 C242.23,314.91 242.45,320.06 242.86,325.15 Z M364.72,181.71 L499.1,283.77 L587.47,283.77 L587.47,329.01 L499.1,329.01 L364.72,437.72 Z M763.85,275.41 L763.85,292.38 L658.25,292.38 L658.25,327.05 L763.85,327.05 L763.85,344.02 L817.64,309.71 Z M44.28,0 C19.92,0 0,19.92 0,44.28 L0,680.96 C0,705.33 19.92,725.26 44.28,725.26 L893.74,725.26 C918.1,725.26 938.03,705.33 938.03,680.96 L938.03,44.28 C938.03,19.92 918.1,0 893.74,0 Z M44.28,20 L893.74,20 C907.37,20 918.03,30.66 918.03,44.28 L918.03,680.96 C918.03,694.59 907.37,705.25 893.74,705.25 L44.28,705.25 C30.66,705.25 20,694.59 20,680.96 L20,44.28 C20,30.66 30.66,20 44.28,20 Z" fill="none" stroke="currentColor" stroke-width="1.5"/></svg>