<svg xmlns="http://www.w3.org/2000/svg" viewBox="0 0 691.66 721.69" width="24" height="24"><path d="M234.87,0 L147.04,88.07 L147.04,34.6 L78.69,34.6 L78.69,157.78 L0,236.38 L44.63,236.38 L44.63,551.77 L245.6,551.77 L245.6,610.08 C245.6,634.34 265.48,654.21 289.73,654.21 L426.86,654.21 L426.86,683.79 L366.57,683.79 L570.68,721.59 L510.4,683.79 L510.4,654.21 L647.53,654.21 C671.78,654.21 691.66,634.34 691.66,610.08 L691.66,405.37 C691.66,381.12 671.78,361.24 647.53,361.24 L426.15,361.24 L426.15,236.38 L469.73,236.38 Z M67.31,236.38 L403.47,236.38 L403.47,361.24 L289.73,361.24 C265.48,361.24 245.6,381.12 245.6,405.37 L245.6,529.1 L67.31,529.1 Z M289.73,383.92 L647.53,383.92 C659.61,383.92 668.98,393.29 668.98,405.37 L668.98,610.08 C668.98,622.17 659.61,631.54 647.53,631.54 L289.73,631.54 C277.65,631.54 268.28,622.17 268.28,610.08 L268.28,405.37 C268.28,393.29 277.65,383.92 289.73,383.92 Z M299.29,407.77 L299.29,606.86 L637.97,606.86 L637.97,407.77 Z" fill="none" stroke="currentColor" stroke-width="1.5"/></svg>