<svg xmlns="http://www.w3.org/2000/svg" viewBox="0 0 1960.61 2045.88" width="24" height="24"><path d="M1835.52,1023.99 L1207.97,1023.99 L1207.97,670.07 L1331.52,670.07 L665.76,0 L416.82,249.65 L416.82,98.08 L223.06,98.08 L223.06,447.25 L0,670.07 L126.52,670.07 L126.52,1564.08 L696.19,1564.08 L696.19,1729.37 C696.19,1798.12 752.53,1854.46 821.28,1854.46 L1209.99,1854.46 L1209.99,1938.31 L1039.11,1938.31 C1009.52,1937.87 985.19,1961.5 984.75,1991.08 C984.31,2020.66 1007.94,2045 1037.52,2045.44 C1038.05,2045.45 1038.58,2045.45 1039.11,2045.44 L1617.69,2045.44 C1647.27,2045.88 1671.61,2022.25 1672.05,1992.67 C1672.48,1963.08 1648.86,1938.74 1619.27,1938.31 C1618.74,1938.3 1618.21,1938.3 1617.69,1938.31 L1446.8,1938.31 L1446.8,1854.46 L1835.52,1854.46 C1904.26,1854.46 1960.61,1798.12 1960.61,1729.37 L1960.61,1149.08 C1960.61,1080.33 1904.26,1023.99 1835.52,1023.99 L1835.52,1023.99 Z" fill="none" stroke="currentColor" stroke-width="1.5"/><path d="M1835.52,1088.27 L821.28,1088.27 C787.03,1088.27 760.47,1114.83 760.47,1149.08 L760.47,1729.37 C760.47,1763.62 787.03,1790.18 821.28,1790.18 L1835.52,1790.18 C1869.76,1790.18 1896.32,1763.62 1896.32,1729.37 L1896.32,1149.08 C1896.32,1114.83 1869.76,1088.27 1835.52,1088.27 Z M1808.42,1720.23 L848.37,1720.23 L848.37,1155.87 L1808.42,1155.87 L1808.42,1720.23 Z M1143.69,670.07 L1143.69,1023.99 L821.28,1023.99 C752.53,1023.99 696.19,1080.33 696.19,1149.08 L696.19,1499.8 L190.81,1499.8 L190.81,670.07 L1143.69,670.07 Z" fill="none" stroke="currentColor" stroke-width="1.5"/></svg>