<svg xmlns="http://www.w3.org/2000/svg" viewBox="0 0 196.97 196.97" width="24" height="24"><path d="M113.9,129.51 L113.9,99.88 L85.94,99.88 L85.94,129.51 Z M118.49,131.88 C118.49,134.9 117.12,136.36 114.37,136.36 L84.86,136.36 C82.28,136.36 80.68,134.78 80.68,132.26 L80.68,97.22 C80.68,94.82 82.54,93.75 84.71,93.75 L114.34,93.75 C116.74,93.75 118.49,94.59 118.49,96.89 Z M79.5,90.11 C79.5,93.05 77.78,95.27 74.81,95.27 L63.82,95.27 C61.39,95.27 58.76,92.83 58.76,89.79 L58.76,80.6 C58.76,77.69 61.13,75.5 64.14,75.5 L134.94,75.5 C138.87,75.5 140.64,78.63 140.64,81.2 L140.64,89.91 C140.64,92.6 138.37,95.27 135.32,95.27 L123.88,95.27 C121.48,95.27 118.97,92.31 118.97,90.11 Z M76.16,134.4 L65.42,145.52 L73.49,153.43 L44.41,159.48 L49.8,130.2 L57.79,138.04 L68.54,126.92 Z M146.95,159.27 L135.83,148.53 L127.92,156.59 L121.87,127.51 L151.15,132.91 L143.31,140.9 L154.43,151.64 Z M53.28,37.93 L64.4,48.67 L72.31,40.61 L78.36,69.69 L49.08,64.3 L56.92,56.3 L45.8,45.56 Z M98.48,2.5 C151.51,2.5 194.47,45.46 194.47,98.48 C194.47,151.51 151.51,194.47 98.48,194.47 C45.46,194.47 2.5,151.51 2.5,98.48 C2.5,45.46 45.46,2.5 98.48,2.5 Z M98.48,0 C44.11,0 0,44.11 0,98.48 C0,152.86 44.11,196.97 98.48,196.97 C152.86,196.97 196.97,152.86 196.97,98.48 C196.97,44.11 152.86,0 98.48,0 Z M116.59,63.61 L127.33,52.49 L119.27,44.58 L148.35,38.53 L142.95,67.81 L134.96,59.97 L124.22,71.09 Z" fill="none" stroke="currentColor" stroke-width="1.5"/></svg>