<svg xmlns="http://www.w3.org/2000/svg" viewBox="0 0 248.19 191.89" width="24" height="24"><path d="M148.41,94.65 L162.16,94.65 L162.16,132.94 L148.41,132.94 Z M127.06,102.19 L140.8,102.19 L140.8,132.94 L127.06,132.94 Z M105.71,111.95 L119.45,111.95 L119.45,132.94 L105.71,132.94 Z M84.35,108.43 L98.1,108.43 L98.1,132.94 L84.35,132.94 Z M207.5,81.34 L207.5,91.3 L229.44,91.3 L229.44,101.11 L207.5,101.11 L207.5,111.07 L186.2,96.21 Z M41,81.41 L41,91.37 L19.06,91.37 L19.06,101.18 L41,101.18 L41,111.14 L62.3,96.28 Z M124.45,43.68 C109.38,43.68 95.72,46.17 85.64,50.33 C80.6,52.4 76.45,54.89 73.46,57.79 C70.47,60.7 68.62,64.14 68.62,67.86 L68.62,124.76 C68.62,129.65 71.07,133.83 74.81,137.09 C78.55,140.34 83.58,142.82 89.25,144.75 C100.59,148.6 114.54,150.22 125.88,150.22 C137.59,150.22 150.87,148.15 161.44,144.09 C166.72,142.06 171.33,139.54 174.73,136.41 C178.13,133.28 180.35,129.4 180.35,125 L180.35,67.86 C180.35,64.14 178.49,60.7 175.5,57.79 C172.5,54.88 168.34,52.4 163.3,50.32 C153.2,46.17 139.52,43.68 124.45,43.68 Z M124.45,47.68 C139.08,47.68 152.34,50.15 161.78,54.03 C166.49,55.97 170.24,58.26 172.71,60.66 C175.18,63.06 176.35,65.46 176.35,67.86 C176.35,70.27 175.18,72.67 172.71,75.07 C170.24,77.47 166.49,79.76 161.78,81.7 C152.34,85.58 139.08,88.05 124.45,88.05 C109.83,88.05 96.58,85.58 87.16,81.71 C82.45,79.77 78.72,77.47 76.25,75.07 C73.78,72.67 72.62,70.27 72.62,67.86 C72.62,65.46 73.78,63.06 76.25,60.66 C78.72,58.26 82.45,55.96 87.16,54.02 C96.58,50.14 109.83,47.68 124.45,47.68 Z M176.35,76.98 L176.35,125 C176.35,128.08 174.87,130.84 172.02,133.47 C169.17,136.09 164.97,138.45 160,140.36 C150.07,144.17 137.11,146.22 125.88,146.22 C114.93,146.22 101.25,144.6 90.54,140.96 C85.18,139.14 80.58,136.81 77.43,134.07 C74.29,131.34 72.62,128.35 72.62,124.76 L72.62,76.98 C72.9,77.3 73.15,77.63 73.46,77.93 C76.45,80.84 80.6,83.33 85.64,85.4 C95.72,89.55 109.38,92.05 124.45,92.05 C139.52,92.05 153.2,89.56 163.3,85.4 C168.34,83.33 172.5,80.84 175.5,77.94 C175.81,77.63 176.06,77.29 176.35,76.98 Z M11.72,0 C5.27,0 0,5.27 0,11.72 L0,180.17 C0,186.62 5.27,191.89 11.72,191.89 L236.47,191.89 C242.91,191.89 248.19,186.62 248.19,180.17 L248.19,11.72 C248.19,5.27 242.91,0 236.47,0 Z M11.72,5.29 L236.47,5.29 C240.07,5.29 242.89,8.11 242.89,11.72 L242.89,180.17 C242.89,183.78 240.07,186.6 236.47,186.6 L11.72,186.6 C8.11,186.6 5.29,183.78 5.29,180.17 L5.29,11.72 C5.29,8.11 8.11,5.29 11.72,5.29 Z" fill="none" stroke="currentColor" stroke-width="1.5"/></svg>