<svg xmlns="http://www.w3.org/2000/svg" viewBox="0 0 378.35 190.11" width="24" height="24"><path d="M248.46,8.35 Z M247.92,14.73 L247.55,81.65 L247.55,81.66 C247.55,83.48 246.83,84.85 245.87,85.84 C244.9,86.82 243.63,87.25 243.21,87.25 L236.77,87.25 C234.21,87.25 229.64,85.2 228.37,79.15 L218.78,15.5 C223.97,18.1 229.01,19.52 233.97,19.42 C238.81,19.32 243.49,17.74 247.92,14.73 Z M71.33,38.21 C50.55,38.21 32.41,56.58 26.88,76.23 L11.34,130.43 C6.4,147.81 22.66,168.25 44.23,168.25 L332.84,168.31 C355.77,168.31 371.87,146.07 366.51,130.64 L351.73,78.54 C347.12,62.2 330.91,38.31 307.17,38.31 L252.79,38.29 L252.55,81.66 C252.55,84.85 251.21,87.52 249.44,89.33 C247.66,91.15 245.52,92.25 243.21,92.25 L236.77,92.25 C231.63,92.25 225.18,88.36 223.46,80.16 L223.45,80.09 L217.15,38.27 Z M82,63.71 L87.85,63.71 C90.91,63.68 93.41,66.15 93.41,69.21 C93.41,72.28 90.91,74.75 87.85,74.71 L82,74.71 C78.94,74.75 76.43,72.28 76.43,69.21 C76.43,66.15 78.94,63.68 82,63.71 Z M108.04,63.71 L113.89,63.71 C116.95,63.68 119.46,66.15 119.46,69.21 C119.46,72.28 116.95,74.75 113.89,74.71 L108.04,74.71 C104.98,74.75 102.48,72.28 102.48,69.21 C102.48,66.15 104.98,63.68 108.04,63.71 Z M134.09,63.71 L139.94,63.71 C143,63.68 145.5,66.15 145.5,69.21 C145.5,72.28 143,74.75 139.94,74.71 L134.09,74.71 C131.02,74.75 128.52,72.28 128.52,69.21 C128.52,66.15 131.02,63.68 134.09,63.71 Z M160.13,63.71 L165.98,63.71 C169.04,63.68 171.54,66.15 171.54,69.21 C171.54,72.28 169.04,74.75 165.98,74.71 L160.13,74.71 C157.07,74.75 154.56,72.28 154.56,69.21 C154.56,66.15 157.07,63.68 160.13,63.71 Z M259.96,66.57 L324.34,66.57 L347.08,138.79 L273.34,138.79 Z M265.97,71.57 L277.5,133.79 L340.26,133.79 L320.67,71.57 Z M279.97,78.69 L285.82,78.69 C288.89,78.64 291.41,81.12 291.41,84.19 C291.41,87.26 288.89,89.73 285.82,89.69 L279.97,89.69 C276.9,89.73 274.39,87.26 274.39,84.19 C274.39,81.12 276.9,78.64 279.97,78.69 Z M305.88,78.69 L311.73,78.69 C314.8,78.64 317.31,81.12 317.31,84.19 C317.31,87.26 314.8,89.73 311.73,89.69 L305.88,89.69 C302.81,89.73 300.3,87.26 300.3,84.19 C300.3,81.12 302.81,78.64 305.88,78.69 Z M284.94,95.94 L290.79,95.94 C293.86,95.9 296.38,98.37 296.38,101.44 C296.38,104.51 293.86,106.99 290.79,106.94 L284.94,106.94 C281.87,106.99 279.36,104.51 279.36,101.44 C279.36,98.37 281.87,95.9 284.94,95.94 Z M310.85,95.94 L316.7,95.94 C319.77,95.9 322.28,98.37 322.28,101.44 C322.28,104.51 319.77,106.99 316.7,106.94 L310.85,106.94 C307.78,106.99 305.26,104.51 305.26,101.44 C305.26,98.37 307.78,95.9 310.85,95.94 Z M36.47,101.51 L222.93,101.51 L222.93,105.51 L36.47,105.51 Z M289.91,113.2 L295.76,113.2 C298.83,113.16 301.34,115.63 301.34,118.7 C301.34,121.77 298.83,124.25 295.76,124.2 L289.91,124.2 C286.84,124.25 284.33,121.77 284.33,118.7 C284.33,115.63 286.84,113.16 289.91,113.2 Z M315.81,113.2 L321.66,113.2 C324.73,113.16 327.25,115.63 327.25,118.7 C327.25,121.77 324.73,124.25 321.66,124.2 L315.81,124.2 C312.74,124.25 310.23,121.77 310.23,118.7 C310.23,115.63 312.74,113.16 315.81,113.2 Z M30.29,118.44 L229.11,118.44 L229.11,122.44 L30.29,122.44 Z M24.17,135.93 L236.08,135.93 L236.08,139.93 L24.17,139.93 Z M375.04,145.32 C378.34,151.99 376.02,166.47 365.65,177.83 C359.29,184.69 348.9,190.11 338.69,190.11 L38.72,190.07 C29.29,190.07 15.64,184.47 7.29,172.16 C0.59,161.13 0,151.42 2.93,145.02 C7.43,163.98 24.72,177.3 44.7,177.3 L333.87,177.24 C352.6,177.24 370.92,163.77 375.04,145.32 Z" fill="none" stroke="currentColor" stroke-width="1.5"/></svg>