<svg xmlns="http://www.w3.org/2000/svg" viewBox="0 0 190.99 279.26" width="24" height="24"><path d="M96.21,106.54 L80.22,129.56 L90.85,129.56 L90.85,153.98 L60.56,142.19 L68.04,134.67 L40.58,129.63 L45.63,157.2 L53.12,149.67 L70.46,166.91 L40.83,179.57 L40.83,168.95 L17.8,184.75 L40.83,200.73 L40.83,190.11 L65.25,190.11 L53.25,220.17 L45.73,212.66 L40.77,240.25 L68.22,235.12 L60.71,227.62 L77.97,210.34 L90.85,240.13 L80.22,240.13 L96.21,263.15 L112.01,240.13 L101.39,240.13 L101.39,215.71 L131.53,227.63 L124.04,235.16 L151.64,240.06 L146.45,212.63 L138.97,220.15 L121.64,202.93 L151.4,190.11 L151.4,200.73 L174.42,184.75 L151.4,168.95 L151.4,179.57 L126.97,179.57 L138.84,149.39 L146.35,156.89 L151.45,129.44 L123.87,134.43 L131.38,141.94 L114.1,159.24 L101.39,129.56 L112.01,129.56 Z M96.42,41.74 L127.04,53.71 L127.04,55.93 L65.18,55.93 L65.18,53.95 Z M65.18,23.65 L127.04,23.65 L127.04,26.55 L96.42,38.52 L65.18,26.31 Z M36.74,15.11 L36.74,29.19 L64.3,29.19 L92.3,40.13 L65.18,50.73 L65.18,50.48 L36.74,50.48 L36.74,64.56 L65.18,64.56 L65.18,58.93 L127.04,58.93 L127.04,64.56 L155.48,64.56 L155.48,50.48 L127.04,50.48 L127.04,50.49 L100.54,40.13 L128.54,29.19 L155.48,29.19 L155.48,15.11 L127.04,15.11 L127.04,20.65 L65.18,20.65 L65.18,15.11 Z M11.72,0 C5.27,0 0,5.27 0,11.72 L0,67.91 C0,74.36 5.27,79.63 11.72,79.63 L179.27,79.63 C185.72,79.63 190.99,74.36 190.99,67.91 L190.99,11.72 C190.99,5.27 185.72,0 179.27,0 Z M11.72,5.29 L179.27,5.29 C182.88,5.29 185.7,8.11 185.7,11.72 L185.7,67.91 C185.7,71.52 182.88,74.34 179.27,74.34 L11.72,74.34 C8.11,74.34 5.29,71.52 5.29,67.91 L5.29,11.72 C5.29,8.11 8.11,5.29 11.72,5.29 Z M11.72,87.37 C5.27,87.37 0,92.64 0,99.09 L0,267.55 C0,273.99 5.27,279.26 11.72,279.26 L179.27,279.26 C185.72,279.26 190.99,273.99 190.99,267.55 L190.99,99.09 C190.99,92.64 185.72,87.37 179.27,87.37 Z M11.72,92.66 L179.27,92.66 C182.88,92.66 185.7,95.48 185.7,99.09 L185.7,267.55 C185.7,271.15 182.88,273.97 179.27,273.97 L11.72,273.97 C8.11,273.97 5.29,271.15 5.29,267.55 L5.29,99.09 C5.29,95.48 8.11,92.66 11.72,92.66 Z" fill="none" stroke="currentColor" stroke-width="1.5"/></svg>