<svg xmlns="http://www.w3.org/2000/svg" viewBox="0 0 220.46 150.99" width="24" height="24"><path d="M33.01,110.98 L35.08,110.98 L185.47,110.98 L187.7,110.98 C188.61,110.98 190.94,112.21 192.74,113.59 L217.46,136.99 L217.46,142.53 C217.46,145.21 214.63,147.99 211.1,147.99 L9.54,147.99 C7.92,147.99 6.23,147.41 5.01,146.39 C3.78,145.37 3,143.98 3,142.07 L3,137.21 L29.32,112.53 C30.2,111.76 31.72,110.98 33.01,110.98 Z M35.08,3 L185.47,3 C189.01,3 191.82,5.8 191.82,9.35 L191.82,101.61 C191.82,105.16 189.01,107.98 185.47,107.98 L35.08,107.98 C31.54,107.98 28.74,105.16 28.74,101.61 L28.74,9.35 C28.74,5.8 31.54,3 35.08,3 Z M35.08,0 C29.93,0 25.74,4.19 25.74,9.35 L25.74,101.61 C25.74,104.57 27.13,107.22 29.28,108.94 C28.54,109.33 27.89,109.79 27.34,110.27 L27.32,110.29 L0,135.91 L0,142.07 C0,144.85 1.27,147.17 3.08,148.69 C4.9,150.21 7.23,150.99 9.54,150.99 L211.1,150.99 C216.17,150.99 220.46,147.15 220.46,142.53 L220.46,135.7 L194.67,111.29 L194.61,111.24 C193.58,110.45 192.45,109.6 191.25,108.96 C193.42,107.25 194.82,104.59 194.82,101.62 L194.82,9.35 C194.82,4.19 190.62,0 185.47,0 Z M37.11,11.53 L183.01,11.53 L183.01,99.54 L37.11,99.54 Z M72.96,136.77 L80.61,123.67 L140.11,123.67 L147.79,136.77 L127.94,136.77 L127.94,139.07 C127.94,141.44 125.69,144.07 123.23,144.07 L96.85,144.07 C94.33,144.07 92.36,141.49 92.36,139.19 L92.36,136.77 Z" fill="none" stroke="currentColor" stroke-width="1.5"/></svg>