<svg xmlns="http://www.w3.org/2000/svg" viewBox="0 0 624.91 428.0" width="24" height="24"><path d="M397.17,350.56 L228.49,350.56 L206.81,387.71 L261.81,387.71 L261.81,394.56 C261.81,401.06 267.4,408.39 274.54,408.39 L349.3,408.39 C356.27,408.39 362.68,400.93 362.68,394.21 L362.68,387.71 L418.93,387.71 L397.17,350.56 Z M105.2,32.69 L105.2,282.16 L518.76,282.16 L518.76,32.69 L105.2,32.69 Z M551.82,315.46 L551.64,315.33 C548.73,313.08 545.54,310.68 542.11,308.88 C548.27,304.01 552.24,296.47 552.24,288.04 L552.24,26.49 C552.24,11.89 540.35,0 525.75,0 L99.45,0 C84.85,0 72.97,11.89 72.97,26.49 L72.97,288.04 C72.97,296.43 76.89,303.93 83,308.81 C80.9,309.9 79.05,311.23 77.5,312.59 L77.45,312.63 L0,385.25 L0,402.71 C0,410.61 3.59,417.19 8.74,421.49 C13.88,425.79 20.49,428 27.05,428 L598.39,428 C612.77,428 624.91,417.13 624.91,404.02 L624.91,384.65 L551.82,315.46 Z M81.47,288.04 L81.47,26.49 C81.47,16.45 89.41,8.5 99.45,8.5 L525.75,8.5 C535.79,8.5 543.74,16.45 543.74,26.49 L543.74,288.04 C543.74,298.08 535.79,306.07 525.75,306.07 L99.45,306.07 C89.41,306.07 81.47,298.08 81.47,288.04 Z M616.41,404.02 C616.41,411.61 608.41,419.5 598.39,419.5 L27.05,419.5 C22.45,419.5 17.65,417.85 14.19,414.96 C10.73,412.07 8.5,408.13 8.5,402.71 L8.5,388.93 L83.11,318.97 C85.6,316.79 89.91,314.58 93.58,314.58 L532.06,314.58 C534.63,314.58 541.24,318.08 546.35,322 L616.41,388.31 L616.41,404.02 Z" fill="none" stroke="currentColor" stroke-width="1.5"/><path d="M546.35,322 C541.24,318.08 534.63,314.58 532.06,314.58 L93.58,314.58 C89.91,314.58 85.6,316.79 83.11,318.97 L8.5,388.93 L8.5,402.71 C8.5,408.13 10.73,412.07 14.19,414.96 C17.65,417.85 22.45,419.5 27.05,419.5 L598.39,419.5 C608.41,419.5 616.41,411.61 616.41,404.02 L616.41,388.31 L546.35,322 Z M362.68,387.71 L362.68,394.21 C362.68,400.93 356.27,408.39 349.3,408.39 L274.54,408.39 C267.4,408.39 261.81,401.06 261.81,394.56 L261.81,387.71 L206.81,387.71 L228.49,350.56 L397.17,350.56 L418.93,387.71 L362.68,387.71 Z" fill="none" stroke="currentColor" stroke-width="1.5"/><path d="M525.75,8.5 L99.45,8.5 C89.41,8.5 81.47,16.45 81.47,26.49 L81.47,288.04 C81.47,298.08 89.41,306.07 99.45,306.07 L525.75,306.07 C535.79,306.07 543.74,298.08 543.74,288.04 L543.74,26.49 C543.74,16.45 535.79,8.5 525.75,8.5 Z M518.76,282.16 L105.2,282.16 L105.2,32.69 L518.76,32.69 L518.76,282.16 Z" fill="none" stroke="currentColor" stroke-width="1.5"/></svg>