<svg xmlns="http://www.w3.org/2000/svg" viewBox="0 0 832.17 722.85" width="24" height="24"><path d="M416.22,165.76 L403.11,377.56 L290.71,536.09 L383.88,479.75 L522.93,554.47 L466.71,460.25 L429.57,278.29 Z M415.17,0.12 C402.46,0 390.26,7.89 382.46,21.61 L382.43,21.64 C382.43,21.65 382.42,21.66 382.42,21.67 L8.33,667.21 L8.29,667.29 C0.52,681.36 0,695.46 5.75,706.03 C11.5,716.6 23.11,722.85 36.01,722.85 L793.72,722.85 C804.43,722.85 816.01,718.57 823.41,709.11 C830.82,699.66 832.17,684.87 823.41,669.37 L823.39,669.33 L823.37,669.29 L447.59,21.62 L447.59,21.61 C439.88,8.25 427.88,0.24 415.17,0.12 Z M415.03,15.24 C421.57,15.3 428.79,19.28 434.49,29.17 L434.5,29.18 L810.28,676.85 L810.29,676.88 C816.94,688.7 815.27,695 811.52,699.79 C807.75,704.59 800.04,707.73 793.72,707.73 L36.01,707.73 C27.77,707.73 21.97,704.21 19.03,698.81 C16.09,693.41 15.59,685.34 21.53,674.6 L395.55,29.16 L395.58,29.13 C401.38,18.9 408.48,15.18 415.03,15.24 Z" fill="none" stroke="currentColor" stroke-width="1.5"/></svg>