<svg xmlns="http://www.w3.org/2000/svg" viewBox="0 0 2358.9 2049.02" width="24" height="24"><path d="M2296.88,1918.72 L2296.84,1918.64 L1231.65,82.72 L1231.63,82.7 C1215.46,54.64 1195.01,43.36 1176.45,43.19 C1157.89,43.02 1137.77,53.56 1121.31,82.57 L1121.25,82.65 L61.02,1912.24 C44.2,1942.7 45.62,1965.57 53.95,1980.87 C62.27,1996.18 78.7,2006.17 102.07,2006.17 L2249.91,2006.17 C2267.84,2006.17 2289.69,1997.27 2300.36,1983.65 C2310.99,1970.07 2315.74,1952.2 2296.88,1918.72 Z" fill="none" stroke="currentColor" stroke-width="1.5"/><rect x="0" y="0" width="0" height="0" fill="none" stroke="currentColor"/><path d="M1728.64,1550.85 C1699.36,1521.56 1658.9,1503.45 1614.22,1503.45 C1601.08,1503.47 1588.04,1505.08 1575.38,1508.23 C1562.72,1511.38 1550.44,1516.06 1538.82,1522.2 L1322.96,1304.63 C1335.86,1280.91 1342.63,1254.33 1342.63,1227.33 C1342.55,1152.22 1290.8,1087.05 1217.67,1069.94 L1217.67,788.85 C1290.33,771.38 1341.58,706.43 1341.66,631.7 C1341.66,542.33 1269.21,469.88 1179.85,469.88 L1179.84,469.88 C1090.47,469.88 1018.03,542.33 1018.03,631.7 C1018.07,669.19 1030.99,704.21 1053.02,732.01 C1075.04,759.82 1106.18,780.4 1142.67,789.01 L1142.67,1070.25 C1070.16,1087.84 1019.08,1152.72 1019,1227.33 C1019.04,1253.98 1025.67,1280.21 1038.3,1303.68 L824.06,1519.62 C799.88,1506.02 772.62,1498.86 744.88,1498.83 C655.51,1498.83 583.06,1571.28 583.06,1660.65 C583.06,1705.33 601.17,1745.79 630.46,1775.07 C659.74,1804.36 700.2,1822.47 744.88,1822.47 C789.56,1822.47 830.02,1804.36 859.3,1775.07 C888.59,1745.79 906.7,1705.33 906.7,1660.65 C906.68,1644.61 904.27,1628.74 899.63,1613.56 C894.99,1598.38 888.12,1583.89 879.16,1570.57 L1088.16,1359.91 C1115.32,1378.92 1147.66,1389.12 1180.81,1389.15 C1213.62,1389.08 1245.64,1379.05 1272.61,1360.37 L1482.32,1571.73 C1462.9,1599.06 1452.44,1631.74 1452.4,1665.27 C1452.4,1754.64 1524.85,1827.08 1614.22,1827.08 C1658.9,1827.08 1699.36,1808.97 1728.64,1779.69 C1757.93,1750.41 1776.04,1709.95 1776.04,1665.27 C1776.04,1620.59 1757.93,1580.13 1728.64,1550.85 L1728.64,1550.85 Z M2334.06,1897.42 L2334.02,1897.31 L2333.95,1897.21 L1268.76,61.28 L1268.74,61.24 C1246.91,23.38 1212.9,0.67 1176.84,0.33 L1176.85,0.33 C1140.83,0 1106.24,22.38 1084.13,61.25 L1084.06,61.35 C1061.88,100.32 1084.03,61.39 1084.02,61.42 L23.6,1891.31 L23.5,1891.52 C1.47,1931.42 0,1971.39 16.3,2001.35 C32.61,2031.32 65.51,2049.02 102.07,2049.02 L2249.9,2049.02 C2280.27,2049.02 2313.1,2036.88 2334.08,2010.08 C2355.07,1983.28 2358.9,1941.36 2334.06,1897.42 Z M2300.36,1983.65 C2289.69,1997.27 2267.84,2006.17 2249.91,2006.17 L102.07,2006.17 C78.7,2006.17 62.27,1996.18 53.95,1980.87 C45.62,1965.57 44.2,1942.7 61.02,1912.24 L1121.25,82.65 L1121.31,82.57 C1137.77,53.56 1157.89,43.02 1176.45,43.19 C1195.01,43.36 1215.46,54.64 1231.63,82.7 L1231.65,82.72 L2296.84,1918.64 L2296.88,1918.72 C2315.74,1952.2 2310.99,1970.07 2300.36,1983.65 L2300.36,1983.65 Z M1614.22,1503.45 C1601.08,1503.47 1588.04,1505.08 1575.38,1508.23 C1562.72,1511.38 1550.44,1516.06 1538.82,1522.2 L1322.96,1304.63 C1335.86,1280.91 1342.63,1254.33 1342.63,1227.33 C1342.55,1152.22 1290.8,1087.05 1217.67,1069.94 L1217.67,788.85 C1290.33,771.38 1341.58,706.43 1341.66,631.7 C1341.66,542.33 1269.21,469.88 1179.85,469.88 L1179.84,469.88 C1090.47,469.88 1018.03,542.33 1018.03,631.7 C1018.07,669.19 1030.99,704.21 1053.02,732.01 C1075.04,759.82 1106.18,780.4 1142.67,789.01 L1142.67,1070.25 C1070.16,1087.84 1019.08,1152.72 1019,1227.33 C1019.04,1253.98 1025.67,1280.21 1038.3,1303.68 L824.06,1519.62 C799.88,1506.02 772.62,1498.86 744.88,1498.83 C655.51,1498.83 583.06,1571.28 583.06,1660.65 C583.06,1705.33 601.17,1745.79 630.46,1775.07 C659.74,1804.36 700.2,1822.47 744.88,1822.47 C789.56,1822.47 830.02,1804.36 859.3,1775.07 C888.59,1745.79 906.7,1705.33 906.7,1660.65 C906.68,1644.61 904.27,1628.74 899.63,1613.56 C894.99,1598.38 888.12,1583.89 879.16,1570.57 L1088.16,1359.91 C1115.32,1378.92 1147.66,1389.12 1180.81,1389.15 C1213.62,1389.08 1245.64,1379.05 1272.61,1360.37 L1482.32,1571.73 C1462.9,1599.06 1452.44,1631.74 1452.4,1665.27 C1452.4,1754.64 1524.85,1827.08 1614.22,1827.08 C1658.9,1827.08 1699.36,1808.97 1728.64,1779.69 C1757.93,1750.41 1776.04,1709.95 1776.04,1665.27 C1776.04,1620.59 1757.93,1580.13 1728.64,1550.85 C1699.36,1521.56 1658.9,1503.45 1614.22,1503.45 L1614.22,1503.45 Z M1728.64,1550.85 C1699.36,1521.56 1658.9,1503.45 1614.22,1503.45 C1601.08,1503.47 1588.04,1505.08 1575.38,1508.23 C1562.72,1511.38 1550.44,1516.06 1538.82,1522.2 L1322.96,1304.63 C1335.86,1280.91 1342.63,1254.33 1342.63,1227.33 C1342.55,1152.22 1290.8,1087.05 1217.67,1069.94 L1217.67,788.85 C1290.33,771.38 1341.58,706.43 1341.66,631.7 C1341.66,542.33 1269.21,469.88 1179.85,469.88 L1179.84,469.88 C1090.47,469.88 1018.03,542.33 1018.03,631.7 C1018.07,669.19 1030.99,704.21 1053.02,732.01 C1075.04,759.82 1106.18,780.4 1142.67,789.01 L1142.67,1070.25 C1070.16,1087.84 1019.08,1152.72 1019,1227.33 C1019.04,1253.98 1025.67,1280.21 1038.3,1303.68 L824.06,1519.62 C799.88,1506.02 772.62,1498.86 744.88,1498.83 C655.51,1498.83 583.06,1571.28 583.06,1660.65 C583.06,1705.33 601.17,1745.79 630.46,1775.07 C659.74,1804.36 700.2,1822.47 744.88,1822.47 C789.56,1822.47 830.02,1804.36 859.3,1775.07 C888.59,1745.79 906.7,1705.33 906.7,1660.65 C906.68,1644.61 904.27,1628.74 899.63,1613.56 C894.99,1598.38 888.12,1583.89 879.16,1570.57 L1088.16,1359.91 C1115.32,1378.92 1147.66,1389.12 1180.81,1389.15 C1213.62,1389.08 1245.64,1379.05 1272.61,1360.37 L1482.32,1571.73 C1462.9,1599.06 1452.44,1631.74 1452.4,1665.27 C1452.4,1754.64 1524.85,1827.08 1614.22,1827.08 C1658.9,1827.08 1699.36,1808.97 1728.64,1779.69 C1757.93,1750.41 1776.04,1709.95 1776.04,1665.27 C1776.04,1620.59 1757.93,1580.13 1728.64,1550.85 L1728.64,1550.85 Z" fill="none" stroke="currentColor" stroke-width="1.5"/></svg>