<svg xmlns="http://www.w3.org/2000/svg" viewBox="0 0 248.19 191.89" width="24" height="24"><path d="M181.81,142.93 L186.63,134.62 L162.46,120.6 L167.61,111.72 L191.78,125.74 L196.61,117.42 L201.16,137.11 Z M181.79,48.96 L186.61,57.27 L162.44,71.29 L167.58,80.17 L191.76,66.15 L196.58,74.47 L201.14,54.79 Z M197.31,81.2 L197.31,90.81 L169.36,90.81 L169.36,101.08 L197.31,101.08 L197.31,110.69 L211.12,95.95 Z M65.01,81.2 L65.01,90.81 L37.07,90.81 L37.07,101.08 L65.01,101.08 L65.01,110.69 L78.83,95.95 Z M123.42,58.52 C102.8,58.52 86,75.33 86,95.95 C86,116.57 102.8,133.37 123.42,133.37 C144.04,133.37 160.84,116.57 160.84,95.95 C160.84,75.33 144.04,58.52 123.42,58.52 Z M123.42,66.52 C139.72,66.52 152.84,79.65 152.84,95.95 C152.84,112.24 139.72,125.37 123.42,125.37 C107.12,125.37 94,112.24 94,95.95 C94,79.65 107.12,66.52 123.42,66.52 Z M11.72,0 C5.27,0 0,5.27 0,11.72 L0,180.17 C0,186.62 5.27,191.89 11.72,191.89 L236.47,191.89 C242.91,191.89 248.19,186.62 248.19,180.17 L248.19,11.72 C248.19,5.27 242.91,0 236.47,0 Z M11.72,5.29 L236.47,5.29 C240.07,5.29 242.89,8.11 242.89,11.72 L242.89,180.17 C242.89,183.78 240.07,186.6 236.47,186.6 L11.72,186.6 C8.11,186.6 5.29,183.78 5.29,180.17 L5.29,11.72 C5.29,8.11 8.11,5.29 11.72,5.29 Z" fill="none" stroke="currentColor" stroke-width="1.5"/></svg>