<svg xmlns="http://www.w3.org/2000/svg" viewBox="0 0 248.19 191.89" width="24" height="24"><path d="M140.79,149.12 L131.52,149.12 L131.52,175.37 L125.4,175.37 L125.4,149.12 L116.12,149.12 L128.02,128.18 Z M140.79,43.73 L131.52,43.73 L131.52,17.48 L125.4,17.48 L125.4,43.73 L116.12,43.73 L128.02,64.68 Z M49.96,146.01 L44.87,138.26 L75.64,118.05 L72.28,112.94 L41.51,133.15 L36.42,125.39 L25.45,146.83 Z M49.96,46.85 L44.87,54.6 L75.64,74.81 L72.28,79.92 L41.51,59.71 L36.42,67.47 L25.45,46.03 Z M35.01,84.09 L35.01,93.37 L71.82,93.37 L71.82,99.49 L35.01,99.49 L35.01,108.76 L14.07,96.87 Z M198.94,146.01 L204.03,138.26 L173.26,118.05 L176.62,112.94 L207.39,133.15 L212.48,125.39 L223.46,146.83 Z M198.94,46.85 L204.03,54.6 L173.26,74.81 L176.62,79.92 L207.39,59.71 L212.48,67.47 L223.46,46.03 Z M213.89,84.09 L213.89,93.37 L177.08,93.37 L177.08,99.49 L213.89,99.49 L213.89,108.76 L234.83,96.87 Z M106.52,67.54 C101.57,67.54 97.48,71.63 97.48,76.57 L97.48,88.22 L92.59,88.22 L80.57,79.49 L80.65,113.37 L92.79,106.27 L97.48,106.27 L97.48,116.29 C97.48,121.23 101.57,125.32 106.52,125.32 L159.17,125.32 C164.12,125.32 168.21,121.23 168.21,116.29 L168.21,76.57 C168.21,71.63 164.12,67.54 159.17,67.54 Z M106.52,74.54 L159.17,74.54 C160.36,74.54 161.21,75.39 161.21,76.57 L161.21,116.29 C161.21,117.47 160.36,118.32 159.17,118.32 L106.52,118.32 C105.33,118.32 104.48,117.47 104.48,116.29 L104.48,76.57 C104.48,75.39 105.33,74.54 106.52,74.54 Z M11.72,0 C5.27,0 0,5.27 0,11.72 L0,180.17 C0,186.62 5.27,191.89 11.72,191.89 L236.47,191.89 C242.91,191.89 248.19,186.62 248.19,180.17 L248.19,11.72 C248.19,5.27 242.91,0 236.47,0 Z M11.72,5.29 L236.47,5.29 C240.07,5.29 242.89,8.11 242.89,11.72 L242.89,180.17 C242.89,183.78 240.07,186.6 236.47,186.6 L11.72,186.6 C8.11,186.6 5.29,183.78 5.29,180.17 L5.29,11.72 C5.29,8.11 8.11,5.29 11.72,5.29 Z" fill="none" stroke="currentColor" stroke-width="1.5"/></svg>