<svg xmlns="http://www.w3.org/2000/svg" viewBox="0 0 248.19 191.89" width="24" height="24"><path d="M143.43,163.31 L143.43,166.88 L123.4,166.88 L124.1,145.22 Z M100.87,159.88 L104.44,159.55 Z M116.1,146.5 Z M57.91,151.94 Z M61.73,151.94 Z M34.59,140.55 L34.59,136.97 L54.21,136.97 L54.21,139.87 L38.83,166.88 Z M217.47,156.19 Z M185.76,156.19 Z M29.02,30.03 L29.02,71.57 L49.53,71.57 L57.75,43.28 L73.9,99.63 L87.8,71.57 L115.84,71.57 L124.41,43.46 L141.57,99.9 L153.99,71.57 L182.32,71.57 L190.73,44.26 L202,76.75 L218.18,76.75 L218.18,30.03 Z M191.04,61.94 L186.38,77.07 L157.58,77.07 L140.64,115.73 L124.4,62.34 L119.91,77.07 L91.22,77.07 L72.53,114.79 L57.71,63.12 L53.66,77.07 L29.02,77.07 L29.02,126.46 L218.18,126.46 L218.18,82.25 L198.08,82.25 Z M11.72,0 C5.27,0 0,5.27 0,11.72 L0,180.17 C0,186.62 5.27,191.89 11.72,191.89 L236.47,191.89 C242.91,191.89 248.19,186.62 248.19,180.17 L248.19,11.72 C248.19,5.27 242.91,0 236.47,0 Z M11.72,5.29 L236.47,5.29 C240.07,5.29 242.89,8.11 242.89,11.72 L242.89,180.17 C242.89,183.78 240.07,186.6 236.47,186.6 L11.72,186.6 C8.11,186.6 5.29,183.78 5.29,180.17 L5.29,11.72 C5.29,8.11 8.11,5.29 11.72,5.29 Z" fill="none" stroke="currentColor" stroke-width="1.5"/></svg>