<svg xmlns="http://www.w3.org/2000/svg" viewBox="0 0 938.03 725.26" width="24" height="24"><path d="M293.08,40.66 L293.08,688.44 L310.08,688.44 L310.08,651.65 L890.94,651.65 L890.94,634.64 L726.55,634.64 L726.55,570.58 L890.94,570.58 L890.94,553.57 L839.32,553.57 L839.32,489.5 L890.94,489.5 L890.94,472.49 L310.08,472.49 L310.08,40.66 Z M624.34,83.09 C548.24,83.09 486.19,145.14 486.19,221.23 C486.19,251.09 495.75,278.78 511.95,301.41 L435.69,377.21 L467.67,409.38 L544,333.51 C566.66,349.78 594.41,359.38 624.34,359.38 C700.43,359.38 762.49,297.33 762.49,221.23 C762.49,145.14 700.43,83.09 624.34,83.09 Z M624.34,117.11 C682.05,117.11 728.47,163.52 728.47,221.23 C728.47,278.95 682.05,325.36 624.34,325.36 C566.63,325.36 520.21,278.95 520.21,221.23 C520.21,163.52 566.63,117.11 624.34,117.11 Z M62.07,146.32 L114.63,220.08 L59.78,298.43 L106.9,298.43 L138.12,251.3 L169.06,298.43 L218.47,298.43 L162.19,218.36 L213.75,146.32 L166.48,146.32 L138.12,188.14 L111.2,146.32 Z M220.34,419.65 L90.14,547.51 L89.86,495.07 L52.6,594.73 L233.04,451.73 Z M310.08,489.5 L370.85,489.5 L370.85,553.57 L310.08,553.57 Z M387.86,489.5 L597.41,489.5 L597.41,553.57 L387.86,553.57 Z M614.42,489.5 L822.31,489.5 L822.31,553.57 L614.42,553.57 Z M310.08,570.58 L485.27,570.58 L485.27,634.64 L310.08,634.64 Z M502.28,570.58 L709.54,570.58 L709.54,634.64 L502.28,634.64 Z M44.28,0 C19.92,0 0,19.92 0,44.28 L0,680.96 C0,705.33 19.92,725.26 44.28,725.26 L893.74,725.26 C918.1,725.26 938.03,705.33 938.03,680.96 L938.03,44.28 C938.03,19.92 918.1,0 893.74,0 Z M44.28,20 L893.74,20 C907.37,20 918.03,30.66 918.03,44.28 L918.03,680.96 C918.03,694.59 907.37,705.25 893.74,705.25 L44.28,705.25 C30.66,705.25 20,694.59 20,680.96 L20,44.28 C20,30.66 30.66,20 44.28,20 Z" fill="none" stroke="currentColor" stroke-width="1.5"/></svg>