<svg xmlns="http://www.w3.org/2000/svg" viewBox="0 0 1355.83 1048.29" width="24" height="24"><path d="M570.07,116.86 C562.7,116.88 555.22,117.13 547.65,117.61 L547.29,117.6 L546.2,117.7 C377.78,133.31 242.99,266.16 210.99,444.29 C174.5,458.96 141.88,480.33 117.4,508.79 C90.32,540.29 73.54,580.66 73.54,626.72 C73.54,681.26 93.26,732.71 137.03,768.81 C166.38,793.02 205.62,810.1 255.39,819.13 L223.05,851.55 L284.93,913.27 L350.2,847.84 C416.6,904.05 500.56,931.54 572.77,931.54 C677.9,931.54 770.1,880.62 830.64,814.57 C910.24,823.27 980.44,831.06 1055.03,825.66 L1055.37,825.66 L1056.01,825.61 L1056.13,825.6 C1132.96,819.46 1190.07,795.56 1228.04,758.96 C1266.03,722.34 1283.51,673.6 1283.51,623.31 C1283.57,580.36 1266.34,541.08 1238.08,509.3 C1211.7,479.63 1175.78,456.14 1134.1,439.32 C1115.87,394.83 1086.58,345.96 1036.84,314.67 L1036.3,314.33 L1036.02,314.18 C981.42,281.54 926.85,282.85 877.59,292.52 C826.77,209 722.36,119.57 577.69,116.91 C575.16,116.87 572.62,116.85 570.07,116.85 Z M555.83,155.67 L556.75,159.15 L555.77,155.67 C555.79,155.67 555.81,155.67 555.83,155.67 Z M570.44,160.35 C572.69,160.35 574.93,160.37 577.16,160.41 C712.3,163.14 807.55,252.44 848.19,327.31 C848.19,327.31 848.19,327.31 848.19,327.31 L855.96,341.78 L871.9,338 L871.81,338.03 C921.11,326.59 965.89,322.69 1014.32,351.73 C1055.81,377.9 1081.79,422.27 1097.76,463.97 L1101.25,473.07 L1110.32,476.49 L1110.35,476.51 C1150.57,491.51 1183.68,513.14 1206.14,538.39 C1228.61,563.66 1240.59,591.91 1240.55,623.27 L1240.55,623.29 L1240.55,623.3 C1240.55,663.72 1227.6,699.34 1198.41,727.47 C1169.26,755.58 1122.57,776.66 1052.8,782.24 C979.55,787.65 909.27,779.42 824.48,770.19 L824.47,770.19 L813.33,769 L805.98,777.54 L805.97,777.55 C753.21,838.98 667.96,888.07 572.77,888.07 C512.71,888.07 438.65,864.27 380.82,817.14 L444.35,753.45 C484.22,778.67 531.41,793.3 581.94,793.3 C724.26,793.3 840.22,677.33 840.22,535.01 C840.22,392.69 724.26,276.74 581.94,276.74 C439.62,276.74 323.67,392.69 323.67,535.01 C323.67,595.32 344.49,650.88 379.31,694.91 L293.62,780.81 C233.52,774.68 191.57,757.72 164.17,735.11 C130.61,707.42 116.5,671.21 116.5,626.73 C116.5,591.08 128.68,561.9 149.81,537.34 C170.91,512.8 201.37,493.34 236.9,480.72 L236.92,480.71 L249.06,476.37 L251.02,463.49 L251.02,463.47 C276.04,296.82 397.94,175.24 549.87,161.04 C556.82,160.59 563.68,160.36 570.44,160.35 Z M581.94,331.37 C694.74,331.37 785.6,422.22 785.6,535.01 C785.6,647.81 694.74,738.67 581.94,738.67 C469.14,738.67 378.29,647.81 378.29,535.01 C378.29,422.22 469.14,331.37 581.94,331.37 Z M463.46,417.68 L463.46,432.7 L463.46,648.95 L697.5,648.95 L697.5,417.68 Z M1130.59,443.27 L1130.82,443.35 L1130.9,443.56 C1130.83,443.53 1130.75,443.5 1130.68,443.47 C1130.65,443.4 1130.62,443.33 1130.59,443.27 Z M493.51,447.73 L667.45,447.73 L667.45,618.9 L493.51,618.9 Z M215.08,447.91 C215.07,448 215.05,448.09 215.03,448.18 C214.91,448.23 214.78,448.28 214.65,448.33 L214.65,448.31 L214.93,447.96 Z M64.01,28.9 L1291.82,28.9 C1311.52,28.9 1326.93,44.31 1326.93,64.01 L1326.93,984.27 C1326.93,1003.97 1311.52,1019.38 1291.82,1019.38 L64.01,1019.38 C44.31,1019.38 28.9,1003.97 28.9,984.27 L28.9,64.01 C28.9,44.31 44.31,28.9 64.01,28.9 Z M64.01,0 C28.8,0 0,28.8 0,64.01 L0,984.27 C0,1019.48 28.8,1048.29 64.01,1048.29 L1291.82,1048.29 C1327.03,1048.29 1355.83,1019.48 1355.83,984.27 L1355.83,64.01 C1355.83,28.8 1327.03,0 1291.82,0 Z" fill="none" stroke="currentColor" stroke-width="1.5"/></svg>