<svg xmlns="http://www.w3.org/2000/svg" viewBox="0 0 721.85 725.26" width="24" height="24"><path d="M387.39,156.19 C288.93,156.19 208.71,236.42 208.71,334.88 C208.71,376.6 223.11,415.04 247.2,445.5 L139.1,553.87 L181.91,596.57 L292.21,486.01 C319.79,503.45 352.44,513.57 387.39,513.57 C485.86,513.57 566.09,433.34 566.09,334.88 C566.09,236.42 485.86,156.19 387.39,156.19 Z M387.39,193.99 C465.43,193.99 528.29,256.84 528.29,334.88 C528.29,412.92 465.43,475.78 387.39,475.78 C309.35,475.78 246.5,412.92 246.5,334.88 C246.5,256.84 309.35,193.99 387.39,193.99 Z M305.42,253.7 L305.42,264.09 L305.42,413.7 L467.34,413.7 L467.34,253.7 Z M326.21,274.49 L446.55,274.49 L446.55,392.92 L326.21,392.92 Z M44.28,0 C19.92,0 0,19.92 0,44.28 L0,680.96 C0,705.33 19.92,725.26 44.28,725.26 L677.57,725.26 C701.93,725.26 721.85,705.33 721.85,680.96 L721.85,44.28 C721.85,19.92 701.93,0 677.57,0 Z M44.28,20 L677.57,20 C691.2,20 701.86,30.66 701.86,44.28 L701.86,680.96 C701.86,694.59 691.2,705.25 677.57,705.25 L44.28,705.25 C30.66,705.25 20,694.59 20,680.96 L20,44.28 C20,30.66 30.66,20 44.28,20 Z" fill="none" stroke="currentColor" stroke-width="1.5"/></svg>