<svg xmlns="http://www.w3.org/2000/svg" viewBox="0 0 3545.29 2741.12" width="24" height="24"><path d="M167.37,0 C75.3,0 0,75.3 0,167.37 L0,2573.72 C0,2665.8 75.3,2741.12 167.37,2741.12 L3377.92,2741.12 C3469.99,2741.12 3545.29,2665.8 3545.29,2573.72 L3545.29,167.37 C3545.29,75.3 3469.99,0 3377.92,0 Z M167.37,75.58 L3377.92,75.58 C3429.42,75.58 3469.71,115.87 3469.71,167.37 L3469.71,2573.72 C3469.71,2625.23 3429.42,2665.52 3377.92,2665.52 L167.37,2665.52 C115.87,2665.52 75.58,2625.23 75.58,2573.72 L75.58,167.37 C75.58,115.87 115.87,75.58 167.37,75.58 Z M1769.71,192.32 C1525.55,192.32 1372.34,413.45 1372.34,595.85 C1372.34,813.2 1442.02,863.98 1488.91,934.4 C1551.68,1028.69 1590.43,1194.3 1592.22,1303.43 L1952.62,1304.16 C1952.62,1200.47 1967.71,1046.83 2040.3,951.14 C2122.87,842.29 2161.32,781.14 2161.32,591.65 C2161.32,362.1 1987.77,192.32 1769.71,192.32 Z M881.33,244.14 L599.48,271.62 L732.85,521.43 L781.48,430.6 L1089.03,595.28 L1140.23,499.66 L832.69,334.98 Z M2652.33,244.14 L2700.97,334.98 L2393.43,499.66 L2444.63,595.28 L2752.18,430.6 L2800.81,521.43 L2934.18,271.62 Z M940.62,780.59 L940.62,883.63 L591.76,883.63 L591.76,992.09 L940.62,992.09 L940.62,1095.13 L1176.11,937.86 Z M2593.04,780.59 L2357.55,937.86 L2593.04,1095.13 L2593.04,992.09 L2941.9,992.09 L2941.9,883.63 L2593.04,883.63 Z M1089.03,1280.44 L781.48,1445.12 L732.85,1354.29 L599.48,1604.1 L881.33,1631.57 L832.69,1540.74 L1140.23,1376.06 Z M2444.63,1280.44 L2393.43,1376.06 L2700.97,1540.74 L2652.33,1631.57 L2934.18,1604.1 L2800.81,1354.29 L2752.18,1445.12 Z M1596.79,1392.27 C1576.41,1392.27 1559.29,1409.39 1559.29,1429.77 L1559.29,1616.38 C1559.29,1636.77 1576.41,1653.88 1596.79,1653.88 L1624.6,1653.88 C1630.48,1679.21 1645.19,1700.71 1665.81,1715.09 C1691.42,1732.96 1724.7,1740.92 1762.29,1740.92 C1803.97,1740.92 1837.51,1731.19 1862.66,1713.06 C1883.91,1697.74 1898.36,1676.84 1907.33,1653.88 L1936.87,1653.88 C1957.25,1653.88 1974.37,1636.77 1974.37,1616.38 L1974.37,1429.77 C1974.37,1409.39 1957.25,1392.27 1936.87,1392.27 Z M1604.65,1437.62 L1929.02,1437.62 L1929.02,1608.53 L1604.65,1608.53 Z M1671.64,1653.88 L1857.01,1653.88 C1851.55,1662.64 1844.71,1670.08 1836.14,1676.27 C1820.14,1687.8 1797.04,1695.57 1762.29,1695.57 C1731.26,1695.57 1707.14,1688.63 1691.77,1677.9 C1682.33,1671.32 1675.66,1663.7 1671.64,1653.88 Z M1817.61,1939.41 C1779.07,1939.41 1744.04,1945.92 1712.53,1958.94 C1681.02,1971.96 1657.06,1991.1 1640.66,2016.37 C1624.25,2041.37 1616.05,2068.32 1616.05,2097.22 C1616.05,2123.53 1622.69,2147.35 1635.97,2168.71 C1649.51,2189.8 1669.96,2207.51 1697.3,2221.83 C1718.39,2233.03 1755.24,2245.01 1807.85,2257.77 C1860.45,2270.27 1894.43,2279.52 1909.8,2285.51 C1933.76,2294.62 1950.94,2305.95 1961.36,2319.49 C1971.78,2332.77 1976.99,2348.4 1976.99,2366.37 C1976.99,2384.07 1971.52,2400.48 1960.58,2415.58 C1949.9,2430.43 1933.5,2442.15 1911.36,2450.74 C1889.23,2459.33 1863.71,2463.63 1834.8,2463.63 C1802.25,2463.63 1772.95,2458.03 1746.91,2446.83 C1720.87,2435.38 1701.6,2420.53 1689.1,2402.3 C1676.86,2383.81 1669.04,2360.25 1665.66,2331.6 L1594.17,2337.85 C1595.22,2376.13 1605.63,2410.51 1625.42,2440.97 C1645.48,2471.18 1672.95,2493.84 1707.85,2508.94 C1743,2524.05 1786.49,2531.6 1838.31,2531.6 C1879.2,2531.6 1915.92,2524.18 1948.47,2509.33 C1981.28,2494.23 2006.41,2473.27 2023.86,2446.44 C2041.31,2419.36 2050.03,2390.58 2050.03,2360.12 C2050.03,2329.39 2042.09,2302.3 2026.21,2278.87 C2010.32,2255.17 1985.71,2235.64 1952.38,2220.27 C1929.46,2209.85 1887.14,2197.75 1825.42,2183.94 C1763.97,2169.88 1725.94,2156.21 1711.36,2142.93 C1696.52,2129.65 1689.1,2112.72 1689.1,2092.15 C1689.1,2068.45 1699.51,2048.27 1720.35,2031.6 C1741.44,2014.67 1774.9,2006.21 1820.74,2006.21 C1864.75,2006.21 1897.95,2015.45 1920.35,2033.94 C1943,2052.43 1956.28,2079.78 1960.19,2115.97 L2032.85,2110.51 C2031.54,2076.91 2022.17,2046.83 2004.72,2020.27 C1987.27,1993.71 1962.27,1973.66 1929.72,1960.12 C1897.43,1946.31 1860.06,1939.41 1817.61,1939.41 Z M950.42,1949.18 L950.42,2521.83 L1023.47,2521.83 L1023.47,2034.33 L1189.1,2521.83 L1257.46,2521.83 L1423.86,2042.54 L1423.86,2521.83 L1496.91,2521.83 L1496.91,1949.18 L1394.96,1949.18 L1257.85,2347.62 C1244.04,2387.98 1233.89,2418.58 1227.38,2439.41 C1221.65,2420.66 1212.53,2392.41 1200.03,2354.65 L1064.49,1949.18 Z M2155.89,1949.18 L2155.89,2521.83 L2583.24,2521.83 L2583.24,2454.26 L2231.67,2454.26 L2231.67,2259.33 L2548.47,2259.33 L2548.47,2192.15 L2231.67,2192.15 L2231.67,2016.76 L2569.96,2016.76 L2569.96,1949.18 Z" fill="none" stroke="currentColor" stroke-width="1.5"/><path d="M1632.78,1543.12 L1904.06,1543.12 L1904.06,1573.74 L1632.78,1573.74 Z M1632.78,1471.85 L1904.06,1471.85 L1904.06,1502.47 L1632.78,1502.47 Z" fill="none" stroke="currentColor" stroke-width="1.5"/></svg>