<svg xmlns="http://www.w3.org/2000/svg" viewBox="0 0 938.03 725.26" width="24" height="24"><path d="M402.15,130.5 L402.15,130.5 C347.95,130.84 302.3,149.56 263.5,181.51 C212,225.94 192.68,274.65 182.77,322.36 C138.2,339.32 109.63,367.84 100.45,403.12 C91.99,447.75 109.06,489.95 151.24,515.65 C186.22,531.02 214.39,535.39 253.52,536.61 C272.72,555.45 292.02,569.14 320.81,581.53 C374.22,603.72 430.44,603.08 482.81,582.81 C512.29,573.33 538.87,551.97 563.14,529.21 C625.34,536.29 690.06,542.21 741.62,531.35 C774.28,523.23 801.71,509.05 819.94,488.06 C838.18,467.07 846.29,438.9 839.8,407.46 C833.33,379.76 818.94,360.44 801.68,346.73 C785.61,333.96 767.35,325.77 749.93,317.97 C739.17,290.99 717.1,264.2 697.27,250.7 C661.81,227.8 624.93,226.59 591.9,235.36 C565.35,191.22 522.72,154.5 460.07,136.67 C439.24,132.31 420.22,130.38 402.15,130.5 Z M402.25,152.95 C418.49,152.95 435.78,154.8 454.27,158.62 C514.73,175.95 553.03,210.95 576.55,253.66 C620.53,248.98 652.24,248.69 684.61,269.54 C699.53,279.74 723.32,308.74 730.71,330.2 C755.44,345.2 773.42,353.25 787.57,364.5 C801.69,375.71 812.3,389.67 817.6,412.16 C822.82,437.58 816.89,457 802.83,473.19 C788.78,489.35 765.72,501.94 736.79,509.18 C689.49,519.1 623.92,513.41 560.58,506.13 C527.03,532.46 500.73,553.25 475.82,561.25 C427.54,580.06 377.82,580.64 329.68,560.65 C329.67,560.65 329.66,560.65 329.65,560.65 C301.39,548.47 285.22,536.7 266.3,517.54 C218.4,513.2 194.33,509.66 162.45,495.87 C127.56,474.33 115.9,444.33 122.55,408.47 C130.14,379.83 152.94,355.9 196.11,341.11 C212.6,285.51 228.82,241.43 278.02,198.94 C313.54,169.72 353.2,152.97 402.25,152.95 Z M548.57,301.14 C514.17,301.14 484.48,321.74 471.19,351.24 L431.61,328.02 L431.61,369.63 L361.61,369.63 L361.61,328.02 L262.68,386.06 L361.61,443.92 L361.61,402.31 L431.61,402.31 L431.61,443.92 L471.21,420.75 C484.52,450.23 514.19,470.8 548.57,470.8 C595.34,470.8 633.4,432.74 633.4,385.97 C633.4,339.2 595.34,301.14 548.57,301.14 Z M548.57,314.37 C588.19,314.37 620.18,346.35 620.18,385.97 C620.18,425.59 588.19,457.57 548.57,457.57 C518.92,457.57 493.56,439.67 482.67,414.05 L530.54,386.06 L482.64,357.96 C493.51,332.31 518.9,314.37 548.57,314.37 Z M44.28,0 C19.92,0 0,19.92 0,44.28 L0,680.96 C0,705.33 19.92,725.26 44.28,725.26 L893.74,725.26 C918.1,725.26 938.03,705.33 938.03,680.96 L938.03,44.28 C938.03,19.92 918.1,0 893.74,0 Z M44.28,20 L893.74,20 C907.37,20 918.03,30.66 918.03,44.28 L918.03,680.96 C918.03,694.59 907.37,705.25 893.74,705.25 L44.28,705.25 C30.66,705.25 20,694.59 20,680.96 L20,44.28 C20,30.66 30.66,20 44.28,20 Z" fill="none" stroke="currentColor" stroke-width="1.5"/></svg>