<svg xmlns="http://www.w3.org/2000/svg" viewBox="0 0 721.85 725.26" width="24" height="24"><path d="M207.06,215.11 L207.06,287.97 L240.12,287.97 L183.29,400.23 L113.21,400.23 L113.21,473.08 L233.56,473.08 L233.56,408.64 L317.13,357.33 L341.35,400.23 L310.02,400.23 L310.02,473.08 L430.37,473.08 L430.37,400.23 L399.54,400.23 L423.64,357.57 L506.83,409.54 L506.83,473.08 L627.18,473.08 L627.18,400.23 L558.42,400.23 L500.37,287.97 L534.84,287.97 L534.84,215.11 L414.48,215.11 L414.48,279.8 L370.71,306.68 L327.42,279.64 L327.42,215.11 Z M257.07,287.97 L277.97,287.97 L309.69,344.15 L218.37,400.23 L200.23,400.23 Z M295.33,287.97 L312.22,287.97 L356.32,315.52 L322.59,336.24 Z M430.09,287.97 L445.6,287.97 L418.25,336.38 L385.04,315.63 Z M462.96,287.97 L483.35,287.97 L541.39,400.23 L520.45,400.23 L431.08,344.39 Z M370.64,324.47 L410.8,349.55 L382.18,400.23 L358.71,400.23 L330.02,349.41 Z M44.28,0 C19.92,0 0,19.92 0,44.28 L0,680.96 C0,705.33 19.92,725.26 44.28,725.26 L677.57,725.26 C701.93,725.26 721.85,705.33 721.85,680.96 L721.85,44.28 C721.85,19.92 701.93,0 677.57,0 Z M44.28,20 L677.57,20 C691.2,20 701.86,30.66 701.86,44.28 L701.86,680.96 C701.86,694.59 691.2,705.25 677.57,705.25 L44.28,705.25 C30.66,705.25 20,694.59 20,680.96 L20,44.28 C20,30.66 30.66,20 44.28,20 Z" fill="none" stroke="currentColor" stroke-width="1.5"/></svg>