<svg xmlns="http://www.w3.org/2000/svg" viewBox="0 0 248.19 191.89" width="24" height="24"><path d="M171.83,54 L154.64,23.12 L137.54,54 L150.67,54 L150.67,90.36 L158.49,90.36 L158.49,54 Z M110.94,54 L93.75,23.12 L76.65,54 L89.78,54 L89.78,90.36 L97.59,90.36 L97.59,54 Z M195.46,117.44 L219.86,133.75 L195.46,150.72 L195.46,139.43 L168.7,139.43 L168.7,128.61 L195.46,128.61 Z M53.22,117.44 L28.83,133.75 L53.22,150.72 L53.22,139.43 L79.99,139.43 L79.99,128.61 L53.22,128.61 Z M125.48,101.66 C106.62,101.66 91.25,117.03 91.25,135.9 C91.25,154.77 106.62,170.13 125.48,170.13 C144.35,170.13 159.72,154.77 159.72,135.9 C159.72,117.03 144.35,101.66 125.48,101.66 Z M125.48,108.66 C140.57,108.66 152.72,120.81 152.72,135.9 C152.72,150.98 140.57,163.13 125.48,163.13 C110.4,163.13 98.25,150.98 98.25,135.9 C98.25,120.81 110.4,108.66 125.48,108.66 Z M11.72,0 C5.27,0 0,5.27 0,11.72 L0,180.17 C0,186.62 5.27,191.89 11.72,191.89 L236.47,191.89 C242.91,191.89 248.19,186.62 248.19,180.17 L248.19,11.72 C248.19,5.27 242.91,0 236.47,0 Z M11.72,5.29 L236.47,5.29 C240.07,5.29 242.89,8.11 242.89,11.72 L242.89,180.17 C242.89,183.78 240.07,186.6 236.47,186.6 L11.72,186.6 C8.11,186.6 5.29,183.78 5.29,180.17 L5.29,11.72 C5.29,8.11 8.11,5.29 11.72,5.29 Z" fill="none" stroke="currentColor" stroke-width="1.5"/></svg>