<svg xmlns="http://www.w3.org/2000/svg" viewBox="0 0 190.99 279.26" width="24" height="24"><path d="M33.61,153.29 L33.61,183.45 L37.56,183.45 L37.56,171.13 L44.27,171.13 C47.21,171.13 53.62,169.14 53.62,162.14 C53.62,155.2 47.46,153.29 44.02,153.29 Z M37.56,156.29 L43.53,156.29 C46.55,156.29 49.14,158.68 49.14,162.14 C49.14,165.15 46.85,168.13 43.78,168.13 L37.56,168.13 Z M26.37,144.86 C22.38,144.86 19.11,148.13 19.11,152.12 L19.11,183.57 C19.11,187.56 22.38,190.83 26.37,190.83 L58.97,190.83 C62.96,190.83 66.23,187.56 66.23,183.57 L66.23,152.12 C66.23,148.13 62.96,144.86 58.97,144.86 Z M26.37,148.36 L58.97,148.36 C61.08,148.36 62.73,150.01 62.73,152.12 L62.73,183.57 C62.73,185.68 61.08,187.33 58.97,187.33 L26.37,187.33 C24.26,187.33 22.61,185.68 22.61,183.57 L22.61,152.12 C22.61,150.01 24.26,148.36 26.37,148.36 Z M76.69,104.25 L55.28,125.53 L76.69,146.8 L76.69,132.53 L106.02,132.53 L106.02,211.91 C106.02,221.31 103.71,230.39 99.07,236.64 C94.43,242.9 87.81,246.97 76.14,246.97 C70.7,246.97 64.63,244.96 59.85,239.93 C55.83,235.7 52.45,229.15 51.48,218.91 L65.47,218.91 L44.19,197.5 L22.91,218.91 L37.44,218.91 C38.51,232.39 43.09,242.62 49.7,249.57 C57.29,257.57 67.2,260.97 76.14,260.97 C91.45,260.97 103.26,254.5 110.32,244.98 C117.38,235.46 120.02,223.51 120.02,211.91 L120.02,132.53 L148.66,132.53 L148.66,146.8 L170.07,125.53 L148.66,104.25 L148.66,118.53 L76.69,118.53 Z M95.58,35.9 L103.39,40.77 L97.82,50.62 L93.26,50.62 L87.69,40.74 Z M113.52,28.8 L117.49,28.8 L128.77,50.62 L124.7,50.62 L107.33,39.77 Z M107.14,28.8 L110.15,28.8 L104.83,38.21 L98.38,34.18 Z M80.95,28.8 L84.23,28.8 L92.8,34.16 L86.24,38.18 Z M73.51,28.8 L77.57,28.8 L83.74,39.72 L65.99,50.62 L62.46,50.62 Z M63.79,14.64 L63.79,28.8 L70.22,28.8 L59.17,50.62 L45.55,50.62 L45.55,64.78 L68.94,64.78 L68.94,52.25 L85.18,42.28 L89.89,50.62 L83.8,50.62 L83.8,64.78 L107.19,64.78 L107.19,50.62 L101.2,50.62 L105.88,42.33 L122.05,52.43 L122.05,64.78 L145.44,64.78 L145.44,50.62 L132.07,50.62 L120.79,28.8 L127.49,28.8 L127.49,14.64 L104.1,14.64 L104.1,27.22 L95.6,32.44 L87.18,27.18 L87.18,14.64 Z M11.72,0 C5.27,0 0,5.27 0,11.72 L0,67.91 C0,74.36 5.27,79.63 11.72,79.63 L179.27,79.63 C185.72,79.63 190.99,74.36 190.99,67.91 L190.99,11.72 C190.99,5.27 185.72,0 179.27,0 Z M11.72,5.29 L179.27,5.29 C182.88,5.29 185.7,8.11 185.7,11.72 L185.7,67.91 C185.7,71.52 182.88,74.34 179.27,74.34 L11.72,74.34 C8.11,74.34 5.29,71.52 5.29,67.91 L5.29,11.72 C5.29,8.11 8.11,5.29 11.72,5.29 Z M11.72,87.37 C5.27,87.37 0,92.64 0,99.09 L0,267.55 C0,273.99 5.27,279.26 11.72,279.26 L179.27,279.26 C185.72,279.26 190.99,273.99 190.99,267.55 L190.99,99.09 C190.99,92.64 185.72,87.37 179.27,87.37 Z M11.72,92.66 L179.27,92.66 C182.88,92.66 185.7,95.48 185.7,99.09 L185.7,267.55 C185.7,271.15 182.88,273.97 179.27,273.97 L11.72,273.97 C8.11,273.97 5.29,271.15 5.29,267.55 L5.29,99.09 C5.29,95.48 8.11,92.66 11.72,92.66 Z" fill="none" stroke="currentColor" stroke-width="1.5"/></svg>