<svg xmlns="http://www.w3.org/2000/svg" viewBox="0 0 190.99 279.26" width="24" height="24"><path d="M71.74,189.93 C79.6,214.68 71.14,221.07 63.92,225.64 C58.22,229.26 53.27,231.73 49.71,232.86 C47.92,233.42 46.5,233.63 45.64,233.6 C44.79,233.57 44.66,233.4 44.65,233.39 C44.64,233.37 44.47,233.25 44.46,232.39 C44.44,231.54 44.67,230.11 45.26,228.34 C46.44,224.8 48.99,219.88 52.69,214.24 C57.38,207.1 63.89,198.74 71.74,189.93 Z M119.24,189.91 C127.09,198.73 133.61,207.09 138.3,214.24 C142,219.88 144.55,224.8 145.73,228.34 C146.32,230.11 146.55,231.54 146.54,232.39 C146.52,233.25 146.35,233.38 146.34,233.39 C146.33,233.4 146.2,233.57 145.35,233.6 C144.49,233.63 143.07,233.42 141.28,232.86 C137.72,231.73 132.77,229.26 127.07,225.64 C119.85,221.07 111.39,214.68 102.46,206.96 Z M45.65,133.04 C46.5,133.01 47.92,133.22 49.71,133.78 C53.27,134.9 58.22,137.38 63.92,141 C71.14,145.57 79.6,151.96 88.53,159.68 C63.9,167.91 57.38,159.55 52.69,152.4 C48.99,146.76 46.44,141.84 45.26,138.3 C44.67,136.52 44.44,135.1 44.46,134.25 C44.47,133.39 44.64,133.26 44.65,133.25 C44.66,133.24 44.79,133.07 45.65,133.04 Z M145.35,133.04 C146.2,133.07 146.33,133.23 146.34,133.25 C146.35,133.26 146.52,133.39 146.54,134.25 C146.55,135.1 146.32,136.52 145.73,138.3 C144.55,141.84 142,146.76 138.3,152.4 C133.61,159.54 127.1,167.89 119.25,176.71 C111.39,151.96 119.85,145.57 127.07,140.99 C132.77,137.38 137.72,134.9 141.28,133.78 C143.06,133.22 144.49,133.01 145.35,133.04 Z M95.75,115.15 L82.95,127.39 L92.01,127.39 L92.01,153.42 C83.28,145.96 74.97,139.71 67.67,135.08 C61.66,131.27 56.36,128.54 51.82,127.1 C49.54,126.38 47.45,125.97 45.41,126.04 C43.36,126.11 41.22,126.76 39.66,128.34 C38.11,129.91 37.5,132.07 37.46,134.11 C37.42,136.16 37.86,138.24 38.61,140.51 C40.12,145.03 42.94,150.29 46.84,156.24 C51.5,163.34 57.73,171.38 65.15,179.83 L39.57,179.83 L39.57,170.77 L27.33,183.57 L39.57,195.86 L39.57,187.46 L64.57,187.46 C57.4,195.67 51.38,203.48 46.84,210.4 C42.94,216.35 40.12,221.61 38.62,226.13 C37.86,228.39 37.42,230.48 37.46,232.52 C37.49,234.57 38.11,236.72 39.66,238.3 C41.21,239.87 43.36,240.52 45.4,240.59 C47.45,240.66 49.54,240.25 51.81,239.53 C56.36,238.1 61.66,235.36 67.67,231.55 C74.97,226.92 83.28,220.68 92.01,213.21 L92.01,239.24 L82.95,239.24 L95.75,251.49 L108.04,239.24 L99.64,239.24 L99.64,213.77 C108.13,220.99 116.2,227.04 123.32,231.56 C129.33,235.36 134.63,238.1 139.18,239.54 C141.45,240.25 143.54,240.67 145.59,240.6 C147.63,240.53 149.78,239.88 151.33,238.3 C152.88,236.73 153.49,234.57 153.53,232.52 C153.57,230.48 153.13,228.39 152.38,226.13 C150.87,221.61 148.05,216.35 144.15,210.4 C139.62,203.49 133.59,195.67 126.42,187.46 L151.42,187.46 L151.42,195.86 L163.66,183.57 L151.42,170.77 L151.42,179.83 L125.84,179.83 C133.26,171.38 139.5,163.34 144.15,156.24 C148.05,150.29 150.87,145.03 152.37,140.51 C153.13,138.24 153.57,136.16 153.53,134.11 C153.49,132.07 152.88,129.91 151.33,128.34 C149.78,126.76 147.63,126.11 145.58,126.04 C143.54,125.97 141.45,126.39 139.18,127.1 C134.63,128.54 129.33,131.27 123.32,135.08 C116.2,139.6 108.13,145.65 99.64,152.87 L99.64,127.39 L108.04,127.39 Z M95.8,41.74 L126.42,53.71 L126.42,55.93 L64.57,55.93 L64.57,53.95 Z M64.57,23.65 L126.42,23.65 L126.42,26.55 L95.8,38.52 L64.57,26.31 Z M36.12,15.11 L36.12,29.19 L63.68,29.19 L91.68,40.13 L64.57,50.73 L64.57,50.48 L36.12,50.48 L36.12,64.56 L64.57,64.56 L64.57,58.93 L126.42,58.93 L126.42,64.56 L154.87,64.56 L154.87,50.48 L126.42,50.48 L126.42,50.49 L99.92,40.13 L127.93,29.19 L154.87,29.19 L154.87,15.11 L126.42,15.11 L126.42,20.65 L64.57,20.65 L64.57,15.11 Z M11.72,92.66 L179.27,92.66 C182.88,92.66 185.7,95.48 185.7,99.09 L185.7,267.55 C185.7,271.15 182.88,273.97 179.27,273.97 L11.72,273.97 C8.11,273.97 5.29,271.15 5.29,267.55 L5.29,99.09 C5.29,95.48 8.11,92.66 11.72,92.66 Z M11.72,87.37 C5.27,87.37 0,92.64 0,99.09 L0,267.55 C0,273.99 5.27,279.26 11.72,279.26 L179.27,279.26 C185.72,279.26 190.99,273.99 190.99,267.55 L190.99,99.09 C190.99,92.64 185.72,87.37 179.27,87.37 Z M11.72,5.29 L179.27,5.29 C182.88,5.29 185.7,8.11 185.7,11.72 L185.7,67.91 C185.7,71.52 182.88,74.34 179.27,74.34 L11.72,74.34 C8.11,74.34 5.29,71.52 5.29,67.91 L5.29,11.72 C5.29,8.11 8.11,5.29 11.72,5.29 Z M11.72,0 C5.27,0 0,5.27 0,11.72 L0,67.91 C0,74.36 5.27,79.63 11.72,79.63 L179.27,79.63 C185.72,79.63 190.99,74.36 190.99,67.91 L190.99,11.72 C190.99,5.27 185.72,0 179.27,0 Z" fill="none" stroke="currentColor" stroke-width="1.5"/></svg>