<svg xmlns="http://www.w3.org/2000/svg" viewBox="0 0 194.27 205.15" width="24" height="24"><path d="M137.62,101.4 Z" fill="none" stroke="currentColor" stroke-width="1.5"/><rect x="0" y="0" width="0" height="0" fill="none" stroke="currentColor"/><path d="M103.23,183.8 L103.23,189.01 L111.11,189.01 L111.11,183.8 Z M91.51,183.8 L91.51,189.01 L99.39,189.01 L99.39,183.8 Z M79.8,183.8 L79.8,189.01 L87.68,189.01 L87.68,183.8 Z M103.23,173.79 L103.23,179 L111.11,179 L111.11,173.79 Z M91.51,173.79 L91.51,179 L99.39,179 L99.39,173.79 Z M79.8,173.79 L79.8,179 L87.68,179 L87.68,173.79 Z M103.23,163.78 L103.23,169 L111.11,169 L111.11,163.78 Z M91.51,163.78 L91.51,169 L99.39,169 L99.39,163.78 Z M79.8,163.78 L79.8,169 L87.68,169 L87.68,163.78 Z M96.15,157.1 C111.26,157.11 125.98,158.22 140,160.42 C136.19,181.89 117.47,198.15 94.89,198.15 C72.27,198.15 53.54,181.85 49.76,160.33 C65.41,158.17 80.98,157.09 96.15,157.1 Z M85.47,6 L88.89,6 L88.89,28.05 L91.54,28.05 L91.54,6 L94,6 L94,28.05 L96.64,28.05 L96.64,6 L99.1,6 L99.1,28.05 L101.75,28.05 L101.75,6 L107.02,6 C120.97,60.31 157.87,108.16 187,134.68 L183.43,142.43 L164.14,131.78 L162.86,134.1 L182.32,144.84 L181.28,147.08 L161.67,136.25 L160.39,138.57 L180.17,149.49 L179.14,151.73 L159.21,140.72 L157.93,143.03 L178.03,154.14 L174.27,162.3 C129.58,148.24 74.44,147.64 20.34,159.57 L16.77,152.5 L36.56,141.56 L35.28,139.25 L15.57,150.13 L14.47,147.94 L34.1,137.1 L32.82,134.78 L13.27,145.57 L12.16,143.38 L31.63,132.63 L30.35,130.32 L10.97,141.02 L7.29,133.72 C48.33,92.52 74.97,46.82 85.47,6 Z M80.87,0 L80.31,2.29 C70.44,42.79 43.57,89.36 1.55,131.06 L0,132.59 L17.06,166.4 L19.35,165.88 C27.16,164.1 35.01,162.6 42.84,161.36 C47.14,186.2 68.83,205.15 94.89,205.15 C120.85,205.15 142.5,186.32 146.9,161.6 C156.67,163.42 166.07,165.8 174.98,168.73 L177.53,169.57 L194.27,133.23 L192.62,131.75 C163.71,105.95 125.52,56.79 112.22,2.29 L111.66,0 Z" fill="none" stroke="currentColor" stroke-width="1.5"/></svg>