<svg xmlns="http://www.w3.org/2000/svg" viewBox="0 0 190.99 191.89" width="24" height="24"><path d="M93.58,142.68 L86.84,155.35 Z M65.62,142.68 L58.88,155.35 Z M121.54,142.68 L114.79,155.35 Z M79.6,119.26 L72.86,131.93 Z M51.64,119.26 L44.9,131.93 Z M107.56,119.26 L100.81,131.93 Z M135.52,119.26 L128.77,131.93 Z M104.93,26.84 C102.43,26.88 99.89,27.14 97.38,27.65 C85.8,30.67 78.35,36.99 76.49,47.5 C68.17,43.1 60.01,44.13 54.98,47.92 C48.84,52.89 46.96,59.07 47.8,64.84 C33.04,64.7 22.93,74.51 22.93,89.56 C22.93,99.31 28.65,115.3 47.11,115.3 L139.02,115.27 C155.77,115.27 163.14,108.75 164.02,97.83 C165.37,88.37 160.46,78.26 150.03,76.14 C150,72.35 149.13,70.69 146.91,67.82 C144.59,65.38 141.78,64.55 138.83,64.7 C140.13,56.44 140.39,46.87 132.21,37.57 C126.14,30.78 115.79,26.68 104.93,26.84 Z M96.79,53.4 L118.81,58.34 L118.81,75.98 C118.81,88.32 109.95,101.77 97.41,106.16 L96.78,106.38 L96.16,106.16 C85.54,102.43 74.76,91.83 74.76,75.98 L74.76,59.84 L74.76,58.34 Z M96.79,57.25 L92.51,58.21 L92.53,60.32 L85.31,61.94 L85.34,59.82 L78.52,61.35 L78.52,75.98 C78.52,89.8 87.68,98.88 96.77,102.34 C107.2,98.33 115.05,86.25 115.05,75.98 L115.05,61.35 L108.23,59.82 L108.27,61.94 L101.04,60.32 L101.06,58.21 Z M96.71,64.64 L108.13,67.94 L87.62,88.99 C85.15,85.24 83.45,80.29 83.45,73.95 L83.31,67.99 Z M110.26,70.47 L110.25,73.95 C110.25,84.38 103.81,93.58 96.85,97.06 C94.43,95.92 91.87,94.14 89.64,91.63 Z M11.72,5.29 L179.27,5.29 C182.88,5.29 185.7,8.11 185.7,11.72 L185.7,180.17 C185.7,183.78 182.88,186.6 179.27,186.6 L11.72,186.6 C8.11,186.6 5.29,183.78 5.29,180.17 L5.29,11.72 C5.29,8.11 8.11,5.29 11.72,5.29 Z M11.72,0 C5.27,0 0,5.27 0,11.72 L0,180.17 C0,186.62 5.27,191.89 11.72,191.89 L179.27,191.89 C185.72,191.89 190.99,186.62 190.99,180.17 L190.99,11.72 C190.99,5.27 185.72,0 179.27,0 Z" fill="none" stroke="currentColor" stroke-width="1.5"/></svg>