<svg xmlns="http://www.w3.org/2000/svg" viewBox="0 0 248.19 191.89" width="24" height="24"><path d="M102.24,54.02 L106.12,53.5 L110.32,44.01 L102.63,38.84 Z M98.04,58.63 L98.04,62.35 L77.18,62.35 L77.91,39.79 Z M67.73,62.35 L63.85,62.35 L63.85,37.66 L56.1,38.58 L67.73,30.66 Z M37.73,66.9 L37.73,63.02 L32.22,52.86 L37.73,47.41 L37.73,27.88 L40.02,27.88 L40.02,29.73 L44.43,38.11 L40.02,44.18 L40.02,66.9 Z M37.73,32.96 Z M40.02,59.75 Z M84.9,134.43 L109.02,134.43 L109.02,158.23 L84.9,158.23 Z M53.41,134.43 L77.54,134.43 L77.54,158.23 L53.41,158.23 Z M21.93,134.43 L46.05,134.43 L46.05,158.23 L21.93,158.23 Z M84.9,103.33 L109.02,103.33 L109.02,127.14 L84.9,127.14 Z M53.41,103.33 L77.54,103.33 L77.54,127.14 L53.41,127.14 Z M21.93,103.33 L46.05,103.33 L46.05,127.14 L21.93,127.14 Z M84.9,72.23 L109.02,72.23 L109.02,96.04 L84.9,96.04 Z M53.41,72.23 L77.54,72.23 L77.54,96.04 L53.41,96.04 Z M21.93,72.23 L46.05,72.23 L46.05,96.04 L21.93,96.04 Z M138.14,143.06 L227,143.06 L227,158.48 L138.14,158.48 Z M145.58,31.63 L219.65,31.63 C223.75,31.63 227,34.93 227,39.02 L227,127.22 C227,131.32 223.75,134.61 219.65,134.61 L145.58,134.61 C141.49,134.61 138.14,131.32 138.14,127.22 L138.14,39.02 C138.14,34.93 141.49,31.63 145.58,31.63 Z M11.72,0 C5.27,0 0,5.27 0,11.72 L0,180.17 C0,186.62 5.27,191.89 11.72,191.89 L236.47,191.89 C242.91,191.89 248.19,186.62 248.19,180.17 L248.19,11.72 C248.19,5.27 242.91,0 236.47,0 Z M11.72,5.29 L236.47,5.29 C240.07,5.29 242.89,8.11 242.89,11.72 L242.89,180.17 C242.89,183.78 240.07,186.6 236.47,186.6 L11.72,186.6 C8.11,186.6 5.29,183.78 5.29,180.17 L5.29,11.72 C5.29,8.11 8.11,5.29 11.72,5.29 Z" fill="none" stroke="currentColor" stroke-width="1.5"/></svg>