<svg xmlns="http://www.w3.org/2000/svg" viewBox="0 0 640.93 561.71" width="24" height="24"><path d="M260.39,0 L183.04,77.14 L183.32,103.65 L141.04,103.65 L96,257.29 L59.83,257.29 C26.78,257.29 0,284.08 0,317.12 L0,501.88 C0,534.92 26.78,561.71 59.83,561.71 L581.1,561.71 C614.14,561.71 640.93,534.92 640.93,501.88 L640.93,317.12 C640.93,284.08 614.14,257.29 581.1,257.29 L545.05,257.29 L501.03,103.65 L458.66,103.65 L458.66,0 Z M260.3,8.94 L450.31,8.94 L450.31,256.68 L191.54,256.68 L191.54,78.4 L260.3,78.4 Z M237.4,99.38 L237.4,112.45 L398.43,112.45 L398.43,99.38 Z M237.4,149.15 L237.4,162.22 L398.43,162.22 L398.43,149.15 Z M237.4,198.93 L237.4,212 L398.43,212 L398.43,198.93 Z M59.83,268.63 L581.1,268.63 C608.06,268.63 629.59,290.16 629.59,317.12 L629.59,501.88 C629.59,528.84 608.06,550.37 581.1,550.37 L59.83,550.37 C32.87,550.37 11.34,528.84 11.34,501.88 L11.34,317.12 C11.34,290.16 32.87,268.63 59.83,268.63 Z M550.62,316.81 Z M40.57,403.21 L40.57,416.28 L604.3,416.28 L604.3,403.21 Z" fill="none" stroke="currentColor" stroke-width="1.5"/></svg>