<svg xmlns="http://www.w3.org/2000/svg" viewBox="0 0 1816.8 1592.24" width="24" height="24"><path d="M1647.2,729.33 L1545.01,729.33 L1420.25,293.82 L1300.14,293.82 L1300.14,0 L738.12,0 L518.85,218.67 L519.66,293.82 L399.78,293.82 L272.13,729.33 L169.6,729.33 C75.92,729.33 0,805.25 0,898.93 L0,1422.64 C0,1516.32 75.92,1592.24 169.6,1592.24 L1647.2,1592.24 C1740.88,1592.24 1816.8,1516.32 1816.8,1422.64 L1816.8,898.93 C1816.8,805.25 1740.88,729.33 1647.2,729.33 L1647.2,729.33 Z" fill="none" stroke="currentColor" stroke-width="1.5"/><path d="M1647.2,761.48 L169.6,761.48 C93.17,761.48 32.14,822.5 32.14,898.93 L32.14,1422.64 C32.14,1499.07 93.17,1560.1 169.6,1560.1 L1647.2,1560.1 C1723.63,1560.1 1784.66,1499.07 1784.66,1422.64 L1784.66,898.93 C1784.66,822.5 1723.63,761.48 1647.2,761.48 Z M1484.29,974.53 C1484.29,932.28 1518.55,898.03 1560.8,898.03 C1581.92,898.03 1601.05,906.6 1614.89,920.44 C1628.73,934.28 1637.3,953.42 1637.3,974.54 C1637.3,1016.79 1603.05,1051.04 1560.8,1051.04 L1560.79,1051.04 C1518.54,1051.04 1484.29,1016.79 1484.29,974.54 L1484.29,974.54 Z M1712.97,1180.01 L114.99,1180.01 L114.99,1142.96 L1712.97,1142.96 L1712.97,1180.01 Z M737.86,25.34 L737.86,222.23 L542.95,222.23 L542.95,727.59 L1276.48,727.59 L1276.48,25.34 L737.86,25.34 Z M1129.4,600.94 L672.95,600.94 L672.95,563.9 L1129.4,563.9 L1129.4,600.94 Z M1129.4,459.85 L672.95,459.85 L672.95,422.8 L1129.4,422.8 L1129.4,459.85 Z M1129.4,318.76 L672.95,318.76 L672.95,281.7 L1129.4,281.7 L1129.4,318.76 Z" fill="none" stroke="currentColor" stroke-width="1.5"/></svg>