<svg xmlns="http://www.w3.org/2000/svg" viewBox="0 0 248.19 191.89" width="24" height="24"><path d="M97.29,123.2 L97.29,70.18 L141.79,96.81 Z M85.65,130 L81.28,125.69 L52.46,154.91 L56.82,159.21 L41.2,162.11 L43.92,146.48 L48.3,150.8 L77.12,121.58 L72.74,117.27 L88.42,114.23 Z M85.72,63.42 L81.35,67.73 L52.53,38.51 L56.89,34.21 L41.28,31.31 L43.99,46.94 L48.37,42.62 L77.19,71.84 L72.81,76.15 L88.49,79.19 Z M75.34,87.69 L75.34,93.83 L34.3,93.83 L34.3,87.71 L21.27,96.79 L34.3,105.83 L34.3,99.67 L75.34,99.67 L75.34,105.82 L88.52,96.79 Z M11.72,5.29 L236.47,5.29 C240.07,5.29 242.89,8.11 242.89,11.72 L242.89,180.17 C242.89,183.78 240.07,186.6 236.47,186.6 L11.72,186.6 C8.11,186.6 5.29,183.78 5.29,180.17 L5.29,11.72 C5.29,8.11 8.11,5.29 11.72,5.29 Z M11.72,0 C5.27,0 0,5.27 0,11.72 L0,180.17 C0,186.62 5.27,191.89 11.72,191.89 L236.47,191.89 C242.91,191.89 248.19,186.62 248.19,180.17 L248.19,11.72 C248.19,5.27 242.91,0 236.47,0 Z M203.33,79.66 L203.33,91.14 L175.66,91.14 L175.66,79.66 L151.26,96.68 L175.66,113.6 L175.66,102.08 L203.33,102.08 L203.33,113.6 L228,96.68 Z" fill="none" stroke="currentColor" stroke-width="1.5"/></svg>