<svg xmlns="http://www.w3.org/2000/svg" viewBox="0 0 248.19 191.89" width="24" height="24"><path d="M194.79,63.36 L194.45,60.45 L193.18,38.02 L196.52,38.02 L200.32,48.62 L206.84,38.02 L209.94,38.02 L202.98,56.63 Z M183.12,56.32 L183.12,38.02 L185.91,38.02 L185.91,40.8 L191.99,41.49 L186.22,56.32 Z M175.45,54.06 L163,43.24 L178.33,48.65 L176.07,56.32 Z M175.19,47.14 Z M155.74,56.32 L155.74,54.01 L155.54,31.07 L158.62,31.07 L158.62,56.32 Z M145.94,47.19 Z M124.24,56.32 L124.24,38.02 L127.03,38.02 L127.03,40.63 L139.1,56.32 L136,56.32 L136,45.19 L127.34,56.32 Z M103.45,47.17 Z M106.63,47.17 Z M98.9,49.62 L101.95,50.01 L98.64,43.86 Z M79.85,50.43 L83.05,50.82 L69.5,47.96 Z M69.67,45.41 L79.88,45.41 Z M43.02,48.2 L46.17,47.93 L59.16,38.42 Z M207.61,126.52 L183.87,143.41 L207.61,160.3 L207.61,148.81 L234.84,148.81 L234.84,138.01 L207.61,138.01 Z M40.81,126.52 L40.81,138.01 L13.58,138.01 L13.58,148.81 L40.81,148.81 L40.81,160.3 L64.54,143.41 Z M152.47,85.98 C137.14,125.14 133.57,134.99 133.57,144.74 L133.57,161.39 L171.37,161.39 L171.37,144.74 C171.37,134.88 166.91,125.42 160.99,117.95 Z M95.98,85.98 C80.65,125.14 77.08,134.99 77.08,144.74 L77.08,161.39 L114.88,161.39 L114.88,144.74 C114.88,134.88 110.42,125.42 104.5,117.95 Z M211.1,81.15 L211.1,92.64 L183.87,92.64 L183.87,103.43 L211.1,103.43 L211.1,114.92 L234.84,98.04 Z M37.32,81.15 L13.58,98.04 L37.32,114.92 L37.32,103.43 L64.54,103.43 L64.54,92.64 L37.32,92.64 Z M11.72,0 C5.27,0 0,5.27 0,11.72 L0,180.17 C0,186.62 5.27,191.89 11.72,191.89 L236.47,191.89 C242.91,191.89 248.19,186.62 248.19,180.17 L248.19,11.72 C248.19,5.27 242.91,0 236.47,0 Z M11.72,5.29 L236.47,5.29 C240.07,5.29 242.89,8.11 242.89,11.72 L242.89,180.17 C242.89,183.78 240.07,186.6 236.47,186.6 L11.72,186.6 C8.11,186.6 5.29,183.78 5.29,180.17 L5.29,11.72 C5.29,8.11 8.11,5.29 11.72,5.29 Z" fill="none" stroke="currentColor" stroke-width="1.5"/></svg>