<svg xmlns="http://www.w3.org/2000/svg" viewBox="0 0 190.99 191.89" width="24" height="24"><path d="M11.72,5.29 L179.27,5.29 C182.88,5.29 185.7,8.11 185.7,11.72 L185.7,180.17 C185.7,183.78 182.88,186.6 179.27,186.6 L11.72,186.6 C8.11,186.6 5.29,183.78 5.29,180.17 L5.29,11.72 C5.29,8.11 8.11,5.29 11.72,5.29 Z M11.72,0 C5.27,0 0,5.27 0,11.72 L0,180.17 C0,186.62 5.27,191.89 11.72,191.89 L179.27,191.89 C185.72,191.89 190.99,186.62 190.99,180.17 L190.99,11.72 C190.99,5.27 185.72,0 179.27,0 Z M30.54,26.08 C21.66,26.08 14.41,33.34 14.41,42.22 L14.41,118.84 C14.41,127.71 21.66,134.97 30.54,134.97 L81.27,134.97 L81.27,150.93 L57.04,150.93 L133.74,165.93 L112.83,150.93 L112.83,134.97 L161,134.97 C169.88,134.97 177.13,127.71 177.13,118.84 L177.13,42.22 C177.13,33.34 169.88,26.08 161,26.08 Z M30.54,33.08 L161,33.08 C166.12,33.08 170.13,37.1 170.13,42.22 L170.13,118.84 C170.13,123.96 166.12,127.97 161,127.97 L30.54,127.97 C25.42,127.97 21.41,123.96 21.41,118.84 L21.41,42.22 C21.41,37.1 25.42,33.08 30.54,33.08 Z M95.72,33.77 C75.04,33.77 58.18,50.63 58.18,71.31 C58.18,80.27 61.35,88.52 66.62,94.98 L45.44,116.88 L54.41,125.55 L76,103.23 C81.74,106.79 88.5,108.85 95.72,108.85 C116.41,108.85 133.26,91.99 133.26,71.31 C133.26,50.63 116.41,33.77 95.72,33.77 Z M95.72,42.34 C111.77,42.34 124.69,55.26 124.69,71.31 C124.69,87.36 111.77,100.28 95.72,100.28 C79.67,100.28 66.76,87.36 66.76,71.31 C66.76,55.26 79.67,42.34 95.72,42.34 Z M96.27,45.83 C89.25,45.83 85.22,51.6 85.22,56.73 L85.22,65.63 L77.9,65.63 L77.9,90.06 L113.57,90.06 L113.57,65.63 L107.33,65.63 L107.33,56.73 C107.33,50.56 102.17,45.83 96.27,45.83 Z M96.27,48.28 C100.86,48.28 104.88,51.93 104.88,56.73 L104.88,65.63 L87.67,65.63 L87.67,56.73 C87.67,52.86 90.58,48.28 96.27,48.28 Z M95.74,73.29 C97.11,73.29 98.21,74.4 98.21,75.77 C98.21,76.76 97.62,77.65 96.72,78.04 L96.72,83.78 L94.76,83.78 L94.76,78.04 C93.85,77.65 93.26,76.76 93.26,75.77 C93.26,74.4 94.37,73.29 95.74,73.29 Z" fill="none" stroke="currentColor" stroke-width="1.5"/></svg>