<svg xmlns="http://www.w3.org/2000/svg" viewBox="0 0 408.75 725.06" width="24" height="24"><path d="M44.32,0 C19.95,0 0,19.92 0,44.3 L0,181.99 L408.75,181.99 L408.75,44.3 C408.75,19.92 388.33,0 363.95,0 Z M44.32,18.9 L363.95,18.9 C378.19,18.9 389.85,30.06 389.85,44.3 L389.85,162.55 L18.9,162.55 L18.9,44.3 C18.9,30.06 30.09,18.9 44.32,18.9 Z M0,196.17 L0,205.62 L0,482.72 L122.23,482.72 L122.23,502.85 L0,502.85 L0,512.3 L0,601.25 L408.75,601.25 L408.75,502.85 L290.42,502.85 L290.42,482.72 L408.75,482.72 L408.75,196.17 Z M18.9,215.07 L389.85,215.07 L389.85,463.82 L290.42,463.82 L290.42,441.2 L265.59,441.2 L265.52,413.58 C265.51,380.69 239.34,357.06 206.77,357.06 C174.26,357.06 148.02,381.26 148.02,413.61 L148.02,413.63 L148.17,441.2 L122.23,441.2 L122.23,463.82 L18.9,463.82 Z M204.61,247.6 C180.53,247.6 160.87,267.26 160.87,291.34 C160.87,315.42 180.53,335.08 204.61,335.08 C228.68,335.08 248.34,315.42 248.34,291.34 C248.34,267.26 228.68,247.6 204.61,247.6 Z M198.94,261.36 L198.94,292.26 L210.28,261.36 C224.46,264 235.11,276.35 235.11,291.34 C235.11,308.27 221.54,321.85 204.61,321.85 C187.68,321.85 174.1,308.27 174.1,291.34 C174.1,276.35 184.75,264 198.94,261.36 Z M206.77,375.96 C230.98,375.96 246.62,390.03 246.62,413.61 L246.62,413.62 L246.69,441.2 L167.06,441.2 L166.92,413.61 C166.92,390.96 183.04,375.96 206.77,375.96 Z M18.9,521.75 L122.23,521.75 L122.23,557.37 L290.42,557.37 L290.42,521.75 L389.85,521.75 L389.85,582.35 L18.9,582.35 Z M0,619.39 L0,680.76 C0,705.14 19.95,725.06 44.32,725.06 L363.95,725.06 C388.33,725.06 408.75,705.14 408.75,680.76 L408.75,619.39 Z M18.9,639.09 L389.85,639.09 L389.85,680.76 C389.85,694.99 378.19,706.16 363.95,706.16 L44.32,706.16 C30.09,706.16 18.9,694.99 18.9,680.76 Z" fill="none" stroke="currentColor" stroke-width="1.5"/></svg>