<svg xmlns="http://www.w3.org/2000/svg" viewBox="0 0 1806.51 1698.0" width="24" height="24"><path d="M1546.64,1304.51 L263.16,1304.51 C210.47,1304.51 167.55,1347.43 167.55,1400.12 L167.55,1602.4 C167.55,1655.08 210.47,1698 263.16,1698 L1546.64,1698 C1599.32,1698 1642.24,1655.08 1642.24,1602.4 L1642.24,1400.12 C1642.24,1347.43 1599.32,1304.51 1546.64,1304.51 Z M1701,0 L105.51,0 C47.34,0 0,47.34 0,105.51 L0,1144.45 C0,1202.63 47.34,1249.93 105.51,1249.93 L1701,1249.93 C1759.17,1249.93 1806.51,1202.63 1806.51,1144.45 L1806.51,105.51 C1806.51,47.34 1759.17,0 1701,0 Z" fill="none" stroke="currentColor" stroke-width="1.5"/><path d="M1546.64,1336.65 L263.16,1336.65 C227.72,1336.65 199.69,1364.68 199.69,1400.12 L199.69,1602.4 C199.69,1637.83 227.72,1665.86 263.16,1665.86 L1546.64,1665.86 C1582.07,1665.86 1610.1,1637.83 1610.1,1602.4 L1610.1,1400.12 C1610.1,1364.68 1582.07,1336.65 1546.64,1336.65 Z M430.96,1500.28 C430.96,1514.25 425.3,1526.9 416.14,1536.06 C406.98,1545.22 394.33,1550.88 380.36,1550.88 C366.39,1550.88 353.73,1545.22 344.57,1536.06 C335.42,1526.9 329.75,1514.24 329.75,1500.27 C329.76,1472.33 352.41,1449.67 380.36,1449.67 C408.31,1449.67 430.96,1472.33 430.96,1500.27 L430.96,1500.27 Z M1504.8,1534.05 L1063.27,1534.05 L1063.27,1466.5 L1504.8,1466.5 L1504.8,1534.05 Z M1701,32.14 L105.51,32.14 C64.59,32.14 32.14,64.59 32.14,105.51 L32.14,1144.45 C32.14,1185.38 64.59,1217.8 105.51,1217.8 L1701,1217.8 C1741.92,1217.8 1774.36,1185.38 1774.36,1144.45 L1774.36,105.51 C1774.36,64.59 1741.92,32.14 1701,32.14 Z M1678.7,1115.42 L124.78,1115.42 L124.78,129.9 L1678.7,129.9 L1678.7,1115.42 L1678.7,1115.42 Z M1060.68,588.73 L1060.68,480.06 C1060.68,386.52 978.18,316.07 901.09,316.07 C824,316.07 741.5,390.06 741.5,480.06 L741.5,588.73 L646.02,588.73 L646.02,929.24 L1157.45,929.24 L1157.45,588.73 L1060.68,588.73 Z M914.46,762.57 L914.46,843.48 L884.3,843.48 L884.3,762.54 C872.66,756.81 865.28,744.96 865.26,731.98 C865.26,713.13 880.54,697.85 899.39,697.85 C918.24,697.85 933.51,713.13 933.51,731.98 C933.5,744.97 926.12,756.83 914.46,762.57 L914.46,762.57 Z M1027.2,588.73 L774.99,588.73 L774.99,480.06 C774.99,410.45 841.91,349.56 901.09,349.56 C956.66,349.56 1027.2,407.02 1027.2,480.06 L1027.2,588.73 Z" fill="none" stroke="currentColor" stroke-width="1.5"/></svg>