<svg xmlns="http://www.w3.org/2000/svg" viewBox="0 0 190.99 191.89" width="24" height="24"><path d="M95.59,17.64 L79.61,40.66 L90.23,40.66 L90.23,65.08 L59.94,53.29 L67.43,45.76 L39.96,40.73 L45.02,68.3 L52.51,60.77 L69.85,78.01 L40.21,90.67 L40.21,80.05 L17.19,95.85 L40.21,111.83 L40.21,101.21 L64.63,101.21 L52.63,131.27 L45.12,123.76 L40.16,151.35 L67.6,146.22 L60.09,138.72 L77.36,121.44 L90.23,151.23 L79.61,151.23 L95.59,174.25 L111.39,151.23 L100.77,151.23 L100.77,126.8 L130.91,138.73 L123.42,146.26 L151.02,151.16 L145.83,123.73 L138.35,131.25 L121.03,114.03 L150.78,101.21 L150.78,111.83 L173.8,95.85 L150.78,80.05 L150.78,90.67 L126.35,90.67 L138.23,60.49 L145.74,67.99 L150.83,40.54 L123.25,45.53 L130.77,53.04 L113.48,70.34 L100.77,40.66 L111.39,40.66 Z M11.72,0 C5.27,0 0,5.27 0,11.72 L0,180.17 C0,186.62 5.27,191.89 11.72,191.89 L179.27,191.89 C185.72,191.89 190.99,186.62 190.99,180.17 L190.99,11.72 C190.99,5.27 185.72,0 179.27,0 Z M11.72,5.29 L179.27,5.29 C182.88,5.29 185.7,8.11 185.7,11.72 L185.7,180.17 C185.7,183.78 182.88,186.6 179.27,186.6 L11.72,186.6 C8.11,186.6 5.29,183.78 5.29,180.17 L5.29,11.72 C5.29,8.11 8.11,5.29 11.72,5.29 Z" fill="none" stroke="currentColor" stroke-width="1.5"/><path d="M95.52,64.61 C78.23,64.61 64.21,78.63 64.21,95.92 C64.21,113.21 78.23,127.23 95.52,127.23 C112.81,127.23 126.83,113.21 126.83,95.92 C126.83,78.63 112.81,64.61 95.52,64.61 Z M96.99,68.06 C103,68.06 108.27,72.89 108.27,79.18 L108.27,88.25 L114.64,88.25 L114.64,113.18 L78.24,113.18 L78.24,88.25 L85.71,88.25 L85.71,79.18 C85.71,73.94 89.82,68.06 96.99,68.06 Z M96.99,70.56 C91.17,70.56 88.21,75.23 88.21,79.18 L88.21,88.25 L105.76,88.25 L105.76,79.18 C105.76,74.28 101.67,70.56 96.99,70.56 Z" fill="none" stroke="currentColor" stroke-width="1.5"/><rect x="0" y="0" width="0" height="0" fill="none" stroke="currentColor"/><path d="M98.94,98.62 C98.94,99.63 98.34,100.55 97.41,100.94 L97.41,106.8 L95.41,106.8 L95.41,100.95 C94.49,100.55 93.89,99.63 93.89,98.62 C93.89,97.23 95.02,96.1 96.42,96.1 C97.81,96.1 98.94,97.23 98.94,98.62 Z" fill="none" stroke="currentColor" stroke-width="1.5"/></svg>