<svg xmlns="http://www.w3.org/2000/svg" viewBox="0 0 1158.66 2055.28" width="24" height="24"><rect x="53.57" y="609.65" width="1051.52" height="705.11" fill="none" stroke="currentColor"/><path d="M1105.09,1478.98 L1105.09,1650.75 L53.57,1650.75 L53.57,1478.98 L1105.09,1478.98 Z" fill="none" stroke="currentColor" stroke-width="1.5"/><rect x="0" y="0" width="0" height="0" fill="none" stroke="currentColor"/><path d="M0,1755.75 L0,1929.71 C0,1998.81 56.54,2055.28 125.64,2055.28 L1031.68,2055.28 C1100.78,2055.28 1158.66,1998.81 1158.66,1929.71 L1158.66,1755.75 L0,1755.75 Z M1105.09,1929.71 C1105.09,1970.06 1072.03,2001.71 1031.68,2001.71 L125.64,2001.71 C85.29,2001.71 53.57,1970.06 53.57,1929.71 L53.57,1811.59 L1105.09,1811.59 L1105.09,1929.71 Z M579.99,701.87 C511.74,701.87 456.01,757.6 456.01,825.85 C456.01,894.1 511.74,949.83 579.99,949.83 C648.24,949.83 703.95,894.1 703.95,825.85 C703.95,757.6 648.24,701.87 579.99,701.87 Z M579.99,912.34 C532,912.34 493.51,873.84 493.51,825.85 C493.51,783.36 523.69,748.34 563.92,740.86 L563.92,828.46 C563.76,837.34 570.82,844.66 579.7,844.82 C588.57,844.98 595.9,837.92 596.06,829.04 L596.06,740.86 C636.28,748.34 666.45,783.36 666.45,825.85 C666.45,873.84 627.97,912.34 579.99,912.34 L579.99,912.34 Z M1158.66,1368.33 L1158.66,556.08 L0,556.08 L0,1368.33 L346.47,1368.33 L346.47,1425.41 L0,1425.41 L0,1704.33 L1158.66,1704.33 L1158.66,1425.41 L823.23,1425.41 L823.23,1368.33 L1158.66,1368.33 Z M1105.09,1478.98 L1105.09,1650.75 L53.57,1650.75 L53.57,1478.98 L346.47,1478.98 L346.47,1579.95 L823.23,1579.95 L823.23,1478.98 L1105.09,1478.98 Z M473.57,1250.65 L473.15,1172.43 C473.15,1108.24 518.84,1065.72 586.12,1065.72 C653.4,1065.72 699.09,1105.59 699.09,1172.43 L699.09,1172.45 L699.27,1250.65 L699.27,1250.65 M752.84,1250.65 L752.66,1172.36 C752.63,1079.12 678.45,1012.15 586.12,1012.15 C493.79,1012.15 419.58,1080.73 419.58,1172.43 L419.58,1172.5 L420,1250.65 L346.47,1250.65 L346.47,1314.76 L53.57,1314.76 L53.57,609.65 L1105.09,609.65 L1105.09,1314.76 L823.23,1314.76 L823.23,1250.65 L752.84,1250.65 L752.84,1250.65 Z" fill="none" stroke="currentColor" stroke-width="1.5"/><path d="M1031.68,0 L125.64,0 C56.54,0 0,56.47 0,125.57 L0,515.89 L1158.66,515.89 L1158.66,125.57 C1158.66,56.47 1100.78,0 1031.68,0 Z M1105.09,460.77 L53.57,460.77 L53.57,125.57 C53.57,85.22 85.29,53.57 125.64,53.57 L1031.68,53.57 C1072.03,53.57 1105.09,85.22 1105.09,125.57 L1105.09,460.77 L1105.09,460.77 Z" fill="none" stroke="currentColor" stroke-width="1.5"/><path d="M1105.09,1811.59 L1105.09,1929.71 C1105.09,1970.06 1072.03,2001.71 1031.68,2001.71 L125.64,2001.71 C85.29,2001.71 53.57,1970.06 53.57,1929.71 L53.57,1811.59 L1105.09,1811.59 Z" fill="none" stroke="currentColor" stroke-width="1.5"/><path d="M1105.09,125.57 L1105.09,460.77 L53.57,460.77 L53.57,125.57 C53.57,85.22 85.29,53.57 125.64,53.57 L1031.68,53.57 C1072.03,53.57 1105.09,85.22 1105.09,125.57 Z" fill="none" stroke="currentColor" stroke-width="1.5"/></svg>