<svg xmlns="http://www.w3.org/2000/svg" viewBox="0 0 2658.97 2055.84" width="24" height="24"><path d="M2533.44,0 L125.53,0 C56.47,0 0,56.47 0,125.53 L0,1930.29 C0,1999.35 56.47,2055.84 125.53,2055.84 L2533.44,2055.84 C2602.5,2055.84 2658.97,1999.35 2658.97,1930.29 L2658.97,125.53 C2658.97,56.47 2602.5,0 2533.44,0 Z M2602.28,1930.29 C2602.28,1968.92 2572.07,1999.14 2533.44,1999.14 L125.53,1999.14 C86.9,1999.14 56.69,1968.92 56.69,1930.29 L56.69,125.53 C56.69,86.9 86.9,56.69 125.53,56.69 L2533.44,56.69 C2572.07,56.69 2602.28,86.9 2602.28,125.53 L2602.28,1930.29 Z" fill="none" stroke="currentColor" stroke-width="1.5"/><path d="M2374.24,989.25 C2374.24,1066.06 2370.45,1141.97 2361.69,1207.48 C2352.93,1272.99 2339.98,1327.76 2317.8,1365.06 C2313.94,1371.56 2306.95,1375.55 2299.39,1375.55 L2189.27,1375.55 C2189.3,1376.52 2189.37,1377.48 2189.37,1378.46 C2189.37,1413.57 2170.66,1444.93 2142.37,1466.64 C2114.09,1488.34 2076.01,1501.21 2034.29,1501.21 C1992.57,1501.21 1954.52,1488.34 1926.24,1466.64 C1897.95,1444.93 1879.24,1413.57 1879.24,1378.46 C1879.24,1377.48 1879.3,1376.52 1879.33,1375.55 L742.22,1375.55 C742.25,1376.52 742.32,1377.48 742.32,1378.46 C742.32,1413.57 723.6,1444.93 695.32,1466.64 C667.03,1488.34 628.96,1501.21 587.24,1501.21 C545.52,1501.21 507.45,1488.34 479.17,1466.64 C450.88,1444.93 432.17,1413.57 432.17,1378.46 C432.17,1377.48 432.23,1376.52 432.26,1375.55 L360.96,1375.55 C354.97,1375.55 349.26,1373.05 345.2,1368.65 C330.5,1352.69 321.54,1330.68 313.58,1303.59 C305.62,1276.5 299.4,1244.27 294.5,1208.97 C284.69,1138.35 280.27,1055.52 280.27,980.48 C280.27,899.54 287.05,807.26 298.37,734.11 C304.04,697.54 310.72,665.89 318.88,641.85 C322.95,629.84 327.25,619.74 333.19,611.03 C339.14,602.32 348.62,592.47 363.58,592.47 L2277.84,592.47 C2290.62,592.47 2302.21,598.77 2310.42,606.85 C2318.63,614.93 2324.67,624.88 2330.05,636.43 C2340.79,659.55 2348.7,689.68 2355.14,725.6 C2368.01,797.43 2374.24,892.07 2374.24,989.25 Z" fill="none" stroke="currentColor" stroke-width="1.5"/><path d="M1911.48,1375.55 L2157.14,1375.55 C2157.18,1376.52 2157.23,1377.48 2157.23,1378.46 C2157.23,1402.26 2144.83,1424.23 2122.81,1441.13 C2100.79,1458.03 2069.34,1469.07 2034.29,1469.07 C1999.24,1469.07 1967.82,1458.03 1945.8,1441.13 C1923.78,1424.23 1911.37,1402.26 1911.37,1378.46 C1911.37,1377.49 1911.43,1376.52 1911.47,1375.55 L1911.47,1375.55 Z M464.4,1375.55 L710.08,1375.55 C710.12,1376.52 710.18,1377.48 710.18,1378.46 C710.18,1402.26 697.76,1424.23 675.74,1441.13 C653.72,1458.03 622.3,1469.07 587.25,1469.07 C552.2,1469.07 520.76,1458.03 498.73,1441.13 C476.71,1424.23 464.31,1402.26 464.31,1378.46 C464.31,1377.49 464.36,1376.52 464.4,1375.55 L464.4,1375.55 Z M327,1101.18 L2328.39,1101.18 C2326.39,1136.71 2323.37,1170.68 2319.21,1201.81 C2311.58,1258.87 2299.18,1304.18 2285,1332.7 L372.53,1332.7 C366.89,1324.09 360.37,1310.81 354.7,1291.52 C347.64,1267.5 341.64,1236.97 336.93,1203.07 C332.53,1171.36 329.26,1136.63 326.99,1101.18 Z M2116.76,952.86 C2134.64,952.86 2149.14,967.35 2149.14,985.24 C2149.14,1003.12 2134.64,1017.62 2116.76,1017.62 C2098.88,1017.62 2084.38,1003.12 2084.38,985.24 C2084.38,967.36 2098.88,952.86 2116.76,952.86 Z M1969.14,952.86 C1987.02,952.86 2001.52,967.35 2001.52,985.24 C2001.52,1003.12 1987.02,1017.62 1969.14,1017.62 C1951.26,1017.62 1936.76,1003.12 1936.76,985.24 C1936.76,967.36 1951.26,952.86 1969.14,952.86 Z M1818.68,952.86 C1836.56,952.86 1851.06,967.35 1851.06,985.24 C1851.06,1003.12 1836.56,1017.62 1818.68,1017.62 C1800.8,1017.62 1786.3,1003.12 1786.3,985.24 C1786.3,967.36 1800.8,952.86 1818.68,952.86 Z M502.5,915.82 C493.35,915.82 486.04,919.7 480.58,927.45 C473.71,937.34 470.28,955.61 470.28,982.26 C470.28,1008.91 473.38,1026.66 479.58,1035.52 C485.85,1044.3 493.57,1048.7 502.72,1048.7 C511.87,1048.7 519.55,1044.27 525.75,1035.41 C532.02,1026.55 535.16,1008.84 535.16,982.26 C535.16,955.68 532.02,937.78 525.75,929 C519.55,920.22 511.8,915.82 502.5,915.82 Z M629.95,899.32 C645.53,899.32 657.85,903.64 666.93,912.28 C676.01,920.92 680.55,931.62 680.55,944.39 C680.55,950.89 679.22,957.27 676.56,963.55 C673.9,969.82 669.47,976.43 663.27,983.37 C657.14,990.31 646.92,999.83 632.6,1011.94 C620.64,1021.98 612.96,1028.81 609.57,1032.42 C606.17,1035.96 603.37,1039.54 601.15,1043.16 L680.76,1043.16 L680.76,1062.32 L573.46,1062.32 C573.31,1057.52 574.09,1052.91 575.79,1048.48 C578.52,1041.17 582.88,1033.97 588.86,1026.89 C594.91,1019.8 603.62,1011.61 614.99,1002.31 C632.63,987.84 644.55,976.4 650.76,967.98 C656.96,959.49 660.06,951.48 660.06,943.95 C660.06,936.05 657.22,929.41 651.53,924.02 C645.92,918.56 638.57,915.83 629.5,915.83 C619.9,915.83 612.23,918.71 606.47,924.47 C600.71,930.23 597.8,938.2 597.72,948.39 L577.24,946.29 C578.64,931.01 583.92,919.38 593.07,911.41 C602.22,903.36 614.51,899.34 629.94,899.34 Z M502.72,899.32 C511.43,899.32 519.07,901.09 525.64,904.63 C532.21,908.1 537.64,913.16 541.92,919.8 C546.2,926.37 549.56,934.42 552,943.94 C554.44,953.39 555.65,966.16 555.65,982.25 C555.65,1001.3 553.69,1016.69 549.78,1028.42 C545.87,1040.08 540,1049.13 532.17,1055.55 C524.42,1061.9 514.6,1065.07 502.72,1065.07 C487.07,1065.07 474.78,1059.46 465.85,1048.24 C455.15,1034.73 449.79,1012.73 449.79,982.25 C449.79,963.06 451.75,947.63 455.66,935.97 C459.65,924.23 465.51,915.19 473.27,908.84 C481.09,902.49 490.91,899.32 502.72,899.32 Z M368.51,635.33 L2277.82,635.33 C2277.94,635.33 2278.5,635.56 2280.37,637.4 C2283.09,640.07 2287.19,645.93 2291.19,654.52 C2299.18,671.7 2306.9,699.3 2312.97,733.15 C2319.35,768.75 2324.1,811.4 2327.18,857.66 L327.83,857.66 C330.87,816.25 335.27,775.86 340.72,740.66 C346.16,705.52 352.73,675.43 359.45,655.64 C362.78,645.82 366.29,638.6 368.51,635.32 Z" fill="none" stroke="currentColor" stroke-width="1.5"/></svg>