<svg xmlns="http://www.w3.org/2000/svg" viewBox="0 0 248.19 191.89" width="24" height="24"><path d="M33.3,38.6 C31.43,38.6 30.08,39.83 29.2,41.07 C28.31,42.32 27.66,43.83 27.05,45.63 C25.83,49.23 24.86,53.99 24.06,59.4 C22.47,70.22 21.63,83.56 21.63,94.23 C21.63,109.85 22.52,124.29 24.19,134.97 C25.03,140.32 26.04,144.71 27.34,147.98 C27.99,149.62 28.69,150.98 29.65,152.1 C30.6,153.21 32.01,154.17 33.68,154.17 L215.71,154.07 C217.55,154.07 218.72,152.87 219.5,151.74 C220.29,150.61 220.89,149.25 221.48,147.6 C222.64,144.31 223.65,139.88 224.52,134.65 C226.25,124.19 227.38,110.56 227.38,97.41 C227.38,86.11 226.58,72.01 225.02,60.6 C224.24,54.89 223.28,49.88 222.07,46.11 C221.47,44.22 220.82,42.64 219.95,41.34 C219.07,40.04 217.72,38.74 215.79,38.74 L215.79,38.74 L33.3,38.6 Z M33.57,43.6 L210.24,43.73 C209.93,44.4 209.53,44.9 209.25,45.66 C207.91,49.28 206.83,54.09 205.95,59.68 C204.17,70.87 203.2,85.11 203.2,97.88 C203.2,110.14 204.23,123.65 206.02,134.23 C206.92,139.53 207.99,144.07 209.32,147.49 C209.56,148.12 209.9,148.52 210.16,149.07 L33.68,149.17 C33.85,149.17 33.83,149.29 33.45,148.85 C33.06,148.4 32.51,147.46 31.98,146.13 C30.93,143.49 29.93,139.34 29.13,134.2 C27.53,123.93 26.63,109.66 26.63,94.23 C26.63,83.83 27.47,70.61 29.01,60.13 C29.78,54.89 30.74,50.31 31.78,47.24 C32.3,45.7 32.86,44.55 33.28,43.96 C33.47,43.69 33.55,43.63 33.57,43.6 Z M215.67,43.96 C215.72,44.03 215.71,44.01 215.8,44.13 C216.22,44.76 216.79,46 217.31,47.63 C218.36,50.9 219.31,55.73 220.06,61.28 C221.58,72.36 222.38,86.34 222.38,97.41 C222.38,110.27 221.26,123.72 219.59,133.83 C218.75,138.89 217.76,143.13 216.76,145.93 C216.31,147.22 215.86,148.1 215.51,148.65 C215.09,148.11 214.52,147.09 213.98,145.69 C212.87,142.83 211.82,138.5 210.95,133.4 C209.22,123.19 208.2,109.86 208.2,97.88 C208.2,85.36 209.17,71.28 210.88,60.47 C211.74,55.06 212.8,50.46 213.94,47.4 C214.5,45.88 215.1,44.74 215.55,44.16 C215.76,43.89 215.62,44 215.67,43.96 Z M82.71,99.48 L82.71,112.6 L179.32,112.6 L179.32,125.25 L82.71,125.25 L82.71,138.37 L54.54,118.93 Z M158.13,56.83 L158.13,69.95 L61.52,69.95 L61.52,82.6 L158.13,82.6 L158.13,95.72 L186.3,76.27 Z M11.72,0 C5.27,0 0,5.27 0,11.72 L0,180.17 C0,186.62 5.27,191.89 11.72,191.89 L236.47,191.89 C242.91,191.89 248.19,186.62 248.19,180.17 L248.19,11.72 C248.19,5.27 242.91,0 236.47,0 Z M11.72,5.29 L236.47,5.29 C240.07,5.29 242.89,8.11 242.89,11.72 L242.89,180.17 C242.89,183.78 240.07,186.6 236.47,186.6 L11.72,186.6 C8.11,186.6 5.29,183.78 5.29,180.17 L5.29,11.72 C5.29,8.11 8.11,5.29 11.72,5.29 Z" fill="none" stroke="currentColor" stroke-width="1.5"/></svg>