<svg xmlns="http://www.w3.org/2000/svg" viewBox="0 0 162.73 139.89" width="24" height="24"><path d="M16.13,0 C7.26,0 0,7.26 0,16.13 L0,92.75 C0,101.63 7.26,108.89 16.13,108.89 L66.87,108.89 L66.87,124.85 L42.63,124.85 L119.34,139.85 L98.42,124.85 L98.42,108.89 L146.59,108.89 C155.47,108.89 162.73,101.63 162.73,92.75 L162.73,16.13 C162.73,7.26 155.47,0 146.59,0 Z M16.13,7 L146.59,7 C151.71,7 155.73,11.01 155.73,16.13 L155.73,92.75 C155.73,97.87 151.71,101.89 146.59,101.89 L16.13,101.89 C11.01,101.89 7,97.87 7,92.75 L7,16.13 C7,11.01 11.01,7 16.13,7 Z M81.32,7.69 C60.64,7.69 43.78,24.55 43.78,45.23 C43.78,54.19 46.95,62.44 52.22,68.9 L31.04,90.8 L40,99.47 L61.59,77.15 C67.33,80.71 74.09,82.77 81.32,82.77 C102,82.77 118.86,65.91 118.86,45.23 C118.86,24.55 102,7.69 81.32,7.69 Z M81.32,16.26 C97.37,16.26 110.29,29.18 110.29,45.23 C110.29,61.28 97.37,74.2 81.32,74.2 C65.27,74.2 52.35,61.28 52.35,45.23 C52.35,29.18 65.27,16.26 81.32,16.26 Z M81.87,19.75 C74.84,19.75 70.81,25.52 70.81,30.65 L70.81,39.54 L63.49,39.54 L63.49,63.97 L99.17,63.97 L99.17,39.54 L92.92,39.54 L92.92,30.65 C92.92,24.48 87.76,19.75 81.87,19.75 Z M81.87,22.2 C86.46,22.2 90.47,25.85 90.47,30.65 L90.47,39.54 L73.26,39.54 L73.26,30.65 C73.26,26.78 76.17,22.2 81.87,22.2 Z M81.33,47.21 C82.7,47.21 83.81,48.32 83.81,49.69 C83.81,50.67 83.22,51.57 82.31,51.96 L82.31,57.7 L80.35,57.7 L80.35,51.96 C79.44,51.57 78.85,50.67 78.85,49.69 C78.85,48.32 79.96,47.21 81.33,47.21 Z" fill="none" stroke="currentColor" stroke-width="1.5"/></svg>