<svg xmlns="http://www.w3.org/2000/svg" viewBox="0 0 461.28 396.58" width="24" height="24"><path d="M45.74,0 C20.57,0 0,20.57 0,45.74 L0,262.93 C0,288.09 20.57,308.66 45.74,308.66 L189.55,308.66 L189.55,353.9 L120.85,353.9 C109.11,353.74 99.46,363.13 99.3,374.87 C99.14,386.61 108.53,396.26 120.27,396.42 C120.46,396.42 120.66,396.42 120.85,396.42 L338.29,396.42 C350.03,396.58 359.68,387.19 359.84,375.45 C360,363.71 350.61,354.06 338.87,353.9 C338.68,353.9 338.48,353.9 338.29,353.9 L278.99,353.9 L278.99,308.66 L415.54,308.66 C440.7,308.66 461.28,288.09 461.28,262.92 L461.28,45.74 C461.28,20.58 440.71,0 415.54,0 L45.74,0 Z" fill="none" stroke="currentColor" stroke-width="1.5"/><rect x="0" y="0" width="0" height="0" fill="none" stroke="currentColor"/><path d="M230.51,21.79 C171.88,21.79 124.1,69.58 124.1,128.2 C124.1,153.61 133.08,176.98 148.03,195.31 L87.99,257.39 L113.4,281.96 L174.6,218.68 C190.86,228.78 210.03,234.62 230.52,234.62 C289.15,234.62 336.94,186.83 336.94,128.2 C336.94,69.57 289.15,21.79 230.52,21.79 L230.52,21.79 Z M230.51,46.09 C276,46.09 312.62,82.71 312.62,128.2 C312.62,173.69 276,210.31 230.51,210.31 C185.02,210.31 148.4,173.69 148.4,128.2 C148.4,82.71 185.02,46.09 230.51,46.09 L230.51,46.09 Z M232.06,55.98 C212.14,55.98 200.73,72.34 200.73,86.89 L200.73,112.09 L179.98,112.09 L179.98,181.34 L281.1,181.34 L281.1,112.09 L263.39,112.09 L263.39,86.89 C263.39,69.4 248.77,55.98 232.06,55.98 Z M232.06,62.93 C245.07,62.93 256.45,73.27 256.45,86.89 L256.45,112.09 L207.68,112.09 L207.68,86.89 C207.68,75.91 215.92,62.93 232.07,62.93 L232.07,62.93 Z M230.54,133.82 C234.42,133.82 237.56,136.96 237.56,140.84 C237.56,143.64 235.89,146.17 233.31,147.28 L233.31,163.55 L227.75,163.55 L227.75,147.29 C225.18,146.18 223.51,143.65 223.51,140.84 C223.51,136.96 226.65,133.82 230.53,133.82 Z" fill="none" stroke="currentColor" stroke-width="1.5"/></svg>