<svg xmlns="http://www.w3.org/2000/svg" viewBox="0 0 248.19 191.89" width="24" height="24"><path d="M201.08,63.66 C194.15,63.66 187.34,64.05 181.84,65.03 C179.09,65.52 176.68,66.14 174.67,67.02 C172.67,67.89 170.95,69.01 170.05,70.88 L169.83,120.9 C173.42,124.6 177.49,125.78 182.46,126.72 C187.43,127.66 193.2,128.23 198.77,128.23 C205.02,128.23 211.17,127.94 216.42,127.12 C221.67,126.31 226.05,125.12 228.95,122.6 L229.72,71.86 C227.19,67.31 222.89,66.07 217.81,65.07 C212.73,64.08 206.73,63.66 201.08,63.66 Z M201.08,68.16 C206.51,68.16 212.3,68.58 216.95,69.49 C220,70.08 222.12,70.98 223.65,71.84 C222.23,72.62 220.35,73.41 217.65,73.99 C213.31,74.92 207.59,75.43 201.08,75.42 C194.55,75.42 188.28,75.04 183.34,74.16 C179.81,73.54 177.4,72.56 175.7,71.58 C175.97,71.43 176.13,71.29 176.47,71.14 C177.97,70.49 180.1,69.91 182.63,69.46 C187.69,68.56 194.32,68.16 201.08,68.16 Z M174.33,76.19 C176.62,77.29 179.37,78.03 182.55,78.59 C187.91,79.55 194.38,79.92 201.08,79.92 C207.82,79.93 213.8,79.42 218.6,78.39 C221.15,77.84 223.36,77.18 225.22,76.28 L225.22,119.59 C223.41,120.82 220.14,122 215.73,122.68 C210.85,123.43 204.88,123.73 198.77,123.73 C193.51,123.73 187.96,123.18 183.29,122.3 C179.23,121.53 176.07,120.42 174.33,119.49 Z M125.4,63.66 C118.47,63.66 111.65,64.05 106.16,65.03 C103.41,65.52 101,66.14 98.99,67.02 C96.99,67.89 95.27,69.01 94.37,70.88 L94.15,120.9 C97.73,124.6 101.81,125.78 106.77,126.72 C111.74,127.66 117.52,128.23 123.09,128.23 C129.34,128.23 135.49,127.94 140.74,127.12 C145.99,126.31 150.37,125.12 153.26,122.6 L154.04,71.86 C151.51,67.31 147.21,66.07 142.13,65.07 C137.05,64.08 131.05,63.66 125.4,63.66 Z M125.4,68.16 C130.82,68.16 136.62,68.58 141.27,69.49 C144.32,70.08 146.44,70.98 147.97,71.84 C146.54,72.62 144.67,73.41 141.97,73.99 C137.63,74.92 131.91,75.43 125.4,75.42 C118.87,75.42 112.6,75.04 107.65,74.16 C104.12,73.54 101.72,72.56 100.02,71.58 C100.29,71.43 100.45,71.29 100.79,71.14 C102.28,70.49 104.42,69.91 106.95,69.46 C112.01,68.56 118.64,68.16 125.4,68.16 Z M98.65,76.19 C100.94,77.29 103.69,78.03 106.87,78.59 C112.23,79.55 118.7,79.92 125.4,79.92 C132.14,79.93 138.12,79.42 142.91,78.39 C145.46,77.84 147.68,77.18 149.54,76.28 L149.54,119.59 C147.73,120.82 144.45,122 140.05,122.68 C135.16,123.43 129.2,123.73 123.09,123.73 C117.83,123.73 112.28,123.18 107.61,122.3 C103.54,121.53 100.39,120.42 98.65,119.49 Z M49.71,63.66 C42.78,63.66 35.97,64.05 30.48,65.03 C27.73,65.52 25.31,66.14 23.31,67.02 C21.31,67.89 19.59,69.01 18.69,70.88 L18.47,120.9 C22.05,124.6 26.12,125.78 31.09,126.72 C36.06,127.66 41.84,128.23 47.41,128.23 C53.66,128.23 59.8,127.94 65.06,127.12 C70.31,126.31 74.69,125.12 77.58,122.6 L78.36,71.86 C75.83,67.31 71.53,66.07 66.45,65.07 C61.37,64.08 55.37,63.66 49.71,63.66 Z M49.71,68.16 C55.14,68.16 60.94,68.58 65.59,69.49 C68.64,70.08 70.76,70.98 72.29,71.84 C70.86,72.62 68.99,73.41 66.29,73.99 C61.95,74.92 56.23,75.43 49.72,75.42 C43.19,75.42 36.92,75.04 31.97,74.16 C28.44,73.54 26.04,72.56 24.34,71.58 C24.6,71.43 24.77,71.29 25.11,71.14 C26.6,70.49 28.74,69.91 31.27,69.46 C36.32,68.56 42.96,68.16 49.71,68.16 Z M22.97,76.19 C25.26,77.29 28.01,78.03 31.18,78.59 C36.55,79.55 43.02,79.92 49.71,79.92 C56.46,79.93 62.43,79.42 67.23,78.39 C69.78,77.84 71.99,77.18 73.86,76.28 L73.86,119.59 C72.05,120.82 68.77,122 64.37,122.68 C59.48,123.43 53.52,123.73 47.41,123.73 C42.15,123.73 36.59,123.18 31.93,122.3 C27.86,121.53 24.71,120.42 22.97,119.49 Z M11.72,0 C5.27,0 0,5.27 0,11.72 L0,180.17 C0,186.62 5.27,191.89 11.72,191.89 L236.47,191.89 C242.91,191.89 248.19,186.62 248.19,180.17 L248.19,11.72 C248.19,5.27 242.91,0 236.47,0 Z M11.72,5.29 L236.47,5.29 C240.07,5.29 242.89,8.11 242.89,11.72 L242.89,180.17 C242.89,183.78 240.07,186.6 236.47,186.6 L11.72,186.6 C8.11,186.6 5.29,183.78 5.29,180.17 L5.29,11.72 C5.29,8.11 8.11,5.29 11.72,5.29 Z" fill="none" stroke="currentColor" stroke-width="1.5"/></svg>