<svg xmlns="http://www.w3.org/2000/svg" viewBox="0 0 938.03 687.17" width="24" height="24"><path d="M44.28,0 C19.92,0 0,19.92 0,44.28 L0,265.88 C0,290.24 19.92,310.17 44.28,310.17 L187.61,310.17 L215.7,390.61 L223.09,390.61 C221.23,403 219.21,419.06 219.21,436.02 C219.21,576.71 337.05,687.17 473.3,687.17 C627.83,687.17 738.62,561.12 738.62,432.3 C738.62,418.18 737.48,406.17 734.45,390.61 L738.94,390.61 L766.27,310.17 L893.74,310.17 C918.1,310.17 938.03,290.24 938.03,265.88 L938.03,44.28 C938.03,19.92 918.1,0 893.74,0 Z M44.28,20 L893.74,20 C907.37,20 918.03,30.66 918.03,44.28 L918.03,265.88 C918.03,279.5 907.37,290.16 893.74,290.16 L44.28,290.16 C30.66,290.16 20,279.5 20,265.88 L20,44.28 C20,30.66 30.66,20 44.28,20 Z" fill="none" stroke="currentColor" stroke-width="1.5"/><path d="M719.78,445.21 C710.26,571.03 617.91,656.92 479.81,667.43 C372.06,667.43 234.12,583.2 238.02,446.84 C273.48,399.58 367.37,377.97 480.93,377.97 C579.95,377.97 680.21,397.96 719.78,445.21 Z" fill="none" stroke="currentColor" stroke-width="1.5"/><rect x="0" y="0" width="0" height="0" fill="none" stroke="currentColor"/><path d="M676.46,518.77 C664.02,540.42 647.67,562.41 618.84,588.31 C585.28,616.78 554.39,629.99 524.29,637.16 C554.06,628.38 584.41,616.43 617.89,587.23 C642.07,566.64 660.91,543.49 676.46,518.77 Z" fill="none" stroke="currentColor" stroke-width="1.5"/></svg>