<svg xmlns="http://www.w3.org/2000/svg" viewBox="0 0 482.51 427.06" width="24" height="24"><path d="M460.52,54.29 L22,54.29 C9.89,54.29 0,64.18 0,76.29 L0,405.07 C0,417.18 9.89,427.06 22,427.06 L460.52,427.06 C472.63,427.06 482.51,417.18 482.51,405.07 L482.51,76.29 C482.51,64.18 472.63,54.29 460.52,54.29 Z M411.04,6.48 L411.04,2.95 L248.68,2.95 C246.4,1.51 243.71,0 239.87,0.04 L60.3,0.04 C51.79,0.04 45.54,8.04 45.54,17.16 C45.54,26.87 52.64,34.27 60.3,34.27 L239.87,34.27 C242.83,34.27 246.35,32.68 248.68,30.72 L411.04,30.72 L411.04,27.54 L436.97,17.01 C401.59,1.34 411.04,6.48 411.04,6.48 Z" fill="none" stroke="currentColor" stroke-width="1.5"/><path d="M460.52,62.8 L22,62.8 C14.45,62.8 8.5,68.74 8.5,76.29 L8.5,405.07 C8.5,412.62 14.45,418.56 22,418.56 L460.52,418.56 C468.07,418.56 474.01,412.62 474.01,405.07 L474.01,76.29 C474.01,68.74 468.07,62.8 460.52,62.8 Z M150.46,117.86 L252.44,117.86 L252.44,124.63 L150.46,124.63 L150.46,117.86 L150.46,117.86 Z M56.11,363.6 L56.11,143.91 C73.65,143.91 87.09,192.81 87.09,253.76 C87.09,308.35 75.69,363.6 56.11,363.6 Z M426.4,363.6 L150.46,363.6 L150.46,143.91 L426.4,143.91 L426.4,363.6 L426.4,363.6 Z M426.4,124.63 L324.42,124.63 L324.42,117.86 L426.4,117.86 L426.4,124.63 Z" fill="none" stroke="currentColor" stroke-width="1.5"/></svg>