<svg xmlns="http://www.w3.org/2000/svg" viewBox="0 0 248.19 191.89" width="24" height="24"><path d="M201.82,169.97 L201.82,129.56 L216.98,129.56 Z M207.17,146.54 L215.9,146.54 L207.17,134.33 Z M207.17,165.2 L217.22,165.2 L207.17,151.31 Z M161.25,169.97 L161.25,129.56 L175.17,129.56 Z M166.6,165.2 L175.22,165.2 L166.6,134.33 Z M95.56,124.73 L94.31,176.81 L136.5,178.06 L137.75,125.98 Z M96.81,127.23 L135.25,127.23 L135.25,148.75 L96.81,148.75 Z M110.79,127.78 C110.07,127.78 109.48,128.36 109.48,129.09 L109.48,136.64 C109.48,137.37 110.07,137.95 110.79,137.95 L119.7,137.95 C120.42,137.95 121,137.37 121,136.64 L121,129.09 C121,128.36 120.42,127.78 119.7,127.78 Z M124.76,132.9 C124.04,132.9 123.46,133.48 123.46,134.21 L123.46,144.82 C123.46,145.54 124.04,146.13 124.76,146.13 L132.11,146.13 C132.83,146.13 133.41,145.54 133.41,144.82 L133.41,134.21 C133.41,133.48 132.83,132.9 132.11,132.9 Z M99.74,138.51 C99.02,138.51 98.44,139.09 98.44,139.82 L98.44,144.77 C98.44,145.5 99.02,146.08 99.74,146.08 L112.64,146.08 C113.37,146.08 113.95,145.5 113.95,144.77 L113.95,139.82 C113.95,139.09 113.37,138.51 112.64,138.51 Z M96.81,151.25 L104.75,151.25 L104.75,158.13 L96.81,158.13 Z M106.8,151.25 L115.01,151.25 L115.01,158.13 L106.8,158.13 Z M117.06,151.25 L125.27,151.25 L125.27,158.13 L117.06,158.13 Z M127.31,151.25 L135.25,151.25 L135.25,158.13 L127.31,158.13 Z M96.81,160.63 L104.75,160.63 L104.75,167.51 L96.81,167.51 Z M106.8,160.63 L115.01,160.63 L115.01,167.51 L106.8,167.51 Z M117.06,160.63 L125.27,160.63 L125.27,167.51 L117.06,167.51 Z M127.31,160.63 L135.25,160.63 L135.25,167.51 L127.31,167.51 Z M96.81,170.01 L104.75,170.01 L104.75,175.56 L96.81,175.56 Z M106.8,170.01 L115.01,170.01 L115.01,175.56 L106.8,175.56 Z M117.06,170.01 L125.27,170.01 L125.27,175.56 L117.06,175.56 Z M127.31,170.01 L135.25,170.01 L135.25,175.56 L127.31,175.56 Z M25.53,140.04 L25.53,142.54 L49.89,142.54 L49.89,140.04 Z M25.53,149.79 L25.53,152.29 L49.89,152.29 L49.89,149.79 Z M25.53,159.03 L25.53,161.53 L49.89,161.53 L49.89,159.03 Z M18.49,126.45 L18.49,176.62 L19.49,176.62 L57.75,176.62 L57.75,135.1 L49.61,126.45 Z M20.49,128.45 L46.8,128.45 L46.8,135.81 C46.8,136.39 47.21,136.86 47.79,136.86 L55.75,136.86 L55.75,174.62 L20.49,174.62 Z M118.68,14.52 Z M140.65,35.2 L138.23,37.73 L180.24,77.95 L182.66,75.43 Z M94.63,35.46 L73.51,51.39 L75.62,54.19 L96.74,38.25 Z M118.76,41.29 C113.09,41.29 109.23,47.32 107.47,52.28 C104.82,60.16 104.6,68.76 104.78,78.18 L132.56,78.25 C132.76,69.91 132.58,60.65 129.98,53.2 C127.96,47.42 124.28,41.29 118.76,41.29 Z M26.42,61.77 Z M59.31,61.77 Z M26.48,81.61 C22.28,81.61 19.42,86.08 18.12,89.75 C16.15,95.59 15.98,101.97 16.12,108.95 L36.71,109 C36.86,102.82 36.72,95.95 34.8,90.43 C33.3,86.15 30.57,81.61 26.48,81.61 Z M59.37,81.61 C55.17,81.61 52.31,86.08 51.01,89.75 C49.05,95.59 48.88,101.97 49.01,108.95 L69.6,109 C69.75,102.82 69.61,95.95 67.69,90.43 C66.19,86.15 63.46,81.61 59.37,81.61 Z M185.12,86.74 C183,86.74 181.3,88.44 181.3,90.56 L181.3,107.94 C181.3,110.06 183,111.76 185.12,111.76 L205.7,111.76 C207.82,111.76 209.53,110.06 209.53,107.94 L209.53,102.17 L219.45,102.17 L219.45,105.97 L224.43,105.97 L224.43,92.54 L219.45,92.54 L219.45,96.34 L209.53,96.34 L209.53,90.56 C209.53,88.44 207.82,86.74 205.7,86.74 Z M77.72,107.22 L77.72,110.72 L174.38,110.72 L174.38,107.22 Z M11.72,0 C5.27,0 0,5.27 0,11.72 L0,180.17 C0,186.62 5.27,191.89 11.72,191.89 L236.47,191.89 C242.91,191.89 248.19,186.62 248.19,180.17 L248.19,11.72 C248.19,5.27 242.91,0 236.47,0 Z M11.72,5.29 L236.47,5.29 C240.07,5.29 242.89,8.11 242.89,11.72 L242.89,180.17 C242.89,183.78 240.07,186.6 236.47,186.6 L11.72,186.6 C8.11,186.6 5.29,183.78 5.29,180.17 L5.29,11.72 C5.29,8.11 8.11,5.29 11.72,5.29 Z" fill="none" stroke="currentColor" stroke-width="1.5"/><path d="M97.93,97.59 C93.39,97.56 88.65,96.76 84.14,94.14 C80.99,92.04 80.51,87.65 81.78,84.22 C82.76,81.77 86.33,78.91 90.67,78.31 C93.13,68.66 100.58,62.78 108.76,60.89 C117.24,59.1 128.88,61.83 134.93,70.35 C137.69,69.89 141.67,69.62 145.4,71.1 C149.06,72.69 151.26,75.7 152.33,78.35 C157.58,79.74 163.19,82.69 162.29,88.2 C161.11,94.43 153.71,97.83 147.21,98.3 C141.26,98.67 135.92,97.77 131.07,96.88 C126.09,101.01 120.22,103.73 112.22,103.14 C106.97,102.7 101.61,100.35 97.93,97.59 Z" fill="none" stroke="currentColor" stroke-width="1.5"/></svg>