<svg xmlns="http://www.w3.org/2000/svg" viewBox="0 0 190.99 191.89" width="24" height="24"><path d="M11.72,0 C5.27,0 0,5.27 0,11.72 L0,180.17 C0,186.62 5.27,191.89 11.72,191.89 L179.27,191.89 C185.72,191.89 190.99,186.62 190.99,180.17 L190.99,11.72 C190.99,5.27 185.72,0 179.27,0 Z M11.72,5.29 L179.27,5.29 C182.88,5.29 185.7,8.11 185.7,11.72 L185.7,180.17 C185.7,183.78 182.88,186.6 179.27,186.6 L11.72,186.6 C8.11,186.6 5.29,183.78 5.29,180.17 L5.29,11.72 C5.29,8.11 8.11,5.29 11.72,5.29 Z M46.84,37.34 C40.97,37.34 36.25,42.07 36.25,47.93 L36.25,121.48 C36.25,127.35 40.97,132.07 46.84,132.07 L84.29,132.07 L84.29,141.67 L70.3,141.67 L120.69,154.55 L106.7,141.67 L106.7,132.07 L144.15,132.07 C150.02,132.07 154.74,127.35 154.74,121.48 L154.74,47.93 C154.74,42.07 150.02,37.34 144.15,37.34 Z" fill="none" stroke="currentColor" stroke-width="1.5"/><path d="M79.09,117.9 C79.09,91.14 88.53,83.39 95.02,83.39 C101.45,83.39 111.07,90.66 111.07,117.9 Z M109.9,67 Z" fill="none" stroke="currentColor" stroke-width="1.5"/></svg>