<svg xmlns="http://www.w3.org/2000/svg" viewBox="0 0 248.19 191.89" width="24" height="24"><path d="M125.87,57.16 L140.31,67.44 L125.87,77.71 L125.87,70.72 L109.31,70.72 L109.31,64.15 L125.87,64.15 Z M124.29,117.12 L109.85,127.39 L124.29,137.66 L124.29,130.67 L140.86,130.67 L140.86,124.11 L124.29,124.11 Z M161.69,100.27 C147.92,135.45 144.71,144.31 144.71,153.07 L144.71,168.02 L178.68,168.02 L178.68,153.07 C178.68,144.21 174.67,135.71 169.35,128.99 Z M89.25,100.27 C75.48,135.45 72.27,144.31 72.27,153.07 L72.27,168.02 L106.24,168.02 L106.24,153.07 C106.24,144.21 102.23,135.71 96.91,128.99 Z M161.69,25.18 C147.92,60.36 144.71,69.22 144.71,77.98 L144.71,92.93 L178.68,92.93 L178.68,77.98 C178.68,69.12 174.67,60.62 169.35,53.9 Z M89.25,25.18 C75.48,60.36 72.27,69.22 72.27,77.98 L72.27,92.93 L106.24,92.93 L106.24,77.98 C106.24,69.12 102.23,60.62 96.91,53.9 Z M41.29,99.44 L41.29,110.93 L14.06,110.93 L14.06,121.73 L41.29,121.73 L41.29,133.22 L65.02,116.33 Z M37.8,54.07 L14.06,70.96 L37.8,87.84 L37.8,76.35 L65.02,76.35 L65.02,65.56 L37.8,65.56 Z M211.01,54.07 L211.01,65.56 L183.78,65.56 L183.78,76.35 L211.01,76.35 L211.01,87.84 L234.75,70.96 Z M207.52,99.44 L183.78,116.33 L207.52,133.22 L207.52,121.73 L234.75,121.73 L234.75,110.93 L207.52,110.93 Z M11.72,0 C5.27,0 0,5.27 0,11.72 L0,180.17 C0,186.62 5.27,191.89 11.72,191.89 L236.47,191.89 C242.91,191.89 248.19,186.62 248.19,180.17 L248.19,11.72 C248.19,5.27 242.91,0 236.47,0 Z M11.72,5.29 L236.47,5.29 C240.07,5.29 242.89,8.11 242.89,11.72 L242.89,180.17 C242.89,183.78 240.07,186.6 236.47,186.6 L11.72,186.6 C8.11,186.6 5.29,183.78 5.29,180.17 L5.29,11.72 C5.29,8.11 8.11,5.29 11.72,5.29 Z" fill="none" stroke="currentColor" stroke-width="1.5"/></svg>