<svg xmlns="http://www.w3.org/2000/svg" viewBox="0 0 190.99 79.63" width="24" height="24"><path d="M86.93,31.35 L169.91,31.35 L169.91,47.83 L86.93,47.83 Z M35.43,41.67 C37.99,49.72 35.24,51.79 32.89,53.28 C31.04,54.46 29.43,55.26 28.27,55.63 C27.69,55.81 27.22,55.88 26.95,55.87 C26.67,55.86 26.63,55.81 26.62,55.8 C26.62,55.8 26.56,55.76 26.56,55.48 C26.55,55.2 26.63,54.74 26.82,54.16 C27.2,53.01 28.03,51.41 29.24,49.58 C30.76,47.25 32.88,44.53 35.43,41.67 Z M50.88,41.66 C53.43,44.53 55.55,47.25 57.08,49.58 C58.28,51.41 59.11,53.01 59.5,54.16 C59.69,54.74 59.76,55.2 59.76,55.48 C59.75,55.76 59.7,55.8 59.69,55.8 C59.69,55.81 59.65,55.86 59.37,55.87 C59.09,55.88 58.63,55.81 58.05,55.63 C56.89,55.26 55.28,54.46 53.43,53.28 C51.08,51.8 48.33,49.72 45.42,47.21 Z M26.95,23.17 C27.22,23.16 27.69,23.22 28.27,23.41 C29.43,23.77 31.04,24.58 32.89,25.75 C35.24,27.24 37.99,29.32 40.9,31.83 C32.88,34.51 30.76,31.79 29.24,29.46 C28.03,27.63 27.2,26.03 26.82,24.88 C26.63,24.3 26.55,23.84 26.56,23.56 C26.56,23.28 26.62,23.24 26.62,23.23 C26.63,23.23 26.67,23.18 26.95,23.17 Z M59.37,23.17 C59.65,23.18 59.69,23.23 59.69,23.23 C59.7,23.24 59.75,23.28 59.76,23.56 C59.76,23.84 59.69,24.3 59.5,24.88 C59.11,26.03 58.28,27.63 57.08,29.46 C55.56,31.79 53.44,34.5 50.89,37.37 C48.33,29.32 51.08,27.24 53.43,25.75 C55.28,24.58 56.89,23.77 58.05,23.41 C58.63,23.22 59.09,23.16 59.37,23.17 Z M43.24,17.35 L39.08,21.33 L42.02,21.33 L42.02,29.8 C39.19,27.37 36.48,25.34 34.11,23.83 C32.16,22.59 30.43,21.7 28.95,21.24 C28.21,21 27.53,20.87 26.87,20.89 C26.2,20.91 25.51,21.13 25,21.64 C24.5,22.15 24.3,22.85 24.28,23.52 C24.27,24.18 24.41,24.86 24.66,25.59 C25.15,27.07 26.07,28.78 27.33,30.71 C28.85,33.02 30.88,35.64 33.29,38.38 L24.97,38.38 L24.97,35.44 L20.99,39.6 L24.97,43.6 L24.97,40.87 L33.1,40.87 C30.77,43.54 28.81,46.08 27.33,48.33 C26.07,50.26 25.15,51.97 24.66,53.44 C24.42,54.18 24.27,54.86 24.28,55.52 C24.3,56.19 24.5,56.89 25,57.4 C25.51,57.91 26.2,58.12 26.87,58.15 C27.53,58.17 28.21,58.03 28.95,57.8 C30.43,57.33 32.16,56.44 34.11,55.21 C36.48,53.7 39.19,51.67 42.02,49.24 L42.02,57.71 L39.08,57.71 L43.24,61.69 L47.24,57.71 L44.51,57.71 L44.51,49.42 C47.27,51.77 49.89,53.74 52.21,55.21 C54.16,56.45 55.89,57.33 57.36,57.8 C58.1,58.04 58.79,58.17 59.45,58.15 C60.11,58.12 60.81,57.91 61.32,57.4 C61.82,56.89 62.02,56.19 62.03,55.52 C62.05,54.86 61.9,54.18 61.66,53.44 C61.17,51.97 60.25,50.26 58.98,48.33 C57.51,46.08 55.55,43.54 53.22,40.87 L61.35,40.87 L61.35,43.6 L65.33,39.6 L61.35,35.44 L61.35,38.38 L53.03,38.38 C55.44,35.64 57.47,33.02 58.98,30.71 C60.25,28.78 61.17,27.07 61.66,25.6 C61.9,24.86 62.05,24.18 62.03,23.52 C62.02,22.85 61.82,22.15 61.32,21.64 C60.81,21.12 60.11,20.91 59.45,20.89 C58.78,20.87 58.1,21 57.36,21.24 C55.89,21.7 54.16,22.59 52.21,23.83 C49.89,25.3 47.27,27.27 44.51,29.61 L44.51,21.33 L47.24,21.33 Z M11.72,0 C5.27,0 0,5.27 0,11.72 L0,67.91 C0,74.36 5.27,79.63 11.72,79.63 L179.27,79.63 C185.72,79.63 190.99,74.36 190.99,67.91 L190.99,11.72 C190.99,5.27 185.72,0 179.27,0 Z M11.72,5.29 L179.27,5.29 C182.88,5.29 185.7,8.11 185.7,11.72 L185.7,67.91 C185.7,71.52 182.88,74.34 179.27,74.34 L11.72,74.34 C8.11,74.34 5.29,71.52 5.29,67.91 L5.29,11.72 C5.29,8.11 8.11,5.29 11.72,5.29 Z" fill="none" stroke="currentColor" stroke-width="1.5"/><path d="M51.18,39.52 Z" fill="none" stroke="currentColor" stroke-width="1.5"/></svg>