<svg xmlns="http://www.w3.org/2000/svg" viewBox="0 0 248.19 191.89" width="24" height="24"><path d="M62.72,158.32 L185.79,158.32 L185.79,173.17 L62.72,173.17 Z M62.72,130.58 L185.79,130.58 L185.79,145.43 L62.72,145.43 Z M62.72,102.84 L185.79,102.84 L185.79,117.69 L62.72,117.69 Z M62.72,75.1 L185.79,75.1 L185.79,89.95 L62.72,89.95 Z M62.72,47.36 L185.79,47.36 L185.79,62.21 L62.72,62.21 Z M62.72,19.62 L185.79,19.62 L185.79,34.48 L62.72,34.48 Z M218.88,47.35 L225.87,47.35 L225.96,53.08 L216.12,53.75 L216.35,48.3 Z M206.46,47.33 L213.3,47.34 L213.6,53.07 L203.66,53.74 L204.02,48.3 Z M221.44,39.5 L228.97,39.51 L228.43,45.51 L218.63,46.21 L219,40.21 Z M209.07,39.49 L216.34,39.5 L216.08,45.51 L206.19,46.2 L206.66,40.21 Z M219.88,33.87 L218.72,37.41 L209.28,38.36 L208.57,34.35 L207.5,33.99 L206.38,37.41 L198.42,38.35 L198.42,39.48 L203.94,39.49 L203.74,45.51 L196.61,46.19 L196.61,47.32 L200.87,47.33 L201.26,53.08 L194.83,53.73 L194.83,54.86 L198.35,54.86 L199.51,58.46 L200.59,58.81 L201.55,55.86 L210.8,54.88 L211.89,58.33 L212.97,58.68 L213.88,55.87 L223.33,54.89 L224.21,58.44 L225.29,58.79 L226.24,55.88 L233.3,54.9 L233.3,53.77 L228.65,53.76 L228.71,48.31 L235.08,47.36 L235.08,46.23 L231.21,46.22 L231.36,40.21 L236.89,39.52 L236.89,38.39 L234.3,38.38 L233.28,34.33 L232.2,33.97 L231.07,37.43 L221.68,38.37 L220.95,34.22 Z M219.11,155.05 L226.1,155.06 L226.19,160.78 L216.35,161.45 L216.59,156.01 Z M206.69,155.04 L213.53,155.04 L213.84,160.78 L203.89,161.44 L204.25,156 Z M221.68,147.21 L229.21,147.21 L228.66,153.21 L218.87,153.92 L219.23,147.91 Z M209.3,147.2 L216.57,147.2 L216.31,153.21 L206.43,153.9 L206.89,147.91 Z M220.11,141.57 L218.95,145.12 L209.51,146.06 L208.81,142.05 L207.73,141.7 L206.61,145.11 L198.65,146.05 L198.65,147.19 L204.17,147.19 L203.97,153.21 L196.84,153.89 L196.84,155.03 L201.1,155.03 L201.5,160.78 L195.06,161.43 L195.06,162.57 L198.58,162.57 L199.74,166.16 L200.82,166.51 L201.78,163.57 L211.03,162.58 L212.12,166.03 L213.2,166.38 L214.12,163.57 L223.56,162.6 L224.44,166.14 L225.52,166.49 L226.47,163.58 L233.53,162.61 L233.53,161.47 L228.89,161.47 L228.94,156.01 L235.31,155.07 L235.31,153.93 L231.44,153.93 L231.59,147.91 L237.12,147.22 L237.12,146.09 L234.54,146.09 L233.51,142.03 L232.43,141.68 L231.31,145.13 L221.91,146.07 L221.19,141.92 Z M36.55,155.05 L43.54,155.06 L43.63,160.78 L33.79,161.45 L34.02,156.01 Z M24.13,155.04 L30.97,155.04 L31.27,160.78 L21.33,161.44 L21.69,156 Z M39.11,147.21 L46.64,147.21 L46.1,153.21 L36.3,153.92 L36.67,147.91 Z M26.74,147.2 L34.01,147.2 L33.74,153.21 L23.86,153.9 L24.33,147.91 Z M37.55,141.57 L36.39,145.12 L26.95,146.06 L26.24,142.05 L25.17,141.7 L24.05,145.11 L16.09,146.05 L16.09,147.19 L21.61,147.19 L21.41,153.21 L14.28,153.89 L14.28,155.03 L18.54,155.03 L18.93,160.78 L12.5,161.43 L12.5,162.57 L16.01,162.57 L17.18,166.16 L18.25,166.51 L19.22,163.57 L28.47,162.58 L29.56,166.03 L30.63,166.38 L31.55,163.57 L41,162.6 L41.88,166.14 L42.96,166.49 L43.91,163.58 L50.97,162.61 L50.97,161.47 L46.32,161.47 L46.38,156.01 L52.75,155.07 L52.75,153.93 L48.88,153.93 L49.03,147.91 L54.56,147.22 L54.56,146.09 L51.97,146.09 L50.95,142.03 L49.87,141.68 L48.74,145.13 L39.35,146.07 L38.62,141.92 Z M210.58,97.96 C212.76,104.85 210.41,106.63 208.4,107.9 C206.81,108.91 205.43,109.6 204.44,109.91 C203.94,110.07 203.55,110.13 203.31,110.12 C203.07,110.11 203.04,110.07 203.03,110.06 C203.03,110.06 202.98,110.02 202.98,109.78 C202.97,109.55 203.04,109.15 203.2,108.66 C203.53,107.67 204.24,106.3 205.27,104.73 C206.58,102.74 208.39,100.41 210.58,97.96 Z M223.8,97.95 C225.99,100.41 227.81,102.74 229.11,104.73 C230.15,106.3 230.86,107.67 231.18,108.66 C231.35,109.15 231.41,109.55 231.41,109.78 C231.4,110.02 231.36,110.06 231.35,110.06 C231.35,110.07 231.31,110.11 231.08,110.12 C230.84,110.13 230.44,110.07 229.95,109.91 C228.95,109.6 227.57,108.91 225.99,107.91 C223.98,106.63 221.62,104.85 219.13,102.7 Z M203.31,82.11 C203.55,82.1 203.94,82.16 204.44,82.32 C205.43,82.63 206.81,83.32 208.4,84.33 C210.41,85.6 212.77,87.38 215.25,89.53 C208.39,91.83 206.58,89.5 205.27,87.51 C204.24,85.93 203.53,84.57 203.2,83.58 C203.04,83.08 202.97,82.69 202.98,82.45 C202.98,82.21 203.03,82.18 203.03,82.17 C203.04,82.17 203.07,82.12 203.31,82.11 Z M231.08,82.11 C231.31,82.12 231.35,82.17 231.35,82.17 C231.36,82.18 231.4,82.21 231.41,82.45 C231.41,82.69 231.35,83.08 231.18,83.58 C230.86,84.57 230.14,85.93 229.11,87.5 C227.81,89.49 226,91.82 223.81,94.28 C221.62,87.38 223.98,85.6 225.99,84.33 C227.57,83.32 228.95,82.63 229.95,82.32 C230.44,82.16 230.84,82.11 231.08,82.11 Z M217.26,77.13 L213.7,80.54 L216.22,80.54 L216.22,87.79 C213.79,85.71 211.48,83.97 209.44,82.68 C207.77,81.62 206.29,80.86 205.03,80.46 C204.39,80.26 203.81,80.15 203.24,80.17 C202.67,80.18 202.08,80.37 201.64,80.8 C201.21,81.24 201.04,81.84 201.03,82.41 C201.02,82.98 201.14,83.56 201.35,84.19 C201.77,85.45 202.55,86.92 203.64,88.57 C204.94,90.55 206.67,92.79 208.74,95.15 L201.62,95.15 L201.62,92.62 L198.21,96.19 L201.62,99.61 L201.62,97.27 L208.58,97.27 C206.58,99.56 204.9,101.73 203.64,103.66 C202.55,105.32 201.77,106.78 201.35,108.04 C201.14,108.67 201.02,109.25 201.03,109.82 C201.04,110.39 201.21,110.99 201.64,111.43 C202.08,111.87 202.67,112.05 203.24,112.07 C203.81,112.09 204.39,111.97 205.03,111.77 C206.29,111.37 207.77,110.61 209.44,109.55 C211.48,108.26 213.79,106.52 216.22,104.44 L216.22,111.69 L213.7,111.69 L217.26,115.1 L220.69,111.69 L218.35,111.69 L218.35,104.6 C220.71,106.61 222.96,108.29 224.94,109.55 C226.62,110.61 228.09,111.37 229.36,111.77 C229.99,111.97 230.57,112.09 231.14,112.07 C231.71,112.05 232.31,111.87 232.74,111.43 C233.18,110.99 233.35,110.39 233.36,109.82 C233.37,109.25 233.24,108.67 233.03,108.04 C232.62,106.78 231.83,105.32 230.74,103.66 C229.48,101.73 227.8,99.56 225.81,97.27 L232.77,97.27 L232.77,99.61 L236.18,96.19 L232.77,92.62 L232.77,95.15 L225.64,95.15 C227.71,92.79 229.45,90.55 230.74,88.57 C231.83,86.92 232.62,85.45 233.03,84.19 C233.24,83.56 233.37,82.98 233.36,82.41 C233.35,81.84 233.17,81.24 232.74,80.8 C232.31,80.37 231.71,80.18 231.14,80.17 C230.57,80.15 229.99,80.26 229.36,80.46 C228.09,80.86 226.62,81.62 224.94,82.68 C222.96,83.94 220.71,85.63 218.35,87.64 L218.35,80.54 L220.69,80.54 Z M26.53,97.96 C28.72,104.85 26.36,106.63 24.35,107.9 C22.76,108.91 21.38,109.6 20.39,109.91 C19.9,110.07 19.5,110.13 19.26,110.12 C19.02,110.11 18.99,110.07 18.98,110.06 C18.98,110.06 18.93,110.02 18.93,109.78 C18.92,109.55 18.99,109.15 19.15,108.66 C19.48,107.67 20.19,106.3 21.22,104.73 C22.53,102.74 24.34,100.41 26.53,97.96 Z M39.76,97.95 C41.94,100.41 43.76,102.74 45.07,104.73 C46.1,106.3 46.81,107.67 47.14,108.66 C47.3,109.15 47.36,109.55 47.36,109.78 C47.36,110.02 47.31,110.06 47.31,110.06 C47.3,110.07 47.27,110.11 47.03,110.12 C46.79,110.13 46.39,110.07 45.9,109.91 C44.9,109.6 43.53,108.91 41.94,107.91 C39.93,106.63 37.57,104.85 35.08,102.7 Z M19.26,82.11 C19.5,82.1 19.9,82.16 20.39,82.32 C21.38,82.63 22.76,83.32 24.35,84.33 C26.36,85.6 28.72,87.38 31.21,89.53 C24.34,91.83 22.53,89.5 21.22,87.51 C20.19,85.93 19.48,84.57 19.15,83.58 C18.99,83.08 18.92,82.69 18.93,82.45 C18.93,82.21 18.98,82.18 18.98,82.17 C18.99,82.17 19.02,82.12 19.26,82.11 Z M47.03,82.11 C47.27,82.12 47.3,82.17 47.31,82.17 C47.31,82.18 47.36,82.21 47.36,82.45 C47.36,82.69 47.3,83.08 47.14,83.58 C46.81,84.57 46.1,85.93 45.07,87.5 C43.76,89.49 41.95,91.82 39.76,94.28 C37.57,87.38 39.93,85.6 41.94,84.33 C43.53,83.32 44.9,82.63 45.9,82.32 C46.39,82.16 46.79,82.11 47.03,82.11 Z M33.21,77.13 L29.65,80.54 L32.17,80.54 L32.17,87.79 C29.74,85.71 27.43,83.97 25.39,82.68 C23.72,81.62 22.25,80.86 20.98,80.46 C20.35,80.26 19.76,80.15 19.19,80.17 C18.62,80.18 18.03,80.37 17.59,80.8 C17.16,81.24 16.99,81.84 16.98,82.41 C16.97,82.98 17.09,83.56 17.3,84.19 C17.72,85.45 18.51,86.92 19.59,88.57 C20.89,90.55 22.63,92.79 24.69,95.15 L17.57,95.15 L17.57,92.62 L14.16,96.19 L17.57,99.61 L17.57,97.27 L24.53,97.27 C22.54,99.56 20.86,101.73 19.59,103.66 C18.51,105.32 17.72,106.78 17.3,108.04 C17.09,108.67 16.97,109.25 16.98,109.82 C16.99,110.39 17.16,110.99 17.59,111.43 C18.03,111.87 18.62,112.05 19.19,112.07 C19.76,112.09 20.35,111.97 20.98,111.77 C22.25,111.37 23.72,110.61 25.39,109.55 C27.43,108.26 29.74,106.52 32.17,104.44 L32.17,111.69 L29.65,111.69 L33.21,115.1 L36.64,111.69 L34.3,111.69 L34.3,104.6 C36.66,106.61 38.91,108.29 40.89,109.55 C42.57,110.61 44.04,111.37 45.31,111.77 C45.94,111.97 46.53,112.09 47.1,112.07 C47.66,112.05 48.26,111.87 48.69,111.43 C49.13,110.99 49.3,110.39 49.31,109.82 C49.32,109.25 49.2,108.67 48.99,108.04 C48.57,106.78 47.78,105.32 46.7,103.66 C45.43,101.73 43.75,99.56 41.76,97.27 L48.72,97.27 L48.72,99.61 L52.13,96.19 L48.72,92.62 L48.72,95.15 L41.6,95.15 C43.66,92.79 45.4,90.55 46.7,88.57 C47.78,86.92 48.57,85.45 48.99,84.19 C49.2,83.56 49.32,82.98 49.31,82.41 C49.3,81.84 49.13,81.24 48.69,80.8 C48.26,80.37 47.66,80.18 47.09,80.17 C46.53,80.15 45.94,80.26 45.31,80.46 C44.04,80.86 42.57,81.62 40.89,82.68 C38.91,83.94 36.66,85.63 34.3,87.64 L34.3,80.54 L36.64,80.54 Z M36.59,47.35 L43.58,47.35 L43.67,53.08 L33.83,53.75 L34.06,48.3 Z M24.17,47.33 L31.01,47.34 L31.31,53.07 L21.37,53.74 L21.73,48.3 Z M39.15,39.5 L46.68,39.51 L46.14,45.51 L36.34,46.21 L36.71,40.21 Z M26.78,39.49 L34.05,39.5 L33.78,45.51 L23.9,46.2 L24.37,40.21 Z M37.59,33.87 L36.43,37.41 L26.99,38.36 L26.28,34.35 L25.21,33.99 L24.09,37.41 L16.13,38.35 L16.13,39.48 L21.65,39.49 L21.45,45.51 L14.32,46.19 L14.32,47.32 L18.58,47.33 L18.97,53.08 L12.54,53.73 L12.54,54.86 L16.05,54.86 L17.22,58.46 L18.29,58.81 L19.26,55.86 L28.51,54.88 L29.6,58.33 L30.67,58.68 L31.59,55.87 L41.04,54.89 L41.92,58.44 L43,58.79 L43.95,55.88 L51.01,54.9 L51.01,53.77 L46.36,53.76 L46.42,48.31 L52.79,47.36 L52.79,46.23 L48.92,46.22 L49.07,40.21 L54.6,39.52 L54.6,38.39 L52.01,38.38 L50.99,34.33 L49.91,33.97 L48.78,37.43 L39.39,38.37 L38.66,34.22 Z M11.72,0 C5.27,0 0,5.27 0,11.72 L0,180.17 C0,186.62 5.27,191.89 11.72,191.89 L236.47,191.89 C242.91,191.89 248.19,186.62 248.19,180.17 L248.19,11.72 C248.19,5.27 242.91,0 236.47,0 Z M11.72,5.29 L236.47,5.29 C240.07,5.29 242.89,8.11 242.89,11.72 L242.89,180.17 C242.89,183.78 240.07,186.6 236.47,186.6 L11.72,186.6 C8.11,186.6 5.29,183.78 5.29,180.17 L5.29,11.72 C5.29,8.11 8.11,5.29 11.72,5.29 Z" fill="none" stroke="currentColor" stroke-width="1.5"/><path d="M224.06,96.12 Z M40.01,96.12 Z" fill="none" stroke="currentColor" stroke-width="1.5"/></svg>