<svg xmlns="http://www.w3.org/2000/svg" viewBox="0 0 190.99 191.89" width="24" height="24"><path d="M94.48,50.41 C119.69,50.41 140.06,70.78 140.06,95.99 C140.06,121.2 119.69,141.57 94.48,141.57 C69.26,141.57 48.89,121.2 48.89,95.99 C48.89,70.78 69.26,50.41 94.48,50.41 Z M79.22,77.92 L79.22,104.41 C79.22,109.14 81.06,113.21 84.01,115.8 C86.95,118.4 90.74,119.52 94.47,119.52 C98.4,119.52 102.28,118.29 105.3,115.7 C108.32,113.11 110.31,109.06 110.31,104.41 L110.31,77.92 L102.31,77.92 L102.31,104.41 C102.31,106.94 101.45,108.45 100.09,109.62 C98.72,110.79 96.69,111.52 94.47,111.52 C92.35,111.52 90.51,110.88 89.29,109.8 C88.07,108.73 87.22,107.24 87.22,104.41 L87.22,77.92 Z M11.72,0 C5.27,0 0,5.27 0,11.72 L0,180.17 C0,186.62 5.27,191.89 11.72,191.89 L179.27,191.89 C185.72,191.89 190.99,186.62 190.99,180.17 L190.99,11.72 C190.99,5.27 185.72,0 179.27,0 Z M11.72,5.29 L179.27,5.29 C182.88,5.29 185.7,8.11 185.7,11.72 L185.7,180.17 C185.7,183.78 182.88,186.6 179.27,186.6 L11.72,186.6 C8.11,186.6 5.29,183.78 5.29,180.17 L5.29,11.72 C5.29,8.11 8.11,5.29 11.72,5.29 Z M45.54,23.83 L30.11,43.33 L60.98,43.33 Z M148.24,31.32 L148.24,62.18 L167.74,46.75 Z M94.49,43.56 L94.49,43.61 C94.48,43.61 94.48,43.61 94.48,43.61 C74.84,43.61 57.7,54.46 48.73,70.49 L48.73,45.68 L42.35,45.68 L42.35,90.74 C42.18,92.47 42.09,94.22 42.09,95.99 C42.09,115.75 53.08,132.98 69.26,141.9 L44.09,141.9 L44.09,148.28 L91.29,148.28 C92.34,148.34 93.41,148.38 94.48,148.38 C114.27,148.38 131.52,137.35 140.43,121.12 L140.43,146.37 L146.81,146.37 L146.81,98.3 C146.84,97.53 146.86,96.76 146.86,95.99 C146.86,76.13 135.76,58.82 119.44,49.94 L145.89,49.94 L145.89,43.56 Z M41.74,129.65 L22.24,145.09 L41.74,160.52 Z M128.19,148.72 L143.62,168.22 L159.05,148.72 Z" fill="none" stroke="currentColor" stroke-width="1.5"/></svg>