<svg xmlns="http://www.w3.org/2000/svg" viewBox="0 0 721.85 725.26" width="24" height="24"><path d="M511,109.64 C500.72,109.64 491.38,111.38 482.97,114.85 C474.57,118.32 468.18,123.43 463.81,130.16 C459.43,136.83 457.25,144.02 457.25,151.72 C457.25,158.74 459.02,165.09 462.56,170.79 C466.17,176.41 471.62,181.14 478.91,184.96 C484.54,187.94 494.36,191.13 508.39,194.54 C522.42,197.87 531.48,200.34 535.58,201.93 C541.97,204.36 546.55,207.38 549.33,211 C552.11,214.54 553.5,218.7 553.5,223.5 C553.5,228.22 552.04,232.59 549.12,236.62 C546.27,240.58 541.9,243.7 536,246 C530.09,248.29 523.29,249.43 515.58,249.43 C506.9,249.43 499.09,247.94 492.14,244.96 C485.2,241.9 480.06,237.94 476.72,233.08 C473.46,228.15 471.38,221.86 470.47,214.22 L451.41,215.89 C451.69,226.1 454.47,235.27 459.75,243.39 C465.09,251.45 472.42,257.49 481.72,261.52 C491.1,265.55 502.7,267.56 516.52,267.56 C527.42,267.56 537.21,265.58 545.89,261.62 C554.64,257.59 561.34,252 566,244.85 C570.65,237.63 572.97,229.96 572.97,221.83 C572.97,213.64 570.86,206.41 566.62,200.16 C562.38,193.84 555.82,188.63 546.93,184.54 C540.82,181.76 529.54,178.53 513.08,174.85 C496.69,171.1 486.55,167.45 482.66,163.91 C478.7,160.37 476.72,155.86 476.72,150.37 C476.72,144.05 479.5,138.67 485.06,134.22 C490.68,129.71 499.61,127.46 511.83,127.46 C523.57,127.46 532.42,129.92 538.39,134.85 C544.43,139.78 547.98,147.07 549.02,156.72 L568.39,155.27 C568.05,146.31 565.55,138.29 560.89,131.21 C556.24,124.12 549.57,118.77 540.89,115.16 C532.28,111.48 522.32,109.64 511,109.64 Z M161.93,112.25 L161.93,200.47 C161.93,209.18 162.5,216.9 163.63,223.64 L120.56,203.94 L166.07,234.08 C166.59,235.74 167.15,237.32 167.77,238.81 C171.66,248.11 178.15,255.23 187.25,260.16 C195.04,264.39 204.76,266.8 216.38,267.4 L322.27,337.54 L141.75,337.22 L350.19,460.99 L192,482.08 L602.67,637.79 L365.39,503.48 L502.49,503.79 L275.44,369.79 L479.84,368.24 L249.92,263.1 C252.82,261.98 255.51,260.66 257.97,259.12 C267.07,253.43 273.36,246.06 276.83,237.04 C280.3,228.01 282.04,215.82 282.04,200.47 L282.04,112.25 L261.83,112.25 L261.83,200.37 C261.83,219.54 258.67,232.49 252.35,239.22 C246.03,245.96 235.44,249.33 220.58,249.33 C220.3,249.33 220.04,249.31 219.77,249.31 L188.54,235.03 C187.46,233.4 186.54,231.64 185.79,229.75 C183.36,223.43 182.14,213.64 182.14,200.37 L182.14,112.25 Z M315.79,112.25 L315.79,264.96 L336,264.96 L336,202.87 L375.16,202.87 C396.76,202.87 411.69,198.39 419.96,189.43 C428.22,180.41 432.35,169.4 432.35,156.41 C432.35,148.84 430.79,141.9 427.66,135.58 C424.61,129.26 420.54,124.36 415.47,120.89 C410.41,117.35 404.12,114.96 396.62,113.71 C391.27,112.73 383.53,112.25 373.39,112.25 Z M336,130.27 L375.06,130.27 C384.23,130.27 390.51,130.72 393.91,131.62 C399.19,133.08 403.43,136.1 406.62,140.68 C409.88,145.2 411.52,150.65 411.52,157.04 C411.52,165.86 408.77,172.7 403.29,177.56 C397.8,182.42 388.53,184.85 375.47,184.85 L336,184.85 Z M44.28,20 L677.57,20 C691.2,20 701.86,30.66 701.86,44.28 L701.86,680.96 C701.86,694.59 691.2,705.25 677.57,705.25 L44.28,705.25 C30.66,705.25 20,694.59 20,680.96 L20,44.28 C20,30.66 30.66,20 44.28,20 Z M44.28,0 C19.92,0 0,19.92 0,44.28 L0,680.96 C0,705.33 19.92,725.26 44.28,725.26 L677.57,725.26 C701.93,725.26 721.85,705.33 721.85,680.96 L721.85,44.28 C721.85,19.92 701.93,0 677.57,0 Z" fill="none" stroke="currentColor" stroke-width="1.5"/></svg>