<svg xmlns="http://www.w3.org/2000/svg" viewBox="0 0 1931.91 2019.65" width="24" height="24"><path d="M1806.82,997.75 L1261.27,997.75 C1242.21,965.66 1220.27,933.94 1195.32,903.44 C1123.86,816.03 1026.92,739.28 903.99,695.92 C1000.84,626.1 1064.02,512.35 1064.02,384.14 C1064.02,172.37 891.65,0 679.88,0 C468.11,0 295.73,172.37 295.73,384.14 C295.73,512 358.58,625.47 454.97,695.34 C167.91,795.19 0,1082.84 0,1369.48 L0,1603.67 L667.49,1603.67 L667.49,1703.13 C667.49,1771.88 723.83,1828.22 792.58,1828.22 L1181.29,1828.22 L1181.29,1912.07 L1010.41,1912.07 C980.51,1911.63 956.04,1935.74 956.04,1965.63 C956.04,1995.52 980.51,2019.65 1010.41,2019.2 L1588.99,2019.2 C1618.88,2019.65 1643.35,1995.53 1643.35,1965.63 C1643.35,1935.73 1618.88,1911.63 1588.99,1912.07 L1418.1,1912.07 L1418.1,1828.22 L1806.82,1828.22 C1875.56,1828.22 1931.91,1771.88 1931.91,1703.13 L1931.91,1122.84 C1931.91,1054.09 1875.56,997.75 1806.82,997.75 L1806.82,997.75 Z" fill="none" stroke="currentColor" stroke-width="1.5"/><path d="M1806.82,1062.03 L792.58,1062.03 C758.33,1062.03 731.77,1088.59 731.77,1122.84 L731.77,1703.13 C731.77,1737.38 758.33,1763.94 792.58,1763.94 L1806.82,1763.94 C1841.06,1763.94 1867.62,1737.38 1867.62,1703.13 L1867.62,1122.84 C1867.62,1088.59 1841.06,1062.03 1806.82,1062.03 Z M1779.72,1693.99 L819.67,1693.99 L819.67,1129.63 L1779.72,1129.63 L1779.72,1693.99 Z M1197.9,997.75 L792.58,997.75 C723.83,997.75 667.49,1054.09 667.49,1122.84 L667.49,1550.11 L53.57,1550.11 L53.57,1369.48 C53.57,1088.56 223.8,808.2 517.36,732.15 C566.75,755.31 621.83,768.28 679.88,768.28 C737.93,768.28 792.5,755.43 841.72,732.46 C976.4,767.89 1079.02,845.84 1153.85,937.36 C1169.86,956.94 1184.52,977.18 1197.9,997.75 Z M999.74,384.14 C999.74,561.18 856.91,704.01 679.88,704.01 C502.85,704.01 360.02,561.18 360.02,384.14 C360.02,207.1 502.84,64.28 679.88,64.28 C856.92,64.28 999.74,207.11 999.74,384.14 L999.74,384.14 Z" fill="none" stroke="currentColor" stroke-width="1.5"/></svg>