<svg xmlns="http://www.w3.org/2000/svg" viewBox="0 0 196.97 196.97" width="24" height="24"><path d="M91.11,33.33 C86.95,33.33 83.6,36.68 83.6,40.85 L83.6,55.79 C83.6,59.95 86.95,63.3 91.11,63.3 L95.19,63.3 L95.19,82.14 L35.27,82.14 C31.01,82.14 27.57,85.57 27.57,89.84 L27.57,104.2 C27.57,108.46 31.01,111.9 35.27,111.9 L43.93,111.9 L43.93,130.29 L50.51,111.9 L78.11,111.9 L78.11,130.29 L84.69,111.9 L112.28,111.9 L112.28,130.29 L118.86,111.9 L146.45,111.9 L146.45,130.29 L153.04,111.9 L161.7,111.9 C165.96,111.9 169.4,108.46 169.4,104.2 L169.4,89.84 C169.4,85.57 165.96,82.14 161.7,82.14 L101.78,82.14 L101.78,63.3 L105.86,63.3 C110.02,63.3 113.37,59.95 113.37,55.79 L113.37,40.85 C113.37,36.68 110.02,33.33 105.86,33.33 Z M98.48,2.5 C151.51,2.5 194.47,45.46 194.47,98.48 C194.47,151.51 151.51,194.47 98.48,194.47 C45.46,194.47 2.5,151.51 2.5,98.48 C2.5,45.46 45.46,2.5 98.48,2.5 Z M98.48,0 C44.11,0 0,44.11 0,98.48 C0,152.86 44.11,196.97 98.48,196.97 C152.86,196.97 196.97,152.86 196.97,98.48 C196.97,44.11 152.86,0 98.48,0 Z" fill="none" stroke="currentColor" stroke-width="1.5"/></svg>