<svg xmlns="http://www.w3.org/2000/svg" viewBox="0 0 938.03 725.26" width="24" height="24"><path d="M812.97,110.76 L124.44,111.16 C115.9,111.17 108.59,116.02 103.11,122.55 C97.63,129.07 93.38,137.54 89.9,147.21 C82.94,166.54 79.19,190.77 79.19,213.26 C79.19,238.73 83.29,264.29 90.39,284.16 C93.94,294.09 98.2,302.62 103.56,309.15 C108.91,315.67 115.94,320.57 124.25,320.57 L124.26,320.57 L814.5,320.06 C822.31,320.06 828.96,315.45 833.88,309.3 C838.81,303.15 842.65,295.12 845.84,285.61 C852.22,266.57 855.81,241.5 855.81,214.63 C855.81,192.81 852.93,168.25 846.74,148.38 C843.65,138.44 839.78,129.65 834.5,122.8 C829.21,115.96 821.78,110.76 812.98,110.76 Z M812.98,125.88 C816.05,125.88 818.98,127.43 822.53,132.04 C826.09,136.65 829.55,144.01 832.3,152.87 C837.82,170.58 840.69,194.18 840.69,214.63 C840.69,240.12 837.14,263.98 831.51,280.8 C828.69,289.21 825.31,295.82 822.09,299.85 C818.87,303.87 816.42,304.95 814.5,304.95 C812.74,304.95 810.03,303.78 806.59,299.64 C803.14,295.5 799.49,288.81 796.39,280.43 C790.2,263.68 786.06,240.27 786.06,216.13 C786.06,194.27 790.05,170.37 796.06,152.57 C799.07,143.67 802.62,136.29 806,131.65 C809.38,127.01 812.03,125.88 812.98,125.88 Z M791.95,125.89 C788.03,132.02 784.6,139.25 781.73,147.73 C775.07,167.46 770.94,192.47 770.94,216.13 C770.94,241.97 775.21,266.73 782.21,285.68 C784.99,293.2 788.34,299.49 792.1,304.96 L124.25,305.45 C121.9,305.45 118.92,304.03 115.24,299.56 C111.57,295.08 107.79,287.91 104.63,279.07 C98.31,261.39 94.31,237.08 94.31,213.26 C94.31,192.5 97.96,169.45 104.13,152.33 C107.21,143.77 110.96,136.72 114.69,132.28 C118.42,127.83 121.55,126.28 124.45,126.28 Z M596.97,142.17 L596.97,191.76 L231.82,191.76 L231.82,239.56 L596.97,239.56 L596.97,289.15 L703.41,215.66 Z M812.97,407.35 L124.44,407.76 C115.9,407.76 108.59,412.62 103.11,419.14 C97.62,425.67 93.38,434.13 89.9,443.8 C82.94,463.14 79.19,487.37 79.19,509.85 C79.19,535.33 83.29,560.89 90.39,580.75 C93.94,590.69 98.2,599.22 103.56,605.74 C108.91,612.26 115.94,617.16 124.25,617.16 L124.26,617.16 L814.5,616.66 C822.31,616.66 828.96,612.04 833.88,605.89 C838.81,599.74 842.65,591.72 845.84,582.2 C852.22,563.17 855.81,538.09 855.81,511.22 C855.81,489.4 852.93,464.84 846.74,444.97 C843.65,435.03 839.78,426.25 834.5,419.4 C829.21,412.55 821.78,407.35 812.98,407.35 Z M812.98,422.47 C816.05,422.47 818.98,424.03 822.53,428.63 C826.09,433.24 829.55,440.6 832.3,449.46 C837.82,467.18 840.69,490.77 840.69,511.22 C840.69,536.71 837.14,560.58 831.51,577.39 C828.69,585.8 825.31,592.42 822.09,596.44 C818.87,600.46 816.42,601.54 814.5,601.54 C812.74,601.54 810.03,600.37 806.59,596.23 C803.14,592.1 799.49,585.4 796.39,577.03 C790.2,560.27 786.06,536.86 786.06,512.73 C786.06,490.86 790.05,466.96 796.06,449.16 C799.07,440.26 802.62,432.88 806,428.24 C809.38,423.6 812.03,422.47 812.98,422.47 Z M791.95,422.48 C788.03,428.61 784.6,435.84 781.73,444.33 C775.07,464.05 770.94,489.07 770.94,512.73 C770.94,538.56 775.21,563.33 782.21,582.27 C784.99,589.8 788.34,596.08 792.1,601.55 L124.25,602.04 C121.9,602.04 118.92,600.63 115.24,596.15 C111.57,591.67 107.79,584.51 104.63,575.67 C98.31,557.98 94.31,533.67 94.31,509.85 C94.31,489.09 97.96,466.05 104.13,448.93 C107.21,440.37 110.96,433.31 114.69,428.87 C118.42,424.43 121.55,422.88 124.45,422.88 Z M312.65,438.77 L206.21,512.26 L312.65,585.75 L312.65,536.15 L677.79,536.15 L677.79,488.36 L312.65,488.36 Z M44.28,0 C19.92,0 0,19.92 0,44.28 L0,680.96 C0,705.33 19.92,725.26 44.28,725.26 L893.74,725.26 C918.1,725.26 938.03,705.33 938.03,680.96 L938.03,44.28 C938.03,19.92 918.1,0 893.74,0 Z M44.28,20 L893.74,20 C907.37,20 918.03,30.66 918.03,44.28 L918.03,680.96 C918.03,694.59 907.37,705.25 893.74,705.25 L44.28,705.25 C30.66,705.25 20,694.59 20,680.96 L20,44.28 C20,30.66 30.66,20 44.28,20 Z" fill="none" stroke="currentColor" stroke-width="1.5"/></svg>