<svg xmlns="http://www.w3.org/2000/svg" viewBox="0 0 938.03 725.26" width="24" height="24"><path d="M401.56,117.22 C390.98,117.29 380.18,118.14 369.21,119.84 C251.66,140.33 197.4,229.91 180.83,309.68 C137.16,324.69 96.13,361.42 96.13,415.17 C96.13,463.64 122.32,494.26 154.87,509.37 C162.96,513.13 171.39,516.09 179.98,518.45 L147.5,551.58 L177.19,580.69 L230.33,526.47 C237.55,526.99 244.61,527.31 251.35,527.53 C293.81,571.94 352.16,587.95 400.14,591.16 C467.24,592.84 519.08,562.68 563.05,521.98 C625.29,531.72 699.75,540.18 773.73,514.23 C837.08,486.55 856.51,422.77 835.48,376.27 C816.07,337.12 779.94,317.28 751.41,306.98 C740.27,285 728.49,261.02 699.98,239.71 C670.08,218.83 630.03,212.33 591.11,221.95 C553.81,164.34 486.52,118.35 406.09,117.23 C404.58,117.21 403.07,117.21 401.56,117.22 Z M401.84,143.69 C403.17,143.68 404.5,143.68 405.82,143.7 C480.15,144.83 542.12,189.44 573.73,243.28 C623.36,238.07 659.79,244.01 684.35,261.08 C709.61,280.04 718.13,299.62 730.33,323.48 C763.23,338.45 795.74,355.9 811.46,387.44 C826.11,420.19 814.66,467.23 764.4,489.43 C695.47,513.43 623.6,504.96 561.16,495.02 C507.68,538.94 462.13,566.15 401.63,564.73 C356.64,561.67 303.15,546.36 266.83,505.71 C256.56,501.29 255.8,501.26 255.06,501.24 L259.39,496.82 C282.47,513.73 310.91,523.73 341.63,523.73 C410.88,523.73 468.53,472.97 479.36,406.73 L495.23,456.89 L518.33,456.89 L533.57,399.09 L549.05,456.89 L571.91,456.89 L600.77,367.01 L577.32,367.01 L560.14,425.91 L545.16,367.01 L522.22,367.01 L506.74,425.91 L489.89,367.01 L480.13,367.01 C471.64,298.15 412.74,244.62 341.63,244.62 C264.72,244.62 202.08,307.26 202.08,384.18 C202.08,415.41 212.41,444.3 229.83,467.59 L201.82,496.17 C189.01,493.78 176.73,490.35 166.02,485.38 C139.91,473.25 122.59,454.95 122.59,415.17 C122.59,372.64 157.51,343.27 195.63,332.46 C218.32,247.88 264.14,165.07 373.41,145.97 C383.05,144.48 392.54,143.74 401.84,143.69 Z M341.63,271.08 C404.26,271.08 454.73,321.56 454.73,384.18 C454.73,446.8 404.26,497.27 341.63,497.27 C279.01,497.27 228.54,446.8 228.54,384.18 C228.54,321.56 279.01,271.08 341.63,271.08 Z M259.74,332.9 L289.37,456.98 L316.54,456.98 L341.16,364.22 L365.88,456.98 L392.45,456.98 L422.58,332.9 L397.36,332.9 L378.32,419.57 L356.57,332.9 L326.78,332.9 L304.09,418.13 L285.39,332.9 Z M621.03,366.34 L649.46,456.22 L672.57,456.22 L687.8,398.41 L703.29,456.22 L726.14,456.22 L755.01,366.34 L731.56,366.34 L714.38,425.24 L699.4,366.34 L676.46,366.34 L660.97,425.24 L644.13,366.34 Z M44.28,0 C19.92,0 0,19.92 0,44.28 L0,680.96 C0,705.33 19.92,725.26 44.28,725.26 L893.74,725.26 C918.1,725.26 938.03,705.33 938.03,680.96 L938.03,44.28 C938.03,19.92 918.1,0 893.74,0 Z M44.28,20 L893.74,20 C907.37,20 918.03,30.66 918.03,44.28 L918.03,680.96 C918.03,694.59 907.37,705.25 893.74,705.25 L44.28,705.25 C30.66,705.25 20,694.59 20,680.96 L20,44.28 C20,30.66 30.66,20 44.28,20 Z" fill="none" stroke="currentColor" stroke-width="1.5"/></svg>