<svg xmlns="http://www.w3.org/2000/svg" viewBox="0 0 2658.97 2055.84" width="24" height="24"><path d="M56.69,1253.36 L56.69,125.53 C56.69,86.9 86.9,56.69 125.53,56.69 L2533.44,56.69 C2572.07,56.69 2602.28,86.9 2602.28,125.53 L2602.28,1253.36 L56.69,1253.36 Z" fill="none" stroke="currentColor" stroke-width="1.5"/><rect x="0" y="0" width="0" height="0" fill="none" stroke="currentColor"/><path d="M2658.97,125.53 C2658.97,56.47 2602.5,0 2533.44,0 L125.53,0 C56.47,0 0,56.47 0,125.53 L0,1930.29 C0,1999.35 56.47,2055.84 125.53,2055.84 L2533.44,2055.84 C2602.5,2055.84 2658.97,1999.35 2658.97,1930.29 M339.95,506.19 C358.35,516.99 376.78,527.57 394.81,538.47 C503.56,596.62 626,640.24 755.05,671.36 L755.05,1227.93 L339.95,1227.93 L339.95,506.19 L339.95,506.19 Z M839.64,1227.93 L839.64,689.82 C975.14,716.37 1116.06,730.08 1254.73,733.08 L1254.73,1227.93 L839.64,1227.93 Z M1339.32,1227.93 L1339.32,733.62 C1485.04,732.26 1626.45,719.34 1754.42,697.43 L1754.42,1227.93 L1339.32,1227.93 Z M1839,1227.93 L1839,681.21 C1877.84,672.94 1915.13,663.84 1950.49,653.93 C2070.04,616.99 2170.89,580.03 2254.11,539.66 L2254.11,1227.93 L1839,1227.93 L1839,1227.93 Z M2602.28,1253.36 C2579.65,1226.8 2572.07,1227.93 2533.44,1227.93 L2338.69,1227.93 L2338.69,493.62 C2492.56,398.91 2564.04,281.97 2564.04,107.32 L100.75,105.18 C100.75,295.2 169.54,387.31 255.37,451.56 L255.37,1227.93 L125.53,1227.93 C86.9,1227.93 73.66,1231.11 56.69,1253.36 L56.69,125.53 C56.69,86.9 86.9,56.69 125.53,56.69 L2533.44,56.69 C2572.07,56.69 2602.28,86.9 2602.28,125.53 L2602.28,1253.36 Z" fill="none" stroke="currentColor" stroke-width="1.5"/><path d="M2315.49,1476.39 C2262.84,1476.39 2220.99,1503.57 2196.52,1535.46 C2183.24,1552.78 2173.23,1570.88 2164.25,1588.51 C2156.63,1576.39 2148.56,1564.33 2139.72,1553.06 C2116.71,1523.73 2085.92,1497.92 2044.98,1497.92 C2004.04,1497.92 1974,1521.93 1951.1,1550.65 C1941.16,1563.11 1932.19,1576.73 1923.64,1590.63 C1912.72,1571.93 1900.97,1552.81 1886.51,1534.94 C1861.75,1504.34 1823.14,1476.39 1774.44,1476.39 C1725.74,1476.39 1687.43,1503.54 1662.51,1534.01 C1648.01,1551.76 1636.25,1570.84 1625.28,1589.79 C1616.71,1575.79 1607.71,1562.19 1597.74,1549.8 C1574.77,1521.28 1543.95,1497.92 1503.92,1497.92 C1463.89,1497.92 1432.14,1523.44 1409.03,1552.73 C1399.32,1565.02 1390.57,1578.29 1382.33,1591.59 C1371.2,1573.4 1358.9,1554.37 1344.25,1536.62 C1318.98,1505.99 1281.95,1476.39 1233.4,1476.39 C1188.45,1476.39 1150.58,1500.34 1124.91,1529.82 C1109.03,1548.06 1095.91,1568.46 1083.41,1590.03 C1072.51,1573.78 1061.17,1558.74 1049.26,1545.64 C1024.6,1518.53 996.38,1497.92 962.88,1497.92 C926.52,1497.92 898.34,1524.14 873.08,1553.28 C862.32,1565.68 852.18,1579.15 842.74,1592.66 C831.99,1574.75 819.71,1555.71 805,1537.9 C779.31,1506.8 741.9,1476.39 692.36,1476.39 C642.82,1476.39 605.61,1504.55 578.9,1535.53 C565.32,1551.28 553.78,1568.33 543.75,1585.3 C536.69,1573.83 529,1562.56 520.44,1552.07 C496.39,1522.6 463.63,1497.92 421.85,1497.92 C380.07,1497.92 341.34,1523.7 313.22,1554.53 C286.21,1584.16 266.67,1618.46 265.18,1651.95 L243.51,1651.95 C243.51,1696.57 266.53,1734.24 297.3,1767.98 C328.07,1801.72 369.79,1831.62 421.85,1831.62 C473.91,1831.62 510.9,1801.69 537.14,1769.53 C549.42,1754.48 559.82,1738.41 568.96,1722.52 C576.86,1735.01 585.54,1747.2 595.2,1758.41 C619.66,1786.78 652.1,1810.08 692.36,1810.08 C732.62,1810.08 764.67,1785.11 788.39,1756.39 C798.96,1743.59 808.38,1729.73 817.02,1715.94 C828.87,1733.67 842.17,1751.97 856.8,1768.84 C883.6,1799.75 914.28,1831.62 962.88,1831.62 C1005.74,1831.62 1038.55,1806.11 1065.18,1776.83 C1080.92,1759.52 1095.3,1739.68 1108.82,1718.48 C1118.94,1735.14 1129.4,1750.55 1141.16,1764.05 C1164.41,1790.75 1195.14,1810.08 1233.4,1810.08 C1271.66,1810.08 1304.32,1785.94 1327.64,1757.67 C1338.35,1744.69 1347.96,1730.52 1356.96,1716.29 C1367.3,1733.55 1378.67,1751.57 1392.12,1768.61 C1417.09,1800.25 1454.23,1831.62 1503.92,1831.62 C1553.61,1831.62 1589.49,1802.78 1614.5,1771.73 C1628.16,1754.76 1639.71,1736.48 1650.43,1718.31 C1659.3,1733.09 1668.59,1747.4 1679.19,1760.36 C1701.86,1788.09 1733.25,1810.08 1774.44,1810.08 C1815.63,1810.08 1847.18,1787.44 1869.77,1759.52 C1880.33,1746.47 1889.61,1732.13 1898.45,1717.46 C1909.14,1735.43 1920.62,1753.7 1934.25,1770.8 C1959.11,1801.98 1996.49,1831.62 2044.98,1831.62 C2093.47,1831.62 2131.09,1802.87 2156.71,1771.57 C2170.11,1755.2 2181.48,1737.53 2191.78,1719.89 C2198.8,1732.35 2206.32,1744.83 2215.09,1756.58 C2236.73,1785.55 2269.43,1810.08 2315.49,1810.08 C2361.55,1810.08 2402.54,1780.91 2429.13,1748.51 C2455.72,1716.1 2472.28,1681.92 2472.28,1651.95 L2493.81,1651.95 C2493.81,1562.02 2419.93,1476.39 2315.49,1476.39 L2315.49,1476.39 Z M518.42,1633.03 C504.17,1662.16 487.87,1693.65 470.39,1715.08 C452.9,1736.51 438.59,1745.48 421.85,1745.48 C407.03,1745.48 381.1,1732.02 360.96,1709.93 C340.82,1687.85 329.65,1657.18 329.65,1651.95 L308.43,1651.95 C310.52,1635.65 324.11,1606.51 345.04,1583.56 C367.84,1558.56 397.72,1540.99 421.85,1540.99 C445.98,1540.99 467.4,1555.2 487.07,1579.31 C499.04,1593.99 509.89,1611.89 519.79,1630.25 C519.34,1631.16 518.86,1632.12 518.42,1633.03 Z M755.18,1728.95 C735.4,1752.89 715.59,1767.01 692.36,1767.01 C669.13,1767.01 647.8,1753.46 627.82,1730.29 C614.87,1715.26 603.05,1696.64 592.49,1677.54 C593.56,1675.36 594.76,1672.99 595.79,1670.88 C609.62,1642.61 626.4,1612.35 644.14,1591.78 C661.88,1571.21 676.89,1562.53 692.36,1562.53 C706.83,1562.53 720.78,1571.21 738.59,1592.77 C756.4,1614.34 773.59,1645.56 790.66,1674.07 C790.87,1674.43 791.11,1674.82 791.33,1675.18 C779.97,1694.27 768.06,1713.35 755.18,1728.95 L755.18,1728.95 Z M1001.45,1718.87 C982.71,1739.48 968.28,1745.48 962.88,1745.48 C962.88,1745.32 942.35,1736.01 921.89,1712.41 C902.25,1689.77 882.4,1659.29 866.96,1633.74 C878.85,1615.6 892.07,1597.1 905.62,1581.48 C927.8,1555.9 950.99,1540.99 962.88,1540.99 C977.65,1540.99 996.68,1551.85 1017.39,1574.62 C1031.4,1590.02 1045.63,1610.16 1059.55,1632.69 C1040.26,1667.37 1019.91,1698.59 1001.45,1718.87 L1001.45,1718.87 Z M1294.41,1730.27 C1275,1753.8 1256.46,1767.01 1233.4,1767.01 C1208.54,1767.01 1192.04,1756.9 1173.63,1735.76 C1160.52,1720.7 1147.69,1700 1134.01,1676.03 C1134.61,1674.96 1135.22,1673.91 1135.82,1672.83 C1156.29,1635.86 1173.89,1604.74 1189.87,1586.38 C1205.85,1568.02 1215.23,1562.53 1233.4,1562.53 C1247.96,1562.53 1260.33,1570.27 1277.8,1591.44 C1295.2,1612.53 1312.77,1644.06 1331.99,1674.56 C1319.67,1694.78 1307.39,1714.54 1294.41,1730.27 L1294.41,1730.27 Z M1547.41,1717.7 C1530.56,1738.63 1519.96,1745.48 1503.92,1745.48 C1489.53,1745.48 1477.27,1737.43 1459.75,1715.23 C1443.01,1694.02 1426.28,1663.06 1407.68,1633.17 C1419.22,1613.79 1430.69,1594.81 1442.85,1579.41 C1462.23,1554.85 1480.71,1540.99 1503.92,1540.99 C1527.13,1540.99 1545.3,1553.35 1564.19,1576.81 C1576.49,1592.08 1588.31,1611.75 1600.53,1632.7 C1580.9,1665.72 1563.79,1697.36 1547.41,1717.7 L1547.41,1717.7 Z M1676.14,1674.07 C1696.65,1639.78 1713.28,1607.99 1729.2,1588.52 C1745.12,1569.05 1754.5,1562.53 1774.44,1562.53 C1794.38,1562.53 1803.48,1569.25 1819.55,1589.11 C1835.62,1608.97 1852.29,1640.93 1873.05,1674.58 C1873.14,1674.72 1873.24,1674.89 1873.32,1675.03 C1860.66,1696.69 1848.8,1716.97 1836.29,1732.43 L1836.29,1732.43 C1818.04,1754.98 1801.24,1767.01 1774.44,1767.01 C1747.64,1767.01 1730.69,1755.33 1712.52,1733.1 L1676.14,1674.07 Z M2090.05,1717 C2072.89,1737.96 2060.77,1745.48 2044.98,1745.48 C2029.19,1745.48 2018.61,1738.4 2001.61,1717.08 C1985.24,1696.54 1968.25,1665.15 1948.59,1633 C1960.75,1612.42 1972.52,1592.86 1984.77,1577.5 C2003.73,1553.72 2021.16,1540.99 2044.98,1540.99 C2068.8,1540.99 2086.46,1554.96 2105.82,1579.64 C2117.98,1595.15 2129.5,1614.22 2141.15,1633.61 C2123.63,1665.42 2106.77,1696.56 2090.05,1717 Z M2217.96,1672.75 C2237.18,1637.87 2250.8,1606.23 2264.87,1587.89 C2278.94,1569.56 2287.06,1562.53 2315.49,1562.53 C2373.21,1562.53 2407.67,1608.78 2407.67,1651.95 L2429.21,1651.95 C2429.21,1660.89 2417.3,1695.02 2395.83,1721.18 L2395.83,1721.18 C2374.36,1747.34 2345.68,1767.01 2315.49,1767.01 C2283.26,1767.01 2266.79,1753.81 2249.61,1730.79 L2217.96,1672.75 Z" fill="none" stroke="currentColor" stroke-width="1.5"/></svg>