<svg xmlns="http://www.w3.org/2000/svg" viewBox="0 0 190.99 191.89" width="24" height="24"><path d="M102.87,62.61 L106.8,62.61 L106.8,64.4 C106.8,64.91 106.29,65.41 105.83,65.41 L103.74,65.41 C103.3,65.41 102.87,65.01 102.87,64.4 Z M107.39,38.01 C90.74,38.01 77.17,51.58 77.17,68.22 C77.17,84.87 90.74,98.44 107.39,98.44 C124.04,98.44 137.6,84.87 137.6,68.22 C137.6,51.58 124.04,38.01 107.39,38.01 Z M107.39,45.01 C114.21,45.01 120.32,47.92 124.56,52.56 L118.99,57.53 L115.24,56.97 L113.18,50.02 C113.02,49.46 112.72,49.16 112.12,49.16 L103.06,49.16 C102.28,49.16 101.88,49.49 101.63,50.34 L99.81,56.97 C96.76,57.22 93.08,58.18 93.08,59.35 C93.08,60.43 96.76,60.71 98.81,60.95 C98.19,62.73 98.03,64.39 98.76,66.48 L97.78,67.04 L97.76,69.62 C96.52,69.62 95.38,70.81 95.38,72.24 L95.38,78.58 L89.87,83.49 C86.32,79.42 84.17,74.08 84.17,68.22 C84.17,55.36 94.53,45.01 107.39,45.01 Z M128.01,57.52 C129.67,60.72 130.6,64.36 130.6,68.22 C130.6,81.09 120.25,91.44 107.39,91.44 C102.57,91.44 98.11,89.99 94.4,87.49 Z M114.23,60.89 L114.26,61.75 L112.52,63.3 L112.51,62.61 L109.53,62.61 L109.53,64.4 C109.53,65.17 109.87,65.3 110.22,65.35 L104.37,70.56 L104.38,67.87 C104.41,67.09 103.9,66.57 103.12,66.57 L101.95,66.57 C100.89,66.57 100.38,65.71 100.38,64.89 L100.37,61.86 C100.49,61.51 100.84,61.04 101.2,60.96 C105.65,61.51 109.96,61.27 114.23,60.89 Z M118.23,69.61 L108,78.76 L108,83.83 L116.55,83.83 C118.77,83.83 119.82,82.88 119.8,80.68 L119.8,72.45 C119.8,71.54 119.11,70.39 118.23,69.61 Z M106.85,79.92 L102.44,83.83 L106.85,83.83 Z M128.55,98.24 C133.39,105.91 137.23,114.83 139.79,125 C140.69,128.8 144.52,131.12 148.3,130.17 C152.09,129.22 154.36,125.36 153.36,121.59 C150.17,108.87 144.83,97.51 138.28,88.06 C135.97,91.52 132.47,94.9 128.55,98.24 Z M76,49.94 C70.69,49.17 65.14,48.79 59.71,48.91 C53.76,49.03 47.77,49.69 41.82,50.88 C37.98,51.59 35.46,55.31 36.23,59.14 C37,62.97 40.75,65.44 44.57,64.61 C53.5,62.82 62.43,62.34 71.08,63.19 C71.84,58.81 73.5,54.43 76,49.94 Z M98.83,103.91 C106.02,111.02 111.74,120.78 115.33,133.44 C116.35,137.21 120.25,139.42 124,138.36 C127.76,137.29 129.92,133.36 128.8,129.62 C125.97,119.63 121.77,111.03 116.54,103.8 C111.36,105.14 105.12,105.45 98.83,103.91 Z M72.13,76.15 C67.38,75.33 62.53,74.97 57.65,75.07 C53.21,75.17 48.75,75.64 44.31,76.5 C40.47,77.19 37.94,80.88 38.68,84.71 C39.41,88.54 43.13,91.03 46.95,90.25 C58.39,88.05 69.59,88.51 79.64,91.98 C76.17,87.63 73.15,82.85 72.13,76.15 Z M56.84,101.12 C53.76,101.28 50.64,101.76 47.49,102.56 C43.68,103.46 41.35,107.3 42.31,111.09 C43.28,114.89 47.16,117.15 50.94,116.13 C60.18,113.78 68.04,115.22 74.72,119.47 C81.4,123.72 86.94,131.05 90.17,141.11 C91.3,144.86 95.28,146.96 99.02,145.77 C102.75,144.57 104.77,140.54 103.5,136.84 C99.45,124.2 92.09,113.93 82.24,107.66 C74.84,102.95 66.08,100.64 56.84,101.12 Z M73.43,143.89 C73.43,150.83 67.8,156.46 60.86,156.46 C53.92,156.46 48.29,150.83 48.29,143.89 C48.29,136.95 53.92,131.32 60.86,131.32 C67.8,131.32 73.43,136.95 73.43,143.89 Z M11.72,5.29 L179.27,5.29 C182.88,5.29 185.7,8.11 185.7,11.72 L185.7,180.17 C185.7,183.78 182.88,186.6 179.27,186.6 L11.72,186.6 C8.11,186.6 5.29,183.78 5.29,180.17 L5.29,11.72 C5.29,8.11 8.11,5.29 11.72,5.29 Z M11.72,0 C5.27,0 0,5.27 0,11.72 L0,180.17 C0,186.62 5.27,191.89 11.72,191.89 L179.27,191.89 C185.72,191.89 190.99,186.62 190.99,180.17 L190.99,11.72 C190.99,5.27 185.72,0 179.27,0 Z" fill="none" stroke="currentColor" stroke-width="1.5"/></svg>