<svg xmlns="http://www.w3.org/2000/svg" viewBox="0 0 739.57 721.24" width="24" height="24"><path d="M115.05,0 L115.05,46.81 L121.95,46.81 L121.95,115.58 L119.96,115.58 C109.83,115.58 101.68,123.73 101.68,133.86 L101.68,245.39 L62.4,245.39 C27.99,245.39 0,273.39 0,307.79 L0,658.84 C0,693.24 27.99,721.24 62.4,721.24 L677.17,721.24 C711.58,721.24 739.57,693.24 739.57,658.84 L739.57,307.79 C739.57,273.39 711.58,245.39 677.17,245.39 L634.82,245.39 L634.82,133.86 C634.82,123.73 626.66,115.58 616.54,115.58 L614.55,115.58 L614.55,46.81 L621.45,46.81 L621.45,0 L587,0 L587,46.81 L593.9,46.81 L593.9,115.58 L591.91,115.58 C581.78,115.58 573.63,123.73 573.63,133.86 L573.63,245.39 L162.86,245.39 L162.86,133.86 C162.86,123.73 154.71,115.58 144.59,115.58 L142.6,115.58 L142.6,46.81 L149.5,46.81 L149.5,0 Z M62.4,264.28 L677.17,264.28 C701.43,264.28 720.67,283.53 720.67,307.79 L720.67,658.84 C720.67,683.1 701.43,702.34 677.17,702.34 L62.4,702.34 C38.13,702.34 18.9,683.1 18.9,658.84 L18.9,307.79 C18.9,283.53 38.13,264.28 62.4,264.28 Z M177.51,490.17 C163.85,490.17 153.08,498.11 145.56,506.83 C141.74,511.27 138.48,516.07 135.66,520.85 C133.67,517.62 131.51,514.44 129.1,511.49 C122.32,503.19 113.09,496.24 101.33,496.24 C89.29,496.24 78.66,503.5 70.74,512.18 C63.13,520.52 57.63,530.18 57.21,539.62 L51.11,539.62 C51.11,552.18 57.59,562.79 66.26,572.29 C74.92,581.79 86.67,590.21 101.33,590.21 C115.45,590.21 126.41,581.78 133.8,572.73 C137.26,568.49 140.18,563.96 142.76,559.49 C144.98,563.01 147.43,566.44 150.15,569.6 C157.04,577.59 166.17,584.15 177.51,584.15 C188.99,584.15 197.87,577.12 204.55,569.03 C207.53,565.42 210.18,561.52 212.62,557.64 C215.95,562.63 219.7,567.78 223.82,572.54 C231.37,581.24 240.01,590.21 253.7,590.21 C265.77,590.21 275,583.03 282.5,574.79 C286.93,569.91 290.99,564.32 294.79,558.35 C297.64,563.05 300.59,567.38 303.9,571.18 C310.45,578.7 319.1,584.15 329.88,584.15 C341.16,584.15 349.85,577.35 356.42,569.39 C359.43,565.73 362.14,561.74 364.68,557.73 C367.59,562.59 370.79,567.67 374.58,572.47 C381.61,581.38 392.07,590.21 406.06,590.21 C419.59,590.21 430.16,582.09 437.2,573.35 C441.05,568.57 444.3,563.42 447.32,558.3 C449.82,562.47 452.44,566.5 455.42,570.15 C461.8,577.96 470.65,584.15 482.24,584.15 C493.9,584.15 502.73,577.77 509.09,569.91 C512.07,566.23 514.68,562.2 517.17,558.06 C520.18,563.13 523.41,568.27 527.25,573.08 C534.25,581.87 544.78,590.21 558.43,590.21 C572.03,590.21 582.69,582.12 589.9,573.3 C593.67,568.69 596.87,563.72 599.78,558.75 C601.75,562.26 603.87,565.77 606.34,569.08 C612.44,577.24 621.64,584.15 634.62,584.15 C648.16,584.15 659.13,575.93 666.62,566.81 C674.1,557.68 678.77,548.05 678.77,539.62 L684.83,539.62 C684.83,514.29 664.03,490.17 634.62,490.17 C619.79,490.17 608,497.83 601.11,506.81 C597.37,511.69 594.55,516.79 592.02,521.75 C589.88,518.34 587.6,514.94 585.12,511.77 C578.63,503.5 569.96,496.24 558.43,496.24 C547.09,496.24 538.44,503 531.99,511.09 C529.19,514.6 526.67,518.43 524.26,522.35 C521.19,517.08 517.88,511.7 513.81,506.66 C506.83,498.05 495.96,490.17 482.24,490.17 C468.65,490.17 457.74,497.82 450.72,506.4 C446.64,511.4 443.33,516.77 440.24,522.11 C437.82,518.17 435.29,514.34 432.48,510.85 C426.01,502.82 417.34,496.24 406.06,496.24 C394.55,496.24 385.85,503.43 379.34,511.67 C376.6,515.13 374.14,518.87 371.82,522.62 C368.69,517.5 365.22,512.14 361.1,507.14 C353.98,498.51 343.55,490.17 329.88,490.17 C317.22,490.17 306.55,496.92 299.32,505.22 C294.85,510.36 291.16,516.1 287.64,522.18 C284.57,517.6 281.37,513.37 278.02,509.68 C271.08,502.04 263.13,496.24 253.7,496.24 C243.45,496.24 235.52,503.62 228.41,511.83 C225.38,515.32 222.52,519.11 219.86,522.92 C216.83,517.87 213.37,512.51 209.23,507.5 C202,498.74 191.46,490.17 177.51,490.17 Z M101.33,508.37 C108.39,508.37 114.16,512.37 119.7,519.16 C123.07,523.29 126.12,528.33 128.91,533.5 C128.79,533.76 128.65,534.03 128.53,534.29 C124.51,542.49 119.92,551.36 115,557.39 C110.07,563.43 106.04,565.96 101.33,565.96 C97.16,565.96 89.85,562.16 84.18,555.94 C78.51,549.72 75.37,541.09 75.37,539.62 L69.39,539.62 C69.98,535.03 73.8,526.82 79.7,520.36 C86.12,513.31 94.53,508.37 101.33,508.37 Z M253.7,508.37 C257.85,508.37 263.21,511.42 269.05,517.84 C272.99,522.17 277,527.85 280.92,534.19 C275.49,543.96 269.75,552.75 264.56,558.46 C259.28,564.27 255.22,565.96 253.7,565.96 C253.79,565.96 247.96,563.34 242.15,556.64 C236.62,550.26 231.03,541.68 226.68,534.49 C230.03,529.38 233.75,524.17 237.57,519.77 C243.81,512.57 250.35,508.37 253.7,508.37 Z M406.06,508.37 C412.83,508.37 417.71,511.85 423.04,518.46 C426.5,522.76 429.83,528.29 433.27,534.2 C427.74,543.49 422.92,552.4 418.31,558.13 C413.56,564.03 410.58,565.96 406.06,565.96 C402.01,565.96 398.56,563.69 393.62,557.44 C388.91,551.46 384.2,542.74 378.96,534.33 C382.21,528.87 385.44,523.52 388.86,519.19 C394.32,512.27 399.52,508.37 406.06,508.37 Z M558.43,508.37 C564.94,508.37 570.12,512.3 575.57,519.25 C578.99,523.62 582.24,528.99 585.52,534.45 C580.59,543.41 575.84,552.18 571.12,557.93 C566.29,563.84 562.88,565.96 558.43,565.96 C554.04,565.96 551.01,563.96 546.22,557.96 C541.61,552.17 536.83,543.33 531.29,534.28 C534.72,528.48 538.03,522.97 541.48,518.65 C546.82,511.95 551.73,508.37 558.43,508.37 Z M177.51,514.43 C181.58,514.43 185.52,516.88 190.53,522.95 C195.55,529.02 200.39,537.82 205.2,545.85 C205.26,545.95 205.32,546.06 205.38,546.16 C202.18,551.53 198.83,556.91 195.2,561.3 C189.63,568.04 184.05,572.02 177.51,572.02 C170.83,572.02 164.96,568.2 159.34,561.68 C155.69,557.44 152.36,552.2 149.39,546.82 C149.69,546.21 150.03,545.54 150.32,544.95 C154.21,536.99 158.94,528.47 163.93,522.67 C168.93,516.88 173.16,514.43 177.51,514.43 Z M329.88,514.43 C333.98,514.43 337.46,516.61 342.38,522.58 C347.28,528.51 352.23,537.39 357.64,545.98 C354.17,551.68 350.72,557.24 347.06,561.67 C341.59,568.3 336.37,572.02 329.88,572.02 C322.88,572.02 318.23,569.17 313.04,563.22 C309.35,558.98 305.74,553.15 301.89,546.4 C302.06,546.1 302.23,545.8 302.4,545.5 C308.16,535.08 313.12,526.32 317.62,521.15 C322.12,515.98 324.76,514.43 329.88,514.43 Z M482.24,514.43 C487.74,514.43 490.42,516.33 494.95,521.92 C499.48,527.51 504.17,536.51 510.02,545.99 C510.04,546.03 510.07,546.07 510.09,546.12 C506.52,552.21 503.19,557.93 499.66,562.28 C494.52,568.63 489.79,572.02 482.24,572.02 C474.64,572.02 469.92,568.73 464.81,562.47 C461.28,558.15 457.93,552.42 454.35,546.21 C454.42,546.09 454.49,545.96 454.56,545.85 C460.34,536.19 465.02,527.24 469.51,521.75 C473.99,516.27 476.63,514.43 482.24,514.43 Z M634.62,514.43 C650.87,514.43 660.57,527.46 660.57,539.62 L666.64,539.62 C666.64,542.13 663.29,551.75 657.24,559.11 C651.19,566.48 643.12,572.02 634.62,572.02 C625.54,572.02 620.9,568.3 616.06,561.82 C612.83,557.5 609.97,551.95 606.76,546.18 C606.89,545.95 607.02,545.7 607.15,545.47 C612.56,535.65 616.4,526.74 620.36,521.58 C624.32,516.41 626.61,514.43 634.62,514.43 Z" fill="none" stroke="currentColor" stroke-width="1.5"/></svg>