<svg xmlns="http://www.w3.org/2000/svg" viewBox="0 0 190.99 191.89" width="24" height="24"><path d="M11.72,5.29 L179.27,5.29 C182.88,5.29 185.7,8.11 185.7,11.72 L185.7,180.17 C185.7,183.78 182.88,186.6 179.27,186.6 L11.72,186.6 C8.11,186.6 5.29,183.78 5.29,180.17 L5.29,11.72 C5.29,8.11 8.11,5.29 11.72,5.29 Z M11.72,0 C5.27,0 0,5.27 0,11.72 L0,180.17 C0,186.62 5.27,191.89 11.72,191.89 L179.27,191.89 C185.72,191.89 190.99,186.62 190.99,180.17 L190.99,11.72 C190.99,5.27 185.72,0 179.27,0 Z M106.41,69.82 L67.24,69.82 L67.24,53.57 L31.72,77.35 L67.24,101.31 L67.24,85.2 L106.41,85.2 Z M87.7,141.84 L48.53,141.84 L48.53,125.58 L13.01,149.37 L48.53,173.32 L48.53,157.21 L87.7,157.21 Z M103.07,34.33 L142.25,34.33 L142.25,18.08 L177.76,41.87 L142.25,65.82 L142.25,49.71 L103.07,49.71 Z M84.1,106.35 L123.27,106.35 L123.27,90.09 L158.79,113.88 L123.27,137.84 L123.27,121.73 L84.1,121.73 Z" fill="none" stroke="currentColor" stroke-width="1.5"/></svg>