<svg xmlns="http://www.w3.org/2000/svg" viewBox="0 0 162.73 139.89" width="24" height="24"><path d="M19.04,16.25 L142.67,16.25 L142.67,91.76 L19.04,91.76 Z M16.13,7 L146.59,7 C151.71,7 155.73,11.01 155.73,16.13 L155.73,92.75 C155.73,97.87 151.71,101.89 146.59,101.89 L16.13,101.89 C11.01,101.89 7,97.87 7,92.75 L7,16.13 C7,11.01 11.01,7 16.13,7 Z M16.13,0 C7.26,0 0,7.26 0,16.13 L0,92.75 C0,101.63 7.26,108.89 16.13,108.89 L66.87,108.89 L66.87,124.85 L42.63,124.85 L119.34,139.85 L98.42,124.85 L98.42,108.89 L146.59,108.89 C155.47,108.89 162.73,101.63 162.73,92.75 L162.73,16.13 C162.73,7.26 155.47,0 146.59,0 Z" fill="none" stroke="currentColor" stroke-width="1.5"/></svg>