<svg xmlns="http://www.w3.org/2000/svg" viewBox="0 0 461.27 396.58" width="24" height="24"><path d="M415.54,0 L45.74,0 C20.57,0 0,20.57 0,45.74 L0,262.92 C0,288.09 20.57,308.66 45.74,308.66 L189.55,308.66 L189.55,353.9 L120.84,353.9 C109.1,353.74 99.45,363.13 99.29,374.88 C99.13,386.62 108.52,396.26 120.26,396.42 L338.28,396.42 C350.02,396.58 359.67,387.2 359.83,375.45 C359.99,363.71 350.6,354.06 338.86,353.9 L278.99,353.9 L278.99,308.66 L415.54,308.66 C440.7,308.66 461.27,288.09 461.27,262.92 L461.27,45.74 C461.27,20.57 440.7,0 415.54,0 Z" fill="none" stroke="currentColor" stroke-width="1.5"/><path d="M415.54,19.84 L45.74,19.84 C31.22,19.84 19.84,31.22 19.84,45.74 L19.84,262.92 C19.84,277.44 31.22,288.82 45.74,288.82 L415.54,288.82 C430.05,288.82 441.43,277.44 441.43,262.92 L441.43,45.74 C441.43,31.22 430.05,19.84 415.54,19.84 L415.54,19.84 Z M404.41,260.1 L53.96,260.1 L53.96,46.08 L404.41,46.08 L404.41,260.1 Z" fill="none" stroke="currentColor" stroke-width="1.5"/></svg>