<svg xmlns="http://www.w3.org/2000/svg" viewBox="0 0 321.0 174.0" width="24" height="24"><path d="M189,0 L189,59 L135,59 L135,0 Z" fill="none" stroke="currentColor" stroke-width="1.5"/><path d="M140,13 L140,72 L85,72 L85,13 Z" fill="none" stroke="currentColor" stroke-width="1.5"/><path d="M236,14 L236,73 L182,73 L182,14 Z" fill="none" stroke="currentColor" stroke-width="1.5"/><path d="M96,33 L96,92 L42,92 L42,33 Z" fill="none" stroke="currentColor" stroke-width="1.5"/><path d="M281,33 L281,92 L227,92 L227,33 Z" fill="none" stroke="currentColor" stroke-width="1.5"/><path d="M67,55 L67,127 L0,127 L0,55 Z" fill="none" stroke="currentColor" stroke-width="1.5"/><path d="M321,55 L321,127 L254,127 L254,55 Z" fill="none" stroke="currentColor" stroke-width="1.5"/><path d="M132,65 L132,150 L51,150 L51,65 Z" fill="none" stroke="currentColor" stroke-width="1.5"/><path d="M271,65 L271,151 L190,151 L190,65 Z" fill="none" stroke="currentColor" stroke-width="1.5"/><rect x="116" y="74" width="90" height="100" fill="none" stroke="currentColor"/></svg>