<svg xmlns="http://www.w3.org/2000/svg" viewBox="0 0 448.0 232.0" width="24" height="24"><rect x="58" y="55" width="377" height="147" fill="none" stroke="currentColor"/><path d="M58,55 L58,203 L436,203" fill="none" stroke="currentColor" stroke-width="1.5"/><path d="M120,55 L120,203" fill="none" stroke="currentColor" stroke-width="1.5"/><path d="M180,55 L180,203" fill="none" stroke="currentColor" stroke-width="1.5"/><path d="M240,55 L240,203" fill="none" stroke="currentColor" stroke-width="1.5"/><path d="M298,55 L298,203" fill="none" stroke="currentColor" stroke-width="1.5"/><path d="M358,55 L358,203" fill="none" stroke="currentColor" stroke-width="1.5"/><path d="M418,55 L418,203" fill="none" stroke="currentColor" stroke-width="1.5"/><path d="M57.33,70 L435.334,70" fill="none" stroke="currentColor" stroke-width="1.5"/><path d="M59.33,96.67 L434.667,96" fill="none" stroke="currentColor" stroke-width="1.5"/><path d="M58,124 L435.33,123.33" fill="none" stroke="currentColor" stroke-width="1.5"/><path d="M58,150 L436.67,150" fill="none" stroke="currentColor" stroke-width="1.5"/><path d="M58.67,177.33 L436,177.33" fill="none" stroke="currentColor" stroke-width="1.5"/><path d="M58,96 L120,96 L180,90 L240,90 L298,130 L358,103 L418,89" fill="none" stroke="currentColor" stroke-width="1.5"/><ellipse cx="59.0" cy="96.0" rx="4.0" ry="4.0" fill="none" stroke="currentColor"/><ellipse cx="120.0" cy="96.0" rx="4.0" ry="4.0" fill="none" stroke="currentColor"/><ellipse cx="181.0" cy="90.0" rx="4.0" ry="4.0" fill="none" stroke="currentColor"/><ellipse cx="240.0" cy="90.0" rx="4.0" ry="4.0" fill="none" stroke="currentColor"/><ellipse cx="298.0" cy="130.0" rx="4.0" ry="4.0" fill="none" stroke="currentColor"/><ellipse cx="358.0" cy="104.0" rx="4.0" ry="4.0" fill="none" stroke="currentColor"/><ellipse cx="418.0" cy="89.0" rx="4.0" ry="4.0" fill="none" stroke="currentColor"/></svg>