<svg xmlns="http://www.w3.org/2000/svg" viewBox="0 0 251.0 251.0" width="24" height="24"><rect x="0" y="0" width="250" height="250" fill="none" stroke="currentColor"/><path d="M15,0 L12.834,4.167 L6.001,0.167 Z" fill="none" stroke="currentColor" stroke-width="1.5"/><path d="M5.667,18.167 L13.834,18.5 L13.334,24.667 L21.501,26.5 L18.834,46.5 L9.834,44.5 L9.167,50.334 L1.334,49.334 L3.334,40.834 L0.334,40 L0.334,29 L5.334,25 Z" fill="none" stroke="currentColor" stroke-width="1.5"/><path d="M21.834,12 L19.167,9.167 L23.334,0.5 L39.334,0 Z" fill="none" stroke="currentColor" stroke-width="1.5"/><path d="M25.834,17.5 L42.001,7 L46.167,14.834 L28.501,25.5 Z" fill="none" stroke="currentColor" stroke-width="1.5"/><path d="M54.667,18 L60.501,27.667 L28.167,44.667 L29.834,40.5 L30.167,32.834 Z" fill="none" stroke="currentColor" stroke-width="1.5"/><path d="M47.667,3 L53.334,12 L57.834,9.167 L66.667,24.667 L82.834,17 L75.001,0.334 L51.834,0.167 Z" fill="none" stroke="currentColor" stroke-width="1.5"/><path d="M89.667,14.667 L82.834,0.167 L101.667,0.167 L114.001,7.167 L101.167,19.167 Z" fill="none" stroke="currentColor" stroke-width="1.5"/><path d="M95.834,24.5 L93.667,24 L89.501,14.167 L97.834,11.5 L102.501,18.167 Z" fill="none" stroke="currentColor" stroke-width="1.5"/><path d="M121.167,2.834 L118.334,0.334 L123.334,0.167 Z" fill="none" stroke="currentColor" stroke-width="1.5"/><path d="M128.001,9.334 L124.667,6.334 L131.001,0.167 L138.834,0.167 Z" fill="none" stroke="currentColor" stroke-width="1.5"/><path d="M157.834,5.167 L152.501,0.167 L162.501,0.334 Z" fill="none" stroke="currentColor" stroke-width="1.5"/><path d="M164.167,9.5 L172.501,1.334 L175.167,2.334 L171.834,12.667 Z" fill="none" stroke="currentColor" stroke-width="1.5"/><path d="M146.667,27.167 L161.167,13.667 L171.167,18.834 L163.167,41.167 Z" fill="none" stroke="currentColor" stroke-width="1.5"/><path d="M153.334,21 L161.167,14 L171.167,18.834 L167.501,28.5 Z" fill="none" stroke="currentColor" stroke-width="1.5"/><path d="M177.501,16.5 L180.501,7.167 L191.501,13.5 L181.501,23.667 Z" fill="none" stroke="currentColor" stroke-width="1.5"/><path d="M200.167,6 L192.834,0 L206.001,0 Z" fill="none" stroke="currentColor" stroke-width="1.5"/><path d="M207.001,6.334 L212.167,1.667 L226.001,10.834 L220.167,15.834 Z" fill="none" stroke="currentColor" stroke-width="1.5"/><path d="M224.001,23.167 L232.167,15.667 L250.001,27.834 L249.834,41.334 Z" fill="none" stroke="currentColor" stroke-width="1.5"/><path d="M231.834,6.167 L222.667,0.334 L233.667,0.167 L235.667,2 Z" fill="none" stroke="currentColor" stroke-width="1.5"/><path d="M243.834,5.5 L248.834,0.334 L250.334,0.5 L250.001,10.5 Z" fill="none" stroke="currentColor" stroke-width="1.5"/><path d="M184.334,28.834 L202.667,10 L216.334,19.334 L189.834,41 Z" fill="none" stroke="currentColor" stroke-width="1.5"/><path d="M176.001,30.167 L185.667,46.167 L176.501,53.334 L168.834,45.834 Z" fill="none" stroke="currentColor" stroke-width="1.5"/><path d="M204.501,38.667 L217.334,27.834 L227.501,35 L221.001,49 Z" fill="none" stroke="currentColor" stroke-width="1.5"/><path d="M225.667,52.334 L232.334,38 L247.501,48.167 L232.501,57.334 Z" fill="none" stroke="currentColor" stroke-width="1.5"/><path d="M238.501,60.667 L250.167,53.334 L249.834,68.167 Z" fill="none" stroke="currentColor" stroke-width="1.5"/><path d="M225.501,72.5 L232.501,66.167 L248.334,76.334 L239.834,84.667 Z" fill="none" stroke="currentColor" stroke-width="1.5"/><path d="M199.001,60 L203.167,47.5 L227.501,62.5 L213.001,71.5 Z" fill="none" stroke="currentColor" stroke-width="1.5"/><path d="M212.501,87.5 L215.001,80.834 L213.001,77.167 L220.834,75.834 L235.834,88.834 L229.001,98.334 Z" fill="none" stroke="currentColor" stroke-width="1.5"/><path d="M189.667,52.667 L198.167,43.5 L199.834,44.5 L199.334,47.334 L194.667,57 Z" fill="none" stroke="currentColor" stroke-width="1.5"/><path d="M165.334,69.5 L186.167,55.834 L191.001,60.167 L177.667,72.334 L181.667,77.167 L176.334,81.667 Z" fill="none" stroke="currentColor" stroke-width="1.5"/><path d="M183.334,73.334 L191.834,64 L199.001,69.834 L190.501,79.5 Z" fill="none" stroke="currentColor" stroke-width="1.5"/><path d="M199.501,78.334 L203.334,73.667 L208.334,78.334 L207.501,84.5 Z" fill="none" stroke="currentColor" stroke-width="1.5"/><path d="M196.834,98.5 L181.001,85.834 L185.501,82.334 L190.834,86.834 L195.001,83.167 L205.501,89.667 Z" fill="none" stroke="currentColor" stroke-width="1.5"/><path d="M201.834,101 L210.001,93 L225.167,104.5 L223.334,108.334 L217.834,110 Z" fill="none" stroke="currentColor" stroke-width="1.5"/><path d="M247.667,88.667 L241.167,98.334 L250.167,103 L250.334,90 Z" fill="none" stroke="currentColor" stroke-width="1.5"/><path d="M240.501,118.5 L243.667,114 L250.167,116.167 L249.667,123.167 Z" fill="none" stroke="currentColor" stroke-width="1.5"/><path d="M233.667,134.834 L237.167,124.667 L247.334,128.334 L241.667,136.667 Z" fill="none" stroke="currentColor" stroke-width="1.5"/><path d="M222.001,168.667 L231.334,142.834 L238.834,142.834 L249.334,147.167 L237.167,177 Z" fill="none" stroke="currentColor" stroke-width="1.5"/><path d="M242.501,180 L246.001,171.167 L250.001,172.334 L250.001,184 Z" fill="none" stroke="currentColor" stroke-width="1.5"/><path d="M248.334,166.167 L250.167,161.334 L250.167,166.167 Z" fill="none" stroke="currentColor" stroke-width="1.5"/><path d="M214.001,193.167 L220.334,176.667 L250.001,192.167 L249.834,211.5 Z" fill="none" stroke="currentColor" stroke-width="1.5"/><path d="M206.667,215.167 L212.167,200.5 L250.167,220 L250.001,235.334 Z" fill="none" stroke="currentColor" stroke-width="1.5"/><path d="M202.501,229.834 L205.001,223.167 L250.334,243.167 L250.334,246 L247.001,247.5 Z" fill="none" stroke="currentColor" stroke-width="1.5"/><path d="M200.667,236.167 L231.667,248.334 L230.834,249.834 L207.167,249.834 L196.834,246.5 Z" fill="none" stroke="currentColor" stroke-width="1.5"/><path d="M179.334,247.834 L178.001,250.5 L153.834,249.834 L157.501,239.5 Z" fill="none" stroke="currentColor" stroke-width="1.5"/><path d="M185.501,242 L164.001,233 L168.667,223.334 L189.334,232.334 Z" fill="none" stroke="currentColor" stroke-width="1.5"/><path d="M191.167,225.5 L173.667,217.167 L177.501,210.167 L193.834,217.334 Z" fill="none" stroke="currentColor" stroke-width="1.5"/><path d="M190.834,188.5 L202.001,195.167 L195.667,211.834 L180.834,205.5 Z" fill="none" stroke="currentColor" stroke-width="1.5"/><path d="M197.834,185 L205.667,168.667 L210.501,171.834 L204.167,188.667 Z" fill="none" stroke="currentColor" stroke-width="1.5"/><path d="M213.167,148.334 L217.167,150.167 L212.334,164.5 L207.667,162.167 Z" fill="none" stroke="currentColor" stroke-width="1.5"/><path d="M206.834,127.167 L212.001,116.5 L226.334,122.334 L223.001,132.5 Z" fill="none" stroke="currentColor" stroke-width="1.5"/><path d="M202.501,136.834 L204.834,132 L220.667,138.667 L218.334,144.667 Z" fill="none" stroke="currentColor" stroke-width="1.5"/><path d="M200.001,142 L204.001,144 L198.667,156.334 L194.001,154.167 Z" fill="none" stroke="currentColor" stroke-width="1.5"/><path d="M198.334,133.5 L189.167,151.334 L183.334,148.167 L192.501,131 Z" fill="none" stroke="currentColor" stroke-width="1.5"/><path d="M206.667,115.167 L200.167,128.334 L194.834,126 L200.667,113 Z" fill="none" stroke="currentColor" stroke-width="1.5"/><path d="M195.001,110.5 L177.334,145.334 L168.167,140.334 L190.334,108.167 Z" fill="none" stroke="currentColor" stroke-width="1.5"/><path d="M162.001,136.834 L157.167,134.167 L179.667,104.5 L183.501,105.834 Z" fill="none" stroke="currentColor" stroke-width="1.5"/><path d="M173.334,99 L153.167,127.667 L147.167,116.834 L167.834,94.334 Z" fill="none" stroke="currentColor" stroke-width="1.5"/><path d="M162.334,89.834 L142.001,112.167 L137.001,114.334 L124.501,117.167 L122.667,112.834 L128.834,109.5 L128.334,106.167 L155.667,82.834 Z" fill="none" stroke="currentColor" stroke-width="1.5"/><path d="M134.501,115.167 L124.667,117.334 L122.667,112.667 L129.001,109.5 L128.667,106.167 L130.001,104.834 Z" fill="none" stroke="currentColor" stroke-width="1.5"/><path d="M126.834,123.834 L140.834,120.667 L147.667,134.834 L133.501,140.834 Z" fill="none" stroke="currentColor" stroke-width="1.5"/><path d="M136.834,147.667 L152.501,140.167 L157.667,143.5 L142.834,163.667 Z" fill="none" stroke="currentColor" stroke-width="1.5"/><path d="M145.334,172.834 L164.001,146.334 L174.167,151.5 L151.667,189 Z" fill="none" stroke="currentColor" stroke-width="1.5"/><path d="M155.501,194.834 L164.334,182 L180.834,190 L173.001,201.5 Z" fill="none" stroke="currentColor" stroke-width="1.5"/><path d="M167.667,177.334 L180.167,156.334 L195.167,163.334 L184.501,184.834 Z" fill="none" stroke="currentColor" stroke-width="1.5"/><path d="M123.667,15.334 L138.167,28.834 L133.834,32.667 L122.501,23 Z" fill="none" stroke="currentColor" stroke-width="1.5"/><path d="M142.834,34 L169.667,58.5 L163.167,62.167 L139.334,38.334 Z" fill="none" stroke="currentColor" stroke-width="1.5"/><path d="M118.334,12.667 L116.667,25 L128.834,37.667 L121.334,44 L106.334,23.834 Z" fill="none" stroke="currentColor" stroke-width="1.5"/><path d="M134.167,42.834 L159.667,67.5 L146.667,78.834 L126.167,51.334 Z" fill="none" stroke="currentColor" stroke-width="1.5"/><path d="M121.334,56.334 L141.501,83.667 L126.834,96.334 L115.667,92.834 L107.501,71.834 Z" fill="none" stroke="currentColor" stroke-width="1.5"/><path d="M122.501,99.667 L116.834,98 L115.501,92.167 L121.834,88.334 L127.334,96.167 Z" fill="none" stroke="currentColor" stroke-width="1.5"/><path d="M94.167,56.667 L107.001,89.167 L100.834,94.834 L76.334,89.5 L78.001,76 L84.334,71.834 L80.501,63.834 Z" fill="none" stroke="currentColor" stroke-width="1.5"/><path d="M106.667,87.5 L108.501,92 L108.334,97.5 L100.667,94.834 L99.334,94.667 L101.167,87.167 Z" fill="none" stroke="currentColor" stroke-width="1.5"/><path d="M105.334,63.167 L101.167,52.334 L113.001,45.834 L116.001,50.167 Z" fill="none" stroke="currentColor" stroke-width="1.5"/><path d="M99.667,45.834 L95.001,35.334 L101.667,30.167 L108.667,40 Z" fill="none" stroke="currentColor" stroke-width="1.5"/><path d="M93.501,49.334 L77.167,58.5 L73.001,47.334 L88.667,39.334 Z" fill="none" stroke="currentColor" stroke-width="1.5"/><path d="M87.667,33 L71.001,42 L66.501,33.167 L84.001,24.167 Z" fill="none" stroke="currentColor" stroke-width="1.5"/><path d="M49.167,53 L44.001,45 L60.667,36.834 L65.167,44 Z" fill="none" stroke="currentColor" stroke-width="1.5"/><path d="M62.334,52.167 L67.001,60.334 L58.167,65.167 L53.334,61.667 L53.834,56.334 Z" fill="none" stroke="currentColor" stroke-width="1.5"/><path d="M40.001,47.667 L53.001,68.834 L44.667,73.834 L30.167,52.667 Z" fill="none" stroke="currentColor" stroke-width="1.5"/><path d="M47.667,77.834 L56.167,72.167 L72.501,75.667 L69.167,88.834 L56.667,91 Z" fill="none" stroke="currentColor" stroke-width="1.5"/><path d="M119.667,186.167 L138.667,173.667 L156.667,223.5 L153.167,227.334 Z" fill="none" stroke="currentColor" stroke-width="1.5"/><path d="M111.834,182.834 L141.167,216.667 L131.834,215.5 L106.834,186.834 Z" fill="none" stroke="currentColor" stroke-width="1.5"/><path d="M142.834,225 L152.001,232.167 L144.667,249.834 L105.834,250 Z" fill="none" stroke="currentColor" stroke-width="1.5"/><path d="M16.667,218 L36.834,240.167 L25.334,250.334 L7.334,250 L8.167,225 Z" fill="none" stroke="currentColor" stroke-width="1.5"/><path d="M0,232.5 L9.667,223.667 L23.001,238.167 L9.334,250.167 L0.167,250.5 Z" fill="none" stroke="currentColor" stroke-width="1.5"/><path d="M13.501,214.667 L0.334,225.167 L0.334,210.5 L6.167,206.667 Z" fill="none" stroke="currentColor" stroke-width="1.5"/><path d="M26.667,203.667 L22.167,198 L42.501,181.167 L42.167,176.5 L53.667,167.5 L59.001,168.834 L61.667,173 Z" fill="none" stroke="currentColor" stroke-width="1.5"/><path d="M25.667,174.334 L36.001,186.5 L30.167,190.834 L19.334,179.167 Z" fill="none" stroke="currentColor" stroke-width="1.5"/><path d="M33.167,168.667 L12.167,185.5 L0.167,170 L19.334,153.167 Z" fill="none" stroke="currentColor" stroke-width="1.5"/><path d="M62.667,160 L68.667,155.334 L75.167,162.5 L66.001,169.5 L62.501,166 Z" fill="none" stroke="currentColor" stroke-width="1.5"/><path d="M25.001,56 L50.834,95.167 L46.334,99.167 L53.334,108.5 L50.834,110.5 L30.334,81.834 L33.667,79.667 L24.501,65.834 L15.667,71.5 L21.834,82.834 L18.167,85 L12.001,77.334 L13.501,68 L22.167,62.667 Z" fill="none" stroke="currentColor" stroke-width="1.5"/><path d="M22.334,69.834 L28.167,77.5 L24.667,80.167 L19.667,71.667 Z" fill="none" stroke="currentColor" stroke-width="1.5"/><path d="M17.667,91.334 L27.001,84.667 L41.834,104.667 L37.667,107.5 L25.167,92.834 L20.834,95 Z" fill="none" stroke="currentColor" stroke-width="1.5"/><path d="M21.334,122.834 L19.667,121.5 L21.334,112.334 L33.001,113 Z" fill="none" stroke="currentColor" stroke-width="1.5"/><path d="M17.167,121.334 L14.834,121.667 L9.334,113.334 L16.834,113.667 Z" fill="none" stroke="currentColor" stroke-width="1.5"/><path d="M5.667,117.334 L13.001,123.667 L11.167,126.167 L4.501,122.5 Z" fill="none" stroke="currentColor" stroke-width="1.5"/><path d="M7.334,108.5 L8.834,94.834 L14.334,94.834 L17.167,98.5 L15.834,109.167 Z" fill="none" stroke="currentColor" stroke-width="1.5"/><path d="M10.501,81.667 L15.167,86.667 L10.167,88.667 Z" fill="none" stroke="currentColor" stroke-width="1.5"/><path d="M4.001,92.5 L0.334,108.834 L0.667,92 Z" fill="none" stroke="currentColor" stroke-width="1.5"/><path d="M48.667,114.834 L23.501,133.667 L25.334,136 L50.167,117.834 Z" fill="none" stroke="currentColor" stroke-width="1.5"/><path d="M20.167,136.167 L21.334,137.667 L9.167,147.167 L8.501,145.667 Z" fill="none" stroke="currentColor" stroke-width="1.5"/><path d="M39.834,134.167 C39.834,134.167 54.501,121.667 54.501,121.667 C54.501,121.667 69.501,137.834 69.501,137.834 C69.501,137.834 54.334,151.667 54.334,151.667 C54.334,151.667 51.334,149.167 51.334,149.167 C51.334,149.167 42.501,138.167 42.501,138.167 C42.501,138.167 39.667,134.334 39.667,134.334 Z" fill="none" stroke="currentColor" stroke-width="1.5"/><path d="M36.667,137.167 C36.667,137.167 39.667,141.167 39.667,141.167 C39.667,141.167 46.834,152.5 46.834,152.5 C46.834,152.5 49.667,155.834 49.667,155.834 C49.667,155.834 35.834,167.667 35.834,167.667 C35.834,167.667 21.501,149.834 21.501,149.834 C21.501,149.834 37.001,137.167 37.001,137.167 Z" fill="none" stroke="currentColor" stroke-width="1.5"/><path d="M4.167,127.834 C4.167,127.834 6.001,128.667 6.001,128.667 C6.001,128.667 11.667,137.667 11.667,137.834 C11.667,138 0.667,146.834 0.667,146.834 C0.667,146.834 0.334,131.334 0.334,131.334 C0.334,131.334 4.167,128 4.167,128 Z" fill="none" stroke="currentColor" stroke-width="1.5"/><ellipse cx="17.084" cy="130.0005" rx="3.25" ry="3.3335" fill="none" stroke="currentColor"/><path d="M23.834,125.167 L44.501,109.667 L46.834,113.167 L26.501,128.834 Z" fill="none" stroke="currentColor" stroke-width="1.5"/><path d="M4.501,88.167 L6.667,79.334 L0.334,87.5 L4.334,88.334 Z" fill="none" stroke="currentColor" stroke-width="1.5"/><path d="M0.667,65.667 L11.001,67.5 L9.334,76 L0.501,65.334 Z" fill="none" stroke="currentColor" stroke-width="1.5"/><path d="M62.667,98.5 L128.001,143.834 L115.834,149 L122.501,166 L134.334,161.667 L138.834,174 L122.667,184.167 L111.667,172 L57.334,223.834 L42.167,207.667 L55.167,195 L73.334,186.5 L79.334,181.667 L81.334,183.834 L73.834,150.667 L82.834,141.667 L60.334,115 L68.501,106.667 L62.667,98.501 Z" fill="none" stroke="currentColor" stroke-width="1.5"/><path d="M247.567,138.167 L250.167,133.967 L250.167,139.367 Z" fill="none" stroke="currentColor" stroke-width="1.5"/><path d="M84.767,207.767 C84.767,207.767 100.967,192.767 100.967,192.767 C100.967,192.767 109.367,200.367 109.367,200.367 C109.367,200.367 89.967,210.167 89.967,210.167 C89.967,210.167 84.767,207.967 84.767,207.967 Z" fill="none" stroke="currentColor" stroke-width="1.5"/><path d="M81.767,210.367 L88.167,212.367 L81.567,227.967 L72.367,219.967 L81.767,210.367 Z" fill="none" stroke="currentColor" stroke-width="1.5"/><path d="M71.167,220.767 L103.167,233.967 L85.967,235.767 L75.767,232.767 L69.167,222.767 L71.167,220.767 Z" fill="none" stroke="currentColor" stroke-width="1.5"/><path d="M66.967,224.367 C66.967,224.367 73.367,232.967 73.367,232.967 C73.367,232.967 70.967,236.167 70.967,236.167 C70.967,236.167 79.567,242.167 79.567,242.167 C79.567,242.167 76.967,245.367 76.967,245.367 C76.967,245.367 57.567,233.767 57.567,233.767 C57.567,233.767 66.767,224.167 66.767,224.167 Z" fill="none" stroke="currentColor" stroke-width="1.5"/><path d="M82.167,242.167 C82.167,242.167 88.167,243.567 88.167,243.567 C88.167,243.567 87.767,249.567 87.767,249.567 C87.767,249.567 76.167,250.367 76.167,250.367 C76.167,250.367 82.167,242.367 82.167,242.367 Z" fill="none" stroke="currentColor" stroke-width="1.5"/><path d="M112.367,204.367 C112.367,204.367 115.767,207.567 115.767,207.567 C115.767,207.567 104.167,226.167 104.167,226.167 C104.167,226.167 92.967,222.967 92.967,222.967 C92.967,222.967 96.767,210.767 96.767,210.767 C96.767,210.767 112.367,204.367 112.367,204.367 Z" fill="none" stroke="currentColor" stroke-width="1.5"/><path d="M118.767,211.767 C118.767,211.767 122.567,216.367 122.567,216.367 C122.567,216.367 105.767,233.567 105.767,233.567 C105.767,233.567 104.567,230.567 104.567,230.567 C104.567,230.567 118.567,211.767 118.567,211.767 Z" fill="none" stroke="currentColor" stroke-width="1.5"/><path d="M125.767,218.167 L134.167,221.767 L95.967,250.167 L90.367,249.967 L90.967,244.167 Z" fill="none" stroke="currentColor" stroke-width="1.5"/><path d="M112.334,122.834 L119.667,134.334 L114.834,140.334 L104.834,130.167 Z" fill="none" stroke="currentColor" stroke-width="1.5"/><path d="M69.167,111.5 L79.167,102.667 L93.001,116.834 L82.001,127 Z" fill="none" stroke="currentColor" stroke-width="1.5"/><path d="M98.834,133.834 L107.334,142.167 L101.167,148.5 L93.167,139 Z" fill="none" stroke="currentColor" stroke-width="1.5"/><rect x="0.167" y="0.167" width="250" height="250" fill="none" stroke="currentColor"/></svg>