<svg xmlns="http://www.w3.org/2000/svg" viewBox="0 0 467.0 101.0" width="24" height="24"><rect x="264" y="23" width="203" height="78" fill="none" stroke="currentColor"/><rect x="0" y="23" width="203" height="78" fill="none" stroke="currentColor"/><rect x="0" y="0" width="203" height="23" fill="none" stroke="currentColor"/><rect x="264" y="0" width="203" height="23" fill="none" stroke="currentColor"/><path d="M193,34 L198,34 L195.5,29 Z" fill="none" stroke="currentColor" stroke-width="1.5"/><path d="M192.667,91 L197.667,91 L195.167,96 Z" fill="none" stroke="currentColor" stroke-width="1.5"/><path d="M187.5,23 L187.5,101" fill="none" stroke="currentColor" stroke-width="1.5"/><path d="M187.5,39.5 L203,39.5" fill="none" stroke="currentColor" stroke-width="1.5"/><path d="M187.5,85.5 L203,85.5" fill="none" stroke="currentColor" stroke-width="1.5"/><path d="M230.5,43 L236,45.5 L230.5,48" fill="none" stroke="currentColor" stroke-width="1.5"/><path d="M236,74 L230,76.5 L236,79" fill="none" stroke="currentColor" stroke-width="1.5"/><path d="M457,34 L462,34 L459.5,29 Z" fill="none" stroke="currentColor" stroke-width="1.5"/><path d="M456.667,91 L461.667,91 L459.167,96 Z" fill="none" stroke="currentColor" stroke-width="1.5"/><path d="M451.5,23 L451.5,101" fill="none" stroke="currentColor" stroke-width="1.5"/><path d="M451.5,39.5 L467,39.5" fill="none" stroke="currentColor" stroke-width="1.5"/><path d="M451.5,85.5 L467,85.5" fill="none" stroke="currentColor" stroke-width="1.5"/></svg>