<svg xmlns="http://www.w3.org/2000/svg" viewBox="0 0 23.0 219.0" width="24" height="24"><path d="M23,31 L0,31" fill="none" stroke="currentColor" stroke-width="1.5"/><path d="M23,57 L0,57" fill="none" stroke="currentColor" stroke-width="1.5"/><path d="M23,84 L0,84" fill="none" stroke="currentColor" stroke-width="1.5"/><path d="M22.6,109 L0,109" fill="none" stroke="currentColor" stroke-width="1.5"/><path d="M23,135 L0,135" fill="none" stroke="currentColor" stroke-width="1.5"/><path d="M23,161 L0,161" fill="none" stroke="currentColor" stroke-width="1.5"/><path d="M23,188 L0,188" fill="none" stroke="currentColor" stroke-width="1.5"/><path d="M9,0 L10,0 L5,214 L9,219 L14,5 Z" fill="none" stroke="currentColor" stroke-width="1.5"/><path d="M14,60 L5,60 L5,160 L14,160 Z" fill="none" stroke="currentColor" stroke-width="1.5"/><path d="M18,57 L14,62 L0,62 L0,52 L14,52 Z" fill="none" stroke="currentColor" stroke-width="1.5"/><path d="M18,161.2 L14,166.2 L0,166.2 L0,156.2 L14,156.2 Z" fill="none" stroke="currentColor" stroke-width="1.5"/></svg>