<svg xmlns="http://www.w3.org/2000/svg" viewBox="0 0 199.5 78.2" width="24" height="24"><path d="M111.5,78.2 L0,42.2 L0,20.1 L2.5,19.5 L11.5,22.2 L106.1,0 L199.5,29.2 L199.5,53.7 L114.2,72.7 L114.2,77.7 Z" fill="none" stroke="currentColor" stroke-width="1.5"/><path d="M104,52.3 L199.5,30.2 L199.5,53.7 L104,75.2 Z" fill="none" stroke="currentColor" stroke-width="1.5"/><path d="M192.1,41.3 L120.5,57.5 M192.1,47.1 L120.5,64.3" fill="none" stroke="currentColor" stroke-width="1.5"/><rect x="0" y="0" width="0" height="0" fill="none" stroke="currentColor"/><path d="M0,20.1 L111.5,55.3 L111.5,78.2 L0,42.2 Z" fill="none" stroke="currentColor" stroke-width="1.5"/><path d="M0,20.1 L2.5,19.5 L114.2,54.7 L111.5,55.3 Z" fill="none" stroke="currentColor" stroke-width="1.5"/><path d="M111.5,55.3 L114.2,54.7 L114.2,77.7 L111.5,78.2 Z" fill="none" stroke="currentColor" stroke-width="1.5"/><path d="M0,42.2 L0,20.1 L2.5,19.5 L18.5,24.5 L16,25 Z" fill="none" stroke="currentColor" stroke-width="1.5"/><rect x="0" y="0" width="0" height="0" fill="none" stroke="currentColor"/><path d="M3.06,24.12 L4.46,24.52 L2.96,24.52 Z" fill="none" stroke="currentColor" stroke-width="1.5"/><path d="M49.5,39.2 Z" fill="none" stroke="currentColor" stroke-width="1.5"/><path d="M46.5,14.2 L106.1,0 L199.5,29.2 L199.5,53.7 L195.1,54.6 L154.5,18.7 Z" fill="none" stroke="currentColor" stroke-width="1.5"/><rect x="0" y="0" width="0" height="0" fill="none" stroke="currentColor"/><path d="M3.28,38.68 L4.68,39.08 L3.18,39.08 Z M108.17,58.12 L109.57,58.52 L108.07,58.52 Z M107.83,72.57 L109.23,72.97 L107.73,72.97 Z" fill="none" stroke="currentColor" stroke-width="1.5"/><path d="M70.77,51.7 Z" fill="none" stroke="currentColor" stroke-width="1.5"/><path d="M70.67,52.45 Z" fill="none" stroke="currentColor" stroke-width="1.5"/><path d="M76.32,53.26 Z" fill="none" stroke="currentColor" stroke-width="1.5"/><path d="M76.22,54 Z" fill="none" stroke="currentColor" stroke-width="1.5"/><path d="M111.5,78.2 L0,42.2 L0,20.1 L2.5,19.5 L11.5,22.2 L106.1,0 L199.5,29.2 L199.5,53.7 L114.2,72.7 L114.2,77.7 Z Z" fill="none" stroke="currentColor" stroke-width="1.5"/><path d="M82.5,20.8 L88.9,16.9 Z" fill="none" stroke="currentColor" stroke-width="1.5"/><ellipse cx="103.5" cy="15.2" rx="3.5" ry="1.1" fill="none" stroke="currentColor"/><path d="M91.4,24.7 L102.7,20.4 L100.2,19.5 L103.3,18.4 L111.7,21.3 L108.8,22.5 L105.4,21.4 L94.4,25.7 Z M83.5,22 L97.6,16.5 L100.2,17.6 L86.5,23.2 Z M100.1,27.3 L114.3,22.1 L119.3,23.7 L110.3,30.9 L106.3,29.3 L107.4,26.7 L103.3,28.4 Z M111.2,25.1 Z M112.4,31.4 L126.7,26.3 L129.8,27.2 L115.6,32.5 Z" fill="none" stroke="currentColor" stroke-width="1.5"/><ellipse cx="109.5" cy="33.7" rx="3.5" ry="1.1" fill="none" stroke="currentColor"/><path d="M118,33.2 L130.5,31.7 L132.8,28.4 L136.7,29.7 L135.7,31.2 L140.8,30.9 L144.3,31.9 L134.4,32.7 L131.1,37.5 L127.6,36.2 L129.7,33.3 L121.3,34.3 Z" fill="none" stroke="currentColor" stroke-width="1.5"/></svg>