<svg xmlns="http://www.w3.org/2000/svg" viewBox="0 0 49.32 118.7" width="24" height="24"><path d="M0.24,7.38 L38.74,9.68 L39.74,0.68 L43.24,10.68 L48.24,12.18 L49.24,114.18 L2.74,107.18 Z" fill="none" stroke="currentColor" stroke-width="1.5"/><path d="M0.44,4.68 L48.24,12.18 Z" fill="none" stroke="currentColor" stroke-width="1.5"/><path d="M38.24,11.68 L39.74,0.68 L43.64,12.98 Z" fill="none" stroke="currentColor" stroke-width="1.5"/><path d="M45.24,17.78 L49.24,114.18 Z" fill="none" stroke="currentColor" stroke-width="1.5"/><path d="M6.74,14.68 L39.24,24.18 L39.24,67.68 L6.74,58.68 Z Z" fill="none" stroke="currentColor" stroke-width="1.5"/><path d="M6.74,14.68 L10.24,15.68 L10.24,56.68 L39.24,64.68 L39.24,67.68 L6.74,58.68 Z Z" fill="none" stroke="currentColor" stroke-width="1.5"/><path d="M38.24,40.68 L7.74,30.58 L7.74,16.68 L38.24,25.68 Z" fill="none" stroke="currentColor" stroke-width="1.5"/><rect x="0" y="0" width="0" height="0" fill="none" stroke="currentColor"/><path d="M8.74,69.18 L14.74,71.18 L14.74,77.68 L8.74,75.68 Z M8.74,79.8 L14.74,81.8 L14.74,88.3 L8.74,86.3 Z M8.74,90.8 L14.74,92.8 L14.74,99.3 L8.74,97.3 Z M19.37,72.55 L25.37,74.55 L25.37,81.05 L19.37,79.05 Z M19.37,83.18 L25.37,85.18 L25.37,91.68 L19.37,89.68 Z M19.37,94.18 L25.37,96.18 L25.37,102.68 L19.37,100.68 Z M30.24,97.43 L36.24,99.43 L36.24,105.93 L30.24,103.93 Z M30.24,86.43 L36.24,88.43 L36.24,94.93 L30.24,92.93 Z M30.24,75.8 L36.24,77.8 L36.24,84.3 L30.24,82.3 Z" fill="none" stroke="currentColor" stroke-width="1.5"/><path d="M0.24,7.38 L38.74,9.68 L39.74,0.68 L43.24,10.68 L48.24,12.18 L49.24,114.18 L2.74,107.18 Z" fill="none" stroke="currentColor" stroke-width="1.5"/></svg>