<svg xmlns="http://www.w3.org/2000/svg" viewBox="0 0 154.5 82.0" width="24" height="24"><path d="M0,15 L138.5,0 L154.5,66 L16.5,82 Z" fill="none" stroke="currentColor" stroke-width="1.5"/><path d="M6.5,16 L135.5,5 L148.5,65 L17.5,76 Z Z" fill="none" stroke="currentColor" stroke-width="1.5"/><path d="M60.5,19.5 L80.5,19.5 L60.5,61.5 Z M70,52 L79,52 L70,28.5 Z M16,61.5 L16,19.5 L25.5,19.5 L25.5,36 L42,36 L42,19.5 L51,19.5 L51,61.5 L42,61.5 L42,45 L25.5,45 L25.5,61.5 Z M100,19.5 L111,19.5 L119.5,33 L128.5,19.5 L139.5,19.5 L125,40 L139.5,61.5 L128.5,61.5 L119.5,47 L111,61.5 L100,61.5 L113.5,40 Z" fill="none" stroke="currentColor" stroke-width="1.5"/></svg>