<svg xmlns="http://www.w3.org/2000/svg" viewBox="0 0 178.0 196.3" width="24" height="24"><path d="M35.7,69.5 Z" fill="none" stroke="currentColor" stroke-width="1.5"/><path d="M0,151.5 L0,17.5 L71,0 L130.5,18 L130.5,153.5 L60.5,170 Z" fill="none" stroke="currentColor" stroke-width="1.5"/><path d="M0,17.5 L71,0 L130.5,18 L60.5,35 Z" fill="none" stroke="currentColor" stroke-width="1.5"/><path d="M60.5,35 L130.5,18 L130.5,153.5 L60.5,170 Z" fill="none" stroke="currentColor" stroke-width="1.5"/><path d="M61.2,108.7 L122.4,19.7 Z" fill="none" stroke="currentColor" stroke-width="1.5"/><rect x="0" y="0" width="0" height="0" fill="none" stroke="currentColor"/><path d="M11.5,41.5 L11.5,36 L47.5,45.5 L47.5,51 Z M12,146 L12,95.5 L47,105 L47,155.5 Z" fill="none" stroke="currentColor" stroke-width="1.5"/><path d="M0,151.5 L0,17.5 L71,0 L130.5,18 L130.5,153.5 L60.5,170 Z" fill="none" stroke="currentColor" stroke-width="1.5"/><rect x="0" y="0" width="0" height="0" fill="none" stroke="currentColor"/><path d="M89.7,181.2 L89.7,178.5 L99.5,175.7 L69.5,166.8 L69.5,57.5 L80,55 L178,84.5 L178,194 L168,196.3 L145,189.3 L145,191.5 L133.5,194.5 Z M78.5,161.5 L163,186 L163,91.5 L78.5,66.9 Z" fill="none" stroke="currentColor" stroke-width="1.5"/><path d="M75.5,66 L78.5,66.9 L78.5,161.5 L163,186 L163,189 L75.5,163.5 Z" fill="none" stroke="currentColor" stroke-width="1.5"/><path d="M91,161.5 L163,182.5 L163,186 L84,163.1 Z" fill="none" stroke="currentColor" stroke-width="1.5"/><path d="M78.5,66.9 L163,91.5 L163,186 L78.5,161.5 Z" fill="none" stroke="currentColor" stroke-width="1.5"/><path d="M160.5,151.75 L81,70.5 L160.5,94 Z" fill="none" stroke="currentColor" stroke-width="1.5"/><rect x="0" y="0" width="0" height="0" fill="none" stroke="currentColor"/><path d="M168.5,87 L178,84.5 L178,194 L168.5,196 Z" fill="none" stroke="currentColor" stroke-width="1.5"/><path d="M69.5,57.5 L80,55 L178,84.5 L168.5,87 Z" fill="none" stroke="currentColor" stroke-width="1.5"/><path d="M89.7,178.5 L99.5,175.5 L145,189.3 L133.5,192 Z" fill="none" stroke="currentColor" stroke-width="1.5"/><path d="M133.5,192 L145,189.3 L145,189.3 L145,191.5 L133.5,194.5 Z" fill="none" stroke="currentColor" stroke-width="1.5"/><path d="M11.5,53 L11.5,47.5 L47.5,57 L47.5,62.5 Z" fill="none" stroke="currentColor" stroke-width="1.5"/><path d="M89.7,181.2 L89.7,178.5 L99.5,175.7 L69.5,166.8 L69.5,57.5 L80,55 L178,84.5 L178,194 L168,196.3 L145,189.3 L145,191.5 L133.5,194.5 Z" fill="none" stroke="currentColor" stroke-width="1.5"/></svg>