<svg xmlns="http://www.w3.org/2000/svg" viewBox="0 0 152.0 180.0" width="24" height="24"><path d="M35.7,69.5 Z" fill="none" stroke="currentColor" stroke-width="1.5"/><path d="M0,151.5 L0,17.5 L71,0 L130.5,18 L130.5,153.5 L60.5,170 Z" fill="none" stroke="currentColor" stroke-width="1.5"/><path d="M0,17.5 L71,0 L130.5,18 L60.5,35 Z" fill="none" stroke="currentColor" stroke-width="1.5"/><path d="M60.5,35 L130.5,18 L130.5,153.5 L60.5,170 Z" fill="none" stroke="currentColor" stroke-width="1.5"/><path d="M61.2,108.7 L122.4,19.7 Z" fill="none" stroke="currentColor" stroke-width="1.5"/><rect x="0" y="0" width="0" height="0" fill="none" stroke="currentColor"/><path d="M7,38 L7,34.5 L52.5,48.5 L52.5,52 Z M14.5,144 L14.5,140.5 L42.5,148.5 L42.5,152 Z" fill="none" stroke="currentColor" stroke-width="1.5"/><path d="M0,151.5 L0,17.5 L71,0 L130.5,18 L130.5,153.5 L60.5,170 Z" fill="none" stroke="currentColor" stroke-width="1.5"/><rect x="0" y="0" width="0" height="0" fill="none" stroke="currentColor"/><ellipse cx="113.9" cy="142.11" rx="37.6" ry="37.6" fill="none" stroke="currentColor"/><path d="M88.24,115.18 L104.24,127.89 L82.4,157.87 Z" fill="none" stroke="currentColor" stroke-width="1.5"/><path d="M134.22,110.87 L128.99,112.9 Z" fill="none" stroke="currentColor" stroke-width="1.5"/><path d="M149.97,152.28 L145.91,122.4 Z" fill="none" stroke="currentColor" stroke-width="1.5"/><path d="M146.16,161.68 Z" fill="none" stroke="currentColor" stroke-width="1.5"/><path d="M93.93,141.86 Z" fill="none" stroke="currentColor" stroke-width="1.5"/><ellipse cx="111.61500000000001" cy="126.11" rx="27.185" ry="18.8" fill="none" stroke="currentColor"/><ellipse cx="99.205" cy="122.525" rx="7.875" ry="5.735" fill="none" stroke="currentColor"/><rect x="0" y="0" width="0" height="0" fill="none" stroke="currentColor"/><ellipse cx="113.9" cy="142.11" rx="37.6" ry="37.6" fill="none" stroke="currentColor"/><rect x="0" y="0" width="0" height="0" fill="none" stroke="currentColor"/><path d="M96.61,133.89 Z" fill="none" stroke="currentColor" stroke-width="1.5"/><path d="M103.77,162.89 L86.31,157.55 L86.31,118.89 L106.79,113.84 L123.96,119.03 L123.96,158.13 Z" fill="none" stroke="currentColor" stroke-width="1.5"/><path d="M103.77,123.94 L86.31,118.89 L106.79,113.84 L123.96,119.03 Z" fill="none" stroke="currentColor" stroke-width="1.5"/><path d="M103.77,162.89 L103.77,123.94 L123.96,119.03 L123.96,158.13 Z" fill="none" stroke="currentColor" stroke-width="1.5"/><path d="M103.97,145.2 L121.62,119.52 Z" fill="none" stroke="currentColor" stroke-width="1.5"/><rect x="0" y="0" width="0" height="0" fill="none" stroke="currentColor"/><path d="M100.01,128.56 L89.63,125.81 L89.63,124.23 L100.01,126.97 Z M99.87,158.71 L89.77,155.97 L89.77,141.39 L99.87,144.14 Z" fill="none" stroke="currentColor" stroke-width="1.5"/><path d="M103.77,162.89 L86.31,157.55 L86.31,118.89 L106.79,113.84 L123.96,119.03 L123.96,158.13 Z" fill="none" stroke="currentColor" stroke-width="1.5"/><rect x="0" y="0" width="0" height="0" fill="none" stroke="currentColor"/><path d="M112.19,166.12 L112.19,165.34 L115.02,164.53 L106.36,161.97 L106.36,130.43 L109.39,129.71 L137.67,138.22 L137.67,169.81 L134.78,170.48 L128.15,168.46 L128.15,169.09 L124.83,169.96 Z M108.96,160.44 L133.34,167.51 L133.34,140.24 L108.96,133.14 Z" fill="none" stroke="currentColor" stroke-width="1.5"/><path d="M108.09,161.01 L108.09,132.88 L108.96,133.14 L108.96,160.44 L133.34,167.51 L133.34,168.37 Z" fill="none" stroke="currentColor" stroke-width="1.5"/><path d="M110.55,160.9 L112.57,160.44 L133.34,166.5 L133.34,167.51 Z" fill="none" stroke="currentColor" stroke-width="1.5"/><path d="M108.96,160.44 L108.96,133.14 L133.34,140.24 L133.34,167.51 Z" fill="none" stroke="currentColor" stroke-width="1.5"/><path d="M132.62,157.62 L109.68,134.18 L132.62,140.96 Z" fill="none" stroke="currentColor" stroke-width="1.5"/><rect x="0" y="0" width="0" height="0" fill="none" stroke="currentColor"/><path d="M134.93,170.39 L134.93,138.94 L137.67,138.22 L137.67,169.81 Z" fill="none" stroke="currentColor" stroke-width="1.5"/><path d="M134.93,138.94 L106.36,130.43 L109.39,129.71 L137.67,138.22 Z" fill="none" stroke="currentColor" stroke-width="1.5"/><path d="M124.83,169.24 L112.19,165.34 L115.02,164.48 L128.15,168.46 Z" fill="none" stroke="currentColor" stroke-width="1.5"/><path d="M128.15,168.46 L128.15,168.46 L128.15,169.09 L124.83,169.96 L124.83,169.24 Z" fill="none" stroke="currentColor" stroke-width="1.5"/><path d="M100.01,131.87 L89.63,129.13 L89.63,127.55 L100.01,130.29 Z" fill="none" stroke="currentColor" stroke-width="1.5"/><path d="M112.19,166.12 L112.19,165.34 L115.02,164.53 L106.36,161.97 L106.36,130.43 L109.39,129.71 L137.67,138.22 L137.67,169.81 L134.78,170.48 L128.15,168.46 L128.15,169.09 L124.83,169.96 Z" fill="none" stroke="currentColor" stroke-width="1.5"/></svg>