<svg xmlns="http://www.w3.org/2000/svg" viewBox="0 0 152.85 179.71" width="24" height="24"><path d="M0,151.5 L0,17.5 L71,0 L130.5,18 L130.5,153.5 L60.5,170 Z" fill="none" stroke="currentColor" stroke-width="1.5"/><path d="M0,17.5 L71,0 L130.5,18 L60.5,35 Z" fill="none" stroke="currentColor" stroke-width="1.5"/><path d="M60.5,35 L130.5,18 L130.5,153.5 L60.5,170 Z" fill="none" stroke="currentColor" stroke-width="1.5"/><path d="M61.2,108.7 L122.4,19.7 Z" fill="none" stroke="currentColor" stroke-width="1.5"/><rect x="0" y="0" width="0" height="0" fill="none" stroke="currentColor"/><path d="M7,38 L7,34.5 L52.5,48.5 L52.5,52 Z M14.5,144 L14.5,140.5 L42.5,148.5 L42.5,152 Z" fill="none" stroke="currentColor" stroke-width="1.5"/><path d="M0,151.5 L0,17.5 L71,0 L130.5,18 L130.5,153.5 L60.5,170 Z" fill="none" stroke="currentColor" stroke-width="1.5"/><rect x="0" y="0" width="0" height="0" fill="none" stroke="currentColor"/><ellipse cx="113.9" cy="142.11" rx="37.6" ry="37.6" fill="none" stroke="currentColor"/><path d="M88.24,115.18 L104.24,127.89 L82.4,157.87 Z" fill="none" stroke="currentColor" stroke-width="1.5"/><path d="M134.22,110.87 L128.99,112.9 Z" fill="none" stroke="currentColor" stroke-width="1.5"/><path d="M149.97,152.28 L145.91,122.4 Z" fill="none" stroke="currentColor" stroke-width="1.5"/><path d="M146.16,161.68 Z" fill="none" stroke="currentColor" stroke-width="1.5"/><path d="M93.93,141.86 Z" fill="none" stroke="currentColor" stroke-width="1.5"/><ellipse cx="111.61500000000001" cy="126.11" rx="27.185" ry="18.8" fill="none" stroke="currentColor"/><ellipse cx="99.205" cy="122.525" rx="7.875" ry="5.735" fill="none" stroke="currentColor"/><rect x="0" y="0" width="0" height="0" fill="none" stroke="currentColor"/><ellipse cx="113.9" cy="142.11" rx="37.6" ry="37.6" fill="none" stroke="currentColor"/><rect x="0" y="0" width="0" height="0" fill="none" stroke="currentColor"/><path d="M114.76,146.53 L140.81,162.12 Z" fill="none" stroke="currentColor" stroke-width="1.5"/><path d="M114.76,146.53 L140.81,162.12 Z" fill="none" stroke="currentColor" stroke-width="1.5"/><path d="M137.56,163.06 Z" fill="none" stroke="currentColor" stroke-width="1.5"/><ellipse cx="102.325" cy="131.84" rx="16.985" ry="16.86" fill="none" stroke="currentColor"/><ellipse cx="102.41" cy="131.84" rx="15.1" ry="15.1" fill="none" stroke="currentColor"/><ellipse cx="102.655" cy="128.32" rx="12.205" ry="8.87" fill="none" stroke="currentColor"/><rect x="0" y="0" width="0" height="0" fill="none" stroke="currentColor"/><path d="M114.76,146.53 L140.81,162.12 Z" fill="none" stroke="currentColor" stroke-width="1.5"/></svg>