<svg xmlns="http://www.w3.org/2000/svg" viewBox="0 0 106.44 98.24" width="24" height="24"><ellipse cx="46.01" cy="43.41" rx="42.08" ry="42.08" fill="none" stroke="currentColor"/><path d="M17.29,13.28 L35.2,27.49 L10.75,61.04 Z" fill="none" stroke="currentColor" stroke-width="1.5"/><path d="M68.75,8.44 L62.89,10.72 Z" fill="none" stroke="currentColor" stroke-width="1.5"/><path d="M86.38,54.79 L81.83,21.35 Z" fill="none" stroke="currentColor" stroke-width="1.5"/><path d="M82.11,65.31 Z" fill="none" stroke="currentColor" stroke-width="1.5"/><path d="M23.66,43.13 Z" fill="none" stroke="currentColor" stroke-width="1.5"/><ellipse cx="43.45" cy="25.5" rx="30.42" ry="21.04" fill="none" stroke="currentColor"/><ellipse cx="29.564999999999998" cy="21.5" rx="8.815" ry="6.42" fill="none" stroke="currentColor"/><rect x="0" y="0" width="0" height="0" fill="none" stroke="currentColor"/><ellipse cx="46.01" cy="43.41" rx="42.08" ry="42.08" fill="none" stroke="currentColor"/><path d="M54.91,49.87 L105.9,86.79 Z" fill="none" stroke="currentColor" stroke-width="1.5"/><rect x="0" y="0" width="0" height="0" fill="none" stroke="currentColor"/><ellipse cx="80.345" cy="50.75" rx="25.495" ry="12.19" fill="none" stroke="currentColor"/><path d="M56.78,83.86 L56.96,55.73 L105.9,78.59 Z" fill="none" stroke="currentColor" stroke-width="1.5"/><rect x="0" y="0" width="0" height="0" fill="none" stroke="currentColor"/><path d="M54.91,49.87 L105.9,86.79 Z" fill="none" stroke="currentColor" stroke-width="1.5"/></svg>