<svg xmlns="http://www.w3.org/2000/svg" viewBox="0 0 237.8 103.8" width="24" height="24"><path d="M0,68.3 L58.3,53.8 L58.3,21.6 L74.4,17.3 L74.4,12.8 L88.8,8.9 L88.8,6.8 L115.3,0 L167.8,16.6 L167.8,17.5 L182.6,22.6 L182.6,26.3 L198.8,31.6 L198.8,58.6 L237.8,70.6 L237.8,73.1 L111.3,103.8 L0,71.3 Z" fill="none" stroke="currentColor" stroke-width="1.5"/><path d="M139.3,46.1 L198.8,31.6 L198.8,70.6 L139.3,86.1 Z" fill="none" stroke="currentColor" stroke-width="1.5"/><path d="M0,68.3 L111.3,101.1 L111.3,103.8 L0,71.3 Z" fill="none" stroke="currentColor" stroke-width="1.5"/><path d="M111.3,101.1 L237.8,70.6 L237.8,73.1 L111.3,103.8 Z" fill="none" stroke="currentColor" stroke-width="1.5"/><path d="M58.3,21.6 L74.4,17.3 L74.4,12.8 L88.8,8.9 L88.8,6.8 L115.3,0.1 L167.8,16.6 L167.8,17.5 L182.6,22.6 L182.6,26.3 L198.8,31.6 L139.3,46.1 Z" fill="none" stroke="currentColor" stroke-width="1.5"/><path d="M58.3,62.1 L58.3,21.6 L139.3,46.1 L139.3,86.1 Z" fill="none" stroke="currentColor" stroke-width="1.5"/><path d="M63.3,54.1 L63.3,31.6 L68.8,33.1 L68.8,55.6 Z" fill="none" stroke="currentColor" stroke-width="1.5"/><path d="M146.1,52.1 L151.5,50.8 L151.5,74.6 L146.1,76.1 Z" fill="none" stroke="currentColor" stroke-width="1.5"/><path d="M88.8,12.6 L88.8,6.9 L141.8,23.1 L141.8,28.9 Z" fill="none" stroke="currentColor" stroke-width="1.5"/><path d="M141.8,23.1 L167.8,16.6 L167.8,22.1 L141.8,28.8 Z" fill="none" stroke="currentColor" stroke-width="1.5"/><path d="M74.4,12.8 L140.3,32.9 L140.3,41.1 L74.4,20.6 Z" fill="none" stroke="currentColor" stroke-width="1.5"/><path d="M140.3,32.9 L182.6,22.6 L182.6,30.73 L140.3,41.1 Z" fill="none" stroke="currentColor" stroke-width="1.5"/><path d="M72.8,56.6 L72.8,34.1 L78.3,35.6 L78.3,58.1 Z M117.8,70.6 L117.8,48.1 L123.3,49.6 L123.3,72.1 Z M127.3,73.1 L127.3,50.6 L132.8,52.1 L132.8,74.6 Z" fill="none" stroke="currentColor" stroke-width="1.5"/><path d="M156,49.9 L161.4,48.6 L161.4,72.4 L156,73.9 Z M177.4,45 L182.8,43.7 L182.8,67.5 L177.43,69 Z" fill="none" stroke="currentColor" stroke-width="1.5"/><path d="M139.3,57.1 L67.5,24.1 L76.8,21.6 L76.8,13.6 L91.3,13.1 L91.3,8.1 L165.3,22.5 L179.3,23.6 L180.8,31.1 L189.3,34.1 L189.3,48.1 Z Z" fill="none" stroke="currentColor" stroke-width="1.5"/><rect x="0" y="0" width="0" height="0" fill="none" stroke="currentColor"/><path d="M71.4,78.4 L65.1,59.9 L63.7,58.6 L63.7,57.5 L92.3,65.9 L77.3,47.6 L99.3,42.6 L112.9,60.3 L93.7,64.9 L93.7,85.4 L87.6,66.6 L71.4,61.8 Z" fill="none" stroke="currentColor" stroke-width="1.5"/><path d="M63.7,57.5 L77.3,47.6 L92.3,65.9 Z" fill="none" stroke="currentColor" stroke-width="1.5"/><path d="M0,68.3 L58.3,53.8 L58.3,21.6 L74.4,17.3 L74.4,12.8 L88.8,8.9 L88.8,6.8 L115.3,0 L167.8,16.6 L167.8,17.5 L182.6,22.6 L182.6,26.3 L198.8,31.6 L198.8,58.6 L237.8,70.6 L237.8,73.1 L111.3,103.8 L0,71.3 Z" fill="none" stroke="currentColor" stroke-width="1.5"/></svg>