<svg xmlns="http://www.w3.org/2000/svg" viewBox="0 0 161.0 111.5" width="24" height="24"><path d="M0,91.5 L0,51 L32.5,27 L89.5,14 L89.5,4.5 L106.5,0 L121,4.5 L121,7 L129.3,5 L161,47.5 L161,89 L66,111.5 Z" fill="none" stroke="currentColor" stroke-width="1.5"/><path d="M0,51 L66.5,70 L66,111.5 L0,91.5 Z" fill="none" stroke="currentColor" stroke-width="1.5"/><path d="M0,51 L32.5,27 L66,70 Z" fill="none" stroke="currentColor" stroke-width="1.5"/><path d="M66,70 L161,47.5 L161,89 L66,111.5 Z" fill="none" stroke="currentColor" stroke-width="1.5"/><path d="M89.5,4.5 L106.5,0 L121,4.5 L104,9.5 Z" fill="none" stroke="currentColor" stroke-width="1.5"/><path d="M7,81 L7,65.5 L28,72 L28,87.5 Z" fill="none" stroke="currentColor" stroke-width="1.5"/><path d="M75.5,81 L152.5,62 L152.5,78 L75.5,97.5 Z" fill="none" stroke="currentColor" stroke-width="1.5"/><path d="M37,90 L37,74.5 L58,81 L58,96.5 Z" fill="none" stroke="currentColor" stroke-width="1.5"/><path d="M6.5,84 L36.1,32 L156,80 L66,102.5 Z" fill="none" stroke="currentColor" stroke-width="1.5"/><rect x="0" y="0" width="0" height="0" fill="none" stroke="currentColor"/><path d="M104,9.5 L121,4.5 L121,39 L104,43 Z" fill="none" stroke="currentColor" stroke-width="1.5"/><path d="M89.5,24 L89.5,4.5 L104,9.5 L104,43 Z" fill="none" stroke="currentColor" stroke-width="1.5"/><path d="M0,91.5 L0,51 L32.5,27 L89.5,14 L89.5,4.5 L106.5,0 L121,4.5 L121,7 L129.3,5 L161,47.5 L161,89 L66,111.5 Z" fill="none" stroke="currentColor" stroke-width="1.5"/></svg>