<svg xmlns="http://www.w3.org/2000/svg" viewBox="0 0 182.3 154.0" width="24" height="24"><path d="M0,126.8 L0,118 L88.8,96.7 L88.8,3 L96.8,0 L182.3,26 L182.3,120.5 L174.3,122.5 L174.3,132.5 L87.3,154 Z" fill="none" stroke="currentColor" stroke-width="1.5"/><path d="M0,118 L87.3,144 L87.3,154 L0,127 Z" fill="none" stroke="currentColor" stroke-width="1.5"/><path d="M87.3,144 L174.3,122.5 L174.3,132.5 L87.3,154 Z" fill="none" stroke="currentColor" stroke-width="1.5"/><path d="M174.3,28 L182.3,26 L182.3,120.5 L174.3,122.5 Z" fill="none" stroke="currentColor" stroke-width="1.5"/><path d="M88.8,3 L174.3,28 L174.3,122.5 L88.8,96.5 Z" fill="none" stroke="currentColor" stroke-width="1.5"/><path d="M93.8,9.5 L168.3,31 L168.3,114 L93.8,92 Z" fill="none" stroke="currentColor" stroke-width="1.5"/><path d="M95.3,10 L168.3,31 L168.3,112.5 L95.3,91 Z" fill="none" stroke="currentColor" stroke-width="1.5"/><path d="M98.3,11 L168.3,31 L168.3,111 L98.3,90.5 Z" fill="none" stroke="currentColor" stroke-width="1.5"/><path d="M102.3,12 L168.3,31 L168.3,109.5 L102.3,90 Z" fill="none" stroke="currentColor" stroke-width="1.5"/><path d="M100.3,13 L168.3,32.5 L168.3,81 Z" fill="none" stroke="currentColor" stroke-width="1.5"/><path d="M23.8,134.3 L161.8,125.5 L161.8,135.5 L87.3,154 Z" fill="none" stroke="currentColor" stroke-width="1.5"/><rect x="0" y="0" width="0" height="0" fill="none" stroke="currentColor"/><path d="M16.8,120 L16.8,118.5 L87.3,139.5 L118.3,131.5 L118.3,133 L87.3,141 Z" fill="none" stroke="currentColor" stroke-width="1.5"/><path d="M16.8,118.5 L48.3,110 L118.3,131.5 L87.3,139.5 Z" fill="none" stroke="currentColor" stroke-width="1.5"/><path d="M0,126.8 L0,118 L88.8,96.7 L88.8,3 L96.8,0 L182.3,26 L182.3,120.5 L174.3,122.5 L174.3,132.5 L87.3,154 Z" fill="none" stroke="currentColor" stroke-width="1.5"/></svg>