<svg xmlns="http://www.w3.org/2000/svg" viewBox="0 0 140.0 140.5" width="24" height="24"><path d="M0,120.5 L0,49 L71.5,31.5 L71.5,1.3 L75,0 L109,9.5 L109,40.5 L140,50 L140,122.7 L64.5,140.5 Z" fill="none" stroke="currentColor" stroke-width="1.5"/><path d="M0,49 L64.5,68.5 L64.5,140.5 L0,120.5 Z" fill="none" stroke="currentColor" stroke-width="1.5"/><path d="M4,109 L4,104.5 L60.5,121.5 L60.5,126.5 Z" fill="none" stroke="currentColor" stroke-width="1.5"/><path d="M26.5,47 L80.5,33.5 L122,47.5 L109,51 L71.5,42.5 Z" fill="none" stroke="currentColor" stroke-width="1.5"/><path d="M26.5,47 L72,42.5 L105,52 L69.5,60.5 Z" fill="none" stroke="currentColor" stroke-width="1.5"/><path d="M71.5,1.5 L75,0 L109,9.5 L105.5,11 Z" fill="none" stroke="currentColor" stroke-width="1.5"/><path d="M105.5,11 L109,9.5 L109,51 L105.5,52 Z" fill="none" stroke="currentColor" stroke-width="1.5"/><path d="M71.5,42.5 L71.5,1.5 L105.5,11 L105.5,52 Z" fill="none" stroke="currentColor" stroke-width="1.5"/><path d="M64.5,68.5 L140,50 L140,122.5 L64.5,140.5 Z" fill="none" stroke="currentColor" stroke-width="1.5"/><path d="M64.5,122 L32.5,48.9 L69.5,60.5 L109.5,50.9 L125.5,54 Z" fill="none" stroke="currentColor" stroke-width="1.5"/><path d="M64.5,78.5 L140,60.3" fill="none" stroke="currentColor" stroke-width="1.5"/><path d="M0,58 L64.5,78.5" fill="none" stroke="currentColor" stroke-width="1.5"/><rect x="0" y="0" width="0" height="0" fill="none" stroke="currentColor"/><path d="M0,120.5 L0,49 L71.5,31.5 L71.5,1.3 L75,0 L109,9.5 L109,40.5 L140,50 L140,122.7 L64.5,140.5 Z" fill="none" stroke="currentColor" stroke-width="1.5"/></svg>