<svg xmlns="http://www.w3.org/2000/svg" viewBox="0 0 152.85 179.71" width="24" height="24"><path d="M0,151.5 L0,17.5 L71,0 L130.5,18 L130.5,153.5 L60.5,170 Z" fill="none" stroke="currentColor" stroke-width="1.5"/><path d="M0,17.5 L71,0 L130.5,18 L60.5,35 Z" fill="none" stroke="currentColor" stroke-width="1.5"/><path d="M60.5,35 L130.5,18 L130.5,153.5 L60.5,170 Z" fill="none" stroke="currentColor" stroke-width="1.5"/><path d="M61.2,108.7 L122.4,19.7 Z" fill="none" stroke="currentColor" stroke-width="1.5"/><rect x="0" y="0" width="0" height="0" fill="none" stroke="currentColor"/><path d="M7,38 L7,34.5 L52.5,48.5 L52.5,52 Z M14.5,144 L14.5,140.5 L42.5,148.5 L42.5,152 Z" fill="none" stroke="currentColor" stroke-width="1.5"/><path d="M0,151.5 L0,17.5 L71,0 L130.5,18 L130.5,153.5 L60.5,170 Z" fill="none" stroke="currentColor" stroke-width="1.5"/><rect x="0" y="0" width="0" height="0" fill="none" stroke="currentColor"/><ellipse cx="113.9" cy="142.11" rx="37.6" ry="37.6" fill="none" stroke="currentColor"/><path d="M88.24,115.18 L104.24,127.89 L82.4,157.87 Z" fill="none" stroke="currentColor" stroke-width="1.5"/><path d="M134.22,110.87 L128.99,112.9 Z" fill="none" stroke="currentColor" stroke-width="1.5"/><path d="M149.97,152.28 L145.91,122.4 Z" fill="none" stroke="currentColor" stroke-width="1.5"/><path d="M146.16,161.68 Z" fill="none" stroke="currentColor" stroke-width="1.5"/><ellipse cx="111.61500000000001" cy="126.11" rx="27.185" ry="18.8" fill="none" stroke="currentColor"/><ellipse cx="99.205" cy="122.525" rx="7.875" ry="5.735" fill="none" stroke="currentColor"/><rect x="0" y="0" width="0" height="0" fill="none" stroke="currentColor"/><ellipse cx="113.9" cy="142.11" rx="37.6" ry="37.6" fill="none" stroke="currentColor"/><rect x="0" y="0" width="0" height="0" fill="none" stroke="currentColor"/><path d="M93.46,167.94 L93.46,134.79 L101.39,132.63 L101.39,108.85 L104.99,107.65 L125.41,113.89 L125.41,136.47 L132.38,138.39 L132.38,172.5 L118.45,175.87 Z M108.12,131.19 L118.93,134.55 L118.93,117.01 L108.12,113.89 Z" fill="none" stroke="currentColor" stroke-width="1.5"/><path d="M132.38,138.39 L118.69,141.76 L93.46,134.79 L106.92,130.95 Z" fill="none" stroke="currentColor" stroke-width="1.5"/><path d="M132.38,172.5 L118.69,175.87 L118.69,141.76 L132.38,138.39 Z" fill="none" stroke="currentColor" stroke-width="1.5"/><path d="M118.69,173.71 L93.46,166.02 L93.46,162.9 L118.69,170.34 L132.38,166.98 L132.38,170.34 Z" fill="none" stroke="currentColor" stroke-width="1.5"/><rect x="0" y="0" width="0" height="0" fill="none" stroke="currentColor"/><path d="M103.07,154.73 L105.72,161.21 Z" fill="none" stroke="currentColor" stroke-width="1.5"/><path d="M125.41,113.89 L121.81,115.09 L101.39,109.09 L104.99,107.65 Z" fill="none" stroke="currentColor" stroke-width="1.5"/><path d="M118.69,146.27 L93.46,139.11 L93.46,135.94 L118.69,142.9 L132.38,139.54 L132.38,142.9 Z" fill="none" stroke="currentColor" stroke-width="1.5"/><path d="M95.87,135.51 L109.32,131.62 L127.58,137 Z" fill="none" stroke="currentColor" stroke-width="1.5"/><rect x="0" y="0" width="0" height="0" fill="none" stroke="currentColor"/><path d="M101.39,109.09 L121.81,115.09 L121.81,140.08 L118.93,139.35 L118.93,117.01 L104.75,112.69 L104.75,134.79 L101.39,133.83 Z" fill="none" stroke="currentColor" stroke-width="1.5"/><path d="M125.41,113.89 L125.41,139.11 L121.81,140.08 L121.81,115.09 Z" fill="none" stroke="currentColor" stroke-width="1.5"/><path d="M108.12,113.84 L108.12,133.83 L104.75,134.79 L104.75,112.69 Z" fill="none" stroke="currentColor" stroke-width="1.5"/><path d="M93.46,167.94 L93.46,134.79 L101.39,132.63 L101.39,108.85 L104.99,107.65 L125.41,113.89 L125.41,136.47 L132.38,138.39 L132.38,172.5 L118.45,175.87 Z M108.12,131.19 L118.93,134.55 L118.93,117.01 L108.12,113.89 Z" fill="none" stroke="currentColor" stroke-width="1.5"/></svg>