<svg xmlns="http://www.w3.org/2000/svg" viewBox="0 0 184.5 83.0" width="24" height="24"><path d="M0,58 L0,45.5 L5.5,43.8 L0,42 L0,30.5 L22.3,24.7 L22.3,18.5 L98,0 L162.5,20 L162.5,24.5 L184.5,31.5 L184.5,43.5 L179,44.9 L184.5,46.5 L184.5,59 L85.5,83 Z" fill="none" stroke="currentColor" stroke-width="1.5"/><path d="M0,30.5 L85.5,55 L85.5,83 L0,58 L0,45.5 L5.5,43.8 L0,42 Z" fill="none" stroke="currentColor" stroke-width="1.5"/><path d="M85.5,55 L184.5,31.5 L184.5,43.5 L179.5,45 L184.5,46.5 L184.5,59 L85.5,83 Z" fill="none" stroke="currentColor" stroke-width="1.5"/><path d="M0,45.5 L85.5,72 L184.5,46.5" fill="none" stroke="currentColor" stroke-width="1.5"/><rect x="0" y="0" width="0" height="0" fill="none" stroke="currentColor"/><path d="M22.3,18.5 L87,38 L87,50 L22.3,29.5 Z" fill="none" stroke="currentColor" stroke-width="1.5"/><path d="M87,38 L162.5,20 L162.5,31.5 L87,50 Z" fill="none" stroke="currentColor" stroke-width="1.5"/><path d="M26,50.1 L25,37.7 L33.3,33 L33.3,22 L153.5,33.7 L163,36.7 L163,49 L85.5,68.5 Z" fill="none" stroke="currentColor" stroke-width="1.5"/><rect x="0" y="0" width="0" height="0" fill="none" stroke="currentColor"/><path d="M0,58 L0,45.5 L5.5,43.8 L0,42 L0,30.5 L22.3,24.7 L22.3,18.5 L98,0 L162.5,20 L162.5,24.5 L184.5,31.5 L184.5,43.5 L179,44.9 L184.5,46.5 L184.5,59 L85.5,83 Z" fill="none" stroke="currentColor" stroke-width="1.5"/><path d="M0,42 L85.5,68.5 L184.5,43.5" fill="none" stroke="currentColor" stroke-width="1.5"/><rect x="0" y="0" width="0" height="0" fill="none" stroke="currentColor"/><path d="M5.5,38 L16,41 L16,56 L5.5,53 Z M21.62,42.62 L32.12,45.62 L32.12,60.62 L21.62,57.62 Z M37.5,47.62 L48,50.62 L48,65.62 L37.5,62.62 Z M53.38,52.12 L63.88,55.12 L63.88,70.12 L53.38,67.12 Z M69.12,57 L79.62,60 L79.62,75 L69.12,72 Z" fill="none" stroke="currentColor" stroke-width="1.5"/><path d="M91.5,60.5 L179,39 L179,54 L91.5,75.5 Z" fill="none" stroke="currentColor" stroke-width="1.5"/></svg>