<svg xmlns="http://www.w3.org/2000/svg" viewBox="0 0 76.0 76.0" width="24" height="24"><ellipse cx="38.0" cy="38.0" rx="38.0" ry="38.0" fill="none" stroke="currentColor"/><ellipse cx="38.0" cy="38.0" rx="35.5" ry="35.5" fill="none" stroke="currentColor"/><path d="M17.5,40.7 L13.8,17.3 L40,18.3 L41.5,37.5 Z M18.9,38.9 L15.58,18.79 L38.94,19.65 L40.28,36.17 Z" fill="none" stroke="currentColor" stroke-width="1.5"/><rect x="0" y="0" width="0" height="0" fill="none" stroke="currentColor"/><path d="M15.7,21.3 L15.7,19.2 L38.9,19.7 L40.3,22.5 Z" fill="none" stroke="currentColor" stroke-width="1.5"/><path d="M26.01,47.48 L21.91,19.45 L50.95,20.64 L52.61,43.64 Z M27.56,45.32 L23.88,21.23 L49.77,22.26 L51.26,42.05 Z" fill="none" stroke="currentColor" stroke-width="1.5"/><rect x="0" y="0" width="0" height="0" fill="none" stroke="currentColor"/><path d="M24.02,24.24 L24.02,21.72 L49.73,22.32 L51.28,25.68 Z" fill="none" stroke="currentColor" stroke-width="1.5"/><path d="M39.32,60 L35.24,30.95 L64.07,30.2 L65.72,54.33 Z M40.86,57.5 L37.2,32.67 L62.91,31.7 L64.38,52.79 Z" fill="none" stroke="currentColor" stroke-width="1.5"/><rect x="0" y="0" width="0" height="0" fill="none" stroke="currentColor"/><path d="M37.33,35.58 L37.33,33.15 L62.86,31.7 L64.4,35 Z" fill="none" stroke="currentColor" stroke-width="1.5"/></svg>