<svg xmlns="http://www.w3.org/2000/svg" viewBox="0 0 74.84 73.81" width="24" height="24"><path d="M12.22,73.81 L0.22,12.81 L62.62,0.01 L74.62,61.81 Z" fill="none" stroke="currentColor" stroke-width="1.5"/><path d="M19.02,58.41 L21.22,55.21 L15.72,55.01 L13.62,51.41 L16.92,49.41 L12.22,46.61 L12.22,42.21 L16.22,42.21 L13.42,37.51 L15.62,33.81 L19.02,35.81 L19.02,30.51 L23.02,28.31 L25.12,31.71 L27.72,31.01 L27.72,27.31 L31.92,27.31 L31.92,31.01 L36.42,28.51 L39.92,30.61 L38.02,34.01 L43.52,34.01 L45.62,37.91 L42.12,39.71 L46.82,42.31 L46.82,46.61 L42.92,46.61 L45.72,50.81 L43.62,54.71 L40.22,52.81 L40.22,58.21 L36.42,60.51 L34.52,57.21 L31.92,61.71 L27.72,61.71 L27.72,57.91 L22.72,60.61 L19.02,58.41 Z M29.22,50.51 Z M45.2,35.2 L46.28,32.83 L42.62,33.33 L40.82,31.2 L42.76,29.49 L39.33,28.19 L38.82,25.28 L41.46,24.81 L39.06,22.03 L40.09,19.33 L42.57,20.25 L41.95,16.75 L44.34,14.83 L46.12,16.83 L47.76,16.06 L47.33,13.62 L50.11,13.13 L50.54,15.57 L53.22,13.4 L55.78,14.38 L54.92,16.85 L58.56,16.2 L60.4,18.54 L58.3,20.14 L61.71,21.31 L62.21,24.15 L59.63,24.61 L61.97,27.06 L61.04,29.88 L58.57,29.02 L59.2,32.59 L56.95,34.56 L55.31,32.6 L54.12,35.88 L51.34,36.37 L50.9,33.85 L47.91,36.22 L45.2,35.2 Z M51.03,28.78 Z" fill="none" stroke="currentColor" stroke-width="1.5"/><path d="M0.22,12.81 L62.72,0.01 L74.62,25.51 Z" fill="none" stroke="currentColor" stroke-width="1.5"/></svg>