<svg xmlns="http://www.w3.org/2000/svg" viewBox="0 0 74.84 73.81" width="24" height="24"><path d="M12.22,73.81 L0.22,12.81 L62.62,0.01 L74.62,61.81 Z" fill="none" stroke="currentColor" stroke-width="1.5"/><ellipse cx="36.72" cy="36.51" rx="30.0" ry="30.0" fill="none" stroke="currentColor"/><ellipse cx="36.72" cy="36.51" rx="28.0" ry="28.0" fill="none" stroke="currentColor"/><ellipse cx="36.72" cy="36.51" rx="25.5" ry="25.5" fill="none" stroke="currentColor"/><ellipse cx="36.72" cy="36.51" rx="23.0" ry="23.0" fill="none" stroke="currentColor"/><path d="M27.62,51.91 L28.02,48.81 L21.72,46.61 L19.22,41.01 L21.72,38.91 L18.92,32.61 L20.92,27.11 L23.92,27.51 L26.62,21.01 L32.22,18.51 L33.92,20.71 L40.32,18.11 L45.92,20.21 L45.62,23.21 L52.22,26.11 L54.72,31.91 L52.22,33.41 L54.92,39.81 L52.62,45.61 L49.62,45.11 L46.72,51.51 L40.82,53.91 L39.62,51.31 L33.3,54.13 Z" fill="none" stroke="currentColor" stroke-width="1.5"/><ellipse cx="36.92" cy="36.010000000000005" rx="11.5" ry="11.5" fill="none" stroke="currentColor"/><ellipse cx="36.92" cy="36.010000000000005" rx="6.5" ry="6.5" fill="none" stroke="currentColor"/><ellipse cx="36.92" cy="36.01" rx="4.0" ry="4.0" fill="none" stroke="currentColor"/><path d="M0.22,12.81 L62.72,0.01 L74.62,25.51 Z" fill="none" stroke="currentColor" stroke-width="1.5"/></svg>