<svg xmlns="http://www.w3.org/2000/svg" viewBox="0 0 214.5 203.0" width="24" height="24"><path d="M-0.21,147.7 L-0.21,13.32 L60.73,0.1 L149.38,25.86 L149.38,161.63 L92.59,174.16 Z" fill="none" stroke="currentColor" stroke-width="1.5"/><path d="M92.59,174.16 L-0.21,147.7 L-0.21,13.32 L92.59,39.09 Z" fill="none" stroke="currentColor" stroke-width="1.5"/><path d="M149.38,161.63 L92.59,174.16 L92.59,39.09 L149.38,25.86 Z" fill="none" stroke="currentColor" stroke-width="1.5"/><path d="M144.53,136.56 L98.82,146.31 L98.82,55.8 L144.53,45.35 Z" fill="none" stroke="currentColor" stroke-width="1.5"/><path d="M125.14,47.44 L125.14,142.13 L119.6,143.52 L119.6,48.83 Z" fill="none" stroke="currentColor" stroke-width="1.5"/><path d="M146.61,78.08 L97.43,88.52 L97.43,81.56 L146.61,71.11 Z" fill="none" stroke="currentColor" stroke-width="1.5"/><path d="M84.97,147.01 L6.71,124.03 L6.71,32.82 L84.97,55.1 Z" fill="none" stroke="currentColor" stroke-width="1.5"/><path d="M34.41,133.78 L34.41,39.09 L29.57,37.69 L29.57,132.38 Z" fill="none" stroke="currentColor" stroke-width="1.5"/><path d="M85.66,87.82 L6.02,65.54 L6.02,59.28 L85.66,81.56 Z" fill="none" stroke="currentColor" stroke-width="1.5"/><path d="M146.61,110.8 L97.43,121.24 L97.43,114.28 L146.61,103.84 Z" fill="none" stroke="currentColor" stroke-width="1.5"/><path d="M85.66,121.01 L6.02,98.73 L6.02,92.47 L85.66,114.75 Z M61.65,141.9 L61.65,47.21 L56.81,45.82 L56.81,140.51 Z" fill="none" stroke="currentColor" stroke-width="1.5"/><path d="M150.3,70.33 L214.4,88.96 L214.4,187.15 L173.34,196.21 L106.23,177.08 L106.23,79.9 Z" fill="none" stroke="currentColor" stroke-width="1.5"/><path d="M106.23,79.9 L173.34,98.53 L173.34,196.21 L106.23,177.08 Z" fill="none" stroke="currentColor" stroke-width="1.5"/><path d="M173.34,98.53 L214.4,88.96 L214.4,187.15 L173.34,196.21 Z" fill="none" stroke="currentColor" stroke-width="1.5"/><path d="M177.84,110.61 L210.9,103.06 L210.9,169.02 L177.84,176.07 Z" fill="none" stroke="currentColor" stroke-width="1.5"/><path d="M192.87,174.06 L192.87,105.58 L196.88,104.57 L196.88,173.05 Z M176.84,129.24 L212.4,121.69 L212.4,126.73 L176.84,134.28 Z" fill="none" stroke="currentColor" stroke-width="1.5"/><path d="M111.23,94 L167.83,110.11 L167.83,176.57 L111.23,159.96 Z" fill="none" stroke="currentColor" stroke-width="1.5"/><path d="M127.76,97.52 L127.76,166 L131.27,167.01 L131.27,98.53 Z" fill="none" stroke="currentColor" stroke-width="1.5"/><path d="M110.73,113.13 L168.33,129.24 L168.33,133.78 L110.73,117.66 Z" fill="none" stroke="currentColor" stroke-width="1.5"/><path d="M176.84,152.91 L212.4,145.36 L212.4,150.39 L176.84,157.94 Z" fill="none" stroke="currentColor" stroke-width="1.5"/><path d="M110.73,137.13 L168.33,153.24 L168.33,157.78 L110.73,141.66 Z" fill="none" stroke="currentColor" stroke-width="1.5"/><path d="M147.46,103.4 L147.46,171.87 L150.97,172.88 L150.97,104.4 Z" fill="none" stroke="currentColor" stroke-width="1.5"/><path d="M106.1,195.65 L74.3,202.67 L22.34,187.85 L22.34,112.61 L56.47,105.21 L106.1,119.63 Z" fill="none" stroke="currentColor" stroke-width="1.5"/><path d="M22.34,112.61 L74.3,127.04 L74.3,202.67 L22.34,187.85 Z" fill="none" stroke="currentColor" stroke-width="1.5"/><path d="M74.3,127.04 L106.1,119.63 L106.1,195.65 L74.3,202.67 Z" fill="none" stroke="currentColor" stroke-width="1.5"/><path d="M77.79,136.39 L103.38,130.54 L103.38,181.61 L77.79,187.07 Z" fill="none" stroke="currentColor" stroke-width="1.5"/><path d="M89.43,185.51 L89.43,132.49 L92.53,131.71 L92.53,184.73 Z M77.02,150.82 L104.55,144.97 L104.55,148.87 L77.02,154.72 Z" fill="none" stroke="currentColor" stroke-width="1.5"/><path d="M26.22,123.53 L70.04,136 L70.04,187.46 L26.22,174.6 Z" fill="none" stroke="currentColor" stroke-width="1.5"/><path d="M39.02,126.26 L39.02,179.28 L41.73,180.05 L41.73,127.04 Z" fill="none" stroke="currentColor" stroke-width="1.5"/><path d="M25.83,138.34 L70.43,150.82 L70.43,154.33 L25.83,141.85 Z" fill="none" stroke="currentColor" stroke-width="1.5"/><path d="M77.02,169.14 L104.55,163.29 L104.55,167.19 L77.02,173.04 Z" fill="none" stroke="currentColor" stroke-width="1.5"/><path d="M25.83,156.92 L70.43,169.4 L70.43,172.91 L25.83,160.43 Z" fill="none" stroke="currentColor" stroke-width="1.5"/><path d="M54.27,130.8 L54.27,183.82 L56.98,184.6 L56.98,131.58 Z" fill="none" stroke="currentColor" stroke-width="1.5"/></svg>