<svg xmlns="http://www.w3.org/2000/svg" viewBox="0 0 122.5 158.6" width="24" height="24"><path d="M0,125.6 L0,3.6 L12,0 L122.5,34.1 L122.5,155.6 L110.5,158.6 Z" fill="none" stroke="currentColor" stroke-width="1.5"/><path d="M0,3.6 L110.5,37.6 L110.5,158.6 L0,125.6 Z" fill="none" stroke="currentColor" stroke-width="1.5"/><path d="M8,96.1 L104,124.6 L104,151.1 L8,122.1 Z" fill="none" stroke="currentColor" stroke-width="1.5"/><path d="M13.5,96.8 L17.5,98 L17.5,125.6 L13.5,124.5 Z M7,101.8 L105,131.2 L105,135.2 L7,105.8 Z" fill="none" stroke="currentColor" stroke-width="1.5"/><path d="M7,12.6 L104.5,41.6 L104.5,118.6 L7,89.6 Z" fill="none" stroke="currentColor" stroke-width="1.5"/><path d="M9,13.3 L16.5,15.5 L16.5,87.1 L104.5,113.1 L104.5,116.8 L9,88.1 Z" fill="none" stroke="currentColor" stroke-width="1.5"/><path d="M10.5,16.1 L102,43.6 L102,90.1 Z" fill="none" stroke="currentColor" stroke-width="1.5"/><rect x="0" y="0" width="0" height="0" fill="none" stroke="currentColor"/><path d="M110.5,37.6 L122.5,34.1 L122.5,155.6 L110.5,158.6 Z" fill="none" stroke="currentColor" stroke-width="1.5"/><path d="M23.39,99.91 L27.39,101.11 L27.39,128.71 L23.39,127.61 Z M33.5,102.91 L37.5,104.11 L37.5,131.71 L33.5,130.61 Z M43.39,105.91 L47.39,107.11 L47.39,134.71 L43.39,133.61 Z M53.72,108.8 L57.72,110 L57.72,137.6 L53.72,136.5 Z M63.83,112.02 L67.83,113.22 L67.83,140.82 L63.83,139.72 Z M73.94,115.02 L77.94,116.22 L77.94,143.82 L73.94,142.72 Z M84.06,118.02 L88.06,119.22 L88.06,146.82 L84.06,145.72 Z M93.94,121.02 L97.94,122.22 L97.94,149.82 L93.94,148.72 Z M7,111.8 L105,141.2 L105,145.2 L7,115.8 Z" fill="none" stroke="currentColor" stroke-width="1.5"/><path d="M7,12.6 L9,13.3 L9,88.1 L104.5,116.8 L104.5,118.6 L7,89.6 Z" fill="none" stroke="currentColor" stroke-width="1.5"/><path d="M0,125.6 L0,3.6 L12,0 L122.5,34.1 L122.5,155.6 L110.5,158.6 Z" fill="none" stroke="currentColor" stroke-width="1.5"/></svg>