<svg xmlns="http://www.w3.org/2000/svg" viewBox="0 0 129.04 109.68" width="24" height="24"><path d="M84.73,105.96 L69.93,40.76 L113.73,105.96 Z" fill="none" stroke="currentColor" stroke-width="1.5"/><rect x="0" y="0" width="0" height="0" fill="none" stroke="currentColor"/><path d="M83.73,48.96 Z" fill="none" stroke="currentColor" stroke-width="1.5"/><path d="M80.03,67.76 L75.53,46.16 L128.73,40.56 L124.73,57.36 L111.53,64.36 L101.33,67.56 Z" fill="none" stroke="currentColor" stroke-width="1.5"/><rect x="0" y="0" width="0" height="0" fill="none" stroke="currentColor"/><path d="M80.03,19.76 Z" fill="none" stroke="currentColor" stroke-width="1.5"/><rect x="0" y="0" width="0" height="0" fill="none" stroke="currentColor"/><path d="M84.93,16.36 Z" fill="none" stroke="currentColor" stroke-width="1.5"/><path d="M89.13,11.36 Z" fill="none" stroke="currentColor" stroke-width="1.5"/><rect x="0" y="0" width="0" height="0" fill="none" stroke="currentColor"/><path d="M15.73,105.76 L0.93,40.56 L44.73,105.76 Z" fill="none" stroke="currentColor" stroke-width="1.5"/><rect x="0" y="0" width="0" height="0" fill="none" stroke="currentColor"/><path d="M14.73,48.76 Z" fill="none" stroke="currentColor" stroke-width="1.5"/><path d="M11.03,67.56 L6.53,45.96 L59.73,40.36 L55.73,57.16 L42.53,64.16 L32.33,67.36 Z" fill="none" stroke="currentColor" stroke-width="1.5"/><rect x="0" y="0" width="0" height="0" fill="none" stroke="currentColor"/><path d="M11.03,19.56 Z" fill="none" stroke="currentColor" stroke-width="1.5"/><rect x="0" y="0" width="0" height="0" fill="none" stroke="currentColor"/><path d="M15.93,16.16 Z" fill="none" stroke="currentColor" stroke-width="1.5"/><path d="M20.13,11.16 Z" fill="none" stroke="currentColor" stroke-width="1.5"/><rect x="0" y="0" width="0" height="0" fill="none" stroke="currentColor"/><path d="M15.73,105.76 L0.93,40.56 L44.73,105.76 Z M84.73,105.96 L69.93,40.76 L113.73,105.96 Z" fill="none" stroke="currentColor" stroke-width="1.5"/></svg>