<svg xmlns="http://www.w3.org/2000/svg" viewBox="0 0 151.5 178.3" width="24" height="24"><path d="M0,151.5 L0,17.5 L71,0 L130.5,18 L130.5,153.5 L60.5,170 Z" fill="none" stroke="currentColor" stroke-width="1.5"/><path d="M0,17.5 L71,0 L130.5,18 L60.5,35 Z" fill="none" stroke="currentColor" stroke-width="1.5"/><path d="M60.5,35 L130.5,18 L130.5,153.5 L60.5,170 Z" fill="none" stroke="currentColor" stroke-width="1.5"/><path d="M61.2,108.7 L122.4,19.7 Z" fill="none" stroke="currentColor" stroke-width="1.5"/><rect x="0" y="0" width="0" height="0" fill="none" stroke="currentColor"/><path d="M7,38 L7,34.5 L52.5,48.5 L52.5,52 Z M14.5,144 L14.5,140.5 L42.5,148.5 L42.5,152 Z" fill="none" stroke="currentColor" stroke-width="1.5"/><path d="M0,151.5 L0,17.5 L71,0 L130.5,18 L130.5,153.5 L60.5,170 Z" fill="none" stroke="currentColor" stroke-width="1.5"/><ellipse cx="113.7" cy="140.5" rx="37.8" ry="37.8" fill="none" stroke="currentColor"/><ellipse cx="113.7" cy="140.5" rx="33.5" ry="33.5" fill="none" stroke="currentColor"/><rect x="0" y="0" width="0" height="0" fill="none" stroke="currentColor"/><path d="M85.8,158.7 L105.4,140.2 L98.7,123.2 L114.9,123.2 L117.3,133 L127,123.2 L142.4,123.2 L124.4,140.3 L131,158.7 L115,158.7 L112.4,147.5 L100.8,158.7 Z" fill="none" stroke="currentColor" stroke-width="1.5"/></svg>