<svg xmlns="http://www.w3.org/2000/svg" viewBox="0 0 152.24 181.96" width="24" height="24"><path d="M35.7,69.5 Z" fill="none" stroke="currentColor" stroke-width="1.5"/><path d="M0,151.5 L0,17.5 L71,0 L130.5,18 L130.5,153.5 L60.5,170 Z" fill="none" stroke="currentColor" stroke-width="1.5"/><path d="M0,17.5 L71,0 L130.5,18 L60.5,35 Z" fill="none" stroke="currentColor" stroke-width="1.5"/><path d="M60.5,35 L130.5,18 L130.5,153.5 L60.5,170 Z" fill="none" stroke="currentColor" stroke-width="1.5"/><path d="M61.2,108.7 L122.4,19.7 Z" fill="none" stroke="currentColor" stroke-width="1.5"/><rect x="0" y="0" width="0" height="0" fill="none" stroke="currentColor"/><path d="M7,38 L7,34.5 L52.5,48.5 L52.5,52 Z M14.5,144 L14.5,140.5 L42.5,148.5 L42.5,152 Z" fill="none" stroke="currentColor" stroke-width="1.5"/><path d="M0,151.5 L0,17.5 L71,0 L130.5,18 L130.5,153.5 L60.5,170 Z" fill="none" stroke="currentColor" stroke-width="1.5"/><rect x="0" y="0" width="0" height="0" fill="none" stroke="currentColor"/><path d="M99.82,181.96 L89.77,130.89 L142.01,120.17 L152.06,171.91 Z" fill="none" stroke="currentColor" stroke-width="1.5"/><ellipse cx="120.33" cy="150.73" rx="25.12" ry="25.12" fill="none" stroke="currentColor"/><ellipse cx="120.33" cy="150.73000000000002" rx="23.44" ry="23.44" fill="none" stroke="currentColor"/><path d="M113.21,169.32 L126.1,135.49 Z M117.4,159.35 Z" fill="none" stroke="currentColor" stroke-width="1.5"/><path d="M89.77,130.89 L142.09,120.17 L152.06,141.52 Z" fill="none" stroke="currentColor" stroke-width="1.5"/></svg>