<svg xmlns="http://www.w3.org/2000/svg" viewBox="0 0 112.448 112.713" width="24" height="24"><ellipse cx="56.224" cy="56.3565" rx="56.224" ry="56.3565" fill="none" stroke="currentColor"/><rect x="0" y="0" width="0" height="0" fill="none" stroke="currentColor"/><path d="M54.17,41.935 L54.17,53.909 L43.108,53.909 L43.108,58.409 L54.17,58.409 L54.17,70.386 L58.67,70.386 L58.67,58.409 L69.731,58.409 L69.731,53.909 L58.67,53.909 L58.67,41.935 Z M86.79,47.579 L86.79,54.659 L80.286,54.659 L80.286,57.659 L86.79,57.659 L86.79,64.741 L89.79,64.741 L89.79,57.659 L96.292,57.659 L96.292,54.659 L89.79,54.659 L89.79,47.579 Z M54.92,78.306 L54.92,85.386 L48.418,85.386 L48.418,88.386 L54.92,88.386 L54.92,95.468 L57.92,95.468 L57.92,88.386 L64.422,88.386 L64.422,85.386 L57.92,85.386 L57.92,78.306 Z M22.596,47.579 L22.596,54.659 L16.094,54.659 L16.094,57.659 L22.596,57.659 L22.596,64.741 L25.596,64.741 L25.596,57.659 L32.098,57.659 L32.098,54.659 L25.596,54.659 L25.596,47.579 Z M54.92,16.728 L54.92,23.808 L48.418,23.808 L48.418,26.808 L54.92,26.808 L54.92,33.89 L57.92,33.89 L57.92,26.808 L64.422,26.808 L64.422,23.808 L57.92,23.808 L57.92,16.728 Z M33.743,62.812 L33.743,73.294 L23.87,73.294 L23.87,77.294 L33.743,77.294 L33.743,87.779 L37.743,87.779 L37.743,77.294 L47.616,77.294 L47.616,73.294 L37.743,73.294 L37.743,62.812 Z M75.108,62.812 L75.108,73.294 L65.235,73.294 L65.235,77.294 L75.108,77.294 L75.108,87.779 L79.108,87.779 L79.108,77.294 L88.981,77.294 L88.981,73.294 L79.108,73.294 L79.108,62.812 Z M75.108,24.343 L75.108,34.825 L65.235,34.825 L65.235,38.825 L75.108,38.825 L75.108,49.31 L79.108,49.31 L79.108,38.825 L88.981,38.825 L88.981,34.825 L79.108,34.825 L79.108,24.343 Z M33.743,24.343 L33.743,34.825 L23.87,34.825 L23.87,38.825 L33.743,38.825 L33.743,49.31 L37.743,49.31 L37.743,38.825 L47.616,38.825 L47.616,34.825 L37.743,34.825 L37.743,24.343 Z" fill="none" stroke="currentColor" stroke-width="1.5"/></svg>