<svg xmlns="http://www.w3.org/2000/svg" viewBox="0 0 70.67 123.967" width="24" height="24"><path d="M17.547,0 C7.9,0 0,7.9 0,17.547 L0,106.422 C0,116.069 7.9,123.967 17.547,123.967 L53.123,123.967 C62.77,123.967 70.67,116.069 70.67,106.422 L70.67,17.547 C70.67,7.9 62.77,0 53.123,0 Z" fill="none" stroke="currentColor" stroke-width="1.5"/><path d="M17.547,8.5 L53.123,8.5 C58.208,8.5 62.17,12.462 62.17,17.547 L62.17,106.422 C62.17,111.507 58.208,115.467 53.123,115.467 L17.547,115.467 C12.462,115.467 8.5,111.507 8.5,106.422 L8.5,17.547 C8.5,12.462 12.462,8.5 17.547,8.5 Z" fill="none" stroke="currentColor" stroke-width="1.5"/><path d="M30.877,17.52 L39.816,26.52 Z" fill="none" stroke="currentColor" stroke-width="1.5"/><path d="M39.977,102.07 Z" fill="none" stroke="currentColor" stroke-width="1.5"/></svg>