<svg xmlns="http://www.w3.org/2000/svg" viewBox="0 0 136.26 136.26" width="24" height="24"><ellipse cx="68.13" cy="68.13" rx="68.13" ry="68.13" fill="none" stroke="currentColor"/><path d="M71.56,97.79 Z M64.856,34.803 L71.504,41.803 Z M54.838,28.742 L81.242,28.742 C84.862,28.742 87.666,31.546 87.666,35.166 L87.666,101.084 C87.666,104.704 84.862,107.508 81.242,107.508 L54.838,107.508 C51.218,107.508 48.412,104.704 48.412,101.084 L48.412,35.166 C48.412,31.546 51.218,28.742 54.838,28.742 Z M54.838,21.742 C47.461,21.742 41.412,27.789 41.412,35.166 L41.412,101.084 C41.412,108.461 47.461,114.508 54.838,114.508 L81.242,114.508 C88.619,114.508 94.666,108.462 94.666,101.084 L94.666,35.166 C94.666,27.79 88.619,21.742 81.242,21.742 Z" fill="none" stroke="currentColor" stroke-width="1.5"/></svg>