<svg xmlns="http://www.w3.org/2000/svg" viewBox="0 0 128.438 123.843" width="24" height="24"><path d="M33.221,93.767 L26.998,94.031 L20.642,103.168 C19.827,100.564 20.179,97.208 22.099,92.84 L16.934,89.794 L19.02,86.219 C17.583,86.409 15.91,87.245 14.121,88.404 L14.683,70.064 L5.282,71.521 L14.419,50.864 L30.971,44.773 L23.29,37.887 L34.909,35.139 C31.402,33.161 26.474,33.605 20.84,34.047 L42.291,28.055 L50.236,6.405 C51.663,8.561 52.307,10.352 54.54,11.801 L56.261,3.591 L82.744,26.366 L111.875,38.945 L122.865,69.401 C119.549,68.998 116.284,68.244 112.801,69.004 L122.203,76.684 L124.123,84.596 C121.183,81.265 118.101,76.839 115.185,77.214 L122.335,88.469 L117.171,92.706 C118.582,95.135 119.635,97.333 119.554,98.797 L105.783,97.341 L63.542,119.984 L44.342,116.408 Z" fill="none" stroke="currentColor" stroke-width="1.5"/><path d="M45.541,105.547 C40.625,104.836 37.043,101.76 38.259,90.187 C38.646,86.516 39.386,82.66 43.423,77.078 L54.281,72.708 L69.112,77.475 L67.126,70.06 L78.116,75.091 L83.412,83.963 L88.047,81.977 C89.446,89.445 91.421,95.342 89.901,104.752 L76.659,110.446 L69.111,105.017 L64.874,106.606 L59.974,108.857 L53.221,105.282 Z" fill="none" stroke="currentColor" stroke-width="1.5"/><path d="M53.798,0.018 C52.708,4.697 53.71,8.722 53.707,10.339 C57.71,9.195 57.447,7.878 57.183,6.591 C59.449,8.662 61.194,11.301 62.042,13.67 L62.154,17.141 C73.406,21.986 74.667,26.242 74.569,30.028 C87.059,32.036 94.873,31.408 101.147,35.284 C102.16,35.902 104.691,38.471 106.622,41.206 C106.948,41.668 107.167,42.122 107.468,42.599 C107.219,42.569 107.075,42.589 106.809,42.552 C106.159,51.044 106.686,51.106 107.193,51.158 C111.549,51.824 114.775,53.595 116.977,56.356 C118.669,58.478 119.811,61.265 120.143,64.843 C118.128,63.732 116.057,63.088 114.132,62.721 L114.131,62.721 C115.892,67.129 118.465,68.087 120.765,70.151 C126.494,62.154 124.902,56.67 121.669,52.616 C120.629,51.312 119.428,50.172 118.096,49.195 C117.773,42.751 115.878,39.581 113.565,36.304 C111.253,33.03 108.761,29.978 105.604,28.048 C98.105,23.421 89.789,23.404 82.491,24.9 C81.146,17.655 76.764,10.147 67.931,6.142 C61.099,4.182 58.228,1.649 54.693,0.169 Z M47.76,2.583 C43.83,13.933 42.75,20.669 41.566,27.542 C39.695,26.404 37.66,25.426 35.404,24.788 C30.368,23.364 24.395,23.653 18.369,26.601 C26.433,32.118 29.905,32.066 33.092,32.968 C36.279,33.869 39.205,35.899 41.551,38.304 C50.213,27.005 52.658,17.266 51.701,6.447 Z M29.626,34.89 C25.983,34.902 22.173,35.646 19.353,38.179 C23.219,41.457 25.073,41.843 26.677,42.65 C18.978,43.416 12.946,47.257 8.907,52.203 C4.035,58.169 1.651,65.503 0.448,71.701 C9.477,73.839 10.991,73.199 12.381,72.77 C11.954,73.33 11.612,73.831 10.748,74.703 C12.733,78.041 12.958,78.006 13.182,77.972 C9.74,80.99 7.337,84.879 6.055,88.936 C15.931,86.556 19.479,82.394 25.888,81.125 C22.935,72.842 21.731,73.181 20.586,73.597 C19.367,73.613 18.049,73.647 16.66,73.721 C17.304,72.515 17.571,71.097 17.316,69.783 C13.812,68.04 11.805,68.377 9.779,69.223 C10.983,65.063 12.851,60.812 15.49,57.58 C19.01,53.269 23.489,50.534 31.055,51.063 C32.306,41.753 30.441,40.232 28.248,39.151 C30.157,38.986 32.168,38.96 33.997,39.211 C33.356,35.085 32.072,34.956 30.75,34.909 C30.378,34.896 30.002,34.889 29.626,34.89 Z M67.035,67.688 C66.33,67.678 65.644,67.74 64.984,67.88 C63.038,70.151 63.138,71.585 63.637,72.594 C64.136,73.603 64.867,74.313 65.637,74.963 C65.817,75.115 65.989,75.217 66.176,75.364 C65.995,75.319 65.907,75.345 65.717,75.291 C63.079,74.548 59.609,72.993 55.824,71.053 C51.293,70.498 46.855,71.636 42.959,74.155 C39.063,76.674 35.713,80.686 34.645,86.066 C39.402,82.649 41.969,79.558 45.131,77.514 C48.213,75.522 51.837,74.671 54.496,74.85 C58.187,76.724 61.632,78.296 64.631,79.141 C66.2,79.583 67.655,79.843 69.051,79.789 C70.446,79.735 71.869,79.317 72.924,78.293 C71.303,74.051 69.641,73.029 68.502,72.117 C70.27,72.491 72.317,73.199 74.399,74.692 C77.703,77.061 80.656,80.725 81.654,85.42 C85.737,86.662 86.875,85.393 87.728,84.037 C88.431,86.919 89.18,89.972 89.707,92.443 L95.809,91.682 L92.953,88.775 C92.089,85.081 91.105,81.235 90.246,77.277 C85.821,78.8 85.251,80.441 84.652,81.539 C84.627,81.587 84.617,81.559 84.592,81.604 C82.923,77.237 79.984,73.773 76.729,71.44 C73.748,69.303 70.613,67.95 67.747,67.721 C67.508,67.702 67.271,67.691 67.036,67.687 Z M112.485,68.888 C118.446,73.944 122.485,80.376 124.488,86.11 C126.023,78.375 121.34,70.383 112.797,68.917 Z M114.14,76.825 C116.124,82.095 117.828,84.436 118.851,87.293 C119.237,88.369 119.421,89.554 119.605,90.729 C117.695,88.796 115.578,87.075 113.34,86.059 C114.476,90.967 118.344,94.743 120.238,97.766 C124.148,93.366 123.898,89.519 122.617,85.944 C121.336,82.369 118.934,79.042 115.046,77.045 Z M48.456,83.417 C47.887,83.418 47.264,83.455 46.579,83.53 C41.014,84.261 41.78,90.722 44.912,90.875 C48.33,88.749 50.002,87.981 53.894,88.056 C54.021,85.705 53.083,83.405 48.455,83.417 Z M72.725,84.29 C71.794,84.29 71.019,84.396 70.552,84.574 C69.15,85.208 68.833,87.367 68.973,89.263 C70.388,89.092 72.539,89.381 74.947,89.831 C76.645,90.355 78.119,91.13 79.317,92.215 C80.741,90.41 81.612,87.758 79.543,86.218 C77.582,84.809 74.775,84.291 72.725,84.29 Z M19.068,86.192 C16.293,88.692 15.251,90.654 14.578,92.59 C13.904,94.526 13.538,96.415 13.939,98.239 C19.654,95.997 22.608,93.366 26.587,91.125 C22.886,88.618 21.42,89.747 19.982,90.889 C20.281,90.394 20.441,89.848 20.782,89.401 Z M33.722,89.293 C22.533,94.49 20.46,99.029 19.863,102.836 C24.261,100.608 25.936,97.101 28.892,95.305 C29.993,98.12 30.841,102.103 32.931,105.498 C34.68,108.339 37.333,110.616 40.641,112.087 C40.246,113.948 40.24,115.856 40.728,117.577 L40.73,117.576 C44.495,117.798 44.626,117.706 44.697,117.586 C44.707,117.799 44.614,117.958 44.654,118.183 C44.842,119.238 45.586,120.396 46.669,121.011 L50.232,119.174 C50.314,119.43 50.333,119.727 50.437,119.971 C51.15,121.645 52.793,123.053 54.7,123.164 C56.904,121.181 57.234,120.695 57.489,120.094 L58.517,122.599 L62.94,120.824 C63.204,121.315 63.325,121.807 63.61,122.283 L67.297,121.714 C67.591,122.102 67.852,122.504 68.271,122.836 C71.622,121.695 71.926,120.982 72.263,120.281 L72.799,121.298 C76.753,119.985 76.841,119.166 76.956,118.332 C77.633,118.933 78.308,119.551 79.079,119.994 C82.247,117.8 82.3,116.919 82.228,116.122 C85.619,115.247 88.911,113.749 91.738,111.859 C94.223,110.199 96.494,108.324 97.772,105.555 C101.238,103.448 104.772,101.582 108.612,100.057 L113.035,102.93 L111.498,91.2 C101.481,92.84 96.447,95.742 91.797,98.617 C89.823,101.232 88.823,102.983 86.737,104.377 C84.651,105.772 81.788,107.02 79.335,107.565 C76.627,106.263 75.315,105.295 73.147,104.386 C71.255,103.568 69.124,103.393 66.608,104.254 C66.508,103.671 66.313,103.075 66.028,102.488 C64.545,104.931 64.419,105.648 63.952,106.193 C63.484,106.739 62.297,107.26 60.343,107.26 C58.11,107.26 57.258,106.585 56.891,105.853 C56.524,105.122 56.622,103.994 57.216,102.944 C54.826,102.295 54.59,102.866 54.441,103.454 C51.684,102.4 48.193,102.626 45.605,104.07 C45.206,104.353 44.824,104.672 44.46,105.02 C42.115,104.16 40.765,102.965 39.743,101.305 C38.593,99.437 37.911,96.747 37.821,93.192 Z M49.863,92.537 Z M74.38,92.957 Z M67.753,106.722 C69.911,106.728 72.028,108.064 72.796,108.717 C74.564,110.317 75.218,110.965 75.534,111.995 C69.854,115.09 69.786,115.23 69.751,115.406 L65.212,116.291 C65.092,115.972 64.814,115.537 64.735,115.264 L60.356,116.547 L59.442,114.318 C55.347,115.013 54.682,116.325 54.038,117.756 C53.786,116.915 53.554,115.803 53.589,114.07 L49.648,113.287 C49.745,112.878 49.885,112.514 49.917,112.055 C49.708,106.606 53.081,107.223 55.34,107.807 C56.357,108.959 58.083,109.659 60.343,109.659 C62.695,109.659 64.615,109.108 65.774,107.757 C65.988,107.507 66.164,107.235 66.302,106.945 C66.778,106.788 67.267,106.721 67.753,106.723 Z" fill="none" stroke="currentColor" stroke-width="1.5"/></svg>