<svg xmlns="http://www.w3.org/2000/svg" viewBox="0 0 114.234 123.918" width="24" height="24"><path d="M94.334,0.223 L76.053,16.539 L74.506,110.133 C74.506,113.961 76.265,117.212 78.697,119.635 C81.129,122.057 84.435,123.822 88.307,123.822 L99.778,123.822 C102.965,123.822 106.116,122.773 108.946,120.588 C111.775,118.403 114.185,114.65 114.186,110.141 L114.186,110.137 L114.233,20.067 L97.875,1.682 Z M41.037,0 L10.105,0.176 L41.094,9.998 L41.064,10 C42.528,10 44.81,12.248 44.81,14.732 C44.81,16.17 44.289,17.634 43.557,18.522 C42.824,19.41 42.098,19.889 40.51,19.889 L37.099,19.932 C30.537,19.932 24.869,25.503 24.869,32.151 L24.887,35.301 C11.367,37.793 0,49.179 0,65.25 L0.022,94.645 C0.024,111.893 15.269,123.918 29.674,123.918 C44.438,123.918 59.459,112.353 59.459,96.139 L59.876,63.914 C59.876,49.546 48.592,37.442 34.886,35.227 L34.869,32.15 C34.869,30.361 35.346,29.932 37.099,29.932 L40.51,29.889 C44.93,29.889 48.856,27.814 51.272,24.887 C53.687,21.959 54.811,18.344 54.811,14.733 C54.811,7.001 49.053,0.001 41.065,0.001 Z" fill="none" stroke="currentColor" stroke-width="1.5"/><path d="M84.584,32.513 L104.225,32.513 L104.192,94.118 L84.522,94.014 Z M84.51,104.017 L104.188,104.118 L104.184,110.14 C104.184,111.364 103.767,111.954 102.83,112.677 C101.894,113.4 100.341,113.827 99.776,113.827 L88.305,113.827 C87.694,113.827 86.6,113.399 85.752,112.554 C84.904,111.709 84.504,110.618 84.504,110.142 Z M24.94,45.515 L25.069,69.386 L10.003,69.333 L9.999,65.251 C10.001,54.436 16.526,47.6 24.94,45.515 Z M10.008,79.333 L49.672,79.473 L49.457,96.078 C49.457,105.782 38.979,113.922 29.672,113.922 C21.163,113.922 10.02,105.673 10.02,94.645 Z" fill="none" stroke="currentColor" stroke-width="1.5"/><path d="M94.364,12.303 L104.233,22.142 L104.233,22.512 L84.598,22.512 L84.598,22.131 Z M34.942,45.491 C42.909,47.784 49.874,55.693 49.878,63.848 L49.878,63.854 L49.804,69.473 L35.072,69.42 Z" fill="none" stroke="currentColor" stroke-width="1.5"/></svg>