<svg xmlns="http://www.w3.org/2000/svg" viewBox="0 0 136.26 136.26" width="24" height="24"><ellipse cx="68.13" cy="68.13" rx="68.13" ry="68.13" fill="none" stroke="currentColor"/><path d="M45.226,34.08 C39.051,34.08 33.988,39.145 33.988,45.32 L33.988,91.154 C33.988,97.329 39.051,102.394 45.226,102.394 L91.154,102.394 C97.329,102.394 102.394,97.329 102.394,91.154 L102.394,45.32 C102.394,39.145 97.329,34.08 91.154,34.08 Z M45.226,40.08 L91.154,40.08 C94.109,40.08 96.394,42.366 96.394,45.32 L96.394,91.154 C96.394,94.109 94.109,96.394 91.154,96.394 L45.226,96.394 C42.271,96.394 39.988,94.109 39.988,91.154 L39.988,45.32 C39.988,42.366 42.271,40.08 45.226,40.08 Z M78.165,49.039 L73.561,58.516 L66.184,58.516 L67.206,52.5 L60.099,58.516 L50.618,58.516 L59.081,64.516 L57.802,72.06 L50.509,72.06 L56.784,78.06 L55.792,83.904 L62.87,78.06 L70.339,78.06 L69.372,83.918 L76.419,78.06 L85.886,78.06 L77.407,72.06 L78.651,64.516 L85.747,64.516 L79.642,58.516 L80.636,52.486 Z M65.167,64.516 L72.571,64.516 L71.327,72.061 L63.888,72.061 Z" fill="none" stroke="currentColor" stroke-width="1.5"/></svg>