<svg xmlns="http://www.w3.org/2000/svg" viewBox="0 0 121.245 121.286" width="24" height="24"><path d="M19.301,0 C8.695,0 0,8.695 0,19.301 L0,101.985 C0,112.591 8.695,121.286 19.301,121.286 L101.944,121.286 C112.55,121.286 121.245,112.591 121.245,101.985 L121.245,19.301 C121.245,8.695 112.55,0 101.944,0 Z" fill="none" stroke="currentColor" stroke-width="1.5"/><path d="M19.301,10 L101.944,10 C107.183,10 111.245,14.062 111.245,19.301 L111.245,101.985 C111.245,107.224 107.183,111.286 101.944,111.286 L19.301,111.286 C14.062,111.286 10,107.224 10,101.985 L10,19.301 C10,14.062 14.062,10 19.301,10 Z" fill="none" stroke="currentColor" stroke-width="1.5"/><path d="M78.401,26.61 L70.536,43.418 L56.513,43.418 L58.355,32.463 L46.372,43.418 L29.069,43.418 L44.692,53.418 L42.288,67.717 L29.147,67.717 L40.606,77.717 L38.731,88.873 L50.748,77.717 L64.828,77.717 L62.965,88.924 L74.965,77.717 L92.25,77.717 L76.629,67.717 L79.008,53.418 L92.117,53.418 L80.672,43.418 L82.512,32.361 Z M54.833,53.419 L68.872,53.419 L66.493,67.718 L52.429,67.718 Z" fill="none" stroke="currentColor" stroke-width="1.5"/></svg>