<svg xmlns="http://www.w3.org/2000/svg" viewBox="0 0 166.422 166.422" width="24" height="24"><ellipse cx="83.211" cy="83.211" rx="83.211" ry="83.211" fill="none" stroke="currentColor"/><path d="M105.911,37.521 C108.263,47.715 112.409,56.777 112.409,62.748 C112.409,73.574 107.005,80.78 103.733,83.771 C113.004,84.779 119.409,75.874 119.409,62.748 C119.409,54.018 114.862,44.248 108.434,38.424 Z M60.831,37.578 C52.475,43.619 47.142,52.821 47.142,62.992 C47.142,73.174 51.832,82.831 58.058,89.06 C58.163,79.265 54.14,70.929 54.14,62.991 C54.14,55.442 58.761,47.399 62.943,43.69 Z M97.561,47.285 C96.225,54.019 97.413,55.761 98.204,57.707 C98.994,59.652 99.456,61.847 99.456,63.089 C99.456,65.812 98.292,70.72 95.249,74.15 C104.998,73.708 106.456,67.522 106.456,63.09 C106.456,60.456 105.759,57.708 104.688,55.072 C103.617,52.437 102.238,49.96 100.104,48.123 Z M68.387,47.314 C62.258,52.563 60.282,57.433 60.268,63.282 C60.099,69.337 62.439,75.122 65.881,78.889 C69.148,72.089 67.144,67.332 67.26,63.446 C67.26,58.821 68.302,56.313 71.156,53.156 Z M76.594,81.418 L58.694,124.273 L83.317,112.203 L102.141,128.131 L93.282,83.745 Z M79.053,88.418 L87.514,88.418 L90.573,97.02 L83.346,103.059 L76.014,96.854 Z M73.483,103.881 L77.893,107.613 L69.658,114.49 Z M93.075,104.053 L96.756,114.405 L88.772,107.649 Z M83.43,53.983 C78.074,53.983 73.657,58.4 73.657,63.756 C73.657,69.112 78.074,73.53 83.43,73.53 C88.786,73.53 93.204,69.112 93.204,63.756 C93.204,58.4 88.786,53.983 83.43,53.983 Z M83.43,60.983 C85.003,60.983 86.204,62.183 86.204,63.756 C86.204,65.329 85.003,66.53 83.43,66.53 C81.857,66.53 80.657,65.329 80.657,63.756 C80.657,62.183 81.857,60.983 83.43,60.983 Z" fill="none" stroke="currentColor" stroke-width="1.5"/></svg>