<svg xmlns="http://www.w3.org/2000/svg" viewBox="0 0 151.256 137.106" width="24" height="24"><path d="M68.553,0 C30.758,0 0,30.757 0,68.553 C0,106.348 30.757,137.106 68.553,137.106 C104.719,137.106 134.364,108.924 136.86,73.381 L141.798,78.449 L136.016,56.751 C130.396,24.57 102.317,0.001 68.553,0.001 Z" fill="none" stroke="currentColor" stroke-width="1.5"/><path d="M68.553,11 C96.854,11 120.255,31.31 125.129,58.178 L112.705,70.735 L125.879,73.059 C123.584,102.787 98.882,126.106 68.553,126.106 C36.703,126.106 11,100.404 11,68.553 C11,36.703 36.702,11 68.553,11 Z" fill="none" stroke="currentColor" stroke-width="1.5"/><path d="M68.533,22.72 C51.495,22.72 37.564,36.651 37.564,53.689 C37.564,64.108 42.808,73.323 50.752,78.943 C37.614,85.339 28.576,98.793 28.576,115.111 L28.576,121.058 L71.2,132.42 L108.49,121.218 L108.49,115.205 C108.49,98.087 99.135,85.3 86.129,79.094 C94.182,73.488 99.5,64.194 99.5,53.69 C99.5,36.652 85.571,22.721 68.533,22.721 Z" fill="none" stroke="currentColor" stroke-width="1.5"/><path d="M68.533,33.72 C57.44,33.72 48.564,42.595 48.564,53.688 C48.564,64.781 57.44,73.655 68.533,73.655 C79.626,73.655 88.5,64.781 88.5,53.688 C88.5,42.595 79.626,33.72 68.533,33.72 Z M67.97,85.874 C51.667,85.874 39.576,97.719 39.576,115.11 L39.576,118.309 C48.081,123.261 57.977,126.098 68.554,126.098 C79.119,126.098 89,123.266 97.49,118.322 L97.49,115.204 C97.49,96.138 84.623,85.874 67.97,85.874 Z" fill="none" stroke="currentColor" stroke-width="1.5"/></svg>