<svg xmlns="http://www.w3.org/2000/svg" viewBox="0 0 139.436 139.964" width="24" height="24"><ellipse cx="69.718" cy="69.982" rx="69.718" ry="69.982" fill="none" stroke="currentColor"/><path d="M70.098,29.942 C62.43,30.102 54.912,31.15 49.078,32.782 C46.161,33.598 43.673,34.534 41.664,35.756 C39.655,36.979 37.607,38.719 37.607,41.62 L37.607,97.61 C37.607,100.8 39.868,103.093 42.262,104.559 C44.655,106.025 47.571,107.038 50.764,107.854 C57.149,109.486 64.605,110.223 70.164,110.223 C77.526,110.223 85.014,109.141 90.906,107.385 C93.852,106.507 96.394,105.483 98.439,104.16 C100.484,102.838 102.488,100.988 102.488,98.078 L102.488,41.711 C102.488,38.931 100.609,37.143 98.675,35.864 C96.741,34.584 94.328,33.59 91.466,32.733 C85.742,31.018 78.235,29.942 70.163,29.942 C70.141,29.942 70.119,29.942 70.097,29.942 Z M70.202,36.444 C77.668,36.448 84.687,37.487 89.602,38.96 C92.064,39.697 94.001,40.566 95.088,41.286 C95.604,41.627 95.804,41.863 95.902,41.971 C95.829,42.281 95.62,42.672 94.705,43.354 C93.548,44.217 91.517,45.165 88.978,45.924 C83.902,47.443 76.842,48.294 70.164,48.294 C63.938,48.294 56.791,47.635 51.537,46.198 C48.91,45.479 46.772,44.541 45.545,43.643 C44.549,42.914 44.293,42.446 44.205,41.962 C44.308,41.86 44.502,41.64 45.043,41.311 C46.214,40.599 48.273,39.757 50.83,39.042 C55.937,37.613 63.059,36.595 70.201,36.444 Z M95.989,50.069 L95.989,59.956 C95.989,60.282 95.863,60.734 94.705,61.596 C93.548,62.459 91.517,63.407 88.979,64.167 C83.902,65.685 76.843,66.538 70.165,66.538 C65.596,66.538 60.752,66.044 56.304,65.288 L56.304,60.719 C56.304,58.924 54.849,57.469 53.054,57.469 C51.259,57.469 49.804,58.924 49.804,60.719 L49.804,63.846 C48.025,63.235 46.47,62.564 45.546,61.887 C44.319,60.989 44.108,60.485 44.108,59.862 L44.108,50.229 C45.852,51.127 47.723,51.893 49.821,52.467 C55.999,54.158 63.504,54.794 70.165,54.794 C77.375,54.794 84.853,53.942 90.841,52.151 C92.738,51.584 94.421,50.873 95.99,50.069 Z M95.989,68.313 L95.989,78.545 C95.989,78.871 95.863,79.323 94.705,80.186 C93.548,81.048 91.517,81.997 88.979,82.756 C83.902,84.275 76.843,85.125 70.165,85.125 C65.596,85.125 60.752,84.631 56.304,83.875 L56.304,71.877 C60.905,72.586 65.665,73.037 70.165,73.037 C77.374,73.037 84.853,72.186 90.841,70.395 C92.737,69.827 94.42,69.117 95.989,68.313 Z M44.108,68.473 C45.846,69.368 47.712,70.133 49.803,70.706 L49.803,82.435 C48.024,81.823 46.47,81.152 45.545,80.476 C44.318,79.577 44.108,79.075 44.108,78.452 Z M95.989,86.901 L95.989,98.079 C95.989,97.496 96.116,97.921 94.908,98.702 C93.701,99.483 91.612,100.393 89.049,101.157 C83.923,102.685 76.873,103.724 70.164,103.724 C65.208,103.724 58.011,102.999 52.373,101.558 C49.554,100.837 47.114,99.91 45.656,99.017 C44.198,98.124 44.107,97.637 44.107,97.611 L44.107,87.062 C45.846,87.956 47.711,88.723 49.803,89.296 L49.803,94.614 C49.803,96.409 51.258,97.864 53.053,97.864 C54.848,97.864 56.303,96.409 56.303,94.614 L56.303,90.466 C60.904,91.175 65.664,91.626 70.164,91.626 C77.373,91.626 84.852,90.775 90.84,88.984 C92.736,88.416 94.419,87.706 95.988,86.902 Z" fill="none" stroke="currentColor" stroke-width="1.5"/></svg>