<svg xmlns="http://www.w3.org/2000/svg" viewBox="0 0 157.162 158.22" width="24" height="24"><ellipse cx="78.581" cy="79.11" rx="78.581" ry="79.11" fill="none" stroke="currentColor"/><path d="M58.262,37.1 C49.68,37.1 42.653,44.127 42.653,52.709 C42.653,57.561 44.945,61.861 48.448,64.73 C41.715,68.396 37.807,75.551 37.807,82.671 L37.807,91.659 L75.477,94.816 L78.717,83.513 C78.717,77.923 76.96,72.613 73.453,68.644 C72.005,67.005 70.188,65.7 68.188,64.638 C71.627,61.768 73.871,57.509 73.871,52.708 C73.871,44.126 66.844,37.099 58.262,37.099 Z" fill="none" stroke="currentColor" stroke-width="1.5"/><path d="M98.781,37.1 C90.199,37.1 83.172,44.127 83.172,52.709 C83.172,57.561 85.464,61.861 88.967,64.73 C82.234,68.396 78.326,75.551 78.326,82.671 L78.326,91.659 L115.996,94.816 L119.236,83.513 C119.236,77.923 117.479,72.613 113.972,68.644 C112.524,67.005 110.707,65.7 108.707,64.638 C112.146,61.768 114.39,57.509 114.39,52.708 C114.39,44.126 107.363,37.099 98.781,37.099 Z" fill="none" stroke="currentColor" stroke-width="1.5"/><path d="M58.379,68.7 C63.019,68.7 66.275,70.344 68.582,72.956 C70.89,75.568 72.217,79.292 72.217,83.52 L72.217,88.332 L44.307,88.409 L44.307,82.678 C44.307,75.699 48.958,68.699 58.379,68.699 Z" fill="none" stroke="currentColor" stroke-width="1.5"/><path d="M58.262,43.6 C63.332,43.6 67.371,47.64 67.371,52.709 C67.371,57.779 63.332,61.819 58.262,61.819 C53.193,61.819 49.153,57.779 49.153,52.709 C49.153,47.64 53.193,43.6 58.262,43.6 Z" fill="none" stroke="currentColor" stroke-width="1.5"/><path d="M98.901,68.7 C103.541,68.7 106.797,70.344 109.104,72.956 C111.412,75.568 112.739,79.292 112.739,83.52 L112.739,88.332 L84.829,88.409 L84.829,82.678 C84.829,75.699 89.48,68.699 98.901,68.699 Z" fill="none" stroke="currentColor" stroke-width="1.5"/><path d="M98.781,43.6 C103.85,43.6 107.89,47.64 107.89,52.709 C107.89,57.779 103.85,61.819 98.781,61.819 C93.712,61.819 89.672,57.779 89.672,52.709 C89.672,47.64 93.712,43.6 98.781,43.6 Z" fill="none" stroke="currentColor" stroke-width="1.5"/><path d="M78.521,63.41 C69.939,63.41 62.912,70.437 62.912,79.019 C62.912,83.871 65.204,88.171 68.707,91.04 C61.974,94.706 58.066,101.861 58.066,108.981 L58.066,117.969 L95.736,121.126 L98.976,109.823 C98.976,104.232 97.219,98.923 93.712,94.954 C92.264,93.315 90.447,92.01 88.447,90.948 C91.886,88.078 94.13,83.819 94.13,79.018 C94.13,70.436 87.103,63.409 78.521,63.409 Z" fill="none" stroke="currentColor" stroke-width="1.5"/><path d="M78.521,69.91 C83.591,69.91 87.63,73.95 87.63,79.019 C87.63,84.089 83.591,88.129 78.521,88.129 C73.452,88.129 69.412,84.089 69.412,79.019 C69.412,73.95 73.452,69.91 78.521,69.91 Z" fill="none" stroke="currentColor" stroke-width="1.5"/><path d="M78.641,95.01 C83.281,95.01 86.537,96.654 88.844,99.266 C91.152,101.878 92.479,105.602 92.479,109.83 L92.479,114.642 L64.569,114.719 L64.569,108.988 C64.569,102.009 69.22,95.009 78.641,95.009 Z" fill="none" stroke="currentColor" stroke-width="1.5"/></svg>