<svg xmlns="http://www.w3.org/2000/svg" viewBox="0 0 112.006 115.881" width="24" height="24"><path d="M28.554,34.145 C21.306,34.145 14.431,37.406 9.2,42.386 C3.969,47.366 0.225,54.145 0.225,61.593 L0.036,74.872 C0,77.386 2.03,79.441 4.544,79.437 L52.106,79.341 C54.587,79.335 56.596,77.322 56.596,74.841 L56.596,61.593 C56.596,47.741 45.251,34.145 28.553,34.145 Z M28.316,0 C16.461,0 6.755,9.706 6.755,21.561 C6.755,33.416 16.722,43.014 28.577,43.014 C40.432,43.014 49.878,33.416 49.878,21.561 C49.878,9.706 40.17,0 28.316,0 Z" fill="none" stroke="currentColor" stroke-width="1.5"/><path d="M83.964,34.145 C76.716,34.145 69.841,37.406 64.61,42.386 C59.379,47.366 55.635,54.145 55.635,61.593 L55.446,74.872 C55.41,77.386 57.44,79.441 59.954,79.437 L107.516,79.341 C109.997,79.335 112.006,77.322 112.006,74.841 L112.006,61.593 C112.006,47.741 100.661,34.145 83.963,34.145 Z M83.726,0 C71.871,0 62.165,9.706 62.165,21.561 C62.165,33.416 72.132,43.014 83.987,43.014 C95.842,43.014 105.288,33.416 105.288,21.561 C105.288,9.706 95.58,0 83.726,0 Z" fill="none" stroke="currentColor" stroke-width="1.5"/><path d="M28.314,8.995 C35.305,8.995 40.876,14.565 40.876,21.556 C40.876,28.547 35.304,34.118 28.314,34.118 C21.324,34.118 15.753,28.546 15.753,21.556 C15.753,14.565 21.323,8.995 28.314,8.995 Z" fill="none" stroke="currentColor" stroke-width="1.5"/><path d="M28.554,43.025 C40.34,43.025 47.597,52.632 47.597,61.591 L47.597,70.349 L9.101,70.425 L9.226,61.653 C9.226,61.633 9.226,61.612 9.226,61.591 C9.226,57.268 11.615,52.512 15.407,48.902 C19.2,45.292 24.236,43.025 28.553,43.025 Z" fill="none" stroke="currentColor" stroke-width="1.5"/><path d="M83.724,8.995 C90.715,8.995 96.286,14.565 96.286,21.556 C96.286,28.547 90.714,34.118 83.724,34.118 C76.734,34.118 71.163,28.546 71.163,21.556 C71.163,14.565 76.733,8.995 83.724,8.995 Z" fill="none" stroke="currentColor" stroke-width="1.5"/><path d="M83.964,43.025 C95.75,43.025 103.007,52.632 103.007,61.591 L103.007,70.349 L64.511,70.425 L64.636,61.653 C64.636,61.633 64.636,61.612 64.636,61.591 C64.636,57.268 67.025,52.512 70.817,48.902 C74.61,45.292 79.646,43.025 83.963,43.025 Z" fill="none" stroke="currentColor" stroke-width="1.5"/><path d="M56.174,70.585 C48.926,70.585 42.051,73.846 36.82,78.826 C31.589,83.806 27.845,90.585 27.845,98.033 L27.656,111.312 C27.62,113.826 29.65,115.881 32.164,115.877 L79.726,115.781 C82.207,115.775 84.216,113.762 84.216,111.281 L84.216,98.033 C84.216,84.181 72.871,70.585 56.173,70.585 Z M55.936,36.44 C44.081,36.44 34.375,46.146 34.375,58.001 C34.375,69.856 44.342,79.454 56.197,79.454 C68.052,79.454 77.498,69.856 77.498,58.001 C77.498,46.146 67.79,36.44 55.936,36.44 Z" fill="none" stroke="currentColor" stroke-width="1.5"/><path d="M55.934,45.435 C62.925,45.435 68.496,51.005 68.496,57.996 C68.496,64.987 62.924,70.558 55.934,70.558 C48.944,70.558 43.373,64.986 43.373,57.996 C43.373,51.005 48.943,45.435 55.934,45.435 Z" fill="none" stroke="currentColor" stroke-width="1.5"/><path d="M56.174,79.465 C67.96,79.465 75.217,89.072 75.217,98.031 L75.217,106.789 L36.721,106.865 L36.846,98.094 C36.846,98.073 36.846,98.052 36.846,98.031 C36.846,93.708 39.235,88.952 43.027,85.342 C46.82,81.732 51.856,79.465 56.173,79.465 Z" fill="none" stroke="currentColor" stroke-width="1.5"/></svg>