<svg xmlns="http://www.w3.org/2000/svg" viewBox="0 0 124.825 166.454" width="24" height="24"><path d="M63.25,0.002 C30.534,0.002 0,27.041 0,62.154 C0,71.755 2.534,81.145 6.215,89.144 C9.896,97.142 14.574,103.761 20.125,107.892 C22.851,109.923 23.771,112.755 23.771,116.956 L23.771,160.454 L94.627,166.454 L100.627,115.817 C100.627,112.861 101.866,110.705 105.584,107.364 C116.985,96.442 124.825,80.245 124.825,61.295 C124.825,28.763 96.699,0 63.251,0 Z" fill="none" stroke="currentColor" stroke-width="1.5"/><path d="M35.75,133.902 L88.606,133.902 L88.606,154.447 L35.75,154.447 Z" fill="none" stroke="currentColor" stroke-width="1.5"/><path d="M63.25,12.002 C89.67,12.002 112.824,35.84 112.824,61.297 C112.824,76.939 106.363,90.002 97.422,98.57 L97.563,98.439 C92.596,102.902 88.627,108.719 88.627,115.818 L88.627,121.91 L68.414,121.91 L68.414,92.113 L58.637,81.628 L80.008,71.003 L58.672,49.448 L66.189,43.384 L43.914,45.939 L63.961,65.579 L44.705,75.151 L56.414,95.063 L56.414,121.909 L35.771,121.909 L35.771,116.956 C35.771,110.489 33.668,103.016 27.292,98.267 C24.341,96.071 20.164,90.748 17.116,84.126 C14.069,77.505 12.001,69.594 12.001,62.153 C12.001,34.101 37.227,12.001 63.251,12.001 Z" fill="none" stroke="currentColor" stroke-width="1.5"/></svg>