<svg xmlns="http://www.w3.org/2000/svg" viewBox="0 0 151.748 151.748" width="24" height="24"><ellipse cx="75.874" cy="75.874" rx="75.874" ry="75.874" fill="none" stroke="currentColor"/><path d="M75.664,34.184 C57.634,34.184 44.269,49.658 44.269,65.293 C44.269,71.268 46.068,76.79 49.074,81.787 L73.301,115.849 L100.676,83.869 L100.686,83.855 C104.377,78.815 106.77,72.504 106.77,65.285 C106.77,45.856 90.238,34.183 75.665,34.183 Z M75.664,40.184 C87.037,40.184 100.769,49.272 100.769,65.286 C100.769,71.202 98.863,76.193 95.835,80.323 L75.73,108.917 L54.199,78.655 C51.66,74.42 50.27,70.067 50.27,65.294 C50.27,53.146 61.128,40.185 75.665,40.185 Z M67.937,53.229 C65.672,53.17 63.351,53.919 61.451,55.51 C59.414,57.311 58.29,59.666 57.906,62.073 C57.522,64.479 57.853,67.09 59.512,69.188 L73.6,83.243 L90.544,70.744 C94.14,67.264 94.723,61.591 91.661,57.543 C88.355,53.224 81.977,51.705 77.694,55.399 L75.596,57.367 L74.165,55.863 C72.414,54.152 70.204,53.287 67.938,53.229 Z M67.781,59.243 C68.611,59.268 69.381,59.578 69.894,60.079 C69.895,60.079 69.895,60.08 69.896,60.081 L73.309,63.665 L81.621,59.938 C82.851,58.886 85.443,59.305 86.877,61.169 C87.783,62.374 87.526,65.316 86.371,66.434 L75.728,76.897 L64.197,65.418 C63.913,65.028 63.656,64.122 63.832,63.017 C64.011,61.898 64.609,60.749 65.342,60.086 C66.09,59.474 66.964,59.217 67.782,59.242 Z" fill="none" stroke="currentColor" stroke-width="1.5"/></svg>