<svg xmlns="http://www.w3.org/2000/svg" viewBox="0 0 174.363 181.221" width="24" height="24"><path d="M7,0 L0,146.3 L20.969,153.3 L20.969,174.22 L146.145,181.124 L153.41,153.3 L167.363,153.3 L174.363,7 Z" fill="none" stroke="currentColor" stroke-width="1.5"/><path d="M13.999,14.001 L13.999,139.295 L160.359,139.295 L160.359,14.001 Z M73.206,31.063 L80.206,45.713 C83.696,46.508 86.972,47.884 89.926,49.733 L95.468,44.156 L99.886,59.573 C101.814,62.572 103.25,65.911 104.079,69.477 L111.801,69.477 L104.133,83.477 C103.334,87.047 101.926,90.396 100.026,93.407 L105.487,98.886 L90.15,103.329 C87.138,105.249 83.785,106.675 80.207,107.49 L80.207,115.046 L66.207,107.485 C62.666,106.676 59.346,105.267 56.359,103.375 L51.066,108.701 L46.456,93.479 C44.534,90.449 43.111,87.076 42.305,83.477 L34.858,83.477 L42.36,69.477 C43.188,65.915 44.622,62.578 46.546,59.581 L40.924,53.94 L56.503,49.739 C59.452,47.892 62.722,46.515 66.206,45.719 L66.206,38.063 Z" fill="none" stroke="currentColor" stroke-width="1.5"/><path d="M73.22,58.93 C83.064,58.93 90.896,66.76 90.896,76.604 C90.896,86.448 83.064,94.278 73.22,94.278 C63.376,94.278 55.546,86.448 55.546,76.604 C55.546,66.76 63.376,58.93 73.22,58.93 Z M139.386,27.547 L132.386,118.729 L146.386,34.547 Z M139.386,34.546 L139.386,118.727 M34.966,153.298 L139.406,153.298 L139.226,167.128 L34.966,167.212 Z" fill="none" stroke="currentColor" stroke-width="1.5"/></svg>