<svg xmlns="http://www.w3.org/2000/svg" viewBox="0 0 166.422 166.422" width="24" height="24"><ellipse cx="83.211" cy="83.211" rx="83.211" ry="83.211" fill="none" stroke="currentColor"/><path d="M83.111,35.271 L80.111,40.89 C73.355,41.663 67.306,44.791 62.822,49.206 C57.947,54.007 54.834,60.193 54.507,66.454 L48.929,66.454 L54.396,72.454 L54.484,102.218 L49.08,102.218 L46.08,118.138 L117.525,121.138 L120.525,105.218 L112.308,102.218 L112.046,72.454 L117.755,72.454 L111.837,66.454 C111.006,53.026 100.262,42.228 86.111,40.847 L86.111,38.271 Z M83.111,46.562 C95.707,46.562 104.98,55.39 105.839,66.455 L60.515,66.455 C60.851,62.144 63.169,57.287 67.032,53.482 C71.205,49.373 76.92,46.562 83.11,46.562 Z M60.396,72.455 L67.242,72.455 L67.242,102.219 L60.484,102.219 Z M73.242,72.455 L80.34,72.455 L80.34,102.219 L73.242,102.219 Z M86.34,72.455 L93.44,72.455 L93.44,102.219 L86.34,102.219 Z M99.44,72.455 L106.047,72.455 L106.309,102.219 L99.44,102.219 Z M52.081,108.219 L114.526,108.219 L114.526,115.139 L52.081,115.139 Z" fill="none" stroke="currentColor" stroke-width="1.5"/></svg>