<svg xmlns="http://www.w3.org/2000/svg" viewBox="0 0 151.342 151.342" width="24" height="24"><ellipse cx="75.671" cy="75.671" rx="75.671" ry="75.671" fill="none" stroke="currentColor"/><path d="M91.911,50.231 C91.437,54.709 89.834,58.223 86.568,62.164 L79.106,62.164 C81.406,59.054 83.513,55.183 84.729,50.231 Z M59.482,50.332 L66.767,50.332 L66.767,70.874 C73.775,68.013 84.675,66.265 88.889,71.702 C91.01,74.394 91.835,76.21 91.835,78.786 L91.835,100.932 L84.552,100.932 L84.552,79.712 C84.552,77.206 83.119,75.577 80.172,75.577 C74.228,75.577 66.129,78.116 59.482,81.93 Z M59.427,101.098 L59.427,85.771 L67.968,93.435 Z M41.72,38.692 L38.72,109.637 L109.618,112.637 L112.618,41.692 Z M44.72,44.692 L106.618,44.692 L106.618,106.637 L44.72,106.637 Z" fill="none" stroke="currentColor" stroke-width="1.5"/></svg>