<svg xmlns="http://www.w3.org/2000/svg" viewBox="0 0 134.37 134.56" width="24" height="24"><path d="M5.5,0 L0,129.06 L128.87,134.56 L134.37,5.5 Z" fill="none" stroke="currentColor" stroke-width="1.5"/><path d="M11,11 L123.37,11 L123.37,123.56 L11,123.56 Z" fill="none" stroke="currentColor" stroke-width="1.5"/><path d="M38.09,78.23 L38.09,21.427 L51.172,21.427 L51.172,58.503 C67.619,53.523 81.409,52.084 89.393,58.304 C95.425,63.584 96.797,69.127 96.797,74.459 L96.797,113.091 L83.361,113.091 L83.361,73.676 C83.361,70.283 81.915,67.496 75.746,67.496 C63.206,67.496 50.852,71.938 38.09,78.23 Z M73.834,42.696 C78.465,36.612 81.732,30.835 83.732,21.427 L96.907,21.427 C95.917,28.108 93.348,35.518 87.141,42.696 Z M38.09,113.296 L38.09,86.642 L53.014,99.995 Z" fill="none" stroke="currentColor" stroke-width="1.5"/></svg>