<svg xmlns="http://www.w3.org/2000/svg" viewBox="0 0 157.162 158.22" width="24" height="24"><ellipse cx="78.581" cy="79.11" rx="78.581" ry="79.11" fill="none" stroke="currentColor"/><path d="M55.523,97.72 L52.523,118.23 L58.523,100.72 Z M69.38,97.72 L66.38,118.23 L72.38,100.72 Z M83.237,97.72 L80.237,118.23 L86.237,100.72 Z M77.01,59.167 L74.01,88.29 L80.01,65.167 L95.502,65.167 Z M55.287,85.29 L92.502,91.29 L92.502,118.722 L98.502,88.29 Z M55.287,36.321 L52.287,85.29 L43.35,85.29 L40.35,119.517 L114.041,122.517 L117.041,62.167 L98.502,59.167 L98.502,39.321 Z M58.287,42.321 L92.502,42.321 L92.502,62.167 L111.041,65.167 L111.041,116.517 L46.35,116.517 L46.35,91.29 L55.288,91.29 Z" fill="none" stroke="currentColor" stroke-width="1.5"/></svg>