<svg xmlns="http://www.w3.org/2000/svg" viewBox="0 0 123.46 138.692" width="24" height="24"><path d="M89.074,0.003 L24.687,0.133 L19.697,79.053 L5,79.053 L0,133.692 L118.46,138.692 L123.46,42.012 L94.079,37.012 L94.079,5.002 Z" fill="none" stroke="currentColor" stroke-width="1.5"/><path d="M84.084,10.013 L84.084,37.013 L59.324,37.013 C56.563,37.013 54.324,39.251 54.324,42.013 L54.324,79.054 L29.697,79.054 L29.697,10.124 Z M64.324,47.013 L113.465,47.013 L113.465,128.7 L94.084,128.7 L94.084,84.054 C94.084,81.292 91.846,79.054 89.084,79.054 L64.324,79.054 Z M10,89.054 L84.084,89.054 L84.084,128.7 L10,128.7 Z" fill="none" stroke="currentColor" stroke-width="1.5"/><path d="M78.777,56.823 C76.016,56.823 73.777,59.061 73.777,61.823 C73.777,64.584 76.016,66.823 78.777,66.823 L98.72,66.823 C101.482,66.823 103.72,64.584 103.72,61.823 C103.72,59.061 101.482,56.823 98.72,56.823 Z M46.988,98.536 C44.227,98.536 41.988,100.774 41.988,103.536 L41.988,128.699 L51.988,128.699 L51.988,103.536 C51.988,100.774 49.75,98.536 46.988,98.536 Z M69.273,98.629 C66.512,98.629 64.273,100.868 64.273,103.629 L64.273,128.699 L74.273,128.699 L74.273,103.629 C74.273,100.868 72.035,98.629 69.273,98.629 Z M24.752,98.676 C21.991,98.676 19.752,100.915 19.752,103.676 L19.752,128.699 L29.752,128.699 L29.752,103.676 C29.752,100.915 27.514,98.676 24.752,98.676 Z" fill="none" stroke="currentColor" stroke-width="1.5"/></svg>