<svg xmlns="http://www.w3.org/2000/svg" viewBox="0 0 137.536 137.536" width="24" height="24"><path d="M68.768,0 C30.825,0 0,30.824 0,68.768 C0,106.712 30.824,137.536 68.768,137.536 C106.712,137.536 137.536,106.712 137.536,68.768 C137.536,30.825 106.712,0 68.768,0 Z" fill="none" stroke="currentColor" stroke-width="1.5"/><path d="M68.768,6 C103.469,6 131.536,34.067 131.536,68.768 C131.536,103.469 103.469,131.536 68.768,131.536 C34.067,131.536 6,103.469 6,68.768 C6,34.067 34.067,6 68.768,6 Z" fill="none" stroke="currentColor" stroke-width="1.5"/><path d="M92.658,114.84 C109.212,106.648 120.662,90.143 120.662,69.529 C120.662,49.038 110.005,36.254 102.971,30.465 L95.186,24.057 L68.807,64.746 L42.703,24.082 L34.849,30.896 C23.538,40.71 16.878,54.365 16.878,70.292 C16.878,90.534 28.801,108.299 46.98,116.165 L51.657,98.909 C40.94,93.662 34.878,83.076 34.878,70.292 C34.878,63.098 36.538,57.578 39.659,52.659 L61.3,86.407 L76.193,86.407 L98.335,52.288 C100.754,56.38 102.661,61.867 102.661,69.528 C102.661,82.526 97.17,92.161 88.04,97.549 Z" fill="none" stroke="currentColor" stroke-width="1.5"/></svg>