<svg xmlns="http://www.w3.org/2000/svg" viewBox="0 0 138.213 138.567" width="24" height="24"><path d="M67.016,0.464 C50.4,6.906 31.168,22.147 20.493,37.491 C4.497,63.579 0.001,75.29 0.001,114.102 C31.392,136.062 54.054,138.567 71.075,138.567 C91.62,138.567 114.463,130.693 135.335,119.139 C137.913,93.212 138.213,71.704 121.192,42.963 C112.708,28.769 94.446,10.202 70.717,0.496 Z" fill="none" stroke="currentColor" stroke-width="1.5"/><path d="M10.428,96.596 L127.618,96.596 C127.864,101.463 127.884,106.648 127.88,111.682 C108.77,121.865 88.233,128.571 71.073,128.571 C55.454,128.571 36.174,126.565 10.036,111.212 C10.064,105.621 10.201,100.986 10.426,96.597 Z" fill="none" stroke="currentColor" stroke-width="1.5"/><path d="M89.806,86.596 L74.354,86.596 L81.785,75.824 Z" fill="none" stroke="currentColor" stroke-width="1.5"/><path d="M59.378,86.596 L34.998,86.596 L46.856,69.017 Z" fill="none" stroke="currentColor" stroke-width="1.5"/><path d="M88.486,66.086 L102.863,86.591 L89.805,86.591 L81.784,75.819 Z" fill="none" stroke="currentColor" stroke-width="1.5"/><path d="M58.774,51.486 L72.713,71.365 L62.25,86.591 L59.378,86.591 L46.856,69.012 Z" fill="none" stroke="currentColor" stroke-width="1.5"/><path d="M68.776,10.622 C89.088,19.535 105.675,36.505 112.592,48.075 C112.592,48.076 112.594,48.076 112.594,48.077 C121.426,62.995 125.092,74.957 126.676,86.592 L115.084,86.592 L92.566,54.446 C90.57,51.579 86.324,51.59 84.343,54.467 L78.759,62.579 L62.8,39.819 C60.792,36.955 56.539,36.985 54.572,39.877 L22.933,86.591 L11.249,86.591 C13.219,70.118 18.018,60.656 28.768,43.108 C37.528,30.571 55.122,16.523 68.774,10.622 Z" fill="none" stroke="currentColor" stroke-width="1.5"/><path d="M60.362,96.596 C59.522,98.099 58.852,99.737 58.531,101.606 C58.077,104.248 58.516,107.364 60.113,109.969 C60.144,110.018 60.175,110.067 60.207,110.116 C63.47,115.063 68.389,116.642 70.555,117.42 C71.638,117.809 71.985,118.038 72.084,118.131 C72.179,118.22 72.398,118.429 72.666,119.625 C72.751,120.136 72.497,121.496 71.246,123.696 C70.438,125.118 69.324,126.741 68.162,128.548 C72.596,128.675 76.836,128.439 80.916,127.904 C82.439,125.047 83.746,121.62 82.984,117.625 C82.978,117.591 82.972,117.557 82.965,117.523 C82.366,114.685 81.085,112.184 79.279,110.484 C77.474,108.785 75.514,108.046 74.103,107.539 C71.339,106.546 70.495,106.552 69.055,104.42 C68.823,104.033 68.79,103.916 68.881,103.385 C68.978,102.822 69.371,101.841 70.137,100.724 C71.045,99.401 72.426,97.921 73.89,96.596 Z" fill="none" stroke="currentColor" stroke-width="1.5"/><path d="M35.701,118.976 L43.273,109.846 L50.844,118.976 Z M21.094,109.894 L28.666,100.764 L36.237,109.894 Z M94.667,112.815 L102.239,103.685 L109.81,112.815 Z" fill="none" stroke="currentColor" stroke-width="1.5"/></svg>