<svg xmlns="http://www.w3.org/2000/svg" viewBox="0 0 151.342 151.342" width="24" height="24"><ellipse cx="75.671" cy="75.671" rx="75.671" ry="75.671" fill="none" stroke="currentColor"/><path d="M71.381,57.801 C68.283,57.649 65.151,58.713 62.799,60.992 C62.74,61.05 62.682,61.11 62.627,61.172 L61.539,62.375 L60.785,61.635 C55.658,56.483 48.207,57.333 44.205,61.18 C44.121,61.261 44.04,61.347 43.963,61.436 C42.238,63.438 41,66.038 40.662,69.026 C40.324,72.013 41.09,75.53 43.596,78.223 C43.612,78.24 43.628,78.257 43.645,78.274 L56.623,91.703 C59.436,94.601 63.472,94.695 66.584,91.674 L79.365,78.668 L79.367,78.664 C83.732,74.351 84.328,66.902 79.723,61.855 C77.502,59.308 74.46,57.951 71.381,57.8 Z M52.002,65.354 C53.046,65.286 54.235,65.686 55.469,66.926 C55.479,66.937 55.49,66.947 55.5,66.957 L59.074,70.465 C60.596,71.959 63.055,71.885 64.484,70.303 L68.039,66.367 C69.318,65.152 72.638,65.114 74.09,66.797 C74.117,66.828 74.144,66.859 74.172,66.889 C75.825,68.682 75.303,72.138 74.096,73.33 C74.083,73.344 74.07,73.357 74.057,73.371 L61.592,86.053 L49.086,73.114 C48.176,72.137 47.969,71.158 48.115,69.87 C48.254,68.641 48.904,67.291 49.556,66.477 C50.198,65.902 51.027,65.417 52.002,65.354 Z M92.885,71.918 C90.814,71.918 89.135,73.597 89.135,75.668 C89.135,77.739 90.814,79.418 92.885,79.418 L106.656,79.418 C108.727,79.418 110.406,77.739 110.406,75.668 C110.406,73.597 108.727,71.918 106.656,71.918 Z M82.358,86.152 C80.287,86.152 78.608,87.831 78.608,89.902 C78.608,91.973 80.287,93.652 82.358,93.652 L106.723,93.652 C108.794,93.652 110.473,91.973 110.473,89.902 C110.473,87.831 108.794,86.152 106.723,86.152 Z M40.78,42.058 C32.972,42.058 26.569,48.461 26.569,56.269 L26.569,95.066 C26.569,102.874 32.972,109.277 40.78,109.277 L110.298,109.277 C118.106,109.277 124.509,102.874 124.509,95.066 L124.509,56.269 C124.509,48.461 118.106,42.058 110.298,42.058 Z M40.78,49.558 L110.298,49.558 C114.081,49.558 117.009,52.486 117.009,56.269 L117.009,95.066 C117.009,98.849 114.081,101.777 110.298,101.777 L40.78,101.777 C36.997,101.777 34.069,98.849 34.069,95.066 L34.069,56.269 C34.069,52.486 36.997,49.558 40.78,49.558 Z" fill="none" stroke="currentColor" stroke-width="1.5"/></svg>