<svg xmlns="http://www.w3.org/2000/svg" viewBox="0 0 180.869 181.755" width="24" height="24"><path d="M46.991,0 C29.167,0 14.567,14.6 14.567,32.424 C14.567,39.231 16.719,45.549 20.344,50.781 L7,50.781 C3.134,50.781 0,53.915 0,57.781 L0,123.013 C0,126.879 3.134,130.013 7,130.013 L40.77,130.013 L26.01,171.386 C24.711,175.027 26.609,179.032 30.25,180.331 C33.892,181.63 37.897,179.731 39.196,176.089 L55.487,130.425 C55.517,130.289 55.543,130.151 55.565,130.013 L89.176,130.013 C89.174,130.049 89.172,130.085 89.17,130.12 L105.68,176.222 C106.984,179.862 110.991,181.755 114.631,180.451 C118.27,179.148 120.164,175.141 118.861,171.502 L104.002,130.014 L137.648,130.014 C141.514,130.013 144.648,126.88 144.648,123.014 L144.648,109.819 L171.658,118.815 C176.191,120.323 180.869,116.949 180.869,112.172 L180.869,68.553 C180.868,63.774 176.184,60.4 171.65,61.915 L144.648,70.94 L144.648,57.782 C144.648,53.916 141.514,50.782 137.648,50.782 L124.615,50.782 C128.24,45.549 130.393,39.232 130.393,32.425 C130.393,14.601 115.795,0.001 97.971,0.001 C87.603,0.001 78.428,5.028 72.481,12.669 C66.534,5.027 57.359,0.001 46.991,0.001 Z" fill="none" stroke="currentColor" stroke-width="1.5"/><path d="M13.991,64.78 L130.641,64.78 L130.641,116.012 L13.991,116.012 Z" fill="none" stroke="currentColor" stroke-width="1.5"/><path d="M46.991,14 C57.249,14 65.415,22.166 65.415,32.424 C65.415,42.453 57.593,50.428 47.659,50.781 L46.323,50.781 C36.388,50.427 28.567,42.452 28.567,32.424 C28.567,22.166 36.733,14 46.991,14 Z M97.97,14 C108.228,14 116.394,22.166 116.394,32.424 C116.394,42.453 108.574,50.428 98.64,50.781 L97.302,50.781 C87.368,50.426 79.548,42.452 79.548,32.424 C79.548,22.166 87.712,14 97.97,14 Z M166.87,78.273 L166.87,102.464 L144.649,95.064 L144.649,85.702 Z" fill="none" stroke="currentColor" stroke-width="1.5"/></svg>