<svg xmlns="http://www.w3.org/2000/svg" viewBox="0 0 166.422 166.422" width="24" height="24"><ellipse cx="83.211" cy="83.211" rx="83.211" ry="83.211" fill="none" stroke="currentColor"/><path d="M69.011,42.701 C60.892,42.701 54.241,49.352 54.241,57.471 C54.241,60.388 55.123,63.101 56.6,65.399 L51.206,65.399 C49.411,65.399 47.956,66.854 47.956,68.649 L47.956,97.991 C47.956,99.785 49.411,101.24 51.206,101.241 L66.38,101.241 L59.583,119.624 C58.96,121.307 59.821,123.177 61.505,123.799 C63.189,124.422 65.058,123.562 65.681,121.878 L73.309,101.241 L88.201,101.241 L95.506,121.927 C96.104,123.619 97.96,124.506 99.653,123.909 C101.345,123.311 102.233,121.455 101.635,119.762 L95.094,101.241 L110.059,101.241 C111.854,101.241 113.309,99.786 113.309,97.991 L113.309,92.232 L125.077,96.269 C127.186,96.992 129.38,95.426 129.382,93.196 L129.382,73.634 C129.381,71.397 127.174,69.83 125.061,70.566 L113.309,74.67 L113.309,68.65 C113.309,66.855 111.854,65.4 110.059,65.4 L104.593,65.4 C106.07,63.102 106.954,60.39 106.954,57.472 C106.954,49.354 100.301,42.702 92.182,42.702 C87.473,42.702 83.306,44.979 80.596,48.443 C77.886,44.98 73.718,42.702 69.01,42.702 Z M69.011,49.201 C73.617,49.201 77.281,52.865 77.281,57.47 C77.281,61.462 74.47,64.593 70.738,65.398 L67.286,65.398 C63.554,64.593 60.741,61.462 60.741,57.47 C60.741,52.864 64.405,49.201 69.011,49.201 Z M92.183,49.201 C96.789,49.201 100.454,52.865 100.454,57.47 C100.454,61.462 97.641,64.593 93.91,65.398 L90.458,65.398 C86.726,64.593 83.913,61.462 83.913,57.47 C83.913,52.864 87.577,49.201 92.183,49.201 Z M54.456,71.898 L106.81,71.898 L106.81,94.74 L54.456,94.74 Z M122.882,78.21 L122.882,88.644 L113.31,85.359 L113.31,81.553 Z" fill="none" stroke="currentColor" stroke-width="1.5"/></svg>