<svg xmlns="http://www.w3.org/2000/svg" viewBox="0 0 166.422 166.422" width="24" height="24"><ellipse cx="83.211" cy="83.211" rx="83.211" ry="83.211" fill="none" stroke="currentColor"/><path d="M83.243,38.262 C58.496,38.262 38.36,58.399 38.36,83.145 C38.36,107.264 57.528,126.857 81.41,127.843 C81.437,127.856 81.461,127.878 81.488,127.89 C82.528,127.929 82.873,128.029 83.245,128.029 C83.395,128.029 83.533,127.985 83.683,127.984 C93.091,127.728 101.312,124.968 108.193,120.363 L111.02,123.173 L131.038,108.297 C135.235,104.241 136.048,97.754 132.499,93.352 C131.089,91.708 129.463,90.465 127.658,89.638 C127.967,87.518 128.13,85.351 128.13,83.145 C128.13,58.397 107.993,38.261 83.246,38.261 Z" fill="none" stroke="currentColor" stroke-width="1.5"/><path d="M95.086,47.326 C97.702,50.352 99.953,53.857 101.787,57.809 C103.88,56.944 105.981,55.904 108.074,54.713 C104.318,51.432 99.935,48.926 95.086,47.326 Z M70.926,47.473 C66.443,49.017 62.386,51.354 58.848,54.354 C60.77,55.434 62.674,56.47 64.489,57.285 C66.172,53.817 68.263,50.514 70.926,47.473 Z M86.461,48.534 L86.461,61.377 C89.428,61.181 92.332,60.742 95.166,60.024 C92.872,55.313 89.888,51.484 86.461,48.534 Z M79.461,48.733 C75.71,52.008 72.974,55.72 70.932,59.739 C73.905,60.644 76.716,61.101 79.461,61.35 Z M53.776,59.571 C49.247,65.228 46.365,72.162 45.692,79.815 L59.113,79.838 C59.384,74.346 60.23,68.927 61.879,63.758 C59.238,62.588 56.541,61.203 53.776,59.571 Z M113.015,59.942 C110.133,61.671 107.216,63.113 104.269,64.313 C105.739,69.058 106.64,74.276 106.89,79.924 L120.806,79.947 C120.169,72.413 117.4,65.564 113.015,59.942 Z M68.285,66.225 C66.988,70.507 66.326,75.076 66.096,79.852 L79.461,79.875 L79.461,68.346 C75.833,68.063 72.131,67.444 68.286,66.225 Z M97.686,66.584 C94.026,67.574 90.281,68.137 86.461,68.367 L86.461,79.887 L99.893,79.91 C99.656,75.026 98.896,70.58 97.686,66.584 Z M45.727,86.815 C46.542,95.204 49.983,102.756 55.35,108.63 C57.488,107.371 59.963,106.197 62.665,105.097 C60.606,99.5 59.426,93.284 59.126,86.84 Z M66.141,86.851 C66.469,92.506 67.63,97.922 69.485,102.748 C72.805,101.804 76.153,101.198 79.461,100.904 L79.461,86.875 Z M86.461,86.887 L86.461,100.794 C88.639,100.902 90.782,101.099 92.892,101.379 C92.864,101.028 92.847,100.674 92.843,100.32 C92.807,97.481 93.626,94.372 95.972,92.019 C97.141,90.948 98.342,90.177 99.65,89.602 C99.744,88.71 99.82,87.813 99.875,86.91 Z M106.875,86.924 C106.845,87.469 106.807,88.015 106.765,88.559 C108.452,88.82 110.125,89.497 111.534,90.789 L113.585,92.862 L116.374,90.699 C116.384,90.697 116.384,90.697 116.384,90.695 C117.63,89.69 119.053,89.059 120.517,88.749 C120.605,88.153 120.685,87.553 120.746,86.947 Z M86.461,107.818 L86.461,117.978 C89.445,115.397 91.905,112.223 93.897,108.646 C91.429,108.227 88.975,107.972 86.461,107.818 Z M79.461,107.951 C77.255,108.214 74.997,108.646 72.62,109.281 C74.632,112.81 76.957,115.771 79.461,118.031 Z M65.571,111.572 C63.846,112.244 62.338,112.911 60.905,113.631 C63.744,115.713 66.871,117.371 70.239,118.603 C68.524,116.465 66.935,114.149 65.571,111.572 Z M99.983,112.204 C98.658,114.572 97.14,116.805 95.411,118.863 C98.122,117.942 100.677,116.731 103.058,115.26 Z M104.275,95.488 C105.533,95.297 106.354,95.543 106.798,95.945 L110.79,99.988 L120.724,96.188 C121.552,95.52 122.391,95.354 123.566,95.608 C124.722,95.857 126.062,96.64 127.064,97.783 C127.971,98.955 127.94,101.556 126.173,103.264 L113.496,115.766 L100.693,103.041 C100.484,102.836 99.861,101.59 99.843,100.233 C99.827,98.907 100.27,97.686 100.892,97.026 C101.656,96.363 103.046,95.675 104.275,95.489 Z" fill="none" stroke="currentColor" stroke-width="1.5"/></svg>