<svg xmlns="http://www.w3.org/2000/svg" viewBox="0 0 172.793 160.07" width="24" height="24"><path d="M80.17,0.002 C36.57,0.002 1.389,35.093 0.545,78.46 C0.312,78.875 0.129,79.315 0,79.773 C0.124,80.204 0.297,80.62 0.514,81.013 C1.04,124.661 36.367,160.07 80.168,160.07 C96.813,160.07 112.317,154.962 125.176,146.232 L130.453,151.534 C132.775,153.867 136.541,153.895 138.897,151.597 L166.175,124.983 C166.219,124.939 166.263,124.895 166.306,124.85 C170.943,120.035 172.793,113.848 172.021,108.387 C171.248,102.926 168.34,98.332 164.71,94.803 C164.667,94.762 164.623,94.72 164.579,94.68 C163.052,93.281 161.365,92.227 159.604,91.461 C160.224,87.303 160.464,83.754 160.464,79.842 C160.464,33.358 122.989,0 80.169,0 Z" fill="none" stroke="currentColor" stroke-width="1.5"/><path d="M101.064,15.277 C106.176,21.023 110.326,27.639 113.607,34.896 C117.669,33.229 121.534,31.23 125.126,28.894 C118.184,22.847 110.041,18.15 101.064,15.277 Z M57.794,15.838 C49.796,18.629 42.494,22.84 36.203,28.23 C38.681,29.885 41.785,31.697 46.42,33.691 C49.413,27.085 53.24,21.112 57.794,15.838 Z M74.169,16.707 C67.332,21.979 61.887,29.189 57.849,37.724 C63.226,39.235 68.838,40.328 74.169,40.843 Z M86.169,17.498 L86.169,40.984 C91.644,40.642 97.04,39.813 102.262,38.527 C98.301,30.187 92.893,23.124 86.169,17.498 Z M27.48,37.208 C19.308,47.372 14.016,59.962 12.775,73.776 L37.397,73.776 C37.903,63.857 39.397,54.104 42.173,45.014 C36.346,42.707 31.327,40.203 27.48,37.209 Z M133.537,37.607 C128.624,41.029 123.361,43.905 117.799,46.162 C120.399,54.774 121.88,64.051 122.299,73.776 L148.217,73.776 C146.963,60.15 141.663,47.71 133.537,37.608 Z M53.554,48.958 C51.221,56.665 49.889,65.062 49.396,73.775 L74.167,73.775 L74.167,52.86 C67.215,52.304 60.187,50.907 53.554,48.958 Z M106.468,49.841 C99.854,51.564 93.038,52.613 86.167,52.988 L86.167,73.775 L110.305,73.775 C109.911,65.198 108.64,57.178 106.467,49.841 Z M12.748,85.774 C14.025,101.305 20.439,115.288 30.297,126.077 C33.683,123.881 38.415,121.715 43.685,119.611 C39.874,109.292 37.781,97.833 37.32,85.773 Z M49.313,85.774 C49.764,96.65 51.65,106.71 54.95,115.592 C60.965,113.874 67.485,112.625 74.166,112.106 L74.166,85.774 Z M86.166,85.774 L86.166,111.957 C90.235,112.136 94.198,112.5 98.025,113.066 C97.797,111.396 97.783,109.701 98.002,108.015 C98.702,102.631 101.686,97.596 106.295,93.631 C107.593,92.617 108.702,91.949 109.841,91.405 C110.013,89.556 110.149,87.678 110.246,85.774 Z M122.247,85.774 C122.182,87.195 122.097,88.607 121.995,90.011 C122.254,90.067 122.511,90.127 122.765,90.194 C127.64,91.475 131.645,94.316 134.774,97.645 L137.915,94.561 C140.814,91.888 144.175,90.539 147.746,90.028 C147.955,88.624 148.121,87.206 148.241,85.774 Z M86.166,123.974 L86.166,142.897 C91.777,138.781 96.517,132.919 100.323,125.735 C95.933,124.829 91.189,124.239 86.166,123.974 Z M74.166,124.116 C69.438,124.554 64.702,125.448 60.175,126.636 C63.947,133.137 68.586,138.738 74.166,143.112 Z M48.63,130.561 C45.101,131.988 42.121,133.296 39.712,134.612 C45.275,138.773 51.486,142.095 58.204,144.389 C54.531,140.232 51.343,135.601 48.63,130.561 Z M110.888,131.883 C108.374,136.515 105.414,140.669 102.124,144.411 C107.227,142.683 112.05,140.368 116.529,137.55 Z" fill="none" stroke="currentColor" stroke-width="1.5"/><path d="M116.752,101.552 C117.679,101.397 118.621,101.516 119.717,101.804 C121.909,102.38 124.469,104.052 126.293,106.06 L130.395,110.302 L146.196,103.255 C146.733,102.767 148.806,101.829 151.004,101.788 C153.181,101.748 155.209,102.432 156.412,103.503 C158.489,105.553 159.848,108.015 160.139,110.073 C160.433,112.155 160.129,113.959 157.672,116.517 L134.768,138.867 L111.83,115.82 C110.152,113.609 109.638,111.599 109.902,109.568 C110.167,107.537 111.313,105.24 114,102.874 C114.981,102.14 115.865,101.7 116.752,101.552 Z" fill="none" stroke="currentColor" stroke-width="1.5"/></svg>