<svg xmlns="http://www.w3.org/2000/svg" viewBox="0 0 151.748 151.748" width="24" height="24"><ellipse cx="75.874" cy="75.874" rx="75.874" ry="75.874" fill="none" stroke="currentColor"/><path d="M82.264,51.884 L79.264,66.316 L67.733,66.316 L79.264,72.316 L79.264,83.75 L85.264,72.316 L96.797,72.316 L85.264,66.316 L85.264,54.884 Z M64.914,39.353 C57.991,39.353 52.324,44.983 52.226,51.884 C45.337,51.996 39.722,57.656 39.722,64.57 L39.722,99.156 C39.722,106.139 45.446,111.861 52.429,111.861 L86.921,111.861 C93.845,111.861 99.514,106.232 99.61,99.33 C106.498,99.217 112.112,93.558 112.112,86.644 L112.112,52.06 C112.112,45.077 106.388,39.353 99.405,39.353 Z M64.914,92.851 C61.419,92.851 58.709,90.139 58.709,86.644 L58.748,51.863 C58.854,48.47 61.49,45.853 64.914,45.853 L99.406,45.853 C102.901,45.853 105.613,48.565 105.613,52.06 L105.613,86.644 C105.613,90.059 103.008,92.689 99.629,92.808 Z M52.209,58.406 L52.209,86.644 C52.209,93.627 57.931,99.351 64.914,99.351 L93.09,99.351 C92.984,102.744 90.347,105.361 86.922,105.361 L52.43,105.361 C48.935,105.361 46.223,102.65 46.223,99.156 L46.223,64.57 C46.223,61.154 48.829,58.524 52.209,58.406 Z" fill="none" stroke="currentColor" stroke-width="1.5"/></svg>