<svg xmlns="http://www.w3.org/2000/svg" viewBox="0 0 138.64 104.129" width="24" height="24"><path d="M37.16,0 C22.202,0 9.971,12.234 9.971,27.191 C9.971,36.003 14.281,43.791 20.828,48.767 C8.738,54.827 0,67.003 0,82.027 L0,99.129 L133.64,104.129 L138.64,82.027 C138.64,67.666 130.313,54.741 118.113,48.519 C124.484,43.532 128.67,35.863 128.67,27.191 C128.67,12.233 116.436,0 101.479,0 C86.521,0 74.29,12.234 74.29,27.191 C74.29,36.003 78.6,43.791 85.147,48.767 C78.557,52.07 73.056,57.191 69.352,63.638 C65.743,57.177 60.372,51.875 53.791,48.519 C60.162,43.532 64.348,35.863 64.348,27.191 C64.348,12.233 52.114,0 37.157,0 Z" fill="none" stroke="currentColor" stroke-width="1.5"/><path d="M101.49,10 C111.043,10 118.681,17.638 118.681,27.191 C118.681,36.744 111.043,44.382 101.49,44.382 C91.937,44.382 84.301,36.744 84.301,27.191 C84.301,17.638 91.937,10 101.49,10 Z M37.892,54.561 C52.54,54.561 64.33,67.36 64.33,82.028 L64.33,94.13 L10.008,94.13 L10.008,82.028 C10.008,65.969 22.944,54.561 37.893,54.561 Z" fill="none" stroke="currentColor" stroke-width="1.5"/><path d="M37.16,10 C46.713,10 54.351,17.638 54.351,27.191 C54.351,36.744 46.713,44.382 37.16,44.382 C27.607,44.382 19.971,36.744 19.971,27.191 C19.971,17.638 27.607,10 37.16,10 Z M102.207,54.561 C116.855,54.561 128.645,67.36 128.645,82.028 L128.645,94.13 L74.323,94.13 L74.323,82.028 C74.323,65.969 87.259,54.561 102.208,54.561 Z" fill="none" stroke="currentColor" stroke-width="1.5"/></svg>