<svg xmlns="http://www.w3.org/2000/svg" viewBox="0 0 166.422 166.422" width="24" height="24"><ellipse cx="83.211" cy="83.211" rx="83.211" ry="83.211" fill="none" stroke="currentColor"/><path d="M67.011,77.731 L99.695,84.731 Z M71.814,90.762 L94.857,97.762 Z M89.921,32.26 C87.581,32.26 85.367,32.771 83.364,33.672 C81.462,32.868 79.355,32.348 77.032,32.348 C71.417,32.348 66.954,34.915 64.206,38.254 C61.459,41.593 60.202,45.547 60.202,49.114 L60.202,55.085 L52.349,55.085 L48.849,120.425 L114.376,123.925 L117.876,58.585 L106.483,55.085 L106.483,49.114 C106.483,40.804 99.743,32.26 89.92,32.26 Z M90.196,39.326 C95.603,39.518 99.484,44.84 99.484,49.114 L99.484,55.084 L93.23,55.084 L93.23,49.114 C93.23,45.747 92.201,42.302 90.196,39.326 Z M76.499,39.403 C74.474,42.231 73.248,45.613 73.248,49.114 L73.248,55.084 L67.203,55.084 L67.203,49.114 C67.203,47.34 68,44.659 69.611,42.701 C71.134,40.85 73.227,39.544 76.499,39.403 Z M83.65,42.239 C83.707,42.304 83.797,42.333 83.853,42.4 C85.385,44.237 86.23,46.822 86.23,49.114 L86.23,55.084 L80.247,55.084 L80.247,49.114 C80.247,46.78 81.645,44.199 83.65,42.239 Z M55.849,62.084 L110.877,62.084 L110.877,116.924 L55.849,116.924 Z" fill="none" stroke="currentColor" stroke-width="1.5"/></svg>