<svg xmlns="http://www.w3.org/2000/svg" viewBox="0 0 135.598 135.6" width="24" height="24"><path d="M67.799,0 C30.414,0 0,30.414 0,67.799 C0,105.184 30.414,135.6 67.799,135.6 C105.184,135.6 135.598,105.184 135.598,67.799 C135.598,30.414 105.184,0 67.799,0 Z" fill="none" stroke="currentColor" stroke-width="1.5"/><path d="M40.689,101.87 C48.172,107.842 57.52,111.565 67.804,111.565 C77.975,111.565 87.231,107.925 94.675,102.071 L104.786,112.247 C94.771,120.585 81.889,125.602 67.804,125.602 C53.516,125.602 40.481,120.423 30.406,111.87 Z" fill="none" stroke="currentColor" stroke-width="1.5"/><path d="M67.589,82.54 C67.62,82.54 67.648,82.55 67.679,82.55 C67.685,82.55 67.69,82.548 67.696,82.548 C75.891,82.597 82.97,89.727 84.272,97.13 C79.386,99.872 73.825,101.564 67.801,101.564 C61.679,101.564 56.027,99.825 51.086,96.999 C51.541,94.221 52.9,90.729 55.446,87.943 C58.345,84.769 62.239,82.548 67.589,82.54 Z" fill="none" stroke="currentColor" stroke-width="1.5"/><path d="M67.679,53.34 C73.044,53.34 77.286,57.581 77.286,62.946 C77.286,68.305 73.051,72.54 67.695,72.549 C67.671,72.549 67.65,72.543 67.626,72.543 C67.622,72.543 67.618,72.541 67.614,72.541 C62.282,72.505 58.074,68.287 58.074,62.945 C58.074,57.581 62.314,53.34 67.679,53.34 Z" fill="none" stroke="currentColor" stroke-width="1.5"/><path d="M67.799,34.04 C86.505,34.04 101.563,49.095 101.563,67.802 C101.563,76.516 98.202,84.358 92.821,90.335 C90.72,84.736 86.694,79.949 81.571,76.722 C85.092,73.171 87.284,68.3 87.284,62.945 C87.284,52.176 78.445,43.34 67.677,43.34 C56.908,43.34 48.072,52.176 48.072,62.945 C48.072,68.265 50.239,73.103 53.72,76.648 C51.602,77.977 49.644,79.467 48.062,81.199 C45.584,83.912 43.782,86.948 42.554,90.064 C37.312,84.118 34.037,76.389 34.037,67.802 C34.037,49.096 49.094,34.04 67.801,34.04 Z" fill="none" stroke="currentColor" stroke-width="1.5"/><path d="M23.649,30.5 L33.725,40.701 C27.76,48.182 24.04,57.523 24.04,67.801 C24.04,78.024 27.719,87.323 33.627,94.785 L23.354,104.777 C15.021,94.763 10.004,81.883 10.004,67.8 C10.004,53.559 15.146,40.561 23.649,30.499 Z" fill="none" stroke="currentColor" stroke-width="1.5"/><path d="M111.879,30.42 C120.424,40.493 125.596,53.521 125.596,67.801 C125.596,82.086 120.42,95.119 111.869,105.194 L101.769,95.032 C107.797,87.531 111.56,78.139 111.56,67.802 C111.56,57.468 107.799,48.081 101.775,40.581 Z" fill="none" stroke="currentColor" stroke-width="1.5"/><path d="M67.799,10 C81.89,10 94.774,15.022 104.791,23.365 L94.678,33.537 C87.233,27.679 77.974,24.037 67.799,24.037 C57.568,24.037 48.263,27.721 40.799,33.637 L30.725,23.438 C40.754,15.053 53.67,10 67.799,10 Z" fill="none" stroke="currentColor" stroke-width="1.5"/></svg>