<svg xmlns="http://www.w3.org/2000/svg" viewBox="0 0 139.436 139.964" width="24" height="24"><ellipse cx="69.718" cy="69.982" rx="69.718" ry="69.982" fill="none" stroke="currentColor"/><path d="M46.228,42.052 L41.976,46.286 L51.105,55.452 L55.357,51.22 Z M92.994,42.685 L84.263,51.089 L88.426,55.411 L97.154,47.009 Z M70.047,72.746 C64.528,72.746 60.411,75.104 57.947,78.113 C55.483,81.122 54.496,84.578 54.049,87.148 L59.961,88.178 C60.298,86.241 61.097,83.739 62.59,81.916 C64.082,80.093 66.092,78.746 70.047,78.746 C73.685,78.746 75.72,80.286 77.265,82.316 C78.811,84.347 79.583,87.024 79.718,88.055 L85.668,87.271 C85.38,85.087 84.417,81.806 82.039,78.682 C79.66,75.557 75.582,72.746 70.047,72.746 Z M50.994,84.6 L42.32,93.141 L46.531,97.414 L55.203,88.875 Z M88.318,84.75 L84.351,89.252 L94.413,98.123 L98.382,93.623 Z M69.916,55.664 C63.541,55.664 58.309,60.897 58.309,67.271 C58.309,73.646 63.542,78.878 69.916,78.878 C76.291,78.878 81.521,73.646 81.521,67.271 C81.521,60.896 76.29,55.664 69.916,55.664 Z M69.916,61.664 C73.048,61.664 75.521,64.139 75.521,67.272 C75.521,70.404 73.048,72.879 69.916,72.879 C66.784,72.879 64.309,70.404 64.309,67.272 C64.309,64.139 66.784,61.664 69.916,61.664 Z M69.916,44.144 C55.716,44.144 44.141,55.72 44.141,69.919 C44.141,84.119 55.717,95.694 69.916,95.694 C84.116,95.694 95.691,84.118 95.691,69.919 C95.691,55.719 84.115,44.144 69.916,44.144 Z M69.916,50.144 C80.873,50.144 89.691,58.962 89.691,69.919 C89.691,80.876 80.873,89.694 69.916,89.694 C58.959,89.694 50.141,80.876 50.141,69.919 C50.141,58.962 58.959,50.144 69.916,50.144 Z M69.916,29.843 C47.818,29.843 29.84,47.821 29.84,69.919 C29.84,92.017 47.818,109.995 69.916,109.995 C92.014,109.995 109.992,92.017 109.992,69.919 C109.992,47.821 92.014,29.843 69.916,29.843 Z M69.916,35.843 C88.771,35.843 103.992,51.064 103.992,69.919 C103.992,88.774 88.771,103.995 69.916,103.995 C51.061,103.995 35.84,88.774 35.84,69.919 C35.84,51.064 51.061,35.843 69.916,35.843 Z" fill="none" stroke="currentColor" stroke-width="1.5"/></svg>