<svg xmlns="http://www.w3.org/2000/svg" viewBox="0 0 163.781 134.411" width="24" height="24"><path d="M40.713,0.442 C30.69,0.61 20.906,4.349 13.785,11.485 C8.777,16.635 3.64,24.576 1.82,34.409 C0,44.242 1.973,56.025 10.975,66.655 L76.685,132.268 L148.943,68.538 C163.781,52.386 163.065,26.956 146.486,10.866 C136.847,2.478 125.977,0 116.671,0.663 C107.365,1.326 99.595,4.73 94.638,9.079 L80.676,22.495 L69.332,11.067 C60.997,3.677 50.736,0.274 40.713,0.442 Z" fill="none" stroke="currentColor" stroke-width="1.5"/><path d="M40.713,0.442 C30.69,0.61 20.906,4.347 13.785,11.483 C8.777,16.633 3.64,24.576 1.82,34.409 C0,44.242 1.975,56.025 10.977,66.655 L76.685,132.266 L148.943,68.537 C163.781,52.384 163.065,26.954 146.486,10.864 C136.847,2.476 125.979,0 116.673,0.663 C107.368,1.326 99.595,4.728 94.638,9.077 L80.676,22.495 L69.332,11.067 C60.997,3.677 50.736,0.274 40.713,0.442 Z M117.455,11.633 C124.293,11.146 131.822,12.755 138.93,18.877 C151.403,31.095 151.622,49.324 141.049,60.873 L80.59,120.621 L19.309,59.455 C12.348,51.187 11.325,43.501 12.637,36.41 C13.951,29.313 18.065,22.878 21.593,19.238 C31.252,9.58 50.026,8.72 61.724,19.016 L76.683,34.084 L101.924,17.324 C104.481,15.095 110.602,12.121 117.455,11.632 Z" fill="none" stroke="currentColor" stroke-width="1.5"/><path d="M44.193,22.858 C38.947,22.858 33.833,24.604 29.998,28.153 C26.163,31.702 23.839,37.075 23.932,43.094 C34.881,39.628 35.904,37.675 37.469,36.227 C39.034,34.779 41.373,33.858 44.194,33.858 Z" fill="none" stroke="currentColor" stroke-width="1.5"/></svg>