<svg xmlns="http://www.w3.org/2000/svg" viewBox="0 0 166.422 166.422" width="24" height="24"><ellipse cx="83.211" cy="83.211" rx="83.211" ry="83.211" fill="none" stroke="currentColor"/><path d="M50.211,45.651 L37.814,73.92 C40.854,80.469 44.925,82.395 49.08,82.885 L49.08,117.256 L93.014,120.506 L96.264,82.873 C99.327,82.398 102.139,81.183 104.535,79.342 C106.243,80.666 108.118,82.044 110.756,82.793 L110.756,117.256 L117.256,82.994 C121.506,82.31 125.423,80.093 128.014,77.141 L118.346,47.713 Z M52.5,52.151 L113.105,52.151 L121.638,73.876 C119.656,75.35 116.746,76.802 114.724,76.802 C112.321,76.895 108.523,74.483 106.474,72.739 C99.735,75.372 96.892,76.665 93.445,76.665 C90.483,76.665 87.645,75.486 85.798,72.784 C78.681,75.413 75.743,76.798 72.191,76.798 C69.688,76.798 66.788,75.016 64.361,72.587 C59.108,73.377 57.718,74.507 56.08,75.296 C54.441,76.085 52.534,76.599 51.072,76.599 C48.9,76.599 46.318,75.578 44.623,74.189 Z M62.094,79.276 C64.825,81.49 68.189,83.297 72.192,83.297 C76.187,83.297 80.12,82.013 83.128,79.448 C85.091,81.116 87.393,82.196 89.764,82.741 L89.764,114.007 L55.58,114.007 L55.58,82.392 C56.736,82.057 57.864,81.651 58.901,81.152 C60.064,80.592 61.137,79.975 62.094,79.277 Z M114.797,83.294 C114.816,83.293 114.832,83.301 114.852,83.3 L114.725,83.302 C114.75,83.302 114.773,83.294 114.797,83.294 Z M66.828,92.786 L78.35,99.286 Z" fill="none" stroke="currentColor" stroke-width="1.5"/></svg>