<svg xmlns="http://www.w3.org/2000/svg" viewBox="0 0 139.436 139.964" width="24" height="24"><ellipse cx="69.718" cy="69.982" rx="69.718" ry="69.982" fill="none" stroke="currentColor"/><path d="M52.978,27.212 C46.201,27.212 40.636,32.776 40.636,39.554 C40.636,46.331 46.2,51.896 52.978,51.896 C53.045,51.896 53.107,51.878 53.173,51.877 C54.266,58.007 57.384,62.737 61.837,66.748 L51.212,66.748 C49.809,61.476 45.019,57.533 39.327,57.533 C32.55,57.533 26.985,63.097 26.985,69.875 C26.985,76.652 32.55,82.217 39.327,82.217 C44.929,82.217 49.646,78.393 51.134,73.248 L60.886,73.248 C56.64,77.49 54.376,82.736 53.236,87.877 C53.155,87.875 53.079,87.854 52.998,87.854 C46.22,87.854 40.656,93.416 40.656,100.194 C40.656,106.971 46.22,112.536 52.998,112.536 C59.775,112.536 65.338,106.971 65.338,100.194 C65.338,95.797 62.87,92.09 59.375,89.903 C60.56,83.739 63.272,78.006 70.016,74.399 C72.13,84.023 80.719,91.282 90.959,91.282 C102.775,91.282 112.424,81.633 112.424,69.817 C112.424,58 102.775,48.352 90.959,48.352 C80.792,48.352 72.27,55.512 70.078,65.034 C63.687,60.901 60.345,56.689 59.492,49.755 C62.909,47.552 65.318,43.893 65.318,39.556 C65.318,32.778 59.756,27.214 52.978,27.214 Z" fill="none" stroke="currentColor" stroke-width="1.5"/><path d="M90.958,54.842 C99.261,54.842 105.923,61.504 105.923,69.807 C105.923,78.11 99.261,84.772 90.958,84.772 C82.655,84.772 75.993,78.11 75.993,69.807 C75.993,61.504 82.655,54.842 90.958,54.842 Z" fill="none" stroke="currentColor" stroke-width="1.5"/><path d="M90.958,60.622 C85.922,60.622 81.768,64.773 81.768,69.81 C81.769,74.846 85.922,78.999 90.958,78.999 C95.994,78.999 100.147,74.846 100.147,69.81 C100.147,64.773 95.994,60.622 90.958,60.622 Z" fill="none" stroke="currentColor" stroke-width="1.5"/><path d="M52.978,33.712 C56.242,33.712 58.818,36.289 58.818,39.554 C58.818,42.818 56.242,45.396 52.978,45.396 C49.713,45.396 47.136,42.818 47.136,39.554 C47.136,36.289 49.713,33.712 52.978,33.712 Z M39.328,64.032 C42.592,64.032 45.168,66.609 45.168,69.874 C45.168,73.138 42.592,75.716 39.328,75.716 C36.063,75.716 33.486,73.138 33.486,69.874 C33.486,66.609 36.063,64.032 39.328,64.032 Z M52.998,94.352 C56.262,94.352 58.838,96.927 58.838,100.192 C58.838,103.456 56.262,106.034 52.998,106.034 C49.733,106.034 47.156,103.456 47.156,100.192 C47.156,96.927 49.733,94.352 52.998,94.352 Z M90.959,67.127 C92.482,67.127 93.648,68.291 93.648,69.815 C93.648,71.338 92.482,72.504 90.959,72.504 C89.436,72.504 88.27,71.338 88.269,69.815 C88.269,68.291 89.435,67.127 90.959,67.127 Z" fill="none" stroke="currentColor" stroke-width="1.5"/></svg>