<svg xmlns="http://www.w3.org/2000/svg" viewBox="0 0 151.748 151.748" width="24" height="24"><ellipse cx="75.874" cy="75.874" rx="75.874" ry="75.874" fill="none" stroke="currentColor"/><path d="M77.344,25.974 C58.129,25.974 42.459,41.643 42.459,60.859 C42.459,72.205 48.004,82.214 56.434,88.591 L50.371,123.476 L77.295,116.981 L97.664,128.19 L98.219,88.618 C106.668,82.242 112.227,72.219 112.227,60.858 C112.227,41.643 96.56,25.973 77.344,25.973 Z M77.344,34.474 C91.966,34.474 103.727,46.237 103.727,60.859 C103.727,75.481 91.966,87.242 77.344,87.242 C62.722,87.242 50.959,75.481 50.959,60.859 C50.959,46.237 62.722,34.474 77.344,34.474 Z M88.504,46.304 L74.102,66.9 L67.631,61.648 L72.47,76.523 L93.049,52.709 Z M64.268,93.144 C68.315,94.792 72.717,95.742 77.344,95.742 C81.943,95.742 86.317,94.797 90.344,93.167 L94.125,116.542 L79.383,108.429 L60.229,116.394 Z" fill="none" stroke="currentColor" stroke-width="1.5"/></svg>