<svg xmlns="http://www.w3.org/2000/svg" viewBox="0 0 166.422 166.422" width="24" height="24"><ellipse cx="83.211" cy="83.211" rx="83.211" ry="83.211" fill="none" stroke="currentColor"/><path d="M119.611,38.131 C118.641,37.806 117.578,37.922 116.701,38.447 C110.426,42.205 104.174,46.274 97.574,48.319 C97.562,48.323 97.551,48.327 97.539,48.33 C85.709,52.129 77.766,57.497 70.767,63.281 C66.484,56.846 60.28,50.84 51.634,46.181 C49.484,45.097 46.335,46.776 46.476,49.38 C46.715,56.452 44.908,59.736 42.642,64.931 C42.632,64.954 42.622,64.977 42.613,65 C37.85,76.586 38.182,84.805 42.722,93.582 C42.732,93.6 42.74,93.618 42.749,93.637 C45.309,98.381 49.33,101.179 53.274,102.529 C55.31,103.226 57.311,103.564 59.196,103.701 C58.754,108.304 57.648,112.168 56.03,114.672 C53.326,116.143 50.617,117.613 47.751,118.895 C45.985,119.683 45.193,121.754 45.983,123.52 C46.772,125.284 48.842,126.074 50.606,125.285 C55.59,123.058 60.265,120.48 64.78,117.754 C64.801,117.78 64.822,117.805 64.844,117.83 C80.363,125.843 96.995,125.637 107.914,115.918 C107.97,115.868 108.025,115.816 108.078,115.762 C118.527,105.18 123.542,90.484 125.222,76.442 C126.902,62.399 125.332,49.004 121.742,40.137 C121.358,39.189 120.579,38.456 119.609,38.131 Z M116.455,46.733 C118.535,54.133 119.581,64.675 118.273,75.61 C116.727,88.533 112.062,101.698 103.181,110.749 C95.621,117.417 84.076,118.434 71.781,113.286 C92.632,98.804 107.171,79.632 112.011,61.835 C112.519,59.969 111.418,58.045 109.552,57.538 C107.687,57.031 105.764,58.132 105.257,59.997 C100.889,76.055 86.464,94.856 65.741,108.782 C66.152,106.9 66.413,104.912 66.562,102.854 C69.159,102.011 71.957,100.87 74.319,98.442 C77.246,95.435 78.916,90.697 78.306,84.549 C77.924,79.684 76.631,74.518 74.271,69.444 C81.141,63.644 88.253,58.671 99.646,55.006 L99.679,54.994 C105.97,53.04 111.376,49.819 116.454,46.733 Z M53.125,55.319 C65.553,63.817 70.572,75.307 71.334,85.13 C71.334,85.157 71.344,85.184 71.344,85.212 C71.821,89.943 70.78,92.048 69.307,93.561 C68.577,94.311 67.615,94.924 66.514,95.446 C65.984,88.051 64.036,80.118 60.439,72.44 C59.62,70.689 57.536,69.934 55.785,70.754 C54.034,71.574 53.28,73.658 54.1,75.409 C57.419,82.497 58.98,89.965 59.309,96.655 C58.052,96.536 56.764,96.324 55.545,95.907 C52.92,95.008 50.619,93.456 48.926,90.33 C45.021,82.769 44.735,78.256 49.09,67.662 L49.061,67.731 C50.64,64.112 52.393,60.354 53.127,55.319 Z" fill="none" stroke="currentColor" stroke-width="1.5"/></svg>