<svg xmlns="http://www.w3.org/2000/svg" viewBox="0 0 166.422 166.422" width="24" height="24"><ellipse cx="83.211" cy="83.211" rx="83.211" ry="83.211" fill="none" stroke="currentColor"/><path d="M73.611,37.941 L77.769,72.445 L69.296,72.853 L60.271,58.884 L44.168,57.4 L45.541,74.089 C42.957,74.366 40.754,75.775 39.558,77.54 C38.299,79.399 37.867,81.435 37.867,83.302 C37.867,85.443 38.473,87.727 39.99,89.646 C41.225,91.209 43.196,92.253 45.433,92.81 L41.211,105.101 L57.351,109.406 L69.462,94.286 L77.652,94.66 L70.273,125.062 L85.177,129.077 L107.782,96.585 L114.792,96.351 L114.694,96.345 C121.875,96.889 128.835,91.302 128.835,83.39 C128.835,80.695 127.853,77.898 125.977,75.333 C124.102,72.768 120.949,70.436 116.958,70.558 L108.092,70.986 L87.913,39.435 Z M77.732,44.441 L83.406,44.441 L100.693,71.341 L84.377,72.126 Z M48.789,63.9 L55.773,63.9 L61.793,73.214 L52.295,73.669 Z M117.158,77.056 L117.158,77.056 C118.588,77.013 119.699,77.759 120.73,79.169 C121.763,80.581 122.334,82.659 122.334,83.39 C122.334,87.513 118.769,90.136 115.183,89.865 L47.54,86.78 C46.129,86.632 45.536,86.183 45.087,85.614 C44.635,85.042 44.365,84.187 44.365,83.302 C44.365,82.571 44.612,81.669 44.939,81.187 C45.265,80.706 45.423,80.515 46.271,80.466 L46.271,80.466 Z M52.07,93.494 L61.812,93.937 L55.642,102.906 L48.838,102.906 Z M84.267,94.961 L100.624,95.707 L83.399,122.578 L77.563,122.578 Z" fill="none" stroke="currentColor" stroke-width="1.5"/></svg>