<svg xmlns="http://www.w3.org/2000/svg" viewBox="0 0 158.181 124.087" width="24" height="24"><path d="M5.5,0 L0,96.111 L62.447,101.611 L62.447,110.342 L47.859,110.342 L87.806,121.342 L73.447,110.342 L73.447,101.611 L130.217,101.611 L135.717,5.5 Z" fill="none" stroke="currentColor" stroke-width="1.5"/><path d="M67.87,36.68 C75.809,36.68 82.126,42.997 82.126,50.936 C82.126,58.875 75.809,65.192 67.87,65.192 C59.931,65.192 53.614,58.875 53.614,50.936 C53.614,42.997 59.931,36.68 67.87,36.68 Z M67.87,76.192 C79.423,76.192 87.048,82.844 90.999,90.614 L45.038,90.614 C48.652,82.96 55.558,76.192 67.87,76.192 Z" fill="none" stroke="currentColor" stroke-width="1.5"/><path d="M11,11 L124.72,11 L124.72,90.611 L102.935,90.611 C99.983,82.285 93.833,74.186 84.908,69.441 C89.932,64.816 93.144,58.253 93.144,50.933 C93.144,37.049 81.772,25.677 67.888,25.677 C54.004,25.677 42.632,37.049 42.632,50.933 C42.632,58.228 45.822,64.773 50.816,69.396 C41.73,74.215 35.772,82.484 33.044,90.611 L11.003,90.611 Z" fill="none" stroke="currentColor" stroke-width="1.5"/><path d="M36.97,19.59 C31.186,19.59 25.969,22.751 23.333,27.211 C20.697,31.672 19.954,36.924 19.954,42.598 C30.954,38.048 31.777,34.547 32.804,32.809 C33.831,31.071 34.372,30.59 36.97,30.59 Z" fill="none" stroke="currentColor" stroke-width="1.5"/><path d="M116.47,34.04 C108.642,34.04 102.167,40.515 102.167,48.343 L102.167,109.786 C102.167,117.614 108.642,124.087 116.47,124.087 L143.88,124.087 C151.708,124.087 158.181,117.614 158.181,109.786 L158.181,48.343 C158.181,40.515 151.708,34.04 143.88,34.04 Z" fill="none" stroke="currentColor" stroke-width="1.5"/><path d="M116.47,45.04 L143.88,45.04 C145.804,45.04 147.181,46.419 147.181,48.343 L147.181,109.786 C147.181,111.71 145.804,113.086 143.88,113.086 L116.47,113.086 C114.546,113.086 113.167,111.71 113.167,109.786 L113.167,48.343 C113.167,46.419 114.546,45.04 116.47,45.04 Z" fill="none" stroke="currentColor" stroke-width="1.5"/><ellipse cx="130.07" cy="101.59" rx="5.613" ry="5.613" fill="none" stroke="currentColor"/></svg>