<svg xmlns="http://www.w3.org/2000/svg" viewBox="0 0 136.26 136.26" width="24" height="24"><ellipse cx="68.13" cy="68.13" rx="68.13" ry="68.13" fill="none" stroke="currentColor"/><path d="M31.277,37.01 L28.277,85.139 L59.439,88.139 L59.439,92.125 L52.558,92.125 L72.331,98.125 L65.438,92.125 L65.438,88.139 L93.436,88.139 L96.436,40.01 Z M34.277,43.01 L90.437,43.01 L90.437,82.139 L79.828,82.139 C78.777,77.796 75.695,74.099 71.539,71.86 C73.957,69.477 75.476,66.186 75.476,62.547 C75.476,55.341 69.569,49.434 62.363,49.434 C55.157,49.434 49.252,55.342 49.252,62.547 C49.252,66.247 50.839,69.565 53.329,71.956 C49.304,74.301 46.53,78.11 44.887,82.14 L34.278,82.14 Z M46.82,46.848 C44.24,46.848 41.57,48.026 40.074,50.215 C38.578,52.404 38.103,55.129 38.103,58.438 C44.103,55.784 44.606,54.216 45.027,53.6 C45.448,52.984 45.636,52.848 46.82,52.848 Z M62.363,55.434 C66.326,55.434 69.476,58.584 69.476,62.547 C69.476,66.351 66.548,69.331 62.81,69.57 C62.64,69.566 62.477,69.527 62.306,69.527 C62.164,69.527 62.037,69.561 61.896,69.565 C58.168,69.315 55.252,66.344 55.252,62.547 C55.252,58.583 58.4,55.434 62.363,55.434 Z M61.869,75.608 C62.036,75.614 62.194,75.659 62.363,75.659 C62.505,75.659 62.636,75.62 62.777,75.616 C67.445,75.823 71.627,78.902 73.322,82.139 L51.388,82.139 C53.497,78.507 57.017,75.779 61.868,75.608 Z" fill="none" stroke="currentColor" stroke-width="1.5"/><path d="M86.47,54.02 C82.474,54.02 79.161,57.332 79.161,61.329 L79.161,92.087 C79.161,96.083 82.474,99.393 86.47,99.393 L100.374,99.393 C104.37,99.393 107.681,96.083 107.681,92.087 L107.681,61.329 C107.681,57.332 104.37,54.02 100.374,54.02 Z" fill="none" stroke="currentColor" stroke-width="1.5"/><path d="M86.47,60.02 L100.374,60.02 C101.15,60.02 101.681,60.553 101.681,61.329 L101.681,92.087 C101.681,92.863 101.15,93.393 100.374,93.393 L86.47,93.393 C85.694,93.393 85.161,92.863 85.161,92.087 L85.161,61.329 C85.161,60.553 85.694,60.02 86.47,60.02 Z" fill="none" stroke="currentColor" stroke-width="1.5"/><ellipse cx="93.5" cy="88.08" rx="2.945" ry="2.945" fill="none" stroke="currentColor"/></svg>