<svg xmlns="http://www.w3.org/2000/svg" viewBox="0 0 136.26 136.26" width="24" height="24"><ellipse cx="68.13" cy="68.13" rx="68.13" ry="68.13" fill="none" stroke="currentColor"/><path d="M73.858,45.659 L65.17,53.368 L54.963,53.368 L50.491,48.774 L49.963,56.117 L46.548,59.631 L54.961,58.867 L65.176,58.867 L71.877,65.697 L82.344,58.867 L85.711,58.867 L85.711,79.941 L76.541,79.941 L76.541,79.24 L71.041,79.941 L61.337,79.941 C60.197,76.888 57.239,74.687 53.811,74.687 C49.41,74.687 45.783,78.314 45.783,82.715 C45.783,87.115 49.41,90.742 53.811,90.742 C57.256,90.742 60.227,88.518 61.355,85.441 L71.041,85.441 L71.041,86.295 L76.541,85.441 L88.461,85.441 L91.211,56.116 L82.352,53.367 L75.834,46.511 Z M73.816,52.373 L77.369,56.109 L73.816,59.818 L70.176,56.109 Z M53.811,80.186 C55.239,80.186 56.338,81.285 56.338,82.713 C56.338,84.142 55.239,85.241 53.811,85.241 C52.383,85.241 51.284,84.142 51.284,82.713 C51.284,81.285 52.383,80.186 53.811,80.186 Z M37.872,34.855 L35.122,98.647 L99.048,101.397 L101.798,37.606 Z M40.622,40.355 L96.297,40.355 L96.297,95.899 L40.622,95.899 Z" fill="none" stroke="currentColor" stroke-width="1.5"/></svg>