<svg xmlns="http://www.w3.org/2000/svg" viewBox="0 0 151.342 151.342" width="24" height="24"><ellipse cx="75.671" cy="75.671" rx="75.671" ry="75.671" fill="none" stroke="currentColor"/><path d="M70.011,98.091 L82.773,104.091 Z M69.366,85.445 L82.772,91.445 Z M69.366,72.734 L82.772,78.734 Z M69.366,59.89 L82.772,65.89 Z M69.366,47.343 L82.772,53.343 Z M57.067,34.333 L54.067,114.101 L95.071,117.101 L98.071,37.333 Z M60.067,40.333 L92.071,40.333 L92.071,111.101 L60.067,111.101 Z" fill="none" stroke="currentColor" stroke-width="1.5"/><path d="M98.381,49.001 C96.02,49.514 94.259,50.888 92.844,52.263 L92.723,52.38 L83.106,64.068 C83.105,64.069 83.105,64.071 83.104,64.072 C80.332,67.363 80.14,72.252 83.078,75.595 C83.079,75.596 83.079,75.596 83.08,75.597 L93.105,87.763 L93.291,87.925 C97.361,91.481 102.881,91.133 106.133,88.236 L106.141,88.228 L106.149,88.222 C107.775,86.752 108.88,84.733 109.19,82.401 C109.319,81.425 109.159,80.368 108.912,79.329 L117.51,79.329 C120.393,79.329 122.846,77.959 124.436,76.177 C126.026,74.394 126.934,72.227 126.934,69.94 C126.934,65.107 122.999,60.552 117.51,60.552 L117.483,60.552 L108.766,60.634 C109.072,59.802 109.381,58.965 109.381,58.015 C109.383,55.528 108.038,53.165 105.895,51.206 L105.864,51.179 L105.832,51.149 C103.573,49.199 100.742,48.488 98.381,49.001 Z" fill="none" stroke="currentColor" stroke-width="1.5"/><path d="M100.591,54.851 C100.919,54.947 101.321,55.196 101.882,55.675 C103.22,56.91 103.386,57.577 103.386,58.015 C103.386,58.458 103.119,59.213 102.15,60.32 L102.083,60.398 L97.247,66.746 L117.515,66.556 L117.517,66.556 C119.572,66.557 120.939,68.474 120.939,69.945 C120.939,70.443 120.601,71.471 119.963,72.187 C119.324,72.903 118.564,73.333 117.515,73.333 L97.031,73.333 L102.494,79.525 L102.572,79.601 C103.253,80.268 103.353,80.823 103.248,81.617 C103.143,82.407 102.625,83.317 102.135,83.763 C100.976,84.791 99.432,85.23 97.357,83.486 L87.623,71.674 L87.592,71.639 C86.886,70.837 86.902,68.885 87.699,67.94 L87.711,67.926 L97.08,56.539 C98.048,55.612 99.023,55.007 99.66,54.869 C99.985,54.798 100.255,54.753 100.592,54.851 Z" fill="none" stroke="currentColor" stroke-width="1.5"/><path d="M58.461,72.871 C51.757,72.871 46.258,78.37 46.258,85.074 C46.258,88.55 47.775,91.653 50.133,93.883 C49.329,94.36 48.558,94.905 47.84,95.533 C44.857,98.142 42.817,102.144 42.817,106.922 L42.881,114.133 L71.108,117.106 L74.042,105.93 C74.042,100.977 71.187,96.452 66.821,93.864 C69.163,91.636 70.665,88.537 70.665,85.075 C70.665,78.371 65.166,72.872 58.462,72.872 Z" fill="none" stroke="currentColor" stroke-width="1.5"/><path d="M58.461,78.871 C61.922,78.871 64.664,81.613 64.664,85.074 C64.664,88.535 61.922,91.277 58.461,91.277 C55,91.277 52.258,88.535 52.258,85.074 C52.258,81.613 55,78.871 58.461,78.871 Z M58.461,97.607 C64.203,97.549 68.041,101.876 68.041,105.929 L68.082,111.105 L48.854,111.105 L48.815,106.894 L48.817,106.921 C48.817,103.77 49.999,101.614 51.79,100.048 C53.58,98.483 56.07,97.607 58.462,97.607 Z" fill="none" stroke="currentColor" stroke-width="1.5"/></svg>