<svg xmlns="http://www.w3.org/2000/svg" viewBox="0 0 76.66 37.33" width="24" height="24"><path d="M38.8,14.84 L35.54,14.84 L37.17,10.19 Z" fill="none" stroke="currentColor" stroke-width="1.5"/><path d="M59.3,21.12 L56.87,18.67 L59.3,16.22 M52.14,21.12 L54.58,18.67 L52.14,16.22 M13.96,27.87 L13.96,19.03 L22.43,23.45 Z M27.86,9.56 L65.02,9.56 L65.02,28.09 L27.86,28.09 Z M65,23.62 L65.96,18.89 L67.89,27.99 L69.82,18.89 L71.76,27.99 L73.69,18.89 L75.63,27.99 L76.66,23.37 M46.47,9.57 L46.47,28.1 M37.17,28.08 L37.17,14.85 M4.53,28.15 L9.25,18.71 M27.87,28.09 L0,28.09 L0,18.79 L27.85,18.79 M55.68,37.33 L55.68,0" fill="none" stroke="currentColor" stroke-width="1.5"/></svg>