<svg xmlns="http://www.w3.org/2000/svg" viewBox="0 0 62.8 37.24" width="24" height="24"><path d="M20.14,14.78 L16.88,14.78 L18.51,10.13 Z M45.53,22.59 L42.63,24.06 L46.18,27.48 Z" fill="none" stroke="currentColor" stroke-width="1.5"/><path d="M9.27,18.75 L4.63,28.01 M13.89,28.01 L0,28.01 L0,18.75 L13.96,18.75 M34.74,23.33 L39.52,23.33 M25.53,23.33 L30.31,23.33 M13.89,9.5 L51.14,9.5 L51.14,28.03 L13.89,28.03 Z M46.38,37.24 L46.38,28.03 M37.11,37.24 L37.11,23.33 M37.11,9.38 L37.11,0 M32.55,9.51 L32.55,28.03 M27.82,27.95 L27.82,23.33 M18.51,28.02 L18.51,14.71 M37.1,9.45 L44.05,23.26 M51.14,23.47 L52.09,18.74 L54.03,27.84 L55.96,18.74 L57.89,27.84 L59.83,18.74 L61.76,27.84 L62.8,23.22" fill="none" stroke="currentColor" stroke-width="1.5"/></svg>