<svg xmlns="http://www.w3.org/2000/svg" viewBox="0 0 62.77 37.24" width="24" height="24"><path d="M37.13,9.45 L44.03,23.24 M37.13,28.03 L44.12,14.24 M46.42,9.38 L46.42,0 M13.97,28.03 L0,28.03 L0,18.73 L13.96,18.73 M4.53,28.08 L9.25,18.65 M18.54,28.02 L18.54,14.88 M27.85,22.64 L27.85,9.53 M32.57,9.51 L32.57,28.03 M37.15,9.38 L37.15,0 M37.13,37.24 L37.13,28.03 M46.41,37.24 L46.41,28.03 M51.11,23.56 L52.06,18.83 L53.99,27.93 L55.93,18.83 L57.86,27.93 L59.8,18.83 L61.73,27.93 L62.77,23.31 M13.96,9.5 L51.12,9.5 L51.12,28.03 L13.96,28.03 Z" fill="none" stroke="currentColor" stroke-width="1.5"/><rect x="0" y="0" width="0" height="0" fill="none" stroke="currentColor"/><path d="M45.51,22.57 L42.61,24.04 L46.16,27.46 Z M45.6,14.91 L42.7,13.44 L46.25,10.02 Z M20.16,14.8 L16.91,14.8 L18.54,10.15 Z M29.42,22.67 L26.17,22.67 L27.8,27.32 Z" fill="none" stroke="currentColor" stroke-width="1.5"/></svg>