<svg xmlns="http://www.w3.org/2000/svg" viewBox="0 0 62.77 37.61" width="24" height="24"><path d="M3.72,28.06 L0,28.06 L0,18.76 L3.75,18.76 M13.96,21.12 L0,21.14 M0,25.7 L13.96,25.73 M23.25,22.63 L23.25,14.9 M32.57,9.54 L32.57,28.07 M39.33,23.44 L44.38,23.44 M41.86,23.44 L41.86,37.61 M44.37,14.16 L39.25,14.16 M41.86,14.16 L41.86,0 M51.11,23.59 L52.06,18.86 L53.99,27.96 L55.93,18.86 L57.86,27.96 L59.8,18.86 L61.73,27.96 L62.77,23.34 M13.96,9.53 L51.12,9.53 L51.12,28.06 L13.96,28.06 Z" fill="none" stroke="currentColor" stroke-width="1.5"/><rect x="0" y="0" width="0" height="0" fill="none" stroke="currentColor"/><path d="M24.87,22.72 L21.62,22.72 L23.25,27.38 Z M24.87,14.8 L21.62,14.8 L23.25,10.15 Z" fill="none" stroke="currentColor" stroke-width="1.5"/></svg>