<svg xmlns="http://www.w3.org/2000/svg" viewBox="0 0 62.77 37.3" width="24" height="24"><path d="M13.96,9.56 L51.12,9.56 L51.12,28.09 L13.96,28.09 Z M51.11,23.62 L52.06,18.89 L53.99,27.99 L55.93,18.89 L57.86,27.99 L59.8,18.89 L61.73,27.99 L62.77,23.37 M23.18,14.19 L23.18,9.52 M25.68,14.19 L20.57,14.19 M23.18,23.47 L23.18,28.04 M20.65,23.47 L25.69,23.47 M32.57,9.57 L32.57,28.1 M41.78,37.3 L41.78,28.09 M41.78,23.19 L41.78,14.43 M41.78,9.52 L41.78,0 M4.53,28.15 L9.25,18.71 M13.97,28.09 L0,28.09 L0,18.79 L13.96,18.79" fill="none" stroke="currentColor" stroke-width="1.5"/><rect x="0" y="0" width="0" height="0" fill="none" stroke="currentColor"/><path d="M43.41,23.22 L40.15,23.22 L41.78,27.87 Z M43.41,14.41 L40.15,14.41 L41.78,9.76 Z" fill="none" stroke="currentColor" stroke-width="1.5"/></svg>