<svg xmlns="http://www.w3.org/2000/svg" viewBox="0 0 111.3 37.51" width="24" height="24"><path d="M97.41,27.78 L97.41,18.94 L88.86,23.35 Z M71.2,14.79 L67.95,14.79 L69.58,10.14 Z M80.53,22.57 L77.27,22.57 L78.9,27.22 Z M40.79,22.52 L37.89,23.99 L41.44,27.4 Z M40.71,15.02 L37.8,13.55 L41.36,10.14 Z M13.9,27.76 L13.9,18.92 L22.45,23.34 Z" fill="none" stroke="currentColor" stroke-width="1.5"/><path d="M88.1,31.67 C88.14,31.45 88.1,27.78 88.1,27.78 M88.1,37.51 L88.1,33.45 M102.04,18.76 L106.67,28.03 M83.5,28.03 L111.3,28.03 L111.3,18.76 L83.5,18.76 M13.9,31.65 C13.85,31.43 13.9,27.76 13.9,27.76 M13.9,37.49 L13.9,33.44 M57.81,23.4 L62.81,23.4 M57.81,14.11 L62.81,14.11 M48.52,23.4 L53.52,23.4 M48.52,14.11 L53.52,14.11 M78.86,9.59 L78.86,22.49 M69.54,14.83 L69.54,27.95 M64.93,9.51 L64.93,28.03 M95.09,13.79 L94.14,18.52 L92.21,9.42 L90.27,18.52 L88.34,9.42 L86.4,18.52 L84.47,9.42 L83.43,14.04 M9.27,18.75 L4.63,28.01 M27.81,28.01 L0,28.01 L0,18.75 L27.81,18.75 M27.81,9.5 L83.5,9.55 L83.5,28.03 L27.81,28.03 Z M46.45,9.51 L46.45,28.03 M51.01,37.24 L51.01,23.46 M51.01,14.1 L51.01,0 M32.41,9.45 L39.31,23.19 M60.35,0 L60.35,14.01 M60.35,23.45 L60.35,37.24 M32.41,27.96 L39.22,14.35 M16.21,13.85 L17.17,18.58 L19.1,9.48 L21.03,18.58 L22.97,9.48 L24.9,18.58 L26.84,9.48 L27.87,14.1" fill="none" stroke="currentColor" stroke-width="1.5"/><path d="M83.49,33.52 L83.49,37.37 L92.81,37.37 L92.81,33.52" fill="none" stroke="currentColor" stroke-width="1.5"/></svg>