<svg xmlns="http://www.w3.org/2000/svg" viewBox="0 0 93.24 37.24" width="24" height="24"><path d="M34.16,14.19 L31.2,14.16 L32.69,10.04 Z M59.7,23.05 L57.08,24.36 L60.36,27.61 Z" fill="none" stroke="currentColor" stroke-width="1.5"/><path d="M93.24,23.34 L84.83,23.34 M76.86,23.34 L69.82,23.34 M0,23.34 L8.4,23.34 M16.38,23.34 L23.41,23.34" fill="none" stroke="currentColor" stroke-width="1.5"/><rect x="0" y="0" width="0" height="0" fill="none" stroke="currentColor"/><path d="M84.83,28.03 L84.83,18.67 L76.86,23.34 Z M48.79,23.34 L53.57,23.34 M39.59,23.34 L44.36,23.34 M27.96,9.44 L65.19,9.44 L65.19,28.03 L27.96,27.99 Z M60.44,37.24 L60.44,28.03 M51.16,37.24 L51.16,23.34 M51.16,9.44 L51.16,0 M46.6,9.44 L46.6,27.99 M41.87,27.99 L41.87,23.34 M32.56,27.99 L32.56,14.28 M51.15,9.44 L58.32,23.57 M65.19,21.02 L69.82,21.02 L69.82,27.99 L65.19,27.99 M27.96,14.05 L23.41,14.05 L23.41,27.99 L27.96,27.99 M8.4,28.03 L8.4,18.67 L16.38,23.34 Z" fill="none" stroke="currentColor" stroke-width="1.5"/></svg>