<svg xmlns="http://www.w3.org/2000/svg" viewBox="0 0 109.23 37.51" width="24" height="24"><path d="M52.57,23.39 L47.57,23.39 M59.34,0.07 L59.34,37.43 M50.03,23.44 L50.03,37.23 M50.03,0 L50.03,18.9 L59.31,18.9 M38.23,23.31 L43.23,23.31 M31.46,9.51 L31.46,27.96 M40.77,23.36 L40.77,27.96 M40.77,9.51 L40.77,18.81 L31.49,18.81 M109.23,37.47 L109.23,33.67 M109.23,31.73 L109.23,28.94 M109.23,26.99 L109.23,23.39 L105.6,23.39 M103.61,23.39 L100.01,23.39 M91.73,23.39 L88.2,23.39 M86.14,23.39 L82.55,23.39 M0,37.51 L0,33.71 M0,31.77 L0,28.98 M0,27.03 L0,23.43 L3.63,23.43 M5.62,23.43 L9.22,23.43 M17.5,23.43 L21.04,23.43 M23.1,23.43 L26.69,23.43 M15.19,13.85 L16.15,18.58 L18.08,9.49 L20.01,18.58 L21.95,9.49 L23.88,18.58 L25.82,9.49 L26.85,14.1 M45.43,9.51 L45.43,27.96 M26.79,9.51 L82.48,9.51 L82.48,27.96 L26.79,27.96 Z M94.07,13.79 L93.12,18.52 L91.19,9.43 L89.25,18.52 L87.32,9.43 L85.38,18.52 L83.45,9.43 L82.41,14.04 M63.91,9.51 L63.91,27.96 M68.52,14.69 L68.52,27.96 M77.84,9.51 L77.84,22.77" fill="none" stroke="currentColor" stroke-width="1.5"/><rect x="0" y="0" width="0" height="0" fill="none" stroke="currentColor"/><path d="M58.04,18.83 Z M32.76,18.75 Z M100.06,28.4 L100.06,18.48 L91.38,23.44 Z M9.17,28.44 L9.17,18.51 L17.85,23.48 Z M79.51,22.84 L76.25,22.84 L77.88,27.49 Z M70.18,14.66 L66.93,14.66 L68.56,10.01 Z" fill="none" stroke="currentColor" stroke-width="1.5"/></svg>