<svg xmlns="http://www.w3.org/2000/svg" viewBox="0 0 83.58 37.24" width="24" height="24"><path d="M26.91,14.94 L24.01,13.47 L27.56,10.05 Z M27.03,22.55 L24.12,24.02 L27.68,27.44 Z M66.67,22.84 L63.41,22.84 L65.04,27.49 Z M57.34,14.66 L54.09,14.66 L55.71,10.01 Z" fill="none" stroke="currentColor" stroke-width="1.5"/><path d="M2.35,13.85 L3.3,18.58 L5.24,9.48 L7.17,18.58 L9.11,9.48 L11.04,18.58 L12.98,9.48 L14.01,14.1 M18.55,27.96 L25.43,14.27 M46.49,23.45 L46.49,37.24 M46.49,0 L46.49,14.01 M18.55,9.45 L25.54,23.22 M37.15,14.1 L37.15,0 M37.15,37.24 L37.15,23.46 M32.59,9.51 L32.59,28.03 M13.95,9.5 L69.64,9.55 L69.64,28.03 L13.95,28.03 Z M13.95,28.01 L0,28.01 L0,18.75 L13.95,18.75 M9.27,18.75 L4.63,28.01 M81.23,13.79 L80.28,18.52 L78.34,9.42 L76.41,18.52 L74.48,9.42 L72.54,18.52 L70.61,9.42 L69.57,14.04 M51.07,9.51 L51.07,28.03 M55.68,14.69 L55.68,27.95 M65,9.59 L65,22.76 M34.66,14.11 L39.66,14.11 M34.66,23.4 L39.66,23.4 M43.95,14.11 L48.95,14.11 M43.95,23.4 L48.95,23.4 M69.64,28.03 L83.58,28.03 L83.58,18.76 L69.64,18.76 M74.32,18.76 L78.95,28.03" fill="none" stroke="currentColor" stroke-width="1.5"/></svg>