<svg xmlns="http://www.w3.org/2000/svg" viewBox="0 0 65.0 37.77" width="24" height="24"><path d="M26.79,22.89 L27.47,27.8 L23.95,24.31 Z M35.47,15.04 L37.06,10.34 L38.65,15.04 Z" fill="none" stroke="currentColor" stroke-width="1.5"/><path d="M25.3,23.48 L18.5,9.76 M48.1,24.15 C48.1,25.09 47.34,25.84 46.41,25.84 C45.48,25.84 44.72,25.09 44.72,24.15 C44.72,23.22 45.48,22.46 46.41,22.46 C47.34,22.46 48.1,23.22 48.1,24.15 Z M37.06,15.17 L37.06,37.75 M37.06,9.76 L37.06,0 M20.24,24.02 C20.24,24.95 19.48,25.71 18.55,25.71 C17.61,25.71 16.86,24.95 16.86,24.02 C16.86,23.08 17.61,22.33 18.55,22.33 C19.48,22.33 20.24,23.08 20.24,24.02 Z M51.1,23.46 L52.06,18.97 L53.97,28.32 L55.89,18.97 L57.81,28.32 L59.73,18.97 L61.64,28.32 L62.79,23.49 M59.42,10.95 L62.18,10.95 M53.2,10.95 L55.84,10.95 L61.69,8.54 M51.1,9.76 L51.1,2.84 L65,2.84 L65,16.77 L51.1,16.77 M46.4,26.59 L46.4,37.77 M42.8,22.99 L46.39,26.59 L50.07,23 M14.97,22.78 L18.52,26.61 L22.24,22.78 M18.53,28.35 L18.53,26.61 M32.56,9.76 L32.56,28.35 M4.48,28.35 L9.26,19.03 M13.87,28.35 L0,28.35 L0,19.03 L13.92,19.03 M13.94,9.76 L51.1,9.76 L51.1,28.35 L13.94,28.35 Z" fill="none" stroke="currentColor" stroke-width="1.5"/></svg>