<svg xmlns="http://www.w3.org/2000/svg" viewBox="0 0 97.47 37.47" width="24" height="24"><path d="M52.72,22.69 L49.46,22.69 L51.09,27.34 Z M75.16,13.56 L78.08,15.01 L78.7,10.12 Z M62.02,22.91 L58.76,22.91 L60.39,27.44 Z M36.57,13.65 L33.66,15.1 L33.04,10.21 Z" fill="none" stroke="currentColor" stroke-width="1.5"/><path d="M90.52,23.33 L83.59,23.33 M97.47,27.95 L90.52,23.33 L97.47,18.7 M83.59,18.69 L97.47,18.7 L97.47,27.95 L83.59,28 M13.91,9.49 L13.91,28 M4.57,11.72 L13.91,11.72 M4.57,10.45 L4.57,17.72 M78.9,0 L78.9,9.58 M51.11,9.58 L51.11,22.7 M69.71,28 L69.71,37.47 M27.88,28 L0,28 L0,18.73 L27.88,18.73 M9.27,18.73 L4.63,28 M4.57,16.37 L13.91,16.37 M81.48,23.34 L76.46,23.34 M60.39,28 L60.39,37.47 M78.9,23.34 L78.9,37.47 M76.63,14.33 L69.7,28 M35.1,14.42 L41.84,28 M13.91,18.73 L20.84,23.36 L13.91,28 M27.88,9.58 L83.59,9.58 L83.59,28 L27.88,28 Z M55.7,9.58 L55.7,28 M32.47,23.34 L32.47,28 M30.05,23.34 L35.05,23.34 M60.39,0 L60.39,22.82" fill="none" stroke="currentColor" stroke-width="1.5"/><path d="M13.91,28 L18.69,32.65 L97.47,32.65 L97.47,27.95 M13.91,28 L13.91,37.47" fill="none" stroke="currentColor" stroke-width="1.5"/></svg>