<svg xmlns="http://www.w3.org/2000/svg" viewBox="0 0 93.0 37.54" width="24" height="24"><path d="M31.57,13.15 L28.66,14.61 L28.28,9.98 Z M57.54,22.97 L54.28,22.97 L55.91,27.47 Z M70.78,13.15 L73.7,14.61 L74.12,10.15 Z M48.14,23.16 L44.88,23.16 L46.51,27.53 Z" fill="none" stroke="currentColor" stroke-width="1.5"/><path d="M46.52,9.5 L46.52,23.13 M74.41,0 L74.41,9.5 M27.94,23.41 L27.94,28.01 M25.4,23.41 L30.4,23.41 M77,23.41 L71.98,23.41 M65.11,28.01 L65.11,37.54 M74.41,23.41 L74.41,37.54 M72.26,13.92 L65.11,28.01 M30.1,13.92 L37.2,28.01 M23.32,9.5 L79.09,9.5 L79.09,28.01 L23.32,28.01 Z M51.22,9.5 L51.22,28.01 M55.9,28.01 L55.9,37.54 M55.9,0 L55.9,23.04 M8.29,28.01 L16.27,23.4 L8.29,18.79 Z M79.09,18.77 L93,18.77 L93,28.01 L79.09,28.01 M90.7,14 L89.76,18.77 L87.82,9.48 L85.87,18.77 L83.93,9.48 L81.98,18.77 L80.04,9.48 L79.09,14.4 M93,28.01 L86.06,23.45 L93,18.77 M86.06,23.45 L79.09,23.45" fill="none" stroke="currentColor" stroke-width="1.5"/><rect x="0" y="0" width="0" height="0" fill="none" stroke="currentColor"/><path d="M16.27,23.4 L23.25,23.4 M0,23.4 L8.26,23.4" fill="none" stroke="currentColor" stroke-width="1.5"/></svg>