<svg xmlns="http://www.w3.org/2000/svg" viewBox="0 0 95.18 37.47" width="24" height="24"><path d="M13.91,28 L13.91,37.47" fill="none" stroke="currentColor" stroke-width="1.5"/><rect x="0" y="0" width="0" height="0" fill="none" stroke="currentColor"/><path d="M60.39,0 L60.39,22.83 M30.05,23.34 L35.05,23.34 M32.47,23.34 L32.47,28 M55.7,9.58 L55.7,28 M27.88,9.58 L83.59,9.58 L83.59,28 L27.88,28 Z M13.91,18.73 L20.84,23.36 L13.91,28 M35.01,14.3 L41.84,28 M76.6,14.46 L69.7,28 M78.9,23.34 L78.9,37.47 M60.39,28 L60.39,37.47 M81.48,23.34 L76.46,23.34 M4.57,16.37 L13.91,16.37 M9.27,18.73 L4.63,28 M27.88,28 L0,28 L0,18.73 L27.88,18.73 M69.71,28 L69.71,37.47 M51.11,9.58 L51.11,22.7 M78.9,0 L78.9,9.58 M4.57,10.45 L4.57,17.72 M4.57,11.72 L13.91,11.72 M83.59,22.76 L84.53,18.74 L86.47,28.05 L88.41,18.74 L90.34,28.05 L92.28,18.74 L94.21,28.05 L95.18,23.19 M13.91,9.49 L13.91,28" fill="none" stroke="currentColor" stroke-width="1.5"/><rect x="0" y="0" width="0" height="0" fill="none" stroke="currentColor"/><path d="M52.72,22.69 L49.46,22.69 L51.09,27.34 Z M75.13,13.69 L78.04,15.15 L78.67,10.26 Z M62.02,22.91 L58.76,22.91 L60.39,27.44 Z M36.48,13.53 L33.57,14.98 L32.95,10.09 Z" fill="none" stroke="currentColor" stroke-width="1.5"/></svg>