<svg xmlns="http://www.w3.org/2000/svg" viewBox="0 0 79.01 102.73" width="24" height="24"><path d="M41.81,26.85 L41.81,30.53 M41.81,22.32 L41.81,24.65 M38.19,18.86 L41.81,18.86 L41.81,20.19 M33.42,18.86 L36.19,18.86 M28.85,18.86 L31.53,18.86 M24.14,18.86 L26.98,18.86 M19.51,18.86 L22.27,18.86 M14.86,18.86 L17.59,18.86 M9.28,18.86 L12.95,18.86 M39.45,35.14 L39.45,30.53 L46.42,30.53 L46.42,35.11 M55.67,47.94 L55.67,44.4 M55.67,52.69 L55.67,50.07 M55.67,57.35 L55.67,54.68 M55.67,62 L55.67,59.38 M55.67,66.72 L55.67,63.94 M51.97,72.31 L55.67,72.31 L55.67,68.6 M37.12,58.31 L37.12,72.31 L50.02,72.31 M32.53,53.68 L32.53,58.31 L46.42,58.31 M46.42,53.71 L46.42,72.31 M41.66,72.31 L37.16,73.26 L46.52,75.18 L37.16,77.1 L46.52,79.02 L37.16,80.93 L46.52,82.85 L41.69,84 M33.96,79.81 L50.17,76.16 M7.6,34.94 C7.6,34.01 8.35,33.25 9.29,33.25 C10.22,33.25 10.97,34.01 10.97,34.94 C10.97,35.88 10.22,36.63 9.29,36.63 C8.35,36.63 7.6,35.88 7.6,34.94 Z M12.88,33.81 L9.29,37.45 L5.65,33.76 M9.29,0 L9.29,33.32 M9.25,102.73 L9.25,37.32 M64.95,9.59 L64.95,93.22 L0,93.22 L0,9.59 Z M46.42,35.11 L46.42,53.71 L27.78,53.71 L27.78,35.11 Z M32.55,31.49 L32.55,35.11 M28.89,25.87 L32.55,25.87 L32.55,29.49 M23.07,25.87 L26.89,25.87 M18.5,29.52 L18.5,25.87 L21.16,25.87 M21.01,37.57 L18.5,35.03 L18.5,31.51 M24.48,41.07 L21.89,38.47 M27.78,44.41 L25.37,41.97 M27.78,44.41 L9.23,44.41 M46.42,44.41 L74.24,44.41 L74.21,53.73 M40.94,39.85 L27.78,39.85" fill="none" stroke="currentColor" stroke-width="1.5"/><path d="M69.59,51.12 L69.68,56.11 L79.01,56.15 L78.91,51.12" fill="none" stroke="currentColor" stroke-width="1.5"/><rect x="0" y="0" width="0" height="0" fill="none" stroke="currentColor"/><path d="M9.21,19.65 C8.76,19.65 8.4,19.29 8.4,18.84 C8.4,18.4 8.76,18.04 9.21,18.04 C9.65,18.04 10.01,18.4 10.01,18.84 C10.01,19.29 9.65,19.65 9.21,19.65 Z M37.33,64.04 L46.21,64.04 L41.77,71.94 Z M55.68,45.31 C55.23,45.31 54.87,44.95 54.87,44.51 C54.87,44.06 55.23,43.7 55.68,43.7 C56.12,43.7 56.48,44.06 56.48,44.51 C56.48,44.95 56.12,45.31 55.68,45.31 Z M9.26,45.3 C8.82,45.3 8.46,44.94 8.46,44.49 C8.46,44.05 8.82,43.69 9.26,43.69 C9.71,43.69 10.07,44.05 10.07,44.49 C10.07,44.94 9.71,45.3 9.26,45.3 Z M34.17,81.55 L29.25,81.02 L33.48,78.45 Z M41.08,38.26 L45.77,39.85 L41.08,41.44 Z" fill="none" stroke="currentColor" stroke-width="1.5"/></svg>