<svg xmlns="http://www.w3.org/2000/svg" viewBox="0 0 53.64 37.77" width="24" height="24"><path d="M37.18,33.92 L37.18,37.64 L46.47,37.64 L46.47,33.91" fill="none" stroke="currentColor" stroke-width="1.5"/><rect x="0" y="0" width="0" height="0" fill="none" stroke="currentColor"/><path d="M9.35,5.15 L5.62,5.15 M0,10.71 L0,13.71 M18.58,9.76 L16.14,7.35 M15.21,6.41 L13.95,5.15 L11.46,5.15 M3.69,5.15 L0,5.15 L0,8.88 M0,15.25 L0,18.25 M0,20.03 L0,23.69 L3.66,23.69 M5.66,23.69 L9.28,23.69 M27.88,28.33 L41.77,28.33 M41.77,33.95 L41.77,37.68 M27.88,19.02 L41.77,19.02 L41.77,32.04 M49.46,15.77 L45.81,31.97 M18.58,14.7 L18.58,28.33 M18.58,9.76 L18.58,0 M41.95,23.46 L42.91,18.97 L44.83,28.32 L46.74,18.97 L48.66,28.32 L50.58,18.97 L52.5,28.32 L53.64,23.49 M18.58,28.33 L18.58,37.77 M9.28,9.76 L27.88,9.76 L27.88,28.33 L9.28,28.33 Z" fill="none" stroke="currentColor" stroke-width="1.5"/><rect x="0" y="0" width="0" height="0" fill="none" stroke="currentColor"/><path d="M33.74,28.13 L33.74,19.22 L41.45,23.68 Z M16.99,14.56 L18.58,9.87 L20.16,14.56 Z M51.04,15.98 L50.51,11.05 L47.94,15.29 Z" fill="none" stroke="currentColor" stroke-width="1.5"/></svg>