<svg xmlns="http://www.w3.org/2000/svg" viewBox="0 0 53.94 37.77" width="24" height="24"><path d="M51.33,15.98 L50.8,11.05 L48.23,15.29 Z M26.64,15.23 L28.23,10.54 L29.82,15.23 Z" fill="none" stroke="currentColor" stroke-width="1.5"/><path d="M0,23.56 L8.62,23.56 M16.52,23.56 L23.68,23.56" fill="none" stroke="currentColor" stroke-width="1.5"/><rect x="0" y="0" width="0" height="0" fill="none" stroke="currentColor"/><path d="M8.61,18.85 L16.52,23.56 L8.61,28.27 Z M49.75,15.77 L46.1,31.97 M28.23,15.37 L28.23,28.36 M32.94,9.76 L32.94,0 M42.25,23.46 L43.2,18.97 L45.12,28.32 L47.04,18.97 L48.96,28.32 L50.87,18.97 L52.79,28.32 L53.94,23.49 M32.94,28.36 L32.94,37.77 M23.65,9.76 L42.25,9.76 L42.25,28.36 L23.65,28.36 Z" fill="none" stroke="currentColor" stroke-width="1.5"/></svg>