<svg xmlns="http://www.w3.org/2000/svg" viewBox="0 0 39.59 37.77" width="24" height="24"><path d="M13.94,9.76 L9.29,5.12 L0,5.12 L0,23.56 L9.32,23.56" fill="none" stroke="currentColor" stroke-width="1.5"/><rect x="0" y="0" width="0" height="0" fill="none" stroke="currentColor"/><path d="M12.58,23.48 L13.88,27.67 L15.3,23.48 Z M12.58,14.47 L13.88,10.28 L15.3,14.47 Z M36.98,15.98 L36.44,11.25 L33.88,15.29 Z" fill="none" stroke="currentColor" stroke-width="1.5"/><path d="M20.89,28.37 L23.19,32.36 L25.5,28.37 M9.32,9.76 L27.9,9.76 L27.9,28.37 L9.32,28.37 Z M13.94,28.37 L13.94,37.77 M27.9,23.46 L28.85,18.97 L30.77,28.32 L32.69,18.97 L34.6,28.32 L36.52,18.97 L38.44,28.32 L39.59,23.49 M13.94,9.76 L13.94,0 M13.94,14.53 L13.94,23.49 M35.4,15.77 L31.75,31.97" fill="none" stroke="currentColor" stroke-width="1.5"/></svg>