<svg xmlns="http://www.w3.org/2000/svg" viewBox="0 0 41.78 37.77" width="24" height="24"><path d="M36.92,15.98 L36.39,11.05 L33.82,15.29 Z M12.23,15.09 L13.82,10.4 L15.41,15.09 Z" fill="none" stroke="currentColor" stroke-width="1.5"/><path d="M9.24,9.76 L27.84,9.76 L27.84,28.36 L9.24,28.36 Z M5.62,14.54 L9.24,14.54 M0,10.87 L0,14.54 L3.62,14.54 M0,5.05 L0,8.88 M3.64,0.49 L0,0.49 L0,3.14 M11.7,2.99 L9.15,0.49 L5.64,0.49 M15.2,6.47 L12.59,3.88 M18.53,9.76 L16.09,7.35 M18.53,28.36 L18.53,37.77 M27.84,23.46 L28.79,18.97 L30.71,28.32 L32.63,18.97 L34.54,28.32 L36.46,18.97 L38.38,28.32 L39.53,23.49 M18.53,9.76 L18.53,0 M13.82,15.23 L13.82,28.36 M35.34,15.77 L31.69,31.97 M37.07,28.11 L37.07,32.04 M37.07,33.95 L37.07,37.68" fill="none" stroke="currentColor" stroke-width="1.5"/><path d="M32.48,33.92 L32.48,37.64 L41.78,37.64 L41.78,33.91" fill="none" stroke="currentColor" stroke-width="1.5"/></svg>