<svg xmlns="http://www.w3.org/2000/svg" viewBox="0 0 41.87 75.03" width="24" height="24"><path d="M34.78,35.29 C34.78,36.54 33.76,37.55 32.51,37.55 C31.26,37.55 30.25,36.54 30.25,35.29 C30.25,34.04 31.26,33.03 32.51,33.03 C33.76,33.03 34.78,34.04 34.78,35.29 Z M6.88,43.68 L11.62,38.89 L6.86,34.12 M21.08,34.12 L16.28,38.89 L21.06,43.68 M17.8,25.41 L24.15,29.23 M6.87,50.68 L20.93,27.29 M27.75,36.66 L32.6,31.86 L37.3,36.66 M13.87,18.96 L32.6,18.96 L32.6,31.86 M14,56.35 L32.6,56.35 L32.6,37.43 M13.87,0 L13.87,19.75 M13.87,24.67 L13.87,75.03 M0,9.82 L41.87,9.82 L41.87,65.56 L0,65.56 Z" fill="none" stroke="currentColor" stroke-width="1.5"/><rect x="0" y="0" width="0" height="0" fill="none" stroke="currentColor"/><path d="M12.4,24.66 L13.9,19.71 L15.43,24.66 Z" fill="none" stroke="currentColor" stroke-width="1.5"/><path d="M14.7,56.31 C14.7,56.73 14.36,57.08 13.93,57.08 C13.51,57.08 13.17,56.73 13.17,56.31 C13.17,55.89 13.51,55.54 13.93,55.54 C14.36,55.54 14.7,55.89 14.7,56.31 Z M14.67,18.97 C14.67,19.39 14.33,19.74 13.91,19.74 C13.48,19.74 13.14,19.39 13.14,18.97 C13.14,18.55 13.48,18.2 13.91,18.2 C14.33,18.2 14.67,18.55 14.67,18.97 Z" fill="none" stroke="currentColor" stroke-width="1.5"/></svg>