<svg xmlns="http://www.w3.org/2000/svg" viewBox="0 0 46.39 56.08" width="24" height="24"><path d="M39.6,23.26 L34.8,28.03 L39.58,32.82 M25.43,32.82 L30.17,28.03 L25.41,23.26 M21.02,23.26 L16.22,28.03 L20.99,32.82 M6.85,32.82 L11.59,28.03 L6.83,23.26 M0,9.47 L46.39,9.47 L46.39,46.58 L0,46.58 Z M23.17,37.28 L23.17,56.08 M13.94,0.1 L13.91,37.29 L32.43,37.31 L32.43,0" fill="none" stroke="currentColor" stroke-width="1.5"/><rect x="0" y="0" width="0" height="0" fill="none" stroke="currentColor"/><path d="M30.99,18.85 L32.49,13.9 L34.02,18.85 Z M23.94,37.36 Z M12.39,18.85 L13.89,13.9 L15.42,18.85 Z" fill="none" stroke="currentColor" stroke-width="1.5"/></svg>