<svg xmlns="http://www.w3.org/2000/svg" viewBox="0 0 46.39 56.08" width="24" height="24"><path d="M13.94,55.98 L13.91,18.79 L32.43,18.77 L32.43,56.08 M23.17,18.8 L23.17,0 M0,9.47 L46.39,9.47 L46.39,46.58 L0,46.58 Z M6.85,41.95 L11.59,37.17 L6.83,32.39 M21.02,32.39 L16.22,37.17 L20.99,41.95 M25.43,41.95 L30.17,37.17 L25.41,32.39 M39.6,32.39 L34.8,37.17 L39.58,41.95" fill="none" stroke="currentColor" stroke-width="1.5"/><rect x="0" y="0" width="0" height="0" fill="none" stroke="currentColor"/><path d="M12.39,24.42 L13.89,19.46 L15.42,24.42 Z M23.94,18.72 Z M30.99,24.42 L32.49,19.46 L34.02,24.42 Z" fill="none" stroke="currentColor" stroke-width="1.5"/></svg>