<svg xmlns="http://www.w3.org/2000/svg" viewBox="0 0 68.5 37.46" width="24" height="24"><path d="M6.9,23.36 C6.9,25.27 5.36,26.81 3.45,26.81 C1.55,26.81 0,25.27 0,23.36 C0,21.46 1.55,19.91 3.45,19.91 C5.36,19.91 6.9,21.46 6.9,23.36 Z M56.83,22.89 L57.86,19.02 L59.73,27.73 L61.67,18.83 L63.67,27.93 L65.54,18.89 L67.54,27.99 L68.5,23.35 M38.32,9.48 L38.32,27.93 M28.96,14.63 L28.96,22.88 M5.99,25.66 L19.71,25.66 M5.99,21.08 L19.71,21.08 M45.2,23.44 L50.1,23.44 M47.67,37.46 L47.67,23.44 M21.86,30.35 L54.71,30.35 M45.2,14.02 L50.1,14.02 M47.67,0 L47.67,14.02 M21.86,7.11 L54.71,7.11 M19.7,9.46 L56.87,9.46 L56.87,28.06 L19.7,28.06 Z" fill="none" stroke="currentColor" stroke-width="1.5"/><rect x="0" y="0" width="0" height="0" fill="none" stroke="currentColor"/><path d="M27.51,22.96 L29,27.41 L30.49,22.96 Z M27.51,14.58 L29,10.12 L30.49,14.58 Z M4.61,23.32 C4.61,23.96 4.09,24.47 3.46,24.47 C2.82,24.47 2.31,23.96 2.31,23.32 C2.31,22.68 2.82,22.17 3.46,22.17 C4.09,22.17 4.61,22.68 4.61,23.32 Z" fill="none" stroke="currentColor" stroke-width="1.5"/></svg>