<svg xmlns="http://www.w3.org/2000/svg" viewBox="0 0 83.62 37.51" width="24" height="24"><path d="M24.34,24.68 L27.17,23.27 L27.65,27.75 Z M76.8,15.69 L79.88,16.38 L79.27,11.91 Z M24.34,13.28 L27.17,14.7 L27.65,10.21 Z M6.78,15.69 L3.7,16.38 L4.32,11.91 Z M66.61,23.35 L63.45,23.35 L65.03,27.58 Z M57.31,14.46 L54.15,14.46 L55.73,10.23 Z" fill="none" stroke="currentColor" stroke-width="1.5"/><path d="M16.11,30.59 L67.5,30.59 M32.57,28.34 L32.57,9.68 M18.53,9.69 L25.67,23.93 M74.66,32.46 L78.27,16.11 M18.53,28.28 L25.67,14.04 M8.92,32.46 L5.32,16.11 M51.05,28.34 L51.05,9.68 M65.09,9.52 L65.09,23.27 M81.35,4.82 L80.32,9.81 L78.38,0.33 L76.45,9.81 L74.51,0.33 L72.58,9.81 L70.64,0.33 L69.63,5.21 M39.68,23.55 L34.71,23.55 M37.17,37.51 L37.17,23.55 M48.95,23.55 L43.98,23.55 M46.44,37.51 L46.44,23.55 M39.68,14.28 L34.71,14.28 M37.17,0.32 L37.17,14.28 M48.95,14.28 L43.98,14.28 M46.44,0.32 L46.44,14.28 M2.29,4.82 L3.32,9.81 L5.26,0.33 L7.2,9.81 L9.13,0.33 L11.07,9.81 L13,0.33 L14.01,5.21 M4.63,28.29 L9.29,18.99 M74.3,18.97 L79,28.29 M55.79,28.29 L55.79,14.54 M16.11,7.36 L67.5,7.36 M13.96,0 L14,28.29 M69.72,9.69 L13.97,9.69 M69.64,28.29 L69.7,0.23 M14.09,18.99 L0,18.95 L0.02,28.29 L83.62,28.29 L83.61,18.97 L69.67,18.97" fill="none" stroke="currentColor" stroke-width="1.5"/></svg>