<svg xmlns="http://www.w3.org/2000/svg" viewBox="0 0 36.92 46.73" width="24" height="24"><path d="M25.17,30.32 L27.17,30.32 M20.61,27.88 L23.08,30.32 L24.42,30.32 M12.45,30.32 L13.76,30.32 L16.27,27.84 M9.22,30.32 L11.64,30.32 M27.7,0 L27.7,15.51 M29.89,17.69 C29.89,18.93 28.89,19.93 27.65,19.93 C26.42,19.93 25.42,18.93 25.42,17.69 C25.42,16.46 26.42,15.46 27.65,15.46 C28.89,15.46 29.89,16.46 29.89,17.69 Z M27.7,21.08 L27.7,46.73 M22.91,16.35 L27.7,21.08 L32.39,16.35 M9.17,0 L9.17,15.51 M11.36,17.69 C11.36,18.93 10.36,19.93 9.13,19.93 C7.89,19.93 6.89,18.93 6.89,17.69 C6.89,16.46 7.89,15.46 9.13,15.46 C10.36,15.46 11.36,16.46 11.36,17.69 Z M9.17,21.08 L9.17,46.73 M4.39,16.35 L9.17,21.08 L13.86,16.35 M0,9.42 L36.92,9.42 L36.92,37.21 L0,37.21 Z M11.43,18.76 L14.13,21.43 M15.89,23.18 L18.44,25.7 L20.9,23.17 M22.92,21.2 L25.03,19.03" fill="none" stroke="currentColor" stroke-width="1.5"/><rect x="0" y="0" width="0" height="0" fill="none" stroke="currentColor"/><path d="M28.43,30.31 Z M9.9,30.32 Z" fill="none" stroke="currentColor" stroke-width="1.5"/></svg>