<svg xmlns="http://www.w3.org/2000/svg" viewBox="0 0 125.57 46.52" width="24" height="24"><path d="M97.59,36.88 L89.43,32.52 L97.59,28.16 Z M14.08,36.88 L22.24,32.52 L14.08,28.16 Z M6.87,24.57 L3.79,25.26 L4.4,20.79 Z M38.32,33.62 L41.14,32.19 L41.64,36.67 Z M38.32,22.12 L41.14,23.55 L41.64,19.07 Z M104.71,24.57 L107.79,25.26 L107.17,20.79 Z M80.46,32.23 L77.3,32.23 L78.88,36.46 Z M71.16,23.33 L68,23.33 L69.58,19.11 Z" fill="none" stroke="currentColor" stroke-width="1.5"/><path d="M103.11,12.05 L103.11,10.53 L101.86,10.53 L101.86,9.91 L103.87,9.91 L103.87,12.33 C103.57,12.54 103.24,12.7 102.89,12.81 C102.53,12.92 102.15,12.97 101.75,12.97 C100.86,12.97 100.17,12.71 99.67,12.2 C99.17,11.68 98.92,10.96 98.92,10.04 C98.92,9.11 99.17,8.39 99.67,7.88 C100.17,7.36 100.86,7.1 101.75,7.1 C102.12,7.1 102.47,7.15 102.8,7.24 C103.13,7.33 103.44,7.46 103.72,7.64 L103.72,8.45 C103.43,8.21 103.13,8.03 102.82,7.91 C102.5,7.79 102.16,7.73 101.81,7.73 C101.12,7.73 100.6,7.92 100.25,8.31 C99.9,8.7 99.73,9.27 99.73,10.04 C99.73,10.8 99.9,11.38 100.25,11.76 C100.6,12.15 101.12,12.34 101.81,12.34 C102.08,12.34 102.32,12.32 102.54,12.27 C102.75,12.23 102.94,12.15 103.11,12.05 Z M89.17,11.96 L89.17,10.44 L87.92,10.44 L87.92,9.81 L89.93,9.81 L89.93,12.24 C89.63,12.45 89.31,12.61 88.95,12.72 C88.6,12.82 88.22,12.87 87.81,12.87 C86.93,12.87 86.23,12.62 85.73,12.1 C85.24,11.58 84.99,10.86 84.99,9.94 C84.99,9.02 85.24,8.3 85.73,7.78 C86.23,7.26 86.93,7 87.81,7 C88.18,7 88.53,7.05 88.86,7.14 C89.19,7.23 89.5,7.37 89.78,7.54 L89.78,8.36 C89.5,8.12 89.2,7.94 88.88,7.82 C88.56,7.69 88.23,7.63 87.88,7.63 C87.18,7.63 86.66,7.83 86.31,8.21 C85.97,8.6 85.79,9.18 85.79,9.94 C85.79,10.7 85.97,11.28 86.31,11.67 C86.66,12.05 87.18,12.25 87.88,12.25 C88.15,12.25 88.39,12.22 88.6,12.18 C88.81,12.13 89,12.06 89.17,11.96 Z" fill="none" stroke="currentColor" stroke-width="1.5"/><rect x="0" y="0" width="0" height="0" fill="none" stroke="currentColor"/><path d="M117.75,31.61 L115.02,30.23 L117.8,28.83 M119.24,28.1 L122,26.71 L122,29.3 M122,31.06 L122,33.76 L119.24,32.37 M105.74,6.1 L105.74,3.84 C105.74,2.29 106.77,1.28 108.1,1.28 C109.26,1.28 110.39,2.39 110.37,3.84 L110.37,6.1 M97.61,0.1 L111.52,13.99 M91.81,6 L91.81,3.74 C91.81,2.19 92.83,1.18 94.16,1.18 C95.33,1.18 96.45,2.3 96.43,3.74 L96.43,6 M83.67,0 L97.59,13.89 M111.49,27.86 L83.67,27.86 M83.67,37.11 L111.49,37.11 M97.59,0 L97.59,37.11 M83.67,13.99 L83.67,18.48 M83.67,0 L111.52,0 L111.52,13.99 L83.67,13.99 Z M111.49,23.2 L125.57,23.2 L125.57,37.11 L111.49,37.11 Z M27.9,18.48 L83.67,18.48 L83.67,37.11 L27.9,37.11 Z M27.9,37.11 L0,37.11 L0,27.86 L27.85,27.86 M9.01,41.34 L5.4,24.98 M9.37,27.85 L4.67,37.17 M46.49,37.17 L46.49,18.48 M32.56,18.54 L39.64,32.86 M62.91,23.27 L57.94,23.27 M60.4,9.31 L60.4,23.27 M53.65,23.27 L48.68,23.27 M51.15,9.31 L51.15,23.27 M62.91,32.56 L57.94,32.56 M60.4,46.52 L60.4,32.56 M53.65,32.56 L48.68,32.56 M51.15,46.52 L51.15,32.56 M32.56,37.2 L39.64,22.88 M95.35,22.9 L94.32,27.89 L92.38,18.41 L90.45,27.89 L88.51,18.41 L86.58,27.89 L84.64,18.41 L83.66,23.28 M30.04,39.47 L81.35,39.47 M102.57,41.34 L106.17,24.98 M64.99,37.17 L64.99,18.48 M78.93,18.48 L78.94,32.15 M16.25,22.95 L17.28,27.94 L19.21,18.46 L21.15,27.94 L23.09,18.46 L25.02,27.94 L26.96,18.46 L27.94,23.34 M102.21,27.85 L106.91,37.17 M69.63,37.17 L69.64,23.42 M29.99,16.24 L81.55,16.24" fill="none" stroke="currentColor" stroke-width="1.5"/></svg>