<svg xmlns="http://www.w3.org/2000/svg" viewBox="0 0 78.47 37.33" width="24" height="24"><path d="M19.53,28 C19.53,29.24 18.52,30.25 17.27,30.25 C16.02,30.25 15.01,29.24 15.01,28 C15.01,26.75 16.02,25.74 17.27,25.74 C18.52,25.74 19.53,26.75 19.53,28 Z M27.87,0 L27.87,27.91 M37.14,23.24 L41.8,27.97 L37.14,32.7 M19.68,28 L55.86,28 M18.72,23.4 L14.07,28.02 L18.72,32.64 M0,28 L14.07,28 M9.36,18.79 L46.46,18.79 L46.46,37.33 L9.36,37.33 Z" fill="none" stroke="currentColor" stroke-width="1.5"/><rect x="0" y="0" width="0" height="0" fill="none" stroke="currentColor"/><path d="M28.61,28.02 Z" fill="none" stroke="currentColor" stroke-width="1.5"/><path d="M27.9,18.82 L37.13,9.45 L51.18,9.45 L51.18,23.45 L46.44,23.45" fill="none" stroke="currentColor" stroke-width="1.5"/><path d="M74.38,25.66 L78.47,28.13 L74.38,30.6 M65.03,27.78 L65.03,32.62 M69.74,23.43 L69.74,28.27 M60.47,28.27 L60.47,23.43 M55.67,23.41 L74.35,23.41 L74.35,32.64 L55.67,32.64 Z" fill="none" stroke="currentColor" stroke-width="1.5"/></svg>