<svg xmlns="http://www.w3.org/2000/svg" viewBox="0 0 125.57 46.52" width="24" height="24"><path d="M85.24,23.33 L82.08,23.33 L83.66,19.11 Z M94.54,32.23 L91.38,32.23 L92.96,36.46 Z M118.79,24.57 L121.87,25.26 L121.25,20.79 Z M52.4,22.12 L55.22,23.55 L55.72,19.07 Z M52.4,33.62 L55.22,32.19 L55.72,36.67 Z M20.95,24.57 L17.87,25.26 L18.48,20.79 Z M28,36.88 L36.16,32.52 L28,28.16 Z M111.3,36.88 L103.14,32.52 L111.3,28.16 Z" fill="none" stroke="currentColor" stroke-width="1.5"/><path d="M25.48,11.96 L25.48,10.44 L24.23,10.44 L24.23,9.81 L26.24,9.81 L26.24,12.24 L26.09,8.36 Z M103.06,11.96 L103.06,10.44 L101.81,10.44 L101.81,9.81 L103.82,9.81 L103.82,12.24 L103.67,8.36 Z" fill="none" stroke="currentColor" stroke-width="1.5"/><rect x="0" y="0" width="0" height="0" fill="none" stroke="currentColor"/><path d="M28,13.87 L28,28.16 M14.24,0 L28,0 L28,13.87 L14.24,13.87 Z M28,0 L14.24,13.87 M19.87,6 L19.87,3.74 C19.87,2.19 18.84,1.18 17.52,1.18 C16.35,1.18 15.22,2.3 15.24,3.74 L15.24,6 M44.07,16.24 L95.63,16.24 M83.71,37.17 L83.72,23.42 M116.29,27.85 L120.99,37.17 M30.33,22.95 L31.36,27.94 L33.29,18.46 L35.23,27.94 L37.17,18.46 L39.1,27.94 L41.04,18.46 L42.02,23.34 M93.01,18.48 L93.01,32.15 M79.07,37.17 L79.07,18.48 M116.65,41.34 L120.25,24.98 M44.12,39.47 L95.43,39.47 M109.43,22.9 L108.4,27.89 L106.46,18.41 L104.53,27.89 L102.59,18.41 L100.66,27.89 L98.72,18.41 L97.74,23.28 M46.64,37.2 L53.72,22.88 M65.23,46.52 L65.23,32.56 M67.73,32.56 L62.76,32.56 M74.48,46.52 L74.48,32.56 M76.99,32.56 L72.02,32.56 M65.23,9.31 L65.23,23.27 M67.73,23.27 L62.76,23.27 M74.48,9.31 L74.48,23.27 M76.99,23.27 L72.02,23.27 M46.64,18.54 L53.72,32.86 M60.57,37.17 L60.57,18.48 M23.45,27.85 L18.75,37.17 M23.09,41.34 L19.48,24.98 M41.98,37.11 L14.08,37.11 L14.08,27.86 L41.93,27.86 M41.98,18.48 L97.75,18.48 L97.75,37.11 L41.98,37.11 Z M14.08,23.2 L0,23.2 L0,37.11 L14.08,37.11 Z M97.75,0 L111.51,0 L111.51,13.87 L97.75,13.87 Z M97.75,13.99 L97.75,18.48 M97.75,37.11 L125.57,37.11 L125.57,27.86 L97.75,27.86 M97.75,0 L111.51,13.87 M105.88,6 L105.88,3.74 C105.88,2.19 106.91,1.18 108.24,1.18 C109.4,1.18 110.53,2.3 110.51,3.74 L110.51,6 M3.57,31.06 L3.57,33.76 L6.33,32.37 M6.33,28.1 L3.57,26.71 L3.57,29.3 M7.82,31.61 L10.55,30.23 L7.78,28.83" fill="none" stroke="currentColor" stroke-width="1.5"/></svg>