<svg xmlns="http://www.w3.org/2000/svg" viewBox="0 0 69.57 44.21" width="24" height="24"><path d="M33.68,6.98 L41.53,11.47 L33.68,15.9 Z M50.73,4.38 L47.88,3.72 L50.25,0 Z M33.51,25.64 L41.5,30.04 L33.51,34.43 Z M15.41,20.85 L12.48,20.85 L13.95,16.69 Z M50.73,23.35 L47.88,22.69 L50.25,18.97 Z" fill="none" stroke="currentColor" stroke-width="1.5"/><path d="M27.9,6.76 L41.83,6.76 L41.83,16.13 L27.9,16.13 Z M16.21,37.13 L18.6,34.68 M45.58,20.56 L49.31,3.96 M9.35,30.09 L5.72,30.09 M3.57,30.09 L0,30.09 L0,33.64 M41.71,44.21 L41.71,40.24 M0,40.34 L0,43.96 L3.58,43.96 M12.75,40.53 L15.13,38.15 M5.69,43.93 L9.28,43.93 L11.68,41.55 M18.61,34.68 L18.61,44.11 M41.84,25.38 L41.84,38.38 M45.58,39.53 L49.31,22.93 M46.29,25.38 L51,34.68 M41.84,10.81 L42.79,6.79 L44.7,16.15 L46.61,6.79 L48.52,16.15 L50.43,6.79 L52.34,16.15 L53.4,11.65 M18.61,16.13 L18.61,6.76 M13.96,34.68 L13.96,20.76 M55.64,34.68 L27.9,34.68 M27.9,25.38 L55.64,25.38 M9.35,16.13 L27.9,16.13 L27.9,34.68 L9.35,34.68 Z M55.64,20.74 L69.57,20.74 L69.57,34.68 L55.64,34.68 Z M0,38.31 L0,35.69 M61.92,29.18 L59.2,27.82 L61.96,26.44 M66.15,28.66 L66.15,31.28 L63.3,29.86 M63.36,25.74 L66.15,24.35 L66.15,26.96" fill="none" stroke="currentColor" stroke-width="1.5"/></svg>