<svg xmlns="http://www.w3.org/2000/svg" viewBox="0 0 81.17 37.5" width="24" height="24"><path d="M9.35,23.35 L5.71,23.35 M3.55,23.35 L0,23.35 L0,26.93 M0,28.93 L0,31.54 M0,33.66 L0,37.28 L3.56,37.28 M5.68,37.28 L9.26,37.28 L11.72,34.83 M12.61,33.94 L15.17,31.38 M16.14,30.41 L18.6,27.96" fill="none" stroke="currentColor" stroke-width="1.5"/><rect x="0" y="0" width="0" height="0" fill="none" stroke="currentColor"/><path d="M72.37,25.63 L72.37,24.11 L71.12,24.11 L71.12,23.48 L73.13,23.48 L73.13,25.91 C72.83,26.12 72.51,26.28 72.15,26.39 C71.79,26.49 71.41,26.55 71.01,26.55 C70.12,26.55 69.43,26.29 68.93,25.77 C68.43,25.25 68.19,24.53 68.19,23.61 C68.19,22.69 68.43,21.97 68.93,21.45 C69.43,20.93 70.12,20.68 71.01,20.68 C71.38,20.68 71.73,20.72 72.06,20.81 C72.39,20.9 72.7,21.04 72.98,21.21 L72.98,22.03 C72.7,21.79 72.4,21.61 72.08,21.49 C71.76,21.37 71.42,21.3 71.07,21.3 C70.38,21.3 69.86,21.5 69.51,21.88 C69.17,22.27 68.99,22.85 68.99,23.61 C68.99,24.38 69.17,24.95 69.51,25.34 C69.86,25.72 70.38,25.92 71.07,25.92 C71.34,25.92 71.58,25.89 71.8,25.85 C72.01,25.8 72.2,25.73 72.37,25.63 Z" fill="none" stroke="currentColor" stroke-width="1.5"/><rect x="0" y="0" width="0" height="0" fill="none" stroke="currentColor"/><path d="M33.5,19.03 L41.44,23.24 L33.5,27.67 Z M15.4,14.19 L12.47,14.19 L13.93,10.03 Z M63.61,15.59 L60.77,14.93 L63.13,11.21 Z" fill="none" stroke="currentColor" stroke-width="1.5"/><path d="M41.83,33.55 L41.83,37.5 M41.83,27.96 L41.83,31.65 M27.89,18.72 L41.83,18.72 L41.83,27.96 L27.89,27.96 M58.46,31.77 L62.19,15.17 M58.01,18.72 L62.71,27.96 M41.83,22.75 L42.78,18.73 L44.69,28.09 L46.6,18.73 L48.51,28.09 L50.41,18.73 L52.32,28.09 L53.39,23.59 M18.6,27.96 L18.6,37.41 M18.6,9.48 L18.6,0 M13.91,27.96 L13.91,14.1 M67.21,27.96 L53.39,27.96 L53.39,18.72 L67.21,18.72 M9.31,9.48 L27.89,9.48 L27.89,27.96 L9.31,27.96 Z M67.21,13.97 L81.17,13.97 L81.17,27.96 L67.21,27.96 Z M67.21,13.97 L81.17,27.96 M75.41,20.01 L75.41,17.75 C75.41,16.2 76.44,15.19 77.76,15.19 C78.93,15.19 80.05,16.31 80.04,17.75 L80.04,20.01" fill="none" stroke="currentColor" stroke-width="1.5"/></svg>