<svg xmlns="http://www.w3.org/2000/svg" viewBox="0 0 111.51 37.21" width="24" height="24"><path d="M49.43,20.79 C48.87,21.37 48.38,22.27 48.38,23.22 C48.38,24.24 48.94,25.05 49.35,25.56 M43.54,20.79 C44.09,21.37 44.59,22.27 44.59,23.22 C44.59,24.24 44.03,25.05 43.62,25.56 M40.11,20.79 C39.56,21.37 39.07,22.27 39.07,23.22 C39.07,24.24 39.63,25.05 40.04,25.56 M34.23,20.79 C34.78,21.37 35.28,22.27 35.28,23.22 C35.28,24.24 34.72,25.05 34.3,25.56 M49.43,11.52 C48.87,12.09 48.38,13 48.38,13.95 C48.38,14.97 48.94,15.78 49.35,16.29 M43.54,11.52 C44.09,12.09 44.59,13 44.59,13.95 C44.59,14.97 44.03,15.78 43.62,16.29 M40.11,11.52 C39.56,12.09 39.07,13 39.07,13.95 C39.07,14.97 39.63,15.78 40.04,16.29 M34.23,11.52 C34.78,12.09 35.28,13 35.28,13.95 C35.28,14.97 34.72,15.78 34.3,16.29 M51.04,9.26 L51.04,27.88 M13.91,27.88 L0,27.88 L0,18.56 L13.91,18.56 M32.53,9.26 L32.53,27.88 M37.12,18.54 L46.44,18.54 M69.48,18.59 L97.45,18.59 M97.45,27.88 L69.48,27.88 M69.48,9.26 L69.48,0 L83.56,0 L83.56,9.18 M69.48,2.34 L83.56,2.34 M46.44,2.08 L46.44,37.21 M91.68,18.59 L96.37,27.88 M103.69,22.36 L100.96,20.98 L103.73,19.58 M105.18,18.85 L107.94,17.46 L107.94,20.05 M107.94,21.81 L107.94,24.51 L105.18,23.11 M97.45,13.95 L111.51,13.95 L111.51,27.88 L97.45,27.88 Z M13.91,9.26 L69.48,9.26 L69.48,27.88 L13.91,27.88 Z M55.75,9.26 L62.83,23.6 M55.75,27.88 L62.83,13.63 M16.11,30.22 L67.42,30.22 M93.67,32.09 L90.06,15.73 M27.8,9.26 L27.8,22.9 M89.34,18.59 L84.64,27.88 M18.59,27.88 L18.59,14.16 M16.06,6.99 L67.62,6.99 M37.12,2.08 L37.12,37.21" fill="none" stroke="currentColor" stroke-width="1.5"/><rect x="0" y="0" width="0" height="0" fill="none" stroke="currentColor"/><path d="M47.21,18.54 Z M37.89,18.54 Z M85.18,9.28 L82.02,9.28 L83.6,13.5 Z M83.41,27.63 L75.25,23.27 L83.41,18.91 Z M61.51,24.37 L64.33,22.94 L64.83,27.42 Z M61.51,12.87 L64.33,14.3 L64.83,9.81 Z M91.53,15.32 L88.45,16.01 L89.06,11.54 Z M29.33,22.98 L26.17,22.98 L27.75,27.2 Z M20.11,14.08 L16.95,14.08 L18.53,9.86 Z M0.24,27.63 L8.4,23.27 L0.24,18.91 Z" fill="none" stroke="currentColor" stroke-width="1.5"/></svg>