<svg xmlns="http://www.w3.org/2000/svg" viewBox="0 0 67.36 37.41" width="24" height="24"><path d="M9.35,23.35 L5.71,23.35 M3.55,23.35 L0,23.35 L0,26.93 M0,28.93 L0,31.54 M0,33.66 L0,37.28 L3.56,37.28 M5.68,37.28 L9.26,37.28 L11.72,34.83 M12.61,33.94 L15.17,31.38 M16.14,30.41 L18.6,27.96" fill="none" stroke="currentColor" stroke-width="1.5"/><rect x="0" y="0" width="0" height="0" fill="none" stroke="currentColor"/><path d="M49.67,15.59 L46.82,14.93 L49.19,11.21 Z M15.4,14.19 L12.47,14.19 L13.93,10.03 Z" fill="none" stroke="currentColor" stroke-width="1.5"/><path d="M58.56,11.76 L58.56,10.24 L57.31,10.24 L57.31,9.61 L59.32,9.61 L59.32,12.04 L59.17,8.16 Z" fill="none" stroke="currentColor" stroke-width="1.5"/><rect x="0" y="0" width="0" height="0" fill="none" stroke="currentColor"/><path d="M59.53,22.48 L56.8,21.1 L59.57,19.7 M61.02,18.97 L63.77,17.58 L63.77,20.17 M63.77,21.93 L63.77,24.63 L61.02,23.24 M61.6,6.14 L61.6,3.88 C61.6,2.33 62.63,1.32 63.95,1.32 C65.12,1.32 66.24,2.43 66.23,3.88 L66.23,6.14 M53.33,0.1 L67.36,13.98 M53.33,0.1 L67.36,0.1 L67.36,28.01 L53.33,28.01 Z M53.33,13.98 L67.36,13.98 M9.31,9.45 L27.9,9.45 L27.9,27.96 L9.31,27.96 Z M53.33,28.01 L39.44,28.01 L39.44,18.71 L53.33,18.71 M13.91,27.95 L13.91,14.1 M18.6,9.5 L18.6,0 M18.6,27.96 L18.6,37.41 M27.88,22.75 L28.83,18.73 L30.74,28.09 L32.65,18.73 L34.56,28.09 L36.47,18.73 L38.38,28.09 L39.44,23.59 M44.07,18.74 L48.77,28.07 M44.52,31.77 L48.24,15.17" fill="none" stroke="currentColor" stroke-width="1.5"/></svg>