<svg xmlns="http://www.w3.org/2000/svg" viewBox="0 0 53.33 37.41" width="24" height="24"><path d="M9.35,23.35 L5.71,23.35 M3.55,23.35 L0,23.35 L0,26.93 M0,28.93 L0,31.54 M0,33.66 L0,37.28 L3.56,37.28 M5.68,37.28 L9.26,37.28 L11.72,34.83 M12.61,33.94 L15.17,31.38 M16.14,30.41 L18.6,27.96" fill="none" stroke="currentColor" stroke-width="1.5"/><path d="M44.52,31.77 L48.24,15.17 M44.07,18.74 L48.77,28.07 M27.88,22.75 L28.83,18.73 L30.74,28.09 L32.65,18.73 L34.56,28.09 L36.47,18.73 L38.38,28.09 L39.44,23.59 M18.6,27.96 L18.6,37.41 M18.6,9.5 L18.6,0 M13.91,27.95 L13.91,14.1 M39.44,18.71 L53.33,18.71 L53.33,28.01 L39.44,28.01 Z M9.31,9.45 L27.9,9.45 L27.9,27.96 L9.31,27.96 Z" fill="none" stroke="currentColor" stroke-width="1.5"/><rect x="0" y="0" width="0" height="0" fill="none" stroke="currentColor"/><path d="M49.67,15.59 L46.82,14.93 L49.19,11.21 Z M15.4,14.19 L12.47,14.19 L13.93,10.03 Z" fill="none" stroke="currentColor" stroke-width="1.5"/></svg>