<svg xmlns="http://www.w3.org/2000/svg" viewBox="0 0 28.05 46.64" width="24" height="24"><path d="M2.4,0 L6.86,1.38 L2.4,2.65 L6.86,3.92 L2.4,5.19 L6.86,6.46 L2.4,7.73 L6.86,9 L2.4,10.27 L6.88,11.63 M0,11.63 L18.56,11.63 M0,25.55 L18.54,25.55 M18.54,27.95 L28.05,27.95 M9.29,46.64 L9.29,37.22 M9.29,37.22 L0,27.95 L0,0.01 L18.56,0.01 L18.56,27.95 Z" fill="none" stroke="currentColor" stroke-width="1.5"/><rect x="0" y="0" width="0" height="0" fill="none" stroke="currentColor"/><path d="M2.03,25.57 L16.52,25.57 L16.52,30.09 L15.98,30.6 L2.52,30.6 L2.03,30.18 Z M21.97,23.44 L21.97,25.51 L23.2,25.51 C23.61,25.51 23.91,25.43 24.11,25.26 C24.31,25.09 24.41,24.82 24.41,24.47 C24.41,24.12 24.31,23.86 24.11,23.69 C23.91,23.52 23.61,23.44 23.2,23.44 Z M21.97,21.11 L21.97,22.82 L23.1,22.82 C23.48,22.82 23.75,22.75 23.94,22.61 C24.12,22.47 24.21,22.25 24.21,21.96 C24.21,21.68 24.12,21.47 23.94,21.32 C23.75,21.18 23.48,21.11 23.1,21.11 Z M21.2,20.48 L23.16,20.48 C23.74,20.48 24.19,20.6 24.51,20.85 C24.82,21.09 24.98,21.43 24.98,21.88 C24.98,22.23 24.9,22.5 24.74,22.71 C24.58,22.91 24.34,23.04 24.03,23.09 C24.4,23.17 24.7,23.34 24.9,23.6 C25.11,23.85 25.22,24.17 25.22,24.56 C25.22,25.06 25.05,25.45 24.7,25.73 C24.36,26 23.87,26.14 23.24,26.14 L21.2,26.14 Z M4.48,38.52 L3.44,41.33 L5.53,41.33 Z M4.05,37.76 L4.92,37.76 L7.08,43.42 L6.28,43.42 L5.76,41.97 L3.21,41.97 L2.7,43.42 L1.89,43.42 Z" fill="none" stroke="currentColor" stroke-width="1.5"/></svg>