<svg xmlns="http://www.w3.org/2000/svg" viewBox="0 0 30.2 55.47" width="24" height="24"><path d="M26.66,18.83 L24.17,17.3 L27.59,14.53 Z M21.69,14.16 L24.62,14.15 L23.13,10 Z M4.79,39.3 L7.64,38.64 L5.27,34.92 Z" fill="none" stroke="currentColor" stroke-width="1.5"/><path d="M30.2,18.63 L25.51,23.34 L30.2,28.02 M13.86,41.87 L0,41.87 L0,51.14 L13.86,51.14 L13.86,37.32 L25.44,17.98 M23.15,37.29 L23.15,14.15 M23.15,10.02 L23.15,0 M8.06,41.87 L12.76,51.14 M16.11,18.63 L20.8,23.34 L16.11,28.02 M9.94,55.47 L6.21,38.88 M5.8,41.87 L1.1,51.14" fill="none" stroke="currentColor" stroke-width="1.5"/></svg>