<svg xmlns="http://www.w3.org/2000/svg" viewBox="0 0 28.05 46.64" width="24" height="24"><path d="M9.29,37.22 L0,27.94 L0,0 L18.56,0 L18.56,27.94 Z M9.29,46.64 L9.29,37.22 M18.54,27.94 L28.05,27.94 M0,23.17 L18.54,23.17 M0,9.25 L18.56,9.25 M7.05,23.18 L11.51,24.55 L7.05,25.82 L11.51,27.09 L7.05,28.36 L11.51,29.63 L7.05,30.9 L11.51,32.17 L7.05,33.44 L11.6,34.86" fill="none" stroke="currentColor" stroke-width="1.5"/><rect x="0" y="0" width="0" height="0" fill="none" stroke="currentColor"/><path d="M21.97,23.43 L21.97,25.51 L23.2,25.51 Z M21.97,21.11 L21.97,22.81 L23.1,22.81 Z M21.2,20.48 L23.16,20.48 L21.2,26.14 Z M4.48,38.51 L3.44,41.33 L5.53,41.33 Z M4.05,37.76 L4.92,37.76 L7.08,43.42 L6.28,43.42 L5.76,41.96 L3.21,41.96 L2.7,43.42 L1.89,43.42 Z" fill="none" stroke="currentColor" stroke-width="1.5"/></svg>