<svg xmlns="http://www.w3.org/2000/svg" viewBox="0 0 90.65 46.72" width="24" height="24"><path d="M39.04,11.89 L39.04,10.37 L37.79,10.37 L37.79,9.74 L39.79,9.74 L39.79,12.17 C39.5,12.38 39.17,12.54 38.82,12.65 C38.46,12.75 38.08,12.81 37.68,12.81 C36.79,12.81 36.1,12.55 35.6,12.03 C35.1,11.52 34.85,10.8 34.85,9.87 C34.85,8.95 35.1,8.23 35.6,7.71 C36.1,7.2 36.79,6.94 37.68,6.94 C38.04,6.94 38.39,6.98 38.73,7.07 C39.06,7.17 39.37,7.3 39.65,7.48 L39.65,8.29 C39.36,8.05 39.06,7.87 38.74,7.75 C38.43,7.63 38.09,7.57 37.74,7.57 C37.05,7.57 36.53,7.76 36.18,8.15 C35.83,8.53 35.66,9.11 35.66,9.87 C35.66,10.64 35.83,11.21 36.18,11.6 C36.53,11.99 37.05,12.18 37.74,12.18 C38.01,12.18 38.25,12.16 38.46,12.11 C38.68,12.06 38.87,11.99 39.04,11.89 Z M25.19,11.87 L25.19,10.35 L23.94,10.35 L23.94,9.72 L25.94,9.72 L25.94,12.15 C25.65,12.36 25.32,12.52 24.97,12.63 C24.61,12.73 24.23,12.78 23.83,12.78 C22.94,12.78 22.25,12.53 21.75,12.01 C21.25,11.49 21,10.77 21,9.85 C21,8.93 21.25,8.21 21.75,7.69 C22.25,7.17 22.94,6.91 23.83,6.91 C24.2,6.91 24.55,6.96 24.88,7.05 C25.21,7.14 25.52,7.28 25.8,7.45 L25.8,8.27 C25.51,8.03 25.21,7.85 24.9,7.73 C24.58,7.6 24.24,7.54 23.89,7.54 C23.2,7.54 22.68,7.74 22.33,8.12 C21.98,8.51 21.81,9.09 21.81,9.85 C21.81,10.61 21.98,11.19 22.33,11.58 C22.68,11.96 23.2,12.16 23.89,12.16 C24.16,12.16 24.4,12.13 24.61,12.09 C24.83,12.04 25.02,11.97 25.19,11.87 Z" fill="none" stroke="currentColor" stroke-width="1.5"/><rect x="0" y="0" width="0" height="0" fill="none" stroke="currentColor"/><path d="M27.91,13.95 L27.91,27.94 M0,23.21 L13.94,23.21 L13.94,37.2 L0,37.2 Z M29.02,5.92 L29.02,3.66 C29.02,2.11 30.05,1.1 31.37,1.1 C32.54,1.1 33.66,2.22 33.65,3.66 L33.65,5.92 M41.8,0 L27.91,13.95 M60.42,37.2 L60.42,18.68 M41.89,18.68 L78.86,18.68 L78.86,37.2 L41.89,37.2 Z M13.94,27.94 L41.89,27.94 M41.89,37.2 L13.94,37.2 M44,16.31 L76.83,16.31 M76.73,39.5 L44,39.5 M78.86,32.96 L80.04,27.86 L81.95,37.22 L83.86,27.86 L85.77,37.22 L87.68,27.86 L89.58,37.22 L90.65,32.72 M23.23,27.94 L18.53,37.2 M22.82,40.91 L19.1,24.31 M67.17,32.59 L72.21,32.59 M69.65,32.69 L69.65,46.72 M69.65,9.21 L69.65,23.24 M67.15,23.32 L72.19,23.32 M51.14,37.2 L51.14,23.22 M6.32,28.33 L3.54,26.94 L3.54,29.55 M3.54,31.25 L3.54,33.87 L6.39,32.45 M7.76,31.77 L10.49,30.41 L7.72,29.03 M27.91,0 L27.91,13.95 M15.17,5.89 L15.17,3.64 C15.17,2.08 16.2,1.07 17.52,1.07 C18.69,1.07 19.81,2.19 19.8,3.64 L19.8,5.89 M27.91,0 L14.02,13.95 M14.02,0 L41.8,0 L41.8,13.95 L14.02,13.95 Z" fill="none" stroke="currentColor" stroke-width="1.5"/><rect x="0" y="0" width="0" height="0" fill="none" stroke="currentColor"/><path d="M27.9,36.92 L27.9,27.93 L36.04,32.43 Z M17.67,24.73 L20.52,24.07 L18.16,20.35 Z M52.6,23.31 L49.67,23.31 L51.14,19.15 Z" fill="none" stroke="currentColor" stroke-width="1.5"/></svg>