<svg xmlns="http://www.w3.org/2000/svg" viewBox="0 0 148.47 37.46" width="24" height="24"><path d="M24.79,10.38 C26.16,11.68 26.11,13.66 24.79,15.11 M30.57,10.38 C29.2,11.68 29.25,13.66 30.57,15.11 M27.68,17.33 C25.15,17.33 23.09,15.28 23.09,12.74 C23.09,10.21 25.15,8.15 27.68,8.15 C30.21,8.15 32.27,10.21 32.27,12.74 C32.27,15.28 30.21,17.33 27.68,17.33 Z M65,27.83 L0,27.83 L0,0.02 L148.47,0.02 L148.47,27.83 L83.34,27.83" fill="none" stroke="currentColor" stroke-width="1.5"/><rect x="0" y="0" width="0" height="0" fill="none" stroke="currentColor"/><path d="M134.79,35.79 L134.79,33.44 L132.65,30.24 L133.54,30.24 L134.64,31.91 L136.89,30.24 L137.74,30.24 L135.52,33.44 L135.52,35.79 Z M118.73,35.15 L118.73,35.8 L115.05,35.8 L115.18,31.83 Z M110.23,35.79 L110.23,35.11 L113.07,31.55 L110.55,30.89 L110.55,30.24 L114.53,30.24 L114.53,30.89 L111.41,34.75 L111.07,35.14 L114.62,35.14 L114.62,35.79 Z M25.91,35.8 L25.23,35.8 L25.23,31.46 L23.87,31.62 L25.91,30.23 Z M18.43,35.79 L18.43,35.11 L21.28,31.55 L18.76,30.89 L18.76,30.24 L22.73,30.24 L22.73,30.89 L19.62,34.75 L19.28,35.14 L22.83,35.14 L22.83,35.79 Z M2.87,30.19 L3.69,30.19 L5.1,32.29 L6.51,30.19 L7.33,30.19 L5.51,32.9 L7.45,35.84 L6.63,35.84 L5.04,33.44 L3.44,35.84 L2.61,35.84 L4.63,32.82 Z" fill="none" stroke="currentColor" stroke-width="1.5"/><rect x="0" y="0" width="0" height="0" fill="none" stroke="currentColor"/><path d="M120.69,37.46 L120.69,0 M139.14,37.46 L139.14,0 M27.68,37.46 L27.68,0 M9.12,37.46 L9.12,0 M27.74,20.79 L74.19,20.96 L74.1,28.29" fill="none" stroke="currentColor" stroke-width="1.5"/><rect x="0" y="0" width="0" height="0" fill="none" stroke="currentColor"/><path d="M28.39,20.79 Z" fill="none" stroke="currentColor" stroke-width="1.5"/></svg>