<svg xmlns="http://www.w3.org/2000/svg" viewBox="0 0 148.47 74.46" width="24" height="24"><path d="M2.43,66.7 L3.25,66.7 L4.66,68.8 L6.07,66.7 L6.89,66.7 L5.07,69.42 L7.01,72.36 L6.19,72.36 L4.6,69.95 L3,72.36 L2.17,72.36 L4.19,69.34 Z M17.67,72.31 L17.67,71.63 L20.52,68.07 L17.99,67.41 L17.99,66.75 L21.97,66.75 L21.97,67.41 L18.85,71.26 L18.51,71.65 L22.06,71.65 L22.06,72.31 Z M25.37,72.32 L24.69,72.32 L24.69,67.97 L23.32,68.14 L25.37,66.74 Z M110.58,72.31 L110.58,71.63 L113.42,68.07 L110.9,67.41 L110.9,66.75 L114.88,66.75 L114.88,67.41 L111.76,71.26 L111.42,71.65 L114.97,71.65 L114.97,72.31 Z M119.27,71.66 L119.27,72.32 L115.6,72.32 L115.73,68.35 Z" fill="none" stroke="currentColor" stroke-width="1.5"/><rect x="0" y="0" width="0" height="0" fill="none" stroke="currentColor"/><path d="M74.14,18.57 L74.14,65.29 M9.12,74.46 L9.12,18.57 L55.57,18.57 M27.78,74.46 L27.78,37.09 L102.25,37.09 L102.25,18.57 L92.9,18.57 M120.69,74.46 L120.69,13.92 L92.89,13.92" fill="none" stroke="currentColor" stroke-width="1.5"/><rect x="0" y="0" width="0" height="0" fill="none" stroke="currentColor"/><path d="M87.23,18.54 Z M55.57,18.58 L82.56,18.58 M83.55,23.26 L88.35,18.58 L83.55,13.74 M65.15,23.28 L60.34,18.56 L65.15,13.76 M55.74,9.2 L92.96,9.2 L92.96,27.84 L55.74,27.84 Z M65,64.84 L0,64.84 L0,0 L148.47,0 L148.47,64.84 L83.34,64.84 M74.31,60.24 C71.78,60.24 69.72,58.18 69.72,55.65 C69.72,53.11 71.78,51.06 74.31,51.06 C76.84,51.06 78.9,53.11 78.9,55.65 C78.9,58.18 76.84,60.24 74.31,60.24 Z M77.2,53.29 C75.83,54.59 75.88,56.56 77.2,58.02 M71.42,53.29 C72.79,54.59 72.74,56.56 71.42,58.02 M88.35,18.58 L92.9,18.58" fill="none" stroke="currentColor" stroke-width="1.5"/><rect x="0" y="0" width="0" height="0" fill="none" stroke="currentColor"/><path d="M74.94,18.57 Z" fill="none" stroke="currentColor" stroke-width="1.5"/></svg>