<svg xmlns="http://www.w3.org/2000/svg" viewBox="0 0 28.03 46.6" width="24" height="24"><path d="M21.49,19.44 L21.49,21.51 L22.72,21.51 C23.13,21.51 23.44,21.43 23.63,21.26 C23.83,21.09 23.93,20.83 23.93,20.47 C23.93,20.12 23.83,19.86 23.63,19.69 C23.44,19.52 23.13,19.44 22.72,19.44 Z M21.49,17.11 L21.49,18.82 L22.62,18.82 C23,18.82 23.28,18.75 23.46,18.61 C23.64,18.47 23.74,18.25 23.74,17.97 C23.74,17.68 23.64,17.47 23.46,17.33 C23.28,17.18 23,17.11 22.62,17.11 Z M20.73,16.48 L22.68,16.48 C23.27,16.48 23.71,16.61 24.03,16.85 C24.35,17.09 24.5,17.44 24.5,17.88 C24.5,18.23 24.42,18.5 24.26,18.71 C24.1,18.91 23.86,19.04 23.55,19.09 C23.93,19.17 24.22,19.34 24.42,19.6 C24.63,19.85 24.74,20.17 24.74,20.56 C24.74,21.06 24.57,21.45 24.22,21.73 C23.88,22 23.39,22.14 22.76,22.14 L20.73,22.14 Z M5.95,39.15 L4.92,41.97 L7,41.97 Z M5.52,38.4 L6.39,38.4 L8.55,44.05 L7.75,44.05 L7.24,42.6 L4.69,42.6 L4.17,44.05 L3.36,44.05 Z" fill="none" stroke="currentColor" stroke-width="1.5"/><rect x="0" y="0" width="0" height="0" fill="none" stroke="currentColor"/><path d="M10.96,9.28 C10.96,10.21 10.22,10.97 9.28,10.97 C8.34,10.97 7.57,10.21 7.57,9.28 C7.57,8.34 8.34,7.58 9.28,7.58 C10.22,7.58 10.96,8.34 10.96,9.28 Z M18.51,0 L18.51,37.26 L0,37.26 L0,0 Z M9.28,46.6 L9.28,37.26 M0,25.66 L18.51,25.66 M18.51,23.33 L28.03,23.33 M2.24,25.66 L6.7,27.02 L2.24,28.29 L6.7,29.56 L2.24,30.83 L6.7,32.1 L2.24,33.37 L6.7,34.64 L2.24,35.91 L6.72,37.26 M0,4.74 L18.51,4.74 M12.76,8.1 L9.28,11.72 L5.68,8.18 M9.28,4.74 L9.28,7.58 M9.28,25.66 L9.28,11.72 M18.51,21.02 L9.28,21.02 M6.38,12.82 C7.66,14.32 7.89,16.07 6.36,17.66 M12.2,12.82 C10.92,14.32 10.69,16.07 12.22,17.66" fill="none" stroke="currentColor" stroke-width="1.5"/><rect x="0" y="0" width="0" height="0" fill="none" stroke="currentColor"/><path d="M10.5,21.06 Z" fill="none" stroke="currentColor" stroke-width="1.5"/></svg>