<svg xmlns="http://www.w3.org/2000/svg" viewBox="0 0 28.06 46.6" width="24" height="24"><path d="M5.56,38.4 L6.43,38.4 L8.58,44.05 L7.79,44.05 L7.27,42.6 L4.72,42.6 L4.21,44.05 L3.4,44.05 Z M5.99,39.15 L4.95,41.97 L7.03,41.97 Z M20.61,21.12 L22.56,21.12 C23.15,21.12 23.6,21.24 23.91,21.48 C24.23,21.72 24.39,22.07 24.39,22.51 C24.39,22.86 24.31,23.14 24.14,23.34 C23.98,23.54 23.74,23.67 23.43,23.72 C23.81,23.8 24.1,23.97 24.31,24.23 C24.52,24.49 24.62,24.81 24.62,25.19 C24.62,25.69 24.45,26.09 24.11,26.36 C23.76,26.64 23.27,26.77 22.64,26.77 L20.61,26.77 Z M21.37,21.74 L21.37,23.45 L22.51,23.45 C22.88,23.45 23.16,23.38 23.34,23.24 C23.52,23.1 23.62,22.89 23.62,22.6 C23.62,22.31 23.52,22.1 23.34,21.96 C23.16,21.82 22.88,21.74 22.51,21.74 Z M21.37,24.07 L21.37,26.14 L22.6,26.14 C23.01,26.14 23.32,26.06 23.51,25.89 C23.71,25.72 23.81,25.46 23.81,25.11 C23.81,24.75 23.71,24.49 23.51,24.33 C23.32,24.16 23.01,24.07 22.6,24.07 Z" fill="none" stroke="currentColor" stroke-width="1.5"/><rect x="0" y="0" width="0" height="0" fill="none" stroke="currentColor"/><path d="M12.24,19.8 C10.95,21.31 10.73,23.05 12.26,24.65 M6.42,19.8 C7.7,21.31 7.93,23.05 6.4,24.65 M18.54,32.65 L0,32.65 M9.34,32.65 L9.34,18.71 M9.34,11.74 L9.34,14.57 M12.8,15.08 L9.34,18.71 L5.72,15.17 M0,11.74 L18.54,11.74 M2.27,0.17 L6.73,1.53 L2.27,2.8 L6.73,4.07 L2.27,5.34 L6.73,6.6 L2.27,7.87 L6.73,9.14 L2.27,10.41 L6.76,11.74 M9.34,28 L28.06,28 M0,25.66 L18.54,25.66 M9.34,46.6 L9.34,37.26 M18.54,0 L18.54,37.26 L0,37.26 L0,0 Z M11,16.26 C11,17.2 10.25,17.96 9.32,17.96 C8.38,17.96 7.61,17.2 7.61,16.26 C7.61,15.33 8.38,14.57 9.32,14.57 C10.25,14.57 11,15.33 11,16.26 Z" fill="none" stroke="currentColor" stroke-width="1.5"/><rect x="0" y="0" width="0" height="0" fill="none" stroke="currentColor"/><path d="M10.53,28.03 Z" fill="none" stroke="currentColor" stroke-width="1.5"/></svg>