<svg xmlns="http://www.w3.org/2000/svg" viewBox="0 0 37.18 53.69" width="24" height="24"><path d="M8.61,44.81 L9.48,44.81 L11.63,50.47 L10.84,50.47 L10.32,49.02 L7.77,49.02 L7.26,50.47 L6.45,50.47 Z M9.04,45.56 L8,48.38 L10.08,48.38 Z M25.76,27.53 L27.72,27.53 C28.3,27.53 28.75,27.65 29.07,27.89 C29.38,28.14 29.54,28.48 29.54,28.93 C29.54,29.27 29.46,29.55 29.3,29.75 C29.14,29.96 28.9,30.09 28.58,30.14 C28.96,30.22 29.25,30.39 29.46,30.64 C29.67,30.9 29.77,31.22 29.77,31.6 C29.77,32.11 29.6,32.5 29.26,32.77 C28.92,33.05 28.43,33.19 27.79,33.19 L25.76,33.19 Z M26.53,28.16 L26.53,29.86 L27.66,29.86 C28.03,29.86 28.31,29.79 28.49,29.66 C28.68,29.51 28.77,29.3 28.77,29.01 C28.77,28.73 28.68,28.51 28.49,28.37 C28.31,28.23 28.03,28.16 27.66,28.16 Z M26.53,30.49 L26.53,32.56 L27.75,32.56 C28.17,32.56 28.47,32.47 28.67,32.3 C28.87,32.13 28.97,31.87 28.97,31.52 C28.97,31.17 28.87,30.91 28.67,30.74 C28.47,30.57 28.17,30.49 27.75,30.49 Z" fill="none" stroke="currentColor" stroke-width="1.5"/><rect x="0" y="0" width="0" height="0" fill="none" stroke="currentColor"/><path d="M0,11.65 L27.79,11.65 M27.79,16.38 L0,16.38 M27.79,20.96 L37.18,20.96 M4.59,25.65 L0,25.65 L0,0 L27.79,0 L27.79,25.65 L23.11,25.65 M23.11,16.38 L23.11,35 L13.84,44.27 L4.59,35 L4.59,16.38 M13.84,53.69 L13.84,44.27 M4.59,35 L32.61,35 M2.25,0 L6.7,1.37 L2.25,2.64 L6.7,3.91 L2.25,5.18 L6.7,6.45 L2.25,7.72 L6.7,8.99 L2.25,10.26 L6.73,11.65" fill="none" stroke="currentColor" stroke-width="1.5"/></svg>