<svg xmlns="http://www.w3.org/2000/svg" viewBox="0 0 148.55 139.44" width="24" height="24"><path d="M88.26,106.68 L120.73,106.76 L120.73,9.33 L88.25,9.33 L88.25,18.59 M78.86,18.63 L78.86,9.33 L27.93,9.33 L27.92,74.28 L74.27,74.31 L74.28,85.86 M9.23,120.93 L9.23,46.34 L78.95,46.34 L78.95,37.18 M88.25,37.18 L88.25,46.34 L139.19,46.34 L139.19,120.94" fill="none" stroke="currentColor" stroke-width="1.5"/><rect x="0" y="0" width="0" height="0" fill="none" stroke="currentColor"/><path d="M83.24,44.46 L83.24,39.56 L81.41,39.56 L81.41,38.9 L85.82,38.9 L85.82,39.56 L83.98,39.56 L83.98,44.46 Z M72.22,44.47 L72.22,38.91 L74.32,38.91 C74.69,38.91 74.97,38.93 75.16,38.97 C75.44,39.01 75.66,39.1 75.85,39.23 C76.03,39.35 76.18,39.53 76.29,39.76 C76.41,39.99 76.46,40.25 76.46,40.52 C76.46,40.99 76.31,41.39 76.01,41.72 C75.71,42.05 75.17,42.21 74.38,42.21 L72.96,42.21 L72.96,44.47 Z M72.96,41.56 L74.39,41.56 C74.87,41.56 75.21,41.47 75.41,41.29 C75.61,41.11 75.7,40.86 75.7,40.54 C75.7,40.31 75.65,40.11 75.53,39.95 C75.41,39.78 75.26,39.67 75.06,39.62 C74.94,39.59 74.71,39.57 74.38,39.57 L72.96,39.57 Z M73.78,10.84 L74.65,10.84 L76.81,16.49 L76.01,16.49 L75.5,15.04 L72.95,15.04 L72.43,16.49 L71.62,16.49 Z M74.22,11.59 L73.18,14.41 L75.26,14.41 Z M81.56,10.92 L83.52,10.92 C84.1,10.92 84.55,11.05 84.87,11.29 C85.18,11.53 85.34,11.88 85.34,12.32 C85.34,12.67 85.26,12.94 85.1,13.15 C84.93,13.35 84.7,13.48 84.38,13.53 C84.76,13.61 85.05,13.78 85.26,14.04 C85.47,14.29 85.57,14.61 85.57,15 C85.57,15.5 85.4,15.89 85.06,16.17 C84.71,16.44 84.23,16.58 83.59,16.58 L81.56,16.58 Z M82.33,11.55 L82.33,13.26 L83.46,13.26 C83.83,13.26 84.11,13.19 84.29,13.05 C84.48,12.91 84.57,12.69 84.57,12.41 C84.57,12.12 84.48,11.91 84.29,11.77 C84.11,11.62 83.83,11.55 83.46,11.55 Z M82.33,13.88 L82.33,15.95 L83.55,15.95 C83.97,15.95 84.27,15.87 84.47,15.7 C84.67,15.53 84.77,15.27 84.77,14.92 C84.77,14.56 84.67,14.3 84.47,14.13 C84.27,13.97 83.97,13.88 83.55,13.88 Z M134.3,118.83 L134.3,116.48 L132.16,113.28 L133.05,113.28 L134.15,114.95 C134.35,115.27 134.54,115.58 134.71,115.89 C134.88,115.6 135.08,115.27 135.32,114.91 L136.39,113.28 L137.25,113.28 L135.03,116.48 L135.03,118.83 Z M2.46,113.21 L3.28,113.21 L4.69,115.31 L6.1,113.21 L6.93,113.21 L5.11,115.92 L7.05,118.87 L6.22,118.87 L4.63,116.46 L3.03,118.87 L2.2,118.87 L4.22,115.85 Z M69.09,130.57 L69.96,130.57 L72.12,136.22 L71.32,136.22 L70.8,134.77 L68.25,134.77 L67.74,136.22 L66.93,136.22 Z M69.52,131.32 L68.49,134.14 L70.57,134.14 Z M86.24,113.29 L88.2,113.29 C88.78,113.29 89.23,113.41 89.55,113.65 C89.86,113.89 90.02,114.24 90.02,114.68 C90.02,115.03 89.94,115.3 89.78,115.51 C89.62,115.71 89.38,115.84 89.07,115.89 C89.44,115.97 89.74,116.14 89.94,116.4 C90.15,116.66 90.26,116.97 90.26,117.36 C90.26,117.86 90.09,118.25 89.74,118.53 C89.4,118.81 88.91,118.94 88.28,118.94 L86.24,118.94 Z M87.01,113.91 L87.01,115.62 L88.14,115.62 C88.52,115.62 88.79,115.55 88.98,115.41 C89.16,115.27 89.25,115.05 89.25,114.77 C89.25,114.48 89.16,114.27 88.98,114.13 C88.79,113.98 88.52,113.91 88.14,113.91 Z M87.01,116.24 L87.01,118.31 L88.24,118.31 C88.65,118.31 88.95,118.23 89.15,118.06 C89.35,117.89 89.45,117.63 89.45,117.28 C89.45,116.92 89.35,116.66 89.15,116.49 C88.95,116.33 88.65,116.24 88.24,116.24 Z" fill="none" stroke="currentColor" stroke-width="1.5"/><rect x="0" y="0" width="0" height="0" fill="none" stroke="currentColor"/><path d="M86.85,32.32 L88.24,36.83 L89.63,32.33 Z M77.53,23.42 L78.9,18.91 L80.31,23.41 Z M65.92,33.22 L69.17,36.62 L68.4,31.98 Z M66.03,22.65 L69.29,19.24 L68.52,23.89 Z" fill="none" stroke="currentColor" stroke-width="1.5"/><path d="M60.39,111.38 L60.42,85.78 L88.25,85.84 L88.17,111.33 M60.38,97.41 L88.17,97.41 M62.53,85.83 L66.99,87.2 L62.53,88.47 L66.99,89.74 L62.53,91.01 L66.99,92.28 L62.53,93.55 L66.99,94.82 L62.53,96.09 L67.01,97.46 M60.35,102.13 L88.15,102.13 M65.04,118.36 L83.59,118.36 M83.59,120.75 L93.09,120.75 M74.33,139.44 L74.33,130.03 M83.59,102.14 L83.59,120.75 L74.33,130.03 L65.04,120.75 L65.04,102.14 M65.03,111.38 L0,111.38 L0,0 L148.55,0 L148.55,111.38 L83.58,111.38 M67.35,23.26 L60.31,37.18 M70.83,118.36 L77.77,118.36 L77.77,126.51 L77.25,127.02 L71.27,127.02 L70.83,126.6 Z M136.45,63.84 C137.83,65.14 137.77,67.12 136.45,68.57 M142.24,63.84 C140.86,65.14 140.91,67.12 142.24,68.57 M139.34,70.79 C136.81,70.79 134.76,68.74 134.76,66.2 C134.76,63.67 136.81,61.61 139.34,61.61 C141.88,61.61 143.93,63.67 143.93,66.2 C143.93,68.74 141.88,70.79 139.34,70.79 Z M24.93,63.84 C26.3,65.14 26.25,67.12 24.93,68.57 M30.71,63.84 C29.34,65.14 29.39,67.12 30.71,68.57 M27.82,70.79 C25.29,70.79 23.23,68.74 23.23,66.2 C23.23,63.67 25.29,61.61 27.82,61.61 C30.35,61.61 32.41,63.67 32.41,66.2 C32.41,68.74 30.35,70.79 27.82,70.79 Z M6.34,63.84 C7.72,65.14 7.66,67.12 6.34,68.57 M12.13,63.84 C10.75,65.14 10.8,67.12 12.13,68.57 M9.23,70.79 C6.7,70.79 4.65,68.74 4.65,66.2 C4.65,63.67 6.7,61.61 9.23,61.61 C11.77,61.61 13.82,63.67 13.82,66.2 C13.82,68.74 11.77,70.79 9.23,70.79 Z M92.87,32.39 L93.88,27.96 L95.8,37.22 L97.72,27.89 L99.65,37.17 L101.57,27.96 L103.5,37.19 L104.52,32.3 M55.71,18.59 L92.83,18.59 L92.83,37.18 L55.71,37.18 Z M67.23,32.61 L60.31,18.6 M78.95,23.37 L78.95,37.18 M88.25,32.37 L88.25,18.59 M74.34,18.59 L74.34,37.18 M0,55.59 L148.55,55.59 M55.71,37.18 L41.77,37.18 L41.77,27.91 L55.71,27.91 M46.37,37.18 L51.04,27.91" fill="none" stroke="currentColor" stroke-width="1.5"/></svg>