<svg xmlns="http://www.w3.org/2000/svg" viewBox="0 0 148.55 139.44" width="24" height="24"><path d="M74.28,92.85 L74.27,83.68 L27.92,83.68 M120.73,102.3 L120.73,9.33 L88.25,9.33 M27.93,102.3 L27.93,9.33 L78.83,9.33 M9.23,102.3 L9.23,46.34 L78.95,46.34 L78.95,37.18 M88.25,37.18 L88.25,46.34 L139.19,46.34 L139.19,102.3" fill="none" stroke="currentColor" stroke-width="1.5"/><rect x="0" y="0" width="0" height="0" fill="none" stroke="currentColor"/><path d="M87.01,116.24 L87.01,118.31 L88.24,118.31 C88.65,118.31 88.95,118.23 89.15,118.06 C89.35,117.89 89.45,117.63 89.45,117.28 C89.45,116.92 89.35,116.66 89.15,116.49 C88.95,116.33 88.65,116.24 88.24,116.24 Z M87.01,113.91 L87.01,115.62 L88.14,115.62 C88.52,115.62 88.79,115.55 88.98,115.41 C89.16,115.27 89.25,115.05 89.25,114.77 C89.25,114.48 89.16,114.27 88.98,114.13 C88.79,113.98 88.52,113.91 88.14,113.91 Z M86.24,113.29 L88.2,113.29 C88.78,113.29 89.23,113.41 89.55,113.65 C89.86,113.89 90.02,114.24 90.02,114.68 C90.02,115.03 89.94,115.3 89.78,115.51 C89.62,115.71 89.38,115.84 89.07,115.89 C89.44,115.97 89.74,116.14 89.94,116.4 C90.15,116.66 90.26,116.97 90.26,117.36 C90.26,117.86 90.09,118.25 89.74,118.53 C89.4,118.81 88.91,118.94 88.28,118.94 L86.24,118.94 Z M69.52,131.32 L68.49,134.14 L70.57,134.14 Z M69.09,130.57 L69.96,130.57 L72.12,136.22 L71.32,136.22 L70.8,134.77 L68.25,134.77 L67.74,136.22 L66.93,136.22 Z M2.46,94.72 L3.28,94.72 L4.69,96.82 L6.1,94.72 L6.93,94.72 L5.11,97.44 L7.05,100.38 L6.22,100.38 L4.63,97.97 L3.03,100.38 L2.2,100.38 L4.22,97.36 Z M18.71,100.23 L18.71,99.55 L21.56,95.99 C21.76,95.74 21.95,95.52 22.13,95.33 L19.03,95.33 L19.03,94.67 L23.01,94.67 L23.01,95.33 L19.89,99.18 L19.56,99.57 L23.1,99.57 L23.1,100.23 Z M26.38,100.2 L25.7,100.2 L25.7,95.85 C25.53,96.01 25.32,96.17 25.05,96.32 C24.78,96.48 24.54,96.6 24.33,96.67 L24.33,96.02 C24.71,95.84 25.05,95.62 25.33,95.36 C25.62,95.11 25.82,94.86 25.94,94.62 L26.38,94.62 Z M110.29,100.28 L110.29,99.6 L113.14,96.04 C113.34,95.79 113.53,95.57 113.71,95.38 L110.61,95.38 L110.61,94.73 L114.59,94.73 L114.59,95.38 L111.47,99.24 L111.13,99.63 L114.68,99.63 L114.68,100.28 Z M119.02,99.61 L119.02,100.26 L115.34,100.26 C115.34,100.1 115.36,99.94 115.42,99.79 C115.52,99.54 115.67,99.29 115.87,99.05 C116.08,98.81 116.38,98.53 116.76,98.21 C117.37,97.71 117.78,97.32 117.99,97.03 C118.2,96.74 118.31,96.47 118.31,96.21 C118.31,95.94 118.21,95.71 118.01,95.53 C117.82,95.34 117.57,95.25 117.26,95.25 C116.93,95.25 116.67,95.35 116.47,95.54 C116.28,95.74 116.18,96.01 116.17,96.36 L115.47,96.29 C115.52,95.77 115.7,95.37 116.01,95.1 C116.33,94.82 116.75,94.68 117.28,94.68 C117.81,94.68 118.23,94.83 118.54,95.13 C118.85,95.42 119.01,95.79 119.01,96.23 C119.01,96.45 118.96,96.67 118.87,96.88 C118.78,97.1 118.63,97.32 118.42,97.56 C118.21,97.8 117.86,98.12 117.37,98.54 C116.96,98.88 116.69,99.11 116.58,99.24 C116.46,99.36 116.37,99.48 116.29,99.61 Z M134.25,100.26 L134.25,97.9 L132.11,94.7 L133.01,94.7 L134.1,96.37 C134.3,96.69 134.49,97 134.67,97.31 C134.83,97.02 135.04,96.7 135.27,96.33 L136.35,94.7 L137.21,94.7 L134.99,97.9 L134.99,100.26 Z M82.33,13.88 L82.33,15.95 L83.55,15.95 C83.97,15.95 84.27,15.87 84.47,15.7 C84.67,15.53 84.77,15.27 84.77,14.92 C84.77,14.56 84.67,14.3 84.47,14.13 C84.27,13.97 83.97,13.88 83.55,13.88 Z M82.33,11.55 L82.33,13.26 L83.46,13.26 C83.83,13.26 84.11,13.19 84.29,13.05 C84.48,12.91 84.57,12.69 84.57,12.41 C84.57,12.12 84.48,11.91 84.29,11.77 C84.11,11.62 83.83,11.55 83.46,11.55 Z M81.56,10.92 L83.52,10.92 C84.1,10.92 84.55,11.05 84.87,11.29 C85.18,11.53 85.34,11.88 85.34,12.32 C85.34,12.67 85.26,12.94 85.1,13.15 C84.93,13.35 84.7,13.48 84.38,13.53 C84.76,13.61 85.05,13.78 85.26,14.04 C85.47,14.29 85.57,14.61 85.57,15 C85.57,15.5 85.4,15.89 85.06,16.17 C84.71,16.44 84.23,16.58 83.59,16.58 L81.56,16.58 Z M74.22,11.59 L73.18,14.41 L75.26,14.41 Z M73.78,10.84 L74.65,10.84 L76.81,16.49 L76.01,16.49 L75.5,15.04 L72.95,15.04 L72.43,16.49 L71.62,16.49 Z M72.96,41.56 L74.39,41.56 C74.87,41.56 75.21,41.47 75.41,41.29 C75.61,41.11 75.7,40.86 75.7,40.54 C75.7,40.31 75.65,40.11 75.53,39.95 C75.41,39.78 75.26,39.67 75.06,39.62 C74.94,39.59 74.71,39.57 74.38,39.57 L72.96,39.57 Z M72.22,44.47 L72.22,38.91 L74.32,38.91 C74.69,38.91 74.97,38.93 75.16,38.97 C75.44,39.01 75.66,39.1 75.85,39.23 C76.03,39.35 76.18,39.53 76.29,39.76 C76.41,39.99 76.46,40.25 76.46,40.52 C76.46,40.99 76.31,41.39 76.01,41.72 C75.71,42.05 75.17,42.21 74.38,42.21 L72.96,42.21 L72.96,44.47 Z M83.24,44.46 L83.24,39.56 L81.41,39.56 L81.41,38.9 L85.82,38.9 L85.82,39.56 L83.98,39.56 L83.98,44.46 Z" fill="none" stroke="currentColor" stroke-width="1.5"/><rect x="0" y="0" width="0" height="0" fill="none" stroke="currentColor"/><path d="M66.38,22.55 L69.64,19.14 L68.87,23.79 Z M65.79,33.19 L69.05,36.59 L68.28,31.94 Z M77.53,23.61 L78.9,19.1 L80.31,23.6 Z M86.85,32.02 L88.24,36.53 L89.63,32.03 Z" fill="none" stroke="currentColor" stroke-width="1.5"/><path d="M46.37,37.18 L51.04,27.91 M55.71,37.18 L41.77,37.18 L41.77,27.91 L55.71,27.91 M0,55.59 L148.55,55.59 M74.34,18.59 L74.34,37.18 M88.25,31.99 L88.25,18.59 L88.25,9.33 M78.95,23.6 L78.95,37.18 M67.11,32.58 L60.31,18.6 M55.71,18.59 L92.83,18.59 L92.83,37.18 L55.71,37.18 Z M92.87,32.39 L93.88,27.96 L95.8,37.22 L97.72,27.89 L99.65,37.17 L101.57,27.96 L103.5,37.19 L104.52,32.3 M9.23,70.79 C6.7,70.79 4.65,68.74 4.65,66.2 C4.65,63.67 6.7,61.61 9.23,61.61 C11.77,61.61 13.82,63.67 13.82,66.2 C13.82,68.74 11.77,70.79 9.23,70.79 Z M12.13,63.84 C10.75,65.14 10.8,67.12 12.13,68.57 M6.34,63.84 C7.72,65.14 7.66,67.12 6.34,68.57 M27.82,70.79 C25.29,70.79 23.23,68.74 23.23,66.2 C23.23,63.67 25.29,61.61 27.82,61.61 C30.35,61.61 32.41,63.67 32.41,66.2 C32.41,68.74 30.35,70.79 27.82,70.79 Z M30.71,63.84 C29.34,65.14 29.39,67.12 30.71,68.57 M24.93,63.84 C26.3,65.14 26.25,67.12 24.93,68.57 M139.34,70.79 C136.81,70.79 134.76,68.74 134.76,66.2 C134.76,63.67 136.81,61.61 139.34,61.61 C141.88,61.61 143.93,63.67 143.93,66.2 C143.93,68.74 141.88,70.79 139.34,70.79 Z M142.24,63.84 C140.86,65.14 140.91,67.12 142.24,68.57 M136.45,63.84 C137.83,65.14 137.77,67.12 136.45,68.57 M70.83,118.36 L77.77,118.36 L77.77,126.51 L77.25,127.02 L71.27,127.02 L70.83,126.6 Z M67.7,23.16 L60.31,37.18 M148.55,92.85 L0,92.85 L0,0 L148.55,0 Z M78.95,18.59 L78.95,9.33 M83.59,92.85 L83.59,120.75 L74.33,130.03 L65.04,120.75 L65.04,92.85 M74.33,139.44 L74.33,130.03 M83.59,120.75 L93.09,120.75 M65.04,118.36 L83.59,118.36 M65.04,104.43 L83.59,104.43 M67.44,92.8 L71.9,94.18 L67.44,95.45 L71.9,96.72 L67.44,97.99 L71.9,99.26 L67.44,100.53 L71.9,101.8 L67.44,103.07 L71.92,104.44" fill="none" stroke="currentColor" stroke-width="1.5"/><rect x="0" y="0" width="0" height="0" fill="none" stroke="currentColor"/><path d="M28.63,83.76 C28.63,84.14 28.32,84.45 27.94,84.45 C27.55,84.45 27.24,84.14 27.24,83.76 C27.24,83.37 27.55,83.06 27.94,83.06 C28.32,83.06 28.63,83.37 28.63,83.76 Z" fill="none" stroke="currentColor" stroke-width="1.5"/></svg>