<svg xmlns="http://www.w3.org/2000/svg" viewBox="0 0 148.47 74.46" width="24" height="24"><path d="M2.43,66.6 L3.25,66.6 L4.66,68.7 L6.07,66.6 L6.89,66.6 L5.07,69.32 L7.01,72.26 L6.19,72.26 L4.6,69.85 L3,72.26 L2.17,72.26 L4.19,69.24 Z M18.68,72.21 L18.68,71.53 L21.53,67.97 C21.73,67.71 21.92,67.49 22.11,67.31 L19.01,67.31 L19.01,66.65 L22.98,66.65 L22.98,67.31 L19.87,71.16 L19.53,71.55 L23.08,71.55 L23.08,72.21 Z M26.38,72.22 L25.7,72.22 L25.7,67.87 C25.54,68.03 25.32,68.19 25.05,68.34 C24.79,68.5 24.55,68.62 24.34,68.69 L24.34,68.03 C24.72,67.86 25.05,67.64 25.34,67.38 C25.62,67.13 25.82,66.88 25.94,66.64 L26.38,66.64 Z M132.37,66.6 L133.19,66.6 L134.76,68.93 L136.32,66.6 L137.14,66.6 L135.14,69.56 L135.14,72.26 L134.37,72.26 L134.37,69.56 Z" fill="none" stroke="currentColor" stroke-width="1.5"/><rect x="0" y="0" width="0" height="0" fill="none" stroke="currentColor"/><path d="M46.49,18.46 L55.84,18.46 L55.84,36.93 M139.49,74.46 L139.49,36.91 L120.7,36.91 M102.08,36.86 L92.79,27.59 L92.79,18.37 L106.74,18.37 L106.74,27.53 M9.27,74.46 L9.27,18.41 L18.65,18.41 M74.14,36.82 L74.14,65.29 M27.78,74.46 L27.78,37.01 L102.08,36.89" fill="none" stroke="currentColor" stroke-width="1.5"/><rect x="0" y="0" width="0" height="0" fill="none" stroke="currentColor"/><path d="M41.84,20.04 L41.84,16.89 L46.49,18.46 Z M56.61,36.99 C56.61,37.41 56.27,37.75 55.85,37.75 C55.43,37.75 55.09,37.41 55.09,36.99 C55.09,36.57 55.43,36.23 55.85,36.23 C56.27,36.23 56.61,36.57 56.61,36.99 Z M114.48,55.29 L115.17,52.22 L119.36,54.77 Z M115.34,33.76 L115.34,30.62 L119.99,32.19 Z M74.93,36.84 C74.93,37.26 74.58,37.6 74.16,37.6 C73.75,37.6 73.4,37.26 73.4,36.84 C73.4,36.42 73.75,36.08 74.16,36.08 C74.58,36.08 74.93,36.42 74.93,36.84 Z" fill="none" stroke="currentColor" stroke-width="1.5"/><path d="M23.25,23.6 C27.09,19.87 33.46,19.87 37.37,23.6 M23.25,13.25 C27.09,16.99 33.46,16.98 37.37,13.25 M18.65,18.46 L41.92,18.46 M18.67,9.14 L46.58,9.14 L46.58,27.79 L18.67,27.79 Z M102.1,32.19 L115.33,32.19 M102.1,27.54 L120.68,27.54 L120.68,46.22 L102.1,46.22 Z M65,64.84 L0,64.84 L0,0 L148.47,0 L148.47,64.84 L83.34,64.84 M106.89,46.22 L111.38,47.15 L102.06,49.1 L111.38,51.05 L102.06,53 L111.38,54.95 L102.06,56.9 L106.94,57.91 M98.34,50.04 L114.91,53.78" fill="none" stroke="currentColor" stroke-width="1.5"/></svg>