<svg xmlns="http://www.w3.org/2000/svg" viewBox="0 0 177.75 94.56" width="24" height="24"><path d="M0.01,28.96 L88.28,29.13 L88.19,48.39 M168.25,8.49 L168.25,20.12" fill="none" stroke="currentColor" stroke-width="1.5"/><rect x="0" y="0" width="0" height="0" fill="none" stroke="currentColor"/><path d="M81.59,47.92 L86.05,49.3 L81.59,50.57 L86.05,51.84 L81.59,53.11 L86.05,54.38 L81.59,55.65 L86.05,56.92 L81.59,58.19 L86.08,59.56 M79.19,59.55 L97.75,59.55 M79.19,73.47 L97.73,73.47 M97.73,75.87 L107.25,75.87 M88.48,94.56 L88.48,85.15 M97.75,47.93 L97.75,75.87 L88.48,85.15 L79.19,75.87 L79.19,47.93 M23.21,57.56 L23.21,28.96 M85.49,36.57 C86.87,37.87 86.82,39.84 85.49,41.3 M91.28,36.57 C89.9,37.87 89.95,39.84 91.28,41.3 M88.39,43.51 C85.85,43.51 83.8,41.46 83.8,38.93 C83.8,36.39 85.85,34.34 88.39,34.34 C90.92,34.34 92.97,36.39 92.97,38.93 C92.97,41.46 90.92,43.51 88.39,43.51 Z M162.56,20.12 L162.56,47.94 L14.09,47.94 L14.09,20.12 L171.92,20.12 M0,26.61 L0,31.65 M165.8,8.49 L177.75,8.49 M172.94,14.46 L175.99,4.97 M170.64,8.49 L170.64,20.12" fill="none" stroke="currentColor" stroke-width="1.5"/><rect x="0" y="0" width="0" height="0" fill="none" stroke="currentColor"/><path d="M84.78,73.49 L92.18,73.49 L92.18,81.39 L91.65,81.89 L85.2,81.89 L84.78,81.47 Z" fill="none" stroke="currentColor" stroke-width="1.5"/><path d="M17.05,49.64 L17.87,49.64 L19.28,51.75 L20.69,49.64 L21.52,49.64 L19.7,52.36 L21.64,55.3 L20.81,55.3 L19.22,52.9 L17.62,55.3 L16.79,55.3 L18.81,52.28 Z M5.43,22.25 L6.26,22.25 L7.66,24.35 L9.08,22.25 L9.9,22.25 L8.08,24.96 L10.02,27.9 L9.2,27.9 L7.61,25.5 L6,27.9 L5.18,27.9 L7.2,24.88 Z M83.24,85.69 L84.11,85.69 L86.27,91.34 L85.47,91.34 L84.96,89.89 L82.41,89.89 L81.89,91.34 L81.08,91.34 Z M100.4,68.41 L102.35,68.41 C102.94,68.41 103.39,68.53 103.7,68.77 C104.02,69.01 104.18,69.36 104.18,69.8 C104.18,70.15 104.09,70.43 103.93,70.63 C103.77,70.83 103.53,70.96 103.22,71.01 C103.6,71.09 103.89,71.26 104.1,71.52 C104.31,71.78 104.41,72.1 104.41,72.48 C104.41,72.98 104.24,73.38 103.89,73.65 C103.55,73.93 103.06,74.06 102.43,74.06 L100.4,74.06 Z M101.16,69.03 L101.16,70.74 L102.3,70.74 C102.67,70.74 102.95,70.67 103.13,70.53 C103.31,70.39 103.41,70.18 103.41,69.89 C103.41,69.6 103.31,69.39 103.13,69.25 C102.95,69.11 102.67,69.03 102.3,69.03 Z M101.16,71.36 L101.16,73.43 L102.39,73.43 C102.8,73.43 103.11,73.35 103.3,73.18 C103.5,73.01 103.6,72.75 103.6,72.4 C103.6,72.04 103.5,71.78 103.3,71.62 C103.11,71.45 102.8,71.36 102.39,71.36 Z M83.68,86.44 L82.64,89.26 L84.72,89.26 Z" fill="none" stroke="currentColor" stroke-width="1.5"/><rect x="0" y="0" width="0" height="0" fill="none" stroke="currentColor"/><path d="M174.46,4.48 L177.6,0 L177.53,5.47 Z" fill="none" stroke="currentColor" stroke-width="1.5"/><path d="M23.88,29.03 Z" fill="none" stroke="currentColor" stroke-width="1.5"/></svg>