<svg xmlns="http://www.w3.org/2000/svg" viewBox="0 0 148.47 65.4" width="24" height="24"><path d="M27.78,65.4 L27.78,27.82 M74.14,27.75 L74.14,56.22 M9.27,65.4 L9.27,27.85 L106.82,27.85 M106.82,27.79 L97.53,18.53 L97.53,9.31 L111.48,9.31 L111.48,18.46 M139.49,65.4 L139.49,27.85 L125.36,27.85" fill="none" stroke="currentColor" stroke-width="1.5"/><rect x="0" y="0" width="0" height="0" fill="none" stroke="currentColor"/><path d="M2.43,57.53 L3.25,57.53 L4.66,59.64 L6.07,57.53 L6.89,57.53 L5.07,60.25 L7.01,63.19 L6.19,63.19 L4.6,60.79 L3,63.19 L2.17,63.19 L4.19,60.17 Z M18.68,63.14 L18.68,62.46 L21.53,58.9 C21.73,58.65 21.92,58.43 22.11,58.24 L19.01,58.24 L19.01,57.59 L22.98,57.59 L22.98,58.24 L19.87,62.09 L19.53,62.49 L23.08,62.49 L23.08,63.14 Z M26.38,63.15 L25.7,63.15 L25.7,58.81 C25.54,58.96 25.32,59.12 25.05,59.28 C24.79,59.43 24.55,59.55 24.34,59.63 L24.34,58.97 C24.72,58.79 25.05,58.57 25.34,58.32 C25.62,58.06 25.82,57.81 25.94,57.57 L26.38,57.57 Z M132.37,57.53 L133.19,57.53 L134.76,59.86 L136.32,57.53 L137.14,57.53 L135.14,60.5 L135.14,63.19 L134.37,63.19 L134.37,60.5 Z" fill="none" stroke="currentColor" stroke-width="1.5"/><rect x="0" y="0" width="0" height="0" fill="none" stroke="currentColor"/><path d="M119.2,46.23 L119.89,43.16 L124.08,45.71 Z M120.09,24.7 L120.09,21.55 L124.73,23.12 Z M28.61,27.79 C28.61,28.21 28.27,28.55 27.85,28.55 C27.43,28.55 27.09,28.21 27.09,27.79 C27.09,27.37 27.43,27.03 27.85,27.03 C28.27,27.03 28.61,27.37 28.61,27.79 Z M74.93,27.77 C74.93,28.19 74.58,28.53 74.16,28.53 C73.75,28.53 73.4,28.19 73.4,27.77 C73.4,27.35 73.75,27.01 74.16,27.01 C74.58,27.01 74.93,27.35 74.93,27.77 Z" fill="none" stroke="currentColor" stroke-width="1.5"/><path d="M111.61,37.12 L116.1,38.09 L106.78,40.04 L116.1,41.99 L106.78,43.94 L116.1,45.88 L106.78,47.83 L111.66,48.84 M103.06,40.98 L119.63,44.71 M106.82,23.12 L120.08,23.12 M106.82,18.46 L125.36,18.46 L125.36,37.18 L106.82,37.18 Z M65,55.77 L0,55.77 L0,0 L148.47,0 L148.47,55.77 L83.34,55.77 M74.31,51.17 C71.78,51.17 69.72,49.12 69.72,46.58 C69.72,44.05 71.78,41.99 74.31,41.99 C76.84,41.99 78.9,44.05 78.9,46.58 C78.9,49.12 76.84,51.17 74.31,51.17 Z M77.2,44.22 C75.83,45.52 75.88,47.5 77.2,48.95 M71.42,44.22 C72.79,45.52 72.74,47.5 71.42,48.95 M9.27,51.03 C6.74,51.03 4.68,48.98 4.68,46.44 C4.68,43.91 6.74,41.86 9.27,41.86 C11.8,41.86 13.86,43.91 13.86,46.44 C13.86,48.98 11.8,51.03 9.27,51.03 Z M12.16,44.09 C10.79,45.38 10.84,47.36 12.16,48.82 M6.38,44.09 C7.75,45.38 7.7,47.36 6.38,48.82" fill="none" stroke="currentColor" stroke-width="1.5"/></svg>