<svg xmlns="http://www.w3.org/2000/svg" viewBox="0 0 148.69 130.29" width="24" height="24"><path d="M129,37.14 L139.39,37.14 L139.39,83.89 M74.41,37.28 L74.41,74.35 M110.4,37.19 L101.07,27.84 L101.07,18.56 L115.05,18.56 L115.05,27.88 M74.41,120.85 L9.4,120.78 L9.4,37.26 L110.37,37.26" fill="none" stroke="currentColor" stroke-width="1.5"/><rect x="0" y="0" width="0" height="0" fill="none" stroke="currentColor"/><path d="M2.53,76.17 L3.35,76.17 L4.76,78.27 L6.17,76.17 L6.99,76.17 L5.17,78.89 L7.11,81.83 L6.29,81.83 L4.7,79.42 L3.1,81.83 L2.27,81.83 L4.29,78.81 Z M66.84,113.19 L67.71,113.19 L69.86,118.84 L69.07,118.84 L68.55,117.39 L66,117.39 L65.48,118.84 L64.68,118.84 Z M67.27,113.94 L66.23,116.76 L68.31,116.76 Z M86.1,94.69 L88.06,94.69 C88.64,94.69 89.09,94.81 89.41,95.05 C89.72,95.3 89.88,95.64 89.88,96.09 C89.88,96.44 89.8,96.71 89.64,96.92 C89.48,97.12 89.24,97.25 88.93,97.3 C89.3,97.38 89.59,97.55 89.8,97.81 C90.01,98.06 90.12,98.38 90.12,98.76 C90.12,99.27 89.94,99.66 89.6,99.94 C89.26,100.21 88.77,100.35 88.13,100.35 L86.1,100.35 Z M86.87,95.32 L86.87,97.03 L88,97.03 C88.38,97.03 88.65,96.96 88.83,96.82 C89.02,96.68 89.11,96.46 89.11,96.17 C89.11,95.89 89.02,95.67 88.83,95.53 C88.65,95.39 88.38,95.32 88,95.32 Z M86.87,97.65 L86.87,99.72 L88.1,99.72 C88.51,99.72 88.81,99.63 89.01,99.47 C89.21,99.29 89.31,99.03 89.31,98.68 C89.31,98.33 89.21,98.07 89.01,97.9 C88.81,97.73 88.51,97.65 88.1,97.65 Z M134.5,81.83 L134.5,79.48 L132.36,76.28 L133.25,76.28 L134.35,77.95 C134.55,78.27 134.74,78.58 134.91,78.89 C135.08,78.6 135.28,78.28 135.52,77.91 L136.59,76.28 L137.45,76.28 L135.23,79.48 L135.23,81.83 Z" fill="none" stroke="currentColor" stroke-width="1.5"/><rect x="0" y="0" width="0" height="0" fill="none" stroke="currentColor"/><path d="M77.18,54.59 C75.79,56.23 75.89,57.85 77.18,59.4 M71.38,54.59 C72.76,56.23 72.67,57.85 71.38,59.4 M78.87,56.99 C78.87,59.53 76.81,61.58 74.27,61.58 C71.74,61.58 69.68,59.53 69.68,56.99 C69.68,54.45 71.74,52.4 74.27,52.4 C76.81,52.4 78.87,54.45 78.87,56.99 Z M12.08,54.59 C10.7,56.23 10.8,57.85 12.08,59.4 M6.29,54.59 C7.67,56.23 7.57,57.85 6.29,59.4 M13.77,56.99 C13.77,59.53 11.71,61.58 9.18,61.58 C6.64,61.58 4.58,59.53 4.58,56.99 C4.58,54.45 6.64,52.4 9.18,52.4 C11.71,52.4 13.77,54.45 13.77,56.99 Z M67.51,74.35 L71.96,75.78 L67.51,77.05 L71.96,78.32 L67.51,79.59 L71.96,80.86 L67.51,82.13 L71.96,83.4 L67.51,84.67 L71.99,86 M65.12,86 L83.75,86 M65.05,102.14 L93.01,102.14 M74.41,130.29 L74.41,111.46 M83.75,74.35 L83.75,111.46 L65.12,111.46 L65.12,74.35 M0,74.35 L0,0 L148.69,0 L148.69,74.35 Z M123.82,32.56 L110.4,32.56 M115.21,46.48 L119.64,47.47 L110.38,49.39 L119.71,51.32 L110.43,53.24 L119.64,55.16 L110.41,57.09 L115.3,58.12 M123.02,54.04 L106.69,50.4 M110.4,27.88 L129,27.88 L129,46.48 L110.4,46.48 Z M65.12,106.81 L83.75,106.81 M74.41,106.81 L74.41,102.11" fill="none" stroke="currentColor" stroke-width="1.5"/><rect x="0" y="0" width="0" height="0" fill="none" stroke="currentColor"/><path d="M75.12,120.86 C75.12,121.26 74.79,121.59 74.38,121.59 C73.98,121.59 73.65,121.26 73.65,120.86 C73.65,120.45 73.98,120.12 74.38,120.12 C74.79,120.12 75.12,120.45 75.12,120.86 Z M75.14,37.13 C75.14,37.53 74.81,37.86 74.4,37.86 C74,37.86 73.67,37.53 73.67,37.13 C73.67,36.72 74,36.39 74.4,36.39 C74.81,36.39 75.14,36.72 75.14,37.13 Z M75.14,102.12 C75.14,102.52 74.81,102.85 74.41,102.85 C74,102.85 73.67,102.52 73.67,102.12 C73.67,101.71 74,101.38 74.41,101.38 C74.81,101.38 75.14,101.71 75.14,102.12 Z M122.72,55.51 L127.42,55.17 L123.34,52.8 Z M123.83,31.17 L128.33,32.56 L123.83,33.95 Z" fill="none" stroke="currentColor" stroke-width="1.5"/></svg>