<svg xmlns="http://www.w3.org/2000/svg" viewBox="0 0 48.85 46.97" width="24" height="24"><path d="M14.09,25.8 L0,25.8 L0,21.13 L14.04,21.13 M47.3,18.59 C48.11,22.01 48.19,25.46 47.28,28.49 M27.72,46.97 L27.72,37.43 M27.72,0 L27.72,9.61 M41.61,23.5 Z M45.21,5.96 L6.58,44.61" fill="none" stroke="currentColor" stroke-width="1.5"/><path d="M37.54,33.17 L46.38,42.11 L46.38,46.86" fill="none" stroke="currentColor" stroke-width="1.5"/><rect x="0" y="0" width="0" height="0" fill="none" stroke="currentColor"/><path d="M27.76,37.4 C26.99,37.4 26.13,37.34 25.31,37.19 L30.48,28.98 L25.32,28.97 L30.43,37.13 C29.56,37.31 28.53,37.4 27.76,37.4 Z M27.83,9.61 C26.9,9.61 26.19,9.66 25.33,9.81 L30.48,18.05 L25.32,18.06 L30.46,9.88 C29.65,9.71 28.6,9.61 27.83,9.61 Z M48.2,18.47 L45.93,14.57 L46.36,19.12 Z M48.2,28.6 L45.93,32.5 L46.36,27.95 Z M43.98,4.91 L48.85,2.3 L46.3,7.2 Z" fill="none" stroke="currentColor" stroke-width="1.5"/></svg>