<svg xmlns="http://www.w3.org/2000/svg" viewBox="0 0 148.69 120.85" width="24" height="24"><path d="M9.4,102.18 L9.4,12.78 L30.26,12.78 M110.4,37.19 L101.07,27.84 L101.07,18.56 L115.05,18.56 L115.05,27.88 M55.89,12.78 L74.41,12.78 L74.41,74.35 M129,37.14 L139.39,37.14 L139.39,83.89 M27.95,83.62 L27.95,37.14 L110.4,37.14" fill="none" stroke="currentColor" stroke-width="1.5"/><rect x="0" y="0" width="0" height="0" fill="none" stroke="currentColor"/><path d="M134.5,81.83 L134.5,79.48 L132.36,76.28 L133.25,76.28 L134.35,77.95 C134.55,78.27 134.74,78.58 134.91,78.89 C135.08,78.6 135.28,78.28 135.52,77.91 L136.59,76.28 L137.45,76.28 L135.23,79.48 L135.23,81.83 Z M59.37,97.65 L59.37,99.72 L60.6,99.72 C61.01,99.72 61.31,99.63 61.51,99.47 C61.71,99.29 61.81,99.03 61.81,98.68 C61.81,98.33 61.71,98.07 61.51,97.9 C61.31,97.73 61.01,97.65 60.6,97.65 Z M59.37,95.32 L59.37,97.03 L60.5,97.03 C60.88,97.03 61.16,96.96 61.34,96.82 C61.52,96.68 61.61,96.46 61.61,96.17 C61.61,95.89 61.52,95.67 61.34,95.53 C61.16,95.39 60.88,95.32 60.5,95.32 Z M58.61,94.69 L60.56,94.69 C61.14,94.69 61.59,94.81 61.91,95.05 C62.23,95.3 62.38,95.64 62.38,96.09 C62.38,96.44 62.3,96.71 62.14,96.92 C61.98,97.12 61.74,97.25 61.43,97.3 C61.8,97.38 62.1,97.55 62.3,97.81 C62.51,98.06 62.62,98.38 62.62,98.76 C62.62,99.27 62.45,99.66 62.1,99.94 C61.76,100.21 61.27,100.35 60.64,100.35 L58.61,100.35 Z M69.7,115 L68.66,117.82 L70.74,117.82 Z M69.27,114.25 L70.14,114.25 L72.29,119.91 L71.5,119.91 L70.98,118.45 L68.43,118.45 L67.91,119.91 L67.11,119.91 Z M2.53,76.17 L3.35,76.17 L4.76,78.27 L6.17,76.17 L6.99,76.17 L5.17,78.89 L7.11,81.83 L6.29,81.83 L4.7,79.42 L3.1,81.83 L2.27,81.83 L4.29,78.81 Z M18.87,81.73 L18.87,81.05 L21.72,77.49 C21.92,77.24 22.11,77.02 22.29,76.83 L19.19,76.83 L19.19,76.18 L23.17,76.18 L23.17,76.83 L20.05,80.69 L19.72,81.08 L23.26,81.08 L23.26,81.73 Z M26.54,81.73 L25.86,81.73 L25.86,77.39 C25.69,77.54 25.48,77.7 25.21,77.86 C24.94,78.01 24.71,78.13 24.49,78.21 L24.49,77.55 C24.87,77.37 25.21,77.15 25.49,76.9 C25.78,76.64 25.98,76.4 26.1,76.16 L26.54,76.16 Z" fill="none" stroke="currentColor" stroke-width="1.5"/><rect x="0" y="0" width="0" height="0" fill="none" stroke="currentColor"/><path d="M30.26,4.65 L55.84,4.65 L55.84,20.92 L30.26,20.92 Z M47.78,17.9 C43.59,14.15 37.6,14.2 33.71,17.9 M47.78,7.61 C43.59,11.37 37.6,11.31 33.71,7.61 M50.79,12.78 L30.26,12.78 M76.09,95.07 C76.09,96 75.34,96.76 74.41,96.76 C73.48,96.76 72.72,96 72.72,95.07 C72.72,94.14 73.48,93.39 74.41,93.39 C75.34,93.39 76.09,94.14 76.09,95.07 Z M78.07,93.94 L74.45,97.4 L70.74,93.94 M74.41,93.31 L74.41,86 M74.41,106.81 L74.41,97.4 M65.12,106.81 L83.75,106.81 M110.4,27.88 L129,27.88 L129,46.48 L110.4,46.48 Z M123.02,54.04 L106.69,50.4 M115.21,46.48 L119.64,47.47 L110.38,49.39 L119.71,51.32 L110.43,53.24 L119.64,55.16 L110.41,57.09 L115.3,58.12 M123.8,32.56 L110.4,32.56 M0,74.35 L0,0 L148.69,0 L148.69,74.35 Z M83.75,74.35 L83.75,111.46 L65.12,111.46 L65.12,74.35 M74.41,120.85 L74.41,111.46 M0,102.14 L83.75,102.14 M65.12,86 L83.75,86 M67.51,74.35 L71.96,75.78 L67.51,77.05 L71.96,78.32 L67.51,79.59 L71.96,80.86 L67.51,82.13 L71.96,83.4 L67.51,84.67 L71.99,86" fill="none" stroke="currentColor" stroke-width="1.5"/><rect x="0" y="0" width="0" height="0" fill="none" stroke="currentColor"/><path d="M123.82,31.17 L128.32,32.56 L123.82,33.95 Z M122.72,55.51 L127.42,55.17 L123.34,52.8 Z M50.8,11.39 L55.31,12.77 L50.81,14.17 Z M10.14,102.14 C10.14,102.54 9.81,102.87 9.4,102.87 C9,102.87 8.67,102.54 8.67,102.14 C8.67,101.73 9,101.4 9.4,101.4 C9.81,101.4 10.14,101.73 10.14,102.14 Z M75.14,102.12 C75.14,102.52 74.81,102.85 74.41,102.85 C74,102.85 73.67,102.52 73.67,102.12 C73.67,101.71 74,101.38 74.41,101.38 C74.81,101.38 75.14,101.71 75.14,102.12 Z M75.14,37.13 C75.14,37.53 74.81,37.86 74.4,37.86 C74,37.86 73.67,37.53 73.67,37.13 C73.67,36.72 74,36.39 74.4,36.39 C74.81,36.39 75.14,36.72 75.14,37.13 Z" fill="none" stroke="currentColor" stroke-width="1.5"/></svg>