<svg xmlns="http://www.w3.org/2000/svg" viewBox="0 0 37.31 27.87" width="24" height="24"><path d="M9.71,18.52 L13.34,20.91 L9.71,23.3 Z M9.62,4.64 L13.25,7.03 L9.62,9.42 Z" fill="none" stroke="currentColor" stroke-width="1.5"/><path d="M30,19 L27.74,22.89 L28.16,18.35 Z M30,8.86 L27.74,4.97 L28.16,9.51 Z" fill="none" stroke="currentColor" stroke-width="1.5"/><path d="M23.22,11.57 L37.31,11.57 L37.31,16.27 L23.27,16.27 M29.1,8.98 C29.91,12.41 29.99,15.85 29.09,18.88 M0,20.91 L9.56,20.91 M0,7.03 L9.56,7.03 M23.43,13.91 C23.43,6.23 17.21,0.01 9.53,0 L9.53,27.87 C17.21,27.81 23.43,21.58 23.43,13.91 Z" fill="none" stroke="currentColor" stroke-width="1.5"/></svg>