<svg xmlns="http://www.w3.org/2000/svg" viewBox="0 0 88.39 102.61" width="24" height="24"><path d="M9.73,51.45 L13.99,59.48 L18.51,51.45 Z M46.17,36.29 L51.12,28.17 L56.07,36.29 Z" fill="none" stroke="currentColor" stroke-width="1.5"/><path d="M14.01,51.39 L14.01,18.84 L41.92,18.84 L51.12,28.17 M60.94,51.73 L69.78,60.67 L69.78,95.52" fill="none" stroke="currentColor" stroke-width="1.5"/><path d="M65.06,90.07 L65.06,95.52 L74.44,95.52 L74.44,90.07" fill="none" stroke="currentColor" stroke-width="1.5"/><rect x="0" y="0" width="0" height="0" fill="none" stroke="currentColor"/><path d="M31.85,35.94 C30.77,39.73 30.56,43.6 31.57,46.97 M65.02,42.06 C65.02,49.74 58.79,55.96 51.12,55.96 C43.44,55.96 37.22,49.74 37.22,42.06 C37.22,34.39 43.44,28.17 51.12,28.17 C58.79,28.17 65.02,34.39 65.02,42.06 Z M51.12,0 L51.12,28.17 M68.61,24.52 L28.02,65.26 L9.47,65.26 M51.12,102.61 L51.12,55.99 M64.88,44.36 L88.39,44.36 L88.39,39.69 L64.93,39.69 M0,9.44 L79.1,9.44 L79.1,83.86 L0,83.86 Z M9.5,51.39 L18.75,51.39 L18.75,79.29 L9.5,79.29 Z M5.47,74.19 L21.88,70.5 M18.69,74.7 L9.48,70.11" fill="none" stroke="currentColor" stroke-width="1.5"/><rect x="0" y="0" width="0" height="0" fill="none" stroke="currentColor"/><path d="M21.39,69 L27.46,69.25 L22.08,72.07 Z M30.68,47.08 L32.94,50.98 L32.51,46.43 Z M67.38,23.47 L72.25,20.86 L69.7,25.76 Z" fill="none" stroke="currentColor" stroke-width="1.5"/></svg>