<svg xmlns="http://www.w3.org/2000/svg" viewBox="0 0 41.69 46.45" width="24" height="24"><path d="M13.9,46.45 L13.9,37.25 M13.9,9.43 L13.9,0 M27.49,25.62 L41.69,25.62 L41.69,20.95 L27.54,20.95 M27.8,23.32 C27.8,31 21.57,37.22 13.9,37.22 C6.22,37.22 0,31 0,23.32 C0,15.65 6.22,9.42 13.9,9.42 C21.57,9.42 27.8,15.65 27.8,23.32 Z" fill="none" stroke="currentColor" stroke-width="1.5"/><rect x="0" y="0" width="0" height="0" fill="none" stroke="currentColor"/><path d="M8.82,10.38 L13.9,18.65 L18.88,10.34 C17.51,9.8 15.66,9.4 13.9,9.43 C12.15,9.38 10.15,9.84 8.82,10.38 Z" fill="none" stroke="currentColor" stroke-width="1.5"/></svg>