<svg xmlns="http://www.w3.org/2000/svg" viewBox="0 0 148.69 123.33" width="24" height="24"><path d="M125.37,117.88 L125.37,123.33 L134.75,123.33 L134.75,117.88" fill="none" stroke="currentColor" stroke-width="1.5"/><path d="M46.33,56.14 L46.33,65.37 L30.14,65.37 L30.14,79.4 M46.33,37.54 L46.33,18.81 L102.16,18.81 L102.16,46.8 L111.43,56.13 M121.24,79.69 L130.08,88.63 L130.08,123.33 M55.75,37.36 L55.75,28.14 L83.59,28.14 L83.59,102.38 L130.07,102.38" fill="none" stroke="currentColor" stroke-width="1.5"/><rect x="0" y="0" width="0" height="0" fill="none" stroke="currentColor"/><path d="M41.76,93.21 L41.76,81.64 M36.88,81.64 L48.9,81.64 M39.38,93.21 L39.38,81.64 M44.05,86.43 L47.22,76.96 M21.73,100.93 L38.23,97.22 M30.18,104.9 L34.81,103.78 L25.67,101.86 L34.81,99.94 L25.67,98.03 L34.81,96.11 L25.67,94.2 L30.18,93.22 M25.51,93.2 L25.51,79.35 L34.75,79.35 L34.75,93.21 M67.31,93.21 L67.31,81.64 M62.43,81.64 L74.45,81.64 M64.93,93.21 L64.93,81.64 M69.6,86.43 L72.77,76.96 M47.28,100.93 L63.78,97.22 M55.73,104.9 L60.36,103.78 L51.22,101.86 L60.36,99.94 L51.22,98.03 L60.36,96.11 L51.22,94.2 L55.73,93.22 M51.06,93.21 L51.06,79.35 L60.3,79.35 L60.3,93.21 M0,9.51 L139.41,9.51 L139.41,111.61 L0,111.61 Z M125.18,72.32 L148.69,72.32 L148.69,67.65 L125.23,67.65 M111.42,121.15 L111.42,83.95 M79.08,93.21 L25.5,93.21 M128.92,52.48 L88.32,93.22 M111.42,0 L111.42,56.13 M125.32,70.02 C125.32,77.7 119.1,83.92 111.42,83.92 C103.75,83.92 97.53,77.7 97.53,70.02 C97.53,62.35 103.75,56.13 111.42,56.13 C119.1,56.13 125.32,62.35 125.32,70.02 Z M92.16,76.15 C91.08,72.36 90.87,68.49 91.87,65.12 M25.74,79.41 L29.99,87.44 L34.51,79.41 Z M51.29,79.41 L55.54,87.44 L60.06,79.41 Z M55.75,56.04 L55.75,79.44 M72.1,51.24 L70.97,55.87 L69.05,46.74 L67.14,55.87 L65.22,46.74 L63.3,55.87 L61.39,46.74 L60.41,51.25 M23.16,37.54 L60.42,37.54 L60.42,56.14 L23.16,56.14 Z M23.16,56.05 L9.29,56.14 L9.29,46.68 L23.08,46.68 M18.68,46.68 L13.74,56.14 M46.33,37.54 L46.33,51.55 M41.86,37.48 L41.86,56.14 M55.75,55.92 L55.75,41.82 M27.89,37.54 L35.15,52.01 M27.89,56.14 L35.15,41.31" fill="none" stroke="currentColor" stroke-width="1.5"/><rect x="0" y="0" width="0" height="0" fill="none" stroke="currentColor"/><path d="M33.45,40.99 L36.43,42.47 L37.14,37.32 Z M33.45,52.33 L36.43,50.85 L37.14,56 Z M54.11,42.28 L57.43,42.28 L55.77,37.36 Z M44.81,51.08 L48.13,51.08 L46.47,56.01 Z M90.98,65 L93.24,61.11 L92.82,65.66 Z M127.69,51.43 L132.55,48.82 L130.01,53.72 Z M64.04,98.8 L63.34,95.68 L69.17,96.01 Z M74.25,77.57 L71.22,76.53 L74.54,71.74 Z M38.49,98.8 L37.79,95.68 L43.62,96.01 Z M48.7,77.57 L45.67,76.53 L48.99,71.74 Z M106.48,64.25 L111.43,56.13 L116.37,64.25 Z M130.86,102.41 C130.86,102.84 130.51,103.2 130.08,103.2 C129.64,103.2 129.29,102.84 129.29,102.41 C129.29,101.98 129.64,101.62 130.08,101.62 C130.51,101.62 130.86,101.98 130.86,102.41 Z" fill="none" stroke="currentColor" stroke-width="1.5"/></svg>