<svg xmlns="http://www.w3.org/2000/svg" viewBox="0 0 92.92 102.61" width="24" height="24"><path d="M14.26,51.45 L18.52,59.48 L23.03,51.45 Z M50.7,36.29 L55.65,28.17 L60.6,36.29 Z" fill="none" stroke="currentColor" stroke-width="1.5"/><path d="M18.54,51.39 L18.54,18.84 L46.45,18.84 L55.65,28.17 M65.47,51.73 L74.31,60.67 L74.31,102.45" fill="none" stroke="currentColor" stroke-width="1.5"/><path d="M69.59,97.01 L69.59,102.45 L78.97,102.45 L78.97,97.01" fill="none" stroke="currentColor" stroke-width="1.5"/><rect x="0" y="0" width="0" height="0" fill="none" stroke="currentColor"/><path d="M71.91,23.47 L76.78,20.86 L74.23,25.76 Z M35.21,37.04 L37.47,33.15 L37.04,37.69 Z" fill="none" stroke="currentColor" stroke-width="1.5"/><path d="M27.93,83.75 L32.6,82.76 L23.47,80.84 L32.6,78.92 L23.47,77.01 L32.6,75.09 L23.47,73.18 L27.98,72.2 M36.38,48.19 C35.3,44.4 35.09,40.53 36.1,37.16 M69.55,42.06 C69.55,49.74 63.32,55.96 55.65,55.96 C47.97,55.96 41.75,49.74 41.75,42.06 C41.75,34.39 47.97,28.17 55.65,28.17 C63.32,28.17 69.55,34.39 69.55,42.06 Z M55.65,0 L55.65,28.17 M73.14,24.52 L32.55,65.24 L4.65,65.24 L4.65,83.86 L37.83,83.69 M55.65,102.61 L55.65,55.99 M69.41,44.36 L92.92,44.36 L92.92,39.69 L69.46,39.69 M0,9.44 L83.63,9.44 L83.63,93.08 L0,93.08 Z M14.03,65.24 L14.03,51.39 L23.28,51.39 L23.28,65.24 M9.45,76.94 L4.82,75.81 L13.95,73.9 L4.82,71.98 L13.95,70.07 L4.82,68.15 L13.95,66.23 L9.44,65.26" fill="none" stroke="currentColor" stroke-width="1.5"/></svg>