<svg xmlns="http://www.w3.org/2000/svg" viewBox="0 0 74.56 28.02" width="24" height="24"><path d="M41.81,11.63 L41.81,18.6 L0,18.6 M32.78,6.99 L74.56,6.99 L74.56,11.63 L32.78,11.63 M30.4,0 L30.4,18.6 M0,18.6 L4.62,0.19 L9.28,18.57 L13.9,0.13 L18.55,18.54 L23.18,0.35 L27.8,18.71 M4.57,18.6 L2.25,23.12 L0,18.6 L0,0 L41.81,0 L41.81,6.99 M39.47,18.6 L39.47,28.02 M30.44,4.62 L32.72,4.59 L32.78,13.87 L30.42,13.88 M30.4,18.6 C24.47,13.91 24.08,4.88 30.4,0" fill="none" stroke="currentColor" stroke-width="1.5"/></svg>