<svg xmlns="http://www.w3.org/2000/svg" viewBox="0 0 41.74 36.03" width="24" height="24"><path d="M39.42,21.65 L37.27,17.59 L41.56,17.59 Z" fill="none" stroke="currentColor" stroke-width="1.5"/><path d="M37.07,12.7 L37.07,21.95 M27.82,19.61 L13.91,19.61 M27.82,15 L13.91,15 M27.82,12.7 L27.82,21.95 M0,8.08 L20.91,8.08 L20.91,12.7 L41.74,12.7 L41.74,21.95 L20.91,21.95 L20.91,26.55 L0,26.55 Z M0.13,26.5 L2.34,22.68 L4.69,26.61 M2.33,36.03 L2.33,26.59 M4.64,26.55 L4.64,8.08 M13.91,8.08 L13.91,26.55 M39.42,36.03 L39.42,21.95" fill="none" stroke="currentColor" stroke-width="1.5"/><rect x="0" y="0" width="0" height="0" fill="none" stroke="currentColor"/><path d="M39.56,9.6 L39.56,10.25 L35.89,10.25 L36.02,6.28 Z M31.84,11.8 L31.84,6.23 L32.47,6.23 L32.47,6.75 L32.53,11.8 Z M32.46,8.26 Z M7.71,5.58 L7.02,5.58 L7.02,1.23 L5.66,1.39 L7.71,0 Z M1,7.12 L1,1.55 L1.63,1.55 L1.63,2.08 L1.69,7.12 Z M1.62,3.59 Z" fill="none" stroke="currentColor" stroke-width="1.5"/></svg>