<svg xmlns="http://www.w3.org/2000/svg" viewBox="0 0 82.45 52.12" width="24" height="24"><path d="M58.17,25.56 L58.17,28.72 M77.3,30.14 L69.31,25.56 L77.3,20.96 Z M58.1,31.08 L51.05,27.63 L51.05,31.08 M82.45,25.56 L77.3,25.56 M13.96,31.08 L73.21,31.08 L73.21,35.75 L13.96,35.75 M13.96,42.74 L13.96,24.08 M4.64,42.74 L4.64,24.08 M39.41,52.12 L39.41,42.74 M2.31,52.12 L2.31,42.74 M41.75,35.75 L41.75,42.74 L0,42.74 L0,24.08 L41.75,24.08 L41.75,31.08 M62.88,11.65 L53.55,11.65 L53.55,25.56 L62.88,25.56 Z M58.15,0 L62.85,1.06 L53.41,2.99 L62.85,4.92 L53.41,6.85 L62.85,8.78 L53.41,10.71 L58.08,11.65 M62.88,25.56 L58.18,17.57 L53.55,25.56 M69.31,25.56 L62.88,25.56" fill="none" stroke="currentColor" stroke-width="1.5"/></svg>