<svg xmlns="http://www.w3.org/2000/svg" viewBox="0 0 46.83 25.43" width="24" height="24"><path d="M46.83,6.91 L37.36,6.91 L37.36,25.42 L46.83,25.42 M0,16.16 L46.83,16.16 M0,6.91 L9.49,6.91 L9.49,25.43 L0,25.43 M30.3,16.17 Z M32.67,16.17 Z" fill="none" stroke="currentColor" stroke-width="1.5"/><rect x="0" y="0" width="0" height="0" fill="none" stroke="currentColor"/><path d="M22.92,21.86 L23.73,24.35 L27.39,21.78 L27.37,21.59 Z" fill="none" stroke="currentColor" stroke-width="1.5"/><path d="M18.67,9.56 L19.48,12.05 L23.25,9.43 L23.12,9.3 Z" fill="none" stroke="currentColor" stroke-width="1.5"/><path d="M40.39,22.73 L41.07,22.64 L41.81,20.97 L40.46,20.06 Z M44.03,14.2 L44.03,14.86 L40.36,14.86 L40.49,10.88 Z M42.96,5.58 L42.28,5.58 L42.28,1.23 L40.91,1.39 L42.96,0 Z M3.24,22.73 L3.92,22.64 L4.66,20.97 L3.31,20.06 Z M6.88,14.2 L6.88,14.86 L3.21,14.86 L3.34,10.88 Z M5.81,5.58 L5.13,5.58 L5.13,1.23 L3.76,1.39 L5.81,0 Z" fill="none" stroke="currentColor" stroke-width="1.5"/></svg>