<svg xmlns="http://www.w3.org/2000/svg" viewBox="0 0 118.47 46.64" width="24" height="24"><path d="M32.27,23.64 L30,27.54 L30.43,22.99 Z M32.27,13.51 L30,9.61 L30.43,14.16 Z" fill="none" stroke="currentColor" stroke-width="1.5"/><path d="M69.49,12.42 L74.76,12.42 L74.76,15.39 L72.46,15.39 L72.46,21.79 L74.76,21.79 L74.76,24.6 L69.49,24.6 Z" fill="none" stroke="currentColor" stroke-width="1.5"/><rect x="0" y="0" width="0" height="0" fill="none" stroke="currentColor"/><path d="M76.72,9.26 L76.72,27.85 M67.45,9.26 L67.45,27.85 M102.29,27.85 L102.29,46.64 M65.14,27.85 L65.14,46.64 M62.83,16.21 L62.83,9.26 L104.63,9.26 L104.63,16.21 M104.63,20.92 L104.63,27.85 L62.83,27.85 L62.83,20.92 M111.75,20.92 L111.75,37.17 L4.89,37.17 L4.89,0 L111.75,0 L111.75,16.21 M76.72,16.21 L118.47,16.21 L118.47,20.92 L76.72,20.92 M25.69,18.55 C25.69,10.88 19.48,4.65 11.81,4.64 L11.81,32.51 C19.48,32.45 25.69,26.23 25.69,18.55 Z M0,11.67 L11.81,11.67 M0,25.55 L11.81,25.55 M31.36,13.63 C32.18,17.05 32.26,20.5 31.35,23.53 M25.48,16.21 L67.45,16.21 M67.45,20.92 L25.54,20.92" fill="none" stroke="currentColor" stroke-width="1.5"/></svg>