<svg xmlns="http://www.w3.org/2000/svg" viewBox="0 0 46.47 27.91" width="24" height="24"><path d="M6.67,3.16 L11.94,3.16 L11.94,6.13 L9.64,6.13 L9.64,12.53 L11.94,12.53 L11.94,15.34 L6.67,15.34 Z" fill="none" stroke="currentColor" stroke-width="1.5"/><rect x="0" y="0" width="0" height="0" fill="none" stroke="currentColor"/><path d="M32.56,4.72 L37.17,4.72 L39.55,6.97 L41.81,4.72 L46.47,4.72 L46.47,0 L32.56,0 M32.56,13.87 L37.17,13.87 L39.55,11.61 L41.81,13.87 L46.47,13.87 L46.47,18.59 L32.56,18.59 M32.56,18.59 L0,18.59 L0,0 L32.56,0 Z M2.32,18.59 L2.32,27.91 M30.22,18.59 L30.22,27.91 M4.62,0 L4.62,18.59 M13.9,0 L13.9,18.59" fill="none" stroke="currentColor" stroke-width="1.5"/></svg>