<svg xmlns="http://www.w3.org/2000/svg" viewBox="0 0 46.47 27.91" width="24" height="24"><path d="M6.7,3.16 L11.97,3.16 L11.97,6.13 L9.67,6.13 L9.67,12.53 L11.97,12.53 L11.97,15.34 L6.7,15.34 Z" fill="none" stroke="currentColor" stroke-width="1.5"/><rect x="0" y="0" width="0" height="0" fill="none" stroke="currentColor"/><path d="M32.56,18.59 L27.94,0.8 L23.28,17.86 L18.64,0.77 L13.94,18.59 M32.56,4.72 L37.17,4.72 L39.55,6.97 L41.81,4.72 L46.47,4.72 L46.47,0 L32.56,0 M32.56,13.87 L37.17,13.87 L39.55,11.61 L41.81,13.87 L46.47,13.87 L46.47,18.59 L32.56,18.59 M32.56,18.59 L0,18.59 L0,0 L32.56,0 Z M2.32,18.59 L2.32,27.91 M27.92,18.59 L30.22,22.48 L32.56,18.59 M4.66,0 L4.66,18.59 M13.94,0 L13.94,18.59" fill="none" stroke="currentColor" stroke-width="1.5"/></svg>