<svg xmlns="http://www.w3.org/2000/svg" viewBox="0 0 50.2 54.27" width="24" height="24"><path d="M25.11,26.92 L22.28,21.87 L27.33,24.69 Z" fill="none" stroke="currentColor" stroke-width="1.5"/><path d="M50.2,54.27 L40.63,54.27 L40.63,45.03" fill="none" stroke="currentColor" stroke-width="1.5"/><rect x="0" y="0" width="0" height="0" fill="none" stroke="currentColor"/><path d="M40.63,35.73 L50.2,35.73 M36.17,26.47 L50.2,26.47 M40.63,17.18 L50.2,17.18 M7.24,31.12 L3.62,31.12 L3.62,21.83 L0,21.83 M3.62,28.76 L17.86,28.76 M36.18,26.47 C36.18,31.62 32,35.83 26.85,35.83 C21.69,35.83 17.51,31.65 17.51,26.5 C17.51,21.34 21.69,17.16 26.85,17.16 C32,17.16 36.18,21.31 36.18,26.47 Z M50.2,45.03 L40.63,45.03 L40.63,7.93 L50.2,7.93 M31.08,30.66 L26.11,25.7 M3.62,24.13 L17.81,24.13" fill="none" stroke="currentColor" stroke-width="1.5"/><rect x="0" y="0" width="0" height="0" fill="none" stroke="currentColor"/><path d="M43.83,41.19 L44.55,41.13 C44.6,41.48 44.72,41.74 44.92,41.92 C45.11,42.09 45.35,42.18 45.62,42.18 C45.95,42.18 46.22,42.06 46.45,41.81 C46.68,41.56 46.79,41.23 46.79,40.82 C46.79,40.43 46.68,40.13 46.46,39.9 C46.25,39.68 45.96,39.57 45.61,39.57 C45.39,39.57 45.19,39.62 45.01,39.72 C44.83,39.82 44.7,39.94 44.59,40.1 L43.95,40.02 L44.49,37.17 L47.26,37.17 L47.26,37.82 L45.04,37.82 L44.74,39.31 C45.07,39.08 45.42,38.96 45.79,38.96 C46.27,38.96 46.68,39.13 47.02,39.47 C47.35,39.8 47.52,40.24 47.52,40.76 C47.52,41.27 47.37,41.7 47.08,42.07 C46.72,42.52 46.23,42.74 45.62,42.74 C45.11,42.74 44.7,42.6 44.38,42.32 C44.06,42.03 43.88,41.66 43.83,41.19 Z M46.16,33.39 L46.16,32.06 L43.75,32.06 L43.75,31.44 L46.29,27.84 L46.85,27.84 L46.85,31.44 L47.6,31.44 L47.6,32.06 L46.85,32.06 L46.85,33.39 Z M46.16,31.44 L46.16,28.93 L44.42,31.44 Z M43.86,22.64 L44.54,22.55 C44.62,22.93 44.75,23.21 44.94,23.38 C45.13,23.55 45.36,23.64 45.63,23.64 C45.95,23.64 46.22,23.53 46.44,23.3 C46.66,23.08 46.77,22.81 46.77,22.48 C46.77,22.17 46.67,21.91 46.46,21.71 C46.26,21.5 46,21.4 45.68,21.4 C45.55,21.4 45.39,21.42 45.2,21.47 L45.28,20.88 C45.32,20.88 45.36,20.88 45.39,20.88 C45.68,20.88 45.94,20.81 46.17,20.66 C46.4,20.5 46.52,20.27 46.52,19.96 C46.52,19.7 46.44,19.5 46.27,19.33 C46.1,19.17 45.88,19.09 45.61,19.09 C45.35,19.09 45.12,19.17 44.95,19.34 C44.77,19.5 44.66,19.75 44.61,20.09 L43.92,19.97 C44.01,19.51 44.2,19.16 44.49,18.91 C44.79,18.65 45.16,18.53 45.6,18.53 C45.9,18.53 46.18,18.59 46.43,18.72 C46.69,18.85 46.88,19.03 47.02,19.25 C47.15,19.48 47.22,19.72 47.22,19.97 C47.22,20.21 47.16,20.43 47.03,20.63 C46.9,20.82 46.71,20.98 46.46,21.1 C46.78,21.17 47.04,21.33 47.22,21.57 C47.4,21.81 47.49,22.11 47.49,22.46 C47.49,22.95 47.32,23.36 46.96,23.7 C46.61,24.04 46.16,24.2 45.62,24.2 C45.13,24.2 44.73,24.06 44.41,23.77 C44.08,23.48 43.9,23.1 43.86,22.64 Z M47.51,14.18 L47.51,14.83 L43.84,14.83 C43.83,14.67 43.86,14.51 43.92,14.36 C44.01,14.11 44.16,13.86 44.37,13.62 C44.57,13.38 44.87,13.1 45.26,12.78 C45.86,12.28 46.27,11.89 46.48,11.6 C46.7,11.31 46.8,11.04 46.8,10.78 C46.8,10.51 46.71,10.28 46.51,10.1 C46.32,9.91 46.07,9.82 45.76,9.82 C45.43,9.82 45.17,9.92 44.97,10.11 C44.77,10.31 44.67,10.58 44.67,10.93 L43.97,10.86 C44.02,10.34 44.2,9.94 44.51,9.67 C44.82,9.39 45.24,9.25 45.77,9.25 C46.3,9.25 46.73,9.4 47.04,9.7 C47.35,9.99 47.5,10.36 47.5,10.8 C47.5,11.02 47.46,11.24 47.37,11.45 C47.28,11.67 47.12,11.89 46.91,12.13 C46.7,12.37 46.35,12.69 45.86,13.11 C45.45,13.45 45.19,13.69 45.07,13.81 C44.96,13.93 44.86,14.05 44.79,14.18 Z M46.7,5.58 L46.02,5.58 L46.02,1.23 C45.85,1.39 45.64,1.54 45.37,1.7 C45.1,1.86 44.86,1.98 44.65,2.05 L44.65,1.39 C45.03,1.22 45.37,1 45.65,0.74 C45.94,0.49 46.14,0.24 46.26,0 L46.7,0 Z" fill="none" stroke="currentColor" stroke-width="1.5"/></svg>