<svg xmlns="http://www.w3.org/2000/svg" viewBox="0 0 32.66 28.09" width="24" height="24"><path d="M27.34,10.29 L27.34,13.91 L29.77,13.91 M20.74,13.91 L23.57,13.91 L29.39,11.47 M18.73,2.32 L32.66,2.32 L32.66,16.29 L18.73,16.29 Z M6.17,7.73 C7.58,9.68 11.02,9.71 12.51,7.72 C10.86,5.57 7.72,5.68 6.17,7.73 Z M18.72,9.32 L0,9.32 M9.36,3.1 L9.36,6.15 M18.72,9.32 C18.72,14.48 14.54,18.67 9.38,18.67 C4.23,18.67 0.05,14.48 0.05,9.32 C0.05,4.17 4.23,0 9.38,0 C14.54,0 18.72,4.17 18.72,9.32 Z M9.36,18.61 L9.36,28.09" fill="none" stroke="currentColor" stroke-width="1.5"/><rect x="0" y="0" width="0" height="0" fill="none" stroke="currentColor"/><path d="M26.09,9.28 L26.09,7.95 L23.68,7.95 L23.68,7.32 L26.21,3.72 L26.77,3.72 L26.77,7.32 L27.52,7.32 L27.52,7.95 L26.77,7.95 L26.77,9.28 Z M26.09,7.32 L26.09,4.82 L24.35,7.32 Z" fill="none" stroke="currentColor" stroke-width="1.5"/></svg>