<svg xmlns="http://www.w3.org/2000/svg" viewBox="0 0 41.93 32.62" width="24" height="24"><path d="M21.27,12.18 L21.27,6.63 L22.01,6.63 L22.01,11.53 L24.75,11.53 L24.75,12.18 Z" fill="none" stroke="currentColor" stroke-width="1.5"/><rect x="0" y="0" width="0" height="0" fill="none" stroke="currentColor"/><path d="M23.91,21.21 L21.18,16.27 L26.11,19.01 Z" fill="none" stroke="currentColor" stroke-width="1.5"/><path d="M37.29,23.32 L37.29,18.35 M34.17,18.35 L34.17,23.32 M38.64,21.97 L32.85,21.97 M32.85,19.63 L38.64,19.63 M18.73,0 L32.6,13.81 M18.73,13.81 L41.93,13.81 L41.93,27.78 L18.73,27.78 Z M9.36,23.14 L9.36,32.62 M18.72,13.85 C18.72,19 14.54,23.2 9.38,23.2 C4.23,23.2 0.05,19 0.05,13.85 C0.05,8.69 4.23,4.53 9.38,4.53 C14.54,4.53 18.72,8.69 18.72,13.85 Z M9.36,7.63 L9.36,10.68 M18.72,13.85 L0,13.85 M6.17,12.26 C7.58,14.21 11.02,14.24 12.51,12.25 C10.86,10.09 7.72,10.2 6.17,12.26 Z M18.73,13.81 L18.73,0 L32.6,0 L32.6,13.81 M26.38,5.89 L26.38,3.61 C26.38,2.34 27.39,1.13 28.75,1.13 C29.94,1.13 31.01,2.23 31.01,3.61 L31.01,5.89 M24.9,20.01 L29.91,25.02" fill="none" stroke="currentColor" stroke-width="1.5"/></svg>