<svg xmlns="http://www.w3.org/2000/svg" viewBox="0 0 37.47 18.71" width="24" height="24"><path d="M17.48,13.64 L16.17,15.83 L13.54,12.76 Z M20.15,4.85 L21.46,2.66 L24.1,5.73 Z" fill="none" stroke="currentColor" stroke-width="1.5"/><path d="M16.67,14.5 C17.38,14.92 17.99,15.01 18.87,15.01 L18.87,3.46 C19.64,3.46 20.27,3.67 20.95,4.01 M27.81,6.99 L37.47,6.99 M27.83,11.65 L37.47,11.65 M28.13,9.36 C28.13,14.52 23.94,18.71 18.77,18.71 C13.61,18.71 9.42,14.52 9.42,9.36 C9.42,4.19 13.61,0 18.77,0 C23.94,0 28.13,4.19 28.13,9.36 Z M0,6.99 L9.64,6.99 M0,11.65 L9.66,11.65" fill="none" stroke="currentColor" stroke-width="1.5"/></svg>