<svg xmlns="http://www.w3.org/2000/svg" viewBox="0 0 28.14 18.71" width="24" height="24"><path d="M0.02,11.65 L9.67,11.65 M0,6.99 L9.65,6.99 M24.51,9.36 C24.51,12.52 21.95,15.09 18.78,15.09 C15.61,15.09 13.05,12.52 13.05,9.36 C13.05,6.19 15.61,3.62 18.78,3.62 C21.95,3.62 24.51,6.19 24.51,9.36 Z M28.14,9.36 C28.14,14.52 23.95,18.71 18.78,18.71 C13.61,18.71 9.43,14.52 9.43,9.36 C9.43,4.19 13.61,0 18.78,0 C23.95,0 28.14,4.19 28.14,9.36 Z" fill="none" stroke="currentColor" stroke-width="1.5"/><rect x="0" y="0" width="0" height="0" fill="none" stroke="currentColor"/><path d="M16.35,5.74 L16.35,2.42 L20.6,3.62 L21.35,4.28 Z" fill="none" stroke="currentColor" stroke-width="1.5"/></svg>