<svg xmlns="http://www.w3.org/2000/svg" viewBox="0 0 88.64 32.33" width="24" height="24"><path d="M60.46,13.85 L79.16,13.85 L79.16,32.27" fill="none" stroke="currentColor" stroke-width="1.5"/><rect x="0" y="0" width="0" height="0" fill="none" stroke="currentColor"/><path d="M74.49,27.61 L74.49,32.33 L83.75,32.33 L83.75,27.61 M60.53,4.59 L88.64,4.59 M23.47,0 L60.53,0 L60.53,18.57 L23.47,18.57 Z M0,9.23 L18.91,9.23 M49.01,9.29 C49.01,13.1 45.91,16.2 42.1,16.2 C38.28,16.2 35.19,13.1 35.19,9.29 C35.19,5.47 38.28,2.38 42.1,2.38 C45.91,2.38 49.01,5.47 49.01,9.29 Z" fill="none" stroke="currentColor" stroke-width="1.5"/><rect x="0" y="0" width="0" height="0" fill="none" stroke="currentColor"/><path d="M72.03,3.06 L76.55,4.59 L72.03,6.13 Z M18.64,7.69 L23.16,9.23 L18.64,10.76 Z" fill="none" stroke="currentColor" stroke-width="1.5"/></svg>