<svg xmlns="http://www.w3.org/2000/svg" viewBox="0 0 93.84 73.5" width="24" height="24"><path d="M54.82,36.92 L28.6,36.92" fill="none" stroke="currentColor" stroke-width="1.5"/><rect x="0" y="0" width="0" height="0" fill="none" stroke="currentColor"/><path d="M81.88,18.7 L76.95,13.8 M90.55,15.64 L84.77,15.64 M84.78,13.3 L90.57,13.32 M89.25,17.03 L89.24,11.95 M86.12,11.97 L86.11,17.02 M70.7,7.51 L93.84,7.51 L93.84,21.45 L70.7,21.45 Z M12.64,29.21 C12.64,30.45 11.64,31.45 10.4,31.45 C9.16,31.45 8.16,30.45 8.16,29.21 C8.16,27.97 9.16,26.97 10.4,26.97 C11.64,26.97 12.64,27.97 12.64,29.21 Z M10.55,31.43 L15.06,32.42 L5.74,34.37 L15.06,36.32 L5.74,38.27 L15.06,40.22 L5.74,42.17 L10.53,43.02 M5.65,30.63 L10.4,25.8 L15.15,30.61 M0,9.49 L61.46,9.49 L61.46,64.01 L0,64.01 Z M41.76,59.34 L10.37,59.33 L10.38,31.48 M10.38,25.89 L10.38,14.54 L70.67,14.54 M41.75,23.89 L41.75,0 M41.75,73.5 L41.75,50.09 M28.6,36.92 L41.75,23.89 L54.82,36.92 L41.75,50.09 Z" fill="none" stroke="currentColor" stroke-width="1.5"/><rect x="0" y="0" width="0" height="0" fill="none" stroke="currentColor"/><path d="M77.84,12.74 L75.92,14.68 L73.26,10.11 Z M42.48,59.37 Z M42.48,14.54 Z" fill="none" stroke="currentColor" stroke-width="1.5"/></svg>