<svg xmlns="http://www.w3.org/2000/svg" viewBox="0 0 58.42 64.27" width="24" height="24"><path d="M26.22,32.24 L0,32.24" fill="none" stroke="currentColor" stroke-width="1.5"/><rect x="0" y="0" width="0" height="0" fill="none" stroke="currentColor"/><path d="M37.22,13.7 L32.29,8.8 M13.15,9.73 L26.02,9.73 M44.69,11.97 L39.78,7.04 M44.62,7.08 L39.75,12 M26.04,2.51 L49.18,2.51 L49.18,16.45 L26.04,16.45 Z M49.14,9.73 L58.42,9.73 L58.42,54.8 L13.15,54.8 M13.16,19.22 L13.16,0 M13.16,64.27 L13.16,45.41 M0,32.24 L13.16,19.22 L26.22,32.24 L13.16,45.41 Z M45.67,9.49 C45.67,11.41 44.12,12.96 42.21,12.96 C40.29,12.96 38.74,11.41 38.74,9.49 C38.74,7.58 40.29,6.03 42.21,6.03 C44.12,6.03 45.67,7.58 45.67,9.49 Z" fill="none" stroke="currentColor" stroke-width="1.5"/><rect x="0" y="0" width="0" height="0" fill="none" stroke="currentColor"/><path d="M33.18,7.74 L31.26,9.68 L28.6,5.11 Z M13.88,54.7 C13.88,55.1 13.56,55.43 13.15,55.43 C12.75,55.43 12.42,55.1 12.42,54.7 C12.42,54.29 12.75,53.97 13.15,53.97 C13.56,53.97 13.88,54.29 13.88,54.7 Z M13.88,9.7 C13.88,10.1 13.56,10.43 13.15,10.43 C12.75,10.43 12.42,10.1 12.42,9.7 C12.42,9.29 12.75,8.96 13.15,8.96 C13.56,8.96 13.88,9.29 13.88,9.7 Z" fill="none" stroke="currentColor" stroke-width="1.5"/></svg>