<svg xmlns="http://www.w3.org/2000/svg" viewBox="0 0 81.17 96.39" width="24" height="24"><path d="M71.2,48.34 L44.98,48.34 M35.12,48.34 L8.9,48.34" fill="none" stroke="currentColor" stroke-width="1.5"/><rect x="0" y="0" width="0" height="0" fill="none" stroke="currentColor"/><path d="M58.12,61.51 L58.12,70.65 L47.64,70.65 M47.61,70.65 C47.61,74.47 44.51,77.58 40.69,77.58 C36.87,77.58 33.77,74.47 33.77,70.65 C33.77,66.83 36.87,63.74 40.69,63.74 C44.51,63.74 47.61,66.83 47.61,70.65 Z M47.61,25.77 C47.61,29.59 44.51,32.67 40.69,32.67 C36.87,32.67 33.77,29.59 33.77,25.77 C33.77,21.95 36.87,18.84 40.69,18.84 C44.51,18.84 47.61,21.95 47.61,25.77 Z M0,9.5 L81.17,9.5 L81.17,86.79 L0,86.79 Z M44.98,48.34 L58.12,35.31 L71.2,48.34 L58.12,61.51 Z M8.9,48.34 L22.06,35.31 L35.12,48.34 L22.06,61.51 Z M22.08,35.31 L22.08,25.77 L40.63,25.77 L40.63,0 M40.63,96.39 L40.63,70.65 L22.08,70.65 L22.08,61.51 M42.99,32.27 L42.99,64.15 M58.12,35.31 L58.12,25.77 L47.61,25.77 M38.31,32.26 L38.31,64.18" fill="none" stroke="currentColor" stroke-width="1.5"/></svg>