<svg xmlns="http://www.w3.org/2000/svg" viewBox="0 0 158.18 73.73" width="24" height="24"><path d="M9.48,0 L148.8,0 L148.8,64.99 L9.48,64.99 Z" fill="none" stroke="currentColor" stroke-width="1.5"/><path d="M81.55,37.18 L86.21,41.85 L86.21,51.05 L67.65,51.05 L67.65,41.68 M37.38,45.64 L37.38,24.12" fill="none" stroke="currentColor" stroke-width="1.5"/><rect x="0" y="0" width="0" height="0" fill="none" stroke="currentColor"/><path d="M37.38,73.73 L37.38,50.31 M59.27,19.14 L75.7,15.51 M63.03,23.18 L81.55,23.18 L81.55,41.68 L63.03,41.68 Z M81.55,37.18 L117.19,37.18 M24.22,37.18 L37.38,24.12 L50.44,37.18 L37.38,50.31 Z M32.65,45.64 L41.96,45.64 M50.44,37.18 L63.03,37.18 M24.22,37.18 L0,37.18 M67.54,11.46 L63.02,12.45 L72.35,14.4 L63.02,16.35 L72.35,18.3 L63.02,20.24 L72.35,22.19 L67.56,23.04 M117.07,37.18 L130.21,24.11 L143.29,37.18 L130.21,50.3 Z M130.21,24.11 L130.21,32.54 M101.94,22.84 L96.92,17.84 M143.29,37.18 L158.18,37.18 M67.65,37.18 L76.74,37.18 M97.69,37.18 L97.69,27.85 M63.03,30.01 L58.9,27.56 L63.03,25.11 M106.89,18.6 C106.89,23.69 102.77,27.82 97.68,27.82 C92.59,27.82 88.47,23.69 88.47,18.6 C88.47,13.52 92.59,9.39 97.68,9.39 C102.77,9.39 106.89,13.52 106.89,18.6 Z" fill="none" stroke="currentColor" stroke-width="1.5"/><rect x="0" y="0" width="0" height="0" fill="none" stroke="currentColor"/><path d="M97.8,16.89 L94.03,14.98 L95.95,18.74 Z M75.98,16.87 L79.64,14.77 L75.44,14.32 Z M76.81,35.94 L80.83,37.25 L76.81,38.55 Z M67.55,35.9 L63.54,37.2 L67.55,38.51 Z" fill="none" stroke="currentColor" stroke-width="1.5"/></svg>