<svg xmlns="http://www.w3.org/2000/svg" viewBox="0 0 65.34 27.89" width="24" height="24"><path d="M14.22,0 L14.22,27.89" fill="none" stroke="currentColor" stroke-width="1.5"/><rect x="0" y="0" width="0" height="0" fill="none" stroke="currentColor"/><path d="M32.86,12.16 L29.1,10.25 L31.02,14.01 Z" fill="none" stroke="currentColor" stroke-width="1.5"/><path d="M9.54,0.01 L55.97,0.01 L55.97,27.88 L9.54,27.88 Z M0,13.97 L9.54,13.97 M55.97,13.97 L65.34,13.97 M37.01,18.11 L31.99,13.11 M51.31,9.49 L51.31,0.01 M41.96,13.88 C41.96,18.97 37.84,23.09 32.75,23.09 C27.66,23.09 23.54,18.97 23.54,13.88 C23.54,8.79 27.66,4.67 32.75,4.67 C37.84,4.67 41.96,8.79 41.96,13.88 Z" fill="none" stroke="currentColor" stroke-width="1.5"/></svg>