<svg xmlns="http://www.w3.org/2000/svg" viewBox="0 0 56.13 51.18" width="24" height="24"><path d="M28.24,19.71 L23.46,20.69 L32.87,22.63 L23.46,24.56 L32.87,26.5 L23.46,28.44 L32.87,30.37 L28.18,31.56 M23.43,32.33 L28.13,36.98 L33.06,32.29 M30.39,33.77 C30.39,34.99 29.4,35.98 28.18,35.98 C26.96,35.98 25.97,34.99 25.97,33.77 C25.97,32.55 26.96,31.56 28.18,31.56 C29.4,31.56 30.39,32.55 30.39,33.77 Z M28.16,36.98 L28.16,51.18 M28.16,11.55 L28.16,31.56 M0,9.3 L56.13,9.3 M9.65,0 L46.75,0 L46.75,41.84 L9.65,41.84 Z M21.09,14.38 C25.32,10.66 30.96,10.73 35.08,14.38 M21.09,4.21 C25.32,7.92 30.96,7.86 35.08,4.21" fill="none" stroke="currentColor" stroke-width="1.5"/></svg>