<svg xmlns="http://www.w3.org/2000/svg" viewBox="0 0 161.85 30.6" width="24" height="24"><path d="M0,0 L0,30.6 L161.85,30.6 L161.85,0 Z" fill="none" stroke="currentColor" stroke-width="1.5"/><path d="M80.82,11.14 C83.13,11.14 84.99,13 84.99,15.3 C84.99,17.6 83.13,19.46 80.82,19.46 C78.52,19.46 76.66,17.6 76.66,15.3 C76.66,13 78.52,11.14 80.82,11.14 Z M80.82,10.14 C77.98,10.14 75.66,12.46 75.66,15.3 C75.66,18.15 77.98,20.46 80.82,20.46 C83.67,20.46 85.99,18.15 85.99,15.3 C85.99,12.46 83.67,10.14 80.82,10.14 Z M8.83,1 L152.65,1 L152.65,10.59 C151.34,10.71 150.25,11.2 149.53,12.01 C148.72,12.92 148.32,14.12 148.32,15.32 C148.32,16.51 148.72,17.71 149.53,18.62 C150.25,19.43 151.34,19.92 152.65,20.04 L152.65,29.6 L8.83,29.6 L8.83,20.04 C10.14,19.92 11.24,19.43 11.95,18.62 C12.77,17.71 13.16,16.51 13.16,15.32 C13.16,14.12 12.77,12.92 11.95,12.01 C11.24,11.2 10.14,10.71 8.83,10.59 Z M0,0 L0,0.5 L0,30.6 L161.85,30.6 L161.85,0 Z" fill="none" stroke="currentColor" stroke-width="1.5"/><rect x="0" y="0" width="0" height="0" fill="none" stroke="currentColor"/><path d="M88.82,17.3 L144.82,17.3 L144.82,27.95 L88.82,27.95 Z M17.83,17.3 L73.83,17.3 L73.83,27.95 L17.83,27.95 Z M88.82,2.5 L144.82,2.5 L144.82,13.15 L88.82,13.15 Z M17.83,2.5 L73.83,2.5 L73.83,13.15 L17.83,13.15 Z" fill="none" stroke="currentColor" stroke-width="1.5"/></svg>