<svg xmlns="http://www.w3.org/2000/svg" viewBox="0 0 161.85 45.35" width="24" height="24"><path d="M0,0 L0,45.35 L161.85,45.35 L161.85,0 Z" fill="none" stroke="currentColor" stroke-width="1.5"/><path d="M0,0 L0,45.35 L161.85,45.35 L161.85,0 Z M8.83,1 L152.65,1 L152.65,17.95 C151.34,18.07 150.25,18.57 149.54,19.37 C148.72,20.28 148.33,21.48 148.33,22.68 C148.33,23.87 148.72,25.07 149.54,25.98 C150.25,26.78 151.34,27.27 152.65,27.4 L152.65,44.35 L8.83,44.35 L8.83,27.4 C10.14,27.27 11.23,26.79 11.95,25.98 C12.76,25.07 13.16,23.87 13.16,22.68 C13.16,21.48 12.76,20.28 11.95,19.37 C11.23,18.57 10.14,18.07 8.83,17.95 Z M80.82,17.52 C77.98,17.52 75.66,19.83 75.66,22.68 C75.66,25.52 77.98,27.83 80.82,27.83 C83.67,27.83 85.99,25.52 85.99,22.68 C85.99,19.83 83.67,17.52 80.82,17.52 Z M80.82,18.52 C83.13,18.52 84.99,20.38 84.99,22.68 C84.99,24.98 83.13,26.83 80.82,26.83 C78.52,26.83 76.66,24.98 76.66,22.68 C76.66,20.38 78.52,18.52 80.82,18.52 Z" fill="none" stroke="currentColor" stroke-width="1.5"/><rect x="0" y="0" width="0" height="0" fill="none" stroke="currentColor"/><path d="M88.82,23.61 L144.82,23.61 L144.82,42.74 L88.82,42.74 Z M17.83,23.61 L73.83,23.61 L73.83,42.74 L17.83,42.74 Z M88.82,2.5 L144.82,2.5 L144.82,21.62 L88.82,21.62 Z M17.83,2.5 L73.83,2.5 L73.83,21.62 L17.83,21.62 Z" fill="none" stroke="currentColor" stroke-width="1.5"/></svg>