<svg xmlns="http://www.w3.org/2000/svg" viewBox="0 0 161.85 45.35" width="24" height="24"><path d="M0,0 C0,15.12 0,30.23 0,45.35 C57.13,45.35 112.17,45.35 161.85,45.35 L161.85,0 C104.63,0 49.83,0 0,0 Z" fill="none" stroke="currentColor" stroke-width="1.5"/><path d="M0,0 L0,45.35 L161.85,45.35 L161.85,0 Z M1,1 L6,1 L6,44.35 L1,44.35 Z M7,1 L155.32,1 L155.32,44.35 L7,44.35 Z M156.32,1 L160.85,1 L160.85,44.35 L156.32,44.35 Z" fill="none" stroke="currentColor" stroke-width="1.5"/><path d="M1,1 L6,1 L6,44.35 L1,44.35 Z" fill="none" stroke="currentColor" stroke-width="1.5"/><path d="M156.32,1 L160.85,1 L160.85,44.35 L156.32,44.35 Z" fill="none" stroke="currentColor" stroke-width="1.5"/></svg>