<svg xmlns="http://www.w3.org/2000/svg" viewBox="0 0 161.85 30.75" width="24" height="24"><path d="M0,0 L0,30.75 L161.85,30.75 L161.85,0 Z" fill="none" stroke="currentColor" stroke-width="1.5"/><path d="M8.83,1 L152.65,1 L152.65,12.07 C151.81,12.19 151.08,12.51 150.6,13.05 C150.03,13.7 149.75,14.54 149.75,15.38 C149.75,16.21 150.03,17.05 150.6,17.7 C151.08,18.24 151.81,18.56 152.65,18.68 L152.65,29.75 L8.83,29.75 L8.83,18.68 C9.68,18.56 10.4,18.24 10.88,17.7 C11.46,17.05 11.73,16.21 11.73,15.38 C11.73,14.54 11.46,13.7 10.88,13.05 C10.4,12.51 9.68,12.19 8.83,12.07 Z M0,0 L0,30.75 L161.85,30.75 L161.85,0 Z" fill="none" stroke="currentColor" stroke-width="1.5"/><rect x="0" y="0" width="0" height="0" fill="none" stroke="currentColor"/><rect x="91.82" y="2.95" width="53.99" height="25.21" fill="none" stroke="currentColor"/><path d="M16.83,25.93 L89.16,25.93 L89.16,28.16 L16.83,28.16 Z M16.83,22.59 L89.16,22.59 L89.16,24.82 L16.83,24.82 Z M16.83,19.24 L89.16,19.24 L89.16,21.47 L16.83,21.47 Z M16.83,16.12 L89.16,16.12 L89.16,18.35 L16.83,18.35 Z M16.83,12.77 L89.16,12.77 L89.16,15 L16.83,15 Z M16.83,9.42 L89.16,9.42 L89.16,11.65 L16.83,11.65 Z M16.83,6.3 L89.16,6.3 L89.16,8.53 L16.83,8.53 Z M16.83,2.95 L89.16,2.95 L89.16,5.19 L16.83,5.19 Z" fill="none" stroke="currentColor" stroke-width="1.5"/></svg>