<svg xmlns="http://www.w3.org/2000/svg" viewBox="0 0 161.85 74.75" width="24" height="24"><path d="M0,0 L0,74.75 L161.85,74.75 L161.85,0 Z" fill="none" stroke="currentColor" stroke-width="1.5"/><path d="M8.83,1 L152.65,1 L152.65,29.93 C146.74,33.11 146.74,41.64 152.65,44.82 L152.65,73.75 L8.83,73.75 L8.83,44.82 C14.75,41.65 14.75,33.1 8.83,29.93 Z M0,0 L0,74.75 L161.85,74.75 L161.85,0 Z" fill="none" stroke="currentColor" stroke-width="1.5"/><rect x="0" y="0" width="0" height="0" fill="none" stroke="currentColor"/><rect x="100.5" y="18.5" width="43" height="38" fill="none" stroke="currentColor"/><path d="M16.83,63.55 L143.83,63.55 L143.83,69.08 L16.83,69.08 Z M16.83,55.25 L89.16,55.25 L89.16,60.78 L16.83,60.78 Z M16.83,46.96 L89.16,46.96 L89.16,52.49 L16.83,52.49 Z M16.83,39.21 L89.16,39.21 L89.16,44.74 L16.83,44.74 Z M16.83,30.92 L89.16,30.92 L89.16,36.45 L16.83,36.45 Z M16.83,22.62 L89.16,22.62 L89.16,28.15 L16.83,28.15 Z M16.83,14.88 L89.16,14.88 L89.16,20.41 L16.83,20.41 Z M16.83,6.58 L143.83,6.58 L143.83,12.11 L16.83,12.11 Z" fill="none" stroke="currentColor" stroke-width="1.5"/></svg>