<svg xmlns="http://www.w3.org/2000/svg" viewBox="0 0 161.85 50.85" width="24" height="24"><path d="M0,0 L0,0.5 L0,50.85 L161.85,50.85 L161.85,0 Z" fill="none" stroke="currentColor" stroke-width="1.5"/><path d="M0,0 C0,16.95 0,33.9 0,50.85 L161.85,50.85 L161.85,0 Z M1,1 L160.85,1 L160.85,49.85 L1,49.85 Z M148.5,20 C142.71,20 138,24.71 138,30.5 C138,31.65 138.19,32.76 138.54,33.8 L100.4,33.8 L100.4,39.8 L14.4,39.8 L14.4,48.7 L140.4,48.7 L140.4,37.18 C142.33,39.51 145.24,41 148.5,41 C154.29,41 159,36.29 159,30.5 C159,24.71 154.29,20 148.5,20 Z M101.4,34.8 L138.93,34.8 C139.07,35.12 139.23,35.42 139.4,35.72 L139.4,47.7 L15.4,47.7 L15.4,40.8 L101.4,40.8 L101.4,40.3 Z" fill="none" stroke="currentColor" stroke-width="1.5"/><path d="M1,1 L1,49.85 L160.85,49.85 L160.85,1 Z M148.5,20 C154.29,20 159,24.71 159,30.5 C159,36.29 154.29,41 148.5,41 C145.24,41 142.33,39.51 140.4,37.18 L140.4,48.7 L14.4,48.7 L14.4,39.8 L100.4,39.8 L100.4,33.8 L138.54,33.8 C138.19,32.76 138,31.65 138,30.5 C138,24.71 142.71,20 148.5,20 Z M101.4,34.8 L101.4,40.3 L101.4,40.8 L15.4,40.8 L15.4,47.7 L139.4,47.7 L139.4,35.72 C139.23,35.42 139.07,35.12 138.93,34.8 Z" fill="none" stroke="currentColor" stroke-width="1.5"/><rect x="0" y="0" width="0" height="0" fill="none" stroke="currentColor"/><ellipse cx="32.5" cy="32.5" rx="25.0" ry="5.0" fill="none" stroke="currentColor"/><rect x="132.5" y="45" width="2" height="2.5" fill="none" stroke="currentColor"/><path d="M60,41 C60,43 60,45 60,47 L75,47 L75,41 Z M42,41 C42,43 42,45 42,47 L57,47 L57,41 Z M105,35.5 C105,38.17 105,40.83 105,43.5 L136,43.5 C136,40.83 136,38.17 136,35.5 Z" fill="none" stroke="currentColor" stroke-width="1.5"/><path d="M61,42 L74,42 L74,46 L61,46 Z M43,42 L56,42 L56,46 L43,46 Z" fill="none" stroke="currentColor" stroke-width="1.5"/><path d="M148.5,21 C153.75,21 158,25.25 158,30.5 C158,35.75 153.75,40 148.5,40 C143.25,40 139,35.75 139,30.5 C139,25.25 143.25,21 148.5,21 Z" fill="none" stroke="currentColor" stroke-width="1.5"/><rect x="0" y="0" width="0" height="0" fill="none" stroke="currentColor"/><rect x="128.5" y="45" width="2" height="2.5" fill="none" stroke="currentColor"/><rect x="124.5" y="45" width="2" height="2.5" fill="none" stroke="currentColor"/><rect x="120.5" y="45" width="2" height="2.5" fill="none" stroke="currentColor"/><rect x="114.5" y="45" width="2" height="2.5" fill="none" stroke="currentColor"/><rect x="110.5" y="45" width="2" height="2.5" fill="none" stroke="currentColor"/><rect x="106.5" y="45" width="2" height="2.5" fill="none" stroke="currentColor"/><rect x="102.5" y="45" width="2" height="2.5" fill="none" stroke="currentColor"/><ellipse cx="23.5" cy="42.5" rx="1.0" ry="1.0" fill="none" stroke="currentColor"/><ellipse cx="20.5" cy="42.5" rx="1.0" ry="1.0" fill="none" stroke="currentColor"/><ellipse cx="17.5" cy="42.5" rx="1.0" ry="1.0" fill="none" stroke="currentColor"/><ellipse cx="17.5" cy="45.5" rx="1.0" ry="1.0" fill="none" stroke="currentColor"/><ellipse cx="20.5" cy="45.5" rx="1.0" ry="1.0" fill="none" stroke="currentColor"/><ellipse cx="23.5" cy="45.5" rx="1.0" ry="1.0" fill="none" stroke="currentColor"/><path d="M131,40 L135,40 L135,42.5 L131,42.5 Z M126,40 L130,40 L130,42.5 L126,42.5 Z M121,40 L125,40 L125,42.5 L121,42.5 Z M116,40 L120,40 L120,42.5 L116,42.5 Z M111,40 L115,40 L115,42.5 L111,42.5 Z M106,40 L110,40 L110,42.5 L106,42.5 Z M131,36.5 L135,36.5 L135,39 L131,39 Z M126,36.5 L130,36.5 L130,39 L126,39 Z M121,36.5 L125,36.5 L125,39 L121,39 Z M116,36.5 L120,36.5 L120,39 L116,39 Z M111,36.5 L115,36.5 L115,39 L111,39 Z M106,36.5 L110,36.5 L110,39 L106,39 Z" fill="none" stroke="currentColor" stroke-width="1.5"/><path d="M61,42 L74,42 L74,46 L61,46 Z M43,42 L56,42 L56,46 L43,46 Z" fill="none" stroke="currentColor" stroke-width="1.5"/></svg>