<svg xmlns="http://www.w3.org/2000/svg" viewBox="0 0 161.85 15.95" width="24" height="24"><path d="M0,0 C0,5.32 0,10.63 0,15.95 L161.85,15.95 L161.85,0 Z" fill="none" stroke="currentColor" stroke-width="1.5"/><path d="M0,0 L0,0.5 L0,15.95 L161.85,15.95 L161.85,0 Z M1,1 L160.85,1 L160.85,14.95 L1,14.95 Z M5.5,2.5 L5.5,7 L25.5,7 L25.5,2.5 Z M152.5,2.5 C149.47,2.5 147,4.97 147,8 C147,11.03 149.47,13.5 152.5,13.5 C155.53,13.5 158,11.03 158,8 C158,4.97 155.53,2.5 152.5,2.5 Z M152.5,3.5 C154.99,3.5 157,5.51 157,8 C157,10.49 154.99,12.5 152.5,12.5 C150.01,12.5 148,10.49 148,8 C148,5.51 150.01,3.5 152.5,3.5 Z M5.5,9 L5.5,13.5 L25.5,13.5 L25.5,9 Z" fill="none" stroke="currentColor" stroke-width="1.5"/><path d="M5.5,9 L5.5,13.5 L31.5,13.5 L31.5,9 Z M5.5,2.5 L5.5,7 L31.5,7 L31.5,2.5 Z M1,1 L160.85,1 L160.85,14.95 L1,14.95 Z" fill="none" stroke="currentColor" stroke-width="1.5"/><path d="M152.5,3.5 C154.99,3.5 157,5.51 157,8 C157,10.49 154.99,12.5 152.5,12.5 C150.01,12.5 148,10.49 148,8 C148,5.51 150.01,3.5 152.5,3.5 Z" fill="none" stroke="currentColor" stroke-width="1.5"/><path d="M88,8.5 C88,10 88,11.5 88,13 L109,13 L109,8.5 Z M37,8.5 C37,10 37,11.5 37,13 L58,13 L58,8.5 Z M95,4 C95,5.17 95,6.33 95,7.5 L101,7.5 L101,4 Z M88,4 C88,5.17 88,6.33 88,7.5 L94,7.5 L94,4 Z M103,2 C103,3.5 103,5 103,6.5 L109,6.5 L109,2 Z" fill="none" stroke="currentColor" stroke-width="1.5"/><rect x="0" y="0" width="0" height="0" fill="none" stroke="currentColor"/><ellipse cx="50.75" cy="4.75" rx="11.0" ry="2.5" fill="none" stroke="currentColor"/><path d="M115.25,2.38 L121.25,2.38 L121.25,4.88 L115.25,4.88 Z M115.25,6.38 L121.25,6.38 L121.25,8.88 L115.25,8.88 Z M115.25,10.38 L121.25,10.38 L121.25,12.88 L115.25,12.88 Z M122.75,2.5 L128.75,2.5 L128.75,5 L122.75,5 Z M122.75,6.5 L128.75,6.5 L128.75,9 L122.75,9 Z M122.75,10.5 L128.75,10.5 L128.75,13 L122.75,13 Z M130.5,2.5 L136.5,2.5 L136.5,5 L130.5,5 Z M130.5,6.5 L136.5,6.5 L136.5,9 L130.5,9 Z M130.5,10.5 L136.5,10.5 L136.5,13 L130.5,13 Z M138.5,10.5 L144.5,10.5 L144.5,13 L138.5,13 Z M138.5,6.5 L144.5,6.5 L144.5,9 L138.5,9 Z M104,9.5 L108,9.5 L108,12 L104,12 Z M99,9.5 L103,9.5 L103,12 L99,12 Z M94,9.5 L98,9.5 L98,12 L94,12 Z M89,9.5 L93,9.5 L93,12 L89,12 Z M53,9.5 L57,9.5 L57,12 L53,12 Z M48,9.5 L52,9.5 L52,12 L48,12 Z M43,9.5 L47,9.5 L47,12 L43,12 Z M38,9.5 L42,9.5 L42,12 L38,12 Z M96,5 L100,5 L100,6.5 L96,6.5 Z M89,5 L93,5 L93,6.5 L89,6.5 Z M104,3 L108,3 L108,5.5 L104,5.5 Z M138.5,2.5 L144.5,2.5 L144.5,5 L138.5,5 Z" fill="none" stroke="currentColor" stroke-width="1.5"/></svg>