<svg xmlns="http://www.w3.org/2000/svg" viewBox="0 0 161.85 30.9" width="24" height="24"><path d="M0,0 C0,10.3 0,20.6 0,30.9 L161.85,30.9 L161.85,0 Z" fill="none" stroke="currentColor" stroke-width="1.5"/><path d="M0,0 L0,30.9 L161.85,30.9 L161.85,0 Z M1,1 L160.85,1 L160.85,29.9 L91,29.9 L91,21.9 L20,21.9 L20,29.9 L1,29.9 Z M41,24.5 L41,29 L35,29 L35,24.5 Z M48,24.5 L48,29 L42,29 L42,24.5 Z M86,24.5 L86,29 L65,29 L65,24.5 Z" fill="none" stroke="currentColor" stroke-width="1.5"/><path d="M1,1 L1,29.9 L20.5,29.9 L20.5,22.4 L90.5,22.4 L90.5,29.9 L160.85,29.9 L160.85,1 Z M140.5,5 C144.69,5 148.48,5.56 151.27,6.49 C152.66,6.95 153.8,7.51 154.63,8.16 C155.46,8.81 156,9.61 156,10.5 C156,11.39 155.46,12.19 154.63,12.84 C153.8,13.49 152.66,14.05 151.27,14.51 C148.48,15.44 144.69,16 140.5,16 C136.31,16 132.52,15.44 129.73,14.51 C128.34,14.05 127.2,13.49 126.37,12.84 C125.54,12.19 125,11.39 125,10.5 C125,9.61 125.54,8.81 126.37,8.16 C127.2,7.51 128.34,6.95 129.73,6.49 C132.52,5.56 136.31,5 140.5,5 Z M140.5,6 C136.4,6 132.69,6.56 130.05,7.44 C128.73,7.88 127.68,8.4 126.99,8.95 C126.3,9.49 126,10.01 126,10.5 C126,10.99 126.3,11.51 126.99,12.05 C127.68,12.6 128.73,13.12 130.05,13.56 C132.69,14.44 136.4,15 140.5,15 C144.6,15 148.31,14.44 150.95,13.56 C152.27,13.12 153.32,12.6 154.01,12.05 C154.7,11.51 155,10.99 155,10.5 C155,10.01 154.7,9.49 154.01,8.95 C153.32,8.4 152.27,7.88 150.95,7.44 C148.31,6.56 144.6,6 140.5,6 Z" fill="none" stroke="currentColor" stroke-width="1.5"/><path d="M65,24.5 L65,25 L65,29 L86,29 L86,24.5 Z M42,24.5 L42,25 L42,29 L48,29 L48,24.5 Z M35,24.5 L35,25 L35,29 L41,29 L41,24.5 Z" fill="none" stroke="currentColor" stroke-width="1.5"/><path d="M81,25.5 L85,25.5 L85,28 L81,28 Z M76,25.5 L80,25.5 L80,28 L76,28 Z M71,25.5 L75,25.5 L75,28 L71,28 Z M66,25.5 L70,25.5 L70,28 L66,28 Z M43,25.5 L47,25.5 L47,28 L43,28 Z M36,25.5 L40,25.5 L40,28 L36,28 Z" fill="none" stroke="currentColor" stroke-width="1.5"/></svg>