<svg xmlns="http://www.w3.org/2000/svg" viewBox="0 0 161.85 15.95" width="24" height="24"><path d="M0,0 L0,0.5 L0,15.95 L161.85,15.95 L161.85,0 Z" fill="none" stroke="currentColor" stroke-width="1.5"/><path d="M0,0 C0,5.32 0,10.63 0,15.95 L161.85,15.95 L161.85,0 Z M1,1 L160.85,1 L160.85,14.95 L1,14.95 Z M32,1.5 L32,14.5 L38,14.5 L38,1.5 Z M150.5,1.5 C146.92,1.5 144,4.42 144,8 C144,11.58 146.92,14.5 150.5,14.5 C154.08,14.5 157,11.58 157,8 C157,4.42 154.08,1.5 150.5,1.5 Z M62.5,2 L62.5,14 L88.5,14 L88.5,2 Z M133.5,3.5 L133.5,6.5 L130.5,6.5 L130.5,9.5 L133.5,9.5 L133.5,12.5 L136.5,12.5 L136.5,9.5 L139.5,9.5 L139.5,6.5 L136.5,6.5 L136.5,3.5 Z" fill="none" stroke="currentColor" stroke-width="1.5"/><path d="M1,1 L1,14.95 L160.85,14.95 L160.85,1 Z M32,1.5 L38,1.5 L38,14.5 L32,14.5 Z M150.5,1.5 C154.08,1.5 157,4.42 157,8 C157,11.58 154.08,14.5 150.5,14.5 C146.92,14.5 144,11.58 144,8 C144,4.42 146.92,1.5 150.5,1.5 Z M62.5,2 L88.5,2 L88.5,14 L62.5,14 Z M133.5,3.5 L136.5,3.5 L136.5,6.5 L139.5,6.5 L139.5,9.5 L136.5,9.5 L136.5,12.5 L133.5,12.5 L133.5,9.5 L130.5,9.5 L130.5,6.5 L133.5,6.5 Z" fill="none" stroke="currentColor" stroke-width="1.5"/><path d="M150.5,2.5 C153.54,2.5 156,4.96 156,8 C156,11.04 153.54,13.5 150.5,13.5 C147.46,13.5 145,11.04 145,8 C145,4.96 147.46,2.5 150.5,2.5 Z" fill="none" stroke="currentColor" stroke-width="1.5"/><path d="M20,4 L20,12 L31,12 L31,4 Z M12,4 L12,12 L18,12 L18,4 Z M4,3 L4,12.5 L10,12.5 L10,3 Z" fill="none" stroke="currentColor" stroke-width="1.5"/><rect x="0" y="0" width="0" height="0" fill="none" stroke="currentColor"/><rect x="101.5" y="5.5" width="26" height="7" fill="none" stroke="currentColor"/><path d="M55.5,9 L60.5,9 L60.5,12.5 L55.5,12.5 Z M50,9 L55,9 L55,12.5 L50,12.5 Z M44.5,9 L49.5,9 L49.5,12.5 L44.5,12.5 Z M39,9 L44,9 L44,12.5 L39,12.5 Z M55.5,4.5 L60.5,4.5 L60.5,8 L55.5,8 Z M50,4.5 L55,4.5 L55,8 L50,8 Z M44.5,4.5 L49.5,4.5 L49.5,8 L44.5,8 Z M39,4.5 L44,4.5 L44,8 L39,8 Z M26,8.5 L30,8.5 L30,11 L26,11 Z M21,8.5 L25,8.5 L25,11 L21,11 Z M13,8.5 L17,8.5 L17,11 L13,11 Z M5,7.5 L9,7.5 L9,11.5 L5,11.5 Z M26,5 L30,5 L30,7.5 L26,7.5 Z M21,5 L25,5 L25,7.5 L21,7.5 Z M13,5 L17,5 L17,7.5 L13,7.5 Z M5,4 L9,4 L9,6.5 L5,6.5 Z" fill="none" stroke="currentColor" stroke-width="1.5"/></svg>