<svg xmlns="http://www.w3.org/2000/svg" viewBox="0 0 161.85 30.9" width="24" height="24"><path d="M0,0 L0,30.9 L161.85,30.9 L161.85,0 Z" fill="none" stroke="currentColor" stroke-width="1.5"/><path d="M0,0 L0,30.9 L161.85,30.9 L161.85,0 Z M1,1 L160.85,1 L160.85,15 L1,15 Z M3.5,2.5 L3.5,3.5 L158.5,3.5 L158.5,2.5 Z M3.5,5 L3.5,6 L158.5,6 L158.5,5 Z M3.5,7.5 L3.5,8.5 L158.5,8.5 L158.5,7.5 Z M3.5,10 L3.5,11 L158.5,11 L158.5,10 Z M3.5,12.5 L3.5,13.5 L158.5,13.5 L158.5,12.5 Z M1,16 L160.85,16 L160.85,29.9 L1,29.9 Z M150.5,16.5 C146.92,16.5 144,19.42 144,23 C144,26.58 146.92,29.5 150.5,29.5 C154.08,29.5 157,26.58 157,23 C157,19.42 154.08,16.5 150.5,16.5 Z M133.5,19 L133.5,22 L130.5,22 L130.5,25 L133.5,25 L133.5,28 L136.5,28 L136.5,25 L139.5,25 L139.5,22 L136.5,22 L136.5,19 Z" fill="none" stroke="currentColor" stroke-width="1.5"/><path d="M1,16 L1,29.9 L160.85,29.9 L160.85,16 Z M14,18.5 L22,18.5 L22,21.5 L14,21.5 Z M14,25.5 L22,25.5 L22,28.5 L14,28.5 Z" fill="none" stroke="currentColor" stroke-width="1.5"/><path d="M150.5,17.5 C153.54,17.5 156,19.96 156,23 C156,26.04 153.54,28.5 150.5,28.5 C147.46,28.5 145,26.04 145,23 C145,19.96 147.46,17.5 150.5,17.5 Z" fill="none" stroke="currentColor" stroke-width="1.5"/><path d="M4,18.5 L4,28 L10,28 L10,18.5 Z M25,19.5 L25,27.5 L66,27.5 L66,19.5 Z" fill="none" stroke="currentColor" stroke-width="1.5"/><path d="M14,25.5 L22,25.5 L22,28.5 L14,28.5 Z M14,18.5 L22,18.5 L22,21.5 L14,21.5 Z" fill="none" stroke="currentColor" stroke-width="1.5"/><rect x="0" y="0" width="0" height="0" fill="none" stroke="currentColor"/><path d="M84,24.5 L89,24.5 L89,28 L84,28 Z M78.5,24.5 L83.5,24.5 L83.5,28 L78.5,28 Z M73,24.5 L78,24.5 L78,28 L73,28 Z M67.5,24.5 L72.5,24.5 L72.5,28 L67.5,28 Z M84,19.5 L89,19.5 L89,23 L84,23 Z M78.5,19.5 L83.5,19.5 L83.5,23 L78.5,23 Z M73,19.5 L78,19.5 L78,23 L73,23 Z M67.5,19.5 L72.5,19.5 L72.5,23 L67.5,23 Z M61,24 L65,24 L65,26.5 L61,26.5 Z M56,24 L60,24 L60,26.5 L56,26.5 Z M51,24 L55,24 L55,26.5 L51,26.5 Z M46,24 L50,24 L50,26.5 L46,26.5 Z M41,24 L45,24 L45,26.5 L41,26.5 Z M36,24 L40,24 L40,26.5 L36,26.5 Z M31,24 L35,24 L35,26.5 L31,26.5 Z M26,24 L30,24 L30,26.5 L26,26.5 Z M5,23 L9,23 L9,27 L5,27 Z M61,20.5 L65,20.5 L65,23 L61,23 Z M56,20.5 L60,20.5 L60,23 L56,23 Z M51,20.5 L55,20.5 L55,23 L51,23 Z M46,20.5 L50,20.5 L50,23 L46,23 Z M41,20.5 L45,20.5 L45,23 L41,23 Z M36,20.5 L40,20.5 L40,23 L36,23 Z M31,20.5 L35,20.5 L35,23 L31,23 Z M26,20.5 L30,20.5 L30,23 L26,23 Z M5,19.5 L9,19.5 L9,22 L5,22 Z" fill="none" stroke="currentColor" stroke-width="1.5"/><path d="M13,17.5 L13,22.5 L23,22.5 L23,17.5 Z M14,18.5 L22,18.5 L22,21.5 L14,21.5 Z M13,24.5 L13,29.5 L23,29.5 L23,24.5 Z M14,25.5 L22,25.5 L22,28.5 L14,28.5 Z" fill="none" stroke="currentColor" stroke-width="1.5"/><rect x="0" y="0" width="0" height="0" fill="none" stroke="currentColor"/><rect x="101.5" y="21" width="26" height="7" fill="none" stroke="currentColor"/></svg>