<svg xmlns="http://www.w3.org/2000/svg" viewBox="0 0 161.85 15.95" width="24" height="24"><path d="M0,0 L0,0.5 L0,15.95 L161.85,15.95 L161.85,0 Z" fill="none" stroke="currentColor" stroke-width="1.5"/><path d="M0,0 L0,15.95 L161.85,15.95 L161.85,0 Z M1,1 L160.85,1 L160.85,14.95 L1,14.95 Z M150.5,1.5 C146.92,1.5 144,4.42 144,8 C144,11.58 146.92,14.5 150.5,14.5 C154.08,14.5 157,11.58 157,8 C157,4.42 154.08,1.5 150.5,1.5 Z M53.5,2.5 L53.5,7.5 L91.5,7.5 L91.5,2.5 Z M133.5,3.5 L133.5,6.5 L130.5,6.5 L130.5,9.5 L133.5,9.5 L133.5,12.5 L136.5,12.5 L136.5,9.5 L139.5,9.5 L139.5,6.5 L136.5,6.5 L136.5,3.5 Z M71.5,8.5 L71.5,12.5 L91.5,12.5 L91.5,8.5 Z" fill="none" stroke="currentColor" stroke-width="1.5"/><path d="M150.5,2.5 C153.54,2.5 156,4.96 156,8 C156,11.04 153.54,13.5 150.5,13.5 C147.46,13.5 145,11.04 145,8 C145,4.96 147.46,2.5 150.5,2.5 Z" fill="none" stroke="currentColor" stroke-width="1.5"/><path d="M1,1 L1,14.95 L160.85,14.95 L160.85,1 Z M150.5,1.5 C154.08,1.5 157,4.42 157,8 C157,11.58 154.08,14.5 150.5,14.5 C146.92,14.5 144,11.58 144,8 C144,4.42 146.92,1.5 150.5,1.5 Z M53.5,2.5 L91.5,2.5 L91.5,7.5 L53.5,7.5 Z M133.5,3.5 L136.5,3.5 L136.5,6.5 L139.5,6.5 L139.5,9.5 L136.5,9.5 L136.5,12.5 L133.5,12.5 L133.5,9.5 L130.5,9.5 L130.5,6.5 L133.5,6.5 Z M71.5,8.5 L91.5,8.5 L91.5,12.5 L71.5,12.5 Z" fill="none" stroke="currentColor" stroke-width="1.5"/><path d="M14,9 L14,14 L24,14 L24,9 Z M41,4.5 L41,12.5 L52,12.5 L52,4.5 Z M29,4.5 L29,12.5 L40,12.5 L40,4.5 Z M4,3 L4,12.5 L10,12.5 L10,3 Z M14,2 L14,7 L24,7 L24,2 Z" fill="none" stroke="currentColor" stroke-width="1.5"/><path d="M15,10 L23,10 L23,13 L15,13 Z M15,3 L23,3 L23,6 L15,6 Z" fill="none" stroke="currentColor" stroke-width="1.5"/><rect x="0" y="0" width="0" height="0" fill="none" stroke="currentColor"/><path d="M57,9 L62,9 L62,12.5 L57,12.5 Z M62.5,9 L67.5,9 L67.5,12.5 L62.5,12.5 Z M47,9 L51,9 L51,11.5 L47,11.5 Z M42,9 L46,9 L46,11.5 L42,11.5 Z M35,9 L39,9 L39,11.5 L35,11.5 Z M30,9 L34,9 L34,11.5 L30,11.5 Z M5,7.5 L9,7.5 L9,11.5 L5,11.5 Z M47,5.5 L51,5.5 L51,8 L47,8 Z M42,5.5 L46,5.5 L46,8 L42,8 Z M35,5.5 L39,5.5 L39,8 L35,8 Z M30,5.5 L34,5.5 L34,8 L30,8 Z M5,4 L9,4 L9,6.5 L5,6.5 Z" fill="none" stroke="currentColor" stroke-width="1.5"/><rect x="101.5" y="5.5" width="26" height="7" fill="none" stroke="currentColor"/></svg>