<svg xmlns="http://www.w3.org/2000/svg" viewBox="0 0 161.85 45.85" width="24" height="24"><path d="M0,0 L0,45.85 L161.85,45.85 L161.85,0 Z" fill="none" stroke="currentColor" stroke-width="1.5"/><path d="M1,16 L1,44.85 L160.85,44.85 L160.85,16 L124,16 L124,36 L30,36 L30,29 L4,29 L4,16 Z M129.5,33.33 L132.5,33.33 L132.5,36.33 L135.5,36.33 L135.5,39.33 L132.5,39.33 L132.5,42.33 L129.5,42.33 L129.5,39.33 L126.5,39.33 L126.5,36.33 L129.5,36.33 Z" fill="none" stroke="currentColor" stroke-width="1.5"/><path d="M0,0 L0,45.85 L161.85,45.85 L161.85,0 Z M1,1 L160.85,1 L160.85,15 L1,15 Z M150.5,1.5 C149.23,1.5 148.05,1.87 147.05,2.5 L3.5,2.5 L3.5,3.5 L145.82,3.5 C145.39,3.94 145.03,4.45 144.74,5 L3.5,5 L3.5,6 L144.32,6 C144.16,6.48 144.07,6.98 144.03,7.5 L3.5,7.5 L3.5,8.5 L144.03,8.5 C144.07,9.02 144.16,9.52 144.32,10 L3.5,10 L3.5,11 L144.74,11 C145.03,11.55 145.39,12.06 145.82,12.5 L3.5,12.5 L3.5,13.5 L147.05,13.5 C148.05,14.13 149.23,14.5 150.5,14.5 C151.77,14.5 152.95,14.13 153.95,13.5 L158.5,13.5 L158.5,12.5 L155.18,12.5 C155.61,12.06 155.97,11.55 156.26,11 L158.5,11 L158.5,10 L156.68,10 C156.84,9.52 156.93,9.02 156.97,8.5 L158.5,8.5 L158.5,7.5 L156.97,7.5 C156.93,6.98 156.84,6.48 156.68,6 L158.5,6 L158.5,5 L156.26,5 C155.97,4.45 155.61,3.94 155.18,3.5 L158.5,3.5 L158.5,2.5 L153.95,2.5 C152.95,1.87 151.77,1.5 150.5,1.5 Z M1,16 L4,16 L4,29 L30,29 L30,36 L124,36 L124,16 L160.85,16 L160.85,44.85 L1,44.85 Z M129.5,33.33 L129.5,36.33 L126.5,36.33 L126.5,39.33 L129.5,39.33 L129.5,42.33 L132.5,42.33 L132.5,39.33 L135.5,39.33 L135.5,36.33 L132.5,36.33 L132.5,33.33 Z" fill="none" stroke="currentColor" stroke-width="1.5"/><path d="M14,39 C14,40.67 14,42.33 14,44 L24,44 L24,39 Z M4,33.5 C4,36.67 4,39.83 4,43 L10,43 C10,39.83 10,36.67 10,33.5 Z M14,33 C14,34.67 14,36.33 14,38 L24,38 L24,33 Z" fill="none" stroke="currentColor" stroke-width="1.5"/><rect x="0" y="0" width="0" height="0" fill="none" stroke="currentColor"/><rect x="128.5" y="19.5" width="26" height="7" fill="none" stroke="currentColor"/><path d="M115,38.5 L120,38.5 L120,42 L115,42 Z M109.5,38.5 L114.5,38.5 L114.5,42 L109.5,42 Z M52.5,38.5 L57.5,38.5 L57.5,42 L52.5,42 Z M77,38.5 L82,38.5 L82,42 L77,42 Z M71.5,38.5 L76.5,38.5 L76.5,42 L71.5,42 Z M96,38.5 L101,38.5 L101,42 L96,42 Z M90.5,38.5 L95.5,38.5 L95.5,42 L90.5,42 Z M39,38.5 L44,38.5 L44,42 L39,42 Z M33.5,38.5 L38.5,38.5 L38.5,42 L33.5,42 Z M58,38.5 L63,38.5 L63,42 L58,42 Z M15,40 L23,40 L23,43 L15,43 Z M5,38 L9,38 L9,42 L5,42 Z M5,34.5 L9,34.5 L9,37 L5,37 Z M15,34 L23,34 L23,37 L15,37 Z" fill="none" stroke="currentColor" stroke-width="1.5"/><path d="M150.5,2.5 C153.54,2.5 156,4.96 156,8 C156,11.04 153.54,13.5 150.5,13.5 C147.46,13.5 145,11.04 145,8 C145,4.96 147.46,2.5 150.5,2.5 Z" fill="none" stroke="currentColor" stroke-width="1.5"/></svg>