<svg xmlns="http://www.w3.org/2000/svg" viewBox="0 0 161.85 30.9" width="24" height="24"><path d="M0,0 L0,30.9 L161.85,30.9 L161.85,0 Z" fill="none" stroke="currentColor" stroke-width="1.5"/><path d="M0,0 L0,30.9 L161.85,30.9 L161.85,0 Z M1,1 L160.85,1 L160.85,15 L1,15 Z M3.5,2.5 L3.5,3.5 L158.5,3.5 L158.5,2.5 Z M3.5,5 L3.5,6 L158.5,6 L158.5,5 Z M3.5,7.5 L3.5,8.5 L158.5,8.5 L158.5,7.5 Z M3.5,10 L3.5,11 L158.5,11 L158.5,10 Z M3.5,12.5 L3.5,13.5 L158.5,13.5 L158.5,12.5 Z M1,16 L160.85,16 L160.85,29.9 L1,29.9 Z M150.5,16.5 C146.92,16.5 144,19.42 144,23 C144,26.58 146.92,29.5 150.5,29.5 C154.08,29.5 157,26.58 157,23 C157,19.42 154.08,16.5 150.5,16.5 Z M64.5,17 L64.5,20.5 L70.5,20.5 L70.5,23.5 L84.5,23.5 L84.5,20.5 L90.5,20.5 L90.5,17 Z M133.5,19 L133.5,22 L130.5,22 L130.5,25 L133.5,25 L133.5,28 L136.5,28 L136.5,25 L139.5,25 L139.5,22 L136.5,22 L136.5,19 Z" fill="none" stroke="currentColor" stroke-width="1.5"/><path d="M1,16 L160.85,16 L160.85,29.9 L1,29.9 Z M150.5,16.5 C146.92,16.5 144,19.42 144,23 C144,26.58 146.92,29.5 150.5,29.5 C154.08,29.5 157,26.58 157,23 C157,19.42 154.08,16.5 150.5,16.5 Z M64.5,17 L64.5,20.5 L70.5,20.5 L70.5,23.5 L84.5,23.5 L84.5,20.5 L90.5,20.5 L90.5,17 Z M133.5,19 L133.5,22 L130.5,22 L130.5,25 L133.5,25 L133.5,28 L136.5,28 L136.5,25 L139.5,25 L139.5,22 L136.5,22 L136.5,19 Z" fill="none" stroke="currentColor" stroke-width="1.5"/><path d="M150.5,17.5 C153.54,17.5 156,19.96 156,23 C156,26.04 153.54,28.5 150.5,28.5 C147.46,28.5 145,26.04 145,23 C145,19.96 147.46,17.5 150.5,17.5 Z" fill="none" stroke="currentColor" stroke-width="1.5"/><path d="M11,19.5 L11,27.5 L17,27.5 L17,19.5 Z M4,18.5 L4,28 L10,28 L10,18.5 Z" fill="none" stroke="currentColor" stroke-width="1.5"/><rect x="0" y="0" width="0" height="0" fill="none" stroke="currentColor"/><rect x="101.5" y="21" width="26" height="7" fill="none" stroke="currentColor"/><path d="M78.5,24.5 L84.5,24.5 L84.5,28 L78.5,28 Z M70.5,24.5 L76.5,24.5 L76.5,28 L70.5,28 Z M35,24.5 L40,24.5 L40,28 L35,28 Z M29.5,24.5 L34.5,24.5 L34.5,28 L29.5,28 Z M24,24.5 L29,24.5 L29,28 L24,28 Z M18.5,24.5 L23.5,24.5 L23.5,28 L18.5,28 Z M41.5,19.5 L46.5,19.5 L46.5,23 L41.5,23 Z M35,19.5 L40,19.5 L40,23 L35,23 Z M29.5,19.5 L34.5,19.5 L34.5,23 L29.5,23 Z M24,19.5 L29,19.5 L29,23 L24,23 Z M58,24.5 L63,24.5 L63,28 L58,28 Z M52.5,24.5 L57.5,24.5 L57.5,28 L52.5,28 Z M47,24.5 L52,24.5 L52,28 L47,28 Z M41.5,24.5 L46.5,24.5 L46.5,28 L41.5,28 Z M58,19.5 L63,19.5 L63,23 L58,23 Z M52.5,19.5 L57.5,19.5 L57.5,23 L52.5,23 Z M47,19.5 L52,19.5 L52,23 L47,23 Z M18.5,19.5 L23.5,19.5 L23.5,23 L18.5,23 Z M12,24 L16,24 L16,26.5 L12,26.5 Z M5,23 L9,23 L9,27 L5,27 Z M12,20.5 L16,20.5 L16,23 L12,23 Z M5,19.5 L9,19.5 L9,22 L5,22 Z" fill="none" stroke="currentColor" stroke-width="1.5"/></svg>