<svg xmlns="http://www.w3.org/2000/svg" viewBox="0 0 161.9 60.2" width="24" height="24"><path d="M0,0 L0,0.5 L0,60.2 L161.9,60.2 L161.9,0 Z M8.5,2.33 L152.2,2.33 C152.3,2.33 152.37,2.4 152.37,2.5 L152.37,3.49 C152.37,3.6 152.3,3.66 152.2,3.66 L8.5,3.66 C8.4,3.66 8.33,3.6 8.33,3.49 L8.33,2.5 C8.33,2.4 8.4,2.33 8.5,2.33 Z M2.17,2.33 L5.17,2.33 C5.45,2.33 5.67,2.55 5.67,2.83 C5.67,3.11 5.45,3.33 5.17,3.33 L2.17,3.33 C1.88,3.33 1.67,3.11 1.67,2.83 C1.67,2.55 1.88,2.33 2.17,2.33 Z M2.17,27.14 L5.17,27.14 C5.45,27.14 5.67,27.35 5.67,27.64 C5.67,27.92 5.45,28.13 5.17,28.13 L2.17,28.13 C1.88,28.13 1.67,27.92 1.67,27.64 C1.67,27.35 1.88,27.14 2.17,27.14 Z M155.7,2.83 C155.7,2.55 155.91,2.33 156.2,2.33 L159.2,2.33 C159.49,2.33 159.7,2.55 159.7,2.83 C159.7,3.11 159.49,3.33 159.2,3.33 L156.2,3.33 C155.91,3.33 155.7,3.11 155.7,2.83 Z M156.2,27.14 L159.2,27.14 C159.49,27.14 159.7,27.35 159.7,27.64 C159.7,27.92 159.49,28.13 159.2,28.13 L156.2,28.13 C155.91,28.13 155.7,27.92 155.7,27.64 C155.7,27.35 155.91,27.14 156.2,27.14 Z M8.5,17.15 L152.2,17.15 C152.3,17.15 152.37,17.22 152.37,17.32 L152.37,18.31 C152.37,18.41 152.3,18.48 152.2,18.48 L8.5,18.48 C8.4,18.48 8.33,18.41 8.33,18.31 L8.33,17.32 C8.33,17.22 8.4,17.15 8.5,17.15 Z M2.17,31.93 L5.17,31.93 C5.45,31.93 5.67,32.15 5.67,32.43 C5.67,32.72 5.45,32.93 5.17,32.93 L2.17,32.93 C1.88,32.93 1.67,32.72 1.67,32.43 C1.67,32.15 1.88,31.93 2.17,31.93 Z M2.17,56.74 L5.17,56.74 C5.45,56.74 5.67,56.95 5.67,57.24 C5.67,57.52 5.45,57.73 5.17,57.73 L2.17,57.73 C1.88,57.73 1.67,57.52 1.67,57.24 C1.67,56.95 1.88,56.74 2.17,56.74 Z M156.2,56.74 L159.2,56.74 C159.49,56.74 159.7,56.95 159.7,57.24 C159.7,57.52 159.49,57.73 159.2,57.73 L156.2,57.73 C155.91,57.73 155.7,57.52 155.7,57.24 C155.7,56.95 155.91,56.74 156.2,56.74 Z M156.2,31.93 L159.2,31.93 C159.49,31.93 159.7,32.15 159.7,32.43 C159.7,32.72 159.49,32.93 159.2,32.93 L156.2,32.93 C155.91,32.93 155.7,32.72 155.7,32.43 C155.7,32.15 155.91,31.93 156.2,31.93 Z M8.5,31.93 L152.2,31.93 C152.3,31.93 152.37,32 152.37,32.1 L152.37,33.09 C152.37,33.19 152.3,33.26 152.2,33.26 L8.5,33.26 C8.4,33.26 8.33,33.19 8.33,33.09 L8.33,32.1 C8.33,32 8.4,31.93 8.5,31.93 Z M8.5,46.75 L152.2,46.75 C152.3,46.75 152.37,46.82 152.37,46.92 L152.37,47.91 C152.37,48.01 152.3,48.08 152.2,48.08 L8.5,48.08 C8.4,48.08 8.33,48.01 8.33,47.91 L8.33,46.92 C8.33,46.82 8.4,46.75 8.5,46.75 Z" fill="none" stroke="currentColor" stroke-width="1.5"/><path d="M0,0 L0,60.2 L161.9,60.2 L161.9,0 Z M1,1 L160.9,1 L160.9,59.2 L1,59.2 L1,58.16 C1.28,58.51 1.69,58.73 2.17,58.73 L5.17,58.73 C5.99,58.73 6.67,58.06 6.67,57.24 C6.67,56.41 5.99,55.74 5.17,55.74 L2.17,55.74 C1.69,55.74 1.28,55.96 1,56.31 L1,33.36 C1.28,33.7 1.69,33.93 2.17,33.93 L5.17,33.93 C5.99,33.93 6.67,33.25 6.67,32.43 C6.67,31.61 5.99,30.93 5.17,30.93 L2.17,30.93 C1.69,30.93 1.28,31.16 1,31.5 L1,28.56 C1.28,28.91 1.69,29.13 2.17,29.13 L5.17,29.13 C5.99,29.13 6.67,28.46 6.67,27.64 C6.67,26.81 5.99,26.14 5.17,26.14 L2.17,26.14 C1.69,26.14 1.28,26.36 1,26.71 L1,3.76 C1.28,4.1 1.69,4.33 2.17,4.33 L5.17,4.33 C5.99,4.33 6.67,3.65 6.67,2.83 C6.67,2.01 5.99,1.33 5.17,1.33 L2.17,1.33 C1.69,1.33 1.28,1.56 1,1.9 Z M8.5,1.33 C7.86,1.33 7.33,1.86 7.33,2.5 L7.33,3.49 C7.33,4.13 7.86,4.66 8.5,4.66 L152.2,4.66 C152.83,4.66 153.37,4.13 153.37,3.49 L153.37,2.5 C153.37,1.86 152.83,1.33 152.2,1.33 Z M156.2,1.33 C155.38,1.33 154.7,2.01 154.7,2.83 C154.7,3.65 155.38,4.33 156.2,4.33 L159.2,4.33 C160.02,4.33 160.7,3.65 160.7,2.83 C160.7,2.01 160.02,1.33 159.2,1.33 Z M2.17,2.33 L5.17,2.33 C5.45,2.33 5.67,2.55 5.67,2.83 C5.67,3.11 5.45,3.33 5.17,3.33 L2.17,3.33 C1.88,3.33 1.67,3.11 1.67,2.83 C1.67,2.55 1.88,2.33 2.17,2.33 Z M8.5,2.33 L152.2,2.33 C152.3,2.33 152.37,2.4 152.37,2.5 L152.37,3.49 C152.37,3.6 152.3,3.66 152.2,3.66 L8.5,3.66 C8.4,3.66 8.33,3.6 8.33,3.49 L8.33,2.5 C8.33,2.4 8.4,2.33 8.5,2.33 Z M156.2,2.33 L159.2,2.33 C159.49,2.33 159.7,2.55 159.7,2.83 C159.7,3.11 159.49,3.33 159.2,3.33 L156.2,3.33 C155.91,3.33 155.7,3.11 155.7,2.83 C155.7,2.55 155.91,2.33 156.2,2.33 Z M12.84,5.83 L12.84,8.82 L13.84,8.82 L13.84,5.83 Z M18.84,5.83 L18.84,8.82 L19.84,8.82 L19.84,5.83 Z M24.84,5.83 L24.84,8.82 L25.84,8.82 L25.84,5.83 Z M31.17,5.83 L31.17,8.82 L32.17,8.82 L32.17,5.83 Z M37.17,5.83 L37.17,8.82 L38.17,8.82 L38.17,5.83 Z M43.18,5.83 L43.18,8.82 L44.18,8.82 L44.18,5.83 Z M49.18,5.83 L49.18,8.82 L50.18,8.82 L50.18,5.83 Z M55.51,5.83 L55.51,8.82 L56.51,8.82 L56.51,5.83 Z M61.51,5.83 L61.51,8.82 L62.51,8.82 L62.51,5.83 Z M67.18,5.83 L67.18,8.82 L68.18,8.82 L68.18,5.83 Z M73.52,5.83 L73.52,8.82 L74.52,8.82 L74.52,5.83 Z M79.52,5.83 L79.52,8.82 L80.52,8.82 L80.52,5.83 Z M85.52,5.83 L85.52,8.82 L86.52,8.82 L86.52,5.83 Z M91.85,5.83 L91.85,8.82 L92.85,8.82 L92.85,5.83 Z M97.85,5.83 L97.85,8.82 L98.85,8.82 L98.85,5.83 Z M103.86,5.83 L103.86,8.82 L104.86,8.82 L104.86,5.83 Z M109.86,5.83 L109.86,8.82 L110.86,8.82 L110.86,5.83 Z M116.19,5.83 L116.19,8.82 L117.19,8.82 L117.19,5.83 Z M122.19,5.83 L122.19,8.82 L123.19,8.82 L123.19,5.83 Z M127.86,5.83 L127.86,8.82 L128.86,8.82 L128.86,5.83 Z M134.2,5.83 L134.2,8.82 L135.2,8.82 L135.2,5.83 Z M140.2,5.83 L140.2,8.82 L141.2,8.82 L141.2,5.83 Z M146.2,5.83 L146.2,8.82 L147.2,8.82 L147.2,5.83 Z M8.5,16.15 C7.86,16.15 7.33,16.68 7.33,17.32 L7.33,18.31 C7.33,18.95 7.86,19.48 8.5,19.48 L152.2,19.48 C152.83,19.48 153.37,18.95 153.37,18.31 L153.37,17.32 C153.37,16.68 152.83,16.15 152.2,16.15 Z M8.5,17.15 L152.2,17.15 C152.3,17.15 152.37,17.22 152.37,17.32 L152.37,18.31 C152.37,18.41 152.3,18.48 152.2,18.48 L8.5,18.48 C8.4,18.48 8.33,18.41 8.33,18.31 L8.33,17.32 C8.33,17.22 8.4,17.15 8.5,17.15 Z M12.84,20.64 L12.84,23.64 L13.84,23.64 L13.84,20.64 Z M18.84,20.64 L18.84,23.64 L19.84,23.64 L19.84,20.64 Z M24.84,20.64 L24.84,23.64 L25.84,23.64 L25.84,20.64 Z M31.17,20.64 L31.17,23.64 L32.17,23.64 L32.17,20.64 Z M37.17,20.64 L37.17,23.64 L38.17,23.64 L38.17,20.64 Z M43.18,20.64 L43.18,23.64 L44.18,23.64 L44.18,20.64 Z M49.18,20.64 L49.18,23.64 L50.18,23.64 L50.18,20.64 Z M55.51,20.64 L55.51,23.64 L56.51,23.64 L56.51,20.64 Z M61.51,20.64 L61.51,23.64 L62.51,23.64 L62.51,20.64 Z M67.18,20.64 L67.18,23.64 L68.18,23.64 L68.18,20.64 Z M73.52,20.64 L73.52,23.64 L74.52,23.64 L74.52,20.64 Z M79.52,20.64 L79.52,23.64 L80.52,23.64 L80.52,20.64 Z M85.52,20.64 L85.52,23.64 L86.52,23.64 L86.52,20.64 Z M91.85,20.64 L91.85,23.64 L92.85,23.64 L92.85,20.64 Z M97.85,20.64 L97.85,23.64 L98.85,23.64 L98.85,20.64 Z M103.86,20.64 L103.86,23.64 L104.86,23.64 L104.86,20.64 Z M109.86,20.64 L109.86,23.64 L110.86,23.64 L110.86,20.64 Z M116.19,20.64 L116.19,23.64 L117.19,23.64 L117.19,20.64 Z M122.19,20.64 L122.19,23.64 L123.19,23.64 L123.19,20.64 Z M127.86,20.64 L127.86,23.64 L128.86,23.64 L128.86,20.64 Z M134.2,20.64 L134.2,23.64 L135.2,23.64 L135.2,20.64 Z M140.2,20.64 L140.2,23.64 L141.2,23.64 L141.2,20.64 Z M146.2,20.64 L146.2,23.64 L147.2,23.64 L147.2,20.64 Z M156.2,26.14 C155.38,26.14 154.7,26.81 154.7,27.64 C154.7,28.46 155.38,29.13 156.2,29.13 L159.2,29.13 C160.02,29.13 160.7,28.46 160.7,27.64 C160.7,26.81 160.02,26.14 159.2,26.14 Z M2.17,27.14 L5.17,27.14 C5.45,27.14 5.67,27.35 5.67,27.64 C5.67,27.92 5.45,28.13 5.17,28.13 L2.17,28.13 C1.88,28.13 1.67,27.92 1.67,27.64 C1.67,27.35 1.88,27.14 2.17,27.14 Z M156.2,27.14 L159.2,27.14 C159.49,27.14 159.7,27.35 159.7,27.64 C159.7,27.92 159.49,28.13 159.2,28.13 L156.2,28.13 C155.91,28.13 155.7,27.92 155.7,27.64 C155.7,27.35 155.91,27.14 156.2,27.14 Z M8.5,30.93 C7.86,30.93 7.33,31.46 7.33,32.1 L7.33,33.09 C7.33,33.73 7.86,34.26 8.5,34.26 L152.2,34.26 C152.83,34.26 153.37,33.73 153.37,33.09 L153.37,32.1 C153.37,31.46 152.83,30.93 152.2,30.93 Z M156.2,30.93 C155.38,30.93 154.7,31.61 154.7,32.43 C154.7,33.25 155.38,33.93 156.2,33.93 L159.2,33.93 C160.02,33.93 160.7,33.25 160.7,32.43 C160.7,31.61 160.02,30.93 159.2,30.93 Z M2.17,31.93 L5.17,31.93 C5.45,31.93 5.67,32.15 5.67,32.43 C5.67,32.72 5.45,32.93 5.17,32.93 L2.17,32.93 C1.88,32.93 1.67,32.72 1.67,32.43 C1.67,32.15 1.88,31.93 2.17,31.93 Z M8.5,31.93 L152.2,31.93 C152.3,31.93 152.37,32 152.37,32.1 L152.37,33.09 C152.37,33.19 152.3,33.26 152.2,33.26 L8.5,33.26 C8.4,33.26 8.33,33.19 8.33,33.09 L8.33,32.1 C8.33,32 8.4,31.93 8.5,31.93 Z M156.2,31.93 L159.2,31.93 C159.49,31.93 159.7,32.15 159.7,32.43 C159.7,32.72 159.49,32.93 159.2,32.93 L156.2,32.93 C155.91,32.93 155.7,32.72 155.7,32.43 C155.7,32.15 155.91,31.93 156.2,31.93 Z M12.84,35.43 L12.84,38.42 L13.84,38.42 L13.84,35.43 Z M18.84,35.43 L18.84,38.42 L19.84,38.42 L19.84,35.43 Z M24.84,35.43 L24.84,38.42 L25.84,38.42 L25.84,35.43 Z M31.17,35.43 L31.17,38.42 L32.17,38.42 L32.17,35.43 Z M37.17,35.43 L37.17,38.42 L38.17,38.42 L38.17,35.43 Z M43.18,35.43 L43.18,38.42 L44.18,38.42 L44.18,35.43 Z M49.18,35.43 L49.18,38.42 L50.18,38.42 L50.18,35.43 Z M55.51,35.43 L55.51,38.42 L56.51,38.42 L56.51,35.43 Z M61.51,35.43 L61.51,38.42 L62.51,38.42 L62.51,35.43 Z M67.18,35.43 L67.18,38.42 L68.18,38.42 L68.18,35.43 Z M73.52,35.43 L73.52,38.42 L74.52,38.42 L74.52,35.43 Z M79.52,35.43 L79.52,38.42 L80.52,38.42 L80.52,35.43 Z M85.52,35.43 L85.52,38.42 L86.52,38.42 L86.52,35.43 Z M91.85,35.43 L91.85,38.42 L92.85,38.42 L92.85,35.43 Z M97.85,35.43 L97.85,38.42 L98.85,38.42 L98.85,35.43 Z M103.86,35.43 L103.86,38.42 L104.86,38.42 L104.86,35.43 Z M109.86,35.43 L109.86,38.42 L110.86,38.42 L110.86,35.43 Z M116.19,35.43 L116.19,38.42 L117.19,38.42 L117.19,35.43 Z M122.19,35.43 L122.19,38.42 L123.19,38.42 L123.19,35.43 Z M127.86,35.43 L127.86,38.42 L128.86,38.42 L128.86,35.43 Z M134.2,35.43 L134.2,38.42 L135.2,38.42 L135.2,35.43 Z M140.2,35.43 L140.2,38.42 L141.2,38.42 L141.2,35.43 Z M146.2,35.43 L146.2,38.42 L147.2,38.42 L147.2,35.43 Z M8.5,45.75 C7.86,45.75 7.33,46.28 7.33,46.92 L7.33,47.91 C7.33,48.55 7.86,49.08 8.5,49.08 L152.2,49.08 C152.83,49.08 153.37,48.55 153.37,47.91 L153.37,46.92 C153.37,46.28 152.83,45.75 152.2,45.75 Z M8.5,46.75 L152.2,46.75 C152.3,46.75 152.37,46.82 152.37,46.92 L152.37,47.91 C152.37,48.01 152.3,48.08 152.2,48.08 L8.5,48.08 C8.4,48.08 8.33,48.01 8.33,47.91 L8.33,46.92 C8.33,46.82 8.4,46.75 8.5,46.75 Z M12.84,50.24 L12.84,53.24 L13.84,53.24 L13.84,50.24 Z M18.84,50.24 L18.84,53.24 L19.84,53.24 L19.84,50.24 Z M24.84,50.24 L24.84,53.24 L25.84,53.24 L25.84,50.24 Z M31.17,50.24 L31.17,53.24 L32.17,53.24 L32.17,50.24 Z M37.17,50.24 L37.17,53.24 L38.17,53.24 L38.17,50.24 Z M43.18,50.24 L43.18,53.24 L44.18,53.24 L44.18,50.24 Z M49.18,50.24 L49.18,53.24 L50.18,53.24 L50.18,50.24 Z M55.51,50.24 L55.51,53.24 L56.51,53.24 L56.51,50.24 Z M61.51,50.24 L61.51,53.24 L62.51,53.24 L62.51,50.24 Z M67.18,50.24 L67.18,53.24 L68.18,53.24 L68.18,50.24 Z M73.52,50.24 L73.52,53.24 L74.52,53.24 L74.52,50.24 Z M79.52,50.24 L79.52,53.24 L80.52,53.24 L80.52,50.24 Z M85.52,50.24 L85.52,53.24 L86.52,53.24 L86.52,50.24 Z M91.85,50.24 L91.85,53.24 L92.85,53.24 L92.85,50.24 Z M97.85,50.24 L97.85,53.24 L98.85,53.24 L98.85,50.24 Z M103.86,50.24 L103.86,53.24 L104.86,53.24 L104.86,50.24 Z M109.86,50.24 L109.86,53.24 L110.86,53.24 L110.86,50.24 Z M116.19,50.24 L116.19,53.24 L117.19,53.24 L117.19,50.24 Z M122.19,50.24 L122.19,53.24 L123.19,53.24 L123.19,50.24 Z M127.86,50.24 L127.86,53.24 L128.86,53.24 L128.86,50.24 Z M134.2,50.24 L134.2,53.24 L135.2,53.24 L135.2,50.24 Z M140.2,50.24 L140.2,53.24 L141.2,53.24 L141.2,50.24 Z M146.2,50.24 L146.2,53.24 L147.2,53.24 L147.2,50.24 Z M156.2,55.74 C155.38,55.74 154.7,56.41 154.7,57.24 C154.7,58.06 155.38,58.73 156.2,58.73 L159.2,58.73 C160.02,58.73 160.7,58.06 160.7,57.24 C160.7,56.41 160.02,55.74 159.2,55.74 Z M2.17,56.74 L5.17,56.74 C5.45,56.74 5.67,56.95 5.67,57.24 C5.67,57.52 5.45,57.73 5.17,57.73 L2.17,57.73 C1.88,57.73 1.67,57.52 1.67,57.24 C1.67,56.95 1.88,56.74 2.17,56.74 Z M156.2,56.74 L159.2,56.74 C159.49,56.74 159.7,56.95 159.7,57.24 C159.7,57.52 159.49,57.73 159.2,57.73 L156.2,57.73 C155.91,57.73 155.7,57.52 155.7,57.24 C155.7,56.95 155.91,56.74 156.2,56.74 Z" fill="none" stroke="currentColor" stroke-width="1.5"/><rect x="0" y="0" width="0" height="0" fill="none" stroke="currentColor"/><path d="M8.17,50.24 L152.2,50.24 L152.2,53.24 L8.17,53.24 Z M8.17,35.43 L152.2,35.43 L152.2,38.42 L8.17,38.42 Z M8.17,20.64 L152.2,20.64 L152.2,23.64 L8.17,23.64 Z M8.17,5.83 L152.2,5.83 L152.2,8.82 L8.17,8.82 Z" fill="none" stroke="currentColor" stroke-width="1.5"/></svg>