<svg xmlns="http://www.w3.org/2000/svg" viewBox="0 0 161.9 60.2" width="24" height="24"><path d="M0,0 L0,0.5 L0,60.2 L161.9,60.2 L161.9,0 Z" fill="none" stroke="currentColor" stroke-width="1.5"/><path d="M0,0 L0,60.2 L161.9,60.2 L161.9,0 Z M1,1 L160.9,1 L160.9,59.2 L1,59.2 Z M6,5 L6,55.2 L156,55.2 L156,5 Z M7,6 L24.62,6 L24.62,54.2 L7,54.2 Z M25.62,6 L43.25,6 L43.25,54.2 L25.62,54.2 Z M44.25,6 L61.88,6 L61.88,54.2 L44.25,54.2 Z M62.88,6 L80.5,6 L80.5,54.2 L62.88,54.2 Z M81.5,6 L99.12,6 L99.12,54.2 L81.5,54.2 Z M100.12,6 L117.38,6 L117.38,54.2 L100.12,54.2 Z M118.38,6 L136,6 L136,54.2 L118.38,54.2 Z M137,6 L155,6 L155,54.2 L137,54.2 Z M10,10 L10,50 L14,50 L14,10 Z M17,10 L17,50 L21,50 L21,10 Z M28.62,10 L28.62,50 L32.62,50 L32.62,10 Z M35.62,10 L35.62,50 L39.62,50 L39.62,10 Z M47.25,10 L47.25,50 L51.25,50 L51.25,10 Z M54.25,10 L54.25,50 L58.25,50 L58.25,10 Z M65.88,10 L65.88,50 L69.88,50 L69.88,10 Z M72.88,10 L72.88,50 L76.88,50 L76.88,10 Z M84.5,10 L84.5,50 L88.5,50 L88.5,10 Z M91.5,10 L91.5,50 L95.5,50 L95.5,10 Z M103.12,10 L103.12,50 L107.12,50 L107.12,10 Z M110.12,10 L110.12,50 L114.12,50 L114.12,10 Z M121.38,10 L121.38,50 L125.38,50 L125.38,10 Z M128.38,10 L128.38,50 L132.38,50 L132.38,10 Z M140,10 L140,50 L144,50 L144,10 Z M147,10 L147,50 L151,50 L151,10 Z M11,11 L13,11 L13,49 L11,49 Z M18,11 L20,11 L20,49 L18,49 Z M29.62,11 L31.62,11 L31.62,49 L29.62,49 Z M36.62,11 L38.62,11 L38.62,49 L36.62,49 Z M48.25,11 L50.25,11 L50.25,49 L48.25,49 Z M55.25,11 L57.25,11 L57.25,49 L55.25,49 Z M66.88,11 L68.88,11 L68.88,49 L66.88,49 Z M73.88,11 L75.88,11 L75.88,49 L73.88,49 Z M85.5,11 L87.5,11 L87.5,49 L85.5,49 Z M92.5,11 L94.5,11 L94.5,49 L92.5,49 Z M104.12,11 L106.12,11 L106.12,49 L104.12,49 Z M111.12,11 L113.12,11 L113.12,49 L111.12,49 Z M122.38,11 L124.38,11 L124.38,49 L122.38,49 Z M129.38,11 L131.38,11 L131.38,49 L129.38,49 Z M141,11 L143,11 L143,49 L141,49 Z M148,11 L150,11 L150,49 L148,49 Z" fill="none" stroke="currentColor" stroke-width="1.5"/><path d="M1,1 L160.9,1 L160.9,59.2 L1,59.2 Z M7,6 L7,54.2 L155,54.2 L155,6 Z" fill="none" stroke="currentColor" stroke-width="1.5"/></svg>