<svg xmlns="http://www.w3.org/2000/svg" viewBox="0 0 161.9 30.6" width="24" height="24"><path d="M0,0 L0,30.6 L161.9,30.6 L161.9,0 Z" fill="none" stroke="currentColor" stroke-width="1.5"/><path d="M156.08,1 L160.9,1 L160.9,29.6 L156.08,29.6 Z M1,1 L5.99,1 L5.99,29.6 L1,29.6 Z" fill="none" stroke="currentColor" stroke-width="1.5"/><path d="M0,0 L0,30.6 L161.9,30.6 L161.9,0 Z M1,1 L5.99,1 L5.99,29.6 L1,29.6 Z M6.99,1 L155.08,1 L155.08,29.6 L6.99,29.6 Z M156.08,1 L160.9,1 L160.9,29.6 L156.08,29.6 Z M10,2 L10,15 L54,15 L54,2 Z M59,2 L59,15 L103,15 L103,2 Z M108,2 L108,15 L152,15 L152,2 Z M11,3 L53,3 L53,14 L11,14 Z M60,3 L102,3 L102,14 L60,14 Z M109,3 L151,3 L151,14 L109,14 Z M10,16 L10,29 L54,29 L54,16 Z M59,16 L59,29 L103,29 L103,16 Z M108,16 L108,29 L152,29 L152,16 Z M11,17 L53,17 L53,28 L11,28 Z M60,17 L102,17 L102,28 L60,28 Z M109,17 L151,17 L151,28 L109,28 Z" fill="none" stroke="currentColor" stroke-width="1.5"/></svg>