<svg xmlns="http://www.w3.org/2000/svg" viewBox="0 0 161.9 45.4" width="24" height="24"><path d="M0,0 L0,45.4 L161.9,45.4 L161.9,0 Z" fill="none" stroke="currentColor" stroke-width="1.5"/><path d="M141.5,40.5 L105.5,40.5 L105.5,18.5 L152.5,18.5 L152.5,36.5 L141.5,36.5 Z M20.5,36.5 L9.5,36.5 L9.5,18.5 L56.5,18.5 L56.5,40.5 L20.5,40.5 Z M58.5,18.5 L103.5,18.5 L103.5,41 L58.5,41 Z M156,1 L160.9,1 L160.9,44.4 L156,44.4 Z M1,1 L6,1 L6,44.4 L1,44.4 Z" fill="none" stroke="currentColor" stroke-width="1.5"/><path d="M0,0 L0,45.4 L161.9,45.4 L161.9,0 Z M1,1 L6,1 L6,44.4 L1,44.4 Z M7,1 L155,1 L155,44.4 L7,44.4 Z M156,1 L160.9,1 L160.9,44.4 L156,44.4 Z M9,2 L9,16 L36,16 L36,2 Z M37,2 L37,16 L64,16 L64,2 Z M65,2 L65,16 L92,16 L92,2 Z M94,2 L94,2.5 L94,8 L121,8 L121,2 Z M10,3 L35,3 L35,8 L10,8 Z M38,3 L63,3 L63,8 L38,8 Z M66,3 L91,3 L91,8 L66,8 Z M95,3 L120,3 L120,7 L95,7 Z M10,10 L35,10 L35,15 L10,15 Z M38,10 L63,10 L63,15 L38,15 Z M66,10 L91,10 L91,15 L66,15 Z M94,10 L94,16 L133,16 L133,14 L143,14 L143,10 Z M95,11 L142,11 L142,13 L132,13 L132,15 L95,15 Z" fill="none" stroke="currentColor" stroke-width="1.5"/></svg>