<svg xmlns="http://www.w3.org/2000/svg" viewBox="0 0 161.85 60.3" width="24" height="24"><path d="M0,0 L0,60.3 L161.85,60.3 L161.85,0 Z" fill="none" stroke="currentColor" stroke-width="1.5"/><path d="M156.32,1 L160.85,1 L160.85,59.3 L156.32,59.3 Z M1,1 L6,1 L6,59.3 L1,59.3 Z" fill="none" stroke="currentColor" stroke-width="1.5"/><path d="M0,0 L0,60.3 L161.85,60.3 L161.85,0 Z M1,1 L6,1 L6,59.3 L1,59.3 Z M7,1 L18,1 L18,59.3 L7,59.3 Z M19,1 L155.32,1 L155.32,12 L19,12 Z M156.32,1 L160.85,1 L160.85,59.3 L156.32,59.3 Z M19,13 L155.32,13 L155.32,24 L19,24 Z M19,25 L80.5,25 L80.5,36 L19,36 Z M81.5,25 L155.32,25 L155.32,36 L81.5,36 Z M19,37 L155.32,37 L155.32,50 L19,50 Z M19,51 L155.32,51 L155.32,59.3 L19,59.3 Z" fill="none" stroke="currentColor" stroke-width="1.5"/></svg>