<svg xmlns="http://www.w3.org/2000/svg" viewBox="0 0 161.9 30.6" width="24" height="24"><path d="M0,0 L0,30.6 L161.9,30.6 L161.9,0 Z" fill="none" stroke="currentColor" stroke-width="1.5"/><path d="M156,1 L160.9,1 L160.9,29.6 L156,29.6 Z M1,1 L6,1 L6,29.6 L1,29.6 Z" fill="none" stroke="currentColor" stroke-width="1.5"/><path d="M0,0 L0,30.6 L161.9,30.6 L161.9,0 Z M1,1 L6,1 L6,29.6 L1,29.6 Z M7,1 L155,1 L155,29.6 L7,29.6 Z M156,1 L160.9,1 L160.9,29.6 L156,29.6 Z M22,2 L22,19 L85,19 L85,2 Z M90,2 L90,19 L153,19 L153,2 Z M23,3 L84,3 L84,18 L23,18 Z M91,3 L152,3 L152,18 L91,18 Z M22,20 L22,27 L37,27 L37,20 Z M38,20 L38,27 L53,27 L53,20 Z M54,20 L54,27 L69,27 L69,20 Z M70,20 L70,27 L85,27 L85,20 Z M90,20 L90,27 L105,27 L105,20 Z M106,20 L106,27 L121,27 L121,20 Z M122,20 L122,27 L137,27 L137,20 Z M138,20 L138,27 L153,27 L153,20 Z M23,21 L36,21 L36,26 L23,26 Z M39,21 L52,21 L52,26 L39,26 Z M55,21 L68,21 L68,26 L55,26 Z M71,21 L84,21 L84,26 L71,26 Z M91,21 L104,21 L104,26 L91,26 Z M107,21 L120,21 L120,26 L107,26 Z M123,21 L136,21 L136,26 L123,26 Z M139,21 L152,21 L152,26 L139,26 Z" fill="none" stroke="currentColor" stroke-width="1.5"/></svg>