<svg xmlns="http://www.w3.org/2000/svg" viewBox="0 0 161.85 45.35" width="24" height="24"><path d="M0,0 L0,45.35 L161.85,45.35 L161.85,0 Z" fill="none" stroke="currentColor" stroke-width="1.5"/><path d="M0,0 L0,45.35 L161.85,45.35 L161.85,0 Z M1,1 L6,1 L6,44.27 L1,44.27 Z M7,1 L155,1 L155,8 L7,8 Z M156,1 L160.85,1 L160.85,44.27 L156,44.27 Z M7,9 L155,9 L155,44.27 L99,44.27 L99,34.2 L80,34.2 L80,44.27 L54,44.27 L54,34.2 L35,34.2 L35,44.27 L7,44.27 Z M36,35.2 L53,35.2 L53,44.27 L36,44.27 Z M81,35.2 L98,35.2 L98,44.27 L81,44.27 Z" fill="none" stroke="currentColor" stroke-width="1.5"/><path d="M0,0 L0,45.35 L161.85,45.35 L161.85,0 Z" fill="none" stroke="currentColor" stroke-width="1.5"/><rect x="0" y="0" width="0" height="0" fill="none" stroke="currentColor"/><path d="M8.5,10.5 L8.5,40.5 L33.5,40.5 L33.5,32.5 L55.5,32.5 L55.5,40.5 L153.5,40.5 L153.5,10.5 Z M80,34.2 L99,34.2 L99,40.5 L98,40.5 L98,35.2 L81,35.2 L81,40.5 L80,40.5 Z M156,1 L160.85,1 L160.85,44.35 L156,44.35 Z M7,1 L155,1 L155,8 L7,8 Z M1,1 L6,1 L6,44.35 L1,44.35 Z" fill="none" stroke="currentColor" stroke-width="1.5"/></svg>