<svg xmlns="http://www.w3.org/2000/svg" viewBox="0 0 19.0 121.0" width="24" height="24"><path d="M0,0 L0,121 L19,121 L19,0 Z" fill="none" stroke="currentColor" stroke-width="1.5"/><path d="M0,0 L0,121 L19,121 L19,0 Z M1,1 L18,1 L18,120 L1,120 Z M5,2 L5,13 L2,13 L2,30 L17,30 L17,13 L15,13 L15,2 Z M6,3 L9,3 L9,12 L6,12 Z M11,3 L14,3 L14,12 L11,12 Z M3,14 L9,14 L9,21 L3,21 Z M10,14 L16,14 L16,21 L10,21 Z M3,22 L9,22 L9,29 L3,29 Z M10,22 L16,22 L16,29 L10,29 Z M3,31 L3,62 L17,62 L17,31 Z M4,32 L16,32 L16,61 L4,61 Z M3,68 L3,99 L17,99 L17,68 Z M4,69 L16,69 L16,98 L4,98 Z M4,100 L4,109 L12,109 L12,100 Z M5,101 L11,101 L11,108 L5,108 Z" fill="none" stroke="currentColor" stroke-width="1.5"/></svg>