<svg xmlns="http://www.w3.org/2000/svg" viewBox="0 0 161.9 30.6" width="24" height="24"><path d="M0,0 L0,30.6 L161.9,30.6 L161.9,0 Z" fill="none" stroke="currentColor" stroke-width="1.5"/><path d="M0,0 L0,30.6 L161.9,30.6 L161.9,0 Z M1,1 L5.99,1 L5.99,29.6 L1,29.6 Z M6.99,1 L155.08,1 L155.08,29.6 L6.99,29.6 Z M156.08,1 L160.9,1 L160.9,29.6 L156.08,29.6 Z M8,2 L8,8 L83,8 L83,2 Z M84,2 L84,15 L119,15 L119,2 Z M120,2 L120,6 L125,6 L125,2 Z M126,2 L126,6 L131,6 L131,2 Z M132,2 L132,6 L137,6 L137,2 Z M9,3 L45,3 L45,7 L9,7 Z M46,3 L82,3 L82,7 L46,7 Z M85,3 L118,3 L118,14 L85,14 Z M121,3 L124,3 L124,5 L121,5 Z M127,3 L130,3 L130,5 L127,5 Z M133,3 L136,3 L136,5 L133,5 Z M8,9 L8,15 L83,15 L83,9 Z M9,10 L45,10 L45,14 L9,14 Z M46,10 L82,10 L82,14 L46,14 Z M8,16 L8,22 L83,22 L83,16 Z M9,17 L45,17 L45,21 L9,21 Z M46,17 L82,17 L82,21 L46,21 Z M8,23 L8,29 L83,29 L83,23 Z M9,24 L45,24 L45,28 L9,28 Z M46,24 L82,24 L82,28 L46,28 Z" fill="none" stroke="currentColor" stroke-width="1.5"/><path d="M156.08,1 L160.9,1 L160.9,29.6 L156.08,29.6 Z M1,1 L5.99,1 L5.99,29.6 L1,29.6 Z" fill="none" stroke="currentColor" stroke-width="1.5"/></svg>