<svg xmlns="http://www.w3.org/2000/svg" viewBox="0 0 161.9 15.8" width="24" height="24"><path d="M0,0 L0,15.8 L161.9,15.8 L161.9,0 Z" fill="none" stroke="currentColor" stroke-width="1.5"/><path d="M0,0 L0,15.8 L161.9,15.8 L161.9,0 Z M1,1 L6,1 L6,14.8 L1,14.8 Z M7,1 L155,1 L155,14.8 L7,14.8 Z M156,1 L160.9,1 L160.9,14.8 L156,14.8 Z M11,2 L11,14 L40,14 L40,2 Z M43,2 L43,14 L72,14 L72,2 Z M75,2 L75,14 L104,14 L104,2 Z M107,2 L107,14 L136,14 L136,2 Z M139,2 L139,14 L152,14 L152,2 Z M12,3 L39,3 L39,7 L12,7 Z M44,3 L71,3 L71,7 L44,7 Z M76,3 L103,3 L103,7 L76,7 Z M108,3 L135,3 L135,7 L108,7 Z M140,3 L145,3 L145,7 L140,7 Z M146,3 L151,3 L151,7 L146,7 Z M12,9 L39,9 L39,13 L12,13 Z M44,9 L71,9 L71,13 L44,13 Z M76,9 L103,9 L103,13 L76,13 Z M108,9 L135,9 L135,13 L108,13 Z M140,9 L145,9 L145,13 L140,13 Z M146,9 L151,9 L151,13 L146,13 Z" fill="none" stroke="currentColor" stroke-width="1.5"/><path d="M156,1 L160.9,1 L160.9,14.8 L156,14.8 Z M1,1 L6,1 L6,14.8 L1,14.8 Z" fill="none" stroke="currentColor" stroke-width="1.5"/></svg>