<svg xmlns="http://www.w3.org/2000/svg" viewBox="0 0 161.9 311.8" width="24" height="24"><path d="M8.5,0 C3.8,0 0,3.8 0,8.5 L0,303.3 C0,308 3.8,311.8 8.5,311.8 L153.4,311.8 C158.1,311.8 161.9,308 161.9,303.3 L161.9,8.5 C161.9,3.8 158.1,0 153.4,0 Z" fill="none" stroke="currentColor" stroke-width="1.5"/><path d="M10,90 L10,240 L153.4,240 L153.4,90 Z M11.5,6.5 C8.73,6.5 6.5,8.73 6.5,11.5 L6.5,66.5 C6.5,69.27 8.73,71.5 11.5,71.5 L149.5,71.5 C152.27,71.5 154.5,69.27 154.5,66.5 L154.5,11.5 C154.5,8.73 152.27,6.5 149.5,6.5 Z M8.5,1 L153.4,1 C157.56,1 160.9,4.34 160.9,8.5 L160.9,303.3 C160.9,307.46 157.56,310.8 153.4,310.8 L8.5,310.8 C4.34,310.8 1,307.46 1,303.3 L1,8.5 C1,4.34 4.34,1 8.5,1 Z" fill="none" stroke="currentColor" stroke-width="1.5"/><path d="M8.5,0 C3.8,0 0,3.8 0,8.5 L0,303.3 C0,308 3.8,311.8 8.5,311.8 L153.4,311.8 C158.1,311.8 161.9,308 161.9,303.3 L161.9,8.5 C161.9,3.8 158.1,0 153.4,0 Z M8.5,1 L153.4,1 C157.56,1 160.9,4.34 160.9,8.5 L160.9,78 L1,78 L1,8.5 C1,4.34 4.34,1 8.5,1 Z M1,79 L160.9,79 L160.9,239 L153.4,239 L153.4,90 L10,90 L10,239 L1,239 Z M11,91 L24.8,91 L24.8,239 L11,239 Z M25.8,91 L39.6,91 L39.6,239 L25.8,239 Z M40.6,91 L54.4,91 L54.4,239 L40.6,239 Z M55.4,91 L69.2,91 L69.2,239 L55.4,239 Z M70.2,91 L81.2,91 L81.2,239 L70.2,239 Z M82.2,91 L93.2,91 L93.2,239 L82.2,239 Z M94.2,91 L108,91 L108,239 L94.2,239 Z M109,91 L122.8,91 L122.8,239 L109,239 Z M123.8,91 L137.6,91 L137.6,239 L123.8,239 Z M138.6,91 L152.4,91 L152.4,239 L138.6,239 Z M1,240 L10,240 L10,300 L153.4,300 L153.4,240 L160.9,240 L160.9,303.3 C160.9,307.46 157.56,310.8 153.4,310.8 L8.5,310.8 C4.34,310.8 1,307.46 1,303.3 Z M11.71,240 L151.63,240 L146.3,245 L16.71,245 Z M152.4,240.65 L152.4,298.35 L147,293.28 L147,245.72 Z M11,240.71 L16,245.71 L16,293.29 L11,298.29 Z M17,246 L146,246 L146,293 L17,293 Z M16.71,294 L146.3,294 L151.63,299 L11.71,299 Z" fill="none" stroke="currentColor" stroke-width="1.5"/><rect x="0" y="0" width="0" height="0" fill="none" stroke="currentColor"/><path d="M133.5,270.5 L137.5,270.5 C138.61,270.5 139.5,271.39 139.5,272.5 L139.5,289.5 C139.5,290.61 138.61,291.5 137.5,291.5 L133.5,291.5 C132.39,291.5 131.5,290.61 131.5,289.5 L131.5,272.5 C131.5,271.39 132.39,270.5 133.5,270.5 Z M123.5,270.5 L127.5,270.5 C128.61,270.5 129.5,271.39 129.5,272.5 L129.5,289.5 C129.5,290.61 128.61,291.5 127.5,291.5 L123.5,291.5 C122.39,291.5 121.5,290.61 121.5,289.5 L121.5,272.5 C121.5,271.39 122.39,270.5 123.5,270.5 Z M113.5,270.5 L117.5,270.5 C118.61,270.5 119.5,271.39 119.5,272.5 L119.5,289.5 C119.5,290.61 118.61,291.5 117.5,291.5 L113.5,291.5 C112.39,291.5 111.5,290.61 111.5,289.5 L111.5,272.5 C111.5,271.39 112.39,270.5 113.5,270.5 Z M103.5,270.5 L107.5,270.5 C108.61,270.5 109.5,271.39 109.5,272.5 L109.5,289.5 C109.5,290.61 108.61,291.5 107.5,291.5 L103.5,291.5 C102.39,291.5 101.5,290.61 101.5,289.5 L101.5,272.5 C101.5,271.39 102.39,270.5 103.5,270.5 Z M93.5,270.5 L97.5,270.5 C98.61,270.5 99.5,271.39 99.5,272.5 L99.5,289.5 C99.5,290.61 98.61,291.5 97.5,291.5 L93.5,291.5 C92.39,291.5 91.5,290.61 91.5,289.5 L91.5,272.5 C91.5,271.39 92.39,270.5 93.5,270.5 Z M83.5,270.5 L87.5,270.5 C88.61,270.5 89.5,271.39 89.5,272.5 L89.5,289.5 C89.5,290.61 88.61,291.5 87.5,291.5 L83.5,291.5 C82.39,291.5 81.5,290.61 81.5,289.5 L81.5,272.5 C81.5,271.39 82.39,270.5 83.5,270.5 Z M73.5,270.5 L77.5,270.5 C78.61,270.5 79.5,271.39 79.5,272.5 L79.5,289.5 C79.5,290.61 78.61,291.5 77.5,291.5 L73.5,291.5 C72.39,291.5 71.5,290.61 71.5,289.5 L71.5,272.5 C71.5,271.39 72.39,270.5 73.5,270.5 Z M63.5,270.5 L67.5,270.5 C68.61,270.5 69.5,271.39 69.5,272.5 L69.5,289.5 C69.5,290.61 68.61,291.5 67.5,291.5 L63.5,291.5 C62.39,291.5 61.5,290.61 61.5,289.5 L61.5,272.5 C61.5,271.39 62.39,270.5 63.5,270.5 Z M53.5,270.5 L57.5,270.5 C58.61,270.5 59.5,271.39 59.5,272.5 L59.5,289.5 C59.5,290.61 58.61,291.5 57.5,291.5 L53.5,291.5 C52.39,291.5 51.5,290.61 51.5,289.5 L51.5,272.5 C51.5,271.39 52.39,270.5 53.5,270.5 Z M43.5,270.5 L47.5,270.5 C48.61,270.5 49.5,271.39 49.5,272.5 L49.5,289.5 C49.5,290.61 48.61,291.5 47.5,291.5 L43.5,291.5 C42.39,291.5 41.5,290.61 41.5,289.5 L41.5,272.5 C41.5,271.39 42.39,270.5 43.5,270.5 Z M33.5,270.5 L37.5,270.5 C38.61,270.5 39.5,271.39 39.5,272.5 L39.5,289.5 C39.5,290.61 38.61,291.5 37.5,291.5 L33.5,291.5 C32.39,291.5 31.5,290.61 31.5,289.5 L31.5,272.5 C31.5,271.39 32.39,270.5 33.5,270.5 Z M133.5,247.5 L137.5,247.5 C138.61,247.5 139.5,248.39 139.5,249.5 L139.5,266.5 C139.5,267.61 138.61,268.5 137.5,268.5 L133.5,268.5 C132.39,268.5 131.5,267.61 131.5,266.5 L131.5,249.5 C131.5,248.39 132.39,247.5 133.5,247.5 Z M123.5,247.5 L127.5,247.5 C128.61,247.5 129.5,248.39 129.5,249.5 L129.5,266.5 C129.5,267.61 128.61,268.5 127.5,268.5 L123.5,268.5 C122.39,268.5 121.5,267.61 121.5,266.5 L121.5,249.5 C121.5,248.39 122.39,247.5 123.5,247.5 Z M113.5,247.5 L117.5,247.5 C118.61,247.5 119.5,248.39 119.5,249.5 L119.5,266.5 C119.5,267.61 118.61,268.5 117.5,268.5 L113.5,268.5 C112.39,268.5 111.5,267.61 111.5,266.5 L111.5,249.5 C111.5,248.39 112.39,247.5 113.5,247.5 Z M103.5,247.5 L107.5,247.5 C108.61,247.5 109.5,248.39 109.5,249.5 L109.5,266.5 C109.5,267.61 108.61,268.5 107.5,268.5 L103.5,268.5 C102.39,268.5 101.5,267.61 101.5,266.5 L101.5,249.5 C101.5,248.39 102.39,247.5 103.5,247.5 Z M93.5,247.5 L97.5,247.5 C98.61,247.5 99.5,248.39 99.5,249.5 L99.5,266.5 C99.5,267.61 98.61,268.5 97.5,268.5 L93.5,268.5 C92.39,268.5 91.5,267.61 91.5,266.5 L91.5,249.5 C91.5,248.39 92.39,247.5 93.5,247.5 Z M83.5,247.5 L87.5,247.5 C88.61,247.5 89.5,248.39 89.5,249.5 L89.5,266.5 C89.5,267.61 88.61,268.5 87.5,268.5 L83.5,268.5 C82.39,268.5 81.5,267.61 81.5,266.5 L81.5,249.5 C81.5,248.39 82.39,247.5 83.5,247.5 Z M73.5,247.5 L77.5,247.5 C78.61,247.5 79.5,248.39 79.5,249.5 L79.5,266.5 C79.5,267.61 78.61,268.5 77.5,268.5 L73.5,268.5 C72.39,268.5 71.5,267.61 71.5,266.5 L71.5,249.5 C71.5,248.39 72.39,247.5 73.5,247.5 Z M63.5,247.5 L67.5,247.5 C68.61,247.5 69.5,248.39 69.5,249.5 L69.5,266.5 C69.5,267.61 68.61,268.5 67.5,268.5 L63.5,268.5 C62.39,268.5 61.5,267.61 61.5,266.5 L61.5,249.5 C61.5,248.39 62.39,247.5 63.5,247.5 Z M53.5,247.5 L57.5,247.5 C58.61,247.5 59.5,248.39 59.5,249.5 L59.5,266.5 C59.5,267.61 58.61,268.5 57.5,268.5 L53.5,268.5 C52.39,268.5 51.5,267.61 51.5,266.5 L51.5,249.5 C51.5,248.39 52.39,247.5 53.5,247.5 Z M43.5,247.5 L47.5,247.5 C48.61,247.5 49.5,248.39 49.5,249.5 L49.5,266.5 C49.5,267.61 48.61,268.5 47.5,268.5 L43.5,268.5 C42.39,268.5 41.5,267.61 41.5,266.5 L41.5,249.5 C41.5,248.39 42.39,247.5 43.5,247.5 Z M33.5,247.5 L37.5,247.5 C38.61,247.5 39.5,248.39 39.5,249.5 L39.5,266.5 C39.5,267.61 38.61,268.5 37.5,268.5 L33.5,268.5 C32.39,268.5 31.5,267.61 31.5,266.5 L31.5,249.5 C31.5,248.39 32.39,247.5 33.5,247.5 Z M23.5,270.5 L27.5,270.5 C28.61,270.5 29.5,271.39 29.5,272.5 L29.5,289.5 C29.5,290.61 28.61,291.5 27.5,291.5 L23.5,291.5 C22.39,291.5 21.5,290.61 21.5,289.5 L21.5,272.5 C21.5,271.39 22.39,270.5 23.5,270.5 Z M23.5,247.5 L27.5,247.5 C28.61,247.5 29.5,248.39 29.5,249.5 L29.5,266.5 C29.5,267.61 28.61,268.5 27.5,268.5 L23.5,268.5 C22.39,268.5 21.5,267.61 21.5,266.5 L21.5,249.5 C21.5,248.39 22.39,247.5 23.5,247.5 Z" fill="none" stroke="currentColor" stroke-width="1.5"/><path d="M0,78 L0,78.5 L0,240 L161.9,240 L161.9,78 Z" fill="none" stroke="currentColor" stroke-width="1.5"/></svg>