<svg xmlns="http://www.w3.org/2000/svg" viewBox="0 0 161.9 15.8" width="24" height="24"><path d="M0,0 L0,15.8 L161.9,15.8 L161.9,0 Z" fill="none" stroke="currentColor" stroke-width="1.5"/><path d="M0,0 L0,15.8 L161.9,15.8 L161.9,0 Z M1,1 L6,1 L6,14.8 L1,14.8 Z M7,1 L155,1 L155,14.8 L7,14.8 Z M156,1 L160.9,1 L160.9,14.8 L156,14.8 Z M45,2 L45,14 L76,14 L76,2 Z M85,2 L85,14 L116,14 L116,2 Z M46,3 L75,3 L75,7 L46,7 Z M86,3 L115,3 L115,7 L86,7 Z M138,8 L138,13 L151,13 L151,8 Z M46,9 L75,9 L75,13 L46,13 Z M86,9 L115,9 L115,13 L86,13 Z M139,9 L150,9 L150,12 L139,12 Z" fill="none" stroke="currentColor" stroke-width="1.5"/><path d="M156,1 L160.9,1 L160.9,14.8 L156,14.8 Z M1,1 L6,1 L6,14.8 L1,14.8 Z" fill="none" stroke="currentColor" stroke-width="1.5"/></svg>