<svg xmlns="http://www.w3.org/2000/svg" viewBox="0 0 161.9 89.8" width="24" height="24"><path d="M0,0 L0,89.8 L161.9,89.8 L161.9,0 Z" fill="none" stroke="currentColor" stroke-width="1.5"/><path d="M156.08,1 L160.9,1 L160.9,88.8 L156.08,88.8 Z M1,1 L5.99,1 L5.99,88.8 L1,88.8 Z" fill="none" stroke="currentColor" stroke-width="1.5"/><path d="M0,0 L0,89.8 L161.9,89.8 L161.9,0 Z M1,1 L5.99,1 L5.99,88.8 L1,88.8 Z M6.99,1 L155.08,1 L155.08,3.2 L6.99,3.2 Z M156.08,1 L160.9,1 L160.9,88.8 L156.08,88.8 Z M6.99,4.2 L155.08,4.2 L155.08,17.2 L6.99,17.2 Z M18,5 L18,17 L79,17 L79,11 L79,5 Z M90,5 L90,17 L151,17 L151,11 L151,5 Z M19,6 L78,6 L78,10 L19,10 Z M91,6 L150,6 L150,10 L91,10 Z M19,12 L78,12 L78,16 L19,16 Z M91,12 L150,12 L150,16 L91,16 Z M6.99,18.2 L155.08,18.2 L155.08,31.2 L6.99,31.2 Z M18,19 L18,31 L79,31 L79,25 L79,19 Z M90,19 L90,31 L151,31 L151,25 L151,19 Z M19,20 L78,20 L78,24 L19,24 Z M91,20 L150,20 L150,24 L91,24 Z M19,26 L78,26 L78,30 L19,30 Z M91,26 L150,26 L150,30 L91,30 Z M6.99,32.2 L155.08,32.2 L155.08,45.2 L6.99,45.2 Z M18,33 L18,45 L79,45 L79,39 L79,33 Z M90,33 L90,45 L151,45 L151,39 L151,33 Z M19,34 L78,34 L78,38 L19,38 Z M91,34 L150,34 L150,38 L91,38 Z M19,40 L78,40 L78,44 L19,44 Z M91,40 L150,40 L150,44 L91,44 Z M6.99,46.2 L155.08,46.2 L155.08,59.2 L6.99,59.2 Z M6.99,60.2 L155.08,60.2 L155.08,73.2 L6.99,73.2 Z M80,66 L80,71 L86,71 L86,66 Z M91,66 L91,71 L97,71 L97,66 Z M99,66 L99,71 L110,71 L110,66 Z M81,67 L85,67 L85,70 L81,70 Z M92,67 L96,67 L96,70 L92,70 Z M100,67 L104,67 L104,70 L100,70 Z M105,67 L109,67 L109,70 L105,70 Z M6.99,74.2 L155.08,74.2 L155.08,88.8 L6.99,88.8 Z M80,80 L80,85 L86,85 L86,80 Z M91,80 L91,85 L97,85 L97,80 Z M99,80 L99,85 L110,85 L110,80 Z M81,81 L85,81 L85,84 L81,84 Z M92,81 L96,81 L96,84 L92,84 Z M100,81 L104,81 L104,84 L100,84 Z M105,81 L109,81 L109,84 L105,84 Z" fill="none" stroke="currentColor" stroke-width="1.5"/></svg>