<svg xmlns="http://www.w3.org/2000/svg" viewBox="0 0 161.9 15.8" width="24" height="24"><path d="M0,0 L0,15.8 L161.9,15.8 L161.9,0 Z" fill="none" stroke="currentColor" stroke-width="1.5"/><path d="M0,0 L0,15.8 L161.9,15.8 L161.9,0 Z M1,1 L6,1 L6,14.8 L1,14.8 Z M7,1 L155,1 L155,14.8 L152,14.8 L152,8 L136,8 L136,14.8 L131,14.8 L131,8 L115,8 L115,14.8 L7,14.8 Z M156,1 L160.9,1 L160.9,14.8 L156,14.8 Z M11,2 L11,7 L32,7 L32,2 Z M35,2 L35,7 L56,7 L56,2 Z M59,2 L59,7 L80,7 L80,2 Z M84,2 L84,7 L91,7 L91,2 Z M12,3 L31,3 L31,6 L12,6 Z M36,3 L55,3 L55,6 L36,6 Z M60,3 L79,3 L79,6 L60,6 Z M85,3 L90,3 L90,6 L85,6 Z M97,3 L97,8 L104,8 L104,3 Z M105,3 L105,8 L112,8 L112,3 Z M98,4 L103,4 L103,7 L98,7 Z M106,4 L111,4 L111,7 L106,7 Z M11,8 L11,13 L32,13 L32,8 Z M35,8 L35,13 L56,13 L56,8 Z M59,8 L59,13 L80,13 L80,8 Z M84,8 L84,13 L91,13 L91,8 Z M12,9 L31,9 L31,12 L12,12 Z M36,9 L55,9 L55,12 L36,12 Z M60,9 L79,9 L79,12 L60,12 Z M85,9 L90,9 L90,12 L85,12 Z M97,9 L97,14 L104,14 L104,9 Z M105,9 L105,14 L112,14 L112,9 Z M116,9 L130,9 L130,14 L116,14 Z M137,9 L151,9 L151,14 L137,14 Z M98,10 L103,10 L103,13 L98,13 Z M106,10 L111,10 L111,13 L106,13 Z" fill="none" stroke="currentColor" stroke-width="1.5"/><path d="M156,1 L160.9,1 L160.9,14.8 L156,14.8 Z M1,1 L6,1 L6,14.8 L1,14.8 Z" fill="none" stroke="currentColor" stroke-width="1.5"/></svg>