<svg xmlns="http://www.w3.org/2000/svg" viewBox="0 0 148.0 297.0" width="24" height="24"><path d="M0,0 L0,297 L148,297 L148,0 Z" fill="none" stroke="currentColor" stroke-width="1.5"/><path d="M15,14 L15,186.33 L140.33,186.33 L140.33,14 Z M1,1 L147,1 L147,296 L1,296 Z" fill="none" stroke="currentColor" stroke-width="1.5"/><rect x="0" y="0" width="0" height="0" fill="none" stroke="currentColor"/><path d="M136.5,246.5 Z M73.5,246.5 Z" fill="none" stroke="currentColor" stroke-width="1.5"/><path d="M136.5,246.5 Z M73.5,246.5 Z" fill="none" stroke="currentColor" stroke-width="1.5"/><rect x="0" y="0" width="0" height="0" fill="none" stroke="currentColor"/><path d="M93,244.5 C91.9,244.5 91,245.4 91,246.5 C91,247.6 91.9,248.5 93,248.5 L135,248.5 C136.1,248.5 137,247.6 137,246.5 C137,245.4 136.1,244.5 135,244.5 Z M30,244.5 C28.9,244.5 28,245.4 28,246.5 C28,247.6 28.9,248.5 30,248.5 L72,248.5 C73.1,248.5 74,247.6 74,246.5 C74,245.4 73.1,244.5 72,244.5 Z" fill="none" stroke="currentColor" stroke-width="1.5"/><path d="M93,245.5 L135,245.5 C135.56,245.5 136,245.94 136,246.5 C136,247.06 135.56,247.5 135,247.5 L93,247.5 C92.44,247.5 92,247.06 92,246.5 C92,245.94 92.44,245.5 93,245.5 Z M30,245.5 L72,245.5 C72.56,245.5 73,245.94 73,246.5 C73,247.06 72.56,247.5 72,247.5 L30,247.5 C29.44,247.5 29,247.06 29,246.5 C29,245.94 29.44,245.5 30,245.5 Z" fill="none" stroke="currentColor" stroke-width="1.5"/><path d="M0,0 L0,297 L148,297 L148,0 Z M1,1 L147,1 L147,296 L141,296 L141,221 L14,221 L14,296 L1,296 Z M14,13 L14,187.33 L141.33,187.33 L141.33,13 Z M15,14 L140.33,14 L140.33,26.33 L15,26.33 Z M15,27.33 L140.33,27.33 L140.33,39.67 L15,39.67 Z M15,40.67 L140.33,40.67 L140.33,53 L15,53 Z M15,54 L140.33,54 L140.33,66.33 L15,66.33 Z M15,67.33 L140.33,67.33 L140.33,79.67 L15,79.67 Z M15,80.67 L140.33,80.67 L140.33,93 L15,93 Z M15,94 L140.33,94 L140.33,106.33 L15,106.33 Z M15,107.33 L140.33,107.33 L140.33,119.67 L15,119.67 Z M15,120.67 L140.33,120.67 L140.33,133 L15,133 Z M15,134 L140.33,134 L140.33,146.33 L15,146.33 Z M15,147.33 L140.33,147.33 L140.33,159.67 L15,159.67 Z M15,160.67 L140.33,160.67 L140.33,173 L15,173 Z M15,174 L140.33,174 L140.33,186.33 L15,186.33 Z M15,222 L77,222 L77,296 L15,296 Z M78,222 L140,222 L140,296 L78,296 Z M30,244.5 C28.9,244.5 28,245.4 28,246.5 C28,247.6 28.9,248.5 30,248.5 L72,248.5 C73.1,248.5 74,247.6 74,246.5 C74,245.4 73.1,244.5 72,244.5 Z M93,244.5 C91.9,244.5 91,245.4 91,246.5 C91,247.6 91.9,248.5 93,248.5 L135,248.5 C136.1,248.5 137,247.6 137,246.5 C137,245.4 136.1,244.5 135,244.5 Z M30,245.5 L72,245.5 C72.56,245.5 73,245.94 73,246.5 C73,247.06 72.56,247.5 72,247.5 L30,247.5 C29.44,247.5 29,247.06 29,246.5 C29,245.94 29.44,245.5 30,245.5 Z M93,245.5 L135,245.5 C135.56,245.5 136,245.94 136,246.5 C136,247.06 135.56,247.5 135,247.5 L93,247.5 C92.44,247.5 92,247.06 92,246.5 C92,245.94 92.44,245.5 93,245.5 Z" fill="none" stroke="currentColor" stroke-width="1.5"/></svg>