<svg xmlns="http://www.w3.org/2000/svg" viewBox="0 0 161.9 30.6" width="24" height="24"><path d="M0,0 L0,30.6 L161.9,30.6 L161.9,0 Z" fill="none" stroke="currentColor" stroke-width="1.5"/><path d="M0,0 L0,30.6 L161.9,30.6 L161.9,0 Z M1,1 L6,1 L6,29.6 L1,29.6 Z M7,1 L155,1 L155,14.8 L7,14.8 Z M156,1 L160.9,1 L160.9,29.6 L156,29.6 Z M9,3 L9,13 L55,13 L55,3 Z M58,3 L58,13 L104,13 L104,3 Z M107,3 L107,13 L153,13 L153,3 Z M10,4 L54,4 L54,6 L10,6 Z M59,4 L103,4 L103,6 L59,6 Z M108,4 L152,4 L152,6 L108,6 Z M10,7 L54,7 L54,9 L10,9 Z M59,7 L103,7 L103,9 L59,9 Z M108,7 L152,7 L152,9 L108,9 Z M10,10 L54,10 L54,12 L10,12 Z M59,10 L103,10 L103,12 L59,12 Z M108,10 L152,10 L152,12 L108,12 Z M7,15.8 L155,15.8 L155,29.6 L7,29.6 Z M9,17 L9,27 L55,27 L55,17 Z M58,17 L58,27 L104,27 L104,17 Z M107,17 L107,27 L153,27 L153,17 Z M10,18 L54,18 L54,20 L10,20 Z M59,18 L103,18 L103,20 L59,20 Z M108,18 L152,18 L152,20 L108,20 Z M10,21 L54,21 L54,23 L10,23 Z M59,21 L103,21 L103,23 L59,23 Z M108,21 L152,21 L152,23 L108,23 Z M10,24 L54,24 L54,26 L10,26 Z M59,24 L103,24 L103,26 L59,26 Z M108,24 L152,24 L152,26 L108,26 Z" fill="none" stroke="currentColor" stroke-width="1.5"/><path d="M156,1 L160.9,1 L160.9,29.6 L156,29.6 Z M1,1 L6,1 L6,29.6 L1,29.6 Z" fill="none" stroke="currentColor" stroke-width="1.5"/></svg>