<svg xmlns="http://www.w3.org/2000/svg" viewBox="0 0 161.9 30.6" width="24" height="24"><path d="M0,0 C0,10.2 0,20.4 0,30.6 C56.09,30.6 113.77,30.6 161.9,30.6 L161.9,0 C104.66,0 49.84,0 0,0 Z" fill="none" stroke="currentColor" stroke-width="1.5"/><path d="M0,0 L0,30.6 L161.9,30.6 L161.9,0 Z M1,1 L5.99,1 L5.99,29.6 L1,29.6 Z M6.99,1 L155.08,1 L155.08,29.6 L6.99,29.6 Z M156.08,1 L160.9,1 L160.9,29.6 L156.08,29.6 Z M75,1.5 L75,10.5 L114,10.5 L114,1.5 Z M115,1.5 L115,10.5 L154,10.5 L154,1.5 Z M76,2.5 L113,2.5 L113,9.5 L76,9.5 Z M116,2.5 L153,2.5 L153,9.5 L116,9.5 Z M75,10.75 L75,19.75 L114,19.75 L114,10.75 Z M115,10.75 L115,19.75 L154,19.75 L154,10.75 Z M76,11.75 L113,11.75 L113,18.75 L76,18.75 Z M116,11.75 L153,11.75 L153,18.75 L116,18.75 Z M75,20 L75,29 L114,29 L114,20 Z M115,20 L115,29 L154,29 L154,20 Z M76,21 L113,21 L113,28 L76,28 Z M116,21 L153,21 L153,28 L116,28 Z M10,23 L10,29 L43,29 L43,26 L51,26 L51,23 Z M11,24 L50,24 L50,25 L42,25 L42,28 L11,28 Z" fill="none" stroke="currentColor" stroke-width="1.5"/><rect x="0" y="0" width="0" height="0" fill="none" stroke="currentColor"/><path d="M7.5,1.5 L74.5,1.5 L74.5,16.5 L7.5,16.5 Z M156.08,1 L160.9,1 L160.9,29.6 L156.08,29.6 Z M1,1 L5.99,1 L5.99,29.6 L1,29.6 Z" fill="none" stroke="currentColor" stroke-width="1.5"/></svg>