<svg xmlns="http://www.w3.org/2000/svg" viewBox="0 0 161.9 30.6" width="24" height="24"><path d="M0,0 L0,30.6 L161.9,30.6 L161.9,0 Z" fill="none" stroke="currentColor" stroke-width="1.5"/><path d="M0,0 L0,30.6 L161.9,30.6 L161.9,0 Z M1,1 L6,1 L6,29.6 L1,29.6 Z M7,1 L155,1 L155,29.6 L7,29.6 Z M156,1 L160.9,1 L160.9,29.6 L156,29.6 Z M8,2 L8,29 L43,29 L43,2 Z M44,2 L44,29 L79,29 L79,2 Z M80,2 L80,29 L115,29 L115,2 Z M116,2 L116,29 L151,29 L151,2 Z M9,3 L42,3 L42,10 L9,10 Z M45,3 L78,3 L78,10 L45,10 Z M81,3 L114,3 L114,10 L81,10 Z M117,3 L150,3 L150,10 L117,10 Z M9,12 L42,12 L42,19 L9,19 Z M45,12 L78,12 L78,19 L45,19 Z M81,12 L114,12 L114,19 L81,19 Z M117,12 L150,12 L150,19 L117,19 Z M9,21 L42,21 L42,28 L9,28 Z M45,21 L78,21 L78,28 L45,28 Z M81,21 L114,21 L114,28 L81,28 Z M117,21 L150,21 L150,28 L117,28 Z" fill="none" stroke="currentColor" stroke-width="1.5"/><path d="M156,1 L160.9,1 L160.9,29.6 L156,29.6 Z M1,1 L6,1 L6,29.6 L1,29.6 Z" fill="none" stroke="currentColor" stroke-width="1.5"/></svg>