<svg xmlns="http://www.w3.org/2000/svg" viewBox="0 0 161.9 652.2" width="24" height="24"><path d="M0,0 L0,0.5 L0,652.2 L161.9,652.2 L161.9,0 Z" fill="none" stroke="currentColor" stroke-width="1.5"/><path d="M0,0 L0,652.2 L161.9,652.2 L161.9,0 Z M1,1 L6,1 L6,651.2 L1,651.2 Z M7,1 L155,1 L155,5 L7,5 Z M156,1 L160.9,1 L160.9,651.2 L156,651.2 Z M7,6 L43.25,6 L43.25,20 L7,20 Z M44.25,6 L80.5,6 L80.5,20 L44.25,20 Z M81.5,6 L117.75,6 L117.75,20 L81.5,20 Z M118.75,6 L155,6 L155,20 L118.75,20 Z M7,21 L43.25,21 L43.25,35 L7,35 Z M44.25,21 L80.5,21 L80.5,35 L44.25,35 Z M81.5,21 L117.75,21 L117.75,35 L81.5,35 Z M118.75,21 L155,21 L155,35 L118.75,35 Z M7,36 L43.25,36 L43.25,50 L7,50 Z M44.25,36 L80.5,36 L80.5,50 L44.25,50 Z M81.5,36 L117.75,36 L117.75,50 L81.5,50 Z M118.75,36 L155,36 L155,50 L118.75,50 Z M7,51 L43.25,51 L43.25,65 L7,65 Z M44.25,51 L80.5,51 L80.5,65 L44.25,65 Z M81.5,51 L117.75,51 L117.75,65 L81.5,65 Z M118.75,51 L155,51 L155,65 L118.75,65 Z M7,66 L155,66 L155,75.6 C153.09,71.13 148.66,68 143.5,68 L18.5,68 C13.34,68 8.91,71.13 7,75.6 Z M18.5,69 L143.5,69 C149.86,69 155,74.14 155,80.5 L155,204.5 C155,210.86 149.86,216 143.5,216 L18.5,216 C12.14,216 7,210.86 7,204.5 L7,80.5 C7,74.14 12.14,69 18.5,69 Z M24.5,78 C19.81,78 16,81.81 16,86.5 L16,198.5 C16,203.19 19.81,207 24.5,207 L137.5,207 C142.19,207 146,203.19 146,198.5 L146,86.5 C146,81.81 142.19,78 137.5,78 Z M25,79 L38,79 L38,206 L25,206 Z M39,79 L52,79 L52,206 L39,206 Z M53,79 L66,79 L66,206 L53,206 Z M67,79 L80,79 L80,206 L67,206 Z M81,79 L94,79 L94,206 L81,206 Z M95,79 L108,79 L108,206 L95,206 Z M109,79 L122,79 L122,206 L109,206 Z M123,79 L136,79 L136,206 L123,206 Z M137,79 L137.5,79 C141.65,79 145,82.35 145,86.5 L145,198.5 C145,202.65 141.65,206 137.5,206 L137,206 Z M24,79.03 L24,205.97 C20.09,205.72 17,202.48 17,198.5 L17,86.5 C17,82.52 20.09,79.28 24,79.03 Z M7,209.4 C8.91,213.87 13.34,217 18.5,217 L143.5,217 C148.66,217 153.09,213.87 155,209.4 L155,255 L25,255 L7,255 Z M7,256 L24,256 L24,335 L7,335 Z M25,256 L155,256 L155,415 L25,415 Z M7,336 L24,336 L24,415 L7,415 Z M7,416 L25,416 L155,416 L155,470.6 C153.09,466.13 148.66,463 143.5,463 L18.5,463 C13.34,463 8.91,466.13 7,470.6 Z M18.5,464 L143.5,464 C149.86,464 155,469.14 155,475.5 L155,599.5 C155,605.86 149.86,611 143.5,611 L18.5,611 C12.14,611 7,605.86 7,599.5 L7,475.5 C7,469.14 12.14,464 18.5,464 Z M24.5,473 C19.81,473 16,476.81 16,481.5 L16,593.5 C16,598.19 19.81,602 24.5,602 L137.5,602 C142.19,602 146,598.19 146,593.5 L146,481.5 C146,476.81 142.19,473 137.5,473 Z M25,474 L38,474 L38,601 L25,601 Z M39,474 L52,474 L52,601 L39,601 Z M53,474 L66,474 L66,601 L53,601 Z M67,474 L80,474 L80,601 L67,601 Z M81,474 L94,474 L94,601 L81,601 Z M95,474 L108,474 L108,601 L95,601 Z M109,474 L122,474 L122,601 L109,601 Z M123,474 L136,474 L136,601 L123,601 Z M137,474 L137.5,474 C141.65,474 145,477.35 145,481.5 L145,593.5 C145,597.65 141.65,601 137.5,601 L137,601 Z M24,474.03 L24,600.97 C20.09,600.72 17,597.48 17,593.5 L17,481.5 C17,477.52 20.09,474.28 24,474.03 Z M7,604.4 C8.91,608.87 13.34,612 18.5,612 L143.5,612 C148.66,612 153.09,608.87 155,604.4 L155,651.2 L7,651.2 Z" fill="none" stroke="currentColor" stroke-width="1.5"/><path d="M7,256 L7,415 L24,415 L24,256 Z M7,6 L7,65 L155,65 L155,6 Z M18.5,464 C12.14,464 7,469.14 7,475.5 L7,599.5 C7,605.86 12.14,611 18.5,611 L143.5,611 C149.86,611 155,605.86 155,599.5 L155,475.5 C155,469.14 149.86,464 143.5,464 Z M18.5,69 C12.14,69 7,74.14 7,80.5 L7,204.5 C7,210.86 12.14,216 18.5,216 L143.5,216 C149.86,216 155,210.86 155,204.5 L155,80.5 C155,74.14 149.86,69 143.5,69 Z M1,1 L160.9,1 L160.9,651.2 L1,651.2 Z" fill="none" stroke="currentColor" stroke-width="1.5"/></svg>