<svg xmlns="http://www.w3.org/2000/svg" viewBox="0 0 148.0 223.0" width="24" height="24"><path d="M0,0 L0,0.5 L0,223 L148,223 L148,0 Z" fill="none" stroke="currentColor" stroke-width="1.5"/><path d="M1,1 L147,1 L147,222 L1,222 Z M15,14 L15,132.97 L140.33,132.97 L140.33,14 Z" fill="none" stroke="currentColor" stroke-width="1.5"/><rect x="0" y="0" width="0" height="0" fill="none" stroke="currentColor"/><path d="M136.5,170.5 Z M73.5,170.5 Z" fill="none" stroke="currentColor" stroke-width="1.5"/><path d="M136.5,170.5 Z M73.5,170.5 Z" fill="none" stroke="currentColor" stroke-width="1.5"/><rect x="0" y="0" width="0" height="0" fill="none" stroke="currentColor"/><path d="M93,168.5 C91.9,168.5 91,169.4 91,170.5 C91,171.6 91.9,172.5 93,172.5 L135,172.5 C136.1,172.5 137,171.6 137,170.5 C137,169.4 136.1,168.5 135,168.5 Z M30,168.5 C28.9,168.5 28,169.4 28,170.5 C28,171.6 28.9,172.5 30,172.5 L72,172.5 C73.1,172.5 74,171.6 74,170.5 C74,169.4 73.1,168.5 72,168.5 Z" fill="none" stroke="currentColor" stroke-width="1.5"/><path d="M93,169.5 L135,169.5 C135.56,169.5 136,169.94 136,170.5 C136,171.06 135.56,171.5 135,171.5 L93,171.5 C92.44,171.5 92,171.06 92,170.5 C92,169.94 92.44,169.5 93,169.5 Z M30,169.5 L72,169.5 C72.56,169.5 73,169.94 73,170.5 C73,171.06 72.56,171.5 72,171.5 L30,171.5 C29.44,171.5 29,171.06 29,170.5 C29,169.94 29.44,169.5 30,169.5 Z" fill="none" stroke="currentColor" stroke-width="1.5"/><path d="M0,0 L0,223 L148,223 L148,0 Z M1,1 L147,1 L147,222 L1,222 Z M14,13 L14,133.97 L141.33,133.97 L141.33,13 Z M15,14 L140.33,14 L140.33,26.33 L15,26.33 Z M15,27.33 L140.33,27.33 L140.33,39.67 L15,39.67 Z M15,40.67 L140.33,40.67 L140.33,53 L15,53 Z M15,54 L140.33,54 L140.33,66.33 L15,66.33 Z M7,57 C5.9,57 5,57.9 5,59 L5,91 C5,92.1 5.9,93 7,93 C8.1,93 9,92.1 9,91 L9,59 C9,57.9 8.1,57 7,57 Z M7,58 C7.56,58 8,58.44 8,59 L8,91 C8,91.56 7.56,92 7,92 C6.44,92 6,91.56 6,91 L6,59 C6,58.44 6.44,58 7,58 Z M15,67.33 L140.33,67.33 L140.33,79.67 L15,79.67 Z M15,80.67 L140.33,80.67 L140.33,93 L15,93 Z M15,94 L140.33,94 L140.33,106.33 L15,106.33 Z M15,107.33 L140.33,107.33 L140.33,119.67 L15,119.67 Z M15,120.67 L140.33,120.67 L140.33,132.97 L15,132.97 Z M14,145 L14,145.5 L14,221 L141,221 L141,145 Z M15,146 L77,146 L77,220 L15,220 Z M78,146 L140,146 L140,220 L78,220 Z M30,168.5 C28.9,168.5 28,169.4 28,170.5 C28,171.6 28.9,172.5 30,172.5 L72,172.5 C73.1,172.5 74,171.6 74,170.5 C74,169.4 73.1,168.5 72,168.5 Z M93,168.5 C91.9,168.5 91,169.4 91,170.5 C91,171.6 91.9,172.5 93,172.5 L135,172.5 C136.1,172.5 137,171.6 137,170.5 C137,169.4 136.1,168.5 135,168.5 Z M30,169.5 L72,169.5 C72.56,169.5 73,169.94 73,170.5 C73,171.06 72.56,171.5 72,171.5 L30,171.5 C29.44,171.5 29,171.06 29,170.5 C29,169.94 29.44,169.5 30,169.5 Z M93,169.5 L135,169.5 C135.56,169.5 136,169.94 136,170.5 C136,171.06 135.56,171.5 135,171.5 L93,171.5 C92.44,171.5 92,171.06 92,170.5 C92,169.94 92.44,169.5 93,169.5 Z" fill="none" stroke="currentColor" stroke-width="1.5"/></svg>