<svg xmlns="http://www.w3.org/2000/svg" viewBox="0 0 161.9 15.8" width="24" height="24"><path d="M0,0 L0,15.8 L161.9,15.8 L161.9,0 Z" fill="none" stroke="currentColor" stroke-width="1.5"/><path d="M0,0 C0,5.27 0,10.53 0,15.8 L161.9,15.8 L161.9,0 Z M1,1 L6,1 L6,14.8 L1,14.8 Z M7,1 L155,1 L155,14.8 L7,14.8 Z M156,1 L160.9,1 L160.9,14.8 L156,14.8 Z M11,2 C11,6.16 11,9.66 11,14 L40,14 C40,10 40,6 40,2 Z M43,2 C43,6 43,10 43,14 L72,14 C72,10 72,6 72,2 Z M75,2 C75,6.16 75,9.66 75,14 L104,14 C104,10 104,6 104,2 Z M107,2 C107,6.15 107,10.43 107,14 L136,14 C136,10 136,6 136,2 Z M12,3 L39,3 L39,7 L12,7 Z M44,3 L71,3 L71,7 L44,7 Z M76,3 L103,3 L103,7 L76,7 Z M108,3 L135,3 L135,7 L108,7 Z M139,3 C139,5.33 139,7.67 139,10 L145,10 L145,3 Z M140,4 L144,4 L144,9 L140,9 Z M12,9 L39,9 L39,13 L12,13 Z M44,9 L71,9 L71,13 L44,13 Z M76,9 L103,9 L103,13 L76,13 Z M108,9 L135,9 L135,13 L108,13 Z" fill="none" stroke="currentColor" stroke-width="1.5"/><path d="M156,1 L160.9,1 L160.9,14.8 L156,14.8 Z M1,1 L6,1 L6,14.8 L1,14.8 Z" fill="none" stroke="currentColor" stroke-width="1.5"/></svg>