<svg xmlns="http://www.w3.org/2000/svg" viewBox="0 0 161.9 15.8" width="24" height="24"><path d="M0,0 L0,15.8 L161.9,15.8 L161.9,0 Z" fill="none" stroke="currentColor" stroke-width="1.5"/><path d="M156,1 L160.9,1 L160.9,14.8 L156,14.8 Z M1,1 L6,1 L6,14.8 L1,14.8 Z" fill="none" stroke="currentColor" stroke-width="1.5"/><path d="M0,0 L0,15.8 L161.9,15.8 L161.9,0 Z M1,1 L6,1 L6,14.8 L1,14.8 Z M7,1 L155,1 L155,14.8 L7,14.8 Z M156,1 L160.9,1 L160.9,14.8 L156,14.8 Z M11,2 L11,7 L49,7 L49,2 Z M50,2 L50,7 L88,7 L88,2 Z M89,2 L89,7 L127,7 L127,2 Z M129,2 L129,7 L136,7 L136,2 Z M138,2 L138,7 L145,7 L152,7 L152,2 L145,2 Z M12,3 L48,3 L48,6 L12,6 Z M51,3 L87,3 L87,6 L51,6 Z M90,3 L126,3 L126,6 L90,6 Z M130,3 L135,3 L135,6 L130,6 Z M139,3 L144,3 L144,6 L139,6 Z M146,3 L151,3 L151,6 L146,6 Z M11,8 L11,13 L49,13 L49,8 Z M50,8 L50,13 L88,13 L88,8 Z M89,8 L89,13 L127,13 L127,8 Z M129,8 L129,13 L136,13 L136,8 Z M138,8 L138,13 L145,13 L152,13 L152,8 L145,8 Z M12,9 L48,9 L48,12 L12,12 Z M51,9 L87,9 L87,12 L51,12 Z M90,9 L126,9 L126,12 L90,12 Z M130,9 L135,9 L135,12 L130,12 Z M139,9 L144,9 L144,12 L139,12 Z M146,9 L151,9 L151,12 L146,12 Z" fill="none" stroke="currentColor" stroke-width="1.5"/></svg>