<svg xmlns="http://www.w3.org/2000/svg" viewBox="0 0 161.93 89.8" width="24" height="24"><path d="M0,0 L0,66 L6,66 L6,89.8 L156.4,89.8 L156.4,66 L161.93,66 L161.93,0 Z" fill="none" stroke="currentColor" stroke-width="1.5"/><path d="M0,0 C0,22 0,44 0,66 L6,66 L6,89.8 L156.4,89.8 L156.4,66 L161.93,66 L161.93,0 Z M1,1 L6,1 L6,65 L1,65 Z M7,1 L80.5,1 L80.5,17 L7,17 Z M81.5,1 L155.4,1 L155.4,17 L81.5,17 Z M156.4,1 L160.93,1 L160.93,65 L156.4,65 Z M7,18 L80.5,18 L80.5,34 L7,34 Z M81.5,18 L155.4,18 L155.4,34 L81.5,34 Z M7,35 L80.5,35 L80.5,51 L7,51 Z M81.5,35 L155.4,35 L155.4,51 L81.5,51 Z M7,52 L80.5,52 L80.5,68 L7,68 Z M81.5,52 L155.4,52 L155.4,68 L81.5,68 Z M7,69 L155.4,69 L155.4,88.8 L7,88.8 Z" fill="none" stroke="currentColor" stroke-width="1.5"/><path d="M156.4,1 L160.93,1 L160.93,65 L156.4,65 Z M1,1 L6,1 L6,65 L1,65 Z" fill="none" stroke="currentColor" stroke-width="1.5"/></svg>