<svg xmlns="http://www.w3.org/2000/svg" viewBox="0 0 161.9 15.8" width="24" height="24"><path d="M0,0 L0,15.8 L6,15.8 L156,15.8 L161.9,15.8 L161.9,0 L29,0 L6,0 Z" fill="none" stroke="currentColor" stroke-width="1.5"/><path d="M156,1 L160.9,1 L160.9,14.8 L156,14.8 L156,5 Z M29,1 L155,1 L155,5 L29,5 Z M7,1 L28,1 L28,8 L7,8 Z M1,1 L6,1 L6,14.8 L1,14.8 Z" fill="none" stroke="currentColor" stroke-width="1.5"/><path d="M0,0 L0,15.8 L6,15.8 L156,15.8 L161.9,15.8 L161.9,0 L29,0 L6,0 Z M1,1 L6,1 L6,14.8 L1,14.8 Z M7,1 L28,1 L28,8 L7,8 Z M29,1 L155,1 L155,5 L29,5 Z M156,1 L160.9,1 L160.9,14.8 L156,14.8 L156,5 Z M29,6 L155,6 L155,8.5 L155,14.8 L7,14.8 L7,9 L29,9 Z" fill="none" stroke="currentColor" stroke-width="1.5"/></svg>