<svg xmlns="http://www.w3.org/2000/svg" viewBox="0 0 161.85 104.6" width="24" height="24"><path d="M0,0 L0,104.6 L161.85,104.6 L161.85,0 Z" fill="none" stroke="currentColor" stroke-width="1.5"/><path d="M156.32,1 L160.85,1 L160.85,103.6 L156.32,103.6 Z M1,1 L6,1 L6,103.6 L1,103.6 Z" fill="none" stroke="currentColor" stroke-width="1.5"/><path d="M0,0 L0,104.6 L161.85,104.6 L161.85,0 Z M1,1 L6,1 L6,103.6 L1,103.6 Z M7,1 L18,1 L18,103.6 L7,103.6 Z M19,1 L155.32,1 L155.32,10 L19,10 Z M156.32,1 L160.85,1 L160.85,103.6 L156.32,103.6 Z M19,11 L155.32,11 L155.32,25 L19,25 Z M19,26 L155.32,26 L155.32,40 L19,40 Z M12,37 C10.9,37 10,37.9 10,39 L10,68 C10,69.1 10.9,70 12,70 C13.1,70 14,69.1 14,68 L14,39 C14,37.9 13.1,37 12,37 Z M12,38 C12.56,38 13,38.44 13,39 L13,68 C13,68.56 12.56,69 12,69 C11.44,69 11,68.56 11,68 L11,39 C11,38.44 11.44,38 12,38 Z M19,41 L155.32,41 L155.32,55 L19,55 Z M19,56 L155.32,56 L155.32,72 L19,72 Z M19,73 L155.32,73 L155.32,89 L19,89 Z M19,90 L155.32,90 L155.32,103.6 L19,103.6 Z" fill="none" stroke="currentColor" stroke-width="1.5"/></svg>