<svg xmlns="http://www.w3.org/2000/svg" viewBox="0 0 86.75 89.8" width="24" height="24"><path d="M0,0 L0,89.8 L86.75,89.8 L86.75,0 Z" fill="none" stroke="currentColor" stroke-width="1.5"/><path d="M1,6 L1,1 L43,1 L43,6 Z M44,6 L44,1 L85.75,1 L85.75,6 Z M65,9 L65,12 L61,12 L61,9 Z M60,8 L60,13 L66,13 L66,8 Z M85.75,7 L85.75,17 L1,17 L1,7 Z M4,18 L4,78 L82,78 L82,18 L85.75,18 L85.75,88.8 L1,88.8 L1,18 Z" fill="none" stroke="currentColor" stroke-width="1.5"/><path d="M0,0 L0,89.8 L86.75,89.8 L86.75,0 Z M1,1 L43,1 L43,6 L1,6 Z M44,1 L85.75,1 L85.75,6 L44,6 Z M1,7 L85.75,7 L85.75,17 L1,17 Z M60,8 L60,13 L66,13 L66,8 Z M61,9 L65,9 L65,12 L61,12 Z M1,18 L4,18 L4,78 L82,78 L82,18 L85.75,18 L85.75,88.8 L1,88.8 Z M5,18 L15,18 L15,77 L5,77 Z M16,18 L26,18 L26,77 L16,77 Z M27,18 L37,18 L37,77 L27,77 Z M38,18 L48,18 L48,77 L38,77 Z M49,18 L59,18 L59,77 L49,77 Z M60,18 L70,18 L70,77 L60,77 Z M71,18 L81,18 L81,77 L71,77 Z" fill="none" stroke="currentColor" stroke-width="1.5"/></svg>