<svg xmlns="http://www.w3.org/2000/svg" viewBox="0 0 161.9 15.7" width="24" height="24"><path d="M0,0 L0,15.7 L161.9,15.7 L161.9,0 Z" fill="none" stroke="currentColor" stroke-width="1.5"/><path d="M0,0 L0,15.7 L161.9,15.7 L161.9,0 Z M1,1 L5.99,1 L5.99,14.7 L1,14.7 Z M6.99,1 L155.08,1 L155.08,14.7 L6.99,14.7 Z M156.08,1 L160.9,1 L160.9,14.7 L156.08,14.7 Z M42,2 L42,8 L80,8 L80,2 Z M81.25,2 L81.25,8 L119.25,8 L119.25,2 Z M120,2 L120,6 L125,6 L125,2 Z M126,2 L126,6 L131,6 L131,2 Z M132,2 L132,6 L137,6 L137,2 Z M43,3 L79,3 L79,7 L43,7 Z M82.25,3 L118.25,3 L118.25,7 L82.25,7 Z M121,3 L124,3 L124,5 L121,5 Z M127,3 L130,3 L130,5 L127,5 Z M133,3 L136,3 L136,5 L133,5 Z" fill="none" stroke="currentColor" stroke-width="1.5"/><path d="M156.08,1 L160.9,1 L160.9,14.7 L156.08,14.7 Z M1,1 L5.99,1 L5.99,14.7 L1,14.7 Z" fill="none" stroke="currentColor" stroke-width="1.5"/></svg>