<svg xmlns="http://www.w3.org/2000/svg" viewBox="0 0 161.9 157.67" width="24" height="24"><path d="M0,0 L0,157.67 L161.9,157.67 L161.9,0 Z" fill="none" stroke="currentColor" stroke-width="1.5"/><path d="M0,0 L0,157.67 L161.9,157.67 L161.9,0 Z M1,1 L6,1 L6,156.67 L1,156.67 Z M7,1 L14.76,1 L14.76,127 L7,127 Z M15.76,1 L23.52,1 L23.52,127 L15.76,127 Z M24.52,1 L32.28,1 L32.28,127 L24.52,127 Z M33.28,1 L41.04,1 L41.04,127 L33.28,127 Z M42.04,1 L49.8,1 L49.8,127 L42.04,127 Z M50.8,1 L58.56,1 L58.56,127 L50.8,127 Z M59.56,1 L67.32,1 L67.32,127 L59.56,127 Z M68.32,1 L76.08,1 L76.08,127 L68.32,127 Z M77.08,1 L84.84,1 L84.84,127 L77.08,127 Z M85.84,1 L93.6,1 L93.6,127 L85.84,127 Z M94.6,1 L102.36,1 L102.36,127 L94.6,127 Z M103.36,1 L111.12,1 L111.12,127 L103.36,127 Z M112.12,1 L119.88,1 L119.88,127 L112.12,127 Z M120.88,1 L128.64,1 L128.64,127 L120.88,127 Z M129.64,1 L137.4,1 L137.4,127 L129.64,127 Z M138.4,1 L146.16,1 L146.16,127 L138.4,127 Z M147.16,1 L155,1 L155,127 L147.16,127 Z M156,1 L160.9,1 L160.9,156.67 L156,156.67 Z M7,128 L155,128 L155,142 L7,142 Z M7,143 L155,143 L155,156.67 L7,156.67 Z M10,146 L10,154 L24,154 L24,146 Z M138,146 L138,154 L152,154 L152,146 Z M11,147 L23,147 L23,153 L11,153 Z M139,147 L151,147 L151,153 L139,153 Z" fill="none" stroke="currentColor" stroke-width="1.5"/><path d="M156,1 L160.9,1 L160.9,156.67 L156,156.67 Z M1,1 L6,1 L6,156.67 L1,156.67 Z" fill="none" stroke="currentColor" stroke-width="1.5"/></svg>