<svg xmlns="http://www.w3.org/2000/svg" viewBox="0 0 161.9 193.4" width="24" height="24"><path d="M0,0 L0,193.4 L161.9,193.4 L161.9,0 Z" fill="none" stroke="currentColor" stroke-width="1.5"/><path d="M156,1 L160.9,1 L160.9,192.4 L156,192.4 Z M1,1 L6,1 L6,192.4 L1,192.4 Z" fill="none" stroke="currentColor" stroke-width="1.5"/><path d="M0,0 L0,193.4 L161.9,193.4 L161.9,0 Z M1,1 L6,1 L6,192.4 L1,192.4 Z M7,1 L155,1 L155,10 L7,10 Z M156,1 L160.9,1 L160.9,192.4 L156,192.4 Z M7,11 L12,11 L12,52 L7,52 Z M13,11 L149,11 L149,24 L13,24 Z M150,11 L155,11 L155,52 L150,52 Z M13,25 L149,25 L149,38 L13,38 Z M13,39 L149,39 L149,52 L13,52 Z M7,53 L155,53 L155,58 L7,58 Z M7,59 L12,59 L12,68 L7,68 Z M13,59 L149,59 L149,68 L13,68 Z M150,59 L155,59 L155,68 L150,68 Z M7,69 L155,69 L155,78 L7,78 Z M7,79 L155,79 L155,88 L7,88 Z M7,89 L12,89 L12,98 L7,98 Z M13,89 L149,89 L149,98 L13,98 Z M150,89 L155,89 L155,98 L150,98 Z M7,99 L155,99 L155,108 L7,108 Z M7,109 L155,109 L155,118 L7,118 Z M7,119 L12,119 L12,128 L7,128 Z M13,119 L149,119 L149,128 L13,128 Z M150,119 L155,119 L155,128 L150,128 Z M7,129 L155,129 L155,132 L7,132 Z M7,133 L12,133 L12,142 L7,142 Z M13,133 L149,133 L149,142 L13,142 Z M150,133 L155,133 L155,142 L150,142 Z M7,143 L12,143 L12,156 L7,156 Z M13,143 L149,143 L149,156 L13,156 Z M150,143 L155,143 L155,156 L150,156 Z M7,157 L12,157 L12,170 L7,170 Z M13,157 L149,157 L149,170 L13,170 Z M150,157 L155,157 L155,170 L150,170 Z M7,171 L12,171 L12,184 L7,184 Z M13,171 L149,171 L149,184 L13,184 Z M150,171 L155,171 L155,184 L150,184 Z M7,185 L155,185 L155,192.4 L7,192.4 Z" fill="none" stroke="currentColor" stroke-width="1.5"/></svg>