<svg xmlns="http://www.w3.org/2000/svg" viewBox="0 0 161.9 15.8" width="24" height="24"><path d="M0,0 L0,15.8 L161.9,15.8 L161.9,0 Z" fill="none" stroke="currentColor" stroke-width="1.5"/><path d="M0,0 L0,15.8 L161.9,15.8 L161.9,0 Z M1,1 L6,1 L6,14.8 L1,14.8 Z M7,1 L155,1 L155,14.8 L7,14.8 Z M156,1 L160.9,1 L160.9,14.8 L156,14.8 Z M15,2 L15,14 L37,14 L37,2 Z M43,2 L43,14 L65,14 L65,2 Z M71,2 L71,14 L93,14 L93,2 Z M100,2 L100,14 L122,14 L122,2 Z M129,2 L129,14 L151,14 L151,2 Z M16,3 L36,3 L36,7 L16,7 Z M44,3 L64,3 L64,7 L44,7 Z M72,3 L92,3 L92,7 L72,7 Z M101,3 L121,3 L121,7 L101,7 Z M130,3 L150,3 L150,7 L130,7 Z M16,9 L36,9 L36,13 L16,13 Z M44,9 L64,9 L64,13 L44,13 Z M72,9 L92,9 L92,13 L72,13 Z M101,9 L121,9 L121,13 L101,13 Z M130,9 L150,9 L150,13 L130,13 Z" fill="none" stroke="currentColor" stroke-width="1.5"/><rect x="0" y="0" width="0" height="0" fill="none" stroke="currentColor"/><path d="M123,2.5 L128,2.5 L128,13.5 L123,13.5 Z M94,2.5 L99,2.5 L99,13.5 L94,13.5 Z M65.5,2.5 L70.5,2.5 L70.5,13.5 L65.5,13.5 Z M37.5,2.5 L42.5,2.5 L42.5,13.5 L37.5,13.5 Z M156,1 L160.9,1 L160.9,14.8 L156,14.8 Z M1,1 L6,1 L6,14.8 L1,14.8 Z" fill="none" stroke="currentColor" stroke-width="1.5"/></svg>