<svg xmlns="http://www.w3.org/2000/svg" viewBox="0 0 161.9 371.0" width="24" height="24"><path d="M0,0 L0,371 L161.9,371 L161.9,0 Z" fill="none" stroke="currentColor" stroke-width="1.5"/><path d="M0,0 L0,371 L0.5,371 L161.9,371 L161.9,0 Z M1,1 L160.9,1 L160.9,5 L1,5 Z M1,6 L6,6 L6,280.4 L156,280.4 L156,6 L160.9,6 L160.9,290 L1,290 Z M7,6 L155,6 L155,19.8 L7,19.8 Z M7,20.8 L155,20.8 L155,34.6 L7,34.6 Z M7,35.6 L155,35.6 L155,49.4 L7,49.4 Z M7,50.4 L155,50.4 L155,64.2 L7,64.2 Z M7,65.2 L155,65.2 L155,79 L7,79 Z M7,80 L155,80 L155,93.8 L7,93.8 Z M7,94.8 L155,94.8 L155,108.6 L7,108.6 Z M7,109.6 L155,109.6 L155,123.4 L7,123.4 Z M7,124.4 L155,124.4 L155,142.4 L7,142.4 Z M7,143.4 L155,143.4 L155,161.38 L7,161.38 Z M7,162.4 L155,162.4 L155,175.8 L7,175.8 Z M7,176.8 L155,176.8 L155,190.6 L7,190.6 Z M7,191.6 L155,191.6 L155,205.4 L7,205.4 Z M7,206.4 L155,206.4 L155,220.2 L7,220.2 Z M7,221.2 L155,221.2 L155,235 L7,235 Z M7,236 L155,236 L155,249.8 L7,249.8 Z M7,250.8 L155,250.8 L155,264.6 L7,264.6 Z M7,265.6 L155,265.6 L155,279.4 L7,279.4 Z M10,291 L10,357.5 C10,359.43 11.57,361 13.5,361 L148.4,361 C150.33,361 151.9,359.43 151.9,357.5 L151.9,291 L160.9,291 L160.9,370 L1,370 L1,291 Z M11,291 L150.9,291 L150.9,300 L11,300 Z M11,301 L150.9,301 L150.9,357.5 C150.9,358.89 149.79,360 148.4,360 L13.5,360 C12.11,360 11,358.89 11,357.5 Z" fill="none" stroke="currentColor" stroke-width="1.5"/><path d="M6,5 L6,280.4 L156,280.4 L156,5 Z M1,1 L160.9,1 L160.9,370 L1,370 Z" fill="none" stroke="currentColor" stroke-width="1.5"/><path d="M1,291 L10,291 L10,357.5 C10,359.43 11.57,361 13.5,361 L148.4,361 C150.33,361 151.9,359.43 151.9,357.5 L151.9,291 L160.9,291 L160.9,370 L1,370 Z M11,290.99 L150.9,290.99 L150.9,300.01 L11,300.01 Z M1,1 L160.9,1 L160.9,5 L1,5 Z" fill="none" stroke="currentColor" stroke-width="1.5"/><path d="M0,5 L0,5.5 L0,291 L161.9,291 L161.9,5 Z" fill="none" stroke="currentColor" stroke-width="1.5"/><path d="M0,126.99 L0,159.99 L8.64,159.99 L20.64,152.99 L141.27,152.99 L153.27,159.99 L153.4,159.99 L161.9,159.99 L161.9,126.99 L153.27,126.99 L141.27,133.99 L20.64,133.99 L8.64,126.99 Z" fill="none" stroke="currentColor" stroke-width="1.5"/><path d="M1,127.99 L8.37,127.99 L20.37,134.99 L141.54,134.99 L153.54,127.99 L160.9,127.99 L160.9,158.99 L153.54,158.99 L141.54,151.99 L20.37,151.99 L8.37,158.99 L1,158.99 Z M0,126.99 L0,159.99 L8.64,159.99 L20.64,152.99 L141.27,152.99 L153.27,159.99 L161.9,159.99 L161.9,126.99 L161.4,126.99 L153.27,126.99 L141.27,133.99 L20.64,133.99 L8.64,126.99 Z" fill="none" stroke="currentColor" stroke-width="1.5"/><path d="M5.76,130.06 L5.15,130.85 L9,134.7 L9,152.28 L5.15,156.14 L5.76,156.92 L16,150.77 L16,136.21 L15.76,136.06 Z M156.14,130.06 L145.9,136.21 L145.9,136.49 L145.9,150.77 L156.14,156.92 L156.75,156.14 L152.9,152.28 L152.9,134.7 L156.75,130.85 Z M8.73,133.01 L15,136.78 L15,150.21 L8.73,153.97 L10,152.7 L10,134.28 Z M153.17,133.01 L151.9,134.28 L151.9,152.7 L153.17,153.97 L146.9,150.21 L146.9,136.78 Z" fill="none" stroke="currentColor" stroke-width="1.5"/></svg>