<svg xmlns="http://www.w3.org/2000/svg" viewBox="0 0 161.9 15.7" width="24" height="24"><path d="M0,0 L0,15.7 L161.9,15.7 L161.9,0 Z" fill="none" stroke="currentColor" stroke-width="1.5"/><path d="M0,0 L0,15.7 L161.9,15.7 L161.9,0 Z M1,1 L5.99,1 L5.99,14.7 L1,14.7 Z M6.99,1 L112,1 L112,6 L153,6 L153,1 L155.08,1 L155.08,14.7 L6.99,14.7 Z M156.08,1 L160.9,1 L160.9,14.7 L156.08,14.7 Z M113,2 L152,2 L152,5 L113,5 Z M37,9 L37,14 L44,14 L44,9 Z M45,9 L45,14 L52,14 L52,9 Z M53,9 L53,14 L60,14 L60,9 Z M38,10 L43,10 L43,13 L38,13 Z M46,10 L51,10 L51,13 L46,13 Z M54,10 L59,10 L59,13 L54,13 Z M75,10 L75,14 L81,14 L81,10 Z M83,10 L83,14 L89,14 L89,10 Z M91,10 L91,14 L97,14 L97,10 Z M99,10 L99,14 L105,14 L105,10 Z M76,11 L80,11 L80,13 L76,13 Z M84,11 L88,11 L88,13 L84,13 Z M92,11 L96,11 L96,13 L92,13 Z M100,11 L104,11 L104,13 L100,13 Z" fill="none" stroke="currentColor" stroke-width="1.5"/><path d="M156.08,1 L160.9,1 L160.9,14.7 L156.08,14.7 Z M1,1 L5.99,1 L5.99,14.7 L1,14.7 Z" fill="none" stroke="currentColor" stroke-width="1.5"/></svg>