<svg xmlns="http://www.w3.org/2000/svg" viewBox="0 0 161.9 30.6" width="24" height="24"><path d="M0,0 C0,10.2 0,20.4 0,30.6 C56.09,30.6 113.77,30.6 161.9,30.6 L161.9,0 C104.66,0 49.84,0 0,0 Z" fill="none" stroke="currentColor" stroke-width="1.5"/><path d="M0,0 L0,30.6 L161.9,30.6 L161.9,0 Z M1,1 L6,1 L6,29.6 L1,29.6 Z M7,1 L155,1 L155,7 L7,7.4 Z M156,1 L160.9,1 L160.9,29.6 L156,29.6 Z M155,8 L155,14.8 L7,14.8 L7,8.4 Z M78,9 L78,14 L83,14 L83,9 Z M11,10 L11,14 L20,14 L20,10 Z M23,10 L23,14 L32,14 L32,10 Z M40,10 L40,14 L65,14 L65,10 Z M68,10 L68,14 L77,14 L77,10 Z M79,10 L82,10 L82,13 L79,13 Z M136,10 L136,14 L145,14 L145,10 Z M12,11 L15,11 L15,13 L12,13 Z M16,11 L19,11 L19,13 L16,13 Z M24,11 L27,11 L27,13 L24,13 Z M28,11 L31,11 L31,13 L28,13 Z M41,11 L44,11 L44,13 L41,13 Z M45,11 L48,11 L48,13 L45,13 Z M49,11 L52,11 L52,13 L49,13 Z M53,11 L56,11 L56,13 L53,13 Z M57,11 L60,11 L60,13 L57,13 Z M61,11 L64,11 L64,13 L61,13 Z M69,11 L72,11 L72,13 L69,13 Z M73,11 L76,11 L76,13 L73,13 Z M137,11 L140,11 L140,13 L137,13 Z M141,11 L144,11 L144,13 L141,13 Z M7,15.8 L155,15.8 L155,22.2 L7,22.2 Z M7,23.2 L155,23.2 L155,29.6 L7,29.6 Z M78,23.5 L78,24 L78,28.5 L83,28.5 L83,23.5 Z M11,24.5 L11,28.5 L16,28.5 L20,28.5 L20,24.5 L16,24.5 Z M23,24.5 L23,28.5 L32,28.5 L32,24.5 Z M40,24.5 L40,28.5 L65,28.5 L65,24.5 Z M68,24.5 L68,28.5 L77,28.5 L77,24.5 Z M79,24.5 L82,24.5 L82,27.5 L79,27.5 Z M136,24.5 L136,28.5 L145,28.5 L145,24.5 Z M12,25.5 L15,25.5 L15,27.5 L12,27.5 Z M16,25.5 L19,25.5 L19,27.5 L16,27.5 Z M24,25.5 L27,25.5 L27,27.5 L24,27.5 Z M28,25.5 L31,25.5 L31,27.5 L28,27.5 Z M41,25.5 L44,25.5 L44,27.5 L41,27.5 Z M45,25.5 L48,25.5 L48,27.5 L45,27.5 Z M49,25.5 L52,25.5 L52,27.5 L49,27.5 Z M53,25.5 L56,25.5 L56,27.5 L53,27.5 Z M57,25.5 L60,25.5 L60,27.5 L57,27.5 Z M61,25.5 L64,25.5 L64,27.5 L61,27.5 Z M69,25.5 L72,25.5 L72,27.5 L69,27.5 Z M73,25.5 L76,25.5 L76,27.5 L73,27.5 Z M137,25.5 L140,25.5 L140,27.5 L137,27.5 Z M141,25.5 L144,25.5 L144,27.5 L141,27.5 Z" fill="none" stroke="currentColor" stroke-width="1.5"/><rect x="0" y="0" width="0" height="0" fill="none" stroke="currentColor"/><path d="M10.5,18.3 L152.5,18.3 L152.5,20.3 L10.5,20.3 Z M10.5,3.5 L152.5,3.5 L152.5,5.5 L10.5,5.5 Z M156,1 L160.9,1 L160.9,29.6 L156,29.6 Z M1,1 L6,1 L6,29.6 L1,29.6 Z" fill="none" stroke="currentColor" stroke-width="1.5"/></svg>