<svg xmlns="http://www.w3.org/2000/svg" viewBox="0 0 161.9 60.2" width="24" height="24"><path d="M0,0 L0,60.2 L161.9,60.2 L161.9,0 Z" fill="none" stroke="currentColor" stroke-width="1.5"/><path d="M156,1 L160.9,1 L160.9,59.2 L156,59.2 Z M1,1 L6,1 L6,59.2 L1,59.2 Z" fill="none" stroke="currentColor" stroke-width="1.5"/><path d="M0,0 L0,60.2 L161.9,60.2 L161.9,0 Z M1,1 L6,1 L6,59.2 L1,59.2 Z M7,1 L155,1 L155,59.2 L7,59.2 Z M156,1 L160.9,1 L160.9,59.2 L156,59.2 Z M8,3 L8,57 L43,57 L43,3 Z M44,3 L44,57 L79,57 L79,3 Z M80,3 L80,57 L115,57 L115,3 Z M116,3 L116,57 L151,57 L151,3 Z M9,4 L42,4 L42,11 L9,11 Z M45,4 L78,4 L78,11 L45,11 Z M81,4 L114,4 L114,11 L81,11 Z M117,4 L150,4 L150,11 L117,11 Z M9,13 L42,13 L42,20 L9,20 Z M45,13 L78,13 L78,20 L45,20 Z M81,13 L114,13 L114,20 L81,20 Z M117,13 L150,13 L150,20 L117,20 Z M9,22 L42,22 L42,29 L9,29 Z M45,22 L78,22 L78,29 L45,29 Z M81,22 L114,22 L114,29 L81,29 Z M117,22 L150,22 L150,29 L117,29 Z M9,31 L42,31 L42,38 L9,38 Z M45,31 L78,31 L78,38 L45,38 Z M81,31 L114,31 L114,38 L81,38 Z M117,31 L150,31 L150,38 L117,38 Z M9,40 L42,40 L42,47 L9,47 Z M45,40 L78,40 L78,47 L45,47 Z M81,40 L114,40 L114,47 L81,47 Z M117,40 L150,40 L150,47 L117,47 Z M9,49 L42,49 L42,56 L9,56 Z M45,49 L78,49 L78,56 L45,56 Z M81,49 L114,49 L114,56 L81,56 Z M117,49 L150,49 L150,56 L117,56 Z" fill="none" stroke="currentColor" stroke-width="1.5"/></svg>