<svg xmlns="http://www.w3.org/2000/svg" viewBox="0 0 161.9 15.7" width="24" height="24"><path d="M0,0 L0,15.7 L161.9,15.7 L161.9,0 Z" fill="none" stroke="currentColor" stroke-width="1.5"/><path d="M0,0 L0,15.7 L161.9,15.7 L161.9,0 Z M1,1 L5.99,1 L5.99,14.7 L1,14.7 Z M6.99,1 L70,1 L70,14.7 L6.99,14.7 Z M71,1 L155.08,1 L155.08,14.7 L71,14.7 Z M156.08,1 L160.9,1 L160.9,14.7 L156.08,14.7 Z M72,4 L72,13 L111,13 L111,4 Z M113,4 L113,13 L152,13 L152,4 Z M73,5 L110,5 L110,12 L73,12 Z M114,5 L151,5 L151,12 L114,12 Z M10,7 L10,13 L61,13 L61,7 Z M11,8 L60,8 L60,12 L11,12 Z" fill="none" stroke="currentColor" stroke-width="1.5"/><path d="M156.08,1 L160.9,1 L160.9,14.7 L156.08,14.7 Z M1,1 L5.99,1 L5.99,14.7 L1,14.7 Z" fill="none" stroke="currentColor" stroke-width="1.5"/></svg>