<svg xmlns="http://www.w3.org/2000/svg" viewBox="0 0 161.85 30.9" width="24" height="24"><path d="M0,0 L0,0.5 L0,30.9 L161.85,30.9 L161.85,0 Z" fill="none" stroke="currentColor" stroke-width="1.5"/><path d="M0,0 L0,30.9 L161.85,30.9 L161.85,0 Z M1,1 L160.85,1 L160.85,29.9 L1,29.9 Z M4,2.5 L4,28.5 L5,28.5 L5,16 L90,16 L90,28.5 L91,28.5 L91,16 L144,16 L144,28.5 L145,28.5 L145,2.5 L144,2.5 L144,15 L5,15 L5,2.5 Z M84,5 L84,7.5 L90.5,7.5 L90.5,5 Z M85,6 L89.5,6 L89.5,6.5 L85,6.5 Z M153,9 C149.42,9 146.5,11.92 146.5,15.5 C146.5,19.08 149.42,22 153,22 C156.58,22 159.5,19.08 159.5,15.5 C159.5,11.92 156.58,9 153,9 Z M6.5,17 L6.5,18 L88.5,18 L88.5,17 Z M95.5,17 C93.84,17 92.5,18.34 92.5,20 L92.5,24.5 C92.5,26.16 93.84,27.5 95.5,27.5 L139.5,27.5 C141.16,27.5 142.5,26.16 142.5,24.5 L142.5,20 C142.5,18.34 141.16,17 139.5,17 Z M6.5,19 L6.5,20 L88.5,20 L88.5,19 Z M6.5,21 L6.5,22 L88.5,22 L88.5,21 Z M6.5,23 L6.5,24 L88.5,24 L88.5,23 Z M6.5,25 L6.5,26 L88.5,26 L88.5,25 Z M6.5,27 L6.5,28 L88.5,28 L88.5,27 Z" fill="none" stroke="currentColor" stroke-width="1.5"/><path d="M153,10 C156.04,10 158.5,12.46 158.5,15.5 C158.5,18.54 156.04,21 153,21 C149.96,21 147.5,18.54 147.5,15.5 C147.5,12.46 149.96,10 153,10 Z" fill="none" stroke="currentColor" stroke-width="1.5"/><rect x="0" y="0" width="0" height="0" fill="none" stroke="currentColor"/><path d="M5,2.5 L5,15 L144,15 L144,2.5 Z M84,5 L90.5,5 L90.5,7.5 L84,7.5 Z M5,16 L5,28.5 L90,28.5 L90,16 Z M91,16 L91,28.5 L144,28.5 L144,16 Z M6.5,17 L88.5,17 L88.5,18 L6.5,18 Z M95.5,17 L139.5,17 C141.16,17 142.5,18.34 142.5,20 L142.5,24.5 C142.5,26.16 141.16,27.5 139.5,27.5 L95.5,27.5 C93.84,27.5 92.5,26.16 92.5,24.5 L92.5,20 C92.5,18.34 93.84,17 95.5,17 Z M6.5,19 L88.5,19 L88.5,20 L6.5,20 Z M6.5,21 L88.5,21 L88.5,22 L6.5,22 Z M6.5,23 L88.5,23 L88.5,24 L6.5,24 Z M6.5,25 L88.5,25 L88.5,26 L6.5,26 Z M6.5,27 L88.5,27 L88.5,28 L6.5,28 Z" fill="none" stroke="currentColor" stroke-width="1.5"/><rect x="0" y="0" width="0" height="0" fill="none" stroke="currentColor"/><path d="M65,9.5 C65,11 65,12.5 65,14 C68.67,14 72.33,14 76,14 L76,9.5 C72.33,9.5 68.67,9.5 65,9.5 Z M52,9.5 C52,11 52,12.5 52,14 C55.67,14 59.33,14 63,14 L63,9.5 C59.33,9.5 55.67,9.5 52,9.5 Z M6,8 C6,10 6,12 6,14 L13,14 L13,8 Z" fill="none" stroke="currentColor" stroke-width="1.5"/><path d="M16,10.5 L24,10.5 L24,13.5 L16,13.5 Z M15,9.5 C15,11.17 15,12.83 15,14.5 L25,14.5 L25,9.5 Z M16,4 L24,4 L24,7 L16,7 Z M15,3 C15,4.67 15,6.33 15,8 L25,8 L25,3 Z" fill="none" stroke="currentColor" stroke-width="1.5"/><rect x="0" y="0" width="0" height="0" fill="none" stroke="currentColor"/><path d="M85.5,10 L90.5,10 L90.5,13.5 L85.5,13.5 Z M79.5,10 L84.5,10 L84.5,13.5 L79.5,13.5 Z M71,10.5 L75,10.5 L75,13 L71,13 Z M66,10.5 L70,10.5 L70,13 L66,13 Z M58,10.5 L62,10.5 L62,13 L58,13 Z M53,10.5 L57,10.5 L57,13 L53,13 Z M7,9 L12,9 L12,13 L7,13 Z" fill="none" stroke="currentColor" stroke-width="1.5"/><rect x="131" y="20.75" width="9" height="3" fill="none" stroke="currentColor"/><rect x="134" y="17.75" width="3" height="9" fill="none" stroke="currentColor"/><rect x="94.5" y="18" width="1" height="1" fill="none" stroke="currentColor"/><rect x="94.5" y="19.9" width="1" height="1" fill="none" stroke="currentColor"/><rect x="94.5" y="21.8" width="1" height="1" fill="none" stroke="currentColor"/><rect x="94.5" y="23.7" width="1" height="1" fill="none" stroke="currentColor"/><rect x="94.5" y="25.6" width="1" height="1" fill="none" stroke="currentColor"/></svg>