<svg xmlns="http://www.w3.org/2000/svg" viewBox="0 0 19.0 121.0" width="24" height="24"><path d="M4,0 L4,4 L0,4 C0,41.67 0,79.33 0,117 L4,117 L4,121 L19,121 L19,0 Z" fill="none" stroke="currentColor" stroke-width="1.5"/><path d="M4,0 L4,4 L0,4 L0,117 L4,117 L4,121 L19,121 L19,0 Z M5,1 L18,1 L18,120 L5,120 L5,116 L1,116 L1,5 L5,5 Z M5,13 L5,54 L14,54 L14,13 Z M6,14 L13,14 L13,53 L6,53 Z M5,62 L5,71 L14,71 L14,62 Z M6,63 L13,63 L13,70 L6,70 Z M8,74 L8,90 L14,90 L14,74 Z M9,75 L13,75 L13,89 L9,89 Z M8,92 L8,108 L14,108 L14,92 Z M9,93 L13,93 L13,107 L9,107 Z" fill="none" stroke="currentColor" stroke-width="1.5"/></svg>