<svg xmlns="http://www.w3.org/2000/svg" viewBox="0 0 161.93 141.81" width="24" height="24"><path d="M0,0 L0,0.5 L0,141.81 L161.93,141.81 L161.93,0 Z" fill="none" stroke="currentColor" stroke-width="1.5"/><path d="M0,0 L0,141.81 L161.93,141.81 L161.93,0 Z M1,1 L160.93,1 L160.93,140.81 L1,140.81 Z M8,3 L8,3.5 L8,124 L153,124 L153,3 Z M9,4 L26,4 L26,63 L9,63 Z M27,4 L44,4 L44,63 L27,63 Z M45,4 L62,4 L62,63 L45,63 Z M63,4 L80,4 L80,63 L63,63 Z M81,4 L98,4 L98,63 L81,63 Z M99,4 L116,4 L116,63 L99,63 Z M117,4 L134,4 L134,63 L117,63 Z M135,4 L152,4 L152,63 L135,63 Z M9,64 L26,64 L26,123 L9,123 Z M27,64 L44,64 L44,123 L27,123 Z M45,64 L62,64 L62,123 L45,123 Z M63,64 L80,64 L80,123 L63,123 Z M81,64 L98,64 L98,123 L81,123 Z M99,64 L116,64 L116,123 L99,123 Z M117,64 L134,64 L134,123 L117,123 Z M135,64 L152,64 L152,123 L135,123 Z" fill="none" stroke="currentColor" stroke-width="1.5"/><path d="M8,3 C8,43.33 8,83.67 8,124 L153,124 L153,3 Z M1,1 L160.93,1 L160.93,140.81 L1,140.81 Z" fill="none" stroke="currentColor" stroke-width="1.5"/></svg>