<svg xmlns="http://www.w3.org/2000/svg" viewBox="0 0 161.93 60.2" width="24" height="24"><path d="M0,0 L0,0.5 L0,60.2 L161.93,60.2 L161.93,0 Z" fill="none" stroke="currentColor" stroke-width="1.5"/><path d="M0,0 L0,60.2 L161.93,60.2 L161.93,0 Z M1,1 L80.5,1 L80.5,14.8 L1,14.8 Z M81.5,1 L160.93,1 L160.93,14.8 L81.5,14.8 Z M1,15.8 L80.5,15.8 L80.5,29.6 L1,29.6 Z M81.5,15.8 L160.93,15.8 L160.93,29.6 L81.5,29.6 Z M1,30.6 L80.5,30.6 L80.5,44.4 L1,44.4 Z M81.5,30.6 L160.93,30.6 L160.93,44.4 L81.5,44.4 Z M1,45.4 L80.5,45.4 L80.5,59.2 L1,59.2 Z M81.5,45.4 L160.93,45.4 L160.93,59.2 L81.5,59.2 Z" fill="none" stroke="currentColor" stroke-width="1.5"/><path d="M1,1 L1,14.8 L80.5,14.8 L80.5,1 Z M81.5,1 L81.5,14.8 L160.93,14.8 L160.93,1 Z M1,15.8 L1,29.6 L80.5,29.6 L80.5,15.8 Z M81.5,15.8 L81.5,29.6 L160.93,29.6 L160.93,15.8 Z M1,30.6 L1,44.4 L80.5,44.4 L80.5,30.6 Z M81.5,30.6 L81.5,44.4 L160.93,44.4 L160.93,30.6 Z M1,45.4 L1,59.2 L80.5,59.2 L80.5,45.4 Z M81.5,45.4 L81.5,59.2 L160.93,59.2 L160.93,45.4 Z" fill="none" stroke="currentColor" stroke-width="1.5"/></svg>