<svg xmlns="http://www.w3.org/2000/svg" viewBox="0 0 19.0 241.0" width="24" height="24"><path d="M4,0 L4,4 L0,4 L0,4.5 L0,117 L4,117 L4,124 L0,124 L0,237 L4,237 L4,241 L19,241 L19,0 Z" fill="none" stroke="currentColor" stroke-width="1.5"/><path d="M4,0 L4,4 L0,4 L0,117 L4,117 L4,124 L0,124 L0,237 L4,237 L4,241 L19,241 L19,0 Z M5,1 L18,1 L18,240 L5,240 L5,236 L1,236 L1,125 L5,125 L5,116 L1,116 L1,5 L5,5 Z M8,4 L8,117 L14,117 L14,4 Z M9,5 L13,5 L13,116 L9,116 Z M8,124 L8,237 L14,237 L14,124 Z M9,125 L13,125 L13,236 L9,236 Z" fill="none" stroke="currentColor" stroke-width="1.5"/></svg>