<svg xmlns="http://www.w3.org/2000/svg" viewBox="0 0 161.9 15.8" width="24" height="24"><path d="M0,0 L0,0.5 L0,15.8 L161.9,15.8 L161.9,0 Z" fill="none" stroke="currentColor" stroke-width="1.5"/><path d="M0,0 L0,15.8 L161.9,15.8 L161.9,0 Z M1,1 L7,1 L7,14.8 L1,14.8 Z M8,1 L154,1 L154,14.8 L8,14.8 Z M155,1 L160.9,1 L160.9,14.8 L155,14.8 Z M9,5 L9,14 L45,14 L45,5 Z M10,6 L44,6 L44,13 L10,13 Z" fill="none" stroke="currentColor" stroke-width="1.5"/><path d="M8,1 L154,1 L154,14.8 L8,14.8 Z M9,5 L9,14 L45,14 L45,5 Z M10,6 L44,6 L44,13 L10,13 Z" fill="none" stroke="currentColor" stroke-width="1.5"/></svg>