<svg xmlns="http://www.w3.org/2000/svg" viewBox="0 0 19.0 121.0" width="24" height="24"><path d="M0,0 L0,0.5 L0,121 L19,121 L19,0 Z" fill="none" stroke="currentColor" stroke-width="1.5"/><path d="M0,0 L0,121 L19,121 L19,0 Z M1,1 L18,1 L18,108.65 L1,108.65 Z M12,9.73 L12,31 L17,31 L17,9.73 Z M13,10.73 L16,10.73 L16,30 L13,30 Z M12,85.13 L12,106.41 L17,106.41 L17,85.13 Z M13,86.13 L16,86.13 L16,105.41 L13,105.41 Z M1,109.65 L18,109.65 L18,120 L1,120 Z" fill="none" stroke="currentColor" stroke-width="1.5"/></svg>