<svg xmlns="http://www.w3.org/2000/svg" viewBox="0 0 161.9 30.63" width="24" height="24"><path d="M0,0 L0,30.6 L7,30.6 L155,30.63 L161.9,30.6 L161.9,0 Z" fill="none" stroke="currentColor" stroke-width="1.5"/><path d="M0,0 L0,30.6 L7,30.6 L155,30.63 L161.9,30.6 L161.9,0 Z M1,1 L7,1 L7,29.6 L1,29.6 Z M8,1 L20.36,1 L28.36,6 L135.64,6 L143.64,1 L154,1 L154,29.6 L143.64,29.6 L135.64,24.6 L28.36,24.6 L20.36,29.6 L8,29.6 Z M22.24,1 L141.76,1 L135.36,5 L28.64,5 Z M155,1 L160.9,1 L160.9,29.6 L155,29.6 Z M11,3 L11,27.6 L15.68,27.6 L21,23.34 L21,7.26 L15.68,3 Z M147.32,3 L142,7.26 L142,23.34 L147.32,27.6 L152,27.6 L152,3 Z M12,4 L15.32,4 L20,7.74 L20,22.86 L15.32,26.6 L12,26.6 Z M147.68,4 L151,4 L151,26.6 L147.68,26.6 L143,22.86 L143,7.74 Z M28.64,25.6 L135.36,25.6 L141.76,29.6 L22.24,29.6 Z" fill="none" stroke="currentColor" stroke-width="1.5"/><path d="M147.68,4 L151,4 L151,26.6 L147.68,26.6 L143,22.86 L143,7.74 Z M12,4 L15.32,4 L20,7.74 L20,22.86 L15.32,26.6 L12,26.6 Z" fill="none" stroke="currentColor" stroke-width="1.5"/><path d="M28.64,25.6 L135.36,25.6 L141.76,29.6 L22.24,29.6 Z M22.24,1 L141.76,1 L135.36,5 L28.64,5 Z" fill="none" stroke="currentColor" stroke-width="1.5"/></svg>