<svg xmlns="http://www.w3.org/2000/svg" viewBox="0 0 37.0 121.0" width="24" height="24"><path d="M0,0 L0,121 L37,121 L37,0 Z" fill="none" stroke="currentColor" stroke-width="1.5"/><path d="M0,0 L0,121 L37,121 L37,0 Z M1,1 L18,1 L18,120 L1,120 Z M19,1 L36,1 L36,120 L19,120 Z M2,36.5 L2,57.78 L7,57.78 L7,36.5 Z M30,36.5 L30,57.78 L35,57.78 L35,36.5 Z M3,37.5 L6,37.5 L6,56.78 L3,56.78 Z M31,37.5 L34,37.5 L34,56.78 L31,56.78 Z M2,63.27 L2,84.54 L7,84.54 L7,63.27 Z M30,63.27 L30,84.54 L35,84.54 L35,63.27 Z M3,64.27 L6,64.27 L6,83.54 L3,83.54 Z M31,64.27 L34,64.27 L34,83.54 L31,83.54 Z" fill="none" stroke="currentColor" stroke-width="1.5"/></svg>