<svg xmlns="http://www.w3.org/2000/svg" viewBox="0 0 161.9 30.6" width="24" height="24"><path d="M0,0 L0,30.6 L161.9,30.6 L161.9,0 Z" fill="none" stroke="currentColor" stroke-width="1.5"/><path d="M0,0 L0,30.6 L161.9,30.6 L161.9,0 Z M1,1 L6,1 L6,29.6 L1,29.6 Z M7,1 L155,1 L155,29.6 L7,29.6 Z M156,1 L160.9,1 L160.9,29.6 L156,29.6 Z M60,3 L60,28 L132,28 L132,3 Z M61,4 L65,4 L65,27 L61,27 Z M67,4 L71,4 L71,27 L67,27 Z M73,4 L77,4 L77,27 L73,27 Z M79,4 L83,4 L83,27 L79,27 Z M85,4 L89,4 L89,27 L85,27 Z M91,4 L95,4 L95,27 L91,27 Z M97,4 L101,4 L101,27 L97,27 Z M103,4 L107,4 L107,27 L103,27 Z M109,4 L113,4 L113,27 L109,27 Z M115,4 L119,4 L119,27 L115,27 Z M121,4 L125,4 L125,27 L121,27 Z M127,4 L131,4 L131,27 L127,27 Z M9,23 L9,28 L45,28 L45,23 Z M10,24 L44,24 L44,27 L10,27 Z" fill="none" stroke="currentColor" stroke-width="1.5"/><path d="M133.5,2.12 L133.5,26.5 L153.62,26.5 L153.62,2.12 Z M8.5,1.5 L8.5,11.5 L53.5,11.5 L53.5,1.5 Z M156,1 L160.9,1 L160.9,29.6 L156,29.6 Z M1,1 L6,1 L6,29.6 L1,29.6 Z" fill="none" stroke="currentColor" stroke-width="1.5"/></svg>