<svg xmlns="http://www.w3.org/2000/svg" viewBox="0 0 161.9 15.7" width="24" height="24"><path d="M0,0 L0,15.7 L161.9,15.7 L161.9,0 Z" fill="none" stroke="currentColor" stroke-width="1.5"/><path d="M0,0 L0,15.7 L161.9,15.7 L161.9,0 Z M1,1 L5.99,1 L5.99,14.7 L1,14.7 Z M6.99,1 L155.08,1 L155.08,14.7 L6.99,14.7 Z M156.08,1 L160.9,1 L160.9,14.7 L156.08,14.7 Z" fill="none" stroke="currentColor" stroke-width="1.5"/><path d="M106.5,2.5 L106.5,13.5 L146.5,13.5 L146.5,2.5 Z M15.5,2.5 L15.5,13.5 L55.5,13.5 L55.5,2.5 Z M156.08,1 L160.9,1 L160.9,14.7 L156.08,14.7 Z M1,1 L5.99,1 L5.99,14.7 L1,14.7 Z" fill="none" stroke="currentColor" stroke-width="1.5"/></svg>