<svg xmlns="http://www.w3.org/2000/svg" viewBox="0 0 161.9 30.6" width="24" height="24"><path d="M0,0 L0,30.6 L161.9,30.6 L161.9,0 Z" fill="none" stroke="currentColor" stroke-width="1.5"/><path d="M0,0 L0,30.6 L161.9,30.6 L161.9,0 Z M1,1 L6,1 L6,29.6 L1,29.6 Z M7,1 L35,1 L35,14.8 L7,14.8 Z M36,1 L155,1 L155,14.8 L36,14.8 Z M156,1 L160.9,1 L160.9,29.6 L156,29.6 Z M7,15.8 L35,15.8 L35,29.6 L7,29.6 Z M36,15.8 L155,15.8 L155,29.6 L36,29.6 Z" fill="none" stroke="currentColor" stroke-width="1.5"/><path d="M25,16.5 L25,28.5 L34,28.5 L34,16.5 Z M8.5,16.5 L8.5,28.5 L17.5,28.5 L17.5,16.5 Z M25,2 L25,14 L34,14 L34,2 Z M8.5,2 L8.5,14 L17.5,14 L17.5,2 Z M156,1 L160.9,1 L160.9,29.6 L156,29.6 Z M1,1 L6,1 L6,29.6 L1,29.6 Z" fill="none" stroke="currentColor" stroke-width="1.5"/></svg>