<svg xmlns="http://www.w3.org/2000/svg" viewBox="0 0 161.9 45.4" width="24" height="24"><path d="M0,0 C0,15.13 0,30.27 0,45.4 L161.9,45.4 L161.9,0 Z" fill="none" stroke="currentColor" stroke-width="1.5"/><path d="M0,0 L0,45.4 L161.9,45.4 L161.9,0 Z M1,1 L6,1 L6,44.4 L1,44.4 Z M7,1 L130,1 L130,8 L7,8 Z M131,1 L155,1 L155,8 L131,8 Z M156,1 L160.9,1 L160.9,44.4 L156,44.4 Z M131,9 L155,9 L155,44.4 L131,44.4 Z M8,10 L129,10 L129,15 L8,15 Z M7,16 L130,16 L130,44.4 L7,44.4 Z" fill="none" stroke="currentColor" stroke-width="1.5"/><path d="M8.5,17.5 L8.5,43.5 L128.5,43.5 L128.5,17.5 Z M156,1 L160.9,1 L160.9,44.4 L156,44.4 Z M1,1 L6,1 L6,44.4 L1,44.4 Z" fill="none" stroke="currentColor" stroke-width="1.5"/></svg>