<svg xmlns="http://www.w3.org/2000/svg" viewBox="0 0 161.9 15.7" width="24" height="24"><path d="M0,0 L0,15.7 L161.9,15.7 L161.9,0 Z" fill="none" stroke="currentColor" stroke-width="1.5"/><path d="M0,0 L0,15.7 L161.9,15.7 L161.9,0 Z M1,1 L5.99,1 L5.99,14.7 L1,14.7 Z M6.99,1 L155.08,1 L155.08,14.7 L6.99,14.7 Z M156.08,1 L160.9,1 L160.9,14.7 L156.08,14.7 Z M50.5,2.5 C47.46,2.5 45,4.96 45,8 C45,11.04 47.46,13.5 50.5,13.5 L111.5,13.5 C114.54,13.5 117,11.04 117,8 C117,4.96 114.54,2.5 111.5,2.5 Z M50.5,3.5 L111.5,3.5 C114,3.5 116,5.5 116,8 C116,10.5 114,12.5 111.5,12.5 L50.5,12.5 C48,12.5 46,10.5 46,8 C46,5.5 48,3.5 50.5,3.5 Z M59.5,5.5 C58.95,5.5 58.5,6.62 58.5,8 C58.5,9.38 58.95,10.5 59.5,10.5 L102.5,10.5 C103.05,10.5 103.5,9.38 103.5,8 C103.5,6.62 103.05,5.5 102.5,5.5 Z" fill="none" stroke="currentColor" stroke-width="1.5"/><path d="M156.08,1 L160.9,1 L160.9,14.7 L156.08,14.7 Z M1,1 L5.99,1 L5.99,14.7 L1,14.7 Z" fill="none" stroke="currentColor" stroke-width="1.5"/></svg>