<svg xmlns="http://www.w3.org/2000/svg" viewBox="0 0 161.9 30.6" width="24" height="24"><path d="M0,0 L0,0.5 L0,30.6 L161.9,30.6 L161.9,0 Z" fill="none" stroke="currentColor" stroke-width="1.5"/><path d="M0,0 L0,30.6 L161.9,30.6 L161.9,0 Z M1,1 L160.9,1 L160.9,29.6 L1,29.6 Z M111,2 L111,8 L153,8 L153,2 Z M112,3 L152,3 L152,7 L112,7 Z" fill="none" stroke="currentColor" stroke-width="1.5"/><rect x="0" y="0" width="0" height="0" fill="none" stroke="currentColor"/><path d="M8.5,8.5 L102.5,5.5 L105.5,8.5 L150.5,11.5 L153.5,25.5 L11.5,28.5 Z" fill="none" stroke="currentColor" stroke-width="1.5"/></svg>