<svg xmlns="http://www.w3.org/2000/svg" viewBox="0 0 19.5 121.0" width="24" height="24"><path d="M0,0 L0,0.5 L0,121 L19.5,121 L19.5,0 Z" fill="none" stroke="currentColor" stroke-width="1.5"/><path d="M0,0 L0,121 L19.5,121 L19.5,0 Z M1,1 L18.5,1 L18.5,120 L1,120 Z M3,2 L3,30 L9,30 L9,2 Z M11,2 L11,30 L17,30 L17,2 Z M4,3 L8,3 L8,29 L4,29 Z M12,3 L16,3 L16,29 L12,29 Z M3,91 L3,119 L9,119 L9,91 Z M11,91 L11,119 L17,119 L17,91 Z M4,92 L8,92 L8,118 L4,118 Z M12,92 L16,92 L16,118 L12,118 Z" fill="none" stroke="currentColor" stroke-width="1.5"/><rect x="0" y="0" width="0" height="0" fill="none" stroke="currentColor"/></svg>