<svg xmlns="http://www.w3.org/2000/svg" viewBox="0 0 11.15 114.0" width="24" height="24"><path d="M0,0 L0,114 L11.15,114 L11.15,0 Z" fill="none" stroke="currentColor" stroke-width="1.5"/><path d="M0,0 L0,114 L11.15,114 L11.15,0 Z M1,1 L10.15,1 L10.15,113 L1,113 Z M2.5,65 L2.5,71 L8.5,71 L8.5,65 Z M3.5,66 L7.5,66 L7.5,70 L3.5,70 Z M2.5,75 L2.5,81 L8.5,81 L8.5,75 Z M3.5,76 L7.5,76 L7.5,80 L3.5,80 Z M2.5,85 L2.5,91 L8.5,91 L8.5,85 Z M3.5,86 L7.5,86 L7.5,90 L3.5,90 Z" fill="none" stroke="currentColor" stroke-width="1.5"/></svg>