<svg xmlns="http://www.w3.org/2000/svg" viewBox="0 0 161.9 30.6" width="24" height="24"><path d="M0,0 L0,0.5 L0,30.6 L161.9,30.6 L161.9,0 Z" fill="none" stroke="currentColor" stroke-width="1.5"/><path d="M0,0 L0,30.6 L161.9,30.6 L161.9,0 Z M1,1 L6,1 L6,29.6 L1,29.6 Z M7,1 L155,1 L155,29.6 L7,29.6 Z M156,1 L160.9,1 L160.9,29.6 L156,29.6 Z M95,2 L95,8 L137,8 L137,2 Z M96,3 L136,3 L136,7 L96,7 Z" fill="none" stroke="currentColor" stroke-width="1.5"/><rect x="0" y="0" width="0" height="0" fill="none" stroke="currentColor"/><path d="M8.5,5.5 C8.5,3.84 9.84,2.5 11.5,2.5 L89.5,2.5 C91.16,2.5 92.5,3.84 92.5,5.5 L92.5,6.5 C92.5,8.16 93.84,9.5 95.5,9.5 L150.5,9.5 C152.16,9.5 153.5,10.84 153.5,12.5 L153.5,25.5 C153.5,27.16 152.16,28.5 150.5,28.5 L11.5,28.5 C9.84,28.5 8.5,27.16 8.5,25.5 Z M30.5,24.5 L57.5,24.5 L57.5,18.5 L30.5,18.5 Z M109.5,24.5 L136.5,24.5 L136.5,18.5 L109.5,18.5 Z" fill="none" stroke="currentColor" stroke-width="1.5"/></svg>