<svg xmlns="http://www.w3.org/2000/svg" viewBox="0 0 161.58 41.72" width="24" height="24"><path d="M0,0 L0,41.66 L161.58,41.66 L161.58,0 Z" fill="none" stroke="currentColor" stroke-width="1.5"/><path d="M4.87,0.71 L8.89,0.71 L8.89,41.72 L4.87,41.72 Z" fill="none" stroke="currentColor" stroke-width="1.5"/><path d="M8.89,0.71 L17.21,0.71 L17.21,41.72 L8.89,41.72 Z" fill="none" stroke="currentColor" stroke-width="1.5"/><path d="M145.07,0.71 L153.39,0.71 L153.39,41.67 L145.07,41.67 Z" fill="none" stroke="currentColor" stroke-width="1.5"/><path d="M154.55,5.75 L156.01,5.75 L156.01,10.13 L154.55,10.13 Z" fill="none" stroke="currentColor" stroke-width="1.5"/><path d="M154.66,14.18 L155.67,14.18 L155.67,18.68 L154.66,18.68 Z" fill="none" stroke="currentColor" stroke-width="1.5"/><path d="M158.03,5.64 L160.51,5.64 L160.51,11.26 L158.03,11.26 Z" fill="none" stroke="currentColor" stroke-width="1.5"/><path d="M8.95,13.83 L15.47,13.83 L15.47,28.5 L8.95,28.5 Z" fill="none" stroke="currentColor" stroke-width="1.5"/><path d="M25.07,35.84 L21.54,41.66 L37.22,41.66 L33.68,35.84 Z M50.91,35.84 L47.38,41.66 L63.05,41.66 L59.52,35.84 Z M76.74,35.84 L73.21,41.66 L88.88,41.66 L85.35,35.84 Z M102.57,35.84 L99.04,41.66 L114.71,41.66 L111.18,35.84 Z M128.4,35.84 L124.87,41.66 L140.54,41.66 L137.01,35.84 Z M128.4,21.63 L124.1,28.73 L115.49,28.73 L111.18,21.63 L115.49,14.52 L124.1,14.52 Z M102.57,21.63 L98.26,28.73 L89.65,28.73 L85.35,21.63 L89.65,14.52 L98.26,14.52 Z M76.74,21.63 L72.43,28.73 L63.82,28.73 L59.52,21.63 L63.82,14.52 L72.43,14.52 Z M50.91,21.63 L46.6,28.73 L37.99,28.73 L33.68,21.63 L37.99,14.52 L46.6,14.52 Z M141.32,28.73 L137.01,35.84 L128.4,35.84 L124.1,28.73 L128.4,21.63 L137.01,21.63 Z M115.49,28.73 L111.18,35.84 L102.57,35.84 L98.26,28.73 L102.57,21.63 L111.18,21.63 Z M89.65,28.73 L85.35,35.84 L76.74,35.84 L72.43,28.73 L76.74,21.63 L85.35,21.63 Z M63.82,28.73 L59.52,35.84 L50.91,35.84 L46.6,28.73 L50.91,21.63 L59.52,21.63 Z M37.99,28.73 L33.68,35.84 L25.07,35.84 L20.77,28.73 L25.07,21.63 L33.68,21.63 Z M124.98,0 L124.62,0.6 L128.75,7.41 L137.01,7.41 L141.14,0.6 L140.78,0 Z M21.65,0 L21.47,0.31 L25.6,7.13 L33.86,7.13 L37.99,0.31 L37.8,0 Z M141.32,14.52 L137.01,21.63 L128.4,21.63 L124.1,14.52 L128.4,7.42 L137.01,7.42 Z M128.4,7.42 L124.1,14.52 L115.49,14.52 L111.18,7.42 L115.49,0.31 L124.1,0.31 Z M115.49,14.52 L111.18,21.63 L102.57,21.63 L98.26,14.52 L102.57,7.42 L111.18,7.42 Z M102.57,7.42 L98.26,14.52 L89.65,14.52 L85.35,7.42 L89.65,0.31 L98.26,0.31 Z M89.65,14.52 L85.35,21.63 L76.74,21.63 L72.43,14.52 L76.74,7.42 L85.35,7.42 Z M76.74,7.42 L72.43,14.52 L63.82,14.52 L59.52,7.42 L63.82,0.31 L72.43,0.31 Z M63.82,14.52 L59.52,21.63 L50.91,21.63 L46.6,14.52 L50.91,7.42 L59.52,7.42 Z M50.91,7.42 L46.6,14.52 L37.99,14.52 L33.68,7.42 L37.99,0.31 L46.6,0.31 Z M37.99,14.52 L33.68,21.63 L25.07,21.63 L20.77,14.52 L25.07,7.42 L33.68,7.42 Z" fill="none" stroke="currentColor" stroke-width="1.5"/><path d="M154.16,23.48 L155.62,23.48 L155.62,27.86 L154.16,27.86 Z" fill="none" stroke="currentColor" stroke-width="1.5"/><path d="M112.81,2.92 L120.29,2.92 L120.29,4.87 L112.81,4.87 Z M121.72,2.92 L132.85,2.92 L132.85,4.87 L121.72,4.87 Z M102.4,1.41 L137.62,1.41 L137.62,8.01 L102.4,8.01 Z" fill="none" stroke="currentColor" stroke-width="1.5"/><path d="M27.04,7.27 C27.04,8.63 25.94,9.73 24.59,9.73 C23.23,9.73 22.13,8.63 22.13,7.27 C22.13,5.92 23.23,4.82 24.59,4.82 C25.94,4.82 27.04,5.92 27.04,7.27 Z" fill="none" stroke="currentColor" stroke-width="1.5"/></svg>