<svg xmlns="http://www.w3.org/2000/svg" viewBox="0 0 161.9 15.8" width="24" height="24"><path d="M0,0 L0,15.8 L7,15.8 L161.9,15.8 L161.9,0 Z" fill="none" stroke="currentColor" stroke-width="1.5"/><path d="M5.03,0.87 L9.05,0.87 L9.05,15.2 L5.03,15.2 Z" fill="none" stroke="currentColor" stroke-width="1.5"/><path d="M9.05,0.87 L17.37,0.87 L17.37,15.2 L9.05,15.2 Z" fill="none" stroke="currentColor" stroke-width="1.5"/><path d="M20.94,0 L20.22,1.19 L24.33,8.03 L32.56,8.03 L36.67,1.19 L35.96,0 Z M46.79,0 L46.08,1.19 L50.19,8.03 L58.42,8.03 L62.53,1.19 L61.82,0 Z M72.65,0 L71.94,1.19 L76.05,8.03 L84.28,8.03 L88.39,1.19 L87.68,0 Z M98.51,0 L97.8,1.19 L101.91,8.03 L110.14,8.03 L114.25,1.19 L113.53,0 Z M124.37,0 L123.65,1.19 L127.77,8.03 L135.99,8.03 L140.11,1.19 L139.39,0 Z M24.33,8.03 L20.22,14.86 L20.79,15.8 L36.11,15.8 L36.67,14.86 L32.56,8.03 Z M50.19,8.03 L46.08,14.86 L46.64,15.8 L61.97,15.8 L62.53,14.86 L58.42,8.03 Z M76.05,8.03 L71.94,14.86 L72.5,15.8 L87.83,15.8 L88.39,14.86 L84.28,8.03 Z M101.91,8.03 L97.8,14.86 L98.36,15.8 L113.68,15.8 L114.25,14.86 L110.14,8.03 Z M127.77,8.03 L123.65,14.86 L124.22,15.8 L139.54,15.8 L140.11,14.86 L135.99,8.03 Z" fill="none" stroke="currentColor" stroke-width="1.5"/><path d="M145.23,0.87 L153.54,0.87 L153.54,15.2 L145.23,15.2 Z" fill="none" stroke="currentColor" stroke-width="1.5"/><path d="M26.16,8.31 C26.16,9.67 25.06,10.77 23.7,10.77 C22.35,10.77 21.25,9.67 21.25,8.31 C21.25,6.96 22.35,5.86 23.7,5.86 C25.06,5.86 26.16,6.96 26.16,8.31 Z" fill="none" stroke="currentColor" stroke-width="1.5"/><path d="M112.97,3.08 L120.44,3.08 L120.44,5.03 L112.97,5.03 Z M121.87,3.08 L133,3.08 L133,5.03 L121.87,5.03 Z M102.56,1.57 L137.77,1.57 L137.77,8.17 L102.56,8.17 Z" fill="none" stroke="currentColor" stroke-width="1.5"/></svg>