<svg xmlns="http://www.w3.org/2000/svg" viewBox="0 0 19.62 72.08" width="24" height="24"><path d="M0,0 L0,72.08 L19.62,72.08 L19.62,0 Z" fill="none" stroke="currentColor" stroke-width="1.5"/><path d="M0,0 L0,72.08 L19.62,72.08 L19.62,0 Z M1,1 L3.29,1 L1,3.29 Z M4.71,1 L18.62,1 L18.62,71.08 L4.71,71.08 L1,67.37 L1,10.5 L1,4.71 Z M1,10.5 C1,11.87 2.13,13 3.5,13 C4.87,13 6,11.87 6,10.5 C6,9.13 4.87,8 3.5,8 C2.13,8 1,9.13 1,10.5 Z M10,2 L10,33 L18,33 L18,2 Z M11,3 L17,3 L17,32 L11,32 Z M3.5,9 C4.33,9 5,9.67 5,10.5 C5,11.33 4.33,12 3.5,12 C2.67,12 2,11.33 2,10.5 C2,9.67 2.67,9 3.5,9 Z M10,36 L10,67 L18,67 L18,36 Z M11,37 L17,37 L17,66 L11,66 Z M1,68.79 L3.29,71.08 L1,71.08 Z" fill="none" stroke="currentColor" stroke-width="1.5"/></svg>