<svg xmlns="http://www.w3.org/2000/svg" viewBox="0 0 42.75 7.25" width="24" height="24"><path d="M0,0 L0,7.25 L42.75,7.25 L42.75,0 Z" fill="none" stroke="currentColor" stroke-width="1.5"/><path d="M40.7,0.1 L41.53,0.1 L41.53,7.19 L40.7,7.19 Z M28.76,0.05 L40.41,0.05 L40.41,1.26 L28.76,1.26 Z M2.54,2 L27.71,2 M26.14,0.41 L27.71,0.41 L27.71,6.82 L26.14,6.82 Z M24.56,0.41 L26.14,0.41 L26.14,6.82 L24.56,6.82 Z M22.99,0.41 L24.56,0.41 L24.56,6.82 L22.99,6.82 Z M21.42,0.41 L22.99,0.41 L22.99,6.82 L21.42,6.82 Z M19.84,0.41 L21.42,0.41 L21.42,6.82 L19.84,6.82 Z M18.27,0.41 L19.84,0.41 L19.84,6.82 L18.27,6.82 Z M16.7,0.41 L18.27,0.41 L18.27,6.82 L16.7,6.82 Z M15.12,0.41 L16.7,0.41 L16.7,6.82 L15.12,6.82 Z M13.55,0.41 L15.12,0.41 L15.12,6.82 L13.55,6.82 Z M11.98,0.41 L13.55,0.41 L13.55,6.82 L11.98,6.82 Z M10.41,0.41 L11.98,0.41 L11.98,6.82 L10.41,6.82 Z M8.83,0.41 L10.41,0.41 L10.41,6.82 L8.83,6.82 Z M7.26,0.41 L8.83,0.41 L8.83,6.82 L7.26,6.82 Z M5.69,0.41 L7.26,0.41 L7.26,6.82 L5.69,6.82 Z M4.11,0.41 L5.69,0.41 L5.69,6.82 L4.11,6.82 Z M2.54,0.41 L4.11,0.41 L4.11,6.82 L2.54,6.82 Z" fill="none" stroke="currentColor" stroke-width="1.5"/><path d="M28.34,6.68 L28.34,1.85 L36.16,1.85 L36.16,3.82 L39.99,3.82 L39.99,6.68 Z" fill="none" stroke="currentColor" stroke-width="1.5"/><path d="M39.18,1.95 L39.18,2.46 L37.83,2.46 L37.83,1.95 Z M41.81,1.49 L42.47,1.49 L42.47,2.98 L41.81,2.98 Z M40.92,3.75 L41.19,3.75 L41.19,4.94 L40.92,4.94 Z M40.89,1.52 L41.28,1.52 L41.28,2.68 L40.89,2.68 Z" fill="none" stroke="currentColor" stroke-width="1.5"/></svg>