<svg xmlns="http://www.w3.org/2000/svg" viewBox="0 0 161.9 15.8" width="24" height="24"><path d="M0,0 L0,15.8 L7,15.8 L161.9,15.8 L161.9,0 L63.8,0 Z" fill="none" stroke="currentColor" stroke-width="1.5"/><path d="M0,0 L0,15.8 L7,15.8 L161.9,15.8 L161.9,0 L63.8,0 Z M1,1 L7,1 L7,14.8 L1,14.8 Z M8,1 L15,1 L15,3.87 L28.43,8 L35.4,8 L35.4,1 L38.4,1 L38.4,8 L64.8,8 L64.8,1 L67.8,1 L67.8,8 L94.2,8 L94.2,1 L97.2,1 L97.2,8 L123.6,8 L123.6,1 L126.6,1 L126.6,8 L133.55,8 L152,3.9 L152,1 L154,1 L154,14.8 L8,14.8 Z M16,1 L34.4,1 L34.4,7 L28.57,7 L16,3.13 Z M39.4,1 L63.8,1 L63.8,7 L39.4,7 Z M68.8,1 L93.2,1 L93.2,7 L68.8,7 Z M98.2,1 L122.6,1 L122.6,7 L98.2,7 Z M127.6,1 L151,1 L151,3.1 L133.45,7 L127.6,7 Z M155,1 L160.9,1 L160.9,14.8 L155,14.8 Z" fill="none" stroke="currentColor" stroke-width="1.5"/><path d="M155,1 L160.9,1 L160.9,14.8 L155,14.8 Z M127.6,1 L151,1 L151,3.1 L133.45,7 L127.6,7 Z M98.2,1 L122.6,1 L122.6,7 L98.2,7 Z M68.8,1 L93.2,1 L93.2,7 L68.8,7 Z M39.4,1 L63.8,1 L63.8,7 L39.4,7 Z M16,1 L34.4,1 L34.4,7 L28.57,7 L16,3.13 Z M1,1 L7,1 L7,14.8 L1,14.8 Z" fill="none" stroke="currentColor" stroke-width="1.5"/><path d="M80.85,2.69 C78,2.69 75.68,5.03 75.68,7.9 C75.68,10.77 78,13.11 80.85,13.11 C83.7,13.11 86.02,10.77 86.02,7.9 C86.02,5.03 83.7,2.69 80.85,2.69 Z" fill="none" stroke="currentColor" stroke-width="1.5"/><path d="M80.85,2.69 C78,2.69 75.68,5.03 75.68,7.9 C75.68,10.77 78,13.11 80.85,13.11 C83.7,13.11 86.02,10.77 86.02,7.9 C86.02,5.03 83.7,2.69 80.85,2.69 Z" fill="none" stroke="currentColor" stroke-width="1.5"/><path d="M80.85,3.69 C83.15,3.69 85.02,5.57 85.02,7.9 C85.02,10.23 83.15,12.11 80.85,12.11 C78.54,12.11 76.68,10.23 76.68,7.9 C76.68,5.57 78.54,3.69 80.85,3.69 Z" fill="none" stroke="currentColor" stroke-width="1.5"/></svg>