<svg xmlns="http://www.w3.org/2000/svg" viewBox="0 0 161.8 15.85" width="24" height="24"><path d="M156.1,12.36 L159.1,12.36 C159.39,12.36 159.6,12.57 159.6,12.86 L159.6,12.86 C159.6,13.15 159.39,13.36 159.1,13.36 L156.1,13.36 C155.82,13.36 155.6,13.15 155.6,12.86 L155.6,12.86 C155.6,12.57 155.82,12.36 156.1,12.36 Z M156.1,2.34 L159.1,2.34 C159.39,2.34 159.6,2.55 159.6,2.84 L159.6,2.84 C159.6,3.13 159.39,3.34 159.1,3.34 L156.1,3.34 C155.82,3.34 155.6,3.13 155.6,2.84 L155.6,2.84 C155.6,2.55 155.82,2.34 156.1,2.34 Z M2.17,12.36 L5.16,12.36 C5.45,12.36 5.66,12.57 5.66,12.86 L5.66,12.86 C5.66,13.15 5.45,13.36 5.16,13.36 L2.17,13.36 C1.88,13.36 1.67,13.15 1.67,12.86 L1.67,12.86 C1.67,12.57 1.88,12.36 2.17,12.36 Z M2.17,2.34 L5.16,2.34 C5.45,2.34 5.66,2.55 5.66,2.84 L5.66,2.84 C5.66,3.13 5.45,3.34 5.16,3.34 L2.17,3.34 C1.88,3.34 1.67,3.13 1.67,2.84 L1.67,2.84 C1.67,2.55 1.88,2.34 2.17,2.34 Z M0,0 C0,5.28 0,10.57 0,15.85 L161.8,15.85 L161.8,0 Z" fill="none" stroke="currentColor" stroke-width="1.5"/><path d="M0,0 L0,15.85 L161.8,15.85 L161.8,0 Z M1,1 L160.8,1 L160.8,14.85 L1,14.85 L1,13.79 C1.28,14.14 1.69,14.36 2.17,14.36 L5.16,14.36 C5.99,14.36 6.66,13.69 6.66,12.86 L6.66,12.86 C6.66,12.04 5.99,11.36 5.16,11.36 L2.17,11.36 C1.69,11.36 1.28,11.59 1,11.93 L1,3.77 C1.28,4.11 1.69,4.34 2.17,4.34 L5.16,4.34 C5.99,4.34 6.66,3.66 6.66,2.84 L6.66,2.84 C6.66,2.01 5.99,1.34 5.16,1.34 L2.17,1.34 C1.69,1.34 1.28,1.56 1,1.91 Z M156.1,1.34 C155.28,1.34 154.6,2.01 154.6,2.84 L154.6,2.84 C154.6,3.66 155.28,4.34 156.1,4.34 L159.1,4.34 C159.92,4.34 160.6,3.66 160.6,2.84 L160.6,2.84 C160.6,2.01 159.92,1.34 159.1,1.34 Z M2.17,2.34 L5.16,2.34 C5.45,2.34 5.66,2.55 5.66,2.84 L5.66,2.84 C5.66,3.13 5.45,3.34 5.16,3.34 L2.17,3.34 C1.88,3.34 1.67,3.13 1.67,2.84 L1.67,2.84 C1.67,2.55 1.88,2.34 2.17,2.34 Z M156.1,2.34 L159.1,2.34 C159.39,2.34 159.6,2.55 159.6,2.84 L159.6,2.84 C159.6,3.13 159.39,3.34 159.1,3.34 L156.1,3.34 C155.82,3.34 155.6,3.13 155.6,2.84 L155.6,2.84 C155.6,2.55 155.82,2.34 156.1,2.34 Z M36.32,3.01 L36.32,13.03 L50.31,13.03 L50.31,3.01 Z M84.08,3.01 L84.08,13.03 L98.07,13.03 L98.07,3.01 Z M99.96,3.01 L99.96,13.03 L113.95,13.03 L113.95,3.01 Z M116.51,3.01 L116.51,13.03 L130.5,13.03 L130.5,3.01 Z M52.2,3.12 L52.2,13.14 L66.2,13.14 L66.2,3.12 Z M68.08,3.12 L68.08,13.14 L82.08,13.14 L82.08,3.12 Z M37.32,4.01 L49.31,4.01 L49.31,12.03 L37.32,12.03 Z M85.08,4.01 L97.07,4.01 L97.07,12.03 L85.08,12.03 Z M100.96,4.01 L112.95,4.01 L112.95,12.03 L100.96,12.03 Z M117.51,4.01 L129.5,4.01 L129.5,12.03 L117.51,12.03 Z M53.2,4.12 L65.2,4.12 L65.2,12.14 L53.2,12.14 Z M69.08,4.12 L81.08,4.12 L81.08,12.14 L69.08,12.14 Z M156.1,11.36 C155.28,11.36 154.6,12.04 154.6,12.86 L154.6,12.86 C154.6,13.69 155.28,14.36 156.1,14.36 L159.1,14.36 C159.92,14.36 160.6,13.69 160.6,12.86 L160.6,12.86 C160.6,12.04 159.92,11.36 159.1,11.36 Z M2.17,12.36 L5.16,12.36 C5.45,12.36 5.66,12.57 5.66,12.86 L5.66,12.86 C5.66,13.15 5.45,13.36 5.16,13.36 L2.17,13.36 C1.88,13.36 1.67,13.15 1.67,12.86 L1.67,12.86 C1.67,12.57 1.88,12.36 2.17,12.36 Z M156.1,12.36 L159.1,12.36 C159.39,12.36 159.6,12.57 159.6,12.86 L159.6,12.86 C159.6,13.15 159.39,13.36 159.1,13.36 L156.1,13.36 C155.82,13.36 155.6,13.15 155.6,12.86 L155.6,12.86 C155.6,12.57 155.82,12.36 156.1,12.36 Z" fill="none" stroke="currentColor" stroke-width="1.5"/><path d="M37.32,4.01 L49.31,4.01 L49.31,12.03 L37.32,12.03 Z M53.2,4.12 L65.2,4.12 L65.2,12.14 L53.2,12.14 Z M69.08,4.12 L81.08,4.12 L81.08,12.14 L69.08,12.14 Z M85.08,4.01 L97.07,4.01 L97.07,12.03 L85.08,12.03 Z M100.96,4.01 L112.95,4.01 L112.95,12.03 L100.96,12.03 Z M117.51,4.01 L129.5,4.01 L129.5,12.03 L117.51,12.03 Z" fill="none" stroke="currentColor" stroke-width="1.5"/><rect x="0" y="0" width="0" height="0" fill="none" stroke="currentColor"/><path d="M123,5.51 L128,5.51 L128,7.18 L123,7.18 Z M123.67,9.19 L127,9.19 L127,10.86 L123.67,10.86 Z M119.01,7.52 L121.01,7.52 L121.01,9.19 L119.01,9.19 Z M13.49,8.18 Z M149.44,8.18 Z M106.46,5.51 L111.45,5.51 L111.45,7.18 L106.46,7.18 Z M107.12,9.19 L110.45,9.19 L110.45,10.86 L107.12,10.86 Z M102.46,7.52 L104.46,7.52 L104.46,9.19 L102.46,9.19 Z M90.57,5.51 L95.57,5.51 L95.57,7.18 L90.57,7.18 Z M91.24,9.19 L94.57,9.19 L94.57,10.86 L91.24,10.86 Z M86.58,7.52 L88.57,7.52 L88.57,9.19 L86.58,9.19 Z M74.58,5.62 L79.58,5.62 L79.58,7.29 L74.58,7.29 Z M75.25,9.3 L78.58,9.3 L78.58,10.97 L75.25,10.97 Z M70.58,7.63 L72.58,7.63 L72.58,9.3 L70.58,9.3 Z M58.7,5.62 L63.7,5.62 L63.7,7.29 L58.7,7.29 Z M59.36,9.3 L62.7,9.3 L62.7,10.97 L59.36,10.97 Z M54.7,7.63 L56.7,7.63 L56.7,9.3 L54.7,9.3 Z M38.82,7.52 L40.82,7.52 L40.82,9.19 L38.82,9.19 Z M43.48,9.19 L46.81,9.19 L46.81,10.86 L43.48,10.86 Z M42.82,5.51 L47.81,5.51 L47.81,7.18 L42.82,7.18 Z" fill="none" stroke="currentColor" stroke-width="1.5"/></svg>