<svg xmlns="http://www.w3.org/2000/svg" viewBox="0 0 74.25 154.25" width="24" height="24"><path d="M0,0 C0,50.31 0,100.61 0,150.92 L3.33,150.92 L3.33,154.25 L70.92,154.25 L70.92,150.92 L74.25,150.92 L74.25,0 Z" fill="none" stroke="currentColor" stroke-width="1.5"/><path d="M0,0 L0,150.92 L3.33,150.92 L3.33,154.25 L70.92,154.25 L70.92,150.92 L74.25,150.92 L74.25,0 Z M1,1 L73.25,1 L73.25,149.92 L1,149.92 Z M23.64,3.33 L23.64,5.33 L48.95,5.33 L48.95,3.33 Z M5.83,6.66 L5.83,19.32 L66.76,19.32 L66.76,6.66 Z M6.83,7.66 L65.76,7.66 L65.76,18.32 L6.83,18.32 Z M6.66,68.3 L6.66,145.92 L65.93,145.92 L65.93,68.3 Z M7.66,69.3 L64.93,69.3 L64.93,144.92 L7.66,144.92 Z M4.33,150.92 L69.92,150.92 L69.92,153.25 L4.33,153.25 Z" fill="none" stroke="currentColor" stroke-width="1.5"/><path d="M1,1 L1,149.92 L73.25,149.92 L73.25,1 Z M4.83,2 L68.09,2 L68.09,20.49 L4.83,20.49 Z M6.83,7.66 L6.83,18.32 L65.76,18.32 L65.76,7.66 Z M4.83,25.49 L68.09,25.49 L68.09,60.47 L4.83,60.47 Z M8.82,30.48 L8.82,35.48 L63.76,35.48 L63.76,30.48 Z M8.82,40.48 L8.82,45.47 L63.76,45.47 L63.76,40.48 Z M8.82,50.47 L8.82,55.47 L63.76,55.47 L63.76,50.47 Z M4.83,65.46 L68.09,65.46 L68.09,148.25 L4.83,148.25 Z M7.66,69.3 L7.66,144.92 L64.93,144.92 L64.93,69.3 Z M4.33,150.92 L4.33,153.25 L69.92,153.25 L69.92,150.92 Z" fill="none" stroke="currentColor" stroke-width="1.5"/></svg>