<svg xmlns="http://www.w3.org/2000/svg" viewBox="0 0 161.9 30.6" width="24" height="24"><path d="M0,0 L0,0.5 L0,30.6 L161.9,30.6 L161.9,0 Z" fill="none" stroke="currentColor" stroke-width="1.5"/><path d="M0,0 L0,30.6 L161.9,30.6 L161.9,0 Z M1,1 L6,1 L6,29.6 L1,29.6 Z M7,1 L155,1 L155,29.6 L7,29.6 Z M156,1 L160.9,1 L160.9,29.6 L156,29.6 Z M8,17 L8,23 L36,23 L36,17 Z M37,17 L37,23 L65,23 L65,17 Z M66,17 L66,23 L94,23 L94,17 Z M95,17 L95,23 L152,23 L152,17 Z M9,18 L35,18 L35,22 L9,22 Z M38,18 L64,18 L64,22 L38,22 Z M67,18 L93,18 L93,22 L67,22 Z M96,18 L151,18 L151,22 L96,22 Z M8,23.5 L8,29.5 L36,29.5 L36,23.5 Z M37,23.5 L37,29.5 L65,29.5 L65,23.5 Z M66,23.5 L66,29.5 L94,29.5 L94,23.5 Z M95,23.5 L95,29.5 L123,29.5 L123,23.5 Z M124,23.5 L124,29.5 L152,29.5 L152,23.5 Z M9,24.5 L35,24.5 L35,28.5 L9,28.5 Z M38,24.5 L64,24.5 L64,28.5 L38,28.5 Z M67,24.5 L93,24.5 L93,28.5 L67,28.5 Z M96,24.5 L122,24.5 L122,28.5 L96,28.5 Z M125,24.5 L151,24.5 L151,28.5 L125,28.5 Z" fill="none" stroke="currentColor" stroke-width="1.5"/><rect x="0" y="0" width="0" height="0" fill="none" stroke="currentColor"/></svg>