<svg xmlns="http://www.w3.org/2000/svg" viewBox="0 0 161.9 89.8" width="24" height="24"><path d="M0,0 L0,0.5 L0,89.8 L161.9,89.8 L161.9,0 Z" fill="none" stroke="currentColor" stroke-width="1.5"/><path d="M0,0 L0,89.8 L161.9,89.8 L161.9,0 Z M1,1 L160.9,1 L160.9,88.8 L1,88.8 Z M10,3 L10,9 L67,9 L67,3 Z M11,4 L66,4 L66,8 L11,8 Z M10,12 L10,18 L38,18 L38,12 Z M44,12 L44,26 L80,26 L80,12 Z M11,13 L37,13 L37,17 L11,17 Z M45,13 L79,13 L79,25 L45,25 Z M10,19 L10,25 L38,25 L38,19 Z M11,20 L37,20 L37,24 L11,24 Z M3.5,22 C2.4,22 1.5,22.9 1.5,24 L1.5,65.8 C1.5,66.9 2.4,67.8 3.5,67.8 C4.6,67.8 5.5,66.9 5.5,65.8 L5.5,24 C5.5,22.9 4.6,22 3.5,22 Z M158.4,22 C157.3,22 156.4,22.9 156.4,24 L156.4,65.8 C156.4,66.9 157.3,67.8 158.4,67.8 C159.5,67.8 160.4,66.9 160.4,65.8 L160.4,24 C160.4,22.9 159.5,22 158.4,22 Z M3.5,23 C4.06,23 4.5,23.44 4.5,24 L4.5,65.8 C4.5,66.36 4.06,66.8 3.5,66.8 C2.94,66.8 2.5,66.36 2.5,65.8 L2.5,24 C2.5,23.44 2.94,23 3.5,23 Z M158.4,23 C158.96,23 159.4,23.44 159.4,24 L159.4,65.8 C159.4,66.36 158.96,66.8 158.4,66.8 C157.84,66.8 157.4,66.36 157.4,65.8 L157.4,24 C157.4,23.44 157.84,23 158.4,23 Z M15,28 L15,86 L46,86 L46,28 Z M49,28 L49,86 L80,86 L80,28 Z M16,29 L45,29 L45,85 L16,85 Z M50,29 L79,29 L79,85 L50,85 Z" fill="none" stroke="currentColor" stroke-width="1.5"/><rect x="0" y="0" width="0" height="0" fill="none" stroke="currentColor"/><path d="M83.5,6.5 L137.5,3.5 L140.5,35.5 L150.5,38.5 L153.5,81.5 L86.5,84.5 Z" fill="none" stroke="currentColor" stroke-width="1.5"/></svg>