<svg xmlns="http://www.w3.org/2000/svg" viewBox="0 0 161.9 75.0" width="24" height="24"><path d="M0,0 L0,75 L161.9,75 L161.9,0 Z" fill="none" stroke="currentColor" stroke-width="1.5"/><path d="M0,0 L0,75 L161.9,75 L161.9,0 Z M1,1 L160.9,1 L160.9,33 L1,33 Z M1,34 L12.5,34 L12.5,74 L1,74 Z M13.5,34 L25,34 L25,74 L13.5,74 Z M26,34 L33.5,34 L33.5,74 L26,74 Z M34.5,34 L42,34 L42,74 L34.5,74 Z M43,34 L50.5,34 L50.5,74 L43,74 Z M51.5,34 L59,34 L59,74 L51.5,74 Z M60,34 L67.5,34 L67.5,74 L60,74 Z M68.5,34 L76,34 L76,74 L68.5,74 Z M77,34 L84.5,34 L84.5,74 L77,74 Z M85.5,34 L93,34 L93,74 L85.5,74 Z M94,34 L101.5,34 L101.5,74 L94,74 Z M102.5,34 L110,34 L110,74 L102.5,74 Z M111,34 L118.5,34 L118.5,74 L111,74 Z M119.5,34 L127,34 L127,74 L119.5,74 Z M128,34 L135.5,34 L135.5,74 L128,74 Z M136.5,34 L144,34 L144,74 L136.5,74 Z M145,34 L152.5,34 L152.5,74 L145,74 Z M153.5,34 L160.9,34 L160.9,74 L153.5,74 Z" fill="none" stroke="currentColor" stroke-width="1.5"/><rect x="0" y="0" width="0" height="0" fill="none" stroke="currentColor"/><path d="M132.5,1.5 L157.5,1.5 C159.16,1.5 160.5,2.84 160.5,4.5 L160.5,26.5 C160.5,28.16 159.16,29.5 157.5,29.5 L132.5,29.5 C130.84,29.5 129.5,28.16 129.5,26.5 L129.5,4.5 C129.5,2.84 130.84,1.5 132.5,1.5 Z M100.5,1.5 L125.5,1.5 C127.16,1.5 128.5,2.84 128.5,4.5 L128.5,26.5 C128.5,28.16 127.16,29.5 125.5,29.5 L100.5,29.5 C98.84,29.5 97.5,28.16 97.5,26.5 L97.5,4.5 C97.5,2.84 98.84,1.5 100.5,1.5 Z M68.5,1.5 L93.5,1.5 C95.16,1.5 96.5,2.84 96.5,4.5 L96.5,26.5 C96.5,28.16 95.16,29.5 93.5,29.5 L68.5,29.5 C66.84,29.5 65.5,28.16 65.5,26.5 L65.5,4.5 C65.5,2.84 66.84,1.5 68.5,1.5 Z M36.5,1.5 L61.5,1.5 C63.16,1.5 64.5,2.84 64.5,4.5 L64.5,26.5 C64.5,28.16 63.16,29.5 61.5,29.5 L36.5,29.5 C34.84,29.5 33.5,28.16 33.5,26.5 L33.5,4.5 C33.5,2.84 34.84,1.5 36.5,1.5 Z M4.5,1.5 L29.5,1.5 C31.16,1.5 32.5,2.84 32.5,4.5 L32.5,26.5 C32.5,28.16 31.16,29.5 29.5,29.5 L4.5,29.5 C2.84,29.5 1.5,28.16 1.5,26.5 L1.5,4.5 C1.5,2.84 2.84,1.5 4.5,1.5 Z" fill="none" stroke="currentColor" stroke-width="1.5"/></svg>