<svg xmlns="http://www.w3.org/2000/svg" viewBox="0 0 161.9 149.0" width="24" height="24"><path d="M0,0 L0,0.5 L0,149 L161.9,149 L161.9,0 Z" fill="none" stroke="currentColor" stroke-width="1.5"/><path d="M0,0 L0,149 L161.9,149 L161.9,0 Z M1,1 L160.9,1 L160.9,148 L1,148 Z M3.5,52 C2.4,52 1.5,52.9 1.5,54 L1.5,95.8 C1.5,96.9 2.4,97.8 3.5,97.8 C4.6,97.8 5.5,96.9 5.5,95.8 L5.5,54 C5.5,52.9 4.6,52 3.5,52 Z M158.4,52 C157.3,52 156.4,52.9 156.4,54 L156.4,95.8 C156.4,96.9 157.3,97.8 158.4,97.8 C159.5,97.8 160.4,96.9 160.4,95.8 L160.4,54 C160.4,52.9 159.5,52 158.4,52 Z M3.5,53 C4.06,53 4.5,53.44 4.5,54 L4.5,95.8 C4.5,96.36 4.06,96.8 3.5,96.8 C2.94,96.8 2.5,96.36 2.5,95.8 L2.5,54 C2.5,53.44 2.94,53 3.5,53 Z M158.4,53 C158.96,53 159.4,53.44 159.4,54 L159.4,95.8 C159.4,96.36 158.96,96.8 158.4,96.8 C157.84,96.8 157.4,96.36 157.4,95.8 L157.4,54 C157.4,53.44 157.84,53 158.4,53 Z M69,67.5 L69,81.5 L105,81.5 L105,67.5 Z M10,68 L10,74 L38,74 L38,68 Z M39,68 L39,74 L67,74 L67,68 Z M107,68 L107,74 L153,74 L153,68 Z M70,68.5 L104,68.5 L104,80.5 L70,80.5 Z M11,69 L37,69 L37,73 L11,73 Z M40,69 L66,69 L66,73 L40,73 Z M108,69 L152,69 L152,73 L108,73 Z M10,75 L10,81 L38,81 L38,75 Z M39,75 L39,81 L67,81 L67,75 Z M11,76 L37,76 L37,80 L11,80 Z M40,76 L66,76 L66,80 L40,80 Z M15,88 L15,146 L46,146 L46,88 Z M49,88 L49,146 L80,146 L80,88 Z M83,88 L83,146 L114,146 L114,88 Z M117,88 L117,146 L148,146 L148,88 Z M16,89 L45,89 L45,145 L16,145 Z M50,89 L79,89 L79,145 L50,145 Z M84,89 L113,89 L113,145 L84,145 Z M118,89 L147,89 L147,145 L118,145 Z" fill="none" stroke="currentColor" stroke-width="1.5"/><rect x="0" y="0" width="0" height="0" fill="none" stroke="currentColor"/><path d="M8.5,6.5 L137.5,3.5 L140.5,35.5 L150.5,38.5 L153.5,60.5 L11.5,63.5 Z" fill="none" stroke="currentColor" stroke-width="1.5"/></svg>