<svg xmlns="http://www.w3.org/2000/svg" viewBox="0 0 161.9 45.4" width="24" height="24"><path d="M0,0 L0,11 L8,11 L8,34.4 L0,34.4 L0,45.4 L161.9,45.4 L161.9,34.4 L153.9,34.4 L153.9,10.91 L161.9,10.91 L161.9,0 Z" fill="none" stroke="currentColor" stroke-width="1.5"/><path d="M0,0 L0,11 L8,11 L8,34.4 L0,34.4 L0,45.4 L161.9,45.4 L161.9,34.4 L153.9,34.4 L153.9,10.91 L161.9,10.91 L161.9,0 Z M1,1 L160.9,1 L160.9,9.89 L152.9,9.89 L152.9,35.4 L160.9,35.4 L160.9,44.4 L157,44.4 L157,39.5 L100,39.5 L100,44.4 L1,44.4 L1,35.4 L9,35.4 L9,10 L1,10 Z M124,3 L124,39 L152,39 L152,3 Z M125,4 L151,4 L151,8 L125,8 Z M125,10 L151,10 L151,14 L125,14 Z M125,16 L151,16 L151,20 L125,20 Z M125,22 L151,22 L151,26 L125,26 Z M125,28 L151,28 L151,32 L125,32 Z M125,34 L151,34 L151,38 L125,38 Z M101,40.5 L156,40.5 L156,44.4 L101,44.4 Z" fill="none" stroke="currentColor" stroke-width="1.5"/><rect x="0" y="0" width="0" height="0" fill="none" stroke="currentColor"/></svg>