<svg xmlns="http://www.w3.org/2000/svg" viewBox="0 0 161.9 15.8" width="24" height="24"><path d="M0,0 L0,15.8 L161.9,15.8 L161.9,0 Z" fill="none" stroke="currentColor" stroke-width="1.5"/><path d="M0,0 L0,15.8 L161.9,15.8 L161.9,0 Z M1,1 L6,1 L6,14.8 L1,14.8 Z M7,1 L155,1 L155,14.8 L7,14.8 Z M156,1 L160.9,1 L160.9,14.8 L156,14.8 Z M10,3 L10,8 L32,8 L32,3 Z M33,3 L33,8 L55,8 L55,3 Z M56,3 L56,8 L79,8 L79,3 Z M80,3 L80,8 L102,8 L102,3 Z M103,3 L103,8 L125,8 L125,3 Z M126,3 L126,8 L148,8 L148,3 Z M11,4 L31,4 L31,7 L11,7 Z M34,4 L54,4 L54,7 L34,7 Z M57,4 L78,4 L78,7 L57,7 Z M81,4 L101,4 L101,7 L81,7 Z M104,4 L124,4 L124,7 L104,7 Z M127,4 L147,4 L147,7 L127,7 Z M10,9 L10,14 L32,14 L32,9 Z M33,9 L33,14 L55,14 L55,9 Z M56,9 L56,14 L79,14 L79,9 Z M80,9 L80,14 L102,14 L102,9 Z M103,9 L103,14 L125,14 L125,9 Z M126,9 L126,14 L148,14 L148,9 Z M11,10 L31,10 L31,13 L11,13 Z M34,10 L54,10 L54,13 L34,13 Z M57,10 L78,10 L78,13 L57,13 Z M81,10 L101,10 L101,13 L81,13 Z M104,10 L124,10 L124,13 L104,13 Z M127,10 L147,10 L147,13 L127,13 Z" fill="none" stroke="currentColor" stroke-width="1.5"/></svg>