<svg xmlns="http://www.w3.org/2000/svg" viewBox="0 0 161.9 149.0" width="24" height="24"><path d="M0,0 L0,0.5 L0,149 L161.9,149 L161.9,0 Z" fill="none" stroke="currentColor" stroke-width="1.5"/><path d="M0,0 L0,149 L161.9,149 L161.9,0 Z M1,1 L6,1 L6,148 L1,148 Z M7,1 L10.5,1 L10.5,28 L7,28 Z M11.5,1 L80.5,1 L80.5,28 L11.5,28 Z M81.5,1 L150.5,1 L150.5,28 L81.5,28 Z M151.5,1 L155,1 L155,28 L151.5,28 Z M156,1 L160.9,1 L160.9,148 L156,148 Z M7,29 L24.62,29 L24.62,148 L7,148 Z M25.62,29 L43.25,29 L43.25,148 L25.62,148 Z M44.25,29 L61.88,29 L61.88,148 L44.25,148 Z M62.88,29 L80.5,29 L80.5,148 L62.88,148 Z M81.5,29 L99.12,29 L99.12,148 L81.5,148 Z M100.12,29 L117.75,29 L117.75,148 L100.12,148 Z M118.75,29 L136.38,29 L136.38,148 L118.75,148 Z M137.38,29 L155,29 L155,148 L137.38,148 Z" fill="none" stroke="currentColor" stroke-width="1.5"/><rect x="0" y="0" width="0" height="0" fill="none" stroke="currentColor"/><path d="M88.5,4.5 L143.5,4.5 C145.16,4.5 146.5,5.84 146.5,7.5 L146.5,21.5 C146.5,23.16 145.16,24.5 143.5,24.5 L88.5,24.5 C86.84,24.5 85.5,23.16 85.5,21.5 L85.5,7.5 C85.5,5.84 86.84,4.5 88.5,4.5 Z M18.5,4.5 L73.5,4.5 C75.16,4.5 76.5,5.84 76.5,7.5 L76.5,21.5 C76.5,23.16 75.16,24.5 73.5,24.5 L18.5,24.5 C16.84,24.5 15.5,23.16 15.5,21.5 L15.5,7.5 C15.5,5.84 16.84,4.5 18.5,4.5 Z" fill="none" stroke="currentColor" stroke-width="1.5"/></svg>