<svg xmlns="http://www.w3.org/2000/svg" viewBox="0 0 19.62 121.0" width="24" height="24"><path d="M0,0 L0,121 L19.62,121 L19.62,0 Z" fill="none" stroke="currentColor" stroke-width="1.5"/><path d="M0,0 L0,121 L19.62,121 L19.62,0 Z M1,1 L18.62,1 L18.62,120 L1,120 Z M13,6 L13,23 L17,23 L17,6 Z M14,7 L16,7 L16,10 L14,10 Z M14,11 L16,11 L16,14 L14,14 Z M14,15 L16,15 L16,18 L14,18 Z M14,19 L16,19 L16,22 L14,22 Z M13,80 L13,97 L17,97 L17,80 Z M14,81 L16,81 L16,84 L14,84 Z M14,85 L16,85 L16,88 L14,88 Z M14,89 L16,89 L16,92 L14,92 Z M14,93 L16,93 L16,96 L14,96 Z M13,100 L13,117 L17,117 L17,100 Z M14,101 L16,101 L16,104 L14,104 Z M14,105 L16,105 L16,108 L14,108 Z M14,109 L16,109 L16,112 L14,112 Z M14,113 L16,113 L16,116 L14,116 Z" fill="none" stroke="currentColor" stroke-width="1.5"/><rect x="0" y="0" width="0" height="0" fill="none" stroke="currentColor"/></svg>