<svg xmlns="http://www.w3.org/2000/svg" viewBox="0 0 161.9 15.8" width="24" height="24"><path d="M0,0 L0,15.8 L161.9,15.8 L161.9,0 Z" fill="none" stroke="currentColor" stroke-width="1.5"/><path d="M0,0 L0,15.8 L161.9,15.8 L161.9,0 Z M1,1 L6,1 L6,14.8 L1,14.8 Z M7,1 L155,1 L155,14.8 L7,14.8 Z M156,1 L160.9,1 L160.9,14.8 L156,14.8 Z M108,2 L108,8 L154,8 L154,2 Z M109,3 L153,3 L153,7 L109,7 Z M10,8.7 L10,14.7 L38,14.7 L38,8.7 Z M39,8.7 L39,14.7 L67,14.7 L67,8.7 Z M68,8.7 L68,14.7 L96,14.7 L96,8.7 Z M97,8.7 L97,14.7 L125,14.7 L125,8.7 Z M126,8.7 L126,14.7 L154,14.7 L154,8.7 Z M11,9.7 L37,9.7 L37,13.7 L11,13.7 Z M40,9.7 L66,9.7 L66,13.7 L40,13.7 Z M69,9.7 L95,9.7 L95,13.7 L69,13.7 Z M98,9.7 L124,9.7 L124,13.7 L98,13.7 Z M127,9.7 L153,9.7 L153,13.7 L127,13.7 Z" fill="none" stroke="currentColor" stroke-width="1.5"/><rect x="0" y="0" width="0" height="0" fill="none" stroke="currentColor"/></svg>