<svg xmlns="http://www.w3.org/2000/svg" viewBox="0 0 161.9 30.6" width="24" height="24"><path d="M0,0 L0,30.6 L161.9,30.6 L161.9,0 Z" fill="none" stroke="currentColor" stroke-width="1.5"/><path d="M0,0 L0,30.6 L161.9,30.6 L161.9,0 Z M1,1 L6,1 L6,29.6 L1,29.6 Z M7,1 L155,1 L155,29.6 L7,29.6 Z M156,1 L160.9,1 L160.9,29.6 L156,29.6 Z M8,2 L8,10 L44,10 L44,2 Z M45,2 L45,10 L81,10 L81,2 Z M82,2 L82,10 L118,10 L118,2 Z M119,2 L119,10 L154,10 L154,2 Z M9,3 L43,3 L43,9 L9,9 Z M46,3 L80,3 L80,9 L46,9 Z M83,3 L117,3 L117,9 L83,9 Z M120,3 L153,3 L153,9 L120,9 Z M8,11 L8,19 L44,19 L44,11 Z M45,11 L45,19 L81,19 L81,11 Z M82,11 L82,19 L118,19 L118,11 Z M119,11 L119,19 L154,19 L154,11 Z M9,12 L43,12 L43,18 L9,18 Z M46,12 L80,12 L80,18 L46,18 Z M83,12 L117,12 L117,18 L83,18 Z M120,12 L153,12 L153,18 L120,18 Z M8,20 L8,28 L44,28 L44,20 Z M45,20 L45,28 L81,28 L81,20 Z M82,20 L82,28 L118,28 L118,20 Z M119,20 L119,28 L154,28 L154,20 Z M9,21 L43,21 L43,27 L9,27 Z M46,21 L80,21 L80,27 L46,27 Z M83,21 L117,21 L117,27 L83,27 Z M120,21 L153,21 L153,27 L120,27 Z" fill="none" stroke="currentColor" stroke-width="1.5"/></svg>