<svg xmlns="http://www.w3.org/2000/svg" viewBox="0 0 19.62 121.0" width="24" height="24"><path d="M0,0 L0,121 L19.62,121 L19.62,0 Z" fill="none" stroke="currentColor" stroke-width="1.5"/><path d="M0,0 L0,121 L19.62,121 L19.62,0 Z M1,1 L18.62,1 L18.62,120 L1,120 Z M14,44 L14,65 L17,65 L17,44 Z M15,45 L16,45 L16,49 L15,49 Z M15,50 L16,50 L16,54 L15,54 Z M15,55 L16,55 L16,59 L15,59 Z M15,60 L16,60 L16,64 L15,64 Z M13,76 L13,83 L17,83 L17,76 Z M14,77 L16,77 L16,82 L14,82 Z M13,84 L13,91 L17,91 L17,84 Z M14,85 L16,85 L16,90 L14,90 Z M13,92 L13,99 L17,99 L17,92 Z M14,93 L16,93 L16,98 L14,98 Z M13,108 L13,117 L17,117 L17,112 L17,108 Z M14,109 L16,109 L16,112 L14,112 Z M14,113 L16,113 L16,116 L14,116 Z" fill="none" stroke="currentColor" stroke-width="1.5"/><rect x="0" y="0" width="0" height="0" fill="none" stroke="currentColor"/></svg>