<svg xmlns="http://www.w3.org/2000/svg" viewBox="0 0 161.9 15.95" width="24" height="24"><path d="M0,0 L0,15.95 L161.9,15.95 L161.9,0 Z" fill="none" stroke="currentColor" stroke-width="1.5"/><path d="M0,0 L0,15.95 L161.9,15.95 L161.9,0 Z M1,1 L160.9,1 L160.9,14.95 L1,14.95 Z M101.52,2.35 C99.96,2.35 98.69,3.62 98.69,5.18 L98.69,10.95 C98.69,12.51 99.96,13.78 101.52,13.78 L149.87,13.78 C151.43,13.78 152.7,12.51 152.7,10.95 L152.7,5.18 C152.7,3.62 151.43,2.35 149.87,2.35 Z M101.52,3.35 L149.87,3.35 C150.89,3.35 151.7,4.16 151.7,5.18 L151.7,10.95 C151.7,11.97 150.89,12.78 149.87,12.78 L101.52,12.78 C100.5,12.78 99.69,11.97 99.69,10.95 L99.69,5.18 C99.69,4.16 100.5,3.35 101.52,3.35 Z" fill="none" stroke="currentColor" stroke-width="1.5"/><rect x="0" y="0" width="0" height="0" fill="none" stroke="currentColor"/></svg>