<svg xmlns="http://www.w3.org/2000/svg" viewBox="0 0 161.8 60.2" width="24" height="24"><path d="M0,0 L0,60.2 L161.8,60.2 L161.8,0 Z" fill="none" stroke="currentColor" stroke-width="1.5"/><path d="M0,0 L0,60.2 L161.8,60.2 L161.8,0 Z M1,1 L160.8,1 L160.8,59.2 L1,59.2 Z M118.79,5.66 C117.6,5.66 116.62,6.64 116.62,7.83 L116.62,52.77 C116.62,53.96 117.6,54.94 118.79,54.94 L124.45,54.94 C125.64,54.94 126.62,53.96 126.62,52.77 L126.62,7.83 C126.62,6.64 125.64,5.66 124.45,5.66 Z M132.78,5.66 C131.59,5.66 130.61,6.64 130.61,7.83 L130.61,52.77 C130.61,53.96 131.59,54.94 132.78,54.94 L138.44,54.94 C139.63,54.94 140.61,53.96 140.61,52.77 L140.61,7.83 C140.61,6.64 139.63,5.66 138.44,5.66 Z M146.78,5.66 C145.58,5.66 144.61,6.64 144.61,7.83 L144.61,52.77 C144.61,53.96 145.58,54.94 146.78,54.94 L152.43,54.94 C153.63,54.94 154.6,53.96 154.6,52.77 L154.6,7.83 C154.6,6.64 153.63,5.66 152.43,5.66 Z M118.79,6.66 L124.45,6.66 C125.1,6.66 125.62,7.17 125.62,7.83 L125.62,52.77 C125.62,53.43 125.1,53.94 124.45,53.94 L118.79,53.94 C118.13,53.94 117.62,53.43 117.62,52.77 L117.62,7.83 C117.62,7.17 118.13,6.66 118.79,6.66 Z M132.78,6.66 L138.44,6.66 C139.1,6.66 139.61,7.17 139.61,7.83 L139.61,52.77 C139.61,53.43 139.1,53.94 138.44,53.94 L132.78,53.94 C132.13,53.94 131.61,53.43 131.61,52.77 L131.61,7.83 C131.61,7.17 132.13,6.66 132.78,6.66 Z M146.78,6.66 L152.43,6.66 C153.09,6.66 153.6,7.17 153.6,7.83 L153.6,52.77 C153.6,53.43 153.09,53.94 152.43,53.94 L146.78,53.94 C146.12,53.94 145.61,53.43 145.61,52.77 L145.61,7.83 C145.61,7.17 146.12,6.66 146.78,6.66 Z" fill="none" stroke="currentColor" stroke-width="1.5"/><rect x="0" y="0" width="0" height="0" fill="none" stroke="currentColor"/></svg>