<svg xmlns="http://www.w3.org/2000/svg" viewBox="0 0 162.0 15.85" width="24" height="24"><path d="M0,0 L0,15.85 L162,15.85 L162,0 Z" fill="none" stroke="currentColor" stroke-width="1.5"/><path d="M0,0 L0,15.85 L162,15.85 L162,0 Z M1,1 L161,1 L161,14.85 L1,14.85 Z M80.07,6.35 L80.07,13.7 L118.76,13.7 L118.76,6.35 Z M121.1,6.35 L121.1,13.7 L159.8,13.7 L159.8,6.35 Z M81.07,7.35 L117.76,7.35 L117.76,12.7 L81.07,12.7 Z M122.1,7.35 L158.8,7.35 L158.8,12.7 L122.1,12.7 Z M3.34,8.69 L3.34,13.36 L76.73,13.36 L76.73,8.69 Z M4.34,9.69 L75.73,9.69 L75.73,12.36 L4.34,12.36 Z" fill="none" stroke="currentColor" stroke-width="1.5"/><rect x="0" y="0" width="0" height="0" fill="none" stroke="currentColor"/></svg>