<svg xmlns="http://www.w3.org/2000/svg" viewBox="0 0 162.1 30.57" width="24" height="24"><path d="M0,0 L0,0.5 L0,30.57 L162.1,30.57 L162.1,0 Z" fill="none" stroke="currentColor" stroke-width="1.5"/><path d="M0,0 L0,30.57 L162.1,30.57 L162.1,0 Z M1,1 L161.1,1 L161.1,29.57 L1,29.57 Z M76.11,2.66 L76.11,12.97 L159.56,12.97 L159.56,2.66 Z M77.11,3.66 L158.56,3.66 L158.56,11.97 L77.11,11.97 Z M130.19,4.99 L130.19,10.64 L144.54,10.64 L144.54,4.99 Z M131.19,5.99 L143.54,5.99 L143.54,9.64 L131.19,9.64 Z M16.36,6.65 L16.36,12.31 L30.71,12.31 L30.71,6.65 Z M17.36,7.65 L29.71,7.65 L29.71,11.31 L17.36,11.31 Z M16.36,18.96 L16.36,24.61 L30.71,24.61 L30.71,18.96 Z M40.39,18.96 L40.39,24.61 L54.74,24.61 L54.74,18.96 Z M64.76,18.96 L64.76,24.61 L79.11,24.61 L79.11,18.96 Z M85.12,18.96 L85.12,24.61 L99.48,24.61 L99.48,18.96 Z M105.49,18.96 L105.49,24.61 L119.84,24.61 L119.84,18.96 Z M129.86,18.96 L129.86,24.61 L144.21,24.61 L144.21,18.96 Z M17.36,19.96 L29.71,19.96 L29.71,23.61 L17.36,23.61 Z M41.39,19.96 L53.74,19.96 L53.74,23.61 L41.39,23.61 Z M65.76,19.96 L78.11,19.96 L78.11,23.61 L65.76,23.61 Z M86.12,19.96 L98.48,19.96 L98.48,23.61 L86.12,23.61 Z M106.49,19.96 L118.84,19.96 L118.84,23.61 L106.49,23.61 Z M130.86,19.96 L143.21,19.96 L143.21,23.61 L130.86,23.61 Z" fill="none" stroke="currentColor" stroke-width="1.5"/><path d="M129.86,18.96 L144.21,18.96 L144.21,24.61 L129.86,24.61 L129.86,19.46 Z M105.49,18.96 L119.84,18.96 L119.84,24.61 L105.49,24.61 L105.49,19.46 Z M85.12,18.96 L99.48,18.96 L99.48,24.61 L85.12,24.61 L85.12,19.46 Z M64.76,18.96 L79.11,18.96 L79.11,24.61 L64.76,24.61 L64.76,19.46 Z M40.39,18.96 L54.74,18.96 L54.74,24.61 L40.39,24.61 L40.39,19.46 Z M16.36,18.96 L30.71,18.96 L30.71,24.61 L16.36,24.61 L16.36,19.46 Z M16.36,6.65 L30.71,6.65 L30.71,12.31 L16.36,12.31 L16.36,7.15 Z M130.19,4.99 L144.54,4.99 L144.54,10.64 L130.19,10.64 L130.19,5.49 Z M77.11,3.66 L77.11,11.97 L158.56,11.97 L158.56,3.66 Z M76.11,2.66 L159.56,2.66 L159.56,12.97 L76.11,12.97 L76.11,3.16 Z M1,1 L1,29.57 L161.1,29.57 L161.1,1 Z" fill="none" stroke="currentColor" stroke-width="1.5"/><path d="M130.86,19.96 L130.86,23.61 L143.21,23.61 L143.21,19.96 Z M106.49,19.96 L106.49,23.61 L118.84,23.61 L118.84,19.96 Z M86.12,19.96 L86.12,23.61 L98.48,23.61 L98.48,19.96 Z M65.76,19.96 L65.76,23.61 L78.11,23.61 L78.11,19.96 Z M41.39,19.96 L41.39,23.61 L53.74,23.61 L53.74,19.96 Z M17.36,19.96 L17.36,23.61 L29.71,23.61 L29.71,19.96 Z M17.36,7.65 L17.36,11.31 L29.71,11.31 L29.71,7.65 Z M131.19,5.99 L131.19,9.64 L143.54,9.64 L143.54,5.99 Z" fill="none" stroke="currentColor" stroke-width="1.5"/></svg>