<svg xmlns="http://www.w3.org/2000/svg" viewBox="0 0 161.85 90.7" width="24" height="24"><path d="M0,0 L0,90.7 L161.85,90.7 L161.85,0 Z" fill="none" stroke="currentColor" stroke-width="1.5"/><path d="M1,30.9 L1,89.7 L160.85,89.7 L160.85,30.9 Z M23.5,31.5 L160.5,31.5 L160.5,45.5 L23.5,45.5 Z M26.5,34.5 L26.5,42.5 L32.5,42.5 L32.5,34.5 Z M150.5,34.5 L150.5,42.5 L156.5,42.5 L156.5,34.5 Z M23.5,46 L160.5,46 L160.5,60 L23.5,60 Z M7.5,47.5 L15.5,47.5 L15.5,73.5 L7.5,73.5 Z M26.5,49 L26.5,57 L32.5,57 L32.5,49 Z M150.5,49 L150.5,57 L156.5,57 L156.5,49 Z M9.5,51 L9.5,70 L13.5,70 L13.5,51 Z M10.5,52 L12.5,52 L12.5,69 L10.5,69 Z M23.5,60.5 L160.5,60.5 L160.5,74.5 L23.5,74.5 Z M26.5,63.5 L26.5,71.5 L32.5,71.5 L32.5,63.5 Z M150.5,63.5 L150.5,71.5 L156.5,71.5 L156.5,63.5 Z M23.5,75 L160.5,75 L160.5,89 L23.5,89 Z M26.5,78 L26.5,86 L32.5,86 L32.5,78 Z M150.5,78 L150.5,86 L156.5,86 L156.5,78 Z" fill="none" stroke="currentColor" stroke-width="1.5"/><rect x="0" y="0" width="0" height="0" fill="none" stroke="currentColor"/><rect x="92.5" y="3.5" width="29" height="8" fill="none" stroke="currentColor"/><path d="M0,0 L0,90.7 L161.85,90.7 L161.85,0 Z M1,1 L160.85,1 L160.85,29.9 L1,29.9 Z M145.5,2 C141.36,2 138,5.36 138,9.5 C138,13.64 141.36,17 145.5,17 C149.64,17 153,13.64 153,9.5 C153,5.36 149.64,2 145.5,2 Z M1,30.9 L160.85,30.9 L160.85,89.7 L1,89.7 Z M23.5,31.5 L23.5,45.5 L160.5,45.5 L160.5,31.5 Z M26.5,34.5 L32.5,34.5 L32.5,42.5 L26.5,42.5 Z M150.5,34.5 L156.5,34.5 L156.5,42.5 L150.5,42.5 Z M23.5,46 L23.5,60 L160.5,60 L160.5,46 Z M7.5,47.5 L7.5,73.5 L15.5,73.5 L15.5,47.5 Z M26.5,49 L32.5,49 L32.5,57 L26.5,57 Z M150.5,49 L156.5,49 L156.5,57 L150.5,57 Z M9.5,51 L13.5,51 L13.5,70 L9.5,70 Z M10.5,52 L10.5,69 L12.5,69 L12.5,52 Z M23.5,60.5 L23.5,74.5 L160.5,74.5 L160.5,60.5 Z M26.5,63.5 L32.5,63.5 L32.5,71.5 L26.5,71.5 Z M150.5,63.5 L156.5,63.5 L156.5,71.5 L150.5,71.5 Z M23.5,75 L23.5,89 L160.5,89 L160.5,75 Z M26.5,78 L32.5,78 L32.5,86 L26.5,86 Z M150.5,78 L156.5,78 L156.5,86 L150.5,86 Z" fill="none" stroke="currentColor" stroke-width="1.5"/><path d="M145.5,3 C149.1,3 152,5.9 152,9.5 C152,13.1 149.1,16 145.5,16 C141.9,16 139,13.1 139,9.5 C139,5.9 141.9,3 145.5,3 Z" fill="none" stroke="currentColor" stroke-width="1.5"/><path d="M41,78.5 L41,87.5 L47,87.5 L47,78.5 Z M41,64 L41,73 L47,73 L47,64 Z M41,49.5 L41,58.5 L47,58.5 L47,49.5 Z M41,35.5 L41,44.5 L47,44.5 L47,35.5 Z" fill="none" stroke="currentColor" stroke-width="1.5"/><path d="M42,83 L46,83 L46,86.5 L42,86.5 Z M42,79.5 L46,79.5 L46,82 L42,82 Z M42,68.5 L46,68.5 L46,72 L42,72 Z M42,65 L46,65 L46,67.5 L42,67.5 Z M42,54 L46,54 L46,57.5 L42,57.5 Z M42,50.5 L46,50.5 L46,53 L42,53 Z M42,40 L46,40 L46,43.5 L42,43.5 Z M42,36.5 L46,36.5 L46,39 L42,39 Z M101.5,83 L108.5,83 L108.5,86.5 L101.5,86.5 Z M90.5,83 L97.5,83 L97.5,86.5 L90.5,86.5 Z M101.5,68.5 L108.5,68.5 L108.5,72 L101.5,72 Z M90.5,68.5 L97.5,68.5 L97.5,72 L90.5,72 Z M101.5,54 L108.5,54 L108.5,57.5 L101.5,57.5 Z M90.5,54 L97.5,54 L97.5,57.5 L90.5,57.5 Z M101.5,39.5 L108.5,39.5 L108.5,43 L101.5,43 Z M90.5,39.5 L97.5,39.5 L97.5,43 L90.5,43 Z M77,83.5 L82,83.5 L82,87 L77,87 Z M71.5,83.5 L76.5,83.5 L76.5,87 L71.5,87 Z M66,83.5 L71,83.5 L71,87 L66,87 Z M60.5,83.5 L65.5,83.5 L65.5,87 L60.5,87 Z M71.5,79 L76.5,79 L76.5,82.5 L71.5,82.5 Z M77,79 L82,79 L82,82.5 L77,82.5 Z M66,79 L71,79 L71,82.5 L66,82.5 Z M60.5,79 L65.5,79 L65.5,82.5 L60.5,82.5 Z M77,69 L82,69 L82,72.5 L77,72.5 Z M71.5,69 L76.5,69 L76.5,72.5 L71.5,72.5 Z M66,69 L71,69 L71,72.5 L66,72.5 Z M60.5,69 L65.5,69 L65.5,72.5 L60.5,72.5 Z M71.5,64.5 L76.5,64.5 L76.5,68 L71.5,68 Z M77,64.5 L82,64.5 L82,68 L77,68 Z M66,64.5 L71,64.5 L71,68 L66,68 Z M60.5,64.5 L65.5,64.5 L65.5,68 L60.5,68 Z M77,54 L82,54 L82,57.5 L77,57.5 Z M71.5,54 L76.5,54 L76.5,57.5 L71.5,57.5 Z M66,54 L71,54 L71,57.5 L66,57.5 Z M60.5,54 L65.5,54 L65.5,57.5 L60.5,57.5 Z M71.5,49.5 L76.5,49.5 L76.5,53 L71.5,53 Z M77,49.5 L82,49.5 L82,53 L77,53 Z M66,49.5 L71,49.5 L71,53 L66,53 Z M60.5,49.5 L65.5,49.5 L65.5,53 L60.5,53 Z M77,40 L82,40 L82,43.5 L77,43.5 Z M71.5,40 L76.5,40 L76.5,43.5 L71.5,43.5 Z M66,40 L71,40 L71,43.5 L66,43.5 Z M60.5,40 L65.5,40 L65.5,43.5 L60.5,43.5 Z M71.5,35.5 L76.5,35.5 L76.5,39 L71.5,39 Z M77,35.5 L82,35.5 L82,39 L77,39 Z M66,35.5 L71,35.5 L71,39 L66,39 Z M60.5,35.5 L65.5,35.5 L65.5,39 L60.5,39 Z" fill="none" stroke="currentColor" stroke-width="1.5"/><path d="M127.5,3.2 L127.5,6.2 L124.5,6.2 L124.5,9.2 L127.5,9.2 L127.5,12.2 L130.5,12.2 L130.5,9.2 L133.5,9.2 L133.5,6.2 L130.5,6.2 L130.5,3.2 Z M3.5,14 L3.5,15 L140.42,15 C140.09,14.69 139.79,14.36 139.51,14 Z M151.49,14 C151.21,14.36 150.91,14.69 150.58,15 L158.5,15 L158.5,14 Z M3.5,16 L3.5,17 L145.5,17 C144.14,17 142.87,16.63 141.77,16 Z M145.5,17 L158.5,17 L158.5,16 L149.23,16 C148.13,16.63 146.86,17 145.5,17 Z M3.5,18 L3.5,19 L158.5,19 L158.5,18 Z M3.5,20.5 L3.5,28.5 L158.5,28.5 L158.5,20.5 Z" fill="none" stroke="currentColor" stroke-width="1.5"/></svg>