<svg xmlns="http://www.w3.org/2000/svg" viewBox="0 0 161.85 45.85" width="24" height="24"><path d="M0,0 L0,45.85 L161.85,45.85 L161.85,0 Z" fill="none" stroke="currentColor" stroke-width="1.5"/><path d="M83.5,31.67 L156.26,31.67 L158,33.84 L158,36.49 L156,38.99 L156,44.17 L83.24,44.17 L81.5,41.99 L81.5,39.34 L83.5,36.84 Z M6,31.5 L78.76,31.5 L80.5,33.68 L80.5,36.32 L78.5,38.82 L78.5,44 L5.74,44 L4,41.82 L4,39.25 L6,37.75 Z M83.5,16.5 L156.26,16.5 L158,18.68 L158,21.32 L156,23.82 L156,29 L83.24,29 L81.5,26.82 L81.5,24.18 L83.5,21.68 Z M6,16.5 L78.76,16.5 L80.5,18.68 L80.5,21.32 L78.5,23.82 L78.5,29 L5.74,29 L4,26.82 L4,24.25 L6,22.75 Z M82.5,15.5 L82.5,21.32 L80.5,23.82 L80.5,27.18 L82.76,30 L83,30 L157,30 L157,24.18 L159,21.68 L159,18.32 L156.74,15.5 Z M5,15.5 L5,22.25 L3,23.75 L3,27.18 L5.26,30 L5.5,30 L79.5,30 L79.5,24.18 L81.5,21.68 L81.5,18.32 L79.24,15.5 Z M82.5,3.5 L82.5,12.5 L88.5,12.5 L88.5,3.5 Z M18.5,3.5 L18.5,12.5 L24.5,12.5 L24.5,3.5 Z M143,2 L159,2 L159,14 L143,14 Z M3,2 L15,2 L15,14 L3,14 Z M1,1 L2,1 L2,15 L16,15 L16,1 L142,1 L142,15 L160,15 L160,1 L160.85,1 L160.85,44.85 L157,44.85 L157,39.34 L159,36.84 L159,33.49 L156.74,30.67 L82.5,30.67 L82.5,36.49 L80.5,38.99 L80.5,42.34 L82.51,44.85 L79.5,44.85 L79.5,39.18 L81.5,36.68 L81.5,33.32 L79.24,30.5 L5,30.5 L5,37.25 L3,38.75 L3,42.18 L5.14,44.85 L1,44.85 Z M0,0 L0,45.85 L161.85,45.85 L161.85,0 Z M150.5,2.5 C147.47,2.5 145,4.97 145,8 C145,11.03 147.47,13.5 150.5,13.5 C153.53,13.5 156,11.03 156,8 C156,4.97 153.53,2.5 150.5,2.5 Z" fill="none" stroke="currentColor" stroke-width="1.5"/><path d="M150.5,3.5 C152.99,3.5 155,5.51 155,8 C155,10.49 152.99,12.5 150.5,12.5 C148.01,12.5 146,10.49 146,8 C146,5.51 148.01,3.5 150.5,3.5 Z" fill="none" stroke="currentColor" stroke-width="1.5"/><path d="M1,1 L1,44.85 L5.14,44.85 L3,42.18 L3,38.75 L5,37.25 L5,30.5 L79.24,30.5 L81.5,33.32 L81.5,36.68 L79.5,39.18 L79.5,44.85 L82.51,44.85 L80.5,42.34 L80.5,38.99 L82.5,36.49 L82.5,30.67 L156.74,30.67 L159,33.49 L159,36.84 L157,39.34 L157,44.85 L160.85,44.85 L160.85,1 L160,1 L160,15 L142,15 L142,1 L140,1 L140,15 L81,15 L81,1.5 L81,1 L76,1 L76,15 L17,15 L17,1.5 L17,1 L16,1 L16,15 L2,15 L2,1 Z M3,2 L3,14 L15,14 L15,2 Z M18,2 L18,14 L75,14 L75,2 Z M82,2 L82,14 L139,14 L139,2 Z M143,2 L143,14 L159,14 L159,2 Z M150.5,2.5 C153.53,2.5 156,4.97 156,8 C156,11.03 153.53,13.5 150.5,13.5 C147.47,13.5 145,11.03 145,8 C145,4.97 147.47,2.5 150.5,2.5 Z M30.5,3 L70.5,3 L70.5,12 L30.5,12 Z M94.5,3 L134.5,3 L134.5,12 L94.5,12 Z M18.5,3.5 L24.5,3.5 L24.5,12.5 L18.5,12.5 Z M82.5,3.5 L88.5,3.5 L88.5,12.5 L82.5,12.5 Z M5,15.5 L79.24,15.5 L81.5,18.32 L81.5,21.68 L79.5,24.18 L79.5,30 L5.5,30 L5.26,30 L3,27.18 L3,23.75 L5,22.25 Z M82.5,15.5 L156.74,15.5 L159,18.32 L159,21.68 L157,24.18 L157,30 L83,30 L82.76,30 L80.5,27.18 L80.5,23.82 L82.5,21.32 Z" fill="none" stroke="currentColor" stroke-width="1.5"/><rect x="0" y="0" width="0" height="0" fill="none" stroke="currentColor"/><path d="M94.5,3 L134.5,3 L134.5,12 L94.5,12 Z M30.5,3 L70.5,3 L70.5,12 L30.5,12 Z" fill="none" stroke="currentColor" stroke-width="1.5"/><path d="M83.5,31.67 L156.26,31.67 L158,33.84 L158,36.49 L156,38.99 L156,44.17 L83.24,44.17 L81.5,41.99 L81.5,39.34 L83.5,36.84 L83.5,36.67 Z M83.5,16.5 L156.26,16.5 L158,18.68 L158,21.32 L156,23.82 L156,29 L83.24,29 L81.5,26.82 L81.5,24.18 L83.5,21.68 L83.5,21.5 Z M6,16.5 L78.76,16.5 L80.5,18.68 L80.5,21.32 L78.5,23.82 L78.5,29 L5.74,29 L4,26.82 L4,24.25 L6,22.75 L6,22.5 Z M6,31.5 L78.76,31.5 L80.5,33.68 L80.5,36.32 L78.5,38.82 L78.5,44 L5.74,44 L4,41.82 L4,39.25 L6,37.75 L6,37.5 Z" fill="none" stroke="currentColor" stroke-width="1.5"/><path d="M118.5,35.5 L118.5,43.5 L124.5,43.5 L124.5,35.5 Z M125.5,34.5 L125.5,43.5 L131.5,43.5 L131.5,34.5 Z M118.5,20.5 L118.5,28.5 L124.5,28.5 L124.5,20.5 Z M125.5,19.5 L125.5,28.5 L131.5,28.5 L131.5,19.5 Z M41,35.5 L41,43.5 L47,43.5 L47,39 L47,35.5 Z M48,34.5 L48,43.5 L54,43.5 L54,34.5 Z M41,20.5 L41,28.5 L47,28.5 L47,20.5 Z M48,19.5 L48,28.5 L54,28.5 L54,19.5 Z" fill="none" stroke="currentColor" stroke-width="1.5"/><path d="M119.5,40 L123.5,40 L123.5,42.5 L119.5,42.5 Z M42,40 L46,40 L46,42.5 L42,42.5 Z M126.5,39 L130.5,39 L130.5,42.5 L126.5,42.5 Z M49,39 L53,39 L53,42.5 L49,42.5 Z M119.5,36.5 L123.5,36.5 L123.5,39 L119.5,39 Z M42,36.5 L46,36.5 L46,39 L42,39 Z M126.5,35.5 L130.5,35.5 L130.5,38 L126.5,38 Z M49,35.5 L53,35.5 L53,38 L49,38 Z M119.5,25 L123.5,25 L123.5,27.5 L119.5,27.5 Z M42,25 L46,25 L46,27.5 L42,27.5 Z M126.5,24 L130.5,24 L130.5,27.5 L126.5,27.5 Z M49,24 L53,24 L53,27.5 L49,27.5 Z M119.5,21.5 L123.5,21.5 L123.5,24 L119.5,24 Z M42,21.5 L46,21.5 L46,24 L42,24 Z M126.5,20.5 L130.5,20.5 L130.5,23 L126.5,23 Z M49,20.5 L53,20.5 L53,23 L49,23 Z M105.5,37 L110.5,37 L110.5,40.5 L105.5,40.5 Z M100,37 L105,37 L105,40.5 L100,40.5 Z M94.5,37 L99.5,37 L99.5,40.5 L94.5,40.5 Z M89,37 L94,37 L94,40.5 L89,40.5 Z M100,32.5 L105,32.5 L105,36 L100,36 Z M105.5,32.5 L110.5,32.5 L110.5,36 L105.5,36 Z M94.5,32.5 L99.5,32.5 L99.5,36 L94.5,36 Z M89,32.5 L94,32.5 L94,36 L89,36 Z M28,37 L33,37 L33,40.5 L28,40.5 Z M22.5,37 L27.5,37 L27.5,40.5 L22.5,40.5 Z M17,37 L22,37 L22,40.5 L17,40.5 Z M11.5,37 L16.5,37 L16.5,40.5 L11.5,40.5 Z M22.5,32.5 L27.5,32.5 L27.5,36 L22.5,36 Z M28,32.5 L33,32.5 L33,36 L28,36 Z M17,32.5 L22,32.5 L22,36 L17,36 Z M11.5,32.5 L16.5,32.5 L16.5,36 L11.5,36 Z M105.5,22 L110.5,22 L110.5,25.5 L105.5,25.5 Z M100,22 L105,22 L105,25.5 L100,25.5 Z M94.5,22 L99.5,22 L99.5,25.5 L94.5,25.5 Z M89,22 L94,22 L94,25.5 L89,25.5 Z M100,17.5 L105,17.5 L105,21 L100,21 Z M105.5,17.5 L110.5,17.5 L110.5,21 L105.5,21 Z M94.5,17.5 L99.5,17.5 L99.5,21 L94.5,21 Z M89,17.5 L94,17.5 L94,21 L89,21 Z M28,22 L33,22 L33,25.5 L28,25.5 Z M22.5,22 L27.5,22 L27.5,25.5 L22.5,25.5 Z M17,22 L22,22 L22,25.5 L17,25.5 Z M11.5,22 L16.5,22 L16.5,25.5 L11.5,25.5 Z M22.5,17.5 L27.5,17.5 L27.5,21 L22.5,21 Z M28,17.5 L33,17.5 L33,21 L28,21 Z M17,17.5 L22,17.5 L22,21 L17,21 Z M11.5,17.5 L16.5,17.5 L16.5,21 L11.5,21 Z" fill="none" stroke="currentColor" stroke-width="1.5"/><path d="M17,1 L17,1.5 L17,15 L76,15 L76,1 Z M81,1 L81,1.5 L81,15 L140,15 L140,1 Z M18,2 L75,2 L75,14 L18,14 Z M82,2 L139,2 L139,14 L82,14 Z" fill="none" stroke="currentColor" stroke-width="1.5"/></svg>