<svg xmlns="http://www.w3.org/2000/svg" viewBox="0 0 44.357 43.694" width="24" height="24"><path d="M12.859,15.814 L11,13.918 L11,20.694 L5.363,21.694 C4.512,21.694 3.81,21.514 3.213,21.144 C2.014,20.402 0,18.66 0,15.339 C0,12.521 1.503,10.357 4.065,9.411 L4.056,9.265 C4.054,5.977 6.251,2.628 9.164,1.416 C12.563,0 16.16,0.706 18.79,3.299 C21.598,5.072 22.899,4.896 24.112,5.301 C25.692,5.829 26.729,7.181 26.999,9.003 C28.509,9.005 30.129,9.301 30.84,10.409 L29.159,11.49 C28.997,11.24 28.035,10.896 26.133,11.036 C25.068,8.549 24.489,7.536 23.478,7.198 C22.571,6.895 21.567,7.213 20.983,7.99 C19.671,8.323 19.367,8.073 19.242,7.728 C18.809,6.522 18.184,5.511 17.385,4.723 C16.407,3.758 13.718,1.683 9.933,3.262 C7.795,4.152 6.054,6.818 6.054,9.205 L6.108,10.073 C4.101,11.418 2,12.388 2,15.339 C2,17.572 3.233,18.804 4.267,19.443 C4.539,19.612 4.897,19.694 5.364,19.694 L9,19.694 L9,13.937 L7.133,15.803 L5.719,14.389 L9.319,10.789 L10.031,10.496 C10.297,10.498 10.553,10.606 10.74,10.796 L14.287,14.414 Z M25,30.694 Z M25,16.689 C20.588,16.689 17,20.279 17,24.692 C29.411,32.694 33,29.105 33,24.692 C33,20.279 29.411,16.689 25,16.689 Z M41.496,41.189 C41.173,41.515 40.753,41.694 40.309,41.694 C39.893,41.694 39.505,41.533 39.214,41.239 L32.267,34.217 C33.167,33.527 33.965,32.714 34.639,31.8 L41.547,38.838 C42.171,39.473 42.147,40.527 41.496,41.189 Z M15.008,24.694 Z M42.975,37.437 L35.718,30.042 C36.524,28.43 36.99,26.617 36.99,24.694 C36.99,18.078 31.611,12.694 25,12.694 C18.389,12.694 13.008,18.078 13.008,24.694 C13.008,31.31 18.387,36.694 25,36.694 L37.792,42.644 C38.46,43.321 39.353,43.694 40.308,43.694 L40.309,43.694 C41.292,43.694 42.219,43.303 42.92,42.592 C44.333,41.158 44.357,38.846 42.975,37.437 Z" fill="none" stroke="currentColor" stroke-width="1.5"/></svg>