<svg xmlns="http://www.w3.org/2000/svg" viewBox="0 0 50.0 50.015" width="24" height="24"><path d="M24,3.518 L24,12.968 L26,12.968 L26,3.518 L30.66,8.168 L32.07,6.758 L25.71,0.388 L24.3,0.388 L17.94,6.758 L19.35,8.168 Z M26,46.518 L26,36.958 L24,36.958 L24,46.518 L19.34,41.858 L17.93,43.268 L24.29,49.628 L25.7,49.628 L32.06,43.268 L30.65,41.858 Z M6.27,17.948 L4.86,19.368 L9.5,23.958 L0,23.958 L0,25.958 L9.59,25.958 L4.86,30.678 L6.27,32.088 L12.64,25.728 Z M50,23.948 L40.55,23.948 L45.14,19.358 L43.72,17.938 L37.36,24.318 L43.72,32.088 L45.14,30.678 L40.41,25.958 L50,25.958 Z M25,34.318 L18.78,30.158 L17.78,18.028 L31.22,15.718 L32.22,20.948 L32.22,29.158 L28.34,30.158 Z M19.78,28.158 L23.34,28.158 L30.2,28.188 L30.2,25.948 L30.2,17.718 L20.09,17.718 Z" fill="none" stroke="currentColor" stroke-width="1.5"/></svg>