<svg xmlns="http://www.w3.org/2000/svg" viewBox="0 0 56.001 56.0" width="24" height="24"><path d="M14,43 L14,55 L1,56 L0,43 L4,42 L4,44 L2,44 L2,54 L12,54 L12,44 L10,44 L10,42 L13,42 Z M23.587,26.001 L15.998,26.001 L7.998,50 L5.998,50 L5.998,34.001 C5.998,28.487 10.484,24.001 15.998,24.001 L23.587,24.001 L20.294,20.708 L21.708,19.294 L26.708,24.294 L21.708,30.708 L20.294,29.294 Z M44,30.001 L44,20.001 L34,20.001 L34,30.001 L36,30.001 L36,32.001 L33,32.001 L32,19.001 L45,18.001 L46,31.001 L42,32.001 L42,30.001 Z M30.003,49.999 L22.413,49.999 L25.706,53.292 L24.292,54.706 L19.292,49.706 L24.292,43.292 L25.706,44.706 L22.413,47.999 L30.003,47.999 L38.003,24.001 L40.003,24.001 L40.003,39.999 C40.003,45.513 35.517,49.999 30.003,49.999 Z M47.001,3.414 L52.586,9 L47.001,9 Z M55.708,9.293 L46.708,0.293 C46.521,0.105 46.267,0 46.001,0 L15.001,0 L14.001,18 L16.001,18 L16.001,2 L45.001,2 L45.001,10 L54.001,11 L54.001,53.999 L33.056,53.999 L33.056,55.999 L55.001,55.999 L56.001,10 Z" fill="none" stroke="currentColor" stroke-width="1.5"/></svg>