<svg xmlns="http://www.w3.org/2000/svg" viewBox="0 0 55.999 56.06" width="24" height="24"><path d="M30.999,36.356 L26.741,34 L22.999,34 L22.999,32 L25.999,32 L25.999,28.544 L20.39,24.909 L16.999,26.616 L16.999,33.465 L22.554,37.168 L21.444,38.832 L15.444,34.832 L14.999,26.618 L12.03,25.134 L5.999,28.581 L5.999,32.382 L8.927,33.846 L10.999,32.465 L10.999,29 L12.999,29 L12.999,33 L9.999,35.535 L9.999,39 L6.554,41.832 L5.444,40.168 L7.999,38.465 L7.999,35.618 L5.059,34.148 L1.999,36.096 L1.999,42.563 L5.407,44.087 L5.999,49.485 L12.091,53.836 L14.999,52.382 L14.999,44.135 L10.64,47.768 L9.358,46.232 L14.999,41.531 L14.999,39.535 L12.444,37.832 L13.554,36.168 L16.554,38.168 L16.999,47 L21.999,47 L21.999,49 L16.999,49 L16.999,52.323 L20.862,53.869 L26.999,49.485 L26.999,45.481 L22.374,41.781 L23.624,40.219 L28.172,43.858 L30.999,42.747 Z M32.999,35.766 L32.999,43.429 L28.999,45.682 L28.999,50 L21.58,55.814 C20.874,56 20.747,55.977 20.628,55.929 L16.045,54.095 L12.446,55.895 C12.113,56.06 11.719,56.027 11.418,55.814 L4.418,50.814 L3.999,45.648 L0.592,44.123 L0,35.547 L3.999,32.451 L3.999,28 L11.503,23.132 L15.997,24.881 L20.002,22.865 C20.321,22.705 20.698,22.726 20.996,22.918 L27.543,27.161 L27.999,32.41 L32.483,34.891 Z M19.999,20 L21.999,20 L21.999,6 L19.999,6 Z M26.999,23 L28.999,23 L28.999,10 L26.999,10 Z M33.999,28 L35.999,28 L35.999,6 L33.999,6 Z M47.999,18 L49.999,18 L49.999,10 L47.999,10 Z M12.999,19 L14.999,19 L14.999,12 L12.999,12 Z M40.999,22 L42.999,22 L42.999,12 L40.999,12 Z M40.999,46 L39.999,37 L34.999,37 L34.999,35 L40.999,35 L41.999,42.37 L48.252,35.335 L51.999,35 C53.298,35 53.999,33.417 53.999,31.927 L53.999,4.637 C53.999,3.183 52.893,2 51.533,2 L10.696,2 C10.276,2 8.999,2 8.999,4.637 L8.999,22.857 L6.999,22.857 L6.999,4.637 C6.999,1.733 8.381,0 10.696,0 L51.533,0 C53.996,0 55.999,2.08 55.999,4.637 L55.999,31.927 C55.999,34.386 54.597,37 51.999,37 L49.448,37 L41.746,45.665 Z" fill="none" stroke="currentColor" stroke-width="1.5"/></svg>