<svg xmlns="http://www.w3.org/2000/svg" viewBox="0 0 56.032 55.599" width="24" height="24"><path d="M28.812,30.215 L30.701,30.87 L26.528,42.899 L24.639,42.244 Z M22.997,33.358 L19.925,36.456 L22.936,39.548 L21.502,40.944 L17.807,37.148 L21.577,31.95 Z M37.856,35.746 L34.166,40.944 L32.733,39.548 L35.744,36.456 L32.673,33.358 L34.093,31.95 Z M45.032,39.815 L41.584,41.538 L41.032,48.391 L32.914,53.387 L29.032,51.17 L29.032,46 L27.032,46 L27.032,51.17 L23.15,53.387 L15.032,48.391 L15.032,42.432 L11.032,39.814 L11.031,35.92 L11.032,31.55 L14.638,28.802 L15.032,22.451 L22.466,18.115 L27.032,20.664 L27.032,27 L29.032,27 L29.032,20.664 L33.597,18.115 L41.032,22.451 L41.032,28.007 L45.032,31.549 L45.033,35.92 Z M46.638,30.259 L43.032,27.511 L43.032,21.877 C43.032,21.522 42.843,21.193 42.536,21.013 L34.112,16.1 L28.032,18.932 L22.943,16.09 L13.528,21.013 L13.032,27.512 L9.425,30.259 L9.031,35.92 L9.032,40.432 L13.032,43.05 L13.032,48.95 L22.607,55.402 C22.918,55.592 23.308,55.599 23.627,55.418 L28.032,52.902 L32.436,55.418 C33.114,55.55 33.295,55.5 33.457,55.402 L42.556,49.801 L43.032,43.051 L46.479,41.327 L47.033,35.92 L47.032,31.054 Z M18.032,5.5 Z M13.032,5.5 Z M8.032,5.5 Z M2.032,9 L2.037,2.093 C2.037,2.049 2.089,2 2.163,2 L53.906,2 C53.98,2 54.032,2.049 54.032,2.093 L54.032,9 Z M53.906,0 L2.158,0 C0.988,0 0.034,0.938 0.032,2.091 L0.001,38.904 C0,40.052 0.948,40.992 2.121,41 L6.032,40.998 L6.032,39 L2.156,39.001 C2.083,39.001 2.032,38.952 2.032,38.908 L2.055,11 L54.032,11 L54.032,38.897 C54.032,38.952 53.974,38.999 53.906,38.999 L50.032,39 L50.032,41 L53.906,40.999 C55.078,40.999 56.032,40.056 56.032,38.897 L56.032,2.093 C56.032,0.939 55.078,0 53.906,0 Z" fill="none" stroke="currentColor" stroke-width="1.5"/></svg>