<svg xmlns="http://www.w3.org/2000/svg" viewBox="0 0 40.0 44.0" width="24" height="24"><path d="M32,28 Z M24,28 Z M16,28 Z M24,15 Z M29,27 C29,28.654 30.346,30 32,30 C33.654,30 35,28.654 35,27 C35,25.698 34.161,24.598 33,24.184 L33,21 L25,20 L25,18.816 C26.161,18.402 27,17.302 27,16 C27,14.346 25.654,13 24,13 C22.346,13 21,14.346 21,16 C21,17.302 21.839,18.402 23,18.816 L23,20 L16,20 L15,24.184 C13.839,24.598 13,25.698 13,27 C13,28.654 14.346,30 16,30 C17.654,30 19,28.654 19,27 C19,25.698 18.161,24.598 17,24.184 L17,22 L23,22 L23,24.184 C21.839,24.598 21,25.698 21,27 C21,28.654 22.346,30 24,30 C25.654,30 27,28.654 27,27 C27,25.698 26.161,24.598 25,24.184 L25,22 L31,22 L31,24.184 C29.839,24.598 29,25.698 29,27 Z M1,0 L5,0 L5,2 L2,2 L2,42 L5,42 L5,44 L1,44 L0,1 Z M12,40 L36,40 L36,38 L12,38 Z M12,36 L36,36 L36,34 L12,34 Z M12,10 L36,10 L36,8 L12,8 Z M12,6 L36,6 L36,4 L12,4 Z M9,42 L9,2 L38,2 L38,42 Z M39,0 L8,0 L7,43 L39,44 L40,1 Z" fill="none" stroke="currentColor" stroke-width="1.5"/></svg>