<svg xmlns="http://www.w3.org/2000/svg" viewBox="0 0 34.001 44.0" width="24" height="24"><path d="M33.708,15.292 L30.834,12.418 L29.42,13.832 L32.001,16.413 L32.001,42 L8.001,42 L8.001,40 L6.001,40 L6.001,43 L33.001,44 L34.001,15.999 Z M26,36 L26,10.999 L18.001,10.999 L17.001,2 L2,2 L2,36 Z M19.001,8.999 L24.586,8.999 L19.001,3.414 Z M27,38 L1,38 L0,1 L18.001,0 C18.267,0 18.52,0.105 18.708,0.293 L27.707,9.292 L28,37 Z M6.001,16 L16,16 L16,14 L6.001,14 Z M6.001,28 L16,28 L16,26 L6.001,26 Z M6.001,21.999 L20,21.999 L20,19.999 L6.001,19.999 Z" fill="none" stroke="currentColor" stroke-width="1.5"/></svg>