<svg xmlns="http://www.w3.org/2000/svg" viewBox="0 0 40.514 44.0" width="24" height="24"><path d="M7.414,33.707 L4.414,36.707 C4.219,36.902 3.963,37 3.707,37 C3.451,37 3.195,36.902 3,36.707 L0,33.707 L1.414,32.293 L2.707,33.586 L2.707,24.414 L1.414,25.707 L0,24.293 L3,21.293 L7.414,24.293 L6,25.707 L4.707,24.414 L4.707,33.586 L6,32.293 Z M18.302,2 C26.791,2 32.707,4.442 32.707,6.635 C32.707,8.828 26.791,11.27 18.302,11.27 C9.904,11.27 4.707,8.864 4.707,6.635 C4.707,4.406 9.904,2 18.302,2 Z M4.707,18.143 L4.707,10.126 C7.259,12.085 12.096,13.27 18.302,13.27 C24.018,13.27 29.771,12.145 32.707,9.974 L32.707,15.5 L34.707,15.5 L34.707,6.635 C34.707,2.279 26.454,0 18.302,0 C8.974,0 2.707,2.666 2.707,6.635 L2.707,18.143 Z M18.302,38 C21.439,38 24.221,37.665 26.487,37.134 L26.096,39.033 C26.08,39.11 26.079,39.187 26.069,39.264 C23.664,39.749 20.981,40 18.302,40 C14.125,40 10.441,39.448 7.648,38.404 C7.477,38.34 7.326,38.268 7.163,38.2 L8.71,36.653 C11.216,37.52 14.595,38 18.302,38 Z M29.953,38.265 L32.024,28.202 L27.575,27 L31.575,19 L37.19,19 L33.3,25.485 L37.573,27 Z M40.34,25.531 L35.924,25 L39.814,18.515 L30.957,17 L25.062,27.553 L29.818,29 L26.977,42.798 C27.694,43.975 27.826,44 27.957,44 L40.285,26.561 Z" fill="none" stroke="currentColor" stroke-width="1.5"/></svg>