<svg xmlns="http://www.w3.org/2000/svg" viewBox="0 0 44.073 44.0" width="24" height="24"><path d="M0,2 L44,2 L44,0 L0,0 Z M0,44 L44,44 L44,42 L0,42 Z M28.887,31.616 L36.611,33.696 L41.813,14.384 L34.088,12.304 Z M37.317,35.922 L27.401,33.287 L32.417,10.818 C32.486,10.562 32.654,10.344 32.884,10.211 C33.114,10.078 33.387,10.043 33.643,10.112 L43.298,12.713 L38.283,35.182 C38.214,35.438 38.046,35.656 37.816,35.789 Z M15,32 L23,32 L23,12 L15,12 Z M24,34 L14,34 L13,11 L24,10 L25,33 Z M2,32 L10,32 L10,12 L2,12 Z M11,34 L1,34 L0,11 L11,10 L12,33 Z" fill="none" stroke="currentColor" stroke-width="1.5"/></svg>