<svg xmlns="http://www.w3.org/2000/svg" viewBox="0 0 44.0 40.0" width="24" height="24"><path d="M42,33.5 Z M40.5,12.001 Z M8,38 L8,8 L30,8 L30,38 Z M6,7 L6,32 L2,32 L2,2 L24,2 L24,6 L7,6 Z M40.5,22.001 Z M40.5,27.001 C42.43,27.001 44,25.431 44,23.501 C44,21.571 42.43,20.001 40.5,20.001 C39.109,20.001 37.915,20.823 37.351,22.001 L34.204,22.001 L38.923,16.608 C39.399,16.851 39.93,17.001 40.5,17.001 C42.43,17.001 44,15.431 44,13.501 C44,11.571 42.43,10.001 40.5,10.001 C38.57,10.001 37,11.571 37,13.501 C37,14.131 37.181,14.715 37.474,15.226 L32,21.482 L32,7 L26,6 L26,1 L1,0 L0,33 L6,34 L6,39 L31,40 L32,24.628 L37.508,31.711 C37.193,32.236 37,32.844 37,33.5 C37,35.43 38.57,37 40.5,37 C42.43,37 44,35.43 44,33.5 C44,31.57 42.43,30 40.5,30 C39.957,30 39.448,30.135 38.989,30.357 L34.045,24.001 L37.051,24.001 C37.296,25.693 38.742,27.001 40.5,27.001 Z M18,33 L28,33 L28,31 L18,31 Z M18,24 L28,24 L28,22 L18,22 Z M18,15 L28,15 L28,13 L18,13 Z M12,33 L12,31 L14,31 L14,33 Z M11,35 L15,35 L16,30 L11,29 L10,34 Z M12,24 L12,22 L14,22 L14,24 Z M11,26 L15,26 L16,21 L11,20 L10,25 Z M12,15 L12,13 L14,13 L14,15 Z M11,17 L15,17 L16,12 L11,11 L10,16 Z" fill="none" stroke="currentColor" stroke-width="1.5"/></svg>