<svg xmlns="http://www.w3.org/2000/svg" viewBox="0 0 44.0 40.662" width="24" height="24"><path d="M21.894,10.658 C16.37,10.658 10.455,12.023 10.04,15 L10,15 L10,35.99 C10,39.057 16.038,40.662 22.002,40.662 C27.964,40.662 34,39.057 34,35.99 L34,15 L33.959,15 C33.532,12.151 27.687,10.658 21.894,10.658 Z M21.894,12.658 C28.562,12.658 32,14.532 32,15.331 C32,16.13 28.562,18.004 21.894,18.004 C15.492,18.004 12,16.238 12,15.331 C12,14.424 15.492,12.658 21.894,12.658 Z M29.264,26.016 C30.373,25.712 31.279,25.36 32,24.967 L32,29.365 C32,29.54 31.446,30.347 28.736,31.087 L29.264,33.017 C30.373,32.714 31.279,32.362 32,31.968 L32,35.99 C32,36.932 28.204,38.662 22.002,38.662 C15.798,38.662 12,36.932 12,35.99 L12,31.976 C12.721,32.371 13.627,32.723 14.736,33.026 L15.264,31.096 C12.554,30.356 12,29.542 12,29.365 L12,24.975 C12.721,25.369 13.627,25.721 14.736,26.024 L15.264,24.095 C12.554,23.355 12,22.541 12,22.363 L12,18.071 C14.281,19.383 18.174,20.004 21.894,20.004 C25.796,20.004 29.718,19.325 32,18.013 L32,22.363 C32,22.539 31.446,23.346 28.736,24.086 Z M19.333,10 L19.333,6 L16.333,6 L16.333,10 L14.333,10 L14.333,5 C14.333,4.448 14.78,4 15.333,4 L20.333,4 C20.886,4 21.333,4.448 21.333,5 L21.333,10 Z M27.667,10 L27.667,6 L24.667,6 L24.667,10 L22.667,10 L22.667,5 C22.667,4.448 23.114,4 23.667,4 L28.667,4 C29.22,4 29.667,4.448 29.667,5 L29.667,10 Z M36,17 L36,6 L33,6 L33,11 L31,11 L31,5 C31,4.448 31.447,4 32,4 L37,4 C37.553,4 38,4.448 38,5 L38,18 C38,18.552 37.553,19 37,19 L35,19 L35,17 Z M8,17 L9,17 L9,19 L7,19 C6.447,19 6,18.552 6,18 L6,5 C6,4.448 6.447,4 7,4 L12,4 C12.553,4 13,4.448 13,5 L13,11 L11,11 L11,6 L8,6 Z M41.5,7.5 C41.5,8.327 42.173,9 43,9 C43.553,9 44,9.448 44,10 L44,26 C44,26.552 43.553,27 43,27 L35,27 L35,25 L39,25 L39,23 L35,23 L35,21 L40,21 C40.553,21 41,21.448 41,22 L41,25 L42,25 L42,10.854 C40.556,10.423 39.5,9.082 39.5,7.5 C39.5,5.917 40.556,4.577 42,4.146 L42,2 L2,2 L2,4.146 C3.444,4.577 4.5,5.917 4.5,7.5 C4.5,9.082 3.444,10.423 2,10.854 L2,25 L3,25 L3,22 C3,21.448 3.447,21 4,21 L9,21 L9,23 L5,23 L5,25 L9,25 L9,27 L1,27 C0.447,27 0,26.552 0,26 L0,10 C0,9.448 0.447,9 1,9 C1.827,9 2.5,8.327 2.5,7.5 C2.5,6.673 1.827,6 1,6 C0.447,6 0,5.552 0,5 L0,1 C0,0.448 0.447,0 1,0 L43,0 C43.553,0 44,0.448 44,1 L44,5 C44,5.552 43.553,6 43,6 C42.173,6 41.5,6.673 41.5,7.5 Z M27.5,23.198 L27.5,23.595 L23.324,34.603 C23.324,34.901 23.018,35 22.815,35 L21.185,35 C20.88,35 20.778,34.901 20.676,34.603 L16.5,23.595 L16.5,23.198 C16.5,23 16.602,23 16.806,23 L18.333,23 C18.537,23 18.741,23.099 18.843,23.298 L22,32.818 L25.157,23.298 C25.157,23.099 25.361,23 25.667,23 L27.194,23 C27.398,23 27.5,23 27.5,23.198 Z" fill="none" stroke="currentColor" stroke-width="1.5"/></svg>