<svg xmlns="http://www.w3.org/2000/svg" viewBox="0 0 44.0 43.0" width="24" height="24"><path d="M8.104,10 L9.433,10 C10.842,10.829 10.975,11.259 10.921,11.686 L10.473,15.273 L15.036,9 L13,9 C11.98,8.27 11.948,7.915 12.081,7.606 L14.483,2 L8.905,2 Z M6.44,11.506 L6.959,1.351 C7.036,0.581 7.677,0 8.452,0 L15.242,0 C15.748,0 16.215,0.252 16.494,0.675 C16.773,1.098 16.819,1.627 16.62,2.091 L14.516,7 L15.036,7 L9.808,19.588 L8.867,12 L7.552,12 Z M17.618,28 L21.381,28 L19.5,24.236 Z M15.105,28.553 L18.605,21.553 C18.945,20.875 20.054,20.875 20.394,21.553 L23.894,28.553 L16,30 C15.653,30 15.332,29.82 15.149,29.526 Z M31,32 C32.102,32 33,31.103 33,30 C33,28.897 32.102,28 31,28 C29.898,28 29,28.897 29,30 C29,31.103 29.897,32 31,32 M31,34 C28.793,34 27,32.206 27,30 C27,27.794 28.793,26 31,26 C33.207,26 35,27.794 35,30 C35,32.206 33.206,34 31,34 Z M6,32 L10,32 L10,28 L6,28 Z M4,27 L11,26 L12,33 L5,34 Z M43,16 L41,16 L41,18 L42,18 L42,41 L7,41 L7,40 L5,40 L5,42 L43,43 L44,17 Z M38,38 L1,38 L0,14 C0,12.346 1.345,11 3,11 L4,11 L4,13 L3,13 L2,36 L37,36 L37,14 L32,13 L30.219,9 L23.781,9 L22.969,12.243 L19,13 L19,11 L21.218,11 L21.84,8.515 C22.063,7.623 22.861,7 23.781,7 L30.218,7 C31.138,7 31.936,7.623 32.159,8.515 L32.781,11 L36,11 C37.654,11 39,12.346 39,14 L39,37 Z" fill="none" stroke="currentColor" stroke-width="1.5"/></svg>