<svg xmlns="http://www.w3.org/2000/svg" viewBox="0 0 56.0 56.0" width="24" height="24"><path d="M18,30 L18,12.439 L14.704,15.71 L13.296,14.29 L18.335,9.29 C18.522,9.104 18.775,9 19.039,9 L19.043,9 C19.309,9.001 19.563,9.107 19.749,9.296 L24.71,14.296 L23.29,15.704 L20,12.388 L20,30 Z M34,22 L34,16.388 L37.29,19.704 L38.71,18.296 L33.749,13.296 C33.562,13.107 33.309,13.001 33.043,13 L33.039,13 C32.775,13 32.522,13.104 32.335,13.29 L27.296,18.29 L28.704,19.71 L32,16.439 L32,22 Z M31,32 L15,32 C14.447,32 14,32.448 14,33 L14,49 C14,49.552 14.447,50 15,50 L22,50 L22,48 L16,48 L16,34 L30,34 L30,48 L28,48 L28,50 L31,50 C31.553,50 32,49.552 32,49 L32,33 C32,32.448 31.553,32 31,32 Z M41,24 L25,24 C24.447,24 24,24.448 24,25 L24,30 L26,30 L26,26 L40,26 L40,40 L34,40 L34,42 L41,42 C41.553,42 42,41.552 42,41 L42,25 C42,24.448 41.553,24 41,24 Z M18,56 L20,56 L20,52 L18,52 Z M30,56 L32,56 L32,52 L30,52 Z M24,54 L26,54 L26,44 L24,44 Z M36,54 L38,54 L38,44 L36,44 Z M46.898,16.176 C46.966,15.787 47,15.394 47,15 C47,11.14 43.859,8 40,8 C39.022,8 38.064,8.204 37.178,8.596 C34.432,3.34 28.98,0 23,0 C14.178,0 7,7.178 7,16 C7,16.243 7.006,16.49 7.019,16.744 C2.789,18.376 0,22.402 0,27 C0,33.065 4.935,38 11,38 L12,38 L12,36 L11,36 C6.037,36 2,31.962 2,27 C2,23.017 4.558,19.558 8.364,18.394 C8.818,18.255 9.112,17.816 9.067,17.343 C9.022,16.862 9,16.423 9,16 C9,8.28 15.28,2 23,2 C28.548,2 33.578,5.288 35.815,10.376 C35.934,10.644 36.163,10.848 36.445,10.932 C36.726,11.015 37.029,10.971 37.276,10.811 C38.091,10.28 39.032,10 40,10 C42.757,10 45,12.243 45,15 C45,15.57 44.898,16.14 44.699,16.693 C44.592,16.989 44.631,17.317 44.804,17.581 C44.976,17.844 45.263,18.01 45.576,18.03 C50.3,18.33 54,22.27 54,27 C54,31.962 49.963,36 45,36 L44,36 L44,38 L45,38 C51.065,38 56,33.065 56,27 C56,21.623 52.09,17.081 46.898,16.176 Z" fill="none" stroke="currentColor" stroke-width="1.5"/></svg>