<svg xmlns="http://www.w3.org/2000/svg" viewBox="0 0 56.0 53.79" width="24" height="24"><path d="M51.9,7 L9.11,7 C6.85,7 5.01,8.84 5.01,11.1 L5.01,40.91 C5.01,43.16 6.84,45 9.09,45 L30.01,45 L30.01,52.79 C30.01,53.17 30.23,53.52 30.58,53.69 C30.72,53.76 30.87,53.79 31.01,53.79 C31.23,53.79 31.45,53.72 31.63,53.57 L42.43,44.99 L51.9,44.99 C54.16,44.99 56,43.15 56,40.89 L56,11.1 C56,8.84 54.16,7 51.9,7 Z M54,40.9 C54,42.06 53.06,43 51.9,43 L42.08,43 C41.85,43 41.63,43.08 41.46,43.22 L32.01,50.73 L32.01,44.01 C32.01,43.46 31.56,43.01 31.01,43.01 L9.09,43.01 C7.94,43.01 7.01,42.07 7.01,40.92 L7.01,11.11 C7.01,9.95 7.95,9.01 9.11,9.01 L51.9,9.01 C53.06,9.01 54,9.95 54,11.11 Z M2,4.1 L2,36 C2,36.55 2.45,37 3,37 L3,39 C1.35,39 0,37.65 0,36 L0,4.1 C0,1.84 1.84,0 4.1,0 L41.89,0 C44.15,0 45.99,1.84 45.99,4.1 L45.99,5 L43.99,5 L43.99,4.1 C43.99,2.94 43.05,2 41.89,2 L4.1,2 C2.94,2 2,2.94 2,4.1 Z M36.34,28.12 C35.3,27.45 34.15,27 32.97,26.74 C35.53,25.83 37.38,23.39 37.38,20.52 C37.38,16.88 34.42,13.92 30.78,13.92 C27.14,13.92 24.18,16.88 24.18,20.52 C24.18,23.38 26.01,25.81 28.55,26.73 C23.66,27.83 19.98,32.47 19.98,38 C19.98,38.55 20.43,39 20.98,39 L40.59,39 C41.14,39 41.59,38.55 41.59,38 C41.59,33.98 39.58,30.19 36.35,28.12 Z M26.18,20.52 C26.18,17.98 28.25,15.92 30.78,15.92 C33.31,15.92 35.38,17.98 35.38,20.52 C35.38,23.06 33.32,25.12 30.78,25.12 C28.24,25.12 26.18,23.06 26.18,20.52 Z M22.02,37 C22.48,32.22 26.23,28.48 30.78,28.48 C32.36,28.48 33.91,28.94 35.26,29.81 C37.66,31.35 39.24,34.05 39.53,37.01 L22.02,37.01 Z" fill="none" stroke="currentColor" stroke-width="1.5"/></svg>