<svg xmlns="http://www.w3.org/2000/svg" viewBox="0 0 48.849 48.42" width="24" height="24"><path d="M13,48.42 L1,48.42 L0,1 L13,0 L14,47.42 Z M2,46.42 L12,46.42 L12,2 L2,2 Z M41.9,35.26 L30.11,35.26 L23.35,24.54 L29.24,13.33 L41.9,12.83 L48.67,23.54 L42.77,34.76 Z M30.69,33.26 L41.33,33.26 L46.65,24.04 L41.33,14.83 L30.69,14.83 L25.41,24.04 Z M31.2,47.42 L31.2,39.06 L29.2,39.06 L29.2,46.42 L19.2,46.42 L19.2,2 L29.2,2 L29.2,9.91 L31.2,9.91 L31.2,1 L18.2,0 L17.2,47.42 L30.2,48.42 Z" fill="none" stroke="currentColor" stroke-width="1.5"/></svg>