<svg xmlns="http://www.w3.org/2000/svg" viewBox="0 0 56.0 56.0" width="24" height="24"><path d="M48,31 C46.599,31 45.282,31.364 44.136,32 L32.864,32 C31.718,31.364 30.401,31 29,31 C24.589,31 21,34.589 21,39 L21,50 C21,55.416 24.497,56 26,56 C30.196,56 33.247,49.272 35.266,44.82 C35.396,44.534 35.52,44.259 35.639,44 L41.361,44 C41.48,44.259 41.604,44.534 41.734,44.82 C43.753,49.272 46.804,56 51,56 C52.503,56 56,55.416 56,50 L56,39 C56,34.589 52.411,31 48,31 Z M40.589,42 L36.411,42 C36.788,41.073 37,40.061 37,39 C37,37.108 36.337,35.371 35.235,34 L41.765,34 C40.663,35.371 40,37.108 40,39 C40,40.061 40.212,41.073 40.589,42 Z M29,33 C32.309,33 35,35.691 35,39 C35,42.309 32.309,45 29,45 C25.691,45 23,42.309 23,39 C23,35.691 25.691,33 29,33 Z M26,54 C24.712,54 23,53.585 23,50 L23,44.274 C24.467,45.941 26.61,47 29,47 C30.222,47 31.377,46.716 32.414,46.224 C30.75,49.71 28.36,54 26,54 Z M54,50 C54,53.585 52.288,54 51,54 C48.64,54 46.25,49.71 44.586,46.224 C45.623,46.716 46.778,47 48,47 C50.39,47 52.533,45.941 54,44.274 Z M48,45 C44.691,45 42,42.309 42,39 C42,35.691 44.691,33 48,33 C51.309,33 54,35.691 54,39 C54,42.309 51.309,45 48,45 Z M28,40 L26,40 L26,38 L28,38 L28,36 L30,36 L30,38 L32,38 L32,40 L30,40 L30,42 L28,42 Z M48,37.5 C48,38.328 47.328,39 46.5,39 C45.672,39 45,38.328 45,37.5 C45,36.672 45.672,36 46.5,36 C47.328,36 48,36.672 48,37.5 Z M51,40.5 C51,41.328 50.328,42 49.5,42 C48.672,42 48,41.328 48,40.5 C48,39.672 48.672,39 49.5,39 C50.328,39 51,39.672 51,40.5 Z M22.5,29 C30.495,29 37,22.495 37,14.5 C37,6.505 30.495,0 22.5,0 C14.505,0 8,6.505 8,14.5 C8,22.495 14.505,29 22.5,29 Z M22.5,2 C29.393,2 35,7.607 35,14.5 C35,21.393 29.393,27 22.5,27 C15.607,27 10,21.393 10,14.5 C10,7.607 15.607,2 22.5,2 Z M45,16.5 C45,15.113 44.48,13.848 43.63,12.88 L45.132,11.563 C46.291,12.884 47,14.609 47,16.5 C47,16.755 46.985,17.013 46.958,17.272 C52.181,18.408 56,23.062 56,28.5 C56,29.813 55.768,31.071 55.361,32.247 C54.864,31.706 54.312,31.217 53.708,30.795 C53.892,30.059 54,29.293 54,28.5 C54,23.716 50.421,19.666 45.675,19.081 C45.39,19.046 45.134,18.89 44.972,18.654 C44.81,18.418 44.757,18.122 44.827,17.845 C44.941,17.388 45,16.936 45,16.5 Z M16,38 L19.05,38 C19.018,38.329 19,38.662 19,39 L19,40 L16,40 Z M11.5,38 L14,38 L14,40 L11.5,40 C5.159,40 0,34.841 0,28.5 C0,24.038 2.578,20.08 6.43,18.186 C6.583,18.854 6.782,19.504 7.014,20.138 C3.998,21.757 2,24.931 2,28.5 C2,33.738 6.262,38 11.5,38 Z M38.636,11.07 C38.496,10.411 38.306,9.772 38.09,9.144 C38.552,9.056 39.022,9 39.5,9 C40.535,9 41.522,9.211 42.419,9.592 L41.64,11.433 C40.982,11.154 40.258,11 39.5,11 C39.208,11 38.92,11.024 38.636,11.07 Z M17.475,21.351 C17.635,21.45 17.817,21.5 18,21.5 C18.153,21.5 18.306,21.465 18.447,21.394 L30.447,15.394 C30.786,15.225 31,14.879 31,14.5 C31,14.121 30.786,13.775 30.447,13.606 L18.447,7.605 C18.137,7.452 17.77,7.467 17.475,7.649 C17.18,7.832 17,8.153 17,8.5 L17,20.5 C17,20.847 17.18,21.168 17.475,21.351 Z M19,10.118 L27.764,14.5 L19,18.882 Z" fill="none" stroke="currentColor" stroke-width="1.5"/></svg>