<svg xmlns="http://www.w3.org/2000/svg" viewBox="0 0 56.056 56.013" width="24" height="24"><path d="M48,40.513 Z M45,37.513 Z M28,40.013 L26,40.013 L26,38.013 L28,38.013 L28,36.013 L30,36.013 L30,38.013 L32,38.013 L32,40.013 L30,40.013 L30,42.013 L28,42.013 Z M54,50.013 C54,53.598 52.288,54.013 51,54.013 C48.64,54.013 46.25,49.723 44.586,46.237 C50.39,47.013 52.532,45.954 54,44.287 Z M26,54.013 C24.7,54.013 23.879,53.527 23.415,52.483 C23.001,51.552 23.001,50.474 23.001,50.013 L23,44.287 C24.468,45.954 26.61,47.013 29,47.013 C30.75,49.723 28.36,54.013 26,54.013 Z M29,33.013 Z M40.589,42.013 L36.411,42.013 C37,37.121 36.337,35.384 35.235,34.013 L41.765,34.013 C40.663,35.384 40,37.121 40,39.013 Z M54,39.013 L53.999,39.013 L53.999,39.032 Z M48,31.013 L32.864,32.013 L21.001,50.013 C21.001,50.55 21.001,51.976 21.587,53.295 C22.138,54.535 23.352,56.013 26,56.013 C30.196,56.013 33.247,49.285 35.266,44.833 L35.639,44.013 L41.361,44.013 L41.734,44.833 C43.753,49.285 46.804,56.013 51,56.013 C52.503,56.013 56,55.428 56,50.013 L55.999,39.032 C56,34.602 52.411,31.013 48,31.013 Z M31.59,4.487 C31.058,7.843 30.337,7.122 29.486,6.59 C30.337,6.058 31.058,5.337 31.59,4.487 Z M26,7.59 C28.531,7.59 30.59,9.649 30.59,12.18 C32.59,9.649 34.648,7.59 37.18,7.59 C34.648,5.59 32.59,3.531 32.59,1 C30.59,3.531 28.531,5.59 26,5.59 Z M13.75,32.182 C12.306,28.354 9.415,25.261 5.859,23.753 C9.415,22.244 12.306,19.152 13.75,15.323 C15.194,19.152 18.085,22.244 21.641,23.753 C18.085,25.261 15.194,28.354 13.75,32.182 Z M27.5,23.753 C20.131,22.753 14.75,16.841 14.75,9.843 C12.75,16.841 7.369,22.753 1,22.753 C7.369,24.753 12.75,30.664 12.75,37.662 C14.75,30.664 20.131,24.753 26.5,24.753 Z M47.777,14.403 Z M40.5,18.739 C43.961,18.739 46.777,21.555 46.777,25.017 C46.777,13.923 43.961,16.739 40.5,16.739 Z" fill="none" stroke="currentColor" stroke-width="1.5"/></svg>