<svg xmlns="http://www.w3.org/2000/svg" viewBox="0 0 35.0 35.0" width="24" height="24"><path d="M0,0 L35,0 L35,35 L0,35 Z M13.85,5 L13.35,13.25 L9.689,13.25 L9.189,29.5 L25.311,30 L25.811,13.75 L21.65,13.25 L21.65,5.5 Z M14.35,6 L20.65,6 L20.65,13.75 L24.811,14.25 L24.811,29 L10.189,29 L10.189,14.25 L13.85,14.25 Z M17.07,8.311 L17.07,10.91 L18.07,10.91 L18.07,8.311 Z M17.07,12.48 L17.07,15.08 L18.07,15.08 L18.07,12.48 Z M12.381,16.311 L12.381,18.91 L13.381,18.91 L13.381,16.311 Z M17.07,16.311 L17.07,18.91 L18.07,18.91 L18.07,16.311 Z M21.76,16.311 L21.76,18.91 L22.76,18.91 L22.76,16.311 Z M12.381,20.48 L12.381,23.08 L13.381,23.08 L13.381,20.48 Z M17.07,20.48 L17.07,23.08 L18.07,23.08 L18.07,20.48 Z M21.76,20.48 L21.76,23.08 L22.76,23.08 L22.76,20.48 Z M12.381,24.65 L12.381,27.25 L13.381,27.25 L13.381,24.65 Z M17.07,24.65 L17.07,27.25 L18.07,27.25 L18.07,24.65 Z M21.76,24.65 L21.76,27.25 L22.76,27.25 L22.76,24.65 Z" fill="none" stroke="currentColor" stroke-width="1.5"/></svg>