<svg xmlns="http://www.w3.org/2000/svg" viewBox="0 0 44.0 34.0" width="24" height="24"><path d="M11,31 L29,31 L29,29 L11,29 Z M0,18 L19,18 L19,16 L0,16 Z M0,7 L13,7 L13,5 L0,5 Z M5,22 L15,22 L15,20 L5,20 Z M39,19 L39,16 L42,16 L42,19 Z M43,14 L38,14 L37,20 L43,21 L44,15 Z M18,8 L18,2 L24,2 L24,8 Z M17,10 L25,10 L26,1 L17,0 L16,9 Z M33,32 L33,28 L37,28 L37,32 Z M38,26 L32,26 L31,33 L38,34 L39,27 Z M34,9 L34,6 L37,6 L37,9 Z M33,11 L38,11 L39,5 L33,4 L32,10 Z M24,22 L24,15 L31,15 L31,22 Z M22,14 L22,23 L32,24 L33,14 L23,13 Z" fill="none" stroke="currentColor" stroke-width="1.5"/></svg>