<svg xmlns="http://www.w3.org/2000/svg" viewBox="0 0 44.0 44.0" width="24" height="24"><path d="M20,6 L20,2 L24,2 L24,6 Z M19,8 L25,8 L26,1 L19,0 L18,7 Z M12,23 L12,19 L16,19 L16,23 Z M28,23 L28,19 L32,19 L32,23 Z M5,30 L21,30 L21,34 L23,34 L23,30 L39,30 L39,34 L41,34 L41,29 L31,28 L31,25 L33,25 L34,18 L27,17 L26,24 L29,25 L29,28 L15,28 L15,25 L17,25 L18,18 L11,17 L10,24 L13,25 L13,28 L4,28 L3,34 L5,34 Z M15,15 L13,15 L13,12 L21,11 L21,9 L23,9 L23,11 L30,11 L31,15 L29,15 L29,13 L15,13 Z M38,42 L38,38 L42,38 L42,42 Z M43,36 L37,36 L36,43 L43,44 L44,37 Z M20,42 L20,38 L24,38 L24,42 Z M25,36 L19,36 L18,43 L25,44 L26,37 Z M2,42 L2,38 L6,38 L6,42 Z M7,36 L1,36 L0,43 L7,44 L8,37 Z" fill="none" stroke="currentColor" stroke-width="1.5"/></svg>