<svg xmlns="http://www.w3.org/2000/svg" viewBox="0 0 44.158 44.0" width="24" height="24"><path d="M27.571,21.237 L30.746,18.062 L27.571,14.887 L28.985,13.473 L32.867,17.355 L28.985,22.651 Z M12.508,18.769 L16.39,13.473 L17.804,14.887 L14.63,18.062 L17.804,21.237 L16.39,22.651 Z M21.382,23.705 L19.524,22.962 L23.741,12.419 L25.598,13.162 Z M31.973,42 L12.181,42 L3.191,34.978 L9.69,29.602 L12.001,31.861 L15.9,30.343 L18.079,33.32 L25.399,35 L27.079,31.439 C27.798,31.2 28.499,30.903 29.175,30.549 L30.648,32.056 C31.287,32.708 32.415,32.708 33.051,32.056 L34.994,30.068 L40.961,34.98 Z M9.384,20 L7.079,20 L7.079,15 L9.602,15 L9.868,8.096 L13.307,4.576 L15.087,6.396 C15.411,6.728 15.918,6.793 16.313,6.556 L20.079,2 L25.079,2 L25.079,4.524 L31.983,4.789 L35.502,8.229 L33.682,10.007 L38.079,15 L38.079,20 L35.555,20 C35.099,20 34.701,20.308 34.588,20.75 L35.29,26.904 L34.848,27.357 L34.692,27.228 L33.421,28.772 L33.445,28.792 L31.85,30.424 L30.071,28.604 C29.749,28.275 29.241,28.209 28.844,28.444 C27.89,29.012 26.872,29.445 25.817,29.73 L25.079,33 L20.079,33 L20.079,30.477 C20.079,30.021 19.77,29.623 19.329,29.508 L13.175,30.211 L9.656,26.772 L11.475,24.993 C11.068,22.813 10.635,21.794 10.348,20.738 Z M36.397,28.632 L36.937,28.08 C37.573,27.432 37.573,26.378 36.938,25.731 L35.423,24.179 C35.776,23.476 36.072,22.748 36.308,22 L38.399,22 L40.079,14.68 C40.079,13.754 39.325,13 38.399,13 L36.517,13 C36.278,12.281 35.981,11.579 35.628,10.903 L37.134,9.431 C37.461,9.112 37.64,8.685 37.64,8.229 L33.157,3.139 L29.258,4.657 L27.079,1.68 C27.079,0.754 26.325,0 25.399,0 L19.759,0 C18.833,0 18.079,0.754 18.079,1.68 L18.079,3.562 L14.509,2.945 L8.22,6.921 L9.735,10.821 C9.383,11.524 9.086,12.253 8.849,13 L6.759,13 C5.833,13 5.079,13.754 5.079,14.68 L5.079,20.32 L8.64,22 L8.024,25.57 L8.251,28.195 L0,35.023 L11.492,44 L32.663,44 L44.158,35.021 Z" fill="none" stroke="currentColor" stroke-width="1.5"/></svg>