<svg xmlns="http://www.w3.org/2000/svg" viewBox="0 0 44.0 44.0" width="24" height="24"><path d="M29.707,24.293 L33.707,28.293 L32.293,29.707 L29,26.414 L25.707,29.707 L24.293,28.293 L28.293,24.293 Z M29.707,29.293 L33.707,33.293 L32.293,34.707 L29,31.414 L25.707,34.707 L24.293,33.293 L28.293,29.293 Z M21,37 L21,21 L37,21 L37,37 Z M19,20 L19,38 L38,39 L39,20 L20,19 Z M5,24 L5,6 L24,5 L25,17 L23,17 L23,7 L7,7 L7,23 L17,23 L17,25 L6,25 Z M15,12.414 L11.707,15.707 L10.293,14.293 L14.293,10.293 L19.707,14.293 L18.293,15.707 Z M10.293,19.293 L14.293,15.293 L18.326,17.912 L16.912,19.326 L15,17.414 L11.707,20.707 Z M2,42 L2,2 L42,2 L42,42 Z M43,0 L1,0 L0,43 L43,44 L44,1 Z" fill="none" stroke="currentColor" stroke-width="1.5"/></svg>