<svg xmlns="http://www.w3.org/2000/svg" viewBox="0 0 44.0 44.0" width="24" height="24"><path d="M13,22 C13,26.962 17.037,31 22,31 C26.963,31 31,26.962 31,22 C31,17.038 26.963,13 22,13 C17.037,13 13,17.038 13,22 Z M14.966,30.448 L1.707,43.707 L0.293,42.293 L13.552,29.034 C11.961,27.125 11,24.673 11,22 C11,15.935 15.935,11 22,11 C28.065,11 33,15.935 33,22 C33,28.065 28.065,33 22,33 C19.327,33 16.875,32.039 14.966,30.448 Z M22,18.664 L25.793,22.457 L27.207,21.043 L22.707,16.543 L16.793,21.043 L18.207,22.457 Z M22,23.664 L25.793,27.457 L27.207,26.043 L22.707,21.543 L16.793,26.043 L18.207,27.457 Z M44,18.5 L44,25.5 L39.246,27.375 L40.031,32.43 L35.081,40.031 L30.392,37.993 L27.375,42.125 L18.5,44 L16.625,39.246 L11.57,40.031 L8.59,39.703 L10.004,38.288 L10.244,38.529 L12.727,36.047 C15.181,36.613 16.508,37.164 17.881,37.527 L18.625,42 L25.375,42 L25.375,38.494 C27.492,37.164 28.819,36.613 30.063,35.89 L33.756,38.529 L38.529,33.756 L36.047,31.273 C36.612,28.822 37.163,27.495 37.527,26.119 L42,25.375 L42,18.625 L38.494,18.625 C37.163,16.505 36.612,15.178 35.89,13.937 L38.529,10.245 L33.756,5.471 L31.273,7.953 C28.819,7.387 27.492,6.836 26.119,6.473 L25.375,2 L18.625,2 L18.625,5.506 C16.508,6.836 15.181,7.387 13.937,8.11 L10.244,5.471 L5.471,10.244 L7.953,12.727 C7.388,15.178 6.837,16.505 6.473,17.881 L2,18.625 L2,25.375 L5.506,25.375 C6.837,27.495 7.388,28.822 8.11,30.063 L5.471,33.755 L5.73,34.014 L4.316,35.429 L3.969,35.082 L6.007,30.392 L1.875,27.375 L0,18.5 L4.754,16.625 L3.969,11.57 L8.919,3.969 L13.608,6.007 L16.625,1.875 L25.5,0 L27.375,4.754 L32.43,3.969 L40.031,8.918 L37.993,13.608 L42.125,16.625 Z" fill="none" stroke="currentColor" stroke-width="1.5"/></svg>