<svg xmlns="http://www.w3.org/2000/svg" viewBox="0 0 56.002 56.013" width="24" height="24"><path d="M13.424,34.03 L0.631,28.944 C0.25,28.792 0,28.424 0,28.014 C0,27.604 0.25,27.236 0.631,27.085 L18.558,19.974 L7.491,8.907 L8.905,7.493 L21.048,19.635 C21.286,19.873 21.389,20.215 21.32,20.545 C21.252,20.874 21.022,21.148 20.71,21.272 L3.709,28.016 L14.964,32.49 Z M23.516,14.989 L27.999,3.71 L34.742,20.71 C34.866,21.022 35.14,21.252 35.47,21.32 C35.537,21.334 35.604,21.341 35.672,21.341 C35.935,21.341 36.189,21.237 36.379,21.048 L48.522,8.906 L47.107,7.492 L36.04,18.558 L28.93,0.631 C28.778,0.25 28.41,0 28,0 C27.591,0 27.222,0.25 27.07,0.63 L21.975,13.448 Z M55.371,27.082 L42.554,21.986 L41.014,23.526 L52.292,28.01 L35.292,34.753 C34.979,34.878 34.75,35.151 34.682,35.48 C34.613,35.811 34.716,36.152 34.954,36.39 L47.096,48.532 L48.51,47.118 L37.444,36.052 L55.371,28.94 C55.752,28.789 56.002,28.421 56.002,28.011 C56.002,27.601 55.752,27.233 55.371,27.081 Z M32.481,41.032 L28.001,52.304 L21.258,35.304 C21.134,34.991 20.86,34.761 20.53,34.693 C20.199,34.625 19.859,34.727 19.621,34.965 L7.478,47.107 L8.893,48.522 L19.96,37.455 L27.07,55.382 C27.222,55.763 27.59,56.013 28,56.013 C28.409,56.013 28.778,55.763 28.93,55.383 L34.022,42.573 Z" fill="none" stroke="currentColor" stroke-width="1.5"/></svg>