<svg xmlns="http://www.w3.org/2000/svg" viewBox="0 0 44.172 44.0" width="24" height="24"><path d="M34.868,31 Z M36.868,31 C36.868,34.141 34.312,36.696 31.172,36.696 C28.032,36.696 25.476,34.141 25.476,31 C25.476,27.859 28.031,25.304 31.172,25.304 C34.313,25.304 36.868,27.859 36.868,31 Z M42.172,29.673 L41.236,29.727 C40.777,29.75 40.311,29.426 40.204,28.949 L39.888,24.16 L38.012,22.284 L37.384,22.988 C35.216,22.606 34.247,22.205 33.222,21.973 L32.498,20 L29.846,20 L29.899,20.939 L24.332,22.284 L22.456,24.16 L23.158,24.786 C22.775,26.957 22.372,27.926 22.14,28.95 C22.031,29.426 21.561,29.75 21.108,29.727 L20.172,29.673 L20.172,32.326 L21.105,32.273 C22.367,34.076 22.769,35.047 23.332,35.94 L22.456,37.84 L24.332,39.716 L24.953,39.02 C25.278,38.653 25.821,38.579 26.233,38.84 L29.847,42 L32.498,42 L32.445,41.072 C34.251,39.807 35.223,39.404 36.113,38.842 L38.013,39.716 L39.888,37.84 L39.19,37.218 L42.172,32.326 Z M43.858,27.888 L44.172,33.385 L41.937,34.316 L42.01,37.053 C42.351,38.045 42.245,38.312 42.051,38.506 L38.678,41.879 L36.443,40.961 C35.818,41.292 35.165,41.563 34.488,41.771 L34.555,42.942 C34.57,43.217 34.472,43.486 34.283,43.686 L28.787,44 C28.512,44 28.249,43.886 28.059,43.686 L27.856,41.77 C27.181,41.562 26.528,41.291 25.903,40.959 L25.119,41.837 C24.936,42.043 24.677,42.164 24.401,42.171 L20.293,38.506 L21.213,36.269 C20.882,35.644 20.611,34.991 20.405,34.316 L19.228,34.383 L18.172,28.615 L20.41,27.684 C20.617,27.01 20.888,26.359 21.219,25.736 L20.335,24.948 C19.992,23.955 20.098,23.689 20.293,23.495 L23.666,20.122 L25.908,21.047 L27.789,19.057 L33.556,18 C34.472,18.513 34.57,18.782 34.555,19.056 L34.488,20.242 L37.224,20.163 C37.408,19.958 37.667,19.837 37.942,19.829 L42.051,23.495 C42.245,23.689 42.351,23.955 42.344,24.23 L41.127,25.735 L43.115,27.616 Z M5,42 L17,42 L17,44 L5,44 C2.243,44 0,41.757 0,39 L0,5 C0,2.243 2.243,0 5,0 L39,0 C41.757,0 44,2.243 44,5 L44,18 L42,18 L42,5 C42,3.346 40.654,2 39,2 L5,2 C3.346,2 2,3.346 2,5 L2,39 C2,40.654 3.346,42 5,42 Z" fill="none" stroke="currentColor" stroke-width="1.5"/></svg>