<svg xmlns="http://www.w3.org/2000/svg" viewBox="0 0 52.0 56.0" width="24" height="24"><path d="M28,53.647 C25.92,53.867 23.595,54 21,54 C8.602,54 2,51.096 2,49 L2,38.221 C5.602,40.797 13.51,42 21,42 C23.341,42 25.722,41.883 28,41.642 L28,39.647 C25.92,39.867 23.595,40 21,40 C8.602,40 2,37.096 2,35 L2,23.221 C5.602,25.797 13.51,27 21,27 C23.341,27 25.722,26.883 28,26.642 L28,24.647 C25.92,24.867 23.595,25 21,25 C8.602,25 2,22.096 2,20 L2,10.221 C5.602,12.797 13.51,14 21,14 C28.49,14 36.398,12.797 40,10.221 L40,14 L42,14 L42,7 C42,2.19 31.114,0 21,0 C10.886,0 0,2.19 0,7 L0,49 C0,53.81 10.886,56 21,56 C23.341,56 25.721,55.881 28,55.641 Z M21,2 C33.398,2 40,4.904 40,7 C40,9.096 33.398,12 21,12 C8.602,12 2,9.096 2,7 C2,4.904 8.602,2 21,2 Z M42,22 L34,22 L34,20 L42,20 Z M48,26 L34,26 L34,24 L48,24 Z M39.808,43 L34,34 L36.384,34 L41,41.153 L45.616,34 L48,34 L42.192,43 L48,52 L45.616,52 L41,44.847 L36.384,52 L34,52 Z M48,30 L34,30 L34,28 L48,28 Z M51,16 L31,16 C30.447,16 30,16.448 30,17 L30,55 C30,55.552 30.447,56 31,56 L51,56 C51.553,56 52,55.552 52,55 L52,17 C52,16.448 51.553,16 51,16 Z M50,54 L32,54 L32,18 L50,18 Z" fill="none" stroke="currentColor" stroke-width="1.5"/></svg>