<svg xmlns="http://www.w3.org/2000/svg" viewBox="0 0 56.0 55.729" width="24" height="24"><path d="M47,31 L45,31 C45,23.832 39.168,18 32,18 C31.324,18 30.654,18.058 29.992,18.162 C29.993,18.107 30,18.054 30,18 C30,17.188 29.917,16.394 29.762,15.627 C30.466,15.865 31.216,16 31.999,16 C35.859,16 39,12.86 39,9 C39,5.14 35.859,2 31.999,2 C28.376,2 25.388,4.768 25.035,8.3 C24.454,7.878 23.835,7.508 23.182,7.194 C24.021,3.094 27.656,0 31.999,0 C36.962,0 41,4.038 41,9 C41,12.284 39.226,15.154 36.592,16.726 C42.623,18.671 47,24.331 47,31 Z M22.28,45 L1,45 C0.447,45 0,44.552 0,44 C0,37.699 3.363,31.775 8.778,28.539 C10.125,27.734 11.57,27.117 13.071,26.69 C10.047,24.968 8,21.722 8,18 C8,12.486 12.485,8 17.999,8 C23.514,8 28,12.486 28,18 C28,21.717 25.957,24.96 22.939,26.684 C28.899,28.367 33.609,33.031 35.31,39.068 L34.121,37.879 C33.641,37.399 33.036,37.127 32.41,37.04 C29.818,31.646 24.328,28 18,28 C15.107,28 12.272,28.78 9.804,30.256 C5.278,32.961 2.364,37.778 2.032,43 L24.414,43 Z M17.999,26 C22.411,26 26,22.411 26,18 C26,13.589 22.411,10 17.999,10 C13.588,10 10,13.589 10,18 C10,22.411 13.588,26 17.999,26 Z M55,33 L45,33 L45,35 L52.699,35 L40.976,47.561 L32.707,39.293 C32.324,38.911 31.709,38.9 31.316,39.27 L15.316,54.27 L16.684,55.73 L31.978,41.392 L40.293,49.707 C40.484,49.899 40.72,49.984 41.018,50 C41.288,49.995 41.546,49.88 41.732,49.682 L54,36.537 L54,44 L56,44 L56,34 C56,33.448 55.553,33 55,33 Z" fill="none" stroke="currentColor" stroke-width="1.5"/></svg>