<svg xmlns="http://www.w3.org/2000/svg" viewBox="0 0 48.0 54.251" width="24" height="24"><path d="M45.019,11.562 L27.019,1.084 C25.157,0 22.843,0 20.981,1.084 L2.981,11.562 C1.143,12.633 0,14.62 0,16.748 L0,37.775 C0,39.903 1.143,41.89 2.981,42.96 L20.981,53.438 C21.912,53.98 22.956,54.251 24,54.251 C25.044,54.251 26.088,53.98 27.018,53.438 L45.018,42.96 C46.857,41.89 48,39.903 48,37.775 L48,16.748 C48,14.62 46.857,12.633 45.019,11.562 Z M3.987,13.29 L21.987,2.812 C22.608,2.451 23.304,2.27 24,2.27 C24.696,2.27 25.392,2.451 26.013,2.812 L44.013,13.29 C45.238,14.004 46,15.329 46,16.748 L46,20.178 L25,32.047 L25,20.761 C25,20.406 24.812,20.077 24.504,19.897 C24.196,19.718 23.817,19.716 23.508,19.891 L2,32.047 L2,16.748 C2,15.329 2.762,14.004 3.987,13.29 Z M44.013,41.232 L26.013,51.71 C24.77,52.433 23.229,52.433 21.987,51.71 L3.987,41.232 C2.762,40.518 2,39.193 2,37.775 L2,34.345 L23,22.475 L23,33.761 C23,34.117 23.188,34.446 23.496,34.625 C23.651,34.716 23.826,34.761 24,34.761 C24.17,34.761 24.339,34.718 24.492,34.632 L46,22.475 L46,37.775 C46,39.193 45.238,40.518 44.013,41.232 Z" fill="none" stroke="currentColor" stroke-width="1.5"/></svg>