<svg xmlns="http://www.w3.org/2000/svg" viewBox="0 0 44.07 44.0" width="24" height="24"><path d="M42.2,24.22 C41.98,23.07 40.66,21.85 37.97,20.32 L39.67,7.65 C39.67,7.65 39.67,7.61 39.68,7.58 L39.73,7.19 C39.73,7.19 39.73,7.1 39.73,7.06 C39.73,2.9 29.26,0 19.86,0 C10.46,0 0,2.9 0,7.06 C0,7.1 0,7.15 0,7.19 L0.05,7.58 C0.05,7.58 0.05,7.59 0.05,7.6 L4.27,38.95 C4.34,41.09 7.48,42.4 11.08,43.14 C11.08,43.09 11.05,43.05 11.05,42.99 L11.05,41.09 C7.89,40.36 6.27,39.38 6.27,38.87 C6.27,38.83 6.27,38.78 6.27,38.74 L2.44,10.27 C2.67,10.4 2.92,10.53 3.17,10.66 C3.33,10.74 3.49,10.81 3.66,10.88 C3.81,10.95 3.96,11.01 4.11,11.07 C4.3,11.15 4.49,11.22 4.68,11.29 C4.82,11.34 4.97,11.39 5.12,11.44 C5.87,11.7 6.68,11.93 7.54,12.14 C7.67,12.17 7.79,12.2 7.92,12.23 C8.2,12.3 8.49,12.36 8.78,12.42 C8.88,12.44 8.98,12.46 9.07,12.48 C10.07,12.68 11.11,12.84 12.19,12.98 C12.28,12.99 12.37,13 12.47,13.01 C12.83,13.05 13.19,13.1 13.55,13.13 C13.58,13.13 13.61,13.13 13.64,13.13 C14.81,13.25 16,13.33 17.2,13.38 C17.28,13.38 17.36,13.38 17.45,13.39 C18.26,13.42 19.06,13.44 19.86,13.44 C20.27,13.44 20.69,13.44 21.1,13.42 C21.11,13.42 21.12,13.42 21.13,13.42 C21.5,13.42 21.87,13.4 22.24,13.39 C22.35,13.39 22.45,13.39 22.56,13.38 C22.93,13.36 23.29,13.35 23.66,13.33 C23.66,13.33 23.67,13.33 23.68,13.33 C24.43,13.28 25.17,13.22 25.9,13.15 C26.01,13.14 26.12,13.13 26.24,13.12 C26.56,13.09 26.87,13.05 27.19,13.01 C27.35,12.99 27.5,12.97 27.66,12.95 C27.96,12.91 28.26,12.87 28.56,12.83 C28.68,12.81 28.81,12.79 28.93,12.77 C29.45,12.69 29.96,12.6 30.47,12.5 C30.66,12.46 30.85,12.43 31.04,12.39 C31.28,12.34 31.51,12.29 31.74,12.24 C31.94,12.19 32.14,12.15 32.34,12.1 C32.55,12.05 32.76,12 32.97,11.94 C33.33,11.84 33.68,11.74 34.01,11.64 C34.18,11.59 34.33,11.53 34.49,11.48 C34.7,11.41 34.91,11.34 35.11,11.26 C35.27,11.2 35.43,11.14 35.58,11.08 C35.78,11 35.98,10.91 36.17,10.83 C36.3,10.77 36.43,10.72 36.55,10.66 C36.81,10.53 37.07,10.4 37.3,10.26 L35.52,23.54 C30.96,22.11 24.88,19.34 22.12,18.04 C22.12,18.02 22.12,18 22.12,17.99 C22.12,16.89 21.22,15.99 20.12,15.99 C19.02,15.99 18.12,16.89 18.12,17.99 C18.12,19.09 19.02,19.99 20.12,19.99 C20.46,19.99 20.77,19.9 21.05,19.75 C24.18,21.23 30.5,24.1 35.24,25.55 L34.95,27.7 L36.93,27.97 L37.18,26.09 C38.2,26.33 39.04,26.45 39.72,26.45 C40.71,26.45 41.38,26.2 41.8,25.69 C42.15,25.27 42.29,24.75 42.19,24.21 Z M37.23,7.9 C37.13,7.99 37.01,8.08 36.89,8.17 C36.85,8.2 36.82,8.23 36.78,8.26 C36.64,8.36 36.48,8.45 36.31,8.55 C36.27,8.58 36.23,8.6 36.18,8.63 C35.99,8.73 35.78,8.83 35.56,8.93 C35.52,8.95 35.49,8.97 35.45,8.98 C35.2,9.09 34.94,9.2 34.66,9.31 C34.64,9.31 34.62,9.33 34.6,9.33 C31.52,10.49 26.35,11.46 19.88,11.46 C11.46,11.46 5.25,9.82 2.96,8.25 C2.96,8.25 2.96,8.25 2.95,8.24 C2.78,8.13 2.64,8.01 2.52,7.9 C2.5,7.88 2.48,7.86 2.46,7.84 C2.36,7.74 2.27,7.65 2.21,7.55 C2.19,7.52 2.17,7.48 2.15,7.45 C2.1,7.37 2.06,7.29 2.04,7.21 L2.01,7.01 C2.15,5.22 9.48,2 19.88,2 C30.28,2 37.61,5.22 37.75,7.01 L37.72,7.21 C37.7,7.29 37.65,7.38 37.6,7.47 C37.58,7.5 37.57,7.53 37.55,7.56 C37.49,7.65 37.41,7.73 37.32,7.82 C37.29,7.85 37.27,7.88 37.24,7.91 Z M37.46,24.1 L37.68,22.47 C39.4,23.52 39.98,24.15 40.16,24.43 C39.87,24.49 39.13,24.51 37.47,24.11 Z M24.06,40 L13.06,40 L13.06,38 L24.06,38 Z M22.06,36 L15.06,36 L15.06,34 L22.06,34 Z M22.06,44 L15.06,44 L15.06,42 L22.06,42 Z M27.77,35.46 L26.34,34.06 C28.65,31.7 31.75,30.4 35.05,30.4 C35.86,30.4 36.67,30.48 37.45,30.64 L37.06,32.6 C36.4,32.47 35.73,32.4 35.05,32.4 C32.29,32.4 29.7,33.49 27.76,35.46 Z M41.62,36.86 L43.77,34.71 L42.36,33.3 L35.98,39.68 C35.7,39.57 35.39,39.5 35.07,39.5 C33.69,39.5 32.57,40.62 32.57,42 L28.14,42 C28.63,38.61 31.55,36 35.07,36 C35.65,36 36.2,36.08 36.74,36.21 L38.33,34.62 C37.32,34.22 36.22,34 35.07,34 C30.11,34 26.07,38.04 26.07,43 C26.07,43.55 26.52,44 27.07,44 L43.07,44 C43.62,44 44.07,43.55 44.07,43 C44.07,40.62 43.14,38.47 41.63,36.86 Z M34.56,42 C34.56,41.72 34.78,41.5 35.06,41.5 C35.34,41.5 35.56,41.72 35.56,42 Z M37.56,42 C37.56,41.68 37.49,41.37 37.38,41.09 L40.2,38.27 C41.14,39.28 41.78,40.57 41.99,42 Z M39.34,33.34 C38.91,33.14 38.47,32.97 38.01,32.84 L38.59,30.92 C39.13,31.08 39.67,31.29 40.18,31.52 C40.46,31.65 40.73,31.79 41,31.94 L39.51,33.43 C39.45,33.4 39.4,33.36 39.34,33.34 Z" fill="none" stroke="currentColor" stroke-width="1.5"/></svg>