<svg xmlns="http://www.w3.org/2000/svg" viewBox="0 0 44.0 44.0" width="24" height="24"><path d="M28.587,29 L37.673,37.26 L36.328,38.74 L27,30.26 L27,34 L25,34 L25,28 L32,27 L32,29 Z M39,20 L39,31 L37,31 L37,21 L14,21 L14,38 L30,38 L30,40 L13,40 L12,20 L38,19 Z M33,15 L29,15 L29,13 L34,13 L35,17 L33,17 Z M13,15 L26,15 L26,13 L13,13 Z M6,13 L10,13 L10,15 L7,15 L7,17 L5,17 L5,14 Z M5,25 L7,25 L7,20 L5,20 Z M7,30 L10,30 L10,32 L6,32 L5,28 L7,28 Z M11,6 L15,6 L15,4 L11,4 Z M5,6 L9,6 L9,4 L5,4 Z M2,42 L2,10 L42,10 L42,42 Z M2,8 L2,2 L42,2 L42,8 Z M43,0 L1,0 L0,43 L43,44 L44,1 Z" fill="none" stroke="currentColor" stroke-width="1.5"/></svg>