<svg xmlns="http://www.w3.org/2000/svg" viewBox="0 0 52.0 52.092" width="24" height="24"><path d="M51.447,17.152 L44,13.428 L44,6.046 C44,5.692 43.812,5.364 43.507,5.184 L34.993,0.184 C34.684,0.003 34.3,0 33.99,0.178 L26,4.749 L18.01,0.178 C17.7,0.001 17.316,0.003 17.007,0.184 L8.493,5.184 C8.188,5.364 8,5.692 8,6.046 L8,13.428 L0.553,17.152 C0.214,17.321 0,17.667 0,18.046 L0,34.046 C0,34.425 0.214,34.771 0.553,34.941 L8,38.665 L8,46.046 C8,46.401 8.188,46.729 8.493,46.909 L17.007,51.909 C17.315,52.09 17.699,52.092 18.01,51.915 L26,47.344 L33.99,51.915 C34.144,52.002 34.315,52.046 34.486,52.046 C34.661,52.046 34.837,52 34.993,51.909 L43.507,46.909 C43.812,46.729 44,46.401 44,46.046 L44,38.665 L51.447,34.941 C51.786,34.771 52,34.425 52,34.046 L52,18.046 C52,17.667 51.786,17.321 51.447,17.152 Z M26,29.523 L23,27.783 L23,24.333 L26,22.573 L29,24.333 L29,27.783 Z M17.52,49.891 L10,45.474 L10,38.046 C10,37.667 9.786,37.321 9.447,37.152 L2,33.428 L2,18.665 L9.447,14.941 C9.786,14.771 10,14.425 10,14.046 L10,6.619 L17.52,2.202 L25.002,6.482 L25.002,20.84 L21.494,22.898 C21.188,23.078 21,23.406 21,23.761 L21,28.358 C21,28.715 21.189,29.044 21.498,29.223 L25.002,31.256 L25.002,45.611 Z M50,33.428 L42.553,37.152 C42.214,37.321 42,37.667 42,38.046 L42,45.474 L34.48,49.891 L27.002,45.613 L27.002,31.254 L30.502,29.223 C30.81,29.044 31,28.715 31,28.358 L31,23.761 C31,23.406 30.812,23.078 30.506,22.898 L27.002,20.842 L27.002,6.48 L34.48,2.202 L42,6.619 L42,14.046 C42,14.425 42.214,14.771 42.553,14.941 L50,18.664 Z" fill="none" stroke="currentColor" stroke-width="1.5"/></svg>