<svg xmlns="http://www.w3.org/2000/svg" viewBox="0 0 55.13 53.511" width="24" height="24"><path d="M7.019,37.549 L5.232,38.447 C0,28.045 2.763,14.689 11.657,7.379 C19.884,0.616 32.367,0.165 41.679,6.001 L40.488,0.417 L42.443,0 L44.163,8.065 C44.219,8.324 44.169,8.595 44.025,8.817 C43.88,9.04 43.653,9.196 43.394,9.251 L35.328,10.971 L34.912,9.015 L40.739,7.772 C32.126,2.295 20.538,2.668 12.927,8.924 C4.737,15.656 2.196,27.961 7.019,37.549 Z M49.831,15.029 L48.044,15.928 C52.928,25.638 50.444,37.639 42.14,44.465 C34.508,50.738 23.763,51.162 15.316,45.74 L21.15,44.497 L20.732,42.54 L12.668,44.26 C12.409,44.315 12.183,44.471 12.038,44.694 C11.894,44.916 11.844,45.187 11.9,45.446 L13.619,53.511 L15.574,53.094 L14.386,47.519 C23.54,53.311 35.144,52.805 43.409,46.01 C52.43,38.596 55.13,25.566 49.831,15.029 Z M39.916,14.275 C40.285,14.432 40.525,14.794 40.525,15.195 L40.525,29.733 C40.525,29.874 40.376,43.907 27.525,43.907 C14.673,43.907 14.525,29.836 14.525,29.694 L14.525,15.195 C14.525,14.794 14.764,14.432 15.133,14.275 L27.133,9.162 C27.383,9.056 27.666,9.056 27.916,9.162 Z M38.525,15.856 L27.525,11.169 L16.525,15.856 L16.525,29.694 C16.525,30.192 16.682,41.907 27.525,41.907 C38.367,41.907 38.524,30.228 38.525,29.731 Z M27.916,13.51 L35.916,16.918 C36.285,17.076 36.525,17.437 36.525,17.838 L36.525,29.733 C36.47,34.433 34.08,39.907 27.525,39.907 C20.968,39.907 18.578,34.399 18.525,29.683 L18.525,17.838 C18.525,17.437 18.764,17.076 19.133,16.918 L27.133,13.51 C27.383,13.404 27.666,13.404 27.916,13.51 Z M26.525,37.844 L26.525,15.943 L20.525,18.499 L20.525,29.672 C20.546,31.489 21.062,37.217 26.525,37.844 Z M34.525,18.499 L28.525,15.943 L28.525,37.844 C33.986,37.222 34.503,31.536 34.525,29.721 Z" fill="none" stroke="currentColor" stroke-width="1.5"/></svg>