<svg xmlns="http://www.w3.org/2000/svg" viewBox="0 0 42.36 44.05" width="24" height="24"><path d="M17.29,22.05 C16.74,22.05 16.29,22.5 16.29,23.05 L16.29,27.05 C16.29,27.6 16.74,28.05 17.29,28.05 L18.29,28.05 L18.29,30.05 L14.29,30.05 C13.74,30.05 13.29,30.5 13.29,31.05 L13.29,33.05 L12.29,33.05 C11.74,33.05 11.29,33.5 11.29,34.05 L11.29,38.05 C11.29,38.6 11.74,39.05 12.29,39.05 L16.29,39.05 C16.84,39.05 17.29,38.6 17.29,38.05 L17.29,34.05 C17.29,33.5 16.84,33.05 16.29,33.05 L15.29,33.05 L15.29,32.05 L23.29,32.05 L23.29,33.05 L22.29,33.05 C21.74,33.05 21.29,33.5 21.29,34.05 L21.29,38.05 C21.29,38.6 21.74,39.05 22.29,39.05 L26.29,39.05 C26.84,39.05 27.29,38.6 27.29,38.05 L27.29,34.05 C27.29,33.5 26.84,33.05 26.29,33.05 L25.29,33.05 L25.29,31.05 C25.29,30.5 24.84,30.05 24.29,30.05 L20.29,30.05 L20.29,28.05 L21.29,28.05 C21.84,28.05 22.29,27.6 22.29,27.05 L22.29,23.05 C22.29,22.5 21.84,22.05 21.29,22.05 Z M15.29,37.05 L13.29,37.05 L13.29,35.05 L15.29,35.05 Z M25.29,37.05 L23.29,37.05 L23.29,35.05 L25.29,35.05 Z M20.29,26.05 L18.29,26.05 L18.29,24.05 L20.29,24.05 Z M42.26,24.25 C42.05,23.1 40.72,21.88 38.02,20.34 L39.74,7.59 L39.79,7.2 C39.79,7.2 39.79,7.11 39.79,7.07 C39.79,2.9 29.3,0 19.89,0 C10.48,0 0,2.89 0,7.06 C0,7.1 0,7.15 0,7.19 L0.05,7.58 L4.28,39 C4.41,42.68 13.89,44.05 19.89,44.05 C23.2,44.05 26.53,43.7 29.25,43.07 C30.35,42.82 31.33,42.52 32.17,42.19 C34.34,41.33 35.45,40.26 35.5,39 L37.24,26.07 C38.19,26.27 39.06,26.39 39.78,26.39 C40.75,26.39 41.47,26.18 41.87,25.72 C42.22,25.3 42.36,24.78 42.26,24.24 Z M19.9,1.99 C30.32,1.99 37.66,5.22 37.8,7.01 L37.77,7.22 C37.25,9 30.25,11.47 19.9,11.47 C9.55,11.47 2.54,9 2.03,7.22 L2,7.01 C2.14,5.22 9.48,1.99 19.89,1.99 Z M33.51,38.79 C33.51,38.79 33.51,38.88 33.51,38.92 C33.51,39.07 33.13,39.66 31.45,40.33 C30.7,40.63 29.81,40.89 28.81,41.12 C26.23,41.72 23.07,42.04 19.9,42.04 C11.43,42.04 6.29,39.87 6.29,38.91 C6.29,38.87 6.29,38.82 6.29,38.78 L2.44,10.28 C6.06,12.39 13.15,13.48 19.9,13.48 C26.65,13.48 33.74,12.39 37.36,10.28 L35.95,20.76 L35.57,23.58 C31.93,22.41 26.82,20.3 21.99,18 C21.93,16.89 21.03,16.01 19.91,16.01 C18.79,16.01 17.81,16.95 17.81,18.11 C17.81,19.27 18.75,20.21 19.91,20.21 C20.36,20.21 20.78,20.06 21.13,19.81 C25.46,21.89 30.99,24.34 35.31,25.59 L33.53,38.8 Z M37.5,24.15 L37.72,22.49 C39.5,23.58 40.05,24.2 40.21,24.47 C39.74,24.61 38.78,24.48 37.49,24.15 Z" fill="none" stroke="currentColor" stroke-width="1.5"/></svg>