<svg xmlns="http://www.w3.org/2000/svg" viewBox="0 0 44.131 49.576" width="24" height="24"><path d="M8.344,47.296 L3.014,47.296 L3.014,45.296 L8.344,45.296 Z M42.774,19.066 L33.254,19.066 L33.254,21.016 L40.824,21.016 L40.824,45.366 L23.054,45.366 L23.054,47.366 L42.774,47.366 Z M5.954,44.366 L5.954,21.016 L22.734,21.016 L22.734,19.066 L4.004,19.066 L4.004,44.366 L2.004,14.436 L12.464,14.436 L15.104,17.066 L22.734,17.066 L22.734,15.126 L15.904,15.126 L13.274,12.496 L0.064,12.496 L0.064,44.366 Z M42.774,15.126 L38.494,15.126 L38.494,17.066 L40.824,17.066 L40.824,18.066 L42.824,18.066 Z M28.704,33.856 L37.254,24.646 L32.254,23.016 L32.254,16.096 L30.304,16.096 L30.304,23.986 L34.304,24.986 L27.984,31.796 L21.664,24.986 L24.664,24.986 L25.664,16.096 L23.734,16.096 L23.734,23.016 L19.444,23.016 L27.284,33.856 Z M38.804,11.156 L43.094,11.156 L35.254,0.296 L25.284,9.496 L30.284,11.136 L30.284,19.686 L32.284,19.686 L32.284,10.176 L28.284,9.176 L34.564,2.406 L40.874,9.206 L37.874,9.206 L36.874,19.736 L38.874,19.736 Z M22.134,46.646 L22.134,41.756 L12.264,38.826 L9.334,46.646 L19.204,49.576 Z M19.204,40.776 L20.204,46.666 L12.264,47.666 L11.264,41.756 Z M20.204,37.346 L14.484,34.226 L11.354,39.296 L13.304,39.296 L13.304,37.346 L17.084,36.176 L18.254,39.296 L20.254,39.296 Z" fill="none" stroke="currentColor" stroke-width="1.5"/></svg>