<svg xmlns="http://www.w3.org/2000/svg" viewBox="0 0 48.0 56.424" width="24" height="24"><path d="M46.996,17.982 C46.366,17.62 45.618,17.623 44.992,17.989 L35.496,23.53 C35.188,23.709 35,24.039 35,24.394 L35,30.776 L31.553,32.499 C31.214,32.669 31,33.015 31,33.394 L31,36.894 L28,39.144 L25,36.894 L25,19.894 L28,17.644 L31,19.894 L31,23.794 L33,22.644 L33,19.394 C33,19.079 32.852,18.783 32.6,18.594 L28.6,15.594 C28.244,15.328 27.756,15.328 27.4,15.594 L24,18.144 L20.6,15.594 C20.269,15.345 19.821,15.327 19.47,15.546 L15.47,18.046 C15.178,18.229 15,18.549 15,18.894 L15,22.776 L11.553,24.499 C11.214,24.669 11,25.015 11,25.394 L11,31.8 L2,36.709 L2,17.204 C2,15.818 2.736,14.508 3.92,13.787 L21.728,2.947 C23.086,2.12 24.804,2.177 26.104,3.087 L40.828,13.394 L36,13.394 L36,15.394 L44,15.394 C44.553,15.394 45,14.946 45,14.394 L45,6.394 L43,6.394 L43,12.473 L27.25,1.448 C25.299,0.082 22.724,0 20.689,1.239 L2.881,12.079 C1.104,13.161 0,15.124 0,17.204 L0,36.709 C0,37.422 0.366,38.065 0.978,38.429 C1.296,38.618 1.648,38.712 1.999,38.712 C2.327,38.712 2.655,38.63 2.957,38.465 L12.478,33.272 C12.8,33.097 13,32.76 13,32.394 L13,26.012 L16.447,24.289 C16.786,24.119 17,23.773 17,23.394 L17,19.448 L19.948,17.605 L23,19.894 L23,36.894 L20,39.144 L17,36.894 L17,32.994 L15,34.094 L15,37.394 C15,37.709 15.148,38.005 15.4,38.194 L19.4,41.194 C19.756,41.46 20.244,41.46 20.6,41.194 L24,38.644 L27.4,41.194 C27.756,41.46 28.244,41.46 28.6,41.194 L32.6,38.194 C32.852,38.005 33,37.709 33,37.394 L33,34.012 L36.447,32.289 C36.786,32.119 37,31.773 37,31.394 L37,24.968 L46,19.717 L46,39.584 C46,40.97 45.264,42.28 44.08,43.001 L26.272,53.841 C24.913,54.666 23.196,54.611 21.897,53.701 L7.172,43.394 L12,43.394 L12,41.394 L4,41.394 C3.447,41.394 3,41.842 3,42.394 L3,50.394 L5,50.394 L5,44.315 L20.75,55.34 C21.78,56.061 22.984,56.424 24.191,56.424 C25.27,56.424 26.351,56.134 27.31,55.549 L45.119,44.709 C46.896,43.627 48,41.664 48,39.584 L48,19.717 C48,18.992 47.625,18.343 46.996,17.982 Z" fill="none" stroke="currentColor" stroke-width="1.5"/></svg>