<svg xmlns="http://www.w3.org/2000/svg" viewBox="0 0 55.127 47.801" width="24" height="24"><path d="M54.127,32.305 C51.412,32.305 49.203,30.096 49.203,27.38 C49.203,26.828 48.756,26.38 48.203,26.38 C47.65,26.38 47.203,26.828 47.203,27.38 C47.203,30.096 44.994,32.305 42.279,32.305 C41.727,32.305 41.279,32.752 41.279,33.305 C41.279,33.857 41.727,34.305 42.279,34.305 C44.994,34.305 47.203,36.514 47.203,39.228 C47.203,39.781 47.65,40.228 48.203,40.228 C48.756,40.228 49.203,39.781 49.203,39.228 C49.203,36.514 51.412,34.305 54.127,34.305 C54.68,34.305 55.127,33.857 55.127,33.305 C55.127,32.752 54.68,32.305 54.127,32.305 Z M48.203,35.647 C47.623,34.691 46.817,33.885 45.86,33.305 C46.817,32.724 47.623,31.918 48.203,30.962 C48.783,31.918 49.589,32.724 50.546,33.305 C49.589,33.885 48.783,34.691 48.203,35.647 Z M42.727,18.615 C43.279,18.615 43.727,18.168 43.727,17.615 C43.727,13.586 47.004,10.308 51.033,10.308 C51.586,10.308 52.033,9.86 52.033,9.308 C52.033,8.755 51.586,8.308 51.033,8.308 C47.004,8.308 43.727,5.029 43.727,1 C43.727,0.448 43.279,0 42.727,0 C42.174,0 41.727,0.448 41.727,1 C41.727,5.029 38.448,8.308 34.419,8.308 C33.866,8.308 33.419,8.755 33.419,9.308 C33.419,9.86 33.866,10.308 34.419,10.308 C38.448,10.308 41.727,13.586 41.727,17.615 C41.727,18.168 42.174,18.615 42.727,18.615 Z M38.614,9.308 C40.383,8.411 41.829,6.964 42.727,5.195 C43.623,6.964 45.069,8.411 46.839,9.308 C45.069,10.205 43.623,11.651 42.727,13.42 C41.829,11.651 40.383,10.205 38.614,9.308 Z M34.531,35.975 C33.759,35.254 33.388,34.88 33.388,34.262 C33.388,28.241 33.386,11.057 22.349,7.937 C22.259,5.957 20.634,4.371 18.632,4.371 C16.63,4.371 15.005,5.957 14.915,7.937 C3.878,11.057 3.876,28.241 3.876,34.262 C3.876,34.88 3.505,35.254 2.732,35.975 C1.579,37.051 0,38.524 0,41.9 C0,42.453 0.447,42.9 1,42.9 L13.139,42.9 C13.454,45.654 15.796,47.801 18.632,47.801 C21.468,47.801 23.81,45.654 24.124,42.9 L36.264,42.9 C36.816,42.9 37.264,42.453 37.264,41.9 C37.264,38.524 35.685,37.051 34.531,35.975 Z M18.632,45.801 C16.901,45.801 15.464,44.547 15.164,42.9 L22.099,42.9 C21.8,44.547 20.363,45.801 18.632,45.801 Z M2.064,40.9 C2.309,39.106 3.215,38.259 4.097,37.438 C4.931,36.659 5.876,35.777 5.876,34.262 C5.876,23.609 7.198,9.445 18.632,9.445 C30.065,9.445 31.388,23.609 31.388,34.262 C31.388,35.777 32.333,36.659 33.167,37.438 C34.049,38.259 34.955,39.106 35.2,40.9 Z" fill="none" stroke="currentColor" stroke-width="1.5"/></svg>