<svg xmlns="http://www.w3.org/2000/svg" viewBox="0 0 56.0 56.0" width="24" height="24"><path d="M36,36 L46,36 L46,38 L36,38 L36,42 L46,42 L46,44 L36,44 L36,47 L34,47 L34,33 L36,33 Z M54,41.522 L52.485,41.436 C52.014,41.402 51.561,41.736 51.453,42.214 L51.183,48.324 L48.324,51.183 L47.318,50.056 C46.992,49.689 46.45,49.614 46.038,49.876 L41.521,54 L37.479,54 L37.564,52.492 C35.432,51.152 34.146,50.619 32.965,49.873 L30.677,51.183 L27.817,48.324 L28.946,47.317 C28.384,44.859 27.852,43.573 27.545,42.214 C27.437,41.736 26.974,41.402 26.513,41.436 L25,41.522 L25,37.478 L26.518,37.564 C26.997,37.583 27.44,37.264 27.55,36.787 C27.856,35.434 28.39,34.15 29.135,32.972 L27.817,30.677 L30.677,27.817 L31.691,28.954 C32.019,29.318 32.56,29.393 32.971,29.133 C37.264,27.446 37.593,27.01 37.564,26.522 L37.479,25 L41.521,25 L41.436,26.523 C41.407,27.011 41.736,27.448 42.213,27.555 C46.438,29.396 46.98,29.32 47.307,28.957 L48.323,27.817 L51.183,30.677 L50.048,31.689 C50.611,34.145 51.145,35.429 51.451,36.787 C51.559,37.264 52.014,37.583 52.483,37.564 L54,37.478 Z M55.687,35.692 C55.487,35.504 55.217,35.405 54.943,35.421 L53.189,35.521 L53.305,31.464 C53.646,30.472 53.54,30.206 53.346,30.011 L48.989,25.655 C48.795,25.46 48.525,25.347 48.254,25.362 C47.979,25.37 47.72,25.491 47.536,25.696 L46.361,27.012 C45.446,26.508 44.481,26.108 43.479,25.817 L43.578,24.057 L36.42,23 L35.521,25.815 L31.464,25.696 C31.28,25.491 31.021,25.37 30.746,25.362 C30.471,25.354 30.205,25.46 30.011,25.655 L25.654,30.011 C25.46,30.206 25.354,30.472 25.361,30.747 L27.01,32.637 C26.505,33.553 26.104,34.519 25.812,35.521 L24.057,35.421 L23,42.581 L25.806,43.479 L25.696,47.536 C25.354,48.529 25.46,48.795 25.654,48.989 L30.011,53.346 C30.205,53.541 30.469,53.653 30.746,53.638 L32.63,51.998 C33.549,52.504 34.517,52.905 35.521,53.197 L35.422,54.943 L42.58,56 L43.479,53.199 C44.486,52.907 45.455,52.506 46.373,52 L47.536,53.304 C48.527,53.655 48.795,53.541 48.989,53.346 L53.346,48.989 C53.54,48.795 53.646,48.529 53.639,48.254 L51.995,46.368 C52.5,45.45 52.9,44.483 53.191,43.479 L54.943,43.579 C55.216,43.593 55.487,43.496 55.687,43.308 L56,36.419 Z M19.742,24.218 L12.197,31.763 C12.01,31.951 11.756,32.056 11.49,32.056 L7.012,27.991 L8.426,26.577 L11.49,29.642 L18.328,22.804 Z M19.742,9.826 L12.197,17.37 C12.01,17.558 11.756,17.663 11.49,17.663 L7.012,13.598 L8.426,12.184 L11.49,15.249 L18.328,8.412 Z M17.856,40.355 L14.319,43.892 L17.856,47.429 L16.442,48.843 L12.905,45.306 L9.368,48.843 L7.954,47.429 L11.491,43.892 L7.954,40.355 L9.368,38.941 L12.905,42.478 L16.442,38.941 Z M33,3.659 L38.973,9 L33,9 Z M2,2 L31,2 L31,10 L40,11 L40,21 L42,21 L42,9.471 L32.193,0.254 C32.01,0.091 31.772,0 31.526,0 L1,0 L0,55 L26,56 L26,54 L2,54 Z" fill="none" stroke="currentColor" stroke-width="1.5"/></svg>