<svg xmlns="http://www.w3.org/2000/svg" viewBox="0 0 44.025 41.719" width="24" height="24"><path d="M11.037,4 Z M8.037,4 Z M5.037,4 Z M38.037,28 L40.037,28 L40.037,11 L38.037,11 Z M23.037,38.98 L23.037,26.552 L33.04,20.74 L33.037,33.183 Z M11.037,20.692 L21.037,26.602 L21.037,38.905 L11.037,32.862 Z M21.568,12.98 L31.906,19.086 L21.994,24.845 L12.019,18.95 Z M34.553,18.326 L22.062,10.95 C21.741,10.76 21.341,10.765 21.023,10.962 L9.526,18.15 C9.426,18.207 9.337,18.281 9.26,18.37 L9.037,33.426 L21.3,41.401 C22.205,41.719 22.378,41.674 22.534,41.584 L34.539,34.625 C34.847,34.445 35.037,34.116 35.037,33.759 L35.037,20.44 L35.045,19.193 Z M2.022,6 L2.025,2 L42.025,2 L42.025,6 Z M42.149,0 L1.901,0 C0.867,0 0.025,0.826 0.025,1.839 L0.002,30.156 C0,31.167 0.836,31.994 1.872,32 L7.025,31.999 L7.025,29.999 L2.002,30 L2.02,8 L42.025,8 L42.025,30 L37.025,30 L37.025,32 L42.15,32 C43.184,32 44.025,31.171 44.025,30.152 L44.025,1.841 C44.025,0.826 43.183,0 42.149,0 Z" fill="none" stroke="currentColor" stroke-width="1.5"/></svg>