<svg xmlns="http://www.w3.org/2000/svg" viewBox="0 0 8.338 7.144" width="24" height="24"><path d="M0.001,6.351 L0.001,7.144 L1.458,7.144 L1.458,6.351 Z M0,6.747 L1.458,6.747 M2.514,6.351 L2.514,7.144 L8.338,7.144 L8.338,6.351 Z M2.513,6.747 L8.338,6.747 M2.116,4.234 L2.116,5.027 L3.575,5.027 L3.575,4.234 Z M2.116,4.631 L3.574,4.631 M4.629,4.234 L4.629,5.027 L8.338,5.027 L8.338,4.234 Z M4.63,4.631 L8.338,4.631 M2.116,2.117 L2.116,2.912 L3.575,2.912 L3.575,2.117 Z M2.116,2.514 L3.574,2.514 M4.629,2.117 L4.629,2.912 L8.338,2.912 L8.338,2.117 Z M4.63,2.514 L8.338,2.514 M0.001,0 L0.001,0.795 L1.458,0.795 L1.458,0 Z M0,0.397 L1.458,0.397 M2.514,0 L2.514,0.795 L8.338,0.795 L8.338,0 Z M2.513,0.398 L8.338,0.398" fill="none" stroke="currentColor" stroke-width="1.5"/></svg>