<svg xmlns="http://www.w3.org/2000/svg" viewBox="0 0 10.148 8.898" width="24" height="24"><path d="M3.093,0 L3.093,0.266 L3.093,0.53 L3.093,0.751 L3.093,1.015 L3.622,1.015 L3.622,0.75 L3.622,0.529 L4.454,0.529 L4.718,0.529 L4.718,0 L4.454,0 L3.622,0 Z M5.777,0 L5.777,0.529 L6.041,0.529 L7.629,0.529 L7.895,0.529 L7.895,0 L7.629,0 L6.041,0 Z M8.951,0 L8.951,0.529 L9.217,0.529 L9.619,0.529 L9.619,1.185 L9.619,1.449 L10.148,1.449 L10.148,1.185 L10.148,0.265 C10.148,0.119 10.03,0 9.884,0 L9.216,0 Z M1.556,1.411 L1.556,1.677 L1.556,1.941 L1.556,2.372 L1.556,2.636 L2.084,2.636 L2.084,2.372 L2.084,1.941 L2.703,1.941 L2.969,1.941 L2.969,1.411 L2.703,1.411 L2.084,1.411 Z M4.027,1.411 L4.027,1.941 L4.291,1.941 L5.878,1.941 L6.142,1.941 L6.142,1.411 L5.878,1.411 L4.291,1.411 Z M7.201,1.411 L7.201,1.941 L7.467,1.941 L8.08,1.941 L8.08,2.384 L8.08,2.65 L8.609,2.65 L8.609,2.384 L8.609,1.677 C8.61,1.531 8.492,1.412 8.345,1.411 L7.466,1.411 Z M9.619,2.507 L9.619,2.773 L9.619,4.361 L9.619,4.625 L10.148,4.625 L10.148,4.361 L10.148,2.773 L10.148,2.507 Z M0.281,2.823 C0.136,2.824 0.018,2.941 0.017,3.087 L0.017,7.671 C0.018,7.816 0.135,7.934 0.281,7.935 L6.807,7.935 C6.952,7.934 7.07,7.817 7.071,7.671 L7.071,6.525 L7.458,6.525 L7.724,6.525 L7.724,5.996 L7.458,5.996 L7.071,5.996 L7.071,3.087 C7.07,2.942 6.953,2.824 6.807,2.823 Z M8.08,3.708 L8.08,3.972 L8.08,5.56 L8.08,5.824 L8.609,5.824 L8.609,5.56 L8.609,5.113 L8.785,5.113 L9.049,5.113 L9.049,4.583 L8.785,4.583 L8.609,4.583 L8.609,3.972 L8.609,3.708 Z M0,8.281 L0,8.898 L7.076,8.898 L7.076,8.281 Z" fill="none" stroke="currentColor" stroke-width="1.5"/></svg>