<svg xmlns="http://www.w3.org/2000/svg" viewBox="0 0 10.077 9.833" width="24" height="24"><path d="M5.044,0.004 C4.906,0 1.049,1.896 0.998,1.993 C0.877,2.227 0,6.275 0.051,6.362 C0.081,6.413 0.713,7.214 1.456,8.143 L2.806,9.831 L5.028,9.832 L7.25,9.833 L8.663,8.067 L10.077,6.302 L9.582,4.133 L9.041,1.921 C8.971,1.853 5.119,0.006 5.044,0.004 Z M6.659,1.314 L6.773,1.364 C7.345,1.614 7.849,1.982 8.272,2.457 L8.354,2.55 L8.249,2.615 C7.981,3.528 8.252,3.852 8.489,4.196 C8.612,5.562 8.854,5.621 9.105,5.621 L9.23,5.616 L9.351,5.607 L9.339,5.73 L8.7,7.6 L8.605,7.52 C7.654,7.537 7.435,7.894 7.183,8.228 C6.787,8.367 6.375,8.47 5.949,8.532 C5.908,8.815 5.941,9.108 6.052,9.378 L6.099,9.493 L5.978,9.52 L5.05,9.623 C4.744,9.623 4.432,9.588 4.122,9.52 L4.001,9.493 L4.048,9.379 C2.661,7.896 2.442,7.539 2.258,7.164 C1.976,7.213 1.713,7.337 1.494,7.522 L1.399,7.602 L1.336,7.496 C1.016,6.948 0.822,6.354 0.762,5.73 L0.751,5.607 L0.875,5.616 L0.999,5.621 C2.293,2.979 2.097,2.767 1.853,2.615 L1.748,2.55 L1.83,2.457 C2.246,1.988 2.764,1.611 3.329,1.365 L3.443,1.315 L3.472,1.436 C3.54,1.716 3.682,1.969 3.877,2.172 C4.251,1.973 4.644,1.811 5.05,1.689 C6.42,1.97 6.563,1.716 6.631,1.435 Z M5.049,3.056 C4.631,3.217 4.236,3.431 3.874,3.694 C3.517,3.953 3.195,4.26 2.911,4.611 C2.934,5.065 3.014,5.505 3.15,5.926 C7.083,5.505 7.164,5.068 7.188,4.617 C6.903,4.264 6.579,3.954 6.221,3.694 Z M4.126,4.447 Z M5.973,4.447 L5.413,5.008 Z" fill="none" stroke="currentColor" stroke-width="1.5"/></svg>