<svg xmlns="http://www.w3.org/2000/svg" viewBox="0 0 10.076 9.832" width="24" height="24"><path d="M5.044,0.004 C4.906,0 1.049,1.896 0.999,1.993 C0.877,2.227 0,6.275 0.051,6.362 C0.081,6.413 0.713,7.214 1.456,8.142 L2.806,9.83 L5.027,9.831 L7.249,9.832 L8.662,8.066 L10.076,6.301 L9.581,4.132 L9.04,1.919 C8.971,1.854 5.119,0.007 5.044,0.004 Z M5.24,0.952 L6.149,1.216 L5.24,1.48 L4.331,1.216 Z M4.331,1.317 L5.182,1.57 L5.178,2.753 L4.331,2.284 Z M6.149,1.317 L6.149,2.284 L5.302,2.753 L5.298,1.57 Z M3.952,2.931 L4.861,3.195 L3.952,3.459 L3.043,3.195 Z M6.161,2.931 L7.07,3.195 L6.161,3.459 L5.252,3.195 Z M3.043,3.296 L3.894,3.549 L3.89,4.732 L3.043,4.263 Z M4.861,3.296 L4.861,4.263 L4.014,4.732 L4.01,3.549 Z M5.252,3.296 L6.103,3.549 L6.099,4.732 L5.252,4.263 Z M7.07,3.296 L7.07,4.263 L6.223,4.732 L6.219,3.549 Z M3.62,4.811 C3.891,4.821 3.681,5.093 3.988,5.239 C4.316,5.395 4.383,5.004 4.589,5.302 C4.795,5.6 4.406,5.525 4.435,5.887 C4.464,6.249 4.837,6.112 4.681,6.44 C4.525,6.768 4.396,6.392 4.097,6.598 C3.798,6.804 4.103,7.058 3.742,7.087 C3.381,7.116 3.64,6.817 3.313,6.661 C2.986,6.505 2.918,6.896 2.712,6.597 C2.506,6.298 2.896,6.374 2.867,6.012 C2.838,5.65 2.465,5.787 2.621,5.459 C2.777,5.131 2.906,5.507 3.205,5.301 C3.504,5.095 3.199,4.841 3.561,4.812 Z M5.956,5.174 C6.439,5.188 5.971,5.641 6.412,5.839 C6.853,6.037 6.879,5.385 7.211,5.736 C7.543,6.087 6.891,6.077 7.063,6.528 C7.235,6.979 7.715,6.537 7.701,7.021 C7.687,7.505 7.234,7.036 7.036,7.477 C6.838,7.918 7.49,7.944 7.139,8.276 C6.788,8.608 6.799,7.956 6.347,8.128 C5.895,8.3 6.338,8.78 5.854,8.766 C5.37,8.752 5.839,8.299 5.398,8.101 C4.957,7.903 4.93,8.555 4.598,8.204 C4.266,7.853 4.918,7.864 4.746,7.412 C4.574,6.96 4.094,7.403 4.108,6.919 C4.122,6.435 4.575,6.904 4.773,6.463 C4.971,6.022 4.319,5.996 4.67,5.664 C5.021,5.332 5.011,5.984 5.462,5.812 C5.913,5.64 5.471,5.16 5.955,5.174 Z M3.641,5.428 Z M5.905,5.909 Z" fill="none" stroke="currentColor" stroke-width="1.5"/></svg>