<svg xmlns="http://www.w3.org/2000/svg" viewBox="0 0 9.425 9.146" width="24" height="24"><path d="M4.191,0 C1.878,0 0,1.877 0,4.191 C0,6.505 1.878,8.382 4.191,8.382 L5.664,7.124 C5.664,6.788 5.939,6.223 6.275,6.223 L6.275,5.307 C6.275,4.848 6.96,4.07 7.802,4.07 C8.008,4.07 8.203,4.111 8.382,4.185 C8.38,1.874 6.503,0 4.191,0 Z M5.029,1.467 L6.496,2.934 L5.449,2.934 L5.449,4.61 L4.61,4.61 L4.61,2.933 L3.563,2.933 Z M2.934,3.771 L3.772,3.771 L3.772,5.447 L4.82,5.447 L3.353,6.915 L1.886,5.448 L2.934,5.448 Z M7.908,4.811 C7.31,4.811 6.824,5.297 6.824,5.895 L6.824,6.545 C6.586,6.545 6.391,6.74 6.391,6.978 L6.391,8.713 C6.391,8.951 6.586,9.146 6.824,9.146 L8.992,9.146 C9.23,9.146 9.425,8.951 9.425,8.713 L9.425,6.978 C9.425,6.74 9.23,6.545 8.992,6.545 L8.992,5.895 C8.992,5.297 8.506,4.811 7.908,4.811 Z M7.908,5.244 L8.558,6.545 L7.258,6.545 L7.258,5.895 Z" fill="none" stroke="currentColor" stroke-width="1.5"/></svg>