<svg xmlns="http://www.w3.org/2000/svg" viewBox="0 0 9.783 10.029" width="24" height="24"><path d="M6.867,1.703 C5.718,1.703 4.785,2.636 4.785,3.785 L4.785,5.034 C4.327,5.034 3.952,5.409 3.952,5.867 L3.952,9.2 C3.952,9.658 4.327,10.029 4.785,10.029 L8.95,10.029 C9.408,10.029 9.783,9.658 9.783,9.2 L9.783,5.868 C9.783,5.41 9.408,5.035 8.95,5.035 L8.95,3.785 C8.95,2.636 8.017,1.703 6.868,1.703 Z M6.867,2.536 L8.116,5.034 L5.618,5.034 L5.618,3.785 Z M4.43,2.456 L4.03,2.575 L4.034,3.479 C4.1,3.109 4.237,2.764 4.43,2.456 Z M6.865,3.523 C6.602,3.523 6.411,3.714 6.411,3.977 L6.411,4.431 L7.319,4.431 L7.319,3.977 C7.319,3.714 7.129,3.523 6.865,3.523 Z M0,1.519 L0,5.55 L3.154,7.296 L3.154,6.059 L3.549,2.574 Z M3.789,0 L0,1.099 L3.789,2.198 L4.915,1.871 C5.429,1.394 6.115,1.098 6.865,1.098 L7.578,1.098 Z" fill="none" stroke="currentColor" stroke-width="1.5"/></svg>