<svg xmlns="http://www.w3.org/2000/svg" viewBox="0 0 10.331 9.058" width="24" height="24"><path d="M0.199,0.001 C0.086,0.001 0,0.092 0,0.2 L0,0.575 L0.4,0.575 L0.4,0.399 L0.599,0.399 L0.599,0.001 Z M1,0.001 L1,0.399 L1.799,0.399 L1.799,0.001 Z M2.199,0.001 L2.199,0.399 L3,0.399 L3,0.001 Z M3.4,0.001 L3.4,0.399 L4.199,0.399 L4.199,0.001 Z M4.6,0.001 L4.6,0.399 L5.401,0.399 L5.401,0.001 Z M5.799,0.001 L5.799,0.399 L6.599,0.399 L6.599,0.001 Z M7,0.001 L7,0.399 L7.799,0.399 L7.799,0.001 Z M8.199,0.001 L8.199,0.399 L9,0.399 L9,0.001 Z M9.4,0.001 L9.4,0.399 L10.328,0.399 L10.328,0.2 C10.328,0.089 10.239,0 10.129,0.001 Z M5.271,0.62 L2.163,1.995 L2.163,4.046 C2.163,5.947 3.488,7.724 5.271,8.156 C7.052,7.724 8.378,5.947 8.378,4.046 L8.378,1.995 Z M9.93,0.671 L9.93,1.47 L10.33,1.47 L10.33,0.671 Z M0,0.974 L0,1.774 L0.4,1.774 L0.4,0.974 Z M9.93,1.871 L9.93,2.671 L10.33,2.671 L10.33,1.871 Z M5.287,1.895 C5.944,1.895 6.476,2.423 6.476,3.074 L6.476,3.375 L6.917,3.375 L6.917,6.139 L3.625,6.139 L3.625,3.375 L4.097,3.375 L4.097,3.074 C4.097,2.423 4.629,1.895 5.287,1.895 Z M0,2.175 L0,2.974 L0.4,2.974 L0.4,2.175 Z M5.27,2.334 C4.876,2.335 4.557,2.652 4.557,3.042 L4.557,3.339 L5.984,3.339 L5.984,3.037 C5.98,2.648 5.662,2.335 5.27,2.334 Z M9.93,3.072 L9.93,3.871 L10.33,3.871 L10.33,3.071 Z M0,3.374 L0,4.175 L0.4,4.175 L0.4,3.374 Z M5.211,4.191 C5.49,5.195 5.717,4.97 5.717,4.693 C5.717,4.416 5.491,4.191 5.211,4.191 Z M9.93,4.271 L9.93,5.071 L10.33,5.071 L10.33,4.271 Z M0,4.575 L0,5.374 L0.4,5.374 L0.4,4.575 Z M9.93,5.47 L9.93,6.271 L10.33,6.271 L10.33,5.47 Z M0,5.774 L0,6.575 L0.4,6.575 L0.4,5.774 Z M9.93,6.671 L9.93,7.47 L10.33,7.47 L10.33,6.671 Z M0,6.974 L0,7.774 L0.4,7.774 L0.4,6.974 Z M9.93,7.87 L9.93,8.658 L9.118,8.658 L9.118,9.058 L9.917,9.058 C10.151,9.058 10.331,8.894 10.331,8.671 L10.331,7.87 Z M0,8.175 L0,8.859 L0.4,9.058 L0.4,8.175 Z M0.717,8.658 L0.717,9.058 L1.516,9.058 L1.516,8.658 Z M1.916,8.658 L1.916,9.058 L2.716,9.058 L2.716,8.658 Z M3.117,8.658 L3.117,9.058 L3.916,9.058 L3.916,8.658 Z M4.316,8.658 L4.316,9.058 L5.117,9.058 L5.117,8.658 Z M5.515,8.658 L5.515,9.058 L6.315,9.058 L6.315,8.658 Z M6.716,8.658 L6.716,9.058 L7.515,9.058 L7.515,8.658 Z M7.915,8.658 L7.915,9.058 L8.715,9.058 L8.715,8.658 Z" fill="none" stroke="currentColor" stroke-width="1.5"/></svg>