<svg xmlns="http://www.w3.org/2000/svg" viewBox="0 0 9.814 8.843" width="24" height="24"><path d="M4.923,0 L4.919,0.416 L5.384,0.42 L5.847,0.43 L6.295,0.446 L6.57,0.462 L6.591,0.048 L6.313,0.032 L5.86,0.014 L5.391,0.004 Z M4.421,0.004 L3.954,0.014 L3.501,0.032 L3.067,0.056 L2.831,0.072 L2.86,0.486 L3.09,0.47 L3.518,0.447 L3.965,0.431 L4.428,0.421 L4.506,0.419 L4.504,0.005 L4.424,0.005 Z M7.009,0.073 L6.98,0.487 L7.13,0.499 L7.513,0.532 L7.871,0.571 L8.199,0.614 L8.498,0.661 L8.605,0.683 L8.681,0.275 L8.57,0.253 L8.261,0.204 L7.923,0.159 L7.556,0.12 L7.163,0.085 Z M2.415,0.103 L2.261,0.117 L1.896,0.158 L1.558,0.201 L1.249,0.252 L1.104,0.278 L0.969,0.305 L0.842,0.334 L0.74,0.359 L0.842,0.762 L0.936,0.738 L1.053,0.711 L1.18,0.685 L1.315,0.66 L1.614,0.613 L1.942,0.57 L2.3,0.531 L2.45,0.517 Z M9.105,0.369 L8.992,0.767 L9.082,0.792 L9.168,0.819 L9.244,0.846 L9.307,0.873 L9.336,0.889 L9.307,0.903 L9.244,0.93 L9.168,0.957 L9.082,0.984 L8.984,1.013 L8.877,1.038 L8.76,1.065 L8.633,1.09 L8.498,1.115 L8.199,1.164 L8.05,1.184 L8.105,1.594 L8.255,1.575 L8.564,1.526 L8.709,1.499 L8.844,1.472 L8.971,1.443 L9.09,1.414 L9.2,1.383 L9.3,1.351 L9.394,1.318 L9.4,1.877 L9.814,1.877 L9.814,0.908 L9.814,0.89 L9.81,0.855 C9.809,0.843 9.807,0.832 9.804,0.82 L9.8,0.803 C9.797,0.792 9.793,0.782 9.788,0.772 L9.78,0.754 C9.777,0.745 9.773,0.737 9.768,0.729 L9.757,0.713 C9.751,0.703 9.745,0.693 9.737,0.684 L9.706,0.65 C9.698,0.641 9.69,0.633 9.681,0.625 L9.64,0.592 C9.633,0.586 9.627,0.581 9.62,0.576 L9.567,0.545 L9.487,0.502 L9.401,0.465 L9.307,0.43 L9.204,0.396 Z M0.307,0.512 L0.261,0.535 L0.192,0.576 C0.186,0.581 0.179,0.586 0.173,0.592 L0.132,0.625 C0.123,0.633 0.114,0.641 0.106,0.65 L0.075,0.684 C0.068,0.693 0.062,0.703 0.056,0.713 L0.044,0.729 C0.039,0.737 0.035,0.745 0.032,0.754 L0.024,0.772 C0.02,0.782 0.016,0.792 0.013,0.803 L0.009,0.82 C0.006,0.832 0.004,0.843 0.003,0.855 L0.001,0.873 L0.001,0.908 L0.001,2.476 L0.415,2.476 L0.415,1.318 L0.505,1.349 L0.608,1.383 L0.718,1.414 L0.837,1.446 L0.964,1.475 L1.1,1.502 L1.243,1.527 L1.419,1.556 L1.486,1.146 L1.316,1.119 L1.181,1.094 L1.054,1.069 L0.937,1.042 L0.83,1.017 L0.732,0.986 L0.646,0.959 L0.569,0.932 L0.507,0.904 L0.478,0.89 L0.495,0.881 Z M1.889,1.203 L1.836,1.615 L1.889,1.623 L2.256,1.662 L2.649,1.697 L3.063,1.726 L3.499,1.747 L3.511,1.749 L3.526,1.333 L3.518,1.333 L3.09,1.31 L2.682,1.283 L2.3,1.25 L1.943,1.211 Z M7.641,1.234 L7.512,1.25 L7.129,1.283 L6.721,1.31 L6.294,1.333 L6.001,1.345 L6.016,1.759 L6.311,1.747 L6.745,1.726 L7.161,1.697 L7.552,1.662 L7.686,1.649 Z M3.94,1.349 L3.925,1.766 L3.952,1.766 L4.421,1.775 L4.905,1.779 L5.388,1.775 L5.599,1.771 L5.589,1.357 L5.384,1.361 L4.908,1.365 L4.429,1.361 L3.966,1.351 Z M4.905,2.203 C3.599,2.203 2.419,2.278 1.554,2.404 C1.121,2.467 0.77,2.542 0.511,2.631 C0.381,2.676 0.273,2.721 0.183,2.785 C0.093,2.849 0.002,2.948 0.002,3.092 L0.002,4.937 C0.002,5.081 0.094,5.18 0.183,5.244 C0.272,5.308 0.381,5.353 0.511,5.398 C0.641,5.443 0.799,5.485 0.977,5.524 L0.969,5.526 L0.844,5.553 L0.739,5.58 L0.84,5.983 L0.938,5.957 L1.055,5.932 L1.182,5.907 L1.316,5.882 L1.615,5.833 L1.943,5.79 L2.3,5.751 L2.447,5.739 L2.446,5.728 L4.905,5.827 L7.304,5.733 L7.513,5.751 L7.871,5.79 L8.199,5.833 L8.496,5.882 L8.599,5.9 L8.661,5.56 C8.913,5.513 9.128,5.459 9.302,5.4 C9.432,5.355 9.54,5.31 9.63,5.246 C9.72,5.182 9.812,5.083 9.812,4.939 L9.812,3.092 C9.812,3.023 9.79,2.963 9.758,2.914 L9.769,2.897 C9.773,2.889 9.777,2.88 9.78,2.872 L9.788,2.854 C9.793,2.844 9.797,2.833 9.8,2.822 L9.804,2.804 C9.807,2.793 9.809,2.782 9.81,2.771 L9.812,2.753 L9.812,2.292 L9.398,2.292 L9.398,2.665 L9.302,2.63 C9.042,2.541 8.692,2.466 8.259,2.403 C7.394,2.277 6.211,2.202 4.905,2.202 Z M4.905,2.617 C6.194,2.617 7.363,2.695 8.198,2.816 L8.757,2.914 L8.632,2.939 L8.497,2.964 L8.481,2.966 L8.535,3.313 L8.198,3.368 L8.122,3.378 L8.077,3.026 L7.87,3.053 L7.512,3.092 L7.129,3.127 L6.721,3.154 L6.438,3.17 L6.459,3.526 L6.04,3.544 L6.029,3.187 L5.847,3.193 L5.384,3.205 L4.908,3.207 L4.429,3.205 L4.38,3.203 L4.372,3.56 L3.957,3.551 L3.964,3.194 L3.519,3.178 L3.091,3.155 L2.683,3.128 L2.322,3.094 L2.29,3.449 L1.871,3.402 L1.918,3.052 L1.615,3.011 L1.316,2.964 L1.181,2.939 L1.055,2.914 L1.615,2.816 C2.45,2.695 3.617,2.617 4.906,2.617 Z M9.097,5.586 L8.984,5.984 L9.082,6.011 L9.168,6.04 L9.242,6.067 L9.305,6.094 L9.334,6.107 L9.305,6.122 L9.242,6.148 L9.168,6.177 L9.082,6.204 L8.984,6.231 L8.877,6.258 L8.76,6.285 L8.633,6.31 L8.496,6.335 L8.199,6.382 L8.05,6.402 L8.105,6.814 L8.255,6.793 L8.564,6.744 L8.709,6.719 L8.844,6.69 L8.971,6.663 L9.088,6.634 L9.198,6.603 L9.299,6.57 L9.391,6.536 L9.397,7.087 L9.813,7.087 L9.813,6.124 L9.813,6.106 L9.811,6.071 C9.81,6.059 9.808,6.047 9.805,6.036 L9.799,6.018 C9.796,6.008 9.793,5.998 9.789,5.989 L9.781,5.971 C9.777,5.962 9.772,5.954 9.767,5.946 L9.757,5.928 C9.751,5.918 9.744,5.908 9.736,5.899 L9.707,5.866 C9.699,5.857 9.691,5.849 9.682,5.842 L9.64,5.81 C9.633,5.805 9.626,5.801 9.618,5.797 L9.567,5.764 L9.549,5.754 L9.486,5.722 L9.4,5.683 L9.304,5.65 L9.203,5.617 Z M0.304,5.733 L0.261,5.754 L0.192,5.797 C0.185,5.801 0.179,5.806 0.172,5.81 L0.129,5.845 C0.121,5.852 0.113,5.86 0.106,5.868 L0.074,5.902 C0.067,5.911 0.06,5.921 0.055,5.931 L0.043,5.949 C0.038,5.957 0.033,5.966 0.03,5.974 L0.024,5.992 C0.019,6.002 0.015,6.011 0.012,6.021 L0.008,6.039 C0.005,6.051 0.003,6.062 0.002,6.074 L0,6.092 L0,6.109 L0,7.707 L0.416,7.707 L0.416,6.537 L0.506,6.57 L0.607,6.604 L0.719,6.635 L0.838,6.664 L0.965,6.693 L1.1,6.72 L1.245,6.747 L1.423,6.774 L1.489,6.366 L1.317,6.339 L1.183,6.314 L1.056,6.289 L0.939,6.262 L0.832,6.235 L0.734,6.208 L0.646,6.181 L0.572,6.152 L0.509,6.126 L0.48,6.111 L0.493,6.103 Z M1.894,6.424 L1.839,6.834 L1.89,6.842 L2.257,6.881 L2.648,6.916 L3.062,6.945 L3.498,6.968 L3.513,6.968 L3.529,6.554 L3.519,6.554 L3.089,6.531 L2.683,6.502 L2.3,6.469 L1.943,6.43 Z M7.644,6.455 L7.513,6.469 L7.128,6.502 L6.722,6.531 L6.294,6.554 L6.002,6.564 L6.017,6.978 L6.312,6.968 L6.746,6.945 L7.16,6.916 L7.551,6.883 L7.687,6.867 Z M3.943,6.57 L3.928,6.984 L3.951,6.984 L4.422,6.996 L4.904,7 L5.389,6.996 L5.6,6.99 L5.59,6.576 L5.385,6.58 L4.906,6.584 L4.43,6.58 L3.967,6.57 Z M9.396,7.505 L9.396,7.915 L9.388,7.923 L9.353,7.945 L9.304,7.968 L9.241,7.995 L9.167,8.022 L9.081,8.049 L8.983,8.078 L8.876,8.105 L8.759,8.13 L8.632,8.155 L8.495,8.18 L8.489,8.182 L8.553,8.592 L8.563,8.59 L8.708,8.563 L8.843,8.536 L8.97,8.507 L9.087,8.478 L9.197,8.447 L9.298,8.415 L9.39,8.382 L9.474,8.345 L9.55,8.308 L9.568,8.298 L9.619,8.265 C9.627,8.261 9.634,8.256 9.641,8.252 L9.682,8.217 C9.691,8.21 9.7,8.202 9.707,8.193 L9.736,8.158 C9.744,8.149 9.751,8.14 9.758,8.131 L9.768,8.113 C9.773,8.105 9.778,8.096 9.781,8.088 L9.789,8.07 C9.793,8.06 9.796,8.051 9.799,8.041 L9.805,8.023 C9.808,8.011 9.81,8 9.811,7.988 L9.813,7.97 L9.813,7.503 Z M0.43,7.927 L0.168,8.247 L0.174,8.253 C0.18,8.258 0.186,8.263 0.193,8.267 L0.246,8.3 L0.326,8.341 L0.412,8.38 L0.506,8.413 L0.608,8.446 L0.719,8.478 L0.838,8.51 L0.965,8.539 L1.1,8.566 L1.245,8.591 L1.553,8.642 L1.873,8.683 L1.928,8.273 L1.615,8.232 L1.316,8.183 L1.181,8.158 L1.054,8.133 L0.937,8.108 L0.83,8.08 L0.732,8.051 L0.644,8.024 L0.57,7.997 L0.507,7.969 L0.458,7.945 Z M8.086,8.245 L7.872,8.274 L7.514,8.313 L7.129,8.346 L6.723,8.375 L6.448,8.389 L6.472,8.803 L6.747,8.789 L7.161,8.76 L7.552,8.725 L7.919,8.686 L8.14,8.657 Z M2.332,8.315 L2.295,8.729 L2.648,8.761 L3.062,8.79 L3.498,8.812 L3.951,8.83 L3.965,8.83 L3.974,8.416 L3.966,8.416 L3.519,8.398 L3.089,8.376 L2.683,8.347 Z M6.037,8.407 L5.847,8.415 L5.384,8.425 L4.905,8.429 L4.429,8.425 L4.388,8.425 L4.38,8.839 L4.421,8.839 L4.903,8.843 L5.388,8.839 L5.857,8.829 L6.052,8.821 Z" fill="none" stroke="currentColor" stroke-width="1.5"/></svg>