<svg xmlns="http://www.w3.org/2000/svg" viewBox="0 0 8.338 7.144" width="24" height="24"><path d="M2.513,0 L2.513,0.795 L3.245,0.795 C3.535,0.677 3.855,0.612 4.191,0.612 L8.337,0.795 L8.337,0 Z M0,0.002 L0,0.795 L1.457,0.795 L1.457,0.002 Z M4.166,0.875 C3.077,0.887 2.244,1.678 2.132,2.66 L2.931,2.66 C3.043,2.1 3.546,1.666 4.192,1.666 C4.838,1.666 5.343,2.1 5.454,2.66 L6.253,2.66 C6.14,1.67 5.293,0.875 4.191,0.875 C4.182,0.875 4.174,0.875 4.165,0.875 Z M4.629,2.117 L4.629,2.66 L5.237,2.66 C5.182,2.441 5.036,2.249 4.834,2.117 Z M6.449,2.117 C6.513,2.289 6.556,2.471 6.573,2.66 L7.127,2.66 L7.127,2.912 L8.338,2.912 L8.338,2.117 Z M1.51,2.924 L1.51,6.319 L6.862,6.319 L6.862,2.923 Z M4.186,4.067 C4.492,4.067 4.741,4.316 4.741,4.622 C4.741,4.928 4.492,5.177 4.186,5.177 C3.88,5.177 3.631,4.928 3.631,4.622 C3.631,4.316 3.88,4.067 4.186,4.067 Z M7.127,4.235 L7.127,5.028 L8.338,5.028 L8.338,4.235 Z M0,6.351 L0,7.144 L1.457,7.144 L1.457,6.584 L1.246,6.584 L1.246,6.351 Z M7.127,6.351 L7.127,6.584 L2.513,6.584 L2.513,7.144 L8.337,7.144 L8.337,6.351 Z" fill="none" stroke="currentColor" stroke-width="1.5"/></svg>