<svg xmlns="http://www.w3.org/2000/svg" viewBox="0 0 10.846 8.094" width="24" height="24"><path d="M3.119,0 L3.119,2.042 L5.159,2.042 L5.159,2.043 L5.151,2.043 L5.151,3.783 L1.456,3.783 C1.31,3.784 1.193,3.902 1.192,4.047 L1.192,6.05 L1.721,6.05 L1.721,4.312 L5.166,4.312 L5.166,6.05 L5.695,6.05 L5.695,4.312 L9.125,4.312 L9.125,6.05 L9.654,6.05 L9.654,4.047 C9.654,3.977 9.626,3.909 9.576,3.86 C9.526,3.811 9.459,3.783 9.388,3.783 L5.688,3.783 L5.688,2.042 L7.727,2.042 L7.727,0 Z M0,6.052 L0,8.094 L2.908,8.094 L2.908,6.052 Z M3.969,6.052 L3.969,8.094 L6.877,8.094 L6.877,6.052 Z M7.938,6.052 L7.938,8.094 L10.846,8.094 L10.846,6.052 Z" fill="none" stroke="currentColor" stroke-width="1.5"/></svg>