<svg xmlns="http://www.w3.org/2000/svg" viewBox="0 0 98.88 71.31" width="24" height="24"><path d="M78.21,17.59 L78.21,5.04 L77.08,5.04 C73.68,5.04 70.94,7.85 70.94,11.31 C70.94,14.78 73.68,17.58 77.08,17.58 L78.21,17.58 Z M68.95,14.73 L63.59,3.77 C62.4,1.52 60.1,0 57.4,0 L44.95,0 C43.78,0 42.85,0.96 42.85,2.16 C42.85,3.34 43.78,4.3 44.95,4.3 L57.4,4.29 C58.41,4.29 59.53,4.99 59.97,5.97 L63.39,12.96 L68.95,14.73 Z M93.68,26.46 C95.3,26.93 96.49,28.47 96.49,30.27 L87.43,30.28 C75.5,30.28 65.81,40.2 65.81,52.4 L36.29,52.4 C36.29,42.59 30.05,34.29 21.43,31.38 L5.16,25.9 L7.86,21.69 C8.81,20.22 10.46,19.25 12.33,19.25 C12.75,19.25 13.14,19.29 13.49,19.36 L49.73,30.85 C50.18,30.99 50.63,31.07 51.13,31.07 C52.77,31.07 54.19,30.22 55.05,28.92 L63.28,16.75 L93.68,26.46 Z M84.15,61.88 C87.21,61.88 89.67,59.34 89.67,56.25 C89.67,53.12 87.21,50.6 84.15,50.6 C81.13,50.6 78.67,53.11 78.67,56.25 C78.67,59.34 81.13,61.88 84.15,61.88 M69.41,56.24 C69.41,47.9 76.01,41.17 84.15,41.17 C92.28,41.17 98.88,47.9 98.88,56.24 C98.88,64.56 92.28,71.31 84.15,71.31 C76.02,71.31 69.41,64.56 69.41,56.24 M16.25,60.83 C19.58,60.83 22.3,58.07 22.3,54.65 C22.3,51.22 19.58,48.45 16.25,48.45 C12.89,48.45 10.19,51.22 10.19,54.65 C10.19,58.07 12.89,60.83 16.25,60.83 M0,54.63 C0,45.5 7.25,38.07 16.21,38.07 C25.18,38.07 32.41,45.5 32.41,54.63 C32.41,63.78 25.18,71.22 16.21,71.22 C7.26,71.22 0,63.79 0,54.63" fill="none" stroke="currentColor" stroke-width="1.5"/></svg>