<svg xmlns="http://www.w3.org/2000/svg" viewBox="0 0 100.29 44.36" width="24" height="24"><path d="M15.76,14.29 L23.41,11.06 L58.18,11.55 L81.26,2.54 L81.26,2.54 C82.82,1.89 84.19,1.41 85.44,1.05 C86.69,0.69 87.27,0.48 88.72,0.38 C90.14,0.25 92.33,0 93.99,0.28 C95.61,0.5 97.58,1.02 98.49,1.95 C99.41,2.91 100.29,4.46 99.33,5.92 C98.29,7.31 98.41,7.81 92.46,10.37 C86.44,12.94 77.05,16.44 63.74,21.14 L63.74,21.14 L51.19,39.85 L39.33,44.36 L46.8,27.12 L28.99,32.6 L28.99,32.6 C22.56,30.79 17.2,28.99 12.61,27.21 C8,25.4 3.42,23.41 1.69,21.92 C0,20.44 1.4,18.95 2.46,18.4 C3.51,17.84 3.77,17.73 7.92,18.61 C12.09,19.45 18.4,21.08 27.17,23.5 L27.17,23.5 L38.75,19.58 L38.75,19.58 C31.08,17.83 23.42,16.06 15.76,14.29 L15.76,14.29 Z" fill="none" stroke="currentColor" stroke-width="1.5"/></svg>