<svg xmlns="http://www.w3.org/2000/svg" viewBox="0 0 99.81 35.1" width="24" height="24"><path d="M99.04,5.72 C98.33,3.11 91.73,2.89 89.08,3.78 C79.43,7.02 69.77,10.26 60.12,13.5 L26.61,0 L23.07,3.8 L37.41,21.18 C28.17,24.4 11.24,30.36 8.16,31.39 C5.51,32.28 25.25,35.1 29.78,34.35 C29.78,34.35 64.55,22.91 79.93,17.75 C83.88,16.42 87.84,15.1 91.79,13.77 C94.43,12.87 99.81,8.55 99.04,5.72 Z M2.69,19.03 L0,21.53 L7.12,29.92 L17.45,26.25 Z" fill="none" stroke="currentColor" stroke-width="1.5"/></svg>