<svg xmlns="http://www.w3.org/2000/svg" viewBox="0 0 99.26 68.39" width="24" height="24"><path d="M51.95,7.46 L51.95,5.43 L54.57,5.43 L54.57,4.14 C54.57,1.85 56.54,0 58.98,0 C61.42,0 63.39,1.85 63.39,4.14 L63.39,5.43 L65.96,5.43 L65.96,7.46 L51.95,7.46 Z M75.08,49.4 C69.91,49.4 65.71,53.65 65.71,58.89 C65.71,64.13 69.9,68.39 75.08,68.39 C80.25,68.39 84.44,64.14 84.44,58.89 C84.44,53.65 80.25,49.4 75.08,49.4 Z M75.08,63.44 C72.6,63.44 70.6,61.41 70.6,58.9 C70.6,56.39 72.61,54.36 75.08,54.36 C77.55,54.36 79.56,56.39 79.56,58.9 C79.56,61.41 77.55,63.44 75.08,63.44 Z M21.45,49.31 C16.28,49.31 12.08,53.56 12.08,58.8 C12.08,64.04 16.27,68.29 21.45,68.29 C26.62,68.29 30.82,64.04 30.82,58.8 C30.81,53.56 26.62,49.31 21.45,49.31 Z M21.47,63.36 C19,63.36 16.99,61.33 16.99,58.82 C16.99,56.31 19,54.28 21.47,54.28 C23.94,54.28 25.95,56.31 25.95,58.82 C25.95,61.33 23.94,63.36 21.47,63.36 Z M90.8,31.9 C93.6,32.45 95.27,33.68 96.54,40.67 L98.54,53.3 C99.26,57.41 96.97,58.91 94.11,58.91 L87.24,58.91 C87.24,52.1 81.8,46.56 75.08,46.56 C68.36,46.56 62.91,52.1 62.91,58.91 L33.58,58.91 C33.58,52.1 28.13,46.56 21.41,46.56 C14.69,46.56 9.24,52.1 9.24,58.91 L3.56,58.91 C1.56,58.91 0,57.38 0,55.39 L0,13.87 C0,11.61 1.76,9.79 3.92,9.79 L67.22,9.79 L77.56,9.79 C80.36,9.79 82.4,11.2 83.42,13.67 L90.8,31.9 Z M66.26,14.02 L66.26,31.27 L85.94,31.27 L79.04,14.02 L66.26,14.02 Z M48.65,29.05 L48.65,18.47 L38.21,18.47 L38.21,29.05 L27.76,29.05 L27.76,39.64 L38.21,39.64 L38.21,50.22 L48.65,50.22 L48.65,39.64 L59.09,39.64 L59.09,29.05 L48.65,29.05 Z" fill="none" stroke="currentColor" stroke-width="1.5"/></svg>