<svg xmlns="http://www.w3.org/2000/svg" viewBox="0 0 92.2 98.66" width="24" height="24"><path d="M46.34,19.19 C43.24,19.19 40.7,16.68 40.7,13.6 C40.7,10.5 43.24,8 46.34,8 C49.48,8 52.01,10.49 52.01,13.6 C52.01,16.68 49.49,19.19 46.34,19.19 Z M92.1,68.12 L89.08,49.56 C88.73,47.83 87.19,46.5 85.36,46.5 C84.25,46.5 83.26,46.97 82.54,47.72 L68.64,60.6 C68.41,60.79 68.19,61.01 67.99,61.29 C66.68,63.05 67.06,65.54 68.84,66.85 C69.18,67.1 69.55,67.26 69.92,67.41 L73.41,68.56 C70.04,77.94 61.82,85.07 51.73,87.05 L51.75,26.13 C56.7,24.05 60.12,19.22 60.12,13.61 C60.13,6.08 53.97,0 46.34,0 C38.75,0 32.56,6.08 32.56,13.61 C32.56,19.22 36.1,24.05 41.03,26.13 L41.05,87.14 C30.74,85.31 22.2,78.11 18.75,68.56 L22.27,67.41 C22.64,67.26 23.02,67.1 23.36,66.85 C25.14,65.54 25.54,63.05 24.2,61.29 C24,61.02 23.8,60.8 23.56,60.6 L9.65,47.73 C8.96,46.98 7.95,46.51 6.85,46.51 C5,46.51 3.44,47.83 3.11,49.56 L0.09,68.12 C0.02,68.41 0,68.73 0,69.05 C0,71.25 1.8,73.03 4.03,73.03 C4.45,73.03 4.85,72.98 5.22,72.86 L8.49,71.81 C13.68,87.39 28.56,98.66 46.1,98.66 C63.64,98.66 78.52,87.38 83.71,71.78 L86.97,72.85 C87.34,72.98 87.74,73.02 88.16,73.02 C90.39,73.02 92.2,71.24 92.2,69.04 C92.2,68.73 92.17,68.41 92.1,68.12 Z" fill="none" stroke="currentColor" stroke-width="1.5"/></svg>