<svg xmlns="http://www.w3.org/2000/svg" viewBox="0 0 98.87 85.44" width="24" height="24"><path d="M76.25,22.85 C73.61,22.23 66.73,21.53 66.73,21.53 L60.75,19.13 C60.4,20.68 59.32,22.97 55.91,23.97 L37.47,29.25 C36.86,29.44 35.35,29.87 33.86,29.87 C33.07,29.87 32.38,29.75 31.78,29.51 C30.09,28.78 28.85,27.63 28.11,26.19 C26.36,28.36 25.3,31.11 25.3,34.12 L25.3,39.12 L20.34,39.12 C15.64,32.58 8.36,28.05 0,27.16 L0,85.27 C8.39,84.37 15.7,79.82 20.37,73.23 L42.43,73.23 C48.21,80.66 57.19,85.43 67.27,85.44 C84.72,85.44 98.86,71.14 98.87,53.49 C98.87,38.99 88.1,25.63 76.25,22.85 Z M63.5,27.77 C63.5,26.83 64.28,26.15 65.11,26.15 C66.04,26.15 66.71,26.83 66.71,27.77 L66.71,34.78 C66.71,35.62 66.04,36.41 65.11,36.41 C64.28,36.41 63.5,35.62 63.5,34.78 L63.5,27.77 Z M68.11,57.61 C68.11,62.93 63.85,67.26 58.6,67.26 C53.35,67.26 49.08,62.93 49.08,57.61 L49.08,56.88 L52.28,56.88 L52.28,57.61 C52.29,61.13 55.12,64.01 58.6,64.02 C62.08,64.01 64.91,61.13 64.91,57.61 L64.91,56.88 L68.11,56.88 L68.11,57.61 Z" fill="none" stroke="currentColor" stroke-width="1.5"/><path d="M20.9,8.68 C24.21,6.82 27.31,6.31 30.13,7.14 C33.05,8 35.22,10.15 36.51,11.78 C33.19,14.3 31.14,18.31 31.06,22.66 C31.05,22.94 31.1,23.2 31.15,23.45 C31.35,24.56 32.02,25.41 33.17,25.91 C33.24,25.94 33.43,26 33.85,26 C34.99,26 36.38,25.54 36.4,25.53 L54.84,20.25 C56.26,19.83 56.99,19.06 57.08,17.89 L57.11,17.7 C57.11,17.69 57.11,17.68 57.11,17.67 C57.26,16.82 56.37,15.38 55.6,14.95 C54.42,14.28 53.33,13.64 52.32,13.04 C48.56,10.83 45.85,9.23 43.1,9.23 C42.8,9.23 42.49,9.26 42.19,9.3 C40.6,6.98 37.17,2.91 31.89,1.33 C27.46,0 22.78,0.68 18,3.37 C16.13,4.42 6.63,9.23 0.04,3.22 L0.04,10.49 C8.87,14.86 18.73,9.9 20.9,8.68 Z" fill="none" stroke="currentColor" stroke-width="1.5"/></svg>