<svg xmlns="http://www.w3.org/2000/svg" viewBox="0 0 72.93 98.4" width="24" height="24"><path d="M54.66,62.8 L55.29,63.68 C71.99,45.36 72.93,17.03 54.77,0 L54.41,0.34 L30.1,29.52 L0.76,29.52 L0.76,34.78 L16.01,36.53 L17.79,54.62 L0,98.4 L8.64,97.83 L27.96,63.96 L47.03,97.83 L55.17,98.4 L37.88,54.62 L38.86,44.68 L54.66,62.8 L54.66,62.8 L54.66,62.8 Z M55.56,61.05 L38.95,41.6 L39.66,36.53 L63.81,34.78 C62.81,44.45 60.38,53.56 55.56,61.05 L55.56,61.05 L55.56,61.05 Z M32.74,29.4 L55.33,2.63 C60.65,9.6 63.32,19.28 63.81,29.53 L32.74,29.4 L32.74,29.4 L32.74,29.4 Z M23.9,13.18 C27.61,13.18 30.63,16.16 30.63,19.8 C30.63,23.44 27.6,26.42 23.9,26.42 C20.2,26.42 17.17,23.44 17.17,19.8 C17.17,16.15 20.19,13.18 23.9,13.18 L23.9,13.18 L23.9,13.18 Z" fill="none" stroke="currentColor" stroke-width="1.5"/></svg>