<svg xmlns="http://www.w3.org/2000/svg" viewBox="0 0 86.82 98.89" width="24" height="24"><path d="M37.76,27.21 L39.93,27.21 C52.05,27.23 59,38.64 59.05,46.37 C59,47.87 58.63,49.17 56.9,49.13 C53.27,49.17 54.57,43.38 51.57,38.48 C50.15,36.06 45.6,31.67 40.42,31.71 L38.51,31.71 C35.73,31.67 30.5,33.26 26.98,38.48 C22.59,44.78 25.47,49.4 21.79,49.38 C21.22,49.4 19.6,49.24 19.62,46.63 C19.8,34.77 30.79,27.23 37.76,27.21 L37.76,27.21 Z" fill="none" stroke="currentColor" stroke-width="1.5"/><path d="M39.41,92.74 C43.96,92.79 47.47,88.23 47.52,85.09 L47.52,78.58 C47.47,65.24 61.64,59.98 61.59,46.62 C61.64,34.12 50.21,24.67 39.41,24.69 C30.45,24.67 24.35,30.38 22.04,33.34 C15.11,41.81 19.09,49.89 14.19,49.89 C12.8,49.89 11.43,49.11 11.41,46.37 C11.2,33.11 22.25,19.07 39.67,19.05 C53.72,19.07 67.53,30.14 67.53,47.13 C67.53,62.86 53.6,66.15 53.6,79.96 L53.6,85.86 C53.6,91.92 48.13,98.86 39.15,98.89 C38.82,98.8 38.44,98.68 38.02,98.63 C36.37,98.14 35.21,96.43 35.62,94.75 C36.09,93.29 37.46,92.93 39.3,92.75 L39.41,92.75 L39.41,92.74 Z" fill="none" stroke="currentColor" stroke-width="1.5"/><path d="M27.77,69.74 L24.23,73.25 L14.5,63.75 L18.03,60.25 Z" fill="none" stroke="currentColor" stroke-width="1.5"/><path d="M27.58,57.65 C27.53,56.12 28.78,54.88 30.27,54.83 C31.9,54.88 33.15,56.12 33.12,57.65 C33.14,59.19 31.89,60.42 30.27,60.47 C28.78,60.42 27.53,59.19 27.58,57.65 L27.58,57.65 Z" fill="none" stroke="currentColor" stroke-width="1.5"/><path d="M36.56,48.77 C36.58,47.19 37.83,45.94 39.41,45.95 C40.94,45.94 42.19,47.19 42.26,48.77 C42.19,50.24 40.94,51.49 39.41,51.43 C37.83,51.48 36.58,50.24 36.56,48.77 L36.56,48.77 Z" fill="none" stroke="currentColor" stroke-width="1.5"/><path d="M0.07,84.82 C0,83.33 1.27,82.08 2.78,82.16 C4.36,82.08 5.61,83.33 5.63,84.82 C5.61,86.39 4.36,87.63 2.78,87.64 C1.27,87.63 0,86.39 0.07,84.82 L0.07,84.82 Z" fill="none" stroke="currentColor" stroke-width="1.5"/><path d="M9.07,75.94 C9.07,74.38 10.32,73.13 11.92,73.12 C13.41,73.14 14.68,74.38 14.61,75.94 C14.68,77.44 13.41,78.68 11.92,78.76 C10.32,78.68 9.07,77.45 9.07,75.94 L9.07,75.94 Z" fill="none" stroke="currentColor" stroke-width="1.5"/><path d="M47.64,13.66 C59.64,16.67 69.26,25.64 73.01,37.22 L77.44,35.83 C73.15,22.79 62.44,12.65 48.91,9.28 L47.64,13.79 L47.64,13.66 L47.64,13.66 Z" fill="none" stroke="currentColor" stroke-width="1.5"/><path d="M50.07,4.52 L51.32,0 C68.08,4.16 81.5,16.67 86.82,32.83 L82.13,34.33 C77.32,19.75 65.18,8.36 50.07,4.52 L50.07,4.52 Z" fill="none" stroke="currentColor" stroke-width="1.5"/></svg>