<svg xmlns="http://www.w3.org/2000/svg" viewBox="0 0 98.11 99.0" width="24" height="24"><path d="M65.99,25.68 L78.62,25.68 L72.71,57.34 C72.17,59.6 70.96,64.66 73.65,64.66 C79.3,64.66 86.15,58.67 86.15,44.43 C86.15,23.14 71.36,12.23 50.93,12.23 C28.63,12.23 14.38,27.8 14.38,49.62 C14.38,72.9 30.51,86.74 53.22,86.74 C63.3,86.74 72.05,83.81 78.62,78.89 L91.8,78.89 C82.25,91.94 68.54,99 52.15,99 C23.52,99 0,78.5 0,49.63 C0,21.28 22.98,0 51.34,0 C75,0 98.11,15.57 98.11,40.19 C98.11,70.66 72.84,78.64 64.92,78.64 C59.94,78.64 56.72,76.38 56.58,72.13 L56.31,72.13 C53.62,75.72 49.45,78.78 43.41,78.78 C31.84,78.78 21.23,67.87 21.23,54.7 C21.23,39.13 31.85,24.36 48.25,24.36 C55.1,24.36 60.75,26.62 64.77,32.07 L65.99,25.68 Z M60.88,49.49 C60.88,43.11 56.72,38.72 50.27,38.72 C42.48,38.72 36.96,45.64 36.96,52.55 C36.96,58.67 40.6,63.46 47.18,63.46 C55.51,63.46 60.88,57.08 60.88,49.49 Z" fill="none" stroke="currentColor" stroke-width="1.5"/></svg>