<svg xmlns="http://www.w3.org/2000/svg" viewBox="0 0 76.97 102.18" width="24" height="24"><path d="M38.53,27.94 C46.33,27.93 52.65,21.68 52.65,13.98 C52.65,6.26 46.33,0.01 38.53,0.02 C30.72,0 24.4,6.25 24.41,13.98 C24.4,21.68 30.73,27.93 38.53,27.94 L38.53,27.94 Z" fill="none" stroke="currentColor" stroke-width="1.5"/><path d="M38.53,57.14 L23.56,57.14 L23.56,46.44 L12.16,57.82 C6.99,62.93 0,56.39 5.18,51.26 L24.07,32.54 C25.61,31.05 27.29,30.09 29.97,30.07 L38.54,30.07 L38.54,30.07 L46.93,30.07 C49.58,30.09 51.37,31.02 52.94,32.54 L72.05,51.49 C76.97,56.33 69.79,62.93 65.07,57.99 L53.33,46.38 L53.33,57.14 L38.53,57.14 L38.53,57.14 L38.53,57.14 Z" fill="none" stroke="currentColor" stroke-width="1.5"/><path d="M53.28,62.64 L42.05,73.74 L50.33,81.87 L41.88,90.22 C36.88,95.14 43.75,102.18 48.91,97.12 L62.24,83.39 C65.13,80.49 65.92,75.15 62.87,72.12 C62.83,72.09 53.28,62.64 53.28,62.64 L53.28,62.64 Z" fill="none" stroke="currentColor" stroke-width="1.5"/><path d="M23.56,62.64 L34.79,73.74 L26.57,81.87 L35.02,90.22 C39.99,95.14 33.11,102.18 27.98,97.12 L14.6,83.38 C11.74,80.48 10.95,75.14 14.03,72.11 C14.03,72.09 23.56,62.64 23.56,62.64 L23.56,62.64 Z" fill="none" stroke="currentColor" stroke-width="1.5"/></svg>