<svg xmlns="http://www.w3.org/2000/svg" viewBox="0 0 98.83 82.73" width="24" height="24"><path d="M17.27,82.6 L9.96,82.6 C4.89,82.6 0,78.84 0,72.3 C0,72.3 0,25.6 0,25.46 C0,19.67 4.78,15.28 9.96,15.27 L17.27,15.27 L17.27,82.6 L17.27,82.6 Z M63.28,15.39 L63.28,5.72 C63.31,2.23 60.25,0 56.53,0.03 C56.53,0.03 42.3,0 42.36,0.03 C38.65,0 35.55,2.23 35.55,5.72 L35.55,15.4 L22.22,15.4 L22.22,82.73 L76.72,82.73 L76.72,15.39 L63.28,15.39 Z M58.27,15.39 L40.44,15.39 L40.44,5.43 L58.27,5.43 L58.27,15.39 Z M81.61,82.6 L88.92,82.6 C93.94,82.59 98.83,78.84 98.82,72.3 C98.82,72.3 98.83,25.6 98.82,25.46 C98.83,19.67 94.06,15.28 88.92,15.27 L81.61,15.27 L81.61,82.6 L81.61,82.6 Z" fill="none" stroke="currentColor" stroke-width="1.5"/></svg>