<svg xmlns="http://www.w3.org/2000/svg" viewBox="0 0 99.21 86.51" width="24" height="24"><path d="M99.21,36.04 L99.21,26.52 L92.97,26.52 L49.61,0 L6.24,26.52 L0,26.52 L0,36.04 L2.84,36.04 L2.84,76.99 L0,76.99 L0,86.51 L99.21,86.51 L99.21,76.99 L96.38,76.99 L96.38,36.04 L99.21,36.04 Z M49.61,11.14 L74.76,26.52 L24.46,26.52 L49.61,11.14 Z M30.71,77 L12.29,77 L12.29,36.04 L30.71,36.04 L30.71,77 Z M59.06,77 L40.16,77 L40.16,36.04 L59.06,36.04 L59.06,77 Z M86.93,77 L68.51,77 L68.51,36.04 L86.93,36.04 L86.93,77 Z" fill="none" stroke="currentColor" stroke-width="1.5"/></svg>