<svg xmlns="http://www.w3.org/2000/svg" viewBox="0 0 58.63 99.5" width="24" height="24"><path d="M37.61,26.93 C41.71,26.93 45.06,23.59 45.06,19.48 C45.06,15.38 41.72,12.03 37.61,12.03 C33.49,12.03 30.16,15.37 30.16,19.48 C30.16,23.59 33.49,26.93 37.61,26.93 Z M57.84,91.93 L46.85,58.59 L46.85,31.91 C46.85,28.41 43.35,28.57 43.35,28.57 L32.13,28.57 L29.17,28.57 C29.17,28.57 28.57,28.48 27.35,29.48 L19.08,34.3 L10.46,25.66 C9.05,24 6.57,23.75 4.89,25.15 C3.2,26.56 3.11,29.11 4.52,30.79 L15.52,41.8 C16.26,42.59 17.3,43.13 18.47,43.13 C19.32,43.13 20.11,42.86 20.78,42.41 L28.03,38.42 L28.03,57.99 L16.93,91.87 C16.12,94.82 17.87,97.84 20.83,98.64 C23.78,99.43 26.82,97.67 27.6,94.73 L37.29,65.49 L47.16,94.79 C47.96,97.75 50.98,99.5 53.93,98.69 C56.88,97.9 58.63,94.88 57.84,91.93 Z M2.57,34.56 C2.95,34.94 3.58,34.95 3.98,34.56 L4.11,34.45 C4.48,34.06 4.5,33.43 4.11,33.04 L1.96,30.83 C1.57,30.44 0.93,30.44 0.53,30.82 L0.42,30.94 C0.03,31.33 0,31.96 0.4,32.35 L2.57,34.56 Z M23.17,9.58 L10.46,23.31 L11.99,24.88 L26.17,12.66 L35.6,3.98 C35.97,3.55 36.22,3.01 36.22,2.42 C36.22,1.11 35.16,0.03 33.87,0.01 C33.23,0 32.68,0.25 32.24,0.62 L23.17,9.58 Z" fill="none" stroke="currentColor" stroke-width="1.5"/></svg>