<svg xmlns="http://www.w3.org/2000/svg" viewBox="0 0 99.25 59.42" width="24" height="24"><path d="M98.14,39.25 L99.25,39.19 C98.58,28.73 89.95,20.45 79.4,20.45 C76.12,20.45 73.04,21.25 70.31,22.66 L65.78,14.61 L66.98,11.92 C67.23,11.97 67.45,11.99 67.62,11.99 C68.79,11.99 72.76,8.36 71.99,6.41 C71.66,5.57 69.75,6.37 67.35,6.88 C66.82,6.99 65.17,6.98 64.22,6.88 C62,6.64 60.06,6.12 59.69,7.14 C59.25,8.37 62.28,10.21 64.83,11.24 L64.18,12.69 L31.95,12.69 L32.91,9.98 L32.65,9.89 L34.13,5.74 L34.08,5.73 L34.08,5.73 C33.49,5.52 32.17,4.85 31.89,4.09 C31.83,3.92 31.77,3.64 32.02,3.21 C32.49,2.4 36.48,2.38 40.56,3.15 L40.87,1.49 C38.8,1.1 31.95,0 30.58,2.35 C30.14,3.11 30.05,3.92 30.32,4.67 C30.63,5.52 31.36,6.15 32.04,6.59 L31.07,9.33 L30.81,9.23 L26.29,21.93 C23.97,20.98 21.44,20.45 18.78,20.45 C17.77,20.45 16.78,20.53 15.81,20.67 L15.99,21.78 C6.95,23.14 0,31 0,40.5 C0,50.95 8.41,59.42 18.78,59.42 C26.55,59.42 33.22,54.66 36.08,47.88 L37.1,48.33 C38.12,45.92 38.68,43.27 38.68,40.49 C38.68,32.9 34.49,26.3 28.32,22.89 L29.3,20.13 L47.31,40.28 C46.66,41.17 46.27,42.26 46.27,43.45 C46.27,46.44 48.67,48.86 51.64,48.86 C51.86,48.86 52.07,48.84 52.28,48.82 L53.12,52.05 L51.9,52.05 L51.9,54.3 L56.66,54.3 L56.66,52.05 L54.85,52.05 L53.9,48.37 C55.66,47.55 56.89,45.79 57,43.74 L60.84,43.33 C62.2,52.44 69.99,59.42 79.4,59.42 C89.77,59.42 98.18,50.95 98.18,40.5 C98.18,40.08 98.16,39.66 98.13,39.24 C98.14,39.24 98.14,39.24 98.14,39.25 Z M34.22,40.5 C34.22,49.09 27.31,56.05 18.78,56.05 C10.25,56.05 3.35,49.09 3.35,40.5 C3.35,31.91 10.26,24.95 18.79,24.95 C21.05,24.95 23.19,25.44 25.12,26.32 L22.58,33.45 L19.59,38.07 C19.34,37.99 19.08,37.93 18.81,37.93 C17.4,37.93 16.26,39.08 16.26,40.49 C16.26,41.91 17.4,43.05 18.81,43.05 C20.22,43.05 21.36,41.9 21.36,40.49 C21.36,39.97 21.2,39.48 20.94,39.08 L24.04,34.28 L26.62,27.09 C31.16,29.8 34.22,34.79 34.22,40.5 Z M52.79,38.18 C52.42,38.1 52.04,38.05 51.65,38.05 C51.47,38.05 51.28,38.06 51.11,38.08 L50.16,34.47 L51.52,34.47 L51.52,32.22 L46.76,32.22 L46.76,34.47 L48.43,34.47 L49.49,38.52 C49.31,38.6 49.14,38.7 48.97,38.8 L30.15,17.74 L31.14,14.95 L63.18,14.95 L52.79,38.18 Z M59.56,41.77 L56.84,42.06 C56.52,40.86 55.8,39.82 54.83,39.1 L64.94,16.51 L68.87,23.49 C63.25,27.03 59.51,33.32 59.51,40.49 C59.51,40.93 59.53,41.35 59.56,41.77 Z M63.97,40.5 C63.97,35.01 66.8,30.18 71.07,27.41 L77.29,38.44 C76.9,38.85 76.62,39.37 76.52,39.96 L64,41.3 C63.97,41.03 63.97,40.77 63.97,40.5 Z M79.4,56.05 C71.71,56.05 65.34,50.38 64.16,42.97 L76.68,41.63 C77.12,42.7 78.17,43.46 79.4,43.46 C81.03,43.46 82.35,42.13 82.35,40.49 C82.35,38.85 81.03,37.52 79.4,37.52 C79.17,37.52 78.95,37.55 78.74,37.6 L72.52,26.56 C74.59,25.52 76.93,24.93 79.4,24.93 C87.93,24.93 94.84,31.89 94.84,40.48 C94.84,49.09 87.93,56.05 79.4,56.05 Z" fill="none" stroke="currentColor" stroke-width="1.5"/></svg>