<svg xmlns="http://www.w3.org/2000/svg" viewBox="0 0 98.88 54.11" width="24" height="24"><path d="M81.46,18.87 C78.42,18.87 75.55,19.67 73.06,21.06 C71.49,18.68 69.92,16.3 68.35,13.92 C69.05,12.7 69.76,11.48 70.46,10.25 C71.47,10.7 72.49,11.15 73.5,11.6 C74.24,11.93 75.16,11.55 75.16,10.64 C75.16,8.92 75.16,7.2 75.16,5.48 C75.16,5.17 75.05,4.95 74.89,4.77 C74.87,4.74 74.86,4.72 74.83,4.69 C74.81,4.67 74.78,4.65 74.76,4.63 C74.59,4.47 74.36,4.36 74.06,4.36 C70.19,4.36 66.33,4.36 62.46,4.36 C61.43,4.36 60.86,5.97 61.9,6.44 C63.85,7.31 65.8,8.18 67.74,9.04 C67.02,10.29 66.31,11.53 65.59,12.78 C54.6,12.78 43.61,12.78 32.61,12.78 C33.61,11.27 34.69,9.51 33.88,8.01 C33.42,7.16 32.99,6.29 32.57,5.41 C32.25,4.74 31.97,4.05 31.73,3.34 C31.67,3.19 31.66,3.07 31.66,2.98 L33.96,2.98 C35.89,2.98 37.82,2.98 39.76,2.98 C40.56,2.98 41.35,2.98 42.15,2.98 C44.05,2.98 44.05,0 42.15,0 C38.86,0 35.58,0 32.29,0 C30.27,0 28.62,0 28.53,2.4 C28.45,4.56 30.13,7.19 31.08,9.03 C31.11,9.08 31.13,9.12 31.16,9.17 C30.92,9.6 30.67,10.03 30.43,10.46 C28.53,13.81 26.64,17.17 24.74,20.52 C22.51,19.47 20.03,18.86 17.41,18.86 C7.82,18.87 0,26.78 0,36.49 C0,46.2 7.81,54.11 17.42,54.11 C27.02,54.11 34.84,46.21 34.84,36.49 C34.84,30.49 31.85,25.19 27.31,22 C28.08,20.64 28.85,19.27 29.62,17.91 C36.11,23.23 42.61,28.55 49.1,33.86 C48.43,34.76 48.01,35.87 48.01,37.08 C48.01,40.04 50.38,42.45 53.31,42.45 C53.48,42.45 53.64,42.42 53.81,42.4 L53.81,42.43 L64.68,41.17 C66.71,48.61 73.46,54.11 81.45,54.11 C91.06,54.11 98.87,46.21 98.87,36.49 C98.88,26.78 91.06,18.87 81.46,18.87 Z M31.89,36.49 C31.89,44.56 25.4,51.13 17.41,51.13 C9.43,51.13 2.93,44.56 2.93,36.49 C2.93,28.42 9.42,21.85 17.41,21.85 C19.5,21.85 21.48,22.31 23.28,23.12 C21.27,26.67 19.26,30.23 17.25,33.78 C15.84,33.87 14.71,35.04 14.71,36.49 C14.71,38 15.92,39.22 17.41,39.22 C18.9,39.22 20.11,38 20.11,36.49 C20.11,36.04 19.99,35.63 19.81,35.26 C21.82,31.71 23.83,28.16 25.83,24.61 C29.5,27.26 31.89,31.59 31.89,36.49 Z M72.25,25.2 C74.07,27.96 75.89,30.73 77.71,33.49 L67.47,32.75 C68.26,29.75 69.95,27.12 72.25,25.2 Z M64.5,32.54 L57.92,32.06 C60.85,26.97 63.78,21.88 66.71,16.79 C68.01,18.77 69.32,20.75 70.62,22.73 C67.59,25.17 65.4,28.6 64.5,32.54 Z M54.64,31.83 L53.31,31.73 C52.69,31.73 52.09,31.86 51.54,32.06 C44.91,26.63 38.28,21.2 31.65,15.77 C42.39,15.77 53.14,15.77 63.88,15.77 C60.8,21.12 57.72,26.47 54.64,31.83 Z M81.46,51.13 C74.97,51.13 69.47,46.79 67.63,40.83 L81.46,39.22 C82.95,39.22 84.16,38 84.16,36.49 C84.16,34.98 82.95,33.76 81.46,33.76 L81.43,33.76 C79.19,30.36 76.95,26.96 74.7,23.56 C76.72,22.48 79.02,21.86 81.46,21.86 C89.44,21.86 95.94,28.43 95.94,36.5 C95.93,44.56 89.44,51.13 81.46,51.13 Z" fill="none" stroke="currentColor" stroke-width="1.5"/></svg>