<svg xmlns="http://www.w3.org/2000/svg" viewBox="0 0 98.88 98.44" width="24" height="24"><path d="M40.48,0 L21.67,0 L21.67,13.61 L40.48,13.61 L40.48,0 Z M61.71,58.74 C59.93,58.74 58.49,57.28 58.49,55.48 L58.49,17.87 L86.91,17.87 L98.88,69.18 L98.82,72.5 L98.82,95.18 C98.82,96.92 97.43,98.35 95.69,98.35 L68.06,98.35 C66.32,98.35 64.93,96.92 64.93,95.18 L64.93,58.74 L61.93,58.74 Z M37.17,58.81 C38.95,58.81 40.39,57.37 40.39,55.57 L40.39,17.93 L12,17.93 L0,69.24 L0.06,72.59 L0.06,95.27 C0.06,97.01 1.47,98.44 3.19,98.44 L30.81,98.44 C32.56,98.44 33.97,97.01 33.97,95.27 L33.97,58.81 L36.92,58.81 Z M54.3,17.93 L44.56,17.93 L44.56,52.87 L54.3,52.87 L54.3,17.93 Z M77.31,0 L58.48,0 L58.48,13.61 L77.3,13.61 L77.3,0 Z" fill="none" stroke="currentColor" stroke-width="1.5"/></svg>