<svg xmlns="http://www.w3.org/2000/svg" viewBox="0 0 96.67 98.89" width="24" height="24"><path d="M50.51,12.21 C53.87,12.48 56.79,10.02 57.07,6.71 C57.33,3.4 54.83,0.52 51.46,0.25 C48.13,0 45.19,2.47 44.93,5.78 C44.65,9.06 47.15,11.96 50.51,12.21 Z" fill="none" stroke="currentColor" stroke-width="1.5"/><path d="M45.35,14.68 C46.55,13.86 48.01,13.31 49.63,13.45 C51.71,13.61 53.43,14.89 54.47,16.44 L60.61,28.46 L68.99,34.15 C69.71,34.7 70.15,35.57 70.05,36.52 C69.94,38 68.62,39.12 67.11,38.99 C66.65,38.97 66.28,38.78 65.86,38.6 L56.72,32.39 C56.44,32.16 56.21,31.89 56.03,31.59 L53.74,27.09 L50.98,39.06 L61.77,51.65 C62.03,52.04 62.19,52.49 62.28,52.95 L65.2,68.14 C65.18,68.48 65.22,68.69 65.2,68.96 C65.04,71.22 63.05,72.87 60.78,72.71 C58.9,72.55 57.52,71.18 57.08,69.49 L54.32,55.26 L45.54,45.78 L43.5,55.01 C43.43,55.44 42.85,56.36 42.69,56.72 L34.26,70.72 C33.43,72 32.01,72.82 30.42,72.68 C28.13,72.52 26.44,70.56 26.62,68.32 C26.67,67.68 26.94,67.02 27.18,66.56 L35,53.61 L41.53,25.08 L37.27,28.47 L35,38.63 C34.7,39.93 33.5,41.01 32.08,40.89 C30.55,40.78 29.44,39.47 29.56,37.97 C29.56,37.86 29.58,37.74 29.61,37.6 L32.3,25.74 C32.46,25.24 32.74,24.78 33.13,24.44 L45.35,14.68 Z" fill="none" stroke="currentColor" stroke-width="1.5"/><rect x="16.85" y="87.84" width="7.92" height="11.05" fill="none" stroke="currentColor"/><rect x="71.86" y="87.84" width="7.92" height="11.05" fill="none" stroke="currentColor"/><rect x="0" y="78.02" width="9.65" height="5.28" fill="none" stroke="currentColor"/><rect x="74.33" y="78.02" width="9.65" height="5.28" fill="none" stroke="currentColor"/><rect x="87.02" y="78.02" width="9.65" height="5.28" fill="none" stroke="currentColor"/><rect x="61.95" y="78.02" width="9.65" height="5.28" fill="none" stroke="currentColor"/><rect x="49.56" y="78.02" width="9.66" height="5.28" fill="none" stroke="currentColor"/><rect x="37.17" y="78.02" width="9.63" height="5.28" fill="none" stroke="currentColor"/><rect x="24.79" y="78.02" width="9.63" height="5.28" fill="none" stroke="currentColor"/><rect x="12.4" y="78.02" width="9.63" height="5.28" fill="none" stroke="currentColor"/></svg>