<svg xmlns="http://www.w3.org/2000/svg" viewBox="0 0 98.67 92.8" width="24" height="24"><path d="M74.76,86.75 L74.76,54.31 L92.67,54.31 C92.67,70.29 92.67,83.38 92.67,86.75 C90.42,86.75 82.8,86.75 74.76,86.75 Z M53,54.31 L70.77,54.31 L70.77,86.75 C62.8,86.75 55.25,86.75 53,86.75 C53,83.38 53,70.29 53,54.31 Z M70.77,28.31 L70.77,50.27 L53,50.27 C53,43.3 53,29.89 53,28.31 C55.25,28.31 62.8,28.31 70.77,28.31 Z M92.68,50.27 L74.76,50.27 L74.76,28.31 C82.79,28.31 90.42,28.31 92.67,28.31 C92.68,29.89 92.68,43.3 92.68,50.27 Z M95.66,22.24 L83.78,22.24 L93.34,18.34 C94.38,17.92 94.87,16.74 94.45,15.71 C94.03,14.68 92.87,14.17 91.86,14.59 C91.86,14.59 86.44,16.8 81.1,18.98 C85.44,14.62 89.89,10.15 89.89,10.15 C90.28,9.76 90.48,9.23 90.48,8.72 C90.48,8.2 90.28,7.68 89.9,7.3 C89.12,6.5 87.87,6.5 87.08,7.29 L74.7,19.74 L74.76,2.04 C74.76,0.92 73.88,0 72.78,0 L72.77,0 C71.67,0 70.78,0.9 70.77,2.01 C70.77,2.01 70.73,13.71 70.72,19.71 C66.73,15.65 59.62,8.38 59.62,8.38 C58.84,7.59 57.59,7.58 56.8,8.37 C56.02,9.16 56.01,10.44 56.79,11.23 L64.52,19.12 L53.41,14.62 C52.39,14.21 51.22,14.71 50.82,15.75 C50.4,16.79 50.91,17.97 51.93,18.38 L61.49,22.24 L50.02,22.24 C48.36,22.24 47.01,23.6 47.01,25.27 L47.01,89.76 C47.01,91.45 48.35,92.79 50.02,92.79 L95.66,92.79 C97.31,92.79 98.67,91.44 98.67,89.76 L98.67,25.28 C98.67,23.61 97.31,22.24 95.66,22.24 Z M4.99,83.45 C4.99,83.45 5,81.34 5,81.05 C7.93,81.05 24.66,81.05 32.45,81.05 C32.03,81.95 31.7,82.92 31.52,83.91 C31.29,85.26 31.4,86.52 31.71,87.72 L9.12,87.65 C6.84,87.63 4.99,85.75 4.99,83.45 Z M35.58,29.11 C35.58,33.44 35.53,71.67 35.53,76 C32.48,76 16.61,76 9.41,76 L27.2,60.89 L27.16,29.09 C28.78,29.09 34.07,29.1 35.58,29.11 Z M38.34,87.74 L37.17,87.74 C36.49,86.95 36.23,85.98 36.44,84.78 C36.79,82.81 38.19,81.15 38.86,80.91 L38.86,80.89 C39.82,80.54 40.51,79.63 40.51,78.54 L40.57,26.6 C40.57,25.21 39.45,24.08 38.08,24.07 C38.08,24.07 30.01,24.05 27.17,24.04 C27.17,21.59 27.19,18.23 27.19,18.23 C27.19,17.21 26.59,16.29 25.65,15.9 C24.73,15.51 23.65,15.72 22.93,16.44 L5.59,33.88 C2.56,36.94 0.14,42.75 0.13,47.11 L0,83.43 C0,88.53 4.07,92.68 9.09,92.7 L38.33,92.8 C39.7,92.8 40.82,91.68 40.83,90.28 L40.83,90.28 C40.83,88.87 39.72,87.75 38.34,87.74 Z" fill="none" stroke="currentColor" stroke-width="1.5"/></svg>