<svg xmlns="http://www.w3.org/2000/svg" viewBox="0 0 98.66 85.41" width="24" height="24"><path d="M98.66,42.67 C98.66,46.93 97.01,50.8 94.33,53.68 C93.87,59.76 90.07,64.89 84.77,67.2 L84.77,67.26 C78.3,71.08 74.44,77.59 73.26,85.41 L67.28,85.41 L67.28,67.27 C67.32,61.62 69.07,58 72.75,55.77 C74.09,54.99 75.32,54.09 76.36,53.09 C79.09,54.08 81.5,56.03 83.04,58.8 C83.36,59.35 83.93,59.65 84.5,59.65 C84.77,59.65 85.06,59.58 85.32,59.43 C86.14,58.97 86.43,57.94 85.97,57.12 L85.96,57.12 C84.24,54.02 81.62,51.73 78.65,50.37 C80.17,47.99 81.02,45.17 80.98,41.77 C80.98,41.75 81,41.74 81,41.71 C81,40.18 80.78,38.68 80.37,37.28 C83.86,36.6 86.94,34.81 89.2,32.28 C89.83,31.58 89.78,30.51 89.09,29.88 C88.4,29.25 87.36,29.31 86.74,29.99 C84.77,32.17 82.1,33.65 79.08,34.06 C76.65,29.49 72.12,26.25 66.82,25.66 C67.17,22.76 68.46,20.18 70.4,18.21 C71.04,17.55 71.04,16.48 70.4,15.82 C69.75,15.15 68.67,15.15 68.02,15.82 C65.54,18.34 63.88,21.7 63.46,25.44 C57.23,24.64 52.44,19.29 52.43,12.77 C52.43,11.84 51.67,11.07 50.78,11.07 C49.83,11.07 49.09,11.84 49.09,12.77 C49.09,13.87 49.2,14.92 49.4,15.96 C47.04,18.03 44.1,19.07 41.16,19.07 C39.71,19.07 38.25,18.81 36.88,18.3 C36.88,18.3 36.86,18.29 36.84,18.29 C35.15,17.67 33.59,16.69 32.25,15.32 C31.61,14.66 30.54,14.66 29.88,15.32 C29.22,15.98 29.22,17.05 29.88,17.71 C31.26,19.1 32.81,20.18 34.46,20.96 C34.13,25.18 31.71,28.81 28.32,30.85 C26.36,27.84 23.42,25.45 19.81,24.29 C18.91,24.01 17.97,24.5 17.69,25.39 C17.44,26.28 17.89,27.23 18.78,27.51 C21.46,28.37 23.62,30.05 25.17,32.19 C24.13,32.47 23.06,32.63 21.92,32.63 C21.92,32.63 21.92,32.63 21.9,32.63 L21.75,32.63 C17.46,32.63 13.51,34.36 10.64,37.2 C9.96,37.85 9.95,38.93 10.61,39.59 C10.93,39.93 11.37,40.1 11.82,40.1 C12.2,40.1 12.62,39.94 12.95,39.62 C15.23,37.37 18.33,36.01 21.75,36.01 L21.93,36.01 L21.93,36.01 L21.95,36.01 C30,36.01 36.68,29.94 37.73,22.06 C38.87,22.31 40.02,22.45 41.18,22.45 C44.45,22.45 47.74,21.42 50.52,19.39 C51.53,21.74 53.14,23.79 55.08,25.38 C53.1,27.86 51.93,30.8 51.62,33.81 C50.78,33.67 49.91,33.6 49.03,33.6 C46.51,33.6 43.95,34.21 41.56,35.5 C40.74,35.94 40.43,36.97 40.87,37.79 C41.17,38.35 41.76,38.68 42.36,38.68 C42.63,38.68 42.88,38.62 43.12,38.47 C45.04,37.45 47.04,36.97 49.03,36.97 C49.92,36.97 50.79,37.07 51.62,37.25 C51.98,40.68 53.45,44.04 55.96,46.71 C56.3,47.06 56.73,47.23 57.16,47.23 C57.57,47.23 57.99,47.08 58.33,46.76 C59.01,46.11 59.03,45.04 58.38,44.37 L58.37,44.37 C56.13,41.97 54.95,38.93 54.87,35.85 C54.87,35.8 54.88,35.77 54.87,35.72 C54.87,35.66 54.87,35.59 54.87,35.53 C54.87,32.54 55.89,29.59 57.91,27.21 C60.03,28.28 62.45,28.91 65.02,28.91 C65.02,28.91 65.03,28.92 65.05,28.92 C65.05,28.92 65.06,28.92 65.08,28.92 C72.02,28.94 77.63,34.62 77.66,41.66 C76.34,41.31 74.99,41.13 73.6,41.13 C71.61,41.13 69.59,41.5 67.65,42.31 C66.79,42.67 66.38,43.65 66.73,44.51 C67.08,45.37 68.04,45.79 68.9,45.44 C70.46,44.81 72.04,44.5 73.61,44.5 C74.87,44.5 76.12,44.69 77.29,45.06 C76.88,46.96 76.08,48.48 74.84,49.83 C74.74,49.91 74.65,50.01 74.58,50.12 C73.63,51.07 72.48,51.94 71.07,52.81 C66.23,55.67 63.91,60.87 63.96,67.23 L63.96,85.36 L58.25,85.36 L58.25,68.16 C58.25,61.83 54.33,55.82 49.4,53.69 C47.05,52.76 44.59,51.21 42.8,49.18 C40.25,50.93 37.19,51.97 33.9,51.97 C30.6,51.97 27.54,50.95 25.01,49.21 C22.49,50.89 19.44,51.87 16.19,51.87 C7.23,51.87 0,44.52 0,35.46 C0,28.69 4.04,22.88 9.83,20.38 C11.39,13.15 17.71,7.75 25.31,7.75 C25.71,7.75 26.08,7.78 26.46,7.81 C29.32,3.57 34.14,0.78 39.59,0.78 C42.29,0.78 44.83,1.46 47.05,2.68 C49.55,0.98 52.56,0 55.79,0 C59.94,0 63.73,1.64 66.56,4.31 C67.75,4.02 68.98,3.85 70.26,3.85 C76.68,3.85 82.23,7.76 84.7,13.37 C91.21,15.37 95.95,21.49 95.95,28.74 C95.95,30.19 95.76,31.6 95.41,32.93 C97.44,35.63 98.66,39 98.66,42.67 Z" fill="none" stroke="currentColor" stroke-width="1.5"/></svg>