<svg xmlns="http://www.w3.org/2000/svg" viewBox="0 0 99.16 26.3" width="24" height="24"><path d="M76.21,19.1 C74.24,19.1 72.64,20.71 72.64,22.7 C72.64,24.69 74.24,26.3 76.21,26.3 C78.18,26.3 79.78,24.69 79.78,22.7 C79.78,20.71 78.18,19.1 76.21,19.1 Z M76.21,24.79 C75.07,24.79 74.14,23.86 74.14,22.7 C74.14,21.54 75.07,20.61 76.21,20.61 C77.35,20.61 78.28,21.54 78.28,22.7 C78.28,23.86 77.35,24.79 76.21,24.79 Z" fill="none" stroke="currentColor" stroke-width="1.5"/><path d="M17.35,19.1 C15.38,19.1 13.78,20.71 13.78,22.7 C13.78,24.69 15.38,26.3 17.35,26.3 C19.32,26.3 20.92,24.69 20.92,22.7 C20.92,20.71 19.33,19.1 17.35,19.1 Z M17.35,24.79 C16.21,24.79 15.28,23.86 15.28,22.7 C15.28,21.54 16.21,20.61 17.35,20.61 C18.49,20.61 19.42,21.54 19.42,22.7 C19.42,23.86 18.5,24.79 17.35,24.79 Z" fill="none" stroke="currentColor" stroke-width="1.5"/><ellipse cx="17.35" cy="22.630000000000003" rx="0.71" ry="0.71" fill="none" stroke="currentColor"/><ellipse cx="76.21" cy="22.630000000000003" rx="0.71" ry="0.71" fill="none" stroke="currentColor"/><rect x="18.75" y="0" width="25.94" height="3.87" fill="none" stroke="currentColor"/><path d="M17.35,0 L14.05,2.93 L14.05,3.88 L18.3,3.88 L18.3,0 Z" fill="none" stroke="currentColor" stroke-width="1.5"/><rect x="45.13" y="0" width="25.94" height="3.87" fill="none" stroke="currentColor"/><path d="M72.47,0 L75.77,2.93 L75.77,3.88 L71.52,3.88 L71.52,0 Z" fill="none" stroke="currentColor" stroke-width="1.5"/><path d="M99.16,21.32 L98.02,20.35 L96.26,4.27 L2.08,4.27 L2.08,7.75 L3.54,7.75 C3.54,7.75 2.19,10.21 1.94,12.52 L1.19,21.85 L0.15,21.91 L0,24.14 L13,24.14 C12.85,23.69 12.77,23.2 12.77,22.7 C12.77,20.15 14.82,18.08 17.35,18.08 C19.88,18.08 21.93,20.15 21.93,22.7 C21.93,23.2 21.85,23.69 21.7,24.14 L71.85,24.14 C71.7,23.69 71.62,23.2 71.62,22.7 C71.62,20.15 73.67,18.08 76.2,18.08 C78.73,18.08 80.78,20.15 80.78,22.7 C80.78,23.2 80.7,23.69 80.55,24.14 L85.81,24.14 L97.95,22.77 L99.16,22.77 L99.16,21.32 Z M12.28,15.05 C12.28,15.95 11.55,16.69 10.65,16.69 L5.48,16.69 C4.58,16.69 3.85,15.96 3.85,15.05 L3.85,10.03 C3.85,9.12 4.58,8.39 5.48,8.39 L10.65,8.39 C11.55,8.39 12.28,9.12 12.28,10.03 L12.28,15.05 Z M79.61,8.4 L86.9,8.4 C87.76,8.4 88.47,9.08 88.52,9.94 L77.99,9.94 C78.04,9.08 78.75,8.4 79.61,8.4 Z M66.8,8.4 L74.09,8.4 C74.95,8.4 75.66,9.08 75.71,9.94 L65.18,9.94 C65.23,9.08 65.94,8.4 66.8,8.4 Z M53.83,8.4 L61.44,8.4 C62.3,8.4 63.01,9.08 63.06,9.94 L52.21,9.94 C52.26,9.08 52.97,8.4 53.83,8.4 Z M41.03,8.4 L48.64,8.4 C49.5,8.4 50.21,9.08 50.26,9.94 L39.4,9.94 C39.46,9.08 40.16,8.4 41.03,8.4 Z M28.22,8.4 L35.83,8.4 C36.69,8.4 37.4,9.08 37.45,9.94 L26.6,9.94 C26.65,9.08 27.35,8.4 28.22,8.4 Z M15.41,8.4 L23.02,8.4 C23.88,8.4 24.59,9.08 24.64,9.94 L13.79,9.94 C13.84,9.08 14.54,8.4 15.41,8.4 Z M23.02,16.69 L15.41,16.69 C14.51,16.69 13.78,15.96 13.78,15.05 L13.78,10.53 L24.64,10.53 L24.64,15.05 C24.64,15.96 23.92,16.69 23.02,16.69 Z M35.83,16.69 L28.22,16.69 C27.32,16.69 26.59,15.96 26.59,15.05 L26.59,10.53 L37.45,10.53 L37.45,15.05 C37.45,15.96 36.72,16.69 35.83,16.69 Z M48.64,16.69 L41.03,16.69 C40.13,16.69 39.4,15.96 39.4,15.05 L39.4,10.53 L50.26,10.53 L50.26,15.05 C50.26,15.96 49.53,16.69 48.64,16.69 Z M61.44,16.69 L53.83,16.69 C52.93,16.69 52.2,15.96 52.2,15.05 L52.2,10.53 L63.06,10.53 L63.06,15.05 C63.07,15.96 62.34,16.69 61.44,16.69 Z M74.09,15.2 L66.8,15.2 C65.9,15.2 65.17,14.47 65.17,13.56 L65.17,10.53 L75.71,10.53 L75.71,13.56 C75.72,14.47 74.99,15.2 74.09,15.2 Z M86.9,15.2 L79.61,15.2 C78.71,15.2 77.98,14.47 77.98,13.56 L77.98,10.53 L88.52,10.53 L88.52,13.56 C88.53,14.47 87.8,15.2 86.9,15.2 Z" fill="none" stroke="currentColor" stroke-width="1.5"/></svg>