<svg xmlns="http://www.w3.org/2000/svg" viewBox="0 0 99.13 98.71" width="24" height="24"><path d="M99.13,59.23 L92.24,11.08 C92.24,11.08 90.67,0 79.46,0 L19.67,0 C8.46,0 6.88,11.08 6.88,11.08 L0,59.23 L2.75,75.15 L0.98,77.36 L0.98,88.64 L8.45,88.64 L8.45,98.71 L26.54,98.71 L26.54,88.64 L72.56,88.64 L72.56,98.71 L90.66,98.71 L90.66,88.64 L98.13,88.64 L98.13,77.36 L96.36,75.14 L99.13,59.23 Z M29.01,2.41 L70.12,2.41 L70.12,13.69 L29.01,13.69 L29.01,2.41 Z M8.75,19.34 L27.24,17.32 L46.71,17.32 L46.71,47.94 L5.21,47.94 L8.75,19.34 Z M25.81,68.7 C25.81,71.15 23.87,73.13 21.48,73.13 C19.64,73.13 18.08,71.96 17.45,70.31 C16.82,71.96 15.25,73.13 13.42,73.13 C11.03,73.13 9.09,71.14 9.09,68.7 C9.09,66.25 11.03,64.27 13.42,64.27 C15.26,64.27 16.82,65.44 17.45,67.09 C18.08,65.44 19.65,64.27 21.48,64.27 C23.88,64.26 25.81,66.25 25.81,68.7 Z M91.06,79.58 L8.06,79.58 L8.06,77.97 L91.06,77.97 L91.06,79.58 Z M73.31,68.7 C73.31,66.25 75.25,64.27 77.64,64.27 C79.48,64.27 81.04,65.44 81.67,67.09 C82.3,65.44 83.87,64.27 85.7,64.27 C88.09,64.27 90.03,66.25 90.03,68.7 C90.03,71.15 88.09,73.13 85.7,73.13 C83.86,73.13 82.3,71.96 81.67,70.31 C81.04,71.96 79.47,73.13 77.64,73.13 C75.25,73.13 73.31,71.15 73.31,68.7 Z M52.41,47.95 L52.41,17.32 L71.89,17.32 L90.38,19.34 L93.92,47.95 L52.41,47.95 Z" fill="none" stroke="currentColor" stroke-width="1.5"/></svg>