<svg xmlns="http://www.w3.org/2000/svg" viewBox="0 0 99.25 72.39" width="24" height="24"><path d="M58.38,17.95 C66.28,17.95 73.13,22.33 76.91,28.78 L99.22,28.81 L99.22,16.63 C99.22,12.1 95.6,8.42 91.16,8.42 L8.03,8.42 C3.58,8.42 0,12.1 0,16.63 L0.02,28.71 L39.83,28.74 C43.64,22.31 50.47,17.95 58.38,17.95 Z M20.84,4.56 L13.44,4.56 L12.59,7.27 L21.45,7.27 L20.84,4.56 Z M87.52,3.11 L77.67,3.11 L75.93,7.3 L89.12,7.3 L87.52,3.11 Z M53.73,5.85 L45.26,5.85 L45.26,1.67 L53.73,1.67 L53.73,5.85 Z M61.5,0 L37.57,0 L32.64,7.35 L66.01,7.35 L61.5,0 Z M78.07,30.97 C79.3,33.74 80.03,36.78 80.03,40.03 C80.03,52.21 70.33,62.1 58.38,62.1 C46.41,62.1 36.71,52.21 36.71,40.03 C36.71,36.79 37.43,33.74 38.67,30.96 L0,30.96 L0,64.21 C0,68.72 3.58,72.39 8.04,72.39 L91.17,72.39 C95.61,72.39 99.23,68.71 99.23,64.21 L99.25,30.97 L78.07,30.97 Z M70.18,32.77 C69.84,32.15 69.41,31.58 68.95,31.03 C66.42,27.93 62.64,25.89 58.38,25.89 C54.1,25.89 50.32,27.92 47.79,31 C47.33,31.56 46.9,32.14 46.53,32.77 C45.26,34.9 44.49,37.35 44.49,40.02 C44.49,47.81 50.7,54.13 58.37,54.13 C66,54.13 72.22,47.8 72.22,40.02 C72.22,37.36 71.47,34.9 70.18,32.77 Z" fill="none" stroke="currentColor" stroke-width="1.5"/></svg>