<svg xmlns="http://www.w3.org/2000/svg" viewBox="0 0 103.33 49.49" width="24" height="24"><path d="M79.94,0 C77.31,0 75.17,2.14 75.17,4.81 C75.17,7.48 77.31,9.64 79.94,9.64 C82.57,9.64 84.71,7.48 84.71,4.81 C84.71,2.14 82.57,0 79.94,0 Z M39.92,0 C37.29,0 35.15,2.14 35.15,4.81 C35.15,7.48 37.29,9.64 39.92,9.64 C42.55,9.64 44.69,7.48 44.69,4.81 C44.7,2.14 42.56,0 39.92,0 Z M100.38,32.77 C100.38,32.77 99.08,27.26 94.3,22.32 C94.3,22.32 94,28.99 70.23,31.44 C69.39,30.44 68.84,28.74 72.34,27.05 L79.62,29.57 C79.62,29.57 81.14,29.46 80.49,27.82 L75.81,25.17 C75.81,25.17 74.83,23.63 75.7,23.09 C76.57,22.54 77.33,21.32 77.33,21.32 C77.33,21.32 78.52,20.55 79.83,20.99 C81.14,21.43 82,20.54 82.66,19.89 L86.47,15.91 C86.47,15.91 88.42,14.27 89.29,14.39 C90.16,14.49 89.5,11.84 89.5,11.84 C89.5,11.84 85.48,13.72 83.3,15.59 C83.3,15.59 81.68,17.02 80.48,15.26 C80.48,15.26 76.35,10.74 75.04,10.19 C75.04,10.19 73.62,8.88 71.78,10.54 C71.78,10.54 66.23,14.04 62.21,20.54 C62.21,20.54 57.91,27.22 58.74,32.19 C56.52,32.27 54.16,32.31 51.66,32.32 C42.64,32.28 35.53,31.8 29.93,31.06 C29.29,30.04 29.21,28.54 32.31,27.04 L39.59,29.56 C39.59,29.56 41.11,29.45 40.46,27.81 L35.78,25.16 C35.78,25.16 34.8,23.62 35.67,23.08 C36.54,22.53 37.3,21.31 37.3,21.31 C37.3,21.31 38.49,20.54 39.8,20.98 C41.11,21.42 41.97,20.53 42.63,19.88 L46.44,15.9 C46.44,15.9 48.39,14.26 49.26,14.38 C50.13,14.48 49.47,11.83 49.47,11.83 C49.47,11.83 45.45,13.71 43.27,15.58 C43.27,15.58 41.65,17.01 40.45,15.25 C40.45,15.25 36.32,10.73 35.01,10.18 C35.01,10.18 33.59,8.87 31.75,10.53 C31.75,10.53 26.2,14.03 22.18,20.53 C22.18,20.53 19.53,24.64 18.79,28.81 C9.18,25.92 9.02,22.3 9.02,22.3 C4.23,27.24 2.93,32.75 2.93,32.75 C0,41.23 7.39,45.84 7.39,45.84 C13.04,49.49 15.81,43.59 15.81,43.59 C17.06,45.39 19.3,47.95 21.84,47.95 C24.34,47.95 26.52,45.38 27.78,43.62 C29.05,45.33 31.15,47.8 33.62,47.8 C36.25,47.8 38.48,45.27 39.69,43.34 C40.95,45.17 43.11,47.8 45.66,47.8 C48.21,47.8 50.37,45.28 51.62,43.46 C52.87,45.27 55.01,47.87 57.57,47.87 C60.08,47.87 62.21,45.39 63.47,43.63 C64.74,45.38 66.86,47.94 69.36,47.94 C72,47.94 74.26,45.36 75.48,43.42 C76.73,45.23 78.91,47.86 81.47,47.86 C83.96,47.86 86.17,45.33 87.44,43.6 C87.44,43.6 90.22,49.48 95.88,45.83 C95.93,45.86 103.33,41.25 100.38,32.77 Z" fill="none" stroke="currentColor" stroke-width="1.5"/></svg>