<svg xmlns="http://www.w3.org/2000/svg" viewBox="0 0 98.87 87.71" width="24" height="24"><path d="M33.85,18.55 C38.93,18.55 43.02,14.39 43.02,9.27 C43.02,4.15 38.93,0 33.85,0 C28.79,0 24.68,4.15 24.68,9.27 C24.69,14.39 28.79,18.55 33.85,18.55 Z M0.02,69.26 C2.17,69.26 4.23,68.76 6.08,67.92 C7.98,67.03 10.12,66.51 12.35,66.51 C14.58,66.51 16.72,67.03 18.61,67.92 C20.47,68.76 22.55,69.25 24.72,69.25 C26.88,69.25 28.95,68.76 30.8,67.92 C32.69,67.03 34.83,66.51 37.07,66.51 C39.3,66.51 41.43,67.03 43.34,67.92 C45.18,68.76 47.27,69.25 49.42,69.25 C51.57,69.25 53.66,68.76 55.5,67.92 C57.41,67.03 59.54,66.51 61.78,66.51 C64.01,66.51 66.14,67.03 68.04,67.92 C69.9,68.76 71.98,69.25 74.14,69.25 C76.31,69.25 78.37,68.76 80.24,67.92 C82.13,67.03 84.27,66.51 86.5,66.51 C88.41,66.51 90.26,66.88 91.94,67.54 C94.66,64.53 96.35,60.52 96.35,56.13 C96.35,46.79 88.87,39.22 79.64,39.22 L77.77,39.42 C75.72,47.85 67.38,48.21 67.38,48.21 L29.25,48.21 L26.06,46.31 L33.75,33.26 L42.17,38.18 C47.21,41.49 49.84,36.85 49.84,36.85 L58.28,22.93 C61.95,16.88 54.16,12.03 50.52,18.1 L44.61,27.86 L30.56,20 C20.83,14.51 16.7,23.6 16.7,23.6 L5.67,42.72 C3.79,46.69 5.47,48.4 5.47,48.4 L0.02,48.39 L0.02,69.26 Z M98.87,87.71 C96.71,87.71 94.64,87.22 92.8,86.38 C90.89,85.49 88.76,84.97 86.52,84.97 C84.29,84.97 82.15,85.49 80.26,86.38 C78.4,87.22 76.33,87.71 74.16,87.71 C72,87.71 69.93,87.22 68.06,86.38 C66.16,85.49 64.03,84.97 61.8,84.97 C59.56,84.97 57.43,85.49 55.52,86.38 C53.68,87.22 51.59,87.71 49.44,87.71 C47.29,87.71 45.2,87.22 43.36,86.38 C41.45,85.49 39.32,84.97 37.09,84.97 C34.85,84.97 32.7,85.49 30.82,86.38 C28.97,87.22 26.89,87.71 24.74,87.71 C22.57,87.71 20.5,87.22 18.63,86.38 C16.74,85.49 14.6,84.97 12.37,84.97 C10.14,84.97 8,85.49 6.1,86.38 C4.23,87.23 2.15,87.71 0,87.71 L0,78.49 C2.16,78.49 4.23,77.99 6.08,77.15 C7.98,76.26 10.12,75.74 12.35,75.74 C14.58,75.74 16.72,76.26 18.61,77.15 C20.47,77.99 22.55,78.49 24.72,78.49 C26.88,78.49 28.95,77.99 30.8,77.15 C32.69,76.26 34.83,75.74 37.07,75.74 C39.3,75.74 41.43,76.26 43.34,77.15 C45.18,77.99 47.27,78.49 49.42,78.49 C51.57,78.49 53.66,77.99 55.5,77.15 C57.41,76.26 59.54,75.74 61.78,75.74 C64.01,75.74 66.14,76.26 68.04,77.15 C69.9,77.99 71.98,78.49 74.14,78.49 C76.31,78.49 78.37,77.99 80.24,77.15 C82.13,76.26 84.27,75.74 86.5,75.74 C88.74,75.74 90.87,76.26 92.78,77.15 C94.62,77.99 96.7,78.49 98.85,78.49 L98.85,87.71 Z" fill="none" stroke="currentColor" stroke-width="1.5"/></svg>