<svg xmlns="http://www.w3.org/2000/svg" viewBox="0 0 99.32 88.94" width="24" height="24"><path d="M98.26,44.27 C97.84,40.13 97.84,40.73 96.3,36.25 C94.73,31.71 91.43,22.83 89.06,17.58 C86.64,12.27 84.07,7.73 82.2,4.93 C80.35,2.13 79.85,1.9 78.1,1.12 C76.29,0.33 73.97,0.46 71.65,0.32 C69.35,0.11 66.94,0 64.38,0 L35.15,0 C32.53,0 30.06,0.1 27.75,0.31 C25.42,0.46 23.04,0.32 21.28,1.11 C19.5,1.88 18.99,2.12 17.18,4.92 C15.27,7.72 12.74,12.26 10.34,17.57 C7.95,22.82 4.64,31.71 3.11,36.24 C1.56,40.72 1.5,40.12 1.14,44.26 C0.74,48.44 0,56.34 0.75,60.74 C1.46,65 3.23,67.88 5.43,69.96 C7.62,72.03 10.4,73.1 13.84,73.18 C13.65,77.57 13.65,80.96 13.84,83.42 C13.94,85.85 13.77,86.92 14.83,87.84 C15.9,88.72 18.64,88.76 20.31,88.84 C21.95,88.94 23.72,88.9 24.62,88.24 C25.46,87.5 25.22,86.93 25.39,84.41 C25.53,81.82 25.62,78.07 25.59,72.99 L73.51,72.99 C73.63,78.08 73.77,81.83 74,84.41 C74.19,86.93 73.93,87.49 74.78,88.24 C75.67,88.89 77.38,88.94 79.07,88.84 C80.69,88.77 83.43,88.72 84.55,87.84 C85.56,86.92 85.39,85.85 85.54,83.42 C85.7,80.96 85.7,77.57 85.54,73.18 C88.96,73.1 91.75,72.03 93.95,69.96 C96.14,67.88 97.89,64.99 98.65,60.74 C99.32,56.34 98.67,48.44 98.26,44.27 Z M14.95,62.34 C9.88,62.34 5.76,58.11 5.76,52.91 C5.76,47.7 9.88,43.48 14.95,43.48 C20.02,43.48 24.14,47.71 24.14,52.91 C24.14,58.11 20.02,62.34 14.95,62.34 Z M62.76,60.53 L36.65,60.53 C33.92,60.53 31.71,59 31.71,57.11 C31.71,55.23 33.92,53.7 36.65,53.7 L62.76,53.7 C65.49,53.7 67.7,55.23 67.7,57.11 C67.7,59 65.49,60.53 62.76,60.53 Z M62.76,51.29 L36.65,51.29 C33.92,51.29 31.71,49.76 31.71,47.88 C31.71,46 33.92,44.47 36.65,44.47 L62.76,44.47 C65.49,44.47 67.7,45.99 67.7,47.88 C67.7,49.77 65.49,51.29 62.76,51.29 Z M66.94,33.44 C59.33,33.47 39.65,33.47 32.13,33.44 C24.66,33.38 25.31,33.5 22.34,33.23 C19.34,32.96 15.83,32.71 14.32,31.83 C12.81,30.88 12.99,29.8 13.33,27.81 C13.69,25.77 14.95,22.75 16.27,19.78 C17.55,16.75 19.42,12.28 20.77,9.94 C22.05,7.59 22.67,6.79 24.09,5.92 C25.5,5.04 27.25,4.91 29.18,4.72 C31.07,4.47 33.15,4.42 35.44,4.53 L63.93,4.53 C66.21,4.43 68.3,4.47 70.19,4.72 C72.07,4.91 73.83,5.05 75.28,5.92 C76.69,6.78 77.25,7.59 78.6,9.94 C79.95,12.28 81.79,16.74 83.11,19.78 C84.34,22.76 85.69,25.77 86.04,27.81 C86.36,29.8 86.53,30.87 85.05,31.83 C83.5,32.71 80.06,32.96 77.03,33.23 C74,33.5 74.44,33.38 66.94,33.44 Z M84.45,62.34 C79.38,62.34 75.26,58.11 75.26,52.91 C75.26,47.7 79.38,43.48 84.45,43.48 C89.52,43.48 93.64,47.71 93.64,52.91 C93.64,58.11 89.52,62.34 84.45,62.34 Z" fill="none" stroke="currentColor" stroke-width="1.5"/></svg>