<svg xmlns="http://www.w3.org/2000/svg" viewBox="0 0 98.64 86.34" width="24" height="24"><path d="M89.68,28.69 L81.6,7.52 C80.09,3.47 76.78,0.02 70.53,0 L59.13,0 L39.64,0 L28.04,0 C21.82,0.03 18.51,3.48 16.97,7.53 L8.89,28.69 C5.68,29.11 0,32.94 0.01,40.18 L0.01,67.13 L7.9,67.13 L7.9,75.73 C7.88,86.34 22.68,86.21 22.68,75.73 L22.68,67.13 L49.32,67.13 L75.9,67.13 L75.9,75.73 C75.93,86.21 90.74,86.34 90.75,75.73 L90.75,67.13 L98.64,67.13 L98.64,40.18 C98.61,32.94 92.92,29.11 89.68,28.69 Z M15.52,50.87 C11.74,50.88 8.68,47.68 8.69,43.75 C8.67,39.79 11.74,36.59 15.52,36.62 C19.29,36.59 22.35,39.79 22.35,43.75 C22.35,47.68 19.29,50.88 15.52,50.87 Z M49.32,28.49 L49.25,28.49 L17.31,28.49 L23.41,11.82 C24.15,9.45 25.29,7.76 27.99,7.72 L49.26,7.72 L49.32,7.72 L70.66,7.72 C73.32,7.76 74.46,9.45 75.23,11.82 L81.33,28.49 L49.32,28.49 Z M83.12,50.87 C79.31,50.88 76.25,47.68 76.23,43.75 C76.25,39.79 79.31,36.59 83.12,36.62 C86.86,36.59 89.92,39.79 89.95,43.75 C89.93,47.68 86.87,50.88 83.12,50.87 Z" fill="none" stroke="currentColor" stroke-width="1.5"/></svg>