<svg xmlns="http://www.w3.org/2000/svg" viewBox="0 0 75.15 101.04" width="24" height="24"><path d="M32.98,7.76 L65.9,7.76 L71.2,13.06 C72.16,14.02 72.13,14.69 71.2,15.66 L64.74,22.06 L60.95,18.31 L57.16,22.06 L53.42,18.36 L49.79,21.96 L46,18.21 L41.05,23.11 L32.97,23.11 L32.97,7.76 L32.98,7.76 Z M68.32,58.16 L62.16,42.41 C61.01,39.4 58.49,36.83 53.73,36.81 L45.05,36.81 L30.2,36.81 L21.36,36.81 C16.62,36.83 14.1,39.4 12.93,42.41 L6.78,58.16 C4.33,58.47 0,61.31 0.01,66.7 L0.01,86.75 L6.02,86.75 L6.02,93.15 C6.01,101.04 17.28,100.95 17.28,93.15 L17.28,86.75 L37.58,86.75 L57.83,86.75 L57.83,93.15 C57.86,100.95 69.13,101.04 69.14,93.15 L69.14,86.75 L75.15,86.75 L75.15,66.7 C75.12,61.31 70.79,58.47 68.32,58.16 Z M11.82,74.65 C8.94,74.66 6.61,72.28 6.62,69.35 C6.61,66.4 8.94,64.02 11.82,64.05 C14.69,64.03 17.02,66.41 17.02,69.35 C17.03,72.28 14.7,74.66 11.82,74.65 Z M37.57,58.01 L37.52,58.01 L13.19,58.01 L17.84,45.61 C18.4,43.85 19.27,42.59 21.32,42.56 L37.53,42.56 L37.58,42.56 L53.83,42.56 C55.85,42.59 56.73,43.85 57.31,45.61 L61.96,58.01 L37.57,58.01 Z M63.32,74.65 C60.42,74.66 58.09,72.28 58.07,69.35 C58.09,66.4 60.42,64.02 63.32,64.05 C66.17,64.03 68.5,66.41 68.52,69.35 C68.5,72.28 66.17,74.66 63.32,74.65 Z M21.47,0.01 C12.94,0 6.04,6.9 6.02,15.41 C6.04,23.94 12.94,30.84 21.47,30.86 C29.98,30.85 36.88,23.94 36.87,15.41 C36.88,6.9 29.98,0 21.47,0.01 Z M14.7,19.46 C12.42,19.44 10.59,17.6 10.61,15.36 C10.59,13.08 12.42,11.25 14.7,11.26 C16.94,11.25 18.77,13.08 18.79,15.36 C18.78,17.61 16.94,19.44 14.7,19.46 Z" fill="none" stroke="currentColor" stroke-width="1.5"/></svg>