<svg xmlns="http://www.w3.org/2000/svg" viewBox="0 0 97.15 98.6" width="24" height="24"><path d="M61.56,31.56 C61.56,38.73 55.74,44.55 48.56,44.55 C41.39,44.55 35.58,38.74 35.58,31.56 C35.58,24.39 41.39,18.57 48.56,18.57 C55.74,18.57 61.56,24.39 61.56,31.56 Z" fill="none" stroke="currentColor" stroke-width="1.5"/><path d="M48.58,0 C54.34,0 63.78,2.42 69.04,8.17 L61.96,21.77 C58.87,17.77 54.03,15.2 48.59,15.2 C43.21,15.2 38.42,17.72 35.33,21.64 L28.1,8.47 C34.18,2.4 42.57,0 48.58,0 Z M46.54,13.02 L50.58,13.02 L50.58,9.66 L53.94,9.66 L53.94,5.62 L50.58,5.62 L50.58,2.25 L46.54,2.25 L46.54,5.62 L43.18,5.62 L43.18,9.66 L46.54,9.66 L46.54,13.02 Z" fill="none" stroke="currentColor" stroke-width="1.5"/><path d="M31.5,67.88 L34.83,67.88 L30.08,84.16 L67.19,84.16 L62.46,67.88 L65.79,67.88 L70.55,84.16 L81.47,84.16 L74.01,59.5 C72.85,55.42 67.74,48.25 58.93,48.04 L38.67,48.02 C29.66,48.06 24.45,55.37 23.27,59.5 L15.67,84.17 L26.74,84.17 L31.5,67.88 Z" fill="none" stroke="currentColor" stroke-width="1.5"/><rect x="0" y="89.36" width="97.15" height="9.24" fill="none" stroke="currentColor"/></svg>