<svg xmlns="http://www.w3.org/2000/svg" viewBox="0 0 98.66 100.27" width="24" height="24"><rect x="0.06" y="64.85" width="81.13" height="6.35" fill="none" stroke="currentColor"/><path d="M60.35,81.99 C60.35,77.76 41.61,78.18 41.61,82.05 C41.61,82.66 41.61,95.04 41.61,96.36 C41.42,98.33 42.86,100.27 44.86,100.27 C46.34,100.27 95.05,100.27 95.05,100.27 C97.05,100.27 98.66,98.67 98.66,96.69 C98.66,96.69 98.66,51.44 98.66,51.37 C98.66,22.89 74.06,0 44.86,2.64 C42.88,2.82 41.41,4.56 41.59,6.54 C41.59,7.85 41.59,21.96 41.59,21.96 L60.35,21.96 L60.35,11.03 C78.28,15.81 91.44,32.07 91.45,51.35 C91.39,70.61 78.29,86.95 60.35,91.7 L60.35,81.99 Z" fill="none" stroke="currentColor" stroke-width="1.5"/><path d="M66.67,51.47 C66.67,47.03 70.29,43.44 74.75,43.44 C79.21,43.44 82.84,47.03 82.84,51.47 C82.84,55.89 79.21,59.5 74.75,59.5 C70.29,59.5 66.67,55.89 66.67,51.47 Z" fill="none" stroke="currentColor" stroke-width="1.5"/><path d="M56.34,43.16 L29.26,43.16 L0,47.61 L0,59.49 L21.28,59.49 C20.64,58.45 20.24,57.24 20.24,55.94 C20.24,52.19 23.31,49.15 27.08,49.15 L41.91,49.15 L53.93,46.65 L54.6,49.82 L42.25,52.38 L27.09,52.38 C25.12,52.38 23.52,53.97 23.52,55.93 C23.52,57.88 25.1,59.45 27.05,59.48 L56.41,59.48 C60.95,59.44 64.6,55.81 64.6,51.32 C64.58,46.82 60.91,43.16 56.34,43.16 Z" fill="none" stroke="currentColor" stroke-width="1.5"/></svg>