<svg xmlns="http://www.w3.org/2000/svg" viewBox="0 0 84.36 98.4" width="24" height="24"><path d="M78.57,74.14 C82.33,72.91 84.36,68.9 83.11,65.16 L80.39,66.03 C81.13,68.28 79.9,70.68 77.66,71.43 L6.06,95.7 L6.98,98.4 L78.57,74.14 Z M12.63,32.2 C16.56,31.05 18.81,26.94 17.66,23.02 C16.52,19.1 12.38,16.86 8.45,18.01 C4.51,19.15 2.24,23.27 3.4,27.19 C4.55,31.1 8.67,33.35 12.63,32.2 M9.59,42.46 C5.67,35.02 16.92,29 21.06,36.21 L29.15,51.48 L44.52,47.14 C47.06,46.42 50.57,49.18 50.57,52.43 L50.66,74.19 C50.68,79.59 42.61,79.61 42.61,74.14 C42.6,69.08 42.46,58.28 42.46,58.28 L26.41,63.07 C22.91,64.08 20,62.34 18.62,59.76 L9.59,42.46 Z M34.45,45.9 L34.45,0 L31.23,0 L31.23,46.79 L34.45,45.9 Z M2.21,52.38 C0,48.06 5.69,45.19 7.9,49.51 L14.84,63.04 C16.35,65.84 19.3,67.74 22.7,67.74 C23.76,67.74 24.75,67.47 25.72,67.27 L34.47,64.71 C39.11,63.32 40.91,69.41 36.23,70.77 L27.02,73.44 C25.65,73.86 24.16,74.08 22.63,74.08 C16.71,74.08 11.59,70.75 9.06,65.87 L2.21,52.38 Z" fill="none" stroke="currentColor" stroke-width="1.5"/></svg>