<svg xmlns="http://www.w3.org/2000/svg" viewBox="0 0 94.69 98.98" width="24" height="24"><rect x="46.7" y="73.18" width="47.99" height="5.05" fill="none" stroke="currentColor"/><path d="M78.19,53.33 C78.19,49.26 71.8,49.26 71.8,53.33 C71.8,55.11 71.8,56.9 71.8,58.68 C71.8,58.68 71.79,58.68 71.79,58.68 C68.55,58.68 65.3,58.68 62.05,58.68 C62.66,57.77 63.27,56.87 63.87,55.96 C64.81,54.56 64.87,53.28 64.28,52.17 C63.98,51.6 63.26,51.02 62.54,50.6 C59.07,48.62 55.6,46.63 52.14,44.65 C48.57,42.61 45.35,48.06 48.92,50.1 C51.26,51.44 53.6,52.78 55.93,54.11 C54.52,56.22 53.1,58.33 51.69,60.43 C51.59,60.59 49.86,62.64 49.86,64.99 C49.86,68.43 52.76,71.31 56.25,71.31 C61.43,71.31 66.61,71.31 71.79,71.31 C74.65,71.31 77.12,69.37 77.91,66.76 C78.09,66.38 78.19,65.93 78.19,65.42 C78.19,61.39 78.19,57.36 78.19,53.33 Z" fill="none" stroke="currentColor" stroke-width="1.5"/><ellipse cx="62.419999999999995" cy="9.76" rx="9.76" ry="9.76" fill="none" stroke="currentColor"/><ellipse cx="87.22" cy="64.97" rx="7.21" ry="7.21" fill="none" stroke="currentColor"/><path d="M68.71,42 C63.93,39.22 59.15,36.44 54.37,33.66 C54.37,29.58 54.37,25.51 54.37,21.43 C54.51,19.6 54.13,17.73 53.23,16.21 C50.6,11.79 45.4,10.98 40.99,13.04 C32.01,17.24 23.03,21.44 14.04,25.64 C11.93,26.63 10.58,28.56 9.99,30.72 L10,30.72 L0,63.56 L16.3,63.56 C16.3,73.68 16.3,83.81 16.3,93.93 C16.3,96.68 18.62,98.98 21.41,98.98 C24.2,98.98 26.52,96.68 26.52,93.93 C26.52,83.81 26.52,73.68 26.52,63.56 L42.74,63.56 L34.25,35.69 C38.36,33.77 42.46,31.85 46.57,29.93 L46.57,33.38 C46.55,35.73 46.88,38.11 48.79,39.22 C54.14,42.33 59.49,45.44 64.84,48.55 C69.11,51.03 72.96,44.47 68.71,42 Z" fill="none" stroke="currentColor" stroke-width="1.5"/></svg>