<svg xmlns="http://www.w3.org/2000/svg" viewBox="0 0 99.41 99.3" width="24" height="24"><path d="M11.55,42.39 C11.1,43.31 10.78,44.33 10.6,45.42 C10.53,45.97 10.47,46.51 10.47,47.06 L10.87,72.07 L2.19,90.67 C1.89,91.22 1.67,91.86 1.57,92.53 C1.1,95.61 3.22,98.46 6.31,98.93 C8.7,99.3 11,98.09 12.1,96.08 L21.65,75.73 C21.85,75.26 22.02,74.76 22.1,74.22 C22.12,73.97 22.15,73.7 22.15,73.45 L22.08,58 L36.74,64.37 L39.11,79.48 C39.58,81.69 41.4,83.45 43.77,83.82 C46.86,84.27 49.73,82.16 50.2,79.1 C50.27,78.58 50.27,78.06 50.22,77.56 L47.33,59.34 C46.98,57.58 45.81,56.06 44.16,55.29 L31.04,49.48 L39.39,35.01 L43.53,40.25 C43.95,40.72 44.5,41.12 45.13,41.37 L60.92,45.96 C63.01,46.41 65.16,45.31 65.98,43.3 C66.9,41.02 65.8,38.44 63.54,37.52 C63.47,37.5 63.39,37.47 63.32,37.45 L49.6,33.43 L39.28,21.1 C37.73,19.46 35.66,18.3 33.27,17.92 C29.08,17.3 25.12,19.28 23.02,22.66 L11.55,42.39 Z M56.83,78.24 L55.83,85.73 L28.68,92.31 L28.93,96.95 L95.17,96.95 C97.51,96.95 99.41,95.06 99.41,92.73 L99.33,3.9 L90.25,1.79 L85.04,25.14 L76.34,28.79 L68.61,50.33 L75.94,66.8 L73.87,73.13 L56.83,78.24 Z M38.38,16.83 C43.04,16.83 46.83,13.06 46.83,8.42 C46.83,3.78 43.04,0 38.38,0 C33.72,0 29.93,3.77 29.93,8.41 C29.93,13.06 33.72,16.83 38.38,16.83 Z M21.57,18.14 C22.22,17 21.84,15.51 20.67,14.86 L16.58,12.48 C15.41,11.83 13.94,12.21 13.26,13.37 L0.65,35.04 C0,36.18 0.38,37.65 1.55,38.32 L5.67,40.68 C6.82,41.35 8.29,40.95 8.96,39.81 L21.57,18.14 Z" fill="none" stroke="currentColor" stroke-width="1.5"/></svg>