<svg xmlns="http://www.w3.org/2000/svg" viewBox="0 0 100.18 71.45" width="24" height="24"><path d="M95.36,53.59 L53.58,28.72 L53.58,24.49 C53.58,19.69 48.39,17.6 48.39,17.6 C45.03,15.95 45.33,12.39 45.33,12.39 C45.33,8.21 49.04,6.87 50.7,6.87 C53.48,6.87 56.21,8.43 56.5,11.98 C56.95,17.56 63.22,16.14 63.22,11.66 C63.21,7.43 59.38,0 50.64,0 C41.2,0 38.49,9.31 38.49,12.25 C38.49,14.47 38.84,16.52 40.2,18.86 C42.51,22.84 47.13,23.46 47.13,26.09 L47.13,28.72 L4.92,53.69 C0.75,56.17 0,61.44 0.91,64.64 C1.79,67.74 4.88,71.45 10.43,71.45 L10.44,71.45 C10.44,71.45 82.11,71.45 89.34,71.45 C95.56,71.45 98.4,67.85 99.28,64.75 C100.18,61.54 100.18,56.58 95.36,53.59 Z M89.44,64.46 L10.56,64.46 C7.99,64.56 6.41,60.93 8.94,59.33 L50.09,35.1 L91.03,59.22 C93.57,61.04 92.19,64.45 89.44,64.46 Z" fill="none" stroke="currentColor" stroke-width="1.5"/></svg>