<svg xmlns="http://www.w3.org/2000/svg" viewBox="0 0 98.5 61.68" width="24" height="24"><path d="M98.5,51.06 L0,51.06 C0.01,58.3 5.44,61.66 9.81,61.68 L88.68,61.68 C93.9,61.66 98.48,57.49 98.5,51.06 L98.5,51.06 Z" fill="none" stroke="currentColor" stroke-width="1.5"/><path d="M79.78,0.01 L21.01,0.01 L21.01,39.15 C21.02,44.47 25.53,48.67 30.4,48.68 L68.53,48.68 C74.03,48.67 77.78,43.98 77.76,39.15 L77.76,35.9 C88.64,35.89 96.54,27.6 96.53,17.93 C96.53,8.09 88.79,0 79.78,0.01 Z M77.76,28.43 L77.76,7.37 L79.79,7.37 C87.24,7.36 89.64,14.52 89.6,17.98 C89.6,23.58 85.52,28.95 77.76,28.43 Z" fill="none" stroke="currentColor" stroke-width="1.5"/></svg>