<svg xmlns="http://www.w3.org/2000/svg" viewBox="0 0 99.01 99.12" width="24" height="24"><path d="M79.79,60.64 L68.5,60.64 L68.5,38.47 L79.79,38.47 C90.38,38.47 99,29.84 99,19.23 C99.01,8.62 90.39,0 79.79,0 C69.2,0 60.58,8.63 60.58,19.24 L60.58,30.55 L38.43,30.55 L38.43,19.23 C38.43,8.62 29.81,0 19.22,0 C8.63,0 0,8.62 0,19.23 C0,29.84 8.62,38.47 19.21,38.47 L30.5,38.47 L30.5,60.64 L19.22,60.64 C8.62,60.64 0,69.27 0,79.88 C0,90.49 8.62,99.12 19.22,99.12 C29.82,99.12 38.43,90.49 38.43,79.88 L38.43,68.58 L60.58,68.58 L60.58,79.88 C60.58,90.49 69.2,99.12 79.79,99.12 C90.39,99.12 99.01,90.49 99.01,79.88 C99.01,69.27 90.39,60.64 79.79,60.64 Z M68.5,19.23 C68.5,13 73.56,7.93 79.79,7.93 C86.02,7.93 91.08,13 91.08,19.23 C91.08,25.46 86.02,30.54 79.79,30.54 L68.5,30.54 L68.5,19.23 Z M19.22,30.54 C12.99,30.54 7.93,25.47 7.93,19.23 C7.93,13 12.99,7.93 19.22,7.93 C25.45,7.93 30.51,13 30.51,19.23 L30.51,30.54 L19.22,30.54 Z M30.51,79.88 C30.51,86.11 25.45,91.18 19.22,91.18 C12.99,91.18 7.93,86.11 7.93,79.88 C7.93,73.65 12.99,68.58 19.22,68.58 L30.51,68.58 L30.51,79.88 Z M38.43,60.64 L38.43,38.47 L60.58,38.47 L60.58,60.64 L38.43,60.64 Z M79.79,91.19 C73.56,91.19 68.5,86.12 68.5,79.89 L68.5,68.58 L79.79,68.58 C86.02,68.58 91.08,73.65 91.08,79.88 C91.08,86.12 86.02,91.19 79.79,91.19 Z" fill="none" stroke="currentColor" stroke-width="1.5"/></svg>