<svg xmlns="http://www.w3.org/2000/svg" viewBox="0 0 99.94 92.25" width="24" height="24"><path d="M73.76,15.33 C77.98,15.33 81.38,11.89 81.38,7.67 C81.37,3.43 77.97,0 73.76,0 C69.57,0 66.16,3.44 66.16,7.67 C66.15,11.89 69.57,15.33 73.76,15.33 Z M99.24,71.75 C98.45,70.16 96.56,70.74 96.56,70.74 C93.21,74.02 87.48,73.72 87.48,73.72 L84.36,73.72 L91.82,39.03 L93.62,39.33 L94.41,34.35 L91.15,33.46 L63.39,13.83 C63.39,13.83 60.73,11.76 57.66,14.14 L36.73,26.18 L27.25,40.09 L28.11,40.63 L9.1,72.54 L6.62,71.03 L5.47,72.89 L7.97,74.42 L6.4,77.05 L8.52,78.34 L10.09,75.71 L12.63,77.26 L13.78,75.4 L11.22,73.83 L30.21,41.97 L30.9,42.41 L42.16,30.26 L51.74,25.78 C51.74,25.78 45.22,35.63 41.86,49.15 L35.4,73.72 L31.21,73.72 L29.63,77.42 L34.43,77.42 L32.97,82.97 L1.58,82.97 L0,86.66 L61.71,86.66 C70.31,86.37 69.61,80.98 69.61,80.98 C68.82,79.4 66.95,79.99 66.95,79.99 C63.58,83.28 57.86,82.97 57.86,82.97 L38.67,82.97 L41.04,77.42 L81.05,77.42 L78.97,87.13 L76.08,86.48 L75.58,88.63 L78.5,89.29 L77.97,91.73 L80.37,92.25 L80.89,89.84 L83.75,90.48 L84.25,88.33 L81.35,87.68 L83.55,77.42 L91.33,77.42 C99.94,77.11 99.24,71.75 99.24,71.75 Z M42.63,73.72 L52.53,50.65 L64.87,55.73 L66.01,73.72 L42.63,73.72 Z M81.84,73.72 L71.36,73.72 L73.37,52.54 L57.76,41.2 C57.76,41.2 57.28,40.5 58.07,40.1 L70.41,28.77 L89.46,38.27 L81.84,73.72 Z" fill="none" stroke="currentColor" stroke-width="1.5"/></svg>