<svg xmlns="http://www.w3.org/2000/svg" viewBox="0 0 98.87 94.12" width="24" height="24"><path d="M95.78,86.32 C95.77,88.89 93.67,90.96 91.14,90.95 L15.73,90.95 L15.73,94.1 L91.13,94.1 C95.38,94.12 98.85,90.68 98.87,86.36 L95.78,86.32 Z M73.24,15.33 C77.42,15.33 80.81,11.89 80.81,7.66 C80.81,3.43 77.42,0 73.24,0 C69.06,0 65.66,3.43 65.66,7.66 C65.66,11.89 69.05,15.33 73.24,15.33 Z M25.21,81.3 L0,55.72 L0.01,60.19 L23.47,84.01 C26.17,86.96 30.78,83.55 30.78,83.55 L28.57,81.15 C28.57,81.15 26.39,82.6 25.26,81.36 L25.21,81.3 Z M95.76,25.62 L98.7,26.87 L69.41,86.5 L66.17,86.5 Z M47.15,21.02 L35.37,34.78 C34.68,35.65 33.61,36.19 32.43,36.19 C30.32,36.19 28.62,34.47 28.62,32.34 C28.62,31.19 29.11,30.16 29.91,29.45 L42.62,14.65 C43.32,13.8 44.38,13.25 45.56,13.25 L63.96,13.24 C65.31,13.24 66.52,13.79 67.42,14.66 L79.15,26.52 L88.87,16.71 C89.55,16.13 90.44,15.78 91.4,15.78 C93.58,15.78 95.34,17.57 95.34,19.76 C95.34,20.72 95.02,21.59 94.46,22.28 L82.71,34.23 C79.15,37.82 76.29,34.77 76.29,34.77 L69.1,27.46 L57.86,40.61 L68.16,51.03 C68.16,51.03 70.33,53.07 69.09,57.13 L63.32,83.15 C62.86,85.41 60.88,87.11 58.52,87.11 C55.81,87.11 53.62,84.89 53.62,82.16 C53.62,81.73 53.66,81.31 53.78,80.92 L58.52,59.57 L46.82,48.05 L36.75,59.4 C36.75,59.4 35.12,61.44 30.8,61.28 L10.39,61.31 C8.11,61.36 6.04,59.77 5.52,57.44 C4.92,54.77 6.55,52.16 9.19,51.56 C9.6,51.46 10.02,51.43 10.42,51.44 L27.98,51.49 L53.94,21.05 L47.15,21.02 Z" fill="none" stroke="currentColor" stroke-width="1.5"/><rect x="0.22" y="33.06" width="25.8" height="3.12" fill="none" stroke="currentColor"/></svg>