<svg xmlns="http://www.w3.org/2000/svg" viewBox="0 0 98.66 84.79" width="24" height="24"><path d="M19.95,80.86 C28.93,80.86 36.23,73.47 36.23,64.35 C36.23,55.26 28.94,47.87 19.95,47.87 C10.99,47.87 3.7,55.26 3.7,64.35 C3.7,73.48 10.99,80.86 19.95,80.86 Z M0,64.36 C0,53.19 8.95,44.15 19.95,44.15 C30.98,44.15 39.93,53.19 39.93,64.36 C39.93,75.54 30.99,84.59 19.95,84.59 C8.95,84.59 0,75.54 0,64.36 Z M78.71,81.05 C87.67,81.05 94.96,73.67 94.96,64.56 C94.96,55.45 87.67,48.08 78.71,48.08 C69.73,48.08 62.44,55.46 62.44,64.56 C62.44,73.68 69.73,81.05 78.71,81.05 Z M58.74,64.56 C58.74,53.38 67.69,44.34 78.71,44.34 C89.71,44.34 98.66,53.38 98.66,64.56 C98.66,75.74 89.71,84.79 78.71,84.79 C67.69,84.79 58.74,75.74 58.74,64.56 Z M58.79,15.2 C62.93,15.2 66.3,11.81 66.3,7.61 C66.3,3.41 62.93,0 58.79,0 C54.65,0 51.28,3.41 51.28,7.61 C51.28,11.81 54.65,15.2 58.79,15.2 Z M59.1,33.66 C58.01,33.68 56.84,33.13 55.98,31.75 L51.11,24.02 L41.05,34.12 L50.38,39.09 C54.21,40.95 53.64,44.37 53.64,44.37 L53.64,65.77 C53.64,68.19 51.71,70.17 49.32,70.17 C46.93,70.17 45,68.19 45,65.77 L45,48.64 L28.82,39.53 C26.89,38.44 25.58,36.35 25.58,33.97 C25.58,32.33 26.18,30.83 27.2,29.7 L43.06,13.59 C45.03,11.33 47.78,11.69 47.78,11.69 C51.1,11.69 52.85,14.63 52.85,14.63 L61.09,27.72 L73.61,27.7 C78.11,27.7 78.11,33.65 73.61,33.65 L59.1,33.65 Z" fill="none" stroke="currentColor" stroke-width="1.5"/></svg>