<svg xmlns="http://www.w3.org/2000/svg" viewBox="0 0 97.45 97.4" width="24" height="24"><path d="M72.23,83.43 C71.94,83.13 71.82,82.72 72.29,82.3 C72.76,81.88 74,81.52 74.53,81.23 C75.06,80.93 75,81.05 75.65,81.41 C76.3,81.77 77.74,82.44 78.48,81.52 C79.24,80.57 81.42,79.73 82.43,79.73 C83.43,79.73 84.96,79.19 85.96,78.6 C86.96,78.01 89.14,77.29 90.55,76.39 C91.96,75.49 91.2,75.2 89.78,75.32 C88.36,75.44 83.59,76.22 80,76.7 C75.78,77.26 75.04,76.47 73.16,75.05 C72.21,74.34 71.98,74.1 70.74,74.34 C62.1,76.01 53.79,75.49 43.16,72.9 C40.39,76.23 31.66,78.65 24.49,80.18 C20.52,81.02 20.11,81.99 17.66,84.35 C16.37,85.6 12.19,90.83 11.04,92.26 C10.53,92.9 9.45,93.63 8.8,93.81 C8.15,93.99 6.97,94.5 6.59,94.94 C6.22,95.37 3.41,96.64 2.71,97.06 C2.12,97.4 1.64,97.28 1.35,96.88 C0.94,96.32 1.88,94.62 2.41,94 C2.85,93.48 4.09,92.84 5.15,92.87 C6.21,92.9 6.83,92.54 7.01,91.8 C7.18,91.06 7.59,90.64 8.83,90.22 C10.07,89.8 13.45,86.26 13.83,84.92 C12.83,85.61 8.62,89.27 8.24,90.07 C7.86,90.87 6.65,91.5 5.65,91.65 C4.85,91.77 1.82,93.11 1.03,93.65 C0.55,93.97 0,93.79 0,93.08 C0,92.19 0.33,91.46 1.29,90.4 C1.97,89.66 3.75,89.1 4.26,89.44 C4.94,89.9 5.06,89.8 5.47,88.81 C6.09,87.32 8.3,86.82 8.68,86.49 C11.58,84 13.83,81.82 15.06,79.62 C15.38,79.06 15.56,78.49 15.85,78.13 C16.14,77.77 16.29,77.86 16.53,77.18 C16.93,76 17.28,75.78 18.53,75.78 C26.37,75.77 29.09,73.03 29.66,70.12 C30.86,64 32.18,59.66 35.06,57.75 C35.68,57.34 35.71,57.21 35.06,56.86 C31.28,54.79 31.11,52.41 33.63,47.95 C34.28,46.81 34.87,46.94 34.75,47.83 C34.63,48.72 34.7,51.28 35.11,52.58 C35.52,53.89 36.76,55.67 38.71,55.49 C40.65,55.31 45.37,54.95 47.84,55.18 C50.32,55.41 59.69,55.7 63.4,55.21 C69.98,54.36 74.06,52.16 72.99,46.52 C72.47,43.77 71.21,37.07 71.5,34.16 C71.58,33.39 71.44,33.39 71.06,32.79 C70.47,31.87 70.02,32.08 69.64,31.72 C68.93,31.04 67.78,29.58 67.13,28.46 C66.53,27.43 67.33,26.82 67.66,26.97 C68.16,27.21 68.28,27.15 68.28,26.79 C65.8,24.39 64.35,21.57 63.17,18.87 C62.34,16.97 59.39,13.88 58.83,13.11 C58.27,12.34 58,11.83 57.97,11.18 C57.94,10.53 58.79,10.47 58.82,11.06 C58.85,11.65 59.26,12.22 59.91,12.84 C60.56,13.46 63.01,15.63 63.3,16.1 C63.52,16.46 63.66,16.41 63.83,16.01 C64.5,14.43 66.47,12.34 67.89,10.98 C68.42,10.47 68.48,10 68.53,9.55 C68.8,7.49 68.47,6.4 67.23,4.71 C66.96,4.34 67.14,3.67 67.85,4.29 C69.23,5.5 70.01,7.24 69.95,9.25 C69.94,9.66 70.08,10.04 70.51,9.81 C71.19,9.45 72.69,8.44 73.28,7.93 C73.72,7.55 73.76,7.41 73.78,7.04 C73.81,6.3 73.78,5.99 73.54,5.5 C73.39,5.19 73.56,5.01 73.78,5.22 C74,5.43 74.41,6.21 74.59,6.47 C74.77,6.72 74.89,6.66 75.1,6.42 C76.14,5.29 77.16,3.48 77.29,2.69 C77.44,1.78 78.04,1.81 77.95,2.73 C77.47,7.8 70.01,11.42 67.07,14.69 C65.45,16.5 65.6,18.94 66.25,20.69 C66.71,21.92 68.67,24.49 70.41,25.65 C70.6,25.78 70.64,25.8 70.67,25.59 C70.77,24.84 70.85,24.13 70.34,23.24 C70.22,23.03 70.13,22.52 70.22,22.14 C70.34,21.66 70.34,21.57 70.19,20.98 C69.31,17.45 69.93,15.09 71,12.1 C71.68,10.21 71.43,6.27 71.08,5.09 C70.88,4.42 71.37,4.14 71.7,4.97 C72.21,6.28 72.62,8.21 72.65,10.43 C72.66,10.83 72.98,10.8 73.5,10.49 C74.87,9.66 76.42,8.47 77.03,7.75 C77.97,6.71 77.97,5.22 77.71,4.44 C77.59,4.09 77.57,3.83 78.09,4.22 C78.61,4.61 78.86,5.9 78.78,6.36 C78.72,6.74 78.82,6.79 79.13,6.57 C81,5.26 81.88,3.12 82.17,1.01 C82.31,0 82.85,0.27 82.94,0.8 C83.48,4.01 80.16,8.18 77.65,9.72 C74.43,11.69 72.12,13.8 71.88,16.53 C71.72,18.47 72.35,21.75 73.32,23.17 C73.42,23.36 73.57,23.47 73.64,23.22 C74.01,22.35 74.18,21.08 73.88,20.18 C73.69,19.62 73.73,19.47 74.26,19.82 C74.79,20.18 75.14,21.3 74.77,23.77 C74.65,24.54 74.83,24.84 75.42,25.43 C76.01,26.02 76.36,25.91 76.72,25.67 C77.07,25.43 77.43,25.31 77.84,26.08 C78.25,26.85 78.61,27.29 79.43,27.32 C80.73,27.38 81.96,27.43 82.44,27.91 C83.24,28.71 83.27,28.62 84.39,28.74 C85.51,28.86 86.69,28.92 87.34,28.92 C87.99,28.92 88.11,29.39 88.82,29.45 C89.53,29.51 90.41,29.51 91,30.04 C91.59,30.57 92.03,31.23 92.03,31.88 C92.03,32.37 92.03,32.46 91.8,32.55 C91.63,32.61 91.64,32.77 91.67,32.92 C91.79,33.54 91.04,34.16 89.98,34.35 C88.8,34.56 86.36,35.07 85.83,35.4 C85.3,35.73 84,36.65 83.21,36.89 C82.41,37.13 82.5,38.14 82.89,39.15 C84.98,44.64 85.74,49.43 85.98,53.35 C86.16,56.32 86.34,59.89 85.88,62.68 C85.66,63.98 85.29,63.93 85.68,65.35 C85.97,66.41 85.72,67.6 85.33,68.38 C85.18,68.68 85.56,68.83 85.89,68.83 C87.36,68.83 93.91,69.47 95.47,69.62 C96.26,69.69 96.52,69.85 96.62,70.27 C96.74,70.75 97.21,71.64 97.33,72.41 C97.45,73.18 96.92,73.54 96.74,74.73 C96.61,75.59 95.56,76.93 93.27,78.12 C92.18,78.69 91.03,79.67 90.21,80.21 C89.38,80.75 87.56,81.76 87.09,82.23 C86.62,82.71 85.68,83.48 85.09,83.72 C84.5,83.96 84.32,83.84 83.5,84.62 C82.68,85.39 79.92,85.78 78.61,85.7 C76.84,85.58 73.01,85.71 72.01,85.71 C71.01,85.71 71.13,85 71.42,84.4 C71.34,83.94 71.96,83.7 72.23,83.43 Z" fill="none" stroke="currentColor" stroke-width="1.5"/></svg>