<svg xmlns="http://www.w3.org/2000/svg" viewBox="0 0 82.94 98.6" width="24" height="24"><path d="M63.46,14.49 L72.49,14.49 C73.68,14.49 74.66,15.46 74.66,16.63 C74.66,17.83 73.68,18.8 72.49,18.8 L63.56,18.8 C62.99,18.8 62.42,18.99 61.99,19.41 C61.32,20.09 61.16,21.06 61.54,21.86 C61.87,22.57 62.33,23.3 62.83,23.91 L67.98,23.89 C68.36,23.91 68.79,24.01 69.15,24.2 L81.25,30.61 C82.25,31.22 82.94,32.33 82.94,33.58 C82.94,35.54 81.34,37.09 79.39,37.09 L71.5,37.09 L60.91,62.74 L54.12,69.45 L54.12,94 C54.12,96.47 52.07,98.5 49.55,98.5 C47.03,98.5 45,96.47 45,94 L45,67.59 L26.68,67.59 L22.56,73.79 L32.69,91.22 C33.93,93.39 33.14,96.14 30.95,97.37 C28.76,98.6 25.97,97.82 24.73,95.65 L14.34,78.03 L14.34,70.21 L9.17,77.06 L9.17,93.67 C9.17,96.17 7.12,98.17 4.6,98.17 C2.1,98.17 0.05,96.17 0.05,93.67 L0.03,76.07 L4.29,69.38 L4.29,61.42 L0.98,66.53 C0.91,66.72 0.72,66.84 0.5,66.84 C0.24,66.83 0,66.62 0,66.34 L0,48.6 C0.17,45.11 3.12,42.22 6.67,42.22 L51.53,42.22 L58.65,31.38 L52.74,25.56 C52.55,25.4 52.43,25.16 52.43,24.9 C52.43,24.38 52.83,23.98 53.33,23.98 L57.64,24 C56.57,21.78 55.95,19.31 55.95,16.7 C55.96,7.49 63.53,0 72.87,0 C74.09,0 75.06,0.97 75.06,2.17 C75.06,3.35 74.08,4.36 72.87,4.36 C66.49,4.36 61.2,9.12 60.48,15.24 C61.37,14.75 62.37,14.49 63.46,14.49 Z" fill="none" stroke="currentColor" stroke-width="1.5"/></svg>