<svg xmlns="http://www.w3.org/2000/svg" viewBox="0 0 99.0 96.21" width="24" height="24"><path d="M62.49,0 C45.93,0 30.67,12.44 27.49,26.13 C26.78,29.18 25.98,37.13 25.98,37.13 L18.37,56.33 C18.22,56.68 18.14,57.07 18.14,57.48 C18.14,59.1 19.46,60.42 21.08,60.42 L23.68,60.42 L28.32,55.78 C30.32,53.79 33.55,53.79 35.54,55.78 C36.27,56.52 36.74,57.43 36.93,58.38 L38.35,56.96 C40.34,54.96 43.57,54.96 45.57,56.96 C47.52,58.92 47.55,62.06 45.67,64.06 C46.63,64.25 47.54,64.72 48.28,65.46 C50.27,67.46 50.27,70.69 48.28,72.68 L46.8,74.16 C47.75,74.35 48.65,74.81 49.39,75.55 C51.38,77.55 51.38,80.78 49.39,82.78 L46.1,86.07 L46.1,96.19 L85.06,96.19 L85.06,65.21 C93.53,58.54 99,48.16 99,36.52 C99,16.34 82.66,0 62.49,0 Z M34.97,44.43 C32.72,44.43 30.89,42.6 30.89,40.36 C30.89,38.1 32.71,36.28 34.97,36.28 C37.22,36.28 39.04,38.1 39.04,40.36 C39.03,42.6 37.22,44.43 34.97,44.43 Z M54.02,53.93 C55.04,53.93 55.88,54.77 55.88,55.78 C55.88,56.81 55.04,57.64 54.02,57.64 C53,57.64 52.17,56.81 52.17,55.78 C52.17,54.76 53,53.93 54.02,53.93 Z M52.92,65.52 C51.9,65.52 51.07,64.69 51.07,63.66 C51.07,62.64 51.9,61.8 52.92,61.8 C53.94,61.8 54.78,62.64 54.78,63.66 C54.77,64.69 53.94,65.52 52.92,65.52 Z M56.87,73.51 C55.33,73.38 54.2,72.03 54.32,70.5 C54.46,68.97 55.8,67.84 57.33,67.97 C58.85,68.1 59.99,69.45 59.86,70.97 C59.73,72.51 58.39,73.64 56.87,73.51 Z M59.55,62.39 C58,62.39 56.77,61.15 56.77,59.61 C56.77,58.07 58,56.84 59.55,56.84 C61.07,56.84 62.31,58.08 62.31,59.61 C62.31,61.14 61.07,62.39 59.55,62.39 Z M63.49,68.21 C62.46,68.21 61.63,67.38 61.63,66.35 C61.63,65.34 62.46,64.5 63.49,64.5 C64.51,64.5 65.34,65.34 65.34,66.35 C65.34,67.38 64.51,68.21 63.49,68.21 Z M67.63,57.42 L66.98,57.42 L66.98,54.11 L67.62,54.1 C71.75,54.09 75.12,50.73 75.13,46.6 C75.12,42.47 71.75,39.1 67.62,39.1 L66.98,39.1 L66.98,35.79 L67.63,35.79 C73.6,35.79 78.45,40.64 78.45,46.61 C78.45,52.58 73.6,57.42 67.63,57.42 Z" fill="none" stroke="currentColor" stroke-width="1.5"/><path d="M47.75,77.2 C46.66,76.11 44.88,76.11 43.79,77.2 L30.6,90.39 L28.96,88.75 L46.65,71.07 C47.74,69.98 47.74,68.2 46.65,67.11 C45.56,66.01 43.78,66.01 42.69,67.11 L25,84.78 L23.36,83.14 L43.93,62.56 C45.02,61.47 45.03,59.69 43.93,58.59 C42.84,57.49 41.06,57.49 39.97,58.59 L19.4,79.17 L17.76,77.53 L33.91,61.38 C35,60.29 35,58.51 33.91,57.42 C32.82,56.33 31.04,56.32 29.95,57.42 L9.17,78.17 C9.16,76.16 9.14,72.54 9.14,69.28 C9.14,64.75 3.42,64.07 3.13,64.39 C2.85,64.72 0,96.21 0,96.21 L16.41,96.21 L32.76,96.21 L32.76,96.21 L32.76,96.21 L34.58,94.38 L34.56,94.36 L47.76,81.16 C48.85,80.07 48.85,78.29 47.75,77.2 Z" fill="none" stroke="currentColor" stroke-width="1.5"/></svg>