<svg xmlns="http://www.w3.org/2000/svg" viewBox="0 0 99.25 94.75" width="24" height="24"><path d="M54.76,8.5 C53.51,3.62 49.09,0 43.85,0 C37.6,0 32.55,5.06 32.55,11.34 C32.55,12.4 32.67,13.37 32.94,14.32 L37.47,14.32 C37.81,15.11 38.16,15.56 38.16,15.56 C39.52,17.53 41.8,18.82 44.36,18.82 C48.54,18.82 51.94,15.4 51.94,11.19 C51.94,10.22 52.18,9.35 51.78,8.51 L54.76,8.51 L54.76,8.5 Z M54.45,76.34 C53.26,77.56 51.63,78.48 49.78,78.48 L49.78,53.76 L66.76,48.85 L71.01,57.29 L54.45,76.34 Z M40.2,19.79 C39.08,18.53 37.46,17.74 35.64,17.74 C33.71,17.74 31.98,18.64 30.87,20.05 L17.4,40.79 C16.85,41.71 16.54,42.79 16.54,43.94 C16.54,46.08 17.61,47.95 19.24,49.06 L37.32,59.17 L37.32,76.37 C37.32,78.81 39.27,80.78 41.69,80.78 C44.09,80.78 46.05,78.8 46.05,76.37 L46.05,54.88 C46.05,54.88 46.63,51.46 42.77,49.59 L31.5,43.65 L39.71,31.01 L44.07,37.9 C44.94,39.29 46.11,39.83 47.19,39.81 L58.39,39.77 C62.95,39.77 62.95,33.81 58.39,33.83 L49.31,33.83 L40.2,19.79 Z M89.73,47.98 C89.91,48.15 90.02,48.38 90.02,48.67 C90.02,49.21 89.57,49.66 89.03,49.66 C88.88,49.66 88.79,49.66 88.67,49.62 C86.73,48.78 85.5,48.27 83.26,48.27 C81.77,48.27 79.94,48.79 77.81,50.52 L75.84,46.6 C78.29,45.86 80.31,45.2 82.4,45.2 C85.77,45.2 87.54,45.9 89.73,47.98 Z M14.57,50.99 L33.54,61.53 L33.58,65.76 L11.92,53.74 C10.35,52.93 8.24,52.45 6.75,52.45 C4.51,52.45 3.28,52.97 1.35,53.8 C1.23,53.84 1.13,53.84 0.99,53.84 C0.46,53.85 0,53.4 0,52.86 C0,52.57 0.11,52.34 0.29,52.16 C2.48,50.08 4.72,49.39 8.08,49.39 C9.79,49.39 11.89,49.59 14.57,50.99 Z M16.33,89.76 C22.51,89.76 27.51,84.72 27.51,78.48 C27.51,72.24 22.51,67.2 16.33,67.2 C10.15,67.2 5.15,72.25 5.15,78.48 C5.15,84.71 10.15,89.76 16.33,89.76 Z M0.19,78.48 C0.19,69.5 7.42,62.2 16.33,62.2 C25.26,62.2 32.49,69.5 32.49,78.48 C32.49,87.46 25.26,94.75 16.33,94.75 C7.42,94.75 0.19,87.46 0.19,78.48 Z M83.09,89.76 C89.28,89.76 94.29,84.71 94.29,78.48 C94.29,72.24 89.28,67.2 83.09,67.2 C76.93,67.2 71.92,72.25 71.92,78.48 C71.92,84.71 76.93,89.76 83.09,89.76 Z M66.96,78.48 C66.96,69.5 74.17,62.2 83.09,62.2 C92.01,62.2 99.25,69.5 99.25,78.48 C99.25,87.46 92.01,94.75 83.09,94.75 C74.18,94.75 66.96,87.46 66.96,78.48 Z M79.54,59.88 L71.7,44.07 C70.68,42.17 68.66,40.87 66.37,40.87 L61.25,40.87 C60.24,40.87 59.44,41.71 59.44,42.71 C59.44,43.73 60.24,44.53 61.25,44.53 L66.37,44.51 C67.24,44.51 68.2,45.1 68.56,45.95 L75.95,61.13 L79.54,59.88 Z" fill="none" stroke="currentColor" stroke-width="1.5"/></svg>