<svg xmlns="http://www.w3.org/2000/svg" viewBox="0 0 94.31 99.63" width="24" height="24"><path d="M94.3,99.63 C92.23,99.63 90.26,99.16 88.51,98.37 C86.7,97.53 84.65,97.04 82.52,97.04 C80.38,97.04 78.36,97.53 76.53,98.37 C74.77,99.16 72.8,99.63 70.73,99.63 C68.66,99.63 66.69,99.16 64.94,98.37 C63.1,97.53 61.09,97.04 58.95,97.04 C56.81,97.04 54.77,97.53 52.96,98.37 C51.2,99.16 49.23,99.63 47.16,99.63 C45.1,99.63 43.12,99.16 41.34,98.37 C39.54,97.53 37.49,97.04 35.38,97.04 C33.24,97.04 31.2,97.53 29.39,98.37 C27.63,99.16 25.66,99.63 23.6,99.63 C21.53,99.63 19.56,99.16 17.78,98.37 C15.98,97.53 13.93,97.04 11.82,97.04 C9.68,97.04 7.64,97.53 5.83,98.37 C4.07,99.16 2.07,99.63 0,99.63 L0,90.93 C2.07,90.93 4.07,90.46 5.83,89.66 C7.63,88.84 9.68,88.35 11.82,88.35 C13.93,88.35 15.98,88.84 17.78,89.66 C19.56,90.46 21.53,90.93 23.6,90.93 C25.66,90.93 27.63,90.46 29.39,89.66 C31.19,88.84 33.24,88.35 35.38,88.35 C37.5,88.35 39.54,88.84 41.34,89.66 C43.12,90.46 45.09,90.93 47.16,90.93 C49.23,90.93 51.2,90.46 52.97,89.66 C54.77,88.84 56.82,88.35 58.96,88.35 C61.1,88.35 63.11,88.84 64.95,89.66 C66.7,90.46 68.68,90.93 70.74,90.93 C72.81,90.93 74.78,90.46 76.55,89.66 C78.38,88.84 80.4,88.35 82.54,88.35 C84.67,88.35 86.71,88.84 88.52,89.66 C90.28,90.46 92.25,90.93 94.31,90.93 L94.31,99.63 Z M26.69,56.97 C31.08,56.97 34.65,53.4 34.65,49.01 C34.65,44.63 31.08,41.08 26.69,41.08 C22.31,41.08 18.75,44.62 18.75,49.01 C18.74,53.4 22.32,56.97 26.69,56.97 M27.82,84.46 C26.57,86.59 23.83,87.32 21.7,86.04 C19.56,84.8 18.84,82.05 20.08,79.93 L38.53,48.18 C39.2,46.98 40.19,45.99 41.37,45.35 L65.09,30.98 L81.18,3.59 C82.71,0.92 86.12,0 88.79,1.52 C91.44,3.07 92.36,6.47 90.83,9.12 L71.54,41.95 C70.88,43.14 69.89,44.13 68.69,44.78 L40.71,62.17 L27.82,84.46 Z" fill="none" stroke="currentColor" stroke-width="1.5"/></svg>