<svg xmlns="http://www.w3.org/2000/svg" viewBox="0 0 97.2 91.5" width="24" height="24"><path d="M56.14,32.36 L0,5.37 L0,0 L58,28.12 Z" fill="none" stroke="currentColor" stroke-width="1.5"/><path d="M36.96,62 L61.53,62 L61.53,84.18 C61.53,87.8 64.42,90.73 68.01,90.73 L68.01,90.73 C71.59,90.73 74.52,87.8 74.52,84.18 L74.52,62 C76.46,62 76.64,60.71 76.64,59.21 L76.64,42.67 L56.12,32.52 L12.48,32.52 L6.85,29.3 C5.04,28.25 2.75,28.9 1.72,30.72 L1.72,30.72 C0.7,32.55 1.32,34.86 3.13,35.9 L12.03,41.06 L12.03,84.18 C12.03,87.8 14.94,90.73 18.52,90.73 L18.52,90.73 C22.1,90.73 25.01,87.8 25.01,84.18 L25,67.29 L36.77,87.37 C38.6,90.49 42.59,91.5 45.68,89.65 L45.68,89.65 C48.75,87.8 49.76,83.74 47.92,80.63 L36.96,62 Z" fill="none" stroke="currentColor" stroke-width="1.5"/><path d="M58.13,28.01 L76.62,36.9 L76.62,33.41 L91.67,33.38 L97.2,21.38 L58.13,2.55 Z" fill="none" stroke="currentColor" stroke-width="1.5"/></svg>