<svg xmlns="http://www.w3.org/2000/svg" viewBox="0 0 99.83 97.55" width="24" height="24"><path d="M90.99,35.24 C95.56,35.24 99.25,31.51 99.25,26.91 C99.25,22.32 95.56,18.61 90.99,18.61 C86.44,18.61 82.74,22.32 82.74,26.91 C82.74,31.5 86.44,35.24 90.99,35.24 Z M86.92,95.17 C90.91,97.55 96.05,96.25 98.43,92.22 L95.54,90.48 C94.13,92.89 91.03,93.65 88.66,92.22 L1.71,40.79 L0,43.72 L86.92,95.17 Z M55.44,3.4 C50.42,0 43.63,1.34 40.24,6.42 C38.38,9.2 37.86,12.71 38.78,15.56 L44.56,34.62 L27.13,40.22 C24.95,41.1 23.27,43.17 22.97,45.7 C22.52,49.41 25.26,51.87 28.96,52.31 C29.8,52.41 30.36,52.16 31.14,51.97 L54.94,44.03 C56.68,43.39 58.6,41.65 58.78,40.12 C58.91,39.02 59.27,38.08 59.04,37.42 L55.42,24.38 L69.72,32.95 L71.45,45.45 C71.6,47.64 72.58,49.21 74.25,50.14 L92.95,61.15 C95,62.28 97.58,61.52 98.7,59.43 C99.83,57.37 99.07,54.74 97.02,53.61 L82.23,44.91 L80.52,22.63 C80.26,19.96 78.83,17.57 76.73,16.1 L55.44,3.4 Z" fill="none" stroke="currentColor" stroke-width="1.5"/></svg>