<svg xmlns="http://www.w3.org/2000/svg" viewBox="0 0 99.56 89.19" width="24" height="24"><ellipse cx="42.410000000000004" cy="17.74" rx="6.56" ry="6.56" fill="none" stroke="currentColor"/><path d="M42.41,17.74" fill="none" stroke="currentColor" stroke-width="1.5"/><path d="M59.6,89.19 L73.31,89.19 C77.09,89.19 77.23,83.32 73.31,83.32 L66.28,83.32 L79.65,69.83 C82.61,66.84 78.42,62.51 75.27,65.69 L62.1,79.02 L62.1,72 C62.12,68.19 56.26,68.04 56.25,72 L56.25,85.75 C56.26,87.8 57.63,89.19 59.6,89.19 Z" fill="none" stroke="currentColor" stroke-width="1.5"/><path d="M87.94,18.3 L72.67,18.3 C69.51,18.3 65.45,19.6 63.03,22.05 L48.91,36.29 L48.91,32.12 C48.91,23.22 35.91,23.32 35.91,32.12 L35.91,49.15 L35.93,49.15 L23.66,61.54 C22.5,62.71 22.36,62.76 20.09,62.76 C20.09,62.76 12.58,62.76 12.58,62.76 C5.03,62.76 0.5,69.62 0.5,75.42 C0.5,81.22 5.03,88.57 13.25,88.57 C13.25,88.57 23.47,88.57 26.62,88.57 C29.78,88.57 33.6,87.35 36.76,84.35 L75.91,44.95 C76.75,44.2 77.21,43.97 78.65,43.97 C78.65,43.97 84.05,43.97 88.32,43.97 C92.97,43.97 99.56,38.65 99.56,30.97 C99.56,23.38 92.92,18.32 87.94,18.3 Z M87.24,37.33 L78.98,37.33 C75.48,37.33 73.93,37.82 71.92,39.86 L32.48,79.68 C30.88,81.29 28.86,81.93 26.26,81.93 L13.25,81.93 C9.91,81.93 6.96,79.08 6.96,75.33 C6.96,71.58 9.77,69.48 12.67,69.48 L21.59,69.48 C24.19,69.48 25.9,68.73 27.39,67.23 L67.5,26.73 C69.15,25.06 70.78,24.86 73.59,24.86 L87.32,24.86 C90.66,24.86 92.91,28.63 92.91,30.88 C92.91,33.13 91.33,37.33 87.24,37.33 Z" fill="none" stroke="currentColor" stroke-width="1.5"/></svg>