<svg xmlns="http://www.w3.org/2000/svg" viewBox="0 0 86.04 98.83" width="24" height="24"><path d="M0,62.93 L2.71,53.86 L15.38,53.86 C15.29,52.11 15.25,50.32 15.25,48.49 C15.25,46.92 15.29,45.34 15.38,43.76 L0,43.76 L2.71,34.69 L16.41,34.69 C17.88,26.9 20.61,20.15 24.62,14.44 C31.35,4.81 40.63,0 52.49,0 C62.57,0 70.41,3.13 75.99,9.39 C81.57,15.65 84.66,22.77 85.27,30.73 L74.72,30.73 C73.56,24.68 71.19,19.89 67.61,16.36 C64.03,12.82 59.04,11.06 52.61,11.06 C44.72,11.06 38.37,14.32 33.54,20.84 C30.87,24.42 28.95,29.04 27.79,34.7 L63.86,34.7 L61.14,43.77 L26.5,43.77 C26.37,45.94 26.31,48.24 26.31,50.67 C26.31,51.78 26.33,52.84 26.38,53.86 L63.87,53.86 L61.15,62.93 L27.34,62.93 C28.38,68.51 30.21,73.34 32.84,77.43 C37.19,84.25 43.7,87.65 52.36,87.65 C60.33,87.65 66.41,84.05 70.59,76.85 C72.79,73.06 74.43,68.07 75.5,61.9 L86.04,61.9 C85.09,71.78 81.97,80.07 76.67,86.75 C70.33,94.81 61.79,98.83 51.06,98.83 C41.79,98.83 34.02,95.53 27.72,88.93 C21.77,82.71 17.96,74.04 16.28,62.93 L0,62.93 Z" fill="none" stroke="currentColor" stroke-width="1.5"/></svg>