<svg xmlns="http://www.w3.org/2000/svg" viewBox="0 0 99.35 94.11" width="24" height="24"><path d="M70.42,17.52 C74.28,17.52 77.4,14.35 77.4,10.44 C77.4,6.55 74.28,3.38 70.42,3.38 C66.59,3.38 63.46,6.55 63.46,10.44 C63.47,14.35 66.59,17.52 70.42,17.52 Z M75.61,19.1 L65.44,19.1 L48.11,1.52 C46.76,0.08 44.51,0.01 43.08,1.4 C41.66,2.77 41.59,5.06 42.94,6.5 L61.05,24.89 L61.05,85.85 C61.05,88.06 62.8,89.83 64.95,89.83 C67.13,89.83 68.88,88.06 68.88,85.85 L68.88,52.79 L72.05,52.79 L72.07,85.85 C72.07,88.06 73.84,89.83 76,89.83 C78.16,89.83 79.9,88.06 79.9,85.85 L79.88,24.89 L98,6.5 C99.35,5.06 99.28,2.77 97.86,1.4 C96.44,0 94.19,0.07 92.83,1.52 L75.61,19.1 Z M38.76,45.99 C37.7,44.9 36.26,44.24 34.65,44.24 L20.06,44.24 C18.45,44.24 17.01,44.89 15.97,45.99 L1.35,60.82 C0,62.26 0.04,64.55 1.46,65.92 C2.88,67.29 5.16,67.25 6.49,65.8 L17.83,54.3 L17.83,69.67 L5.11,69.67 C2.77,69.67 0.89,71.58 0.89,73.95 C0.89,75.18 1.35,76.28 2.18,77.07 L16.51,91.6 C17.77,93.49 20.25,94.09 22.23,92.93 C24.32,91.72 25.01,89.04 23.81,86.95 L15.64,78.68 L15.8,78.7 L39.28,78.7 L31.08,86.97 C29.91,89.07 30.6,91.74 32.66,92.95 C34.63,94.11 37.14,93.51 38.4,91.62 L52.73,77.09 C53.56,76.3 54.01,75.2 54.01,73.97 C54.01,71.59 52.13,69.69 49.79,69.69 L37.09,69.69 L37.09,54.49 L48.23,65.83 C49.58,67.27 51.84,67.32 53.26,65.95 C54.68,64.58 54.73,62.3 53.37,60.85 L38.76,45.99 Z M27.5,42.73 C31.35,42.73 34.45,39.56 34.45,35.67 C34.45,31.76 31.35,28.61 27.5,28.61 C23.67,28.61 20.54,31.75 20.54,35.67 C20.54,39.56 23.67,42.73 27.5,42.73 Z" fill="none" stroke="currentColor" stroke-width="1.5"/></svg>