<svg xmlns="http://www.w3.org/2000/svg" viewBox="0 0 93.98 99.85" width="24" height="24"><path d="M31.79,67.41 C30.63,67 29.36,67.58 28.94,68.72 C28.52,69.86 29.11,71.12 30.27,71.54 C31.42,71.96 32.7,71.37 33.12,70.23 C33.54,69.09 32.95,67.83 31.79,67.41 Z" fill="none" stroke="currentColor" stroke-width="1.5"/><path d="M12.77,42.11 C13.92,42.53 15.2,41.94 15.62,40.8 C16.04,39.66 15.45,38.4 14.29,37.98 C13.14,37.56 11.86,38.15 11.44,39.29 C11.02,40.43 11.61,41.7 12.77,42.11 Z" fill="none" stroke="currentColor" stroke-width="1.5"/><path d="M14.94,50.65 C14.52,51.79 15.12,53.05 16.27,53.47 C17.42,53.89 18.7,53.3 19.12,52.15 C19.54,51.01 18.94,49.75 17.79,49.33 C16.63,48.92 15.36,49.5 14.94,50.65 Z" fill="none" stroke="currentColor" stroke-width="1.5"/><path d="M22.85,43.56 C21.69,43.15 20.42,43.73 20,44.87 C19.58,46.01 20.17,47.27 21.33,47.69 C22.48,48.11 23.76,47.52 24.18,46.38 C24.6,45.24 24,43.98 22.85,43.56 Z" fill="none" stroke="currentColor" stroke-width="1.5"/><path d="M21.49,37.79 C20.33,37.38 19.06,37.96 18.64,39.1 C18.22,40.24 18.81,41.5 19.97,41.92 C21.12,42.33 22.4,41.75 22.82,40.61 C23.23,39.47 22.64,38.21 21.49,37.79 Z" fill="none" stroke="currentColor" stroke-width="1.5"/><path d="M14.32,47.88 C15.47,48.29 16.75,47.71 17.17,46.57 C17.59,45.43 17,44.17 15.84,43.75 C14.68,43.33 13.41,43.92 12.99,45.06 C12.58,46.21 13.17,47.47 14.32,47.88 Z" fill="none" stroke="currentColor" stroke-width="1.5"/><path d="M31.79,55.49 C30.63,55.07 29.36,55.66 28.94,56.8 C28.52,57.94 29.11,59.2 30.27,59.62 C31.42,60.04 32.7,59.45 33.12,58.31 C33.54,57.16 32.95,55.9 31.79,55.49 Z" fill="none" stroke="currentColor" stroke-width="1.5"/><path d="M31.79,43.56 C30.63,43.15 29.36,43.73 28.94,44.87 C28.52,46.01 29.11,47.27 30.27,47.69 C31.42,48.11 32.7,47.52 33.12,46.38 C33.54,45.24 32.95,43.98 31.79,43.56 Z" fill="none" stroke="currentColor" stroke-width="1.5"/><path d="M31.79,61.45 C30.63,61.04 29.36,61.62 28.94,62.76 C28.52,63.9 29.11,65.16 30.27,65.58 C31.42,66 32.7,65.41 33.12,64.27 C33.54,63.13 32.95,61.87 31.79,61.45 Z" fill="none" stroke="currentColor" stroke-width="1.5"/><path d="M48.53,72.91 C45.39,72.91 31.13,72.91 31.13,72.91 C31.13,72.91 16.87,72.91 13.72,72.91 C10.57,72.91 10.58,73.95 11.36,76.54 C12.15,79.13 15.81,83.02 20.27,83.02 C24.72,83.02 27.72,85.09 27.72,85.09 L27.72,99.85 L34.53,99.85 L34.53,85.08 C34.53,85.08 37.53,83.01 41.98,83.01 C46.43,83.01 50.1,79.12 50.88,76.53 C51.67,73.94 51.67,72.91 48.53,72.91 Z" fill="none" stroke="currentColor" stroke-width="1.5"/><path d="M14,54.78 C14.42,53.64 13.83,52.38 12.67,51.96 C11.52,51.54 10.24,52.13 9.82,53.28 C9.4,54.42 9.99,55.68 11.15,56.1 C12.31,56.51 13.58,55.92 14,54.78 Z" fill="none" stroke="currentColor" stroke-width="1.5"/><path d="M31.79,49.52 C30.63,49.11 29.36,49.69 28.94,50.83 C28.52,51.97 29.11,53.23 30.27,53.65 C31.42,54.07 32.7,53.48 33.12,52.34 C33.54,51.2 32.95,49.94 31.79,49.52 Z" fill="none" stroke="currentColor" stroke-width="1.5"/><path d="M11.99,49.26 C12.41,48.12 11.81,46.86 10.66,46.44 C9.51,46.03 8.23,46.62 7.81,47.75 C7.39,48.89 7.98,50.15 9.14,50.57 C10.3,50.99 11.57,50.4 11.99,49.26 Z" fill="none" stroke="currentColor" stroke-width="1.5"/><path d="M25.41,71.54 C26.57,71.96 27.84,71.37 28.26,70.23 C28.68,69.09 28.08,67.83 26.93,67.41 C25.78,67 24.5,67.58 24.08,68.72 C23.66,69.87 24.26,71.13 25.41,71.54 Z" fill="none" stroke="currentColor" stroke-width="1.5"/><path d="M11.7,58.85 C11.28,59.99 11.87,61.25 13.03,61.67 C14.18,62.08 15.46,61.49 15.88,60.35 C16.3,59.21 15.71,57.95 14.55,57.53 C13.4,57.12 12.12,57.71 11.7,58.85 Z" fill="none" stroke="currentColor" stroke-width="1.5"/><path d="M24.02,49.72 C22.87,49.3 21.59,49.89 21.17,51.03 C20.75,52.17 21.35,53.43 22.5,53.85 C23.65,54.27 24.93,53.68 25.35,52.54 C25.76,51.39 25.17,50.13 24.02,49.72 Z" fill="none" stroke="currentColor" stroke-width="1.5"/><path d="M24.63,65.58 C25.79,66 27.06,65.41 27.48,64.27 C27.9,63.13 27.3,61.87 26.15,61.45 C25,61.03 23.72,61.62 23.3,62.76 C22.89,63.9 23.48,65.17 24.63,65.58 Z" fill="none" stroke="currentColor" stroke-width="1.5"/><path d="M7.32,37.02 C7.74,35.88 7.14,34.62 5.99,34.2 C4.84,33.78 3.56,34.37 3.14,35.51 C2.72,36.65 3.31,37.91 4.47,38.33 C5.63,38.75 6.9,38.16 7.32,37.02 Z" fill="none" stroke="currentColor" stroke-width="1.5"/><path d="M9.79,43.04 C10.21,41.9 9.62,40.64 8.46,40.22 C7.31,39.81 6.03,40.4 5.61,41.53 C5.19,42.67 5.78,43.93 6.94,44.35 C8.09,44.77 9.37,44.18 9.79,43.04 Z" fill="none" stroke="currentColor" stroke-width="1.5"/><path d="M14.13,66.48 C15.28,66.89 16.56,66.31 16.98,65.17 C17.4,64.03 16.81,62.77 15.65,62.35 C14.5,61.94 13.22,62.53 12.8,63.66 C12.39,64.8 12.98,66.06 14.13,66.48 Z" fill="none" stroke="currentColor" stroke-width="1.5"/><path d="M20.35,71.54 C21.51,71.96 22.78,71.37 23.2,70.23 C23.62,69.09 23.03,67.83 21.87,67.41 C20.72,67 19.44,67.58 19.02,68.72 C18.6,69.86 19.2,71.13 20.35,71.54 Z" fill="none" stroke="currentColor" stroke-width="1.5"/><path d="M22.33,56.8 C21.91,57.94 22.51,59.2 23.66,59.62 C24.82,60.04 26.09,59.45 26.51,58.31 C26.93,57.17 26.33,55.91 25.18,55.49 C24.03,55.07 22.75,55.66 22.33,56.8 Z" fill="none" stroke="currentColor" stroke-width="1.5"/><path d="M15.3,71.54 C16.46,71.96 17.73,71.37 18.15,70.23 C18.57,69.09 17.98,67.83 16.82,67.41 C15.67,67 14.39,67.58 13.97,68.72 C13.55,69.86 14.14,71.13 15.3,71.54 Z" fill="none" stroke="currentColor" stroke-width="1.5"/><path d="M19.54,55.29 C18.38,54.87 17.11,55.46 16.69,56.6 C16.27,57.74 16.87,59 18.02,59.42 C19.17,59.83 20.45,59.25 20.87,58.1 C21.29,56.97 20.69,55.71 19.54,55.29 Z" fill="none" stroke="currentColor" stroke-width="1.5"/><path d="M19.38,65.39 C20.53,65.81 21.81,65.22 22.23,64.08 C22.65,62.94 22.05,61.68 20.9,61.26 C19.75,60.84 18.47,61.43 18.05,62.57 C17.63,63.71 18.22,64.97 19.38,65.39 Z" fill="none" stroke="currentColor" stroke-width="1.5"/><path d="M13.48,35.22 C13.9,34.08 13.31,32.82 12.15,32.4 C11,31.99 9.72,32.57 9.3,33.71 C8.88,34.85 9.47,36.11 10.63,36.53 C11.78,36.95 13.06,36.36 13.48,35.22 Z" fill="none" stroke="currentColor" stroke-width="1.5"/><path d="M50,51.96 C48.85,52.38 48.25,53.64 48.67,54.78 C49.09,55.92 50.36,56.51 51.52,56.1 C52.67,55.68 53.27,54.42 52.85,53.28 C52.42,52.13 51.15,51.54 50,51.96 Z" fill="none" stroke="currentColor" stroke-width="1.5"/><path d="M52.01,46.44 C50.86,46.85 50.26,48.12 50.68,49.26 C51.1,50.4 52.37,50.99 53.53,50.57 C54.68,50.16 55.28,48.89 54.86,47.75 C54.43,46.62 53.16,46.03 52.01,46.44 Z" fill="none" stroke="currentColor" stroke-width="1.5"/><path d="M54.21,40.23 C53.06,40.64 52.46,41.91 52.88,43.05 C53.3,44.19 54.57,44.78 55.73,44.36 C56.88,43.95 57.48,42.68 57.06,41.54 C56.64,40.4 55.36,39.81 54.21,40.23 Z" fill="none" stroke="currentColor" stroke-width="1.5"/><path d="M39.36,62.76 C38.94,61.62 37.66,61.03 36.51,61.45 C35.36,61.86 34.76,63.13 35.18,64.27 C35.6,65.41 36.88,66 38.03,65.58 C39.19,65.17 39.78,63.9 39.36,62.76 Z" fill="none" stroke="currentColor" stroke-width="1.5"/><path d="M35.73,67.41 C34.58,67.82 33.98,69.09 34.4,70.23 C34.82,71.37 36.09,71.96 37.25,71.54 C38.4,71.13 39,69.86 38.58,68.72 C38.16,67.58 36.89,67 35.73,67.41 Z" fill="none" stroke="currentColor" stroke-width="1.5"/><path d="M56.67,34.2 C55.52,34.62 54.92,35.88 55.34,37.02 C55.76,38.16 57.03,38.75 58.19,38.33 C59.34,37.92 59.94,36.65 59.52,35.51 C59.1,34.37 57.83,33.78 56.67,34.2 Z" fill="none" stroke="currentColor" stroke-width="1.5"/><path d="M4.6,31.05 C5.02,29.91 4.42,28.65 3.27,28.23 C2.12,27.81 0.84,28.4 0.42,29.54 C0,30.68 0.59,31.94 1.75,32.36 C2.91,32.78 4.18,32.2 4.6,31.05 Z" fill="none" stroke="currentColor" stroke-width="1.5"/><path d="M36.16,58.3 C36.58,59.44 37.85,60.03 39.01,59.61 C40.16,59.2 40.76,57.93 40.34,56.79 C39.92,55.65 38.65,55.06 37.49,55.48 C36.33,55.9 35.74,57.16 36.16,58.3 Z" fill="none" stroke="currentColor" stroke-width="1.5"/><path d="M59.39,28.24 C58.24,28.65 57.64,29.92 58.06,31.06 C58.48,32.2 59.75,32.79 60.91,32.37 C62.06,31.96 62.66,30.69 62.24,29.55 C61.82,28.41 60.55,27.82 59.39,28.24 Z" fill="none" stroke="currentColor" stroke-width="1.5"/><path d="M31.08,2.07 L30.56,2.07 C30.56,2.07 12.75,0 2.01,18.65 C12.75,37.3 30.56,35.23 30.56,35.23 L31.08,35.23 C31.08,35.23 48.89,37.3 59.63,18.65 C48.89,0 31.08,2.07 31.08,2.07 Z M31.08,9.79 C34.15,9.79 36.64,12.25 36.64,15.28 C36.64,18.32 34.15,20.77 31.08,20.77 C28.01,20.77 25.52,18.31 25.52,15.28 C25.53,12.25 28.02,9.79 31.08,9.79 Z M31.18,29.7 L30.84,29.7 C30.84,29.7 19.41,31 12.52,19.26 C14.43,16 16.69,13.75 18.97,12.19 C18.67,13.26 18.49,14.38 18.49,15.55 C18.49,22.43 24.13,28.01 31.08,28.01 C38.03,28.01 43.67,22.43 43.67,15.55 C43.67,14.43 43.51,13.35 43.23,12.31 C45.44,13.86 47.64,16.08 49.51,19.26 C42.62,31 31.18,29.7 31.18,29.7 Z" fill="none" stroke="currentColor" stroke-width="1.5"/><path d="M84.9,2.6 L74.92,2.6 L74.92,11.81 L65.74,11.81 L65.74,21.69 L74.92,21.69 L74.92,30.55 L84.9,30.55 L84.9,21.69 L93.98,21.69 L93.98,11.81 L84.9,11.81 Z" fill="none" stroke="currentColor" stroke-width="1.5"/><path d="M41.18,37.79 C40.03,38.21 39.43,39.47 39.85,40.61 C40.27,41.75 41.54,42.34 42.7,41.92 C43.85,41.51 44.45,40.24 44.03,39.1 C43.61,37.96 42.33,37.38 41.18,37.79 Z" fill="none" stroke="currentColor" stroke-width="1.5"/><path d="M42.32,71.54 C43.47,71.13 44.07,69.86 43.65,68.72 C43.23,67.58 41.95,66.99 40.8,67.41 C39.65,67.82 39.05,69.09 39.47,70.23 C39.89,71.37 41.16,71.96 42.32,71.54 Z" fill="none" stroke="currentColor" stroke-width="1.5"/><path d="M43.13,55.29 C41.98,55.7 41.38,56.97 41.8,58.11 C42.22,59.25 43.49,59.84 44.65,59.43 C45.8,59.01 46.4,57.75 45.98,56.61 C45.56,55.47 44.28,54.88 43.13,55.29 Z" fill="none" stroke="currentColor" stroke-width="1.5"/><path d="M44.62,62.57 C44.2,61.43 42.93,60.84 41.77,61.26 C40.62,61.68 40.02,62.94 40.44,64.08 C40.86,65.22 42.14,65.81 43.29,65.39 C44.44,64.97 45.04,63.71 44.62,62.57 Z" fill="none" stroke="currentColor" stroke-width="1.5"/><path d="M47.37,71.54 C48.52,71.13 49.12,69.86 48.7,68.72 C48.28,67.58 47.01,66.99 45.85,67.41 C44.7,67.82 44.1,69.09 44.52,70.23 C44.94,71.37 46.21,71.96 47.37,71.54 Z" fill="none" stroke="currentColor" stroke-width="1.5"/><path d="M49.67,45.07 C49.25,43.93 47.97,43.34 46.82,43.76 C45.67,44.17 45.07,45.44 45.49,46.58 C45.91,47.72 47.19,48.31 48.34,47.89 C49.5,47.47 50.09,46.21 49.67,45.07 Z" fill="none" stroke="currentColor" stroke-width="1.5"/><path d="M53.37,33.72 C52.95,32.58 51.68,31.99 50.52,32.41 C49.37,32.82 48.77,34.09 49.19,35.23 C49.61,36.37 50.88,36.96 52.04,36.54 C53.19,36.12 53.79,34.86 53.37,33.72 Z" fill="none" stroke="currentColor" stroke-width="1.5"/><path d="M51.23,39.3 C50.81,38.16 49.54,37.57 48.38,37.99 C47.23,38.4 46.63,39.67 47.05,40.81 C47.47,41.95 48.75,42.54 49.9,42.12 C51.05,41.7 51.65,40.44 51.23,39.3 Z" fill="none" stroke="currentColor" stroke-width="1.5"/><path d="M38.49,46.38 C38.91,47.52 40.18,48.11 41.34,47.69 C42.49,47.28 43.09,46.01 42.67,44.87 C42.25,43.73 40.98,43.14 39.82,43.56 C38.67,43.98 38.07,45.24 38.49,46.38 Z" fill="none" stroke="currentColor" stroke-width="1.5"/><path d="M37.32,52.53 C37.74,53.67 39.01,54.26 40.17,53.84 C41.33,53.42 41.92,52.16 41.5,51.02 C41.08,49.88 39.81,49.29 38.65,49.71 C37.5,50.13 36.9,51.39 37.32,52.53 Z" fill="none" stroke="currentColor" stroke-width="1.5"/><path d="M50.97,58.85 C50.55,57.71 49.27,57.12 48.12,57.53 C46.97,57.95 46.37,59.21 46.79,60.35 C47.21,61.49 48.48,62.08 49.64,61.67 C50.79,61.26 51.38,59.99 50.97,58.85 Z" fill="none" stroke="currentColor" stroke-width="1.5"/><path d="M47.73,50.65 C47.31,49.51 46.04,48.92 44.88,49.34 C43.73,49.75 43.13,51.02 43.55,52.16 C43.97,53.3 45.24,53.89 46.4,53.48 C47.56,53.05 48.15,51.79 47.73,50.65 Z" fill="none" stroke="currentColor" stroke-width="1.5"/><path d="M49.86,63.66 C49.44,62.52 48.17,61.93 47.01,62.35 C45.86,62.77 45.26,64.03 45.68,65.17 C46.1,66.31 47.37,66.9 48.53,66.48 C49.69,66.06 50.28,64.8 49.86,63.66 Z" fill="none" stroke="currentColor" stroke-width="1.5"/></svg>