<svg xmlns="http://www.w3.org/2000/svg" viewBox="0 0 98.8 99.0" width="24" height="24"><path d="M54.29,64.62 L16.26,21.37 L8.01,2.3 L0,0 L0.03,94.12 C0.03,96.73 2.27,98.83 5.04,98.83 L73.41,98.77 L67.81,80 L54.29,64.62" fill="none" stroke="currentColor" stroke-width="1.5"/><path d="M41.36,10.29 L48.57,7.13 L45.22,0.36 L38.03,3.49 Z" fill="none" stroke="currentColor" stroke-width="1.5"/><path d="M38.18,16.02 L26.28,12.25 L22.24,23.45 L34.17,27.22 Z" fill="none" stroke="currentColor" stroke-width="1.5"/><path d="M38.27,20.71 L60.03,18.8 L61.86,38.31 L46.19,40.06 L39.83,32.1 Z" fill="none" stroke="currentColor" stroke-width="1.5"/><path d="M65.13,53.37 L72.7,57.69 L77.09,56.94 L82.27,48.88 L82.27,48.68 L74.7,44.36 L70.31,45.11 L65.13,53.17 Z" fill="none" stroke="currentColor" stroke-width="1.5"/><path d="M68.34,63.43 L82.39,65.2 L80.59,78.73 L70.64,77.4 L66.93,70.64 Z" fill="none" stroke="currentColor" stroke-width="1.5"/><path d="M48.69,49.57 L51.99,47.24 L47.31,41.39 L44.13,43.64 L44.13,49.57 Z" fill="none" stroke="currentColor" stroke-width="1.5"/><path d="M98.8,99 L86.4,99 L86.4,90.71 L91.46,85.91 L98.8,91.18 Z" fill="none" stroke="currentColor" stroke-width="1.5"/></svg>