<svg xmlns="http://www.w3.org/2000/svg" viewBox="0 0 76.31 98.84" width="24" height="24"><path d="M24.61,82.09 L24.61,91.61 L33.17,91.61 L33.17,98.84 L43.14,98.84 L43.14,91.61 L51.03,91.61 L51.03,82.09 L43.14,82.09 L43.14,75.08 C61.83,72.66 76.31,56.83 76.31,37.71 C76.31,16.92 59.19,0 38.15,0 C17.11,0 0,16.92 0,37.71 C0,56.83 14.48,72.66 33.17,75.09 L33.17,82.09 L24.61,82.09 Z M9.97,37.71 C9.97,22.35 22.61,9.86 38.15,9.86 C53.69,9.86 66.33,22.35 66.33,37.71 C66.33,53.07 53.69,65.56 38.15,65.56 C22.61,65.56 9.97,53.07 9.97,37.71 Z" fill="none" stroke="currentColor" stroke-width="1.5"/></svg>