<svg xmlns="http://www.w3.org/2000/svg" viewBox="0 0 101.21 90.61" width="24" height="24"><path d="M66.93,25.05 L51.37,10.61 L61.11,0 L94.29,30.84 C87.22,38.77 80.56,44.06 69.95,45.12 L66.93,25.05 Z M71.08,75.32 C71.18,77 71.6,78.68 72.33,80.31 C75.58,87.46 83.94,90.61 91.02,87.33 C98.1,84.05 101.21,75.64 97.99,68.5 C95.96,64.04 91.92,61.14 87.46,60.4 L85.16,74.4 L71.08,75.32 Z M82,72.12 L72.82,59.52 C69.47,62 67.1,65.85 66.59,70.32 L82,72.12 Z M42.01,33.52 L44.31,24.4 L51.22,16.81 L61.73,26.59 L16.95,75.32 C13.36,79.17 10.65,83.85 9.16,89.08 L0,86.16 C1.85,79.78 5.13,74.03 9.48,69.2 L42.01,33.52 Z M57.87,75.58 C61.51,78.44 63.85,82.91 63.85,87.92 L48.34,87.92 L57.87,75.58 Z" fill="none" stroke="currentColor" stroke-width="1.5"/></svg>