<svg xmlns="http://www.w3.org/2000/svg" viewBox="0 0 98.87 117.64" width="24" height="24"><path d="M98.37,20.24 C98.37,17.35 96.44,15.01 93.83,14.22 L93.83,0 L90.32,0 L90.32,14.22 C87.71,15 85.77,17.34 85.77,20.24 C85.77,23.14 87.71,25.48 90.32,26.25 L90.32,37.52 L90.32,40.6 L90.32,43.87 C90.32,43.87 90.27,45.24 88.73,45.24 C87.09,45.21 87.17,43.87 87.17,43.87 L87.17,41.72 C87.17,41.72 87.09,39 85.56,39 C84.03,39 84.03,41.72 84.03,41.72 L84.03,43.74 C84.03,43.74 84.14,48.81 88.81,48.81 C93.75,48.81 93.82,43.61 93.82,43.61 L93.82,43.58 L93.82,40.59 L93.82,39.7 L93.82,26.24 C96.44,25.47 98.37,23.14 98.37,20.24 Z M92.07,22.96 C90.59,22.96 89.38,21.74 89.38,20.24 C89.38,18.75 90.58,17.54 92.07,17.54 C93.56,17.54 94.76,18.76 94.76,20.24 C94.75,21.74 93.55,22.96 92.07,22.96 Z M93.5,76.82 L98.64,69.5 C98.64,69.5 62.97,30.38 18.89,70.46 L0.94,60.05 L8.88,75.41 L0,91.95 L19.06,82.84 C65.2,117.64 98.87,82.48 98.87,82.48 L93.5,76.82 Z M85.77,74.38 C83.49,74.38 81.65,72.49 81.65,70.2 C81.65,67.88 83.49,66.02 85.77,66.02 C88.06,66.02 89.91,67.88 89.91,70.2 C89.92,72.5 88.06,74.38 85.77,74.38 Z" fill="none" stroke="currentColor" stroke-width="1.5"/></svg>