<svg xmlns="http://www.w3.org/2000/svg" viewBox="0 0 97.84 85.67" width="24" height="24"><path d="M16.82,24.45 C18.6,24.45 20.12,23 20.12,21.25 C20.12,19.48 18.61,18.03 16.82,18.03 C15.05,18.03 13.53,19.48 13.53,21.25 C13.53,23 15.05,24.45 16.82,24.45 M0.1,29.19 L0.1,29.19 C0.05,29.14 0,29.04 0,28.95 C0,28.77 0.17,28.62 0.36,28.62 L10.78,28.62 C11.28,28.62 11.69,28.22 11.69,27.72 C11.69,27.33 11.52,27.08 11.14,26.86 L1.71,22.45 C1.54,22.35 1.42,22.17 1.42,21.93 C1.42,21.77 1.47,21.63 1.59,21.51 C1.59,21.51 26.33,0 81.14,20.84 L96.18,13.62 C96.33,13.55 96.5,13.5 96.66,13.5 C97.31,13.5 97.84,14.02 97.84,14.66 C97.84,14.87 97.77,15.06 97.67,15.24 L88.8,26.11 L97.67,36.94 C97.77,37.13 97.84,37.33 97.84,37.56 C97.84,38.18 97.31,38.7 96.66,38.7 C96.5,38.7 96.33,38.65 96.18,38.58 L81.14,31.36 C81.13,31.37 28.75,51.84 0.1,29.19 Z M12.91,55.1 C13.95,55.1 14.86,54.28 14.86,53.23 C14.86,52.21 13.95,51.36 12.91,51.36 C11.89,51.36 10.99,52.22 10.99,53.23 C11,54.28 11.89,55.1 12.91,55.1 M5.5,56.18 L5.5,56.18 C5.47,56.16 5.45,56.11 5.45,56.08 C5.45,56 5.52,55.95 5.62,55.95 L9.77,55.95 C9.95,55.95 10.13,55.78 10.13,55.59 C10.13,55.43 10.06,55.33 9.91,55.26 L6.15,53.49 C6.08,53.44 6.03,53.37 6.03,53.27 C6.03,53.2 6.05,53.12 6.1,53.1 C6.1,53.1 15.98,44.48 37.9,52.85 L43.92,49.95 C43.97,49.93 44.04,49.9 44.12,49.9 C44.38,49.9 44.57,50.11 44.57,50.35 C44.57,50.45 44.55,50.53 44.52,50.58 L40.97,54.93 L44.52,59.27 C44.54,59.34 44.57,59.44 44.57,59.51 C44.57,59.76 44.37,59.98 44.12,59.98 C44.05,59.98 43.97,59.96 43.92,59.93 L37.9,57.03 C37.9,57.04 16.98,65.22 5.5,56.18 Z M62.91,54.32 C63.95,54.32 64.86,53.5 64.86,52.45 C64.86,51.43 63.95,50.58 62.91,50.58 C61.89,50.58 60.99,51.44 60.99,52.45 C61,53.5 61.89,54.32 62.91,54.32 M55.5,55.4 L55.5,55.4 C55.47,55.38 55.45,55.33 55.45,55.3 C55.45,55.22 55.52,55.17 55.62,55.17 L59.77,55.17 C59.95,55.17 60.13,55 60.13,54.81 C60.13,54.65 60.06,54.55 59.91,54.48 L56.15,52.71 C56.08,52.66 56.03,52.59 56.03,52.49 C56.03,52.42 56.05,52.34 56.1,52.32 C56.1,52.32 65.98,43.7 87.9,52.07 L93.92,49.17 C93.97,49.15 94.04,49.12 94.12,49.12 C94.38,49.12 94.57,49.33 94.57,49.57 C94.57,49.67 94.55,49.75 94.52,49.8 L90.97,54.15 L94.52,58.49 C94.54,58.56 94.57,58.66 94.57,58.73 C94.57,58.98 94.37,59.2 94.12,59.2 C94.05,59.2 93.97,59.18 93.92,59.15 L87.9,56.25 C87.9,56.26 66.98,64.44 55.5,55.4 Z M34.36,75.55 C35.4,75.55 36.31,74.73 36.31,73.68 C36.31,72.66 35.4,71.81 34.36,71.81 C33.34,71.81 32.44,72.67 32.44,73.68 C32.44,74.72 33.34,75.55 34.36,75.55 M26.95,76.62 L26.95,76.62 C26.92,76.6 26.9,76.55 26.9,76.52 C26.9,76.44 26.97,76.39 27.07,76.39 L31.22,76.39 C31.4,76.39 31.58,76.22 31.58,76.03 C31.58,75.87 31.51,75.77 31.36,75.7 L27.6,73.93 C27.53,73.88 27.48,73.81 27.48,73.71 C27.48,73.64 27.5,73.56 27.55,73.54 C27.55,73.54 37.43,64.92 59.35,73.29 L65.37,70.39 C65.42,70.37 65.49,70.34 65.57,70.34 C65.83,70.34 66.02,70.55 66.02,70.79 C66.02,70.89 66,70.97 65.97,71.02 L62.42,75.37 L65.97,79.71 C65.99,79.78 66.02,79.88 66.02,79.95 C66.02,80.2 65.82,80.42 65.57,80.42 C65.5,80.42 65.42,80.4 65.37,80.37 L59.35,77.47 C59.35,77.48 38.43,85.67 26.95,76.62" fill="none" stroke="currentColor" stroke-width="1.5"/></svg>