<svg xmlns="http://www.w3.org/2000/svg" viewBox="0 0 100.03 93.34" width="24" height="24"><path d="M59.71,63.44 C61.95,63.44 63.75,61.61 63.75,59.34 C63.75,57.08 61.95,55.24 59.71,55.24 C57.47,55.24 55.64,57.08 55.64,59.34 C55.64,61.61 57.46,63.44 59.71,63.44 Z M99.9,92.98 C75.86,93.34 50.73,88.7 31.5,73.09 L31.5,73.09 C31.38,72.98 31.33,72.83 31.33,72.65 C31.33,72.28 31.63,71.99 31.97,71.99 L50.93,72.02 C51.84,72.02 52.61,71.26 52.61,70.33 C52.61,69.63 52.29,69.15 51.55,68.77 L34.41,60.51 C34.09,60.31 33.87,59.95 33.87,59.54 C33.87,59.23 33.99,58.95 34.19,58.74 L34.19,58.74 C34.19,58.74 55.07,40.1 99.9,40.51 L99.9,92.98 Z M90.24,0.04 C75.4,0.21 60.86,6.6 44.57,20.1 C43.96,19.93 42.62,19.57 42.62,19.57 C40.03,19.57 37.92,21.69 37.92,24.29 C37.92,24.29 38.11,25.17 38.22,25.72 C37.72,26.19 25.05,38.2 25.05,38.2 L13.84,48.87 C12.79,49.84 11.43,50.33 10.01,50.26 C8.59,50.19 7.29,49.57 6.35,48.52 C5.43,47.49 4.98,46.2 4.98,44.92 C4.98,43.46 5.56,42.01 6.7,40.96 C6.7,40.96 7.54,40.49 8.19,40.12 C8.33,41.09 8.72,44.05 8.72,44.05 L17.86,32.3 L7.77,35.76 C5.11,36.68 4.02,38.03 3.98,38.09 C0.29,41.47 0,47.38 3.41,51.2 C6.84,55.02 12.71,55.3 16.48,51.84 L16.58,51.72 L27.2,41.51 C27.2,41.51 40.31,28.98 40.74,28.57 C41.37,28.74 42.61,29.06 42.61,29.06 C45.19,29.06 47.28,26.94 47.28,24.32 C47.28,24.32 47.16,23.63 47.06,23.13 C62.84,10.01 76.63,3.8 90.44,3.64 C93.28,3.61 95.54,3.99 99.27,4.79 L100.03,4.96 L100.03,1.23 L99.54,1.12 C95.69,0.29 93.16,0 90.24,0.04 Z" fill="none" stroke="currentColor" stroke-width="1.5"/></svg>