<svg xmlns="http://www.w3.org/2000/svg" viewBox="0 0 98.47 87.37" width="24" height="24"><path d="M66.43,24.53 C68.85,24.53 70.81,22.54 70.81,20.08 C70.81,17.62 68.85,15.63 66.43,15.63 L66.33,15.63 C63.95,15.69 62.05,17.66 62.05,20.08 C62.04,22.54 64.01,24.53 66.43,24.53 Z M98.45,50.6 C98.45,48.5 96.77,46.79 94.69,46.79 L94.69,46.8 L81.44,46.8 L81.44,12.96 L81.44,12.96 C81.44,10.85 79.76,9.14 77.68,9.14 L47.59,9.15 L47.59,9.16 C45.95,9.22 44.57,10.35 44.12,11.88 L44.12,11.88 L28.39,65.79 L24.06,65.79 L42.9,1.08 L39.3,0 L15.89,80.38 L0.87,76.69 L0,80.39 L18.49,84.93 L19.4,81.82 L27.99,81.82 C29.02,85.04 31.99,87.37 35.5,87.37 C39.01,87.37 41.98,85.04 43.01,81.82 L66.22,81.82 C68.1,85.13 71.63,87.37 75.66,87.37 C79.7,87.37 83.22,85.14 85.1,81.82 L98.47,81.82 L98.45,50.6 L98.45,50.6 Z M47.69,12.97 L47.73,12.97 L47.73,12.97 L77.68,12.97 L77.68,46.8 L71.69,46.8 C72.35,46.22 72.75,45.58 72.82,45.15 L72.82,25.88 C72.57,25.04 71.74,23.95 71.33,23.86 C69.74,25.86 66.53,26.72 62.88,24.95 C62.88,24.95 58.81,30.54 55.27,33.6 C54.61,33.94 49.54,35.13 49.54,35.13 L50.31,39.07 L57.91,37.57 L62.47,32.44 L62.47,43.24 L51.87,43.24 L51.87,56.6 L34.98,56.6 L47.69,12.97 Z M60.74,47.42 L60.74,50.61 L60.74,56.61 L56.01,56.61 L56.01,47.43 L60.74,47.43 Z M35.49,83.8 C33.07,83.8 31.11,81.81 31.11,79.35 C31.11,76.89 33.07,74.9 35.49,74.9 C37.91,74.9 39.87,76.89 39.87,79.35 C39.87,81.81 37.91,83.8 35.49,83.8 Z M75.64,83.29 C71.84,83.29 68.76,80.16 68.76,76.3 C68.76,72.44 71.84,69.3 75.64,69.3 C79.44,69.3 82.53,72.44 82.53,76.3 C82.53,80.16 79.44,83.29 75.64,83.29 Z M94.7,78 L86.41,78 C86.5,77.44 86.54,76.87 86.54,76.29 C86.54,70.18 81.66,65.22 75.64,65.22 C69.62,65.22 64.74,70.18 64.74,76.29 C64.74,76.87 64.78,77.44 64.87,78 L43.26,78 C42.63,74.22 39.38,71.33 35.48,71.33 C31.58,71.33 28.33,74.22 27.7,78 L20.49,78 L22.94,69.6 L31.18,69.61 L33.86,60.42 L64.49,60.42 L64.49,50.61 L94.68,50.62 L94.68,78 Z" fill="none" stroke="currentColor" stroke-width="1.5"/></svg>