<svg xmlns="http://www.w3.org/2000/svg" viewBox="0 0 73.98 99.26" width="24" height="24"><path d="M70.04,0 L73.98,37.09 C73.98,41.71 73.16,46.07 71.5,50.15 C69.85,54.23 67.6,57.78 64.76,60.81 C61.92,63.84 58.52,66.23 54.55,68 C50.59,69.76 46.29,70.65 41.64,70.65 L41.64,89.83 L64.27,89.83 C66.22,89.83 67.66,90.31 68.59,91.27 C69.53,92.24 70,93.31 70,94.48 C70,95.66 69.54,96.74 68.6,97.75 C67.67,98.76 66.23,99.26 64.28,99.26 L9.15,99.26 C7.2,99.26 5.76,98.77 4.83,97.75 C3.9,96.75 3.43,95.66 3.43,94.48 C3.43,93.31 3.89,92.24 4.83,91.28 C5.76,90.32 7.21,89.84 9.15,89.84 L32.16,89.84 L32.16,70.66 C27.58,70.66 23.32,69.77 19.39,68.01 C15.45,66.24 12.06,63.85 9.22,60.82 C6.38,57.79 4.13,54.24 2.48,50.16 C0.82,46.08 0,41.73 0,37.1 L3.81,0.01 L48.31,0.01 L56.19,17.55 L58.73,18.69 L68.4,41.9 L68.91,41.65 L52.49,0 L70.04,0 L70.04,0 Z" fill="none" stroke="currentColor" stroke-width="1.5"/></svg>