<svg xmlns="http://www.w3.org/2000/svg" viewBox="0 0 75.28 98.5" width="24" height="24"><path d="M35.7,29 C35.7,30.3 34.66,31.3 33.33,31.3 L8.58,31.3 C7.25,31.3 6.21,30.29 6.21,29 L6.21,8.44 C6.21,7.14 7.24,6.14 8.58,6.14 L33.34,6.14 C34.66,6.14 35.71,7.15 35.71,8.44 L35.71,29 Z M64.56,31.62 C61.43,30.94 60.29,29.36 60.29,27.9 L60.29,22.59 C60.29,22.59 62.37,23.05 62.87,23.18 C63.88,23.44 64.53,24.98 64.56,26.32 C64.59,27.65 64.56,31.62 64.56,31.62 Z M70.86,63.9 C70.86,63.85 69.99,57.37 69.99,57.37 L69.99,27.48 C69.99,24.28 68.92,21.67 66.72,19.49 L52.67,5.71 C51.7,5.71 49.01,8.35 49.01,8.35 C49.01,9.31 55.99,16.13 55.99,16.13 L55.78,27.72 C55.78,31.84 59.18,35.18 63.38,35.18 L65.26,35.21 L64.59,57.38 L65.53,64.98 L69.76,87.41 C69.92,91.05 66.53,93.22 63.87,93.22 C61.4,93.22 58.54,91.21 58.54,88.62 L58.59,49.31 C58.59,44.53 54.65,40.65 49.8,40.65 C49.8,40.65 41.36,40.65 41.32,40.65 C41.91,40.62 41.94,14.91 41.94,9.45 C41.94,8.8 41.94,8.44 41.94,8.44 C41.92,3.78 38.07,0 33.33,0 L8.58,0 C3.85,0 0,3.78 0,8.44 L0,98.5 L41.94,98.5 L41.97,46.18 L49.89,46.18 C51.71,46.18 53.19,47.64 53.19,49.43 L53.19,88.63 C53.19,93.89 58.18,98.5 63.88,98.5 C69.26,98.5 75.28,94.29 75.28,88.63 C75.17,87.32 70.86,63.9 70.86,63.9 Z" fill="none" stroke="currentColor" stroke-width="1.5"/></svg>