<svg xmlns="http://www.w3.org/2000/svg" viewBox="0 0 63.44 98.83" width="24" height="24"><path d="M51.82,91.75 L45.8,91.75 L45.8,42.73 C47.53,42.73 47.39,43.52 47.39,44.04 L47.39,82.18 C47.39,87.16 51.1,90.57 55.48,90.57 C59.99,90.57 63.44,87.03 63.44,82.31 C63.44,77.59 57.08,63.96 57.08,59.5 L57.08,23.07 C57.08,20.32 56.02,17.96 54.56,16.78 L45.81,9.7 L45.81,4.06 C45.81,1.84 43.95,0 41.7,0 L10.12,0 C7.87,0 6.01,1.84 6.01,4.06 L6.01,91.75 L0,91.75 L0,98.83 L51.82,98.83 L51.82,91.75 Z M37.84,27.53 L13.97,27.53 C12.91,27.53 11.85,26.61 11.85,25.43 L11.85,7.34 C11.85,6.16 12.91,5.24 13.97,5.24 L37.84,5.24 C38.9,5.24 39.96,6.16 39.96,7.34 L39.96,25.43 C39.97,26.61 38.9,27.53 37.84,27.53 Z M55.48,86.77 C52.96,86.77 51.37,84.94 51.37,82.18 L51.37,40.11 C51.37,38.67 49.65,38.01 48.06,38.01 L45.8,38.01 L45.8,15.07 C46.86,15.86 47.65,16.77 47.65,17.82 L47.65,25.42 L52.96,25.42 L52.96,58.19 C52.96,66.45 59.59,77.59 59.59,82.31 C59.59,84.81 58,86.77 55.48,86.77 Z" fill="none" stroke="currentColor" stroke-width="1.5"/></svg>