<svg xmlns="http://www.w3.org/2000/svg" viewBox="0 0 97.97 98.34" width="24" height="24"><path d="M12.09,6.83 L61.02,6.83 C62.99,6.83 64.43,8.21 64.43,10.16 L64.43,33.36 C64.43,35.3 62.99,36.69 61.02,36.69 L12.09,36.69 C10.11,36.69 8.61,35.31 8.61,33.36 L8.61,10.16 C8.61,8.22 10.11,6.83 12.09,6.83 L12.09,6.83 Z M97.97,86.1 L85.33,16.3 C85.33,16.3 85.33,10.47 75.84,11.03 L75.84,17.36 L78.23,17.36 L90.8,86.23 C90.8,89.24 88.14,91.74 84.79,91.74 C81.44,91.74 78.71,89.24 78.71,86.23 L78.77,62.02 C78.77,55.37 79.94,46.52 66.14,46.52 L66.14,44.46 L73.03,44.46 L73.03,0 L0,0 L0,44.71 L6.7,44.71 L6.7,97.84 L66,97.84 L66,53.12 C70.85,52.81 71.53,53.68 71.53,57.83 L71.53,86.24 C71.53,92.88 77.47,98.34 84.79,98.34 C92.1,98.33 97.97,92.87 97.97,86.1" fill="none" stroke="currentColor" stroke-width="1.5"/></svg>