<svg xmlns="http://www.w3.org/2000/svg" viewBox="0 0 55.23 99.46" width="24" height="24"><path d="M17.17,16.64 C13.05,16.64 9.73,19.89 9.73,23.89 C9.73,27.9 13.05,31.14 17.17,31.14 C21.26,31.14 24.59,27.9 24.59,23.89 C24.59,19.89 21.27,16.64 17.17,16.64 Z M54.87,30.98 C54.59,29.41 53.29,28.53 53.22,28.47 L9.54,0 L5.48,5.81 C4.72,6.96 5.05,8.48 6.21,9.22 C7.36,9.97 8.9,9.67 9.66,8.52 L12.04,5.16 L47.52,28.3 L18.45,33.47 C16.39,33.81 14.9,35.85 15.36,37.84 L21.69,62.01 L1.22,92.35 C0,94.42 0.74,97.07 2.85,98.26 C4.99,99.46 7.69,98.73 8.92,96.66 C8.92,96.66 30.26,64.94 30.34,64.74 C30.34,64.74 31.44,69.14 31.44,69.16 L28.24,92.95 C27.84,95.32 29.46,97.53 31.88,97.93 C34.3,98.33 36.59,96.74 37,94.39 L40.31,69.91 C40.41,69.28 40.28,67.91 40.14,67.31 L32.84,38.65 L51.83,35.27 C53.86,34.92 55.23,32.99 54.87,30.98 Z" fill="none" stroke="currentColor" stroke-width="1.5"/></svg>