<svg xmlns="http://www.w3.org/2000/svg" viewBox="0 0 63.61 99.01" width="24" height="24"><path d="M54.71,16.7 C49.99,16.7 46.18,20.48 46.18,25.14 C46.18,29.79 49.99,33.56 54.71,33.56 C59.41,33.56 63.23,29.79 63.23,25.14 C63.23,20.48 59.41,16.7 54.71,16.7 Z M46.23,36.51 C46.23,36.51 39,24.84 29.94,32.54 L9.76,13.05 L13.02,5.26 L6.17,0 L1.96,11.32 L1.83,11.43 L1.89,11.5 L1.83,11.67 L2.18,11.81 L26.81,35.85 C20.27,43.89 6.7,64.16 2.98,72.58 C0,79.28 0,83.06 0,83.06 L1.71,99.01 L23.3,99.01 L24.6,88.22 C24.6,88.22 24.18,81.8 26.3,77.62 C28.42,73.41 46.84,53.7 46.84,53.7 L59.8,60.02 L63.61,56.25 L46.23,36.51 Z" fill="none" stroke="currentColor" stroke-width="1.5"/></svg>