<svg xmlns="http://www.w3.org/2000/svg" viewBox="0 0 99.12 89.38" width="24" height="24"><path d="M99.12,3.41 L99.12,0 L0,38.23 L0,41.66 Z M43.48,16.96 C46.44,16.96 48.86,14.49 48.86,11.45 C48.86,8.42 46.44,5.97 43.48,5.97 C40.5,5.97 38.08,8.41 38.08,11.45 C38.08,14.49 40.5,16.96 43.48,16.96 Z M76.87,45.46 L52.85,45.46 L52.85,25.6 L49.49,26.96 L49.49,45.46 L25.25,45.46 C23.35,45.46 21.8,47.04 21.8,48.98 L21.8,85.86 C21.8,87.8 23.35,89.38 25.25,89.38 L76.87,89.38 C78.77,89.38 80.32,87.8 80.32,85.86 L80.32,48.98 C80.32,47.04 78.77,45.46 76.87,45.46 Z M40.22,65.49 C40.22,66.54 39.4,67.41 38.37,67.41 L27.01,67.41 C25.98,67.41 25.14,66.55 25.14,65.49 L25.14,53.94 C25.14,52.89 25.99,52.02 27.01,52.02 L38.37,52.02 C39.4,52.02 40.22,52.88 40.22,53.94 L40.22,65.49 Z M58.69,65.35 C58.69,66.41 57.85,67.24 56.81,67.24 L45.48,67.24 C44.44,67.24 43.6,66.41 43.6,65.35 L43.6,53.77 C43.6,52.72 44.44,51.89 45.48,51.89 L56.81,51.89 C57.85,51.89 58.69,52.72 58.69,53.77 L58.69,65.35 Z M77.01,65.35 C77.01,66.41 76.19,67.24 75.15,67.24 L63.8,67.24 C62.77,67.24 61.92,66.41 61.92,65.35 L61.92,53.77 C61.92,52.72 62.77,51.89 63.8,51.89 L75.15,51.89 C76.19,51.89 77.01,52.72 77.01,53.77 L77.01,65.35 Z M56.35,12.06 C59.32,12.06 61.74,9.59 61.74,6.55 C61.74,3.51 59.32,1.04 56.35,1.04 C53.39,1.04 50.97,3.51 50.97,6.55 C50.97,9.59 53.39,12.06 56.35,12.06 Z" fill="none" stroke="currentColor" stroke-width="1.5"/></svg>