<svg xmlns="http://www.w3.org/2000/svg" viewBox="0 0 98.95 62.57" width="24" height="24"><path d="M42.31,35.89 L38.51,26.1 C37.77,24.25 36.21,22.66 33.29,22.64 L27.88,22.64 L27.88,20.1 C27.88,19.1 27.33,18.58 26.46,18.57 L23.28,18.57 L20.15,18.57 C19.25,18.58 18.7,19.1 18.68,20.1 L18.68,22.64 L13.21,22.64 C10.3,22.66 8.74,24.25 8.04,26.1 L4.19,35.89 C2.68,36.07 0,37.83 0.01,41.17 L0.01,53.6 L3.71,53.6 L3.71,57.58 C3.71,62.45 10.7,62.39 10.69,57.58 L10.69,53.6 L23.27,53.6 L35.8,53.6 L35.8,57.58 C35.81,62.39 42.79,62.45 42.78,57.58 L42.78,53.6 L46.53,53.6 L46.53,41.17 C46.51,37.83 43.83,36.07 42.31,35.89 Z M7.32,46.01 C5.54,46 4.1,44.52 4.09,42.7 C4.09,40.88 5.53,39.41 7.32,39.39 C9.1,39.41 10.54,40.88 10.55,42.7 C10.54,44.52 9.1,46 7.32,46.01 Z M23.27,35.65 L23.22,35.65 L8.13,35.65 L11.03,28.12 C11.39,27.02 11.93,26.24 13.21,26.25 L23.23,26.25 L23.28,26.25 L33.34,26.25 C34.59,26.24 35.13,27.02 35.48,28.12 L38.38,35.65 L23.27,35.65 Z M39.18,46.01 C37.41,45.99 35.97,44.52 35.95,42.7 C35.97,40.88 37.41,39.41 39.18,39.39 C40.98,39.41 42.42,40.88 42.41,42.7 C42.42,44.52 40.97,46 39.18,46.01 Z M73.55,0 C73.64,0 73.73,0 73.81,0 C73.9,0 73.99,0 74.08,0 L73.55,0 Z M96.53,9.07 C95.84,5.69 93.66,4.34 90.41,2.97 C87.2,1.65 79.52,0.06 73.82,0 C68.13,0.06 60.44,1.65 57.23,2.97 C53.98,4.33 51.81,5.68 51.15,9.07 L48.68,27.78 L48.68,53.6 L52.9,53.6 L52.9,57.63 C52.89,62.57 60.14,62.57 60.16,57.63 L60.16,53.6 L73.55,53.6 L87.51,53.6 L87.51,57.63 C87.5,62.57 94.75,62.57 94.73,57.63 L94.73,53.6 L98.95,53.6 L98.95,27.78 L96.53,9.07 Z M63.49,4.75 L73.55,4.75 L84.14,4.75 C86.2,4.74 86.2,7.78 84.14,7.77 L73.55,7.77 L63.49,7.77 C61.44,7.78 61.44,4.74 63.49,4.75 Z M56.51,45.48 C54.6,45.5 53.04,43.95 53.04,42.02 C53.04,40.12 54.59,38.57 56.51,38.57 C58.44,38.57 60,40.12 59.98,42.02 C60,43.95 58.44,45.5 56.51,45.48 Z M73.55,29.75 L55.13,29.75 C53.31,29.76 52.93,28.47 53.09,27.16 L54.99,13.58 C55.27,11.94 55.84,10.85 57.98,10.85 L73.55,10.85 L89.64,10.85 C91.8,10.86 92.36,11.94 92.63,13.58 L94.53,27.16 C94.7,28.47 94.32,29.76 92.49,29.75 L73.55,29.75 Z M91.12,45.48 C89.2,45.5 87.64,43.95 87.65,42.02 C87.64,40.12 89.2,38.57 91.12,38.57 C93.04,38.57 94.6,40.12 94.59,42.02 C94.6,43.95 93.04,45.5 91.12,45.48 Z" fill="none" stroke="currentColor" stroke-width="1.5"/></svg>