<svg xmlns="http://www.w3.org/2000/svg" viewBox="0 0 58.69 100.06" width="24" height="24"><path d="M49.89,11.66 L35.27,11.66 C32.65,11.64 32.75,15.49 35.27,15.5 L49.89,15.5 L49.89,17.42 L35.32,17.42 C32.67,17.41 32.76,21.26 35.32,21.25 L49.9,21.25 L49.9,23.17 L49.9,23.26 L35.32,23.26 C32.67,23.28 32.76,27.13 35.32,27.15 L49.9,27.15 L49.9,29.06 L35.32,29.06 C32.72,29.05 32.76,32.9 35.32,32.9 L49.9,32.9 L49.9,34.82 L35.32,34.82 C32.72,34.83 32.72,38.67 35.32,38.66 L49.9,38.66 L49.9,40.63 L35.32,40.63 C32.72,40.61 32.72,44.46 35.32,44.47 L49.9,44.47 L49.9,46.39 L35.32,46.39 C32.72,46.39 32.72,50.23 35.32,50.23 L49.9,50.23 L49.9,52.15 L35.32,52.15 C32.72,52.17 32.76,56.02 35.32,56.03 L49.9,56.03 L49.9,93.33 C49.88,99.04 58.69,98.94 58.69,93.33 L58.69,5.9 C58.69,3.32 56.51,0.03 52.91,0.05 L35.27,0.01 C32.65,0.03 32.75,3.88 35.27,3.89 L49.89,3.89 L49.89,5.81 L35.27,5.81 C32.66,5.81 32.75,9.66 35.27,9.65 L49.89,9.65 L49.89,11.66 L49.89,11.66 Z M32.98,87.03 C32.48,90.19 33.57,95.86 35.85,97.91 C38.24,100.06 41.05,97.32 39.88,95.08 C38.71,92.89 37.23,91.69 38.47,86.45 L32.98,87.03 L32.98,87.03 Z M28.32,68.66 L28.32,43.25 L23.46,1.4 C23.32,0.26 22.62,0 21.96,0.01 C21.31,0 20.61,0.26 20.5,1.4 L15.74,43.25 L15.74,68.66 C6.76,64.05 0.02,71.25 0,77.77 C0.02,83.61 4.37,88.39 10.59,88.41 C16.79,88.39 21.04,83.03 21.03,77.77 L21.03,52.22 L23.02,52.22 L23.02,77.77 C23.03,83.85 28,88.32 33.33,88.32 C40.01,88.32 44.27,83.68 44.26,77.82 C44.26,71.2 37.32,64.05 28.32,68.66 Z M10.49,83.05 C7.58,83.05 5.22,80.72 5.19,77.83 C5.21,74.97 7.58,72.63 10.49,72.65 C13.41,72.63 15.78,74.97 15.79,77.83 C15.78,80.72 13.41,83.05 10.49,83.05 Z M33.76,83.05 C30.86,83.05 28.5,80.72 28.51,77.83 C28.5,74.97 30.86,72.63 33.76,72.65 C36.7,72.63 39.06,74.97 39.06,77.83 C39.06,80.72 36.7,83.05 33.76,83.05 Z" fill="none" stroke="currentColor" stroke-width="1.5"/></svg>