<svg xmlns="http://www.w3.org/2000/svg" viewBox="0 0 99.12 66.77" width="24" height="24"><path d="M56.91,34.76 C59.47,35.66 62.25,34.29 63.14,31.67 C64.03,29.04 62.67,26.19 60.11,25.28 C57.55,24.36 54.77,25.75 53.88,28.38 C53.01,30.99 54.35,33.86 56.91,34.76 Z M97.05,2.04 C97.05,2.04 80.49,0 46.09,0 C20.72,0.01 0,2.04 0,2.04 C0,2.04 8.59,5.92 7.1,17.95 C7.1,17.95 19.43,16.45 24.6,27.28 L47.76,20.08 L46.24,35.92 L36.45,38.38 C35.58,38.58 34.85,39.02 34.25,39.57 L12.76,60.84 C11.49,62.07 11.46,64.15 12.69,65.42 C13.89,66.72 15.92,66.77 17.16,65.54 L33.34,49.56 L53.15,44.59 L53.01,44.63 L56.31,43.77 L59.34,47.31 C59.81,47.83 60.47,48.16 61.19,48.16 L71.86,48.2 C73.2,48.2 74.31,47.08 74.31,45.69 L74.31,45.69 C74.31,44.48 73.49,43.54 72.39,43.26 L64.45,14.91 L97.54,4.62 C99.12,3.92 98.99,2.26 97.05,2.04 Z M70,43.14 C67.57,43.14 63.52,43.12 62.3,43.12 C61.14,41.77 56.55,36.46 56.55,36.46 C56.49,36.36 56.37,36.34 56.31,36.28 C55.15,34.88 53.3,34.17 51.46,34.62 L48.59,35.35 L50.12,19.35 L62.25,15.58 L70,43.14 Z" fill="none" stroke="currentColor" stroke-width="1.5"/></svg>