<svg xmlns="http://www.w3.org/2000/svg" viewBox="0 0 98.33 90.48" width="24" height="24"><path d="M79.43,57.36 L94.47,57.36 L94.47,47.11 L84.72,47.11 L79.43,57.36 Z M67.65,42.02 L67.65,31.74 L49.52,31.74 L49.52,42.02 L67.65,42.02 Z" fill="none" stroke="currentColor" stroke-width="1.5"/><path d="M59.6,29.69 L59.6,17.39 L57.58,17.39 L57.58,29.69 L59.6,29.69 Z M25.68,51.22 L39.62,7.25 L59.6,15.38 L59.6,13.33 L33.39,0 L8.54,51.22 L25.68,51.22 Z M86.14,86.13 C83.16,86.13 80.33,85.48 77.78,84.32 C76.37,83.68 75.05,82.9 73.83,81.97 C72.61,82.9 71.29,83.68 69.88,84.32 C67.32,85.48 64.49,86.13 61.52,86.13 C58.55,86.13 55.72,85.48 53.16,84.32 C51.75,83.68 50.43,82.9 49.21,81.97 C47.99,82.9 46.67,83.68 45.26,84.32 C42.7,85.48 39.87,86.13 36.9,86.13 C33.92,86.13 31.09,85.48 28.54,84.32 C27.14,83.68 25.81,82.9 24.59,81.97 C23.37,82.9 22.05,83.68 20.64,84.32 C18.08,85.48 15.25,86.13 12.28,86.13 C7.68,86.13 3.44,84.59 0,82 L0,87.18 C3.63,89.28 7.82,90.48 12.28,90.48 C16.76,90.48 20.96,89.27 24.59,87.16 C28.22,89.27 32.43,90.48 36.9,90.48 C41.37,90.48 45.58,89.27 49.21,87.16 C52.84,89.27 57.05,90.48 61.52,90.48 C65.99,90.48 70.2,89.27 73.83,87.16 C77.46,89.27 81.67,90.48 86.14,90.48 C90.57,90.48 94.72,89.3 98.33,87.23 L98.33,82.06 C94.91,84.61 90.7,86.13 86.14,86.13 Z M77.3,61.47 L74.14,67.61 L33.95,67.61 L25.68,61.47 L0,61.47 L12.69,81.87 C15.51,81.81 18.2,81.18 20.64,80.07 C22.04,79.43 23.37,78.65 24.59,77.72 C25.81,78.65 27.13,79.43 28.54,80.07 C31.1,81.23 33.93,81.88 36.9,81.88 C39.88,81.88 42.7,81.23 45.26,80.07 C46.66,79.43 47.99,78.65 49.21,77.72 C50.43,78.65 51.75,79.43 53.16,80.07 C55.72,81.23 58.55,81.88 61.52,81.88 C64.49,81.88 67.32,81.23 69.88,80.07 C71.29,79.43 72.61,78.65 73.83,77.72 C75.05,78.65 76.37,79.43 77.78,80.07 C80.34,81.23 83.17,81.88 86.14,81.88 C90.7,81.88 94.91,80.37 98.33,77.81 L98.33,75.33 L98.33,61.47 L77.3,61.47 Z" fill="none" stroke="currentColor" stroke-width="1.5"/></svg>