<svg xmlns="http://www.w3.org/2000/svg" viewBox="0 0 63.72 98.89" width="24" height="24"><path d="M30,15.55 C34.34,15.55 37.85,12.06 37.85,7.77 C37.85,3.48 34.34,0 30,0 C25.66,0 22.13,3.47 22.13,7.76 C22.13,12.05 25.66,15.55 30,15.55 Z M16.72,16.84 C17.02,15.65 16.26,14.45 15.07,14.15 L8.52,12.59 C7.29,12.32 6.08,13.03 5.8,14.22 L0.3,36.74 C0,37.93 0.74,39.13 1.95,39.43 L8.52,40.99 C9.7,41.29 10.94,40.55 11.21,39.36 L16.72,16.84 Z M46.95,96.95 C46.95,97 46.93,97.04 46.93,97.06 C46.93,98.05 47.74,98.85 48.74,98.85 C49.65,98.85 50.41,98.16 50.53,97.29 L63.72,26.54 C63.72,26.49 63.72,26.45 63.72,26.4 C63.72,25.44 62.93,24.63 61.93,24.63 C61.02,24.63 60.33,25.32 60.14,26.19 L46.95,96.95 Z M3.06,92.31 C2.99,92.68 2.97,93.05 2.97,93.41 C2.97,96.45 5.43,98.88 8.5,98.88 C11.01,98.88 13.12,97.23 13.8,94.98 L23.3,56.11 L32.36,94.76 C32.94,97.15 35.12,98.89 37.7,98.89 C40.77,98.89 43.23,96.46 43.23,93.43 C43.23,93.02 43.18,92.63 43.11,92.24 L30.67,40.88 L31.72,36.36 L32.53,39.92 C33.27,42.24 35.41,42.47 35.41,42.47 L48.21,45.68 C48.47,45.73 48.72,45.75 48.98,45.75 C51.07,45.75 52.76,44.1 52.76,42.03 C52.76,40.26 51.53,38.77 49.86,38.38 L38.78,35.62 L35.74,23.4 C34.3,16.58 27.7,16.74 27.7,16.74 C21.29,16.58 19.69,23.24 19.69,23.24 L3.06,92.31 Z" fill="none" stroke="currentColor" stroke-width="1.5"/></svg>