<svg xmlns="http://www.w3.org/2000/svg" viewBox="0 0 99.7 99.36" width="24" height="24"><path d="M38.53,13.85 C42.35,13.85 45.43,10.75 45.43,6.94 C45.43,3.1 42.35,0 38.53,0 C34.73,0 31.65,3.1 31.65,6.94 C31.65,10.75 34.73,13.85 38.53,13.85 M89.75,33.81 L82.44,32.4 L78.19,40.89 C78.88,41.06 79.59,41.13 80.32,41.13 C84.87,41.13 88.66,38.03 89.75,33.81 M0,48.14 C0,42.51 4.53,37.94 10.13,37.94 L31.51,37.94 L31.51,22.51 C31.51,18.67 34.59,15.57 38.41,15.57 C42.23,15.57 45.31,18.67 45.31,22.51 L45.31,24.89 L55.49,27.51 C57.27,27.92 58.41,29.7 58,31.49 C57.6,33.3 55.82,34.42 54.01,34.02 L45.3,31.97 L45.3,37.93 L55.55,37.93 L83.61,8.77 L82.78,16.35 L96.59,25.58 C98.87,26.89 99.7,29.85 98.39,32.15 C97.37,33.97 95.33,34.86 93.41,34.5 L92.3,34.29 C90.97,39.7 86.11,43.68 80.34,43.68 C79.2,43.68 78.09,43.51 77.04,43.23 L66.57,64.7 L66.57,94.18 C66.57,96.71 64.51,98.76 61.99,98.76 C59.48,98.76 57.44,96.71 57.44,94.18 L57.44,64.04 L34.35,64.04 L30.22,71.15 L38.86,91.85 C40.12,94.07 39.33,96.86 37.15,98.1 C34.94,99.36 32.17,98.58 30.91,96.36 L20.83,72.48 L20.83,64.87 L16.32,72 L16.32,94.17 C16.32,96.7 14.28,98.75 11.76,98.75 C9.24,98.75 7.18,96.7 7.18,94.17 L7.18,68.57 L10.95,62.63 L10.95,42.54 L7.2,48.31 L7.2,65.05 L0,65.05 L0,48.14 Z" fill="none" stroke="currentColor" stroke-width="1.5"/></svg>