<svg xmlns="http://www.w3.org/2000/svg" viewBox="0 0 99.02 60.92" width="24" height="24"><path d="M90.77,45.38 L90.77,60.92 L98.89,60.92 L98.89,37.69 L8.06,37.69 L8.06,4.09 C8.06,1.84 6.28,0 4.03,0 L4.03,0 C1.8,0 0,1.84 0,4.09 L0,60.92 L8.06,60.92 L8.06,45.38 L90.77,45.38 Z M20.46,20.47 C24.5,20.47 27.76,17.17 27.76,13.08 C27.76,9.02 24.5,5.72 20.46,5.72 C16.42,5.72 13.16,9.02 13.16,13.08 C13.16,17.17 16.42,20.47 20.46,20.47 Z M99.02,31.59 L99,21.44 C98.97,18.22 96.29,16 93.18,15.61 L35.83,9.84 C35.72,9.82 35.62,9.76 35.51,9.76 C33.52,9.76 31.92,11.39 31.92,13.39 L31.92,24.33 L16.93,24.33 C14.92,24.33 13.31,25.97 13.31,27.96 C13.31,29.98 14.92,31.59 16.93,31.59 L99.02,31.59 Z" fill="none" stroke="currentColor" stroke-width="1.5"/></svg>