<svg xmlns="http://www.w3.org/2000/svg" viewBox="0 0 99.12 99.13" width="24" height="24"><path d="M59.92,69.29 C62.11,69.29 63.89,67.44 63.89,65.19 C63.89,62.92 62.12,61.1 59.92,61.1 C57.75,61.1 55.98,62.92 55.98,65.19 C55.99,67.44 57.76,69.29 59.92,69.29 M99.12,98.77 C75.7,99.13 51.19,94.49 32.4,78.92 C32.31,78.79 32.24,78.66 32.24,78.47 C32.24,78.11 32.52,77.82 32.89,77.82 L51.36,77.84 C52.27,77.84 52.98,77.09 52.98,76.15 C52.98,75.45 52.67,74.98 51.97,74.61 L35.27,66.35 C34.94,66.16 34.74,65.8 34.74,65.38 C34.74,65.06 34.86,64.78 35.05,64.59 C35.05,64.59 55.43,45.97 99.12,46.39 L99.12,98.77 Z M17.6,0 L0,0 L0,14.77 L17.61,14.77 L17.61,0 Z M99.12,0 L36.47,0 L36.47,14.59 L99.12,14.59 L99.12,0 Z M25.9,22.55 C24.35,23.07 23.23,24.61 23.23,26.41 C23.23,28.19 24.38,29.73 25.9,30.3 L25.9,55.54 C25.9,58.8 23.39,61.41 20.24,61.41 C17.11,61.41 14.59,58.8 14.59,55.54 C14.59,54.74 14.74,53.98 15.03,53.27 L15.26,53.47 L17.26,55.35 L16.01,43.86 L12.76,51.61 C11.78,54 12.01,55.54 12.01,55.54 C12.01,60.24 15.69,64.07 20.24,64.07 C24.81,64.07 28.48,60.24 28.48,55.54 L28.48,30.25 C30.02,29.69 31.13,28.16 31.13,26.41 C31.13,24.62 30.02,23.08 28.48,22.5 L28.48,0 L25.91,0 L25.91,22.55 Z" fill="none" stroke="currentColor" stroke-width="1.5"/></svg>