<svg xmlns="http://www.w3.org/2000/svg" viewBox="0 0 99.05 98.5" width="24" height="24"><path d="M51.12,38.23 C54.17,37.26 57.43,38.93 58.4,41.95 C59.37,44.96 57.69,48.19 54.64,49.16 L38.89,54.14 C37.07,54.72 35.07,54.36 33.56,53.19 L27.05,48.14 L41.2,98.5 L0,98.5 L0,34.53 C0,30.75 3.09,27.69 6.91,27.69 L17.21,27.69 C18.68,27.69 20.03,28.15 21.15,29.01 C21.15,29.01 34.59,39.41 38.3,42.29 L51.12,38.23 Z M25.96,57.52 L19.71,57.52 L19.71,51.33 L12.25,51.33 L12.25,57.52 L6.02,57.52 L6.02,64.93 L12.25,64.93 L12.25,71.09 L19.71,71.09 L19.71,64.93 L25.96,64.93 L25.96,57.52 Z" fill="none" stroke="currentColor" stroke-width="1.5"/><path d="M13.43,24.62 C20.29,24.62 25.86,19.11 25.86,12.31 C25.86,5.51 20.29,0 13.43,0 C6.56,0 0.99,5.52 0.99,12.31 C0.99,19.11 6.56,24.62 13.43,24.62" fill="none" stroke="currentColor" stroke-width="1.5"/><path d="M86.6,24.66 C93.47,24.66 99.05,19.14 99.05,12.34 C99.05,5.53 93.47,0 86.6,0 C79.72,0 74.15,5.52 74.15,12.34 C74.14,19.14 79.72,24.66 86.6,24.66" fill="none" stroke="currentColor" stroke-width="1.5"/><path d="M82.83,27.97 C77.74,27.97 75.42,29.7 73.49,32.68 L72.24,35.06 L64.96,32.96 L65.27,31 L47.89,27.15 L47.41,29.3 L44.16,28.58 L44.65,26.43 L43.34,26.14 L41.85,32.73 L43.15,33.02 L43.65,30.87 L46.9,31.59 L46.41,33.75 L63.79,37.6 L64.35,35.58 L71.39,36.7 L53.24,71.23 C51.84,74.01 52.97,77.38 55.78,78.77 C58.58,80.16 61.99,79.04 63.41,76.26 L78.55,47.18 L81.03,47.18 L81.03,98.49 L98.87,98.49 L98.87,27.97 L82.83,27.97 Z" fill="none" stroke="currentColor" stroke-width="1.5"/></svg>