<svg xmlns="http://www.w3.org/2000/svg" viewBox="0 0 98.92 98.69" width="24" height="24"><path d="M49.46,0.02 C22.16,0 0.02,22.09 0,49.32 C0.02,76.6 22.16,98.69 49.46,98.68 C76.77,98.69 98.9,76.6 98.92,49.32 C98.9,22.09 76.76,0 49.46,0.02 Z M49.46,87.32 C28.46,87.32 11.43,70.32 11.45,49.33 C11.42,28.37 28.45,11.37 49.46,11.38 C70.47,11.37 87.5,28.37 87.53,49.32 C87.5,70.32 70.47,87.32 49.46,87.32 Z M44.35,67.01 L55.66,66.96 L55.66,58.3 C55.63,55.95 56.74,53.73 59.7,51.81 C62.67,49.88 70.94,45.98 70.96,35.69 C70.95,25.44 62.26,18.39 54.95,16.87 C47.65,15.4 39.74,16.38 34.13,22.5 C29.09,27.93 28.03,32.24 28.01,41.75 L39.32,41.75 L39.32,39.53 C39.3,34.47 39.89,29.12 47.19,27.63 C51.2,26.85 54.95,28.09 57.19,30.23 C59.71,32.7 59.73,38.25 55.66,40.99 L49.32,45.26 C45.63,47.63 44.36,50.24 44.35,54.07 L44.35,67.01 L44.35,67.01 Z M44.3,82.86 L44.3,71.39 L55.72,71.39 L55.72,82.86 L44.3,82.86 Z" fill="none" stroke="currentColor" stroke-width="1.5"/></svg>