<svg xmlns="http://www.w3.org/2000/svg" viewBox="0 0 71.41 98.92" width="24" height="24"><ellipse cx="35.56" cy="13.74" rx="13.74" ry="13.74" fill="none" stroke="currentColor"/><path d="M53.7,31.44 C51.45,31.44 44.62,31.44 37.52,31.44 L37.52,44.11 L40.5,44.83 L40.5,41.89 C40.5,39.98 42.26,38.25 45.48,40.38 C50.01,43.39 54.88,60.52 49.6,59.84 C47.05,59.52 45.6,58.3 42.79,58.14 C40.51,58.02 40.51,57.05 40.5,55.78 C40.5,54.5 40.5,50.41 40.5,50.41 L40.5,48.13 C39.54,47.9 38.42,47.63 37.52,47.41 L37.52,63.08 C37.52,63.08 41.98,60.08 45.17,62.53 C47.18,64.07 48.44,68.52 42.22,72.14 C40.78,73 32.97,75.05 30.51,70.5 L27.74,70.5 C26.49,70.5 25.48,71.51 25.48,72.74 C25.48,73.97 26.49,74.97 27.74,74.97 L44.13,74.97 C46.72,74.97 48.83,77.05 48.83,79.61 C48.83,82.17 46.72,84.25 44.13,84.25 L27.17,84.25 C26.59,84.25 26.12,84.72 26.12,85.3 C26.12,85.87 26.59,86.34 27.17,86.34 L44.13,86.34 C46.72,86.34 48.83,88.42 48.83,90.98 C48.83,93.54 46.72,95.62 44.13,95.62 L24.29,95.62 C23.29,95.62 22.47,94.82 22.47,93.82 C22.47,92.83 23.29,92.02 24.29,92.02 L44.12,92.02 C44.7,92.02 45.17,91.55 45.17,90.98 C45.17,90.41 44.69,89.94 44.12,89.94 L27.17,89.94 C24.58,89.94 22.47,87.86 22.47,85.3 C22.47,82.74 24.58,80.65 27.17,80.65 L44.13,80.65 C44.71,80.65 45.18,80.18 45.18,79.61 C45.18,79.04 44.7,78.57 44.13,78.57 L27.74,78.57 C24.48,78.57 21.84,75.95 21.84,72.74 C21.84,69.53 24.49,66.9 27.74,66.9 L31.4,66.9 C31.42,66.9 31.44,66.91 31.47,66.91 L32.71,66.91 C33.92,66.91 33.87,65.65 33.87,65.65 L33.87,47.6 C32.84,47.88 31.66,48.2 30.9,48.41 L30.9,50.41 C30.9,50.41 30.9,54.5 30.9,55.78 C30.9,57.05 30.89,58.02 28.61,58.14 C25.8,58.3 24.36,59.52 21.8,59.84 C16.51,60.51 21.39,43.39 25.91,40.38 C29.12,38.25 30.89,39.98 30.89,41.89 L30.89,45.08 L33.86,44.27 L33.86,31.44 C26.98,31.44 20.52,31.44 18.39,31.44 C8.67,31.44 0,39.23 0,48.83 C0,53.72 0,87.64 0,90.92 C0,94.2 2.62,96.87 5.94,96.87 C9.27,96.87 11.96,94.21 11.96,90.92 C11.96,87.09 11.96,52.97 11.96,52.97 L16.94,52.97 L16.94,98.92 L54.41,98.92 L54.41,52.97 L59.45,52.97 C59.45,52.97 59.45,87.1 59.45,90.92 C59.45,94.2 62.14,96.87 65.47,96.87 C68.8,96.87 71.41,94.21 71.41,90.92 C71.41,87.63 71.41,53.72 71.41,48.83 C71.39,39.23 63.42,31.44 53.7,31.44 Z" fill="none" stroke="currentColor" stroke-width="1.5"/></svg>