<svg xmlns="http://www.w3.org/2000/svg" viewBox="0 0 99.5 86.34" width="24" height="24"><path d="M31.93,16.59 C36.33,16.07 39.45,12.03 38.93,7.59 C38.41,3.15 34.41,0 30.02,0.52 C25.61,1.07 22.5,5.08 23.02,9.53 C23.57,13.96 27.52,17.12 31.93,16.59 M97.82,54.75 C97.39,54.53 64.72,37.77 64.72,37.77 L56.42,26.98 L56.32,26.86 C55.2,25.8 53.44,25.9 52.4,27.05 L52.4,27.07 C51.67,27.93 51.52,29.2 52.09,30.23 L58.24,38.25 L58.26,38.32 L53.15,50.14 L39.6,46.73 L39.01,41.83 L50.15,40.47 C50.65,40.45 51.17,40.3 51.64,40.04 C53.48,39.06 54.19,36.74 53.22,34.88 C52.46,33.44 50.94,32.68 49.45,32.85 L38.1,34.23 L37.1,25.73 C36.56,21.32 32.56,18.14 28.18,18.66 C23.79,19.21 20.65,23.25 21.17,27.69 L23.53,47.34 C23.82,49.85 25.3,52.02 27.26,53.28 L9.45,55.44 L3.89,69.34 C4.11,69.25 4.34,69.22 4.53,69.13 C6.83,68.05 9.37,67.48 11.88,67.48 C14.4,67.48 16.93,68.05 19.19,69.11 C20.63,69.77 22.22,70.11 23.75,70.11 C25.3,70.11 26.86,69.77 28.28,69.13 C30.57,68.05 33.1,67.48 35.63,67.48 C38.14,67.48 40.67,68.05 42.92,69.11 C44.39,69.77 45.97,70.11 47.51,70.11 C49.07,70.11 50.61,69.77 52.05,69.13 C54.34,68.05 56.89,67.48 59.4,67.48 C61.91,67.48 64.44,68.05 66.69,69.11 C67.23,69.34 67.83,69.52 68.41,69.68 C77.51,67.27 93.64,62.61 97.99,58.67 C99.25,57.52 99.5,55.59 97.82,54.75 M0,86.34 C2.08,86.34 4.09,85.86 5.86,85.05 C7.69,84.19 9.74,83.69 11.89,83.69 C14.05,83.69 16.08,84.19 17.93,85.05 C19.7,85.86 21.68,86.34 23.76,86.34 C25.83,86.34 27.82,85.86 29.61,85.05 C31.44,84.19 33.5,83.69 35.64,83.69 C37.77,83.69 39.83,84.19 41.67,85.05 C43.45,85.86 45.44,86.34 47.52,86.34 C49.6,86.34 51.59,85.86 53.38,85.05 C55.21,84.19 57.26,83.69 59.4,83.69 C61.53,83.69 63.59,84.19 65.4,85.05 C67.2,85.86 69.19,86.34 71.27,86.34 C73.36,86.34 75.34,85.86 77.11,85.05 C78.96,84.19 81,83.69 83.14,83.69 C85.29,83.69 87.35,84.19 89.16,85.05 C90.94,85.86 92.95,86.34 95.04,86.34 L95.04,77.48 C92.95,77.48 90.94,77 89.16,76.19 C87.35,75.33 85.29,74.85 83.14,74.85 C81.01,74.85 78.96,75.33 77.11,76.19 C75.34,77 73.36,77.48 71.27,77.48 C69.19,77.48 67.2,77 65.4,76.19 C63.59,75.33 61.53,74.85 59.4,74.85 C57.26,74.85 55.2,75.33 53.38,76.19 C51.58,77 49.6,77.48 47.52,77.48 C45.44,77.48 43.45,77 41.67,76.19 C39.83,75.33 37.77,74.85 35.64,74.85 C33.5,74.85 31.44,75.33 29.61,76.19 C27.82,77 25.83,77.48 23.76,77.48 C21.68,77.48 19.69,77 17.93,76.19 C16.08,75.33 14.05,74.85 11.89,74.85 C9.74,74.85 7.69,75.33 5.86,76.19 C4.09,77 2.08,77.48 0,77.48 L0,86.34 Z" fill="none" stroke="currentColor" stroke-width="1.5"/></svg>