<svg xmlns="http://www.w3.org/2000/svg" viewBox="0 0 99.73 99.58" width="24" height="24"><path d="M85.11,61.51 C82.98,61.51 80.93,62 79.13,62.84 C77.35,63.61 75.38,64.08 73.31,64.08 C71.25,64.08 69.27,63.61 67.49,62.84 C65.68,62 63.64,61.51 61.51,61.51 C59.4,61.51 57.36,62 55.53,62.84 C53.77,63.61 51.8,64.08 49.73,64.08 C47.66,64.08 45.67,63.61 43.91,62.84 C42.1,62 40.06,61.51 37.93,61.51 C35.8,61.51 33.75,62 31.95,62.84 C30.17,63.61 28.2,64.08 26.13,64.08 C24.07,64.08 22.09,63.61 20.31,62.84 C18.5,62 16.48,61.51 14.35,61.51 C12.22,61.51 10.17,62 8.37,62.84 C6.59,63.61 4.61,64.08 2.55,64.08 L2.55,72.77 C4.61,72.77 6.59,72.3 8.37,71.53 C10.18,70.69 12.22,70.2 14.35,70.2 C16.48,70.2 18.5,70.69 20.31,71.53 C21.81,72.19 23.48,72.56 25.19,72.68 L17.96,79.87 C15.66,78.44 12.61,78.7 10.61,80.69 L2.3,88.95 C0,91.24 0,94.97 2.3,97.29 C4.62,99.58 8.36,99.58 10.66,97.29 L18.95,89.02 C20.83,87.15 21.16,84.34 19.98,82.11 L29.96,72.18 C30.64,71.97 31.3,71.81 31.93,71.52 C33.74,70.68 35.78,70.19 37.91,70.19 C40.04,70.19 42.09,70.68 43.89,71.52 C45.65,72.29 47.64,72.76 49.71,72.76 C51.77,72.76 53.75,72.29 55.51,71.52 C57.34,70.68 59.38,70.19 61.49,70.19 C63.63,70.19 65.67,70.68 67.47,71.52 C69.25,72.29 71.23,72.76 73.29,72.76 C75.36,72.76 77.33,72.29 79.11,71.52 C80.92,70.68 82.96,70.19 85.09,70.19 C87.23,70.19 89.25,70.68 91.07,71.52 C92.83,72.29 94.83,72.76 96.89,72.76 L96.89,64.07 C94.82,64.07 92.83,63.6 91.07,62.83 C89.26,62 87.24,61.51 85.11,61.51 Z M89.12,19.02 L97.41,10.76 C99.73,8.44 99.73,4.72 97.41,2.42 C95.11,0.1 91.35,0.1 89.05,2.42 L80.76,10.68 C78.76,12.67 78.51,15.71 79.96,17.98 L69.66,28.28 L49.19,20.72 C48.65,20.42 48.09,20.16 47.45,19.97 C42.99,18.64 38.27,21.16 36.93,25.61 L30.64,46.63 C30.55,46.88 30.52,47.09 30.5,47.3 L2.54,47.3 L2.54,58.59 C4.07,58.59 5.64,58.24 7.02,57.63 C9.3,56.58 11.83,56.01 14.32,56.01 C16.81,56.01 19.32,56.57 21.55,57.6 C23.03,58.26 24.55,58.58 26.1,58.58 C27.67,58.58 29.2,58.25 30.61,57.62 C32.91,56.57 35.42,56 37.91,56 C40.42,56 42.89,56.54 45.16,57.59 C46.59,58.25 48.16,58.57 49.71,58.57 C51.26,58.57 52.78,58.24 54.22,57.61 C56.5,56.56 59.03,55.99 61.5,55.99 C64.04,55.99 66.48,56.53 68.75,57.58 C70.21,58.24 71.78,58.56 73.3,58.56 C74.85,58.56 76.4,58.23 77.81,57.6 C80.09,56.55 82.62,55.98 85.11,55.98 C85.53,55.98 87.25,56.11 88.94,54.98 C91.94,53.67 93.07,52.92 95.7,51.32 C97.86,50 99.64,47.12 94.95,47.27 C93.64,47.32 54.86,47.27 54.86,47.27 L66.74,35.43 L68.34,36.04 C70.36,36.77 72.61,35.74 73.36,33.72 C73.88,32.29 73.48,30.75 72.49,29.72 L82.21,19.99 C84.43,21.2 87.24,20.9 89.12,19.02 Z M50.58,47.31 L48.07,47.31 L53.14,30.46 L63.61,34.32 L50.58,47.31 Z M50.51,9.67 L49.43,11.96 C48.73,13.39 47.27,14.37 45.6,14.37 L43.06,14.37 C44.52,16.43 46.91,17.76 49.61,17.76 C54.02,17.76 57.61,14.2 57.61,9.8 L57.61,9.39 L50.87,9.39 C50.72,9.39 50.56,9.51 50.51,9.67 Z M45.61,12.36 C46.48,12.36 47.25,11.84 47.6,11.1 L48.66,8.81 C49.06,7.94 49.9,7.36 50.89,7.36 L59.15,7.36 C58.07,3.11 54.2,0 49.62,0 C44.2,0 39.81,4.38 39.81,9.81 C39.81,10.68 39.91,11.54 40.14,12.36 L45.61,12.36 Z" fill="none" stroke="currentColor" stroke-width="1.5"/></svg>