<svg xmlns="http://www.w3.org/2000/svg" viewBox="0 0 97.84 94.81" width="24" height="24"><path d="M9.83,94.81 L97.84,94.81 L97.84,85.59 L18.96,85.59 L18.96,45.59 L97.84,9.6 L97.84,0 L0,44.62 L0,54.22 L9.83,49.77 Z" fill="none" stroke="currentColor" stroke-width="1.5"/><path d="M54.92,63.38 L68.76,63.38 L68.76,75.87 C68.76,77.92 70.4,79.58 72.43,79.58 L72.43,79.58 C74.46,79.58 76.08,77.92 76.08,75.87 L76.08,63.38 C77.18,63.38 77.3,62.66 77.3,61.82 L77.3,52.49 L65.71,46.78 L41.11,46.78 L37.95,44.96 C36.92,44.38 35.62,44.75 35.06,45.76 L35.06,45.76 C34.47,46.8 34.84,48.11 35.87,48.68 L40.87,51.57 L40.87,75.87 C40.87,77.92 42.51,79.58 44.54,79.58 L44.54,79.58 C46.55,79.58 48.19,77.92 48.19,75.87 L48.19,66.35 L54.8,77.68 C55.85,79.44 58.11,80.01 59.82,78.97 L59.82,78.97 C61.56,77.91 62.12,75.66 61.09,73.9 L54.92,63.38 Z" fill="none" stroke="currentColor" stroke-width="1.5"/><path d="M66.85,44.23 L77.28,49.25 L77.28,47.27 L85.76,47.27 L88.87,40.49 L66.85,29.91 Z" fill="none" stroke="currentColor" stroke-width="1.5"/></svg>