<svg xmlns="http://www.w3.org/2000/svg" viewBox="0 0 71.41 98.5" width="24" height="24"><path d="M35.57,27.07 C43.17,27.07 49.32,21.01 49.32,13.54 C49.32,6.05 43.16,0 35.57,0 C27.98,0 21.82,6.06 21.82,13.54 C21.82,21.01 27.98,27.07 35.57,27.07 Z" fill="none" stroke="currentColor" stroke-width="1.5"/><path d="M53.71,31.19 C63.44,31.19 71.41,38.96 71.41,48.53 C71.41,53.41 71.41,87.24 71.41,90.51 C71.41,93.79 68.79,96.44 65.47,96.44 C62.15,96.44 59.45,93.78 59.45,90.51 C59.45,86.7 59.45,52.66 59.45,52.66 L54.42,52.66 L54.42,98.5 L16.94,98.5 L16.94,52.67 L11.95,52.67 C11.95,52.67 11.95,86.71 11.95,90.52 C11.95,93.8 9.26,96.45 5.94,96.45 C2.62,96.45 0,93.8 0,90.52 C0,87.25 0,53.41 0,48.54 C0,38.96 8.68,31.19 18.41,31.19 C23.11,31.19 48.88,31.19 53.71,31.19 Z M30.61,80.25 C30.15,79.77 29.9,79.22 29.94,78.21 C29.98,77.3 30.31,76.87 30.78,76.45 C31.7,75.64 32.01,74.09 32.01,72.83 C32.01,70.34 29.84,68.33 27.13,68.33 C24.85,68.33 22.78,70.35 22.09,71.64 C21.56,72.68 20.86,74.77 20.78,77.22 C20.7,79.53 21.13,81.4 21.68,83.29 C22.44,85.35 24.48,87.69 27.13,87.69 C29.83,87.69 32.01,85.67 32.01,83.18 C32.01,82.76 31.98,82.39 31.81,81.97 C31.67,81.53 31.04,80.7 30.61,80.25 Z M39.58,81.96 C39.42,82.38 39.37,82.75 39.37,83.17 C39.37,85.66 41.56,87.68 44.26,87.68 C46.9,87.68 48.96,85.34 49.72,83.28 C50.28,81.39 50.69,79.52 50.61,77.21 C50.54,74.76 49.82,72.67 49.3,71.63 C48.61,70.33 46.53,68.32 44.26,68.32 C41.56,68.32 39.37,70.33 39.37,72.82 C39.37,74.09 39.71,75.63 40.62,76.44 C41.09,76.86 41.42,77.29 41.46,78.2 C41.49,79.21 41.24,79.76 40.79,80.24 C40.36,80.7 39.74,81.53 39.58,81.96 Z" fill="none" stroke="currentColor" stroke-width="1.5"/></svg>