<svg xmlns="http://www.w3.org/2000/svg" viewBox="0 0 55.24 98.67" width="24" height="24"><path d="M44.79,92.04 L40.28,26.22 L43.98,26.22 C45.27,26.22 45.27,25.34 45.27,25.34 L45.27,19.92 L43.49,19.92 L43.49,20.8 L39.34,20.8 L39.34,8.98 L41.83,8.98 L41.83,6.55 L27.58,0 L13.29,6.49 L13.29,8.92 L15.79,8.92 L15.79,20.75 L11.63,20.75 L11.63,19.87 L9.85,19.87 L9.85,25.29 C9.85,25.29 9.85,26.17 11.15,26.17 L14.84,26.17 L10.32,92.05 L0,92.05 L0,98.67 L55.24,98.67 L55.24,92.05 L44.79,92.05 Z M29.85,75.3 L39.89,75.3 L39.89,92.05 L29.85,92.05 L29.85,75.3 Z" fill="none" stroke="currentColor" stroke-width="1.5"/></svg>