<svg xmlns="http://www.w3.org/2000/svg" viewBox="0 0 91.02 99.5" width="24" height="24"><path d="M68.76,47.91 L57.22,47.91 L57.22,34.59 C61.78,31.05 64.72,25.54 64.72,19.37 C64.72,8.67 55.93,0 45.09,0 C36.19,0 27.97,6.6 26.27,13.87 C25.89,15.48 25.46,19.7 25.46,19.7 L21.37,29.89 C21.29,30.07 21.25,30.28 21.25,30.5 C21.25,31.36 21.95,32.05 22.82,32.06 C23.26,31.19 24.24,30.65 25.27,30.85 C26.49,31.07 27.29,32.24 27.05,33.44 C26.9,34.27 26.26,34.9 25.47,35.13 L25.47,37.46 C25.47,41.68 28.94,45.09 33.21,45.09 L36.29,45.09 L36.29,47.91 L23.77,47.91 C9.4,47.9 0,58.31 0,68.95 L0,98.64 L15.82,98.63 L15.82,72.93 L20.38,72.93 L20.38,98.63 L70.86,98.64 L70.86,72.93 L75.53,72.93 L75.53,98.64 L91.01,98.63 L91.02,66.14 C91.02,58.05 82.89,47.9 68.76,47.91 Z M30.21,27.82 C29.83,28.13 29.32,28.3 28.83,28.3 C28.13,28.3 27.47,27.99 27.06,27.44 C26.68,26.98 26.52,26.39 26.59,25.81 C26.66,25.21 26.97,24.69 27.44,24.33 C28.38,23.59 29.86,23.76 30.59,24.69 C30.97,25.17 31.13,25.75 31.06,26.34 C31,26.92 30.7,27.45 30.21,27.82 Z M36.92,26.27 L36.92,26.32 L36.43,26.29 C35.2,26.19 34.27,25.11 34.37,23.88 C34.48,22.75 35.45,21.84 36.62,21.84 L36.81,21.86 C37.4,21.91 37.96,22.19 38.34,22.63 C38.72,23.1 38.91,23.66 38.86,24.26 C38.78,25.31 37.94,26.15 36.92,26.27 Z M41.81,29.07 C41.46,28.59 41.32,28.01 41.43,27.42 C41.53,26.84 41.85,26.32 42.35,25.98 C43.33,25.29 44.79,25.55 45.49,26.51 C46.2,27.53 45.96,28.92 44.95,29.62 C44.56,29.88 44.11,30.02 43.64,30.02 C42.91,30.01 42.23,29.67 41.81,29.07 Z M45.69,45.92 C44.45,45.92 43.45,44.92 43.45,43.71 C43.45,42.49 44.46,41.49 45.69,41.49 C46.95,41.49 47.95,42.49 47.95,43.71 C47.96,44.93 46.95,45.92 45.69,45.92 Z M45.69,37.78 C44.45,37.78 43.45,36.78 43.45,35.55 C43.45,34.33 44.46,33.33 45.69,33.33 C46.95,33.33 47.95,34.33 47.95,35.55 C47.96,36.78 46.95,37.78 45.69,37.78 Z M55.17,57.15 C63.36,56.87 68.04,75.01 65.22,91.95 C63.56,99.14 59.21,91.76 55.39,91.13 C51.16,90.43 48.78,89.94 48.58,87.75 C47.85,79.84 50.92,57.3 55.17,57.15 Z M42.77,87.69 C42.57,89.87 40.19,90.35 35.96,91.06 C32.14,91.7 27.58,99.5 26.13,91.89 C23.31,74.95 27.99,56.8 36.17,57.09 C40.43,57.24 43.51,79.77 42.77,87.69 Z M48.67,61.67 C47.83,61.67 47.07,61.21 46.67,60.47 C46.1,59.39 46.53,58.05 47.63,57.48 C48.71,56.93 50.12,57.38 50.68,58.43 C50.96,58.94 51.01,59.54 50.82,60.11 C50.65,60.68 50.26,61.14 49.72,61.42 C49.4,61.59 49.04,61.67 48.67,61.67 L48.67,61.67 Z M45.69,54.08 C44.65,54.08 43.76,53.38 43.5,52.38 C43.36,51.8 43.47,51.2 43.78,50.7 C44.09,50.18 44.58,49.84 45.18,49.7 C46.36,49.41 47.6,50.16 47.89,51.33 C48.19,52.51 47.44,53.72 46.24,54.01 C46.06,54.05 45.87,54.08 45.69,54.08 L45.69,54.08 Z M42.72,61.67 C42.37,61.67 42.01,61.59 41.67,61.41 C40.57,60.84 40.16,59.5 40.73,58.42 C41.29,57.37 42.7,56.92 43.76,57.47 C44.3,57.74 44.68,58.21 44.88,58.77 C45.05,59.34 45,59.94 44.72,60.47 C44.34,61.23 43.57,61.67 42.72,61.67 L42.72,61.67 Z" fill="none" stroke="currentColor" stroke-width="1.5"/><path d="M59.68,90.59 C60.46,90.59 61.21,90.18 61.61,89.53 C62.25,88.46 61.91,87.11 60.84,86.47 C59.81,85.85 58.37,86.23 57.74,87.23 C57.44,87.74 57.34,88.33 57.5,88.91 C57.64,89.49 58,89.97 58.53,90.28 C58.88,90.48 59.28,90.59 59.68,90.59 L59.68,90.59 Z" fill="none" stroke="currentColor" stroke-width="1.5"/><path d="M62.03,82.87 C63.23,82.87 64.22,81.93 64.27,80.74 C64.33,79.5 63.35,78.47 62.03,78.42 C60.81,78.42 59.82,79.37 59.76,80.55 C59.74,81.15 59.95,81.72 60.35,82.15 C60.77,82.58 61.33,82.84 61.93,82.87 L62.03,82.87 L62.03,82.87 Z" fill="none" stroke="currentColor" stroke-width="1.5"/><path d="M60.32,74.99 C60.69,74.99 61.02,74.91 61.33,74.75 C62.45,74.2 62.9,72.88 62.34,71.78 C61.82,70.71 60.42,70.23 59.33,70.77 C58.79,71.04 58.39,71.49 58.2,72.06 C58.01,72.63 58.04,73.23 58.32,73.76 C58.7,74.51 59.47,74.99 60.32,74.99 L60.32,74.99 Z" fill="none" stroke="currentColor" stroke-width="1.5"/><path d="M55.01,68.85 C55.74,68.85 56.42,68.51 56.86,67.91 C57.56,66.91 57.31,65.52 56.3,64.82 C55.33,64.13 53.86,64.39 53.17,65.35 C52.46,66.36 52.7,67.76 53.71,68.46 C54.09,68.72 54.54,68.85 55.01,68.85 L55.01,68.85 Z" fill="none" stroke="currentColor" stroke-width="1.5"/><path d="M31.71,90.59 C32.13,90.59 32.53,90.49 32.88,90.28 C33.38,89.97 33.75,89.49 33.91,88.91 C34.05,88.34 33.96,87.74 33.65,87.24 C33.02,86.23 31.58,85.86 30.55,86.46 C30.04,86.77 29.68,87.25 29.52,87.84 C29.38,88.41 29.46,89.01 29.78,89.52 C30.18,90.19 30.92,90.59 31.71,90.59 L31.71,90.59 Z" fill="none" stroke="currentColor" stroke-width="1.5"/><path d="M29.38,82.87 L29.46,82.87 C30.7,82.82 31.65,81.79 31.62,80.55 C31.57,79.37 30.61,78.42 29.27,78.42 C28.68,78.46 28.12,78.7 27.7,79.14 C27.3,79.57 27.09,80.14 27.11,80.74 C27.17,81.93 28.15,82.87 29.38,82.87 L29.38,82.87 Z" fill="none" stroke="currentColor" stroke-width="1.5"/><path d="M31.05,74.99 C31.92,74.99 32.71,74.51 33.09,73.76 C33.35,73.23 33.39,72.63 33.19,72.06 C32.99,71.49 32.6,71.05 32.06,70.77 C30.97,70.24 29.57,70.72 29.05,71.78 C28.78,72.31 28.74,72.91 28.93,73.48 C29.12,74.03 29.52,74.49 30.06,74.75 C30.37,74.9 30.72,74.99 31.05,74.99 L31.05,74.99 Z" fill="none" stroke="currentColor" stroke-width="1.5"/><path d="M36.38,68.85 C36.85,68.85 37.3,68.71 37.69,68.46 C38.7,67.76 38.95,66.36 38.23,65.35 C37.53,64.39 36.07,64.13 35.09,64.82 C34.59,65.17 34.27,65.68 34.17,66.26 C34.07,66.84 34.19,67.43 34.53,67.91 C34.97,68.51 35.65,68.85 36.38,68.85 L36.38,68.85 Z" fill="none" stroke="currentColor" stroke-width="1.5"/></svg>