<svg xmlns="http://www.w3.org/2000/svg" viewBox="0 0 74.06 99.14" width="24" height="24"><path d="M7.42,85 L26.69,85 L28.01,99.14 L8.74,99.14 Z M65.31,99.14 L46.05,99.14 L47.37,85 L66.64,85 M37.09,0.13 C37.07,0.13 37.05,0.13 37.03,0.13 C37.01,0.13 36.99,0.13 36.97,0.13 C21.4,0 0,9.03 2.22,29.34 L7.32,83.47 L26.49,83.43 L21.19,30.56 C20.85,21.19 27.77,17.86 36.8,17.65 C36.88,17.65 36.96,17.65 37.04,17.65 C37.12,17.65 37.2,17.65 37.28,17.65 C46.31,17.86 53.23,21.19 52.89,30.56 L47.57,83.42 L66.74,83.46 L71.84,29.34 C74.06,9.03 52.66,0 37.09,0.13 Z" fill="none" stroke="currentColor" stroke-width="1.5"/></svg>