<svg xmlns="http://www.w3.org/2000/svg" viewBox="0 0 99.13 75.42" width="24" height="24"><path d="M99.12,75.42 L0,75.42 L0,0 L99.13,0 L99.13,75.42 L99.12,75.42 Z M11.73,68.44 L87.4,68.44 L62.5,42.73 L57.79,47.52 C55.75,49.58 52.83,50.76 49.76,50.76 C49.74,50.76 49.73,50.76 49.71,50.76 C46.63,50.75 43.7,49.54 41.67,47.46 L36.88,42.56 L11.73,68.44 L11.73,68.44 Z M6.91,11.97 L6.91,63.43 L32,37.59 L6.91,11.97 L6.91,11.97 Z M67.37,37.78 L92.21,63.43 L92.21,12.55 L67.37,37.78 L67.37,37.78 Z M11.74,6.98 L46.58,42.55 C47.33,43.32 48.48,43.77 49.73,43.77 C49.74,43.77 49.74,43.77 49.75,43.77 C50.98,43.77 52.15,43.33 52.88,42.59 L87.94,6.98 L11.74,6.98 L11.74,6.98 Z" fill="none" stroke="currentColor" stroke-width="1.5"/></svg>