<svg xmlns="http://www.w3.org/2000/svg" viewBox="0 0 37.22 98.86" width="24" height="24"><ellipse cx="18.11" cy="8.16" rx="8.16" ry="8.16" fill="none" stroke="currentColor"/><path d="M8.47,94.34 C8.47,96.83 10.52,98.86 13.04,98.86 C15.57,98.86 17.62,96.84 17.62,94.34 L17.62,56.45 L19.66,56.45 L19.65,94.34 C19.65,96.83 21.7,98.86 24.22,98.86 C26.74,98.86 28.79,96.84 28.79,94.34 L28.81,29.01 L30.82,29.01 L30.82,53.09 C30.82,57.93 37.22,57.93 37.2,53.09 L37.2,28.5 C37.2,23.15 34.02,17.91 27.68,17.91 L9.39,17.89 C3.61,17.89 0,22.54 0,28.35 L0,53.09 C0,57.9 6.43,57.9 6.43,53.09 L6.43,29.01 L8.48,29.01 L8.47,94.34 Z" fill="none" stroke="currentColor" stroke-width="1.5"/></svg>