<svg xmlns="http://www.w3.org/2000/svg" viewBox="0 0 36.17 99.26" width="24" height="24"><path d="M33.4,19.55 L2.78,19.55 C2.78,19.55 0.27,20.52 0,22.31 L0,64.44 L4.89,64.44 L4.89,46.29 L8.74,46.29 L8.65,99.26 L15.25,99.26 L16.08,74.92 L20.09,74.92 L20.92,99.26 L27.52,99.26 L27.43,46.3 L31.28,46.3 L31.28,64.45 L36.17,64.45 L36.17,22.31 C35.9,20.52 33.4,19.55 33.4,19.55 Z" fill="none" stroke="currentColor" stroke-width="1.5"/><path d="M18.09,16.06 C13.62,16.06 9.99,12.48 9.99,8.03 C9.98,3.57 13.62,0 18.09,0 C22.57,0 26.19,3.57 26.19,8.03 C26.19,12.48 22.57,16.06 18.09,16.06 Z" fill="none" stroke="currentColor" stroke-width="1.5"/></svg>