<svg xmlns="http://www.w3.org/2000/svg" viewBox="0 0 88.56 98.32" width="24" height="24"><path d="M44.28,0 L36.55,14.83 C35.67,16.44 34.1,16.29 32.53,15.39 L26.93,12.41 L31.1,35.19 C31.98,39.35 29.16,39.35 27.77,37.55 L18,26.3 L16.41,32.01 C16.23,32.76 15.42,33.55 14.22,33.36 L1.86,30.69 L5.11,42.82 C5.8,45.52 6.35,46.64 4.41,47.35 L0,49.48 L21.27,67.24 C22.11,67.91 22.54,69.12 22.24,70.21 L20.38,76.49 C27.7,75.62 34.27,74.84 41.59,73.98 C42.24,73.97 43.32,74.54 43.31,75.31 L42.34,98.32 L45.9,98.32 L45.34,75.36 C45.33,74.59 46.31,73.97 46.97,73.98 C54.29,74.85 60.86,75.62 68.18,76.49 L66.32,70.21 C66.02,69.12 66.45,67.91 67.29,67.24 L88.56,49.48 L84.16,47.35 C82.22,46.64 82.76,45.52 83.46,42.82 L86.7,30.69 L74.34,33.36 C73.13,33.55 72.33,32.76 72.15,32.01 L70.56,26.3 L60.79,37.55 C59.4,39.35 56.58,39.35 57.46,35.19 L61.63,12.41 L56.03,15.39 C54.46,16.29 52.88,16.44 52.01,14.83 L44.28,0 Z" fill="none" stroke="currentColor" stroke-width="1.5"/></svg>