<svg xmlns="http://www.w3.org/2000/svg" viewBox="0 0 98.88 98.52" width="24" height="24"><path d="M91.34,21.51 L98.88,0 L77.53,7.6 L81.74,11.84 L67.33,26.36 C60.19,20.16 50.9,16.39 40.75,16.39 C18.28,16.39 0,34.82 0,57.46 C0,80.1 18.28,98.52 40.76,98.52 C63.24,98.52 81.52,80.1 81.52,57.46 C81.52,47.79 78.18,38.91 72.61,31.88 L87.12,17.26 L91.34,21.51 Z M40.76,90.86 C22.48,90.86 7.61,75.88 7.61,57.46 C7.61,39.04 22.48,24.06 40.76,24.06 C59.04,24.06 73.91,39.04 73.91,57.46 C73.91,75.88 59.04,90.86 40.76,90.86 Z" fill="none" stroke="currentColor" stroke-width="1.5"/></svg>