<svg xmlns="http://www.w3.org/2000/svg" viewBox="0 0 64.0 99.12" width="24" height="24"><path d="M50.02,89.02 C57.2,82.32 61.74,72.88 61.74,62.36 C61.74,49.39 54.87,37.7 44.19,31.12 L56.16,10.58 L54.28,9.5 L57.24,4.42 L49.49,0 L46.53,5.08 L44.54,3.95 L15.12,54.47 L17.7,55.94 L14.05,62.2 L20.51,65.89 L24.16,59.63 L26.73,61.1 L39.1,39.85 C46.7,44.64 51.56,53.04 51.56,62.35 C51.56,77.06 39.49,89.01 24.65,89.01 C14.72,89.01 2.97,89.01 2.97,89.01 L2.97,99.12 L64,99.12 L64,89.02 C63.99,89.02 54.96,89.02 50.02,89.02 Z" fill="none" stroke="currentColor" stroke-width="1.5"/><path d="M2.39,62.75 L0,66.9 L24.87,81.19 L27.25,77.04 Z" fill="none" stroke="currentColor" stroke-width="1.5"/></svg>