<svg xmlns="http://www.w3.org/2000/svg" viewBox="0 0 98.94 57.91" width="24" height="24"><path d="M90.67,25.77 L91.7,21.96 L90.88,20.76 L69.82,20.76 L71.3,15.75 L70.54,14.64 L57.43,14.64 C56.19,15.74 57.9,18.3 57.9,18.3 L60.95,19.74 L55.28,33.99 L44.32,33.99 L43.27,32.79 C43.27,32.79 45.18,30.54 45.18,30.54 L37.79,14.65 L27.83,14.65 L26.83,13.5 L28.45,8.83 C28.45,8.83 31.6,7.29 31.6,7.29 L30.88,5.75 L37.69,2.09 L36.6,0 L25.11,5.15 L24.3,8.33 L17.12,7.58 C16.64,8.59 16.36,9.73 16.36,10.93 C16.36,12.51 16.83,13.98 17.63,15.2 L22.77,13.91 L20.3,23.18 C19.1,22.93 17.85,22.79 16.57,22.79 C13.41,22.79 10.43,23.61 7.84,25.05 L8.63,26.45 C3.49,29.3 0,34.82 0,41.16 C0,50.41 7.42,57.91 16.57,57.91 C23.7,57.91 29.78,53.35 32.12,46.96 L33.61,47.55 C34.34,45.56 34.74,43.4 34.74,41.15 C34.74,33.38 29.97,26.75 23.22,24.06 L23.92,21.99 L26.25,21.99 L41.48,39.83 C41.03,40.61 40.76,41.52 40.76,42.5 C40.76,45.43 43.11,47.81 46.02,47.81 C46.25,47.81 46.48,47.79 46.7,47.76 L46.7,47.76 L64.85,45.83 C66.86,52.8 73.22,57.9 80.76,57.9 C87.89,57.9 93.97,53.34 96.31,46.95 L97.8,47.54 C98.53,45.55 98.93,43.39 98.93,41.14 C98.94,34.71 95.65,29.04 90.67,25.77 Z M29.08,41.16 C29.08,48.14 23.48,53.8 16.57,53.8 C9.66,53.8 4.06,48.15 4.06,41.16 C4.06,34.18 9.66,28.52 16.57,28.52 C17.34,28.52 18.09,28.59 18.82,28.73 L16.29,38.23 C14.77,38.34 13.57,39.61 13.57,41.17 C13.57,42.8 14.88,44.13 16.49,44.13 C18.1,44.13 19.41,42.81 19.41,41.17 C19.41,40.22 18.96,39.37 18.26,38.83 L21.39,29.5 C25.92,31.41 29.08,35.91 29.08,41.16 Z M68.7,37.86 C69.51,34.84 71.4,32.26 73.93,30.59 L78.15,38.14 L68.7,37.86 Z M80.77,53.81 C75.33,53.81 70.71,50.31 68.99,45.41 L81.07,44.13 C82.68,44.13 83.99,42.81 83.99,41.17 C83.99,39.54 82.68,38.22 81.07,38.22 L80.64,38.21 L75.8,29.56 C77.32,28.89 79,28.52 80.77,28.52 C87.68,28.52 93.28,34.18 93.28,41.16 C93.28,48.15 87.68,53.81 80.77,53.81 Z" fill="none" stroke="currentColor" stroke-width="1.5"/></svg>