<svg xmlns="http://www.w3.org/2000/svg" viewBox="0 0 99.51 36.58" width="24" height="24"><path d="M98.89,14.61 L73.69,15.28 L64.55,0 L32.82,0.58 L32.82,5.51 L40.29,5.3 L46.39,15.87 L1,16.98 C1,16.98 0,16.92 0.16,17.89 L7.2,36.22 C7.75,36.34 8.32,36.41 8.91,36.41 C11.92,36.41 14.55,34.73 16.08,32.21 C17.61,34.79 20.28,36.5 23.34,36.5 C26.15,36.5 28.65,35.03 30.21,32.8 L30.13,32.64 C31.68,35.04 34.26,36.58 37.18,36.58 C40.22,36.58 42.89,34.88 44.41,32.31 L44.39,32.44 C45.96,34.84 48.54,36.41 51.46,36.41 C54.55,36.41 57.25,34.64 58.76,32.01 L58.74,32.06 C60.26,34.66 62.96,36.41 66.04,36.41 C69.03,36.41 71.67,34.73 73.21,32.22 C74.73,34.79 77.41,36.51 80.46,36.51 C83.27,36.51 85.77,35.04 87.33,32.81 L87.41,32.71 L98.8,15.49 C98.8,15.49 99.51,14.47 98.89,14.61 Z M54.86,15.66 L48.45,5.3 L62.75,4.86 L68.97,15.28 L54.86,15.66 Z" fill="none" stroke="currentColor" stroke-width="1.5"/></svg>