<svg xmlns="http://www.w3.org/2000/svg" viewBox="0 0 98.84 93.9" width="24" height="24"><rect x="0.02" y="55.58" width="62.47" height="5.92" fill="none" stroke="currentColor"/><path d="M49.06,43.13 C49.06,38.99 52.38,35.63 56.47,35.63 C60.56,35.63 63.89,38.98 63.89,43.13 C63.89,47.26 60.56,50.63 56.47,50.63 C52.38,50.63 49.06,47.26 49.06,43.13 Z" fill="none" stroke="currentColor" stroke-width="1.5"/><path d="M39.58,35.37 L14.76,35.37 L0,37.65 L0,50.61 L7.45,50.61 C6.86,49.64 6.5,48.51 6.5,47.3 C6.5,43.8 9.31,40.96 12.77,40.96 L26.36,40.96 L37.38,38.63 L37.99,41.59 L26.67,43.98 L12.77,43.98 C10.96,43.98 9.49,45.47 9.49,47.3 C9.49,49.12 10.93,50.59 12.73,50.61 L39.65,50.61 C43.81,50.58 47.15,47.18 47.15,42.99 C47.15,38.79 43.78,35.37 39.58,35.37 Z" fill="none" stroke="currentColor" stroke-width="1.5"/><path d="M52.43,77.41 C68.99,77.41 82.41,63.83 82.41,47.07 C82.41,30.31 68.99,16.73 52.43,16.73 C41.6,16.73 32.15,22.56 26.87,31.26 L39.43,31.26 C42.97,28.26 47.53,26.45 52.51,26.45 C63.76,26.45 72.89,35.68 72.89,47.07 C72.89,58.46 63.77,67.69 52.51,67.69 C49.32,67.69 46.31,66.93 43.62,65.6 L28.73,65.6 C34.21,72.78 42.78,77.41 52.43,77.41 Z" fill="none" stroke="currentColor" stroke-width="1.5"/><path d="M52.43,0 C31.91,0 14.52,13.48 8.39,32.16 L14.11,31.26 L23.39,31.26 C28.96,20.81 39.87,13.7 52.43,13.7 C70.64,13.7 85.41,28.64 85.41,47.07 C85.41,65.5 70.65,80.44 52.43,80.44 C40.99,80.44 30.92,74.54 25.01,65.6 L9.84,65.6 C16.97,82.25 33.35,93.9 52.42,93.9 C78.06,93.9 98.84,72.88 98.84,46.95 C98.84,21.02 78.06,0 52.43,0 Z M62.96,10.67 C62.79,11.35 62.2,11.8 61.53,11.8 C61.41,11.8 61.29,11.79 61.17,11.75 C55.51,10.32 49.49,10.32 43.83,11.75 C43.04,11.96 42.24,11.46 42.05,10.67 C41.85,9.87 42.33,9.06 43.12,8.87 C49.25,7.32 55.76,7.32 61.89,8.87 C62.68,9.07 63.16,9.88 62.96,10.67 Z" fill="none" stroke="currentColor" stroke-width="1.5"/></svg>