<svg xmlns="http://www.w3.org/2000/svg" viewBox="0 0 35.29 99.09" width="24" height="24"><path d="M22.84,29.39 C26,25.95 20.99,20.87 17.64,23.95 C14.3,20.87 9.28,25.95 12.44,29.39 C9.96,31.99 7.49,34.6 5.01,37.2 C2.69,39.64 4.56,42.95 7.04,43.56 L10.15,91.68 C10.15,95.77 13.5,99.09 17.63,99.09 C21.76,99.09 25.11,95.77 25.11,91.68 L28.22,43.56 C30.7,42.95 32.57,39.64 30.25,37.2 C27.8,34.59 25.32,31.99 22.84,29.39 Z" fill="none" stroke="currentColor" stroke-width="1.5"/><path d="M35.29,21.5 C35.29,19.41 33.58,17.72 31.47,17.72 L17.64,17.72 L3.82,17.72 C1.71,17.72 0,19.41 0,21.5 C0,21.79 0.04,22.07 0.1,22.34 L0.1,22.34 L3.68,36.33 C3.74,36.26 3.79,36.18 3.86,36.11 L10.41,29.22 C9.71,27.86 9.65,26.31 10.3,24.84 C11.2,22.78 13.22,21.4 15.34,21.4 C16.16,21.4 16.93,21.61 17.65,22 C18.37,21.61 19.14,21.4 19.96,21.4 C22.08,21.4 24.1,22.78 25,24.84 C25.64,26.31 25.58,27.86 24.89,29.22 L31.44,36.11 C31.51,36.18 31.56,36.26 31.62,36.33 L35.2,22.34 L35.2,22.34 C35.25,22.07 35.29,21.79 35.29,21.5 Z" fill="none" stroke="currentColor" stroke-width="1.5"/><ellipse cx="17.64" cy="8.07" rx="8.07" ry="8.07" fill="none" stroke="currentColor"/></svg>