<svg xmlns="http://www.w3.org/2000/svg" viewBox="0 0 87.88 98.87" width="24" height="24"><path d="M87.88,21.38 L77.54,0 L67.2,21.38 L73.54,21.38 L73.54,38.07 C73.54,52.87 62.37,65.13 47.94,67.07 L47.94,21.38 L54.28,21.38 L43.94,0 L33.6,21.38 L39.94,21.38 L39.94,67.07 C25.5,65.13 14.34,52.87 14.34,38.07 L14.34,21.38 L20.68,21.38 L10.34,0 L0,21.38 L6.34,21.38 L6.34,38.07 C6.34,57.24 21.08,73.06 39.94,75.04 L39.94,82.54 L19.81,82.54 L19.81,90.45 L39.94,90.45 L39.94,98.87 L47.94,98.87 L47.94,90.45 L68.07,90.45 L68.07,82.54 L47.94,82.54 L47.94,75.04 C66.8,73.06 81.54,57.24 81.54,38.07 L81.54,21.38 L87.88,21.38 Z" fill="none" stroke="currentColor" stroke-width="1.5"/></svg>