<svg xmlns="http://www.w3.org/2000/svg" viewBox="0 0 84.04 98.75" width="24" height="24"><path d="M46.1,0 C28.88,0 13,12.77 9.7,26.83 C8.97,29.96 8.14,38.12 8.14,38.12 L0.24,57.83 C0.08,58.19 0,58.59 0,59.01 C0,60.67 1.36,62.03 3.05,62.03 L8.14,62.03 L8.14,72.5 C8.14,80.67 14.83,87.28 23.09,87.28 L29.03,87.28 L29.03,98.75 L51.12,98.75 L51.12,93.63 L60.12,93.63 L60.12,98.75 L69.52,98.75 L69.52,66.94 C78.35,60.08 84.03,49.43 84.03,37.48 C84.04,16.78 67.06,0 46.1,0 Z M17.48,45.59 C15.13,45.59 13.22,43.71 13.22,41.38 C13.22,39.06 15.13,37.18 17.48,37.18 C19.81,37.18 21.72,39.06 21.72,41.38 C21.73,43.71 19.81,45.59 17.48,45.59 Z M51.14,73.12 L60.14,73.12 L60.14,77.93 L51.14,77.93 L51.14,73.12 Z M51.14,66.28 L60.14,66.28 L60.14,71.08 L51.14,71.08 L51.14,66.28 Z M51.14,79.95 L60.14,79.95 L60.14,84.76 L51.14,84.76 L51.14,79.95 Z M51.14,86.79 L60.14,86.79 L60.14,91.6 L51.14,91.6 L51.14,86.79 Z M51.14,59.44 L60.19,59.44 C60.17,59.79 60.13,60.14 60.13,60.5 L60.13,64.25 L51.13,64.25 L51.13,59.44 Z M76.05,31.74 C76.05,34.3 75.03,36.62 73.38,38.35 C73.1,42 70.75,45.08 67.49,46.47 L67.49,46.5 C63.5,48.79 61.12,52.71 60.39,57.4 L56.71,57.4 L56.71,46.52 C56.73,43.12 57.81,40.95 60.08,39.61 C60.91,39.14 61.66,38.6 62.3,38 C63.98,38.6 65.47,39.77 66.42,41.43 C66.62,41.76 66.97,41.94 67.32,41.94 C67.49,41.94 67.67,41.9 67.82,41.81 C68.33,41.54 68.51,40.92 68.22,40.43 L68.21,40.43 C67.15,38.57 65.54,37.19 63.7,36.37 C64.64,34.94 65.16,33.25 65.14,31.21 C65.14,31.2 65.15,31.19 65.15,31.18 C65.15,30.26 65.01,29.36 64.76,28.52 C66.91,28.11 68.81,27.04 70.2,25.52 C70.59,25.1 70.56,24.46 70.13,24.08 C69.7,23.7 69.06,23.74 68.68,24.14 C67.46,25.45 65.82,26.34 63.96,26.59 C62.46,23.85 59.67,21.9 56.41,21.54 C56.63,19.8 57.42,18.25 58.62,17.07 C59.01,16.67 59.01,16.03 58.62,15.64 C58.22,15.24 57.56,15.24 57.15,15.64 C55.62,17.15 54.6,19.17 54.34,21.42 C50.5,20.94 47.55,17.73 47.54,13.81 C47.54,13.25 47.07,12.79 46.52,12.79 C45.94,12.79 45.48,13.25 45.48,13.81 C45.48,14.47 45.54,15.1 45.67,15.72 C44.22,16.96 42.41,17.59 40.59,17.59 C39.69,17.59 38.8,17.43 37.95,17.13 C37.95,17.13 37.94,17.13 37.93,17.12 C36.89,16.75 35.93,16.16 35.1,15.34 C34.7,14.94 34.05,14.94 33.64,15.34 C33.24,15.74 33.24,16.38 33.64,16.78 C34.49,17.62 35.45,18.26 36.47,18.73 C36.27,21.26 34.77,23.44 32.69,24.67 C31.48,22.86 29.67,21.43 27.44,20.73 C26.88,20.56 26.31,20.86 26.13,21.39 C25.98,21.93 26.26,22.5 26.8,22.66 C28.45,23.18 29.78,24.18 30.74,25.47 C30.1,25.64 29.44,25.73 28.74,25.73 C28.74,25.73 28.74,25.73 28.73,25.73 L28.62,25.73 C25.97,25.73 23.54,26.77 21.77,28.47 C21.35,28.86 21.34,29.51 21.75,29.91 C21.95,30.11 22.22,30.22 22.5,30.22 C22.73,30.22 22.99,30.12 23.19,29.93 C24.59,28.58 26.51,27.76 28.61,27.76 L28.72,27.76 L28.72,27.76 L28.73,27.76 C33.69,27.76 37.81,24.11 38.46,19.38 C39.17,19.53 39.87,19.61 40.59,19.61 C42.6,19.61 44.64,18.99 46.35,17.77 C46.98,19.18 47.96,20.41 49.16,21.37 C47.94,22.86 47.22,24.62 47.03,26.43 C46.51,26.35 45.97,26.3 45.43,26.3 C43.87,26.3 42.3,26.67 40.83,27.44 C40.33,27.7 40.14,28.32 40.4,28.82 C40.59,29.16 40.95,29.36 41.32,29.36 C41.49,29.36 41.64,29.32 41.79,29.24 C42.97,28.63 44.21,28.34 45.43,28.34 C45.98,28.34 46.51,28.4 47.03,28.51 C47.25,30.57 48.16,32.59 49.71,34.19 C49.92,34.4 50.18,34.5 50.45,34.5 C50.7,34.5 50.96,34.41 51.17,34.22 C51.59,33.83 51.6,33.19 51.2,32.78 L51.19,32.78 C49.81,31.34 49.08,29.51 49.03,27.66 C49.03,27.63 49.04,27.61 49.03,27.58 C49.03,27.54 49.03,27.5 49.03,27.47 C49.03,25.67 49.66,23.9 50.9,22.47 C52.21,23.11 53.7,23.49 55.28,23.49 C55.28,23.49 55.29,23.49 55.3,23.49 C55.3,23.49 55.31,23.49 55.32,23.49 C59.6,23.5 63.06,26.92 63.08,31.14 C62.27,30.93 61.43,30.82 60.58,30.82 C59.35,30.82 58.11,31.04 56.91,31.53 C56.38,31.74 56.13,32.33 56.34,32.85 C56.56,33.37 57.15,33.62 57.68,33.41 C58.64,33.03 59.62,32.85 60.58,32.85 C61.36,32.85 62.13,32.97 62.85,33.19 C62.6,34.33 62.1,35.24 61.34,36.06 C61.28,36.11 61.23,36.17 61.18,36.24 C60.59,36.81 59.89,37.34 59.02,37.86 C56.04,39.58 54.61,42.7 54.64,46.52 L54.64,57.41 L51.12,57.41 L51.12,47.05 C51.12,43.25 48.7,39.64 45.67,38.36 C44.22,37.8 42.71,36.87 41.6,35.66 C40.03,36.71 38.14,37.33 36.11,37.33 C34.08,37.33 32.19,36.72 30.63,35.67 C29.08,36.68 27.2,37.27 25.19,37.27 C19.67,37.27 15.21,32.86 15.21,27.41 C15.21,23.34 17.7,19.85 21.27,18.35 C22.23,14.01 26.13,10.76 30.81,10.76 C31.06,10.76 31.29,10.78 31.52,10.79 C33.29,8.24 36.25,6.57 39.61,6.57 C41.28,6.57 42.84,6.98 44.21,7.71 C45.76,6.69 47.61,6.1 49.6,6.1 C52.16,6.1 54.49,7.09 56.24,8.69 C56.97,8.52 57.73,8.41 58.52,8.41 C62.48,8.41 65.9,10.76 67.42,14.13 C71.43,15.33 74.36,19.01 74.36,23.36 C74.36,24.23 74.24,25.08 74.03,25.88 C75.3,27.52 76.05,29.54 76.05,31.74 Z" fill="none" stroke="currentColor" stroke-width="1.5"/></svg>