<svg xmlns="http://www.w3.org/2000/svg" viewBox="0 0 98.0 98.38" width="24" height="24"><path d="M83.65,14.41 C74.39,5.12 62.09,0 49,0 C35.91,0 23.61,5.12 14.35,14.41 C5.1,23.7 0,36.05 0,49.19 C0,62.33 5.1,74.68 14.35,83.97 C23.61,93.26 35.91,98.38 49,98.38 C62.09,98.38 74.39,93.26 83.65,83.97 C92.9,74.68 98,62.33 98,49.19 C98,36.05 92.9,23.7 83.65,14.41 Z M87.08,49.19 C87.08,57.51 84.42,65.21 79.91,71.49 L26.78,18.17 C33.04,13.64 40.72,10.96 49,10.96 C69.99,10.97 87.08,28.11 87.08,49.19 Z M10.93,49.19 C10.93,40.61 13.76,32.67 18.54,26.29 L71.82,79.76 C65.46,84.56 57.55,87.41 49,87.41 C28.01,87.41 10.93,70.26 10.93,49.19 Z" fill="none" stroke="currentColor" stroke-width="1.5"/><path d="M65.86,56.63 L65.88,45.34 L79.46,45.34 C81.78,45.34 83.23,42.14 80.71,39.52 C80.67,39.48 69.89,28.66 69.89,28.66 L69.89,20.67 L54.27,36.36 L45.66,36.36 L65.86,56.63 Z" fill="none" stroke="currentColor" stroke-width="1.5"/><path d="M55.78,64.43 L55.78,72.13 C55.78,78.08 63.67,78.76 65.47,74.17 L55.78,64.43 Z" fill="none" stroke="currentColor" stroke-width="1.5"/><path d="M27.84,36.36 L20.35,36.36 C13.91,36.36 13.97,45.42 20.5,45.42 L25.07,45.42 L25.07,72.13 C25.07,78.85 35.22,78.85 35.22,72.13 L35.22,59.89 L51.27,59.89 L27.84,36.36 Z" fill="none" stroke="currentColor" stroke-width="1.5"/></svg>