<svg xmlns="http://www.w3.org/2000/svg" viewBox="0 0 99.13 98.76" width="24" height="24"><path d="M77.06,49.32 L74.09,49.32 L74.09,45.26 C74.09,41.73 71.38,40.99 69.1,40.99 L61.11,40.99 C58.64,40.99 56.52,39.77 55.29,37.64 C54.32,35.94 54.03,33.86 54.44,31.97 C51.79,31.66 50.02,30.51 48.93,29.48 C47.17,27.82 46.16,25.51 46.16,23.13 C46.16,18.66 49.22,14.13 55.06,14.13 L55.06,17.09 C50.37,17.09 49.13,21.04 49.13,23.13 C49.13,24.69 49.8,26.22 50.97,27.32 C52.32,28.59 54.23,29.19 56.48,29.06 C57.03,29.03 57.55,29.3 57.84,29.77 C58.13,30.24 58.13,30.82 57.85,31.29 C57.02,32.69 57.03,34.69 57.88,36.16 C58.37,37.01 59.32,38.02 61.12,38.02 L69.11,38.02 C74.02,38.02 77.07,40.79 77.07,45.25 L77.07,49.32 L77.06,49.32 Z" fill="none" stroke="currentColor" stroke-width="1.5"/><path d="M81.7,49.32 L78.73,49.32 L78.73,43.87 C78.73,39.06 75.41,33.94 69.26,33.94 L64.54,33.94 C63.98,33.94 63.47,33.63 63.22,33.13 C62.97,32.63 63.01,32.04 63.34,31.59 C64.42,30.11 65.06,28.3 65.06,26.74 C65.06,22.82 61.94,19.98 57.64,19.98 L57.64,17.02 C63.56,17.02 68.03,21.2 68.03,26.74 C68.03,28.12 67.7,29.59 67.09,30.98 L69.26,30.98 C77.05,30.98 81.71,37.53 81.71,43.87 L81.71,49.32 L81.7,49.32 Z" fill="none" stroke="currentColor" stroke-width="1.5"/><path d="M77.06,59.73 L74.09,59.73 L74.09,50.78 L77.06,50.78 L77.06,59.73 Z" fill="none" stroke="currentColor" stroke-width="1.5"/><path d="M81.71,59.73 L78.74,59.73 L78.74,50.78 L81.71,50.78 L81.71,59.73 Z" fill="none" stroke="currentColor" stroke-width="1.5"/><path d="M72.43,59.76 L72.43,50.92 L60.21,50.92 L69.09,59.76 Z" fill="none" stroke="currentColor" stroke-width="1.5"/><path d="M16.95,50.92 L16.95,59.76 L51.43,59.76 L42.55,50.92 Z" fill="none" stroke="currentColor" stroke-width="1.5"/><path d="M84.61,14.47 C75.25,5.14 62.8,0 49.56,0 C36.32,0 23.88,5.14 14.52,14.47 C5.16,23.79 0,36.19 0,49.38 C0,62.57 5.16,74.97 14.52,84.29 C23.88,93.62 36.32,98.76 49.56,98.76 C62.8,98.76 75.24,93.63 84.61,84.3 C93.97,74.97 99.13,62.57 99.13,49.38 C99.13,36.19 93.97,23.79 84.61,14.47 Z M88.07,49.38 C88.07,57.82 85.32,65.63 80.66,71.97 L26.88,18.39 C33.25,13.75 41.09,11.01 49.56,11.01 C70.8,11.01 88.07,28.22 88.07,49.38 Z M11.05,49.38 C11.05,40.8 13.89,32.87 18.69,26.47 L72.56,80.14 C66.14,84.92 58.18,87.75 49.56,87.75 C28.33,87.75 11.05,70.54 11.05,49.38 Z" fill="none" stroke="currentColor" stroke-width="1.5"/></svg>