<svg xmlns="http://www.w3.org/2000/svg" viewBox="0 0 99.14 99.12" width="24" height="24"><path d="M84.63,14.51 C75.27,5.15 62.82,0 49.58,0 L49.52,0 C36.29,0 23.86,5.15 14.51,14.51 C5.15,23.87 0.01,36.31 0.01,49.53 C0,62.78 5.15,75.23 14.51,84.6 C23.87,93.96 36.31,99.12 49.55,99.12 L49.55,99.12 C62.8,99.12 75.25,93.96 84.62,84.6 C93.98,75.23 99.14,62.78 99.14,49.53 C99.14,36.3 93.99,23.86 84.63,14.51 Z M49.58,11.05 C70.81,11.05 88.09,28.31 88.09,49.53 C88.09,57.93 85.39,65.7 80.81,72.04 L27.08,18.27 C33.58,13.58 41.35,11.05 49.52,11.05 L49.58,11.05 Z M22.33,76.78 C15.06,69.5 11.06,59.82 11.06,49.52 C11.05,41.09 13.75,33.06 18.74,26.44 L72.63,80.37 C66.19,85.2 58.2,88.07 49.55,88.07 C39.27,88.07 29.6,84.06 22.33,76.78 Z" fill="none" stroke="currentColor" stroke-width="1.5"/></svg>