<svg xmlns="http://www.w3.org/2000/svg" viewBox="0 0 56.65 99.84" width="24" height="24"><path d="M24.15,16.87 C28.76,17.23 32.8,13.82 33.16,9.27 C33.52,4.71 30.07,0.72 25.46,0.36 C20.85,0 16.82,3.41 16.45,7.97 C16.09,12.53 19.53,16.51 24.15,16.87" fill="none" stroke="currentColor" stroke-width="1.5"/><path d="M26.44,33.48 C29.05,33.96 31.02,36.25 31.02,38.98 C31.02,42.07 28.48,44.58 25.36,44.58 L7.01,44.58 C5.03,44.58 3.42,42.99 3.42,41.03 C3.42,40.55 3.51,40.1 3.68,39.68 L5.67,35.09 L27.77,19.44 L17.23,19.44 C13.19,19.33 10.35,20.72 8.72,23.87 C7.61,25.99 1.75,38.95 1.75,38.95 C1.49,39.59 1.35,40.29 1.35,41.02 C1.35,44.11 3.89,46.62 7.01,46.62 L14.18,46.62 L12.07,60.37 L0.94,92.15 C0,94.97 1.55,97.98 4.38,98.91 C7.21,99.84 10.28,98.31 11.22,95.5 L24.01,59.65 C26.5,63.66 31.47,70.84 32.31,72.2 C32.5,74.45 34.29,94.34 34.29,94.34 C34.56,97.3 37.19,99.45 40.16,99.2 C43.13,98.95 45.34,96.34 45.07,93.4 L42.97,70 C42.9,69.17 42.63,68.37 42.18,67.66 L32.98,52.92 L34.44,34.43 C34.44,34.43 36.62,41.75 36.78,42.28 C37.25,43.79 38.3,44.87 39.38,45.74 C40.01,46.24 50.75,53.46 50.75,53.46 C51.35,53.73 51.84,53.97 52.48,54.02 C54.56,54.19 56.38,52.65 56.55,50.59 C56.65,49.27 56.06,48.07 55.07,47.32 C55.07,47.32 44.37,40.06 43.94,39.74 C43.59,39.48 43.31,39.01 43.23,38.77 L39,23.69 C38.31,21.41 35.99,19.45 33.05,19.45 L31.78,19.45 L26.44,33.48 Z" fill="none" stroke="currentColor" stroke-width="1.5"/><path d="M25.36,42.53 C27.34,42.53 28.95,40.94 28.95,38.98 C28.95,37.15 27.54,35.66 25.74,35.47 L23.12,42.56 L25.36,42.53 Z" fill="none" stroke="currentColor" stroke-width="1.5"/></svg>