<svg xmlns="http://www.w3.org/2000/svg" viewBox="0 0 98.84 98.83" width="24" height="24"><path d="M0,49.42 C0,76.67 22.17,98.83 49.42,98.83 C76.67,98.83 98.84,76.66 98.84,49.41 C98.83,22.17 76.66,0 49.42,0 C22.17,0 0,22.17 0,49.42 L0,49.42 Z M8.7,49.42 C8.7,26.96 26.96,8.7 49.42,8.7 C71.87,8.7 90.14,26.97 90.14,49.42 C90.14,71.87 71.88,90.14 49.42,90.14 C26.96,90.14 8.7,71.87 8.7,49.42 L8.7,49.42 Z M64.42,36.33 C63.12,34.34 61.5,33.05 59.57,32.46 C58.31,32.07 55.61,31.87 51.48,31.87 L40.55,31.87 L40.55,71.43 L47.31,71.43 L47.31,56.5 L51.76,56.5 C54.85,56.5 57.21,56.31 58.84,55.93 C60.04,55.62 61.22,55 62.38,54.06 C63.54,53.12 64.5,51.82 65.25,50.16 C66,48.51 66.38,46.46 66.38,44.04 C66.38,40.89 65.72,38.32 64.42,36.33 Z M58.62,47.26 C58.1,48.15 57.39,48.8 56.48,49.22 C55.57,49.64 53.76,49.85 51.06,49.85 L47.31,49.85 L47.31,38.51 L50.62,38.51 C53.09,38.51 54.74,38.6 55.56,38.78 C56.67,39.02 57.59,39.61 58.32,40.55 C59.05,41.49 59.41,42.69 59.41,44.15 C59.4,45.34 59.14,46.37 58.62,47.26 Z" fill="none" stroke="currentColor" stroke-width="1.5"/></svg>