<svg xmlns="http://www.w3.org/2000/svg" viewBox="0 0 98.42 76.34" width="24" height="24"><path d="M98.42,76.34 C96.27,76.34 94.2,75.85 92.38,75.01 C90.47,74.12 88.34,73.6 86.13,73.6 C83.92,73.6 81.77,74.12 79.9,75.01 C78.03,75.85 75.98,76.34 73.83,76.34 C71.68,76.34 69.61,75.85 67.76,75.01 C65.87,74.12 63.75,73.6 61.53,73.6 C59.29,73.6 57.17,74.12 55.28,75.01 C53.44,75.85 51.36,76.34 49.21,76.34 C47.06,76.34 44.99,75.85 43.17,75.01 C41.26,74.12 39.13,73.6 36.92,73.6 C34.71,73.6 32.56,74.12 30.69,75.01 C28.85,75.85 26.77,76.34 24.62,76.34 C22.47,76.34 20.4,75.85 18.55,75.01 C16.66,74.12 14.54,73.6 12.32,73.6 C10.1,73.6 7.96,74.12 6.07,75.01 C4.2,75.85 2.15,76.34 0,76.34 L0,67.12 C2.15,67.12 4.2,66.62 6.04,65.78 C7.93,64.89 10.08,64.37 12.29,64.37 C14.5,64.37 16.63,64.89 18.52,65.78 C20.36,66.62 22.44,67.12 24.59,67.12 C26.74,67.12 28.81,66.62 30.66,65.78 C32.53,64.89 34.67,64.37 36.89,64.37 C39.11,64.37 41.23,64.89 43.14,65.78 C44.96,66.62 47.04,67.12 49.18,67.12 C51.32,67.12 53.4,66.62 55.25,65.78 C57.14,64.89 59.26,64.37 61.5,64.37 C63.72,64.37 65.84,64.89 67.73,65.78 C69.57,66.62 71.65,67.12 73.8,67.12 C75.95,67.12 78,66.62 79.87,65.78 C81.74,64.89 83.88,64.37 86.1,64.37 C88.32,64.37 90.44,64.89 92.35,65.78 C94.17,66.62 96.25,67.12 98.39,67.12 L98.39,76.34 Z M52.84,37.9 L43.95,16.38 L52.94,12.55 L50.63,6.95 L44.6,9.52 C44.6,9.52 43.4,10.03 41.65,10.78 L37.18,0 L31.67,2.35 L36.13,13.14 C31.43,15.14 26.51,17.24 26.51,17.24 L28.83,22.84 L38.43,18.74 L47.32,40.25 C29.03,48.03 11.2,55.74 12.3,55.74 C14.52,55.74 16.64,56.26 18.53,57.15 C20.37,57.99 22.45,58.48 24.6,58.48 C26.75,58.48 28.82,57.99 30.67,57.15 C32.54,56.26 34.68,55.74 36.9,55.74 C39.12,55.74 41.24,56.26 43.15,57.15 C44.97,57.99 47.05,58.48 49.19,58.48 C51.33,58.48 53.41,57.99 55.26,57.15 C57.15,56.26 59.27,55.74 61.51,55.74 C63.73,55.74 65.85,56.26 67.74,57.15 C69.58,57.99 71.66,58.48 73.81,58.48 C74.42,58.48 75,58.35 75.58,58.28 C76.68,58.04 77.77,57.94 78.82,57.51 C78.84,57.5 78.87,57.49 78.89,57.47 C80.83,46.38 85.33,24.19 85.33,24.19 C85.33,24.19 69.66,30.76 52.84,37.9 Z" fill="none" stroke="currentColor" stroke-width="1.5"/></svg>