<svg xmlns="http://www.w3.org/2000/svg" viewBox="0 0 80.98 99.09" width="24" height="24"><ellipse cx="18.14" cy="23.18" rx="7.34" ry="7.34" fill="none" stroke="currentColor"/><ellipse cx="53.769999999999996" cy="9.09" rx="9.09" ry="9.09" fill="none" stroke="currentColor"/><path d="M67.69,61.15 L80.98,58.24 L78.18,46.61 L74.25,47.47 L76.36,41.9 C72.97,35.39 69.19,19.4 60.42,19.19 L60.1,17.83 C58.56,19.03 56.61,19.74 54.5,19.74 C53.89,19.74 53.3,19.68 52.73,19.57 L52.73,20.99 L47.97,24.59 L41.82,41.34 L34.01,44.31 L33.98,44.11 L28.39,34.14 L22.23,30.76 C21.08,31.49 19.72,31.92 18.25,31.92 C17.3,31.92 16.4,31.74 15.57,31.42 L11.61,34.69 L7.69,49.43 L0,56.17 L1.96,58.66 L11.61,52.15 L13.57,48.88 L14.55,52.71 L9.09,70.01 L11.47,70.7 L6.71,90.69 L10.35,92.03 L18.32,72.38 C19.62,72.53 20.96,72.61 22.32,72.65 L33.71,93 L37.21,91.8 L29.68,72.42 C30.69,72.33 34.42,71.96 34.42,71.96 L28.95,60.04 L38.46,60.04 L37.2,50.9 L34.82,50.9 L34.61,49.25 L45.3,47.44 L47.71,43.84 L50.61,55.47 L43.48,71.67 L41.94,96.18 L49.07,96.73 L51.73,76.61 L55.65,70.56 L57.75,79.15 L69.09,99.09 L75.66,97.29 L66.01,78.6 L67.69,61.15 Z M70.63,43.08 L69.21,48.57 L67.09,49.03 L66.22,37.47 L70.63,43.08 Z M29.65,50.91 L27.04,50.91 L28.07,44.31 L29.66,46.16 L29.66,50.91 Z" fill="none" stroke="currentColor" stroke-width="1.5"/></svg>