<svg xmlns="http://www.w3.org/2000/svg" viewBox="0 0 98.99 94.7" width="24" height="24"><path d="M76.83,43.63 L76.83,48.65 L68.68,48.65 L73.51,60.61 L85.7,60.61 L85.7,65.59 L75.5,65.59 L81.15,79.58 L75.18,79.58 L69.53,65.59 L51.25,65.59 L45.64,79.58 L39.64,79.58 L45.29,65.59 L35.09,65.59 L35.09,60.61 L47.3,60.61 L52.11,48.65 L43.96,48.65 L43.96,43.63 L76.83,43.63 Z M67.51,60.6 L62.7,48.64 L58.09,48.64 L53.26,60.6 L67.51,60.6 Z M9.94,94.7 L98.99,94.7 L98.99,85.36 L19.19,85.36 L19.19,46.15 L98.99,9.72 L98.99,0 L0,45.17 L0,54.88 L9.94,50.38 Z" fill="none" stroke="currentColor" stroke-width="1.5"/></svg>