<svg xmlns="http://www.w3.org/2000/svg" viewBox="0 0 99.32 99.71" width="24" height="24"><path d="M49.97,56.73 C48.15,54.93 48.15,51.97 49.97,50.16 C51.77,48.33 54.71,48.33 56.51,50.16 L65.77,59.43 L65.77,46.31 C65.77,43.75 67.84,41.65 70.41,41.65 C72.96,41.65 75.05,43.76 75.05,46.31 L75.05,59.44 L84.29,50.17 C86.11,48.34 89.03,48.34 90.86,50.17 C92.68,51.97 92.68,54.93 90.86,56.74 L81.62,66.01 L94.7,66.03 C97.25,66.03 99.32,68.11 99.32,70.69 C99.32,73.25 97.25,75.35 94.7,75.35 L81.63,75.35 L90.87,84.62 C92.69,86.45 92.69,89.38 90.87,91.21 C89.05,93.01 86.13,93.01 84.3,91.21 L75.09,81.94 L75.07,95.05 C75.07,97.63 72.97,99.71 70.43,99.71 C67.86,99.71 65.79,97.63 65.79,95.05 L65.79,81.92 L56.53,91.22 C54.73,93.02 51.79,93.02 49.99,91.22 C48.17,89.39 48.17,86.46 49.99,84.63 L59.23,75.36 L46.13,75.36 C43.58,75.36 41.49,73.25 41.49,70.7 C41.49,68.12 43.59,66.04 46.13,66.04 L59.21,66.04 L49.97,56.73 Z M44.78,9.77 C44.78,7.21 42.71,5.13 40.14,5.13 C37.57,5.13 35.5,7.21 35.5,9.77 L35.5,29.04 L8.36,1.83 C6.56,0 3.62,0 1.82,1.83 C0,3.63 0,6.59 1.82,8.4 L28.93,35.64 L9.73,35.64 C7.18,35.64 5.11,37.72 5.11,40.3 C5.11,42.86 7.18,44.96 9.73,44.96 L40.11,44.94 C41.31,44.94 42.48,44.49 43.41,43.59 C44.31,42.69 44.76,41.48 44.76,40.31 L44.78,9.77 Z" fill="none" stroke="currentColor" stroke-width="1.5"/></svg>