<svg xmlns="http://www.w3.org/2000/svg" viewBox="0 0 68.93 98.67" width="24" height="24"><path d="M0.67,88.55 C5.68,85.09 9.72,81.27 12.78,77.1 C15.84,72.92 17.37,68.38 17.37,63.48 C17.37,62.08 17.08,60.44 16.51,58.56 C16.16,57.38 15.56,55.76 14.71,53.7 L0,53.7 L0,46.87 L10.45,46.87 C10.45,47.09 9.71,45.72 8.22,42.77 C6.73,39.82 5.75,37.66 5.26,36.3 C4.82,35.03 4.44,33.55 4.13,31.87 C3.82,30.19 3.66,28.38 3.66,26.46 C3.66,19.63 6.48,13.52 12.11,8.11 C17.75,2.7 25.82,0 36.33,0 C46.22,0 53.71,2.67 58.78,8.01 C63.86,13.35 66.47,20.9 66.6,30.66 L54.29,30.66 C54.29,24.05 52.73,19.03 49.6,15.59 C46.47,12.16 41.72,10.44 35.33,10.44 C29.12,10.44 24.42,12.05 21.23,15.26 C18.04,18.47 16.44,22.38 16.44,26.98 C16.44,29.25 16.94,31.6 17.94,34 C18.94,36.41 21.06,40.7 24.29,46.87 L46.11,46.87 L46.11,53.7 L27.28,53.7 C27.72,55.71 28.04,57.29 28.25,58.43 C28.45,59.57 28.55,60.75 28.55,61.97 C28.55,66.35 27.22,70.67 24.56,74.93 C21.9,79.2 17.73,83.43 12.05,87.63 C15.11,86.1 18.13,84.88 21.1,83.99 C24.07,83.09 26.98,82.65 29.81,82.65 C33,82.65 37.23,83.43 42.48,84.98 C47.74,86.53 51.18,87.31 52.83,87.31 C54.92,87.31 56.82,86.92 58.55,86.13 C59.61,85.65 61.23,84.64 63.41,83.11 L68.93,91.97 C66.45,93.94 64.23,95.4 62.28,96.37 C59.04,97.9 55.6,98.67 51.97,98.67 C49.31,98.67 44.84,97.66 38.56,95.65 C32.28,93.64 27.33,92.63 23.69,92.63 C20.32,92.63 17.13,93.2 14.11,94.34 C12.34,95.04 10.05,96.22 7.26,97.88 L0.67,88.55 Z" fill="none" stroke="currentColor" stroke-width="1.5"/></svg>