<svg xmlns="http://www.w3.org/2000/svg" viewBox="0 0 102.45 94.11" width="24" height="24"><path d="M75.99,86.58 L59.58,58.21 C56.56,60.21 50.89,60.34 50.89,60.34 C50.89,60.34 45.15,60.21 42.14,58.21 L25.68,86.58 C25.68,86.58 35.35,94.11 51.11,94.11 C66.8,94.11 75.99,86.58 75.99,86.58 L75.99,86.58 L75.99,86.58 Z" fill="none" stroke="currentColor" stroke-width="1.5"/><path d="M51.18,53.47 C56.56,53.47 60.85,49.06 60.85,43.68 C60.85,38.26 56.55,33.85 51.18,33.85 C45.81,33.85 41.46,38.26 41.46,43.68 C41.46,49.06 45.8,53.47 51.18,53.47 L51.18,53.47 L51.18,53.47 Z" fill="none" stroke="currentColor" stroke-width="1.5"/><path d="M75.66,0.57 L59.49,29.11 C62.7,30.73 65.61,35.6 65.61,35.6 C65.61,35.6 68.41,40.8 68.17,44.47 L100.8,44.44 C100.8,44.44 102.45,32.32 94.6,18.56 C86.69,4.82 75.66,0.57 75.66,0.57 L75.66,0.57 L75.66,0.57 Z" fill="none" stroke="currentColor" stroke-width="1.5"/><path d="M1.85,43.84 L34.51,43.84 C34.26,40.17 37,35.1 37,35.1 C37,35.1 39.97,30.15 43.24,28.51 L27.03,0 C27.03,0 15.73,4.66 7.85,18.4 C0,32.1 1.85,43.84 1.85,43.84 L1.85,43.84 L1.85,43.84 Z" fill="none" stroke="currentColor" stroke-width="1.5"/></svg>