<svg xmlns="http://www.w3.org/2000/svg" viewBox="0 0 95.48 98.87" width="24" height="24"><path d="M91.07,25.36 C88.3,23.53 86.22,24.45 86.22,24.45 C83.58,25.11 82.08,25.1 81.34,25.01 L81.34,24.37 C82.05,23.88 82.52,23.07 82.52,22.14 C82.52,20.66 81.3,19.46 79.81,19.46 C78.3,19.46 77.08,20.67 77.08,22.14 C77.08,22.98 77.47,23.71 78.06,24.21 L78.06,47.53 L68.71,40.47 L48.92,55.59 L48.92,83.74 L88.76,83.74 L88.76,55.59 L81.35,50 L81.35,34.62 C82.04,34.72 83.56,34.77 86.34,34.07 C86.34,34.07 88.42,33.14 91.19,34.99 C91.19,34.99 91.78,35.44 95.48,37.85 L95.48,28.25 C91.78,25.84 91.07,25.36 91.07,25.36 Z M16.27,60.85 L34.82,60.85 L34.31,98.87 L28.67,98.87 L26.71,70.98 L24.54,70.98 L22.87,98.87 L16.73,98.87 Z M38.64,10.13 C32.79,9.21 25.72,9.14 25.72,9.14 L25.71,9.14 C25.71,9.14 18.64,9.21 12.78,10.13 C12.78,10.13 12.73,11.45 13.38,12.07 L18.8,11.86 C18.61,12.51 18.5,13.21 18.5,13.92 C18.5,17.9 21.73,21.13 25.71,21.13 L25.71,21.13 C29.7,21.13 32.93,17.9 32.93,13.92 C32.93,13.21 32.82,12.51 32.63,11.86 L38.07,12.07 C38.69,11.45 38.64,10.13 38.64,10.13 Z M29.46,0 L21.94,0 L17.6,3.94 L17.6,7.43 L33.81,7.43 L33.81,3.94 Z M49.27,38.12 L37.17,25.17 C35.48,23.13 34.1,23.13 34.1,23.13 L16.96,23.13 C16.96,23.13 15.57,23.13 13.89,25.17 L1.79,38.12 C1.79,38.12 0,39.49 1.96,41.73 L16.27,55.64 L16.27,58.17 L34.79,58.17 L34.79,55.64 L49.1,41.74 C51.07,39.49 49.27,38.12 49.27,38.12 Z M11.8,44.88 C11.8,44.88 9.66,40.99 9.25,40.35 L8.74,39.43 L15.98,32.79 C15.98,32.79 16.15,32.56 16.32,33.09 L16.5,48.9 C16.5,48.89 14.71,48.66 11.8,44.88 Z M41.81,40.35 C41.4,40.99 39.27,44.88 39.27,44.88 C36.37,48.66 34.57,48.9 34.57,48.9 L34.75,33.09 C34.92,32.57 35.08,32.79 35.08,32.79 L42.32,39.43 L41.81,40.35 Z" fill="none" stroke="currentColor" stroke-width="1.5"/></svg>