<svg xmlns="http://www.w3.org/2000/svg" viewBox="0 0 96.12 98.75" width="24" height="24"><path d="M46.21,49.31 C44.37,51 29.63,65.1 29.63,65.1 L33.56,68.93 C33.56,68.93 46.66,57.01 48.62,55.21 C49.11,54.77 49.93,53.92 51.45,53.92 L96.12,53.92 L96.12,47.82 L49.9,47.82 C48.55,47.82 47.27,48.34 46.21,49.31 Z" fill="none" stroke="currentColor" stroke-width="1.5"/><path d="M72.67,16.15 C77.91,16.15 80.77,12.57 80.77,8.17 C80.77,3.76 77.14,0.19 72.67,0.19 C68.2,0.19 64.57,3.76 64.57,8.17 C64.57,12.57 68.2,16.15 72.67,16.15 Z" fill="none" stroke="currentColor" stroke-width="1.5"/><path d="M60.66,29.87 L63.38,29.87 L59.4,43.96 L85.94,43.96 L81.96,29.87 L84.68,29.87 L88.81,43.96 L95.82,43.96 L90.17,25.26 C89.43,22.68 86.11,18.1 80.38,18.1 L64.95,18.1 C59.22,18.1 55.91,22.68 55.16,25.26 L49.53,43.96 L56.54,43.96 L60.66,29.87 Z" fill="none" stroke="currentColor" stroke-width="1.5"/><path d="M37.72,43.23 L34.28,36.9 L30.6,30.12 C30.6,30.12 30.18,29.5 29.41,29.87 C28.71,30.2 29.03,30.98 29.03,30.98 L31.39,35.43 L32.86,38.2 L31.16,37.45 C28.16,36.11 26.5,35.54 25.83,35.25 C25.71,35.2 25.13,34.88 24.85,34.28 C24.06,32.54 20.7,24.15 19.95,22.3 C19.31,20.73 17.74,18.5 14.51,17.71 C10.83,16.81 7.12,19.1 6.24,22.74 L1.21,43.61 C0.76,45.29 0,49.85 0,51.77 C0,53.69 0.03,92.54 0.03,92.54 C0.06,95.98 2.57,98.75 6.06,98.74 C9.54,98.73 11.92,95.93 11.91,92.5 C11.91,92.5 11.91,70.3 11.9,57.96 L17.25,35.67 C17.88,37.18 18.65,39.02 18.9,39.46 C19.5,40.5 20.1,41.22 21.31,41.78 C21.31,41.78 28.32,44.64 31.03,45.86 C32.66,46.48 34.44,45.93 35.47,44.65 L35.85,43.88 L35.98,44.12 C35.98,44.12 36.78,45.51 37.96,45.57 C38.31,44.5 37.72,43.23 37.72,43.23 Z" fill="none" stroke="currentColor" stroke-width="1.5"/><ellipse cx="18.78" cy="8.1" rx="8.1" ry="8.1" fill="none" stroke="currentColor"/><path d="M30.53,60.2 L46.3,45.72 L44.25,43.55 L28.48,58.03 Z" fill="none" stroke="currentColor" stroke-width="1.5"/></svg>