<svg xmlns="http://www.w3.org/2000/svg" viewBox="0 0 76.06 98.83" width="24" height="24"><path d="M34.4,24.57 C38.46,24.57 41.77,21.33 41.77,17.31 C41.77,13.29 38.47,10.03 34.4,10.03 C30.34,10.03 27.03,13.29 27.03,17.31 C27.03,21.33 30.34,24.57 34.4,24.57 Z M44.9,98.83 L44.9,66.08 L41.79,67.52 L41.79,98.83 Z M10.65,39.3 C11.71,40.93 13.84,41.66 15.74,40.89 L26.43,36.74 L26.43,51.41 L44.9,51.41 L44.9,34.43 L61.45,8.25 C62.67,6.34 62.1,3.8 60.15,2.58 C58.22,1.38 55.65,1.94 54.57,3.8 L40.51,26.05 L32.04,26.07 C31.5,26.07 30.95,26.16 30.41,26.37 L15.78,32.04 L8.24,20.74 C7,18.85 4.44,18.29 2.5,19.52 C0.57,20.74 0,23.3 1.24,25.21 L10.65,39.3 Z M47.98,46.73 C68.21,36.81 76.06,2.83 76.06,0 L73.28,0 C72.24,7.09 63.54,35.44 47.99,43.66 L47.99,46.73 Z M39.46,65.55 C38.52,65.89 37.48,66.09 36.42,66.09 C35.27,66.09 34.14,65.96 33.09,65.66 L21.27,92.51 C20.21,94.98 17.23,95.82 14.64,94.38 C12.05,92.94 10.84,89.79 11.95,87.32 L26.42,54.48 L44.89,54.48 L44.89,51.41 L54.23,47.11 C56.69,45.93 59.86,47.95 60.51,50.5 L65.11,68.66 C65.76,71.24 64.18,73.83 61.57,74.48 C58.96,75.13 56.31,73.56 55.66,70.98 L52.75,59.4 L39.46,65.55 Z" fill="none" stroke="currentColor" stroke-width="1.5"/></svg>