<svg xmlns="http://www.w3.org/2000/svg" viewBox="0 0 92.65 98.77" width="24" height="24"><path d="M43.02,10.88 C27.54,1.9 19.41,1.62 5.32,0 L4.8,2.62 C22.28,6.62 26.7,10.68 38.73,17.88 L40.39,25.73 L0.7,90.34 C0.31,91.11 0.08,91.96 0.05,92.88 C0,96.09 2.57,98.7 5.79,98.75 C7.92,98.77 9.79,97.67 10.86,96.03 L49.93,32.89 L65.83,42.95 L74.01,29.63 Z M63.26,70.53 L68.38,74.81 L77.32,64.42 L66.8,55.6 L62.4,60.7 Z M92.65,77.15 L72.82,77.12 L72.8,97.08 L86.28,97.08 L92.65,90.31 Z M56.82,98.13 L63.52,96.16 L57.49,76.25 L43.18,80.46 L40.4,92.36 Z" fill="none" stroke="currentColor" stroke-width="1.5"/></svg>