<svg xmlns="http://www.w3.org/2000/svg" viewBox="0 0 94.02 99.3" width="24" height="24"><path d="M69.4,0 C64.71,0 60.89,3.83 60.89,8.53 C60.89,13.26 64.71,17.07 69.4,17.07 C74.11,17.07 77.96,13.26 77.96,8.53 C77.95,3.83 74.11,0 69.4,0 M5.01,58.86 C4.27,57.67 2.72,57.31 1.55,58.06 C0.36,58.79 0,60.34 0.73,61.54 C1.48,62.71 3.02,63.06 4.22,62.33 C5.39,61.58 5.74,60.03 5.01,58.86 M6.76,65.83 C6.03,64.66 4.48,64.31 3.28,65.05 C2.12,65.78 1.75,67.33 2.5,68.5 C3.23,69.69 4.78,70.04 5.95,69.3 C7.12,68.57 7.49,67.02 6.76,65.83 M8.51,72.81 C7.78,71.62 6.19,71.26 5.04,72 C3.83,72.73 3.49,74.28 4.22,75.48 C4.95,76.65 6.54,77 7.69,76.27 C8.88,75.54 9.24,73.98 8.51,72.81 M10.23,79.78 C9.5,78.6 7.95,78.25 6.78,78.96 C5.59,79.72 5.23,81.27 5.96,82.44 C6.69,83.63 8.24,83.99 9.45,83.25 C10.61,82.53 10.98,80.97 10.23,79.78 M51.17,93.97 C49.83,94.41 49.09,95.83 49.51,97.15 C49.96,98.5 51.38,99.21 52.69,98.81 C54.02,98.37 54.76,96.95 54.35,95.63 C53.91,94.3 52.49,93.57 51.17,93.97 M58.32,94.03 C57,94.43 56.28,95.85 56.7,97.18 C57.12,98.53 58.55,99.26 59.87,98.84 C61.19,98.4 61.93,96.98 61.5,95.66 C61.07,94.34 59.67,93.6 58.32,94.03 M65.54,94.05 C64.19,94.48 63.45,95.87 63.89,97.22 C64.31,98.54 65.73,99.29 67.07,98.85 C68.38,98.45 69.13,97.02 68.68,95.67 C68.27,94.36 66.85,93.63 65.54,94.05 M72.69,94.08 C71.38,94.52 70.63,95.94 71.07,97.26 C71.51,98.57 72.93,99.3 74.24,98.88 C75.56,98.45 76.3,97.06 75.87,95.73 C75.45,94.39 74.02,93.67 72.69,94.08 M89.84,37.82 L74.94,37.82 L68.09,22.31 C68.01,22.05 67.85,21.72 67.77,21.56 C67.75,21.51 67.72,21.49 67.72,21.46 L67.6,21.17 L67.58,21.2 C66.3,18.5 63.64,16.58 60.49,16.46 C59.88,16.42 59.32,16.48 58.77,16.6 L21.33,25.4 C19.06,25.93 17.65,28.17 18.18,30.45 C18.69,32.72 20.91,34.12 23.18,33.61 L48.17,27.66 L29.18,59.02 L15.36,59.02 L15.34,59.02 L8.86,59.02 L13.36,76.74 C13.51,77.27 13.51,77.39 13.68,77.67 C14.32,78.71 15.66,79.04 16.68,78.4 C17.24,78.08 17.59,77.51 17.7,76.93 L20.39,68.72 L20.49,68.39 C20.49,68.39 32.92,68.34 33.01,68.34 C35.5,68.34 37.64,67.66 38.91,65.56 L44.66,56.02 L57.48,68.79 L52.04,90.21 L70.86,90.21 C72.08,90.21 73.07,89.22 73.07,88.03 C73.07,87.08 72.48,86.42 71.75,86.02 L63.63,81.53 L67.53,66.13 C67.53,66.13 68.5,62.88 65.43,59.87 L54.94,49.36 C54.94,49.36 60.55,40.13 64.15,34.21 L68.33,43.69 C68.66,44.45 69.22,45.06 69.88,45.49 C69.88,45.51 69.93,45.51 69.93,45.55 C70.59,45.98 71.38,46.24 72.23,46.24 L89.75,46.24 C92.09,46.27 93.97,44.35 93.99,42.04 C94.02,39.7 92.14,37.86 89.84,37.82" fill="none" stroke="currentColor" stroke-width="1.5"/></svg>