<svg xmlns="http://www.w3.org/2000/svg" viewBox="0 0 99.11 81.9" width="24" height="24"><path d="M64.48,17.88 C69.38,17.88 73.33,13.87 73.33,8.95 C73.33,4.01 69.38,0 64.48,0 C59.58,0 55.61,4.01 55.61,8.95 C55.61,13.87 59.58,17.88 64.48,17.88 Z M99.11,81.9 C97.02,81.9 95,81.42 93.21,80.63 C91.38,79.77 89.31,79.26 87.15,79.26 C85.01,79.26 82.94,79.76 81.11,80.63 C79.3,81.42 77.3,81.9 75.21,81.9 C73.12,81.9 71.12,81.42 69.33,80.63 C67.5,79.77 65.43,79.26 63.26,79.26 C61.09,79.26 59.03,79.76 57.19,80.63 C55.41,81.42 53.41,81.9 51.32,81.9 C49.23,81.9 47.23,81.42 45.42,80.63 C43.59,79.77 41.54,79.26 39.38,79.26 C37.22,79.26 35.15,79.76 33.31,80.63 C31.53,81.42 29.53,81.9 27.43,81.9 C25.36,81.9 23.36,81.42 21.55,80.63 C19.72,79.77 17.65,79.26 15.51,79.26 C13.35,79.26 11.28,79.76 9.44,80.63 C7.66,81.42 5.66,81.9 3.56,81.9 L3.56,73 C5.65,73 7.65,72.54 9.44,71.73 C11.27,70.87 13.34,70.36 15.51,70.36 C17.65,70.36 19.72,70.86 21.55,71.73 C23.36,72.55 25.36,73 27.43,73 C29.52,73 31.52,72.54 33.31,71.73 C35.14,70.87 37.21,70.36 39.38,70.36 C41.55,70.36 43.59,70.86 45.42,71.73 C47.23,72.55 49.23,73 51.32,73 C53.41,73 55.41,72.54 57.19,71.73 C59.02,70.87 61.09,70.36 63.26,70.36 C65.43,70.36 67.49,70.86 69.33,71.73 C71.11,72.55 73.11,73 75.21,73 C77.3,73 79.3,72.54 81.11,71.73 C82.94,70.87 85.01,70.36 87.15,70.36 C89.31,70.36 91.38,70.86 93.21,71.73 C94.99,72.55 97.02,73 99.11,73 L99.11,81.9 Z M9.68,64.17 C11.46,63.36 13.44,62.9 15.53,62.9 C17.67,62.9 19.74,63.4 21.57,64.27 C23.38,65.06 25.38,65.54 27.45,65.54 C29.54,65.54 31.54,65.06 33.33,64.27 C35.16,63.41 37.23,62.9 39.4,62.9 C41.57,62.9 43.61,63.4 45.44,64.27 C47.25,65.06 49.25,65.54 51.34,65.54 C53.43,65.54 55.43,65.06 57.21,64.27 C58.38,63.72 59.59,63.36 60.87,63.12 L76.14,45.51 L56.49,45.51 L64.63,31.42 L82.47,41.26 C88.37,44.62 92.72,36.87 86.8,33.51 L61.24,19.25 C51.84,13.97 47.87,22.73 47.87,22.73 L34.7,45.19 L0,45.16 C1.09,51.57 6.8,60.16 9.68,64.17 Z M65.45,63.06 C66.81,63.28 68.11,63.68 69.33,64.26 C71.11,65.05 73.11,65.53 75.21,65.53 C77.3,65.53 79.3,65.05 81.11,64.26 C82.94,63.4 85.01,62.89 87.15,62.89 C89.31,62.89 91.38,63.39 93.21,64.26 C94.99,65.05 97.02,65.53 99.11,65.53 L99.06,45.5 L80.65,45.48 L65.45,63.06 Z" fill="none" stroke="currentColor" stroke-width="1.5"/></svg>