<svg xmlns="http://www.w3.org/2000/svg" viewBox="0 0 70.32 98.87" width="24" height="24"><path d="M15.41,24.34 C21.78,24.34 26.94,18.89 26.94,12.17 C26.95,5.45 21.78,0 15.41,0 C9.05,0 3.89,5.45 3.89,12.17 C3.89,18.89 9.05,24.34 15.41,24.34 Z M51.97,73.04 C52.99,70.35 50.95,52.59 50.95,52.59 L38.21,31.08 L43.31,28.93 L52.99,42.92 L60.12,37.54 L51.45,20.31 L28.52,19.24 C26.99,21.93 17.31,27.31 15.27,27.85 C13.23,28.39 14.25,45.07 14.25,45.07 L0,45.61 L1.02,56.9 L24.97,54.75 L27.52,46.14 C27.52,46.14 31.09,54.21 32.1,55.83 C33.12,57.44 31.08,59.6 31.08,59.6 L17.32,68.21 L18.34,98.87 L28.53,98.87 L30.57,75.2 L42.29,67.13 L41.27,83.81 L68.79,83.81 L70.32,72.51 C67.25,67.66 50.94,75.74 51.97,73.04 Z" fill="none" stroke="currentColor" stroke-width="1.5"/></svg>