<svg xmlns="http://www.w3.org/2000/svg" viewBox="0 0 99.0 87.38" width="24" height="24"><path d="M48.91,20.31 C50.58,20.31 51.9,18.95 51.9,17.26 L51.9,12.25 C51.9,10.57 50.57,9.24 48.91,9.24 L26.43,9.24 C24.77,9.24 23.44,10.58 23.44,12.25 L23.44,17.26 C23.44,18.95 24.78,20.31 26.43,20.31 L48.91,20.31 Z M78.59,20.29 C80.26,20.29 81.58,18.93 81.58,17.24 L81.58,12.25 C81.58,10.57 80.25,9.24 78.59,9.24 L68.21,9.24 C66.58,9.24 65.24,10.58 65.24,12.25 L65.24,17.24 C65.24,18.92 66.58,20.29 68.21,20.29 L78.59,20.29 Z M38.84,44.22 L23.01,44.22 C17.11,44.22 12.33,39.4 12.33,33.43 L12.31,14.62 C12.31,6.55 18.8,0 26.78,0 L76,0 C83.99,0 90.48,6.55 90.48,14.63 L90.5,41.19 L95.97,41.19 C97.61,41.19 98.92,42.53 98.92,44.22 L63.92,44.22 C63.54,38.16 57.46,33.36 51.38,33.36 C45.3,33.36 39.23,38.17 38.84,44.22 M51.63,49.81 C53.6,49.81 55.21,48.19 55.21,46.21 C55.21,44.22 53.6,42.6 51.63,42.6 C49.66,42.6 48.05,44.22 48.05,46.21 C48.05,48.19 49.66,49.81 51.63,49.81 M99,54.34 L98.96,83.51 C98.96,85.61 97.26,87.38 95.13,87.38 L3.82,87.38 C1.71,87.38 0,85.61 0,83.51 L0,54.41 L20.13,54.41 L20.13,59.31 L6.53,59.33 C5.83,59.33 5.27,59.83 5.16,60.5 L5.16,79.86 C5.16,81.34 6.33,82.5 7.77,82.5 L47.99,82.5 C49.43,82.5 50.53,81.34 50.53,79.86 L50.55,60.73 C50.55,59.96 49.92,59.33 49.16,59.33 L33.98,59.31 L33.98,54.33 L49.88,54.33 C46.19,53.5 43.39,50.18 43.39,46.2 C43.39,41.61 47.08,37.89 51.63,37.89 C56.18,37.89 59.86,41.62 59.86,46.2 C59.86,50.18 57.1,53.5 53.39,54.33 L99,54.33 Z M25.31,48.69 L28.78,48.69 L28.78,67.52 L32.74,67.52 C32.74,67.52 34.02,67.79 33.62,69.2 L28.17,75.9 C28.17,75.9 27.81,76.48 27.12,76.48 C26.43,76.48 26.05,75.9 26.05,75.9 L20.48,69.2 C20.05,67.79 21.36,67.52 21.36,67.52 L25.31,67.52 L25.31,48.69 Z" fill="none" stroke="currentColor" stroke-width="1.5"/></svg>