<svg xmlns="http://www.w3.org/2000/svg" viewBox="0 0 60.56 99.13" width="24" height="24"><path d="M48.69,38.33 C40.45,28.94 24.55,34.94 15.76,39.38 L15.76,16.51 L23.77,16.51 L23.77,8.83 L15.76,8.83 L15.76,0 L8.01,0 L8.01,8.83 L0,8.83 L0,16.51 L8.01,16.51 L8.01,79.34 L15.76,79.34 L15.76,48.12 C23.55,43.64 37.94,37.78 42.84,43.37 C50.4,51.99 46.68,59.33 39.67,70.41 C34.08,79.24 27.13,90.22 39.3,99.13 L43.9,92.95 C38.03,88.66 39.77,84.7 46.23,74.49 C52.28,64.94 60.56,51.87 48.69,38.33 Z" fill="none" stroke="currentColor" stroke-width="1.5"/></svg>