<svg xmlns="http://www.w3.org/2000/svg" viewBox="0 0 99.43 64.45" width="24" height="24"><path d="M86.24,37.62 C78.96,37.62 73.05,43.61 73.05,51 C73.05,58.37 78.96,64.34 86.24,64.34 C93.54,64.34 99.43,58.37 99.43,51 C99.43,43.6 93.54,37.62 86.24,37.62 Z M10.57,53.78 C11.87,59.77 17.15,64.45 23.44,64.45 C29.82,64.45 35.13,59.87 36.36,53.78 L10.57,53.78 Z M85.2,28.51 L81.77,16.86 C81.66,16.42 82.3,16.21 82.3,16.21 L87.74,14.58 L86.99,6.81 L80.59,6.27 C78.77,6.5 78.35,4.75 78.35,4.75 L77.6,2.05 C77.07,0 75.25,0.22 75.25,0.22 L62.58,0.22 C60.76,1.63 62.9,2.71 62.9,2.71 L70.68,2.71 C71.43,2.58 71.85,3.47 71.85,3.47 L76.17,30.6 C71.28,32.84 66.92,37.02 64.55,43.53 L50.42,43.53 C41.35,36.61 45.41,26.68 45.41,26.68 L48.92,26.68 L48.92,19.46 L2.76,19.46 L2.76,26.68 L9.81,26.68 C0,36.19 0.74,50.23 0.74,50.23 L69.23,50.23 C69.68,41.08 77.1,33.78 86.24,33.78 C90.23,33.78 93.87,35.24 96.78,37.56 L99.43,37.56 C98.85,31.87 92.47,28.38 85.2,28.51 Z" fill="none" stroke="currentColor" stroke-width="1.5"/></svg>