<svg xmlns="http://www.w3.org/2000/svg" viewBox="0 0 99.37 68.06" width="24" height="24"><path d="M95.43,68.06 C93.42,68.06 91.49,67.6 89.78,66.83 C88.03,66.01 86.05,65.52 83.97,65.52 C81.91,65.52 79.92,66 78.16,66.83 C76.46,67.6 74.52,68.06 72.52,68.06 C70.54,68.06 68.6,67.6 66.89,66.83 C65.12,66.01 63.14,65.52 61.08,65.52 C59.02,65.52 57.03,66 55.28,66.83 C53.55,67.6 51.64,68.06 49.64,68.06 C47.63,68.06 45.7,67.6 44,66.83 C42.24,66.01 40.26,65.52 38.19,65.52 C36.11,65.52 34.13,66 32.37,66.83 C30.67,67.6 28.73,68.06 26.73,68.06 C24.72,68.06 22.81,67.6 21.11,66.83 C19.33,66.01 17.34,65.52 15.3,65.52 C13.23,65.52 11.24,66 9.49,66.83 C7.75,67.6 5.84,68.06 3.84,68.06 L3.84,59.52 C5.84,59.52 7.76,59.06 9.49,58.29 C11.24,57.47 13.22,56.98 15.3,56.98 C17.34,56.98 19.32,57.46 21.11,58.29 C22.81,59.06 24.72,59.52 26.73,59.52 C28.74,59.52 30.67,59.06 32.37,58.29 C34.13,57.47 36.11,56.98 38.19,56.98 C40.25,56.98 42.24,57.46 44,58.29 C45.7,59.06 47.64,59.52 49.64,59.52 C51.64,59.52 53.56,59.06 55.28,58.29 C57.04,57.47 59.02,56.98 61.08,56.98 C63.13,56.98 65.11,57.46 66.89,58.29 C68.6,59.06 70.54,59.52 72.52,59.52 C74.53,59.52 76.46,59.06 78.16,58.29 C79.92,57.47 81.9,56.98 83.97,56.98 C86.05,56.98 88.03,57.46 89.78,58.29 C91.49,59.06 93.43,59.52 95.43,59.52 L95.43,68.06 Z M74.84,15.98 C74.57,16.44 73.05,19.08 73.05,19.08 C73.05,19.08 72.72,19.75 71.69,19.75 L66.47,19.75 L63.49,10.8 C63.72,10.75 63.97,10.71 64.13,10.68 C66,10.34 66.64,10.34 68.02,11.06 C68.02,11.06 73.97,14.16 74.37,14.39 C74.87,14.63 75.18,15.38 74.84,15.98 M60.56,11.37 L63.37,19.75 L42.59,19.75 C42.14,19.75 41.66,19.48 41.66,18.76 L41.66,17.63 C41.66,17.02 41.92,16.64 42.46,16.37 C43.09,16.08 46.86,14.56 49.13,13.95 C53.24,12.91 57.54,11.97 60.56,11.37 M42.14,44.08 L45.51,34.9 L68.85,34.9 L72.22,44.04 L42.14,44.08 Z M98.44,44 L74.91,44.02 L71.52,34.83 C74.23,34.39 79.33,33.57 82.27,32.72 C83.54,32.39 84.84,31.06 85.21,30.29 L92.22,19.5 L92.22,33.01 C92.22,34.53 94.46,34.53 94.46,33.01 L94.46,19.07 L95.42,19.07 C98.1,19.07 98.1,15.01 95.42,15.01 L94.46,15.01 L94.46,1.52 C94.46,0 92.22,0 92.22,1.52 L92.22,15.01 L91.57,15.01 C89.18,14.77 77.95,13.56 75.79,12.43 C73.61,11.27 71.32,9.97 69.19,8.86 C67.23,7.87 66.09,7.94 63.97,8.31 C62.77,8.55 55.7,9.88 48.86,11.63 C40.41,13.79 29.97,18.76 29.97,18.76 L18.04,18.81 C15.31,18.01 14.24,12.85 13.05,10.58 L10.03,4.45 C9.81,3.94 9.26,3.79 8.74,3.76 L1.14,3.3 C0,3.23 0.43,4.2 0.59,4.75 L5.8,25.4 C6.35,27.71 9.52,29.91 11.75,30.15 L42.45,34.91 L42.84,34.91 L39.47,44.09 L15.34,44.11 C14.75,44.11 14.27,44.44 14.27,45.02 L14.27,46.57 C14.27,47.22 14.66,47.65 15.34,47.87 C17.32,48.47 23.28,50.12 30.39,51.87 C30.64,51.78 30.89,51.73 31.14,51.61 C33.39,50.55 35.77,50.02 38.2,50.02 C40.64,50.02 43.03,50.55 45.23,51.59 C46.62,52.24 48.15,52.56 49.65,52.56 C51.15,52.56 52.64,52.24 54.02,51.62 C56.22,50.58 58.68,50.03 61.1,50.03 C63.49,50.03 65.95,50.58 68.12,51.6 C69.53,52.25 71.06,52.57 72.54,52.57 C74.04,52.57 75.57,52.25 76.91,51.63 C79.14,50.59 81.57,50.04 83.99,50.04 C86.28,50.04 88.57,50.55 90.67,51.47 C96.53,49.51 98.61,47.91 98.61,47.91 C99.06,47.53 99.37,47.14 99.37,46.54 L99.37,44.94 C99.35,44.32 99.02,44 98.44,44" fill="none" stroke="currentColor" stroke-width="1.5"/></svg>