<svg xmlns="http://www.w3.org/2000/svg" viewBox="0 0 100.37 92.97" width="24" height="24"><path d="M86.59,17.71 L86.59,43.18 C86.59,49.42 84.74,55.19 81.48,60.03 C82.12,60.84 82.74,61.81 83.28,63.06 C84.87,66.68 84.06,70.73 81.56,73.45 L68.61,86.95 C68.39,87.25 68.07,87.52 67.7,87.68 C66.6,88.17 65.34,87.65 64.89,86.57 C64.67,86.08 64.65,85.57 64.78,85.11 L67.49,71.34 C64.08,72.66 60.38,73.39 56.51,73.39 L27.41,73.36 C35.2,78.71 35.2,89.1 35.18,89.29 C35.13,90.02 35.05,90.56 34.83,91.21 C34.53,92.05 34,92.97 32.76,92.59 L15.05,78.6 C6.93,72.77 0,63.1 3.41,53.17 C5.77,46.39 12.49,43.56 19.05,42.4 L55.93,34.95 L72,5.91 C73.96,2.48 79.12,0 82.56,0.24 C86.03,0.48 88.53,1.43 90.97,3.56 L98.92,5.26 C99.75,5.31 100.37,6.02 100.32,6.85 L99.43,10.09 C99.13,10.82 98.81,11.36 98.14,11.82 L86.59,17.71 Z" fill="none" stroke="currentColor" stroke-width="1.5"/></svg>