<svg xmlns="http://www.w3.org/2000/svg" viewBox="0 0 99.21 99.13" width="24" height="24"><path d="M24.6,26.95 C28.32,26.95 31.32,23.98 31.32,20.29 C31.32,16.6 28.32,13.61 24.6,13.61 C20.91,13.61 17.89,16.6 17.89,20.29 C17.89,23.98 20.9,26.95 24.6,26.95 Z M14.26,28.33 C14.52,27.29 13.89,26.28 12.87,26.03 L7.27,24.67 C6.22,24.46 5.18,25.06 4.95,26.1 L0.26,45.4 C0,46.39 0.63,47.43 1.68,47.68 L7.28,49.02 C8.3,49.27 9.32,48.65 9.58,47.62 L14.26,28.33 Z M1.59,92.98 C1.54,93.3 1.5,93.62 1.5,93.92 C1.5,96.5 3.61,98.6 6.22,98.6 C8.38,98.6 10.17,97.19 10.75,95.26 L18.88,61.95 L26.59,95.07 C27.1,97.1 28.98,98.59 31.17,98.59 C33.8,98.59 35.91,96.49 35.91,93.91 C35.91,93.56 35.86,93.22 35.79,92.9 L25.17,48.89 L26.08,45.04 L26.75,48.08 C27.4,50.06 29.24,50.27 29.24,50.27 L40.18,53.03 C40.39,53.08 40.6,53.08 40.83,53.08 C42.6,53.08 44.06,51.65 44.06,49.88 C44.06,48.38 42.99,47.09 41.57,46.77 L32.09,44.42 L29.49,33.94 C28.26,28.11 22.64,28.25 22.64,28.25 C17.16,28.11 15.79,33.8 15.79,33.8 L1.59,92.98 Z M91.31,95.23 C91.31,93.07 93.03,91.31 95.26,91.31 C97.42,91.31 99.21,93.06 99.21,95.23 C99.21,97.37 97.42,99.12 95.26,99.12 C93.03,99.13 91.31,97.37 91.31,95.23 Z M95.26,84.73 C93.03,84.73 91.31,82.98 91.31,80.84 C91.31,78.68 93.03,76.92 95.26,76.92 C97.42,76.92 99.21,78.67 99.21,80.84 C99.21,82.98 97.42,84.73 95.26,84.73 Z M95.23,70.34 C93.02,70.34 91.28,68.59 91.28,66.45 C91.28,64.26 93.02,62.54 95.23,62.54 C97.39,62.54 99.18,64.27 99.18,66.45 C99.18,68.59 97.4,70.34 95.23,70.34 Z M95.23,55.94 C93.02,55.94 91.28,54.19 91.28,52.05 C91.28,49.86 93.02,48.13 95.23,48.13 C97.39,48.13 99.18,49.86 99.18,52.05 C99.18,54.19 97.4,55.94 95.23,55.94 Z M95.23,41.55 C93.02,41.55 91.28,39.8 91.28,37.66 C91.28,35.47 93.02,33.74 95.23,33.74 C97.39,33.74 99.16,35.47 99.16,37.66 C99.16,39.8 97.4,41.55 95.23,41.55 Z M95.23,27.15 C93,27.15 91.28,25.4 91.28,23.26 C91.28,21.05 93,19.34 95.23,19.34 C97.39,19.34 99.16,21.04 99.16,23.26 C99.16,25.4 97.4,27.15 95.23,27.15 Z M91.28,8.87 C91.28,6.66 93,4.95 95.23,4.95 C97.39,4.95 99.16,6.65 99.16,8.87 C99.16,11.01 97.39,12.76 95.23,12.76 C93,12.76 91.28,11.01 91.28,8.87 Z M66.19,4.93 C68.37,4.93 70.12,6.66 70.12,8.87 C70.12,10.99 68.38,12.76 66.19,12.76 C64,12.76 62.24,10.99 62.24,8.87 C62.24,6.66 64.01,4.93 66.19,4.93 Z M80.71,4.91 C82.89,4.91 84.64,6.66 84.64,8.85 C84.64,10.97 82.9,12.74 80.71,12.74 C78.53,12.74 76.76,10.97 76.76,8.85 C76.76,6.66 78.53,4.91 80.71,4.91 Z M66.19,91.3 C68.35,91.3 70.14,93.05 70.14,95.21 C70.14,97.35 68.35,99.1 66.19,99.1 C63.98,99.1 62.24,97.35 62.24,95.21 C62.24,93.04 63.98,91.3 66.19,91.3 Z M80.74,91.3 C82.92,91.3 84.67,93.05 84.67,95.21 C84.67,97.35 82.93,99.1 80.74,99.1 C78.55,99.1 76.79,97.35 76.79,95.21 C76.79,93.04 78.55,91.3 80.74,91.3 Z M56.74,0 L56.74,17.8 L41.26,8.89 Z M53.81,98.34 C53.81,98.34 53.81,70.1 53.81,67.2 C55.78,65.24 69.03,52.12 69.03,52.12 C69.77,51.38 70.15,50.39 70.15,49.42 C70.15,48.43 69.78,47.46 69.03,46.73 C67.52,45.23 65.08,45.23 63.57,46.73 L46.09,64.03 L46.09,98.34 L53.81,98.34 Z" fill="none" stroke="currentColor" stroke-width="1.5"/></svg>