<svg xmlns="http://www.w3.org/2000/svg" viewBox="0 0 78.44 100.3" width="24" height="24"><path d="M75.9,11.77 C78.44,9.25 78.44,5.04 75.9,2.52 C73.36,0 69.11,0 66.56,2.52 C59.25,9.77 51.94,17.01 44.63,24.24 C44.61,24.26 44.59,24.29 44.57,24.31 C45.77,22.5 46.47,20.33 46.47,18.01 C46.47,11.66 41.27,6.51 34.85,6.51 C28.43,6.51 23.23,11.66 23.23,18.01 C23.23,21.87 25.15,25.28 28.1,27.37 C26.76,27.58 25.48,28.17 24.47,29.17 C17.17,36.41 9.85,43.65 2.54,50.89 C0,53.41 0,57.62 2.54,60.14 C5.08,62.66 9.34,62.66 11.88,60.14 C16.09,55.97 20.29,51.81 24.5,47.64 C24.5,50.94 24.5,54.24 24.5,57.54 C24.5,59.64 25.03,61.64 25.95,63.42 C26.27,64.28 26.76,65.09 27.45,65.78 C27.59,65.92 27.74,66.06 27.88,66.21 C28.22,66.59 28.58,66.94 28.96,67.28 C39.02,77.24 49.08,87.2 59.14,97.16 C59.35,97.37 59.56,97.57 59.76,97.78 C62.3,100.3 66.55,100.3 69.1,97.78 C71.65,95.26 71.65,91.05 69.1,88.53 C61.75,81.26 54.41,73.98 47.06,66.71 L47.06,66.71 L46.81,66.46 L48.92,64.36 L48.92,64.36 C52.62,60.7 56.32,57.04 60.01,53.38 C60.48,60.29 60.96,67.19 61.43,74.1 C61.67,77.65 64.25,80.64 68.03,80.64 C71.45,80.64 74.88,77.66 74.63,74.1 C73.82,62.27 73.01,50.43 72.2,38.6 C72.19,38.46 72.17,38.32 72.15,38.19 C72.06,36.65 71.43,35.14 70.26,33.98 C69.86,33.58 69.41,33.25 68.93,32.98 C67.98,32.4 66.85,32.07 65.59,32.07 C64.98,32.07 64.37,32.17 63.78,32.34 C62.73,32.63 61.74,33.17 60.92,33.98 C57.58,37.29 54.23,40.6 50.89,43.91 C50.89,42.14 50.89,40.37 50.89,38.6 C50.89,37.46 50.73,36.35 50.45,35.29 C51.74,35.07 52.97,34.47 53.95,33.51 C61.28,26.25 68.59,19.01 75.9,11.77 Z" fill="none" stroke="currentColor" stroke-width="1.5"/></svg>