<svg xmlns="http://www.w3.org/2000/svg" viewBox="0 0 99.84 81.25" width="24" height="24"><path d="M98.19,50.03 C97.06,46.7 96.02,44.92 95.2,42.11 C95.04,41.56 90.62,29.17 71.27,17.8 C68.05,15.91 55.67,12.32 52.88,11.26 C52.12,10.87 51.64,10.34 51.43,10.17 C49.53,8.57 46.72,4.34 44.12,2.82 C40.46,0.69 37.9,0.46 35.19,0.27 C32.89,0.11 28.93,0 25.07,1.51 C21.21,3.01 20.11,5.86 20.01,6.8 L19.78,8.43 C20.41,9 20.83,10 20.83,10.92 C20.83,11.81 20.29,12.72 20.29,13.93 C20.29,15.47 20.89,18.08 23.51,20.29 C26.51,22.81 30.46,24.17 33.88,25.99 C33.93,26.02 34,26.05 34.07,26.11 C37.61,29.12 35.13,32.79 35.13,32.79 L15.43,24.29 C9.04,21.03 3.99,22.69 0.72,27.6 C0.48,27.96 0.41,28.07 0.15,28.51 C0,28.77 0.04,29.13 0.23,29.28 C0.47,29.48 0.84,29.33 0.98,29.16 C3.37,26.11 8.34,25.7 11.03,27.58 C11.17,27.68 11.31,27.79 11.45,27.89 C11.92,29.67 11.56,29.22 12.54,32.96 C13.13,35.2 15.1,36.86 15.1,36.86 C15.1,36.86 30.48,51.51 32.04,52.96 C34.3,55.06 39.15,56.04 43.21,54.55 C44.83,53.96 48.43,52.2 51.92,51 C52.84,50.68 53.32,50.88 53.91,51.51 C54.79,52.48 55.43,53.12 57.37,55.12 C57.82,55.59 57.93,56.29 57.37,56.9 L47.77,67.91 L47.71,67.97 C44.67,71.2 44.85,74.39 45.76,77.48 C46.12,78.72 47.03,80.23 47.95,81.04 C48.18,81.25 48.38,81.19 48.56,81.1 C48.76,80.94 48.72,80.59 48.66,80.41 C47.32,76.4 48.27,73.14 51.65,71.51 C53.23,72.42 55.38,73.67 56.06,74.07 C57.83,75.11 60.35,74.61 61.41,74.33 C64.64,73.47 78.99,69.68 78.99,69.68 C90.07,66.49 91.87,59.69 94.73,56.21 C94.77,56.16 94.8,56.12 94.83,56.07 C96.36,56.37 97.15,56.44 98.11,55.64 C99.84,54.2 98.81,51.7 98.19,50.03 Z M31.94,13.34 C33.9,14.5 36.86,14.3 36.86,14.3 C36.86,14.3 36.13,16.43 33.49,17.7 C32.13,18.36 30.44,18.84 27.77,18.77 C26.01,18.72 24.45,17.77 23.69,16.61 C22.76,15.2 22.61,13.51 22.61,13.51 C22.61,13.51 23.49,13.41 24.61,12.88 C25.74,12.35 26.08,10.18 26.03,9.14 C25.05,9.04 23.68,9.05 22.26,9.27 C22.26,9.27 22.41,7.02 24.31,6.52 C25.97,6.09 25.96,7.02 27.85,7.01 C27.96,7.01 28.16,7.01 28.28,7.01 C28.7,7.01 29.23,6.87 29.53,6.77 C30.8,6.35 31.39,6.05 32.95,6.11 C34.85,6.19 37.06,6.54 37.85,9.28 C35.58,8.94 33.47,8.79 30.32,9.08 C30.31,10.39 29.99,12.19 31.94,13.34 Z" fill="none" stroke="currentColor" stroke-width="1.5"/><path d="M25.65,13.52 C25.39,13.62 25.22,14.01 25.24,14.28 C25.34,15.43 25.69,16.55 26.95,16.67 C28.37,16.81 28.92,15.6 28.85,14.27 C28.84,14.2 28.82,13.9 28.68,13.8 C27.32,12.74 26.12,13.34 25.65,13.52 Z" fill="none" stroke="currentColor" stroke-width="1.5"/></svg>