<svg xmlns="http://www.w3.org/2000/svg" viewBox="0 0 100.18 93.44" width="24" height="24"><path d="M37.33,12.51 C40.68,12.2 43.11,9.19 42.8,5.85 C42.46,2.48 39.5,0 36.15,0.34 C32.8,0.66 30.37,3.67 30.68,7.04 C31.02,10.37 33.98,12.85 37.33,12.51 Z M49.42,31.39 L33.82,13.94 C33.6,13.7 33.19,13.31 32.9,13.14 C30.85,11.44 27.87,11.1 25.46,12.58 L11.05,21.46 C9.15,22.63 8.04,24.64 7.94,26.73 C7.89,27.14 7.92,27.56 8.01,27.97 C8.01,27.99 8.03,28.02 8.03,28.04 C8.09,28.31 8.11,28.57 8.23,28.82 L8.23,28.84 C8.37,29.37 8.59,29.91 8.88,30.39 C8.95,30.49 9.02,30.56 9.1,30.66 L12.59,38.11 L5.05,47.66 C3.75,49.31 4.01,51.71 5.68,53.05 C7.32,54.36 9.7,54.09 11,52.42 L20.01,41.03 C20.13,40.86 20.18,40.69 20.28,40.52 C20.42,40.28 20.57,40.06 20.64,39.79 C20.71,39.55 20.74,39.3 20.76,39.06 C20.78,38.82 20.83,38.57 20.81,38.33 C20.79,38.06 20.69,37.8 20.62,37.53 L20.62,37.51 C22.67,39.04 24.6,40.49 25.53,41.2 C25.48,44.25 25.27,55.8 25.27,55.82 C25.27,57.91 26.91,59.6 29,59.65 C31.1,59.67 32.83,58 32.88,55.89 L33.17,39.35 C33.19,38.11 32.64,36.95 31.63,36.2 L22.72,29.53 L33.7,22.71 L45.02,35.4 C46.1,36.64 47.98,36.73 49.21,35.62 C50.44,34.49 50.53,32.6 49.42,31.39 Z M0.02,93.44 C2.19,93.44 4.26,92.98 6.14,92.15 C8.04,91.28 10.19,90.77 12.41,90.77 C14.66,90.77 16.8,91.28 18.7,92.15 C20.55,92.98 22.65,93.44 24.79,93.44 C26.96,93.44 29.03,92.98 30.88,92.15 C32.78,91.28 34.93,90.77 37.17,90.77 C39.41,90.77 41.56,91.28 43.46,92.15 C45.31,92.98 47.41,93.44 49.58,93.44 C51.75,93.44 53.82,92.98 55.67,92.15 C57.57,91.28 59.71,90.77 61.96,90.77 C64.21,90.77 66.35,91.28 68.25,92.15 C70.1,92.98 72.2,93.44 74.37,93.44 C76.52,93.44 78.61,92.98 80.46,92.15 C82.36,91.28 84.51,90.77 86.75,90.77 C88.99,90.77 91.14,91.28 93.04,92.15 C94.89,92.98 96.99,93.44 99.16,93.44 L99.16,84.44 C96.99,84.44 94.89,83.98 93.04,83.15 C91.14,82.29 89,81.78 86.75,81.78 C84.5,81.78 82.36,82.29 80.46,83.15 C78.61,83.98 76.51,84.44 74.37,84.44 C72.2,84.44 70.1,83.98 68.25,83.15 C66.35,82.29 64.2,81.78 61.96,81.78 C59.72,81.78 57.57,82.29 55.67,83.15 C53.82,83.98 51.75,84.44 49.58,84.44 C47.41,84.44 45.31,83.98 43.46,83.15 C41.56,82.29 39.41,81.78 37.17,81.78 C34.93,81.78 32.78,82.29 30.88,83.15 C29.03,83.98 26.96,84.44 24.79,84.44 C22.64,84.44 20.55,83.98 18.7,83.15 C16.8,82.29 14.65,81.78 12.41,81.78 C10.19,81.78 8.04,82.29 6.14,83.15 C4.27,83.98 2.19,84.44 0.02,84.44 L0.02,93.44 Z M0.36,76.98 C1.95,76.98 3.52,76.62 4.99,75.96 C7.33,74.87 9.9,74.29 12.46,74.29 C15.04,74.29 17.57,74.85 19.9,75.94 C21.37,76.62 22.98,76.98 24.55,76.98 C26.14,76.98 27.71,76.62 29.17,75.96 C31.51,74.87 34.08,74.29 36.64,74.29 C39.2,74.29 41.77,74.87 44.08,75.94 C45.55,76.62 47.16,76.98 48.75,76.98 C50.34,76.98 51.91,76.62 53.37,75.96 C54.89,75.26 56.53,74.77 58.16,74.53 L50.02,68.61 L38.27,68.29 L30.01,62.54 L14.47,56.47 L0,54.55 L0.1,76.97 L0.36,76.97 Z M74.6,49.09 C74.6,48.31 73.97,47.71 73.23,47.71 C72.46,47.71 71.86,48.32 71.86,49.09 C71.86,49.84 72.46,50.47 73.23,50.47 C73.97,50.47 74.6,49.84 74.6,49.09 Z M95.22,62.15 L73.8,51.88 C75.13,51.61 76.14,50.5 76.14,49.09 C76.14,47.46 74.84,46.15 73.23,46.15 C71.62,46.15 70.31,47.46 70.31,49.09 C70.31,49.55 70.45,49.99 70.65,50.38 L49.01,40.03 C45.52,38.36 41.42,39.79 39.66,43.2 L98.65,71.45 C100.18,67.92 98.69,63.8 95.22,62.15 Z M71.85,49.09 C71.85,48.31 72.45,47.71 73.22,47.71 C73.97,47.71 74.59,48.32 74.59,49.09 C74.59,49.84 73.96,50.47 73.22,50.47 C72.45,50.47 71.85,49.84 71.85,49.09 Z M38.97,45.31 C38.46,48.39 39.96,51.55 42.9,52.96 L89.1,75.09 C92.04,76.5 95.44,75.67 97.46,73.34 L38.97,45.31 Z" fill="none" stroke="currentColor" stroke-width="1.5"/></svg>