<svg xmlns="http://www.w3.org/2000/svg" viewBox="0 0 84.86 99.11" width="24" height="24"><path d="M62.24,15.97 C66.68,15.97 70.27,12.39 70.27,7.98 C70.27,3.58 66.68,0 62.24,0 C57.8,0 54.18,3.58 54.18,7.99 C54.18,12.39 57.79,15.97 62.24,15.97 Z M83.84,46.44 C82.44,49.64 79.44,48.68 79.44,48.68 L66.84,43.97 C65.58,43.52 64.61,42.49 64.27,41.21 L61.42,32.96 L56.98,45.09 L70.15,58.68 C71.79,61.53 71.65,63.63 71.65,63.63 L71.65,82.39 L71.65,82.39 C76.31,82.39 80.09,86.14 80.09,90.75 C80.09,95.37 76.31,99.11 71.65,99.11 C70.98,99.11 70.32,99.04 69.68,98.88 L41.99,92.78 L41.99,88.73 L62.76,84.16 L62.76,67.08 L48.79,53.25 L46.65,67.74 C46.29,69.58 44.96,71.3 44.2,72.15 L34.5,83.29 C34.36,83.17 34.17,83.17 33.98,83.2 L34.5,83.29 C37.02,85.25 38.33,88.52 37.54,91.8 C36.47,96.3 31.91,99.08 27.39,98.02 C26.72,97.85 26.11,97.64 25.51,97.36 L0,85.06 L0.95,81.12 L24.35,81.45 L35.47,68.7 L38.92,43.63 L46.15,24.66 L36.14,30.36 L30.17,41.95 C28.36,45.63 25.11,43.69 25.11,43.69 C22.16,42.02 23.3,39.19 23.3,39.19 L29.41,26.94 C31.05,23.83 32.36,23.36 32.36,23.36 L46.65,15.61 C49.76,13.49 53.37,15.14 53.37,15.14 L61.59,18.23 C65.7,19.69 65.87,21.98 65.87,21.98 L70.96,38.12 L81.92,41.96 C81.92,41.96 84.86,43.21 83.84,46.44 Z M71.01,95.33 C71.22,95.35 71.44,95.38 71.65,95.38 C74.22,95.38 76.31,93.31 76.31,90.76 C76.31,88.22 74.22,86.14 71.65,86.14 L71.65,87.11 C71.65,89.54 69.65,91.52 67.21,91.52 C65.05,91.52 63.34,89.96 62.93,87.94 L50,90.77 L71.01,95.33 Z M27.66,94.18 C27.85,94.27 28.04,94.32 28.25,94.37 C30.77,94.96 33.26,93.43 33.86,90.95 C34.31,89.07 33.53,87.18 32.03,86.12 L30.13,88.31 C28.51,90.15 25.71,90.36 23.86,88.76 C22.77,87.82 22.34,86.47 22.41,85.15 L8.25,84.92 L27.66,94.18 Z" fill="none" stroke="currentColor" stroke-width="1.5"/></svg>