<svg xmlns="http://www.w3.org/2000/svg" viewBox="0 0 99.05 98.76" width="24" height="24"><path d="M88.72,55.1 L88.72,35.38 C88.72,32.58 91.04,30.31 93.9,30.31 C96.75,30.31 99.05,32.59 99.05,35.38 L99.05,62.39 C99.05,66.12 97.69,69.73 95.24,72.55 L78.15,90.42 C76.45,91.99 76.04,93.39 76.04,95.5 L76.04,98.76 L57.43,98.76 L57.41,91.01 C57.41,88.06 57.17,84.12 60.91,80.25 L82.6,58.8 C83.37,58.07 84.39,57.67 85.46,57.67 C87.73,57.67 89.58,59.48 89.58,61.72 C89.58,62.68 89.23,63.62 88.6,64.36 L78.14,75.38 C77.46,76.16 76.32,77.64 75.74,79.45 C75.43,80.39 75.34,81.31 75.33,82.35 L78.7,82.35 C78.71,81.6 78.77,81 78.95,80.44 C79.28,79.4 79.94,78.46 80.43,77.86 L91.05,66.38 C92.39,65.05 93.12,63.34 93.12,61.53 C93.11,58.82 91.46,56.33 88.72,55.1 Z" fill="none" stroke="currentColor" stroke-width="1.5"/><path d="M10.33,55.1 L10.33,35.38 C10.33,32.58 8.01,30.31 5.15,30.31 C2.3,30.31 0,32.59 0,35.38 L0,62.39 C0,66.12 1.36,69.73 3.81,72.55 L20.91,90.43 C22.61,92 23.02,93.4 23.02,95.51 L23.02,98.76 L41.63,98.76 L41.65,91.01 C41.65,88.06 41.89,84.12 38.15,80.25 L16.45,58.8 C15.68,58.07 14.66,57.67 13.59,57.67 C11.32,57.67 9.47,59.48 9.47,61.72 C9.47,62.68 9.82,63.62 10.45,64.36 L20.91,75.4 C21.59,76.18 22.74,77.66 23.31,79.47 C23.62,80.41 23.7,81.33 23.72,82.37 L20.35,82.37 C20.34,81.62 20.28,81.02 20.1,80.46 C19.77,79.42 19.11,78.48 18.62,77.88 L8.01,66.38 C6.67,65.05 5.94,63.34 5.94,61.53 C5.94,58.82 7.59,56.33 10.33,55.1 Z" fill="none" stroke="currentColor" stroke-width="1.5"/><path d="M51.48,8.74 C53.92,8.74 55.9,6.79 55.9,4.39 C55.9,1.99 53.92,0.04 51.48,0.04 C49.04,0.04 47.07,1.99 47.07,4.39 C47.07,6.79 49.05,8.74 51.48,8.74 Z" fill="none" stroke="currentColor" stroke-width="1.5"/><path d="M27.52,8.76 C25.04,8.76 23.04,6.8 23.04,4.38 C23.04,1.96 25.05,0 27.52,0 C29.99,0 32.01,1.96 32.01,4.38 C32.01,6.81 30,8.76 27.52,8.76 Z" fill="none" stroke="currentColor" stroke-width="1.5"/><ellipse cx="73.42999999999999" cy="22.51" rx="3.1" ry="3.1" fill="none" stroke="currentColor"/><path d="M77.91,27.06 C76.82,27.06 70.61,27.06 69.55,27.06 C69.51,27.06 66.75,26.81 66.75,26.81 L63.26,14.8 C61.85,9.96 57.73,10.11 57.73,10.11 L51.96,10.11 L46.4,10.11 C46.4,10.11 42.28,9.96 40.88,14.8 L39.15,20.72 L37.43,14.8 C36.01,9.96 31.91,10.11 31.91,10.11 L27.52,10.11 L23.14,10.11 C23.14,10.11 19.02,9.96 17.61,14.8 L14.08,26.91 C13.75,28.04 14.37,28.9 15.38,29.19 C16.38,29.47 17.41,28.97 17.67,28.07 L21.11,16.27 L22.78,16.27 L17.76,36.71 L22.19,36.71 L22.19,36.72 L22.19,51.22 C22.19,52.41 23.17,53.39 24.39,53.39 C25.6,53.39 26.6,52.42 26.6,51.22 L26.6,36.7 L28.46,36.7 L28.46,51.22 C28.46,52.41 29.44,53.39 30.65,53.39 C31.87,53.39 32.86,52.42 32.86,51.22 L32.86,36.71 L32.86,36.7 L37.22,36.7 L32.25,16.26 L33.92,16.26 L37.32,27.94 C37.38,28.14 37.47,28.32 37.59,28.48 C37.92,28.98 38.5,29.25 39.15,29.23 C39.8,29.25 40.37,28.98 40.71,28.49 C40.85,28.31 40.94,28.11 41,27.89 L44.38,16.26 L45.92,16.26 C45.92,16.26 45.92,48.71 45.92,50.79 C45.92,52.2 47.09,53.34 48.52,53.34 C49.95,53.34 51.11,52.2 51.11,50.79 C51.11,48.71 51.11,31.14 51.11,31.14 L53.03,31.14 C53.03,31.14 53.03,48.71 53.03,50.79 C53.03,52.2 54.19,53.34 55.62,53.34 C57.05,53.34 58.23,52.2 58.23,50.79 C58.23,48.71 58.23,16.26 58.23,16.26 L59.91,16.26 L63.2,28.06 C63.38,28.64 63.87,29.02 64.46,29.17 C64.48,29.18 64.5,29.19 64.52,29.19 C65.04,29.31 67.46,29.98 69.24,30.48 C69.24,33.67 69.24,50.57 69.24,51.9 C69.24,52.89 70.06,53.69 71.06,53.69 C72.06,53.69 72.88,52.89 72.88,51.9 C72.88,50.43 72.88,41.2 72.88,41.2 L74.31,41.2 C74.31,41.2 74.31,50.43 74.31,51.9 C74.31,52.89 75.12,53.69 76.13,53.69 C77.14,53.69 77.96,52.89 77.96,51.9 C77.96,50.43 77.96,31.89 77.96,31.89 L79.36,31.89 C79.36,31.89 79.36,37.81 79.36,38.67 C79.36,39.41 79.97,40.01 80.72,40.01 C81.47,40.01 82.06,39.41 82.06,38.67 C82.06,37.94 82.06,32.06 82.06,30.96 C82.04,28.82 80.11,27.06 77.91,27.06 Z" fill="none" stroke="currentColor" stroke-width="1.5"/></svg>