<svg xmlns="http://www.w3.org/2000/svg" viewBox="0 0 98.46 98.88" width="24" height="24"><path d="M9.89,40.88 L0,44.44 L0,35.39 L98.46,0 L98.46,9.02 L19.05,37.57 L19.08,90.2 L98.46,90.2 L98.46,98.88 L9.89,98.88 Z" fill="none" stroke="currentColor" stroke-width="1.5"/><path d="M91.02,43.44 L86.15,42.58 L83.3,47.88 C83.77,47.98 84.24,48.02 84.73,48.02 C87.78,48.02 90.32,46.09 91.02,43.44 M68.27,46.01 L86.93,27.79 L86.36,32.53 L95.55,38.32 C97.08,39.11 97.62,40.97 96.75,42.41 C96.1,43.55 94.72,44.11 93.44,43.87 L92.7,43.73 C91.81,47.1 88.58,49.59 84.74,49.59 C83.98,49.59 83.26,49.5 82.57,49.31 L75.61,62.75 L75.58,81.16 C75.58,82.76 74.21,84.04 72.55,84.04 C70.87,84.04 69.51,82.76 69.51,81.16 L69.51,62.32 L54.15,62.32 L51.41,66.76 L57.13,79.71 C57.95,81.08 57.47,82.83 56,83.62 C54.56,84.39 52.7,83.92 51.88,82.55 L45.16,67.6 L45.16,62.87 L42.14,67.34 L42.14,81.16 C42.14,82.76 40.78,84.04 39.08,84.04 C37.4,84.04 36.05,82.76 36.05,81.16 L36.05,65.18 L38.56,61.48 L38.56,48.9 L36.05,52.5 L36.05,62.96 L31.27,62.96 L31.27,52.38 C31.27,48.87 34.28,46 38.02,46 L68.27,46 Z" fill="none" stroke="currentColor" stroke-width="1.5"/></svg>