<svg xmlns="http://www.w3.org/2000/svg" viewBox="0 0 100.54 85.51" width="24" height="24"><path d="M31.49,41.3 L21.73,49.13 L9.25,58.8 C5.69,61.63 2.77,58.22 2.77,58.22 C0,54.55 3.18,52.14 3.18,52.14 L18.74,39.84 C18.74,39.84 20.44,38.05 24.91,39.34 L31.49,41.3" fill="none" stroke="currentColor" stroke-width="1.5"/><path d="M49.72,25.58 C44.83,25.58 40.9,21.6 40.9,16.66 C40.9,11.72 44.84,7.7 49.72,7.7 C54.6,7.7 58.57,11.72 58.57,16.66 C58.57,21.6 54.61,25.58 49.72,25.58" fill="none" stroke="currentColor" stroke-width="1.5"/><path d="M27.85,74.51 C27.85,71.87 25.73,69.73 23.12,69.73 C20.51,69.73 18.39,71.87 18.39,74.51 C18.39,77.15 20.5,79.29 23.12,79.29 C25.73,79.29 27.85,77.15 27.85,74.51 M71.63,74.51 C71.63,71.87 69.51,69.73 66.9,69.73 C64.3,69.73 62.18,71.87 62.18,74.51 C62.18,77.15 64.3,79.29 66.9,79.29 C69.51,79.29 71.63,77.15 71.63,74.51 M17.35,65.11 C16.74,63.41 16.49,61.57 16.9,59.7 C17.4,57.61 18.53,55.84 20.03,54.55 L85.44,1.9 C87.04,0.72 88.99,0 91.12,0 C96.33,0 100.54,4.25 100.54,9.54 C100.54,12.61 99.16,15.34 96.96,17.1 C96.18,17.79 95.04,17.7 94.38,16.9 C93.69,16.11 93.79,14.9 94.59,14.23 C96,13.19 96.89,11.46 96.89,9.54 C96.89,6.32 94.3,3.7 91.13,3.7 C89.78,3.7 88.59,4.15 87.62,4.89 L68.6,20.2 L58.66,49.3 L64.69,63.79 C65.4,63.63 66.15,63.49 66.9,63.49 C72.93,63.49 77.8,68.43 77.8,74.5 C77.8,80.61 72.93,85.51 66.9,85.51 C60.9,85.51 56.02,80.61 56.02,74.5 C56.02,70.57 58.05,67.1 61.14,65.18 L56.8,54.69 L56.44,55.81 C55.11,59.93 50.72,62.18 46.65,60.81 L26.46,54.07 L22.52,57.25 C21.58,58.02 20.88,59.13 20.56,60.42 C20.29,61.61 20.48,62.75 20.88,63.77 C21.59,63.64 22.36,63.47 23.13,63.47 C29.13,63.47 34.01,68.41 34.01,74.48 C34.01,80.59 29.14,85.49 23.13,85.49 C17.12,85.49 12.23,80.59 12.23,74.48 C12.22,70.53 14.21,67.04 17.35,65.11" fill="none" stroke="currentColor" stroke-width="1.5"/></svg>