<svg xmlns="http://www.w3.org/2000/svg" viewBox="0 0 98.94 98.87" width="24" height="24"><path d="M72.22,66.06 C75.9,61.03 77.68,55.2 77.68,49.42 C77.68,40.75 73.69,32.19 66.16,26.67 C61.13,22.99 55.3,21.21 49.51,21.21 C40.84,21.21 32.28,25.2 26.76,32.73 C23.07,37.74 21.3,43.59 21.3,49.37 C21.3,58.04 25.29,66.6 32.83,72.12 C37.84,75.79 43.69,77.58 49.47,77.58 C58.13,77.58 66.7,73.59 72.22,66.06 Z" fill="none" stroke="currentColor" stroke-width="1.5"/><path d="M22.71,31.81 L23.51,30.7 C23.68,30.47 23.87,30.25 24.05,30.02 L24.08,30.08 L25.01,28.98 C26.23,27.53 27.62,26.13 29.06,24.92 L30.17,23.99 L30.12,23.96 C30.32,23.81 30.51,23.64 30.72,23.49 L31.82,22.69 L14.53,14.43 L15.5,16.48 L22.71,31.81 Z" fill="none" stroke="currentColor" stroke-width="1.5"/><path d="M17.85,54.43 C17.81,54.17 17.79,53.89 17.75,53.63 L17.83,53.65 L17.7,52.22 C17.62,51.29 17.57,50.36 17.57,49.43 C17.57,48.44 17.62,47.47 17.7,46.51 L17.83,45.07 L17.75,45.1 C17.78,44.83 17.8,44.56 17.84,44.3 L18.06,42.96 L16.78,43.41 L0,49.36 L18.06,55.77 L17.85,54.43 Z" fill="none" stroke="currentColor" stroke-width="1.5"/><path d="M45.2,17.73 L45.17,17.81 L46.6,17.68 C47.55,17.6 48.5,17.55 49.46,17.55 C50.42,17.55 51.37,17.6 52.32,17.68 L53.75,17.81 L53.72,17.73 C53.99,17.77 54.26,17.78 54.53,17.83 L55.87,18.05 L49.47,0 L48.71,2.14 L43.05,18.05 L44.39,17.83 C44.66,17.78 44.93,17.77 45.2,17.73 Z" fill="none" stroke="currentColor" stroke-width="1.5"/><path d="M68.83,23.99 L68.82,23.99 L69.08,24.21 C69.62,24.63 70.11,25.11 70.62,25.56 C71.56,26.39 72.44,27.28 73.28,28.21 C73.72,28.7 74.16,29.17 74.57,29.68 L74.91,30.09 L74.92,30.08 C75.08,30.29 75.26,30.49 75.41,30.7 L76.2,31.81 L84.47,14.44 L82.41,15.42 L67.1,22.71 L68.2,23.5 C68.42,23.65 68.62,23.82 68.83,23.99 Z" fill="none" stroke="currentColor" stroke-width="1.5"/><path d="M80.87,55.84 L98.94,49.43 L80.87,43.03 L81.09,44.37 C81.13,44.63 81.15,44.91 81.19,45.17 L81.11,45.14 L81.24,46.58 C81.32,47.53 81.37,48.48 81.37,49.44 C81.37,50.4 81.32,51.35 81.24,52.29 L81.11,53.73 L81.19,53.7 C81.15,53.97 81.13,54.24 81.09,54.5 L80.87,55.84 Z" fill="none" stroke="currentColor" stroke-width="1.5"/><path d="M53.73,81.13 L53.76,81.05 L52.32,81.18 C51.37,81.26 50.42,81.31 49.46,81.31 C48.5,81.31 47.55,81.26 46.6,81.18 L45.16,81.05 L45.19,81.13 C44.92,81.09 44.65,81.07 44.39,81.03 L43.05,80.82 L43.5,82.1 L49.46,98.87 L55.88,80.82 L54.54,81.03 C54.27,81.08 54,81.09 53.73,81.13 Z" fill="none" stroke="currentColor" stroke-width="1.5"/><path d="M75.41,68.16 C75.26,68.37 75.09,68.56 74.94,68.76 L74.92,68.71 L73.99,69.82 C72.99,71.02 71.86,72.17 70.7,73.22 C70.1,73.75 69.53,74.31 68.9,74.8 C68.69,74.96 68.49,75.14 68.27,75.29 L67.18,76.08 L84.49,84.35 L76.21,67.05 L75.41,68.16 Z" fill="none" stroke="currentColor" stroke-width="1.5"/><path d="M30.04,74.83 L30.1,74.8 L29,73.88 C27.57,72.68 26.21,71.32 25.01,69.89 L24.08,68.79 L24.05,68.85 C23.87,68.62 23.68,68.4 23.51,68.16 L22.71,67.06 L22.13,68.29 L14.53,84.34 L31.82,76.17 L30.71,75.37 C30.49,75.2 30.27,75 30.04,74.83 Z" fill="none" stroke="currentColor" stroke-width="1.5"/></svg>