<svg xmlns="http://www.w3.org/2000/svg" viewBox="0 0 98.76 98.54" width="24" height="24"><path d="M22.16,49.22 C22.16,34.14 34.37,21.91 49.43,21.91 C64.48,21.91 76.68,34.14 76.68,49.22 C76.68,64.3 64.48,76.51 49.43,76.51 C34.37,76.51 22.16,64.29 22.16,49.22" fill="none" stroke="currentColor" stroke-width="1.5"/><path d="M47.21,0 L51.63,0 L51.63,16.81 L47.21,16.81 L47.21,0 Z" fill="none" stroke="currentColor" stroke-width="1.5"/><path d="M46.95,81.73 L51.37,81.73 L51.37,98.54 L46.95,98.54 L46.95,81.73 Z" fill="none" stroke="currentColor" stroke-width="1.5"/><path d="M81.97,46.02 L98.76,46.02 L98.76,50.43 L81.97,50.43 L81.97,46.02 Z" fill="none" stroke="currentColor" stroke-width="1.5"/><path d="M0,45.75 L16.79,45.75 L16.79,50.17 L0,50.17 L0,45.75 Z" fill="none" stroke="currentColor" stroke-width="1.5"/><path d="M6.4,25.11 L8.54,21.25 L23.21,29.39 L21.07,33.26 L6.4,25.11 Z" fill="none" stroke="currentColor" stroke-width="1.5"/><path d="M24.01,7.14 L27.75,4.79 L36.66,19.05 L32.92,21.39 L24.01,7.14 Z" fill="none" stroke="currentColor" stroke-width="1.5"/><path d="M63.92,78.03 L67.73,75.84 L76.12,90.39 L72.31,92.59 L63.92,78.03 Z" fill="none" stroke="currentColor" stroke-width="1.5"/><path d="M76.76,66.27 L78.9,62.41 L93.59,70.55 L91.44,74.42 L76.76,66.27 Z" fill="none" stroke="currentColor" stroke-width="1.5"/><path d="M26.77,92.79 L22.91,90.64 L31.04,75.93 L34.91,78.06 L26.77,92.79 Z" fill="none" stroke="currentColor" stroke-width="1.5"/><path d="M7.26,74.12 L4.93,70.37 L19.16,61.45 L21.49,65.19 L7.26,74.12 Z" fill="none" stroke="currentColor" stroke-width="1.5"/><path d="M78.34,34.67 L76.13,30.83 L90.67,22.43 L92.88,26.27 L78.34,34.67 Z" fill="none" stroke="currentColor" stroke-width="1.5"/><path d="M67.11,22.07 L63.24,19.91 L71.38,5.22 L75.24,7.37 L67.11,22.07 Z" fill="none" stroke="currentColor" stroke-width="1.5"/></svg>