<svg xmlns="http://www.w3.org/2000/svg" viewBox="0 0 99.0 45.09" width="24" height="24"><path d="M67.18,37.59 C65.47,40.04 62.74,41.64 59.67,41.64 C56.32,41.64 53.38,39.76 51.72,36.92 L51.81,36.89 C50.14,39.69 47.22,41.55 43.9,41.55 C40.54,41.55 37.59,39.65 35.93,36.78 L35.96,36.76 C34.3,39.64 31.34,41.55 27.96,41.55 C24.77,41.55 21.95,39.85 20.25,37.21 L20.27,37.09 C18.6,39.88 15.68,41.74 12.36,41.74 C8.11,41.74 4.51,38.71 3.36,34.53 L37.23,20.21 L31.23,12.36 L0,19.68 L1.55,13.82 L34.52,0 L67.18,37.59 Z M70.29,8.55 C64.36,8.55 59.54,13.41 59.54,19.39 C59.54,25.4 64.35,30.27 70.29,30.27 C76.24,30.27 81.05,25.4 81.05,19.39 C81.05,13.41 76.24,8.55 70.29,8.55 Z M99,36.47 C99,36.47 93,39.77 84.78,32.44 C84.78,32.44 82.14,40.86 70.7,37.39 C70.7,37.39 76.45,45.09 84.78,38.91 C84.78,38.92 95.12,43.21 99,36.47 Z" fill="none" stroke="currentColor" stroke-width="1.5"/></svg>