<svg xmlns="http://www.w3.org/2000/svg" viewBox="0 0 98.87 72.17" width="24" height="24"><path d="M98.87,72.17 C96.71,72.17 94.64,71.67 92.79,70.81 C90.9,69.93 88.76,69.4 86.52,69.4 C84.27,69.4 82.13,69.93 80.24,70.81 C78.39,71.67 76.32,72.17 74.16,72.17 C72,72.17 69.92,71.67 68.08,70.81 C66.16,69.93 64.02,69.4 61.8,69.4 C59.56,69.4 57.42,69.93 55.52,70.81 C53.68,71.67 51.58,72.17 49.44,72.17 C47.27,72.17 45.21,71.67 43.34,70.81 C41.44,69.93 39.31,69.4 37.09,69.4 C34.85,69.4 32.71,69.93 30.81,70.81 C28.97,71.67 26.87,72.17 24.7,72.17 C22.57,72.17 20.47,71.67 18.63,70.81 C16.73,69.93 14.59,69.4 12.35,69.4 C10.13,69.4 7.99,69.93 6.1,70.81 C4.23,71.67 2.16,72.17 0,72.17 L0,62.84 C2.17,62.84 4.23,62.33 6.1,61.5 C8,60.6 10.13,60.07 12.35,60.07 C14.59,60.07 16.73,60.6 18.63,61.5 C20.47,62.33 22.57,62.84 24.7,62.84 C26.87,62.84 28.96,62.33 30.81,61.5 C32.71,60.6 34.85,60.07 37.09,60.07 C39.31,60.07 41.44,60.6 43.34,61.5 C45.21,62.33 47.27,62.84 49.44,62.84 C51.58,62.84 53.68,62.33 55.52,61.5 C57.42,60.6 59.56,60.07 61.8,60.07 C64.01,60.07 66.15,60.6 68.08,61.5 C69.92,62.33 72,62.84 74.16,62.84 C76.33,62.84 78.39,62.33 80.24,61.5 C82.13,60.6 84.27,60.07 86.52,60.07 C88.76,60.07 90.9,60.6 92.79,61.5 C94.64,62.33 96.71,62.84 98.87,62.84 L98.87,72.17 Z M84.54,45.77 C91.03,45.77 96.3,40.36 96.3,33.72 C96.3,27.07 91.03,21.69 84.54,21.69 C78.03,21.69 72.77,27.08 72.77,33.72 C72.78,40.36 77.57,45.77 84.54,45.77 Z M16.04,52.55 C16.95,52.77 17.81,53.1 18.63,53.48 C20.47,54.33 22.57,54.84 24.7,54.84 C26.86,54.84 28.96,54.33 30.8,53.48 C32.7,52.6 34.84,52.04 37.08,52.04 C39.3,52.04 41.44,52.6 43.33,53.48 C45.2,54.33 47.26,54.84 49.43,54.84 C51.57,54.84 53.67,54.33 55.51,53.48 C57.41,52.6 59.55,52.04 61.79,52.04 C64,52.04 66.15,52.6 68.07,53.48 C69.91,54.33 71.99,54.84 74.15,54.84 C75.72,54.84 77.25,54.57 78.68,54.11 L59.06,17.9 L81.88,13.64 C85.23,12.99 87.66,10.29 87.66,6.85 C87.66,3.05 84.64,0 80.94,0 C80.67,0 80.43,0 80.17,0.02 L44.93,6.58 C42.46,7.16 39.18,10.86 41.05,15.41 C41.15,15.66 41.25,15.89 41.35,16.14 L50.55,33.13 L16.04,52.55 Z" fill="none" stroke="currentColor" stroke-width="1.5"/></svg>