<svg xmlns="http://www.w3.org/2000/svg" viewBox="0 0 100.54 50.74" width="24" height="24"><path d="M71.26,17.74 L49.64,17.74 L43,14.14 L43,3.97 L85.53,0 L85.53,13.27 L71.26,16.08 L71.26,17.74 L71.26,17.74 Z M2.27,31.77 L99.73,31.94 L99.71,13.63 L71.76,19.83 L31.09,19.83 L2.27,27.61 C0.57,28.31 0,31.77 2.27,31.77 Z M30,40.03 C30,43.53 27.2,46.37 23.74,46.38 C20.28,46.39 17.46,43.56 17.45,40.07 C17.43,36.57 20.22,33.72 23.68,33.69 C27.14,33.66 29.97,36.47 30.01,39.97 Z M44.13,40.03 C44.13,43.53 41.33,46.37 37.87,46.38 C34.41,46.39 31.59,43.56 31.58,40.07 C31.56,36.57 34.35,33.72 37.81,33.69 C41.27,33.66 44.1,36.47 44.14,39.97 Z M58.01,40.03 C58.01,43.53 55.21,46.37 51.75,46.38 C48.29,46.39 45.47,43.56 45.46,40.07 C45.44,36.57 48.23,33.72 51.69,33.69 C55.15,33.66 57.98,36.47 58.02,39.97 Z M72.23,40.03 C72.23,43.53 69.43,46.37 65.97,46.38 C62.51,46.39 59.69,43.56 59.68,40.07 C59.66,36.57 62.45,33.72 65.91,33.69 C69.37,33.66 72.2,36.47 72.24,39.97 Z M7.93,33.77 L5.01,33.91 C3.38,38.01 4.74,41.76 9.22,44.53 C14.27,47.66 20.34,50.67 22.1,50.72 L81.82,50.74 C83.58,50.69 89.65,47.68 94.7,44.55 C99.18,41.77 100.54,38.01 98.91,33.92 L95.98,33.79 C96.86,37.62 97.62,40.21 92.13,42.84 C87.64,44.99 82.89,47.55 82.15,47.7 L21.76,47.69 C21.02,47.54 16.28,44.97 11.79,42.82 C6.3,40.19 7.05,37.61 7.93,33.77 Z M0.8,5.92 L0.8,10.12 L41.58,11.52 L41.58,5.85 L0.8,5.92 Z M86.33,40.36 C86.33,43.86 83.53,46.7 80.07,46.71 C76.61,46.72 73.79,43.9 73.78,40.4 C73.76,36.9 76.55,34.05 80.01,34.02 C83.47,33.99 86.3,36.8 86.34,40.3 Z M95.04,37.41 C95.04,39.41 93.44,41.02 91.47,41.03 C89.5,41.04 87.89,39.43 87.88,37.43 C87.87,35.44 89.46,33.81 91.43,33.8 C93.4,33.78 95.02,35.39 95.04,37.38 Z M15.97,37.41 C15.97,39.41 14.37,41.02 12.4,41.03 C10.43,41.04 8.82,39.43 8.81,37.43 C8.8,35.44 10.39,33.81 12.36,33.8 C14.33,33.78 15.95,35.39 15.97,37.38 Z" fill="none" stroke="currentColor" stroke-width="1.5"/></svg>