<svg xmlns="http://www.w3.org/2000/svg" viewBox="0 0 69.54 99.03" width="24" height="24"><path d="M0.34,64.4 C0,56.06 4.51,49.13 8.97,43.45 L9.58,42.64 C11.04,40.69 12,39.4 16.44,39.7 C19.84,39.94 23.27,42.44 23.27,46.77 C23.27,46.78 23.27,46.79 23.27,46.8 C23.26,49.41 21.53,51.75 19.71,54.21 C17.49,57.21 14.97,60.61 14.97,65.23 C14.97,66.55 15.27,67.58 15.55,68.56 C15.83,69.53 16.09,70.43 16.09,71.6 C16.09,75.58 12.68,78.82 8.49,78.82 C3.47,78.83 0.73,73.97 0.34,64.4 Z" fill="none" stroke="currentColor" stroke-width="1.5"/><path d="M22.48,99.03 C16.92,99.03 12.39,94.57 12.39,89.09 C12.39,83.6 16.91,79.15 22.48,79.15 C28.04,79.15 32.56,83.61 32.56,89.09 C32.55,94.57 28.03,99.03 22.48,99.03 Z" fill="none" stroke="currentColor" stroke-width="1.5"/><path d="M47.26,99.03 C41.7,99.03 37.18,94.57 37.18,89.09 C37.18,83.6 41.7,79.15 47.26,79.15 C52.82,79.15 57.34,83.61 57.34,89.09 C57.34,94.57 52.82,99.03 47.26,99.03 Z" fill="none" stroke="currentColor" stroke-width="1.5"/><path d="M61.05,78.83 C56.86,78.83 53.45,75.59 53.45,71.61 C53.45,70.44 53.71,69.53 53.99,68.57 C54.28,67.59 54.57,66.57 54.57,65.24 C54.57,60.62 52.06,57.22 49.84,54.22 C48.01,51.75 46.29,49.41 46.28,46.81 C46.28,46.8 46.28,46.79 46.28,46.78 C46.28,42.45 49.71,39.94 53.11,39.71 C57.54,39.41 58.51,40.7 59.97,42.65 L60.59,43.46 C65.04,49.14 69.54,56.06 69.22,64.41 C68.83,73.97 66.08,78.83 61.05,78.83 Z" fill="none" stroke="currentColor" stroke-width="1.5"/><path d="M53.26,0.37 C45.49,0 44,5.67 44,5.67 C44,5.67 40.4,3.5 34.78,3.5 C29.15,3.5 25.55,5.67 25.55,5.67 C25.55,5.67 24.06,0 16.29,0.37 C11.76,0.58 8.07,4.32 8.07,8.79 C8.07,12.98 10.86,18.6 15.41,18.74 L16,18.76 C15.86,19.52 15.82,21.64 15.82,22.2 C15.82,32.52 24.33,40.92 34.78,40.92 C45.23,40.92 53.74,32.52 53.74,22.2 C53.74,21.64 53.69,19.52 53.56,18.76 L54.14,18.74 C58.69,18.6 61.48,12.98 61.48,8.79 C61.48,4.32 57.79,0.59 53.26,0.37 Z M24.57,21.16 C24.57,19.79 25.7,18.68 27.09,18.68 C28.48,18.68 29.61,19.79 29.61,21.16 C29.61,22.54 28.48,23.65 27.09,23.65 C25.7,23.64 24.57,22.54 24.57,21.16 Z M43.19,32.21 C43.12,32.36 41.57,35.74 38.27,35.74 C36.84,35.74 35.68,35.41 34.78,34.79 C33.84,35.35 32.66,35.65 31.25,35.65 C27.64,35.65 25.95,32.41 25.88,32.28 C25.5,31.54 25.8,30.63 26.54,30.25 C27.29,29.86 28.21,30.15 28.61,30.89 C28.62,30.91 29.54,32.62 31.25,32.62 C32.45,32.62 33.06,32.33 33.34,32.13 C33.34,31.78 33.34,30.36 33.34,29.75 C32.29,29.51 31.51,28.59 31.51,27.49 C31.51,26.22 32.56,25.18 33.85,25.18 L35.99,25.16 C37.21,25.16 38.24,26.23 38.24,27.49 C38.24,28.58 37.44,29.48 36.41,29.67 C36.41,30.31 36.41,31.92 36.41,32.23 C36.62,32.41 37.13,32.7 38.28,32.7 C39.58,32.7 40.4,30.98 40.4,30.97 C40.57,30.6 40.87,30.31 41.25,30.17 C41.63,30.02 42.05,30.04 42.42,30.21 C42.98,30.47 43.33,31.02 43.33,31.6 C43.33,31.81 43.28,32.01 43.19,32.21 Z M42.5,23.64 C41.12,23.64 39.99,22.53 39.99,21.15 C39.99,19.78 41.12,18.67 42.5,18.67 C43.89,18.67 45.02,19.78 45.02,21.15 C45.02,22.54 43.89,23.64 42.5,23.64 Z" fill="none" stroke="currentColor" stroke-width="1.5"/></svg>