<svg xmlns="http://www.w3.org/2000/svg" viewBox="0 0 71.6 99.0" width="24" height="24"><path d="M20.68,40.46 L26.63,40.46 C28.32,40.46 29.68,39.13 29.68,37.47 L29.68,19.91 C29.68,18.25 28.32,16.91 26.63,16.91 L20.68,16.91 L20.68,40.46 Z M20.68,75.44 L26.63,75.44 C28.32,75.44 29.68,76.78 29.68,78.44 L29.68,96 C29.68,97.65 28.32,98.99 26.63,98.99 L20.68,98.99 L20.68,75.44 Z M13.56,57.96 C13.51,41.91 16.56,40.47 18.3,40.47 C18.49,40.47 18.61,40.47 18.8,40.47 L18.8,16.92 C18.8,16.92 18.35,16.92 18.18,16.92 C15.09,16.92 0,22.44 0,57.96 C0,93.47 15.09,99 18.18,99 C18.35,99 18.8,99 18.8,99 L18.8,75.44 C18.61,75.44 18.49,75.44 18.3,75.44 C16.56,75.44 13.61,73.99 13.56,57.96 Z M34.01,23.66 C35.03,24.87 35.58,26.4 35.58,27.98 C35.58,29.56 35.03,31.09 34.01,32.3 L37.37,35.03 C39.01,33.05 39.92,30.54 39.92,27.97 C39.92,25.4 39.02,22.89 37.37,20.91 L34.01,23.66 Z M44.8,42.92 C48.47,38.95 50.49,33.8 50.49,28.42 C50.49,23.06 48.49,17.91 44.82,13.95 L41.56,16.77 C44.51,19.95 46.15,24.09 46.15,28.42 C46.15,32.77 44.51,36.92 41.51,40.11 L44.8,42.92 Z M52.22,50.8 C57.91,44.85 61.05,37.05 61.05,28.86 C61.05,20.69 57.93,12.92 52.29,6.97 L49.08,9.87 C53.98,15.02 56.7,21.77 56.7,28.86 C56.7,35.98 53.99,42.74 49.04,47.9 L52.22,50.8 Z M59.67,58.69 C67.36,50.75 71.6,40.31 71.6,29.3 C71.6,18.33 67.39,7.93 59.75,0 L56.61,2.97 C63.48,10.09 67.27,19.45 67.27,29.3 C67.27,39.2 63.46,48.58 56.53,55.71 L59.67,58.69 Z" fill="none" stroke="currentColor" stroke-width="1.5"/></svg>