<svg xmlns="http://www.w3.org/2000/svg" viewBox="0 0 36.08 98.62" width="24" height="24"><path d="M22.81,0 C18.13,0.53 1.03,8.23 0.52,47.98 C0,89.82 18.13,98.62 22.86,98.55 L22.86,70.9 C18.97,70.88 18.18,66.68 17.26,58.02 C16.69,52.27 16.52,45.18 17.26,38.13 C17.82,33.17 18.75,28.34 22.86,28.33 L22.81,0 L22.81,0 Z M32.95,98.6 C34.78,98.58 36.08,97.12 36.08,95.47 L36.08,95.47 C36.08,95.47 36.08,73.93 36.08,73.94 C36.08,72.21 34.68,70.86 32.95,70.85 L25.03,70.85 L25.03,98.6 C25.03,98.6 32.95,98.59 32.95,98.6 L32.95,98.6 L32.95,98.6 Z M32.95,28.34 C34.78,28.34 36.08,26.89 36.08,25.26 L36.08,25.26 C36.08,25.26 36.08,3.08 36.08,3.08 C36.08,1.36 34.67,0.01 32.95,0 L25.03,0 L25.03,28.34 C25.03,28.34 32.95,28.36 32.95,28.34 L32.95,28.34 L32.95,28.34 Z" fill="none" stroke="currentColor" stroke-width="1.5"/></svg>