<svg xmlns="http://www.w3.org/2000/svg" viewBox="0 0 99.32 99.27" width="24" height="24"><path d="M9.95,48 C7.86,48 6.15,49.71 6.15,51.79 C6.15,53.87 7.86,55.56 9.95,55.56 C12.04,55.56 13.73,53.88 13.73,51.79 C13.73,49.71 12.04,48 9.95,48 Z M62.68,16.45 C67.21,16.45 70.92,12.79 70.92,8.24 C70.92,3.69 67.22,0 62.68,0 C58.12,0 54.42,3.69 54.42,8.23 C54.42,12.77 58.12,16.45 62.68,16.45 Z M98.13,89.67 L84.73,73.9 C84.73,73.9 80.55,49.55 80.55,49.5 C80.55,49.48 79.92,46.74 79.92,46.74 C79.94,46.76 78.23,39.06 76.92,33.03 C79.01,34.23 80.9,35.31 81,35.36 C81.1,35.59 88.11,48.86 88.11,48.86 C88.64,49.84 89.52,50.57 90.58,50.89 C91.66,51.22 92.8,51.12 93.78,50.59 C94.76,50.09 95.49,49.21 95.82,48.13 C96.17,47.08 96.07,45.95 95.54,44.97 L87.85,30.4 C87.85,30.4 87.55,29.87 87.14,29.47 C86.59,28.92 85.38,28.24 85.38,28.24 L70.46,19.78 C68.57,18.83 66.48,18.5 64.39,18.95 C63.53,19.13 62.73,19.45 61.82,19.95 C61.72,19.97 58.42,21.43 56.5,25.9 L48.85,41.27 C48.85,41.27 37.18,43.53 36.78,43.6 C36.68,43.62 36.58,43.65 36.5,43.7 L25.62,36.02 C23.18,34.31 22.87,29.19 22.85,28.99 C22.55,25.48 20.53,22.16 17.31,19.88 C14.39,17.82 10.86,16.94 7.64,17.47 C5.12,17.9 2.98,19.2 1.62,21.11 C0.55,22.6 0,24.38 0,26.29 C0,26.31 0.15,27.95 0.15,27.95 C0.7,31.19 2.7,34.2 5.62,36.28 C8.57,38.36 12.07,39.24 15.29,38.69 L16.05,38.54 C16.13,38.49 20.96,37.01 23.33,38.62 C23.33,38.64 31.47,44.37 33.64,45.9 C33.41,46.25 33.01,47.03 33.04,47.83 C33.04,48.08 33.06,48.33 33.12,48.58 C33.55,50.84 35.77,52.34 38.03,51.89 L52.49,49.08 C52.49,49.08 53.73,48.7 54.25,48.33 C54.93,47.85 55.43,46.85 55.43,46.85 L59.23,39.22 C59.23,39.22 61.85,51.54 61.9,51.77 C61.6,52.07 50.03,64.3 50.03,64.3 L49.83,64.55 C48.7,65.58 48.07,66.93 48.07,68.37 L48.07,94.28 C48.07,97.04 50.34,99.27 53.11,99.27 C55.86,99.27 58.12,97.04 58.12,94.28 C58.12,94.28 58.12,72.99 58.12,72.64 C59.18,71.54 68.05,62.22 70.42,59.76 C70.67,61.22 72.97,74.34 72.97,74.34 C73.17,75.5 73.73,76.55 74.56,77.4 C74.56,77.42 90.48,96.15 90.48,96.15 C91.36,97.15 92.57,97.78 93.91,97.91 C95.25,98.01 96.53,97.58 97.56,96.73 C98.72,95.75 99.32,94.32 99.32,92.91 C99.32,91.75 98.94,90.62 98.13,89.67 Z M18.67,33.19 C17.79,34.42 16.43,35.22 14.74,35.52 C12.37,35.92 9.73,35.24 7.51,33.64 C5.27,32.06 3.76,29.8 3.35,27.44 L3.25,26.26 C3.25,25.03 3.58,23.93 4.26,22.97 C6.45,19.91 11.47,19.71 15.45,22.52 C19.4,25.33 20.86,30.13 18.67,33.19 Z" fill="none" stroke="currentColor" stroke-width="1.5"/></svg>