<svg xmlns="http://www.w3.org/2000/svg" viewBox="0 0 98.75 95.97" width="24" height="24"><path d="M24.76,15.58 C29.03,15.59 32.49,12.11 32.48,7.79 C32.49,3.5 29.03,0.02 24.76,0 C20.5,0.01 17.04,3.5 17.04,7.79 C17.05,12.11 20.5,15.59 24.76,15.58 L24.76,15.58 Z M4.54,43.22 L11.32,43.22 L15.41,28.14 L17.1,28.14 L13.05,43.22 L37.06,43.22 L32.73,28.14 L34.52,28.14 L36.81,35.53 C37.88,38.65 40.61,39.37 42.74,36.69 L51.01,26.59 C53.63,23.18 48.93,19.6 46.23,22.57 L41.3,28.5 C41.31,28.59 40.35,25.23 40.35,25.23 C39.23,21.27 35.49,17.36 29.89,17.34 L19.33,17.34 C14.32,17.36 10.4,21.76 9.57,24.53 L4.54,43.22 L4.54,43.22 Z M55.5,22.67 L55.5,7.14 L48.58,7.14 L48.58,22.67 L55.5,22.67 Z M78.87,15.68 C83.15,15.67 86.6,12.18 86.59,7.89 C86.6,3.57 83.15,0.09 78.87,0.1 C74.62,0.09 71.16,3.57 71.15,7.89 C71.16,12.18 74.62,15.67 78.87,15.68 L78.87,15.68 Z M88.64,89.21 L88.64,46.19 L94.32,46.19 L94.32,22.72 C94.33,19.65 91.6,17.29 87.69,17.29 L69.56,17.29 C65.96,17.29 65.08,18.47 64.08,19.45 L48.98,37.75 C45.92,41.58 51.38,46.05 54.46,42.47 L69.01,25.13 L69.01,89.31 C68.99,95.76 77.96,95.97 77.98,89.51 L77.98,53.07 L79.72,53.07 L79.72,89.31 C79.74,95.74 88.65,95.76 88.64,89.21 L88.64,89.21 Z M98.75,53.83 L98.75,44.98 L0,44.98 L0,53.83 L98.75,53.83 Z" fill="none" stroke="currentColor" stroke-width="1.5"/></svg>