<svg xmlns="http://www.w3.org/2000/svg" viewBox="0 0 80.19 101.39" width="24" height="24"><path d="M40.09,56.04 C47.57,56.04 51.04,61.65 51.77,69.63 C51.94,71.54 51.76,74.32 51.52,77.54 C50.68,88.24 49.71,101.39 56.92,101.39 C63.02,101.39 66.15,89.83 67.96,76.65 C69.7,63.6 67.86,57.11 68.77,51.32 C70.5,40.34 80.19,30.5 77.2,16.51 C75.54,8.75 71.22,5.09 66.93,3.56 C57.06,0 50.69,6.84 40.09,6.84 C29.49,6.84 23.12,0 13.25,3.55 C8.97,5.09 4.65,8.74 2.98,16.5 C0,30.5 9.68,40.34 11.42,51.32 C12.33,57.11 10.48,63.61 12.23,76.65 C14.03,89.83 17.17,101.39 23.26,101.39 C30.47,101.39 29.5,88.24 28.66,77.54 C28.41,74.32 28.23,71.54 28.41,69.63 C29.13,61.66 32.65,56.04 40.09,56.04 Z" fill="none" stroke="currentColor" stroke-width="1.5"/></svg>