<svg xmlns="http://www.w3.org/2000/svg" viewBox="0 0 66.46 99.15" width="24" height="24"><path d="M28.55,6.99 C26.62,6.98 25.04,5.42 25.04,3.51 C25.04,1.57 26.62,0 28.55,0.02 C30.5,0 32.08,1.56 32.06,3.5 C32.08,5.42 30.5,6.98 28.55,6.99 L28.55,6.99 Z M37.91,6.99 C39.85,6.98 41.42,5.42 41.42,3.51 C41.42,1.57 39.84,0.01 37.91,0.03 C35.96,0.01 34.38,1.57 34.4,3.51 C34.39,5.42 35.96,6.98 37.91,6.99 L37.91,6.99 Z M51.86,77.41 C56.73,76.61 61.59,71.56 61.58,65.41 L61.58,20.46 C61.59,14.12 56.2,8.29 48.9,8.3 L33.28,8.3 L17.61,8.3 C10.27,8.29 4.88,14.12 4.89,20.46 L4.89,65.41 C4.88,71.57 9.74,76.61 14.61,77.41 L0,99.15 L8.45,99.15 L18.88,83.91 L33.23,83.91 L47.58,83.91 L58.06,99.15 L66.46,99.15 L51.86,77.41 Z M24.99,12.94 C24.99,11.81 25.96,10.89 27.07,10.87 L33.23,10.87 L39.39,10.87 C40.51,10.89 41.48,11.81 41.48,12.94 L41.48,16.47 C41.48,17.59 40.56,18.54 39.39,18.54 L33.23,18.54 L27.07,18.54 C25.9,18.54 24.99,17.59 24.99,16.47 L24.99,12.94 Z M17.3,70.85 C14.24,70.83 11.75,68.36 11.75,65.3 C11.74,62.26 14.24,59.79 17.3,59.8 C20.39,59.78 22.88,62.25 22.9,65.3 C22.89,68.36 20.39,70.83 17.3,70.85 Z M18.01,41.64 C14.5,41.62 11.64,39.24 11.65,35.33 L11.65,27.26 C11.67,23.89 13.87,20.96 18.01,20.95 L33.23,20.95 L48.45,20.95 C52.6,20.96 54.79,23.89 54.81,27.26 L54.81,35.33 C54.82,39.24 51.96,41.62 48.45,41.64 L33.23,41.64 L18.01,41.64 Z M43.46,65.3 C43.45,62.26 45.94,59.79 49,59.8 C52.09,59.78 54.58,62.25 54.6,65.3 C54.58,68.35 52.09,70.83 49,70.85 C45.94,70.83 43.45,68.36 43.46,65.3 Z" fill="none" stroke="currentColor" stroke-width="1.5"/></svg>