<svg xmlns="http://www.w3.org/2000/svg" viewBox="0 0 98.78 51.46" width="24" height="24"><path d="M9.08,44.9 C9.12,51.46 18.4,51.46 18.4,44.96 Z M28.31,44.9 C28.35,51.46 37.63,51.46 37.63,44.96 Z M19.41,47.89 L27.22,47.89 C26.82,47.19 26.64,46.45 26.67,44.94 L20.1,44.94 C20.05,46.48 19.81,47.19 19.41,47.89 Z M80.53,44.96 C80.53,51.46 89.81,51.46 89.85,44.9 Z M61.29,44.96 C61.29,51.46 70.57,51.46 70.61,44.9 Z M92.53,20.05 L94.34,20.05 L94.34,17.06 L77.76,17.06 L76.94,16.06 L69.24,16.06 L80.44,8.6 L67.54,0 L54.92,8.59 L65.87,16.06 L58.45,16.06 L57.51,17.06 L49.39,17.06 L41.27,17.06 L40.33,16.06 L32.91,16.06 L43.86,8.59 L31.24,0 L18.33,8.6 L29.53,16.06 L21.83,16.06 L21.01,17.06 L4.44,17.06 L4.44,20.05 L6.25,20.05 L0,32.63 L0,40.36 C0,41.76 1.63,43.21 2.87,43.21 L49.39,43.21 L95.91,43.21 C97.15,43.21 98.78,41.76 98.78,40.36 L98.78,32.63 L92.53,20.05 Z M11.92,32.89 L6.53,32.89 C5.29,32.89 3.19,31.38 3.94,28.54 L8.07,20.04 L11.93,20.04 L11.92,32.89 Z M21.05,39.62 C20.88,40.58 20.22,40.75 19.69,41.27 L15.2,41.27 C14.67,40.74 14,40.57 13.83,39.61 L13.83,21.33 C13.83,20.92 14.4,20.51 15.06,20.05 L19.82,20.05 C20.49,20.52 21.07,20.93 21.07,21.35 L21.05,39.62 Z M20.28,8.6 L31.23,1.29 L41.95,8.59 L31.24,15.9 L20.28,8.6 Z M39.25,31.26 C39.09,32.2 38.44,32.39 37.92,32.89 L24.48,32.89 C23.95,32.37 23.26,32.24 23.09,31.28 L23,31.28 L23.02,21.32 C23.02,20.95 23.62,20.53 24.28,20.06 L38.05,20.06 C38.7,20.52 39.26,20.92 39.26,21.33 L39.25,31.26 Z M57.56,31.28 C57.41,32.23 56.74,32.38 56.22,32.88 L49.39,32.88 L42.56,32.88 C42.03,32.38 41.37,32.23 41.22,31.28 L41.22,21.27 C41.22,20.91 41.79,20.49 42.43,20.04 L49.39,20.04 L56.35,20.04 C56.99,20.5 57.56,20.91 57.56,21.27 L57.56,31.28 Z M56.83,8.59 L67.55,1.29 L78.5,8.6 L67.54,15.9 L56.83,8.59 Z M75.69,31.27 C75.52,32.23 74.83,32.36 74.3,32.89 L60.87,32.89 C60.35,32.39 59.7,32.21 59.54,31.26 L59.53,21.32 C59.53,20.91 60.09,20.51 60.74,20.05 L74.51,20.05 C75.17,20.52 75.77,20.95 75.77,21.31 L75.79,31.27 L75.69,31.27 Z M84.94,39.6 C84.77,40.57 84.1,40.74 83.57,41.26 L79.08,41.26 C78.55,40.75 77.89,40.57 77.73,39.61 L77.72,21.35 C77.72,20.93 78.3,20.52 78.97,20.05 L83.73,20.05 C84.38,20.51 84.95,20.92 84.95,21.33 L84.94,39.6 Z M92.26,32.89 L86.87,32.89 L86.85,20.05 L90.71,20.05 L94.84,28.55 C95.59,31.39 93.5,32.89 92.26,32.89 Z" fill="none" stroke="currentColor" stroke-width="1.5"/></svg>