<svg xmlns="http://www.w3.org/2000/svg" viewBox="0 0 99.1 33.35" width="24" height="24"><path d="M36.12,26.79 L42.43,26.79 L39.81,23.76 L21.81,23.76 L21.8,6.71 L13.26,6.71 C11.03,6.71 9.63,6.71 8.71,9.99 L7.17,16.4 L3.63,16.4 C1.88,16.4 1.88,16.4 1.88,18.2 C1.88,21.06 1.88,23.93 1.88,26.8 L0,26.8 L0,28.79 L6.7,28.79 C7.03,31.49 8.66,33.35 11.23,33.35 C13.77,33.35 15.51,31.46 16.07,28.79 L18.75,28.79 L18.75,26.8 L26.02,26.8 C25.98,27.05 25.96,27.61 25.96,27.89 C25.96,30.9 28.26,33.34 31.09,33.34 C33.91,33.34 36.21,30.89 36.21,27.89 C36.21,27.54 36.18,27.11 36.12,26.79 Z M85.08,33.1 C88.11,33.1 90.57,30.47 90.57,27.25 C90.57,26.84 90.54,26.44 90.45,26.06 L99.1,26.06 L99.1,0 L23.84,0 L23.84,21.09 L41.79,21.09 L46.05,26.06 L79.72,26.06 C79.64,26.45 79.61,26.85 79.61,27.25 C79.6,30.47 82.06,33.1 85.08,33.1" fill="none" stroke="currentColor" stroke-width="1.5"/></svg>