<svg xmlns="http://www.w3.org/2000/svg" viewBox="0 0 99.17 49.9" width="24" height="24"><path d="M88.5,39.3 L99.17,39.3 L99.17,0 L31.68,0 L31.68,6.75 L22.42,6.75 C18.63,6.75 16.27,6.75 14.71,12.07 L12.13,22.46 L6.1,22.46 C3.14,22.46 3.14,22.46 3.14,25.37 C3.14,30.01 3.14,34.65 3.14,39.3 L0,39.3 L0,42.51 L11.3,42.51 C11.89,46.9 14.63,49.89 18.95,49.89 C23.25,49.89 26.16,46.83 27.13,42.51 L31.68,42.51 L31.68,39.3 L71.45,39.3 C71.37,39.72 71.34,40.61 71.34,41.07 C71.34,45.94 75.24,49.9 80.01,49.9 C84.78,49.9 88.67,45.94 88.67,41.07 C88.67,40.52 88.61,39.81 88.5,39.3" fill="none" stroke="currentColor" stroke-width="1.5"/></svg>