<svg xmlns="http://www.w3.org/2000/svg" viewBox="0 0 99.06 27.2" width="24" height="24"><path d="M90.44,27.06 C93.06,27.06 95.21,24.89 95.21,22.23 C95.21,21.92 95.18,21.61 95.11,21.31 L99.06,21.31 L99.06,0 L56.27,0 L56.27,19.52 L53.97,19.52 L53.97,0 L17.34,0.01 L17.34,3.73 L12.28,3.73 C10.21,3.73 8.92,3.73 8.07,6.62 L6.64,12.26 L3.35,12.26 C1.73,12.26 1.73,12.26 1.73,13.84 C1.73,16.36 1.73,18.89 1.73,21.41 L0,21.41 L0,23.17 L6.19,23.17 C6.5,25.55 8,27.18 10.38,27.18 C12.73,27.18 14.33,25.51 14.85,23.17 L17.33,23.17 L17.33,21.41 L33.84,21.41 C33.8,21.63 33.79,22.13 33.79,22.37 C33.79,25.02 35.92,27.17 38.53,27.17 C41.14,27.17 43.27,25.02 43.27,22.37 C43.27,22.07 43.23,21.69 43.18,21.41 L61.06,21.41 C61,21.72 60.96,22.05 60.96,22.38 C60.96,25.03 63.1,27.2 65.72,27.2 C68.34,27.2 70.48,25.03 70.48,22.38 C70.48,22.05 70.45,21.55 70.39,21.24 L85.77,21.29 C85.71,21.59 85.68,21.91 85.68,22.22 C85.68,24.89 87.83,27.06 90.44,27.06" fill="none" stroke="currentColor" stroke-width="1.5"/></svg>