<svg xmlns="http://www.w3.org/2000/svg" viewBox="0 0 99.0 68.57" width="24" height="24"><path d="M91.21,63.89 L76.97,63.89 L78.37,53.37 L82.75,53.97 L85.96,29.93 L83.34,25.71 L82.45,11.63 C82.45,11.63 81.92,7.67 78.58,7.21 L28.9,0.45 C25.56,0 24.01,3.67 24.01,3.67 L19.46,17.01 L15.82,20.38 L12.61,44.42 L16.37,44.93 L14.94,55.63 L23.92,56.85 L25.35,46.15 L69.4,52.15 L67.97,62.85 L75.62,63.89 L54.35,63.89 L54.35,56.87 L0,56.87 L0,68.57 L99,68.57 L91.21,63.89 Z M46.65,20.07 C46.07,18.85 45.14,17.55 43.71,16.88 C42.15,16.14 41.47,14.86 41.19,13.75 C41.79,13.06 42.23,12.1 42.37,11.01 C42.69,8.62 41.5,6.49 39.71,6.25 C37.92,6.01 36.22,7.75 35.9,10.13 C35.7,11.61 36.08,12.99 36.82,13.88 L36.54,14.83 C36.54,14.83 35.2,14.55 33.43,14.82 C33.46,14.14 33.36,13.42 32.71,13.84 C32.71,13.84 32.14,13.42 32.02,13.96 C32.02,13.96 31.43,13.48 31.33,14.08 C31.33,14.08 30.66,13.83 30.58,14.4 C30.58,14.4 29.42,15.41 29.2,16.59 C28.83,16.87 28.48,17.19 28.13,17.56 L24.76,17.1 L26.59,3.39 L78.99,10.52 L77.16,24.23 L46.65,20.07 Z" fill="none" stroke="currentColor" stroke-width="1.5"/></svg>