<svg xmlns="http://www.w3.org/2000/svg" viewBox="0 0 98.88 85.12" width="24" height="24"><path d="M0,73.67 L18,73.67 L18,55.15 L35.88,55.15 L35.88,36.49 L54.05,36.49 L54.05,18.19 L72.09,18.19 L72.09,0 L98.88,0 L98.88,9.28 L81.07,9.28 L81.07,27.53 L63.01,27.53 L63.01,46.05 L44.98,46.05 L44.98,64.46 L26.88,64.46 L26.88,83.03 L0,83.03 Z M80.68,54.1 L64.77,54.1 C60.38,54.1 60.22,60.92 64.77,60.92 L72.93,60.92 L57.41,76.61 C53.97,80.09 58.83,85.12 62.49,81.43 L77.78,65.93 L77.78,74.1 C77.76,78.53 84.56,78.7 84.57,74.1 L84.57,58.1 C84.56,55.71 82.98,54.1 80.68,54.1 Z" fill="none" stroke="currentColor" stroke-width="1.5"/></svg>