<svg xmlns="http://www.w3.org/2000/svg" viewBox="0 0 99.25 66.62" width="24" height="24"><path d="M99.23,66.62 C97.08,66.62 94.98,66.12 93.13,65.3 C91.23,64.4 89.08,63.86 86.83,63.86 C84.61,63.86 82.46,64.41 80.56,65.3 C78.68,66.12 76.61,66.62 74.43,66.62 C72.26,66.62 70.18,66.12 68.33,65.3 C66.43,64.4 64.28,63.86 62.03,63.86 C59.81,63.86 57.66,64.41 55.75,65.3 C53.87,66.12 51.8,66.62 49.62,66.62 C47.45,66.62 45.37,66.12 43.52,65.3 C41.62,64.4 39.47,63.86 37.22,63.86 C34.97,63.86 32.82,64.41 30.92,65.3 C29.07,66.12 26.99,66.62 24.82,66.62 C22.65,66.62 20.57,66.12 18.72,65.3 C16.79,64.4 14.64,63.86 12.42,63.86 C10.17,63.86 8.02,64.41 6.12,65.3 C4.25,66.12 2.17,66.62 0,66.62 L0,57.38 C2.17,57.38 4.25,56.91 6.1,56.06 C8,55.16 10.15,54.64 12.4,54.64 C14.62,54.64 16.77,55.16 18.7,56.06 C20.55,56.91 22.63,57.38 24.8,57.38 C26.97,57.38 29.05,56.91 30.9,56.06 C32.8,55.16 34.95,54.64 37.2,54.64 C39.45,54.64 41.6,55.16 43.5,56.06 C45.35,56.91 47.43,57.38 49.6,57.38 C51.77,57.38 53.85,56.91 55.73,56.06 C57.63,55.16 59.78,54.64 62.01,54.64 C64.26,54.64 66.41,55.16 68.31,56.06 C70.16,56.91 72.24,57.38 74.41,57.38 C76.58,57.38 78.66,56.91 80.54,56.06 C82.44,55.16 84.59,54.64 86.81,54.64 C89.06,54.64 91.21,55.16 93.11,56.06 C94.96,56.91 97.06,57.38 99.21,57.38 L99.21,66.62 Z M87.12,31.24 C88.16,30.74 88.87,29.7 88.87,28.45 L88.87,25.36 L91.98,25.36 L91.98,15.28 L91.98,15.28 C91.98,13.09 90.5,11.25 88.5,10.7 L84.94,2.14 C84.42,0.87 83.19,0 81.76,0 L63.47,0 C62.04,0 60.8,0.87 60.28,2.14 L56.72,10.7 C54.72,11.25 53.24,13.09 53.24,15.28 L53.24,15.28 L53.24,25.36 L56.35,25.36 L56.35,28.45 C56.35,29.7 57.07,30.74 58.1,31.24 L41.29,31.24 C42.33,30.74 43.07,29.7 43.07,28.45 L43.05,25.36 L46.16,25.36 L46.16,15.28 L46.16,15.28 C46.16,13.09 44.68,11.25 42.68,10.7 L39.12,2.14 C38.59,0.87 37.36,0 35.92,0 L17.64,0 C16.21,0 14.97,0.87 14.45,2.14 L10.89,10.7 C8.89,11.25 7.41,13.09 7.41,15.28 L7.41,15.28 L7.41,25.36 L10.52,25.36 L10.52,28.45 C10.52,29.7 11.24,30.74 12.27,31.24 L0,31.24 L0,39.07 L8.4,39.07 L15.24,47.11 C16.45,47.36 17.61,47.76 18.7,48.26 C20.55,49.11 22.63,49.58 24.8,49.58 C26.97,49.58 29.05,49.11 30.9,48.26 C32.8,47.36 34.95,46.84 37.2,46.84 C39.45,46.84 41.6,47.36 43.5,48.26 C45.35,49.11 47.43,49.58 49.6,49.58 C51.77,49.58 53.85,49.11 55.73,48.26 C57.63,47.36 59.78,46.84 62.01,46.84 C64.26,46.84 66.41,47.36 68.31,48.26 C70.16,49.11 72.24,49.58 74.41,49.58 C76.58,49.58 78.66,49.11 80.54,48.26 C81.85,47.64 83.28,47.21 84.79,46.99 L91.46,38.98 L99.25,38.98 L99.25,31.25 L87.12,31.25 Z M14.85,31.24 C15.89,30.74 16.63,29.7 16.63,28.45 L16.61,25.36 L36.97,25.36 L36.97,28.45 C36.97,29.7 37.69,30.74 38.72,31.24 L14.85,31.24 Z M60.68,31.24 C61.72,30.74 62.43,29.7 62.43,28.45 L62.43,25.36 L82.79,25.36 L82.79,28.45 C82.79,29.7 83.51,30.74 84.54,31.24 L60.68,31.24 Z M11.04,17.09 C11.04,15.37 12.42,13.99 14.13,13.99 C15.81,13.99 17.22,15.37 17.22,17.09 C17.22,18.81 15.81,20.19 14.13,20.19 C12.43,20.19 11.04,18.81 11.04,17.09 Z M39.46,20.19 C37.75,20.19 36.37,18.81 36.37,17.09 C36.37,15.37 37.75,13.99 39.46,13.99 C41.14,13.99 42.57,15.37 42.57,17.09 C42.57,18.81 41.14,20.19 39.46,20.19 Z M13.96,10.53 L17.02,3.14 C17.14,2.77 17.49,2.49 17.91,2.49 L35.65,2.49 C36.07,2.49 36.42,2.76 36.56,3.14 L39.62,10.53 L13.96,10.53 Z M56.88,17.09 C56.88,15.37 58.26,13.99 59.97,13.99 C61.65,13.99 63.06,15.37 63.06,17.09 C63.06,18.81 61.65,20.19 59.97,20.19 C58.26,20.19 56.88,18.81 56.88,17.09 Z M85.29,20.19 C83.59,20.19 82.2,18.81 82.2,17.09 C82.2,15.37 83.58,13.99 85.29,13.99 C86.97,13.99 88.38,15.37 88.38,17.09 C88.38,18.81 86.97,20.19 85.29,20.19 Z M59.79,10.53 L62.85,3.14 C62.97,2.77 63.32,2.49 63.74,2.49 L81.48,2.49 C81.9,2.49 82.25,2.76 82.37,3.14 L85.43,10.53 L59.79,10.53 Z" fill="none" stroke="currentColor" stroke-width="1.5"/></svg>