<svg xmlns="http://www.w3.org/2000/svg" viewBox="0 0 89.72 98.87" width="24" height="24"><path d="M71.66,51.92 L45.42,47.65 L49.18,44.99 L55.49,45.86 L61.78,44.99 Z" fill="none" stroke="currentColor" stroke-width="1.5"/><path d="M55.49,2.88 C60.75,2.88 65.01,7.09 65.01,12.3 C65.01,17.5 61.66,21.72 55.49,21.72 C50.23,21.72 45.96,17.5 45.96,12.3 C45.95,7.1 50.22,2.88 55.49,2.88 Z" fill="none" stroke="currentColor" stroke-width="1.5"/><path d="M57.86,70.96 L57.86,93.73 C57.86,96.57 60.19,98.87 63.06,98.87 C65.93,98.87 68.26,96.57 68.26,93.73 L68.26,70.96 C68.26,68.13 65.93,65.82 63.06,65.82 C60.19,65.82 57.86,68.13 57.86,70.96 Z" fill="none" stroke="currentColor" stroke-width="1.5"/><path d="M89.72,83.96 C89.72,85.61 88.36,86.95 86.7,86.95 L70.75,86.95 L70.75,72.04 L77.65,72.04 L77.65,57.14 C77.65,55.5 79,54.16 80.66,54.16 L86.7,54.16 C88.36,54.16 89.72,55.5 89.72,57.14 L89.72,83.96 Z" fill="none" stroke="currentColor" stroke-width="1.5"/><path d="M55.37,86.95 L24.4,86.95 C22.73,86.95 21.38,85.61 21.38,83.96 L21.38,57.14 C21.38,55.5 22.73,54.16 24.4,54.16 L30.44,54.16 C32.1,54.16 33.46,55.5 33.46,57.14 L33.46,72.04 L55.37,72.04 L55.37,86.95 Z" fill="none" stroke="currentColor" stroke-width="1.5"/><path d="M39.06,54.78 C38.59,57.58 40.51,60.23 43.35,60.69 L66.07,64.39 C68.9,64.84 71.58,62.95 72.05,60.15 C72.52,57.35 70.6,54.7 67.76,54.24 L45.04,50.54 C42.21,50.09 39.53,51.98 39.06,54.78 Z" fill="none" stroke="currentColor" stroke-width="1.5"/><path d="M13.44,26.59 C6.03,26.59 0,20.63 0,13.29 C0,5.96 6.03,0 13.44,0 C20.85,0 26.89,5.96 26.89,13.3 C26.89,20.63 20.85,26.59 13.44,26.59 L13.44,26.59 Z M13.44,23.29 C19.02,23.29 23.56,18.8 23.56,13.28 C23.56,7.77 19.02,3.27 13.44,3.27 C7.86,3.27 3.32,7.76 3.32,13.28 C3.33,18.81 7.86,23.29 13.44,23.29 L13.44,23.29 Z" fill="none" stroke="currentColor" stroke-width="1.5"/><path d="M13.51,15.05 C13.21,15.19 12.84,15.17 12.54,14.98 C12.29,14.82 12.13,14.57 12.09,14.29 L12.08,6.56 C12.08,6.01 12.54,5.56 13.09,5.56 C13.65,5.56 14.1,6.01 14.1,6.56 L14.1,6.56 L14.1,12.55 L19.28,10.14 C19.78,9.9 20.39,10.12 20.63,10.61 L20.63,10.61 C20.87,11.11 20.65,11.71 20.15,11.94 L20.15,11.94 L13.51,15.05 Z" fill="none" stroke="currentColor" stroke-width="1.5"/><path d="M55.49,29.22 L67.84,27.23 L67.84,35.82 C69.81,37.28 73.94,40.35 73.94,40.35 C74.53,40.93 74.29,41.6 74.15,41.79 C73.8,42.24 73.15,42.34 72.69,42 L64.99,36.25 C63.39,35.14 61.19,35.52 60.06,37.09 C58.93,38.67 59.32,40.85 60.91,41.96 L74.06,51.09 C74.67,51.52 75.54,51.81 76.41,51.81 L76.41,51.81 C77.15,51.81 78.02,51.51 78.66,51.05 C80.04,50.08 80.55,48.36 80.08,46.78 L75.2,32.51 C73.9,28.97 70.61,24.79 65.67,24.79 L45.3,24.79 C40.36,24.79 37.07,28.96 35.77,32.51 L30.89,46.78 C30.42,48.36 30.93,50.08 32.31,51.05 C32.95,51.5 33.82,51.81 34.56,51.81 L34.56,51.81 C35.43,51.81 36.3,51.52 36.91,51.09 L50.06,41.96 C51.65,40.85 52.03,38.67 50.91,37.09 C49.78,35.51 47.58,35.14 45.99,36.25 L38.29,42 C37.83,42.34 37.19,42.25 36.84,41.79 C36.7,41.6 36.46,40.94 37.05,40.35 C37.05,40.35 41.18,37.28 43.15,35.82 L43.15,27.23 L55.49,29.22 Z" fill="none" stroke="currentColor" stroke-width="1.5"/></svg>