<svg xmlns="http://www.w3.org/2000/svg" viewBox="0 0 55.74 99.13" width="24" height="24"><path d="M31.27,13.65 C35.13,13.65 38.15,10.65 38.15,6.83 C38.15,3 35.13,0 31.27,0 C27.41,0 24.38,3 24.38,6.82 C24.38,10.65 27.41,13.65 31.27,13.65 Z" fill="none" stroke="currentColor" stroke-width="1.5"/><path d="M1.25,51.27 L5.76,50.85 L5.86,34.94 L14.08,29.78 C14.08,29.78 12.75,40.23 12.75,45.72 C12.75,50.51 12.58,54.38 12.58,54.38 L2.05,96.07 L9.49,99.13 L21.28,61.01 L29.48,71.34 L38.82,97.45 L47.21,94.12 L37.79,66.4 L27.45,50.22 L30.35,29.01 L36.81,42.44 L53.43,48.1 L55.74,43.94 L40.51,35.13 C40.51,35.13 36.82,25.4 33.8,19.31 C32.77,17.24 28.6,16.56 26.91,16.43 C22.01,16.07 19.48,17.71 15.42,19.83 C11.36,21.94 0,30.46 0,30.46 L1.25,51.27 Z" fill="none" stroke="currentColor" stroke-width="1.5"/></svg>