<svg xmlns="http://www.w3.org/2000/svg" viewBox="0 0 75.94 98.33" width="24" height="24"><path d="M11.39,11.22 C13.49,11.22 15.15,9.53 15.15,7.48 C15.15,5.44 13.49,3.77 11.39,3.77 C9.3,3.77 7.62,5.44 7.62,7.48 C7.61,9.54 9.3,11.22 11.39,11.22 M22.47,11.22 C24.56,11.22 26.24,9.53 26.24,7.48 C26.24,5.44 24.55,3.77 22.47,3.77 C20.4,3.77 18.71,5.44 18.71,7.48 C18.71,9.54 20.4,11.22 22.47,11.22 M72.49,0 C74.4,0 75.94,1.51 75.94,3.37 L75.94,14.92 L0.18,14.92 L0.18,3.39 C0.18,1.53 1.73,0.01 3.61,0.01 L72.49,0 Z M37.47,81.29 C50.96,81.29 61.87,70.56 61.87,57.3 C61.87,44.05 50.95,33.3 37.47,33.3 C24,33.3 13.08,44.05 13.08,57.3 C13.08,70.56 24,81.29 37.47,81.29 M0,98.3 L0,23.52 C0,21.66 1.53,20.15 3.43,20.15 L72.32,20.15 C74.21,20.15 75.75,21.66 75.75,23.52 L75.75,98.33 L0,98.3 Z M57.25,51.17 C57.75,52.92 58.02,54.76 58.02,56.68 C58.02,67.8 48.82,76.82 37.5,76.82 C26.17,76.82 16.99,67.8 16.99,56.68 C16.99,54.6 17.31,52.62 17.87,50.74 L17.87,50.78 C19.19,52.18 21.05,53.05 23.15,53.05 C24.97,53.05 26.61,52.41 27.88,51.3 L27.85,51.3 C29.13,52.41 30.79,53.05 32.6,53.05 C34.48,53.05 36.19,52.36 37.46,51.16 L37.46,51.19 C38.73,52.36 40.43,53.05 42.34,53.05 C44.28,53.05 46.06,52.3 47.31,51.07 L47.31,51.1 C48.6,52.34 50.35,53.06 52.29,53.06 C54.17,53.06 55.92,52.34 57.21,51.14 L57.25,51.17 Z" fill="none" stroke="currentColor" stroke-width="1.5"/></svg>