<svg xmlns="http://www.w3.org/2000/svg" viewBox="0 0 45.81 99.25" width="24" height="24"><path d="M22.9,16.11 C18.42,16.11 14.78,12.52 14.78,8.06 C14.78,3.62 18.41,0 22.9,0 C27.39,0 31.03,3.62 31.03,8.06 C31.02,12.52 27.39,16.11 22.9,16.11 Z" fill="none" stroke="currentColor" stroke-width="1.5"/><path d="M30.78,34.48 L42.91,56.86 L45.81,54.91 L33.29,19.34 L23.31,19.34 L22.9,19.34 L22.48,19.34 L12.5,19.34 L0,54.91 L2.9,56.86 L15.03,34.48 C15.03,34.48 16.56,34.48 16.56,38.36 L3.4,69.64 L15.91,69.64 L19.96,99.25 L22.49,99.25 L22.9,99.25 L23.31,99.25 L25.84,99.25 L29.89,69.64 L42.4,69.64 L29.25,38.36 C29.25,34.48 30.78,34.48 30.78,34.48 Z" fill="none" stroke="currentColor" stroke-width="1.5"/></svg>