<svg xmlns="http://www.w3.org/2000/svg" viewBox="0 0 92.08 98.75" width="24" height="24"><path d="M31.22,16.11 C26.72,16.11 23.07,12.49 23.07,8.04 C23.07,3.6 26.71,0 31.22,0 C35.73,0 39.39,3.6 39.39,8.05 C39.39,12.49 35.72,16.11 31.22,16.11 Z M91.74,26.37 C91.38,26.02 90.84,26.02 90.48,26.37 L85.21,31.57 L85.21,26.3 C85.21,25.95 84.9,25.64 84.54,25.64 C84.16,25.64 83.87,25.95 83.87,26.3 L83.87,31.64 L71.56,43.81 L61.12,43.81 C61.12,43.81 63.85,41.12 66.65,38.35 L68.27,38.35 C70.01,38.35 71.44,36.96 71.44,35.27 C71.44,34.81 71.13,34.49 70.95,34.1 C71.82,33.23 72.49,32.56 72.63,32.42 C73.3,31.78 73.32,30.75 73.32,30.75 L73.32,24.99 L82.28,17.98 L88.47,17.98 C88.83,17.98 89.11,17.72 89.11,17.37 C89.11,17.04 88.82,16.71 88.47,16.71 L82.49,16.71 L88.21,12.07 C88.54,11.74 88.59,11.25 88.26,10.92 C87.93,10.59 87.38,10.59 87.04,10.92 L78.1,17.98 L78.1,7.99 C78.1,7.54 77.77,7.21 77.31,7.21 C76.86,7.21 76.5,7.54 76.5,7.99 L76.5,19.14 L72.16,22.76 L72.16,16.31 C72.16,15.72 71.68,15.2 71.09,15.2 C70.47,15.2 69.97,15.72 69.97,16.31 L69.97,29.44 L67.25,32.12 C64.64,32.12 57.29,32.12 55.53,32.12 C54.15,30.76 46.09,22.83 44.09,20.85 C43.97,20.71 43.3,20.1 43.14,20 C41.38,18.61 39.14,17.76 36.71,17.76 L21.66,17.76 C15.32,17.76 11.1,23.01 11.1,28.35 L11.1,51.76 L0.55,62.2 C0,62.74 0,63.61 0.55,64.15 C1.1,64.69 2,64.71 2.55,64.15 L7.1,59.66 L7.1,64.46 L1.81,69.68 C1.48,70.01 1.48,70.53 1.81,70.86 C2.14,71.19 2.69,71.19 3.02,70.86 L7.09,66.81 L7.11,78.97 C7.11,79.37 7.44,79.7 7.85,79.7 C8.28,79.7 8.61,79.37 8.61,78.97 L8.59,72.81 L11.78,75.96 C11.99,76.17 12.35,76.17 12.57,75.96 C12.78,75.75 12.78,75.4 12.57,75.18 L9.35,71.98 L9.35,57.45 L11.82,55 C13.39,57.48 17.47,56.92 17.47,52.98 L17.47,49.42 L20.5,46.42 L20.52,94.23 C20.52,96.72 22.57,98.75 25.1,98.75 C27.63,98.75 29.67,96.73 29.67,94.23 L29.67,56.35 L32.72,56.35 L32.72,94.23 C32.72,96.72 34.77,98.75 37.3,98.75 C39.83,98.75 41.88,96.73 41.88,94.23 L41.88,27.46 L52.01,37.46 C52.58,38.05 53.39,38.35 54.23,38.35 L60.99,38.35 L48.59,50.61 L51.42,53.39 L57.78,47.11 L84.11,47.11 C84.83,47.11 85.4,46.55 85.4,45.84 C85.4,45.13 84.83,44.55 84.11,44.55 L74.53,44.6 L79.37,39.82 L88.18,39.82 C88.73,39.82 89.18,39.4 89.18,38.86 C89.18,38.3 88.75,37.87 88.18,37.85 L81.34,37.85 L91.73,27.64 C92.08,27.26 92.08,26.72 91.74,26.37 Z M17.49,45.48 L17.49,28.89 L20.52,28.89 L20.53,42.48 L17.49,45.48 Z" fill="none" stroke="currentColor" stroke-width="1.5"/></svg>