<svg xmlns="http://www.w3.org/2000/svg" viewBox="0 0 129.03 113.93" width="24" height="24"><path d="M28.3,108.18 L2.05,62.72 L28.3,5.75 L90.76,0 L126.97,51.22 L100.72,108.18 L38.26,113.93 Z" fill="none" stroke="currentColor" stroke-width="1.5"/><path d="M88.72,32.29 L58.01,37.97 L71.26,51.22 L71.11,53.62 L62.76,45.28 L28.01,59.97 L81.98,113.93 L90.76,113.93 L124.11,67.67 Z" fill="none" stroke="currentColor" stroke-width="1.5"/><rect x="0" y="0" width="0" height="0" fill="none" stroke="currentColor"/><rect x="87.51" y="53.97" width="13.5" height="6" fill="none" stroke="currentColor"/><rect x="83.01" y="37.97" width="6" height="38" fill="none" stroke="currentColor"/><rect x="28.01" y="53.97" width="12" height="6" fill="none" stroke="currentColor"/><path d="M59.06,31.97 L87.97,31.97 L89.01,33.01 L89.01,37.97 L58.01,37.97 L58.01,33.01 Z M58.01,75.97 L89.01,75.97 L89.01,80.92 L59.06,81.97 L58.01,80.92 L58.01,80.92 Z" fill="none" stroke="currentColor" stroke-width="1.5"/><path d="M76.01,45.86 L76.01,68.08 L70.78,68.97 L70.01,45.86 L75.25,44.97 Z" fill="none" stroke="currentColor" stroke-width="1.5"/></svg>