<svg xmlns="http://www.w3.org/2000/svg" viewBox="0 0 129.03 113.93" width="24" height="24"><path d="M28.3,108.18 L2.05,62.72 L28.3,5.75 L90.76,0 L126.97,51.22 L100.72,108.18 L38.26,113.93 Z" fill="none" stroke="currentColor" stroke-width="1.5"/><path d="M65.11,18.71 L61.66,22.21 L70.31,30.86 L66.32,31.8 L74.92,41.28 L71.86,41.98 L61.53,31.65 L58,35.05 L65.37,42.42 L58.72,42.33 L54.31,44.91 L58.68,49.27 L44.35,74.15 L48.49,85.24 L77.18,113.93 L90.76,113.93 L120.44,74.04 Z" fill="none" stroke="currentColor" stroke-width="1.5"/><rect x="0" y="0" width="0" height="0" fill="none" stroke="currentColor"/><ellipse cx="59.650000000000006" cy="33.22" rx="2.45" ry="2.45" fill="none" stroke="currentColor"/><ellipse cx="68.91000000000001" cy="29.19" rx="3.68" ry="3.68" fill="none" stroke="currentColor"/><ellipse cx="63.330000000000005" cy="20.4" rx="2.45" ry="2.45" fill="none" stroke="currentColor"/><path d="M73.66,74.97 L71.93,71.97 L83.79,71.97 L71.99,51.53 L71.58,51.53 L81.73,68.97 L55.33,68.97 L52.16,74.45 L56.01,82.34 L81.37,82.34 L85.57,75.06 L85.52,74.97 Z M86.04,73.7 L72.65,50.51 L72.49,44.97 L74.44,44.97 L74.94,41.65 L54.59,41.15 L54.09,44.47 L56.54,44.97 L56.54,49.89 L42.99,73.7 L47.88,84.62 L79.02,85.85 L86.04,76.15 Z M81.86,75.43 L78.53,81.21 L51.56,81.82 L47.17,75.43 L60.14,51.74 L60.47,44.97 L68.56,44.97 L68.56,50.51 L81.86,74.21 Z M64.06,58.92 L76.03,58.92 L74.23,56.08 L62.42,56.08 L64.06,58.92 Z M66.51,62.97 L68.23,65.94 L80.44,65.94 L78.68,62.97 L66.51,62.97 Z" fill="none" stroke="currentColor" stroke-width="1.5"/></svg>