<svg xmlns="http://www.w3.org/2000/svg" viewBox="0 0 129.03 113.93" width="24" height="24"><path d="M28.3,108.18 L2.05,62.72 L28.3,5.75 L90.76,0 L126.97,51.22 L100.72,108.18 L38.26,113.93 Z" fill="none" stroke="currentColor" stroke-width="1.5"/><path d="M70.34,113.93 L90.76,113.93 L123.68,68.41 L94.5,39.29 L89.82,48.17 L77.51,35.97 L65.36,42.98 L70.89,48.52 L68.28,48.48 L55.76,35.97 L39.11,38.97 L34.53,48.97 L40.82,55.22 L34.53,60.72 L41.54,67.85 L34.53,77.97 Z" fill="none" stroke="currentColor" stroke-width="1.5"/><rect x="0" y="0" width="0" height="0" fill="none" stroke="currentColor"/><path d="M77.51,35.97 L60.93,35.97 L65.35,42.97 L71.51,42.97 L71.51,46.97 L62.74,46.97 L55.76,35.97 L34.53,35.97 L34.53,48.97 L40.51,48.97 L44.29,41.97 L52.01,41.97 L54.57,45.97 L46.87,45.97 L43.09,52.97 L34.53,52.97 L34.53,60.72 L43.09,60.72 L46.87,67.97 L54.57,67.97 L52.01,71.97 L44.29,71.97 L40.51,64.97 L34.53,64.97 L34.53,77.97 L55.76,77.97 L62.74,66.97 L71.51,66.97 L71.51,70.97 L65.35,70.97 L60.93,77.97 L77.51,77.97 L77.51,58.97 L58.27,58.97 L55.79,62.97 L50.26,62.97 L54.06,56.97 L50.26,50.97 L55.79,50.97 L58.18,54.96 L77.51,54.96 L77.51,35.97 Z M94.5,39.29 L82.51,48 L82.51,66.31 L94.5,75.14 L94.5,39.29 Z" fill="none" stroke="currentColor" stroke-width="1.5"/></svg>