<svg xmlns="http://www.w3.org/2000/svg" viewBox="0 0 129.07 114.03" width="24" height="24"><path d="M28.3,108.23 L2.05,62.76 L28.3,5.79 L90.76,0.01 L127.01,51.23 L100.76,108.2 L38.26,113.95 Z" fill="none" stroke="currentColor" stroke-width="1.5"/><path d="M77.51,114.01 L90.76,114.01 L127.01,62.79 L93.4,21.07 L85.2,31.85 L85.2,56.51 L76.91,58.11 L70.06,51.26 L62.46,50.84 L53.73,57.38 L45.11,48.76 L28.73,65.21 Z" fill="none" stroke="currentColor" stroke-width="1.5"/><rect x="0" y="0" width="0" height="0" fill="none" stroke="currentColor"/><rect x="71.01" y="54.51" width="15.19" height="5" fill="none" stroke="currentColor"/><rect x="82.7" y="35.74" width="5" height="42.55" fill="none" stroke="currentColor"/><rect x="42.82" y="54.51" width="15.56" height="5" fill="none" stroke="currentColor"/><ellipse cx="64.50999999999999" cy="57.01" rx="6.5" ry="6.5" fill="none" stroke="currentColor"/></svg>