<svg xmlns="http://www.w3.org/2000/svg" viewBox="0 0 129.03 113.93" width="24" height="24"><path d="M28.3,108.18 L2.05,62.72 L28.3,5.75 L90.76,0 L126.97,51.22 L100.72,108.18 L38.26,113.93 Z" fill="none" stroke="currentColor" stroke-width="1.5"/><path d="M74.51,31.82 L70.72,37.65 L61.51,28.44 L59.31,37.36 L54.51,41.96 L64.32,51.76 L64.46,60.89 L55.89,63.22 L46.51,61.5 L37.6,69.74 L42.45,74.59 L40.6,74.93 L79.6,113.93 L90.76,113.93 L119.08,76.39 Z" fill="none" stroke="currentColor" stroke-width="1.5"/><rect x="0" y="0" width="0" height="0" fill="none" stroke="currentColor"/><path d="M84,65.58 L91.32,69.8 L91.89,62.05 L83.12,56.98 L77.41,60.68 L68.39,55.47 L68.39,45.08 L74.51,41.96 L74.51,31.82 L67.51,28.44 L67.51,36.89 L64.51,38.58 L61.51,36.89 L61.51,28.44 L54.51,31.82 L54.51,41.96 L60.57,45.05 L60.57,55.47 L51.58,60.66 L45.8,56.92 L37.03,61.98 L37.6,69.74 L44.92,65.51 L47.88,67.27 L47.92,70.71 L40.6,74.93 L47.03,79.31 L55.8,74.24 L55.45,67.45 L64.48,62.24 L73.47,67.43 L73.12,74.3 L81.89,79.37 L88.32,74.99 L81,70.77 L81.04,67.33 L84,65.58 Z" fill="none" stroke="currentColor" stroke-width="1.5"/></svg>