<svg xmlns="http://www.w3.org/2000/svg" viewBox="0 0 129.03 113.93" width="24" height="24"><path d="M28.3,108.18 L2.05,62.72 L28.3,5.75 L90.76,0 L126.97,51.22 L100.72,108.18 L38.26,113.93 Z" fill="none" stroke="currentColor" stroke-width="1.5"/><path d="M97.23,56.12 L85.01,62.4 L79.54,56.93 L58.09,56.33 L48.09,46.33 L35.64,56.97 L44.09,70.17 L87.85,113.93 L90.76,113.93 L118.5,77.39 Z" fill="none" stroke="currentColor" stroke-width="1.5"/><rect x="0" y="0" width="0" height="0" fill="none" stroke="currentColor"/><path d="M79.56,56.95 L76.7,54.09 L52.34,54.09 L49.48,56.95 L52.34,59.81 L52.34,59.81 L76.7,59.81 L76.7,59.81 L79.56,56.95 Z M48.09,66.06 L38.99,56.96 L48.09,47.87 L45.57,43.82 L31.66,56.2 L34.17,60.25 L34.18,60.26 L44.04,70.11 L48.09,67.6 M80.94,47.87 L90.04,56.97 L80.94,66.06 L83.46,70.11 L97.37,57.74 L94.86,53.69 L94.84,53.68 L84.99,43.82 L80.94,46.33" fill="none" stroke="currentColor" stroke-width="1.5"/></svg>