<svg xmlns="http://www.w3.org/2000/svg" viewBox="0 0 129.03 113.97" width="24" height="24"><path d="M28.3,108.18 L2.05,62.72 L28.3,5.75 L90.76,0 L126.97,51.22 L100.72,108.18 L38.26,113.93 Z" fill="none" stroke="currentColor" stroke-width="1.5"/><path d="M93.38,44.19 L95.55,56.97 L94.07,60.11 L74.54,40.58 L55.14,40.97 L48.93,52.1 L41.14,44.31 L32.81,57.42 L35.72,69.8 L79.89,113.96 L90.82,113.97 L121.45,72.26 Z" fill="none" stroke="currentColor" stroke-width="1.5"/><rect x="0" y="0" width="0" height="0" fill="none" stroke="currentColor"/><path d="M83.5,55.97 L74.87,41.02 L55.89,40.02 L45.53,55.97 L54.16,72.91 L73.14,73.91 L83.5,57.97 Z M64.51,64.31 Z M93.92,57.58 L87.77,68.23 L92.51,70.08 L100.44,57.58 L93.58,44.47 L88.83,43.86 L93.92,56.35 Z M36.51,70.08 L40.2,70.08 L35.11,57.58 L41.26,45.7 L36.51,43.86 L28.59,56.35 L35.45,69.46 Z" fill="none" stroke="currentColor" stroke-width="1.5"/></svg>