<svg xmlns="http://www.w3.org/2000/svg" viewBox="0 0 129.07 114.03" width="24" height="24"><path d="M28.3,108.23 L2.05,62.76 L28.3,5.79 L90.76,0.01 L127.01,51.23 L100.76,108.2 L38.26,113.95 Z" fill="none" stroke="currentColor" stroke-width="1.5"/><path d="M124.51,67.01 L89.51,32.01 L67.29,37.57 L61.73,32.01 L39.51,37.57 L45.16,43.22 L39.51,48.68 L45.58,54.75 L39.51,59.75 L45.86,66.1 L39.51,70.9 L45.89,77.28 L39.51,82.01 L71.51,114.01 L90.76,114.01 Z" fill="none" stroke="currentColor" stroke-width="1.5"/><rect x="0" y="0" width="0" height="0" fill="none" stroke="currentColor"/><rect x="39.51" y="32.01" width="22.22" height="5.56" fill="none" stroke="currentColor"/><rect x="39.51" y="76.45" width="22.22" height="5.56" fill="none" stroke="currentColor"/><rect x="39.51" y="54.23" width="22.22" height="5.56" fill="none" stroke="currentColor"/><rect x="67.29" y="32.01" width="22.22" height="5.56" fill="none" stroke="currentColor"/><rect x="67.29" y="76.45" width="22.22" height="5.56" fill="none" stroke="currentColor"/><rect x="67.29" y="54.23" width="22.22" height="5.56" fill="none" stroke="currentColor"/><rect x="53.4" y="43.12" width="22.22" height="5.56" fill="none" stroke="currentColor"/><rect x="53.4" y="65.34" width="22.22" height="5.56" fill="none" stroke="currentColor"/><rect x="39.51" y="43.12" width="8.33" height="5.56" fill="none" stroke="currentColor"/><rect x="39.51" y="65.34" width="8.33" height="5.56" fill="none" stroke="currentColor"/><rect x="81.18" y="43.12" width="8.33" height="5.56" fill="none" stroke="currentColor"/><rect x="81.18" y="65.34" width="8.33" height="5.56" fill="none" stroke="currentColor"/></svg>