<svg xmlns="http://www.w3.org/2000/svg" viewBox="0 0 129.03 113.93" width="24" height="24"><path d="M28.3,108.18 L2.05,62.72 L28.3,5.75 L90.76,0 L126.97,51.22 L100.72,108.18 L38.26,113.93 Z" fill="none" stroke="currentColor" stroke-width="1.5"/><path d="M94.57,42.24 L90.83,45.99 L91.65,69.58 L88.19,74.59 L86.19,72.58 L88.03,72.58 L88.03,64.37 L79.2,55.55 L72.85,58.72 L73.03,59.43 L50.56,36.95 L39.73,42.41 L38.42,53.46 L42.16,73.7 L47.58,79.02 L45.26,82.78 L76.41,113.93 L90.77,113.93 L122.61,70.28 Z" fill="none" stroke="currentColor" stroke-width="1.5"/><rect x="0" y="0" width="0" height="0" fill="none" stroke="currentColor"/><path d="M45.1,82.53 L50.4,77.24 L42.46,69.3 L42.46,44.63 L50.4,36.7 L45.1,31.4 L34.51,41.99 L34.51,71.94 L45.1,82.53 Z M83.88,31.4 L78.58,36.7 L86.51,44.63 L86.51,69.3 L78.58,77.24 L83.88,82.53 L94.46,71.94 L94.46,41.99 L83.88,31.4 Z" fill="none" stroke="currentColor" stroke-width="1.5"/><ellipse cx="53.29" cy="56.97" rx="3.75" ry="3.75" fill="none" stroke="currentColor"/><ellipse cx="64.52000000000001" cy="56.97" rx="3.75" ry="3.75" fill="none" stroke="currentColor"/><ellipse cx="75.74" cy="56.97" rx="3.75" ry="3.75" fill="none" stroke="currentColor"/></svg>