<svg xmlns="http://www.w3.org/2000/svg" viewBox="0 0 129.03 113.93" width="24" height="24"><path d="M28.3,108.18 L2.05,62.72 L28.3,5.75 L90.76,0 L126.97,51.22 L100.72,108.18 L38.26,113.93 Z" fill="none" stroke="currentColor" stroke-width="1.5"/><path d="M86.03,43.67 L76.51,44.42 L76.56,50.59 L69.57,43.61 L60.35,44.65 L60.33,50.76 L53.22,43.65 L42.99,53.9 L49.35,60.26 L43.18,60.49 L43.04,70.34 L86.63,113.93 L90.76,113.93 L118.96,76.6 Z" fill="none" stroke="currentColor" stroke-width="1.5"/><rect x="0" y="0" width="0" height="0" fill="none" stroke="currentColor"/><path d="M52.36,43.28 L43.85,43.28 L42.64,53.04 L52.36,54.25 L53.57,44.49 M68.77,59.69 L60.26,59.69 L59.05,69.44 L68.77,70.65 L69.98,60.89 M85.18,59.69 L76.67,59.69 L75.46,69.44 L85.18,70.65 L86.39,60.89 M52.36,59.69 L43.85,59.69 L42.64,69.44 L52.36,70.65 L53.57,60.9 M51.14,68.21 L45.06,68.21 L45.06,62.13 L51.14,62.13 Z M68.77,43.28 L60.26,43.28 L59.05,53.04 L68.77,54.25 L69.98,44.49 M67.55,51.8 L61.47,51.8 L61.47,45.73 L67.55,45.73 Z M85.18,43.28 L76.67,43.28 L75.46,53.04 L85.18,54.25 L86.39,44.49 M83.97,51.8 L77.89,51.8 L77.89,45.73 L83.97,45.73 Z" fill="none" stroke="currentColor" stroke-width="1.5"/></svg>