<svg xmlns="http://www.w3.org/2000/svg" viewBox="0 0 129.03 113.93" width="24" height="24"><path d="M28.3,108.18 L2.05,62.72 L28.3,5.75 L90.76,0 L126.97,51.22 L100.72,108.18 L38.26,113.93 Z" fill="none" stroke="currentColor" stroke-width="1.5"/><path d="M91.43,33.72 L90.18,43.59 L83.47,36.87 L60.07,27.29 L73.14,40.37 L57.31,32.88 L30.89,45.3 L38.06,52.47 L37.57,80.27 L71.23,113.93 L90.76,113.93 L124.58,66.86 Z" fill="none" stroke="currentColor" stroke-width="1.5"/><rect x="0" y="0" width="0" height="0" fill="none" stroke="currentColor"/><path d="M84.2,38.62 L84.22,59.3 L80.24,62.32 L80.23,40.92 L62.29,29.12 L82.95,36.47 Z M90.24,64.85 L72.35,75.2 L67.74,73.26 L86.27,62.55 L87.52,41.12 L91.49,62.69 Z M70.56,83.19 L52.64,72.87 L52.01,67.91 L70.55,78.6 L89.74,68.96 L73.05,83.19 Z M44.83,75.31 L44.81,54.63 L48.78,51.61 L48.8,73.01 L66.74,84.81 L46.07,77.47 Z M38.78,49.09 L56.68,38.73 L61.28,40.67 L42.76,51.38 L41.51,72.81 L37.54,51.25 Z M58.47,30.74 L76.39,41.07 L77.01,46.02 L58.47,35.33 L39.29,44.97 L55.98,30.75 Z M64.51,62.27 L52,55.27 L52,58.24 L64.51,65.46 L77.01,58.24 L77.01,55.27 L65.19,62.09 Z M65.19,68.23 L52,61.41 L52,63.61 L63.85,71.21 L76.35,64.76 L77.01,61.41 Z M64.51,59.32 L77.01,52.1 L77.01,50.7 L65.17,43.1 L52.67,49.56 L52,52.1 Z" fill="none" stroke="currentColor" stroke-width="1.5"/></svg>