<svg xmlns="http://www.w3.org/2000/svg" viewBox="0 0 129.03 113.93" width="24" height="24"><path d="M28.3,108.18 L2.05,62.72 L28.3,5.75 L90.76,0 L126.97,51.22 L100.72,108.18 L38.26,113.93 Z" fill="none" stroke="currentColor" stroke-width="1.5"/><path d="M96.56,38.45 L84.26,35.47 L82.37,37.41 L91.84,46.89 L91.94,59.87 L72.4,40.33 L56.51,40.3 L46.51,30.3 L36.01,39.22 L32.42,75.43 L70.92,113.93 L90.76,113.93 L124.72,66.61 Z" fill="none" stroke="currentColor" stroke-width="1.5"/><rect x="0" y="0" width="0" height="0" fill="none" stroke="currentColor"/><path d="M56.51,49.59 L64.51,54.22 L72.51,49.59 L72.51,40.34 L64.51,35.72 L56.51,40.34 L56.51,49.59 Z M67.51,68.47 L75.51,73.09 L83.51,68.47 L83.51,59.22 L75.51,54.59 L67.51,59.22 L67.51,68.47 Z M45.51,68.72 L53.51,73.34 L61.51,68.72 L61.51,59.47 L53.51,54.84 L45.51,59.47 L45.51,68.72 Z M46.51,37.41 L38.51,42.02 L38.51,71.91 L46.51,76.53 L46.51,83.62 L32.51,75.53 L32.51,38.4 L46.51,30.32 L46.51,37.41 Z M82.51,37.41 L90.51,42.02 L90.51,71.91 L82.51,76.53 L82.51,83.62 L96.51,75.53 L96.51,38.4 L82.51,30.32 L82.51,37.41 Z" fill="none" stroke="currentColor" stroke-width="1.5"/></svg>