<svg xmlns="http://www.w3.org/2000/svg" viewBox="0 0 129.03 113.93" width="24" height="24"><path d="M28.3,108.18 L2.05,62.72 L28.3,5.75 L90.76,0 L126.97,51.22 L100.72,108.18 L38.26,113.93 Z" fill="none" stroke="currentColor" stroke-width="1.5"/><path d="M76.93,113.92 L41.14,76.75 L38.03,43.73 L65.09,28.3 L89.29,39.46 L121.68,71.85 C116.4,81.33 103.84,102.94 100.68,108.22" fill="none" stroke="currentColor" stroke-width="1.5"/><rect x="0" y="0" width="0" height="0" fill="none" stroke="currentColor"/><path d="M64.52,26.73 Z M64.52,81.75 L62.7,71.82 L62.72,71.83 L62.72,58.07 L50.81,51.19 L50.81,64.95 L59.2,69.79 L48.64,75.9 L52.56,48.16 L52.57,48.16 L64.47,55.04 L76.38,48.15 L64.47,41.28 L56.07,46.13 L56.07,34.28 C89.02,57.32 89.01,57.39 89.01,57.47 L78.13,51.19 L78.13,51.18 L78.13,51.19 L78.13,51.18 L78.13,51.19 L66.22,58.07 L66.22,71.83 L78.13,64.95 L78.13,55.23 L88.65,61.31 Z" fill="none" stroke="currentColor" stroke-width="1.5"/></svg>