<svg xmlns="http://www.w3.org/2000/svg" viewBox="0 0 129.03 113.93" width="24" height="24"><path d="M28.3,108.18 L2.05,62.72 L28.3,5.75 L90.76,0 L126.97,51.22 L100.72,108.18 L38.26,113.93 Z" fill="none" stroke="currentColor" stroke-width="1.5"/><path d="M90.14,41.41 L64.51,29.97 L40.01,43.28 L38.99,72.61 L80.31,113.93 L90.76,113.93 L121.29,72.56 Z" fill="none" stroke="currentColor" stroke-width="1.5"/><rect x="0" y="0" width="0" height="0" fill="none" stroke="currentColor"/><path d="M89.54,40.96 L65.86,27.29 L39.49,40.96 L38.14,70.64 L63.16,86.64 L89.54,72.97 L90.89,43.3 Z M86.29,68.02 L78.03,63.25 L78.03,50.69 L65.83,57.73 L65.83,71.81 L76.71,65.53 L84.97,70.3 L64.51,82.11 L44.06,70.3 L52.32,65.53 L63.2,71.81 L63.2,57.73 L51,50.69 L51,63.25 L42.74,68.02 L42.74,44.39 L63.2,32.58 L63.2,42.12 L52.32,48.4 L64.51,55.44 L76.71,48.4 L65.83,42.12 L65.83,32.58 L86.29,44.39 L86.29,68.02 Z" fill="none" stroke="currentColor" stroke-width="1.5"/></svg>