<svg xmlns="http://www.w3.org/2000/svg" viewBox="0 0 129.07 114.38" width="24" height="24"><path d="M28.3,108.23 L2.05,62.76 L28.3,5.79 L90.76,0.01 L127.01,51.23 L100.76,108.2 L38.26,113.95 Z" fill="none" stroke="currentColor" stroke-width="1.5"/><path d="M81.26,32.26 L53.51,36.01 L48.28,52.44 L40.19,45.44 L48.7,82.02 L82.15,114.35 L91.15,114.38 C95.14,114.38 98.69,112.3 100.71,109.2 L121.36,73.43 Z" fill="none" stroke="currentColor" stroke-width="1.5"/><rect x="0" y="0" width="0" height="0" fill="none" stroke="currentColor"/><path d="M72.29,57.06 M93.73,55.01 L87.79,44.67 L75.67,44.67 L82.77,57.01 L80.86,60.34 L73.64,72.88 L71.41,76.75 L67.51,83.45 L77.35,83.45 L93.73,59.01 M55.38,72.88 L46.25,57.01 L40.19,46.49 L35.29,55.01 L48.18,81.46 L63.46,83.46 L69.57,72.88 L55.38,72.88 Z M85.77,41.14 L80.85,32.56 L51.62,30.56 L42.2,43.01 L48.27,53.52 L55.37,41.18 L85.77,41.18 Z" fill="none" stroke="currentColor" stroke-width="1.5"/></svg>