<svg xmlns="http://www.w3.org/2000/svg" viewBox="0 0 129.03 113.93" width="24" height="24"><path d="M28.3,108.18 L2.05,62.72 C0,59.16 0,54.77 2.05,51.22 L28.3,5.75 C30.36,2.19 34.15,0 38.26,0 L90.76,0 C94.87,0 98.67,2.19 100.72,5.75 L126.97,51.22 C129.03,54.77 129.03,59.16 126.97,62.72 L100.72,108.18 C98.67,111.74 94.87,113.93 90.76,113.93 L38.26,113.93 C34.15,113.93 30.36,111.74 28.3,108.18 L28.3,108.18 Z" fill="none" stroke="currentColor" stroke-width="1.5"/><path d="M94.51,30.97 L76.91,38.97 L60.51,38.97 L49.51,27.97 L42.74,38.97 L42.51,38.97 L34.51,42.97 L42.16,50.62 L40.51,81.97 L72.48,113.93 L90.76,113.93 C94.87,113.93 98.67,111.74 100.72,108.18 L126.71,63.17 L94.51,30.97 L94.51,30.97 Z" fill="none" stroke="currentColor" stroke-width="1.5"/><rect x="0" y="0" width="0" height="0" fill="none" stroke="currentColor"/><rect x="57.51" y="30.97" width="37" height="11" fill="none" stroke="currentColor"/><rect x="42.51" y="56.97" width="16" height="3" fill="none" stroke="currentColor"/><rect x="57.51" y="52.97" width="37" height="11" fill="none" stroke="currentColor"/><rect x="42.51" y="78.97" width="16" height="3" fill="none" stroke="currentColor"/><rect x="40.51" y="42.97" width="3" height="39" fill="none" stroke="currentColor"/><rect x="34.51" y="27.97" width="15" height="15" fill="none" stroke="currentColor"/><rect x="57.51" y="74.97" width="37" height="11" fill="none" stroke="currentColor"/></svg>