<svg xmlns="http://www.w3.org/2000/svg" viewBox="0 0 129.03 113.93" width="24" height="24"><path d="M28.3,108.18 L2.05,62.72 L28.3,5.75 L90.76,0 L126.97,51.22 L100.72,108.18 L38.26,113.93 Z" fill="none" stroke="currentColor" stroke-width="1.5"/><path d="M97.11,37.94 L49.83,46.84 L31.42,62.23 L37.38,68.18 L31.92,73.16 L72.69,113.93 L90.76,113.93 L125.11,65.94 Z" fill="none" stroke="currentColor" stroke-width="1.5"/><rect x="0" y="0" width="0" height="0" fill="none" stroke="currentColor"/><path d="M74.72,82.27 L54.56,82.27 L53.56,81.24 L74.72,80.24 L75.72,81.27 Z" fill="none" stroke="currentColor" stroke-width="1.5"/><rect x="60.77" y="72.47" width="7.74" height="8.78" fill="none" stroke="currentColor"/><path d="M86.18,65.94 L71.26,51.3 L62.13,60.9 L52.74,55.49 L45.42,65.2 L31.41,65.93 L31.41,71.63 L95.41,74.09 L97.87,65.94 Z M43.03,62.24 L50.94,51.75 L60.63,57.12 L69.92,47.36 L71.26,46.78 L86.96,62.24 L97.87,62.24 L97.87,39.63 L33.87,37.17 L31.41,62.24 Z" fill="none" stroke="currentColor" stroke-width="1.5"/></svg>