<svg xmlns="http://www.w3.org/2000/svg" viewBox="0 0 129.3 114.0" width="24" height="24"><path d="M28.4,108.2 L2.1,62.7 C0,59.1 0,54.8 2.1,51.2 L28.4,5.7 C30.5,2.1 34.3,0 38.4,0 L90.9,0 C95,0 98.8,2.2 100.9,5.7 L127.2,51.2 C129.3,54.8 129.3,59.1 127.2,62.7 L100.9,108.2 C98.8,111.8 95,113.9 90.9,113.9 L38.4,113.9 C34.2,114 30.4,111.8 28.4,108.2 Z" fill="none" stroke="currentColor" stroke-width="1.5"/><path d="M128,60.4 L94.6,27 L92.7,51.1 L79.6,38 L63.3,42.7 L47.6,27 L40.6,34 L40.6,64.3 L34.6,87 L61.6,114 L90.9,114 C95,114 98.8,111.8 100.9,108.3 L127.2,62.8 C127.5,62 127.8,61.2 128,60.4 Z" fill="none" stroke="currentColor" stroke-width="1.5"/><rect x="0" y="0" width="0" height="0" fill="none" stroke="currentColor"/><rect x="49.6" y="68" width="30" height="8" fill="none" stroke="currentColor"/><rect x="49.6" y="53" width="30" height="8" fill="none" stroke="currentColor"/><rect x="49.6" y="38" width="30" height="8" fill="none" stroke="currentColor"/><path d="M86.6,27 L81.6,27 L81.6,35 L86.6,35 L86.6,79 L81.6,79 L81.6,87 L86.6,87 L94.6,87 L94.6,79 L94.6,35 L94.6,27 Z M34.6,27 L34.6,35 L34.6,79 L34.6,87 L42.6,87 L47.6,87 L47.6,79 L42.6,79 L42.6,35 L47.6,35 L47.6,27 L42.6,27 Z" fill="none" stroke="currentColor" stroke-width="1.5"/></svg>