<svg xmlns="http://www.w3.org/2000/svg" viewBox="0 0 129.03 113.93" width="24" height="24"><path d="M28.3,108.18 L2.05,62.72 L28.3,5.75 L90.76,0 L126.97,51.22 L100.72,108.18 L38.26,113.93 Z" fill="none" stroke="currentColor" stroke-width="1.5"/><path d="M83.51,32.97 L51.51,36.97 L45.51,52.97 L50.51,57.97 L45.51,66.97 L50.51,71.97 L45.51,80.97 L78.48,113.93 L90.76,113.93 L121.96,71.41 Z" fill="none" stroke="currentColor" stroke-width="1.5"/><rect x="0" y="0" width="0" height="0" fill="none" stroke="currentColor"/><path d="M74.51,60.97 L74.51,71.97 L45.51,71.97 L45.51,80.97 L83.51,80.97 L83.51,60.97 L74.51,60.97 Z M54.51,52.97 L54.51,41.97 L83.51,41.97 L83.51,32.97 L45.51,32.97 L45.51,52.97 L54.51,52.97 Z M59.51,46.97 L59.51,57.97 L45.51,57.97 L45.51,66.97 L69.51,66.97 L69.51,55.97 L83.51,55.97 L83.51,46.97 L59.51,46.97 Z" fill="none" stroke="currentColor" stroke-width="1.5"/></svg>