<svg xmlns="http://www.w3.org/2000/svg" viewBox="0 0 129.03 113.93" width="24" height="24"><path d="M28.3,108.18 L2.05,62.72 L28.3,5.75 L90.76,0 L126.97,51.22 L100.72,108.18 L38.26,113.93 Z" fill="none" stroke="currentColor" stroke-width="1.5"/><path d="M95.13,28.29 L70.07,70.84 L56.64,46.81 L37.96,74.53 L77.36,113.93 L90.76,113.93 L126.97,62.72 Z" fill="none" stroke="currentColor" stroke-width="1.5"/><rect x="0" y="0" width="0" height="0" fill="none" stroke="currentColor"/><path d="M44.16,71.32 L40.48,69.11 L56.6,42.24 L72.08,68.37 L68.39,70.56 L56.58,50.62 L44.16,71.32 Z" fill="none" stroke="currentColor" stroke-width="1.5"/><ellipse cx="70.07" cy="69.19" rx="6.45" ry="6.45" fill="none" stroke="currentColor"/><ellipse cx="42.49" cy="69.94" rx="6.45" ry="6.45" fill="none" stroke="currentColor"/><path d="M77.99,61.68 L74.29,59.51 L77.15,54.64 L80.85,56.82 Z M83.19,52.84 L79.5,50.67 L82.36,45.8 L86.05,47.98 Z M88.4,44 L84.7,41.83 L87.56,36.96 L91.26,39.14 Z M95.08,41.5 L95.19,28.23 L83.65,34.77 L95.08,41.5 Z" fill="none" stroke="currentColor" stroke-width="1.5"/></svg>