<svg xmlns="http://www.w3.org/2000/svg" viewBox="0 0 129.03 113.93" width="24" height="24"><path d="M28.3,108.18 L2.05,62.72 L28.3,5.75 L90.76,0 L126.97,51.22 L100.72,108.18 L38.26,113.93 Z" fill="none" stroke="currentColor" stroke-width="1.5"/><path d="M78.46,38.23 L80.03,50.5 L67.7,38.17 L59.17,66.59 L47.07,75.33 L85.67,113.93 L90.76,113.93 L118.18,77.95 Z" fill="none" stroke="currentColor" stroke-width="1.5"/><rect x="0" y="0" width="0" height="0" fill="none" stroke="currentColor"/><path d="M55.11,67.2 C55.11,64.3 55.15,61.56 55.06,58.82 C55.05,58.49 54.4,58.08 53.97,57.87 C63.26,65.76 63.24,71.71 63.24,77.67 L63.24,79.25 L55.15,79.25 L55.15,75.33 L47.07,75.33 L47.07,67.2 Z M63.24,46.87 L59.16,50.89 Z M81.28,42.64 C68.54,65.77 68.52,71.72 68.52,77.67 L68.52,79.25 L73.93,79.25 L73.93,77.67 C73.93,71.72 73.95,65.77 73.91,59.81 Z" fill="none" stroke="currentColor" stroke-width="1.5"/></svg>