<svg xmlns="http://www.w3.org/2000/svg" viewBox="0 0 129.03 113.93" width="24" height="24"><path d="M28.3,108.18 L2.05,62.72 L28.3,5.75 L90.76,0 L126.97,51.22 L100.72,108.18 L38.26,113.93 Z" fill="none" stroke="currentColor" stroke-width="1.5"/><path d="M80.66,32.91 L120.96,73.29 L100.81,108.15 C99.1,111.22 95.36,113.9 91.98,113.9 L81.58,113.9 L48.37,83.91 L35.33,59.7 L40.56,60.46 L34.52,54.32 L51.01,34.75 L76.04,30.24 L80.2,34.4 L80.66,32.91" fill="none" stroke="currentColor" stroke-width="1.5"/><rect x="0" y="0" width="0" height="0" fill="none" stroke="currentColor"/><path d="M94.51,57 L80.66,32.91 L66.81,57 L80.66,81.09 L94.51,57 Z" fill="none" stroke="currentColor" stroke-width="1.5"/><path d="M34.51,59 L48.32,83 L75.99,83 L62.19,59 L34.51,59 Z" fill="none" stroke="currentColor" stroke-width="1.5"/><path d="M62.01,55 L76.04,31 L48.36,31 L34.51,55 L62.01,55 Z" fill="none" stroke="currentColor" stroke-width="1.5"/></svg>