<svg xmlns="http://www.w3.org/2000/svg" viewBox="0 0 129.16 113.93" width="24" height="24"><path d="M127.05,51.14 L100.75,5.82 C98.64,2.21 94.82,0 90.89,0 L38.28,0 C34.06,0 30.38,2.45 28.41,5.82 L2.11,51.05 C0,54.67 0.14,59 2.1,62.38 L28.41,107.9 C30.52,111.52 34.34,113.93 38.27,113.93 L90.88,113.93 C95.1,113.93 98.78,111.3 100.75,107.93 L127.05,62.61 C129.16,58.99 129.02,54.52 127.05,51.14 Z" fill="none" stroke="currentColor" stroke-width="1.5"/><path d="M94.58,50.97 L83.74,57.13 L53.58,26.97 L48.05,30.71 L47.25,29.8 L34.58,38.97 L53.27,57.65 L34.58,62.97 L56.97,85.35 L53.58,86.97 L80.55,113.93 L90.88,113.93 C95.1,113.93 98.78,111.3 100.75,107.93 L119.4,75.79 L94.58,50.97 Z" fill="none" stroke="currentColor" stroke-width="1.5"/><rect x="0" y="0" width="0" height="0" fill="none" stroke="currentColor"/><rect x="34.58" y="50.97" width="60" height="12" fill="none" stroke="currentColor"/><rect x="53.58" y="74.97" width="41" height="12" fill="none" stroke="currentColor"/><rect x="34.58" y="26.97" width="19" height="12" fill="none" stroke="currentColor"/></svg>