<svg xmlns="http://www.w3.org/2000/svg" viewBox="0 0 129.03 113.93" width="24" height="24"><path d="M28.3,108.18 L2.05,62.72 L28.3,5.75 L90.76,0 L126.97,51.22 L100.72,108.18 L38.26,113.93 Z" fill="none" stroke="currentColor" stroke-width="1.5"/><path d="M92.99,42.44 L88.43,44.55 L81.15,62.52 L77.11,58.48 L70.41,57.78 L57.85,45.22 L50.43,46.05 L43.31,38.93 L39.93,45.8 L25.34,48.76 L38.47,61.88 L27.32,72.87 L68.38,113.93 L90.76,113.93 L121.96,71.41 Z" fill="none" stroke="currentColor" stroke-width="1.5"/><rect x="0" y="0" width="0" height="0" fill="none" stroke="currentColor"/><path d="M88.26,42.39 L93.03,42.39 L104.35,73.59 L99.72,73.59 L96.47,64.24 L84.23,64.24 L80.84,73.59 L76.51,73.59 Z M95.27,60.8 L90.46,47.02 L85.47,60.8 Z M51.07,50.97 L46.56,50.97 L32.32,50.97 C32.93,51.97 33.62,53.8 34.38,55.14 L27.14,73.06 L58.3,68.69 C49.81,53.87 50.48,51.97 51.07,50.97 Z M77.3,58.46 L70.17,54.35 L70.17,57.56 L56.25,57.56 L56.25,59.62 L70.17,59.62 L70.17,62.58 L77.3,58.46 Z M43.4,45.18 L43.4,38.99 L39.23,38.99 L39.23,45.18 L25.3,45.18 L25.3,48.79 L57.79,48.79 L57.79,45.18 L43.4,45.18 Z" fill="none" stroke="currentColor" stroke-width="1.5"/></svg>