<svg xmlns="http://www.w3.org/2000/svg" viewBox="0 0 160.64 164.78" width="24" height="24"><path d="M11.64,0 C5.24,0 0,5.24 0,11.64 L0,153.14 C0,159.54 5.24,164.78 11.64,164.78 L149,164.78 C155.4,164.78 160.64,159.54 160.64,153.14 L160.64,11.64 C160.64,5.24 155.4,0 149,0 Z M11.64,6 L149,6 C152.18,6 154.64,8.46 154.64,11.64 L154.64,153.14 C154.64,156.32 152.18,158.78 149,158.78 L11.64,158.78 C8.46,158.78 6,156.32 6,153.14 L6,11.64 C6,8.46 8.46,6 11.64,6 Z M95.65,82.27 Z M63.94,149.59 C60.59,149.59 57.8,146.84 57.8,143.41 L57.8,104.3 L20.91,104.3 C18.25,104.3 14.85,101.82 14.85,98.29 L14.85,66.39 C14.85,63.09 17.76,60.16 21.64,60.16 L57.8,60.16 L57.8,21.27 C57.8,17.84 60.53,14.84 64.15,14.84 L95.84,14.84 C99.06,14.84 102.03,17.69 102.03,21.61 L102.03,49.31 C102.03,52.83 99.67,55.9 94.32,56.14 C70.61,58.19 57.29,67.92 57.29,82.22 C57.29,94.36 65.94,104.61 79.94,104.61 C86.53,104.61 96.78,102.09 102.02,88.57 C104.16,83.04 104.91,76.75 105.26,67.21 C105.26,63.26 108.13,60.16 112.21,60.16 L139.89,60.16 C143.53,60.16 146.27,63.22 146.26,66.2 L146.26,97.94 C146.26,101.64 143.39,104.3 139.36,104.3 L102.03,104.3 L102.03,142.72 C102.03,146.85 99.43,149.59 95.26,149.59 Z" fill="none" stroke="currentColor" stroke-width="1.5"/></svg>