<svg xmlns="http://www.w3.org/2000/svg" viewBox="0 0 678.89 475.3" width="24" height="24"><path d="M190.14,0 C172.07,0 157.28,14.79 157.28,32.87 L157.28,71.68 C157.28,89.76 172.07,104.54 190.14,104.54 L645.98,104.54 C664.05,104.54 678.84,89.76 678.84,71.68 L678.84,32.87 C678.84,14.79 664.05,0 645.98,0 Z M190.14,15.12 L645.98,15.12 C655.94,15.12 663.72,22.9 663.72,32.87 L663.72,71.68 C663.72,81.64 655.94,89.43 645.98,89.43 L190.14,89.43 C180.18,89.43 172.4,81.64 172.4,71.68 L172.4,32.87 C172.4,22.9 180.18,15.12 190.14,15.12 Z M612.28,40.69 C606.18,40.69 601.23,45.64 601.23,51.74 C601.23,57.84 606.18,62.79 612.28,62.79 C618.38,62.79 623.33,57.84 623.33,51.74 C623.33,45.64 618.38,40.69 612.28,40.69 Z M190.03,132.65 C174.63,132.65 161.62,143.39 158.11,157.75 L116.17,157.75 C107.64,157.75 101.22,164.81 101.22,172.89 L101.22,264.54 L15.99,264.54 C6.86,264.54 0,271.44 0,279.22 L0,354.41 C0,362.73 8,368.57 14.27,368.57 L101.22,368.57 L101.22,460.73 C101.22,468.81 107.79,475.3 115.68,475.3 L189.49,475.3 C199.32,475.3 205.44,468.85 205.44,459.12 L205.44,368.57 L278.57,368.57 L278.57,369.59 L646.03,369.59 C664.1,369.59 678.89,354.8 678.89,336.73 L678.89,297.91 C678.89,279.84 664.1,265.05 646.03,265.05 L298.49,265.05 C297.27,264.73 296,264.54 294.66,264.54 L229.43,264.54 C219.83,264.54 213.05,271.85 213.05,281.17 C212.25,303.64 210.46,318.47 205.42,331.5 C193.08,363.35 168.92,369.31 153.38,369.31 C120.41,369.31 100.02,345.14 100.02,316.53 C100.02,282.84 131.41,259.91 187.29,255.06 C199.89,254.51 205.44,247.28 205.44,238.97 L205.44,237.19 L645.86,237.19 C663.94,237.19 678.72,222.4 678.72,204.32 L678.72,165.51 C678.72,147.43 663.94,132.65 645.86,132.65 Z M190.03,147.76 L645.86,147.76 C655.82,147.76 663.61,155.55 663.61,165.51 L663.61,204.32 C663.61,214.29 655.82,222.07 645.86,222.07 L205.44,222.07 L205.44,173.71 C205.44,164.47 198.45,157.75 190.86,157.75 L174.03,157.75 C176.86,151.79 182.87,147.76 190.03,147.76 Z M612.16,173.33 C606.06,173.33 601.11,178.28 601.11,184.38 C601.11,190.49 606.06,195.44 612.16,195.44 C618.27,195.44 623.21,190.49 623.21,184.38 C623.21,178.28 618.27,173.33 612.16,173.33 Z M309.69,280.17 L646.03,280.17 C655.99,280.17 663.77,287.95 663.77,297.91 L663.77,336.73 C663.77,346.69 655.99,354.47 646.03,354.47 L309.65,354.47 C309.66,354.17 309.69,353.88 309.69,353.57 Z M154.92,281.15 Z M612.33,305.74 C606.23,305.74 601.28,310.68 601.28,316.79 C601.28,322.89 606.23,327.84 612.33,327.84 C618.44,327.84 623.38,322.89 623.38,316.79 C623.38,310.68 618.43,305.74 612.33,305.74 Z" fill="none" stroke="currentColor" stroke-width="1.5"/></svg>