<svg xmlns="http://www.w3.org/2000/svg" viewBox="0 0 195.96 169.01" width="24" height="24"><path d="M105.36,0.88 C88.61,0 72.19,3.91 59.56,11.9 L59.55,11.91 L59.53,11.92 C29.9,31.12 19.97,56.94 19.51,78.89 L10.41,78.52 L10.31,78.52 C6.09,78.63 2.71,80.22 1.36,83.13 C0,86.03 0.83,89.08 2.21,91.57 L2.25,91.63 L26.55,130.83 L26.55,130.84 C28.47,133.91 31.27,136.04 34.5,136.07 C37.73,136.1 40.57,134.04 42.54,131.02 L42.55,131.01 L67.74,92.65 L67.79,92.56 C69.04,90.33 69.73,87.57 68.63,84.88 C67.54,82.19 64.67,80.39 61.04,79.88 L60.93,79.87 L51.51,79.25 C51.18,65.92 57.41,49.54 77.19,38.07 C94.01,29.4 112.09,28.04 134.95,44.31 L137.42,46.07 L155.28,20.41 L153.1,18.65 C139.18,7.44 122.11,1.76 105.36,0.88 Z M104.97,7.02 C119.68,7.78 134.68,12.49 147.09,21.67 L135.86,37.81 C112.62,22.4 91.97,23.67 74.36,32.77 L74.3,32.81 L74.23,32.84 C51.34,46.09 44.17,66.41 45.58,82.33 L45.81,84.9 L48.38,85.06 L60.25,85.84 C62.55,86.17 62.93,86.78 63.08,87.15 C63.23,87.52 63.21,88.45 62.57,89.6 L37.53,127.73 L37.52,127.74 C36.25,129.68 35.21,130.08 34.57,130.07 C33.93,130.06 32.88,129.64 31.63,127.66 L7.45,88.63 C6.64,87.17 6.63,86.02 6.79,85.67 C6.96,85.31 7.48,84.6 10.43,84.52 L25.46,85.13 L25.39,81.94 C24.97,61.12 33.33,36.05 62.78,16.96 C74.14,9.78 89.37,6.22 104.97,7.02 Z M161.33,27.25 C158.02,27.11 154.93,29.26 152.66,32.78 L152.65,32.79 L128.5,70.44 L128.48,70.47 C127.1,72.76 126.3,75.48 127.29,78.17 C128.29,80.85 131.1,82.61 134.48,83.03 L134.52,83.04 L144.54,84.03 C145.06,95.42 139.99,106.42 131.71,115.01 C122.86,124.19 110.48,130.42 98.37,131.25 C82.67,131.61 71.46,126.95 61.17,119.13 L58.66,117.22 L41.37,142.49 L43.49,144.24 C72.05,167.76 114.1,169.01 142.23,146.98 C161.57,133.04 175.57,113.25 176.5,84.27 L186.76,84.63 L186.76,84.63 C189.62,84.72 192.6,83.79 194.28,81.26 C195.96,78.72 195.68,75.25 193.9,71.94 L193.85,71.86 L169.22,32.27 L169.16,32.18 C167.23,29.53 164.64,27.38 161.33,27.25 Z M161.08,33.24 C161.77,33.27 162.99,33.92 164.29,35.69 L188.63,74.82 C189.76,76.94 189.45,77.68 189.28,77.94 C189.1,78.21 188.41,78.68 186.96,78.63 L170.68,78.07 L170.68,81.18 C170.72,110.11 157.69,128.47 138.66,142.16 L138.61,142.19 L138.56,142.23 C113.51,161.88 75.84,161.34 49.49,141.25 L60.17,125.63 C70.7,132.98 82.84,137.63 98.59,137.25 L98.65,137.25 L98.71,137.24 C112.59,136.32 126.18,129.39 136.03,119.18 C145.87,108.97 152.05,95.31 150.38,80.95 L150.1,78.55 L135.21,77.07 C133.19,76.82 133.02,76.35 132.92,76.09 C132.83,75.83 132.84,74.87 133.62,73.57 L157.7,36.04 C159.32,33.53 160.4,33.22 161.08,33.24 Z" fill="none" stroke="currentColor" stroke-width="1.5"/></svg>