<svg xmlns="http://www.w3.org/2000/svg" viewBox="0 0 166.36 166.36" width="24" height="24"><path d="M83.11,64.84 C73,64.84 64.75,73.1 64.75,83.21 C64.75,93.32 73,101.58 83.11,101.58 C93.22,101.58 101.48,93.32 101.48,83.21 C101.48,73.1 93.22,64.84 83.11,64.84 Z M83.11,70.84 C89.98,70.84 95.48,76.35 95.48,83.21 C95.48,90.08 89.98,95.58 83.11,95.58 C76.25,95.58 70.75,90.08 70.75,83.21 C70.75,76.35 76.25,70.84 83.11,70.84 Z M83.11,54.15 C67.25,54.15 54.32,67.08 54.32,82.95 C54.32,98.81 67.25,111.74 83.11,111.74 C98.98,111.74 111.91,98.81 111.91,82.95 C111.91,67.08 98.98,54.15 83.11,54.15 Z M83.11,60.15 C95.74,60.15 105.91,70.32 105.91,82.95 C105.91,95.57 95.74,105.74 83.11,105.74 C70.49,105.74 60.32,95.57 60.32,82.95 C60.32,70.32 70.49,60.15 83.11,60.15 Z M82.54,25.29 C114.47,25.29 140.3,51.11 140.3,83.05 L146.3,83.05 C146.3,47.87 117.72,19.29 82.54,19.29 Z M18.77,83.05 C18.77,118.23 47.36,146.81 82.54,146.81 L82.54,140.81 C50.6,140.81 24.77,114.99 24.77,83.05 Z M83.18,0 C37.28,0 0,37.28 0,83.18 C0,129.09 37.28,166.36 83.18,166.36 C129.08,166.36 166.36,129.09 166.36,83.18 C166.36,37.28 129.08,0 83.18,0 Z M83.18,6 C125.84,6 160.36,40.52 160.36,83.18 C160.36,125.84 125.84,160.36 83.18,160.36 C40.52,160.36 6,125.84 6,83.18 C6,40.52 40.52,6 83.18,6 Z" fill="none" stroke="currentColor" stroke-width="1.5"/></svg>