<svg xmlns="http://www.w3.org/2000/svg" viewBox="0 0 191.23 191.19" width="24" height="24"><path d="M88.02,64.04 L81,64.06 L81,99.75 L85.76,99.75 L85.76,68.92 L96.14,99.75 L100.27,99.8 L111.17,68.61 L111.17,99.88 L115.22,99.88 L115.22,64.02 L109.1,64 L98.5,95 Z M62.04,63.58 C61.04,63.49 59.97,63.49 58.84,63.6 C53.39,64.08 49.36,66.44 46.99,69.94 C44.63,73.42 43.25,77.8 43.5,82.44 C43.5,86.26 44.66,90.85 47.07,94.45 C49.48,98.07 53.65,100.53 60.02,100.59 L60.03,100.59 L60.04,100.59 C64.91,100.59 68.78,98.85 71.13,96.39 C73.49,93.92 74.71,90.96 75.31,88.6 L70.47,87.62 C70.01,89.87 69.26,91.73 67.58,93.49 C65.9,95.25 63.95,96.59 60.05,96.59 C55.05,96.54 52.35,94.36 50.99,92.3 C48.96,89.2 48.53,86.66 48.41,82.24 C48.3,78.49 48.82,74.95 50.52,72.44 C52.21,69.93 54.88,67.76 58.99,67.39 C63.09,67.02 65.18,68.14 66.89,69.54 C68.6,70.93 69.26,72.9 69.92,74.95 L74.58,73.65 C73.75,71.1 72.47,68.49 69.97,66.44 C68.09,64.91 65.07,63.84 62.04,63.58 Z M123.17,63.97 L123.17,99.85 L127.69,99.85 L127.69,85.21 L138.19,85.21 C142.41,85.21 145.97,83.92 147.93,81.8 C149.89,79.69 150.56,76.96 150.56,74.46 C150.56,70.48 148.72,67.58 146.38,65.99 C144.04,64.41 140.95,63.97 138.85,63.97 Z M127.69,67.97 L138.85,67.97 C140.33,67.97 141.84,68.35 143.24,69.3 C144.65,70.25 145.66,71.59 145.66,74.46 C145.66,76.25 145.19,77.9 144.09,79.08 C143,80.27 141.63,81.21 138.19,81.21 L127.69,81.21 Z M33.65,130.07 L30.45,153.93 L22.6,153.93 L30.45,160.43 L30.45,172.56 L36.95,160.43 L43.78,160.43 L36.95,153.93 L36.95,133.37 Z M74.39,130.07 L71.19,144.1 L63.97,144.1 L71.19,150.6 L71.19,172.56 L77.69,150.6 L84.83,150.6 L77.69,144.1 L77.69,133.37 Z M115.13,130.07 L111.93,145.44 L104.73,145.44 L111.93,151.94 L111.93,172.56 L118.43,151.94 L125.64,151.94 L118.43,145.44 L118.43,133.37 Z M155.8,130.07 L152.6,159.09 L144.85,159.09 L152.6,165.59 L152.6,172.56 L159.1,165.59 L165.78,165.59 L159.1,159.09 L159.1,133.37 Z M115.26,12.96 C103.09,13 93.12,19.16 87.22,26.98 C83.51,25.34 78.88,24.92 74.02,25.95 L73.9,25.98 L73.79,26.01 C69.7,27.25 66.68,29.28 64.76,31.93 C63.45,33.73 62.83,35.76 62.46,37.83 C52.17,36.87 45.4,41.75 41.97,44.75 L41.91,44.8 L41.85,44.86 C36.53,50.13 33.08,57.79 33.82,66.4 C26.76,68.67 21.92,72.21 19.05,76.48 C15.89,81.19 15.03,86.48 15.03,91.24 C15.03,107.22 27.64,117.48 40.07,117.48 L40.07,117.48 L137.28,117.62 L137.28,117.62 C158.4,117.62 172.06,101.85 174.87,86.65 L174.88,86.57 L174.89,86.5 C177.67,65.15 164.77,50.15 149.6,44.85 C149.69,30.87 140.48,20.16 129.29,15.54 L129.24,15.52 L129.19,15.5 C124.34,13.72 119.66,12.94 115.26,12.96 Z M115.18,18.42 C118.94,18.41 122.99,19.1 127.24,20.65 C137.16,24.76 145.07,34.07 144.14,46.55 L143.98,48.77 L146.12,49.39 C159.87,53.38 171.97,66.03 169.44,85.72 C167.05,98.45 155.62,112.12 137.29,112.12 L40.07,111.98 L40.07,111.98 C30.64,111.98 20.53,104.36 20.53,91.24 C20.53,87.14 21.27,83.05 23.62,79.55 C25.97,76.05 29.99,72.93 37.34,70.99 L39.8,70.34 L39.34,67.84 C37.94,60.18 40.93,53.54 45.68,48.82 C49.1,45.83 54.36,41.67 64.25,43.57 L67.43,44.18 L67.52,40.94 C67.58,38.59 68.09,36.71 69.21,35.16 C70.32,33.63 72.12,32.3 75.29,31.32 C79.93,30.37 84.31,31.24 86.47,32.72 L88.8,34.31 L90.33,31.93 C95,24.67 103.84,18.43 115.18,18.42 Z M13.33,0 C6.01,0 0,6.01 0,13.33 L0,177.87 C0,185.19 6.01,191.19 13.33,191.19 L177.9,191.19 C185.22,191.19 191.23,185.19 191.23,177.87 L191.23,13.33 C191.23,6.01 185.22,0 177.9,0 Z M13.33,7 L177.9,7 C181.47,7 184.23,9.76 184.23,13.33 L184.23,177.87 C184.23,181.43 181.47,184.19 177.9,184.19 L13.33,184.19 C9.76,184.19 7,181.43 7,177.87 L7,13.33 C7,9.76 9.76,7 13.33,7 Z" fill="none" stroke="currentColor" stroke-width="1.5"/></svg>