<svg xmlns="http://www.w3.org/2000/svg" viewBox="0 0 733.74 736.61" width="24" height="24"><path d="M240.91,0.06 L226.02,86.93 L125.42,86.93 C104.99,86.93 88.08,103.84 88.08,124.27 L88.08,228.58 L16.02,228.58 L88.08,258.81 L88.08,312.37 L16.02,312.37 L88.08,342.61 L88.08,396.17 L16.02,396.17 L88.08,426.4 L88.08,479.96 L16.02,479.96 L88.08,510.2 L88.08,607.44 C88.08,627.87 104.99,644.78 125.42,644.78 L226.02,644.78 L226.02,720.52 L256.26,644.78 L309.95,644.78 L309.95,720.52 L340.19,644.78 L393.88,644.78 L393.88,720.52 L424.12,644.78 L477.81,644.78 L477.81,720.52 L508.05,644.78 L609.12,644.78 C629.55,644.78 646.47,627.87 646.47,607.44 L646.47,510.2 L717.72,510.2 L646.47,479.96 L646.47,426.4 L717.72,426.4 L646.47,396.17 L646.47,342.61 L717.72,342.61 L646.47,312.37 L646.47,258.81 L717.72,258.81 L646.47,228.58 L646.47,124.27 C646.47,103.84 629.55,86.93 609.12,86.93 L508.05,86.93 L508.05,15.39 L477.81,86.93 L424.12,86.93 L424.12,15.39 L393.88,86.93 L340.19,86.93 L340.19,15.39 L309.95,86.93 L256.26,86.93 L256.26,15.39 Z M125.42,117.16 L609.12,117.16 C613.32,117.16 616.23,120.07 616.23,124.27 L616.23,607.44 C616.23,611.64 613.32,614.55 609.12,614.55 L125.42,614.55 C121.22,614.55 118.32,611.64 118.32,607.44 L118.32,124.27 C118.32,120.07 121.22,117.16 125.42,117.16 Z M436.65,149.85 L547.79,180.09 L547.79,292.47 L578.02,164.97 Z M169.26,150.48 L154.14,291.85 L184.38,180.71 L296.76,180.71 Z M169.65,422.4 L154.76,565.23 L296.13,580.35 L185,550.11 L185,437.73 Z M563.3,423.02 L548.41,549.49 L436.03,549.49 L563.53,579.73 L578.65,438.36 Z" fill="none" stroke="currentColor" stroke-width="1.5"/></svg>