<svg xmlns="http://www.w3.org/2000/svg" viewBox="0 0 509.56 723.59" width="24" height="24"><path d="M0,0 L0,13.23 L0,723.59 L509.56,723.59 L509.56,0 Z M26.46,26.46 L483.11,26.46 L483.11,697.13 L26.46,697.13 Z M58.88,42.59 Z M449.42,42.59 Z M255.91,52.61 C143.09,52.61 51.35,144.36 51.35,257.18 C51.35,346.95 109.44,423.38 190.01,450.86 L210.75,429.92 C134.81,409.55 77.8,339.64 77.8,257.18 C77.8,158.65 157.39,79.07 255.91,79.07 C354.44,79.07 434.03,158.65 434.03,257.18 C434.03,352.13 360.1,429.5 266.54,434.98 L253.03,461.72 C253.99,461.74 254.95,461.74 255.91,461.74 C368.74,461.74 460.48,370 460.48,257.18 C460.48,144.36 368.74,52.61 255.91,52.61 Z M255.91,182.04 C214.58,182.04 180.78,215.84 180.78,257.18 C180.78,298.52 214.58,332.31 255.91,332.31 C297.25,332.31 331.05,298.52 331.05,257.18 C331.05,215.84 297.25,182.04 255.91,182.04 Z M255.91,208.5 C282.95,208.5 304.59,230.14 304.59,257.18 C304.59,284.22 282.95,305.85 255.91,305.85 C228.87,305.85 207.24,284.22 207.24,257.18 C207.24,230.14 228.87,208.5 255.91,208.5 Z M255.91,238.87 Z M284.26,373.07 L60.78,604.41 L126.3,654.11 Z M58.88,641.73 Z M449.42,641.73 Z" fill="none" stroke="currentColor" stroke-width="1.5"/></svg>