<svg xmlns="http://www.w3.org/2000/svg" viewBox="0 0 484.81 665.37" width="24" height="24"><path d="M0,0 L0,665.37 L11.34,665.37 L484.81,665.37 L484.81,144.26 L324.7,0 Z M22.68,22.68 L309.01,22.68 L309.01,160.64 L462.13,160.64 L462.13,642.69 L22.68,642.69 Z M331.68,36.82 L443.94,137.96 L331.68,137.96 Z M61,81.77 L61,104.45 L208.57,104.45 L208.57,81.77 Z M61,120.45 L61,143.13 L208.57,143.13 L208.57,120.45 Z M61,248.14 L61,270.82 L427.5,270.82 L427.5,248.14 Z M61,294.04 L61,316.71 L427.5,316.71 L427.5,294.04 Z M61,339.93 L61,362.61 L427.5,362.61 L427.5,339.93 Z M61,385.82 L61,408.5 L427.5,408.5 L427.5,385.82 Z M61,431.71 L61,454.39 L427.5,454.39 L427.5,431.71 Z M61,477.61 L61,500.28 L427.5,500.28 L427.5,477.61 Z M279.8,552.96 L279.8,575.64 L427.5,575.64 L427.5,552.96 Z" fill="none" stroke="currentColor" stroke-width="1.5"/></svg>