<svg xmlns="http://www.w3.org/2000/svg" viewBox="0 0 162.55 162.81" width="24" height="24"><path d="M123.41,46.67 L119.72,65.37 L127.22,50.48 Z M103.57,46.67 L99.87,65.37 L107.37,50.48 Z M83.72,46.67 L80.03,65.37 L87.53,50.48 Z M63.87,46.67 L60.18,65.37 L67.68,50.48 Z M44.03,46.67 L40.33,65.37 L47.83,50.48 Z M21.94,32.57 L21.94,105.89 L25.94,105.89 L42.32,105.89 L42.32,119.52 L55.59,119.52 L55.59,135.11 L108.14,135.11 L108.14,119.52 L122.49,119.52 L122.49,105.89 L142.22,105.89 L142.22,32.57 Z M29.94,40.57 L134.22,40.57 L134.22,97.89 L114.49,97.89 L114.49,111.52 L100.14,111.52 L100.14,127.11 L63.59,127.11 L63.59,111.52 L50.32,111.52 L50.32,97.89 L29.94,97.89 Z M13.07,0 C5.9,0 0,5.9 0,13.07 L0,149.74 C0,156.92 5.9,162.81 13.07,162.81 L149.48,162.81 C156.65,162.81 162.55,156.92 162.55,149.74 L162.55,13.07 C162.55,5.9 156.65,0 149.48,0 Z M13.07,8 L149.48,8 C152.36,8 154.55,10.19 154.55,13.07 L154.55,149.74 C154.55,152.62 152.36,154.81 149.48,154.81 L13.07,154.81 C10.19,154.81 8,152.62 8,149.74 L8,13.07 C8,10.19 10.19,8 13.07,8 Z" fill="none" stroke="currentColor" stroke-width="1.5"/></svg>