<svg xmlns="http://www.w3.org/2000/svg" viewBox="0 0 68.21 164.16" width="24" height="24"><path d="M39.55,131.4 L37.55,142.95 L49.31,144.95 L51.31,133.4 Z M41.55,135.4 L47.31,135.4 L47.31,140.95 L41.55,140.95 Z M18.84,131.5 L16.84,143.05 L28.59,145.05 L30.59,133.5 Z M20.84,135.5 L26.59,135.5 L26.59,141.05 L20.84,141.05 Z M33.99,19.29 L32.05,42.93 L31.91,42.95 C31.94,43.29 31.99,43.62 32.05,43.95 L32.05,55.48 C31.9,57.69 30.89,59.41 29.31,61.08 L20.09,69.74 L20.05,69.79 C17.55,72.47 16.17,75.01 16.17,78.37 L16.17,84.85 L12.45,84.85 L12.45,96.17 L24.04,96.17 L24.04,84.85 L20.17,84.85 L20.17,78.37 C20.17,75.91 20.74,74.92 22.96,72.54 L32.05,63.99 L32.04,103.15 L27.15,103.15 L34.09,115.32 L41.03,103.15 L36.04,103.15 L36.05,55.62 C36.06,55.39 36.07,55.16 36.07,54.92 L36.05,54.92 L36.05,50.65 C36.37,50.96 36.7,51.26 37.02,51.54 L45,59.09 L45.02,59.1 C46.01,60.01 46.64,60.5 47.07,61.25 C47.5,62 47.87,63.19 47.87,65.68 L47.85,72.09 L51.87,65.68 L51.87,65.68 C51.87,62.78 51.41,60.78 50.54,59.26 C49.68,57.75 48.55,56.91 47.71,56.15 L39.72,48.59 L39.68,48.56 C38.21,47.29 36.56,45.01 36.05,43.38 L36.06,37.63 Z M34.41,0 C14.49,0 0,16.7 0,32.74 L0.13,122.21 L7.88,124.22 L7.88,162.16 L58.13,164.16 L60.13,124.33 L66.21,124.34 L68.01,32.4 C68.01,14.01 50.83,0 34.41,0 Z M34.41,4 C48.51,4 64.01,16.56 64.01,32.4 L64.21,120.34 L4.13,120.21 L4,32.73 C4,19.15 16.75,4 34.41,4 Z M11.89,124.23 L56.13,124.32 L56.13,160.16 L11.89,160.16 Z" fill="none" stroke="currentColor" stroke-width="1.5"/></svg>