<svg xmlns="http://www.w3.org/2000/svg" viewBox="0 0 197.04 149.09" width="24" height="24"><path d="M12.12,0 C9.63,0 8.37,0.99 7.6,2.2 L0,14.29 L0,141.03 C0,145.07 2.53,149.09 8.3,149.09 L174.14,149.09 C177.41,149.09 178.21,147.94 178.69,145.51 L196.35,54.26 C197.04,51.14 195.39,48.69 191.64,48.69 L178.22,48.69 L178.22,19.05 C178.22,15.15 176.54,12.08 171.84,12.08 L78.38,12.08 L72.17,2.56 C71.08,0.94 69.79,0 67.41,0 Z M12.29,6 L67.32,6 L75.12,18.08 L172.22,18.08 L172.22,48.69 L113.74,48.69 C111.07,48.69 109.44,49.74 108.32,51.6 L102.46,61.71 L23.71,61.71 C20.38,61.71 18.87,63.09 18.19,66.29 L6,132.14 L6,16.02 Z M113.46,54.69 L172.22,54.69 L175.24,54.69 L190.21,54.69 L173.1,143.09 L10.08,143.09 L24.03,67.71 L105.91,67.71 Z" fill="none" stroke="currentColor" stroke-width="1.5"/></svg>