<svg xmlns="http://www.w3.org/2000/svg" viewBox="0 0 306.53 633.85" width="24" height="24"><path d="M153.26,0 C68.75,0 0,68.76 0,153.27 C0,219.88 42.71,276.69 102.17,297.78 L102.17,577.83 C102.17,594.75 107.42,609.07 116.8,618.96 C126.19,628.86 139.35,633.85 152.94,633.85 C177.06,633.85 198.92,616.08 203.78,589.13 L243.67,589.13 C273.4,589.13 294.91,564.4 294.91,536.37 C294.91,510.21 271.69,487.4 239.38,487.4 L204.25,487.4 L204.25,297.81 C263.77,276.76 306.53,219.92 306.53,153.27 C306.53,68.76 237.78,0 153.26,0 Z M153.26,22.68 C225.52,22.68 283.85,81.02 283.85,153.27 C283.85,215.85 240.16,267.98 181.51,280.82 L181.51,510.08 L239.38,510.08 C261.77,510.08 272.24,523.14 272.24,536.37 C272.24,553.63 261.46,566.45 243.67,566.45 L182.14,566.45 L182.14,577.79 C182.14,600.78 168.64,611.17 152.94,611.17 C144.67,611.17 138.11,608.47 133.25,603.35 C128.39,598.23 124.83,590.22 124.83,577.83 L124.83,280.64 C66.58,267.5 22.68,215.56 22.68,153.27 C22.68,81.02 81.01,22.68 153.26,22.68 Z M151.75,74.76 C108.52,74.76 73.24,110.04 73.24,153.27 C73.24,196.5 108.52,231.79 151.75,231.79 C194.98,231.79 230.26,196.5 230.26,153.27 C230.26,110.04 194.98,74.76 151.75,74.76 Z M151.75,97.43 C182.72,97.43 207.59,122.3 207.59,153.27 C207.59,184.24 182.72,209.11 151.75,209.11 C120.78,209.11 95.91,184.24 95.91,153.27 C95.91,122.3 120.78,97.43 151.75,97.43 Z" fill="none" stroke="currentColor" stroke-width="1.5"/></svg>