<svg xmlns="http://www.w3.org/2000/svg" viewBox="0 0 855.12 603.97" width="24" height="24"><path d="M484.66,0 C447.74,0 417.7,30.04 417.7,66.96 L417.7,124.75 L385.16,124.75 C379.42,124.75 374.76,129.41 374.76,135.15 L374.76,165.92 L10.39,165.92 L0,593.58 L844.72,603.97 L855.12,176.31 L479.39,165.92 L479.39,135.15 C479.39,129.41 474.74,124.75 469,124.75 L438.48,124.75 L438.48,66.96 C438.48,41.2 458.9,20.79 484.66,20.79 L745.79,20.79 C771.55,20.79 791.96,41.2 791.96,66.96 L791.96,134.01 C791.96,140.6 797.18,144.49 802.35,144.49 C808.01,144.49 812.75,140.7 812.75,134.3 L812.75,66.96 C812.75,30.04 782.7,0 745.79,0 Z M395.55,145.54 L458.61,145.54 L458.61,165.92 L395.55,165.92 Z M20.79,186.7 L834.33,186.7 L834.33,583.18 L20.79,583.18 Z M53.07,208.16 L93.23,228.95 Z M594.88,208.16 L635.03,228.95 Z M678.14,208.16 L718.3,228.95 Z M761.41,208.16 L801.57,228.95 Z M52.29,249.19 L41.89,302 L93.4,312.39 L103.79,259.58 Z M135.59,249.19 L125.2,302 L176.71,312.39 L187.1,259.58 Z M219.29,249.19 L208.9,302 L260.41,312.39 L270.8,259.58 Z M302.6,249.19 L292.2,302 L343.71,312.39 L354.11,259.58 Z M385.48,249.19 L375.08,302 L426.59,312.39 L436.99,259.58 Z M469.03,249.19 L458.63,302 L510.14,312.39 L520.54,259.58 Z M594.21,249.19 L583.81,302 L635.32,312.39 L645.71,259.58 Z M677.6,249.19 L667.2,302 L718.71,312.39 L729.11,259.58 Z M760.6,249.19 L750.2,302 L801.71,312.39 L812.11,259.58 Z M62.68,269.97 L83.01,269.97 L83.01,291.6 L62.68,291.6 Z M145.98,269.97 L166.31,269.97 L166.31,291.6 L145.98,291.6 Z M229.69,269.97 L250.02,269.97 L250.02,291.6 L229.69,291.6 Z M312.99,269.97 L333.32,269.97 L333.32,291.6 L312.99,291.6 Z M395.87,269.97 L416.2,269.97 L416.2,291.6 L395.87,291.6 Z M479.42,269.97 L499.75,269.97 L499.75,291.6 L479.42,291.6 Z M604.6,269.97 L624.93,269.97 L624.93,291.6 L604.6,291.6 Z M687.99,269.97 L708.32,269.97 L708.32,291.6 L687.99,291.6 Z M770.99,269.97 L791.32,269.97 L791.32,291.6 L770.99,291.6 Z M52.29,332.59 L41.89,385.4 L93.4,395.8 L103.79,342.99 Z M135.59,332.59 L125.2,385.4 L176.71,395.8 L187.1,342.99 Z M219.29,332.59 L208.9,385.4 L260.41,395.8 L270.8,342.99 Z M302.6,332.59 L292.2,385.4 L343.71,395.8 L354.11,342.99 Z M594.21,332.59 L583.81,385.4 L635.32,395.8 L645.71,342.99 Z M677.6,332.59 L667.2,385.4 L718.71,395.8 L729.11,342.99 Z M384.91,332.84 L374.51,385.15 L510.67,395.55 L521.07,343.23 Z M760.07,333.1 L749.67,426.33 L802.24,436.72 L812.63,343.49 Z M62.68,353.38 L83.01,353.38 L83.01,375.01 L62.68,375.01 Z M145.98,353.38 L166.31,353.38 L166.31,375.01 L145.98,375.01 Z M229.69,353.38 L250.02,353.38 L250.02,375.01 L229.69,375.01 Z M312.99,353.38 L333.32,353.38 L333.32,375.01 L312.99,375.01 Z M604.6,353.38 L624.93,353.38 L624.93,375.01 L604.6,375.01 Z M687.99,353.38 L708.32,353.38 L708.32,375.01 L687.99,375.01 Z M395.3,353.63 L500.28,353.63 L500.28,374.76 L395.3,374.76 Z M770.46,353.89 L791.85,353.89 L791.85,415.93 L770.46,415.93 Z M219.29,415.92 L208.9,468.73 L260.41,479.12 L270.8,426.31 Z M302.6,415.92 L292.2,468.73 L343.71,479.12 L354.11,426.31 Z M385.48,415.92 L375.08,468.73 L426.59,479.12 L436.99,426.31 Z M469.03,415.92 L458.63,468.73 L510.14,479.12 L520.54,426.31 Z M594.21,415.92 L583.81,468.73 L635.32,479.12 L645.71,426.31 Z M677.6,415.92 L667.2,468.73 L718.71,479.12 L729.11,426.31 Z M52.91,416.16 L42.51,468.48 L178.67,478.87 L189.07,426.56 Z M229.69,436.71 L250.02,436.71 L250.02,458.33 L229.69,458.33 Z M312.99,436.71 L333.32,436.71 L333.32,458.33 L312.99,458.33 Z M395.87,436.71 L416.2,436.71 L416.2,458.33 L395.87,458.33 Z M479.42,436.71 L499.75,436.71 L499.75,458.33 L479.42,458.33 Z M604.6,436.71 L624.93,436.71 L624.93,458.33 L604.6,458.33 Z M687.99,436.71 L708.32,436.71 L708.32,458.33 L687.99,458.33 Z M63.3,436.95 L168.28,436.95 L168.28,458.09 L63.3,458.09 Z M760.07,458.09 L749.67,551.31 L802.24,561.71 L812.63,468.48 Z M770.46,478.87 L791.85,478.87 L791.85,540.92 L770.46,540.92 Z M52.29,499.01 L41.89,551.82 L93.4,562.21 L103.79,509.4 Z M135.59,499.01 L125.2,551.82 L176.71,562.21 L187.1,509.4 Z M469.03,499.01 L458.63,551.82 L510.14,562.21 L520.54,509.4 Z M594.21,499.01 L583.81,551.82 L635.32,562.21 L645.71,509.4 Z M677.6,499.01 L667.2,551.82 L718.71,562.21 L729.11,509.4 Z M218.37,499.78 L207.98,551.05 L427.94,561.44 L438.34,510.17 Z M62.68,519.79 L83.01,519.79 L83.01,541.42 L62.68,541.42 Z M145.98,519.79 L166.31,519.79 L166.31,541.42 L145.98,541.42 Z M479.42,519.79 L499.75,519.79 L499.75,541.42 L479.42,541.42 Z M604.6,519.79 L624.93,519.79 L624.93,541.42 L604.6,541.42 Z M687.99,519.79 L708.32,519.79 L708.32,541.42 L687.99,541.42 Z M228.77,520.57 L417.55,520.57 L417.55,540.65 L228.77,540.65 Z" fill="none" stroke="currentColor" stroke-width="1.5"/></svg>