<svg xmlns="http://www.w3.org/2000/svg" viewBox="0 0 143.75 179.96" width="24" height="24"><path d="M29.06,128.3 L29.06,134.3 L128.22,134.3 L128.22,128.3 Z M29.06,116.09 L29.06,122.09 L128.22,122.09 L128.22,116.09 Z M29.06,103.88 L29.06,109.88 L128.22,109.88 L128.22,103.88 Z M29.06,91.67 L29.06,97.67 L128.22,97.67 L128.22,91.67 Z M29.06,79.46 L29.06,85.46 L128.22,85.46 L128.22,79.46 Z M29.06,67.25 L29.06,73.25 L128.22,73.25 L128.22,67.25 Z M96.15,149.07 L96.15,155.07 L128.22,155.07 L128.22,149.07 Z M12.91,0 L12.92,13.79 L0,13.79 L0,47.2 L12.94,47.2 L13.04,179.82 L16.03,179.82 L143.75,179.96 L143.68,39.02 L100.36,0.13 Z M18.91,6.01 L96.21,6.13 L96.21,43.36 L137.68,43.36 L137.75,173.95 L19.03,173.83 L18.94,47.2 L72.7,47.2 L72.7,13.79 L18.92,13.79 Z M102.21,9.86 L132.84,37.36 L102.21,37.36 Z M53.65,22.31 C57.64,22.31 60.01,25.1 61.02,27.61 L58.98,28.43 C58.18,26.44 56.65,24.51 53.65,24.51 C51.65,24.51 50.08,25.1 48.98,26.23 C47.87,27.36 47.17,29.09 47.17,31.63 L47.17,31.63 L47.17,31.63 C47.16,34.41 48.1,36.09 49.31,37.16 C50.52,38.24 52.07,38.68 53.21,38.68 C55.17,38.66 57.5,37.66 58.93,36.64 L58.93,33.56 L53.45,33.56 L53.45,31.37 L61.14,31.37 L61.14,37.8 L60.72,38.13 C58.91,39.58 56.04,40.85 53.23,40.88 L53.23,40.88 L53.22,40.88 C51.54,40.88 49.51,40.29 47.85,38.8 C46.18,37.32 44.96,34.93 44.97,31.63 C44.97,28.67 45.83,26.3 47.41,24.69 C48.98,23.08 51.2,22.31 53.65,22.31 Z M33.91,22.34 L33.91,22.34 C38.22,22.34 42.36,26.19 42.26,31.31 C42.25,36.83 38.59,40.85 34.08,40.85 C31.82,40.85 29.61,40.1 28.01,38.42 C26.41,36.75 25.48,34.22 25.49,30.89 C25.49,30.89 25.49,30.89 25.49,30.89 C25.49,30.89 25.49,30.89 25.49,30.89 C25.49,29.18 26.09,27.14 27.45,25.41 C28.8,23.69 31,22.34 33.91,22.34 Z M12.31,22.74 L14.51,22.74 L14.51,38.4 L23.49,38.4 L23.49,40.6 L12.31,40.6 Z M33.91,24.54 C31.65,24.54 30.18,25.49 29.17,26.77 C28.17,28.06 27.69,29.73 27.69,30.89 L27.69,30.9 L27.69,30.9 C27.68,33.82 28.46,35.71 29.6,36.9 C30.74,38.09 32.29,38.65 34.08,38.65 C37.31,38.65 40.06,35.9 40.06,31.29 L40.06,31.28 L40.06,31.27 C40.14,27.38 36.87,24.54 33.91,24.54 Z" fill="none" stroke="currentColor" stroke-width="1.5"/></svg>