<svg xmlns="http://www.w3.org/2000/svg" viewBox="0 0 629.82 629.82" width="24" height="24"><path d="M314.91,0 C141.13,0 0,141.13 0,314.91 C0,488.7 141.13,629.82 314.91,629.82 C488.7,629.82 629.82,488.7 629.82,314.91 C629.82,141.13 488.7,0 314.91,0 Z M317.5,22.71 C474.08,24.07 601.05,148.23 606.91,303.68 L391.29,303.22 L391.33,286.64 L343.21,314.98 L391.21,342.94 L391.24,325.89 L606.9,326.36 C600.93,481.74 473.95,605.8 317.4,607.11 L343.08,563.5 L326.75,563.54 L325.79,66.1 L343.08,66.13 Z M312,22.71 L286.78,66.02 L303.11,66.05 L304.07,563.59 L286.78,563.62 L312.1,607.1 C155.38,605.63 28.38,481.14 22.88,325.42 L239.13,326.82 L239.1,342.94 L287.22,314.59 L239.22,286.64 L239.18,304.14 L22.95,302.74 C29.28,147.83 155.89,24.24 312,22.71 Z" fill="none" stroke="currentColor" stroke-width="1.5"/></svg>