<svg xmlns="http://www.w3.org/2000/svg" viewBox="0 0 66.57 162.01" width="24" height="24"><path d="M8.87,125.88 L8.87,131.88 L57.85,131.88 L57.85,125.88 Z M8.87,136.09 L8.87,142.09 L57.85,142.09 L57.85,136.09 Z M8.87,146.29 L8.87,152.29 L57.85,152.29 L57.85,146.29 Z M33.39,49.61 C26.64,49.61 21.12,55.14 21.12,61.89 C21.12,68.64 26.64,74.17 33.39,74.17 C40.15,74.17 45.67,68.64 45.67,61.89 C45.67,55.14 40.15,49.61 33.39,49.61 Z M33.39,54.61 C37.44,54.61 40.67,57.84 40.67,61.89 C40.67,65.94 37.44,69.17 33.39,69.17 C29.35,69.17 26.12,65.94 26.12,61.89 C26.12,57.84 29.35,54.61 33.39,54.61 Z M9.03,9.55 L9.03,12.05 L9.03,23.47 L57.94,23.47 L57.94,9.55 Z M14.03,14.55 L52.94,14.55 L52.94,18.47 L14.03,18.47 Z M0,0 L0,2.5 L0,162.01 L66.57,162.01 L66.57,0 Z M5,5 L61.57,5 L61.57,157.01 L5,157.01 Z" fill="none" stroke="currentColor" stroke-width="1.5"/></svg>