<svg xmlns="http://www.w3.org/2000/svg" viewBox="0 0 222.16 85.1" width="24" height="24"><path d="M211.28,63.73 L209.07,76.12 L213.57,66.01 Z M201.39,63.73 L199.18,76.12 L203.68,66.01 Z M191.5,63.73 L189.29,76.12 L193.79,66.01 Z M181.62,63.73 L179.4,76.12 L183.9,66.01 Z M142.78,63.73 L140.56,76.12 L145.06,66.01 Z M132.33,63.73 L130.11,76.12 L134.61,66.01 Z M121.88,63.73 L119.66,76.12 L124.16,66.01 Z M111.43,63.73 L109.21,76.12 L113.71,66.01 Z M100.98,63.73 L98.76,76.12 L103.26,66.01 Z M90.53,63.73 L88.31,76.12 L92.81,66.01 Z M80.08,63.73 L77.86,76.12 L82.36,66.01 Z M69.63,63.73 L67.41,76.12 L71.91,66.01 Z M59.18,63.73 L56.96,76.12 L61.46,66.01 Z M48.72,63.73 L46.51,76.12 L51.01,66.01 Z M38.28,63.73 L36.06,76.12 L40.56,66.01 Z M27.82,63.73 L25.61,76.12 L30.11,66.01 Z M208.4,12.01 L211,16.51 Z M208.4,20.07 L211,24.57 Z M208.4,28.13 L211,32.63 Z M208.4,36.19 L211,40.69 Z M208.4,44.25 L211,48.75 Z M208.4,52.31 L211,56.81 Z M171.62,12.01 L174.22,16.51 Z M171.62,20.07 L174.22,24.57 Z M171.62,28.13 L174.22,32.63 Z M171.62,36.19 L174.22,40.69 Z M171.62,44.25 L174.22,48.75 Z M171.62,52.31 L174.22,56.81 Z M178.4,9.99 L204.22,9.99 L204.22,58.83 L178.4,58.83 Z M154.73,12.01 L157.33,16.51 Z M154.73,20.07 L157.33,24.57 Z M154.73,28.13 L157.33,32.63 Z M154.73,36.19 L157.33,40.69 Z M154.73,44.25 L157.33,48.75 Z M154.73,52.31 L157.33,56.81 Z M117.95,12.01 L120.54,16.51 Z M117.95,20.07 L120.54,24.57 Z M117.95,28.13 L120.54,32.63 Z M117.95,36.19 L120.54,40.69 Z M117.95,44.25 L120.54,48.75 Z M117.95,52.31 L120.54,56.81 Z M124.73,9.99 L150.54,9.99 L150.54,58.83 L124.73,58.83 Z M100.68,12.01 L103.28,16.51 Z M100.68,20.07 L103.28,24.57 Z M100.68,28.13 L103.28,32.63 Z M100.68,36.19 L103.28,40.69 Z M100.68,44.25 L103.28,48.75 Z M100.68,52.31 L103.28,56.81 Z M63.9,12.01 L66.49,16.51 Z M63.9,20.07 L66.49,24.57 Z M63.9,28.13 L66.49,32.63 Z M63.9,36.19 L66.49,40.69 Z M63.9,44.25 L66.49,48.75 Z M63.9,52.31 L66.49,56.81 Z M70.68,9.99 L96.49,9.99 L96.49,58.83 L70.68,58.83 Z M46.9,12.01 L49.5,16.51 Z M46.9,20.07 L49.5,24.57 Z M46.9,28.13 L49.5,32.63 Z M46.9,36.19 L49.5,40.69 Z M46.9,44.25 L49.5,48.75 Z M46.9,52.31 L49.5,56.81 Z M10.11,12.01 L12.71,16.51 Z M10.11,20.07 L12.71,24.57 Z M10.11,28.13 L12.71,32.63 Z M10.11,36.19 L12.71,40.69 Z M10.11,44.25 L12.71,48.75 Z M10.11,52.31 L12.71,56.81 Z M16.9,9.99 L42.71,9.99 L42.71,58.83 L16.9,58.83 Z M0,0 L0,2.25 L0,73.16 L16.01,73.16 L16.01,85.1 L154.76,85.1 L154.76,73.16 L169.83,73.16 L169.83,85.1 L222.16,85.1 L222.16,0 Z M4.5,4.5 L217.66,4.5 L217.66,80.6 L174.33,80.6 L174.33,68.66 L150.26,68.66 L150.26,80.6 L20.51,80.6 L20.51,68.66 L4.5,68.66 Z" fill="none" stroke="currentColor" stroke-width="1.5"/></svg>