<svg xmlns="http://www.w3.org/2000/svg" viewBox="0 0 535.87 499.73" width="24" height="24"><path d="M0,0 L0,6.62 L0,410.79 L223.79,410.79 C223.85,416.84 223.58,423.5 222.66,432.33 C220.57,449.3 216.58,457.64 198.92,465.27 C182.07,472.46 168.04,475.36 157.31,480.4 C140.39,487.32 135.36,493.13 134.51,499.34 L402.07,499.73 C401.86,493.56 396.03,488.09 387.07,484.14 C374.81,478.54 358.87,473.32 343.38,468.04 C323.37,460.27 318.91,456.5 314.8,441.62 C312.56,433.15 312.51,422.43 313.02,410.79 L535.87,410.79 L535.87,0 Z M13.23,13.23 L522.64,13.23 L522.64,357.67 L13.23,357.67 Z" fill="none" stroke="currentColor" stroke-width="1.5"/></svg>