<svg xmlns="http://www.w3.org/2000/svg" viewBox="0 0 658.04 658.68" width="24" height="24"><path d="M232.9,0 L232.9,11.34 L232.9,192.1 L317.61,192.1 L317.61,233.23 L232.9,233.23 L232.9,244.57 L232.9,317.95 L192.1,317.95 L192.1,233.23 L0,233.23 L0,244.57 L0,425.34 L84.71,425.34 L84.71,466.58 L0,466.58 L0,477.92 L0,658.68 L192.1,658.68 L192.1,466.58 L107.39,466.58 L107.39,425.34 L192.1,425.34 L192.1,340.62 L232.9,340.62 L232.9,425.34 L317.61,425.34 L317.61,466.58 L232.9,466.58 L232.9,477.92 L232.9,658.68 L425,658.68 L425,466.58 L340.28,466.58 L340.28,425.34 L425,425.34 L425,340.62 L465.94,340.62 L465.94,425.34 L658.04,425.34 L658.04,233.23 L465.94,233.23 L465.94,244.57 L465.94,317.95 L425,317.95 L425,233.23 L340.28,233.23 L340.28,192.1 L425,192.1 L425,0 Z M255.58,22.68 L402.32,22.68 L402.32,169.42 L255.58,169.42 Z M22.68,255.91 L169.42,255.91 L169.42,402.66 L22.68,402.66 Z M255.58,255.91 L402.32,255.91 L402.32,402.66 L255.58,402.66 Z M488.62,255.91 L635.36,255.91 L635.36,402.66 L488.62,402.66 Z M22.68,489.26 L169.42,489.26 L169.42,636 L22.68,636 Z M255.58,489.26 L402.32,489.26 L402.32,636 L255.58,636 Z" fill="none" stroke="currentColor" stroke-width="1.5"/></svg>