<svg xmlns="http://www.w3.org/2000/svg" viewBox="0 0 161.62 161.94" width="24" height="24"><path d="M0,12 L0,149.08 C0,156.16 5.79,161.94 12.86,161.94 L148.76,161.94 C155.84,161.94 161.62,156.16 161.62,149.08 L161.62,12.86 C161.62,5.78 155.84,0 148.76,0 L12.68,0 C4.52,0 0,5.78 0,12 Z M154.77,8.94 C155.49,10.06 155.9,11.4 155.9,12.86 L155.9,149.08 C155.9,153.09 152.77,156.22 148.76,156.22 L12.86,156.22 C11.32,156.22 9.9,155.75 8.74,154.95 L82.15,82.04 L41.46,41.81 L32.87,50.85 L25.16,21.97 C25.42,21.7 25.68,21.43 25.94,21.16 L54.81,28.66 L46.34,37.09 L86.56,77.68 Z M86.56,77.68 L82.15,82.04 L122.87,122.29 L114.27,130.89 L142.74,138.34 L135.19,109.3 L126.78,118.28 Z M15.34,75.26 L31.46,75.42 C37,75.42 42.49,79.46 42.49,86.26 C42.49,91.27 37.71,97.25 32.47,97.25 L22.8,97.11 L22.8,110.18 L15.34,110.17 Z M22.8,81.91 L22.8,91.3 L28.9,91.39 C31.68,91.39 34.44,89 34.44,86.12 C34.43,83.48 32.28,81.97 30.51,81.97 Z M59.9,116.8 L72.7,151.1 L79.87,151.1 L92.01,116.8 L84.65,116.8 L76.24,143.12 L67.16,116.8 Z" fill="none" stroke="currentColor" stroke-width="1.5"/></svg>