<svg xmlns="http://www.w3.org/2000/svg" viewBox="0 0 608.32 608.31" width="24" height="24"><path d="M44.91,0 C20.23,0 0,20.23 0,44.91 L0,563.4 C0,588.08 20.23,608.31 44.91,608.31 L563.41,608.31 C588.09,608.31 608.32,588.08 608.32,563.4 L608.32,44.91 C608.32,20.23 588.09,0 563.41,0 Z M44.91,22.68 L563.41,22.68 C575.92,22.68 585.64,32.4 585.64,44.91 L585.64,563.4 C585.64,575.91 575.92,585.63 563.41,585.63 L44.91,585.63 C32.4,585.63 22.68,575.91 22.68,563.4 L22.68,44.91 C22.68,32.4 32.4,22.68 44.91,22.68 Z M106.46,72.05 L95.29,465.91 L73.68,465.91 L95.29,488.59 L95.29,525.49 L117.97,488.59 L139.59,488.59 L117.97,465.91 L117.97,83.55 Z M235.35,72.05 L224.18,304.49 L202.57,304.49 L224.18,327.16 L224.18,525.49 L246.86,327.16 L268.48,327.16 L246.86,304.49 L246.86,83.55 Z M364.95,72.05 L353.79,388.77 L331.46,388.77 L353.79,411.45 L353.79,525.49 L376.46,411.45 L397.37,411.45 L376.46,388.77 L376.46,83.55 Z M495.98,72.05 L484.82,148.77 L460.34,148.77 L484.82,171.45 L484.82,525.49 L507.5,171.45 L526.26,171.45 L507.5,148.77 L507.5,83.55 Z" fill="none" stroke="currentColor" stroke-width="1.5"/></svg>