<svg xmlns="http://www.w3.org/2000/svg" viewBox="0 0 688.61 642.16" width="24" height="24"><path d="M0,0 L0,8.5 L0,527.88 L287.58,527.88 C287.65,535.65 287.31,544.21 286.12,555.55 C283.44,577.36 278.31,588.08 255.61,597.88 C233.97,607.12 215.93,610.84 202.14,617.33 C180.4,626.22 173.94,633.68 172.85,641.67 L516.67,642.16 C516.4,634.23 508.91,627.21 497.39,622.13 C481.64,614.94 461.16,608.22 441.24,601.45 C415.54,591.46 409.81,586.62 404.53,567.49 C401.64,556.61 401.58,542.82 402.23,527.88 L688.61,527.88 L688.61,0 Z M17,17 L671.61,17 L671.61,459.61 L17,459.61 Z M483.17,58.68 C475.28,58.42 469.55,66.09 472.03,73.58 C474.61,81.35 476.74,89.21 478.43,97.18 L396.21,113.31 L301.49,182.77 L201.12,142.9 L257.91,202.33 L361.33,149.94 L481.6,115.82 C482.46,122.53 483.04,129.3 483.34,136.16 C483.79,146.53 496.78,150.89 503.4,142.89 L535.98,103.49 C540.42,98.12 539.01,90.05 533.01,86.51 L488.56,60.24 C486.93,59.28 485.07,58.74 483.17,58.68 Z M466.78,180.77 L466.78,418.75 L539.46,418.75 L539.46,180.77 Z M360.27,221.48 L360.27,418.75 L432.95,418.75 L432.95,221.48 Z M147.24,247.19 L147.24,418.75 L219.93,418.75 L219.93,247.19 Z M253.4,309.34 L253.4,418.75 L326.8,418.75 L326.8,309.34 Z" fill="none" stroke="currentColor" stroke-width="1.5"/></svg>