<svg xmlns="http://www.w3.org/2000/svg" viewBox="0 0 1009.17 587.89" width="24" height="24"><path d="M0,0 L0,13.23 L0,587.89 L687.09,587.89 L687.09,523.96 L853.34,523.96 L853.34,587.89 L1009.17,587.89 L1009.17,0 Z M26.46,26.46 L982.71,26.46 L982.71,415.12 L951.25,415.12 L951.25,160.5 L973.68,160.5 L973.68,113.02 L951.25,113.02 L951.25,74.71 L154.53,74.71 L154.53,57.02 L91.39,57.02 L91.39,103.74 L116.91,103.74 L116.91,254.25 L77,254.25 L77,333.8 L170.69,333.8 L170.69,254.25 L128.25,254.25 L128.25,103.74 L154.53,103.74 L154.53,86.04 L939.91,86.04 L939.91,113.02 L910.04,113.02 L910.04,160.5 L939.91,160.5 L939.91,415.12 L891.18,415.12 L891.18,494.41 L982.71,494.41 L982.71,561.43 L879.23,561.43 L879.23,497.08 L660.98,497.08 L660.98,561.43 L26.46,561.43 Z M579.04,118.64 L579.04,390.49 L778.8,390.49 L778.8,118.64 Z M502.78,130.66 C486.17,130.42 486.17,155.46 502.78,155.22 L557.32,155.22 C573.94,155.46 573.94,130.42 557.32,130.66 Z M800.46,130.66 C783.85,130.42 783.85,155.46 800.46,155.22 L855,155.22 C871.62,155.46 871.62,130.42 855,130.66 Z M503.03,174.97 C486.42,174.74 486.42,199.78 503.03,199.54 L557.57,199.54 C574.19,199.78 574.19,174.74 557.57,174.97 Z M800.71,174.97 C784.1,174.74 784.1,199.78 800.71,199.54 L855.25,199.54 C871.86,199.78 871.86,174.74 855.25,174.97 Z M222.71,176.72 L222.71,408.55 L421.71,408.55 L421.71,176.72 Z M502.67,221.76 C486.06,221.53 486.06,246.56 502.67,246.33 L557.22,246.33 C573.83,246.56 573.83,221.53 557.22,221.76 Z M800.35,221.76 C783.74,221.53 783.74,246.56 800.35,246.33 L854.89,246.33 C871.51,246.56 871.51,221.53 854.89,221.76 Z M502.67,266.4 C486.06,266.17 486.06,291.21 502.67,290.97 L557.22,290.97 C573.83,291.21 573.83,266.17 557.22,266.4 Z M800.35,266.4 C783.74,266.17 783.74,291.21 800.35,290.97 L854.89,290.97 C871.51,291.21 871.51,266.17 854.89,266.4 Z M503.03,309.97 C486.42,309.74 486.42,334.78 503.03,334.54 L557.57,334.54 C574.19,334.78 574.19,309.74 557.57,309.97 Z M800.71,309.97 C784.1,309.74 784.1,334.78 800.71,334.54 L855.25,334.54 C871.86,334.78 871.86,309.74 855.25,309.97 Z M502.67,353.9 C486.06,353.67 486.06,378.71 502.67,378.47 L557.22,378.47 C573.83,378.71 573.83,353.67 557.22,353.9 Z M800.35,353.9 C783.74,353.67 783.74,378.71 800.35,378.47 L854.89,378.47 C871.51,378.71 871.51,353.67 854.89,353.9 Z M49.85,470.85 C43.07,470.95 37.65,476.53 37.75,483.31 L37.75,539.11 C37.52,555.72 62.55,555.72 62.32,539.11 L62.32,483.31 C62.42,476.39 56.78,470.75 49.85,470.85 Z M103.02,470.85 C96.23,470.95 90.82,476.53 90.92,483.31 L90.92,539.11 C90.68,555.72 115.72,555.72 115.48,539.11 L115.48,483.31 C115.58,476.39 109.94,470.75 103.02,470.85 Z M156.18,470.85 C149.4,470.95 143.98,476.53 144.08,483.31 L144.08,539.11 C143.85,555.72 168.88,555.72 168.65,539.11 L168.65,483.31 C168.75,476.39 163.11,470.75 156.18,470.85 Z M209.35,470.85 C202.56,470.95 197.15,476.53 197.25,483.31 L197.25,539.11 C197.01,555.72 222.05,555.72 221.81,539.11 L221.81,483.31 C221.91,476.39 216.27,470.75 209.35,470.85 Z M262.51,470.85 C255.73,470.95 250.31,476.53 250.41,483.31 L250.41,539.11 C250.18,555.72 275.22,555.72 274.98,539.11 L274.98,483.31 C275.08,476.39 269.44,470.75 262.51,470.85 Z M315.68,470.85 C308.9,470.95 303.48,476.53 303.58,483.31 L303.58,539.11 C303.34,555.72 328.38,555.72 328.14,539.11 L328.14,483.31 C328.24,476.39 322.6,470.75 315.68,470.85 Z M368.84,470.85 C362.06,470.95 356.65,476.53 356.74,483.31 L356.74,539.11 C356.51,555.72 381.55,555.72 381.31,539.11 L381.31,483.31 C381.41,476.39 375.77,470.75 368.84,470.85 Z M422.01,470.85 C415.23,470.95 409.81,476.53 409.91,483.31 L409.91,539.11 C409.68,555.72 434.71,555.72 434.48,539.11 L434.48,483.31 C434.58,476.39 428.93,470.75 422.01,470.85 Z M475.17,470.85 C468.39,470.95 462.98,476.53 463.08,483.31 L463.08,539.11 C462.84,555.72 487.88,555.72 487.64,539.11 L487.64,483.31 C487.74,476.39 482.1,470.75 475.17,470.85 Z M528.34,470.85 C521.56,470.95 516.14,476.53 516.24,483.31 L516.24,539.11 C516.01,555.72 541.04,555.72 540.81,539.11 L540.81,483.31 C540.91,476.39 535.27,470.75 528.34,470.85 Z M581.51,470.85 C574.72,470.95 569.31,476.53 569.41,483.31 L569.41,539.11 C569.17,555.72 594.21,555.72 593.97,539.11 L593.97,483.31 C594.07,476.39 588.43,470.75 581.51,470.85 Z M634.67,470.85 C627.89,470.95 622.47,476.53 622.57,483.31 L622.57,539.11 C622.34,555.72 647.37,555.72 647.14,539.11 L647.14,483.31 C647.24,476.39 641.6,470.75 634.67,470.85 Z" fill="none" stroke="currentColor" stroke-width="1.5"/></svg>