<svg xmlns="http://www.w3.org/2000/svg" viewBox="0 0 613.24 613.24" width="24" height="24"><path d="M306.62,0 C137.43,0 0,137.42 0,306.62 C0,475.82 137.43,613.24 306.62,613.24 C475.82,613.24 613.24,475.82 613.24,306.62 C613.24,137.42 475.82,0 306.62,0 Z M306.62,24.57 C462.54,24.57 588.68,150.7 588.68,306.62 C588.68,318.02 587.98,329.26 586.67,340.3 L553.12,220.22 C549.25,205.88 536.89,195.06 523.55,196.2 C510.21,197.35 500.07,208.4 496.54,222.41 L459.61,386.78 L427.83,221.96 L427.89,222.35 C425.58,208.06 413.28,197.64 400.55,197.57 C387.82,197.5 375.49,207.36 372.12,221.63 L333,387.28 L299.5,217.55 C296.08,203.85 283.85,196.66 272.64,196.45 C261.44,196.23 248.55,203.73 245.14,217.01 L203.42,387.9 L168.39,214.36 C166.53,206.74 161.37,202.06 156.54,199.54 C151.72,197.02 146.73,196.03 141.66,195.98 C136.59,195.94 131.35,196.85 126.26,199.59 C121.17,202.34 116.13,207.61 114.36,214.47 L81.38,382.4 L41.52,210.01 C80.91,101.76 184.65,24.57 306.62,24.57 Z M525.7,222.38 C525.9,222.42 526.53,223.21 527.58,227.11 L574.52,395.13 C537.45,507.61 431.62,588.68 306.62,588.68 C150.7,588.68 24.57,462.54 24.57,306.62 C24.57,292.99 25.55,279.59 27.42,266.48 L58.49,400.87 C61.48,411.76 70.15,418.65 80.46,419.34 C90.76,420.02 101.97,411.37 104.87,399.92 L139.68,222.73 C140.16,222.6 140.54,222.43 141.42,222.44 C142.18,222.45 142.54,222.62 143.1,222.76 L180.16,406.39 C184.24,419.02 195.57,423.67 204,423.47 C208.22,423.37 212.28,422.44 216.26,420.16 C220.24,417.89 224.59,413.65 225.9,407.37 L270.76,223.58 C271.13,222.16 270.84,222.87 272.14,222.9 C273.42,222.92 273.58,223 273.67,223.32 L309.2,403.33 C310.45,409.38 313.49,415 318.27,418.68 C323.05,422.35 329.06,423.65 334.27,423.09 C344.68,421.96 353.31,414.78 356.21,404.07 L397.86,227.72 L397.86,227.71 C398.91,223.28 400.05,224.02 400.41,224.03 C400.77,224.03 401.17,222.85 401.78,226.57 L435.95,403.83 C438.95,415.97 450.4,424.05 460.54,423.42 C470.67,422.79 480.11,415.76 482.67,404.81 L522.2,228.88 C523.74,222.75 526.32,222.52 525.81,222.56 C525.62,222.58 525.58,222.35 525.7,222.38 Z" fill="none" stroke="currentColor" stroke-width="1.5"/></svg>