<svg xmlns="http://www.w3.org/2000/svg" viewBox="0 0 484.92 665.47" width="24" height="24"><path d="M0,0 L0,665.47 L11.34,665.47 L484.92,665.47 L484.92,142.42 L325.12,0 Z M22.68,22.68 L309.46,22.68 L309.46,158.84 L462.25,158.84 L462.25,642.79 L22.68,642.79 Z M332.14,36.63 L443.82,136.17 L332.14,136.17 Z M54.01,190.88 L54.01,228.68 L92.65,228.68 L92.65,190.88 Z M123.46,190.88 L123.46,228.68 L417.99,228.68 L417.99,190.88 Z M54.01,282.93 L54.01,320.72 L92.65,320.72 L92.65,282.93 Z M123.46,282.93 L123.46,320.72 L417.99,320.72 L417.99,282.93 Z M54.01,374.97 L54.01,412.77 L92.65,412.77 L92.65,374.97 Z M123.46,374.97 L123.46,412.77 L417.99,412.77 L417.99,374.97 Z M54.01,467.02 L54.01,504.81 L92.65,504.81 L92.65,467.02 Z M123.46,467.02 L123.46,504.81 L417.99,504.81 L417.99,467.02 Z" fill="none" stroke="currentColor" stroke-width="1.5"/></svg>