<svg xmlns="http://www.w3.org/2000/svg" viewBox="0 0 628.77 628.77" width="24" height="24"><path d="M314.39,0 C140.89,0 0,140.89 0,314.39 C0,487.88 140.89,628.77 314.39,628.77 C487.88,628.77 628.77,487.88 628.77,314.39 C628.77,140.89 487.88,0 314.39,0 Z M314.39,22.68 C462.27,22.68 584.25,132.43 603.45,275.01 L310.53,307.27 L160.39,562.22 C77.68,510.76 22.68,419.07 22.68,314.39 C22.68,153.15 153.15,22.68 314.39,22.68 Z M605.61,297.58 C605.92,303.14 606.1,308.74 606.1,314.39 C606.1,475.63 475.63,606.09 314.39,606.09 C265.94,606.09 220.28,594.3 180.09,573.45 L324.31,328.57 Z" fill="none" stroke="currentColor" stroke-width="1.5"/></svg>