<svg xmlns="http://www.w3.org/2000/svg" viewBox="0 0 486.23 629.62" width="24" height="24"><path d="M242.67,0 C192.49,0 153.17,21.68 127.15,51.41 C101.14,81.14 87.82,118.58 87.82,152.14 L87.82,152.16 L88.22,272.24 L45.63,272.24 C20.55,272.24 0,292.79 0,317.87 L0,584 C0,609.08 20.55,629.62 45.63,629.62 L440.6,629.62 C465.68,629.62 486.23,609.08 486.23,584 L486.23,317.87 C486.23,292.79 465.68,272.24 440.6,272.24 L398.17,272.24 L396.69,152.76 C396.69,70.54 331.38,0 242.67,0 Z M242.67,22.68 C319.48,22.68 374.01,82.41 374.01,152.76 L374.01,152.83 L375.38,263.78 L345.97,263.78 L346.43,151.52 L346.43,151.5 C346.43,125.11 340.04,99.76 323.42,80.79 C306.81,61.81 280.41,50.51 244.94,50.51 C208.54,50.51 181.16,59.97 163.39,78.62 C145.62,97.26 138.65,123.55 138.65,153.77 L138.65,153.82 L139.56,263.78 L110.86,263.78 L110.49,152.1 C110.5,124.7 121.98,91.76 144.22,66.34 C166.48,40.91 198.92,22.68 242.67,22.68 Z M244.94,73.18 C275.79,73.18 294.47,82.16 306.36,95.73 C318.24,109.3 323.76,128.78 323.76,151.5 L323.27,272.24 L162.31,272.24 L161.32,153.77 L161.32,153.76 C161.33,126.99 167.34,107.33 179.8,94.26 C192.26,81.19 212.36,73.18 244.94,73.18 Z M45.63,294.91 L440.6,294.91 C453.51,294.91 463.55,304.96 463.55,317.87 L463.55,584 C463.55,596.9 453.51,606.95 440.6,606.95 L45.63,606.95 C32.72,606.95 22.68,596.9 22.68,584 L22.68,317.87 C22.68,304.96 32.72,294.91 45.63,294.91 Z M243.53,353.49 C214.03,353.49 194.11,377.78 194.11,401.88 C194.11,420.28 201.88,435.75 219.29,446.5 L192.44,542.87 C188.47,554.21 197.48,564.8 208.12,564.8 L273.91,564.8 C289.71,564.8 294.87,552.79 290.72,541.63 L265.65,445.71 C280.18,437.86 292.32,426.09 292.32,402.41 C292.32,371.74 266.13,353.49 243.53,353.49 Z" fill="none" stroke="currentColor" stroke-width="1.5"/></svg>