<svg xmlns="http://www.w3.org/2000/svg" viewBox="0 0 755.29 665.91" width="24" height="24"><path d="M472.71,0.03 C419.6,0.56 371.2,26.02 341.26,67.57 C318.66,57.04 292.29,56.94 273.65,63.12 L273.47,63.18 L273.29,63.25 C246.86,73.25 229.88,92.73 225.56,118.03 C185.91,113.79 151.94,128.98 131.53,147.24 L131.29,147.46 L131.06,147.7 C95.95,183.82 88.05,220.32 91.1,252.5 C36.93,267.44 0,311.16 0,365.79 C0,408.22 18.34,440.19 42.95,460.75 C67.55,481.32 98,491.03 124.1,491.03 L172.06,491.03 C192.32,590.74 280.6,665.91 386.23,665.91 C492.51,665.91 581.2,589.82 600.75,489.21 C689.63,482.19 755.29,399.91 755.29,323.11 C755.29,225.51 694.88,169.84 634.46,150.56 C632.03,77.71 592.26,38.75 544.78,14.7 L544.49,14.55 L544.18,14.42 C523.93,5.9 503.42,1.33 483.39,0.27 C479.81,0.08 476.25,0 472.71,0.03 Z M475.4,18.83 C495.33,19.03 516,23.14 536.54,31.73 C582.19,54.93 616.05,86.43 616.03,157.37 L616.03,164.56 L622.97,166.48 C678.71,181.87 736.39,229.96 736.39,323.11 C736.39,387.65 679.43,461.24 603.62,469.95 C604.39,462.52 604.78,454.99 604.78,447.36 C604.78,326.77 506.82,228.81 386.23,228.81 C265.64,228.81 167.68,326.77 167.68,447.36 C167.68,455.74 168.17,464 169.09,472.13 L124.1,472.13 C102.82,472.13 75.94,463.71 55.06,446.26 C34.18,428.81 18.9,402.89 18.9,365.79 C18.9,317.2 51.58,279.76 102.89,268.66 L111.61,266.78 L110.23,257.97 C105.58,228.24 110.05,196.61 144.4,161.13 C162.29,145.24 194.46,130.93 231.5,137.72 L242.4,139.72 L242.65,128.64 C243.17,105.07 254.82,90.52 279.77,81.02 C294.6,76.17 321.94,76.57 339.27,87.17 L347.14,91.98 L352.14,84.23 C378.49,43.35 424.49,18.33 475.4,18.83 Z M386.23,247.7 C496.61,247.7 585.88,336.99 585.88,447.36 C585.88,557.74 496.61,647.01 386.23,647.01 C275.86,647.01 186.58,557.74 186.58,447.36 C186.58,336.99 275.86,247.7 386.23,247.7 Z M370.97,304.98 L321.72,456.81 L363.11,456.81 L324.97,573.73 L341.84,581.88 L457.29,407.46 L408.44,407.18 L444.83,304.98 L431.43,304.98 Z M384.71,323.88 L418.04,323.88 L381.7,425.93 L422.25,426.16 L364.55,513.32 L389.15,437.91 L347.71,437.91 Z" fill="none" stroke="currentColor" stroke-width="1.5"/></svg>