<svg xmlns="http://www.w3.org/2000/svg" viewBox="0 0 155.18 165.05" width="24" height="24"><path d="M128.75,72.78 C131.2,72.78 133.99,71 133.99,67.37 L133.99,22.84 C133.99,19.17 131.4,17.06 129.22,17.06 L81.64,17.06 C78.75,17.06 76.49,19.5 76.49,22.37 L76.49,28.82 C76.49,31.29 75.34,32.15 73.12,32.15 L42.48,32.15 C36.94,32.15 32.71,36.53 32.71,41.79 L32.71,70.09 L57.33,70.09 L57.33,61.88 C57.33,59.46 59.08,58.25 61.53,58.25 L72.4,58.25 C75.14,58.25 76.49,59.79 76.49,62.18 L76.49,66.95 C76.49,70.47 79.09,72.78 81.68,72.78 Z M73.15,145.52 C76.07,145.52 78.71,143.5 78.71,139.86 L78.71,133.34 C78.71,131.54 79.94,130.35 81.87,130.35 L113.06,130.35 C118.63,130.35 122.53,125.88 122.53,120.41 L122.53,94.99 L97.86,94.99 L97.86,101.06 C97.86,103.04 96.08,104.22 93.99,104.22 L82.11,104.22 C80.31,104.22 78.71,102.58 78.71,100.52 L78.71,95.79 C78.71,91.8 76.26,89.63 72.89,89.63 L27.42,89.63 C23,89.63 21.14,92.21 21.14,95.92 L21.14,139.29 C21.14,143.24 23.76,145.52 26.48,145.52 Z M12.7,165.05 C6.52,165.05 0,160.93 0,150.85 L0,82.79 C0,75.82 6.07,70.09 12.23,70.09 L26.81,70.09 L26.81,41.55 C26.81,33.12 33.97,26.44 41.97,26.44 L57.33,26.44 L57.33,12.44 C57.33,5.06 63.77,0 70.02,0 L142.08,0 C149.52,0 155.18,5.56 155.18,13.1 L155.18,81.75 C155.18,89.59 149.55,94.99 141.81,94.99 L128.45,94.99 L128.45,121.28 C128.45,128.79 122.49,136.17 112.24,136.17 L97.86,136.17 L97.86,152.52 C97.86,160.46 91.26,165.05 85.55,165.05 Z" fill="none" stroke="currentColor" stroke-width="1.5"/></svg>