<svg xmlns="http://www.w3.org/2000/svg" viewBox="0 0 507.09 622.23" width="24" height="24"><path d="M85.34,0 L85.46,79.71 L0,79.95 L0.19,622.23 L442.46,622.11 L442.33,543.32 L507.09,543.1 L507.08,531.8 L506.83,0.67 Z M108.05,22.71 L484.17,23.31 L484.4,520.5 L203.14,521.44 L204.54,427.85 L108.65,426.58 Z M85.49,102.38 L86,442.45 L186.93,544.17 L419.65,543.39 L419.74,599.43 L22.86,599.55 L22.68,102.57 Z M294.63,105.34 C266.09,105.54 234.88,115.09 204.57,139.34 L204.12,139.69 L203.72,140.07 C174.87,168.24 160.76,199.82 158.5,235.69 L148.58,235.63 C134.04,235.15 122.1,251.34 131.63,266.94 L172.46,329.47 C182.83,344.04 198.44,342.78 206.73,329.77 L249.97,262.7 C257.26,248.74 243.94,235.52 234.73,235.95 L225.33,236.04 C227.48,227.17 231.32,217.68 238.48,208.55 C248.6,195.65 263.08,184.47 279.01,178.68 C291.37,175.68 300.43,176.8 309.52,180.25 C318.73,183.75 327.96,190.02 338.39,197.28 L347.83,203.85 L391.26,139.46 L381.76,133.15 C361.22,119.49 334.24,107.42 303.4,105.57 C300.51,105.4 297.58,105.32 294.63,105.34 Z M294.79,128.01 C297.23,128 299.65,128.07 302.04,128.21 C323.37,129.49 342.96,136.91 359.37,146.21 L341.78,172.27 C334.27,167.25 326.51,162.44 317.57,159.05 C304.83,154.21 289.86,152.52 273.08,156.71 L272.56,156.85 L272.05,157.02 C251.17,164.41 233.4,178.31 220.65,194.54 C207.91,210.78 199.87,229.46 200.42,247.86 L200.75,258.97 L226.65,258.71 L189.96,314.51 L152.24,258.37 L180.32,258.33 L180.2,246.88 C179.8,211.52 190.95,184.47 219.18,156.75 C245.77,135.62 271.23,128.1 294.79,128.01 Z M410.56,168.49 C404.33,168.43 398.25,171.81 393.91,178.19 L348.7,243.95 C340.99,257.69 353.91,271.29 363.12,271.14 L372.53,271.33 C370.12,280.13 366,289.51 358.56,298.42 C348.06,311.01 333.25,321.75 317.15,327.07 C304.72,329.69 295.7,328.3 286.71,324.58 C277.61,320.81 268.57,314.27 258.36,306.7 L249.12,299.85 L203.79,362.91 L213.1,369.51 C233.22,383.78 259.82,396.65 290.6,399.41 C321.38,402.17 356.16,394.36 390.4,368.61 L390.85,368.27 L391.26,367.9 C420.94,340.61 435.99,309.46 439.32,273.68 L449.23,274.02 C463.75,274.95 476.16,259.12 467.11,243.24 L428.16,179.52 C423.19,172.08 416.8,168.56 410.56,168.49 Z M410.22,193.95 L446.25,251.19 L418.18,250.39 L417.96,261.83 C417.3,297.19 405.36,323.9 376.31,350.77 C346.28,373.2 318.14,379.11 292.63,376.82 C271.35,374.91 252,366.91 235.87,357.12 L254.22,331.6 C261.58,336.84 269.2,341.88 278.03,345.54 C290.62,350.75 305.53,352.89 322.43,349.2 L322.96,349.08 L323.47,348.92 C344.56,342.16 362.74,328.8 375.97,312.95 C389.19,297.1 397.78,278.66 397.78,260.26 L397.78,249.14 L371.88,248.63 Z M124.91,449.47 L181.54,450.22 L180.7,505.7 Z" fill="none" stroke="currentColor" stroke-width="1.5"/></svg>