<svg xmlns="http://www.w3.org/2000/svg" viewBox="0 0 508.07 617.03" width="24" height="24"><path d="M66.29,0 L66.29,73.45 L0,73.45 L0,617.03 L11.34,617.03 L421.51,617.03 L421.51,542.56 L508.07,542.87 L508.07,0 Z M88.97,22.68 L485.39,22.68 L485.39,520.11 L421.51,519.88 L421.51,172.63 L320.66,73.45 L88.97,73.45 Z M22.68,96.13 L304.69,96.13 L304.69,188.73 L398.83,188.73 L398.83,594.35 L22.68,594.35 Z M327.37,111.85 L382.47,166.05 L327.37,166.05 Z M68.37,131.04 L68.37,149.69 L47.83,149.69 L47.83,166.7 L68.37,166.7 L68.37,284.99 L48.25,284.99 L48.25,302 L68.37,302 L68.37,443.77 L48.18,443.77 L48.18,460.78 L68.37,460.78 L68.37,482.64 L85.38,482.64 L85.38,460.78 L341.83,460.78 L341.83,482.81 L358.84,482.81 L358.84,460.78 L383.62,460.78 L383.62,443.77 L358.84,443.77 L358.84,302 L383.43,302 L383.43,284.99 L358.84,284.99 L358.84,209.12 L341.83,209.12 L341.83,284.99 L85.38,284.99 L85.38,166.7 L278.9,166.7 L278.9,149.69 L85.38,149.69 L85.38,131.04 Z M129.4,192.85 C111.13,192.85 96.14,207.84 96.14,226.1 C96.14,244.37 111.13,259.35 129.4,259.35 C147.66,259.35 162.65,244.37 162.65,226.1 C162.65,207.84 147.66,192.85 129.4,192.85 Z M211.65,192.85 C193.39,192.85 178.4,207.84 178.4,226.1 C178.4,244.37 193.39,259.35 211.65,259.35 C229.92,259.35 244.9,244.37 244.9,226.1 C244.9,207.84 229.92,192.85 211.65,192.85 Z M293.91,192.85 C275.65,192.85 260.65,207.84 260.65,226.1 C260.65,244.37 275.65,259.35 293.91,259.35 C312.17,259.35 327.16,244.37 327.16,226.1 C327.16,207.84 312.17,192.85 293.91,192.85 Z M129.4,209.85 C138.47,209.85 145.64,217.03 145.64,226.1 C145.64,235.17 138.47,242.34 129.4,242.34 C120.32,242.34 113.15,235.17 113.15,226.1 C113.15,217.03 120.32,209.85 129.4,209.85 Z M211.65,209.85 C220.73,209.85 227.89,217.03 227.89,226.1 C227.89,235.17 220.73,242.34 211.65,242.34 C202.58,242.34 195.41,235.17 195.41,226.1 C195.41,217.03 202.58,209.85 211.65,209.85 Z M293.91,209.85 C302.98,209.85 310.15,217.03 310.15,226.1 C310.15,235.17 302.98,242.34 293.91,242.34 C284.84,242.34 277.66,235.17 277.66,226.1 C277.66,217.03 284.84,209.85 293.91,209.85 Z M85.38,302 L247.83,302 L247.83,364.14 L85.38,364.14 Z M264.84,302 L341.83,302 L341.83,443.77 L264.84,443.77 Z M85.38,381.15 L247.83,381.15 L247.83,443.77 L85.38,443.77 Z M204.15,513.96 L187.5,515.1 L187.5,563.09 L197.15,563.05 L197.15,545.53 C199.78,545.85 202.3,546.28 206.16,546.28 C208.81,546.27 213.08,544.82 216.34,542.08 C219.59,539.33 222.77,535.74 222.77,529.6 C222.91,520.44 212.93,513.73 204.15,513.96 Z M293.74,515.15 L280.13,515.35 L264.19,563.25 L275.93,563.07 L279.54,550.18 L294.25,550.29 L297.97,563.12 L309.32,563.11 Z M306.17,515.24 L306.17,523.53 L320.77,523.53 L320.77,563.39 L330.22,563.39 L330.22,523.53 L344.41,523.53 L344.41,515.24 Z M127.44,515.29 L123.53,563.28 L133.76,563.28 L135.7,524.26 L145.85,562.1 L153.99,562.03 L166.18,524.24 L167.49,563.28 L177.46,563.28 L175.7,515.29 L161.28,515.29 L150.87,548.59 L141.64,515.29 Z M85.42,515.31 L85.42,563.11 L116.56,563.11 L116.56,555.16 L95.14,555.16 L95.14,542.19 L114.41,542.19 L114.41,534.44 L95.14,534.44 L95.14,523.2 L115.58,523.2 L115.58,515.31 Z M41.49,515.32 L41.49,523.08 L54.34,523.08 L54.34,563.22 L65.39,563.22 L65.39,523.08 L78.62,523.08 L78.62,515.32 Z M230.38,515.35 L230.38,563.16 L260.46,563.16 L260.46,555.31 L240.39,555.31 L240.39,515.35 Z M351.5,515.47 L351.5,563.53 L381.7,563.53 L381.7,555.35 L360.95,555.35 L360.95,542.3 L379.37,542.3 L379.37,534.28 L360.95,534.28 L360.95,523.34 L380.46,523.34 L380.46,515.47 Z M286.41,521.68 L292.59,543.5 L280.71,543.24 Z M197.15,522.41 L204.95,522.41 C208.07,522.45 212.37,524.9 212.36,529.51 C212.36,532.83 211.63,534.15 210.05,535.48 C208.49,536.81 205.94,538.16 203.9,538.16 L197.15,538.16 Z" fill="none" stroke="currentColor" stroke-width="1.5"/></svg>