<svg xmlns="http://www.w3.org/2000/svg" viewBox="0 0 375.98 529.9" width="24" height="24"><path d="M107.66,0 C48.31,0 0,48.31 0,107.66 C0,139.47 14.15,167.82 36.18,187.55 C20.52,199.62 4.35,217.96 2.18,243.29 L2.13,243.82 L2.14,244.36 C3.42,290.08 5.04,334.92 19.88,369.09 C19.88,369.09 19.89,369.09 19.89,369.09 C19.89,369.1 19.89,369.1 19.89,369.1 C24.06,378.75 30.48,383.59 33.49,385.98 C36.51,388.39 37.15,388.08 38.79,395.57 C43.13,415.99 47.96,439.94 54.8,459.83 C58.22,469.79 62.1,478.76 67.2,486.06 C72.3,493.37 79.21,499.57 88.4,500.78 L88.95,500.85 L120.19,501.23 L121.37,500.94 C128.92,499.06 134.33,494.13 138.73,488.04 C138.79,488.19 138.84,488.35 138.89,488.5 C142.31,498.46 146.19,507.43 151.29,514.73 C156.39,522.04 163.3,528.25 172.49,529.45 L173.04,529.52 L204.28,529.9 L205.46,529.61 C215.72,527.05 222.02,518.89 227.23,509.8 C231.01,503.19 234.21,495.63 237.02,487.72 C241.47,493.96 246.93,499.02 254.61,500.93 L255.79,501.23 L287.03,500.85 L287.59,500.78 C296.78,499.57 303.69,493.37 308.79,486.06 C313.89,478.76 317.77,469.79 321.19,459.83 C328.03,439.94 332.85,415.99 337.2,395.56 C338.83,388.08 339.47,388.39 342.49,385.98 C345.51,383.59 351.92,378.75 356.1,369.1 C356.1,369.1 356.1,369.1 356.1,369.09 C356.1,369.09 356.1,369.09 356.11,369.09 C370.95,334.92 372.56,290.08 373.84,244.35 L373.86,243.82 L373.81,243.28 C371.64,217.96 355.47,199.62 339.81,187.55 C361.84,167.82 375.98,139.47 375.98,107.66 C375.98,48.31 327.68,0 268.33,0 L268.33,0 C240.12,0 214.42,10.91 195.2,28.73 C194.05,28.69 192.91,28.67 191.75,28.67 L191.75,28.67 C188.21,28.67 184.72,28.85 181.27,29.18 C162,11.1 136.1,0 107.66,0 Z M107.66,18.9 C126.2,18.9 143.39,24.56 157.6,34.23 C114.93,48.54 84.09,88.91 84.09,136.33 C84.09,158.61 91.04,179.18 102.76,196.29 C55.92,193.76 18.9,155.15 18.9,107.66 C18.9,58.52 58.52,18.9 107.66,18.9 Z M268.33,18.9 C317.46,18.9 357.09,58.52 357.09,107.66 C357.09,152.4 324.23,189.26 281.25,195.49 C292.67,178.56 299.42,158.28 299.42,136.33 C299.42,87.03 266.08,45.36 220.78,32.65 C234.52,23.95 250.81,18.9 268.33,18.9 Z M191.75,47.57 C240.89,47.57 280.52,87.19 280.52,136.33 C280.52,185.46 240.89,225.09 191.75,225.09 C142.61,225.09 102.99,185.46 102.99,136.33 C102.99,87.19 142.61,47.57 191.75,47.57 Z M52.18,199.44 C68.44,209.31 87.29,215.32 107.66,215.32 C111.37,215.32 115.03,215.11 118.63,214.71 C119.17,215.22 119.72,215.72 120.27,216.22 C104.61,228.29 88.44,246.63 86.27,271.96 L86.22,272.49 L86.23,273.03 C87.51,318.75 89.13,363.6 103.97,397.76 C103.97,397.76 103.98,397.76 103.98,397.76 C103.98,397.77 103.98,397.77 103.98,397.77 C108.15,407.42 114.57,412.25 117.58,414.65 C120.6,417.06 121.24,416.75 122.88,424.24 C125.43,436.23 128.16,449.44 131.36,462.33 C129.86,465.8 128.32,468.99 126.74,471.74 C122.89,478.46 119.01,481.62 117.22,482.3 L90.72,481.98 C88.78,481.68 86.06,480.07 82.69,475.25 C79.27,470.34 75.77,462.7 72.67,453.69 C66.47,435.65 61.64,412.15 57.26,391.59 L57.25,391.57 L57.25,391.54 C54.91,380.84 49.26,374.38 45.26,371.2 C41.25,368.01 39.92,367.83 37.23,361.59 L37.22,361.58 L37.22,361.57 C24.75,332.88 22.36,289.84 21.08,244.62 C22.89,225.03 38.16,209.3 52.18,199.44 Z M323.81,199.44 C337.83,209.3 353.1,225.03 354.91,244.62 C353.63,289.84 351.24,332.88 338.77,361.57 L338.77,361.58 L338.76,361.59 C336.06,367.83 334.73,368.01 330.73,371.2 C326.72,374.38 321.07,380.84 318.74,391.54 L318.73,391.56 L318.72,391.59 C314.35,412.15 309.52,435.65 303.32,453.68 C300.22,462.7 296.72,470.34 293.29,475.25 C289.93,480.07 287.21,481.68 285.26,481.98 L258.76,482.3 C256.98,481.62 253.09,478.46 249.25,471.74 C247.67,468.99 246.13,465.81 244.64,462.35 C248.86,445.91 251.56,431.1 252.8,424.83 C253.93,419.31 255.75,417.42 259.06,414.29 C262.37,411.16 267.93,407.16 271.2,399.46 L271.24,399.37 L271.27,399.29 C287.32,359.37 288.24,316.18 289.77,274.53 L289.8,273.79 L289.7,273.04 C287.5,255.03 279.52,240.3 270.52,229.73 C266.88,225.45 263.22,222.25 259.52,219.29 C261.12,217.98 262.68,216.62 264.21,215.23 C265.57,215.28 266.95,215.32 268.33,215.32 C288.69,215.32 307.55,209.31 323.81,199.44 Z M136.27,228.11 L136.27,228.11 C152.53,237.98 171.38,243.99 191.75,243.99 C210.11,243.99 227.14,238.94 242.29,230.8 C245.44,232.44 250.82,235.74 256.13,241.98 C263,250.04 269.05,261.36 270.82,274.91 C269.31,316.26 267.96,356.74 253.78,392.1 C252.71,394.6 250.37,396.51 246.08,400.56 C241.78,404.63 236.29,411.21 234.28,421.04 L234.28,421.08 L234.27,421.12 C232.55,429.87 228.45,452.3 221.98,473.05 C218.75,483.42 214.89,493.33 210.83,500.41 C206.98,507.13 203.1,510.29 201.32,510.97 L174.81,510.65 C172.86,510.35 170.15,508.74 166.78,503.92 C163.36,499.01 159.86,491.37 156.76,482.36 C150.56,464.32 145.73,440.82 141.35,420.26 L141.35,420.24 L141.34,420.21 C139.01,409.51 133.35,403.05 129.35,399.87 C125.34,396.68 124.01,396.51 121.32,390.27 L121.31,390.25 L121.31,390.24 C108.84,361.55 106.45,318.51 105.17,273.29 C106.98,253.7 122.25,237.97 136.27,228.11 Z" fill="none" stroke="currentColor" stroke-width="1.5"/></svg>