<svg xmlns="http://www.w3.org/2000/svg" viewBox="0 0 812.92 691.12" width="24" height="24"><path d="M221.97,0 L221.97,9.45 L221.97,181.04 L402.75,181.04 L402.75,0 Z M410.23,0 L410.23,9.45 L410.23,181.04 L591.01,181.04 L591.01,0 Z M240.87,18.9 L383.85,18.9 L383.85,162.14 L240.87,162.14 Z M429.13,18.9 L572.11,18.9 L572.11,162.14 L429.13,162.14 Z M221.97,188.36 L221.97,197.81 L221.97,369.38 L358.89,369.38 L358.89,474.49 L331.07,474.49 L331.07,540.32 L265.42,540.32 L265.42,568.32 L0,568.32 L0,577.77 L0,662.32 L265.42,662.32 L265.42,691.12 L274.87,691.12 L547.27,691.12 L547.27,662.32 L812.92,662.32 L812.92,568.32 L547.27,568.32 L547.27,540.32 L481.36,540.32 L481.36,474.49 L453.56,474.49 L453.56,369.38 L591.01,369.38 L591.01,188.36 L410.23,188.36 L410.23,197.81 L410.23,369.38 L434.66,369.38 L434.66,474.49 L377.78,474.49 L377.78,369.38 L402.75,369.38 L402.75,188.36 Z M240.87,207.25 L383.85,207.25 L383.85,350.49 L240.87,350.49 Z M429.13,207.25 L572.11,207.25 L572.11,350.49 L429.13,350.49 Z M349.97,493.39 L462.46,493.39 L462.46,559.22 L528.38,559.22 L528.38,672.22 L284.32,672.22 L284.32,559.22 L349.97,559.22 Z M18.9,587.21 L265.42,587.21 L265.42,643.42 L18.9,643.42 Z M547.27,587.21 L794.03,587.21 L794.03,643.42 L547.27,643.42 Z" fill="none" stroke="currentColor" stroke-width="1.5"/></svg>