<svg xmlns="http://www.w3.org/2000/svg" viewBox="0 0 1178.33 501.45" width="24" height="24"><path d="M0,0 L0,67.4 L26.46,67.4 L26.46,26.46 L67.21,26.46 L67.21,0 Z M189.81,0 L189.81,26.46 L310.9,26.46 L310.9,0 Z M433.92,0 L433.92,26.46 L474.94,26.46 L474.94,67.48 L501.39,67.48 L501.39,0 Z M678.01,0.04 L678.01,13.27 L678.01,237.02 L501.39,237.02 L501.39,189.66 L474.94,189.66 L474.94,237.02 L390.67,237.02 L390.67,110.95 L110.63,110.95 L110.63,124.18 L110.63,390.44 L390.67,390.44 L390.67,263.47 L474.94,263.47 L474.94,311.6 L501.39,311.6 L501.39,263.47 L678.01,263.47 L678.01,501.29 L1178.33,501.29 L1178.33,0.04 Z M704.46,26.5 L1151.88,26.5 L1151.88,474.83 L704.46,474.83 L704.46,263.47 L917.98,263.47 L917.98,331.3 L1000.29,250.25 L917.98,168.1 L917.98,237.02 L704.46,237.02 Z M137.09,137.41 L364.21,137.41 L364.21,363.99 L137.09,363.99 Z M0,189.89 L0,311.32 L26.46,311.32 L26.46,189.89 Z M0,433.82 L0,501.45 L67.08,501.45 L67.08,475 L26.46,475 L26.46,433.82 Z M474.94,433.86 L474.94,475 L434.02,475 L434.02,501.45 L501.39,501.45 L501.39,433.86 Z M189.65,475 L189.65,501.45 L310.82,501.45 L310.82,475 Z" fill="none" stroke="currentColor" stroke-width="1.5"/></svg>