<svg xmlns="http://www.w3.org/2000/svg" viewBox="0 0 256.23 136.09" width="24" height="24"><path d="M183.31,48.16 L183.31,51.41 L183.31,78.37 L193.65,78.37 L193.65,88.63 L219.77,88.63 L219.77,78.37 L229.75,78.37 L229.75,48.16 Z M189.81,54.66 L223.25,54.66 L223.25,71.87 L213.27,71.87 L213.27,82.13 L200.15,82.13 L200.15,71.87 L189.81,71.87 Z M131.01,48.16 L131.01,51.41 L131.01,78.37 L141.36,78.37 L141.36,88.63 L167.47,88.63 L167.47,78.37 L177.45,78.37 L177.45,48.16 Z M137.51,54.66 L170.95,54.66 L170.95,71.87 L160.97,71.87 L160.97,82.13 L147.86,82.13 L147.86,71.87 L137.51,71.87 Z M78.71,48.16 L78.71,51.41 L78.71,78.37 L89.06,78.37 L89.06,88.63 L115.17,88.63 L115.17,78.37 L125.15,78.37 L125.15,48.16 Z M85.21,54.66 L118.65,54.66 L118.65,71.87 L108.67,71.87 L108.67,82.13 L95.56,82.13 L95.56,71.87 L85.21,71.87 Z M26.41,48.16 L26.41,51.41 L26.41,78.37 L36.76,78.37 L36.76,88.63 L62.87,88.63 L62.87,78.37 L72.85,78.37 L72.85,48.16 Z M32.91,54.66 L66.35,54.66 L66.35,71.87 L56.37,71.87 L56.37,82.13 L43.26,82.13 L43.26,71.87 L32.91,71.87 Z M35.94,12.43 C22.75,12.43 12.03,23.15 12.03,36.34 L12.03,100.02 C12.03,113.21 22.75,123.93 35.94,123.93 L220.56,123.93 C233.74,123.93 244.47,113.21 244.47,100.02 L244.47,36.34 C244.47,23.15 233.74,12.43 220.56,12.43 Z M35.94,19.43 L220.56,19.43 C229.99,19.43 237.47,26.91 237.47,36.34 L237.47,100.02 C237.47,109.45 229.99,116.93 220.56,116.93 L35.94,116.93 C26.51,116.93 19.03,109.45 19.03,100.02 L19.03,36.34 C19.03,26.91 26.51,19.43 35.94,19.43 Z M32.04,0 C14.35,0 0,14.35 0,32.04 L0,104.05 C0,121.74 14.35,136.09 32.04,136.09 L224.19,136.09 C241.88,136.09 256.23,121.74 256.23,104.05 L256.23,32.04 C256.23,14.35 241.88,0 224.19,0 Z M32.04,7 L224.19,7 C238.12,7 249.23,18.11 249.23,32.04 L249.23,104.05 C249.23,117.99 238.12,129.09 224.19,129.09 L32.04,129.09 C18.11,129.09 7,117.99 7,104.05 L7,32.04 C7,18.11 18.11,7 32.04,7 Z" fill="none" stroke="currentColor" stroke-width="1.5"/></svg>