<svg xmlns="http://www.w3.org/2000/svg" viewBox="0 0 183.88 184.47" width="24" height="24"><path d="M97.94,58.94 C96.82,59.97 96.36,61.31 96.17,62.35 L98.91,62.78 C99.05,61.96 99.25,61.08 99.94,60.45 C100.62,59.81 101.82,59.31 103.48,59.31 C104.56,59.31 105.56,59.52 106.38,59.97 C107.19,60.41 107.81,61.63 107.81,62.47 L107.82,63.6 C105.89,64.65 104.11,64.54 101.51,64.93 C98.91,65.33 97.86,65.93 97.05,66.83 C95.9,67.89 95.61,69.23 95.6,70.27 C95.58,71.98 96.28,72.91 97.48,73.98 C98.44,74.84 99.89,75.17 101.42,75.17 C104.39,75.17 106.21,73.72 108.08,72.49 C108.09,73.49 108.31,74.18 108.56,74.69 L111.23,74.61 C110.83,73.68 110.44,71.35 110.44,70.41 L110.44,61.61 C110.44,60.21 109.4,58.67 108.19,58 C106.97,57.33 105.24,57.13 103.28,57.13 C101.32,57.13 99.05,57.9 97.94,58.94 Z M107.84,67.24 C107.84,69.77 106.43,73 101.79,73 C100.66,73 99.83,72.64 99.33,72.16 C98.82,71.68 98.55,70.67 98.55,70.02 C98.55,69.25 98.68,68.85 99.08,68.4 C99.48,67.95 100.92,67.4 101.87,67.21 C103.48,66.84 105.12,67.03 107.85,65.87 Z M88.95,50.93 L88.95,53.9 L91.95,53.9 L91.95,50.93 Z M88.95,57.37 L88.95,74.68 L91.95,74.68 L91.95,57.37 Z M81.59,50.99 L81.59,74.56 L84.32,74.56 L84.32,50.99 Z M70.47,57.04 C68.02,57.04 66.64,58.26 65.5,60.06 L65.5,57.41 L63.05,57.41 L63.05,81.23 L65.76,81.23 L65.76,72.5 C67.09,74.07 67.45,74.93 70.54,74.93 C72.82,74.93 75.02,73.8 76.21,72.09 C77.4,70.37 78.02,68.41 78.02,66.17 C78.02,63.14 77.4,61.07 76.11,59.51 C74.38,57.42 72.54,57.04 70.47,57.04 Z M70.47,59.04 C71.98,59.04 72.95,59.99 73.88,61.13 C74.81,62.27 75.24,63.62 75.24,65.82 C75.24,67.69 74.95,69.3 74.05,70.61 C73.14,71.92 72.13,72.71 70.54,72.71 C67,72.71 65.85,70.02 65.57,67.36 L65.57,64.9 C65.57,63.25 66.3,61.94 67.53,60.56 C68.36,59.54 69.2,59.04 70.47,59.04 Z M51.76,57.06 C49.31,57.06 47.93,58.28 46.79,60.08 L46.79,57.43 L44.34,57.43 L44.34,81.25 L47.05,81.25 L47.05,72.52 C48.38,74.09 48.74,74.95 51.83,74.95 C54.11,74.95 56.31,73.83 57.5,72.11 C58.69,70.39 59.31,68.44 59.31,66.2 C59.31,63.16 58.69,61.09 57.4,59.53 C55.67,57.45 53.83,57.06 51.76,57.06 Z M51.76,59.06 C53.27,59.06 54.24,60.01 55.17,61.15 C56.09,62.29 56.53,63.65 56.53,65.84 C56.53,67.72 56.24,69.33 55.33,70.63 C54.43,71.94 53.42,72.74 51.83,72.74 C48.29,72.74 47.13,70.05 46.86,67.38 L46.86,64.92 C46.86,63.27 47.59,61.97 48.82,60.58 C49.65,59.56 50.49,59.06 51.76,59.06 Z M65.23,92.43 L57.39,94.82 L57.84,101.64 C56.18,102.79 54.87,103.91 53.76,104.97 L48.93,102.76 L43.25,109.4 L48.59,114.7 L48.12,119.92 L42.88,121.3 L43.95,130.8 L51.03,130.53 C52.04,131.96 53.15,133.29 54.32,134.54 L51.86,138.84 L58.46,145.54 L64.02,139.5 C65.97,140.03 67.81,140.24 69.6,140.21 L70.62,145.39 L80.54,144.31 L86.85,144.35 C87.57,146.55 88.5,148.68 89.53,150.72 L84.92,155.12 L90.4,164.79 L98.68,159.37 C100.95,160.82 103.2,161.74 105.5,162.37 L104.87,169.15 L115.98,171.33 L117.65,162.16 C120.04,161.55 122.14,160.7 124.05,159.73 L127.99,164.71 L137.71,158.01 L133.09,150.6 C134.13,148.51 135.02,146.35 135.74,144.09 L142.33,144.67 L144.22,133.22 L135.74,131.45 C135.05,129.38 134.2,127.27 133.17,125.13 L137.8,120.43 L131.33,111.52 L124.01,116.18 C121.86,115.06 119.75,114.13 117.68,113.4 L117.76,106.89 L106.54,105.28 L105.1,113.36 C102.51,114.16 100.48,115.12 98.65,116.06 L95.02,112.88 L93.64,108.13 L86.42,108.42 C85.47,107.08 84.41,105.75 83.22,104.43 L85.65,99.88 L78.41,93.98 L73.42,99.29 C71.66,98.96 69.96,98.75 68.32,98.65 L66.92,93.71 Z M64.04,96.39 L65.26,100.71 C69.03,102.01 71.43,102.34 74,102.88 L78.25,97.87 L81.74,99.76 L79.6,103.79 C81.63,107.66 83.08,109.51 84.33,111.39 L90.77,110.79 L91.05,111.75 L85.05,117.42 L89.69,125.15 L87.11,131.63 L80.18,131.42 L78.51,141.28 L73.68,142.79 L72.75,138.14 C68.29,136.85 66.31,136.84 63.73,135.87 L58.91,141.54 L55.68,139.21 L57.99,135.18 C56.02,131.33 54.36,129.45 53.2,127.59 L46.78,128.12 L45.55,124.21 L50.2,122.99 L52.18,113.94 L47.13,109.69 L48.92,106.6 L53.36,108.64 C57.12,106.67 58.34,105.24 60.79,103.8 L60.15,97.62 Z M68.94,107.01 C62,107.01 56.35,112.67 56.35,119.6 C56.35,126.54 62,132.19 68.94,132.19 C75.87,132.19 81.53,126.54 81.53,119.6 C81.53,112.67 75.87,107.01 68.94,107.01 Z M114.24,108.65 L114.16,114.57 C117.91,117.05 120.64,118.28 123.5,119.83 L130.07,115.21 L134.09,119.21 L129.87,123.49 C130.99,128.32 132.07,131.04 132.89,133.71 L140.72,134.97 L140.73,141.01 L134.69,140.48 C132.06,144.65 130.87,147.41 129.45,150.13 L134.03,156.69 L129.54,161.03 L125.93,156.47 C121.15,157.37 118.67,158.57 115.55,159.15 L114.25,167.78 L108.53,167.62 L109.11,161.28 C104.59,158.62 102.19,157.89 99.43,155.81 L91.97,161.08 L88.48,156.56 L92.86,152.37 C91.81,147.61 90.5,144.79 89.77,142.15 L82,140.82 L81.9,134.97 L88.23,135.16 L93.34,125.44 L88.69,118.79 L92.43,115.26 L97.23,119.47 C101.88,118.4 103.87,117.12 107.32,116.26 L108.4,108.75 Z M68.94,110.51 C73.98,110.51 78.03,114.56 78.03,119.6 C78.03,124.64 73.98,128.69 68.94,128.69 C63.89,128.69 59.85,124.64 59.85,119.6 C59.85,114.56 63.89,110.51 68.94,110.51 Z M111.27,123.46 C103.38,123.46 96.95,129.89 96.95,137.79 C96.95,145.68 103.38,152.11 111.27,152.11 C119.17,152.11 125.6,145.68 125.6,137.79 C125.6,129.89 119.17,123.46 111.27,123.46 Z M111.27,126.96 C117.27,126.96 122.1,131.78 122.1,137.79 C122.1,143.79 117.27,148.61 111.27,148.61 C105.27,148.61 100.45,143.79 100.45,137.79 C100.45,131.78 105.27,126.96 111.27,126.96 Z M151.43,59.79 C149.88,61.72 149.48,63.88 149.48,66.75 C149.48,71.08 152.39,75.04 157.73,75.04 C161.71,75.04 164.64,72.57 165.31,69.67 L162.32,69.34 C161.46,71.4 160.54,72.74 157.9,72.74 C154.77,72.74 152.43,70.55 152.43,66.65 L165.33,66.65 C165.35,63.53 164.83,61.57 163.67,59.99 C162.42,58.34 160.06,57.12 157.56,57.12 C155.06,57.12 152.77,58.13 151.43,59.79 Z M157.42,59.31 C159.49,59.31 160.52,60.07 161.42,61.25 C162.13,62.18 162.33,63.42 162.47,64.65 L152.67,64.65 C152.67,63.19 152.94,62.08 153.59,61.24 C154.56,60.02 156.03,59.31 157.42,59.31 Z M140.3,57.13 C137.86,57.13 135.29,58.54 134.39,60.05 C133.33,61.84 132.75,64.19 132.75,66.38 C132.75,68.87 133.75,71.34 135.1,72.68 C136.66,74.24 138.44,75 140.68,74.94 C143.26,74.94 145,73.86 146.01,72.69 C147.03,71.52 147.58,70 147.88,68.78 L145.18,68.63 C144.79,69.8 144.51,70.6 143.82,71.4 C143.13,72.19 142.52,72.76 140.71,72.86 C139.09,72.86 138.02,72.23 137.06,71.13 C136.11,69.8 135.77,68.03 135.77,65.93 C135.77,64.03 136.1,62.55 136.75,61.46 C137.58,60.16 138.86,59.3 140.61,59.3 C142.09,59.3 142.92,59.7 143.69,60.43 C144.45,61.16 144.72,62.14 144.84,62.79 L147.58,62.34 C147.38,61.28 146.64,59.74 145.52,58.69 C144.25,57.51 142.7,57.13 140.3,57.13 Z M123.36,57.2 C120.87,57.2 119.23,58.01 118.16,59.18 C117.88,59.49 117.73,59.83 117.51,60.16 L117.51,57.5 L115.08,57.5 L115.08,74.6 L117.88,74.6 L117.88,64.31 C117.88,62.95 118.75,61.38 119.63,60.53 C120.43,59.76 120.92,59.27 123.03,59.27 C123.89,59.27 124.85,59.97 125.49,60.67 C126.14,61.37 126.37,62.86 126.37,63.34 L126.37,74.74 L129.04,74.74 L129.04,62.47 C129.04,61.24 128.56,59.65 127.63,58.64 C126.7,57.63 124.93,57.2 123.36,57.2 Z M32.33,50.82 L28.98,50.82 L19.84,74.61 L23,74.61 L25.83,67.17 L35.68,67.17 L38.5,74.61 L41.96,74.61 Z M30.68,53.7 L34.9,65.17 L26.51,65.17 Z M130.61,12.66 L130.61,36.23 L133.35,36.23 L133.35,12.66 Z M113.41,20.57 C112.29,21.61 111.83,22.94 111.64,23.98 L114.38,24.41 C114.52,23.6 114.72,22.71 115.4,22.08 C116.09,21.44 117.28,20.94 118.95,20.94 C120.03,20.94 121.03,21.15 121.85,21.6 C122.66,22.04 123.28,23.26 123.28,24.1 L123.29,25.23 C121.36,26.28 119.57,26.17 116.98,26.56 C114.38,26.96 113.33,27.56 112.52,28.47 C111.37,29.52 111.08,30.86 111.07,31.91 C111.05,33.61 111.75,34.54 112.95,35.61 C113.91,36.47 115.36,36.8 116.89,36.8 C119.86,36.8 121.68,35.35 123.55,34.12 C123.56,35.12 123.78,35.81 124.03,36.32 L126.7,36.24 C126.3,35.31 125.91,32.98 125.91,32.04 L125.91,23.24 C125.91,21.84 124.87,20.31 123.65,19.64 C122.44,18.97 120.7,18.76 118.75,18.76 C116.79,18.76 114.52,19.53 113.41,20.57 Z M123.31,28.87 C123.31,31.4 121.9,34.63 117.26,34.63 C116.13,34.63 115.3,34.27 114.8,33.79 C114.29,33.31 114.02,32.3 114.02,31.65 C114.02,30.88 114.15,30.48 114.55,30.03 C114.95,29.58 116.39,29.03 117.34,28.84 C118.95,28.48 120.59,28.66 123.32,27.5 Z M107.09,19 L104.45,19.02 L104.51,29.7 C104.51,30.88 103.76,32.16 102.84,33.08 C101.9,34.04 100.82,34.5 99.75,34.5 C98.84,34.5 97.93,34.23 97.19,33.61 C96.45,32.99 95.96,31.37 95.96,30.03 L95.93,19.11 L93.36,19.11 L93.39,30.84 C93.39,32.7 93.71,34.28 95.26,35.48 C96.42,36.45 98.3,36.8 99.77,36.8 C101.19,36.8 102.61,35.96 103.8,34.76 C104.07,34.48 104.6,33.88 104.84,33.58 L104.85,36.29 L107.19,36.28 Z M84.61,14.68 L84.6,19.12 L82.57,19.1 L82.56,21.1 L84.6,21.12 L84.58,32.31 L84.58,32.32 C84.58,33.65 85.06,35.45 85.9,35.96 C86.77,36.56 89.14,36.78 90.76,36.39 L90.26,33.9 C89.03,34.19 88.52,34.11 88.01,33.76 C87.51,33.41 87.31,33.1 87.31,32.32 L87.33,21.13 L90.13,21.15 L90.15,19.15 L87.33,19.13 L87.34,13.26 Z M73.07,19.34 L73.07,36.33 L75.64,36.33 L75.64,27.42 C75.73,25.43 75.96,24.67 76.37,23.58 C76.79,22.43 77.76,21.78 78.94,21.69 C79.66,21.7 80.22,21.75 81.3,22.2 L82.26,19.8 C80.68,18.73 79.55,18.62 78.05,19.05 C77.12,19.37 75.84,21 75.33,21.88 L75.33,19.34 Z M65.43,12.66 L65.43,15.63 L68.43,15.63 L68.43,12.66 Z M65.43,19.1 L65.43,36.41 L68.43,36.41 L68.43,19.1 Z M45.03,12.69 L41.73,12.67 L50.97,36.25 L54.12,36.22 L63.5,12.71 L60.48,12.68 L52.47,33.63 Z M9.53,0 C4.29,0 0,4.29 0,9.53 L0,174.94 C0,180.18 4.29,184.47 9.53,184.47 L174.35,184.47 C179.59,184.47 183.88,180.18 183.88,174.94 L183.88,9.53 C183.88,4.29 179.59,0 174.35,0 Z M9.53,4.5 L174.35,4.5 C177.17,4.5 179.38,6.71 179.38,9.53 L179.38,174.94 C179.38,177.77 177.17,179.97 174.35,179.97 L9.53,179.97 C6.71,179.97 4.5,177.77 4.5,174.94 L4.5,9.53 C4.5,6.71 6.71,4.5 9.53,4.5 Z" fill="none" stroke="currentColor" stroke-width="1.5"/></svg>