<svg xmlns="http://www.w3.org/2000/svg" viewBox="0 0 166.38 166.68" width="24" height="24"><path d="M92.99,62.51 L82.81,62.51 L82.64,96.93 L89.08,96.93 L88.98,69.47 L95.96,96.93 L102.54,96.93 L109.53,69.47 L109.54,96.93 L115.94,96.93 L115.87,62.51 L105.56,62.51 L99.43,86.33 Z M54.34,62.51 L46.84,62.51 L59.15,96.93 L66.62,96.93 L78.88,62.51 L71.66,62.51 L63.12,88.26 Z M11.69,0 C5.27,0 0,5.27 0,11.69 L0,154.98 C0,161.41 5.27,166.68 11.7,166.68 L154.69,166.68 C161.11,166.68 166.38,161.41 166.38,154.98 L166.38,11.69 C166.38,5.27 161.11,0 154.69,0 Z M11.69,6 L154.69,6 C157.89,6 160.38,8.49 160.38,11.69 L160.38,154.98 C160.38,158.19 157.89,160.68 154.69,160.68 L11.69,160.68 C8.49,160.68 6,158.19 6,154.98 L6,11.69 C6,8.49 8.49,6 11.69,6 Z" fill="none" stroke="currentColor" stroke-width="1.5"/></svg>