<svg xmlns="http://www.w3.org/2000/svg" viewBox="0 0 194.42 196.24" width="24" height="24"><path d="M164.82,134.67 L160,152.08 L155.47,134.67 L147.93,134.67 L147.93,159.61 L152.47,159.61 L152.47,139.14 L157.68,159.61 L162.71,159.61 L167.77,139.31 L167.77,159.61 L172.1,159.61 L172.1,134.67 Z M139.95,134.67 L133.84,153.59 L127.41,134.67 L122.02,134.67 L130.88,159.61 L136.45,159.61 L145.32,134.67 Z M116.31,104.1 C108.67,104.1 102.42,110.36 102.42,118 L102.42,182.34 C102.42,189.98 108.67,196.24 116.31,196.24 L180.53,196.24 C188.16,196.24 194.42,189.98 194.42,182.34 L194.42,118 C194.42,110.36 188.16,104.1 180.53,104.1 Z M116.31,111.1 L180.53,111.1 C184.41,111.1 187.42,114.12 187.42,118 L187.42,182.34 C187.42,186.22 184.41,189.24 180.53,189.24 L116.31,189.24 C112.43,189.24 109.42,186.22 109.42,182.34 L109.42,118 C109.42,114.12 112.43,111.1 116.31,111.1 Z M62.4,134.67 L57.59,152.08 L53.05,134.67 L45.51,134.67 L45.51,159.61 L50.05,159.61 L50.05,139.14 L55.26,159.61 L60.29,159.61 L65.35,139.31 L65.35,159.61 L69.69,159.61 L69.69,134.67 Z M37.53,134.67 L31.42,153.59 L24.99,134.67 L19.6,134.67 L28.46,159.61 L34.03,159.61 L42.9,134.67 Z M13.89,104.1 C6.26,104.1 0,110.36 0,118 L0,182.34 C0,189.98 6.26,196.24 13.89,196.24 L78.11,196.24 C85.75,196.24 92,189.98 92,182.34 L92,118 C92,110.36 85.75,104.1 78.11,104.1 Z M13.89,111.1 L78.11,111.1 C81.99,111.1 85,114.12 85,118 L85,182.34 C85,186.22 81.99,189.24 78.11,189.24 L13.89,189.24 C10.01,189.24 7,186.22 7,182.34 L7,118 C7,114.12 10.01,111.1 13.89,111.1 Z M164.82,30.57 L160,47.98 L155.47,30.57 L147.93,30.57 L147.93,55.51 L152.47,55.51 L152.47,35.04 L157.68,55.51 L162.71,55.51 L167.77,35.21 L167.77,55.51 L172.1,55.51 L172.1,30.57 Z M139.95,30.57 L133.84,49.49 L127.41,30.57 L122.02,30.57 L130.88,55.51 L136.45,55.51 L145.32,30.57 Z M116.31,0 C108.67,0 102.42,6.26 102.42,13.89 L102.42,78.24 C102.42,85.88 108.67,92.13 116.31,92.13 L180.53,92.13 C188.16,92.13 194.42,85.88 194.42,78.24 L194.42,13.89 C194.42,6.26 188.16,0 180.53,0 Z M116.31,7 L180.53,7 C184.41,7 187.42,10.01 187.42,13.89 L187.42,78.24 C187.42,82.12 184.41,85.13 180.53,85.13 L116.31,85.13 C112.43,85.13 109.42,82.12 109.42,78.24 L109.42,13.89 C109.42,10.01 112.43,7 116.31,7 Z M62.4,30.57 L57.59,47.98 L53.05,30.57 L45.51,30.57 L45.51,55.51 L50.05,55.51 L50.05,35.04 L55.26,55.51 L60.29,55.51 L65.35,35.21 L65.35,55.51 L69.69,55.51 L69.69,30.57 Z M37.53,30.57 L31.42,49.49 L24.99,30.57 L19.6,30.57 L28.46,55.51 L34.03,55.51 L42.9,30.57 Z M13.89,0 C6.26,0 0,6.26 0,13.89 L0,78.24 C0,85.88 6.26,92.13 13.89,92.13 L78.11,92.13 C85.75,92.13 92,85.88 92,78.24 L92,13.89 C92,6.26 85.75,0 78.11,0 Z M13.89,7 L78.11,7 C81.99,7 85,10.01 85,13.89 L85,78.24 C85,82.12 81.99,85.13 78.11,85.13 L13.89,85.13 C10.01,85.13 7,82.12 7,78.24 L7,13.89 C7,10.01 10.01,7 13.89,7 Z" fill="none" stroke="currentColor" stroke-width="1.5"/></svg>