<svg xmlns="http://www.w3.org/2000/svg" viewBox="0 0 755.99 656.99" width="24" height="24"><path d="M612.83,0 C533.9,0 469.67,64.23 469.67,143.16 C469.67,222.1 533.9,286.33 612.83,286.33 C691.77,286.33 755.99,222.1 755.99,143.16 C755.99,64.23 691.77,0 612.83,0 Z M612.83,22.68 C679.51,22.68 733.31,76.49 733.31,143.16 C733.31,209.84 679.51,263.65 612.83,263.65 C546.16,263.65 492.35,209.84 492.35,143.16 C492.35,76.49 546.16,22.68 612.83,22.68 Z M697.84,71.96 C697.69,71.96 697.53,71.97 697.37,72.01 C676.68,75.51 651.38,86.15 634.5,97.31 C604.5,116.49 589.26,140.34 582.91,158.57 C578.91,148.57 572.62,137.29 562.07,125.99 C545.5,128.3 531.1,139.91 523.05,146.95 C538.83,154.15 552.47,167.38 560.66,177.51 C574.41,194.7 583.76,211.37 589.42,227.6 C595.67,190.58 607.9,163.63 626.23,136.39 C643.05,111.63 666,90.38 696.71,77.68 C701.06,75.58 700.14,71.93 697.84,71.96 Z M324.37,129.4 L324.37,190.19 L441.95,190.19 L441.95,129.4 Z M324.37,222.47 L324.37,283.26 L441.95,283.26 L441.95,222.47 Z M0,316.38 L0,377.17 L117.58,377.17 L117.58,316.38 Z M324.37,316.38 L324.37,377.17 L441.95,377.17 L441.95,316.38 Z M488.66,316.38 L488.66,377.17 L606.23,377.17 L606.23,316.38 Z M0,409.66 L0,470.44 L117.58,470.44 L117.58,409.66 Z M324.37,409.66 L324.37,470.44 L441.95,470.44 L441.95,409.66 Z M488.66,409.66 L488.66,470.44 L606.23,470.44 L606.23,409.66 Z M0,502.93 L0,563.71 L117.58,563.71 L117.58,502.93 Z M164.34,502.93 L164.34,563.71 L281.92,563.71 L281.92,502.93 Z M324.37,502.93 L324.37,563.71 L441.95,563.71 L441.95,502.93 Z M488.66,502.93 L488.66,563.71 L606.23,563.71 L606.23,502.93 Z M0,596.2 L0,656.99 L117.58,656.99 L117.58,596.2 Z M164.34,596.2 L164.34,656.99 L281.92,656.99 L281.92,596.2 Z M324.37,596.2 L324.37,656.99 L441.95,656.99 L441.95,596.2 Z M488.66,596.2 L488.66,656.99 L606.23,656.99 L606.23,596.2 Z" fill="none" stroke="currentColor" stroke-width="1.5"/></svg>