<svg xmlns="http://www.w3.org/2000/svg" viewBox="0 0 160.54 160.56" width="24" height="24"><path d="M97.09,144.27 L97.09,110.39 L103.43,110.39 L118.41,135.39 L118.41,110.39 L123.66,110.39 L123.66,144.27 L117.36,144.27 L102.87,121.1 L102.87,144.27 Z M71.44,126.5 L77.24,126.54 C81.97,126.54 83.73,123.92 83.73,121.03 C83.73,116.83 80.27,115.59 77.11,115.59 L71.44,115.59 Z M64.66,144.27 L64.66,110.39 L79.76,110.39 C86.75,110.39 90.64,115.06 90.64,121.69 C90.64,128.07 86.43,131.63 80.26,131.63 L71.44,131.68 L71.44,144.27 Z M41.02,144.27 L28.63,110.39 L36.39,110.39 L45.34,136.61 L53.49,110.39 L60.48,110.39 L48.21,144.27 Z M77.29,71.06 C74.74,69.66 73.45,67.74 73.45,65.36 C73.45,61.95 76.41,59 79.84,59 C83.27,59 86.89,60.85 86.89,65.22 C86.89,67.92 85.38,70.24 83.14,70.83 L86.38,82.78 C87.3,85.72 86.42,87.7 83.69,87.7 L75.49,87.75 C73.71,87.75 73.11,86.37 73.73,84.64 Z M80.08,13.72 C73.6,13.72 68.72,16.6 65.71,20.17 C62.7,23.74 61.35,27.81 61.35,31.14 L61.35,31.15 L61.43,46.17 L52.82,46.17 C48.71,46.17 45.32,49.57 45.32,53.67 L45.32,90.11 C45.32,94.22 48.71,97.61 52.82,97.61 L107.7,97.61 C111.81,97.61 115.21,94.22 115.21,90.11 L115.21,53.67 C115.21,49.57 111.81,46.17 107.7,46.17 L99.07,46.17 L99.07,31.33 C99.07,23.34 92.18,13.72 80.08,13.72 Z M80.08,19.27 C89.23,19.27 93.52,26.6 93.52,31.33 L93.52,46.17 L66.98,46.17 L66.9,31.13 C66.91,29.5 67.84,26.26 69.96,23.75 C72.07,21.24 75.17,19.27 80.08,19.27 Z M52.82,51.72 L107.7,51.72 C108.83,51.72 109.66,52.55 109.66,53.68 L109.66,90.11 C109.66,91.24 108.83,92.07 107.7,92.07 L52.82,92.07 C51.69,92.07 50.87,91.24 50.87,90.11 L50.87,53.68 C50.87,52.55 51.69,51.72 52.82,51.72 Z M148.84,0 L11.86,0 C5.34,0 0,5.34 0,11.86 L0,148.7 C0,155.23 5.34,160.56 11.86,160.56 L148.68,160.56 C155.21,160.56 160.54,155.23 160.54,148.7 L160.54,12.03 C160.54,5.43 155.9,0 148.84,0 Z M11.86,5.55 L147.95,5.55 C151.06,5.55 154.99,6.74 154.99,12 L154.99,148.7 C154.99,152.25 152.23,155.01 148.68,155.01 L11.86,155.01 C8.32,155.01 5.55,152.25 5.55,148.7 L5.55,11.86 C5.55,8.32 8.32,5.55 11.86,5.55 Z" fill="none" stroke="currentColor" stroke-width="1.5"/></svg>