<svg xmlns="http://www.w3.org/2000/svg" viewBox="0 0 188.41 188.41" width="24" height="24"><path d="M87.16,171.39 L102.06,171.39 L102.1,158.99 C102.01,154.87 104.13,150.6 109.02,149.48 C113.81,148.23 117.92,146.55 122.21,144.29 C127.1,141.06 131.68,142.15 134.98,144.99 L144.1,154 L154.83,143.41 L146.11,134.69 C142.7,130.95 142.19,126.12 144.42,122.48 C146.43,119.7 148.49,114.85 150.3,108.34 C151.34,105.1 153.53,101.48 159.64,101.48 L172.51,101.48 L172.69,86.33 L160.68,86.39 C156.19,86.39 151.04,83.18 149.72,77.23 C148.76,73.73 147.24,69.67 144.69,65.31 C142.52,61.24 142.51,55.89 146.39,52.49 L154.88,44.33 L144.12,33.68 L135.4,42.33 C132.64,45.29 127.92,46.26 124.51,44.33 C120.49,41.78 114.78,39.37 107.84,37.32 C105.38,36.55 101.95,33.33 102.13,28.87 L102.23,16.07 L87.09,16.14 L87.1,28.55 C87.19,35.13 83.54,36.99 79.72,38.09 C74.4,39.18 70,41.32 65.05,44.16 C60.94,46.08 56.42,45.06 53.31,41.9 L44.92,33.36 L34.29,44.15 L42.84,52.45 C46.47,55.54 46.76,60.77 45.61,63.26 C42.92,68.15 39.97,74.33 38.89,79.18 C37.79,84.04 33.75,86.26 29,86.34 L16.51,86.34 L16.51,101.33 L28.47,101.39 C34.42,100.88 38.31,105.37 39.21,109 C40.36,114.12 42.86,119.28 45.18,123.42 C46.91,126.6 46.82,130.97 43.22,134.48 L34.29,143.44 L44.82,154.34 L53.83,145.44 C56.75,142.38 62.27,141.52 66.58,143.9 C70.69,146.22 74.67,147.92 79.71,149.28 C83.77,150.47 87.16,154.57 87.16,159.63 Z M126.84,93.81 Z M188.41,94.21 Z" fill="none" stroke="currentColor" stroke-width="1.5"/></svg>