<svg xmlns="http://www.w3.org/2000/svg" viewBox="0 0 537.73 620.47" width="24" height="24"><path d="M268.85,29.38 L25.74,169.92 L25.74,450.15 L29.41,452.28 L268.85,591.24 L511.71,450.15 L511.71,169.92 Z M261.47,50.67 L261.47,183.17 L276.22,50.68 L489.11,173.87 L360.2,248.35 L359.7,256.86 C355.25,271.88 323.46,295.58 268.59,295.58 C216.45,295.58 180.18,273.43 177.58,252.75 L177.32,248.53 L47.85,174.17 Z M496.98,186.35 L496.98,433.15 L360.43,354.41 L359.99,361.77 C356.9,376.69 324.89,401.65 268.59,401.65 C216.73,401.65 180.58,379.74 177.62,359.16 L177.45,357.44 C177.45,357.44 177.45,357.44 177.45,357.44 C177.43,357.11 177.42,356.77 177.42,356.44 L177.44,357.32 L177.11,354.13 L40.48,433.07 L40.48,186.93 L177.66,266.03 L177.93,283.46 C177.93,310.91 221.38,330.18 268.84,330.18 C324.76,330.18 360.26,305.75 360.26,283.96 L360.26,265.34 Z M177.42,303.66 L177.93,336.74 C177.93,364.2 221.38,383.46 268.84,383.46 C324.76,383.46 360.26,359.03 360.26,337.25 L360.26,306.69 C360.26,321.17 327.89,348.87 268.59,348.87 C214.45,348.87 177.42,324.98 177.42,303.66 Z M177.64,370.85 L177.93,389.53 C177.93,415.55 216.98,434.2 261.47,436.08 L261.47,569.92 L47.76,445.89 Z M360.26,371.33 L489.63,445.93 L276.22,569.91 L276.22,436.08 C327.85,434.05 360.26,410.84 360.26,390.03 Z M265.89,1.65 L255.63,7.58 L261.31,17.39 L268.73,13.1 L275.26,16.88 L280.94,7.06 L271.56,1.65 L268.72,0 Z M285.08,22.55 L304.72,33.9 L310.39,24.08 L290.76,12.73 Z M226.19,24.61 L231.87,34.43 L251.49,23.07 L245.82,13.26 Z M314.53,39.57 L334.16,50.92 L339.84,41.1 L320.2,29.76 Z M196.75,41.65 L202.43,51.47 L222.05,40.11 L216.38,30.3 Z M343.98,56.6 L363.62,67.94 L369.29,58.12 L349.66,46.78 Z M167.3,58.69 L172.98,68.5 L192.61,57.14 L186.93,47.33 Z M373.44,73.62 L393.06,84.97 L398.74,75.15 L379.1,63.8 Z M137.86,75.72 L143.54,85.53 L163.17,74.18 L157.49,64.36 Z M402.88,90.63 L422.52,101.99 L428.19,92.17 L408.56,80.82 Z M108.42,92.75 L114.09,102.57 L133.72,91.21 L128.05,81.4 Z M432.34,107.66 L451.97,119.01 L457.64,109.19 L438,97.84 Z M78.98,109.79 L84.66,119.61 L104.28,108.25 L98.61,98.44 Z M461.78,124.68 L481.42,136.03 L487.09,126.22 L467.46,114.86 Z M49.53,126.83 L55.21,136.64 L74.84,125.29 L69.16,115.47 Z M491.24,141.7 L510.87,153.05 L516.54,143.23 L496.91,131.88 Z M20.09,143.87 L25.77,153.68 L45.4,142.32 L39.72,132.5 Z M520.68,158.73 L526.4,162.03 L526.4,171.56 L537.73,171.56 L537.73,158.75 L537.73,155.48 L534.91,153.85 L526.36,148.91 Z M2.83,153.85 L0,155.48 L0,158.75 L0,172.83 L11.34,172.83 L11.34,162.03 L15.95,159.35 L10.28,149.54 Z M526.4,205.58 L537.73,205.58 L537.73,182.9 L526.4,182.9 Z M0,206.85 L11.34,206.85 L11.34,184.17 L0,184.17 Z M526.4,239.59 L537.73,239.59 L537.73,216.92 L526.4,216.92 Z M0,240.86 L11.34,240.86 L11.34,218.19 L0,218.19 Z M526.4,273.61 L537.73,273.61 L537.73,250.93 L526.4,250.93 Z M0,274.88 L11.34,274.88 L11.34,252.2 L0,252.2 Z M526.4,307.63 L537.73,307.63 L537.73,284.95 L526.4,284.95 Z M0,308.9 L11.34,308.9 L11.34,286.22 L0,286.22 Z M526.4,341.64 L537.73,341.64 L537.73,318.96 L526.4,318.96 Z M0,342.91 L11.34,342.91 L11.34,320.23 L0,320.23 Z M526.4,375.66 L537.73,375.66 L537.73,352.98 L526.4,352.98 Z M0,376.93 L11.34,376.93 L11.34,354.25 L0,354.25 Z M526.4,409.67 L537.73,409.67 L537.73,387 L526.4,387 Z M0,410.94 L11.34,410.94 L11.34,388.27 L0,388.27 Z M526.4,443.69 L537.73,443.69 L537.73,421.01 L526.4,421.01 Z M0,444.96 L11.34,444.96 L11.34,422.28 L0,422.28 Z M526.4,458.7 L515.6,464.92 L521.26,474.74 L534.9,466.88 L537.73,465.24 L537.73,461.97 L537.73,455.03 L526.4,455.03 Z M0,461.97 L5.67,461.97 L2.83,466.88 L4.99,468.12 L8.54,461.97 L11.34,461.97 L11.34,456.3 L0,456.3 Z M14.81,473.79 L34.44,485.14 L40.11,475.32 L20.48,463.97 Z M486.13,481.92 L491.8,491.74 L511.45,480.41 L505.78,470.59 Z M44.26,490.81 L63.9,502.15 L69.57,492.34 L49.93,480.99 Z M456.67,498.92 L462.34,508.75 L481.99,497.41 L476.32,487.59 Z M73.72,507.82 L93.35,519.17 L99.02,509.35 L79.38,498 Z M427.21,515.92 L432.88,525.75 L452.52,514.41 L446.86,504.59 Z M103.17,524.84 L122.81,536.18 L128.47,526.37 L108.84,515.02 Z M397.75,532.92 L403.41,542.75 L423.06,531.41 L417.39,521.59 Z M132.62,541.85 L152.26,553.2 L157.93,543.38 L138.29,532.03 Z M368.29,549.92 L373.95,559.75 L393.59,548.41 L387.93,538.59 Z M162.08,558.87 L181.71,570.21 L187.38,560.4 L167.75,549.05 Z M338.82,566.92 L344.49,576.75 L364.13,565.41 L358.46,555.59 Z M191.53,575.88 L211.17,587.23 L216.84,577.41 L197.2,566.07 Z M309.36,583.92 L315.03,593.75 L334.67,582.41 L329,572.59 Z M220.98,592.9 L240.62,604.24 L246.29,594.43 L226.65,583.08 Z M279.9,600.92 L285.57,610.75 L305.2,599.41 L299.54,589.59 Z M250.44,609.92 L265.87,618.84 L268.71,620.47 L271.54,618.84 L275.74,616.41 L271.51,609.07 L271.54,609.02 L271.46,608.97 L270.08,606.59 L268.71,607.38 L256.11,600.1 Z" fill="none" stroke="currentColor" stroke-width="1.5"/></svg>