<svg xmlns="http://www.w3.org/2000/svg" viewBox="0 0 919.84 743.59" width="24" height="24"><path d="M593.53,0 C504.95,0 424.66,18.6 365.57,49.33 C306.48,80.05 267.21,123.97 267.21,174.84 L267.21,234.3 L186.31,234.3 C172.64,234.3 162.33,245.63 162.33,258.58 L162.33,405.57 L25.65,405.57 C10.99,405.57 0,416.65 0,429.12 L0,549.71 C0,563.04 12.83,572.41 22.88,572.41 L162.33,572.41 L162.33,720.22 C162.33,733.18 172.88,743.59 185.53,743.59 L303.89,743.59 C319.66,743.59 329.49,733.24 329.49,717.63 L329.49,572.41 L470.59,572.41 C485.82,572.41 496.68,562.35 496.68,548.36 L496.68,512.52 C529.08,518.01 561.38,520.63 590.97,520.63 C662.48,520.63 742.96,506.99 806.85,478.59 C838.8,464.39 866.67,446.48 886.96,424.1 C907.25,401.72 919.81,374.44 919.82,343.56 L919.84,173.27 C919.84,122.4 880.52,78.83 821.43,48.51 C762.34,18.19 682.08,0 593.53,0 Z M593.53,22.68 C678.95,22.68 756.17,40.52 811.08,68.69 C865.98,96.86 897.16,134.26 897.16,173.27 C897.16,212.28 865.93,250.13 811.02,278.7 C756.11,307.26 678.91,325.48 593.53,325.48 C508.11,325.48 430.89,307.64 375.98,279.45 C335.02,258.08 290.7,220.02 289.88,174.84 C289.88,135.83 321.12,98 376.03,69.44 C430.94,40.89 508.15,22.68 593.53,22.68 Z M897.15,237.42 L897.16,237.42 L897.14,343.55 C897.14,368.41 887.52,389.72 870.16,408.87 C852.8,428.01 827.57,444.57 797.65,457.87 C737.81,484.47 659.55,497.95 590.97,497.95 C561.59,497.95 529.09,495.14 496.68,489.41 L496.68,428.42 C496.69,417.14 486.33,405.57 472.58,405.57 L367.96,405.57 C352.57,405.57 341.69,417.3 341.69,432.24 C340.4,468.29 337.53,492.07 329.45,512.96 C309.67,564.04 270.92,573.6 246,573.6 C193.11,573.6 160.41,534.85 160.41,488.96 C160.41,434.92 210.75,398.15 300.37,390.37 C320.58,389.49 329.49,377.89 329.49,364.57 L329.49,277.44 C340.39,285.45 352.48,292.88 365.62,299.62 C424.71,329.96 504.98,348.16 593.53,348.16 C682.12,348.16 762.4,329.55 821.48,298.81 C853.81,281.99 879.88,261.11 897.15,237.42 Z M248.46,432.22 Z" fill="none" stroke="currentColor" stroke-width="1.5"/></svg>