<svg xmlns="http://www.w3.org/2000/svg" viewBox="0 0 49.01 85.64" width="24" height="24"><path d="M49.01,82.77 L3.51,60.77 L0.01,1.77 L46.51,25.37 Z M2.61,8.17 L9.71,14.07 L10.71,9.37 L4.21,4.07 Z M14.51,15.77 L21.21,20.67 L22.51,15.77 L15.71,10.77 Z M26.31,22.47 L33.21,27.47 L34.41,23.27 L27.81,17.77 Z M38.11,29.27 L44.91,34.37 L46.11,29.27 L39.21,24.37 Z M45.31,39.07 L3.01,12.67 Z M25.31,30.67 L25.31,32.27 L33.81,47.07 Z M23.81,29.77 L23.61,29.77 L16.31,37.17 Z M23.71,41.37 L23.71,33.47 Z M31.11,45.67 L25.11,42.07 Z M25.01,44.07 L25.01,51.87 Z M23.71,43.27 L17.51,39.67 Z M23.71,53.07 L14.91,38.17 Z M24.91,55.57 L32.51,48.37 Z M2.81,45.67 L45.31,72.27 Z M39.61,71.67 L38.01,75.97 L44.61,81.37 L46.21,76.97 Z M34.31,69.87 L27.31,64.67 L26.21,69.37 L32.81,74.47 Z M22.61,63.57 L15.61,57.97 L14.51,62.37 L21.21,67.77 Z M10.61,56.17 L4.11,51.27 L2.71,55.27 L9.21,60.87 Z" fill="none" stroke="currentColor" stroke-width="1.5"/></svg>