<svg xmlns="http://www.w3.org/2000/svg" viewBox="0 0 100.0 100.0" width="24" height="24"><path d="M43.47,40.74 L43.47,33.41 C43.47,29.57 46.13,27.41 50.31,27.41 C54.43,27.41 56.48,30.3 56.48,33.49 L56.48,40.74 Z M64.28,40.74 L64.28,31.49 C64.28,24.17 58.14,18.82 50.56,18.82 C42.72,18.82 35.29,23.21 35.29,31.58 L35.29,40.74 L26.7,40.74 L26.7,78.36 L72.42,78.36 L72.42,40.74 Z M90.19,0 C96.2,0 100,3.64 100,9.9 L100,92.13 C100,96.74 96.95,100 92.41,100 L7.2,100 C3.1,100 0,98.04 0,92.69 L0,8.34 C0,3.56 3.4,0 8.18,0 Z" fill="none" stroke="currentColor" stroke-width="1.5"/></svg>