<svg xmlns="http://www.w3.org/2000/svg" viewBox="0 0 57.85 100.19" width="24" height="24"><path d="M23.06,86.24 C23.06,82.46 26.21,80.6 28.8,80.6 C32.3,80.6 34.67,83.35 34.67,86.55 L34.67,94.24 C34.67,97.43 32.3,100.19 28.8,100.19 C26.21,100.19 23.06,98.33 23.06,94.54 Z M23.21,20.13 L10.73,32.76 C7.9,35.16 4.44,34.42 2.45,32.5 C0.64,30.65 0,26.73 2.77,24.16 L24.57,2.31 C26.8,0.09 30.86,0 33.12,2.36 L55.04,24.28 C57.04,26.26 57.85,29.98 54.98,32.78 C52.09,35.13 48.79,34.66 46.53,32.23 L34.82,20.47 L34.82,65.67 C34.82,68.86 32.44,71.62 28.95,71.62 C26.36,71.62 23.21,69.76 23.21,65.97 Z" fill="none" stroke="currentColor" stroke-width="1.5"/></svg>