<svg xmlns="http://www.w3.org/2000/svg" viewBox="0 0 90.84 101.24" width="24" height="24"><path d="M4.69,16.58 C0,11.24 2.77,5.59 5.4,3.33 C8.39,0.52 14.36,0.16 17.32,3.24 L46.05,31.94 L73.89,3.85 C77.67,0 83.24,0.2 86.92,3.46 C90.84,7.53 90.4,12.61 87.97,15.47 L54.25,49.5 C50.42,53.88 44.33,56.11 38.89,50.69 Z M4.07,62.67 C0.49,58.92 1.77,52.64 5.24,49.75 C8.37,47.27 13.95,46.64 16.99,49.6 L45.88,78.52 L74.17,50.16 C77.42,47.06 83.3,46.47 87.27,50.66 C89.88,53.69 90.36,59.31 87.81,62.04 L52.68,97.56 C48.93,101.18 42.58,101.24 39.34,97.74 Z" fill="none" stroke="currentColor" stroke-width="1.5"/></svg>