<svg xmlns="http://www.w3.org/2000/svg" viewBox="0 0 100.0 100.0" width="24" height="24"><path d="M71.72,49.21 C74.39,44.31 72.22,41.07 68.71,41.11 L49.08,42.05 L51.98,23.66 C52.33,18.74 46.01,18.75 43.88,21.9 L28.3,50.56 C25.72,55.57 27.17,58.04 31.83,58.04 L52.5,56.07 L47.73,74.25 C46.45,78.84 54.56,80.67 56.55,77.36 Z M90.19,0 C96.2,0 100,3.64 100,9.9 L100,92.13 C100,96.74 96.95,100 92.41,100 L7.2,100 C3.1,100 0,98.04 0,92.69 L0,8.34 C0,3.56 3.4,0 8.18,0 Z" fill="none" stroke="currentColor" stroke-width="1.5"/></svg>