<svg xmlns="http://www.w3.org/2000/svg" viewBox="0 0 100.0 100.0" width="24" height="24"><path d="M53.71,56.64 C61.91,57.57 69,56.51 74.41,51.9 C79.57,46.78 80.61,40.51 79.45,34.43 L68.35,42.13 C65.42,43.92 61.24,42.38 58.89,38.81 C56.72,35.59 56.41,30.97 58.96,29.34 L70.85,21.62 C63.44,18.88 54.39,19.06 47.79,24.78 C41.86,30.19 41.9,38.9 43.6,43.75 L22.89,65.58 C19.75,69.21 20.31,74.3 24.44,77.41 C27.89,80.16 32.38,80.14 35.03,77.55 Z M90.19,0 C96.2,0 100,3.64 100,9.9 L100,92.13 C100,96.74 96.95,100 92.41,100 L7.2,100 C3.1,100 0,98.04 0,92.69 L0,8.34 C0,3.56 3.4,0 8.18,0 Z" fill="none" stroke="currentColor" stroke-width="1.5"/></svg>