<svg xmlns="http://www.w3.org/2000/svg" viewBox="0 0 100.0 100.0" width="24" height="24"><path d="M44.08,39.91 L44.08,74.62 C44.08,78.58 47.37,80.53 50.09,80.53 C53.74,80.53 56.23,77.65 56.23,74.3 L56.23,40.26 L68.49,52.57 C70.86,55.12 74.31,55.61 77.34,53.15 C80.34,50.22 79.5,46.32 77.4,44.25 L54.45,21.3 C52.09,18.83 47.84,18.92 45.5,21.24 L22.68,44.12 C19.77,46.81 20.44,50.91 22.34,52.86 C24.42,54.87 28.05,55.63 31.01,53.13 Z M90.19,0 C96.2,0 100,3.64 100,9.9 L100,92.13 C100,96.74 96.95,100 92.41,100 L7.2,100 C3.1,100 0,98.04 0,92.69 L0,8.34 C0,3.56 3.4,0 8.18,0 Z" fill="none" stroke="currentColor" stroke-width="1.5"/></svg>