<svg xmlns="http://www.w3.org/2000/svg" viewBox="0 0 100.0 100.0" width="24" height="24"><path d="M22.9,62.8 L22.9,24.8 L76.9,24.8 L76.9,62.8 L22.9,62.8 Z M21,67.6 L40.9,67.7 L41.5,71.2 C41.9,73 40.8,74.7 39.1,75.2 C36.9,76 34.6,76.4 32.3,76.4 L27.9,76.4 L27.9,80.4 L69.5,80.4 L69.5,76.4 L65.8,76.4 C63.8,76.5 61.7,76.2 59.8,75.5 C58.1,75.1 57,73.4 57.3,71.6 C57.3,71.6 57.3,71.5 57.3,71.5 L58.2,67.7 L78.2,67.7 C79.9,67.6 81.4,66.3 81.8,64.6 L81.9,23 C81.7,21.1 80.1,19.6 78.2,19.7 L21.2,19.7 C19.6,19.9 18.3,21.3 18.2,23 L18.2,63.9 C18,65.7 19.2,67.4 21,67.6 C21,67.6 21,67.6 21,67.6 Z M90.2,0 C96.2,0 100,3.6 100,9.9 L100,92.1 C100,96.7 96.9,100 92.4,100 L7.2,100 C3.1,100 0,98 0,92.7 L0,8.3 C0,3.6 3.4,0 8.2,0 L90.2,0 Z" fill="none" stroke="currentColor" stroke-width="1.5"/></svg>