<svg xmlns="http://www.w3.org/2000/svg" viewBox="0 0 100.0 100.0" width="24" height="24"><path d="M24.8,52.9 L24.8,24.5 L53.2,24.5 L53.2,39.6 L44.6,39.6 C40.1,39.6 37.8,42.3 37.8,46.6 C37.8,47.8 37.8,51.7 37.8,52.9 L24.8,52.9 Z M75,83.1 C79.7,83.1 82.6,79.7 82.6,74.4 L82.6,47.9 C82.6,42.4 79.4,39.6 74.3,39.6 L60.9,39.6 L60.9,23.2 C60.9,18.5 57.8,16.2 54,16.1 L24.1,16.1 C18.1,16.1 16.1,18.1 16.1,24.2 L16.1,55.1 C16.1,59.9 18.3,62.5 22.9,62.5 L37.7,62.5 L37.7,75.4 C37.7,80.6 40.4,83.1 45.7,83.1 L75,83.1 Z M90.2,0 C96.2,0 100,3.6 100,9.9 L100,92.1 C100,96.7 96.9,100 92.4,100 L7.2,100 C3.1,100 0,98 0,92.7 L0,8.3 C0,3.6 3.4,0 8.2,0 L90.2,0 Z" fill="none" stroke="currentColor" stroke-width="1.5"/></svg>