<svg xmlns="http://www.w3.org/2000/svg" viewBox="0 0 100.0 100.0" width="24" height="24"><path d="M43.73,49.11 C43.67,45.62 45.81,43.41 49.63,43.34 C52.61,43.45 55.1,45.36 55.1,49.11 C55.1,52.45 52.54,54.78 49.63,54.78 C46.06,54.78 43.73,52.64 43.73,49.11 Z M27.7,49.48 C27.7,62.79 36.52,70.89 50,70.89 C61.01,70.89 70.69,62.08 70.69,49.48 C70.69,35.31 61.26,28.07 50,27.68 C35.57,27.94 27.47,36.3 27.7,49.48 Z M20.85,49.54 C20.54,32.16 31.22,21.14 50.26,20.79 C65.11,21.3 77.55,30.85 77.55,49.54 C77.55,66.16 64.78,77.78 50.26,77.78 C32.48,77.78 20.85,67.1 20.85,49.54 Z M90.19,0 C96.2,0 100,3.64 100,9.9 L100,92.13 C100,96.74 96.95,100 92.41,100 L7.2,100 C3.1,100 0,98.04 0,92.69 L0,8.34 C0,3.56 3.4,0 8.18,0 Z M85.94,5.29 L12.6,5.29 C8.33,5.29 5.29,8.47 5.29,12.74 L5.29,88.18 C5.29,92.96 8.06,94.71 11.73,94.71 L87.92,94.71 C91.98,94.71 94.71,91.8 94.71,87.67 L94.71,14.15 C94.71,8.54 91.31,5.29 85.94,5.29 Z" fill="none" stroke="currentColor" stroke-width="1.5"/></svg>