<svg xmlns="http://www.w3.org/2000/svg" viewBox="0 0 42.2 35.6" width="24" height="24"><path d="M18.5,21.8 L18.5,23.5 L17.4,23.5 L17.4,25.1 L20.1,25.1 L20.1,23.5 L19,23.5 L19,22.4 L20.7,22.4 L21.2,22.4 L22.8,22.4 L22.8,23.5 L21.7,23.5 L21.7,25.1 L24.5,25.1 L24.5,23.5 L23.4,23.5 L23.4,21.8 L22.8,21.8 L21.2,21.8 L21.2,20.7 L22.3,20.7 L22.3,19.1 L19.6,19.1 L19.6,20.7 L20.7,20.7 L20.7,21.8 L19,21.8 Z M11.4,7.1 L19,7.1 L19,8.2 L11.4,8.2 Z M41.6,5.2 C41.2,4.8 40.8,4.6 40.4,4.6 L40.1,4.6 C40.1,4 39.9,2.9 39.5,2.5 C39.1,2.1 38.7,1.9 38.3,1.9 L37.5,1.9 C37.4,1.4 37.3,0.8 37.1,0.5 C36.8,0.2 36.4,0 36.1,0 C36,0 35.9,0 35.8,0 L1.6,0 C0.7,0 0,0.9 0,1.9 L0,28.4 C0,29.5 0.7,30.3 1.6,30.3 L1.8,30.3 L1.8,30.6 C1.8,31.9 2.7,32.9 3.8,32.9 L3.9,32.9 L3.9,33.3 C3.9,34.6 4.8,35.6 5.9,35.6 L40.2,35.6 C41.3,35.6 42.2,34.5 42.2,33.3 L42.2,7.6 C42.2,7.6 42.2,7.6 42.2,7.6 L42.2,7.6 C42.2,7 42.1,5.7 41.6,5.2 Z M21.3,15 L27.5,25.3 C27.8,25.7 27.6,26.1 27,26.1 L14.6,26.1 C14.1,26.1 13.9,25.7 14.1,25.3 L20.3,15 C20.6,14.6 21,14.6 21.3,15 Z M9.8,4.9 C9.8,4.3 10.3,3.8 10.9,3.8 L19.6,3.8 C20.2,3.8 20.7,4.3 20.7,4.9 L20.7,13.7 C20.3,13.7 20,14 19.8,14.3 L15.9,20.7 L11.4,20.7 L11.4,21.8 L15.2,21.8 L14.6,22.9 L11.4,22.9 L11.4,24 L13.9,24 L13,25.5 C12.9,25.7 12.8,26 12.8,26.2 L9.8,26.2 L9.8,4.9 Z M2.5,30.7 L2.5,30.4 L35.8,30.4 C36.7,30.4 37.4,29.5 37.4,28.5 L37.4,2.6 L37.4,2.6 C37.4,2.6 37.4,2.6 37.4,2.6 L38.2,2.6 C38.4,2.6 38.7,2.7 38.9,3 C39.2,3.3 39.3,4.3 39.3,4.7 L39.3,30.6 C39.3,31.4 38.7,32.1 38,32.1 L3.8,32.1 C3.1,32.2 2.5,31.6 2.5,30.7 Z M41.4,33.4 C41.4,34.2 40.8,34.9 40.1,34.9 L5.9,34.9 C5.2,34.9 4.6,34.2 4.6,33.4 L4.6,33 L38,33 C39.1,33 40,31.9 40,30.7 L40,5.4 L40.3,5.4 C40.5,5.4 40.8,5.5 41,5.8 C41.3,6.1 41.4,7.1 41.4,7.5 L41.4,33.4 Z" fill="none" stroke="currentColor" stroke-width="1.5"/></svg>