<svg xmlns="http://www.w3.org/2000/svg" viewBox="0 0 622.3 622.94" width="24" height="24"><path d="M414.92,486.26 C411.54,487.23 407.7,489.75 405.32,492.94 L369.97,467.13 C376.58,457.93 373.75,440.49 363.75,428.48 L412.13,369.72 L414.79,370.05 Z M450.78,493.2 C449.31,491.05 446.98,487.94 441.31,486.58 L441.25,369.79 L443.44,369.09 L492.87,428.35 C484.56,436.36 479.21,455.7 486.38,467 Z M502.6,486.78 C506.5,489.19 512.32,490.36 519.98,490.22 C537.22,490.22 554.67,474.56 554.67,454.87 C554.67,430 533.04,417.83 520.65,417.83 C516.67,417.83 512.56,417.93 509.46,418.23 L460.91,353.78 C463.71,349.17 464.14,346 464.14,340.05 C464.14,313.37 443.37,301.44 428.65,301.44 C407.93,301.44 392.22,318.49 392.22,337.81 C392.22,346.47 393.85,351.2 395.72,353.38 L347.08,418.36 C319.69,415.09 301.17,432.69 301.17,454.81 C301.17,473.47 317.5,490.22 338,490.22 C343.83,490.22 349.69,489.16 353.83,486.58 L392.48,515.9 C390.69,540.7 410.94,555.2 428.02,555.2 C447.87,555.2 465.93,537.39 463.69,516.29 Z M428.27,622.94 L233.84,460.55 L428.14,233.81 L622.3,460.52 Z M327.23,574.27 L298.21,596.95 L0,350.29 L298.3,0 L596.83,350.4 L577.52,366.36 L428.19,194.02 L197.23,463.85 Z" fill="none" stroke="currentColor" stroke-width="1.5"/></svg>