<svg xmlns="http://www.w3.org/2000/svg" viewBox="0 0 99.6 85.92" width="24" height="24"><path d="M59.14,55.08 L59.14,39.65 L73.07,31.75 L86.92,39.83 L86.92,54.92 L73.04,63.11 Z M59.99,54.56 L63.29,56.58 L63.29,52.48 L59.99,50.51 Z M64.32,57.02 L68.12,59.15 L68.12,55.05 L64.32,52.93 Z M68.86,59.59 L72.69,61.93 L72.69,57.91 L68.86,55.68 Z M68.86,54.55 L72.69,56.65 L72.69,52.64 L68.86,50.57 Z M64.32,51.75 L68.12,54.06 L68.12,50.01 L64.32,47.73 Z M59.99,49.33 L63.29,51.51 L63.29,47.42 L59.99,45.34 Z M59.99,44.35 L63.29,46.31 L63.29,42.3 L59.99,40.36 Z M64.32,46.68 L68.12,49.04 L68.12,45 L64.32,42.74 Z M68.86,49.54 L72.69,51.85 L72.69,47.81 L68.86,45.47 Z M64.3,41.88 L67.87,39.78 L64.43,37.6 L60.71,39.65 Z M68.7,39.14 L72.21,37.09 L68.8,35.07 L65.39,37.01 Z M73.08,36.7 L76.54,34.63 L73.08,32.61 L69.61,34.57 Z M77.36,39.38 L80.92,37.2 L77.41,35.18 L73.86,37.33 Z M81.76,41.92 L85.39,39.8 L82,37.67 L78.35,39.82 Z M77.54,44.18 L80.87,42.18 L77.38,40.11 L74.07,42.21 Z M73.05,41.92 L76.57,39.8 L73.03,37.83 L69.72,39.8 Z M68.72,44.36 L72.21,42.24 L68.7,40.11 L65.13,42.21 Z M73.03,46.96 L76.57,44.86 L73.03,42.66 L69.59,44.65 Z M73.58,51.62 L77.38,49.36 L77.38,45.32 L73.58,47.6 Z M78.07,48.87 L81.94,46.56 L81.94,42.54 L78.07,44.9 Z M82.77,46.24 L86.13,44.27 L86.13,40.23 L82.77,42.17 Z M82.77,51.28 L86.13,49.34 L86.13,45.35 L82.77,47.29 Z M78.07,53.93 L81.94,51.8 L81.94,47.79 L78.07,49.89 Z M73.58,56.69 L77.38,54.38 L77.38,50.34 L73.58,52.62 Z M73.58,61.72 L77.38,59.39 L77.38,55.48 L73.58,57.71 Z M78.07,59.05 L81.94,56.82 L81.94,52.78 L78.07,55.09 Z M82.77,56.34 L86.13,54.35 L86.13,50.39 L82.77,52.28 Z M0,85.91 L0,0 L99.6,0 L99.6,85.92 Z M4.31,81.57 L95.16,81.57 L95.16,22.54 L4.31,22.52 Z M71.41,9.04 L77.54,9.01 L77.54,3.42 L71.41,3.42 Z M79.98,9.01 L86.25,9.01 L86.25,3.37 L79.98,3.4 Z M88.67,9.01 L94.94,9.01 L94.94,3.42 L88.67,3.42 Z M14.78,55.07 L14.78,39.64 L28.7,31.74 L42.56,39.82 L42.56,54.91 L28.68,63.1 Z M15.62,54.54 L18.93,56.56 L18.93,52.47 L15.62,50.5 Z M19.95,57.01 L23.76,59.13 L23.76,55.04 L19.95,52.91 Z M24.49,59.58 L28.33,61.92 L28.33,57.9 L24.49,55.67 Z M24.49,54.54 L28.33,56.64 L28.33,52.63 L24.49,50.55 Z M19.95,51.73 L23.76,54.04 L23.76,50 L19.95,47.72 Z M15.62,49.32 L18.93,51.5 L18.93,47.4 L15.62,45.33 Z M15.62,44.33 L18.93,46.3 L18.93,42.29 L15.62,40.34 Z M19.95,46.67 L23.76,49.03 L23.76,44.99 L19.95,42.73 Z M24.49,49.53 L28.33,51.84 L28.33,47.8 L24.49,45.46 Z M19.94,41.87 L23.51,39.77 L20.07,37.59 L16.34,39.64 Z M24.33,39.13 L27.85,37.08 L24.44,35.06 L21.03,37 Z M28.71,36.69 L32.18,34.61 L28.71,32.59 L25.25,34.56 Z M32.99,39.36 L36.56,37.19 L33.04,35.16 L29.5,37.32 Z M37.4,41.91 L41.02,39.78 L37.64,37.66 L33.99,39.81 Z M33.18,44.17 L36.51,42.17 L33.02,40.1 L29.71,42.2 Z M28.69,41.91 L32.2,39.78 L28.66,37.82 L25.36,39.78 Z M24.36,44.35 L27.85,42.22 L24.33,40.1 L20.76,42.2 Z M28.66,46.95 L32.2,44.85 L28.66,42.64 L25.22,44.64 Z M29.22,51.6 L33.01,49.35 L33.01,45.31 L29.22,47.59 Z M33.71,48.85 L37.58,46.54 L37.58,42.53 L33.71,44.89 Z M38.41,46.23 L41.77,44.26 L41.77,40.22 L38.41,42.16 Z M38.41,51.27 L41.77,49.33 L41.77,45.34 L38.41,47.28 Z M33.71,53.92 L37.58,51.79 L37.58,47.78 L33.71,49.88 Z M29.22,56.67 L33.01,54.36 L33.01,50.32 L29.22,52.61 Z M29.22,61.71 L33.01,59.38 L33.01,55.47 L29.22,57.7 Z M33.71,59.04 L37.58,56.8 L37.58,52.76 L33.71,55.07 Z M38.41,56.33 L41.77,54.34 L41.77,50.38 L38.41,52.26 Z" fill="none" stroke="currentColor" stroke-width="1.5"/></svg>