<svg xmlns="http://www.w3.org/2000/svg" viewBox="0 0 73.4 47.37" width="24" height="24"><path d="M36.65,4.59 L39.84,4.59 L39.84,1.43 L36.65,1.43 Z M32.19,4.59 L35.34,4.59 L35.34,1.43 L32.19,1.43 Z M27.49,4.59 L30.63,4.59 L30.63,1.43 L27.49,1.43 Z M7.66,12.11 L7.66,10.77 L29.03,10.77 L29.03,12.11 Z M7.66,16.73 L7.66,15.29 L29.03,15.29 L29.03,16.73 Z M7.66,21.33 L7.66,19.89 L15.94,19.89 L14.51,21.33 Z M29.03,36.64 L1.48,36.64 C0.89,36.64 0,36.22 0,34.74 L0,1.84 C0,0.49 0.91,0 1.9,0 L41.18,0 C42.39,0 42.79,0.96 42.81,1.71 L42.81,9.08 L39.84,9.08 L39.84,6 L2.96,6 L2.96,33.71 L29.03,33.71 Z M49.75,22.88 L48.34,21.46 L65.81,21.46 L65.81,22.88 Z M48.33,28.98 L49.71,27.59 L65.81,27.59 L65.81,28.98 Z M47.33,35.04 L44.38,35.04 L44.38,32.16 L47.33,32.16 Z M50.53,35.04 L50.53,32.16 L65.81,32.16 L65.81,35.04 Z M44.38,39.67 L44.38,38.27 L65.81,38.27 L65.81,39.67 Z M67.25,15.29 L70.44,15.29 L70.44,12.11 L67.25,12.11 Z M62.81,15.29 L65.81,15.29 L65.81,12.11 L62.81,12.11 Z M58.13,15.29 L61.24,15.29 L61.24,12.11 L58.13,12.11 Z M33.55,27.39 L33.55,44.37 L70.44,44.42 L70.44,16.74 L33.55,16.74 L33.55,22.96 L39.86,22.96 L39.86,19.96 L47.89,25.23 L39.86,30.49 L39.86,27.39 Z M30.65,27.39 L24.41,27.39 L24.41,30.47 L16.32,25.25 L24.41,19.96 L24.41,22.96 L30.65,22.96 L30.65,12.4 C30.65,11.44 31.36,10.77 32.17,10.77 L72.01,10.77 C72.91,10.77 73.4,11.58 73.4,12.49 L73.4,45.7 C73.4,46.6 72.78,47.37 71.72,47.36 L32.24,47.34 C31.49,47.34 30.62,47.02 30.65,45.61 Z" fill="none" stroke="currentColor" stroke-width="1.5"/></svg>