<svg xmlns="http://www.w3.org/2000/svg" viewBox="0 0 100.0 100.0" width="24" height="24"><path d="M47.2,100 L0,100 L0,52.9 L12.6,52.9 L7.2,59.9 L7.2,92.9 L40.4,92.9 L40.4,72.1 L47.2,72.1 Z Z M0,47.3 L0,0 L47.2,0 L47.2,23 L40.4,7.3 L7.2,7.3 L7.2,40.5 L18.3,40.5 Z M52.8,0 L100,0 L100,47.3 L79.5,47.3 L92.8,40.5 L92.8,7.3 L59.5,7.3 L59.5,22.6 Z M100,52.9 L100,100 L52.8,100 L52.8,72.1 L59.5,72.1 L59.5,92.9 L92.8,92.9 L92.8,59.9 L86.8,59.9 Z M31,66.7 Z" fill="none" stroke="currentColor" stroke-width="1.5"/></svg>