<svg xmlns="http://www.w3.org/2000/svg" viewBox="0 0 97.58 100.0" width="24" height="24"><path d="M0,74.34 L0,25.12 L49.08,0 L97.58,25.82 L97.58,73.74 L48.94,100 Z M2.93,72.5 L14.84,78.88 L14.84,66.1 L2.93,59.64 Z M2.93,56.39 L14.84,62.42 L14.84,49.64 L2.93,43.46 Z M2.93,40.59 L14.84,46.76 L14.84,34.05 L2.93,27.72 Z M17.8,48.13 L30.99,55.12 L30.99,42.55 L17.8,35.33 Z M17.8,64.1 L30.99,71.23 L30.99,58.52 L17.8,51.3 Z M17.8,80.37 L30.99,87.36 L30.99,74.44 L17.8,67.78 Z M33.93,56.63 L47.38,63.83 L47.38,51.05 L33.93,43.9 Z M33.93,72.57 L47.38,79.91 L47.38,66.85 L33.93,59.77 Z M33.93,88.79 L47.38,96.05 L47.38,82.93 L33.93,76.05 Z M63.62,56.64 L63.62,43.86 L50.41,51.1 L50.41,63.87 Z M80,47.84 L80,34.99 L66.73,42.23 L66.73,54.87 Z M94.8,40.2 L94.8,27.7 L82.95,33.7 L82.95,46.55 Z M94.8,56.16 L94.8,43.38 L82.95,49.52 L82.95,62.51 Z M80,63.85 L80,51.14 L66.73,58.31 L66.73,71.08 Z M63.62,72.63 L63.62,59.92 L50.41,67.09 L50.41,79.86 Z M63.62,88.77 L63.62,75.72 L50.41,82.82 L50.41,95.73 Z M80,80.23 L80,67.39 L66.73,74.42 L66.73,87.2 Z M94.8,72.46 L94.8,59.95 L82.95,66.23 L82.95,78.6 Z M5.93,25.69 L18.23,32.15 L30.32,25.69 L18.23,19.35 Z M21.31,17.61 L33.36,24.12 L45.46,17.61 L33.36,11.05 Z M36.76,9.68 L49.08,16.08 L61.17,9.69 L49.08,3.21 Z M52.25,17.61 L64.38,24.12 L76.44,17.61 L64.38,11.04 Z M67.61,25.69 L79.78,32.15 L92.14,25.69 L79.78,19.35 Z M52.25,33.72 L64.38,40.23 L76.37,33.72 L64.38,27.32 Z M36.76,25.69 L49.08,32.15 L60.97,25.69 L49.08,19.35 Z M21.31,33.72 L33.36,40.23 L45.46,33.72 L33.36,27.32 Z M36.76,41.57 L49.08,48.15 L61.25,41.57 L49.08,35.14 Z" fill="none" stroke="currentColor" stroke-width="1.5"/></svg>