<svg xmlns="http://www.w3.org/2000/svg" viewBox="0 0 75.56 88.4" width="24" height="24"><path d="M0.06,88.4 L0.06,4.6 L39.41,0 L43.16,51.6 L23.76,51.6 L23.76,66.8 L6.56,66.8 L6.56,71.3 L23.76,71.3 L23.76,75.4 L6.56,75.4 L6.56,79.8 L23.76,79.8 L23.76,88.4 Z M6.46,17.2 L36.66,17.2 L36.66,12.8 L6.46,12.9 Z M26.96,55 L75.56,55 L75.56,87.3 L26.96,87.3 Z M29.56,64.4 L29.56,84.6 L40.46,84.6 L40.46,64.4 Z M43.26,84.6 L72.86,84.6 L72.86,64.4 L43.26,64.4 Z M51.26,81.9 L51.26,79.3 L65.96,79.3 L65.96,81.85 Z M65.96,77.8 L51.26,77.8 L51.26,75.2 L65.96,75.2 Z M51.26,73.8 L51.26,71.1 L65.96,71.1 L65.96,73.8 Z M65.96,69.8 L51.26,69.8 L51.26,67.1 L65.96,67.1 Z" fill="none" stroke="currentColor" stroke-width="1.5"/></svg>