<svg xmlns="http://www.w3.org/2000/svg" viewBox="0 0 42.3 35.5" width="24" height="24"><path d="M27.5,19.7 L16.5,19.7 L16.5,25.7 L27.5,25.7 Z M21.2,24.6 L17.5,24.6 L17.5,20.8 L21.2,20.8 Z M26.5,24.6 L22.6,24.6 L22.6,24.1 L26.5,24.1 Z M26.5,23.5 L22.6,23.5 L22.6,23 L26.5,23 Z M26.5,22.4 L22.6,22.4 L22.6,21.9 L26.5,21.9 Z M26.5,21.3 L22.6,21.3 L22.6,20.8 L26.5,20.8 Z M11.1,7.4 L18.5,7.4 L18.5,8.5 L11.1,8.5 Z M41.7,5.1 C41.3,4.7 40.9,4.5 40.5,4.5 L40.2,4.5 C40.2,3.9 40,2.8 39.6,2.4 C39.2,2 38.8,1.8 38.4,1.8 L37.6,1.8 C37.5,1.3 37.4,0.8 37.2,0.5 C36.9,0.2 36.5,0 36.2,0 L35.9,0 L1.6,0 C0.7,0 0,0.9 0,1.9 L0,28.4 C0,29.4 0.7,30.3 1.6,30.3 L1.8,30.3 L1.8,30.5 C1.8,31.8 2.7,32.8 3.8,32.8 L3.9,32.8 L3.9,33.2 C3.9,34.5 4.8,35.5 5.9,35.5 L40.2,35.5 C41.3,35.5 42.2,34.4 42.2,33.2 L42.2,7.5 L42.2,7.5 L42.2,7.5 C42.3,7 42.2,5.6 41.7,5.1 Z M9.5,5.2 C9.5,4.6 10,4.1 10.6,4.1 L19,4.1 C19.6,4.1 20.1,4.6 20.1,5.2 L20.1,17.1 L19,17.1 L15.9,17.1 L15.4,17.1 L15.4,17.6 L15.4,20.9 L11.2,20.9 L11.2,22 L15.4,22 L15.4,23.1 L11.2,23.1 L11.2,24.2 L15.4,24.2 L15.4,26.4 L9.6,26.4 L9.6,5.2 Z M28.1,17.9 L28.1,26.3 L16,26.3 L16,17.9 Z M3.9,32.2 C3.2,32.2 2.6,31.5 2.6,30.7 L2.6,30.5 L35.9,30.5 C36.8,30.5 37.5,29.6 37.5,28.6 L37.5,2.6 L37.5,2.6 C37.5,2.7 37.5,2.7 37.5,2.6 L38.3,2.6 C38.5,2.6 38.8,2.7 39,3 C39.3,3.3 39.4,4.3 39.4,4.7 L39.4,30.6 C39.4,31.4 38.8,32.1 38.1,32.1 L3.9,32.1 Z M41.5,33.3 C41.5,34.1 40.9,34.8 40.2,34.8 L6,34.8 C5.3,34.8 4.7,34.1 4.7,33.3 L4.7,32.9 L38.1,32.9 C39.2,32.9 40.1,31.8 40.1,30.6 L40.1,5.3 L40.4,5.3 C40.6,5.3 40.9,5.4 41.1,5.7 C41.4,6 41.5,7 41.5,7.4 Z" fill="none" stroke="currentColor" stroke-width="1.5"/></svg>