<svg xmlns="http://www.w3.org/2000/svg" viewBox="0 0 77.0 50.1" width="24" height="24"><path d="M61,50.1 C69.6,50.1 77,42.8 77,34.2 C77,25.6 70.1,18.7 61.5,18.6 C58.6,12.8 52.7,8.9 45.8,8.9 C37.4,8.9 30.4,14.8 28.7,22.6 C24.6,23 21.1,25.2 18.9,28.3 L39.8,28.3 C41.2,26.5 43.4,25.4 45.9,25.4 C50.2,25.4 53.7,28.9 53.7,33.2 C53.7,37.5 50.2,41 45.9,41 C43.4,41 41.3,39.9 39.8,38.1 L16.5,38.1 C17.4,44.7 22.7,50.1 29.6,50.1 L61,50.1 Z M45.8,28.3 C43.8,28.3 42.1,29.5 41.3,31.2 L12.7,31.2 L12.7,31.2 C7.9,31.2 3.9,27.3 3.9,22.4 C3.9,17.5 7.8,13.6 12.7,13.6 L12.7,13.6 L12.8,13.6 L12.8,13.6 L16.7,13.6 C16.9,12.6 17.2,11.6 17.6,10.7 C17.8,10.4 17.9,10 18.1,9.7 C20.1,6.2 23.9,3.9 28.2,3.9 C32.1,3.9 35.5,5.8 37.6,8.6 C38.8,8 40.1,7.6 41.4,7.3 C38.6,2.9 33.8,0 28.2,0 C21.7,0 16.1,4 13.8,9.7 C13.8,9.7 13.8,9.7 13.8,9.8 L13.8,9.8 C13.8,9.8 13.8,9.8 13.8,9.7 L12.7,9.7 C5.7,9.8 0,15.5 0,22.5 C0,29.5 5.7,35.2 12.7,35.2 L41.4,35.2 C42.2,36.9 43.9,38.1 45.9,38.1 C48.6,38.1 50.8,35.9 50.8,33.2 C50.7,30.5 48.5,28.3 45.8,28.3 Z" fill="none" stroke="currentColor" stroke-width="1.5"/></svg>