<svg xmlns="http://www.w3.org/2000/svg" viewBox="0 0 93.73 91.06" width="24" height="24"><path d="M2.07,50 L0.07,3.2 L46.27,0 L50.27,47.6 Z M5.77,44 L43.67,44 L43.67,12.4 L5.77,12.4 Z M69.97,50.9 L59.27,37.7 L65.97,37.7 L52.87,17.8 L80.17,37.7 Z M9.07,40.7 L9.07,34.6 L40.47,34.6 L40.47,40.7 Z M9.07,31.2 L9.07,25 L40.47,25 L40.47,31.2 Z M9.07,21.9 L9.07,15.8 L40.47,15.8 L40.47,21.9 Z M58.17,78.2 L56.27,55.2 L79.87,53.2 L81.37,76.2 Z M59.37,75.4 L78.37,75.4 L78.37,59.6 L59.37,59.6 Z M62.47,62.8 L75.07,62.8 L75.07,65.8 L62.47,65.8 Z M84.47,81.7 L84.47,59.7 L86.17,59.7 L87.47,83 L64.17,84.8 L62.47,81.7 Z M90.67,87.9 L90.67,65.9 L92.37,65.9 L93.67,89.4 L70.37,91 L68.67,87.9 Z" fill="none" stroke="currentColor" stroke-width="1.5"/></svg>