<svg xmlns="http://www.w3.org/2000/svg" viewBox="0 0 49.0 46.0" width="24" height="24"><path d="M29,1.2 C29,0.5 28.5,0 27.8,0 L1.2,0 C0.5,0 0,0.5 0,1.2 L0,5 L29,5 L29,1.2 Z M11.7,8.24 C11.76,8.18 11.91,8.05 12.1,8.05 L12.29,8.05 L13.25,8.8 L13.45,9 L13.45,9 L29,9 L29,6 L0,6 L0,24.8 C0,25.5 0.5,26 1.2,26 L9,26 L9,22.69 L8.22,23.68 L4.92,20.17 L4.62,19.88 C4.42,19.68 4.42,19.42 4.62,19.22 L5.44,18.51 L5.6,18.35 L5.7,18.35 C5.9,18.35 6.01,18.43 6.04,18.59 L7.99,20.72 L9,19.44 L9,14.89 L8.22,15.88 L4.92,12.37 L4.62,12.08 C4.42,11.88 4.42,11.62 4.62,11.42 L5.44,10.71 L5.6,10.55 L5.7,10.55 C5.9,10.55 6.01,10.63 6.04,10.79 L7.99,12.91 L9,11.64 L9,11.2 C9,9.98 9.89,9.06 11.09,9.01 L11.7,8.24 Z M10,11.2 L10,15 L39,15 L39,11.2 C39,10.5 38.5,10 37.8,10 L11.2,10 C10.5,10 10,10.5 10,11.2 Z M47.8,20 L21.2,20 C20.5,20 20,20.5 20,21.2 L20,25 L49,25 L49,21.2 C49,20.5 48.5,20 47.8,20 Z M21.7,18.24 C21.76,18.18 21.91,18.05 22.1,18.05 L22.29,18.05 L23.25,18.8 L23.45,19 L23.45,19 L39,19 L39,16 L10,16 L10,34.8 C10,35.5 10.5,36 11.2,36 L19,36 L19,32.69 L18.22,33.68 L14.92,30.17 L14.62,29.88 C14.42,29.68 14.42,29.42 14.62,29.22 L15.44,28.51 L15.6,28.35 L15.7,28.35 C15.9,28.35 16.01,28.43 16.04,28.59 L17.99,30.72 L19,29.44 L19,24.89 L18.22,25.88 L14.92,22.37 L14.62,22.08 C14.42,21.88 14.42,21.62 14.62,21.42 L15.44,20.71 L15.6,20.55 L15.7,20.55 C15.9,20.55 16.01,20.63 16.04,20.79 L17.99,22.91 L19,21.64 L19,21.2 C19,19.98 19.89,19.06 21.09,19.01 L21.7,18.24 Z M20,44.8 C20,45.5 20.5,46 21.2,46 L47.8,46 C48.5,46 49,45.5 49,44.8 L49,26 L20,26 L20,44.8 Z M34,32 L45,32 L45,34 L34,34 L34,32 Z M34,40 L45,40 L45,42 L34,42 L34,40 Z M24.62,31.42 L25.44,30.71 L25.6,30.55 L25.7,30.55 C25.9,30.55 26.01,30.63 26.04,30.79 L27.99,32.92 L31.7,28.24 C31.76,28.18 31.91,28.05 32.1,28.05 L32.29,28.05 L33.25,28.8 L33.45,29 L33.45,29.29 L28.22,35.88 L24.92,32.37 L24.62,32.08 C24.42,31.88 24.42,31.62 24.62,31.42 Z M24.62,39.22 L25.44,38.51 L25.6,38.35 L25.7,38.35 C25.9,38.35 26.01,38.43 26.04,38.6 L27.99,40.72 L31.7,36.05 C31.76,35.98 31.91,35.85 32.1,35.85 L32.29,35.85 L33.25,36.6 L33.45,36.8 C33.45,36.8 33.45,37.09 33.45,37.09 L28.22,43.68 L24.92,40.17 L24.62,39.88 C24.42,39.68 24.42,39.42 24.62,39.22 Z" fill="none" stroke="currentColor" stroke-width="1.5"/></svg>