<svg xmlns="http://www.w3.org/2000/svg" viewBox="0 0 100.94 75.79" width="24" height="24"><path d="M48.31,41.94 C43.24,41.94 37.92,37.55 37.92,31.44 C37.92,26.22 42.32,20.97 48.49,20.97 C53.15,20.97 58.89,24.66 58.89,31.6 C58.89,37.79 53.52,41.94 48.31,41.94 Z M25.38,58.67 C20.9,58.67 16.96,55.17 16.96,50.18 C16.96,46.27 20.12,41.9 25.46,41.9 C28.89,41.9 33.75,44.65 33.75,50.3 C33.75,55.08 30.02,58.67 25.38,58.67 Z M46.33,63.82 C42.91,69.33 34.67,75.79 25.77,75.79 C14.45,75.79 0,66.22 0,50.22 C0,39 8.5,29.36 17.59,26.25 C20,8.7 35.83,0 48.5,0 C61.77,0 74.08,8.79 78.32,21.51 C94.3,24.49 100.94,37.82 100.94,48.5 C100.57,63.55 88.91,75.32 74.24,75.32 C63.2,75.32 54.84,70.08 50.53,62.7 L50.53,46.04 C54.12,45.65 57.05,43.84 59.36,40.78 L64.13,44.03 C63.56,45.39 63.26,47.04 63.26,48.61 C63.26,54.5 67.79,59.44 74.46,59.44 C81.24,59.44 85.22,53.53 85.22,48.75 C85.22,41.87 79.68,37.47 73.96,37.47 C71.19,37.47 68.67,38.42 66.32,40.39 L62.05,37.21 C62.75,35.42 63.2,33.7 63.2,31.45 C63.2,25.75 58.62,16.83 48.53,16.83 C41.87,16.83 33.79,21.76 33.79,31.54 C33.79,33.75 34.58,36.05 35.36,37.7 L32.71,39.79 C30.66,38.25 28.11,37.44 25.31,37.44 C18.86,37.44 12.77,42.51 12.77,50.63 C12.77,57.47 18.21,62.89 25.23,62.89 C34.82,62.89 38.02,54.97 38.02,50.65 C38.02,48.3 37.5,45.3 35.84,42.99 L37.45,41.36 C40.52,44.08 43.42,45.76 46.33,46.12 Z" fill="none" stroke="currentColor" stroke-width="1.5"/></svg>