<svg xmlns="http://www.w3.org/2000/svg" viewBox="0 0 47.8 47.8" width="24" height="24"><path d="M23.9,0 C10.7,0 0,10.7 0,23.9 C0,37.1 10.7,47.8 23.9,47.8 C37.1,47.8 47.8,37.1 47.8,23.9 C47.8,10.7 37.1,0 23.9,0 Z M18.9,21.4 C20.28,21.4 21.4,22.52 21.4,23.9 C21.4,25.28 20.28,26.4 18.9,26.4 C17.52,26.4 16.4,25.28 16.4,23.9 C16.4,22.52 17.52,21.4 18.9,21.4 Z M27.9,36.9 L11.39,36.9 C10.57,36.9 9.9,36.23 9.9,35.41 L9.9,18.9 L12.9,18.9 L12.9,33.9 L27.9,33.9 L27.9,36.9 Z M28.9,26.4 C27.52,26.4 26.4,25.28 26.4,23.9 C26.4,22.52 27.52,21.4 28.9,21.4 C30.28,21.4 31.4,22.52 31.4,23.9 C31.4,25.28 30.28,26.4 28.9,26.4 Z M37.9,28.9 L34.9,28.9 L34.9,13.9 L19.9,13.9 L19.9,10.9 L36.41,10.9 C37.23,10.9 37.9,11.57 37.9,12.39 L37.9,28.9 Z" fill="none" stroke="currentColor" stroke-width="1.5"/></svg>