<svg xmlns="http://www.w3.org/2000/svg" viewBox="0 0 412.0 334.8" width="24" height="24"><path d="M0,0 L0,334.8 L412,334.8 L412,0 C412,0 0,0 0,0 Z M394.8,317.6 L17.2,317.6 L17.2,60.1 L394.9,60.1 L394.9,317.6 Z M334.7,77.3 L377.6,77.3 L377.6,120.2 L334.7,120.2 Z M334.7,137.4 L377.6,137.4 L377.6,180.3 L334.7,180.3 Z M334.7,197.4 L377.6,197.4 L377.6,240.3 L334.7,240.3 Z M274.7,77.3 L317.6,77.3 L317.6,120.2 L274.7,120.2 Z M274.7,137.4 L317.6,137.4 L317.6,180.3 L274.7,180.3 Z M274.7,197.4 L317.6,197.4 L317.6,240.3 L274.7,240.3 Z M274.7,257.5 L317.6,257.5 L317.6,300.4 L274.7,300.4 Z M214.6,77.3 L257.5,77.3 L257.5,120.2 L214.6,120.2 Z M214.6,137.4 L257.5,137.4 L257.5,180.3 L214.6,180.3 Z M214.6,197.4 L257.5,197.4 L257.5,240.3 L214.6,240.3 Z M214.6,257.5 L257.5,257.5 L257.5,300.4 L214.6,300.4 Z M154.5,77.3 L197.4,77.3 L197.4,120.2 L154.5,120.2 Z M154.5,137.4 L197.4,137.4 L197.4,180.3 L154.5,180.3 Z M154.5,197.4 L197.4,197.4 L197.4,240.3 L154.5,240.3 Z M154.5,257.5 L197.4,257.5 L197.4,300.4 L154.5,300.4 Z M94.4,77.3 L137.3,77.3 L137.3,120.2 L94.4,120.2 Z M94.4,137.4 L137.3,137.4 L137.3,180.3 L94.4,180.3 Z M94.4,197.4 L137.3,197.4 L137.3,240.3 L94.4,240.3 Z M94.4,257.5 L137.3,257.5 L137.3,300.4 L94.4,300.4 Z M34.3,137.4 L77.2,137.4 L77.2,180.3 L34.3,180.3 Z M34.3,197.4 L77.2,197.4 L77.2,240.3 L34.3,240.3 Z M34.3,257.5 L77.2,257.5 L77.2,300.4 L34.3,300.4 Z M0,0 L0,334.8 L412,334.8 L412,0 C412,0 0,0 0,0 Z M394.8,317.6 L17.2,317.6 L17.2,60.1 L394.9,60.1 L394.9,317.6 Z" fill="none" stroke="currentColor" stroke-width="1.5"/></svg>