<svg xmlns="http://www.w3.org/2000/svg" viewBox="0 0 99.68 88.68" width="24" height="24"><path d="M71.73,88.68 L68.53,32.18 L78.43,36.38 Z M69.43,73.18 L89.13,49.78 L84.13,45.78 L69.03,63.78 L60.23,55.58 L55.73,60.28 Z M13.83,56.28 L13.83,14.38 L76.43,14.38 L76.43,28.68 L70.13,26.38 L70.13,21.08 L21.13,21.08 L21.13,26.38 L70.33,26.38 L60.83,33.58 L28.03,33.58 L28.03,37.08 L40.63,37.08 L28.03,43.98 L28.03,47.48 L41.03,47.48 Z M39.83,59.58 Z M29.83,59.58 Z M19.33,59.58 Z M6.83,56.38 Z M4.83,45.78 Z M10.53,39.98 Z M10.53,30.38 Z M10.53,19.38 Z M13.83,6.88 Z M18.83,0.18 Z M29.33,0.18 Z M40.33,0.18 Z M50.83,0.18 Z M60.83,0.18 Z M71.83,0.18 Z M83.83,0.28 Z M90.83,19.38 Z M90.83,29.38 Z" fill="none" stroke="currentColor" stroke-width="1.5"/></svg>