<svg xmlns="http://www.w3.org/2000/svg" viewBox="0 0 100.01 99.94" width="24" height="24"><path d="M54.63,50.46 L66.64,62.82 C68.44,64.66 68.53,67.34 66.14,68.97 C63.72,70.7 61.16,70.04 58.5,67.84 L43.54,53.41 L43.54,31.19 C43.57,28.49 46.9,27.12 48.96,27.12 C51.13,27.12 54.63,28.69 54.63,31.35 Z M85.99,46.44 C87.81,46.44 89.59,48.01 89.59,50.1 C89.59,51.62 88.39,53.6 85.8,53.6 C84.31,53.6 82.3,52.16 82.3,50 C82.3,48.13 83.97,46.44 85.99,46.44 Z M49.96,17.93 C48.17,17.93 46.34,16.31 46.34,14.38 C46.34,12.31 47.89,10.69 50.15,10.69 C51.98,10.69 53.7,12.28 53.69,14.43 C53.69,16.6 51.6,17.93 49.96,17.93 Z M13.92,53.7 C12,53.7 10.42,51.88 10.42,50 C10.42,47.88 12.25,46.47 14.11,46.47 C16.01,46.47 17.74,47.89 17.74,50.13 C17.74,51.78 16.28,53.7 13.92,53.7 Z M50.08,89.42 C48.6,89.42 46.37,88.24 46.37,85.76 C46.37,83.54 48.58,82.15 50.01,82.15 C52.43,82.15 53.59,84.04 53.59,85.87 C53.59,88.16 51.7,89.42 50.08,89.42 Z M49.75,96.34 C75.75,96.34 95.92,75.45 95.92,49.63 C95.92,25.49 76.26,4.04 49.75,4.04 C21.53,4.04 3.85,28.61 3.85,49.43 C3.85,75.59 24.22,96.34 49.75,96.34 Z M49.72,99.94 C24.31,99.94 0,80.67 0,48.55 C0,22.54 23.71,0 49.5,0 C78.42,0 100.01,23.92 100.01,49.09 C100.01,77.47 78.59,99.94 49.72,99.94 Z" fill="none" stroke="currentColor" stroke-width="1.5"/></svg>