<svg xmlns="http://www.w3.org/2000/svg" viewBox="0 0 43.0 35.9" width="24" height="24"><path d="M34.3,15 L32.4,15.6 L31.9,16.6 L32.6,18.1 L32.7,18.3 L31.7,19.3 L30,18.6 L29,19 L28.5,20.6 L28.4,20.8 L26.9,20.8 L26.3,19 L25.3,18.6 L23.8,19.3 L23.6,19.4 L22.6,18.4 L23.4,16.7 L23,15.7 L21.7,15.2 L21.7,15.1 L21.7,13.6 L23.2,13 L23.5,12 L22.7,10.5 L22.6,10.3 L23.6,9.3 L25.3,10.1 L26.3,9.7 L26.8,8.2 L26.9,8.1 L28.4,8.1 L29,9.8 L30,10.1 L31.5,9.3 L31.7,9.2 L32.7,10.2 L31.9,11.9 L32.3,12.9 L34,13.4 L34.3,13.5 L34.3,15 Z M10.4,20.6 L12.2,20 L12.6,19 L11.9,17.5 L11.8,17.3 L12.8,16.3 L14.5,17.1 L15.5,16.7 L16,15.3 L16.1,15.2 L17.6,15.2 L18.2,16.8 L19.2,17.2 L20.7,16.4 L20.9,16.3 L21.9,17.3 L21.1,19 L21.5,20 L22.9,20.5 L23,20.6 L23,22.1 L21.4,22.6 L21,23.6 L21.8,25.1 L21.9,25.3 L20.9,26.3 L19.2,25.6 L18.2,26 L17.7,27.6 L17.6,27.8 L16.1,27.8 L15.4,26 L14.4,25.6 L12.9,26.3 L12.7,26.4 L11.7,25.4 L12.5,23.7 L12.1,22.7 L10.5,22.2 L10.3,22.1 L10.3,20.6 L10.4,20.6 Z M37.5,13.1 L36.7,12.8 L36.9,12 C37.1,11.2 37.2,10.4 37.2,9.6 C37.2,4.3 32.9,0 27.6,0 C23.7,0 20.2,2.3 18.7,5.9 L18.1,7.2 L17.2,6.1 C15.9,4.6 14.1,3.8 12.2,3.8 C8.6,3.8 5.6,6.7 5.6,10.4 C5.6,11 5.7,11.6 5.8,12.2 L6,13 L5.2,13.3 C2,14.5 0,17.1 0,20.3 C0,24.5 3.5,27.8 7.9,27.8 L9.9,27.8 C9.8,27.8 9.8,28.5 9.8,28.9 C9.8,32.8 13,35.9 16.8,35.9 C19.6,35.9 22.2,34.2 23.3,31.6 L23.7,30.6 L24.4,31.4 C25.3,32.5 26.7,33.1 28,33.1 C30.6,33.1 32.8,30.9 32.8,28.3 C32.8,28.1 32.8,27.8 32.8,27.8 L35,27.8 C39.4,27.8 42.9,24.5 42.9,20.3 C43,16.9 40.9,14.2 37.5,13.1 Z M16.86,19.24 C15.76,19.24 14.76,20.14 14.76,21.34 C14.76,22.44 15.66,23.44 16.86,23.44 C17.96,23.44 18.96,22.54 18.96,21.34 C18.86,20.14 17.96,19.24 16.86,19.24 Z M29.68,14.27 Z" fill="none" stroke="currentColor" stroke-width="1.5"/></svg>