<svg xmlns="http://www.w3.org/2000/svg" viewBox="0 0 80.48 99.6" width="24" height="24"><path d="M0.08,78.5 L0.08,3.8 L34.28,0 L38.28,17.2 L23.98,17.2 L17.38,59.3 L5.78,59.3 L5.78,63.2 L17.38,63.2 L17.38,67.1 L5.78,67.1 L5.78,70.8 L17.38,70.8 L17.38,78.5 Z M21.18,24.8 L55.28,21.1 L59.48,99.6 L21.18,99.6 Z M5.78,15.2 L32.58,15.18 L32.58,11.5 L5.78,11.5 Z M26.98,32.7 L26.98,36.4 L53.58,36.4 L53.58,32.7 Z M53.78,80.5 L26.78,80.5 L26.78,84.3 L53.78,84.3 Z M26.78,88.1 L26.78,92 L53.78,92 L53.78,87.6 Z M80.48,78.5 L63.28,78.5 L63.28,70.8 L74.68,70.8 L74.68,67.1 L63.28,67.1 L63.28,63.2 L74.78,63.2 L74.78,59.3 L63.28,59.3 L63.28,23.8 L42.28,17.2 L42.28,3.8 L77.03,0.3 Z M74.68,15.3 L74.68,11.5 L47.78,11.5 L47.78,15.3 Z" fill="none" stroke="currentColor" stroke-width="1.5"/></svg>