<svg xmlns="http://www.w3.org/2000/svg" viewBox="0 0 50.11 30.49" width="24" height="24"><path d="M40.28,17.68 C39.34,17.68 38.45,16.99 38.45,15.91 C38.45,14.95 39.15,14.09 40.28,14.09 C41.17,14.09 42.05,14.81 42.05,15.9 C42.05,16.76 41.33,17.68 40.28,17.68 Z M25.25,10.49 C24.32,10.49 23.44,9.75 23.44,8.68 C23.44,7.82 24.12,6.89 25.29,6.89 C26.03,6.89 27.05,7.32 27.05,8.7 C27.05,9.61 26.31,10.49 25.25,10.49 Z M21.74,21.73 C21.74,20.92 22.45,19.99 23.55,19.99 C24.33,19.99 25.34,20.53 25.34,21.72 C25.34,22.74 24.63,23.58 23.51,23.58 C22.44,23.58 21.74,22.67 21.74,21.73 Z M8.65,20.59 C7.78,20.59 6.84,19.88 6.84,18.86 C6.84,17.89 7.53,16.99 8.63,16.99 C9.65,16.99 10.44,17.76 10.44,18.8 C10.44,19.78 9.65,20.59 8.65,20.59 Z M14.85,28.75 C13.52,28.44 12.03,27.71 10.85,26.58 C8.48,27.53 5.86,27.41 3.57,25.82 C1.81,24.57 0,22.1 0.03,18.61 C0.03,14 3.67,10.82 7.04,9.69 C7.67,7.51 9.1,5.62 11.18,4.36 C12.95,3.29 14.85,3.03 15.94,3.26 L15.94,13.35 C15.94,14.55 16.87,15.39 17.97,15.39 L22.31,15.39 C22.59,15.39 22.95,15.62 22.95,16.01 L22.95,18.85 C21.62,19.1 20.44,20.28 20.44,21.94 C20.44,23.45 21.73,25 23.6,25 C25.22,25 26.66,23.74 26.66,22 C26.66,20.71 25.95,19.37 24.35,18.89 L24.35,16.03 C24.35,15.04 23.48,13.89 22.33,13.89 L17.99,13.89 C17.71,13.89 17.35,13.66 17.35,13.27 L17.35,2.74 C20.25,0.72 23.69,0.57 25.65,1.69 C29.41,0 32.57,1.26 34.95,2.99 C37.25,2.91 39.48,3.59 41.48,5.58 C42.84,6.91 43.8,8.66 44.35,10.49 C47.38,11.94 50.11,14.68 50.11,18.54 C50.11,21.49 47.87,25.45 44.27,26.38 C42.86,26.76 41.5,26.58 40.15,26.08 C38.54,28.13 35.88,29.41 33.35,29.39 L33.35,21.59 L38.86,21.59 C40.01,21.59 40.95,20.53 40.95,19.55 L40.95,18.91 C42.48,18.53 43.35,17.18 43.35,15.9 C43.35,14.26 42.05,12.79 40.18,12.79 C38.75,12.79 37.14,14.01 37.14,15.92 C37.21,17.72 38.53,18.67 39.54,18.91 L39.54,19.51 C39.54,19.75 39.27,20.08 38.94,20.08 L33.35,20.08 L33.35,10.1 C33.35,8.96 32.46,8.08 31.27,8.08 L28.27,8.08 C27.95,6.79 26.8,5.68 25.22,5.68 C23.6,5.68 22.15,7.06 22.15,8.74 C22.15,10.66 23.71,11.89 25.25,11.89 C26.93,11.89 28.06,10.76 28.3,9.49 L31.35,9.49 C31.62,9.49 31.95,9.73 31.95,10.17 L31.95,29.23 C31.5,29.12 31.06,29.03 30.55,28.78 C29.4,29.77 27.46,30.45 24.98,30.49 C22.3,30.49 20.05,29.84 18.65,28.68 C17.94,28.92 17.12,29.03 16.25,28.97 L16.25,20.24 C16.25,18.96 15.25,18.19 14.19,18.19 L11.66,18.19 C11.39,16.94 10.21,15.79 8.63,15.79 C7.05,15.79 5.55,17.09 5.55,18.89 C5.55,20.62 6.98,21.99 8.67,21.99 C10.37,21.99 11.45,20.62 11.66,19.59 L14.2,19.59 C14.59,19.59 14.85,19.88 14.85,20.24 Z" fill="none" stroke="currentColor" stroke-width="1.5"/></svg>