<svg xmlns="http://www.w3.org/2000/svg" viewBox="0 0 93.8 71.9" width="24" height="24"><path d="M5,71.9 L0,5 L88.8,0 L93.8,66.9 Z M27.3,68 L27.3,30.7 L3.9,30.7 L3.9,66.5 Z M7.4,62.7 L7.4,60 L22.5,60 L22.5,62.7 Z M12.7,54.7 L12.7,52 L22.5,52 L22.5,54.7 Z M22.5,46.7 L12.7,46.7 L12.7,44 L22.5,44 Z M7.4,38.7 L7.4,36 L22.5,36 L22.5,38.7 Z M3.9,26.6 L89.9,26.6 L89.9,13.3 L3.9,13.3 Z M10.1,22.7 L10.1,17.3 L15.8,17.3 L15.8,22.7 Z M20.7,22.7 L20.7,17.3 L26.5,17.3 L26.5,22.7 Z M31.3,22.7 L31.3,17.3 L37.2,17.3 L37.2,22.7 Z M41.7,22.7 L41.7,17.3 L47.5,17.3 L47.5,22.7 Z M52.4,22.7 L52.4,17.3 L58.3,17.3 L58.3,22.7 Z M70.2,8.1 L74.2,8.1 L74.2,4 L70.2,4 Z M78.2,8.1 L82.2,8.1 L82.2,4 L78.2,4 Z M86,8.1 L89.9,8.1 L89.9,4 L85.9,4 Z M89.8,30.7 L31.6,30.7 L31.6,68 L88.3,68 Z" fill="none" stroke="currentColor" stroke-width="1.5"/></svg>