<svg xmlns="http://www.w3.org/2000/svg" viewBox="0 0 33.28 24.3" width="24" height="24"><path d="M21.02,12.28 L13.22,21.08 C13.12,21.18 13.02,21.28 12.82,21.28 L12.62,21.28 L12.52,21.08 C12.32,20.88 12.42,20.48 12.52,20.38 L14.82,14.58 L12.72,14.58 C12.52,14.58 12.32,14.68 12.12,14.48 C12.02,14.28 12.02,14.18 12.02,13.98 L15.02,5.88 C15.12,5.58 15.52,5.38 15.92,5.38 L20.52,5.38 C20.72,5.38 21.02,5.48 21.12,5.68 C21.22,5.88 21.22,6.08 21.12,6.28 L18.12,11.28 L20.72,11.28 C21.02,11.28 21.22,11.38 21.32,11.58 C21.22,11.88 21.22,12.08 21.02,12.28 Z M15.72,2.38 C12.12,2.38 12.12,2.08 9.32,1.58 L9.32,22.48 C11.32,22.28 12.22,21.98 15.72,21.98 C19.32,21.98 21.22,22.18 23.92,22.48 L23.92,1.58 C21.22,1.98 19.42,2.38 15.72,2.38 Z M3.98,0.75 L3.98,23.25 C5.28,23.05 6.68,22.85 7.98,22.65 L7.98,1.25 C6.68,1.25 5.28,1.05 3.98,0.75 Z M2.7,0.5 L2.7,23.7 C1.4,23.9 1.2,24.1 0,24.3 L0,0 C1.1,0.1 1.3,0.3 2.7,0.5 Z M30.58,0.5 L30.58,23.7 C31.88,23.9 32.08,24.1 33.28,24.3 L33.28,0 C32.08,0.1 31.88,0.3 30.58,0.5 Z M25.24,1.35 L25.24,22.75 C26.54,22.95 27.94,23.15 29.24,23.35 L29.24,0.85 C27.94,1.05 26.54,1.25 25.24,1.35 Z" fill="none" stroke="currentColor" stroke-width="1.5"/></svg>