<svg xmlns="http://www.w3.org/2000/svg" viewBox="0 0 86.58 98.62" width="24" height="24"><path d="M36.3,82.5 L0,82.5 L0,0 L69.2,0 L69.2,50.6 L65.7,50.6 L65.7,3.2 L3.2,3.2 L3.2,79.1 L36.3,79.1 Z M16.8,35.4 L16.8,31.5 L52.2,31.5 L52.2,35.4 Z M16.8,25.9 L16.8,22 L52.2,22 L52.2,25.9 Z M16.8,16.3 L16.8,12.5 L52.2,12.5 L52.2,16.3 Z" fill="none" stroke="currentColor" stroke-width="1.5"/><path d="M40.75,94.72 L40.75,58.82 L66.95,54.42 L66.95,98.62 Z M48.85,80.02 L48.85,83.62 L52.65,73.32 L57.75,67.32 L53.65,78.32 Z M68.45,84.92 L68.45,61.82 Z" fill="none" stroke="currentColor" stroke-width="1.5"/></svg>