<svg xmlns="http://www.w3.org/2000/svg" viewBox="0 0 91.87 99.86" width="24" height="24"><path d="M16.44,19.89 L16.44,9.99 L8.27,9.99 L8.27,19.89 Z M31.32,19.89 L31.32,9.99 L23.15,9.99 L23.15,19.89 Z M46.05,19.89 L46.05,9.99 L37.83,9.99 L37.83,19.89 Z M46.05,36.34 L46.05,26.43 L37.83,26.43 L37.83,36.34 Z M31.32,36.34 L31.32,26.43 L23.15,26.43 L23.15,36.34 Z M16.44,36.34 L16.44,26.43 L8.27,26.43 L8.27,36.34 Z M16.44,52.65 L16.44,42.76 L8.27,42.76 L8.27,52.65 Z M31.32,52.65 L31.32,42.76 L23.15,42.76 L23.15,52.65 Z M46.05,52.65 L46.05,42.76 L37.83,42.76 L37.83,52.65 Z M46.05,70.76 L46.05,60.81 L37.83,60.81 L37.83,70.76 Z M31.32,70.76 L31.32,60.81 L23.15,60.81 L23.15,70.76 Z M16.44,70.76 L16.44,60.81 L8.27,60.81 L8.27,70.76 Z M75.47,71.68 L77.08,71.67 C80.39,72.59 83.51,73.5 85.3,74.38 C88.13,75.89 88.86,77.54 89.63,79.55 C90.48,81.96 91.15,85.28 91.61,88.27 C91.65,89.74 91.87,91.45 91.04,92.71 C89.84,94.47 87.71,95.57 84.34,96.68 C75.65,99.1 67.67,98.94 62,98.68 C56.58,98.21 50.73,97.8 45.35,95.12 C43.89,94.41 41.81,92.94 42.23,90.11 C42.45,87.5 43.61,82.05 44.2,80.31 C45.39,76.71 46.96,75.3 49.36,74.17 C51.12,73.36 54.3,72.44 57.02,71.68 L58.77,71.7 C59.06,73.3 59.93,74.98 60.9,76.68 C62.63,79.77 64.64,82.58 66.6,85.43 L67.47,85.43 C71.27,80.09 74.86,74.31 75.47,71.68 Z M66.99,66.28 C59.69,66.28 53.59,60.03 53.59,52.7 C53.59,44.9 60.39,39.27 66.99,39.27 C73.02,39.27 80.57,44.03 80.57,52.89 C80.57,60.44 74.15,66.28 66.99,66.28 Z M0,78.55 L0,0 L54.34,0 L54.34,44.63 C53.05,47.21 52.14,49.6 52.14,52.63 C52.14,55.9 53.18,58.73 54.34,60.46 L54.34,69.88 C51.26,70.76 48.33,71.53 46.76,72.41 C44.26,73.65 42.72,75.63 41.9,78.16 C40.96,81.23 39.86,86.55 39.46,90.17 C39.22,92.82 39.91,94.02 41.45,95.12 C44.97,97.83 50.51,98.57 54.14,98.97 L54.18,99.86 L15.53,99.86 L18.11,97.45 L15.57,94.4 C15.97,93.76 16.35,93.08 16.6,92.02 L20.69,91.64 L20.65,86.08 L16.59,85.71 C16.42,84.96 16.16,84.18 15.57,83.3 L18.1,80.18 L14.15,76.23 L11.02,78.55 C10.32,78.12 9.5,77.84 8.59,77.68 L8.22,73.65 L2.67,73.62 L2.32,77.65 C1.42,77.78 0.69,78.15 0,78.55 Z M0,87.35 C1.11,84.77 3.42,83.45 5.64,83.45 C8.13,83.45 11.29,85.83 11.29,89.15 C11.29,92 9.05,94.97 5.29,94.97 C3.47,94.97 0.68,93.23 0,91.12 Z" fill="none" stroke="currentColor" stroke-width="1.5"/></svg>