<svg xmlns="http://www.w3.org/2000/svg" viewBox="0 0 483.9 226.23" width="24" height="24"><path d="M77.52,66.63 C65.24,63.73 60.63,55.03 60.63,46.4 C60.63,38.19 69.11,28 79.96,28 L240.17,28 C230.89,37.74 223.45,47.94 218.92,58.63 C201.73,56.84 187.11,57.19 166.78,66.63 Z M112.82,150.47 L18.32,150.47 C11.35,150.47 0,143.87 0,131.27 C0,118.44 11.91,112 18.28,112 L121.55,112 C115.06,124.58 112.58,137.55 112.82,150.47 Z M146.6,226.23 L41.18,226.23 C33.52,226.23 26.68,215.55 26.68,207.83 C26.68,196.63 37.77,188.96 45.96,188.96 L120.8,188.96 C124.64,203.15 134.73,215.04 146.6,226.23 Z M200.71,226.16 C168.04,226.16 130.53,194.78 130.53,151.49 C130.53,111.52 160.43,78.06 200.35,75.95 C209.54,75.56 220.23,77.79 228.92,79.97 C238.07,53.88 258.6,28.66 290.46,15.05 C330.42,0 373.33,6.45 406.72,37.74 C442.64,76.35 442.41,111.59 435.42,144.04 C454.13,143.23 469.94,150.03 478.83,170.18 C483.9,187.16 481.91,200.96 471.35,213.5 C466.18,218.89 455.22,226.16 444.68,226.16 Z" fill="none" stroke="currentColor" stroke-width="1.5"/></svg>