<svg xmlns="http://www.w3.org/2000/svg" viewBox="0 0 24.0 11.02" width="24" height="24"><path d="M24,8.93 C24,7.8 23.1,6.83 21.97,6.83 L21.67,6.83 C21.75,6.38 21.9,5.92 21.9,5.4 C21.9,2.4 19.42,0 16.5,0 C14.17,0 12.15,1.58 11.4,3.67 C11.02,3.6 10.65,3.45 10.2,3.45 C8.1,3.45 6.52,5.1 6.52,7.2 C6.52,9.3 8.17,10.95 10.2,10.95 L22.05,10.95 C23.18,10.87 24,10.05 24,8.93 Z M0.98,5.25 C0.45,5.25 0,5.7 0,6.22 C0,6.75 0.45,7.2 0.98,7.2 L5.62,7.2 C5.62,6.52 5.78,5.85 6.08,5.25 Z M6,9.07 L2.33,9.07 C1.8,9.07 1.35,9.53 1.35,10.05 C1.35,10.57 1.8,11.02 2.33,11.02 L7.43,11.02 C6.83,10.5 6.3,9.9 6,9.07 Z M10.88,2.62 C11.18,2.02 11.55,1.5 12,1.05 L3.97,1.05 C3.45,1.05 3,1.5 3,2.02 C3,2.55 3.45,3 3.97,3 L8.32,3 C8.92,2.7 9.46,2.55 10.62,2.56 C10.72,2.57 10.82,2.59 10.88,2.62 Z" fill="none" stroke="currentColor" stroke-width="1.5"/></svg>