<svg xmlns="http://www.w3.org/2000/svg" viewBox="0 0 100.28 103.79" width="24" height="24"><path d="M65.68,71.47 L69.34,66.26 C74.59,61.89 78.69,55.95 78.69,47.47 C78.69,33.74 67.15,22.06 49.83,22.06 C32.91,22.06 22.05,34.57 22.05,47.92 C22.05,53.12 24.01,60.66 31.78,66.92 C32.81,68.21 33.96,69.91 35.06,71.43 L22.62,71.37 C7.49,71.37 0,59.06 0,50.42 C0,39.61 7.75,34.56 11.16,32.51 C10.63,23.61 15.9,17.35 20.98,14.23 C29.33,9.8 36.38,11.5 41.12,14.52 C48.99,4.8 62.97,0 76.22,8.08 C83.83,12.78 88.97,22.4 88.12,32.42 C94.38,35.34 100.28,41.44 100.28,49.96 C100.28,60.63 91.21,71.43 77.52,71.43 Z M50.29,46.94 C55.53,46.94 57.7,42.54 57.7,39.98 C57.7,36.51 53.98,32.93 50.6,32.93 C46.95,32.93 43.62,36.22 43.62,39.96 C43.62,44.06 46.84,46.94 50.29,46.94 Z M40.11,63.48 L60.69,63.48 L60.69,49.42 L55.64,49.42 L50.65,56.99 L45.1,49.42 L40.11,49.42 Z M42.12,81.4 C39.68,75.57 36.9,67.75 31.93,63.83 C27.46,59.71 24.52,55.58 24.52,47.7 C24.52,38.24 31.74,24.78 49.71,24.78 C71.37,24.78 76.22,39.68 76.22,48.67 C76.22,55.45 72.85,60.2 68.36,63.76 C64.23,67.82 61.71,73.84 58.72,81.4 Z M59.13,92.43 L42.1,92.43 L42.1,86.98 L59.13,86.98 Z M59.18,98.44 L53.8,103.79 L47.48,103.79 L42.07,98.44 Z" fill="none" stroke="currentColor" stroke-width="1.5"/></svg>