<svg xmlns="http://www.w3.org/2000/svg" viewBox="0 0 80.52 99.55" width="24" height="24"><path d="M0.08,99.55 L0.08,9.75 L43.88,4.45 L34.28,34.45 L49.18,43.65 L49.18,47.65 L41.58,47.65 L27.38,62.65 L36.48,72.15 L9.68,72.15 L9.68,76.45 L37.08,76.45 L37.08,84.55 L9.68,84.55 L9.68,88.85 L48.98,88.85 L48.98,99.55 Z M41.28,79.15 L65.18,79.15 L57.08,71.15 L63.88,71.15 L74.18,81.95 L63.88,92.65 L57.08,92.65 L65.08,84.65 L41.18,84.65 Z M43.68,73.75 L33.08,62.95 L43.48,52.15 L49.98,52.15 L41.98,60.15 L66.78,60.15 L66.78,65.55 L41.98,65.55 L50.28,73.75 Z M39.28,39.55 L57.58,0.75 L80.38,37.75 Z M49.88,35.75 Z M68.08,35.75 Z M63.08,33.15 L54.58,30.65 Z M64.68,28.05 L62.18,17.95 Z M57.48,19.25 L50.38,27.25 Z M59.08,18.25 Z M39.58,16.55 L9.88,16.55 L9.88,20.65 L39.58,20.65 Z" fill="none" stroke="currentColor" stroke-width="1.5"/></svg>