<svg xmlns="http://www.w3.org/2000/svg" viewBox="0 0 129.21 101.43" width="24" height="24"><path d="M76.36,10.47 L72.62,4.01 C71.19,1.55 68.48,0 65.64,0 L8.01,0 C3.62,0 0,3.62 0,8.01 L0,12.15 L77.78,12.15 C77.14,11.76 76.75,11.11 76.36,10.47 Z M81.01,55.04 L58.14,87.73 C57.89,87.99 57.63,88.25 57.24,88.25 C57.11,88.25 56.85,88.25 56.72,88.12 C56.21,87.86 55.95,87.35 56.21,86.83 L62.15,67.32 L48.84,67.32 C48.45,67.32 48.07,67.06 47.81,66.67 C47.68,66.28 47.68,65.9 47.94,65.51 L70.16,33.21 C70.42,32.95 70.68,32.69 71.07,32.69 C71.19,32.69 71.32,32.69 71.58,32.82 C72.1,33.08 72.36,33.59 72.1,34.11 L66.41,53.23 L80.11,53.23 C80.76,53.23 81.27,53.75 81.27,54.4 C81.27,54.66 81.14,54.79 81.01,55.04 Z M124.17,16.28 L0,16.28 L0,93.42 C0,97.81 3.62,101.43 8.01,101.43 L121.2,101.43 C125.59,101.43 129.21,97.81 129.21,93.42 L129.21,23.65 C129.21,20.42 127.14,17.57 124.17,16.28 Z" fill="none" stroke="currentColor" stroke-width="1.5"/></svg>