<svg xmlns="http://www.w3.org/2000/svg" viewBox="0 0 99.6 87.8" width="24" height="24"><path d="M0,87.8 L0,0 L99.6,0 L99.6,87.8 Z M5.8,82.2 L93.7,82.2 L93.7,11.7 L5.8,11.7 Z M17.6,64.5 L17.6,46.9 L35.1,46.9 L35.1,64.5 Z M41,64.5 L41,46.9 L58.6,46.9 L58.6,64.5 Z M64.4,64.5 L64.4,46.9 L82.1,46.9 L82.1,64.5 Z M64.4,41 L64.4,23.5 L82.1,23.5 L82.1,41 Z M41,41 L41,23.5 L58.6,23.5 L58.6,41 Z M17.6,41 L17.6,23.5 L35.1,23.5 L35.1,41 Z M64.5,8.8 L70.4,8.8 L70.4,2.9 L64.5,2.9 Z M76.2,8.8 L82.1,8.8 L82.1,2.9 L76.2,2.9 Z M87.8,8.8 L93.8,8.8 L93.8,2.9 L87.8,2.9 Z" fill="none" stroke="currentColor" stroke-width="1.5"/></svg>