<svg xmlns="http://www.w3.org/2000/svg" viewBox="0 0 73.33 48.8" width="24" height="24"><path d="M4.72,28.57 L11.55,25.09 C12.47,24.54 13.45,24.35 14.49,24.74 L17.93,25.93 L22.34,19.03 C22.78,18.3 23.82,17.73 24.65,17.88 C26.07,18.09 26.46,18.88 26.69,19.39 L31.45,30.41 L35.77,20.36 C36.39,18.92 37.12,18.6 38.26,18.61 L44.47,18.75 L48.04,15.47 C49.18,14.36 50.34,14.12 51.74,14.87 L57.05,17.6 L68.27,9.26 L68.27,4.79 L4.72,4.79 Z M68.27,42.4 L68.27,15.36 L58.4,22.53 C57.5,23.32 56.47,23.46 55.28,22.68 L50.38,20.13 L45.68,24.8 L39.27,24.74 L33.56,37.39 C33.04,38.39 32.22,38.97 31.25,39.04 C30.46,39.01 29.51,38.55 29.11,37.58 L24.25,24.99 L20.93,30.1 C20.33,30.98 19.27,31.51 18.06,30.99 L13.48,29.34 L4.72,33.67 L4.72,42.4 Z M5.01,48.8 C1.83,48.75 0,46.52 0,43.77 L0,4.56 C0,2.26 2.34,0 4.76,0 L68.3,0 C71.43,0 73.33,2.44 73.33,4.73 L73.33,43.99 C73.33,46.46 71.39,48.8 68.38,48.8 Z" fill="none" stroke="currentColor" stroke-width="1.5"/></svg>