<svg xmlns="http://www.w3.org/2000/svg" viewBox="0 0 42.2 35.6" width="24" height="24"><path d="M41.6,5.2 C41.2,4.8 40.8,4.6 40.4,4.6 L40.1,4.6 C40.1,4 39.9,2.9 39.5,2.5 C39.1,2.1 38.7,1.9 38.3,1.9 L37.5,1.9 C37.4,1.4 37.3,0.8 37.1,0.5 C36.8,0.2 36.4,0 36.1,0 C36,0 35.9,0 35.8,0 L1.6,0 C0.7,0 0,0.9 0,1.9 L0,28.4 C0,29.5 0.7,30.3 1.6,30.3 L1.8,30.3 L1.8,30.6 C1.8,31.9 2.7,32.9 3.8,32.9 L3.9,32.9 L3.9,33.3 C3.9,34.6 4.8,35.6 5.9,35.6 L40.2,35.6 C41.3,35.6 42.2,34.5 42.2,33.3 L42.2,7.6 C42.2,7.6 42.2,7.6 42.2,7.6 L42.2,7.6 C42.2,7 42.1,5.7 41.6,5.2 Z M22.5,18.8 C23.1,18.5 23.8,18.3 24.5,18.3 L27.2,18.3 L27.2,18.9 L27.7,18.9 L27.7,20.6 L27.2,20.6 L27.2,21.2 L27.7,21.2 L27.7,22.8 L27.2,22.8 L27.2,23.4 L27.7,23.4 L27.7,25.1 L27.2,25.1 L27.2,25.6 L27.5,25.6 L27.5,26.9 L17.1,26.9 L17.1,19 L17.7,19 L17.7,18.4 L20.4,18.4 C21.1,18.4 21.8,18.6 22.4,18.9 L22.5,18.9 Z M9.8,4.8 C9.8,4.2 10.3,3.7 10.9,3.7 L19.9,3.7 C20.5,3.7 21,4.2 21,4.8 L21,17.2 C20.4,17.2 20.2,17.2 19.9,17.2 L16.5,17.2 L16.5,17.8 L15.9,17.8 L15.9,21.2 L11.4,21.2 L11.4,22.3 L15.9,22.3 L15.9,23.4 L11.4,23.4 L11.4,24.5 L15.9,24.5 L15.9,26.8 L9.7,26.8 L9.7,4.8 Z M3.8,32.2 C3.1,32.2 2.5,31.5 2.5,30.7 L2.5,30.4 L35.8,30.4 C36.7,30.4 37.4,29.5 37.4,28.5 L37.4,2.7 L37.4,2.7 C37.4,2.8 37.4,2.7 37.4,2.7 L38.2,2.7 C38.4,2.7 38.7,2.8 38.9,3.1 C39.2,3.4 39.3,4.4 39.3,4.8 L39.3,30.7 C39.3,31.5 38.7,32.2 38,32.2 L3.8,32.2 Z M41.4,33.4 C41.4,34.2 40.8,34.9 40.1,34.9 L5.9,34.9 C5.2,34.9 4.6,34.2 4.6,33.4 L4.6,33 L38.1,33 C39.2,33 40.1,31.9 40.1,30.7 L40.1,5.4 L40.4,5.4 C40.6,5.4 40.9,5.5 41.1,5.8 C41.4,6.1 41.5,7.1 41.5,7.5 L41.4,33.4 Z M26.8,26.2 L26.8,18.8 L24.4,18.8 C23.8,18.8 23.1,19 22.6,19.3 L22.6,26.6 C23.2,26.3 23.8,26.2 24.4,26.2 L26.8,26.2 Z M24.6,20 C25,20 25.3,20.3 25.3,20.7 C25.3,21.1 25,21.4 24.6,21.4 C24.2,21.4 23.9,21.1 23.9,20.7 C23.9,20.3 24.3,20 24.6,20 Z M23.4,22.4 C23.5,21.8 23.6,21.8 24.1,21.6 C24.1,21.6 24.1,21.6 24.2,21.6 C24.2,21.6 24.3,21.6 24.3,21.6 C24.4,21.8 24.6,22.1 24.7,22.2 C24.7,22.2 24.7,22.2 24.7,22.2 L24.7,22.2 C24.7,22.2 24.7,22.2 24.7,22.2 C24.8,22.1 25.1,21.7 25.1,21.6 C25.1,21.6 25.1,21.6 25.2,21.6 C25.2,21.6 25.2,21.6 25.3,21.6 C25.9,21.7 25.9,21.8 26,22.4 C26,22.5 26,22.6 26,22.6 C26,22.8 25.4,23 24.7,23 L24.7,23 C24,23 23.4,22.9 23.4,22.6 C23.3,22.5 23.3,22.5 23.4,22.4 Z M23.3,23.8 L26.1,23.8 L26.1,24.4 L23.3,24.4 L23.3,23.8 Z M18.1,26.2 L20.5,26.2 C21.1,26.2 21.8,26.3 22.3,26.6 L22.3,19.3 C21.7,19 21.1,18.8 20.5,18.8 L18.1,18.8 L18.1,26.2 Z M20.2,20 C20.6,20 20.9,20.3 20.9,20.7 C20.9,21.1 20.6,21.4 20.2,21.4 C19.8,21.4 19.5,21.1 19.5,20.7 C19.5,20.3 19.8,20 20.2,20 Z M18.9,22.4 C19,21.8 19,21.8 19.6,21.6 C19.6,21.6 19.6,21.6 19.7,21.6 C19.7,21.6 19.8,21.6 19.8,21.6 C19.9,21.8 20.1,22.1 20.2,22.2 C20.2,22.2 20.2,22.2 20.2,22.2 L20.2,22.2 C20.2,22.2 20.2,22.2 20.2,22.2 C20.3,22.1 20.6,21.7 20.6,21.6 C20.6,21.6 20.6,21.6 20.7,21.6 C20.7,21.6 20.7,21.6 20.8,21.6 C21.4,21.7 21.4,21.8 21.5,22.4 C21.5,22.5 21.5,22.6 21.5,22.6 C21.5,22.8 20.9,23 20.2,23 L20.2,23 C19.5,23 18.9,22.9 18.9,22.6 C18.9,22.5 18.9,22.5 18.9,22.4 Z M18.8,23.8 L21.6,23.8 L21.6,24.4 L18.8,24.4 L18.8,23.8 Z M11.5,7.1 L19.4,7.1 L19.4,8.2 L11.5,8.2 Z" fill="none" stroke="currentColor" stroke-width="1.5"/></svg>