<svg xmlns="http://www.w3.org/2000/svg" viewBox="0 0 37.6 30.3" width="24" height="24"><path d="M18.77,24.83 L21.57,24.83 L21.57,25.43 L18.77,25.43 Z M22.6,19.1 L22.6,26.4 C23.2,26.1 23.8,26 24.4,26 L26.8,26 L26.8,18.6 L24.4,18.6 C23.8,18.7 23.1,18.9 22.6,19.1 Z M25.4,20.6 C25.4,21 25.1,21.3 24.7,21.3 C24.3,21.3 24,21 24,20.6 C24,20.2 24.3,19.9 24.7,19.9 C25.1,19.9 25.4,20.2 25.4,20.6 Z M26,22.5 C26,22.7 25.4,22.9 24.7,22.9 L24.7,22.9 C24,22.9 23.4,22.8 23.4,22.5 C23.4,22.5 23.4,22.4 23.4,22.3 C23.5,21.7 23.6,21.7 24.1,21.5 C24.1,21.5 24.1,21.5 24.2,21.5 C24.2,21.5 24.3,21.5 24.3,21.5 C24.4,21.7 24.6,22 24.7,22.1 C24.7,22.1 24.7,22.1 24.7,22.1 L24.7,22.1 C24.7,22.1 24.7,22.1 24.7,22.1 C24.8,22 25.1,21.6 25.1,21.5 C25.1,21.5 25.1,21.5 25.2,21.5 C25.2,21.5 25.2,21.5 25.3,21.5 C25.9,21.6 25.9,21.7 26,22.3 C26,22.4 26,22.5 26,22.5 Z M23.3,23.8 L26.1,23.8 L26.1,24.4 L23.3,24.4 L23.3,23.8 Z M20.5,18.7 L18.1,18.7 L18.1,26.1 L20.5,26.1 C21.1,26.1 21.8,26.2 22.3,26.5 L22.3,19.2 C21.7,18.9 21.1,18.7 20.5,18.7 Z M20.2,19.9 C20.6,19.9 20.9,20.2 20.9,20.6 C20.9,21 20.6,21.3 20.2,21.3 C19.8,21.3 19.5,21 19.5,20.6 C19.5,20.2 19.8,19.9 20.2,19.9 Z M18.9,22.3 C19,21.7 19,21.7 19.6,21.5 C19.6,21.5 19.6,21.5 19.7,21.5 C19.7,21.5 19.8,21.5 19.8,21.5 C19.9,21.7 20.1,22 20.2,22.1 C20.2,22.1 20.2,22.1 20.2,22.1 L20.2,22.1 C20.2,22.1 20.2,22.1 20.2,22.1 C20.3,22 20.6,21.6 20.6,21.5 C20.6,21.5 20.6,21.5 20.7,21.5 C20.7,21.5 20.7,21.5 20.8,21.5 C21.4,21.6 21.4,21.7 21.5,22.3 C21.5,22.4 21.5,22.5 21.5,22.5 C21.5,22.7 20.9,22.9 20.2,22.9 L20.2,22.9 C19.5,22.9 18.9,22.8 18.9,22.5 C18.9,22.5 18.9,22.4 18.9,22.3 Z M21.6,24.3 L18.8,24.3 L18.8,23.8 L21.6,23.8 L21.6,24.3 Z M37,0.5 C36.7,0.2 36.3,0 36,0 C35.9,0 35.8,0 35.7,0 L1.6,0 C0.7,0 0,0.9 0,1.9 L0,28.4 C0,29.5 0.7,30.3 1.6,30.3 L35.9,30.3 C36.8,30.3 37.5,29.4 37.5,28.4 L37.5,2.5 C37.5,3.2 37.6,1.1 37,0.5 Z M16.5,17.7 L16,17.7 L16,21.1 L11.5,21.1 L11.5,22.2 L16,22.2 L16,23.3 L11.5,23.3 L11.5,24.4 L16,24.4 L16,26.7 L9.8,26.7 L9.8,4.7 C9.8,4.1 10.3,3.6 10.9,3.6 L19.9,3.6 C20.5,3.6 21,4.1 21,4.7 L21,17.1 C20.4,17.1 20.2,17.1 19.9,17.1 L16.5,17.1 L16.5,17.7 Z M27.8,20.5 L27.3,20.5 L27.3,21.1 L27.8,21.1 L27.8,22.7 L27.3,22.7 L27.3,23.3 L27.8,23.3 L27.8,25 L27.3,25 L27.3,25.5 L27.6,25.5 L27.6,26.8 L17.2,26.8 L17.2,18.8 L17.8,18.8 L17.8,18.2 L20.5,18.2 C21.2,18.2 21.9,18.4 22.5,18.7 L22.7,18.7 C23.3,18.4 24,18.2 24.7,18.2 L27.4,18.2 L27.4,18.8 L27.9,18.8 L27.9,20.5 Z M11.5,7 L19.4,7 L19.4,8.1 L11.5,8.1 Z" fill="none" stroke="currentColor" stroke-width="1.5"/></svg>