<svg xmlns="http://www.w3.org/2000/svg" viewBox="0 0 13.8 15.4" width="24" height="24"><path d="M4.4,12.2 C4.21,12.19 3.39,12.16 3.12,11.81 C2.99,11.68 2.91,11.46 2.91,11.15 L2.9,9.85 C2.9,9.48 2.76,9.11 2.3,9.1 L2.3,8.4 C2.67,8.4 2.76,8.14 2.79,7.83 C2.8,7.34 2.8,6.81 2.82,6.44 C2.9,5.75 3.39,5.47 3.84,5.36 C4.12,5.31 4.31,5.31 4.5,5.3 L4.5,6.09 C4.15,6.01 3.84,6.24 3.81,6.71 L3.8,7.65 C3.8,8.16 3.59,8.67 3.11,8.8 C3.53,8.92 3.8,9.32 3.8,9.99 L3.8,10.83 C3.83,11.34 3.99,11.64 4.4,11.6 Z M7.4,12.2 L7.41,11.5 C7.59,11.52 7.71,11.5 7.83,11.47 C7.94,11.45 8,11.22 8,11.06 L8.01,9.88 C8.05,9.38 8.2,8.95 8.71,8.8 C8.36,8.7 8.06,8.4 8.01,7.75 L8,6.67 C8.01,6.3 7.79,5.99 7.3,6 L7.3,5.21 C7.6,5.19 7.89,5.19 8.13,5.28 C8.77,5.49 8.79,6.08 8.8,6.4 L8.8,7.6 C8.81,8.2 9.22,8.29 9.5,8.3 L9.7,9.2 C9.36,9.21 9.01,9.33 9.01,9.9 C9,10.39 9.02,10.95 8.96,11.3 C8.89,11.79 8.67,12 8.34,12.09 C7.91,12.21 7.68,12.19 7.4,12.2 Z M12.1,13.2 L13.21,13.2 L13.21,2.4 L11.3,2.4 L11.3,0.5 L2.2,0.5 L2.2,1.71 L9.61,1.71 L12.1,4.09 Z M11.5,14.9 L11.5,4.2 L9.6,4.2 L9.6,2.2 L0.5,2.2 L0.5,14.9 Z M12.1,15.4 L0,15.4 L0,1.71 L1.61,1.71 L1.61,0 L11.32,0 L13.8,2.4 L13.8,13.7 L12.1,13.7 Z" fill="none" stroke="currentColor" stroke-width="1.5"/></svg>