<svg xmlns="http://www.w3.org/2000/svg" viewBox="0 0 12.84 14.53" width="24" height="24"><path d="M10.19,0 L12.84,2.53 L12.84,14.53 L0,14.53 L0,0 Z M12.21,14 L12.21,2.65 L10.19,2.65 L10.19,0.52 L0.53,0.52 L0.53,14 Z M8.15,10.8 L8.16,10.15 C8.33,10.16 8.44,10.14 8.55,10.12 C8.66,10.1 8.71,9.89 8.71,9.74 L8.72,8.64 C8.76,8.17 8.9,7.77 9.37,7.63 C9.04,7.54 8.76,7.26 8.72,6.66 L8.71,5.64 C8.71,5.31 8.52,5.02 8.06,5.02 L8.06,4.28 C8.34,4.27 8.61,4.27 8.83,4.35 C9.42,4.55 9.44,5.1 9.45,5.39 L9.46,6.51 C9.46,7.08 9.84,7.16 10.1,7.17 L10.29,8 C9.98,8.01 9.65,8.12 9.64,8.65 C9.64,9.11 9.66,9.63 9.6,9.96 C9.54,10.42 9.34,10.61 9.03,10.7 C8.63,10.81 8.41,10.79 8.15,10.8 Z M4.56,10.76 C4.39,10.75 3.69,10.72 3.46,10.4 C3.34,10.27 3.28,10.06 3.28,9.77 L3.27,8.55 C3.27,8.2 3.15,7.85 2.76,7.85 L2.76,7.19 C3.07,7.19 3.15,6.95 3.18,6.66 C3.18,6.2 3.18,5.7 3.2,5.35 C3.27,4.71 3.69,4.44 4.08,4.34 C4.31,4.29 4.48,4.29 4.65,4.28 L4.65,5.02 C4.34,4.95 4.08,5.17 4.05,5.61 L4.04,6.48 C4.05,6.97 3.86,7.45 3.45,7.56 C3.81,7.68 4.05,8.05 4.04,8.68 L4.04,9.47 C4.07,9.95 4.2,10.24 4.56,10.19 Z" fill="none" stroke="currentColor" stroke-width="1.5"/></svg>