<svg xmlns="http://www.w3.org/2000/svg" viewBox="0 0 42.5 35.9" width="24" height="24"><path d="M41.9,5.5 C41.5,5.1 41.1,4.9 40.7,4.9 L40.4,4.9 C40.4,4.3 40.2,3.2 39.8,2.8 C39.4,2.4 39,2.2 38.6,2.2 L37.5,2.2 C37.5,1.7 37.4,0.8 37,0.5 C36.7,0.2 36.3,0 36,0 C35.9,0 35.8,0 35.7,0 L1.6,0 C0.7,0 0,0.9 0,1.9 L0,28.4 C0,29.4 0.7,30.3 1.6,30.3 L35.9,30.3 C36.8,30.3 37.5,29.4 37.5,28.4 L37.5,2.8 L37.5,2.9 L38.6,2.9 C38.8,2.9 39.1,3 39.3,3.3 C39.6,3.6 39.7,4.6 39.7,5 L39.7,30.9 C39.7,31.7 39.1,32.4 38.4,32.4 L4.1,32.4 C3.4,32.4 2.8,31.7 2.8,30.9 L2.8,30.3 L2,30.3 L2,30.9 C2,32.2 2.9,33.2 4,33.2 L4.1,33.2 L4.1,33.6 C4.1,34.9 5,35.9 6.1,35.9 L40.4,35.9 C41.5,35.9 42.4,34.8 42.4,33.6 L42.4,7.8 C42.4,7.8 42.4,7.8 42.4,7.8 L42.4,7.8 C42.5,7.3 42.4,6 41.9,5.5 Z M13,25.7 C12.9,25.9 12.8,26.2 12.8,26.4 L9.7,26.4 L9.7,4.9 C9.7,4.3 10.2,3.8 10.8,3.8 L19.6,3.8 C20.2,3.8 20.7,4.3 20.7,4.9 L20.7,13.8 C20.3,13.8 20,14.1 19.8,14.4 L15.9,20.9 L11.4,20.9 L11.4,22 L15.3,22 L14.6,23.1 L11.4,23.1 L11.4,24.2 L13.9,24.2 L13,25.7 Z M27.1,26.3 L14.5,26.3 C14,26.3 13.7,26 14,25.5 L20.3,15.1 C20.6,14.6 21,14.6 21.3,15.1 L27.6,25.5 C27.9,26 27.6,26.3 27.1,26.3 Z M41.7,33.6 C41.7,34.4 41.1,35.1 40.4,35.1 L6.2,35.1 C5.5,35.1 4.9,34.4 4.9,33.6 L4.9,33.2 L38.3,33.2 C39.4,33.2 40.3,32.1 40.3,30.9 L40.3,5.6 L40.6,5.6 C40.8,5.6 41.1,5.7 41.3,6 C41.6,6.3 41.7,7.3 41.7,7.7 L41.7,33.6 Z M11.3,7.1 L19,7.1 L19,8.2 L11.3,8.2 Z" fill="none" stroke="currentColor" stroke-width="1.5"/></svg>