<svg xmlns="http://www.w3.org/2000/svg" viewBox="0 0 323.8 337.5" width="24" height="24"><path d="M161.8,0 C139.9,0 118.7,4.3 98.7,12.7 C79.4,20.9 62.1,32.5 47.2,47.4 C45.4,49.2 43.7,51 42,52.8 C49.3,54.7 55.4,58.8 59.9,64.4 C85.6,37.5 121.8,20.8 161.9,20.8 C201.8,20.8 237.9,37.4 263.6,64.1 C268.1,58.6 274.4,54.5 281.5,52.7 C279.9,50.9 278.2,49.1 276.4,47.4 C261.5,32.5 244.2,20.9 224.9,12.7 C204.9,4.2 183.7,0 161.8,0 Z M127.9,41.8 L160.96,129.75 L77.12,146.62 L157.24,158.14 L141.86,199.72 L177.26,176.04 L216.9,221.13 L206.98,167.37 L148.63,80.75 Z M33.6,61.5 Z M289.6,61.5 Z M314.7,108.1 C309.9,113.4 303.5,117.1 296.2,118.6 C300.6,132.3 303,146.8 303,162 C303,227.4 258.5,282.4 198.1,298.4 C200.4,303 201.7,308.1 201.7,313.6 C201.7,315.5 201.5,317.4 201.2,319.2 C209.3,317.2 217.2,314.5 224.9,311.3 C244.2,303.1 261.5,291.5 276.4,276.6 C291.3,261.7 302.9,244.4 311.1,225.1 C319.6,205.1 323.8,183.9 323.8,162 C323.8,143.4 320.8,125.3 314.7,108.1 Z M9,108.5 C3,125.6 0,143.5 0,161.9 C0,183.8 4.3,205 12.7,225 C20.9,244.3 32.5,261.6 47.4,276.5 C62.3,291.4 79.6,303 98.9,311.2 C110.6,316.2 122.8,319.7 135.3,321.7 C134.6,319.1 134.3,316.3 134.3,313.5 C134.2,309 135.1,304.7 136.7,300.8 C70.8,288.9 20.8,231.3 20.8,161.9 C20.8,146.8 23.2,132.3 27.6,118.6 C20.3,117.3 13.9,113.6 9,108.5 Z M168,289.5 Z" fill="none" stroke="currentColor" stroke-width="1.5"/></svg>