<svg xmlns="http://www.w3.org/2000/svg" viewBox="0 0 92.1 95.01" width="24" height="24"><path d="M2,95 L0,74.8 L10.8,72.8 L12.8,82.5 L79.5,82.5 L79.5,74.8 L90.1,72.8 L92.1,93 Z M21.1,72.6 L19.1,62.2 L32.7,60.2 L34.7,70.6 Z M43.6,63.2 L41.6,52.9 L55.2,50.9 L57.2,61.2 Z M65.7,53.7 L63.7,43.5 L77.2,41.5 L79.2,51.7 Z M43.6,44.5 L41.6,34.1 L55.2,32.1 L57.2,42.5 Z M34.7,51.7 L21.1,53.7 L19.1,43.5 L32.7,41.5 Z M21.1,34.8 L19.1,24.1 L32.7,22.1 L34.7,32.8 Z M2,22.3 L0,2 L89.8,0 L91.8,20.3 L81.5,22.3 L79.5,12.6 L12.8,12.6 L12.8,20.3 Z" fill="none" stroke="currentColor" stroke-width="1.5"/></svg>