<svg xmlns="http://www.w3.org/2000/svg" viewBox="0 0 99.83 99.84" width="24" height="24"><path d="M9.97,53.98 L14,53.98 L43.99,24.01 L60.77,24.01 C61.59,21.41 64.68,20.12 66.94,20.12 C70.72,20.12 73.79,22.65 73.79,27.03 C73.79,31.03 70.98,33.86 66.89,33.86 C64.33,33.86 61.39,32.23 60.78,29.91 L46.51,29.91 L22.89,53.98 L34.03,53.98 L50.01,37.98 L74.79,37.98 C75.59,35.53 78.63,34.12 81.07,34.12 C84.79,34.12 87.82,36.9 87.82,41.05 C87.82,44.64 85.22,47.86 81.13,47.86 C78.11,47.86 75.45,46.26 74.78,43.96 L52.47,43.96 L42.74,53.98 L54.6,53.98 C55.41,52.04 57.99,49.97 60.83,49.97 C64.43,49.97 67.98,52.63 67.98,57.2 C67.98,60.98 64.74,63.99 61.26,63.99 C57.73,64.01 55.79,62.28 54.54,59.95 L32.46,59.95 L42.46,70.05 L68.74,70.05 C69.65,67.54 72.55,66.13 75.03,66.13 C77.94,66.13 81.82,68.22 81.82,72.98 C81.82,78.19 77.63,79.9 74.92,79.9 C72.48,79.9 69.68,78.56 68.76,75.94 L39.94,75.94 L23.96,59.95 L9.97,59.95 Z M1.6,23.22 C0.61,23.22 0,22.58 0,21.71 L0,1.46 C0,0.37 0.76,0 1.63,0 L98.42,0 C99.4,0 99.83,0.53 99.83,1.33 L99.83,22.01 C99.83,22.56 99.44,23.22 98.25,23.22 L88.61,23.22 C87.9,23.22 87,22.49 87,21.32 L87,13.45 L13.43,13.45 L13.43,21.5 C13.43,23.02 12.51,23.22 11.29,23.22 Z M0.87,99.84 C0.42,99.84 0,99.27 0,98.79 L0,78.63 C0,77.85 0.28,77.02 1.47,77.02 L11.69,77.02 C13.09,77.03 13.43,77.72 13.43,78.67 L13.43,87.08 L87,87.08 L87,78.93 C87,78.06 87.9,77.02 89,77.02 L98.37,77.02 C99.26,77.02 99.83,77.64 99.83,78.52 L99.83,98.91 C99.83,99.41 99.59,99.84 99,99.84 Z" fill="none" stroke="currentColor" stroke-width="1.5"/></svg>