<svg xmlns="http://www.w3.org/2000/svg" viewBox="0 0 89.0 88.9" width="24" height="24"><path d="M0,79.6 L0,9.3 L51.8,0 L51.8,11.1 L84.3,11.1 L89,72.7 L51.8,77.7 L51.8,88.9 Z M51.8,74.1 L84.4,74.1 L85.4,15.7 L51.8,14.7 L51.8,18.6 L63,18.6 L63,25.9 L51.8,25.9 L51.8,29.7 L63,29.7 L63,37 L51.8,37 L51.8,40.8 L63,40.8 L63,48.1 L51.8,48.1 L51.8,51.9 L63,51.9 L63,59.3 L51.8,59.3 L51.8,63 L63,63 L63,70.4 L51.8,70.4 Z M66.8,70.4 L66.8,63 L81.5,63 L81.5,70.4 Z M66.8,59.2 L66.8,51.9 L81.5,51.9 L81.5,59.2 Z M66.8,48.1 L66.8,40.8 L81.5,40.8 L81.5,48.1 Z M66.8,37 L66.8,29.7 L81.5,29.7 L81.5,37 Z M66.8,25.9 L66.8,18.6 L81.5,18.6 L81.5,25.9 Z M38.7,25.4 L30.3,25.8 L24.3,39.8 L19,26.5 L10.8,26.9 L19.5,44.5 L10.1,61.9 L18.1,62.4 L24,48.8 L30.1,63 L39.1,63.6 L28.9,44.4 Z" fill="none" stroke="currentColor" stroke-width="1.5"/></svg>