<svg xmlns="http://www.w3.org/2000/svg" viewBox="0 0 37.6 30.3" width="24" height="24"><path d="M37,0.5 C36.7,0.2 36.3,0 36,0 L35.7,0 L1.6,0 C0.7,0 0,0.9 0,1.9 L0,28.4 C0,29.5 0.7,30.3 1.6,30.3 L35.9,30.3 C36.8,30.3 37.5,29.4 37.5,28.4 L37.5,2.6 C37.5,4.08 37.6,1.1 37,0.5 Z M10.8,5.07 C10.8,4.34 11.18,3.69 12.12,3.69 L20.46,3.69 C21.41,3.69 21.82,4.4 21.81,5.01 L21.81,16.91 L18,16.91 C17.05,16.91 16.31,17.71 16.31,18.42 L16.31,19.05 L12.92,19.05 L12.92,19.95 L16.31,19.95 L16.31,21.76 L12.92,21.76 L12.92,22.73 L16.31,22.73 L16.31,25.16 L10.8,25.16 Z M19.68,7.37 L19.68,6.46 L12.92,6.46 L12.92,7.37 Z M17.26,18.58 C17.26,17.97 17.57,17.65 18.29,17.65 L29.24,17.65 L29.24,26.54 L17.26,26.54 Z M24.79,15.92 C25.13,15.63 25.26,15.52 25.72,15.52 L28.4,15.52 C28.99,15.52 29.24,15.97 29.24,16.32 L29.24,17.05 L23.63,17.05 Z" fill="none" stroke="currentColor" stroke-width="1.5"/></svg>