<svg xmlns="http://www.w3.org/2000/svg" viewBox="0 0 99.6 87.2" width="24" height="24"><path d="M0,87.2 L0,67.4 L47.1,67.4 L47.1,87.2 Z M49.8,67.4 L99.6,67.4 L99.6,87.2 L49.8,87.2 Z M74.7,64.9 L74.7,45 L99.6,45 L99.6,64.9 Z M71.8,45 L71.8,64.9 L27.7,64.9 L27.7,45 Z M25,64.9 L0,64.9 L0,44.9 L25,44.9 Z M47,42.5 L0,42.5 L0,22.6 L47,22.6 Z M49.8,22.6 L99.6,22.6 L99.6,42.5 L50,42.5 Z M74.7,20 L74.7,0 L99.6,0 L99.6,20 Z M71.8,0.1 L71.8,20 L27.7,20 L27.7,0.1 Z M24.8,20 L0,20 L0,0.1 L24.8,0.1 Z" fill="none" stroke="currentColor" stroke-width="1.5"/></svg>