<svg xmlns="http://www.w3.org/2000/svg" viewBox="0 0 394.8 266.1" width="24" height="24"><path d="M279.2,114.7 C279.2,124.1 276.9,131.7 272.3,137.3 C267.7,142.9 261.5,145.7 253.8,145.7 C246.5,145.7 240.9,142.6 237.1,136.3 L236.9,136.3 L236.9,170 L228,170 L228,88.5 L236.9,88.5 L236.9,98.3 L237.1,98.3 C241.5,90.9 247.9,87.1 256.4,87.1 C263.4,87.1 268.9,89.6 273.1,94.5 C277.2,99.5 279.2,106.2 279.2,114.7 Z M270.1,114.6 C270.1,108.6 268.7,103.8 265.8,100.2 C263,96.6 259.1,94.8 254.1,94.8 C249,94.8 244.8,96.6 241.6,100.1 C238.4,103.7 236.8,108.2 236.8,113.7 L236.8,121.5 C236.8,126.2 238.3,130.1 241.4,133.3 C244.5,136.5 248.3,138 252.8,138 C258.2,138 262.4,135.9 265.5,131.8 C268.6,127.7 270.1,121.9 270.1,114.6 Z M214.1,114.7 C214.1,124.1 211.8,131.7 207.2,137.3 C202.6,142.9 196.4,145.7 188.7,145.7 C181.4,145.7 175.8,142.6 172,136.3 L171.8,136.3 L171.8,170 L162.9,170 L162.9,88.5 L171.8,88.5 L171.8,98.3 L172,98.3 C176.4,90.9 182.8,87.1 191.3,87.1 C198.3,87.1 203.8,89.6 208,94.5 C212,99.5 214.1,106.2 214.1,114.7 Z M204.9,114.6 C204.9,108.6 203.5,103.8 200.6,100.2 C197.8,96.6 193.9,94.8 188.9,94.8 C183.8,94.8 179.6,96.6 176.4,100.1 C173.2,103.7 171.6,108.2 171.6,113.7 L171.6,121.5 C171.6,126.2 173.1,130.1 176.2,133.3 C179.3,136.5 183.1,138 187.6,138 C193,138 197.2,135.9 200.3,131.8 C203.4,127.7 204.9,121.9 204.9,114.6 Z M145.9,144.3 L137,144.3 L137,135.6 L136.8,135.6 C132.9,142.3 127.2,145.7 119.6,145.7 C114.2,145.7 109.9,144.2 106.7,141.3 C103.5,138.4 101.9,134.4 101.9,129.5 C101.9,119.1 108,113 120.3,111.3 L137,109 C137,99.6 133.2,94.8 125.5,94.8 C118.8,94.8 112.7,97.1 107.3,101.6 L107.3,92.4 C108.9,91.2 111.7,90 115.7,88.8 C119.7,87.7 123.2,87.1 126.3,87.1 C139.4,87.1 146,94.1 146,108 L146,144.3 Z M137,116.1 L123.5,118 C118.9,118.7 115.7,119.8 113.8,121.3 C111.9,122.8 111,125.3 111,128.8 C111,131.6 112,133.8 114,135.5 C116,137.2 118.6,138 121.7,138 C126.1,138 129.8,136.4 132.7,133.3 C135.6,130.2 137,126.3 137,121.6 L137,116.1 Z M0,0 L0,266.1 L394.8,266.1 L394.8,0 L0,0 L0,0 Z M375.1,244.7 L14.6,244.7 L14.6,55.8 L375.1,55.8 L375.1,244.7 Z" fill="none" stroke="currentColor" stroke-width="1.5"/></svg>