<svg xmlns="http://www.w3.org/2000/svg" viewBox="0 0 90.4 80.9" width="24" height="24"><path d="M79.5,50.3 C75.6,46.1 67.8,47.9 63.1,54.4 C57.3,47.4 50.3,46.1 46.5,50.3 C42.5,54.6 43.5,59.7 46,63.9 L50.1,63.8 L54,63.7 L57,55.9 C57.1,55.4 58,54.5 58.5,54.6 C59,54.6 60.1,55.6 60.2,56.1 L60.2,69.2 L62.3,64.8 C62.4,64.4 62.8,64.2 63.3,64.2 L75.8,64.2 C76.4,64.2 76.9,64.8 76.9,65.3 C76.9,65.9 76.4,66.6 75.9,66.6 L64.5,66.6 L60.4,74.6 C60.3,75 59.4,75.2 59,75.2 L58.9,75.2 C58.4,75.1 58,74.8 58,74.3 L57.9,62.2 L56.7,65.5 C56.6,65.9 56.2,66.5 55.8,66.6 L52.1,66.6 L47.1,66.6 C52,73.8 60.4,79.8 62.9,80.8 L62.9,80.9 L62.9,80.9 L62.9,80.9 L62.9,80.8 C67.7,78.9 90.4,62 79.5,50.3 Z M40.6,52.9 C40.6,52.8 40.7,52.7 40.7,52.6 L40.6,52.7 C40.5,52.8 40.5,52.8 40.6,52.9 Z M40,57 C39.1,58.7 37.2,59.9 35,59.9 C31.7,59.9 29.3,57.5 29.3,54.2 C29.3,53.8 29.3,53.3 29.5,52.9 L18.8,44.6 C17.9,45.3 16.8,45.5 15.7,45.5 C12.6,45.5 10,43.1 10,39.8 C10,36.7 12.4,34.1 15.7,34.1 C16.6,34.1 17.5,34.3 18.3,34.8 L29.6,22.5 C29.4,21.8 29.2,21 29.2,20.1 C29.2,17 31.6,14.4 34.9,14.4 C38.2,14.4 40.6,16.8 40.6,20.1 C40.6,21 40.4,22.1 39.9,22.7 L50.8,35 C51.7,34.6 52.8,34.3 53.6,34.3 C56.7,34.3 59.3,36.7 59.3,40 C59.4,42.1 58.4,43.8 57,44.8 C58.8,45.5 60.6,46.5 62.2,47.9 L70,41.6 L35,0 L0,41.6 L35,70.1 L42,64.4 C40.7,61.8 40.1,59.4 40,57 Z M21,37.4 C21.4,38.1 21.7,39.2 21.7,40 C21.7,40.7 21.5,41.5 21.3,42.2 L31.4,50.3 C31.8,49.9 32.7,49.4 33.4,49 L33.4,26 C33,25.8 32.7,25.8 32.5,25.6 L21,37.4 Z M37.7,25.6 C37.3,25.8 37,25.8 36.4,26 L36.4,48.5 C37.1,48.7 37.9,49.2 38.6,49.8 L48.7,41.7 C48.5,41.3 48.5,40.4 48.5,39.7 C48.5,39 48.7,37.9 48.9,37.3 L37.7,25.6 Z" fill="none" stroke="currentColor" stroke-width="1.5"/></svg>