<svg xmlns="http://www.w3.org/2000/svg" viewBox="0 0 99.9 67.4" width="24" height="24"><path d="M2,46.6 L0,8.9 L54.4,7.3 L56.4,20.4 L52.8,20.4 L52.8,11 L3.7,11 L3.7,41 L30.1,41 L30.1,46.6 Z M34.1,67.4 L32.1,24.3 L58.1,22.3 L60.1,36.3 Z M60.2,64 L89.8,64 Z M56.4,58.1 L56.4,26.1 L35.7,26.1 L35.7,58.1 Z M48.8,61.7 L43.2,61.7 L43.2,63.7 L48.8,63.7 Z M68.2,28.2 L68.2,23.5 L89.3,23.5 L82.4,16.5 L88.2,16.5 L97,25.9 L88.2,35.2 L82.4,35.2 L89.3,28.2 Z M70.6,18.9 L61.7,9.4 L70.6,0 L76.4,0 L69.2,7.1 L90.4,7.1 L90.4,11.9 L69.4,11.9 L76.3,18.9 Z" fill="none" stroke="currentColor" stroke-width="1.5"/></svg>