<svg xmlns="http://www.w3.org/2000/svg" viewBox="0 0 98.3 99.6" width="24" height="24"><path d="M22.1,61.7 L17.1,5 L93.3,0 L98.3,56.7 Z M93.3,58.2 L94.8,11.5 L20.7,11.5 L20.7,56.7 Z M36.1,50.3 L36.1,39 L45.3,39 L45.3,43.5 L52.3,43.5 L52.3,39 L63.4,39 L63.4,43.5 L70.3,43.5 L70.3,39 L79.4,39 L79.4,50.3 Z M36.1,36.8 L36.1,27.7 L49.9,27.7 L49.9,22.6 L51.1,20.8 L64.5,20.8 L65.5,22.6 L65.5,27.7 L79.4,27.7 L79.4,36.8 L70.3,36.8 L70.3,32.4 L63.4,32.4 L63.4,36.8 L52.3,36.8 L52.3,32.4 L45.4,32.4 L45.4,36.8 Z M52.1,27.7 L63.4,27.7 L63.4,23.2 L52.1,23.2 Z M77.7,6.8 L81.1,6.8 L81.1,3.5 L77.7,3.5 Z M84.5,6.8 L87.9,6.8 L87.9,3.5 L84.5,3.5 Z M91.3,6.8 L94.8,6.8 L94.8,3.5 L91.3,3.5 Z M67.8,34.5 L67.8,41.3 L65.5,41.3 L65.5,34.5 Z M49.8,34.5 L49.8,41.3 L47.5,41.3 L47.5,34.5 Z M40,94.6 L5,99.6 L0,32.5 L13.8,27.5 L13.8,36.7 L4.5,36.7 L4.5,84.6 L35.4,84.6 L35.4,65.2 L40,65.2 Z M24,90.2 L16.9,89.2 L15.9,92.7 L23,93.7 Z" fill="none" stroke="currentColor" stroke-width="1.5"/></svg>