<svg xmlns="http://www.w3.org/2000/svg" viewBox="0 0 79.8 99.6" width="24" height="24"><path d="M46.9,75 L79.8,93.7 L69.8,91.2 L64.2,99 L56.9,78.7 L51.1,99.6 L45.5,93.5 L36.3,95 Z M57.4,74.8 Z M57.4,71.8 Z M57.4,69.5 Z M36.6,87.5 L0,87.5 L0,0 L73.4,0 L73.4,49 L69.6,3.7 L3.6,3.7 L3.6,83.7 L38.4,83.7 Z M17.8,37.6 L17.8,33.3 L55.3,33.3 L55.3,37.6 Z M17.8,27.6 L17.8,23.5 L55.3,23.5 L55.3,27.6 Z M17.8,17.7 L17.8,13.6 L55.3,13.6 L55.3,17.7 Z" fill="none" stroke="currentColor" stroke-width="1.5"/></svg>