<svg xmlns="http://www.w3.org/2000/svg" viewBox="0 0 99.61 97.93" width="24" height="24"><path d="M58.91,80.73 Z M58.91,73.03 Z M45.91,76.33 Z M32.91,76.73 Z M21.41,76.73 Z M7.41,76.83 Z M5.91,61.33 Z M5.91,49.93 Z M5.91,38.33 Z M5.91,26.83 Z M7.91,15.43 Z M21.41,11.53 Z M32.91,11.53 Z M44.41,11.53 Z M55.41,11.53 Z M66.91,11.53 Z M78.91,11.53 Z M91.41,15.43 Z M93.91,27.03 Z M93.91,38.43 Z M93.91,49.83 Z M93.91,61.33 Z M91.41,76.83 Z M78.41,76.43 Z M66.31,82.63 L72.21,94.03 L64.51,97.93 L60.71,90.33 L64.41,82.63 Z M50.91,97.93 L43.31,94.33 L49.11,82.83 L56.81,86.53 Z M70.81,61.13 L15.61,61.13 L15.61,15.43 L84.11,15.43 L84.11,61.13 Z M68.91,51.93 L68.91,48.03 L30.61,48.03 L30.61,51.93 Z M68.91,40.43 L68.91,36.73 L30.61,36.73 L30.61,40.43 Z M76.61,29.03 L76.61,23.13 L23.21,23.13 L23.21,29.03 Z" fill="none" stroke="currentColor" stroke-width="1.5"/></svg>