<svg xmlns="http://www.w3.org/2000/svg" viewBox="0 0 27.7 45.0" width="24" height="24"><path d="M17.53,11.47 C15.83,11.97 14.23,13.27 14.23,15.47 C14.23,15.67 14.33,15.87 14.33,16.17 L14.33,16.27 C16.03,15.77 17.53,14.47 17.53,12.17 C17.53,11.97 17.53,11.77 17.53,11.47 L17.53,11.47 Z M24.9,0 L2.7,0 C1.2,0 0,1.3 0,2.8 L0,42.2 C0,43.7 1.6,45 3.1,45 L24.6,45 C26.1,45 27.7,44 27.7,42.2 L27.7,2.8 C27.6,1.3 26.4,0 24.9,0 Z M11.2,3.1 L16.3,3.1 L16.3,4.1 L11.2,4.1 L11.2,3.1 Z M13.8,43 C12.8,43 12,42.2 12,41.2 C12,40.2 12.8,39.4 13.8,39.4 C14.8,39.4 15.6,40.2 15.6,41.2 C15.6,42.2 14.8,43 13.8,43 Z M24.5,37.8 L3,37.8 L3,5.1 L24.5,5.1 L24.5,37.8 Z M21.4,25.3 C19.9,24.5 19.1,23.3 19.1,21.6 C19.1,20.2 19.7,19 20.8,18.2 L20.9,18.2 C20.2,17.3 19.2,16.4 17.7,16.4 C16.6,16.4 15.8,17.5 14.3,17.5 C13.1,17.5 12.7,16.5 11.4,16.5 C8.8,16.5 6.2,18.8 6.2,21.9 C6.2,23.5 6.7,26 7.9,28.2 C8.8,29.8 9.8,30.8 11,30.8 C11.9,30.8 12.9,29.9 14.1,29.9 C15.2,29.9 16.1,30.7 17.1,30.7 C19.4,30.7 21.5,27.7 21.5,25.7 C21.5,25.6 21.5,25.5 21.5,25.4 L21.5,25.3 Z" fill="none" stroke="currentColor" stroke-width="1.5"/></svg>