<svg xmlns="http://www.w3.org/2000/svg" viewBox="0 0 99.71 60.1" width="24" height="24"><path d="M4.36,60.1 L0.06,5.1 L94.86,0 L99.66,55.1 Z M8.16,52 L91.56,52 L91.56,8.3 L8.16,8.3 Z M14.66,47.7 L14.66,37.4 L26.86,37.4 L26.86,47.7 Z M31.26,37.3 L68.56,37.3 L68.56,47.8 L31.26,47.8 Z M72.76,47.8 L72.76,37.4 L85.06,37.4 L85.06,47.8 Z M85.06,33.1 L76.86,33.1 L76.86,24.9 L85.06,24.9 Z M72.66,24.9 L72.66,33.1 L64.36,33.1 L64.36,24.9 Z M60.16,33.1 L52.06,33.1 L52.06,24.9 L60.16,24.9 Z M47.76,24.9 L47.76,33.1 L39.36,33.1 L39.36,24.9 Z M35.26,33.1 L27.06,33.1 L27.06,24.9 L35.26,24.9 Z M22.86,33.1 L14.66,33.1 L14.66,24.9 L22.86,24.9 Z M14.66,20.6 L14.66,12.5 L22.86,12.5 L22.86,20.6 Z M27.06,12.5 L35.26,12.5 L35.26,20.6 L27.06,20.6 Z M39.36,20.6 L39.36,12.5 L47.76,12.5 L47.76,20.6 Z M52.06,12.5 L60.16,12.5 L60.16,20.6 L52.06,20.6 Z M64.36,20.6 L64.36,12.5 L72.66,12.5 L72.66,20.6 Z M76.86,12.5 L85.06,12.5 L85.06,20.6 L76.86,20.6 Z" fill="none" stroke="currentColor" stroke-width="1.5"/></svg>