<svg xmlns="http://www.w3.org/2000/svg" viewBox="0 0 99.69 86.33" width="24" height="24"><path d="M52.39,72.23 Z M41.89,72.23 Z M30.89,72.23 Z M19.89,72.23 Z M7.39,72.23 Z M5.89,57.73 Z M5.89,46.83 Z M5.89,36.03 Z M5.89,25.33 Z M7.39,14.23 Z M19.89,10.73 Z M30.89,10.73 Z M41.89,10.73 Z M52.39,10.73 Z M63.39,10.73 Z M73.89,10.73 Z M86.89,14.23 Z M88.39,25.23 Z M83.69,33.03 Z M89.29,36.43 Z M89.29,47.13 Z M89.29,58.53 L89.29,62.53 Z M67.89,57.93 L63.39,53.63 L14.59,57.93 L14.59,14.63 L79.59,14.63 L79.59,33.03 L75.69,33.03 L72.69,57.93 Z M65.19,48.83 L65.19,45.13 L28.99,45.13 L28.99,48.83 Z M65.19,38.13 L65.19,34.43 L28.89,34.43 L28.89,38.13 Z M72.29,27.13 L72.29,21.73 L21.79,21.73 L21.79,27.13 Z M80.79,86.33 L61.69,69.43 L61.69,56.93 L76.29,71.43 L76.29,36.43 L85.69,36.43 L85.69,71.43 L99.69,56.93 L99.69,69.43 Z" fill="none" stroke="currentColor" stroke-width="1.5"/></svg>