<svg xmlns="http://www.w3.org/2000/svg" viewBox="0 0 74.94 75.13" width="24" height="24"><path d="M54.81,33.11 L54.81,17.78 L58.28,17.78 L58.28,33.11 Z M47.32,33.11 L47.32,25.43 L50.79,25.43 L50.79,33.11 Z M39.95,33.11 L39.95,21.44 L43.4,21.44 L43.4,33.11 Z M48.84,44.48 C59.87,44.48 67.34,35.82 67.34,26.07 C67.34,16.01 60.47,7.57 48.79,7.57 C40.14,7.57 30.87,14.4 30.87,25.84 C30.87,37 39.87,44.48 48.84,44.48 Z M11.28,72.02 C8.61,74.52 5.19,75.13 2.47,72.4 C0,69.63 0.94,66.21 2.67,64.47 L15.07,51.29 C17.24,48.98 21,46.04 24.81,44.26 C26.65,43.22 27.88,42.02 26.71,39.33 C24.89,35.42 23.46,31.77 23.46,24.86 C23.46,11.55 35.1,0 48.98,0 C65.78,0 74.94,14.6 74.94,26.28 C74.94,39.41 63.73,52.04 49.76,52.04 C46.24,52.04 41.87,50.77 38.84,49.61 C35.84,48.53 32.44,48.42 29.98,52.09 C28.5,53.94 26.81,57.48 22.28,61.89 Z" fill="none" stroke="currentColor" stroke-width="1.5"/></svg>