<svg xmlns="http://www.w3.org/2000/svg" viewBox="0 0 59.39 72.94" width="24" height="24"><path d="M0,6.65 L0,5.09 L6.72,5.09 L6.72,6.65 Z M27.14,11.86 L50.97,11.86 L50.97,10.07 L27.14,10.07 Z M16.92,13.51 L22.09,13.51 L22.09,8.43 L16.92,8.43 Z M0,16.9 L0,15.29 L6.72,15.29 L6.72,16.9 Z M27.14,22.06 L50.97,22.06 L50.97,20.26 L27.14,20.26 Z M16.92,23.69 L22.09,23.69 L22.09,18.62 L16.92,18.62 Z M0,27.09 L0,25.51 L6.72,25.51 L6.72,27.09 Z M27.14,32.26 L50.97,32.26 L50.97,30.46 L27.14,30.46 Z M16.92,33.87 L22.09,33.87 L22.09,28.8 L16.92,28.8 Z M0,37.26 L0,35.67 L6.72,35.67 L6.72,37.26 Z M27.14,42.45 L50.97,42.45 L50.97,40.64 L27.14,40.64 Z M16.92,44.1 L22.09,44.1 L22.09,39 L16.92,39 Z M0,47.5 L0,45.9 L6.72,45.9 L6.72,47.5 Z M27.14,52.63 L50.97,52.63 L50.97,50.87 L27.14,50.87 Z M16.92,54.29 L22.09,54.29 L22.09,49.2 L16.92,49.2 Z M0,57.69 L0,56.09 L6.72,56.09 L6.72,57.69 Z M27.14,62.85 L50.97,62.85 L50.97,61.1 L27.14,61.1 Z M16.92,64.51 L22.09,64.51 L22.09,59.41 L16.92,59.41 Z M0,67.88 L0,66.26 L6.72,66.26 L6.72,67.88 Z M5.1,72.94 L5.1,69.62 L8.51,69.62 L8.51,64.51 L5.1,64.51 L5.1,59.41 L8.51,59.41 L8.51,54.29 L5.1,54.29 L5.1,49.2 L8.51,49.2 L8.51,44.1 L5.1,44.1 L5.1,39 L8.51,39 L8.51,33.87 L5.1,33.87 L5.1,28.8 L8.51,28.8 L8.51,23.69 L5.1,23.69 L5.1,18.62 L8.51,18.62 L8.51,13.51 L5.1,13.51 L5.1,8.43 L8.51,8.43 L8.51,3.25 L5.1,3.25 L5.1,0 L59.39,0 L59.39,72.94 Z" fill="none" stroke="currentColor" stroke-width="1.5"/></svg>