<svg xmlns="http://www.w3.org/2000/svg" viewBox="0 0 24.98 24.5" width="24" height="24"><path d="M15.56,19.58 Z M12.89,18.39 C13.74,18.39 14.43,17.7 14.43,16.85 C14.43,16.61 14.37,16.38 14.27,16.18 L17.86,16.18 L21,21.63 L3.97,21.63 L7.12,16.18 L11.51,16.18 C11.41,16.38 11.35,16.61 11.35,16.85 C11.35,17.7 12.04,18.39 12.89,18.39 Z M24.14,21.86 L16.51,8.65 L16.51,3.3 L16.65,3.3 C17.56,3.3 18.3,2.56 18.3,1.65 C18.3,0.74 17.56,0 16.65,0 L8.33,0 C7.41,0 6.68,0.74 6.68,1.65 C6.68,2.56 7.41,3.3 8.33,3.3 L8.46,3.3 L8.46,8.65 L0.84,21.86 C0,23.31 0.68,24.5 2.36,24.5 L22.62,24.5 C24.29,24.5 24.98,23.31 24.14,21.86 Z" fill="none" stroke="currentColor" stroke-width="1.5"/></svg>