<svg xmlns="http://www.w3.org/2000/svg" viewBox="0 0 98.78 100.15" width="24" height="24"><path d="M69.45,31.27 C69.45,30 68.89,29.07 67.3,29.07 C66.17,29.07 65.18,29.75 65.18,31.26 C65.18,32.66 66.19,33.35 67.33,33.35 C68.62,33.36 69.45,32.7 69.45,31.27 Z M73.1,28.62 C73.85,29.78 73.8,31.93 73.56,33.02 C72.78,35.5 70.5,37.55 67.06,37.55 C63.73,37.55 61.01,34.37 61.01,31.35 C61.01,27.52 64.48,24.78 66.95,24.78 C68.4,24.78 69.4,25.09 70.01,25.44 L82.02,13.42 L85.14,16.59 Z M80.35,44.29 C84.62,41.39 88.4,32.9 84.63,23.41 L88.32,21.81 C92.47,32.26 89.97,40.6 83.61,47.42 Z M51.11,47.46 C50.14,46.43 49.14,45.41 48.54,44.35 L48.5,41.68 L51.7,41.65 C52.13,42.89 53.24,43.72 54.22,44.31 Z M44.3,29.11 C46.71,15.33 56.4,8.69 67.47,8.18 C71.28,8.17 73.75,9.13 76.75,10.23 L75.2,13.92 C71.82,12.49 67.61,12.06 64.78,12.41 C55.72,14.21 49.1,21.45 48.46,29.07 Z M36.04,29.06 C36.96,14.15 49.46,0 67.17,0 C87.43,0 98.78,16.27 98.78,31.41 C98.78,47.32 85.89,62.63 67.19,62.63 C61.82,62.63 55.64,61 51.81,58.68 L48.53,53.25 L48.52,50.56 C52.68,55.56 60.5,58.45 67.63,58.45 C81.44,58.45 94.58,47.25 94.58,31.32 C94.58,16.82 83.5,4.03 66.98,4.03 C53.46,4.03 42.21,13.38 40.16,29.09 Z M11.25,91.99 L55.88,91.99 L51.11,83.54 L26.05,83.54 L34.45,68.88 L24.41,68.88 Z M4.36,100.15 C2.48,100.15 0.28,98.19 0.15,97.11 C0,95.99 0.23,94.91 0.99,93.65 L23.38,54.3 L23.38,37.48 L19.17,37.51 L19.17,33.29 L48.5,33.29 L48.5,37.52 L44.26,37.47 L44.26,54.22 L66.33,93.09 C67.3,94.92 67.36,96.61 67.02,97.69 C66.5,99.01 65.11,100.15 63.56,100.15 Z" fill="none" stroke="currentColor" stroke-width="1.5"/></svg>