<svg xmlns="http://www.w3.org/2000/svg" viewBox="0 0 88.4 99.6" width="24" height="24"><path d="M8,89.2 L0,8 L44.4,0 L52.4,42 L42,42 L42,11.1 L10.4,11.1 L10.4,74.2 L31.3,74.2 L31.3,89.2 Z M18.4,84 L28.5,84 L28.5,81.4 L18.4,81.4 Z M23.6,6 L28.7,6 L28.7,3.8 L23.6,3.8 Z M36.4,50.2 L77.4,50.2 L77.4,55.5 L41.6,55.5 L41.6,94.3 L80.4,94.3 L80.4,77 L85.4,77 L85.4,99.6 L36.4,99.6 Z M53.6,66.9 L64.3,76.9 L82.4,55.2 L88.4,60.4 L64.9,88.2 L48.3,72.6 Z" fill="none" stroke="currentColor" stroke-width="1.5"/></svg>