<svg xmlns="http://www.w3.org/2000/svg" viewBox="0 0 99.68 78.82" width="24" height="24"><path d="M13.52,59.66 L19.22,56.56 L19.92,62.16 L6.22,78.16 Z M21.42,45.76 L25.82,41.36 L33.52,29.66 L43.72,43.76 L53.22,28.66 L44.02,51.96 L33.72,37.26 L28.12,45.76 Z M32.12,11.86 L25.72,2.86 L96.82,0.06 L99.62,49.86 L64.42,53.06 L93.22,46.66 L93.22,6.36 L32.12,6.36 Z M66.02,12.76 L73.72,28.26 L81.22,20.76 L85.62,29.16 L88.52,29.16 L88.52,31.76 L84.02,31.76 L80.62,24.86 L73.12,32.56 L65.72,17.76 L61.52,24.26 Z M39.82,60.76 Z" fill="none" stroke="currentColor" stroke-width="1.5"/></svg>