<svg xmlns="http://www.w3.org/2000/svg" viewBox="0 0 99.86 94.54" width="24" height="24"><path d="M81.29,39.82 L81.29,36.13 C81.33,33.62 79.48,31.86 77.25,31.86 L61.63,31.86 C59.14,31.86 57.41,33.65 57.41,35.97 L57.41,39.82 L60.04,39.82 L60.04,37.13 C60.04,35.26 60.88,34.48 62.62,34.48 L76.27,34.48 C77.53,34.48 78.62,35.1 78.62,36.59 L78.62,39.82 Z M41.48,59.83 L65.51,59.83 L65.51,57.25 L73.33,57.25 L73.33,59.83 L97.36,59.83 L97.36,45.41 C97.36,42.96 95.82,41.09 92.85,41.09 L45.88,41.09 C43.34,41.09 41.48,42.7 41.48,45.49 Z M41.48,62.47 L41.48,76.69 C41.48,79 42.79,81.06 45.79,81.06 L93.2,81.06 C95.5,81.06 97.36,79.27 97.36,76.98 L97.36,62.47 L73.33,62.47 L73.33,65.06 L65.51,65.06 L65.51,62.47 Z M45.2,83.6 C42.19,83.6 38.68,80.93 38.68,76.99 L38.68,44.93 C38.68,41.82 41.61,38.59 45.33,38.59 L54.77,38.59 L54.77,35.92 C54.77,32.05 57.8,29.19 61.4,29.19 L77.04,29.19 C81.73,29.19 83.95,32.94 83.95,35.74 L83.95,38.59 L93.07,38.59 C96.33,38.59 99.86,40.84 99.86,45.23 L99.86,77.36 C99.86,80.53 97.07,83.6 93.11,83.6 Z M14.62,13.33 L35.53,13.33 L35.53,10.88 L14.62,10.88 Z M14.47,16.75 L35.67,16.75 L35.67,14.33 L14.47,14.33 Z M4.8,19.33 L4.8,4.87 L45.13,4.87 L45.13,19.33 Z M4.8,31.46 L4.8,21.9 L45.13,21.9 L45.13,26.58 L32.12,26.58 L32.12,31.46 Z M4.8,42.37 L4.8,33.93 L32.12,33.93 L32.12,42.37 Z M17.06,85.15 L17.06,81.23 L9.58,81.23 L9.58,85.15 Z M45.13,87.39 L45.13,89.95 L4.8,89.95 L4.8,45.03 L32.12,45.03 L32.12,87.39 Z M50.05,94.54 L0,94.54 L0,0 L50.05,0 L50.05,26.58 L47.72,26.58 L47.72,2.25 L2.25,2.25 L2.25,92.41 L47.72,92.41 L47.72,87.39 L50.05,87.39 Z" fill="none" stroke="currentColor" stroke-width="1.5"/></svg>