<svg xmlns="http://www.w3.org/2000/svg" viewBox="0 0 101.03 100.9" width="24" height="24"><path d="M42.01,14.44 C44.7,16.2 48.02,17.58 50.99,18.5 C53.4,11.91 55.9,8.33 58.42,5.46 C53.37,6.32 48.07,8.48 42.01,14.44 Z M74.91,19.37 C73.33,14.3 70.2,9.47 65,4.98 C59.03,10.05 56.67,14.78 55.03,19.44 C62.01,20.39 70.4,20.2 74.91,19.37 Z M88.01,14.48 C84.16,10.38 77.63,6.23 71.57,5.47 C75.08,9.38 77.36,13.8 78.99,18.51 C82.52,17.42 85.63,15.93 88.01,14.48 Z M95.97,33.99 C95.92,28.77 94.44,23.34 89.94,17.45 C87.32,19.02 84.04,20.36 80,21.43 C81.07,26.32 81.61,30.29 82.02,34.02 Z M90,54.48 C93.71,49.78 95.97,44.34 95.97,37.94 L81.95,37.94 C81.49,42.81 80.85,47.12 79.96,50.56 C83.75,51.47 87.06,52.81 90,54.48 Z M70.56,71.5 C71.26,70.1 71.94,68.55 72.52,66.56 C77.64,65.16 82.78,62.65 87.97,57.48 C85.32,56.01 82.78,54.48 78.99,53.5 C77.7,57.46 75.68,61.11 73.05,64.48 C73.68,61.25 74.48,58.39 73.62,55.24 C74.09,54.44 74.44,53.55 74.53,52.46 L73.49,52.46 C73.23,50.9 72.88,49.65 72.5,48.51 L75.99,49.49 C76.49,45.91 77.1,42.47 76.97,37.98 L66.45,37.98 C65.2,36.7 64.01,35.42 62.07,34.01 L76.96,34.04 C77.04,30.78 76.77,27.11 75.97,22.94 C69.07,24.19 61.02,24.36 53.98,22.93 C53.69,24.69 53.37,26.77 53.02,28.94 C51.49,28.45 49.96,27.96 48.48,27.5 C48.95,25.28 49.48,23.47 49.97,21.51 C47.04,20.69 42.82,19.32 40.05,17.48 C38.08,19.74 35.77,23.5 34.48,28.43 C32.59,29.06 30.93,29.74 29.52,30.42 C32.02,14.32 45.89,0 64.55,0 C85.94,0 101.03,17.6 101.03,36.27 C101.03,53.99 87.58,68.65 70.56,71.5 Z M26.97,63.95 L26.97,61.05 L30.97,61.03 L36.5,49.52 L39.97,60 L44.96,45.13 L49.47,57.13 L53.01,49.99 L58.98,50.02 L58.98,52.9 L55.05,52.96 L48.99,65.44 L45,55.06 L39.98,70.04 L35.97,58.04 L33.06,63.96 Z M42.73,78.52 C55.9,78.52 63.48,68.08 63.48,58.25 C63.48,46.23 54.37,37.43 42.8,37.43 C31.66,37.43 22.46,46.68 22.46,57.88 C22.46,68.39 30.43,78.52 42.73,78.52 Z M27.56,81.37 L10.61,98.36 C9.04,99.84 5.84,100.9 2.67,98.33 C0.87,96.73 0,93.25 2.56,90.43 L19.64,73.39 C17.31,69.73 14.97,65.44 14.97,57 C14.97,46.19 23.96,29.97 43.82,29.97 C53.53,29.97 70.98,37.92 70.98,58.69 C70.98,72.61 59.14,86.07 42.66,86.07 C37.2,86.07 31.25,84.06 27.56,81.37 Z" fill="none" stroke="currentColor" stroke-width="1.5"/></svg>