<svg xmlns="http://www.w3.org/2000/svg" viewBox="0 0 36.0 49.9" width="24" height="24"><path d="M30.72,28.48 C29.7,29.04 28.56,29.31 27.31,29.31 C25.86,29.31 24.69,28.86 23.79,27.96 C22.89,27.06 22.44,25.86 22.44,24.38 C22.44,22.86 22.93,21.62 23.92,20.64 C24.9,19.67 26.14,19.18 27.66,19.18 C28.75,19.18 29.66,19.34 30.41,19.66 L30.41,21.34 C29.65,20.84 28.76,20.58 27.72,20.58 C26.68,20.58 25.82,20.93 25.15,21.62 C24.48,22.3 24.15,23.2 24.15,24.29 C24.15,25.42 24.44,26.3 25.01,26.94 C25.59,27.59 26.37,27.91 27.35,27.91 C28.02,27.91 28.61,27.78 29.1,27.52 L29.1,25.19 L27.04,25.19 L27.04,23.82 L30.72,23.82 C30.72,23.82 30.72,28.48 30.72,28.48 Z M15,28.76 L15,27.08 C15.15,27.22 15.33,27.34 15.54,27.45 C15.74,27.56 15.96,27.66 16.2,27.73 C16.43,27.8 16.66,27.86 16.89,27.9 C17.12,27.95 17.34,27.97 17.54,27.97 C18.22,27.97 18.73,27.85 19.06,27.62 C19.4,27.4 19.56,27.07 19.56,26.63 C19.56,26.4 19.51,26.2 19.4,26.03 C19.29,25.86 19.13,25.7 18.93,25.56 C18.73,25.42 18.49,25.28 18.22,25.15 C17.95,25.02 17.66,24.89 17.35,24.75 C17.02,24.57 16.71,24.39 16.42,24.21 C16.13,24.02 15.88,23.82 15.67,23.6 C15.46,23.38 15.29,23.13 15.17,22.85 C15.05,22.58 14.99,22.25 14.99,21.88 C14.99,21.42 15.09,21.02 15.3,20.68 C15.51,20.34 15.78,20.06 16.12,19.83 C16.46,19.61 16.85,19.45 17.28,19.34 C17.71,19.24 18.16,19.18 18.61,19.18 C19.63,19.18 20.38,19.3 20.85,19.53 L20.85,21.14 C20.29,20.74 19.58,20.53 18.7,20.53 C18.46,20.53 18.22,20.56 17.98,20.6 C17.74,20.65 17.53,20.72 17.34,20.83 C17.15,20.93 17,21.07 16.88,21.23 C16.76,21.4 16.7,21.6 16.7,21.83 C16.7,22.05 16.74,22.24 16.84,22.4 C16.93,22.56 17.06,22.7 17.24,22.83 C17.41,22.97 17.63,23.1 17.88,23.22 C18.13,23.34 18.43,23.48 18.76,23.63 C19.1,23.8 19.42,23.99 19.72,24.19 C20.03,24.38 20.3,24.6 20.52,24.84 C20.76,25.07 20.94,25.34 21.07,25.63 C21.21,25.92 21.27,26.25 21.27,26.62 C21.27,27.11 21.17,27.53 20.97,27.87 C20.77,28.22 20.5,28.49 20.16,28.71 C19.82,28.92 19.43,29.08 18.99,29.17 C18.55,29.27 18.08,29.32 17.59,29.32 C17.42,29.32 17.22,29.3 16.98,29.28 C16.74,29.25 16.5,29.22 16.25,29.17 C16,29.12 15.76,29.06 15.54,29 C15.32,28.93 15.14,28.85 15,28.76 Z M13.02,29.15 L11.24,29.15 L6.56,21.94 C6.44,21.76 6.35,21.57 6.27,21.38 L6.23,21.38 C6.26,21.59 6.28,22.04 6.28,22.72 L6.28,29.15 L4.71,29.15 L4.71,19.35 L6.6,19.35 L11.13,26.38 C11.32,26.67 11.44,26.87 11.5,26.98 L11.52,26.98 C11.48,26.72 11.46,26.28 11.46,25.66 L11.46,19.35 L13.02,19.35 L13.02,29.15 Z M30.69,6 L30.69,6 C19.87,4.8 18,0 18,0 C18,0 15.54,6.2 0,6.2 L0,31.8 C0,34.9 1.67,37.8 4.03,40.3 L4.03,40.3 C9.34,46 18,49.9 18,49.9 C18,49.9 36,41.9 36,31.8 L36,6.2 C34.03,6.2 32.26,6.1 30.69,6 Z" fill="none" stroke="currentColor" stroke-width="1.5"/></svg>