<svg xmlns="http://www.w3.org/2000/svg" viewBox="0 0 37.35 37.35" width="24" height="24"><path d="M24.3,0 C16.96,0 11.18,5.7 11.18,13.05 L11.18,26.17 C11.18,26.17 20.92,26.17 24.3,26.17 C31.64,26.17 37.36,20.39 37.36,13.05 C37.36,5.7 31.64,0 24.3,0 Z M19.42,19.8 L16.8,19.8 L16.8,11.17 L19.42,11.17 L19.42,19.8 Z M25.06,19.8 L22.42,19.8 L22.42,13.8 L25.06,13.8 L25.06,19.8 Z M30.68,19.8 L28.06,19.8 L28.06,8.17 L30.68,8.17 L30.68,19.8 Z M9.68,27.68 L9.68,15.04 C4.17,15.76 0,20.46 0,26.18 C0,32.38 4.96,37.34 11.18,37.34 C16.88,37.34 21.58,33.18 22.31,27.68 L9.68,27.68 Z M3.68,23.18 L6.68,23.18 L6.68,26.18 L3.68,26.18 L3.68,23.18 Z M9.68,35.18 L6.68,35.18 L6.68,32.18 L9.68,32.18 L9.68,35.18 Z M18.68,32.18 L15.68,32.18 L15.68,29.18 L18.68,29.18 L18.68,32.18 Z" fill="none" stroke="currentColor" stroke-width="1.5"/></svg>