<svg xmlns="http://www.w3.org/2000/svg" viewBox="0 0 100.18 100.82" width="24" height="24"><path d="M8.17,99.2 C8.17,99.2 8.17,99.2 8.17,99.2 Z M8.67,99.5 L60.17,80.5 Z M76.57,85.4 L64.57,78.1 L11.67,78.1 L11.67,15 L91.67,0 Z M55.07,68.1 L55.07,65.1 L23.97,65.1 L23.97,68.3 Z M64.57,59 L64.57,55.9 L24.37,55.9 L24.37,59 Z M64.57,49.6 L64.57,46.4 L24.37,46.4 L24.37,49.6 Z M64.57,40.4 L64.57,37.1 L24.37,37.1 L24.37,40.2 Z M64.57,31 L64.57,27.8 L24.17,27.8 L24.17,31 Z M64.57,21.7 L64.57,15.5 L24.37,15.5 L24.37,21.7 Z M80.47,19.8 Z" fill="none" stroke="currentColor" stroke-width="1.5"/></svg>