<svg xmlns="http://www.w3.org/2000/svg" viewBox="0 0 92.9 99.6" width="24" height="24"><path d="M6.7,99.6 L6.7,94.5 L11.8,94.5 L11.8,87.8 L6.7,87.8 L6.7,78 L11.8,78 L11.8,71.3 L6.7,71.3 L6.7,61.5 L11.8,61.5 L11.8,54.7 L6.7,54.7 L6.7,44.9 L11.8,44.9 L11.8,38.2 L6.7,38.2 L6.7,28.3 L11.8,28.3 L11.8,21.6 L6.7,21.6 L6.7,11.7 L11.8,11.7 L11.8,5.1 L6.7,5.1 L6.7,0 L83,0 L83,99.6 Z M0,92.8 L0,89.7 L9.9,89.7 L9.9,92.8 Z M0,76.4 L0,73.1 L9.9,73.1 L9.9,76.4 Z M0,59.6 L0,56.3 L9.9,56.3 L9.9,59.6 Z M0,43.1 L0,39.8 L9.9,39.8 L9.9,43.1 Z M0,26.5 L0,23.2 L9.9,23.2 L9.9,26.5 Z M0,9.8 L0,6.7 L9.9,6.7 L9.9,9.8 Z M26.5,39.7 L69.5,39.7 L69.5,13.2 L26.5,13.2 Z M29.9,36.4 L29.9,16.6 L66.2,16.6 L66.2,36.4 Z M86.3,23.2 L86.3,3.3 L92.9,3.3 L92.9,23.2 Z M86.3,46.3 L86.3,29.8 L92.9,29.8 L92.9,46.3 Z M86.3,69.8 L86.3,53.3 L92.9,53.3 L92.9,69.8 Z M86.3,93 L86.3,76.5 L92.9,76.5 L92.9,93 Z" fill="none" stroke="currentColor" stroke-width="1.5"/></svg>