<svg xmlns="http://www.w3.org/2000/svg" viewBox="0 0 60.4 79.2" width="24" height="24"><path d="M17.1,77.3 L0,77.3 L0,2.8 L34.7,0 L37.7,26.5 L24.5,58.5 L5.7,58.5 L5.7,62.2 L24.5,62.2 L24.5,66 L5.7,66 L5.7,69.9 L17,69.9 Z M5.7,15.1 L32,15.1 L32,11.2 L5.7,11.2 Z M28.4,45.8 L31.5,43.6 L31.5,38.3 L49.6,43.6 L51.1,43.6 L52.8,62.1 L43.4,64.1 L43.4,69.8 L45.4,69.8 L60.4,71.7 L60.4,77.3 L46.9,77.3 L35.6,79.2 L20.8,77.3 L20.8,71.7 L34,71.7 L37.8,69.8 L37.8,64.1 L30.4,64.1 Z M39.4,60.8 L41.8,60.8 L41.8,53.5 Z M46.8,43.6 L46.8,38.8 L34.5,43.6 Z M41.5,64.1 L39.5,64.1 L39.5,69.8 L41.5,69.8 Z M45.3,71.6 L35.9,71.6 L35.9,77.3 L45.3,77.3 Z" fill="none" stroke="currentColor" stroke-width="1.5"/></svg>