<svg xmlns="http://www.w3.org/2000/svg" viewBox="0 0 34.64 37.42" width="24" height="24"><path d="M1.76,37.42 C0.86,37.42 0,36.61 0,35.66 L0,26.87 C0,25.74 0.95,25.05 1.78,25.05 L5.03,25.05 L5.03,19.29 C5.03,18.14 5.85,17.4 6.76,17.4 L15.82,17.4 L15.82,12.37 L12.64,12.37 C11.64,12.37 10.8,11.57 10.8,10.56 L10.8,1.77 C10.8,0.87 11.59,0 12.58,0 L21.99,0 C23.13,0 23.77,0.84 23.77,1.79 L23.77,10.57 C23.77,11.52 22.99,12.37 21.97,12.37 L18.75,12.37 L18.75,17.4 L27.89,17.4 C28.81,17.4 29.56,18.24 29.56,19.24 L29.56,25.05 L32.86,25.05 C33.76,25.05 34.64,25.73 34.64,26.65 L34.64,35.61 C34.64,36.52 33.94,37.42 32.77,37.42 L23.48,37.42 C22.53,37.42 21.67,36.66 21.67,35.53 L21.67,26.91 C21.67,25.85 22.46,25.05 23.55,25.05 L26.62,25.05 L26.62,20.32 L7.95,20.32 L7.95,25.05 L11.13,25.05 C12.25,25.05 12.97,25.95 12.97,26.87 L12.97,35.65 C12.97,36.43 12.3,37.42 11.14,37.42 Z" fill="none" stroke="currentColor" stroke-width="1.5"/></svg>