<svg xmlns="http://www.w3.org/2000/svg" viewBox="0 0 100.47 70.44" width="24" height="24"><path d="M73.93,45.25 C73.19,46.2 71.88,46.9 70.71,45.78 C69.76,44.79 69.84,44.04 70.59,43.17 L74.88,37.19 L74.88,27.91 C74.88,26.44 76.4,25.81 77.18,25.81 C78.23,25.81 79.57,26.85 79.57,27.67 L79.57,38.49 Z M62.27,36.88 C61.7,36.88 60.73,36.25 60.73,35.43 C60.73,34.59 61.48,33.8 62.27,33.8 C63.14,33.8 63.81,34.61 63.81,35.35 C63.81,36.14 62.96,36.88 62.27,36.88 Z M64.99,27.48 C64.19,27.48 63.53,26.77 63.53,26.06 C63.53,25.12 64.17,24.28 65.07,24.28 C66.35,24.28 66.61,25.51 66.61,25.92 C66.61,26.48 66.13,27.48 64.99,27.48 Z M76.38,22.31 C75.77,22.31 74.85,21.92 74.85,20.76 C74.85,19.72 75.77,19.11 76.5,19.11 C77.2,19.11 78.02,20.02 78.02,20.75 C78.02,21.48 77.29,22.31 76.38,22.31 Z M86.7,27.45 C86.05,27.45 85.18,26.73 85.18,25.87 C85.18,25.01 86.15,24.29 86.74,24.29 C87.3,24.29 88.24,25.02 88.24,25.87 C88.24,26.52 87.54,27.45 86.7,27.45 Z M90.6,36.54 C89.92,36.54 89.1,36.02 89.1,34.92 C89.1,34.15 90.03,33.37 90.69,33.37 C91.63,33.37 92.29,34.4 92.29,34.95 C92.29,35.63 91.44,36.54 90.6,36.54 Z M86.68,45.92 C86.11,45.92 85.19,45.31 85.19,44.37 C85.19,43.5 85.99,42.85 86.72,42.85 C87.45,42.85 88.25,43.59 88.25,44.45 C88.25,45.21 87.4,45.92 86.68,45.92 Z M76.33,51.08 C75.76,51.08 74.88,50.27 74.88,49.55 C74.88,48.74 75.74,47.94 76.52,47.94 C77.19,47.94 78.05,48.67 78.05,49.61 C78.05,50.43 77.04,51.08 76.33,51.08 Z M76.35,55.49 C88.01,55.49 95.77,45.8 95.77,36.32 C95.77,24.81 86.58,16.75 76.4,16.75 C64.93,16.75 57.08,26.87 57.08,35.49 C57.08,48.61 67.74,55.49 76.35,55.49 Z M76.4,60.19 C65.15,60.19 52.5,51.76 52.53,35.3 C52.53,23.58 62.47,12.15 76.4,12.15 C89.94,12.15 100.47,22.52 100.47,36.17 C100.47,50.61 89.02,60.19 76.4,60.19 Z M27.74,14.09 C25.16,14.09 21.49,11.22 21.49,6.39 C21.49,2.52 24.33,0 27.88,0 C31.77,0 33.5,3.15 33.5,7.02 C33.5,10.03 31.52,14.09 27.74,14.09 Z M23.24,59.7 L5.95,69.27 C3.74,70.44 2.27,69.47 1.25,68.15 C0,66.34 0.41,64.07 3,62.27 L13.77,56.29 L20.91,24.65 L16.46,26.63 L13.12,40.82 C12.57,43 10.67,44.08 9.19,43.68 C7.74,43.08 6.96,41.77 7.4,39.85 L10.94,23.25 L21.78,16.37 C23.17,15.47 25.32,14.61 27.45,14.61 C28.91,14.65 30.63,15.07 32.14,15.69 L40.28,18.59 L43.04,8.96 C43.82,6.59 45.64,6.05 47.59,6.54 C49.64,7.4 49.89,9.79 49.33,11.48 L44.3,26.15 L33.84,23.39 L31.08,36.61 L44.2,40.92 L51.66,63.92 C52.2,66.02 51.01,68.36 48.8,69.05 C46.76,69.71 44.74,68.43 44.1,66.58 L39.21,49.49 L26.82,45.85 Z" fill="none" stroke="currentColor" stroke-width="1.5"/></svg>