<svg xmlns="http://www.w3.org/2000/svg" viewBox="0 0 82.9 99.6" width="24" height="24"><path d="M0,99.2 L0,6 L45,0 L51,51.1 L30.5,51.1 L23.5,70.7 L9.9,70.7 L9.9,75.1 L23.5,75.1 L23.5,83.5 L9.9,83.5 L9.9,87.8 L23.5,87.8 L23.5,97.3 Z M9.9,17.2 L41,17.2 L41,12.8 L9.9,12.8 Z M30.5,99.6 L27.5,58.6 L79.9,55.6 L82.9,96.6 Z M30.4,96.7 L80.2,96.7 L80.2,63.8 L30.4,63.8 Z M65.9,61.3 L68.8,61.3 L68.8,58.3 L65.9,58.3 Z M71.6,61.3 L74.5,61.3 L74.5,58.5 L71.6,58.5 Z M77.4,61.3 L80.2,61.3 L80.2,58.5 L77.4,58.5 Z" fill="none" stroke="currentColor" stroke-width="1.5"/></svg>