<svg xmlns="http://www.w3.org/2000/svg" viewBox="0 0 72.24 72.59" width="24" height="24"><path d="M11.98,54.34 C6.84,47.08 2.38,37.99 0.84,23.41 C0.41,19.01 0,13.48 0.97,11.29 C1.75,9.48 3.12,7.68 5.65,8.67 C7.02,9.17 8.72,10.19 12.45,11.06 C18.1,12.25 21.87,11.25 25.32,8.7 C29.1,5.88 29.98,3.97 32.48,1.89 C33.38,1.07 35.34,0 36.6,0.15 C37.95,0.26 40.51,2.27 41.57,3.39 C43.24,5.04 44.39,6.95 48.44,9.58 C53.07,12.31 57.18,11.74 61.89,10.52 C64.1,9.89 64.94,9.49 66.18,8.97 C68.74,7.99 70.58,8.67 71.45,11.44 C72.24,13.84 72.19,15.49 71.95,18.43 C71.56,29.34 69.28,40.33 62.99,50.59 C56.23,60.82 48.31,68.01 36.19,72.59 C25.75,68.64 17.39,61.85 11.98,54.34 Z" fill="none" stroke="currentColor" stroke-width="1.5"/></svg>