<svg xmlns="http://www.w3.org/2000/svg" viewBox="0 0 77.6 99.6" width="24" height="24"><path d="M0,99.6 L0,4.8 L43.5,0 L48.5,58.4 L29.1,58.4 L29.1,60.7 L26.6,60.7 L26.6,75.3 L7.2,75.3 L7.2,80.2 L26.6,80.2 L26.6,85 L7.2,85 L7.2,89.9 L26.6,89.9 L26.6,99.6 Z M7.2,19.5 L41.3,19.5 L41.3,14.6 L7.2,14.6 Z M34,63.2 L45.5,63.2 L54.5,65.6 L58.8,64 L75.2,63.2 L75.2,65.7 L77.6,65.7 L77.6,72.8 L75.2,72.8 L75.2,75.6 L77.6,75.6 L77.6,82.5 L75.2,82.5 L75.2,85.1 L77.6,85.1 L77.6,92.2 L75.2,92.2 L75.2,94.3 L76.3,94.3 L76.3,99.6 L31.6,99.6 L31.6,65.6 L34,65.6 Z M35.7,64.9 L35.7,97 L46.5,97 L54.1,66.9 L50.8,65.6 Z M42,72.8 Z M43,77.2 L48,77.5 L50.5,80.7 L39.9,79 Z M38.8,86.8 L50.9,86.8 L50.9,89.2 L38.8,89.2 Z M50.9,91.7 L50.9,94.1 L38.9,94.1 L38.9,91.7 Z M58.3,91.7 L70.5,91.7 L70.5,94.1 L58.3,94.1 Z M58.3,89.2 L58.3,86.8 L70.5,86.8 L70.5,89.2 Z M59.8,82.3 L58.8,78.8 L62.1,77.2 L68.4,77.8 L69.8,80.8 Z M64.1,75.9 Z M55.2,98.9 L73.5,97 L73.5,64.7 L63.8,64.7 Z" fill="none" stroke="currentColor" stroke-width="1.5"/></svg>