<svg xmlns="http://www.w3.org/2000/svg" viewBox="0 0 447.53 447.37" width="24" height="24"><path d="M302.28,252.12 C306.4,250.92 311.29,249.62 319.24,249.62 C338.47,249.62 365.58,268.54 365.58,298.64 C365.58,324.18 342.77,347.3 316.83,347.3 C290.77,347.3 268.44,326.27 268.44,300.6 C268.44,281.3 276.04,270.66 283.26,263.9 L238.93,194 C229.93,198.38 216.79,198.42 210.02,195.32 L165.79,265.93 C172.47,273.8 178.48,285.91 178.48,299.75 C178.48,317.39 162.99,345.64 129.2,345.64 C102.93,345.64 82.1,322.76 82.1,298.75 C82.1,264.97 110.82,249.17 129.84,249.17 C135.98,249.17 142.71,250.61 148.21,253.2 L191.42,185.05 C182.89,177.16 176.36,165.42 175.29,150.27 C175.29,121.67 198.93,101.19 223.69,101.19 C251.52,101.19 271.51,125.38 271.51,148.84 C271.51,166.03 262.87,177.54 257.77,182.74 Z M446.92,97.57 C446.92,101.22 444.49,104.62 439.24,104.62 L393.53,104.44 C391.19,104.44 387.28,102.68 387.28,97.39 L387.28,59.62 L58.82,59.67 L58.74,96.4 C58.79,102.27 54.6,103.66 49.08,103.66 L6.43,103.54 C2.15,103.54 0,101.61 0,95.22 L0.03,8.59 C0.03,2.49 2.79,0.01 8.43,0.01 L440.2,0 C444.37,0 446.91,2.16 446.91,5.82 Z M447.53,441.69 C447.53,445.48 444.35,447.32 440.96,447.32 L5.47,447.37 C3.14,447.37 0.09,444.99 0.09,441.27 L0.01,351.03 C0.01,347.42 2.93,344.16 6.58,344.16 L51.14,344.06 C57.7,344.06 60.08,347.76 60.08,352.86 L59.82,389.04 L390.31,389.17 L390.22,353.28 C390.22,348.42 393.23,346.23 398.35,346.23 L440.31,346.23 C444.03,346.23 447.46,348.52 447.46,352.12 Z" fill="none" stroke="currentColor" stroke-width="1.5"/></svg>