<svg xmlns="http://www.w3.org/2000/svg" viewBox="0 0 69.02 72.7" width="24" height="24"><path d="M42.9,22.36 L63.49,22.36 L63.49,18.56 L42.9,18.56 Z M42.9,39.14 L53.3,32.16 L42.9,25.95 L42.9,29.7 L22.37,29.7 L22.37,25.99 L12.03,32.17 L22.37,39.15 L22.37,35.41 L42.9,35.41 Z M41.02,46.63 L63.49,46.63 L63.49,42.8 L41.02,42.8 Z M41.02,55.96 L63.49,55.96 L63.49,52.16 L41.02,52.16 Z M41.02,65.25 L63.49,65.25 L63.49,61.45 L41.02,61.45 Z M26.14,13.04 L26.14,9.12 L5.59,9.12 L5.59,13.04 Z M3.73,46.63 L26.14,46.63 L26.14,42.8 L3.73,42.8 Z M3.73,55.96 L26.14,55.96 L26.14,52.16 L3.73,52.16 Z M0,63.32 L0,4.58 C0,2.09 2.28,0 5.02,0 L26.67,0 C30.32,0 31.69,2.37 31.69,5.05 L31.69,27.94 L37.38,27.94 L37.38,13.86 C37.38,11.23 39.88,9.33 42.27,9.33 L64.37,9.33 C66.55,9.33 69.02,10.82 69.02,14.27 L69.02,72.7 L37.38,72.7 L37.38,37.22 L31.69,37.22 L31.69,63.32 Z" fill="none" stroke="currentColor" stroke-width="1.5"/></svg>