<svg xmlns="http://www.w3.org/2000/svg" viewBox="0 0 37.5 37.5" width="24" height="24"><path d="M20.09,16.35 L23.69,22.11 L21.67,15.34 L12.42,21.2 L17.63,16.42 Z M36.9,37.5 C37.27,37.5 37.5,37.27 37.5,36.9 L37.5,29.55 C37.5,29.17 37.27,28.95 36.9,28.95 L33.3,28.95 C32.92,28.95 32.7,29.17 32.7,29.55 L32.7,32.55 L5.02,32.55 L5.02,29.4 C5.02,29.02 4.8,28.8 4.27,28.8 L0.6,28.8 C0.22,28.8 0,29.02 0,29.55 L0,36.9 C0,37.27 0.22,37.5 0.6,37.5 L36.9,37.5 Z M0.6,0 C0.22,0 0,0.22 0,0.6 L0,8.1 C0,8.47 0.22,8.7 0.6,8.7 L4.35,8.7 C4.72,8.7 4.95,8.47 4.95,8.1 L4.95,5.02 L32.48,5.02 L32.48,8.17 C32.48,8.55 32.7,8.77 33.23,8.77 L36.83,8.77 C37.2,8.77 37.42,8.55 37.42,8.17 L37.42,0.67 C37.5,0.22 37.27,0 36.9,0 L0.6,0 Z" fill="none" stroke="currentColor" stroke-width="1.5"/></svg>