<svg xmlns="http://www.w3.org/2000/svg" viewBox="0 0 99.6 63.41" width="24" height="24"><path d="M0,63.41 L0,2.61 L27.8,0.01 L30.8,63.41 Z M5.4,58.01 L25.4,58.01 L25.4,54.21 L5.4,54.21 Z M25.4,50.61 L25.4,47.01 L5.4,47.01 L5.4,50.81 L25.4,50.81 Z M25.4,12.71 L25.4,9.01 L5.4,9.01 L5.4,12.71 Z M34.4,63.41 L34.4,2.61 L62.3,0.01 L65.2,63.41 Z M39.8,58.01 L59.8,58.01 L59.8,54.21 L39.8,54.21 Z M59.8,50.81 L59.8,47.01 L39.8,47.01 L39.8,50.81 Z M39.8,12.71 L59.8,12.71 L59.8,9.01 L39.8,9.01 Z M68.9,63.41 L68.9,2.61 L96.8,0.01 L99.6,63.41 Z M74.2,58.01 L94.3,58.01 L94.3,54.21 L74.2,54.21 Z M94.3,50.81 L94.3,47.01 L74.2,47.01 L74.2,50.81 Z M74.2,12.71 L94.3,12.71 L94.3,9.01 L74.2,9.01 Z" fill="none" stroke="currentColor" stroke-width="1.5"/></svg>