<svg xmlns="http://www.w3.org/2000/svg" viewBox="0 0 74.0 74.0" width="24" height="24"><path d="M42.5,50.5 C42.5,51.6 40.04,52.5 37,52.5 C33.96,52.5 31.5,51.6 31.5,50.5 C31.5,49.4 33.96,48.5 37,48.5 C40.04,48.5 42.5,49.4 42.5,50.5 M72,32.18 L41.83,2 C40.54,0.71 38.82,0 37,0 C35.18,0 33.46,0.71 32.18,2 L2,32.18 C0.73,33.44 0,35.2 0,37 C0,38.8 0.73,40.55 2,41.82 L32.18,72 C33.46,73.29 35.18,74 37,74 C38.82,74 40.54,73.29 41.83,72 L72,41.83 C73.29,40.54 74,38.82 74,37 C74,35.17 73.29,33.46 72,32.18 Z M25.5,30.5 L25.5,45.23 L25.5,45.23 C25.5,46.76 22.14,48 18,48 C18,48 17.99,48 17.99,48 L17.9,48 L17.9,48 C13.8,47.98 10.5,46.75 10.5,45.23 L10.5,30.5 C10.5,28.57 13.86,27 18,27 C22.14,27 25.5,28.57 25.5,30.5 L25.5,30.5 Z M44.5,50.5 L44.5,65.23 L44.5,65.23 C44.5,66.76 41.14,68 37,68 C37,68 36.99,68 36.99,68 L36.9,68 L36.9,68 C32.8,67.98 29.5,66.75 29.5,65.23 L29.5,50.5 C29.5,48.57 32.86,47 37,47 C41.14,47 44.5,48.57 44.5,50.5 L44.5,50.5 Z M44.5,10.5 L44.5,25.23 L44.5,25.23 C44.5,26.76 41.14,28 37,28 C37,28 36.99,28 36.99,28 L36.9,28 L36.9,28 C32.8,27.98 29.5,26.75 29.5,25.23 L29.5,10.5 C29.5,8.57 32.86,7 37,7 C41.14,7 44.5,8.57 44.5,10.5 L44.5,10.5 Z M63.5,30.5 L63.5,45.23 L63.5,45.23 C63.5,46.76 60.14,48 56,48 C56,48 55.99,48 55.99,48 L55.9,48 L55.9,48 C51.8,47.98 48.5,46.75 48.5,45.23 L48.5,30.5 C48.5,28.57 51.86,27 56,27 C60.14,27 63.5,28.57 63.5,30.5 L63.5,30.5 Z M42.5,10.5 C42.5,11.6 40.04,12.5 37,12.5 C33.96,12.5 31.5,11.6 31.5,10.5 C31.5,9.4 33.96,8.5 37,8.5 C40.04,8.5 42.5,9.4 42.5,10.5 M61.5,30.5 C61.5,31.6 59.04,32.5 56,32.5 C52.96,32.5 50.5,31.6 50.5,30.5 C50.5,29.4 52.96,28.5 56,28.5 C59.04,28.5 61.5,29.4 61.5,30.5 M23.5,30.5 C23.5,31.6 21.04,32.5 18,32.5 C14.96,32.5 12.5,31.6 12.5,30.5 C12.5,29.4 14.96,28.5 18,28.5 C21.04,28.5 23.5,29.4 23.5,30.5" fill="none" stroke="currentColor" stroke-width="1.5"/></svg>