<svg xmlns="http://www.w3.org/2000/svg" viewBox="0 0 32.0 32.0" width="24" height="24"><path d="M16,14.9 C15.5,14.9 15.1,15.1 14.8,15.5 C14.5,15.9 14.3,16.4 14.3,17 C14.3,17.6 14.4,18.1 14.7,18.5 C15,18.9 15.4,19.1 15.9,19.1 C16.4,19.1 16.8,18.9 17.1,18.6 C17.4,18.2 17.5,17.7 17.5,17.1 C17.5,16.4 17.4,15.9 17.1,15.6 C16.9,15.1 16.5,14.9 16,14.9 Z M32,4.8 C31.9,2.3 24.9,0 16,0 C7,0 0,2.3 0,4.7 C0.1,4.9 0.1,5 0.2,5.2 C1.9,8.3 3,12.3 3,16.6 C3,20.9 2,24.8 0.3,27.9 C1.5,30.2 8.1,32 16.1,32 C24.1,32 30.7,30.2 31.9,28 C30.2,24.9 29.1,20.9 29.1,16.6 C29,12.1 30.1,8 32,4.8 Z M11.5,19.8 C11.1,20.1 10.4,20.3 9.7,20.3 C9,20.3 8.5,20.2 8,19.9 L8,18.5 C8.5,18.9 9.1,19.2 9.7,19.2 C10,19.2 10.2,19.1 10.4,19 C10.6,18.9 10.6,18.7 10.6,18.5 C10.6,18.3 10.5,18.1 10.4,18 C10.2,17.9 9.9,17.7 9.4,17.4 C8.4,16.9 7.9,16.3 7.9,15.5 C7.9,14.9 8.1,14.5 8.5,14.1 C8.9,13.8 9.5,13.6 10.2,13.6 C10.8,13.6 11.3,13.7 11.8,13.8 L11.8,15.1 C11.4,14.8 10.9,14.7 10.3,14.7 C10,14.7 9.8,14.8 9.6,14.9 C9.4,15 9.4,15.2 9.4,15.4 C9.4,15.6 9.5,15.8 9.6,15.9 C9.7,16 10,16.2 10.4,16.4 C11,16.7 11.4,17 11.7,17.3 C12,17.6 12.1,18 12.1,18.4 C12.2,19 12,19.5 11.5,19.8 Z M19,21.8 L17.1,21.8 L15.8,20.3 C15.2,20.3 14.7,20.1 14.3,19.8 C13.8,19.5 13.5,19.1 13.2,18.6 C12.9,18.1 12.8,17.6 12.8,17 C12.8,16.3 12.9,15.7 13.2,15.2 C13.5,14.7 13.9,14.3 14.3,14 C14.8,13.7 15.4,13.6 16,13.6 C16.6,13.6 17.1,13.7 17.6,14 C18.1,14.3 18.4,14.7 18.7,15.2 C19,15.7 19.1,16.3 19.1,16.9 C19.1,17.7 18.9,18.3 18.6,18.9 C18.3,19.5 17.8,19.8 17.1,20.1 L19,21.8 Z M24,20.2 L20.2,20.2 L20.2,13.8 L21.6,13.8 L21.6,19.1 L24,19.1 C24,19 24,20.2 24,20.2 Z M16.1,7.1 C9.8,7.1 4.5,5.9 4.5,4.4 C4.5,2.9 9.7,1.7 16.1,1.7 C22.5,1.7 27.5,2.9 27.5,4.4 C27.5,5.9 22.3,7.1 16.1,7.1 Z" fill="none" stroke="currentColor" stroke-width="1.5"/></svg>