<svg xmlns="http://www.w3.org/2000/svg" viewBox="0 0 27.6 37.9" width="24" height="24"><path d="M13.9,2.1 C19.4,2.1 23.8,3.5 23.8,5.2 C23.8,6.9 19.3,8.3 13.9,8.3 C8.5,8.3 4,6.9 4,5.2 C4,3.4 8.5,2.1 13.9,2.1 Z M13.6,0 C5.9,0 0,2.7 0,5.6 L0,32.2 C0,35.2 5.9,37.9 13.6,37.9 C21.3,37.9 27.6,35.2 27.6,32.3 L27.6,5.8 C27.6,2.8 21.4,0 13.6,0 Z M13.6,13.2 L15.9,19.6 L22.8,19.6 L17.3,24 L19.3,30.6 L13.6,26.5 L7.9,30.6 L9.9,24 L4.4,19.6 L11.3,19.6 L13.6,13.2 Z" fill="none" stroke="currentColor" stroke-width="1.5"/></svg>