<svg xmlns="http://www.w3.org/2000/svg" viewBox="0 0 49.5 50.0" width="24" height="24"><path d="M32.63,32.44 C32.48,32.44 32,32.46 31.85,32.47 C30.41,29.3 27.23,27.1 23.52,27.1 C18.98,27.1 15.23,30.41 14.5,34.74 C14.45,34.74 14.41,34.73 14.36,34.73 C11.54,34.73 8.68,36.72 7.36,39 L19.67,39 C20.39,37.67 21.78,36.75 23.4,36.75 C25.74,36.75 27.65,38.66 27.65,41 C27.65,43.34 25.74,45.25 23.4,45.25 C21.78,45.25 20.39,44.33 19.67,43 L6.7,43 C6.74,43.24 6.8,43.53 6.88,43.89 C7.69,47.49 10.67,50 14.36,50 L32.68,50 L33.01,49.98 C37.68,49.78 41.41,45.94 41.41,41.22 C41.41,36.37 37.48,32.44 32.63,32.44 Z M48.5,0 L26.5,0 C26.5,0 25.5,0 25.5,1 L25.5,25.28 C26.55,25.46 27.56,25.8 28.5,26.26 L28.5,24 L32.5,24 L32.5,29.54 C32.72,29.84 32.94,30.13 33.14,30.45 C33.95,30.48 34.74,30.61 35.5,30.82 L35.5,24 L39.5,24 L39.5,31 L36.13,31 C40.41,32.43 43.5,36.47 43.5,41.22 C43.5,42.94 43.09,44.56 42.38,46 L48.5,46 C48.5,46 49.5,45.96 49.5,45 L49.5,1 C49.5,0 48.5,0 48.5,0 Z M32.5,21 L28.5,21 L28.5,14 L32.5,14 L32.5,21 Z M32.5,11 L28.5,11 L28.5,4 L32.5,4 L32.5,11 Z M39.5,21 L35.5,21 L35.5,14 L39.5,14 L39.5,21 Z M39.5,11 L35.5,11 L35.5,4 L39.5,4 L39.5,11 Z M46.5,31 L42.5,31 L42.5,24 L46.5,24 L46.5,31 Z M46.5,21 L42.5,21 L42.5,14 L46.5,14 L46.5,21 Z M46.5,11 L42.5,11 L42.5,4 L46.5,4 L46.5,11 Z M23.4,44 C25.06,44 26.4,42.66 26.4,41 C26.4,39.34 25.06,38 23.4,38 C22.1,38 21,38.84 20.58,40 L6.46,40 C4.02,39.87 2.12,37.73 2.12,35.3 C2.12,32.77 4.17,30.71 6.68,30.71 L6.74,30.71 C6.79,30.72 6.85,30.72 6.9,30.72 L8.37,30.78 L8.94,29.43 C9.88,27.21 12.05,25.77 14.46,25.77 C15.68,25.77 16.72,26.14 17.65,26.76 C18.31,26.35 19.03,26.01 19.78,25.74 C18.36,24.45 16.55,23.65 14.46,23.65 C11.1,23.65 8.22,25.69 6.99,28.61 C6.89,28.6 6.8,28.59 6.7,28.59 C3,28.59 0,31.59 0,35.3 C0,38.88 2.81,41.81 6.35,42 L20.58,42 C21,43.16 22.1,44 23.4,44 Z" fill="none" stroke="currentColor" stroke-width="1.5"/></svg>