<svg xmlns="http://www.w3.org/2000/svg" viewBox="0 0 100.06 100.01" width="24" height="24"><path d="M51.26,46.01 C49.77,46.01 48.06,45.12 48.06,43.09 C48.06,40.96 49.87,40 51.21,40 C53.5,40 54.53,41.5 54.53,43.06 C54.53,44.7 53.53,46.01 51.26,46.01 Z M60.04,62.01 L18.77,62.01 C10.76,62.01 0,55.24 0,44.29 C0,36.04 7.31,29.63 13.12,28.07 C11.02,21.87 14.02,14.77 20.25,11.31 C27.08,7.48 35.99,8.52 41.51,14.08 C45.55,5.44 53.58,0.15 64.33,0 C73.52,0 83.12,5.62 86.65,14.17 C88.4,18.53 88.66,24.07 86.49,28.03 C94.66,30.73 100.06,36.6 100.06,45.55 C100.06,51.84 93.56,60.86 82.09,62 L82.09,36.74 C82.09,31.6 78.62,30 76.17,30 L32.04,30 L32.04,21.94 L15.97,35.04 L32.04,48.08 L32.04,40.06 L39.99,40.06 L39.99,56.06 L60.04,56.06 L60.04,50.03 L71.01,59.05 L60.04,68.09 Z M51.37,78.07 C49.98,78.07 48.03,76.87 48.03,75.04 C48.03,73.3 49.4,71.6 51.49,71.6 C52.95,71.6 54.52,73.02 54.52,75.03 C54.52,76.23 53.48,78.07 51.37,78.07 Z M51.41,92.09 C49.9,92.09 48.02,90.76 48.02,88.98 C48.02,87.27 49.59,85.57 51.37,85.57 C52.94,85.57 54.51,87.03 54.51,88.92 C54.51,90.56 53.12,92.09 51.41,92.09 Z M50.86,93.58 L71.04,93.58 C73.41,93.58 75.52,91.8 75.52,88.96 C75.52,86.03 73.55,84.08 70.8,84.08 L50.78,84.08 C48.55,84.08 46.01,86.27 46.01,88.89 C46.01,91.58 48.51,93.58 50.86,93.58 Z M80.05,95.9 C80.05,98.31 78.72,100.01 76.26,100.01 L45.74,100.01 C43.09,100.01 42.03,98.1 42.03,95.81 L42.03,64.08 L58.03,64.08 L58.03,70.03 L51.02,70.03 C48.46,70.03 46,72.27 46,74.89 C46,78.06 49.02,79.6 51.01,79.6 L70.67,79.6 C73.88,79.6 75.57,77.43 75.57,74.97 C75.57,72.2 73.94,70.03 70.64,70.03 L60.67,70.03 L74.12,59.13 L60.6,48.06 L71.11,48.06 C73.38,48.06 75.56,45.62 75.56,43.03 C75.56,40.26 73.14,38.05 71.05,38.05 L51.06,38.05 C48.62,38.05 46.02,40.36 46.02,43.09 C46.02,45.88 48.98,48.06 50.86,48.06 L58.03,48.06 L58.03,54.04 L42.01,54.04 L42.01,38.04 L30.02,38.04 L30.02,44.07 L19.03,35.04 L30.02,26.08 L30.02,32.07 L76.08,32.07 C77.93,32.07 80.05,33 80.05,36.27 Z" fill="none" stroke="currentColor" stroke-width="1.5"/></svg>