<svg xmlns="http://www.w3.org/2000/svg" viewBox="0 0 96.08 74.2" width="24" height="24"><path d="M29.38,60.8 L31.38,57.7 L28.58,13.9 L34.48,8.1 L44.48,12.6 L50.38,10 L54.18,0 L62.58,0 L66.48,10.1 L72.48,12.7 L82.18,7.6 L88.08,13.4 L83.18,23.4 L85.88,29.2 L96.08,32.6 L95.98,40.9 L85.68,44.6 L83.08,50.4 L87.88,60.1 L81.98,65.9 L71.98,61.6 L66.08,64.1 L62.68,74.2 L54.18,74.2 L50.88,64.2 L44.98,61.8 L35.28,66.7 Z M39.78,45.7 Z M57.38,38.9 Z M62.68,31.7 Z" fill="none" stroke="currentColor" stroke-width="1.5"/></svg>