<svg xmlns="http://www.w3.org/2000/svg" viewBox="0 0 99.6 99.6" width="24" height="24"><path d="M0,99.6 L0,0 L4.8,0 L4.8,94.8 L99.6,94.8 L99.6,99.6 Z M9.8,89.8 L9.8,63.1 L36.5,63.1 L36.5,89.8 Z M41.4,63.1 L68,63.17 L68,89.8 L41.4,89.92 Z M73,89.8 L73,63.1 L99.6,63.1 L99.6,89.8 Z M99.6,58.3 L73,58.3 L73,31.6 L99.6,31.6 Z M68,31.6 L68,58.3 L41.4,58.3 L41.4,31.6 Z M36.5,58.3 L9.8,58.3 L9.8,31.6 L36.5,31.6 Z M9.8,26.7 L9.8,0 L36.5,0 L36.5,26.7 Z M41.4,0 L68,0 L68,26.7 L41.4,26.7 Z M73,26.7 L73,0 L99.6,0 L99.6,26.7 Z" fill="none" stroke="currentColor" stroke-width="1.5"/></svg>