<svg xmlns="http://www.w3.org/2000/svg" viewBox="0 0 74.6 99.6" width="24" height="24"><path d="M0,99.6 L0,0 L46.5,0 L46.5,25.5 L74.6,25.5 L74.6,99.6 Z M47,88.9 L67.7,64.2 L62.5,59.7 L46.5,79 L37.2,70.1 L32.5,75.2 Z M26,71.1 L26,68 L14.2,68 L14.2,71.1 Z M42.7,59.6 L42.7,56.7 L14.2,56.7 L14.2,59.6 Z M54.2,48 L54.2,44.8 L14.2,44.8 L14.2,48 Z M54.2,36.5 L54.2,33.5 L14.2,33.5 L14.2,36.5 Z M34.4,22 L34.4,19 L14.2,19 L14.2,22 Z M52.1,19.9 L52.1,0 L74.6,19.9 Z" fill="none" stroke="currentColor" stroke-width="1.5"/></svg>