<svg xmlns="http://www.w3.org/2000/svg" viewBox="0 0 13.6 14.8" width="24" height="24"><path d="M10.13,4.46 L10.45,4.46 L10.13,8.02 Z M9.47,6.17 L9.47,7.49 L9.11,7.49 L9.11,6.19 L8,7.49 L7.64,7.49 L7.64,5.31 L8,5.31 L8,5.65 Z M6.95,4.46 L6.64,8.02 L6.95,4.46 Z M5.79,4.46 L5.79,4.75 L5.45,4.75 L5.1,5.31 L5.69,5.31 L5.69,5.59 L5.1,5.59 L5.1,7.49 L4.74,7.49 L4.74,5.59 L4.4,5.59 L4.4,5.31 L4.74,5.31 L4.74,5.15 L5.79,4.46 Z M3.7,13.2 C3.7,13.7 3.5,14.2 3.3,14.4 C3,14.7 2.4,14.8 2.4,14.8 L12.2,14.8 L12.5,14.8 C12.5,14.8 12.5,14.8 12.5,14.8 C12.8,14.8 13.1,14.6 13.3,14.3 C13.5,14 13.6,13.6 13.6,13.1 L11.1,13.1 L3.7,13.2 L3.7,13.2 Z M2.4,14.8 M2.9,14 C3.1,13.8 3.2,13.5 3.2,13.1 L3.2,12.6 L3.7,12.6 L11,12.6 C11,12.4 11,12.2 11,12.1 C11,9.5 13.3,5.7 13.3,2.7 C13.3,0.3 11,0 11,0 L2.8,0 L1,0 C1,0 2.8,0.4 3.2,2 C3.3,2.2 3.3,2.4 3.3,2.7 C3.3,5.7 1,9.5 1,12.1 C1,12.4 1,12.8 1.1,13.1 C1.2,13.4 1.3,13.6 1.5,13.8 C1.6,13.9 1.7,14 1.9,14.1 C2,14.2 2.2,14.3 2.3,14.3 C2.5,14.3 2.7,14.2 2.9,14 Z M2.5,1.7 C2.3,1.4 2.1,1.2 1.9,1 C1.4,0.7 0.9,0.5 0.9,0.5 L0.2,0.3 C0.1,0.5 0,0.7 0,0.9 C0,1.8 0.3,2 0.3,2 L2.7,2 C2.6,1.9 2.6,1.8 2.5,1.7 Z" fill="none" stroke="currentColor" stroke-width="1.5"/></svg>