<svg xmlns="http://www.w3.org/2000/svg" viewBox="0 0 99.58 92.8" width="24" height="24"><path d="M40.6,47.8 L64.7,71.8 L64.7,57.2 L45.5,57.2 L45.5,53.7 Z M68.3,34.7 Z M0,92.8 L0,77.2 L12.4,77.2 L12.4,83.3 L21.7,83.3 L21.7,77.2 L37.1,77.2 L37.1,83.3 L46.5,83.3 L46.5,77.2 L58.8,77.2 L58.8,92.8 Z M0,74.2 L0,61.8 L18.5,61.9 L18.5,54.3 L20.1,52.6 L38.6,52.6 L40.2,54.2 L40.2,61.9 L58.8,61.9 L58.8,74.2 L46.5,74.2 L46.5,68.1 L37.1,68.1 L37.1,74.2 L21.7,74.2 L21.7,68.1 L12.4,68.1 L12.4,74.2 Z M15.4,80.3 L15.4,70.9 L18.5,70.9 L18.5,80.3 Z M40.2,80.3 L40.2,70.9 L43.1,70.9 L43.2,80.3 Z M37.2,61.9 L37.2,55.7 L21.6,55.7 L21.6,61.9 Z" fill="none" stroke="currentColor" stroke-width="1.5"/></svg>