<svg xmlns="http://www.w3.org/2000/svg" viewBox="0 0 97.3 99.6" width="24" height="24"><path d="M0,99.6 L0,0 L4.7,0 L4.7,4.6 L14,4.6 L14,0 L83.4,0 L83.4,4.6 L92.8,4.6 L92.8,0 L97.3,0 L97.3,99.6 L92.8,99.6 L92.8,95 L83.4,95 L83.4,99.6 L14,99.6 L14,95 L4.7,95 L4.7,99.6 Z M4.7,88 L14,88 L14,81 L4.7,81 Z M14,74.2 L14,67.2 L4.7,67.2 L4.7,74.2 Z M4.7,60.2 L14,60.2 L14,53.3 L4.7,53.3 Z M14,46.3 L14,39.3 L4.7,39.3 L4.7,46.3 Z M14,32.5 L14,25.5 L4.7,25.5 L4.7,32.5 Z M4.7,18.6 L14,18.6 L14,11.6 L4.7,11.6 Z M18.6,7 L18.6,46.3 L78.9,46.3 L78.9,7 Z M78.9,53.3 L18.6,53.3 L18.6,92.7 L78.9,92.7 Z M83.4,81 L83.4,88 L92.8,88 L92.8,81 Z M92.8,74.2 L92.8,67.2 L83.4,67.2 L83.4,74.2 Z M83.4,60.2 L92.8,60.2 L92.8,53.3 L83.4,53.3 Z M92.8,46.3 L92.8,39.3 L83.4,39.3 L83.4,46.3 Z M83.4,32.5 L92.8,32.5 L92.8,25.5 L83.4,25.5 Z M92.8,18.6 L92.8,11.6 L83.4,11.6 L83.4,18.6 Z" fill="none" stroke="currentColor" stroke-width="1.5"/></svg>