<svg xmlns="http://www.w3.org/2000/svg" viewBox="0 0 101.52 78.66" width="24" height="24"><path d="M96.02,39.17 L96.02,35.04 L89.71,35.04 L89.71,39.17 L91.88,39.17 L91.88,39.04 L93.75,39.04 L93.75,39.17 Z M95.02,34.07 L95.5,34.07 L95.5,33.42 L95.02,33.42 Z M94.77,34.37 L94.77,33.19 L95.75,33.19 L95.75,34.37 Z M93.86,34.07 L94.35,34.07 L94.35,33.42 L93.86,33.42 Z M93.58,34.37 L93.58,33.19 L94.64,33.19 L94.64,34.37 Z M82.75,38.92 L82.75,37.42 L82.33,37.03 L82.33,35.98 L82.61,35.98 L82.61,35.39 L76.2,35.39 L76.2,35.9 L76.54,36.18 L76.56,37.21 L76.18,37.61 L76.18,39 L76.73,39 L76.73,38.47 L78.53,38.46 L78.53,38.33 L78.8,38.33 L78.8,38.59 L79.58,38.59 L79.58,38.92 L79.72,38.92 L79.72,38.33 L80.82,38.33 L80.82,38.92 L80.96,38.92 L80.96,38.33 L81.42,38.33 L81.42,38.92 L81.74,38.92 L81.74,38.57 L82.31,38.57 L82.31,38.92 Z M87.93,39.56 C88.2,39.56 88.3,39.41 88.3,39.15 L88.3,35.6 C88.3,35.39 88.29,35.11 87.91,35.11 L85.06,35.11 C84.67,35.11 84.52,35.23 84.52,35.58 L84.52,39.19 C84.52,39.48 84.64,39.56 84.95,39.56 Z M89.36,39.48 L89.36,35.1 C89.36,34.8 89.58,34.68 89.84,34.68 L95.93,34.68 C96.13,34.68 96.28,34.81 96.28,35.02 L96.28,39.48 L94.42,39.48 L93.97,39.8 L91.52,39.8 L91.52,39.48 Z M92.63,34.07 L93.14,34.07 L93.14,33.42 L92.63,33.42 Z M92.39,34.37 L92.39,33.19 L93.37,33.19 L93.37,34.37 Z M73.65,41.18 L96.51,41.18 L96.51,32.71 L73.65,32.71 Z M75.95,39.28 L75.95,37.18 L76.21,37.18 L76.21,36.28 L75.95,36.28 L75.95,35.08 L82.98,35.08 L82.98,36.25 L82.56,36.25 L82.56,36.88 L82.73,37.04 L82.98,37.04 L82.98,39.16 L79.34,39.16 L79.34,38.91 L79.08,38.91 L79.08,39.16 L78.63,39.16 L78.63,39.28 Z M84.82,39.89 C84.55,39.89 84.22,39.69 84.22,39.31 L84.22,35.36 C84.22,35.13 84.5,34.78 84.86,34.78 L87.95,34.78 C88.36,34.78 88.61,35.11 88.61,35.4 L88.61,39.32 C88.61,39.62 88.22,39.89 87.97,39.89 Z M96.77,41.44 L73.32,41.44 L73.32,32.4 L96.77,32.4 Z M97.38,41.89 L97.37,31.66 L72.84,31.65 L72.82,41.89 Z M95.1,55.79 C95.68,55.79 96.32,55.38 96.32,54.54 C96.32,53.8 95.85,53.41 95.18,53.41 C94.51,53.41 93.91,53.89 93.91,54.59 C93.91,55.28 94.4,55.79 95.1,55.79 Z M74.7,56.95 L79.67,56.95 L79.67,54.37 L74.7,54.37 Z M92.03,9.04 L92.03,7.34 L77.93,7.34 L77.93,9.02 Z M92.03,11.39 L92.03,9.72 L77.93,9.72 L77.93,11.39 Z M98.42,12.95 L71.65,12.95 L71.65,3.28 L98.42,3.28 Z M98.42,21.11 L71.65,21.11 L71.65,14.67 L98.42,14.67 Z M98.42,28.51 L71.65,28.51 L71.65,22.85 L98.42,22.85 Z M98.42,60.24 L71.65,60.24 L71.65,30.13 L98.42,30.13 Z M100.01,61.84 L100.01,1.7 L69.81,1.7 L69.81,61.84 Z M101.52,63.4 L68.26,63.4 L68.26,0 L101.52,0 Z M94.89,66.37 C94.54,73.98 88.65,78.66 83.34,78.66 L13.89,78.66 C10.48,78.66 5.09,75.93 2.72,70.41 C0,63.8 1.8,57.19 6.69,52.98 C10.31,50.16 13.78,49.69 17.19,50.28 C19.14,46.69 21.78,44.96 24.45,44.06 C27.68,43.2 29.67,43.7 32.75,44.77 C32.12,40.2 33.35,35.48 35.87,31.93 C39.26,27.06 44.7,24.72 50.05,25.28 C56.45,26.18 61.11,30.67 63.18,36.34 L65.55,35.12 L65.55,66.37 Z" fill="none" stroke="currentColor" stroke-width="1.5"/></svg>