<svg xmlns="http://www.w3.org/2000/svg" viewBox="0 0 97.1 86.1" width="24" height="24"><path d="M2.5,86.1 L0,2.5 L94.6,0 L97.1,83.6 Z M4.8,83.3 L14.7,83.3 L14.7,82.1 L12.8,82 L16.7,80.3 L17.6,70.2 L3.4,69.3 L2.5,79.1 L8,80.3 L4.8,82.2 Z M3.7,79 L3.7,70.5 L16.3,70.5 L16.3,79 Z M7.3,76.4 L9.7,77.6 L9.7,74.9 L7.3,73.6 Z M10,77.7 L12.6,76.1 L12.6,73.3 L10,74.9 Z M12.5,73.1 L9.9,71.8 L7.3,73.1 L9.8,74.5 Z M79.5,73.3 L82.1,80.7 L83.3,80.7 L86.2,73.3 L84.7,73.3 L82.7,78.5 L80.9,73.3 Z M86.6,73.3 L86.6,80.7 L87.7,80.7 L87.7,75.7 L89.8,80.7 L90.7,80.7 L92.7,75.7 L92.7,80.7 L93.8,80.7 L93.8,73.3 L92.6,73.3 L90.2,78.3 L88,73.3 Z" fill="none" stroke="currentColor" stroke-width="1.5"/></svg>