<svg xmlns="http://www.w3.org/2000/svg" viewBox="0 0 27.92 26.39" width="24" height="24"><path d="M17.96,20.32 C18.17,20.6 18.34,20.87 18.55,21.1 C19.57,22.19 21.31,22.25 22.4,21.23 C23.54,20.17 23.59,18.4 22.52,17.3 C21.47,16.22 19.67,16.12 18.69,17.26 C18.1,17.95 17.49,18.04 16.71,18.02 C14.69,17.99 12.67,18.01 10.66,18.01 C10.79,20.85 9.72,22.61 7.59,23.03 C5.51,23.44 3.6,22.38 2.92,20.44 C2.15,18.24 3.1,16.48 5.84,15.08 C5.63,14.34 5.43,13.58 5.22,12.83 C2.23,13.48 0,16.38 0.23,19.64 C0.43,22.52 2.75,25.07 5.59,25.53 C7.13,25.78 8.58,25.52 9.92,24.76 C11.65,23.78 12.65,22.23 13.12,20.32 L17.96,20.32 Z M16.07,8.91 C16.19,8.6 16.31,8.35 16.4,8.09 C16.71,7.15 16.52,6.3 15.92,5.54 C15.19,4.61 13.9,4.27 12.81,4.69 C11.71,5.11 11,6.2 11.05,7.39 C11.1,8.61 11.91,9.69 13.17,9.91 C13.92,10.04 14.29,10.39 14.63,11.01 C15.62,12.84 16.66,14.64 17.69,16.46 C20.16,14.82 22.2,14.87 23.72,16.58 C25.05,18.07 25.07,20.33 23.79,21.85 C22.28,23.63 20.25,23.7 17.93,22.2 C17.29,22.73 16.69,23.24 16.09,23.74 C18.44,26.08 21.79,26.39 24.44,24.57 C27.03,22.79 27.92,19.38 26.61,16.5 C25.52,14.11 22.49,11.88 18.46,13.13 C17.67,11.73 16.86,10.31 16.07,8.91 Z M12.86,11.15 C10.25,9.83 9.29,8.09 9.92,5.96 C10.48,4.08 12.36,2.86 14.27,3.14 C15.23,3.29 16.06,3.68 16.72,4.42 C17.71,5.55 17.93,6.87 17.63,8.34 C18.43,8.56 19.16,8.76 19.89,8.95 C20.85,6.31 19.72,3.23 17.26,1.65 C14.69,0 11.37,0.34 9.19,2.49 C8.05,3.61 7.43,4.98 7.28,6.57 C7.08,8.8 8,10.61 9.56,12.16 C8.7,13.6 7.88,14.97 7.08,16.3 C6.86,16.32 6.72,16.32 6.58,16.34 C4.96,16.57 3.81,18.02 4.08,19.49 C4.39,21.16 5.91,22.18 7.46,21.77 C9.11,21.34 9.99,19.75 9.37,18.11 C9.14,17.52 9.28,17.14 9.57,16.68 C10.66,14.86 11.74,13.03 12.86,11.15 Z" fill="none" stroke="currentColor" stroke-width="1.5"/></svg>