<svg xmlns="http://www.w3.org/2000/svg" viewBox="0 0 103.22 101.9" width="24" height="24"><path d="M33.14,89.9 L91.74,66.9 L88.64,67.9 L87.84,67.3 L49.64,61.9 L43.84,63.4 L43.94,66.7 L31.54,85.3 Z M19.24,70.8 Z M25.94,37.5 Z M39.64,10.2 Z M83.14,23 Z M36.74,95.4 L39.04,91.8 L37.64,89.8 L33.34,89.8 L32.64,86.1 L36.24,84 L36.24,81.5 L32.34,79.5 L33.24,75.9 L37.54,75.9 L38.74,74.1 L36.44,70.4 L39.14,67.6 L42.74,69.9 L44.74,68.6 L44.64,64.4 L48.24,63.7 L50.24,67.2 L52.54,67.3 L54.34,63.3 L57.94,64.3 L57.84,68.4 L60.14,69.4 L63.74,67.2 L66.24,69.5 L64.14,73.1 L65.14,74.9 L69.44,74.9 L70.34,78.4 L66.74,80.5 L66.84,84.1 L70.84,86.1 L70.04,89.8 L65.84,89.8 L64.64,91.5 L66.84,95.3 L64.34,98 L60.64,95.8 L58.64,96.8 L58.64,100.9 L55.24,101.9 L52.94,98.3 L50.64,98.1 L48.64,101.9 L44.94,100.9 L44.94,96.8 L43.14,95.6 L39.34,97.8 Z Z M51.69,94.1 Z M50.04,82.1 L50.04,77.3 L52.24,80.5 L57.34,85.4 Z M76.64,87.5 L76.34,83.9 L74.64,82.7 L71.04,83.4 L69.64,80.5 L72.04,77.9 L71.74,75.6 L68.54,73.6 L69.24,70.8 L72.74,70.6 L73.94,69.1 L73.34,65.4 L75.84,63.8 L78.64,66.1 L80.94,65.9 L82.74,62.9 L85.74,63.6 L86.04,67.3 L88.04,68.5 L91.34,67.6 L92.74,70.4 L90.34,73.1 L90.54,75.4 L93.84,77.5 L93.24,80.3 L89.54,80.4 L88.14,82.1 L88.84,85.9 L86.34,87.3 L83.44,84.8 L81.34,85 L79.34,88.3 Z M81.44,79.6 Z" fill="none" stroke="currentColor" stroke-width="1.5"/><ellipse cx="51.24" cy="72.8" rx="0.5" ry="0.5" fill="none" stroke="currentColor"/><ellipse cx="61.14" cy="82.1" rx="0.5" ry="0.5" fill="none" stroke="currentColor"/><ellipse cx="51.24" cy="91.9" rx="0.5" ry="0.5" fill="none" stroke="currentColor"/><ellipse cx="41.94" cy="82.1" rx="0.5" ry="0.5" fill="none" stroke="currentColor"/></svg>