<svg xmlns="http://www.w3.org/2000/svg" viewBox="0 0 94.75 82.57" width="24" height="24"><path d="M44.1,66.8 L0,66.8 L0,0 L78.9,0 L78.9,31.9 L76.5,31.1 L76.5,15.6 L2.3,15.6 L2.3,64.4 L43.2,64.4 Z M10.9,59.5 L10.9,48.6 L17,48.6 L17,40 L38.8,40 L38.8,33.9 L30.4,33.9 L30.4,20.7 L49.8,20.7 L49.8,33.9 L41.1,33.9 L41.1,40.1 L48.8,40.1 L47,42.4 L41.2,42.4 L41.2,48.6 L43.9,48.6 L32.8,59.6 L32.8,48.6 L38.9,48.6 L38.9,42.4 L19.2,42.4 L19.2,48.6 L25.3,48.6 L25.3,59.6 Z M69.75,82.37 Z M62.86,77.14 Z M72.16,77.35 Z M62.86,66.07 L62.23,59.59 Z M49.07,59.59 Z M58.47,55.62 Z M77.38,55.62 Z M67.87,37.65 Z M60.14,44.44 Z Z Z Z Z M84.38,42.88 Z M90.65,55.62 Z M79.68,70.25 Z M81.14,59.7 Z" fill="none" stroke="currentColor" stroke-width="1.5"/></svg>