<svg xmlns="http://www.w3.org/2000/svg" viewBox="0 0 77.4 99.6" width="24" height="24"><path d="M0,98.8 L0,4.8 L43.4,0 L48.3,46.2 L21.8,50.4 L21.8,74.7 L7.3,74.9 L7.3,79.6 L21.7,79.6 L21.7,84.4 L7.3,84.4 L7.3,89.2 L21.7,89.2 L21.7,96.3 L39.7,98.8 Z M7.4,19.3 L41.1,19.3 L41.1,14.5 L7.4,14.5 Z M26.6,54.5 L45.9,51.7 L45.9,72.3 L26.6,72.3 Z M45.9,75 L45.9,95.1 L26.6,92.2 L26.6,75 Z M48.4,95.5 L48.4,75 L77.4,75 L77.4,99.6 Z M77.4,72.3 L48.4,72.3 L48.4,51.5 L77.4,47.6 Z" fill="none" stroke="currentColor" stroke-width="1.5"/></svg>