<svg xmlns="http://www.w3.org/2000/svg" viewBox="0 0 74.2 74.46" width="24" height="24"><path d="M38.62,62.69 C38.6,57.48 39.59,53.14 42.35,49.32 L53.47,38.27 L58.45,43.27 L58.45,29.88 L45.03,29.88 L50.71,35.53 L38.45,47.87 L38.45,19.97 L46.89,19.97 L36.8,9.88 L26.69,19.97 L35.2,19.97 L35.2,38.68 C33.8,36.94 30.37,34.87 27.71,34.87 L20.18,34.87 L20.18,26.48 L10.09,36.58 L20.18,46.68 L20.18,38.23 L25.2,38.23 C31.12,38.23 35.2,43 35.2,48.5 L35.2,62.69 Z M40.63,71.9 C39.26,73.31 35.8,74.46 33.12,71.76 L1.79,40.48 C0.01,38.44 0,35.39 1.69,33.5 L33.7,1.49 C35.55,0 38.72,0.04 40.27,1.53 L72.02,33.25 C74.2,35.49 73.9,38.56 72.03,40.51 Z" fill="none" stroke="currentColor" stroke-width="1.5"/></svg>