<svg xmlns="http://www.w3.org/2000/svg" viewBox="0 0 37.58 37.5" width="24" height="24"><path d="M30.9,18.75 Z M20.25,9 Z M20.25,29.1 Z M9.98,18.75 Z M18.75,37.5 C19.65,37.5 20.55,37.13 21.23,36.45 L36.53,21.3 C37.2,20.63 37.58,19.8 37.58,18.82 C37.58,17.85 37.2,17.03 36.53,16.35 L21.23,1.05 C20.55,0.38 19.65,0 18.75,0 C17.85,0 16.95,0.38 16.28,1.05 L1.05,16.28 C0.38,16.95 0,17.85 0,18.75 C0,19.65 0.38,20.55 1.05,21.23 L16.28,36.45 C16.95,37.13 17.85,37.5 18.75,37.5 Z M22.95,29.55 L21.83,30 L21.53,30.68 L22.05,31.57 L22.05,31.73 L21.37,32.4 L20.32,31.88 L19.65,32.18 L19.28,33.15 L19.28,33.3 L18.3,33.3 L17.85,32.18 L17.18,31.88 L16.28,32.4 L16.13,32.47 L15.45,31.73 L15.98,30.68 L15.68,30 L14.7,29.63 L14.55,29.63 L14.55,28.65 L15.68,28.2 L15.98,27.6 L15.45,26.62 L15.45,26.48 L16.13,25.8 L17.18,26.33 L17.85,26.03 L18.23,25.05 L18.23,24.9 L19.2,24.9 L19.65,26.03 L20.32,26.33 L21.23,25.8 L21.37,25.8 L22.05,26.48 L21.53,27.53 L21.83,28.2 L22.8,28.58 L22.95,28.58 L22.95,29.55 Z M33.67,19.2 L32.47,19.65 L32.17,20.33 L32.7,21.23 L32.77,21.38 L32.1,22.05 L30.97,21.53 L30.3,21.83 L30,22.8 L29.92,22.95 L28.95,22.95 L28.57,21.83 L27.9,21.53 L26.92,22.05 L26.77,22.05 L26.1,21.38 L26.62,20.33 L26.4,19.65 L25.35,19.28 L25.2,19.28 L25.2,18.3 L26.4,17.85 L26.62,17.18 L26.1,16.13 L26.77,15.45 L27.9,15.98 L28.57,15.68 L28.87,14.7 L28.95,14.55 L29.85,14.55 L30.3,15.68 L30.97,15.98 L31.95,15.45 L32.02,15.45 L32.7,16.13 L32.17,17.18 L32.47,17.85 L33.52,18.23 L33.67,18.23 L33.67,19.2 Z M22.95,9.45 L21.83,9.9 L21.53,10.58 L22.05,11.55 L22.05,11.63 L21.37,12.3 L20.32,11.78 L19.65,12.07 L19.28,13.12 L19.28,13.2 L18.3,13.2 L17.85,12.07 L17.18,11.78 L16.28,12.3 L16.13,12.37 L15.45,11.7 L15.98,10.58 L15.68,9.9 L14.7,9.6 L14.55,9.53 L14.55,8.55 L15.68,8.18 L15.98,7.5 L15.45,6.52 L15.45,6.37 L16.13,5.7 L17.18,6.23 L17.85,6 L18.23,4.95 L18.23,4.8 L19.2,4.8 L19.65,5.93 L20.32,6.23 L21.37,5.7 L22.05,6.37 L21.53,7.5 L21.83,8.18 L22.8,8.48 L22.95,8.55 L22.95,9.45 Z M12.67,19.2 L11.47,19.65 L11.25,20.33 L11.77,21.38 L11.1,22.05 L9.97,21.53 L9.3,21.83 L9,22.8 L8.92,22.95 L7.95,22.95 L7.57,21.83 L6.9,21.53 L5.92,22.05 L5.77,22.05 L5.1,21.38 L5.62,20.33 L5.4,19.65 L4.35,19.28 L4.2,19.28 L4.2,18.3 L5.4,17.85 L5.62,17.18 L5.1,16.13 L5.77,15.45 L6.9,15.98 L7.57,15.68 L7.87,14.7 L7.95,14.55 L8.92,14.55 L9.3,15.68 L9.97,15.98 L10.95,15.45 L11.1,15.45 L11.77,16.13 L11.25,17.18 L11.47,17.85 L12.52,18.23 L12.67,18.23 L12.67,19.2 Z" fill="none" stroke="currentColor" stroke-width="1.5"/></svg>