<svg xmlns="http://www.w3.org/2000/svg" viewBox="0 0 182.308 165.205" width="24" height="24"><path d="M182.296,74.208 L182.283,75.716 C181.546,121.216 147.3,158.599 103.075,164.416 L102.896,164.437 L89.188,165.183 L89.25,165.183 C87.475,165.149 85.708,165.066 83.958,164.933 L83.721,164.912 L48.254,154.612 L49.783,151.625 C64.066,123.892 78.141,100.612 92.025,81.762 L93.508,79.762 L95.466,77.175 C107.592,61.291 121.479,46.149 137.125,31.745 C64.325,11.404 41.634,27.796 32.404,50.921 C52.046,59.854 70.971,71.442 89.18,85.679 C60.779,77.866 37.571,64.558 13.529,55.391 C11.367,104.433 28.463,130.966 53.538,144.416 L48.279,154.554 C19.967,139.441 0.558,109.749 0.013,75.466 L0,73.974 L0.042,71.137 L5.887,41.612 L6.237,40.724 L10.071,42.008 C14.038,43.374 17.979,44.845 21.892,46.42 L92.184,0.042 C147.579,22.441 149.562,20.749 151.571,19.066 L154.417,16.712 L158.754,13.208 L159.846,14.428 L160.913,15.674 L161.954,16.937 L162.925,18.149 L177.28,44.058 L177.871,45.825 Z M169.892,61.562 L168.221,62.554 L164.854,64.599 C148.129,74.891 132.812,86.141 118.913,98.341 L117.079,99.958 C102.412,113.041 86.854,129.308 70.425,148.774 L68.813,150.695 C76.004,152.766 83.496,153.833 91.029,153.833 C129.792,153.833 162.192,126.154 169.396,89.583 C170.371,84.591 170.883,79.433 170.883,74.158 L170.854,71.999 L170.175,63.449 Z M157.033,29.358 C136.042,47.145 117.746,66.374 102.654,86.558 C95.3,96.391 87.817,107.629 80.263,120.183 C91.004,108.562 101.379,98.362 111.383,89.583 L113.954,87.349 C129.933,73.624 147.646,61.099 167.092,49.787 Z" fill="none" stroke="currentColor" stroke-width="1.5"/></svg>