<svg xmlns="http://www.w3.org/2000/svg" viewBox="0 0 162.398 187.602" width="24" height="24"><path d="M81.199,0 L0,46.9 L0,111.701 L5.199,111.701 L5.199,49.9 L81.299,6 L90.398,11.301 L95.6,8.301 Z M108.398,15.801 L103.199,18.801 L157.199,49.9 L157.199,137.701 L144.299,145.102 L149.5,148.201 L162.398,140.801 L162.398,47 Z M81.199,25.9 L21.799,60.201 L21.699,60.201 L21.699,76.9 L46.1,90.9 L46.799,91.301 L46.799,74.602 L106.199,40.301 L105.5,39.9 Z M115.5,45.701 L56.1,80 L56.1,96.801 L81.199,111.201 L81.199,111.102 L140.674,77 L140.674,60.201 L116.199,46.201 Z M21.6,86.201 L21.6,102.9 L46,116.9 L56.799,123.102 L81.199,137.102 L140.699,103 L140.699,86.301 L81.199,120.4 L56.799,106.4 L46,100.201 Z M140.699,112.102 L81.199,146.4 C81.199,146.5 56.799,132.5 56.799,132.5 L21.699,112.301 L21.699,129 L56.799,149.201 L81.199,163.201 L140.699,128.9 Z M0,127.701 L0,140.701 L81.199,187.602 L136.5,155.801 L131.299,152.701 L81.199,181.602 L5.199,137.701 L5.199,127.701 Z" fill="none" stroke="currentColor" stroke-width="1.5"/></svg>