<svg xmlns="http://www.w3.org/2000/svg" viewBox="0 0 146.8 166.4" width="24" height="24"><path d="M74.3,27.3 C62,27.3 50.2,31.7 41,39.9 L51.3,50.2 L49.5,58.3 L36.2,44.8 C28.3,53.9 24,65.5 24.1,77.6 C24.1,105.4 46.6,127.9 74.4,127.9 C87.4,127.9 99.2,123 108.1,114.9 L98.2,105 L99.9,96.9 L112.9,109.9 C120.6,100.8 124.7,89.4 124.7,77.5 C124.7,49.8 102.1,27.3 74.3,27.3 Z M102.9,58.5 L71,58.5 L67.8,73.5 L95.7,73.5 L93.3,84.6 L65.5,84.6 L59.8,111.4 L45.6,111.4 L59.2,46.4 L105.4,46.4 Z M73.7,0.1 L73.1,0 L73.1,0.1 L0,19.5 L4.3,96.9 C4.3,97.4 4.3,107.2 7.4,113.1 C23.1,142.7 60.4,160.6 72.3,165.9 C72.3,165.9 72.7,166.1 73,166.2 L73,166.4 C73.1,166.4 73.2,166.4 73.3,166.3 C73.4,166.3 73.6,166.4 73.6,166.4 L73.6,166.2 C73.9,166.1 74.2,165.9 74.2,165.9 C86.2,160.6 123.4,142.6 139.1,113.1 C142.2,107.2 142.5,97.4 142.5,96.9 L146.8,19.5 Z M74.3,134.1 C43.1,134.1 17.7,108.8 17.7,77.6 C17.7,46.4 43,21 74.3,21 C105.5,21 130.8,46.3 130.8,77.5 C130.9,108.8 105.6,134.1 74.3,134.1 Z" fill="none" stroke="currentColor" stroke-width="1.5"/></svg>