<svg xmlns="http://www.w3.org/2000/svg" viewBox="0 0 200.0 200.0" width="24" height="24"><path d="M100.417,125.417 L153.333,170.417 L147.083,200 L100.417,166.667 L53.75,200 L47.5,170 Z M170,46.667 L200,52.917 L166.667,100 L200,146.667 L170,153.333 L125,100 Z M30,46.667 L75,100 L30,152.917 L0,146.667 L33.333,100 L0,53.333 Z M100,87.5 C107.083,87.5 112.5,92.917 112.5,100 C112.5,104.583 110,108.75 106.25,110.833 C102.5,112.917 97.5,112.917 93.75,110.833 C90,108.75 87.5,104.583 87.5,100 C87.5,92.917 92.917,87.5 100,87.5 Z M147.083,0 L153.333,30 L100.417,75 L47.5,30 L53.75,0 L100.417,33.333 Z" fill="none" stroke="currentColor" stroke-width="1.5"/></svg>