<svg xmlns="http://www.w3.org/2000/svg" viewBox="0 0 200.0 200.0" width="24" height="24"><path d="M100,0 C44.771,0 0,44.771 0,100 C0,155.229 44.771,200 100,200 C155.229,200 200,155.229 200,100 C200,44.771 155.229,0 100,0 Z M100,2.084 C154.079,2.084 197.916,45.921 197.916,100 C197.916,154.079 154.079,197.916 100,197.916 C45.921,197.916 2.084,154.079 2.084,100 C2.084,45.921 45.921,2.084 100,2.084 Z M93.15,8.59 Z M100.838,33.381 L146.846,119.631 L64.014,137.5 L93.094,63.986 Z M96.887,65.789 L60.477,122.426 L139.584,133.334 L107.281,65.789 Z M102.084,87.18 L118.6,96.709 L118.6,115.787 L102.084,125.32 L85.566,115.787 L85.566,96.713 L102.084,87.18 Z M102.084,91.992 L91.82,97.92 L102.084,103.842 L112.348,97.918 L102.084,91.992 Z M114.438,101.523 L104.166,107.453 L104.166,119.311 L114.438,113.379 L114.438,101.523 Z M89.732,101.525 L89.732,113.379 L100,119.309 L100,107.451 L89.732,101.525 Z" fill="none" stroke="currentColor" stroke-width="1.5"/></svg>