<svg xmlns="http://www.w3.org/2000/svg" viewBox="0 0 515.775 65.0" width="24" height="24"><path d="M17.225,0 C7.8,0 0,7.8 0,17.225 L0,47.449 C0,57.199 7.8,64.676 17.225,64.676 L40.301,64.676 L34.775,56.875 L17.875,52 C14.625,51.025 12.676,48.101 12.676,45.176 L12.676,19.824 C12.676,16.574 14.625,13.975 17.875,13 L34.775,7.801 L40.301,0 L17.225,0 Z M63.699,0 L69.225,7.801 L86.125,13 C89.375,13.975 91.324,16.899 91.324,19.824 L91.324,44.85 C91.324,48.1 89.375,50.701 86.125,51.676 L69.225,56.875 L64.025,65 L87.1,65 C96.85,65 104.324,57.2 104.324,47.775 L104.324,17.225 C104.324,7.8 96.525,0 86.775,0 L63.699,0 Z M135.85,2.6 L119.926,62.4 L127.725,62.4 L131.949,46.475 L149.176,46.475 L153.4,62.074 L161.199,62.074 L145.6,2.6 L135.85,2.6 Z M165.426,2.6 L165.426,62.4 L173.225,62.4 L173.225,2.6 L165.426,2.6 Z M181.025,2.6 L181.025,10.4 L188.824,10.4 L188.824,2.6 L181.025,2.6 Z M196.625,2.6 L196.625,62.4 L204.426,62.4 L204.426,59.15 L204.75,59.475 C207.35,62.075 210.601,63.375 214.176,63.375 C221.651,63.375 227.824,57.2 227.824,49.725 L227.824,32.176 C227.824,24.701 221.651,18.525 214.176,18.525 C210.601,18.525 207.35,19.826 204.75,22.426 L204.426,22.75 L204.426,2.6 L196.625,2.6 Z M269.75,2.6 L269.75,62.4 L277.551,62.4 L277.551,59.15 L277.875,59.475 C280.475,62.075 283.726,63.375 287.301,63.375 C294.776,63.375 300.949,57.2 300.949,49.725 L300.949,32.176 C300.949,24.701 294.775,18.525 287.625,18.525 C284.05,18.525 280.799,19.826 278.199,22.426 L277.551,22.75 L277.551,2.6 L269.75,2.6 Z M375.375,2.6 C365.3,2.6 357.176,10.725 357.176,20.475 L357.176,45.5 C357.176,55.25 365.3,63.375 375.375,63.375 C385.45,63.375 393.574,55.25 393.574,45.5 L393.574,45.176 L385.775,45.176 L385.775,45.5 C385.775,51.025 381.225,55.574 375.375,55.574 C369.85,55.574 364.975,51.025 364.975,45.5 L364.975,20.475 C364.975,14.95 369.525,10.4 375.375,10.4 C380.9,10.4 385.775,14.95 385.775,20.475 L385.775,20.801 L393.574,20.801 L393.574,20.475 C393.574,10.725 385.45,2.6 375.375,2.6 Z M397.475,2.6 L397.475,62.4 L405.275,62.4 L405.275,2.6 L397.475,2.6 Z M507.975,2.6 L507.975,22.75 L507.65,22.426 C505.05,19.826 501.8,18.525 498.225,18.525 C490.75,18.525 484.574,24.701 484.574,32.176 L484.574,49.725 C484.574,57.2 490.75,63.051 498.225,63.051 C501.8,63.051 505.05,61.75 507.65,59.15 L507.975,58.824 L507.975,62.074 L515.775,62.074 L515.775,2.6 L507.975,2.6 Z M140.4,13.975 L146.9,38.676 L133.9,38.676 L140.4,13.975 Z M181.025,18.525 L181.025,62.074 L188.824,62.074 L188.824,18.525 L181.025,18.525 Z M248.625,18.525 C245.05,18.525 241.476,19.825 238.551,22.1 C235.626,24.375 234,27.624 233.025,31.199 L240.824,31.199 C241.474,27.624 244.726,25.025 248.301,25.025 C250.251,25.025 252.199,25.676 253.824,27.301 C255.124,28.601 256.1,30.55 256.1,32.5 L256.1,36.074 L245.051,36.074 C237.576,36.074 231.4,42.25 231.4,49.725 C231.4,55.9 235.625,61.425 241.475,62.725 L241.801,62.725 C242.126,62.725 242.449,62.726 242.449,63.051 L245.699,63.051 C247.649,63.051 249.274,62.725 250.574,62.4 C252.524,61.75 254.475,60.775 256.1,59.15 L256.426,58.824 L256.426,62.074 L264.225,62.074 L264.225,33.15 C264.225,32.825 264.225,32.5 263.9,31.525 C263.575,29.25 262.601,26.975 261.301,25.025 C258.376,21.125 254.15,18.85 249.6,18.525 L248.625,18.525 Z M426.4,18.525 C417.95,18.525 411.126,25.025 410.801,33.15 L410.801,48.75 C411.126,56.875 417.95,63.375 426.4,63.375 C434.85,63.375 441.675,56.875 442,48.75 L442,33.475 C441.675,25.025 434.85,18.525 426.4,18.525 Z M447.85,18.525 L447.85,49.725 C447.85,57.2 454.025,63.375 461.5,63.375 C462.8,63.375 464.1,63.05 465.4,62.725 C466.05,62.4 467.026,62.075 467.676,61.75 C468.976,61.1 469.951,60.45 470.926,59.475 L471.25,59.15 L471.25,62.4 L479.051,62.4 L479.051,18.525 L471.25,18.525 L471.25,48.426 C471.25,52.651 467.674,56.225 463.449,56.225 C459.224,56.225 455.65,52.651 455.65,48.426 L455.65,18.525 L447.85,18.525 Z M322.074,18.85 C318.499,18.85 314.925,20.151 312,22.426 C309.075,24.701 307.45,27.95 306.475,31.525 L314.275,31.525 C314.925,27.95 318.175,25.35 321.75,25.35 C323.7,25.35 325.65,26 327.275,27.625 C328.575,28.925 329.551,30.874 329.551,32.824 L329.551,36.4 L318.5,36.4 C311.025,36.4 304.85,42.576 304.85,50.051 C304.85,56.226 309.076,61.751 314.926,63.051 L315.25,63.051 C315.575,63.051 315.9,63.05 315.9,63.375 L319.15,63.375 C321.1,63.375 322.725,63.05 324.025,62.725 C325.975,62.075 327.926,61.1 329.551,59.475 L329.875,59.15 L329.875,62.4 L337.676,62.4 L337.676,33.475 C337.351,32.825 337.35,32.5 337.35,31.85 C337.025,29.575 336.05,27.3 334.75,25.35 C331.825,21.45 327.601,19.175 323.051,18.85 L322.074,18.85 Z M212.225,25.676 C216.45,25.676 220.025,29.25 220.025,33.475 L220.025,48.426 C220.025,52.651 216.45,56.225 212.225,56.225 C208,56.225 204.426,52.651 204.426,48.426 L204.426,33.475 C204.426,29.25 208,25.676 212.225,25.676 Z M285.35,25.676 C289.575,25.676 293.15,29.25 293.15,33.475 L293.15,48.426 C293.15,52.651 289.575,56.225 285.35,56.225 C281.125,56.225 277.551,52.651 277.551,48.426 L277.551,33.475 C277.551,29.25 281.125,25.676 285.35,25.676 Z M500.176,25.676 C504.401,25.676 507.975,29.25 507.975,33.475 L507.975,48.426 C507.975,52.651 504.401,56.225 500.176,56.225 C495.951,56.225 492.375,52.651 492.375,48.426 L492.375,33.475 C492.375,29.25 495.951,25.676 500.176,25.676 Z M426.4,26.65 C430.625,26.65 434.199,30.224 434.199,34.449 L434.199,47.775 C434.199,52 430.625,55.574 426.4,55.574 C422.175,55.574 418.6,52.325 418.6,47.775 L418.6,34.449 C418.6,30.224 422.175,26.65 426.4,26.65 Z M34.775,28.275 L34.775,36.074 L69.551,36.074 L69.551,28.275 L34.775,28.275 Z M247,42.25 L256.426,42.25 L256.426,47.775 L256.1,47.775 C256.1,52 253.174,55.575 248.949,56.225 C248.299,56.225 247.649,56.551 247.324,56.551 C246.024,56.551 244.726,56.224 243.426,55.574 C243.101,55.249 242.774,55.251 242.449,54.926 C242.124,54.601 241.475,54.275 241.15,53.625 C240.175,52.325 239.85,51.025 239.85,49.4 C239.85,45.5 243.1,42.25 247,42.25 Z M320.449,42.25 L329.875,42.25 L329.875,47.775 L329.551,47.775 C329.551,52 326.625,55.575 322.4,56.225 C321.75,56.225 321.1,56.551 320.775,56.551 C319.475,56.551 318.175,56.224 316.875,55.574 C316.55,55.249 316.225,55.251 315.9,54.926 C315.575,54.601 314.925,54.275 314.6,53.625 C313.625,52.325 313.301,51.025 313.301,49.4 C313.301,45.5 316.549,42.25 320.449,42.25 Z" fill="none" stroke="currentColor" stroke-width="1.5"/></svg>