<svg xmlns="http://www.w3.org/2000/svg" viewBox="0 0 512.488 114.398" width="24" height="24"><path d="M30.045,0 C13.289,0 0,13.866 0,30.621 L0,83.777 C0,100.533 13.289,113.822 30.045,113.822 L69.91,113.822 L60.09,99.955 L31.199,91.289 C25.999,89.556 22.533,84.354 22.533,79.154 L22.533,35.244 C22.533,30.044 25.999,24.843 31.199,23.109 L60.09,13.865 L69.91,0 Z M111.512,0 L121.334,13.865 L150.223,23.109 C155.423,24.843 158.889,30.044 158.889,35.244 L158.889,79.154 C158.889,84.354 155.423,89.556 150.223,91.289 L121.334,100.533 L111.512,114.398 L151.377,114.398 C168.133,114.398 181.422,101.111 181.422,84.355 L181.422,30.621 C181.422,13.866 168.133,0 151.377,0 Z M208.578,2.889 L208.578,110.932 L220.133,110.932 L220.133,15.021 L232.268,15.021 L225.334,46.799 L225.334,58.355 L232.268,58.355 L232.268,83.777 C232.268,85.511 231.11,86.666 229.377,86.666 L226.488,86.666 L226.488,98.221 L232.268,98.221 C238.623,98.221 243.822,93.022 243.822,86.666 L243.822,46.221 L236.889,46.221 L243.822,14.443 L243.822,2.889 Z M249.021,3.467 L249.021,15.021 L288.889,15.021 L288.889,89.555 C288.889,94.755 284.844,99.377 279.066,99.377 L270.4,99.377 L270.4,110.932 L282.533,110.932 C292.355,110.932 301.021,102.843 301.021,92.443 L301.021,15.021 L305.066,15.021 L305.066,3.467 Z M321.244,3.467 L321.244,63.555 L357.066,63.555 L357.066,75.109 L320.09,75.109 L320.09,86.666 L357.066,86.666 L357.066,99.377 L317.199,99.377 L317.199,110.932 L409.066,110.932 L409.066,99.377 L369.199,99.377 L369.199,86.666 L405.6,86.666 L405.6,75.109 L368.623,75.109 L368.623,63.555 L404.445,63.555 L404.445,3.467 Z M424.666,4.043 L424.666,15.6 L507.867,15.6 L507.867,4.043 Z M333.955,15.021 L358.223,15.021 L358.223,27.732 L333.955,27.732 Z M369.777,15.021 L394.045,15.021 L394.045,27.732 L369.777,27.732 Z M251.91,27.732 L251.91,88.398 L281.377,88.398 L281.377,27.732 Z M262.889,39.289 L269.244,39.289 L269.244,76.266 L262.889,76.266 Z M333.955,39.289 L358.223,39.289 L358.223,51.422 L333.955,51.422 Z M369.777,39.289 L394.045,39.289 L394.045,51.422 L369.777,51.422 Z M420.623,47.377 L420.623,58.932 L443.732,58.932 L425.244,99.377 L425.244,110.932 L503.244,110.932 C506.711,110.932 509.021,108.043 509.021,105.154 C509.021,103.999 509.023,103.422 508.445,102.844 L498.623,80.889 L485.91,80.889 L494.578,99.377 L438.533,99.377 L457.021,58.932 L512.488,58.932 L512.488,47.377 Z M60.666,49.688 L60.666,63.555 L121.334,63.555 L121.334,49.688 Z" fill="none" stroke="currentColor" stroke-width="1.5"/></svg>