<svg xmlns="http://www.w3.org/2000/svg" viewBox="0 0 178.6 129.6" width="24" height="24"><path d="M116.9,0.5 C95.2,0 74.9,10.698 63,28.898 L61.801,30.799 L59.9,29.699 C59.3,29.399 58.7,29.1 58.1,29 C55.6,28.6 53.1,28.398 50.6,28.398 C22.7,28.398 0,51.1 0,79 C0,106.9 22.7,129.6 50.6,129.6 C68.8,129.6 85.099,120.1 94.199,104.6 L77.5,104.6 C70.5,112 60.7,116.199 50.5,116.199 C30,116.199 13.199,99.498 13.199,78.898 C13.199,58.298 30,41.6 50.5,41.6 C51.5,41.6 52.6,41.599 53.6,41.799 L56.4,42.1 L55.6,44.799 C54.1,49.899 53.1,55.2 52.9,60.6 L52.9,79.699 L70.4,62.1 C70.6,50.1 75.601,38.698 84.301,30.398 C93.001,21.998 104.5,17.598 116.6,17.898 C128.6,18.098 139.999,23.099 148.199,31.799 C156.499,40.399 160.999,52.1 160.699,64.1 C160.199,88 140.601,107.599 116.801,108.199 L104.699,125.699 L116.699,125.699 C150.299,125.199 177.3,98.3 178.1,64.5 C178.6,47.9 172.4,31.798 160.9,19.898 C149.4,7.798 133.6,0.8 116.9,0.5 Z M107.787,49.375 C107.15,49.375 106.5,49.548 105.9,49.898 C104.7,50.498 104,51.8 104,53.1 L104,79.5 C104,80.8 104.7,81.999 105.9,82.699 C107.1,83.399 108.5,83.399 109.6,82.699 L132.5,69.5 C133.7,68.9 134.4,67.599 134.4,66.299 C134.4,64.999 133.7,63.8 132.5,63.1 L109.6,49.898 C109.05,49.548 108.425,49.375 107.787,49.375 Z" fill="none" stroke="currentColor" stroke-width="1.5"/></svg>