<svg xmlns="http://www.w3.org/2000/svg" viewBox="0 0 144.167 166.667" width="24" height="24"><path d="M7.917,105 L7.917,120.417 L72.083,157.5 L112.5,134.167 L116.667,141.25 L72.083,166.667 L0,125 L0,105 Z M72.083,15.833 C75.833,15.833 78.75,18.75 78.75,22.5 C78.75,25.417 76.667,27.917 73.75,28.75 L73.75,40.833 C75.833,41.25 77.5,43.333 78.333,45.417 L118.333,50.417 C119.167,47.917 121.667,46.25 124.583,46.25 C128.333,46.25 131.25,49.167 131.25,52.917 C131.25,56.667 128.333,59.583 124.583,59.583 L123.75,59.583 L108.75,96.667 C110.417,97.917 111.667,100 111.667,102.083 C111.667,102.917 111.667,103.75 111.25,104.167 L120,109.167 C121.25,107.917 122.917,107.083 125,107.083 C128.75,107.083 131.667,110 131.667,113.75 C131.667,117.5 128.75,120.417 125,120.417 C121.25,120.417 118.333,117.5 118.333,113.75 L118.333,112.083 L109.167,107.083 C108.333,107.917 106.667,108.333 105,108.333 C104.167,108.333 102.917,108.333 102.083,107.917 L77.083,140 C77.917,141.25 78.333,142.5 78.333,144.167 C78.333,147.917 75.417,150.833 71.667,150.833 C67.917,150.833 65,147.917 65,144.167 C65,142.5 65.417,141.25 66.25,140 L41.667,107.917 C40.833,108.333 40,108.333 39.167,108.333 C37.5,108.333 35.833,107.5 34.583,106.667 L25.833,111.667 C25.833,112.083 26.25,112.917 26.25,113.333 C26.25,117.083 23.333,120 19.583,120 C15.833,120 12.5,117.083 12.5,113.333 C12.5,109.583 15.417,106.667 19.167,106.667 C20.833,106.667 22.917,107.5 23.75,108.75 L32.5,103.75 C32.5,102.917 32.083,102.5 32.083,101.667 C32.083,99.583 32.917,97.5 34.583,96.25 L19.583,59.167 L19.167,59.167 C15.417,59.167 12.5,56.25 12.5,52.5 C12.5,48.75 15.417,45.833 19.167,45.833 C22.083,45.833 24.167,47.5 25.417,50 L65.417,45 C66.25,42.917 67.917,40.833 70.417,40.417 L70.417,28.333 C67.5,27.5 65.417,25 65.417,22.083 C65.417,18.75 68.333,15.833 72.083,15.833 Z M72.083,140 C70,140 67.917,141.667 67.917,144.167 C67.917,146.25 69.583,148.333 72.083,148.333 C74.583,148.333 76.25,146.667 76.25,144.167 C75.833,141.667 74.167,140 72.083,140 Z M98.75,104.167 L45,104.167 C44.583,105 44.583,105.417 43.75,105.833 L69.167,137.5 C70,137.083 70.833,137.083 71.667,137.083 C72.5,137.083 73.333,137.083 74.167,137.5 L99.167,105.417 C99.583,105.417 99.167,104.583 98.75,104.167 Z M102.917,17.917 L144.167,41.667 L144.167,125 L129.167,133.75 L125,126.667 L135.833,120.417 L135.833,46.25 L98.333,24.583 Z M19.167,109.583 C17.083,109.583 15,111.25 15,113.75 C15,116.25 16.667,117.917 19.167,117.917 C21.667,117.917 23.333,116.25 23.333,113.75 C23.333,111.25 21.25,109.583 19.167,109.583 Z M125,109.583 C122.917,109.583 120.833,111.25 120.833,113.75 C120.833,116.25 122.5,117.917 125,117.917 C127.083,117.917 129.167,116.25 129.167,113.75 C129.167,111.25 127.083,109.583 125,109.583 Z M105,97.917 C102.917,97.917 100.833,99.583 100.833,102.083 C100.833,104.583 102.5,106.25 105,106.25 C107.083,106.25 109.167,104.583 109.167,102.083 C109.167,99.583 107.5,97.917 105,97.917 Z M39.167,97.917 C37.083,97.917 35,99.583 35,102.083 C35,104.583 36.667,106.25 39.167,106.25 C41.25,106.25 43.333,104.583 43.333,102.083 C43.333,99.583 41.25,97.917 39.167,97.917 Z M72.083,53.75 C71.25,53.75 70.417,53.75 70,53.333 L44.167,97.083 C45,97.917 45.417,99.167 45.833,100.417 L98.75,100.417 C98.75,99.167 99.583,97.917 100.417,97.083 L74.583,52.917 C73.75,53.75 72.917,53.75 72.083,53.75 Z M65.417,48.75 L25.833,53.75 C25.417,55.833 24.583,57.5 22.917,58.333 L37.917,95.417 L38.75,95.417 C39.583,95.417 40.417,95.417 40.833,95.833 L66.667,52.083 C66.25,50.833 65.833,50 65.417,48.75 Z M77.083,51.667 L102.917,95.833 C103.75,95.417 104.167,95.417 105,95.417 L105.833,95.417 L120.833,58.333 C119.583,57.083 118.333,55.833 118.333,53.75 L78.75,48.75 C78.333,49.583 77.917,50.833 77.083,51.667 Z M72.083,0 L90,10.417 L85.833,17.5 L72.083,9.583 L7.917,46.25 L7.917,90 L0,90 L0,41.667 Z M124.583,48.75 C122.5,48.75 120.417,50.417 120.417,52.917 C120.417,55.417 122.083,57.083 124.583,57.083 C127.083,57.083 128.75,55.417 128.75,52.917 C128.75,50.417 126.667,48.75 124.583,48.75 Z M19.583,48.75 C17.5,48.75 15.417,50.417 15.417,52.917 C15.417,55.417 17.083,57.083 19.583,57.083 C21.667,57.083 23.75,55.417 23.75,52.917 C23.75,50.417 21.667,48.75 19.583,48.75 Z M72.083,43.333 C70,43.333 67.917,45 67.917,47.5 C67.917,49.583 69.583,51.667 72.083,51.667 C74.583,51.667 76.25,50 76.25,47.5 C75.833,45 74.167,43.333 72.083,43.333 Z M72.083,18.333 C70,18.333 67.917,20 67.917,22.5 C67.917,25 69.583,26.667 72.083,26.667 C74.583,26.667 76.25,25 76.25,22.5 C76.25,20 74.167,18.333 72.083,18.333 Z" fill="none" stroke="currentColor" stroke-width="1.5"/></svg>