<svg xmlns="http://www.w3.org/2000/svg" viewBox="0 0 144.0 139.016" width="24" height="24"><path d="M96.752,0.018 C94.225,0 91.878,0.276 89.73,0.844 L88.1,1.279 L81.229,3.129 L63.619,7.898 L46.543,12.533 L0,25.188 L0,120.887 L68.275,139.016 L144,118.715 L144,96 L99.561,83.982 L121.736,78.059 L122.16,77.951 C136.054,74.374 144,62.768 144,45.637 C144,28.334 134.077,10.309 110.76,2.582 C105.669,0.895 100.963,0.047 96.752,0.018 Z M97.121,11.391 C99.956,11.468 103.345,12.104 107.184,13.375 C123.963,18.936 132.627,31.197 132.627,45.637 C132.627,57.917 127.839,64.868 119.043,67.012 L118.922,67.041 L93.936,73.715 L93.936,94.24 L132.627,104.703 L132.627,109.992 L68.262,127.248 L11.373,112.143 L11.373,33.877 L55.822,21.795 L80.701,15.049 L89.68,12.627 L92.641,11.838 C93.919,11.499 95.42,11.344 97.121,11.391 Z M68.041,34.91 L68.041,101.119 L86.182,105.904 L86.182,39.738 Z M63.488,61.217 L45.348,66.084 L45.348,107.244 L63.488,102.375 Z M22.707,78.766 L22.707,103.742 L40.85,108.547 L40.85,83.565 Z" fill="none" stroke="currentColor" stroke-width="1.5"/></svg>