<svg xmlns="http://www.w3.org/2000/svg" viewBox="0 0 144.2 158.4" width="24" height="24"><path d="M41.7,101.3 L47.1,98.4 L67.9,110.1 L67.9,81.3 L63.7,79.2 L42.9,67.1 L42.9,90.8 L38.3,93.3 L20.8,83.3 L0,95 L0,119.2 L20.8,130.9 L41.7,119.2 Z M105.4,93.4 L101.2,90.9 L101.2,67.1 L76.2,81.3 L76.2,110.1 L97,98.4 L102.4,101.3 L102.4,119.2 L123.2,130.9 L144,119.2 L144,95 L123.2,83.3 Z M105.4,18.4 L105.4,37.6 L127.5,49.7 L127.5,71.4 L129.6,72.6 L144.2,80.9 L144.2,39.6 Z M92.9,128 L72.1,139.2 L51.3,128 L48,130.1 L34.3,137.6 L72.2,158.4 L110.1,137.6 L96.3,130.1 Z M16.7,71.3 L16.7,49.6 L38.8,37.5 L38.8,18.4 L0,39.6 L0,80.8 L14.6,72.5 Z M47.1,60 L72.1,74.2 L76.3,71.7 L97.1,60 L76.3,48.3 L76.3,45.4 L93,35.8 L93,12.1 L72.1,0 L51.3,12.1 L51.3,35.8 L68,45.4 L68,48.3 Z" fill="none" stroke="currentColor" stroke-width="1.5"/></svg>