<svg xmlns="http://www.w3.org/2000/svg" viewBox="0 0 144.0 139.017" width="24" height="24"><path d="M96.754,0.017 C94.227,0 91.879,0.277 89.732,0.846 L88.102,1.279 L81.23,3.129 L63.619,7.898 L46.545,12.535 L0,25.187 L0,120.887 L68.275,139.017 L144,118.715 L144,96.002 L99.562,83.984 L121.738,78.057 L122.16,77.953 C136.056,74.374 144,62.769 144,45.639 C144,28.334 134.078,10.31 110.762,2.584 C105.67,0.896 100.965,0.047 96.754,0.017 Z M97.121,11.392 C99.956,11.47 103.345,12.103 107.184,13.375 C123.962,18.935 132.627,31.198 132.627,45.639 C132.627,57.917 127.839,64.868 119.043,67.012 L118.922,67.041 L118.922,67.043 L93.936,73.715 L93.936,94.24 L132.627,104.703 L132.627,109.994 L68.262,127.248 L11.373,112.144 L11.373,33.877 L55.822,21.795 L80.701,15.051 L89.68,12.627 L92.641,11.838 C93.919,11.5 95.42,11.346 97.121,11.392 Z M51.936,45.103 C41.632,45.103 32.713,51.46 28.365,60.723 C34.349,63.169 43.697,67.677 50.467,74.154 C55.353,67.271 61.744,59.949 70.078,52.889 C65.452,48.176 59.248,45.238 52.402,45.107 Z M77.855,52.457 C61.507,64.912 51.958,78.841 46.51,89.549 C53.73,81.727 65.229,72.203 82.877,64.297 C83.015,64.237 83.155,64.192 83.295,64.158 C83.169,63.671 83.056,63.176 82.912,62.695 L82.701,62.019 L82.668,62.039 Z M21.174,62.902 L19.641,73.512 L19.645,74.082 C19.835,86.864 26.348,97.97 35.936,103.924 C37.128,99.441 40.353,89.568 47.869,77.969 C38.201,68.322 21.354,62.96 21.182,62.906 L21.182,62.908 C21.18,62.905 21.176,62.904 21.174,62.902 Z M84.162,68.707 C56.76,81.138 44.935,97.822 41.293,104.031 L78.32,94.084 C82.098,88.473 84.368,81.609 84.48,74.178 L84.484,73.601 L84.484,73.488 C84.484,71.865 84.36,70.272 84.162,68.707 Z" fill="none" stroke="currentColor" stroke-width="1.5"/></svg>