<svg xmlns="http://www.w3.org/2000/svg" viewBox="0 0 166.668 121.217" width="24" height="24"><path d="M82.955,0 C60.984,0 42.804,16.667 40.529,37.875 L38.26,37.875 C17.426,37.875 0,54.924 0,75.758 C0,90.529 8.334,103.029 20.834,109.467 L20.834,105.301 L27.65,84.471 C27.65,73.104 36.743,64.012 48.484,64.012 L54.926,64.012 C53.788,61.741 53.408,59.47 53.408,57.195 L53.408,39.771 C53.408,31.063 60.605,23.863 69.701,23.863 L96.971,23.863 C106.062,23.863 113.26,31.063 113.26,39.771 L113.26,57.195 C113.26,59.47 112.88,62.122 111.742,64.018 L118.184,64.018 C129.546,64.018 139.018,73.104 139.018,84.471 L139.018,92.045 C143.184,95.074 145.834,99.621 145.834,105.305 L145.834,107.195 C158.334,99.62 166.668,85.988 166.668,70.455 C166.668,46.593 146.972,27.271 122.73,27.271 C117.043,11.363 101.518,0 82.955,0 Z M69.691,34.854 C67.041,34.854 64.768,37.125 64.768,39.775 L64.768,57.199 C64.768,59.853 67.041,62.125 69.691,62.125 L78.783,62.125 L78.783,73.488 L48.48,73.488 C43.18,73.488 39.014,77.655 39.014,82.58 L39.014,98.488 L37.117,98.488 C34.467,98.488 32.191,100.762 32.191,103.412 L32.191,116.291 C32.191,118.941 34.467,121.217 37.117,121.217 L50.375,121.217 C53.025,121.217 55.301,118.941 55.301,116.291 L55.301,103.416 C55.301,100.762 53.025,98.488 50.375,98.488 L48.48,98.488 L48.48,82.58 L78.783,82.58 L78.783,98.488 L76.893,98.488 C74.238,98.488 71.967,100.762 71.967,103.412 L71.967,116.291 C71.967,118.941 74.238,121.217 76.893,121.217 L90.146,121.217 C92.801,121.217 95.072,118.941 95.072,116.291 L95.072,103.416 C95.072,100.762 92.801,98.488 90.146,98.488 L88.254,98.488 L88.254,82.58 L118.559,82.58 L118.559,98.488 L116.668,98.488 C114.018,98.488 111.742,100.762 111.742,103.412 L111.742,116.291 C111.742,118.941 114.018,121.217 116.668,121.217 L129.926,121.217 C132.576,121.217 134.852,118.941 134.852,116.291 L134.852,103.416 C134.472,100.762 132.197,98.488 129.547,98.488 L129.543,98.482 L127.65,98.482 L127.65,82.574 C127.65,77.649 123.484,73.482 118.184,73.482 L87.875,73.482 L87.875,62.125 L96.967,62.125 C99.617,62.125 101.893,59.853 101.893,57.199 L101.893,39.775 C101.893,37.125 99.617,34.854 96.967,34.854 Z" fill="none" stroke="currentColor" stroke-width="1.5"/></svg>