<svg xmlns="http://www.w3.org/2000/svg" viewBox="0 0 145.7 164.9" width="24" height="24"><path d="M73.1,0.1 L72.5,0 L72.5,0.1 L0,19.3 L4.2,96 C4.2,96.5 4.2,106.2 7.3,112 C22.9,141.3 59.8,159.1 71.7,164.4 C71.7,164.4 72.1,164.6 72.4,164.7 L72.4,164.9 C72.5,164.9 72.6,164.8 72.7,164.8 C72.8,164.8 73,164.9 73,164.9 L73,164.7 C73.3,164.6 73.5,164.4 73.6,164.4 C85.4,159.1 122.4,141.3 138,112 C141.1,106.2 141.4,96.5 141.4,96 L145.7,19.3 Z M29.8,120.1 L29.8,30.8 L112.9,30.8 L112.9,71.1 C110.3,69.6 107.5,68.5 104.6,67.8 L104.6,38.6 L37.6,38.6 L37.6,111.8 L71.3,111.8 C73,115 75.3,117.8 78.1,120.1 Z M67.6,98.8 L49,98.8 L49,91 L68.2,91 C67.8,93 67.6,95.1 67.6,97.2 C67.5,97.8 67.5,98.3 67.6,98.8 Z M49,77.5 L49,69.7 L85.2,69.7 C81.2,71.5 77.7,74.2 74.9,77.5 Z M49,56.2 L49,48.4 L95.2,48.4 L95.2,56.2 Z M98,123.8 C83.5,123.8 71.7,112 71.7,97.5 C71.7,83 83.5,71.2 98,71.2 C112.5,71.2 124.3,83 124.3,97.5 C124.3,112 112.5,123.8 98,123.8 Z M98,78.2 C87.4,78.2 78.8,86.8 78.8,97.4 C78.8,108 87.4,116.6 98,116.6 C108.6,116.6 117.2,108 117.2,97.4 C117.2,86.8 108.6,78.2 98,78.2 Z M107,107.8 L103.2,106.2 L101.6,110 L98.1,101.7 L94.7,110 L93.1,106.2 L89.3,107.8 L92.5,100.1 L88.2,93 L93.2,84.7 L103.2,84.7 L108.2,93 L103.8,100.3 Z" fill="none" stroke="currentColor" stroke-width="1.5"/></svg>