<svg xmlns="http://www.w3.org/2000/svg" viewBox="0 0 145.9 156.4" width="24" height="24"><path d="M55.9,16.7 C55.9,25.9 63.4,33.4 72.6,33.4 C81.8,33.4 89.3,25.9 89.3,16.7 C89.3,7.5 81.8,0 72.6,0 C63.4,0 55.9,7.5 55.9,16.7 Z M129.2,92.2 C120,92.2 112.5,99.7 112.5,108.9 C112.5,118.1 120,125.6 129.2,125.6 C138.4,125.6 145.9,118.1 145.9,108.9 C145.9,99.7 138.4,92.2 129.2,92.2 Z M33.4,108.8 C33.4,99.6 25.9,92.1 16.7,92.1 C7.5,92.1 0,99.6 0,108.8 C0,118 7.5,125.5 16.7,125.5 C25.9,125.5 33.4,118 33.4,108.8 Z M8,63.4 C5.5,72.6 5.5,81.7 6.8,90.9 C8.9,89.6 11.4,88.8 13.9,88.4 C13.5,85.5 13.5,82.6 13.5,79.7 C13.5,74.7 13.9,70.1 15.2,65.1 C12.6,65.1 10.5,64.7 8,63.4 Z M114.7,27.2 C108,22.2 100.5,18 92.6,15.5 L92.6,16.7 C92.6,18.8 92.2,20.9 91.8,22.9 C98,25 103.9,27.9 109.3,31.6 C110.5,30.1 112.2,28.4 114.7,27.2 Z M52.6,16.3 C43.8,19.2 35.5,23.8 28.8,30 C30.9,31.2 32.6,33.3 33.8,35.4 C39.6,30.4 46.3,26.2 53.8,23.7 C53,21.6 52.6,19.5 52.6,17 Z M53,135.9 C44.7,133 37.2,128.4 31.3,122.1 C29.6,123.8 27.5,125.4 25.1,126.7 C33,134.6 42.6,140.9 53.4,144.2 C53,143 52.6,137.2 53,135.9 Z M139.2,91.7 C140,87.9 140,84.2 140,80 C140,73.3 139.2,66.7 137.1,60 C135,61.7 132.9,62.9 130.4,63.8 C131.7,69.2 132.5,74.6 132.5,80 C132.5,82.9 132.1,86.2 131.7,89.2 C134.7,89.7 137.2,90.5 139.2,91.7 Z M92.2,136.3 C92.2,137.5 92.6,142.5 92.2,144.2 C103,140.9 113,135 121,126.7 C118.9,125.5 116.8,124.2 114.8,122.1 C108.4,128.8 100.5,133.4 92.2,136.3 Z M16.8,61.7 C26,61.7 33.5,54.2 33.5,45 C33.5,35.8 25.9,28.4 16.8,28.4 C7.7,28.4 0.1,35.9 0.1,45.1 C0.1,54.3 7.6,61.7 16.8,61.7 Z M16.8,33.8 C22.6,34.2 27.6,38.8 27.6,44.6 C27.6,50.8 22.6,55.4 16.8,55.4 C10.6,55.4 6,50.4 6,44.6 C6,38.8 10.9,33.8 16.8,33.8 Z M72.6,123 C63.4,123 55.9,130.5 55.9,139.7 C55.9,148.9 63.4,156.4 72.6,156.4 C81.8,156.4 89.3,148.9 89.3,139.7 C89.3,130.5 81.8,123 72.6,123 Z M72.6,150.9 C66.4,150.9 61.8,145.9 61.8,140.1 C61.8,133.9 66.8,129.3 72.6,129.3 C78.9,129.3 83.4,134.3 83.4,140.1 C83.4,145.9 78.4,150.9 72.6,150.9 Z M107.6,45.1 C107.6,54.3 115.1,61.8 124.3,61.8 C133.5,61.8 141,54.3 141,45.1 C141,35.9 133.4,28.4 124.2,28.4 C115.1,28.4 107.6,35.9 107.6,45.1 Z M124.2,33.8 C130,34.2 135,38.8 135,44.6 C135,50.8 130,55.4 124.2,55.4 C118,55.4 113.4,50.4 113.4,44.6 C113.4,38.8 118,33.8 124.2,33.8 Z" fill="none" stroke="currentColor" stroke-width="1.5"/></svg>