<svg xmlns="http://www.w3.org/2000/svg" viewBox="0 0 179.199 174.1" width="24" height="24"><path d="M87,0 C63.6,0 41.999,9.2 25.299,25.4 C8.599,41.6 0,63.2 0,86.6 C0,98.7 2.499,109.901 6.699,120.801 C10.899,130.801 17.1,140.399 25.5,148.699 C42.2,165.399 63.799,174.1 87.199,174.1 C97.999,174.1 108.9,172.001 118.9,168.301 L122.199,167.1 L117.6,155 L114.699,155.801 C105.899,159.101 96.4,160.801 87.6,160.801 C46.8,160.801 13.799,127.9 13.799,87 C13.799,46.1 46.7,12.801 87.6,12.801 C128.4,12.801 161.299,45.7 161.299,86.6 C161.299,89.9 160.9,93.3 160.5,96.6 C151.3,97.4 143.799,104.9 143.799,114.1 C143.799,124.1 151.699,131.6 161.299,131.6 C171.299,131.6 178.799,123.7 178.799,114.1 C179.199,109.5 176.7,104.099 172.9,101.199 C173.7,96.599 174.1,91.6 174.1,87 C174.1,63.7 164.899,42.001 148.699,25.801 C131.999,9.101 110.4,0 87,0 Z M87.1,36.199 C83.8,36.599 81.299,39.1 81.299,42 L81.299,126.6 C81.299,129.9 83.8,132.4 87.1,132.4 C90.4,132.4 92.9,129.9 92.9,126.6 L92.9,42 C92.9,38.7 90.4,36.199 87.1,36.199 Z M67.1,52 C63.8,52 61.299,54.501 61.299,57.801 L61.299,111.6 C61.299,114.9 63.8,117.4 67.1,117.4 C70.4,117.4 72.9,114.9 72.9,111.6 L72.9,57.801 C72.9,54.501 70.4,52 67.1,52 Z M106.699,52 C103.799,52 100.799,54.501 100.799,57.801 L100.799,111.6 C100.799,114.9 103.3,117.4 106.6,117.4 C108.3,117.4 109.899,116.599 110.799,115.699 C111.699,114.799 112.5,113.2 112.5,111.5 L112.5,57.801 C112.5,54.501 109.999,52 106.699,52 Z M47.199,67.4 C43.799,67.4 41.299,69.899 41.299,73.199 L41.299,95.699 C41.299,98.999 43.8,101.5 47.1,101.5 C48.8,101.5 49.999,100.701 51.299,99.801 C52.099,99.001 53,97.3 53,95.6 L53,73.199 C53,69.899 50.499,67.4 47.199,67.4 Z M127.1,67.4 C123.8,67.4 121.299,69.899 121.299,73.199 L121.299,95.699 C121.299,98.999 123.8,101.5 127.1,101.5 C128.8,101.5 129.999,100.701 131.299,99.801 C132.599,99.001 133,97.3 133,95.6 L133,73.199 C132.9,69.899 130,67.4 127.1,67.4 Z" fill="none" stroke="currentColor" stroke-width="1.5"/></svg>