<svg xmlns="http://www.w3.org/2000/svg" viewBox="0 0 187.183 152.558" width="24" height="24"><path d="M184.508,48.104 C182.996,44.146 178.192,39.433 155.354,42.996 C139.071,13.258 104.054,0 72.729,11.708 C41.396,23.417 23.033,56.633 29.387,90.083 C0,107.625 2.792,115.425 3.763,118.042 C4.729,120.654 7.638,124.417 18.883,124.417 L43.542,121.129 C61.717,143.921 91.971,152.558 119.083,142.696 C146.196,132.833 164.292,106.608 164.271,77.212 C164.271,75.746 164.271,74.321 164.038,72.896 C177.688,64.262 187.183,55.233 184.508,48.104 Z M58.154,34.8 C33.854,87.629 36.937,54.621 58.154,34.8 Z M10.971,115.383 C10.971,113.921 14.846,108.175 31.25,98.121 C22.604,117.325 12.754,117.288 10.971,115.388 Z M84.637,133.6 C86.383,132.767 88.167,131.821 90.025,130.713 C83.433,127.983 79.704,129.713 75.8,130.908 C82.983,114.392 86.2,117.596 89.637,120.538 C89.437,121.283 89.333,122.054 89.329,122.829 C89.35,123.288 89.417,123.733 89.521,124.175 L89.521,124.692 C89.654,125.121 89.808,125.546 89.987,125.958 C90.133,126.275 90.3,126.583 90.487,126.871 L91.071,127.621 C91.267,127.621 91.383,128.096 91.575,128.296 L92.583,129.088 C93.875,130.038 95.454,130.504 97.042,130.396 C98.529,130.367 99.975,129.883 101.192,129.008 C103.704,130.542 106.292,131.946 108.946,133.204 C104.796,134.246 100.542,134.788 96.267,134.829 C92.358,134.829 88.462,134.421 84.637,133.6 Z M117.788,130.433 L100.142,115.663 L98.321,115.029 L97.779,115.029 L96.617,115.029 C102.392,103.029 109.413,100.3 118.95,96.138 C110.729,91.188 104.875,93.579 98.671,95.979 C90.825,11.758 125.354,18.529 142.796,44.383 C143.296,50.958 140.042,64.183 132.671,78.042 L131.163,77.767 L129.108,77.767 C128.492,77.796 127.883,77.892 127.283,78.042 L126.588,78.321 L125.579,78.675 L124.688,79.229 L124.104,79.588 L123.138,80.421 L121.933,82.042 C121.654,82.492 121.392,82.954 121.158,83.429 C120.938,83.942 120.754,84.471 120.617,85.013 C120.304,87.163 120.304,87.575 120.346,87.983 C120.375,88.596 120.467,89.208 120.617,89.804 C120.717,90.138 120.833,90.471 120.967,90.796 L120.967,91.388 L121.663,92.654 C121.829,92.95 122.025,93.229 122.246,93.488 C121.779,94.042 121.392,94.638 120.925,95.192 C104.705,114.929 106.001,116.625 106.738,118.596 L127.363,96.971 C127.788,96.971 128.176,97.208 128.563,97.25 C129.196,97.308 129.834,97.308 130.463,97.25 L132.751,96.933 C133.226,96.783 133.692,96.613 134.146,96.417 L134.613,96.1 C135.001,95.888 135.376,95.65 135.738,95.392 C136.001,95.171 136.246,94.933 136.476,94.675 C136.667,94.475 136.901,94.317 137.092,94.079 C137.288,93.842 137.442,93.604 137.634,93.371 C137.83,93.129 138.026,92.854 138.176,92.538 C138.396,92.138 138.592,91.729 138.759,91.308 L139.263,88.971 L139.263,86.913 L139.263,86.717 L137.134,81.488 C151.33,102.204 137.901,121.85 117.826,130.475 L117.784,130.433 Z M163.029,64.142 C171.946,48.737 176.679,50.087 177.375,50.758 C177.221,52.975 172.454,57.808 163.029,64.142 Z" fill="none" stroke="currentColor" stroke-width="1.5"/></svg>