<svg xmlns="http://www.w3.org/2000/svg" viewBox="0 0 167.551 152.388" width="24" height="24"><path d="M153.446,84.433 L154.088,84.45 L131.788,152.388 L55.796,152.388 L64.875,136.788 L122.95,136.788 L142.067,103.713 Z M115.392,0 L106.35,15.6 L53,15.6 L18.042,76.192 L50.479,132.388 L41.437,147.987 L0,76.196 L44,0 Z M87.792,36.196 C106.312,36.196 120.833,43.558 121.35,51.238 L121.433,49.875 L121.433,96.192 C121.433,104.192 106.629,110.271 87.833,110.271 C69.033,110.271 54.275,104.188 54.275,96.192 L54.275,51.154 C54.833,43.475 69.275,36.196 87.792,36.196 Z M112.029,84.912 C79.346,90.971 70.95,89.012 63.554,84.912 L63.554,93.512 C63.554,97.871 73.275,102.15 87.792,102.15 C102.271,102.15 112.029,97.871 112.029,93.512 Z M112.229,64.196 L63.433,73.592 C63.433,77.954 73.233,82.275 87.791,82.275 C102.35,82.275 112.15,77.954 112.15,73.592 L112.15,72.954 Z M132.146,0.2 L156.425,42.558 L123.146,15.796 Z M87.792,43.875 C73.554,43.875 63.917,48.038 63.554,52.275 C63.796,56.675 73.554,60.675 87.792,60.675 C102.033,60.675 111.667,56.554 112.029,52.275 C111.792,47.875 102.029,43.875 87.792,43.875 Z" fill="none" stroke="currentColor" stroke-width="1.5"/></svg>