<svg xmlns="http://www.w3.org/2000/svg" viewBox="0 0 183.333 114.167" width="24" height="24"><path d="M83.75,77.083 C74.583,86.25 65.833,90.417 57.083,90.417 C35.833,90.417 21.667,75.833 21.667,55 C21.667,35.417 36.667,22.083 57.083,22.083 C79.167,22.083 95.417,38.333 97.917,69.583 L97.917,70.833 C99.583,94.583 113.333,110 132.5,112.083 C149.583,114.167 167.083,104.583 172.5,88.333 C183.333,57.083 155,29.167 122.917,40.417 L130,60.833 C145,55.417 156.667,67.083 151.667,80.833 C149.583,86.667 142.5,90.417 135,89.583 C126.667,88.75 121.25,82.5 120,69.583 L120,68.75 C117.5,25.833 91.667,0 57.5,0 C25,0 0,22.5 0,54.583 C0,87.5 24.167,112.083 57.5,112.083 C72.5,112.083 86.667,105.417 99.583,92.5 Z" fill="none" stroke="currentColor" stroke-width="1.5"/></svg>