<svg xmlns="http://www.w3.org/2000/svg" viewBox="0 0 177.9 183.301" width="24" height="24"><path d="M86.6,0 C64.1,0 42.799,8.3 26.199,22.9 C21.599,27.1 17.399,31.7 13.699,36.6 C7.499,36.6 2.5,42.001 2.5,48.301 C2.5,54.601 7.499,60 14.199,60 C20.899,60 25.9,55.001 25.9,48.301 C25.9,46.601 25.499,45.001 24.699,43.301 C27.599,39.501 31.4,35.8 35.1,32.5 C49.7,19.6 67.999,12.9 87.199,12.9 C130.499,12.9 165.9,48.299 165.9,91.699 C165.9,134.999 130.499,170.4 87.199,170.4 C64.699,170.4 43,160.799 28,143.699 L23,137.5 C23.4,136.7 23.4,135.4 23.4,134.6 C23.4,128.4 18.399,122.9 11.699,122.9 C4.999,122.9 0,127.9 0,134.6 C0,141.3 4.999,146.301 11.699,146.301 L13.4,146.301 L18.4,152.5 C35.9,172.1 60.499,183.301 86.699,183.301 C137.099,183.301 177.9,142.5 177.9,92.1 C177.8,40.8 137,0 86.6,0 Z M86.6,28.699 C52,28.699 24.1,56.599 24.1,91.199 C24.1,125.799 52,153.699 86.6,153.699 C121.2,153.699 149.1,125.799 149.1,91.199 C149.1,56.599 121.2,28.699 86.6,28.699 Z M86.6,41.6 C92,49.1 95.799,57.399 98.699,66.199 L74.9,66.199 C77.4,57.399 81.2,49.1 86.6,41.6 Z M70.4,44.1 C66.6,51.2 63.7,58.699 61.6,66.199 L43.301,66.199 C49.501,55.799 59.1,47.9 70.4,44.1 Z M102.801,44.1 C114.101,47.9 123.7,55.799 129.9,66.199 L111.6,66.199 C109.5,58.299 106.601,50.8 102.801,44.1 Z M38.301,78.699 L59.6,78.699 C59.2,82.899 58.801,86.999 58.801,91.199 C58.801,95.399 59.2,99.499 59.6,103.699 L38.301,103.699 C37.001,99.499 36.6,95.399 36.6,91.199 C36.6,86.999 37.001,82.899 38.301,78.699 Z M72,78.699 L101.199,78.699 C101.599,82.899 102,86.999 102,91.199 C102,95.399 101.599,99.499 101.199,103.699 L72,103.699 C71.6,99.499 71.199,95.399 71.199,91.199 C71.199,86.999 71.2,82.899 72,78.699 Z M113.699,78.699 L134.9,78.699 C135.7,82.899 136.6,86.999 136.6,91.199 C136.6,95.399 136.2,99.499 134.9,103.699 L113.699,103.699 C114.099,99.499 114.5,95.399 114.5,91.199 C114.5,86.999 114.099,82.899 113.699,78.699 Z M43.301,116.199 L61.6,116.199 C63.7,124.099 66.6,131.601 70.4,138.301 C59.1,134.501 49.501,126.599 43.301,116.199 Z M74.5,116.199 L98.199,116.199 C95.799,124.999 91.6,133.301 86.6,140.801 C81.6,133.301 77.4,124.999 74.5,116.199 Z M111.6,116.199 L129.9,116.199 C123.7,126.599 114.101,134.501 102.801,138.301 C106.601,131.201 109.5,123.699 111.6,116.199 Z" fill="none" stroke="currentColor" stroke-width="1.5"/></svg>