<svg xmlns="http://www.w3.org/2000/svg" viewBox="0 0 200.0 181.6" width="24" height="24"><path d="M200,90.8 C200,75.8 187.9,62 166.2,52.5 C168.3,29.2 162.4,11.7 150,4.2 C145.4,1.7 140.8,0 135,0 C124.2,0.4 112.1,5.4 100,14.2 C87.5,5 75.4,0.4 65,0.4 C59.6,0.4 54.6,1.6 50,4.1 C37.5,11.6 31.7,28.7 33.8,52.4 C12.1,62 0,75.8 0,90.8 C0,105.8 12.1,119.6 33.8,129.1 C31.7,152.4 37.6,169.9 50,177.4 C54.6,179.9 59.2,181.6 65,181.6 C75.4,181.6 87.5,177 100,167.8 C112.5,177 124.6,181.6 135,181.6 C140.4,181.6 145.4,180.4 150,177.8 C162.5,170.3 168.3,152.8 166.2,129.5 C187.9,119.5 200,105.8 200,90.8 Z M187.9,90.8 C187.9,99.6 179.6,108.7 165,116.2 L164.6,116.2 C162.9,107.9 160,99.1 156.7,90.4 C160,82.1 162.9,73.3 164.6,64.6 L165,64.6 C179.6,72.5 187.9,82 187.9,90.8 Z M108.3,107 C111.2,104.9 113.7,101.2 115,96.6 C116.7,95.3 117.9,93.7 117.9,91.6 L117.9,87 C117.9,85.3 117.5,83.7 116.2,82.8 C115.8,77.8 113.7,65.7 100,65.7 C86.3,65.7 84.2,77.5 83.8,82.5 C82.6,83.3 82.1,85 82.1,86.7 L82.1,91.3 C82.1,93.4 82.9,95.9 85,97.1 C86.2,101.3 88.8,105 91.7,107.5 L91.7,108.3 C91.7,108.7 91.7,109.6 91.3,110 C85.5,111.3 76.7,115 71.7,120 C69.6,117.1 67.9,114.2 65.9,110.8 C62.1,104.1 58.8,97.9 56.3,91.6 C59.2,84.9 62.1,78.7 65.9,72 C68.8,67 72.1,62 75.5,57 L77.6,53.7 C84.7,52.9 91.8,52.5 98.9,52.5 C106.4,52.5 113.9,52.9 120.1,53.7 C124.3,58.7 128,64.5 132.2,72 C136,78.7 139.3,84.9 141.8,91.2 C138.9,97.9 136,104.1 132.2,110.4 L131.8,110.8 C131.4,113.3 129.7,115.8 127.6,119.1 C122.6,114.5 113.8,110.8 108,109.1 C108,108.7 107.6,108.3 107.6,107.4 L107.6,107 Z M147.9,72 C146.7,69.5 145.4,67.4 144.1,64.9 C142.4,62 140.8,59.1 138.7,56.2 C143.7,57.4 148.3,58.7 152.5,60 C151.7,65 150.4,70 149.2,74.6 C148.8,74.1 148.3,73.3 147.9,72 Z M61.3,56.2 C59.2,59.1 57.5,62.4 55.9,65.4 C54.7,67.5 53.4,70 52.1,72.5 L50.9,75 C49.7,70.4 48.4,65.4 47.6,60.4 C52.1,58.7 56.7,57 61.3,56.2 Z M52.1,109.1 C53.3,111.6 54.6,113.7 55.9,116.2 C57.6,119.1 59.2,122 61.3,125 C56.3,123.8 51.7,122.5 47.5,121.2 C48.3,116.2 49.6,111.2 50.8,106.6 Z M138.8,125.4 L141.3,121.6 C142.1,119.9 143.4,118.3 144.6,116.6 C145.9,114.5 147.1,112 148.4,109.5 C148.8,108.7 149.2,107.8 149.7,106.6 C151.4,111.6 152.6,116.2 153,121.2 C147.9,122.9 143.3,124.6 138.8,125.4 Z M154.2,47.9 C147.1,45.4 138.8,43.7 128,42.1 C122.2,35 115.9,28.3 109.7,22.5 C118.5,16.3 127.2,12.9 135.1,12.9 C138.4,12.9 141.3,13.7 143.9,15 C151.7,19.6 155.4,31.2 154.2,47.9 Z M107.9,40 C105.4,40 102.9,39.6 100,39.6 C97.1,39.6 94.6,39.6 92.1,40 L89.6,40 L100,29.6 C103.8,32.9 107.1,36.3 110.4,40 Z M72.1,41.6 C62.9,42.8 54.2,44.9 45.9,47.8 L45.9,47.4 C44.7,31.2 48.4,19.1 56.3,14.5 C58.8,13.3 61.7,12.4 65.1,12.4 C72.2,12.4 80.9,15.7 90.5,22 C83.8,27.9 77.9,34.1 72.1,41.6 Z M45.8,133.7 C52.9,136.2 61.2,137.9 72,139.5 C77.8,146.6 84.1,153.3 90.3,159.1 C81.5,165.3 72.8,168.7 64.9,168.7 C61.6,168.7 58.6,167.9 56.1,166.6 C48.3,162 44.6,150.4 45.8,133.7 Z M107.5,141.6 L110.4,141.6 L100,152 C96.7,149.1 92.9,145.3 89.6,142 C95.8,142 101.7,142 107.5,141.6 Z M127.9,140 C137.1,138.7 145.8,136.7 154.1,133.8 L154.1,134.2 C155.4,150.4 151.6,162.5 143.7,167.1 C141.2,168.4 138.3,169.2 134.9,169.2 C127.8,169.2 119.1,165.9 109.5,159.6 C116.3,153.7 122.1,147.5 127.9,140 Z M43.3,90.8 C40,99.1 37.1,107.9 35.4,116.6 L35,116.6 C20.4,109.1 12.1,99.9 12.1,91.2 C12.1,82.5 20.4,73.3 35,65.8 L35.4,65.8 C37.5,73.7 40,82.5 43.3,90.8 Z" fill="none" stroke="currentColor" stroke-width="1.5"/></svg>