<svg xmlns="http://www.w3.org/2000/svg" viewBox="0 0 158.5 160.0" width="24" height="24"><path d="M0,0 L0,40.4 L11.699,40.4 L11.699,11.699 L40,11.699 L40,0 L0,0 Z M118,0 L118,11.699 L146.801,11.699 L146.801,40.4 L158.5,40.4 L158.5,0 L118,0 Z M76.699,20.9 C44.699,20.9 18.4,47.099 18.4,79.199 C18.4,111.299 44.699,137.5 76.699,137.5 C90.899,137.5 104.2,132.501 115,123.301 L127.5,137.1 C128.8,138.4 130,138.801 132.1,138.801 C135.4,138.801 138.301,135.9 138.301,132.6 C138.301,130.9 137.9,129.7 136.6,128.4 L123.301,114.6 C130.801,104.6 135,92.099 135,79.199 C135,47.099 108.699,20.9 76.699,20.9 Z M76.301,33.801 C102.101,33.801 122.1,53.8 122.1,79.6 C122.1,105 101.701,125.4 76.301,125.4 C50.501,125.4 30.5,105.4 30.5,79.6 C30.5,53.8 50.501,33.801 76.301,33.801 Z M77.1,48.301 C64.2,48.301 53.8,52.1 52.9,57.5 L52.9,65.801 C52.9,67.001 54.099,68.3 56.199,70 C59.099,71.7 62,72.5 65,72.9 C69.2,73.7 72.9,74.099 77.1,73.699 C81.3,73.699 84.999,73.3 89.199,72.9 C92.099,72.5 95,71.2 98,70 C100.5,68.8 101.301,67.501 101.301,65.801 L101.301,57.5 C100.001,52.1 89.6,48.301 77.1,48.301 Z M52.5,72.5 L52.5,77.9 C52.5,79.1 53.701,80.4 55.801,82.1 C58.701,83.8 61.6,84.6 64.6,85 C68.8,85.8 72.499,86.301 76.699,85.801 C80.899,85.801 84.601,85.4 88.801,85 C91.701,84.6 94.6,83.3 97.6,82.1 C100.1,80.9 100.9,79.6 100.9,77.9 L100.9,72.5 C98,74.6 94.7,75.799 90.9,76.699 C85.4,77.499 81.301,77.9 76.301,77.9 C71.701,77.9 67.1,77.499 62.5,76.699 C58.7,75.899 55.4,74.6 52.5,72.5 Z M52.5,84.9 L52.5,90.301 C52.5,91.501 53.701,92.8 55.801,94.5 C58.701,96.2 61.6,97 64.6,97.4 C68.8,98.2 72.499,98.699 76.699,98.199 C80.899,98.199 84.601,97.8 88.801,97.4 C91.701,97 94.6,95.7 97.6,94.5 C100.1,93.2 100.9,92.001 100.9,90.301 L100.9,85 C98,87.1 94.7,88.299 90.9,89.199 C85.4,89.999 81.301,90.4 76.301,90.4 C71.701,90.4 67.1,90 62.5,89.1 C58.7,88.3 55.4,87 52.5,84.9 Z M52.5,97.4 L52.5,102.801 C52.5,104.001 53.701,105.3 55.801,107 C58.701,108.7 61.6,109.5 64.6,109.9 C68.8,110.7 72.499,111.099 76.699,110.699 C80.899,110.699 84.601,110.3 88.801,109.9 C91.701,109.5 94.6,108.2 97.6,107 C100.1,105.7 100.9,104.501 100.9,102.801 L100.9,97.4 C98,99.5 94.7,100.7 90.9,101.6 C85.4,102.5 81.301,102.9 76.301,102.9 C71.701,102.9 67.1,102.5 62.5,101.6 C58.7,100.8 55.4,99.5 52.5,97.4 Z M0,119.6 L0,160 L40,160 L40,147.9 L11.699,147.9 L11.699,119.6 L0,119.6 Z M146.6,119.6 L146.6,147.9 L117.9,147.9 L117.9,160 L158.301,160 L158.301,119.6 L146.6,119.6 Z" fill="none" stroke="currentColor" stroke-width="1.5"/></svg>