<svg xmlns="http://www.w3.org/2000/svg" viewBox="0 0 183.4 183.8" width="24" height="24"><path d="M154.2,157.9 L146.7,157.9 L146.7,157.1 C145.4,172.1 132.9,183.8 117.5,183.8 L29.2,183.8 C13,183.8 0,170.5 0,154.6 L0,65.9 C0,49.6 13.4,36.7 29.2,36.7 L36.7,36.7 L36.7,29.2 C36.7,12.9 50,0 65.9,0 L154.2,0 C170.4,0 183.4,13.3 183.4,29.2 L183.4,128.8 C183.4,145 170,157.9 154.2,157.9 Z M142.9,142.5 C152.1,142.5 158.3,138.3 158.3,128.7 C158.3,119.5 150.8,113.7 141.6,113.7 L132.8,112.4 L132.8,109.5 C132.8,92.4 120.7,83.3 103.6,83.3 C89.4,83.3 79,90.4 75.3,103.3 L71.7,103.3 C59.6,103.3 50.5,110.8 50.5,123.3 C50.5,135.8 58,142.5 70.1,142.5 Z M14.6,73.4 L14.6,146.7 C14.6,158.8 24.6,168.8 36.7,168.8 L110,168.8 C118.3,168.8 125.4,164.2 129.2,157.1 L70,157.1 C51.7,157.1 36.7,141.7 36.7,122.9 C36.7,105.4 50,90.8 66.7,89.1 C73.8,75.3 87.5,66.2 103.8,66.2 C114.6,66.2 124.6,70.4 132.1,77.4 L132.1,72.8 C132.1,60.7 122.1,50.7 110,50.7 L36.7,50.7 C24.6,51.3 14.6,61.3 14.6,73.4 Z M146.7,14.6 L73.4,14.6 C61.3,14.6 51.3,24.6 51.3,36.7 L117.1,36.7 C133.3,36.7 146.3,50 146.3,65.9 L146.3,100.9 C156.3,102.2 164.6,108.8 168.4,118 L168.4,36.7 C168.8,24.6 158.8,14.6 146.7,14.6 Z" fill="none" stroke="currentColor" stroke-width="1.5"/></svg>