<svg xmlns="http://www.w3.org/2000/svg" viewBox="0 0 173.354 125.747" width="24" height="24"><path d="M173.309,83.684 L173.309,82.809 C173.354,70.749 165.879,60.166 156.559,53.642 C151.088,50.345 144.199,47.101 137.309,47.101 C135.202,20.96 113.554,0.713 87.331,0.356 C61.107,0 38.917,19.652 36.101,45.726 C15.174,48.589 0,67.112 1.313,88.194 C2.626,109.275 19.98,125.502 41.101,125.747 L67.101,125.747 L91.476,79.392 L72.101,79.392 L88.767,33.226 C89.101,32.503 88.017,32.003 87.684,32.726 L51.267,89.476 L74.559,89.476 L62.684,111.642 L59.601,117.392 L40.892,117.392 C23.649,117.006 9.814,103.023 9.611,85.776 C9.409,68.529 22.912,54.225 40.142,53.434 L43.976,53.434 L43.976,49.559 C43.081,25.967 61.576,6.163 85.174,5.446 C108.772,4.728 128.437,23.373 128.976,46.976 C117.4,48.461 107.074,54.989 100.767,64.809 C100.66,64.932 100.575,65.073 100.517,65.226 C95.636,73.363 94.434,80.381 94.434,88.309 C94.434,102.664 103.284,112.231 109.392,117.142 L82.142,117.142 L77.767,125.747 L134.351,125.747 C147.899,125.747 159.184,119.034 166.309,108.434 C170.453,102.185 173.315,94.647 173.309,83.684 Z M147.601,114.101 C148.824,111.417 149.8,108.628 150.517,105.767 C154.395,104.45 158.112,102.703 161.601,100.559 C158.366,106.367 153.638,111.213 147.601,114.101 Z M147.559,58.226 C151.715,60.185 155.748,63.489 158.392,66.976 C156.444,69.113 154.215,70.977 151.767,72.517 C150.997,67.594 149.597,62.791 147.601,58.226 Z M162.809,74.392 C164.468,78.641 165.059,83.114 165.059,87.601 C161.347,91.325 157.001,94.358 152.226,96.559 C152.616,93.171 152.797,89.761 152.767,86.351 L152.767,81.601 C156.413,79.671 159.755,77.214 162.684,74.309 Z M143.892,76.101 C137.434,78.113 130.517,78.113 124.059,76.101 C125.684,63.059 130.476,54.976 133.851,54.976 C139.432,54.976 143.329,71.884 143.892,76.101 Z M133.976,85.934 C137.534,85.924 141.076,85.462 144.517,84.559 L144.517,86.267 C144.536,90.681 144.16,95.088 143.392,99.434 C140.286,100.116 137.115,100.466 133.934,100.476 C130.75,100.472 127.578,100.109 124.476,99.392 C123.685,95.09 123.281,90.725 123.267,86.351 L123.267,84.642 C126.73,85.488 130.288,85.892 133.851,85.851 Z M133.976,117.476 C131.809,117.476 129.017,114.101 126.892,108.267 C129.24,108.594 131.606,108.775 133.976,108.809 C136.36,108.774 138.739,108.593 141.101,108.267 C138.809,114.017 136.059,117.392 133.851,117.392 Z M115.559,96.351 C110.78,94.155 106.434,91.121 102.726,87.392 L102.726,86.184 C102.737,82.095 103.543,78.048 105.101,74.267 C108.082,77.15 111.481,79.566 115.184,81.434 L115.184,86.184 C115.101,89.576 115.226,92.976 115.559,96.351 Z M117.392,106.017 C118.13,108.876 119.117,111.667 120.351,114.351 C114.311,111.485 109.367,106.732 106.267,100.809 C109.759,102.976 113.492,104.726 117.392,106.017 Z M120.309,58.142 C118.294,62.701 116.893,67.507 116.142,72.434 C113.679,70.88 111.425,69.018 109.434,66.892 C112.346,63.186 116.065,60.193 120.309,58.142 Z" fill="none" stroke="currentColor" stroke-width="1.5"/></svg>