<svg xmlns="http://www.w3.org/2000/svg" viewBox="0 0 158.4 175.0" width="24" height="24"><path d="M158.4,108.512 L158.4,131.3 L79.2,175 L0,131.2 L0,83.3 L25.9,97.5 L25.9,60.4 L41.1,52.1 L41.1,106 L49.5,110.6 L56.4,114.4 L56.4,44 L79.2,31.4 L102,44 L102,114.4 L117.3,106 L117.3,52.1 L132.5,60.4 L132.5,60.5 L143.1,66.4 L143.1,52.2 L79.2,16.8 L15.3,52.2 L15.3,75 L0,66.5 L0,43.7 L79.2,0 L158.4,43.8 L158.4,91.664 L132.5,77.3 L132.5,114.6 L126.7,117.7 L79.2,143.8 L49.5,127.5 L45.5,125.3 L29.7,116.5 L15.2,108.5 L15.2,122.8 L79.1,158.1 L143,122.8 L143,100 Z M71.6,52.5 L71.6,122.8 L79.2,127 L86.8,122.8 L86.8,52.5 L79.2,48.3 Z" fill="none" stroke="currentColor" stroke-width="1.5"/></svg>