<svg xmlns="http://www.w3.org/2000/svg" viewBox="0 0 145.5 158.199" width="24" height="24"><path d="M56.301,0 L55.9,15.801 L72.6,25.4 L89.6,16.199 L89.6,0.4 L72.5,9.6 Z M35.9,12.5 L0,32.9 L0,73.699 L35,94.5 L35.4,94.1 L35.9,53.699 L70.9,33.699 L70.9,33.301 Z M109.699,12.5 L74.699,33.301 L74.699,33.699 L109.699,53.699 L110.1,94.1 L110.5,94.5 L145.5,73.699 L145.5,32.9 Z M73,49.9 L51.301,62.5 L51.301,87.5 L73,100 L94.699,87.5 L94.699,62.5 Z M73,60.801 L85.5,67.9 L85.5,82.1 L73,89.199 L60.5,82.1 L60.5,67.9 Z M132.1,89.1 L115,98.699 L115,117.9 L128.801,125.801 L128.801,106.6 L145.5,97 Z M13.4,90.801 L0,98.699 L16.699,107.9 L16.699,127.5 L30.5,119.6 L30.5,100.4 Z M37.6,96.6 L37.199,137.4 L72.6,158.199 L108,137.801 L108.4,97 L108,96.6 L72.6,117 Z" fill="none" stroke="currentColor" stroke-width="1.5"/></svg>