<svg xmlns="http://www.w3.org/2000/svg" viewBox="0 0 144.334 166.668" width="24" height="24"><path d="M72.168,0 L0,41.668 L0,125 L72.168,166.668 L144.334,125 L144.334,41.668 Z M72.168,16.033 L130.447,49.688 L130.447,116.98 L72.168,150.625 L13.885,116.98 L13.885,49.684 L72.168,16.043 Z M73.904,44.447 C67.963,44.447 62.285,46.464 57.352,50.164 L56.289,50.996 C52.089,54.425 48.604,59.018 46.092,64.352 L45.668,65.289 L46.125,65.279 C39.771,65.279 33.862,68.038 29.566,72.83 C25.279,77.609 22.883,84.071 22.875,91.066 C23.1,97.758 25.684,103.842 30.059,108.301 L63.139,115.279 L63.139,88.676 L56.396,88.672 L69.389,74.684 L69.389,115.279 L98.209,115.279 L99.375,115.246 C105.296,114.9 110.667,112.258 114.676,107.938 C119.009,103.271 121.471,96.971 121.471,90.279 L115.004,72.98 C111.558,69.147 107.146,66.583 102.283,65.658 L101.531,65.537 L101.117,64.471 L86.058,45.697 L86.058,45.701 L86.058,72.172 L92.793,72.166 L79.801,86.242 L79.801,44.754 L79.809,44.75 L75.022,44.471 Z" fill="none" stroke="currentColor" stroke-width="1.5"/></svg>