<svg xmlns="http://www.w3.org/2000/svg" viewBox="0 0 133.334 181.668" width="24" height="24"><path d="M66.666,0 L0,41.25 L0,98.75 L66.666,140.418 L133.334,98.75 L133.334,81.668 C133.334,79.168 131.25,77.084 128.75,77.084 C126.25,77.084 124.166,79.168 124.166,81.668 L124.166,93.75 L66.25,130 L8.334,93.75 L8.334,46.25 L66.25,10.418 L124.166,46.25 L124.166,55 C124.166,57.5 126.25,59.584 128.75,59.584 C131.25,59.584 133.334,57.5 133.334,55 L133.334,41.25 Z M56.66,42.988 C52.5,43.047 48.75,46.562 48.75,51.25 L48.75,89.584 C48.75,95.834 55.417,99.585 60.834,96.668 L94.166,77.5 C99.583,74.167 99.583,66.667 94.166,63.334 L60.834,44.168 C59.48,43.335 58.047,42.969 56.66,42.988 Z M0,106.668 L0,119.168 L22.5,133.334 L22.5,120.834 Z M133.334,106.668 L110.834,121.25 L110.834,133.334 L133.334,119.168 Z M30.416,125.834 L30.416,138.334 L66.666,161.25 L102.916,138.334 L102.916,125.834 L66.666,148.75 Z M0,127.5 L0,140 L66.666,181.668 L133.334,140 L133.334,127.5 L66.666,169.168 Z" fill="none" stroke="currentColor" stroke-width="1.5"/></svg>