<svg xmlns="http://www.w3.org/2000/svg" viewBox="0 0 165.601 151.95" width="24" height="24"><path d="M8.101,0.4 C3.501,0 0,3.3 0,7.9 L0,25.4 C0,29.6 3.501,32.9 8.101,32.9 L113.501,32.9 C118.101,32.9 121.8,29.6 121.8,25.4 L121.8,7.9 C121.8,3.7 118.001,0.4 113.501,0.4 Z M17.3,7.9 C21.9,7.9 25.2,11.7 25.2,15.8 C25.2,20.4 21.4,23.699 17.3,23.699 C13.2,23.699 9.401,19.9 9.401,15.8 C9.401,11.7 13.1,7.9 17.3,7.9 Z M8.101,43.3 C3.501,43.3 0,46.6 0,50.8 L0,68.3 C0,72.1 3.501,75.8 8.101,75.8 L113.501,75.8 C118.101,75.8 121.8,72.5 121.8,68.3 L121.8,50.8 C121.8,46.6 118.001,43.3 113.501,43.3 Z M17.3,51.199 C21.9,51.199 25.2,54.999 25.2,59.099 C25.2,63.699 21.4,67 17.3,67 C13.2,67 9.401,63.199 9.401,59.099 C9.401,54.599 13.1,51.199 17.3,51.199 Z M122.907,83.316 C108.495,83.312 101.101,94.599 101.101,94.599 C93.601,87.499 83.2,90.4 83.2,90.4 C69.9,94.2 72.401,107.099 72.401,107.099 C65.701,104.999 46.2,107.5 46.2,127.9 C46.2,148.3 62.901,151.95 62.901,151.95 L149.601,151.95 C149.601,151.95 165.401,149.999 165.401,132.099 C165.601,113.799 149.8,110.4 149.8,110.4 C149.8,110.4 155.601,93.7 134.001,85.4 C129.932,83.919 126.233,83.317 122.907,83.316 Z M7.3,85.5 C7.3,85.5 0,85.099 0,92.599 L0,144.699 C0,144.699 0.2,151.95 7.3,151.95 L44.8,151.95 C44.8,151.95 36.501,141.4 36.901,126 C37.701,110.8 50.2,100.399 64.3,96.699 C64.3,96.699 66.001,89.2 71.401,85.5 Z" fill="none" stroke="currentColor" stroke-width="1.5"/></svg>