<svg xmlns="http://www.w3.org/2000/svg" viewBox="0 0 158.333 158.333" width="24" height="24"><path d="M158.333,117.917 L158.333,155.833 L145.833,155.833 L145.833,142.5 C130.833,152.917 104.583,158.333 79.167,158.333 C44.167,158.333 19.167,150.417 1.667,131.667 C6.25,127.083 11.25,122.5 11.25,122.5 C21.667,130.833 37.917,145.833 79.167,145.833 C110.417,145.833 132.5,138.333 141.25,130.417 L120.417,130.417 L120.417,117.917 Z M79.167,0 C117.5,0 158.333,12.5 158.333,35.417 L158.333,79.167 C158.333,102.083 117.5,114.583 79.167,114.583 C40.833,114.583 0,102.083 0,79.167 C0,56.25 40.833,43.75 79.167,43.75 C94.583,43.75 109.583,45.417 122.083,49.167 C123.75,49.583 125,50 126.667,50.417 C125.417,53.333 123.333,57.917 121.667,61.667 C121.25,61.667 120.833,61.25 120.417,61.25 C120,61.25 119.583,60.833 119.167,60.833 C107.5,57.5 93.75,55.833 79.583,55.833 C38.333,55.833 12.917,69.167 12.917,78.75 C12.917,88.333 38.333,101.667 79.583,101.667 C120.833,101.667 146.25,90.417 146.25,71.667 L146.25,42.083 C145.833,22.917 120.417,12.5 79.167,12.5 C47.917,12.5 25.833,20 17.083,27.917 L37.917,27.917 L37.917,40.417 L0,40.417 L0,2.5 L12.5,2.5 L12.5,15.833 C27.083,5.417 53.75,0 79.167,0 Z M79.167,63.75 C87.5,63.75 94.583,70.833 94.583,79.167 C94.583,87.5 87.5,94.583 79.167,94.583 C70.833,94.583 63.75,87.5 63.75,79.167 C63.75,70.417 70.833,63.75 79.167,63.75 Z M79.167,74.167 C76.667,74.167 74.167,76.25 74.167,79.167 C74.167,82.083 76.25,84.167 79.167,84.167 C81.667,84.167 84.167,82.083 84.167,79.167 C84.167,76.25 82.083,74.167 79.167,74.167 Z" fill="none" stroke="currentColor" stroke-width="1.5"/></svg>