<svg xmlns="http://www.w3.org/2000/svg" viewBox="0 0 158.999 159.0" width="24" height="24"><path d="M75.598,0 C69.098,0 63.8,5.199 63.8,11.699 C63.8,17.099 67.4,21.5 72.3,23 L78.3,51.5 C75.4,52.9 72.899,54.8 70.899,57.1 L42.3,42.4 C42.3,42.2 42.399,41.999 42.399,41.799 C42.399,35.299 37.098,30 30.598,30 C24.098,30 18.8,35.299 18.8,41.799 C18.8,48.299 24.098,53.6 30.598,53.6 C32.498,53.6 34.3,53.099 35.8,52.299 L65.598,67.699 C65.198,69.399 65.099,71.099 64.999,72.799 C64.999,77.599 66.499,81.999 68.899,85.699 L44.598,111.4 C35.698,107.2 25.099,111 20.899,119.9 C19.799,122.3 19.2,124.8 19.2,127.5 C19.2,137.3 27.199,145.299 36.999,145.299 C46.799,145.299 54.8,137.3 54.8,127.5 C54.8,124.9 54.199,122.2 52.999,119.9 L77.598,93.9 C80.998,95.7 84.8,96.699 88.7,96.699 C91.3,96.699 93.798,96.3 96.098,95.5 L114.3,124.199 C113.4,125.899 112.899,127.699 112.899,129.699 C112.899,136.199 118.2,141.5 124.7,141.5 C131.2,141.5 136.499,136.199 136.499,129.699 C136.499,123.199 131.2,117.9 124.7,117.9 L124.3,117.9 L105.999,89 C107.899,87 109.399,84.6 110.499,82 L138.098,86.1 C139.598,90.4 143.6,93.299 148.2,93.299 C154.1,93.299 158.899,88.5 158.899,82.6 C158.999,76.6 154.1,71.699 148.2,71.699 C145.5,71.699 143,72.7 141.2,74.4 L112.2,70.1 C111.8,66.7 110.699,63.4 108.899,60.5 L133.3,34.699 C135.3,35.499 137.4,35.9 139.7,35.9 C149.5,35.9 157.499,27.9 157.499,18.1 C157.499,8.3 149.5,0.299 139.8,0.299 C130,0.299 121.999,8.3 121.999,18.1 C121.999,21.3 122.899,24.4 124.399,27 L100.499,52.199 C97.199,50.299 93.6,49.3 89.8,49.1 L83.7,20.299 C86.1,18.099 87.399,14.999 87.399,11.799 C87.399,5.299 82.098,0 75.598,0 Z M30.307,11.473 C28.322,11.513 26.312,11.749 24.3,12.199 C16.5,13.899 9.799,18.7 5.499,25.4 C1.299,32 0,40 1.7,47.6 C4.8,61.3 17.2,70.6 30.8,70.6 C32.9,70.7 35.2,70.5 37.3,69.9 C40.5,69.2 42.5,66.1 41.8,62.9 C41.1,59.7 38,57.7 34.8,58.4 C25.1,60.6 15.398,54.6 13.098,45.1 C12.098,40.5 12.899,35.799 15.399,31.799 C17.999,27.699 22,24.799 26.8,23.799 C36.5,21.599 46.199,27.699 48.499,37.199 C49.199,40.399 52.398,42.4 55.598,41.6 C58.798,40.9 60.799,37.7 59.999,34.5 C56.849,20.588 44.205,11.192 30.307,11.473 Z M129.009,99.693 C126.263,99.718 123.825,101.6 123.3,104.4 L123.3,104.5 C122.7,107.7 124.699,110.8 127.899,111.4 L127.999,111.4 C137.699,113.3 143.898,122.7 142.098,132.4 C141.298,137.1 138.499,141.3 134.499,143.9 C130.599,146.5 125.9,147.5 121.3,146.6 C111.6,144.7 105.398,135.3 107.098,125.6 C107.698,122.4 105.6,119.299 102.3,118.699 C99.1,118.099 95.999,120.2 95.399,123.5 C92.299,139.6 102.899,155.3 118.899,158.4 C120.799,158.7 122.599,159 124.499,159 C130.399,159 136.199,157.2 140.999,153.9 C147.599,149.5 152.099,142.499 153.499,134.699 C156.799,118.499 146.2,102.899 130.2,99.799 C129.8,99.724 129.401,99.69 129.009,99.693 Z" fill="none" stroke="currentColor" stroke-width="1.5"/></svg>