<svg xmlns="http://www.w3.org/2000/svg" viewBox="0 0 160.547 160.547" width="24" height="24"><path d="M0,0 L0,76.914 L24.082,52.832 L24.082,24.082 L80.273,24.082 C88.633,24.082 96.543,25.918 103.672,29.18 L121.484,11.367 C109.434,4.141 95.332,0 80.273,0 L0,0 Z M131.035,18.164 L79.277,69.785 L51.055,41.562 L46.914,45.703 L46.895,45.684 L0,92.559 L0,126.387 L50.957,75.449 L78.301,102.793 L78.34,102.754 L79.219,103.633 L147.246,35.801 C142.754,29.141 137.266,23.203 131.035,18.164 Z M152.617,45.43 L134.062,63.984 C135.625,69.141 136.465,74.609 136.465,80.273 C136.465,111.309 111.309,136.465 80.273,136.465 L24.082,136.465 L24.082,118.027 L0,142.109 L0,160.547 L80.273,160.547 C124.609,160.547 160.547,124.609 160.547,80.273 C160.547,67.793 157.695,55.977 152.617,45.43 Z" fill="none" stroke="currentColor" stroke-width="1.5"/></svg>