<svg xmlns="http://www.w3.org/2000/svg" viewBox="0 0 181.699 181.699" width="24" height="24"><path d="M90.898,0 L38.398,30.5 C31.298,27.6 23.4,30.499 19.6,37.199 C16.3,43.399 18.399,51.7 24.199,55.5 L24.199,110.5 L40.898,118.799 L40.898,55.5 C42.598,54.3 44.2,52.6 45.5,50.5 C46.3,48.4 47.199,46.299 47.199,44.699 L90.898,19.299 L140.898,48.1 L140.898,106 L100.898,128.898 C100.098,128.098 98.8,127.199 98,126.799 C90.9,122.999 82.198,126 78.398,133 C74.598,140.1 77.6,148.8 84.6,152.6 C91.7,156.4 100.399,153.398 104.199,146.398 L104.199,146 L157.5,115.199 L157.5,38.398 Z M89.199,27.5 C87.099,27.1 86.698,38.7 85.398,40 C84.198,41.2 74.199,44.198 68.299,47.898 C59.099,54.098 49.099,66.698 46.199,82.898 C39.999,124.598 81.599,114.098 85.799,112.898 C89.099,114.598 102,116.699 104.1,116.199 C106.2,115.699 108.3,113.299 104.5,110.799 C96.2,105.399 94.099,102.5 93.299,99.1 C91.599,87.4 87.099,87.4 86.199,92 C85.399,95.8 82.9,103.699 79.5,105.299 C76.6,106.499 59.9,104 64.5,91.5 C68.3,83.6 76.599,73.599 91.199,83.199 C106.999,93.599 107.898,94.899 112.398,97.799 C116.998,100.699 122.798,103.6 127.398,104.5 C133.598,105.8 138.2,99.1 133.6,87 C132.4,83.7 135.299,77.799 135.299,76.199 C134.999,74.599 139.199,57.9 111.299,44.6 C105.899,43.4 102.499,32.1 89.199,27.5 Z M118.086,75.012 C119.073,74.949 120.098,75.248 120.898,75.898 C122.498,77.098 122.899,79.599 121.299,81.299 C120.099,82.999 117.598,82.999 115.898,81.699 C114.198,80.499 114.2,77.899 115.5,76.299 C116.15,75.499 117.098,75.074 118.086,75.012 Z M19.1,120.5 L0,131.299 L90.898,181.699 L181.699,131.299 L162.898,120.898 L91.199,160.898 Z" fill="none" stroke="currentColor" stroke-width="1.5"/></svg>