<svg xmlns="http://www.w3.org/2000/svg" viewBox="0 0 162.6 162.9" width="24" height="24"><path d="M79.801,0 C76.801,0 74.801,2.201 74.801,5.801 L74.801,22 C74.301,22 74.001,22.001 73.801,22.201 L73.301,22.201 C72.101,22.401 70.5,22.401 69,22.701 L67.5,22.701 C67.3,22.701 66.801,22.7 66.301,22.9 L66.102,22.9 C65.902,22.9 65.601,22.902 65.301,23.102 C65.101,23.102 64.801,23.101 64.801,23.301 L64.301,23.301 C63.601,23.801 62.8,23.8 62,24 L61.801,24.301 C57.801,25.501 54.3,27.101 51,28.801 C50.8,28.801 50.501,29.001 50.201,29.301 C50.001,29.301 50.001,29.5 49.701,29.5 C49.501,29.7 48.901,29.7 48.701,30 L47.602,30.801 C47.402,31.001 47.101,31.001 46.801,31.301 C31.301,41.301 21.302,58.302 19.602,77.102 L5.801,77.102 C2.601,77.102 0,79.102 0,82.102 C0,85.102 2.201,87.102 5.801,87.102 L19.801,87.102 C22.001,116.802 45.601,140.801 74.801,143.301 L74.801,157.102 C74.801,160.302 76.801,162.9 79.801,162.9 C82.801,162.9 84.801,160.602 84.801,157.102 L84.801,143.602 C114.001,141.102 137.8,117.101 140,87.301 L157.201,87.301 C160.201,87.301 162.4,85.1 162.4,82.5 C162.6,81.3 162.301,79.801 161.301,78.801 C160.301,77.801 159,77.301 157.5,77.301 L140,77.301 C137.5,48.301 114.201,24.8 85.801,22 L84.801,22 L84.801,5.801 C84.801,2.601 82.801,0 79.801,0 Z M79.801,32.602 C107.601,32.602 129.801,55.4 129.801,83.4 C129.801,111.4 107.301,134.201 79.801,134.201 C52.001,134.201 29.801,111.4 29.801,83.5 C29.801,55.6 52.301,32.602 79.801,32.602 Z M80.801,48.602 C65.301,48.602 52.801,55.102 52.801,63.102 C52.801,71.102 65.301,77.602 80.801,77.602 C96.301,77.602 108.801,71.102 108.801,63.102 C108.801,55.102 96.301,48.602 80.801,48.602 Z M56,76.5 C54.5,78.3 53.801,80.301 53.801,82.301 C53.601,90.001 65.601,96.301 80.301,96.301 C95.101,96.301 107.301,90.101 107.301,82.301 C107.301,80.301 106.5,78.3 105,76.5 C101,81.3 91.2,84.701 80.5,84.701 C69.5,84.701 60,81.2 56,76.5 Z M54.801,94.602 C53.301,96.402 52.602,98.4 52.602,100.4 C52.602,108.4 65.102,114.9 80.602,114.9 C96.102,114.9 108.602,108.4 108.602,100.4 C108.602,98.4 107.801,96.402 106.301,94.602 C102.301,99.602 92.301,103.301 80.801,103.301 C69.301,103.301 59.301,99.502 54.801,94.602 Z" fill="none" stroke="currentColor" stroke-width="1.5"/></svg>