<svg xmlns="http://www.w3.org/2000/svg" viewBox="0 0 158.398 160.0" width="24" height="24"><path d="M79.199,0 C68.399,0 59.199,8.8 59.199,20 C59.199,30.9 68.399,39.6 79.199,39.6 C85.399,39.6 91.3,36.7 94.6,32.1 C116.7,38.3 133.799,57.9 135.799,82.1 L135.799,84.199 C136.599,84.199 137.498,83.799 137.898,83.799 C142.098,83.399 145.8,84.198 149.6,85.898 C149.6,84.198 149.599,82.599 149.199,81.299 C146.699,51.299 125.498,27.099 98.398,19.199 C98.398,8.399 89.599,0 79.199,0 Z M79.199,10 C84.599,10 89.199,14.6 89.199,20 C89.199,25.4 84.599,30 79.199,30 C73.799,30 69.199,25.4 69.199,20 C69.199,14.2 73.799,10 79.199,10 Z M49.6,22.1 C22.9,34.2 5.398,62.098 8.398,92.898 C8.398,94.098 8.799,94.999 8.799,96.199 C3.399,100.399 0,106.3 0,113 C0,123.8 8.8,133 20,133 C30.8,133 40,124.2 40,113 C40,103 32.5,94.698 22.5,93.398 L22.5,92.1 C19.6,68 33.399,45.398 54.199,35.398 C51.699,32.098 50,27.899 49.6,23.299 Z M78.799,46.299 L64.199,54.6 L63.799,55 C63.799,55.4 63.799,55.398 64.199,55.398 L78.799,63.799 L79.199,63.799 L93.799,55.5 L94.199,55.1 C94.199,55.1 94.199,54.699 93.799,54.699 L79.199,46.299 Z M60,57.199 L45.398,65.5 L45,65.898 C45,66.298 44.998,66.299 45.398,66.299 L60,74.6 L60.398,74.6 L75,66.299 C75.4,66.299 75.398,65.898 75.398,65.898 C75.398,65.498 75.4,65.5 75,65.5 L60.398,57.199 Z M98.398,57.199 L83.799,65.5 L83.398,65.898 C83.398,66.298 83.399,66.299 83.799,66.299 L98.398,74.6 L98.799,74.6 L113.398,66.299 C113.798,66.299 113.799,65.898 113.799,65.898 C113.799,65.498 113.798,65.5 113.398,65.5 L98.799,57.199 Z M79.199,68 L64.6,76.299 L64.199,76.699 C64.199,77.099 64.2,77.1 64.6,77.1 L79.199,85.398 L79.6,85.398 L94.199,77.1 C94.599,77.1 94.6,77.099 94.6,76.699 C94.6,76.299 94.599,76.299 94.199,76.299 L79.6,68 Z M43,68.799 L43,86.299 C43,86.299 42.998,86.699 43.398,86.699 L58,95 L58.799,95 L58.799,77.1 C58.799,77.1 58.798,76.699 58.398,76.699 L43.398,68.799 Z M115.1,69.199 L100.5,77.5 L100.1,77.898 L100.1,95 C100,95.4 100.398,95.898 100.898,95.398 L115.5,87.1 C115.5,87.1 115.498,86.699 115.898,86.699 L115.898,69.6 C115.898,69.2 115.9,69.199 115.5,69.199 Z M61.699,80.1 L61.699,98 C61.699,98 61.7,98.398 62.1,98.398 L76.699,106.699 C77.099,107.099 77.5,106.699 77.5,106.299 L77.5,89.199 C77.5,88.799 77.5,88.799 77.1,88.799 L62.5,80.1 Z M96.193,80.336 C96.1,80.348 95.998,80.4 95.898,80.5 L80.898,89.199 L80.898,106.699 C80.898,106.299 80.899,106.299 81.299,106.699 L81.699,106.699 L96.299,98.398 L96.699,98 L96.699,80.898 C96.699,80.598 96.475,80.298 96.193,80.336 Z M43.105,90.736 C42.824,90.699 42.6,90.999 42.6,91.299 L42.6,108.398 C42.6,108.398 42.6,108.799 43,108.799 L57.6,117.1 L58,117.1 L58.398,116.699 L58.398,99.6 C58.398,99.2 58.4,99.199 58,99.199 L43.398,90.898 C43.298,90.798 43.199,90.749 43.105,90.736 Z M115.5,91.299 L100.898,99.6 L100.5,100 L100.5,117.1 C100.5,117.5 100.899,117.9 101.299,117.5 L115.898,109.199 C115.898,109.199 115.899,108.799 116.299,108.799 L116.299,91.699 C116.299,91.299 116.298,91.299 115.898,91.299 Z M138.398,92.6 C127.098,92.6 118.398,101.3 118.398,112.6 C118.398,116.8 119.599,120.899 122.199,123.799 C112.599,134.999 99.298,142.099 83.898,143.799 C68.098,144.999 53.099,140 41.799,130.5 C39.299,134.3 35.1,137.599 30.6,139.299 C45,152.499 64.6,160 85,158 C105,156.3 122.099,146.299 133.799,132.199 C135.499,132.599 136.698,132.6 138.398,132.6 C149.198,132.6 158.398,123.8 158.398,112.6 C158.398,101.8 149.598,92.6 138.398,92.6 Z M62.205,101.938 C61.924,101.9 61.699,102.2 61.699,102.5 L61.699,119.6 C61.699,119.6 61.7,120 62.1,120 L76.699,128.299 L77.1,128.299 L77.5,127.898 L77.5,110.799 C77.5,110.399 77.5,110.398 77.1,110.398 L62.5,102.1 C62.4,102 62.299,101.95 62.205,101.938 Z M96.299,102.1 L81.699,110.398 L81.299,110.799 L81.299,127.898 C81.299,128.298 81.7,128.699 82.1,128.299 L96.699,120 C96.699,120 96.7,119.6 97.1,119.6 L97.1,102.5 C96.7,102.5 96.699,102.1 96.699,102.1 Z M138.799,102.898 C144.199,102.898 148.799,107.498 148.799,112.898 C148.799,118.298 144.199,122.898 138.799,122.898 C133.399,122.898 128.799,118.298 128.799,112.898 C128.799,107.498 132.899,102.898 138.799,102.898 Z M19.6,103 C25,103 29.6,107.5 29.6,113 C29.6,118.4 25,123 19.6,123 C14.2,123 9.6,118.4 9.6,113 C9.6,107.6 14.2,103 19.6,103 Z" fill="none" stroke="currentColor" stroke-width="1.5"/></svg>