<svg xmlns="http://www.w3.org/2000/svg" viewBox="0 0 158.8 156.4" width="24" height="24"><path d="M37.5,59.2 L37.9,21.7 L22.9,21.7 L22.9,48 L0,59.2 L7.5,74.2 Z M120.9,59.2 L151.3,74.2 L158.8,59.2 L136.3,48 L136.3,21.3 L120.9,21.3 Z M78.8,32.1 L111.3,13.3 L103.8,0.4 L80.9,13.7 L59.6,0 L50.4,13.8 Z M37.5,96.7 L7.1,81.7 L0,96.7 L22.5,107.9 L22.5,134.2 L37.5,134.2 Z M120.9,78 C120.9,55.1 102.2,36.3 79.2,36.3 C56.2,36.3 37.5,55.1 37.5,78 C37.5,100.9 56.3,119.7 79.2,119.7 C102.1,119.7 120.9,100.9 120.9,78 Z M56.7,78 C56.7,65.5 66.7,55.5 79.2,55.5 C91.7,55.5 101.7,65.5 101.7,78 C101.7,90.5 91.7,100.5 79.2,100.5 C66.7,100.5 56.7,90.5 56.7,78 Z M120.9,96.7 L120.5,134.2 L135.5,134.2 L135.5,107.9 L158,96.7 L150.5,81.7 Z M79.2,123.8 L50.9,142.6 L60.1,156.4 L81.3,142.6 L104.2,155.9 L111.7,143 Z" fill="none" stroke="currentColor" stroke-width="1.5"/></svg>