<svg xmlns="http://www.w3.org/2000/svg" viewBox="0 0 133.398 183.398" width="24" height="24"><path d="M66.699,0 C29.799,0 0,10.699 0,23.799 C0,36.899 29.799,47.6 66.699,47.6 C103.599,47.6 133.398,36.999 133.398,23.799 C133.398,10.699 103.599,0 66.699,0 Z M0,51.699 L0,92.1 C0,102.1 17.5,110.899 42.1,114.199 C52.1,99.599 68.3,90 87.5,90 C101.7,90 114.199,95.399 124.199,104.199 C129.999,100.899 133.398,97.1 133.398,92.5 L133.398,51.699 C117.598,61.699 92.199,68 66.699,68 C41.199,68 15.9,61.699 0,51.699 Z M73.398,110.898 L48,133.799 L133.398,133.799 L133.398,122.1 L73.398,122.1 Z M0,117.6 L0,160.5 C0,171.3 20.799,180.498 48.799,183.398 C38.799,173.398 32.5,159.7 32.5,144.6 C32.9,139.6 33.8,135 34.6,130.5 C21.3,127.6 9.2,123.4 0,117.6 Z M47.898,148.799 L47.898,160 L107.5,160 L107.5,171.699 L133.299,148.799 Z" fill="none" stroke="currentColor" stroke-width="1.5"/></svg>