<svg xmlns="http://www.w3.org/2000/svg" viewBox="0 0 153.1 158.301" width="24" height="24"><path d="M76.5,0 C59.2,0 45.1,4.7 45.1,10.6 C45.1,16.5 59.2,21.199 76.5,21.199 C93.9,21.199 107.9,16.5 107.9,10.6 C107.9,4.7 93.8,0 76.5,0 Z M45.1,14.199 L45.1,37.801 C45.1,43.701 59.1,48.4 76.5,48.4 C93.8,48.4 107.9,43.701 107.9,37.801 L107.9,14.199 C107.9,20.099 93.9,24.801 76.5,24.801 C59.2,24.801 45.1,20.099 45.1,14.199 Z M45.1,42.199 L45.1,65.801 C45.1,71.701 59.1,76.4 76.5,76.4 C93.8,76.4 107.9,71.701 107.9,65.801 L107.9,42.199 C107.9,48.099 93.9,52.801 76.5,52.801 C59.2,52.801 45.1,48.099 45.1,42.199 Z M114.801,67.301 L114.699,74.5 L139.9,88.6 L76.5,124.1 L13.1,88.6 L37.1,75.199 L37.1,67.9 L0,88.6 L76.5,131.199 L153.1,88.699 L114.801,67.301 Z M45.1,69.9 L45.1,93.5 C45.1,99.4 59.1,104.1 76.5,104.1 C93.8,104.1 107.9,99.4 107.9,93.5 L107.9,69.9 C107.9,75.8 93.9,80.5 76.5,80.5 C59.2,80.5 45.1,75.8 45.1,69.9 Z M16.1,106.699 L0,115.699 L76.6,158.301 L153.1,115.699 L137.5,107 L77,140.801 L16.1,106.699 Z" fill="none" stroke="currentColor" stroke-width="1.5"/></svg>