<svg xmlns="http://www.w3.org/2000/svg" viewBox="0 0 186.298 183.399" width="24" height="24"><path d="M94.599,0.1 C55.799,0 22.899,23.4 9.199,56.7 L33,56.7 C32.9,55.9 33.398,54.6 33.798,54.2 C40.498,43.4 49.998,34.599 61.298,28.799 C58.798,35.899 55.898,45.5 53.798,56.7 L72.599,56.7 C74.299,45.4 77.198,33.4 81.298,21.7 L80.5,21.7 C85.1,20.9 89.699,20.5 94.699,20.5 C99.699,20.5 104.3,20.9 108.9,22.2 C113.1,33.9 115.599,46.4 117.699,57.2 L136.4,57.2 C134.3,45.9 131.4,36.8 128.9,29.7 C139.7,35.5 148.899,44.3 155.599,54.7 C155.599,55.5 156,55.899 156,56.799 L179.599,56.799 C165.899,23.499 132.899,0.1 94.599,0.1 Z M6.298,67.5 C2.998,80.4 0,102.9 8.4,125 L36.699,125 C37.099,125 48.4,124.998 48.4,113.399 L48.4,79.2 C48.4,79.2 47.599,67.5 36.699,67.5 Z M105.798,67.5 L105.798,103.299 L82.9,68 L82.9,67.6 L71.298,67.6 L71.298,125.1 L83,125.1 L83,88.799 L105.9,124.6 L105.9,125 L106.298,125 L117.5,125 L117.5,67.5 Z M140.4,68 L140.4,102.6 L175,102.6 L175,114.299 L140.4,114.299 L140.4,125.1 L180.4,125.1 C184.2,115.5 185.398,105.9 185.798,97.2 L185.798,102.2 L186.298,90.5 L151.699,90.5 L151.699,79.2 L185,79.2 C184.6,75 183.8,70.9 182.9,68 Z M14.199,78.799 L37.099,78.799 L37.099,113.799 L14.199,113.799 Z M14.599,137.2 C30.399,164.7 59.999,183.399 94.599,183.399 C128.799,183.399 158.799,164.6 174.599,137.2 L148.798,137.2 C143.398,143.8 137.099,149.199 129.199,153.399 C131.299,147.999 132.498,142.2 133.798,137.2 L115.5,137.2 C112.6,150.5 109.3,159.299 108.4,161.799 C103.8,162.599 99.199,163.1 94.199,163.1 C89.599,163.1 85.398,162.699 81.298,161.799 C80.898,160.999 77.099,152.2 74.199,137.2 L55.9,137.2 C57.1,143 58.8,148.399 60.9,154.299 C52.6,150.099 45.499,143.9 39.699,137.2 Z" fill="none" stroke="currentColor" stroke-width="1.5"/></svg>