<svg xmlns="http://www.w3.org/2000/svg" viewBox="0 0 186.2 183.4" width="24" height="24"><path d="M106.2,125 L117.4,125 L117.4,67.5 L105.7,67.5 L105.7,103.3 L82.8,67.9 L82.8,67.5 L71.2,67.5 L71.2,125 L82.9,125 L82.9,88.8 L105.8,124.6 L105.8,125 Z M33.7,54.2 C40.4,43.4 49.9,34.6 61.2,28.8 C58.7,35.9 55.8,45.5 53.7,56.7 L72.5,56.7 C74.2,45.4 77.1,33.4 81.3,21.7 L80.5,21.7 C85.1,20.9 89.7,20.5 94.7,20.5 C99.7,20.5 104.3,20.9 108.9,22.2 C113.1,33.9 115.6,46.4 117.7,57.2 L136.4,57.2 C134.3,46 131.4,36.8 128.9,29.7 C139.7,35.5 148.9,44.3 155.6,54.7 C155.6,55.5 156,56 156,56.8 L179.5,56.8 C165.8,23.5 132.8,0.1 94.5,0.1 C55.7,0 22.8,23.4 9.1,56.7 L32.9,56.7 C32.8,55.9 33.3,54.6 33.7,54.2 Z M186.2,90.5 L151.6,90.5 L151.6,79.2 L184.9,79.2 C184.5,75 183.7,70.9 182.8,68 L140.3,68 L140.3,102.6 L174.9,102.6 L174.9,114.3 L140.3,114.3 L140.3,125.1 L180.3,125.1 C184.1,115.5 185.3,105.9 185.7,97.2 L185.7,102.2 Z M48.3,113.4 L48.3,79.2 C48.3,79.2 47.5,67.5 36.6,67.5 L6.2,67.5 C2.9,80.4 0,102.9 8.3,125 L36.6,125 C37,125 48.3,125 48.3,113.4 Z M37,113.8 L14.1,113.8 L14.1,78.8 L37,78.8 Z M129.1,153.4 C131.2,148 132.4,142.2 133.7,137.2 L115.4,137.2 C112.5,150.5 109.2,159.3 108.3,161.8 C103.7,162.6 99.1,163.1 94.1,163.1 C89.5,163.1 85.3,162.7 81.2,161.8 C80.8,161 77,152.2 74.1,137.2 L55.7,137.2 C56.9,143 58.6,148.4 60.7,154.3 C52.4,150.1 45.3,143.9 39.5,137.2 L14.5,137.2 C30.3,164.7 59.9,183.4 94.5,183.4 C128.7,183.4 158.7,164.6 174.5,137.2 L148.7,137.2 C143.3,143.8 137,149.2 129.1,153.4 Z" fill="none" stroke="currentColor" stroke-width="1.5"/></svg>