<svg xmlns="http://www.w3.org/2000/svg" viewBox="0 0 170.901 138.0" width="24" height="24"><path d="M22.1,0 C22.1,0.4 1.3,2.099 1.3,23.299 L1.3,91.199 C1.3,91.199 0,113.699 21.7,113.699 C43.4,113.699 55.001,114.1 55.001,114.1 C55.001,114.1 57.1,120.8 42.1,124.1 C26.3,127 12.101,127 10.001,137.9 L94.2,137.9 C94.2,137.9 69.6,120 70.8,92.5 L20.8,92.5 L20.8,21.699 L117.901,21.699 L117.901,38.799 C117.901,38.799 131.7,38 138.7,40.5 L138.7,22.1 C138.7,22.1 138.301,0 117.501,0 Z M126.3,48.799 C101.7,48.799 81.7,68.8 81.7,93.4 C81.7,118 101.7,138 126.3,138 C150.9,138 170.901,118 170.901,93.4 C170.901,68.8 150.8,48.799 126.3,48.799 Z M125.901,58.799 C128.401,58.799 130.901,59.2 133.401,59.6 L133.001,60 C135.501,67.1 137.201,73.8 138.001,80.4 C129.201,81.6 121.3,81.2 115.1,80.4 C115.9,73.7 117.6,67.1 120.1,60 L119.2,59.6 C121.3,59.2 123.801,58.799 125.901,58.799 Z M110.401,62.5 C108.801,66.7 107.1,72.099 106.3,78.299 C101.3,77.099 98,75.4 97.1,75 C100.4,69.6 105.001,65.4 110.401,62.5 Z M142.8,63.299 C147.9,66.299 152.501,70.4 155.401,75.4 C152.501,76.7 149.6,77.499 146.6,78.299 C145.3,72.099 144.1,67.099 142.8,63.299 Z M93.401,82.1 C97.201,84.2 101.3,85.399 105.1,86.699 C104.7,92.099 104.701,97.499 105.501,103.799 C97.101,102.099 92.1,100 92.1,100 C91.7,97.9 91.3,95.799 91.3,93.299 C91.3,89.499 92.101,85.8 93.401,82.1 Z M159.1,82.1 C160.3,85.4 161.2,89.199 161.2,93.299 C160.8,95.799 160.401,97.9 160.001,100 C155.801,101.7 151.701,102.899 147.501,103.799 C148.301,97.599 148.301,92.099 147.901,86.699 C154.101,84.599 158.3,82.5 159.1,82.1 Z M114.2,89.199 C123.4,90.899 131.7,90.399 138.8,89.199 C138.8,94.999 138.802,100.4 137.901,105.4 C129.101,106.7 121.2,106.2 114.6,105.4 C114.2,100.4 113.8,94.999 114.2,89.199 Z M96.3,110 C100.1,111.2 103.8,112.499 107.1,113.299 C107.9,116.599 108.801,119.999 110.001,123.699 C104.201,120.799 99.2,115.9 96.3,110 Z M156.2,110 C153.4,115.9 148.801,120.399 142.901,123.299 C144.101,119.999 145,116.599 145.8,113.299 C150,112.499 153.3,111.2 156.2,110 Z M116.2,115 C123.7,115.8 130.4,115.8 136.6,115 C135,121.7 133.301,125.8 132.901,127.1 C130.801,127.5 128.3,127.9 126.2,127.9 C124.1,127.9 122.001,127.5 120.001,127.5 C120.001,127.1 117.9,122.5 116.2,115 Z" fill="none" stroke="currentColor" stroke-width="1.5"/></svg>