<svg xmlns="http://www.w3.org/2000/svg" viewBox="0 0 183.4 183.4" width="24" height="24"><path d="M91.7,0 C40.9,0 0,40.9 0,91.7 C0,142.5 40.8,183.4 91.7,183.4 C142.6,183.4 183.4,142.6 183.4,91.7 C183.4,40.8 142.5,0 91.7,0 Z M91.7,20.5 C97.099,20.5 101.1,21.075 105.491,21.894 C110.491,36.494 114.1,50.9 115.8,64.3 C97.9,66.8 81.6,66.4 68.3,64.3 C70,51 73.454,36.16 78.454,21.56 C83.123,20.795 86.614,20.5 91.7,20.5 Z M21.7,105 C20.9,100.8 20.5,96.2 20.5,91.7 C20.5,83.8 22.2,76.3 24.7,68.8 C33,73 40.9,75.9 48.5,78.4 C47.7,89.2 47.7,100.9 49.3,113.4 C32.1,109.6 21.7,105 21.7,105 Z M29.6,126.3 C37.5,129.2 45,131.3 52.1,133 C53.8,140.1 55.4,147.2 57.9,154.2 C46.3,147.9 36.3,138.4 29.6,126.3 Z M50.4,60.9 C40,58 32.9,55.1 31.2,54.2 C37.9,43.4 47.4,34.6 58.7,28.8 C55.9,36.7 52.5,47.5 50.4,60.9 Z M105.9,161.7 C101.3,162.5 96.7,163 91.7,163 C87.1,163 82.9,162.6 78.8,161.7 C78.4,160.9 74.6,151.7 71.3,136.3 C86.7,138 100.5,137.5 113,136.3 C110.5,150 106.7,159.2 105.9,161.7 Z M116.3,116.7 C98.4,118.8 82.1,118.4 68.4,116.7 C67.2,106.7 66.7,95.5 67.2,82.9 C86.4,86.2 103.4,85.4 117.6,82.9 C118,95 117.5,106.7 116.3,116.7 Z M152.5,54.6 C146.3,57.1 140,58.8 134.2,60.4 C132.1,47.5 128.8,37.1 125.9,29.2 C136.7,35.5 145.9,44.2 152.5,54.6 Z M126.7,153.4 C129.2,146.3 130.9,139.2 132.5,132.6 C141.3,130.5 148.3,128 154.2,125.9 C147.5,137.5 137.9,147.1 126.7,153.4 Z M161.3,105.5 C152.5,108.8 143.8,111.3 135.5,113.4 C136.7,100.9 136.7,89.2 135.9,78.4 C148.8,74.2 157.1,69.7 158.8,68.8 C161.3,75.9 163,83.8 163,91.7 C162.9,96.7 162.5,101.3 161.3,105.5 Z" fill="none" stroke="currentColor" stroke-width="1.5"/></svg>