<svg xmlns="http://www.w3.org/2000/svg" viewBox="0 0 144.0 139.017" width="24" height="24"><path d="M96.754,0.017 C94.227,0 91.879,0.277 89.732,0.846 L88.102,1.279 L81.23,3.129 L63.619,7.898 L46.545,12.535 L0,25.187 L0,120.887 L68.275,139.017 L144,118.715 L144,96.002 L99.562,83.984 L121.738,78.057 L122.16,77.953 C136.056,74.374 144,62.769 144,45.639 C144,28.334 134.078,10.31 110.762,2.584 C105.67,0.896 100.965,0.047 96.754,0.017 Z M97.121,11.391 C99.956,11.468 103.345,12.103 107.184,13.375 C123.962,18.935 132.627,31.198 132.627,45.639 C132.627,57.917 127.839,64.868 119.043,67.012 L118.922,67.041 L118.922,67.043 L93.936,73.715 L93.936,94.24 L132.627,104.703 L132.627,109.994 L68.262,127.248 L11.373,112.142 L11.373,33.877 L55.822,21.795 L80.701,15.051 L89.68,12.627 L92.641,11.838 C93.919,11.5 95.42,11.344 97.121,11.391 Z M34.016,47.42 C33.736,47.412 33.492,47.455 33.291,47.537 C32.697,47.775 32.334,48.368 32.318,49.119 L32.123,69.197 L46.617,73.486 L49.441,74.322 L52.268,75.158 L69.951,80.394 L59.43,70.346 L57.746,68.742 L56.068,67.139 L37.338,49.252 C36.022,47.931 34.855,47.443 34.016,47.42 Z M85.074,53.795 C84.39,53.767 83.581,54.165 83.156,54.402 L63.287,67.756 L79.479,83.215 L81.977,83.955 L86.572,59.256 C87.02,56.341 86.459,54.509 85.699,53.988 C85.517,53.862 85.302,53.804 85.074,53.795 Z M19.861,70.664 C19.215,70.688 18.73,70.851 18.467,71.15 C17.833,71.871 17.905,73.667 18.637,75.416 L24.742,89.926 L27.326,96.066 L28.918,99.85 L29.543,101.33 L30.621,103.898 C31.129,104.768 32.524,105.201 33.908,104.902 L36.02,104.453 C36.494,104.42 36.984,104.356 37.48,104.252 L38.701,103.879 L54.992,100.396 L64.697,98.326 L65.441,98.168 L75.887,95.937 L79.908,95.078 L82.311,94.562 L83.055,94.406 L84.68,94.057 L85.088,93.971 C86.85,93.594 87.672,92.457 87.688,91.56 C87.71,90.481 86.655,90.051 86.023,89.891 L85.488,89.732 L84.246,89.363 L83.328,89.094 L81.562,88.57 L81.143,88.445 L77.141,87.262 L47.371,78.447 L44.547,77.613 L41.723,76.777 L32.078,73.92 L29.816,73.25 L27.555,72.582 L22.223,71.002 C21.317,70.752 20.508,70.64 19.861,70.664 Z" fill="none" stroke="currentColor" stroke-width="1.5"/></svg>