<svg xmlns="http://www.w3.org/2000/svg" viewBox="0 0 183.398 183.398" width="24" height="24"><path d="M91.299,0 C73.399,0 56.7,5.4 42.1,14.6 L52.5,25 C64.2,18.4 77.5,14.6 92.1,14.6 C106.7,14.6 119.599,18.4 131.299,25 L141.299,15 C127.099,5.4 109.599,0 91.299,0 Z M26.299,12.5 L12.5,26.699 L60,73.799 L66.199,68 L89.1,91.299 L65.299,115.5 L60.299,110.1 L12.398,158 L26.1,171.299 L73.6,124.199 L67.799,118 L92,94.199 L115.699,118 L109.898,123.398 L157.799,171.299 L171.1,158 L123.199,110.1 L118.799,115 L94.6,91.199 L117.898,67.898 L123.299,73.699 L170.898,26.699 L157.1,12.898 L110,60.398 L115.398,65.398 L92.1,88.699 L68.398,65 L73.799,60.398 Z M92.898,29.6 C82.898,29.6 73.698,32.099 65.398,35.799 C65.398,35.899 77.5,47.898 77.5,47.898 C82.5,46.698 87.498,45.398 92.898,45.398 C98.298,45.398 103.299,46.198 108.299,47.898 L120.398,35.799 C112.098,32.099 102.498,29.6 92.898,29.6 Z M14.6,42.1 C5.5,55.9 0,72.899 0,91.299 C0,109.699 5.8,127.099 15,141.299 L25,131.299 C18.3,119.599 14.6,106.3 14.6,92.1 C14.6,77.5 18.4,64.598 25,52.898 Z M168.799,42.1 L158.398,52.898 C165.098,64.598 168.799,77.5 168.799,92.1 C168.799,106.7 164.998,119.599 158.398,131.299 L168.398,141.299 C177.998,126.699 183.398,109.599 183.398,91.299 C183.398,73.399 177.999,56.7 168.799,42.1 Z M36.299,64.199 C32.499,72.499 30.1,82.099 30.1,91.699 C30.1,101.699 32.599,110.899 36.299,119.199 L48.398,107.1 C46.698,102.1 45.898,97.099 45.898,91.699 C45.898,86.299 46.698,81.299 48.398,76.299 Z M149.6,64.6 L137.5,76.699 C138.7,81.699 140,86.7 140,92.1 C140,97.5 139.2,102.5 137.5,107.5 L149.6,119.6 C153.4,111.3 155.799,101.7 155.799,92.1 C155.799,82.1 153.3,72.9 149.6,64.6 Z M77.6,136.699 L65.5,148.799 C73.8,152.599 83.4,155 93,155 C102.6,155 112.1,152.499 120.5,148.799 L108.398,136.699 C103.398,137.999 98.4,139.199 93,139.199 C87.6,139.199 82.6,138.399 77.6,136.699 Z M52.898,158.398 L41.699,168.799 C55.899,177.999 72.498,183.398 90.898,183.398 C109.298,183.398 126.698,177.598 140.898,168.398 L131.299,158.398 C119.599,164.998 106.3,168.799 92.1,168.799 C77.5,168.799 64.598,164.998 52.898,158.398 Z" fill="none" stroke="currentColor" stroke-width="1.5"/></svg>