<svg xmlns="http://www.w3.org/2000/svg" viewBox="0 0 176.801 137.801" width="24" height="24"><path d="M32.9,0 C24.6,0 17.901,5.401 15.801,13.301 L15.4,13.301 L0,43.301 C0,55.801 10,65.4 22.1,65.4 C34.2,65.4 44.199,55.401 44.199,43.301 C44.199,55.801 54.201,65.4 66.301,65.4 C78.401,65.4 88.4,55.401 88.4,43.301 C88.4,55.801 98.4,65.4 110.5,65.4 C122.6,65.4 132.6,55.401 132.6,43.301 C132.6,55.801 142.599,65.4 154.699,65.4 C166.799,65.4 176.801,55.401 176.801,43.301 L161.699,13.301 C159.199,5.401 152.499,0 144.199,0 L32.9,0 Z M33.301,71.6 C32.101,72 30.399,72.401 28.699,72.801 C28.299,72.801 27.9,72.799 27.5,73.199 L27.1,73.199 C26.3,73.199 25.4,73.6 24.6,73.6 L21.699,73.6 C19.599,73.6 17.901,73.599 16.301,73.199 L16.301,129.5 C16.301,134.1 20,137.801 24.6,137.801 L151.699,137.801 C156.299,137.801 160,134 160,129.5 L160,73.199 C158.3,73.599 156.2,73.6 154.6,73.6 L152.1,73.6 L152.1,73.699 C151.3,73.699 150.4,73.701 149.6,73.301 L149.199,73.301 C148.799,73.301 148.4,73.3 147.9,72.9 C146.2,72.5 145.001,72.1 143.301,71.6 L143.301,123.699 L33.301,123.699 L33.301,71.6 Z M89.199,76.699 C78.799,77.499 73,82.9 72.5,93.4 C72.9,103.4 78.299,108.401 89.199,108.801 C94.599,108.801 99.2,107.101 102.5,103.801 L101.699,102.6 C98.799,105.5 94.6,106.801 89.6,106.801 C80.4,106.401 75.8,101.8 75.4,93.5 C75.8,84.3 80.8,79.3 89.6,78.9 C97.9,79.3 102.5,83.5 102.5,91 C102.1,96.4 100.4,99.299 97.1,99.699 C95.4,100.099 94.6,98.5 95,95.5 C95,94.6 95.401,90.8 96.301,84.6 L93.801,84.6 C93.401,86.3 93.4,87.5 93.4,87.5 C93,85.4 91.301,84.199 88.801,84.199 C83.401,84.599 80.5,87.999 80,94.199 C80,99.199 82.101,101.699 85.801,101.699 C89.101,101.699 91.2,100 92.5,97.1 C92.1,100 93.301,101.699 96.301,101.699 C101.701,101.299 104.6,97.9 105,90.9 C104.6,81.7 99.199,77.099 89.199,76.699 Z M88.699,86.4 C91.599,86.8 92.9,88.1 92.9,91 L92.9,92.1 C92.9,92.9 92.9,93.401 92.5,93.801 C92.1,95.501 91.7,97.1 90.4,98 C89.6,99.3 88.3,99.699 86.6,99.699 C83.7,99.699 82.4,98.001 82.4,94.301 C82.4,91.801 83.2,89.7 84.1,88.5 C85.3,87.2 86.599,86.4 88.699,86.4 Z" fill="none" stroke="currentColor" stroke-width="1.5"/></svg>