<svg xmlns="http://www.w3.org/2000/svg" viewBox="0 0 139.2 153.201" width="24" height="24"><path d="M11.801,0 C5.301,0 0,5.301 0,11.801 L0,141.4 C0,147.9 5.301,153.201 11.801,153.201 L106.701,153.201 C113.201,153.201 118.5,147.9 118.5,141.4 L118.5,79.801 L106.6,91.602 L106.6,126.701 L106.5,126.701 L11.801,126.701 L11.801,12.701 L106.5,12.701 L106.5,60.4 L118.301,48.602 L118.301,11.801 C118.301,5.301 113,0 106.5,0 Z M130.1,43.9 C128.9,43.9 127.601,44.401 126.801,45.301 L85.4,86.5 C84.7,87.2 84.301,88.1 84.201,89 L82.4,99 C82.2,99.7 82.8,100.201 83.5,100.201 L83.701,100.201 L93.701,98.4 C94.601,98.2 95.501,97.701 96.201,97.201 L137.4,55.801 C139.2,54.001 139.2,51.101 137.4,49.301 L133.4,45.301 C132.5,44.401 131.3,43.9 130.1,43.9 Z M45.1,88 C41.2,88 38.1,91.2 38.1,95 L38.1,100.801 C38.1,101.701 37.401,102.602 36.301,102.602 L20.6,102.602 C19.2,102.602 18,103.801 18,105.201 C18,106.601 19.2,107.801 20.6,107.801 L36.4,107.801 C40.3,107.801 43.4,104.601 43.4,100.801 L43.4,95 C43.4,94.1 44.101,93.201 45.201,93.201 C46.301,93.201 47,93.9 47,95 L47,111.5 C46.7,114.7 49.301,117.4 52.701,117.4 C56.001,117.4 58.701,114.8 58.701,111.4 L58.701,104 C58.701,102.8 59.801,101.9 60.801,101.9 L76.201,101.9 C77.601,101.9 78.801,100.701 78.801,99.301 C78.801,97.901 77.601,96.701 76.201,96.701 L60.9,96.701 C56.9,96.701 53.5,100.002 53.5,104.102 L53.5,111.5 C53.5,111.9 53.101,112.201 52.801,112.201 C52.401,112.201 52.1,111.8 52.1,111.5 L52.1,95 C52.1,91.1 48.9,88 45.1,88 Z M59.201,134.701 C62.501,134.701 65.201,137.301 65.201,140.701 C65.101,144.001 62.501,146.701 59.201,146.701 C55.901,146.701 53.201,144.101 53.201,140.701 C53.201,137.401 55.801,134.701 59.201,134.701 Z" fill="none" stroke="currentColor" stroke-width="1.5"/></svg>