<svg xmlns="http://www.w3.org/2000/svg" viewBox="0 0 184.039 101.197" width="24" height="24"><path d="M31.613,0 C23.298,0 16.64,4.622 12.07,9.781 C7.501,14.94 4.369,20.901 1.859,25.895 C17.613,27.95 20.375,23.03 23.301,19.727 C26.227,16.423 28.665,15 31.614,15 C33.938,15 36.612,16.498 39.381,19.563 C42.149,22.624 44.538,26.892 45.815,29.799 C45.816,29.801 45.818,29.805 45.819,29.807 L65.938,77.883 C65.259,78.774 64.643,79.826 63.938,80.598 C60.452,84.412 57.152,86.154 54.555,86.154 L54.532,86.154 L54.506,86.154 C51.77,86.172 49.192,84.545 46.217,80.932 C43.243,77.319 40.602,72.24 38.498,68.08 C27.204,78.99 30.168,85.042 34.634,90.467 C39.096,95.887 45.787,101.197 54.58,101.151 C63.103,101.141 69.927,96.279 75.009,90.717 C75.107,90.61 75.188,90.489 75.285,90.381 C75.329,90.422 75.352,90.464 75.396,90.504 C79.517,94.246 85.51,97.553 92.775,97.553 C100.447,97.553 105.867,93.086 110.05,88.836 C114.234,84.587 117.234,80.086 119,76.661 L119.115,76.436 L134.41,41.108 L148.716,75.918 L148.125,35.02 L148.226,35.284 C146.75,31.266 145.016,27.324 142.986,23.6 C146.294,19.264 150.655,15.981 155.181,15.981 C156.488,15.981 158.977,16.939 161.763,19.813 C164.55,22.687 167.358,27.193 169.279,32.391 C180.794,20.275 177.142,14.125 172.535,9.373 C167.928,4.621 162.087,0.98 155.182,0.98 C146.033,0.98 138.886,5.457 133.648,11.195 C129.113,7.024 123.44,3.979 116.799,3.979 C109.616,3.979 103.938,7.768 99.287,12.168 C94.637,16.568 90.925,21.921 88.727,27.551 L88.772,27.438 L75.082,60.879 L59.58,23.838 L59.555,23.779 C57.772,19.718 54.882,14.344 50.508,9.504 C46.133,4.664 39.8,0 31.613,0 Z M116.799,18.979 C119.563,18.979 122.253,20.429 125.402,24.156 L105.605,69.883 C104.68,71.652 102.156,75.474 99.361,78.312 C96.532,81.187 93.505,82.553 92.775,82.553 C89.82,82.553 87.746,81.456 85.48,79.398 C84.912,78.882 84.405,78.192 83.867,77.578 C84.787,75.835 85.831,74.076 86.58,72.383 L86.621,72.287 L102.678,33.063 L102.699,33.006 C103.898,29.936 106.611,25.888 109.596,23.064 C112.58,20.241 115.748,18.979 116.799,18.979 Z" fill="none" stroke="currentColor" stroke-width="1.5"/></svg>