<svg xmlns="http://www.w3.org/2000/svg" viewBox="0 0 171.9 170.5" width="24" height="24"><path d="M120,0 C113,0 107.4,5.5 107.4,12.4 C107.4,14.467 107.933,16.419 108.859,18.141 L46.85,80.15 L46.801,80.1 L41.699,85.199 L71.801,115.4 L71.949,115.25 L72.1,115.4 L92.199,95.301 L87.1,90.199 L71.959,105.342 L51.943,85.258 L113.949,23.25 C115.751,24.234 117.814,24.801 120,24.801 C126.9,24.801 132.6,19.2 132.6,12.4 C132.6,5.6 126.9,0 120,0 Z M120,7 C122.9,7 125.4,9.401 125.4,12.301 C125.4,15.201 123,17.6 120,17.6 C117,17.6 114.6,15.201 114.6,12.301 C114.6,9.401 117,7 120,7 Z M131.6,44.801 L121.5,55 L151.688,85.111 L121.5,115.301 L131.6,125.4 L171.9,85.199 L171.85,85.15 L171.9,85.1 Z M40.199,44.9 L0,85.1 L0.051,85.148 L0,85.199 L40.199,125.5 L50.301,115.301 L20.199,85.199 L50.4,55 Z M99.699,55 L79.6,75.1 L84.699,80.199 L99.801,65.1 L119.85,85.15 L57.787,147.213 C56.001,146.251 53.96,145.699 51.801,145.699 C44.901,145.699 39.299,151.3 39.199,158.1 C39.199,164.9 44.901,170.5 51.801,170.5 C58.801,170.5 64.4,165 64.4,158.1 C64.4,156.007 63.857,154.03 62.908,152.293 L124.949,90.25 L125,90.301 L130.1,85.199 L99.9,55 L99.801,55.1 Z M51.801,152.9 C54.801,152.9 57.199,155.299 57.199,158.199 C57.199,161.099 54.801,163.5 51.801,163.5 C48.901,163.5 46.4,161.099 46.4,158.199 C46.4,155.299 48.801,152.9 51.801,152.9 Z" fill="none" stroke="currentColor" stroke-width="1.5"/></svg>