<svg xmlns="http://www.w3.org/2000/svg" viewBox="0 0 132.602 175.0" width="24" height="24"><path d="M66.301,0 C61.301,0 56.701,2.499 53.801,6.699 L13.4,69.199 C4.7,82.599 0.9,95.001 0.5,108.801 C0,126.201 6.701,142.5 18.801,155 C25.101,161.3 32.202,166.3 40.102,169.6 C48.402,173.3 57.101,175 66.301,175 C83.801,175 100.5,168.3 113.4,155.4 C125.5,142.9 132.602,126.199 132.602,108.699 C132.602,102.899 131.801,96.999 129.701,91.199 C128.001,86.199 125.902,81.2 122.602,75 L78.801,6.699 C75.901,2.499 71.301,0 66.301,0 Z M65.9,13.801 C66.3,13.801 66.701,13.799 67.201,14.199 L110.102,82.1 C115.902,93.4 118.4,100.899 118.4,109.199 C118.4,123.399 113,136.301 103,146.301 C93.4,156.301 80.101,161.699 66.301,161.699 C58.801,161.699 52.2,160.4 45.5,157.5 C38.8,154.5 33.4,150.801 28.4,145.801 C18.8,136.301 13.401,123.4 13.801,109.6 C14.201,98.3 17.502,88.3 24.602,77.1 L65.102,14.199 C65.102,13.799 65.5,13.801 65.9,13.801 Z M80.133,93.316 C78.508,93.282 76.95,93.399 75.5,93.699 C58.8,96.999 59.7,106.6 45.9,106.6 C42.1,106.6 38.4,105.8 35.5,104.1 C35.1,104.1 34.701,104.1 34.701,104.5 C34.301,106.6 34.301,108.699 34.301,110.699 C34.301,128.199 48.5,142.799 66,143.199 C83.9,143.599 98.9,128.599 98.9,110.699 C98.9,105.699 97.7,101.5 96,97.4 C96,97.4 96.002,97 95.602,97 C90.502,94.9 85.008,93.42 80.133,93.316 Z" fill="none" stroke="currentColor" stroke-width="1.5"/></svg>