<svg xmlns="http://www.w3.org/2000/svg" viewBox="0 0 158.299 158.398" width="24" height="24"><path d="M110.4,0 L47.65,16.699 L47.65,33.199 L66.199,33.199 C80.399,32.799 92.4,44.999 92.4,59.199 C92.4,73.799 80.299,85.488 66.199,85.449 L47.65,85.449 L47.65,111.749 L110.4,111.749 Z M13.299,26.299 C6.199,26.299 0,32.1 0,39.6 C0,47.1 5.799,52.898 13.299,52.898 C18.299,52.898 22.5,50.249 24.5,46.049 L47.65,46.049 L47.65,72.1 L65.699,72.1 C73.299,72.5 79.1,66.699 79.1,59.199 C79.1,52.099 73.299,46.111 65.799,46.049 L47.65,46.049 L47.65,33.199 L24.5,33.199 C22.4,28.999 18.299,26.299 13.299,26.299 Z M47.65,72.1 L26.199,72.1 C11.599,72.1 0,83.799 0,98.299 C0,112.799 11.702,125.354 26.199,125.05 L47.65,125.05 L47.65,111.749 L22.649,111.749 C19.099,111.749 12.9,106.299 12.9,98.799 C12.9,91.299 18.699,85.431 26.199,85.449 L47.65,85.449 Z M144.9,105.5 C139.9,105.5 135.699,107.549 133.699,111.749 L110.4,111.749 L110.4,125.05 L133.699,125.05 C136.199,129.25 140.4,132.199 144.9,132.199 C152,132.199 158.199,126.398 158.199,118.898 C158.299,111.298 152.4,105.5 144.9,105.5 Z M110.4,125.05 L47.65,125.05 L47.65,141.699 L110.4,158.398 Z" fill="none" stroke="currentColor" stroke-width="1.5"/></svg>