<svg xmlns="http://www.w3.org/2000/svg" viewBox="0 0 183.4 183.4" width="24" height="24"><path d="M92.9,76.2 L112.8,38.9 L88.8,38.9 L61.8,100 L88.2,100 L71.4,151.6 L124.7,76.2 Z M156.7,139.9 C150.4,136.6 143.3,133.8 135.5,131.6 C138.3,120.3 139.8,108.7 140.1,97 L172.4,97 C171.3,112.6 165.9,127.4 156.7,139.9 Z M119,167.8 C124.3,161 128.8,152.5 132.4,142 C138.6,143.7 144.3,145.8 149.4,148.3 C140.9,157 130.5,163.7 119,167.8 Z M110.4,161.3 C106.2,166.6 101.8,170.1 97.1,171.7 L97.1,136.8 C101.4,136.9 105.8,137.3 110.8,137.8 C111.7,137.9 112.6,138 113.4,138.2 C116.2,138.6 119.1,139 121.9,139.6 C118.5,148.9 114.9,155.7 110.4,161.3 Z M86.3,140 L86.3,171.7 C82.7,170.5 79.2,168.1 76,164.8 C70.2,158.7 65.7,150.9 61.5,139.6 C64.4,139 67.3,138.5 70.3,138.2 L74,126.9 C68.8,127.4 63.6,128.2 58.5,129.2 C56,119.2 54.5,108.5 54.2,97.2 L57.4,97.2 L62.2,86.4 L54.3,86.4 C54.7,75.2 56.1,64.4 58.6,54.4 C64,55.5 69.5,56.3 75.3,56.9 L79.7,46.3 C77.2,46.1 74.7,45.9 72.2,45.6 C71.2,45.4 70.2,45.3 69.1,45.2 C66.5,44.9 64,44.4 61.4,43.9 C63.9,37.2 67.3,29 72.9,22.1 C77.1,16.8 81.6,13.3 86.2,11.7 L86.2,33.5 C87.4,33.5 97,33.6 97,33.6 L97,11.7 C100.6,12.9 104.1,15.3 107.3,18.7 C114.5,26.2 118.8,35.9 121.8,43.9 C120.1,44.3 116,44.9 115.7,44.9 L109.5,56.6 C114.7,56.1 119.8,55.3 124.9,54.3 C126.9,62.4 128.2,70.7 128.8,79 L128.8,79.6 C129,81.8 129.1,84.1 129.2,86.4 L124.1,86.4 L116.5,97.2 L129.2,97.2 C128.9,108 127.5,118.8 124.9,129.2 C109,126.4 96.1,126 96.1,126 Z M34,148.3 C39.5,145.7 45.1,143.5 51,142 C54.6,152.5 59,161 64.4,167.8 C52.9,163.7 42.5,157 34,148.3 Z M26.7,139.9 C17.5,127.5 11.9,112.4 11,97.1 L43.3,97.1 C43.6,108.8 45.2,120.3 47.9,131.7 C40.2,133.8 33.1,136.6 26.7,139.9 Z M26.7,43.5 C33.1,46.9 40.2,49.6 47.9,51.8 C45.1,63.1 43.6,74.7 43.3,86.4 L11,86.4 C12,71 17.5,55.9 26.7,43.5 Z M64.4,15.6 C59.1,22.4 54.6,30.9 51,41.4 C44.9,39.7 39.2,37.6 34,35.1 C42.5,26.3 52.9,19.7 64.4,15.6 Z M149.4,35.1 C143.9,37.7 138.3,39.8 132.4,41.4 C129,31.5 124.8,23.3 119.6,16.4 L119.5,16.3 C119.3,16.1 119.1,15.8 118.9,15.6 C130.5,19.7 140.9,26.4 149.4,35.1 Z M156.6,43.5 C165.8,56 171.3,70.8 172.4,86.3 L140.1,86.3 C139.8,74.6 138.2,63.1 135.5,51.7 C143.4,49.5 150.3,46.8 156.6,43.5 Z M183.4,90 C183.1,76 179.6,62.2 173.4,50.1 C163.5,30.5 146.1,14.6 125.7,6.5 C116.3,2.7 105.9,0.5 94.8,0 L88.7,0 C76.3,0.6 64.8,3.3 54.3,8 C38.1,15.2 23.9,27.5 14.4,42.5 C5.3,56.7 0.4,73.1 0,90.1 L0,93.4 C0.2,102.7 1.7,111.6 4.4,120 C8.2,131.8 14.5,142.8 22.7,152.1 C34.3,165.4 50,175.3 67,180 C73.5,181.8 80.6,183 88.6,183.4 L94.8,183.4 C101.4,183 106.7,182.3 111.4,181.3 C124.9,178.3 137.5,172.4 148.4,163.8 C159,155.5 167.6,144.9 173.7,132.8 C179.8,120.8 183.1,107.2 183.4,93.4 Z" fill="none" stroke="currentColor" stroke-width="1.5"/></svg>