<svg xmlns="http://www.w3.org/2000/svg" viewBox="0 0 171.201 148.4" width="24" height="24"><path d="M85.4,0 C46.9,0 14.5,27.701 9.9,64.701 C4.2,65.301 0,69.701 0,75.301 C0,81.201 5,86.102 11.1,86.102 C17.3,85.802 22.301,80.8 22.301,74.9 C22.301,71 20.2,67.502 16.9,65.602 C20.8,32.102 50.3,6.9 85.6,6.9 C114.4,6.8 140.4,24.9 150.4,51.9 L150.5,52.201 L157.9,52.201 L157.701,51.5 C147.601,19.7 119.9,0 85.4,0 Z M84,23.701 C58,23.701 37.1,44.602 37.1,70.102 C37.1,95.602 58,116.5 84,116.5 C99.4,116.5 113.301,109.1 121.801,97.5 L95.6,71.602 L123.1,44.602 C114.4,31.502 99.7,23.701 84,23.701 Z M60,48.5 L66.9,48.5 L66.9,54.5 L73.1,54.5 L73.1,61.201 L66.9,61.201 L66.9,67.201 L60,67.201 L60,61.201 L53.801,61.201 L53.801,54.5 L60,54.5 Z M123.6,63 C118,63 113.4,67.502 113.4,73.102 C113.4,78.702 118,83.201 123.6,83.201 C129.2,83.201 133.801,78.702 133.801,73.102 C133.801,67.502 129.2,63 123.6,63 Z M159.9,63.9 C153.8,63.9 148.9,68.701 148.9,74.701 C148.9,78.401 150.8,81.901 153.9,83.801 C151.3,99.601 143.101,114.101 130.801,124.701 C118.201,135.501 102.2,141.5 85.6,141.5 C57.1,141.5 32.7,126.002 21.9,101.102 L21.801,100.801 L14.201,100.801 L14.5,101.5 C25.5,130 53.401,148.4 85.701,148.4 C103.901,148.4 121.6,142.001 135.4,130.301 C148.9,118.901 157.9,103.202 160.9,86.102 C166.6,85.702 171.201,80.901 171.201,75.201 C171.001,68.901 166,63.9 159.9,63.9 Z M11.301,71 C13.601,70.9 15.301,72.7 15.301,74.9 C15.301,77.1 13.501,78.801 11.301,78.801 C9.001,78.801 7.301,77.1 7.301,74.9 C7.301,72.7 9.101,71 11.301,71 Z M160,71 C162.2,70.9 164,72.7 164,74.9 C164,77 162.1,78.801 160,78.801 C157.7,78.801 156,77.1 156,74.9 C156,72.7 157.8,71 160,71 Z" fill="none" stroke="currentColor" stroke-width="1.5"/></svg>