<svg xmlns="http://www.w3.org/2000/svg" viewBox="0 0 166.25 166.667" width="24" height="24"><path d="M135.417,0 C150,0 161.25,11.667 161.25,25.833 C161.25,40 149.583,51.667 135.417,51.667 C121.25,51.667 109.583,40 109.583,25.833 C109.583,24.167 109.583,22.5 110,20.833 C101.667,17.5 92.917,15.417 83.333,15.417 C45.833,15.833 15.833,45.833 15.833,83.333 C15.833,120.833 45.833,150.833 83.333,150.833 C117.917,150.833 146.667,124.583 150.417,90.833 L113.333,90.833 C110,104.167 97.5,114.167 82.917,114.167 C65.833,114.167 51.667,100 51.667,82.917 C51.667,65.833 65.833,51.667 82.917,51.667 C97.5,51.667 109.583,61.667 113.333,75 L166.25,75 L166.25,83.333 C166.25,129.167 128.75,166.667 82.917,166.667 C37.083,166.667 0,129.167 0,83.333 C0,37.5 37.5,0 83.333,0 C95.417,0 107.083,2.5 117.5,7.083 C122.083,2.917 128.333,0 135.417,0 Z M83.333,67.5 C74.583,67.5 67.5,74.583 67.5,83.333 C67.5,92.083 74.583,99.167 83.333,99.167 C92.083,99.167 99.167,92.083 99.167,83.333 C99.167,74.583 92.083,67.5 83.333,67.5 Z" fill="none" stroke="currentColor" stroke-width="1.5"/></svg>