<svg xmlns="http://www.w3.org/2000/svg" viewBox="0 0 185.4 181.2" width="24" height="24"><path d="M73.3,104.1 L73.3,162 C43.7,151.6 24.1,121.6 27.5,88.7 C28.3,81.6 30,75 32.9,68.7 L19.6,60.8 C0,103.3 18.4,153.7 60.8,173.3 C69.6,177.5 79.1,180 89.1,181.2 L89.1,142.4 L104.5,142.4 Z M40.8,55.4 L60.8,67.1 L52.9,80.4 L102.1,72.9 L68.3,53.7 L51.2,44.1 C75,22.9 110.8,20.8 137.4,40.4 C143.2,44.6 148.2,49.6 152,55 L165.3,47.1 C139.1,9.1 86.2,0 47.4,26.6 C39.5,32.4 32.8,39.5 27,47.4 Z M181.2,88.3 C180.4,78.7 177.9,69.5 173.7,60.4 L164.5,65.8 L160.3,68.3 L142,78.7 L139.9,79.9 L132,66.6 L113.7,112.4 L143.3,95.3 L147.1,92.8 L150,90.7 L150.4,90.3 L163.7,82.4 C169.5,113.2 153.3,145.3 123.3,158.6 C116.6,161.1 110.4,163.2 103.3,164 L103.3,179.4 C151.2,176.6 185.4,135 181.2,88.3 Z" fill="none" stroke="currentColor" stroke-width="1.5"/></svg>