<svg xmlns="http://www.w3.org/2000/svg" viewBox="0 0 157.6 160.0" width="24" height="24"><path d="M105,46.3 C115.8,48 125.8,54.2 132.5,61.7 C140.4,70.9 146.3,82.9 147.9,95.5 C149.1,103 148.3,110.1 147.5,117.2 C145,121.8 137.5,132.6 123.3,143.9 C123.7,143.1 124.1,142.6 124.1,141.8 C129.1,131.8 133.7,122.6 134.9,111.8 C136.1,100.6 134.1,88.5 129.5,78.9 C127,73.5 123.3,68.9 118.7,65.1 C117.1,58.4 112.5,52.1 105,46.3 Z M113.8,102.5 C117.6,98.3 119.2,90.8 120.5,81.3 C123.4,86.3 125.1,91.3 125.5,96.7 C127.2,112.1 122.2,127.1 111.3,139.6 C104.6,147.1 96.3,153.4 86.7,157.9 C70.5,160 57.9,156.7 46.7,151.7 C62.1,152.9 78.8,149.2 91.3,140.9 C103.4,132.6 110.9,121.3 113,107.6 C113.8,105.9 113.8,104.2 113.8,102.5 Z M0,88 C9.6,105.9 25.4,120.9 42.1,125.9 C54.6,129.7 66.3,128 77.5,121.3 L78.7,121.3 C82.4,121.3 86.2,120.9 89.9,119.6 C93.2,118.8 96.6,117.1 99.9,115.4 C98.6,117.5 97.4,119.2 96.1,121.2 C89,130 79.8,135.8 69.9,138.3 C64.9,139.5 59.9,140 54.9,140 C43.7,139.6 32,135.8 20.7,129.2 C18.2,127.9 16.1,126.3 14,124.6 C7.5,115.5 0,102.1 0,88 Z M43,101.3 C46.8,108.4 52.6,113.4 60.5,117.5 L54.7,117.5 C38.4,115.8 25.1,107.5 17.2,93.8 C11.4,83.8 8,71.3 7.6,57.1 C7.6,52.1 7.6,47.5 8.4,42.5 C13.8,27.5 22.6,18.7 33.8,14.2 C28.4,22.5 24.6,31.7 22.6,41.3 C19.7,53.8 19.7,65.5 22.2,75.9 C25.4,87.1 32.1,95.9 43,101.3 Z M43.4,55.5 C37.1,62.6 35.9,71.3 35.9,80.5 C29.7,68 29.7,50.1 35.5,36.7 C40.5,26.3 48.4,16.7 59.3,9.6 C66.8,5 74.3,2.1 82.2,0 C98.5,2.1 113,7.5 118,10 L114.7,10 C103,10 91.8,9.6 80.9,13.3 C70.1,17 60.5,22.9 53.8,31.2 C48.8,37.1 44.6,46.3 43.4,55.5 Z M148,41.7 C155.9,52.5 157.6,72.5 157.6,78.8 L157.6,80.1 C157.2,79.3 156.8,78 156.4,77.2 C154.7,73.4 153.5,69.7 151.4,66.4 C146.8,59.3 142.2,53.9 137.2,49.3 C126,39.7 112.2,34.3 100.1,34.7 C95.9,34.7 90.1,35.5 84.7,37.2 C82.6,36.8 80.5,36.8 78.5,36.8 C76.8,36.8 75.2,36.8 73.5,37.2 C71.4,37.6 69.3,37.6 67.3,38.4 C64.4,39.2 61.9,40.1 59.8,41.3 C65.2,33.8 74,28 85.6,24.6 C98.9,20.8 115.6,22.5 130.2,29.6 C136.3,32.1 142.1,36.3 148,41.7 Z" fill="none" stroke="currentColor" stroke-width="1.5"/></svg>