<svg xmlns="http://www.w3.org/2000/svg" viewBox="0 0 169.6 133.108" width="24" height="24"><path d="M82.208,0.14 C72.76,0.263 63.525,3.772 56.4,10.71 L35.2,31.909 C26.8,27.509 16,28.709 8.8,35.909 C0,44.709 0,58.709 8.8,67.509 C13.2,71.909 18.8,73.909 24.4,73.909 C30,73.909 35.999,71.909 39.999,67.509 C47.599,59.909 48.8,49.11 44.4,40.71 L65.599,19.509 C75.599,9.509 92.399,10.709 103.599,21.509 C108.799,26.709 112,33.908 112.4,41.108 C112.8,48.308 110.399,54.709 105.599,59.509 L81.2,83.909 L89.999,92.71 L114.4,68.31 C121.6,61.11 125.2,51.11 124.8,40.71 C124.4,30.31 120,20.31 112.4,12.71 C103.9,4.21 92.917,0 82.208,0.14 Z M79.599,39.909 L55.2,64.31 C40.4,79.11 41.2,104.31 57.2,120.31 C65.6,128.71 76.4,133.108 87.2,133.108 C96.8,133.108 106,129.51 113.2,122.71 L134.4,101.509 C137.6,103.109 141.2,104.31 145.2,104.31 C150.8,104.31 156.8,102.309 160.8,97.909 C169.6,88.309 169.6,73.909 160.8,65.509 C152,56.709 138,56.709 129.2,65.509 C122,72.709 120.8,83.509 125.2,91.909 L103.999,113.108 C93.999,123.108 77.199,121.908 65.999,111.108 C54.799,100.308 53.999,83.108 63.999,73.108 L88.4,48.71 Z M24.8,41.909 C27.2,41.909 29.599,42.71 31.599,44.71 C35.199,48.31 35.199,54.31 31.599,58.31 C27.999,61.91 21.599,61.91 17.999,58.31 C14.399,54.71 14.399,48.31 17.999,44.71 C19.999,42.71 22.4,41.909 24.8,41.909 Z M145.2,71.509 C147.6,71.509 149.999,72.31 151.999,74.31 C155.599,77.91 155.599,84.309 151.999,87.909 C148.399,91.509 142,91.509 138.4,87.909 C134.8,84.309 134.8,77.91 138.4,74.31 C140.4,72.31 142.8,71.509 145.2,71.509 Z" fill="none" stroke="currentColor" stroke-width="1.5"/></svg>