<svg xmlns="http://www.w3.org/2000/svg" viewBox="0 0 183.333 166.667" width="24" height="24"><path d="M150.417,136.25 L152.917,136.667 C171.667,139.167 178.75,143.333 181.667,146.25 C183.333,147.917 183.333,149.167 183.333,150 C183.333,155.417 175.833,159.583 161.667,162.5 L159.583,162.5 C145.417,165 124.583,166.25 94.167,166.667 L94.167,133.75 L98.75,133.75 C120.417,133.75 137.083,134.583 150.417,136.25 Z M34.583,136.25 L34.583,165 L33.75,165 C22.083,162.917 7.083,159.167 1.667,153.333 C0.417,152.083 0,150.833 0,150 C0,149.167 0.417,148.333 1.667,147.083 L2.083,146.667 C4.583,144.583 8.333,142.917 11.25,142.083 C16.667,139.583 24.583,137.917 34.583,136.25 Z M0,42.5 C0.833,42.917 1.25,43.333 2.083,43.333 L3.333,43.75 L7.083,45 C14.583,47.5 22.5,49.583 34.583,51.25 L34.583,115 C22.5,116.25 14.583,118.333 7.5,120.833 C6.667,121.25 6.25,121.25 5.417,121.667 C5,122.083 4.167,122.083 3.75,122.5 L2.5,122.917 L1.667,123.333 L0.833,123.75 L0,124.167 Z M183.333,42.5 L183.333,123.75 L182.5,123.333 L181.667,122.917 C181.25,122.5 180.833,122.5 180.417,122.5 L180,122.5 L178.333,121.667 L177.5,121.25 L176.25,120.833 L175,120.417 L174.167,120 L172.917,119.583 C172.5,119.583 171.667,119.167 171.25,119.167 L170.833,119.167 C170,119.167 169.583,118.75 168.75,118.75 L167.917,118.333 L166.667,117.917 L165,117.5 L162.917,117.083 L162.083,117.083 L160.833,116.667 L158.333,116.667 L156.25,116.25 C155.417,116.25 155,116.25 154.167,115.833 L153.333,115.833 L150.833,115.417 L148.75,115.417 L147.083,115 L145.417,115 C136.25,114.167 125.417,113.333 113.333,112.917 L94.583,112.917 L94.583,54.167 L99.167,54.167 C125.417,53.75 145.417,52.5 160.417,50 L163.75,49.583 L164.583,49.583 L166.25,49.167 L168.333,48.75 L169.583,48.333 L171.25,47.917 L172.917,47.5 L174.583,47.083 C175.417,46.667 176.667,46.25 177.5,46.25 C177.917,46.25 178.333,45.833 179.167,45.833 L180,45.417 L180.833,45 L181.667,44.583 L182.5,44.167 L183.333,43.75 Z M54.583,113.75 L54.583,52.917 C58.75,53.333 65.417,53.333 74.583,53.75 L74.583,112.917 C67.083,112.917 60.833,113.333 54.583,113.75 Z M161.667,4.583 L163.75,5 C172.917,7.083 183.333,10.417 183.333,16.667 C183.333,21.25 175,25.417 160.833,28.333 L159.583,28.75 C144.583,31.667 123.333,32.917 95,32.917 L95,0 L101.25,0 C128.75,0.417 148.333,2.083 161.667,4.583 Z M34.583,1.667 L34.583,30.417 C24.167,29.167 17.917,27.5 12.083,25.417 L11.25,25 L9.583,24.583 C6.667,23.333 2.5,21.25 0.833,18.75 C0.417,18.333 0,17.917 0,17.5 L0,16.667 C0,15 2.083,12.917 5.417,10.833 C9.583,8.333 15,6.25 22.5,4.583 C26.667,3.333 30,2.5 34.583,1.667 Z" fill="none" stroke="currentColor" stroke-width="1.5"/></svg>