<svg xmlns="http://www.w3.org/2000/svg" viewBox="0 0 155.101 165.301" width="24" height="24"><path d="M83.001,0 L83.001,69.9 L147.401,69.9 C149.601,43.2 147.302,18.602 147.302,18.602 C147.302,18.602 132.001,28.8 108.501,16 C99.701,11.2 91.101,5.9 83.001,0 Z M66.7,0.102 C58.6,6.002 50.102,11.3 41.302,16 C17.602,28.7 2.302,18.5 2.302,18.5 C2.302,18.5 0,43.101 2.2,69.801 L66.7,69.801 Z M4.2,86.201 C6.2,98.101 9.302,109.6 14.302,118.5 C30.202,146.9 54.2,159.8 66.7,164.9 L66.7,86.201 Z M83.2,86.5 L83.2,165.301 C88.8,163.001 94.1,160.2 99.2,157 L99.1,123.801 C99.1,119.801 102.401,116.5 106.401,116.5 L106.6,116.5 L106.6,113 C106.6,100.3 116.9,89.9 129.7,89.9 C134.9,89.9 139.901,91.601 144.001,94.801 C144.601,92.101 145.1,89.3 145.6,86.5 Z M130.001,97.5 C121.101,97.5 113.802,104.701 113.802,113.701 C113.802,114.701 113.9,115.702 114.1,116.602 L120.7,116.602 L120.7,113.4 C120.7,108.4 124.801,104.301 129.901,104.301 C134.901,104.301 139.1,108.4 139.1,113.4 L139.1,116.602 L145.802,116.602 C146.002,115.602 146.1,114.601 146.1,113.701 C146.1,104.801 138.901,97.5 130.001,97.5 Z M110.2,121.9 C107.2,121.9 104.802,124.301 104.802,127.301 L104.802,158.701 C104.802,161.701 107.2,164.102 110.2,164.102 L149.6,164.102 C152.6,164.102 155.001,161.701 155.001,158.701 L155.001,127.301 C155.101,124.301 152.6,121.9 149.6,121.9 Z M129.802,131.301 C136.701,140.4 135.302,142.601 133.302,143.801 L133.302,151.701 C133.302,153.401 131.9,154.801 130.2,154.801 L129.6,154.801 C127.9,154.801 126.501,153.401 126.501,151.701 L126.501,143.801 C124.401,142.601 123.1,140.4 123.1,138 Z" fill="none" stroke="currentColor" stroke-width="1.5"/></svg>