<svg xmlns="http://www.w3.org/2000/svg" viewBox="0 0 186.66 186.604" width="24" height="24"><path d="M93.246,0 L87.414,13.623 C47.664,16.531 16.05,48.127 13.121,87.873 L5.83,87.873 L13.08,99.541 L25.246,99.541 L23.58,87.873 L87.414,24.998 L99.08,24.041 L161.705,87.873 L162.914,99.541 L99.08,161.666 L87.414,180.832 L99.08,173.832 C138.83,170.887 170.425,139.291 173.371,99.541 L180.83,99.541 L173.371,87.873 C170.421,48.136 138.817,16.548 99.08,13.623 L99.08,5.832 Z M84.631,42.866 L52.789,130.832 L111.955,99.832 C112.872,100.257 113.863,100.482 114.871,100.498 Z M93.33,52.291 L92.871,79.957 Z M118.486,106.018 L114.164,139.166 L125.121,110.916 Z M134.574,111.678 L130.33,132.998 L141.246,116.998 Z M102.443,112.1 L98.121,132.998 L109.08,116.998 Z" fill="none" stroke="currentColor" stroke-width="1.5"/></svg>