<svg xmlns="http://www.w3.org/2000/svg" viewBox="0 0 162.799 158.699" width="24" height="24"><path d="M129.9,0 C124.1,0 119.5,4.6 119.5,10.4 C119.5,16.2 124.1,20.799 129.9,20.799 C132.8,20.799 134.9,19.6 137,17.9 L142.799,20.4 C147.399,22.1 150.299,27.899 150.299,33.299 L150.299,125.799 C150.299,131.199 147.399,136.999 142.799,138.699 L137.4,140.799 C135.3,138.699 132.8,137.5 129.9,137.5 C124.1,137.5 119.5,142.1 119.5,147.9 C119.5,153.7 124.1,158.299 129.9,158.299 C134.5,158.299 138.2,155.399 139.9,151.199 L147.4,148.699 C156.2,145.799 162.799,135.799 162.799,126.199 L162.799,33.4 C162.399,23.8 155.8,13.799 147,10.799 L139.9,8.299 C139.1,3.699 134.9,0 129.9,0 Z M36.199,0.4 C31.599,0.4 27.399,3.3 26.199,7.5 L15.799,10.799 C7.499,13.699 0,23.3 0,32.5 L0,127.5 C0,136.7 7.499,145.799 16.299,149.199 L26.299,152.5 C27.999,156.3 31.7,158.699 35.9,158.699 C41.7,158.699 46.299,154.099 46.299,148.299 C46.599,142.099 41.999,137.5 36.199,137.5 C32.899,137.5 30,139.199 27.9,141.699 L20.4,139.199 C16.2,137.099 12.5,131.7 12.5,127.1 L12.5,32.5 C12.5,27.9 16.3,22.499 20.4,20.799 L28.699,17.9 C30.799,20 33.299,21.199 36.199,21.199 C41.999,21.199 46.6,16.599 46.6,10.799 C46.6,4.999 41.999,0.4 36.199,0.4 Z M50,35 C45,35 40.799,39.199 40.799,44.199 L40.799,104.6 C40.799,108.4 43.7,111.699 47.9,111.699 L124.9,111.699 C129.9,111.699 134.499,107.5 134.199,102.5 L134.199,44.199 C134.199,39.199 130,35 125,35 Z M53.299,45 L122,45 C123.3,45 124.1,45.9 124.1,47.1 L124.1,80.141 L109.9,66.299 L84,88.9 L66.5,77.199 L51.199,88.227 L51.199,47.1 C51.199,45.8 52.099,45 53.299,45 Z M69.1,53.4 C64.5,53.3 60.799,57.099 60.799,61.699 C60.799,66.299 64.5,70 69.1,70 C73.7,70 77.4,66.299 77.4,61.699 C77.4,57.099 73.7,53.4 69.1,53.4 Z M35.699,54.199 C31.199,54.199 27.4,57.9 27.4,62.5 L27.4,108.299 C27.4,117.899 35.3,125.799 44.9,125.799 L101.6,125.799 C106.2,125.799 109.9,122.099 109.5,117.199 L109.5,115.1 L44.5,115.1 C40.7,115.1 37.4,112.2 37.4,108 L37.4,54.199 Z" fill="none" stroke="currentColor" stroke-width="1.5"/></svg>