<svg xmlns="http://www.w3.org/2000/svg" viewBox="0 0 182.5 182.4" width="24" height="24"><path d="M106.6,140.8 C106.6,137.9 105.8,135.4 104.5,132.9 L132.8,103.7 C135.3,105.4 138.2,106.2 141.1,106.2 C149.4,106.2 156.5,99.1 156.5,90.8 C156.5,82.5 149.4,75.4 141.1,75.4 C138.2,75.4 135.7,76.2 133.2,77.5 L104.4,48.7 C105.7,46.2 106.9,43.7 106.9,40.8 C106.9,32.5 99.8,25.4 91.5,25.4 C83.2,25.4 76.2,32 76.2,40.8 C76.2,43.7 77,46.2 78.3,48.7 L50,78.3 C47.5,76.6 44.6,75.8 42.1,75.8 C33.8,75.8 26.7,82.9 26.7,91.2 C26.7,99.5 33.8,106.6 42.1,106.6 C44.6,106.6 47.5,105.8 49.6,104.5 L78.8,132.8 C77.1,135.3 76.3,138.2 76.3,141.1 C76.3,149.4 83.4,156.5 91.7,156.5 C100,156.5 106.6,149.1 106.6,140.8 Z M84.1,127.5 L54.9,99.2 C55.7,98 56.1,96.7 56.6,95 L77,95 C78.7,101.7 84.9,106.2 91.6,106.2 C98.3,106.2 104.5,101.2 106.2,95 L126.6,95 C127,96.3 127.4,97.5 127.9,98.3 L99.1,127.5 C96.6,126.2 94.1,125.4 91.2,125.4 C88.7,125.4 86.2,126.2 84.1,127.5 Z M91.6,57 C94.1,57 97,56.2 99.1,54.9 L128.3,83.6 C127.5,84.8 127.1,86.1 126.6,87.4 L106.2,87.4 C104.5,80.7 98.3,76.2 91.6,76.2 C84.9,76.2 78.7,81.2 77,87.4 L56.6,87.4 C56.2,86.2 55.8,84.9 55.4,84.1 L84.2,54.9 C86.2,55.8 88.7,57.1 91.6,57 Z M99.1,91.2 C99.1,95.4 95.8,99.1 91.2,99.1 C86.6,99.1 83.3,95.8 83.3,91.2 C83.3,86.6 86.6,83.3 91.2,83.3 C95.8,83.3 99.1,87.1 99.1,91.2 Z M141.2,83.3 C145.4,83.3 149.1,86.6 149.1,91.2 C149.1,95.8 145.8,99.1 141.2,99.1 C137,99.1 133.3,95.8 133.3,91.2 C133.3,86.6 136.6,83.3 141.2,83.3 Z M91.6,33.7 C95.8,33.7 99.5,37 99.5,41.6 C99.5,46.2 95.7,49.1 91.6,49.1 C87.4,49.1 83.7,45.8 83.7,41.2 C83.7,36.6 87,33.7 91.6,33.7 Z M34.1,91.2 C34.1,87 37.4,83.3 42,83.3 C46.6,83.3 49.9,86.6 49.9,91.2 C49.9,95.8 46.6,99.1 42,99.1 C37.4,99.1 34.1,95.4 34.1,91.2 Z M91.6,148.7 C87.4,148.7 83.7,145.4 83.7,140.8 C83.7,136.6 87,132.9 91.6,132.9 C96.2,132.9 99.1,136.7 99.1,140.8 C99.1,144.9 95.4,148.7 91.6,148.7 Z M102.9,166.6 L93.3,174.5 L102.9,182.4 C144.6,177 177.1,144.5 182.5,102.8 L167.1,102.8 C162,135.4 135.8,161.6 102.9,166.6 Z M80,15.8 L89.6,7.9 L80,0 C38.3,5 5.8,37.9 0.4,79.1 L15.8,79.1 C20.8,46.6 47,20.8 80,15.8 Z M182.5,79.6 C177.1,38.4 144.6,5.4 102.9,0.4 L102.9,15.8 C135.8,20.8 162.1,47 166.6,79.6 L174.5,89.2 Z M15.8,102.5 L7.9,92.9 L0,102.5 C5,144.2 37.9,176.7 79.2,182.1 L79.2,166.7 C47,161.6 20.8,135.4 15.8,102.5 Z" fill="none" stroke="currentColor" stroke-width="1.5"/></svg>