<svg xmlns="http://www.w3.org/2000/svg" viewBox="0 0 175.708 121.958" width="24" height="24"><path d="M152.358,53.75 C150.504,23.725 125.667,0 95.267,0 C80.808,0 66.725,5.562 55.975,15.571 C53.746,17.792 53.375,21.5 55.6,23.725 C57.825,25.95 61.533,26.321 63.754,24.096 C72.283,15.942 83.404,11.862 94.896,11.862 C120.104,11.862 140.492,32.25 140.492,57.458 L140.492,57.829 C140.117,60.796 141.971,63.388 144.938,63.758 C155.688,66.354 163.475,75.992 163.475,87.113 L43.371,110.838 C34.846,110.838 26.692,107.504 20.758,101.2 C14.829,94.9 11.492,86.742 11.862,78.217 C12.237,62.275 25.579,48.562 41.517,47.45 C59.312,51.154 62.646,53.383 65.612,56.346 C65.987,56.717 66.725,57.088 86.742,74.879 L68.95,90.45 C66.725,92.675 66.354,96.008 68.579,98.604 C70.804,101.2 74.142,101.2 76.733,98.979 L95.642,82.296 C100.087,86.371 105.65,90.821 111.95,96.379 C114.917,98.975 118.992,99.346 122.329,97.862 C126.038,96.379 128.263,92.675 128.263,88.967 L128.263,60.425 C128.263,56.346 126.038,53.008 122.329,51.525 C118.621,50.046 114.546,50.412 111.954,53.008 L95.271,67.467 C77.479,52.267 73.771,48.933 73.396,48.192 C18.537,37.071 0.742,55.604 0.371,77.846 C0,89.708 4.45,100.829 12.604,108.983 C20.758,117.513 31.879,121.958 43.371,121.958 L140.121,121.958 C159.771,121.958 175.342,106.021 175.342,86.742 C175.708,71.917 166.071,58.571 152.358,53.75 Z" fill="none" stroke="currentColor" stroke-width="1.5"/></svg>