<svg xmlns="http://www.w3.org/2000/svg" viewBox="0 0 158.332 158.332" width="24" height="24"><path d="M0,0 L0,37.5 L12.5,37.5 L12.5,12.5 L37.5,12.5 L37.5,0 Z M120.832,0 L120.832,12.5 L145.832,12.5 L145.832,37.5 L158.332,37.5 L158.332,0 Z M105,19.582 L105,26.666 C102.5,27.083 100.415,28.333 98.332,29.166 L93.332,24.166 L86.666,30.832 L91.666,35.832 C90.416,37.915 89.583,40 88.75,42.5 L81.666,42.5 L81.666,52.082 L88.75,52.082 C89.167,54.582 90,56.667 91.25,58.75 L86.25,63.75 L92.916,70.416 L97.916,65.416 C99.999,66.666 102.082,67.499 104.582,68.332 L104.582,75.416 L114.166,75.416 L114.166,68.332 C116.666,67.915 118.749,66.665 120.832,65.832 L125.832,70.832 L132.5,64.166 L127.5,59.166 C128.75,57.083 129.583,55 130.416,52.5 L137.5,52.5 L137.5,42.916 L130.416,42.916 C129.999,40.416 128.749,38.333 127.916,36.25 L132.916,31.25 L126.25,24.582 L121.25,29.582 C119.167,28.332 117.082,27.499 114.582,26.666 L114.582,19.582 Z M108.119,33.748 C108.6,33.723 109.087,33.724 109.582,33.75 C117.082,33.75 123.75,39.999 123.75,47.916 C123.75,55.416 117.499,62.082 109.582,62.082 C101.665,62.082 95.416,55.833 95.416,47.916 C95.416,40.104 100.909,34.122 108.119,33.748 Z M109.582,40.832 C105.415,40.832 102.5,44.166 102.5,47.916 C102.083,51.249 105.415,55 109.582,55 C113.749,55 116.666,51.666 116.666,47.916 C116.666,43.749 113.332,40.832 109.582,40.832 Z M50.832,57.916 L38.332,63.75 L42.5,72.916 C39.583,74.999 37.083,77.915 35.416,80.832 L25.832,77.5 L20.832,90.832 L30.416,94.166 C29.999,97.499 29.999,101.249 30.832,104.582 L21.666,108.75 L27.5,121.25 L36.666,117.082 C39.166,119.999 41.667,122.499 45,124.582 L41.666,134.166 L54.582,138.75 L57.916,129.166 C61.249,129.583 64.999,129.583 68.332,128.75 L72.5,137.916 L85,132.082 L80.832,122.916 C83.749,120.833 86.249,117.917 87.916,115 L97.5,118.332 L102.082,105.416 L92.5,102.082 C92.917,98.749 92.915,94.999 92.082,91.666 L101.25,87.5 L95.416,75 L86.25,79.166 C84.167,76.249 81.249,73.749 78.332,72.082 L81.666,62.5 L68.75,57.916 L65.416,66.666 C62.083,66.249 58.333,66.249 55,67.082 Z M62.719,77.504 C69.997,77.837 76.979,82.134 80.416,89.582 C85.416,99.582 81.249,112.082 70.416,117.082 C59.583,122.082 47.916,117.915 42.916,107.082 C37.916,96.249 42.499,84.582 52.916,79.582 C56.041,78.02 59.411,77.352 62.719,77.504 Z M61.748,87.699 C60.195,87.705 58.605,88.047 57.082,88.75 C51.665,91.25 49.582,97.499 52.082,102.916 C54.165,107.916 60.833,110.416 66.25,107.916 C71.667,105.416 73.75,99.167 71.25,93.75 C69.453,89.857 65.718,87.684 61.748,87.699 Z M0,120.832 L0,158.332 L37.5,158.332 L37.5,145.832 L12.5,145.832 L12.5,120.832 Z M145.832,120.832 L145.832,145.832 L120.832,145.832 L120.832,158.332 L158.332,158.332 L158.332,120.832 Z" fill="none" stroke="currentColor" stroke-width="1.5"/></svg>