<svg xmlns="http://www.w3.org/2000/svg" viewBox="0 0 187.6 185.0" width="24" height="24"><path d="M170.9,79.2 L170.9,148.1 L85.5,185 L0,148.1 L0,33.2 L85.5,0 L170.9,33.2 L170.9,46.1 L146.5,46.1 L85.5,22.4 L20.9,47.5 L20.9,134.4 L85.5,162.3 L150.1,134.4 L150.1,79.2 L133.4,79.2 L133.4,58.4 L187.6,58.4 L187.6,79.2 Z M37.5,58.4 L58.3,58.4 L58.3,136.7 L37.5,127.5 Z M100,133.4 C86.2,133.4 75,122.2 75,108.4 C75,94.6 86.2,83.4 100,83.4 C113.8,83.4 125,94.6 125,108.4 C125,122.2 113.8,133.4 100,133.4 Z" fill="none" stroke="currentColor" stroke-width="1.5"/></svg>