<svg xmlns="http://www.w3.org/2000/svg" viewBox="0 0 158.699 159.1" width="24" height="24"><path d="M5.4,0 C2.5,0 0,2.5 0,5.4 L0,32.5 C0,35.8 2.5,38.301 5.4,38.301 C8.3,38.301 10.799,35.8 10.799,32.9 L10.799,13.301 C10.799,13.301 10.799,10.801 13.299,10.801 L32.5,10.801 C35.4,10.801 37.9,8.3 37.9,5.4 C37.9,2.5 35.4,0 32.5,0 Z M125.799,0.4 C122.899,0.4 120.4,2.901 120.4,5.801 C120.4,8.701 122.899,11.199 125.799,11.199 L145.4,11.199 C147.9,11.199 147.9,13.699 147.9,13.699 L147.9,32.9 C147.9,35.8 150.399,38.301 153.299,38.301 C156.199,38.301 158.699,35.8 158.699,32.9 L158.699,5.801 C158.299,2.901 155.8,0.4 152.9,0.4 Z M57.9,18.699 C55,18.699 52.9,21.199 52.9,23.699 L52.9,35.801 L47.9,35.801 C41.2,35.801 35.4,41.201 35.4,48.301 L35.4,53.301 L22.9,53.301 C19.6,52.901 17.1,55 17.1,57.9 C17.1,60.8 19.6,62.9 22.1,62.9 L34.6,62.9 L34.6,74.1 L22.1,74.1 C19.2,74.1 17.1,76.6 17.1,79.1 C17.1,82 19.6,84.1 22.1,84.1 L34.6,84.1 L34.6,95.301 L22.1,95.301 C19.2,95.301 17.1,97.801 17.1,100.301 C17.1,103.201 19.6,105.301 22.1,105.301 L34.6,105.301 L34.6,110.301 C34.6,117.001 40,122.801 47.1,122.801 L52.1,122.801 L52.1,135 C52.1,137.9 54.6,140 57.1,140 C60,140 62.1,137.5 62.1,135 L62.1,122.9 L73.299,122.9 L73.299,135 C73.299,137.9 75.799,140 78.299,140 C81.199,140 83.299,137.5 83.299,135 L83.299,122.9 L94.6,122.9 L94.6,135 C94.6,137.9 97.1,140 99.6,140 C102.5,140 104.6,137.5 104.6,135 L104.6,122.9 L109.6,122.9 C116.3,122.9 122.1,117.5 122.1,110.4 L122.1,106.6 L122.9,106.699 L135,106.699 C137.9,106.699 140,104.199 140,101.699 C140,98.799 137.5,96.699 135,96.699 L122.9,96.699 L122.9,85.5 L135,85.5 C137.9,85.5 140,83 140,80.5 C140,77.6 137.5,75.5 135,75.5 L122.9,75.5 L122.9,63.301 L135,63.301 C137.9,63.301 140,60.801 140,58.301 C140,55.401 137.5,53.301 135,53.301 L122.9,53.301 L122.9,48.301 C122.9,41.601 117.5,35.801 110.4,35.801 L105.4,35.801 L105.4,23.699 C105.4,20.799 102.9,18.699 100.4,18.699 C97.5,18.699 95.4,21.199 95.4,23.699 L95.4,35.801 L84.199,35.801 L84.199,23.699 C84.199,20.799 81.699,18.699 79.199,18.699 C76.299,18.699 74.199,21.199 74.199,23.699 L74.199,35.801 L62.9,35.801 L62.9,23.699 C62.9,20.799 60.4,18.699 57.9,18.699 Z M47.1,43.301 L110.4,43.301 C112.9,43.301 115,45.4 115,47.9 L115,111.199 C115,113.699 112.9,115.801 110.4,115.801 L47.1,115.801 C44.6,115.801 42.5,113.699 42.5,111.199 L42.5,47.9 C42.5,45.4 44.6,43.301 47.1,43.301 Z M56.299,48.801 C51.699,48.801 48,52.6 48,57.1 L48,102.5 C48,107.1 51.799,110.801 56.299,110.801 L101.699,110.801 C106.299,110.801 110,107 110,102.5 L110,57.1 C109.6,52.5 105.899,48.801 101.299,48.801 Z M56.299,56.699 L101.699,56.699 C101.699,56.699 102.1,56.7 102.1,57.1 L102.1,102.5 L101.699,102.5 L56.299,102.9 C56.299,102.9 55.9,102.9 55.9,102.5 L55.9,57.1 C55.9,57.1 55.899,56.699 56.299,56.699 Z M93.088,64.287 C91.6,64.3 90.049,64.801 88.799,65.801 L72.5,82 L70.799,80.301 C68.299,77.801 64.6,77.801 62.5,80.301 C60,82.801 60,86.5 62.5,88.6 L68.299,94.4 C70.799,96.9 74.5,96.9 76.6,94.4 L97,74 C99.5,71.5 99.5,67.799 97,65.699 C96,64.749 94.575,64.275 93.088,64.287 Z M5.5,120.801 C2.6,120.801 0.1,123.299 0.1,126.199 L0.1,155 C0.5,155 0.5,155.4 0.5,155.4 C1.3,157.5 3,158.699 5.5,158.699 L32.6,158.699 C35.5,158.699 38,156.201 38,153.301 C37.9,150.401 35.4,148.301 32.5,148.301 L13.4,148.301 C10.9,148.301 10.9,145.801 10.9,145.801 L10.9,126.199 C10.9,123.299 8.4,120.801 5.5,120.801 Z M152.9,120.801 C150,120.801 147.5,123.299 147.5,126.199 L147.5,145.801 C147.5,145.801 147.5,148.301 145,148.301 L125.4,148.301 C122.5,148.301 120,150.799 120,153.699 C120,156.599 122.5,159.1 125.4,159.1 L152.5,159.1 C155.4,159.1 157.9,156.599 157.9,153.699 L157.9,126.6 C158.4,123.3 155.8,120.801 152.9,120.801 Z" fill="none" stroke="currentColor" stroke-width="1.5"/></svg>