<svg xmlns="http://www.w3.org/2000/svg" viewBox="0 0 183.5 110.1" width="24" height="24"><path d="M2.1,0 C0.9,0 0,0.8 0,2.1 L0,107.5 C0,108.8 0.8,109.6 2.1,109.6 L21.699,109.6 C22.899,109.6 24.201,108.4 23.801,107.5 L23.801,51.301 L38.4,51.301 C33.4,57.101 30.5,65.1 30.5,73.4 C30.5,93.8 46.699,110.1 67.199,110.1 C69.699,110.1 72.199,109.701 74.699,109.301 L147.199,109.301 C148.399,109.301 149.301,108.499 149.301,107.199 L183.5,1.801 C183.4,1.301 182.501,0 181.301,0 L161.699,0 C160.499,0 159.6,0.8 159.6,2.1 L136.301,72.5 L112.6,2.1 C112.6,0.9 111.8,0 110.5,0 L91.699,0 C90.499,0 89.6,0.8 89.6,2.1 L120.801,94.6 L97.1,94.6 C101.3,88.8 104.199,81.3 104.199,73.4 C104.199,53 88,36.699 67.5,36.699 L23.4,36.699 L23.4,2.1 C23.4,0.9 22.601,0 21.301,0 L2.1,0 Z M23.4,39.6 L52.5,39.6 L47.5,42.1 L23.4,42.1 L23.4,39.6 Z M23.4,45.4 L43.4,45.4 C42.6,46.2 41.3,47.1 40.5,47.9 L23.4,47.9 L23.4,45.4 Z M67.1,56.699 C75.8,56.699 83.4,63.8 83.4,72.9 C83.4,81.6 76.3,88.699 67.1,88.699 C58.4,88.699 51.301,81.7 51.301,72.9 C51.301,64.1 58.4,56.699 67.1,56.699 Z M67.1,67.1 C63.9,67.1 61.301,69.7 61.301,72.9 C61.301,76.1 63.9,78.699 67.1,78.699 C70.3,78.699 72.9,76.1 72.9,72.9 C72.9,69.7 70.3,67.1 67.1,67.1 Z M94.199,97.9 L121.699,97.9 L122.5,100.4 L91.699,100.4 L94.199,97.9 Z M87.9,103.301 L123.301,103.301 L124.1,105.801 L83.4,105.801 C85,105.401 86.7,104.601 87.9,103.301 Z" fill="none" stroke="currentColor" stroke-width="1.5"/></svg>