<svg xmlns="http://www.w3.org/2000/svg" viewBox="0 0 172.398 199.0" width="24" height="24"><path d="M86.199,0 L0,49.699 L0,108.6 L12.5,108.6 L12.5,57 L86.199,14.4 L100.6,22.699 L106.799,11.9 Z M121.299,20.301 L115.1,31.1 L159.898,57 L159.898,142.1 L145.398,150.5 L151.6,161.301 L172.398,149.301 L172.398,49.699 Z M86.199,28.699 L24.699,64 L24.699,134.801 L86.199,170.301 L86.199,154.197 C116.353,154.143 140.699,129.666 140.699,99.6 C140.799,69.3 116.399,44.9 86.199,44.9 L86.199,55.4 C87.299,55.8 91,60.199 94,70.699 C91.4,71.099 88.799,71.199 86.199,71.199 L86.199,81.699 C89.499,81.699 92.8,81.5 96.1,81 C96.8,85.4 97.198,89.901 97.398,94.301 L86.199,94.301 L86.199,104.699 L97.299,104.699 C97.099,109.199 96.7,113.6 96,118 C92.718,117.503 89.436,117.305 86.154,117.303 C86.169,117.302 86.184,117.302 86.199,117.301 L86.199,104.801 L75.1,104.801 C75.2,109.301 75.699,113.7 76.299,118.1 C79.566,117.605 82.833,117.406 86.1,117.305 L86.1,127.801 C86.111,127.801 86.122,127.803 86.133,127.803 C83.555,127.806 80.976,128.003 78.398,128.301 C81.364,138.679 85.004,143.08 86.15,143.664 C86.136,143.671 86.113,143.693 86.1,143.699 L86.1,154.098 C55.946,154.044 31.6,129.667 31.6,99.5 C31.6,69.3 56.099,44.9 86.199,44.9 Z M86.199,94.301 L86.199,81.801 C82.899,81.801 79.599,81.5 76.299,81 C75.599,85.4 75.2,89.901 75.1,94.301 Z M86.199,71.199 L86.199,55.4 C85.199,55.6 81.398,59.899 78.398,70.699 C80.998,70.999 83.599,71.199 86.199,71.199 Z M72.1,57.801 C67.6,59.401 63.4,61.6 59.6,64.5 C62.4,66 65.4,67.301 68.5,68.301 C69.3,64.801 70.6,61.201 72.1,57.801 Z M100.299,57.801 C104.899,59.401 109.1,61.6 113,64.5 C110.2,66 107.2,67.301 104.1,68.301 C103.1,64.701 101.899,61.201 100.299,57.801 Z M120.699,72 C125.899,78.4 129.1,86.101 130,94.301 L107.799,94.1 C107.599,88.9 107.099,83.8 106.299,78.6 C111.399,77 116.199,74.8 120.699,72 Z M51.6,72.199 C46.5,78.599 43.299,86.3 42.299,94.4 L64.6,94.4 C64.8,89.1 65.3,83.899 66.1,78.699 C61,77.099 56.2,74.899 51.6,72.199 Z M107.799,104.6 L130,104.6 C129.1,112.8 125.799,120.5 120.699,126.9 L120.699,126.801 C116.199,124.101 111.299,121.901 106.299,120.301 C107.099,115.101 107.599,109.9 107.799,104.6 Z M42.398,104.699 C43.398,112.799 46.599,120.5 51.699,126.9 C56.199,124.1 61.099,121.901 66.199,120.301 C65.299,115.201 64.799,109.899 64.699,104.699 Z M0,125.301 L0,149.301 L86.199,199 L137.199,169.6 L131,158.801 L86.199,184.6 L12.5,142.1 L12.5,125.301 Z M86.199,127.805 C88.766,127.81 91.332,128.005 93.898,128.301 C90.965,138.566 87.476,142.973 86.199,143.633 Z M104.1,130.6 C107.2,131.6 110.1,132.9 113,134.4 C109.2,137.3 104.899,139.599 100.299,141.199 C101.899,137.799 103.1,134.2 104.1,130.6 Z M68.1,130.699 C65.1,131.699 62.198,133 59.398,134.5 C63.198,137.4 67.398,139.701 71.898,141.301 C70.298,137.901 69.1,134.299 68.1,130.699 Z" fill="none" stroke="currentColor" stroke-width="1.5"/></svg>