<svg xmlns="http://www.w3.org/2000/svg" viewBox="0 0 188.801 139.9" width="24" height="24"><path d="M124.5,0 C117.4,0 112,5.799 112,13.299 C112,19.099 116.202,24.099 121.602,25.799 L121.602,35 C112.002,37.4 104.5,46.6 104.5,57.4 C104.5,68.2 112.002,77 121.602,79.9 L121.602,87.799 C116.202,89.099 112,94.499 112,100.299 C112,107.399 117.8,113.199 124.9,113.199 C132,113.199 137.801,107.399 137.801,100.299 C137.801,94.499 134.002,89.499 128.602,87.799 L128.602,79.5 C136.102,79.1 142.4,75.3 146.5,69.9 L161.102,78.199 C161.102,78.599 160.701,79 160.701,79.4 C160.701,86.5 166.502,92.299 173.602,92.299 C180.702,92.299 186.5,86.5 186.5,79.4 C186.1,72.3 180.702,66.9 173.602,66.9 C169.402,66.9 166.101,69 163.201,71.9 L149,63.6 C149.8,61.1 150.201,59 150.201,56.5 C150.201,52.7 149.401,49.4 147.701,46.9 L163.9,37.699 C166.4,40.199 169.702,41.5 173.102,41.5 C180.202,41.5 186,35.7 186,28.6 C186,21.5 180.202,15.699 173.102,15.699 C166.002,15.699 160.301,21.599 160.301,28.699 C160.301,29.499 160.701,30.8 160.701,31.6 L144,41.199 C139.8,36.999 134.401,34.099 128.201,33.699 L128.201,25.4 C133.601,23.7 137.4,18.7 137.4,12.9 C137.4,5.8 131.6,0 124.5,0 Z M82.9,11.6 C54.1,11.6 30,34.099 27.5,62.799 C11.3,67.799 0,83.199 0,100.299 C0,121.999 17.502,139.9 39.602,139.9 L148.801,139.9 C170.501,139.9 188,122.399 188.4,100.699 C188.4,100.299 188.401,99.9 188.801,99.5 L174.9,101.199 C173.7,114.999 162.802,125.4 149.102,125.4 L39.9,125.4 C25.7,125.4 14.102,113.7 14.102,99.6 C14.102,86.7 23.301,75.899 35.801,73.799 L41.201,73 L41.201,66.6 C41.201,43.3 60.401,24.5 83.301,24.5 C88.701,24.5 93.701,25.3 98.301,27.4 C100.401,23.6 102.9,19.899 105.4,16.199 C98.3,13.299 90.8,11.6 82.9,11.6 Z" fill="none" stroke="currentColor" stroke-width="1.5"/></svg>