<svg xmlns="http://www.w3.org/2000/svg" viewBox="0 0 144.0 139.018" width="24" height="24"><path d="M96.752,0.018 C94.225,0 91.878,0.277 89.73,0.844 L88.1,1.279 L81.229,3.129 L63.617,7.9 L46.543,12.535 L0,25.191 L0,120.891 L68.275,139.018 L144,118.719 L144,96.002 L99.561,83.984 L121.738,78.061 L122.16,77.955 C136.056,74.375 144,62.769 144,45.639 C144,28.336 134.076,10.309 110.76,2.582 C105.669,0.895 100.963,0.047 96.752,0.018 Z M97.121,11.393 C99.956,11.47 103.344,12.104 107.182,13.377 C123.962,18.937 132.625,31.198 132.625,45.639 C132.625,57.919 127.837,64.869 119.041,67.014 L118.922,67.045 L93.936,73.717 L93.936,94.242 L132.625,104.705 L132.625,109.994 L68.262,127.25 L11.375,112.145 L11.375,33.881 L55.822,21.797 L80.701,15.053 L89.68,12.629 L92.641,11.838 C93.919,11.5 95.42,11.346 97.121,11.393 Z M62.879,37.748 L44.654,42.643 L65.783,48.238 L65.783,101.729 L83.926,96.943 L83.926,43.373 L83.971,43.359 L83.926,43.348 L83.926,43.338 L83.906,43.342 Z M40.898,43.682 L22.756,48.467 L22.756,102.037 L22.713,102.051 L22.756,102.063 L22.756,102.073 L22.775,102.069 L43.805,107.662 L62.027,102.768 L40.898,97.172 Z" fill="none" stroke="currentColor" stroke-width="1.5"/></svg>