<svg xmlns="http://www.w3.org/2000/svg" viewBox="0 0 163.2 149.4" width="24" height="24"><path d="M54.3,107.5 C53.5,107.5 52.7,107.3 52,106.9 C50.6,106.1 49.7,104.5 49.7,102.9 L49.7,69.9 C49.7,67.3 51.8,65.2 54.4,65.3 C55.2,65.3 56,65.5 56.7,65.9 L85.3,82.4 C86.7,83.2 87.6,84.8 87.6,86.4 C87.6,88 86.7,89.6 85.3,90.4 L56.7,106.9 C55.9,107.3 55.1,107.5 54.3,107.5 Z M35.9,99.2 C36,99.2 35.9,99.2 35.9,99.2 Z M107.3,96.2 L130.3,96.2 C124.2,126.7 96.9,149.4 64.7,148.7 C28.6,147.9 0,117.9 0.8,81.9 C1.6,46.6 30.2,18.6 65.1,18 L81.7,17.9 L66.2,40.3 C42.9,40.3 23.7,58.9 23.2,82.4 C22.7,106.2 41.5,125.9 65.3,126.4 C84.9,126.8 101.7,114 107.3,96.2 Z M110.1,79.2 C108.7,62.6 99.8,47.6 85.9,38.4 L92.5,30.1 C108.3,40.9 119.1,58.5 120.7,78.5 Z M131.9,76.8 C130.2,54.8 118.4,35.4 101.1,23.3 L107.7,15 C127.3,28.8 140.6,51 142.5,76 Z M152.7,73.2 C150.7,46.6 136.7,23.1 115.9,8.3 L122.5,0 C145.5,16.6 161,42.8 163.2,72.4 Z" fill="none" stroke="currentColor" stroke-width="1.5"/></svg>