<svg xmlns="http://www.w3.org/2000/svg" viewBox="0 0 158.232 150.604" width="24" height="24"><path d="M0,0 L0,150 L83.332,150 L83.332,133.346 L16.666,133.346 L16.666,17.633 L116.666,17.633 L116.666,75.059 L133.332,75.059 L133.332,0 Z M33.332,42.857 L33.332,55.346 L100,55.346 L100,42.857 Z M33.332,67.838 L33.332,80.324 L100,80.324 L100,67.838 Z M127.641,87.5 C127.135,87.495 126.63,87.504 126.125,87.525 C104.738,94.912 98.517,102.946 96.559,112.004 C96.092,114.004 95.863,116.05 95.842,118.096 C96.725,119.479 97.6,120.866 98.783,122.041 C99.775,122.924 101.066,123.621 102.482,123.463 C104.199,123.588 105.671,122.463 106.691,121.268 C109.025,118.43 110.432,114.959 113.148,112.393 C115.528,110.163 119.374,109.475 122.416,110.85 C128.665,117.241 129.908,120.171 132.258,122.313 C133.833,123.725 136.499,123.93 138.262,122.713 C140.17,121.4 141.241,119.345 142.449,117.482 C144.058,114.924 145.787,112.172 148.732,110.83 C151.345,109.722 154.554,109.955 156.871,111.58 C157.142,111.772 157.391,111.967 157.641,112.176 L148.266,95.775 C142.707,90.631 135.219,87.577 127.641,87.5 Z M33.332,92.816 L33.332,105.305 L75,105.305 L75,92.816 Z M152.27,117.252 C151.095,117.226 149.908,117.54 149.004,118.184 C147.225,119.442 146.207,121.246 144.99,122.875 C143.432,125.05 141.758,127.412 138.908,128.508 C136.025,129.67 132.362,129.188 130.037,127.342 C126.937,125.063 125.662,121.608 123.045,119.008 C122.128,118.145 120.944,117.288 119.49,117.301 C118.594,117.242 117.637,117.238 116.846,117.643 C114.396,118.809 113.195,121.051 111.762,122.988 C110.362,124.901 108.941,126.97 106.57,128.137 C104.337,129.287 101.386,129.5 99.023,128.5 C98.332,128.229 97.658,127.887 97.066,127.471 C113.242,147.905 121.428,150.604 129.428,149.883 C135.844,149.474 142.07,146.908 147.012,142.824 C157.428,120.343 156.574,119.266 155.457,118.35 L155.461,118.35 C154.607,117.641 153.445,117.277 152.27,117.252 Z" fill="none" stroke="currentColor" stroke-width="1.5"/></svg>