<svg xmlns="http://www.w3.org/2000/svg" viewBox="0 0 166.668 137.706" width="24" height="24"><path d="M44.191,0 L44.191,16.492 L60.68,16.492 L60.68,32.98 L44.191,32.98 L44.191,16.492 L20.691,16.492 L0,117.014 L145.971,137.705 L166.668,37.188 L122.477,16.492 L122.477,32.98 L105.984,32.98 L105.984,16.492 L60.684,16.492 L60.684,0 Z M105.984,16.492 L122.477,16.492 L122.477,0 L105.984,0 Z M81.191,41.117 L87.709,68.504 L80.488,70.221 L78.904,63.566 L78.9,63.563 L59.658,104.797 L50.867,84.289 L47.643,90.75 L33.783,90.75 L33.783,83.334 L43.051,83.334 L51.389,66.646 L59.951,86.621 Z M136.375,52.951 L139.643,67.605 L135.209,65.688 L133.076,64.746 L122.422,89.996 L122.146,90.738 L120.525,90.75 L103.264,90.75 L94.625,129.605 L81.596,74.885 L88.816,73.168 L94.379,96.51 L97.309,83.33 L120.525,83.33 L129.426,63.014 L123.238,60.187 Z" fill="none" stroke="currentColor" stroke-width="1.5"/></svg>