<svg xmlns="http://www.w3.org/2000/svg" viewBox="0 0 166.668 166.668" width="24" height="24"><path d="M83.334,0 C37.313,0 0,37.309 0,83.334 C0,129.359 37.313,166.668 83.334,166.668 C129.359,166.668 166.668,129.359 166.668,83.334 C166.668,37.309 129.359,0 83.334,0 Z M84.113,20.859 C103.638,20.859 122.383,30.229 134.096,45.846 L145.029,40.379 L143.471,65.371 C143.471,67.717 140.346,69.275 138.779,67.717 L117.697,53.654 L128.629,48.197 C117.696,34.914 101.297,27.105 84.113,27.105 C57.563,27.105 34.135,45.063 27.885,70.838 C27.106,72.4 26.322,73.18 23.984,73.18 C22.422,73.18 21.639,71.617 21.639,69.275 C28.668,41.159 54.442,20.859 84.113,20.859 Z M60.357,56.184 C64.73,56.316 68.7,59.6 69.451,64.033 C70.664,69.379 67.096,74.376 60.959,75.021 L60.959,90.713 C60.676,93.705 61.889,96.7 63.672,99.059 C64.243,98.488 64.884,97.846 65.455,97.559 C68.738,95.492 73.234,96.346 75.301,99.629 C78.656,96.7 79.51,93.779 79.227,90.783 L79.227,78.867 C79.868,69.096 83.435,64.604 87.852,62.533 C88.71,59.537 90.779,57.471 93.779,57.184 C97.629,56.542 101.197,59.252 101.768,63.102 C105.618,65.46 108.613,69.663 108.613,78.867 L108.613,91.713 C111.613,92.28 114.25,94.633 115.463,97.629 C117.246,102.408 114.897,108.047 109.826,109.83 C105.047,111.613 99.412,109.264 97.629,104.197 C95.846,99.414 98.197,93.779 103.268,91.996 L103.268,78.584 C103.834,75.021 102.621,71.447 100.555,68.451 C95.563,72.026 91.063,71.164 88.996,67.885 C86.929,69.664 85.147,72.951 84.863,78.867 L84.863,90.496 C85.147,94.996 83.717,99.414 80.721,102.697 C79.579,103.556 78.367,104.484 76.871,105.051 C76.3,107.692 73.947,110.113 70.947,110.4 C67.097,111.042 63.53,108.33 62.959,104.484 C59.392,102.693 56.68,98.487 56.396,90.783 L56.396,74.447 C49.831,62.245 53.4,57.184 58.467,56.326 C59.1,56.21 59.733,56.164 60.358,56.183 Z M60.322,61.389 C57.897,61.389 55.822,63.171 55.822,65.525 C55.822,67.88 57.609,69.951 59.959,69.951 C62.317,70.235 64.384,68.45 64.459,65.812 C64.459,63.458 62.743,61.389 60.322,61.389 Z M142.104,93.305 C142.297,93.334 142.492,93.394 142.688,93.492 C144.25,93.492 145.029,95.055 145.029,97.396 C138,125.513 112.23,145.812 82.555,145.812 C63.03,145.812 44.285,136.437 32.572,120.816 L21.639,126.293 L23.201,101.301 C23.201,98.955 26.326,97.397 27.885,98.955 L48.967,113.797 L38.039,119.264 C48.972,132.539 65.371,140.346 82.555,140.346 C109.109,140.346 132.533,121.605 138.779,95.834 C139.465,94.47 140.747,93.101 142.104,93.305 Z M106.617,97.271 C104.192,97.271 102.41,99.054 102.48,101.408 C102.48,103.762 104.263,105.547 106.617,105.547 C110.76,99.337 108.971,97.271 106.617,97.271 Z" fill="none" stroke="currentColor" stroke-width="1.5"/></svg>