<svg xmlns="http://www.w3.org/2000/svg" viewBox="0 0 173.9 175.4" width="24" height="24"><path d="M135.2,116.6 L155.2,167.8 L144.6,167.8 L139.9,155.4 L118.9,155.4 L114.5,167.8 L103.9,167.8 L123.9,116.6 Z M129.5,124.5 L129.3,124.5 C129.3,124.8 129.1,125.5 128.8,126.5 C128.5,127.8 128.2,128.7 128.1,129.2 C127.9,129.5 125.7,135.8 121.4,148 L138,148 C133.5,135.6 131.2,129.3 131.1,129 C130.4,127.5 129.9,126.1 129.5,124.5 Z M160.9,167.8 L160.9,116.6 L170.8,116.6 L170.8,167.8 Z M87,162.1 C46.4,162.1 13.4,128.7 13.4,87.7 C13.4,46.7 46.4,13.4 87,13.4 C127.6,13.4 160.6,46.7 160.6,87.7 C160.7,91.4 163.8,94.3 167.5,94.1 C171,94 173.8,91.2 173.9,87.7 C173.9,39.4 134.9,0 86.9,0 C38.9,0 0,39.4 0,87.7 C0,136.1 39,175.4 87,175.4 C90.7,175.4 93.7,172.4 93.7,168.7 C93.7,165 90.7,162.1 87,162.1 Z M124.3,71.9 L76.3,44.7 C73.2,43 70.2,42 67.3,42 C60.8,42 54.1,46.8 54.1,57.3 L54.1,111.8 C54.1,122.5 60.7,127.1 67.3,127.1 C70.2,127.1 73.2,126.3 76.3,124.4 L124.2,97.2 C129.6,94.1 132.9,89.6 132.9,84.6 C132.9,79.6 129.7,75 124.3,71.9" fill="none" stroke="currentColor" stroke-width="1.5"/></svg>