<svg xmlns="http://www.w3.org/2000/svg" viewBox="0 0 202.1 183.4" width="24" height="24"><path d="M154.6,73.8 C162.1,78 166.7,84.6 166.7,91.7 C166.7,98.8 162.1,105 154.6,109.2 L87.5,147.1 C83.3,149.6 78.8,150.9 75,150.9 C65.8,150.9 56.3,144.7 56.3,129.7 L56.3,53.4 C56.3,38.8 65.9,32.2 75,32.2 C79.2,32.2 83.3,33.4 87.5,36 L154.6,73.8 M104.6,123.8 L111.7,116.7 C113,115.4 113.8,113.4 113.8,111.7 C113.8,110.4 113.4,109.2 113,108.4 C115.5,109.7 119.2,109.2 121.3,107.2 L128.4,100.1 C129.6,98.9 130.5,96.8 130.5,95.1 C130.5,93 129.7,91.3 128.4,90.1 L121.3,83 C119.2,80.9 115.5,80.1 113,81.8 C113.4,80.6 113.8,79.7 113.8,78.5 C113.8,76.4 113,74.7 111.7,73.5 L104.6,66.4 C101.7,63.5 97.1,63.5 94.2,66.4 L87.1,73.5 C85.9,74.7 85,76.8 85,78.5 C85,79.7 85.4,81 85.8,81.8 C83.3,80.6 79.6,81 77.5,83 L70.4,89.2 C69.2,90.4 68.3,92.5 68.3,94.2 C68.3,95.9 69.1,98 70.4,99.2 L77.5,106.3 C79.6,108.4 83.3,109.2 85.8,107.5 C84.1,110.4 84.6,113.7 87,116.3 L94.1,123.4 C95.3,124.7 97.4,125.5 99.1,125.5 C101.7,125.9 103.3,125 104.6,123.8 Z M101.7,102.5 L108.8,109.6 C109.2,110 109.6,110.9 109.6,111.7 C109.6,112.5 109.2,113.4 108.8,113.8 L101.7,120.9 C100.5,122.2 98.8,122.2 97.5,120.9 L90.4,113.8 C89.2,112.6 89.2,110.9 90.4,109.6 L97.5,102.5 C97.9,102.1 98.7,101.7 99.6,101.7 C100.5,101.7 101.3,101.7 101.7,102.5 Z M118.3,85.5 L125.4,92.6 C125.8,93 126.2,93.8 126.2,94.7 C126.2,95.5 125.8,96.4 125.4,96.8 L118.3,103.9 C117.1,105.1 115.4,105.1 114.1,103.9 L107,96.8 C105.7,95.5 105.7,93.9 107,92.6 L114.1,85.5 C114.5,85.1 115.3,84.7 116.2,84.7 C117.1,84.6 117.9,84.6 118.3,85.5 Z M84.6,85.5 L91.7,92.6 C92.1,93 92.5,93.8 92.5,94.7 C92.5,95.5 92.1,96.4 91.7,96.8 L84.6,103.9 C83.4,105.1 81.7,105.1 80.4,103.9 L73.3,96.8 C72.9,96.4 72.5,95.5 72.5,94.7 C72.5,93.9 72.9,93 73.3,92.6 L80.4,85.5 C80.8,85.1 81.6,84.7 82.5,84.7 C83.3,84.6 84.2,84.6 84.6,85.5 Z M102.9,90.9 C101.7,93 101.7,95.5 102.9,98 C102.1,97.6 100.8,97.2 99.6,97.2 C98.4,97.2 97.1,97.6 96.3,98 C96.7,96.7 97.1,95.9 97.1,94.7 C97.1,93.4 96.7,92.2 96.3,91.4 C98.3,92.1 100.8,92.1 102.9,90.9 Z M101.7,68.4 L108.8,75.5 C109.2,75.9 109.6,76.7 109.6,77.6 C109.6,78.4 109.2,79.3 108.8,79.7 L101.7,86.8 C100.4,88 98.8,88 97.5,86.8 L90.4,79.7 C90,79.3 89.6,78.5 89.6,77.6 C89.6,76.8 90,75.9 90.4,75.5 L97.5,68.4 C97.9,68 98.7,67.6 99.6,67.6 C100.4,67.5 101.3,67.9 101.7,68.4 Z M99.6,183.4 C83.8,183.4 67.9,179.2 53.8,170.9 C17.5,150 0,107.5 11.3,67.5 L12.1,65.4 L22.9,70 L22.5,71.7 C13.3,106.3 28.7,142.9 60,160.9 C72.1,167.9 85.8,171.7 99.6,171.7 C120.4,171.7 140.8,163.4 155.4,148.8 L156.6,147.6 L165.8,154.7 L164.1,156.4 C147.1,173.8 124.2,183.4 99.6,183.4 Z M183.4,128.4 L172.6,123.4 L173.4,121.3 C188.4,84.6 173.4,42.1 139.2,22.5 C127.1,15.4 113.3,11.7 99.6,11.7 C75,11.7 51.7,22.9 36.7,42.5 L35.5,44.2 L25.9,37.5 L27.1,35.8 C44.6,12.9 70.8,0 99.6,0 C115.4,0 131.7,4.2 145.4,12.5 C185,35.4 202.1,84.6 184.1,126.3 Z M23.4,59.2 C22.6,59.2 21.3,58.8 20.5,58.4 C18.8,57.2 17.6,55.5 17.6,53.4 C17.6,51.3 18.8,49.2 20.5,48.4 C22.2,47.6 24.7,47.6 26.3,48.4 C28,49.6 29.2,51.3 29.2,53.4 C29.2,55.5 28,57.6 26.3,58.4 C25.4,58.8 24.2,59.2 23.4,59.2 Z M170.8,143.8 C167.5,143.8 165,141.3 165,138 C165,134.7 167.5,132.2 170.8,132.2 C174.1,132.2 176.6,134.7 176.6,138 C176.6,141.3 174.2,143.8 170.8,143.8 Z" fill="none" stroke="currentColor" stroke-width="1.5"/></svg>