<svg xmlns="http://www.w3.org/2000/svg" viewBox="0 0 164.755 164.859" width="24" height="24"><path d="M105.063,60.734 L141.088,24.713 L49.942,140.88 C46.517,137.767 41.226,137.975 37.901,141.188 L84.926,80.775 C90.634,85.234 98.734,84.817 103.822,79.734 M83.684,59.488 L22.847,139.009 L30.63,106.2 C34.576,108.796 39.872,107.659 42.463,103.605 L115.034,21.809 C119.397,23.984 124.688,22.221 126.867,17.967 C127.492,16.717 127.805,15.267 127.805,13.813 C131.855,16.513 135.592,19.417 139.117,22.738 L103.097,58.659 C97.488,53.884 88.98,54.192 83.68,59.492 M112.13,145.45 C113.788,143.788 114.101,141.396 113.272,139.425 L164.347,88.35 C126.038,155 107.455,162.892 88.355,164.234 L106.105,146.484 M29.18,92.917 L10.597,122.192 L85.551,22.321 C88.351,23.363 91.467,22.013 92.505,19.209 L104.647,3.117 C107.867,4.055 111.084,5.2 114.201,6.438 C113.684,6.755 113.163,7.167 112.642,7.688 C109.217,11.109 109.217,16.617 112.642,20.146 L40.492,92.296 C37.172,89.596 32.292,89.905 29.18,92.917 M31.255,32.188 L0.526,74.438 C2.392,55.442 10.697,37.588 24.297,24.192 C37.788,10.696 55.547,2.288 74.538,0.525 L43.08,31.871 C39.659,28.859 34.467,28.963 31.247,32.184 M145.651,93.642 L161.951,61.767 C163.817,69.142 164.755,76.613 164.547,84.192 L111.397,137.355 C109.322,135.792 106.313,135.896 104.438,137.867 C102.572,139.734 102.472,142.646 103.922,144.825 L84.097,164.659 C76.513,164.859 69.042,163.925 61.672,162.059 L129.047,94.684 C134.13,98.421 141.192,98.005 145.655,93.642 M50.459,153.65 L153.647,41.221 L144.517,75.271 L58.663,161.121 C47.664,155.621 49.218,154.896 50.464,153.646 M83.684,13.396 C81.709,15.367 81.709,18.38 83.372,20.455 L2.497,101.43 L33.017,45.892 C36.442,47.863 40.7,47.346 43.504,44.542 L78.592,0.317 L90.738,13.188 C88.659,11.421 85.655,11.421 83.68,13.396" fill="none" stroke="currentColor" stroke-width="1.5"/></svg>