<svg xmlns="http://www.w3.org/2000/svg" viewBox="0 0 200.375 197.059" width="24" height="24"><path d="M102.887,0.383 C86.137,0 69.773,3.876 55.247,11.484 C52.29,12.361 49.995,15.203 49.995,18.281 C49.995,22.481 53.293,25.381 57.092,25.381 C58.202,25.381 59.256,25.065 66.274,21.424 C73.292,17.782 87.889,14.481 102.487,14.881 C125.384,15.281 146.681,24.88 162.479,41.078 C178.277,57.276 186.576,78.974 186.176,101.471 C186.176,112.307 184.007,122.611 180.008,132.088 C179.864,132.083 179.722,132.066 179.577,132.066 C172.678,132.066 167.079,137.866 167.079,144.965 C167.079,152.064 172.678,157.863 179.577,157.863 C186.476,157.863 192.075,152.064 192.075,144.965 C192.075,143.001 191.636,141.144 190.87,139.475 C196.479,126.866 199.632,113.965 199.975,100.77 C200.375,74.473 190.875,49.977 172.477,30.779 C154.08,11.582 129.584,1.183 102.887,0.383 Z M25.797,30.379 C18.898,30.379 13.299,36.178 13.299,43.277 C13.299,45.521 13.86,47.635 14.842,49.477 C6.62,63.296 1.659,79.384 1.2,96.172 C0,150.365 43.695,195.359 98.688,197.059 L101.188,197.059 C121.985,197.059 141.981,190.36 159.479,177.861 C160.379,176.962 161.18,175.36 161.18,173.66 C161.18,169.861 158.181,166.961 154.481,166.961 C152.381,166.961 151.081,167.462 149.881,168.662 C134.483,179.061 116.986,184.459 98.688,184.059 C75.791,183.659 54.494,174.061 38.696,157.863 C22.898,141.665 14.599,119.968 14.999,97.471 C15.372,83.113 19.788,68.778 27.51,56.041 C33.598,55.174 38.296,49.777 38.296,43.277 C38.296,36.178 32.697,30.379 25.797,30.379 Z M71.192,42.078 C62.893,42.078 54.094,48.278 54.094,61.676 L54.094,131.666 C54.094,145.364 62.393,151.264 71.192,151.264 C74.892,151.264 78.69,150.065 82.889,147.965 L144.583,112.969 C151.682,109.269 155.78,102.971 155.78,96.772 C155.38,90.372 151.182,84.573 144.583,80.373 L82.889,45.377 C78.69,43.277 74.992,42.078 71.192,42.078 Z M82.09,74.975 L91.688,74.975 L108.786,118.668 L99.987,118.668 L95.788,107.869 L77.891,107.869 L74.19,118.668 L64.993,118.668 Z M113.786,74.975 L122.085,74.975 L122.085,118.668 L113.786,118.668 Z M87.089,81.674 C86.689,82.074 86.69,82.473 86.29,83.373 C85.89,84.573 85.889,85.473 85.489,85.873 C85.489,86.273 83.39,91.271 79.69,101.67 L93.889,101.67 C89.99,91.171 87.889,85.773 87.889,85.373 C87.889,84.173 87.089,82.874 87.089,81.674 Z" fill="none" stroke="currentColor" stroke-width="1.5"/></svg>