<svg xmlns="http://www.w3.org/2000/svg" viewBox="0 0 157.545 166.668" width="24" height="24"><path d="M78.77,0 L0,45.191 L0,135.984 L53.482,166.668 L69.648,157.129 L16.582,126.451 L16.582,54.727 L78.77,19.072 L140.961,54.727 L140.961,126.451 L87.479,157.129 L104.062,166.668 L157.545,135.988 L157.545,45.191 Z M78.77,29.852 L26.121,60.529 L78.77,90.797 L131.424,60.529 Z M26.121,71.727 L26.121,90.797 L78.77,121.477 L131.424,90.797 L131.424,71.727 L78.77,102.404 Z M26.121,102.404 L26.121,121.477 L78.77,151.742 L131.424,121.477 L131.424,102.404 L78.77,132.672 Z" fill="none" stroke="currentColor" stroke-width="1.5"/></svg>