<svg xmlns="http://www.w3.org/2000/svg" viewBox="0 0 165.3 133.4" width="24" height="24"><path d="M158.4,34.4 L115.9,34.4 C111.3,30.1 105.8,25.8 101.5,21.4 C100.2,20.1 98.7,19.6 97.3,19.8 L7.5,19.8 C7.1,19.8 6.9,19.8 6.5,19.9 C3.7,20 1,21.9 1,25.8 L1,104.7 C1,105.3 1.1,106 1.2,106.5 C1.5,109.1 3.3,111.5 6.6,111.5 L35.8,111.5 C36.6,119.6 43.4,125.9 51.6,125.9 C53.7,125.9 55.7,125.5 57.6,124.7 C64.4,130.3 73,133.4 81.8,133.4 C90.6,133.4 99.1,130.3 106,124.7 C107.9,125.5 109.9,125.9 112,125.9 C120.2,125.9 127,119.7 127.8,111.5 L157,111.5 C160.2,112.1 163.9,110.2 163.9,105.7 L163.9,40.3 C163.9,36.4 161.2,34.4 158.4,34.4 Z M51.7,103.2 C55.5,103.2 58.5,106.2 58.5,110 C58.5,113.8 55.5,116.8 51.7,116.8 C47.9,116.8 44.9,113.8 44.9,110 C44.9,106.2 47.9,103.2 51.7,103.2 Z M112.1,103.2 C115.9,103.2 118.9,106.2 118.9,110 C118.9,113.8 115.9,116.8 112.1,116.8 C108.3,116.8 105.3,113.8 105.3,110 C105.3,106.2 108.3,103.2 112.1,103.2 Z M68.3,68.9 C71.1,73.8 76.3,76.8 82,76.8 C87.6,76.8 92.8,73.8 95.7,68.9 C105.2,73.8 111.3,83.5 111.5,94.2 C103.1,94.6 96.4,101.6 96.4,110 C96.4,113.1 97.4,116.1 99.2,118.8 C94.2,122.4 88.2,124.3 82.1,124.3 C76,124.3 70,122.3 65,118.8 C66.8,116.1 67.8,113.1 67.8,110 C67.8,101.5 61.2,94.6 52.7,94.2 C52.7,83.5 58.8,73.7 68.3,68.9 Z M75.1,60.9 C75.1,57.1 78.1,54.1 81.9,54.1 C85.7,54.1 88.7,57.1 88.7,60.9 C88.7,64.7 85.7,67.7 81.9,67.7 C78.1,67.7 75.1,64.8 75.1,60.9 Z M124.6,100.3 C123.4,98.8 122,97.5 120.4,96.5 C120.4,96 120.5,95.5 120.5,94.9 C120.5,79.7 111.6,66 97.7,59.8 C97.2,51.5 90.3,45.1 82,45.1 C73.7,45.1 66.9,51.5 66.3,59.8 C52.3,65.9 43.4,79.7 43.4,94.9 L43.4,96.6 C41.8,97.6 40.5,98.8 39.3,100.3 C39,100.2 38.6,100.2 38.3,100.2 L12.4,100.2 L12.4,30.9 L95.3,30.9 C99.7,35 108.1,42.3 110.4,44.4 C111.1,45.1 111.9,45.6 113.1,45.6 L152.7,45.6 L152.7,100.2 L125.8,100.2 C125.3,100.2 124.9,100.2 124.6,100.3 Z M7.5,11.4 C0,11.4 0,0.1 7.5,0.1 L106.3,0.1 C107.7,0 109.2,0.4 110.5,1.7 L125,16.2 L159.8,16.2 C165.3,16.2 165.3,27.5 159.8,27.5 L122,27.5 C120.6,27.5 119.6,26.8 118.9,25.7 C118.4,25.4 117.9,25.1 117.5,24.6 L104.2,11.3 Z" fill="none" stroke="currentColor" stroke-width="1.5"/></svg>