<svg xmlns="http://www.w3.org/2000/svg" viewBox="0 0 171.7 139.1" width="24" height="24"><path d="M171.7,90.8 C171.7,103.3 161.7,113.3 149.2,113.3 L128.8,113.3 L139.2,97.9 L149.6,97.9 C153.4,97.9 156.7,94.6 156.7,90.8 L156.7,67 C156.7,63.2 153.4,59.9 149.6,59.9 L22.5,59.9 C18.7,59.9 15.4,63.2 15.4,67 L15.4,90.8 C15.4,94.6 18.7,97.9 22.5,97.9 L48.3,97.9 L48.3,113.3 L22.5,113.3 C10,113.3 0,103.3 0,90.8 L0,67 C0,54.5 10,44.5 22.5,44.5 L57.5,44.5 L57.5,32.9 L43.3,32.9 L71.2,0 L71.2,45 L100.4,45 L100.4,0.4 L113.7,0.4 L113.7,44.6 L149.1,44.6 C161.6,44.6 171.6,54.6 171.6,67.1 Z M100.4,139.1 L100.4,69.1 L113.7,69.1 L113.7,97.4 L127.9,97.4 Z M80.8,113.3 L91.2,113.3 L91.2,97.9 L80.8,97.9 Z M57.5,135.4 L71.7,135.4 L71.7,69.1 L57.5,69.1 Z" fill="none" stroke="currentColor" stroke-width="1.5"/></svg>