<svg xmlns="http://www.w3.org/2000/svg" viewBox="0 0 200.0 200.0" width="24" height="24"><path d="M100,0 C44.771,0 0,44.771 0,100 C0,155.229 44.771,200 100,200 C155.229,200 200,155.229 200,100 C200,44.771 155.229,0 100,0 Z M100,2.084 C154.079,2.084 197.916,45.921 197.916,100 C197.916,154.079 154.079,197.916 100,197.916 C45.921,197.916 2.084,154.079 2.084,100 C2.084,45.921 45.921,2.084 100,2.084 Z M93.15,8.59 Z M100.838,33.381 L146.846,119.631 L64.014,137.5 L93.094,63.986 Z M96.887,65.789 L60.477,122.426 L139.584,133.334 L107.281,65.789 Z M101.771,83.346 L113.639,92.971 L117.559,108.428 L106.092,119.727 L90.525,115.363 L86.607,99.904 L98.074,88.607 Z M105.049,90.416 L103.125,103.303 L112.713,97.139 Z M99.119,90.418 L91.527,94.801 L101.041,103.303 L101.041,91.527 Z M90.322,98.885 L88.691,108.518 L100.16,105.209 Z M113.844,98.885 L104.006,105.209 L112.836,110.885 L115.479,99.82 Z M101.041,107.115 L91.607,113.18 L99.117,117.92 Z M103.125,107.115 L103.125,116.807 L112.641,113.539 Z" fill="none" stroke="currentColor" stroke-width="1.5"/></svg>