<svg xmlns="http://www.w3.org/2000/svg" viewBox="0 0 158.3 158.4" width="24" height="24"><path d="M141.7,141.7 L141.7,16.7 L100,16.7 L100,0 L158.3,0 L158.3,158.3 L100,158.3 L100,141.6 Z M45.9,78 L86,37.9 L106.8,58.7 L66.7,98.8 L45.9,98.8 Z M16.7,16.7 L16.7,141.7 L58.4,141.7 L58.4,158.4 L0,158.4 L0,0 L58.3,0 L58.3,16.7 Z M90.7,33.2 L98.8,25.1 L119.6,45.9 L111.5,54 C111.6,54 90.7,33.2 90.7,33.2 Z M29.2,112.5 L129.2,112.5 L129.2,129.2 L29.2,129.2 Z" fill="none" stroke="currentColor" stroke-width="1.5"/></svg>