<svg xmlns="http://www.w3.org/2000/svg" viewBox="0 0 166.701 183.6" width="24" height="24"><path d="M83.4,0 C75.1,0 68.4,6.7 68.4,15 L68.4,15.4 L24.201,41.201 C21.301,39.101 18.4,38.301 15,38.301 C6.7,37.901 0,44.5 0,52.9 C0,59.2 3.7,64.6 9.6,67.1 L9.6,117.4 C3.8,119.1 0,124.501 0,130.301 C0,138.601 6.7,145.301 15,145.301 C17.9,145.301 21.301,144.501 23.801,142.801 L68.801,168.6 C68.801,176.9 75.501,183.6 83.801,183.6 C92.101,183.6 98.801,176.9 98.801,168.6 L143.4,142.801 C145.9,144.501 148.801,145.301 151.701,145.301 C160.001,145.301 166.701,138.601 166.701,130.301 C166.301,124.901 163,119.5 157.6,117 L157.6,66.201 C163,63.701 166.4,58.3 166.4,52.5 C166.4,44.2 159.7,37.5 151.4,37.5 C148.5,37.5 145.2,38.3 142.6,40.4 L98.4,15.4 L98.4,15 C98.4,6.7 91.7,0 83.4,0 Z M71.701,24.4 C73.401,26.5 76.301,28.1 78.801,29.4 L78.801,41.9 C78.801,44.4 80.901,46.9 83.801,46.9 C86.701,46.9 88.801,44.8 88.801,41.9 L88.801,29.5 C91.301,28.7 93.8,27 95.5,24.5 L137.6,48.701 C137.2,50.401 137.201,51.6 137.201,52.5 L137.201,54.6 L127.201,60.9 C126.001,61.7 125.1,63.001 125.1,64.701 C125.1,67.201 127.2,69.701 130.1,69.701 C130.9,69.701 131.401,69.701 132.201,69.301 L141.801,63.5 C143.501,65.2 146.4,66.401 148.9,67.301 L148.9,116.5 L148,116.5 L148,116.1 C146.3,116.5 144.7,117.401 143,118.201 L131.801,112 C131.401,112 130.6,111.6 130.1,111.6 C127.6,111.6 125.1,113.7 125.1,116.6 C125.1,118.3 125.901,119.5 127.201,120.4 L137.201,126.201 C136.801,127.901 136.4,129.101 136.4,131.201 C136.4,133.301 136.801,134.101 137.201,136.201 L95.1,160.4 C93.4,158.3 91.3,156.6 88,155 L88,142.4 C87.6,139.9 85.9,137.801 83,137.801 C80.1,137.801 78.4,139.5 78,142.4 L78,154.5 C75.1,155.3 72.2,157 70.5,159.9 L28,135.301 C28.4,133.601 28.801,132.401 28.801,130.701 C28.801,129.501 28.8,128.601 28.4,127.801 L38.4,121.6 L38.801,121.201 C40.001,120.401 40.9,119.1 40.9,117.4 C40.9,114.9 38.8,112.4 35.9,112.4 C35.1,112.4 34.2,112.801 33.4,113.201 L23.4,119.4 C21.7,118.1 20.1,117.3 17.6,116.5 L17.6,67 C19.7,66.2 21.4,65.3 23,64.1 L33.4,69.9 C33.8,70.3 34.6,70.301 35.1,70.301 C37.6,70.301 40.1,68.201 40.1,65.301 C40.1,64.101 39.3,62.8 38.4,61.5 L29.201,55.701 C29.601,54.901 29.6,53.601 29.6,52.801 C29.6,51.601 29.601,50.3 29.201,49 Z M69.701,53.301 C66.801,53.301 63.9,55.8 63.9,59.1 L63.9,84.9 C63.9,88.2 61.001,91.6 57.201,91.6 C53.901,91.6 51,89.1 51,84.9 L51,78.201 C51,75.301 48.501,72.4 45.201,72.4 C41.901,72.4 39.4,74.901 39.4,78.201 L39.4,107 C39.4,109.9 41.901,112.801 45.201,112.801 C48.501,112.801 51,110.3 51,107 L51,104.1 C51,100.8 53.901,97.4 57.701,97.4 C61.001,97.4 64.4,100.3 64.4,104.1 L64.4,114.9 C64.4,117.8 66.901,120.701 70.201,120.701 C73.501,120.701 76,118.2 76,114.9 L76,96.1 C76,92.8 78.901,89.9 82.701,89.9 C86.001,89.9 89.4,92.8 89.4,96.6 L89.4,119.1 C89.4,122 91.901,124.9 95.201,124.9 C98.101,124.9 101,122.4 101,119.1 L101,104.5 C101,101.2 103.501,98.301 107.701,98.301 C111.001,98.301 114,100.8 114,104.1 L114,107 C114,109.9 116.501,112.801 119.801,112.801 C122.701,112.801 125.6,110.3 125.6,107 L125.6,78.201 C124.6,74.901 122.201,72.4 119.201,72.4 C116.301,72.4 113.4,74.901 113.4,78.201 L113.4,85.701 C113,89.001 110.501,91.5 107.201,91.5 C103.901,91.5 100.5,89.001 100.5,85.301 L100.5,62.801 C100.5,59.901 98.001,57 94.701,57 C91.801,57 88.9,59.501 88.9,62.801 L88.9,77 C88.9,80.3 86.001,83.701 82.201,83.701 C78.901,83.701 76,81.2 75.5,77.5 L75.5,59.1 C75.5,56.2 73.001,53.301 69.701,53.301 Z M33,84.1 C30.1,84.1 27.201,86.6 27.201,89.9 L27.201,95.701 C27.201,98.601 29.7,101.5 33,101.5 C35.9,101.5 38.801,99.001 38.801,95.701 L38.801,89.9 C38.001,86.6 35.5,84.1 33,84.1 Z M133.801,84.1 C130.901,84.1 128,86.6 128,89.9 L128,95.701 C128,98.601 130.501,101.5 133.801,101.5 C137.101,101.5 139.6,99.001 139.6,95.701 L139.6,89.9 C139.6,86.6 137.201,84.1 133.801,84.1 Z" fill="none" stroke="currentColor" stroke-width="1.5"/></svg>