<svg xmlns="http://www.w3.org/2000/svg" viewBox="0 0 157.1 158.4" width="24" height="24"><path d="M96.602,0 C93.302,0 89.902,0.399 86.602,1.199 C83.702,1.999 85.801,4.1 85.801,4.1 L102.5,20.799 C107.9,26.199 107.9,35 102.5,40.4 L101.301,42.1 C95.901,47.5 87.101,47.5 81.701,42.1 L74.102,34.6 L74.102,65 C80.302,70 88.3,72.9 97,72.9 C102.4,72.9 107.8,71.7 112.4,69.6 C114.5,68.4 116.201,70.4 116.201,70.4 L139.102,93.299 C141.602,95.799 144.5,96.599 147.4,96.199 C147.4,96.199 155.3,95.4 157,87 C157.1,83.8 156.201,80.4 153.701,78.4 L131.201,55.9 C131.201,55.9 128.3,53.8 130.4,50.9 C132.1,46.7 133.301,41.699 133.301,36.699 C133.301,16.299 117.102,0 96.602,0 Z M45.801,35 C36.201,35 29.404,42.503 29.151,52.1 L29.151,69.199 L62.9,69.199 L62.9,52.1 L62.9,52.1 C62.9,42.5 55.401,35 45.801,35 Z M29.151,76.299 L29.151,93.4 L29.151,93.4 C29.151,103 36.601,110.5 46.201,110.5 C55.801,110.5 62.678,102.898 62.9,93.4 L62.9,76.299 Z M0,93.4 C0,116.3 16.701,135.099 38.301,138.799 L38.301,158.4 L53.701,158.4 L53.701,138.799 C75.401,134.999 92,116.3 92,93.4 L76.602,93.4 C76.602,108.8 64.9,121.699 49.9,123.799 L42,123.799 C27,121.699 15.301,109.2 15.301,93.4 Z" fill="none" stroke="currentColor" stroke-width="1.5"/></svg>