<svg xmlns="http://www.w3.org/2000/svg" viewBox="0 0 158.349 158.199" width="24" height="24"><path d="M0,0 L0,46.1 L10,46.1 L10,9.801 L46.299,9.801 L46.299,0 Z M112.1,0 L112.1,9.801 L148.398,9.801 L148.398,46.1 L158.349,46.1 L158.349,0 L158.349,0 Z M77.5,0 L77.5,16.9 L80.799,16.9 L80.799,0 Z M72.5,33.6 L72.5,126.1 L85.799,126.1 L85.799,33.6 Z M46.299,53.199 L46.299,106.1 L59.6,106.1 L59.6,53.199 Z M98.799,53.199 L98.799,106.1 L112.1,106.1 L112.1,53.199 Z M20,69.801 L20,89.4 L33.299,89.4 L33.299,69.801 Z M125.398,69.801 L125.398,89.4 L138.699,89.4 L138.699,69.801 Z M0,77.801 L0,81.1 L16.699,81.1 L16.699,77.801 Z M141.699,77.801 L141.699,81.1 L158.349,81.1 L158.349,77.801 Z M0,111.9 L0,158.1 L0,158.199 L46.299,158.199 L46.299,148.199 L10,148.199 L10,111.9 Z M148.398,111.9 L148.398,148.199 L112.1,148.199 L112.1,158.199 L158.349,158.199 L158.349,158.1 L158.349,158.1 L158.349,111.9 Z M77.5,141.5 L77.5,158.199 L80.799,158.199 L80.799,141.5 Z" fill="none" stroke="currentColor" stroke-width="1.5"/></svg>