<svg xmlns="http://www.w3.org/2000/svg" viewBox="0 0 158.349 158.149" width="24" height="24"><path d="M0,0 L0,46.1 L10,46.1 L10,9.801 L46.299,9.801 L46.299,0 Z M112.1,0 L112.1,9.801 L148.398,9.801 L148.398,46.1 L158.349,46.1 L158.349,0 L158.349,0 Z M77.5,0 L77.5,16.9 L80.799,16.9 L80.799,0 Z M79.199,26.1 C70.799,26.1 64.6,32.299 64.6,40.699 L64.6,55.301 L93.799,55.301 L93.799,40.699 C93.799,32.399 87.599,26.1 79.199,26.1 Z M64.6,61.9 L64.6,76.5 C64.6,84.8 70.799,91.1 79.199,91.1 C87.599,91.1 93.799,84.9 93.799,76.5 L93.799,61.9 Z M39.6,76.5 C39.6,96.1 53.8,112.299 72.5,115.699 L72.5,132.4 L85.799,132.4 L85.799,115.699 C104.599,112.399 118.699,96.5 118.699,76.5 L105.5,76.5 C105.5,89.8 95.5,101.099 82.6,102.699 L75.898,102.699 C62.998,100.999 53,89.8 53,76.5 Z M0,77.801 L0,81.1 L16.699,81.1 L16.699,77.801 Z M141.699,77.801 L141.699,81.1 L158.349,81.1 L158.349,77.801 Z M0,111.9 L0,158.149 L0,158.149 L46.299,158.149 L46.299,148.199 L10,148.199 L10,111.9 Z M148.398,111.9 L148.398,148.199 L112.1,148.199 L112.1,158.149 L158.349,158.149 L158.349,158.149 L158.349,158.149 L158.349,111.9 Z M77.5,141.5 L77.5,158.149 L80.799,158.149 L80.799,141.5 Z" fill="none" stroke="currentColor" stroke-width="1.5"/></svg>