<svg xmlns="http://www.w3.org/2000/svg" viewBox="0 0 183.4 183.3" width="24" height="24"><path d="M85.9,50.9 L98,50.9 L98,134.2 L85.9,134.2 Z M109.6,68.8 L121.7,68.8 L121.7,116.3 L109.6,116.3 Z M62.1,68.8 L74.2,68.8 L74.2,116.3 L62.1,116.3 Z M38.4,83.4 L50.5,83.4 L50.5,101.3 L38.4,101.3 Z M133.4,83.4 L145.5,83.4 L145.5,101.3 L133.4,101.3 Z M108.8,19.2 C139.6,26.3 163.4,52.5 166.3,84.6 L177.1,84.6 C174.2,47.5 147.1,17.1 111.7,8.8 L113.8,0 L93,9.2 L106.3,27.5 Z M75,164.6 C44.2,157.5 20.4,131.3 17.5,99.2 L6.7,99.2 C9.6,136.3 36.7,166.7 72.1,175 L70,183.3 L90.8,174.1 L77.5,155.8 C77.5,155.9 75,164.6 75,164.6 Z M9.2,90.9 L27.5,77.6 L19.2,75.5 C26.3,44.7 52.5,20.9 84.6,18 L84.6,6.7 C47.5,10 17.1,36.7 8.8,72.1 L0,70 Z M183.4,113.4 L174.2,92.6 L155.9,105.9 L164.2,108 C157.1,138.8 130.9,162.6 98.8,165.5 L98.8,176.3 C136.3,173.8 166.7,146.7 175,111.3 Z" fill="none" stroke="currentColor" stroke-width="1.5"/></svg>