<svg xmlns="http://www.w3.org/2000/svg" viewBox="0 0 183.199 164.3" width="24" height="24"><path d="M16.1,0 C7.3,0 0.1,7.2 0,16.1 L0,99.6 C0,108.5 7.2,115.601 16.1,115.701 L34.398,115.701 L34.398,136.4 C34.398,139.7 37.098,142.4 40.398,142.4 L43,142.301 L69.199,116 L136.898,116 C145.798,116.1 153.099,108.9 153.199,100 C153.099,99.8 153.1,99.801 153.1,99.701 L153.1,17.5 C153.1,7.9 145.3,0 135.6,0 Z M16,11.6 L135.6,11.6 C138.8,11.6 141.398,14.2 141.398,17.4 L141.398,99.6 C141.398,102.2 139.299,104.301 136.699,104.301 L64.299,104.5 L45.898,122.9 L45.898,104.201 L16,104.201 C13.6,104.201 11.6,102.201 11.6,99.801 L11.6,16.1 C11.6,13.6 13.6,11.6 16,11.6 Z M77.799,31.4 C74.599,31.4 72,34.001 72,37.201 L72,88.201 C72,91.401 74.599,94 77.799,94 C80.999,94 83.5,91.401 83.6,88.201 L83.6,37.1 C83.5,34 80.999,31.4 77.799,31.4 Z M59.199,40.701 C55.999,40.701 53.398,43.3 53.398,46.5 L53.398,78.9 C53.398,82.1 55.999,84.701 59.199,84.701 C62.399,84.701 64.9,82.1 65,78.9 L65,46.4 C65,43.2 62.399,40.701 59.199,40.701 Z M96.299,40.701 C93.099,40.701 90.5,43.3 90.5,46.5 L90.5,78.9 C90.5,82.1 93.099,84.701 96.299,84.701 C99.499,84.701 102.1,82.1 102.1,78.9 L102.1,46.4 C102,43.2 99.499,40.701 96.299,40.701 Z M40.6,50 C37.4,50 34.799,52.601 34.799,55.801 L34.799,72 C34.799,75.2 37.4,77.801 40.6,77.801 C43.8,77.801 46.398,75.2 46.398,72 L46.398,55.701 C46.398,52.501 43.8,50 40.6,50 Z M114.799,50 C111.599,50 109,52.601 109,55.801 L109,72 C109,75.2 111.599,77.801 114.799,77.801 C117.999,77.801 120.5,75.2 120.6,72 L120.6,55.701 C120.7,52.501 117.999,50 114.799,50 Z M160.1,64.5 L160.1,103 C160.1,114.2 152.098,123.1 140.898,123.1 L86.199,123.1 C86.199,137 94.999,146.301 111.199,146.301 L125.1,146.301 L141,162.4 C142.9,164.3 146.1,163.2 146.1,160.6 L146.1,146.201 L147.5,146.201 C169.5,146.201 183.199,133.1 183.199,111.5 L183.199,84.9 C183.199,73 176.3,64.5 160.1,64.5 Z" fill="none" stroke="currentColor" stroke-width="1.5"/></svg>