<svg xmlns="http://www.w3.org/2000/svg" viewBox="0 0 167.5 147.5" width="24" height="24"><path d="M62.5,116.1 L62.9,116.1 L81,147.5 L46.9,147.5 C43.7,147.5 40,145.3 38.4,142.6 L1.6,78.8 C0,76.1 0,71.7 1.6,69 L38.4,5.2 C40,2.5 43.8,0.3 46.9,0.3 L80.5,0.3 L62.5,31.4 C59.3,31.4 56.8,34 56.8,37.1 C56.8,38.1 57.1,39.1 57.6,40 L41.2,68.2 C38.1,68.2 35.5,70.7 35.5,73.9 C35.5,77 38,79.6 41.2,79.6 L41.7,79.6 L57.8,107.4 C56,110 56.7,113.5 59.3,115.3 C60.2,115.8 61.3,116.1 62.5,116.1 Z M104.1,105.1 C104.1,105.1 104,105.1 104.1,105.1 L88.1,77.5 C88.6,76.9 89,76.1 89.2,75.3 L120.9,75.3 C120.9,75.6 121,75.9 121.2,76.1 L118.3,81.1 L104.5,105.2 C104.4,105.1 104.2,105.2 104.1,105.1 Z M165.9,68.9 C167.5,71.6 167.5,76 165.9,78.7 L129.1,142.5 C127.5,145.2 123.7,147.4 120.6,147.4 L87.5,147.4 L68.5,114.4 L100.7,114.4 C101.7,115.6 103.3,116.3 104.9,116.3 C108,116.3 110.5,113.8 110.5,110.6 C110.5,109.8 110.3,109 110,108.3 L126.6,79.4 C129.6,79.2 131.9,76.7 131.9,73.7 C131.9,70.7 129.7,68.3 126.8,68 L110.1,39 C111.2,36.1 109.8,32.8 106.9,31.7 C106.2,31.4 105.5,31.3 104.8,31.3 L67.9,35.4 C67.8,34.9 67.6,34.4 67.3,34 L86.9,0 L120.4,0 C123.6,0 127.3,2.2 128.9,4.9 Z M62.3,104.9 L46,76.8 L46.3,76.2 C46.4,76 46.4,75.8 46.5,75.7 L46.5,75.6 C46.6,75.4 46.6,75.3 46.6,75.1 L46.6,75 C46.7,74.8 46.7,74.6 46.7,74.4 L46.7,74.3 C46.8,73.5 46.7,72.7 46.4,71.9 C46.3,71.6 46.1,71.3 45.9,70.9 L45.9,70.8 L62.3,42.5 C63,42.5 63.7,42.4 64.3,42.1 L80,69.2 C78.7,70.3 77.9,71.8 77.9,73.6 C77.9,74.9 78.4,76.2 79.2,77.2 L79.2,77.3 L63.4,104.7 C63.2,105 62.8,104.9 62.3,104.9 Z M67.1,107.4 C66.8,107 66.5,106.6 66.1,106.2 L66,106.1 L81.6,79.1 C81.9,79.2 82.2,79.3 82.6,79.4 C82.9,79.5 83.3,79.5 83.7,79.5 L84.3,79.5 C84.8,79.4 85.3,79.3 85.8,79.1 C86,79 86.1,79 86.3,78.9 L102.1,105.9 C101,106.6 100.2,107.6 99.7,108.8 L67.8,108.8 C67.6,108.3 67.4,107.8 67.1,107.4 Z M118.4,64.7 L121.8,70.6 C121.4,71.2 121.1,71.8 120.9,72.5 L89.2,72.4 C88.9,71.2 88.2,70.1 87.2,69.3 L87,69.1 C85.8,68.2 84.3,67.9 82.8,68.2 L66.8,40.6 C66.8,40.6 66.8,40.5 66.9,40.5 C67,40.4 67.1,40.2 67.2,40.1 C67.5,39.6 67.8,39 67.9,38.4 L67.9,38.3 L99.4,38.3 C100,40.9 102.3,42.7 105,42.7 L105.8,42.7 Z" fill="none" stroke="currentColor" stroke-width="1.5"/></svg>