<svg xmlns="http://www.w3.org/2000/svg" viewBox="0 0 183.4 131.3" width="24" height="24"><path d="M125.9,65.4 C125.9,69.6 122.6,72.9 118.8,72.9 C114.6,72.9 111.3,69.6 111.3,65.8 C111.3,61.6 114.6,58.3 118.4,58.3 C122.5,57.9 125.9,61.2 125.9,65.4 Z M99.2,65.4 C99.2,69.6 95.9,72.9 91.7,72.9 C87.5,72.9 84.2,69.6 84.2,65.4 C84.2,61.2 87.5,57.9 91.7,57.9 C95.9,57.9 99.2,61.2 99.2,65.4 Z M72.1,65.4 C72.1,69.6 68.8,72.9 64.6,72.9 C60.4,72.9 57.1,69.6 57.1,65.4 C57.1,61.2 60.4,57.9 64.6,57.9 C68.8,57.9 72.1,61.2 72.1,65.4 Z M91.7,107.1 L153.4,71.3 L164.2,77.5 L91.7,119.6 L9.6,71.7 L0,77.5 L91.7,131.3 L183.4,77.5 L91.7,23.7 L30,59.6 L19.2,53.4 L91.7,11.2 L173.8,59.1 L183.4,53.3 L91.7,0 L0,53.3 Z" fill="none" stroke="currentColor" stroke-width="1.5"/></svg>