<svg xmlns="http://www.w3.org/2000/svg" viewBox="0 0 166.25 166.667" width="24" height="24"><path d="M140,49.167 L140,56.667 C140,58.75 138.333,60.417 136.25,60.417 L41.667,60.417 C33.333,60.417 26.667,53.75 26.667,45.417 C26.667,37.083 33.333,30.417 41.667,30.417 L79.583,30.417 L79.583,22.083 C75,20.833 72.083,16.25 72.083,11.667 C72.083,5.417 77.083,0 83.333,0 C89.583,0 94.583,5 94.583,11.25 C94.583,16.25 91.25,20.417 87.083,22.083 L87.083,30.417 L136.25,30.417 C138.333,30.417 140,32.083 140,34.167 L140,41.667 L162.5,41.667 C164.583,41.667 166.25,43.333 166.25,45.417 L166.25,83.333 C166.25,85.417 164.583,87.083 162.5,87.083 L139.167,87.083 C137.5,93.75 131.667,98.333 124.583,98.333 L30.417,98.333 C28.333,98.333 26.667,96.667 26.667,94.583 L26.667,87.083 L7.917,87.083 L7.917,117.5 L27.5,117.5 C29.167,110.833 35,106.25 42.083,106.25 L136.667,106.25 C138.75,106.25 140.417,107.917 140.417,110 L140.417,132.5 C140.417,134.583 138.75,136.25 136.667,136.25 L87.083,136.25 L87.083,144.583 C91.667,146.25 94.583,150.417 94.583,155.417 C94.583,161.667 89.583,166.667 83.333,166.667 C77.083,166.667 72.083,161.667 72.083,155.417 C72.083,150.417 75.417,146.25 79.583,144.583 L79.583,136.25 L41.667,136.25 C34.583,136.25 28.75,131.25 27.083,125 L3.75,125 C1.667,125 0,123.333 0,121.25 L0,83.333 C0,81.25 1.667,79.583 3.75,79.583 L26.25,79.583 L26.25,72.083 C26.25,70 27.917,68.333 30,68.333 L125,68.333 C132.083,68.333 137.917,73.333 139.583,79.583 L159.167,79.583 L159.167,49.167 Z M41.667,52.917 C45.833,52.917 49.167,49.583 49.167,45.417 C49.167,41.25 45.833,37.917 41.667,37.917 C37.5,37.917 34.167,41.25 34.167,45.417 C34.167,49.583 37.5,52.917 41.667,52.917 Z M41.667,128.75 C45.833,128.75 49.167,125.417 49.167,121.25 C49.167,117.083 45.833,113.75 41.667,113.75 C37.5,113.75 34.167,117.083 34.167,121.25 C34.167,125.417 37.5,128.75 41.667,128.75 Z M125,90.833 C129.167,90.833 132.5,87.5 132.5,83.333 C132.5,79.167 129.167,75.833 125,75.833 C120.833,75.833 117.5,79.167 117.5,83.333 C117.5,87.5 120.833,90.833 125,90.833 Z" fill="none" stroke="currentColor" stroke-width="1.5"/></svg>