<svg xmlns="http://www.w3.org/2000/svg" viewBox="0 0 133.2 155.1" width="24" height="24"><path d="M131.5,37.6 L68.4,0.6 C67.3,0 65.9,0 64.8,0.6 L1.7,37.6 C0.6,38.2 0,39.4 0,40.6 L0,114.5 C0,115.7 0.7,116.9 1.7,117.5 L64.8,154.5 C65.9,155.1 67.3,155.1 68.4,154.5 L131.5,117.5 C132.6,116.9 133.2,115.7 133.2,114.5 L133.2,40.7 C133.2,39.4 132.6,38.3 131.5,37.6 Z M46.9,69.3 C48.3,67.6 49.3,65.6 49.8,63.5 L83.4,63.5 C84,66.1 85.3,68.4 87.2,70.2 L69.8,100.3 C68.8,100.1 67.7,99.9 66.6,99.9 C65.9,99.9 65.3,100 64.7,100.1 Z M66.8,14.1 L87.2,50 C85.6,51.6 84.5,53.5 83.8,55.7 L49.5,55.7 C48.8,53.6 47.6,51.7 46.1,50.1 Z M10.8,111 L32.1,74.2 C33.3,74.5 34.5,74.7 35.7,74.7 C37.4,74.7 38.9,74.4 40.4,73.9 L48.3,87.6 L57.4,103.4 C55,105.4 53.3,108.1 52.5,111.1 L10.8,111.1 Z M76.8,104.2 L94,74.2 C95.1,74.5 96.3,74.7 97.5,74.7 C98.7,74.7 99.8,74.5 101,74.3 L121.9,111 L80.7,111 C80,108.4 78.7,106.1 76.8,104.2 Z M126.2,102.5 L107.9,70.3 C113.3,64.9 113.6,56.1 108.4,50.3 C105.6,47.2 101.7,45.5 97.6,45.5 C96.4,45.5 95.2,45.7 94.1,46 L75.2,12.8 L126.2,42.7 Z M7.1,42.7 C7.1,42.7 54.9,14.7 58.6,12.6 L39.2,46 C38,45.7 36.9,45.5 35.7,45.5 C27.6,45.5 21.1,52.1 21.1,60.1 C21.1,63.9 22.6,67.5 25.2,70.2 L7,101.7 L7,42.7 Z M66.6,147.5 L17.9,119 L52.7,119 C54.5,124.9 60,129.3 66.5,129.3 C73,129.3 78.5,125 80.3,119 L115.1,119 Z" fill="none" stroke="currentColor" stroke-width="1.5"/></svg>