<svg xmlns="http://www.w3.org/2000/svg" viewBox="0 0 188.8 186.6" width="24" height="24"><path d="M166.5,169.4 C155.6,175.7 141.9,171.7 135.6,160.8 C129.3,149.9 133.3,136.2 144.2,129.9 C155.1,123.6 168.8,127.6 175.1,138.5 C181.3,149.4 177.3,163.2 166.5,169.4 Z M166.5,143.1 C163.1,136.8 155.1,134.5 148.8,137.9 C142.5,141.3 140.2,149.3 143.7,155.6 C147.1,161.9 155.1,164.2 161.4,160.7 C167.6,157.4 169.9,149.4 166.5,143.1 Z M89.8,33.8 C81.8,38.4 71.5,35.5 66.9,27.5 C62.3,19.5 65.2,9.2 73.2,4.6 C81.2,0 91.5,2.9 96.1,10.9 C100.7,19.5 97.8,29.8 89.8,33.8 Z M87.5,16.1 C85.8,12.7 81.2,11.5 78.3,13.2 C74.9,14.9 73.7,19.5 75.4,22.4 C77.1,25.8 81.7,27 84.6,25.3 C88.6,23.5 89.8,19.5 87.5,16.1 Z M30.3,103.6 C21.1,108.8 9.7,105.3 5.1,96.7 C0,87.5 2.8,76.1 12,70.9 C21.2,65.7 32.6,69.2 37.7,77.8 C42.3,87 39.4,98.5 30.3,103.6 Z M28.5,83 C26.2,79 20.5,77.3 16.5,79.6 C12.5,81.9 10.8,87.6 13.1,91.6 C15.4,95.6 21.1,97.3 25.1,95 C29.7,92.8 31.4,87 28.5,83 Z M73.8,182 C65.8,186.6 55.5,183.7 50.9,175.7 C46.3,167.7 49.2,157.4 57.2,152.8 C65.2,148.2 75.5,151.1 80.1,159.1 C84.6,167.2 81.8,177.5 73.8,182 Z M133.9,100.2 L145.3,120.8 C143.6,121.4 141.9,121.9 140.2,123.1 C139.1,123.7 137.9,124.8 136.8,125.4 L127.1,107.7 L112.2,123.7 L130.5,131.7 C128.8,134.6 127.1,137.4 126.5,140.3 L105.2,131.1 L86.9,151.1 C84.6,148.2 82.3,146 79.5,144.8 L95.5,127.1 L75.5,117.9 L72.6,141.4 C69.2,140.3 66.3,140.3 62.9,140.3 L66.3,113.4 L41.7,102.5 C43.4,99.6 45.1,96.8 45.7,93.3 L67.4,103 L69.7,81.2 L46.2,85.8 C46.2,82.4 45.6,79.5 44.5,76.1 L70.8,70.4 L73.7,43.5 C77.1,44.6 80,44.6 83.4,44.6 L80.6,68.1 L102.4,63.5 L90.4,42.9 C91.5,42.3 92.7,41.8 94.4,41.2 C96.1,40.1 97.8,38.9 99,37.8 L112.7,61.8 L140.2,56.1 C140.2,59.5 140.8,62.4 142.5,65.8 L117.9,70.9 L128.8,89.8 L146,71.5 C148.3,74.4 150.6,76.7 153.4,78.4 Z M108.1,74.4 L80.1,80.1 L77.2,108.1 L103,119.5 L122.5,98.9 Z M176.2,72.7 C167,77.9 155.6,74.4 151,65.8 C145.9,56.6 149.3,45.2 157.9,40.6 C167.1,35.5 178.5,38.9 183.1,47.5 C188.8,56.1 185.4,67.6 176.2,72.7 Z" fill="none" stroke="currentColor" stroke-width="1.5"/></svg>