<svg xmlns="http://www.w3.org/2000/svg" viewBox="0 0 181.45 135.362" width="24" height="24"><path d="M132.875,30.988 L133.708,33.179 L128.937,33.179 C126.271,33.187 123.608,33.396 120.975,33.804 C114.112,19.967 98.467,12.554 83.15,15.875 C68.558,19.042 57.892,31.163 56.675,45.6 L56.563,47.783 L56.563,50.083 C61.717,69.971 57.196,74.292 51.479,75.262 C23.337,70.575 13.408,82.517 14.341,96.067 C15.275,109.617 26.758,120.137 40.6,120.137 C60.725,111.146 61.962,109.504 63.1,107.796 L64.725,105.179 L85.308,66.875 C138.471,38.067 147.271,40.617 154.842,45.346 L157.321,47 L157.321,46.846 C174.279,58.708 181.45,79.988 175.029,99.429 C168.871,118.096 151.55,130.929 131.742,131.804 L129.254,131.85 L128.5,131.85 C109.729,131.917 94.458,117.046 94.383,98.633 C94.308,80.221 109.467,65.238 128.233,65.158 C147.004,65.075 162.287,79.938 162.375,98.346 C164.929,65.646 148.979,50 129.254,49.85 L95.817,72.146 L74.996,110.883 C55.896,132.621 37.754,135.362 22.917,127.771 C8.083,120.175 0,104.004 2.967,87.854 C5.933,71.696 19.258,59.313 35.863,57.271 L44.504,48.642 L44.504,47.742 C44.554,25.792 60.754,7.083 82.833,3.475 C104.121,0 124.875,11.55 132.875,30.988 Z M118.45,74.946 C108.725,78.933 102.408,88.279 102.458,98.621 C102.525,112.679 114.162,124.037 128.496,124.037 C139.037,124.037 148.537,117.804 152.558,108.246 Z M49.033,55.083 C45.233,55.083 42.15,58.108 42.15,61.838 C42.15,65.571 45.233,68.592 49.038,68.592 C52.842,68.592 55.925,65.571 55.925,61.842 C55.925,58.108 52.842,55.083 49.038,55.083 Z M140.271,111.754 L117.762,111.754 L115.333,106.546 C115.333,105.146 116.429,104.129 117.762,104.129 L140.271,104.129 C141.617,104.129 142.712,105.146 142.712,106.546 L142.712,109.342 Z M137.542,106.108 C135.771,108.942 136.562,109.758 137.542,109.758 Z M140.271,102.312 L117.762,102.312 L115.333,97.104 C115.333,95.7 116.429,94.687 117.762,94.687 L140.271,94.687 C141.617,94.687 142.712,95.7 142.712,97.104 L142.712,99.896 Z M137.542,96.683 C135.771,99.533 136.562,100.337 137.542,100.35 C137.558,96.683 137.558,96.683 137.542,96.683 Z M140.271,92.887 L117.762,92.887 L115.333,87.675 C115.333,86.275 116.429,85.258 117.762,85.258 L140.271,85.258 C141.617,85.258 142.712,86.275 142.712,87.675 L142.712,90.475 Z M137.542,87.237 C135.771,90.087 136.562,90.892 137.542,90.892 C138.5,90.892 139.292,90.071 139.292,89.075 Z" fill="none" stroke="currentColor" stroke-width="1.5"/></svg>