<svg xmlns="http://www.w3.org/2000/svg" viewBox="0 0 184.801 191.5" width="24" height="24"><path d="M0,0 L0,81.199 L13.002,73.025 C14.596,75.912 16.988,78.218 19.4,80.699 C20.5,81.799 22.301,80.1 21.201,79 C19.101,76.9 16.701,74.899 15.201,72.299 C12.101,66.699 13.7,59.6 18.5,55.5 C23.5,51.3 30.7,51.5 35.6,55.5 C37.6,57.1 39.401,59.098 41.201,60.898 C42.301,61.998 44.1,60.299 42.9,59.199 C41.902,58.201 40.914,57.172 39.912,56.162 L48.9,50.5 C52.9,47.1 63.7,43.499 68.9,43.199 L90.701,43.199 L101.301,39 C104.001,38.5 106.8,39.1 109.1,40.6 L123.4,50.1 C123.4,50.1 142.201,45.1 146.201,47.1 C147.501,47.7 150.5,57 151,64 C151.2,67.6 149.5,71 146.5,73 L145.301,73.799 L144.473,78.727 L31.801,191.398 L33.201,191.398 L144.189,80.41 L143.301,85.699 C143.301,85.699 116.804,105.268 97.705,131.494 L37.801,191.398 L39.201,191.398 L94.41,136.189 C92.38,139.213 90.481,142.31 88.736,145.465 L42.701,191.5 L44.201,191.398 L87.082,148.518 C85.871,150.863 84.7,153.273 83.564,155.734 L47.9,191.398 L49.301,191.398 L82.381,158.318 C81.462,160.384 80.574,162.479 79.709,164.59 L52.9,191.398 L54.301,191.398 L78.764,166.936 C77.996,168.862 77.294,170.79 76.57,172.729 L57.9,191.398 L59.301,191.398 L75.76,174.939 C75.033,176.932 74.282,178.916 73.604,180.896 L63.1,191.398 L64.5,191.398 L72.924,182.977 C71.984,185.777 71.044,188.584 70.201,191.299 L89.1,191.299 C141.9,191.299 184.801,148.5 184.801,95.6 C184.701,42.9 141.8,0 89,0 Z M115.199,46.936 C114.495,46.899 113.837,47.599 114.1,48.299 L115.4,52.1 L123.301,50.1 L115.5,47 C115.4,46.962 115.3,46.941 115.199,46.936 Z M143.184,49.477 C142.957,49.444 142.725,49.45 142.5,49.5 L121.301,55.1 C120.101,55.4 119.5,56.599 119.9,57.699 L121.201,61.699 C121.901,63.699 123.601,65.198 125.801,65.398 L138.201,66.898 L145.5,61.1 C147.1,59.8 147.6,57.698 146.9,55.898 L144.801,50.699 C144.501,50.024 143.863,49.575 143.184,49.477 Z M82.727,53.002 C81.95,53.05 81.175,53.311 80.5,53.799 L69.1,61.898 L90.6,59.898 L86.201,54.5 C85.326,53.438 84.021,52.922 82.727,53.002 Z M141.701,77.199 C140.901,77.599 140,78 139.1,78.5 L26.201,191.398 L27.6,191.398 Z M132.5,80.5 C131.9,80.7 131.2,80.9 130.5,81.1 L20.301,191.398 L21.701,191.398 Z M122.801,84.398 C121.901,84.798 121,85.299 120.1,85.699 L19.5,186.299 C18.9,187.299 18.4,188.299 17.9,189.299 Z M111.301,90.1 C110.201,90.6 109.201,91.199 108.201,91.799 L27.6,172.398 C26.9,173.598 26.1,174.8 25.4,176 Z M38.1,107.6 L38.201,107.799 L38.801,108.699 L39.201,108.299 L38.301,107.699 Z M86.701,108.6 L85,109.1 L84.1,110 Z M42,110.1 L40.5,111.699 L41,112.6 L42.9,110.699 Z M79.201,110.898 L77.1,111.6 L71.701,116.898 L74.9,115.1 Z M45.701,112.5 L42.701,115.5 L43.201,116.398 L46.6,113.1 Z M70.301,113.6 L68.201,114.299 L59,123.5 C59.7,123.3 60.501,122.999 61.201,122.699 Z M49.5,115 L45.1,119.199 C45.3,119.499 45.601,119.698 45.801,119.898 L50.301,115.398 C50.101,115.298 49.8,115.1 49.5,115 Z M61.4,116.5 L61.1,116.6 C60.6,116.8 60.1,116.9 59.5,117 L52.701,123.799 C53.101,123.899 53.5,123.9 53.9,124 Z M53.6,116.799 L48.301,122.1 C48.601,122.3 48.901,122.4 49.201,122.6 L54.701,117.1 C54.401,116.9 54,116.899 53.6,116.799 Z" fill="none" stroke="currentColor" stroke-width="1.5"/></svg>