<svg xmlns="http://www.w3.org/2000/svg" viewBox="0 0 133.398 182.5" width="24" height="24"><path d="M59.199,0 L41.699,9.5 L0,35 L0,112.5 L40.799,137.1 C37.899,141.7 36.6,147.1 36.6,152.5 C36.6,169.2 49.9,182.5 66.6,182.5 C83.3,182.5 96.6,169.2 96.6,152.5 C96.6,146.7 94.898,141.7 92.398,137.1 L133.398,112.398 L133.398,35 L91.699,10 L74.6,0 L74.6,36.199 L100.799,50.799 L66.699,70 L32.898,50.799 L59.199,36.199 Z M100.5,59.898 L100.5,94.5 L69.299,112.799 L66.799,113.6 L64.699,112.398 L33.5,94.1 L33.5,60.348 L66.699,79.5 Z M66.699,130 C79.199,130 89.199,140 89.199,152.5 C89.199,165 79.199,175 66.699,175 C54.199,175 44.199,165 44.199,152.5 C44.199,140 54.199,130 66.699,130 Z M66.699,137.398 C58.399,137.398 51.699,144.198 51.699,152.398 C51.699,160.698 58.399,167.398 66.699,167.398 C74.999,167.398 81.699,160.698 81.699,152.398 C81.699,144.098 74.999,137.398 66.699,137.398 Z" fill="none" stroke="currentColor" stroke-width="1.5"/></svg>