<svg xmlns="http://www.w3.org/2000/svg" viewBox="0 0 186.999 189.365" width="24" height="24"><path d="M96.202,0.03 C94.491,0 92.749,0.14 90.999,0.465 C79.299,2.665 70.599,12.667 70.099,24.567 C38.599,36.267 17.5,65.967 16.9,99.567 C16.9,102.067 18.9,104.166 21.4,104.266 C23.9,104.266 25.999,102.266 26.099,99.766 L26.099,99.567 C26.699,70.567 44.5,44.666 71.4,33.766 C74.4,42.666 82,49.265 91.2,50.965 L91.2,73.866 C78.2,76.366 68.799,87.765 68.999,100.965 C68.999,104.065 69.499,107.167 70.599,110.167 L49.099,122.667 C40.299,111.467 24.199,109.566 13.099,118.366 C1.999,127.166 0,143.266 8.8,154.366 C16.9,164.766 31.6,167.267 42.8,160.167 C68.2,184.267 106.099,189.365 136.999,172.965 C139.199,171.765 140.1,169.066 138.9,166.866 C137.7,164.566 134.9,163.765 132.7,164.965 C122.2,170.465 110.6,173.366 98.8,173.266 C80.5,173.266 63,166.266 49.7,153.766 C54.8,147.166 56.4,138.467 53.9,130.567 L75.4,118.067 C84.3,129.667 100.8,131.865 112.4,122.965 C114.3,121.565 115.9,119.867 117.3,118.067 L137.2,129.667 C136.2,132.467 135.7,135.366 135.7,138.366 C135.6,152.566 147.1,164.067 161.2,164.167 C175.4,164.267 186.899,152.767 186.999,138.667 C186.799,131.267 183.7,124.266 178.2,119.366 C179.6,113.266 180.3,107.066 180.3,100.866 C180.3,71.666 164.6,44.667 139.3,30.067 C137.1,28.767 134.299,29.566 132.999,31.766 C131.699,33.966 132.5,36.767 134.7,38.067 C161.5,53.367 175.7,84.065 169.8,114.465 C159.7,110.765 148.399,113.765 141.499,121.965 L121.4,110.167 C126.4,95.667 118.8,79.966 104.3,74.866 C103.1,74.466 101.799,74.066 100.499,73.866 L100.499,50.965 C114.399,48.365 123.599,34.965 120.999,20.965 C118.724,8.803 108.182,0.239 96.202,0.03 Z M95.999,9.067 C105.199,9.067 112.7,16.566 112.7,25.766 C112.7,34.966 105.199,42.465 95.999,42.465 C86.799,42.365 79.3,34.966 79.3,25.766 C79.3,16.566 86.799,9.067 95.999,9.067 Z M95.8,16.567 C90.7,16.567 86.599,20.666 86.599,25.766 C86.599,30.866 90.7,34.965 95.8,34.965 C100.9,34.865 104.999,30.866 104.999,25.766 C104.999,20.666 100.9,16.567 95.8,16.567 Z M105.7,82.866 C111,82.766 115.399,86.966 115.499,92.266 C115.599,97.566 111.399,101.967 106.099,102.067 C100.799,102.167 96.4,97.967 96.3,92.667 L96.3,92.366 C96.3,87.166 100.5,82.966 105.7,82.866 Z M160.9,121.465 C170.1,121.465 177.599,128.967 177.599,138.167 C177.599,147.467 170.2,154.966 160.9,154.866 C151.7,154.866 144.2,147.367 144.2,138.167 C144.2,128.967 151.7,121.465 160.9,121.465 Z M29.099,121.766 C38.299,121.766 45.8,129.265 45.8,138.465 C45.8,147.665 38.299,155.167 29.099,155.167 C19.899,155.167 12.4,147.665 12.4,138.465 C12.4,129.265 19.899,121.766 29.099,121.766 Z M28.9,129.266 C23.8,129.266 19.7,133.365 19.7,138.465 C19.7,143.565 23.8,147.667 28.9,147.667 C34,147.667 38.099,143.565 38.099,138.465 C38.099,133.465 34,129.366 28.9,129.266 Z M160.9,129.266 C155.8,129.266 151.7,133.365 151.7,138.465 C151.7,143.565 155.8,147.667 160.9,147.667 C166,147.667 170.099,143.565 170.099,138.465 C170.099,133.465 166,129.366 160.9,129.266 Z" fill="none" stroke="currentColor" stroke-width="1.5"/></svg>