<svg xmlns="http://www.w3.org/2000/svg" viewBox="0 0 158.7 159.7" width="24" height="24"><path d="M77.7,129.1 C75.9,129.3 73.6,130 71,131.1 C68.7,132.1 66.4,133.1 64.1,134.3 L61.3,135.8 C61.1,136 60.9,136.1 60.6,136.2 C60,136.5 59.5,136.8 58.9,137.2 L56.5,138.7 C55.7,139.2 54.9,139.7 53.9,140.2 C53.1,140.7 52.2,141.2 51.5,141.8 C50.9,142.3 50.3,142.8 49.8,143.3 C49.4,143.8 49.1,144.3 49.1,144.6 C49.1,145.3 50.2,146.4 52.4,147.8 C54.5,149.2 56.7,150.5 58.9,151.7 C61.1,152.8 62.1,153.4 62.1,153.2 C70.5,157.5 76.3,159.7 79.5,159.7 C81,159.7 83.1,159.1 85.9,158.1 C88.4,157.1 91,156 93.5,154.9 L96.7,153.4 C104.2,149.8 108.5,147 109.7,145 C110,144.3 109.7,143.4 108.6,142.3 C107.5,141.2 106,140.1 103.8,138.9 L99.6,136.6 C99,136.3 98.1,135.9 97,135.3 C87.4,130.6 81.1,128.6 77.7,129.1 M68.2,124.4 C68.5,123.7 68.2,122.9 67.2,122 C66.2,121.1 64.8,120 63,118.8 C61.6,117.9 60.2,117.1 58.7,116.4 C57.7,115.8 56.7,115.4 55.6,114.9 C55.5,114.8 55.4,114.8 55.3,114.7 C46.1,110.1 39.8,108 36.3,108.5 C32.5,109.1 27,111.4 20,115.3 C19.8,115.5 19.6,115.6 19.3,115.6 C19,115.7 18.4,116 17.6,116.5 C15.9,117.5 14.1,118.5 12.5,119.6 C11.7,120.2 10.8,120.7 10,121.2 C9.3,121.6 8.8,122.1 8.4,122.7 C8,123.2 7.7,123.7 7.7,124 C7.7,124.7 8.8,125.9 10.9,127.3 C12.9,128.7 15.1,130 17.3,131.1 C19.4,132.2 20.5,132.6 20.6,132.6 C21.6,133.1 22.8,133.7 24.3,134.5 C25.8,135.3 28.1,136.2 31.3,137.3 C34.5,138.4 36.7,139 38.2,139 C39.7,139 41.8,138.4 44.6,137.4 C47.1,136.4 49.6,135.4 52,134.2 C54,133.2 55.2,132.7 55.2,132.6 C62.7,129.2 67.1,126.3 68.2,124.4 M158.4,100.3 C158.5,99.3 158.6,97.9 158.5,96.2 C158.4,94.4 158.1,91.9 157.5,88.7 C156.9,85.5 156,83.3 155,82 C153.9,80.7 152.2,79.3 149.7,77.6 C147.6,76.2 145.5,74.9 143.4,73.7 L140.6,72.2 C140.2,72 139.8,71.7 139.3,71.5 C138.8,71.3 137.8,70.7 136.3,70 C135,69.3 133.6,68.6 132.2,68 C131.1,67.5 129.8,67.1 128.6,66.7 C127.5,66.4 126.7,66.3 126.2,66.5 C125.5,66.9 124.9,68.4 124.7,70.8 C124.4,73.2 124.2,75.6 124.2,78 L124.4,81.3 C124.4,90.2 125.2,96 126.8,98.5 C127.5,99.6 129.1,101.1 131.4,102.9 C133.6,104.5 135.8,106 138.1,107.4 L141.3,109.1 C142,109.5 143,110.1 144.3,110.8 C145.6,111.5 147.5,112.5 150.1,113.6 C152.7,114.7 154.5,115.3 155.5,115.3 C157.7,115.3 158.7,110.2 158.4,100.3 M4.2,72.1 C5.3,72.1 7,71.6 9.3,70.6 C11.5,69.6 13.6,68.6 15.7,67.4 L18.4,65.9 C26.5,61.3 31.3,57.9 32.8,55.3 C33.5,54.2 34.1,52.1 34.5,49.3 C34.9,46.7 35.1,44.2 35.2,41.6 L35.4,38.1 C35.6,29.2 35,24.2 33.5,23.4 C32.9,23.1 31.4,23.4 29,24.4 C26.7,25.3 24.4,26.4 22.2,27.5 C20,28.6 19,29.1 19.1,29.1 C12.1,32.7 7.3,35.9 4.9,38.8 C2.5,41.6 1.2,47.7 1.2,57.2 C0.9,67 1.9,72.1 4.2,72.1 M138.3,113.6 C129.1,109 122.8,106.9 119.3,107.4 C117.6,107.7 115.4,108.5 112.6,109.5 C109.8,110.6 107.6,111.7 105.6,112.7 L102.9,114.2 C102.7,114.4 102.4,114.4 102.2,114.6 C101.6,114.9 101.1,115.3 100.5,115.6 L98,117 C97.2,117.4 96.4,118 95.4,118.5 C94.6,119 93.8,119.6 93,120.2 C92.4,120.6 91.8,121.1 91.3,121.7 C90.8,122.2 90.6,122.6 90.6,122.9 C90.7,124.4 95.1,127.5 103.6,131.8 C104.6,132.2 105.8,132.8 107.3,133.5 C108.8,134.2 111.1,135.2 114.3,136.3 C117.4,137.4 119.7,138 121.1,138 C122.6,138 124.7,137.5 127.5,136.5 C130.1,135.6 132.6,134.4 135,133.2 L138.2,131.7 C145.8,128.1 150.1,125.3 151.2,123.3 C151.6,122.7 151.3,121.8 150.1,120.7 C149,119.6 147.4,118.5 145.6,117.5 C143.7,116.4 142.3,115.6 141.1,115 C139.7,114.2 138.8,113.8 138.3,113.6 M32.1,98.4 C32.8,97.3 33.2,95.2 33.6,92.4 C34,89.6 34.3,87 34.4,84.7 L34.4,81.2 C34.6,72.3 34,67.3 32.5,66.5 C31.9,66.2 30.4,66.5 28,67.5 C25.7,68.4 23.4,69.5 21.2,70.6 C19,71.7 18,72.2 18.1,72.2 C11,75.9 6.3,79.2 3.9,82 C1.5,84.8 0.2,90.9 0.2,100.4 C0,110.3 1,115.3 3.2,115.4 C4.3,115.4 6,114.9 8.3,113.9 C10.5,112.9 12.6,111.9 14.7,110.7 L17.4,109.2 C25.7,104.5 30.6,101 32.1,98.4 M85.2,32.3 C85.9,33.4 87.6,34.9 89.9,36.7 C92,38.2 94.3,39.7 96.6,41.1 L99.8,43 C100.5,43.4 101.5,44 102.8,44.7 C104.1,45.4 106,46.4 108.6,47.5 C111.2,48.6 113,49.2 114,49 C116.2,49 117.2,44 116.8,34.1 C116.8,24.5 115.7,18.4 113.3,15.7 C112.2,14.4 110.5,13 108.2,11.3 C106.2,9.9 104,8.6 101.8,7.4 L99.1,5.9 C98.6,5.7 98.1,5.4 97.6,5.1 C97.1,4.8 96.1,4.3 94.6,3.6 C93.3,2.9 91.9,2.3 90.5,1.7 C89.4,1.2 88.1,0.8 86.9,0.4 C85.8,0.1 84.9,0 84.5,0.2 C83.8,0.5 83.2,1.9 83,4.4 C82.7,6.8 82.6,9.2 82.7,11.6 L82.7,14.9 C82.9,24 83.6,29.7 85.2,32.3 M114.1,59.1 C113,57.8 111.3,56.4 108.9,54.7 C106.8,53.3 104.7,51.9 102.6,50.6 L99.9,49.1 C99.4,48.9 98.9,48.6 98.4,48.3 C97.4,47.7 96.4,47.2 95.4,46.8 C94.1,46.1 92.7,45.5 91.3,44.9 C90.1,44.4 88.9,44 87.7,43.6 C86.6,43.3 85.7,43.2 85.3,43.4 C84.6,43.7 84,45.1 83.8,47.6 C83.5,50 83.4,52.4 83.5,54.8 L83.5,58.1 C83.6,67 84.4,72.8 85.9,75.3 C86.6,76.4 88.3,77.9 90.6,79.7 C92.7,81.2 95,82.7 97.3,84.1 L100.5,85.8 C101.2,86.3 102.2,86.9 103.5,87.6 C104.8,88.2 106.7,89.2 109.3,90.4 C111.9,91.6 113.7,92.2 114.7,92 C115.5,92 116.2,91.3 116.6,89.9 C117.1,88.4 117.3,86.7 117.5,84.6 C117.6,82.5 117.7,80.9 117.7,79.8 C117.7,78.7 117.6,77.8 117.5,77.2 C117.3,67.4 116.2,61.3 114.1,59.1 M125.9,55.2 C126.6,56.3 128.3,57.8 130.6,59.6 C132.8,61.1 135,62.7 137.3,64.1 L140.5,65.8 C141.2,66.2 142.2,66.8 143.5,67.5 C144.8,68.2 146.7,69.2 149.3,70.3 C151.9,71.4 153.7,72 154.7,72 C156.9,71.9 157.9,66.9 157.5,57 C157.5,47.5 156.4,41.4 154,38.6 C152.9,37.3 151.2,35.9 148.8,34.2 C146.7,32.8 144.6,31.5 142.5,30.3 L139.8,28.8 L138.4,28.3 C137.4,27.7 136.4,27.2 135.4,26.7 C134.1,26 132.7,25.3 131.3,24.8 C130.1,24.3 128.9,23.9 127.7,23.5 C126.6,23.2 125.8,23.1 125.3,23.3 C124.6,23.7 124,25.2 123.8,27.6 C123.5,30 123.4,32.3 123.5,34.8 L123.5,38.1 C123.7,47 124.5,52.7 125.9,55.2 M44.1,92.3 C45.2,92.4 46.9,91.9 49.2,90.8 C51.4,89.8 53.5,88.8 55.6,87.6 L58.3,85.9 C66.4,81.4 71.2,78 72.7,75.4 C73.4,74.3 74,72.2 74.4,69.4 C74.8,66.8 75,64.3 75.1,61.7 L75.3,58.2 C75.5,49.3 74.9,44.3 73.4,43.5 C72.7,43.1 71.2,43.3 68.9,44.3 C66.6,45.2 64.4,46.2 62.2,47.5 L59,49.2 C51.9,52.9 47.2,56.2 44.8,59 C42.4,61.6 41.1,67.8 41.1,77.4 L41.1,79.9 C41.1,81 41.2,82.7 41.3,84.8 C41.4,86.9 41.7,88.7 42.2,90.1 C42.7,91.5 43.3,92.3 44.1,92.3 M49.3,102.5 C49.3,103.2 50.4,104.2 52.6,105.7 C54.7,107.1 56.9,108.4 59.1,109.7 L62.3,111.2 C70.8,115.5 76.7,117.7 79.8,117.7 C81.2,117.7 83.3,117.1 86.1,116.1 C88.6,115.1 91.1,114.1 93.6,112.9 L96.8,111.4 C104.4,107.7 108.7,104.9 109.8,102.9 C110,102.7 110,102.4 109.9,102 C109.7,101.6 109.5,101.2 109.2,100.8 C108.8,100.3 108.4,99.9 107.9,99.5 C107.3,99.1 106.8,98.7 106.3,98.3 C105.7,97.9 105.1,97.5 104.3,97 L102.4,95.8 C101.7,95.5 101.2,95.1 100.5,94.8 C99.9,94.6 99.4,94.3 98.9,94 L97.8,93.5 C97.5,93.3 97.3,93.1 97.3,93 C88.4,88.4 82.1,86.3 78.3,86.8 C76.6,87.1 74.4,87.9 71.6,88.9 C68.8,90 66.6,91.1 64.6,92.2 L61.9,93.7 C61.7,93.9 61.4,93.9 61.2,94.1 C60.6,94.4 60.1,94.8 59.5,95.1 C58.6,95.6 57.8,96.1 57,96.6 C56.2,97.1 55.4,97.6 54.4,98.1 C53.6,98.6 52.7,99.1 52,99.7 C51.4,100.2 50.8,100.7 50.3,101.2 C49.6,101.8 49.3,102.2 49.3,102.5 M42,34.2 C41.8,44.1 42.8,49.1 45,49.1 C46.1,49.2 47.8,48.6 50.4,47.5 C52.3,46.6 54.2,45.7 56.1,44.7 C57.1,44.1 58.1,43.6 59.2,43.1 L62.4,41.2 C64.7,39.8 66.9,38.4 69.1,36.8 C71.5,35.1 73.1,33.6 73.6,32.4 C75.1,29.9 76,24.1 76.1,15.2 L76.1,11.9 C76.2,9.5 76,7.1 75.8,4.7 C75.6,2.3 75.1,0.8 74.3,0.5 C73.9,0.3 73.1,0.3 71.9,0.7 C70.7,1 69.5,1.5 68.3,2 C67.1,2.6 65.8,3.1 64.2,3.9 C62.7,4.6 61.7,5.2 61.1,5.4 C60.6,5.6 60.2,5.9 59.7,6.2 L57,7.7 C54.8,8.9 52.6,10.2 50.6,11.6 C48.2,13.2 46.5,14.7 45.5,16 C43.2,18.4 42,24.6 42,34.2" fill="none" stroke="currentColor" stroke-width="1.5"/></svg>