<svg xmlns="http://www.w3.org/2000/svg" viewBox="0 0 165.3 160.7" width="24" height="24"><path d="M83.4,0 C73.2,0 65,7.5 65,16.8 C65,40.8 83.4,75.3 83.4,75.3 C83.4,75.3 101.8,40.6 101.8,16.8 C101.7,7.6 93.5,0 83.4,0 M20.4,55.2 C38.9,70 77,77.3 77,77.3 C77,77.3 61.6,41.9 43.1,27.1 C35.9,21.3 25,23 18.7,30.7 C12.5,38.4 13.3,49.4 20.4,55.2 M130.3,35.3 C131.5,34.4 133,33.9 134.5,33.9 C137.3,33.9 140.1,35.4 142.1,37.9 C145.2,41.9 144.9,47.3 141.5,49.9 C132.6,56.6 118.2,61.5 106.7,64.7 C113.1,54 121.7,41.7 130.3,35.3 M146.9,57 C154.3,51.5 155.3,40.5 149.2,32.5 C145.5,27.6 139.9,25 134.5,25 C131.1,25 127.7,26 124.9,28.2 C105.8,42.6 89.4,77.7 89.4,77.7 C89.4,77.7 128,71.2 146.9,57 M151.1,79.9 C128.2,74.6 91.1,84.3 91.1,84.3 C91.1,84.3 120.3,109.3 143,114.6 C151.9,116.7 160.9,110.6 163.2,101 C165.3,91.4 160,82 151.1,79.9 M86,88.1 C86,88.1 84.9,127.6 95.5,149.1 C99.6,157.5 110.4,160.7 119.7,156.2 C128.9,151.7 132.9,141.3 128.8,132.9 C118,111.3 86,88.1 86,88.1 M38,132.8 C34,141.2 38.1,151.6 47.3,156 C56.5,160.4 67.2,157.1 71.4,148.7 C81.9,127 80.4,87.7 80.4,87.7 C80.4,87.7 48.4,111.3 38,132.8 M15,78.9 C5.7,81 0,90.8 2.3,100.9 C4.6,110.9 14,117.3 23.4,115.3 C47.4,109.8 77.8,83.9 77.8,83.9 C77.8,83.9 38.9,73.4 15,78.9" fill="none" stroke="currentColor" stroke-width="1.5"/></svg>