<svg xmlns="http://www.w3.org/2000/svg" viewBox="0 0 166.7 144.6" width="24" height="24"><path d="M38.6,87.9 L64.9,91.4 L61.4,66.8 L53.8,73.8 C49.7,69.4 43.9,60.7 43.9,45.7 C43.9,25.3 61.7,10.6 80.7,10.6 C103.86,10.6 117.5,21.309 117.5,43.4 C117.5,43.4 120.5,42.7 128.4,44.2 C128.4,15.185 109.817,0 80.6,0 C49.6,0.2 33.3,24.9 33.3,45.8 C33.3,63.3 40.1,74.7 45.9,81.2 Z M103.6,115 L98.4,88.2 L74.5,100.6 L83.5,105.1 C80.8,111 69,133.5 47.3,133.5 C22.3,133.5 10.5,111.5 10.5,94.9 C10.5,78.3 20.5,67.5 29.7,63.7 L28,58.2 L27.1,52 C27.1,52 0,63.6 0,94.9 C0,126.2 21.7,144 47.4,144 C71.5,144 88.6,125.2 93.8,110.1 Z M119.3,49.3 C110.2,49.3 103.6,50.9 98.8,53 L94.3,44 L82.3,68 L109.1,73.6 L103.6,62.6 C107.4,61.1 112.5,59.9 119.3,59.9 C140.7,59.9 156.1,76.7 156.1,96.7 C156.1,118.3 136.8,133.5 119.3,133.5 C101.8,133.5 94.7,123 94.7,123 L87.7,131.8 C99.5,144.6 119.3,144 119.3,144 C149.2,144 166.7,120 166.7,96.6 C166.6,73.3 149.6,49.3 119.3,49.3 Z" fill="none" stroke="currentColor" stroke-width="1.5"/></svg>