<svg xmlns="http://www.w3.org/2000/svg" viewBox="0 0 125.0 158.333" width="24" height="24"><path d="M42.971,0 L42.967,19.792 L82.029,19.792 L82.029,0 L93.75,0 L93.75,19.792 L125,19.792 L125,158.333 L0,158.333 L0,19.792 L31.25,19.792 L31.25,0 Z M109.375,35.625 L15.625,35.625 L15.625,142.5 L109.375,142.5 Z M37.108,106.875 C41.133,106.875 44.592,109.342 46.088,112.867 L50.917,112.871 L69.4,123.104 L77.879,123.104 C92.308,116.967 96.679,121.4 96.679,126.862 C96.679,132.329 92.304,136.758 86.912,136.758 L67.638,129.833 L49.15,119.6 L46.471,119.6 C31.717,126.667 27.346,122.238 27.346,116.771 C27.346,111.304 31.717,106.875 37.108,106.875 Z M86.912,83.125 C92.308,83.125 96.679,87.554 96.679,93.021 C96.679,98.487 92.304,102.917 86.917,102.917 L46.492,95.792 C31.721,102.917 27.346,98.487 27.346,93.021 C27.346,87.554 31.721,83.125 37.113,83.125 C41.117,83.125 44.558,85.567 46.067,89.058 L77.967,89.058 Z M86.912,48.488 C92.308,48.488 96.679,52.921 96.679,58.383 C96.679,63.85 92.304,68.279 86.912,68.279 C82.833,68.279 79.337,65.746 77.879,62.146 L69.4,62.146 L50.917,72.379 L46.083,72.379 C31.717,78.375 27.346,73.946 27.346,68.479 C27.346,63.012 31.717,58.583 37.108,58.583 L49.15,65.646 L67.642,55.417 L77.596,55.417 Z" fill="none" stroke="currentColor" stroke-width="1.5"/></svg>