<svg xmlns="http://www.w3.org/2000/svg" viewBox="0 0 183.536 192.113" width="24" height="24"><path d="M34.133,34.208 C68.267,0.042 123.621,0 157.813,34.104 C123.621,192.113 68.267,192.063 34.133,157.9 C0,123.733 0,68.375 34.133,34.208 Z M146.083,45.946 C118.417,18.3 73.583,18.313 45.937,45.975 C18.287,73.633 18.287,118.475 45.937,146.133 C73.587,173.796 118.417,173.808 146.083,146.163 Z M105.604,112.721 C105.9,112.721 106.188,112.842 106.396,113.054 L106.638,113.429 L106.721,113.862 L106.721,135.237 L115.867,135.237 C116.121,135.229 116.367,135.325 116.554,135.5 C116.833,135.792 116.925,136.204 116.833,136.575 L116.554,137.083 L96.887,162.279 L95.171,162.279 L75.458,137.083 C75.2,136.075 75.317,135.787 75.525,135.571 L75.887,135.321 L76.317,135.238 L84.904,135.238 L84.904,113.863 C84.904,113.404 85.171,113.004 85.558,112.821 L85.979,112.721 Z M139.008,75.221 C139.483,75.221 139.892,75.504 140.063,75.904 L140.154,76.342 L140.154,84.967 L161.596,84.967 C162.054,84.967 162.446,85.238 162.613,85.625 L162.7,86.042 L162.7,105.75 L162.617,106.179 L161.596,106.871 L140.158,106.871 L140.158,115.883 C139.6,116.854 139.188,116.946 138.817,116.854 L138.304,116.575 L113.025,96.825 L112.742,96.325 L113.025,95.275 L138.304,75.483 Z M53.746,75.5 L79.046,95.196 L79.329,95.696 L79.046,96.758 L53.746,116.625 L52.008,116.187 L51.938,115.758 L51.938,107.083 L30.513,107.083 L29.366,105.954 L29.366,85.954 C29.366,85.663 29.491,85.38 29.704,85.171 L30.079,84.942 L30.512,84.871 L52.158,84.871 L52.158,76.196 L52.667,75.221 L53.233,75.221 Z M96.587,29.488 L96.908,29.708 L116.608,55.008 L116.171,56.746 L115.742,56.817 L107.104,56.817 L107.104,78.242 L105.979,79.387 L86.067,79.387 L85.058,78.675 L84.987,78.242 L84.987,56.817 L76.217,56.817 L75.283,55.363 L75.529,55.008 L95.354,29.708 L95.854,29.425 Z" fill="none" stroke="currentColor" stroke-width="1.5"/></svg>