<svg xmlns="http://www.w3.org/2000/svg" viewBox="0 0 166.802 148.4" width="24" height="24"><path d="M48.102,0 C44.202,0 40.5,2.1 38.5,5.5 L2,68.301 C0,71.701 0,75.901 2,79.301 L37.602,142.5 C39.602,145.9 43.202,148 47.102,148.1 L74.201,148.1 C76.301,148.1 78,146.401 78,144.301 C78,142.201 76.301,140.5 74.201,140.5 L47.201,140.5 C45.901,140.5 44.802,139.799 44.102,138.699 L8.5,75.5 C7.9,74.4 7.9,73.001 8.5,71.801 L44.801,9 C45.401,7.9 46.601,7.199 47.801,7.199 L119.701,7.6 C121.001,7.6 122.101,8.3 122.701,9.4 L158.201,72.699 C158.801,73.899 158.801,75.3 158.201,76.4 L144.4,102.1 C143.4,103.9 144.1,106.2 145.9,107.1 C147.7,108.1 150,107.4 150.9,105.6 L164.602,80.1 C166.802,76.9 166.8,72.701 164.9,69.301 L129.701,6.1 C127.801,2.6 124.101,0.5 120.201,0.5 Z M58.801,20.5 C55.601,20.4 52.6,21.999 50.9,24.699 L24.4,70.301 C22.8,73.101 22.8,76.6 24.4,79.4 L50.4,125.801 C52,128.601 55.001,130.4 58.201,130.4 L78,130.4 C80.1,130.4 81.801,128.7 81.801,126.6 C81.801,124.5 80.2,123 78,123 L58.301,123 C57.701,123 57.101,122.699 56.801,122.199 L30.801,76 C30.501,75.5 30.501,74.901 30.801,74.301 L57.301,28.5 C57.601,28.1 58.101,27.801 58.701,27.801 L111.102,28.1 C111.702,28.1 112.302,28.4 112.602,28.9 L138.801,75.301 C139.101,75.901 139.101,76.599 138.801,77.199 L130.5,93.9 C129.6,95.7 130.301,98 132.201,98.9 C134.001,99.8 136.301,99.099 137.201,97.199 L145.5,80.699 C147.1,77.899 147.1,74.4 145.5,71.6 L119.301,25.199 C117.701,22.299 114.601,20.5 111.301,20.5 Z M70.602,37.6 C68.002,37.6 65.6,38.999 64.4,41.199 L46.9,71.5 C45.6,73.7 45.6,76.499 46.9,78.699 L64,109.1 C65.3,111.4 67.701,112.8 70.301,112.9 L83.201,112.9 C85.201,112.8 86.801,111.199 86.801,109.199 C86.801,107.099 85.1,105.4 83,105.4 L70.5,105.4 L53.201,75.301 L70.201,45.301 L104.201,45.301 L121.201,75.6 L114.701,88.1 C113.701,89.9 114.401,92.199 116.301,93.199 C118.101,94.199 120.4,93.5 121.4,91.6 L127.9,79.1 C129.1,76.9 129.1,74.1 127.9,71.9 L111,41.5 C109.7,39.3 107.301,37.801 104.801,37.801 Z M87.701,62.4 C81.001,62.4 75.5,67.8 75.5,74.5 C75.5,81.2 80.902,86.699 87.602,86.699 C94.402,86.699 99.801,81.3 99.801,74.5 C99.801,67.8 94.401,62.4 87.701,62.4 Z M123.953,94.297 C123.629,94.283 123.3,94.35 123,94.5 L113.301,101.5 C112.501,101.8 112.2,102.7 112.5,103.5 C112.6,103.7 112.701,103.9 112.801,104 L115.201,107.6 L113.4,108.801 L105.102,96.301 C104.602,95.501 103.501,95.301 102.701,95.801 L94.4,101.5 C93.7,102.1 93.5,103.1 93.9,104 L102.201,116.5 L100.301,118 L100.301,118.301 L97.9,114.6 C97.3,113.9 96.3,113.7 95.5,114.1 L85.301,120.9 C84.601,121.5 84.401,122.5 84.801,123.4 L91.5,133.6 C92.1,134.3 93.1,134.5 93.9,134.1 L103.9,127.199 C104.7,126.599 104.9,125.599 104.4,124.699 L102,121.1 L103.801,119.6 L106.201,123.199 C106.801,123.899 107.802,124.199 108.602,123.699 L116.9,118 C117.7,117.4 117.9,116.4 117.4,115.5 L114.801,111.9 L116.602,110.699 L116.602,110.5 L119,114.199 C119.6,114.899 120.6,115.099 121.4,114.699 L131.4,108 C132.5,107.2 132.701,106.2 132.201,105.4 L125.4,95 C125.025,94.562 124.494,94.319 123.953,94.297 Z M105.5,103.301 L106.701,105.1 L101.301,108.9 L100.102,107.1 Z M142.398,110.822 C141.184,110.858 139.988,111.475 139.301,112.6 L122.301,139.199 C121.601,140.199 120.501,140.801 119.301,140.801 L87.102,140.801 C85.002,140.801 83.301,142.5 83.301,144.6 C83.301,146.7 85.002,148.4 87.102,148.4 L119.4,148.4 C123.2,148.4 126.701,146.501 128.701,143.301 L145.701,116.699 C146.701,114.799 146.2,112.5 144.5,111.4 C143.862,110.988 143.127,110.801 142.398,110.822 Z M122.949,121.471 C121.977,121.54 121.062,122.025 120.5,122.9 L116.301,130.5 L106,130.5 C104.3,130.5 102.9,131.9 102.9,133.6 C102.9,135.3 104.3,136.699 106,136.699 L116.4,136.699 C118.4,136.499 120.101,135.401 121.201,133.801 L125.9,126.1 C126.7,124.6 126.201,122.701 124.701,121.801 C124.139,121.538 123.533,121.429 122.949,121.471 Z" fill="none" stroke="currentColor" stroke-width="1.5"/></svg>