<svg xmlns="http://www.w3.org/2000/svg" viewBox="0 0 175.4 176.2" width="24" height="24"><path d="M10,119.1 C4.2,118.3 0,113.3 0,107.4 C0,100.7 5.4,95.3 12.1,95.3 C18.8,95.3 24.2,100.7 24.2,107.4 C24.2,110.3 23.4,112.8 21.3,114.9 C35.5,146.1 71.3,163.2 105.5,152.8 L106.3,152.8 C107.6,152.4 108.4,152 109.6,151.6 C112.5,150.4 115.4,149.1 117.1,148.3 C120,146.6 123.8,147.9 125.4,150.8 C127.1,153.7 125.8,157.5 122.9,159.1 C117.5,162 112.5,164.5 108.7,164.9 C68.8,176.2 26.3,156.6 10,119.1 Z M145,119.1 C162.1,90.8 157.5,53.7 132.1,30.8 C129.6,28.7 129.6,25 131.7,22.5 C133.8,20 137.5,20 140,22.1 C170,49.2 175.4,93.3 154.6,126.3 C155.4,128 155.8,129.6 155.8,131.3 C155.8,138 150.4,143.4 143.7,143.4 C137,143.4 131.6,138 131.6,131.3 C131.6,124.6 137,119.2 143.7,119.2 L145,119.2 Z M96.3,14.5 C92.1,13.7 88,13.3 83.8,13.3 C49.6,13.3 20,37.9 15,70 C14.6,72.1 14.6,74.2 14.2,76.2 C14.2,79.5 11.3,82 8,81.6 C4.7,81.2 2.2,78.7 2.6,75.4 C2.6,72.9 3,70.4 3.4,68.3 C9.6,30.4 44.2,1.6 84.2,1.6 C89.6,1.6 94.6,2 99.6,3.3 C101.7,1.2 104.6,0 107.9,0 C114.6,0 120,5.4 120,12.1 C120,18.8 114.6,24.2 107.9,24.2 C102.1,23.3 97.6,19.5 96.3,14.5 Z M31.7,97.5 L31.7,70.8 C31.7,65.4 34.2,62.9 39.6,63.3 L53.8,63.3 C63,63.7 67.6,67.5 68,74.5 C68,79.9 65.1,82.8 59.7,84.1 C64.3,84.5 66.8,86.6 67.2,90.3 L67.6,93.6 L67.6,95.3 C68,97.4 68,98.6 68,99.5 C67.6,102.4 65.9,104.1 62.2,104.1 C58,104.1 55.5,102.4 55.1,98.7 L54.7,93.3 C54.3,90.4 52.6,89.1 49.3,89.1 L44.3,89.1 L44.3,97.4 C44.3,101.6 42.2,103.6 38.1,104.1 C33.8,103.7 31.7,101.6 31.7,97.5 Z M44.2,80.8 L50.4,80.8 C54.2,80.8 55.8,79.6 55.8,77 C55.8,74.5 54.1,72.8 50.4,73.2 L44.2,73.2 Z M80.5,73.3 L72.6,73.3 C69.3,73.3 67.6,71.6 67.2,67.9 C67.2,64.6 69.3,62.9 73,62.9 L100.5,62.9 C104.3,62.9 106.3,64.6 106.3,67.9 C106.3,71.2 104.6,72.9 100.9,73.3 L93,73.3 L93,97.1 C93,101.3 90.9,103.8 86.8,103.8 C82.7,103.8 80.6,101.3 80.6,97.1 C80.5,97 80.5,73.3 80.5,73.3 Z M104.6,83.3 C105,70.4 112.1,63.3 125.4,62.1 C135.4,62.9 140.8,66.7 142.1,73.3 C141.7,76.6 139.6,78.7 135.9,78.7 C134.6,78.7 133.8,78.7 133.4,77.9 C133,77.5 132.1,76.7 131.3,75 C130.1,72.5 128,71.2 125.1,71.7 C120.5,72.1 118,75.9 118,82.5 C118,89.6 120.9,93.3 125.9,93.3 C128,93.7 130.1,92.1 132.1,89.1 C133.4,87.4 135,86.6 136.7,86.6 C140.5,87 142.5,88.7 142.5,92 C141.7,98.7 136.3,102.4 125.8,103.2 C112.1,103.3 105,96.6 104.6,83.3 Z" fill="none" stroke="currentColor" stroke-width="1.5"/></svg>