<svg xmlns="http://www.w3.org/2000/svg" viewBox="0 0 157.869 125.0" width="24" height="24"><path d="M157.869,70.388 L122.767,2.829 C121.729,1.029 120.262,0 118.1,0 L40.288,0 C38.129,0 36.658,1.029 35.621,2.829 L0.692,70.388 C0,71.075 0,71.846 0,72.529 L0,120.029 C0,122.858 2.162,125 5.012,125 L153.029,125 C155.883,125 157.869,122.858 157.869,120.029 Z M40.633,61.042 C45.65,58.212 46.775,57.1 44.267,51.442 C43.921,50.754 43.921,49.983 43.921,49.642 C43.921,46.038 46.775,43.208 50.75,43.208 C52.221,43.208 53.258,43.554 54.729,43.896 C59.742,45.696 60.867,43.208 62.679,39.95 L63.025,39.267 C68.388,28.892 81.358,24.604 92.25,29.662 C99.083,32.921 103.404,38.925 104.179,46.125 C104.525,51.442 105.221,51.871 111.012,53.242 C118.188,54.271 123.979,60.358 124.671,67.217 L34.929,67.217 C35.967,64.988 38.129,62.5 40.638,61.042 Z M79.196,17.833 C68.744,18.764 59.425,24.796 54.296,33.95 C53.254,33.608 51.788,33.608 50.662,33.608 C41.329,33.608 33.717,40.725 33.717,49.725 C33.717,51.183 34.062,52.212 34.062,53.671 C28.704,56.929 25.071,61.9 23.95,67.988 L13.229,67.988 L43.146,10.117 L114.467,10.117 L144.729,67.988 L134.612,67.988 C133.921,56.929 125.621,47.238 114.038,44.754 C111.962,27.862 96.487,16.033 79.196,17.833 Z M148.012,77.5 L148.012,115.054 L10.375,115.054 L10.375,77.504 L148.012,77.504 Z" fill="none" stroke="currentColor" stroke-width="1.5"/></svg>