<svg xmlns="http://www.w3.org/2000/svg" viewBox="0 0 154.8 164.299" width="24" height="24"><path d="M77.4,0 C43.3,0 7.3,16.198 5.7,16.898 L1.4,18.898 L1.2,23.699 C1.2,25.099 0,58.199 6.3,88.699 L19.7,75.799 C16.6,53.399 16.501,39.1 16.601,29.1 C26.901,25 53.2,15.398 77.4,15.398 C101.6,15.398 127.9,25 138.2,29.1 C138.3,40.6 137.7,70.399 131.3,94.199 C122.4,125.799 87.4,143.299 77.4,147.799 C69,144.099 43.4,131.4 29.9,109 L51.8,85.199 L73.4,103.199 L108.3,65 L108.9,78 L122.9,77.299 L120.999,38.799 L83.9,40.6 L84.601,54.6 L97.4,54 L71.999,81.898 L50.499,63.898 L11.3,106.398 L13.7,111.199 C31.3,146.699 73,162.599 74.8,163.299 L77.499,164.299 L80.2,163.299 C82.4,162.499 133.7,142.799 146.2,98.299 C154.8,65.999 153.599,25.399 153.499,23.699 L153.3,18.898 L148.999,16.898 C147.499,16.198 111.5,0 77.4,0 Z" fill="none" stroke="currentColor" stroke-width="1.5"/></svg>