<svg xmlns="http://www.w3.org/2000/svg" viewBox="0 0 170.032 183.333" width="24" height="24"><path d="M34.753,94.75 L36.807,98.175 L53.932,108.354 L53.932,134.196 L32.599,122.058 L32.599,110.312 L18.016,118.829 L18.016,129.596 L85.749,168.946 L151.82,129.696 L151.82,119.417 L164.249,136.742 L85.845,183.333 L5.587,136.642 L5.587,111.683 L32.603,95.925 L32.603,95.729 L32.799,95.825 L34.757,94.75 Z M60.103,111.683 L84.866,125.875 L108.357,112.562 L108.357,138.208 L84.866,152.108 L60.103,137.525 Z M136.645,95.825 L136.645,122.058 L115.312,134.196 L115.312,108.354 Z M84.866,63.133 L108.357,77.229 L108.357,106.396 L84.866,119.708 L60.103,105.417 L60.103,77.625 L84.866,63.138 Z M101.603,84.963 L87.512,93.283 L87.512,110.508 L101.603,102.483 L101.603,84.958 Z M66.757,85.546 L66.757,101.6 L80.853,109.725 L80.853,93.379 Z M56.774,47.083 L78.407,59.608 L53.937,73.704 L53.937,101.996 L32.695,89.758 L32.695,61.175 L56.778,47.083 Z M84.182,0 L164.249,46.496 L164.249,73.608 L135.178,90.638 L135.178,90.542 L115.407,101.992 L115.407,73.708 L91.032,59.517 L112.666,46.988 L136.745,61.179 L136.745,75.571 L152.016,66.663 L152.016,53.742 L84.278,14.388 L18.212,53.638 L18.212,63.821 C24.087,80.85 18.703,86.333 12.045,86.333 L5.878,46.592 Z M84.866,70.867 L69.891,79.675 L84.182,87.604 L98.57,79.088 Z M84.866,31.225 L106.303,43.458 L84.866,55.892 L63.432,43.458 Z" fill="none" stroke="currentColor" stroke-width="1.5"/></svg>