<svg xmlns="http://www.w3.org/2000/svg" viewBox="0 0 163.699 151.199" width="24" height="24"><path d="M132.1,0 C114.6,0 100.5,13.899 100.5,31.199 C100.5,35.999 101.699,40.5 103.699,44.6 L81.9,58.6 L60.4,44.801 C62.2,40.801 63.199,36.5 63.199,32.1 C63.199,14.9 49,0.9 31.6,0.9 C14.1,0.9 0,14.8 0,32.1 C0,49.4 14.1,63.199 31.6,63.199 C40.8,63.199 49.001,59.3 54.801,53.1 L76.301,66.9 L76.301,89.301 C61.301,91.701 49.801,104.5 49.801,120 C49.801,137.2 64,151.199 81.4,151.199 C98.8,151.199 113,137.3 113,120 C113,104.5 101.5,91.801 86.5,89.301 L86.5,67.6 L109.4,52.9 C115.4,59 123.5,62.4 132.1,62.4 C149.6,62.4 163.699,48.499 163.699,31.199 C163.699,13.899 149.5,0 132.1,0 Z M82.301,6.5 C75.601,6.5 70.199,11.8 70.199,18.4 C70.199,24.9 75.601,30.301 82.301,30.301 C89.001,30.301 94.4,25 94.4,18.4 C94.4,11.8 89.001,6.5 82.301,6.5 Z M132.1,12.9 C142.4,12.9 150.699,21.099 150.699,31.199 C150.699,41.299 142.3,49.5 132.1,49.5 C121.8,49.5 113.5,41.299 113.5,31.199 C113.5,21.099 121.8,12.9 132.1,12.9 Z M31.5,13.801 C41.8,13.801 50.1,22 50.1,32.1 C50.2,42.2 41.8,50.4 31.5,50.4 C21.2,50.4 12.9,42.2 12.9,32.1 C12.9,22 21.2,13.801 31.5,13.801 Z M45.1,68.801 C38.4,68.801 33,74.099 33,80.699 C33,87.299 38.4,92.6 45.1,92.6 C51.7,92.6 57.199,87.299 57.199,80.699 C57.199,74.099 51.8,68.801 45.1,68.801 Z M116.699,70.6 C109.999,70.6 104.6,75.9 104.6,82.5 C104.6,89.1 109.999,94.4 116.699,94.4 C123.399,94.4 128.801,89.1 128.801,82.5 C128.801,75.9 123.399,70.6 116.699,70.6 Z M81.4,101.801 C91.6,101.701 100,110 100,120.1 C100,130.2 91.7,138.4 81.4,138.4 C71.1,138.4 62.801,130.2 62.801,120.1 C62.801,110 71.1,101.801 81.4,101.801 Z" fill="none" stroke="currentColor" stroke-width="1.5"/></svg>