<svg xmlns="http://www.w3.org/2000/svg" viewBox="0 0 183.4 183.4" width="24" height="24"><path d="M91.7,0 C118.3,0 140.1,19.9 142.2,45.2 L142.4,45.2 C165.1,45.2 183.4,63.1 183.4,85.1 C183.4,106.2 166.5,123.5 145.1,124.9 L145.1,125 L112.1,125 L112.1,84.5 L137.6,84.5 L91.7,40 L45.9,84.5 L71.4,84.5 L71.4,125.1 L38.4,125.1 L38.4,125 C17,123.6 0.1,106.3 0.1,85.2 C0.1,63.2 18.5,45.3 41.1,45.3 L41.3,45.3 C43.3,19.9 65.1,0 91.7,0 Z M91.7,175 L95.6,175 L108.3,150 L108.3,175 L116.6,175 L116.6,141.7 L102.2,141.7 L91.7,164.5 L81.1,141.7 L66.7,141.7 L66.7,175 L75,175 L75,150 L87.7,175 Z M91.7,183.4 L0,183.4 L0,133.4 L183.3,133.4 L183.3,183.4 Z M22,163.7 L12.5,163.7 C12.5,165.7 13,167.4 14,168.8 C15,170.2 16.4,171.4 18.2,172.3 C20,173.2 22,173.9 24.3,174.3 C26.7,174.7 29.1,175 31.4,174.9 C34.4,174.9 37.1,174.6 39.4,174.1 C41.7,173.6 43.6,172.9 45.2,172 C46.8,171.1 47.9,170 48.7,168.8 C49.5,167.5 49.9,166.2 49.9,164.7 C49.9,162.9 49.4,161.4 48.3,160.3 C47.2,159.1 45.9,158.2 44.5,157.6 C43.1,156.9 41.6,156.4 40.1,156.1 C39,155.9 37.8,155.6 36.6,155.5 C33.8,155 31.6,154.6 29.8,154.3 C28.4,154.1 27.1,153.7 25.7,153.3 C24.7,153 24.1,152.6 23.7,152.2 C23.4,151.8 23.2,151.2 23.2,150.7 C23.2,150 23.4,149.5 23.8,149 C26,147.6 26.8,147.4 27.5,147.3 C28.3,147.2 29.1,147.1 29.9,147.1 C31.1,147.1 32.2,147.2 33.2,147.3 C34.2,147.5 35.1,147.7 35.9,148.1 C36.7,148.5 37.3,148.9 37.8,149.6 C38.3,150.2 38.6,151 38.6,152 L48.1,152 C48.1,150.2 47.6,148.6 46.6,147.3 C45.5,145.9 44.2,144.9 42.6,144.1 C40.8,143.2 38.9,142.6 36.9,142.3 C34.7,141.9 32.4,141.7 30.2,141.7 C28.2,141.7 26.2,141.9 24.2,142.3 C22.2,142.7 20.4,143.3 18.8,144.1 C17.2,144.9 15.9,145.9 15,147.1 C14,148.3 13.5,149.7 13.5,151.4 C13.5,152.9 13.9,154.1 14.7,155.1 C15.5,156.1 16.5,157 17.7,157.7 C18.9,158.4 20.4,158.9 21.9,159.4 C23.5,159.8 25.1,160.2 26.8,160.5 L31.6,161.4 C33.2,161.7 34.6,162 35.8,162.3 C37,162.7 38.1,163.1 38.8,163.6 C39.5,164.1 40,164.8 40,165.7 C40,166.5 39.7,167.2 39.1,167.7 C38.5,168.2 37.8,168.6 36.9,168.9 C36,169.2 35.1,169.4 34.1,169.5 C33.1,169.6 32.2,169.7 31.3,169.7 C30,169.7 28.8,169.6 27.6,169.4 C26.5,169.2 25.4,168.9 24.5,168.4 C23.6,168 22.9,167.4 22.3,166.6 C22.3,165.7 22,164.7 22,163.7 Z M170.9,154.2 C168.8,147 161.3,141.7 152.5,141.7 C142,141.7 133.4,149.2 133.4,158.4 C133.4,167.6 141.9,175.1 152.5,175.1 C161.4,175.1 168.8,169.8 170.9,162.6 L161.6,162.6 C159.8,165.1 156.4,166.8 152.4,166.8 C146.6,166.8 141.8,163.1 141.8,158.5 C141.8,153.9 146.5,150.2 152.4,150.2 C156.3,150.2 159.7,151.9 161.6,154.4 Z" fill="none" stroke="currentColor" stroke-width="1.5"/></svg>