<svg xmlns="http://www.w3.org/2000/svg" viewBox="0 0 166.201 151.699" width="24" height="24"><path d="M27.9,0 C12.5,0 0,12.5 0,27.9 L0,96.699 C0,111.299 10.8,122.9 25,124.6 L25,133.4 C25,140.4 28.802,146.3 34.602,149.6 C37.602,150.9 40.5,151.699 43.4,151.699 C47.1,151.699 50.501,150.4 53.701,147.9 L89.5,124.1 L138.301,124.1 C153.701,124.1 166.201,111.599 166.201,96.199 L166.201,27.9 C166.201,12.5 153.701,0 138.301,0 Z M138.801,13.699 C146.801,13.699 153,20 153,27.9 L153,96.4 C153,104.4 146.701,110.6 138.801,110.6 L85.5,110.6 L45.9,136.799 C43.8,137.999 42.101,137.199 41.301,136.799 C40.901,136.299 39.201,135.5 39.201,133 L39.201,110.5 L28.4,110.5 C20.5,110.5 14.201,104.199 14.201,96.299 L14.201,28 C14.201,20 20.5,13.799 28.4,13.799 C28.4,13.799 138.801,13.799 138.801,13.699 Z M50.9,52.9 C45.4,52.9 40.9,57.4 40.9,62.9 C40.9,68.4 45.4,72.9 50.9,72.9 C56.4,72.9 60.9,68.4 60.9,62.9 C60.9,57.4 56.4,52.9 50.9,52.9 Z M84.201,52.9 C78.701,52.9 74.201,57.4 74.201,62.9 C74.201,68.4 78.701,72.9 84.201,72.9 C89.701,72.9 94.201,68.4 94.201,62.9 C94.201,57.4 89.701,52.9 84.201,52.9 Z M115.9,52.9 C110.4,52.9 105.9,57.4 105.9,62.9 C105.9,68.4 110.4,72.9 115.9,72.9 C121.4,72.9 125.9,68.4 125.9,62.9 C125.9,57.4 121.4,52.9 115.9,52.9 Z" fill="none" stroke="currentColor" stroke-width="1.5"/></svg>