<svg xmlns="http://www.w3.org/2000/svg" viewBox="0 0 158.3 176.8" width="24" height="24"><path d="M44.7,134.5 L50.1,137.4 L54.5,139.7 L71.2,148.7 C71.5,148.9 71.9,149 72.2,149.2 L101.9,165 L83.9,175.1 C80.9,176.8 77.2,176.8 74.2,175.1 L44.7,158.4 Z M20.1,96.2 L20.1,144.5 L5,135.9 C1.9,134.1 0,130.9 0,127.3 L0,49.4 C0,45.8 1.9,42.5 5,40.8 L74.3,1.7 C77.3,0 81,0 84,1.7 L153.3,40.8 C156.4,42.6 158.3,45.8 158.3,49.4 L158.3,127.3 C158.3,130.9 156.4,134.2 153.3,135.9 L127.9,150.2 L105.7,138.5 L129.1,126 C134.7,123 138.1,117.2 138.1,110.9 L138.1,67.1 C138.1,60.8 134.7,55 129.1,52 L87,29.4 C82.1,26.8 76.2,26.8 71.3,29.4 L29.1,52 C23.5,55 20.1,60.8 20.1,67.1 Z M107,66.3 C110.2,68.1 112.2,71.4 112.1,75.1 L112.1,100.5 C112.1,104.2 110.1,107.6 107,109.3 L82.9,122.4 C80.1,123.9 76.7,123.9 73.9,122.4 L49.8,109.3 C46.6,107.5 44.6,104.2 44.7,100.5 L44.7,75.1 C44.7,71.4 46.7,68 49.8,66.3 L73.9,53.2 C76.7,51.7 80.1,51.7 82.9,53.2 Z" fill="none" stroke="currentColor" stroke-width="1.5"/></svg>