<svg xmlns="http://www.w3.org/2000/svg" viewBox="0 0 158.4 158.4" width="24" height="24"><path d="M48,97.7 L22.8,142.6 L34.3,149.1 L0,157.5 L37.1,91.5 L24.6,84.4 L43.5,80 L43.5,80.1 C43.5,86.1 45.1,92.2 48,97.7 Z M110.8,24.4 C91.9,13.7 69.8,13.8 51.7,22.6 L46.2,19.5 C66.5,8.4 91.8,7.6 113.4,19.7 C116.9,21.7 120.1,23.9 123.1,26.4 L120.5,31.1 C117.4,28.6 114.2,26.4 110.8,24.4 Z M128.3,121.6 C130.9,118.5 133.2,115.2 135.2,111.7 C146.2,92.1 145.7,69.2 136.1,50.6 L139.1,45.2 C151.1,65.8 152.3,92 139.8,114.3 C137.8,117.8 135.5,121.1 133,124.2 Z M31.5,38 C28.5,41.4 25.9,45.1 23.7,49 C13.1,67.9 13.2,89.8 21.8,108 L18.7,113.5 C7.8,93.2 7,67.9 19.1,46.4 C21.3,42.5 23.9,38.8 26.8,35.4 Z M48.1,136.2 C67.6,147.2 90.3,146.8 108.7,137.3 L114.1,140.3 C93.6,152.2 67.6,153.3 45.5,140.8 C41.5,138.6 37.8,135.9 34.3,132.9 L37,128.1 C40.4,131.3 44.1,134 48.1,136.2 Z M53.7,65.8 C61.7,51.6 79.6,46.5 93.9,54.4 L94,54.4 C108.2,62.4 113.3,80.5 105.3,94.8 C97.3,109 79.4,114.1 65.1,106.2 L65,106.2 C50.7,98.2 45.7,80.1 53.7,65.8 Z M142.1,135.5 L148.5,124 L156.9,158.4 L93.7,122.7 L86.6,135.2 L82.2,116.2 L82.3,116.2 C88,115.7 93.6,113.9 98.5,110.9 Z M15.8,23 L9.4,34.5 L1,0.1 L67.8,37.8 L74.9,25.3 L79.3,44.3 L79.2,44.3 L79.1,44.3 C75.8,44.3 72.5,44.8 69.3,45.8 C66.7,46.6 64.2,47.6 61.8,48.9 Z M110.3,60 L135.6,14.9 L124.1,8.4 L158.4,0 L122.2,64.5 L134.7,71.6 L115.8,76.1 L115.8,76 C115.2,70.3 113.3,64.9 110.3,60 Z" fill="none" stroke="currentColor" stroke-width="1.5"/></svg>