<svg xmlns="http://www.w3.org/2000/svg" viewBox="0 0 192.087 192.1" width="24" height="24"><path d="M34.162,34.196 C68.321,0.029 123.717,0 157.912,34.129 C192.087,68.337 192.087,123.758 157.912,157.971 C123.717,192.1 68.321,192.071 34.162,157.904 C0,123.737 0,68.362 34.162,34.196 Z M150.137,41.863 C179.975,120.167 179.975,71.763 150.137,41.863 Z M103.746,126.708 L104.575,127.225 L104.642,127.558 L104.642,144.004 L111.475,144.004 L111.433,144.171 C112.2,144.408 112.267,144.725 112.2,145.013 L111.992,145.413 L96.483,164.754 L95.425,164.988 L95.117,164.754 L79.612,145.413 C79.612,144.542 79.779,144.271 80.033,144.121 L80.467,144.004 L87.3,144.004 L87.3,127.563 L88.196,126.708 Z M104.712,74.9 Z M45.079,79.567 L45.479,79.775 L64.829,95.404 L65.025,95.675 L65.092,96.004 L65.025,96.329 L64.829,96.6 L45.479,112.1 L44.071,111.421 L44.071,104.588 L27.625,104.588 L26.771,103.733 L26.771,88.058 L27.287,87.233 L27.621,87.163 L44.242,87.163 L44.242,80.329 L44.642,79.567 Z M147.062,79.617 L147.367,79.7 L147.871,80.458 L147.871,87.292 L164.317,87.292 C164.55,87.292 164.775,87.387 164.937,87.558 L165.121,87.85 L165.171,88.187 L165.171,103.729 L165.054,104.163 L164.317,104.588 L147.7,104.588 L147.7,111.421 L146.462,111.975 L127.112,96.475 L126.896,96.088 L126.896,95.663 L127.112,95.279 L146.462,79.779 L146.754,79.642 Z M95.971,81.742 Z M96.254,26.946 L96.654,27.167 L112.333,46.508 L112.383,46.788 L112.333,47.067 C112.333,47.379 112.162,47.65 111.908,47.804 L111.479,47.917 L104.646,47.917 L104.646,64.317 C104.646,64.55 104.546,64.775 104.379,64.938 L104.087,65.117 L103.746,65.171 L88.196,65.171 L87.3,64.317 L87.3,47.925 L80.333,47.925 C79.558,47.492 79.487,47.183 79.558,46.9 L79.779,46.517 L95.417,27.175 L95.812,26.954 L96.254,26.954 Z" fill="none" stroke="currentColor" stroke-width="1.5"/></svg>