<svg xmlns="http://www.w3.org/2000/svg" viewBox="0 0 190.0 122.2" width="24" height="24"><path d="M79.5,28.8 L85.3,26.5 C86.5,30 87.6,32.3 88.8,34.6 L91.1,34.6 C98,34.6 102.6,40.4 102.6,46.1 L102.6,47.3 C111.8,50.8 130.9,57.1 132.6,57.7 C134.9,53.1 139.5,49.6 145.3,49.6 L146.5,49.6 C147.5,44.6 148.7,39.6 150,34.6 L141.7,34.6 C141.7,33.4 132.5,0 96.8,0 L88.7,0 C70.2,3.5 59.9,11.5 55.3,19.6 C64.5,26.5 73.7,33.4 82.9,38 C81.8,34.6 80.6,32.3 79.5,28.8 Z M78.3,8.1 C79.5,11.6 80.6,13.9 81.8,17.3 L76,19.6 L72.5,9.2 Z M126.7,91 L129,91 C132.5,85.2 134.8,80.6 137.1,74.9 C133.6,72.6 131.3,68 131.3,63.4 C129.3,62.9 109.4,56.5 99,53 C97.8,56.5 94.4,57.6 90.9,57.6 C84,57.6 79.4,51.8 79.4,46.1 L79.4,43.8 C70.2,38 62.1,32.3 52.9,25.4 C49.5,35.7 50.7,43.8 50.7,44.9 C50.7,44.9 12.7,47.2 6.9,74.9 C0,109.5 36.9,122.1 49.5,122.1 L104.8,122.1 C110.6,117.5 115.2,111.7 118.6,106 C118.6,104.8 117.4,102.5 117.4,100.2 C117.5,94.5 122.1,91 126.7,91 Z M103.6,73.7 C101.3,71.4 99,67.9 97.8,65.6 L102.4,62.1 C103.6,64.4 105.9,67.9 108.2,70.2 Z M109.4,81.8 L114,78.3 C116.3,80.6 117.5,84.1 119.8,86.4 L115.2,89.9 C112.9,87.5 110.6,85.2 109.4,81.8 Z M188.9,71.4 C180.8,71.4 169.3,70.2 157.8,69.1 C155.5,73.7 150.9,77.2 145.1,77.2 L143.9,77.2 C141.6,83 138.1,88.7 135.8,94.5 C137,95.7 138.1,98 138.1,100.3 C138.1,106.1 133.5,109.5 128.9,109.5 L126.7,109.5 C123.2,114.1 119.8,117.6 116.3,122.2 L143.9,122.2 C145.1,122.2 173.8,122.2 187.7,95.7 C188.9,87.5 190,79.5 188.9,71.4 Z M141.7,120.9 L134.8,114 L139.4,109.4 L146.3,116.3 Z M187.7,65.7 C184.2,50.7 172.7,39.2 155.4,35.8 C154.2,40.4 153.1,46.2 151.9,51.9 C155.4,54.2 157.7,57.7 158.8,63.4 C170.4,64.5 179.7,65.7 187.7,65.7 Z" fill="none" stroke="currentColor" stroke-width="1.5"/></svg>