<svg xmlns="http://www.w3.org/2000/svg" viewBox="0 0 183.4 183.4" width="24" height="24"><path d="M55.4,82.2 C59.3,93.1 71.3,98.8 82.2,94.9 C90.5,91.9 96.1,84 96.1,75.2 C96.1,66.3 90.5,58.4 82.2,55.4 C102.2,50.2 122.7,62.2 128,82.2 C133.3,102.2 121.2,122.7 101.2,128 C81.2,133.3 60.7,121.2 55.4,101.2 C53.8,95 53.8,88.4 55.4,82.2 Z M91.7,183.4 C41.1,183.4 0,142.4 0,91.7 C0,41 41.1,0 91.7,0 C142.3,0 183.4,41 183.4,91.7 C183.4,142.4 142.3,183.4 91.7,183.4 Z M91.7,150 C123.9,150 150,123.9 150,91.7 C150,59.5 123.9,33.4 91.7,33.4 C59.5,33.4 33.4,59.5 33.4,91.7 C33.4,123.9 59.5,150 91.7,150 Z M66.7,12.7 C73,20.5 82.5,25 92.6,25 C102.6,25 112.2,20.5 118.5,12.7 C110.2,9.8 101.4,8.4 92.6,8.4 C83.5,8.4 74.8,9.9 66.7,12.7 Z" fill="none" stroke="currentColor" stroke-width="1.5"/></svg>