<svg xmlns="http://www.w3.org/2000/svg" viewBox="0 0 164.1 144.6" width="24" height="24"><path d="M121,27.7 L121.2,36.4 C124,36.5 126.2,36.9 128.8,37.6 C130.8,41 133.4,47.2 135,55.6 L121.4,55.6 L121.4,57.6 L135.4,57.6 C136,61.5 136.4,66.3 136.5,71.3 L121.4,71.3 L121.4,73.3 L136.5,73.3 C136.5,77.9 136.1,82.4 135.4,87 L121.4,87 L121.4,89 L134.9,89 C133.2,97.4 130.6,103.7 128.6,107 C126,107.7 123.8,108.1 121,108.2 L120.8,116.9 C144.9,116.2 164,96.5 164,72.2 C164.1,48.1 145.1,28.4 121,27.7 Z M155.4,71.3 L139.3,71.3 C139.3,66.7 138.9,62.2 138.2,57.6 L152.3,57.6 C154.2,61.8 155.2,66.6 155.4,71.3 Z M132.1,38.7 C140.2,41.7 146.9,48.2 151,55.7 L137.7,55.7 C136.3,48.1 134,42.1 132.1,38.7 Z M132.1,106 C134,102.6 136.3,96.6 137.8,89 L151,89 C146.8,96.4 140.2,103 132.1,106 Z M138.2,87 C138.8,83.1 139.3,78.4 139.3,73.3 L155.5,73.3 C155.3,78 154.2,82.6 152.3,87 Z M109.8,107 C112.4,107.7 116.4,108.1 119.3,108.2 L119.3,89 L103.6,89 C105.2,97.4 107.8,103.6 109.8,107 Z M103.1,87 L119.3,87 L119.3,73.3 L102,73.3 C102.1,77.9 102.5,82.5 103.1,87 Z M102,71.3 L119.3,71.3 L119.3,57.7 L103.1,57.7 C102.4,62.2 102,66.7 102,71.3 Z M74.8,72.3 C74.8,47.7 95.1,27.7 119.7,27.7 L120.9,27.7 L120.9,0 L64,8.9 L64,135.7 L120.8,144.6 L120.9,116.9 L119.7,116.9 C95.1,116.9 74.8,97 74.8,72.3 Z M99.3,73.3 L83.5,73.3 C83.7,78 84.8,82.6 86.7,87 L100.4,87 C99.8,82.5 99.4,77.9 99.3,73.3 Z M103.5,55.5 L119.3,55.5 L119.3,36.4 C116.4,36.5 112.4,37 109.8,37.7 C107.7,41.1 105.2,47.2 103.5,55.5 Z M100.4,57.7 L86.6,57.7 C84.7,62 83.6,66.6 83.5,71.4 L99.3,71.4 C99.4,66.3 99.8,61.6 100.4,57.7 Z M88.1,89 C92.1,96.3 98.6,102.8 106.6,105.9 C104.7,102.5 102.5,96.6 101,89 Z M106.5,38.8 C98.6,41.9 92.1,48.2 88.1,55.5 L101,55.5 C102.4,48 104.6,42.3 106.5,38.8 Z M21.1,113.6 L28.3,113.6 L28.3,106.6 L21,106.6 Z M7,113.6 L13.8,113.6 L13.8,106.6 L7,106.6 Z M37.7,102.6 L41.7,106.6 L35.3,106.6 L35.3,113.6 L41.7,113.6 L38.1,118.7 L42.3,121.8 L53,109.6 L41.8,98.4 Z M21.3,71 L14.2,71 L14.2,77.7 L21.3,77.7 Z M0,77.8 L6.9,77.8 L6.9,71.1 L0,71.1 Z M34.7,62.1 L44.1,71.1 L28,71.1 L28,77.8 L44.1,77.8 L34.7,86.8 L38.8,90.9 L55.2,74.5 L38.8,58 Z M21.3,35.6 L7.3,35.6 L7.3,42.7 L21.3,42.7 Z M38.3,46.5 L42.4,50.6 L53.8,39.2 L42.4,27.8 L38.3,31.9 L42.7,35.6 L28.4,35.6 L28.4,42.7 L42.6,42.7 Z" fill="none" stroke="currentColor" stroke-width="1.5"/></svg>