<svg xmlns="http://www.w3.org/2000/svg" viewBox="0 0 183.299 183.301" width="24" height="24"><path d="M108.699,0 C101.999,0 96.199,5.4 96.199,12.1 C96.199,18.8 101.599,24.199 108.699,24.199 C111.999,24.199 115.4,23 117.5,20.4 C148.7,31.2 170.801,59.999 170.801,93.699 C170.801,101.999 169.6,110 167,117.5 L177.801,123.699 C181.101,114.499 183.199,104.099 183.199,93.699 C183.299,54.199 157.001,20.501 120.801,8.801 C119.101,3.801 114.599,0 108.699,0 Z M75.801,5.9 C33.301,13.4 1.199,50.001 1.199,93.801 C1.199,100.001 2.001,106.3 3.301,112.1 C1.201,114.2 0,117.1 0,120.4 C0,127.1 5.4,132.5 12.5,132.5 C19.2,132.5 25,127.1 25,120.4 C24.9,114.6 20.8,110.001 15.4,108.801 C14.6,103.801 13.699,99.201 13.699,93.801 C13.699,56.701 40.401,25.9 75.801,18.4 L75.801,5.9 Z M92.301,32.699 C87.701,32.699 82.7,33.1 78.5,34.4 C82.4,37.9 87.4,42.5 92.4,48.4 C93.6,48 94.499,48 95.699,48 C98.999,48 101.9,49.201 104,51.801 C113.2,47.601 121.101,45.1 127.301,43.5 C117.301,36.8 105.201,32.699 92.301,32.699 Z M70.4,36.699 C56.6,41.699 45.401,51.699 38.301,64.199 C41.201,67.499 45.8,72.1 52.5,77.1 C54.2,76.3 56.301,75.4 58.301,75.4 C60.401,75.4 62.5,75.8 64.1,77.1 L70.301,72.1 C75.301,68.3 80.3,65 84.9,62.1 C84.5,61.3 84.5,60.399 84.5,59.199 C84.5,56.699 85.3,54.6 86.6,52.5 C80.4,45.5 74.9,39.999 70.4,36.699 Z M134.5,49.199 C128.3,50.399 118.7,53 107,57.9 L107,59.1 C107,61.6 106.2,63.701 104.9,65.801 C108.7,71.601 112.001,78.301 115.301,85.801 C117.401,91.201 119.5,96.6 121.1,101.6 C124.4,102.4 127.3,104.901 129,108.301 C131.5,108.701 134,108.699 136.5,108.699 C142.7,109.099 148.599,108.699 153.199,108.699 C153.699,103.399 154.5,98.801 154.5,93.801 C154.5,76.301 147,60.099 134.5,49.199 Z M88.801,68 C84.201,70.9 79.6,73.8 74.6,77.6 L68.4,82.6 C68.8,83.8 69.199,85.501 69.199,86.801 L69.199,88.5 C76.599,92.1 85.799,96.7 96.199,100.5 C100.799,102.2 105.4,103.399 110,104.699 C111.2,103.499 112.501,102.599 113.801,102.199 C112.501,97.599 110.901,93 108.801,88.4 C105.901,81.7 102.599,75.5 99.199,70.1 C97.999,70.5 97.1,70.5 95.9,70.5 C93.4,70.5 90.901,69.7 88.801,68 Z M34.9,70.9 C32,78 30.301,85.901 30.301,93.801 C30.301,100.501 31.5,107.1 33.6,113 C37.4,106.8 42.4,99.699 48.6,92.199 C47.8,90.499 46.9,88.4 46.9,86.4 C46.9,84.7 47.299,83.499 47.699,82.199 C41.999,77.899 37.8,74.2 34.9,70.9 Z M65.801,94.1 C63.701,96.2 60.8,97.4 57.9,97.4 C56.2,97.4 54.999,97 53.699,96.6 C45.799,105.8 40.4,114.499 36.6,121.199 C41.6,130.499 48.3,137.901 56.6,143.801 C58.7,142.101 60.4,140.499 62.4,139.199 C79.5,126.299 94.9,118.8 107,114.6 C107,113.8 106.6,112.9 106.6,112.1 L106.6,110.801 C102.4,109.501 97.799,108.3 93.699,106.6 C82.899,102.8 73.701,98.3 65.801,94.1 Z M134.9,115.4 C133.7,115.4 131.599,115.399 128.699,116.199 C127.899,117.899 127.001,119.1 125.801,120.4 C127.501,129.6 128.301,137.499 128.301,143.699 C138.301,136.599 146.201,127 150.801,115.4 L134.9,115.4 Z M110.801,120.4 C99.101,124.6 83.7,131.6 67,144.6 C65.8,145.4 64.501,146.7 62.801,147.5 C71.601,152.1 81.6,154.6 92,154.6 C102.4,155 112.401,152.5 120.801,147.9 C121.201,141.7 120.799,133.3 118.699,122.9 L117.9,122.9 C115,122.9 112.501,122.1 110.801,120.4 Z M156.199,136.301 C149.499,136.301 143.699,141.7 143.699,148.4 C143.699,149.7 144.1,150.499 144.1,151.699 C130.3,163.799 112,171.301 92,171.301 C69.1,171.301 48.199,161.3 33.699,145.9 L22.5,152.1 C39.2,171.3 64.199,183.301 91.699,183.301 C114.999,183.301 136.7,174.5 152.5,160 C153.3,160.4 154.2,160.4 155.4,160.4 C162.1,160.4 167.9,155.001 167.9,148.301 C167.9,141.601 162.899,136.301 156.199,136.301 Z" fill="none" stroke="currentColor" stroke-width="1.5"/></svg>