<svg xmlns="http://www.w3.org/2000/svg" viewBox="0 0 138.0 166.6" width="24" height="24"><path d="M75.5,0 C63,0 52.6,10.4 52.6,22.9 C53,35 62.201,44.501 73.801,45.801 L73.801,73.699 L78.4,73.699 L78.4,45.801 C89.6,44.601 98.4,35 98.4,22.9 C98.4,10.4 88,0 75.5,0 Z M16.699,54.4 C7.499,54.4 0,61.9 0,71.1 C0,80.3 7.499,87.801 16.699,87.801 C22.999,87.901 28.401,84.5 31.301,79.5 L40.9,84.5 L43,80.301 L33,74.9 C33.4,73.7 33.4,72.4 33.4,71.1 C33.4,61.9 25.899,54.4 16.699,54.4 Z M121.301,61.5 C112.101,61.5 104.6,68.999 104.6,78.199 C104.6,79.399 104.6,80.7 105,82 L93.699,87.4 C90.799,82.4 84.899,79.099 78.699,78.199 L78.699,86.1 L74.1,86.1 L74.1,78.301 C67.9,79.101 62.4,82.5 59.5,87.1 L47.4,81.301 L45.301,85.5 L57.4,91.301 C56.6,93.801 56.199,95.9 56.199,98.4 C56.199,100.9 56.6,103 57.4,105.5 L48.699,109.699 L45.4,111.4 L47.5,115.6 L59.6,109.801 C60.8,111.901 62.5,113.599 64.6,115.199 C67.5,117.299 70.799,118.5 74.199,119 L74.199,112.801 L78.801,112.801 L78.801,119.5 C83.001,119.1 87.1,117 90.5,114.1 C91.8,112.8 93.001,111.6 93.801,109.9 L103.801,114.9 L105.5,115.699 C105.1,116.999 105.1,117.8 105.1,119 C105.1,124.4 109.7,129 115.1,129 C120.5,129 125.1,124.4 125.1,119 C125.1,113.6 120.101,108.6 114.301,108.6 C111.401,108.6 108.899,109.9 107.199,111.5 L95.1,105.699 C95.5,105.299 95.5,104.4 95.5,103.6 C95.9,101.9 96.301,100.7 96.301,99 C96.301,97.3 95.9,95.7 95.5,94 C95.5,93.6 95.1,92.801 95.1,92.301 L106.699,86.6 C109.599,91.6 115.001,94.9 121.301,94.9 C130.501,94.9 138,87.399 138,78.199 C138,68.999 130.501,61.5 121.301,61.5 Z M41.301,113.699 L27.6,120.4 C25.9,118.3 23,117.1 20.1,117.1 C14.7,117.1 10.1,121.7 10.1,127.1 C10.1,132.5 14.7,137.1 20.1,137.1 C25.5,137.1 30.1,132.5 30.1,127.1 L30.1,125 L43.9,117.9 C43.8,117.9 41.301,113.699 41.301,113.699 Z M73.801,125.4 L73.801,140.4 C67.601,141.2 62.6,146.601 62.6,153.301 C62.6,160.401 68.4,166.6 75.9,166.6 C83,166.6 89.199,160.801 89.199,153.301 C88.799,147.101 84.2,141.6 78.4,140.4 L78.4,125.4 L73.801,125.4 Z" fill="none" stroke="currentColor" stroke-width="1.5"/></svg>