<svg xmlns="http://www.w3.org/2000/svg" viewBox="0 0 10.08 12.93" width="24" height="24"><path d="M5.04,0 C4.91,0 1.05,1.9 1,1.99 C0.88,2.23 0,6.27 0.05,6.36 C0.08,6.41 0.71,7.21 1.46,8.14 L2.81,9.83 L5.03,9.83 L7.25,9.83 L8.66,8.07 L10.08,6.3 L9.58,4.13 C9.31,2.94 9.07,1.94 9.04,1.92 C8.97,1.85 5.12,0.01 5.04,0 Z M5.28,1.99 C5.47,2 5.49,2.28 5.89,2.31 C6.41,2.35 6.35,1.86 6.75,2.2 C7.15,2.54 6.66,2.56 6.79,3.07 C6.91,3.58 7.35,3.38 7.16,3.86 C6.96,4.34 6.78,3.89 6.34,4.16 C5.89,4.44 6.22,4.8 5.7,4.76 C5.18,4.72 5.56,4.41 5.16,4.07 C4.76,3.74 4.52,4.16 4.4,3.65 C4.27,3.15 4.68,3.41 4.88,2.93 C5.08,2.44 4.6,2.35 5.05,2.07 C5.1,2.04 5.15,2.02 5.19,2 C5.22,1.99 5.25,1.99 5.28,1.99 Z M5.8,2.56 C5.73,2.56 5.65,2.57 5.58,2.59 C5.18,2.71 4.95,3.13 5.07,3.53 C5.19,3.93 5.62,4.16 6.02,4.04 C6.42,3.92 6.64,3.5 6.52,3.1 C6.43,2.78 6.13,2.56 5.8,2.56 Z M2.81,3.86 C2.85,3.86 2.9,3.87 2.96,3.89 C3.44,4.04 2.95,4.29 3.29,4.66 C3.63,5.02 3.92,4.55 4.03,5.04 C4.15,5.53 3.68,5.24 3.54,5.72 C3.39,6.2 3.94,6.21 3.57,6.55 C3.2,6.89 3.23,6.35 2.74,6.46 C2.25,6.57 2.51,7.05 2.03,6.91 C1.55,6.76 2.04,6.51 1.7,6.14 C1.36,5.77 1.07,6.24 0.96,5.75 C0.84,5.26 1.31,5.56 1.45,5.08 C1.6,4.6 1.05,4.58 1.42,4.24 C1.79,3.9 1.76,4.45 2.25,4.34 C2.68,4.24 2.53,3.86 2.81,3.86 Z M6.38,4.39 C6.42,4.39 6.48,4.4 6.55,4.42 C7.1,4.64 6.37,4.97 6.8,5.38 C7.23,5.79 7.53,5.05 7.77,5.59 C8.01,6.13 7.26,5.85 7.27,6.45 C7.28,7.04 8.02,6.73 7.81,7.28 C7.59,7.83 7.26,7.1 6.85,7.53 C6.44,7.96 7.18,8.26 6.64,8.5 C6.1,8.74 6.38,7.99 5.78,8 C5.19,8.02 5.5,8.75 4.95,8.54 C4.4,8.32 5.13,7.99 4.7,7.58 C4.27,7.17 3.97,7.91 3.73,7.37 C3.49,6.83 4.24,7.11 4.23,6.52 C4.21,5.92 3.48,6.24 3.69,5.68 C3.91,5.13 4.24,5.86 4.65,5.43 C5.06,5 4.32,4.7 4.86,4.46 C5.4,4.22 5.12,4.97 5.71,4.96 C6.23,4.95 6.06,4.38 6.38,4.39 Z M2.5,4.64 C2.08,4.64 1.74,4.98 1.74,5.4 C1.74,5.82 2.08,6.15 2.5,6.15 C2.91,6.15 3.25,5.82 3.25,5.4 C3.25,4.98 2.91,4.64 2.5,4.64 Z M5.75,5.37 C5.13,5.37 4.63,5.86 4.63,6.48 C4.63,7.1 5.13,7.6 5.75,7.6 C6.37,7.6 6.86,7.1 6.86,6.48 C6.86,5.86 6.36,5.37 5.75,5.37 Z M6.55,10.63 L6.55,10.35 L6.8,10.35 L6.8,10.63 Z M6.55,12.37 L6.55,10.91 L6.8,10.91 L6.8,12.37 Z M4.98,12.93 L4.98,10.91 L5.21,10.91 L5.21,11.1 L5.23,12.93 Z M5.2,11.65 Z M4.36,12.19 L3.37,11.32 L4.59,11.76 L4.41,12.37 Z M4.34,11.63 Z" fill="none" stroke="currentColor" stroke-width="1.5"/></svg>