<svg xmlns="http://www.w3.org/2000/svg" viewBox="0 0 7.72 5.0" width="24" height="24"><path d="M0.73,2.5 C0.73,1.84 1.27,1.3 1.93,1.3 L3.48,1.3 L3.48,0.57 L1.93,0.57 C0.87,0.57 0,1.43 0,2.5 C0,3.57 0.87,4.43 1.93,4.43 L3.48,4.43 L3.48,3.7 L1.93,3.7 C1.27,3.7 0.73,3.16 0.73,2.5 Z M2.32,2.89 L5.41,2.89 L5.41,2.11 L2.32,2.11 Z M5.79,0.57 L4.25,0.57 L4.25,1.3 L5.79,1.3 C6.45,1.3 6.99,1.84 6.99,2.5 C6.99,3.16 6.45,3.7 5.79,3.7 L4.25,3.7 L4.25,4.43 L5.79,4.43 C6.86,4.43 7.72,3.57 7.72,2.5 C7.72,1.43 6.86,0.57 5.79,0.57 Z" fill="none" stroke="currentColor" stroke-width="1.5"/></svg>