<svg xmlns="http://www.w3.org/2000/svg" viewBox="0 0 9.7 9.7" width="24" height="24"><path d="M8.54,4.62 L7.85,4.62 L7.85,2.77 C7.85,2.26 7.44,1.85 6.93,1.85 L5.08,1.85 L5.08,1.15 C5.08,0.52 4.56,0 3.93,0 C3.29,0 2.77,0.52 2.77,1.15 L2.77,1.85 L0.92,1.85 C0.42,1.85 0,2.26 0,2.77 L0,4.53 L0.69,4.53 C1.38,4.53 1.94,5.09 1.94,5.77 C1.94,6.46 1.38,7.02 0.69,7.02 L0,7.02 L0,8.78 C0,9.28 0.42,9.7 0.92,9.7 L2.68,9.7 L2.68,9.01 C2.68,8.32 3.24,7.76 3.93,7.76 C4.61,7.76 5.17,8.32 5.17,9.01 L5.17,9.7 L6.93,9.7 C7.44,9.7 7.85,9.28 7.85,8.78 L7.85,6.93 L8.54,6.93 C9.18,6.93 9.7,6.41 9.7,5.77 C9.7,5.14 9.18,4.62 8.54,4.62 Z" fill="none" stroke="currentColor" stroke-width="1.5"/></svg>