<svg xmlns="http://www.w3.org/2000/svg" viewBox="0 0 10.9 10.83" width="24" height="24"><path d="M6.58,0 L6.58,2.24 L8.88,2.24 L8.88,0 Z M6.58,3.22 L6.58,3.79 C6.85,3.72 7.13,3.69 7.42,3.69 C7.94,3.69 8.43,3.8 8.88,3.99 L8.88,3.22 Z M0.02,3.25 L0.02,5.49 L2.32,5.49 L2.32,3.25 Z M3.3,3.25 L3.3,5.49 L4.27,5.49 C4.59,4.95 5.05,4.49 5.6,4.18 L5.6,3.25 Z M7.56,4.15 C5.72,4.15 4.22,5.66 4.22,7.49 C4.22,9.33 5.72,10.83 7.56,10.83 C9.39,10.83 10.9,9.33 10.9,7.49 C10.9,5.66 9.39,4.15 7.56,4.15 Z M7.22,5.82 L7.72,5.82 L7.72,7.56 L9.23,8.46 L8.96,8.9 L7.22,7.83 Z M0,6.51 L0,8.74 L2.3,8.74 L2.3,6.51 Z M3.29,6.51 L3.29,8.74 L4.03,8.74 C3.85,8.31 3.75,7.85 3.75,7.36 C3.75,7.06 3.79,6.78 3.85,6.51 Z" fill="none" stroke="currentColor" stroke-width="1.5"/></svg>