<svg xmlns="http://www.w3.org/2000/svg" viewBox="0 0 10.58 9.28" width="24" height="24"><path d="M3.23,0 L3.23,1.06 L3.78,1.06 L3.78,0.78 L3.78,0.55 L4.92,0.55 L4.92,0 Z M6.02,0 L6.02,0.55 L8.23,0.55 L8.23,0 Z M9.33,0 L9.33,0.55 L10.03,0.55 L10.03,1.51 L10.58,1.51 L10.58,0.28 C10.58,0.12 10.48,0 10.31,0 Z M1.62,1.47 L1.62,2.75 L2.17,2.75 L2.17,2.02 L3.1,2.02 L3.1,1.47 Z M4.2,1.47 L4.2,2.02 L6.41,2.02 L6.41,1.47 Z M7.51,1.47 L7.51,2.02 L8.43,2.02 L8.43,2.76 L8.98,2.76 L8.98,1.75 C8.98,1.56 8.87,1.47 8.7,1.47 Z M3.23,2.16 L3.23,2.94 L0.27,2.94 C0.12,2.94 0.02,3.04 0.02,3.22 L0.02,8 C0.02,8.19 0.14,8.27 0.29,8.27 L7.1,8.27 C7.28,8.27 7.37,8.16 7.37,8 L7.37,6.8 L8.05,6.8 L8.05,6.25 L7.37,6.25 L7.37,5.33 L8.43,5.33 L8.43,6.07 L8.98,6.07 L8.98,5.33 L9.44,5.33 L9.44,4.78 L8.98,4.78 L8.98,3.87 L8.43,3.87 L8.43,4.78 L7.37,4.78 L7.37,3.22 C7.37,3.05 7.26,2.94 7.1,2.94 L3.78,2.94 L3.78,2.16 Z M10.03,2.62 L10.03,4.82 L10.58,4.82 L10.58,2.62 Z M0,8.64 L0,9.28 L7.38,9.28 L7.38,8.64 Z" fill="none" stroke="currentColor" stroke-width="1.5"/></svg>