<svg xmlns="http://www.w3.org/2000/svg" viewBox="0 0 18.13 17.51" width="24" height="24"><path d="M9,0.01 C8.84,0.02 8.68,0.06 8.54,0.13 L2.27,3.12 C1.94,3.28 1.7,3.58 1.62,3.93 L0.07,10.66 C0,10.97 0.06,11.3 0.23,11.57 C0.26,11.6 0.28,11.63 0.3,11.67 L4.64,17.06 C4.87,17.34 5.22,17.51 5.58,17.51 L12.54,17.51 C12.9,17.51 13.25,17.34 13.48,17.06 L17.82,11.66 C18.04,11.38 18.13,11.01 18.05,10.66 L16.5,3.93 C16.42,3.58 16.18,3.28 15.85,3.12 L9.58,0.13 C9.4,0.04 9.2,0 9,0.01 Z" fill="none" stroke="currentColor" stroke-width="1.5"/></svg>