<svg xmlns="http://www.w3.org/2000/svg" viewBox="0 0 10.08 13.32" width="24" height="24"><path d="M5.04,0 C4.91,0 1.05,1.9 1,1.99 C0.88,2.23 0,6.28 0.05,6.36 C0.08,6.41 0.71,7.21 1.46,8.14 L2.81,9.83 L5.03,9.83 L7.25,9.83 L8.66,8.07 L10.08,6.3 L9.58,4.13 C9.31,2.94 9.07,1.94 9.04,1.92 C8.97,1.85 5.12,0.01 5.04,0 Z M5.24,0.95 L6.15,1.22 L5.24,1.48 L4.33,1.22 Z M4.33,1.32 L5.18,1.57 L5.18,2.75 L4.33,2.28 Z M6.15,1.32 L6.15,2.28 L5.3,2.75 L5.3,1.57 Z M3.95,2.93 L4.86,3.19 L3.95,3.46 L3.04,3.19 Z M6.16,2.93 L7.07,3.19 L6.16,3.46 L5.25,3.19 Z M3.04,3.3 L3.89,3.55 L3.89,4.73 L3.04,4.26 Z M4.86,3.3 L4.86,4.26 L4.01,4.73 L4.01,3.55 Z M5.25,3.3 L6.1,3.55 L6.1,4.73 L5.25,4.26 Z M7.07,3.3 L7.07,4.26 L6.22,4.73 L6.22,3.55 Z M3.62,4.81 C3.89,4.82 3.68,5.09 3.99,5.24 C4.32,5.39 4.38,5 4.59,5.3 C4.8,5.6 4.41,5.53 4.44,5.89 C4.46,6.25 4.84,6.11 4.68,6.44 C4.53,6.77 4.4,6.39 4.1,6.6 C3.8,6.8 4.1,7.06 3.74,7.09 C3.38,7.12 3.64,6.82 3.31,6.66 C2.98,6.51 2.92,6.9 2.71,6.6 C2.51,6.3 2.89,6.37 2.87,6.01 C2.84,5.65 2.46,5.79 2.62,5.46 C2.78,5.13 2.9,5.51 3.2,5.3 C3.5,5.1 3.2,4.84 3.56,4.81 C3.58,4.81 3.6,4.81 3.62,4.81 Z M5.96,5.17 C6.44,5.19 5.97,5.64 6.41,5.84 C6.85,6.04 6.88,5.38 7.21,5.74 C7.54,6.09 6.89,6.08 7.06,6.53 C7.24,6.98 7.72,6.54 7.7,7.02 C7.69,7.5 7.23,7.04 7.04,7.48 C6.84,7.92 7.49,7.94 7.14,8.28 C6.79,8.61 6.8,7.96 6.35,8.13 C5.9,8.3 6.34,8.78 5.86,8.77 C5.37,8.75 5.84,8.3 5.4,8.1 C4.96,7.9 4.93,8.56 4.6,8.2 C4.27,7.85 4.92,7.86 4.75,7.41 C4.57,6.96 4.1,7.4 4.11,6.92 C4.12,6.44 4.58,6.9 4.77,6.46 C4.97,6.02 4.32,6 4.67,5.66 C5.02,5.33 5.01,5.98 5.46,5.81 C5.92,5.64 5.47,5.16 5.96,5.17 Z M3.64,5.43 C3.35,5.43 3.11,5.67 3.11,5.96 C3.11,6.25 3.35,6.49 3.64,6.49 C3.93,6.49 4.17,6.25 4.17,5.96 C4.17,5.67 3.93,5.43 3.64,5.43 Z M5.91,5.91 C5.32,5.91 4.84,6.38 4.84,6.97 C4.84,7.56 5.32,8.03 5.91,8.03 C6.49,8.03 6.97,7.56 6.97,6.97 C6.97,6.38 6.49,5.91 5.91,5.91 Z M8.38,13.29 L8.35,13.05 L8.25,11.26 L8.51,11.26 L8.82,12.11 L9.34,11.26 L9.59,11.26 L9.03,12.75 Z M6.81,12.72 L7.34,11.96 L6.85,11.26 L7.16,11.26 L7.38,11.6 L7.84,11.26 L8.14,11.26 L7.64,11.95 L8.18,12.72 L7.88,12.72 L7.57,12.27 L7.49,12.14 L7.11,12.72 Z M5.31,11.99 Z M5.57,11.99 Z M4.46,12.72 L4.46,11.26 L4.68,11.26 L4.68,11.48 L5.17,11.54 L4.71,12.72 Z M2.89,13.28 L2.89,11.26 L3.12,11.26 L3.12,11.45 L3.14,13.28 Z M3.12,12 Z M1.85,12.12 L1.85,11.87 L2.61,11.87 L2.61,12.12 Z M0.54,12.72 L0.54,10.7 L0.79,10.7 L0.79,11.85 L1.37,11.26 L1.69,11.26 L1.14,11.8 L1.75,12.72 L1.45,12.72 L0.96,11.97 L0.79,12.14 L0.79,12.72 Z" fill="none" stroke="currentColor" stroke-width="1.5"/></svg>