<svg xmlns="http://www.w3.org/2000/svg" viewBox="0 0 11.03 8.62" width="24" height="24"><path d="M0.31,0 C0.09,0 0.01,0.08 0.01,0.3 L0.01,1.53 L0.61,1.53 L0.61,0.6 L1.91,0.6 L1.91,0 Z M3.7,0 L3.7,0.6 L5.49,0.6 L5.49,0 Z M7.28,0 L7.28,0.6 L9.08,0.6 L9.08,0 Z M10.43,0.44 L10.43,2.23 L11.03,2.23 L11.03,0.44 Z M0,2.56 L0,8.61 L7.86,8.62 L7.86,8.02 L6.24,8.02 L6.24,2.56 Z M10.43,4.02 L10.43,5.82 L11.03,5.82 L11.03,4.02 Z M10.43,7.61 L10.43,8.02 L9.65,8.02 L9.65,8.62 L10.73,8.62 C10.94,8.62 11.03,8.51 11.03,8.32 L11.03,7.61 Z" fill="none" stroke="currentColor" stroke-width="1.5"/></svg>