<svg xmlns="http://www.w3.org/2000/svg" viewBox="0 0 9.75 10.0" width="24" height="24"><path d="M6.84,1.7 C5.7,1.7 4.77,2.63 4.77,3.77 L4.77,5.02 C4.31,5.02 3.94,5.39 3.94,5.85 L3.94,9.17 C3.94,9.63 4.31,10 4.77,10 L8.92,10 C9.38,10 9.75,9.63 9.75,9.17 L9.75,5.85 C9.75,5.39 9.38,5.02 8.92,5.02 L8.92,3.77 C8.92,2.63 7.99,1.7 6.84,1.7 Z M6.84,2.53 C7.53,2.53 8.09,3.08 8.09,3.77 L8.09,5.02 L5.6,5.02 L5.6,3.77 C5.6,3.08 6.16,2.53 6.84,2.53 Z M4.42,2.45 L4.02,2.57 L4.02,3.47 C4.09,3.1 4.22,2.75 4.42,2.45 Z M6.84,3.51 C6.58,3.51 6.39,3.7 6.39,3.96 L6.39,4.42 L7.29,4.42 L7.29,3.96 C7.29,3.7 7.1,3.51 6.84,3.51 Z M0,1.51 L0,5.53 L3.14,7.27 L3.14,6.04 C3.14,5.67 3.3,5.36 3.53,5.11 L3.54,2.57 Z M3.78,0 L0,1.09 L3.78,2.19 L4.9,1.86 C5.41,1.39 6.09,1.09 6.84,1.09 C7.02,1.09 7.2,1.11 7.37,1.15 L7.55,1.09 Z" fill="none" stroke="currentColor" stroke-width="1.5"/></svg>