<svg xmlns="http://www.w3.org/2000/svg" viewBox="0 0 11.18 6.25" width="24" height="24"><path d="M5.59,0 C4.01,0 2.58,0.16 1.56,0.41 C1.05,0.53 0.64,0.68 0.37,0.83 C0.1,0.99 0,1.13 0,1.23 C0,1.33 0.1,1.48 0.37,1.64 C0.64,1.79 1.05,1.94 1.56,2.06 C2.58,2.31 4.01,2.47 5.59,2.47 C7.17,2.47 8.6,2.31 9.62,2.06 C10.13,1.94 10.54,1.79 10.81,1.64 C11.08,1.48 11.18,1.33 11.18,1.23 C11.18,1.13 11.08,0.99 10.81,0.83 C10.54,0.68 10.13,0.53 9.62,0.41 C8.6,0.16 7.17,0 5.59,0 Z M0,1.66 L0,5.02 C0,5.12 0.1,5.26 0.37,5.42 C0.64,5.57 1.05,5.72 1.56,5.84 C2.58,6.09 4.01,6.25 5.59,6.25 C7.17,6.25 8.6,6.09 9.62,5.84 C10.13,5.72 10.54,5.57 10.81,5.42 C11.08,5.26 11.18,5.12 11.18,5.02 L11.18,1.66 C11.09,1.74 11.09,1.85 10.97,1.92 C10.66,2.1 10.23,2.25 9.7,2.38 C8.64,2.64 7.19,2.8 5.59,2.8 C3.99,2.8 2.54,2.64 1.48,2.38 C0.95,2.25 0.52,2.1 0.21,1.92 C0.09,1.85 0.09,1.74 0,1.66 Z" fill="none" stroke="currentColor" stroke-width="1.5"/></svg>