<svg xmlns="http://www.w3.org/2000/svg" viewBox="0 0 10.06 8.82" width="24" height="24"><path d="M0.19,0 C0.06,0 0,0.06 0,0.19 L0,0.56 L0.39,0.56 L0.39,0.39 L0.58,0.39 L0.58,0 Z M0.97,0 L0.97,0.39 L1.75,0.39 L1.75,0 Z M2.14,0 L2.14,0.39 L2.92,0.39 L2.92,0 Z M3.31,0 L3.31,0.39 L4.09,0.39 L4.09,0 Z M4.48,0 L4.48,0.39 L5.26,0.39 L5.26,0 Z M5.65,0 L5.65,0.39 L6.43,0.39 L6.43,0 Z M6.82,0 L6.82,0.39 L7.6,0.39 L7.6,0 Z M7.99,0 L7.99,0.39 L8.77,0.39 L8.77,0 Z M9.16,0 L9.16,0.39 L9.87,0.39 L9.87,0.26 L10.06,0.26 L10.06,0.19 C10.06,0.07 9.99,0 9.87,0 Z M9.67,0.65 L9.67,1.43 L10.06,1.43 L10.06,0.65 Z M0,0.95 L0,1.73 L0.39,1.73 L0.39,0.95 Z M9.67,1.82 L9.67,2.6 L10.06,2.6 L10.06,1.82 Z M0,2.12 L0,2.9 L0.39,2.9 L0.39,2.12 Z M3.15,2.34 C2.01,2.34 1.08,3.27 1.08,4.41 C1.08,5.55 2.01,6.48 3.15,6.48 L4.84,6.48 L4.84,5.39 L3.15,5.39 C2.61,5.39 2.17,4.95 2.17,4.41 C2.17,3.87 2.61,3.43 3.15,3.43 L4.84,3.43 L4.84,2.34 Z M5.22,2.34 L5.22,3.43 L6.91,3.43 C7.45,3.43 7.89,3.87 7.89,4.41 C7.89,4.95 7.45,5.39 6.91,5.39 L5.22,5.39 L5.22,6.48 L6.91,6.48 C8.05,6.48 8.98,5.55 8.98,4.41 C8.98,3.27 8.05,2.34 6.91,2.34 Z M3.15,2.72 L4.47,2.72 L4.47,3.06 L3.15,3.06 C2.41,3.06 1.8,3.67 1.8,4.41 C1.8,5.16 2.41,5.76 3.15,5.76 L4.47,5.76 L4.47,6.1 L3.15,6.1 C2.21,6.1 1.46,5.35 1.46,4.41 C1.46,3.47 2.21,2.72 3.15,2.72 Z M5.6,2.72 L6.91,2.72 C7.85,2.72 8.61,3.47 8.61,4.41 C8.61,5.35 7.85,6.1 6.91,6.1 L5.6,6.1 L5.6,5.76 L6.91,5.76 C7.66,5.76 8.27,5.16 8.27,4.41 C8.27,3.67 7.66,3.06 6.91,3.06 L5.6,3.06 Z M9.67,2.99 L9.67,3.77 L10.06,3.77 L10.06,2.99 Z M0,3.29 L0,4.07 L0.39,4.07 L0.39,3.29 Z M3.34,3.85 L3.34,4.98 L3.53,4.98 L6.72,4.98 L6.72,3.85 Z M9.67,4.16 L9.67,4.94 L10.06,4.94 L10.06,4.16 Z M3.71,4.22 L6.35,4.22 L6.35,4.6 L3.71,4.6 Z M0,4.46 L0,5.23 L0.39,5.23 L0.39,4.46 Z M9.67,5.33 L9.67,6.11 L10.06,6.11 L10.06,5.33 Z M0,5.62 L0,6.4 L0.39,6.4 L0.39,5.62 Z M9.67,6.5 L9.67,7.28 L10.06,7.28 L10.06,6.5 Z M0,6.79 L0,7.57 L0.39,7.57 L0.39,6.79 Z M9.67,7.67 L9.67,8.45 L10.06,8.45 L10.06,7.67 Z M0,7.96 L0,8.63 C0,8.75 0.06,8.82 0.19,8.82 L0.31,8.82 L0.31,8.63 L0.39,8.63 L0.39,7.96 Z M0.7,8.43 L0.7,8.82 L1.48,8.82 L1.48,8.43 Z M1.87,8.43 L1.87,8.82 L2.65,8.82 L2.65,8.43 Z M3.04,8.43 L3.04,8.82 L3.81,8.82 L3.81,8.43 Z M4.2,8.43 L4.2,8.82 L4.99,8.82 L4.99,8.43 Z M5.37,8.43 L5.37,8.82 L6.15,8.82 L6.15,8.43 Z M6.54,8.43 L6.54,8.82 L7.32,8.82 L7.32,8.43 Z M7.71,8.43 L7.71,8.82 L8.49,8.82 L8.49,8.43 Z M8.88,8.43 L8.88,8.82 L9.66,8.82 L9.66,8.43 Z" fill="none" stroke="currentColor" stroke-width="1.5"/></svg>