<svg xmlns="http://www.w3.org/2000/svg" viewBox="0 0 10.58 9.28" width="24" height="24"><path d="M0.2,0 C0.05,0 0,0.04 0,0.2 L0,0.59 L0.41,0.59 L0.41,0.41 L0.61,0.41 L0.61,0 Z M1.02,0 L1.02,0.41 L1.84,0.41 L1.84,0 Z M2.25,0 L2.25,0.41 L3.07,0.41 L3.07,0 Z M3.48,0 L3.48,0.41 L4.3,0.41 L4.3,0 Z M4.71,0 L4.71,0.41 L5.53,0.41 L5.53,0 Z M5.94,0 L5.94,0.41 L6.76,0.41 L6.76,0 Z M7.17,0 L7.17,0.41 L7.99,0.41 L7.99,0 Z M8.4,0 L8.4,0.41 L9.22,0.41 L9.22,0 Z M9.63,0 L9.63,0.41 L10.37,0.41 L10.37,0.28 L10.58,0.28 L10.58,0.2 L10.37,0 Z M5.4,0.63 L2.22,2.04 L2.22,4.14 C2.22,6.09 3.57,7.91 5.4,8.35 C7.22,7.91 8.58,6.09 8.58,4.14 L8.58,2.04 Z M10.17,0.69 L10.17,1.5 L10.58,1.5 L10.58,0.69 Z M0,1 L0,1.82 L0.41,1.82 L0.41,1 Z M10.17,1.91 L10.17,2.73 L10.58,2.73 L10.58,1.91 Z M5.41,1.94 C6.09,1.94 6.63,2.48 6.63,3.15 L6.63,3.46 L7.08,3.46 L7.08,6.29 L3.71,6.29 L3.71,3.46 L4.2,3.46 L4.2,3.15 C4.2,2.48 4.74,1.94 5.41,1.94 Z M0,2.23 L0,3.04 L0.41,3.04 L0.41,2.23 Z M5.4,2.39 C4.99,2.39 4.67,2.71 4.67,3.11 L4.67,3.42 L6.13,3.42 L6.13,3.11 C6.12,2.71 5.8,2.39 5.4,2.39 Z M10.17,3.14 L10.17,3.96 L10.58,3.96 L10.58,3.14 Z M0,3.45 L0,4.27 L0.41,4.27 L0.41,3.45 Z M5.34,4.29 C5.05,4.29 4.82,4.52 4.82,4.81 C4.82,5.09 5.05,5.32 5.34,5.32 C5.62,5.32 5.85,5.09 5.85,4.81 C5.85,4.52 5.62,4.29 5.34,4.29 Z M10.17,4.37 L10.17,5.19 L10.58,5.19 L10.58,4.37 Z M0,4.68 L0,5.5 L0.41,5.5 L0.41,4.68 Z M10.17,5.6 L10.17,6.42 L10.58,6.42 L10.58,5.6 Z M0,5.91 L0,6.73 L0.41,6.73 L0.41,5.91 Z M10.17,6.83 L10.17,7.65 L10.58,7.65 L10.58,6.83 Z M0,7.14 L0,7.96 L0.41,7.96 L0.41,7.14 Z M10.17,8.06 L10.17,8.88 L10.58,8.88 L10.58,8.06 Z M0,8.37 L0,9.07 C0,9.2 0.06,9.28 0.2,9.28 L0.32,9.28 L0.32,9.07 L0.41,9.07 L0.41,8.37 Z M0.73,8.87 L0.73,9.28 L1.55,9.28 L1.55,8.87 Z M1.96,8.87 L1.96,9.28 L2.78,9.28 L2.78,8.87 Z M3.19,8.87 L3.19,9.28 L4.01,9.28 L4.01,8.87 Z M4.42,8.87 L4.42,9.28 L5.24,9.28 L5.24,8.87 Z M5.65,8.87 L5.65,9.28 L6.47,9.28 L6.47,8.87 Z M6.88,8.87 L6.88,9.28 L7.7,9.28 L7.7,8.87 Z M8.11,8.87 L8.11,9.28 L8.93,9.28 L8.93,8.87 Z M9.34,8.87 L9.34,9.28 L10.16,9.28 L10.16,8.87 Z" fill="none" stroke="currentColor" stroke-width="1.5"/></svg>