<svg xmlns="http://www.w3.org/2000/svg" viewBox="0 0 8.08 9.88" width="24" height="24"><path d="M4.04,0 L0,1.8 L0,4.49 C0,6.98 1.72,9.31 4.04,9.88 C6.36,9.31 8.08,6.98 8.08,4.49 L8.08,1.8 Z M4.04,1.9 C4.56,1.9 5.04,2.22 5.23,2.7 C5.44,3.18 5.33,3.74 4.96,4.11 C4.58,4.48 4.03,4.59 3.55,4.39 C3.06,4.19 2.75,3.72 2.75,3.2 C2.75,2.48 3.33,1.9 4.04,1.9 Z M6.46,7.25 C6.46,7.28 6.46,7.31 6.44,7.34 C6.41,7.38 6.38,7.43 6.35,7.47 C5.78,8.26 4.97,8.84 4.04,9.13 C3.11,8.84 2.31,8.26 1.73,7.47 C1.7,7.43 1.67,7.38 1.64,7.34 C1.63,7.31 1.62,7.28 1.62,7.25 L1.62,6.53 C1.62,5.54 3.23,5.04 4.04,5.04 C4.85,5.04 6.46,5.54 6.46,6.53 Z" fill="none" stroke="currentColor" stroke-width="1.5"/></svg>