<svg xmlns="http://www.w3.org/2000/svg" viewBox="0 0 9.4 9.0" width="24" height="24"><path d="M0.86,0 C0.38,0 0,0.38 0,0.86 L0,8.14 C0,8.62 0.38,9 0.86,9 L8.54,9 C9.02,9 9.4,8.62 9.4,8.14 L9.4,0.86 C9.4,0.38 9.02,0 8.54,0 Z M4.7,1.42 C5.43,1.42 6.01,2.01 6.01,2.74 C6.01,3.47 5.43,4.06 4.7,4.06 C3.97,4.06 3.38,3.47 3.38,2.74 C3.38,2.01 3.97,1.42 4.7,1.42 Z M4.7,4.94 C5.72,4.94 7.78,5.45 7.78,6.48 L7.78,7.58 L1.62,7.58 L1.62,6.48 C1.62,5.45 3.68,4.94 4.7,4.94 Z" fill="none" stroke="currentColor" stroke-width="1.5"/></svg>