<svg xmlns="http://www.w3.org/2000/svg" viewBox="0 0 11.16 6.24" width="24" height="24"><path d="M5.58,0 C4,0 2.58,0.16 1.56,0.41 C1.04,0.53 0.64,0.68 0.37,0.83 C0.1,0.99 0,1.13 0,1.23 C0,1.33 0.1,1.48 0.37,1.63 C0.64,1.79 1.04,1.94 1.56,2.06 C2.58,2.31 4,2.46 5.58,2.46 C7.15,2.46 8.58,2.31 9.6,2.06 C10.11,1.94 10.52,1.79 10.79,1.63 C11.05,1.48 11.16,1.33 11.16,1.23 C11.16,1.13 11.05,0.99 10.79,0.83 C10.52,0.68 10.11,0.53 9.6,0.41 C8.58,0.16 7.15,0 5.58,0 Z M0,1.65 L0,5.01 C0,5.11 0.1,5.25 0.37,5.41 C0.64,5.56 1.04,5.71 1.56,5.83 C2.58,6.08 4,6.24 5.58,6.24 C7.15,6.24 8.58,6.08 9.6,5.83 C10.11,5.71 10.52,5.56 10.79,5.41 C11.05,5.25 11.16,5.11 11.16,5.01 L11.16,1.65 C11.07,1.74 11.07,1.85 10.95,1.92 C10.64,2.1 10.21,2.25 9.68,2.38 C8.62,2.63 7.17,2.79 5.58,2.79 C3.98,2.79 2.54,2.63 1.48,2.38 C0.95,2.25 0.52,2.1 0.21,1.92 C0.09,1.85 0.09,1.74 0,1.65 Z" fill="none" stroke="currentColor" stroke-width="1.5"/></svg>