<svg xmlns="http://www.w3.org/2000/svg" viewBox="0 0 80.0 70.07" width="24" height="24"><path d="M60.01,70.07 L80,34.96 L60.01,0 L20.07,0 L0,34.96 L20.07,70.07 L60.01,70.07 L60.01,70.07 Z M67.03,39.76 C64.72,39.76 63.47,37.82 62.22,35.6 C63.55,33.16 64.8,30.87 67.03,30.87 C68.69,30.87 70,32.33 71.25,35.32 C71.33,35.46 71.39,35.52 71.46,35.66 C70.22,38.45 68.75,39.76 67.03,39.76 Z M56.05,39.2 C54.03,39.2 52.72,36.98 51.32,34.55 C52.64,32.33 53.97,30.37 56.05,30.37 C58.06,30.37 59.31,32.33 60.5,34.55 C60.5,34.61 60.42,34.69 60.36,34.83 C58.89,37.6 57.85,39.2 56.05,39.2 Z M44.94,39.76 C42.71,39.76 41.4,37.82 40.15,35.6 C41.46,33.16 42.71,30.87 44.94,30.87 C46.88,30.87 48.13,33.09 49.52,35.46 C49.52,35.52 49.52,35.52 49.52,35.6 C48.27,37.82 46.94,39.76 44.94,39.76 Z M34.02,39.2 C32.02,39.2 30.83,37.05 29.58,34.75 C29.52,34.61 29.45,34.61 29.45,34.55 C30.69,32.33 31.94,30.37 34.02,30.37 C36.04,30.37 37.3,32.33 38.41,34.55 C38.41,34.61 38.33,34.69 38.27,34.83 C36.81,37.6 35.76,39.2 34.02,39.2 Z M22.92,39.76 C20.62,39.76 19.37,37.82 18.13,35.6 C19.37,33.16 20.7,30.87 22.92,30.87 C25.07,30.87 26.32,33.16 27.64,35.6 C26.46,37.82 25.15,39.76 22.92,39.76 Z M11.95,39.2 C9.1,39.2 7.79,34.89 7.79,34.89 C7.71,34.69 7.57,34.55 7.5,34.41 C7.99,33.16 9.44,30.37 11.95,30.37 C13.95,30.37 15.21,32.33 16.4,34.55 C16.32,34.61 16.32,34.69 16.26,34.83 C14.8,37.6 13.69,39.2 11.95,39.2 Z M73.13,34.61 C73.34,35.1 73.13,35.66 72.57,35.86 C72.51,35.86 72.51,35.86 72.44,35.86 C71.46,38.17 69.86,40.73 67.03,40.73 C64.38,40.73 62.85,38.86 61.67,36.71 C60.42,39 58.82,41.16 56.05,41.16 C53.26,41.16 51.53,38.93 50.15,36.57 C48.82,38.79 47.36,40.73 44.94,40.73 C42.29,40.73 40.83,38.86 39.58,36.71 C38.33,39 36.81,41.16 34.02,41.16 C31.17,41.16 29.66,38.93 28.26,36.63 C27.01,38.86 25.49,40.73 22.92,40.73 C20.28,40.73 18.74,38.86 17.57,36.71 C16.32,39 14.72,41.16 11.95,41.16 C7.5,41.16 5.83,35.66 5.77,35.38 C5.56,34.83 5.91,34.35 6.45,34.21 C6.45,34.21 6.45,34.21 6.45,34.21 C7.08,32.67 8.68,29.4 11.95,29.4 C14.31,29.4 15.77,31.28 16.94,33.44 C18.26,31.14 19.93,28.91 22.92,28.91 C25.84,28.91 27.5,31.14 28.89,33.5 C30.14,31.36 31.6,29.4 34.02,29.4 C36.39,29.4 37.78,31.28 39.03,33.44 C40.35,31.14 41.95,28.91 44.94,28.91 C47.71,28.91 49.3,31.14 50.76,33.58 C52.09,31.36 53.61,29.4 56.05,29.4 C58.48,29.4 59.87,31.28 61.11,33.44 C62.44,31.14 64.04,28.91 67.03,28.91 C70.42,28.91 72.16,32.12 73.13,34.61 Z" fill="none" stroke="currentColor" stroke-width="1.5"/></svg>