<svg xmlns="http://www.w3.org/2000/svg" viewBox="0 0 95.86 99.98" width="24" height="24"><path d="M38.76,46.32 C38.92,45.46 39.03,45.19 39.49,44.42 C46.07,43.31 48.3,41.97 51.36,40.68 C53.33,39.9 55.68,38.93 57.84,40.49 C60.11,42.54 60.27,45.14 58.41,47.86 C57.2,49.34 54.21,52.08 49.16,52.64 C46.62,52.72 43.69,50.59 38.67,50.4 C38.56,49.77 38.47,49.13 38.49,48.36 C42.72,48.55 45.38,47.95 47.38,47.02 C49.16,46.3 51.21,44.84 52.89,43.94 C53.87,43.47 54.57,43.76 54.98,44.12 C55.8,44.85 55.47,45.79 54.86,46.23 C52.89,47.92 51.15,49.21 46.25,49.87 C49.55,50.5 52.4,50.27 54.93,48.32 C56.78,46.86 58.35,44.81 57.48,42.99 C56.5,41.53 54.41,41.45 53.22,42.01 C50.53,43.48 43.92,46.48 38.76,46.32 Z M39.88,42.61 C40.17,41.91 40.49,41.29 40.92,40.6 C44.43,40.16 48.37,37.99 52.28,36.14 C56.87,34.28 60.11,35.76 62.44,38.7 C63.85,40.53 64.59,45.74 61.83,48.99 C58.55,53.54 55.94,55.45 49.92,56.67 C47.29,57.05 42.87,55.65 39.77,54 C39.35,53.56 39.09,52.63 38.8,51.78 C44.87,54.2 48.13,54.72 50.3,54.49 C59.23,53.05 61.33,46.2 61.82,43.57 C62.39,40.66 59.2,36.53 55.15,37.34 C53.27,37.73 52.16,38.12 50.2,39.25 C47.3,40.91 42.72,42.54 39.88,42.61 Z M41.97,38.96 L43.75,36.45 C49.16,33.75 53.97,31.37 58.12,31.47 C63.57,31.79 67.79,37.16 67.47,42.83 C66.88,49.86 63.35,55.21 55.69,59.21 C50.22,61.52 45.34,61.18 41.31,57.05 C47.48,60.07 52.16,58.9 55.7,56.92 C61.15,54.38 64.8,48.71 65.77,43.32 C66.14,40.92 64.22,34.24 58.32,33.42 C55.2,33.02 49.59,35.47 41.97,38.96 Z M45.94,79.65 L77.41,48.27 C80.19,44.84 80.07,40.72 77.52,37.79 L61.47,21.46 C57.81,17.49 53.4,17.51 49.9,20.67 L18.28,52.7 L16.45,63.72 C16.56,65.68 18.25,67.11 19.88,68.89 C22.08,66.67 24.56,64.78 27.39,63.31 C30.39,61.67 33.35,63.75 34.15,64.82 C35.72,66.28 36.53,70.15 34.15,72.68 C32.67,74.21 30.9,74.9 28.72,74.47 C28.23,74.83 27.75,75.14 26.98,76.17 L32.13,81.08 C35.36,82.54 43.67,80.95 45.94,79.65 Z M47.8,92.04 C71.26,92.04 87.96,72.56 87.96,49.8 C87.96,27.21 70.17,8.09 48.84,8.09 C17.8,8.09 8.09,37.23 8.09,48.17 C7.88,62.29 12.11,69.84 16.77,76.75 C17.41,75.05 17.98,73.25 18.87,71.95 C15.31,66.59 12.47,59.94 12.33,49.97 C12.33,27.12 30.47,12.55 47.39,12.55 C70.12,12.55 83.91,31.82 83.91,49.61 C83.91,73.42 65.36,87.77 48.91,87.77 C36.98,87.77 29.99,83.32 24.16,78.34 C25.48,73.81 28.62,70.29 32.1,69.18 C34.64,68.37 34.4,66.3 33.88,65.39 C32.68,64.16 31.45,64.33 29.95,64.91 C24.66,67.45 21.23,71.22 19.6,77.42 C19.11,79.39 19.9,80.08 21.3,81.35 C26.49,86.4 36.18,92.04 47.8,92.04 Z M47.73,99.98 C22.28,99.98 0,79.24 0,48.69 C0,25.3 19.69,0 47.8,0 C72.63,0 95.86,20.38 95.86,49.88 C95.86,77.77 74.49,99.98 47.73,99.98 Z" fill="none" stroke="currentColor" stroke-width="1.5"/></svg>