<svg xmlns="http://www.w3.org/2000/svg" viewBox="0 0 80.0 69.07" width="24" height="24"><path d="M58.18,66.26 L76.36,34.29 L58.16,2.5 L21.89,2.5 L3.65,34.27 L21.85,66.26 Z M19.79,69.07 L0,34.4 L19.73,0 L60.22,0 L80,34.4 L60.22,69.07 Z M31.55,46.37 L32.47,47.44 L33.31,46.37 L33.31,52.23 C33.31,53.07 33.95,53.71 34.79,53.71 L46.41,53.71 C47.25,53.71 47.89,53.07 47.89,52.23 L47.89,50.89 L47.33,50.89 L45.41,50.89 L48.79,46.38 L52.17,50.89 L49.59,50.89 L49.59,52.23 C49.59,53.99 48.17,55.41 46.41,55.41 L34.79,55.41 C33.03,55.41 31.55,53.99 31.55,52.23 Z M39.79,44.19 L39.79,46.24 L40.22,46.24 C41,46.24 41.49,45.81 41.49,45.18 C41.49,44.54 41.06,44.19 40.36,44.19 Z M40.28,42.99 C41.12,42.99 41.76,43.21 42.19,43.56 C42.61,43.91 42.82,44.48 42.82,45.11 C42.82,45.75 42.68,46.31 42.25,46.73 C41.84,47.23 41.06,47.43 40.28,47.43 C40.07,47.43 39.93,47.37 39.79,47.37 L39.79,49.77 L38.31,49.77 L38.31,43.13 C38.81,43.07 39.44,42.99 40.28,42.99 Z M34.79,37.35 L46.41,37.35 C48.17,37.35 49.59,38.84 49.59,40.6 L49.59,46.3 L48.81,45.32 L47.89,46.38 L47.89,40.6 C47.89,39.75 47.25,39.11 46.41,39.11 L34.79,39.11 C33.95,39.11 33.31,39.75 33.31,40.6 L33.31,43 L33.81,43 L35.83,43 L32.45,46.38 L29.07,43 L31.55,43 L31.55,40.6 C31.55,38.84 33.03,37.35 34.79,37.35 Z M55.21,24.95 L25.92,24.96 L25.92,59.5 C25.92,60.21 26.52,61.05 27.53,61.05 L53.69,61.04 C54.59,61.04 55.21,60.31 55.21,59.48 Z M30.36,13.67 L49.63,13.68 C50.33,13.68 50.73,14.31 50.73,14.8 C50.73,15.4 50.27,15.91 49.59,15.91 L30.36,15.93 C29.9,15.93 29.29,15.51 29.29,14.79 C29.29,14.15 29.85,13.67 30.36,13.67 Z M27.58,8.03 C26.68,8.03 25.92,8.68 25.92,9.65 L25.92,22.68 L55.21,22.69 L55.21,9.63 C55.21,8.53 54.32,8.04 53.69,8.04 Z M53.62,5.78 C56.06,5.78 57.47,7.67 57.47,9.56 L57.47,59.4 C57.47,61.61 55.81,63.3 53.63,63.3 L27.53,63.3 C25.41,63.3 23.65,61.59 23.65,59.47 L23.66,9.7 C23.66,7.53 25.3,5.78 27.64,5.78 Z" fill="none" stroke="currentColor" stroke-width="1.5"/></svg>