<svg xmlns="http://www.w3.org/2000/svg" viewBox="0 0 80.0 80.0" width="24" height="24"><path d="M25.44,5.87 C22.38,5.87 20,8.31 20,11.34 L20,26.57 L20,68.65 C20,71.72 22.54,74.12 25.44,74.12 L54.54,74.12 L54.72,74.12 C58.44,72.53 60.02,70.9 60.02,68.65 L60.02,27.57 L60.02,11.34 C60.02,8.43 57.78,5.87 54.72,5.87 L25.44,5.87 Z M25.44,10.58 L54.72,10.58 C54.9,10.58 55.31,10.99 55.31,11.34 L55.31,24.72 L24.71,24.72 L24.71,11.34 C24.71,11.12 25.26,10.58 25.44,10.58 Z M29.41,15.31 L50.6,20.01 L29.41,15.31 Z M24.71,29.42 L55.31,29.42 L55.31,68.65 C55.31,69.28 55.06,69.41 54.72,69.41 L25.44,69.41 C25.1,69.41 24.71,69.16 24.71,68.65 L24.71,29.42 Z M35.15,43.51 C33.23,43.51 31.77,45.13 31.77,46.89 L31.77,48.21 L29.41,48.21 L32.93,52.95 L36.48,48.21 L34.12,48.21 L33.52,48.21 L33.52,46.89 C33.52,46.02 34.25,45.3 35.15,45.3 L47.35,45.3 C48.24,45.3 48.98,46.02 48.98,46.89 L48.98,52.95 L49.87,51.89 L50.6,52.95 L50.6,46.89 C50.6,45.13 49.11,43.51 47.35,43.51 L35.15,43.51 Z M40.88,50.56 C39.99,50.56 39.26,50.73 38.83,50.86 L38.83,57.65 L40.29,57.65 L40.29,55.14 C40.45,55.27 40.75,55.27 40.88,55.27 C41.78,55.27 42.51,55 42.94,54.41 C43.4,54.11 43.54,53.51 43.54,52.78 C43.54,52.19 43.24,51.59 42.94,51.16 C42.51,50.87 41.78,50.56 40.88,50.56 Z M40.29,51.89 L41.05,51.89 C41.78,51.89 42.08,52.19 42.08,52.78 C42.08,53.51 41.61,53.98 40.88,53.98 L40.29,53.98 L40.29,51.89 Z M49.57,52.92 L45.89,57.65 L48.24,57.65 L48.98,57.65 L48.98,60.74 C48.98,61.76 48.24,62.62 47.35,62.62 L35.15,62.62 C34.25,62.62 33.52,61.76 33.52,60.74 L33.52,52.92 L32.66,54.41 L31.77,52.92 L31.77,60.74 C31.77,62.92 33.23,64.71 35.15,64.71 L47.35,64.71 C49.11,64.71 50.6,62.92 50.6,60.74 L50.6,57.65 L50.73,57.65 L52.95,57.65 L49.57,52.92 Z M16.18,0 C63.99,0 63.99,0 63.99,0 C72.81,0 80,7.35 80,16.16 C80,63.97 80,63.97 80,63.97 C80,72.78 72.81,80 63.99,80 C16.18,80 16.18,80 16.18,80 C7.36,80 0,72.78 0,63.97 C0,16.16 0,16.16 0,16.16 C0,7.35 7.36,0 16.18,0 Z" fill="none" stroke="currentColor" stroke-width="1.5"/></svg>