<svg xmlns="http://www.w3.org/2000/svg" viewBox="0 0 106.67 106.67" width="24" height="24"><path d="M21.57,0 C9.81,0 0,9.8 0,21.54 L0,85.3 C0,97.04 9.81,106.67 21.57,106.67 L85.32,106.67 C97.07,106.67 106.67,97.04 106.67,85.3 L106.67,21.54 C106.67,9.8 97.07,0 85.32,0 Z M37.55,7.78 L51.35,7.78 L51.35,14.09 L48.95,14.09 L53.94,17.05 L58.43,14.09 L56.38,14.09 L56.38,7.78 L70.31,7.78 L70.31,14.09 L67.17,14.09 L75.51,26.6 L81.48,26.6 L81.48,32.91 L65.79,32.91 L65.79,27.74 L59.66,24.1 L58.41,26.6 L60.98,26.6 L60.98,32.91 L46.97,32.91 L46.97,26.6 L49.04,26.6 L48.02,24.72 L40.71,29.55 L40.71,32.91 L27.09,32.91 L27.09,26.6 L32.95,26.6 L41.27,14.09 L37.55,14.09 Z M64.13,15.17 L61.07,21.29 L70.02,26.6 L71.74,26.6 Z M43.51,16.4 L36.72,26.6 L39.47,26.6 L46.51,21.95 Z M47.27,16.75 L49.14,20.22 L51.02,18.98 Z M59.69,17.03 L56.94,18.84 L58.37,19.68 Z M54.03,20.76 L50.64,22.99 L52.61,26.6 L54.91,26.6 L56.96,22.5 Z M6,42.06 L102.63,42.06 L102.63,44.02 L6,44.02 Z M31.28,45.44 L37.56,52.5 L33.62,52.5 L33.62,64.25 L71.53,64.25 C78.03,64.25 83.33,69.73 83.33,76.39 C83.33,82.88 78.03,88.36 71.53,88.36 L71.53,92.51 L63.88,86.19 L71.53,79.75 L71.53,84.07 C75.69,83.85 79,80.54 79,76.39 C79,72.11 75.69,68.75 71.53,68.75 L33.62,68.75 L33.62,74.67 L33.62,79.92 L33.62,82.08 L37.56,82.08 L31.28,89.37 L25.01,82.08 L29.12,82.08 L29.12,79.92 L29.12,74.67 L29.12,52.5 L25.01,52.5 Z M44.81,76.79 L55.59,76.79 C57.76,76.79 59.53,78.95 59.53,81.69 L59.53,94.23 C59.53,96.79 57.76,98.78 55.59,98.78 L44.81,98.78 C42.64,98.78 40.69,96.79 40.69,94.23 L40.69,81.69 C40.69,78.95 42.64,76.79 44.81,76.79 Z M44.81,79.35 C43.83,79.35 43.04,80.32 43.04,81.69 L43.04,94.23 C43.04,95.42 43.83,96.39 44.81,96.39 L55.59,96.39 C56.56,96.39 57.58,95.42 57.58,94.23 L57.58,81.69 C57.58,80.32 56.56,79.35 55.59,79.35 Z M50.11,81.75 C51.3,81.75 52.27,82.15 52.84,82.95 C53.24,83.52 53.64,84.54 53.64,85.69 C53.64,86.88 53.46,88.02 52.84,88.64 C52.27,89.61 51.3,90.01 50.11,90.01 L49.3,90.01 L49.3,94.34 L47.36,94.34 L47.36,82.15 C47.94,81.98 48.91,81.75 50.11,81.75 Z M50.33,83.92 C49.93,83.92 49.53,84.14 49.3,84.14 L49.3,87.85 L50.11,87.85 C51.08,87.85 51.69,87.05 51.69,85.91 C51.69,84.71 51.3,83.92 50.33,83.92 Z" fill="none" stroke="currentColor" stroke-width="1.5"/></svg>