<svg xmlns="http://www.w3.org/2000/svg" viewBox="0 0 37.36 80.0" width="24" height="24"><path d="M19.54,0 L18.75,0.06 L17.91,0.3 L17.16,0.5 L16.35,0.92 L15.67,1.38 L14.98,1.95 L14.43,2.61 L13.93,3.27 L13.56,4.06 L13.28,4.8 L13.09,5.68 L13.03,6.55 L13.08,7.37 L13.26,8.19 L13.54,9.01 L13.89,9.8 L14.42,10.5 L14.92,11.09 L15.62,11.74 L16.34,12.17 L17.07,12.55 L17.88,12.86 L18.7,13.04 L19.55,13.05 L20.36,13.05 L21.26,12.88 L22.04,12.58 L22.84,12.18 L23.51,11.79 L24.2,11.12 L24.75,10.52 L25.22,9.88 L25.59,9.04 L25.87,8.24 L26.05,7.43 L26.07,6.58 L26.07,5.77 L25.88,4.86 L25.6,4.09 L25.27,3.35 L24.79,2.64 L24.21,1.99 L23.58,1.42 L22.89,0.94 L22.08,0.54 L21.3,0.3 L20.47,0.08 L19.63,0 L19.62,0 Z M24.49,13.92 L13.03,13.97 L12.97,13.97 L12.82,14.03 L12.48,14.13 L12.11,14.24 L11.68,14.35 L11.19,14.52 L10.64,14.73 L10.1,15 L9.61,15.28 L9.07,15.6 L8.69,15.93 L8.25,16.31 L7.87,16.75 L7.55,17.18 L7.22,17.62 L6.95,18 L6.73,18.42 L6.57,18.69 L6.4,18.98 L6.35,19.13 L6.3,19.18 L0.05,39.29 L0.05,39.35 L0.05,39.47 L0,39.67 L0,39.95 L0.05,40.22 L0.11,40.54 L0.22,40.92 L0.33,41.25 L0.49,41.63 L0.82,42.01 L1.14,42.28 L1.58,42.56 L2.07,42.77 L2.66,42.94 L3.15,42.99 L3.59,42.94 L3.97,42.77 L4.34,42.56 L4.61,42.34 L4.88,42.07 L5.05,41.74 L5.26,41.52 L5.32,41.25 L5.44,41.09 L5.48,40.98 L5.48,40.92 L10.7,23.37 L11.99,23.37 L3.21,54.24 L11.46,54.24 L11.51,77.5 L11.57,77.55 L11.57,77.66 L11.57,77.82 L11.68,78.1 L11.79,78.31 L11.88,78.64 L12.11,78.91 L12.37,79.18 L12.66,79.46 L13.03,79.67 L13.46,79.84 L13.95,80 L14.55,80 L15.2,80 L15.74,79.89 L16.18,79.73 L16.56,79.56 L16.89,79.29 L17.1,79.07 L17.32,78.75 L17.48,78.48 L17.59,78.26 L17.7,77.99 L17.7,77.82 L17.76,77.66 L17.76,77.55 L17.76,77.5 L17.76,54.08 L19.59,54.08 L19.59,77.5 L19.59,77.55 L19.59,77.66 L19.66,77.82 L19.71,78.1 L19.88,78.31 L19.98,78.64 L20.2,78.91 L20.46,79.18 L20.8,79.46 L21.12,79.67 L21.61,79.89 L22.09,80 L22.69,80 L23.35,80 L23.89,79.89 L24.32,79.67 L24.7,79.46 L25.03,79.18 L25.3,78.91 L25.52,78.64 L25.68,78.31 L25.79,78.1 L25.85,77.82 L25.9,77.66 L25.95,77.55 L25.95,77.5 L25.9,54.3 L34.15,54.24 L25.14,23.32 L26.66,23.26 L32.14,41.36 L32.14,41.41 L32.25,41.52 L32.41,41.74 L32.58,42.01 L32.79,42.23 L33.07,42.5 L33.39,42.77 L33.77,42.94 L34.21,43.05 L34.64,43.1 L35.13,43.05 L35.67,42.88 L36.16,42.61 L36.53,42.28 L36.87,41.96 L37.09,41.58 L37.24,41.25 L37.36,40.87 L37.36,40.49 L37.36,40.22 L37.36,39.95 L37.36,39.73 L37.36,39.62 L37.31,39.56 L31.16,19.18 L31.11,19.13 L31.05,18.98 L30.89,18.69 L30.73,18.42 L30.51,18.11 L30.24,17.72 L29.91,17.29 L29.59,16.85 L29.22,16.47 L28.84,16.09 L28.4,15.77 L27.91,15.44 L27.37,15.11 L26.82,14.84 L26.28,14.62 L25.79,14.41 L25.36,14.24 L24.98,14.13 L24.7,14.03 L24.49,13.97 L24.49,13.92 Z" fill="none" stroke="currentColor" stroke-width="1.5"/></svg>