<svg xmlns="http://www.w3.org/2000/svg" viewBox="0 0 106.67 106.67" width="24" height="24"><path d="M74.16,18.82 L73.11,20.56 L71.47,19.1 L66.34,24.86 C65.97,24.66 65.55,24.53 65.1,24.53 L57.84,24.53 C56.4,24.53 55.24,25.69 55.24,27.12 L55.24,27.99 L40.71,27.99 C42.94,31.83 43.56,34.93 42.26,39.11 L55.24,39.11 L55.24,40.13 C55.24,41.56 56.4,42.72 57.84,42.72 L65.1,42.72 C65.59,42.72 66.05,42.57 66.45,42.33 L71.91,48.47 L73.38,47.16 L74.32,48.72 L89.05,39.81 L87.09,36.57 L73.63,44.71 L67.69,38.04 L67.69,29.04 L73.31,22.73 L86.93,30.97 L88.88,27.73 Z M30.01,24.77 Z M30.01,32.12 Z M30.01,33.89 Z M38.32,44.93 C34.43,48.43 28.57,49.06 23.88,46.58 L39.67,75.39 L24.88,75.39 C23.49,75.39 22.37,76.51 22.37,77.9 L22.37,84.08 C22.37,85.48 23.49,86.6 24.88,86.6 L70.79,86.6 C72.18,86.6 73.31,85.48 73.31,84.08 L73.31,77.9 C73.31,76.51 72.18,75.39 70.79,75.39 L54.96,75.39 Z M21.57,0 C85.32,0 85.32,0 85.32,0 C97.07,0 106.67,9.8 106.67,21.55 C106.67,85.3 106.67,85.3 106.67,85.3 C106.67,97.04 97.07,106.67 85.32,106.67 C21.57,106.67 21.57,106.67 21.57,106.67 C9.81,106.67 0,97.04 0,85.3 C0,21.55 0,21.55 0,21.55 C0,9.8 9.81,0 21.57,0 Z" fill="none" stroke="currentColor" stroke-width="1.5"/></svg>