<svg xmlns="http://www.w3.org/2000/svg" viewBox="0 0 99.54 99.42" width="24" height="24"><path d="M36.36,21.43 C34.69,21.44 33.34,22.79 33.34,24.46 C33.34,26.13 34.69,27.48 36.36,27.48 C36.54,27.48 36.71,27.47 36.89,27.43 L41.44,32.78 C40.24,33.79 39.15,35.02 38.18,36.43 C41.02,38.16 44.94,39.2 49,39.32 C53.37,39.45 57.86,38.51 61.36,36.48 C60.36,35.02 59.22,33.75 57.97,32.72 L62.47,27.43 C62.66,27.46 62.85,27.48 63.03,27.48 C64.7,27.48 66.05,26.13 66.05,24.46 C66.06,22.79 64.7,21.44 63.03,21.43 C61.36,21.43 60.01,22.79 60.01,24.46 C60.01,24.88 60.1,25.3 60.28,25.69 L55.65,31.13 C53.77,30.09 51.77,29.56 49.74,29.55 C47.69,29.55 45.65,30.11 43.74,31.17 L39.11,25.72 C39.29,25.33 39.39,24.89 39.39,24.46 C39.39,22.79 38.03,21.43 36.36,21.43 Z M37.12,38.12 C36.43,39.35 35.83,40.67 35.33,42.07 L29.8,39.59 C29.59,39.49 29.37,39.44 29.14,39.43 C27.25,39.36 26.67,41.95 28.41,42.69 L34.4,45.37 C34.04,47.05 33.84,48.79 33.78,50.53 L27.45,50.54 C25.14,50.5 25.14,53.99 27.45,53.94 L33.85,53.93 C33.98,55.72 34.28,57.47 34.72,59.15 L28.44,61.96 C26.37,62.89 27.76,65.99 29.83,65.07 L35.81,62.39 C38.47,68.92 43.36,71.39 48.79,73.6 L48.79,41.31 C44.48,41.16 40.31,40.09 37.12,38.12 Z M62.42,38.18 C59.01,40.18 54.9,41.18 50.79,41.31 L50.79,73.57 C56.2,71.58 60.98,68.92 63.65,62.48 L69.5,65.1 C71.56,65.99 72.92,62.94 70.89,62 L64.73,59.24 C65.2,57.52 65.51,55.71 65.66,53.88 L71.92,53.87 C74.23,53.91 74.23,50.42 71.92,50.47 L65.72,50.48 C65.65,48.73 65.44,46.99 65.07,45.31 L70.92,42.69 C72.6,41.98 72.13,39.49 70.31,39.43 C70.04,39.42 69.78,39.48 69.54,39.59 L64.14,42 C63.66,40.65 63.08,39.37 62.42,38.18 Z M49.73,0.01 L47.02,7.35 C25.81,8.71 8.82,25.7 7.46,46.9 L2.91,46.9 L7.46,52.4 C8.82,73.61 25.81,90.6 47.02,91.96 L47.02,96.51 L52.52,91.96 C73.72,90.6 90.71,73.61 92.08,52.4 L96.62,52.4 L92.08,46.9 C90.71,25.7 73.72,8.71 52.52,7.35 L52.52,2.8 Z M47.02,11.86 L47.02,16.08 L52.52,11.86 C71.28,13.2 86.22,28.14 87.56,46.9 L83.34,46.9 L87.56,52.4 C86.22,71.17 71.28,86.11 52.52,87.45 L52.52,83.22 L47.02,87.45 C28.25,86.11 13.31,71.17 11.97,52.4 L16.2,52.4 L11.97,46.9 C13.31,28.14 28.25,13.2 47.02,11.86 Z" fill="none" stroke="currentColor" stroke-width="1.5"/></svg>