<svg xmlns="http://www.w3.org/2000/svg" viewBox="0 0 76.76 76.76" width="24" height="24"><path d="M0,38.38 C0,17.29 17.2,0 38.38,0 C59.77,0 76.76,17.29 76.76,38.38 C76.76,59.69 59.77,76.76 38.38,76.76 C17.2,76.76 0,59.69 0,38.38 Z M29.58,38 C27.2,33.2 29.19,27.63 34.2,25.34 C39.17,22.83 44.96,24.95 47.38,29.92 C49.59,34.54 47.77,40.29 42.8,42.41 C37.79,44.7 32,42.8 29.58,38 Z M28.79,34.94 C29,35.5 29.26,36.06 29.48,36.45 C29.74,36.84 30.21,36.84 30.91,36.84 C31.12,36.84 31.6,36.84 31.86,36.67 C32.07,36.67 32.33,36.45 32.33,36.06 C32.55,35.89 32.55,35.5 32.55,35.11 L32.55,34.16 C32.33,33.95 32.07,33.6 31.86,33.6 C31.6,33.38 31.38,33.38 30.91,33 C30.43,33 30.21,33 29.96,32.61 L29.96,32.43 C29.96,32.22 29.96,32.04 30.21,32.04 C30.21,31.87 30.43,31.87 30.69,31.87 C30.91,31.87 31.12,31.87 31.38,32.04 C31.38,32.22 31.6,32.22 31.6,32.61 L32.55,32.61 C32.55,32.04 32.33,31.48 32.07,31.27 C31.6,30.88 31.38,30.71 30.69,30.71 C30.43,30.71 29.96,30.88 29.96,31.09 C29.48,31.09 29.48,31.27 29.26,31.48 C29.26,31.87 29,32.22 29,32.43 C29,33 29.26,33.38 29.48,33.6 C29.74,33.95 29.96,33.95 30.43,34.16 C30.91,34.34 31.12,34.34 31.38,34.34 C31.38,34.55 31.6,34.72 31.6,34.72 L31.6,35.11 L31.6,35.68 C31.38,35.89 31.12,35.89 30.91,35.89 C30.43,35.89 30.43,35.89 30.21,35.68 C29.96,35.5 29.96,35.11 29.96,34.72 L28.79,34.94 Z M40.74,36.84 L40.74,35.68 L37.8,35.68 L37.8,34.55 L40.27,34.55 L40.27,33.21 L37.8,33.21 L37.8,32.04 L40.27,32.04 L40.27,30.71 L36.81,30.71 L36.81,36.84 Z M33.66,30.82 L33.66,36.96 L35.65,36.96 L35.65,30.82 Z M42.63,36.84 L42.63,32.43 L43.84,36.84 L45.27,36.84 L46.44,32.43 L46.44,36.84 L47.65,36.84 L47.65,30.71 L45.83,30.71 L44.45,34.72 L43.24,30.71 L41.25,30.71 L41.25,36.84 Z M63.76,35.12 C62.37,35.59 60.39,35.12 59.56,33.69 C58.79,32.26 59.56,30.36 60.99,29.63 C62.37,29.15 64.36,29.63 65.18,31.05 C65.96,32.48 65.36,34.16 63.76,35.12 Z M30.57,51.05 L33.6,51.83 C34.38,52.18 35.2,51.83 35.8,51.05 L36.8,47.77 C38.4,47.98 40.17,47.98 41.77,47.38 L42.98,50.45 C43.58,51.44 44.58,51.83 45.4,51.44 L48.38,50.1 C48.98,49.5 49.37,48.72 48.98,47.98 L47.38,44.92 C48.77,43.75 49.76,42.8 50.8,41.24 L54.17,42.41 C54.99,42.8 55.77,42.41 56.16,41.46 L57.2,38.56 C57.26,38.44 57.3,38.32 57.32,38.21 L59.78,39.65 C60,39.91 60.17,39.91 60.39,39.65 L61.98,37.28 L62.59,37.28 L63.97,39.65 C63.97,39.91 64.19,39.91 64.36,39.91 L67.78,38.23 C67.99,38.01 67.99,38.01 67.99,37.75 L66.57,35.37 C66.78,35.12 66.78,35.12 67.17,34.9 L69.98,34.9 C69.98,34.9 70.37,34.9 70.37,34.64 L70.37,30.84 C70.37,30.84 70.37,30.36 69.98,30.36 L67.17,30.36 L67.17,30.1 C66.95,29.89 66.95,29.89 66.78,29.63 L68.38,27.47 C68.55,27.25 68.38,26.99 68.38,26.99 L65.18,25.09 C64.79,24.83 64.58,25.09 64.58,25.09 L62.98,27.47 C62.76,27.25 62.59,27.25 62.37,27.25 L60.99,25.09 C60.77,24.61 60.56,24.61 60.39,24.61 L56.97,26.51 C56.8,26.51 56.8,26.77 56.8,26.99 L58.18,29.41 C57.97,29.63 57.97,29.63 57.79,29.89 L54.98,29.89 C54.77,29.89 54.59,29.89 54.59,30.1 L54.38,33.95 C54.38,33.95 54.59,34.16 54.77,34.16 L57.58,34.42 C57.58,34.64 57.58,34.64 57.79,34.9 C57.97,34.9 57.97,34.9 57.97,35.12 L56.64,36.9 C56.5,36.81 56.34,36.73 56.16,36.66 L52.79,35.32 C53.18,34.15 52.96,32.43 52.57,30.91 L55.77,29.36 C56.59,28.79 56.98,28.02 56.59,27.24 L55.16,24.39 C54.99,23.61 54,23.39 52.96,23.78 L49.98,25.12 C48.98,24 47.6,22.83 46.17,22.05 L47.38,18.81 C47.6,17.86 47.38,17.26 46.56,16.87 L43.58,15.74 C42.59,15.35 41.59,15.92 41.38,16.87 L40.17,19.93 C38.57,19.76 36.97,19.93 35.2,20.32 L33.77,17.08 C33.38,16.52 32.6,16.13 31.57,16.52 L28.8,17.64 C27.98,18.21 27.59,18.98 27.98,19.76 L29.41,22.83 C28.2,23.78 27.2,24.95 26.21,26.46 L22.58,25.12 C22.19,24.95 21.19,25.34 20.8,26.12 L19.59,29.18 C19.21,29.92 19.81,30.91 20.59,31.09 L24,32.25 C24,33.77 24,35.32 24.18,36.83 L20.98,38.39 C20.2,38.78 19.98,39.51 20.37,40.51 L21.58,43.36 C22.19,44.14 23.01,44.31 24,44.14 L27.2,42.58 C27.98,43.75 29.19,44.92 30.57,45.48 L29.58,48.94 C29.31,49.48 29.58,50.22 29.79,50.45 L27.02,50.09 L27.02,49.7 L26.81,49.52 L28.84,47.41 C28.84,47.23 28.84,46.84 28.62,46.84 L25.64,44.55 C25.64,44.34 25.42,44.34 25.21,44.73 L23.44,46.84 C23.22,46.63 23.05,46.63 22.83,46.63 L21.62,44.16 C21.62,43.95 21.45,43.78 21.23,43.95 L17.82,45.29 C17.43,45.29 17.43,45.5 17.43,45.68 L18.64,48.18 C18.42,48.36 18.25,48.57 18.03,48.75 L15.22,48.36 C15.22,48.36 14.83,48.36 14.83,48.57 L14.23,52.2 C14.23,52.42 14.45,52.59 14.62,52.59 L17.43,52.98 L17.43,53.37 L17.64,53.54 L15.83,55.88 C15.83,55.88 15.83,56.05 16.04,56.22 L19.03,58.56 C19.03,58.73 19.24,58.73 19.42,58.56 L21.23,56.44 L21.84,56.44 L22.83,58.95 C23.05,59.12 23.05,59.12 23.44,59.12 L26.81,57.78 C27.02,57.78 27.02,57.56 27.02,57.39 L26.03,54.88 C26.24,54.71 26.42,54.49 26.63,54.32 L29.23,54.71 C29.44,54.71 29.83,54.71 29.83,54.49 L30.22,50.86 Z M23.44,54.15 C21.84,54.71 20.24,54.15 19.63,52.59 C19.03,51.08 19.63,49.52 21.23,48.96 C22.83,48.18 24.43,48.96 25.03,50.47 C25.64,52.03 25.03,53.54 23.44,54.15 Z" fill="none" stroke="currentColor" stroke-width="1.5"/></svg>