<svg xmlns="http://www.w3.org/2000/svg" viewBox="0 0 74.37 74.37" width="24" height="24"><path d="M43.03,45.28 L43.03,36.33 L45.93,36.33 L44.84,41.9 L44.84,45.28 Z M44.84,37.84 L44.84,40.38 L45.83,40.38 Z M34.68,45.28 L34.68,36.33 L37.58,36.33 L36.49,41.9 L36.49,45.28 Z M36.49,37.84 L36.49,40.38 L37.48,40.38 Z M33.72,45.28 L31.76,45.28 L30.97,43.24 L27.4,43.24 L26.66,45.28 L24.74,45.28 L28.23,36.33 L30.14,36.33 Z M30.39,41.74 L29.16,38.42 L27.95,41.74 Z M37.19,0 C16.67,0 0,16.67 0,37.18 C0,57.7 16.67,74.37 37.19,74.37 C57.7,74.37 74.37,57.7 74.37,37.18 C74.37,16.67 57.7,0 37.19,0 Z M37.81,3.39 C42.28,3.47 46.54,4.41 50.42,6.06 C50.51,7.65 50.51,9.32 50.44,11.05 C47.46,11.29 45.13,13.74 45.06,16.74 C44.28,16.47 43.48,16.23 42.67,16.02 C38.14,14.75 33.65,14.18 29.17,14.12 C28.99,13.39 28.66,12.7 28.22,12.1 C31.11,8.95 34.32,5.99 37.81,3.39 Z M36.06,3.4 C32.97,5.8 30.1,8.46 27.49,11.27 C26.41,10.26 24.99,9.7 23.51,9.7 C21.78,9.7 20.13,10.47 19.03,11.81 C18.38,11.18 17.74,10.56 17.08,9.99 C22.42,6.04 28.96,3.64 36.06,3.4 Z M51.5,6.55 C55.55,8.44 59.17,11.11 62.15,14.37 C61.68,17.7 60.75,21.17 59.59,24.63 C58.05,23.43 56.43,22.3 54.73,21.26 C56,20.15 56.73,18.55 56.74,16.86 C56.73,13.88 54.47,11.37 51.5,11.07 C51.56,9.51 51.57,8 51.5,6.55 Z M16.23,10.65 C16.97,11.28 17.7,11.97 18.43,12.67 C18.01,13.42 17.75,14.26 17.69,15.12 C15.23,15.52 12.77,16.02 10.29,16.69 C12.01,14.43 14.01,12.41 16.23,10.65 Z M26.18,12.78 C26.2,12.78 26.22,12.78 26.24,12.78 C26.79,12.8 27.09,13.44 26.75,13.87 L23.28,18.4 C23.03,18.73 22.56,18.76 22.27,18.47 L19.96,16.16 C19.33,15.53 20.28,14.57 20.92,15.21 L22.68,16.97 L25.68,13.05 C25.79,12.89 25.98,12.79 26.18,12.78 Z M48.62,13.87 C48.8,13.87 48.98,13.94 49.1,14.07 L50.89,15.85 L52.65,14.09 C53.29,13.45 54.24,14.41 53.6,15.04 L51.85,16.8 L53.67,18.61 C54.37,19.25 53.36,20.27 52.72,19.57 L50.89,17.75 L49.03,19.61 C48.39,20.28 47.4,19.29 48.07,18.65 L49.93,16.8 L48.15,15.03 C47.72,14.61 48.01,13.87 48.62,13.87 Z M47.84,44.36 L47.83,44.37 C47.76,44.44 47.68,44.52 47.62,44.58 C44.94,47.31 41.94,49.59 38.79,51.52 C39.63,50.13 40.45,48.73 41.24,47.3 L40.08,47.21 C39.04,49.04 37.97,50.82 36.87,52.58 C36.84,52.59 36.81,52.6 36.79,52.62 C36.68,52.33 36.55,52.06 36.4,51.79 C36.34,50.45 36.23,48.93 36.04,47.28 L34.98,47.26 C35.11,48.36 35.2,49.41 35.27,50.38 C34.2,49.4 32.79,48.85 31.33,48.85 C29.53,48.85 27.82,49.69 26.72,51.12 C23.54,49.7 21.29,48.3 18.4,46.13 L18.39,46.13 L18.39,46.12 C17.76,45.67 17.13,45.18 16.51,44.66 C16.96,43.83 17.19,42.89 17.19,41.95 C17.19,39.77 15.97,37.77 14.04,36.76 C14.81,34.1 15.76,31.42 17.01,28.71 L17.01,28.71 L17.01,28.7 C18.14,26.11 19.65,23.52 21.37,20.96 C22.05,21.23 22.78,21.37 23.51,21.37 C24.18,21.37 24.84,21.25 25.47,21.03 C26.37,22.32 27.22,23.65 27.99,25.02 L29.18,25 C28.35,23.49 27.42,22.01 26.44,20.58 C28.24,19.54 29.35,17.62 29.35,15.54 C29.35,15.39 29.34,15.25 29.33,15.11 C33.67,15.2 38,15.81 42.38,17.03 L42.39,17.03 L42.4,17.03 C43.34,17.27 44.25,17.56 45.15,17.88 C45.53,20.03 47.08,21.78 49.16,22.43 C49.05,23.1 48.79,24.37 48.65,25.04 C49.21,25.05 49.4,25.11 49.67,25.3 C49.83,24.51 50.06,23.44 50.2,22.65 C50.43,22.68 50.67,22.7 50.9,22.7 C51.92,22.7 52.93,22.43 53.81,21.92 C55.72,23.06 57.53,24.31 59.23,25.66 C57.52,30.47 55.21,35.2 52.2,39.33 L51.95,41.39 C55.49,36.95 58.15,31.73 60.08,26.39 C63.87,29.51 67,32.96 69.62,36.37 C69.56,36.4 69.49,36.44 69.42,36.48 C68.32,35.09 66.64,34.29 64.87,34.28 C61.64,34.28 59.03,36.9 59.03,40.12 C59.03,41.06 59.26,41.99 59.7,42.82 C56.24,45.39 52.73,48.42 49.16,52.16 C48.3,51.68 47.32,51.43 46.34,51.43 C43.9,51.43 41.72,52.94 40.87,55.23 C39.64,55.06 38.41,54.86 37.17,54.6 C37.17,54.43 37.16,54.27 37.14,54.1 C37.29,53.86 37.45,53.62 37.6,53.38 C41.52,51.19 45.28,48.5 48.56,45.12 L48.57,45.11 C49.02,44.68 49.46,44.23 49.88,43.78 Z M63.05,15.41 C67.67,20.89 70.58,27.86 70.95,35.52 C70.8,35.62 70.65,35.72 70.51,35.8 C67.77,32.22 64.49,28.57 60.47,25.31 C61.6,21.98 62.52,18.64 63.05,15.41 Z M17.71,16.17 C17.9,17.95 18.9,19.54 20.42,20.48 C18.7,23.06 17.19,25.66 16.05,28.28 L16.05,28.28 C16.05,28.28 16.05,28.28 16.05,28.28 C14.8,31 13.85,33.69 13.07,36.37 C12.51,36.2 11.93,36.11 11.35,36.11 C10.41,36.11 9.49,36.34 8.66,36.77 C6.98,34.77 5.41,32.67 4.03,30.53 C4.94,25.98 6.75,21.77 9.28,18.08 C12.12,17.25 14.92,16.63 17.71,16.17 Z M26.15,27.12 C25.09,27.12 24.24,27.97 24.24,29.03 L24.24,34.3 L32.45,34.3 L32.45,27.12 Z M33.16,27.12 L33.16,34.3 L41.55,34.3 L41.55,27.12 Z M42.26,27.12 L42.26,34.3 L50.45,34.3 L50.45,29.03 C50.45,27.97 49.59,27.12 48.54,27.12 Z M34.69,28.02 L39.94,28.02 L39.94,33.21 L34.69,33.21 Z M43.69,28.02 L48.94,28.02 L48.94,33.21 L43.69,33.21 L43.69,28.4 Z M35.44,28.77 L35.44,32.46 L39.19,32.46 L39.19,28.77 Z M45.08,28.77 L46.31,29.98 L47.5,28.77 Z M48.19,29.36 L46.95,30.61 L48.19,31.84 Z M44.44,29.4 L44.44,31.88 L45.68,30.62 Z M46.32,31.26 L45.13,32.46 L47.54,32.46 Z M3.76,32.03 C4.99,33.85 6.33,35.64 7.76,37.35 C6.35,38.46 5.52,40.15 5.52,41.95 C5.52,44.9 7.72,47.38 10.65,47.73 C10.23,50.96 10.03,54.16 10.03,57.34 C5.85,51.71 3.38,44.74 3.38,37.18 C3.38,35.43 3.51,33.71 3.76,32.03 Z M25.62,32.49 L31.04,32.49 L31.04,33.24 L25.62,33.24 Z M62.59,37.13 C62.77,37.12 62.94,37.2 63.07,37.33 L64.86,39.1 L66.62,37.34 C67.26,36.71 68.21,37.66 67.57,38.3 L65.81,40.05 L67.64,41.87 C68.34,42.5 67.33,43.52 66.69,42.83 L64.86,41.01 L63,42.87 C62.36,43.54 61.37,42.55 62.04,41.91 L63.9,40.05 L62.12,38.29 C61.69,37.86 61.98,37.13 62.59,37.13 Z M70.28,37.18 C70.49,37.46 70.74,37.75 70.97,38.03 C70.85,43.18 69.58,48.03 67.4,52.36 C63.4,53.93 58.49,55.04 54.49,55.43 C53.63,55.52 52.78,55.56 51.93,55.59 C51.6,54.48 50.94,53.49 50.04,52.76 C53.51,49.14 56.91,46.2 60.27,43.7 C61.37,45.12 63.07,45.96 64.87,45.96 C68.09,45.96 70.7,43.34 70.7,40.12 C70.7,39.15 70.46,38.2 70,37.35 C70.1,37.29 70.19,37.24 70.28,37.18 Z M14.02,39.19 C14.04,39.19 14.06,39.19 14.09,39.19 C14.64,39.21 14.93,39.85 14.59,40.28 L11.12,44.81 C10.88,45.13 10.4,45.17 10.11,44.88 L7.8,42.57 C7.17,41.94 8.12,40.98 8.76,41.62 L10.52,43.38 L13.52,39.46 C13.64,39.3 13.82,39.2 14.02,39.19 Z M15.94,45.56 C16.54,46.05 17.15,46.53 17.77,46.97 C17.77,46.97 17.77,46.97 17.77,46.97 C17.77,46.97 17.78,46.98 17.78,46.98 C20.65,49.14 22.98,50.59 26.15,52.01 C25.72,52.84 25.5,53.75 25.5,54.69 C25.5,55.55 25.69,56.4 26.06,57.17 C21.02,58.76 16.15,59.59 12.04,59.8 C11.71,59.44 11.39,59.07 11.08,58.69 C11.02,55.07 11.21,51.43 11.69,47.77 C13.36,47.67 14.91,46.87 15.94,45.56 Z M29.05,51.69 C29.24,51.69 29.41,51.76 29.54,51.89 L31.32,53.67 L33.09,51.91 C33.72,51.27 34.68,52.23 34.04,52.86 L32.28,54.62 L34.11,56.43 C34.81,57.07 33.8,58.09 33.16,57.39 L31.33,55.57 L29.46,57.43 C28.83,58.1 27.84,57.11 28.51,56.48 L30.37,54.62 L28.59,52.85 C28.15,52.43 28.45,51.69 29.05,51.69 Z M66.66,53.75 C61.01,63.8 50.38,70.65 38.1,70.97 C39.18,68.13 40.87,65.13 42.99,62.04 C43.97,62.73 45.14,63.1 46.34,63.1 C49.56,63.1 52.18,60.49 52.18,57.26 C52.18,57.06 52.16,56.85 52.14,56.65 C52.96,56.61 53.77,56.56 54.59,56.48 C58.33,56.11 62.79,55.14 66.66,53.75 Z M49,54.51 C49.03,54.51 49.05,54.51 49.07,54.51 C49.62,54.53 49.91,55.17 49.57,55.6 L46.11,60.13 C45.86,60.45 45.39,60.48 45.1,60.2 L42.79,57.89 C42.15,57.25 43.11,56.3 43.74,56.94 L45.51,58.7 L48.5,54.78 C48.62,54.62 48.8,54.52 49,54.51 Z M37.09,55.68 C38.26,55.92 39.42,56.13 40.58,56.29 C40.53,56.61 40.5,56.94 40.5,57.26 C40.5,58.8 41.11,60.28 42.2,61.37 C39.92,64.69 38.09,67.91 36.97,70.99 C33.11,70.97 29.41,70.29 25.96,69.08 C28.34,66.34 30.67,63.41 32.92,60.3 C35.08,59.69 36.7,57.89 37.09,55.68 Z M26.63,58.13 C27.72,59.63 29.47,60.52 31.33,60.52 C31.37,60.52 31.41,60.52 31.45,60.52 C29.33,63.4 27.14,66.14 24.91,68.69 C20.37,66.93 16.32,64.22 12.98,60.8 C17.05,60.51 21.77,59.67 26.63,58.13 Z" fill="none" stroke="currentColor" stroke-width="1.5"/></svg>