<svg xmlns="http://www.w3.org/2000/svg" viewBox="0 0 80.0 80.0" width="24" height="24"><path d="M26.07,10.17 C24.29,10.17 22.83,11.62 22.83,13.41 L22.83,66.62 C22.83,68.37 24.29,69.83 26.07,69.83 L53.93,69.83 L53.96,69.83 C55.86,69.56 57.17,68.27 57.17,66.62 L57.17,13.41 C57.17,11.63 55.75,10.17 53.96,10.17 L26.07,10.17 Z M26.07,10.89 L53.96,10.89 C55.35,10.89 56.45,12.01 56.45,13.41 L56.45,66.62 C56.45,67.98 55.35,69.1 53.96,69.1 L26.07,69.1 C24.68,69.1 23.55,67.97 23.55,66.62 L23.55,13.41 C23.55,12.01 24.68,10.89 26.07,10.89 Z M6.37,13.06 L6.28,14.19 C5.78,14.27 5.38,14.53 5.21,14.88 L4.59,14.88 L4.39,15.61 L5.21,15.61 C5.37,15.92 5.7,16.16 6.12,16.26 L5.97,18.2 C5.77,18.26 5.6,18.36 5.46,18.49 L4.23,18.49 L4.03,19.59 L5.21,19.59 C5.32,19.84 5.54,20.05 5.82,20.18 L5.67,22.13 C5.32,22.16 5.01,22.28 4.78,22.47 L3.87,22.47 L3.66,23.56 L4.49,23.56 C4.65,23.9 5.04,24.14 5.5,24.23 L5.47,24.65 L6.37,24.65 L6.4,24.2 C6.77,24.08 7.04,23.84 7.18,23.56 L11,23.56 C11.12,23.8 11.34,23.98 11.62,24.11 L11.62,24.65 L12.71,24.65 L12.71,24.23 C13.17,24.14 13.53,23.89 13.69,23.56 L17.14,23.56 C17.3,23.88 17.66,24.12 18.1,24.22 L18.14,24.65 L19.2,24.65 L19.15,24.15 C19.47,24.03 19.71,23.82 19.83,23.56 L21.01,23.56 L20.84,22.47 L19.56,22.47 C19.4,22.33 19.2,22.23 18.97,22.17 L18.79,20.18 C19.11,20.05 19.35,19.85 19.47,19.59 L20.67,19.59 L20.47,18.49 L19.19,18.49 C19.04,18.36 18.84,18.26 18.61,18.2 L18.43,16.2 C18.74,16.07 18.99,15.87 19.11,15.61 L20.3,15.61 L20.11,14.88 L19.11,14.88 C18.97,14.57 18.65,14.33 18.25,14.22 L18.14,13.06 L17.04,13.06 L17.16,14.26 C16.82,14.39 16.55,14.61 16.42,14.88 L13.69,14.88 C13.53,14.54 13.17,14.3 12.71,14.2 L12.71,13.06 L11.62,13.06 L11.62,14.32 C11.34,14.45 11.11,14.64 11,14.88 L7.9,14.88 C7.78,14.61 7.53,14.4 7.2,14.27 L7.3,13.06 L6.37,13.06 Z M61.53,13.06 L61.42,14.22 C61,14.33 60.68,14.57 60.53,14.88 L59.91,14.88 L59.71,15.61 L60.53,15.61 C60.66,15.87 60.91,16.07 61.23,16.2 L61.04,18.2 C60.82,18.26 60.62,18.36 60.46,18.49 L59.55,18.49 L59.35,19.59 L60.17,19.59 C60.3,19.84 60.55,20.04 60.86,20.17 L60.67,22.18 C60.45,22.24 60.25,22.34 60.1,22.47 L59.38,22.47 L58.98,23.56 L59.81,23.56 C59.93,23.81 60.18,24.01 60.48,24.14 L60.43,24.65 L61.53,24.65 L61.57,24.22 C62,24.12 62.34,23.88 62.5,23.56 L66.32,23.56 C66.48,23.89 66.85,24.13 67.3,24.23 L67.3,24.65 L68.03,24.65 L68.03,24.23 C68.49,24.14 68.85,23.89 69.01,23.56 L72.46,23.56 C72.62,23.88 72.98,24.12 73.42,24.22 L73.46,24.65 L74.52,24.65 L74.47,24.15 C74.79,24.03 75.03,23.82 75.15,23.56 L76.33,23.56 L75.96,22.47 L74.88,22.47 C74.72,22.33 74.52,22.23 74.29,22.17 L74.11,20.18 C74.42,20.05 74.67,19.84 74.79,19.59 L75.99,19.59 L75.79,18.49 L74.51,18.49 C74.36,18.36 74.16,18.26 73.93,18.2 L73.75,16.2 C74.06,16.07 74.31,15.87 74.43,15.61 L75.62,15.61 L75.43,14.88 L74.43,14.88 C74.29,14.57 73.98,14.33 73.57,14.22 L73.46,13.06 L72.36,13.06 L72.48,14.26 C72.14,14.39 71.87,14.61 71.74,14.88 L69.01,14.88 C68.85,14.54 68.49,14.3 68.03,14.2 L68.03,13.06 L67.3,13.06 L67.3,14.2 C66.85,14.3 66.48,14.55 66.32,14.88 L63.22,14.88 C63.09,14.6 62.83,14.37 62.48,14.25 L62.59,13.06 L61.53,13.06 Z M7.9,15.61 L11,15.61 C11.12,15.84 11.34,16.03 11.62,16.16 L11.62,18.3 C11.5,18.36 11.38,18.41 11.29,18.49 L7.3,18.49 C7.18,18.38 7.04,18.29 6.88,18.22 L7.04,16.26 C7.44,16.15 7.76,15.91 7.9,15.61 Z M13.69,15.61 L16.42,15.61 C16.58,15.92 16.92,16.16 17.34,16.27 L17.53,18.23 C17.35,18.3 17.2,18.38 17.07,18.49 L13.41,18.49 C13.23,18.34 12.99,18.24 12.71,18.18 L12.71,16.28 C13.17,16.18 13.53,15.94 13.69,15.61 Z M63.22,15.61 L66.32,15.61 C66.48,15.94 66.85,16.18 67.3,16.28 L67.3,18.18 C67.03,18.24 66.79,18.34 66.61,18.49 L62.58,18.49 C62.45,18.38 62.3,18.29 62.12,18.23 L62.29,16.27 C62.73,16.17 63.07,15.93 63.22,15.61 Z M69.01,15.61 L71.74,15.61 C71.9,15.92 72.24,16.16 72.67,16.27 L72.85,18.23 C72.68,18.3 72.52,18.38 72.39,18.49 L68.73,18.49 C68.55,18.34 68.31,18.24 68.03,18.18 L68.03,16.28 C68.49,16.18 68.85,15.94 69.01,15.61 Z M29.34,19.21 L29.34,21.76 L51.02,21.76 L51.02,19.21 L29.34,19.21 Z M7.54,19.59 L11,19.59 C11.12,19.82 11.34,20.01 11.62,20.14 L11.62,22.27 C11.5,22.33 11.38,22.39 11.29,22.47 L6.9,22.47 C6.8,22.39 6.68,22.33 6.56,22.27 L6.72,20.25 C7.1,20.15 7.41,19.91 7.54,19.59 Z M13.69,19.59 L16.79,19.59 C16.94,19.91 17.29,20.14 17.72,20.25 L17.9,22.2 C17.72,22.26 17.57,22.36 17.43,22.47 L13.41,22.47 C13.23,22.31 12.99,22.21 12.71,22.15 L12.71,20.26 C13.17,20.16 13.53,19.92 13.69,19.59 Z M62.86,19.59 L66.32,19.59 C66.48,19.92 66.85,20.16 67.3,20.25 L67.3,22.15 C67.03,22.21 66.79,22.32 66.61,22.47 L62.22,22.47 C62.09,22.36 61.93,22.26 61.75,22.2 L61.93,20.25 C62.36,20.15 62.71,19.91 62.86,19.59 Z M69.01,19.59 L72.1,19.59 C72.26,19.91 72.61,20.14 73.04,20.25 L73.22,22.2 C73.04,22.26 72.89,22.36 72.75,22.47 L68.73,22.47 C68.55,22.31 68.31,22.21 68.03,22.15 L68.03,20.26 C68.49,20.16 68.85,19.92 69.01,19.59 Z M29.34,26.8 L29.34,29.71 L51.02,29.71 L51.02,26.8 L29.34,26.8 Z M12.15,32.58 C12.02,32.58 11.88,32.61 11.85,32.71 C11.82,32.71 11.75,32.78 11.71,32.78 L9.93,34.54 C9.76,34.73 9.76,35.03 9.93,35.2 L9.96,35.23 C10.16,35.39 10.45,35.39 10.62,35.23 L11.65,34.2 L11.65,37.15 C9.96,35.7 8.23,34.6 7.24,34.6 C6.87,34.6 6.67,34.74 6.57,34.84 C6.11,35.33 6.31,36.19 7.24,37.65 C7.67,38.31 8.2,38.97 8.8,39.7 L6.05,39.7 L7.11,38.67 C7.27,38.51 7.27,38.21 7.11,38.01 L7.04,38.01 C6.88,37.81 6.57,37.81 6.41,38.01 L4.55,39.74 C4.55,39.8 4.52,39.8 4.52,39.86 C4.42,39.9 4.39,40.03 4.39,40.16 L4.39,40.23 C4.39,40.36 4.42,40.53 4.55,40.59 L6.41,42.35 C6.57,42.55 6.88,42.55 7.04,42.35 L7.11,42.35 C7.27,42.15 7.27,41.85 7.11,41.69 L6.05,40.66 L8.96,40.66 C8.27,41.49 7.7,42.25 7.24,42.95 C6.31,44.37 6.11,45.27 6.57,45.76 C6.67,45.86 6.87,45.99 7.24,45.99 C8.23,45.99 9.96,44.87 11.65,43.44 L11.65,46.16 L10.62,45.13 C10.45,44.97 10.16,44.97 9.96,45.13 L9.93,45.2 C9.76,45.36 9.76,45.63 9.93,45.82 L11.71,47.61 C11.75,47.61 11.82,47.65 11.85,47.65 C11.88,47.75 12.02,47.78 12.15,47.78 L12.25,47.78 C12.38,47.78 12.51,47.75 12.58,47.61 L14.43,45.82 C14.57,45.63 14.57,45.36 14.43,45.2 L14.37,45.13 C14.2,44.97 13.91,44.97 13.74,45.13 L12.68,46.16 L12.68,43.48 C14.37,44.87 16.13,45.99 17.05,45.99 C17.42,45.99 17.62,45.86 17.79,45.76 C18.25,45.27 18.05,44.37 17.05,42.95 C16.62,42.25 16.03,41.49 15.33,40.66 L18.28,40.66 L17.25,41.69 C17.05,41.85 17.05,42.15 17.25,42.35 L17.29,42.35 C17.49,42.55 17.79,42.55 17.95,42.35 L19.77,40.59 C19.91,40.53 19.94,40.36 19.94,40.23 L19.94,40.16 C19.94,40.03 19.9,39.9 19.84,39.86 C19.84,39.8 19.77,39.8 19.77,39.74 L17.95,38.01 C17.79,37.81 17.49,37.81 17.29,38.01 L17.25,38.01 C17.05,38.21 17.05,38.51 17.25,38.67 L18.28,39.7 L15.5,39.7 C16.13,38.97 16.69,38.31 17.05,37.65 C18.05,36.19 18.25,35.33 17.79,34.84 C17.62,34.74 17.42,34.6 17.05,34.6 C16.13,34.6 14.37,35.7 12.68,37.09 L12.68,34.2 L13.74,35.23 C13.91,35.39 14.2,35.39 14.37,35.23 L14.43,35.2 C14.57,35.03 14.57,34.73 14.43,34.54 L12.58,32.78 C12.51,32.62 12.38,32.58 12.25,32.58 L12.15,32.58 Z M67.3,32.58 C67.17,32.58 67.04,32.61 66.97,32.71 C66.94,32.71 66.9,32.78 66.87,32.78 L65.15,34.54 C64.95,34.73 64.95,35.03 65.15,35.2 L65.15,35.23 C65.35,35.39 65.65,35.39 65.81,35.23 L66.84,34.2 L66.84,37.15 C65.15,35.7 63.46,34.6 62.5,34.6 C62.16,34.6 61.93,34.74 61.86,34.84 C61.37,35.33 61.6,36.19 62.5,37.65 C62.93,38.31 63.42,38.97 64.02,39.7 L61.34,39.7 L62.36,38.67 C62.53,38.51 62.53,38.21 62.36,38.01 L62.29,38.01 C62.16,37.81 61.87,37.81 61.67,38.01 L59.88,39.74 C59.88,39.8 59.84,39.8 59.84,39.86 C59.74,39.9 59.71,40.03 59.71,40.16 L59.71,40.23 C59.71,40.36 59.74,40.53 59.88,40.59 L61.67,42.35 C61.87,42.55 62.16,42.55 62.29,42.35 L62.36,42.35 C62.53,42.15 62.53,41.85 62.36,41.69 L61.34,40.66 L64.19,40.66 C63.52,41.49 62.96,42.25 62.5,42.95 C61.6,44.37 61.37,45.27 61.86,45.76 C61.93,45.86 62.16,45.99 62.5,45.99 C63.46,45.99 65.15,44.87 66.84,43.44 L66.84,46.16 L65.81,45.13 C65.65,44.97 65.35,44.97 65.15,45.13 L65.15,45.2 C64.95,45.36 64.95,45.63 65.15,45.82 L66.87,47.61 C66.9,47.61 66.94,47.65 66.97,47.65 C67.04,47.75 67.17,47.78 67.3,47.78 L67.37,47.78 C67.5,47.78 67.63,47.75 67.7,47.61 L69.49,45.82 C69.69,45.63 69.69,45.36 69.49,45.2 L69.46,45.13 C69.29,44.97 68.99,44.97 68.83,45.13 L67.8,46.16 L67.8,43.48 C69.46,44.87 71.18,45.99 72.11,45.99 C72.44,45.99 72.67,45.86 72.77,45.76 C73.24,45.27 73.04,44.37 72.11,42.95 C71.68,42.25 71.08,41.49 70.39,40.66 L73.3,40.66 L72.28,41.69 C72.11,41.85 72.11,42.15 72.28,42.35 L72.31,42.35 C72.47,42.55 72.77,42.55 72.94,42.35 L74.73,40.59 C74.86,40.53 74.89,40.36 74.89,40.23 L74.89,40.16 C74.89,40.03 74.86,39.9 74.79,39.86 C74.79,39.8 74.73,39.8 74.73,39.74 L72.94,38.01 C72.77,37.81 72.47,37.81 72.31,38.01 L72.28,38.01 C72.11,38.21 72.11,38.51 72.28,38.67 L73.3,39.7 L70.55,39.7 C71.18,38.97 71.71,38.31 72.11,37.65 C73.04,36.19 73.24,35.33 72.77,34.84 C72.67,34.74 72.44,34.6 72.11,34.6 C71.18,34.6 69.46,35.7 67.8,37.09 L67.8,34.2 L68.83,35.23 C68.99,35.39 69.29,35.39 69.46,35.23 L69.49,35.2 C69.69,35.03 69.69,34.73 69.49,34.54 L67.7,32.78 C67.63,32.62 67.5,32.58 67.37,32.58 L67.3,32.58 Z M29.34,34.75 L29.34,37.3 L51.02,37.3 L51.02,34.75 L29.34,34.75 Z M7.14,35.39 L7.24,35.39 C7.83,35.39 9.33,36.19 11.15,37.75 C10.39,38.01 9.83,38.61 9.53,39.31 C7.77,37.25 7.01,35.76 7.14,35.39 Z M17.05,35.39 L17.15,35.39 C17.29,35.76 16.56,37.25 14.76,39.31 C14.47,38.61 13.91,38.01 13.14,37.75 C15.03,36.19 16.46,35.39 17.05,35.39 Z M62.39,35.39 L62.5,35.39 C63.09,35.39 64.52,36.19 66.31,37.75 C65.58,38.01 65.05,38.61 64.75,39.31 C62.99,37.25 62.26,35.76 62.39,35.39 Z M72.11,35.39 L72.17,35.39 C72.31,35.76 71.61,37.25 69.82,39.31 C69.56,38.61 68.99,38.01 68.26,37.75 C70.12,36.19 71.51,35.39 72.11,35.39 Z M9.53,41.26 C9.83,41.98 10.39,42.55 11.15,42.84 C9.33,44.37 7.83,45.2 7.24,45.2 L7.14,45.2 C7.01,44.87 7.77,43.34 9.53,41.26 Z M14.76,41.26 C16.56,43.34 17.29,44.87 17.15,45.2 L17.05,45.2 C16.46,45.2 15.03,44.37 13.14,42.84 C13.91,42.55 14.47,41.98 14.76,41.26 Z M64.75,41.26 C65.05,41.98 65.58,42.55 66.31,42.84 C64.52,44.37 63.09,45.2 62.5,45.2 L62.39,45.2 C62.26,44.87 62.99,43.34 64.75,41.26 Z M69.82,41.26 C71.61,43.34 72.31,44.87 72.17,45.2 L72.11,45.2 C71.51,45.2 70.12,44.37 68.26,42.84 C68.99,42.55 69.56,41.98 69.82,41.26 Z M29.34,42.34 L29.34,44.89 L51.02,44.89 L51.02,42.34 L29.34,42.34 Z M29.34,49.93 L29.34,52.84 L51.02,52.84 L51.02,49.93 L29.34,49.93 Z M6.37,54.26 L6.28,55.4 C5.98,55.45 5.71,55.55 5.5,55.72 L4.59,55.72 L4.39,56.81 L5.21,56.81 C5.37,57.13 5.7,57.36 6.12,57.47 L5.97,59.39 C5.56,59.49 5.25,59.75 5.16,60.06 L4.23,60.06 L4.03,60.79 L5.4,60.79 C5.52,60.91 5.67,61 5.84,61.06 L5.69,62.97 C5.19,63.02 4.76,63.3 4.54,63.67 L3.87,63.67 L3.66,64.77 L4.56,64.77 C4.75,65.09 5.09,65.33 5.5,65.43 L5.47,65.85 L6.37,65.85 L6.4,65.39 C6.72,65.27 6.96,65.04 7.11,64.77 L11.07,64.77 C11.2,64.98 11.39,65.16 11.62,65.28 L11.62,65.85 L12.71,65.85 L12.71,65.42 C13.11,65.33 13.44,65.09 13.62,64.77 L17.22,64.77 C17.4,65.08 17.71,65.31 18.1,65.42 L18.14,65.85 L19.2,65.85 L19.15,65.33 C19.42,65.2 19.63,65.01 19.76,64.77 L21.01,64.77 L20.84,63.67 L19.78,63.67 C19.61,63.37 19.31,63.13 18.94,63.02 L18.76,61.06 C18.96,61 19.12,60.91 19.26,60.79 L20.67,60.79 L20.47,60.06 L19.52,60.06 C19.42,59.75 19.08,59.49 18.61,59.39 L18.43,57.4 C18.74,57.28 18.99,57.07 19.11,56.81 L20.3,56.81 L20.11,55.72 L18.83,55.72 C18.67,55.59 18.48,55.49 18.25,55.43 L18.14,54.26 L17.04,54.26 L17.16,55.47 C16.99,55.54 16.84,55.62 16.71,55.72 L13.41,55.72 C13.23,55.57 12.99,55.47 12.71,55.41 L12.71,54.26 L11.62,54.26 L11.62,55.53 C11.5,55.59 11.38,55.64 11.29,55.72 L7.62,55.72 C7.5,55.62 7.36,55.54 7.2,55.48 L7.3,54.26 L6.37,54.26 Z M61.53,54.26 L61.42,55.43 C61.19,55.49 60.99,55.59 60.82,55.72 L59.91,55.72 L59.71,56.81 L60.53,56.81 C60.66,57.07 60.91,57.28 61.23,57.4 L61.05,59.39 C60.57,59.5 60.22,59.75 60.12,60.06 L59.55,60.06 L59.35,60.79 L60.4,60.79 C60.53,60.9 60.69,60.99 60.89,61.05 L60.7,63.03 C60.33,63.14 60.03,63.38 59.86,63.67 L59.38,63.67 L58.98,64.77 L59.88,64.77 C60.02,65 60.23,65.19 60.49,65.31 L60.43,65.85 L61.53,65.85 L61.57,65.42 C61.95,65.31 62.26,65.08 62.43,64.77 L66.39,64.77 C66.58,65.09 66.9,65.32 67.3,65.42 L67.3,65.85 L68.03,65.85 L68.03,65.42 C68.43,65.33 68.76,65.09 68.94,64.77 L72.54,64.77 C72.72,65.08 73.03,65.31 73.42,65.42 L73.46,65.85 L74.52,65.85 L74.47,65.33 C74.74,65.2 74.95,65.01 75.08,64.77 L76.33,64.77 L75.96,63.67 L75.1,63.67 C74.93,63.37 74.63,63.13 74.26,63.02 L74.08,61.06 C74.28,61 74.44,60.9 74.57,60.79 L75.99,60.79 L75.79,60.06 L74.84,60.06 C74.74,59.75 74.4,59.49 73.93,59.39 L73.75,57.4 C74.07,57.28 74.31,57.07 74.43,56.81 L75.62,56.81 L75.43,55.72 L74.15,55.72 C73.99,55.59 73.8,55.49 73.57,55.43 L73.46,54.26 L72.36,54.26 L72.48,55.47 C72.31,55.54 72.16,55.62 72.03,55.72 L68.73,55.72 C68.55,55.57 68.31,55.47 68.03,55.41 L68.03,54.26 L67.3,54.26 L67.3,55.41 C67.03,55.47 66.79,55.57 66.61,55.72 L62.94,55.72 C62.81,55.61 62.66,55.52 62.48,55.46 L62.59,54.26 L61.53,54.26 Z M7.9,56.81 L11,56.81 C11.11,57.05 11.34,57.23 11.62,57.36 L11.62,59.47 C11.27,59.6 11.03,59.81 10.95,60.06 L7.59,60.06 C7.51,59.77 7.26,59.53 6.89,59.41 L7.04,57.47 C7.45,57.36 7.76,57.12 7.9,56.81 Z M13.69,56.81 L16.42,56.81 C16.58,57.13 16.92,57.37 17.34,57.47 L17.53,59.42 C17.12,59.54 16.83,59.78 16.74,60.06 L13.73,60.06 C13.63,59.72 13.24,59.46 12.71,59.38 L12.71,57.48 C13.17,57.39 13.53,57.15 13.69,56.81 Z M63.22,56.81 L66.32,56.81 C66.48,57.14 66.85,57.39 67.3,57.48 L67.3,59.38 C66.77,59.47 66.38,59.73 66.27,60.06 L62.91,60.06 C62.82,59.77 62.53,59.53 62.12,59.41 L62.29,57.48 C62.73,57.38 63.07,57.14 63.22,56.81 Z M69.01,56.81 L71.74,56.81 C71.9,57.13 72.24,57.37 72.67,57.47 L72.85,59.42 C72.44,59.54 72.14,59.78 72.05,60.06 L69.05,60.06 C68.95,59.72 68.56,59.46 68.03,59.38 L68.03,57.48 C68.49,57.39 68.85,57.15 69.01,56.81 Z M29.34,57.88 L29.34,60.79 L51.02,60.79 L51.02,57.88 L29.34,57.88 Z M7.35,60.79 L11.23,60.79 C11.34,60.88 11.47,60.95 11.62,61.01 L11.62,63.15 C11.38,63.28 11.18,63.46 11.06,63.67 L7.12,63.67 C7.01,63.46 6.82,63.28 6.59,63.15 L6.75,61.1 C6.99,61.04 7.2,60.94 7.35,60.79 Z M13.47,60.79 L17.01,60.79 C17.18,60.94 17.41,61.04 17.69,61.1 L17.88,63.08 C17.58,63.21 17.34,63.42 17.2,63.67 L13.63,63.67 C13.45,63.35 13.12,63.11 12.71,63.01 L12.71,61.11 C13.02,61.06 13.28,60.95 13.47,60.79 Z M62.64,60.79 L66.55,60.79 C66.74,60.95 67,61.06 67.3,61.11 L67.3,63.01 C66.9,63.11 66.56,63.35 66.38,63.67 L62.44,63.67 C62.31,63.42 62.07,63.21 61.78,63.08 L61.96,61.1 C62.24,61.04 62.47,60.94 62.64,60.79 Z M68.79,60.79 L72.33,60.79 C72.5,60.93 72.73,61.04 73.01,61.1 L73.2,63.08 C72.9,63.21 72.66,63.42 72.52,63.67 L68.95,63.67 C68.77,63.35 68.44,63.11 68.03,63.01 L68.03,61.11 C68.34,61.06 68.6,60.95 68.79,60.79 Z M16.18,0 C63.99,0 63.99,0 63.99,0 C72.81,0 80,7.35 80,16.16 C80,63.97 80,63.97 80,63.97 C80,72.78 72.81,80 63.99,80 C16.18,80 16.18,80 16.18,80 C7.36,80 0,72.78 0,63.97 C0,16.16 0,16.16 0,16.16 C0,7.35 7.36,0 16.18,0 Z" fill="none" stroke="currentColor" stroke-width="1.5"/></svg>