<svg xmlns="http://www.w3.org/2000/svg" viewBox="0 0 80.0 70.07" width="24" height="24"><path d="M25.56,36.7 L27.78,38.65 L26.67,38.65 L26.67,44.7 L26.67,44.7 L26.95,44.7 L27.16,44.7 L27.34,44.89 L32.15,40.8 L31.32,40.03 L34.45,40.03 L34.45,42.68 L33.62,42.13 L29.23,45.99 L29.38,46.1 L29.38,46.3 L29.58,46.5 L29.58,46.72 L35.62,46.72 L35.62,45.61 L37.78,47.83 L35.62,50.05 L35.62,48.94 L30,48.94 L30,49.15 L30,49.29 L29.8,49.7 L29.8,49.91 L29.64,50.07 L33.62,53.74 L34.45,52.97 L34.45,55.62 L31.32,55.62 L32.15,55.05 L28.17,51.61 L28.06,51.71 L27.78,51.93 L27.58,51.93 L27.36,52.14 L27.16,52.14 L26.95,52.14 L26.67,52.28 L26.67,52.28 L26.67,57.84 L27.78,57.84 L25.56,60.06 L23.33,57.84 L24.45,57.84 L24.45,52.28 L24.24,52.14 L24.02,52.14 L23.82,52.14 L23.62,51.93 L23.34,51.71 L23.13,51.71 L23,51.59 L19.03,55.05 L19.86,55.62 L16.67,55.62 L16.67,52.97 L17.58,53.74 L21.6,50.17 L21.6,50.12 L21.6,49.91 L21.39,49.7 L21.39,49.29 L21.11,49.15 L21.11,48.94 L15.49,48.94 L15.49,50.05 L13.33,47.83 L15.49,45.61 L15.49,46.5 L21.8,46.5 L21.8,46.3 L22.02,46.1 L22.15,46.01 L17.58,42.13 L16.67,42.68 L16.67,40.03 L19.86,40.03 L19.03,40.8 L23.8,44.9 L23.82,44.9 L24.02,44.7 L24.24,44.7 L24.45,44.7 L24.45,38.65 L23.33,38.65 L25.56,36.7 Z M34.17,23.35 L37.78,27.11 L34.17,31.15 L34.17,29.13 L27.78,29.13 L27.78,25.45 L34.17,25.45 L34.17,23.35 Z M19.44,18.9 L19.44,21 L26.67,21 L26.67,24.68 L19.44,24.68 L19.44,26.7 L15.56,22.8 L19.44,18.9 Z M34.17,13.34 L37.78,17.73 L34.17,22.25 L34.17,20.02 L27.78,20.02 L27.78,15.64 L34.17,15.64 L34.17,13.34 Z M19.44,10 L19.44,11.88 L26.67,11.88 L26.67,15.98 L19.44,15.98 L19.44,17.8 L15.56,13.9 L19.44,10 Z M55,8.9 C54.14,8.9 53.2,9.41 52.19,10.64 C51.19,11.87 50.21,13.76 49.38,16.14 C47.73,20.91 46.67,27.63 46.67,35.03 C46.67,42.47 47.73,49.19 49.38,53.96 C50.21,56.34 51.19,58.22 52.19,59.45 C53.19,60.67 54.13,61.18 55,61.18 C55.89,61.18 56.84,60.67 57.84,59.44 C58.85,58.22 59.83,56.34 60.66,53.96 C62.3,49.19 63.34,42.48 63.34,35.03 C63.34,27.63 62.3,20.91 60.65,16.14 C59.83,13.76 58.85,11.87 57.84,10.64 C56.84,9.41 55.89,8.9 55,8.9 Z M55,6.68 C56.75,6.68 58.3,7.7 59.56,9.23 C60.82,10.77 61.88,12.87 62.76,15.42 C64.52,20.52 65.57,27.42 65.57,35.03 C65.57,42.68 64.52,49.59 62.76,54.68 C61.88,57.23 60.82,59.33 59.56,60.86 C58.3,62.39 56.75,63.4 55,63.4 C53.27,63.4 51.73,62.39 50.47,60.86 C49.22,59.33 48.16,57.23 47.28,54.68 C45.53,49.63 44.48,42.79 44.46,35.21 C44.48,27.31 45.53,20.47 47.28,15.42 C48.16,12.87 49.22,10.77 50.47,9.23 C51.73,7.7 53.26,6.68 55,6.68 Z M40,6.67 L41.12,6.67 L41.12,64.51 L40,64.51 L40,6.67 Z M60.01,70.07 L80,34.9 L60.01,0 L20.01,0 L0,34.9 L20.01,70.07 L60.01,70.07 L60.01,70.07 Z" fill="none" stroke="currentColor" stroke-width="1.5"/></svg>