<svg xmlns="http://www.w3.org/2000/svg" viewBox="0 0 80.15 69.46" width="24" height="24"><path d="M20.94,0 L0.29,33.83 L19.56,68.61 L59.02,69.4 L79.86,35.44 L60.66,0.8 L20.94,0 Z M21.86,3.2 L58.36,3.2 L76.62,34.64 L58.36,66.2 L21.86,66.2 L3.52,34.64 L21.86,3.2 Z M44.38,14.56 C39.31,14.47 34.35,16.87 33.48,21.69 C27.13,18.36 22.34,23.62 23.13,27.49 C10.74,27.49 12.01,44.91 22.53,44.91 L37.28,44.91 L40.01,44.91 L40.01,47.24 C39.41,47.45 39.01,47.92 38.74,48.44 L28.68,48.44 C28.34,47.65 27.54,47.11 26.67,47.11 C25.48,47.11 24.53,48.05 24.53,49.18 C24.53,50.32 25.48,51.25 26.67,51.25 C27.54,51.25 28.34,50.79 28.68,49.98 L38.74,49.98 C39.08,50.79 39.88,51.25 40.73,51.25 C41.68,51.25 42.4,50.79 42.75,49.98 L52.88,49.98 C53.15,50.79 53.94,51.25 54.88,51.25 C56,51.25 57.01,50.32 57.01,49.18 C57.01,48.05 56,47.11 54.88,47.11 C53.94,47.11 53.15,47.65 52.88,48.44 L42.75,48.44 C42.48,47.92 42.07,47.45 41.55,47.24 L41.55,44.91 L55.61,44.91 C61.75,44.91 65.14,42.7 65.14,38.44 C65.14,33.76 62.74,32.36 59.94,31.43 C60.21,28.89 57.81,27.49 56,27.49 C57.58,18.94 50.89,14.69 44.38,14.56 Z M40.73,23.56 L43.68,24.22 L48.74,25.28 L48.74,31.1 C48.74,35.84 45.81,40.04 41.27,41.85 L40.73,42.04 L40.21,41.85 C35.67,40.04 32.81,35.84 32.81,31.1 L32.81,25.28 L37.88,24.22 L40.73,23.56 Z M40.61,24.56 L39.14,24.96 L39.14,25.82 L36.61,26.42 L36.61,25.56 L34.21,26.09 L34.21,30.82 C34.21,35.23 36.87,38.97 40.61,40.58 C44.41,38.97 47.01,35.23 47.01,30.82 L47.01,26.09 L44.67,25.56 L44.67,26.42 L42.07,25.82 L42.07,24.96 L40.61,24.56 Z M40.61,27.37 C43.08,27.97 44.28,28.22 44.8,28.36 L37.54,35.77 C36.87,34.84 36.4,33.77 36.15,32.57 C36.01,32.03 36.01,31.43 36.01,30.82 L36.01,28.49 L40.61,27.37 Z M45.27,29.37 L45.27,30.82 C45.27,31.43 45.21,32.03 45.07,32.57 C44.61,35.17 42.94,37.38 40.61,38.58 C39.68,38.1 38.88,37.44 38.21,36.64 L45.27,29.37 Z" fill="none" stroke="currentColor" stroke-width="1.5"/></svg>