<svg xmlns="http://www.w3.org/2000/svg" viewBox="0 0 79.91 80.0" width="24" height="24"><path d="M48.55,28.98 C45.64,28.37 45.64,28.37 45.64,28.37 C45.64,29.4 45.64,29.4 45.64,29.4 C42.07,28.56 42.07,28.56 42.07,28.56 C42.07,27.53 42.07,27.53 42.07,27.53 C40.43,26.92 40.43,26.92 40.43,26.92 C38.55,27.53 38.55,27.53 38.55,27.53 C38.55,28.56 38.55,28.56 38.55,28.56 C35.04,29.4 35.04,29.4 35.04,29.4 C35.04,28.37 35.04,28.37 35.04,28.37 C31.89,28.98 31.89,28.98 31.89,28.98 C31.89,34.85 31.89,34.85 31.89,34.85 C31.89,40.24 35.41,45.03 40.43,46.91 C45.22,45.03 48.55,40.24 48.55,34.85 C48.55,28.98 48.55,28.98 48.55,28.98 Z M34.61,36.91 C34.38,36.3 34.19,35.64 34.19,34.85 C34.19,31.89 34.19,31.89 34.19,31.89 C34.19,31.89 34.19,31.89 40.43,30.44 C43.53,31.28 44.98,31.7 45.64,31.7 C36.26,41.09 36.26,41.09 36.26,41.09 C35.41,39.82 34.8,38.55 34.61,36.91 Z M46.48,34.85 C46.48,35.64 46.25,36.3 46.06,36.91 C45.41,40.24 43.34,42.96 40.43,44.42 C39.16,44 38.13,43.15 37.1,42.12 C46.48,33.16 46.48,33.16 46.48,33.16 L46.48,34.85 Z M58.3,52.07 C65.99,52.07 69.94,49.58 69.94,44.19 C69.94,38.56 67.03,36.68 63.7,35.65 C63.88,32.5 60.97,30.81 58.67,30.81 C62.24,12.09 33.71,9.98 31.23,23.54 C23.53,19.6 17.71,26.03 18.51,30.81 C3.31,30.81 5,52.07 17.9,52.07 C22.5,52.07 35.78,52.07 35.78,52.07 C35.78,52.07 37.04,52.07 39.11,52.07 C39.11,54.98 39.11,54.98 39.11,54.98 C38.5,55.4 37.89,55.82 37.65,56.48 C25.41,56.48 25.41,56.48 25.41,56.48 C24.99,55.64 23.95,54.98 22.87,54.98 C21.42,54.98 20.2,56.06 20.2,57.51 C20.2,58.97 21.42,60 22.87,60 C23.95,60 24.99,59.39 25.41,58.36 C37.65,58.36 37.65,58.36 37.65,58.36 C38.08,59.39 38.92,60 40.19,60 C41.22,60 42.25,59.39 42.44,58.36 C54.97,58.36 54.97,58.36 54.97,58.36 C55.34,59.39 56.19,60 57.45,60 C58.67,60 59.94,58.97 59.94,57.51 C59.94,56.06 58.67,54.98 57.45,54.98 C56.19,54.98 55.34,55.64 54.97,56.48 C42.44,56.48 42.44,56.48 42.44,56.48 C42.25,55.82 41.64,55.4 41.22,54.98 C41.22,52.07 41.22,52.07 41.22,52.07 C46.19,52.07 53.7,52.07 58.3,52.07 Z M40.8,48.55 C40.19,48.74 40.19,48.74 40.19,48.74 C39.53,48.55 39.53,48.55 39.53,48.55 C33.95,46.25 30.38,41.04 30.38,35.23 C30.38,28.14 30.38,28.14 30.38,28.14 C36.62,26.69 36.62,26.69 36.62,26.69 C36.62,26.69 36.62,26.69 36.62,26.69 C40.19,26.03 40.19,26.03 40.19,26.03 C43.71,26.69 43.71,26.69 43.71,26.69 C43.71,26.69 43.71,26.69 43.71,26.69 C49.95,28.14 49.95,28.14 49.95,28.14 C49.95,35.23 49.95,35.23 49.95,35.23 C49.95,41.04 46.19,46.25 40.8,48.55 Z M0,40.02 C0,17.92 17.92,0 39.98,0 C62.22,0 79.91,17.92 79.91,40.02 C79.91,62.31 62.22,80 39.98,80 C17.92,80 0,62.31 0,40.02 Z" fill="none" stroke="currentColor" stroke-width="1.5"/></svg>