<svg xmlns="http://www.w3.org/2000/svg" viewBox="0 0 96.05 100.0" width="24" height="24"><path d="M46.76,6.43 C43.67,6.43 41.02,9.09 41.02,12.23 C41.02,15.58 43.67,17.97 46.76,17.97 C50.17,17.97 52.55,15.58 52.55,12.23 C52.55,9.09 50.17,6.43 46.76,6.43 Z M53.8,78.6 C53.8,79.79 54.99,80.77 56.18,80.77 C57.64,80.77 58.62,79.79 58.62,78.6 L58.62,65.61 L59.54,65.61 L60.03,80.55 L70.64,80.55 L71.34,65.61 L72.04,65.61 L72.04,78.6 C72.04,79.79 73.24,80.77 74.7,80.77 C75.89,80.77 76.86,79.79 76.86,78.6 L76.86,62.52 C76.86,60.09 74.7,57.7 72.04,57.7 L58.83,57.7 C58.47,57.7 58.12,57.76 57.77,57.84 L49.48,42.09 L51.64,42.09 L52.13,27.14 L53.1,27.14 L53.1,40.14 C53.1,41.33 54.02,42.3 55.48,42.3 C56.68,42.3 57.65,41.33 57.65,40.14 L57.65,24.06 C57.65,21.62 55.7,19.24 52.83,19.24 L39.4,19.24 C36.75,19.24 34.59,21.62 34.59,24.06 L34.59,40.14 C34.59,41.33 35.78,42.3 36.97,42.3 C38.43,42.3 39.4,41.33 39.4,40.14 L39.4,27.14 L40.32,27.14 L40.81,42.09 L42.99,42.09 L34.6,57.7 C34.6,57.7 34.59,57.7 34.59,57.7 L23.54,57.7 C21.11,57.7 19.21,60.09 19.21,62.52 L19.21,78.6 C19.21,79.79 20.19,80.77 21.38,80.77 C22.35,80.77 23.28,79.79 23.28,78.6 L23.28,65.61 L24.03,65.61 L24.52,80.55 L33.4,80.55 L33.89,65.61 L34.59,65.61 L34.59,78.6 C34.59,79.79 35.57,80.77 36.49,80.77 C37.73,80.77 38.43,79.79 38.43,78.6 L38.43,67.66 L53.8,67.66 Z M38.43,65.39 L38.43,62.52 C38.43,60.69 37.49,58.9 36.11,58.11 L44.7,42.09 L47.56,42.09 L56.46,58.37 C54.92,59.24 53.8,60.86 53.8,62.52 L53.8,65.39 Z M46.12,39.46 L46.12,39.45 M28.8,44.22 C25.71,44.22 23.06,46.87 23.06,50.01 C23.06,53.37 25.71,55.75 28.8,55.75 C32.21,55.75 34.59,53.37 34.59,50.01 C34.59,46.87 32.21,44.22 28.8,44.22 Z M64.76,44.22 C61.67,44.22 59.02,46.87 59.02,50.01 C59.02,53.37 61.67,55.75 64.76,55.75 C68.17,55.75 70.55,53.37 70.55,50.01 C70.55,46.87 68.17,44.22 64.76,44.22 Z M0,50.03 C0,22.58 21.6,0 48.02,0 C74.72,0 96.05,22.58 96.05,50.03 C96.05,77.64 74.72,100 48.02,100 C21.6,100 0,77.64 0,50.03 Z" fill="none" stroke="currentColor" stroke-width="1.5"/></svg>