<svg xmlns="http://www.w3.org/2000/svg" viewBox="0 0 80.0 80.0" width="24" height="24"><path d="M43.6,55.64 C42.08,55.64 40.84,56.87 40.84,58.4 C40.84,59.92 42.08,61.16 43.6,61.16 C45.13,61.16 46.36,59.92 46.36,58.4 C46.36,56.87 45.13,55.64 43.6,55.64 Z M41.69,37.05 L41.69,37.05 C40.19,37.18 38.77,37.52 37.51,38.1 C35.26,39.07 36.8,42.43 39,41.36 C40.59,40.63 43.17,40.36 45.84,40.75 C48.51,41.13 51.26,42.13 53.29,43.57 L53.35,43.61 L53.42,43.65 C55.64,44.94 57.56,47.09 58.92,49.36 C60.29,51.64 61.1,54.05 61.26,55.55 C61.5,57.93 65.06,57.56 64.82,55.18 C64.58,52.9 63.6,50.18 61.99,47.52 C60.4,44.87 58.16,42.3 55.28,40.6 C52.68,38.78 49.49,37.66 46.35,37.21 C44.76,36.98 43.18,36.91 41.69,37.05 Z M46.36,43.58 L46.36,43.58 C44.31,43.19 42.2,43.24 40.07,43.85 C37.87,44.42 38.8,47.72 40.97,47.06 C44.25,46.14 47.23,46.82 50.56,48.79 C53.18,50.71 54.84,53.5 55.33,56.2 C55.68,58.47 59.1,57.83 58.62,55.59 C57.95,52 55.83,48.47 52.47,46.03 L52.41,45.99 L52.35,45.95 C50.41,44.8 48.41,43.97 46.36,43.58 Z M48.39,50.65 L48.39,50.65 C47.31,49.9 46.02,49.37 44.68,49.14 C43.31,48.91 41.88,48.96 40.55,49.37 C38.65,49.95 39.53,52.81 41.43,52.22 C42.92,51.77 45.46,52.22 46.73,53.12 L46.78,53.15 L46.84,53.18 C48.6,54.21 49.89,56.4 50.14,57.83 C50.48,59.79 53.42,59.27 53.08,57.31 C52.65,54.89 51.03,52.22 48.39,50.65 Z M20.38,9.03 C19.6,9.07 18.89,9.21 18.35,9.36 C17.46,9.66 17.09,9.52 16.16,9.49 C15.83,9.49 15.43,9.49 15.1,9.52 C14.34,9.69 13.18,10.55 12.78,12.07 C12.38,13.49 12.91,17.57 12.95,17.93 C13.25,21.31 14.74,24.09 16.76,25.32 C16.66,25.51 16.43,25.75 16.23,25.85 C15.9,26.11 15.53,26.44 15.27,26.64 C14.34,27.4 13.28,27.83 11.99,28.2 C8.51,29.26 5.69,31.94 5.42,35.75 L4.76,44.99 C4.76,44.99 10.83,46.61 19.28,46.61 C21.93,46.61 24.42,46.44 26.48,46.21 L26.48,51.14 L26.48,64.3 L26.42,64.3 L23.66,64.3 C22.24,64.3 21.41,65.22 21.41,66.64 L21.41,68.1 C21.41,69.56 22.24,70.98 23.66,70.98 L72.97,70.98 C74.46,70.98 75.25,69.56 75.25,68.1 L75.25,66.64 C75.25,65.22 74.46,64.3 72.97,64.3 L70.28,64.3 L70.24,64.3 L70.24,33.07 C70.24,32.21 69.41,31.41 68.38,31.41 L52.07,31.41 L31.58,31.41 C30.35,29.75 28.57,28.63 26.48,28.2 C25.28,28 24.19,27.5 23.22,26.77 C22.93,26.54 22.6,26.31 22.17,26.08 C21.94,25.84 21.77,25.68 21.54,25.52 C23.76,24.19 25.48,21.08 25.58,17.44 C25.68,16.38 25.85,13.16 25.65,11.9 C25.48,10.71 25.12,10.91 24.82,10.71 C24.19,10.45 23.72,9.49 22.7,9.22 C21.97,9.03 21.15,8.98 20.38,9.03 Z M32.48,33.07 L52.07,33.07 L68.38,33.07 L68.58,33.07 L68.58,64.3 L68.39,64.3 L28.31,64.3 L28.17,64.3 L28.17,51.14 L28.17,46.05 C31.61,45.58 33.77,44.99 33.77,44.99 L33.11,35.75 C33.08,34.72 32.81,33.86 32.48,33.07 Z M60.37,66.01 L68.45,66.01 L70.28,66.01 L70.28,68.5 L60.37,68.5 Z M44.82,66.25 C45.45,66.25 45.88,66.81 45.88,67.47 C45.88,68.1 45.45,68.5 44.82,68.5 C44.19,68.5 43.56,68.1 43.56,67.47 C43.56,66.81 44.19,66.25 44.82,66.25 Z M48.33,66.25 C49,66.25 49.36,66.81 49.36,67.47 C49.36,68.1 49,68.5 48.33,68.5 C47.7,68.5 47.07,68.1 47.07,67.47 C47.07,66.81 47.7,66.25 48.33,66.25 Z M51.88,66.25 C52.47,66.25 52.91,66.81 52.91,67.47 C52.91,68.1 52.47,68.5 51.88,68.5 C51.25,68.5 50.59,68.1 50.59,67.47 C50.59,66.81 51.25,66.25 51.88,66.25 Z M16.18,0 C63.99,0 63.99,0 63.99,0 C72.81,0 80,7.35 80,16.16 C80,63.97 80,63.97 80,63.97 C80,72.78 72.81,80 63.99,80 C16.18,80 16.18,80 16.18,80 C7.36,80 0,72.78 0,63.97 C0,16.16 0,16.16 0,16.16 C0,7.35 7.36,0 16.18,0 Z" fill="none" stroke="currentColor" stroke-width="1.5"/></svg>