<svg xmlns="http://www.w3.org/2000/svg" viewBox="0 0 17.74 17.76" width="24" height="24"><path d="M8.87,3.19 C5.55,3.19 2.13,3.95 2.13,5.37 C2.13,12.39 2.13,12.39 2.13,12.39 C2.13,13.81 5.55,14.56 8.87,14.56 C12.24,14.56 15.62,13.81 15.62,12.39 C15.62,5.37 15.62,5.37 15.62,5.37 C15.62,3.95 12.24,3.19 8.87,3.19 Z M8.87,4.08 C12.47,4.08 14.68,4.93 14.68,5.37 C14.68,5.86 12.6,6.7 8.87,6.7 C5.15,6.7 3.11,5.86 3.11,5.37 C3.11,4.93 5.28,4.08 8.87,4.08 Z M8.87,13.72 C5.15,13.72 3.11,12.83 3.11,12.39 C3.11,6.57 3.11,6.57 3.11,6.57 C4.35,7.23 6.65,7.59 8.87,7.59 C11.14,7.59 13.44,7.23 14.68,6.57 C14.68,12.39 14.68,12.39 14.68,12.39 C14.68,12.83 12.6,13.72 8.87,13.72 Z M0,8.88 C0,4 3.99,0 8.87,0 C13.8,0 17.74,4 17.74,8.88 C17.74,13.81 13.8,17.76 8.87,17.76 C3.99,17.76 0,13.81 0,8.88 Z" fill="none" stroke="currentColor" stroke-width="1.5"/></svg>