<svg xmlns="http://www.w3.org/2000/svg" viewBox="0 0 99.43 99.43" width="24" height="24"><path d="M36.25,31.82 C33.92,31.82 32,33.75 32,36.07 L32,52.63 C32,54.95 33.92,56.87 36.25,56.87 L63.28,56.87 C65.61,56.87 67.53,54.95 67.53,52.63 L67.53,36.07 C67.53,33.75 65.61,31.82 63.28,31.82 Z M36.25,34.82 L63.28,34.82 C64,34.82 64.53,35.36 64.53,36.07 L64.53,52.63 C64.53,53.34 64,53.87 63.28,53.87 L36.25,53.87 C35.53,53.87 35,53.34 35,52.63 L35,36.07 C35,35.36 35.53,34.82 36.25,34.82 Z M36.25,59.19 C33.92,59.19 32,61.11 32,63.44 L32,63.46 C32,65.79 33.92,67.71 36.25,67.71 L63.28,67.71 C65.61,67.71 67.53,65.79 67.53,63.46 L67.53,63.44 C67.53,61.11 65.61,59.19 63.28,59.19 Z M49.28,62.19 L63.28,62.19 C64,62.19 64.53,62.72 64.53,63.44 L64.53,63.46 C64.53,64.18 64,64.71 63.28,64.71 L49.28,64.71 C48.56,64.71 48.03,64.18 48.03,63.46 L48.03,63.44 C48.03,62.72 48.56,62.19 49.28,62.19 Z M49.71,0 L47.96,29.07 L51.46,29.07 L51.46,15.4 Z M79.17,12.22 L67.43,29.46 C68.54,29.96 69.38,30.92 69.74,32.1 L75.18,26.64 Z M19.9,12.33 L29.35,31.89 C29.77,30.75 30.66,29.83 31.79,29.38 L26.64,24.25 Z M7.8,41.91 L29.08,51.47 L29.08,47.97 L15.4,47.97 Z M91.63,41.91 L69.95,47.97 L69.95,51.47 L84.03,51.47 Z M69.74,67.2 C69.37,68.37 68.53,69.33 67.42,69.83 L72.79,75.18 Z M29.42,67.6 L24.25,72.79 L32,69.97 C30.84,69.58 29.89,68.72 29.42,67.6 Z M47.96,70.21 L47.96,84.03 L51.46,70.21 Z" fill="none" stroke="currentColor" stroke-width="1.5"/></svg>