<svg xmlns="http://www.w3.org/2000/svg" viewBox="0 0 80.0 80.0" width="24" height="24"><path d="M16.18,0 C63.99,0 63.99,0 63.99,0 C72.81,0 80,7.35 80,16.16 C80,63.97 80,63.97 80,63.97 C80,72.78 72.81,80 63.99,80 C16.18,80 16.18,80 16.18,80 C7.36,80 0,72.78 0,63.97 C0,16.16 0,16.16 0,16.16 C0,7.35 7.36,0 16.18,0 Z M38.48,55.72 L38.48,66.57 L41.48,55.72 Z M24.03,53.76 L20.07,57.74 L26.37,55.65 C25.32,55.44 24.45,54.72 24.03,53.76 Z M55.68,53.32 C55.4,54.36 54.64,55.17 53.64,55.52 L57.89,59.74 Z M72.56,33.8 L55.81,38.35 L55.81,41.35 L66.7,41.35 Z M7.4,33.8 L23.76,41.35 L23.76,38.35 L13.26,38.35 Z M16.73,10.85 L23.9,26.02 C24.2,25 24.97,24.19 25.98,23.85 L22.07,19.97 Z M62.85,10.7 L53.74,23.9 C54.72,24.28 55.47,25.12 55.72,26.16 L59.88,21.97 Z M39.98,1.22 L38.48,23.67 L41.48,23.67 L41.48,13.14 Z M29.99,27.9 L50.45,27.9 C51.22,27.9 51.82,28.49 51.82,29.27 L51.82,41.86 C51.82,42.64 51.22,43.23 50.45,43.23 L29.99,43.23 C29.21,43.23 28.62,42.64 28.62,41.86 L28.62,29.27 C28.62,28.49 29.21,27.9 29.99,27.9 Z M29.99,25.65 C28,25.65 26.37,27.28 26.37,29.27 L26.37,41.86 C26.37,43.85 28,45.48 29.99,45.48 L50.45,45.48 C52.43,45.48 54.07,43.85 54.07,41.86 L54.07,29.27 C54.07,27.28 52.43,25.65 50.45,25.65 Z M28.8,47.04 C27.42,47.04 26.31,48.15 26.31,49.53 L26.31,51.46 C26.31,52.84 27.42,53.95 28.8,53.95 L51.58,53.95 C52.96,53.95 54.07,52.84 54.07,51.46 L54.07,49.53 C54.07,48.15 52.96,47.04 51.58,47.04 Z M39.84,49.27 L50.98,49.27 C51.59,49.27 52.08,49.76 52.08,50.38 L52.08,50.74 C52.08,51.35 51.59,51.85 50.98,51.85 L39.84,51.85 C39.22,51.85 38.73,51.35 38.73,50.74 L38.73,50.38 C38.73,49.76 39.22,49.27 39.84,49.27 Z M34.4,30.18 L34.4,34.45 C34.4,37.45 36.46,40.69 40.04,42.24 C43.67,40.79 45.91,37.55 45.91,34.01 L45.91,30.19 L43.63,29.75 L43.63,30.51 L41.44,29.99 L41.46,29.21 L40.09,28.94 L38.69,29.25 L38.69,29.98 L36.51,30.52 L36.51,29.77 Z M37.31,38.21 L37.31,38.21 C36.67,37.22 35.92,35.92 35.92,34.13 L35.92,32.27 L40.14,31.29 L43.78,32.08 Z M37.88,38.96 L44.26,32.91 L44.26,33.61 C44.26,36.7 42.63,39.3 40.05,40.45 Z" fill="none" stroke="currentColor" stroke-width="1.5"/></svg>