<svg xmlns="http://www.w3.org/2000/svg" viewBox="0 0 104.48 106.29" width="24" height="24"><path d="M51.33,0 C24.84,0 0,23.42 0,52.2 C0,86.26 27.56,106.29 52.35,106.29 C82.81,106.29 104.48,80.54 104.48,53.65 C104.48,24.03 81.95,0 51.33,0 Z M51.77,10.24 C77.27,10.24 96.29,30.44 95.91,53.87 L95.88,55.38 L85.11,53.02 L84.77,54.66 L81.83,54.71 L81.41,53.01 L69.73,55.45 L69.73,47.27 C69.73,46.55 69.29,45.94 68.49,45.94 L36.09,45.94 C35.43,45.94 34.85,46.54 34.85,47.13 L34.85,60.84 C34.85,61.42 35.37,61.99 36.05,61.99 L68.21,61.99 L68.14,58.7 L73.72,57.49 L73.72,59.46 L79.75,58.08 L79.73,56.13 L83.27,55.3 L86.77,56.1 L86.76,58.02 L92.76,59.55 L92.77,57.47 L98.38,58.65 L98.39,70.08 C98.39,79.19 92.5,88.35 83.21,92.06 C81.49,91.39 79.73,90.41 78.14,89.29 C70.84,95.1 62.03,97.65 52.13,97.65 C27.96,97.65 8.49,78.07 8.49,52.86 C8.49,28.62 30.22,10.24 51.77,10.24 Z M50.88,16.01 C45.74,20.47 41.27,25.84 38.26,33.29 C42.3,34.62 46.46,35.47 50.88,35.54 Z M53.82,16.04 L53.82,35.61 C58.44,35.54 62.55,34.56 66.5,33.25 C63.26,25.71 58.9,20.2 53.82,16.04 Z M58.59,16.41 C62.77,20.71 66.36,25.88 69.08,32.31 C72.01,31.15 75.85,28.9 78.85,26.72 C73.22,21.4 65.19,17.36 58.59,16.41 Z M46.07,16.48 C40.4,17.58 33.08,19.79 25.92,26.79 C28.69,28.84 31.97,30.65 35.61,32.31 C37.7,26.73 41.27,21.47 46.07,16.48 Z M80.73,28.68 C76.93,31.53 73.3,33.89 70.17,34.81 C71.19,38.03 71.88,40.63 72.42,42.98 C73.21,43.79 74.21,44.98 74.22,47.37 L74.22,52.49 L90.28,52.49 C89.87,43.5 86.73,36.1 80.73,28.68 Z M23.96,28.75 C17.92,35.55 14.64,44.07 14.48,52.49 L30.33,52.53 L30.33,47.55 C30.28,45.38 31.1,44.05 32.34,42.84 C32.93,39.78 33.71,37.31 34.49,34.81 C31.54,33.67 27.35,31.55 23.96,28.75 Z M37.1,35.87 C36.27,38.21 35.86,39.85 35.5,41.44 L50.88,41.44 L50.88,38.37 C45.42,38.26 40.92,37.33 37.1,35.87 Z M67.56,35.87 C63.58,37.34 59.23,38.43 53.82,38.37 L53.82,41.44 L69.19,41.44 C68.76,39.57 68.27,37.73 67.56,35.87 Z M60.98,48.84 C61.55,48.86 62.14,48.97 62.67,49.18 C63.72,49.7 64.06,50.53 64.1,51.45 L62.39,51.52 C62.27,51.01 62.11,50.52 61.36,50.34 C60.92,50.25 60.2,50.26 59.62,50.57 C59.32,50.79 59.24,51.32 59.54,51.59 C60.26,52.21 61.8,52.19 62.99,52.78 C64.24,53.39 64.52,54.71 64.28,55.68 C63.96,56.89 63.08,57.73 60.77,57.74 C58.11,57.64 57.55,56.06 57.38,54.79 L59.06,54.62 C59.23,55.6 59.73,56.01 60.37,56.21 C61.26,56.31 61.94,56.24 62.37,55.75 C62.66,55.37 62.88,54.57 61.93,54.23 C61.13,53.93 59.25,53.69 58.43,52.94 C57.32,51.86 57.56,50.32 58.48,49.51 C59.09,49.05 60.02,48.82 60.98,48.84 Z M40.49,48.99 L43.84,48.99 C46.96,48.93 47.74,51.33 47.69,53.39 C47.68,55.81 46.55,57.66 43.93,57.58 L40.49,57.58 Z M49.17,48.99 L50.86,48.99 L54.37,54.71 L54.37,48.99 L55.99,48.99 L55.99,57.58 L54.25,57.58 L50.79,51.99 L50.79,57.58 L49.17,57.58 Z M42.23,50.45 L42.23,56.14 L44.21,56.11 C45.21,56.04 45.57,55.45 45.75,54.71 C45.9,53.91 45.97,53.05 45.8,52.05 C45.5,50.77 44.65,50.54 44.04,50.48 Z M30.33,55.47 L14.38,55.51 C14.85,66.71 20.06,75.48 25.59,80.88 C28.79,78.65 32.11,76.93 35.5,75.47 C34.05,72.02 33.2,69.12 32.34,65.12 C31.02,63.85 30.29,62.77 30.33,59.9 Z M83.2,61.67 L72.2,64.29 L72.27,70.13 C72.27,74.44 73.79,78.08 75.96,81.02 L93.1,63.92 Z M94.16,66.25 L77.49,82.89 C79.23,84.78 81.2,86.32 83.1,87.48 C89.34,83.99 94.12,77.82 94.12,70.14 Z M35.58,66.5 C36.14,69.36 37.15,71.94 38.15,74.53 C41.57,73.57 45.17,72.55 50.88,72.38 L50.88,66.5 Z M53.82,66.5 L53.82,72.35 C58.14,72.55 62.37,73.22 66.5,74.49 C67.8,71.56 68.59,68.95 69.12,66.5 Z M53.82,75.25 L53.82,92.02 C58.3,88.35 62.21,83.49 65.34,77.1 C61.68,76.02 57.87,75.28 53.82,75.25 Z M50.88,75.29 C46.49,75.37 42.72,76.03 39.39,77.07 C42.21,83.06 45.93,88.16 50.88,92.02 Z M36.7,78.08 C33.69,79.34 30.68,80.7 27.66,82.91 C33.2,87.66 39.65,90.3 46.07,91.59 C42.62,87.84 39.29,83.84 36.7,78.08 Z M67.99,78.08 C65.68,83.11 62.31,87.76 58.66,91.59 C63.51,90.75 69.4,88.35 73.89,85.25 C72.16,83.2 71.05,81.52 70.1,78.96 C69.41,78.64 68.71,78.35 67.99,78.08 Z" fill="none" stroke="currentColor" stroke-width="1.5"/></svg>