<svg xmlns="http://www.w3.org/2000/svg" viewBox="0 0 79.91 80.0" width="24" height="24"><path d="M58.46,37.11 C58.46,38.24 59.09,39.05 59.68,39.05 C60.35,39.05 60.9,38.24 60.9,37.11 C60.9,36.07 60.35,35.17 59.68,35.17 C59.09,35.17 58.46,36.07 58.46,37.11 Z M57.54,29.71 C57.54,30.83 58.18,31.65 58.76,31.65 C59.44,31.65 59.98,30.83 59.98,29.71 C59.98,28.67 59.44,27.76 58.76,27.76 C58.18,27.76 57.54,28.67 57.54,29.71 Z M46.29,29.73 C46.29,28.33 45.92,27.7 45.29,27.7 L45.16,27.7 C44.98,28.33 44.98,29.05 44.98,29.73 C44.98,30.36 44.98,30.9 45.16,31.58 L45.29,31.58 C45.92,31.58 46.29,31.08 46.29,29.73 Z M50.46,24.11 C51,24.11 51.36,23.3 51.36,22.17 C51.36,21.13 51,20.23 50.46,20.23 C50.01,20.23 49.56,21.13 49.56,22.17 C49.56,23.3 50.01,24.11 50.46,24.11 Z M59.81,24.05 C60.44,24.05 60.8,23.23 60.8,22.11 C60.8,21.07 60.44,20.16 59.81,20.16 C59.26,20.16 58.77,21.07 58.77,22.11 C58.77,23.23 59.26,24.05 59.81,24.05 Z M67.52,31.68 C68.2,31.68 68.74,30.87 68.74,29.74 C68.74,28.7 68.2,27.8 67.52,27.8 C66.93,27.8 66.3,28.7 66.3,29.74 C66.3,30.87 66.93,31.68 67.52,31.68 Z M63.89,32.09 L62.99,32.09 L62.99,28.93 L61.72,28.93 L61.72,28.21 C62.18,28.21 62.45,28.16 62.67,27.89 C62.9,27.89 63.08,27.66 63.08,27.26 L63.89,27.26 Z M61.32,23.96 C60.91,24.41 60.51,24.68 59.87,24.68 C59.2,24.68 58.74,24.41 58.38,24.05 C58.07,23.65 57.98,22.97 57.98,22.25 C57.98,21.43 58.07,20.8 58.38,20.39 C58.79,19.99 59.2,19.76 59.87,19.76 C60.51,19.76 60.91,19.99 61.23,20.39 C61.54,20.8 61.72,21.43 61.72,22.25 C61.72,22.97 61.54,23.56 61.32,23.96 Z M61.14,38.95 C60.82,39.49 60.32,39.67 59.69,39.67 C59.06,39.67 58.65,39.49 58.25,38.95 C57.98,38.54 57.84,38 57.84,37.19 C57.84,36.38 57.98,35.79 58.25,35.38 C58.65,34.84 59.06,34.66 59.69,34.66 C60.32,34.66 60.73,34.84 61.14,35.38 C61.45,35.79 61.54,36.38 61.54,37.19 C61.54,37.91 61.45,38.54 61.14,38.95 Z M57.25,31.55 C57.03,31.14 56.89,30.42 56.89,29.7 C56.89,28.93 57.03,28.39 57.25,27.89 C57.66,27.44 58.07,27.17 58.74,27.17 C59.38,27.17 59.87,27.44 60.19,27.89 C60.51,28.39 60.64,28.93 60.64,29.7 C60.64,30.42 60.51,31.05 60.19,31.55 C59.87,31.95 59.38,32.27 58.74,32.27 C58.07,32.27 57.66,31.95 57.25,31.55 Z M56.08,24.68 L55,24.68 L55,21.43 L53.82,21.43 L53.82,20.71 C54.23,20.71 54.64,20.71 54.86,20.49 C54.95,20.3 55.09,20.08 55.18,19.85 L56.08,19.85 Z M55.9,39.58 L54.86,39.58 L54.86,36.38 L53.64,36.38 L53.64,35.65 C54.05,35.65 54.46,35.56 54.68,35.47 C54.86,35.34 54.95,35.07 55,34.84 L55.9,34.84 Z M52.42,31.55 C52.11,31.14 52.02,30.42 52.02,29.7 C52.02,28.93 52.11,28.39 52.51,27.89 C52.83,27.44 53.24,27.17 53.87,27.17 C54.55,27.17 54.95,27.44 55.36,27.89 C55.67,28.39 55.76,28.93 55.76,29.7 C55.76,30.42 55.67,31.05 55.36,31.55 C55,31.95 54.55,32.27 53.87,32.27 C53.24,32.27 52.83,31.95 52.42,31.55 Z M50.53,32.09 L49.44,32.09 L49.44,28.93 L48.27,28.93 L48.27,28.21 C48.68,28.21 48.99,28.16 49.22,27.89 C49.4,27.89 49.53,27.66 49.72,27.26 L50.53,27.26 Z M65.97,31.55 C65.65,31.14 65.47,30.42 65.47,29.7 C65.47,28.93 65.65,28.39 65.97,27.89 C66.28,27.44 66.78,27.17 67.41,27.17 C67.73,27.17 68.09,27.26 68.32,27.44 C68.32,27.35 68.23,27.26 68.23,27.26 C68.23,26.94 68.14,26.63 68.09,26.31 C67.82,25.5 67.5,24.82 67.19,24.19 C66.96,23.87 66.69,23.56 66.6,23.24 C66.19,22.74 65.83,22.25 65.43,21.79 L65.43,24.68 L64.34,24.68 L64.34,21.43 L63.08,21.43 L63.08,20.71 C63.49,20.71 63.8,20.71 64.03,20.58 C62.04,19.04 59.51,18.05 56.71,18.05 C54.55,18.05 52.42,18.72 50.66,19.76 C51.25,19.76 51.57,19.99 51.88,20.39 C52.29,20.8 52.38,21.43 52.38,22.25 C52.38,22.97 52.29,23.56 51.97,23.96 C51.57,24.41 51.16,24.68 50.53,24.68 C49.85,24.68 49.4,24.41 49.04,24.05 C48.72,23.65 48.5,22.97 48.5,22.25 C48.5,21.84 48.68,21.43 48.72,21.21 C48.09,21.84 47.46,22.52 46.87,23.24 C46.74,23.56 46.56,23.87 46.33,24.19 C46.33,24.19 46.15,24.59 46.15,24.68 C45.83,25.18 45.61,25.72 45.52,26.31 C45.34,26.63 45.29,26.85 45.11,27.17 L45.29,27.17 C45.83,27.17 46.33,27.44 46.65,27.89 C47.05,28.39 47.14,28.93 47.14,29.7 C47.14,30.42 47.05,31.05 46.74,31.55 C46.33,31.95 45.92,32.27 45.29,32.27 C45.29,32.36 45.29,32.4 45.34,32.58 C45.52,33.4 45.74,34.12 46.15,34.84 C46.15,34.84 46.42,35.38 46.56,35.56 C46.65,35.74 46.78,35.97 46.87,36.2 C47.19,36.69 47.59,37.1 47.91,37.51 C48.09,37.6 48.27,37.73 48.32,37.91 L48.5,38.05 L48.5,37.19 C48.5,36.38 48.68,35.79 48.9,35.38 C49.31,34.84 49.72,34.66 50.35,34.66 C50.98,34.66 51.48,34.84 51.7,35.38 C52.11,35.79 52.29,36.38 52.29,37.19 C52.29,37.91 52.11,38.54 51.79,38.95 C51.48,39.27 51.16,39.58 50.66,39.67 C50.98,39.85 51.3,39.99 51.66,40.26 C51.97,40.3 52.29,40.49 52.69,40.62 C53.15,40.71 53.82,40.98 54.37,41.03 C54.68,41.12 55.18,41.21 55.49,41.21 C55.9,41.21 56.31,41.3 56.71,41.3 C57.12,41.3 57.53,41.21 57.98,41.21 C58.34,41.21 58.74,41.12 59.11,41.03 C59.69,40.98 60.23,40.71 60.82,40.62 C61.14,40.49 61.45,40.3 61.86,40.26 C62.45,39.9 63.08,39.49 63.58,39.18 C63.49,39.13 63.39,39.04 63.3,38.95 C63.08,38.54 62.9,38 62.9,37.19 C62.9,36.38 63.08,35.79 63.39,35.38 C63.71,34.84 64.12,34.66 64.84,34.66 C65.43,34.66 65.83,34.84 66.19,35.38 C66.37,35.56 66.46,35.88 66.6,36.2 C67.28,35.07 67.82,33.85 68.23,32.58 L68.23,32.09 C68.32,32.09 68.32,32 68.32,31.95 C68.09,32.09 67.73,32.27 67.41,32.27 C66.78,32.27 66.28,31.95 65.97,31.55 Z M50.3,39.05 C50.89,39.05 51.25,38.24 51.25,37.11 C51.25,36.07 50.89,35.17 50.3,35.17 C49.81,35.17 49.35,36.07 49.35,37.11 C49.35,38.24 49.81,39.05 50.3,39.05 Z M53.85,31.68 C54.48,31.68 54.93,30.87 54.93,29.74 C54.93,28.7 54.48,27.8 53.85,27.8 C53.31,27.8 52.77,28.7 52.77,29.74 C52.77,30.87 53.31,31.68 53.85,31.68 Z M64.79,35.03 C64.12,35.03 63.76,35.76 63.76,37.11 C63.76,38.01 63.98,38.65 64.21,38.92 C64.57,38.65 64.79,38.42 65.11,38.01 C65.25,37.92 65.34,37.7 65.47,37.61 C65.56,37.52 65.56,37.47 65.56,37.38 L65.56,37.11 C65.56,35.76 65.34,35.03 64.79,35.03 Z M36.48,47.49 C36.25,47.67 35.76,47.8 35.53,47.8 C35.13,47.8 34.72,47.67 34.63,47.49 L29.71,43.87 L14.18,58.55 C15.22,59.04 16.25,59.36 17.47,59.36 L53.59,59.36 C54.67,59.36 55.76,59.04 56.71,58.55 L41.4,43.87 Z M57.28,43.14 C53.57,43.14 50.37,41.43 47.93,38.72 L43.82,41.93 L58.58,56.78 C59.04,56.06 59.31,55.24 59.31,54.25 L59.31,42.96 C58.63,43.05 58,43.14 57.28,43.14 Z M12.5,30.95 C11.92,31.77 11.6,32.76 11.6,33.71 L11.6,54.34 C11.6,55.24 11.92,56.06 12.23,56.78 L27.09,42.24 Z M45.1,37.09 C43.75,34.69 42.94,31.76 42.94,28.64 L42.94,28.37 L16.98,28.37 C15.85,28.37 14.99,28.64 14.18,29.05 L34.81,45.17 Z M0,40 C0,17.97 17.97,0 39.95,0 C62.03,0 79.91,17.97 79.91,40 C79.91,62.08 62.03,80 39.95,80 C17.97,80 0,62.08 0,40 Z" fill="none" stroke="currentColor" stroke-width="1.5"/></svg>