<svg xmlns="http://www.w3.org/2000/svg" viewBox="0 0 80.0 80.0" width="24" height="24"><path d="M20.15,15.47 C18.1,15.47 16.47,17.1 16.47,19.02 L16.47,37.96 C16.47,39.88 18.1,41.37 20.15,41.37 L25.72,41.37 C25.46,40.77 25.29,40.18 25.29,39.45 L20.15,39.45 C19.42,39.45 18.69,38.85 18.69,37.96 L18.69,19.02 L18.69,18.85 L35.94,27.86 C30.14,29.5 25.89,34.45 25.89,40.32 C25.89,47.37 32.22,53.13 40.01,53.13 C47.41,53.13 53.48,47.93 54.07,41.37 L57.65,41.37 C59.57,41.37 61.2,39.88 61.2,37.96 L61.2,19.02 C61.2,17.1 59.57,15.47 57.65,15.47 L20.15,15.47 Z M20.75,17.53 L57.65,17.53 C57.65,17.53 57.82,17.53 57.95,17.69 L38.98,27.1 L20.75,17.53 Z M59.11,19.28 L59.11,37.96 C59.11,38.85 58.38,39.45 57.65,39.45 L54.08,39.45 C53.66,33.54 48.98,28.67 42.84,27.5 L59.11,19.28 Z M10.14,25.01 C9.92,25.01 9.7,25.12 9.55,25.33 L9.41,25.47 C9.12,25.76 9.12,26.36 9.41,26.66 L11.34,28.71 L4.7,28.71 L4.7,30.63 L11.34,30.63 L9.41,32.68 C9.12,32.98 9.12,33.58 9.41,33.84 L9.55,34.01 C9.85,34.31 10.44,34.31 10.74,34.01 L13.82,30.46 C13.95,30.46 13.96,30.33 13.96,30.33 C14.12,30.17 14.12,30.03 14.12,29.73 L14.12,29.6 C14.12,29.31 14.12,29.01 13.96,28.84 L13.82,28.84 L10.74,25.33 C10.59,25.12 10.37,25.01 10.14,25.01 Z M69.95,25.01 C69.74,25.01 69.55,25.12 69.4,25.33 L66.32,28.84 L66.18,28.84 C66.02,29.01 65.89,29.31 65.89,29.6 L65.89,29.73 C65.89,30.03 66.02,30.17 66.18,30.33 C66.18,30.33 66.19,30.46 66.32,30.46 L69.4,34.01 C69.7,34.31 70.17,34.31 70.6,34.01 L70.6,33.84 C70.9,33.58 70.9,32.98 70.6,32.68 L68.84,30.63 L75.3,30.63 L75.3,28.71 L68.84,28.71 L70.6,26.66 C70.9,26.36 70.9,25.76 70.6,25.47 L70.6,25.33 C70.38,25.12 70.16,25.01 69.95,25.01 Z M40.01,30.48 C45.88,30.48 50.75,34.89 50.75,40.32 C50.75,45.62 45.88,50.02 40.01,50.02 C34.11,50.02 29.4,45.62 29.4,40.32 C29.4,34.89 34.11,30.48 40.01,30.48 Z M24.49,51.12 C23.61,51.12 22.72,51.5 22.06,52.24 L15.59,58.7 C14.14,60.02 14.14,62.24 15.59,63.57 C16.92,64.89 19.11,64.89 20.43,63.57 L26.93,57.07 C28.22,55.75 28.22,53.56 26.93,52.24 C26.27,51.5 25.38,51.12 24.49,51.12 Z M16.18,0 C63.99,0 63.99,0 63.99,0 C72.81,0 80,7.35 80,16.16 C80,63.97 80,63.97 80,63.97 C80,72.78 72.81,80 63.99,80 C16.18,80 16.18,80 16.18,80 C7.36,80 0,72.78 0,63.97 C0,16.16 0,16.16 0,16.16 C0,7.35 7.36,0 16.18,0 Z" fill="none" stroke="currentColor" stroke-width="1.5"/></svg>