<svg xmlns="http://www.w3.org/2000/svg" viewBox="0 0 80.15 69.46" width="24" height="24"><path d="M20.94,0 L0.29,33.83 L19.56,68.61 L59.02,69.4 L79.86,35.44 L60.66,0.8 L20.94,0 Z M21.86,3.2 L58.36,3.2 L76.62,34.64 L58.36,66.2 L21.86,66.2 L3.52,34.64 L21.86,3.2 Z M38.6,17.09 C35.94,17.09 33.4,18.08 31.48,20.02 C29.74,21.75 28.61,24.23 28.61,26.83 C28.61,27.16 28.61,27.43 28.67,27.63 L20.48,36.7 L13.4,36.7 C12.27,36.7 11.81,38.78 11.81,40.78 C11.81,42.72 12.27,44.85 13.4,44.85 L34.14,44.85 L34.14,43.38 L24.61,43.38 L25.68,42.17 L32.34,42.17 L32.34,40.64 L27,40.64 L32.61,34.57 C34.28,35.77 36.27,36.51 38.6,36.51 C41.01,36.51 43.34,35.7 45.14,34.16 L51,40.64 L48.07,40.64 L48.07,42.17 L52.42,42.17 L53.48,43.38 L49.94,43.38 L49.94,44.85 L64.68,44.85 C65.81,44.85 66.21,42.72 66.21,40.78 C66.21,38.78 65.81,36.7 64.68,36.7 L57.61,36.7 L48.48,26.75 C48.48,21.42 44.01,17.09 38.6,17.09 Z M38.6,18.49 C40.54,18.49 42.41,19.09 43.88,20.29 C43.74,20.29 43.55,20.35 43.28,20.35 L43.28,20.89 L44.21,20.89 L44.21,23.16 L44.81,23.16 L44.81,21.09 C45.2,21.42 45.47,21.75 45.74,22.15 C45.88,22.43 45.94,22.62 46.15,22.89 C46.4,23.3 46.67,23.76 46.81,24.42 C46.87,24.56 46.94,24.83 46.94,25.09 C46.94,25.09 47.08,25.09 47.08,25.22 C46.87,25.09 46.61,25.02 46.34,25.02 C45.88,25.02 45.55,25.22 45.28,25.49 C45.14,25.82 44.95,26.29 44.95,26.83 C44.95,27.43 45.14,27.82 45.28,28.17 C45.55,28.5 45.88,28.69 46.34,28.69 C46.61,28.69 46.87,28.63 47.08,28.5 L46.94,28.63 C46.94,28.69 46.94,28.77 46.87,28.9 C46.67,29.9 46.21,30.77 45.74,31.56 C45.68,31.29 45.55,31.1 45.47,30.96 C45.2,30.69 44.81,30.43 44.34,30.43 C44.01,30.43 43.61,30.69 43.41,30.96 C43.14,31.29 43.08,31.76 43.08,32.3 C43.08,32.83 43.14,33.31 43.34,33.56 L43.55,33.77 C43.14,34.03 42.68,34.3 42.35,34.43 C42.08,34.57 41.75,34.63 41.47,34.84 C41.14,34.9 40.74,34.97 40.27,35.09 C40,35.17 39.74,35.23 39.47,35.23 L38.6,35.23 L37.67,35.23 C37.4,35.23 37.07,35.17 36.87,35.09 C36.41,34.97 35.94,34.9 35.54,34.84 C35.27,34.63 35.01,34.57 34.8,34.43 C34.61,34.37 34.34,34.16 34.14,34.1 C34.47,34.03 34.74,33.83 34.94,33.56 C35.21,33.31 35.27,32.83 35.27,32.3 C35.27,31.76 35.21,31.29 34.94,30.96 C34.61,30.69 34.33,30.43 33.87,30.43 C33.4,30.43 33.07,30.69 32.88,30.96 C32.61,31.29 32.47,31.76 32.47,32.3 C32.47,32.49 32.61,32.63 32.61,32.83 L32.43,32.77 L32.34,32.63 L32.41,32.76 L32.14,32.49 C31.94,32.24 31.68,31.97 31.48,31.56 C31.27,31.43 31.21,31.23 31.13,31.1 C31.01,30.96 30.8,30.5 30.8,30.5 C30.55,30.03 30.34,29.49 30.2,28.9 C30.2,28.9 30.2,28.69 30.07,28.69 L30.2,28.69 C30.67,28.69 31.01,28.5 31.21,28.17 C31.48,27.82 31.61,27.43 31.61,26.83 C31.61,26.29 31.48,25.9 31.21,25.55 C31.01,25.22 30.55,25.02 30.2,25.02 L30.07,25.02 C30.2,24.75 30.28,24.56 30.34,24.42 C30.47,23.96 30.55,23.49 30.8,23.16 C30.8,23.03 31.01,22.89 31.01,22.89 C31.13,22.62 31.21,22.43 31.48,22.15 C31.74,21.63 32.2,21.09 32.67,20.62 C32.61,20.89 32.61,21.09 32.61,21.42 C32.61,21.96 32.8,22.42 32.94,22.69 C33.27,23.03 33.54,23.22 34,23.22 C34.47,23.22 34.8,23.03 35.01,22.69 C35.27,22.42 35.4,21.96 35.4,21.42 C35.4,20.89 35.27,20.43 35.01,20.08 C34.8,19.83 34.55,19.62 34.14,19.55 C35.48,18.82 36.93,18.49 38.6,18.49 Z M37.68,19.23 C37.54,19.48 37.41,19.56 37.35,19.75 C37.08,19.83 36.87,19.89 36.34,19.89 L36.34,20.43 L37.54,20.43 L37.54,22.43 L38.48,22.43 L38.48,19.23 L37.68,19.23 Z M41.13,19.23 C40.55,19.23 40.2,19.42 39.87,19.69 C39.68,19.95 39.54,20.35 39.54,20.89 C39.54,21.36 39.68,21.69 39.87,21.96 C40.2,22.29 40.55,22.43 41.13,22.43 C41.68,22.43 42.14,22.29 42.47,21.96 C42.67,21.69 42.74,21.28 42.74,20.89 C42.74,20.35 42.67,19.95 42.47,19.69 C42.14,19.42 41.68,19.23 41.13,19.23 Z M41.13,19.83 C41.68,19.83 42.01,20.22 42.01,20.89 C42.01,21.61 41.68,21.88 41.13,21.88 C40.67,21.88 40.47,21.61 40.47,20.89 C40.47,20.22 40.67,19.83 41.13,19.83 Z M34,20.16 C34.34,20.16 34.61,20.62 34.61,21.42 C34.61,22.21 34.34,22.62 34,22.62 C33.54,22.62 33.34,22.21 33.34,21.42 C33.34,20.62 33.54,20.16 34,20.16 Z M33.8,24.56 C33.74,24.82 33.74,25.03 33.67,25.17 C33.55,25.23 33.41,25.36 33.14,25.36 L33.14,26.02 L33.74,26.02 L33.74,28.83 L34.21,28.83 L34.21,24.56 L33.8,24.56 Z M36.87,24.56 C36.34,24.56 36.07,24.82 35.74,25.09 C35.54,25.56 35.28,26.02 35.28,26.7 C35.28,27.3 35.54,27.83 35.74,28.23 C36.07,28.62 36.34,28.83 36.87,28.83 C37.41,28.83 37.74,28.62 38.07,28.23 C38.28,27.83 38.48,27.3 38.48,26.7 C38.48,26.02 38.28,25.56 38.07,25.23 C37.74,24.82 37.41,24.56 36.87,24.56 Z M40.61,24.56 C40.28,24.56 40.07,24.82 39.87,25.09 C39.74,25.56 39.54,26.02 39.54,26.7 C39.54,27.3 39.74,27.83 39.87,28.23 C40.07,28.62 40.28,28.83 40.61,28.83 C41.01,28.83 41.21,28.62 41.4,28.23 C41.54,27.83 41.67,27.3 41.67,26.7 C41.67,26.02 41.54,25.56 41.4,25.23 C41.21,24.82 41.01,24.56 40.61,24.56 Z M43.48,24.56 C43.4,24.82 43.34,25.03 43.27,25.17 C43.21,25.23 43.01,25.36 42.74,25.36 L42.74,26.02 L43.34,26.02 L43.34,28.83 L43.81,28.83 L43.81,24.56 L43.48,24.56 Z M36.87,25.28 C37.35,25.28 37.68,25.75 37.68,26.7 C37.68,27.63 37.35,28.16 36.87,28.16 C36.48,28.16 36.28,27.63 36.28,26.7 C36.28,25.75 36.48,25.28 36.87,25.28 Z M40.61,25.28 C40.94,25.28 41.07,25.75 41.07,26.7 C41.07,27.63 40.94,28.16 40.61,28.16 C40.34,28.16 40.14,27.63 40.14,26.7 C40.14,25.75 40.34,25.28 40.61,25.28 Z M30.01,25.63 L30.2,25.63 C30.55,25.63 30.8,26.03 30.8,26.83 C30.8,27.62 30.55,28.09 30.2,28.09 L30.01,28.09 C30.01,27.63 29.95,27.29 29.95,26.83 C29.95,26.42 30.01,26.03 30.01,25.63 Z M46.34,25.63 C46.81,25.63 46.94,26.03 46.94,26.83 C46.94,27.62 46.81,28.09 46.34,28.09 C45.94,28.09 45.74,27.62 45.74,26.83 C45.74,26.03 45.94,25.63 46.34,25.63 Z M41.21,29.9 C40.67,29.9 40.2,30.16 40.01,30.56 C39.68,30.97 39.54,31.36 39.54,32.1 C39.54,32.76 39.68,33.16 40.01,33.57 C40.2,33.96 40.67,34.17 41.21,34.17 C41.81,34.17 42.14,33.96 42.47,33.57 C42.67,33.16 42.74,32.76 42.74,32.1 C42.74,31.36 42.67,30.97 42.34,30.56 C42.14,30.16 41.68,29.9 41.21,29.9 Z M41.21,30.62 C41.68,30.62 41.87,31.17 41.87,32.1 C41.87,33.03 41.68,33.49 41.21,33.49 C40.67,33.49 40.47,33.03 40.47,32.1 C40.47,31.17 40.67,30.62 41.21,30.62 Z M37.74,30.97 C37.6,31.23 37.47,31.3 37.27,31.5 C37.14,31.57 36.75,31.63 36.34,31.63 L36.34,32.17 L37.47,32.17 L37.47,34.17 L38.48,34.17 L38.48,30.97 L37.74,30.97 Z M33.87,31.04 C34.33,31.04 34.54,31.5 34.54,32.3 C34.54,33.1 34.33,33.43 33.87,33.43 C33.4,33.43 33.27,33.1 33.27,32.3 C33.27,31.5 33.4,31.04 33.87,31.04 Z M44.34,31.04 C44.81,31.04 45.14,31.5 45.14,32.3 L45.14,32.36 C45.01,32.36 45.01,32.49 44.95,32.49 C44.81,32.63 44.74,32.63 44.68,32.83 C44.48,33.04 44.27,33.17 44.07,33.31 C43.88,33.1 43.8,32.83 43.8,32.3 C43.8,31.5 44.01,31.04 44.34,31.04 Z M13.4,37.5 C13.67,37.57 14.27,38.7 14.27,40.78 C14.27,42.85 13.67,43.98 13.4,44.04 C13.14,43.98 12.68,42.85 12.68,40.78 C12.68,38.7 13.14,37.57 13.4,37.5 Z M35.28,40.58 L35.28,42.71 L39.54,42.71 L39.54,40.58 L35.28,40.58 Z M41.67,40.58 L41.67,42.71 L45.94,42.71 L45.94,40.58 L41.67,40.58 Z M37.41,43.78 L37.41,44.85 L40.61,44.85 L40.61,43.78 L37.41,43.78 Z M43.81,43.78 L43.81,44.85 L47.01,44.85 L47.01,43.78 L43.81,43.78 Z" fill="none" stroke="currentColor" stroke-width="1.5"/></svg>