<svg xmlns="http://www.w3.org/2000/svg" viewBox="0 0 80.0 80.0" width="24" height="24"><path d="M24.79,24.28 C23.51,24.28 22.82,25.77 23.64,26.75 L34.67,39.82 L34.67,51.84 C34.67,52.18 34.79,52.51 35,52.77 L41.59,61.02 C42.47,62.13 44.26,61.5 44.26,60.09 L44.26,39.83 L55.38,26.75 C56.21,25.78 55.52,24.28 54.24,24.28 Z M28.02,27.28 L39.63,27.28 L39.63,53.76 L37.67,51.31 L37.67,39.27 C37.67,38.92 37.55,38.58 37.32,38.31 Z M38.5,10.07 C34.29,10.28 30.31,11.37 26.72,13.15 L28.91,17.06 C31.84,15.65 35.08,14.78 38.5,14.58 Z M41.5,10.07 L41.5,14.58 C44.92,14.78 48.16,15.65 51.09,17.06 L53.28,13.14 C49.7,11.37 45.71,10.28 41.5,10.07 Z M55.89,14.61 L53.71,18.53 C56.83,20.52 59.48,23.17 61.47,26.29 L65.39,24.11 C62.98,20.27 59.73,17.02 55.89,14.61 Z M24.11,14.61 C20.27,17.02 17.02,20.27 14.61,24.11 L18.53,26.29 C20.52,23.17 23.17,20.52 26.29,18.53 Z M13.14,26.72 C11.37,30.31 10.28,34.29 10.07,38.5 L14.58,38.5 C14.78,35.08 15.65,31.84 17.06,28.91 Z M66.86,26.72 L62.94,28.91 C64.36,31.84 65.22,35.08 65.42,38.5 L69.93,38.5 C69.72,34.29 68.63,30.31 66.86,26.72 Z M10.07,41.5 C10.28,45.71 11.37,49.7 13.14,53.28 L17.06,51.09 C15.65,48.17 14.78,44.92 14.58,41.5 Z M65.42,41.5 C65.22,44.92 64.36,48.17 62.94,51.09 L66.86,53.28 C68.63,49.69 69.72,45.71 69.93,41.5 Z M18.53,53.71 L14.61,55.89 C17.02,59.73 20.27,62.98 24.11,65.39 L26.29,61.47 C23.17,59.48 20.52,56.83 18.53,53.71 Z M61.47,53.71 C59.48,56.83 56.83,59.48 53.71,61.47 L55.89,65.39 C59.73,62.98 62.98,59.73 65.39,55.89 Z M28.91,62.94 L26.72,66.86 C30.3,68.63 34.29,69.72 38.5,69.93 L38.5,65.42 C35.08,65.22 31.83,64.35 28.91,62.94 Z M51.09,62.94 C48.17,64.36 44.92,65.22 41.5,65.42 L41.5,69.93 C45.71,69.72 49.7,68.63 53.28,66.86 Z M16.18,0 C63.99,0 63.99,0 63.99,0 C72.81,0 80,7.35 80,16.16 C80,63.97 80,63.97 80,63.97 C80,72.78 72.81,80 63.99,80 C16.18,80 16.18,80 16.18,80 C7.36,80 0,72.78 0,63.97 C0,16.16 0,16.16 0,16.16 C0,7.35 7.36,0 16.18,0 Z" fill="none" stroke="currentColor" stroke-width="1.5"/></svg>