<svg xmlns="http://www.w3.org/2000/svg" viewBox="0 0 79.91 80.0" width="24" height="24"><path d="M69.95,38.82 C69.95,38.6 69.73,38.42 69.55,38.42 C62.56,31.21 62.56,31.21 62.56,31.21 C61.75,30.58 60.76,30.58 60.13,31.21 C59.95,31.39 59.95,31.39 59.95,31.39 C59.14,32.2 59.14,33.19 59.95,34 C63.96,38.19 63.96,38.19 63.96,38.19 C53.15,38.19 53.15,38.19 53.15,38.19 C55.54,35.22 57.56,32.38 59.14,29.99 C62.92,24.18 63.74,20.58 61.75,18.6 C61.35,18.19 60.54,17.61 59.14,17.61 C55.36,17.61 48.56,22.2 42.16,27.79 C42.16,16.21 42.16,16.21 42.16,16.21 C46.17,20.22 46.17,20.22 46.17,20.22 C46.75,20.99 47.97,20.99 48.56,20.22 C48.74,19.99 48.74,19.99 48.74,19.99 C49.55,19.41 49.55,18.19 48.74,17.61 C41.75,10.4 41.75,10.4 41.75,10.4 C41.75,10.4 41.57,10.22 41.57,10.22 C41.35,9.99 40.76,9.59 40.18,9.59 C39.95,9.59 39.95,9.59 39.95,9.59 C39.37,9.59 38.96,9.81 38.78,10.22 C38.56,10.22 38.56,10.22 38.38,10.4 C31.39,17.61 31.39,17.61 31.39,17.61 C30.58,18.19 30.58,19.41 31.39,19.99 C31.57,20.22 31.57,20.22 31.57,20.22 C32.16,20.99 33.38,20.99 33.96,20.22 C38.15,16.21 38.15,16.21 38.15,16.21 C38.15,27.79 38.15,27.79 38.15,27.79 C31.57,22.2 24.59,17.61 20.76,17.61 C19.37,17.61 18.6,18.19 18.2,18.6 C16.17,20.58 17.2,24.18 20.76,29.99 C22.38,32.38 24.59,35.22 26.98,38.19 C16.17,38.19 16.17,38.19 16.17,38.19 C20.18,34 20.18,34 20.18,34 C20.99,33.19 20.99,32.2 20.18,31.39 C20,31.21 20,31.21 20,31.21 C19.37,30.58 18.2,30.58 17.56,31.21 C10.4,38.42 10.4,38.42 10.4,38.42 C10.18,38.42 10.18,38.6 10.18,38.82 C10,39 9.59,39.59 9.59,39.99 C9.59,40.4 9.59,40.4 9.59,40.4 C9.59,40.8 10,41.39 10.4,41.8 C10.4,41.8 10.4,41.8 10.4,41.8 C17.56,49 17.56,49 17.56,49 C18.2,49.59 19.37,49.59 20,49 C20.18,48.82 20.18,48.82 20.18,48.82 C20.99,48.01 20.99,46.8 20.18,46.21 C16.17,42.02 16.17,42.02 16.17,42.02 C27.56,42.02 27.56,42.02 27.56,42.02 C25,45.22 22.56,48.42 20.76,51.21 C17.2,57.02 16.17,60.62 18.2,62.38 C18.6,62.79 19.37,63.42 20.76,63.42 C20.76,63.42 20.76,63.42 20.76,63.42 C24.59,63.42 31.57,59 38.15,53.19 C38.15,64 38.15,64 38.15,64 C33.96,59.81 33.96,59.81 33.96,59.81 C33.38,59.18 32.16,59.18 31.57,59.81 C31.39,60.22 31.39,60.22 31.39,60.22 C30.58,60.81 30.58,62.02 31.39,62.61 C38.38,69.81 38.38,69.81 38.38,69.81 C38.56,69.99 38.56,69.99 38.78,69.99 C38.96,70.4 39.37,70.4 39.95,70.4 C40.18,70.4 40.18,70.4 40.18,70.4 C40.76,70.4 41.35,70.22 41.57,69.99 C41.57,69.99 41.75,69.81 41.75,69.81 C48.74,62.61 48.74,62.61 48.74,62.61 C49.55,62.02 49.55,60.81 48.74,60.22 C48.56,59.81 48.56,59.81 48.56,59.81 C47.97,59.18 46.75,59.18 46.17,59.81 C42.16,64 42.16,64 42.16,64 C42.16,53.42 42.16,53.42 42.16,53.42 C48.56,59 55.36,63.42 59.14,63.42 C60.54,63.42 61.35,62.79 61.75,62.38 C63.74,60.62 62.92,57.02 59.14,51.21 C57.56,48.42 54.95,45.22 52.34,42.02 C63.96,42.02 63.96,42.02 63.96,42.02 C59.95,46.21 59.95,46.21 59.95,46.21 C59.14,46.8 59.14,48.01 59.95,48.82 C60.13,49 60.13,49 60.13,49 C60.76,49.59 61.75,49.59 62.56,49 C69.55,41.8 69.55,41.8 69.55,41.8 C69.73,41.8 69.73,41.8 69.73,41.8 C70.13,41.39 70.36,40.8 70.36,40.4 C70.36,39.99 70.36,39.99 70.36,39.99 C70.36,39.59 70.13,39 69.95,38.82 Z M20.76,60.22 C20.58,60.22 20.4,60.22 20.4,60.22 C20,58.82 22.79,52.79 29.95,44.41 C30.99,47.38 33.15,49.59 36.17,50.62 C28.78,57.02 23.2,60.22 20.76,60.22 Z M29.95,36.62 C22.79,28.19 20,22.2 20.4,20.99 C20.4,20.99 20.58,20.99 20.76,20.99 C23.2,20.99 28.78,24.18 36.17,30.4 C33.15,31.39 30.99,33.82 29.95,36.62 Z M59.14,20.99 C59.37,20.99 59.55,20.99 59.55,20.99 C60.13,22.2 57.16,28.19 50.18,36.62 C49.14,33.82 46.75,31.39 43.96,30.4 C51.17,24.18 56.93,20.99 59.14,20.99 Z M59.55,60.22 C59.55,60.22 59.37,60.22 59.14,60.22 C56.93,60.22 51.17,57.02 43.96,50.62 C46.75,49.59 49.14,47.38 50.18,44.41 C57.16,52.79 60.13,58.82 59.55,60.22 Z M0,40 C0,18.02 17.97,0 39.95,0 C62.16,0 79.91,18.02 79.91,40 C79.91,62.21 62.16,80 39.95,80 C17.97,80 0,62.21 0,40 Z" fill="none" stroke="currentColor" stroke-width="1.5"/></svg>