<svg xmlns="http://www.w3.org/2000/svg" viewBox="0 0 80.0 80.0" width="24" height="24"><path d="M12.94,23.51 L12.94,25.9 L29.42,25.9 L29.42,23.51 L12.94,23.51 Z M31.77,23.51 L31.77,25.9 L48.25,25.9 L48.25,23.51 L31.77,23.51 Z M50.59,23.51 L50.59,25.9 L67.07,25.9 L67.07,23.51 L50.59,23.51 Z M12.94,28.22 L12.94,32.95 L20,32.95 L20,28.22 L12.94,28.22 Z M22.35,28.22 L22.35,32.95 L38.83,32.95 L38.83,28.22 L22.35,28.22 Z M41.18,28.22 L41.18,32.95 L57.66,32.95 L57.66,28.22 L41.18,28.22 Z M60,28.22 L60,32.95 L67.07,32.95 L67.07,28.22 L60,28.22 Z M12.94,35.27 L12.94,37.66 L29.42,37.66 L29.42,35.27 L12.94,35.27 Z M31.77,35.27 L31.77,37.66 L48.25,37.66 L48.25,35.27 L31.77,35.27 Z M50.59,35.27 L50.59,37.66 L67.07,37.66 L67.07,35.27 L50.59,35.27 Z M12.94,39.98 L12.94,44.71 L20,44.71 L20,39.98 L12.94,39.98 Z M22.35,39.98 L22.35,44.71 L38.83,44.71 L38.83,39.98 L22.35,39.98 Z M41.18,39.98 L41.18,44.71 L57.66,44.71 L57.66,39.98 L41.18,39.98 Z M60,39.98 L60,44.71 L67.07,44.71 L67.07,39.98 L60,39.98 Z M12.94,47.04 L12.94,49.42 L29.42,49.42 L29.42,47.04 L12.94,47.04 Z M31.77,47.04 L31.77,49.42 L48.25,49.42 L48.25,47.04 L31.77,47.04 Z M50.59,47.04 L50.59,49.42 L67.07,49.42 L67.07,47.04 L50.59,47.04 Z M12.94,51.74 L12.94,56.48 L20,56.48 L20,51.74 L12.94,51.74 Z M22.35,51.74 L22.35,56.48 L38.83,56.48 L38.83,51.74 L22.35,51.74 Z M41.18,51.74 L41.18,56.48 L57.66,56.48 L57.66,51.74 L41.18,51.74 Z M60,51.74 L60,56.48 L67.07,56.48 L67.07,51.74 L60,51.74 Z M16.18,0 C63.99,0 63.99,0 63.99,0 C72.81,0 80,7.35 80,16.16 C80,63.97 80,63.97 80,63.97 C80,72.78 72.81,80 63.99,80 C16.18,80 16.18,80 16.18,80 C7.36,80 0,72.78 0,63.97 C0,16.16 0,16.16 0,16.16 C0,7.35 7.36,0 16.18,0 Z" fill="none" stroke="currentColor" stroke-width="1.5"/></svg>