<svg xmlns="http://www.w3.org/2000/svg" viewBox="0 0 106.67 106.67" width="24" height="24"><path d="M53.04,52.22 C50.29,52.22 48.46,54.37 48.46,56.98 L48.46,58.91 C48.46,59.98 47.69,60.47 46.53,60.8 C44.48,61.3 43.6,62.72 43.54,64.81 L62.61,64.85 C62.44,62.83 61.72,61.35 59.29,60.71 C58.33,60.42 57.62,59.7 57.62,58.88 L57.63,56.78 C57.63,54.74 56.08,52.22 53.04,52.22 Z M52.91,55.37 C53.7,55.37 54.34,56 54.34,56.79 C54.34,57.58 53.7,58.22 52.91,58.22 C52.12,58.22 51.48,57.58 51.48,56.79 C51.48,56 52.12,55.37 52.91,55.37 Z M38.41,55.42 C37.05,55.42 35.9,56.56 35.9,57.92 L35.9,93.9 C35.9,95.26 37.05,96.4 38.41,96.4 L67.92,96.4 C69.29,96.4 70.43,95.26 70.43,93.9 L70.43,57.92 C70.43,56.56 69.29,55.42 67.92,55.42 L60.56,55.42 L60.56,56.77 C60.56,57.85 61.2,58.42 62.79,58.42 L66.13,58.42 C67.03,58.42 67.43,59.02 67.43,59.82 L67.43,91.78 C67.43,92.9 66.81,93.4 65.81,93.4 L40.42,93.4 C39.4,93.4 38.9,92.93 38.9,91.7 L38.9,59.86 C38.9,58.82 39.39,58.42 40.32,58.42 L44.02,58.42 C44.98,58.42 45.74,57.74 45.74,56.84 L45.74,55.42 Z M47.65,66.77 C45.75,67.67 43.44,69.86 42.4,71.86 C42.19,71.22 42.01,70.91 41.71,70.53 C41.46,70.26 41.01,70.26 40.86,70.36 C40.52,70.58 40.33,70.78 40.22,70.96 C41.19,71.47 41.48,72.71 41.89,73.81 C42.09,73.49 42.69,73.02 43.12,72.96 C43.76,71.23 46.35,68.06 47.94,67.05 C47.89,66.93 47.77,66.81 47.65,66.77 Z M45.01,72.25 L45.01,73.25 L46.84,73.25 C45.13,74.32 43.3,76.17 42.4,77.89 C42.19,77.25 42.01,76.93 41.71,76.56 C41.46,76.29 41.01,76.29 40.86,76.39 C40.52,76.61 40.33,76.81 40.22,76.99 C41.19,77.5 41.48,78.73 41.89,79.84 C42.09,79.51 42.69,79.04 43.12,78.98 C43.73,77.33 46.11,74.39 47.71,73.25 L61.38,73.25 L61.38,72.25 Z M45.01,78.26 L45.01,79.26 L46.87,79.26 C45.15,80.32 43.3,82.19 42.4,83.91 C42.19,83.27 42.01,82.96 41.71,82.59 C41.46,82.31 41.01,82.31 40.86,82.41 C40.52,82.64 40.33,82.83 40.22,83.02 C41.19,83.53 41.48,84.76 41.89,85.87 C42.09,85.54 42.69,85.07 43.12,85.01 C43.73,83.35 46.14,80.38 47.74,79.26 L61.38,79.26 L61.38,78.26 Z M45.01,84.26 L45.01,85.26 L61.38,85.26 L61.38,84.26 Z M21.57,0 C85.32,0 85.32,0 85.32,0 C97.07,0 106.67,9.8 106.67,21.55 C106.67,85.3 106.67,85.3 106.67,85.3 C106.67,97.04 97.07,106.67 85.32,106.67 C21.57,106.67 21.57,106.67 21.57,106.67 C9.81,106.67 0,97.04 0,85.3 C0,21.55 0,21.55 0,21.55 C0,9.8 9.81,0 21.57,0 Z M77.43,38.9 L69.38,46.75 L77.43,54.62 L77.43,50.87 L91.35,50.87 L91.35,42.83 L77.43,42.83 Z M64.88,31.25 C66.42,31.25 67.44,32.44 67.62,34.61 L61.91,34.61 C62.31,32.44 63.28,31.25 64.88,31.25 Z M64.88,29.49 C62.13,29.49 59.97,31.65 59.97,35.76 C59.97,40.09 62.13,42.07 64.88,42.07 C67.22,42.07 68.81,40.48 69.39,38.32 L67.44,38.32 C67.04,39.51 66.25,40.3 64.88,40.3 C63.28,40.3 62.13,39.11 61.91,36.37 L69.39,36.37 C69.39,31.47 67.62,29.49 64.88,29.49 Z M58.78,29.49 C57.41,29.49 56.44,30.28 55.86,31.65 L55.64,29.88 L53.69,29.88 L53.69,42.07 L56.03,42.07 L56.03,35.98 C56.03,33.02 57.23,31.87 58.78,31.87 C59.17,31.87 59.57,31.87 59.97,32.05 L59.97,29.71 C59.79,29.71 59.4,29.49 58.78,29.49 Z M48.45,29.49 L48.45,42.07 L51.59,42.07 L51.59,29.49 Z M38.01,26.35 L38.01,42.07 L40.35,42.07 L40.35,35.58 L46.85,35.58 L46.85,33.63 L40.35,33.63 L40.35,28.34 L47.42,28.34 L47.42,26.35 Z M56.05,19.12 C55.83,19.12 55.83,19.34 55.83,19.34 C55.66,19.74 54.68,21.5 51.54,22.47 C47.79,23.66 48.58,27.56 48.98,28.57 L49.16,28.57 L49.38,28.57 C49.56,28.17 50.53,26.58 53.67,25.39 C57.2,24.24 56.63,20.31 56.23,19.34 Z M30.15,10.67 L30.15,14.82 L16.04,14.82 L16.04,22.46 L30.15,22.46 L30.15,26.38 L38.01,18.71 Z" fill="none" stroke="currentColor" stroke-width="1.5"/></svg>