<svg xmlns="http://www.w3.org/2000/svg" viewBox="0 0 80.0 80.0" width="24" height="24"><path d="M22.34,5.87 L22.34,8.99 L11.77,8.99 L11.77,14.71 L22.34,14.71 L22.34,17.66 L28.24,11.9 L22.34,5.87 Z M41.78,12.21 C41.61,12.21 41.61,12.38 41.61,12.38 C41.48,12.67 40.75,14 38.39,14.72 C35.57,15.62 36.17,18.54 36.47,19.3 L36.61,19.3 L36.77,19.3 C36.9,19 37.63,17.81 39.98,16.91 C42.64,16.05 42.21,13.1 41.91,12.38 L41.78,12.21 Z M28.24,17.63 L28.24,29.42 L30,29.42 L30,24.55 L34.87,24.55 L34.87,23.1 L30,23.1 L30,19.12 L35.3,19.12 L35.3,17.63 L28.24,17.63 Z M36.07,19.99 L36.07,29.42 L38.43,29.42 L38.43,19.99 L36.07,19.99 Z M43.82,19.99 C42.79,19.99 42.06,20.58 41.63,21.61 L41.46,20.28 L40,20.28 L40,29.42 L41.76,29.42 L41.76,24.86 C41.76,22.64 42.66,21.77 43.82,21.77 C44.11,21.77 44.41,21.77 44.71,21.91 L44.71,20.15 C44.58,20.15 44.28,19.99 43.82,19.99 Z M48.39,19.99 C46.33,19.99 44.71,21.61 44.71,24.69 C44.71,27.93 46.33,29.42 48.39,29.42 C50.15,29.42 51.34,28.23 51.77,26.61 L50.31,26.61 C50.01,27.5 49.42,28.1 48.39,28.1 C47.2,28.1 46.33,27.2 46.17,25.15 L51.77,25.15 C51.77,21.47 50.45,19.99 48.39,19.99 Z M48.39,21.31 C49.55,21.31 50.31,22.2 50.45,23.83 L46.17,23.83 C46.47,22.2 47.2,21.31 48.39,21.31 Z M57.8,27.04 L51.77,32.94 L57.8,38.83 L57.8,36.02 L68.25,36.02 L68.25,29.99 L57.8,29.99 L57.8,27.04 Z M11.77,43.52 L11.77,43.82 L11.77,44.25 L20.15,44.25 L20.15,51.17 L11.77,51.17 L11.77,51.47 L11.77,51.9 L11.77,52.03 L29.87,52.03 L29.87,58.82 L11.77,58.82 L11.77,58.96 L11.77,59.39 L11.77,59.68 L20.15,59.68 L20.15,66.6 L11.77,66.6 L11.77,67.03 L11.77,67.2 L29.87,67.2 L29.87,74.12 L30.43,74.12 L30.43,67.2 L49.13,67.2 L49.13,74.12 L49.73,74.12 L49.73,67.2 L68.23,67.2 L68.23,67.03 L68.23,66.6 L59.41,66.6 L59.41,59.68 L68.23,59.68 L68.23,59.39 L68.23,58.96 L68.23,58.82 L49.73,58.82 L49.73,52.03 L68.23,52.03 L68.23,51.9 L68.23,51.47 L68.23,51.17 L59.41,51.17 L59.41,44.25 L68.23,44.25 L68.23,43.82 L68.23,43.52 L11.77,43.52 Z M20.75,44.25 L39.28,44.25 L39.28,51.17 L20.75,51.17 L20.75,44.25 Z M40.14,44.25 L58.84,44.25 L58.84,51.17 L40.14,51.17 L40.14,44.25 Z M30.43,52.03 L49.13,52.03 L49.13,58.82 L30.43,58.82 L30.43,52.03 Z M20.75,59.68 L39.28,59.68 L39.28,66.6 L20.75,66.6 L20.75,59.68 Z M40.14,59.68 L58.84,59.68 L58.84,66.6 L40.14,66.6 L40.14,59.68 Z M16.18,0 C63.99,0 63.99,0 63.99,0 C72.81,0 80,7.35 80,16.16 C80,63.97 80,63.97 80,63.97 C80,72.78 72.81,80 63.99,80 C16.18,80 16.18,80 16.18,80 C7.36,80 0,72.78 0,63.97 C0,16.16 0,16.16 0,16.16 C0,7.35 7.36,0 16.18,0 Z" fill="none" stroke="currentColor" stroke-width="1.5"/></svg>