<svg xmlns="http://www.w3.org/2000/svg" viewBox="0 0 100.0 86.34" width="24" height="24"><path d="M49.99,37.19 C53.44,37.19 56.24,39.82 56.5,43.2 L43.49,43.2 C43.75,39.83 46.55,37.19 49.99,37.19 Z M49.69,10.24 L39.7,23.1 L47.26,23.1 L47.26,34.53 C43.31,35.72 40.4,39.39 40.4,43.72 C40.4,45.45 40.88,47.08 41.69,48.49 L33.84,55.07 L44.13,51.29 C45.26,52.17 46.59,52.81 48.04,53.11 L48.04,59.32 L51.44,53.19 C53.02,52.95 54.47,52.32 55.7,51.41 L63.61,58.04 L58.2,48.66 C59.07,47.21 59.59,45.53 59.59,43.72 C59.59,39.24 56.47,35.46 52.29,34.42 L52.29,23.1 L59.68,23.1 Z M72.72,82.83 L95.45,42.87 L72.71,3.12 L27.36,3.12 L4.57,42.84 L27.32,82.83 Z M24.74,86.34 L0,43 L24.66,0 L75.28,0 L100,43 L75.27,86.34 Z" fill="none" stroke="currentColor" stroke-width="1.5"/></svg>