<svg xmlns="http://www.w3.org/2000/svg" viewBox="0 0 106.67 106.67" width="24" height="24"><path d="M52.36,3.5 L37.03,23.26 L48.63,23.26 L48.63,40.8 C42.55,42.62 38.1,48.26 38.1,54.91 C38.1,57.57 38.82,60.06 40.07,62.22 L28.03,72.32 L43.81,66.52 C45.55,67.88 47.59,68.86 49.82,69.32 L49.82,78.86 L55.04,69.45 C57.47,69.08 59.7,68.12 61.59,66.71 L73.72,76.9 L65.42,62.48 C66.76,60.26 67.55,57.68 67.55,54.91 C67.55,48.02 62.76,42.23 56.35,40.63 L56.35,23.26 L67.69,23.26 Z M52.82,44.88 C58.12,44.88 62.41,48.92 62.82,54.11 L42.83,54.11 C43.24,48.93 47.53,44.88 52.82,44.88 Z M21.57,0 L85.32,0 C97.07,0 106.67,9.8 106.67,21.55 L106.67,85.3 C106.67,97.04 97.07,106.67 85.32,106.67 L21.57,106.67 C9.81,106.67 0,97.04 0,85.3 L0,21.55 C0,9.8 9.81,0 21.57,0 Z" fill="none" stroke="currentColor" stroke-width="1.5"/></svg>