<svg xmlns="http://www.w3.org/2000/svg" viewBox="0 0 78.59 80.0" width="24" height="24"><path d="M39.69,20.65 C35.42,20.65 31.01,22.33 27.64,25.47 C22.06,31.05 21.45,39.5 25.29,45.78 L12.73,58.39 C11.6,59.24 11.6,61.02 12.73,62.1 L14.18,63.46 C15.21,64.49 17,64.49 17.98,63.46 L30.69,51.03 C33.5,52.67 36.5,53.47 39.69,53.47 C43.91,53.47 48.08,51.83 51.41,48.78 C57.98,42.31 57.98,31.85 51.41,25.47 C48.08,22.33 43.91,20.65 39.69,20.65 Z M17.41,23.22 C16.99,23.22 16.76,23.55 16.76,23.88 C16.76,24.35 16.99,24.53 17.41,24.53 L25.75,24.53 C25.94,24.44 26.04,24.44 26.08,24.35 C26.41,23.88 26.84,23.55 27.07,23.22 L17.41,23.22 Z M51.55,23.22 C51.88,23.55 52.25,23.88 52.54,24.35 L52.77,24.53 L69.04,24.53 C69.37,24.53 69.61,24.35 69.61,23.88 C69.61,23.55 69.37,23.22 69.04,23.22 L51.55,23.22 Z M39.69,25.9 C42.55,25.9 45.5,27.17 47.61,29.37 C49.77,31.2 50.99,34.11 50.99,37.11 C50.99,40.02 49.77,42.83 47.61,44.99 C45.5,47 42.55,48.22 39.69,48.22 C36.55,48.22 33.74,47 31.48,44.99 C27.08,40.58 27.08,33.64 31.48,29.37 C33.74,27.17 36.55,25.9 39.69,25.9 Z M17.31,27.09 C16.99,27.09 16.76,27.32 16.76,27.75 C16.76,28.12 16.99,28.4 17.31,28.4 L22.62,28.4 C22.81,27.98 23.03,27.51 23.18,27.09 L17.31,27.09 Z M38.64,27.09 C37.28,27.27 36.02,27.65 34.8,28.4 L38.36,28.4 L38.64,27.09 Z M38.66,27.09 L38.66,28.4 L43.82,28.4 C42.28,27.65 40.68,27.09 38.9,27.09 L38.66,27.09 Z M55.41,27.09 C55.74,27.51 55.89,27.98 56.07,28.4 L69.11,28.4 C69.34,28.4 69.58,28.12 69.58,27.75 C69.58,27.32 69.34,27.09 69.11,27.09 L55.41,27.09 Z M38.99,29.69 L34.96,40.95 L33.57,34.97 L34.17,36.14 L35.52,36.14 L36.09,34.83 L33.54,34.83 L33.51,34.67 L30.93,41.18 C31.16,41.7 31.4,42.07 31.63,42.59 L33.27,38.7 L34.77,45.07 L34.77,45.17 L36.16,41.3 L37.35,41.3 L37.35,39.99 L36.98,39.99 L36.24,41.07 L38.01,36.12 L38.2,43.15 L38.93,41.3 L42.51,41.3 L42.28,39.99 L39.45,39.99 L41.48,34.85 L44.72,44.89 L46.4,38.6 L48,38.33 L48.98,35.32 C48.89,34.76 48.66,34.11 48.42,33.64 L48.23,33.73 L47.11,37.43 L45.52,37.67 L44.62,40.71 L41.87,32.27 L47.66,32.27 C47.52,31.85 47.11,31.42 46.87,30.95 L41.24,30.95 L41.48,31.62 L39.13,37.43 L39.04,32.27 L39.46,32.27 L39.93,30.95 L39.02,30.95 L38.99,29.69 Z M17.41,30.95 C16.99,30.95 16.76,31.29 16.76,31.71 C16.76,32.08 16.99,32.27 17.41,32.27 L21.49,32.27 C21.58,31.85 21.82,31.42 21.92,30.95 L17.41,30.95 Z M31.63,30.95 C31.49,31.42 31.16,31.85 30.93,32.27 L36.98,32.27 L37.35,30.95 L31.63,30.95 Z M56.7,30.95 C56.84,31.42 56.94,31.85 57.03,32.27 L69.04,32.27 C69.36,32.27 69.6,32.08 69.6,31.71 C69.6,31.29 69.36,30.95 69.04,30.95 L56.7,30.95 Z M17.31,34.83 C16.99,34.83 16.76,35.06 16.76,35.58 C16.76,35.86 16.99,36.14 17.31,36.14 L20.55,36.14 C20.55,35.81 20.55,35.3 20.6,34.83 L17.31,34.83 Z M29.78,34.83 C29.64,35.3 29.65,35.81 29.65,36.14 L31.76,36.14 L32.22,34.83 L29.78,34.83 Z M43.82,34.83 L44.24,36.14 L46.26,36.14 L46.4,34.83 L43.82,34.83 Z M57.99,34.83 C58.13,35.3 58.13,35.81 58.13,36.14 L69.11,36.14 C69.34,36.14 69.58,35.86 69.58,35.58 C69.58,35.06 69.34,34.83 69.11,34.83 L57.99,34.83 Z M17.31,39.99 C16.89,39.99 16.76,40.31 16.76,40.64 C16.76,41.11 16.89,41.3 17.31,41.3 L20.6,41.3 C20.55,40.88 20.55,40.46 20.55,39.99 L17.31,39.99 Z M29.65,39.99 C29.88,40.46 29.87,40.78 30.2,41.3 L30.91,39.99 L29.65,39.99 Z M46.86,39.99 L46.4,41.3 L48.51,41.3 C48.65,40.88 48.83,40.46 48.97,39.99 L46.86,39.99 Z M58.23,39.99 C58.23,40.46 58.09,40.88 57.99,41.3 L69.11,41.3 C69.34,41.3 69.58,41.11 69.58,40.64 C69.58,40.31 69.34,39.99 69.11,39.99 L58.23,39.99 Z M17.31,43.86 C16.89,43.86 16.76,44.1 16.76,44.52 C16.76,44.85 16.89,45.17 17.31,45.17 L21.92,45.17 C21.82,44.75 21.68,44.33 21.49,43.86 L17.31,43.86 Z M32.22,43.86 C32.22,43.86 32.36,43.86 32.36,44.05 C32.78,44.33 33.11,44.84 33.48,45.17 L33.25,43.86 L32.22,43.86 Z M35.46,43.86 L34.8,45.17 L37.38,45.17 L37.38,43.86 L35.46,43.86 Z M37.38,45.17 L43.8,45.17 L43.57,43.86 L37.94,43.86 L37.38,45.17 Z M45.53,43.86 L45.11,45.17 C45.67,44.84 46.09,44.33 46.33,44.05 L46.37,43.86 L45.53,43.86 Z M55.98,43.86 C55.74,44.33 55.56,44.75 55.41,45.17 L69.01,45.17 C69.25,45.17 69.58,44.85 69.58,44.52 C69.58,44.1 69.25,43.86 69.01,43.86 L55.98,43.86 Z M0,40 C0,18.01 17.63,0 39.3,0 C61.06,0 78.59,18.01 78.59,40 C78.59,62.09 61.06,80 39.3,80 C17.63,80 0,62.09 0,40 Z" fill="none" stroke="currentColor" stroke-width="1.5"/></svg>