<svg xmlns="http://www.w3.org/2000/svg" viewBox="0 0 98.87 80.22" width="24" height="24"><path d="M0,0 L0,80.22 L98.87,80.22 L98.87,0 Z M2.95,13.57 L12.47,13.57 L12.47,24.36 L2.95,24.36 Z M15.5,13.57 L30.14,13.57 L30.14,24.36 L15.5,24.36 Z M33.17,13.57 L47.82,13.57 L47.82,24.36 L33.17,24.36 Z M50.84,13.57 L65.49,13.57 L65.49,24.36 L50.84,24.36 Z M68.51,13.57 L83.16,13.57 L83.16,24.36 L68.51,24.36 Z M86.18,13.57 L95.71,13.57 L95.71,24.36 L86.18,24.36 Z M2.95,27.38 L12.47,27.38 L12.47,43.31 L2.95,43.31 Z M15.5,27.38 L30.14,27.38 L30.14,43.31 L15.5,43.31 Z M33.17,27.38 L47.82,27.38 L47.82,43.31 L33.17,43.31 Z M50.84,27.38 L65.49,27.38 L65.49,43.31 L50.84,43.31 Z M68.51,27.38 L83.16,27.38 L83.16,43.31 L68.51,43.31 Z M86.18,27.38 L95.71,27.38 L95.71,43.31 L86.18,43.31 Z M2.95,46.33 L12.47,46.33 L12.47,62.26 L2.95,62.26 Z M15.5,46.33 L30.14,46.33 L30.14,62.26 L15.5,62.26 Z M33.17,46.33 L47.82,46.33 L47.82,62.26 L33.17,62.26 Z M50.84,46.33 L65.49,46.33 L65.49,62.26 L50.84,62.26 Z M68.51,46.33 L83.16,46.33 L83.16,62.26 L68.51,62.26 Z M86.18,46.33 L95.71,46.33 L95.71,62.26 L86.18,62.26 Z M2.95,65.29 L12.47,65.29 L12.47,76.07 L2.95,76.07 Z M15.5,65.29 L30.14,65.29 L30.14,76.07 L15.5,76.07 Z M33.17,65.29 L47.82,65.29 L47.82,76.07 L33.17,76.07 Z M50.84,65.29 L65.49,65.29 L65.49,76.07 L50.84,76.07 Z M68.51,65.29 L83.16,65.29 L83.16,76.07 L68.51,76.07 Z M86.18,65.29 L95.71,65.29 L95.71,76.07 L86.18,76.07 Z" fill="none" stroke="currentColor" stroke-width="1.5"/></svg>