<svg xmlns="http://www.w3.org/2000/svg" viewBox="0 0 85.95 98.77" width="24" height="24"><path d="M75.22,0 C74.48,0 73.79,0.36 73.37,0.96 L62.23,16.68 L18.16,16.68 C14.23,16.68 10.91,20 10.91,23.93 L10.91,39.21 L20.37,39.21 L20.37,26.13 L59.95,26.13 L59.95,83.64 L20.37,83.64 L20.37,70.65 L10.91,70.65 L10.91,85.84 C10.91,89.78 14.23,93.09 18.16,93.09 L64.21,93.09 L74.6,98.52 C74.93,98.68 75.29,98.77 75.65,98.77 L83.68,98.77 C84.93,98.77 85.95,97.76 85.95,96.5 L85.95,2.27 C85.95,1.01 84.93,0 83.68,0 Z M28.5,32.59 C27.97,32.58 27.54,33.01 27.54,33.53 L27.54,43.97 L1.31,43.97 C0.58,43.97 0,44.56 0,45.28 L0,64.65 C0,65.38 0.58,65.96 1.31,65.96 L27.54,65.96 L27.54,76.32 C27.54,77.14 28.5,77.57 29.11,77.04 L53.64,55.64 C54.07,55.26 54.07,54.59 53.64,54.21 L29.11,32.82 C28.94,32.67 28.72,32.59 28.5,32.59 Z" fill="none" stroke="currentColor" stroke-width="1.5"/></svg>