<svg xmlns="http://www.w3.org/2000/svg" viewBox="0 0 32.59 75.0" width="24" height="24"><path d="M7.96,45.03 L23.84,45.03 C25.23,45.03 26.34,46.15 26.34,47.54 L26.34,66.56 C26.34,67.95 25.23,69.06 23.84,69.06 L7.96,69.06 C6.57,69.06 5.45,67.95 5.45,66.56 L5.45,47.54 C5.45,46.15 6.57,45.03 7.96,45.03 Z M8.11,36.68 L23.69,36.68 C25.14,36.68 26.31,37.85 26.31,39.3 C26.31,40.75 25.14,41.92 23.69,41.92 L8.11,41.92 C6.65,41.92 5.49,40.75 5.49,39.3 C5.49,37.85 6.65,36.68 8.11,36.68 Z M8.11,28.87 L23.69,28.87 C25.14,28.87 26.31,30.04 26.31,31.49 C26.31,32.94 25.14,34.11 23.69,34.11 L8.11,34.11 C6.65,34.11 5.49,32.94 5.49,31.49 C5.49,30.04 6.65,28.87 8.11,28.87 Z M2.51,0 C1.12,0 0,1.12 0,2.51 L0,72.49 C0,73.88 1.12,75 2.51,75 L30.09,75 C31.47,75 32.59,73.88 32.59,72.49 L32.59,2.51 C32.59,1.12 31.47,0 30.09,0 Z" fill="none" stroke="currentColor" stroke-width="1.5"/></svg>