<svg xmlns="http://www.w3.org/2000/svg" viewBox="0 0 93.28 98.81" width="24" height="24"><path d="M65.31,0 L58.37,5.82 L62.69,5.82 L62.69,16.17 L18.82,16.17 L18.82,9.16 L23.19,9.16 L16.25,3.35 L9.31,9.16 L13.53,9.16 L13.53,16.17 L5.82,16.17 L5.82,11.91 L0,18.85 L5.82,25.8 L5.82,21.46 L13.53,21.46 L13.53,53.61 L43.94,53.61 L43.94,67.22 L5.88,67.22 L5.88,62.96 L0.06,69.9 L5.88,76.84 L5.88,72.51 L43.94,72.51 L43.94,89.25 L17.36,89.25 L17.36,84.93 L11.54,91.87 L17.36,98.81 L17.36,94.54 L49.23,94.54 L49.23,72.51 L87.46,72.51 L87.46,76.85 L93.28,69.91 L87.46,62.97 L87.46,67.22 L49.23,67.22 L49.23,53.61 L81.73,53.61 L81.73,58 L87.55,51.06 L81.73,44.12 L81.73,48.31 L67.98,48.31 L67.98,33.46 L87.43,33.46 L87.43,37.72 L93.24,30.78 L87.43,23.84 L87.43,28.17 L67.98,28.17 L67.98,5.82 L72.25,5.82 Z M18.82,21.46 L62.69,21.46 L62.69,28.17 L43.94,28.17 L43.94,48.31 L18.82,48.31 L18.82,39.38 L31.87,39.38 L31.87,43.64 L37.68,36.7 L31.87,29.76 L31.87,34.09 L18.82,34.09 Z M49.23,33.46 L62.69,33.46 L62.69,48.31 L49.23,48.31 Z" fill="none" stroke="currentColor" stroke-width="1.5"/></svg>