<svg xmlns="http://www.w3.org/2000/svg" viewBox="0 0 39.48 74.61" width="24" height="24"><path d="M15.99,69.91 C12.03,69.15 7.26,66.7 4.23,62.64 C2.69,60.64 1.19,58.48 0.31,54.24 C0,52.55 1.09,51.4 2.45,51.4 L6.94,51.4 C8.58,51.4 9.14,52.24 9.32,52.98 C10.63,57.51 13.57,59.5 15.99,60.49 Z M15.99,39.27 C11.34,38.24 3.12,33.47 3.12,22.59 C3.12,14.84 9.11,8.29 15.99,6.74 L15.99,16.41 C13.75,17.67 12.15,20.29 12.15,22.51 C12.14,26.15 13.63,28.1 15.99,29.58 Z M19.66,2.38 C19.66,1.17 20.72,0 22.17,0 C23.64,0 24.66,1.16 24.66,2.62 L24.66,7.11 C30.73,9.16 34.8,14.36 35.89,19.16 C36.33,20.79 35.3,22.12 33.59,22.12 L29.23,22.12 C28.15,22.12 27.39,21.81 26.79,20.29 C26.43,19.37 25.66,18.28 24.66,17.35 L24.66,31.24 C34.95,34.47 39.48,42.68 39.48,50.52 C39.48,58.73 34.27,67.17 24.66,69.63 L24.66,72.01 C24.66,73.67 23.45,74.61 22.09,74.61 C20.64,74.61 19.66,73.65 19.66,71.9 Z M24.66,59.91 C27.56,58.46 30.4,54.99 30.4,50.48 C30.4,46.1 27.75,42.67 24.66,40.99 Z" fill="none" stroke="currentColor" stroke-width="1.5"/></svg>