<svg xmlns="http://www.w3.org/2000/svg" viewBox="0 0 96.28 100.47" width="24" height="24"><path d="M69.86,1.29 C52.4,0 42.22,10.22 38.74,25.15 C37.69,30.39 38.63,35.82 39.59,38.73 C40.72,41.86 38.49,44.44 36.78,46.54 L3.56,78.96 C1.61,80.65 0,82.81 0.09,85.61 L0.13,94.31 C0.4,97.93 3.81,100.47 6.42,100.11 L16.26,99.17 C18,99.09 19.9,97.65 19.87,94.21 C19.87,91.95 19.82,91.39 20.71,90.39 C21.86,89.36 22.43,89.46 24.14,89.38 C26.35,89.68 26.9,89.41 28.56,87.99 C29.12,87.44 29.77,87.23 29.7,84.45 C29.68,83.24 29.44,81.79 30.16,80.83 C30.94,79.9 31.99,79.41 33.7,79.6 C35.75,79.82 37.52,79.58 38.56,78.6 C39.48,77.45 39.64,76.34 39.51,73.33 C39.44,72.01 39.89,71.06 40.71,70.26 L44.42,66.53 C45.09,65.75 46.32,65.85 47.04,66.46 L50.05,68.67 C51.09,70.24 52.47,69.93 53.33,68.27 C54.15,66.61 53.99,64.64 53.08,61.51 C52.5,59.82 52.67,58.47 53.27,57.66 C54.17,56.52 55.4,55.85 56.93,56.49 C60.21,57.86 64.37,58.67 68.75,58.67 C84.26,58.34 95.77,45.24 95.74,30.07 C96.28,19.9 88.67,2.62 69.86,1.29 Z M74.82,14.19 C78.93,14.19 82.27,17.52 82.27,21.64 C82.27,25.76 78.93,29.1 74.82,29.1 C70.7,29.1 67.36,25.76 67.36,21.64 C67.36,17.52 70.7,14.19 74.82,14.19 Z" fill="none" stroke="currentColor" stroke-width="1.5"/></svg>