<svg xmlns="http://www.w3.org/2000/svg" viewBox="0 0 99.28 99.28" width="24" height="24"><path d="M73.59,24.58 L49.82,43.85 L65.13,73.6 L54.46,52.85 Z M49.64,0 C22.28,0 0,22.28 0,49.64 C0,77 22.28,99.28 49.64,99.28 C77,99.28 99.28,77 99.28,49.64 C99.28,22.28 77,0 49.64,0 Z M47.87,9.55 L47.87,18.02 L51.41,18.02 L51.41,9.55 C72.39,10.45 89.1,27.33 89.75,48.38 L81.77,48.38 L81.77,51.92 L89.71,51.92 C88.57,72.49 72.05,88.85 51.41,89.73 L51.41,80.45 L47.87,80.45 L47.87,89.73 C27.23,88.85 10.71,72.49 9.57,51.92 L19.34,51.92 L19.34,48.38 L9.53,48.38 C10.18,27.33 26.89,10.45 47.87,9.55 Z" fill="none" stroke="currentColor" stroke-width="1.5"/></svg>