<svg xmlns="http://www.w3.org/2000/svg" viewBox="0 0 57.18 99.12" width="24" height="24"><path d="M27.42,0 C25.78,0 24.14,0.03 23.48,0.11 C13.13,1.31 7.57,8.99 7.57,16.44 L7.61,42.18 L0.98,44.3 C0,63.03 2.67,73.01 7.48,80.09 C13.73,90.04 21.52,97 28.89,99.12 C36.54,97.22 45.45,89.08 51.27,78.48 C56.51,69.64 57.18,56.96 56.63,44.19 L48.03,41.66 C47.8,41.6 47.61,41.55 47.4,41.5 L47.4,15.98 C47.4,9.12 41.54,0.8 31.36,0.1 C30.7,0.04 29.06,0.01 27.42,0 Z M26.93,6.09 C28.26,6.09 29.66,6.12 30.62,6.19 C36.21,6.67 40.77,10.69 40.77,16.49 L40.79,38.89 C39.88,38.25 39.02,37.46 38.06,36.37 C35.71,34.11 33.96,31.43 29.06,30.99 C25.73,30.91 22.98,32.96 20.21,35.81 C17.71,38.58 16.4,39.58 14.35,40.31 L14.38,16.15 C14.38,9.75 20.18,6.56 23.61,6.25 C24.32,6.15 25.59,6.1 26.93,6.09 Z M28.83,36.17 C31.45,36.17 34.24,38.15 36.2,40.19 L36.21,40.2 L36.22,40.22 C37.61,41.75 38.69,43.22 41.78,44.27 L52.41,47.26 L52.45,47.93 C53.09,58.62 51.87,68.1 48.72,74.86 L48.71,74.88 L48.7,74.9 C45.6,80.79 39.14,90.61 29.07,93.62 L28.8,93.7 L28.53,93.62 C20.41,91.18 13.62,83.14 8.93,74.92 L8.91,74.89 L8.9,74.86 C5.76,68.18 4.29,58.03 5.24,47.83 L5.3,47.18 L14.7,44.58 C17.64,43.71 18.16,43.6 20.73,40.79 C21.54,39.85 22.83,38.75 24.28,37.84 C25.73,36.92 27.3,36.17 28.83,36.17 Z M28.83,38.06 C27.99,38.06 26.58,38.62 25.29,39.44 C23.99,40.25 22.78,41.3 22.17,42.02 L22.16,42.03 L22.15,42.04 C19.46,44.99 18.2,45.52 15.23,46.39 L15.22,46.39 L7.1,48.64 C6.3,58.31 7.75,67.95 10.59,74.02 C15.1,81.89 21.64,89.38 28.8,91.68 C37.82,88.82 44.05,79.67 47.01,74.04 C49.88,67.87 51.11,58.89 50.58,48.71 L41.21,46.07 L41.19,46.06 C37.7,44.89 36.15,42.96 34.84,41.5 C33.12,39.71 30.34,38.06 28.83,38.06 Z M28.7,63.96 C30.94,63.96 32.75,65.77 32.75,68 C32.75,69.45 31.97,70.78 30.71,71.5 L30.71,78.86 L26.6,78.86 L26.6,71.45 C25.4,70.72 24.66,69.41 24.66,68 C24.66,65.77 26.47,63.96 28.7,63.96 Z" fill="none" stroke="currentColor" stroke-width="1.5"/></svg>