<svg xmlns="http://www.w3.org/2000/svg" viewBox="0 0 99.27 99.27" width="24" height="24"><path d="M49.59,0 C22.19,0 0,22.24 0,49.64 C0,77.03 22.24,99.27 49.64,99.27 C77.03,99.27 99.27,77.03 99.27,49.64 L96.61,49.64 C96.61,26.76 78.37,3.3 49.59,3.3 L49.59,17.42 C44.08,17.52 38.4,18.84 33.89,21.36 L33.72,21.07 L26.73,9.04 C33.34,5.3 41.47,3.05 49.59,2.95 Z M25.75,9.6 L30.43,17.66 L32.9,21.93 C28.32,24.7 24.49,28.58 21.77,33.19 L9.36,26.16 C13.34,19.35 18.98,13.64 25.75,9.6 Z M49.57,17.85 C68.77,17.85 82.03,33.47 82.03,49.64 L80.1,49.63 C80.01,54.68 78.7,60.01 76.44,64.17 L50.88,49.68 L80.1,49.63 C80.1,32.98 66.87,19.17 49.59,19.17 L49.59,48.37 L34.83,22.99 C39.06,20.64 44.42,19.27 49.59,19.17 Z M33.85,23.56 L48.1,48.11 L23.4,34.12 C25.96,29.8 29.55,26.16 33.85,23.56 Z M8.8,27.14 L21.2,34.17 C18.78,38.61 17.37,43.68 17.28,49.07 L3.04,49.07 C3.13,41.12 5.21,33.66 8.8,27.14 Z M70.69,34.4 Z M22.84,35.1 L47.48,49.07 L19.17,49.07 C19.26,44.02 20.57,39.26 22.84,35.1 Z M3.04,50.2 L17.28,50.2 C17.38,55.71 18.85,60.88 21.37,65.38 L9.04,72.54 C5.3,65.93 3.13,58.32 3.04,50.2 Z M19.17,50.2 L47.53,50.2 L22.99,64.44 C20.64,60.21 19.27,55.37 19.17,50.2 Z M81.99,50.2 L96.24,50.2 C96.14,58.15 94.07,65.62 90.47,72.13 L78.07,65.1 C80.49,60.66 81.9,55.59 81.99,50.2 Z M51.18,51.16 L75.87,65.16 C73.31,69.48 69.72,73.12 65.43,75.72 Z M48.11,51.18 L34.12,75.87 C29.79,73.31 26.16,69.72 23.55,65.42 L27.58,63.09 Z M50.2,51.74 L64.44,76.28 C60.21,78.64 55.37,80.01 50.2,80.1 Z M49.07,51.78 L49.07,80.1 C44.02,80.01 39.26,78.7 35.1,76.44 Z M77.51,66.08 L89.91,73.11 C85.94,79.92 80.29,85.63 73.52,89.67 L66.37,77.34 C70.95,74.57 74.78,70.69 77.51,66.08 Z M21.93,66.37 C24.7,70.95 28.58,74.78 33.19,77.51 L26.16,89.91 C19.35,85.93 13.64,80.29 9.6,73.52 Z M65.39,77.91 L72.54,90.24 C65.93,93.97 58.32,96.14 50.2,96.24 L50.2,81.99 C55.71,81.9 60.88,80.43 65.39,77.91 Z M34.17,78.07 C38.61,80.49 43.68,81.9 49.07,81.99 L49.07,96.24 C41.12,96.14 33.66,94.07 27.14,90.47 Z M65.08,88.51 Z" fill="none" stroke="currentColor" stroke-width="1.5"/></svg>