<svg xmlns="http://www.w3.org/2000/svg" viewBox="0 0 75.2 52.27" width="24" height="24"><path d="M8.62,29.76 C3.84,29.76 0,25.41 0.93,20.56 C1.43,18.12 3.3,14.53 8.46,14.22 C7.83,9.3 11.38,2.92 18.25,1.43 C24.66,0 30.25,4.04 32.14,8.59 C34.74,7.55 37.31,7.79 39.2,9.54 L29.11,16.78 L29.11,29.76 Z M27.81,52.27 L27.81,47.91 L31.7,47.91 L31.7,18.22 L51.54,4.03 L71.41,18.22 L71.41,22.18 L51.54,10.66 L51.54,14.75 L71.41,25.39 L71.41,29.81 L51.54,21.95 L51.54,25.73 L71.41,32.76 L71.41,37.39 L51.54,33.07 L51.54,36.7 L71.41,40.37 L71.41,44.87 L51.54,44.18 L51.54,47.91 L75.2,47.91 L75.2,52.27 Z" fill="none" stroke="currentColor" stroke-width="1.5"/></svg>