<svg xmlns="http://www.w3.org/2000/svg" viewBox="0 0 98.34 98.93" width="24" height="24"><path d="M22.93,0 C16.97,0 12.24,4.73 12.24,10.69 L12.24,88.24 C12.24,94.2 16.97,98.93 22.93,98.93 L32.45,98.93 C38.41,98.93 43.13,94.2 43.13,88.24 L43.13,10.69 C43.13,4.73 38.41,0 32.45,0 Z M46.09,3.84 C47.13,5.9 47.73,8.23 47.73,10.69 L47.73,88.24 C47.73,91.78 46.51,95.04 44.48,97.63 L85.11,97.63 C92.44,97.63 98.34,91.73 98.34,84.4 L98.34,17.07 C98.34,9.74 92.44,3.84 85.11,3.84 Z M8.95,4.56 C3.74,6.33 0,11.24 0,17.07 L0,84.4 C0,90.87 4.6,96.22 10.72,97.39 C8.8,94.83 7.65,91.67 7.65,88.24 L7.65,10.69 C7.65,8.51 8.12,6.44 8.95,4.56 Z M62.44,15.55 L84.69,15.55 C87.93,15.55 90.54,18.16 90.54,21.4 L90.54,32.87 C90.54,36.11 87.93,38.72 84.69,38.72 L62.44,38.72 C59.19,38.72 56.58,36.11 56.58,32.87 L56.58,21.4 C56.58,18.16 59.19,15.55 62.44,15.55 Z M59.02,51.9 L63.31,51.9 C65.12,51.9 66.57,53.97 66.57,56.53 C66.57,59.1 65.12,61.16 63.31,61.16 L59.02,61.16 C57.21,61.16 55.76,59.1 55.76,56.53 C55.76,53.97 57.21,51.9 59.02,51.9 Z M71.4,51.9 L75.7,51.9 C77.5,51.9 78.95,53.97 78.95,56.53 C78.95,59.1 77.5,61.16 75.7,61.16 L71.4,61.16 C69.6,61.16 68.15,59.1 68.15,56.53 C68.15,53.97 69.6,51.9 71.4,51.9 Z M83.78,51.9 L88.08,51.9 C89.88,51.9 91.33,53.97 91.33,56.53 C91.33,59.1 89.88,61.16 88.08,61.16 L83.78,61.16 C81.98,61.16 80.53,59.1 80.53,56.53 C80.53,53.97 81.98,51.9 83.78,51.9 Z M59.02,64.14 L63.31,64.14 C65.12,64.14 66.57,66.21 66.57,68.77 C66.57,71.33 65.12,73.4 63.31,73.4 L59.02,73.4 C57.21,73.4 55.76,71.33 55.76,68.77 C55.76,66.21 57.21,64.14 59.02,64.14 Z M71.4,64.14 L75.7,64.14 C77.5,64.14 78.95,66.21 78.95,68.77 C78.95,71.33 77.5,73.4 75.7,73.4 L71.4,73.4 C69.6,73.4 68.15,71.33 68.15,68.77 C68.15,66.21 69.6,64.14 71.4,64.14 Z M83.78,64.14 L88.08,64.14 C89.88,64.14 91.33,66.21 91.33,68.77 C91.33,71.33 89.88,73.4 88.08,73.4 L83.78,73.4 C81.98,73.4 80.53,71.33 80.53,68.77 C80.53,66.21 81.98,64.14 83.78,64.14 Z M59.02,76.38 L63.31,76.38 C65.12,76.38 66.57,78.44 66.57,81.01 C66.57,83.57 65.12,85.64 63.31,85.64 L59.02,85.64 C57.21,85.64 55.76,83.57 55.76,81.01 C55.76,78.44 57.21,76.38 59.02,76.38 Z M71.4,76.38 L75.7,76.38 C77.5,76.38 78.95,78.44 78.95,81.01 C78.95,83.57 77.5,85.64 75.7,85.64 L71.4,85.64 C69.6,85.64 68.15,83.57 68.15,81.01 C68.15,78.44 69.6,76.38 71.4,76.38 Z M83.78,76.38 L88.08,76.38 C89.88,76.38 91.33,78.44 91.33,81.01 C91.33,83.57 89.88,85.64 88.08,85.64 L83.78,85.64 C81.98,85.64 80.53,83.57 80.53,81.01 C80.53,78.44 81.98,76.38 83.78,76.38 Z" fill="none" stroke="currentColor" stroke-width="1.5"/></svg>