<svg xmlns="http://www.w3.org/2000/svg" viewBox="0 0 99.05 69.0" width="24" height="24"><path d="M8.04,0 C7.05,0 6.1,0.19 5.22,0.52 L47.58,35.01 C48.72,36.05 50.83,35.95 52.09,35.03 L94.14,0.63 C93.18,0.23 92.12,0 91,0 Z M0.26,6.05 C0.1,6.69 0,7.35 0,8.04 L0,60.96 C0,62.48 0.43,63.9 1.17,65.12 L32.15,32.02 Z M98.87,6.36 L67.42,32.09 L97.9,65.09 C98.62,63.88 99.05,62.47 99.05,60.96 L99.05,8.04 C99.05,7.47 98.98,6.9 98.87,6.36 Z M37.92,36.73 L7.72,68.98 C7.83,68.98 7.93,69 8.04,69 L91,69 C91.13,69 91.26,68.98 91.39,68.98 L61.66,36.8 L56.66,40.88 C52.61,43.89 46.79,44.36 42.72,40.63 L42.89,40.77 Z" fill="none" stroke="currentColor" stroke-width="1.5"/></svg>