<svg xmlns="http://www.w3.org/2000/svg" viewBox="0 0 98.6 98.55" width="24" height="24"><path d="M53.06,0 L53.06,45.4 L98.6,45.4 C98.6,20.32 78.14,0 53.06,0 Z M45.32,7.76 C41.01,7.76 36.85,8.38 32.9,9.5 L45.32,21.86 Z M27.37,11.46 C24.63,12.65 22.03,14.09 19.61,15.77 L45.32,41.35 L45.32,29.32 Z M15.41,19.05 C13.3,20.91 11.37,22.96 9.63,25.18 L41.54,56.91 L37.81,60.66 L6.57,29.59 C5.02,32.15 3.72,34.87 2.69,37.72 L31.79,66.66 L28.06,70.41 L1.03,43.53 C0.36,46.63 0,49.85 0,53.16 C0,53.63 0.02,54.09 0.04,54.56 L22.04,76.44 L18.31,80.19 L1.1,63.08 C5.63,83.38 23.73,98.55 45.4,98.55 C70.47,98.55 90.79,78.24 90.79,53.17 L45.32,53.17 L45.32,48.8 Z M48.52,61 L82.18,61 C79.62,71.51 73.63,81 61.65,87.14 C47.64,93.2 35.19,91.34 24.83,84.75 Z" fill="none" stroke="currentColor" stroke-width="1.5"/></svg>