<svg xmlns="http://www.w3.org/2000/svg" viewBox="0 0 74.99 41.9" width="24" height="24"><path d="M37.34,0.21 C22.55,0 9.43,7.05 1.31,15.07 C13.29,13.6 24.92,7.39 37.26,7.58 L37.29,7.58 L37.31,7.58 C51.56,7.58 61.98,13.99 68.43,20.45 C66.1,7.68 53.79,0.22 37.34,0.21 Z M37.31,14.43 C28.19,14.43 18.44,17.95 11.33,25.3 C22.19,24.67 30.12,21.79 37.31,21.79 C45.41,21.79 52.79,24.84 58.35,30.47 C56.66,18.27 47.28,14.43 37.31,14.43 Z M37.29,28.58 L37.26,28.59 C30.54,28.69 24.98,31.79 21.38,35.25 C28.88,38.25 32.92,36.03 37.34,35.96 C41.4,35.97 45.79,37.94 48.36,40.58 C49.56,31.24 43.58,28.58 37.31,28.58 Z" fill="none" stroke="currentColor" stroke-width="1.5"/></svg>