<svg xmlns="http://www.w3.org/2000/svg" viewBox="0 0 74.78 74.29" width="24" height="24"><path d="M0.03,37.25 C0.06,37.91 0.36,38.53 0.86,38.97 L9.64,46.56 C11.2,47.91 13.62,46.81 13.62,44.74 L13.62,42.03 L27.18,42.03 C28.96,42.03 30.4,40.6 30.4,38.81 L30.4,35.4 C30.4,33.62 28.96,32.19 27.18,32.19 L13.62,32.19 L13.62,29.55 C13.62,27.48 11.2,26.38 9.64,27.73 L0.86,35.32 C0.31,35.8 0,36.51 0.03,37.25 Z M74.75,37.04 C74.72,36.38 74.42,35.76 73.92,35.32 L65.14,27.73 C63.58,26.38 61.16,27.48 61.16,29.55 L61.16,32.26 L47.6,32.26 C45.82,32.26 44.39,33.69 44.39,35.47 L44.39,38.89 C44.39,40.67 45.82,42.1 47.6,42.1 L61.16,42.1 L61.16,44.74 C61.16,46.81 63.58,47.91 65.14,46.56 L73.92,38.97 C74.47,38.49 74.78,37.78 74.75,37.04 Z M37.49,74.26 C38.16,74.23 38.78,73.93 39.21,73.43 L46.81,64.65 C48.16,63.09 47.05,60.66 44.99,60.66 L42.28,60.66 L42.28,47.11 C42.28,45.33 40.84,43.89 39.06,43.89 L35.65,43.89 C33.87,43.89 32.43,45.33 32.43,47.11 L32.43,60.66 L29.79,60.66 C27.73,60.67 26.62,63.09 27.97,64.65 L35.57,73.43 C36.05,73.98 36.76,74.29 37.49,74.26 Z M37.29,0.03 C36.63,0.06 36,0.36 35.57,0.86 L27.97,9.64 C26.62,11.2 27.73,13.62 29.79,13.62 L32.5,13.62 L32.5,27.18 C32.5,28.96 33.94,30.4 35.72,30.4 L39.13,30.4 C40.91,30.4 42.35,28.96 42.35,27.18 L42.35,13.62 L44.99,13.62 C47.05,13.62 48.16,11.2 46.81,9.64 L39.21,0.86 C38.73,0.31 38.02,0 37.29,0.03 Z" fill="none" stroke="currentColor" stroke-width="1.5"/></svg>