<svg xmlns="http://www.w3.org/2000/svg" viewBox="0 0 83.24 80.0" width="24" height="24"><path d="M45.48,11.94 C44.27,11.97 42.66,13.29 41.61,13.53 C41.41,13.57 41.18,13.55 40.98,13.57 C40.91,13.49 40.9,13.43 40.81,13.35 L38.51,13.35 C38.31,13.55 37.88,13.6 37.49,13.73 C35.46,13.78 33.67,14.11 33.31,16.48 C34.84,17.44 36.05,15.74 37.57,15.49 C38.04,15.66 38.56,15.74 39.11,15.7 C39.63,15.91 40.12,16.14 40.58,16.25 C44.15,16.67 46.4,16.48 48.93,17.7 C50.57,18.35 52.03,19.58 53.29,20 C53.29,17.79 51.57,16.93 49.93,16.16 C49.81,14.85 47.46,13.64 46.78,15.06 C45.98,14.81 45.21,14.51 44.57,13.94 C45.37,13.33 46.02,13.76 47.05,13.76 C46.81,12.35 46.21,11.91 45.48,11.94 Z M29.97,17.09 C28.28,16.67 27.06,18.36 26.64,20 C28.1,20 29.55,18.97 29.97,17.09 Z M37.07,17.16 C36.32,17.09 35.59,17.19 34.96,17.71 C33.31,18.97 31.43,20.85 29.98,21.88 C28.71,22.73 26.65,23.34 26.83,24.98 C30.4,24.98 32.28,20.01 35.8,20.2 C36.32,20.34 36.93,20.68 37.55,20.99 C37.12,21.08 36.68,21.14 36.27,21.26 C34.69,20.38 31.75,22.6 30.61,23.95 C29.76,24.8 29.57,26.06 28.92,26.85 C28.31,27.51 27.27,27.94 26.43,28.55 C25.15,29.66 23.72,30.93 23.82,32.62 C22.13,34.94 20.71,37.7 19.99,40.19 L19.99,41.46 C21.25,42.3 21.86,39.16 22.47,37.94 C23.74,34.98 25.61,31.46 28.28,30.2 C29.36,29.59 30.17,29.59 31.01,29.35 C32.47,28.56 33.49,27.1 34.95,26.44 C39.78,23.79 44.92,26.18 48.12,29.29 C46.34,28.08 44.4,27.18 43.29,27.9 C43.71,29.59 45.59,29.59 46.44,30.2 C48.69,31.65 50.99,34.18 52.44,36.67 C53.29,38.31 53.71,40.19 54.32,42.49 C54.32,43.15 54.74,43.76 54.93,44.37 C54.94,44.42 54.92,44.47 54.93,44.52 C54.91,45.39 54.77,46.34 54.74,47.32 C54.58,48.37 54.51,49.35 55.16,50 C55.17,50 55.17,49.99 55.18,49.99 C55.18,49.99 55.17,50 55.18,50 C55.2,49.98 55.2,49.95 55.23,49.93 C55.49,49.73 55.7,49.46 55.87,49.15 C55.91,49.07 55.97,49 56,48.92 C56.02,48.87 56.02,48.81 56.04,48.77 C56.17,48.42 56.28,48.06 56.33,47.66 C56.54,46.44 56.51,45.02 56.39,43.76 C56.38,43.62 56.33,43.46 56.31,43.31 C55.9,37.67 53.24,32.61 50.39,28.98 C48.51,26.45 44.94,23.77 41.19,23.53 C37.9,23.35 35.61,23.96 33.73,25.23 C32.89,25.84 31.85,26.87 30.59,27.48 C30.25,27.64 29.87,27.77 29.53,27.9 C29.68,27.77 29.87,27.66 29.99,27.51 C30.51,26.96 30.62,26.34 30.89,25.89 C32.02,25.52 32.56,24.26 33.72,23.77 C39.96,20.01 47.66,23.12 51.42,26.87 C54.32,30.01 58.08,36.44 58.69,42.3 C58.69,44.79 58.08,47.51 58.08,50 C59.72,49.58 59.53,47.28 59.96,45.64 L59.96,42.49 C59.43,38.27 58.05,34.26 56,30.81 C55.75,29.47 55.15,28.17 54.52,27.28 C54.09,26.67 53.3,26.25 53.06,25.4 C52.88,24.37 52.88,23.34 52.46,22.49 C50.77,20.19 46.22,18.13 43.31,17.9 C41.85,17.71 40.59,17.89 39.32,17.71 C38.59,17.49 37.82,17.24 37.07,17.16 Z M36.41,18.56 C38.71,18.98 40.16,18.98 42.88,19.16 C45.98,19.59 50.39,21.46 51.19,23.76 C51.33,24.27 51.38,24.74 51.44,25.25 C51.08,24.93 50.71,24.61 50.33,24.32 C49.34,21.59 45.65,20.18 42.46,20.01 C40.16,19.77 37.25,20.2 36.41,18.56 Z M26.65,23.34 C24.96,23.76 23.32,25.02 23.5,26.66 C24.77,26.05 26.42,25.4 26.65,23.34 Z M39.66,26.92 C39.14,26.87 38.52,26.97 38.09,27.09 C33.31,27.51 32.47,30.42 29.56,33.33 C28.29,34.6 26.41,36.05 25.62,37.51 C24.35,39.38 23.74,41.68 22.9,43.32 C21.86,45.43 19.98,47.31 20.83,49.19 C22.71,48.53 23.32,46.23 24.35,44.35 C25.38,42.29 26.04,39.38 27.49,37.93 C28.52,36.66 30.4,35.02 31.85,33.94 C33.72,32.49 36.01,31.47 38.67,31.46 C36.65,31.71 34.61,32.46 32.88,33.76 C31.24,34.98 29.13,36.67 28.1,38.12 C27.49,39.81 28.1,41.27 28.1,42.91 C28.52,45.4 27.49,47.7 26.64,49.15 C26.26,49.69 25.75,50.16 25.25,50.65 C25.43,50.22 25.62,49.81 25.79,49.39 C26.45,47.94 26.63,45.83 26.44,43.76 C26.21,43.76 26.21,43.34 26.21,43.53 C26.02,43.76 26.03,43.76 26.03,43.95 C25.63,47.49 23.6,49.21 23.71,52.69 C23.55,53.02 23.39,53.34 23.31,53.75 C25.61,53.75 26.83,52.06 27.91,50.84 C28.94,49.39 30.4,47.27 30.59,45.63 C30.82,43.75 30.39,42.49 31.24,41.03 C31.61,40.42 32.89,40 33.5,39.39 C34.76,38.12 35.37,36.67 36.63,36.06 C38.7,34.98 42.04,34.99 43.49,36.86 C44.94,39.16 44.15,42.3 43.72,45.02 C43.55,46.32 43.26,47.51 42.91,48.62 C42.94,47.81 42.87,46.98 42.87,46.05 C42.87,45.44 43.3,44.36 43.3,43.33 C43.06,41.26 40.39,40 38.51,41.45 C37.9,42.06 37.48,43.14 36.83,43.75 C36.22,44.6 35.61,45.02 34.95,45.44 C32.7,48.54 32.04,53.32 29.36,55.86 C28.28,56.66 26.64,56.89 26.64,58.77 C26.69,58.78 26.73,58.77 26.77,58.78 C26.73,58.84 26.68,58.88 26.64,58.96 C28.71,59.99 30.82,57.31 31.85,56.23 C33.3,54.59 34.57,53.94 36.63,53.14 C38.28,52.29 39.97,47.28 38.94,45.82 C39.12,45.21 39.73,43.94 39.12,43.33 L38.94,43.33 C38.83,43.35 38.77,43.43 38.68,43.48 C39,42.73 39.53,42.14 40.58,42.29 C42.27,42.48 41.61,44.59 41.61,46.05 C41.43,46.66 41.61,47.08 41.61,47.69 C41.61,50.83 39.55,54.59 37.06,56.05 C36.4,56.24 35.6,56.47 34.76,56.89 C33.3,57.69 32.28,59.8 30.82,60.83 C30.63,60.97 30.43,61.05 30.23,61.14 C28.95,61.41 27.98,61.86 28.1,63.12 C28.99,63.25 29.58,62.93 30.2,62.62 C30.54,62.54 30.86,62.42 31.17,62.26 C32.8,61.9 34.38,62.26 35.61,61.67 C37.25,61.06 38.1,59.98 39.55,59.37 C41.62,58.76 43.49,58.53 44.95,57.07 C48.94,53.32 48.52,48.11 49.74,41.68 C49.97,41.44 49.97,40.84 49.97,40.6 C49.97,35.02 43.73,28.96 36.83,29.81 C35.8,30 35.19,30.61 33.92,30.42 C34.53,29.39 35.8,29.15 36.83,28.73 C38.1,28.54 40.82,28.73 40.59,27.7 C40.59,27.18 40.17,26.97 39.66,26.92 Z M29.55,30.01 C27.9,31.04 24.99,33.34 23.92,35.22 C23.12,36.67 22.46,38.97 21.85,40.85 C21.01,42.73 19.97,44.79 20.4,46.66 C22.46,45.21 22.7,42.3 23.73,39.82 C24.34,37.94 25.37,36.06 26.63,34.79 C27.9,33.34 29.97,32.49 29.97,30.01 L29.55,30.01 Z M40.58,32.92 C45.79,33.11 47.48,37.71 47.85,43.34 C47.86,43.33 47.87,43.32 47.88,43.31 C47.79,43.94 47.67,44.54 47.67,45.2 C47.25,50.41 46.4,55.43 42.46,56.88 C44.15,54.77 45.18,52.52 45.98,49.57 C46.4,48.12 47.42,45.64 45.81,45.02 C46.33,40.86 45.93,36.29 43.49,34.79 C37.91,31.04 33.07,38.13 29.98,39.58 C29.56,38.13 31.43,37.71 32.46,36.86 C32.89,36.44 33.07,35.83 33.5,35.64 C35.19,33.95 37.9,32.92 40.58,32.92 Z M41.09,37.84 C40.6,37.85 40.23,38.22 40.39,39.16 C41.42,39.39 42.03,39.81 42.69,40 C43.07,38.83 41.91,37.82 41.09,37.84 Z M38.51,37.87 C37.15,37.82 36.11,39.42 35.19,40.19 C33.5,41.88 29.99,44.18 31.63,46.66 C33.08,46.05 33.08,44.6 33.92,43.52 C35.19,42.06 37.25,41.46 38.28,39.82 C38.71,39.39 39.98,39.58 39.98,38.55 C39.45,38.08 38.96,37.88 38.51,37.87 Z M52.03,43.34 C49.97,43.76 50.81,45.82 50.81,46.66 C52.64,46.48 53.3,44.18 52.03,43.34 Z M37.48,47.2 C37.53,47.22 37.57,47.27 37.67,47.27 C37.9,49.38 36.64,51.87 34.95,52.1 C35.79,50.42 36.63,48.96 37.24,47.27 C37.36,47.18 37.43,47.18 37.48,47.2 Z M52.45,49.99 C52.03,50.23 52.02,50.41 52.02,50.6 C50.15,54.17 49.96,56.89 46.39,58.96 C44.33,60.23 41.24,60.22 38.7,61.68 C37.96,62.12 37.27,62.95 36.51,63.72 C34.59,63.37 30.57,63.57 29.97,65.42 C30.95,66.02 32.37,65.99 33.65,65.65 C33.52,65.81 33.39,65.98 33.31,66.23 C35.37,66.65 36.45,65.01 38.28,64.59 C41,63.74 45.78,64.77 45.78,61.86 C44.14,61.86 42.03,63.32 39.78,62.9 C41.61,61.44 44.14,61.68 46.39,60.65 C48.27,59.8 49.72,57.92 50.99,56.23 C51.14,56 51.29,55.73 51.44,55.47 C50.69,57.48 49.65,59.46 48.5,60.61 C47.66,61.27 46.63,61.27 46.63,62.72 C49.11,63.33 50.14,60 51.6,58.73 C52.44,57.93 53.29,57.7 53.9,57.09 C55.35,55.63 56.62,52.72 56.2,50.19 C56.01,50.19 55.78,50 55.78,50 C54.56,51.64 54.32,55.4 52.44,56.06 C52.86,54.37 54.74,51.88 53.48,50.19 C53.19,50.31 53.01,50.51 52.88,50.73 C52.87,50.49 52.91,50.24 52.87,49.99 L52.45,49.99 Z M33.43,52.21 C33.4,52.3 33.34,52.39 33.31,52.48 C33.24,52.65 33.03,52.93 32.86,53.18 C33.05,52.85 33.25,52.55 33.43,52.21 Z M43.46,52.35 C41.56,56.11 38.08,58.98 34.16,60.4 C33.89,60.5 33.56,60.54 33.26,60.6 C33.94,59.92 34.63,59.27 35.34,58.72 C36.16,58.51 37.11,58.31 37.9,57.69 C39.93,56.69 42.05,54.57 43.46,52.35 Z M56.01,56.67 C53.71,57.7 52.68,60 51.22,61.27 C50.15,62.49 48.5,63.15 47.05,63.94 C45.78,64.79 44.14,65.4 43.29,66.66 C47.47,66.48 49.11,63.15 53.28,62.49 C53.89,61.65 54.93,61.46 54.74,60.19 C54.13,60 53.89,61.04 53.28,60.62 C54.32,59.4 56.62,58.74 56.39,56.67 L56.01,56.67 Z M41.58,67.54 C39.55,67.42 37.06,68.59 38.29,70 L40.4,70 C41.44,69.39 43.08,69.39 43.31,68.12 C42.89,67.76 42.26,67.58 41.58,67.54 Z M0,40.02 C0,17.92 18.72,0 41.62,0 C64.75,0 83.24,17.92 83.24,40.02 C83.24,62.31 64.75,80 41.62,80 C18.72,80 0,62.31 0,40.02 Z" fill="none" stroke="currentColor" stroke-width="1.5"/></svg>