<svg xmlns="http://www.w3.org/2000/svg" viewBox="0 0 80.0 80.0" width="24" height="24"><path d="M37.56,71.54 L38.77,71.58 C39.27,71.54 39.55,71.25 40.46,71.01 C41.24,70.72 41.51,70.37 41.7,69.76 C41.14,69.28 39.76,69.28 38.87,69.52 C36.86,70.06 36.91,70.98 37.56,71.54 Z M33.01,70.96 L33.01,70.96 C34.04,71.4 34.97,70.9 36.18,69.93 C37.43,68.95 38.24,68.55 39.94,68.45 C41.11,68.38 41.85,68.29 42.74,68.18 C45.02,67.95 45.88,66.78 45.85,65.28 C44.61,65.39 43.64,65.99 42.56,66.36 C41.56,66.76 40.49,67.03 39.53,66.76 C40.07,66.29 40.7,65.81 42.42,65.23 C44.66,64.66 46.36,64.15 47.65,62.91 C50.13,60.64 52.36,56.21 52.88,54.28 C53.14,53.17 53.4,51.86 53.08,50.46 L52.55,50.47 C51.61,51.86 51.09,54.14 50.18,56.31 C48.79,60.05 46.95,62.33 42.64,63.31 C41.04,63.71 39.53,64.39 38.67,65.06 C36.95,66.4 36.07,68.41 34.81,69.09 C33.56,69.69 33.14,70.04 33.01,70.96 Z M43.99,69.77 C45.62,69.66 46.84,69.01 47.99,68.27 C49.88,67.02 51.81,65.34 54.3,64.98 C54.62,64.39 55.3,64.16 55.63,63.42 C55.86,62.87 55.87,62.44 55.37,62.57 C55,62.69 54.87,62.95 54.6,63.1 C54.48,63.12 54.39,63.03 54.3,62.94 C54.55,62.66 54.9,62.33 55.45,61.91 C56.41,61.14 57.35,60.41 57.43,59.3 C57.47,58.9 57.39,58.68 56.98,58.79 C55.67,59.11 54.21,60.86 52.72,62.92 C51.94,64.27 50.08,65.27 48.05,66.49 C45.47,67.85 44.35,68.59 43.99,69.77 Z M46.68,65.15 L46.68,65.15 C47.14,65.29 47.79,65.27 48.35,65.14 C49.5,64.84 50.39,63.6 51,62.79 C51.93,61.45 52.74,60.38 53.96,59.86 C55.37,59.22 55.62,58.95 56.26,58.21 C57.37,56.86 58.33,55.12 58.56,53.16 C58.53,52.27 58.71,50.88 58.03,50.83 C57.62,50.92 57.25,51.72 56.98,52.34 C56.3,53.83 56.14,54.81 55.4,56.16 C55.04,56.79 54.61,57.25 53.82,57.56 C53.93,57.15 54.12,56.69 54.34,56.21 C54.9,55.08 55.41,54.15 55.64,53.11 C55.8,52.22 55.72,51.5 55.15,50.97 C54.61,51.06 54.23,51.48 54.01,52.22 C53.74,53.86 53.23,55.44 52.71,56.73 C51.68,59.07 50.47,61.2 49.12,62.43 C48.77,62.77 48.28,63.17 47.72,63.43 C47.13,63.71 46.7,64.22 46.68,65.15 Z M29.48,68.95 C30.15,69.64 31.21,69.69 32.29,69.4 C34.23,68.79 35.09,67.67 35.23,67.1 C34.33,66.96 33.34,66.9 31.96,67.16 C30.28,67.51 29.68,68.16 29.48,68.95 Z M27.6,67.16 L27.6,67.16 C28.27,67.23 28.93,67.13 29.57,66.78 C30.89,65.87 31.9,65.92 33.65,65.78 C35.78,65.6 36.62,65.29 38.57,63.8 C39.81,62.86 40.68,62.59 43.91,61.61 C45.91,60.9 47.38,59.6 48.87,57.16 C51,53.77 51.13,47.78 52.16,42.46 C52.38,41.11 53,40.51 51.72,36.79 C50.53,33.64 48.05,30.82 44.63,29.1 C41.77,27.7 39.26,27.48 37.1,27.89 C36.14,28.23 35.26,28.67 34.3,28.57 C34.59,28.14 34.98,27.75 35.55,27.45 C36.78,26.9 37.52,26.6 38.97,26.57 C40.51,26.51 41.01,26.39 41.61,26.04 C42.01,25.79 42.03,25.22 41.68,24.95 C40.83,24.29 39.19,24.48 37.46,24.79 C35.23,25.29 33.43,26.61 31.41,29.42 C30.23,30.92 29.1,32.35 27.16,34.06 C24.96,36.17 24.36,37 23.14,40.3 C21.38,45.42 20.9,44.91 19.43,48.17 C19.1,49.06 18.98,50.04 19.31,50.71 C21.44,49.73 21.96,47.86 23.24,44.95 C24.07,43.27 24.21,42.52 24.82,41.24 C25.76,38.87 26.22,37.9 28.25,35.96 C31.23,33.13 33.2,31.58 34.82,30.86 C37.51,29.59 40.97,29.33 43.77,30.82 C46.35,32.22 48.24,34.3 49.48,37.02 C50.34,39.06 50.44,40.56 50.21,42.07 C49.89,43.94 49.66,46.11 49.49,48.54 C49.1,51.67 48.66,54.17 47.35,56.52 C46.1,58.41 45.09,58.93 43.89,59.49 C45.37,57.92 46.65,55.5 47.48,52.53 C48.05,49.96 48.62,49.31 48.68,47.38 C48.69,46.46 48.18,45.84 47.62,45.65 C46.78,46.33 46.68,47.55 46.68,48.94 C46.69,51.48 44.71,55.5 42.67,57.98 C40.74,60.5 37.08,62.95 34.17,63.9 C32.26,64.46 31.29,64.22 29.4,64.84 C28.09,65.27 27.49,66.04 27.6,67.16 Z M31.55,63.74 C32.01,63.86 32.56,63.86 33.18,63.42 C33.9,62.87 34.4,62.55 36.1,61.94 C38.89,60.94 42.09,57.26 43.33,54.94 C44.95,52.5 46.58,45.6 45.57,39.97 C45.02,36.35 43.37,34.77 40.17,34.24 C38.12,33.98 35.92,34.97 33.25,37.25 C31.28,38.81 30,40.3 28.76,40.84 C28.62,40.04 29.01,39.33 30.23,38.58 C32.42,37.36 31.48,36.74 33.38,35.5 C35.1,34.27 37.42,33.32 39.4,33.29 C42.39,33.18 44.55,34.58 45.86,37.07 C46.88,39.08 47.57,42.05 47.58,44.96 C49.55,44.61 49.41,40.93 48.38,37.81 C47.55,35.1 44.37,31.4 39.55,31.52 C37.8,31.51 35.73,31.95 34.08,32.88 C32.66,33.69 31.41,34.66 29.59,36.21 C27.05,38.47 26.29,39.35 26.56,41.86 C26.78,43.55 27.12,44.87 26.94,46.82 C26.8,48.76 25.75,51.87 23.96,53.3 C22.65,54.62 22,55.65 21.94,56.84 C24.28,57.04 26.32,54.36 27.88,51.54 C29.55,48.74 29.64,47.25 29.59,45.22 C29.54,43.81 29.84,42.48 30.99,41.75 C32.26,40.86 32.89,40.22 33.82,38.96 C34.88,37.51 35.44,36.74 37.64,36.22 C39.23,35.93 41.99,36.09 43.26,38.18 C44.62,40.99 43.73,43.52 43.54,45.83 C43.1,50.17 42.34,52.24 41.49,54.1 C40.27,56.44 38.22,59.09 35.45,60.1 C32.73,61.3 31.98,62.05 31.55,63.74 Z M25.36,64.14 L25.36,64.14 C27.28,64.39 28.53,64.08 30.29,62.41 C32.13,60.78 32.86,59.43 35.82,58.34 C37.67,57.78 38.99,56.58 40.53,54.17 C41.9,51.87 42.49,49.93 42.36,46.99 C42.18,45.08 42.58,44.62 42.81,43.56 C43.22,41.48 41.83,40.24 40.43,39.85 C38.9,39.5 37.15,39.78 36.27,41.35 C35.77,42.24 35.21,43.19 34.27,43.8 C32.23,45.07 31.19,47.67 30.54,49.11 C29.11,52.28 27.81,55.69 25.02,57.17 C23.74,57.82 23.13,58.63 23.23,59.62 C24.08,59.97 25.04,59.6 26.05,58.89 C28.73,57.1 30.16,54.24 32.08,50.98 C33.61,48.01 35.17,45.56 36.83,44.26 C37.14,42.4 37.94,40.87 39.61,41.25 C40.47,41.35 41.06,42.13 40.85,43.67 C40.65,44.96 40.57,45.86 40.8,46.59 C41.02,47.95 40.53,49.82 39.41,52.04 C38.41,53.9 36.66,56.14 34.81,56.81 C32.88,57.29 32.41,57.67 31.05,59.03 C30.04,60.09 28.57,61.83 27.62,62.27 C26.19,62.88 25.54,63.18 25.36,64.14 Z M23.76,61.79 C25.55,62.93 27.45,61.44 29.25,59.56 C31.17,57.3 31.93,56.67 34.13,55.53 C36.08,54.5 36.98,54.87 38.6,51.53 C39.49,49.75 40.21,46.61 39.2,45.43 C39.94,44.15 40.18,42.58 39.45,42.34 C38.36,42.2 38,43.72 37.72,44.77 C34.93,46.9 33.52,50.41 31.96,54.03 C31.3,55.22 30.78,55.61 29.94,56.63 C28.23,58.45 26.82,59.68 25.82,60.12 C24.74,60.53 24.26,60.88 23.76,61.79 Z M34.37,53.06 C35.91,49.75 36.46,49.24 37.25,47.02 L37.73,47.2 C37.76,48.48 37.56,49.31 37.27,50.19 C36.46,52.13 35.36,52.99 34.37,53.06 Z M30.64,47.13 C31.23,46.81 31.67,46.27 32.01,45.27 C32.59,43.74 32.81,43.52 34.08,42.4 C35.13,41.59 36.13,40.71 36.55,39.96 C36.67,39.76 36.77,39.52 36.92,39.39 C37.19,39.15 38.36,39.11 38.6,38.36 C38.75,37.8 37.61,37.19 36.86,37.42 C36,37.6 35.15,38.72 34.32,39.72 C32.91,41.34 31.8,42.11 30.96,43.54 C30.12,45.14 30.15,46.01 30.64,47.13 Z M20.53,54.62 C21.85,53.58 23.05,52.13 24.16,50.41 C25.13,48.85 25.93,47.16 25.66,44.69 C25.56,44.15 25.46,43.86 25.11,43.66 C24.87,43.54 24.58,44.01 24.52,44.4 C24.33,45.77 23.21,47.6 22.08,49.19 C20.9,50.78 20.22,52.5 20.53,54.62 Z M52.19,49.16 C52.67,48.98 53.52,48.14 53.8,46.46 C54.12,44.89 53.9,43.79 53.29,43.12 C52.6,43.39 52.08,44.35 52.07,45.46 C52.03,46.69 52.08,47.93 52.19,49.16 Z M54.96,49.85 L54.96,49.85 C56.7,48.74 56.76,45.45 56.44,42.73 C56.21,40.08 55.22,37.13 53.37,33.82 C51.06,29.64 48.38,27.06 44.89,25.71 C44.11,25.43 42.95,25.24 42.51,25.74 C42.53,26.9 43.6,27.47 44.79,27.83 C46.51,28.32 48.8,30.62 50.35,32.57 C52.89,35.88 53.14,38.34 53.89,40.99 C54.15,42.24 54.55,42.52 54.81,43.52 C54.96,44.05 54.86,44.76 54.77,45.46 C54.41,47.64 54.3,49.06 54.96,49.85 Z M18.82,46.14 C21.59,43.94 21.36,41.12 22.87,38.14 C23.9,36.13 25.24,33.82 27.41,32.35 C28.94,31.37 29.79,30.01 29.39,28.84 C27.52,29.84 25.82,31.04 24.29,32.42 C21.39,35.25 21.64,37.49 20.03,40.8 C18.8,43.52 18.64,45 18.82,46.14 Z M18.18,40.83 C18.91,41.19 19.54,40.18 19.96,39.03 C20.22,38.29 20.45,37.56 20.81,36.74 C21.05,36.03 21.77,35.02 22.19,34.21 C23.37,32.08 25.48,29.04 28.46,28.14 C30.73,27.95 31.51,27.16 33.7,25.25 C36.26,23.22 40.89,22.99 44.62,24.33 C49.46,26.28 52.18,29.48 54.54,33.73 C57.02,38.31 57.62,42.31 57.38,45.85 C57.21,47.71 57.38,48.99 57.73,49.82 C58.42,49.43 59.02,48.65 59.26,46.94 C59.49,42.92 59.12,38.73 57.1,34.75 C54.23,27.97 49.29,23.6 45.5,22.29 C42.48,20.95 36.53,21.4 33.41,23.24 C32.06,24.18 30.78,25.55 29.03,26.09 C26.25,26.81 24.45,28.5 23.23,29.89 C21.29,32.08 19.8,34.78 18.8,37.27 C18.3,38.54 17.69,40.48 18.18,40.83 Z M19.82,32.12 C20.47,31.91 21.32,31.11 21.94,30.19 C22.81,28.75 23.87,27.81 25.16,26.98 C26.35,26.19 27.28,25.64 27.77,24.3 C28.14,23.3 29.16,22.25 30.11,21.62 C31.96,20.35 33.44,19.74 35.3,18.64 C34.47,17.81 32.51,18.19 31.05,19.04 C28.97,20.26 27.45,21.32 26.93,22.84 C26.34,24.18 26.01,24.85 24.66,25.55 C23.2,26.22 22.71,26.78 21.61,27.87 C19.97,29.43 19.44,30.9 19.82,32.12 Z M21.27,26.51 C22,26.14 23,25.64 23.87,25.13 C25.39,24.19 25.72,23.07 25.77,22.23 C24.67,22.42 23.74,22.77 22.9,23.41 C21.21,24.75 21.38,25.69 21.27,26.51 Z M23.08,22.06 C24.1,22.11 24.91,21.84 25.62,21.5 C27.39,20.59 29.04,18.88 30.34,18.09 C32.38,16.8 34.27,16.74 35.64,17.42 C37.28,18.19 37.8,18.28 40.56,18.13 C42.78,18.03 44.84,18.53 46.39,19.17 C49.11,20.35 50.18,21.29 52.58,22.22 C52.29,20.78 51.47,19.25 48.52,17.99 C45.87,16.81 42.94,16.56 39.6,16.51 C36.58,16.49 35.38,15.9 34.88,14.92 C37.67,15.7 40.25,15.57 42.66,15.84 C46.2,16.06 49.47,17.35 51.83,18.93 C53.11,19.98 53.58,20.48 53.65,21.89 C53.73,23.66 54.52,24.42 55.09,25.04 C56.43,26.33 56.87,27 57.37,27.9 C57.97,29.13 58.62,30.27 59.45,31.1 C59.72,30.46 59.83,28.97 59.37,27.75 C59.03,26.5 58.06,24.98 56.87,23.8 C56.35,23.39 55.94,23.04 55.79,22.77 C55.57,22.37 55.46,21.75 55.3,20.84 C55.13,19.63 54.54,18.79 53.19,17.79 C49.85,15.44 44.76,14.09 41.79,14.33 C38.28,14.52 38.13,13.84 35.15,13.71 C33.19,13.54 31.3,15.52 29.74,16.54 C26.65,19.04 25.19,19.34 24.2,20 C23.2,20.69 22.99,21.38 23.08,22.06 Z M25.79,17.76 C26.97,17.61 27.7,17.29 28.5,16.64 C29.21,16.11 29.77,15.35 30.07,14.4 C29.13,14.27 28.24,14.38 27.48,15 C26.58,15.69 25.96,16.9 25.79,17.76 Z M30.17,13.49 C31.05,13.97 31.99,13.74 33.02,13.24 C34.12,12.76 35.23,12.35 36.66,12.87 C38.27,13.51 40.45,13.58 42.33,13.62 C44.44,13.65 46.87,14.05 48.6,14.85 C50.01,15.55 51.64,16.47 52.83,16.74 C52.77,16.07 52.55,15.32 51.61,14.58 C50.32,13.54 47.19,12.6 45.95,12.36 C44.97,12.16 43.99,11.96 42.77,11.31 C43.8,10.8 44.46,11.13 45.62,11.11 C45.43,10.54 45.23,9.87 44.35,9.67 C43.47,9.45 42.34,9.92 41.15,10.39 C40.07,10.83 39.22,11.09 37.43,11.08 C35.24,11.02 33.61,10.99 32.48,11.27 C30.68,11.79 30.32,12.68 30.17,13.49 Z M37.16,9.67 C37.16,10.1 37.97,10.37 38.87,10.31 C39.69,10.3 40.63,9.83 40.56,9.39 C40.47,8.87 39.94,8.55 38.8,8.72 C37.87,8.82 37.16,9.17 37.16,9.67 Z M46.63,11.61 C47.03,11.97 47.47,12.16 47.9,12.36 C48.57,12.64 49.29,12.8 49.84,12.55 C50.01,11.98 49.59,11.38 48.74,10.99 C47.41,10.44 46.58,10.97 46.63,11.61 Z M59.69,51.25 C61.74,50.42 62.08,44.79 61.74,42.5 C60.94,36.44 58.17,30.18 54.62,26.26 C52.2,23.36 46.75,18.87 39.91,18.98 C35.77,19.08 32.96,20.26 30.5,22.06 C29.13,23.21 28.63,24.34 28.75,24.75 C29.55,24.89 30.31,24.6 31.2,23.65 C33.01,21.44 36.8,20.62 39.56,20.63 C44.49,20.69 50.04,22.99 53.64,27.58 C55.95,30.67 57.89,34.05 59.11,37.71 C59.85,40.14 60.39,42.72 60.21,44.51 C59.98,47.01 59.49,49.67 59.69,51.25 Z M39.05,38.6 C40.39,38.66 41.52,39.18 42.46,39.62 C42.69,39.22 42.77,38.58 42.21,37.97 C41.61,37.43 40.76,36.99 39.77,37.19 C38.84,37.42 38.98,38.14 39.05,38.6 Z M16.18,0 C63.99,0 63.99,0 63.99,0 C72.81,0 80,7.35 80,16.16 C80,63.97 80,63.97 80,63.97 C80,72.78 72.81,80 63.99,80 C16.18,80 16.18,80 16.18,80 C7.36,80 0,72.78 0,63.97 C0,16.16 0,16.16 0,16.16 C0,7.35 7.36,0 16.18,0 Z" fill="none" stroke="currentColor" stroke-width="1.5"/></svg>