<svg xmlns="http://www.w3.org/2000/svg" viewBox="0 0 91.71 70.79" width="24" height="24"><path d="M66.04,0 C61.44,0 57.11,1.22 53.37,3.35 L53.5,3.42 C54.31,3.78 55.1,4.19 55.86,4.63 C58.76,3.22 62,2.41 65.42,2.32 C63.45,3.75 61.42,5.59 59.76,7.32 C59.94,7.47 60.12,7.63 60.29,7.78 C62.15,5.84 64.49,3.75 66.62,2.31 C69.65,2.39 72.55,3.03 75.19,4.15 C75.4,7.12 75.28,10.05 74.88,12.88 C71.04,11.16 66.45,9.94 62.4,9.81 C62.62,10.05 62.84,10.29 63.05,10.53 C66.87,10.77 71.19,11.98 74.77,13.6 C73.9,19.13 72.06,24.3 69.92,28.82 C69.92,29.39 69.89,29.96 69.86,30.53 C72.28,25.7 74.44,20.03 75.43,13.91 C76.64,14.49 77.76,15.11 78.72,15.75 L78.73,15.76 L78.73,15.76 C79.67,16.35 80.56,17 81.4,17.67 C80.77,19.44 80.05,21.09 79.27,22.61 C76.64,27.46 73.1,31.44 69.39,34.17 C69.32,34.51 69.24,34.85 69.16,35.19 C73.2,32.39 77.06,28.16 79.89,22.94 L79.89,22.93 L79.89,22.93 C80.66,21.45 81.36,19.84 81.99,18.12 C84.48,20.18 86.59,22.53 88.48,24.98 C84.09,27.28 79.45,30.9 75.88,34.43 L75.88,34.44 L75.88,34.44 C74.53,35.8 73.31,37.16 72.22,38.51 C70.69,38.47 69.35,38.35 68.29,38.15 C68.21,38.37 68.12,38.59 68.04,38.81 C69.04,39.02 70.27,39.16 71.66,39.22 C69,42.61 67.09,45.94 65.81,49.01 C64.38,49 62.97,48.86 61.61,48.6 C60.94,49.26 60.24,49.88 59.5,50.47 C61.59,51.02 63.78,51.32 66.04,51.32 C80.2,51.32 91.71,39.82 91.71,25.66 C91.71,11.5 80.2,0 66.04,0 Z M42.07,3.73 C28.27,3.73 17,15 17,28.79 C17,33.7 18.43,38.28 20.88,42.15 L1.43,61.45 C0.01,62.86 0,65.15 1.41,66.57 L4.17,69.35 C5.58,70.78 7.87,70.79 9.3,69.37 L28.79,50.03 C32.65,52.45 37.2,53.86 42.07,53.86 C55.87,53.86 67.14,42.59 67.14,28.79 C67.14,15 55.87,3.73 42.07,3.73 Z M75.9,4.48 C78.75,5.8 81.29,7.68 83.37,9.98 C82.97,12.48 82.38,14.81 81.65,16.97 C80.84,16.34 80,15.73 79.11,15.17 L79.11,15.17 C78.07,14.47 76.85,13.8 75.55,13.18 C75.95,10.36 76.09,7.44 75.9,4.48 Z M83.96,10.66 C87.13,14.45 89.13,19.26 89.38,24.53 C89.29,24.58 89.21,24.62 89.13,24.66 C87.14,22.08 84.9,19.59 82.23,17.42 C82.95,15.33 83.54,13.07 83.96,10.66 Z M42.07,11.73 C51.55,11.73 59.14,19.32 59.14,28.79 C59.14,38.27 51.55,45.86 42.07,45.86 C32.6,45.86 25,38.27 25,28.79 C25,19.32 32.6,11.73 42.07,11.73 Z M37.04,15.96 C36.54,15.96 36.14,16.37 36.15,16.87 L36.15,41.73 C36.76,42.05 37.36,42.32 37.95,42.52 L37.95,16.87 C37.96,16.36 37.55,15.95 37.04,15.96 Z M38.4,16.84 L38.4,32.44 L56.08,25.84 Z M41.95,21.03 L42.71,24.94 L41.21,21.79 Z M88.91,25.55 C89.08,25.76 89.23,25.97 89.39,26.19 C89.31,29.78 88.43,33.17 86.9,36.18 C82.6,37.85 77.33,38.52 73.12,38.52 C74.11,37.33 75.18,36.13 76.37,34.93 C79.93,31.41 84.58,27.8 88.91,25.55 Z M41.97,27 Z M86.41,37.11 C82.49,44.07 75.1,48.81 66.58,49 C67.88,45.94 69.83,42.62 72.55,39.23 C76.7,39.3 81.94,38.7 86.41,37.11 Z" fill="none" stroke="currentColor" stroke-width="1.5"/></svg>