<svg xmlns="http://www.w3.org/2000/svg" viewBox="0 0 79.91 80.0" width="24" height="24"><path d="M0,40.02 C0,17.92 17.92,0 39.98,0 C62.22,0 79.91,17.92 79.91,40.02 C79.91,62.31 62.22,80 39.98,80 C17.92,80 0,62.31 0,40.02 Z M40.43,15.11 L39.69,15.11 L39.69,64.98 L40.43,64.98 L40.43,15.11 Z M20.59,60.01 L22.7,60.01 L24.37,58.17 L18.9,58.17 L20.59,60.01 Z M56.72,60.01 L58.84,60.01 L60.51,58.17 L55.03,58.17 L56.72,60.01 Z M25.57,56.25 L17.7,56.25 L17.7,57.62 L25.57,57.62 L25.57,56.25 Z M61.7,56.25 L53.84,56.25 L53.84,57.62 L61.7,57.62 L61.7,56.25 Z M25.57,53.31 L17.7,53.31 L17.7,55.32 L25.57,55.32 L25.57,53.31 Z M61.7,53.31 L53.84,53.31 L53.84,55.32 L61.7,55.32 L61.7,53.31 Z M25.57,51.01 L17.7,51.01 L17.7,52.58 L25.57,52.58 L25.57,51.01 Z M61.7,51.01 L53.84,51.01 L53.84,52.58 L61.7,52.58 L61.7,51.01 Z M17.04,50.51 C17.04,50.44 26.04,50.58 26.04,50.51 C26.43,47.06 27.63,43.34 28.47,41.83 C30.41,38.33 32.37,36 32.37,32.43 C32.37,26.78 28.06,22.26 21.77,22.26 C15.07,22.26 11.6,26.33 11.31,32.44 C11.42,36 12.21,38.08 14.12,41.15 C15.88,43.97 16.79,48.19 17.04,50.51 Z M53.18,50.51 C53.18,50.44 62.17,50.58 62.17,50.51 C62.57,47.06 63.76,43.34 64.6,41.83 C66.55,38.33 68.51,36 68.51,32.43 C68.51,26.78 64.19,22.26 57.91,22.26 C51.21,22.26 47.74,26.33 47.45,32.44 C47.55,36 48.35,38.08 50.26,41.15 C52.01,43.97 52.93,48.19 53.18,50.51 Z M34.13,42.7 L34.63,41.78 L31.34,40.01 L30.85,40.93 L34.13,42.7 Z M70.27,42.7 L70.76,41.78 L67.48,40.01 L66.98,40.93 L70.27,42.7 Z M9.84,42.7 L13.12,40.93 L12.63,40.01 L9.34,41.78 L9.84,42.7 Z M45.97,42.7 L49.26,40.93 L48.76,40.01 L45.48,41.78 L45.97,42.7 Z M36,39.69 L36.37,38.72 L32.88,37.39 L32.51,38.36 L36,39.69 Z M8.08,39.69 L11.56,38.36 L11.19,37.39 L7.7,38.72 L8.08,39.69 Z M72.13,39.69 L72.5,38.72 L69.02,37.39 L68.65,38.36 L72.13,39.69 Z M44.21,39.69 L47.7,38.36 L47.32,37.39 L43.84,38.72 L44.21,39.69 Z M37.41,35.11 L33.72,34.61 L33.58,35.64 L37.27,36.15 L37.41,35.11 Z M6.55,35.11 L6.69,36.15 L10.38,35.64 L10.24,34.61 L6.55,35.11 Z M73.55,35.11 L69.85,34.61 L69.71,35.64 L73.41,36.15 L73.55,35.11 Z M42.68,35.11 L42.82,36.15 L46.52,35.64 L46.38,34.61 L42.68,35.11 Z M37.44,32.24 L37.3,31.2 L33.6,31.71 L33.74,32.74 L37.44,32.24 Z M6.55,32.24 L10.24,32.74 L10.38,31.71 L6.69,31.2 L6.55,32.24 Z M73.57,32.24 L73.43,31.2 L69.74,31.71 L69.88,32.74 L73.57,32.24 Z M42.68,32.24 L46.38,32.74 L46.52,31.71 L42.82,31.2 L42.68,32.24 Z M7.61,27.35 L7.34,28.35 L10.93,29.34 L11.21,28.33 L7.61,27.35 Z M36.3,27.35 L32.71,28.33 L32.98,29.34 L36.58,28.35 L36.3,27.35 Z M43.75,27.35 L43.47,28.35 L47.07,29.34 L47.34,28.33 L43.75,27.35 Z M72.44,27.35 L68.84,28.33 L69.12,29.34 L72.72,28.35 L72.44,27.35 Z M9.53,23.7 L8.93,24.56 L11.98,26.7 L12.58,25.84 L9.53,23.7 Z M34.25,23.95 L31.2,26.09 L31.8,26.94 L34.85,24.8 L34.25,23.95 Z M45.64,23.81 L45.04,24.66 L48.09,26.81 L48.69,25.95 L45.64,23.81 Z M70.39,23.95 L67.34,26.09 L67.93,26.94 L70.98,24.8 L70.39,23.95 Z M11.87,20.94 L11.14,21.68 L13.79,24.3 L14.52,23.56 L11.87,20.94 Z M47.95,21.01 L47.21,21.75 L49.86,24.38 L50.6,23.64 L47.95,21.01 Z M31.8,21.26 L29.15,23.89 L29.89,24.63 L32.54,22 L31.8,21.26 Z M67.94,21.26 L65.29,23.89 L66.02,24.63 L68.67,22 L67.94,21.26 Z M27.84,18.93 L26.16,22.26 L27.09,22.72 L28.77,19.4 L27.84,18.93 Z M15.89,18.65 L14.96,19.12 L16.64,22.45 L17.57,21.98 L15.89,18.65 Z M52.06,18.76 L51.12,19.23 L52.8,22.56 L53.73,22.09 L52.06,18.76 Z M63.97,18.93 L62.29,22.26 L63.22,22.72 L64.9,19.4 L63.97,18.93 Z M23.63,17.67 L23.13,21.36 L24.16,21.5 L24.67,17.81 L23.63,17.67 Z M20.36,17.67 L19.33,17.81 L19.83,21.5 L20.86,21.36 L20.36,17.67 Z M56.5,17.67 L55.46,17.81 L55.97,21.5 L57,21.36 L56.5,17.67 Z M59.77,17.67 L59.27,21.36 L60.3,21.5 L60.8,17.81 L59.77,17.67 Z" fill="none" stroke="currentColor" stroke-width="1.5"/></svg>