<svg xmlns="http://www.w3.org/2000/svg" viewBox="0 0 79.91 80.0" width="24" height="24"><path d="M58.18,31.28 C57.19,40.22 53.41,58.52 39.48,64.72 C30.13,60.63 25.28,51.41 22.9,42.56 C21.5,38.47 21.01,34.25 20.78,31.28 C20.47,29.66 20.47,28.45 20.29,27.55 C21.5,27.55 22.49,27.82 23.62,27.82 C32.47,27.82 37.64,23.68 39.48,21.53 C41.41,23.68 46.22,27.82 55.35,27.82 C56.29,27.82 57.19,27.55 58.49,27.55 C58.49,28.45 58.49,29.66 58.18,31.28 Z M59.44,25.3 C58,25.48 56.56,25.48 55.35,25.48 C49.77,25.48 46,24.18 43.57,22.47 C42.36,21.53 41.64,20.9 41.23,20.49 C40.92,19.91 40.7,19.73 40.43,19.73 C40.43,19.5 40.43,19.5 40.43,19.5 C39.48,18.07 39.48,18.07 39.48,18.07 C38.58,19.5 38.58,19.5 38.58,19.5 C38.27,19.73 38.27,19.73 38.27,19.73 C37.28,20.63 33.28,25.48 23.62,25.48 C22.22,25.48 20.78,25.48 19.35,25.3 C18.04,25.3 18.04,25.3 18.04,25.3 C18.04,26.43 18.04,26.43 18.04,26.43 C18.04,26.43 18.04,34.25 20.78,43.28 C23.12,52.31 28.43,62.38 39.08,67.1 C39.48,67.1 39.48,67.1 39.48,67.1 C39.93,67.1 39.93,67.1 39.93,67.1 C50.58,62.38 55.57,52.31 58.18,43.28 C60.56,34.25 60.56,26.43 60.56,26.43 C60.56,25.3 60.56,25.3 60.56,25.3 L59.44,25.3 Z M37.76,37.31 C37.76,37.31 37.76,37.31 37.76,37.31 C37.72,37.58 37.54,37.72 37.31,37.72 C37.04,37.67 36.95,37.31 36.95,37.18 C37.76,34.52 40.46,32.73 43.24,33.31 C43.51,33.31 43.56,33.54 43.51,33.76 C43.51,34.12 43.33,34.16 43.15,34.12 C40.77,33.76 38.52,35.15 37.76,37.31 Z M46.7,40.64 C48.1,37.89 47.11,34.43 44.37,32.91 C41.63,31.42 38.25,32.5 36.91,35.33 C35.42,38.07 36.41,41.58 39.06,43.06 C41.81,44.59 45.27,43.47 46.7,40.64 Z M52.86,28.86 C45.09,28.86 41.09,25.09 39.47,23.2 C37.85,25.09 33.49,28.86 26.12,28.86 C25.13,28.86 24.23,28.68 23.2,28.68 C23.42,29.45 23.42,30.48 23.69,32.01 C23.83,34.57 24.23,38.3 25.45,42.07 C26.57,46.25 28.19,50.61 30.7,54.25 C31.11,53.63 32.05,51.69 35.2,45.89 C36.01,46.34 36.01,46.34 36.01,46.34 C37.04,44.32 37.04,44.32 37.04,44.32 C33.99,42.07 33.04,37.72 34.79,34.16 C36.91,30.21 41.58,28.77 45.45,30.88 C49.22,32.91 50.66,37.8 48.64,41.67 C46.79,45.22 42.84,46.75 39.24,45.63 C38.16,47.56 38.16,47.56 38.16,47.56 C39.06,48.14 39.06,48.14 39.06,48.14 C39.06,48.14 38.25,49.8 33.9,58.03 C35.51,59.56 37.31,60.95 39.47,61.94 C51.24,56.37 54.43,40.01 55.24,32.01 C55.42,30.48 55.42,29.45 55.42,28.68 C54.43,28.68 53.63,28.86 52.86,28.86 Z M0,40 C0,17.98 17.98,0 39.96,0 C62.02,0 79.91,17.98 79.91,40 C79.91,62.07 62.02,80 39.96,80 C17.98,80 0,62.07 0,40 Z" fill="none" stroke="currentColor" stroke-width="1.5"/></svg>