<svg xmlns="http://www.w3.org/2000/svg" viewBox="0 0 80.0 80.0" width="24" height="24"><path d="M40.01,17.65 C31.26,17.65 23.62,22.22 19.56,28.97 L8.68,28.97 C7.79,28.97 7.06,29.69 7.06,30.42 L7.06,30.72 C7.06,31.62 7.79,32.35 8.68,32.35 L17.92,32.35 C17,34.74 16.47,37.31 16.47,40 C16.47,43.67 17.4,47.11 19.02,50.14 L10.14,50.14 L13.69,46.6 C14.26,46.03 14.26,45.01 13.69,44.41 L13.39,44.11 C12.8,43.52 11.9,43.52 11.34,44.11 L5.3,50.27 C5.3,50.44 5.3,50.57 5.13,50.73 C4.84,50.87 4.7,51.3 4.7,51.76 L4.7,52.06 C4.7,52.49 5,52.92 5.3,53.22 L11.34,59.41 C11.9,59.97 12.8,59.97 13.39,59.41 L13.69,59.25 C14.26,58.65 14.26,57.63 13.69,57.06 L10.14,53.52 L21.26,53.52 C25.56,58.9 32.36,62.36 40.01,62.36 C47.74,62.36 54.52,58.9 58.8,53.52 L71.48,53.52 C72.37,53.52 72.93,52.79 72.93,52.06 L72.93,51.76 C72.93,50.87 72.37,50.14 71.48,50.14 L61.02,50.14 C62.63,47.11 63.55,43.67 63.55,40 C63.55,37.31 63.03,34.74 62.11,32.35 L70.02,32.35 L66.47,35.89 C65.87,36.45 65.87,37.48 66.47,38.07 L66.77,38.24 C67.37,38.8 68.23,38.8 68.83,38.24 L74.73,32.05 C74.86,32.05 74.86,31.91 74.99,31.75 C75.16,31.61 75.29,31.19 75.29,30.72 L75.29,30.42 C75.29,29.99 75.15,29.56 74.86,29.26 C74.72,29.26 74.73,29.26 74.73,29.1 L68.83,23.08 C68.23,22.35 67.37,22.35 66.77,23.08 L66.47,23.24 C65.87,23.84 65.87,24.86 66.47,25.42 L69.85,28.97 L60.49,28.97 C56.46,22.22 48.84,17.65 40.01,17.65 Z M40.01,21.63 C46.44,21.63 52.09,24.52 55.65,28.97 L24.5,28.97 C28.04,24.52 33.65,21.63 40.01,21.63 Z M22.36,32.35 L57.79,32.35 C58.93,34.68 59.57,37.27 59.57,40 C59.57,43.76 58.4,47.23 56.4,50.14 L23.75,50.14 C21.75,47.23 20.58,43.76 20.58,40 C20.58,37.27 21.23,34.68 22.36,32.35 Z M26.74,53.52 L53.39,53.52 C49.9,56.61 45.21,58.52 40.01,58.52 C34.87,58.52 30.21,56.61 26.74,53.52 Z M16.18,0 C63.99,0 63.99,0 63.99,0 C72.81,0 80,7.35 80,16.16 C80,63.97 80,63.97 80,63.97 C80,72.78 72.81,80 63.99,80 C16.18,80 16.18,80 16.18,80 C7.36,80 0,72.78 0,63.97 C0,16.16 0,16.16 0,16.16 C0,7.35 7.36,0 16.18,0 Z" fill="none" stroke="currentColor" stroke-width="1.5"/></svg>