<svg xmlns="http://www.w3.org/2000/svg" viewBox="0 0 80.0 69.07" width="24" height="24"><path d="M58.18,66.26 L76.36,34.29 L58.16,2.5 L21.89,2.5 L3.65,34.27 L21.85,66.26 Z M19.79,69.07 L0,34.4 L19.73,0 L60.22,0 L80,34.4 L60.22,69.07 Z M27.96,44.46 C30.86,47.78 35.17,49.89 40,49.89 C44.83,49.89 49.14,47.78 52.04,44.46 Z M26.33,26.86 C24.98,29.12 24.19,31.73 24.19,34.53 C24.19,37.11 24.86,39.54 26.02,41.67 L53.98,41.67 C55.14,39.54 55.8,37.11 55.8,34.53 C55.8,31.73 55.01,29.12 53.67,26.86 Z M40,19.18 C35.34,19.18 31.16,21.16 28.27,24.28 L51.73,24.28 C48.84,21.16 44.66,19.18 40,19.18 Z M40,16.01 C46.61,16.01 52.43,19.31 55.84,24.28 L65.06,24.28 L62.21,21.5 C61.75,21.03 61.75,20.32 62.21,19.84 L62.4,19.72 C62.86,19.19 63.67,19.19 64.13,19.72 L69.08,24.48 C69.08,24.48 69.15,24.48 69.21,24.55 C69.48,24.74 69.61,25.07 69.61,25.4 L69.61,25.67 C69.61,25.94 69.48,26.26 69.29,26.46 C69.21,26.53 69.21,26.67 69.08,26.73 L64.13,31.49 C63.67,31.9 62.86,31.9 62.4,31.49 L62.21,31.3 C61.75,30.84 61.75,30.11 62.21,29.65 L65.11,26.86 L57.31,26.86 C58.41,29.2 59.03,31.8 59.03,34.53 C59.03,37.06 58.51,39.48 57.57,41.67 L66.31,41.67 C66.96,41.67 67.5,42.21 67.5,42.94 L67.5,43.21 C67.5,43.92 66.96,44.46 66.31,44.46 L56.07,44.46 C52.7,49.64 46.76,53.07 40,53.07 C33.24,53.07 27.3,49.64 23.92,44.46 L15.02,44.46 L17.85,47.44 C18.31,47.9 18.31,48.69 17.85,49.23 L17.66,49.42 C17.2,49.89 16.41,49.89 15.94,49.42 L10.91,44.27 C10.91,44.19 10.91,44.19 10.85,44.19 C10.58,43.93 10.39,43.6 10.39,43.21 L10.39,42.94 C10.39,42.61 10.58,42.27 10.79,42.08 C10.85,41.94 10.85,41.88 10.91,41.81 L15.94,36.65 C16.41,36.12 17.2,36.12 17.66,36.65 L17.85,36.85 C18.31,37.38 18.31,38.17 17.85,38.63 L14.94,41.67 L22.42,41.67 C21.48,39.48 20.96,37.06 20.96,34.53 C20.96,31.8 21.58,29.2 22.68,26.86 L13.75,26.86 C13.1,26.86 12.5,26.34 12.5,25.67 L12.5,25.4 C12.5,24.74 13.1,24.28 13.75,24.28 L24.16,24.28 C27.57,19.31 33.39,16.01 40,16.01 Z" fill="none" stroke="currentColor" stroke-width="1.5"/></svg>