<svg xmlns="http://www.w3.org/2000/svg" viewBox="0 0 79.91 80.0" width="24" height="24"><path d="M38.78,8.78 C39.37,8.78 40.18,8.78 40.94,8.78 C40.94,8.78 40.94,8.78 40.94,6.39 C40.18,6.39 39.37,6.39 38.56,6.39 C38.56,6.39 38.56,6.39 38.78,8.78 Z M45.36,9.19 L45.76,6.98 C44.95,6.8 44.14,6.8 43.38,6.62 C43.38,6.62 43.38,6.62 43.15,8.78 C43.78,9.01 44.55,9.01 45.36,9.19 Z M34.37,9.19 C35.18,9.01 35.76,9.01 36.57,9.01 C36.57,9.01 36.57,9.01 36.35,6.8 C35.58,6.8 34.77,6.8 33.96,6.98 C33.96,6.98 33.96,6.98 34.37,9.19 Z M49.55,10.22 L50.13,8.01 C49.55,7.79 48.74,7.61 47.97,7.38 C47.97,7.38 47.97,7.38 47.57,9.59 C48.15,9.82 48.74,10 49.55,10.22 Z M30.18,10.4 C30.76,10 31.57,9.82 32.39,9.59 C32.39,9.59 32.39,9.59 31.75,7.61 C30.99,7.79 30.18,8.01 29.37,8.19 C29.37,8.19 29.37,8.19 30.18,10.4 Z M53.56,11.8 L54.55,9.82 C53.74,9.41 53.15,9.01 52.57,8.78 C52.57,8.78 52.57,8.78 51.57,10.81 C52.16,11.21 52.97,11.39 53.56,11.8 Z M26.17,11.98 C26.75,11.62 27.39,11.39 28.2,11.21 C28.2,11.21 28.2,11.21 27.39,9.01 C26.57,9.41 25.76,9.59 25.18,10 C25.18,10 25.18,10 26.17,11.98 Z M57.34,14.01 L58.74,12.2 C57.97,11.62 57.34,11.21 56.53,10.81 C56.53,10.81 56.53,10.81 55.54,12.79 C56.17,13.19 56.75,13.6 57.34,14.01 Z M22.39,14.19 C22.97,13.78 23.6,13.42 24.19,13.01 C24.19,13.01 24.19,13.01 23.2,11.21 C22.39,11.39 21.8,11.8 21.17,12.38 C21.17,12.38 21.17,12.38 22.39,14.19 Z M60.76,16.62 L62.34,15 C61.75,14.41 61.12,14.01 60.54,13.42 C60.54,13.42 60.54,13.42 59.14,15.22 C59.73,15.81 60.36,16.21 60.76,16.62 Z M18.96,16.8 C19.59,16.39 20,15.99 20.58,15.4 C20.58,15.4 20.58,15.4 19.19,13.6 C18.6,14.19 17.97,14.82 17.39,15.22 C17.39,15.22 17.39,15.22 18.96,16.8 Z M63.96,19.82 L65.54,18.42 C65.13,17.61 64.55,17.02 63.96,16.62 C63.96,16.62 63.96,16.62 62.34,18.01 C62.93,18.6 63.33,19.19 63.96,19.82 Z M15.99,20 C16.39,19.41 16.98,18.78 17.39,18.42 C17.39,18.42 17.39,18.42 15.76,16.8 C15.18,17.38 14.77,18.01 14.19,18.6 C14.19,18.6 14.19,18.6 15.99,20 Z M66.53,23.19 L68.33,22.02 C67.93,21.39 67.52,20.58 67.16,20.22 C67.16,20.22 67.16,20.22 65.36,21.39 C65.76,22.02 66.12,22.61 66.53,23.19 Z M13.38,23.42 C13.78,23.01 14.19,22.38 14.59,21.62 C14.59,21.62 14.59,21.62 12.79,20.4 C12.39,20.99 11.98,21.62 11.39,22.38 C11.39,22.38 11.39,22.38 13.38,23.42 Z M68.56,27.02 L70.54,25.99 C70.13,25.4 69.95,24.82 69.55,24.01 C69.55,24.01 69.55,24.01 67.52,25 C67.93,25.81 68.15,26.39 68.56,27.02 Z M11.39,27.38 C11.8,26.8 11.98,25.99 12.39,25.4 C12.39,25.4 12.39,25.4 10.4,24.41 C10,25 9.59,25.81 9.41,26.62 C9.41,26.62 9.41,26.62 11.39,27.38 Z M70.13,31.21 L72.34,30.4 C72.12,29.59 71.75,29.01 71.53,28.19 C71.53,28.19 71.53,28.19 69.32,29.01 C69.73,29.59 69.95,30.4 70.13,31.21 Z M9.77,31.39 C10.18,30.81 10.4,30.22 10.58,29.41 C10.58,29.41 10.58,29.41 8.38,28.6 C8.2,29.41 7.97,30.22 7.79,30.99 C7.79,30.99 7.79,30.99 9.77,31.39 Z M70.94,35.4 L73.33,35 C73.15,34.19 72.93,33.6 72.93,32.79 C72.93,32.79 72.93,32.79 70.54,33.19 C70.72,34.01 70.94,34.59 70.94,35.4 Z M9.01,35.81 C9.19,35 9.19,34.19 9.41,33.6 C9.41,33.6 9.41,33.6 7.21,33.19 C6.98,33.78 6.8,34.59 6.8,35.4 C6.8,35.4 6.8,35.4 9.01,35.81 Z M71.35,39.59 L73.56,39.59 C73.56,39.01 73.56,38.19 73.56,37.38 C73.56,37.38 73.56,37.38 71.35,37.38 C71.35,38.19 71.35,39.01 71.35,39.59 Z M6.39,40.99 L8.78,40.81 C8.78,40.58 8.78,40.4 8.78,40 C8.78,39.41 8.78,38.6 8.78,37.79 C8.78,37.79 8.78,37.79 6.39,37.79 C6.39,38.42 6.39,39.19 6.39,40 C6.39,40.4 6.39,40.58 6.39,40.99 Z M73.33,44.41 C73.56,43.6 73.56,42.79 73.56,42.02 C73.56,42.02 73.56,42.02 71.35,41.8 C71.35,42.61 71.35,43.42 71.12,44.01 C71.12,44.01 71.12,44.01 73.33,44.41 Z M6.98,45.58 L9.19,45.22 C9.01,44.41 8.78,43.78 8.78,43.01 C8.78,43.01 8.78,43.01 6.57,43.19 C6.8,44.01 6.8,44.82 6.98,45.58 Z M72.52,48.78 C72.75,48.19 72.93,47.38 72.93,46.62 C72.93,46.62 72.93,46.62 70.72,46.21 C70.72,47.02 70.54,47.61 70.13,48.19 C70.13,48.19 70.13,48.19 72.52,48.78 Z M7.97,50 L10.18,49.41 C9.77,48.78 9.77,48.01 9.59,47.2 C9.59,47.2 9.59,47.2 7.39,47.79 C7.61,48.6 7.79,49.41 7.97,50 Z M70.94,53.19 C71.35,52.61 71.53,51.8 71.75,50.99 C71.75,50.99 71.75,50.99 69.73,50.4 C69.55,50.99 69.14,51.8 68.92,52.38 C68.92,52.38 68.92,52.38 70.94,53.19 Z M9.59,54.41 L11.8,53.42 C11.39,52.79 11.17,52.02 10.81,51.39 C10.81,51.39 10.81,51.39 8.78,52.38 C9.01,53.01 9.41,53.6 9.59,54.41 Z M68.74,57.38 C69.14,56.62 69.55,55.99 69.95,55.4 C69.95,55.4 69.95,55.4 67.93,54.41 C67.52,55 67.34,55.58 66.75,56.21 C66.75,56.21 66.75,56.21 68.74,57.38 Z M11.98,58.42 L13.78,57.2 C13.38,56.62 12.97,55.99 12.79,55.4 C12.79,55.4 12.79,55.4 10.58,56.39 C11.17,57.2 11.39,57.79 11.98,58.42 Z M66.12,61.21 C66.53,60.58 67.16,60 67.52,59.41 C67.52,59.41 67.52,59.41 65.76,58.01 C65.36,58.6 64.73,59.19 64.32,59.82 C64.32,59.82 64.32,59.82 66.12,61.21 Z M14.77,62.2 L16.39,60.81 C15.99,60.22 15.58,59.59 15.18,59.01 C15.18,59.01 15.18,59.01 13.2,60.4 C13.78,60.99 14.37,61.62 14.77,62.2 Z M62.93,64.59 C63.56,64.19 64.14,63.6 64.55,63.01 C64.55,63.01 64.55,63.01 62.93,61.39 C62.34,62.02 61.93,62.61 61.35,63.01 C61.35,63.01 61.35,63.01 62.93,64.59 Z M17.97,65.4 L19.59,63.82 C18.96,63.42 18.6,62.79 17.97,62.38 C17.97,62.38 17.97,62.38 16.39,64.01 C16.98,64.41 17.39,65 17.97,65.4 Z M59.37,67.61 C59.95,67.2 60.54,66.62 61.12,66.21 C61.12,66.21 61.12,66.21 59.73,64.41 C59.14,65 58.56,65.4 57.97,65.81 C57.97,65.81 57.97,65.81 59.37,67.61 Z M21.8,68.19 L22.97,66.39 C22.39,65.99 21.8,65.58 21.17,65.22 C21.17,65.22 21.17,65.22 19.77,67.02 C20.58,67.38 21.17,67.79 21.8,68.19 Z M55.36,70 C55.94,69.59 56.53,69.41 57.34,68.82 C57.34,68.82 57.34,68.82 56.17,67.02 C55.54,67.2 54.95,67.61 54.37,68.01 C54.37,68.01 54.37,68.01 55.36,70 Z M25.76,70.58 L26.75,68.6 C26.17,68.19 25.58,67.79 25,67.61 C25,67.61 25,67.61 23.78,69.59 C24.59,69.82 25.18,70.22 25.76,70.58 Z M50.94,71.8 C51.75,71.62 52.57,71.39 53.15,70.99 C53.15,70.99 53.15,70.99 52.34,68.82 C51.75,69.19 50.94,69.41 50.36,69.59 C50.36,69.59 50.36,69.59 50.94,71.8 Z M30.18,72.2 L30.99,70 C30.18,69.82 29.59,69.59 28.96,69.41 C28.96,69.41 28.96,69.41 27.97,71.39 C28.78,71.8 29.37,72.02 30.18,72.2 Z M46.35,73.01 C47.16,73.01 47.97,72.61 48.74,72.38 C48.74,72.38 48.74,72.38 48.15,70.4 C47.57,70.58 46.75,70.58 45.94,70.81 C45.94,70.81 45.94,70.81 46.35,73.01 Z M34.77,73.19 L35.18,70.99 C34.37,70.81 33.78,70.81 33.15,70.58 C33.15,70.58 33.15,70.58 32.57,72.79 C33.38,73.01 34.19,73.19 34.77,73.19 Z M41.75,73.6 C42.57,73.6 43.38,73.42 44.14,73.42 C44.14,73.42 44.14,73.42 43.78,71.21 C43.15,71.21 42.57,71.39 41.75,71.39 C41.75,71.39 41.75,71.39 41.75,73.6 Z M39.55,73.6 L39.55,71.39 C38.78,71.39 38.15,71.39 37.39,71.39 C37.39,71.39 37.39,71.39 37.16,73.6 C37.97,73.6 38.78,73.6 39.55,73.6 Z M39.95,12.79 C25,12.79 12.79,24.99 12.79,39.99 C12.79,55.22 25,67.2 39.95,67.2 C54.95,67.2 67.16,55.22 67.16,39.99 C67.16,24.99 54.95,12.79 39.95,12.79 Z M42.38,18.19 C45.94,18.19 45.94,18.19 45.94,18.19 C45.94,34.18 45.94,34.18 45.94,34.18 C55.36,34.18 55.36,34.18 55.36,34.18 C55.36,31.61 55.36,31.61 55.36,31.61 C62.92,35.98 62.92,35.98 62.92,35.98 C55.36,40.4 55.36,40.4 55.36,40.4 C55.36,37.79 55.36,37.79 55.36,37.79 C42.38,37.79 42.38,37.79 42.38,37.79 L42.38,18.19 Z M17.97,34.18 C33.96,34.18 33.96,34.18 33.96,34.18 C33.96,24.59 33.96,24.59 33.96,24.59 C31.39,24.59 31.39,24.59 31.39,24.59 C35.76,17.2 35.76,17.2 35.76,17.2 C39.95,24.59 39.95,24.59 39.95,24.59 C37.38,24.59 37.38,24.59 37.38,24.59 C37.38,37.79 37.38,37.79 37.38,37.79 C17.97,37.79 17.97,37.79 17.97,37.79 L17.97,34.18 Z M37.38,62.2 C33.96,62.2 33.96,62.2 33.96,62.2 C33.96,46.21 33.96,46.21 33.96,46.21 C24.37,46.21 24.37,46.21 24.37,46.21 C24.37,48.82 24.37,48.82 24.37,48.82 C16.98,44.41 16.98,44.41 16.98,44.41 C24.37,39.99 24.37,39.99 24.37,39.99 C24.37,42.6 24.37,42.6 24.37,42.6 C37.38,42.6 37.38,42.6 37.38,42.6 L37.38,62.2 Z M61.75,46.39 C45.94,46.39 45.94,46.39 45.94,46.39 C45.94,55.8 45.94,55.8 45.94,55.8 C48.37,55.8 48.37,55.8 48.37,55.8 C43.96,63.19 43.96,63.19 43.96,63.19 C39.77,55.8 39.77,55.8 39.77,55.8 C42.38,55.8 42.38,55.8 42.38,55.8 C42.38,42.6 42.38,42.6 42.38,42.6 C61.75,42.6 61.75,42.6 61.75,42.6 L61.75,46.39 Z M0,40 C0,18.02 17.97,0 39.95,0 C62.16,0 79.91,18.02 79.91,40 C79.91,62.21 62.16,80 39.95,80 C17.97,80 0,62.21 0,40 Z" fill="none" stroke="currentColor" stroke-width="1.5"/></svg>