<svg xmlns="http://www.w3.org/2000/svg" viewBox="0 0 79.51 79.6" width="24" height="24"><path d="M22.27,15.93 L12.72,25.3 L12.72,25.88 L22.27,35.02 L22.27,30.27 L38.18,30.27 L38.18,20.9 L22.27,20.9 L22.27,15.93 L22.27,15.93 Z M22.27,38.22 L12.72,47.67 L12.72,47.67 L22.27,56.23 L22.27,51.75 L38.18,51.75 L38.18,42.92 L22.27,42.92 L22.27,38.22 L22.27,38.22 Z M57.27,44.57 L66.41,35.43 L66.81,34.85 L57.27,25.48 L57.27,30.46 L41.36,30.46 L41.36,39.82 L57.27,39.82 L57.27,44.57 L57.27,44.57 Z M57.27,52.75 L41.36,52.75 L41.36,62.11 L57.27,62.11 L57.27,66.86 L66.41,57.72 L66.81,57.72 L57.27,47.77 L57.27,52.75 L57.27,52.75 Z M0,39.8 C0,17.93 17.88,0 39.76,0 C61.85,0 79.51,17.93 79.51,39.8 C79.51,61.9 61.85,79.6 39.76,79.6 C17.88,79.6 0,61.9 0,39.8 Z" fill="none" stroke="currentColor" stroke-width="1.5"/></svg>