<svg xmlns="http://www.w3.org/2000/svg" viewBox="0 0 79.91 80.0" width="24" height="24"><path d="M73.15,39.01 C73.15,38.78 73.15,38.78 72.93,38.6 C66.93,32.61 66.93,32.61 66.93,32.61 C66.35,32.02 65.54,32.02 64.95,32.61 C64.73,32.79 64.73,32.79 64.73,32.79 C64.14,33.42 64.14,34.41 64.73,35 C68.33,38.42 68.33,38.42 68.33,38.42 C57.57,38.42 57.57,38.42 57.57,38.42 C57.16,34.82 55.76,31.39 53.56,28.78 C61.12,21.21 61.12,21.21 61.12,21.21 C61.12,26.21 61.12,26.21 61.12,26.21 C61.12,27.02 61.75,27.79 62.57,27.79 C62.93,27.79 62.93,27.79 62.93,27.79 C63.74,27.79 64.32,27.02 64.32,26.21 C64.32,17.79 64.32,17.79 64.32,17.79 C64.32,17.79 64.32,17.61 64.32,17.61 C64.32,17.2 64.14,16.62 63.96,16.39 C63.74,16.21 63.74,16.21 63.74,16.21 C63.33,15.81 63.15,15.81 62.75,15.81 C62.57,15.81 62.57,15.81 62.34,15.81 C53.96,15.81 53.96,15.81 53.96,15.81 C53.15,15.81 52.34,16.39 52.34,17.2 C52.34,17.61 52.34,17.61 52.34,17.61 C52.34,18.42 53.15,19.01 53.96,19.01 C58.96,19.01 58.96,19.01 58.96,19.01 C51.35,26.62 51.35,26.62 51.35,26.62 C48.56,24.41 45.36,22.79 41.57,22.61 C41.57,11.8 41.57,11.8 41.57,11.8 C45.18,15.4 45.18,15.4 45.18,15.4 C45.76,15.81 46.57,15.81 47.34,15.4 C47.34,15 47.34,15 47.34,15 C47.97,14.59 47.97,13.6 47.34,13.01 C41.35,6.98 41.35,6.98 41.35,6.98 C41.35,6.98 41.35,6.98 41.35,6.98 C41.17,6.8 40.58,6.39 40.18,6.39 C39.95,6.39 39.95,6.39 39.95,6.39 C39.55,6.39 39.19,6.62 38.96,6.8 C38.78,6.98 38.78,6.98 38.56,6.98 C32.57,13.01 32.57,13.01 32.57,13.01 C31.98,13.6 31.98,14.59 32.57,15 C32.79,15.4 32.79,15.4 32.79,15.4 C33.38,15.81 34.37,15.81 34.95,15.4 C38.38,11.8 38.38,11.8 38.38,11.8 C38.38,22.61 38.38,22.61 38.38,22.61 C34.77,22.79 31.39,24.41 28.78,26.62 C21.17,19.01 21.17,19.01 21.17,19.01 C26.17,19.01 26.17,19.01 26.17,19.01 C26.98,19.01 27.79,18.42 27.79,17.61 C27.79,17.2 27.79,17.2 27.79,17.2 C27.79,16.39 26.98,15.81 26.17,15.81 C17.79,15.81 17.79,15.81 17.79,15.81 C17.57,15.81 17.57,15.81 17.39,15.81 C16.98,15.81 16.57,15.81 16.39,16.21 C16.17,16.39 16.17,16.39 16.17,16.39 C15.76,16.62 15.58,17.2 15.76,17.61 C15.76,17.61 15.76,17.79 15.76,17.79 C15.76,26.21 15.76,26.21 15.76,26.21 C15.76,27.02 16.39,27.79 17.21,27.79 C17.57,27.79 17.57,27.79 17.57,27.79 C18.38,27.79 18.96,27.02 18.96,26.21 C18.96,21.21 18.96,21.21 18.96,21.21 C26.57,28.78 26.57,28.78 26.57,28.78 C24.37,31.39 22.97,34.82 22.57,38.42 C11.8,38.42 11.8,38.42 11.8,38.42 C15.4,35 15.4,35 15.4,35 C15.76,34.41 15.76,33.42 15.4,32.79 C15.18,32.61 15.18,32.61 15.18,32.61 C14.59,32.02 13.6,32.02 12.97,32.61 C6.98,38.6 6.98,38.6 6.98,38.6 C6.98,38.78 6.98,38.78 6.8,39.01 C6.57,39.19 6.39,39.59 6.39,40 C6.39,40.22 6.39,40.22 6.39,40.22 C6.39,40.58 6.8,41.21 6.98,41.39 C6.98,41.39 6.98,41.39 6.98,41.39 C12.97,47.38 12.97,47.38 12.97,47.38 C13.6,48.01 14.59,48.01 15.18,47.38 C15.4,47.2 15.4,47.2 15.4,47.2 C15.76,46.62 15.76,45.81 15.4,45.22 C11.8,41.62 11.8,41.62 11.8,41.62 C22.57,41.62 22.57,41.62 22.57,41.62 C22.97,45.4 24.37,48.6 26.57,51.39 C18.96,59.01 18.96,59.01 18.96,59.01 C18.96,54.01 18.96,54.01 18.96,54.01 C18.96,53.19 18.38,52.38 17.57,52.38 C17.21,52.38 17.21,52.38 17.21,52.38 C16.39,52.38 15.76,53.19 15.76,54.01 C15.76,62.38 15.76,62.38 15.76,62.38 C15.76,62.38 15.76,62.61 15.76,62.61 C15.76,63.19 15.99,63.42 16.17,63.82 C16.39,64.01 16.39,64.01 16.39,64.01 C16.8,64.19 17.21,64.41 17.57,64.41 C17.79,64.41 17.79,64.41 17.79,64.41 C26.17,64.41 26.17,64.41 26.17,64.41 C26.98,64.41 27.79,63.82 27.79,63.01 C27.79,62.61 27.79,62.61 27.79,62.61 C27.79,61.8 26.98,60.99 26.17,60.99 C21.39,60.99 21.39,60.99 21.39,60.99 C28.78,53.6 28.78,53.6 28.78,53.6 C31.57,55.81 34.77,57.2 38.38,57.61 C38.38,68.42 38.38,68.42 38.38,68.42 C34.95,64.82 34.95,64.82 34.95,64.82 C34.37,64.19 33.38,64.19 32.79,64.82 C32.57,65 32.57,65 32.57,65 C31.98,65.58 31.98,66.39 32.57,67.02 C38.56,73.01 38.56,73.01 38.56,73.01 C38.78,73.19 38.78,73.19 38.96,73.19 C39.19,73.42 39.55,73.6 39.95,73.6 C40.18,73.6 40.18,73.6 40.18,73.6 C40.58,73.6 41.17,73.42 41.35,73.19 C41.35,73.19 41.35,73.19 41.35,73.01 C47.34,67.02 47.34,67.02 47.34,67.02 C47.97,66.39 47.97,65.58 47.34,65 C47.34,64.82 47.34,64.82 47.34,64.82 C46.57,64.19 45.76,64.19 45.18,64.82 C41.57,68.19 41.57,68.19 41.57,68.19 C41.57,57.61 41.57,57.61 41.57,57.61 C45.36,57.2 48.56,55.81 51.17,53.6 C58.74,60.99 58.74,60.99 58.74,60.99 C53.96,60.99 53.96,60.99 53.96,60.99 C53.15,60.99 52.34,61.8 52.34,62.61 C52.34,63.01 52.34,63.01 52.34,63.01 C52.34,63.82 53.15,64.41 53.96,64.41 C62.34,64.41 62.34,64.41 62.34,64.41 C62.34,64.41 62.34,64.41 62.57,64.41 C62.93,64.41 63.33,64.19 63.74,64.01 C63.96,63.82 63.96,63.82 63.96,63.82 C64.14,63.42 64.14,63.19 64.32,62.61 C64.32,62.61 64.32,62.38 64.32,62.38 C64.32,54.01 64.32,54.01 64.32,54.01 C64.32,53.19 63.74,52.38 62.93,52.38 C62.57,52.38 62.57,52.38 62.57,52.38 C61.75,52.38 61.12,53.19 61.12,54.01 C61.12,59.01 61.12,59.01 61.12,59.01 C53.56,51.39 53.56,51.39 53.56,51.39 C55.76,48.6 57.16,45.4 57.57,41.62 C68.15,41.62 68.15,41.62 68.15,41.62 C64.73,45.22 64.73,45.22 64.73,45.22 C64.14,45.81 64.14,46.62 64.73,47.2 C64.95,47.38 64.95,47.38 64.95,47.38 C65.54,48.01 66.35,48.01 66.93,47.38 C72.93,41.39 72.93,41.39 72.93,41.39 C73.15,41.39 73.15,41.39 73.15,41.39 C73.33,41.21 73.56,40.58 73.56,40.22 C73.56,40 73.56,40 73.56,40 C73.56,39.59 73.56,39.19 73.15,39.01 Z M0,40 C0,18.02 17.97,0 39.95,0 C62.16,0 79.91,18.02 79.91,40 C79.91,62.21 62.16,80 39.95,80 C17.97,80 0,62.21 0,40 Z" fill="none" stroke="currentColor" stroke-width="1.5"/></svg>