<svg xmlns="http://www.w3.org/2000/svg" viewBox="0 0 80.0 80.0" width="24" height="24"><path d="M64.29,21.09 L66.28,24.66 L55.77,30.92 C56.63,31.98 57.36,33.27 57.89,34.53 L68.33,28.34 L70.29,31.92 L72.52,23.38 L64.29,21.09 Z M40.24,25.05 C31.95,25.05 25.22,32 25.22,40.47 C25.22,49.02 31.95,55.94 40.24,55.94 C48.56,55.94 55.3,49.02 55.3,40.47 C55.3,32 48.56,25.05 40.24,25.05 Z M40.24,28.46 C46.74,28.46 52.01,33.85 52.01,40.47 C52.01,47.16 46.74,52.56 40.24,52.56 C33.78,52.56 28.5,47.16 28.5,40.47 C28.5,33.85 33.78,28.46 40.24,28.46 Z M16.3,34.53 L16.3,38.44 L4.04,38.44 L4.04,42.58 L16.3,42.58 L16.3,46.48 L22.27,40.49 L16.3,34.53 Z M70.03,34.53 L70.03,38.47 L58.73,38.47 C58.79,39.16 58.89,39.79 58.89,40.49 C58.89,41.21 58.79,41.84 58.73,42.54 L70.03,42.54 L70.03,46.48 L75.97,40.52 L70.03,34.53 Z M57.89,46.48 C57.36,47.67 56.63,48.79 55.77,49.82 L66.28,55.65 L64.29,58.92 L72.52,56.81 L70.29,48.96 L68.33,52.2 L57.89,46.48 Z M16.18,0 C63.99,0 63.99,0 63.99,0 C72.81,0 80,7.35 80,16.16 C80,63.97 80,63.97 80,63.97 C80,72.78 72.81,80 63.99,80 C16.18,80 16.18,80 16.18,80 C7.36,80 0,72.78 0,63.97 C0,16.16 0,16.16 0,16.16 C0,7.35 7.36,0 16.18,0 Z" fill="none" stroke="currentColor" stroke-width="1.5"/></svg>