<svg xmlns="http://www.w3.org/2000/svg" viewBox="0 0 80.0 69.07" width="24" height="24"><path d="M58.18,66.26 L76.36,34.29 L58.16,2.5 L21.89,2.5 L3.65,34.27 L21.85,66.26 Z M19.79,69.07 L0,34.4 L19.73,0 L60.22,0 L80,34.4 L60.22,69.07 Z M66.49,47.5 L59.87,49.2 C59.87,49.2 59.87,49.2 61.49,46.52 C61.49,46.52 61.49,46.52 52.96,41.79 C53.74,41.03 54.3,40.03 54.72,39.04 C54.72,39.04 54.72,39.04 63.17,43.77 C63.17,43.77 63.17,43.77 64.73,41.09 C64.73,41.09 64.73,41.09 66.49,47.5 Z M69.87,33.97 L64.87,39.05 C64.87,39.05 64.87,39.05 64.87,35.73 C64.87,35.73 64.87,35.73 55.22,35.73 C55.28,35.16 55.36,34.61 55.36,33.97 C55.36,33.4 55.28,32.84 55.22,32.21 C55.22,32.21 55.22,32.21 64.87,32.21 C64.87,32.21 64.87,32.21 64.87,28.89 C64.87,28.89 64.87,28.89 69.87,33.97 Z M59.87,18.74 L66.49,20.5 C66.49,20.5 66.49,20.5 64.73,26.92 C64.73,26.92 64.73,26.92 63.17,24.25 C63.17,24.25 63.17,24.25 54.72,28.9 C54.3,27.92 53.74,27 52.96,26.15 C52.96,26.15 52.96,26.15 61.49,21.49 C61.49,21.49 61.49,21.49 59.87,18.74 Z M40,24.88 C34.93,24.88 30.77,29.18 30.77,34.53 C30.77,39.96 34.93,44.26 40,44.26 C45.14,44.26 49.3,39.96 49.3,34.53 C49.3,29.18 45.14,24.88 40,24.88 Z M40,46.95 C33.52,46.95 28.17,41.44 28.17,34.53 C28.17,27.7 33.52,22.13 40,22.13 C46.56,22.13 51.84,27.7 51.84,34.53 C51.84,41.44 46.56,46.95 40,46.95 Z M10.14,32.27 L10.14,32.27 L20.78,32.27 L20.78,28.89 L25.92,34.11 L20.78,39.05 L20.78,35.67 L10.14,35.67 Z" fill="none" stroke="currentColor" stroke-width="1.5"/></svg>