<svg xmlns="http://www.w3.org/2000/svg" viewBox="0 0 59.99 75.0" width="24" height="24"><path d="M55.9,46.01 L55.9,73.48 L4.1,73.48 L4.1,46.02 Z M8.56,41.99 L51.21,43.17 Z M23.51,35.86 C22.76,35.84 22.76,36.99 23.51,36.98 L37.23,36.98 C37.99,36.99 37.99,35.84 37.23,35.86 Z M50.33,35.51 L42.3,35.52 L50.02,37.03 L57.36,44.49 L2.65,44.51 L10.12,37.05 L18.66,37.05 L9.8,35.54 L0.28,44.73 L2.58,46.03 L2.58,74.24 L56.66,75 L57.42,46 L59.17,46 L50.88,35.74 Z M23.51,31.5 C22.76,31.49 22.76,32.63 23.51,32.62 L37.23,32.62 C37.99,32.63 37.99,31.49 37.23,31.5 Z M7.02,24.75 L15.37,25.43 Z M50.89,23.36 L50.89,31.06 L48.41,31.06 L52.28,34.85 L56.16,31.06 L53.52,31.06 L53.52,23.36 Z M7.02,22.2 L15.37,22.88 Z M21.06,20.74 L32.1,20.74 L32.1,28.04 C32.1,28.42 32.3,28.64 32.65,28.64 L40.05,28.64 L40.05,39.33 L21.06,39.33 Z M20.5,19.62 C20.19,19.62 19.94,19.87 19.94,20.18 L19.94,39.33 L12.51,39.33 L47.54,40.51 L41.17,39.33 L41.17,27.95 L33.01,19.62 Z M7.02,19.56 L15.37,20.24 Z M43.67,18.6 L53.98,19.44 Z M7.02,16.91 L15.37,17.59 Z M43.67,15.46 L53.98,16.3 Z M43.67,12.2 L53.98,13.05 Z M5.52,10.35 L12.25,10.35 L12.25,14.8 C12.25,15.03 12.37,15.16 12.58,15.16 L17.09,15.16 L17.09,26.53 L5.52,26.53 Z M5.18,9.67 C4.99,9.67 4.84,9.82 4.84,10.01 L4.84,26.87 C4.84,27.06 4.99,27.22 5.18,27.22 L17.43,27.22 C17.62,27.22 17.77,27.06 17.77,26.87 L17.77,14.74 L12.8,9.67 Z M43.67,8.93 L53.98,9.77 Z M25.95,4.45 L25.95,12.15 L23.46,12.15 L27.34,15.95 L31.21,12.15 L28.57,12.15 L28.57,4.45 Z M41.82,0.84 L50.12,0.84 L50.12,6.33 C50.12,6.61 50.27,6.78 50.53,6.78 L56.09,6.78 L56.09,20.8 L41.82,20.8 Z M41.4,0 C41.17,0 40.98,0.19 40.98,0.42 L40.98,21.22 C40.98,21.46 41.17,21.65 41.4,21.65 L56.52,21.65 C56.75,21.65 56.94,21.46 56.94,21.22 L56.94,6.26 L50.8,0 Z" fill="none" stroke="currentColor" stroke-width="1.5"/></svg>