<svg xmlns="http://www.w3.org/2000/svg" viewBox="0 0 80.0 80.0" width="24" height="24"><path d="M36.87,51.26 C37.31,51.26 37.92,51.66 37.92,52.45 C37.92,53.01 37.31,53.59 36.87,53.59 C36.04,53.59 35.43,53.01 35.43,52.45 C35.43,51.66 36.04,51.26 36.87,51.26 Z M19.27,50.07 C19.66,50.07 20.05,50.46 20.05,51.03 C20.05,51.42 19.66,51.82 19.27,51.82 C18.87,51.82 18.3,51.42 18.3,51.03 C18.3,50.46 18.87,50.07 19.27,50.07 Z M49.32,46.96 L49.32,50.07 L71.04,50.07 L67.71,46.96 Z M25.07,42.35 L25.07,53.8 C25.07,54.37 25.68,54.76 26.12,54.76 L47.45,54.76 C47.88,54.76 48.27,54.37 48.27,53.8 L48.27,42.74 L46.61,42.74 L46.61,49.91 L26.73,49.91 L26.73,42.52 C26.12,42.52 25.68,42.53 25.07,42.35 Z M12.1,40.76 L12.1,50.46 C12.1,51.99 15.77,53.17 17.34,53.17 L18.47,53.17 L19.09,53.17 L21.01,53.17 C21.97,53.17 23.33,52.99 24.51,52.21 L24.51,49.11 L13.45,49.11 L13.45,40.93 C13.05,40.93 12.49,40.76 12.1,40.76 Z M67.93,40.75 C67.54,40.75 66.97,40.75 66.58,40.93 L66.58,41.54 C66.58,42.11 65.8,42.67 65.23,42.67 L49.32,42.67 L49.32,43.85 L67.93,43.85 Z M68.91,34.72 C72.01,35.11 73.93,35.72 73.93,36.47 C73.93,36.86 73.15,37.25 72.19,37.65 C71.4,37.82 70.26,38.04 68.91,38.21 Z M11.71,34.72 L11.71,38.21 C10.35,38.21 9,37.82 8.21,37.65 C7.07,37.25 6.46,36.86 6.28,36.47 C6.28,35.72 8.43,35.11 11.71,34.72 Z M15.99,30.48 L20.62,30.48 C21.01,30.48 21.01,30.66 21.01,30.87 C21.01,31.05 21.01,31.27 20.62,31.27 L15.99,31.27 C15.99,31.27 15.59,31.05 15.59,30.87 C15.59,30.66 15.99,30.48 15.99,30.48 Z M26.65,28.52 L46.4,28.52 L46.4,39.79 C44.26,39.79 42.17,39.96 40.2,39.96 C35.35,39.96 30.72,39.79 26.65,39.57 Z M34.6,26.99 L38.45,26.99 C38.67,26.99 38.67,26.98 38.67,27.16 L38.45,27.16 L34.6,27.16 L34.38,27.16 C34.38,26.98 34.6,26.99 34.6,26.99 Z M26.04,25.24 C25.47,25.24 24.91,25.8 24.91,26.41 L24.91,39.57 C20.23,39.22 16.16,39 13.06,38.43 L13.06,32.01 L23.55,32.01 L23.55,28.91 C22.37,28.51 21.01,28.12 20.05,28.12 L18.48,28.12 L18.08,28.12 L16.73,28.12 C15.2,28.12 11.71,29.13 11.71,30.87 L11.71,33.98 C6.29,34.72 2.79,35.72 2.79,36.68 C3.18,39 19.66,40.75 40.2,40.75 C60.57,40.75 77.04,39 77.21,36.68 C77.21,35.72 74.11,34.72 68.91,34.15 L68.91,30.87 C68.91,29.87 68.12,29.3 67.16,29.3 L49.73,29.3 L49.73,30.66 L65.99,30.66 C66.77,30.66 67.16,31.27 67.16,32.01 L67.16,38.43 C62.7,39.22 55.89,39.57 48.15,39.79 L48.15,26.41 C48.15,25.8 47.59,25.24 46.98,25.24 Z M16.18,0 C63.99,0 63.99,0 63.99,0 C72.81,0 80,7.35 80,16.16 C80,63.97 80,63.97 80,63.97 C80,72.78 72.81,80 63.99,80 C16.18,80 16.18,80 16.18,80 C7.36,80 0,72.78 0,63.97 C0,16.16 0,16.16 0,16.16 C0,7.35 7.36,0 16.18,0 Z" fill="none" stroke="currentColor" stroke-width="1.5"/></svg>