<svg xmlns="http://www.w3.org/2000/svg" viewBox="0 0 100.0 86.34" width="24" height="24"><path d="M27.49,21.7 L72.77,21.7 C75.02,21.7 76.78,23.46 76.78,25.71 L76.78,60.22 C76.78,62.47 75.02,64.23 72.77,64.23 L27.49,64.23 C25.24,64.23 23.47,62.47 23.47,60.22 L23.47,25.71 C23.47,23.46 25.24,21.7 27.49,21.7 Z M27.49,18.46 C23.5,18.46 20.24,21.72 20.24,25.71 L20.24,60.22 C20.24,64.21 23.5,67.47 27.49,67.47 L72.77,67.47 C76.76,67.47 80.02,64.21 80.02,60.22 L80.02,25.71 C80.02,21.72 76.76,18.46 72.77,18.46 Z M34.5,25.85 C33.75,25.85 33.06,26.27 32.73,26.94 L26.91,38.71 C26.27,40 27.21,41.51 28.65,41.51 L40.3,41.51 C41.74,41.51 42.68,40 42.04,38.71 L36.22,26.94 C35.89,26.28 35.23,25.86 34.5,25.85 Z M33.54,39.89 L33.54,37.73 L35.97,37.73 L35.97,39.89 Z M33.96,37.1 L33.47,33.07 L33.47,31.11 L36.07,31.11 L36.07,33.07 L35.57,37.1 Z M26.89,59.8 L29.35,59.8 L29.35,56.13 L26.89,56.13 Z M30.79,59.8 L33.25,59.8 L33.25,45.8 L30.79,45.8 Z M34.69,59.8 L37.14,59.8 L37.14,52.99 L34.69,52.99 Z M38.58,59.8 L41.04,59.8 L41.04,48.78 L38.58,48.78 Z M45.47,60.08 L51.81,60.08 L51.81,56.15 L45.47,56.15 Z M53.48,60.08 L72,60.08 L72,56.15 L53.48,56.15 Z M45.47,54.06 L51.81,54.06 L51.81,50.13 L45.47,50.13 Z M53.48,54.06 L72,54.06 L72,50.13 L53.48,50.13 Z M45.47,48.03 L51.81,48.03 L51.81,44.1 L45.47,44.1 Z M53.48,48.03 L72,48.03 L72,44.1 L53.48,44.1 Z M62.44,25.84 L57.44,37.08 L53.94,33.54 L47.25,37.22 L48.5,39.49 L53.48,36.75 L58.26,41.6 L61.56,34.18 L62.23,37.34 L67.82,35.56 L71.08,36.88 L72.05,34.48 L67.92,32.81 L64.17,34.01 Z M72.72,82.83 L95.45,42.87 L72.71,3.12 L27.36,3.12 L4.57,42.84 L27.32,82.83 Z M24.74,86.34 L0,43 L24.66,0 L75.28,0 L100,43 L75.27,86.34 Z" fill="none" stroke="currentColor" stroke-width="1.5"/></svg>