<svg xmlns="http://www.w3.org/2000/svg" viewBox="0 0 100.0 100.0" width="24" height="24"><path d="M50,0 C22.49,0 0,22.38 0,50 C0,77.85 22.49,100 50,100 C77.79,100 100,77.85 100,50 C100,22.38 77.79,0 50,0 Z M49.95,7.67 L50.05,7.67 L52.12,7.72 L52.23,7.73 L54.27,7.89 L54.38,7.9 L54.77,7.95 L54.21,12.31 L53.94,12.28 L53.91,12.27 L51.95,12.12 L50,12.07 L48.05,12.12 L46.1,12.27 L45.98,12.29 L45.43,7.92 L45.62,7.9 L45.73,7.89 L47.77,7.73 L47.88,7.72 Z M40.87,8.67 L41.86,12.96 L40.57,13.25 L40.54,13.26 L38.74,13.77 L36.97,14.37 L35.24,15.05 L33.96,15.63 L32.14,11.62 L33.47,11.02 L33.57,10.98 L35.4,10.26 L35.5,10.22 L37.36,9.59 L37.47,9.56 L39.37,9.02 L39.48,8.99 Z M59.32,8.71 L60.52,8.99 L60.63,9.02 L62.54,9.56 L62.64,9.59 L64.5,10.22 L64.61,10.26 L66.43,10.98 L66.53,11.02 L68.04,11.71 L66.22,15.71 L64.76,15.05 L63.03,14.37 L61.26,13.77 L59.46,13.26 L59.43,13.25 L58.33,13 Z M27.98,13.85 L30.36,17.55 L28.77,18.57 L28.75,18.58 L27.3,19.62 L25.87,20.75 L25.84,20.77 L24.48,21.94 L24.46,21.96 L23.73,22.65 L20.7,19.47 L21.5,18.71 L21.58,18.63 L23.04,17.37 L23.12,17.31 L24.63,16.12 L24.72,16.05 L26.29,14.93 L26.38,14.87 Z M72.19,13.95 L73.62,14.87 L73.71,14.93 L75.29,16.05 L75.37,16.12 L76.88,17.31 L76.97,17.37 L78.42,18.63 L78.5,18.71 L79.45,19.61 L76.41,22.79 L75.54,21.96 L75.52,21.94 L74.16,20.77 L74.14,20.75 L72.7,19.62 L71.25,18.58 L71.23,18.57 L69.81,17.66 Z M58.54,16.16 C60.58,16.14 62.62,17 64.45,18.73 L80.56,34.78 C84.68,38.58 84.23,43.03 81.2,46.27 L51.29,75.89 C48.67,78.64 47.1,79.24 43.21,79.73 L38.3,80.05 C35.79,80.21 35.15,79.71 33.74,78.23 L29.75,74.26 C30.32,73.61 30.84,73.14 31.37,72.76 C26.02,64.16 24.23,65.43 22.6,67.13 L20.17,64.72 C19.33,63.82 18.85,62.98 19.23,59.74 C19.51,57.13 19.84,54.6 20.44,52.41 C20.72,50.96 20.77,50.39 21.79,49.45 L52.62,18.79 C54.46,17.05 56.5,16.17 58.54,16.16 Z M17.55,22.83 L20.87,25.71 L20.74,25.86 L19.61,27.31 L18.55,28.79 L17.56,30.35 L16.68,31.88 L16.66,31.91 L16.31,32.59 L12.39,30.58 L12.76,29.87 L12.81,29.78 L13.78,28.1 L13.83,28.01 L14.87,26.38 L14.93,26.29 L16.05,24.72 L16.12,24.63 L17.31,23.12 L17.37,23.04 Z M82.58,22.98 L82.63,23.04 L82.69,23.12 L83.89,24.63 L83.95,24.72 L85.07,26.29 L85.12,26.38 L86.17,28.01 L86.22,28.1 L87.19,29.78 L87.24,29.87 L87.7,30.76 L83.78,32.76 L83.34,31.9 L83.33,31.88 L82.44,30.35 L81.45,28.79 L80.39,27.31 L79.27,25.88 L79.26,25.86 L79.23,25.83 L79.82,25.38 Z M60.83,29.21 C60.54,29.21 60.25,29.23 59.97,29.26 C58.85,29.37 57.78,29.6 56.82,29.81 L56.81,29.81 L56.8,29.81 C56.05,29.98 55.14,30.37 53.98,30.88 C52.83,31.39 51.48,32.03 50.08,32.7 C48.91,33.26 47.71,33.82 46.56,34.35 C45.85,35.49 45.19,36.58 44.58,37.62 C46.5,36.84 48.82,35.74 51.03,34.69 C52.43,34.02 53.77,33.38 54.88,32.89 C55.99,32.4 56.91,32.04 57.28,31.96 C59.22,31.55 61.16,31.16 62.95,31.63 C64.73,32.1 66.54,33.4 68.33,36.87 C70.38,42.32 67.31,48.72 61.86,53.09 C54.66,58.61 48.44,57.09 43.96,54.7 C45.6,56.71 47.95,57.88 50.9,58.95 C54.65,59.16 58.86,58.16 63.2,54.83 L63.21,54.83 L63.22,54.82 C69.21,50.04 72.92,42.69 70.38,36.03 L70.36,35.98 L70.33,35.93 C68.34,32.03 65.95,30.15 63.51,29.5 C62.6,29.26 61.7,29.18 60.83,29.21 Z M59.57,33 C59.27,32.99 58.98,32.99 58.68,33.01 C57.5,33.09 56.34,33.43 55.31,34.06 L55.37,34.02 C51.56,36.01 47.52,37.69 44.1,38.46 C43.61,39.32 43.17,40.15 42.79,40.94 C46.98,40.36 51.83,38.35 56.39,35.97 L56.43,35.95 L56.46,35.93 C57.84,35.09 59.76,34.98 61.4,35.6 C63.04,36.22 64.34,37.49 64.7,39.39 L64.71,39.44 L64.73,39.49 C65.9,43.54 62.83,50.36 53.82,52.47 C49.73,53.21 45.6,51.21 41.64,49.23 C41.84,50.31 42.12,51.26 42.46,52.1 C46,53.84 49.97,55.42 54.24,54.63 L54.26,54.63 L54.29,54.62 C64.22,52.32 68.42,44.53 66.84,38.93 C66.32,36.26 64.41,34.39 62.19,33.54 C61.35,33.22 60.46,33.04 59.57,33 Z M10.5,34.79 L14.59,36.4 L14.37,36.97 L13.79,38.67 L13.79,38.69 L13.26,40.55 L13.25,40.57 L12.86,42.3 L12.85,42.32 L12.52,44.17 L12.52,44.2 L12.49,44.37 L8.13,43.81 L8.15,43.61 L8.17,43.5 L8.52,41.53 L8.54,41.42 L8.99,39.48 L9.02,39.37 L9.56,37.47 L9.59,37.36 L10.22,35.5 L10.26,35.4 Z M89.57,34.97 L89.74,35.4 L89.78,35.5 L90.41,37.36 L90.44,37.47 L90.98,39.37 L91.01,39.48 L91.46,41.42 L91.48,41.53 L91.83,43.5 L91.85,43.61 L91.9,44.01 L87.53,44.56 L87.48,44.19 L87.48,44.17 L87.15,42.33 L87.15,42.3 L86.73,40.5 L86.21,38.69 L86.21,38.67 L85.63,36.97 L85.48,36.59 Z M58.42,37.47 C57.23,37.49 56.03,37.88 54.85,38.33 C53.27,38.93 51.74,39.71 50.61,40.22 L50.6,40.22 L50.6,40.22 C47.75,41.54 44.95,42.03 42.32,41.98 C42.01,42.73 41.75,43.46 41.58,44.16 C44.72,44.33 48.11,43.8 51.51,42.23 C51.51,42.23 51.52,42.22 51.52,42.22 C52.74,41.68 54.21,40.93 55.63,40.39 C57.04,39.85 58.37,39.59 59.09,39.73 C60.02,40.02 60.5,40.47 60.75,41.03 C61,41.58 61,42.31 60.75,43.08 C59.78,45.31 56.81,47.68 53.83,48.21 L53.82,48.22 L53.8,48.22 C52.12,48.55 50.9,48.28 49.13,47.8 C52.31,47.15 53.96,47.24 57.67,44.68 C59.06,43.59 59.22,42.39 58.07,41.9 C56.94,41.41 56.13,41.84 53.33,43.55 C48.68,46.23 48.67,45.63 43.88,46.51 C43.83,46.52 43.77,46.53 43.72,46.55 C42.98,46.43 42.17,46.32 41.3,46.23 C41.3,46.4 41.29,46.57 41.3,46.73 C41.35,47.34 41.42,47.91 41.5,48.45 C44.41,48.76 46.38,49.31 48.07,49.79 C50.12,50.36 51.92,50.84 54.22,50.38 C58.01,49.69 61.46,47.06 62.8,43.91 L62.82,43.87 L62.83,43.83 C63.24,42.61 63.27,41.3 62.76,40.13 C62.24,38.97 61.15,38.03 59.68,37.6 L59.64,37.58 L59.6,37.57 C59.21,37.49 58.82,37.46 58.42,37.47 Z M7.71,48.41 L12.11,48.53 L12.08,50 L12.12,51.95 L12.27,53.87 L12.52,55.81 L12.52,55.83 L12.7,56.84 L8.37,57.62 L8.17,56.5 L8.15,56.39 L7.9,54.38 L7.89,54.27 L7.73,52.23 L7.73,52.12 L7.68,50.06 L7.68,49.94 Z M92.29,48.61 L92.33,49.94 L90.12,50 L92.33,50.06 L92.27,52.12 L92.27,52.23 L92.12,54.27 L92.1,54.38 L91.85,56.39 L91.83,56.5 L91.48,58.47 L91.46,58.58 L91.31,59.22 L87.02,58.24 L87.15,57.67 L87.48,55.83 L87.48,55.81 L87.73,53.87 L87.88,51.95 L87.93,50 L87.89,48.72 Z M13.67,60.9 L13.79,61.31 L13.79,61.33 L14.37,63.03 L15.03,64.71 L15.04,64.74 L15.79,66.39 L15.8,66.41 L16.66,68.1 L16.68,68.12 L16.89,68.49 L13.08,70.69 L12.81,70.22 L12.76,70.13 L11.87,68.4 L11.83,68.3 L11.02,66.53 L10.98,66.43 L10.26,64.61 L10.22,64.5 L9.59,62.64 L9.56,62.54 L9.44,62.11 Z M85.89,62.26 L90.06,63.67 L89.78,64.5 L89.74,64.61 L89.02,66.43 L88.98,66.53 L88.18,68.3 L88.13,68.4 L87.24,70.13 L87.19,70.22 L86.22,71.9 L86.17,72 L86.1,72.1 L82.4,69.73 L82.45,69.65 L83.33,68.12 L83.34,68.1 L84.18,66.45 L84.96,64.74 L84.97,64.71 L85.63,63.03 Z M32.75,64.21 C35.44,64.28 35.98,68.06 33.42,68.89 C31,69.71 29.26,70.63 27.29,73.07 C26.33,74.24 25.59,75.6 24.94,77.05 C23.71,75.95 22.5,74.77 21.33,73.43 C21.95,72.28 22.68,71.13 23.56,70.04 C26.1,66.91 28.98,65.33 31.88,64.35 C32.15,64.25 32.45,64.2 32.75,64.21 Z M19.13,72.03 L19.61,72.69 L20.74,74.14 L20.77,74.17 L21.92,75.49 L23.21,76.85 L23.22,76.86 L24.46,78.04 L24.48,78.06 L24.63,78.19 L21.75,81.51 L21.58,81.37 L21.5,81.29 L20.11,79.97 L20.04,79.89 L18.71,78.5 L18.64,78.42 L17.37,76.96 L17.31,76.88 L16.12,75.37 L16.05,75.29 L15.55,74.57 Z M80.02,73.17 L83.48,75.89 L82.69,76.88 L82.63,76.96 L81.37,78.42 L81.29,78.5 L79.97,79.89 L79.89,79.97 L78.5,81.29 L78.42,81.37 L77.09,82.52 L74.21,79.19 L75.52,78.06 L75.54,78.04 L76.78,76.86 L76.79,76.85 L78.08,75.49 L79.23,74.17 L79.26,74.14 Z M27.9,80.81 L28.81,81.46 L30.35,82.44 L31.95,83.36 L31.97,83.38 L33.55,84.18 L35.17,84.92 L33.36,88.93 L31.7,88.18 L31.6,88.13 L29.87,87.24 L29.78,87.19 L28.1,86.22 L28.01,86.17 L26.38,85.13 L26.29,85.07 L25.34,84.39 Z M70.94,81.62 L73.31,85.33 L72,86.17 L71.9,86.22 L70.22,87.19 L70.13,87.24 L68.4,88.13 L68.3,88.18 L66.53,88.98 L66.43,89.02 L65.12,89.54 L63.51,85.44 L64.76,84.95 L66.45,84.18 L68.03,83.38 L68.05,83.36 L69.65,82.44 Z M39,86.3 L40.5,86.73 L42.38,87.16 L42.41,87.17 L44.24,87.49 L46.13,87.73 L47.2,87.81 L46.87,92.2 L45.73,92.11 L45.62,92.1 L43.61,91.85 L43.5,91.83 L41.53,91.48 L41.42,91.46 L39.48,91.01 L39.37,90.98 L37.8,90.54 Z M59.52,86.72 L59.52,86.72 L59.54,86.72 L59.58,86.92 L60.73,90.95 L60.63,90.98 L60.52,91.01 L58.58,91.46 L58.47,91.48 L56.5,91.83 L56.39,91.85 L54.38,92.1 L54.27,92.11 L52.23,92.27 L52.12,92.28 L51.49,92.29 L51.38,87.89 L51.95,87.88 L53.87,87.73 L55.76,87.49 L57.59,87.17 L57.62,87.16 L59.49,86.73 Z" fill="none" stroke="currentColor" stroke-width="1.5"/></svg>