<svg xmlns="http://www.w3.org/2000/svg" viewBox="0 0 80.0 70.07" width="24" height="24"><path d="M44.8,42.88 L44.8,48.46 L54.71,48.46 L54.71,42.88 Z M25.3,42.88 L25.3,48.46 L35.21,48.46 L35.21,42.88 Z M35.05,21.89 L35.05,27.47 L44.96,27.47 L44.96,21.89 Z M34.22,20.24 L45.78,20.24 C46.24,20.24 46.61,20.61 46.61,21.06 L46.61,28.3 C46.61,28.75 46.24,29.12 45.78,29.12 L40.91,29.12 L40.91,35.65 L49.77,35.65 L50.6,41.23 L55.53,41.23 C55.99,41.23 56.36,41.6 56.36,42.05 L56.36,49.29 C56.36,49.74 55.99,50.11 55.53,50.11 L43.97,50.11 C43.51,50.11 43.15,49.74 43.15,49.29 L43.15,42.05 C43.15,41.6 43.51,41.23 43.97,41.23 L48.95,41.23 L48.95,37.31 L31.02,37.31 L31.02,41.23 L36.04,41.23 C36.49,41.23 36.86,41.6 36.86,42.05 L36.86,49.29 C36.86,49.74 36.49,50.11 36.04,50.11 L24.47,50.11 C24.02,50.11 23.65,49.74 23.65,49.29 L23.65,42.05 C23.65,41.6 24.02,41.23 24.47,41.23 L29.37,41.23 L29.37,36.48 L39.26,35.65 L39.26,29.12 L34.22,29.12 C33.77,29.12 33.4,28.75 33.4,28.3 L33.4,21.06 C33.4,20.61 33.77,20.24 34.22,20.24 Z M40.01,7.01 L40.01,7.01 C38.81,7.01 37.61,7.6 36.96,8.8 L36.96,8.8 L17.91,47.88 C17.25,49.19 17.33,50.51 17.89,51.51 C18.45,52.51 19.46,53.19 20.9,53.19 L59.14,53.19 C60.53,53.19 61.51,52.52 62.07,51.56 C62.64,50.61 62.74,49.35 62.2,48.21 L62.2,48.2 L43.05,8.78 C43.05,8.78 43.05,8.78 43.05,8.78 C42.41,7.61 41.22,7.01 40.01,7.01 Z M40.01,5.39 C41.79,5.39 43.56,6.26 44.5,8 L63.69,47.49 C64.47,49.14 64.34,50.97 63.5,52.4 C62.66,53.82 61.08,54.84 59.14,54.84 L20.9,54.84 C18.91,54.84 17.28,53.8 16.45,52.31 C15.61,50.82 15.54,48.9 16.44,47.15 L35.49,8.05 C36.46,6.26 38.24,5.39 40.01,5.39 Z M60.01,70.07 L80,34.96 L60.01,0 L20.07,0 L0,34.96 L20.07,70.07 Z" fill="none" stroke="currentColor" stroke-width="1.5"/></svg>