<svg xmlns="http://www.w3.org/2000/svg" viewBox="0 0 106.67 106.67" width="24" height="24"><path d="M53.33,0 C23.99,0 0,23.87 0,53.33 C0,83.04 23.99,106.67 53.33,106.67 C82.98,106.67 106.67,83.04 106.67,53.33 C106.67,23.87 82.98,0 53.33,0 Z M50.53,8.88 L73.05,31.12 L58.51,22.75 L52.13,28.94 L50.9,24.42 L48.53,21.98 L46.87,23.59 L50.43,14.42 L48.87,12.81 Z M6.03,38.85 L51.18,38.85 L51.26,61.08 L6.04,61.16 L5.97,38.92 Z M6.12,39 L6.12,61.01 L51.1,61.01 L51.1,39 Z M83.53,40.84 Z M23.99,46.6 L24.87,46.6 L24.87,49.56 C25.05,49.23 25.28,48.99 25.56,48.83 C25.85,48.67 26.18,48.6 26.57,48.6 C27.22,48.6 27.75,48.86 28.15,49.39 C28.55,49.91 28.76,50.61 28.76,51.47 C28.76,52.33 28.55,53.02 28.15,53.55 C27.75,54.07 27.22,54.34 26.57,54.34 C26.18,54.34 25.85,54.26 25.56,54.1 C25.28,53.94 25.05,53.7 24.87,53.38 L24.87,54.2 L23.99,54.2 Z M32.06,46.77 C32.8,46.77 33.39,46.96 33.83,47.34 C34.26,47.72 34.48,48.22 34.48,48.85 C34.48,49.15 34.43,49.44 34.32,49.71 C34.21,49.98 34.01,50.29 33.72,50.66 C33.64,50.75 33.39,51.02 32.96,51.48 C32.54,51.93 31.94,52.55 31.16,53.37 L34.52,53.37 L34.52,54.2 L30.01,54.2 L30.01,53.37 C30.37,52.98 30.87,52.46 31.5,51.81 C32.13,51.15 32.53,50.73 32.69,50.54 C33,50.19 33.21,49.89 33.33,49.64 C33.45,49.4 33.52,49.16 33.52,48.92 C33.52,48.53 33.38,48.21 33.12,47.97 C32.85,47.73 32.51,47.6 32.08,47.6 C31.78,47.6 31.46,47.66 31.12,47.77 C30.79,47.87 30.44,48.04 30.05,48.25 L30.05,47.26 C30.44,47.1 30.8,46.98 31.14,46.9 C31.48,46.82 31.79,46.77 32.06,46.77 Z M44.01,46.77 C44.74,46.77 45.32,46.95 45.74,47.29 C46.17,47.63 46.38,48.08 46.38,48.66 C46.38,49.07 46.27,49.41 46.04,49.69 C45.82,49.97 45.5,50.16 45.08,50.27 C45.54,50.37 45.9,50.58 46.16,50.89 C46.42,51.21 46.55,51.61 46.55,52.08 C46.55,52.8 46.3,53.35 45.82,53.75 C45.34,54.14 44.65,54.34 43.77,54.34 C43.47,54.34 43.16,54.31 42.84,54.24 C42.53,54.19 42.2,54.1 41.87,53.98 L41.87,53.02 C42.13,53.18 42.42,53.3 42.74,53.38 C43.06,53.47 43.39,53.51 43.74,53.51 C44.34,53.51 44.8,53.38 45.11,53.14 C45.43,52.9 45.59,52.54 45.59,52.08 C45.59,51.65 45.44,51.31 45.15,51.07 C44.85,50.83 44.45,50.71 43.92,50.71 L43.09,50.71 L43.09,49.89 L43.96,49.89 C44.43,49.89 44.8,49.8 45.05,49.61 C45.3,49.41 45.42,49.13 45.42,48.77 C45.42,48.39 45.29,48.1 45.03,47.91 C44.78,47.7 44.4,47.6 43.92,47.6 C43.66,47.6 43.38,47.63 43.07,47.69 C42.77,47.75 42.44,47.84 42.08,47.96 L42.08,47.09 C42.45,46.98 42.79,46.9 43.1,46.85 C43.42,46.8 43.73,46.77 44.01,46.77 Z M13.01,46.91 L14.1,46.91 L16.81,54.2 L15.81,54.2 L15.17,52.33 L11.96,52.33 L11.31,54.2 L10.3,54.2 Z M19.66,46.91 L20.62,46.91 L20.62,53.37 L22.2,53.37 L22.2,54.2 L18.1,54.2 L18.1,53.37 L19.67,53.37 L19.67,47.8 L17.96,48.16 L17.96,47.26 Z M36.46,46.91 L40.55,46.91 L40.55,47.74 L37.42,47.74 L37.42,49.88 L40.24,49.88 L40.24,50.71 L37.42,50.71 L37.42,54.2 L36.46,54.2 Z M13.56,47.88 L12.25,51.51 L14.87,51.51 Z M26.36,49.35 C25.89,49.35 25.53,49.54 25.26,49.91 C25,50.29 24.87,50.81 24.87,51.47 C24.87,52.13 25,52.65 25.26,53.02 C25.53,53.4 25.89,53.59 26.36,53.59 C26.82,53.59 27.19,53.4 27.45,53.02 C27.72,52.65 27.85,52.13 27.85,51.47 C27.85,50.81 27.72,50.29 27.45,49.91 C27.19,49.54 26.82,49.35 26.36,49.35 Z M67.9,67.18 C68.53,67.18 69.17,67.19 69.81,67.22 C77.47,67.62 85.03,70.82 90.62,76.72 L90.75,76.86 L90.88,78.18 C88.12,84.66 81.23,92.67 71.09,95.33 L71.08,95.33 L71.08,95.33 C59.34,98.34 50.81,94.53 45.23,89.04 C44.2,81.08 45.89,78.31 48.33,75.74 C51.62,72.28 56.34,69.21 62.13,67.78 L62.16,67.77 L62.19,67.77 C64.07,67.4 65.98,67.2 67.9,67.18 Z M72.47,70.22 C53.3,74.81 51.65,76.17 50.29,77.6 C47.96,80.05 46.62,82.66 46.16,84.71 C52,92.02 59.36,95.55 70.41,92.72 L70.41,92.72 C79.1,90.44 85.24,83.56 87.91,77.97 C83.6,73.74 78.16,71.1 72.47,70.22 Z M69.61,71.33 Z" fill="none" stroke="currentColor" stroke-width="1.5"/></svg>