<svg xmlns="http://www.w3.org/2000/svg" viewBox="0 0 80.0 80.0" width="24" height="24"><path d="M21.13,19.99 C20.83,19.99 20.53,20.15 20.4,20.29 L20.1,20.59 L15.69,24.99 C15.26,25.45 15.26,26.18 15.69,26.61 L15.82,26.77 C16.29,27.21 17.02,27.21 17.45,26.77 L20.1,24.13 L20.1,33.07 C20.1,33.66 20.53,34.13 21.13,34.13 L21.29,34.13 C22.02,34.13 22.45,33.66 22.45,33.07 L22.45,24.26 L24.94,26.77 C25.4,27.21 26.13,27.21 26.57,26.77 L26.73,26.61 C27.03,26.18 27.03,25.45 26.73,24.99 L22.32,20.59 L22.16,20.45 C22.02,20.29 21.72,19.99 21.29,19.99 L21.13,19.99 Z M58.78,19.99 C58.48,19.99 58.18,20.15 58.05,20.29 L57.75,20.59 L53.34,24.99 C52.91,25.45 52.91,26.18 53.34,26.61 L53.47,26.77 C53.94,27.21 54.67,27.21 55.1,26.77 L57.62,24.13 L57.62,33.07 C57.62,33.66 58.18,34.13 58.78,34.13 L58.94,34.13 C59.67,34.13 60.1,33.66 60.1,33.07 L60.1,24.26 L62.59,26.77 C63.05,27.21 63.79,27.21 64.22,26.77 L64.38,26.61 C64.68,26.18 64.68,25.45 64.38,24.99 L59.97,20.59 L59.81,20.45 C59.68,20.29 59.37,19.99 58.94,19.99 L58.78,19.99 Z M40.11,19.99 C34.21,19.99 29.37,24.86 29.37,30.72 C29.37,36.45 34.21,41.18 40.11,41.18 C45.85,41.18 50.56,36.45 50.56,30.72 C50.56,24.86 45.85,19.99 40.11,19.99 Z M40.11,22.21 C44.65,22.21 48.5,25.89 48.5,30.59 C48.5,35.29 44.65,39.1 40.11,39.1 C35.4,39.1 31.59,35.29 31.59,30.59 C31.59,25.89 35.4,22.21 40.11,22.21 Z M16.12,39.06 C15.64,38.99 15.14,39.27 14.79,39.69 L7.76,53.07 L6.44,49.39 C6.14,48.83 5.41,48.53 4.81,48.66 L4.51,48.83 C3.92,49.09 3.48,49.69 3.78,50.28 L6.14,56.44 C6.14,56.61 6.14,56.74 6.27,56.74 C6.44,57.04 6.57,57.34 6.87,57.5 L7.17,57.5 C7.46,57.63 7.9,57.63 8.2,57.5 L8.33,57.5 L15.09,55.42 C15.69,55.15 16.12,54.56 15.85,53.83 L15.85,53.66 C15.55,53.07 14.79,52.77 14.23,52.93 L10.25,54.26 L17.44,40.88 C17.61,40.28 17.44,39.56 16.71,39.26 L16.58,39.26 C16.43,39.15 16.28,39.09 16.12,39.06 Z M63.95,39.06 C63.79,39.09 63.64,39.15 63.49,39.26 L63.36,39.26 C62.59,39.56 62.33,40.28 62.59,40.88 L69.82,54.26 L65.84,52.93 C65.25,52.77 64.51,53.07 64.22,53.66 L64.22,53.83 C63.92,54.56 64.22,55.15 64.95,55.42 L71.71,57.5 L71.88,57.5 C72.18,57.63 72.61,57.63 72.9,57.5 L73.2,57.5 C73.5,57.34 73.63,57.04 73.8,56.74 C73.93,56.74 73.93,56.61 73.93,56.44 L76.29,50.28 C76.42,49.69 76.15,49.09 75.56,48.83 L75.26,48.66 C74.66,48.53 73.93,48.83 73.63,49.39 L72.31,53.07 L65.25,39.69 C64.92,39.27 64.43,38.99 63.95,39.06 Z M27.64,41.37 C27.12,41.4 26.69,41.77 26.59,42.19 L22.74,53.08 L20.69,49.71 C20.26,49.11 19.53,48.97 18.76,49.24 L18.63,49.41 C17.9,49.7 17.6,50.3 18.03,50.86 L21.72,56.76 C21.72,56.89 21.88,56.89 21.88,57.06 C22.02,57.19 22.31,57.49 22.61,57.49 L22.91,57.65 C23.34,57.65 23.77,57.65 24.07,57.49 L31,54.24 C31.56,53.98 31.73,53.22 31.43,52.65 L31.26,52.49 C31,51.89 30.1,51.76 29.51,52.05 L25.7,53.81 L29.37,42.92 C29.67,42.35 29.21,41.62 28.48,41.46 L28.18,41.46 C28,41.38 27.82,41.36 27.64,41.37 Z M52.41,41.37 C52.24,41.36 52.05,41.38 51.87,41.46 L51.57,41.46 C50.84,41.62 50.41,42.35 50.71,42.92 L54.36,53.81 L50.55,52.05 C49.95,51.76 49.09,51.89 48.79,52.49 L48.62,52.65 C48.19,53.22 48.49,53.98 49.08,54.24 L55.85,57.49 L55.98,57.49 C56.28,57.65 56.71,57.65 57.18,57.65 L57.47,57.49 C57.74,57.49 58.04,57.19 58.2,57.06 C58.2,56.89 58.34,56.89 58.34,56.76 L62.01,50.86 C62.31,50.3 62.18,49.7 61.42,49.41 L61.12,49.24 C60.55,48.97 59.83,49.11 59.36,49.71 L57.31,53.08 L53.49,42.19 C53.37,41.77 52.93,41.4 52.41,41.37 Z M39.95,43.51 C39.35,43.51 38.79,44.11 38.79,44.84 L38.79,55.27 L36.27,52.19 C35.84,51.76 35.11,51.76 34.65,52.19 L34.52,52.49 C34.09,52.92 34.09,53.81 34.52,54.24 L38.93,59.54 C39.06,59.54 39.06,59.71 39.23,59.71 C39.36,59.84 39.65,60.01 39.95,60.01 L40.12,60.01 C40.55,60.01 40.85,59.84 40.98,59.54 L41.15,59.54 L45.39,54.24 C45.86,53.81 45.86,52.92 45.39,52.49 L45.39,52.19 C44.83,51.76 44.23,51.76 43.76,52.19 L41.28,55.27 L41.28,44.84 C41.28,44.11 40.68,43.51 40.12,43.51 L39.95,43.51 Z M16.18,0 C63.99,0 63.99,0 63.99,0 C72.81,0 80,7.35 80,16.16 C80,63.97 80,63.97 80,63.97 C80,72.78 72.81,80 63.99,80 C16.18,80 16.18,80 16.18,80 C7.36,80 0,72.78 0,63.97 C0,16.16 0,16.16 0,16.16 C0,7.35 7.36,0 16.18,0 Z" fill="none" stroke="currentColor" stroke-width="1.5"/></svg>