<svg xmlns="http://www.w3.org/2000/svg" viewBox="0 0 80.0 80.0" width="24" height="24"><path d="M17.65,7.05 L17.65,12.22 L26.9,12.22 L27.66,12.52 L38.83,15.3 L27.66,18.38 L17.65,18.38 L17.65,23.54 L28.52,23.54 L28.52,21.32 L51.93,21.32 L51.93,23.54 L62.37,23.54 L62.37,18.38 L53.25,18.38 L41.79,15.3 L53.25,12.52 L53.82,12.22 L62.37,12.22 L62.37,7.05 L51.93,7.05 L51.93,9.4 L28.52,9.4 L28.52,7.05 L17.65,7.05 Z M28.52,10.13 L51.93,10.13 L51.93,12.05 L40.29,15 L28.52,11.92 L28.52,10.13 Z M40.29,15.73 L51.93,18.81 L51.93,20.43 L28.52,20.43 L28.52,19.11 L40.29,15.73 Z M3.53,30.57 L3.53,32.95 L76.47,32.95 L76.47,30.57 L3.53,30.57 Z M39.99,35.3 C39.69,35.3 39.56,35.43 39.26,35.73 C39.26,35.73 39.13,35.73 39.13,35.89 L35.02,40.29 C34.56,40.72 34.56,41.32 35.02,41.75 L35.15,41.92 C35.45,42.35 36.18,42.35 36.61,41.92 L38.97,39.4 L38.97,46.62 C35.15,43.07 31.17,40.29 28.82,40.29 C28.09,40.29 27.66,40.59 27.36,40.89 C26.17,42.05 26.76,44.4 28.82,47.94 C29.85,49.56 31.04,51.15 32.37,53.07 L26.17,53.07 L28.52,50.42 C28.99,49.99 28.99,49.27 28.52,48.97 L28.52,48.67 C28.09,48.24 27.36,48.24 27.06,48.67 L22.78,53.07 L22.78,53.37 C22.49,53.51 22.35,53.8 22.35,54.1 L22.35,54.27 C22.35,54.7 22.65,54.99 22.78,55.13 L22.78,55.29 L27.06,59.7 C27.36,60.13 28.09,60.13 28.52,59.7 L28.52,59.4 C28.99,58.97 28.99,58.37 28.52,57.94 L26.17,55.43 L32.8,55.43 C31.34,57.35 29.85,59.27 28.82,61.02 C26.76,64.53 26.17,66.88 27.36,67.94 C27.66,68.21 28.09,68.67 28.82,68.67 C31.17,68.67 35.15,65.85 38.97,62.34 L38.97,68.97 L36.61,66.45 C36.18,66.02 35.45,66.02 35.15,66.45 L35.02,66.62 C34.56,67.05 34.56,67.65 35.02,68.08 L39.13,72.48 C39.13,72.65 39.26,72.65 39.26,72.65 C39.56,72.94 39.69,72.94 39.99,72.94 L40.16,72.94 C40.46,72.94 40.89,72.78 41.02,72.65 L41.02,72.48 L45.3,68.08 C45.6,67.65 45.6,67.05 45.3,66.62 L45,66.45 C44.7,66.02 43.97,66.02 43.67,66.45 L41.18,68.97 L41.18,62.48 C45.16,65.86 48.98,68.67 51.17,68.67 C52.06,68.67 52.49,68.21 52.79,67.94 C53.82,66.88 53.39,64.53 51.17,61.02 C50.14,59.27 48.81,57.35 47.22,55.43 L53.99,55.43 L51.63,57.94 C51.16,58.37 51.16,58.97 51.63,59.4 L51.76,59.7 C52.06,60.13 52.79,60.13 53.25,59.7 L57.37,55.29 L57.37,55.13 C57.67,54.99 57.66,54.7 57.66,54.27 L57.66,54.1 C57.66,53.8 57.66,53.51 57.5,53.37 C57.36,53.24 57.37,53.24 57.37,53.07 L53.25,48.67 C52.79,48.24 52.06,48.24 51.76,48.67 L51.63,48.97 C51.16,49.27 51.16,49.99 51.63,50.42 L53.99,53.07 L47.65,53.07 C49.11,51.15 50.3,49.56 51.17,47.94 C53.39,44.4 53.82,42.05 52.79,40.89 C52.49,40.59 52.06,40.29 51.17,40.29 C48.98,40.29 45.16,43.07 41.18,46.45 L41.18,39.4 L43.67,41.92 C43.97,42.35 44.7,42.35 45,41.92 L45.3,41.75 C45.6,41.32 45.6,40.72 45.3,40.29 L41.02,35.89 L41.02,35.73 C40.89,35.59 40.46,35.3 40.16,35.3 L39.99,35.3 Z M28.69,42.35 L28.82,42.35 C30.31,42.35 33.7,44.57 37.64,48.24 C36.18,48.8 34.85,50.29 34.12,51.91 C32.8,50.29 31.6,48.67 30.74,47.18 C28.69,43.8 28.69,42.65 28.69,42.35 Z M51.17,42.35 L51.33,42.35 C51.47,42.78 51.17,44.1 49.41,47.18 C48.38,48.67 47.22,50.29 45.89,51.91 C45.3,50.29 43.97,48.8 42.34,48.24 C46.49,44.57 49.87,42.35 51.17,42.35 Z M34.12,56.92 C34.85,58.67 36.18,60 37.64,60.73 C33.7,64.4 30.31,66.45 28.82,66.45 L28.69,66.45 C28.69,66.32 28.69,65.13 30.74,61.75 C31.6,60.29 32.8,58.67 34.12,56.92 Z M45.89,56.92 C47.22,58.67 48.38,60.29 49.41,61.75 C51.47,65.13 51.47,66.32 51.33,66.45 L51.17,66.45 C49.87,66.45 46.49,64.4 42.34,60.73 C43.97,60.13 45.3,58.67 45.89,56.92 Z M16.18,0 C63.99,0 63.99,0 63.99,0 C72.81,0 80,7.35 80,16.16 C80,63.97 80,63.97 80,63.97 C80,72.78 72.81,80 63.99,80 C16.18,80 16.18,80 16.18,80 C7.36,80 0,72.78 0,63.97 C0,16.16 0,16.16 0,16.16 C0,7.35 7.36,0 16.18,0 Z" fill="none" stroke="currentColor" stroke-width="1.5"/></svg>