<svg xmlns="http://www.w3.org/2000/svg" viewBox="0 0 80.0 80.0" width="24" height="24"><path d="M29.57,5.87 L23.53,11.77 L23.53,11.9 L29.57,17.66 L29.57,14.71 L40.01,14.71 L40.01,8.99 L29.57,8.99 L29.57,5.87 Z M51.47,12.93 L51.47,15.74 L42.36,15.74 L42.36,21.77 L51.47,21.77 L51.47,24.72 L51.47,27.8 L42.36,27.8 L42.36,33.53 L51.47,33.53 L51.47,36.48 L56.48,30.72 L51.48,24.71 L56.48,18.82 L51.47,12.93 Z M29.57,19.99 L23.53,25.88 L23.53,26.01 L29.57,31.78 L29.57,28.83 L40.01,28.83 L40.01,23.1 L29.57,23.1 L29.57,19.99 Z M4.7,41.15 L4.7,43.54 L75.29,43.54 L75.29,41.15 L4.7,41.15 Z M41.17,45.88 C41.04,45.88 40.74,46.01 40.6,46.17 C40.6,46.17 40.44,46.17 40.44,46.31 L36.76,49.55 C36.46,49.85 36.46,50.44 36.76,50.74 L36.93,50.87 C37.36,51.17 37.79,51.17 38.25,50.87 L40.31,48.95 L40.31,54.42 C36.93,51.77 33.54,49.68 31.62,49.68 C30.89,49.68 30.46,49.85 30.16,50.14 C29.27,51.01 29.7,52.63 31.62,55.28 C32.35,56.6 33.38,57.8 34.7,59.12 L29.26,59.12 L31.32,57.2 C31.62,56.9 31.62,56.47 31.32,56.01 L31.19,56.01 C30.89,55.58 30.29,55.58 30,56.01 L26.32,59.25 L26.18,59.39 C26.02,59.55 25.89,59.85 25.89,59.98 L25.89,60.15 C25.89,60.44 26.02,60.71 26.32,60.71 L26.32,60.88 L30,64.12 C30.29,64.38 30.89,64.38 31.19,64.12 L31.32,63.95 C31.62,63.66 31.62,63.23 31.32,62.93 L29.26,61 L35,61 C33.68,62.49 32.52,63.95 31.62,65.14 C29.7,67.79 29.27,69.55 30.16,70.44 C30.46,70.57 30.89,70.87 31.62,70.87 C33.54,70.87 36.93,68.82 40.31,66.17 L40.31,71.17 L38.25,69.25 C37.79,68.95 37.36,68.95 36.93,69.25 L36.76,69.38 C36.46,69.68 36.46,70.28 36.76,70.58 L40.44,73.82 C40.44,73.95 40.6,73.96 40.6,73.96 C40.74,74.12 41.04,74.12 41.17,74.12 L41.33,74.12 C41.63,74.12 41.93,74.12 42.07,73.82 L45.74,70.58 C46.04,70.28 46.04,69.68 45.74,69.38 L45.58,69.25 C45.31,68.95 44.72,68.95 44.29,69.25 L42.19,71.17 L42.19,66.17 C45.58,68.82 48.96,70.87 50.88,70.87 C51.61,70.87 51.91,70.57 52.21,70.44 C53.24,69.55 52.8,67.79 50.88,65.14 C50.02,63.95 48.83,62.49 47.5,61 L53.24,61 L51.18,62.93 C50.88,63.23 50.88,63.66 51.18,63.95 L51.31,64.12 C51.78,64.38 52.21,64.38 52.64,64.12 L56.19,60.88 L56.19,60.71 C56.49,60.71 56.49,60.44 56.49,60.15 L56.49,59.98 C56.49,59.85 56.49,59.55 56.32,59.39 C56.32,59.39 56.32,59.25 56.19,59.25 L52.64,56.01 C52.21,55.58 51.78,55.58 51.31,56.01 L51.18,56.01 C50.88,56.47 50.88,56.9 51.18,57.2 L53.4,59.12 L47.8,59.12 C48.96,57.8 50.02,56.6 50.88,55.28 C52.8,52.63 53.24,51.01 52.21,50.14 C51.91,49.85 51.61,49.68 50.88,49.68 C48.96,49.68 45.58,51.77 42.19,54.25 L42.19,48.95 L44.29,50.87 C44.72,51.17 45.31,51.17 45.58,50.87 L45.74,50.74 C46.04,50.44 46.04,49.85 45.74,49.55 L42.07,46.31 L42.07,46.17 C41.93,46.01 41.63,45.88 41.33,45.88 L41.17,45.88 Z M31.49,51.17 L31.62,51.17 C32.78,51.17 35.6,52.63 39.28,55.58 C37.79,56.01 36.63,57.03 36.2,58.36 C32.52,54.55 31.19,51.77 31.49,51.17 Z M50.88,51.17 L51.05,51.17 C51.31,51.77 49.85,54.55 46.34,58.36 C45.74,57.03 44.72,56.01 43.23,55.58 C46.91,52.63 49.72,51.17 50.88,51.17 Z M36.2,62.03 C36.63,63.36 37.79,64.38 39.28,64.98 C35.6,67.79 32.78,69.38 31.62,69.38 L31.49,69.38 C31.19,68.65 32.52,66.01 36.2,62.03 Z M46.34,62.03 C49.85,66.01 51.31,68.65 51.05,69.38 L50.88,69.38 C49.72,69.38 46.91,67.79 43.23,64.98 C44.72,64.38 45.74,63.36 46.34,62.03 Z M16.18,0 C63.99,0 63.99,0 63.99,0 C72.81,0 80,7.35 80,16.16 C80,63.97 80,63.97 80,63.97 C80,72.78 72.81,80 63.99,80 C16.18,80 16.18,80 16.18,80 C7.36,80 0,72.78 0,63.97 C0,16.16 0,16.16 0,16.16 C0,7.35 7.36,0 16.18,0 Z" fill="none" stroke="currentColor" stroke-width="1.5"/></svg>