<svg xmlns="http://www.w3.org/2000/svg" viewBox="0 0 80.0 80.0" width="24" height="24"><path d="M38.83,4.7 L38.83,75.3 L41.18,75.3 L41.18,43.66 L41.18,29.41 L41.18,4.7 L38.83,4.7 Z M41.18,29.41 L47.35,35.31 L47.35,32.49 L57.66,32.49 L57.66,26.46 L47.35,26.46 L47.35,23.52 L41.48,29.41 L41.18,29.41 Z M41.18,43.66 L47.35,49.42 L47.35,46.47 L57.66,46.47 L57.66,40.74 L47.35,40.74 L47.35,37.63 L41.48,43.52 L41.18,43.66 Z M20.01,9.41 C19.84,9.41 19.58,9.55 19.41,9.71 L19.28,9.84 L16.03,13.08 C15.73,13.38 15.73,13.98 16.03,14.28 L16.03,14.41 C16.46,14.71 16.92,14.71 17.36,14.41 L19.11,12.49 L19.11,17.95 C16.03,15.3 12.94,13.22 11.19,13.22 C10.46,13.22 10.16,13.39 9.86,13.68 C9.13,14.55 9.4,16.33 11.19,18.98 C11.91,20.14 12.78,21.33 13.97,22.79 L8.97,22.79 L10.89,20.74 C11.19,20.44 11.19,20.01 10.89,19.54 L10.72,19.54 C10.46,19.11 9.99,19.11 9.56,19.54 L6.32,22.79 L6.18,22.92 C6.02,23.09 5.88,23.38 5.88,23.52 L5.88,23.68 C5.88,23.98 6.02,24.24 6.32,24.24 L6.32,24.41 L9.56,27.65 C9.99,27.92 10.46,27.92 10.72,27.65 L10.89,27.65 C11.19,27.19 11.19,26.76 10.89,26.46 L8.97,24.54 L14.27,24.54 C13.08,26.03 11.91,27.49 11.19,28.68 C9.4,31.33 9.13,33.09 9.86,33.98 C10.16,34.11 10.46,34.41 11.19,34.41 C12.94,34.41 16.03,32.36 19.11,29.71 L19.11,34.71 L17.36,32.79 C16.92,32.49 16.46,32.49 16.03,32.79 L16.03,32.92 C15.73,33.22 15.73,33.81 16.03,34.11 L19.28,37.36 L19.41,37.49 C19.58,37.66 19.84,37.66 20.01,37.66 L20.14,37.66 C20.44,37.66 20.73,37.66 20.87,37.49 L20.87,37.36 L24.12,34.11 C24.55,33.81 24.55,33.22 24.12,32.92 L24.12,32.79 C23.68,32.49 23.22,32.49 22.96,32.79 L21.03,34.71 L21.03,29.84 C24.12,32.36 27.2,34.41 28.96,34.41 C29.56,34.41 30.02,34.11 30.15,33.98 C31.05,33.09 30.75,31.33 28.96,28.68 C28.23,27.49 27.07,26.03 25.88,24.54 L31.18,24.54 L29.25,26.46 C28.96,26.76 28.96,27.19 29.25,27.65 L29.42,27.65 C29.72,27.92 30.15,27.92 30.58,27.65 L33.83,24.41 L33.83,24.24 C34.13,24.24 34.13,23.98 34.13,23.68 L34.13,23.52 C34.13,23.38 34.13,23.09 33.96,22.92 C33.96,22.92 33.97,22.79 33.83,22.79 L30.58,19.54 C30.15,19.11 29.72,19.11 29.42,19.54 L29.25,19.54 C28.96,20.01 28.96,20.44 29.25,20.74 L31.18,22.79 L26.17,22.79 C27.2,21.33 28.23,20.14 28.96,18.98 C30.75,16.33 31.05,14.55 30.15,13.68 C30.02,13.39 29.56,13.22 28.96,13.22 C27.2,13.22 24.12,15.3 21.03,17.79 L21.03,12.49 L22.96,14.41 C23.22,14.71 23.68,14.71 24.12,14.41 L24.12,14.28 C24.55,13.98 24.55,13.38 24.12,13.08 L20.87,9.84 C20.73,9.54 20.44,9.41 20.14,9.41 L20.01,9.41 Z M11.02,14.71 L11.19,14.71 C12.21,14.71 14.87,16.17 18.25,19.11 C16.93,19.54 15.9,20.57 15.3,21.9 C12.05,18.09 10.72,15.31 11.02,14.71 Z M28.96,14.71 L29.12,14.71 C29.42,15.31 28.1,18.09 24.72,21.9 C24.29,20.57 23.22,19.54 21.93,19.11 C25.31,16.17 27.93,14.71 28.96,14.71 Z M15.3,25.57 C15.9,27.06 16.93,27.92 18.25,28.52 C14.87,31.47 12.21,32.92 11.19,32.92 L11.02,32.92 C10.72,32.19 12.05,29.54 15.3,25.57 Z M24.72,25.57 C28.1,29.54 29.42,32.19 29.12,32.92 L28.96,32.92 C27.93,32.92 25.31,31.47 21.93,28.52 C23.22,27.92 24.29,27.06 24.72,25.57 Z M68.99,30.57 L68.99,33.69 L60,33.69 L60,39.41 L68.99,39.41 L68.99,42.36 L68.99,45.45 L60,45.45 L60,51.17 L68.99,51.17 L68.99,54.12 L73.97,48.36 L74.13,48.23 L69,42.35 L73.97,36.6 L74.13,36.6 L68.99,30.57 Z M11.19,44.7 L11.19,47.35 L9.56,47.35 C8.97,47.35 8.53,47.77 8.53,48.37 L8.53,49.99 L5.88,49.99 L5.88,52.18 L8.53,52.18 L8.53,56.62 L5.88,56.62 L5.88,58.8 L8.53,58.8 L8.53,63.24 L5.88,63.24 L5.88,65.42 L8.53,65.42 L8.53,67.05 C8.53,67.64 8.97,68.07 9.56,68.07 L11.19,68.07 L11.19,70.59 L13.24,70.59 L13.24,68.07 L17.79,68.07 L17.79,70.59 L20.01,70.59 L20.01,68.07 L24.55,68.07 L24.55,70.59 L26.6,70.59 L26.6,68.07 L28.23,68.07 C28.83,68.07 29.25,67.64 29.25,67.05 L29.25,65.42 L31.78,65.42 L31.78,63.24 L29.25,63.24 L29.25,58.8 L31.78,58.8 L31.78,56.62 L29.25,56.62 L29.25,52.18 L31.78,52.18 L31.78,49.99 L29.25,49.99 L29.25,48.37 C29.25,47.77 28.83,47.35 28.23,47.35 L26.6,47.35 L26.6,44.7 L24.55,44.7 L24.55,47.35 L20.01,47.35 L20.01,44.7 L17.79,44.7 L17.79,47.35 L13.24,47.35 L13.24,44.7 L11.19,44.7 Z M10.72,49.57 L27.07,49.57 L27.07,65.85 L10.72,65.85 L10.72,49.57 Z M12.94,51.74 L12.94,56.48 L17.65,56.48 L17.65,51.74 L12.94,51.74 Z M20,51.74 L20,56.48 L24.71,56.48 L24.71,51.74 L20,51.74 Z M12.94,58.8 L12.94,63.53 L17.65,63.53 L17.65,58.8 L12.94,58.8 Z M19.94,58.8 L19.94,63.53 L24.71,63.53 L24.71,58.8 L19.94,58.8 Z M16.18,0 C63.99,0 63.99,0 63.99,0 C72.81,0 80,7.35 80,16.16 C80,63.97 80,63.97 80,63.97 C80,72.78 72.81,80 63.99,80 C16.18,80 16.18,80 16.18,80 C7.36,80 0,72.78 0,63.97 C0,16.16 0,16.16 0,16.16 C0,7.35 7.36,0 16.18,0 Z" fill="none" stroke="currentColor" stroke-width="1.5"/></svg>