<svg xmlns="http://www.w3.org/2000/svg" viewBox="0 0 71.55 85.24" width="24" height="24"><path d="M35.88,85.24 C26.72,80.88 18.79,74.42 12.28,63.1 C4.88,49.55 0.4,31.83 0,12.12 C10.53,13.84 26.97,13.46 35.94,0 C43.58,12.22 56.23,14 71.55,11.99 C71.33,31.23 67.18,48.49 60.33,61.49 C53.47,74.15 45.29,80.98 35.88,85.24 Z M35.88,6.12 L34.85,7.22 C26.16,16.46 14.18,17.72 5.68,16.33 L3.97,16.05 L4.05,17.78 C4.86,34.83 9.29,47.64 15.3,60.39 L15.31,60.43 L15.33,60.46 C21.28,71.43 28.84,76.8 35.44,79.56 L35.98,79.79 L36.53,79.56 C44.14,76.31 51.16,69.96 57.04,59.11 L57.04,59.1 L57.05,59.1 C63.45,46.95 66.78,31.72 67.55,17.72 L67.65,15.9 L65.87,16.26 C54.13,18.62 43.51,14.45 36.91,7.24 Z M35.85,10.11 C42.77,17.02 53.16,20.96 64.57,19.27 C63.65,32.47 60.45,46.61 54.56,57.78 C54.56,57.78 54.56,57.78 54.56,57.78 C49.05,67.94 42.73,73.64 35.96,76.68 C32.78,75.29 29.4,73.26 26.11,70.16 L35.46,52.82 L33.7,51.86 L35.51,48.5 C36.91,48.98 38.4,49.25 39.95,49.25 C47.56,49.25 53.77,43.04 53.77,35.43 C53.77,27.83 47.56,21.62 39.95,21.62 C32.35,21.62 26.14,27.83 26.14,35.43 C26.14,39.9 28.28,43.86 31.58,46.39 L29.77,49.75 L28.37,48.99 L20.51,63.55 C19.59,62.2 18.69,60.75 17.82,59.15 C12.11,47.01 8.01,35 7.02,19.22 C15.72,20.25 27.05,18.68 35.85,10.11 Z M39.95,25.65 C45.38,25.65 49.74,30.01 49.74,35.43 C49.74,40.86 45.38,45.22 39.95,45.22 C34.53,45.22 30.17,40.86 30.17,35.43 C30.17,30.01 34.53,25.65 39.95,25.65 Z M40.56,27.28 C38.63,27.34 36.84,28 35.67,28.77 L35.67,28.77 L35.66,28.78 C33.44,30.29 32.22,31.98 31.57,34.09 C33.48,32.66 34.42,31.33 36.45,29.94 C37.66,29.15 40.11,28.39 42.22,28.82 C41.85,27.31 41.2,27.26 40.56,27.28 Z" fill="none" stroke="currentColor" stroke-width="1.5"/></svg>