<svg xmlns="http://www.w3.org/2000/svg" viewBox="0 0 100.0 86.34" width="24" height="24"><path d="M50,18.47 C63.67,18.47 74.7,29.5 74.7,43.17 C74.7,56.84 63.67,67.87 50,67.87 C36.33,67.87 25.3,56.84 25.3,43.17 C25.3,29.5 36.33,18.47 50,18.47 Z M50,13.98 C33.9,13.98 20.81,27.08 20.81,43.17 C20.81,59.27 33.9,72.36 50,72.36 C66.09,72.36 79.19,59.27 79.19,43.17 C79.19,27.08 66.09,13.98 50,13.98 Z M49.88,21.1 L47.66,44.39 L63.25,38.67 L52.15,40.33 L52.16,23.38 Z M72.72,82.83 L95.45,42.87 L72.71,3.12 L27.36,3.12 L4.57,42.84 L27.32,82.83 Z M24.74,86.34 L0,43 L24.66,0 L75.28,0 L100,43 L75.27,86.34 Z" fill="none" stroke="currentColor" stroke-width="1.5"/></svg>