<svg xmlns="http://www.w3.org/2000/svg" viewBox="0 0 80.0 80.0" width="24" height="24"><path d="M39.54,13.34 L36.74,42.73 L56.42,35.52 L42.41,37.61 L42.41,16.21 Z M39.69,4.36 C19.38,4.36 2.85,20.89 2.85,41.2 C2.85,61.52 19.38,78.04 39.69,78.04 C60.01,78.04 76.54,61.52 76.54,41.2 C76.54,20.89 60.01,4.36 39.69,4.36 Z M39.69,10.03 C56.94,10.03 70.87,23.95 70.87,41.2 C70.87,58.45 56.94,72.37 39.69,72.37 C22.44,72.37 8.52,58.45 8.52,41.2 C8.52,23.95 22.44,10.03 39.69,10.03 Z M16.18,0 C63.99,0 63.99,0 63.99,0 C72.81,0 80,7.35 80,16.16 C80,63.97 80,63.97 80,63.97 C80,72.78 72.81,80 63.99,80 C16.18,80 16.18,80 16.18,80 C7.36,80 0,72.78 0,63.97 C0,16.16 0,16.16 0,16.16 C0,7.35 7.36,0 16.18,0 Z" fill="none" stroke="currentColor" stroke-width="1.5"/></svg>