<svg xmlns="http://www.w3.org/2000/svg" viewBox="0 0 75.2 58.74" width="24" height="24"><path d="M37.3,16.02 L34.23,31.34 L22.08,31.34 L34.23,37.58 L34.23,49.73 L40.47,37.58 L52.62,37.58 L40.47,31.34 L40.47,19.19 Z M37.33,10.15 L36.87,14.71 L37.81,10.63 Z M28.04,12.04 L29.21,16.45 L28.48,12.33 Z M46.62,12.04 L44.6,16.09 L47.05,12.7 Z M20.44,17.19 L23.01,20.87 L20.77,17.33 Z M54.22,17.19 L51.01,20.2 L54.56,17.99 Z M15.41,24.68 L18.99,27.17 L15.59,24.72 Z M59.25,24.68 L55.33,26.31 L59.44,25.58 Z M13.48,33.97 L17.6,34.91 L13.53,33.97 Z M57.02,33.97 L61.15,34.91 L57.07,33.97 Z M19.15,41.67 L15.23,43.3 L19.35,42.57 Z M55.46,41.67 L59.08,44.16 L55.7,41.71 Z M23.33,47.87 L20.12,50.89 L23.67,48.68 Z M51.33,47.87 L53.9,51.55 L51.67,48.01 Z M29.64,52.14 L27.62,56.18 L30.07,52.79 Z M45.02,52.14 L46.19,56.55 L45.46,52.43 Z M37.33,53.7 L36.87,58.25 L37.81,54.17 Z M37.45,0 C18.4,0 2.9,15.51 2.9,34.55 C2.9,38.21 3.48,41.74 4.54,45.06 L0,46.83 L10.77,51.59 L15.45,40.79 L10.35,42.79 C9.56,40.18 9.13,37.42 9.13,34.55 C9.13,18.88 21.77,6.24 37.45,6.24 C53.12,6.24 65.76,18.88 65.76,34.55 C65.76,37.38 65.34,40.11 64.57,42.68 L59.75,40.79 L64.43,51.59 L75.2,46.83 L70.39,44.95 C71.43,41.67 72,38.17 72,34.55 C72,15.51 56.49,0 37.45,0 Z" fill="none" stroke="currentColor" stroke-width="1.5"/></svg>