<svg xmlns="http://www.w3.org/2000/svg" viewBox="0 0 100.0 86.34" width="24" height="24"><path d="M32.01,26.75 C32.01,59.41 32.01,59.41 32.01,59.41 C32.01,63.5 28.73,66.71 24.64,66.71 C24.03,66.71 24.03,66.71 24.03,66.71 C19.96,66.71 16.65,63.5 16.65,59.41 C16.65,26.75 16.65,26.75 16.65,26.75 C16.65,23.27 19.08,20.41 22.29,19.71 C22.29,29.35 22.29,29.35 22.29,29.35 C22.29,30.39 23.17,31.27 24.2,31.27 C24.46,31.27 24.46,31.27 24.46,31.27 C25.5,31.27 26.38,30.39 26.38,29.35 C26.38,19.71 26.38,19.71 26.38,19.71 C29.59,20.41 32.01,23.27 32.01,26.75 Z M81.93,23.27 C81.93,63.15 81.93,63.15 81.93,63.15 C81.93,65.15 80.29,66.81 78.29,66.81 C38,66.81 38,66.81 38,66.81 C36,66.81 34.36,65.15 34.36,63.15 C34.36,23.27 34.36,23.27 34.36,23.27 C34.36,21.19 36,19.53 38,19.53 C78.29,19.53 78.29,19.53 78.29,19.53 C80.29,19.53 81.93,21.19 81.93,23.27 Z M43.48,53.07 C43.48,51.78 42.44,50.65 41.05,50.65 C39.74,50.65 38.61,51.78 38.61,53.07 C38.61,54.46 39.74,55.5 41.05,55.5 C42.44,55.5 43.48,54.46 43.48,53.07 Z M50.86,53.07 C50.86,51.78 49.72,50.65 48.33,50.65 C47.04,50.65 45.91,51.78 45.91,53.07 C45.91,54.46 47.04,55.5 48.33,55.5 C49.72,55.5 50.86,54.46 50.86,53.07 Z M58.14,53.07 C58.14,51.78 57.02,50.65 55.71,50.65 C54.32,50.65 53.28,51.78 53.28,53.07 C53.28,54.46 54.32,55.5 55.71,55.5 C57.02,55.5 58.14,54.46 58.14,53.07 Z M62.83,24.23 C39.39,24.23 39.39,24.23 39.39,24.23 C39.39,45.26 39.39,45.26 39.39,45.26 C62.83,45.26 62.83,45.26 62.83,45.26 Z M77.59,42.39 C77.59,41.17 76.55,40.14 75.24,40.04 C75.24,40.04 75.24,40.04 75.24,40.04 C69.96,40.04 69.96,40.04 69.96,40.04 C69.96,40.04 69.96,40.04 69.96,40.04 C69.96,40.04 69.96,40.04 69.96,40.04 C68.57,40.04 67.53,41.08 67.53,42.39 C67.53,43.7 68.57,44.74 69.96,44.74 C69.96,44.74 69.96,44.74 69.96,44.74 C69.96,44.74 69.96,44.74 69.96,44.74 C75.24,44.74 75.24,44.74 75.24,44.74 C75.24,44.74 75.24,44.74 75.24,44.74 C76.55,44.74 77.59,43.7 77.59,42.39 Z M77.59,34.23 C77.59,32.92 76.55,31.88 75.24,31.88 C75.24,31.88 75.24,31.88 75.24,31.88 C69.96,31.88 69.96,31.88 69.96,31.88 C69.96,31.88 69.96,31.88 69.96,31.88 C69.96,31.88 69.96,31.88 69.96,31.88 C68.57,31.88 67.53,32.92 67.53,34.23 C67.53,35.52 68.57,36.56 69.96,36.56 C69.96,36.56 69.96,36.56 69.96,36.56 C69.96,36.56 69.96,36.56 69.96,36.56 C75.24,36.56 75.24,36.56 75.24,36.56 C75.24,36.56 75.24,36.56 75.24,36.56 C76.55,36.48 77.59,35.44 77.59,34.23 Z M77.59,25.97 C77.59,24.75 76.55,23.7 75.24,23.7 C75.24,23.7 75.24,23.7 75.24,23.7 C69.96,23.7 69.96,23.7 69.96,23.7 C69.96,23.7 69.96,23.7 69.96,23.7 C69.96,23.7 69.96,23.7 69.96,23.7 C68.57,23.7 67.53,24.66 67.53,25.97 C67.53,27.36 68.57,28.32 69.96,28.32 C69.96,28.32 69.96,28.32 69.96,28.32 C69.96,28.32 69.96,28.32 69.96,28.32 C75.24,28.32 75.24,28.32 75.24,28.32 C75.24,28.32 75.24,28.32 75.24,28.32 C76.55,28.32 77.59,27.26 77.59,25.97 Z M72.72,82.83 L95.45,42.87 L72.71,3.12 L27.36,3.12 L4.57,42.84 L27.32,82.83 Z M24.74,86.34 L0,43 L24.66,0 L75.28,0 L100,43 L75.27,86.34 Z" fill="none" stroke="currentColor" stroke-width="1.5"/></svg>