<svg xmlns="http://www.w3.org/2000/svg" viewBox="0 0 80.0 80.0" width="24" height="24"><path d="M40.43,13.53 C37.94,13.34 35.83,15.22 35.4,17.51 C35.22,18.55 35.4,19.58 35.4,20.62 C35.22,21.27 34.98,21.88 34.19,22.3 C33.95,22.3 33.77,22.49 33.34,22.73 C31.28,23.15 30.2,24.6 30.01,26.66 L50,26.66 L50,26.06 C49.58,24.37 48.73,23.15 46.85,22.73 C46.67,22.49 46.43,22.49 46.25,22.3 C45.4,21.88 44.98,21.46 44.98,20.43 L44.98,18.31 C44.79,15.83 42.91,13.76 40.43,13.53 Z M23.35,16.65 C21.47,16.65 20.01,18.34 20.01,20.21 L20.01,63.52 C20.01,65.21 21.47,66.66 23.35,66.66 L56.85,66.66 C58.72,66.66 59.99,65.21 59.99,63.52 L59.99,20.21 C59.99,18.34 58.73,16.65 56.66,16.65 L49.16,16.65 L48.55,16.65 L48.55,18.34 C48.55,19.79 49.58,20.64 51.03,20.64 L54.55,20.64 C55.82,20.64 56.43,21.24 56.43,22.7 L56.43,33.35 L56.43,61.03 C56.43,62.3 55.82,62.91 54.79,62.91 L25.65,62.91 C24.38,62.91 23.77,62.3 23.77,61.03 L23.77,49.79 C23.93,49.88 24.06,49.98 24.19,50.19 C24.38,50.43 24.8,51.04 24.99,51.69 L25.23,52.3 C25.41,52.72 25.41,53.15 25.65,53.34 C25.83,53.15 26.07,52.91 26.49,52.72 L27.1,52.3 C27.71,50.85 28.74,49.16 29.82,47.51 C30.43,46.86 30.85,46.25 31.28,45.64 L31.47,45.64 C31.65,45.4 32.07,44.98 32.31,44.79 L50,44.79 L50,43.34 L29.4,43.34 L29.4,44.79 L31.04,44.79 C30.62,45.22 30.01,46.06 29.4,46.48 C28.13,47.94 27.1,49.39 26.25,50.84 L26.07,50.19 C25.65,49.16 25.22,48.55 24.8,48.55 C24.49,48.55 24.15,48.82 23.77,49.19 L23.77,43.21 C23.93,43.35 24.06,43.51 24.19,43.75 C24.38,43.94 24.8,44.37 24.99,45.21 L25.23,45.63 C25.41,46.05 25.41,46.48 25.65,46.66 C25.83,46.48 26.07,46.48 26.49,46.06 L27.1,45.63 C27.71,44.18 28.74,42.72 29.82,41.27 C30.86,39.81 31.66,38.73 32.73,38.12 L50,38.12 L50,36.67 L29.4,36.67 L29.4,38.12 L31.65,38.12 C30.85,38.73 30.01,39.39 29.4,40.19 C28.13,41.46 27.1,42.91 26.25,44.18 L26.07,43.75 C25.65,42.72 25.22,42.07 24.8,42.07 C24.49,42.07 24.15,42.31 23.77,42.6 L23.77,36.46 C23.93,36.54 24.06,36.64 24.19,36.85 C24.38,37.09 24.61,37.28 24.8,37.7 C24.8,37.93 24.8,38.12 24.99,38.36 L25.23,38.73 C25.41,39.58 25.41,40 25.65,40 C25.83,40 26.07,39.58 26.49,39.39 L27.1,39.16 L27.29,38.97 C27.29,38.54 27.52,38.35 27.71,37.7 C28.32,36.67 29.16,35.4 30.01,34.18 C31.27,32.49 32.31,31.27 33.34,30.62 L33.11,30.01 C31.89,30.85 30.62,31.88 29.4,33.34 C28.13,34.6 27.1,36.06 26.25,37.28 L26.07,36.85 C25.65,36.06 25.22,35.4 24.8,35.4 C24.49,35.4 24.15,35.59 23.77,35.9 L23.77,22.51 C23.77,21.25 24.38,20.64 25.41,20.64 L29.4,20.64 C30.62,20.64 31.47,19.98 31.47,18.76 C31.65,18.1 31.47,17.49 31.47,16.65 L30.86,16.65 L23.35,16.65 Z M40,16.86 C40.84,16.86 41.46,17.52 41.46,18.31 C41.46,19.16 40.84,19.82 40,19.82 C39.16,19.82 38.55,19.16 38.55,18.31 C38.55,17.52 39.16,16.86 40,16.86 Z M30.01,49.96 L30.01,52.5 L50,52.5 L50,49.96 L30.01,49.96 Z M0,40.02 C0,17.92 17.92,0 39.98,0 C62.31,0 80,17.92 80,40.02 C80,62.31 62.31,80 39.98,80 C17.92,80 0,62.31 0,40.02 Z" fill="none" stroke="currentColor" stroke-width="1.5"/></svg>