<svg xmlns="http://www.w3.org/2000/svg" viewBox="0 0 80.0 80.0" width="24" height="24"><path d="M40.83,41.19 C40.83,41.19 40.83,41.19 40.83,41.19 C40.83,41.19 41.42,40.6 41.82,41.01 C42,41.19 42,41.19 42,41.19 C43.81,42.59 46.42,43.22 48.81,42.18 C52.02,40.78 53.41,37 52.2,33.79 C50.62,30.59 46.83,28.97 43.63,30.41 C41.19,31.4 39.79,33.61 39.61,36 C39.79,36.82 38.4,37.4 38.4,37.4 C28.79,41.42 28.79,41.42 28.79,41.42 C28.79,41.42 28.02,41.82 27.8,42.41 C27.8,42.99 26.99,44.62 26.99,44.62 C26.99,44.62 26.63,45.79 28.02,46.02 C30.19,46.83 30.19,46.83 30.19,46.83 C31,46.6 31,46.6 31,46.6 C31.41,45.61 31.41,45.61 31.41,45.61 C31.99,45.2 31.99,45.2 31.99,45.2 C32.8,45.61 32.8,45.61 32.8,45.61 C33.8,45.2 33.8,45.2 33.8,45.2 C34.02,44.39 34.02,44.39 34.02,44.39 C35.19,43.99 35.19,43.99 35.19,43.99 C36.01,44.21 36.01,44.21 36.01,44.21 C36.41,44.21 36.41,44.21 36.41,44.21 C37,42.81 37,42.81 37,42.81 C38.8,42 38.8,42 38.8,42 C39.39,43.4 39.39,43.4 39.39,43.4 C40.2,43.22 40.2,43.22 40.2,43.22 C40.83,41.42 40.83,41.42 40.83,41.42 L40.83,41.19 Z M47.01,35.78 C46.6,35.01 47.01,34.2 47.82,33.79 C48.63,33.61 49.63,33.79 49.81,34.61 C50.03,35.42 49.81,36.18 48.99,36.59 C48.23,37 47.42,36.59 47.01,35.78 Z M19.59,42 C17.2,45.43 17.2,45.43 17.2,45.43 C15.62,43.81 15.62,43.81 15.62,43.81 C15.22,43.63 14.81,43.63 14.81,43.99 C14.41,44.21 14.41,44.62 14.81,44.8 C16.8,46.83 16.8,46.83 16.8,46.83 C16.8,46.83 17.2,46.83 17.2,46.83 C17.2,46.83 17.2,46.83 17.2,46.83 C17.38,46.83 17.61,46.83 17.61,46.6 C20.58,42.59 20.58,42.59 20.58,42.59 C20.81,42.59 20.81,42.18 20.4,42 C20.22,41.82 19.82,42 19.59,42 Z M49.81,55.44 C47.19,58.82 47.19,58.82 47.19,58.82 C45.61,57.24 45.61,57.24 45.61,57.24 C45.43,57.02 45.03,57.02 44.8,57.24 C44.62,57.24 44.62,57.83 44.8,58.01 C46.83,59.81 46.83,59.81 46.83,59.81 C47.01,60.04 47.19,60.22 47.42,60.22 C47.42,60.22 47.42,60.22 47.42,60.22 C47.42,60.22 47.6,60.04 47.82,59.81 C50.62,56.03 50.62,56.03 50.62,56.03 C50.8,55.62 50.8,55.44 50.62,55.22 C50.39,55.03 50.03,55.03 49.81,55.44 Z M30.01,19.36 C27.62,22.57 27.62,22.57 27.62,22.57 C25.81,20.99 25.81,20.99 25.81,20.99 C25.59,20.99 25.41,20.99 25,20.99 C24.82,21.39 24.82,21.8 25.23,21.8 C27.21,23.96 27.21,23.96 27.21,23.96 C27.39,24.19 27.39,24.19 27.8,24.19 C27.8,24.19 28.02,23.96 28.02,23.96 C31,20 31,20 31,20 C31.23,19.77 31.23,19.36 30.82,19.18 C30.59,18.96 30.19,19.18 30.01,19.36 Z M36.59,52.82 C36.82,52.6 37,52.6 37.4,52.82 C37.63,53.01 37.63,53.41 37.4,53.64 C36.01,55.03 35.83,55.22 35.83,55.22 C37.22,56.43 37.4,56.84 37.4,56.84 C37.63,57.02 37.63,57.24 37.4,57.61 C37,57.83 36.82,57.83 36.59,57.61 C35.19,56.21 35.01,56.03 35.01,56.03 C33.62,57.24 33.39,57.61 33.39,57.61 C33.03,57.83 32.8,57.83 32.62,57.61 C32.4,57.24 32.4,57.02 32.62,56.84 C34.02,55.44 34.2,55.22 34.2,55.22 C32.8,53.82 32.62,53.64 32.62,53.64 C32.4,53.41 32.4,53.01 32.62,52.82 C32.8,52.6 33.03,52.6 33.39,52.82 C34.79,54.22 35.01,54.4 35.01,54.4 L36.59,52.82 Z M65.63,40.2 C65.81,40.02 66.22,40.02 66.4,40.2 C66.63,40.42 66.63,40.78 66.4,41.01 C65,42.41 64.82,42.59 64.82,42.59 C66.22,43.99 66.4,44.21 66.4,44.21 C66.63,44.21 66.63,44.8 66.4,45.02 C66.22,45.02 65.81,45.02 65.63,45.02 C64.24,43.4 64.24,43.4 64.24,43.4 C62.61,44.8 62.61,45.02 62.61,45.02 C62.21,45.02 61.8,45.02 61.8,45.02 C61.4,44.8 61.4,44.21 61.8,44.21 C63.02,42.59 63.42,42.59 63.42,42.59 C61.8,41.19 61.8,41.01 61.8,41.01 C61.4,40.78 61.4,40.42 61.8,40.2 C61.8,40.02 62.21,40.02 62.61,40.2 C63.83,41.6 64.24,41.82 64.24,41.82 L65.63,40.2 Z M53.41,20.18 C53.59,20 54,20 54.23,20.18 C54.41,20.4 54.41,20.76 54.23,20.99 C52.83,22.39 52.6,22.57 52.6,22.57 C54,23.96 54.23,24.19 54.23,24.19 C54.41,24.37 54.41,24.78 54.23,25 C54,25.18 53.59,25.18 53.41,25 C52.02,23.38 52.02,23.38 52.02,23.38 C50.39,24.78 50.39,25 50.39,25 C50.03,25.18 49.81,25.18 49.63,25 C49.22,24.78 49.22,24.37 49.63,24.19 C50.8,22.79 51.2,22.57 51.2,22.57 C49.63,21.17 49.63,20.99 49.63,20.99 C49.22,20.76 49.22,20.4 49.63,20.18 C49.81,20 50.03,20 50.39,20.18 C51.61,21.57 52.02,21.8 52.02,21.8 L53.41,20.18 Z M52.6,56.03 C52.42,55.03 52.02,54.22 51.2,53.41 C54,50.21 57.2,47.59 60,45.61 C61.03,46.83 62.43,47.59 64.24,47.59 C66.81,47.59 69.02,45.2 69.02,42.59 C69.02,41.6 68.84,40.78 68.43,40.02 C68.43,40.02 68.61,39.79 68.61,39.79 C68.84,40.2 69.02,40.42 69.42,40.78 C69.2,45.2 68.02,49.4 66.22,53.23 C61.4,55.03 56.8,55.8 52.6,56.03 Z M40.61,69.24 C41.82,66.44 43.4,63.83 45.03,61.44 C45.79,62.02 46.83,62.43 48,62.43 C50.62,62.43 53.01,60.22 53.01,57.42 C53.01,56.84 53.01,56.84 53.01,56.84 C56.8,56.61 61.22,55.8 65.63,54.22 C60.81,63.02 51.43,69.24 40.61,69.24 Z M39.79,69.24 C36.59,69.24 33.21,68.65 30.19,67.62 C31.41,66.44 33.8,63.65 36.59,59.81 C38.4,59.41 39.61,58.01 40.02,56.03 C40.83,56.21 41.82,56.43 43,56.43 C42.82,56.84 42.82,57.24 42.82,57.42 C42.82,58.82 43.4,60.04 44.39,60.81 C42.59,63.65 41.01,66.22 39.79,69.24 Z M19.19,60.45 C23.42,60.04 27.39,59.23 31,58.01 C31.81,59.41 33.39,60.22 35.01,60.22 C35.19,60.22 35.19,60.22 35.19,60.22 C32.62,63.83 30.41,66.22 29.42,67.44 C25.41,65.81 22.03,63.42 19.19,60.45 Z M17.38,58.64 C17.38,55.22 17.61,52.19 18.01,49.22 C19.59,49.22 20.81,48.41 21.62,47.19 C24.19,49.22 27.21,51.2 30.59,52.82 C30.19,53.64 30.01,54.4 30.01,55.22 C30.01,56.03 30.19,56.84 30.59,57.42 C26.99,58.64 23.02,59.41 18.42,59.63 C18.19,59.41 17.79,58.82 17.38,58.64 Z M11.02,40.02 C11.02,38.62 11.02,37 11.2,35.6 C12.02,36.82 13.19,38.39 14.81,40.42 C13.41,41.19 12.78,42.59 12.78,44.21 C12.78,46.83 14.81,48.81 17.2,49.22 C16.8,51.83 16.62,54.63 16.62,57.61 C13.19,52.6 11.02,46.6 11.02,40.02 Z M15.98,23.38 C17.61,22.97 20.22,22.39 23.2,21.8 C23.2,23.38 24.19,24.78 25.59,25.77 C23.2,29.38 20.81,33.79 19.19,39.39 C18.82,39.39 18.19,39.21 17.79,39.21 C16.8,39.21 15.98,39.39 15.4,39.79 C13.41,37.58 12.2,35.6 11.61,34.38 C12.42,30.41 14,26.8 15.98,23.38 Z M22.03,17.15 C22.39,17.56 23.2,17.97 24.01,18.78 C23.61,19.36 23.2,20.18 23.2,20.99 C20.58,21.39 18.42,21.8 16.8,22.39 C18.42,20.4 20.22,18.78 22.03,17.15 Z M39.21,10.98 C37.4,12.15 34.61,14.58 31.59,17.79 C30.59,16.97 29.6,16.39 28.2,16.39 C26.63,16.39 25.41,16.97 24.42,18.19 C23.79,17.56 23.2,16.97 22.61,16.57 C27.39,13.19 33.03,11.16 39.21,10.98 Z M40.61,10.98 C44.39,10.98 48.23,11.79 51.61,13.19 C51.61,14.58 51.61,16.16 51.61,17.56 C48.99,17.79 46.83,19.77 46.83,22.57 C42.41,20.99 37.99,20.4 34.43,20.18 C33.8,20.18 33.62,20.18 33.03,20.18 C33.03,19.59 32.62,18.96 32.22,18.37 C35.83,14.58 38.8,12.15 40.61,10.98 Z M61.8,20.4 C61.4,21.98 61.03,25.18 59.64,29.38 C58.01,28.2 56.62,27.39 54.99,26.4 C56.21,25.59 57.02,24.19 57.02,22.57 C57.02,20 54.99,17.79 52.42,17.56 C52.42,16.16 52.42,14.99 52.42,13.59 C55.8,15.4 59.01,17.79 61.8,20.4 Z M20,39.61 C21.62,34.38 24.01,29.78 26.22,25.99 C26.99,26.17 27.62,26.58 28.2,26.58 C28.79,26.58 29.42,26.17 30.01,25.99 C31.99,28.97 33.8,32.4 35.42,36.82 C36.01,36.41 36.01,36.41 36.01,36.41 C34.61,31.99 32.62,28.38 30.82,25.77 C32.22,25 33.21,23.2 33.21,21.39 C33.21,20.99 33.21,20.99 33.21,20.99 C33.62,20.99 33.8,20.99 34.2,20.99 C37.99,20.99 42.41,21.8 46.83,23.38 C47.42,25.41 48.81,26.8 50.62,27.39 C50.39,27.98 50.39,28.61 50.39,29.19 C50.39,29.19 50.8,29.38 51.02,29.6 C51.2,28.97 51.2,28.2 51.43,27.57 C52.02,27.57 52.02,27.57 52.02,27.57 C52.83,27.57 53.82,27.39 54.41,26.8 C56.03,27.8 57.83,28.97 59.41,30.19 C58.19,32.8 57.02,36 54.99,38.8 C52.2,43.4 48,48.63 41.19,52.82 C41.6,52.42 41.82,51.83 42,51.43 C43.4,49.22 44.39,47.01 45.79,44.62 C45.43,44.62 45.21,44.62 44.8,44.39 C43.63,46.83 42.59,48.99 41.42,51.02 C40.83,51.83 40.43,52.82 39.79,53.64 C39.79,53.64 39.79,53.64 39.79,53.64 C39.61,53.41 39.61,53.01 39.39,52.82 C39.21,50.21 39.03,48 38.62,45.79 C37.99,44.8 37.99,44.8 37.99,44.8 C37.81,45.61 37.81,45.61 37.81,45.61 C37.63,45.61 37.63,45.61 37.63,45.61 C37.99,47.59 38.4,49.4 38.4,51.61 C37.63,50.8 36.41,50.21 35.01,50.21 C33.39,50.21 31.81,51.02 31,52.19 C27.62,50.62 24.6,48.63 22.21,46.6 C22.61,46.02 22.79,45.02 22.79,44.21 C22.79,42.18 21.62,40.42 20,39.61 Z M67.8,39.39 C67.03,38.21 65.63,37.4 64.24,37.4 C61.22,37.4 59.01,39.79 59.01,42.59 C59.01,43.4 59.23,44.21 59.64,44.8 C56.62,47.01 53.41,49.8 50.39,53.01 C49.63,52.6 48.99,52.42 48,52.42 C45.79,52.42 43.81,53.82 43.22,55.62 C41.82,55.62 40.83,55.44 40.02,55.22 C40.02,55.22 40.02,55.22 40.02,55.22 C40.02,54.81 40.02,54.81 40.02,54.81 C40.02,54.63 40.2,54.4 40.43,54.22 C48,50.03 52.6,44.21 55.8,39.39 C57.61,36.18 59.01,33.39 59.82,30.59 C62.79,32.98 65.63,35.78 68.2,39.39 C68.02,39.39 68.02,39.39 67.8,39.39 Z M69.2,38.62 C69.2,38.8 69.02,38.8 68.84,38.8 C66,35.19 63.2,32.17 60.22,29.78 C61.4,26.17 62.03,23.2 62.43,21.17 C66.4,25.99 68.84,31.99 69.2,38.62 Z M40.02,7.95 C22.39,7.95 8,22.57 8,40.02 C8,57.83 22.39,72.04 40.02,72.04 C57.83,72.04 72.04,57.83 72.04,40.02 C72.04,22.57 57.83,7.95 40.02,7.95 Z M0,40 C0,17.9 17.99,0 40,0 C62.23,0 80,17.9 80,40 C80,62.28 62.23,80 40,80 C17.99,80 0,62.28 0,40 Z" fill="none" stroke="currentColor" stroke-width="1.5"/></svg>