<svg xmlns="http://www.w3.org/2000/svg" viewBox="0 0 106.67 106.67" width="24" height="24"><path d="M53.33,0 C23.99,0 0,23.87 0,53.33 C0,83.04 23.99,106.67 53.33,106.67 C82.98,106.67 106.67,83.04 106.67,53.33 C106.67,23.87 82.98,0 53.33,0 Z M51.53,4.2 L57.06,51.78 C57.86,51.9 58.67,52.02 59.46,52.15 L59.46,16.75 L70.36,54.81 C71.19,55.1 72,55.39 72.76,55.7 L72.76,30.18 L83.66,64.37 C84.92,67.77 83.63,72.62 82.99,74.64 C80.89,82.18 77.59,89.98 73.32,97.46 L38.63,97.45 L16.44,60.19 C14.2,55.9 14.66,53.26 17,51.64 C19.97,49.59 22.99,50.7 25.4,55.24 L32.49,64.62 L32.49,16.13 L43.39,50.5 C44.3,50.53 45.22,50.58 46.16,50.63 L46.16,9.73 Z" fill="none" stroke="currentColor" stroke-width="1.5"/></svg>