<svg xmlns="http://www.w3.org/2000/svg" viewBox="0 0 106.67 106.67" width="24" height="24"><path d="M53.33,0 C23.99,0 0,23.87 0,53.33 C0,83.04 23.99,106.67 53.33,106.67 C82.98,106.67 106.67,83.04 106.67,53.33 C106.67,23.87 82.98,0 53.33,0 Z M40.75,10.68 C42.21,10.68 43.59,11.53 44.2,12.95 L47.38,20.41 C49.31,20.06 51.3,19.86 53.33,19.86 C55.37,19.86 57.35,20.06 59.29,20.41 L62.47,12.95 C63.28,11.05 65.47,10.17 67.37,10.99 L74.21,13.9 C76.11,14.72 76.98,16.9 76.17,18.8 L72.98,26.28 C75.82,28.35 78.32,30.85 80.38,33.68 L87.86,30.49 C89.76,29.68 91.95,30.56 92.76,32.46 L95.68,39.3 C96.49,41.2 95.61,43.38 93.71,44.2 L86.26,47.38 C86.61,49.31 86.8,51.3 86.8,53.33 C86.8,55.36 86.61,57.35 86.26,59.29 L93.71,62.47 C95.61,63.28 96.49,65.47 95.68,67.37 L92.76,74.21 C91.95,76.11 89.76,76.98 87.86,76.17 L80.38,72.98 C78.32,75.82 75.82,78.32 72.98,80.38 L76.17,87.86 C76.98,89.76 76.11,91.95 74.21,92.76 L67.37,95.68 C65.47,96.49 63.28,95.61 62.47,93.71 L59.29,86.26 C57.35,86.61 55.37,86.8 53.33,86.8 C51.3,86.8 49.31,86.61 47.38,86.26 L44.2,93.71 C43.38,95.61 41.2,96.49 39.3,95.68 L32.46,92.76 C30.56,91.95 29.68,89.76 30.49,87.86 L33.68,80.38 C30.85,78.31 28.35,75.81 26.28,72.98 L18.8,76.17 C16.9,76.98 14.72,76.11 13.9,74.21 L10.99,67.37 C10.17,65.47 11.05,63.28 12.95,62.47 L20.41,59.29 C20.06,57.35 19.86,55.36 19.86,53.33 C19.86,51.3 20.06,49.31 20.41,47.38 L12.95,44.2 C11.05,43.38 10.17,41.2 10.99,39.3 L13.9,32.46 C14.72,30.56 16.9,29.68 18.8,30.49 L26.28,33.69 C28.35,30.85 30.85,28.35 33.69,26.28 L30.49,18.8 C29.68,16.9 30.56,14.72 32.46,13.9 L39.3,10.99 C39.77,10.78 40.26,10.69 40.75,10.68 Z M53.33,30.76 C40.8,30.76 30.76,40.8 30.76,53.33 C30.76,65.86 40.8,75.9 53.33,75.9 C65.86,75.9 75.9,65.86 75.9,53.33 C75.9,40.8 65.86,30.76 53.33,30.76 Z M50.87,37.94 L50.87,42.94 C50.87,43.72 51.5,44.35 52.28,44.35 L54.39,44.35 C55.17,44.35 55.8,43.72 55.8,42.94 L55.8,37.94 L56.93,66.79 L49.73,48.51 Z M53.33,65.09 Z" fill="none" stroke="currentColor" stroke-width="1.5"/></svg>