<svg xmlns="http://www.w3.org/2000/svg" viewBox="0 0 79.91 80.0" width="24" height="24"><path d="M0,40 C0,18.02 17.97,0 39.95,0 C62.16,0 79.91,18.02 79.91,40 C79.91,62.21 62.16,80 39.95,80 C17.97,80 0,62.21 0,40 Z M61.75,33.59 C62.92,33.59 63.96,32.6 63.96,31.39 C63.96,19 63.96,19 63.96,19 C63.96,19 63.96,19 63.96,18.82 C63.96,18.19 63.73,17.6 63.33,17.2 C62.92,16.79 62.92,16.79 62.92,16.79 C62.56,16.39 62.16,16.21 61.53,16.21 C61.35,15.98 61.17,15.98 60.94,15.98 C48.55,15.98 48.55,15.98 48.55,15.98 C47.34,15.98 46.35,17.2 46.35,18.19 C46.35,18.59 46.35,18.59 46.35,18.59 C46.35,19.99 47.34,20.8 48.55,20.8 C55.94,20.8 55.94,20.8 55.94,20.8 C43.55,33.41 43.55,33.41 43.55,33.41 C42.74,34 42.74,35.62 43.55,36.39 C43.78,36.61 43.78,36.61 43.78,36.61 C44.54,37.42 45.94,37.42 46.98,36.61 C59.14,24.4 59.14,24.4 59.14,24.4 C59.14,31.39 59.14,31.39 59.14,31.39 C59.14,32.6 60.13,33.59 61.35,33.59 L61.75,33.59 Z M33.78,61.39 C33.78,60.22 32.56,59.4 31.39,59.4 C24.36,59.4 24.36,59.4 24.36,59.4 C36.57,47.02 36.57,47.02 36.57,47.02 C37.56,45.98 37.56,44.81 36.57,43.82 C36.35,43.59 36.35,43.59 36.35,43.59 C35.58,42.6 34.18,42.6 33.19,43.59 C20.99,55.98 20.99,55.98 20.99,55.98 C20.99,48.59 20.99,48.59 20.99,48.59 C20.99,47.42 19.99,46.61 18.6,46.61 C18.37,46.61 18.37,46.61 18.37,46.61 C17.2,46.61 15.99,47.42 15.99,48.59 C15.99,61.21 15.99,61.21 15.99,61.21 C15.99,61.21 16.17,61.39 16.17,61.79 C16.17,62.2 16.39,62.78 16.8,63.19 C17.2,63.41 17.2,63.41 17.2,63.41 C17.56,63.82 18.19,64 19,64 C19,64 19,64 19.18,64 C31.39,64 31.39,64 31.39,64 C32.56,64 33.78,63.01 33.78,62.02 L33.78,61.39 Z M60.13,44.81 C60.13,43.82 59.14,42.6 58.15,42.6 C45.58,42.6 45.58,42.6 45.58,42.6 C45.58,42.6 45.58,42.6 45.36,42.6 C44.77,42.6 44.14,43.01 43.78,43.41 C43.37,43.59 43.37,43.59 43.37,43.59 C42.97,44 42.74,44.58 42.74,44.99 C42.74,45.4 42.74,45.62 42.74,45.62 C42.74,58.01 42.74,58.01 42.74,58.01 C42.74,59.4 43.55,60.22 44.77,60.22 C45.36,60.22 45.36,60.22 45.36,60.22 C46.35,60.22 47.34,59.4 47.34,58.01 C47.34,50.8 47.34,50.8 47.34,50.8 C59.95,63.19 59.95,63.19 59.95,63.19 C60.76,64 61.93,64 62.92,63.19 C63.33,63.01 63.33,63.01 63.33,63.01 C63.96,62.02 63.96,60.62 63.33,59.99 C50.94,47.42 50.94,47.42 50.94,47.42 C58.15,47.42 58.15,47.42 58.15,47.42 C59.14,47.42 60.13,46.61 60.13,45.4 L60.13,44.81 Z M35.58,20.22 L34.95,20.22 C33.96,20.22 32.97,20.98 32.97,22.42 C32.97,22.42 32.97,22.42 32.97,29.4 C32.97,29.4 32.97,29.4 20.58,17.2 C19.77,16.21 18.37,16.21 17.56,17.2 C17.56,17.2 17.56,17.2 17.2,17.42 C16.39,18.19 16.39,19.58 17.2,20.62 C17.2,20.62 17.2,20.62 29.59,32.78 C29.59,32.78 29.59,32.78 22.38,32.78 C21.17,32.78 20.17,33.82 20.17,35.22 C20.17,35.22 20.17,35.22 20.17,35.62 C20.17,36.61 21.17,37.78 22.38,37.78 C22.38,37.78 22.38,37.78 34.77,37.78 C34.95,37.78 34.95,37.6 35.17,37.6 C35.76,37.6 36.35,37.42 36.75,37.02 C36.75,37.02 36.75,37.02 37.16,36.61 C37.56,36.21 37.79,35.62 37.56,34.81 C37.56,34.81 37.56,34.81 37.56,34.81 C37.56,34.81 37.56,34.81 37.56,22.42 C37.56,20.98 36.75,20.22 35.58,20.22 Z" fill="none" stroke="currentColor" stroke-width="1.5"/></svg>