<svg xmlns="http://www.w3.org/2000/svg" viewBox="0 0 80.0 80.0" width="24" height="24"><path d="M48.93,17.19 C47.8,17.19 46.88,18.1 46.88,19.23 C46.89,19.52 46.95,19.81 47.07,20.07 L43.91,23.59 C42.69,22.91 41.4,22.55 40.09,22.55 C38.73,22.55 37.39,22.93 36.13,23.66 L32.99,20.1 C33.11,19.83 33.17,19.55 33.17,19.26 C33.18,18.13 32.26,17.22 31.13,17.22 C30.01,17.22 29.09,18.13 29.09,19.26 C29.09,20.39 30.01,21.3 31.13,21.3 C31.28,21.3 31.42,21.29 31.56,21.26 L34.63,24.74 C33.91,25.37 33.25,26.13 32.65,26.97 C38.07,29.87 42.79,29.39 47.61,27.08 C46.96,26.14 46.24,25.32 45.44,24.65 L48.51,21.23 C48.65,21.26 48.79,21.27 48.93,21.27 C50.05,21.27 50.97,20.36 50.97,19.23 C50.97,18.1 50.05,17.19 48.93,17.19 Z M31.71,28.51 C31.3,29.28 30.93,30.11 30.63,30.99 L26.75,29.35 C26.61,29.29 26.46,29.26 26.31,29.26 C25.05,29.24 24.7,30.97 25.87,31.44 L30,33.19 C29.77,34.31 29.62,35.46 29.57,36.63 L25.19,36.61 C23.65,36.57 23.64,38.89 25.18,38.87 L29.57,38.89 C29.61,39.72 29.71,40.53 29.84,41.31 L39.77,41.31 L39.77,30.71 C37.16,30.66 34.48,29.99 31.71,28.51 Z M48.54,28.63 C46.09,29.8 43.57,30.55 40.97,30.69 L40.97,41.31 L50.34,41.31 C50.47,40.53 50.57,39.72 50.61,38.9 L54.79,38.89 C56.33,38.91 56.33,36.59 54.79,36.62 L50.63,36.63 C50.57,35.45 50.41,34.28 50.16,33.15 L54.15,31.5 C55.32,31.03 54.95,29.27 53.69,29.31 C53.55,29.32 53.41,29.35 53.28,29.41 L49.55,30.95 C49.26,30.13 48.92,29.36 48.54,28.63 Z M15.64,32.26 L3.93,43.44 L6.67,45.86 L6.67,61.39 L72.01,62.81 L73.42,45.86 L75.06,45.86 L65.46,32.68 L54.65,32.26 L63.85,35.09 L71.68,43.02 L8.35,43.02 L16.24,35.09 L25.38,35.09 Z M9.5,45.86 L70.59,45.86 L70.59,59.98 L9.5,59.98 Z M16.18,0 L63.99,0 C72.81,0 80,7.35 80,16.16 L80,63.97 C80,72.78 72.81,80 63.99,80 L16.18,80 C7.36,80 0,72.78 0,63.97 L0,16.16 C0,7.35 7.36,0 16.18,0 Z" fill="none" stroke="currentColor" stroke-width="1.5"/></svg>