<svg xmlns="http://www.w3.org/2000/svg" viewBox="0 0 80.0 80.0" width="24" height="24"><path d="M40,4.5 L38.73,28.23 C37.26,29.16 36.12,30.59 35.66,32.48 C34.98,32.14 34.28,31.94 33.6,31.85 L23.48,21.79 L30.39,32.25 C28.96,32.8 27.8,33.78 27.21,34.87 C26.28,36.48 26.17,37.74 26.27,38.73 L15.45,38.73 L22.66,41.28 C22.06,42.13 21.97,43.25 22.11,44.2 C22.45,46.32 24.35,47.81 26.08,47.81 L30.34,47.8 L21.68,56.4 L33.96,47.79 L38.73,47.79 L38.73,64.55 L41.28,47.79 L46.02,47.78 L56.52,58.21 L49.63,47.77 L50.25,47.77 C53.05,47.77 55.31,45.23 55.57,42.64 C55.61,42.16 55.6,41.71 55.54,41.28 L64.56,41.28 L54.53,38.73 C53.45,37.19 51.73,36.3 50.13,36.38 C50.52,34.63 50.38,33.18 49.92,31.94 L58.32,23.6 L48.59,29.67 C48.44,29.48 48.28,29.29 48.11,29.12 C46.43,27.43 44.29,26.89 42.45,27.01 C42.06,27.04 41.66,27.1 41.28,27.19 L41.28,15.44 Z M16.18,0 L63.99,0 C72.81,0 80,7.35 80,16.16 L80,63.97 C80,72.78 72.81,80 63.99,80 L16.18,80 C7.36,80 0,72.78 0,63.97 L0,16.16 C0,7.35 7.36,0 16.18,0 Z" fill="none" stroke="currentColor" stroke-width="1.5"/></svg>