<svg xmlns="http://www.w3.org/2000/svg" viewBox="0 0 80.0 80.0" width="24" height="24"><path d="M37.42,23.55 L37.42,55.43 L40.73,23.55 Z M39.19,14.92 L39.21,14.92 L39.22,14.92 C39.99,14.92 40.84,15.41 41.51,16.23 C42.18,17.05 42.59,18.17 42.59,18.98 L42.59,52.78 C46.41,54.18 49.12,57.84 49.12,62.15 C49.12,67.68 44.67,72.13 39.14,72.13 C33.61,72.13 29.16,67.68 29.16,62.15 C29.16,57.89 31.8,54.27 35.54,52.83 L35.54,18.68 C35.54,17.99 35.9,16.94 36.56,16.17 C37.21,15.4 38.07,14.9 39.19,14.92 Z M39.24,12.45 C37.31,12.41 35.71,13.35 34.68,14.56 C33.64,15.78 33.06,17.26 33.06,18.68 L33.06,51.29 C29.26,53.42 26.68,57.49 26.68,62.15 C26.68,69.02 32.27,74.61 39.14,74.61 C46,74.61 51.6,69.02 51.6,62.15 C51.6,57.43 48.95,53.31 45.07,51.2 L45.07,45.15 L50.4,45.15 L45.07,42.9 L45.07,40.5 L47.59,40.5 L45.07,38.25 L45.07,35.85 L50.4,35.85 L45.07,33.6 L45.07,31.2 L47.59,31.2 L45.07,28.95 L45.07,26.55 L50.4,26.55 L45.07,24.3 L45.07,18.98 C45.07,17.43 44.43,15.9 43.42,14.67 C42.42,13.43 40.97,12.46 39.24,12.45 Z M49.34,4.41 C49.98,4.41 50.5,4.93 50.5,5.57 C50.5,6.22 49.98,6.73 49.34,6.73 C48.69,6.73 48.18,6.22 48.18,5.57 C48.18,4.93 48.69,4.41 49.34,4.41 Z M49.34,3.58 C48.25,3.58 47.35,4.48 47.35,5.57 C47.35,6.66 48.25,7.56 49.34,7.56 C50.43,7.56 51.32,6.66 51.32,5.57 C51.32,4.48 50.43,3.58 49.34,3.58 Z M59.72,15.94 L58.32,15.94 C58.2,17.38 57.1,18.1 55.62,18.1 C53.74,18.1 52.54,16.63 52.54,14.14 C52.55,11.54 53.88,10.23 55.64,10.23 C57.01,10.23 58.25,10.91 58.32,12.25 L59.73,12.25 C59.51,10.55 58.14,9.14 55.7,9.14 C52.77,9.14 51.17,11.08 51.17,14.23 C51.17,16.94 52.66,19.21 55.66,19.21 C58.56,19.21 59.61,17.31 59.72,15.94 Z M16.18,0 C63.99,0 63.99,0 63.99,0 C72.81,0 80,7.35 80,16.16 C80,63.97 80,63.97 80,63.97 C80,72.78 72.81,80 63.99,80 C16.18,80 16.18,80 16.18,80 C7.36,80 0,72.78 0,63.97 C0,16.16 0,16.16 0,16.16 C0,7.35 7.36,0 16.18,0 Z" fill="none" stroke="currentColor" stroke-width="1.5"/></svg>