<svg xmlns="http://www.w3.org/2000/svg" viewBox="0 0 106.67 92.1" width="24" height="24"><path d="M52.15,35.84 L52.15,40.16 L55.37,40.16 L55.37,35.84 C57.15,36.46 58.44,38.11 58.44,40.01 C58.44,42.47 56.34,44.48 53.78,44.48 C51.14,44.48 49.02,42.47 49.02,40.01 C49.02,38.11 50.31,36.46 52.15,35.84 Z M34.45,29.89 L34.45,79.02 C34.45,80.18 35.32,81.05 36.49,81.05 L70.97,81.05 C72.14,81.05 73,80.19 73,79.02 L73,29.89 Z M36.49,11.04 C35.34,11.04 34.45,11.96 34.45,13.09 L34.45,26.88 L73,26.88 L73,13.09 C73,11.95 72.12,11.04 70.97,11.04 Z M36.49,8.04 L70.97,8.04 C73.76,8.04 76.01,10.34 76.01,13.09 L76.01,28.05 C76.06,28.27 76.06,28.5 76.01,28.71 L76.01,79.02 C76.01,81.36 74.25,83.04 72.07,83.6 C71.79,83.9 71.39,84.06 70.97,84.06 L36.49,84.06 C33.73,84.06 31.44,81.79 31.44,79.02 L31.44,13.09 C31.44,10.33 33.71,8.04 36.49,8.04 Z M77.57,88.35 L101.81,45.73 L77.55,3.33 L29.18,3.33 L4.87,45.7 L29.14,88.35 Z M26.39,92.1 L0,45.86 L26.3,0 L80.29,0 L106.67,45.86 L80.29,92.1 Z" fill="none" stroke="currentColor" stroke-width="1.5"/></svg>