<svg xmlns="http://www.w3.org/2000/svg" viewBox="0 0 74.61 68.87" width="24" height="24"><path d="M53.14,15.47 Z M59.99,1.21 C55.63,1.24 53.23,4.34 52.41,6.31 C54.8,8.78 56.39,11.97 56.39,15.21 C56.38,16.23 56.75,16.49 57.28,16.66 C58.29,17.05 59.31,17.24 60.33,17.15 C64.32,16.67 67.56,13.56 67.56,9.37 C67.56,4.83 63.88,1.21 59.99,1.21 Z M30.53,2.68 C26.36,0 21.78,1.39 19.4,4.82 C16.94,8.9 18.17,12.06 20.74,14.99 C22.38,16.89 25.51,17.62 28.22,16.99 C29.36,16.62 29.65,16.32 29.57,15.36 C29.64,10.85 31.33,8.41 32.94,6.92 C33.54,6.41 33.46,5.95 32.98,5.14 C32.4,4.22 31.53,3.32 30.53,2.68 Z M20.14,18.32 C16.42,20.99 13.38,24.54 12,30.2 C11.74,31.44 11.59,32.62 11.65,33.73 L15.2,29.46 L19.59,31.24 L21.01,26.8 L27.3,26.8 L27.78,28.22 C29.14,26.32 30.91,24.71 32.23,23.7 L29.98,19.62 L25.96,24.13 C24.04,21.91 22.09,19.94 20.14,18.32 Z M64.75,18.35 L59.43,24.13 L55.44,20.06 L53.21,24.14 C59.71,28.25 63.71,35.54 64.79,42.59 C68.22,41.95 71.59,40.4 73.07,38.37 C74.47,35.69 74.61,32.05 73.68,29.15 C72.1,23.68 68.66,20.17 64.75,18.35 Z M49.75,25.65 C49.55,25.67 49.34,25.79 49.11,26.04 C47.08,28.22 44.99,31.07 42.94,33.56 L36.68,26.41 C36.15,25.78 35.62,25.43 34.72,26.11 C32.5,27.54 30.94,29.27 29.77,31.02 L33.31,29.58 L37.34,34.42 L35.25,37.84 L38.97,40.34 L37.21,46.38 L32.47,46.6 L33.22,51.06 L29.09,53.19 C32.47,56.05 38.86,57.49 44.7,57.49 C54.24,57.56 61.28,51.94 61.73,48.08 C61.83,45.24 61.51,41.21 60.2,37.79 C58.13,31.93 54.34,28.46 50.78,26.13 C50.39,25.84 50.08,25.62 49.75,25.65 Z M11.95,35.57 C12.2,36.39 12.6,37.15 13.21,37.85 L13.3,37.79 Z M13.15,46.5 L11.46,47.21 L8.71,44.46 L6.31,44.49 L5.75,46.2 L5.6,46.67 L4.15,47.06 L2.13,46.5 L0.82,48.51 L2.11,50.16 L0,53.1 L0.56,55.44 L2.42,55.62 L3.88,59.4 L6.11,60.3 L7.29,58.89 L10.92,60.28 L13.11,59.29 L12.87,57.27 L12.8,56.75 L13.96,55.82 L15.68,55.54 L16.08,53.16 C15.51,52.87 14.94,52.57 14.36,52.28 C14.1,49.37 14.41,48.85 14.72,48.32 Z M10.91,50.07 Z M26.28,53.46 L24.96,54.73 L21.4,53.15 L19.17,54.04 L19.27,55.83 L19.29,56.32 L18.08,57.21 L16,57.41 L15.49,59.76 L17.28,60.84 L16.37,64.34 L17.73,66.33 L19.53,65.82 L22.25,68.82 L24.66,68.87 L25.25,67.12 L29.14,67.13 L30.82,65.41 L29.88,63.61 L29.63,63.15 L30.38,61.87 L31.88,60.99 L31.4,58.63 C30.76,58.56 30.12,58.49 29.48,58.42 C28.19,55.8 28.3,55.2 28.4,54.6 Z M25.47,57.6 Z M22.38,28.88 L21.55,31.48 L15.76,31.91 L13.47,34.67 L14.86,36.95 L15.24,37.57 L14.28,39.59 L11.69,41.33 L12.69,44.77 L15.8,44.91 L17.08,50.15 L20.27,51.79 L22.27,49.85 L27.96,51.86 L31.15,50.22 L30.69,47.52 L35.79,44.78 L36.78,41.34 L34.27,39.65 L33.62,39.21 L33.69,37 L35.04,34.79 L32.75,32.04 C31.86,32.4 30.97,32.76 30.09,33.12 C26.55,30.6 26.25,29.74 25.96,28.88 Z M24.24,34.88 Z" fill="none" stroke="currentColor" stroke-width="1.5"/></svg>