<svg xmlns="http://www.w3.org/2000/svg" viewBox="0 0 100.0 86.34" width="24" height="24"><path d="M28.52,59.38 C30.3,59.38 31.72,60.8 31.72,62.58 C31.72,64.36 30.3,65.77 28.52,65.77 C26.74,65.77 25.33,64.36 25.33,62.58 C25.33,60.8 26.74,59.38 28.52,59.38 Z M50.82,39.48 L50.82,45.65 L51.98,45.65 L51.98,40.79 L53.2,45.65 L54.4,45.65 L55.62,40.79 L55.62,45.65 L56.78,45.65 L56.78,39.48 L54.91,39.48 L53.8,43.69 L52.68,39.48 Z M45.08,39.48 L45.08,45.65 L49.77,45.65 L49.77,44.61 L46.33,44.61 L46.33,42.93 L49.42,42.93 L49.42,41.89 L46.33,41.89 L46.33,40.52 L49.65,40.52 L49.65,39.48 Z M42.65,39.48 L42.65,45.65 L43.9,45.65 L43.9,39.48 Z M39.09,39.37 C38.62,39.37 38.22,39.44 37.88,39.59 C37.55,39.73 37.29,39.94 37.11,40.21 C36.93,40.49 36.84,40.78 36.84,41.09 C36.84,41.58 37.03,42 37.41,42.33 C37.68,42.58 38.15,42.78 38.82,42.94 C39.34,43.07 39.67,43.16 39.81,43.21 C40.03,43.29 40.18,43.38 40.26,43.48 C40.35,43.58 40.39,43.71 40.39,43.85 C40.39,44.08 40.29,44.28 40.08,44.45 C39.88,44.62 39.58,44.7 39.18,44.7 C38.8,44.7 38.5,44.61 38.27,44.42 C38.05,44.23 37.91,43.93 37.83,43.52 L36.62,43.64 C36.7,44.33 36.95,44.85 37.37,45.22 C37.79,45.58 38.39,45.75 39.17,45.75 C39.7,45.75 40.15,45.68 40.51,45.53 C40.87,45.38 41.14,45.15 41.34,44.84 C41.54,44.53 41.64,44.2 41.64,43.85 C41.64,43.46 41.55,43.13 41.39,42.87 C41.23,42.6 41,42.39 40.71,42.24 C40.42,42.09 39.97,41.94 39.36,41.8 C38.76,41.65 38.38,41.52 38.22,41.38 C38.1,41.28 38.03,41.16 38.03,41.01 C38.03,40.85 38.1,40.72 38.23,40.63 C38.44,40.48 38.72,40.4 39.08,40.4 C39.43,40.4 39.7,40.47 39.87,40.61 C40.05,40.75 40.16,40.98 40.21,41.29 L41.46,41.24 C41.44,40.67 41.23,40.22 40.84,39.88 C40.45,39.54 39.87,39.37 39.09,39.37 Z M73.98,37.62 C75.47,37.59 76.74,38.69 76.92,40.2 C77.11,41.82 75.98,43.25 74.36,43.45 C72.75,43.64 71.31,42.5 71.12,40.89 C70.93,39.27 72.06,37.83 73.68,37.64 C73.78,37.63 73.88,37.62 73.98,37.62 Z M46.79,31.34 C52.98,31.34 57.94,36.31 57.94,42.49 C57.94,48.68 52.98,53.64 46.79,53.64 C40.6,53.64 35.64,48.68 35.64,42.49 C35.64,36.31 40.6,31.34 46.79,31.34 Z M40.9,21.36 C40.65,21.36 40.4,21.4 40.15,21.5 L37.01,22.77 C36.03,23.16 35.56,24.27 35.95,25.25 L37.53,29.16 C35.94,30.26 34.56,31.65 33.45,33.23 L29.54,31.66 C28.56,31.26 27.46,31.73 27.06,32.71 L25.79,35.86 C25.4,36.84 25.87,37.95 26.85,38.34 L30.74,39.91 C30.61,40.75 30.53,41.61 30.53,42.49 C30.53,43.37 30.61,44.23 30.74,45.08 L26.85,46.65 C25.87,47.04 25.4,48.15 25.79,49.13 L27.06,52.27 C27.46,53.25 28.56,53.72 29.54,53.33 L33.45,51.75 C34.56,53.34 35.94,54.72 37.53,55.83 L35.95,59.74 C35.74,60.27 35.78,60.84 36.02,61.31 L33.79,60.96 C33.72,60.75 33.64,60.54 33.55,60.33 L35.41,58.07 C35.6,57.85 35.57,57.51 35.34,57.33 L32.39,54.9 C32.17,54.71 31.84,54.75 31.65,54.97 L29.8,57.22 C29.53,57.16 29.26,57.11 28.99,57.09 L27.93,54.38 C27.85,54.17 27.66,54.04 27.46,54.04 C27.39,54.04 27.32,54.05 27.25,54.08 L23.69,55.46 C23.42,55.57 23.28,55.87 23.39,56.14 L24.45,58.88 C24.3,59.06 24.15,59.24 24.01,59.43 L21.11,58.98 C20.82,58.93 20.55,59.13 20.51,59.42 L19.92,63.19 C19.87,63.48 20.07,63.75 20.36,63.79 L23.28,64.25 C23.34,64.46 23.42,64.65 23.51,64.85 L21.63,67.14 C21.44,67.36 21.47,67.69 21.7,67.88 L24.65,70.31 C24.87,70.49 25.2,70.46 25.39,70.24 L27.28,67.94 C27.53,68 27.77,68.04 28.03,68.06 L29.11,70.83 C29.21,71.11 29.52,71.24 29.79,71.13 L33.35,69.75 C33.62,69.64 33.76,69.34 33.65,69.06 L32.57,66.29 C32.72,66.13 32.87,65.96 33,65.77 L35.93,66.23 C36.22,66.28 36.49,66.08 36.53,65.79 L37.09,62.25 L40.15,63.49 C41.13,63.88 42.24,63.41 42.63,62.43 L44.2,58.54 C45.05,58.67 45.91,58.75 46.79,58.75 C47.67,58.75 48.53,58.67 49.37,58.54 L50.94,62.43 C51.33,63.41 52.44,63.88 53.42,63.49 L56.57,62.22 C57.55,61.82 58.02,60.72 57.62,59.74 L56.05,55.83 C57.63,54.72 59.02,53.34 60.12,51.75 L64.03,53.33 C65.01,53.72 66.12,53.25 66.51,52.27 L67.78,49.13 C68.17,48.15 67.7,47.04 66.72,46.65 L62.83,45.08 C62.97,44.23 63.04,43.37 63.04,42.49 C63.04,41.61 62.97,40.75 62.83,39.91 L66.42,38.46 C66.41,38.49 66.41,38.51 66.41,38.54 L66.28,42.02 C66.27,42.29 66.47,42.51 66.74,42.52 L69.44,42.63 C69.52,42.81 69.62,42.98 69.72,43.14 L68.25,45.42 C68.11,45.65 68.17,45.95 68.4,46.09 L71.33,47.98 C71.56,48.12 71.86,48.06 72,47.83 L73.47,45.54 C73.7,45.57 73.93,45.58 74.16,45.57 L75.44,47.97 C75.56,48.21 75.86,48.3 76.09,48.17 L79.17,46.53 C79.41,46.41 79.5,46.12 79.37,45.88 L78.1,43.48 C78.22,43.32 78.33,43.14 78.43,42.96 L81.14,43.07 C81.4,43.08 81.63,42.87 81.64,42.6 L81.77,39.11 C81.78,38.85 81.57,38.62 81.3,38.61 L78.63,38.51 C78.54,38.32 78.45,38.14 78.34,37.97 L79.79,35.71 C79.93,35.49 79.87,35.19 79.64,35.05 L76.71,33.16 C76.48,33.02 76.19,33.08 76.04,33.31 L74.6,35.55 C74.36,35.52 74.11,35.51 73.85,35.52 L72.6,33.16 C72.51,32.99 72.32,32.89 72.14,32.91 C72.07,32.92 72.01,32.93 71.95,32.97 L68.87,34.61 C68.63,34.73 68.55,35.02 68.67,35.26 L69.93,37.63 C69.81,37.8 69.69,37.98 69.59,38.17 L67.17,38.08 C67.84,37.58 68.11,36.67 67.78,35.86 L66.51,32.71 C66.12,31.73 65.01,31.26 64.03,31.66 L60.12,33.23 C59.02,31.65 57.63,30.26 56.05,29.16 L57.62,25.25 C58.02,24.27 57.55,23.16 56.57,22.77 L53.42,21.5 C52.44,21.11 51.33,21.58 50.94,22.56 L49.37,26.45 C48.53,26.31 47.67,26.24 46.79,26.24 C45.91,26.24 45.05,26.31 44.2,26.45 L42.63,22.56 C42.34,21.82 41.64,21.37 40.9,21.36 Z M72.72,82.83 L95.45,42.87 L72.71,3.12 L27.36,3.12 L4.57,42.84 L27.32,82.83 Z M24.74,86.34 L0,43 L24.66,0 L75.28,0 L100,43 L75.27,86.34 Z" fill="none" stroke="currentColor" stroke-width="1.5"/></svg>