<svg xmlns="http://www.w3.org/2000/svg" viewBox="0 0 80.0 80.0" width="24" height="24"><path d="M29.57,5.87 L23.53,11.77 L23.53,11.9 L29.55,17.65 L23.53,23.53 L23.53,23.66 L29.57,29.42 L29.57,26.47 L40.01,26.47 L40.01,21.77 L50.58,21.77 L50.58,24.69 L50.58,24.72 L50.58,27.8 L40,27.8 L40,33.53 L50.58,33.53 L50.58,36.48 L56.48,30.72 L50.59,24.71 L56.48,18.82 L50.58,12.93 L50.58,15.74 L40,15.74 L40,20.75 L29.57,20.75 L29.57,17.66 L29.57,14.71 L40.01,14.71 L40.01,8.99 L29.57,8.99 L29.57,5.87 Z M4.7,38.8 L4.7,41.18 L75.29,41.18 L75.29,38.8 L4.7,38.8 Z M40.01,45.88 C39.84,45.88 39.71,46.01 39.58,46.17 L39.41,46.17 L36.93,48.65 C36.76,48.95 36.76,49.42 36.93,49.55 L37.06,49.68 C37.35,49.85 37.65,49.85 37.95,49.68 L39.41,48.23 L39.41,52.79 C37.95,52.79 36.46,53.52 35.43,54.42 L32.22,51.17 L34.27,51.17 C34.57,51.17 34.87,50.87 34.87,50.57 L34.87,50.45 C34.87,50.15 34.57,49.85 34.27,49.85 L30.73,49.85 L30.59,49.85 C30.46,49.85 30.29,49.98 30.16,49.98 L30,50.14 C29.86,50.28 29.87,50.44 29.87,50.74 L29.87,54.25 C29.87,54.55 30.16,54.85 30.46,54.85 L30.59,54.85 C30.89,54.85 31.19,54.55 31.19,54.25 L31.19,52.2 L34.4,55.44 C33.54,56.47 32.78,57.93 32.78,59.39 L28.24,59.39 L29.7,57.93 C30,57.63 30,57.2 29.7,57.03 L29.57,56.9 C29.4,56.77 28.97,56.77 28.67,56.9 L26.18,59.39 L26.18,59.55 C26.02,59.68 25.89,59.85 25.89,59.98 L25.89,60.15 C25.89,60.28 26.02,60.44 26.18,60.58 L26.18,60.71 L28.67,63.22 C28.97,63.36 29.4,63.36 29.57,63.22 L29.7,63.1 C30,62.8 30,62.33 29.7,62.2 L28.24,60.71 L32.78,60.71 C32.78,62.33 33.54,63.66 34.4,64.68 L31.19,67.93 L31.19,65.87 C31.19,65.58 30.89,65.28 30.59,65.28 L30.46,65.28 C30.16,65.28 29.87,65.58 29.87,65.87 L29.87,69.38 L29.87,69.55 C29.87,69.68 30,69.85 30,69.98 L30.16,70.15 C30.29,70.28 30.46,70.28 30.73,70.28 L34.27,70.28 C34.57,70.28 34.87,69.98 34.87,69.68 L34.87,69.55 C34.87,69.25 34.57,68.95 34.27,68.95 L32.22,68.95 L35.43,65.71 C36.46,66.6 37.95,67.2 39.41,67.33 L39.41,71.9 L37.95,70.44 C37.65,70.14 37.35,70.14 37.06,70.44 L36.93,70.58 C36.76,70.71 36.76,71.17 36.93,71.47 L39.41,73.96 L39.58,73.96 C39.71,74.12 39.84,74.12 40.01,74.12 L40.14,74.12 C40.31,74.12 40.6,74.12 40.6,73.96 L40.74,73.96 L43.23,71.47 C43.39,71.17 43.39,70.71 43.23,70.58 L43.09,70.44 C42.79,70.14 42.49,70.14 42.19,70.44 L40.74,71.9 L40.74,67.33 C42.36,67.2 43.69,66.6 44.72,65.71 L47.93,68.95 L45.88,68.95 C45.58,68.95 45.31,69.25 45.31,69.55 L45.31,69.68 C45.31,69.98 45.58,70.28 45.88,70.28 L49.43,70.28 C49.72,70.28 49.86,70.28 50.02,70.15 L50.15,69.98 C50.15,69.85 50.29,69.68 50.29,69.55 L50.29,69.38 L50.29,65.87 C50.29,65.58 50.02,65.28 49.72,65.28 L49.56,65.28 C49.26,65.28 48.96,65.58 48.96,65.87 L48.96,67.93 L45.74,64.68 C46.61,63.66 47.2,62.33 47.37,60.71 L51.91,60.71 L50.45,62.2 C50.29,62.33 50.29,62.8 50.45,63.1 L50.59,63.22 C50.75,63.36 51.18,63.36 51.48,63.22 L53.96,60.71 L53.96,60.58 C54.13,60.44 54.13,60.28 54.13,60.15 L54.13,59.98 C54.13,59.85 54.13,59.68 53.96,59.55 L53.96,59.39 L51.48,56.9 C51.18,56.77 50.75,56.77 50.59,56.9 L50.45,57.03 C50.29,57.2 50.29,57.63 50.45,57.93 L51.91,59.39 L47.37,59.39 C47.2,57.93 46.61,56.47 45.74,55.44 L48.96,52.2 L48.96,54.25 C48.96,54.55 49.26,54.85 49.56,54.85 L49.72,54.85 C50.02,54.85 50.29,54.55 50.29,54.25 L50.29,50.74 C50.29,50.44 50.28,50.28 50.15,50.14 L50.02,49.98 C49.86,49.98 49.72,49.85 49.56,49.85 L49.43,49.85 L45.88,49.85 C45.58,49.85 45.31,50.15 45.31,50.45 L45.31,50.57 C45.31,50.87 45.58,51.17 45.88,51.17 L47.93,51.17 L44.72,54.42 C43.69,53.52 42.36,52.79 40.74,52.79 L40.74,48.23 L42.19,49.68 C42.49,49.85 42.79,49.85 43.09,49.68 L43.23,49.55 C43.39,49.42 43.39,48.95 43.23,48.65 L40.74,46.17 L40.6,46.17 C40.6,46.01 40.31,45.88 40.14,45.88 L40.01,45.88 Z M16.18,0 C63.99,0 63.99,0 63.99,0 C72.81,0 80,7.35 80,16.16 C80,63.97 80,63.97 80,63.97 C80,72.78 72.81,80 63.99,80 C16.18,80 16.18,80 16.18,80 C7.36,80 0,72.78 0,63.97 C0,16.16 0,16.16 0,16.16 C0,7.35 7.36,0 16.18,0 Z" fill="none" stroke="currentColor" stroke-width="1.5"/></svg>