<svg xmlns="http://www.w3.org/2000/svg" viewBox="0 0 79.91 80.0" width="24" height="24"><path d="M0,40.02 C0,17.92 17.92,0 39.98,0 C62.22,0 79.91,17.92 79.91,40.02 C79.91,62.31 62.22,80 39.98,80 C17.92,80 0,62.31 0,40.02 Z M50.42,67.99 C53.76,67.99 53.18,66.28 55.67,66.28 C57.9,66.28 57.88,67.98 60.27,67.98 C61.53,67.98 62.59,67.26 63.32,66.41 C65.4,64 66.62,61.96 67.37,60.13 C65.66,59.64 64.04,57.93 63.27,55.29 C62.4,52.35 63.96,49.84 66.52,48.35 C65.14,46.92 63.36,45.44 61.79,45.44 C57.82,45.44 57.32,46.79 55.44,46.79 C53.57,46.79 51.83,45.66 49.96,45.66 C47.19,45.66 44.87,47.23 43.69,48.88 C41.7,51.65 41.62,56.88 43.9,61.45 C45.48,64.62 48.07,67.99 50.42,67.99 Z M25.07,61.38 L27.51,61.38 L27.51,65.42 C27.51,66.32 28.39,67.12 29.26,67.12 C30.26,67.12 31.11,66.35 31.11,65.42 L31.11,61.38 L32.61,61.38 C33.42,61.38 34.39,60.54 34.39,59.45 L34.39,47.77 L18.21,47.77 L18.21,59.38 C18.21,60.73 19.41,61.38 20.05,61.38 L21.5,61.38 L21.5,65.42 C21.5,66.34 22.34,67.1 23.19,67.1 C24.44,67.1 25.07,66.19 25.07,65.42 L25.07,61.38 Z M38.62,56.77 L38.62,49.15 C38.62,48.32 37.89,47.42 36.83,47.42 C35.72,47.42 35.04,48.36 35.04,49.14 L35.04,56.77 C35.04,57.96 36.13,58.53 36.82,58.53 C37.82,58.53 38.62,57.66 38.62,56.77 Z M17.57,56.84 L17.57,49.07 C17.57,48.38 16.91,47.42 15.82,47.42 C14.75,47.42 13.98,48.28 13.98,49.14 L13.98,56.84 C13.98,57.84 14.93,58.52 15.72,58.52 C16.81,58.52 17.57,57.72 17.57,56.84 Z M18.22,47.1 L34.37,47.1 C34.43,45.13 33.37,42.29 30.27,40.64 L31.53,38.29 C31.56,38.2 31.54,38.11 31.43,38.01 C31.29,37.98 31.22,38 31.17,38.06 L29.83,40.43 C27.44,39.42 24.94,39.51 22.78,40.43 L21.48,38.08 C21.44,38.02 21.35,37.96 21.2,38.01 C21.09,38.08 21.05,38.16 21.07,38.26 L22.34,40.64 C19.64,42.05 18.21,44.56 18.22,47.1 Z M54.34,45.9 C55.83,45.83 57.44,44.95 58.61,43.67 C59.54,42.52 60.36,41.06 60.11,38.82 C58.13,38.86 56.47,39.97 55.44,41.16 C54.47,42.28 53.94,44.02 54.34,45.9 Z M30,44.2 C29.64,44.2 29.31,43.97 29.31,43.49 C29.31,43.16 29.55,42.81 29.98,42.81 C30.42,42.81 30.66,43.17 30.66,43.49 C30.66,43.99 30.33,44.2 30,44.2 Z M22.59,44.2 C22.29,44.2 21.95,44 21.93,43.49 C21.93,43.16 22.16,42.82 22.61,42.82 C23.09,42.82 23.32,43.25 23.32,43.53 C23.32,43.88 23.05,44.2 22.59,44.2 Z M56.15,11.43 C53.54,11.31 52.55,13.2 52.4,14.23 C52.3,14.84 52.34,16.38 52.37,17.61 C52.38,18.09 52.39,18.52 52.39,18.8 C52.39,19.46 52.04,20.14 51.76,20.68 C51.65,20.88 51.56,21.06 51.5,21.21 C51.32,21.64 50.47,22.98 49.64,24.28 C49.4,24.65 49.16,25.03 48.94,25.38 C47.92,26.99 48.22,28.62 48.23,28.69 C48.23,28.7 48.24,28.7 48.24,28.71 C48.04,28.81 47.82,28.98 47.64,29.33 C47.25,30.08 47.19,30.09 46.58,30.2 C46.42,30.24 46.22,30.28 45.99,30.33 C44.92,30.6 44.9,30.99 44.95,31.84 C44.96,31.98 44.97,32.14 44.97,32.32 L44.98,32.72 C45.01,33.52 45.02,33.61 44.78,33.94 C44.66,34.11 44.65,34.36 44.64,34.55 L44.64,34.64 C44.58,35.51 45.94,35.79 47.13,35.94 C48.94,36.16 49.6,36.58 49.95,36.81 C50.06,36.88 50.14,36.93 50.21,36.96 C50.44,37.05 50.88,37.14 51.36,37.14 C52.06,37.14 52.85,36.94 53.22,36.23 C53.36,35.93 53.45,35.67 53.49,35.43 C53.53,35.43 53.56,35.44 53.59,35.43 C53.62,35.42 55.92,34.46 58.69,35.75 C58.92,36.71 59.57,36.89 59.75,36.92 C59.86,36.96 60.21,37.09 60.68,37.09 C61.02,37.09 61.42,37.03 61.83,36.81 C62.26,36.58 62.43,36.4 62.63,36.19 C62.92,35.88 63.31,35.46 64.83,34.57 C66.61,33.54 66.9,33.08 66.76,32.62 C66.74,32.44 66.56,32.05 65.64,31.45 C65.26,31.21 64.92,30.54 64.87,29.96 C64.84,29.53 64.58,29.1 64.21,28.88 C64.09,28.81 63.96,28.77 63.82,28.74 C63.96,28.48 64.09,28.1 64.11,27.47 C64.17,25.9 62.76,23.51 62.29,22.71 C62.18,22.53 61.99,22.26 61.75,21.92 C61.02,20.89 59.8,19.16 59.75,18.14 C59.73,17.8 59.72,17.36 59.71,16.9 C59.69,15.94 59.67,14.86 59.57,14.29 C59.53,14.01 59.04,11.56 56.15,11.43 L56.15,11.43 Z M39.74,24.45 L25.38,24.45 L25.38,34.86 L39.74,37.02 L39.74,24.45 Z M48.63,29.06 L48.63,29.06 C48.94,29.06 49.32,29.35 49.55,29.78 C50.18,30.93 51.17,32.17 51.89,33.08 C52.15,33.39 52.37,33.67 52.51,33.87 C53.02,34.57 53.31,35.04 52.82,36.03 C52.35,36.95 50.76,36.69 50.37,36.55 C50.32,36.53 50.27,36.49 50.2,36.44 C49.84,36.21 49.1,35.73 47.18,35.49 C45.32,35.26 45.07,34.88 45.08,34.68 L45.09,34.56 C45.09,34.47 45.1,34.26 45.14,34.2 C45.46,33.75 45.46,33.55 45.43,32.7 L45.42,32.3 C45.41,32.12 45.4,31.95 45.39,31.81 C45.34,31.03 45.34,30.95 46.09,30.77 C46.32,30.71 46.51,30.67 46.67,30.64 C47.37,30.51 47.57,30.43 48.03,29.53 C48.19,29.22 48.39,29.06 48.63,29.06 Z M63.67,29.16 C63.8,29.17 63.9,29.21 63.98,29.26 C64.22,29.41 64.41,29.7 64.43,30 C64.49,30.72 64.9,31.51 65.4,31.83 C66.22,32.36 66.3,32.64 66.31,32.64 C66.31,32.68 66.31,32.7 66.32,32.74 C66.36,32.83 66.46,33.11 64.61,34.19 C63.03,35.11 62.61,35.55 62.3,35.88 C62.11,36.09 61.98,36.23 61.62,36.42 C60.74,36.88 59.94,36.52 59.91,36.5 C59.88,36.49 59.85,36.48 59.82,36.48 C59.82,36.48 58.98,36.41 59.05,34.8 C59.07,34.41 59.12,34.02 59.35,33.18 C59.45,32.79 59.49,32.32 59.47,31.7 C59.34,30.78 59.35,29.36 59.77,29.21 C59.8,29.2 59.84,29.2 59.89,29.19 C59.8,29.84 59.99,30.77 60.76,31.03 C60.87,31.08 60.99,31.1 61.11,31.1 C61.33,31.1 61.57,31.03 61.81,30.9 C62.6,30.46 63.24,29.48 63.26,29.39 C63.28,29.32 63.28,29.27 63.28,29.21 C63.43,29.16 63.56,29.14 63.67,29.16 L63.67,29.16 Z M59.02,32 C59.02,32.42 58.99,32.79 58.92,33.06 C58.68,33.94 58.63,34.36 58.61,34.78 C58.6,34.95 58.61,35.09 58.62,35.23 C55.92,34.09 53.79,34.87 53.5,34.99 C53.46,34.48 53.2,34.05 52.87,33.6 C52.78,33.48 52.62,33.27 52.47,33.09 C53.23,33.45 56.28,34.65 59.02,32 L59.02,32 Z M23.23,24.45 L13.69,24.45 L13.69,33.11 L23.23,34.54 L23.23,24.45 Z M52.82,18.96 C52.86,18.99 52.9,19.02 52.92,19.04 C52.93,19.04 53.03,19.12 53.18,19.21 C53.16,19.3 52.97,20.28 52.92,20.54 C52.87,20.81 52.37,22.71 51.6,23.99 C50.58,25.7 50.48,28.16 50.48,28.16 L50.48,28.43 C50.73,29.3 50.74,29.7 52.45,30.85 C52.45,30.85 53.24,31.37 53.17,31.76 C53.17,31.76 53.16,32.18 52.19,32.73 C51.48,31.84 50.54,30.67 49.94,29.57 C49.64,29 49.15,28.64 48.67,28.62 C48.67,28.62 48.67,28.61 48.67,28.61 C48.67,28.59 48.4,27.08 49.32,25.61 C49.54,25.27 49.78,24.89 50.02,24.51 C50.89,23.14 51.72,21.85 51.91,21.39 C51.97,21.24 52.06,21.07 52.15,20.88 C52.44,20.34 52.77,19.67 52.82,18.96 L52.82,18.96 Z M55.71,11.88 C55.85,11.87 55.98,11.87 56.13,11.88 C58.66,11.98 59.09,14.12 59.13,14.36 C59.22,14.89 59.24,15.96 59.26,16.9 C59.28,17.37 59.28,17.82 59.3,18.16 C59.36,19.32 60.58,21.04 61.38,22.18 C61.61,22.5 61.81,22.77 61.92,22.95 C62.36,23.71 63.72,26 63.67,27.45 C63.63,28.48 63.3,28.71 63.25,28.74 C63.25,28.75 63.25,28.94 63.09,29.23 C63.08,29.25 63.07,29.26 63.05,29.27 C63.05,29.29 63.05,29.31 63.04,29.33 C62.93,29.56 61.8,31.16 60.83,30.82 C60.12,30.58 60,29.62 60.14,29.04 L60.17,28.83 C60.17,28.82 60.17,28.75 60.28,28.66 C60.4,28.56 60.68,28.41 61.35,28.41 C61.48,28.41 61.64,28.42 61.8,28.44 C62.14,28.43 62.5,28.43 62.76,28.48 C62.72,28.46 62.69,28.44 62.66,28.42 C62.31,28.06 61.79,27.94 61.31,27.95 L60.58,27.95 L60.49,28.05 C60.49,28.05 60.64,25.92 59.32,23.76 C58.1,21.75 57.87,19.44 57.84,19.08 C57.85,19.08 57.86,19.08 57.86,19.07 C58.12,18.75 58.15,18.5 58.13,18.34 C58.1,18.18 58.02,18.04 57.89,17.96 C57.77,17.88 57.64,17.82 57.42,17.75 C57.83,17.32 57.94,17 58,16.69 C58.19,15.65 57.47,15.19 57.02,15.15 C56.92,15.15 56.83,15.15 56.75,15.15 C55.6,15.27 55.59,16.8 55.6,17.08 C55.4,17.03 55.21,16.99 55.04,16.98 C54.84,16.98 54.66,17 54.49,17.04 C54.56,16.27 54.19,15.73 54.19,15.73 C53.51,14.9 52.9,15.73 52.9,15.73 C52.85,15.87 52.81,16 52.79,16.13 C52.78,15.36 52.78,14.64 52.84,14.29 C52.96,13.47 53.72,11.98 55.71,11.88 L55.71,11.88 Z M23.23,22.44 L23.23,12.84 L13.69,14.12 L13.69,22.44 L23.23,22.44 Z M39.74,22.44 L39.74,10.63 L25.38,12.55 L25.38,22.44 L39.74,22.44 Z M55.04,17.2 C55.29,17.22 55.57,17.28 55.89,17.4 C56.6,17.7 57.02,17.84 57.29,17.93 C57.54,18.02 57.66,18.07 57.77,18.14 C57.84,18.19 57.89,18.28 57.91,18.37 C57.92,18.49 57.9,18.67 57.69,18.93 C57.69,18.93 57.69,18.94 57.68,18.94 C57.63,19.03 57.56,19.12 57.51,19.15 C56.92,19.52 56.26,20.23 55.75,20.37 C55.24,20.5 54.12,20.6 53.41,19.52 C53.41,19.52 53.34,19.37 53.27,19.27 C53.62,19.49 54.16,19.77 54.72,19.77 C54.75,19.77 54.78,19.77 54.81,19.76 C55.7,19.72 56.1,19.61 57.41,18.6 C57.46,18.55 57.46,18.49 57.43,18.44 C57.39,18.39 57.32,18.38 57.27,18.42 C55.97,19.43 55.62,19.5 54.8,19.55 C54,19.59 53.06,18.86 53.05,18.85 C52.99,18.82 52.93,18.77 52.92,18.75 C52.87,18.7 52.85,18.64 52.85,18.58 C52.86,18.48 52.94,18.31 53.26,18.03 L53.35,17.95 C53.78,17.6 54.28,17.17 55.04,17.2 L55.04,17.2 Z M52.8,16.93 C52.92,17.4 53.16,17.65 53.25,17.75 L53.12,17.86 C52.99,17.97 52.9,18.07 52.83,18.17 L52.8,16.93 Z M56.81,16.07 C56.81,16.07 57.37,16.13 57.24,16.88 C57.24,16.88 57.12,17.27 56.86,17.55 C56.65,17.47 56.38,17.37 56.05,17.24 C56.02,16.95 55.97,16.01 56.81,16.07 Z M53.69,16.15 C53.81,16.16 53.94,16.24 54.05,16.42 C54.05,16.42 54.18,16.78 54.08,17.19 C53.88,17.29 53.69,17.4 53.53,17.53 C53.35,17.37 53,16.97 53.26,16.38 C53.31,16.28 53.49,16.13 53.69,16.15 L53.69,16.15 Z" fill="none" stroke="currentColor" stroke-width="1.5"/></svg>