<svg xmlns="http://www.w3.org/2000/svg" viewBox="0 0 80.0 80.0" width="24" height="24"><path d="M40.01,16.48 C28.38,16.48 16.47,19.13 16.47,24.13 L16.47,35.28 L16.47,44.69 L16.47,56.02 C16.47,61.02 28.38,63.53 40.01,63.53 C51.78,63.53 63.55,61.02 63.55,56.02 L63.55,44.69 L63.55,35.28 L63.55,24.13 C63.55,19.13 51.78,16.48 40.01,16.48 Z M40.01,19.56 C52.51,19.56 60.3,22.51 60.3,24.13 C60.3,25.72 53.11,28.66 40.01,28.66 C27.05,28.66 19.85,25.72 19.85,24.13 C19.85,22.51 27.51,19.56 40.01,19.56 Z M19.85,28.23 C24.26,30.42 32.22,31.61 40.01,31.61 C47.94,31.61 55.89,30.42 60.3,28.23 L60.3,35.28 C60.3,36.77 53.11,39.71 40.01,39.71 C27.05,39.71 19.85,36.77 19.85,35.28 L19.85,28.23 Z M60.3,39.07 L60.3,44.69 C60.3,46.77 53.11,50.45 40.01,50.45 C27.05,50.45 19.85,46.77 19.85,44.69 L19.85,39.12 C24.21,41.27 32.17,42.36 40.01,42.36 C48.01,42.36 56,41.25 60.3,39.07 Z M60.3,49.78 L60.3,56.02 C60.3,57.47 53.11,60.59 40.01,60.59 C27.05,60.59 19.85,57.47 19.85,56.02 L19.85,49.84 C24.21,52.7 32.17,54.12 40.01,54.12 C48.01,54.12 55.99,52.68 60.3,49.78 Z M16.18,0 C63.99,0 63.99,0 63.99,0 C72.81,0 80,7.35 80,16.16 C80,63.97 80,63.97 80,63.97 C80,72.78 72.81,80 63.99,80 C16.18,80 16.18,80 16.18,80 C7.36,80 0,72.78 0,63.97 C0,16.16 0,16.16 0,16.16 C0,7.35 7.36,0 16.18,0 Z" fill="none" stroke="currentColor" stroke-width="1.5"/></svg>