<svg xmlns="http://www.w3.org/2000/svg" viewBox="0 0 80.14 69.46" width="24" height="24"><path d="M57.01,41.91 C53.37,43.87 46.7,44.85 40.07,44.85 C33.49,44.85 26.86,43.88 23.21,41.95 L23.21,47.98 C23.21,49.24 29.15,51.86 40.07,51.86 C51.01,51.86 57.01,49.24 57.01,47.98 Z M57.01,32.3 C53.37,34.26 46.7,35.24 40.07,35.24 C33.49,35.24 26.86,34.27 23.21,32.34 L23.21,38.43 C23.21,39.77 29.15,42.37 40.07,42.37 C51.01,42.37 57.01,39.77 57.01,38.43 Z M23.21,23.96 L23.21,28.82 C23.21,30.16 29.15,32.76 40.07,32.76 C51.01,32.76 57.01,30.16 57.01,28.82 L57.01,23.96 C53.4,25.96 46.75,26.95 40.07,26.95 C33.48,26.95 26.8,25.96 23.21,23.96 Z M40.07,16.48 C29.61,16.48 23.21,19.02 23.21,20.42 C23.21,21.81 29.15,24.43 40.07,24.43 C51.01,24.43 57.01,21.81 57.01,20.42 C57.01,19.02 50.61,16.48 40.07,16.48 Z M40.07,13.88 C49.87,13.88 59.81,16.15 59.81,20.42 L59.81,28.82 L59.81,47.98 C59.81,52.25 49.87,54.46 40.07,54.46 C30.27,54.46 20.34,52.25 20.34,47.98 L20.34,28.82 L20.34,20.42 C20.34,16.15 30.27,13.88 40.07,13.88 Z M20.94,0 C20.37,0 19.85,0.3 19.56,0.79 L0.29,33.83 C0,34.33 0,34.94 0.29,35.44 L19.56,68.61 C19.84,69.1 20.37,69.4 20.94,69.41 L59.02,69.41 C59.38,69.46 59.74,69.39 60.05,69.22 C60.09,69.2 60.12,69.18 60.16,69.16 C60.45,68.97 60.67,68.7 60.8,68.37 L79.86,35.44 C80.14,34.94 80.14,34.33 79.86,33.83 L60.66,0.8 C60.38,0.3 59.85,0 59.28,0 Z" fill="none" stroke="currentColor" stroke-width="1.5"/></svg>