<svg xmlns="http://www.w3.org/2000/svg" viewBox="0 0 106.67 92.63" width="24" height="24"><path d="M79.96,92.63 L106.67,46.2 L79.96,0 L26.73,0 L0,46.2 L26.73,92.63 Z M69.57,12.94 C68.23,14.64 66.95,17.23 65.87,20.48 C63.71,26.96 62.35,36.06 62.35,46.1 C62.35,56.14 63.71,65.23 65.87,71.72 C66.95,74.97 68.23,77.56 69.57,79.26 C70.91,80.97 72.22,81.73 73.45,81.73 C74.69,81.73 76,80.97 77.34,79.26 C78.68,77.56 79.96,74.97 81.04,71.72 C83.2,65.23 84.56,56.14 84.56,46.1 C84.56,36.06 83.2,26.96 81.04,20.48 C79.96,17.23 78.68,14.64 77.34,12.94 C76,11.23 74.69,10.47 73.45,10.47 C72.22,10.47 70.91,11.23 69.57,12.94 Z M79.07,11.58 C80.65,13.59 82,16.38 83.13,19.78 C85.39,26.59 86.76,35.86 86.76,46.1 C86.76,56.34 85.39,65.61 83.13,72.42 C82,75.82 80.65,78.61 79.07,80.62 C77.49,82.63 75.59,83.93 73.45,83.93 C71.32,83.93 69.42,82.63 67.84,80.62 C66.26,78.61 64.91,75.82 63.78,72.42 C61.52,65.61 60.15,56.34 60.15,46.1 C60.15,35.86 61.52,26.59 63.78,19.78 C64.91,16.38 66.26,13.59 67.84,11.58 C69.42,9.57 71.32,8.27 73.45,8.27 C75.59,8.27 77.49,9.57 79.07,11.58 Z M53.39,9.08 L55.03,9.08 L55.03,85 L53.39,85 Z M26.01,12.6 L26.01,15.11 L35.24,15.11 L35.24,20.61 L26,20.61 L26,23.12 L21.03,17.86 Z M26.01,24.3 L26.01,26.81 L35.24,26.81 L35.24,32.31 L26,32.31 L26,34.82 L21.03,29.56 Z M45.61,18.86 L50.59,24.12 L45.62,29.38 L45.62,26.87 L36.38,26.87 L36.38,21.37 L45.61,21.37 Z M45.61,30.56 L50.59,35.82 L45.62,41.08 L45.62,38.57 L36.38,38.57 L36.38,33.07 L45.61,33.07 Z M34.13,47.69 L36.94,50.49 L35.48,50.49 L35.48,58.09 C36.01,58.23 36.51,58.44 36.98,58.73 L42.45,53.44 L41.43,52.39 L45.4,52.47 L45.35,56.44 L44.33,55.39 L38.86,60.68 C39.1,61.1 39.28,61.55 39.4,62.02 L47.01,62.02 L47.01,60.55 L49.8,63.37 L47.01,66.19 L47.01,64.72 L39.4,64.72 C39.28,65.19 39.1,65.64 38.86,66.06 L44.33,71.35 L45.35,70.3 L45.4,74.26 L41.43,74.35 L42.45,73.29 L36.98,68.01 C36.52,68.29 36.01,68.51 35.48,68.64 L35.48,76.25 L36.94,76.25 L34.13,79.04 L31.31,76.25 L32.77,76.25 L32.77,68.64 C32.25,68.51 31.74,68.29 31.28,68.01 L25.8,73.29 L26.82,74.35 L22.86,74.26 L22.91,70.3 L23.92,71.35 L29.39,66.06 C29.16,65.64 28.97,65.19 28.85,64.72 L21.25,64.72 L21.25,66.19 L18.45,63.37 L21.25,60.55 L21.25,62.02 L28.85,62.02 C28.97,61.55 29.16,61.1 29.39,60.67 L23.92,55.39 L22.91,56.44 L22.86,52.47 L26.82,52.39 L25.8,53.44 L31.27,58.73 C31.74,58.44 32.24,58.23 32.77,58.09 L32.77,50.49 L31.31,50.49 Z" fill="none" stroke="currentColor" stroke-width="1.5"/></svg>