<svg xmlns="http://www.w3.org/2000/svg" viewBox="0 0 80.0 80.0" width="24" height="24"><path d="M0,40 C0,17.9 17.9,0 40,0 C62.28,0 80,17.9 80,40 C80,62.28 62.28,80 40,80 C17.9,80 0,62.28 0,40 Z M15.28,57.4 C11.81,52.48 9.77,46.48 9.77,40 C9.77,23.31 23.31,9.77 40,9.77 C56.69,9.77 70.23,23.31 70.23,40 C70.23,56.69 56.69,70.23 40,70.23 C32.24,70.23 25.16,67.3 19.8,62.49 C21.04,58.42 23.84,55.76 26.7,55.11 C27.98,54.82 28.41,53.44 28.19,52.8 C27.66,51.2 26.36,51.17 25.86,51.34 C18.92,53.63 16.9,58.59 15.96,61.19 C15.31,63 15.87,63.55 16.64,64.29 C22.7,70.12 30.93,73.71 40,73.71 C58.6,73.71 73.71,58.6 73.71,40 C73.71,21.4 58.6,6.29 40,6.29 C21.4,6.29 6.29,21.4 6.29,40 C6.29,47.97 9.06,55.29 13.7,61.06 L15.28,57.4 Z M22.22,50.61 C23.09,49.48 24.46,48.75 26,48.75 C28.62,48.75 30.76,50.88 30.76,53.51 C30.76,56.14 28.62,58.27 26,58.27 C25.66,58.27 25.33,58.24 25.02,58.17 C24.58,58.5 24.16,58.9 23.77,59.36 L27.58,63.12 C28.47,63.96 29.36,64.23 33.63,63.88 C36.63,63.64 38.6,63.08 40.06,61.74 L64.65,37.36 C67.18,34.84 67.18,30.74 64.66,28.21 L51.48,14.99 C48.96,12.46 44.86,12.46 42.32,14.98 L17.24,39.79 C16.49,40.46 16.36,41.14 15.74,44.9 C14.93,49.74 15.41,51.14 16.02,51.7 L18.04,53.69 C19.13,52.58 20.49,51.51 22.22,50.61 Z M37.29,27.4 C38.87,26.78 40.58,25.92 42.34,25.17 C45.11,24 47.96,23.12 50.52,23.64 C54.25,24.39 57.06,28.9 56.87,32.99 C56.63,37.99 52.62,42.61 48.78,45 C45.8,46.86 42.59,47.31 39.68,46.89 C37.42,46.1 36.01,45 35.05,43.56 C35.1,43.58 35.14,43.6 35.19,43.63 C38.51,45.65 43.52,46.4 47.94,43.65 C51.38,41.5 55.06,37.4 55.27,32.91 C55.36,30.88 54.58,28.71 53.27,27.17 C52.44,26.18 51.39,25.44 50.2,25.2 C47.93,24.75 45.42,25.6 42.97,26.65 C40.44,27.72 37.99,29 35.91,29.54 C36.33,28.84 36.79,28.13 37.29,27.4 Z M35.18,30.83 C36.67,30.68 38.09,30.18 39.46,29.59 C41.45,28.73 43.32,27.67 45.08,27.05 C49.74,25.4 52.86,28.52 53.56,31.76 C53.98,33.7 53.37,35.95 52.02,37.98 C50.06,40.92 46.54,43.38 42.59,43.7 C40.27,43.89 38.28,43.32 36.38,42.58 C35.6,42.28 34.83,41.95 34.06,41.64 C33.88,41.19 33.73,40.72 33.58,40.23 C33.53,40.05 33.48,39.87 33.44,39.7 C34.62,40.12 35.77,40.63 36.95,41.09 C38.64,41.74 40.41,42.27 42.46,42.11 C45.92,41.83 48.98,39.66 50.69,37.1 C51.78,35.46 52.33,33.66 52,32.1 C51.47,29.66 49.12,27.32 45.61,28.56 C43.88,29.17 42.05,30.21 40.09,31.06 C38.28,31.84 36.38,32.45 34.39,32.48 C34.62,31.93 34.89,31.38 35.18,30.83 Z M33.87,33.83 C36.93,33.71 40.26,32.58 43.62,30.95 C46.62,29.49 49.02,30.38 49.87,31.8 C50.7,33.18 50.52,34.61 49.7,35.95 C48.99,37.11 47.76,38.2 46.39,39.07 C43.96,40.62 41.82,40.5 39.22,39.97 C37.77,39.67 36.56,39.2 34.98,38.86 C34.93,38.86 34.88,38.85 34.84,38.84 C34.35,38.74 33.83,38.66 33.25,38.59 C33.2,38.06 33.19,37.53 33.22,36.98 C33.93,37.05 35.1,37.07 35.93,37.05 C38.23,37 40.35,36.26 41.77,35.46 C42.87,34.85 44.18,33.84 45.18,33.49 C45.82,33.27 46.52,33.49 46.77,33.86 C47.08,34.32 47.12,34.86 46.51,35.4 C45.69,36.12 43.84,37.22 42.78,37.55 C41.97,37.8 40.42,38.11 39.16,38.32 C39.28,38.35 39.7,38.5 39.84,38.52 C42.1,38.74 43.79,38.7 45.54,37.72 C46.72,37.05 47.74,36.09 48.34,35.11 C48.83,34.31 49,33.45 48.5,32.62 C48.31,32.3 47.96,32.06 47.52,31.93 C46.7,31.67 45.59,31.77 44.32,32.39 C40.57,34.22 36.82,35.41 33.43,35.44 C33.54,34.91 33.69,34.38 33.87,33.83 Z" fill="none" stroke="currentColor" stroke-width="1.5"/></svg>