<svg xmlns="http://www.w3.org/2000/svg" viewBox="0 0 185.82 43.05" width="24" height="24"><path d="M151.48,43.05 C151.99,41.33 154.13,38.21 156.99,37.26 L177.04,37.26 C178.78,37.26 180.28,35.71 180.28,33.31 L180.28,26.67 C180.28,24.88 179.17,23.76 177.35,23.76 L162.48,23.76 C158.49,23.76 154.83,20.46 154.98,16.07 L155.41,7.5 C155.41,3.74 158.79,0.15 164.19,0.15 L185.57,0.15 C185.53,2.1 184.13,4.26 182.2,5.07 L165.42,5.07 C161.87,5.07 160.95,6.1 160.73,9.13 L160.29,15.4 C160.17,17.16 161.4,18.52 162.63,18.52 L178.15,18.52 C181.4,18.52 185.82,20.81 185.82,25.87 L185.82,34.59 C185.82,39.71 182.18,43.05 177.46,43.05 Z M79.9,0.24 C83.14,0.77 86.13,2.3 86.13,6.3 L86.13,32.6 C86.13,35.04 86.95,37.26 89.21,37.26 L106.78,37.26 C110.62,37.26 112.47,39.89 112.68,43.05 L85.47,43.05 C82.13,43.05 79.9,40.82 79.9,36.33 Z M43.96,0.15 L61.21,0.15 C70.51,0.15 74.97,4.39 74.97,11.47 L74.97,42.95 C73.53,42.65 71.66,41.88 70.39,40.47 C68.95,42.29 66.91,43.05 62.58,43.05 L48.22,43.05 C42.86,43.05 38.64,39.41 39.03,32.27 C39.22,24.52 45.84,17.59 51.87,17.59 L67.65,17.59 L67.65,22.86 L53.29,22.86 C48.8,22.86 45.15,26.05 44.53,31.67 C44.28,34.66 45.92,37.79 49.53,37.79 L63.11,37.79 C67.17,37.79 69.26,35.16 69.26,30.99 L69.26,11.15 C69.26,6.54 64.9,5.07 62.12,5.07 L47.4,5.07 C45.51,4.28 44.23,2.27 43.96,0.15 Z M0,0.15 L40.17,0.15 C39.85,2.73 37.22,5.07 33.68,5.07 L25.99,5.07 C23.94,5.07 23.07,6.36 23.07,8.37 L23.07,42.96 C20.04,42.64 16.93,41.33 16.93,36.44 L16.93,7.67 C16.93,6.27 15.82,5.07 14.21,5.07 L6.19,5.07 C2.61,5.07 0.33,2.39 0,0 Z M129.97,0.08 C118.1,0.08 108.48,9.7 108.48,21.56 C108.49,26.42 110.14,31.12 113.16,34.92 L116.29,31.64 L116.29,10.67 C116.29,8.81 117.79,7.31 119.65,7.31 L139.54,7.31 L142.54,4.17 C138.88,1.52 134.48,0.09 129.97,0.08 Z M144.01,5.33 L141.78,7.67 C142.3,7.93 142.75,8.3 143.07,8.78 L145.26,6.49 C144.86,6.09 144.44,5.7 144.01,5.33 Z M146.53,7.88 L143.65,10.89 L143.65,32.46 C143.65,34.32 142.15,35.82 140.29,35.82 L119.84,35.82 L117.07,38.72 C120.79,41.52 125.31,43.04 129.97,43.05 C141.84,43.05 151.46,33.43 151.46,21.56 C151.45,16.57 149.71,11.73 146.53,7.88 Z M116.66,33.97 L114.4,36.34 C114.79,36.75 115.2,37.14 115.62,37.52 L117.79,35.26 C117.3,34.94 116.92,34.49 116.66,33.97 Z" fill="none" stroke="currentColor" stroke-width="1.5"/></svg>