<svg xmlns="http://www.w3.org/2000/svg" viewBox="0 0 81.18 76.23" width="24" height="24"><path d="M79.42,42.19 C78.92,41.26 78.1,40.75 78.1,40.75 C78.1,40.75 74.16,37.56 72.34,41.39 C70.53,45.2 65.08,47.09 65.08,47.09 C58.75,49.53 58.75,49.53 58.75,49.53 C58.75,49.53 58.75,49.46 58.75,49.46 C64.57,44.32 68.33,36.68 68.33,28.21 C68.33,12.67 55.75,0 40.27,0 C24.74,0 12.21,12.67 12.21,28.21 C12.21,36.68 15.9,44.2 21.73,49.41 C17.03,47.71 13.96,46.53 13.96,46.53 C13.96,46.53 14.09,42.06 10.9,40.75 C7.77,39.37 6.33,42.76 5.94,44.14 C5.94,44.14 0,44.45 0.31,47.89 C0.56,51.35 6.26,51.9 10.34,49.41 C23.79,54.55 23.79,54.55 23.79,54.55 C24.36,57.12 25.49,59.5 27.05,61.51 C17.47,65.14 17.47,65.14 17.47,65.14 C13.34,62.64 7.7,63.2 7.38,66.65 C7.13,70.09 13.09,70.4 13.09,70.4 C13.46,71.79 14.84,75.17 18.03,73.79 C21.22,72.41 21.11,68.03 21.11,68.03 C21.11,68.03 21.98,67.78 30.37,64.7 C33.2,66.7 36.57,67.9 40.33,67.9 C44.1,67.9 47.54,66.7 50.42,64.57 C60.81,67.14 60.81,67.14 60.81,67.14 C60.81,67.14 64.57,68.59 66.39,72.48 C68.14,76.23 72.15,73.1 72.15,73.1 C72.15,73.1 72.9,72.53 73.41,71.66 C74.47,69.6 75.22,66.26 72.15,66.7 C72.15,66.7 73.9,64.46 73.34,62.95 C72.84,61.51 69.96,60.63 68.02,61.44 C66.01,62.25 63.69,63.69 61.38,63.26 C60.69,63.13 59.68,63.33 53.8,61.2 C55.18,59.37 56.18,57.24 56.68,55.05 C61.87,53.16 65.64,51.79 66.21,51.66 C68.4,51.16 72.03,51.59 73.97,52.41 C75.98,53.23 78.79,52.29 79.3,50.85 C79.86,49.33 78.1,47.09 78.1,47.09 C81.18,47.58 80.43,44.27 79.42,42.19 Z M57.75,33.23 L53.24,33.23 C53.24,34.67 52.99,35.98 52.61,37.37 C52.61,37.37 52.61,37.37 57.12,39.25 C57.75,39.63 58,40.43 57.75,41.12 C57.62,41.51 57.12,41.89 56.56,41.89 C56.43,41.89 56.18,41.76 56.05,41.76 C56.05,41.76 56.05,41.76 51.8,39.87 C49.85,44.07 46.35,46.7 42.09,48.16 C42.09,48.16 42.09,48.16 42.09,23.52 C45.22,23.52 47.92,22.7 50.11,21.51 C50.23,21.31 50.47,21.19 50.8,21.06 C51.29,22.01 51.67,22.95 51.91,23.88 C51.91,23.88 51.91,23.88 56.05,22.13 C56.74,21.88 57.49,22.13 57.75,22.82 C58,23.52 57.75,24.26 57.12,24.52 C57.12,24.52 57.12,24.52 52.68,26.52 C52.99,27.78 53.24,29.09 53.24,30.59 C53.24,30.59 53.24,30.59 57.87,30.59 C58.56,30.59 59.13,31.1 59.13,31.92 C59.06,32.6 58.56,33.23 57.75,33.23 Z M49.55,19.74 C49.42,19.87 49.29,20.07 49.04,20.18 C46.85,21.26 43.97,22.07 40.71,22.07 C37.57,22.07 34.64,21.26 32.5,20.18 C32.19,20.07 32.07,19.87 31.94,19.74 C32.63,18.69 33.38,17.74 34.38,16.86 C34.38,16.86 34.38,16.86 30.75,12.54 C30.63,12.67 30.5,12.67 30.37,12.67 C29,12.67 28.06,11.6 28.06,10.34 C28.06,9.03 29,8.03 30.37,8.03 C31.56,8.03 32.63,9.03 32.63,10.34 C32.63,10.59 32.5,11.03 32.32,11.34 C32.32,11.34 32.32,11.34 36.08,15.68 C37.57,14.86 39.14,14.42 40.71,14.42 C42.33,14.42 43.84,14.86 45.16,15.55 C45.16,15.55 45.16,15.55 48.73,11.34 C48.6,11.03 48.6,10.59 48.6,10.34 C48.6,9.03 49.55,8.03 50.86,8.03 C52.05,8.03 53.11,9.03 53.11,10.34 C53.11,11.6 52.05,12.67 50.86,12.67 C50.73,12.67 50.61,12.67 50.48,12.54 C50.48,12.54 50.48,12.54 46.85,16.81 C47.91,17.61 48.91,18.56 49.55,19.74 Z M31.07,21.06 C31.32,21.19 31.56,21.31 31.69,21.51 C34,22.7 36.83,23.52 40.09,23.52 C40.09,23.52 40.09,23.52 40.09,48.16 C35.51,46.59 31.81,44.07 29.94,39.81 C29.94,39.81 29.94,39.81 25.18,41.76 C25.05,41.76 24.92,41.89 24.8,41.89 C24.23,41.89 23.67,41.51 23.43,41.12 C23.17,40.43 23.43,39.63 24.23,39.25 C24.23,39.25 24.23,39.25 28.99,37.24 C28.75,35.98 28.43,34.67 28.43,33.23 C28.43,33.23 28.43,33.23 23.43,33.23 C22.61,33.23 22.04,32.6 22.04,31.92 C22.04,31.1 22.61,30.59 23.43,30.59 C23.43,30.59 23.43,30.59 28.43,30.59 C28.43,29.22 28.75,27.89 28.99,26.52 C28.99,26.52 28.99,26.52 24.23,24.52 C23.61,24.26 23.17,23.52 23.43,22.82 C23.67,22.13 24.54,21.88 25.18,22.13 C25.18,22.13 25.18,22.13 29.68,24.01 C30.06,22.95 30.5,22.01 31.07,21.06 Z" fill="none" stroke="currentColor" stroke-width="1.5"/></svg>