<svg xmlns="http://www.w3.org/2000/svg" viewBox="0 0 80.15 64.55" width="24" height="24"><path d="M78.6,43.11 C76.75,42.94 74.74,42.54 74.22,42.25 C73.48,41.61 73.18,40.69 72.85,39.65 C72.33,38.27 71.74,36.49 69.85,35.45 C68.35,34.58 67.08,34.35 66.11,34.35 C65.47,30.32 63.91,26.57 61.62,23.4 C62.82,22.18 63.63,20.74 64.43,19.3 C65.3,17.76 66.11,16.32 67.43,15.1 C70.08,12.62 75.38,13.02 75.43,13.02 C76.35,13.14 77.15,12.45 77.27,11.53 C77.34,10.66 76.64,9.85 75.73,9.74 C75.49,9.74 68.92,9.16 65.19,12.68 C63.46,14.24 62.42,16.08 61.5,17.69 C60.86,18.85 60.29,19.94 59.54,20.74 C58.79,19.94 57.93,19.2 57.13,18.5 C55.62,12.45 50.96,7.67 45.03,5.88 C45.03,1.67 45.03,1.67 45.03,1.67 C45.03,0.75 44.22,0 43.3,0 C42.38,0 41.69,0.75 41.69,1.67 C41.69,5.24 41.69,5.24 41.69,5.24 C41.11,5.19 40.6,5.13 40.02,5.13 C39.56,5.13 39.04,5.19 38.58,5.24 C38.58,1.67 38.58,1.67 38.58,1.67 C38.58,0.75 37.84,0 36.92,0 C35.99,0 35.19,0.75 35.19,1.67 C35.19,5.82 35.19,5.82 35.19,5.82 C29.14,7.55 24.36,12.45 22.92,18.68 C22.12,19.3 21.42,20.05 20.73,20.81 C19.92,19.94 19.35,18.9 18.72,17.69 C17.8,16.08 16.76,14.24 15.03,12.68 C11.29,9.16 4.78,9.74 4.49,9.74 C3.57,9.85 2.88,10.66 2.93,11.53 C3.05,12.45 3.86,13.14 4.78,13.02 C6.22,12.92 10.54,12.97 12.79,15.1 C14.11,16.32 14.91,17.76 15.78,19.3 C16.59,20.74 17.39,22.18 18.6,23.4 C16.36,26.62 14.75,30.32 14.11,34.35 C13.14,34.35 11.92,34.58 10.37,35.45 C8.53,36.49 7.89,38.27 7.42,39.65 C7.09,40.69 6.74,41.61 5.98,42.25 C5.48,42.54 3.45,42.94 1.61,43.11 C0.69,43.22 0,44.03 0.12,44.95 C0.17,45.82 0.92,46.39 1.79,46.39 C1.84,46.39 1.84,46.39 1.96,46.39 C4.21,46.17 7.09,45.7 8.18,44.78 C9.62,43.51 10.14,41.95 10.59,40.74 C10.99,39.49 11.29,38.73 12.03,38.33 C12.72,37.93 13.36,37.75 13.82,37.69 C13.82,37.93 13.82,38.15 13.82,38.45 C13.82,42.89 14.91,47.09 16.93,50.78 C15.6,52.22 15.15,54.06 14.8,55.79 C14.51,56.94 14.28,58.1 13.76,59.14 C12.5,61.72 7.26,61.2 7.2,61.15 C6.28,61.03 5.48,61.72 5.36,62.59 C5.24,63.51 5.88,64.38 6.8,64.43 C6.91,64.43 7.49,64.5 8.35,64.5 C10.71,64.5 15.08,64.03 16.76,60.58 C17.45,59.19 17.73,57.75 18.03,56.48 C18.32,55.39 18.48,54.47 18.83,53.78 C23.61,60.35 31.39,64.55 40.13,64.55 C48.83,64.55 56.61,60.35 61.38,53.78 C61.73,54.47 61.95,55.39 62.19,56.48 C62.47,57.75 62.76,59.19 63.46,60.58 C65.12,64.03 69.5,64.5 71.86,64.5 C72.73,64.5 73.36,64.43 73.42,64.43 C74.34,64.38 74.97,63.51 74.86,62.59 C74.74,61.72 73.94,61.03 73.01,61.15 C72.96,61.2 67.72,61.72 66.45,59.14 C65.93,58.1 65.71,56.94 65.41,55.79 C65.07,54.11 64.6,52.22 63.34,50.78 C65.3,47.09 66.45,42.89 66.45,38.45 C66.45,38.15 66.39,37.93 66.39,37.69 C66.91,37.75 67.48,37.93 68.24,38.33 C68.92,38.73 69.21,39.49 69.68,40.74 C70.08,41.95 70.6,43.51 72.04,44.78 C73.13,45.7 76.06,46.17 78.26,46.39 C78.31,46.39 78.43,46.39 78.43,46.39 C79.3,46.39 80.04,45.82 80.1,44.95 C80.15,44.03 79.52,43.22 78.6,43.11 Z M39.62,37.47 C35.59,37.69 32.3,40.75 32.3,44.44 C32.3,48.13 35.59,51.12 39.62,51.47 C39.62,55.33 39.62,55.33 39.62,55.33 C35.42,54.06 32.02,51.98 30.29,48.53 C25.97,50.09 25.97,50.09 25.97,50.09 C25.85,50.09 25.68,50.25 25.56,50.25 C25.11,50.25 24.59,49.97 24.31,49.57 C24.07,48.99 24.31,48.41 25.11,48.07 C29.42,46.4 29.42,46.4 29.42,46.4 C29.25,45.48 28.97,44.37 28.97,43.17 C24.31,43.17 24.31,43.17 24.31,43.17 C23.55,43.17 23.03,42.6 23.03,42.08 C23.03,41.39 23.55,40.97 24.31,40.97 C28.97,40.97 28.97,40.97 28.97,40.97 C28.97,39.88 29.25,38.79 29.42,37.69 C25.11,36.08 25.11,36.08 25.11,36.08 C24.41,35.79 24.07,35.16 24.31,34.64 C24.59,34.07 25.28,33.89 25.97,34.07 C30.12,35.61 30.12,35.61 30.12,35.61 C30.41,34.76 30.74,33.95 31.33,33.2 C31.56,33.31 31.85,33.48 31.96,33.55 C34.03,34.59 36.62,35.16 39.62,35.16 L39.62,37.47 Z M32.7,31.76 C32.36,31.64 32.3,31.47 32.18,31.41 C32.77,30.6 33.52,29.8 34.38,29.16 C31.04,25.71 31.04,25.71 31.04,25.71 C30.98,25.82 30.81,25.82 30.69,25.82 C29.43,25.82 28.56,25.02 28.56,23.98 C28.56,22.94 29.43,22.14 30.69,22.14 C31.85,22.14 32.77,22.94 32.77,23.98 C32.77,24.27 32.7,24.5 32.48,24.72 C35.99,28.12 35.99,28.12 35.99,28.12 C37.31,27.55 38.87,27.27 40.26,27.27 C41.75,27.27 43.13,27.55 44.33,28.07 C47.62,24.72 47.62,24.72 47.62,24.72 C47.45,24.5 47.45,24.27 47.45,23.98 C47.45,22.94 48.42,22.14 49.52,22.14 C50.67,22.14 51.59,22.94 51.59,23.98 C51.59,25.02 50.67,25.82 49.52,25.82 C49.41,25.82 49.34,25.82 49.29,25.71 C45.89,29.04 45.89,29.04 45.89,29.04 C46.88,29.68 47.73,30.37 48.42,31.41 C48.2,31.47 48.14,31.64 47.8,31.76 C45.89,32.56 43.19,33.2 40.26,33.2 C37.31,33.2 34.66,32.56 32.7,31.76 Z M55.8,43.17 C51.65,43.17 51.65,43.17 51.65,43.17 C51.65,44.37 51.48,45.48 51.13,46.57 C55.22,48.07 55.22,48.07 55.22,48.07 C55.8,48.41 56.09,48.99 55.8,49.57 C55.69,49.97 55.22,50.25 54.76,50.25 C54.7,50.25 54.41,50.09 54.3,50.09 C50.39,48.59 50.39,48.59 50.39,48.59 C48.66,51.98 45.43,54.17 41.46,55.33 C41.46,51.47 41.46,51.47 41.46,51.47 C45.31,51.12 48.36,48.07 48.36,44.44 C48.36,40.8 45.31,37.75 41.46,37.47 C41.46,35.16 41.46,35.16 41.46,35.16 C44.34,35.16 46.76,34.59 48.83,33.55 C48.95,33.48 49.17,33.31 49.47,33.2 C49.92,33.95 50.27,34.76 50.49,35.51 C54.3,34.07 54.3,34.07 54.3,34.07 C54.88,33.89 55.62,34.07 55.8,34.64 C56.09,35.16 55.8,35.79 55.22,36.08 C51.19,37.69 51.19,37.69 51.19,37.69 C51.48,38.68 51.65,39.77 51.65,40.97 C55.97,40.97 55.97,40.97 55.97,40.97 C56.49,40.97 57.13,41.39 57.13,42.08 C57.01,42.6 56.49,43.17 55.8,43.17 Z M37.2,44.2 C35.81,44.2 34.56,45.71 35.3,46.91 C35.3,46.91 35.3,46.91 34.96,47.03 C34.09,45.47 35.13,43.46 37.14,43.28 C36.45,41.73 37.61,39.83 39.5,39.66 C39.5,39.66 39.5,39.66 39.5,39.94 C36.97,40.11 37.14,43.63 39.62,43.8 C39.62,43.8 39.62,43.8 39.62,43.98 C39.33,44.03 39.05,44.32 39.05,44.67 C39.05,44.72 39.05,44.78 39.1,44.9 C39.1,44.9 39.1,44.9 38.93,45.02 C38.75,44.84 38.58,44.67 38.35,44.5 C38.35,44.5 38.29,44.5 38.23,44.43 C37.94,44.32 37.54,44.2 37.2,44.2 Z M38.93,42.42 C38.81,42.37 38.81,42.25 38.7,42.07 C39.85,41.5 41.29,41.5 42.38,42.07 C42.32,42.19 42.27,42.3 42.15,42.42 C41.23,41.9 39.9,41.9 38.93,42.42 Z M36.91,44.32 C37.02,44.26 37.19,44.26 37.31,44.26 C37.26,45.24 37.83,46.22 38.7,46.63 C38.63,46.8 38.52,46.91 38.46,47.03 C37.49,46.58 36.86,45.47 36.91,44.32 Z M40.66,46.33 C40.83,48.07 43.64,48.76 44.86,47.37 C44.86,47.37 44.86,47.37 45.15,47.49 C43.94,48.88 41.34,48.81 40.14,47.44 C39.55,48.13 38.63,48.53 37.54,48.53 C36.57,48.53 35.65,48.13 35.01,47.49 C35.01,47.49 35.01,47.49 35.36,47.32 C35.82,47.84 36.5,48.13 37.26,48.13 C38.46,48.13 39.55,47.32 39.62,46.33 C39.62,46 39.55,45.65 39.33,45.3 C39.33,45.3 39.33,45.3 39.55,45.18 C39.67,45.36 39.9,45.41 40.14,45.41 C40.37,45.41 40.59,45.36 40.71,45.24 C40.71,45.24 40.71,45.24 40.94,45.36 C40.66,45.76 40.59,45.93 40.66,46.33 Z M43.02,43.28 C44.98,43.46 46.07,45.47 45.26,47.03 C45.26,47.03 45.26,47.03 44.91,46.91 C45.43,45.64 44.51,44.2 43.02,44.2 C42.26,44.2 41.69,44.55 41.29,45.02 C41.29,45.02 41.29,45.02 41.11,44.95 C41.17,44.84 41.17,44.72 41.17,44.67 C41.17,44.32 40.94,44.03 40.54,43.98 C40.54,43.98 40.54,43.98 40.54,43.8 C43.02,43.63 43.19,40.23 40.71,39.94 C40.71,39.94 40.71,39.94 40.71,39.66 C42.62,39.83 43.76,41.67 43.02,43.28 Z M41.46,46.63 C42.38,46.28 42.95,45.3 42.84,44.26 C43.02,44.26 43.19,44.26 43.3,44.32 C43.3,45.54 42.67,46.58 41.69,47.03 C41.58,46.91 41.58,46.8 41.46,46.63 Z" fill="none" stroke="currentColor" stroke-width="1.5"/></svg>