<svg xmlns="http://www.w3.org/2000/svg" viewBox="0 0 81.21 76.27" width="24" height="24"><path d="M51.89,31.3 C52.57,31.3 53.13,30.73 53.13,30.04 C53.13,29.42 52.57,28.85 51.89,28.85 C51.25,28.85 50.69,29.42 50.69,30.04 C50.69,30.73 51.25,31.3 51.89,31.3 Z M46.31,31.3 C47,31.3 47.5,30.73 47.5,30.04 C47.5,29.42 47,28.85 46.31,28.85 C45.62,28.85 45.05,29.42 45.05,30.04 C45.05,30.73 45.62,31.3 46.31,31.3 Z M26.82,27.91 L54.65,27.91 C54.77,27.91 54.96,27.79 54.96,27.6 C54.96,27.34 54.77,27.16 54.65,27.16 C54.65,27.16 54.65,27.16 26.82,27.16 C26.63,27.16 26.43,27.34 26.43,27.6 C26.43,27.79 26.63,27.91 26.82,27.91 Z M40.73,31.3 C41.42,31.3 41.92,30.73 41.92,30.04 C41.92,29.42 41.42,28.85 40.73,28.85 C40.04,28.85 39.47,29.42 39.47,30.04 C39.47,30.73 40.04,31.3 40.73,31.3 Z M35.09,31.3 C35.77,31.3 36.34,30.73 36.34,30.04 C36.34,29.42 35.77,28.85 35.09,28.85 C34.4,28.85 33.89,29.42 33.89,30.04 C33.89,30.73 34.4,31.3 35.09,31.3 Z M29.51,31.3 C30.21,31.3 30.7,30.73 30.7,30.04 C30.7,29.42 30.21,28.85 29.51,28.85 C28.82,28.85 28.26,29.42 28.26,30.04 C28.26,30.73 28.82,31.3 29.51,31.3 Z M29.51,23.58 C28.82,23.58 28.26,24.09 28.26,24.77 C28.26,25.46 28.82,26.03 29.51,26.03 C30.21,26.03 30.7,25.46 30.7,24.77 C30.7,24.09 30.21,23.58 29.51,23.58 Z M35.09,23.58 C34.4,23.58 33.89,24.09 33.89,24.77 C33.89,25.46 34.4,26.03 35.09,26.03 C35.77,26.03 36.34,25.46 36.34,24.77 C36.34,24.09 35.77,23.58 35.09,23.58 Z M40.73,23.58 C40.04,23.58 39.47,24.09 39.47,24.77 C39.47,25.46 40.04,26.03 40.73,26.03 C41.42,26.03 41.92,25.46 41.92,24.77 C41.92,24.09 41.42,23.58 40.73,23.58 Z M46.31,23.58 C45.62,23.58 45.05,24.09 45.05,24.77 C45.05,25.46 45.62,26.03 46.31,26.03 C47,26.03 47.5,25.46 47.5,24.77 C47.5,24.09 47,23.58 46.31,23.58 Z M51.89,23.58 C51.25,23.58 50.69,24.09 50.69,24.77 C50.69,25.46 51.25,26.03 51.89,26.03 C52.57,26.03 53.13,25.46 53.13,24.77 C53.13,24.09 52.57,23.58 51.89,23.58 Z M56.65,29.8 C56.27,31.73 55.58,33.63 54.52,35.31 C54.52,35.31 54.52,35.31 57.46,41.21 C57.46,41.21 57.46,41.21 51,39.34 C49.56,40.52 47.93,41.4 46.18,42.02 C46.18,42.02 46.18,42.02 44.43,48.18 C44.43,48.18 44.43,48.18 41.35,42.84 C41.35,42.84 41.35,42.84 41.04,42.84 C39.22,42.84 37.47,42.58 35.84,42.02 C35.84,42.02 35.84,42.02 28.64,46.98 C28.64,46.98 28.64,46.98 31.14,39.52 C29.57,38.2 28.26,36.64 27.2,34.87 C27.2,34.87 27.2,34.87 20.18,34.69 C20.18,34.69 20.18,34.69 25.56,30.73 C25.32,29.6 25.12,28.29 25.12,27.03 C25.12,26.03 25.19,25.02 25.44,24.09 C25.44,24.09 25.44,24.09 20.05,20.07 C20.05,20.07 20.05,20.07 26.76,20.07 C27.82,17.88 29.39,16 31.27,14.56 C31.27,14.56 31.27,14.56 30.08,8.41 C30.08,8.41 30.08,8.41 34.46,12.61 C36.46,11.66 38.67,11.22 40.98,11.22 C40.98,11.22 40.98,11.22 41.86,11.22 C41.86,11.22 41.86,11.22 45.43,7.03 C45.43,7.03 45.43,7.03 45.87,11.99 C48.25,12.73 50.38,14.05 52.13,15.74 C52.13,15.74 52.13,15.74 57.4,14.12 C57.4,14.12 57.4,14.12 54.57,18.82 C55.78,20.83 56.58,23.09 56.78,25.53 C56.78,25.53 56.78,25.53 62.16,27.67 C62.16,27.67 62.16,27.67 56.65,29.8 Z M79.39,42.21 C78.95,41.28 78.14,40.71 78.14,40.71 C78.14,40.71 74.14,37.58 72.37,41.41 C70.56,45.22 65.04,47.11 65.04,47.11 C58.71,49.56 58.71,49.56 58.71,49.56 C58.71,49.49 58.71,49.49 58.71,49.43 C64.6,44.29 68.3,36.7 68.3,28.23 C68.3,12.67 55.77,0 40.29,0 C24.75,0 12.22,12.67 12.22,28.23 C12.22,36.63 15.91,44.22 21.74,49.43 C17.04,47.68 13.97,46.55 13.97,46.55 C13.97,46.55 14.1,42.08 10.91,40.71 C7.77,39.39 6.33,42.78 6.02,44.16 C6.02,44.16 0,44.47 0.31,47.92 C0.62,51.38 6.26,51.93 10.34,49.43 C23.8,54.57 23.8,54.57 23.8,54.57 C24.37,57.14 25.5,59.53 27.12,61.54 C17.47,65.11 17.47,65.11 17.47,65.11 C13.35,62.67 7.7,63.23 7.39,66.61 C7.13,70.13 13.1,70.44 13.1,70.44 C13.46,71.82 14.9,75.21 18.04,73.83 C21.23,72.44 21.12,68.06 21.12,68.06 C21.12,68.06 22.05,67.81 30.39,64.67 C33.21,66.73 36.59,67.94 40.35,67.94 C44.12,67.94 47.56,66.73 50.38,64.6 C60.79,67.12 60.79,67.12 60.79,67.12 C60.79,67.12 64.6,68.63 66.42,72.44 C68.18,76.27 72.13,73.13 72.13,73.13 C72.13,73.13 72.94,72.57 73.45,71.64 C74.45,69.63 75.25,66.3 72.13,66.73 C72.13,66.73 73.94,64.49 73.37,62.98 C72.81,61.54 70,60.66 68.05,61.47 C66.11,62.28 63.73,63.67 61.35,63.29 C60.72,63.16 59.71,63.36 53.82,61.15 C55.21,59.4 56.21,57.27 56.78,55.01 C61.9,53.19 65.6,51.82 66.17,51.69 C68.43,51.12 72.06,51.56 74.01,52.38 C75.95,53.26 78.77,52.31 79.34,50.87 C79.9,49.36 78.14,47.11 78.14,47.11 C81.21,47.61 80.4,44.22 79.39,42.21 Z" fill="none" stroke="currentColor" stroke-width="1.5"/></svg>