<svg xmlns="http://www.w3.org/2000/svg" viewBox="0 0 78.04 80.0" width="24" height="24"><path d="M66.77,40.11 C66.82,39.58 66.82,39.05 66.82,38.52 C66.82,37.53 66.77,36.52 66.7,35.53 C71.52,32.47 78.04,34.06 78.04,34.06 C73.75,29.29 67.81,30.35 65.71,30.88 C65.41,29.94 65.06,29 64.7,28.11 C67.47,26.53 71.69,27.17 71.69,27.17 C69.81,24 64.36,24.11 62.59,24.23 C62.24,23.65 61.77,23.06 61.29,22.41 C63.76,21.17 68.34,17.53 66.58,8.17 C66.58,8.17 66.05,15.64 57.24,18.18 C56.3,17.41 55.31,16.7 54.18,16.06 C56.01,13 58.23,6.82 53.31,0 C53.31,0 55.31,7.83 48.07,13.23 C46.66,12.82 45.13,12.47 43.66,12.24 C43.32,10.77 42.79,6.94 44.96,3.11 C44.96,3.11 39.2,4.41 39.26,12 C38.26,12.05 37.32,12.12 36.32,12.24 C34.73,0.99 23.69,2.89 23.69,2.89 C30.15,5.71 30.51,11.53 30.39,13.71 C28.32,14.47 26.39,15.53 24.56,16.76 C23.33,15.88 20.81,13.29 21.63,7.88 C21.63,7.88 16.98,13.71 21.34,19.41 C20.45,20.23 19.63,21.12 18.86,22.12 C17.1,20.76 11.7,17.59 6.99,23.06 C6.99,23.06 14.28,20.23 16.4,25.77 C15.63,27.17 14.93,28.64 14.4,30.23 C12.05,31.29 4.65,34.11 2.24,26.23 C2.24,26.23 0,36.64 13.29,35.36 C13.22,35.89 13.17,36.35 13.1,36.88 C10.93,36.71 2.82,36.52 1.59,44.29 C1.59,44.29 3.88,38.18 13.22,41.58 C13.46,43.24 13.75,44.82 14.23,46.35 C13.29,47.46 10.35,49.65 5.18,46.71 C4.94,46.59 6.65,52.64 16.11,50.88 C16.33,51.17 16.52,51.53 16.69,51.88 C15.22,53.12 12.11,56.65 13.41,62.29 C13.41,62.29 14.16,57.47 19.27,55.53 C20.22,56.65 21.22,57.64 22.27,58.53 C22.1,60.53 21.16,64.65 15.99,65.83 C15.99,65.83 23.16,67.52 26.34,61.41 C26.63,61.64 26.97,61.76 27.33,62 C23.57,72.24 29.57,78.75 29.57,78.75 C28.22,68.87 31.62,65.18 32.91,64.17 C33.56,64.36 34.26,64.53 34.97,64.65 C35.44,65.35 36.38,67.06 36.09,69.06 C35.67,71.76 34.2,76.65 35.85,80 C35.85,80 36.55,75.23 37.73,73.76 C38.91,72.24 39.97,70.41 39.97,68.53 C39.97,67.3 39.85,66 39.68,65.11 C39.73,65.11 39.85,65.11 39.97,65.11 C40.72,65.11 41.49,65.06 42.26,64.99 C42.72,65.88 42.79,66.7 42.91,67.64 C43.08,68.99 42.67,70.12 42.14,73.11 C41.61,76.17 43.49,78.46 43.49,78.46 C43.25,77.23 43.2,76.41 43.32,74.7 C43.49,73.06 45.66,70.94 46.55,68.58 C47.19,66.77 46.66,65.06 46.37,64.36 C46.84,64.24 47.31,64.05 47.78,63.94 C51.66,68.53 49.6,75.18 49.6,75.18 C53.89,70.77 52.3,64.05 51.84,62.35 C52.37,62.12 52.83,61.82 53.36,61.52 C58.18,65.35 56.83,72.94 56.83,72.94 C61,64.58 57.94,60.12 57,59.06 C57.41,58.76 57.7,58.47 58.06,58.17 C60.41,65.41 66.41,61.76 66.41,61.76 C62.12,61.35 61.71,55.76 61.71,54.11 C62.29,53.29 62.82,52.47 63.35,51.58 C68.29,51.7 69.11,55.64 69.11,55.64 C70.58,49.88 66.77,48.47 65.06,48.06 C65.35,47.29 65.64,46.47 65.83,45.7 C74.63,46.64 75.87,39.53 75.87,39.53 C72.29,42.88 68.41,41.12 66.77,40.11 Z M58.3,48.06 C56.91,49.97 54.48,51.31 52.77,52.55 C52.08,53.02 51.38,53.53 50.54,53.65 C50.13,53.49 50.2,52.87 50.07,52.43 L50.07,50.76 C47.94,50.74 45.81,50.8 43.7,50.73 C43.27,50.54 42.78,50.23 42.55,49.82 C41.49,48.11 40.23,46.5 39.1,44.83 C38.68,44.37 38.39,43.91 38.97,43.45 L41.67,39.53 C42.57,41.15 43.67,42.67 44.6,44.28 C44.98,44.64 45.08,45.31 45.65,45.17 C47.13,45.54 48.66,45.36 50.07,45.17 C49.96,44.29 50.31,43.46 50.25,42.59 C50.62,41.99 51.03,42.65 51.54,42.7 C54.16,44.19 56.54,46.1 58.3,47.89 L58.3,47.98 Z M25.68,31.89 C25.46,31.86 25.19,31.95 24.99,31.83 C24.47,31.63 24.35,31.2 23.93,30.83 C23.65,30.4 23.47,29.92 23.51,29.39 C23.46,28.64 23.52,27.88 24.03,27.3 C24.33,26.85 24.61,26.57 25.1,26.35 L32.44,26.35 C33.02,26.16 33.22,26.68 33.67,26.88 C34.98,28.96 36.31,31.08 37.62,33.17 L34.73,37.65 C34.02,36.34 33.31,35.03 32.44,33.82 C32,33.2 31.75,32.4 31.21,31.89 L25.68,31.89 Z M45.72,31.93 C44.45,33.72 43.33,35.63 42.11,37.45 C39.38,41.65 36.67,45.89 34,50.11 C33.51,50.31 33.3,50.96 32.68,50.83 L25.27,50.83 C24.78,50.76 24.54,50.37 24.16,50.06 C23.84,49.62 23.62,49.2 23.51,48.76 C23.56,48.14 23.37,47.45 23.68,46.9 C23.73,46.45 24.13,46 24.5,45.7 C24.79,45.29 25.27,45.18 25.75,45.17 C27.51,45.49 29.31,45.31 31.09,45.35 C31.57,45.15 31.76,44.67 32.08,44.24 C33.65,42.19 34.89,39.9 36.31,37.74 C38.48,34.28 40.68,30.84 42.9,27.4 C43.18,27.04 43.45,26.61 43.94,26.46 L50.31,26.46 C50.23,25.71 50.41,24.99 50.48,24.25 C50.42,23.78 50.64,23.3 51.16,23.57 C53.94,25.31 56.26,26.92 58.3,29.06 C58.43,29.79 57.64,30.18 57.2,30.63 C55.32,32.05 53.67,33.63 51.65,34.6 C51.5,34.97 50.41,35.08 50.48,34.61 C50.38,34.1 50.23,33.61 50.31,33.05 C50.25,32.55 50.58,31.67 49.76,31.93 Z" fill="none" stroke="currentColor" stroke-width="1.5"/></svg>