<svg xmlns="http://www.w3.org/2000/svg" viewBox="0 0 40.46 64.65" width="24" height="24"><path d="M34.82,38.01 C36.51,39.83 38.33,40.85 38.33,40.85 C35.89,37.65 36.02,33.92 36.33,32.01 C38.9,28.64 40.46,24.47 40.46,19.94 C40.46,8.92 31.41,0 20.23,0 C9.09,0 0,8.92 0,19.94 C0,24.33 1.46,28.37 3.9,31.66 C0.93,34.15 1.11,39.47 1.11,39.47 C1.95,36.28 3.06,35.74 3.86,35.34 C4.04,35.3 4.3,35.17 4.57,35.08 C4.44,36.19 4.44,37.39 4.84,38.41 C5.9,41.16 7.45,42.36 7.23,44.45 C7.01,46.58 4.84,48.18 4.7,50.62 C4.57,53.06 5.9,54.53 6.34,55.06 C6.74,55.64 5.19,52.79 6.03,50.66 C6.83,48.58 8.52,49.38 9.98,46.71 C10.29,46.13 10.6,45.56 10.82,44.98 C11.4,46.76 11.62,48 11.49,49.73 C11.4,52.17 10.38,54.48 9.14,55.37 C9.14,55.37 13.35,54.13 14.37,49.24 C15.22,45.47 14.24,43.38 15.04,41.16 C16.06,42.4 17.43,44.49 17.26,46.71 C16.99,50.17 14.46,54.66 15.26,57.86 C16.06,61.05 16.9,62.56 16.9,62.56 C16.9,62.56 16.55,58.08 18.1,55.68 C18.76,54.7 19.61,53.59 20.41,52.44 C21.56,56.08 25.06,59.01 26.04,60.03 C27.24,61.27 26.97,64.65 26.97,64.65 C26.97,64.65 27.77,63.45 28.08,59.72 C28.39,55.99 24.97,55.32 24.62,49.82 C24.49,47.91 24.84,46.04 25.29,44.45 C26.53,47.51 28.35,50.26 28.83,51.28 C29.63,52.84 29.59,56.79 29.59,56.79 C32.38,52.26 30.25,49.46 30.08,45.2 C29.99,43.34 30.25,41.56 30.56,40.1 C30.92,41.43 31.41,42.89 32.03,43.74 C33.45,45.73 34.42,47.02 34.65,48.58 C34.91,50.13 35.13,52.48 34.69,53.37 C34.69,53.37 36.51,51.99 36.38,47.78 C36.24,43.56 34.2,40.76 34.65,38.81 C34.69,38.54 34.78,38.32 34.82,38.01 Z M14.95,16.92 L14.95,19 C14.95,19.54 15.17,20.02 15.44,20.25 C15.44,20.25 15.44,20.25 16.28,20.25 C16.9,20.25 17.44,20.73 17.44,21.4 C17.44,21.4 17.44,21.4 17.44,23.71 C19.03,24.69 21.43,24.69 22.98,23.71 C22.98,23.71 22.98,23.71 22.98,21.4 C22.98,20.73 23.51,20.25 24.14,20.25 C24.14,20.25 24.14,20.25 24.98,20.25 C25.33,20.02 25.55,19.54 25.55,19 C25.55,19 25.55,19 25.55,16.92 C25.55,16.52 25.47,16.21 25.29,15.94 C23.78,16.07 22.14,16.16 20.41,16.16 C20.41,16.16 20.41,16.16 20.28,16.16 C20.28,16.16 20.28,16.16 20.14,16.16 C20.14,16.16 20.14,16.16 20.1,16.16 C18.32,16.16 16.64,16.07 15.17,15.94 C15,16.21 14.95,16.52 14.95,16.92 Z M9.23,14.43 C9.23,13.63 11.23,12.83 14.24,12.48 C14.24,12.48 14.24,12.48 15.93,6.88 C15.97,6.66 16.15,6.39 16.46,6.39 C16.46,6.39 16.46,6.39 23.96,6.39 C24.31,6.39 24.49,6.66 24.58,6.88 C24.58,6.88 24.58,6.88 26.18,12.48 C29.19,12.83 31.19,13.63 31.23,14.43 C31.23,14.87 29.55,15.41 26.93,15.76 C27.24,16.43 27.33,17.23 27.33,18.03 C27.33,18.78 27.24,19.54 26.93,20.25 C26.93,20.25 26.93,20.25 27.24,20.25 C27.86,20.25 28.35,20.73 28.35,21.4 C28.35,21.4 28.35,21.4 28.35,22.69 C29.24,22.82 29.99,23.66 29.99,24.77 C29.99,24.77 29.99,24.77 29.99,32.01 C29.99,33.21 29.15,34.1 28.13,34.1 C28.13,34.1 28.13,34.1 20.63,34.1 C20.63,34.1 20.63,34.1 20.63,24.77 C20.63,24.77 20.63,24.77 19.83,24.77 C19.83,24.77 19.83,24.77 19.83,34.1 C19.83,34.1 19.83,34.1 12.29,34.1 C11.31,34.1 10.52,33.21 10.52,32.01 C10.52,32.01 10.52,32.01 10.52,24.77 C10.52,23.66 11.18,22.82 12.07,22.69 C12.07,22.69 12.07,22.69 12.07,21.4 C12.07,20.73 12.6,20.25 13.22,20.25 C13.22,20.25 13.22,20.25 13.49,20.25 C13.27,19.54 13.09,18.78 13.09,18.03 C13.09,17.23 13.27,16.43 13.49,15.76 C10.92,15.41 9.23,14.87 9.23,14.43 Z M21.42,17.05 C23.77,17.05 23.77,17.05 23.77,17.05 C23.82,17.05 23.82,17.05 23.82,17.05 C24,17.05 24,17.05 24,17.05 C24.08,17.05 24.13,17.14 24.13,17.27 C24.13,18.91 24.13,18.91 24.13,18.91 C24.13,19.45 23.69,19.89 23.06,19.89 C21.69,19.89 21.69,19.89 21.69,19.89 C21.11,19.89 20.58,19.45 20.58,18.91 C20.58,17.94 20.58,17.94 20.58,17.94 C20.58,17.27 20.67,17.05 21.42,17.05 Z M15.83,17.05 C16.05,17.05 16.05,17.05 16.05,17.05 C18.36,17.05 18.36,17.05 18.36,17.05 C19.16,17.05 19.03,17.27 19.03,17.89 C19.03,18.91 19.03,18.91 19.03,18.91 C18.98,19.45 18.58,19.89 18.01,19.89 C16.63,19.89 16.63,19.89 16.63,19.89 C16.1,19.89 15.61,19.45 15.61,18.91 C15.61,17.27 15.61,17.27 15.61,17.27 C15.61,17.14 15.7,17.05 15.83,17.05 Z" fill="none" stroke="currentColor" stroke-width="1.5"/></svg>