<svg xmlns="http://www.w3.org/2000/svg" viewBox="0 0 80.15 64.55" width="24" height="24"><path d="M33.22,33.6 L33.22,36.25 C33.22,36.88 33.51,37.47 33.86,37.75 C33.86,37.75 33.86,37.75 35.01,37.75 C35.82,37.75 36.45,38.44 36.45,39.25 C36.45,39.25 36.45,39.25 36.45,42.19 C38.52,43.4 41.63,43.4 43.71,42.19 C43.71,42.19 43.71,42.19 43.71,39.25 C43.71,38.44 44.33,37.75 45.15,37.75 C45.15,37.75 45.15,37.75 46.24,37.75 C46.7,37.47 46.98,36.88 46.98,36.25 C46.98,36.25 46.98,36.25 46.98,33.6 C46.98,33.08 46.88,32.73 46.64,32.33 C44.74,32.56 42.61,32.63 40.31,32.63 C40.31,32.63 40.31,32.63 40.14,32.63 C40.14,32.63 40.14,32.63 39.96,32.63 C39.96,32.63 39.96,32.63 39.91,32.63 C37.6,32.63 35.42,32.56 33.51,32.33 C33.29,32.73 33.22,33.08 33.22,33.6 Z M25.8,30.43 C25.8,29.45 28.45,28.41 32.3,27.95 C32.3,27.95 32.3,27.95 34.49,20.92 C34.55,20.63 34.78,20.28 35.25,20.28 C35.25,20.28 35.25,20.28 44.92,20.28 C45.37,20.28 45.61,20.63 45.72,20.92 C45.72,20.92 45.72,20.92 47.8,27.95 C51.71,28.41 54.3,29.45 54.35,30.43 C54.35,31 52.17,31.71 48.77,32.11 C49.18,33.03 49.29,33.95 49.29,34.99 C49.29,35.96 49.18,36.88 48.77,37.75 C48.77,37.75 48.77,37.75 49.18,37.75 C49.98,37.75 50.62,38.44 50.62,39.25 C50.62,39.25 50.62,39.25 50.62,40.87 C51.82,41.04 52.74,42.13 52.74,43.57 C52.74,43.57 52.74,43.57 52.74,52.68 C52.74,54.17 51.65,55.33 50.33,55.33 C50.33,55.33 50.33,55.33 40.6,55.33 C40.6,55.33 40.6,55.33 40.6,43.57 C40.6,43.57 40.6,43.57 39.56,43.57 C39.56,43.57 39.56,43.57 39.56,55.33 C39.56,55.33 39.56,55.33 29.83,55.33 C28.5,55.33 27.47,54.17 27.47,52.68 C27.47,52.68 27.47,52.68 27.47,43.57 C27.47,42.13 28.33,41.04 29.54,40.87 C29.54,40.87 29.54,40.87 29.54,39.25 C29.54,38.44 30.17,37.75 30.98,37.75 C30.98,37.75 30.98,37.75 31.33,37.75 C31.04,36.88 30.86,35.96 30.86,34.99 C30.86,33.95 31.04,33.03 31.33,32.11 C27.99,31.71 25.8,31 25.8,30.43 Z M42.33,33.2 C44.74,33.2 44.74,33.2 44.74,33.2 C44.86,33.2 44.86,33.2 44.86,33.2 C45.03,33.2 45.03,33.2 45.03,33.2 C45.08,33.2 45.15,33.32 45.15,33.43 C45.15,35.61 45.15,35.61 45.15,35.61 C45.15,36.31 44.68,36.89 44.06,36.89 C42.62,36.89 42.62,36.89 42.62,36.89 C42.03,36.89 41.46,36.31 41.46,35.61 C41.46,34.35 41.46,34.35 41.46,34.35 C41.46,33.43 41.51,33.2 42.33,33.2 Z M35.24,33.2 C35.47,33.2 35.47,33.2 35.47,33.2 C37.89,33.2 37.89,33.2 37.89,33.2 C38.7,33.2 38.58,33.43 38.58,34.29 C38.58,35.61 38.58,35.61 38.58,35.61 C38.53,36.31 38.06,36.89 37.54,36.89 C36.1,36.89 36.1,36.89 36.1,36.89 C35.53,36.89 35.01,36.31 35.01,35.61 C35.01,33.43 35.01,33.43 35.01,33.43 C35.01,33.32 35.06,33.2 35.24,33.2 Z M78.6,43.11 C76.75,42.94 74.74,42.54 74.22,42.3 C73.48,41.61 73.13,40.69 72.85,39.65 C72.33,38.27 71.74,36.49 69.85,35.45 C68.29,34.58 67.08,34.35 66.11,34.35 C65.47,30.32 63.91,26.62 61.62,23.4 C62.82,22.18 63.63,20.74 64.43,19.3 C65.3,17.81 66.11,16.32 67.43,15.1 C70.08,12.62 75.38,13.08 75.43,13.08 C76.35,13.14 77.15,12.45 77.27,11.53 C77.34,10.66 76.65,9.85 75.73,9.74 C75.49,9.74 68.92,9.16 65.19,12.68 C63.46,14.24 62.42,16.08 61.5,17.76 C60.86,18.85 60.23,19.89 59.54,20.81 C58.79,20 57.93,19.2 57.13,18.5 C55.62,12.45 50.96,7.61 45.03,5.88 C45.03,1.67 45.03,1.67 45.03,1.67 C45.03,0.75 44.22,0 43.3,0 C42.38,0 41.69,0.75 41.69,1.67 C41.69,5.3 41.69,5.3 41.69,5.3 C41.11,5.24 40.54,5.19 40.02,5.19 C39.5,5.19 39.04,5.24 38.58,5.24 C38.58,1.67 38.58,1.67 38.58,1.67 C38.58,0.75 37.84,0 36.92,0 C35.99,0 35.19,0.75 35.19,1.67 C35.19,5.88 35.19,5.88 35.19,5.88 C29.08,7.55 24.36,12.51 22.92,18.68 C22.12,19.37 21.42,20.05 20.73,20.81 C19.92,19.94 19.35,18.85 18.72,17.76 C17.8,16.08 16.76,14.24 15.03,12.68 C11.29,9.16 4.78,9.74 4.49,9.74 C3.57,9.85 2.88,10.66 2.93,11.53 C3.05,12.45 3.86,13.14 4.78,13.08 C6.22,12.92 10.54,13.02 12.79,15.1 C14.11,16.32 14.91,17.81 15.78,19.3 C16.59,20.74 17.39,22.18 18.55,23.46 C16.36,26.62 14.75,30.32 14.11,34.35 C13.14,34.35 11.92,34.58 10.37,35.45 C8.53,36.49 7.89,38.27 7.42,39.65 C7.09,40.69 6.74,41.61 5.98,42.3 C5.48,42.54 3.45,42.94 1.61,43.11 C0.69,43.22 0,44.03 0.12,44.9 C0.17,45.82 0.92,46.39 1.79,46.39 C1.84,46.39 1.84,46.39 1.96,46.39 C4.21,46.22 7.09,45.77 8.18,44.78 C9.62,43.57 10.14,41.95 10.54,40.74 C10.99,39.49 11.29,38.73 12.03,38.33 C12.72,37.93 13.36,37.75 13.82,37.69 C13.82,37.93 13.82,38.21 13.82,38.45 C13.82,42.89 14.91,47.09 16.87,50.71 C15.6,52.22 15.15,54.06 14.8,55.79 C14.51,56.88 14.28,58.1 13.76,59.14 C12.5,61.72 7.26,61.15 7.2,61.15 C6.28,61.03 5.48,61.72 5.36,62.59 C5.24,63.51 5.88,64.32 6.8,64.43 C6.91,64.43 7.49,64.5 8.35,64.5 C10.71,64.5 15.08,64.03 16.76,60.58 C17.45,59.14 17.73,57.75 18.03,56.48 C18.25,55.39 18.48,54.47 18.83,53.83 C23.61,60.35 31.39,64.55 40.08,64.55 C48.83,64.55 56.61,60.35 61.38,53.83 C61.73,54.47 61.95,55.39 62.19,56.48 C62.47,57.75 62.76,59.14 63.46,60.58 C65.12,64.03 69.5,64.5 71.86,64.5 C72.73,64.5 73.3,64.43 73.42,64.43 C74.34,64.32 74.97,63.51 74.86,62.59 C74.74,61.72 73.94,61.03 73.01,61.15 C72.96,61.15 67.72,61.72 66.45,59.14 C65.93,58.1 65.71,56.88 65.41,55.79 C65.07,54.06 64.6,52.22 63.34,50.78 C65.3,47.09 66.45,42.89 66.45,38.45 C66.45,38.21 66.39,37.93 66.39,37.69 C66.91,37.75 67.48,37.93 68.17,38.33 C68.92,38.73 69.21,39.49 69.68,40.74 C70.08,41.95 70.6,43.57 72.04,44.78 C73.13,45.77 76.06,46.22 78.26,46.39 C78.31,46.39 78.43,46.39 78.43,46.39 C79.3,46.39 80.04,45.82 80.1,44.9 C80.15,44.03 79.52,43.22 78.6,43.11 Z" fill="none" stroke="currentColor" stroke-width="1.5"/></svg>