<svg xmlns="http://www.w3.org/2000/svg" viewBox="0 0 81.16 76.22" width="24" height="24"><path d="M79.34,42.18 C78.9,41.25 78.1,40.69 78.1,40.69 C78.1,40.69 74.14,37.55 72.32,41.38 C70.52,45.19 65,47.08 65,47.08 C58.74,49.52 58.74,49.52 58.74,49.52 C58.74,49.52 58.67,49.45 58.67,49.4 C64.56,44.26 68.33,36.68 68.33,28.21 C68.33,12.66 55.73,0 40.26,0 C24.73,0 12.14,12.66 12.14,28.21 C12.14,36.61 15.84,44.19 21.73,49.4 C17.03,47.65 13.96,46.52 13.96,46.52 C13.96,46.52 14.09,42.06 10.9,40.69 C7.76,39.36 6.32,42.75 5.94,44.13 C5.94,44.13 0,44.44 0.25,47.89 C0.56,51.34 6.25,51.89 10.33,49.4 C23.8,54.53 23.8,54.53 23.8,54.53 C24.35,57.1 25.48,59.49 27.05,61.49 C17.41,65.07 17.41,65.07 17.41,65.07 C13.34,62.62 7.69,63.19 7.38,66.56 C7.14,70.08 13.09,70.39 13.09,70.39 C13.47,71.77 14.84,75.16 18.03,73.78 C21.16,72.39 21.11,68.02 21.11,68.02 C21.11,68.02 21.98,67.76 30.37,64.63 C33.12,66.69 36.56,67.89 40.33,67.89 C44.09,67.89 47.53,66.69 50.34,64.56 C60.8,67.07 60.8,67.07 60.8,67.07 C60.8,67.07 64.56,68.58 66.38,72.46 C68.13,76.22 72.14,73.08 72.14,73.08 C72.14,73.08 72.89,72.52 73.4,71.64 C74.4,69.58 75.22,66.25 72.14,66.69 C72.14,66.69 73.89,64.44 73.32,62.93 C72.76,61.49 69.95,60.62 68,61.42 C66,62.24 63.68,63.63 61.31,63.24 C60.68,63.12 59.67,63.32 53.79,61.11 C55.17,59.36 56.17,57.23 56.67,54.97 C61.88,53.15 65.56,51.78 66.2,51.65 C68.38,51.09 72.01,51.58 73.96,52.4 C75.96,53.22 78.72,52.28 79.28,50.84 C79.85,49.33 78.1,47.08 78.1,47.08 C81.16,47.57 80.34,44.19 79.34,42.18 Z M57.11,30.08 C57.16,29.8 57.09,29.52 56.95,29.27 C56.7,28.77 56.16,28.47 55.62,28.44 C55.16,28.4 54.71,28.61 54.4,28.93 C54.02,29.32 53.91,29.91 54.01,30.43 C54.12,31.19 54.85,31.79 55.62,31.8 C55.97,31.76 56.31,31.61 56.58,31.38 C56.93,31.06 57.2,30.58 57.11,30.08 Z M63,28.96 C63.23,29.1 63.09,29.41 63.13,29.64 C63.1,30.11 63.19,30.6 63.07,31.05 C63.17,31.57 62.56,31.45 62.49,31.78 C62.21,31.78 61.93,31.78 61.65,31.78 C61.16,31.74 60.51,31.72 60.56,32.41 C60.23,32.82 60.32,33.12 60.75,33.36 C61.15,33.7 61.71,34.02 61.62,34.63 C61.62,35.31 60.8,35.64 60.43,36.17 C59.93,37.18 58.86,36.19 58.51,35.57 C58.18,34.71 57.71,35.68 57.11,35.6 C57.11,36.05 57.11,36.5 57.11,36.95 C57.18,37.48 56.88,37.94 56.48,38.12 C56.13,38.12 55.78,38.12 55.44,38.12 C55.17,38.08 54.82,38.19 54.61,38.06 C54.06,38.03 54.21,37.52 53.98,37.3 C53.98,36.98 53.98,36.67 53.98,36.35 C54.29,35.47 53.37,35.61 52.98,35.1 C52.47,35.58 52.17,36.39 51.46,36.57 C50.74,36.71 50.45,35.69 49.96,35.3 C49.07,34.89 49.61,33.89 50.24,33.53 C51.05,33.16 50.55,32.55 50.4,31.94 C50.26,31.63 49.85,31.84 49.58,31.78 C49.02,31.83 48.56,31.75 48.09,31.47 C48.09,30.85 48.09,30.23 48.09,29.61 C48.15,29.33 47.97,28.91 48.21,28.75 C48.75,28.1 49.79,28.76 50.36,28.31 C50.38,27.93 50.86,27.52 50.64,27.29 C50.28,26.71 49.6,26.32 49.47,25.64 C49.71,24.99 50.36,24.33 50.93,23.94 C51.16,23.28 51.59,23.92 51.98,23.94 C52.15,24.14 52.33,24.35 52.51,24.55 C52.75,24.75 52.94,25.3 53.25,24.87 C54.15,24.92 54.01,24.05 53.97,23.4 C54.02,22.77 54.2,22.23 54.8,22.07 C55.23,22.07 55.65,22.07 56.08,22.07 C56.54,22.01 56.9,22.4 57.11,22.76 C57.12,23.17 57.1,23.58 57.12,23.99 C56.83,24.83 57.7,24.68 58.12,25.07 C58.29,24.87 58.47,24.67 58.65,24.47 C58.91,24.08 59.3,23.89 59.69,23.66 C60.39,23.71 60.76,24.52 61.31,24.91 C62,25.54 61.43,26.51 60.8,26.95 C60.06,27.35 60.61,27.87 60.81,28.46 C61.2,28.46 61.58,28.46 61.96,28.46 C62.41,28.36 62.73,28.63 63,28.96 Z M39.14,34.41 L39.14,34.39 C39.33,33.35 38.76,32.32 37.83,31.84 C36.53,31.03 34.88,32.2 34.51,33.51 C34.08,34.95 35.23,36.49 36.67,36.68 C37.88,36.74 39.23,35.69 39.14,34.41 Z M41.64,14.55 L41.64,14.55 L41.64,17.68 L44.59,17.68 L44.59,14.55 L41.64,14.55 Z M46.41,14.55 L46.41,14.55 L46.41,17.68 L49.34,17.68 L49.34,14.55 L46.41,14.55 Z M48.03,32.4 L48.03,32.42 C48.23,32.94 48.15,33.54 48.16,34.12 C48.16,34.68 48.2,35.25 48.03,35.74 C48.04,36.24 47.63,36.33 47.34,36.54 C46.46,36.54 45.59,36.54 44.71,36.54 C44.59,37.18 44.3,37.76 44.08,38.36 C44.56,38.93 45.04,39.49 45.52,40.06 C46,40.07 45.9,40.78 45.9,41.19 C45.78,41.8 45.14,42.22 44.75,42.74 C44.34,43.2 44.04,43.59 43.58,43.81 C43.07,43.88 42.51,43.78 42.27,43.5 C41.79,42.98 41.31,42.46 40.82,41.94 C40.26,41.82 39.74,42.48 39.14,42.5 C39.11,43.43 39.19,44.45 39.1,45.32 C39.04,45.72 38.62,45.77 38.52,46.14 C37.41,46.14 36.3,46.14 35.2,46.14 C35.14,45.78 34.65,45.84 34.56,45.51 C34.56,44.5 34.56,43.5 34.56,42.5 C33.97,42.38 33.47,42.01 32.87,41.88 C32.28,42.49 31.63,43.06 31.09,43.71 C30.67,43.89 29.83,43.93 29.71,43.5 C29.13,43.13 28.66,42.48 28.12,42.01 C28.03,41.56 27.54,41.28 27.62,40.77 C27.92,40 28.57,39.41 29.11,38.74 C27.53,38.74 25.94,38.74 24.36,38.74 C23.51,38.37 22.5,38.04 22.08,37.13 C21.48,36.65 21.43,35.85 21.04,35.23 C21.04,29.25 21.04,23.28 21.04,17.3 C21.11,16.34 20.9,15.33 21.16,14.41 C21.23,13.85 21.44,13.31 21.82,12.88 C21.96,12.28 22.67,12.58 22.86,12.03 C31.58,12.03 40.29,12.03 49.01,12.03 C49.46,12.1 50.06,11.9 50.42,12.14 C50.79,12.54 51.34,12.52 51.53,13.09 C51.92,13.48 51.96,13.95 52.06,14.46 C52.14,15.9 52.07,17.36 52.1,18.81 C52.15,19.42 51.93,19.59 51.66,20 C42.02,20 32.38,20 22.73,20 C22.73,24.37 22.73,28.74 22.73,33.12 C22.81,33.64 22.58,34.29 22.86,34.72 C22.74,35.27 23.14,35.73 23.54,36.05 C23.81,36.55 24.31,36.66 24.67,36.92 C25.66,36.92 26.65,36.92 27.64,36.92 C28.06,36.78 29.1,37.27 28.93,36.54 C28.04,36.5 27.09,36.62 26.24,36.48 C25.82,36.33 25.83,35.91 25.49,35.74 C25.49,35.07 25.49,34.41 25.49,33.74 C25.58,33.32 25.29,32.51 25.67,32.37 C25.78,31.82 26.41,31.95 26.49,31.59 C27.24,31.59 27.99,31.59 28.75,31.59 C29.28,31.48 29.26,30.63 29.47,30.2 C29.8,29.71 28.85,29.36 28.63,28.93 C28.17,28.6 27.99,28.11 27.69,27.7 C27.36,27.27 27.91,26.81 27.98,26.45 C28.65,25.81 29.29,25.11 29.97,24.51 C30.39,24.28 30.93,24.44 31.25,24.73 C31.66,25.36 32.35,25.87 32.87,26.45 C33.47,26.32 33.88,25.65 34.56,25.83 C34.56,25.02 34.56,24.21 34.56,23.41 C34.4,22.83 34.82,22.52 35.2,22.18 C36.15,22.18 37.09,22.18 38.04,22.18 C38.57,22.08 38.86,22.52 39.01,22.82 C39.3,23.05 39.06,23.82 39.14,24.26 C39.23,24.74 38.95,25.58 39.28,25.83 C39.92,25.65 40.17,26.41 40.76,26.45 C41.33,25.85 41.88,25.23 42.45,24.64 C42.98,24.41 43.18,24.3 43.72,24.57 C44.51,25.11 45.01,26 45.72,26.64 C46.03,26.92 45.93,27.59 45.8,27.98 C45.23,28.6 44.64,29.29 44.08,29.96 C44.42,30.44 44.43,31.07 44.71,31.59 C45.45,31.59 46.2,31.59 46.94,31.59 C47.34,31.79 47.8,32.02 48.03,32.4 Z" fill="none" stroke="currentColor" stroke-width="1.5"/></svg>