<svg xmlns="http://www.w3.org/2000/svg" viewBox="0 0 81.21 76.27" width="24" height="24"><path d="M79.39,42.21 C78.95,41.28 78.14,40.71 78.14,40.71 C78.14,40.71 74.14,37.58 72.37,41.41 C70.56,45.22 65.04,47.17 65.04,47.17 C58.71,49.56 58.71,49.56 58.71,49.56 C58.71,49.49 58.71,49.49 58.71,49.49 C64.6,44.29 68.36,36.7 68.36,28.23 C68.36,12.67 55.77,0 40.29,0 C24.75,0 12.22,12.67 12.22,28.23 C12.22,36.7 15.91,44.22 21.74,49.36 C17.04,47.68 13.97,46.55 13.97,46.55 C13.97,46.55 14.1,42.15 10.91,40.71 C7.77,39.39 6.33,42.78 6.02,44.09 C6.02,44.09 0,44.47 0.31,47.92 C0.62,51.38 6.26,51.87 10.34,49.43 C23.8,54.57 23.8,54.57 23.8,54.57 C24.37,57.14 25.5,59.53 27.12,61.54 C17.47,65.11 17.47,65.11 17.47,65.11 C13.35,62.67 7.7,63.16 7.39,66.61 C7.13,70.13 13.1,70.44 13.1,70.44 C13.46,71.76 14.9,75.21 18.04,73.83 C21.23,72.44 21.12,67.99 21.12,67.99 C21.12,67.99 22.05,67.81 30.39,64.67 C33.21,66.73 36.59,67.94 40.35,67.94 C44.12,67.94 47.56,66.73 50.38,64.6 C60.79,67.12 60.79,67.12 60.79,67.12 C60.79,67.12 64.6,68.63 66.42,72.44 C68.18,76.27 72.19,73.13 72.19,73.13 C72.19,73.13 72.94,72.57 73.45,71.64 C74.45,69.63 75.25,66.24 72.19,66.73 C72.19,66.73 73.94,64.49 73.37,63.03 C72.81,61.54 70,60.66 68.05,61.47 C66.11,62.28 63.73,63.67 61.35,63.29 C60.72,63.16 59.71,63.36 53.82,61.23 C55.21,59.4 56.21,57.33 56.78,55.01 C61.9,53.13 65.6,51.82 66.17,51.69 C68.43,51.12 72.06,51.56 74.01,52.38 C75.95,53.19 78.77,52.38 79.34,50.87 C79.9,49.36 78.14,47.17 78.14,47.17 C81.21,47.55 80.4,44.29 79.39,42.21 Z M60.15,26.59 C60.15,28.29 58.97,30.04 57.27,31.55 C57.46,32.06 57.46,32.62 57.27,33.12 C56.78,34.12 55.58,34.43 54.7,33.94 C54.52,33.81 54.39,33.81 54.21,33.63 C53.01,34.31 51.64,34.81 50.12,35.31 C49.94,37.88 49.25,40.34 48.56,42.22 C47.37,44.97 45.67,46.85 43.3,47.17 C43.3,47.17 43.3,47.17 42.79,47.17 C40.55,47.17 38.47,45.61 36.77,43.22 C35.4,43.91 33.89,44.28 32.52,44.28 C31.34,44.28 30.13,43.91 29.26,43.22 C27.89,42.03 27.38,40.34 27.38,38.26 C27.38,37.39 27.38,36.57 27.56,35.69 C27.38,35.69 27.25,35.69 27.07,35.51 C24.5,34.43 22.44,32.62 22.24,30.36 C22.05,30.17 22.05,30.04 22.05,29.86 C22.24,27.1 24.31,24.9 27.56,22.96 C28.89,22.33 30.45,21.58 32.14,20.89 C32.34,18.31 33.02,15.93 33.71,14.05 C34.9,11.29 36.59,9.41 38.98,9.03 C38.98,9.03 38.98,9.03 39.54,9.03 C41.73,9.03 43.8,10.6 45.49,13.17 C46,12.86 46.68,12.68 47.19,12.48 C47.19,12.3 47.19,12.17 47.37,11.99 C47.88,10.98 49.06,10.6 49.94,11.17 C50.45,11.29 50.76,11.79 50.94,12.17 C51.64,12.3 52.33,12.68 53.01,13.17 C54.39,14.25 55.08,16.12 55.08,18.13 C55.08,18.88 54.88,19.7 54.7,20.57 C54.88,20.57 55.08,20.7 55.21,20.7 C57.96,21.96 59.84,23.65 60.03,26.03 C60.15,26.22 60.15,26.41 60.15,26.59 Z M48.56,11.99 C48.37,11.99 48.06,12.17 48.06,12.48 C48.06,12.86 48.37,12.99 48.56,12.99 C48.94,12.99 49.25,12.86 49.25,12.48 C49.25,12.17 48.94,11.99 48.56,11.99 Z M46.18,14.36 L46.18,14.56 C47.06,15.74 47.68,17.49 48.19,19.19 C50.12,19.39 51.82,19.7 53.39,20.07 C53.39,19.39 53.51,18.7 53.51,18.13 C53.51,16.31 53.01,15.05 52.13,14.36 C51.64,14.05 51.25,13.86 50.76,13.74 C50.25,14.74 49.06,15.05 48.19,14.56 C47.88,14.36 47.68,14.25 47.55,13.86 C47.19,14.05 46.68,14.25 46.18,14.36 Z M45,15.25 C45,15.25 45,15.05 44.8,15.05 C43.12,16.12 41.04,17.49 38.98,19.39 C39.35,19.39 39.85,19.19 40.22,19.19 C41.73,19.01 43.3,19.01 44.8,19.01 C44.8,19.01 44.8,19.01 46.68,19.01 C46.18,17.62 45.49,16.31 45,15.25 Z M35.22,14.56 C34.58,16.31 34.09,18.13 33.71,20.57 C34.58,20.19 35.59,20.07 36.59,19.7 C38.98,17.13 41.55,15.05 44.11,13.86 C42.61,11.66 40.86,10.6 39.54,10.6 C39.54,10.6 39.54,10.6 39.16,10.6 C37.66,10.78 36.28,12.17 35.22,14.56 Z M33.58,22.14 L33.58,23.27 C33.71,23.15 33.89,22.76 34.22,22.65 C34.4,22.33 34.58,21.96 34.71,21.76 C34.4,21.96 34.09,21.96 33.58,22.14 Z M33.4,32.62 C33.4,32.24 33.21,31.86 32.83,31.86 C32.52,31.86 32.34,32.24 32.34,32.62 C32.34,32.74 32.52,33.12 32.83,33.12 C33.21,33.12 33.4,32.74 33.4,32.62 Z M32.52,31.06 C32.34,30.36 32.34,29.86 32.14,29.16 C32.14,29.16 32.14,29.16 32.14,28.1 C30.83,30.55 29.77,32.74 29.26,34.81 C30.64,35.2 31.96,35.51 33.58,35.69 C33.4,35.31 33.4,35 33.21,34.63 C33.02,34.43 32.83,34.43 32.71,34.31 C31.65,33.94 31.34,32.74 31.83,31.73 C31.96,31.37 32.14,31.24 32.52,31.06 Z M27.76,34.12 L27.89,34.31 C28.57,31.55 29.95,28.47 31.96,25.53 C31.96,25.53 31.96,25.53 31.96,24.53 C31.96,24.53 31.96,24.53 31.96,22.65 C30.64,23.15 29.44,23.65 28.26,24.33 C25.32,26.03 23.62,28.1 23.62,29.86 C23.62,29.86 23.62,29.86 23.62,30.17 C23.81,31.73 25.19,33.12 27.76,34.12 Z M32.52,42.71 C33.58,42.71 34.71,42.34 36.1,41.83 C35.22,40.46 34.58,38.95 34.09,37.2 C32.14,37 30.45,36.69 28.89,36.2 C28.89,36.88 28.76,37.57 28.76,38.26 C28.76,39.96 29.26,41.34 30.13,42.03 C30.83,42.53 31.65,42.71 32.52,42.71 Z M37.47,41.21 C39.35,40.34 41.22,38.77 43.3,36.88 C42.92,37 42.61,37 42.04,37 C40.55,37.2 38.98,37.39 37.47,37.39 C36.97,37.39 36.28,37.39 35.59,37.2 C36.1,38.77 36.77,39.96 37.28,41.21 C37.28,41.21 37.28,41.21 37.47,41.21 Z M47.19,41.71 C47.68,40.14 48.19,38.08 48.56,35.87 C47.68,36.07 46.68,36.38 45.67,36.57 C43.3,39.14 40.73,41.21 38.16,42.53 C39.67,44.6 41.35,45.79 42.79,45.79 C42.92,45.79 43.12,45.79 43.12,45.61 C44.61,45.61 46,44.1 47.19,41.71 Z M48.75,34.12 L48.75,32.94 C48.56,33.3 48.37,33.43 48.19,33.81 C47.88,33.94 47.68,34.31 47.55,34.43 C47.88,34.43 48.37,34.31 48.75,34.12 Z M47.06,32.74 C47.55,32.06 48.19,31.24 48.75,30.36 C48.75,29.29 48.75,28.29 48.56,27.28 C48.19,24.9 47.68,22.65 47.19,20.57 C46.37,20.57 45.67,20.39 44.8,20.39 C43.3,20.39 41.92,20.57 40.35,20.7 C39.35,20.89 38.29,21.08 37.28,21.27 C36.59,21.96 35.9,22.65 35.22,23.46 C34.71,24.33 34.09,25.22 33.58,25.9 C33.58,26.9 33.71,27.98 33.71,28.98 C33.89,29.67 33.89,30.17 34.09,30.86 C34.09,30.86 34.22,30.86 34.4,31.06 C35.22,31.37 35.77,32.62 35.22,33.63 C35.09,33.81 34.9,33.94 34.71,34.12 C34.71,34.63 34.9,35.31 35.09,35.87 C35.09,35.87 35.09,35.87 37.47,35.87 C38.98,35.87 40.55,35.87 41.92,35.69 C43.12,35.51 43.99,35.31 45,35.2 C45.67,34.43 46.37,33.63 47.06,32.74 Z M48.75,20.7 C49.25,22.65 49.76,24.9 50.12,27.1 C50.12,27.1 50.12,27.1 50.12,28.1 C51.45,25.9 52.51,23.65 53.01,21.58 C51.64,21.27 50.25,20.89 48.75,20.7 Z M54.88,32.43 C55.21,32.43 55.58,32.24 55.58,31.86 C55.58,31.55 55.21,31.24 54.88,31.24 C54.7,31.24 54.39,31.55 54.39,31.86 C54.39,32.24 54.7,32.43 54.88,32.43 Z M56.27,30.36 C57.78,29.16 58.66,27.79 58.66,26.59 C58.66,26.59 58.66,26.59 58.66,26.22 C58.46,24.71 57.09,23.15 54.52,22.14 C54.52,22.14 54.52,22.14 54.39,22.14 C53.7,24.9 52.33,27.79 50.25,30.86 C50.25,30.86 50.25,30.86 50.25,31.73 C50.25,31.73 50.25,31.73 50.25,33.63 C51.45,33.3 52.69,32.74 53.7,32.24 C53.7,31.86 53.7,31.55 53.9,31.37 C54.39,30.36 55.39,30.04 56.27,30.36 Z M42.48,24.21 C44.3,25.34 45.11,28.17 44.18,30.23 C43.17,32.44 40.73,33.11 38.91,32.05 C36.97,30.92 36.1,28.35 37.1,26.09 C38.22,24.03 40.55,23.08 42.48,24.21 Z M39.22,28.66 C39.73,28.66 40.22,28.17 40.22,27.6 C40.22,26.84 39.73,26.47 39.22,26.47 C38.72,26.47 38.22,26.84 38.22,27.6 C38.22,28.17 38.72,28.66 39.22,28.66 Z" fill="none" stroke="currentColor" stroke-width="1.5"/></svg>