<svg xmlns="http://www.w3.org/2000/svg" viewBox="0 0 74.37 80.0" width="24" height="24"><path d="M70.83,61.47 C73.96,48.95 69.58,41.87 68.07,39.87 C68.55,37.65 68.83,35.35 68.83,33.06 C68.83,30.08 68.41,27.15 67.64,24.45 C74.37,17.92 74.03,10.84 73.06,7.29 C72.02,3.33 67.64,0 67.64,0 C67.3,0.91 67.3,0.91 67.3,0.91 C67.99,1.6 69.72,4.93 67.1,9.73 C66.05,11.73 64.05,12.98 62.17,13.75 C56.41,6.32 47.39,1.53 37.26,1.53 C27.14,1.53 18.11,6.32 12.36,13.75 C10.48,12.98 8.46,11.73 7.35,9.73 C4.72,4.93 6.46,1.6 7.15,0.91 C6.8,0 6.8,0 6.8,0 C6.8,0 2.42,3.33 1.39,7.29 C0.48,10.84 0,17.99 6.87,24.51 C6.18,27.23 5.69,30.08 5.69,33.06 C5.69,35.35 5.97,37.65 6.46,39.79 C4.99,41.67 0.48,48.81 3.68,61.47 C3.68,61.47 1.45,62.84 1.11,67.02 C1.11,67.02 2.77,64.94 3.82,64.66 C3.82,64.66 3.33,68.96 6.58,70.55 C6.58,70.55 5.61,67.93 5.97,66.8 C5.97,66.8 7.09,69.1 9.37,69.38 C9.37,69.38 7.57,67.36 7.7,65.91 C7.7,65.91 8.68,66.6 10.4,66.31 C10.4,66.31 0.28,60.62 9.37,47.78 C12.9,54.44 18.74,59.65 25.81,62.36 C25.95,66.46 26.85,71.88 30.11,77.09 C30.11,77.09 25.32,73.74 20.82,79.66 C20.82,80 20.82,80 20.82,80 C31.84,80 31.84,80 31.84,80 C31.84,80 32.67,79.94 32.67,78.69 C32.67,77.64 29.08,72.77 30.19,63.75 C32.47,64.31 34.83,64.58 37.26,64.58 C39.68,64.58 42.04,64.31 44.26,63.75 C45.37,72.77 41.78,77.64 41.78,78.69 C41.78,79.94 42.6,80 42.6,80 C53.63,80 53.63,80 53.63,80 C53.63,79.66 53.63,79.66 53.63,79.66 C49.13,73.74 44.34,77.09 44.34,77.09 C47.53,71.88 48.5,66.53 48.64,62.44 C55.71,59.65 61.61,54.44 65.14,47.84 C74.1,60.7 64.05,66.31 64.05,66.31 C65.77,66.6 66.75,65.91 66.75,65.91 C66.88,67.36 65.08,69.38 65.08,69.38 C67.36,69.1 68.47,66.8 68.47,66.8 C68.83,67.93 67.78,70.55 67.78,70.55 C71.12,68.96 70.63,64.66 70.63,64.66 C71.74,64.94 73.34,67.02 73.34,67.02 C72.99,62.84 70.83,61.47 70.83,61.47 Z M58.83,31.67 C58.83,33.55 57.58,35.43 55.64,37.22 C55.85,37.77 55.85,38.33 55.64,38.9 C55.1,40.07 53.77,40.41 52.87,39.87 C52.66,39.65 52.45,39.65 52.25,39.44 C50.92,40.21 49.47,40.84 47.73,41.38 C47.53,44.23 46.76,46.87 45.99,48.95 C44.68,52.02 42.8,54.1 40.1,54.44 C40.1,54.44 40.1,54.44 39.55,54.44 C37.13,54.44 34.9,52.79 32.95,50.14 C31.43,50.91 29.76,51.25 28.24,51.25 C26.93,51.25 25.54,50.91 24.63,50.14 C23.11,48.75 22.55,46.87 22.55,44.59 C22.55,43.68 22.55,42.71 22.75,41.74 C22.55,41.74 22.34,41.74 22.13,41.52 C19.36,40.41 17.07,38.33 16.86,35.83 C16.65,35.63 16.65,35.43 16.65,35.28 C16.86,32.22 19.15,29.72 22.75,27.71 C24.28,26.87 25.94,26.12 27.82,25.35 C28.04,22.51 28.79,19.86 29.56,17.78 C30.87,14.72 32.75,12.64 35.45,12.22 C35.45,12.22 35.45,12.22 35.94,12.22 C38.44,12.22 40.72,13.95 42.6,16.81 C43.16,16.39 43.91,16.25 44.48,16.05 C44.48,15.83 44.48,15.69 44.68,15.48 C45.24,14.37 46.56,13.95 47.53,14.51 C48.09,14.72 48.5,15.28 48.64,15.69 C49.47,15.83 50.17,16.25 50.92,16.81 C52.45,17.99 53.22,20.07 53.22,22.29 C53.22,23.05 53,24.02 52.87,24.99 C53,24.99 53.22,25.21 53.42,25.21 C56.41,26.53 58.49,28.4 58.69,31.11 C58.83,31.25 58.83,31.45 58.83,31.67 Z M45.99,15.48 C45.87,15.48 45.45,15.69 45.45,16.05 C45.45,16.39 45.87,16.59 45.99,16.59 C46.42,16.59 46.76,16.39 46.76,16.05 C46.76,15.69 46.42,15.48 45.99,15.48 Z M43.37,18.19 L43.37,18.33 C44.34,19.66 45.1,21.6 45.65,23.48 C47.73,23.68 49.61,24.02 51.28,24.45 C51.28,23.68 51.48,22.91 51.48,22.29 C51.48,20.21 50.92,18.89 50.03,18.19 C49.47,17.78 49.06,17.56 48.5,17.36 C47.87,18.55 46.56,18.89 45.65,18.33 C45.24,18.19 45.1,17.99 44.88,17.56 C44.48,17.78 43.91,17.99 43.37,18.19 Z M42.05,19.1 C42.05,19.1 42.05,18.89 41.83,18.89 C39.97,20.07 37.67,21.6 35.45,23.68 C35.8,23.68 36.36,23.48 36.7,23.48 C38.44,23.26 40.1,23.26 41.83,23.26 C41.83,23.26 41.83,23.26 43.91,23.26 C43.37,21.74 42.6,20.21 42.05,19.1 Z M31.29,18.33 C30.52,20.21 29.9,22.29 29.56,24.99 C30.52,24.65 31.64,24.45 32.75,24.02 C35.45,21.18 38.3,18.89 41.07,17.56 C39.41,15.14 37.53,13.95 35.94,13.95 C35.94,13.95 35.94,13.95 35.59,13.95 C33.93,14.17 32.4,15.69 31.29,18.33 Z M29.35,26.73 L29.35,28.06 C29.56,27.86 29.76,27.5 30.12,27.29 C30.32,26.87 30.52,26.53 30.67,26.32 C30.32,26.53 29.9,26.53 29.35,26.73 Z M29.13,38.33 C29.13,37.91 28.93,37.57 28.59,37.57 C28.24,37.57 28.04,37.91 28.04,38.33 C28.04,38.48 28.24,38.9 28.59,38.9 C28.93,38.9 29.13,38.48 29.13,38.33 Z M28.24,36.6 C28.04,35.83 28.04,35.28 27.82,34.52 C27.82,34.52 27.82,34.52 27.82,33.41 C26.36,36.04 25.19,38.48 24.63,40.84 C26.16,41.18 27.68,41.52 29.35,41.74 C29.13,41.38 29.13,40.98 28.93,40.63 C28.79,40.41 28.59,40.41 28.38,40.21 C27.27,39.87 26.93,38.48 27.47,37.36 C27.68,37.02 27.82,36.8 28.24,36.6 Z M22.97,40.07 L23.11,40.21 C23.86,37.22 25.39,33.75 27.68,30.56 C27.68,30.56 27.68,30.56 27.68,29.37 C27.68,29.37 27.68,29.37 27.68,27.29 C26.16,27.86 24.83,28.4 23.52,29.17 C20.26,31.11 18.39,33.41 18.39,35.28 C18.39,35.28 18.39,35.28 18.39,35.63 C18.59,37.36 20.12,38.9 22.97,40.07 Z M28.24,49.58 C29.35,49.58 30.67,49.17 32.2,48.61 C31.29,47.08 30.52,45.34 29.9,43.48 C27.82,43.26 25.94,42.92 24.28,42.29 C24.28,43.06 24.08,43.82 24.08,44.59 C24.08,46.53 24.63,47.98 25.54,48.75 C26.36,49.38 27.27,49.58 28.24,49.58 Z M33.72,47.84 C35.8,46.87 37.88,45.14 40.1,43.06 C39.75,43.26 39.41,43.26 38.86,43.26 C37.13,43.48 35.45,43.68 33.72,43.68 C33.17,43.68 32.4,43.68 31.64,43.48 C32.2,45.14 32.95,46.53 33.51,47.84 C33.51,47.84 33.51,47.84 33.72,47.84 Z M44.48,48.41 C45.1,46.73 45.65,44.37 45.99,41.95 C45.1,42.09 43.91,42.49 42.8,42.71 C40.1,45.56 37.33,47.84 34.48,49.38 C36.16,51.6 38.09,52.99 39.55,52.99 C39.75,52.99 39.97,52.99 39.97,52.79 C41.69,52.79 43.16,51.05 44.48,48.41 Z M46.21,40.07 L46.21,38.68 C45.99,39.1 45.87,39.24 45.65,39.65 C45.24,39.87 45.1,40.21 44.88,40.41 C45.24,40.41 45.87,40.21 46.21,40.07 Z M44.34,38.48 C44.88,37.77 45.65,36.8 46.21,35.83 C46.21,34.72 46.21,33.55 45.99,32.44 C45.65,29.72 45.1,27.29 44.48,24.99 C43.57,24.99 42.8,24.79 41.83,24.79 C40.1,24.79 38.64,24.99 36.91,25.21 C35.8,25.35 34.69,25.56 33.51,25.76 C32.75,26.53 31.98,27.29 31.29,28.26 C30.67,29.17 29.9,30.14 29.35,30.91 C29.35,32.02 29.56,33.19 29.56,34.3 C29.76,35.07 29.76,35.63 29.9,36.39 C29.9,36.39 30.12,36.39 30.32,36.6 C31.29,37.02 31.84,38.33 31.29,39.44 C31.09,39.65 30.87,39.87 30.67,40.07 C30.67,40.63 30.87,41.38 31.09,41.95 C31.09,41.95 31.09,41.95 33.72,41.95 C35.45,41.95 37.13,41.95 38.64,41.74 C39.97,41.52 40.94,41.38 42.05,41.18 C42.8,40.41 43.57,39.44 44.34,38.48 Z M46.21,25.21 C46.76,27.29 47.32,29.72 47.73,32.22 C47.73,32.22 47.73,32.22 47.73,33.41 C49.26,30.91 50.37,28.4 50.92,26.12 C49.47,25.76 47.87,25.35 46.21,25.21 Z M53,38.13 C53.42,38.13 53.77,37.91 53.77,37.57 C53.77,37.22 53.42,36.8 53,36.8 C52.87,36.8 52.45,37.22 52.45,37.57 C52.45,37.91 52.87,38.13 53,38.13 Z M54.53,35.83 C56.27,34.52 57.18,32.99 57.18,31.67 C57.18,31.67 57.18,31.67 57.18,31.25 C57.04,29.59 55.44,27.86 52.66,26.73 C52.66,26.73 52.66,26.73 52.45,26.73 C51.69,29.72 50.17,32.99 47.87,36.39 C47.87,36.39 47.87,36.39 47.87,37.36 C47.87,37.36 47.87,37.36 47.87,39.44 C49.26,39.1 50.58,38.48 51.69,37.91 C51.69,37.57 51.69,37.22 51.91,37.02 C52.45,35.83 53.63,35.43 54.53,35.83 Z M39.35,29.04 C41.29,30.27 42.18,33.4 41.15,35.62 C40.04,38.12 37.33,38.89 35.31,37.72 C33.17,36.46 32.2,33.54 33.31,31.12 C34.55,28.82 37.13,27.78 39.35,29.04 Z M35.66,33.96 C36.22,33.96 36.77,33.4 36.77,32.77 C36.77,31.94 36.22,31.52 35.66,31.52 C35.17,31.52 34.55,31.94 34.55,32.77 C34.55,33.4 35.17,33.96 35.66,33.96 Z" fill="none" stroke="currentColor" stroke-width="1.5"/></svg>