<svg xmlns="http://www.w3.org/2000/svg" viewBox="0 0 81.16 76.22" width="24" height="24"><path d="M79.34,42.18 C78.9,41.25 78.1,40.69 78.1,40.69 C78.1,40.69 74.14,37.55 72.32,41.38 C70.52,45.19 65.07,47.14 65.07,47.14 C58.74,49.52 58.74,49.52 58.74,49.52 C58.74,49.45 58.74,49.45 58.67,49.45 C64.56,44.26 68.33,36.68 68.33,28.21 C68.33,12.66 55.73,0 40.26,0 C24.73,0 12.14,12.66 12.14,28.21 C12.14,36.68 15.84,44.19 21.73,49.33 C17.03,47.65 13.96,46.52 13.96,46.52 C13.96,46.52 14.09,42.06 10.9,40.69 C7.76,39.36 6.32,42.75 5.94,44.06 C5.94,44.06 0,44.38 0.25,47.89 C0.56,51.34 6.25,51.84 10.33,49.4 C23.8,54.48 23.8,54.48 23.8,54.48 C24.35,57.1 25.48,59.49 27.05,61.49 C17.41,65.07 17.41,65.07 17.41,65.07 C13.34,62.62 7.69,63.12 7.38,66.56 C7.14,70.08 13.09,70.39 13.09,70.39 C13.47,71.72 14.84,75.16 18.03,73.78 C21.16,72.39 21.11,67.95 21.11,67.95 C21.11,67.95 21.98,67.69 30.37,64.63 C33.12,66.69 36.56,67.89 40.33,67.89 C44.09,67.89 47.53,66.63 50.34,64.56 C60.8,67.07 60.8,67.07 60.8,67.07 C60.8,67.07 64.56,68.58 66.38,72.39 C68.13,76.22 72.14,73.03 72.14,73.03 C72.14,73.03 72.89,72.52 73.4,71.59 C74.4,69.58 75.22,66.2 72.14,66.69 C72.14,66.69 73.89,64.44 73.32,62.93 C72.76,61.49 69.95,60.55 68,61.42 C66,62.24 63.68,63.63 61.31,63.24 C60.68,63.12 59.67,63.32 53.79,61.18 C55.17,59.36 56.17,57.23 56.67,54.97 C61.88,53.09 65.56,51.78 66.2,51.65 C68.38,51.09 72.01,51.53 73.96,52.35 C75.96,53.15 78.72,52.35 79.28,50.84 C79.85,49.33 78.1,47.14 78.1,47.14 C81.16,47.52 80.34,44.26 79.34,42.18 Z M38.2,21.06 L38.2,16.43 C38.2,16.43 38.2,16.43 37.07,16.43 C37.07,16.43 37.07,16.43 37.07,15.36 C37.51,15.36 37.76,15.23 38.02,14.98 C38.13,14.79 38.26,14.54 38.33,14.04 C38.33,14.04 38.33,14.04 39.08,14.04 C39.08,14.04 39.08,14.04 39.08,21.06 C39.08,21.06 39.08,21.06 38.2,21.06 Z M30.44,25.13 C30.62,24.95 30.81,24.57 30.93,24.07 C30.93,24.07 30.93,24.07 32.06,24.07 C32.06,24.07 32.06,24.07 32.06,31.09 C32.06,31.09 32.06,31.09 30.75,31.09 C30.75,31.09 30.75,31.09 30.75,26.52 C30.75,26.52 30.75,26.52 29.05,26.52 C29.05,26.52 29.05,26.52 29.05,25.44 C29.62,25.44 30.11,25.33 30.44,25.13 Z M37.45,36.11 C37.69,35.85 37.82,35.6 37.95,35.11 C37.95,35.11 37.95,35.11 39.08,35.11 C39.08,35.11 39.08,35.11 39.08,42.12 C39.08,42.12 39.08,42.12 37.76,42.12 C37.76,42.12 37.76,42.12 37.76,37.55 C37.76,37.55 37.76,37.55 36.07,37.55 C36.07,37.55 36.07,37.55 36.07,36.48 C36.69,36.48 37.13,36.36 37.45,36.11 Z M48.48,31.53 C48.53,31.47 48.59,31.35 48.59,31.15 C48.59,30.91 48.53,30.71 48.35,30.58 C48.15,30.47 47.84,30.34 47.4,30.22 C47.4,30.22 47.4,30.22 47.4,32.09 C47.59,32.09 47.66,32.09 47.84,32.04 C47.97,31.97 48.09,31.97 48.22,31.84 C48.28,31.78 48.4,31.66 48.48,31.53 Z M46.84,28.65 L46.84,27.01 C46.65,27.01 46.53,27.08 46.47,27.08 C46.34,27.14 46.22,27.14 46.09,27.21 C46.03,27.27 45.96,27.39 45.91,27.45 C45.84,27.58 45.84,27.7 45.84,27.83 C45.84,28.08 45.91,28.21 46.03,28.34 C46.22,28.45 46.47,28.58 46.84,28.65 Z M50.1,30.65 C50.1,30.84 50.1,31.04 50.1,31.22 C50.1,31.35 50.1,31.53 50.03,31.71 C49.97,31.97 49.79,32.15 49.59,32.4 C49.35,32.6 49.1,32.84 48.72,32.97 C48.4,33.15 47.97,33.28 47.4,33.28 C47.4,33.28 47.4,33.28 47.4,34.1 C47.4,34.1 47.4,34.1 46.84,34.1 C46.84,34.1 46.84,34.1 46.84,33.28 C45.96,33.22 45.34,32.97 44.9,32.6 C44.47,32.15 44.21,31.59 44.08,30.78 C44.08,30.78 44.08,30.78 45.65,30.78 C45.65,31.15 45.78,31.47 45.96,31.71 C46.22,31.91 46.47,32.04 46.84,32.09 C46.84,32.09 46.84,32.09 46.84,30.02 C46.78,30.02 46.71,30.02 46.65,30.02 C46.58,30.02 46.53,29.96 46.47,29.96 C46.22,29.91 45.96,29.78 45.65,29.71 C45.4,29.65 45.14,29.52 44.96,29.34 C44.78,29.21 44.58,29.02 44.47,28.83 C44.4,28.58 44.27,28.34 44.27,28.01 C44.27,27.65 44.4,27.34 44.52,27.08 C44.65,26.83 44.83,26.64 45.09,26.45 C45.27,26.26 45.52,26.14 45.84,26.01 C46.15,25.95 46.47,25.88 46.84,25.83 C46.84,25.83 46.84,25.83 46.84,25.08 C46.84,25.08 46.84,25.08 47.4,25.08 C47.4,25.08 47.4,25.08 47.4,25.83 C47.78,25.88 48.02,25.95 48.35,26.01 C48.66,26.14 48.91,26.26 49.1,26.45 C49.28,26.64 49.48,26.83 49.59,27.08 C49.79,27.34 49.84,27.65 49.84,28.01 C49.84,28.01 49.84,28.01 48.35,28.01 C48.28,27.7 48.22,27.45 48.02,27.27 C47.84,27.14 47.66,27.01 47.4,27.01 C47.4,27.01 47.4,27.01 47.4,28.78 C47.53,28.78 47.59,28.83 47.66,28.83 C47.78,28.83 47.84,28.9 47.97,28.9 C48.53,29.02 48.91,29.21 49.22,29.4 C49.53,29.58 49.72,29.78 49.84,30.02 C49.97,30.22 50.03,30.47 50.1,30.65 Z M57.05,29.52 C57.11,28.9 57.18,28.28 57.18,27.58 C57.18,26.95 57.11,26.27 57.05,25.58 C57.05,25.38 56.98,25.2 56.92,25.01 C56.98,25.2 56.98,25.38 57.05,25.58 C57.05,25.64 57.05,25.64 57.05,25.71 C56.8,26.02 56.61,26.71 56.61,27.58 C56.61,28.52 56.8,29.15 57.05,29.52 Z M56.61,31.59 C56.74,31.41 56.8,31.16 56.85,30.9 C56.49,30.77 56.23,30.52 55.98,30.28 C55.8,31.47 55.36,32.65 54.67,33.72 C54.67,33.72 54.67,33.72 55.54,34.6 C56.05,33.6 56.36,32.65 56.61,31.59 Z M37.82,29.97 C37.7,28.46 37.88,26.89 38.45,25.45 C38.32,25.38 38.13,25.25 37.88,25.25 C37.13,25.25 36.75,26.02 36.75,27.58 C36.75,29.08 37.08,29.9 37.82,29.97 Z M46.9,20 C49.22,20 51.6,20.88 53.41,22.63 C54.41,23.57 55.1,24.7 55.48,25.89 C55.61,25.58 55.74,25.33 55.92,25.07 C56.18,24.7 56.49,24.51 56.85,24.38 C56.74,23.81 56.61,23.32 56.42,22.81 C56.11,21.81 55.67,20.88 55.23,19.93 C54.92,19.44 54.67,19.06 54.41,18.55 C53.92,17.93 53.41,17.24 52.79,16.61 C52.79,16.61 52.79,16.61 52.79,20.62 C52.79,20.62 52.79,20.62 51.42,20.62 C51.42,20.62 51.42,20.62 51.42,16.18 C51.42,16.18 51.42,16.18 49.65,16.18 C49.65,16.18 49.65,16.18 49.65,15.17 C50.22,15.17 50.6,15.05 50.91,14.92 C48.16,12.79 44.64,11.53 40.89,11.53 C37.82,11.53 34.94,12.28 32.5,13.72 C33.19,13.85 33.81,14.17 34.13,14.74 C34.56,15.29 34.82,16.18 34.82,17.24 C34.82,18.31 34.56,19.11 34.2,19.68 C33.69,20.37 33.12,20.68 32.25,20.68 C31.37,20.68 30.75,20.44 30.31,19.75 C29.88,19.11 29.62,18.31 29.62,17.24 C29.62,16.67 29.62,16.23 29.81,15.8 C28.87,16.61 28.05,17.55 27.31,18.55 C27.05,18.99 26.8,19.44 26.54,19.88 C26.54,19.88 26.54,19.88 26.54,19.88 C26.54,19.88 26.54,19.88 26.54,19.93 C26.54,19.93 26.54,19.93 26.54,19.93 C26.54,20 26.49,20 26.49,20.06 C26.49,20 26.54,19.93 26.54,19.93 C26.54,19.88 26.54,19.88 26.54,19.88 C26.54,19.88 26.54,19.88 26.54,20.62 C26.54,20.62 26.54,20.62 26.18,20.62 C25.87,21.32 25.54,22.06 25.3,22.81 C25.23,23.25 25.05,23.69 24.98,24.14 C24.98,24.14 24.98,24.14 24.98,24.14 C25.87,24.14 26.49,24.45 26.98,25.14 C27.43,25.71 27.62,26.51 27.62,27.58 C27.62,28.64 27.43,29.52 26.98,30.08 C26.54,30.77 25.87,31.08 24.98,31.08 C24.98,31.08 24.98,31.08 24.98,31.08 C24.92,30.9 24.86,30.72 24.86,30.59 C24.92,30.77 24.92,30.9 24.98,31.08 C24.98,31.08 24.98,31.08 24.98,31.08 C24.98,31.28 25.05,31.47 25.1,31.59 C25.36,32.72 25.74,33.72 26.18,34.67 C26.18,34.67 26.18,34.67 26.74,34.67 C26.74,34.67 26.74,34.67 26.74,35.67 C26.98,36.04 27.18,36.35 27.31,36.6 C27.74,37.24 28.24,37.86 28.8,38.43 C28.99,38.61 29.18,38.81 29.37,38.99 C29.42,39.17 29.62,39.3 29.75,39.43 C29.88,39.56 30.06,39.68 30.19,39.74 C29.93,39.56 29.75,39.43 29.55,39.17 C29.42,38.81 29.42,38.43 29.42,37.99 C29.42,36.92 29.62,36.11 30.06,35.48 C30.55,34.85 31.19,34.54 32.06,34.54 C32.87,34.54 33.5,34.85 33.94,35.48 C34.38,36.11 34.63,36.92 34.63,37.99 C34.63,39.05 34.44,39.87 34,40.49 C33.63,41.05 33.12,41.31 32.5,41.43 C32.94,41.69 33.38,41.94 33.81,42.18 C34.31,42.38 34.82,42.62 35.25,42.75 C36,43 36.82,43.25 37.57,43.38 C38.13,43.51 38.64,43.56 39.19,43.69 C39.76,43.69 40.32,43.69 40.89,43.69 C41.45,43.69 41.96,43.69 42.53,43.69 C43.09,43.56 43.64,43.51 44.15,43.38 C44.97,43.25 45.72,43 46.46,42.75 C46.97,42.62 47.47,42.38 47.9,42.18 C48.72,41.74 49.47,41.31 50.22,40.81 C50.16,40.74 50.09,40.61 49.96,40.49 C49.53,39.87 49.34,39.05 49.34,37.99 C49.34,37.99 49.34,37.99 49.34,37.68 C48.65,37.86 47.9,37.92 47.16,37.92 C47.16,37.92 47.16,37.92 47.16,37.99 C47.16,39.05 46.97,39.87 46.52,40.49 C46.08,41.12 45.4,41.43 44.59,41.43 C43.71,41.43 43.02,41.18 42.64,40.49 C42.2,39.87 41.96,39.05 41.96,37.99 C41.96,37.48 42.02,37.04 42.09,36.6 C41.52,36.29 40.96,35.86 40.45,35.35 C39.19,34.16 38.39,32.65 38.01,31.08 C38.01,31.08 38.01,31.08 37.88,31.08 C37.08,31.08 36.44,30.77 36,30.08 C35.57,29.52 35.31,28.71 35.31,27.58 C35.31,26.51 35.57,25.71 36,25.07 C36.44,24.45 37.08,24.14 37.88,24.14 C38.32,24.14 38.7,24.2 39.08,24.38 C39.45,23.76 39.89,23.19 40.45,22.63 C41.52,21.63 42.71,20.88 43.96,20.44 C43.64,20.31 43.4,20.06 43.2,19.75 C42.77,19.11 42.53,18.31 42.53,17.24 C42.53,16.18 42.77,15.29 43.2,14.74 C43.64,14.1 44.28,13.72 45.15,13.72 C45.97,13.72 46.59,14.1 47.03,14.74 C47.47,15.29 47.72,16.18 47.72,17.24 C47.72,18.31 47.52,19.11 47.08,19.68 C47.03,19.75 46.97,19.88 46.84,20 C46.84,20 46.84,20 46.9,20 Z M43.96,17.24 C43.96,18.8 44.33,19.62 45.15,19.62 C45.9,19.62 46.28,18.8 46.28,17.24 C46.28,15.67 45.9,14.92 45.15,14.92 C44.33,14.92 43.96,15.67 43.96,17.24 Z M45.72,37.86 C44.97,37.8 44.15,37.55 43.4,37.24 C43.4,37.48 43.4,37.73 43.4,37.99 C43.4,39.56 43.71,40.37 44.59,40.37 C45.33,40.37 45.72,39.56 45.72,37.99 C45.72,37.99 45.72,37.99 45.72,37.86 Z M51.35,33.29 C53.73,30.84 53.73,27.02 51.35,24.7 C50.09,23.5 48.52,22.81 46.9,22.81 C45.28,22.81 43.71,23.5 42.53,24.7 C41.33,25.76 40.65,27.33 40.65,28.95 C40.65,30.59 41.33,32.16 42.53,33.29 C43.71,34.35 45.28,35.11 46.9,35.11 C48.52,35.11 50.09,34.35 51.35,33.29 Z M30.86,37.99 C30.86,39.56 31.25,40.37 32.06,40.37 C32.81,40.37 33.19,39.56 33.19,37.99 C33.19,36.42 32.81,35.67 32.06,35.67 C31.25,35.67 30.86,36.42 30.86,37.99 Z M24.54,27.58 C24.54,28.46 24.61,29.15 24.79,29.9 C24.79,29.97 24.92,29.97 24.98,29.97 C25.8,29.97 26.18,29.15 26.18,27.58 C26.18,26.02 25.8,25.25 24.98,25.25 C24.92,25.25 24.79,25.25 24.79,25.33 C24.61,26.02 24.54,26.82 24.54,27.58 Z M32.25,14.92 C31.43,14.92 31.06,15.67 31.06,17.24 C31.06,18.8 31.43,19.62 32.25,19.62 C33,19.62 33.38,18.8 33.38,17.24 C33.38,15.67 33,14.92 32.25,14.92 Z M61.55,40.61 C62.12,41.12 62.12,42.05 61.55,42.69 C61.55,42.69 61.5,42.75 60.81,43.38 C60.24,44 59.3,44 58.75,43.38 C58.75,43.38 58.75,43.38 52.22,37.11 C52.1,36.92 51.97,36.79 51.79,36.6 C51.48,36.79 51.09,36.99 50.85,37.11 C50.78,37.35 50.78,37.68 50.78,37.99 C50.78,38.99 50.91,39.68 51.22,40.05 C51.53,39.74 51.91,39.43 52.22,39.17 C52.92,39.74 53.48,40.37 53.97,40.87 C50.6,44.13 46.03,46.13 40.89,46.13 C30.5,46.13 22.04,37.86 22.04,27.58 C22.04,22.63 24.05,17.98 27.62,14.48 C31.19,10.97 35.82,9.02 40.89,9.02 C51.22,9.02 59.68,17.36 59.68,27.58 C59.68,30.84 58.86,33.85 57.42,36.42 C58.36,37.42 59.75,38.74 61.55,40.61 Z" fill="none" stroke="currentColor" stroke-width="1.5"/></svg>