<svg xmlns="http://www.w3.org/2000/svg" viewBox="0 0 78.04 80.0" width="24" height="24"><path d="M66.77,40.11 C66.82,39.58 66.82,39.05 66.82,38.52 C66.82,37.53 66.77,36.52 66.65,35.53 C71.46,32.47 78.04,34.06 78.04,34.06 C73.75,29.29 67.81,30.35 65.71,30.88 C65.41,29.94 65.06,29 64.65,28.11 C67.47,26.53 71.69,27.17 71.69,27.17 C69.76,23.94 64.36,24.11 62.65,24.3 C62.24,23.59 61.77,23 61.29,22.41 C63.71,21.17 68.34,17.53 66.58,8.24 C66.58,8.24 66.05,15.64 57.24,18.18 C56.25,17.41 55.31,16.7 54.18,16 C56.01,13 58.23,6.82 53.31,0 C53.31,0 55.31,7.76 48.07,13.23 C46.66,12.77 45.2,12.47 43.66,12.24 C43.32,10.77 42.72,6.94 45.01,3.06 C45.01,3.06 39.2,4.41 39.26,12 C38.32,12 37.32,12.05 36.38,12.24 C34.73,0.99 23.69,2.89 23.69,2.89 C30.15,5.64 30.51,11.53 30.44,13.71 C28.32,14.47 26.39,15.53 24.56,16.76 C23.39,15.88 20.75,13.23 21.63,7.88 C21.63,7.88 17.05,13.71 21.34,19.41 C20.45,20.23 19.63,21.12 18.86,22.06 C17.1,20.76 11.7,17.59 6.99,23.06 C6.99,23.06 14.28,20.23 16.4,25.7 C15.63,27.12 14.98,28.64 14.45,30.18 C12.11,31.29 4.65,34.11 2.29,26.23 C2.29,26.23 0,36.59 13.29,35.36 C13.22,35.89 13.17,36.4 13.1,36.88 C10.93,36.71 2.89,36.52 1.59,44.29 C1.59,44.29 3.93,38.18 13.29,41.58 C13.46,43.24 13.82,44.82 14.28,46.41 C13.29,47.46 10.4,49.65 5.18,46.71 C4.99,46.52 6.65,52.59 16.16,50.88 C16.33,51.17 16.52,51.53 16.69,51.82 C15.29,53.12 12.11,56.65 13.41,62.29 C13.41,62.29 14.16,57.53 19.27,55.53 C20.22,56.58 21.22,57.64 22.33,58.58 C22.16,60.53 21.16,64.65 15.99,65.83 C15.99,65.83 23.16,67.52 26.34,61.41 C26.63,61.59 26.97,61.82 27.33,62 C23.63,72.24 29.57,78.75 29.57,78.75 C28.15,68.87 31.67,65.18 32.91,64.17 C33.62,64.36 34.26,64.46 34.97,64.65 C35.44,65.35 36.38,67.06 36.09,69.06 C35.67,71.76 34.2,76.65 35.91,80 C35.91,80 36.5,75.23 37.68,73.76 C38.84,72.29 39.97,70.41 39.97,68.53 C39.97,67.3 39.85,66 39.68,65.11 C39.78,65.11 39.85,65.11 39.97,65.11 C40.72,65.11 41.49,65.06 42.26,64.99 C42.67,65.88 42.79,66.7 42.91,67.71 C43.08,68.99 42.67,70.12 42.14,73.11 C41.61,76.17 43.49,78.46 43.49,78.46 C43.25,77.23 43.13,76.41 43.32,74.7 C43.49,73.06 45.66,70.94 46.55,68.58 C47.19,66.77 46.66,65.11 46.37,64.36 C46.84,64.17 47.37,64.05 47.84,63.94 C51.66,68.53 49.6,75.18 49.6,75.18 C53.89,70.77 52.3,64.05 51.84,62.35 C52.37,62.12 52.9,61.82 53.36,61.52 C58.18,65.41 56.88,72.94 56.88,72.94 C61,64.58 57.94,60.12 57,59.06 C57.41,58.76 57.7,58.47 58.06,58.17 C60.47,65.41 66.41,61.76 66.41,61.76 C62.12,61.35 61.71,55.76 61.71,54.11 C62.29,53.35 62.88,52.47 63.35,51.58 C68.34,51.7 69.11,55.64 69.11,55.64 C70.58,49.94 66.77,48.41 65.06,48.06 C65.35,47.29 65.59,46.52 65.83,45.7 C74.63,46.59 75.87,39.46 75.87,39.46 C72.29,42.88 68.41,41.12 66.77,40.11 Z M56.89,43.41 L52.42,43.41 C52.42,44.81 52.18,46.06 51.77,47.29 C51.77,47.29 51.77,47.29 56.3,49.05 C56.89,49.41 57.18,50.18 56.89,50.82 C56.77,51.17 56.3,51.53 55.71,51.53 C55.65,51.53 55.36,51.47 55.24,51.47 C55.24,51.47 55.24,51.47 51.02,49.7 C49.07,53.58 45.6,56.06 41.37,57.41 C41.37,57.41 41.37,57.41 41.37,34.3 C44.49,34.3 47.14,33.53 49.31,32.42 C49.48,32.23 49.72,32.18 49.96,32 C50.49,32.88 50.9,33.77 51.12,34.64 C51.12,34.64 51.12,34.64 55.24,33.05 C55.89,32.76 56.65,33.05 56.89,33.65 C57.18,34.3 56.89,35 56.3,35.29 C56.3,35.29 56.3,35.29 51.95,37.17 C52.18,38.3 52.42,39.53 52.42,40.93 C52.42,40.93 52.42,40.93 57.01,40.93 C57.65,40.93 58.3,41.41 58.3,42.18 C58.18,42.83 57.65,43.41 56.89,43.41 Z M49.31,30.82 C49.19,30.94 49.07,31.06 48.84,31.17 C46.84,32.23 44.08,32.94 41.09,32.94 C38.08,32.94 35.32,32.23 33.32,31.17 C33.09,31.06 32.91,30.94 32.79,30.82 C33.44,29.76 34.21,28.88 35.09,28.12 C35.09,28.12 35.09,28.12 31.68,24 C31.56,24.12 31.44,24.12 31.32,24.12 C30.04,24.12 29.15,23.11 29.15,21.94 C29.15,20.7 30.04,19.76 31.32,19.76 C32.44,19.76 33.44,20.7 33.44,21.94 C33.44,22.24 33.32,22.58 33.2,22.88 C33.2,22.88 33.2,22.88 36.68,26.94 C38.08,26.17 39.55,25.82 41.09,25.82 C42.54,25.82 43.96,26.17 45.19,26.82 C45.19,26.82 45.19,26.82 48.54,22.88 C48.48,22.58 48.48,22.24 48.48,21.94 C48.48,20.7 49.31,19.76 50.6,19.76 C51.66,19.76 52.65,20.7 52.65,21.94 C52.65,23.11 51.66,24.12 50.6,24.12 C50.48,24.12 50.31,24.12 50.19,24 C50.19,24 50.19,24 46.84,28 C47.84,28.76 48.72,29.65 49.31,30.82 Z M31.44,32 C31.68,32.18 31.97,32.23 32.09,32.42 C34.15,33.53 36.68,34.3 39.5,34.3 C39.5,34.3 39.5,34.3 39.5,57.41 C35.44,55.94 32.21,53.58 30.5,49.58 C30.5,49.58 30.5,49.58 26.26,51.47 C26.16,51.47 26.04,51.53 25.92,51.53 C25.44,51.53 24.98,51.17 24.74,50.82 C24.5,50.18 24.74,49.41 25.44,49.05 C25.44,49.05 25.44,49.05 29.62,47.17 C29.44,46.06 29.15,44.81 29.15,43.41 C29.15,43.41 29.15,43.41 24.74,43.41 C24.04,43.41 23.51,42.83 23.51,42.18 C23.51,41.41 24.04,40.93 24.74,40.93 C24.74,40.93 24.74,40.93 29.15,40.93 C29.15,39.65 29.44,38.4 29.62,37.17 C29.62,37.17 29.62,37.17 25.44,35.29 C24.86,35 24.5,34.3 24.74,33.65 C24.98,33.05 25.68,32.76 26.26,33.05 C26.26,33.05 26.26,33.05 30.27,34.76 C30.62,33.77 30.97,32.88 31.44,32 Z" fill="none" stroke="currentColor" stroke-width="1.5"/></svg>