<svg xmlns="http://www.w3.org/2000/svg" viewBox="0 0 49.19 80.0" width="24" height="24"><path d="M42.54,36.48 C43.04,36.93 43.04,37.74 42.54,38.3 C42.54,38.3 42.49,38.35 41.88,38.91 C41.39,39.45 40.62,39.45 40.13,38.91 C40.13,38.91 40.13,38.91 34.58,33.41 C34.42,33.24 34.31,33.13 34.14,32.97 C33.93,33.13 33.66,33.3 33.37,33.41 C33.32,33.62 33.32,33.91 33.32,34.23 C33.32,35.06 33.48,35.66 33.7,35.99 C34.04,35.76 34.31,35.44 34.58,35.22 C35.13,35.76 35.62,36.26 36.07,36.7 C33.21,39.61 29.26,41.32 24.87,41.32 C16.03,41.32 8.78,34.07 8.78,25.06 C8.78,20.77 10.49,16.71 13.51,13.58 C16.58,10.54 20.59,8.79 24.87,8.79 C33.7,8.79 40.89,16.1 40.89,25.06 C40.89,27.92 40.24,30.55 38.98,32.81 C39.85,33.68 40.96,34.88 42.54,36.48 Z M17.51,13.96 C16.8,13.96 16.47,14.62 16.47,15.99 C16.47,17.36 16.8,18.08 17.51,18.08 C18.18,18.08 18.5,17.36 18.5,15.99 C18.5,14.62 18.18,13.96 17.51,13.96 Z M10.92,25.06 C10.92,25.83 10.97,26.43 11.15,27.09 C11.15,27.14 11.26,27.14 11.31,27.14 C12.02,27.14 12.35,26.43 12.35,25.06 C12.35,23.74 12.02,23.02 11.31,23.02 C11.26,23.02 11.15,23.02 11.15,23.08 C10.97,23.74 10.92,24.39 10.92,25.06 Z M16.31,34.23 C16.31,35.55 16.63,36.26 17.35,36.26 C18,36.26 18.34,35.55 18.34,34.23 C18.34,32.81 18,32.14 17.35,32.14 C16.63,32.14 16.31,32.81 16.31,34.23 Z M33.82,30.06 C35.85,27.97 35.85,24.61 33.82,22.52 C32.78,21.48 31.45,20.94 30.03,20.94 C28.59,20.94 27.28,21.48 26.29,22.52 C25.25,23.46 24.7,24.84 24.7,26.32 C24.7,27.69 25.25,29.07 26.29,30.06 C27.28,31.05 28.59,31.64 30.03,31.64 C31.45,31.64 32.78,31.05 33.82,30.06 Z M28.98,34.12 C28.32,34.01 27.67,33.8 27.01,33.51 C27.01,33.73 27.01,33.96 27.01,34.23 C27.01,35.55 27.33,36.26 28,36.26 C28.71,36.26 28.98,35.55 28.98,34.23 C28.98,34.23 28.98,34.23 28.98,34.12 Z M27.51,15.99 C27.51,17.36 27.83,18.08 28.5,18.08 C29.2,18.08 29.47,17.36 29.47,15.99 C29.47,14.62 29.2,13.96 28.5,13.96 C27.83,13.96 27.51,14.62 27.51,15.99 Z M30.03,18.4 C32,18.4 34.04,19.18 35.57,20.72 C36.39,21.53 37,22.52 37.38,23.57 C37.44,23.3 37.54,23.08 37.71,22.86 C37.94,22.58 38.15,22.36 38.48,22.25 C38.37,21.82 38.32,21.32 38.15,20.88 C37.87,20 37.54,19.18 37.11,18.35 C36.89,17.97 36.67,17.59 36.39,17.14 C36.01,16.6 35.57,15.99 35.08,15.44 C35.08,15.44 35.08,15.44 35.08,18.96 C35.08,18.96 35.08,18.96 33.87,18.96 C33.87,18.96 33.87,18.96 33.87,15.06 C33.87,15.06 33.87,15.06 32.39,15.06 C32.39,15.06 32.39,15.06 32.39,14.17 C32.83,14.17 33.21,14.12 33.43,13.96 C31.07,12.09 28.1,10.99 24.87,10.99 C22.23,10.99 19.82,11.71 17.68,12.97 C18.34,13.02 18.83,13.29 19.15,13.79 C19.49,14.28 19.71,15.06 19.71,15.99 C19.71,16.92 19.49,17.63 19.15,18.13 C18.77,18.74 18.22,19.01 17.51,19.01 C16.74,19.01 16.2,18.79 15.81,18.19 C15.48,17.63 15.25,16.92 15.25,15.99 C15.25,15.54 15.25,15.11 15.37,14.73 C14.6,15.44 13.94,16.32 13.34,17.14 C13.06,17.59 12.84,17.91 12.68,18.29 C12.68,18.29 12.68,18.29 12.68,18.29 C12.68,18.29 12.68,18.29 12.63,18.35 C12.63,18.35 12.63,18.35 12.63,18.35 C12.63,18.4 12.57,18.4 12.57,18.51 C12.63,18.4 12.63,18.35 12.63,18.35 C12.68,18.29 12.68,18.29 12.68,18.29 C12.68,18.29 12.68,18.29 12.68,18.96 C12.68,18.96 12.68,18.96 12.35,18.96 C12.02,19.56 11.8,20.22 11.53,20.88 C11.47,21.26 11.36,21.71 11.26,22.03 C11.26,22.03 11.26,22.03 11.31,22.03 C12.02,22.03 12.57,22.31 13.01,22.91 C13.34,23.4 13.51,24.12 13.51,25.06 C13.51,25.99 13.34,26.75 13.01,27.25 C12.63,27.86 12.02,28.13 11.31,28.13 C11.31,28.13 11.31,28.13 11.26,28.13 C11.26,28.02 11.2,27.86 11.2,27.69 C11.26,27.86 11.26,27.97 11.26,28.13 C11.26,28.13 11.26,28.13 11.26,28.13 C11.31,28.3 11.36,28.46 11.42,28.62 C11.64,29.56 11.96,30.44 12.35,31.32 C12.35,31.32 12.35,31.32 12.84,31.32 C12.84,31.32 12.84,31.32 12.84,32.2 C13.01,32.47 13.18,32.74 13.34,32.97 C13.72,33.51 14.1,34.12 14.55,34.61 C14.71,34.79 14.87,34.88 15.04,35.06 C15.09,35.22 15.25,35.33 15.37,35.44 C15.48,35.55 15.59,35.66 15.75,35.76 C15.54,35.55 15.37,35.44 15.21,35.28 C15.09,34.88 15.09,34.61 15.09,34.23 C15.09,33.24 15.25,32.53 15.65,31.98 C16.08,31.43 16.58,31.16 17.35,31.16 C18.06,31.16 18.61,31.43 18.94,31.98 C19.33,32.53 19.54,33.24 19.54,34.23 C19.54,35.11 19.38,35.82 19.05,36.37 C18.66,36.86 18.27,37.09 17.68,37.2 C18.06,37.42 18.45,37.63 18.83,37.85 C19.26,38.03 19.65,38.24 20.09,38.35 C20.7,38.57 21.4,38.79 22.07,38.91 C22.56,39 23,39.12 23.43,39.18 C23.93,39.23 24.37,39.23 24.87,39.23 C25.36,39.23 25.8,39.23 26.29,39.18 C26.74,39.12 27.23,39 27.67,38.91 C28.32,38.79 28.98,38.57 29.65,38.35 C30.08,38.24 30.46,38.03 30.85,37.85 C31.56,37.47 32.22,37.09 32.83,36.65 C32.83,36.59 32.71,36.48 32.67,36.43 C32.28,35.87 32.11,35.11 32.11,34.23 C32.11,34.23 32.11,34.23 32.11,33.91 C31.51,34.07 30.85,34.12 30.24,34.12 C30.24,34.12 30.24,34.12 30.24,34.23 C30.24,35.11 30.08,35.82 29.7,36.37 C29.31,36.93 28.77,37.2 28,37.2 C27.28,37.2 26.74,36.98 26.35,36.43 C25.96,35.87 25.75,35.11 25.75,34.23 C25.75,33.73 25.86,33.35 25.91,32.97 C25.41,32.69 24.92,32.31 24.49,31.93 C23.43,30.83 22.73,29.5 22.46,28.13 C22.46,28.13 22.46,28.13 22.35,28.13 C21.63,28.13 21.08,27.86 20.7,27.25 C20.32,26.75 20.09,26.05 20.09,25.06 C20.09,24.12 20.32,23.4 20.7,22.86 C21.08,22.31 21.63,22.03 22.35,22.03 C22.67,22.03 23,22.09 23.34,22.25 C23.66,21.71 24.04,21.21 24.49,20.72 C25.41,19.84 26.4,19.18 27.51,18.79 C27.23,18.69 27.01,18.51 26.84,18.19 C26.45,17.63 26.24,16.92 26.24,15.99 C26.24,15.06 26.45,14.28 26.84,13.79 C27.23,13.24 27.78,12.97 28.5,12.97 C29.2,12.97 29.76,13.24 30.14,13.79 C30.52,14.28 30.73,15.06 30.73,15.99 C30.73,16.92 30.57,17.63 30.19,18.13 C30.14,18.24 30.08,18.29 29.97,18.4 C29.97,18.4 29.97,18.4 30.03,18.4 Z M22.23,27.14 C22.12,25.83 22.35,24.45 22.84,23.19 C22.67,23.13 22.56,23.02 22.35,23.02 C21.68,23.02 21.36,23.74 21.36,25.06 C21.36,26.43 21.63,27.09 22.23,27.14 Z M38.37,28.62 C38.37,28.4 38.48,28.19 38.48,27.97 C38.21,27.86 37.99,27.63 37.76,27.42 C37.6,28.46 37.27,29.5 36.67,30.44 C36.67,30.44 36.67,30.44 37.38,31.21 C37.83,30.38 38.1,29.5 38.37,28.62 Z M38.64,26.82 C38.75,26.21 38.82,25.65 38.82,25.06 C38.82,24.5 38.75,23.9 38.64,23.35 C38.64,23.19 38.64,22.97 38.59,22.86 C38.59,22.97 38.64,23.13 38.64,23.35 C38.64,23.35 38.64,23.35 38.64,23.4 C38.48,23.74 38.37,24.28 38.37,25.06 C38.37,25.88 38.48,26.43 38.64,26.82 Z M32.5,27.42 C32.5,27.64 32.5,27.8 32.5,27.96 C32.5,28.13 32.5,28.29 32.44,28.52 C32.39,28.68 32.23,28.95 32.05,29.12 C31.89,29.33 31.62,29.51 31.35,29.67 C31.01,29.83 30.63,29.94 30.13,30 C30.13,30 30.13,30 30.13,30.77 C30.13,30.77 30.13,30.77 29.64,30.77 C29.64,30.77 29.64,30.77 29.64,30 C28.93,29.89 28.33,29.67 27.94,29.28 C27.56,28.9 27.34,28.36 27.23,27.58 C27.23,27.58 27.23,27.58 28.6,27.58 C28.6,27.96 28.71,28.25 28.87,28.46 C29.1,28.68 29.32,28.79 29.64,28.85 C29.64,28.85 29.64,28.85 29.64,26.81 C29.59,26.81 29.53,26.81 29.48,26.76 C29.42,26.76 29.37,26.76 29.32,26.76 C29.1,26.7 28.87,26.59 28.6,26.54 C28.38,26.43 28.16,26.31 27.99,26.15 C27.83,26.04 27.66,25.82 27.56,25.61 C27.5,25.39 27.39,25.16 27.39,24.83 C27.39,24.51 27.5,24.17 27.61,23.95 C27.72,23.68 27.88,23.46 28.11,23.3 C28.27,23.13 28.54,23.02 28.76,22.91 C29.03,22.8 29.32,22.75 29.64,22.75 C29.64,22.75 29.64,22.75 29.64,21.98 C29.64,21.98 29.64,21.98 30.13,21.98 C30.13,21.98 30.13,21.98 30.13,22.75 C30.47,22.8 30.68,22.86 30.96,22.96 C31.24,23.02 31.46,23.13 31.62,23.3 C31.84,23.46 31.95,23.68 32.05,23.95 C32.23,24.17 32.28,24.51 32.28,24.83 C32.28,24.83 32.28,24.83 30.96,24.83 C30.9,24.56 30.85,24.33 30.68,24.17 C30.58,23.95 30.36,23.84 30.13,23.84 C30.13,23.84 30.13,23.84 30.13,25.61 C30.25,25.61 30.3,25.61 30.36,25.66 C30.47,25.66 30.52,25.71 30.63,25.71 C31.12,25.88 31.46,26.04 31.73,26.2 C32,26.38 32.16,26.59 32.28,26.81 C32.39,26.98 32.44,27.19 32.5,27.42 Z M29.64,25.5 L29.64,23.84 C29.48,23.84 29.37,23.9 29.32,23.95 C29.21,23.95 29.1,24.01 28.98,24.12 C28.93,24.17 28.87,24.24 28.82,24.33 C28.76,24.4 28.76,24.56 28.76,24.67 C28.76,24.89 28.82,25.05 28.93,25.16 C29.1,25.32 29.32,25.39 29.64,25.5 Z M31.08,28.29 C31.12,28.18 31.17,28.07 31.17,27.91 C31.17,27.64 31.12,27.48 30.96,27.3 C30.79,27.19 30.52,27.08 30.13,26.98 C30.13,26.98 30.13,26.98 30.13,28.85 C30.3,28.85 30.36,28.79 30.52,28.79 C30.63,28.74 30.74,28.68 30.85,28.63 C30.96,28.52 31.01,28.41 31.08,28.29 Z M21.35,31.59 C21.57,31.43 21.69,31.16 21.85,30.77 C21.85,30.77 21.85,30.77 22.84,30.77 C22.84,30.77 22.84,30.77 22.84,36.92 C22.84,36.92 22.84,36.92 21.69,36.92 C21.69,36.92 21.69,36.92 21.69,32.85 C21.69,32.85 21.69,32.85 20.2,32.85 C20.2,32.85 20.2,32.85 20.2,31.92 C20.75,31.92 21.08,31.81 21.35,31.59 Z M16.14,22.75 C16.35,22.59 16.53,22.37 16.58,21.98 C16.58,21.98 16.58,21.98 17.57,21.98 C17.57,21.98 17.57,21.98 17.57,27.25 C17.57,27.25 17.57,27.25 16.42,27.25 C16.42,27.25 16.42,27.25 16.42,23.79 C16.42,23.79 16.42,23.79 14.93,23.79 C14.93,23.79 14.93,23.79 14.93,22.97 C15.48,22.97 15.86,22.91 16.14,22.75 Z M22.56,18.46 L22.56,14.39 C22.56,14.39 22.56,14.39 21.08,14.39 C21.08,14.39 21.08,14.39 21.08,13.51 C21.62,13.51 22.01,13.4 22.29,13.13 C22.5,12.97 22.68,12.75 22.79,12.31 C22.79,12.31 22.79,12.31 23.71,12.31 C23.71,12.31 23.71,12.31 23.71,18.46 C23.71,18.46 23.71,18.46 22.56,18.46 Z M16.24,36.43 L16.69,36.92 C16.35,36.59 16.03,36.21 15.81,36.04 C15.92,36.21 16.03,36.43 16.24,36.43 Z M33.15,36.32 C33.21,36.32 33.33,36.16 33.38,36.04 C33.1,36.38 32.88,36.65 32.5,36.92 C32.77,36.7 32.99,36.48 33.15,36.32 Z M42.32,47.03 C44.35,49.34 46.6,50.55 46.6,50.55 C43.64,46.59 43.81,42.04 44.14,39.61 C47.32,35.44 49.19,30.28 49.19,24.67 C49.19,11.04 38.15,0 24.59,0 C11.04,0 0,11.04 0,24.67 C0,30.11 1.76,35.11 4.73,39.18 C1.15,42.26 1.37,48.84 1.37,48.84 C2.36,44.89 3.74,44.23 4.73,43.73 C4.94,43.68 5.21,43.52 5.54,43.41 C5.38,44.78 5.38,46.27 5.88,47.58 C7.14,50.93 9.11,52.42 8.79,55 C8.51,57.64 5.88,59.62 5.7,62.64 C5.59,65.66 7.14,67.48 7.68,68.18 C8.18,68.85 6.31,65.32 7.3,62.75 C8.29,60.11 10.37,61.1 12.13,57.8 C12.51,57.08 12.89,56.38 13.18,55.66 C13.83,57.86 14.11,59.4 14,61.54 C13.88,64.56 12.57,67.42 11.09,68.57 C11.09,68.57 16.25,66.98 17.51,60.93 C18.5,56.27 17.29,53.68 18.28,50.93 C19.54,52.53 21.25,55.12 21.02,57.8 C20.64,62.08 17.57,67.64 18.55,71.6 C19.49,75.55 20.53,77.41 20.53,77.41 C20.53,77.41 20.1,71.92 22.01,68.9 C22.83,67.69 23.88,66.31 24.81,64.89 C26.18,69.4 30.47,73.02 31.68,74.28 C33.15,75.88 32.77,80 32.77,80 C32.77,80 33.82,78.52 34.14,73.9 C34.52,69.28 30.35,68.45 29.92,61.65 C29.81,59.29 30.19,56.97 30.74,55 C32.27,58.79 34.41,62.19 35.08,63.46 C36.01,65.39 35.96,70.27 35.96,70.27 C39.36,64.67 36.78,61.27 36.55,55.93 C36.45,53.63 36.78,51.43 37.16,49.62 C37.61,51.32 38.2,53.07 38.92,54.13 C40.62,56.59 41.83,58.18 42.16,60.11 C42.43,62.03 42.7,64.94 42.21,66.04 C42.21,66.04 44.35,64.33 44.19,59.12 C44.08,53.95 41.61,50.44 42.16,48.02 C42.21,47.75 42.27,47.42 42.32,47.03 Z" fill="none" stroke="currentColor" stroke-width="1.5"/></svg>