<svg xmlns="http://www.w3.org/2000/svg" viewBox="0 0 50.07 80.0" width="24" height="24"><path d="M43.09,47.03 C45.18,49.29 47.43,50.55 47.43,50.55 C44.41,46.59 44.57,41.97 44.96,39.61 C48.14,35.44 50.07,30.28 50.07,24.67 C50.07,11.04 38.87,0 25.03,0 C11.25,0 0,11.04 0,24.67 C0,30.11 1.81,35.11 4.83,39.18 C1.15,42.26 1.37,48.84 1.37,48.84 C2.41,44.89 3.79,44.23 4.78,43.73 C5,43.68 5.32,43.52 5.66,43.41 C5.43,44.78 5.49,46.27 5.99,47.58 C7.3,50.93 9.22,52.42 8.95,55 C8.67,57.64 5.99,59.62 5.82,62.64 C5.66,65.66 7.3,67.48 7.8,68.13 C8.34,68.85 6.42,65.32 7.41,62.69 C8.45,60.11 10.54,61.1 12.35,57.8 C12.73,57.08 13.07,56.38 13.39,55.66 C14.06,57.86 14.38,59.4 14.22,61.54 C14.11,64.56 12.84,67.42 11.31,68.52 C11.31,68.52 16.52,66.98 17.78,60.93 C18.77,56.27 17.62,53.68 18.61,50.93 C19.87,52.53 21.57,55.05 21.36,57.8 C21.02,62.08 17.89,67.64 18.88,71.6 C19.87,75.55 20.91,77.41 20.91,77.41 C20.91,77.41 20.48,71.87 22.4,68.9 C23.21,67.69 24.27,66.31 25.26,64.89 C26.62,69.4 31.01,73.02 32.22,74.28 C33.71,75.82 33.37,80 33.37,80 C33.37,80 34.36,78.52 34.75,73.9 C35.13,69.28 30.9,68.45 30.47,61.65 C30.3,59.29 30.69,56.97 31.29,55 C32.83,58.79 35.08,62.19 35.68,63.46 C36.67,65.39 36.62,70.27 36.62,70.27 C40.07,64.67 37.43,61.2 37.22,55.93 C37.11,53.63 37.43,51.43 37.82,49.62 C38.26,51.27 38.87,53.07 39.63,54.13 C41.39,56.59 42.59,58.18 42.88,60.11 C43.15,62.03 43.47,64.94 42.93,66.04 C42.93,66.04 45.18,64.33 45.02,59.12 C44.84,53.9 42.32,50.44 42.88,48.02 C42.93,47.69 43.04,47.42 43.09,47.03 Z M39.96,30.88 L35.79,30.88 C35.79,32.14 35.57,33.35 35.18,34.5 C35.18,34.5 35.18,34.5 39.35,36.15 C39.96,36.48 40.23,37.2 39.96,37.81 C39.85,38.13 39.35,38.46 38.86,38.46 C38.81,38.46 38.54,38.4 38.43,38.4 C38.43,38.4 38.43,38.4 34.48,36.75 C32.66,40.38 29.42,42.69 25.47,43.96 C25.47,43.96 25.47,43.96 25.47,22.36 C28.38,22.36 30.85,21.65 32.88,20.61 C33.04,20.45 33.27,20.38 33.49,20.22 C33.98,21.04 34.37,21.87 34.58,22.7 C34.58,22.7 34.58,22.7 38.43,21.21 C39.03,20.93 39.74,21.21 39.96,21.76 C40.23,22.36 39.96,23.02 39.35,23.29 C39.35,23.29 39.35,23.29 35.3,25.06 C35.57,26.1 35.79,27.25 35.79,28.58 C35.79,28.58 35.79,28.58 40.07,28.58 C40.68,28.58 41.28,29.01 41.28,29.73 C41.17,30.33 40.68,30.88 39.96,30.88 Z M32.89,19.12 C32.78,19.23 32.66,19.34 32.44,19.45 C30.52,20.44 28,21.1 25.14,21.1 C22.39,21.1 19.82,20.44 17.95,19.45 C17.73,19.34 17.57,19.23 17.46,19.12 C18.06,18.13 18.72,17.31 19.6,16.6 C19.6,16.6 19.6,16.6 16.42,12.75 C16.3,12.86 16.19,12.86 16.08,12.86 C14.88,12.86 14.05,11.92 14.05,10.83 C14.05,9.67 14.88,8.79 16.08,8.79 C17.12,8.79 18.06,9.67 18.06,10.83 C18.06,11.1 17.95,11.42 17.79,11.71 C17.79,11.71 17.79,11.71 21.08,15.49 C22.39,14.78 23.77,14.45 25.14,14.45 C26.56,14.45 27.89,14.78 29.04,15.38 C29.04,15.38 29.04,15.38 32.17,11.71 C32.06,11.42 32.06,11.1 32.06,10.83 C32.06,9.67 32.89,8.79 34.04,8.79 C35.08,8.79 36,9.67 36,10.83 C36,11.92 35.08,12.86 34.04,12.86 C33.98,12.86 33.81,12.86 33.7,12.75 C33.7,12.75 33.7,12.75 30.52,16.48 C31.51,17.2 32.33,18.02 32.89,19.12 Z M16.69,20.22 C16.91,20.38 17.12,20.45 17.3,20.61 C19.26,21.65 21.79,22.36 24.6,22.36 C24.6,22.36 24.6,22.36 24.6,43.96 C20.59,42.58 17.35,40.38 15.7,36.64 C15.7,36.64 15.7,36.64 11.53,38.4 C11.42,38.4 11.31,38.46 11.2,38.46 C10.76,38.46 10.27,38.13 10,37.81 C9.77,37.2 10,36.48 10.76,36.15 C10.76,36.15 10.76,36.15 14.87,34.39 C14.66,33.35 14.38,32.14 14.38,30.88 C14.38,30.88 14.38,30.88 10,30.88 C9.28,30.88 8.78,30.33 8.78,29.73 C8.78,29.01 9.28,28.58 10,28.58 C10,28.58 10,28.58 14.38,28.58 C14.38,27.36 14.66,26.21 14.87,25.06 C14.87,25.06 14.87,25.06 10.76,23.29 C10.16,23.02 9.77,22.36 10,21.76 C10.27,21.21 10.97,20.93 11.53,21.21 C11.53,21.21 11.53,21.21 15.48,22.8 C15.81,21.87 16.2,21.04 16.69,20.22 Z" fill="none" stroke="currentColor" stroke-width="1.5"/></svg>