<svg xmlns="http://www.w3.org/2000/svg" viewBox="0 0 81.18 76.23" width="24" height="24"><path d="M35.38,22.06 C35.69,22.06 35.69,22.06 35.69,22.06 C39.01,22.06 39.01,22.06 39.01,22.06 C40.08,22.06 39.96,22.32 39.96,23.26 C39.96,24.7 39.96,24.7 39.96,24.7 C39.83,25.45 39.27,26.09 38.46,26.09 C36.57,26.09 36.57,26.09 36.57,26.09 C35.76,26.09 35.07,25.45 35.07,24.7 C35.07,22.32 35.07,22.32 35.07,22.32 C35.07,22.19 35.2,22.06 35.38,22.06 Z M43.09,22.06 C45.66,22.06 45.66,22.06 45.66,22.06 C45.79,22.06 45.79,22.06 45.79,22.06 C45.97,22.06 45.97,22.06 45.97,22.06 C46.03,22.06 46.1,22.19 46.1,22.32 C46.1,24.7 46.1,24.7 46.1,24.7 C46.1,25.45 45.59,26.09 44.91,26.09 C43.34,26.09 43.34,26.09 43.34,26.09 C42.71,26.09 42.09,25.45 42.09,24.7 C42.09,23.32 42.09,23.32 42.09,23.32 C42.09,22.32 42.14,22.06 43.09,22.06 Z M33.38,22.51 L33.38,25.39 C33.38,26.08 33.76,26.71 34.13,27.02 C34.13,27.02 34.13,27.02 35.39,27.02 C36.26,27.02 37.01,27.78 37.01,28.65 C37.01,28.65 37.01,28.65 37.01,31.85 C39.33,33.17 42.84,33.17 45.16,31.85 C45.16,31.85 45.16,31.85 45.16,28.65 C45.16,27.78 45.85,27.02 46.78,27.02 C46.78,27.02 46.78,27.02 48.04,27.02 C48.55,26.71 48.86,26.08 48.86,25.39 C48.86,25.39 48.86,25.39 48.86,22.51 C48.86,21.95 48.73,21.57 48.47,21.13 C46.29,21.38 43.9,21.44 41.33,21.44 C41.33,21.44 41.33,21.44 41.15,21.44 C41.15,21.44 41.15,21.44 40.96,21.44 C40.96,21.44 40.96,21.44 40.89,21.44 C38.32,21.44 35.88,21.38 33.76,21.13 C33.44,21.57 33.38,21.95 33.38,22.51 Z M25.05,19.05 C25.05,17.99 27.99,16.86 32.38,16.37 C32.38,16.37 32.38,16.37 34.76,8.72 C34.88,8.41 35.13,8.03 35.64,8.03 C35.64,8.03 35.64,8.03 46.6,8.03 C47.03,8.03 47.29,8.41 47.47,8.72 C47.47,8.72 47.47,8.72 49.79,16.37 C54.18,16.86 57.06,17.99 57.12,19.05 C57.12,19.69 54.67,20.44 50.86,20.87 C51.3,21.88 51.48,22.88 51.48,24.01 C51.48,25.08 51.3,26.08 50.86,27.02 C50.86,27.02 50.86,27.02 51.3,27.02 C52.17,27.02 52.92,27.78 52.92,28.65 C52.92,28.65 52.92,28.65 52.92,30.41 C54.24,30.59 55.31,31.79 55.31,33.36 C55.31,33.36 55.31,33.36 55.31,43.25 C55.31,44.89 54.11,46.15 52.61,46.15 C52.61,46.15 52.61,46.15 41.65,46.15 C41.65,46.15 41.65,46.15 41.65,33.36 C41.65,33.36 41.65,33.36 40.53,33.36 C40.53,33.36 40.53,33.36 40.53,46.15 C40.53,46.15 40.53,46.15 29.55,46.15 C28.06,46.15 26.93,44.89 26.93,43.25 C26.93,43.25 26.93,43.25 26.93,33.36 C26.93,31.79 27.87,30.59 29.24,30.41 C29.24,30.41 29.24,30.41 29.24,28.65 C29.24,27.78 29.99,27.02 30.88,27.02 C30.88,27.02 30.88,27.02 31.32,27.02 C30.99,26.08 30.75,25.08 30.75,24.01 C30.75,22.88 30.99,21.88 31.32,20.87 C27.49,20.44 25.05,19.69 25.05,19.05 Z M79.42,42.19 C78.92,41.26 78.1,40.69 78.1,40.69 C78.1,40.69 74.16,37.56 72.34,41.39 C70.53,45.2 65.08,47.15 65.08,47.15 C58.75,49.53 58.75,49.53 58.75,49.53 C58.75,49.46 58.75,49.46 58.75,49.46 C64.57,44.27 68.33,36.68 68.33,28.21 C68.33,12.67 55.75,0 40.27,0 C24.74,0 12.21,12.67 12.21,28.21 C12.21,36.68 15.9,44.2 21.73,49.33 C17.03,47.65 13.96,46.53 13.96,46.53 C13.96,46.53 14.09,42.06 10.9,40.69 C7.77,39.37 6.33,42.76 5.94,44.07 C5.94,44.07 0,44.39 0.31,47.89 C0.56,51.35 6.26,51.85 10.34,49.41 C23.79,54.49 23.79,54.49 23.79,54.49 C24.36,57.11 25.49,59.5 27.05,61.51 C17.47,65.08 17.47,65.08 17.47,65.08 C13.34,62.64 7.7,63.13 7.38,66.58 C7.13,70.09 13.09,70.4 13.09,70.4 C13.46,71.73 14.84,75.17 18.03,73.79 C21.22,72.41 21.11,67.96 21.11,67.96 C21.11,67.96 21.98,67.7 30.37,64.64 C33.2,66.7 36.57,67.9 40.33,67.9 C44.1,67.9 47.54,66.65 50.42,64.57 C60.81,67.08 60.81,67.08 60.81,67.08 C60.81,67.08 64.57,68.59 66.39,72.41 C68.14,76.23 72.15,73.1 72.15,73.1 C72.15,73.1 72.9,72.53 73.41,71.6 C74.47,69.6 75.22,66.21 72.15,66.7 C72.15,66.7 73.9,64.46 73.34,62.95 C72.84,61.51 69.96,60.56 68.02,61.44 C66.01,62.25 63.69,63.64 61.38,63.26 C60.69,63.13 59.68,63.33 53.8,61.2 C55.18,59.37 56.18,57.24 56.68,54.98 C61.87,53.1 65.64,51.79 66.21,51.66 C68.4,51.1 72.03,51.54 73.97,52.36 C75.98,53.16 78.79,52.36 79.3,50.85 C79.86,49.33 78.1,47.15 78.1,47.15 C81.18,47.53 80.43,44.27 79.42,42.19 Z" fill="none" stroke="currentColor" stroke-width="1.5"/></svg>