<svg xmlns="http://www.w3.org/2000/svg" viewBox="0 0 74.37 80.0" width="24" height="24"><path d="M70.77,61.47 C73.96,49.03 69.58,41.87 68.07,39.87 C68.55,37.65 68.82,35.43 68.82,33.06 C68.82,30.08 68.41,27.15 67.64,24.45 C74.37,17.92 73.96,10.84 73.06,7.29 C72.02,3.33 67.64,0 67.64,0 C67.3,0.91 67.3,0.91 67.3,0.91 C67.99,1.67 69.72,4.93 67.1,9.79 C66.05,11.73 64.11,12.98 62.17,13.75 C56.4,6.32 47.39,1.53 37.26,1.53 C27.12,1.53 18.11,6.32 12.36,13.75 C10.48,12.98 8.46,11.73 7.35,9.79 C4.72,4.93 6.44,1.67 7.21,0.91 C6.8,0 6.8,0 6.8,0 C6.8,0 2.42,3.33 1.39,7.29 C0.48,10.84 0,17.99 6.94,24.51 C6.18,27.23 5.76,30.08 5.76,33.06 C5.76,35.35 5.96,37.65 6.44,39.79 C4.99,41.67 0.48,48.81 3.68,61.47 C3.68,61.47 1.45,62.84 1.11,67.02 C1.11,67.02 2.77,64.94 3.88,64.66 C3.88,64.66 3.33,68.96 6.66,70.55 C6.66,70.55 5.61,67.93 5.96,66.8 C5.96,66.8 7.07,69.1 9.43,69.38 C9.43,69.38 7.63,67.36 7.77,65.97 C7.77,65.97 8.74,66.6 10.48,66.31 C10.48,66.31 0.28,60.62 9.43,47.78 C12.9,54.44 18.74,59.65 25.81,62.36 C25.95,66.46 26.92,71.88 30.11,77.09 C30.11,77.09 25.32,73.74 20.82,79.66 C20.82,80 20.82,80 20.82,80 C31.84,80 31.84,80 31.84,80 C31.84,80 32.67,79.94 32.67,78.69 C32.67,77.64 29.08,72.77 30.19,63.75 C32.47,64.31 34.83,64.58 37.26,64.58 C39.68,64.58 42.04,64.31 44.26,63.75 C45.37,72.77 41.76,77.64 41.76,78.69 C41.76,79.94 42.6,80 42.6,80 C53.63,80 53.63,80 53.63,80 C53.63,79.66 53.63,79.66 53.63,79.66 C49.13,73.74 44.34,77.09 44.34,77.09 C47.53,71.88 48.5,66.53 48.64,62.44 C55.77,59.73 61.61,54.44 65.08,47.84 C74.1,60.7 63.97,66.31 63.97,66.31 C65.77,66.6 66.74,65.97 66.74,65.97 C66.88,67.36 65.08,69.38 65.08,69.38 C67.36,69.1 68.47,66.8 68.47,66.8 C68.82,67.93 67.85,70.55 67.85,70.55 C71.12,68.96 70.63,64.66 70.63,64.66 C71.66,64.94 73.34,67.02 73.34,67.02 C72.99,62.84 70.77,61.47 70.77,61.47 Z M62.17,34.37 C62.17,35.2 62.17,36.04 62.17,36.87 C62.21,37.19 61.76,37.02 61.81,37.36 C61.22,37.36 60.64,37.36 60.05,37.36 C59.73,37.26 59.58,37.67 59.6,37.93 C59.65,38.24 59.25,38.36 59.24,38.69 C59.45,38.93 59.65,39.17 59.85,39.41 C60.07,39.59 60.19,39.99 60.5,40 C60.5,40.37 60.5,40.74 60.5,41.11 C60.15,41.6 59.74,42.03 59.37,42.5 C59.21,42.69 58.92,42.71 58.69,42.79 C58.38,42.89 58.21,42.64 57.93,42.64 C57.68,42.34 57.42,42.03 57.16,41.73 C56.98,41.47 56.79,41.19 56.48,41.46 C56.11,41.43 55.85,41.78 55.51,41.88 C55.51,42.57 55.51,43.26 55.51,43.95 C55.47,44.2 55.24,44.24 55.16,44.44 C54.59,44.44 54.01,44.44 53.44,44.44 C53.22,44.38 52.72,44.59 52.72,44.3 C52.31,44.43 52.43,44.08 52.18,43.9 C52.18,43.35 52.18,42.81 52.18,42.27 C52.28,41.92 52.05,41.78 51.78,41.63 C51.63,41.32 51.26,41.58 51.06,41.32 C50.71,41.69 50.36,42.06 50.01,42.43 C49.83,42.69 49.56,42.86 49.24,42.79 C48.93,42.88 48.77,42.63 48.5,42.64 C48.22,42.31 47.95,41.98 47.67,41.65 C47.39,41.48 47.46,41.16 47.24,40.98 C47.09,40.76 47.21,40.41 47.17,40.14 C47.59,39.89 47.82,39.44 48.15,39.1 C48.36,38.87 48.59,38.66 48.5,38.33 C48.18,38.12 48.14,37.71 48.16,37.36 C47.63,37.36 47.11,37.36 46.58,37.36 C46.29,37.39 46.02,37.38 45.98,37.16 C45.53,37.34 45.91,36.69 45.51,36.81 C45.51,36 45.51,35.18 45.51,34.37 C45.69,34.06 45.86,34.08 46.06,33.82 C46.66,33.82 47.26,33.82 47.86,33.82 C48.32,33.96 48.07,33.49 48.21,33.24 C48.3,32.96 48.62,32.84 48.5,32.49 C48.14,32.07 47.78,31.64 47.42,31.22 C47.44,30.88 47.05,31.04 47.17,30.63 C47.03,30.3 47.4,30.19 47.39,29.92 C47.59,29.56 47.93,29.25 48.19,28.91 C48.33,28.62 48.58,28.56 48.81,28.43 C49.05,28.35 49.35,28.42 49.61,28.4 C50.07,28.72 50.4,29.19 50.8,29.58 C50.99,29.97 51.16,29.74 51.47,29.73 C51.75,29.73 51.89,29.37 52.18,29.3 C52.18,28.88 52.18,28.46 52.18,28.04 C52.23,27.76 52.07,27.4 52.28,27.19 C52.36,26.86 52.55,26.94 52.72,26.66 C53.52,26.66 54.32,26.66 55.11,26.66 C55.19,26.86 55.34,26.97 55.51,27.08 C55.51,27.73 55.51,28.37 55.51,29.01 C55.38,29.38 55.8,29.41 56.02,29.57 C56.25,29.79 56.57,29.7 56.82,29.87 C57.15,29.47 57.48,29.08 57.81,28.69 C57.99,28.51 58.24,28.43 58.49,28.4 C58.79,28.29 58.97,28.58 59.24,28.54 C59.64,29.02 60.06,29.49 60.44,29.99 C60.57,30.28 60.46,30.65 60.5,30.98 C60.17,31.45 59.76,31.86 59.4,32.31 C59.12,32.5 59.36,32.87 59.57,33.02 C59.61,33.28 59.63,33.58 59.81,33.82 C60.13,33.82 60.46,33.82 60.78,33.82 C61.07,33.86 61.43,33.74 61.67,33.89 C61.82,34.1 62.28,33.97 62.17,34.37 Z M55.71,35.48 C55.63,34.87 55.29,34.29 54.77,33.96 C53.96,33.45 52.75,33.81 52.36,34.68 C51.86,35.49 52.17,36.68 53,37.15 C53.81,37.67 55.04,37.33 55.47,36.47 C55.51,36.13 55.72,35.83 55.71,35.48 Z M45.44,38.68 C45.44,39.67 45.44,40.67 45.44,41.66 C45.44,42.21 45.51,42.84 45.1,42.98 C45.2,43.59 44.29,43.19 44.19,43.61 C43.34,43.61 42.48,43.61 41.63,43.61 C41.72,44.32 41.22,44.88 40.94,45.48 C41.56,46.14 42.33,46.9 42.84,47.5 C43.26,47.78 43.02,48.55 43.08,49.03 C42.38,49.76 41.64,50.5 40.94,51.25 C40.82,51.59 40.18,52.15 39.65,51.78 C38.86,51.07 38.18,50.2 37.4,49.45 C36.89,49.47 36.48,50.22 35.84,50.24 C35.43,50.67 35.76,51.54 35.65,52.14 C35.75,52.82 35.45,53.1 35.53,53.76 C35.08,53.84 34.98,54.27 34.62,54.44 C33.58,54.44 32.54,54.44 31.49,54.44 C31.22,54.17 30.88,54.06 30.6,53.64 C30.43,53.05 30.45,52.39 30.46,51.72 C30.34,51.17 30.79,50.25 30,50.13 C29.36,50.29 29.03,48.94 28.53,49.65 C27.72,50.39 27.06,51.43 26.08,51.88 C25.4,51.91 25.26,51.27 24.85,50.9 C24.28,50.41 23.8,49.61 23.17,49.34 C23.05,48.74 22.97,48.16 23.17,47.61 C23.56,47.09 24.17,46.57 24.63,46.04 C23.95,46.04 23.27,46.04 22.59,46.04 C21.47,45.95 20.28,46.25 19.22,45.84 C18.42,45.95 17.99,45.08 17.3,44.89 C16.84,44.34 16.2,43.82 16.03,43.05 C15.65,42.52 15.84,41.88 15.54,41.32 C15.54,34.26 15.54,27.2 15.54,20.15 C15.44,19.5 15.67,18.91 15.74,18.3 C15.96,17.75 15.91,17.12 16.36,16.68 C16.75,16.12 17.27,15.97 17.76,15.56 C27.4,15.56 37.04,15.56 46.68,15.56 C47.31,15.49 47.8,15.63 48.28,15.89 C48.75,16.19 49.18,16.57 49.5,17 C49.71,17.55 49.79,18.08 49.91,18.65 C50,20.17 49.92,21.72 49.95,23.26 C49.95,23.81 49.73,24.38 49.26,24.59 C38.69,24.59 28.13,24.59 17.56,24.59 C17.56,30.13 17.56,35.67 17.56,41.21 C17.67,41.74 17.84,42.23 18.06,42.76 C18.36,43.33 18.95,43.33 19.36,43.75 C20.8,43.75 22.24,43.75 23.68,43.75 C24.85,43.81 24.19,43.49 23.4,43.61 C22.87,43.5 21.89,43.84 21.68,43.4 C21,43.56 21.11,42.93 20.67,42.85 C20.67,41.5 20.67,40.14 20.67,38.78 C20.75,38.34 21.18,38.24 21.37,37.91 C22.39,37.91 23.41,37.91 24.42,37.91 C24.34,37.2 24.7,36.53 25.19,36.04 C24.59,35.37 23.98,34.7 23.38,34.03 C23.04,33.93 22.96,32.99 23.11,32.59 C23.14,31.89 23.89,31.51 24.3,30.99 C24.77,30.64 25.07,29.95 25.59,29.8 C25.98,29.42 26.73,29.87 26.88,30.08 C27.58,30.54 28.14,31.34 28.79,31.94 C29.28,31.53 29.91,31.48 30.46,31.19 C30.46,30.24 30.46,29.29 30.46,28.34 C30.51,27.73 30.84,27.36 31.35,27.01 C32.56,27.01 33.76,27.01 34.97,27.01 C34.95,27.54 35.58,27.42 35.53,27.99 C35.61,28.58 35.71,29.18 35.65,29.81 C35.75,30.38 35.33,31.32 36.15,31.43 C36.76,31.42 37.34,32.33 37.73,31.52 C38.25,31.08 38.67,30.35 39.27,30.08 C39.33,29.69 40.29,29.45 40.61,29.86 C41.27,30.26 41.77,31.02 42.37,31.56 C42.71,32 43.14,32.35 43.08,32.96 C43.29,33.77 42.5,34.21 42.07,34.77 C41.8,35.28 40.86,35.69 41.05,36.27 C41.46,36.72 41.73,37.27 41.63,37.91 C42.41,37.91 43.2,37.91 43.98,37.91 C44.69,37.71 45,38.22 45.44,38.68 Z M43.65,18.41 L43.65,18.41 L43.65,22.15 L46.9,22.15 L46.9,18.41 L43.65,18.41 Z M38.36,18.41 L38.36,18.41 L38.36,22.15 L41.63,22.15 L41.63,18.41 L38.36,18.41 Z M35.65,40.98 C35.7,40.66 35.69,40.33 35.62,40.01 C35.41,38.5 33.67,37.48 32.24,37.95 C31.11,38.34 30.43,39.55 30.43,40.71 C30.31,42.02 31.28,43.38 32.61,43.57 C34.13,43.86 35.7,42.52 35.65,40.98 Z" fill="none" stroke="currentColor" stroke-width="1.5"/></svg>