<svg xmlns="http://www.w3.org/2000/svg" viewBox="0 0 78.04 80.0" width="24" height="24"><path d="M66.82,40.11 C66.82,39.58 66.82,39.05 66.82,38.52 C66.82,37.53 66.77,36.52 66.7,35.53 C71.52,32.47 78.04,34.06 78.04,34.06 C73.75,29.24 67.81,30.3 65.71,30.88 C65.41,29.94 65.11,29 64.7,28.11 C67.47,26.53 71.76,27.17 71.76,27.17 C69.81,23.94 64.41,24.11 62.65,24.23 C62.24,23.65 61.77,23 61.29,22.41 C63.76,21.17 68.34,17.53 66.58,8.17 C66.58,8.17 66.05,15.59 57.24,18.18 C56.3,17.41 55.31,16.65 54.25,16.06 C56.01,13 58.23,6.82 53.31,0 C53.31,0 55.36,7.83 48.07,13.23 C46.66,12.77 45.2,12.41 43.66,12.24 C43.32,10.77 42.79,6.94 45.01,3.06 C45.01,3.06 39.2,4.41 39.26,12 C38.26,12.05 37.32,12.12 36.32,12.24 C34.73,0.99 23.69,2.89 23.69,2.89 C30.15,5.71 30.51,11.53 30.39,13.71 C28.32,14.47 26.39,15.53 24.56,16.76 C23.33,15.82 20.81,13.23 21.63,7.88 C21.63,7.88 16.98,13.71 21.34,19.41 C20.45,20.23 19.63,21.12 18.86,22.06 C17.1,20.76 11.7,17.59 6.99,23.06 C6.99,23.06 14.28,20.23 16.4,25.77 C15.63,27.12 14.93,28.64 14.45,30.18 C12.05,31.29 4.65,34.11 2.24,26.23 C2.24,26.23 0,36.64 13.29,35.36 C13.22,35.89 13.17,36.35 13.17,36.88 C10.93,36.71 2.82,36.52 1.59,44.29 C1.59,44.29 3.88,38.18 13.29,41.58 C13.46,43.24 13.75,44.82 14.28,46.35 C13.29,47.46 10.35,49.65 5.18,46.71 C4.94,46.59 6.65,52.64 16.16,50.88 C16.33,51.17 16.52,51.53 16.69,51.88 C15.22,53.12 12.11,56.65 13.41,62.29 C13.41,62.29 14.16,57.47 19.27,55.53 C20.22,56.65 21.22,57.64 22.27,58.53 C22.1,60.47 21.16,64.65 15.99,65.83 C15.99,65.83 23.16,67.47 26.34,61.41 C26.63,61.64 26.97,61.76 27.33,62 C23.57,72.24 29.57,78.75 29.57,78.75 C28.22,68.87 31.67,65.18 32.91,64.17 C33.56,64.36 34.26,64.53 34.97,64.65 C35.44,65.35 36.38,67.06 36.09,69.06 C35.67,71.76 34.2,76.65 35.85,80 C35.85,80 36.55,75.23 37.73,73.76 C38.91,72.24 39.97,70.41 39.97,68.53 C39.97,67.3 39.85,66 39.68,65.06 C39.78,65.06 39.85,65.11 39.97,65.11 C40.72,65.11 41.56,65.06 42.26,64.99 C42.72,65.88 42.79,66.7 42.91,67.64 C43.08,68.99 42.67,70.12 42.14,73.11 C41.61,76.17 43.49,78.46 43.49,78.46 C43.25,77.23 43.2,76.41 43.32,74.7 C43.49,73.06 45.66,70.94 46.55,68.58 C47.25,66.77 46.72,65.06 46.37,64.36 C46.84,64.24 47.31,64.05 47.84,63.94 C51.66,68.53 49.6,75.18 49.6,75.18 C53.89,70.77 52.3,64.05 51.84,62.35 C52.37,62.05 52.9,61.82 53.43,61.52 C58.18,65.35 56.83,72.94 56.83,72.94 C61,64.58 57.94,60.12 57.07,59.06 C57.41,58.76 57.77,58.47 58.06,58.17 C60.41,65.41 66.41,61.76 66.41,61.76 C62.12,61.35 61.77,55.76 61.71,54.11 C62.29,53.29 62.88,52.47 63.41,51.58 C68.29,51.7 69.11,55.64 69.11,55.64 C70.58,49.88 66.77,48.41 65.06,48.06 C65.35,47.29 65.64,46.47 65.88,45.7 C74.63,46.59 75.87,39.53 75.87,39.53 C72.29,42.88 68.41,41.12 66.82,40.11 Z M39.5,36.52 C35.38,36.83 32.03,40.06 32.03,43.99 C32.03,47.94 35.38,51.05 39.5,51.41 C39.5,55.53 39.5,55.53 39.5,55.53 C35.21,54.18 31.74,51.99 29.97,48.3 C25.56,49.99 25.56,49.99 25.56,49.99 C25.44,49.99 25.27,50.18 25.15,50.18 C24.62,50.18 24.16,49.82 23.87,49.46 C23.56,48.81 23.87,48.18 24.62,47.82 C29.09,45.99 29.09,45.99 29.09,45.99 C28.91,45.05 28.56,43.89 28.56,42.59 C23.87,42.59 23.87,42.59 23.87,42.59 C23.03,42.59 22.57,41.99 22.57,41.46 C22.57,40.76 23.03,40.3 23.87,40.3 C28.56,40.3 28.56,40.3 28.56,40.3 C28.56,39.12 28.91,37.94 29.09,36.83 C24.62,35.12 24.62,35.12 24.62,35.12 C23.97,34.83 23.56,34.11 23.87,33.58 C24.16,32.94 24.86,32.76 25.56,32.94 C29.8,34.53 29.8,34.53 29.8,34.53 C30.09,33.65 30.44,32.82 31.09,32 C31.27,32.11 31.56,32.3 31.62,32.41 C33.86,33.47 36.49,34.11 39.5,34.11 L39.5,36.52 Z M32.38,31.41 C32.09,31.35 32.03,31.17 31.91,31.06 C32.5,30.23 33.27,29.47 34.15,28.82 C30.74,25.35 30.74,25.35 30.74,25.35 C30.62,25.41 30.45,25.41 30.33,25.41 C29.1,25.41 28.21,24.58 28.21,23.52 C28.21,22.47 29.1,21.64 30.33,21.64 C31.5,21.64 32.5,22.47 32.5,23.52 C32.5,23.76 32.38,24.05 32.21,24.29 C35.79,27.76 35.79,27.76 35.79,27.76 C37.14,27.18 38.68,26.82 40.15,26.82 C41.72,26.82 43.02,27.18 44.31,27.71 C47.72,24.29 47.72,24.29 47.72,24.29 C47.49,24.05 47.49,23.76 47.49,23.52 C47.49,22.47 48.48,21.64 49.66,21.64 C50.77,21.64 51.71,22.47 51.71,23.52 C51.71,24.58 50.77,25.41 49.66,25.41 C49.54,25.41 49.42,25.41 49.31,25.35 C45.96,28.7 45.96,28.7 45.96,28.7 C46.9,29.29 47.78,30.06 48.48,31.06 C48.25,31.17 48.19,31.35 47.9,31.41 C45.96,32.23 43.14,32.94 40.15,32.94 C37.14,32.94 34.44,32.23 32.38,31.41 Z M56.01,42.59 C51.77,42.59 51.77,42.59 51.77,42.59 C51.77,43.89 51.6,45.05 51.19,46.23 C55.42,47.82 55.42,47.82 55.42,47.82 C56.01,48.18 56.3,48.81 56.01,49.46 C55.89,49.82 55.42,50.18 54.95,50.18 C54.83,50.18 54.59,49.99 54.48,49.99 C50.49,48.35 50.49,48.35 50.49,48.35 C48.73,51.99 45.43,54.29 41.37,55.53 C41.37,51.41 41.37,51.41 41.37,51.41 C45.31,51.05 48.42,47.82 48.42,43.99 C48.42,40.11 45.31,36.88 41.37,36.52 C41.37,34.11 41.37,34.11 41.37,34.11 C44.31,34.11 46.85,33.47 48.9,32.41 C48.95,32.3 49.24,32.11 49.55,32 C50.01,32.82 50.37,33.65 50.54,34.47 C54.48,32.94 54.48,32.94 54.48,32.94 C55.07,32.76 55.77,32.94 56.01,33.58 C56.3,34.11 56.01,34.83 55.42,35.12 C51.31,36.83 51.31,36.83 51.31,36.83 C51.6,37.89 51.77,39.05 51.77,40.3 C56.18,40.3 56.18,40.3 56.18,40.3 C56.71,40.3 57.36,40.76 57.36,41.46 C57.18,41.99 56.71,42.59 56.01,42.59 Z M43.49,44.24 C43.72,44.24 43.96,44.24 44.13,44.35 C44.2,45.52 43.26,46.58 41.73,47.06 C41.61,46.94 41.49,46.82 41.37,46.65 C42.73,46.35 43.61,45.35 43.49,44.24 Z M37.38,44.24 C37.32,45.22 38.13,46.21 39.45,46.63 C39.47,46.56 39.49,46.48 39.49,46.4 C39.49,45.99 39.43,45.65 39.2,45.34 L39.38,45.17 C39.55,45.34 39.79,45.46 40.02,45.46 C40.26,45.46 40.44,45.41 40.61,45.24 L40.85,45.34 C40.55,45.77 40.56,45.94 40.56,46.4 C40.73,48.11 43.6,48.82 44.85,47.41 L45.14,47.53 C43.91,48.93 41.26,48.88 40.02,47.46 C39.43,48.11 38.49,48.59 37.38,48.59 C36.38,48.59 35.38,48.18 34.79,47.53 L35.15,47.41 C35.61,47.87 36.26,48.18 37.08,48.18 C38.18,48.18 39.18,47.57 39.43,46.73 C39.33,46.85 39.24,46.96 39.14,47.06 C37.61,46.58 36.67,45.47 36.79,44.29 C36.97,44.24 37.2,44.24 37.38,44.24 Z M40.46,41.56 C41.11,41.56 41.76,41.71 42.31,42 C42.31,42.12 42.2,42.29 42.08,42.35 C41.14,41.82 39.78,41.82 38.79,42.35 C38.67,42.29 38.61,42.24 38.55,42 C39.14,41.71 39.8,41.56 40.46,41.56 Z M40.25,39.52 L40.25,39.83 C37.26,40 37.5,43.59 40.43,43.76 C40.43,43.76 40.44,43.76 40.44,43.76 C43.43,43.59 43.55,40.12 40.61,39.83 L40.61,39.52 C42.9,39.76 44.25,41.64 43.37,43.23 C45.72,43.41 47.02,45.47 46.01,47.06 L45.67,46.88 C46.32,45.64 45.14,44.17 43.37,44.17 C42.55,44.17 41.78,44.53 41.32,44.99 L41.14,44.88 L41.14,44.65 C41.14,44.29 40.85,44 40.44,43.93 C40.44,43.93 40.43,43.93 40.43,43.93 C40.02,44 39.74,44.29 39.74,44.65 C39.74,44.7 39.79,44.82 39.79,44.88 L39.61,44.99 C39.43,44.82 39.21,44.65 38.9,44.46 C38.9,44.46 38.85,44.46 38.79,44.41 C38.44,44.24 37.96,44.17 37.55,44.17 C35.91,44.17 34.32,45.71 35.26,46.88 L34.91,47.06 C33.85,45.47 35.08,43.41 37.5,43.23 C36.61,41.64 38.03,39.71 40.25,39.52 Z" fill="none" stroke="currentColor" stroke-width="1.5"/></svg>