<svg xmlns="http://www.w3.org/2000/svg" viewBox="0 0 80.15 64.55" width="24" height="24"><path d="M78.6,43.11 C76.75,42.94 74.74,42.54 74.22,42.25 C73.48,41.55 73.13,40.69 72.85,39.65 C72.33,38.27 71.74,36.49 69.85,35.45 C68.29,34.58 67.08,34.35 66.11,34.35 C65.47,30.32 63.91,26.57 61.62,23.4 C62.82,22.18 63.63,20.74 64.43,19.3 C65.3,17.76 66.11,16.32 67.43,15.1 C70.08,12.62 75.38,13.02 75.43,13.02 C76.35,13.14 77.15,12.45 77.27,11.53 C77.34,10.6 76.64,9.85 75.73,9.74 C75.49,9.68 68.92,9.16 65.19,12.68 C63.46,14.24 62.42,16.08 61.5,17.69 C60.86,18.85 60.23,19.89 59.54,20.74 C58.79,19.94 57.93,19.2 57.13,18.44 C55.62,12.45 50.96,7.61 45.03,5.88 C45.03,1.67 45.03,1.67 45.03,1.67 C45.03,0.75 44.22,0 43.3,0 C42.38,0 41.69,0.75 41.69,1.67 C41.69,5.24 41.69,5.24 41.69,5.24 C41.11,5.19 40.54,5.13 40.02,5.13 C39.5,5.13 39.04,5.19 38.58,5.24 C38.58,1.67 38.58,1.67 38.58,1.67 C38.58,0.75 37.84,0 36.92,0 C35.99,0 35.19,0.75 35.19,1.67 C35.19,5.82 35.19,5.82 35.19,5.82 C29.08,7.55 24.36,12.45 22.92,18.68 C22.12,19.3 21.42,20 20.73,20.74 C19.92,19.94 19.35,18.85 18.72,17.69 C17.8,16.08 16.76,14.24 15.03,12.68 C11.29,9.16 4.78,9.68 4.49,9.74 C3.57,9.85 2.88,10.6 2.93,11.53 C3.05,12.45 3.86,13.14 4.78,13.02 C6.22,12.92 10.54,12.97 12.79,15.1 C14.11,16.32 14.91,17.76 15.78,19.3 C16.59,20.74 17.39,22.18 18.55,23.4 C16.36,26.62 14.75,30.32 14.11,34.35 C13.14,34.35 11.92,34.58 10.37,35.45 C8.53,36.49 7.89,38.27 7.42,39.65 C7.09,40.69 6.74,41.55 5.98,42.25 C5.48,42.54 3.45,42.94 1.61,43.11 C0.69,43.22 0,44.03 0.12,44.95 C0.17,45.82 0.92,46.39 1.79,46.39 C1.84,46.39 1.84,46.39 1.96,46.39 C4.21,46.17 7.09,45.7 8.18,44.78 C9.62,43.51 10.14,41.95 10.54,40.74 C10.99,39.49 11.29,38.73 12.03,38.33 C12.72,37.86 13.36,37.75 13.82,37.69 C13.82,37.93 13.82,38.15 13.82,38.38 C13.82,42.89 14.91,47.09 16.87,50.71 C15.6,52.22 15.15,54.06 14.8,55.79 C14.51,56.88 14.28,58.1 13.76,59.14 C12.5,61.72 7.26,61.15 7.2,61.15 C6.28,61.03 5.48,61.72 5.36,62.59 C5.24,63.51 5.88,64.38 6.8,64.43 C6.91,64.43 7.49,64.5 8.35,64.5 C10.71,64.5 15.08,64.03 16.76,60.58 C17.45,59.14 17.73,57.75 18.03,56.48 C18.25,55.39 18.48,54.47 18.83,53.78 C23.61,60.35 31.39,64.55 40.08,64.55 C48.83,64.55 56.61,60.35 61.38,53.78 C61.73,54.47 61.95,55.39 62.19,56.48 C62.47,57.75 62.76,59.14 63.46,60.58 C65.12,64.03 69.5,64.5 71.86,64.5 C72.73,64.5 73.3,64.43 73.42,64.43 C74.34,64.38 74.97,63.51 74.86,62.59 C74.74,61.72 73.94,61.03 73.01,61.15 C72.96,61.15 67.72,61.72 66.45,59.14 C65.93,58.1 65.71,56.88 65.41,55.79 C65.07,54.06 64.6,52.22 63.34,50.78 C65.3,47.09 66.45,42.89 66.45,38.38 C66.45,38.15 66.39,37.93 66.39,37.69 C66.91,37.75 67.48,37.93 68.17,38.33 C68.92,38.73 69.21,39.49 69.68,40.74 C70.08,41.95 70.6,43.51 72.04,44.78 C73.13,45.7 76.06,46.17 78.26,46.39 C78.31,46.39 78.43,46.39 78.43,46.39 C79.3,46.39 80.04,45.82 80.1,44.95 C80.15,44.03 79.52,43.22 78.6,43.11 Z M60.81,39.59 C60.82,40.21 60.8,40.84 60.82,41.46 C60.92,41.95 60.37,41.79 60.34,42.07 C59.83,42.06 59.32,42.1 58.81,42.05 C58.65,42.34 58.39,42.78 58.38,43.16 C58.59,43.37 58.79,43.57 58.99,43.78 C59.37,44.07 59.52,44.56 59.4,45.01 C59.18,45.6 58.72,46.23 58.17,46.51 C57.53,46.79 57.05,46.28 56.68,45.84 C56.37,45.18 55.71,45.47 55.28,45.82 C55.28,46.09 55.28,46.36 55.28,46.63 C55.29,47.15 55.37,47.86 54.81,47.95 C54.38,47.95 53.94,47.95 53.5,47.95 C53.11,48 52.79,47.94 52.52,47.67 C52.52,47.19 52.52,46.71 52.52,46.23 C52.67,45.61 51.89,45.5 51.48,45.36 C51.28,45.6 51.07,45.84 50.87,46.09 C50.59,46.57 49.95,46.67 49.47,46.46 C49.25,46.21 49.04,45.95 48.83,45.7 C48.5,45.35 48.15,44.93 48.37,44.44 C48.47,43.97 49.06,43.64 49.39,43.27 C49.35,42.9 49.17,42.44 49,42.07 C48.66,42.07 48.32,42.07 47.99,42.07 C47.57,42.14 47.3,42 46.99,41.79 C46.99,41.2 46.99,40.62 46.99,40.03 C46.89,39.61 47.09,39.38 47.34,39.14 C47.73,39.14 48.12,39.14 48.51,39.14 C49.29,39.36 49.09,38.41 49.47,38.03 C49.18,37.7 48.89,37.35 48.6,37.01 C48.06,36.6 48.37,35.89 48.82,35.54 C49.19,34.94 49.83,34.36 50.56,34.75 C50.78,35.02 51,35.28 51.22,35.54 C51.51,36.13 52.09,35.47 52.52,35.39 C52.52,34.95 52.52,34.51 52.52,34.07 C52.42,33.64 52.65,33.39 52.97,33.19 C53.58,33.19 54.19,33.19 54.79,33.19 C55.5,33.33 55.24,34.25 55.28,34.82 C55.05,35.55 55.82,35.5 56.2,35.85 C56.44,35.61 56.68,35.37 56.92,35.12 C57.25,34.61 57.86,34.5 58.38,34.75 C58.62,35.04 58.86,35.32 59.1,35.61 C59.73,36.24 59.33,37.13 58.74,37.61 C58,38.05 58.72,38.58 58.68,39.14 C59.07,39.14 59.47,39.14 59.86,39.14 C60.25,39.07 60.6,39.26 60.81,39.59 Z M55.28,40.7 C55.28,40.59 55.28,40.47 55.28,40.36 C55.4,39.77 54.77,39.4 54.41,39.13 C53.7,39.09 52.8,39.11 52.55,39.93 C52.29,40.47 52.47,41.08 52.69,41.55 C53.07,42.13 53.86,42.21 54.44,42.06 C54.9,41.77 55.4,41.32 55.28,40.7 Z M46.93,42.65 C47.18,43.28 46.98,44.01 47.05,44.68 C47.1,45.21 47,45.59 46.93,46 C46.77,46.28 46.34,46.28 46.18,46.57 C45.55,46.57 44.93,46.57 44.3,46.57 C43.67,46.38 43.69,47.2 43.52,47.61 C43.09,48.11 43.63,48.4 43.97,48.77 C44.32,49.08 44.7,49.59 44.97,49.78 C45.03,50.28 45.01,50.63 44.97,51.12 C44.27,51.75 43.71,52.54 42.91,53.04 C42.58,53.52 42.08,53.09 41.8,52.88 C41.43,52.32 40.78,51.87 40.31,51.35 C39.86,51.24 39.49,51.93 39.01,51.88 C38.47,51.86 38.88,52.8 38.75,53.19 C38.67,53.61 38.92,54.36 38.64,54.58 C38.61,55.01 38.37,55.22 37.92,55.21 C37.68,55.45 37.02,55.27 36.6,55.33 C36.11,55.32 35.55,55.38 35.22,55.21 C34.85,55.14 34.73,54.83 34.55,54.58 C34.55,53.68 34.55,52.78 34.55,51.88 C33.93,52.01 33.56,51.38 32.99,51.29 C32.55,51.73 32.11,52.18 31.68,52.62 C31.41,52.93 31.11,53.37 30.58,53.25 C29.83,52.73 29.24,51.98 28.56,51.35 C28.49,50.93 27.83,50.45 28.33,50.03 C28.55,49.42 29.11,49.02 29.54,48.53 C28.9,48.53 28.25,48.53 27.61,48.53 C26.8,48.46 25.94,48.67 25.16,48.41 C24.43,48.53 23.95,47.83 23.38,47.5 C22.65,46.94 22.49,45.98 22.11,45.19 C22.11,39.22 22.11,33.26 22.11,27.29 C22.02,26.76 22.23,26.31 22.28,25.81 C22.43,25.46 22.66,25 22.95,24.68 C23.14,24.29 23.74,24.24 24.12,23.98 C32.03,23.98 39.93,23.98 47.83,23.98 C48.63,23.9 49.49,24.11 49.96,24.81 C50.31,25.15 50.58,25.55 50.64,26.03 C50.71,27.35 50.65,28.7 50.67,30.03 C50.7,30.56 50.7,31.06 50.27,31.29 C41.4,31.29 32.54,31.29 23.67,31.29 C23.68,35.74 23.64,40.21 23.69,44.66 C23.78,45.13 23.86,45.49 24.19,45.84 C24.4,46.25 24.82,46.55 25.26,46.7 C26.52,46.79 27.83,46.71 29.11,46.74 C29.84,46.54 28.52,46.55 28.22,46.57 C27.66,46.61 27.2,46.55 26.84,46.4 C26.58,46.25 26.41,46.01 26.2,45.81 C26.2,45.24 26.2,44.66 26.2,44.08 C26.3,43.68 26.01,42.9 26.37,42.76 C26.31,42.29 26.79,42.37 26.84,42.01 C27.65,42.01 28.47,42.01 29.28,42.01 C29.59,41.72 29.66,41.09 29.88,40.66 C30.22,40.16 29.38,39.89 29.16,39.5 C28.74,39.15 28.49,38.76 28.2,38.35 C27.9,37.85 28.58,37.63 28.5,37.17 C28.98,36.69 29.46,36.21 29.94,35.74 C30.19,35.39 30.67,35.33 31.21,35.39 C31.81,35.96 32.39,36.59 32.99,37.17 C33.51,36.96 34.01,36.75 34.55,36.6 C34.55,35.92 34.55,35.24 34.55,34.55 C34.44,34.02 34.71,33.57 35.13,33.25 C36.09,33.25 37.05,33.25 38.01,33.25 C38.36,33.37 38.46,33.62 38.7,33.93 C38.82,34.79 38.72,35.72 38.75,36.6 C39.27,36.74 39.77,36.93 40.25,37.17 C40.7,36.73 41.16,36.29 41.62,35.85 C41.87,35.43 42.28,35.31 42.76,35.39 C43.22,35.51 43.43,35.85 43.84,36.21 C44.12,36.61 44.73,36.87 44.8,37.35 C45.14,37.66 45,38.17 44.97,38.59 C44.54,39.23 43.83,39.75 43.3,40.35 C43.51,40.9 43.76,41.43 43.88,42.01 C44.45,42.01 45.02,42.01 45.59,42.01 C46.09,41.94 46.85,42.05 46.93,42.65 Z M45.44,26.28 C45.44,27.28 45.44,28.28 45.44,29.28 C46.38,29.28 47.32,29.28 48.25,29.28 C48.25,28.28 48.25,27.28 48.25,26.28 C47.32,26.28 46.38,26.28 45.44,26.28 Z M41.05,26.28 C41.05,27.28 41.05,28.28 41.05,29.28 C41.95,29.28 42.86,29.28 43.76,29.28 C43.76,28.28 43.76,27.28 43.76,26.28 C42.86,26.28 41.95,26.28 41.05,26.28 Z M38.75,44.44 C38.95,44.33 38.93,44.3 38.83,44.12 C38.66,43.67 38.78,43.15 38.36,42.82 C37.97,42.58 37.76,41.94 37.25,42.01 C36.75,41.82 36.32,41.96 35.84,42.01 C35.39,42.27 35.02,42.78 34.64,43.16 C34.56,43.61 34.3,44 34.4,44.47 C34.64,44.87 34.45,45.45 35.01,45.65 C35.09,46.09 35.57,46.33 35.97,46.4 C36.29,46.62 36.93,46.69 37.26,46.4 C37.68,46.36 38.13,46.14 38.27,45.73 C38.65,45.43 38.8,44.94 38.75,44.44 Z" fill="none" stroke="currentColor" stroke-width="1.5"/></svg>