<svg xmlns="http://www.w3.org/2000/svg" viewBox="0 0 80.0 80.0" width="24" height="24"><path d="M42.57,41.97 L42.57,43.29 L51.59,43.29 L51.59,41.97 L42.57,41.97 L42.57,41.97 Z M42.57,39.35 L42.57,40.67 L52.91,40.67 L52.91,39.35 L42.57,39.35 L42.57,39.35 Z M42.57,35.41 L42.57,38.04 L51.59,38.04 L51.59,35.41 L42.57,35.41 L42.57,35.41 Z M42.57,32.79 L42.57,34.11 L52.91,34.11 L52.91,32.79 L42.57,32.79 L42.57,32.79 Z M34.19,37.75 C34.05,37.75 34.05,37.75 34.05,37.75 C33.25,37.75 33.25,37.75 33.25,37.75 C32.92,37.75 32.92,37.89 32.92,38.13 C32.92,38.74 32.92,38.74 32.92,38.74 C33.01,38.98 33.15,39.07 33.34,39.07 C33.91,39.07 33.91,39.07 33.91,39.07 C34.05,39.07 34.19,38.98 34.19,38.74 C34.19,37.89 34.19,37.89 34.19,37.89 C34.19,37.75 34.19,37.75 34.19,37.75 Z M31.37,37.75 C30.48,37.75 30.48,37.75 30.48,37.75 C30.43,37.75 30.43,37.75 30.43,37.75 C30.34,37.75 30.34,37.75 30.34,37.89 C30.34,38.74 30.34,38.74 30.34,38.74 C30.34,38.98 30.48,39.07 30.81,39.07 C31.23,39.07 31.23,39.07 31.23,39.07 C31.47,39.07 31.61,38.98 31.61,38.74 C31.61,38.13 31.61,38.13 31.61,38.13 C31.61,37.89 31.61,37.75 31.37,37.75 Z M34.75,38.86 C34.75,39.09 34.75,39.33 34.52,39.33 C34.19,39.33 34.19,39.33 34.19,39.33 C33.86,39.33 33.62,39.56 33.62,39.89 C33.62,41.07 33.62,41.07 33.62,41.07 C32.92,41.4 31.7,41.4 31.04,41.07 C31.04,39.89 31.04,39.89 31.04,39.89 C31.04,39.56 30.8,39.33 30.47,39.33 C30.05,39.33 30.05,39.33 30.05,39.33 C29.91,39.33 29.82,39.09 29.82,38.86 C29.82,37.78 29.82,37.78 29.82,37.78 C29.82,37.64 29.91,37.45 29.91,37.31 C30.62,37.36 31.46,37.45 32.26,37.45 C32.31,37.45 32.31,37.45 32.31,37.45 C33.2,37.45 34.05,37.36 34.75,37.31 C34.75,37.45 34.75,37.64 34.75,37.78 L34.75,38.86 Z M35.08,35.71 C34.28,33.03 34.28,33.03 34.28,33.03 C34.28,32.94 34.28,32.8 34.09,32.8 C30.62,32.8 30.62,32.8 30.62,32.8 C30.38,32.8 30.38,32.94 30.33,33.03 C29.49,35.71 29.49,35.71 29.49,35.71 C28.12,35.9 27.09,36.32 27.09,36.56 C27.09,36.79 27.98,37.03 29.2,37.21 C29.11,37.54 28.92,37.92 28.92,38.34 C28.92,38.58 29.11,39.09 29.2,39.33 C29.11,39.33 29.11,39.33 29.11,39.33 C28.78,39.33 28.55,39.56 28.55,39.89 C28.55,40.55 28.55,40.55 28.55,40.55 C28.08,40.55 27.79,41.07 27.79,41.44 C27.79,44.92 27.79,44.92 27.79,44.92 C27.79,45.49 28.12,45.91 28.64,45.91 C32.07,45.91 32.07,45.91 32.07,45.91 C32.07,41.44 32.07,41.44 32.07,41.44 C32.5,41.44 32.5,41.44 32.5,41.44 C32.5,45.91 32.5,45.91 32.5,45.91 C36.02,45.91 36.02,45.91 36.02,45.91 C36.44,45.91 36.87,45.49 36.87,44.92 C36.87,41.44 36.87,41.44 36.87,41.44 C36.87,41.07 36.54,40.55 36.11,40.55 C36.11,39.89 36.11,39.89 36.11,39.89 C36.11,39.56 35.79,39.33 35.64,39.33 C35.46,39.33 35.46,39.33 35.46,39.33 C35.55,39.09 35.64,38.58 35.64,38.34 C35.64,37.92 35.55,37.54 35.46,37.21 C36.68,37.03 37.43,36.79 37.43,36.56 C37.43,36.32 36.54,35.9 35.08,35.71 Z M54.67,31.39 C54.67,47.14 54.67,47.14 54.67,47.14 C54.67,49.02 54.67,49.02 54.67,49.02 C52.74,49.02 52.74,49.02 52.74,49.02 C42.16,49.02 42.16,49.02 42.16,49.02 C40.14,49.02 40.14,49.02 40.14,49.02 C40.14,47.14 40.14,47.14 40.14,47.14 C40.14,31.39 40.14,31.39 40.14,31.39 C40.14,29.33 40.14,29.33 40.14,29.33 C42.16,29.33 42.16,29.33 42.16,29.33 C52.74,29.33 52.74,29.33 52.74,29.33 C54.67,29.33 54.67,29.33 54.67,29.33 L54.67,31.39 Z M38.68,31.39 C38.68,47.14 38.68,47.14 38.68,47.14 C38.68,49.02 38.68,49.02 38.68,49.02 C36.66,49.02 36.66,49.02 36.66,49.02 C26.04,49.02 26.04,49.02 26.04,49.02 C24.21,49.02 24.21,49.02 24.21,49.02 C24.21,47.14 24.21,47.14 24.21,47.14 C24.21,31.39 24.21,31.39 24.21,31.39 C24.21,29.33 24.21,29.33 24.21,29.33 C26.04,29.33 26.04,29.33 26.04,29.33 C36.66,29.33 36.66,29.33 36.66,29.33 C38.68,29.33 38.68,29.33 38.68,29.33 L38.68,31.39 Z M65.15,18.37 C54.2,18.37 54.2,18.37 54.2,18.37 C53.68,18.37 53.21,18.61 52.88,18.94 C49.82,21.62 49.82,21.62 49.82,21.62 C49.49,21.95 49.12,22.23 48.6,22.23 C13.63,22.23 13.63,22.23 13.63,22.23 C12.6,22.23 11.61,23.12 11.61,24.15 C11.61,54.33 11.61,54.33 11.61,54.33 C11.61,55.46 12.6,56.4 13.63,56.4 C65.15,56.4 65.15,56.4 65.15,56.4 C66.27,56.4 67.07,55.46 67.07,54.33 C67.07,20.39 67.07,20.39 67.07,20.39 C67.07,19.36 66.27,18.37 65.15,18.37 Z M0,40 C0,17.96 18,0 40,0 C62.09,0 80,17.96 80,40 C80,62.14 62.09,80 40,80 C18,80 0,62.14 0,40 Z" fill="none" stroke="currentColor" stroke-width="1.5"/></svg>