<svg xmlns="http://www.w3.org/2000/svg" viewBox="0 0 80.15 64.55" width="24" height="24"><path d="M78.6,43.11 C76.75,42.94 74.74,42.54 74.22,42.25 C73.48,41.61 73.13,40.69 72.78,39.65 C72.33,38.27 71.69,36.49 69.85,35.45 C68.29,34.58 67.08,34.35 66.11,34.35 C65.47,30.32 63.91,26.62 61.62,23.4 C62.82,22.18 63.63,20.74 64.43,19.3 C65.3,17.76 66.11,16.32 67.43,15.1 C70.08,12.62 75.38,13.02 75.43,13.02 C76.35,13.14 77.15,12.45 77.27,11.58 C77.34,10.66 76.64,9.85 75.73,9.74 C75.43,9.74 68.92,9.16 65.19,12.68 C63.46,14.24 62.42,16.08 61.5,17.69 C60.86,18.9 60.23,19.94 59.49,20.74 C58.74,19.94 57.93,19.2 57.13,18.5 C55.62,12.45 50.96,7.67 45.03,5.88 C45.03,1.67 45.03,1.67 45.03,1.67 C45.03,0.8 44.22,0 43.3,0 C42.38,0 41.63,0.8 41.63,1.67 C41.63,5.24 41.63,5.24 41.63,5.24 C41.11,5.19 40.54,5.19 40.02,5.19 C39.5,5.19 39.04,5.19 38.53,5.24 C38.53,1.67 38.53,1.67 38.53,1.67 C38.53,0.8 37.84,0 36.92,0 C35.99,0 35.19,0.8 35.19,1.67 C35.19,5.82 35.19,5.82 35.19,5.82 C29.08,7.55 24.36,12.45 22.92,18.68 C22.12,19.3 21.42,20.05 20.73,20.81 C19.92,19.94 19.35,18.9 18.72,17.69 C17.8,16.08 16.76,14.24 15.03,12.68 C11.29,9.16 4.72,9.74 4.49,9.74 C3.57,9.85 2.88,10.66 2.93,11.58 C3.05,12.45 3.86,13.14 4.78,13.02 C6.22,12.92 10.54,13.02 12.79,15.1 C14.11,16.32 14.91,17.76 15.78,19.3 C16.59,20.74 17.39,22.18 18.55,23.4 C16.29,26.62 14.75,30.32 14.11,34.35 C13.14,34.35 11.92,34.58 10.37,35.45 C8.46,36.49 7.89,38.27 7.37,39.65 C7.02,40.69 6.74,41.61 5.98,42.25 C5.48,42.54 3.45,42.94 1.61,43.11 C0.69,43.22 0,44.03 0.12,44.95 C0.17,45.82 0.92,46.46 1.79,46.46 C1.79,46.46 1.84,46.39 1.96,46.39 C4.14,46.22 7.09,45.7 8.18,44.78 C9.62,43.51 10.14,41.95 10.54,40.74 C10.99,39.49 11.29,38.73 11.98,38.33 C12.72,37.93 13.3,37.75 13.82,37.69 C13.82,37.98 13.82,38.15 13.82,38.45 C13.82,42.89 14.91,47.09 16.87,50.78 C15.6,52.22 15.15,54.11 14.8,55.79 C14.51,56.94 14.28,58.1 13.76,59.14 C12.5,61.72 7.26,61.2 7.2,61.2 C6.28,61.03 5.48,61.72 5.36,62.59 C5.24,63.51 5.88,64.38 6.8,64.43 C6.85,64.5 7.49,64.55 8.35,64.55 C10.71,64.55 15.08,64.03 16.76,60.58 C17.45,59.19 17.73,57.75 18.03,56.48 C18.25,55.39 18.48,54.47 18.83,53.78 C23.61,60.35 31.39,64.55 40.08,64.55 C48.83,64.55 56.61,60.35 61.38,53.83 C61.73,54.52 61.95,55.39 62.19,56.48 C62.47,57.75 62.76,59.19 63.46,60.58 C65.12,64.03 69.5,64.55 71.86,64.55 C72.73,64.55 73.3,64.5 73.42,64.43 C74.34,64.38 74.97,63.51 74.86,62.59 C74.74,61.72 73.94,61.03 73.01,61.2 C72.96,61.2 67.72,61.72 66.45,59.14 C65.93,58.1 65.71,56.94 65.41,55.79 C65.07,54.11 64.6,52.22 63.34,50.78 C65.3,47.09 66.45,42.89 66.45,38.45 C66.45,38.15 66.39,37.98 66.39,37.69 C66.91,37.75 67.48,37.93 68.17,38.33 C68.92,38.73 69.21,39.49 69.61,40.74 C70.08,41.95 70.6,43.51 72.04,44.78 C73.13,45.7 76.01,46.22 78.26,46.39 C78.31,46.39 78.37,46.46 78.43,46.46 C79.3,46.46 80.04,45.82 80.1,44.95 C80.15,44.03 79.52,43.22 78.6,43.11 Z M54.82,40.81 C54.47,42.65 53.84,44.38 52.86,46 C52.86,46 52.86,46 55.56,51.53 C55.56,51.53 55.56,51.53 49.63,49.8 C48.31,50.89 46.81,51.7 45.2,52.28 C45.2,52.28 45.2,52.28 43.65,58.1 C43.65,58.1 43.65,58.1 40.77,53.09 C40.77,53.09 40.77,53.09 40.48,53.09 C38.81,53.09 37.2,52.85 35.7,52.28 C35.7,52.28 35.7,52.28 29.08,56.94 C29.08,56.94 29.08,56.94 31.38,49.92 C29.94,48.7 28.73,47.26 27.81,45.53 C27.81,45.53 27.81,45.53 21.31,45.41 C21.31,45.41 21.31,45.41 26.25,41.73 C26.03,40.57 25.85,39.42 25.85,38.21 C25.85,37.24 25.97,36.31 26.15,35.39 C26.15,35.39 26.15,35.39 21.19,31.64 C21.19,31.64 21.19,31.64 27.36,31.64 C28.33,29.57 29.77,27.84 31.5,26.45 C31.5,26.45 31.5,26.45 30.41,20.63 C30.41,20.63 30.41,20.63 34.43,24.61 C36.27,23.75 38.3,23.28 40.43,23.28 C40.43,23.28 40.43,23.28 41.23,23.28 C41.23,23.28 41.23,23.28 44.52,19.36 C44.52,19.36 44.52,19.36 44.92,24.04 C47.1,24.72 49.06,26 50.67,27.55 C50.67,27.55 50.67,27.55 55.51,26 C55.51,26 55.51,26 52.91,30.49 C54.02,32.33 54.76,34.52 54.99,36.77 C54.99,36.77 54.99,36.77 59.89,38.79 C59.89,38.79 59.89,38.79 54.82,40.81 Z M50.45,34.93 C49.86,34.93 49.35,35.45 49.35,36.08 C49.35,36.72 49.86,37.24 50.45,37.24 C51.07,37.24 51.59,36.72 51.59,36.08 C51.59,35.45 51.07,34.93 50.45,34.93 Z M45.32,34.93 C44.69,34.93 44.17,35.45 44.17,36.08 C44.17,36.72 44.69,37.24 45.32,37.24 C45.96,37.24 46.46,36.72 46.46,36.08 C46.46,35.45 45.96,34.93 45.32,34.93 Z M40.19,34.93 C39.56,34.93 39.04,35.45 39.04,36.08 C39.04,36.72 39.56,37.24 40.19,37.24 C40.83,37.24 41.28,36.72 41.28,36.08 C41.28,35.45 40.83,34.93 40.19,34.93 Z M35.01,34.93 C34.38,34.93 33.91,35.45 33.91,36.08 C33.91,36.72 34.38,37.24 35.01,37.24 C35.64,37.24 36.16,36.72 36.16,36.08 C36.16,35.45 35.64,34.93 35.01,34.93 Z M29.89,34.93 C29.25,34.93 28.73,35.45 28.73,36.08 C28.73,36.72 29.25,37.24 29.89,37.24 C30.52,37.24 31.04,36.72 31.04,36.08 C31.04,35.45 30.52,34.93 29.89,34.93 Z M29.89,42.19 C30.52,42.19 31.04,41.73 31.04,41.04 C31.04,40.4 30.52,39.88 29.89,39.88 C29.25,39.88 28.73,40.4 28.73,41.04 C28.73,41.73 29.25,42.19 29.89,42.19 Z M35.01,42.19 C35.64,42.19 36.16,41.73 36.16,41.04 C36.16,40.4 35.64,39.88 35.01,39.88 C34.38,39.88 33.91,40.4 33.91,41.04 C33.91,41.73 34.38,42.19 35.01,42.19 Z M40.19,42.19 C40.83,42.19 41.28,41.73 41.28,41.04 C41.28,40.4 40.83,39.88 40.19,39.88 C39.56,39.88 39.04,40.4 39.04,41.04 C39.04,41.73 39.56,42.19 40.19,42.19 Z M27.41,39.01 L52.98,39.01 C53.15,39.01 53.27,38.9 53.27,38.73 C53.27,38.5 53.15,38.33 52.98,38.33 C52.98,38.33 52.98,38.33 27.41,38.33 C27.24,38.33 27.06,38.5 27.06,38.73 C27.06,38.9 27.24,39.01 27.41,39.01 Z M45.32,42.19 C45.96,42.19 46.46,41.73 46.46,41.04 C46.46,40.4 45.96,39.88 45.32,39.88 C44.69,39.88 44.17,40.4 44.17,41.04 C44.17,41.73 44.69,42.19 45.32,42.19 Z M50.45,42.19 C51.07,42.19 51.59,41.73 51.59,41.04 C51.59,40.4 51.07,39.88 50.45,39.88 C49.86,39.88 49.35,40.4 49.35,41.04 C49.35,41.73 49.86,42.19 50.45,42.19 Z" fill="none" stroke="currentColor" stroke-width="1.5"/></svg>