<svg xmlns="http://www.w3.org/2000/svg" viewBox="0 0 78.04 80.0" width="24" height="24"><path d="M66.77,40.11 C66.82,39.58 66.82,39.05 66.82,38.52 C66.82,37.53 66.77,36.52 66.65,35.53 C71.46,32.47 78.04,34.06 78.04,34.06 C73.75,29.29 67.81,30.35 65.71,30.95 C65.41,29.94 65.06,29.05 64.65,28.11 C67.47,26.53 71.69,27.17 71.69,27.17 C69.76,23.94 64.36,24.11 62.65,24.3 C62.24,23.65 61.77,23 61.29,22.41 C63.71,21.17 68.34,17.53 66.58,8.24 C66.58,8.24 66.05,15.64 57.24,18.23 C56.25,17.41 55.31,16.7 54.18,16 C56.01,13 58.23,6.82 53.31,0 C53.31,0 55.31,7.83 48.07,13.23 C46.66,12.77 45.2,12.47 43.66,12.24 C43.32,10.77 42.72,6.94 45.01,3.06 C45.01,3.06 39.2,4.41 39.26,12 C38.32,12 37.32,12.12 36.38,12.24 C34.73,0.99 23.69,2.89 23.69,2.89 C30.15,5.71 30.51,11.53 30.44,13.71 C28.32,14.47 26.39,15.53 24.56,16.76 C23.39,15.88 20.75,13.23 21.63,7.88 C21.63,7.88 17.05,13.71 21.34,19.41 C20.45,20.23 19.63,21.17 18.86,22.06 C17.1,20.76 11.7,17.59 6.99,23.06 C6.99,23.06 14.28,20.23 16.4,25.7 C15.63,27.12 14.98,28.64 14.45,30.18 C12.11,31.29 4.65,34.11 2.29,26.23 C2.29,26.23 0,36.64 13.29,35.36 C13.22,35.89 13.17,36.4 13.1,36.93 C10.93,36.71 2.89,36.52 1.59,44.29 C1.59,44.29 3.93,38.18 13.29,41.58 C13.46,43.24 13.82,44.88 14.28,46.41 C13.29,47.46 10.4,49.65 5.18,46.71 C4.99,46.59 6.65,52.64 16.16,50.88 C16.33,51.23 16.52,51.53 16.69,51.88 C15.29,53.12 12.11,56.7 13.41,62.35 C13.41,62.35 14.16,57.53 19.27,55.53 C20.22,56.65 21.22,57.64 22.33,58.58 C22.16,60.53 21.16,64.65 15.99,65.83 C15.99,65.83 23.16,67.52 26.34,61.41 C26.63,61.59 26.97,61.82 27.33,62 C23.63,72.29 29.57,78.75 29.57,78.75 C28.15,68.87 31.67,65.18 32.91,64.17 C33.62,64.36 34.26,64.53 34.97,64.65 C35.44,65.35 36.38,67.06 36.09,69.11 C35.67,71.76 34.2,76.65 35.91,80 C35.91,80 36.5,75.23 37.68,73.76 C38.84,72.29 39.97,70.41 39.97,68.53 C39.97,67.35 39.85,66 39.68,65.11 C39.78,65.11 39.85,65.11 39.97,65.11 C40.72,65.11 41.49,65.06 42.26,64.99 C42.67,65.88 42.79,66.7 42.91,67.71 C43.08,68.99 42.67,70.12 42.14,73.11 C41.61,76.17 43.49,78.53 43.49,78.53 C43.25,77.23 43.13,76.41 43.32,74.7 C43.49,73.06 45.66,70.94 46.55,68.58 C47.19,66.82 46.66,65.11 46.37,64.36 C46.84,64.24 47.37,64.12 47.84,63.94 C51.66,68.53 49.6,75.23 49.6,75.23 C53.89,70.77 52.3,64.05 51.84,62.35 C52.37,62.12 52.9,61.82 53.36,61.52 C58.18,65.41 56.88,72.94 56.88,72.94 C61,64.58 57.94,60.12 57,59.06 C57.41,58.76 57.7,58.47 58.06,58.17 C60.47,65.47 66.41,61.76 66.41,61.76 C62.12,61.35 61.71,55.76 61.71,54.17 C62.29,53.35 62.88,52.47 63.35,51.58 C68.34,51.7 69.11,55.64 69.11,55.64 C70.58,49.94 66.77,48.41 65.06,48.06 C65.35,47.29 65.59,46.52 65.83,45.7 C74.63,46.59 75.87,39.53 75.87,39.53 C72.29,42.88 68.41,41.17 66.77,40.11 Z M49.6,50.18 C49.66,50.18 49.78,50 49.84,49.88 C49.54,50.23 49.31,50.52 48.9,50.83 C49.19,50.59 49.43,50.35 49.6,50.18 Z M31.49,50.3 L31.97,50.83 C31.61,50.47 31.27,50.06 31.03,49.88 C31.15,50.06 31.27,50.3 31.49,50.3 Z M38.32,31.06 L38.32,27.35 C38.32,27.35 38.32,27.35 36.67,27.35 C36.67,27.35 36.67,27.35 36.67,26.53 C37.26,26.53 37.67,26.41 37.97,26.17 C38.2,26.05 38.38,25.83 38.5,25.4 C38.5,25.4 38.5,25.4 39.49,25.4 C39.49,25.4 39.49,25.4 39.49,31.06 C39.49,31.06 39.49,31.06 38.32,31.06 Z M31.39,35.76 C31.61,35.59 31.8,35.29 31.92,34.82 C31.92,34.82 31.92,34.82 32.91,34.82 C32.91,34.82 32.91,34.82 32.91,41.41 C32.91,41.41 32.91,41.41 31.68,41.41 C31.68,41.41 31.68,41.41 31.68,37.06 C31.68,37.06 31.68,37.06 30.09,37.06 C30.09,37.06 30.09,37.06 30.09,36.06 C30.67,36.06 31.08,36 31.39,35.76 Z M36.96,46.06 C37.26,45.88 37.32,45.58 37.49,45.17 C37.49,45.17 37.49,45.17 38.55,45.17 C38.55,45.17 38.55,45.17 38.55,51.77 C38.55,51.77 38.55,51.77 37.32,51.77 C37.32,51.77 37.32,51.77 37.32,47.41 C37.32,47.41 37.32,47.41 35.73,47.41 C35.73,47.41 35.73,47.41 35.73,46.41 C36.32,46.41 36.73,46.3 36.96,46.06 Z M47.37,41.59 C47.43,41.47 47.48,41.35 47.48,41.18 C47.48,40.89 47.43,40.7 47.26,40.53 C47.07,40.41 46.78,40.29 46.37,40.17 C46.37,40.17 46.37,40.17 46.37,42.17 C46.54,42.17 46.66,42.12 46.78,42.12 C46.9,42.05 47.02,42 47.14,41.95 C47.26,41.83 47.31,41.71 47.37,41.59 Z M45.84,38.58 L45.84,36.88 C45.67,36.88 45.55,36.88 45.49,36.94 C45.37,36.94 45.25,37 45.14,37.11 C45.08,37.18 45.02,37.23 44.96,37.35 C44.9,37.41 44.9,37.59 44.9,37.71 C44.9,37.94 44.96,38.12 45.08,38.24 C45.25,38.41 45.49,38.47 45.84,38.58 Z M48.9,40.65 C48.9,40.89 48.9,41.06 48.9,41.23 C48.9,41.42 48.9,41.59 48.83,41.83 C48.78,42 48.61,42.29 48.42,42.46 C48.25,42.7 47.96,42.89 47.67,43.06 C47.31,43.23 46.9,43.35 46.37,43.42 C46.37,43.42 46.37,43.42 46.37,44.24 C46.37,44.24 46.37,44.24 45.84,44.24 C45.84,44.24 45.84,44.24 45.84,43.42 C45.08,43.3 44.43,43.06 44.02,42.65 C43.61,42.24 43.37,41.64 43.25,40.82 C43.25,40.82 43.25,40.82 44.72,40.82 C44.72,41.23 44.84,41.52 45.02,41.76 C45.25,42 45.49,42.12 45.84,42.17 C45.84,42.17 45.84,42.17 45.84,40 C45.78,40 45.72,40 45.67,39.95 C45.6,39.95 45.55,39.95 45.49,39.95 C45.25,39.88 45.02,39.76 44.72,39.71 C44.49,39.59 44.25,39.47 44.08,39.3 C43.9,39.18 43.78,39 43.61,38.7 C43.55,38.47 43.43,38.24 43.43,37.88 C43.43,37.52 43.55,37.18 43.67,36.94 C43.78,36.65 43.96,36.41 44.19,36.24 C44.43,36.05 44.66,35.94 44.9,35.83 C45.19,35.71 45.49,35.64 45.84,35.64 C45.84,35.64 45.84,35.64 45.84,34.82 C45.84,34.82 45.84,34.82 46.37,34.82 C46.37,34.82 46.37,34.82 46.37,35.64 C46.73,35.71 46.95,35.76 47.26,35.88 C47.55,36 47.78,36.05 47.96,36.24 C48.2,36.47 48.37,36.65 48.42,36.94 C48.61,37.18 48.66,37.52 48.66,37.88 C48.66,37.88 48.66,37.88 47.26,37.88 C47.26,37.59 47.14,37.35 46.95,37.18 C46.84,36.94 46.61,36.88 46.37,36.88 C46.37,36.88 46.37,36.88 46.37,38.7 C46.49,38.7 46.54,38.7 46.66,38.77 C46.73,38.77 46.84,38.82 46.9,38.82 C47.43,39 47.78,39.18 48.08,39.35 C48.37,39.52 48.54,39.76 48.66,40 C48.78,40.17 48.9,40.41 48.9,40.65 Z M55.47,39.99 C55.59,39.36 55.66,38.76 55.66,38.11 C55.66,37.53 55.59,36.88 55.47,36.3 C55.47,36.11 55.47,35.89 55.42,35.77 C55.47,35.89 55.47,36.06 55.47,36.3 C55.47,36.3 55.47,36.3 55.47,36.35 C55.3,36.71 55.18,37.29 55.18,38.11 C55.18,39 55.3,39.58 55.47,39.99 Z M55.18,41.94 C55.18,41.7 55.3,41.46 55.3,41.24 C55.01,41.12 54.77,40.88 54.53,40.64 C54.36,41.77 54,42.88 53.37,43.89 C53.37,43.89 53.37,43.89 54.12,44.71 C54.6,43.82 54.89,42.88 55.18,41.94 Z M37.91,40.42 C37.79,38.95 38.03,37.47 38.56,36.11 C38.37,36.06 38.25,35.94 38.03,35.94 C37.31,35.94 36.97,36.71 36.97,38.11 C36.97,39.58 37.26,40.3 37.91,40.42 Z M46.25,31 C48.36,31 50.55,31.82 52.24,33.47 C53.06,34.35 53.71,35.41 54.12,36.52 C54.19,36.23 54.3,36 54.48,35.77 C54.72,35.47 54.94,35.24 55.3,35.12 C55.18,34.64 55.13,34.11 54.94,33.65 C54.65,32.71 54.3,31.82 53.83,30.94 C53.59,30.53 53.37,30.12 53.06,29.65 C52.65,29.06 52.19,28.41 51.66,27.82 C51.66,27.82 51.66,27.82 51.66,31.59 C51.66,31.59 51.66,31.59 50.36,31.59 C50.36,31.59 50.36,31.59 50.36,27.41 C50.36,27.41 50.36,27.41 48.78,27.41 C48.78,27.41 48.78,27.41 48.78,26.47 C49.25,26.47 49.66,26.41 49.9,26.23 C47.37,24.23 44.19,23.06 40.73,23.06 C37.91,23.06 35.33,23.82 33.03,25.18 C33.74,25.23 34.27,25.53 34.61,26.06 C35.02,26.59 35.21,27.41 35.21,28.41 C35.21,29.41 35.02,30.18 34.61,30.71 C34.2,31.35 33.62,31.65 32.85,31.65 C32.03,31.65 31.44,31.41 31.03,30.76 C30.68,30.18 30.44,29.41 30.44,28.41 C30.44,27.94 30.5,27.47 30.62,27.06 C29.74,27.82 29.03,28.76 28.38,29.65 C28.09,30.12 27.85,30.47 27.68,30.88 C27.68,30.88 27.68,30.88 27.68,30.88 C27.68,30.88 27.68,30.88 27.68,30.94 C27.63,30.94 27.63,30.94 27.63,30.94 C27.63,31 27.56,31 27.56,31.12 C27.63,31 27.63,30.94 27.68,30.94 C27.68,30.88 27.68,30.88 27.68,30.88 C27.68,30.88 27.68,30.88 27.68,31.59 C27.68,31.59 27.68,31.59 27.32,31.59 C26.98,32.23 26.74,32.94 26.45,33.65 C26.38,34.06 26.26,34.53 26.16,34.88 C26.16,34.88 26.16,34.88 26.21,34.88 C26.98,34.88 27.56,35.17 28.04,35.82 C28.38,36.41 28.57,37.12 28.57,38.11 C28.57,39.12 28.38,39.94 28.04,40.47 C27.63,41.12 26.98,41.41 26.21,41.41 C26.21,41.41 26.21,41.41 26.16,41.41 C26.16,41.29 26.09,41.12 26.09,40.95 C26.16,41.12 26.16,41.24 26.16,41.41 C26.16,41.41 26.16,41.41 26.16,41.41 C26.21,41.58 26.26,41.77 26.33,41.94 C26.57,42.93 26.91,43.89 27.32,44.83 C27.32,44.83 27.32,44.83 27.85,44.83 C27.85,44.83 27.85,44.83 27.85,45.77 C28.04,46.06 28.21,46.35 28.38,46.59 C28.79,47.24 29.21,47.82 29.68,48.35 C29.85,48.52 30.03,48.64 30.21,48.81 C30.27,49 30.44,49.12 30.56,49.24 C30.68,49.34 30.8,49.46 30.97,49.58 C30.74,49.34 30.56,49.24 30.38,49.05 C30.27,48.64 30.27,48.35 30.27,47.94 C30.27,46.88 30.5,46.11 30.86,45.53 C31.33,44.93 31.85,44.64 32.68,44.64 C33.44,44.64 34.03,44.93 34.39,45.53 C34.8,46.11 35.02,46.88 35.02,47.94 C35.02,48.88 34.85,49.65 34.5,50.23 C34.08,50.76 33.67,51 33.03,51.12 C33.44,51.34 33.86,51.58 34.27,51.82 C34.73,51.99 35.14,52.23 35.62,52.35 C36.32,52.59 37.02,52.82 37.74,52.93 C38.25,53.05 38.73,53.17 39.19,53.24 C39.72,53.29 40.2,53.29 40.73,53.29 C41.26,53.29 41.79,53.29 42.25,53.24 C42.73,53.17 43.26,53.05 43.72,52.93 C44.43,52.82 45.13,52.59 45.9,52.35 C46.31,52.23 46.72,51.99 47.2,51.82 C47.9,51.41 48.6,51 49.25,50.52 C49.25,50.47 49.13,50.35 49.08,50.3 C48.67,49.7 48.48,48.88 48.48,47.94 C48.48,47.94 48.48,47.94 48.48,47.58 C47.84,47.77 47.2,47.82 46.48,47.82 C46.48,47.82 46.48,47.82 46.48,47.94 C46.48,48.88 46.31,49.65 45.9,50.23 C45.49,50.81 44.9,51.12 44.08,51.12 C43.31,51.12 42.73,50.88 42.32,50.3 C41.9,49.7 41.67,48.88 41.67,47.94 C41.67,47.41 41.79,47 41.9,46.59 C41.38,46.3 40.85,45.87 40.32,45.46 C39.19,44.3 38.44,42.88 38.15,41.41 C38.15,41.41 38.15,41.41 38.03,41.41 C37.26,41.41 36.68,41.12 36.27,40.52 C35.86,39.94 35.67,39.17 35.67,38.11 C35.67,37.12 35.86,36.35 36.27,35.77 C36.68,35.17 37.26,34.88 38.03,34.88 C38.37,34.88 38.73,34.94 39.09,35.12 C39.43,34.53 39.84,34 40.32,33.47 C41.31,32.53 42.37,31.82 43.55,31.41 C43.26,31.29 43.08,31.12 42.84,30.76 C42.43,30.18 42.2,29.41 42.2,28.41 C42.2,27.41 42.43,26.59 42.84,26.06 C43.26,25.47 43.84,25.18 44.61,25.18 C45.37,25.18 46.02,25.47 46.43,26.06 C46.78,26.59 47.01,27.41 47.01,28.41 C47.01,29.41 46.84,30.18 46.43,30.71 C46.43,30.82 46.31,30.88 46.19,31 C46.19,31 46.19,31 46.25,31 Z M43.55,28.41 C43.55,29.88 43.9,30.64 44.61,30.64 C45.37,30.64 45.66,29.88 45.66,28.41 C45.66,26.94 45.37,26.23 44.61,26.23 C43.9,26.23 43.55,26.94 43.55,28.41 Z M45.13,47.82 C44.43,47.7 43.72,47.46 43.08,47.24 C43.02,47.41 43.02,47.65 43.02,47.94 C43.02,49.34 43.37,50.11 44.08,50.11 C44.84,50.11 45.13,49.34 45.13,47.94 C45.13,47.94 45.13,47.94 45.13,47.82 Z M50.31,43.46 C52.48,41.24 52.48,37.65 50.31,35.41 C49.2,34.3 47.78,33.7 46.25,33.7 C44.72,33.7 43.31,34.3 42.25,35.41 C41.14,36.41 40.55,37.89 40.55,39.48 C40.55,40.95 41.14,42.42 42.25,43.46 C43.31,44.52 44.72,45.17 46.25,45.17 C47.78,45.17 49.2,44.52 50.31,43.46 Z M31.56,47.94 C31.56,49.34 31.91,50.11 32.68,50.11 C33.38,50.11 33.74,49.34 33.74,47.94 C33.74,46.4 33.38,45.7 32.68,45.7 C31.91,45.7 31.56,46.4 31.56,47.94 Z M25.85,38.11 C25.85,38.95 25.85,39.58 26.04,40.3 C26.04,40.42 26.16,40.42 26.21,40.42 C26.98,40.42 27.32,39.58 27.32,38.11 C27.32,36.71 26.98,35.94 26.21,35.94 C26.16,35.94 26.04,35.94 26.04,36 C25.85,36.71 25.85,37.41 25.85,38.11 Z M32.85,26.23 C32.09,26.23 31.74,26.94 31.74,28.41 C31.74,29.88 32.09,30.64 32.85,30.64 C33.56,30.64 33.91,29.88 33.91,28.41 C33.91,26.94 33.56,26.23 32.85,26.23 Z M59.65,50.35 C60.18,50.81 60.18,51.7 59.65,52.29 C59.65,52.29 59.59,52.35 59,52.93 C58.47,53.53 57.59,53.53 57.06,52.93 C57.06,52.93 57.06,52.93 51.13,47.05 C50.96,46.88 50.84,46.76 50.65,46.59 C50.43,46.76 50.14,46.93 49.83,47.12 C49.78,47.29 49.78,47.58 49.78,47.94 C49.78,48.81 49.95,49.46 50.19,49.82 C50.55,49.58 50.84,49.24 51.13,49 C51.71,49.58 52.24,50.11 52.77,50.59 C49.66,53.7 45.43,55.53 40.73,55.53 C31.27,55.53 23.51,47.77 23.51,38.11 C23.51,33.53 25.34,29.17 28.57,25.82 C31.85,22.58 36.15,20.7 40.73,20.7 C50.19,20.7 57.95,28.53 57.95,38.11 C57.95,41.17 57.18,43.99 55.83,46.4 C56.77,47.34 57.95,48.64 59.65,50.35 Z" fill="none" stroke="currentColor" stroke-width="1.5"/></svg>