<svg xmlns="http://www.w3.org/2000/svg" viewBox="0 0 78.04 80.0" width="24" height="24"><path d="M66.77,40.11 C66.82,39.58 66.82,39.05 66.82,38.52 C66.82,37.53 66.77,36.52 66.65,35.53 C71.46,32.47 78.04,34.06 78.04,34.06 C73.75,29.29 67.81,30.35 65.71,30.88 C65.41,29.94 65.06,29 64.65,28.11 C67.47,26.53 71.69,27.17 71.69,27.17 C69.76,23.94 64.36,24.11 62.65,24.3 C62.24,23.59 61.77,23 61.29,22.41 C63.71,21.17 68.34,17.53 66.58,8.24 C66.58,8.24 66.05,15.64 57.24,18.18 C56.25,17.41 55.31,16.7 54.18,16 C56.01,13 58.23,6.82 53.31,0 C53.31,0 55.31,7.76 48.07,13.23 C46.66,12.77 45.2,12.47 43.66,12.24 C43.32,10.77 42.72,6.94 45.01,3.06 C45.01,3.06 39.2,4.41 39.26,12 C38.32,12 37.32,12.05 36.38,12.24 C34.73,0.99 23.69,2.89 23.69,2.89 C30.15,5.64 30.51,11.53 30.44,13.71 C28.32,14.47 26.39,15.53 24.56,16.76 C23.39,15.88 20.75,13.23 21.63,7.88 C21.63,7.88 17.05,13.64 21.34,19.41 C20.45,20.23 19.63,21.12 18.86,22.06 C17.1,20.76 11.7,17.59 6.99,23.06 C6.99,23.06 14.28,20.23 16.4,25.7 C15.63,27.12 14.98,28.64 14.45,30.18 C12.11,31.29 4.65,34.11 2.29,26.23 C2.29,26.23 0,36.59 13.29,35.36 C13.22,35.89 13.17,36.4 13.1,36.88 C10.93,36.71 2.89,36.52 1.59,44.29 C1.59,44.29 3.93,38.18 13.29,41.58 C13.46,43.24 13.82,44.82 14.28,46.41 C13.29,47.46 10.4,49.65 5.18,46.71 C4.99,46.52 6.65,52.59 16.16,50.88 C16.33,51.17 16.52,51.53 16.69,51.82 C15.29,53.12 12.11,56.65 13.41,62.29 C13.41,62.29 14.16,57.53 19.27,55.53 C20.22,56.58 21.22,57.64 22.33,58.58 C22.16,60.53 21.16,64.65 15.99,65.83 C15.99,65.83 23.16,67.52 26.34,61.41 C26.63,61.59 26.97,61.82 27.33,62 C23.63,72.24 29.57,78.75 29.57,78.75 C28.15,68.87 31.67,65.18 32.91,64.17 C33.62,64.36 34.26,64.46 34.97,64.65 C35.44,65.35 36.38,67.06 36.09,69.06 C35.67,71.76 34.2,76.65 35.91,80 C35.91,80 36.5,75.23 37.68,73.76 C38.84,72.29 39.97,70.41 39.97,68.53 C39.97,67.3 39.85,66 39.68,65.11 C39.78,65.11 39.85,65.11 39.97,65.11 C40.72,65.11 41.49,65.06 42.26,64.99 C42.67,65.88 42.79,66.7 42.91,67.71 C43.08,68.99 42.67,70.12 42.14,73.11 C41.61,76.17 43.49,78.46 43.49,78.46 C43.25,77.23 43.13,76.41 43.32,74.7 C43.49,73.06 45.66,70.94 46.55,68.58 C47.19,66.77 46.66,65.11 46.37,64.36 C46.84,64.17 47.37,64.05 47.84,63.94 C51.66,68.53 49.6,75.18 49.6,75.18 C53.89,70.77 52.3,64.05 51.84,62.35 C52.37,62.12 52.9,61.82 53.36,61.52 C58.18,65.41 56.88,72.94 56.88,72.94 C61,64.58 57.94,60.12 57,59.06 C57.41,58.76 57.7,58.47 58.06,58.17 C60.47,65.41 66.41,61.76 66.41,61.76 C62.12,61.35 61.71,55.76 61.71,54.11 C62.29,53.35 62.88,52.47 63.35,51.58 C68.34,51.7 69.11,55.64 69.11,55.64 C70.58,49.94 66.77,48.41 65.06,48.06 C65.35,47.29 65.59,46.52 65.83,45.7 C74.63,46.59 75.87,39.46 75.87,39.46 C72.29,42.88 68.41,41.12 66.77,40.11 Z M50.6,42.11 C51.25,42.11 51.71,41.58 51.71,40.93 C51.71,40.3 51.25,39.77 50.6,39.77 C49.95,39.77 49.42,40.3 49.42,40.93 C49.42,41.58 49.95,42.11 50.6,42.11 Z M45.32,42.11 C45.96,42.11 46.48,41.58 46.48,40.93 C46.48,40.3 45.96,39.77 45.32,39.77 C44.67,39.77 44.19,40.3 44.19,40.93 C44.19,41.58 44.67,42.11 45.32,42.11 Z M27.03,38.88 L53.13,38.88 C53.3,38.88 53.48,38.76 53.48,38.59 C53.48,38.35 53.3,38.18 53.13,38.18 C53.13,38.18 53.13,38.18 27.03,38.18 C26.86,38.18 26.68,38.35 26.68,38.59 C26.68,38.76 26.86,38.88 27.03,38.88 Z M40.08,42.11 C40.67,42.11 41.26,41.58 41.26,40.93 C41.26,40.3 40.67,39.77 40.08,39.77 C39.43,39.77 38.9,40.3 38.9,40.93 C38.9,41.58 39.43,42.11 40.08,42.11 Z M34.8,42.11 C35.43,42.11 35.96,41.58 35.96,40.93 C35.96,40.3 35.43,39.77 34.8,39.77 C34.2,39.77 33.62,40.3 33.62,40.93 C33.62,41.58 34.2,42.11 34.8,42.11 Z M29.56,42.11 C30.15,42.11 30.68,41.58 30.68,40.93 C30.68,40.3 30.15,39.77 29.56,39.77 C28.92,39.77 28.39,40.3 28.39,40.93 C28.39,41.58 28.92,42.11 29.56,42.11 Z M29.56,34.71 C28.92,34.71 28.39,35.24 28.39,35.89 C28.39,36.52 28.92,37.05 29.56,37.05 C30.15,37.05 30.68,36.52 30.68,35.89 C30.68,35.24 30.15,34.71 29.56,34.71 Z M34.8,34.71 C34.2,34.71 33.62,35.24 33.62,35.89 C33.62,36.52 34.2,37.05 34.8,37.05 C35.43,37.05 35.96,36.52 35.96,35.89 C35.96,35.24 35.43,34.71 34.8,34.71 Z M40.08,34.71 C39.43,34.71 38.9,35.24 38.9,35.89 C38.9,36.52 39.43,37.05 40.08,37.05 C40.67,37.05 41.26,36.52 41.26,35.89 C41.26,35.24 40.67,34.71 40.08,34.71 Z M45.32,34.71 C44.67,34.71 44.19,35.24 44.19,35.89 C44.19,36.52 44.67,37.05 45.32,37.05 C45.96,37.05 46.48,36.52 46.48,35.89 C46.48,35.24 45.96,34.71 45.32,34.71 Z M50.6,34.71 C49.95,34.71 49.42,35.24 49.42,35.89 C49.42,36.52 49.95,37.05 50.6,37.05 C51.25,37.05 51.71,36.52 51.71,35.89 C51.71,35.24 51.25,34.71 50.6,34.71 Z M55.01,40.71 C54.71,42.59 54.01,44.35 53.06,45.99 C53.06,45.99 53.06,45.99 55.77,51.64 C55.77,51.64 55.77,51.64 49.71,49.88 C48.36,50.94 46.84,51.82 45.2,52.41 C45.2,52.41 45.2,52.41 43.55,58.35 C43.55,58.35 43.55,58.35 40.67,53.23 C40.67,53.23 40.67,53.23 40.37,53.23 C38.66,53.23 37.02,52.94 35.5,52.41 C35.5,52.41 35.5,52.41 28.74,57.18 C28.74,57.18 28.74,57.18 31.09,50 C29.62,48.76 28.39,47.29 27.39,45.53 C27.39,45.53 27.39,45.53 20.81,45.41 C20.81,45.41 20.81,45.41 25.8,41.58 C25.56,40.47 25.44,39.24 25.44,37.99 C25.44,37.05 25.51,36.11 25.75,35.17 C25.75,35.17 25.75,35.17 20.69,31.29 C20.69,31.29 20.69,31.29 26.98,31.29 C27.97,29.24 29.44,27.47 31.15,26.06 C31.15,26.06 31.15,26.06 30.09,20.12 C30.09,20.12 30.09,20.12 34.2,24.18 C36.08,23.29 38.15,22.82 40.32,22.82 C40.32,22.82 40.32,22.82 41.14,22.82 C41.14,22.82 41.14,22.82 44.55,18.82 C44.55,18.82 44.55,18.82 44.9,23.53 C47.13,24.3 49.13,25.53 50.77,27.17 C50.77,27.17 50.77,27.17 55.77,25.58 C55.77,25.58 55.77,25.58 53.06,30.11 C54.19,32.06 54.95,34.23 55.18,36.59 C55.18,36.59 55.18,36.59 60.18,38.64 C60.18,38.64 60.18,38.64 55.01,40.71 Z" fill="none" stroke="currentColor" stroke-width="1.5"/></svg>