<svg xmlns="http://www.w3.org/2000/svg" viewBox="0 0 81.16 76.22" width="24" height="24"><path d="M45.72,20.75 C44.63,21.82 43.98,23.23 43.11,24.47 C40.56,28.61 37.6,32.48 35.08,36.64 C34.37,37.66 33.83,38.86 32.96,39.71 C32.57,40.06 32.06,40.14 31.53,40.12 C28.9,40.1 26.26,40.17 23.65,40.09 C23.13,39.82 22.79,39.29 22.38,38.91 C22,38.3 22.01,37.6 22.04,36.89 C22.02,36.3 22.3,35.72 22.72,35.32 C22.94,34.78 23.49,34.56 23.99,34.41 C24.49,34.12 25.19,34.47 25.77,34.46 C27.32,34.5 28.88,34.46 30.43,34.48 C31.03,33.48 31.98,32.71 32.49,31.64 C33.84,29.34 35.45,27.2 36.82,24.91 C38.77,21.71 40.98,18.68 43.02,15.54 C43.52,15.22 43.97,14.77 44.63,14.92 C46.62,14.92 48.61,14.92 50.6,14.92 C50.65,14.08 50.46,13.19 50.78,12.41 C50.64,11.68 51.6,12.15 51.97,12.29 C54,13.28 55.75,14.78 57.56,16.12 C57.94,16.6 58.56,16.83 58.8,17.42 C59.33,17.4 59.17,18.38 58.8,18.55 C58.51,19.06 57.87,19.08 57.53,19.57 C56.16,20.71 54.64,21.65 53.2,22.69 C52.63,23.01 52.17,23.51 51.52,23.62 C50.97,24.01 50.8,23.56 50.62,23.1 C50.61,22.32 50.58,21.53 50.42,20.75 C48.99,20.48 47.53,20.57 46.08,20.56 C45.96,20.62 45.84,20.69 45.72,20.75 Z M24.48,21.06 C23.96,21.05 23.44,21 23.1,20.56 C22.75,20.15 22.17,19.76 22.22,19.18 C21.82,18.86 22.14,18.17 22.04,17.7 C22.02,17.13 22.2,16.72 22.52,16.26 C22.82,15.86 23.2,15.34 23.67,15.23 C24.11,14.93 24.72,15.07 25.26,15.04 C27.67,15.04 30.09,15.04 32.5,15.04 C32.94,15.52 33.74,15.61 33.94,16.3 C35.32,18.3 36.7,20.31 38.08,22.31 C36.99,23.9 35.9,25.49 34.82,27.08 C33.62,25.25 32.44,23.39 31.25,21.55 C30.93,20.99 30.42,21.03 29.84,21.04 C28.61,20.8 27.37,21.17 26.14,21.06 C25.58,21.06 25.03,21.06 24.48,21.06 Z M59.12,37.54 C59.19,38.17 58.44,38.48 58.09,38.92 C56.49,39.8 55.21,41.17 53.56,41.98 C52.78,42.41 52.04,43.11 51.1,43.13 C50.7,42.84 50.81,42.17 50.79,41.69 C50.69,41.26 50.88,40.26 50.3,40.31 C48.32,40.31 46.33,40.31 44.34,40.31 C43.86,40.07 43.34,40.01 43.14,39.42 C41.73,37.53 40.44,35.53 39.07,33.6 C40.12,32.1 41.16,30.59 42.21,29.09 C43.09,30.7 44.06,32.28 45.09,33.8 C45.56,34.07 45.71,34.68 46.12,34.84 C47.68,34.84 49.23,34.84 50.79,34.84 C50.77,33.95 50.79,33.06 50.91,32.18 C51.38,31.58 52.07,32.4 52.6,32.52 C54.01,33.08 55.18,34.11 56.4,35 C57.33,35.6 58.09,36.4 58.88,37.16 C59.01,37.22 59.14,37.38 59.12,37.54 Z M79.34,42.18 C78.9,41.25 78.1,40.74 78.1,40.74 C78.1,40.74 74.14,37.55 72.32,41.38 C70.52,45.19 65.07,47.14 65.07,47.14 C58.74,49.52 58.74,49.52 58.74,49.52 C58.74,49.52 58.74,49.45 58.67,49.45 C64.56,44.31 68.33,36.68 68.33,28.21 C68.33,12.66 55.73,0 40.26,0 C24.73,0 12.14,12.66 12.14,28.21 C12.14,36.68 15.84,44.19 21.73,49.4 C17.03,47.7 13.96,46.52 13.96,46.52 C13.96,46.52 14.09,42.06 10.9,40.74 C7.76,39.36 6.32,42.75 5.94,44.13 C5.94,44.13 0,44.44 0.25,47.89 C0.56,51.34 6.25,51.89 10.33,49.4 C23.8,54.53 23.8,54.53 23.8,54.53 C24.35,57.1 25.48,59.49 27.05,61.49 C17.41,65.12 17.41,65.12 17.41,65.12 C13.34,62.62 7.69,63.19 7.38,66.63 C7.14,70.08 13.09,70.39 13.09,70.39 C13.47,71.77 14.84,75.16 18.03,73.78 C21.16,72.46 21.11,68.02 21.11,68.02 C21.11,68.02 21.98,67.76 30.37,64.68 C33.12,66.69 36.56,67.89 40.33,67.89 C44.09,67.89 47.53,66.69 50.34,64.63 C60.8,67.13 60.8,67.13 60.8,67.13 C60.8,67.13 64.56,68.58 66.38,72.46 C68.13,76.22 72.14,73.08 72.14,73.08 C72.14,73.08 72.89,72.52 73.4,71.64 C74.4,69.58 75.22,66.25 72.14,66.69 C72.14,66.69 73.89,64.44 73.32,62.93 C72.76,61.49 69.95,60.62 68,61.42 C66,62.24 63.68,63.68 61.31,63.32 C60.68,63.19 59.67,63.32 53.79,61.18 C55.17,59.36 56.17,57.23 56.67,55.04 C61.88,53.15 65.56,51.78 66.2,51.65 C68.38,51.15 72.01,51.58 73.96,52.4 C75.96,53.22 78.72,52.28 79.28,50.84 C79.85,49.4 78.1,47.14 78.1,47.14 C81.16,47.57 80.34,44.26 79.34,42.18 Z" fill="none" stroke="currentColor" stroke-width="1.5"/></svg>