<svg xmlns="http://www.w3.org/2000/svg" viewBox="0 0 74.37 80.0" width="24" height="24"><path d="M70.77,61.47 C73.88,48.95 69.58,41.87 68.07,39.87 C68.55,37.65 68.82,35.35 68.82,33.06 C68.82,30.08 68.41,27.15 67.64,24.45 C74.37,17.92 73.96,10.84 73.06,7.29 C72.02,3.33 67.64,0 67.64,0 C67.3,0.91 67.3,0.91 67.3,0.91 C67.99,1.6 69.72,4.93 67.1,9.73 C66.05,11.73 64.03,12.98 62.17,13.75 C56.4,6.32 47.39,1.53 37.26,1.53 C27.12,1.53 18.11,6.32 12.36,13.75 C10.48,12.98 8.46,11.73 7.35,9.73 C4.72,4.93 6.44,1.6 7.21,0.91 C6.8,0 6.8,0 6.8,0 C6.8,0 2.42,3.33 1.39,7.29 C0.48,10.84 0,17.99 6.94,24.51 C6.18,27.23 5.76,30.08 5.76,33.06 C5.76,35.35 5.96,37.65 6.44,39.79 C4.99,41.67 0.48,48.81 3.68,61.47 C3.68,61.47 1.45,62.84 1.11,67.02 C1.11,67.02 2.77,64.94 3.88,64.66 C3.88,64.66 3.33,68.96 6.66,70.55 C6.66,70.55 5.61,67.85 5.96,66.8 C5.96,66.8 7.07,69.1 9.43,69.38 C9.43,69.38 7.63,67.36 7.7,65.91 C7.7,65.91 8.74,66.6 10.48,66.31 C10.48,66.31 0.28,60.62 9.37,47.78 C12.9,54.38 18.74,59.65 25.81,62.36 C25.95,66.46 26.92,71.88 30.11,77.09 C30.11,77.09 25.32,73.74 20.82,79.66 C20.82,80 20.82,80 20.82,80 C31.84,80 31.84,80 31.84,80 C31.84,80 32.67,79.94 32.67,78.69 C32.67,77.64 29.08,72.77 30.19,63.75 C32.47,64.23 34.83,64.58 37.26,64.58 C39.68,64.58 42.04,64.31 44.26,63.75 C45.37,72.77 41.76,77.64 41.76,78.69 C41.76,79.94 42.6,80 42.6,80 C53.63,80 53.63,80 53.63,80 C53.63,79.66 53.63,79.66 53.63,79.66 C49.13,73.74 44.34,77.09 44.34,77.09 C47.53,71.88 48.5,66.53 48.64,62.44 C55.71,59.65 61.61,54.44 65.08,47.84 C74.1,60.7 63.97,66.31 63.97,66.31 C65.77,66.6 66.74,65.91 66.74,65.91 C66.82,67.36 65.08,69.38 65.08,69.38 C67.36,69.1 68.47,66.8 68.47,66.8 C68.82,67.85 67.85,70.55 67.85,70.55 C71.12,68.96 70.55,64.66 70.55,64.66 C71.66,64.94 73.34,67.02 73.34,67.02 C72.99,62.84 70.77,61.47 70.77,61.47 Z M54.95,36.32 C54.53,38.48 53.77,40.56 52.59,42.43 C52.59,42.43 52.59,42.43 55.85,48.96 C55.85,48.96 55.85,48.96 48.7,46.88 C47.1,48.13 45.3,49.17 43.36,49.86 C43.36,49.86 43.36,49.86 41.49,56.67 C41.49,56.67 41.49,56.67 38.02,50.77 C38.02,50.77 38.02,50.77 37.67,50.77 C35.65,50.77 33.71,50.41 31.92,49.86 C31.92,49.86 31.92,49.86 23.94,55.35 C23.94,55.35 23.94,55.35 26.71,47.08 C24.97,45.62 23.52,43.89 22.41,41.95 C22.41,41.95 22.41,41.95 14.57,41.73 C14.57,41.73 14.57,41.73 20.53,37.37 C20.26,36.11 20.04,34.66 20.04,33.27 C20.04,32.08 20.12,31.05 20.4,30 C20.4,30 20.4,30 14.43,25.56 C14.43,25.56 14.43,25.56 21.86,25.56 C23.03,23.12 24.77,21.04 26.85,19.44 C26.85,19.44 26.85,19.44 25.53,12.64 C25.53,12.64 25.53,12.64 30.38,17.3 C32.6,16.25 35.04,15.77 37.61,15.77 C37.61,15.77 37.61,15.77 38.58,15.77 C38.58,15.77 38.58,15.77 42.54,11.11 C42.54,11.11 42.54,11.11 43.02,16.53 C45.65,17.42 48.01,18.82 49.95,20.77 C49.95,20.77 49.95,20.77 55.78,18.96 C55.78,18.96 55.78,18.96 52.65,24.17 C53.98,26.39 54.88,28.89 55.09,31.59 C55.09,31.59 55.09,31.59 61.05,33.96 C61.05,33.96 61.05,33.96 54.95,36.32 Z M49.68,29.45 C48.98,29.45 48.35,30 48.35,30.77 C48.35,31.53 48.98,32.08 49.68,32.08 C50.43,32.08 51.06,31.53 51.06,30.77 C51.06,30 50.43,29.45 49.68,29.45 Z M43.51,29.45 C42.74,29.45 42.11,30 42.11,30.77 C42.11,31.53 42.74,32.08 43.51,32.08 C44.27,32.08 44.88,31.53 44.88,30.77 C44.88,30 44.27,29.45 43.51,29.45 Z M37.33,29.45 C36.56,29.45 35.94,30 35.94,30.77 C35.94,31.53 36.56,32.08 37.33,32.08 C38.09,32.08 38.64,31.53 38.64,30.77 C38.64,30 38.09,29.45 37.33,29.45 Z M31.09,29.45 C30.32,29.45 29.76,30 29.76,30.77 C29.76,31.53 30.32,32.08 31.09,32.08 C31.84,32.08 32.46,31.53 32.46,30.77 C32.46,30 31.84,29.45 31.09,29.45 Z M24.91,29.45 C24.14,29.45 23.52,30 23.52,30.77 C23.52,31.53 24.14,32.08 24.91,32.08 C25.68,32.08 26.22,31.53 26.22,30.77 C26.22,30 25.68,29.45 24.91,29.45 Z M24.91,37.99 C25.68,37.99 26.22,37.37 26.22,36.6 C26.22,35.9 25.68,35.29 24.91,35.29 C24.14,35.29 23.52,35.9 23.52,36.6 C23.52,37.37 24.14,37.99 24.91,37.99 Z M31.09,37.99 C31.84,37.99 32.46,37.37 32.46,36.6 C32.46,35.9 31.84,35.29 31.09,35.29 C30.32,35.29 29.76,35.9 29.76,36.6 C29.76,37.37 30.32,37.99 31.09,37.99 Z M37.33,37.99 C38.09,37.99 38.64,37.37 38.64,36.6 C38.64,35.9 38.09,35.29 37.33,35.29 C36.56,35.29 35.94,35.9 35.94,36.6 C35.94,37.37 36.56,37.99 37.33,37.99 Z M21.92,34.24 L52.73,34.24 C52.87,34.24 53.08,34.1 53.08,33.89 C53.08,33.61 52.87,33.41 52.73,33.41 C52.73,33.41 52.73,33.41 21.92,33.41 C21.72,33.41 21.5,33.61 21.5,33.89 C21.5,34.1 21.72,34.24 21.92,34.24 Z M43.51,37.99 C44.27,37.99 44.88,37.37 44.88,36.6 C44.88,35.9 44.27,35.29 43.51,35.29 C42.74,35.29 42.11,35.9 42.11,36.6 C42.11,37.37 42.74,37.99 43.51,37.99 Z M49.68,37.99 C50.43,37.99 51.06,37.37 51.06,36.6 C51.06,35.9 50.43,35.29 49.68,35.29 C48.98,35.29 48.35,35.9 48.35,36.6 C48.35,37.37 48.98,37.99 49.68,37.99 Z" fill="none" stroke="currentColor" stroke-width="1.5"/></svg>