<svg xmlns="http://www.w3.org/2000/svg" viewBox="0 0 50.07 80.0" width="24" height="24"><path d="M43.09,47.03 C45.18,49.29 47.43,50.55 47.43,50.55 C44.41,46.59 44.57,41.97 44.96,39.61 C48.14,35.44 50.07,30.28 50.07,24.67 C50.07,11.04 38.87,0 25.03,0 C11.25,0 0,11.04 0,24.67 C0,30.11 1.81,35.11 4.83,39.18 C1.15,42.26 1.37,48.84 1.37,48.84 C2.41,44.89 3.79,44.23 4.78,43.73 C5,43.68 5.32,43.52 5.66,43.41 C5.49,44.78 5.49,46.27 5.99,47.58 C7.3,50.93 9.22,52.42 8.95,55 C8.67,57.64 5.99,59.62 5.82,62.64 C5.66,65.66 7.3,67.48 7.85,68.13 C8.34,68.85 6.42,65.32 7.46,62.69 C8.45,60.11 10.54,61.1 12.35,57.8 C12.73,57.08 13.12,56.38 13.39,55.66 C14.11,57.86 14.38,59.4 14.22,61.54 C14.11,64.56 12.84,67.42 11.31,68.52 C11.31,68.52 16.52,66.98 17.78,60.93 C18.83,56.27 17.62,53.68 18.61,50.93 C19.87,52.53 21.57,55.05 21.36,57.8 C21.02,62.08 17.89,67.64 18.88,71.6 C19.87,75.55 20.91,77.41 20.91,77.41 C20.91,77.41 20.48,71.87 22.4,68.9 C23.21,67.69 24.27,66.31 25.26,64.89 C26.68,69.4 31.01,73.02 32.22,74.28 C33.71,75.82 33.37,80 33.37,80 C33.37,80 34.36,78.52 34.75,73.9 C35.13,69.28 30.9,68.45 30.47,61.65 C30.3,59.29 30.74,56.97 31.29,55 C32.83,58.79 35.08,62.19 35.68,63.46 C36.67,65.39 36.62,70.27 36.62,70.27 C40.07,64.67 37.43,61.2 37.22,55.93 C37.11,53.63 37.43,51.43 37.82,49.62 C38.26,51.27 38.87,53.07 39.63,54.13 C41.39,56.59 42.59,58.18 42.88,60.11 C43.2,62.03 43.47,64.94 42.93,66.04 C42.93,66.04 45.18,64.33 45.02,59.12 C44.84,53.9 42.32,50.44 42.88,48.02 C42.93,47.69 43.04,47.42 43.09,47.03 Z M34.97,29.66 C35.57,29.66 36.01,29.17 36.01,28.58 C36.01,27.97 35.57,27.47 34.97,27.47 C34.36,27.47 33.87,27.97 33.87,28.58 C33.87,29.17 34.36,29.66 34.97,29.66 Z M30.03,29.66 C30.64,29.66 31.12,29.17 31.12,28.58 C31.12,27.97 30.64,27.47 30.03,27.47 C29.42,27.47 28.98,27.97 28.98,28.58 C28.98,29.17 29.42,29.66 30.03,29.66 Z M12.95,26.65 L37.33,26.65 C37.49,26.65 37.65,26.53 37.65,26.37 C37.65,26.15 37.49,25.99 37.33,25.99 C37.33,25.99 37.33,25.99 12.95,25.99 C12.79,25.99 12.62,26.15 12.62,26.37 C12.62,26.53 12.79,26.65 12.95,26.65 Z M25.14,29.66 C25.69,29.66 26.24,29.17 26.24,28.58 C26.24,27.97 25.69,27.47 25.14,27.47 C24.54,27.47 24.04,27.97 24.04,28.58 C24.04,29.17 24.54,29.66 25.14,29.66 Z M20.2,29.66 C20.8,29.66 21.29,29.17 21.29,28.58 C21.29,27.97 20.8,27.47 20.2,27.47 C19.65,27.47 19.1,27.97 19.1,28.58 C19.1,29.17 19.65,29.66 20.2,29.66 Z M15.32,29.66 C15.86,29.66 16.36,29.17 16.36,28.58 C16.36,27.97 15.86,27.47 15.32,27.47 C14.71,27.47 14.22,27.97 14.22,28.58 C14.22,29.17 14.71,29.66 15.32,29.66 Z M15.32,22.75 C14.71,22.75 14.22,23.24 14.22,23.85 C14.22,24.46 14.71,24.95 15.32,24.95 C15.86,24.95 16.36,24.46 16.36,23.85 C16.36,23.24 15.86,22.75 15.32,22.75 Z M20.2,22.75 C19.65,22.75 19.1,23.24 19.1,23.85 C19.1,24.46 19.65,24.95 20.2,24.95 C20.8,24.95 21.29,24.46 21.29,23.85 C21.29,23.24 20.8,22.75 20.2,22.75 Z M25.14,22.75 C24.54,22.75 24.04,23.24 24.04,23.85 C24.04,24.46 24.54,24.95 25.14,24.95 C25.69,24.95 26.24,24.46 26.24,23.85 C26.24,23.24 25.69,22.75 25.14,22.75 Z M30.03,22.75 C29.42,22.75 28.98,23.24 28.98,23.85 C28.98,24.46 29.42,24.95 30.03,24.95 C30.64,24.95 31.12,24.46 31.12,23.85 C31.12,23.24 30.64,22.75 30.03,22.75 Z M34.97,22.75 C34.36,22.75 33.87,23.24 33.87,23.85 C33.87,24.46 34.36,24.95 34.97,24.95 C35.57,24.95 36.01,24.46 36.01,23.85 C36.01,23.24 35.57,22.75 34.97,22.75 Z M39.09,28.29 C38.8,30.11 38.15,31.76 37.27,33.29 C37.27,33.29 37.27,33.29 39.79,38.57 C39.79,38.57 39.79,38.57 34.14,36.93 C32.88,37.91 31.45,38.73 29.92,39.28 C29.92,39.28 29.92,39.28 28.38,44.84 C28.38,44.84 28.38,44.84 25.69,40.06 C25.69,40.06 25.69,40.06 25.41,40.06 C23.82,40.06 22.28,39.77 20.86,39.28 C20.86,39.28 20.86,39.28 14.55,43.73 C14.55,43.73 14.55,43.73 16.74,37.03 C15.37,35.88 14.22,34.5 13.29,32.86 C13.29,32.86 13.29,32.86 7.14,32.75 C7.14,32.75 7.14,32.75 11.85,29.17 C11.58,28.13 11.47,26.98 11.47,25.83 C11.47,24.95 11.53,24.07 11.75,23.18 C11.75,23.18 11.75,23.18 7.03,19.55 C7.03,19.55 7.03,19.55 12.9,19.55 C13.83,17.64 15.21,15.99 16.8,14.67 C16.8,14.67 16.8,14.67 15.81,9.12 C15.81,9.12 15.81,9.12 19.65,12.91 C21.41,12.09 23.34,11.65 25.37,11.65 C25.37,11.65 25.37,11.65 26.13,11.65 C26.13,11.65 26.13,11.65 29.31,7.91 C29.31,7.91 29.31,7.91 29.65,12.3 C31.73,13.02 33.59,14.17 35.13,15.72 C35.13,15.72 35.13,15.72 39.79,14.23 C39.79,14.23 39.79,14.23 37.27,18.47 C38.32,20.27 39.03,22.3 39.25,24.5 C39.25,24.5 39.25,24.5 43.91,26.42 C43.91,26.42 43.91,26.42 39.09,28.29 Z" fill="none" stroke="currentColor" stroke-width="1.5"/></svg>