<svg xmlns="http://www.w3.org/2000/svg" viewBox="0 0 82.84 99.49" width="24" height="24"><path d="M20.87,2.1 L20.87,20.02 L44.74,30.69 L67.37,23.5 Z M31.76,12.05 L31.74,22.63 L29.62,22.64 L29.59,14.18 L26.83,15.63 L26.81,13.49 L29.59,12.07 Z M41.06,41.84 L35.91,43.43 L35.91,75.61 L82.84,60.69 Z M46.8,52.2 C49.11,52.17 50.09,52.68 50.09,54.6 C50.09,56.34 49.24,56.83 48.26,57.16 C49.7,57.24 50.76,58.47 50.76,59.66 C50.76,61.73 49.03,62.88 46.3,62.88 C43.1,62.88 42.35,61.57 41.66,59.98 L44.4,59.97 C44.47,60.69 45.14,61.49 46.11,61.49 C47.34,61.49 47.98,60.64 47.98,59.66 C47.98,58.65 47.2,57.85 46.03,57.85 L44.44,57.88 L44.39,56.49 L46.36,56.49 C46.79,56.49 47.31,55.99 47.31,54.87 C47.31,54.06 47.19,53.65 46.36,53.65 C45.14,53.65 44.97,53.77 44.46,54.36 L42.39,54.36 C42.39,53.32 43.69,52.2 46.8,52.2 Z M6.22,14.8 L6.22,51.16 L53.15,36.25 Z M17.19,28.22 C19.17,28.22 21.14,28.53 21.14,30.49 C21.14,32.9 20.63,33.16 19.55,34.16 L16.22,36.8 L21.13,36.78 L21.12,38.78 L12.67,38.84 L12.66,36.79 L17.36,33.23 C18.03,32.72 18.36,32.41 18.35,31.26 C18.35,30.09 17.73,29.63 17.16,29.63 C16.36,29.63 15.91,30.16 15.49,31.06 L12.66,31.1 C12.86,29.27 14.91,28.13 17.19,28.22 Z M14.78,50.11 L14.78,68.36 C12.97,67.9 10.92,67.04 9.23,65.68 C6.78,63.72 4.93,60.89 4.93,56.12 L4.93,16.66 C4.95,15.27 3.82,14.14 2.44,14.16 C1.08,14.18 0,15.3 0.02,16.66 L0.02,56.12 C0.02,62.26 2.73,66.77 6.15,69.51 C8.92,71.74 12.05,72.9 14.78,73.4 L14.78,99.49 L19.7,99.49 L19.7,91.46 C22.84,91.06 26.09,89.81 28.82,87.69 C32.05,85.19 34.53,81.3 34.53,76.48 L34.53,76.47 L34.47,43.85 L29.55,45.19 L29.62,76.48 C29.62,79.68 28.11,82.03 25.81,83.81 C24.04,85.18 21.79,86.09 19.7,86.48 L19.7,48.61 Z M19.7,19.66 L19.7,2.51 C19.72,1.13 18.59,0 17.2,0.02 C15.84,0.04 14.76,1.16 14.78,2.51 L14.78,17.44 Z" fill="none" stroke="currentColor" stroke-width="1.5"/></svg>