<svg xmlns="http://www.w3.org/2000/svg" viewBox="0 0 106.67 106.67" width="24" height="24"><path d="M53.27,7.17 L33.42,37.59 L48.68,37.59 L48.68,39.77 L57.87,39.77 L57.87,37.59 L73.13,37.59 Z M48.68,41.59 L48.68,44.13 L57.87,44.13 L57.87,41.59 Z M26.26,45.71 L27.54,58.65 L39.22,46.99 Z M80.47,45.71 L67.5,46.99 L79.18,58.65 Z M48.68,45.95 L48.68,48.48 L57.87,48.48 L57.87,45.95 Z M48.68,50.3 L48.68,52.84 L57.87,52.84 L57.87,50.3 Z M35.3,51.24 L31.97,54.58 L34.33,56.93 L37.66,53.59 Z M71.43,51.24 L69.06,53.59 L72.39,56.93 L74.75,54.58 Z M48.68,54.66 L48.68,56.83 C46.79,57.38 45.05,58.28 43.51,59.43 L42.08,58.01 L38.76,61.35 L40.18,62.76 C38.67,64.78 37.61,67.13 37.16,69.7 L36,69.7 L36,75.37 L37.15,75.37 C38.25,81.56 42.84,86.57 48.8,88.28 L48.8,91.13 L39.7,91.13 L39.7,99.6 L66.85,99.6 L66.85,91.13 L57.75,91.13 L57.75,88.28 C63.71,86.57 68.29,81.56 69.39,75.37 L70.45,75.37 L70.45,69.7 L69.39,69.7 C68.94,67.18 67.92,64.85 66.45,62.86 L67.97,61.35 L64.64,58.01 L63.14,59.51 C61.57,58.32 59.79,57.4 57.87,56.83 L57.87,54.66 Z M38.67,54.68 L35.34,58.03 L37.7,60.37 L41.03,57.03 Z M68.06,54.68 L65.7,57.03 L69.02,60.37 L71.38,58.03 Z M18.61,60.28 L1.89,72.54 L18.61,84.79 Z M87.84,60.28 L87.84,84.79 L104.56,72.54 Z M53.27,63.35 C58.39,63.35 62.45,67.42 62.45,72.54 C62.45,77.65 58.39,81.72 53.27,81.72 C48.16,81.72 44.09,77.65 44.09,72.54 C44.09,67.42 48.16,63.35 53.27,63.35 Z M18.96,69.7 L18.96,75.37 L21.44,75.37 L21.44,69.7 Z M23.22,69.7 L23.22,75.37 L25.7,75.37 L25.7,69.7 Z M27.48,69.7 L27.48,75.37 L29.96,75.37 L29.96,69.7 Z M31.74,69.7 L31.74,75.37 L34.22,75.37 L34.22,69.7 Z M72.23,69.7 L72.23,75.37 L74.71,75.37 L74.71,69.7 Z M76.49,69.7 L76.49,75.37 L78.97,75.37 L78.97,69.7 Z M80.75,69.7 L80.75,75.37 L83.23,75.37 L83.23,69.7 Z M85.01,69.7 L85.01,75.37 L87.49,75.37 L87.49,69.7 Z M21.57,0 C85.32,0 85.32,0 85.32,0 C97.07,0 106.67,9.8 106.67,21.55 C106.67,85.3 106.67,85.3 106.67,85.3 C106.67,97.04 97.07,106.67 85.32,106.67 C21.57,106.67 21.57,106.67 21.57,106.67 C9.81,106.67 0,97.04 0,85.3 C0,21.55 0,21.55 0,21.55 C0,9.8 9.81,0 21.57,0 Z" fill="none" stroke="currentColor" stroke-width="1.5"/></svg>