<svg xmlns="http://www.w3.org/2000/svg" viewBox="0 0 80.0 80.0" width="24" height="24"><path d="M40,7.07 C39.71,7.07 39.41,7.2 39.11,7.5 L38.98,7.64 L34.4,11.9 C33.97,12.34 33.97,13.1 34.4,13.53 L34.56,13.66 C35,14.12 35.73,14.12 36.16,13.66 L38.81,11.01 L38.81,18.96 C36.03,19.25 33.54,20.28 31.45,21.91 L25.58,16.31 L29.39,16.31 C29.99,16.31 30.42,15.88 30.42,15.28 L30.42,14.98 C30.42,14.42 29.99,13.96 29.39,13.96 L22.93,13.96 L22.63,13.96 C22.33,13.96 22.07,14.13 21.77,14.26 L21.6,14.55 C21.3,14.72 21.3,14.99 21.3,15.28 L21.3,15.45 L21.3,21.61 C21.3,22.2 21.77,22.8 22.5,22.8 L22.63,22.8 C23.36,22.8 23.83,22.2 23.83,21.61 L23.83,18.1 L29.69,23.66 C27.94,25.58 26.91,28.1 26.61,30.71 L18.39,30.71 L21.01,28.1 C21.47,27.64 21.47,27.04 21.01,26.61 L20.87,26.31 C20.44,26.01 19.72,26.01 19.25,26.31 L14.71,30.71 L14.41,31.01 C14.24,31.18 14.11,31.47 14.11,31.77 L14.11,32.04 C14.11,32.33 14.24,32.64 14.54,32.8 L14.71,32.93 L19.25,37.21 C19.72,37.64 20.44,37.64 20.87,37.21 L21.01,37.04 C21.47,36.77 21.47,36.01 21.01,35.58 L18.39,33.1 L26.61,33.1 C26.91,35.71 27.94,38.06 29.69,40.15 L23.83,45.58 L23.83,42.04 C23.83,41.47 23.36,40.88 22.63,40.88 L22.5,40.88 C21.77,40.88 21.3,41.47 21.3,42.04 L21.3,48.23 L21.3,48.53 C21.3,48.83 21.47,49.12 21.6,49.26 L21.9,49.39 C22.07,49.56 22.5,49.69 22.79,49.69 L22.93,49.69 L29.39,49.69 C29.99,49.69 30.42,49.26 30.42,48.66 L30.42,48.37 C30.42,47.8 29.99,47.34 29.39,47.34 L25.58,47.34 L31.45,41.74 C33.54,43.37 36.03,44.39 38.81,44.69 L38.81,52.5 L36.16,49.98 C35.73,49.55 35,49.55 34.56,49.98 L34.4,50.15 C33.97,50.58 33.97,51.31 34.4,51.61 L38.98,56.01 L39.11,56.18 C39.41,56.48 39.71,56.48 40,56.48 L40.14,56.48 C40.57,56.48 40.86,56.48 41.03,56.18 C41.16,56.18 41.16,56.01 41.16,56.01 L45.74,51.61 C46.17,51.31 46.17,50.58 45.74,50.15 L45.57,49.98 C45.14,49.55 44.41,49.55 43.98,49.98 L41.33,52.5 L41.33,44.69 C44.11,44.39 46.6,43.37 48.65,41.74 L54.56,47.34 L50.75,47.34 C50.15,47.34 49.72,47.8 49.72,48.37 L49.72,48.66 C49.72,49.26 50.15,49.69 50.75,49.69 L57.21,49.69 L57.34,49.69 C57.64,49.69 58.07,49.56 58.24,49.39 L58.54,49.26 C58.67,49.12 58.83,48.83 58.83,48.53 L58.83,48.23 L58.83,42.04 C58.83,41.47 58.37,40.88 57.64,40.88 L57.51,40.88 C56.91,40.88 56.32,41.47 56.32,42.04 L56.32,45.58 L50.45,40.15 C52.07,38.06 53.23,35.71 53.53,33.1 L61.75,33.1 L59.1,35.58 C58.67,36.01 58.67,36.77 59.1,37.04 L59.26,37.21 C59.69,37.64 60.43,37.64 60.89,37.21 L65.43,32.93 C65.6,32.93 65.6,32.8 65.6,32.8 C65.86,32.64 65.86,32.33 65.86,32.04 L65.86,31.77 C65.86,31.47 65.86,31.18 65.73,31.01 L65.43,30.71 L60.89,26.31 C60.43,26.01 59.69,26.01 59.26,26.31 L59.1,26.61 C58.67,27.04 58.67,27.64 59.1,28.1 L61.75,30.71 L53.53,30.71 C53.23,28.1 52.2,25.58 50.45,23.66 L56.32,18.1 L56.32,21.61 C56.32,22.2 56.91,22.8 57.51,22.8 L57.64,22.8 C58.37,22.8 58.83,22.2 58.83,21.61 L58.83,15.45 L58.83,15.28 C58.83,14.99 58.67,14.72 58.54,14.55 L58.37,14.26 C58.07,14.13 57.81,13.96 57.51,13.96 L57.21,13.96 L50.75,13.96 C50.15,13.96 49.72,14.42 49.72,14.98 L49.72,15.28 C49.72,15.88 50.15,16.31 50.75,16.31 L54.56,16.31 L48.65,21.91 C46.6,20.28 44.11,19.25 41.33,18.96 L41.33,11.18 L43.98,13.66 C44.41,14.12 45.14,14.12 45.57,13.66 L45.74,13.53 C46.17,13.1 46.17,12.34 45.74,11.9 L41.16,7.64 C41.16,7.5 41.16,7.5 41.03,7.5 C40.86,7.34 40.57,7.07 40.14,7.07 L40,7.07 Z M26.32,61.15 C23.8,61.15 22.34,63.38 21.31,65.59 C20.29,63.51 19.09,61.75 17.04,61.75 C14.42,61.75 13.09,64.83 12.63,66.32 C12.07,66.45 11.77,66.88 11.9,67.35 C12.07,67.65 13.36,72.94 17.04,72.94 C19.39,72.94 20.72,70.86 21.75,68.67 C22.78,70.73 24.1,72.48 26.32,72.48 C28.38,72.48 29.7,70.73 30.73,68.67 C31.76,70.86 33.22,72.94 35.44,72.94 C37.79,72.94 39.12,70.86 40.15,68.67 C41.18,70.73 42.5,72.48 44.69,72.48 C46.61,72.48 47.8,70.73 48.97,68.67 C50.16,70.86 51.45,72.94 53.8,72.94 C56.16,72.94 57.48,70.86 58.51,68.67 C59.54,70.73 60.87,72.48 63.09,72.48 C65.28,72.48 66.77,70 67.5,67.94 L67.63,67.94 C68.09,67.65 68.23,67.18 68.1,66.75 C67.37,64.4 65.87,61.15 63.09,61.15 C60.57,61.15 59.11,63.38 58.08,65.59 C57.05,63.51 55.89,61.75 53.8,61.75 C51.75,61.75 50.59,63.5 49.4,65.72 C48.23,63.37 46.91,61.15 44.69,61.15 C42.2,61.15 40.74,63.38 39.71,65.59 C38.65,63.51 37.5,61.75 35.44,61.75 C33.52,61.75 32.19,63.51 31.16,65.59 C30.13,63.38 28.68,61.15 26.32,61.15 Z M17.04,62.64 C18.83,62.64 19.86,64.53 20.72,66.62 L20.72,66.88 C19.39,69.53 18.53,71.16 17.04,71.16 C14.69,71.16 13.66,66.88 13.66,66.88 C13.52,66.75 13.52,66.62 13.36,66.62 C13.82,65.29 14.98,62.64 17.04,62.64 Z M35.44,62.64 C37.2,62.64 38.22,64.53 39.12,66.62 L39.12,66.88 C37.79,69.53 37.06,71.16 35.44,71.16 C33.82,71.16 32.78,68.97 31.76,66.75 L31.76,66.62 C32.78,64.53 33.82,62.64 35.44,62.64 Z M53.8,62.64 C55.59,62.64 56.62,64.53 57.49,66.62 L57.49,66.88 C56.16,69.53 55.3,71.16 53.8,71.16 C52.21,71.16 51.02,68.97 49.99,66.62 C51.02,64.53 52.21,62.64 53.8,62.64 Z M26.32,63.07 C28.08,63.07 29.11,65.29 30.3,67.64 C29.11,69.7 28.08,71.62 26.32,71.62 C24.4,71.62 23.24,69.83 22.21,67.64 C23.37,65.29 24.4,63.07 26.32,63.07 Z M44.69,63.07 C46.18,63.07 47.21,65.29 48.37,67.48 L48.54,67.64 C47.34,69.7 46.31,71.62 44.69,71.62 C42.8,71.62 41.61,69.83 40.58,67.64 C41.77,65.29 42.8,63.07 44.69,63.07 Z M63.09,63.07 C64.41,63.07 65.44,64.53 66.6,67.35 L66.6,67.64 C65.58,70.29 64.41,71.62 63.09,71.62 C61.03,71.62 60.01,69.83 58.98,67.64 C60.14,65.29 61.03,63.07 63.09,63.07 Z M16.18,0 C63.99,0 63.99,0 63.99,0 C72.81,0 80,7.35 80,16.16 C80,63.97 80,63.97 80,63.97 C80,72.78 72.81,80 63.99,80 C16.18,80 16.18,80 16.18,80 C7.36,80 0,72.78 0,63.97 C0,16.16 0,16.16 0,16.16 C0,7.35 7.36,0 16.18,0 Z" fill="none" stroke="currentColor" stroke-width="1.5"/></svg>