<svg xmlns="http://www.w3.org/2000/svg" viewBox="0 0 79.91 80.0" width="24" height="24"><path d="M0,40 C0,18.02 17.97,0 39.95,0 C62.16,0 79.91,18.02 79.91,40 C79.91,62.21 62.16,80 39.95,80 C17.97,80 0,62.21 0,40 Z M31.97,17.8 C31.97,22.17 35.58,25.6 39.94,25.6 C44.54,25.6 47.96,22.17 47.96,17.8 C47.96,13.66 44.54,10.01 39.94,10.01 C35.58,10.01 31.97,13.66 31.97,17.8 Z M48.15,67.02 C49.14,41.79 49.14,41.79 49.14,41.79 C50.35,41.79 50.35,41.79 50.35,41.79 C50.35,63.42 50.35,63.42 50.35,63.42 C50.35,65.62 51.97,67.2 53.96,67.2 C55.94,67.2 57.56,65.62 57.56,63.42 C57.56,36.79 57.56,36.79 57.56,36.79 C57.56,32.38 54.36,28.82 50.35,28.82 C29.77,28.82 29.77,28.82 29.77,28.82 C25.76,28.82 22.38,32.38 22.38,36.79 C22.38,63.42 22.38,63.42 22.38,63.42 C22.38,65.62 24.18,67.2 26.16,67.2 C28.19,67.2 29.77,65.62 29.77,63.42 C29.77,41.79 29.77,41.79 29.77,41.79 C30.98,41.79 30.98,41.79 30.98,41.79 C31.97,67.02 31.97,67.02 31.97,67.02 L48.15,67.02 Z" fill="none" stroke="currentColor" stroke-width="1.5"/></svg>