<svg xmlns="http://www.w3.org/2000/svg" viewBox="0 0 80.0 80.0" width="24" height="24"><path d="M31.38,18.48 Z M23.58,18.48 Z M15.78,18.48 Z M49.14,57.99 C51.67,57.77 54.22,57.59 56.62,57.19 C57.65,56.94 58.17,56.51 58.71,56.05 L58.06,53.55 C57.91,52.93 57.4,52.1 56.79,51.76 L52.14,49.44 C54.71,48.82 56.62,47.33 57.18,45.77 C55.77,45.82 54.75,43.84 54.63,42.25 C54.59,41.41 54.72,41.19 54.66,38.74 C54.66,38.22 54.59,38.01 54.23,37.5 C53.38,36.4 52.24,35.27 50.63,35.09 C48.72,34.85 47.04,35.01 45.85,35.72 C43.74,37.25 43.17,38.57 43.49,40.95 C43.83,44.21 42.67,45.56 41.06,45.78 C41.3,46.66 42.08,47.25 42.72,47.92 C43.9,48.46 44.84,48.59 46.04,49.4 C47.21,49.95 48.11,51.52 48.21,52.23 Z M22.74,58.44 C24.76,60.22 31.09,60.64 37.64,60.46 C39.9,60.34 43.83,60.31 47.07,58.83 C47.6,58.56 47.77,58.28 47.74,57.81 C47.63,56.58 47.37,55.04 47.16,53.62 C47.18,52.52 46.36,51.37 45.54,50.71 C43.79,49.84 41.91,49.4 40.14,48.33 C39.32,47.93 38.73,47.58 38.68,46.34 C38.73,44.6 38.88,44.23 39.36,43.5 C39.63,42.97 39.9,42.43 40.13,41.76 C40.57,41.72 40.64,41.56 40.85,41.31 C41.38,40.68 41.72,40.38 41.74,38.72 C41.75,38.4 41.61,37.99 41.02,37.99 C41.44,36.47 41.5,34.37 39.84,32.76 C37.09,30.67 33.39,30.39 30.19,33.1 C28.77,34.66 28.97,36.34 29.34,38.03 C28.6,37.93 28.64,38.39 28.6,38.79 C28.63,39.59 28.75,40.49 28.88,40.7 C29.28,41.34 29.8,41.79 30.24,41.73 C30.53,43.16 31.25,43.89 31.39,44.35 C31.86,45.66 31.73,47.37 31,47.85 C29.5,48.78 27.5,49.65 25.78,50.28 C23.99,50.8 23.2,52.4 23.17,53.42 C23.01,55.19 22.73,56.89 22.74,58.44 Z M10.22,12.23 C8.35,12.23 6.85,13.73 6.85,15.59 L6.85,64.58 C6.85,66.45 8.35,67.95 10.22,67.95 L69.56,67.95 C71.43,67.95 72.93,66.45 72.93,64.58 L72.93,15.59 C72.93,13.73 71.43,12.23 69.56,12.23 Z M16.18,0 C63.99,0 63.99,0 63.99,0 C72.81,0 80,7.35 80,16.16 C80,63.97 80,63.97 80,63.97 C80,72.78 72.81,80 63.99,80 C16.18,80 16.18,80 16.18,80 C7.36,80 0,72.78 0,63.97 C0,16.16 0,16.16 0,16.16 C0,7.35 7.36,0 16.18,0 Z M14.21,26.81 L65.54,26.81 C67.41,26.81 68.91,28.31 68.91,30.18 L68.91,60.29 C68.91,62.16 67.41,63.66 65.54,63.66 L14.21,63.66 C12.34,63.66 10.84,62.16 10.84,60.29 L10.84,30.18 C10.84,28.31 12.34,26.81 14.21,26.81 Z" fill="none" stroke="currentColor" stroke-width="1.5"/></svg>