<svg xmlns="http://www.w3.org/2000/svg" viewBox="0 0 79.91 80.0" width="24" height="24"><path d="M38.78,8.78 C39.37,8.78 40.18,8.78 40.94,8.78 C40.94,8.78 40.94,8.78 40.94,6.62 C40.18,6.39 39.37,6.39 38.56,6.62 C38.56,6.62 38.56,6.62 38.78,8.78 Z M45.36,9.19 L45.76,6.98 C44.95,6.98 44.14,6.8 43.38,6.8 C43.38,6.8 43.38,6.8 43.15,9.01 C43.78,9.01 44.55,9.01 45.36,9.19 Z M34.37,9.41 C35.18,9.19 35.76,9.01 36.57,9.01 C36.57,9.01 36.57,9.01 36.35,6.8 C35.58,6.8 34.77,6.98 33.96,6.98 C33.96,6.98 33.96,6.98 34.37,9.41 Z M49.55,10.4 L50.13,8.01 C49.55,7.79 48.74,7.61 47.97,7.61 C47.97,7.61 47.97,7.61 47.57,9.59 C48.15,9.82 48.74,10 49.55,10.4 Z M30.18,10.4 C30.76,10.22 31.57,10 32.39,9.82 C32.39,9.82 32.39,9.82 31.75,7.61 C30.99,7.79 30.18,8.01 29.37,8.19 C29.37,8.19 29.37,8.19 30.18,10.4 Z M53.56,11.8 L54.55,9.82 C53.96,9.59 53.15,9.19 52.57,8.78 C52.57,8.78 52.57,8.78 51.57,10.99 C52.16,11.21 52.97,11.62 53.56,11.8 Z M26.17,11.98 C26.75,11.62 27.39,11.39 28.2,11.21 C28.2,11.21 28.2,11.21 27.39,9.01 C26.57,9.41 25.76,9.59 25.18,10 C25.18,10 25.18,10 26.17,11.98 Z M57.34,14.01 L58.74,12.2 C57.97,11.8 57.34,11.39 56.53,10.81 C56.53,10.81 56.53,10.81 55.54,13.01 C56.17,13.19 56.75,13.6 57.34,14.01 Z M22.39,14.19 C22.97,13.78 23.6,13.42 24.19,13.01 C24.19,13.01 24.19,13.01 23.2,11.21 C22.39,11.62 21.8,11.8 21.17,12.38 C21.17,12.38 21.17,12.38 22.39,14.19 Z M60.76,16.8 L62.34,15 C61.75,14.41 61.12,14.01 60.54,13.42 C60.54,13.42 60.54,13.42 59.14,15.22 C59.73,15.81 60.36,16.21 60.76,16.8 Z M18.96,17.02 C19.59,16.62 20,15.99 20.58,15.4 C20.58,15.4 20.58,15.4 19.19,13.78 C18.6,14.19 17.97,14.82 17.39,15.22 C17.39,15.22 17.39,15.22 18.96,17.02 Z M63.96,19.82 L65.54,18.42 C65.13,17.79 64.55,17.2 63.96,16.62 C63.96,16.62 63.96,16.62 62.34,18.19 C62.93,18.78 63.33,19.19 63.96,19.82 Z M15.99,20.22 C16.39,19.59 16.98,19.01 17.39,18.42 C17.39,18.42 17.39,18.42 15.76,17.02 C15.18,17.61 14.77,18.01 14.19,18.6 C14.19,18.6 14.19,18.6 15.99,20.22 Z M66.53,23.19 L68.33,22.2 C67.93,21.39 67.52,20.81 67.16,20.22 C67.16,20.22 67.16,20.22 65.36,21.39 C65.76,22.2 66.12,22.79 66.53,23.19 Z M13.38,23.6 C13.78,23.01 14.19,22.38 14.59,21.8 C14.59,21.8 14.59,21.8 12.79,20.4 C12.39,21.21 11.98,21.8 11.39,22.38 C11.39,22.38 11.39,22.38 13.38,23.6 Z M68.56,27.02 L70.54,26.21 C70.36,25.58 69.95,24.82 69.55,24.01 C69.55,24.01 69.55,24.01 67.52,25.22 C67.93,25.81 68.33,26.39 68.56,27.02 Z M11.39,27.38 C11.8,26.8 11.98,26.21 12.39,25.58 C12.39,25.58 12.39,25.58 10.4,24.59 C10,25.22 9.59,25.81 9.41,26.62 C9.41,26.62 9.41,26.62 11.39,27.38 Z M70.13,31.21 L72.34,30.58 C72.12,29.82 71.75,29.01 71.53,28.42 C71.53,28.42 71.53,28.42 69.55,29.19 C69.73,29.82 69.95,30.4 70.13,31.21 Z M9.77,31.62 C10.18,30.81 10.4,30.22 10.58,29.41 C10.58,29.41 10.58,29.41 8.38,28.78 C8.2,29.41 7.97,30.22 7.79,30.99 C7.79,30.99 7.79,30.99 9.77,31.62 Z M70.94,35.4 L73.33,35 C73.15,34.19 73.15,33.6 72.93,32.79 C72.93,32.79 72.93,32.79 70.54,33.19 C70.72,34.01 70.94,34.82 70.94,35.4 Z M9.01,35.81 C9.19,35 9.19,34.41 9.41,33.6 C9.41,33.6 9.41,33.6 7.21,33.19 C6.98,34.01 6.8,34.82 6.8,35.58 C6.8,35.58 6.8,35.58 9.01,35.81 Z M71.35,39.59 L73.56,39.59 C73.56,39.01 73.56,38.19 73.56,37.38 C73.56,37.38 73.56,37.38 71.35,37.61 C71.35,38.42 71.35,39.01 71.35,39.59 Z M6.39,40.99 L8.78,40.99 C8.78,40.81 8.78,40.4 8.78,40.22 C8.78,39.41 8.78,38.6 8.78,38.01 C8.78,38.01 8.78,38.01 6.39,37.79 C6.39,38.6 6.39,39.41 6.39,40.22 C6.39,40.4 6.39,40.81 6.39,40.99 Z M73.33,44.41 C73.56,43.6 73.56,42.79 73.56,42.02 C73.56,42.02 73.56,42.02 71.35,42.02 C71.35,42.61 71.35,43.42 71.12,44.01 C71.12,44.01 71.12,44.01 73.33,44.41 Z M6.98,45.58 L9.19,45.22 C9.01,44.59 9.01,43.78 8.78,43.01 C8.78,43.01 8.78,43.01 6.57,43.42 C6.8,44.01 6.8,44.82 6.98,45.58 Z M72.52,49.01 C72.75,48.19 72.93,47.38 73.15,46.62 C73.15,46.62 73.15,46.62 70.72,46.21 C70.72,47.02 70.54,47.61 70.36,48.42 C70.36,48.42 70.36,48.42 72.52,49.01 Z M7.97,50.22 L10.18,49.41 C9.77,48.78 9.77,48.01 9.59,47.38 C9.59,47.38 9.59,47.38 7.39,48.01 C7.61,48.6 7.79,49.41 7.97,50.22 Z M70.94,53.42 C71.35,52.61 71.53,51.8 71.75,51.21 C71.75,51.21 71.75,51.21 69.73,50.4 C69.55,50.99 69.14,51.8 68.92,52.38 C68.92,52.38 68.92,52.38 70.94,53.42 Z M9.59,54.41 L11.8,53.6 C11.39,52.79 11.17,52.2 10.99,51.62 C10.99,51.62 10.99,51.62 8.78,52.38 C9.01,53.01 9.41,53.82 9.59,54.41 Z M68.92,57.38 C69.14,56.8 69.55,56.21 69.95,55.4 C69.95,55.4 69.95,55.4 67.93,54.41 C67.52,55.22 67.34,55.58 66.75,56.39 C66.75,56.39 66.75,56.39 68.92,57.38 Z M11.98,58.42 L13.78,57.2 C13.38,56.62 12.97,55.99 12.79,55.4 C12.79,55.4 12.79,55.4 10.58,56.62 C11.17,57.2 11.39,58.01 11.98,58.42 Z M66.12,61.39 C66.53,60.81 67.16,60 67.52,59.41 C67.52,59.41 67.52,59.41 65.76,58.19 C65.36,58.82 64.73,59.19 64.32,59.82 C64.32,59.82 64.32,59.82 66.12,61.39 Z M14.77,62.2 L16.39,60.81 C15.99,60.22 15.58,59.59 15.18,59.01 C15.18,59.01 15.18,59.01 13.2,60.4 C13.78,60.99 14.37,61.62 14.77,62.2 Z M62.93,64.59 C63.56,64.19 64.14,63.6 64.55,63.19 C64.55,63.19 64.55,63.19 62.93,61.62 C62.34,62.02 61.93,62.61 61.35,63.19 C61.35,63.19 61.35,63.19 62.93,64.59 Z M17.97,65.58 L19.59,63.82 C18.96,63.42 18.6,62.79 17.97,62.38 C17.97,62.38 17.97,62.38 16.39,64.01 C16.98,64.41 17.39,65 17.97,65.58 Z M59.37,67.61 C59.95,67.2 60.54,66.8 61.12,66.21 C61.12,66.21 61.12,66.21 59.73,64.41 C59.37,65 58.56,65.4 57.97,65.81 C57.97,65.81 57.97,65.81 59.37,67.61 Z M21.8,68.19 L22.97,66.39 C22.39,65.99 21.98,65.58 21.17,65.22 C21.17,65.22 21.17,65.22 19.77,67.02 C20.58,67.61 21.17,68.01 21.8,68.19 Z M55.36,70 C55.94,69.82 56.53,69.41 57.34,69.01 C57.34,69.01 57.34,69.01 56.17,67.02 C55.54,67.38 54.95,67.79 54.37,68.01 C54.37,68.01 54.37,68.01 55.36,70 Z M25.76,70.58 L26.75,68.6 C26.17,68.19 25.58,68.01 25,67.61 C25,67.61 25,67.61 23.78,69.59 C24.59,70 25.18,70.4 25.76,70.58 Z M50.94,71.8 C51.75,71.62 52.57,71.39 53.15,71.21 C53.15,71.21 53.15,71.21 52.34,69.01 C51.75,69.41 50.94,69.59 50.36,69.82 C50.36,69.82 50.36,69.82 50.94,71.8 Z M30.18,72.2 L30.99,70 C30.18,69.82 29.59,69.59 28.96,69.41 C28.96,69.41 28.96,69.41 28.2,71.62 C28.78,71.8 29.59,72.02 30.18,72.2 Z M46.35,73.19 C47.16,73.01 47.97,72.79 48.74,72.61 C48.74,72.61 48.74,72.61 48.15,70.4 C47.57,70.58 46.75,70.81 46.17,70.81 C46.17,70.81 46.17,70.81 46.35,73.19 Z M34.77,73.42 L35.18,71.21 C34.37,70.99 33.78,70.81 33.15,70.58 C33.15,70.58 33.15,70.58 32.57,73.01 C33.38,73.01 34.19,73.19 34.77,73.42 Z M41.75,73.6 C42.57,73.6 43.38,73.6 44.14,73.42 C44.14,73.42 44.14,73.42 43.78,71.21 C43.15,71.39 42.57,71.39 41.75,71.39 C41.75,71.39 41.75,71.39 41.75,73.6 Z M39.55,73.6 L39.55,71.39 C38.96,71.39 38.15,71.39 37.39,71.39 C37.39,71.39 37.39,71.39 37.16,73.6 C37.97,73.6 38.78,73.6 39.55,73.6 Z M55.93,49.01 L41.56,49.01 L41.56,56.9 L55.93,56.9 L55.93,60.95 L63.95,53.2 L63.95,52.71 L55.93,44.82 L55.93,49.01 L55.93,49.01 Z M55.93,43.11 L63.95,35.09 L63.95,35.09 L55.93,27.12 L55.93,30.9 L41.56,30.9 L41.56,38.92 L55.93,38.92 L55.93,43.11 L55.93,43.11 Z M24.18,38.41 L15.99,46.38 L15.99,46.38 L24.18,54.4 L24.18,50.21 L38.37,50.21 L38.37,42.82 L24.18,42.82 L24.18,38.41 L24.18,38.41 Z M24.18,19.21 L15.99,27.18 L15.99,27.18 L24.18,35.2 L24.18,31.01 L38.37,31.01 L38.37,22.99 L24.18,22.99 L24.18,19.21 L24.18,19.21 Z M0,40 C0,18.02 17.97,0 39.95,0 C62.16,0 79.91,18.02 79.91,40 C79.91,62.21 62.16,80 39.95,80 C17.97,80 0,62.21 0,40 Z" fill="none" stroke="currentColor" stroke-width="1.5"/></svg>