<svg xmlns="http://www.w3.org/2000/svg" viewBox="0 0 80.0 80.0" width="24" height="24"><path d="M39.41,25.8 C36.58,25.8 33.92,26.8 31.72,28.55 L9.17,28.55 C6.55,28.55 5.25,34.13 5.25,39.27 C5.25,44.44 6.55,50.02 9.17,50.02 L31.53,50.02 C33.79,51.78 36.49,52.91 39.41,52.91 C42.38,52.91 45.09,51.78 47.29,50.02 L69.58,50.02 C72.23,50.02 73.45,44.44 73.45,39.27 C73.45,34.13 72.23,28.55 69.58,28.55 L47.12,28.55 C44.91,26.84 42.29,25.8 39.41,25.8 Z M39.41,27.6 C42.02,27.6 44.32,28.55 46.22,30.08 C45.99,30.26 45.68,30.26 45.31,30.26 L45.31,31.07 L46.57,31.07 L46.57,34.26 L47.47,34.26 L47.47,31.48 C47.88,31.88 48.19,32.24 48.51,32.83 C48.78,33.05 48.91,33.45 49.09,33.81 C49.41,34.44 49.68,35.17 49.99,35.89 C49.99,36.2 50.09,36.61 50.18,36.92 L50.18,37.11 C50,36.93 49.68,36.88 49.37,36.88 C48.78,36.88 48.38,37.1 48.02,37.51 C47.7,38 47.61,38.55 47.61,39.36 C47.61,40.26 47.7,40.8 48.02,41.29 C48.29,41.7 48.78,41.92 49.37,41.92 C49.68,41.92 50,41.87 50.18,41.69 L50.18,41.78 C50.09,41.92 50.08,42.19 50.08,42.33 C49.77,43.63 49.27,44.75 48.51,45.97 C48.46,45.56 48.37,45.34 48.19,45.16 C47.97,44.67 47.48,44.44 46.98,44.44 C46.4,44.44 45.99,44.66 45.58,45.07 C45.22,45.56 45.22,46.2 45.22,46.92 C45.22,47.73 45.22,48.41 45.58,48.81 C45.58,48.86 45.67,48.94 45.72,48.94 C45.22,49.44 44.77,49.67 44.19,49.94 C43.87,50.16 43.51,50.25 43.2,50.43 C42.7,50.65 42.21,50.74 41.62,50.88 C41.22,50.97 40.9,50.97 40.5,51.06 C40.18,51.06 39.82,51.2 39.41,51.2 C39.1,51.2 38.69,51.06 38.38,51.06 C37.93,50.97 37.62,50.97 37.21,50.88 C36.63,50.74 36.13,50.65 35.73,50.43 C35.32,50.25 35,50.16 34.69,49.94 C34.33,49.85 34.1,49.66 33.79,49.53 C34.28,49.44 34.6,49.13 34.83,48.81 C35.1,48.41 35.23,47.73 35.23,46.92 C35.23,46.2 35.1,45.57 34.74,45.16 C34.51,44.67 34.01,44.44 33.52,44.44 C32.89,44.44 32.53,44.66 32.13,45.07 C31.81,45.56 31.72,46.2 31.72,46.92 L31.72,47.73 L31.72,47.82 L31.53,47.69 C31.49,47.6 31.4,47.32 31.31,47.28 C30.9,46.87 30.59,46.37 30.32,45.97 C30.14,45.79 30.1,45.48 29.92,45.34 C29.83,45.16 29.6,44.53 29.6,44.53 C29.24,43.81 29.01,43.14 28.83,42.33 C28.79,42.2 28.8,42.1 28.8,41.92 C29.33,41.92 29.74,41.7 30.1,41.16 C30.32,40.75 30.5,40.08 30.5,39.36 C30.5,38.55 30.32,38 30.1,37.51 C29.74,37.1 29.33,36.88 28.79,36.88 L28.7,36.88 C28.79,36.61 28.83,36.2 28.93,35.89 C29.11,35.35 29.33,34.76 29.6,34.26 C29.6,34.13 29.73,33.81 29.73,33.81 C29.91,33.45 30.14,33.05 30.32,32.83 C30.82,32.02 31.32,31.48 31.9,30.8 C31.9,31.07 31.81,31.47 31.81,31.88 C31.81,32.6 32.03,33.23 32.21,33.64 C32.53,34.13 33.02,34.36 33.61,34.36 C34.2,34.36 34.69,34.13 34.91,33.64 C35.18,33.23 35.32,32.6 35.32,31.88 C35.32,31.07 35.18,30.39 34.91,29.99 C34.69,29.58 34.28,29.36 33.79,29.27 C35.41,28.23 37.3,27.6 39.41,27.6 Z M31.53,47.69 C31.71,47.69 31.72,47.68 31.72,47.73 L31.49,47.59 L31.53,47.69 Z M38.44,29.66 C38.35,30.07 38.12,30.25 37.94,30.47 C37.71,30.65 37.3,30.66 36.72,30.66 L36.72,31.46 L38.21,31.46 L38.21,34.84 L39.34,34.84 L39.34,29.66 L38.44,29.66 Z M42.63,29.66 C42.14,29.66 41.56,29.93 41.24,30.47 C40.88,30.88 40.66,31.55 40.66,32.37 C40.66,33.09 40.88,33.72 41.24,34.12 C41.56,34.62 42.14,34.84 42.63,34.84 C43.36,34.84 43.85,34.62 44.17,34.12 C44.53,33.72 44.57,33.09 44.57,32.37 C44.57,31.55 44.53,30.88 44.17,30.47 C43.76,30.02 43.36,29.66 42.63,29.66 Z M33.61,30.08 C34.11,30.08 34.42,30.71 34.42,31.88 C34.42,32.92 34.11,33.55 33.61,33.55 C33.11,33.55 32.89,32.92 32.89,31.88 C32.89,30.71 33.11,30.08 33.61,30.08 Z M42.63,30.56 C43.36,30.56 43.63,31.19 43.63,32.37 C43.63,33.4 43.36,34.03 42.63,34.03 C42.14,34.03 41.78,33.4 41.78,32.37 C41.78,31.19 42.14,30.56 42.63,30.56 Z M9.17,30.71 C9.84,30.8 11.14,33.86 11.14,39.27 C11.14,44.67 9.84,47.82 9.17,47.91 C8.63,47.82 7.32,44.67 7.32,39.27 C7.32,33.86 8.63,30.8 9.17,30.71 Z M33.19,37.42 C33.1,37.74 32.87,37.91 32.69,38.05 C32.46,38.14 32.06,38.23 31.48,38.23 L31.48,38.82 L32.96,38.82 L32.96,41.29 L34.09,41.29 L34.09,37.42 L33.19,37.42 Z M37.48,37.42 C36.89,37.42 36.31,37.65 36.09,38.01 C35.64,38.32 35.41,38.82 35.41,39.45 C35.41,39.99 35.64,40.39 36.09,40.8 C36.31,41.11 36.89,41.29 37.48,41.29 C38.02,41.29 38.7,41.11 38.92,40.75 C39.28,40.39 39.33,39.94 39.33,39.45 C39.33,38.82 39.28,38.32 38.92,38.01 C38.52,37.65 38.02,37.42 37.48,37.42 Z M41.42,37.42 C40.65,37.42 40.24,37.65 40.02,38.01 C39.57,38.32 39.34,38.82 39.34,39.45 C39.34,39.99 39.57,40.39 39.84,40.8 C40.25,41.11 40.65,41.29 41.42,41.29 C41.96,41.29 42.63,41.11 42.85,40.75 C43.21,40.39 43.26,39.94 43.26,39.45 C43.26,38.82 43.12,38.32 42.85,38.01 C42.45,37.65 41.96,37.42 41.42,37.42 Z M45.49,37.42 C45.4,37.74 45.31,37.91 45.17,38.05 C45.08,38.14 44.91,38.23 44.59,38.23 L44.59,38.82 L45.31,38.82 L45.31,41.29 L45.9,41.29 L45.9,37.42 L45.49,37.42 Z M28.52,37.73 L28.79,37.73 C29.24,37.73 29.51,38.23 29.51,39.36 C29.51,40.57 29.24,41.07 28.79,41.07 L28.52,41.07 C28.52,40.57 28.43,39.94 28.43,39.36 C28.43,38.82 28.52,38.23 28.52,37.73 Z M49.37,37.73 C49.91,37.73 50.08,38.23 50.08,39.36 C50.08,40.57 49.91,41.07 49.37,41.07 C48.78,41.07 48.51,40.57 48.51,39.36 C48.51,38.23 48.78,37.73 49.37,37.73 Z M37.48,38.14 C38.02,38.14 38.38,38.55 38.38,39.45 C38.38,40.26 38.02,40.67 37.48,40.67 C36.89,40.67 36.63,40.26 36.63,39.45 C36.63,38.55 36.89,38.14 37.48,38.14 Z M41.42,38.14 C41.96,38.14 42.32,38.55 42.32,39.45 C42.32,40.26 41.96,40.67 41.42,40.67 C40.83,40.67 40.56,40.26 40.56,39.45 C40.56,38.55 40.83,38.14 41.42,38.14 Z M38.34,43.86 C38.3,44.22 38.21,44.44 37.94,44.62 C37.62,44.75 37.21,44.84 36.72,44.84 L36.72,45.74 L38.21,45.74 L38.21,49.04 L39.34,49.04 L39.34,43.86 L38.34,43.86 Z M42.63,43.86 C41.96,43.86 41.56,44.13 41.15,44.53 C40.88,45.07 40.66,45.75 40.66,46.47 C40.66,47.28 40.88,47.91 41.15,48.31 C41.56,48.81 41.96,49.04 42.63,49.04 C43.27,49.04 43.76,48.81 44.17,48.31 C44.44,47.91 44.57,47.28 44.57,46.47 C44.57,45.75 44.44,45.07 44.17,44.67 C43.76,44.13 43.27,43.86 42.63,43.86 Z M42.63,44.76 C43.18,44.76 43.44,45.25 43.44,46.47 C43.44,47.59 43.18,48.22 42.63,48.22 C42.14,48.22 41.73,47.59 41.73,46.47 C41.73,45.25 42.14,44.76 42.63,44.76 Z M33.52,45.25 C34.01,45.25 34.29,45.79 34.29,46.92 C34.29,48.09 34.01,48.72 33.52,48.72 C32.89,48.72 32.71,48.09 32.71,46.92 C32.71,45.79 32.89,45.25 33.52,45.25 Z M46.98,45.25 C47.48,45.25 47.7,45.79 47.7,46.92 L47.7,47.09 C47.7,47.18 47.61,47.19 47.52,47.28 C47.47,47.41 47.39,47.59 47.21,47.73 C46.98,48 46.71,48.13 46.39,48.4 C46.21,48.13 46.08,47.73 46.08,46.92 C46.08,45.79 46.4,45.25 46.98,45.25 Z M0,40.02 C0,18.01 17.96,0 39.98,0 C62.13,0 80,18.01 80,40.02 C80,62.08 62.13,80 39.98,80 C17.96,80 0,62.08 0,40.02 Z" fill="none" stroke="currentColor" stroke-width="1.5"/></svg>