<svg xmlns="http://www.w3.org/2000/svg" viewBox="0 0 99.35 88.24" width="24" height="24"><path d="M24.12,0 C22.79,0 21.72,1.07 21.72,2.41 L21.72,36.3 C21.72,37.64 22.79,38.71 24.12,38.71 L45.41,38.71 L45.41,47.74 L11.78,47.74 L7.62,64.41 L2.58,64.41 C1.15,64.41 0,65.56 0,66.99 L0,85.66 C0,87.09 1.15,88.24 2.58,88.24 L21.4,88.24 C22.83,88.24 23.99,87.09 23.99,85.66 L23.99,66.99 C23.99,65.56 22.83,64.41 21.4,64.41 L15.94,64.41 L15.94,56.05 L45.41,56.05 L45.41,64.41 L40.27,64.41 C38.83,64.41 37.68,65.56 37.68,66.99 L37.68,85.66 C37.68,87.09 38.83,88.24 40.27,88.24 L59.08,88.24 C60.52,88.24 61.67,87.09 61.67,85.66 L61.67,66.99 C61.67,65.56 60.52,64.41 59.08,64.41 L53.73,64.41 L53.73,56.05 L83.08,56.05 L83.08,64.41 L77.95,64.41 C76.52,64.41 75.36,65.56 75.36,66.99 L75.36,85.66 C75.36,87.09 76.52,88.24 77.95,88.24 L96.77,88.24 C98.2,88.24 99.35,87.09 99.35,85.66 L99.35,66.99 C99.35,65.56 98.2,64.41 96.77,64.41 L91.4,64.41 L91.4,51.9 L53.73,47.74 L53.73,38.71 L74.94,38.71 C76.27,38.71 77.35,37.64 77.35,36.3 L77.35,2.41 C77.35,1.07 76.27,0 74.94,0 Z M46.4,6.8 C46.66,6.81 46.92,6.83 47.18,6.86 C51.28,7.38 53.11,9 55.77,13.08 C57.47,12.34 59.05,12.38 60.57,13.18 C62.44,14.05 63.36,16.11 63.34,17.68 C66.63,17.94 69.77,20.27 69.77,24.48 C69.77,28.26 66.38,30.79 63.96,30.79 L35.49,30.79 C32.26,30.79 29.9,27.83 29.45,25.4 C28.85,21.37 31.65,18.13 35.79,17.71 C35.57,15.72 36.25,12.79 37.92,10.78 C39.21,9.16 42.53,6.72 46.4,6.8 Z" fill="none" stroke="currentColor" stroke-width="1.5"/></svg>