<svg xmlns="http://www.w3.org/2000/svg" viewBox="0 0 80.0 80.0" width="24" height="24"><path d="M37.42,71.39 L37.2,73.6 L39.59,73.6 L39.59,71.39 Z M44,71.22 L41.79,71.39 L42.02,73.6 L44.19,73.42 Z M33.18,70.62 L32.6,73.02 L34.98,73.42 L35.21,71.22 Z M48.42,70.4 L46.22,70.81 L46.62,73.2 L48.78,72.61 Z M28.99,69.41 L28.22,71.62 L30.21,72.39 L31.02,70 Z M52.39,69 L50.41,69.81 L51.22,71.8 L53.21,71.22 Z M25.02,67.61 L23.8,69.59 L26.01,70.62 L26.78,68.59 Z M56.22,67.02 L54.42,68.01 L55.41,70 L57.4,69 Z M21.41,65.21 L20.01,67.02 L22,68.42 L22.99,66.39 Z M59.79,64.4 L58.03,65.8 L59.43,67.61 L61.18,66.21 Z M17.98,62.42 L16.4,64 L18.21,65.62 L19.61,63.82 Z M62.99,61.61 L61.41,63.01 L62.99,64.59 L64.79,63.01 Z M15.18,58.99 L13.2,60.39 L14.78,62.2 L16.4,60.79 Z M65.83,58.22 L64.61,59.8 L66.19,61.2 L67.59,59.4 Z M12.8,55.38 L10.82,56.6 L11.99,58.41 L13.79,57.41 Z M68,54.39 L67,56.42 L68.99,57.41 L70.03,55.38 Z M10.99,51.42 L8.79,52.18 L9.6,54.39 L11.8,53.63 Z M69.8,50.42 L68.99,52.41 L71.02,53.22 L71.83,51.19 Z M9.6,47.4 L7.38,47.81 L7.97,50.2 L10.18,49.39 Z M70.79,46.19 L70.43,48.39 L72.6,48.8 L73.22,46.59 Z M8.79,42.98 L6.57,43.21 L6.98,45.6 L9.19,45.19 Z M71.42,41.81 L71.2,44.02 L73.41,44.38 L73.63,41.99 Z M6.57,37.8 L6.39,40.01 L6.39,40.82 L8.79,40.82 L8.79,40.01 L8.79,38.02 Z M73.63,37.39 L71.42,37.62 L71.42,39.78 L73.63,39.6 Z M7.21,33.19 L6.8,35.41 L9.19,35.82 L9.41,33.6 Z M73,32.79 L70.79,33.19 L71.02,35.41 L73.41,35 Z M8.6,28.78 L7.79,30.81 L9.77,31.62 L10.59,29.41 Z M71.6,28.19 L69.62,29 L70.2,30.99 L72.41,30.58 Z M40.02,25.6 C32.12,25.6 25.58,32.19 25.58,39.99 C25.58,48.01 32.12,54.42 40.02,54.42 C48.09,54.42 54.4,48.01 54.4,39.99 C54.4,32.19 48.09,25.6 40.02,25.6 Z M10.41,24.4 L9.41,26.39 L11.4,27.38 L12.39,25.39 Z M69.62,24 L67.59,24.99 L68.62,27.02 L70.79,26.2 Z M12.8,20.39 L11.58,22.42 L13.61,23.59 L14.6,21.79 Z M67.23,20.21 L65.42,21.39 L66.59,23.19 L68.4,22.01 Z M15.78,16.78 L14.37,18.59 L16,19.98 L17.4,18.4 Z M64.21,16.6 L62.4,18.18 L64.03,19.58 L65.61,18.18 Z M19.2,13.8 L17.4,15.21 L18.98,16.78 L20.6,15.38 Z M60.6,13.4 L59.2,15.21 L60.82,16.6 L62.4,14.98 Z M23.22,11.01 L21.19,12.18 L22.4,14.21 L24.2,12.99 Z M56.59,10.79 L55.59,12.82 L57.4,13.99 L58.79,12 Z M27.41,8.98 L25.2,10.02 L26.19,12 L28.22,11.01 Z M52.61,8.8 L51.8,10.79 L53.61,11.77 L54.6,9.79 Z M31.79,7.58 L29.39,8.22 L30.21,10.38 L32.41,9.61 Z M48.02,7.41 L47.61,9.61 L49.6,10.2 L50.41,7.99 Z M43.42,6.59 L43.19,8.8 L45.4,9.21 L45.81,7 Z M36.38,6.59 L33.99,7 L34.4,9.21 L36.61,8.8 Z M38.59,6.41 L38.82,8.8 L40.98,8.8 L40.98,6.41 Z M0,40 C0,17.99 17.9,0 40,0 C62.28,0 80,17.99 80,40 C80,62.19 62.28,80 40,80 C17.9,80 0,62.19 0,40 Z" fill="none" stroke="currentColor" stroke-width="1.5"/></svg>