<svg xmlns="http://www.w3.org/2000/svg" viewBox="0 0 79.96 79.95" width="24" height="24"><path d="M53.72,25.65 C54.17,25.65 54.41,25.43 54.41,24.96 L54.41,23.12 C54.41,22.71 54.11,22.44 53.71,22.44 L39.11,22.44 C38.64,22.44 38.43,22.84 38.43,23.15 L38.43,25.01 C38.43,25.32 38.67,25.65 39.1,25.65 Z M53.72,32 C54.17,32 54.41,31.79 54.41,31.32 L54.41,29.47 C54.41,29.07 54.11,28.8 53.71,28.8 L39.11,28.8 C38.64,28.8 38.43,29.19 38.43,29.51 L38.43,31.36 C38.43,31.68 38.67,32 39.1,32 Z M36.69,38 C36.06,38 35.64,37.69 35.64,37.05 L35.64,20.33 C35.64,19.76 36.07,19.27 36.69,19.27 L55.24,19.23 C55.78,19.23 56.24,19.61 56.24,20.33 L56.2,36.76 C56.2,37.51 55.95,38 55.16,38 Z M36.44,55.98 C35.98,55.98 35.63,55.58 35.63,54.96 L35.63,53.78 C35.63,53.09 36.17,52.78 36.66,52.78 L39.14,52.78 C39.81,52.78 40.23,53.33 40.23,53.9 L40.23,55.05 C40.23,55.63 39.76,55.98 39.14,55.98 Z M12.66,57.6 L12.65,53.39 C12.65,51.79 14.06,49.73 16.12,49.07 L16.03,36.82 C14.52,36.23 12.69,34.94 12.69,33.12 L12.69,28.89 C11.04,29.88 9.65,31.4 9.65,34.91 L9.62,51.97 C9.62,54.47 10.96,56.44 12.66,57.6 Z M25.37,64 C27.6,64 28.85,62.46 28.85,59.73 L28.87,53.45 C28.87,52.27 27.91,50.96 26.22,50.96 L26.23,36.05 C27.81,36.05 28.87,35.02 28.87,33.34 L28.85,25.61 C28.85,23.43 27.61,22.34 25.48,22.4 L20.16,22.43 C17.93,22.43 16.05,23.86 16.05,25.94 L16.04,33.36 C16.04,34.78 17.88,36.4 19.43,36.4 L19.39,50.96 C17.41,50.96 16.03,52.02 16.03,53.45 L16.03,60.63 C16.03,62.76 18.13,64.02 20.28,64.02 Z M58.41,60.82 C59.92,60.82 60.8,60.06 60.8,58.61 L60.83,28.53 C60.83,27.14 60.02,26.79 58.79,26.79 L58.79,16.96 C58.79,16.48 58.61,15.99 57.98,15.99 L33.8,15.97 C33.07,15.97 32.61,16.66 32.61,17.6 L32.6,26.19 L31.57,26.19 L31.57,33.3 C31.57,35.34 30.37,36.66 28.82,37.15 L28.84,49.51 C30.53,50.21 31.42,51.85 31.42,53.46 L31.48,60.8 Z M40.87,79.95 C16.66,79.95 0,61.43 0,39.33 C0,17.88 18.86,0 39.64,0 C62.73,0 79.96,18.37 79.96,40.22 C79.96,63.26 60.74,79.95 40.87,79.95 Z M44.38,55.98 C43.91,55.98 43.56,55.58 43.56,54.96 L43.56,53.78 C43.56,53.09 44.11,52.78 44.6,52.78 L47.08,52.78 C47.75,52.78 48.17,53.33 48.17,53.9 L48.17,55.05 C48.17,55.63 47.7,55.98 47.08,55.98 Z M52.04,55.98 C51.58,55.98 51.23,55.58 51.23,54.96 L51.23,53.78 C51.23,53.09 51.78,52.78 52.26,52.78 L54.74,52.78 C55.41,52.78 55.83,53.33 55.83,53.9 L55.83,55.05 C55.83,55.63 55.36,55.98 54.74,55.98 Z M36.44,50.72 C35.98,50.72 35.63,50.32 35.63,49.7 L35.63,48.52 C35.63,47.83 36.17,47.53 36.66,47.53 L39.14,47.53 C39.81,47.53 40.23,48.07 40.23,48.64 L40.23,49.79 C40.23,50.37 39.76,50.72 39.14,50.72 Z M44.38,50.72 C43.91,50.72 43.56,50.32 43.56,49.7 L43.56,48.52 C43.56,47.83 44.11,47.53 44.6,47.53 L47.08,47.53 C47.75,47.53 48.17,48.07 48.17,48.64 L48.17,49.79 C48.17,50.37 47.7,50.72 47.08,50.72 Z M52.04,50.72 C51.58,50.72 51.23,50.32 51.23,49.7 L51.23,48.52 C51.23,47.83 51.78,47.53 52.26,47.53 L54.74,47.53 C55.41,47.53 55.83,48.07 55.83,48.64 L55.83,49.79 C55.83,50.37 55.36,50.72 54.74,50.72 Z M36.44,45.29 C35.98,45.29 35.63,44.89 35.63,44.27 L35.63,43.09 C35.63,42.4 36.17,42.1 36.66,42.1 L39.14,42.1 C39.81,42.1 40.23,42.64 40.23,43.21 L40.23,44.36 C40.23,44.94 39.76,45.29 39.14,45.29 Z M44.38,45.29 C43.91,45.29 43.56,44.89 43.56,44.27 L43.56,43.09 C43.56,42.4 44.11,42.1 44.6,42.1 L47.08,42.1 C47.75,42.1 48.17,42.64 48.17,43.21 L48.17,44.36 C48.17,44.94 47.7,45.29 47.08,45.29 Z M52.04,45.29 C51.58,45.29 51.23,44.89 51.23,44.27 L51.23,43.09 C51.23,42.4 51.78,42.1 52.26,42.1 L54.74,42.1 C55.41,42.1 55.83,42.64 55.83,43.21 L55.83,44.36 C55.83,44.94 55.36,45.29 54.74,45.29 Z" fill="none" stroke="currentColor" stroke-width="1.5"/></svg>