<svg xmlns="http://www.w3.org/2000/svg" viewBox="0 0 100.0 86.34" width="24" height="24"><path d="M22.2,19.88 C20.64,19.88 19.91,22.95 19.91,25.69 C19.91,28.49 20.64,31.62 22.2,31.62 L34.84,31.62 L36.86,33.8 C35.74,34.81 34.96,36.15 34.34,37.44 L22.2,37.44 C20.64,37.44 19.91,40.46 19.91,43.25 C19.91,46.05 20.64,48.96 22.2,48.96 L34.34,48.96 C34.96,50.36 35.74,51.7 36.86,52.6 L34.84,54.77 L22.2,54.77 C20.64,54.77 19.91,57.79 19.91,60.64 C19.91,63.44 20.64,66.46 22.2,66.46 L38.59,66.46 L47.48,57.01 C50.28,56.78 52.9,55.78 55.14,54.1 L84.72,54.1 C87.63,54.1 88.92,48.46 88.92,43.25 C88.92,37.94 87.63,32.29 84.72,32.29 L55.03,32.29 C52.91,30.72 50.39,29.72 47.7,29.39 L38.59,19.88 Z M22.2,21.05 C22.54,21.16 23.32,22.89 23.32,25.69 C23.32,28.71 22.54,30.28 22.2,30.39 C21.92,30.28 21.14,28.71 21.14,25.69 C21.14,22.89 21.92,21.16 22.2,21.05 Z M46.81,31.23 C49.38,31.23 51.89,32.23 54.02,33.8 C53.68,33.91 53.41,33.91 53.13,33.91 L53.13,34.7 L54.3,34.7 L54.3,38.06 L55.31,38.06 L55.31,35.15 C55.7,35.54 56.14,36.04 56.54,36.54 C56.7,36.82 56.82,37.1 57.04,37.55 C57.43,38.22 57.71,38.84 57.93,39.62 C58.1,39.96 58.21,40.35 58.21,40.74 L58.33,40.85 C58.05,40.74 57.71,40.62 57.32,40.62 C56.71,40.62 56.21,40.85 56.04,41.35 C55.65,41.74 55.42,42.47 55.42,43.25 C55.42,44.04 55.64,44.65 55.92,45.15 C56.2,45.54 56.71,45.88 57.32,45.88 C57.71,45.88 58.05,45.77 58.33,45.54 C58.33,45.54 58.33,45.66 58.21,45.66 C58.21,45.88 58.22,46.05 58.11,46.16 C57.72,47.56 57.21,48.79 56.54,49.97 C56.42,49.57 56.32,49.29 56.15,49.18 C55.7,48.56 55.31,48.4 54.69,48.4 C54.13,48.4 53.63,48.57 53.41,48.96 C53.02,49.58 52.8,50.19 52.8,50.86 C52.8,51.7 53.01,52.31 53.29,52.81 C53.41,52.87 53.41,52.98 53.41,52.98 C53.02,53.37 52.4,53.71 51.78,53.99 C51.5,54.22 51.11,54.32 50.78,54.49 C50.22,54.72 49.71,54.77 49.1,55 C48.71,55.11 48.32,55.11 47.87,55.11 C47.48,55.11 47.09,55.28 46.81,55.28 C46.31,55.28 45.97,55.11 45.46,55.11 C45.07,55.11 44.69,55.11 44.29,55 C43.79,54.77 43.17,54.72 42.55,54.49 C42.28,54.32 41.89,54.22 41.66,53.99 C41.27,53.88 40.88,53.71 40.66,53.49 C41.05,53.38 41.5,53.21 41.66,52.81 C42.06,52.31 42.17,51.7 42.17,50.86 C42.17,50.19 42.06,49.57 41.66,49.18 C41.38,48.56 40.88,48.4 40.27,48.4 C39.65,48.4 39.15,48.57 38.98,48.96 C38.59,49.58 38.36,50.19 38.36,50.86 C38.36,51.3 38.47,51.59 38.47,51.81 L38.26,51.7 C38.26,51.58 38.14,51.36 37.98,51.3 C37.58,50.85 37.24,50.36 36.96,49.97 C36.85,49.8 36.58,49.46 36.58,49.29 C36.47,49.18 36.07,48.45 36.07,48.45 C35.74,47.78 35.46,46.95 35.23,46.16 C35.23,46.16 35.24,45.94 35.18,45.77 C35.18,45.88 35.18,45.88 35.23,45.88 C35.85,45.88 36.35,45.55 36.68,45.05 C36.96,44.54 37.19,43.98 37.19,43.25 C37.19,42.47 36.97,41.74 36.58,41.35 C36.35,40.85 35.74,40.62 35.23,40.62 L35.18,40.62 C35.24,40.34 35.35,39.96 35.46,39.62 C35.68,39.12 35.74,38.56 36.07,38.06 C36.18,37.94 36.35,37.55 36.35,37.55 C36.57,37.1 36.68,36.82 36.96,36.54 C37.47,35.7 38.08,35.15 38.64,34.42 C38.58,34.7 38.59,35.15 38.59,35.54 C38.59,36.32 38.76,36.93 39.09,37.44 C39.37,37.83 39.77,38.06 40.49,38.06 C41.05,38.06 41.5,37.83 41.89,37.44 C42.17,36.93 42.39,36.32 42.39,35.54 C42.39,34.7 42.17,34.14 41.89,33.63 C41.5,33.19 41.16,33.02 40.66,32.91 C42.5,31.79 44.46,31.23 46.81,31.23 Z M38.26,51.7 L38.36,51.7 L38.26,51.58 Z M44.99,32.72 C44.88,33.33 44.88,33.51 44.71,33.73 C44.49,33.9 44.27,33.9 43.99,33.9 L43.99,35.01 L44.88,35.01 L44.88,39.15 L45.6,39.15 L45.6,32.72 Z M50.48,32.72 C49.92,32.72 49.58,33 49.19,33.73 C49.02,34.23 48.8,35.01 48.8,36.02 C48.8,36.91 49.02,37.75 49.19,38.31 C49.58,38.81 49.92,39.15 50.48,39.15 C50.98,39.15 51.42,38.81 51.7,38.31 C51.93,37.75 51.98,36.91 51.98,36.02 C51.98,35.01 51.93,34.23 51.7,33.73 C51.42,33.11 50.98,32.72 50.48,32.72 Z M50.48,33.73 C50.93,33.73 51.21,34.51 51.21,36.02 C51.21,37.42 50.93,38.26 50.48,38.26 C50.03,38.26 49.81,37.42 49.81,36.02 C49.81,34.51 50.03,33.73 50.48,33.73 Z M40.49,33.8 C41,33.8 41.27,34.42 41.27,35.54 C41.27,36.66 41,37.22 40.49,37.22 C39.77,37.22 39.59,36.66 39.59,35.54 C39.59,34.42 39.77,33.8 40.49,33.8 Z M22.2,38.55 C22.54,38.61 23.32,40.23 23.32,43.25 C23.32,46.16 22.54,47.78 22.2,47.89 C21.92,47.78 21.14,46.16 21.14,43.25 C21.14,40.23 21.92,38.61 22.2,38.55 Z M40.18,40.76 C40.07,41.16 40.07,41.27 39.9,41.55 C39.67,41.66 39.56,41.78 39.17,41.78 L39.17,42.44 L40.06,42.44 L40.06,45.58 L40.79,45.58 L40.79,40.76 Z M44.01,40.76 C43.5,40.76 43.11,41.05 42.77,41.44 C42.61,41.83 42.38,42.45 42.38,43.18 C42.38,43.96 42.61,44.46 42.77,44.96 C43.11,45.35 43.5,45.58 44.01,45.58 C44.51,45.58 44.9,45.36 45.29,44.85 C45.51,44.46 45.57,43.85 45.57,43.18 C45.57,42.45 45.51,41.83 45.29,41.44 C44.9,41.05 44.51,40.76 44.01,40.76 Z M48.82,40.76 C48.32,40.76 47.92,41.05 47.59,41.44 C47.42,41.83 47.19,42.45 47.19,43.18 C47.19,43.96 47.42,44.46 47.59,44.96 C47.92,45.35 48.32,45.58 48.82,45.58 C49.38,45.58 49.83,45.36 50.1,44.85 C50.33,44.46 50.38,43.85 50.38,43.18 C50.38,42.45 50.33,41.83 50.1,41.44 C49.83,41.05 49.38,40.76 48.82,40.76 Z M53.13,40.76 C53.02,41.16 52.9,41.27 52.73,41.55 C52.62,41.66 52.4,41.78 52.01,41.78 L52.01,42.44 L52.9,42.44 L52.9,45.58 L53.63,45.58 L53.63,40.76 Z M34.95,41.52 L35.23,41.52 C35.74,41.52 36.07,42.02 36.07,43.25 C36.07,44.48 35.74,44.98 35.23,44.98 L34.95,44.98 C34.95,44.48 34.84,43.76 34.84,43.25 C34.84,42.53 34.95,42.02 34.95,41.52 Z M57.32,41.52 C57.94,41.52 58.21,42.02 58.21,43.25 C58.21,44.48 57.94,44.98 57.32,44.98 C56.82,44.98 56.54,44.48 56.54,43.25 C56.54,42.02 56.82,41.52 57.32,41.52 Z M44.01,41.55 C44.51,41.55 44.78,42.17 44.78,43.18 C44.78,44.24 44.51,44.74 44.01,44.74 C43.61,44.74 43.39,44.24 43.39,43.18 C43.39,42.17 43.61,41.55 44.01,41.55 Z M48.82,41.55 C49.32,41.55 49.48,42.17 49.48,43.18 C49.48,44.24 49.32,44.74 48.82,44.74 C48.43,44.74 48.09,44.24 48.09,43.18 C48.09,42.17 48.43,41.55 48.82,41.55 Z M45.11,48.8 C44.99,49.08 44.88,49.36 44.71,49.36 C44.6,49.59 44.38,49.69 43.99,49.69 L43.99,50.48 L44.88,50.48 L44.88,53.61 L45.6,53.61 L45.6,48.8 Z M50.42,48.8 C49.92,48.8 49.52,48.97 49.19,49.36 C48.91,49.98 48.8,50.59 48.8,51.21 C48.8,51.99 48.91,52.61 49.19,53 C49.52,53.39 49.92,53.61 50.42,53.61 C50.98,53.61 51.42,53.39 51.7,53 C51.93,52.61 51.98,51.99 51.98,51.21 C51.98,50.59 51.93,49.97 51.6,49.47 C51.43,48.96 50.92,48.8 50.42,48.8 Z M40.27,49.18 C40.88,49.18 41.16,49.79 41.16,50.86 C41.16,52.09 40.88,52.7 40.27,52.7 C39.76,52.7 39.48,52.09 39.48,50.86 C39.48,49.79 39.76,49.18 40.27,49.18 Z M54.69,49.18 C55.31,49.18 55.64,49.79 55.64,50.86 L55.64,51.08 L55.42,51.3 C55.31,51.47 55.14,51.58 55.14,51.7 C54.8,51.98 54.52,52.2 54.3,52.48 C54.02,52.2 53.91,51.7 53.91,50.86 C53.91,49.79 54.19,49.18 54.69,49.18 Z M50.42,49.58 C50.92,49.58 51.09,50.09 51.09,51.21 C51.09,52.27 50.92,52.88 50.42,52.88 C49.92,52.88 49.69,52.27 49.69,51.21 C49.69,50.09 49.92,49.58 50.42,49.58 Z M22.2,56 C22.54,56.12 23.32,57.74 23.32,60.64 C23.32,63.55 22.54,65.12 22.2,65.23 C21.92,65.12 21.14,63.55 21.14,60.64 C21.14,57.74 21.92,56.12 22.2,56 Z M72.72,82.83 L95.45,42.87 L72.71,3.12 L27.36,3.12 L4.57,42.84 L27.32,82.83 Z M24.74,86.34 L0,43 L24.66,0 L75.28,0 L100,43 L75.27,86.34 Z" fill="none" stroke="currentColor" stroke-width="1.5"/></svg>