<svg xmlns="http://www.w3.org/2000/svg" viewBox="0 0 80.14 70.4" width="24" height="24"><path d="M66.63,27.79 C66.5,27.4 66.36,26.91 66.22,26.38 C66.16,26.04 66.09,25.71 65.95,25.43 C64.67,21.17 62.31,17.25 59.06,14.07 C58.73,13.66 58.32,13.26 57.85,12.91 C57.78,12.99 57.78,13.13 57.78,13.26 C57.85,13.8 58.52,13.8 58.87,14.07 C58.99,14.13 58.99,14.34 59.12,14.41 C59.26,14.68 59.48,14.68 59.48,14.95 C59.54,15.49 58.99,15.49 58.99,16.1 C58.93,16.37 58.65,16.29 58.65,16.64 C58.65,16.84 58.87,16.84 59.06,16.98 L59.26,16.98 C59.4,16.98 59.54,16.98 59.6,17.12 C59.73,17.38 59.6,17.51 59.48,17.79 C59.73,18.06 59.73,18.53 59.26,18.53 L59.26,18.53 C58.93,18.53 58.87,18.26 58.65,18.2 C58.45,18.2 58.32,18.2 58.18,18.12 L58.12,18.12 C57.92,18.12 57.78,18.06 57.65,18.06 C57.43,17.98 57.17,17.98 57.04,17.98 C56.84,17.98 56.63,17.98 56.57,17.92 C56.9,17.38 57.37,16.84 57.85,16.43 C58.04,16.37 58.32,16.23 58.32,15.96 C58.18,15.9 58.18,15.9 58.12,15.9 C57.92,15.9 57.65,16.04 57.51,16.16 C57.17,16.29 56.9,16.51 56.63,16.57 C56.09,16.64 55.41,16.43 54.94,16.71 C54.87,16.98 55.48,16.84 55.35,17.18 C55.21,17.25 55.07,17.25 55.01,17.18 C54.94,17.18 54.8,17.18 54.68,17.04 C54.54,16.98 54.68,16.77 54.54,16.71 C54.46,16.64 54.33,16.57 54.13,16.57 C53.93,16.51 53.72,16.51 53.6,16.57 C53.24,16.64 52.91,16.84 52.91,17.12 L53.18,17.12 C53.46,17.12 53.66,17.04 53.85,17.18 C53.99,17.18 54.13,17.25 54.13,17.38 C53.93,17.79 53.38,17.98 53.46,18.53 C53.46,18.73 53.66,19.01 53.85,19.01 C53.99,19.01 54.13,18.87 54.27,18.87 L54.33,18.87 C54.54,18.87 54.54,19.01 54.68,19.07 C54.94,18.87 55.07,18.53 55.48,18.53 L55.55,18.53 C55.96,19.07 55.21,19.34 54.68,19.55 C54.2,19.68 53.52,19.75 53.12,19.95 C52.91,19.95 52.44,20.5 52.24,20.28 C52.1,20.28 52.04,20.28 52.04,20.15 C51.9,19.75 52.38,19.89 52.38,19.55 C52.04,19.55 51.57,19.75 51.16,19.95 C50.49,20.15 49.41,20.28 49.27,21.03 L49.27,21.58 C49.06,21.58 48.72,21.64 48.45,21.72 C48.19,21.78 47.91,21.98 47.72,22.05 C47.5,22.11 47.37,22.11 47.24,22.11 C47.17,22.19 46.97,22.33 46.97,22.45 L42.37,21.37 L39.54,20.83 L36.82,21.44 C36.82,21.44 27.5,23.47 27.37,23.53 L27.37,30.9 C27.37,32.53 27.64,34.09 28.05,35.64 C27.91,35.5 27.84,35.5 27.72,35.38 C27.5,35.3 27.3,35.3 27.17,35.24 C26.97,35.17 26.76,34.97 26.5,34.77 C26.28,34.63 25.95,34.36 25.95,34.16 C25.95,33.89 26.22,33.69 26.22,33.48 C26.36,32.73 25.75,32.12 25.42,31.72 C25.14,31.31 24.87,31.12 24.61,30.84 L24.61,30.37 C24.39,30.17 24.26,29.82 24,29.56 C23.86,29.29 23.45,29.01 23.39,28.81 C23.31,28.4 23.53,28.07 23.39,27.79 C23.18,27.19 22.37,27.46 22.51,28.21 C22.51,28.4 22.78,28.68 22.84,28.88 C22.98,29.09 22.98,29.42 23.05,29.62 C23.12,29.82 23.39,30.09 23.45,30.37 C23.59,30.78 23.59,31.25 23.72,31.51 C23.86,31.79 24.26,32 24,32.33 C23.72,32.39 23.59,32.06 23.39,31.86 C23.31,31.79 22.92,31.59 22.84,31.31 C22.78,31.18 22.98,30.9 22.92,30.7 C22.78,30.23 21.9,30.23 21.9,29.82 C21.9,29.49 22.31,29.42 22.31,29.15 C22.31,28.88 21.84,28.6 21.76,28.34 C21.62,28.13 21.62,27.73 21.62,27.46 L21.62,26.51 C21.56,26.32 21.23,25.97 21.01,25.91 C20.68,25.71 20.48,25.77 20.34,25.49 C20.21,25.36 20.15,24.88 20.07,24.75 C20.01,24.35 20.07,23.94 20.07,23.47 C20.01,23.13 20.01,22.8 20.07,22.33 L20.01,22.33 L20.01,22.33 C20.15,21.91 20.48,21.84 20.54,21.58 C20.68,21.31 20.75,21.03 20.89,20.83 C21.09,20.42 21.62,20.03 21.97,19.61 C22.31,19.2 22.64,18.81 22.84,18.26 C22.92,18.06 23.18,17.73 23.12,17.51 C23.12,17.18 22.51,16.98 22.57,16.51 C22.57,16.37 22.92,16.37 22.98,16.1 C23.05,15.96 23.12,15.68 23.12,15.49 C23.12,15.21 22.92,14.95 22.98,14.6 C23.05,14.34 23.45,14.21 23.31,13.87 C23.18,13.87 23.18,13.87 23.12,13.8 C22.98,13.87 22.78,13.87 22.64,13.87 L22.45,13.87 C22.17,13.66 22.45,13.52 22.51,13.13 C22.51,12.99 22.37,12.78 22.45,12.78 C22.45,12.58 22.78,12.38 22.64,12.3 C22.57,12.18 22.51,12.04 22.45,11.91 C22.17,12.11 22.03,12.24 21.76,12.38 C15.82,17.38 11.97,24.88 11.97,33.28 C11.97,48.36 24.39,60.6 39.6,60.6 C41.9,60.6 44.06,60.39 46.22,59.86 C46.22,59.72 46.16,59.72 46.16,59.72 C46.16,59.11 46.22,58.7 46.16,58.09 C46.09,57.7 46.02,57.09 45.89,56.75 C45.69,56.48 45,56 44.67,55.79 C44.47,55.67 44.2,55.67 44,55.53 C43.86,55.46 43.72,55.4 43.59,55.32 L43.45,55.18 L42.17,53.84 L42.17,53.77 C41.97,53.43 41.7,53.16 41.5,52.9 C41.09,52.29 40.82,51.47 40.34,50.86 C40.15,50.52 40.01,50.19 39.81,49.91 C39.6,49.77 39.26,49.64 39.12,49.44 C39.12,49.17 38.87,48.69 38.93,48.5 L38.99,48.42 C39.12,48.56 39.34,48.69 39.6,48.69 C43.86,46.94 47.5,43.7 49.6,39.57 C49.6,39.63 49.74,39.63 49.74,39.63 C49.94,39.71 50.08,39.84 50.21,39.97 C50.35,39.97 50.41,39.71 50.69,39.84 L50.75,39.84 C50.61,40.1 50.82,40.24 50.88,40.45 C50.96,40.57 50.96,40.71 51.02,40.79 C51.22,40.99 51.43,40.99 51.69,41.05 C51.9,41.18 52.04,41.46 52.38,41.73 C52.57,42.07 52.99,42.34 53.46,42.4 C53.72,42.4 53.99,42.27 54.27,42.34 L54.33,42.34 L54.4,42.34 C55.01,42.48 55.48,42.81 55.88,43.15 C56.23,43.35 56.43,43.48 56.49,43.76 C56.57,43.89 56.49,44.09 56.63,44.31 C56.76,44.7 57.31,44.84 57.1,45.52 C57.17,45.78 57.37,45.78 57.65,45.92 C57.78,46.06 57.92,46.26 58.12,46.33 L58.45,46.33 L58.59,46.33 C58.93,46.33 59.2,46.47 59.48,46.61 C59.67,46.67 59.95,46.67 60.07,46.8 C60.21,46.87 60.28,47.22 60.42,47.28 C60.56,47.41 60.82,47.28 60.95,47.28 L61.03,47.41 L61.09,47.41 C61.23,47.41 61.5,47.41 61.62,47.47 C61.84,47.55 61.97,47.61 62.11,47.61 C62.31,47.61 62.37,47.47 62.58,47.55 L62.64,47.55 L62.7,47.55 C62.78,47.55 62.92,47.61 62.92,47.61 C65.55,43.42 67.11,38.55 67.11,33.28 C67.11,31.45 66.97,29.56 66.63,27.79 Z M49.33,32.26 C49.33,38.82 45.28,44.5 39.54,46.8 C33.79,44.5 29.74,38.82 29.74,32.26 L29.74,25.22 L33.32,24.49 L33.32,25.77 L37.31,24.82 L37.31,23.47 L39.54,22.94 L41.76,23.47 L41.76,24.82 L45.69,25.77 L45.69,24.49 L49.33,25.22 Z M32.51,28.82 L32.51,32.4 C32.51,33.42 32.57,34.23 32.84,35.11 C33.12,36.92 33.86,38.55 34.81,40.04 L45.49,28.6 C44.74,28.41 43.05,27.93 39.39,27.05 Z M39.53,43.29 C42.99,41.6 45.54,38.48 46.23,34.9 C46.49,34.09 46.57,33.28 46.57,32.4 L46.57,30.3 L35.75,40.58 C36.83,41.74 38.11,42.6 39.53,43.29 Z M55.21,11.44 C55.21,11.16 55.41,11.09 55.49,10.83 C55.74,11.09 56.09,11.36 56.29,11.57 C56.29,11.63 56.23,11.69 56.16,11.77 C56.02,11.83 55.74,11.91 55.62,11.91 C55.49,11.83 55.27,11.69 55.21,11.44 Z M46.7,9.06 C47.17,8.92 47.37,8.65 47.78,8.53 C47.98,8.45 48.18,8.53 48.45,8.45 C48.65,8.39 48.92,8.25 49.14,8.18 C49.26,8.12 49.4,8.04 49.61,8.04 C49.61,7.92 49.67,7.92 49.67,7.92 C49.61,8.25 49.2,8.39 49.14,8.65 C49.2,8.86 49.34,8.92 49.47,8.92 C49.87,9 50.34,8.53 50.69,8.53 C51.03,8.59 51.29,8.79 51.56,8.79 C51.64,8.79 51.7,8.73 51.83,8.53 C51.7,8.25 51.42,8.12 51.16,7.92 C51.03,7.84 50.81,7.71 50.69,7.57 C51.89,8.04 53.05,8.65 54.13,9.26 C54.06,9.34 53.92,9.4 53.8,9.4 C53.59,9.4 53.25,9.26 53.11,9.2 L52.98,9.2 L52.58,9.2 L52.5,9.2 C52.31,9.26 52.17,9.53 52.03,9.73 C52.03,9.87 51.89,9.94 51.7,10.08 C51.77,10.34 51.36,10.55 51.36,10.83 C51.29,10.95 51.36,11.16 51.36,11.3 C51.42,12.78 50.2,13.52 48.65,13.39 C48.45,13.72 48.45,14.13 48.31,14.61 C48.18,14.88 47.78,15.15 47.37,15.15 C47.23,15.08 46.97,14.82 46.97,14.68 C46.97,14.33 47.37,14.27 47.1,13.94 C47.17,13.72 47.64,13.6 47.57,13.33 C47.51,13.13 47.37,13.05 47.17,13.05 L46.56,13.05 C46.23,12.99 45.82,12.85 45.54,12.72 C45.15,12.52 44.87,12.03 44.34,12.03 L44.26,12.03 L43.93,12.03 C43.79,12.03 43.73,12.03 43.65,11.97 C43.52,11.83 43.73,11.56 43.73,11.44 C43.73,11.3 43.32,11.22 43.32,11.03 C43.32,10.89 43.73,10.48 43.79,10.34 C44.06,10.14 44.54,9.94 45.01,9.73 C45.34,9.53 45.82,9.26 46.23,9.2 C46.36,9.14 46.56,9.14 46.7,9.06 Z M20.95,0 C20.37,0 19.83,0.31 19.54,0.81 L0.29,34.29 C0,34.79 0,35.41 0.29,35.91 L19.54,69.53 C19.83,70.03 20.37,70.34 20.95,70.34 L59.01,70.34 C59.37,70.4 59.74,70.33 60.05,70.16 C60.09,70.13 60.13,70.11 60.17,70.08 L60.19,70.07 C60.47,69.89 60.69,69.62 60.81,69.3 L79.86,35.91 C80.14,35.41 80.14,34.8 79.86,34.3 L60.68,0.82 C60.39,0.31 59.85,0 59.27,0 Z M21.89,3.25 L58.33,3.25 L76.58,35.11 L58.33,67.1 L21.89,67.1 L3.56,35.11 Z" fill="none" stroke="currentColor" stroke-width="1.5"/></svg>