<svg xmlns="http://www.w3.org/2000/svg" viewBox="0 0 80.14 69.46" width="24" height="24"><path d="M20.94,0 C20.37,0 19.85,0.3 19.56,0.79 L0.29,33.83 C0,34.33 0,34.94 0.29,35.44 L19.56,68.61 C19.84,69.1 20.37,69.4 20.94,69.41 L59.02,69.41 C59.38,69.46 59.74,69.39 60.05,69.22 C60.09,69.2 60.12,69.18 60.16,69.16 C60.45,68.97 60.67,68.7 60.8,68.37 L79.86,35.44 C80.14,34.94 80.14,34.33 79.86,33.83 L60.66,0.8 C60.38,0.3 59.85,0 59.28,0 L20.94,0 Z M21.86,3.2 L58.36,3.2 L76.62,34.64 L58.36,66.2 L21.86,66.2 L18.75,60.84 C20.67,60.73 21.71,59.06 22.61,57.32 C23.54,59.06 24.6,60.53 26.47,60.53 C28.35,60.53 29.41,58.99 30.4,57.32 C31.34,59.12 32.48,60.86 34.54,60.86 C36.54,60.86 37.68,59.12 38.54,57.32 C39.47,59.06 40.61,60.53 42.47,60.53 C44.2,60.53 45.27,58.99 46.2,57.26 C47.21,59.12 48.47,60.86 50.47,60.86 C52.47,60.86 53.67,59.12 54.54,57.32 C55.47,59.06 56.54,60.53 58.48,60.53 C60.54,60.53 61.68,58.46 62.4,56.72 L62.48,56.72 C62.87,56.52 63,56.11 62.94,55.72 C62.15,53.85 60.94,51.25 58.48,51.25 C56.27,51.25 55.07,52.99 54.14,54.85 C53.28,53.18 52.27,51.65 50.47,51.65 C48.74,51.65 47.61,53.18 46.68,54.93 C45.61,52.99 44.47,51.25 42.47,51.25 C40.34,51.25 39.08,52.99 38.14,54.85 C37.27,53.18 36.28,51.65 34.54,51.65 C32.73,51.65 31.74,53.18 30.81,54.85 C29.8,53.05 28.6,51.25 26.47,51.25 C24.33,51.25 23.15,52.99 22.21,54.85 C21.27,53.18 20.34,51.65 18.55,51.65 C16.74,51.65 15.62,53.19 15.02,54.43 L3.52,34.64 L21.86,3.2 Z M39.14,3.21 L28.87,18.82 L35.74,18.82 L35.74,27.76 L42.54,27.76 L42.54,18.82 L49.15,18.82 L39.14,3.21 Z M33.15,29.89 L21.27,30.9 L23.21,33.91 L17.14,37.63 L19.27,40.58 L25.54,36.84 L27.48,39.77 L33.15,29.89 Z M43.81,29.89 L49.47,39.77 L51.61,36.84 L57.54,40.58 L59.82,37.63 L53.68,33.91 L55.8,30.9 L43.81,29.89 Z M39,30.96 L33.14,41.58 L37,41.58 L37,49.12 L41.08,49.12 L41.08,41.58 L44.88,41.58 L39,30.96 Z M18.55,52.45 C20.08,52.45 20.88,53.92 21.73,55.65 C21.73,55.72 21.67,55.78 21.67,55.92 C20.61,58.05 19.87,59.39 18.55,59.39 C18.29,59.39 18.05,59.34 17.82,59.25 L15.49,55.24 C15.92,54.16 16.92,52.45 18.55,52.45 Z M34.54,52.45 C36.01,52.45 36.87,53.92 37.74,55.65 C37.68,55.72 37.68,55.78 37.68,55.92 C36.61,58.05 35.8,59.39 34.54,59.39 C33.08,59.39 32.21,57.66 31.34,55.78 C31.28,55.78 31.28,55.72 31.2,55.72 C32.13,53.92 33,52.45 34.54,52.45 Z M50.47,52.45 C52,52.45 52.87,53.92 53.74,55.65 C53.67,55.72 53.67,55.78 53.61,55.92 C52.54,58.05 51.81,59.39 50.47,59.39 C49.01,59.39 48.08,57.59 47.07,55.72 C48,53.92 49.01,52.45 50.47,52.45 Z M26.47,52.78 C28.07,52.78 29.01,54.58 29.94,56.52 C29.07,58.26 28.07,59.72 26.47,59.72 C24.81,59.72 23.87,58.26 23.01,56.52 C23.94,54.58 24.87,52.78 26.47,52.78 Z M42.47,52.78 C43.81,52.78 44.8,54.58 45.73,56.39 L45.81,56.46 C44.88,58.26 43.95,59.72 42.47,59.72 C40.8,59.72 39.87,58.26 39,56.52 C39.93,54.58 40.8,52.78 42.47,52.78 Z M58.48,52.78 C59.61,52.78 60.61,53.92 61.55,56.25 C61.55,56.39 61.61,56.46 61.68,56.52 C60.75,58.73 59.74,59.72 58.48,59.72 C56.81,59.72 55.88,58.26 55.01,56.52 C55.88,54.58 56.81,52.78 58.48,52.78 Z" fill="none" stroke="currentColor" stroke-width="1.5"/></svg>