<svg xmlns="http://www.w3.org/2000/svg" viewBox="0 0 79.71 99.18" width="24" height="24"><path d="M31.27,0 L31.27,7.37 L45.47,7.37 L45.47,0 Z M48.45,0 L48.45,7.37 L62.43,7.37 L62.43,0 Z M65.4,0 L65.4,7.37 L79.71,7.37 L79.71,0 Z M31.27,10.8 L31.27,18.14 L36.99,18.14 L36.99,10.8 Z M39.97,10.8 L39.97,18.14 L53.95,18.14 L53.95,10.8 Z M56.93,10.8 L56.93,18.14 L70.9,18.14 L70.9,10.8 Z M73.88,10.8 L73.88,18.14 L79.71,18.14 L79.71,10.8 Z M2.69,21.01 C1.2,21.01 0,22.21 0,23.7 L0,96.5 C0,97.99 1.2,99.18 2.69,99.18 L49.63,99.18 C51.12,99.18 52.32,97.99 52.32,96.5 L52.32,39.76 L53.95,39.76 L53.95,32.33 L52.32,32.33 L52.32,28.91 L62.43,28.91 L62.43,21.57 L51.26,21.57 C50.81,21.22 50.25,21.01 49.63,21.01 Z M65.4,21.57 L65.4,28.91 L79.71,28.91 L79.71,21.57 Z M30.76,25.61 L21.61,26.17 L30.73,25.61 Z M3.94,29.79 L48.38,29.79 L48.38,32.33 L39.97,32.33 L39.97,36.76 L36.99,36.76 L36.99,32.33 L31.27,32.33 L31.27,36.76 L11.03,36.76 C10.09,36.76 9.33,37.52 9.33,38.46 L9.33,72.84 C9.33,73.78 10.09,74.53 11.03,74.53 L43.73,74.53 C44.66,74.53 45.42,73.78 45.42,72.84 L45.42,39.76 L48.38,39.76 L48.38,85.22 L3.94,85.22 Z M56.93,32.33 L56.93,39.76 L70.9,39.76 L70.9,32.33 Z M73.88,32.33 L73.88,39.76 L79.71,39.76 L79.71,32.33 Z M12.92,39.46 Z M17.14,39.46 Z M21.35,39.46 Z M13.38,46.36 L40.9,46.36 C42.11,46.36 43.07,47.33 43.07,48.54 L43.07,69.52 C43.07,70.73 42.11,71.69 40.9,71.69 L13.38,71.69 C12.18,71.69 11.21,70.73 11.21,69.52 L11.21,48.54 C11.21,47.33 12.18,46.36 13.38,46.36 Z M33.73,49.34 L33.67,49.35 L32.88,49.44 L32.82,49.45 L32.76,49.46 L32.51,49.54 L32.7,50.15 L30.01,51.23 L29.82,51.49 L29.8,51.52 L29.78,51.54 L29.57,51.91 L29.55,51.94 L29.54,51.97 L29.37,52.34 L29.36,52.37 L29.34,52.41 L29.21,52.79 L29.21,52.82 L29.2,52.86 L29.11,53.25 L29.09,53.29 L29.09,53.34 L29.04,54.03 L29.66,54.07 L29.96,56.96 L30.1,57.15 L30.12,57.18 L30.14,57.2 L30.42,57.5 L30.44,57.52 L30.46,57.54 L30.77,57.82 L30.8,57.84 L30.83,57.87 L31.17,58.11 L31.19,58.13 L31.22,58.15 L31.59,58.36 L31.62,58.38 L31.65,58.39 L32.02,58.56 L32.05,58.58 L32.08,58.59 L32.4,58.69 L32.61,58.06 L35.41,58.61 L35.61,58.55 L35.67,58.53 L35.72,58.5 L36.42,58.12 L36.46,58.1 L36.5,58.07 L36.83,57.83 L36.85,57.81 L36.88,57.79 L37.18,57.51 L37.2,57.49 L37.22,57.46 L37.5,57.16 L37.52,57.13 L37.54,57.11 L37.79,56.76 L37.23,56.36 L38.55,54.54 L38.58,54.12 L38.59,54.05 L38.58,53.99 L38.49,53.2 L38.48,53.14 L38.46,53.08 L38.23,52.32 L38.21,52.27 L38.18,52.21 L37.88,51.65 L37.28,51.97 L35.52,49.66 L35.14,49.54 L35.11,49.52 L35.07,49.52 L34.68,49.43 L34.63,49.42 L34.59,49.41 L33.79,49.35 Z M33.77,51.79 C35.05,51.79 36.1,52.84 36.1,54.12 C36.1,55.4 35.05,56.44 33.77,56.44 C32.49,56.44 31.45,55.4 31.45,54.12 C31.45,52.84 32.49,51.79 33.77,51.79 Z M33.77,52.78 C33.03,52.78 32.44,53.37 32.44,54.12 C32.44,54.86 33.03,55.45 33.77,55.45 C34.52,55.45 35.11,54.86 35.11,54.12 C35.11,53.37 34.52,52.78 33.77,52.78 Z M22.12,53.25 L22.01,53.26 L20.67,53.41 L20.56,53.42 L20.46,53.45 L20.03,53.59 L20.35,54.62 L15.75,56.47 L15.42,56.92 L15.39,56.96 L15.36,57.01 L15,57.64 L14.97,57.69 L14.95,57.74 L14.66,58.38 L14.63,58.44 L14.61,58.49 L14.39,59.15 L14.37,59.2 L14.36,59.26 L14.2,59.93 L14.19,60.01 L14.18,60.09 L14.09,61.26 L15.15,61.35 L15.66,66.28 L15.91,66.61 L15.94,66.65 L15.98,66.69 L16.45,67.21 L16.49,67.25 L16.53,67.29 L17.06,67.76 L17.1,67.8 L17.15,67.83 L17.73,68.26 L17.78,68.29 L17.83,68.32 L18.45,68.68 L18.5,68.71 L18.55,68.74 L19.2,69.03 L19.25,69.05 L19.3,69.07 L19.84,69.25 L20.2,68.17 L24.99,69.12 L25.33,69.01 L25.44,68.98 L25.53,68.92 L26.73,68.28 L26.8,68.24 L26.87,68.19 L27.42,67.78 L27.47,67.74 L27.51,67.7 L28.02,67.23 L28.07,67.19 L28.1,67.15 L28.58,66.62 L28.61,66.58 L28.65,66.53 L29.07,65.95 L28.11,65.25 L30.37,62.15 L30.43,61.42 L30.44,61.31 L30.43,61.2 L30.27,59.85 L30.26,59.74 L30.23,59.64 L29.83,58.35 L29.79,58.25 L29.74,58.15 L29.22,57.19 L28.2,57.74 L25.18,53.79 L24.53,53.57 L24.48,53.55 L24.42,53.54 L23.75,53.39 L23.67,53.37 L23.59,53.36 L22.23,53.25 Z M22.2,57.43 C24.39,57.43 26.18,59.23 26.18,61.42 C26.18,63.61 24.39,65.4 22.2,65.4 C20.01,65.4 18.21,63.61 18.21,61.42 C18.21,59.23 20.01,57.43 22.2,57.43 Z M22.2,59.13 C20.93,59.13 19.91,60.15 19.91,61.42 C19.91,62.69 20.93,63.7 22.2,63.7 C23.47,63.7 24.48,62.69 24.48,61.42 C24.48,60.15 23.47,59.13 22.2,59.13 Z M26.18,87.97 C28.21,87.97 29.79,89.92 29.79,92.21 C29.79,94.51 28.21,96.46 26.18,96.46 C24.15,96.46 22.58,94.51 22.58,92.21 C22.58,89.92 24.15,87.97 26.18,87.97 Z M26.18,88.84 C24.71,88.84 23.45,90.31 23.45,92.21 C23.45,94.12 24.71,95.59 26.18,95.59 C27.65,95.59 28.92,94.12 28.92,92.21 C28.92,90.31 27.65,88.84 26.18,88.84 Z" fill="none" stroke="currentColor" stroke-width="1.5"/></svg>