<svg xmlns="http://www.w3.org/2000/svg" viewBox="0 0 100.0 86.34" width="24" height="24"><path d="M50,13.9 C44.78,13.9 39.91,15.99 36.22,19.83 C32.57,23.48 30.49,28.55 30.49,33.57 C30.49,38.28 32.06,42.63 34.65,45.97 C35.36,46.13 36.22,46.13 36.93,46.48 C33.79,42.99 31.86,38.48 31.86,33.57 C31.86,28.7 33.78,24.19 37.28,20.69 C37.79,20.34 38.34,19.83 38.85,19.28 L39.01,19.48 C39.01,19.63 38.85,19.83 38.85,19.83 C38.85,19.99 39.01,19.99 39.01,20.15 C38.85,20.34 38.65,20.5 38.85,20.69 C39,20.69 39.21,20.5 39.36,20.69 C39.56,20.85 39.2,20.85 39.2,21.21 L39.2,21.72 L39.2,22.07 C39.2,22.26 39.01,22.26 39.01,22.42 C39.01,22.77 39.21,22.77 39.36,22.93 C39.36,23.13 39.2,23.48 39.2,23.64 C39.01,23.83 38.85,24.19 38.5,24.35 C38.34,24.7 37.99,25.05 37.79,25.4 C37.79,25.4 37.79,25.56 37.63,25.72 C37.63,25.92 37.43,26.07 37.28,26.27 L37.28,27.13 L37.28,27.84 C37.28,27.99 37.28,28.35 37.44,28.35 C37.63,28.54 37.64,28.54 37.99,28.54 C37.99,28.7 38.34,28.86 38.34,29.06 L38.34,29.76 L38.34,30.27 C38.5,30.43 38.65,30.62 38.65,30.98 C38.65,31.13 38.5,31.14 38.5,31.33 C38.5,31.65 39.01,31.65 39.2,31.84 C39.2,32 39.01,32.19 39.01,32.35 C39.2,32.55 39.36,32.55 39.36,32.71 C39.56,32.71 39.71,33.06 39.91,32.9 C39.91,32.71 39.71,32.55 39.71,32.35 C39.56,32.35 39.56,31.84 39.56,31.65 C39.36,31.49 39.2,31.33 39.2,31.14 L39.2,30.63 C39.01,30.43 38.85,30.43 38.85,30.27 C38.85,29.76 39.21,29.41 39.36,29.92 C39.56,30.27 39.36,30.43 39.36,30.63 C39.56,30.78 39.71,30.98 39.91,31.14 C39.91,31.49 40.22,31.49 40.22,31.65 L40.22,31.84 C40.42,32.19 40.58,32.35 40.77,32.55 C41.13,32.9 41.28,33.22 41.28,33.57 C41.28,33.92 41.13,34.12 41.13,34.12 C41.13,34.27 41.28,34.47 41.44,34.63 C41.64,34.78 41.79,34.79 41.99,34.79 C41.99,34.98 42.34,34.98 42.34,34.98 C42.5,34.98 42.5,35.34 42.7,35.34 C43.01,35.49 43.2,35.49 43.36,35.69 C43.71,35.84 44.07,36 44.23,36 C44.42,36 44.58,35.85 44.78,35.85 C45.48,35.69 45.64,36.36 45.99,36.55 C46.15,36.71 46.15,36.71 46.35,36.71 L46.7,36.71 C46.85,36.91 47.21,36.71 47.37,37.06 C47.56,37.06 47.72,37.41 48.07,37.57 L48.07,38.12 C48.23,38.28 48.23,38.28 48.43,38.28 C48.78,38.48 48.78,38.63 48.94,38.83 L49.29,38.83 C49.64,38.98 49.64,39.14 50,39.14 C50.15,39.14 50,38.98 50.16,38.83 C50.16,38.83 50.35,38.63 50.51,38.63 C50.7,38.63 50.7,38.83 50.86,38.99 C50.86,39.14 51.01,39.34 51.01,39.49 C51.21,39.69 51.01,40.55 51.01,40.71 C51.01,40.91 50.7,40.91 50.7,41.06 C50.51,41.42 50.51,41.42 50.35,41.62 C50.35,41.62 50.15,41.61 50,41.77 L50,42.13 C49.8,42.28 49.64,42.63 49.8,42.83 C49.8,42.99 50,42.99 50,43.34 C50,43.5 49.64,43.5 49.64,43.85 C49.64,43.85 49.64,44.2 49.8,44.4 C49.8,44.56 50,44.56 50.16,44.71 C50.35,44.91 50.35,45.27 50.51,45.27 C50.86,45.78 51.02,46.13 51.37,46.64 C51.37,46.99 51.73,47.19 51.73,47.34 C56.79,47.19 61.5,46.64 65.3,45.97 C68.09,42.48 69.51,38.28 69.51,33.57 C69.51,28.55 67.58,23.48 63.73,19.83 C60.08,15.99 55.22,13.9 50,13.9 Z M49.64,15.28 L49.64,15.47 L49.49,15.63 C49.13,15.99 48.58,15.63 48.23,15.47 C48.78,15.47 49.13,15.47 49.64,15.28 Z M52.08,15.63 C52.59,15.63 52.79,15.79 53.3,15.79 L53.3,15.63 C53.65,15.63 54,15.79 54.15,15.79 C54.15,15.98 54.16,15.98 54,15.98 C54,16.14 53.65,15.98 53.49,15.98 C52.94,16.14 52.78,16.14 52.43,15.98 C52.43,15.98 52.08,15.79 52.08,15.63 Z M56.95,16.69 C57.81,17.2 58.51,17.55 59.22,17.91 C59.22,17.91 59.22,18.07 59.06,18.07 C59.06,18.07 58.71,17.91 58.52,17.91 L58.36,17.91 C58.16,17.91 58.16,18.07 58.01,18.26 C57.81,18.26 57.81,18.42 57.81,18.42 C57.81,18.57 57.49,18.77 57.49,18.93 C57.49,19.12 57.65,19.28 57.65,19.28 C57.65,20.34 56.78,20.69 55.72,20.69 C55.57,21.05 55.73,21.2 55.57,21.56 C55.57,21.71 55.02,21.91 54.87,21.91 C54.87,21.91 54.71,21.71 54.71,21.56 C54.71,21.36 54.86,21.36 54.71,21.21 C54.71,21.05 55.02,20.85 55.02,20.69 C55.02,20.5 54.7,20.5 54.35,20.5 C54.15,20.5 54,20.34 53.65,20.34 C53.49,20.15 53.29,19.83 52.94,19.83 L52.58,19.83 C52.43,19.64 52.58,19.48 52.58,19.48 C52.58,19.28 52.27,19.28 52.27,19.12 C52.27,19.12 52.58,18.77 52.58,18.58 C52.78,18.58 53.14,18.26 53.3,18.26 C53.65,18.07 54,17.91 54.15,17.91 L54.51,17.91 C54.71,17.55 54.86,17.55 55.02,17.36 L55.57,17.36 C55.73,17.36 55.92,17.2 56.08,17.2 C56.08,17.2 56.28,17.2 56.28,17.01 L56.44,17.01 C56.44,17.2 56.28,17.2 56.08,17.55 C56.28,17.91 56.79,17.36 57.14,17.36 C57.49,17.36 57.65,17.91 57.81,17.36 C57.65,17.2 57.49,17.2 57.49,17.01 C57.14,17.01 57.14,16.85 56.95,16.69 Z M60.28,18.58 C60.44,18.77 60.79,18.93 61.15,19.12 C60.95,19.28 60.95,19.28 60.79,19.28 C60.79,19.28 60.59,19.48 60.43,19.28 C60.28,19.28 60.09,19.28 60.09,19.12 C60.09,18.77 60.09,18.77 60.28,18.58 Z M62,19.99 C62.36,20.34 62.52,20.5 62.87,20.69 C66.36,24.19 68.28,28.7 68.28,33.57 C68.28,37.26 67.23,40.36 65.5,43.19 L65.14,43.19 L64.95,43.19 C64.6,43.19 64.29,42.99 64.09,42.99 L63.73,42.99 C63.58,42.99 63.57,42.83 63.38,42.63 L63.07,42.63 C62.87,42.48 62.72,42.28 62.52,42.28 L62.16,42.28 C62.01,42.28 62,42.13 61.81,42.13 C61.81,42.13 61.65,41.93 61.5,41.77 C61.65,41.42 61.3,41.26 61.15,40.91 L61.15,40.56 C61.15,40.36 60.79,40.36 60.79,40.2 C60.44,39.85 60.08,39.69 59.73,39.69 L59.06,39.69 C58.86,39.69 58.51,39.49 58.36,39.14 C58.16,39.14 58.16,38.98 58.01,38.83 C57.81,38.63 57.65,38.63 57.65,38.63 C57.49,38.63 57.49,38.48 57.49,38.48 C57.49,38.28 57.29,38.28 57.49,37.93 C57.14,37.93 57.14,38.12 56.95,38.12 C56.95,37.93 56.79,37.77 56.28,37.93 C56.28,37.93 56.08,38.12 55.92,38.12 C55.72,38.12 55.57,37.93 55.38,37.93 L54.87,37.93 C54.71,37.93 54.71,37.77 54.51,37.57 C54.35,37.41 54.15,37.42 54.15,37.42 C54,37.42 53.81,37.92 53.49,37.77 C53.3,37.41 53.65,37.41 53.49,37.26 C53.49,37.26 53.3,37.26 53.3,37.42 C53.14,37.42 52.94,37.57 52.78,37.57 C52.58,37.77 52.43,37.57 52.08,37.77 C51.92,37.92 51.92,38.12 51.73,38.28 C51.73,38.48 51.57,38.63 51.37,38.63 C51.21,38.63 51.02,38.48 50.86,38.48 C50.35,38.28 50.15,38.63 49.64,38.63 C49.29,38.63 48.78,37.92 48.94,37.57 L48.94,36.71 C48.94,36.55 49.13,36.55 49.13,36.2 C49.13,36 48.78,35.85 48.78,35.85 C48.23,35.85 47.72,36 47.37,35.85 C47.21,35.69 47.37,35.49 47.37,35.34 C47.56,35.34 47.37,35.33 47.56,34.98 L47.72,34.79 L47.72,34.28 C47.92,34.12 48.07,34.12 48.07,33.92 C48.07,33.92 48.07,33.57 47.72,33.57 L47.02,33.57 C46.7,33.92 46.7,34.63 46.35,34.63 C46.15,34.78 46,34.79 45.64,34.79 L45.29,34.79 C44.93,34.79 44.78,34.63 44.58,34.63 C44.58,34.47 44.23,33.92 44.23,33.92 C44.07,33.21 44.23,32.71 44.58,32.2 C44.58,32.2 44.58,32 44.78,31.84 L44.78,31.49 C44.78,31.13 45.29,30.98 45.48,30.78 C45.8,30.62 46.15,30.43 46.35,30.43 L47.02,30.43 C47.21,30.43 47.37,30.63 47.37,30.63 C47.72,30.63 47.92,30.27 48.23,30.27 C48.43,30.27 48.78,30.11 49.13,30.27 C49.29,30.27 49.48,30.43 49.64,30.43 C49.64,30.43 49.8,30.27 50,30.27 L50.35,30.63 C50.35,30.98 50.16,31.14 50.16,31.33 C50.35,31.49 50.7,31.65 51.01,31.65 C51.21,31.49 51.01,31.13 51.01,30.98 L51.01,30.63 L51.01,30.27 C51.01,29.76 51.37,29.41 51.92,29.21 C52.08,29.05 52.08,28.86 52.27,28.7 C52.59,28.7 52.78,28.7 52.78,28.54 C53.29,28.35 53.49,28.35 53.65,28 C53.8,27.84 53.65,27.48 53.65,27.13 L54,27.13 C54.16,27.13 54.15,26.78 54.35,26.78 L54.71,26.62 C54.86,26.43 54.86,26.27 55.02,26.07 L55.38,26.07 C55.57,26.07 55.72,25.92 55.92,25.92 C56.08,25.92 56.28,25.92 56.44,25.72 L56.44,25.4 C56.44,24.85 57.14,24.85 57.65,24.7 C57.81,24.7 58.16,24.35 58.52,24.35 C58.52,24.7 58.16,24.7 58.16,24.86 C58.36,25.21 58.71,24.7 58.86,24.7 C59.22,24.7 59.57,24.5 59.93,24.35 C60.08,24.19 60.79,24.19 60.43,23.64 C60.28,23.64 60.08,23.99 59.93,24.19 C59.73,24.19 59.93,23.99 59.73,23.99 C59.57,23.83 59.38,24.19 59.38,24.19 C59.22,23.99 59.22,23.83 59.06,23.64 C59.06,23.48 59.38,23.13 59.58,22.93 C59.38,22.77 59.06,22.93 58.71,22.78 C58.71,22.62 59.06,22.42 59.22,22.42 C59.38,22.42 59.73,22.42 59.93,22.62 L59.93,22.78 C60.08,22.93 60.08,22.93 60.43,22.78 C60.43,22.62 60.09,22.77 60.09,22.62 C60.44,22.26 60.79,22.42 61.15,22.42 C61.3,22.42 61.65,22.26 61.81,22.07 C62,22.07 62.16,21.91 62.36,22.07 C62.36,22.26 62.16,22.26 62,22.26 C61.81,22.77 61.5,22.93 61.15,23.29 C61.3,23.48 61.65,23.48 61.81,23.48 L62.16,23.48 L62.52,23.48 C62.72,23.64 62.71,23.64 63.07,23.64 C63.22,23.64 63.23,23.48 63.23,23.13 L63.23,22.78 C63.07,22.62 62.52,22.77 62.52,22.42 C62.52,22.26 62.72,22.26 62.72,22.07 C62.72,21.71 63.22,21.72 63.07,21.21 C63.07,21.21 62.87,21.2 62.87,21.05 C62.71,20.85 62.72,20.69 62.72,20.69 C62.52,20.5 62,20.5 62,20.34 Z M29.43,36.2 C26.65,37.26 24.92,38.63 24.92,39.84 C24.92,41.67 27.94,43.29 32.55,44.36 C30.99,41.9 29.79,39.12 29.43,36.2 Z M32.55,44.36 C32.56,44.37 32.57,44.39 32.57,44.4 C32.93,44.4 33.08,44.55 33.28,44.55 C33.01,44.5 32.81,44.42 32.55,44.36 Z M70.71,36.2 C70.2,39.11 69.16,41.87 67.62,44.32 C72.24,43.25 75.07,41.64 75.07,39.84 C75.07,38.63 73.49,37.26 70.71,36.2 Z M75.08,44.57 C70.02,47.36 61.3,49.09 51.37,49.09 C41.64,49.09 32.92,47.36 27.7,44.73 C38.5,53.96 45.8,53.95 45.8,70.01 C45.8,71.38 48.43,72.44 51.57,72.44 C54.86,72.44 57.65,71.38 57.65,70.01 C57.65,53.95 64.6,53.95 75.08,44.57 Z M72.72,82.83 L95.45,42.87 L72.71,3.12 L27.36,3.12 L4.57,42.84 L27.32,82.83 Z M24.74,86.34 L0,43 L24.66,0 L75.28,0 L100,43 L75.27,86.34 Z" fill="none" stroke="currentColor" stroke-width="1.5"/></svg>