<svg xmlns="http://www.w3.org/2000/svg" viewBox="0 0 80.0 80.0" width="24" height="24"><path d="M68.23,19 C62.69,13.43 55.35,10.28 47.34,10.28 C39.5,10.28 32.01,13.43 26.48,19 C23.63,21.83 21.44,25.22 19.88,28.86 C21.84,28.86 21.84,28.86 21.84,28.86 C23.38,25.62 25.17,22.75 27.75,20.29 C28.39,19.5 29.31,18.73 30.2,18.09 C30.33,18.36 30.47,18.48 30.47,18.61 C30.6,18.73 30.33,19 30.33,19.13 C30.2,19.27 30.33,19.38 30.33,19.5 C30.33,19.77 30.08,20.04 30.33,20.14 C30.47,20.42 30.97,19.92 31.1,20.29 C31.37,20.56 30.97,20.69 30.85,20.96 C30.72,21.18 30.97,21.6 30.97,21.83 C30.97,22.1 30.97,22.37 30.85,22.5 C30.72,22.64 30.47,22.64 30.47,23.02 C30.47,23.29 30.97,23.54 30.97,23.79 C30.97,24.2 30.85,24.43 30.72,24.7 C30.47,25.22 30.2,25.62 29.83,26.11 C29.43,26.39 29.06,26.91 28.79,27.3 C28.66,27.57 28.52,27.82 28.39,27.95 C28.29,28.34 28.02,28.47 27.89,28.72 C27.89,28.86 27.89,28.86 27.89,28.86 C33.16,28.86 33.16,28.86 33.16,28.86 C35.61,28.86 35.61,28.86 35.61,28.86 C51.73,28.86 51.73,28.86 51.73,28.86 C51.73,32.23 51.73,32.23 51.73,32.23 C52.25,31.96 52.63,31.84 53.02,31.59 C53.15,31.04 53.02,30.55 53.02,30.15 C53.15,30.03 53.4,30.15 53.54,30.15 C53.79,30.15 53.79,29.63 53.94,29.51 C54.04,29.36 54.31,29.36 54.44,29.26 C54.83,28.99 54.83,28.72 55.08,28.59 C55.21,28.59 55.35,28.59 55.6,28.47 C55.73,28.47 55.98,28.22 56.25,28.07 C56.5,28.07 57.02,28.07 57.02,27.95 C57.16,27.82 57.02,27.57 57.02,27.43 C57.27,26.66 58.31,26.66 58.95,26.39 C59.35,26.11 59.84,25.89 60.36,25.99 C60.24,26.26 59.84,26.11 59.97,26.66 C59.97,27.18 60.76,26.39 61.01,26.39 C61.38,26.11 62.05,26.11 62.57,25.89 C62.94,25.74 63.71,25.47 63.34,24.97 C63.07,24.97 62.82,25.35 62.57,25.62 C62.3,25.62 62.3,25.35 62.15,25.22 C61.93,25.22 61.93,25.47 61.65,25.47 C61.53,25.35 61.38,25.1 61.26,24.97 C61.26,24.43 61.65,24.2 61.93,23.79 C61.78,23.29 61.16,23.66 60.76,23.54 C60.76,23.29 61.01,23.02 61.38,23.02 C61.65,22.89 62.3,23.02 62.57,23.02 C62.57,23.14 62.57,23.29 62.57,23.54 C62.82,23.66 62.94,23.54 63.19,23.54 C63.34,23.29 62.82,23.29 62.82,23.02 C63.19,22.75 63.96,23.02 64.48,23.02 C64.75,22.89 65.15,22.64 65.38,22.5 C65.65,22.37 65.92,22.1 66.17,22.37 C66.17,22.64 65.92,22.64 65.77,22.89 C65.38,23.29 64.75,23.79 64.48,24.33 C64.75,24.43 65.15,24.43 65.52,24.43 C65.65,24.43 65.92,24.43 65.92,24.58 C66.56,24.58 66.56,24.58 66.56,24.58 C66.81,24.7 66.81,24.97 67.06,24.97 C67.58,24.97 67.58,24.43 67.33,24.2 C67.33,23.79 67.58,23.79 67.46,23.54 C67.19,23.14 66.56,23.54 66.56,23.02 C66.56,22.64 66.81,22.64 66.81,22.37 C66.81,21.83 67.33,21.83 67.33,21.18 C67.33,20.96 67.06,20.96 66.94,20.81 C66.81,20.69 66.81,20.42 66.69,20.42 C66.42,20.14 65.65,20.14 65.65,19.65 C65.65,19.38 65.65,19.27 65.65,19 C66.17,19.38 66.56,19.77 67.06,20.29 C72.22,25.62 75.18,32.63 75.18,40.01 C75.18,45.34 73.78,50.27 71.06,54.53 C70.93,54.41 70.81,54.3 70.56,54.3 C70.41,54.3 70.29,54.41 70.04,54.41 C69.64,54.41 69.27,54.16 68.87,54.16 C68.75,54.16 68.37,54.3 68.23,54.16 C68.1,54.03 68.1,53.64 67.98,53.64 C67.71,53.51 67.46,53.39 67.33,53.39 C67.06,53.26 66.81,53.12 66.42,53.12 C66.29,53.12 66.17,53.12 65.92,53.12 C65.77,53.12 65.65,52.72 65.38,52.72 C65.25,52.62 65,52.47 64.88,52.35 C65.15,51.7 64.48,51.43 64.48,51.04 C64.38,50.79 64.38,50.66 64.23,50.52 C64.23,50.27 63.96,50.14 63.71,49.87 C63.34,49.48 62.82,49.23 62.15,49.1 C61.93,49.1 61.65,49.23 61.26,49.1 C60.89,49.1 60.49,48.83 60.24,48.46 C59.97,48.19 59.72,47.92 59.6,47.79 C59.35,47.67 59.08,47.67 58.83,47.42 C58.83,47.42 58.83,47.27 58.83,47.15 C58.56,46.88 58.43,46.77 58.56,46.5 C58.31,46.38 58.31,46.77 58.04,46.77 C57.79,46.38 57.66,46.23 57.02,46.23 C56.75,46.38 56.62,46.65 56.25,46.65 C56.12,46.77 55.85,46.38 55.6,46.38 C55.35,46.23 55.08,46.5 54.83,46.38 C54.56,46.38 54.44,46.11 54.17,45.86 C54.04,45.86 53.67,45.59 53.67,45.59 C53.27,45.59 53.02,46.23 52.63,46.11 C52.38,45.86 53.02,45.59 52.75,45.34 C52.5,45.19 52.38,45.46 52.25,45.59 C51.98,45.59 51.86,45.73 51.73,45.86 C51.73,46.65 51.73,46.65 51.73,46.65 C51.73,49.48 51.73,49.48 51.73,49.48 C51.73,51.7 51.73,51.7 51.73,51.7 C51.73,54.8 51.73,54.8 51.73,54.8 C51.73,57.01 51.73,57.01 51.73,57.01 C51.73,62.21 51.73,62.21 51.73,62.21 C51.48,62.21 51.48,62.21 51.48,62.21 C51.61,62.33 51.73,62.33 51.86,62.46 C52.13,62.6 52.38,62.6 52.5,62.71 C52.9,62.85 53.67,63.37 53.79,63.62 C53.94,64.02 53.94,64.54 54.04,65.06 C54.17,65.7 54.04,65.97 54.17,66.62 C54.17,67.14 54.17,67.14 54.17,67.14 C51.98,67.66 49.67,68.03 47.34,68.03 C41.17,68.03 35.36,65.97 30.47,62.21 C27.75,62.21 27.75,62.21 27.75,62.21 C33.16,67.14 40,69.72 47.34,69.72 C55.35,69.72 62.69,66.74 68.23,61.17 C73.91,55.45 76.99,47.92 76.99,40.01 C76.99,32.09 73.91,24.7 68.23,19 Z M42.83,12.51 C42.73,12.39 42.73,12.39 42.73,12.39 C42.95,12.39 42.95,12.39 42.95,12.39 C42.83,12.39 42.83,12.39 42.83,12.51 Z M46.57,12.39 C46.45,12.51 46.57,12.64 46.45,12.64 C45.95,13.03 45.16,12.51 44.51,12.39 C44.26,12.39 43.99,12.51 43.6,12.51 C43.49,12.51 43.35,12.39 43.1,12.39 C44.26,12.24 45.53,12.12 46.82,12.12 C46.72,12.12 46.72,12.24 46.57,12.39 Z M54.71,13.03 C54.83,13.16 54.94,13.16 55.08,13.3 C54.94,13.3 54.83,13.3 54.56,13.3 C54.56,13.16 54.71,13.16 54.71,13.03 Z M50.71,12.64 C51.09,12.64 51.61,12.88 52.25,12.88 C52.38,12.88 52.5,12.64 52.63,12.64 C53.02,12.64 53.4,12.64 53.67,12.76 C53.67,12.88 53.67,13.16 53.54,13.3 C53.27,13.43 52.75,13.3 52.5,13.3 C51.86,13.3 51.48,13.43 51.09,13.16 C50.94,13.03 50.57,12.88 50.71,12.64 Z M61.78,16.13 C61.65,16.13 61.38,16.28 61.26,16.28 C61.01,16.4 60.76,16.13 60.49,16.13 C60.24,16.13 60.24,16.01 59.97,16.13 C59.72,16.13 59.6,16.4 59.6,16.67 C59.47,16.8 59.35,16.92 59.2,16.92 C59.35,17.17 58.83,17.57 58.83,17.69 C58.83,17.82 58.83,18.09 58.83,18.21 C58.95,19.77 57.66,20.42 56.25,20.42 C55.98,20.69 55.98,21.18 55.85,21.6 C55.6,21.98 55.21,22.37 54.83,22.25 C54.71,22.25 54.44,21.83 54.44,21.73 C54.44,21.46 54.83,21.18 54.56,20.96 C54.56,20.69 55.08,20.69 55.08,20.29 C54.94,19.92 54.44,20.14 53.94,20.14 C53.67,20.04 53.27,19.77 53.02,19.65 C52.63,19.5 52.25,19 51.86,19 C51.61,19 51.34,19.13 51.09,19 C51.09,18.73 51.21,18.48 51.21,18.36 C51.21,18.21 50.82,18.09 50.82,17.96 C50.82,17.82 51.09,17.44 51.34,17.17 C51.61,17.05 51.98,16.8 52.38,16.67 C52.75,16.4 53.27,16.13 53.67,16.01 C53.79,16.01 53.94,16.01 54.17,15.88 C54.56,15.76 54.83,15.49 55.21,15.36 C55.35,15.36 55.6,15.36 55.85,15.21 C56.12,15.21 56.25,15.11 56.5,14.99 C56.62,14.99 56.75,14.84 57.02,14.84 C57.02,14.72 57.16,14.72 57.27,14.72 C57.16,15.11 56.75,15.11 56.62,15.49 C57.02,16.28 57.66,15.36 58.16,15.36 C58.56,15.36 58.95,15.88 59.2,15.36 C59.08,15.11 58.83,14.99 58.56,14.72 C58.31,14.57 57.93,14.45 57.93,14.2 C59.35,14.72 60.61,15.36 61.93,16.13 Z M63.96,18.09 C63.71,18.21 63.34,18.36 63.19,18.36 C63.07,18.36 62.82,18.09 62.69,17.82 C62.69,17.44 62.94,17.44 63.07,17.05 C62.94,16.92 62.82,16.92 62.57,16.8 C62.42,16.67 62.15,16.4 62.05,16.28 C62.82,16.8 63.59,17.32 64.38,17.82 C64.23,17.96 64.11,18.09 63.96,18.09 Z M3.01,31.08 L3.01,34 L17.62,34 L17.62,31.08 Z M19.56,31.08 L19.56,34 L33.83,34 L33.83,31.08 Z M35.78,31.08 L35.78,34 L49.74,34 L49.74,31.08 Z M10.8,36.27 L10.8,39.52 L25.4,39.52 L25.4,36.27 Z M27.35,36.27 L27.35,39.52 L41.62,39.52 L41.62,36.27 Z M3.01,36.27 L3.01,39.52 L9.17,39.52 L9.17,36.27 Z M43.57,36.27 L43.57,39.52 L49.73,39.52 L49.73,36.27 Z M3.01,41.13 L3.01,44.71 L17.62,44.71 L17.62,41.13 Z M19.56,41.13 L19.56,44.71 L33.83,44.71 L33.83,41.13 Z M35.78,41.13 L35.78,44.71 L49.74,44.71 L49.74,41.13 Z M10.8,46.67 L10.8,49.58 L25.4,49.58 L25.4,46.67 Z M27.35,46.67 L27.35,49.58 L41.62,49.58 L41.62,46.67 Z M3.01,46.67 L3.01,49.58 L9.17,49.58 L9.17,46.67 Z M43.57,46.67 L43.57,49.58 L49.73,49.58 L49.73,46.67 Z M3.01,51.54 L3.01,54.45 L17.62,54.45 L17.62,51.54 Z M19.56,51.54 L19.56,54.45 L33.83,54.45 L33.83,51.54 Z M35.78,51.54 L35.78,54.45 L49.74,54.45 L49.74,51.54 Z M10.8,57.06 L10.8,59.97 L25.4,59.97 L25.4,57.06 Z M27.35,57.06 L27.35,59.97 L41.62,59.97 L41.62,57.06 Z M3.01,57.06 L3.01,59.97 L9.17,59.97 L9.17,57.06 Z M43.57,57.06 L43.57,59.97 L49.73,59.97 L49.73,57.06 Z M16.18,0 C63.99,0 63.99,0 63.99,0 C72.81,0 80,7.35 80,16.16 C80,63.97 80,63.97 80,63.97 C80,72.78 72.81,80 63.99,80 C16.18,80 16.18,80 16.18,80 C7.36,80 0,72.78 0,63.97 C0,16.16 0,16.16 0,16.16 C0,7.35 7.36,0 16.18,0 Z" fill="none" stroke="currentColor" stroke-width="1.5"/></svg>