<svg xmlns="http://www.w3.org/2000/svg" viewBox="0 0 98.81 98.79" width="24" height="24"><path d="M49.4,0 C41.61,4.66 36.69,9.63 32.58,14.76 C35.36,16.07 37.43,16.02 39.5,16.04 C43.34,16.1 47.18,16.36 50.96,16.87 L50.97,16.87 C54.85,17.28 58.71,17.92 62.51,18.73 C66.41,11.82 66.65,7.41 66.56,3.14 Z M43.61,0.4 C14.83,18.27 19.59,17.44 24.45,16.87 C34.4,8.89 38.59,4.52 43.61,0.4 Z M68.84,3.99 C68.89,8.09 68.65,12.29 68.18,16.51 C75.49,22.2 79.72,23.74 83.75,25.49 C87.36,21.88 87.52,19.93 87.47,17.97 Z M36.64,18.31 C35.57,18.33 34.5,18.36 33.44,18.41 C24.75,25.89 22.45,29.99 20.38,34.02 C17.47,40.03 15.01,46.49 13.19,53.36 C22.32,64.07 31.05,67.77 39.88,70.1 L39.89,70.1 L39.9,70.11 C40.46,70.27 41.02,70.41 41.58,70.56 C50.39,63.22 53.5,57.6 56.29,51.43 L56.29,51.42 L56.3,51.41 C59.92,43.66 62.82,34.41 64.62,24.89 C58.3,20.15 54.52,19.53 50.72,19.12 L50.71,19.12 L50.7,19.12 C46.07,18.5 41.35,18.25 36.64,18.31 Z M24.68,19.13 C18.99,19.8 13.44,20.83 8.23,22.17 C2.18,46.29 4.9,50.17 8.42,53.64 C12.84,45.78 15.37,39.18 18.34,33.04 L18.34,33.02 L18.35,33.01 C20.45,28.92 22.82,24.74 25.56,20.58 Z M89.68,20.9 C89.61,22.04 89.49,23.16 89.31,24.28 C93,30.09 94.25,30.8 95.46,31.53 Z M70.51,23.1 C65.03,35.01 62.06,44.41 58.36,52.36 L58.35,52.37 C55.59,58.48 52.52,64.07 49.28,69.13 C55.03,65.83 60.44,62.08 65.43,57.96 C73.13,51.52 80.84,42.33 84.78,32.17 C78.88,25.85 74.76,24.35 70.51,23.1 Z M90.69,31.4 C82.87,43.59 74.84,53.05 66.88,59.7 L66.88,59.7 L66.88,59.7 C61.68,63.99 56.03,67.89 50.03,71.3 C58.2,73.86 66.83,74.43 75.96,74.02 C82.71,70.29 83.08,69.81 83.42,69.32 L83.43,69.31 L83.44,69.29 C90.13,60.4 95.56,47.7 96.86,35.72 C94.71,33.68 92.74,32.52 90.69,31.4 Z M98.19,41.82 C96,52.39 91.13,62.84 85.27,70.64 C84.9,71.17 84.5,71.68 84.11,72.2 C87.52,73.01 90.35,72.62 93.23,72.13 Z M0.14,46.55 C7.74,70.76 8.27,66.05 9.07,61.49 C4.16,52.73 1.86,49.77 0.14,46.55 Z M13.78,61.02 C10.33,67.33 9.8,72.96 9.77,78.8 C22.72,80.67 32.27,77.55 41.15,73.35 C40.49,72.62 39.88,72.46 39.28,72.29 L39.28,72.29 C30.22,69.89 21.18,66.11 13.78,61.02 Z M91.8,74.66 C89.49,75.03 87.21,75.32 84.95,75.57 C70.45,87.42 60.44,94.27 49.9,98.79 Z M49.71,74.69 C38.46,83.97 32.79,89.64 27.48,93.61 C56.23,94.31 67.78,86.88 76.69,77.5 C66.76,76.69 57.9,76.13 49.71,74.69 Z M42.08,75.44 C33.46,79.51 24.23,82.58 14.58,84.4 C30.56,88.62 36.43,82.88 42.08,75.45 Z" fill="none" stroke="currentColor" stroke-width="1.5"/></svg>