<svg xmlns="http://www.w3.org/2000/svg" viewBox="0 0 100.0 86.34" width="24" height="24"><path d="M32.31,53.43 L33.86,56.48 L27.11,59.33 L27.17,59.44 L25.68,60.03 L24.1,56.98 L20.2,64.34 L29,66.23 L27.4,63.34 L34.03,60.45 L34.03,60.44 L35.62,59.79 L37.21,62.68 L40.95,55.47 Z M73.05,38.55 L66.29,43.15 L73.05,47.79 L73.05,44.75 L75.52,44.75 L80.13,44.75 L81.56,44.75 L81.56,47.79 L87.05,43.15 L81.56,38.55 L81.56,41.72 L80.13,41.72 L75.52,41.72 L73.05,41.72 Z M24.64,38.55 L17.89,43.15 L24.64,47.79 L24.64,44.75 L31.73,44.75 L34.32,44.75 L34.32,47.79 L40.95,43.15 L34.32,38.55 L34.32,41.72 L31.73,41.72 L24.64,41.72 Z M43.25,33.95 L43.25,40.14 L43.25,46.34 L43.25,52.4 L64,43.16 Z M29,20.11 L20.2,22.16 L24.1,29.36 L25.68,26.47 L29.73,28.07 L33.86,29.83 L32.31,32.72 L40.95,30.84 L37.21,23.47 L35.62,26.65 L33.03,25.59 L27.4,23.16 Z M72.72,82.83 L95.45,42.87 L72.71,3.12 L27.36,3.12 L4.57,42.84 L27.32,82.83 Z M24.74,86.34 L0,43 L24.66,0 L75.28,0 L100,43 L75.27,86.34 Z" fill="none" stroke="currentColor" stroke-width="1.5"/></svg>