<svg xmlns="http://www.w3.org/2000/svg" viewBox="0 0 79.91 80.0" width="24" height="24"><path d="M0,40 C0,18.02 17.97,0 39.95,0 C62.16,0 79.91,18.02 79.91,40 C79.91,62.21 62.16,80 39.95,80 C17.97,80 0,62.21 0,40 Z M24.99,40.59 C23.37,40.99 22.38,42.39 22.78,43.79 C23.19,45.18 24.58,45.99 25.98,45.59 C33.37,44.19 40.75,48.61 42.56,55.59 C42.56,56.22 43.14,56.8 43.55,57.21 C44.18,57.39 44.94,57.62 45.57,57.39 C47.15,57.21 47.96,55.81 47.74,54.42 C45.57,44.6 35.17,38.38 24.99,40.59 Z M31.77,52.38 C29.15,51.21 25.78,51.8 24.2,53.82 C22.4,55.81 23.16,58.42 25.78,59.59 C28.39,60.81 31.99,60.4 33.57,58.42 C35.19,56.39 34.56,53.82 31.77,52.38 Z M22.19,29.2 C21.97,29.2 21.97,29.2 21.97,29.2 C20.39,29.6 19.17,31.18 19.76,32.8 C20.17,34.42 21.79,35.42 23.59,35.01 C23.77,35.01 23.77,35.01 23.77,35.01 C24.17,35.01 24.17,35.01 24.17,35.01 C36.16,32.22 48.14,39.42 51.16,51.18 C51.16,51.59 51.16,51.59 51.16,51.59 C51.16,51.81 51.16,51.81 51.16,51.81 C51.56,53.39 53.14,54.42 54.76,54.2 C56.56,54.02 57.55,52.4 57.33,50.82 C57.15,50.6 57.15,50.6 57.15,50.6 C56.97,49.78 56.97,49.78 56.97,49.78 C53.36,35.01 37.96,25.6 22.78,29.2 L22.19,29.2 Z M63.95,54.4 C64.13,54.4 64.36,54.4 64.36,54.4 C65.94,54.22 67.15,52.6 66.93,50.8 C65.53,40.8 59.54,31.2 51.16,25.21 C41.34,18.18 28.59,16.02 18.37,19.8 C16.79,20.39 15.98,22.19 16.57,23.81 C17.2,25.39 19,26.2 20.4,25.62 C27.38,23 38.37,23.59 47.56,30.39 C55.94,36.38 59.94,45.39 60.94,51.79 C61.16,53.41 62.56,54.4 63.95,54.4 Z" fill="none" stroke="currentColor" stroke-width="1.5"/></svg>