<svg xmlns="http://www.w3.org/2000/svg" viewBox="0 0 80.0 80.0" width="24" height="24"><path d="M38.91,5.88 L27.01,23.83 L34.96,23.83 L34.96,34.13 L42.89,34.13 L42.89,23.83 L50.55,23.83 L38.91,5.88 Z M31.72,36.45 L17.73,37.78 L20.08,41.75 L12.89,46.76 L15.54,50.6 L22.73,45.6 L25.09,49.53 L31.72,36.45 Z M45.83,36.45 L52.46,49.53 L54.95,45.6 L62.01,50.6 L64.66,46.76 L57.44,41.75 L59.96,37.78 L45.83,36.45 Z M38.78,38.81 L31.71,51.33 L36.42,51.33 L36.42,60.01 L41.26,60.01 L41.26,51.33 L45.84,51.33 L38.78,38.81 Z M25.7,62.33 C23.04,62.33 21.55,64.55 20.39,66.77 C19.36,64.68 18.17,62.93 16.11,62.93 C13.33,62.93 11.87,66.01 11.27,67.5 C10.84,67.63 10.55,68.06 10.68,68.52 C10.84,68.82 12.17,74.12 16.11,74.12 C18.47,74.12 19.79,72.03 20.99,69.85 C22.01,71.9 23.34,73.65 25.7,73.65 C27.88,73.65 29.21,71.9 30.24,69.85 C31.43,72.03 32.76,74.12 35.24,74.12 C37.6,74.12 38.93,72.03 40.09,69.85 C41.11,71.9 42.44,73.65 44.79,73.65 C46.85,73.65 48.18,71.9 49.37,69.68 C50.53,72.03 52.02,74.12 54.37,74.12 C56.86,74.12 58.18,72.03 59.21,69.85 C60.41,71.9 61.7,73.65 63.92,73.65 C66.41,73.65 67.73,71.17 68.63,69.12 L68.76,69.12 C69.23,68.82 69.36,68.36 69.36,67.93 C68.33,65.58 66.87,62.33 63.92,62.33 C61.27,62.33 59.94,64.55 58.78,66.77 C57.75,64.68 56.56,62.93 54.37,62.93 C52.32,62.93 50.99,64.68 49.8,66.9 C48.64,64.55 47.14,62.33 44.79,62.33 C42.14,62.33 40.68,64.55 39.65,66.77 C38.62,64.68 37.3,62.93 35.24,62.93 C33.19,62.93 31.86,64.68 30.83,66.77 C29.64,64.55 28.18,62.33 25.7,62.33 Z M16.11,63.82 C17.9,63.82 18.93,65.71 19.96,67.79 C19.96,67.93 19.8,67.92 19.8,68.06 C18.47,70.71 17.6,72.33 16.11,72.33 C13.63,72.33 12.43,68.06 12.43,68.06 C12.43,67.92 12.3,67.79 12.17,67.79 C12.6,66.47 13.92,63.82 16.11,63.82 Z M35.24,63.82 C37,63.82 38.03,65.71 39.06,67.79 C39.06,67.93 38.93,67.92 38.93,68.06 C37.73,70.71 36.87,72.33 35.24,72.33 C33.49,72.33 32.46,70.15 31.43,67.93 C31.26,67.93 31.26,67.93 31.26,67.79 C32.29,65.71 33.49,63.82 35.24,63.82 Z M54.37,63.82 C56.26,63.82 57.16,65.71 58.32,67.79 C58.19,67.93 58.19,67.92 58.19,68.06 C56.86,70.71 55.96,72.33 54.37,72.33 C52.58,72.33 51.42,70.14 50.23,67.79 C51.42,65.71 52.58,63.82 54.37,63.82 Z M25.7,64.25 C27.45,64.25 28.62,66.47 29.81,68.82 C28.62,70.88 27.59,72.8 25.7,72.8 C23.64,72.8 22.44,71.01 21.42,68.82 C22.58,66.47 23.64,64.25 25.7,64.25 Z M44.79,64.25 C46.41,64.25 47.61,66.47 48.64,68.66 C48.77,68.66 48.77,68.82 48.77,68.82 C47.61,70.88 46.58,72.8 44.79,72.8 C42.73,72.8 41.71,71.01 40.55,68.82 C41.71,66.47 42.73,64.25 44.79,64.25 Z M63.92,64.25 C65.38,64.25 66.58,65.71 67.6,68.52 C67.6,68.65 67.73,68.82 67.73,68.82 C66.71,71.47 65.38,72.8 63.92,72.8 C61.87,72.8 60.84,71.01 59.81,68.82 C60.84,66.47 62,64.25 63.92,64.25 Z M16.18,0 C63.99,0 63.99,0 63.99,0 C72.81,0 80,7.35 80,16.16 C80,63.97 80,63.97 80,63.97 C80,72.78 72.81,80 63.99,80 C16.18,80 16.18,80 16.18,80 C7.36,80 0,72.78 0,63.97 C0,16.16 0,16.16 0,16.16 C0,7.35 7.36,0 16.18,0 Z" fill="none" stroke="currentColor" stroke-width="1.5"/></svg>