<svg xmlns="http://www.w3.org/2000/svg" viewBox="0 0 80.0 68.96" width="24" height="24"><path d="M60.01,68.96 L80,34.41 L60.01,0 L20.07,0 L0,34.41 L20.07,68.96 L60.01,68.96 L60.01,68.96 Z M24.75,10.16 C25.02,10.18 25.3,10.22 25.56,10.29 C26.25,10.49 26.53,11.12 26.94,11.34 C27.16,11.46 27.44,11.34 27.5,12.09 C27.64,13 27.57,15.22 27.5,15.92 C27.44,18.35 26.25,20.51 24.73,21.4 C24.93,21.55 25,21.62 25.14,21.83 C25.42,21.97 25.7,22.11 25.91,22.25 C26.53,22.8 27.3,23.08 28.13,23.22 C29.52,23.5 30.7,24.33 31.53,25.44 L45.49,25.44 L56.53,25.44 C57.23,25.44 57.78,25.93 57.78,26.56 L57.78,47.83 L56.67,47.83 L56.67,26.56 L56.53,26.56 L45.49,26.56 L32.15,26.56 C32.43,27.12 32.58,27.67 32.58,28.36 L33.06,34.68 C33.06,34.68 31.6,35.1 29.24,35.38 L29.24,38.86 L29.24,47.83 L28.13,47.83 L28.13,38.86 L28.13,35.53 C26.67,35.67 25,35.81 23.2,35.81 C17.5,35.81 13.33,34.68 13.33,34.68 L13.82,28.36 C13.96,25.79 15.9,23.99 18.27,23.22 C19.17,23.02 19.86,22.74 20.49,22.17 C20.69,22.03 20.91,21.83 21.12,21.62 C21.26,21.55 21.4,21.4 21.52,21.28 C20.14,20.43 19.1,18.56 18.89,16.27 C18.89,15.99 18.55,13.2 18.81,12.23 C19.1,11.2 19.86,10.63 20.35,10.49 L21.12,10.49 C21.74,10.49 21.94,10.57 22.57,10.43 C23.09,10.28 23.92,10.12 24.75,10.16 Z M40.65,29.61 C43.12,29.72 45.65,30.59 47.78,32.11 C50.7,34.21 52.78,37.54 53.26,41.02 C53.34,41.64 52.92,42.19 52.37,42.27 L52.23,42.27 C51.74,42.27 51.26,41.91 51.18,41.36 C50.84,39.14 49.44,36.01 46.53,33.93 C43.34,31.56 39.52,31.36 37.09,32.25 C36.61,32.47 35.98,32.19 35.76,31.62 C35.56,31.08 35.84,30.45 36.39,30.25 C37.72,29.75 39.17,29.54 40.65,29.61 Z M39.89,33.25 C44.47,33.1 48.71,36.16 49.8,40.67 L49.86,40.95 L49.93,41.01 C50,41.57 49.66,42.12 49.03,42.2 C48.47,42.26 47.92,41.92 47.78,41.36 L47.78,41.29 L47.78,41.15 C46.73,37.05 42.57,34.55 38.41,35.52 L38.26,35.52 L38.2,35.52 C37.57,35.66 37.01,35.31 36.87,34.76 C36.67,34.2 37.09,33.65 37.64,33.51 L37.72,33.51 L37.92,33.51 C38.58,33.35 39.24,33.27 39.89,33.25 Z M40.01,37.32 C43.08,37.26 45.93,39.29 46.59,42.26 C46.67,42.75 46.39,43.23 45.84,43.31 C45.62,43.37 45.36,43.31 45.14,43.23 C45,43.11 44.79,42.89 44.79,42.68 C44.17,40.26 41.6,38.72 39.03,39.21 C38.55,39.35 38.06,39.07 37.92,38.58 C37.78,38.1 38.12,37.61 38.69,37.47 C39.13,37.37 39.57,37.32 40.01,37.32 Z M39.96,41.42 C40.32,41.41 40.7,41.5 41.04,41.71 C42.01,42.33 42.23,43.59 41.67,44.49 C41.12,45.39 39.87,45.61 38.96,45.04 C38.05,44.49 37.79,43.24 38.41,42.33 C38.75,41.76 39.34,41.45 39.96,41.42 Z M26.04,47.83 L27.98,47.83 L29.17,47.83 L29.32,47.83 L57.43,47.83 L57.57,47.83 L58.75,47.83 L60.63,47.83 C61.68,47.83 62.22,48.44 62.22,49.43 L62.22,50.4 C62.22,51.37 61.68,52.28 60.63,52.28 L26.04,52.28 C25.07,52.28 24.45,51.37 24.45,50.4 L24.45,49.43 C24.45,48.44 25.07,47.83 26.04,47.83 Z M51.81,49.01 L51.81,50.68 L58.75,50.68 L58.75,49.01 L57.51,49.01 L51.81,49.01 Z M40.9,49.15 C40.41,49.15 40.01,49.49 40.01,49.98 C40.01,50.4 40.41,50.68 40.9,50.68 C41.32,50.68 41.6,50.4 41.6,49.98 C41.6,49.49 41.32,49.15 40.9,49.15 Z M43.34,49.15 C42.92,49.15 42.5,49.49 42.5,49.98 C42.5,50.4 42.92,50.68 43.34,50.68 C43.83,50.68 44.09,50.4 44.09,49.98 C44.09,49.49 43.83,49.15 43.34,49.15 Z M45.83,49.15 C45.42,49.15 44.94,49.49 44.94,49.98 C44.94,50.4 45.42,50.68 45.83,50.68 C46.25,50.68 46.6,50.4 46.6,49.98 C46.6,49.49 46.25,49.15 45.83,49.15 Z" fill="none" stroke="currentColor" stroke-width="1.5"/></svg>