<svg xmlns="http://www.w3.org/2000/svg" viewBox="0 0 81.21 80.0" width="24" height="24"><path d="M46.51,18.34 C40.36,18.34 35.37,23.1 35.37,28.84 C35.37,34.77 40.36,39.34 46.51,39.34 C52.66,39.34 57.64,34.77 57.64,28.84 C57.64,23.1 52.66,18.34 46.51,18.34 Z M46.51,20.99 C51.18,20.99 54.94,24.49 54.94,28.84 C54.94,33.29 51.18,36.79 46.51,36.79 C41.93,36.79 38.16,33.29 38.16,28.84 C38.16,24.49 41.93,20.99 46.51,20.99 Z M29.25,21.33 C27.18,21.43 25.1,21.76 23.01,22.27 C21.8,22.54 20.94,23.84 21.21,25.32 C21.53,26.71 22.82,27.53 24.08,27.3 C27.36,26.49 30.64,26.31 33.82,26.72 C34.05,24.92 34.63,23.26 35.4,21.73 C33.38,21.35 31.32,21.23 29.25,21.33 Z M46.58,22.31 L46.36,22.71 L46.27,22.8 C46,23.02 44.88,24.33 42.19,24.33 C41.78,24.33 41.34,24.32 41.02,24.28 L40.61,24.28 L40.61,24.59 C40.61,24.59 40.61,26.66 41.33,29.08 C41.69,30.07 42,31.06 42.68,32.05 C42.9,31.74 43.4,31.24 44.07,30.56 C43.71,29.98 43.57,29.49 43.57,28.86 C43.57,28.09 43.89,27.29 44.39,26.66 C45.69,25.5 47.49,25.5 48.65,26.66 C49.24,27.29 49.55,28.09 49.55,28.86 C49.55,29.67 49.24,30.48 48.65,31.06 C47.67,32.14 46.18,32.22 45.01,31.46 L43.4,33.21 C44.21,34.11 45.19,34.92 46.49,35.42 L46.58,35.42 L46.67,35.42 C49.68,34.25 51.07,31.46 51.84,29.08 C52.42,26.66 52.42,24.59 52.42,24.59 L52.42,24.28 L52.15,24.28 C51.75,24.32 51.35,24.33 51.03,24.33 C49.46,24.33 48.38,24.01 47.76,23.52 C47.35,23.3 47.17,23.11 46.99,23.02 C46.99,22.89 46.9,22.8 46.86,22.8 L46.86,22.71 L46.58,22.31 Z M46.52,26.23 C46.03,26.23 45.53,26.63 45.22,27.03 C44.77,27.44 44.54,28.11 44.54,28.83 C44.54,29.41 44.77,30.09 45.22,30.58 C45.93,31.48 47.15,31.48 47.91,30.58 C48.31,30.09 48.5,29.41 48.5,28.83 C48.5,28.11 48.31,27.44 47.91,27.03 C47.55,26.63 47.1,26.23 46.52,26.23 Z M29.17,31.65 C27.57,31.68 25.95,31.86 24.31,32.15 C23.01,32.46 22.29,33.45 22.52,34.57 C22.83,35.56 24.09,36.23 25.3,36.05 C29.25,35.24 33.24,35.55 36.7,36.72 C35.35,35.33 34.42,33.76 33.92,31.97 C32.35,31.72 30.77,31.62 29.17,31.65 Z M57.18,35.4 C56.19,36.88 55.11,38.09 53.72,39.08 C55.69,42.13 57.17,45.5 57.98,49.18 C58.07,49.81 58.48,50.3 58.97,50.75 C59.55,51.06 60.09,51.15 60.77,50.97 C62.16,50.75 62.87,49.41 62.65,48.11 C61.57,43.44 59.69,39.17 57.18,35.4 Z M43.24,40.67 C46.51,43.59 48.89,47.36 49.88,51.8 C49.97,52.48 50.46,53.01 50.91,53.37 C51.5,53.78 52.26,53.78 52.8,53.69 C54.19,53.38 55.04,52.11 54.77,50.72 C53.87,47.04 52.3,43.59 50.1,40.67 C49.07,40.98 47.9,41.16 46.69,41.16 C45.52,41.16 44.4,40.98 43.24,40.67 Z M29.08,40.96 C27.97,40.99 26.84,41.13 25.72,41.39 C24.41,41.66 23.56,42.87 23.83,44.08 C24.14,45.34 25.45,46.06 26.8,45.83 C33.08,44.44 39.55,48.35 40.94,54.59 C41.12,55.26 41.52,55.75 42.1,55.98 C42.6,56.29 43.13,56.38 43.81,56.29 C45.11,56.07 45.87,54.81 45.51,53.6 C43.82,45.94 36.84,40.75 29.08,40.96 Z M30.94,50.56 C29.2,50.27 27.31,51.06 26.27,52.71 C24.88,54.82 25.56,57.6 27.76,58.99 C29.82,60.34 32.69,59.75 34.08,57.55 C35.39,55.4 34.8,52.62 32.6,51.23 C32.09,50.88 31.52,50.66 30.94,50.56 Z M0,40 C0,17.96 18.27,0 40.63,0 C63.03,0 81.21,17.96 81.21,40 C81.21,62.13 63.03,80 40.63,80 C18.27,80 0,62.13 0,40 Z" fill="none" stroke="currentColor" stroke-width="1.5"/></svg>