<svg xmlns="http://www.w3.org/2000/svg" viewBox="0 0 80.0 71.06" width="24" height="24"><path d="M61.77,28.06 C61.91,28.2 61.97,28.49 61.97,28.76 C61.97,28.76 61.97,28.76 61.97,28.9 C61.97,29.18 61.91,29.47 61.63,29.68 C61.63,29.68 61.63,29.76 61.63,29.76 C61.63,29.76 61.63,29.76 57.67,33.63 C57.32,34.04 56.69,34.04 56.34,33.63 C56.34,33.63 56.34,33.63 56.2,33.49 C55.78,33.14 55.78,32.5 56.2,32.15 C56.2,32.15 56.2,32.15 58.45,29.88 C58.45,29.88 58.45,29.88 51.48,29.88 C51.19,32.28 50.29,34.41 48.88,36.17 C48.88,36.17 48.88,36.17 53.81,41.09 C53.81,41.09 53.81,41.09 53.81,37.85 C53.81,37.36 54.31,36.87 54.8,36.87 C54.8,36.87 54.8,36.87 55.01,36.87 C55.56,36.87 55.99,37.36 55.99,37.85 C55.99,37.85 55.99,37.85 55.99,43.42 C55.99,43.49 55.93,43.57 55.93,43.63 C55.93,43.85 55.78,44.12 55.64,44.35 C55.64,44.35 55.64,44.35 55.5,44.41 C55.29,44.62 55.01,44.76 54.72,44.69 C54.72,44.69 54.66,44.69 54.66,44.69 C54.66,44.69 54.66,44.69 49.08,44.69 C48.59,44.69 48.18,44.27 48.18,43.77 C48.18,43.77 48.18,43.77 48.18,43.57 C48.18,43 48.59,42.58 49.08,42.58 C49.08,42.58 49.08,42.58 52.26,42.58 C52.26,42.58 52.26,42.58 47.32,37.65 C45.64,39.06 43.45,39.96 41.13,40.25 C41.13,40.25 41.13,40.25 41.13,47.24 C41.13,47.24 41.13,47.24 43.38,44.98 C43.73,44.62 44.37,44.62 44.72,44.98 C44.72,44.98 44.72,44.98 44.86,45.12 C45.29,45.47 45.29,46.11 44.86,46.46 C44.86,46.46 44.86,46.46 40.99,50.41 C40.92,50.41 40.92,50.41 40.92,50.41 C40.7,50.68 40.49,50.76 40.14,50.76 C40.14,50.76 40.14,50.76 39.94,50.76 C39.72,50.76 39.51,50.68 39.3,50.54 C39.22,50.47 39.16,50.41 39.08,50.41 C39.08,50.41 39.08,50.41 35.21,46.46 C34.79,46.11 34.79,45.47 35.21,45.12 C35.21,45.12 35.21,45.12 35.35,44.98 C35.7,44.62 36.33,44.62 36.7,44.98 C36.7,44.98 36.7,44.98 38.95,47.24 C38.95,47.24 38.95,47.24 38.95,40.25 C36.62,39.96 34.45,39.12 32.75,37.65 C32.75,37.65 32.75,37.65 27.83,42.58 C27.83,42.58 27.83,42.58 30.98,42.58 C31.48,42.58 31.91,43 31.91,43.57 C31.91,43.57 31.91,43.57 31.91,43.77 C31.91,44.27 31.48,44.69 30.98,44.69 C30.98,44.69 30.98,44.69 25.43,44.69 C25.43,44.69 25.35,44.69 25.35,44.69 C25.08,44.76 24.79,44.62 24.59,44.41 C24.59,44.41 24.59,44.41 24.44,44.35 C24.22,44.12 24.16,43.85 24.16,43.63 C24.16,43.57 24.09,43.49 24.09,43.42 C24.09,43.42 24.09,43.42 24.09,37.85 C24.09,37.36 24.51,36.87 25.08,36.87 C25.08,36.87 25.08,36.87 25.28,36.87 C25.84,36.87 26.27,37.36 26.27,37.85 C26.27,37.85 26.27,37.85 26.27,41.09 C26.27,41.09 26.27,41.09 31.21,36.17 C29.79,34.41 28.87,32.28 28.59,29.88 C28.59,29.88 28.59,29.88 21.62,29.88 C21.62,29.88 21.62,29.88 23.87,32.15 C24.22,32.5 24.22,33.14 23.87,33.49 C23.87,33.49 23.87,33.49 23.73,33.63 C23.38,34.04 22.74,34.04 22.4,33.63 C22.4,33.63 22.4,33.63 18.46,29.76 C18.46,29.76 18.38,29.68 18.38,29.68 C18.17,29.47 18.03,29.18 18.03,28.9 C18.03,28.9 18.03,28.9 18.03,28.76 C18.03,28.49 18.17,28.2 18.32,28.06 C18.32,27.99 18.38,27.91 18.46,27.85 C18.46,27.85 18.46,27.85 22.4,23.96 C22.74,23.61 23.38,23.61 23.73,23.96 C23.73,23.96 23.73,23.96 23.87,24.1 C24.22,24.53 24.22,25.09 23.87,25.45 C23.87,25.45 23.87,25.45 21.62,27.77 C21.62,27.77 21.62,27.77 28.59,27.77 C28.81,25.37 29.71,23.26 31.21,21.5 C31.21,21.5 31.21,21.5 26.27,16.56 C26.27,16.56 26.27,16.56 26.27,19.74 C26.27,20.23 25.84,20.72 25.28,20.72 C25.28,20.72 25.28,20.72 25.08,20.72 C24.51,20.72 24.09,20.23 24.09,19.74 C24.09,19.74 24.09,19.74 24.09,14.24 C24.09,14.17 24.09,14.17 24.16,14.1 C24.09,13.82 24.16,13.53 24.44,13.32 C24.44,13.32 24.44,13.32 24.51,13.18 C24.71,12.97 25,12.89 25.21,12.89 C25.28,12.89 25.35,12.89 25.43,12.89 C25.43,12.89 25.43,12.89 30.98,12.89 C31.48,12.89 31.91,13.32 31.91,13.9 C31.91,13.9 31.91,13.9 31.91,14.02 C31.91,14.59 31.48,15.02 30.98,15.02 C30.98,15.02 30.98,15.02 27.75,15.02 C27.75,15.02 27.75,15.02 32.68,20.02 C34.45,18.55 36.62,17.63 38.95,17.42 C38.95,17.42 38.95,17.42 38.95,10.35 C38.95,10.35 38.95,10.35 36.7,12.63 C36.33,12.97 35.7,12.97 35.35,12.63 C35.35,12.63 35.35,12.63 35.21,12.48 C34.79,12.12 34.79,11.5 35.21,11.13 C35.21,11.13 35.21,11.13 39.08,7.26 C39.16,7.12 39.22,7.12 39.3,7.05 C39.51,6.91 39.72,6.77 39.94,6.77 C39.94,6.77 39.94,6.77 40.14,6.77 C40.49,6.77 40.7,6.97 40.92,7.12 C40.92,7.2 40.92,7.2 40.99,7.26 C40.99,7.26 40.99,7.26 44.86,11.13 C45.29,11.5 45.29,12.12 44.86,12.48 C44.86,12.48 44.86,12.48 44.72,12.63 C44.37,12.97 43.73,12.97 43.38,12.63 C43.38,12.63 43.38,12.63 41.13,10.35 C41.13,10.35 41.13,10.35 41.13,17.42 C43.45,17.63 45.64,18.55 47.4,20.02 C47.4,20.02 47.4,20.02 52.32,15.02 C52.32,15.02 52.32,15.02 49.08,15.02 C48.59,15.02 48.18,14.59 48.18,14.02 C48.18,14.02 48.18,14.02 48.18,13.9 C48.18,13.32 48.59,12.89 49.08,12.89 C49.08,12.89 49.08,12.89 54.66,12.89 C54.72,12.89 54.8,12.89 54.86,12.89 C55.07,12.89 55.35,12.97 55.56,13.18 C55.56,13.18 55.56,13.18 55.64,13.32 C55.93,13.53 55.99,13.82 55.99,14.1 C55.99,14.17 55.99,14.17 55.99,14.24 C55.99,14.24 55.99,14.24 55.99,19.74 C55.99,20.23 55.56,20.72 55.01,20.72 C55.01,20.72 55.01,20.72 54.8,20.72 C54.31,20.72 53.81,20.23 53.81,19.74 C53.81,19.74 53.81,19.74 53.81,16.56 C53.81,16.56 53.81,16.56 48.88,21.5 C50.29,23.26 51.27,25.37 51.48,27.77 C51.48,27.77 51.48,27.77 58.45,27.77 C58.45,27.77 58.45,27.77 56.2,25.45 C55.78,25.09 55.78,24.53 56.2,24.1 C56.2,24.1 56.2,24.1 56.34,23.96 C56.69,23.61 57.32,23.61 57.67,23.96 C57.67,23.96 57.67,23.96 61.63,27.85 C61.69,27.91 61.77,27.99 61.77,28.06 Z M65.22,59.99 C65.35,60.41 65.22,60.83 64.79,61.04 C64.79,61.04 64.72,61.04 64.65,61.04 C63.95,62.88 62.75,65.07 60.64,65.07 C58.67,65.07 57.54,63.52 56.62,61.68 C55.63,63.58 54.51,65.42 52.4,65.42 C50.36,65.42 49.09,63.58 48.03,61.68 C47.05,63.44 45.92,65.07 44.16,65.07 C42.19,65.07 41.06,63.52 40.14,61.68 C39.15,63.58 38.03,65.42 35.92,65.42 C33.87,65.42 32.61,63.58 31.63,61.68 C30.71,63.44 29.58,65.07 27.68,65.07 C25.71,65.07 24.5,63.52 23.66,61.68 C22.68,63.58 21.48,65.42 19.44,65.42 C16.13,65.42 14.86,60.83 14.78,60.63 C14.64,60.2 14.93,59.79 15.36,59.64 C15.36,59.64 15.36,59.64 15.36,59.64 C15.77,58.44 17.04,55.69 19.44,55.69 C21.2,55.69 22.33,57.31 23.17,59.07 C24.15,57.1 25.42,55.26 27.68,55.26 C29.79,55.26 31.06,57.17 32.04,59.07 C33.03,57.31 34.09,55.69 35.92,55.69 C37.74,55.69 38.81,57.31 39.65,59.07 C40.63,57.1 41.9,55.26 44.16,55.26 C46.2,55.26 47.39,57.1 48.46,59.15 C49.44,57.31 50.63,55.69 52.4,55.69 C54.22,55.69 55.29,57.31 56.13,59.07 C57.11,57.1 58.38,55.26 60.64,55.26 C63.18,55.26 64.51,58.02 65.22,59.99 Z M19.44,63.87 C20.77,63.87 21.55,62.45 22.68,60.2 C22.68,60.06 22.68,59.99 22.75,59.91 C21.83,58.09 20.91,56.53 19.44,56.53 C17.53,56.53 16.48,58.79 16.13,59.85 C16.2,59.99 16.26,60.06 16.26,60.2 C16.26,60.28 17.26,63.87 19.44,63.87 Z M27.68,64.22 C29.3,64.22 30.28,62.68 31.2,60.83 C30.22,58.79 29.3,56.88 27.68,56.88 C25.99,56.88 25.01,58.79 24.01,60.83 C25.01,62.68 25.91,64.22 27.68,64.22 Z M35.92,63.87 C37.25,63.87 38.03,62.45 39.15,60.2 C39.15,60.06 39.23,59.99 39.23,59.91 C38.31,58.09 37.47,56.53 35.92,56.53 C34.38,56.53 33.46,58.09 32.53,59.99 C32.53,59.99 32.61,60.06 32.61,60.06 C33.6,62.04 34.5,63.87 35.92,63.87 Z M44.16,64.22 C45.63,64.22 46.62,62.68 47.54,60.77 C47.54,60.77 47.54,60.77 47.54,60.69 C46.49,58.79 45.57,56.88 44.16,56.88 C42.47,56.88 41.55,58.79 40.57,60.83 C41.49,62.68 42.47,64.22 44.16,64.22 Z M52.4,63.87 C53.73,63.87 54.59,62.45 55.63,60.2 C55.63,60.06 55.71,59.99 55.71,59.91 C54.86,58.09 53.95,56.53 52.4,56.53 C50.86,56.53 49.86,58.09 48.87,59.99 C49.93,61.96 50.92,63.87 52.4,63.87 Z M60.64,64.22 C61.97,64.22 62.97,63.17 63.95,60.83 C63.87,60.77 63.87,60.69 63.81,60.55 C62.89,58.09 61.84,56.88 60.64,56.88 C58.95,56.88 58.03,58.79 57.05,60.83 C57.97,62.68 58.95,64.22 60.64,64.22 Z M60.01,71.06 L80,35.53 L60.01,0 L20.07,0 L0,35.53 L20.07,71.06 L60.01,71.06 L60.01,71.06 Z" fill="none" stroke="currentColor" stroke-width="1.5"/></svg>