<svg xmlns="http://www.w3.org/2000/svg" viewBox="0 0 212.54 175.05" width="24" height="24"><path d="M8.46,0 C3.79,0 0,3.79 0,8.46 C0,11.02 1.17,13.44 3.16,15.05 C1.16,16.65 0,19.08 0,21.64 C0,24.2 1.17,26.62 3.16,28.22 C1.16,29.83 0,32.25 0,34.81 C0,37.38 1.17,39.8 3.16,41.4 C1.16,43.01 0,45.43 0,47.99 C0,50.55 1.17,52.98 3.16,54.58 C1.16,56.18 0,58.61 0,61.17 C0,63.73 1.17,66.15 3.16,67.76 C1.16,69.36 0,71.79 0,74.35 C0,76.91 1.17,79.33 3.16,80.93 C1.16,82.54 0,84.96 0,87.53 C0,90.09 1.17,92.51 3.16,94.11 C1.16,95.71 0,98.14 0,100.7 C0,103.26 1.17,105.68 3.16,107.29 C1.16,108.89 0,111.32 0,113.88 C0,116.44 1.17,118.86 3.16,120.47 C1.16,122.07 0,124.49 0,127.06 C0,129.62 1.17,132.04 3.16,133.64 C1.16,135.25 0,137.67 0,140.23 C0,142.79 1.17,145.22 3.16,146.82 C1.16,148.42 0,150.85 0,153.41 C0,155.97 1.17,158.39 3.16,160 C1.16,161.6 0,164.03 0,166.59 C0,171.26 3.79,175.05 8.46,175.05 C11.29,175.05 13.94,173.63 15.5,171.27 C17.07,173.63 19.71,175.05 22.55,175.05 C25.34,175.05 27.95,173.67 29.53,171.37 C31.1,173.67 33.71,175.05 36.5,175.05 C39.29,175.05 41.9,173.67 43.48,171.37 C45.05,173.67 47.66,175.05 50.45,175.05 C53.24,175.05 55.85,173.67 57.43,171.37 C59,173.67 61.61,175.05 64.4,175.05 C67.19,175.05 69.8,173.67 71.38,171.37 C72.95,173.67 75.56,175.05 78.35,175.05 C81.14,175.05 83.75,173.67 85.33,171.37 C86.91,173.67 89.51,175.05 92.3,175.05 C95.09,175.05 97.7,173.67 99.28,171.37 C100.86,173.67 103.46,175.05 106.25,175.05 C109.04,175.05 111.65,173.67 113.23,171.37 C114.81,173.67 117.41,175.05 120.2,175.05 C122.99,175.05 125.61,173.67 127.18,171.37 C128.76,173.67 131.36,175.05 134.15,175.05 C136.94,175.05 139.56,173.67 141.13,171.37 C142.71,173.67 145.32,175.05 148.1,175.05 C150.9,175.05 153.51,173.67 155.08,171.37 C156.66,173.67 159.27,175.05 162.06,175.05 C164.85,175.05 167.46,173.67 169.03,171.37 C170.61,173.67 173.22,175.05 176,175.05 C178.8,175.05 181.41,173.67 182.98,171.37 C184.56,173.67 187.17,175.05 189.96,175.05 C192.8,175.05 195.45,173.61 197.02,171.24 C198.58,173.62 201.23,175.05 204.08,175.05 C208.75,175.05 212.54,171.26 212.54,166.59 C212.54,164.03 211.38,161.61 209.38,160 C211.38,158.4 212.54,155.97 212.54,153.41 C212.54,150.85 211.38,148.43 209.38,146.83 C211.38,145.22 212.54,142.8 212.54,140.23 C212.54,137.67 211.38,135.25 209.38,133.65 C211.38,132.04 212.54,129.62 212.54,127.06 C212.54,124.5 211.38,122.08 209.38,120.47 C211.38,118.87 212.54,116.44 212.54,113.88 C212.54,111.32 211.38,108.9 209.38,107.29 C211.38,105.69 212.54,103.26 212.54,100.7 C212.54,98.14 211.38,95.72 209.38,94.12 C211.38,92.51 212.54,90.09 212.54,87.53 C212.54,84.97 211.38,82.54 209.38,80.94 C211.38,79.33 212.54,76.91 212.54,74.35 C212.54,71.79 211.38,69.37 209.38,67.76 C211.38,66.16 212.54,63.73 212.54,61.17 C212.54,58.61 211.38,56.19 209.38,54.58 C211.38,52.98 212.54,50.56 212.54,47.99 C212.54,45.43 211.38,43.01 209.38,41.41 C211.38,39.8 212.54,37.38 212.54,34.81 C212.54,32.25 211.38,29.83 209.38,28.23 C211.38,26.62 212.54,24.2 212.54,21.64 C212.54,19.08 211.38,16.66 209.38,15.05 C211.38,13.45 212.54,11.02 212.54,8.46 C212.54,3.79 208.75,0 204.08,0 C201.24,0 198.58,1.44 197.02,3.81 C195.46,1.43 192.8,0 189.96,0 C187.16,0 184.55,1.38 182.98,3.68 C181.4,1.38 178.79,0 176,0 C173.21,0 170.6,1.38 169.02,3.68 C167.45,1.38 164.84,0 162.06,0 C159.26,0 156.65,1.38 155.07,3.68 C153.5,1.38 150.89,0 148.1,0 C145.31,0 142.7,1.38 141.12,3.68 C139.55,1.38 136.94,0 134.15,0 C131.36,0 128.75,1.38 127.17,3.68 C125.6,1.38 122.99,0 120.2,0 C117.41,0 114.8,1.38 113.22,3.68 C111.65,1.38 109.04,0 106.25,0 C103.46,0 100.85,1.38 99.27,3.68 C97.7,1.38 95.09,0 92.3,0 C89.51,0 86.9,1.38 85.32,3.68 C83.75,1.38 81.14,0 78.35,0 C75.56,0 72.95,1.38 71.37,3.68 C69.79,1.38 67.19,0 64.4,0 C61.61,0 59,1.38 57.42,3.68 C55.84,1.38 53.24,0 50.45,0 C47.66,0 45.05,1.38 43.47,3.68 C41.89,1.38 39.29,0 36.5,0 C33.71,0 31.09,1.38 29.52,3.68 C27.94,1.38 25.34,0 22.55,0 C19.71,0 17.07,1.42 15.5,3.78 C13.94,1.42 11.29,0 8.46,0 Z" fill="none" stroke="currentColor" stroke-width="1.5"/></svg>