<svg xmlns="http://www.w3.org/2000/svg" viewBox="0 0 93.3 59.9" width="24" height="24"><path d="M14.9,43.9 L9.3,46.7 L11.1,40.9 L6.6,43.9 L8.3,39.2 L2.8,40.8 L6.6,36.4 L0.9,36.2 L5.8,32.7 L0,30.8 L5.3,28.2 L0.3,25.6 L5.9,24.19 L0.8,19.9 L6.5,19.8 L2.8,15.1 L8.2,16.1 L5.9,11.3 L11.5,13.2 L10.2,8.7 L15.7,10.6 L14.9,6.15 L19.2,9.3 L19.8,4.3 L23.4,8 L23.8,3.4 L28.5,6.9 L30.3,1.3 L33.3,6.2 L34.7,0.6 L38.2,6 L40.6,0 L42.8,5.8 L45.6,0 L47.1,6 L51.3,1 L50.8,6.3 L55.4,0.6 L55.1,6.6 L60.5,1.4 L61.1,7.1 L66.1,2.7 L66.2,8.7 L71.9,4.4 L70.5,10 L77.6,6.2 L74.9,11.8 L83.9,7.8 L80.1,13.6 L88.1,11.9 L85.2,17 L91.2,16.9 L87,20.1 L93.3,21.2 L87.9,24 L93.2,25.8 L86.8,26.8 L92.4,30.3 L86.6,30.8 L90.9,34.8 L84.2,33.5 L87.8,38.8 L82,36.6 L84.7,41.7 L79.2,40.7 L79.8,46 L76.3,42.9 L75.6,48.6 L72,44.7 L71.7,51.2 L68,46 L66.2,52.1 L63.7,46.6 L61.2,53.7 L59.7,47.6 L56.9,53.8 L55,48.1 L52.8,53.9 L50.9,48.1 L48.4,54.5 L47,48.1 L44.4,53.7 L43.2,47.4 L40.1,54.2 L38.8,47.4 L36.3,54.7 L35.6,47.8 L32.4,55.1 L30.9,46.6 L28.6,53.3 L26.8,47.8 L3.8,59.9 Z" fill="none" stroke="currentColor" stroke-width="1.5"/></svg>