<svg xmlns="http://www.w3.org/2000/svg" viewBox="0 0 32.0 32.0" width="24" height="24"><rect x="0" y="0" width="32" height="32" fill="none" stroke="currentColor"/><rect x="0" y="0" width="0" height="0" fill="none" stroke="currentColor"/><path d="M26,2 L30,2 L30,6 L26,6 Z M26,8 L30,8 L30,12 L26,12 Z M20,2 L24,2 L24,6 L20,6 Z M20,8 L24,8 L24,12 L20,12 Z" fill="none" stroke="currentColor" stroke-width="1.5"/><path d="M28,16 L28,22 L4,22 L4,6 L16,6 L16,4 L4,4 L2,22 L12,24 L12,28 L8,28 L8,30 L24,30 L24,28 L20,28 L20,24 L28,24 L30,16 Z M18,28 L14,28 L14,24 L18,24 Z" fill="none" stroke="currentColor" stroke-width="1.5"/></svg>