<svg xmlns="http://www.w3.org/2000/svg" viewBox="0 0 32.0 32.0" width="24" height="24"><rect x="0" y="0" width="32" height="32" fill="none" stroke="currentColor"/><rect x="0" y="0" width="0" height="0" fill="none" stroke="currentColor"/><path d="M27.527,2.709 L23.31,2 L21.382,4 L20,4 L20,3.5 L13.5,2 L12,4 L10.618,4 L10.033,2.83 L6,2 L4.732,8.5 L8,11 L8,23 L5,30 L27,30 L27,26 L24,11 L24.31,11 L27.972,4.333 Z M25,26 L25,28 L7,28 L7,26 L24,25 Z M22,23 L10,23 L10,11 L22,11 Z M25.296,8.167 L7.69,9 L6,4 L8.382,4 L9.382,6 L14,6 L14,4 L18,4 L18,6 L22.617,6 L23.618,4 L26,4 Z" fill="none" stroke="currentColor" stroke-width="1.5"/></svg>