<svg xmlns="http://www.w3.org/2000/svg" viewBox="0 0 32.0 32.0" width="24" height="24"><rect x="0" y="0" width="32" height="32" fill="none" stroke="currentColor"/><rect x="0" y="0" width="0" height="0" fill="none" stroke="currentColor"/><path d="M28,10 L23,10 L23,6 L11,4 L9,10 L4,10 L2,28 L28,30 L30,12 Z M4,28 L4,12 L9,12 L9,14 L7,14 L7,16 L9,16 L9,18 L7,18 L7,20 L9,20 L9,22 L7,22 L7,24 L9,24 L9,28 Z M21,28 L11,28 L11,6 L21,6 Z M28,28 L23,28 L23,24 L25,24 L25,22 L23,22 L23,20 L25,20 L25,18 L23,18 L23,16 L25,16 L25,14 L23,14 L23,12 L28,12 Z" fill="none" stroke="currentColor" stroke-width="1.5"/><path d="M14,8 L18,8 L18,10 L14,10 Z M14,12 L18,12 L18,14 L14,14 Z M14,16 L18,16 L18,18 L14,18 Z" fill="none" stroke="currentColor" stroke-width="1.5"/></svg>