<svg xmlns="http://www.w3.org/2000/svg" viewBox="0 0 32.0 32.0" width="24" height="24"><rect x="0" y="0" width="32" height="32" fill="none" stroke="currentColor"/><rect x="0" y="0" width="0" height="0" fill="none" stroke="currentColor"/><path d="M25.348,28.875 C21.301,28.875 19.76,27.817 19.76,26.047 L21.899,23.494 C20.359,20.252 21.416,19.631 22.565,19.378 L22.565,19.286 C20.381,13.353 22.106,11.721 25.348,11.721 L27.44,11.63 L31.005,9.882 L31.005,12.135 L28.452,12.135 L28.452,12.457 C30.315,18.206 28.613,19.815 25.348,19.815 C22.658,21.287 23.164,21.586 24.222,21.586 L27.44,21.586 C30.383,21.586 31.648,22.851 31.648,25.012 C31.648,27.518 29.948,28.875 25.348,28.875 Z M26.843,24.138 L22.75,24.138 C22.129,26.3 22.819,26.851 24.659,26.851 L26.13,26.851 C28.039,26.851 28.89,26.368 28.89,25.357 C28.89,24.597 28.337,24.137 26.843,24.137 Z M27.51,15.975 L27.51,15.584 C27.51,14.365 26.751,13.744 25.348,13.744 C23.945,13.744 23.186,14.364 23.186,15.584 L23.186,15.974 C23.186,17.17 23.946,17.814 25.348,17.814 C26.75,17.814 27.51,17.17 27.51,15.974 Z M2.234,7.95 L5.66,7.95 L9.776,15.791 L9.868,15.791 L13.938,7.95 L17.228,7.95 L17.228,24 L14.352,24 L14.352,12.48 L14.261,12.48 L13.019,15.032 L9.73,21.102 L6.442,15.032 L5.201,12.48 L5.108,12.48 L5.108,24 L2.234,24 Z" fill="none" stroke="currentColor" stroke-width="1.5"/></svg>