<svg xmlns="http://www.w3.org/2000/svg" viewBox="0 0 32.0 32.0" width="24" height="24"><rect x="0" y="0" width="32" height="32" fill="none" stroke="currentColor"/><rect x="0" y="0" width="0" height="0" fill="none" stroke="currentColor"/><path d="M18.868,22.068 L20.662,20.321 C25.353,21.953 25.95,21.425 25.95,20.573 C25.95,19.883 25.537,19.447 24.479,19.309 L23.283,19.148 C20.708,18.826 19.283,17.699 19.283,15.515 C19.283,13.192 21.099,11.72 23.835,11.72 L26.801,15.33 C22.662,14.043 22.11,14.549 22.11,15.285 C22.11,16.089 22.547,16.457 23.674,16.641 L24.893,16.802 C27.514,17.17 28.779,18.343 28.779,20.343 C28.779,22.666 26.824,24.276 23.835,24.276 Z M4.24,7.95 L10.08,7.95 C14.266,7.95 17.002,10.64 17.002,15.975 C17.002,21.31 14.266,24 10.082,24 L4.24,24 Z M10.08,21.31 C12.334,21.31 13.783,19.976 13.783,17.24 L13.783,14.71 C13.783,11.974 12.334,10.64 10.081,10.64 L7.276,10.64 L7.276,21.31 Z" fill="none" stroke="currentColor" stroke-width="1.5"/></svg>