<svg xmlns="http://www.w3.org/2000/svg" viewBox="0 0 32.0 32.0" width="24" height="24"><rect x="0" y="0" width="32" height="32" fill="none" stroke="currentColor"/><rect x="0" y="0" width="0" height="0" fill="none" stroke="currentColor"/><path d="M25.716,22 L25.6,22 C19.276,24.276 17.598,22 17.598,17.976 C17.598,13.975 19.276,11.721 22.288,11.721 L25.715,13.975 L25.715,6.985 L28.658,6.985 L28.658,24 L25.715,24 Z M25.716,19.884 L25.716,16.067 C25.716,14.894 24.635,14.135 23.232,14.135 L20.68,19.034 C24.635,21.839 25.716,21.126 25.716,19.884 Z M6.558,24 L3.522,24 L3.522,7.95 L10.766,7.95 C13.686,7.95 15.503,9.882 15.503,12.917 L15.802,24 L12.422,24 L9.432,17.814 L6.558,17.814 Z M10.467,15.262 L12.352,12.387 L6.557,10.594 L6.557,15.262 Z" fill="none" stroke="currentColor" stroke-width="1.5"/></svg>