<svg xmlns="http://www.w3.org/2000/svg" viewBox="0 0 32.0 32.0" width="24" height="24"><rect x="0" y="0" width="32" height="32" fill="none" stroke="currentColor"/><rect x="0" y="0" width="0" height="0" fill="none" stroke="currentColor"/><path d="M19,14 L14,14 L14,12 L20,12 L12,14.278 L11,21 L19,23 L21,16 Z M19,21 L13,21 L13,16 L19,16 Z" fill="none" stroke="currentColor" stroke-width="1.5"/><path d="M30.414,17.414 L24.627,8.799 L27.527,5.937 L23.213,7.385 L17.414,1.585 L8.799,7.374 L5.937,4.472 L7.385,8.787 L1.585,14.586 L7.385,23.213 L4.55,26.086 L8.799,24.628 L14.586,30.414 L23.214,24.615 L26.086,27.451 L24.628,23.201 Z M16,29 L3,16 L16,3 L29,16 Z" fill="none" stroke="currentColor" stroke-width="1.5"/></svg>