<svg xmlns="http://www.w3.org/2000/svg" viewBox="0 0 32.0 32.0" width="24" height="24"><rect x="0" y="0" width="32" height="32" fill="none" stroke="currentColor"/><rect x="0" y="0" width="0" height="0" fill="none" stroke="currentColor"/><path d="M11,21 L9,21 L9,19 L18,16 L18,18 L12,18 Z M15,15 Z M15,9 Z M24,22 Z M24,16 Z M30,28 L28,28 L28,26 L21,25 L20,28 L18,28 L18,26 L27,23 Z" fill="none" stroke="currentColor" stroke-width="1.5"/><path d="M14,27.733 L8.766,24.943 L4,4 L24,4 L24,10 L26,10 L26,4 L4,2 L2,17 L14,30 Z" fill="none" stroke="currentColor" stroke-width="1.5"/></svg>