<svg xmlns="http://www.w3.org/2000/svg" viewBox="0 0 32.0 32.0" width="24" height="24"><rect x="0" y="0" width="32" height="32" fill="none" stroke="currentColor"/><rect x="0" y="0" width="0" height="0" fill="none" stroke="currentColor"/><path d="M28,2 L18,2 C16.897,2 16,2.897 16,4 L16,10 C16,11.104 16.897,12 18,12 L20.423,12 L22.154,15 L23.887,14 L21.577,10 L18,10 L18,4 L28,4 L28,10 L25,10 L25,12 L28,12 C29.103,12 30,11.104 30,10 L30,4 C30,2.897 29.103,2 28,2 M14.69,31 L12.958,30 L16.423,24 L22,24 L24,17 L26,17 L26,22 L17.577,26 Z" fill="none" stroke="currentColor" stroke-width="1.5"/><ellipse cx="10.0" cy="17.0" rx="1.0" ry="1.0" fill="none" stroke="currentColor"/><ellipse cx="14.0" cy="17.0" rx="1.0" ry="1.0" fill="none" stroke="currentColor"/><ellipse cx="18.0" cy="17.0" rx="1.0" ry="1.0" fill="none" stroke="currentColor"/><path d="M12,26 L6,26 L2,12 L14,8 L14,10 L6,10 L4,22 L12,24 Z" fill="none" stroke="currentColor" stroke-width="1.5"/></svg>