<svg xmlns="http://www.w3.org/2000/svg" viewBox="0 0 32.0 32.0" width="24" height="24"><rect x="0" y="0" width="32" height="32" fill="none" stroke="currentColor"/><rect x="0" y="0" width="0" height="0" fill="none" stroke="currentColor"/><path d="M23.414,22 L10,8.586 L10,2 L2,2 L2,10 L8.586,10 L22,23.414 L22,30 L30,30 L30,22 L23.414,22 Z M8,8 L4,8 L4,4 L8,4 L8,8 Z M28,28 L24,28 L24,24 L28,24 L28,28 Z" fill="none" stroke="currentColor" stroke-width="1.5"/><path d="M30,6 C30,3.794 28.206,2 26,2 C24.142,2 22.59,3.28 22.142,5 L13,5 L13,7 L22.142,7 L25,19 L27,19 L27,9.858 C28.72,9.411 30,7.858 30,6 Z M26,8 C24.897,8 24,7.103 24,6 C24,4.897 24.897,4 26,4 C27.103,4 28,4.897 28,6 C28,7.103 27.103,8 26,8 Z M19,25 L9.858,25 L7,13 L5,13 L5,22.142 C3.28,22.589 2,24.142 2,26 C2,28.206 3.794,30 6,30 C7.858,30 9.41,28.72 9.858,27 L19,27 L19,25 Z M6,28 C4.897,28 4,27.103 4,26 C4,24.897 4.897,24 6,24 C7.103,24 8,24.897 8,26 C8,27.103 7.103,28 6,28 Z" fill="none" stroke="currentColor" stroke-width="1.5"/></svg>