<svg xmlns="http://www.w3.org/2000/svg" viewBox="0 0 32.0 32.0" width="24" height="24"><rect x="0" y="0" width="32" height="32" fill="none" stroke="currentColor"/><path d="M6,17 L14,17 L14,19 L6,19 Z" fill="none" stroke="currentColor" stroke-width="1.5"/><rect x="0" y="0" width="0" height="0" fill="none" stroke="currentColor"/><ellipse cx="3.0" cy="18.0" rx="1.0" ry="1.0" fill="none" stroke="currentColor"/><ellipse cx="13.0" cy="14.0" rx="1.0" ry="1.0" fill="none" stroke="currentColor"/><path d="M2,13 L10,13 L10,15 L2,15 Z M6,9 L14,9 L14,11 L6,11 Z" fill="none" stroke="currentColor" stroke-width="1.5"/><ellipse cx="3.0" cy="10.0" rx="1.0" ry="1.0" fill="none" stroke="currentColor"/><path d="M30,28.6 L22.6,21.2 C24.1,19.2 25,16.7 25,14 C25,7.4 19.6,2 13,2 C9.7,2 6.6,3.3 4.3,5.8 L5.8,7.2 C7.6,5.1 10.2,4 13,4 C18.5,4 23,8.5 23,14 C23,19.5 18.5,24 13,24 C10,24 7.2,22.7 5.3,20.4 L3.8,21.7 C6,24.4 9.4,26 13,26 C16.2,26 19.1,24.7 21.3,22.7 L28.6,30 Z" fill="none" stroke="currentColor" stroke-width="1.5"/></svg>