<svg xmlns="http://www.w3.org/2000/svg" viewBox="0 0 32.0 32.0" width="24" height="24"><rect x="0" y="0" width="32" height="32" fill="none" stroke="currentColor"/><rect x="0" y="0" width="0" height="0" fill="none" stroke="currentColor"/><path d="M32,11 L29,11 L29,5 C29,3.9 28.1,3 27,3 L13,3 C11.9,3 11,3.9 11,5 L11,9 L13,9 L13,5 L27,5 L27,19 L13,19 L13,15 L11,15 L11,19 C11,20.1 11.9,21 13,21 L27,21 C28.1,21 29,20.1 29,19 L29,13 L32,13 L32,11 Z" fill="none" stroke="currentColor" stroke-width="1.5"/><path d="M21,17 L21,13 C21,11.9 20.1,11 19,11 L5,11 C3.9,11 3,11.9 3,13 L3,19 L0,19 L0,21 L3,21 L3,27 C3,28.1 3.9,29 5,29 L19,29 C20.1,29 21,28.1 21,27 L21,23 L19,23 L19,27 L5,27 L5,13 L19,13 L19,17 L21,17 Z" fill="none" stroke="currentColor" stroke-width="1.5"/></svg>