<svg xmlns="http://www.w3.org/2000/svg" viewBox="0 0 32.0 32.0" width="24" height="24"><rect x="0" y="0" width="32" height="32" fill="none" stroke="currentColor"/><rect x="0" y="0" width="0" height="0" fill="none" stroke="currentColor"/><path d="M11,28 L9,28 C5.14,28 2,24.86 2,21 L2,19 L4,19 L4,21 C4,23.757 6.243,26 9,26 L11,26 L11,28 Z M28.17,26 L25.59,28.58 L27,30 L31,26 L27,22 L25.58,23.41 L28.17,26 Z M22,31 L20.085,30.423 L23,21 L24.915,21.577 L22,31 Z M16.83,26 L19.41,23.42 L18,22 L14,26 L18,30 L19.42,28.59 L16.83,26 Z M30,19 L28,19 L28,12 L19,7 L19,5 L23,5 L30,19 Z" fill="none" stroke="currentColor" stroke-width="1.5"/><ellipse cx="3.0" cy="4.0" rx="1.0" ry="1.0" fill="none" stroke="currentColor"/><path d="M6,3 L16,3 L16,5 L6,5 Z" fill="none" stroke="currentColor" stroke-width="1.5"/><ellipse cx="3.0" cy="12.0" rx="1.0" ry="1.0" fill="none" stroke="currentColor"/><path d="M6,11 L16,11 L16,13 L6,13 Z M2,15 L12,15 L12,17 L2,17 Z" fill="none" stroke="currentColor" stroke-width="1.5"/><ellipse cx="15.0" cy="8.0" rx="1.0" ry="1.0" fill="none" stroke="currentColor"/><path d="M2,7 L12,7 L12,9 L2,9 Z" fill="none" stroke="currentColor" stroke-width="1.5"/><ellipse cx="15.0" cy="16.0" rx="1.0" ry="1.0" fill="none" stroke="currentColor"/></svg>