<svg xmlns="http://www.w3.org/2000/svg" viewBox="0 0 32.0 32.0" width="24" height="24"><rect x="0" y="0" width="32" height="32" fill="none" stroke="currentColor"/><rect x="0" y="0" width="0" height="0" fill="none" stroke="currentColor"/><path d="M17.2,13 C17.6,14.2 18.7,15 20,15 C21.7,15 23,13.7 23,12 C23,10.3 21.7,9 20,9 C18.7,9 17.6,9.8 17.2,11 L5,11 C3.9,11 3,11.9 3,13 L3,19 L0,19 L0,21 L3,21 L3,27 C3,28.1 3.9,29 5,29 L19,29 C20.1,29 21,28.1 21,27 L21,23 L19,23 L19,27 L5,27 L5,13 L17.2,13 Z M20,11 C20.6,11 21,11.4 21,12 C21,12.6 20.6,13 20,13 C19.4,13 19,12.6 19,12 C19,11.4 19.4,11 20,11 Z" fill="none" stroke="currentColor" stroke-width="1.5"/><path d="M29,11 L29,5 C29,3.9 28.1,3 27,3 L13,3 C11.9,3 11,3.9 11,5 L11,9 L13,9 L13,5 L27,5 L27,19 L14.8,19 C14.4,17.8 13.3,17 12,17 C10.3,17 9,18.3 9,20 C9,21.7 10.3,23 12,23 C13.3,23 14.4,22.2 14.8,21 L27,21 C28.1,21 29,20.1 29,19 L29,13 L32,13 L32,11 L29,11 Z M12,21 C11.4,21 11,20.6 11,20 C11,19.4 11.4,19 12,19 C12.6,19 13,19.4 13,20 C13,20.6 12.6,21 12,21 Z" fill="none" stroke="currentColor" stroke-width="1.5"/></svg>