<svg xmlns="http://www.w3.org/2000/svg" viewBox="0 0 32.0 32.0" width="24" height="24"><rect x="0" y="0" width="32" height="32" fill="none" stroke="currentColor"/><rect x="0" y="0" width="0" height="0" fill="none" stroke="currentColor"/><path d="M30,18 L30,23.5 C30,25 29.1,26.3 27.7,27 L26,27.8 L24.3,27 C22.9,26.4 22,25 22,23.5 L22,18 Z M32,16 L20,16 L20,23.5 C20,25.7 21.3,27.8 23.4,28.8 L26,30 L28.6,28.8 C30.7,27.8 32,25.8 32,23.5 Z" fill="none" stroke="currentColor" stroke-width="1.5"/><path d="M16,25 L7.5,25 C3.4,25 0,21.6 0,17.5 C0,13.8 2.7,10.8 6.2,10.1 C7.1,5.4 11.2,2 16,2 C21.5,2 26,6.5 26,12 L24,12 C24,7.6 20.4,4 16,4 C11.9,4 8.5,7.1 8,11.1 L8,12 L7.1,12 C4.2,12.2 2,14.6 2,17.5 C2,20.5 4.5,23 7.5,23 L16,23 Z" fill="none" stroke="currentColor" stroke-width="1.5"/></svg>