<svg xmlns="http://www.w3.org/2000/svg" viewBox="0 0 32.0 32.0" width="24" height="24"><rect x="0" y="0" width="32" height="32" fill="none" stroke="currentColor"/><rect x="0" y="0" width="0" height="0" fill="none" stroke="currentColor"/><path d="M26,14.1 L26,2 L21,2 L21,4 L24,4 L24,6 L21,6 L21,8 L24,8 L24,14.1 C22.3,14.5 21,16.1 21,18 C21,20.2 22.8,22 25,22 C27.2,22 29,20.2 29,18 C29,16.1 27.7,14.6 26,14.1 Z M25,20 C23.9,20 23,19.1 23,18 C23,16.9 23.9,16 25,16 C26.1,16 27,16.9 27,18 C27,19.1 26.1,20 25,20 Z" fill="none" stroke="currentColor" stroke-width="1.5"/><path d="M15,31 L9.5,27.8 C6.1,25.8 4,22.2 4,18.3 L4,4 C4,2.9 4.9,2 6,2 L18,2 L18,4 L6,4 L6,18.3 C6,21.5 7.7,24.5 10.5,26.1 L15,28.8 L19.5,26.1 C20.6,25.4 21.6,24.6 22.3,23.5 L23.9,24.6 C23,25.9 21.8,27 20.4,27.8 L15,31 Z" fill="none" stroke="currentColor" stroke-width="1.5"/></svg>