<svg xmlns="http://www.w3.org/2000/svg" viewBox="0 0 32.0 32.0" width="24" height="24"><rect x="0" y="0" width="32" height="32" fill="none" stroke="currentColor"/><rect x="0" y="0" width="0" height="0" fill="none" stroke="currentColor"/><path d="M29.17,25 L26.59,27.58 L28,29 L32,25 L28,21 L26.58,22.41 Z M23,30 L21.085,29.423 L24,20 L25.915,20.577 Z M17.83,25 L20.41,22.42 L19,21 L15,25 L19,29 L20.42,27.59 Z M18,19 L16,19 L16,5 C16,3.897 16.897,3 18,3 L27,3 C28.103,3 29,3.897 29,5 L29,16 L27,16 L27,5 L18,5 Z M12,3 L3,3 C1.897,3 1,3.898 1,5 L1,27 C1,28.103 1.897,29 3,29 L12,29 C13.103,29 14,28.103 14,27 L14,5 C14,3.898 13.103,3 12,3 M12,10.037 L5.075,5 L12,5 Z M11.3,12 L3,18.036 L3,5.964 Z M12,13.963 L12.001,25.78 L3.721,19.984 Z M3,21.921 L10.256,27 L3,27 Z M12,27 L12.001,26.998 Z" fill="none" stroke="currentColor" stroke-width="1.5"/></svg>