<svg xmlns="http://www.w3.org/2000/svg" viewBox="0 0 32.0 32.0" width="24" height="24"><rect x="0" y="0" width="32" height="32" fill="none" stroke="currentColor"/><rect x="0" y="0" width="0" height="0" fill="none" stroke="currentColor"/><path d="M20,16 C20,15.3 19.8,14.6 19.4,14 L22.7,10.7 L21.3,9.3 L18,12.6 C17.4,12.2 16.7,12 16,12 C15.3,12 14.6,12.2 14,12.6 L10.7,9.3 L9.3,10.7 L12.6,14 C12.2,14.6 12,15.3 12,16 C12,16.7 12.2,17.4 12.6,18 L9.3,21.3 L10.7,22.7 L14,19.4 C14.6,19.8 15.3,20 16,20 C16.7,20 17.4,19.8 18,19.4 L21.3,22.7 L22.7,21.3 L19.4,18 C19.8,17.4 20,16.7 20,16 Z M16,18 C14.9,18 14,17.1 14,16 C14,14.9 14.9,14 16,14 C17.1,14 18,14.9 18,16 C18,17.1 17.1,18 16,18 Z" fill="none" stroke="currentColor" stroke-width="1.5"/><path d="M26,17 L32,17 L32,15 L29.9,15 C29.4,7.7 23.4,2 16,2 C8.3,2 2,8.3 2,16 C2,23.7 8.3,30 16,30 C21.2,30 25.7,27.2 28.1,23 L26.4,22 C24.3,25.6 20.5,28 16,28 C9.4,28 4,22.6 4,16 C4,9.4 9.4,4 16,4 C22.3,4 27.4,8.9 27.9,15 L26,15 L26,17 Z" fill="none" stroke="currentColor" stroke-width="1.5"/></svg>