<svg xmlns="http://www.w3.org/2000/svg" viewBox="0 0 32.0 32.0" width="24" height="24"><rect x="0" y="0" width="32" height="32" fill="none" stroke="currentColor"/><rect x="0" y="0" width="0" height="0" fill="none" stroke="currentColor"/><path d="M25,21 C24.26,21 23.576,21.216 22.98,21.567 L20.95,19.536 L19.535,20.95 L21.567,22.981 C21,27.206 22.794,29 25,29 C25.356,29 25.694,28.939 26.023,28.85 L23.586,26.414 L28.851,26.023 C29,22.794 27.205,21 25,21 M20.95,12.464 L24.714,8.7 C25.105,8.887 25.538,9 26,9 C23,6.462 23.113,6.895 23.3,7.286 L19.536,11.05 Z M26,5 C26.551,5 27,5.449 27,6 C27,6.551 26.551,7 26,7 C25.449,7 25,6.551 25,6 C25,5.449 25.449,5 26,5 M16,12 C12,16.74 12.215,17.425 12.566,18.02 L7.286,23.3 C9,25.538 8.887,25.105 8.7,24.714 L13.98,19.434 M6,27 M16,18 C14.897,18 14,17.103 14,16 C14,14.897 14.897,14 16,14 C17.103,14 18,14.897 18,16 C18,17.103 17.103,18 16,18 M7,11 C7.74,11 8.424,10.785 9.02,10.433 L11.05,12.464 L12.464,11.05 L10.434,9.019 C10.783,8.424 11,7.739 11,7 C11,4.794 9.206,3 7,3 C6.644,3 6.306,3.062 5.977,3.15 L8.414,5.586 L3.149,5.977 C3,9.206 4.794,11 7,11" fill="none" stroke="currentColor" stroke-width="1.5"/></svg>