<svg xmlns="http://www.w3.org/2000/svg" viewBox="0 0 32.0 32.0" width="24" height="24"><rect x="0" y="0" width="32" height="32" fill="none" stroke="currentColor"/><rect x="0" y="0" width="0" height="0" fill="none" stroke="currentColor"/><path d="M16,25 C14,25 12,24.3 10.4,23 L11.7,21.4 C13,22.4 14.5,22.9 16.1,22.9 C20,22.9 23.1,19.8 23.1,15.9 C23.1,15.6 23.1,15.2 23,14.9 L25,14.6 L25,16 C25,21 21,25 16,25 M7.1,17.3 C7,16.9 7,16.4 7,16 C7,11 11,7 16,7 C18,7 20,7.7 21.6,9 L20.3,10.6 C19.1,9.5 17.6,9 16,9 C12.1,9 9,12.1 9,16 C9,16.3 9,16.7 9.1,17 Z" fill="none" stroke="currentColor" stroke-width="1.5"/><ellipse cx="23.0" cy="27.0" rx="1.0" ry="1.0" fill="none" stroke="currentColor"/><ellipse cx="9.0" cy="20.0" rx="1.0" ry="1.0" fill="none" stroke="currentColor"/><ellipse cx="23.0" cy="12.0" rx="1.0" ry="1.0" fill="none" stroke="currentColor"/><ellipse cx="16.0" cy="16.0" rx="2.0" ry="2.0" fill="none" stroke="currentColor"/><ellipse cx="9.0" cy="5.0" rx="1.0" ry="1.0" fill="none" stroke="currentColor"/><path d="M16,30 C8.3,30 2,23.7 2,16 C2,12.3 3.5,8.7 6.1,6.1 L7.5,7.5 C5.2,9.8 4,12.8 4,16 C4,22.6 9.4,28 16,28 C17.4,28 18.8,27.8 20.1,27.3 L20.8,29.2 C19.3,29.7 17.6,30 16,30 M25.9,25.9 L24.5,24.5 C26.8,22.2 28,19.2 28,16 C28,9.4 22.6,4 16,4 C14.6,4 13.2,4.2 11.9,4.7 L11.2,2.8 C12.7,2.3 14.4,2 16,2 C23.7,2 30,8.3 30,16 C30,19.7 28.5,23.3 25.9,25.9" fill="none" stroke="currentColor" stroke-width="1.5"/></svg>