<svg xmlns="http://www.w3.org/2000/svg" viewBox="0 0 32.0 32.0" width="24" height="24"><rect x="0" y="0" width="32" height="32" fill="none" stroke="currentColor"/><rect x="0" y="0" width="0" height="0" fill="none" stroke="currentColor"/><path d="M24.4,10 C24.7,10.5 25.1,10.9 25.7,11.2 L27,11.8 L28.3,11.2 C29.3,10.7 30,9.6 30,8.5 L30,4 L27,4 L27,2 L32,2 L32,8.5 C32,10.4 30.9,12.2 29.1,13 L26.9,14 L24.8,13 C23.5,12.4 22.6,11.3 22.2,10 Z" fill="none" stroke="currentColor" stroke-width="1.5"/><path d="M16,6 L24,6 L24,8 L16,8 Z M16,2 L24,2 L24,4 L16,4 Z" fill="none" stroke="currentColor" stroke-width="1.5"/><path d="M28,16 L28,22 L4,22 L4,6 L14,6 L14,4 L4,4 C2.9,4 2,4.9 2,6 L2,22 C2,23.1 2.9,24 4,24 L12,24 L12,28 L8,28 L8,30 L24,30 L24,28 L20,28 L20,24 L28,24 C29.1,24 30,23.1 30,22 L30,16 Z M18,28 L14,28 L14,24 L18,24 Z" fill="none" stroke="currentColor" stroke-width="1.5"/></svg>