<svg xmlns="http://www.w3.org/2000/svg" viewBox="0 0 32.0 32.0" width="24" height="24"><rect x="0" y="0" width="32" height="32" fill="none" stroke="currentColor"/><rect x="0" y="0" width="0" height="0" fill="none" stroke="currentColor"/><ellipse cx="9.0" cy="26.0" rx="1.0" ry="1.0" fill="none" stroke="currentColor"/><path d="M26,30 L6,30 L4,24 L26,22 L28,28 Z M6,24 L6,28 L26,28 L26,24 L6,24 Z" fill="none" stroke="currentColor" stroke-width="1.5"/><ellipse cx="9.0" cy="16.0" rx="1.0" ry="1.0" fill="none" stroke="currentColor"/><path d="M26,20 L6,20 L4,14 L26,12 L28,18 Z M6,14 L6,18 L26,18 L26,14 L6,14 Z" fill="none" stroke="currentColor" stroke-width="1.5"/><ellipse cx="9.0" cy="6.0" rx="1.0" ry="1.0" fill="none" stroke="currentColor"/><path d="M26,10 L6,10 L4,4 L26,2 L28,8 Z M6,4 L6,8 L26,8 L26,4 L6,4 Z" fill="none" stroke="currentColor" stroke-width="1.5"/></svg>