<svg xmlns="http://www.w3.org/2000/svg" viewBox="0 0 32.0 32.0" width="24" height="24"><rect x="0" y="0" width="32" height="32" fill="none" stroke="currentColor"/><rect x="0" y="0" width="0" height="0" fill="none" stroke="currentColor"/><path d="M20,27 L7,27 L5,12 L7,12 L7,25 L20,25 Z" fill="none" stroke="currentColor" stroke-width="1.5"/><path d="M23.4,22 L19.4,18 L10,8.6 L10,2 L2,2 L2,10 L8.6,10 L12.6,14 L22,23.4 L22,30 L30,30 L30,22 Z M8,8 L4,8 L4,4 L8,4 Z M16,18 Z M28,28 L24,28 L24,24 L28,24 Z" fill="none" stroke="currentColor" stroke-width="1.5"/><path d="M25,20 L27,20 L27,7 L12,5 L12,7 L25,7 Z" fill="none" stroke="currentColor" stroke-width="1.5"/></svg>