<svg xmlns="http://www.w3.org/2000/svg" viewBox="0 0 32.0 32.0" width="24" height="24"><rect x="0" y="0" width="32" height="32" fill="none" stroke="currentColor"/><rect x="0" y="0" width="0" height="0" fill="none" stroke="currentColor"/><path d="M25,16 L17,16 L17,12 L15,12 L15,16 L7,16 L5,22 L7,22 L7,18 L15,18 L15,22 L17,22 L17,18 L25,18 L25,22 L27,22 L27,18 M20,10 L20,2 L12,2 L12,10 Z M14,8 L14,4 L18,4 L18,8 Z M26,24 L18.816,26 L8.816,26 L13.184,28 L23.184,28 M6,28 M16,28 M26,28" fill="none" stroke="currentColor" stroke-width="1.5"/></svg>