<svg xmlns="http://www.w3.org/2000/svg" viewBox="0 0 32.0 32.0" width="24" height="24"><rect x="0" y="0" width="32" height="32" fill="none" stroke="currentColor"/><rect x="0" y="0" width="0" height="0" fill="none" stroke="currentColor"/><path d="M4,26 L8,26 L8,30 L4,30 Z M14,26 L18,26 L18,30 L14,30 Z M24,26 L28,26 L28,30 L24,30 Z M25,16 L17,16 L17,12 L15,12 L15,16 L7,16 L5,24 L7,24 L7,18 L15,18 L15,24 L17,24 L17,18 L25,18 L25,24 L27,24 L27,18 Z M16,10 Z M16,4 Z" fill="none" stroke="currentColor" stroke-width="1.5"/></svg>