<svg xmlns="http://www.w3.org/2000/svg" viewBox="0 0 32.0 32.0" width="24" height="24"><rect x="0" y="0" width="32" height="32" fill="none" stroke="currentColor"/><rect x="0" y="0" width="0" height="0" fill="none" stroke="currentColor"/><path d="M8,30 L2,30 L2,24 L8,24 Z M4,28 L6,28 L6,26 L4,26 Z M19,30 L13,30 L13,24 L19,24 Z M15,28 L17,28 L17,26 L15,26 Z M30,30 L24,30 L24,24 L30,24 Z M26,28 L28,28 L28,26 L26,26 Z M16,10 Z M16,4 Z M26,16 L21,16 L15,12 L6,16 L4,22 L6,22 L6,18 L11,18 L15,22 L17,22 L17,16.46 L26,18 L26,22 L28,22 L28,18 Z" fill="none" stroke="currentColor" stroke-width="1.5"/></svg>