<svg xmlns="http://www.w3.org/2000/svg" viewBox="0 0 32.638 32.0" width="24" height="24"><rect x="0.319" y="0" width="32" height="32" fill="none" stroke="currentColor"/><rect x="0" y="0" width="0" height="0" fill="none" stroke="currentColor"/><path d="M22.319,23 L14.149,23 L16.729,20.41 L15.319,19 L10.319,24 L15.319,29 L16.729,27.59 L14.149,25 L22.319,25 L22.319,23 Z M11.319,13 L19.489,13 L16.909,10.41 L18.319,9 L23.319,14 L18.319,19 L16.909,17.59 L19.489,15 L11.319,15 L11.319,13 Z" fill="none" stroke="currentColor" stroke-width="1.5"/><path d="M24.819,25 L24.319,25 L24.319,23 L24.819,23 L24.359,11.964 L24.269,11.13 L8.279,11.964 L7.442,12.021 L8.319,23 L8.319,25 L7.819,25 Z" fill="none" stroke="currentColor" stroke-width="1.5"/></svg>