<svg xmlns="http://www.w3.org/2000/svg" viewBox="0 0 32.0 32.0" width="24" height="24"><rect x="0" y="0" width="32" height="32" fill="none" stroke="currentColor"/><rect x="0" y="0" width="0" height="0" fill="none" stroke="currentColor"/><path d="M28,20 L26,20 L26,22 L28,22 L28,28 L4,28 L4,22 L14,22 L14,20 L4,20 L2,28 L28,30 L30,22 Z" fill="none" stroke="currentColor" stroke-width="1.5"/><ellipse cx="7.0" cy="25.0" rx="1.0" ry="1.0" fill="none" stroke="currentColor"/><path d="M30,8 L22,8 L22,14 L16,14 L16,22 L24,22 L24,16 L30,16 Z M22,20 L18,20 L18,16 L22,16 Z M28,14 L24,14 L24,10 L28,10 Z M18,10 L10,10 L10,2 L18,2 Z M12,8 L16,8 L16,4 L12,4 Z" fill="none" stroke="currentColor" stroke-width="1.5"/></svg>