<svg xmlns="http://www.w3.org/2000/svg" viewBox="0 0 32.0 32.0" width="24" height="24"><rect x="0" y="0" width="32" height="32" fill="none" stroke="currentColor"/><rect x="0" y="0" width="0" height="0" fill="none" stroke="currentColor"/><path d="M23.6,21.4 L27.2,25 L23.6,28.6 L25,30 L30,25 L25,20 Z M20.4,21.4 L16.8,25 L20.4,28.6 L19,30 L14,25 L19,20 Z" fill="none" stroke="currentColor" stroke-width="1.5"/><path d="M28,8 L16,8 L12.6,4.6 C12.2,4.2 11.7,4 11.2,4 L4,4 C2.9,4 2,4.9 2,6 L2,26 C2,27.1 2.9,28 4,28 L11,28 L11,26 L4,26 L4,6 L11.2,6 L14.6,9.4 L15.2,10 L28,10 L28,18 L30,18 L30,10 C30,8.9 29.1,8 28,8" fill="none" stroke="currentColor" stroke-width="1.5"/></svg>