<svg xmlns="http://www.w3.org/2000/svg" viewBox="0 0 32.0 32.0" width="24" height="24"><rect x="0" y="0" width="32" height="32" fill="none" stroke="currentColor"/><rect x="0" y="0" width="0" height="0" fill="none" stroke="currentColor"/><path d="M18,14 L30,14 L30,16 L18,16 Z M18,19 L26,19 L26,21 L18,21 Z M18,9 L30,9 L30,11 L18,11 Z" fill="none" stroke="currentColor" stroke-width="1.5"/><path d="M22,24 L22,28 L6,28 L6,16 L14,16 L14,14 L10,14 L10,8 L19.5,5.6 L8,14 L6,14 L4,28 L22,30 L24,24 Z" fill="none" stroke="currentColor" stroke-width="1.5"/></svg>