<svg xmlns="http://www.w3.org/2000/svg" viewBox="0 0 32.0 32.0" width="24" height="24"><rect x="0" y="0" width="32" height="32" fill="none" stroke="currentColor"/><rect x="0" y="0" width="0" height="0" fill="none" stroke="currentColor"/><path d="M11,14 L21,14 L21,18 L11,18 Z" fill="none" stroke="currentColor" stroke-width="1.5"/><path d="M29.391,14.527 L17.473,2.609 C15.467,2 14.933,2.203 14.527,2.609 L2.609,14.527 C2.203,14.933 2,15.466 2,16 C2,16.534 2.203,17.067 2.609,17.473 L14.526,29.39 C14.933,29.797 15.467,30 16,30 C16.533,30 17.067,29.797 17.473,29.391 L29.39,17.474 C29.797,17.067 30,16.534 30,16 C30,15.466 29.797,14.933 29.391,14.527 Z M16,28.036 L3.965,16 L16,3.964 L28.036,16 L16,28.036 Z" fill="none" stroke="currentColor" stroke-width="1.5"/></svg>