<svg xmlns="http://www.w3.org/2000/svg" viewBox="0 0 32.0 32.0" width="24" height="24"><rect x="0" y="0" width="32" height="32" fill="none" stroke="currentColor"/><rect x="0" y="0" width="0" height="0" fill="none" stroke="currentColor"/><path d="M30,17 L30,15 L17,15 L17,11 L19,11 L21,4 L13,2 L11,9 L15,11 L15,15 L2,15 L2,17 L8,17 L8,21 L6,21 L4,28 L12,30 L14,23 L10,21 L10,17 L22,17 L22,21 L20,21 L18,28 L26,30 L28,23 L24,21 L24,17 Z M13,4 L19,4 L19,9 L13,9 Z M12,28 L6,28 L6,23 L12,23 Z M26,28 L20,28 L20,23 L26,23 Z" fill="none" stroke="currentColor" stroke-width="1.5"/></svg>