<svg xmlns="http://www.w3.org/2000/svg" viewBox="0 0 32.0 32.0" width="24" height="24"><rect x="0" y="0" width="32" height="32" fill="none" stroke="currentColor"/><rect x="0" y="0" width="0" height="0" fill="none" stroke="currentColor"/><path d="M26,24 C24,26.076 24.014,26.149 24.023,26.223 C8.832,29 3,23.169 3,16 C3,13.885 3.492,11.867 4.462,10.004 L2.688,9.081 C1,24.271 7.729,31 16,31 C19.374,31 22.582,29.88 25.205,27.834" fill="none" stroke="currentColor" stroke-width="1.5"/><path d="M13,23 L13,25 L11,25 L11,23 Z M13,9 L13,11 L11,11 L11,9 Z M13,16 L13,18 L11,18 L11,16 Z" fill="none" stroke="currentColor" stroke-width="1.5"/><path d="M16,1 C12.626,1 9.418,2.12 6.795,4.166 C8,5.924 7.986,5.851 7.977,5.777 C17.654,3 19,4.346 19,6 C19,7.654 17.654,9 16,9 L15,9 L15,11 L16,11 C18.757,11 21,8.757 21,6 C21,5.76 20.98,5.525 20.947,5.294 C22.5,13.084 19.584,16 16,16 L15,16 L15,18 L16,18 C20.687,18 24.5,14.187 24.5,9.5 C24.5,8.735 24.389,7.996 24.198,7.29 C26,18.514 21.514,23 16,23 L15,23 L15,25 L16,25 C22.617,25 28,19.617 28,13 C28,12.1 27.894,11.226 27.706,10.382 C29,18.115 28.508,20.133 27.538,21.996 L29.312,22.919 C31,7.729 24.271,1 16,1" fill="none" stroke="currentColor" stroke-width="1.5"/></svg>