<svg xmlns="http://www.w3.org/2000/svg" viewBox="0 0 32.0 32.0" width="24" height="24"><rect x="0" y="0" width="32" height="32" fill="none" stroke="currentColor"/><rect x="0" y="0" width="0" height="0" fill="none" stroke="currentColor"/><path d="M29.312,22.919 C31,7.729 24.271,1 16,1 C8,5.923 7.986,5.85 7.978,5.776 C15.435,4.246 12.929,7.348 12.929,11.031 C12.929,11.821 13.047,12.581 13.262,13.301 C7.366,12.971 4.25,15.505 3.344,18.928 C3,13.884 3.492,11.867 4.462,10.005 L2.688,9.08 C1,24.27 7.729,31 16,31 C24,26.077 24.014,26.15 24.022,26.224 C22.942,27.074 21.745,27.734 20.473,28.201 C21,24.37 20.204,22.933 18.993,22.02 C19.07,20.184 18.944,19.43 18.732,18.712 C19.432,18.913 20.167,19.03 20.93,19.03 C24.634,19.03 27.75,16.496 28.656,13.073 C28.874,14.015 29,14.992 29,16 C29,18.116 28.508,20.133 27.538,21.995 Z M11.519,28.184 C5.07,17.662 7.762,14.97 11.07,14.97 C14.378,14.97 17.07,17.661 17.07,20.97 C17.07,21.02 17.058,21.067 17.057,21.117 C13.243,21 11,23.243 11,26 C11,26.786 11.192,27.523 11.519,28.184 M18.999,26 C18.999,27.654 17.654,29 15.999,29 C14.344,29 12.999,27.654 12.999,26 C12.999,24.346 14.346,23 15.999,23 C17.652,23 18.999,24.346 18.999,26 M20.929,17.03 C17.622,17.03 14.929,14.338 14.929,11.03 C14.929,7.722 17.622,5.03 20.929,5.03 C22.359,5.03 23.672,5.534 24.704,6.372 C26.93,14.338 24.238,17.03 20.93,17.03" fill="none" stroke="currentColor" stroke-width="1.5"/></svg>