<svg xmlns="http://www.w3.org/2000/svg" viewBox="0 0 65.1 55.9" width="24" height="24"><path d="M62,55.9 L3,55.9 C1.4,55.9 0,54.6 0,52.9 L0,7 C0,5.4 1.3,4 3,4 L62.1,4 C63.7,4 65.1,5.3 65.1,7 L65.1,53 C65,54.6 63.7,55.9 62,55.9 Z" fill="none" stroke="currentColor" stroke-width="1.5"/><path d="M62,51.9 L3,51.9 C1.4,51.9 0,50.6 0,48.9 L0,3 C0,1.4 1.3,0 3,0 L62.1,0 C63.7,0 65.1,1.3 65.1,3 L65.1,49 C65,50.6 63.7,51.9 62,51.9 Z" fill="none" stroke="currentColor" stroke-width="1.5"/><rect x="12.8" y="4.1" width="48.7" height="4.4" fill="none" stroke="currentColor"/><ellipse cx="6.3" cy="6.3" rx="3.5" ry="3.5" fill="none" stroke="currentColor"/><rect x="3.5" y="12.8" width="58" height="35.1" fill="none" stroke="currentColor"/><path d="M38,34.1 L37.8,34.7 L37.3,36.1 L36,35.5 L35.4,35.2 L35.1,35.7 L34.2,36.9 L33.1,36 L32.6,35.6 L32.2,36 L31,36.9 L30.2,35.7 L29.9,35.2 L29.3,35.5 L28,36.1 L27.5,34.7 L27.3,34.1 L26.3,34.3 L25.5,34.3 L25.5,45.3 L32.5,39.4 L39.5,45.3 L39.5,34.3 L38.8,34.3 Z" fill="none" stroke="currentColor" stroke-width="1.5"/><path d="M41.6,24.8 L42.8,23.5 L41.3,22.5 L42.1,20.9 L40.4,20.3 L40.8,18.6 L39,18.4 L38.9,16.7 L37.1,17 L36.6,15.4 L35,16.1 L34,14.7 L32.6,15.8 L31.3,14.7 L30.3,16.1 L28.7,15.4 L28.1,17 L26.4,16.7 L26.3,18.4 L24.5,18.6 L24.8,20.3 L23.2,20.9 L23.9,22.5 L22.5,23.5 L23.6,24.8 L22.5,26.1 L23.9,27.1 L23.2,28.7 L24.8,29.3 L24.3,31 L25.7,31.2 L26,31.2 L26.3,32.9 L28.1,32.6 L28.7,34.3 L30.3,33.5 L31.3,35 L32.6,33.8 L34,35 L35,33.5 L36.6,34.3 L37.1,32.6 L38.9,32.9 L39.1,31.2 L39.2,31.2 L40.8,31 L40.4,29.3 L42.1,28.7 L41.3,27.1 L42.8,26.1 Z" fill="none" stroke="currentColor" stroke-width="1.5"/><path d="M30.9,25.8 L28.4,23.1 L25.6,25.9 L25.6,25.9 L30.8,31.1 L39.6,22.3 L37.6,20.2 Z" fill="none" stroke="currentColor" stroke-width="1.5"/></svg>