<svg xmlns="http://www.w3.org/2000/svg" viewBox="0 0 55.4 57.2" width="24" height="24"><path d="M55.4,27.4 L55.4,29.8 C55.4,45 43,57.2 27.7,57.2 C12.4,57.2 0.1,44.9 0.1,29.8 L0.1,27.4 L55.4,27.4 Z" fill="none" stroke="currentColor" stroke-width="1.5"/><path d="M27.7,0 C43,0 55.4,12.3 55.4,27.4 C55.4,42.6 43,54.8 27.7,54.8 C12.4,54.8 0.1,42.5 0.1,27.4 C0,12.2 12.4,0 27.7,0 Z" fill="none" stroke="currentColor" stroke-width="1.5"/><path d="M33.6,23.1 L22.7,9.6 L17.3,13.9 L29.2,28.6 L17.3,43.3 L22.7,47.6 L33.6,34.1 L38.1,28.6 Z" fill="none" stroke="currentColor" stroke-width="1.5"/></svg>