<svg xmlns="http://www.w3.org/2000/svg" viewBox="0 0 59.6 72.0" width="24" height="24"><path d="M51.2,30.9 L59.6,31.8 L59.6,14.9 L51.2,10.7 Z" fill="none" stroke="currentColor" stroke-width="1.5"/><path d="M35.8,14.9 L51.2,10.7 L51.2,30.9 L35.8,31.8 Z" fill="none" stroke="currentColor" stroke-width="1.5"/><path d="M59.6,31.8 L45.1,32.4 L35.8,31.8 L51.2,30.9 Z" fill="none" stroke="currentColor" stroke-width="1.5"/><path d="M29.8,12.5 L46.6,17.9 L46.6,26.3 L29.8,23.3 Z" fill="none" stroke="currentColor" stroke-width="1.5"/><path d="M22.2,24.7 L29.9,23.3 L46.6,26.3 L39.1,27.1 Z" fill="none" stroke="currentColor" stroke-width="1.5"/><path d="M8.4,31 L0,31.8 L0,14.8 L8.4,10.7 Z" fill="none" stroke="currentColor" stroke-width="1.5"/><path d="M23.8,14.9 L8.4,10.7 L8.4,30.9 L23.8,31.8 Z" fill="none" stroke="currentColor" stroke-width="1.5"/><path d="M0,31.8 L14.5,32.4 L23.8,31.8 L8.4,30.9 Z" fill="none" stroke="currentColor" stroke-width="1.5"/><path d="M29.8,12.5 L13,17.9 L13,26.3 L29.8,23.3 Z" fill="none" stroke="currentColor" stroke-width="1.5"/><path d="M37.4,24.7 L29.7,23.3 L13,26.3 L20.5,27.1 Z" fill="none" stroke="currentColor" stroke-width="1.5"/><path d="M51.2,41.3 L59.6,40.5 L59.6,57.4 L51.2,61.6 Z" fill="none" stroke="currentColor" stroke-width="1.5"/><path d="M35.8,57.4 L51.2,61.6 L51.2,41.3 L35.8,40.5 Z" fill="none" stroke="currentColor" stroke-width="1.5"/><path d="M59.6,40.5 L45.1,39.9 L35.8,40.5 L51.2,41.3 Z" fill="none" stroke="currentColor" stroke-width="1.5"/><path d="M29.8,59.8 L46.6,54.3 L46.6,46 L29.8,49 Z" fill="none" stroke="currentColor" stroke-width="1.5"/><path d="M22.2,47.6 L29.9,48.9 L46.6,46 L39.1,45.2 Z" fill="none" stroke="currentColor" stroke-width="1.5"/><path d="M8.4,41.3 L0,40.5 L0,57.4 L8.4,61.6 Z" fill="none" stroke="currentColor" stroke-width="1.5"/><path d="M23.8,57.4 L8.4,61.6 L8.4,41.3 L23.8,40.5 Z" fill="none" stroke="currentColor" stroke-width="1.5"/><path d="M0,40.5 L14.5,39.9 L23.8,40.5 L8.4,41.3 Z" fill="none" stroke="currentColor" stroke-width="1.5"/><path d="M29.8,59.8 L13,54.3 L13,46 L29.8,49 Z" fill="none" stroke="currentColor" stroke-width="1.5"/><path d="M37.4,47.6 L29.7,48.9 L13,46 L20.5,45.2 Z" fill="none" stroke="currentColor" stroke-width="1.5"/><path d="M38.7,67.5 L29.8,72 L29.8,0 L38.7,4.5 Z" fill="none" stroke="currentColor" stroke-width="1.5"/><path d="M20.9,67.5 L29.8,72 L29.8,0 L20.9,4.5 Z" fill="none" stroke="currentColor" stroke-width="1.5"/></svg>