<svg xmlns="http://www.w3.org/2000/svg" viewBox="0 0 59.6 72.0" width="24" height="24"><path d="M48.6,57.3 L29.8,52.9 L11,57.3 L29.8,64.8 Z" fill="none" stroke="currentColor" stroke-width="1.5"/><path d="M59.6,23.3 L29.8,14.4 L29.8,0 L59.6,14.9 Z" fill="none" stroke="currentColor" stroke-width="1.5"/><path d="M48.6,62.6 L29.8,72 L29.8,64.8 L48.6,57.3 Z" fill="none" stroke="currentColor" stroke-width="1.5"/><path d="M29.8,72 L11,62.6 L11,57.3 L29.8,64.8 Z" fill="none" stroke="currentColor" stroke-width="1.5"/><path d="M0,23.3 L29.8,14.4 L29.8,0 L0,14.9 Z" fill="none" stroke="currentColor" stroke-width="1.5"/><path d="M59.6,23.3 L29.8,27.1 L0,23.3 L29.8,14.4 Z" fill="none" stroke="currentColor" stroke-width="1.5"/><path d="M45.7,52.8 L42.4,53.8 L42.4,41.9 L45.7,41.6 Z" fill="none" stroke="currentColor" stroke-width="1.5"/><path d="M34.6,56.2 L29.8,57.6 L29.8,28.8 L34.6,29.3 Z" fill="none" stroke="currentColor" stroke-width="1.5"/><path d="M17.2,41.9 L13.9,41.6 L13.9,30.4 L17.2,30.1 Z" fill="none" stroke="currentColor" stroke-width="1.5"/><path d="M25,56.2 L29.8,57.6 L29.8,28.8 L25,29.3 Z" fill="none" stroke="currentColor" stroke-width="1.5"/><path d="M38.8,53.1 L42.4,53.8 L42.4,41.9 L38.8,41.7 Z" fill="none" stroke="currentColor" stroke-width="1.5"/><path d="M20.9,41.7 L17.2,41.9 L17.2,30.1 L20.9,30.3 Z" fill="none" stroke="currentColor" stroke-width="1.5"/><path d="M45.7,41.6 L42.1,41.4 L38.8,41.7 L42.4,41.9 Z" fill="none" stroke="currentColor" stroke-width="1.5"/></svg>