<svg xmlns="http://www.w3.org/2000/svg" viewBox="0 0 58.62 56.53" width="24" height="24"><rect x="17.15" y="12.15" width="4.5" height="2.54" fill="none" stroke="currentColor"/><rect x="36.78" y="12.15" width="4.49" height="2.54" fill="none" stroke="currentColor"/><path d="M36.78,20.3 L36.78,22.84 L30.7,29.12 L30.7,26.57 Z" fill="none" stroke="currentColor" stroke-width="1.5"/><path d="M28,26.57 L28,29.12 L21.65,22.64 L21.65,20.09 Z" fill="none" stroke="currentColor" stroke-width="1.5"/><rect x="48.2" y="32.47" width="10.42" height="2.55" fill="none" stroke="currentColor"/><rect x="0" y="32.47" width="10.42" height="2.55" fill="none" stroke="currentColor"/><path d="M48.2,38.56 L48.2,41.11 L35.96,29.06 L35.96,26.51 Z" fill="none" stroke="currentColor" stroke-width="1.5"/><path d="M10.42,14.6 L22.66,26.64 L10.42,38.56 L10.42,32.47 L0,32.47 L0,20.68 L10.42,20.68 Z" fill="none" stroke="currentColor" stroke-width="1.5"/><path d="M22.66,26.64 L22.66,29.19 L10.42,41.11 L10.42,38.56 Z" fill="none" stroke="currentColor" stroke-width="1.5"/><path d="M48.2,14.6 L48.2,20.69 L58.62,20.69 L58.62,32.47 L48.2,32.47 L48.2,38.56 L35.96,26.51 Z" fill="none" stroke="currentColor" stroke-width="1.5"/><path d="M41.28,41.84 L41.28,44.39 L29.15,56.53 L28.58,53.42 Z" fill="none" stroke="currentColor" stroke-width="1.5"/><path d="M29.15,53.99 L29.15,56.53 L17.15,44.39 L17.15,41.84 Z" fill="none" stroke="currentColor" stroke-width="1.5"/><path d="M29.28,0 L41.28,12.15 L36.78,12.15 L36.78,20.3 L30.7,26.57 L36.78,33.02 L36.78,41.84 L41.28,41.84 L29.15,53.99 L17.15,41.84 L21.65,41.84 L21.65,33.11 L28,26.57 L21.65,20.09 L21.65,12.15 L17.15,12.15 Z" fill="none" stroke="currentColor" stroke-width="1.5"/></svg>