<svg xmlns="http://www.w3.org/2000/svg" viewBox="0 0 59.86 72.0" width="24" height="24"><path d="M38.8,29.85 L52.65,28.79 L52.65,11.36 L38.8,14.96 Z" fill="none" stroke="currentColor" stroke-width="1.5"/><path d="M44.21,27.62 L29.79,25.53 L29.79,0 L44.21,7.22 Z" fill="none" stroke="currentColor" stroke-width="1.5"/><path d="M59.86,29.87 L52.65,28.82 L52.65,11.36 L59.86,14.96 Z" fill="none" stroke="currentColor" stroke-width="1.5"/><path d="M38.8,29.85 L52.49,28.8 L59.86,29.87 L46.63,30.66 Z" fill="none" stroke="currentColor" stroke-width="1.5"/><path d="M38.8,42.15 L52.65,43.21 L52.65,60.64 L38.8,57.04 Z" fill="none" stroke="currentColor" stroke-width="1.5"/><path d="M44.21,44.38 L29.79,46.47 L29.79,72 L44.21,64.78 Z" fill="none" stroke="currentColor" stroke-width="1.5"/><path d="M59.71,42.13 L52.51,43.18 L52.51,60.64 L59.71,57.04 Z" fill="none" stroke="currentColor" stroke-width="1.5"/><path d="M38.8,42.15 L52.49,43.2 L59.86,42.13 L46.63,41.34 Z" fill="none" stroke="currentColor" stroke-width="1.5"/><path d="M20.91,29.85 L7.07,28.79 L7.07,11.36 L20.91,14.96 Z" fill="none" stroke="currentColor" stroke-width="1.5"/><path d="M15.5,27.62 L29.93,25.53 L29.93,0 L15.5,7.22 Z" fill="none" stroke="currentColor" stroke-width="1.5"/><path d="M0,29.87 L7.21,28.82 L7.21,11.36 L0,14.96 Z" fill="none" stroke="currentColor" stroke-width="1.5"/><path d="M21.05,29.85 L7.36,28.8 L0,29.87 L13.22,30.66 Z" fill="none" stroke="currentColor" stroke-width="1.5"/><path d="M20.91,42.15 L7.07,43.21 L7.07,60.64 L20.91,57.04 Z" fill="none" stroke="currentColor" stroke-width="1.5"/><path d="M15.5,44.38 L29.93,46.47 L29.93,72 L15.5,64.78 Z" fill="none" stroke="currentColor" stroke-width="1.5"/><path d="M0,42.13 L7.21,43.18 L7.21,60.64 L0,57.04 Z" fill="none" stroke="currentColor" stroke-width="1.5"/><path d="M21.05,42.15 L7.36,43.2 L0,42.13 L13.22,41.34 Z" fill="none" stroke="currentColor" stroke-width="1.5"/><path d="M44.36,44.38 L29.93,42.97 L15.5,44.38 L29.93,46.5 Z" fill="none" stroke="currentColor" stroke-width="1.5"/><path d="M44.36,27.62 L29.93,29.01 L15.5,27.62 L29.93,25.53 Z" fill="none" stroke="currentColor" stroke-width="1.5"/></svg>