<svg xmlns="http://www.w3.org/2000/svg" viewBox="0 0 59.6 72.0" width="24" height="24"><path d="M39.2,52.7 L8.4,61 L8.4,10.7 L39.2,19.1 Z" fill="none" stroke="currentColor" stroke-width="1.5"/><path d="M8.4,61.2 L0,57 L0,14.9 L8.4,10.7 Z" fill="none" stroke="currentColor" stroke-width="1.5"/><path d="M59.6,25.5 L29.8,18 L29.8,0 L59.6,14.9 Z" fill="none" stroke="currentColor" stroke-width="1.5"/><path d="M59.6,41.2 L29.8,44.9 L29.8,26.9 L59.6,30.7 Z" fill="none" stroke="currentColor" stroke-width="1.5"/><path d="M59.6,57.1 L29.8,72 L29.8,54 L59.6,46.5 Z" fill="none" stroke="currentColor" stroke-width="1.5"/><path d="M13.9,7.9 L29.8,0 L29.8,18 L13.9,22 Z" fill="none" stroke="currentColor" stroke-width="1.5"/><path d="M13.9,64 L29.8,71.9 L29.8,54 L13.9,50 Z" fill="none" stroke="currentColor" stroke-width="1.5"/><path d="M13.9,28.9 L29.8,26.9 L29.8,44.9 L13.9,43 Z" fill="none" stroke="currentColor" stroke-width="1.5"/><path d="M59.6,25.5 L45.1,27 L13.9,22 L29.8,18 Z" fill="none" stroke="currentColor" stroke-width="1.5"/><path d="M59.6,46.5 L45.1,45 L13.9,50 L29.8,54 Z" fill="none" stroke="currentColor" stroke-width="1.5"/></svg>