<svg xmlns="http://www.w3.org/2000/svg" viewBox="0 0 68.2 82.3" width="24" height="24"><path d="M9.5,69.9 L0,65.2 L0,17 L9.5,12.3 Z" fill="none" stroke="currentColor" stroke-width="1.5"/><path d="M40.9,20.7 L9.5,12.3 L9.5,69.7 L40.9,61.2 Z" fill="none" stroke="currentColor" stroke-width="1.5"/><path d="M51.1,54.3 L58.6,55.3 L58.6,70 L51.1,68 Z" fill="none" stroke="currentColor" stroke-width="1.5"/><path d="M51.1,28 L58.6,27 L58.6,12.3 L51.1,14.3 Z" fill="none" stroke="currentColor" stroke-width="1.5"/><path d="M27.2,22.7 L34.1,21 L52.2,25.4 L45.5,26.5 Z" fill="none" stroke="currentColor" stroke-width="1.5"/><path d="M52.2,25.4 L34.1,21 L34.1,0 L52.2,9.1 Z" fill="none" stroke="currentColor" stroke-width="1.5"/><path d="M68.2,17.1 L58.6,12.3 L58.6,27 L68.2,29.3 Z" fill="none" stroke="currentColor" stroke-width="1.5"/><path d="M27.2,59.6 L34.1,61.3 L52.2,56.9 L45.5,55.8 Z" fill="none" stroke="currentColor" stroke-width="1.5"/><path d="M52.2,56.9 L34.1,61.3 L34.1,82.3 L52.2,73.2 Z" fill="none" stroke="currentColor" stroke-width="1.5"/><path d="M68.2,65.3 L58.6,70 L58.6,55.3 L68.2,53 Z" fill="none" stroke="currentColor" stroke-width="1.5"/><path d="M15.9,73.3 L34.1,82.3 L34.1,0 L15.9,9.1 Z" fill="none" stroke="currentColor" stroke-width="1.5"/><path d="M44.3,77.2 L34.1,82.3 L34.1,0.3 L44.3,5.4 Z" fill="none" stroke="currentColor" stroke-width="1.5"/><path d="M62.7,68 L68.2,65.3 L68.2,17.1 L62.7,14.3 Z" fill="none" stroke="currentColor" stroke-width="1.5"/><path d="M62.7,28 L55.4,28.9 L51.1,28 L58.6,27 Z" fill="none" stroke="currentColor" stroke-width="1.5"/><path d="M62.7,54.3 L55.4,53.5 L51.1,54.3 L58.6,55.3 Z" fill="none" stroke="currentColor" stroke-width="1.5"/><path d="M55.4,53.5 L62.7,54.3 L62.7,28 L55.4,28.9 Z" fill="none" stroke="currentColor" stroke-width="1.5"/></svg>