<svg xmlns="http://www.w3.org/2000/svg" viewBox="0 0 59.6 72.0" width="24" height="24"><path d="M37.1,36 L45.7,36 L45.7,41.6 L37.1,41.1 Z" fill="none" stroke="currentColor" stroke-width="1.5"/><path d="M49.9,36 L55.8,36 L55.8,40.6 L49.9,40.3 Z" fill="none" stroke="currentColor" stroke-width="1.5"/><path d="M24.6,11.4 L13.9,8 L13.9,41.6 L24.6,40.9 Z" fill="none" stroke="currentColor" stroke-width="1.5"/><path d="M11.1,14.7 L3.8,13 L3.8,40.6 L11.1,40.3 Z" fill="none" stroke="currentColor" stroke-width="1.5"/><path d="M59.6,48.7 L29.8,57.6 L29.8,72 L59.6,57.1 Z" fill="none" stroke="currentColor" stroke-width="1.5"/><path d="M20.9,4.5 L29.8,0 L29.8,43.2 L20.9,42.3 Z" fill="none" stroke="currentColor" stroke-width="1.5"/><path d="M0,48.7 L29.8,57.6 L29.8,72 L0,57.1 Z" fill="none" stroke="currentColor" stroke-width="1.5"/><path d="M8.4,10.7 L13.9,7.9 L13.9,41.6 L8.4,41.1 Z" fill="none" stroke="currentColor" stroke-width="1.5"/><path d="M0,14.9 L3.8,13 L3.8,40.6 L0,40.2 Z" fill="none" stroke="currentColor" stroke-width="1.5"/><path d="M59.6,48.7 L29.8,44.9 L0,48.7 L29.8,57.6 Z" fill="none" stroke="currentColor" stroke-width="1.5"/><path d="M38.7,4.5 L29.8,0 L29.8,43.2 L38.7,42.3 Z" fill="none" stroke="currentColor" stroke-width="1.5"/><path d="M55.8,19.8 L59.6,21.1 L59.6,40.2 L55.8,40.6 Z" fill="none" stroke="currentColor" stroke-width="1.5"/><path d="M51.2,30.9 L45.7,30.4 L45.7,41.6 L51.2,41.1 Z" fill="none" stroke="currentColor" stroke-width="1.5"/><path d="M29.8,0 L59.6,14.9 L59.6,36 L29.8,36 Z" fill="none" stroke="currentColor" stroke-width="1.5"/></svg>