<svg xmlns="http://www.w3.org/2000/svg" viewBox="0 0 55.01 57.03" width="24" height="24"><path d="M27.5,0 C42.69,0 55.01,12.22 55.01,27.29 C55.01,42.35 42.7,54.57 27.5,54.57 C12.31,54.57 0,42.35 0,27.29 C0,12.22 12.31,0 27.5,0 Z" fill="none" stroke="currentColor" stroke-width="1.5"/><rect x="0" y="0" width="0" height="0" fill="none" stroke="currentColor"/><path d="M55.01,27.29 L55.01,29.75 C55.01,44.82 42.69,57.03 27.5,57.03 C12.31,57.03 0,44.82 0,29.75 L0,27.29 C0,42.35 12.31,54.57 27.5,54.57 C42.7,54.57 55.01,42.35 55.01,27.29 Z" fill="none" stroke="currentColor" stroke-width="1.5"/><rect x="0" y="0" width="0" height="0" fill="none" stroke="currentColor"/><path d="M55.01,27.29 L55.01,29.75 C55.01,31.14 54.91,32.5 54.71,33.82 L54.71,31.36 C54.91,30.03 55.01,28.67 55.01,27.29" fill="none" stroke="currentColor" stroke-width="1.5"/><path d="M54.71,31.36 L54.71,33.82 C54.47,35.37 54.11,36.89 53.62,38.34 L53.62,35.87 C54.11,34.42 54.47,32.91 54.71,31.36" fill="none" stroke="currentColor" stroke-width="1.5"/><path d="M53.62,35.87 L53.62,38.34 C53.05,40.05 52.31,41.69 51.42,43.24 L51.42,40.77 C52.31,39.23 53.05,37.59 53.62,35.87" fill="none" stroke="currentColor" stroke-width="1.5"/><path d="M51.42,40.77 L51.42,43.24 C46.69,51.48 37.75,57.03 27.5,57.03 C12.31,57.03 0,44.82 0,29.75 L0,27.29 C0,42.35 12.31,54.57 27.5,54.57 C37.75,54.57 46.69,49.01 51.42,40.77" fill="none" stroke="currentColor" stroke-width="1.5"/><ellipse cx="27.5" cy="27.27" rx="8.5" ry="8.5" fill="none" stroke="currentColor"/><rect x="0" y="0" width="0" height="0" fill="none" stroke="currentColor"/><ellipse cx="27.5" cy="27.270000000000003" rx="5.24" ry="5.24" fill="none" stroke="currentColor"/></svg>