<svg xmlns="http://www.w3.org/2000/svg" viewBox="0 0 52.35 56.89" width="24" height="24"><path d="M25.17,54.65 L0,54.65 L0,39.65 L25.17,39.65 L25.17,54.65 Z" fill="none" stroke="currentColor" stroke-width="1.5"/><rect x="0" y="54.65" width="25.17" height="2.24" fill="none" stroke="currentColor"/><rect x="28.35" y="39.65" width="24.01" height="15" fill="none" stroke="currentColor"/><rect x="28.35" y="54.65" width="24.01" height="2.24" fill="none" stroke="currentColor"/><path d="M25.17,35.2 L0,35.2 L0,20.39 L25.17,20.39 L25.17,35.2 Z" fill="none" stroke="currentColor" stroke-width="1.5"/><rect x="0" y="35.2" width="25.17" height="2.24" fill="none" stroke="currentColor"/><path d="M25.17,15.95 L0,15.95 L0,0 L25.17,0 L25.17,15.95 Z" fill="none" stroke="currentColor" stroke-width="1.5"/><rect x="0" y="15.95" width="25.17" height="2.24" fill="none" stroke="currentColor"/><rect x="28.35" y="20.39" width="24.01" height="14.8" fill="none" stroke="currentColor"/><rect x="28.35" y="35.2" width="24.01" height="2.24" fill="none" stroke="currentColor"/><rect x="28.35" y="0" width="24.01" height="15.95" fill="none" stroke="currentColor"/><rect x="28.35" y="15.95" width="24.01" height="2.24" fill="none" stroke="currentColor"/><ellipse cx="13.0" cy="8.335" rx="4.92" ry="4.885" fill="none" stroke="currentColor"/><ellipse cx="13.0" cy="27.665" rx="4.92" ry="4.885" fill="none" stroke="currentColor"/><path d="M17.92,47.21 C17.92,49.91 15.73,52.1 13,52.1 C10.29,52.1 8.08,49.91 8.08,47.21 C8.08,44.52 10.29,42.33 13,42.33 C15.73,42.33 17.92,44.52 17.92,47.21 Z" fill="none" stroke="currentColor" stroke-width="1.5"/></svg>