<svg xmlns="http://www.w3.org/2000/svg" viewBox="0 0 53.02 56.61" width="24" height="24"><rect x="23.64" y="0" width="29.38" height="9.43" fill="none" stroke="currentColor"/><rect x="23.64" y="9.43" width="29.38" height="2.49" fill="none" stroke="currentColor"/><rect x="11.5" y="14.37" width="8.6" height="11.1" fill="none" stroke="currentColor"/><rect x="11.5" y="25.46" width="8.6" height="2.49" fill="none" stroke="currentColor"/><rect x="11.5" y="30.41" width="8.6" height="9.41" fill="none" stroke="currentColor"/><rect x="11.5" y="39.83" width="8.6" height="2.49" fill="none" stroke="currentColor"/><rect x="11.5" y="44.77" width="8.6" height="9.35" fill="none" stroke="currentColor"/><rect x="11.5" y="54.11" width="8.6" height="2.5" fill="none" stroke="currentColor"/><rect x="23.64" y="14.37" width="29.38" height="11.1" fill="none" stroke="currentColor"/><rect x="23.64" y="25.46" width="29.38" height="2.49" fill="none" stroke="currentColor"/><rect x="23.64" y="44.77" width="29.38" height="9.35" fill="none" stroke="currentColor"/><rect x="23.64" y="54.11" width="29.38" height="2.5" fill="none" stroke="currentColor"/><rect x="23.64" y="30.41" width="29.38" height="9.41" fill="none" stroke="currentColor"/><rect x="23.64" y="39.83" width="29.38" height="2.49" fill="none" stroke="currentColor"/><rect x="11.5" y="0" width="8.6" height="9.43" fill="none" stroke="currentColor"/><rect x="11.5" y="9.43" width="8.6" height="2.49" fill="none" stroke="currentColor"/><rect x="0" y="14.37" width="8.6" height="11.1" fill="none" stroke="currentColor"/><rect x="0" y="25.46" width="8.6" height="2.49" fill="none" stroke="currentColor"/><rect x="0" y="30.41" width="8.6" height="9.41" fill="none" stroke="currentColor"/><rect x="0" y="39.83" width="8.6" height="2.49" fill="none" stroke="currentColor"/><rect x="0" y="44.77" width="8.6" height="9.35" fill="none" stroke="currentColor"/><rect x="0" y="54.11" width="8.6" height="2.5" fill="none" stroke="currentColor"/><rect x="0" y="0" width="8.6" height="9.43" fill="none" stroke="currentColor"/><rect x="0" y="9.43" width="8.6" height="2.49" fill="none" stroke="currentColor"/></svg>