<svg xmlns="http://www.w3.org/2000/svg" viewBox="0 0 52.52 57.07" width="24" height="24"><path d="M27.27,39.77 L52.52,39.77 L52.52,54.82 L27.27,54.82 L27.27,39.77 Z" fill="none" stroke="currentColor" stroke-width="1.5"/><rect x="27.27" y="54.82" width="25.25" height="2.25" fill="none" stroke="currentColor"/><rect x="0" y="39.77" width="24.08" height="15.04" fill="none" stroke="currentColor"/><rect x="0" y="54.82" width="24.08" height="2.25" fill="none" stroke="currentColor"/><path d="M27.27,20.46 L52.52,20.46 L52.52,35.31 L27.27,35.31 L27.27,20.46 Z" fill="none" stroke="currentColor" stroke-width="1.5"/><rect x="27.27" y="35.31" width="25.25" height="2.25" fill="none" stroke="currentColor"/><path d="M27.27,0 L52.52,0 L52.52,16 L27.27,16 L27.27,0 Z" fill="none" stroke="currentColor" stroke-width="1.5"/><rect x="27.27" y="16" width="25.25" height="2.25" fill="none" stroke="currentColor"/><rect x="0" y="20.46" width="24.08" height="14.85" fill="none" stroke="currentColor"/><rect x="0" y="35.31" width="24.08" height="2.25" fill="none" stroke="currentColor"/><rect x="0" y="0" width="24.08" height="16" fill="none" stroke="currentColor"/><rect x="0" y="16" width="24.08" height="2.25" fill="none" stroke="currentColor"/><ellipse cx="39.515" cy="8.370000000000001" rx="4.935" ry="4.9" fill="none" stroke="currentColor"/><ellipse cx="39.515" cy="27.75" rx="4.935" ry="4.9" fill="none" stroke="currentColor"/><ellipse cx="39.515" cy="47.365" rx="4.935" ry="4.905" fill="none" stroke="currentColor"/></svg>