<svg xmlns="http://www.w3.org/2000/svg" viewBox="0 0 53.33 65.0" width="24" height="24"><path d="M33.24,26.78 C37.27,26.52 40.94,26.04 44,25.38 C40.66,26.07 36.83,26.53 33.24,26.78 Z" fill="none" stroke="currentColor" stroke-width="1.5"/><path d="M44.51,22.38 C41.48,23.05 37.76,23.56 33.62,23.83 C38.27,23.54 41.82,23.01 44.51,22.38 Z" fill="none" stroke="currentColor" stroke-width="1.5"/><path d="M26.52,24.06 C19.99,24.06 14.02,23.5 9.45,22.57 C13.78,23.5 19.58,24.1 26.52,24.06 Z" fill="none" stroke="currentColor" stroke-width="1.5"/><path d="M26.65,26.98 C11.1,26.79 1.38,23.96 0.11,20.98 L0.13,21.04 C1.58,24.39 12.89,26.98 26.65,26.98 Z" fill="none" stroke="currentColor" stroke-width="1.5"/><path d="M0.09,20.93 C0.1,20.97 0.11,21.01 0.13,21.04 L0.11,20.98 C0.1,20.96 0.1,20.95 0.09,20.93 Z" fill="none" stroke="currentColor" stroke-width="1.5"/><path d="M0.06,20.84 C0.04,20.78 0.02,20.71 0,20.64 C0.02,20.71 0.04,20.78 0.06,20.84 Z" fill="none" stroke="currentColor" stroke-width="1.5"/><path d="M53.33,20.31 L53.32,20.34 L53.32,20.35 C53.32,20.34 53.33,20.33 53.33,20.31 Z" fill="none" stroke="currentColor" stroke-width="1.5"/><path d="M40.66,6.63 L40.66,6.78 L12.66,6.78 L12.66,6.63 L12.18,6.63 L12.18,11.36 L41.14,11.36 L41.14,6.63 Z" fill="none" stroke="currentColor" stroke-width="1.5"/><path d="M37.66,0 L15.66,0 L12.66,3 L40.66,3 Z" fill="none" stroke="currentColor" stroke-width="1.5"/><rect x="12.66" y="3" width="28" height="1.85" fill="none" stroke="currentColor"/><rect x="40.45" y="6.63" width="0.69" height="4.76" fill="none" stroke="currentColor"/><rect x="12.18" y="6.63" width="0.69" height="4.76" fill="none" stroke="currentColor"/><path d="M0.33,23.86 C0.22,23.63 0.16,23.4 0.16,23.16 L0.33,23.86 Z" fill="none" stroke="currentColor" stroke-width="1.5"/><path d="M53,23.86 L53.16,23.16 C53.16,23.4 53.11,23.63 53,23.86 Z" fill="none" stroke="currentColor" stroke-width="1.5"/><path d="M53.16,20.91 L53.16,23.16 L53,23.86 L53,21.6 Z" fill="none" stroke="currentColor" stroke-width="1.5"/><path d="M0.33,21.6 L0.33,23.86 L0.16,23.16 L0.16,20.91 Z" fill="none" stroke="currentColor" stroke-width="1.5"/><path d="M53.16,16.61 L53.16,18.86 C53.16,18.94 53.15,19.02 53.14,19.1 L53.14,16.85 C53.15,16.77 53.16,16.69 53.16,16.61" fill="none" stroke="currentColor" stroke-width="1.5"/><path d="M53.14,16.85 L53.14,19.1 C53.13,19.2 53.1,19.29 53.07,19.39 L53.07,17.13 C53.1,17.04 53.13,16.95 53.14,16.85" fill="none" stroke="currentColor" stroke-width="1.5"/><path d="M53.07,17.13 L53.07,19.39 C53.02,19.52 52.96,19.65 52.88,19.78 L52.88,17.52 C52.96,17.4 53.02,17.27 53.07,17.13" fill="none" stroke="currentColor" stroke-width="1.5"/><path d="M52.88,17.52 L52.88,19.78 C51,22.79 39.98,25.09 26.66,25.09 C12.03,25.09 0.16,22.31 0.16,18.86 L0.16,16.61 C0.16,20.06 12.03,22.83 26.66,22.83 C39.98,22.84 51,20.54 52.88,17.52" fill="none" stroke="currentColor" stroke-width="1.5"/><path d="M53.16,16.61 L53.16,18.86 C53.16,22.31 41.3,25.09 26.66,25.09 C12.03,25.09 0.16,22.31 0.16,18.86 L0.16,16.61 C0.16,20.06 12.03,22.84 26.66,22.84 C41.3,22.84 53.16,20.06 53.16,16.61 Z" fill="none" stroke="currentColor" stroke-width="1.5"/><path d="M26.66,10.38 C41.3,10.38 53.16,13.17 53.16,16.61 C53.16,20.06 41.3,22.84 26.66,22.84 C12.03,22.84 0.16,20.06 0.16,16.61 C0.16,13.17 12.03,10.38 26.66,10.38 Z" fill="none" stroke="currentColor" stroke-width="1.5"/><path d="M53,21.6 L53,23.86 L44.33,60.85 L44.33,58.6 Z" fill="none" stroke="currentColor" stroke-width="1.5"/><path d="M9,58.6 L9,60.85 L0.33,23.86 L0.33,21.6 Z" fill="none" stroke="currentColor" stroke-width="1.5"/><path d="M44.33,58.6 L44.33,60.85 C44.33,60.91 44.33,60.97 44.32,61.02 L44.32,58.76 C44.33,58.71 44.33,58.66 44.33,58.6" fill="none" stroke="currentColor" stroke-width="1.5"/><path d="M44.32,58.76 L44.32,61.02 C44.31,61.08 44.29,61.15 44.27,61.21 L44.27,58.96 C44.29,58.89 44.31,58.83 44.32,58.76" fill="none" stroke="currentColor" stroke-width="1.5"/><path d="M44.27,58.95 L44.27,61.21 C44.24,61.29 44.19,61.38 44.14,61.47 L44.14,59.21 C44.19,59.13 44.24,59.04 44.27,58.95" fill="none" stroke="currentColor" stroke-width="1.5"/><path d="M44.14,59.21 L44.14,61.47 C42.89,63.47 35.54,65 26.66,65 C16.9,65 9,63.15 9,60.85 L9,58.6 C9,60.9 16.9,62.75 26.66,62.75 C35.54,62.75 42.89,61.22 44.14,59.21" fill="none" stroke="currentColor" stroke-width="1.5"/><path d="M44.33,58.6 L44.33,60.85 C44.33,63.15 36.42,65 26.66,65 C16.9,65 9,63.15 9,60.85 L9,58.6 C9,60.9 16.9,62.75 26.66,62.75 C36.42,62.75 44.33,60.9 44.33,58.6 Z" fill="none" stroke="currentColor" stroke-width="1.5"/><path d="M26.66,27.13 C40.3,27.13 51.54,24.72 53,21.6 L44.33,58.6 C44.33,60.9 36.42,62.75 26.66,62.75 C16.9,62.75 9,60.9 9,58.6 L0.33,21.6 C1.79,24.72 13.02,27.13 26.66,27.13 Z" fill="none" stroke="currentColor" stroke-width="1.5"/></svg>