<svg xmlns="http://www.w3.org/2000/svg" viewBox="0 0 53.23 56.86" width="24" height="24"><path d="M53.23,49.15 L53.23,52.13 C53.23,52.36 53.21,52.59 53.18,52.81 L53.18,49.83 C53.21,49.61 53.23,49.39 53.23,49.15" fill="none" stroke="currentColor" stroke-width="1.5"/><path d="M53.18,49.83 L53.18,52.81 C53.14,53.07 53.08,53.33 53,53.57 L53,50.6 C53.08,50.35 53.14,50.1 53.18,49.83" fill="none" stroke="currentColor" stroke-width="1.5"/><path d="M53,50.6 L53,53.57 C52.91,53.86 52.79,54.14 52.64,54.4 L52.64,51.43 C52.79,51.17 52.91,50.89 53,50.6" fill="none" stroke="currentColor" stroke-width="1.5"/><path d="M52.64,51.43 L52.64,54.4 C51.83,55.87 50.26,56.86 48.46,56.86 L48.46,53.89 C50.26,53.89 51.83,52.9 52.64,51.43" fill="none" stroke="currentColor" stroke-width="1.5"/><path d="M53.23,49.15 L53.23,52.13 C53.23,54.75 51.09,56.86 48.46,56.86 L46.88,52.99 C49.52,52.99 53.23,51.77 53.23,49.15 Z" fill="none" stroke="currentColor" stroke-width="1.5"/><path d="M4.77,53.89 L4.77,56.86 C2.13,56.86 0,54.75 0,52.13 L0,49.15 C0,51.77 2.13,53.89 4.77,53.89" fill="none" stroke="currentColor" stroke-width="1.5"/><path d="M4.77,53.89 L4.77,56.86 C2.13,56.86 0,54.75 0,52.13 L0,49.15 C0,51.77 2.13,53.89 4.77,53.89 Z" fill="none" stroke="currentColor" stroke-width="1.5"/><path d="M48.46,53.89 L48.46,56.86 L4.77,56.86 L3.38,53.15 Z" fill="none" stroke="currentColor" stroke-width="1.5"/><path d="M48.46,0 C51.1,0 53.23,2.11 53.23,4.73 L53.23,49.15 C53.23,51.77 51.1,53.89 48.46,53.89 L4.77,53.89 C2.13,53.89 0,51.77 0,49.15 L0,4.74 C0,2.11 2.13,0 4.77,0 L48.46,0 Z" fill="none" stroke="currentColor" stroke-width="1.5"/><rect x="27.72" y="33.37" width="5.68" height="11.28" fill="none" stroke="currentColor"/><rect x="34.68" y="27.57" width="5.69" height="17.08" fill="none" stroke="currentColor"/><rect x="41.65" y="37.22" width="5.69" height="7.43" fill="none" stroke="currentColor"/><path d="M46.93,45.49 L28.08,45.49 L27.26,45.49 L27.26,46.31 L27.26,47.74 L27.26,48.55 L28.08,48.55 L46.93,48.55 L47.75,48.55 L47.75,47.74 L47.75,46.31 L47.75,45.49 Z" fill="none" stroke="currentColor" stroke-width="1.5"/></svg>