<svg xmlns="http://www.w3.org/2000/svg" viewBox="0 0 52.85 56.94" width="24" height="24"><path d="M52.85,4 L52.85,6.61" fill="none" stroke="currentColor" stroke-width="1.5"/><path d="M28.68,24.96 L28.68,27.57 C28.63,27.66 28.58,27.76 28.55,27.85 L28.55,25.24 C28.58,25.15 28.63,25.06 28.68,24.96" fill="none" stroke="currentColor" stroke-width="1.5"/><path d="M28.55,25.24 L28.55,27.85 C28.54,27.9 28.53,27.94 28.51,27.99 L28.51,25.38 C28.53,25.34 28.54,25.29 28.55,25.24" fill="none" stroke="currentColor" stroke-width="1.5"/><path d="M52.53,26.27 C48.79,25.03 44.7,24.87 41.22,24.87 C36.14,24.87 29.72,26.03 28.48,27.76 L28.43,25.38 C28.89,23.29 34.88,21.51 40.16,21.51 C41.95,21.51 49.98,22.32 52.55,23.65" fill="none" stroke="currentColor" stroke-width="1.5"/><path d="M42.02,27.24 C44.21,27.24 46.08,27.41 47.62,27.66 C50.92,28.21 52.66,29.14 52.66,29.72 C52.66,30.3 50.92,31.24 47.62,31.77 C46.08,32.03 44.21,32.19 42.02,32.19 C35.12,32.19 31.37,30.56 31.37,29.72 C31.37,28.88 35.12,27.24 42.02,27.24 Z" fill="none" stroke="currentColor" stroke-width="1.5"/><path d="M52.66,29.72 L52.66,32.52 C52.66,32.54 52.66,32.55 52.66,32.57 L52.66,29.77 C52.66,29.75 52.66,29.74 52.66,29.72" fill="none" stroke="currentColor" stroke-width="1.5"/><path d="M52.66,29.77 L52.66,32.57 C52.66,32.59 52.65,32.61 52.64,32.63 L52.64,29.82 C52.65,29.8 52.66,29.78 52.66,29.77" fill="none" stroke="currentColor" stroke-width="1.5"/><path d="M52.65,29.82 L52.65,32.63 C52.64,32.65 52.62,32.68 52.61,32.71 L52.61,29.91 C52.62,29.88 52.64,29.85 52.65,29.82" fill="none" stroke="currentColor" stroke-width="1.5"/><path d="M52.61,29.91 L52.61,32.71 C52.29,33.29 50.58,34.09 47.62,34.57 C46.08,34.83 44.21,34.99 42.02,34.99 C35.12,34.99 31.37,33.36 31.37,32.52 L31.37,29.72 C31.37,30.56 35.12,32.19 42.02,32.19 C44.21,32.19 46.08,32.03 47.62,31.77 C50.58,31.29 52.29,30.49 52.61,29.91" fill="none" stroke="currentColor" stroke-width="1.5"/><path d="M52.66,29.72 L52.66,32.52 C52.66,33.1 50.92,34.04 47.62,34.57 C46.07,34.83 44.21,34.99 42.02,34.99 C35.12,34.99 31.37,33.36 31.37,32.52 L31.37,29.72 C31.37,30.56 35.12,32.19 42.02,32.19 C44.21,32.19 46.07,32.03 47.62,31.77 C50.92,31.24 52.66,30.3 52.66,29.72 Z" fill="none" stroke="currentColor" stroke-width="1.5"/><path d="M31.39,50.09 C31.49,50.63 34.21,51.07 35.53,51.72 L33.74,55.83 C32.07,55.27 31.58,54.91 31.37,54.59" fill="none" stroke="currentColor" stroke-width="1.5"/><path d="M52.84,51.67 L52.84,54.47 C52.84,54.49 52.84,54.51 52.83,54.53 L52.83,51.73 C52.84,51.71 52.84,51.69 52.84,51.67" fill="none" stroke="currentColor" stroke-width="1.5"/><path d="M52.83,51.73 L52.83,54.53 C52.83,54.55 52.82,54.58 52.81,54.61 L52.81,51.8 C52.82,51.78 52.83,51.75 52.83,51.73" fill="none" stroke="currentColor" stroke-width="1.5"/><path d="M52.82,51.8 L52.82,54.61 C52.8,54.64 52.79,54.68 52.76,54.72 L52.76,51.92 C52.79,51.88 52.8,51.84 52.82,51.8" fill="none" stroke="currentColor" stroke-width="1.5"/><path d="M52.76,51.9 L52.76,54.7 C52.26,55.59 49.21,56.91 42.71,56.91 C38.8,56.91 35.64,56.41 33.71,55.84 L33.02,52.11 C34.94,52.67 38.8,54.12 42.71,54.12 C49.21,54.11 52.26,52.79 52.76,51.9" fill="none" stroke="currentColor" stroke-width="1.5"/><path d="M52.84,51.67 L52.84,54.47 C52.84,55.34 49.87,56.94 42.71,56.94 C38.8,56.94 35.85,56.48 33.71,55.82 L33.71,53.02 C35.85,53.68 38.8,54.14 42.71,54.14 C49.87,54.14 52.84,52.53 52.84,51.67 Z" fill="none" stroke="currentColor" stroke-width="1.5"/><path d="M4.17,52.95 L4.17,55.56 C1.96,55.56 0.15,53.77 0.03,51.56 L0.03,48.95 C0.16,51.17 1.96,52.95 4.17,52.95 Z" fill="none" stroke="currentColor" stroke-width="1.5"/><path d="M30.03,52.93 L30.03,55.53 L3.99,55.56 L3.99,52.95 Z" fill="none" stroke="currentColor" stroke-width="1.5"/><path d="M52.57,23.98 C48.76,22.65 42.51,22.61 40.72,22.63 C35.5,22.7 29.56,23.94 28.56,25.48 L28.52,25.79 L28.54,26.74 L28.52,51.57 C28.52,52.03 29.48,52.52 29.89,52.93 L4.02,52.95 C1.8,52.95 0,51.17 0,48.95 L0,3.99 C0,1.79 1.8,0 4.02,0 L48.7,0 C50.92,0 52.72,1.79 52.72,4" fill="none" stroke="currentColor" stroke-width="1.5"/><path d="M52.85,34.57 L52.84,51.67 C52.84,52.53 49.87,54.14 42.71,54.14 C38.8,54.14 35.85,53.68 33.93,53.11 C32.5,52.65 31.5,52.13 31.38,51.74 L31.38,34.73 C33.46,36.02 37.75,36.7 42.02,36.7 L42.29,36.7 C42.74,36.68 43.16,36.68 43.6,36.67 L43.78,36.65 C44.15,36.64 44.5,36.62 44.87,36.59 C45.06,36.58 45.23,36.57 45.41,36.55 C45.69,36.52 45.97,36.51 46.25,36.48 C46.41,36.45 46.55,36.44 46.7,36.41 C47.01,36.38 47.3,36.34 47.6,36.29 C49.93,35.92 51.73,35.29 52.85,34.57 Z" fill="none" stroke="currentColor" stroke-width="1.5"/></svg>