<svg xmlns="http://www.w3.org/2000/svg" viewBox="0 0 52.85 56.65" width="24" height="24"><path d="M43.78,0 C48.8,0 52.85,4.04 52.85,9.01 L52.85,44.5 C52.85,49.47 48.8,53.51 43.78,53.51 L9.08,53.51 C4.07,53.51 0,49.47 0,44.5 L0,9.01 C0,4.04 4.07,0 9.08,0 L43.78,0 Z" fill="none" stroke="currentColor" stroke-width="1.5"/><path d="M52.85,44.5 L52.85,47.64 C52.85,48.08 52.81,48.51 52.75,48.93 L52.75,45.79 C52.81,45.37 52.85,44.93 52.85,44.5" fill="none" stroke="currentColor" stroke-width="1.5"/><path d="M52.75,45.79 L52.75,48.93 C52.68,49.43 52.57,49.92 52.42,50.39 L52.42,47.24 C52.57,46.77 52.68,46.29 52.75,45.79" fill="none" stroke="currentColor" stroke-width="1.5"/><path d="M52.42,47.24 L52.42,50.39 C52.24,50.94 52.01,51.47 51.73,51.98 L51.73,48.83 C52.01,48.33 52.24,47.8 52.42,47.24" fill="none" stroke="currentColor" stroke-width="1.5"/><path d="M51.73,48.83 L51.73,51.97 C50.19,54.76 47.21,56.65 43.78,56.65 L43.78,53.51 C47.21,53.51 50.19,51.62 51.73,48.83" fill="none" stroke="currentColor" stroke-width="1.5"/><path d="M52.85,44.5 L52.85,47.64 C52.85,52.62 48.8,56.65 43.78,56.65 L43.78,53.51 C48.8,53.51 52.85,49.47 52.85,44.5 Z" fill="none" stroke="currentColor" stroke-width="1.5"/><rect x="8.71" y="53.51" width="35.14" height="3.14" fill="none" stroke="currentColor"/><path d="M9.46,53.51 L9.46,56.65 C4.44,56.65 0,52.62 0,47.64 L0,44.5 C0,49.47 4.07,53.51 9.08,53.51" fill="none" stroke="currentColor" stroke-width="1.5"/><path d="M9.08,53.51 L9.08,56.65 C4.07,56.65 0,52.62 0,47.64 L0,44.5 C0,49.47 4.07,53.51 9.08,53.51 Z" fill="none" stroke="currentColor" stroke-width="1.5"/></svg>