<svg xmlns="http://www.w3.org/2000/svg" viewBox="0 0 60.9 63.3" width="24" height="24"><ellipse cx="30.4" cy="32.9" rx="30.4" ry="30.4" fill="none" stroke="currentColor"/><rect x="0" y="30.4" width="60.9" height="2.5" fill="none" stroke="currentColor"/><ellipse cx="30.4" cy="30.4" rx="30.4" ry="30.4" fill="none" stroke="currentColor"/><path d="M32.4,27.1 L28.4,27.1 L26.3,9 L34.5,9 Z" fill="none" stroke="currentColor" stroke-width="1.5"/><path d="M48,40.4 L49.6,39.1 L43.9,30.6 L31.4,26.3 L30.4,33.2 L41.6,34.2 Z" fill="none" stroke="currentColor" stroke-width="1.5"/><path d="M12.8,40.4 L11.2,39.1 L16.9,30.6 L29.4,26.3 L30.4,33.2 L19.2,34.2 Z" fill="none" stroke="currentColor" stroke-width="1.5"/><ellipse cx="30.4" cy="9.0" rx="5.6" ry="5.6" fill="none" stroke="currentColor"/><rect x="0" y="0" width="0" height="0" fill="none" stroke="currentColor"/><ellipse cx="30.4" cy="9.0" rx="1.9" ry="1.9" fill="none" stroke="currentColor"/><ellipse cx="30.4" cy="29.700000000000003" rx="4.1" ry="4.1" fill="none" stroke="currentColor"/><rect x="0" y="0" width="0" height="0" fill="none" stroke="currentColor"/><ellipse cx="30.400000000000002" cy="29.7" rx="1.3" ry="1.3" fill="none" stroke="currentColor"/><rect x="17.3" y="39" width="26.3" height="14.5" fill="none" stroke="currentColor"/><path d="M19.6,40.2 L19.6,52.4" fill="none" stroke="currentColor" stroke-width="1.5"/><path d="M23.2,40.2 L23.2,52.4" fill="none" stroke="currentColor" stroke-width="1.5"/><path d="M26.8,40.2 L26.8,52.4" fill="none" stroke="currentColor" stroke-width="1.5"/><path d="M30.4,40.2 L30.4,52.4" fill="none" stroke="currentColor" stroke-width="1.5"/><path d="M34,40.2 L34,52.4" fill="none" stroke="currentColor" stroke-width="1.5"/><path d="M37.6,40.2 L37.6,52.4" fill="none" stroke="currentColor" stroke-width="1.5"/><path d="M41.2,40.2 L41.2,52.4" fill="none" stroke="currentColor" stroke-width="1.5"/></svg>