<svg xmlns="http://www.w3.org/2000/svg" viewBox="0 0 59.63 72.0" width="24" height="24"><path d="M9.96,56.95 L2.99,58.54 L2.99,13.41 L9.96,15 Z" fill="none" stroke="currentColor" stroke-width="1.5"/><path d="M18.65,59.62 L9.96,62.09 L9.96,9.93 L18.65,12.39 Z" fill="none" stroke="currentColor" stroke-width="1.5"/><path d="M29.81,62.35 L18.65,66.44 L18.65,5.58 L29.81,9.66 Z" fill="none" stroke="currentColor" stroke-width="1.5"/><path d="M59.63,57.09 L29.81,72 L29.81,0 L59.63,14.91 Z" fill="none" stroke="currentColor" stroke-width="1.5"/><path d="M23.86,2.97 L29.81,0 L29.81,72 L23.86,69.03 Z" fill="none" stroke="currentColor" stroke-width="1.5"/><path d="M14.05,7.88 L18.65,5.58 L18.65,66.42 L14.05,64.12 Z" fill="none" stroke="currentColor" stroke-width="1.5"/><path d="M6.29,11.76 L9.96,9.92 L9.96,62.08 L6.29,60.24 Z" fill="none" stroke="currentColor" stroke-width="1.5"/><path d="M2.99,13.41 L0,14.9 L0,57.1 L2.99,58.59 Z" fill="none" stroke="currentColor" stroke-width="1.5"/></svg>