<svg xmlns="http://www.w3.org/2000/svg" viewBox="0 0 59.81 72.0" width="24" height="24"><path d="M59.81,42.31 L51.47,43.55 L51.47,61.22 L59.81,57.06 Z" fill="none" stroke="currentColor" stroke-width="1.5"/><path d="M24.48,26.18 L13.96,24.85 L13.96,38.69 L24.48,38.37 Z" fill="none" stroke="currentColor" stroke-width="1.5"/><path d="M7.22,26.13 L13.96,24.78 L13.96,38.69 L7.22,38.37 Z" fill="none" stroke="currentColor" stroke-width="1.5"/><path d="M35.23,26.18 L45.75,24.85 L45.75,38.69 L35.23,38.37 Z" fill="none" stroke="currentColor" stroke-width="1.5"/><path d="M40.6,23.75 L29.86,21.6 L29.86,39.46 L40.6,38.94 Z" fill="none" stroke="currentColor" stroke-width="1.5"/><path d="M52.49,26.13 L45.75,24.78 L45.75,38.69 L52.49,38.37 Z" fill="none" stroke="currentColor" stroke-width="1.5"/><path d="M38.78,4.46 L29.86,0 L29.86,14.4 L38.78,17.08 Z" fill="none" stroke="currentColor" stroke-width="1.5"/><path d="M19.11,23.75 L29.86,21.6 L29.86,39.46 L19.11,38.94 Z" fill="none" stroke="currentColor" stroke-width="1.5"/><path d="M20.93,4.46 L29.86,0 L29.86,14.4 L20.93,17.08 Z" fill="none" stroke="currentColor" stroke-width="1.5"/><path d="M38.78,17.08 L29.86,19.16 L20.93,17.08 L29.86,14.4 Z" fill="none" stroke="currentColor" stroke-width="1.5"/><path d="M36.48,42.34 L51.47,43.55 L59.81,42.31 L45.82,41.44 Z" fill="none" stroke="currentColor" stroke-width="1.5"/><path d="M36.48,42.34 L51.47,43.55 L51.47,61.22 L36.48,57.19 Z" fill="none" stroke="currentColor" stroke-width="1.5"/><path d="M45.75,44.4 L29.86,46.76 L29.86,72 L45.75,64.07 Z" fill="none" stroke="currentColor" stroke-width="1.5"/><path d="M0,42.31 L8.35,43.55 L8.35,61.22 L0,57.06 Z" fill="none" stroke="currentColor" stroke-width="1.5"/><path d="M23.33,42.34 L8.35,43.55 L0,42.31 L14,41.44 Z" fill="none" stroke="currentColor" stroke-width="1.5"/><path d="M23.33,42.34 L8.35,43.55 L8.35,61.22 L23.33,57.19 Z" fill="none" stroke="currentColor" stroke-width="1.5"/><path d="M14.07,44.4 L29.96,46.76 L29.96,72 L14.07,64.07 Z" fill="none" stroke="currentColor" stroke-width="1.5"/><path d="M45.75,44.4 L29.91,42.89 L14.07,44.4 L29.91,46.75 Z" fill="none" stroke="currentColor" stroke-width="1.5"/></svg>