<svg xmlns="http://www.w3.org/2000/svg" viewBox="0 0 68.2 82.4" width="24" height="24"><path d="M56.8,62.8 L21.3,75.8 L21.3,6.4 L56.8,19.4 Z" fill="none" stroke="currentColor" stroke-width="1.5"/><path d="M11.4,65.2 L3.4,67 L3.4,15.4 L11.4,17.2 Z" fill="none" stroke="currentColor" stroke-width="1.5"/><path d="M21.3,68.2 L11.4,71 L11.4,11.4 L21.3,14.2 Z" fill="none" stroke="currentColor" stroke-width="1.5"/><path d="M16.1,9 L21.3,6.4 L21.3,76 L16.1,73.4 Z" fill="none" stroke="currentColor" stroke-width="1.5"/><path d="M7.2,13.5 L11.4,11.4 L11.4,71 L7.2,68.9 Z" fill="none" stroke="currentColor" stroke-width="1.5"/><path d="M3.4,15.4 L0,17.1 L0,65.3 L3.4,67 Z" fill="none" stroke="currentColor" stroke-width="1.5"/><path d="M34.1,32.9 L34.1,0 L27.3,3.4 L27.3,33.6 Z" fill="none" stroke="currentColor" stroke-width="1.5"/><path d="M27.3,48.6 L27.3,79 L34.1,82.4 L34.1,49.3 Z" fill="none" stroke="currentColor" stroke-width="1.5"/><path d="M52.3,34.7 L52.3,9.1 L34.1,0 L34.1,32.9 Z" fill="none" stroke="currentColor" stroke-width="1.5"/><path d="M34.1,49.3 L34.1,82.4 L52.3,73.3 L52.3,47.5 Z" fill="none" stroke="currentColor" stroke-width="1.5"/><path d="M68.2,36.3 L68.2,17.1 L58.5,12.2 L58.5,35.3 Z" fill="none" stroke="currentColor" stroke-width="1.5"/><path d="M58.5,46.9 L58.5,70.2 L68.2,65.3 L68.2,45.9 Z" fill="none" stroke="currentColor" stroke-width="1.5"/><path d="M52.3,34.7 L45.6,35.1 L27.3,33.6 L34.1,32.9 Z" fill="none" stroke="currentColor" stroke-width="1.5"/><path d="M52.3,47.5 L46,47.1 L27.3,48.6 L33.8,49.3 Z" fill="none" stroke="currentColor" stroke-width="1.5"/><path d="M54.2,13.3 L58.5,12.2 L58.5,35.3 L54.2,35.6 Z" fill="none" stroke="currentColor" stroke-width="1.5"/><path d="M54.2,69.1 L58.5,70.2 L58.5,46.9 L54.2,46.6 Z" fill="none" stroke="currentColor" stroke-width="1.5"/><path d="M68.2,45.9 L64.3,45.7 L54.2,46.6 L58.5,46.9 Z" fill="none" stroke="currentColor" stroke-width="1.5"/><path d="M68.2,36.3 L64.3,36.5 L54.2,35.6 L58.5,35.3 Z" fill="none" stroke="currentColor" stroke-width="1.5"/></svg>