<svg xmlns="http://www.w3.org/2000/svg" viewBox="0 0 52.71 55.98" width="24" height="24"><path d="M52.71,45.87 L52.71,48.49 C52.71,48.85 52.68,49.21 52.63,49.56 L52.63,46.95 C52.68,46.6 52.71,46.24 52.71,45.87" fill="none" stroke="currentColor" stroke-width="1.5"/><path d="M52.63,46.95 L52.63,49.56 C52.57,49.97 52.48,50.38 52.35,50.77 L52.35,48.15 C52.48,47.76 52.57,47.36 52.63,46.95" fill="none" stroke="currentColor" stroke-width="1.5"/><path d="M52.35,48.15 L52.35,50.77 C52.21,51.23 52.01,51.67 51.78,52.08 L51.78,49.47 C52.01,49.05 52.21,48.61 52.35,48.15" fill="none" stroke="currentColor" stroke-width="1.5"/><path d="M52.71,45.87 L52.71,48.49 C52.71,52.63 49.33,55.98 45.16,55.98 L45.16,53.37 C49.33,53.37 52.71,50.01 52.71,45.87 Z" fill="none" stroke="currentColor" stroke-width="1.5"/><path d="M46.3,52.57 L45.16,55.98 L7.54,55.98 L7.54,53.37 Z" fill="none" stroke="currentColor" stroke-width="1.5"/><path d="M7.54,53.37 L7.54,55.98 C3.37,55.98 0,52.63 0,48.49 L0,45.87 C0,50.01 3.37,53.37 7.54,53.37 Z" fill="none" stroke="currentColor" stroke-width="1.5"/><path d="M45.16,0 C49.33,0 52.71,3.34 52.71,7.48 L52.71,45.87 C52.71,50.01 49.33,53.37 45.16,53.37 L7.54,53.37 C3.37,53.37 0,50.01 0,45.87 L0,7.48 C0,3.34 3.37,0 7.54,0 L45.16,0 Z" fill="none" stroke="currentColor" stroke-width="1.5"/><path d="M45.35,18.04 L45.35,14.04 L40.35,14.04 L40.35,9.04 L36.35,9.04 L36.35,14.04 L34.35,14.04 L34.35,9.04 L30.35,9.04 L30.35,14.04 L28.35,14.04 L28.35,9.04 L24.35,9.04 L24.35,14.04 L22.35,14.04 L22.35,9.04 L18.35,9.04 L18.35,14.04 L16.35,14.04 L16.35,9.04 L12.35,9.04 L12.35,14.04 L7.35,14.04 L7.35,18.04 L12.35,18.04 L12.35,20.04 L7.35,20.04 L7.35,24.04 L12.35,24.04 L12.35,26.04 L7.35,26.04 L7.35,30.04 L12.35,30.04 L12.35,32.04 L7.35,32.04 L7.35,36.04 L12.35,36.04 L12.35,38.04 L7.35,38.04 L7.35,42.04 L12.35,42.04 L12.35,47.04 L16.35,47.04 L16.35,42.04 L18.35,42.04 L18.35,47.04 L22.35,47.04 L22.35,42.04 L24.35,42.04 L24.35,47.04 L28.35,47.04 L28.35,42.04 L30.35,42.04 L30.35,47.04 L34.35,47.04 L34.35,42.04 L36.35,42.04 L36.35,47.04 L40.35,47.04 L40.35,42.04 L45.35,42.04 L45.35,38.04 L40.35,38.04 L40.35,36.04 L45.35,36.04 L45.35,32.04 L40.35,32.04 L40.35,30.04 L45.35,30.04 L45.35,26.04 L40.35,26.04 L40.35,24.04 L45.35,24.04 L45.35,20.04 L40.35,20.04 L40.35,18.04 Z" fill="none" stroke="currentColor" stroke-width="1.5"/><path d="M17.47,19.8 L22.58,19.8 L26.43,31.07 L26.48,31.07 L30.13,19.8 L35.23,19.8 L35.23,36.18 L31.84,36.18 L31.84,24.58 L31.79,24.58 L27.75,36.18 L24.95,36.18 L20.91,24.69 L20.87,24.69 L20.87,36.18 L17.47,36.18 L17.47,19.8 Z" fill="none" stroke="currentColor" stroke-width="1.5"/></svg>