<svg xmlns="http://www.w3.org/2000/svg" viewBox="0 0 59.4 82.4" width="24" height="24"><path d="M39.9,41.2 L29.7,41.2 L29.7,82.4 L39.9,77.3 Z" fill="none" stroke="currentColor" stroke-width="1.5"/><path d="M54.2,12.3 L59.4,14.9 L59.4,30.7 L54.2,29.6 Z" fill="none" stroke="currentColor" stroke-width="1.5"/><path d="M44.1,7.2 L29.7,0 L29.7,41.2 L44.1,41.2 Z" fill="none" stroke="currentColor" stroke-width="1.5"/><path d="M35.2,31.7 L54.2,29.6 L54.2,12.3 L35.2,17.4 Z" fill="none" stroke="currentColor" stroke-width="1.5"/><path d="M59.4,30.7 L41.2,32.4 L35.2,31.7 L54,29.6 Z" fill="none" stroke="currentColor" stroke-width="1.5"/><path d="M19.5,41.2 L29.7,41.2 L29.7,0 L19.5,5.1 Z" fill="none" stroke="currentColor" stroke-width="1.5"/><path d="M5.2,70.1 L0,67.5 L0,51.7 L5.2,52.8 Z" fill="none" stroke="currentColor" stroke-width="1.5"/><path d="M15.3,75.2 L29.7,82.4 L29.7,41.2 L15.3,41.2 Z" fill="none" stroke="currentColor" stroke-width="1.5"/><path d="M24.2,50.7 L5.2,52.8 L5.2,70.1 L24.2,65 Z" fill="none" stroke="currentColor" stroke-width="1.5"/><path d="M0,51.7 L18.2,50 L24.2,50.7 L5.4,52.8 Z" fill="none" stroke="currentColor" stroke-width="1.5"/></svg>