<svg xmlns="http://www.w3.org/2000/svg" viewBox="0 0 52.71 55.99" width="24" height="24"><path d="M52.71,45.88 L52.71,48.49 C52.71,48.85 52.68,49.21 52.63,49.56 L52.63,46.95 C52.68,46.6 52.71,46.24 52.71,45.88" fill="none" stroke="currentColor" stroke-width="1.5"/><path d="M52.63,46.95 L52.63,49.56 C52.57,49.98 52.48,50.38 52.35,50.77 L52.35,48.16 C52.48,47.76 52.57,47.36 52.63,46.95" fill="none" stroke="currentColor" stroke-width="1.5"/><path d="M52.35,48.16 L52.35,50.77 C52.21,51.23 52.01,51.67 51.78,52.08 L51.78,49.47 C52.01,49.05 52.21,48.61 52.35,48.16" fill="none" stroke="currentColor" stroke-width="1.5"/><path d="M52.71,45.88 L52.71,48.49 C52.71,52.63 49.33,55.98 45.16,55.98 L45.16,53.37 C49.33,53.37 52.71,50.01 52.71,45.88 Z" fill="none" stroke="currentColor" stroke-width="1.5"/><path d="M46.3,52.57 L45.16,55.99 L7.54,55.99 L7.54,53.37 Z" fill="none" stroke="currentColor" stroke-width="1.5"/><path d="M7.54,53.37 L7.54,55.99 C3.37,55.99 0,52.63 0,48.49 L0,45.88 C0,50.01 3.37,53.37 7.54,53.37 Z" fill="none" stroke="currentColor" stroke-width="1.5"/><path d="M45.16,0 C49.33,0 52.71,3.34 52.71,7.48 L52.71,45.88 C52.71,50.01 49.33,53.37 45.16,53.37 L7.54,53.37 C3.37,53.37 0,50.01 0,45.88 L0,7.48 C0,3.34 3.37,0 7.54,0 L45.16,0 Z" fill="none" stroke="currentColor" stroke-width="1.5"/><path d="M44.98,18.27 L44.98,14.27 L39.98,14.27 L39.98,9.27 L35.98,9.27 L35.98,14.27 L33.98,14.27 L33.98,9.27 L29.98,9.27 L29.98,14.27 L27.98,14.27 L27.98,9.27 L23.98,9.27 L23.98,14.27 L21.98,14.27 L21.98,9.27 L17.98,9.27 L17.98,14.27 L15.98,14.27 L15.98,9.27 L11.98,9.27 L11.98,14.27 L6.98,14.27 L6.98,18.27 L11.98,18.27 L11.98,20.27 L6.98,20.27 L6.98,24.27 L11.98,24.27 L11.98,26.27 L6.98,26.27 L6.98,30.27 L11.98,30.27 L11.98,32.27 L6.98,32.27 L6.98,36.27 L11.98,36.27 L11.98,38.27 L6.98,38.27 L6.98,42.27 L11.98,42.27 L11.98,47.27 L15.98,47.27 L15.98,42.27 L17.98,42.27 L17.98,47.27 L21.98,47.27 L21.98,42.27 L23.98,42.27 L23.98,47.27 L27.98,47.27 L27.98,42.27 L29.98,42.27 L29.98,47.27 L33.98,47.27 L33.98,42.27 L35.98,42.27 L35.98,47.27 L39.98,47.27 L39.98,42.27 L44.98,42.27 L44.98,38.27 L39.98,38.27 L39.98,36.27 L44.98,36.27 L44.98,32.27 L39.98,32.27 L39.98,30.27 L44.98,30.27 L44.98,26.27 L39.98,26.27 L39.98,24.27 L44.98,24.27 L44.98,20.27 L39.98,20.27 L39.98,18.27 Z" fill="none" stroke="currentColor" stroke-width="1.5"/><path d="M18.7,19.17 L28.28,19.17 C31.47,19.17 33.48,21.37 33.48,24.04 C33.48,26.12 32.63,27.67 30.67,28.46 L30.67,28.51 C32.59,29.01 33.13,30.86 33.26,32.64 C33.33,33.75 33.31,35.83 34,36.82 L30.1,36.82 C29.62,35.7 29.67,34 29.47,32.59 C29.2,30.74 28.48,29.92 26.51,29.92 L22.61,29.92 L22.61,36.82 L18.7,36.82 L18.7,19.17 Z M22.61,27.15 L26.89,27.15 C28.63,27.15 29.58,26.41 29.58,24.63 C29.58,22.93 28.63,22.19 26.89,22.19 L22.61,22.19 L22.61,27.15 Z" fill="none" stroke="currentColor" stroke-width="1.5"/></svg>