<svg xmlns="http://www.w3.org/2000/svg" viewBox="0 0 52.79 54.67" width="24" height="24"><path d="M26.39,0 C40.97,0 52.79,11.72 52.79,26.2 C52.79,40.66 40.97,52.39 26.39,52.39 C11.82,52.39 0,40.66 0,26.2 C0,11.72 11.82,0 26.39,0 Z" fill="none" stroke="currentColor" stroke-width="1.5"/><path d="M49.55,38.77 L49.55,41.04 C45.07,49.16 36.38,54.67 26.39,54.67 C11.82,54.67 0,42.94 0,28.47 L0,26.2 C0,40.66 11.82,52.39 26.39,52.39 C36.38,52.39 45.07,46.88 49.55,38.77" fill="none" stroke="currentColor" stroke-width="1.5"/><path d="M52.79,26.2 L52.79,28.47 C52.79,29.74 52.7,30.99 52.52,32.21 L52.52,29.94 C52.7,28.72 52.79,27.47 52.79,26.2" fill="none" stroke="currentColor" stroke-width="1.5"/><path d="M52.52,29.94 L52.52,32.21 C52.31,33.66 51.98,35.07 51.54,36.44 L51.54,34.16 C51.98,32.8 52.31,31.39 52.52,29.94" fill="none" stroke="currentColor" stroke-width="1.5"/><path d="M51.54,34.16 L51.54,36.44 C51.02,38.04 50.36,39.58 49.55,41.04 L49.55,38.77 C50.36,37.31 51.02,35.77 51.54,34.16" fill="none" stroke="currentColor" stroke-width="1.5"/><path d="M52.79,26.2 L52.79,28.47 C52.79,42.94 40.97,54.67 26.39,54.67 C11.82,54.67 0,42.94 0,28.47 L0,26.2 C0,40.66 11.82,52.39 26.39,52.39 C40.97,52.39 52.79,40.66 52.79,26.2 Z" fill="none" stroke="currentColor" stroke-width="1.5"/><path d="M8.28,13.81 L8.28,15.72 L10.65,15.72 L10.65,36.67 L8.28,36.67 L8.28,38.58 L12.87,38.58 L12.87,13.81 Z" fill="none" stroke="currentColor" stroke-width="1.5"/><path d="M44.3,16.56 L15.08,16.56 L15.08,32.9 L17.8,32.9 L17.8,36.19 L30.25,36.19 L30.25,32.9 L34.79,32.9 L34.79,36.19 L40.27,36.19 L40.27,32.9 L44.3,32.9 Z" fill="none" stroke="currentColor" stroke-width="1.5"/><rect x="18.23" y="18.89" width="22.48" height="11.42" fill="none" stroke="currentColor"/><rect x="20.53" y="20.67" width="7.83" height="7.72" fill="none" stroke="currentColor"/><rect x="30.74" y="20.67" width="7.83" height="7.72" fill="none" stroke="currentColor"/></svg>