<svg xmlns="http://www.w3.org/2000/svg" viewBox="0 0 49.5 65.6" width="24" height="24"><path d="M48,8 L48,10.7 C39.2,24.9 22.6,30.9 22.4,31 C22.3,31 22.2,31.2 22.1,31.4 L22.1,28.7 C22.2,28.5 22.3,28.4 22.4,28.3 C22.5,28.3 39.2,22.2 48,8" fill="none" stroke="currentColor" stroke-width="1.5"/><path d="M22,28.7 L22,31.4 C21.9,31.6 21.8,31.7 21.8,32 L21.8,29.3 C21.9,29 21.9,28.8 22,28.7" fill="none" stroke="currentColor" stroke-width="1.5"/><path d="M21.9,29.2 L21.9,31.9 C21.8,32.2 21.7,32.5 21.7,32.8 L21.7,30.1 C21.7,29.8 21.8,29.5 21.9,29.2" fill="none" stroke="currentColor" stroke-width="1.5"/><path d="M21.7,30.1 L21.7,32.8 C21.7,33 21.7,33.2 21.7,33.3 L21.7,30.6 C21.5,30.4 21.5,30.3 21.7,30.1" fill="none" stroke="currentColor" stroke-width="1.5"/><path d="M21.5,33.3 L21.5,30.6 C21.5,29.8 21.9,28.5 22.3,28.3 C22.5,28.2 39.1,22.2 47.9,8 L47.9,10.7 C39.1,24.9 22.5,30.9 22.3,31 C21.9,31.1 21.5,32.5 21.5,33.3 Z" fill="none" stroke="currentColor" stroke-width="1.5"/><path d="M49.4,11.2 L49.4,13.8 C49.3,15.3 49.1,17 48.8,18.7 L48.8,16 C49,14.4 49.3,12.7 49.4,11.2" fill="none" stroke="currentColor" stroke-width="1.5"/><path d="M48.9,16.1 L48.9,18.8 C48.5,21.5 47.9,24.3 47.1,26.6 L47.1,23.9 C47.9,21.6 48.4,18.8 48.9,16.1" fill="none" stroke="currentColor" stroke-width="1.5"/><path d="M47,23.9 L47,26.6 C46.6,27.8 46.2,28.8 45.7,29.7 L45.7,27 C46.3,26.1 46.7,25.1 47,23.9" fill="none" stroke="currentColor" stroke-width="1.5"/><path d="M45.8,27 L45.8,29.7 C45.5,30.3 45.1,30.8 44.7,31.3 C42,33.9 35,35.4 27.4,36 L27.4,33.3 C35,32.7 42,31.3 44.7,28.6 C45,28.1 45.4,27.6 45.8,27" fill="none" stroke="currentColor" stroke-width="1.5"/><path d="M49.4,11.2 L49.4,13.8 C48.8,19.8 47.5,28.3 44.6,31.2 C41.9,33.8 34.9,35.3 27.3,35.9 L27.3,33.2 C34.9,32.6 41.9,31.2 44.6,28.5 C47.4,25.6 48.9,17.1 49.4,11.2 Z" fill="none" stroke="currentColor" stroke-width="1.5"/><rect x="18.4" y="62.9" width="9" height="2.7" fill="none" stroke="currentColor"/><path d="M25.7,12.7 L25.7,13.8 C25.7,14.4 25.7,15.1 25.6,15.7 L25.6,14.6 C25.5,14 25.7,13.4 25.7,12.7" fill="none" stroke="currentColor" stroke-width="1.5"/><path d="M25.4,14.6 L25.4,15.8 C25.3,16.5 25.1,17.2 24.9,17.9 L24.9,16.8 C25.2,16 25.4,15.3 25.4,14.6" fill="none" stroke="currentColor" stroke-width="1.5"/><path d="M24.9,16.7 L24.9,17.8 C24.6,18.6 24.3,19.4 23.9,20.1 L23.9,19 C24.4,18.3 24.7,17.5 24.9,16.7" fill="none" stroke="currentColor" stroke-width="1.5"/><path d="M23.9,19 L23.9,20.1 C21.7,23.9 17.6,26.5 12.8,26.5 C5.8,26.5 0,20.8 0,13.8 L0,12.7 C0,19.7 5.7,25.4 12.8,25.4 C17.7,25.4 21.8,22.8 23.9,19" fill="none" stroke="currentColor" stroke-width="1.5"/><path d="M25.7,12.7 L25.7,13.8 C25.7,20.8 20,26.5 12.9,26.5 C5.8,26.5 0.1,20.8 0.1,13.8 L0.1,12.7 C0.1,19.7 5.8,25.4 12.9,25.4 C20,25.4 25.7,19.7 25.7,12.7 Z" fill="none" stroke="currentColor" stroke-width="1.5"/><path d="M12.9,25.4 C5.9,25.4 0.1,19.7 0.1,12.7 C0.1,5.7 5.8,0 12.9,0 C20,0 25.7,5.7 25.7,12.7 C25.7,19.7 19.9,25.4 12.9,25.4 Z" fill="none" stroke="currentColor" stroke-width="1.5"/><path d="M9.5,22.5 L16.1,22.5 L16.1,9.9 L20.8,9.9 L12.8,2 L4.8,9.9 L9.5,9.9 L9.5,22.5 Z M7,9 L12.8,3.3 L18.6,9 L15.2,9 L15.2,21.6 L10.4,21.6 L10.4,9 C10.4,9 7,9 7,9 Z" fill="none" stroke="currentColor" stroke-width="1.5"/><path d="M23.4,32.1 C23.3,32.2 23.2,32.2 23.1,32.2 C22.7,32.2 21.8,31.4 21.7,31 C21.5,30.5 22,28.6 22.5,28.4 C22.7,28.3 39.3,22.3 48.1,8.1 C42.1,8.9 33,11.5 27.9,14.5 C27.9,14.8 27.9,15.1 27.9,15.4 C27.9,20.8 24.4,25.5 19.6,27.3 C19.2,29.2 19.8,31.2 18.8,33.4 L18.8,62.8 L27.8,62.8 L27.8,33.2 C34.8,32.6 42.2,31.2 44.8,28.5 C47.7,25.6 48.9,17.1 49.5,11.2 C40.3,26.3 24.2,31.8 23.4,32.1 Z" fill="none" stroke="currentColor" stroke-width="1.5"/></svg>