<svg xmlns="http://www.w3.org/2000/svg" viewBox="0 0 73.62 54.14" width="24" height="24"><path d="M73.62,11.91 C73.62,11.91 73.62,11.91 73.62,51.78 C73.62,51.78 73.62,51.78 10.49,51.78 C10.49,51.78 10.49,51.77 10.49,27.28 C11.46,27.48 12.47,27.58 13.48,27.58 C18.11,27.58 22.25,25.51 25.01,22.25 C28.53,24.54 33.78,27.95 41.65,33.07 L73.62,11.91 Z" fill="none" stroke="currentColor" stroke-width="1.5"/><rect x="0" y="0" width="0" height="0" fill="none" stroke="currentColor"/><path d="M73.62,51.78 L73.62,54.14 C73.62,54.14 73.62,54.14 10.49,54.14 L10.49,51.78 C73.62,51.78 73.62,51.78 73.62,51.78 Z" fill="none" stroke="currentColor" stroke-width="1.5"/><rect x="0" y="0" width="0" height="0" fill="none" stroke="currentColor"/><path d="M73.62,51.78 L73.62,54.14 C73.62,54.14 73.62,54.14 10.49,54.14 L10.49,51.78 C73.62,51.78 73.62,51.78 73.62,51.78" fill="none" stroke="currentColor" stroke-width="1.5"/><rect x="0" y="0" width="0" height="0" fill="none" stroke="currentColor"/><path d="M28.54,9.93 L28.54,12.29 C28.54,11.77 28.52,11.24 28.46,10.74 L28.46,8.38 C28.52,8.88 28.54,9.4 28.54,9.93 Z" fill="none" stroke="currentColor" stroke-width="1.5"/><rect x="0" y="0" width="0" height="0" fill="none" stroke="currentColor"/><path d="M28.54,9.93 L28.54,12.29 C28.54,11.77 28.52,11.24 28.46,10.74 L28.46,8.38 C28.52,8.88 28.54,9.4 28.54,9.93" fill="none" stroke="currentColor" stroke-width="1.5"/><path d="M28.46,8.38 C35.02,8.38 47.49,8.38 71.16,8.38 L41.64,27.91 C41.64,27.91 41.52,27.83 26.14,18.02 C27.65,15.68 28.54,12.91 28.54,9.93 C28.54,9.4 28.52,8.88 28.46,8.38 Z" fill="none" stroke="currentColor" stroke-width="1.5"/><path d="M71.16,8.38 L71.16,10.75 L41.64,30.27 L41.64,27.91 Z" fill="none" stroke="currentColor" stroke-width="1.5"/><rect x="0" y="0" width="0" height="0" fill="none" stroke="currentColor"/><path d="M41.64,27.91 L41.64,30.27 C41.64,30.27 41.52,30.19 26.14,20.38 L26.14,18.02 C41.52,27.83 41.64,27.91 41.64,27.91 Z" fill="none" stroke="currentColor" stroke-width="1.5"/><rect x="0" y="0" width="0" height="0" fill="none" stroke="currentColor"/><path d="M41.64,27.91 L41.64,30.27 C41.64,30.27 41.52,30.19 26.14,20.38 L26.14,18.02 C41.52,27.83 41.64,27.91 41.64,27.91" fill="none" stroke="currentColor" stroke-width="1.5"/><rect x="0" y="0" width="0" height="0" fill="none" stroke="currentColor"/><path d="M17.52,10.48 C17.52,10.69 17.52,10.91 17.52,11.13 L17.52,13.49 C17.52,13.27 17.52,13.05 17.52,12.84 C17.52,12.13 17.52,11.18 17.52,10.48 Z" fill="none" stroke="currentColor" stroke-width="1.5"/><rect x="0" y="0" width="0" height="0" fill="none" stroke="currentColor"/><path d="M17.52,10.48 L17.52,12.84 C17.52,13.06 17.52,13.27 17.52,13.49 L17.52,11.13 C17.52,10.91 17.52,10.69 17.52,10.48" fill="none" stroke="currentColor" stroke-width="1.5"/><rect x="0" y="0" width="0" height="0" fill="none" stroke="currentColor"/><path d="M14.54,13.32 L14.54,15.68 C14.54,15.64 14.54,15.6 14.54,15.55 L14.54,13.19 C14.54,13.23 14.54,13.28 14.54,13.32 Z" fill="none" stroke="currentColor" stroke-width="1.5"/><rect x="0" y="0" width="0" height="0" fill="none" stroke="currentColor"/><path d="M14.54,13.32 L14.54,15.68 C14.54,15.64 14.54,15.6 14.54,15.55 L14.54,13.19 C14.54,13.23 14.54,13.28 14.54,13.32" fill="none" stroke="currentColor" stroke-width="1.5"/><path d="M24.11,5.45 C25.76,8.55 25.68,11.97 24.59,15.11 C23.99,16.68 22.92,18.29 21.07,19.18 C20.53,19.49 19.91,19.62 19.29,19.62 C17.71,19.62 16.07,18.76 15.35,17.56 C15.23,17.38 15.12,17.21 14.96,16.99 C13.79,18.17 12.97,18.52 11.45,18.52 C9.65,18.52 8.26,17.43 8.26,15.22 C8.26,13.52 9.2,12.35 10.53,11.77 C11.69,11.28 13.3,11.18 14.54,11.04 L14.54,10.76 C14.54,10.26 14.58,9.67 14.28,9.23 C14.01,8.84 13.52,8.68 13.08,8.68 C12.27,8.68 11.54,9.09 11.37,9.95 C11.34,10.14 11.2,10.33 11.01,10.34 L8.93,10.12 C8.76,10.08 8.57,9.94 8.61,9.68 C9.09,7.19 11.35,6.44 13.39,6.44 C14.42,6.44 15.77,6.72 16.59,7.5 C17.62,8.45 17.52,9.74 17.52,11.13 L17.52,14.43 C17.52,15.41 17.93,15.84 18.31,16.36 C18.55,16.55 18.84,16.64 19.13,16.64 C20.11,16.64 21.27,15.65 21.89,14.06 C22.75,11.79 22.85,8.84 21.71,6.74 C20.26,4.05 16.83,2.52 13.46,2.52 C11.52,2.52 9.59,3.04 8.1,4.13 C3.77,7.1 2.48,13.81 5.57,18.19 C7.45,21.16 10.85,22.73 14.31,22.73 C16.25,22.73 18.2,22.24 19.92,21.22 C20.09,21.12 20.24,21.08 20.39,21.08 C20.7,21.08 21.01,21.24 21.18,21.54 C21.43,21.97 21.27,22.52 20.83,22.76 C18.84,24.02 16.49,24.63 14.14,24.63 C10.13,24.63 6.09,22.86 3.82,19.38 C0,14.09 1.3,6.05 6.67,2.17 C8.62,0.66 11.15,0 13.59,0 C14.42,0 15.24,0.08 16.01,0.23 C19.13,0.7 22.44,2.37 24.11,5.45 Z M14.13,15.43 C14.55,14.7 14.54,14.02 14.54,13.19 L14.54,12.74 C13,12.74 11.37,13.06 11.37,14.86 C11.37,15.77 11.84,16.39 12.66,16.39 C13.26,16.39 13.8,16.03 14.13,15.43" fill="none" stroke="currentColor" stroke-width="1.5"/></svg>