<svg xmlns="http://www.w3.org/2000/svg" viewBox="0 0 43.99 57.07" width="24" height="24"><path d="M22.78,28.35 C22.46,28.44 22.13,28.52 21.78,28.6 C21.6,28.64 21.4,28.68 21.21,28.72" fill="none" stroke="currentColor" stroke-width="1.5"/><path d="M21.95,0 C26.47,0 30.32,0.36 33.5,0.94 C40.29,2.14 43.92,4.23 43.92,5.5 C43.92,6.78 40.29,8.88 33.5,10.09 C30.32,10.65 26.47,11.02 21.95,11.02 C7.75,11.02 0,7.37 0,5.5 C0,3.64 7.75,0 21.95,0 Z" fill="none" stroke="currentColor" stroke-width="1.5"/><rect x="0" y="0" width="0" height="0" fill="none" stroke="currentColor"/><path d="M43.92,5.5 L43.92,8.29 C43.92,9.57 40.29,11.67 33.5,12.88 C30.32,13.44 26.47,13.81 21.95,13.81 C7.75,13.81 0,10.16 0,8.29 L0,5.5 C0,7.37 7.75,11.02 21.95,11.02 C26.47,11.02 30.32,10.65 33.5,10.09 C40.29,8.88 43.92,6.78 43.92,5.5 Z" fill="none" stroke="currentColor" stroke-width="1.5"/><rect x="0" y="0" width="0" height="0" fill="none" stroke="currentColor"/><path d="M43.92,5.5 L43.92,8.29 C43.92,8.33 43.91,8.37 43.91,8.41 L43.91,5.62 C43.91,5.58 43.92,5.55 43.92,5.5" fill="none" stroke="currentColor" stroke-width="1.5"/><path d="M43.91,5.62 L43.91,8.41 C43.9,8.46 43.89,8.51 43.87,8.57 L43.87,5.78 C43.89,5.73 43.9,5.67 43.91,5.62" fill="none" stroke="currentColor" stroke-width="1.5"/><path d="M43.87,5.78 L43.87,8.57 C43.84,8.64 43.8,8.72 43.75,8.8 L43.75,6.01 C43.8,5.93 43.84,5.85 43.87,5.78" fill="none" stroke="currentColor" stroke-width="1.5"/><path d="M43.75,6.01 L43.75,8.8 C42.98,10.07 39.46,11.82 33.5,12.88 C30.32,13.44 26.47,13.81 21.95,13.81 C7.75,13.81 0,10.16 0,8.29 L0,5.5 C0,7.37 7.75,11.02 21.95,11.02 C26.47,11.02 30.32,10.65 33.5,10.09 C39.46,9.03 42.98,7.29 43.75,6.01" fill="none" stroke="currentColor" stroke-width="1.5"/><path d="M43.89,47.46 C43.93,47.33 43.96,47.21 43.96,47.09 L43.96,51.6 C43.96,51.65 43.95,51.7 43.94,51.75 C43.93,51.82 43.91,51.89 43.89,51.96 C43.89,51.96 43.89,51.97 43.88,51.97 C43.88,51.98 43.87,51.99 43.87,52 C43.84,52.08 43.8,52.17 43.75,52.25 C43.74,52.27 43.71,52.3 43.7,52.32 C43.66,52.38 43.61,52.44 43.57,52.5 C43.51,52.57 43.45,52.65 43.37,52.72 C43.31,52.79 43.25,52.85 43.18,52.91 C43.1,52.99 43.01,53.07 42.91,53.14 C42.83,53.21 42.75,53.28 42.65,53.34 C42.55,53.42 42.42,53.5 42.3,53.58 C42.2,53.64 42.1,53.71 41.99,53.77 C41.85,53.86 41.69,53.94 41.54,54.02 C41.42,54.08 41.3,54.14 41.18,54.21 C40.99,54.3 40.78,54.39 40.57,54.48 C40.45,54.53 40.34,54.58 40.22,54.63 C39.88,54.77 39.52,54.9 39.13,55.04 C39,55.08 38.85,55.12 38.72,55.16 C38.44,55.25 38.16,55.34 37.86,55.43 C37.68,55.48 37.48,55.53 37.29,55.58 C37.01,55.65 36.73,55.72 36.43,55.79 C36.22,55.84 35.99,55.89 35.77,55.94 C35.47,56 35.16,56.06 34.84,56.12 C34.6,56.17 34.35,56.21 34.09,56.26 C33.76,56.31 33.42,56.37 33.07,56.42 C32.81,56.46 32.54,56.49 32.27,56.53 C31.9,56.58 31.52,56.62 31.13,56.67 C30.85,56.7 30.56,56.73 30.27,56.76 C29.85,56.8 29.42,56.83 28.98,56.86 C28.69,56.88 28.41,56.91 28.11,56.93 C27.61,56.96 27.08,56.98 26.56,57 C26.29,57.01 26.04,57.02 25.77,57.03 C24.96,57.06 24.12,57.07 23.25,57.07 C15.25,57.07 9.21,56.05 5.28,54.8 C2.36,53.76 0.27,52.63 0.03,51.75 L0.03,47.25 C0.25,48.06 2.09,49.1 4.69,50.07 L4.64,49.8 C8.57,51.05 15.25,52.56 23.25,52.56 C24.12,52.56 24.96,52.55 25.77,52.53 C26.03,52.52 26.28,52.5 26.54,52.49 C27.07,52.47 27.6,52.45 28.11,52.42 C28.4,52.4 28.68,52.38 28.96,52.36 C29.41,52.32 29.85,52.29 30.28,52.25 C30.56,52.22 30.83,52.19 31.1,52.16 C31.51,52.12 31.9,52.07 32.29,52.02 C32.55,51.99 32.8,51.95 33.05,51.92 C33.42,51.86 33.78,51.81 34.13,51.74 L39.1,50.54 C39.51,50.4 39.89,50.26 40.24,50.12 L41.21,49.69 C41.29,49.65 41.36,49.61 41.44,49.57 C41.64,49.46 41.84,49.36 42.02,49.25 C42.1,49.2 42.17,49.16 42.25,49.11 C42.4,49.01 42.55,48.91 42.68,48.81 C42.75,48.76 42.82,48.71 42.88,48.66 C43,48.57 43.11,48.48 43.21,48.39 C43.26,48.33 43.31,48.28 43.36,48.24 C43.45,48.14 43.52,48.06 43.59,47.97 C43.62,47.92 43.66,47.87 43.69,47.82 L43.89,47.46 Z" fill="none" stroke="currentColor" stroke-width="1.5"/><path d="M33.23,14.57 C32.63,14.69 32.02,14.77 31.42,14.86 C31.1,14.9 30.79,14.96 30.47,14.99 C29.91,15.06 29.34,15.12 28.76,15.18 C28.39,15.21 28.02,15.25 27.64,15.26 C26.92,15.32 26.17,15.36 25.42,15.39 L25.05,15.41 C24.18,15.45 23.3,15.47 22.38,15.48 C22.2,15.48 22.01,15.48 21.81,15.48 C13.09,15.48 4.3,13.98 0.03,11.13 L0.03,48.97 C0.27,49.84 2.35,50.98 5.25,52.01 C9.18,53.26 15.23,54.29 23.24,54.29 C37.87,54.29 43.96,50.72 43.96,48.81 L43.99,10.78 C41.71,12.38 38.01,13.74 33.23,14.57 Z" fill="none" stroke="currentColor" stroke-width="1.5"/></svg>