<svg xmlns="http://www.w3.org/2000/svg" viewBox="0 0 71.2 71.3" width="24" height="24"><path d="M9,57.8 L62.1,57.8 L62.1,60.8 C62.1,63.4 60,65.5 57.3,65.5 L13.7,65.5 C13.4,65.5 13.1,65.5 12.8,65.4 C12.7,65.4 12.7,65.4 12.6,65.4 C12.4,65.3 12.1,65.3 11.9,65.2 C11.9,65.2 11.8,65.2 11.8,65.2 C11.5,65.1 11.3,65 11.1,64.8 C11,64.8 11,64.7 10.9,64.7 C10.7,64.6 10.5,64.4 10.4,64.3 C10.4,64.3 10.3,64.2 10.3,64.2 C10.1,64 9.9,63.8 9.8,63.6 C9.8,63.5 9.7,63.5 9.7,63.4 C9.6,63.3 9.6,63.2 9.5,63.1 C9.5,63 9.4,63 9.4,62.9 C9.3,62.8 9.3,62.6 9.2,62.5 C9.2,62.4 9.1,62.4 9.1,62.3 C9.1,62.2 9.1,62.1 9,62 C9,61.9 8.9,61.8 8.9,61.7 C8.9,61.6 8.9,61.6 8.9,61.5 L8.9,61.5 C8.9,61.3 8.9,61.1 8.9,60.8 L8.9,57.8 Z" fill="none" stroke="currentColor" stroke-width="1.5"/><path d="M13.8,8.8 C11.2,8.8 9,10.9 9,13.5 L9,57.8 C9,60.4 11.1,62.5 13.8,62.5 L57.4,62.5 C60,62.5 62.2,60.4 62.2,57.8 L62.2,13.5 C62.2,10.9 60.1,8.8 57.4,8.8 L13.8,8.8 Z" fill="none" stroke="currentColor" stroke-width="1.5"/><rect x="45.6" y="0" width="4" height="8.7" fill="none" stroke="currentColor"/><rect x="21.6" y="0" width="4" height="8.7" fill="none" stroke="currentColor"/><rect x="39.6" y="0" width="4" height="8.7" fill="none" stroke="currentColor"/><rect x="27.6" y="0" width="4" height="8.7" fill="none" stroke="currentColor"/><rect x="33.6" y="0" width="4" height="8.7" fill="none" stroke="currentColor"/><rect x="0" y="45.6" width="9" height="4" fill="none" stroke="currentColor"/><rect x="0" y="27.6" width="9" height="4" fill="none" stroke="currentColor"/><rect x="0" y="39.6" width="9" height="4" fill="none" stroke="currentColor"/><rect x="0" y="33.6" width="9" height="4" fill="none" stroke="currentColor"/><rect x="0" y="21.6" width="9" height="4" fill="none" stroke="currentColor"/><rect x="21.6" y="62.6" width="4" height="8.7" fill="none" stroke="currentColor"/><rect x="45.6" y="62.6" width="4" height="8.7" fill="none" stroke="currentColor"/><rect x="27.6" y="62.6" width="4" height="8.7" fill="none" stroke="currentColor"/><rect x="39.6" y="62.6" width="4" height="8.7" fill="none" stroke="currentColor"/><rect x="33.6" y="62.6" width="4" height="8.7" fill="none" stroke="currentColor"/><rect x="62.2" y="39.6" width="9" height="4" fill="none" stroke="currentColor"/><rect x="62.2" y="21.6" width="9" height="4" fill="none" stroke="currentColor"/><rect x="62.2" y="33.6" width="9" height="4" fill="none" stroke="currentColor"/><rect x="62.2" y="27.6" width="9" height="4" fill="none" stroke="currentColor"/><rect x="62.2" y="45.6" width="9" height="4" fill="none" stroke="currentColor"/><path d="M45,47.4 L26.3,47.4 C25,47.4 24,46.4 24,45.1 L24,26.4 C24,25.1 25,24.1 26.3,24.1 L45,24.1 C46.3,24.1 47.3,25.1 47.3,26.4 L47.3,45.1 C47.3,46.3 46.3,47.4 45,47.4 Z" fill="none" stroke="currentColor" stroke-width="1.5"/><path d="M29.9,30.2 L50.4,30.2" fill="none" stroke="currentColor" stroke-width="1.5"/><path d="M20.8,41.1 L41.3,41.1" fill="none" stroke="currentColor" stroke-width="1.5"/><rect x="0" y="0" width="0" height="0" fill="none" stroke="currentColor"/><ellipse cx="29.9" cy="30.2" rx="4.0" ry="4.0" fill="none" stroke="currentColor"/><ellipse cx="41.3" cy="41.1" rx="4.0" ry="4.0" fill="none" stroke="currentColor"/></svg>