<svg xmlns="http://www.w3.org/2000/svg" viewBox="0 0 71.2 71.2" width="24" height="24"><path d="M62.2,57.8 L9.1,57.8 L9.1,60.8 C9.1,63.4 11.2,65.5 13.9,65.5 L57.5,65.5 C57.8,65.5 58.1,65.5 58.4,65.4 C58.5,65.4 58.5,65.4 58.6,65.4 C58.8,65.3 59.1,65.3 59.3,65.2 C59.3,65.2 59.4,65.2 59.4,65.2 C59.7,65.1 59.9,65 60.1,64.8 C60.2,64.8 60.2,64.7 60.3,64.7 C60.5,64.6 60.7,64.4 60.8,64.3 C60.8,64.3 60.9,64.2 60.9,64.2 C61.1,64 61.3,63.8 61.4,63.6 C61.4,63.5 61.5,63.5 61.5,63.4 C61.6,63.3 61.6,63.2 61.7,63.1 C61.7,63 61.8,63 61.8,62.9 C61.9,62.8 61.9,62.6 62,62.5 C62,62.4 62.1,62.4 62.1,62.3 C62.1,62.2 62.1,62.1 62.2,62 C62.2,61.9 62.3,61.8 62.3,61.7 C62.3,61.6 62.3,61.6 62.3,61.5 L62.3,61.5 C62.3,61.3 62.3,61.1 62.3,60.8 L62.3,57.8 Z" fill="none" stroke="currentColor" stroke-width="1.5"/><path d="M57.4,8.7 C60,8.7 62.2,10.8 62.2,13.4 L62.2,57.7 C62.2,60.3 60.1,62.4 57.4,62.4 L13.8,62.4 C11.2,62.4 9,60.3 9,57.7 L9,13.4 C9,10.8 11.1,8.7 13.8,8.7 L57.4,8.7 Z" fill="none" stroke="currentColor" stroke-width="1.5"/><path d="M51.4,31.3 L19.8,31.3 C19.2,31.3 18.8,31.8 18.8,32.3 L18.8,50.8 C18.8,51.4 19.3,51.8 19.8,51.8 L51.4,51.8 C52,51.8 52.4,51.3 52.4,50.8 L52.4,32.3 C52.5,31.7 52,31.3 51.4,31.3 Z" fill="none" stroke="currentColor" stroke-width="1.5"/><path d="M37.9,38.8 L33.5,38.8 C33.1,38.8 32.7,39.1 32.7,39.6 L32.7,50.3 C32.7,50.7 33,51.1 33.5,51.1 L37.9,51.1 C38.3,51.1 38.7,50.8 38.7,50.3 L38.7,39.6 C38.6,39.2 38.3,38.8 37.9,38.8 Z" fill="none" stroke="currentColor" stroke-width="1.5"/><path d="M28.3,38.8 L25,38.8 C24.6,38.8 24.2,39.1 24.2,39.6 L24.2,43.6 C24.2,44 24.5,44.4 25,44.4 L28.3,44.4 C28.7,44.4 29.1,44.1 29.1,43.6 L29.1,39.6 C29,39.2 28.7,38.8 28.3,38.8 Z" fill="none" stroke="currentColor" stroke-width="1.5"/><path d="M46.3,38.8 L43,38.8 C42.6,38.8 42.2,39.1 42.2,39.6 L42.2,43.6 C42.2,44 42.5,44.4 43,44.4 L46.3,44.4 C46.7,44.4 47.1,44.1 47.1,43.6 L47.1,39.6 C47.1,39.2 46.7,38.8 46.3,38.8 Z" fill="none" stroke="currentColor" stroke-width="1.5"/><path d="M35.6,17.7 L12.9,30.8 L12.9,32.9 C12.9,33.5 13.3,33.9 13.9,33.9 L57.3,33.9 C57.9,33.9 58.3,33.5 58.3,32.9 L58.3,30.8 L35.6,17.7 Z" fill="none" stroke="currentColor" stroke-width="1.5"/><rect x="45.6" y="0" width="4" height="8.7" fill="none" stroke="currentColor"/><rect x="21.6" y="0" width="4" height="8.7" fill="none" stroke="currentColor"/><rect x="39.6" y="0" width="4" height="8.7" fill="none" stroke="currentColor"/><rect x="27.6" y="0" width="4" height="8.7" fill="none" stroke="currentColor"/><rect x="33.6" y="0" width="4" height="8.7" fill="none" stroke="currentColor"/><rect x="0" y="45.6" width="9" height="4" fill="none" stroke="currentColor"/><rect x="0" y="27.6" width="9" height="4" fill="none" stroke="currentColor"/><rect x="0" y="39.6" width="9" height="4" fill="none" stroke="currentColor"/><rect x="0" y="33.6" width="9" height="4" fill="none" stroke="currentColor"/><rect x="0" y="21.6" width="9" height="4" fill="none" stroke="currentColor"/><rect x="21.6" y="62.5" width="4" height="8.7" fill="none" stroke="currentColor"/><rect x="45.6" y="62.5" width="4" height="8.7" fill="none" stroke="currentColor"/><rect x="27.6" y="62.5" width="4" height="8.7" fill="none" stroke="currentColor"/><rect x="39.6" y="62.5" width="4" height="8.7" fill="none" stroke="currentColor"/><rect x="33.6" y="62.5" width="4" height="8.7" fill="none" stroke="currentColor"/><rect x="62.2" y="39.6" width="9" height="4" fill="none" stroke="currentColor"/><rect x="62.2" y="21.6" width="9" height="4" fill="none" stroke="currentColor"/><rect x="62.2" y="33.6" width="9" height="4" fill="none" stroke="currentColor"/><rect x="62.2" y="27.6" width="9" height="4" fill="none" stroke="currentColor"/><rect x="62.2" y="45.6" width="9" height="4" fill="none" stroke="currentColor"/></svg>