<svg xmlns="http://www.w3.org/2000/svg" viewBox="0 0 54.0 31.0" width="24" height="24"><path d="M11.5,12.01 C11.49,12.01 11.48,13.01 11.48,13.01 C9.92,13.04 8.65,13.49 8.68,15.05 C8.69,16.59 9.95,18 11.51,18 C11.52,18 11.54,18 11.56,18 C13.13,18 14.38,16.52 14.37,14.97 C14.34,13.42 13.06,12.01 11.5,12.01 Z" fill="none" stroke="currentColor" stroke-width="1.5"/><path d="M0,3 L0,31 L54,31 L54,3 L0,3 Z M46.75,20.64 L26.38,20.93 C26.34,21.06 26.12,21.56 25.76,22.22 C25.46,22.8 25.09,23.37 24.64,23.88 C24.24,24.39 23.75,24.89 23.18,25.33 C21.17,26.96 18.75,27.76 16.33,27.76 C13.59,27.76 10.86,26.73 8.79,24.74 C8.49,24.46 8.2,24.15 7.93,23.82 C4.13,19.21 4.81,12.44 9.45,8.68 C11.46,7.04 13.89,6.24 16.31,6.24 C18.74,6.24 21.15,7.04 23.11,8.61 C24.59,9.7 25.55,11.27 25.59,11.36 L26.73,11.41 L31.7,11.34 L33.46,14.39 L37.67,14 L39.28,15.66 L40.76,15.98 L44.6,13.68 L48.53,17.34 L46.75,20.64 Z" fill="none" stroke="currentColor" stroke-width="1.5"/><rect x="8.68" y="14.5" width="5.69" height="1" fill="none" stroke="currentColor"/><path d="M11.5,11.01 C11.49,11.01 11.48,11.01 11.48,11.01 C9.92,11.04 8.65,12.49 8.68,14.05 C8.69,15.59 9.95,17 11.51,17 C11.52,17 11.54,17 11.56,17 C13.13,17 14.38,15.52 14.37,13.97 C14.34,12.42 13.06,11.01 11.5,11.01 Z" fill="none" stroke="currentColor" stroke-width="1.5"/><path d="M0,0 L0,28 L54,28 L54,0 L0,0 Z M46.75,17.64 L26.38,17.93 C26.34,18.06 26.12,18.56 25.76,19.22 C25.46,19.8 25.09,20.37 24.64,20.88 C24.24,21.39 23.75,21.89 23.18,22.33 C21.17,23.96 18.75,24.76 16.33,24.76 C13.59,24.76 10.86,23.73 8.79,21.74 C8.49,21.46 8.2,21.15 7.93,20.82 C4.13,16.21 4.81,9.44 9.45,5.68 C11.46,4.04 13.89,3.24 16.31,3.24 C18.74,3.24 21.15,4.04 23.11,5.61 C24.59,6.7 25.55,8.27 25.59,8.36 L26.73,8.41 L31.7,8.34 L33.46,11.39 L37.67,11 L39.28,12.66 L40.76,12.98 L44.6,10.68 L48.53,14.34 L46.75,17.64 Z" fill="none" stroke="currentColor" stroke-width="1.5"/></svg>