<svg xmlns="http://www.w3.org/2000/svg" viewBox="0 0 40.77 53.34" width="24" height="24"><path d="M37.77,0 C39.43,0 40.77,1.33 40.77,2.97 L40.77,50.36 C40.77,52 39.43,53.34 37.77,53.34 L3,53.34 C1.34,53.34 0,52 0,50.36 L0,2.97 C0,1.33 1.34,0 3,0 L37.77,0 Z" fill="none" stroke="currentColor" stroke-width="1.5"/><path d="M13.89,33.18 L10.99,36.29 L8.38,34.88 L8.15,18.76 C8.04,18.72 7.65,18.55 7.13,18.26 C6.67,18.03 6.22,17.74 5.82,17.38 C5.41,17.06 5.02,16.67 4.67,16.22 C3.37,14.63 2.74,12.71 2.74,10.8 C2.74,8.63 3.56,6.47 5.14,4.83 C5.36,4.59 5.6,4.37 5.86,4.15 C9.51,1.14 14.88,1.68 17.85,5.35 C19.15,6.95 19.78,8.87 19.78,10.78 C19.78,12.71 19.15,14.62 17.9,16.17 C17.04,17.34 15.8,18.09 15.73,18.14 L15.69,19.04 L15.74,22.97 L13.33,24.36 L13.64,27.69 L12.33,28.97 L12.07,30.14 L13.89,33.18 Z M9.15,7.02 C9.16,8.27 10.19,9.26 11.42,9.24 C12.65,9.22 13.63,8.21 13.63,6.97 C13.63,6.97 13.63,6.96 13.63,6.95 C13.61,5.72 12.59,4.72 11.35,4.74 C10.14,4.75 9.16,5.75 9.16,6.98 C9.15,6.99 9.15,7.01 9.15,7.02" fill="none" stroke="currentColor" stroke-width="1.5"/><path d="M33.63,36.42 L33.63,30.28 C33.2,26.24 29.71,23.09 25.53,23.09 C21.33,23.09 17.84,26.22 17.43,30.28 L17.43,36.42 L13.24,36.42 L13.24,50.03 L37.7,50.03 L37.7,36.42 L33.63,36.42 Z M29.67,36.42 L21.33,36.42 L21.36,30.28 C21.36,30.28 21.36,26.52 25.53,26.53 C29.52,26.54 29.7,30.28 29.7,30.28 L29.67,36.42 Z" fill="none" stroke="currentColor" stroke-width="1.5"/></svg>