<svg xmlns="http://www.w3.org/2000/svg" viewBox="0 0 38.0 49.0" width="24" height="24"><path d="M38,49 L0,49 L0,0 L26.51,0 L38,12.37 Z" fill="none" stroke="currentColor" stroke-width="1.5"/><path d="M27.16,28.02 L27.16,21.88 C26.73,17.84 23.24,14.7 19.06,14.7 C14.86,14.7 11.37,17.82 10.96,21.88 L10.96,28.02 L6.77,28.02 L6.77,41.64 L31.23,41.64 L31.23,28.02 L27.16,28.02 Z M23.2,28.02 L14.86,28.02 L14.89,21.88 C14.89,21.88 14.89,18.12 19.06,18.13 C23.05,18.15 23.23,21.88 23.23,21.88 L23.2,28.02 Z" fill="none" stroke="currentColor" stroke-width="1.5"/></svg>