<svg xmlns="http://www.w3.org/2000/svg" viewBox="0 0 61.45 49.39" width="24" height="24"><path d="M6.09,39.94 C2.85,39.94 0,36.92 0,33.6 L0,10.6 C0,7.29 2.85,4.94 6.09,4.94 L47.14,4.94 C50.37,4.94 53,7.29 53,10.6 L53,33.6 C53,36.92 50.37,39.94 47.14,39.94 L6.09,39.94 Z" fill="none" stroke="currentColor" stroke-width="1.5"/><path d="M6.09,36.94 C2.85,36.94 0,33.92 0,30.6 L0,7.6 C0,4.29 2.85,1.94 6.09,1.94 L47.14,1.94 C50.37,1.94 53,4.29 53,7.6 L53,30.6 C53,33.92 50.37,36.94 47.14,36.94 L6.09,36.94 Z" fill="none" stroke="currentColor" stroke-width="1.5"/><path d="M38.51,21.34 L42.01,24.6 L40.43,27.54 L22.29,27.8 C22.25,27.92 22.06,28.36 21.73,28.95 C21.47,29.46 21.14,29.97 20.74,30.43 C20.38,30.88 19.94,31.32 19.44,31.72 C17.65,33.17 15.49,33.89 13.34,33.89 C10.89,33.89 8.46,32.97 6.62,31.19 C6.35,30.94 6.1,30.67 5.86,30.38 C2.47,26.27 3.08,20.23 7.21,16.89 C9,15.43 11.17,14.72 13.32,14.72 C15.48,14.72 17.63,15.43 19.38,16.83 C20.69,17.8 21.54,19.2 21.59,19.28 L22.6,19.32 L27.03,19.26 L28.59,21.98 L32.34,21.63 L33.78,23.1 L35.09,23.39 L38.51,21.34 Z M9.08,26.67 C10.49,26.66 11.6,25.5 11.59,24.12 C11.56,22.74 10.43,21.64 9.03,21.64 C9.03,21.64 9.02,21.64 9.01,21.64 C7.62,21.66 6.5,22.8 6.52,24.2 C6.53,25.56 7.66,26.67 9.04,26.67 C9.06,26.67 9.07,26.67 9.08,26.67" fill="none" stroke="currentColor" stroke-width="1.5"/><path d="M14.48,12.54 L10.99,9.28 L12.57,6.34 L30.71,6.09 C30.75,5.96 30.94,5.53 31.27,4.94 C31.53,4.42 31.86,3.91 32.26,3.46 C32.62,3 33.06,2.56 33.56,2.17 C35.35,0.71 37.51,0 39.66,0 C42.11,0 44.53,0.92 46.38,2.69 C46.65,2.94 46.9,3.22 47.14,3.51 C50.53,7.61 49.92,13.65 45.79,17 C44,18.46 41.83,19.17 39.68,19.17 C37.52,19.17 35.37,18.45 33.62,17.06 C32.31,16.09 31.46,14.68 31.41,14.61 L30.4,14.56 L25.97,14.62 L24.41,11.91 L20.66,12.26 L19.22,10.78 L17.91,10.49 L14.48,12.54 Z M43.91,7.22 C42.51,7.23 41.4,8.38 41.41,9.76 C41.44,11.15 42.57,12.25 43.96,12.25 C43.97,12.25 43.98,12.25 43.99,12.24 C45.38,12.22 46.5,11.08 46.48,9.69 C46.47,8.32 45.34,7.21 43.96,7.21 C43.94,7.22 43.93,7.22 43.91,7.22" fill="none" stroke="currentColor" stroke-width="1.5"/><ellipse cx="48.42999999999999" cy="36.370000000000005" rx="13.02" ry="13.02" fill="none" stroke="currentColor"/><path d="M49.5,28.2 L49.43,39.57" fill="none" stroke="currentColor" stroke-width="1.5"/><path d="M43,38.44 L50,38.44" fill="none" stroke="currentColor" stroke-width="1.5"/></svg>