<svg xmlns="http://www.w3.org/2000/svg" viewBox="0 0 66.2 67.1" width="24" height="24"><path d="M57.1,2.2 L22.3,2.2 C17.3,2.2 13.2,6.3 13.2,11.3 L13.2,13.5 L13.2,27.8 C18.8,27.6 24.2,30.8 26.7,36.2 C27.8,38.5 28.2,41 27.9,43.4 C27.8,44 26.6,46.1 26.6,46.1 L26.6,48.3 C31.2,46.7 36.4,48.8 38.4,53.3 C38.7,53.9 38.9,54.5 39,55.1 L57,55.1 C62,55.1 66.1,51 66.1,46 L66.1,13.5 L66.1,11.3 C66.2,6.3 62.1,2.2 57.1,2.2 Z" fill="none" stroke="currentColor" stroke-width="1.5"/><path d="M57.1,0 L22.3,0 C17.3,0 13.2,4.1 13.2,9.1 L13.2,11.3 L13.2,25.6 C18.8,25.4 24.2,28.6 26.7,34 C28.5,38 28.4,42.4 26.6,46.1 C31.2,44.5 36.4,46.6 38.4,51.1 C38.7,51.7 38.9,52.3 39,52.9 L57,52.9 C62,52.9 66.1,48.8 66.1,43.8 L66.1,11.3 L66.1,9.1 C66.2,4.1 62.1,0 57.1,0 Z" fill="none" stroke="currentColor" stroke-width="1.5"/><path d="M24.9,40.3 L24.9,37.8 L21,37.2 C20.2,36.2 19.3,35.3 18.2,34.6 L19,30 L14.9,31 L14.1,33.1 C12.9,32.9 11.6,32.9 10.3,33.2 L5.4,30.5 L5.4,33 L6.3,35.1 C5.3,35.9 4.4,36.8 3.7,37.9 L0,38.7 L0,41.2 L2.1,42 C2,42.5 2,43 2,43.6 C2,44.3 0.2,44.3 0.2,44.3 L0.2,46.8 L2,50.8 L4,49.9 C4.6,50.7 5.3,51.4 6.1,52 L6.1,52.1 L6.1,54.6 L10.2,56.1 L11,54 C12.3,54.2 13.6,54.2 14.8,53.9 L15.7,55.9 L19.7,54.1 L19.7,51.6 L19.7,51.3 C20.4,50.7 21,49.9 21.5,49.2 L23.6,50 L25.1,45.9 L25.1,43.4 L23,45.1 C23.2,43.8 23.2,42.6 22.9,41.3 L24.9,40.3 Z" fill="none" stroke="currentColor" stroke-width="1.5"/><path d="M35.3,58.5 L37.2,57.9 L37.2,55.4 L34.2,55 C33.6,54.1 32.9,53.4 32,53 L32.4,51 L32.4,48.5 L28.3,52.2 C27.5,52.3 26.8,52.4 26,52.8 C25.8,52.9 25.6,53 25.4,53.1 L21.4,52 L21.4,54.5 L22.9,55.9 C22.8,56.2 22.6,56.7 22.6,56.7 L20.3,56.9 L20.3,59.4 L21.4,62.9 L23.3,62.3 C23.8,63 24.4,63.6 25.1,64.1 L25.1,66.3 L28.7,67.1 L29.1,65.1 C29.9,65 30.6,64.9 31.4,64.5 C31.6,64.4 31.8,64.3 32,64.2 L33.5,65.6 L36,62.9 L36,60.4 L35.1,59.8 C35.2,59.3 35.3,58.9 35.3,58.5 Z" fill="none" stroke="currentColor" stroke-width="1.5"/><path d="M24.9,37.8 L23.1,33.8 L21.1,34.7 C20.3,33.7 19.4,32.8 18.3,32.1 L19.1,30 L15,28.5 L14.2,30.6 C13,30.4 11.7,30.4 10.4,30.7 L9.5,28.6 L5.5,30.4 L6.4,32.5 C5.4,33.3 4.5,34.2 3.8,35.3 L1.7,34.5 L0.2,38.6 L2.3,39.4 C2.1,40.7 2.1,41.9 2.4,43.2 L0.4,44.1 L2.2,48.1 L4.2,47.2 C5,48.3 5.9,49.1 7,49.8 L6.2,51.9 L10.3,53.4 L11.1,51.3 C12.4,51.5 13.7,51.5 14.9,51.2 L15.8,53.2 L19.8,51.4 L18.9,49.4 C20,48.6 20.8,47.7 21.5,46.6 L23.6,47.4 L25.1,43.3 L23,42.5 C23.2,41.2 23.2,40 22.9,38.7 L24.9,37.8 Z" fill="none" stroke="currentColor" stroke-width="1.5"/><path d="M35.3,56 L37.2,55.4 L36.1,51.9 L34.2,52.5 C33.6,51.6 32.9,50.9 32,50.5 L32.4,48.5 L28.8,47.7 L28.4,49.7 C27.6,49.8 26.9,49.9 26.1,50.3 C25.9,50.4 25.7,50.5 25.5,50.6 L24,49.2 L21.5,51.9 L23,53.3 C22.6,54.2 22.3,55.2 22.3,56.3 L20.4,56.9 L21.5,60.4 L23.4,59.8 C24,60.7 24.7,61.4 25.6,61.8 L25.2,63.8 L28.8,64.6 L29.2,62.6 C30,62.5 30.7,62.4 31.5,62 C31.7,61.9 31.9,61.8 32.1,61.7 L33.6,63.1 L36.1,60.4 L34.6,59 C35,58.1 35.3,57 35.3,56 Z" fill="none" stroke="currentColor" stroke-width="1.5"/><ellipse cx="12.600000000000001" cy="41.0" rx="2.8" ry="2.8" fill="none" stroke="currentColor"/><ellipse cx="28.8" cy="56.099999999999994" rx="1.8" ry="1.8" fill="none" stroke="currentColor"/><path d="M48.4,25.4 L59.4,14.4 L56.4,11.4 L48.4,3.4 L48.4,7.4 L35.9,7.4 L35.9,11.4 L35.9,21.4 L48.4,21.4 Z" fill="none" stroke="currentColor" stroke-width="1.5"/><path d="M32,11.4 L32,7.4 L18.2,7.4 L18.2,11.4 L18.2,21.4 L32,21.4 Z" fill="none" stroke="currentColor" stroke-width="1.5"/><path d="M63.2,38 L60.2,35 L52.2,27 L52.2,31 L39.7,31 L39.7,35 L39.7,45 L52.2,45 L52.2,49.1 Z" fill="none" stroke="currentColor" stroke-width="1.5"/><path d="M26.7,34 C26.8,34.3 27,34.7 27.1,35 C28.3,38.3 28.2,41.9 27.1,45 L35.9,45 L35.9,35 L35.9,31 L24.8,31 C25.5,31.9 26.2,32.9 26.7,34 Z" fill="none" stroke="currentColor" stroke-width="1.5"/></svg>