<svg xmlns="http://www.w3.org/2000/svg" viewBox="0 0 59.8 72.0" width="24" height="24"><path d="M59.8,50.8 L29.9,46.5 L0,50.8 L30,61.3 Z" fill="none" stroke="currentColor" stroke-width="1.5"/><path d="M29.9,36 L41.1,36 L41.1,11.7 L29.9,14.9 Z" fill="none" stroke="currentColor" stroke-width="1.5"/><path d="M41.1,36 L49.8,36 L49.8,20.4 L41.1,21.8 Z" fill="none" stroke="currentColor" stroke-width="1.5"/><path d="M49.8,36 L56.8,36 L56.8,17.9 L49.8,19.2 Z" fill="none" stroke="currentColor" stroke-width="1.5"/><path d="M35.9,3 L29.9,0 L29.9,36 L35.9,36 Z" fill="none" stroke="currentColor" stroke-width="1.5"/><path d="M45.7,13.5 L41.1,11.7 L41.1,36 L45.7,36 Z" fill="none" stroke="currentColor" stroke-width="1.5"/><path d="M53.3,21.4 L49.8,20.4 L49.8,36 L53.3,36 Z" fill="none" stroke="currentColor" stroke-width="1.5"/><path d="M56.8,17.9 L59.8,19.1 L59.8,36 L56.8,36 Z" fill="none" stroke="currentColor" stroke-width="1.5"/><path d="M59.7,46.5 L29.8,53.9 L29.8,43.2 L59.7,40.2 Z" fill="none" stroke="currentColor" stroke-width="1.5"/><path d="M59.8,50.8 L29.8,61.4 L29.8,72 L59.8,57 Z" fill="none" stroke="currentColor" stroke-width="1.5"/><path d="M0,50.8 L29.8,61.3 L29.8,72 L0,57.1 Z" fill="none" stroke="currentColor" stroke-width="1.5"/><path d="M0,40.2 L29.8,43.2 L29.8,53.9 L0,46.5 Z" fill="none" stroke="currentColor" stroke-width="1.5"/><path d="M0,36 L29.9,36 L29.9,0 L0,14.9 Z" fill="none" stroke="currentColor" stroke-width="1.5"/><path d="M59.7,40.2 L29.8,39 L0,40.2 L29.8,43.2 Z" fill="none" stroke="currentColor" stroke-width="1.5"/></svg>