<svg xmlns="http://www.w3.org/2000/svg" viewBox="0 0 59.73 72.0" width="24" height="24"><path d="M42.48,44 L49.81,44.7 L49.81,31.62 L42.48,31.97 Z" fill="none" stroke="currentColor" stroke-width="1.5"/><path d="M59.73,25.52 L29.86,28.58 L0,25.52 L29.86,16.71 Z" fill="none" stroke="currentColor" stroke-width="1.5"/><path d="M44.79,46.54 L54.83,47.76 L54.83,59.52 L44.79,57.08 Z" fill="none" stroke="currentColor" stroke-width="1.5"/><path d="M34.04,48.41 L44.79,50.17 L44.79,64.53 L34.04,61 Z" fill="none" stroke="currentColor" stroke-width="1.5"/><path d="M59.73,25.52 L29.86,18.08 L29.86,0 L59.73,14.93 Z" fill="none" stroke="currentColor" stroke-width="1.5"/><path d="M40.73,51.21 L29.86,53.91 L29.86,72 L40.73,66.57 Z" fill="none" stroke="currentColor" stroke-width="1.5"/><path d="M54.83,47.7 L59.73,46.48 L59.73,57.07 L54.83,59.52 Z" fill="none" stroke="currentColor" stroke-width="1.5"/><path d="M51.84,48.44 L44.79,50.2 L44.79,64.53 L51.84,61.01 Z" fill="none" stroke="currentColor" stroke-width="1.5"/><path d="M44.79,46.54 L54.67,47.74 L59.73,46.48 L50.34,45.51 Z" fill="none" stroke="currentColor" stroke-width="1.5"/><path d="M34.04,48.41 L44.88,50.18 L51.84,48.44 L41.41,47.06 Z" fill="none" stroke="currentColor" stroke-width="1.5"/><path d="M14.93,46.54 L4.9,47.76 L4.9,59.52 L14.93,57.08 Z" fill="none" stroke="currentColor" stroke-width="1.5"/><path d="M25.68,48.41 L14.93,50.17 L14.93,64.53 L25.68,61 Z" fill="none" stroke="currentColor" stroke-width="1.5"/><path d="M0,25.52 L29.86,18.08 L29.86,0 L0,14.93 Z" fill="none" stroke="currentColor" stroke-width="1.5"/><path d="M19,51.21 L29.86,53.91 L29.86,72 L19,66.57 Z" fill="none" stroke="currentColor" stroke-width="1.5"/><path d="M4.9,47.7 L0,46.48 L0,57.07 L4.9,59.52 Z" fill="none" stroke="currentColor" stroke-width="1.5"/><path d="M7.89,48.44 L14.93,50.2 L14.93,64.53 L7.89,61.01 Z" fill="none" stroke="currentColor" stroke-width="1.5"/><path d="M14.93,46.54 L5.06,47.74 L0,46.48 L9.38,45.51 Z" fill="none" stroke="currentColor" stroke-width="1.5"/><path d="M25.68,48.41 L14.85,50.18 L7.89,48.44 L18.32,47.06 Z" fill="none" stroke="currentColor" stroke-width="1.5"/><path d="M40.73,51.21 L29.86,49.21 L19,51.21 L29.86,53.91 Z" fill="none" stroke="currentColor" stroke-width="1.5"/><path d="M44.79,31.22 L29.86,29.98 L29.86,48.06 L44.79,45.55 Z" fill="none" stroke="currentColor" stroke-width="1.5"/><path d="M59.73,32.44 L49.81,31.62 L49.81,44.71 L59.73,43.04 Z" fill="none" stroke="currentColor" stroke-width="1.5"/><path d="M17.25,44 L9.91,44.7 L9.91,31.62 L17.25,31.97 Z" fill="none" stroke="currentColor" stroke-width="1.5"/><path d="M14.93,31.22 L29.86,29.98 L29.86,48.06 L14.93,45.55 Z" fill="none" stroke="currentColor" stroke-width="1.5"/><path d="M0,32.44 L9.91,31.62 L9.91,44.71 L0,43.04 Z" fill="none" stroke="currentColor" stroke-width="1.5"/></svg>