<svg xmlns="http://www.w3.org/2000/svg" viewBox="0 0 56.58 56.66" width="24" height="24"><path d="M4.33,54.2 L4.33,56.66 C1.96,56.66 0.02,54.74 0.02,52.37 L0.02,49.91 C0.02,52.27 1.96,54.2 4.33,54.2 Z" fill="none" stroke="currentColor" stroke-width="1.5"/><rect x="0" y="0" width="0" height="0" fill="none" stroke="currentColor"/><path d="M4.33,54.2 L4.33,56.66 C1.96,56.66 0.02,54.74 0.02,52.37 L0.02,49.91 C0.02,52.27 1.96,54.2 4.33,54.2" fill="none" stroke="currentColor" stroke-width="1.5"/><rect x="0" y="0" width="0" height="0" fill="none" stroke="currentColor"/><path d="M56.58,49.91 L56.58,52.37 C56.58,54.74 54.65,56.66 52.26,56.66 L52.26,54.2 C54.65,54.2 56.58,52.27 56.58,49.91 Z" fill="none" stroke="currentColor" stroke-width="1.5"/><rect x="0" y="0" width="0" height="0" fill="none" stroke="currentColor"/><path d="M56.58,49.91 L56.58,52.37 C56.58,52.58 56.57,52.78 56.54,52.99 L56.54,50.52 C56.57,50.32 56.58,50.12 56.58,49.91" fill="none" stroke="currentColor" stroke-width="1.5"/><path d="M56.54,50.52 L56.54,52.99 C56.5,53.22 56.45,53.46 56.38,53.68 L56.38,51.22 C56.45,50.99 56.5,50.76 56.54,50.52" fill="none" stroke="currentColor" stroke-width="1.5"/><path d="M56.38,51.22 L56.38,53.68 C56.29,53.94 56.18,54.19 56.05,54.43 L56.05,51.97 C56.18,51.73 56.29,51.48 56.38,51.22" fill="none" stroke="currentColor" stroke-width="1.5"/><path d="M56.05,51.97 L56.05,54.43 C55.32,55.76 53.9,56.66 52.26,56.66 L52.26,54.2 C53.9,54.2 55.32,53.3 56.05,51.97" fill="none" stroke="currentColor" stroke-width="1.5"/><path d="M52.71,53.98 L52.26,56.66 L4.33,56.66 L3.99,53.95 Z" fill="none" stroke="currentColor" stroke-width="1.5"/><path d="M52.24,42.18 C54.63,42.18 56.56,44.1 56.56,46.47 L56.56,49.93 C56.56,52.3 54.63,54.22 52.24,54.22 L4.31,54.22 C1.93,54.22 0,52.3 0,49.93 L0,46.47 C0,44.1 1.93,42.18 4.31,42.18 L52.24,42.18 Z M50.34,49.92 C51.29,49.92 52.06,49.15 52.06,48.2 C52.06,47.26 51.29,46.48 50.34,46.48 L32.42,46.48 C31.46,46.48 30.69,47.26 30.69,48.2 C30.69,49.15 31.46,49.92 32.42,49.92 L50.34,49.92" fill="none" stroke="currentColor" stroke-width="1.5"/><rect x="0" y="0" width="0" height="0" fill="none" stroke="currentColor"/><path d="M6.59,37.26 L6.59,39.72 C2.99,39.72 0.06,36.81 0.06,33.23 L0.06,30.77 C0.06,34.35 2.99,37.26 6.59,37.26 Z" fill="none" stroke="currentColor" stroke-width="1.5"/><rect x="0" y="0" width="0" height="0" fill="none" stroke="currentColor"/><path d="M6.59,37.26 L6.59,39.72 C2.99,39.72 0.06,36.81 0.06,33.23 L0.06,30.77 C0.06,34.35 2.99,37.26 6.59,37.26" fill="none" stroke="currentColor" stroke-width="1.5"/><rect x="0" y="0" width="0" height="0" fill="none" stroke="currentColor"/><path d="M56.49,30.77 L56.49,33.23 C56.49,36.81 53.55,39.72 49.95,39.72 L49.95,37.26 C53.56,37.26 56.49,34.35 56.49,30.77 Z" fill="none" stroke="currentColor" stroke-width="1.5"/><rect x="0" y="0" width="0" height="0" fill="none" stroke="currentColor"/><path d="M56.49,30.77 L56.49,33.23 C56.49,33.54 56.47,33.85 56.43,34.15 L56.43,31.69 C56.47,31.39 56.49,31.08 56.49,30.77" fill="none" stroke="currentColor" stroke-width="1.5"/><path d="M56.43,31.69 L56.43,34.15 C56.38,34.51 56.29,34.86 56.19,35.19 L56.19,32.73 C56.29,32.39 56.38,32.05 56.43,31.69" fill="none" stroke="currentColor" stroke-width="1.5"/><path d="M56.19,32.73 L56.19,35.19 C56.06,35.59 55.89,35.97 55.7,36.33 L55.7,33.87 C55.89,33.51 56.06,33.13 56.19,32.73" fill="none" stroke="currentColor" stroke-width="1.5"/><path d="M55.7,33.87 L55.7,36.33 C54.58,38.35 52.42,39.72 49.95,39.72 L49.95,37.26 C52.42,37.26 54.58,35.89 55.7,33.87" fill="none" stroke="currentColor" stroke-width="1.5"/><path d="M50.46,37.08 L49.95,39.72 L6.59,39.72 L5.87,36.83 Z" fill="none" stroke="currentColor" stroke-width="1.5"/><path d="M49.95,0 C53.55,0 56.49,2.92 56.49,6.5 L56.49,30.77 C56.49,34.34 53.55,37.26 49.95,37.26 L6.59,37.26 C2.99,37.26 0.06,34.34 0.06,30.77 L0.06,6.5 C0.06,2.92 2.99,0 6.59,0 L49.95,0 Z M51.92,30.77 L51.92,6.5 C51.92,5.42 51.04,4.54 49.95,4.54 L6.59,4.54 C5.52,4.54 4.64,5.42 4.64,6.5 L4.64,30.77 C4.64,31.84 5.52,32.72 6.59,32.72 L49.95,32.72 C51.04,32.72 51.92,31.84 51.92,30.77" fill="none" stroke="currentColor" stroke-width="1.5"/></svg>