<svg xmlns="http://www.w3.org/2000/svg" viewBox="0 0 48.83 56.76" width="24" height="24"><rect x="0" y="54.38" width="48.83" height="2.38" fill="none" stroke="currentColor"/><path d="M0,0 L0,54.38 L48.83,54.38 L48.83,0 L0,0 Z M16.27,46.98 L7.18,46.98 L7.18,37.95 L16.27,37.95 L16.27,46.98 Z M16.27,32.31 L7.18,32.31 L7.18,24.41 L16.27,24.41 L16.27,32.31 Z M16.27,18.77 L7.18,18.77 L7.18,9.75 L16.27,9.75 L16.27,18.77 Z M41.26,43.59 L19.67,43.59 L19.67,41.34 L41.26,41.34 L41.26,43.59 Z M41.26,30.05 L19.67,30.05 L19.67,27.8 L41.26,27.8 L41.26,30.05 Z M41.26,15.39 L19.67,15.39 L19.67,13.13 L41.26,13.13 L41.26,15.39 Z" fill="none" stroke="currentColor" stroke-width="1.5"/></svg>