<svg xmlns="http://www.w3.org/2000/svg" viewBox="0 0 41.09 56.28" width="24" height="24"><path d="M41.09,50.75 L41.09,53.27 C41.09,54.94 39.73,56.28 38.07,56.28 L38.07,53.75 C39.73,53.75 41.09,52.42 41.09,50.75 Z" fill="none" stroke="currentColor" stroke-width="1.5"/><rect x="0" y="0" width="0" height="0" fill="none" stroke="currentColor"/><path d="M41.09,50.75 L41.09,53.27 C41.09,53.42 41.08,53.56 41.06,53.7 L41.06,51.18 C41.08,51.04 41.09,50.9 41.09,50.75" fill="none" stroke="currentColor" stroke-width="1.5"/><path d="M41.06,51.18 L41.06,53.7 C41.04,53.87 41,54.03 40.95,54.19 L40.95,51.66 C41,51.51 41.04,51.35 41.06,51.18" fill="none" stroke="currentColor" stroke-width="1.5"/><path d="M40.95,51.66 L40.95,54.18 C40.89,54.37 40.82,54.55 40.72,54.71 L40.72,52.19 C40.82,52.03 40.89,51.85 40.95,51.66" fill="none" stroke="currentColor" stroke-width="1.5"/><path d="M40.72,52.19 L40.72,54.71 C40.21,55.65 39.21,56.28 38.07,56.28 L38.07,53.75 C39.21,53.75 40.21,53.12 40.72,52.19" fill="none" stroke="currentColor" stroke-width="1.5"/><path d="M38.07,53.75 L38.07,56.28 L3.02,56.28 L2.33,53.6 Z" fill="none" stroke="currentColor" stroke-width="1.5"/><rect x="0" y="0" width="0" height="0" fill="none" stroke="currentColor"/><path d="M3.02,53.75 L3.02,56.28 C1.35,56.28 0,54.94 0,53.27 L0,50.75 C0,52.42 1.35,53.75 3.02,53.75 Z" fill="none" stroke="currentColor" stroke-width="1.5"/><rect x="0" y="0" width="0" height="0" fill="none" stroke="currentColor"/><path d="M3.02,53.75 L3.02,56.28 C1.35,56.28 0,54.94 0,53.27 L0,50.75 C0,52.42 1.35,53.75 3.02,53.75" fill="none" stroke="currentColor" stroke-width="1.5"/><path d="M38.07,0 C39.73,0 41.09,1.34 41.09,3.01 L41.09,50.75 C41.09,52.42 39.73,53.75 38.07,53.75 L3.02,53.75 C1.35,53.75 0,52.42 0,50.75 L0,3.01 C0,1.34 1.35,0 3.02,0 L38.07,0 Z" fill="none" stroke="currentColor" stroke-width="1.5"/><path d="M27.71,6.81 L36.01,6.81 L36.01,10.15 L27.71,10.15 L27.71,6.81 Z M16.33,6.81 L24.64,6.81 L24.64,10.15 L16.33,10.15 L16.33,6.81 Z M4.96,6.81 L13.26,6.81 L13.26,10.15 L4.96,10.15 L4.96,6.81 Z M4.96,12.57 L13.26,12.57 L13.26,15.91 L4.96,15.91 L4.96,12.57 Z M5.01,18.32 L13.31,18.32 L13.31,21.66 L5.01,21.66 L5.01,18.32 Z M13.33,24.07 L13.33,27.42 L5.03,27.42 L5.03,24.07 L13.33,24.07 Z M5.03,29.83 L13.33,29.83 L13.33,33.17 L5.03,33.17 L5.03,29.83 Z M13.38,38.93 L5.08,38.93 L5.08,35.59 L13.38,35.59 L13.38,38.93 Z M16.33,12.57 L24.64,12.57 L24.64,15.91 L16.33,15.91 L16.33,12.57 Z M16.39,18.32 L24.69,18.32 L24.69,21.66 L16.39,21.66 L16.39,18.32 Z M24.7,24.07 L24.7,27.42 L16.4,27.42 L16.4,24.07 L24.7,24.07 Z M16.4,29.83 L24.7,29.83 L24.7,33.17 L16.4,33.17 L16.4,29.83 Z M24.76,38.93 L16.46,38.93 L16.46,35.59 L24.76,35.59 L24.76,38.93 Z M27.71,12.57 L36.01,12.57 L36.01,15.91 L27.71,15.91 L27.71,12.57 Z M27.76,18.32 L36.06,18.32 L36.06,21.66 L27.76,21.66 L27.76,18.32 Z M36.08,24.07 L36.08,27.42 L27.78,27.42 L27.78,24.07 L36.08,24.07 Z M27.78,29.83 L36.08,29.83 L36.08,33.17 L27.78,33.17 L27.78,29.83 Z M36.14,38.93 L27.83,38.93 L27.83,35.59 L36.14,35.59 L36.14,38.93 Z" fill="none" stroke="currentColor" stroke-width="1.5"/></svg>