<svg xmlns="http://www.w3.org/2000/svg" viewBox="0 0 55.7 58.8" width="24" height="24"><rect x="10.7" y="29.8" width="42.5" height="11.1" fill="none" stroke="currentColor"/><path d="M4.8,53.8 C2.2,53.8 0,51.7 0,49.1 L0,49.1 L0,52.1 C0,54.7 2.1,56.8 4.8,56.8 L16.2,56.8 L16.2,53.8 L4.8,53.8 Z" fill="none" stroke="currentColor" stroke-width="1.5"/><path d="M48.4,0 L4.8,0 C2.2,0 0,2.1 0,4.7 L0,49 L0,49 C0,51.6 2.1,53.7 4.8,53.7 L16.2,53.7 L16.2,37.4 L53.1,37.4 L53.1,4.8 C53.2,2.1 51.1,0 48.4,0 Z" fill="none" stroke="currentColor" stroke-width="1.5"/><rect x="18.2" y="55.8" width="37.5" height="3" fill="none" stroke="currentColor"/><rect x="18.2" y="39.9" width="37.5" height="15.9" fill="none" stroke="currentColor"/></svg>