<svg xmlns="http://www.w3.org/2000/svg" viewBox="0 0 72.0 72.0" width="24" height="24"><rect x="0" y="0" width="18" height="14" fill="none" stroke="currentColor"/><rect x="27" y="0" width="18" height="14" fill="none" stroke="currentColor"/><rect x="54" y="0" width="18" height="14" fill="none" stroke="currentColor"/><rect x="0" y="27" width="18" height="14" fill="none" stroke="currentColor"/><rect x="27" y="27" width="18" height="14" fill="none" stroke="currentColor"/><rect x="54" y="27" width="18" height="14" fill="none" stroke="currentColor"/><rect x="0" y="54" width="18" height="14" fill="none" stroke="currentColor"/><rect x="27" y="54" width="18" height="14" fill="none" stroke="currentColor"/><rect x="54" y="54" width="18" height="14" fill="none" stroke="currentColor"/><rect x="0" y="14" width="18" height="4" fill="none" stroke="currentColor"/><rect x="27" y="14" width="18" height="4" fill="none" stroke="currentColor"/><rect x="54" y="14" width="18" height="4" fill="none" stroke="currentColor"/><rect x="0" y="41" width="18" height="4" fill="none" stroke="currentColor"/><rect x="27" y="41" width="18" height="4" fill="none" stroke="currentColor"/><rect x="54" y="41" width="18" height="4" fill="none" stroke="currentColor"/><rect x="0" y="68" width="18" height="4" fill="none" stroke="currentColor"/><rect x="27" y="68" width="18" height="4" fill="none" stroke="currentColor"/><rect x="54" y="68" width="18" height="4" fill="none" stroke="currentColor"/></svg>