<svg xmlns="http://www.w3.org/2000/svg" viewBox="0 0 72.0 68.0" width="24" height="24"><path d="M0,48 L16,68 L32,48 Z" fill="none" stroke="currentColor" stroke-width="1.5"/><rect x="0" y="44" width="32" height="4" fill="none" stroke="currentColor"/><path d="M40,48 L56,68 L72,48 Z" fill="none" stroke="currentColor" stroke-width="1.5"/><path d="M60,34 L40,14 L42,4 L30,4 L32,14 L12,34 L12,48 L20,48 L20,38 L36,22 L36,22 L52,38 L52,48 L60,48 Z" fill="none" stroke="currentColor" stroke-width="1.5"/><rect x="40" y="44" width="32" height="4" fill="none" stroke="currentColor"/><path d="M0,44 L16,64 L32,44 Z" fill="none" stroke="currentColor" stroke-width="1.5"/><path d="M40,44 L56,64 L72,44 Z" fill="none" stroke="currentColor" stroke-width="1.5"/><path d="M61,30 L42,11 L42,0 L30,0 L30,11 L11,30 L11,44 L21,44 L21,34 L36,18 L36,18 L51,34 L51,44 L61,44 Z" fill="none" stroke="currentColor" stroke-width="1.5"/></svg>