<svg xmlns="http://www.w3.org/2000/svg" viewBox="0 0 59.5 72.0" width="24" height="24"><path d="M51,33.75 L51,16.75 C51,9.71 45.29,4 38.25,4 L21.25,4 C14.21,4 8.5,9.71 8.5,16.75 L8.5,33.75 L0,33.75 L0,72 L59.5,72 L59.5,33.75 L51,33.75 Z M42.5,33.75 L17,33.75 L17,20.15 C17,15.93 20.43,12.5 24.65,12.5 L34.85,12.5 C39.07,12.5 42.5,15.93 42.5,20.15 L42.5,33.75 Z" fill="none" stroke="currentColor" stroke-width="1.5"/><path d="M51,29.75 L51,12.75 C51,5.71 45.29,0 38.25,0 L21.25,0 C14.21,0 8.5,5.71 8.5,12.75 L8.5,29.75 L0,29.75 L0,68 L59.5,68 L59.5,29.75 L51,29.75 Z M42.5,29.75 L17,29.75 L17,16.15 C17,11.93 20.43,8.5 24.65,8.5 L34.85,8.5 C39.07,8.5 42.5,11.93 42.5,16.15 L42.5,29.75 Z" fill="none" stroke="currentColor" stroke-width="1.5"/></svg>