<svg xmlns="http://www.w3.org/2000/svg" viewBox="0 0 59.71 72.0" width="24" height="24"><path d="M59.71,53.62 L59.71,36.04 L41.63,36.04 L41.63,58.67 L51.35,61.29 Z" fill="none" stroke="currentColor" stroke-width="1.5"/><path d="M29.86,50.68 L51.21,55.02 L51.21,10.7 L29.86,16.49 Z" fill="none" stroke="currentColor" stroke-width="1.5"/><path d="M29.86,36.04 L29.86,0 L45.6,7.89 Z" fill="none" stroke="currentColor" stroke-width="1.5"/><path d="M59.71,36.04 L59.71,57.15 L51.33,61.34 Z" fill="none" stroke="currentColor" stroke-width="1.5"/><path d="M59.71,23.5 L59.71,14.88 L51.21,10.7 L29.86,50.68 L29.86,72 L45.65,64.1 Z" fill="none" stroke="currentColor" stroke-width="1.5"/><path d="M0,53.62 L0,36.04 L18.08,36.04 L18.08,58.67 L8.37,61.29 Z" fill="none" stroke="currentColor" stroke-width="1.5"/><path d="M29.86,50.68 L8.5,55.02 L8.5,10.7 L29.86,16.49 Z" fill="none" stroke="currentColor" stroke-width="1.5"/><path d="M29.86,36.04 L29.86,0 L14.11,7.89 Z" fill="none" stroke="currentColor" stroke-width="1.5"/><path d="M0,36.04 L0,57.15 L8.38,61.34 Z" fill="none" stroke="currentColor" stroke-width="1.5"/><path d="M0,23.5 L0,14.88 L8.5,10.7 L29.86,50.68 L29.86,72 L14.06,64.1 Z" fill="none" stroke="currentColor" stroke-width="1.5"/></svg>