<svg xmlns="http://www.w3.org/2000/svg" viewBox="0 0 71.2 71.2" width="24" height="24"><path d="M9,57.8 L62.1,57.8 L62.1,60.8 C62.1,63.4 60,65.5 57.3,65.5 L13.7,65.5 C13.4,65.5 13.1,65.5 12.8,65.4 C12.7,65.4 12.7,65.4 12.6,65.4 C12.4,65.3 12.1,65.3 11.9,65.2 C11.9,65.2 11.8,65.2 11.8,65.2 C11.5,65.1 11.3,65 11.1,64.8 C11,64.8 11,64.7 10.9,64.7 C10.7,64.6 10.5,64.4 10.4,64.3 C10.4,64.3 10.3,64.2 10.3,64.2 C10.1,64 9.9,63.8 9.8,63.6 C9.8,63.5 9.7,63.5 9.7,63.4 C9.6,63.3 9.6,63.2 9.5,63.1 C9.5,63 9.4,63 9.4,62.9 C9.3,62.8 9.3,62.6 9.2,62.5 C9.2,62.4 9.1,62.4 9.1,62.3 C9.1,62.2 9.1,62.1 9,62 C9,61.9 8.9,61.8 8.9,61.7 C8.9,61.6 8.9,61.6 8.9,61.5 L8.9,61.5 C8.9,61.3 8.9,61.1 8.9,60.8 L8.9,57.8 Z" fill="none" stroke="currentColor" stroke-width="1.5"/><path d="M13.8,8.7 C11.2,8.7 9,10.8 9,13.4 L9,57.7 C9,60.3 11.1,62.4 13.8,62.4 L57.4,62.4 C60,62.4 62.2,60.3 62.2,57.7 L62.2,13.4 C62.2,10.8 60.1,8.7 57.4,8.7 L13.8,8.7 Z" fill="none" stroke="currentColor" stroke-width="1.5"/><path d="M50.2,40 C50.2,39.7 50.2,39.5 50.1,39.2 C50.1,39 50,38.9 50,38.7 C50,38.5 49.9,38.2 49.9,38 C49.9,37.8 49.8,37.7 49.8,37.5 C49.7,37.3 49.7,37 49.6,36.8 C49.6,36.6 49.5,36.4 49.4,36.3 C49.3,36.1 49.3,35.8 49.2,35.6 C49.1,35.4 49.1,35.2 49,35.1 C48.9,34.9 48.8,34.6 48.8,34.4 C48.7,34.2 48.7,34 48.6,33.9 C48.5,33.7 48.4,33.5 48.3,33.2 C48.2,33 48.1,32.8 48,32.6 C47.9,32.4 47.8,32.2 47.7,32 C47,30.7 47,29.1 47.7,27.8 L50.2,22.9 L48.8,21.5 L48.8,21.5 C47.5,22.3 46.2,22.7 44.8,22.9 C40.8,23.3 36.6,21.6 35.5,20 L35.5,20 L35.5,20 C34.4,21.6 30.2,23.3 26.2,22.9 C24.9,22.7 23.5,22.3 22.2,21.5 L22.2,21.5 L20.8,22.9 L23.3,27.8 C24,29.1 23.9,30.7 23.3,32 C23.2,32.2 23.1,32.4 23,32.6 C22.9,32.8 22.8,33 22.7,33.2 C22.6,33.4 22.5,33.6 22.4,33.9 C22.3,34.1 22.2,34.3 22.2,34.4 C22.1,34.6 22,34.9 22,35.1 C21.9,35.3 21.9,35.5 21.8,35.6 C21.7,35.8 21.7,36.1 21.6,36.3 C21.5,36.5 21.5,36.7 21.4,36.8 C21.3,37 21.3,37.3 21.2,37.5 C21.2,37.7 21.1,37.8 21.1,38 C21.1,38.2 21,38.5 21,38.7 C21,38.9 20.9,39 20.9,39.2 C20.9,39.5 20.8,39.7 20.8,40 C20.8,40.1 20.8,40.3 20.8,40.4 C20.8,40.8 20.8,41.2 20.8,41.6 C20.8,48.7 25.8,51.1 32.4,51.7 C33.4,51.8 35.4,53 35.4,53.9 C35.4,52.9 37.5,51.7 38.4,51.7 C45,51.2 50,48.7 50,41.6 C50,41.2 50,40.8 50,40.4 C50.2,40.3 50.2,40.1 50.2,40 Z" fill="none" stroke="currentColor" stroke-width="1.5"/><rect x="45.6" y="0" width="4" height="8.7" fill="none" stroke="currentColor"/><rect x="21.6" y="0" width="4" height="8.7" fill="none" stroke="currentColor"/><rect x="39.6" y="0" width="4" height="8.7" fill="none" stroke="currentColor"/><rect x="27.6" y="0" width="4" height="8.7" fill="none" stroke="currentColor"/><rect x="33.6" y="0" width="4" height="8.7" fill="none" stroke="currentColor"/><rect x="0" y="45.6" width="9" height="4" fill="none" stroke="currentColor"/><rect x="0" y="27.6" width="9" height="4" fill="none" stroke="currentColor"/><rect x="0" y="39.6" width="9" height="4" fill="none" stroke="currentColor"/><rect x="0" y="33.6" width="9" height="4" fill="none" stroke="currentColor"/><rect x="0" y="21.6" width="9" height="4" fill="none" stroke="currentColor"/><rect x="21.6" y="62.5" width="4" height="8.7" fill="none" stroke="currentColor"/><rect x="45.6" y="62.5" width="4" height="8.7" fill="none" stroke="currentColor"/><rect x="27.6" y="62.5" width="4" height="8.7" fill="none" stroke="currentColor"/><rect x="39.6" y="62.5" width="4" height="8.7" fill="none" stroke="currentColor"/><rect x="33.6" y="62.5" width="4" height="8.7" fill="none" stroke="currentColor"/><rect x="62.2" y="39.6" width="9" height="4" fill="none" stroke="currentColor"/><rect x="62.2" y="21.6" width="9" height="4" fill="none" stroke="currentColor"/><rect x="62.2" y="33.6" width="9" height="4" fill="none" stroke="currentColor"/><rect x="62.2" y="27.6" width="9" height="4" fill="none" stroke="currentColor"/><rect x="62.2" y="45.6" width="9" height="4" fill="none" stroke="currentColor"/></svg>