<svg xmlns="http://www.w3.org/2000/svg" viewBox="0 0 60.0 66.2" width="24" height="24"><path d="M45.2,30 L58.2,30 L58.2,52.1 L45.2,49.2 Z" fill="none" stroke="currentColor" stroke-width="1.5"/><path d="M30,49.5 L51.6,55.3 L51.6,19.8 L30,22.1 Z" fill="none" stroke="currentColor" stroke-width="1.5"/><path d="M11.3,48.9 L42.7,59.9 L42.7,0 L11.3,11.1 Z" fill="none" stroke="currentColor" stroke-width="1.5"/><path d="M36.8,62.7 L30,66.2 L30,29.9 L36.8,29.9 Z" fill="none" stroke="currentColor" stroke-width="1.5"/><path d="M47.7,2.6 L42.7,0 L42.7,59.8 L47.7,57.3 Z" fill="none" stroke="currentColor" stroke-width="1.5"/><path d="M55,53.6 L51.6,55.4 L51.6,19.8 L55,20.5 Z" fill="none" stroke="currentColor" stroke-width="1.5"/><path d="M60,51.1 L58.2,52.1 L58.2,29.9 L60,29.9 Z" fill="none" stroke="currentColor" stroke-width="1.5"/><path d="M0,51.2 L30,66.2 L30,29.9 L0,29.9 Z" fill="none" stroke="currentColor" stroke-width="1.5"/></svg>