<svg xmlns="http://www.w3.org/2000/svg" viewBox="0 0 43.5 56.95" width="24" height="24"><path d="M21.75,0 C26.22,0 30.04,0.37 33.18,0.93 C39.92,2.14 43.49,4.23 43.49,5.51 C43.49,6.78 39.92,8.87 33.18,10.08 C30.04,10.64 26.22,11.01 21.75,11.01 C7.68,11.01 0,7.37 0,5.51 C0,3.64 7.68,0 21.75,0 Z" fill="none" stroke="currentColor" stroke-width="1.5"/><path d="M43.49,5.51 L43.49,8.29 C43.49,8.32 43.49,8.36 43.48,8.4 L43.48,5.62 C43.49,5.58 43.49,5.54 43.49,5.51" fill="none" stroke="currentColor" stroke-width="1.5"/><path d="M43.48,5.62 L43.48,8.4 C43.47,8.45 43.46,8.51 43.44,8.56 L43.44,5.78 C43.46,5.73 43.47,5.67 43.48,5.62" fill="none" stroke="currentColor" stroke-width="1.5"/><path d="M43.44,5.78 L43.44,8.56 C43.41,8.64 43.37,8.71 43.33,8.79 L43.33,6.01 C43.37,5.93 43.41,5.86 43.44,5.78" fill="none" stroke="currentColor" stroke-width="1.5"/><path d="M43.33,6.01 L43.33,8.79 C42.56,10.07 39.08,11.8 33.18,12.86 C30.04,13.42 26.22,13.79 21.74,13.79 C7.68,13.79 0,10.15 0,8.29 L0,5.51 C0,7.37 7.68,11.01 21.74,11.01 C26.22,11.01 30.04,10.64 33.18,10.08 C39.08,9.02 42.56,7.28 43.33,6.01" fill="none" stroke="currentColor" stroke-width="1.5"/><path d="M43.49,5.51 L43.49,8.29 C43.49,9.56 39.92,11.66 33.18,12.86 C30.04,13.42 26.22,13.79 21.74,13.79 C7.68,13.79 0,10.15 0,8.29 L0,5.51 C0,7.37 7.68,11.01 21.74,11.01 C26.22,11.01 30.04,10.64 33.18,10.08 C39.92,8.87 43.49,6.78 43.49,5.51 Z" fill="none" stroke="currentColor" stroke-width="1.5"/><path d="M5.23,51.9 L5.23,54.68 C2.34,53.65 0.26,52.52 0.03,51.64 L0.03,48.86 C0.26,49.73 2.34,50.87 5.23,51.9 Z" fill="none" stroke="currentColor" stroke-width="1.5"/><path d="M43.47,48.7 L43.47,51.48 C43.47,51.53 43.47,51.59 43.46,51.64 L43.46,48.86 C43.47,48.8 43.47,48.75 43.47,48.7" fill="none" stroke="currentColor" stroke-width="1.5"/><path d="M43.46,48.86 L43.46,51.64 C43.45,51.7 43.43,51.78 43.41,51.85 L43.41,49.06 C43.43,48.99 43.45,48.92 43.46,48.86" fill="none" stroke="currentColor" stroke-width="1.5"/><path d="M43.41,49.06 L43.41,51.85 C43.37,51.94 43.33,52.04 43.27,52.14 L43.27,49.36 C43.33,49.26 43.37,49.15 43.41,49.06" fill="none" stroke="currentColor" stroke-width="1.5"/><path d="M43.27,49.36 L43.27,52.14 C42.11,54.1 35.93,56.95 23,56.95 C15.09,56.95 9.11,55.91 5.23,54.68 L4.12,51.03 C8,52.26 15.09,54.16 23,54.16 C35.93,54.16 42.11,51.32 43.27,49.36" fill="none" stroke="currentColor" stroke-width="1.5"/><path d="M43.47,48.7 L43.47,51.48 C43.47,53.39 37.46,56.95 23,56.95 C15.09,56.95 9.11,55.91 5.23,54.68 L4.87,51.32 C8.75,52.56 15.09,54.16 23,54.16 C37.46,54.16 43.47,50.61 43.47,48.7 Z" fill="none" stroke="currentColor" stroke-width="1.5"/><path d="M32.86,14.55 C32.27,14.66 31.67,14.75 31.07,14.84 C30.75,14.88 30.46,14.92 30.13,14.97 C29.58,15.04 29.01,15.1 28.44,15.14 C28.07,15.18 27.71,15.21 27.34,15.24 C26.62,15.3 25.88,15.34 25.13,15.37 L24.78,15.38 C23.91,15.42 23.04,15.44 22.12,15.44 C21.93,15.44 21.75,15.46 21.57,15.46 C12.94,15.46 4.25,13.97 0.03,11.1 L0.03,48.86 C0.26,49.74 2.32,50.87 5.19,51.9 C9.07,53.13 15.06,54.17 22.98,54.17 C37.45,54.17 43.47,50.61 43.47,48.7 L43.5,10.77 C41.25,12.36 37.59,13.72 32.86,14.55 Z" fill="none" stroke="currentColor" stroke-width="1.5"/><path d="M10.98,20.95 L24.46,20.95 C28.95,20.95 31.79,24.05 31.79,27.8 C31.79,30.72 30.6,32.92 27.83,34.03 L27.83,34.1 C30.53,34.79 31.3,37.4 31.47,39.91 C31.58,41.47 31.54,44.4 32.52,45.79 L27.02,45.79 C26.36,44.22 26.43,41.82 26.15,39.84 C25.76,37.24 24.75,36.08 21.98,36.08 L16.48,36.08 L16.48,45.79 L10.98,45.79 L10.98,20.95 Z M16.48,32.19 L22.51,32.19 C24.95,32.19 26.29,31.14 26.29,28.63 C26.29,26.24 24.95,25.19 22.51,25.19 L16.48,25.19 L16.48,32.19 Z" fill="none" stroke="currentColor" stroke-width="1.5"/></svg>