<svg xmlns="http://www.w3.org/2000/svg" viewBox="0 0 53.67 55.0" width="24" height="24"><path d="M0.79,49 C0.79,49 0,55 4.75,55 C9.5,55 49.67,55 49.67,55 C49.67,55 53.32,54.18 53.62,49.59 L0.79,49 Z" fill="none" stroke="currentColor" stroke-width="1.5"/><path d="M53.67,49 C53.67,51.21 51.88,53 49.67,53 L4.67,53 C2.46,53 0.67,51.21 0.67,49 L0.67,4 C0.67,1.79 2.46,0 4.67,0 L49.67,0 C51.88,0 53.67,1.79 53.67,4 L53.67,49 Z" fill="none" stroke="currentColor" stroke-width="1.5"/><path d="M50.17,44.5 C50.17,46.71 48.38,48.5 46.17,48.5 L27.17,48.5 C24.96,48.5 23.17,46.71 23.17,44.5 L23.17,38.5 C23.17,36.29 24.96,34.5 27.17,34.5 L46.17,34.5 C48.38,34.5 50.17,36.29 50.17,38.5 L50.17,44.5 Z" fill="none" stroke="currentColor" stroke-width="1.5"/><rect x="0" y="0" width="0" height="0" fill="none" stroke="currentColor"/></svg>