<svg xmlns="http://www.w3.org/2000/svg" viewBox="0 0 52.84 56.92" width="24" height="24"><path d="M52.84,4 L52.84,6.6" fill="none" stroke="currentColor" stroke-width="1.5"/><path d="M28.67,24.96 L28.67,27.56 C28.62,27.65 28.58,27.75 28.54,27.84 L28.54,25.24 C28.58,25.14 28.62,25.05 28.67,24.96" fill="none" stroke="currentColor" stroke-width="1.5"/><path d="M28.54,25.24 L28.54,27.84 C28.53,27.89 28.52,27.93 28.51,27.98 L28.51,25.38 C28.52,25.33 28.53,25.28 28.54,25.24" fill="none" stroke="currentColor" stroke-width="1.5"/><path d="M52.51,26.26 C48.78,25.02 44.69,24.86 41.21,24.86 C36.13,24.86 29.72,26.02 28.47,27.75 L28.42,25.37 C28.88,23.28 34.87,21.5 40.15,21.5 C41.94,21.5 49.97,22.31 52.54,23.65" fill="none" stroke="currentColor" stroke-width="1.5"/><path d="M42,27.23 C44.2,27.23 46.06,27.4 47.6,27.65 C50.9,28.2 52.65,29.13 52.65,29.71 C52.65,30.29 50.9,31.23 47.6,31.76 C46.06,32.02 44.2,32.18 42,32.18 C35.11,32.18 31.36,30.55 31.36,29.71 C31.36,28.87 35.11,27.23 42,27.23 Z" fill="none" stroke="currentColor" stroke-width="1.5"/><path d="M52.65,29.71 L52.65,32.51 C52.65,32.53 52.65,32.54 52.65,32.56 L52.65,29.76 C52.65,29.74 52.65,29.73 52.65,29.71" fill="none" stroke="currentColor" stroke-width="1.5"/><path d="M52.65,29.76 L52.65,32.56 C52.64,32.58 52.64,32.59 52.63,32.62 L52.63,29.82 C52.64,29.8 52.64,29.78 52.65,29.76" fill="none" stroke="currentColor" stroke-width="1.5"/><path d="M52.63,29.81 L52.63,32.62 C52.62,32.64 52.61,32.67 52.6,32.7 L52.6,29.9 C52.61,29.87 52.62,29.84 52.63,29.81" fill="none" stroke="currentColor" stroke-width="1.5"/><path d="M52.6,29.9 L52.6,32.7 C52.28,33.28 50.56,34.08 47.6,34.56 C46.06,34.82 44.2,34.98 42,34.98 C35.11,34.98 31.36,33.35 31.36,32.51 L31.36,29.71 C31.36,30.55 35.11,32.18 42,32.18 C44.2,32.18 46.06,32.02 47.6,31.76 C50.56,31.28 52.27,30.48 52.6,29.9" fill="none" stroke="currentColor" stroke-width="1.5"/><path d="M52.65,29.71 L52.65,32.51 C52.65,33.09 50.9,34.03 47.6,34.56 C46.06,34.82 44.2,34.98 42,34.98 C35.11,34.98 31.36,33.35 31.36,32.51 L31.36,29.71 C31.36,30.55 35.11,32.18 42,32.18 C44.2,32.18 46.06,32.02 47.6,31.76 C50.9,31.23 52.65,30.29 52.65,29.71 Z" fill="none" stroke="currentColor" stroke-width="1.5"/><path d="M52.82,51.65 L52.82,54.45 C52.82,54.47 52.82,54.49 52.82,54.51 L52.82,51.71 C52.82,51.69 52.82,51.67 52.82,51.65" fill="none" stroke="currentColor" stroke-width="1.5"/><path d="M52.82,51.71 L52.82,54.51 C52.82,54.54 52.81,54.56 52.8,54.59 L52.8,51.79 C52.81,51.76 52.82,51.74 52.82,51.71" fill="none" stroke="currentColor" stroke-width="1.5"/><path d="M52.8,51.79 L52.8,54.59 C52.79,54.63 52.77,54.67 52.75,54.71 L52.75,51.9 C52.77,51.87 52.79,51.83 52.8,51.79" fill="none" stroke="currentColor" stroke-width="1.5"/><path d="M42.76,54.01 C38.86,54.01 35.87,53.66 33.74,53.01 L33.74,51.93 C32.41,51.29 31.48,50.56 31.37,50.01 L31.38,54.59 C31.59,54.91 32.06,55.25 33.73,55.82 L33.73,55.81 C35.86,56.46 38.8,56.92 42.7,56.92 C49.86,56.92 52.82,55.32 52.82,54.45 L52.82,51.65 C52.82,52.52 49.91,54.01 42.76,54.01 Z" fill="none" stroke="currentColor" stroke-width="1.5"/><path d="M4.17,52.94 L4.17,55.54 C1.95,55.54 0.16,53.76 0.16,51.54 L0.03,49 C0.03,51.21 1.95,52.94 4.17,52.94 Z" fill="none" stroke="currentColor" stroke-width="1.5"/><path d="M30.02,52.91 L30.02,55.51 L4.17,55.54 L3.61,52.12 Z" fill="none" stroke="currentColor" stroke-width="1.5"/><path d="M52.55,23.98 C48.74,22.65 42.5,22.6 40.71,22.62 C35.49,22.69 29.55,23.93 28.55,25.47 L28.51,25.78 L28.53,26.73 L28.51,51.56 C28.51,52.01 29.49,52.62 30.02,52.92 L4.02,52.94 C1.8,52.94 0,51.15 0,48.94 L0,3.99 C0,1.79 1.8,0 4.02,0 L48.69,0 C50.91,0 52.71,1.79 52.71,4" fill="none" stroke="currentColor" stroke-width="1.5"/><path d="M52.84,34.56 L52.82,51.65 C52.82,52.52 49.86,54.12 42.7,54.12 C38.79,54.12 35.84,53.66 33.92,53.1 C32.49,52.63 31.49,52.12 31.37,51.72 L31.37,34.72 C33.45,36.01 37.74,36.68 42,36.68 L42.28,36.68 C42.73,36.67 43.15,36.67 43.59,36.65 L43.76,36.64 C44.14,36.63 44.49,36.61 44.86,36.58 C45.04,36.57 45.22,36.55 45.39,36.54 C45.68,36.51 45.96,36.49 46.23,36.47 C46.4,36.44 46.54,36.42 46.69,36.39 C46.99,36.36 47.28,36.32 47.59,36.28 C49.91,35.9 51.72,35.28 52.84,34.56 Z" fill="none" stroke="currentColor" stroke-width="1.5"/><path d="M39.46,46.46 C39.46,48.15 40.78,48.8 42.27,48.8 C43.25,48.8 44.75,48.52 44.75,47.23 C44.75,45.86 42.84,45.63 40.97,45.14 C39.08,44.64 37.18,43.92 37.18,41.54 C37.18,38.96 39.64,37.72 41.94,37.72 C44.59,37.72 47.03,38.87 47.03,41.79 L44.32,41.79 C44.23,40.27 43.15,39.88 41.81,39.88 C40.92,39.88 39.89,40.25 39.89,41.32 C39.89,42.29 40.49,42.41 43.68,43.23 C44.61,43.46 47.46,44.04 47.46,46.91 C47.46,49.23 45.62,50.96 42.17,50.96 C39.35,50.96 36.71,49.58 36.75,46.47 L39.46,46.47 Z" fill="none" stroke="currentColor" stroke-width="1.5"/></svg>