<svg xmlns="http://www.w3.org/2000/svg" viewBox="0 0 49.44 55.77" width="24" height="24"><path d="M23.97,11.22 L23.97,13.7 C23.92,13.61 23.9,13.53 23.9,13.44 L23.9,10.96 C23.9,11.05 23.92,11.13 23.97,11.22" fill="none" stroke="currentColor" stroke-width="1.5"/><path d="M23.9,13.44 L23.9,10.96 C23.9,11.05 23.92,11.13 23.97,11.22 L23.97,13.7 C23.92,13.61 23.9,13.53 23.9,13.44 Z" fill="none" stroke="currentColor" stroke-width="1.5"/><path d="M30.85,11.02 L30.63,13.7 L25.37,13.7 L25.16,11.08 Z" fill="none" stroke="currentColor" stroke-width="1.5"/><path d="M34.09,11.41 L34.09,13.89 C33.77,14.28 33.29,14.55 32.74,14.59 L32.74,12.11 C33.29,12.07 33.77,11.8 34.09,11.41" fill="none" stroke="currentColor" stroke-width="1.5"/><path d="M34.09,11.41 L34.09,13.89 C33.77,14.28 33.29,14.55 32.74,14.59 L32.74,12.11 C33.29,12.07 33.77,11.8 34.09,11.41 Z" fill="none" stroke="currentColor" stroke-width="1.5"/><path d="M38.14,14.26 L38.14,16.74 L34.09,13.89 L33.31,10.73 Z" fill="none" stroke="currentColor" stroke-width="1.5"/><path d="M25.37,11.22 L25.37,13.7 L19.07,21.2 L19.07,18.72 Z" fill="none" stroke="currentColor" stroke-width="1.5"/><path d="M34.1,18.94 L34.1,21.42 L30.63,13.7 L30.63,11.22 Z" fill="none" stroke="currentColor" stroke-width="1.5"/><path d="M38.98,19.45 L38.14,22.51 L36.9,22.93 L36.9,20.45 Z" fill="none" stroke="currentColor" stroke-width="1.5"/><path d="M47.81,22.14 L47.35,24.91 L45.2,24.91 L45.2,22.43 Z" fill="none" stroke="currentColor" stroke-width="1.5"/><rect x="42.02" y="22.43" width="0.36" height="2.48" fill="none" stroke="currentColor"/><path d="M49.44,20.69 L49.44,23.17 C49.44,23.25 49.43,23.32 49.42,23.39 L49.42,20.91 C49.43,20.84 49.44,20.77 49.44,20.69" fill="none" stroke="currentColor" stroke-width="1.5"/><path d="M49.42,20.91 L49.42,23.39 C49.41,23.47 49.39,23.56 49.37,23.63 L49.37,21.15 C49.39,21.08 49.41,20.99 49.42,20.91" fill="none" stroke="currentColor" stroke-width="1.5"/><path d="M49.37,21.15 L49.37,23.63 C49.34,23.73 49.3,23.82 49.25,23.9 L49.25,21.42 C49.3,21.34 49.34,21.25 49.37,21.15" fill="none" stroke="currentColor" stroke-width="1.5"/><path d="M49.25,21.42 L49.25,23.9 C48.9,24.53 48.13,24.91 47.35,24.91 L47.35,22.43 C48.13,22.43 48.9,22.05 49.25,21.42" fill="none" stroke="currentColor" stroke-width="1.5"/><path d="M49.44,20.69 L49.44,23.17 C49.44,24.22 48.39,24.91 47.35,24.91 L47.35,22.43 C48.39,22.43 49.44,21.74 49.44,20.69 Z" fill="none" stroke="currentColor" stroke-width="1.5"/><path d="M39.92,22.57 L39.92,25.05 C38.91,24.99 38.14,24.18 38.14,23.17 L38.14,20.69 C38.14,21.7 38.91,22.51 39.92,22.57" fill="none" stroke="currentColor" stroke-width="1.5"/><path d="M39.92,22.57 L39.92,25.05 C38.91,24.99 38.14,24.18 38.14,23.17 L38.14,20.69 C38.14,21.7 38.91,22.51 39.92,22.57 Z" fill="none" stroke="currentColor" stroke-width="1.5"/><path d="M34.95,21.09 L34.95,23.57 L19.78,28.89 L19.78,26.41 Z" fill="none" stroke="currentColor" stroke-width="1.5"/><path d="M37.74,26.69 L37.74,29.17 L34.81,23.14 L34.6,20.14 Z" fill="none" stroke="currentColor" stroke-width="1.5"/><path d="M42.35,21.39 L42.02,24.91 L40,29.22 L40,26.74 Z" fill="none" stroke="currentColor" stroke-width="1.5"/><path d="M39.84,30.6 L39.84,33.09 L38.95,31.31 L38.73,28.02 Z" fill="none" stroke="currentColor" stroke-width="1.5"/><path d="M38.95,28.83 L38.95,31.31 L36.5,36.28 L36.5,33.8 Z" fill="none" stroke="currentColor" stroke-width="1.5"/><path d="M33.56,35.08 L33.56,37.56 L19.78,34.89 L19.78,32.41 Z" fill="none" stroke="currentColor" stroke-width="1.5"/><path d="M38.14,36.05 L38.14,38.53 L35.64,37.94 L35.1,35.27 Z" fill="none" stroke="currentColor" stroke-width="1.5"/><path d="M19.78,35.19 L19.78,37.68 C19.78,37.84 19.77,38 19.75,38.16 L19.75,35.68 C19.77,35.52 19.78,35.36 19.78,35.19" fill="none" stroke="currentColor" stroke-width="1.5"/><path d="M19.75,35.68 L19.75,38.16 C19.72,38.32 19.68,38.48 19.63,38.64 L19.63,36.16 C19.68,36.01 19.72,35.84 19.75,35.68" fill="none" stroke="currentColor" stroke-width="1.5"/><path d="M19.63,36.16 L19.63,38.64 C19.58,38.8 19.51,38.96 19.44,39.1 L19.44,36.62 C19.51,36.48 19.58,36.32 19.63,36.16" fill="none" stroke="currentColor" stroke-width="1.5"/><path d="M19.44,36.62 L19.44,39.1 C19.21,39.52 18.86,39.86 18.42,40.11 L18.42,37.62 C18.86,37.38 19.2,37.04 19.44,36.62" fill="none" stroke="currentColor" stroke-width="1.5"/><path d="M19.78,35.19 L19.78,37.68 C19.78,38.75 19.3,39.62 18.42,40.11 L18.42,37.62 C19.3,37.14 19.78,36.27 19.78,35.19 Z" fill="none" stroke="currentColor" stroke-width="1.5"/><path d="M3.07,37.87 L3.07,40.35 C1.49,40.35 0,39.25 0,37.68 L0,35.19 C0,36.77 1.49,37.87 3.07,37.87" fill="none" stroke="currentColor" stroke-width="1.5"/><path d="M3.07,37.87 L3.07,40.35 C1.49,40.35 0,39.25 0,37.68 L0,35.19 C0,36.77 1.49,37.87 3.07,37.87 Z" fill="none" stroke="currentColor" stroke-width="1.5"/><path d="M16.27,37.87 L16.27,40.35 L3.07,40.35 L2.54,37.39 Z" fill="none" stroke="currentColor" stroke-width="1.5"/><path d="M47.89,40.56 L47.35,43.15 L40.01,43.15 L39.48,40.45 Z" fill="none" stroke="currentColor" stroke-width="1.5"/><path d="M49.44,39.76 L49.44,42.24 C49.44,42.3 49.44,42.37 49.43,42.42 L49.43,39.94 C49.44,39.89 49.44,39.83 49.44,39.76" fill="none" stroke="currentColor" stroke-width="1.5"/><path d="M49.43,39.94 L49.43,42.42 C49.42,42.48 49.41,42.53 49.39,42.58 L49.39,40.1 C49.41,40.05 49.42,40 49.43,39.94" fill="none" stroke="currentColor" stroke-width="1.5"/><path d="M49.39,40.1 L49.39,42.58 C49.38,42.63 49.36,42.67 49.34,42.71 L49.34,40.23 C49.36,40.19 49.38,40.15 49.39,40.1" fill="none" stroke="currentColor" stroke-width="1.5"/><path d="M49.34,40.23 L49.34,42.71 C49.11,43.11 48.58,43.15 47.96,43.15 C47.76,43.15 47.56,43.15 47.35,43.15 L47.35,40.67 C47.56,40.67 47.76,40.67 47.96,40.67 C48.58,40.67 49.11,40.63 49.34,40.23" fill="none" stroke="currentColor" stroke-width="1.5"/><path d="M49.44,39.76 L49.44,42.24 C49.44,43.07 48.77,43.15 47.96,43.15 C47.76,43.15 47.56,43.15 47.35,43.15 L47.35,40.67 C47.56,40.67 47.76,40.67 47.96,40.67 C48.77,40.67 49.44,40.59 49.44,39.76 Z" fill="none" stroke="currentColor" stroke-width="1.5"/><path d="M40.01,40.67 L40.01,43.15 C39.69,43.15 39.23,43.35 38.89,43.35 C38.78,43.35 38.68,43.33 38.6,43.28 L38.6,40.8 C38.68,40.85 38.78,40.87 38.89,40.87 C39.23,40.87 39.7,40.67 40.01,40.67" fill="none" stroke="currentColor" stroke-width="1.5"/><path d="M40.01,40.67 L40.01,43.15 C39.69,43.15 39.23,43.35 38.89,43.35 C38.78,43.35 38.68,43.33 38.6,43.28 L38.6,40.8 C38.68,40.85 38.78,40.87 38.89,40.87 C39.23,40.87 39.7,40.67 40.01,40.67 Z" fill="none" stroke="currentColor" stroke-width="1.5"/><path d="M35.64,35.46 L35.64,37.94 L32.33,44.54 L32.33,42.06 Z" fill="none" stroke="currentColor" stroke-width="1.5"/><path d="M39.23,39.98 L38.6,43.28 L33.9,47.33 L33.9,44.85 Z" fill="none" stroke="currentColor" stroke-width="1.5"/><path d="M24.01,45.42 L24.01,47.89 L16.27,40.35 L15.85,37.02 Z" fill="none" stroke="currentColor" stroke-width="1.5"/><path d="M25.27,53.29 L25.27,55.77 C24.21,55.77 24.01,54.95 24.01,53.91 L24.01,51.43 C24.01,52.47 24.21,53.29 25.27,53.29" fill="none" stroke="currentColor" stroke-width="1.5"/><path d="M25.27,53.29 L25.27,55.77 C24.21,55.77 24.01,54.95 24.01,53.91 L24.01,51.43 C24.01,52.47 24.21,53.29 25.27,53.29 Z" fill="none" stroke="currentColor" stroke-width="1.5"/><path d="M33.9,51.42 L33.9,53.9 C33.9,54.13 33.89,54.34 33.86,54.54 L33.86,52.05 C33.89,51.86 33.9,51.65 33.9,51.42" fill="none" stroke="currentColor" stroke-width="1.5"/><path d="M33.86,52.05 L33.86,54.54 C33.84,54.68 33.81,54.81 33.77,54.93 L33.77,52.45 C33.81,52.33 33.84,52.19 33.86,52.05" fill="none" stroke="currentColor" stroke-width="1.5"/><path d="M33.77,52.45 L33.77,54.93 C33.74,55.03 33.7,55.12 33.65,55.21 L33.65,52.73 C33.7,52.64 33.74,52.55 33.77,52.45" fill="none" stroke="currentColor" stroke-width="1.5"/><path d="M33.65,52.73 L33.65,55.21 C33.46,55.56 33.13,55.77 32.6,55.77 L32.6,53.29 C33.13,53.29 33.46,53.08 33.65,52.73" fill="none" stroke="currentColor" stroke-width="1.5"/><path d="M33.9,51.42 L33.9,53.9 C33.9,54.95 33.64,55.77 32.6,55.77 L32.6,53.29 C33.64,53.29 33.9,52.47 33.9,51.42 Z" fill="none" stroke="currentColor" stroke-width="1.5"/><path d="M33.17,52.88 L32.6,55.77 L25.27,55.77 L24.98,53.02 Z" fill="none" stroke="currentColor" stroke-width="1.5"/><path d="M47.35,22.43 L45.2,22.43 L45.2,30.85 L47.35,30.85 C48.39,30.85 49.44,31.43 49.44,32.47 L49.44,39.76 C49.44,40.59 48.77,40.67 47.96,40.67 C47.76,40.67 47.56,40.67 47.35,40.67 L40.01,40.67 C39.69,40.67 39.23,40.87 38.89,40.87 C38.78,40.87 38.68,40.85 38.6,40.8 L33.9,44.85 L33.9,51.42 C33.9,52.47 33.64,53.29 32.6,53.29 L25.27,53.29 C24.21,53.29 24.01,52.47 24.01,51.42 L24.01,45.41 L16.27,37.87 L3.07,37.87 C1.49,37.87 0,36.77 0,35.19 L0,21.18 C0,19.62 1.49,18.22 3.07,18.22 L17.19,18.22 L17.56,18.31 L23.97,11.22 C23.8,10.93 24.01,10.6 24.01,10.24 L24.01,2.95 C24.01,1.92 24.21,0 25.27,0 L32.6,0 C33.64,0 33.9,1.92 33.9,2.95 L33.9,9.39 L38.23,12.09 C38.58,11.65 39.4,11.22 40.01,11.22 L47.35,11.22 C48.39,11.22 49.44,12.37 49.44,13.42 L49.44,20.69 C49.44,21.74 48.39,22.43 47.35,22.43 Z M37.74,26.69 L34.95,21.09 L19.78,26.41 L19.78,30.49 L34.42,33.42 L37.74,26.69 M25.37,11.22 L19.07,18.72 C19.58,19.23 19.78,20.4 19.78,21.18 L19.78,24.4 L34.1,18.94 L30.63,11.22 L25.37,11.22 M25.27,42.06 L30.2,42.06 L33.56,35.08 L19.78,32.41 L19.78,35.19 C19.78,36.27 19.3,37.14 18.42,37.62 L23.72,42.96 C24.07,42.47 24.62,42.06 25.27,42.06 M38.14,39.51 L38.14,36.05 L35.64,35.46 L32.33,42.06 L32.6,42.06 C33.14,42.06 33.64,42.4 33.99,42.75 L38.14,39.51 M34.09,11.41 C33.77,11.8 33.29,12.07 32.74,12.11 L36.05,18.75 L38.14,18.02 L38.14,14.26 L34.09,11.41 M42.38,30.85 L42.38,22.43 L42.02,22.43 L40,26.74 L41.94,30.85 L42.38,30.85 M38.14,32.47 C38.14,31.5 38.88,30.71 39.84,30.6 L38.95,28.83 L36.5,33.8 L38.14,34.13 L38.14,32.47 M38.94,24.55 L39.92,22.57 C38.91,22.51 38.14,21.7 38.14,20.69 L38.14,20.03 L36.9,20.45 L38.94,24.55" fill="none" stroke="currentColor" stroke-width="1.5"/><path d="M30.22,30.94 C30.22,33.15 28.43,34.94 26.22,34.94 L8.22,34.94 C6.01,34.94 4.22,33.15 4.22,30.94 L4.22,24.94 C4.22,22.74 6.01,20.94 8.22,20.94 L26.22,20.94 C28.43,20.94 30.22,22.74 30.22,24.94 L30.22,30.94 Z" fill="none" stroke="currentColor" stroke-width="1.5"/><rect x="0" y="0" width="0" height="0" fill="none" stroke="currentColor"/></svg>