<svg xmlns="http://www.w3.org/2000/svg" viewBox="0 0 66.94 61.79" width="24" height="24"><rect x="0" y="0" width="66.94" height="16" fill="none" stroke="currentColor"/><rect x="0" y="16" width="66.94" height="2.62" fill="none" stroke="currentColor"/><rect x="0" y="22.06" width="66.94" height="16" fill="none" stroke="currentColor"/><rect x="0" y="38.06" width="66.94" height="2.62" fill="none" stroke="currentColor"/><rect x="0" y="43.18" width="66.94" height="16" fill="none" stroke="currentColor"/><rect x="0" y="59.17" width="66.94" height="2.62" fill="none" stroke="currentColor"/><path d="M8.25,12.79 L6.72,12.79 L6.72,5.71 L4.73,5.71 L4.73,4.69 L4.88,4.69 C5.8,4.69 6.86,4.47 7.13,3.23 L7.13,3.04 L8.25,3.04 L8.25,12.79 Z M16.87,4.47 C15.38,6.47 14.08,9.86 13.86,12.79 L12.24,12.79 C12.46,9.88 13.86,6.63 15.39,4.64 L11.2,4.64 L11.2,3.23 L16.87,3.23 L16.87,4.47 Z M23.71,12.79 L18.12,12.79 C18.12,8.55 22.13,8.64 22.13,5.61 C22.13,4.81 21.79,4.14 20.94,4.14 C19.79,4.14 19.61,5.19 19.61,6.18 L18.15,6.18 C18.15,4.24 18.93,3.04 20.97,3.04 C22.93,3.04 23.67,4.22 23.67,5.64 C23.67,8.88 20.56,9.08 19.84,11.47 L23.71,11.47 L23.71,12.79 Z M26.94,12.79 L25.4,12.79 L25.4,10.97 L26.94,10.97 L26.94,12.79 Z M32.53,12.79 L30.99,12.79 L30.99,5.71 L29.01,5.71 L29.01,4.69 L29.15,4.69 C30.07,4.69 31.14,4.47 31.41,3.23 L31.41,3.04 L32.53,3.04 L32.53,12.79 Z M38.28,12.98 C35.87,12.98 35.41,11.11 35.41,8.31 C35.41,5.39 35.93,3.04 38.46,3.04 C40.13,3.04 41.03,3.81 41.03,5.41 L39.5,5.41 C39.5,4.84 39.24,4.14 38.47,4.14 C37.03,4.14 36.95,6.08 36.95,7.5 L36.99,7.53 C37.36,6.83 38.01,6.49 38.85,6.49 C40.16,6.49 41.21,7.46 41.21,9.4 C41.21,11.64 40.31,12.98 38.28,12.98 Z M44.34,12.79 L42.8,12.79 L42.8,10.97 L44.34,10.97 L44.34,12.79 Z M48.83,12.98 C46.99,12.98 45.97,11.8 45.97,8.01 C45.97,4.22 46.99,3.04 48.83,3.04 C50.66,3.04 51.69,4.22 51.69,8.01 C51.69,11.8 50.66,12.98 48.83,12.98 Z M54.85,12.79 L53.32,12.79 L53.32,10.97 L54.85,10.97 L54.85,12.79 Z M59.34,12.98 C57.51,12.98 56.48,11.8 56.48,8.01 C56.48,4.22 57.51,3.04 59.34,3.04 C61.18,3.04 62.2,4.22 62.2,8.01 C62.2,11.8 61.18,12.98 59.34,12.98 Z" fill="none" stroke="currentColor" stroke-width="1.5"/><path d="M59.34,25.11 C61.18,25.11 62.2,26.3 62.2,30.09 C62.2,33.87 61.18,35.06 59.34,35.06 C57.51,35.06 56.48,33.87 56.48,30.09 C56.48,26.3 57.51,25.11 59.34,25.11 Z M53.32,33.04 L54.85,33.04 L54.85,34.86 L53.32,34.86 L53.32,33.04 Z M46.4,26.77 L46.55,26.77 C47.46,26.77 48.53,26.55 48.8,25.31 L48.8,25.11 L49.92,25.11 L49.92,34.86 L48.38,34.86 L48.38,27.78 L46.4,27.78 L46.4,26.77 Z M42.8,33.04 L44.34,33.04 L44.34,34.86 L42.8,34.86 L42.8,33.04 Z M38.46,25.11 C40.13,25.11 41.03,25.88 41.03,27.48 L39.5,27.48 C39.5,26.92 39.24,26.21 38.47,26.21 C37.03,26.21 36.95,28.16 36.95,29.57 L36.99,29.6 C37.36,28.9 38.01,28.57 38.85,28.57 C40.16,28.57 41.21,29.53 41.21,31.48 C41.21,33.72 40.31,35.06 38.28,35.06 C35.87,35.06 35.41,33.18 35.41,30.39 C35.41,27.47 35.94,25.11 38.46,25.11 Z M29,26.77 L29.15,26.77 C30.07,26.77 31.13,26.55 31.41,25.31 L31.41,25.11 L32.52,25.11 L32.52,34.86 L30.99,34.86 L30.99,27.78 L29,27.78 L29,26.77 Z M25.4,33.04 L26.94,33.04 L26.94,34.86 L25.4,34.86 L25.4,33.04 Z M20.94,26.21 C19.79,26.21 19.61,27.26 19.61,28.25 L18.15,28.25 C18.15,26.31 18.93,25.11 20.97,25.11 C22.93,25.11 23.67,26.3 23.67,27.72 C23.67,30.95 20.56,31.16 19.84,33.54 L23.71,33.54 L23.71,34.86 L18.12,34.86 C18.12,30.62 22.13,30.72 22.13,27.69 C22.13,26.89 21.79,26.21 20.94,26.21 Z M11.2,25.31 L16.87,25.31 L16.87,26.54 C15.38,28.54 14.08,31.93 13.86,34.86 L12.24,34.86 C12.46,31.96 13.86,28.71 15.39,26.71 L11.2,26.71 L11.2,25.31 Z M4.73,26.77 L4.88,26.77 C5.8,26.77 6.86,26.55 7.13,25.31 L7.13,25.11 L8.25,25.11 L8.25,34.86 L6.72,34.86 L6.72,27.78 L4.73,27.78 L4.73,26.77 Z" fill="none" stroke="currentColor" stroke-width="1.5"/><path d="M59.34,46.24 C61.18,46.24 62.2,47.43 62.2,51.21 C62.2,55 61.18,56.18 59.34,56.18 C57.51,56.18 56.48,55 56.48,51.21 C56.48,47.42 57.51,46.24 59.34,46.24 Z M53.32,54.17 L54.85,54.17 L54.85,55.99 L53.32,55.99 L53.32,54.17 Z M48.85,47.34 C47.71,47.34 47.52,48.39 47.52,49.38 L46.06,49.38 C46.06,47.44 46.84,46.24 48.88,46.24 C50.84,46.24 51.58,47.42 51.58,48.84 C51.58,52.08 48.48,52.28 47.75,54.67 L51.62,54.67 L51.62,55.99 L46.03,55.99 C46.03,51.75 50.04,51.84 50.04,48.81 C50.04,48.02 49.7,47.34 48.85,47.34 Z M42.8,54.17 L44.34,54.17 L44.34,55.99 L42.8,55.99 L42.8,54.17 Z M38.46,46.24 C40.13,46.24 41.03,47.01 41.03,48.61 L39.5,48.61 C39.5,48.04 39.24,47.34 38.47,47.34 C37.03,47.34 36.95,49.28 36.95,50.7 L36.99,50.73 C37.36,50.03 38.01,49.7 38.85,49.7 C40.16,49.7 41.21,50.66 41.21,52.6 C41.21,54.85 40.31,56.18 38.28,56.18 C35.87,56.18 35.41,54.31 35.41,51.51 C35.41,48.6 35.94,46.24 38.46,46.24 Z M29,47.89 L29.15,47.89 C30.07,47.89 31.13,47.67 31.41,46.43 L31.41,46.24 L32.52,46.24 L32.52,55.99 L30.99,55.99 L30.99,48.91 L29,48.91 L29,47.89 Z M25.4,54.17 L26.94,54.17 L26.94,55.99 L25.4,55.99 L25.4,54.17 Z M20.94,47.34 C19.79,47.34 19.61,48.39 19.61,49.38 L18.15,49.38 C18.15,47.44 18.93,46.24 20.97,46.24 C22.93,46.24 23.67,47.42 23.67,48.84 C23.67,52.08 20.56,52.28 19.84,54.67 L23.71,54.67 L23.71,55.99 L18.12,55.99 C18.12,51.75 22.13,51.84 22.13,48.81 C22.13,48.02 21.79,47.34 20.94,47.34 Z M11.2,46.43 L16.87,46.43 L16.87,47.67 C15.38,49.67 14.08,53.06 13.86,55.99 L12.24,55.99 C12.46,53.08 13.86,49.83 15.39,47.84 L11.2,47.84 L11.2,46.43 Z M4.73,47.89 L4.88,47.89 C5.8,47.89 6.86,47.67 7.13,46.43 L7.13,46.24 L8.25,46.24 L8.25,55.99 L6.72,55.99 L6.72,48.91 L4.73,48.91 L4.73,47.89 Z" fill="none" stroke="currentColor" stroke-width="1.5"/><path d="M48.83,4.28 C47.77,4.28 47.51,5.32 47.51,8.15 C47.51,10.99 47.78,12.02 48.83,12.02 C49.88,12.02 50.15,10.99 50.15,8.15 C50.15,5.32 49.88,4.28 48.83,4.28 Z" fill="none" stroke="currentColor" stroke-width="1.5"/><path d="M59.34,4.28 C58.29,4.28 58.02,5.32 58.02,8.15 C58.02,10.99 58.29,12.02 59.34,12.02 C60.4,12.02 60.67,10.99 60.67,8.15 C60.67,5.32 60.4,4.28 59.34,4.28 Z" fill="none" stroke="currentColor" stroke-width="1.5"/><path d="M59.34,34.1 C60.4,34.1 60.67,33.06 60.67,30.23 C60.67,27.39 60.4,26.36 59.34,26.36 C58.29,26.36 58.02,27.39 58.02,30.23 C58.02,33.06 58.29,34.1 59.34,34.1 Z" fill="none" stroke="currentColor" stroke-width="1.5"/><path d="M38.4,34.1 C39.35,34.1 39.67,33.15 39.67,32 C39.67,30.65 39.28,29.9 38.4,29.9 C37.28,29.9 37.08,30.9 37.08,32.08 C37.08,33.2 37.5,34.1 38.4,34.1 Z" fill="none" stroke="currentColor" stroke-width="1.5"/><path d="M59.34,55.22 C60.4,55.22 60.67,54.19 60.67,51.36 C60.67,48.52 60.4,47.48 59.34,47.48 C58.29,47.48 58.02,48.52 58.02,51.36 C58.02,54.19 58.29,55.22 59.34,55.22 Z" fill="none" stroke="currentColor" stroke-width="1.5"/><path d="M38.4,55.22 C39.35,55.22 39.67,54.27 39.67,53.13 C39.67,51.78 39.28,51.02 38.4,51.02 C37.28,51.02 37.08,52.03 37.08,53.2 C37.08,54.33 37.5,55.22 38.4,55.22 Z" fill="none" stroke="currentColor" stroke-width="1.5"/><path d="M38.4,12.02 C39.35,12.02 39.67,11.07 39.67,9.93 C39.67,8.58 39.28,7.82 38.4,7.82 C37.28,7.82 37.08,8.83 37.08,10 C37.08,11.13 37.5,12.02 38.4,12.02 Z" fill="none" stroke="currentColor" stroke-width="1.5"/></svg>