<svg xmlns="http://www.w3.org/2000/svg" viewBox="0 0 58.98 56.92" width="24" height="24"><path d="M56.64,10.68 L56.64,12.98 C56.54,13.1 55.57,14.23 54.61,15.97 L54.61,13.67 C55.57,11.92 56.54,10.79 56.64,10.68" fill="none" stroke="currentColor" stroke-width="1.5"/><path d="M54.61,13.67 L54.61,15.97 C54.11,16.87 53.62,17.94 53.24,19.11 L53.24,16.8 C53.62,15.63 54.11,14.56 54.61,13.67" fill="none" stroke="currentColor" stroke-width="1.5"/><path d="M53.24,16.8 L53.24,19.11 C53.01,19.84 52.82,20.61 52.7,21.41 L52.7,19.1 C52.82,18.3 53.01,17.53 53.24,16.8" fill="none" stroke="currentColor" stroke-width="1.5"/><path d="M52.7,19.1 L52.7,21.41 C52.62,21.97 52.58,22.54 52.58,23.13 L52.58,20.82 C52.58,20.23 52.62,19.66 52.7,19.1" fill="none" stroke="currentColor" stroke-width="1.5"/><path d="M52.58,23.13 L52.58,20.82 C52.58,15.43 56.43,10.92 56.64,10.67 L56.64,12.98 C56.43,13.23 52.58,17.73 52.58,23.13 Z" fill="none" stroke="currentColor" stroke-width="1.5"/><path d="M5.4,21.42 L5.4,23.73 C5.4,18.95 1.56,14.14 1.36,13.88 L1.36,11.57 C1.56,11.83 5.4,16.65 5.4,21.42" fill="none" stroke="currentColor" stroke-width="1.5"/><path d="M5.4,21.42 L5.4,23.73 C5.4,18.95 1.56,14.14 1.36,13.88 L1.36,11.57 C1.56,11.83 5.4,16.65 5.4,21.42 Z" fill="none" stroke="currentColor" stroke-width="1.5"/><path d="M30.12,54.39 L30.12,56.7 C23.68,48.93 3.81,55.41 1.36,39.97 C1.2,38.98 1.13,38.1 1.13,37.29 L1.13,34.99 C1.13,35.79 1.2,36.68 1.36,37.66 C3.81,53.1 23.68,46.62 30.12,54.39" fill="none" stroke="currentColor" stroke-width="1.5"/><path d="M1.13,37.29 L1.13,34.99 C1.13,35.79 1.2,36.68 1.36,37.66 C3.81,53.1 23.68,46.62 30.12,54.39 L30.12,56.7 C23.68,48.93 3.81,55.41 1.36,39.97 C1.2,38.98 1.13,38.1 1.13,37.29 Z" fill="none" stroke="currentColor" stroke-width="1.5"/><path d="M29.93,0 C30.24,0 30.55,0.14 30.62,0.22 C33.57,3.56 36.54,4.67 39.19,4.67 C44.51,4.67 48.33,0.41 48.53,0.18 L56.64,10.68 C56.42,10.93 52.36,15.68 52.58,21.27 C52.85,27.84 58.98,30.22 57.48,37.67 C54.74,51.08 41.63,45.66 31.02,54.39 C30.81,54.55 30.65,54.61 30.51,54.61 C30.24,54.61 30.12,54.4 30.12,54.39 C23.68,46.62 3.81,53.1 1.36,37.66 C0,29.21 5.11,28.17 5.39,21.82 C5.62,16.92 1.57,11.83 1.36,11.57 L10.79,0.18 C10.99,0.39 14.92,4.32 20.44,4.32 C23.2,4.32 26.3,3.29 29.41,0.18 C29.55,0.05 29.74,0 29.93,0 Z" fill="none" stroke="currentColor" stroke-width="1.5"/><path d="M57.71,35.39 L57.71,37.7 C57.71,38.2 57.68,38.72 57.6,39.27 L57.6,36.96 C57.68,36.41 57.71,35.89 57.71,35.39" fill="none" stroke="currentColor" stroke-width="1.5"/><path d="M57.6,36.96 L57.6,39.27 C57.56,39.5 57.52,39.73 57.48,39.97 C57.34,40.64 57.18,41.26 56.99,41.83 L56.99,39.53 C57.18,38.95 57.34,38.33 57.48,37.66 C57.52,37.43 57.56,37.19 57.6,36.96" fill="none" stroke="currentColor" stroke-width="1.5"/><path d="M56.99,39.53 L56.99,41.83 C56.71,42.71 56.38,43.48 55.99,44.18 L55.99,41.87 C56.38,41.18 56.71,40.4 56.99,39.53" fill="none" stroke="currentColor" stroke-width="1.5"/><path d="M55.99,41.87 L55.99,44.18 C51.51,52.26 40.31,49.06 31.02,56.7 C30.81,56.86 30.64,56.92 30.51,56.92 C30.24,56.92 30.12,56.71 30.11,56.7 L30.11,54.39 C30.12,54.4 30.24,54.61 30.51,54.61 C30.64,54.61 30.81,54.55 31.02,54.39 C40.31,46.75 51.51,49.95 55.99,41.87" fill="none" stroke="currentColor" stroke-width="1.5"/><path d="M57.71,35.39 L57.71,37.7 C57.71,38.41 57.64,39.16 57.48,39.97 C54.74,53.39 41.63,47.97 31.02,56.7 C30.81,56.86 30.65,56.92 30.51,56.92 C30.24,56.92 30.12,56.71 30.12,56.7 L30.12,54.39 C30.12,54.4 30.24,54.61 30.51,54.61 C30.65,54.61 30.81,54.55 31.02,54.39 C41.63,45.66 54.74,51.08 57.48,37.66 C57.64,36.85 57.71,36.1 57.71,35.39 Z" fill="none" stroke="currentColor" stroke-width="1.5"/></svg>