<svg xmlns="http://www.w3.org/2000/svg" viewBox="0 0 75.0 53.0" width="24" height="24"><rect x="0" y="30.8" width="75" height="22.2" fill="none" stroke="currentColor"/><rect x="0" y="0" width="75" height="49.9" fill="none" stroke="currentColor"/><path d="M20.3,29.5 L20.3,29.5 C17.6,29.5 15.5,27.3 15.5,24.7 L15.5,24.7 C15.5,22 17.7,19.9 20.3,19.9 L20.3,19.9 C23,19.9 25.1,22.1 25.1,24.7 L25.1,24.7 C25.2,27.3 23,29.5 20.3,29.5 Z" fill="none" stroke="currentColor" stroke-width="1.5"/><path d="M43.7,29.5 L31.2,29.5 L37.4,19.8 Z" fill="none" stroke="currentColor" stroke-width="1.5"/><rect x="49.7" y="19.8" width="9.7" height="9.7" fill="none" stroke="currentColor"/><path d="M38.3,0 L38.5,1.6 C38.5,1.9 38.8,2 39,2 L40.8,1.8 C41.2,2.9 41.7,4 42.4,4.9 L41.2,6.2 C41,6.4 41,6.7 41.2,6.9 L43.5,8.9 C43.7,9.1 44,9.1 44.2,8.9 L45.4,7.6 C46.4,8.2 47.5,8.6 48.6,8.9 L48.5,10.7 C48.5,11 48.7,11.2 49,11.2 L52,11.3 C52.3,11.3 52.5,11.1 52.5,10.8 L52.6,9 C53.2,8.9 53.7,8.8 54.3,8.6 C54.9,8.4 55.4,8.2 55.9,7.9 L57,9.3 C57.2,9.5 57.5,9.5 57.7,9.4 L60.1,7.5 C60.3,7.3 60.3,7 60.2,6.8 L59.1,5.4 C59.9,4.5 60.5,3.5 60.9,2.5 L62.6,2.9 C62.9,3 63.1,2.8 63.2,2.5 L63.7,0 L38.3,0 Z" fill="none" stroke="currentColor" stroke-width="1.5"/><path d="M34.1,48.2 L35.7,47.4 C35.9,47.3 36,47 35.9,46.8 L34.5,44.1 C34.4,43.9 34.1,43.8 33.9,43.9 L32.3,44.8 C31.6,43.9 30.7,43.1 29.8,42.5 L30.5,40.8 C30.6,40.6 30.5,40.3 30.2,40.2 L27.4,39.1 C27.2,39 26.9,39.1 26.8,39.4 L26.1,41.1 C25,40.9 23.8,40.8 22.7,41 L22.1,39.2 C22,39 21.8,38.8 21.5,38.9 L18.6,39.8 C18.4,39.9 18.2,40.1 18.3,40.4 L18.9,42.2 C17.9,42.8 17,43.5 16.2,44.3 L14.6,43.3 C14.4,43.2 14.1,43.2 13.9,43.4 L12.3,46 C12.2,46.2 12.2,46.5 12.4,46.7 L13.9,47.7 C13.6,48.5 13.4,49.3 13.3,50.1 L34.5,50.1 C34.4,49.3 34.2,48.8 34.1,48.2 Z" fill="none" stroke="currentColor" stroke-width="1.5"/></svg>