<svg xmlns="http://www.w3.org/2000/svg" viewBox="0 0 68.2 82.4" width="24" height="24"><path d="M68.2,26.7 L34.1,16.5 L34.1,0 L68.2,17.1 Z" fill="none" stroke="currentColor" stroke-width="1.5"/><path d="M58.6,35.4 L68.2,36.4 L68.2,17.1 L58.6,12.3 Z" fill="none" stroke="currentColor" stroke-width="1.5"/><path d="M34.1,27.8 L58.6,23.8 L58.6,35.4 L34.1,36.7 Z" fill="none" stroke="currentColor" stroke-width="1.5"/><path d="M34.1,36.7 L58.6,35.4 L68.2,36.4 L45,37.3 Z" fill="none" stroke="currentColor" stroke-width="1.5"/><path d="M68.2,55.7 L34.1,65.9 L34.1,82.4 L68.2,65.3 Z" fill="none" stroke="currentColor" stroke-width="1.5"/><path d="M58.6,47 L68.2,46 L68.2,65.3 L58.6,70.1 Z" fill="none" stroke="currentColor" stroke-width="1.5"/><path d="M34.1,54.6 L58.6,58.6 L58.6,47 L34.1,45.7 Z" fill="none" stroke="currentColor" stroke-width="1.5"/><path d="M34.1,45.7 L58.6,47 L68.2,46 L45,45.1 Z" fill="none" stroke="currentColor" stroke-width="1.5"/><path d="M0,26.7 L34.1,16.5 L34.1,0 L0,17.1 Z" fill="none" stroke="currentColor" stroke-width="1.5"/><path d="M9.6,35.4 L0,36.4 L0,17.1 L9.6,12.3 Z" fill="none" stroke="currentColor" stroke-width="1.5"/><path d="M34.1,27.8 L9.6,23.8 L9.6,35.4 L34.1,36.7 Z" fill="none" stroke="currentColor" stroke-width="1.5"/><path d="M34.1,36.7 L9.6,35.4 L0,36.4 L23.2,37.3 Z" fill="none" stroke="currentColor" stroke-width="1.5"/><path d="M0,55.7 L34.1,65.9 L34.1,82.4 L0,65.3 Z" fill="none" stroke="currentColor" stroke-width="1.5"/><path d="M9.6,47 L0,46 L0,65.3 L9.6,70.1 Z" fill="none" stroke="currentColor" stroke-width="1.5"/><path d="M34.1,54.6 L9.6,58.6 L9.6,47 L34.1,45.7 Z" fill="none" stroke="currentColor" stroke-width="1.5"/><path d="M34.1,45.7 L9.6,47 L0,46 L23.2,45.1 Z" fill="none" stroke="currentColor" stroke-width="1.5"/><path d="M48.5,31.1 L34.1,28.9 L34.1,53.6 L48.5,51.4 Z" fill="none" stroke="currentColor" stroke-width="1.5"/><path d="M19.7,31.1 L34.1,28.9 L34.1,53.6 L19.7,51.4 Z" fill="none" stroke="currentColor" stroke-width="1.5"/><path d="M58.6,23.8 L34.1,27.8 L9.6,23.8 L34.1,16.4 Z" fill="none" stroke="currentColor" stroke-width="1.5"/><path d="M58.6,58.6 L34.1,54.6 L9.6,58.6 L34.1,66 Z" fill="none" stroke="currentColor" stroke-width="1.5"/></svg>