<svg xmlns="http://www.w3.org/2000/svg" viewBox="0 0 90.24 56.39" width="24" height="24"><path d="M22.56,9.42 L22.56,11.94 C22.56,10.17 22.22,8.5 21.59,6.96 L21.59,4.45 C22.22,5.99 22.56,7.66 22.56,9.42 Z" fill="none" stroke="currentColor" stroke-width="1.5"/><rect x="0" y="0" width="0" height="0" fill="none" stroke="currentColor"/><path d="M22.56,9.42 L22.56,11.94 C22.56,10.17 22.22,8.5 21.59,6.96 L21.59,4.45 C22.22,5.99 22.56,7.66 22.56,9.42" fill="none" stroke="currentColor" stroke-width="1.5"/><path d="M9.3,0 C14.43,0 18.58,4.14 18.58,9.23 C18.58,14.32 14.43,18.44 9.3,18.44 C4.17,18.44 0,14.32 0,9.23 C0,4.13 4.17,0 9.3,0 Z" fill="none" stroke="currentColor" stroke-width="1.5"/><rect x="0" y="0" width="0" height="0" fill="none" stroke="currentColor"/><path d="M18.58,9.23 L18.58,11.74 C18.58,16.83 14.43,20.96 9.3,20.96 C4.17,20.96 0,16.83 0,11.74 L0,9.23 C0,14.32 4.17,18.44 9.3,18.44 C14.43,18.44 18.58,14.32 18.58,9.23 Z" fill="none" stroke="currentColor" stroke-width="1.5"/><rect x="0" y="0" width="0" height="0" fill="none" stroke="currentColor"/><path d="M18.58,9.23 L18.58,11.74 C18.58,12.19 18.55,12.63 18.48,13.06 L18.48,10.55 C18.55,10.12 18.58,9.68 18.58,9.23" fill="none" stroke="currentColor" stroke-width="1.5"/><path d="M18.48,10.55 L18.48,13.06 C18.41,13.57 18.3,14.07 18.14,14.55 L18.14,12.04 C18.3,11.55 18.41,11.06 18.48,10.55" fill="none" stroke="currentColor" stroke-width="1.5"/><path d="M18.28,11.5 L18.14,14.55 C17.96,15.11 17.73,15.66 17.44,16.17 L17.44,13.65 C17.73,13.14 17.96,12.6 18.14,12.04" fill="none" stroke="currentColor" stroke-width="1.5"/><path d="M17.66,13 L17.44,16.17 C15.86,19.02 12.81,20.96 9.3,20.96 C4.16,20.96 0,16.83 0,11.74 L0,9.23 C0,14.32 4.16,18.44 9.3,18.44 C12.81,18.44 15.86,16.51 17.44,13.65" fill="none" stroke="currentColor" stroke-width="1.5"/><path d="M90.24,4.45 L90.24,19.55 L17.85,19.55 C20.73,17.12 22.56,13.49 22.56,9.42 C22.56,7.66 22.22,5.99 21.59,4.44 L90.24,4.44 Z" fill="none" stroke="currentColor" stroke-width="1.5"/><rect x="17.85" y="19.55" width="72.39" height="2.52" fill="none" stroke="currentColor"/><path d="M7.83,23.8 L90.24,23.8 L90.24,36.4 L7.83,36.4 L7.83,23.8 Z M87.56,33.75 L87.56,26.45 L10.51,26.45 L10.51,33.75 L87.56,33.75" fill="none" stroke="currentColor" stroke-width="1.5"/><rect x="7.83" y="36.4" width="82.4" height="2.52" fill="none" stroke="currentColor"/><path d="M7.83,41.26 L90.24,41.26 L90.24,53.87 L7.83,53.87 L7.83,41.26 Z M87.56,51.22 L87.56,43.92 L10.51,43.92 L10.51,51.22 L87.56,51.22" fill="none" stroke="currentColor" stroke-width="1.5"/><rect x="7.83" y="53.87" width="82.4" height="2.51" fill="none" stroke="currentColor"/><path d="M38.68,7.38 L40.77,7.38 L40.77,11.32 L43.21,11.32 L43.21,7.38 L45.3,7.38 L45.3,17.67 L43.21,17.67 L43.21,13.1 L40.77,13.1 L40.77,17.67 L38.68,17.67 L38.68,7.38 Z" fill="none" stroke="currentColor" stroke-width="1.5"/><path d="M52.81,7.38 L52.81,9.08 L50.55,9.08 L50.55,17.67 L48.46,17.67 L48.46,9.08 L46.2,9.08 L46.2,7.38 L52.81,7.38 Z" fill="none" stroke="currentColor" stroke-width="1.5"/><path d="M59.77,7.38 L59.77,9.08 L57.51,9.08 L57.51,17.67 L55.42,17.67 L55.42,9.08 L53.16,9.08 L53.16,7.38 L59.77,7.38 Z" fill="none" stroke="currentColor" stroke-width="1.5"/><path d="M60.68,7.38 L64.33,7.38 C66.45,7.38 67.17,8.93 67.17,10.47 C67.17,12.6 65.85,13.56 63.88,13.56 L62.76,13.56 L62.76,17.67 L60.68,17.67 L60.68,7.38 Z M62.76,12.04 L63.69,12.04 C64.52,12.04 65.08,11.55 65.08,10.5 C65.08,9.49 64.68,8.91 63.64,8.91 L62.76,8.91 L62.76,12.04 Z" fill="none" stroke="currentColor" stroke-width="1.5"/></svg>