<svg xmlns="http://www.w3.org/2000/svg" viewBox="0 0 89.67 56.02" width="24" height="24"><path d="M22.43,9.12 L22.43,11.62 C22.43,9.87 22.08,8.2 21.46,6.66 L21.46,4.17 C22.08,5.71 22.43,7.38 22.43,9.12 Z" fill="none" stroke="currentColor" stroke-width="1.5"/><rect x="0" y="0" width="0" height="0" fill="none" stroke="currentColor"/><path d="M22.43,9.12 L22.43,11.62 C22.43,9.87 22.08,8.2 21.46,6.66 L21.46,4.17 C22.08,5.71 22.43,7.38 22.43,9.12" fill="none" stroke="currentColor" stroke-width="1.5"/><path d="M9.23,0 C14.34,0 18.46,4.11 18.46,9.16 C18.46,14.23 14.34,18.33 9.23,18.33 C4.14,18.33 0,14.23 0,9.16 C0,4.11 4.14,0 9.23,0 Z" fill="none" stroke="currentColor" stroke-width="1.5"/><rect x="0" y="0" width="0" height="0" fill="none" stroke="currentColor"/><path d="M18.46,9.16 L18.46,11.65 C18.46,16.72 14.34,20.82 9.23,20.82 C4.14,20.82 0,16.72 0,11.65 L0,9.16 C0,14.23 4.14,18.33 9.23,18.33 C14.34,18.33 18.46,14.23 18.46,9.16 Z" fill="none" stroke="currentColor" stroke-width="1.5"/><rect x="0" y="0" width="0" height="0" fill="none" stroke="currentColor"/><path d="M18.46,9.16 L18.46,11.65 C18.46,12.1 18.43,12.54 18.37,12.97 L18.37,10.48 C18.43,10.05 18.46,9.61 18.46,9.16" fill="none" stroke="currentColor" stroke-width="1.5"/><path d="M18.37,10.48 L18.37,12.97 C18.29,13.48 18.18,13.97 18.03,14.45 L18.03,11.96 C18.18,11.48 18.29,10.99 18.37,10.48" fill="none" stroke="currentColor" stroke-width="1.5"/><path d="M18.3,11.28 L18.03,14.45 C17.84,15.01 17.61,15.55 17.33,16.06 L17.33,13.57 C17.61,13.06 17.85,12.52 18.03,11.96" fill="none" stroke="currentColor" stroke-width="1.5"/><path d="M17.33,16.06 C15.76,18.89 12.73,20.82 9.23,20.82 C4.13,20.82 0,16.72 0,11.65 L0,9.16 C0,14.23 4.14,18.33 9.23,18.33 C12.73,18.33 15.98,15.25 17.55,12.41" fill="none" stroke="currentColor" stroke-width="1.5"/><path d="M89.67,4.17 L89.67,19.2 L17.74,19.2 C20.61,16.77 22.43,13.17 22.43,9.12 C22.43,7.38 22.08,5.71 21.46,4.17 L89.67,4.17 Z" fill="none" stroke="currentColor" stroke-width="1.5"/><rect x="17.74" y="19.2" width="71.94" height="2.49" fill="none" stroke="currentColor"/><path d="M7.78,23.65 L89.67,23.65 L89.67,36.18 L7.78,36.18 L7.78,23.65 Z M87.02,33.53 L87.02,26.3 L10.45,26.3 L10.45,33.53 L87.02,33.53" fill="none" stroke="currentColor" stroke-width="1.5"/><rect x="7.78" y="36.18" width="81.89" height="2.49" fill="none" stroke="currentColor"/><path d="M7.78,41 L89.67,41 L89.67,53.52 L7.78,53.52 L7.78,41 Z M87.02,50.89 L87.02,43.64 L10.45,43.64 L10.45,50.89 L87.02,50.89" fill="none" stroke="currentColor" stroke-width="1.5"/><rect x="7.78" y="53.53" width="81.89" height="2.49" fill="none" stroke="currentColor"/><path d="M44.02,6.36 L44.02,8.04 L40.36,8.04 L40.36,10.44 L43.8,10.44 L43.8,12.12 L40.36,12.12 L40.36,14.86 L44.16,14.86 L44.16,16.54 L38.29,16.54 L38.29,6.36 L44.02,6.36 Z" fill="none" stroke="currentColor" stroke-width="1.5"/><path d="M45.14,8.87 L47.04,8.87 L47.04,9.65 L47.07,9.65 C47.57,8.96 48.18,8.67 49.02,8.67 C49.92,8.67 50.58,9.11 50.8,9.9 L50.82,9.9 C51.13,9.09 51.84,8.67 52.78,8.67 C54.09,8.67 54.7,9.48 54.7,10.96 L54.7,16.54 L52.72,16.54 L52.72,11.18 C52.72,10.54 52.5,10.18 51.95,10.18 C51.32,10.18 50.91,10.61 50.91,11.5 L50.91,16.54 L48.93,16.54 L48.93,11.18 C48.93,10.54 48.72,10.18 48.16,10.18 C47.53,10.18 47.13,10.61 47.13,11.5 L47.13,16.54 L45.14,16.54 L45.14,8.87 Z" fill="none" stroke="currentColor" stroke-width="1.5"/><path d="M56.02,11.22 L56.02,11.04 C56.02,9.27 57.23,8.67 58.73,8.67 C61.08,8.67 61.53,9.64 61.53,11.02 L61.53,15.06 C61.53,15.77 61.57,16.1 61.77,16.54 L59.88,16.54 C59.75,16.3 59.69,16 59.63,15.74 L59.6,15.74 C59.15,16.54 58.58,16.74 57.64,16.74 C56.26,16.74 55.77,15.57 55.77,14.54 C55.77,13.11 56.36,12.52 57.72,12.15 L58.84,11.85 C59.43,11.69 59.63,11.47 59.63,10.95 C59.63,10.37 59.37,10.01 58.72,10.01 C58.11,10.01 57.8,10.41 57.8,11.01 L57.8,11.22 L56.02,11.22 Z M59.63,12.7 C59.36,12.9 59.03,13.03 58.79,13.09 C57.98,13.26 57.67,13.65 57.67,14.33 C57.67,14.92 57.88,15.4 58.41,15.4 C58.94,15.4 59.63,15.06 59.63,14.22 L59.63,12.7 Z" fill="none" stroke="currentColor" stroke-width="1.5"/><path d="M63.01,6.25 L64.99,6.25 L64.99,7.93 L63.01,7.93 L63.01,6.25 Z M63.01,8.87 L64.99,8.87 L64.99,16.54 L63.01,16.54 L63.01,8.87 Z" fill="none" stroke="currentColor" stroke-width="1.5"/><path d="M66.46,6.36 L68.44,6.36 L68.44,16.54 L66.46,16.54 L66.46,6.36 Z" fill="none" stroke="currentColor" stroke-width="1.5"/></svg>