<svg xmlns="http://www.w3.org/2000/svg" viewBox="0 0 60.0 60.12" width="24" height="24"><path d="M23.17,54.38 L16.98,52.65 L11.12,45.97 L17.65,46.51 Z" fill="none" stroke="currentColor" stroke-width="1.5"/><path d="M23.17,54.38 L27.61,45.09 L23.47,44.51 L17.65,46.51 Z" fill="none" stroke="currentColor" stroke-width="1.5"/><path d="M8.85,49.98 L5.36,49 L2.07,45.24 L5.6,45.26 Z" fill="none" stroke="currentColor" stroke-width="1.5"/><path d="M8.85,49.98 L11.34,44.75 L9.01,44.42 L5.6,45.26 Z" fill="none" stroke="currentColor" stroke-width="1.5"/><path d="M0,44.77 L3.56,45.5 L3.56,13.11 L0,15.14 Z" fill="none" stroke="currentColor" stroke-width="1.5"/><path d="M17.33,16.34 L17.33,44.22 L3.56,45.5 L3.56,13.11 Z" fill="none" stroke="currentColor" stroke-width="1.5"/><path d="M7.96,46.44 L14.07,47.67 L14.07,7.92 L7.96,11.01 Z" fill="none" stroke="currentColor" stroke-width="1.5"/><path d="M48.92,19.11 L48.92,43.18 L14.07,47.67 L14.07,7.92 Z" fill="none" stroke="currentColor" stroke-width="1.5"/><path d="M42.62,60.12 L33.81,57.65 L25.49,48.16 L34.77,48.93 Z" fill="none" stroke="currentColor" stroke-width="1.5"/><path d="M42.62,60.12 L48.92,46.92 L43.03,46.08 L34.77,48.93 Z" fill="none" stroke="currentColor" stroke-width="1.5"/><path d="M21,48.97 L29.98,50.71 L29.98,0 L21,4.49 Z" fill="none" stroke="currentColor" stroke-width="1.5"/><path d="M29.98,50.71 L60,44.7 L60,15.01 L29.98,0 Z" fill="none" stroke="currentColor" stroke-width="1.5"/></svg>