<svg xmlns="http://www.w3.org/2000/svg" viewBox="0 0 52.95 66.0" width="24" height="24"><rect x="18.75" y="52.98" width="15.48" height="3.18" fill="none" stroke="currentColor"/><path d="M52.95,0 L52.95,63.08 L34.22,63.08 L34.22,52.98 L18.75,52.98 L18.75,62.82 L0.02,62.82 L0.02,0 Z" fill="none" stroke="currentColor" stroke-width="1.5"/><rect x="34.22" y="62.82" width="18.73" height="3.18" fill="none" stroke="currentColor"/><rect x="0.02" y="62.82" width="18.73" height="3.18" fill="none" stroke="currentColor"/><rect x="4.47" y="34.97" width="21.49" height="2.12" fill="none" stroke="currentColor"/><rect x="28.95" y="35.34" width="21.5" height="2.49" fill="none" stroke="currentColor"/><path d="M44.3,28.17 C38.93,25.64 32.52,27.93 29.99,33.29 C28.27,36.93 28.77,41.03 30.93,44.09 C28.43,44.72 25.97,44.78 23.01,44.76 C23.51,44.27 23.66,44.09 24.06,43.51 C25.26,41.78 25.96,39.68 25.96,37.42 C25.96,31.48 21.15,26.67 15.22,26.67 C9.28,26.67 4.47,31.48 4.47,37.42 C4.47,43.35 9.28,48.16 15.22,48.16 C17.12,48.16 18.91,47.66 20.46,46.79 C21.08,46.85 21.71,46.9 22.38,46.92 C22.38,46.92 27.45,47.52 32.91,46.21 C33.57,46.75 34.3,47.23 35.1,47.61 C40.47,50.14 46.88,47.85 49.42,42.49 C51.96,37.12 49.66,30.71 44.3,28.17 Z" fill="none" stroke="currentColor" stroke-width="1.5"/><path d="M44.3,26.1 C38.93,23.56 32.52,25.85 29.99,31.22 C28.27,34.85 28.77,38.95 30.93,42.02 C28.43,42.64 25.67,43.05 22.71,43.04 C24.71,41.08 25.96,38.36 25.96,35.34 C25.96,29.4 21.15,24.59 15.22,24.59 C9.28,24.59 4.47,29.4 4.47,35.34 C4.47,41.27 9.28,46.09 15.22,46.09 C17.12,46.09 18.91,45.58 20.46,44.71 C21.08,44.78 21.71,44.82 22.38,44.84 C22.38,44.84 27.45,45.44 32.91,44.13 C33.57,44.67 34.3,45.15 35.1,45.53 C40.47,48.07 46.88,45.77 49.42,40.41 C51.96,35.04 49.66,28.63 44.3,26.1 Z" fill="none" stroke="currentColor" stroke-width="1.5"/><path d="M12.8,37.9 C12.12,37.07 10.89,36.94 10.05,37.63 L8.54,38.86 C7.7,39.55 7.58,40.78 8.26,41.61 L8.4,41.78 C9.08,42.62 10.32,42.74 11.15,42.06 L12.66,40.82 C13.5,40.14 13.62,38.91 12.94,38.07 L12.8,37.9 Z" fill="none" stroke="currentColor" stroke-width="1.5"/><path d="M24.72,35.86 C24.73,34.79 23.87,33.9 22.79,33.88 L20.84,33.86 C19.76,33.84 18.87,34.71 18.85,35.79 L18.85,36 C18.84,37.08 19.7,37.97 20.78,37.98 L22.73,38.01 C23.81,38.02 24.7,37.16 24.71,36.08 L24.72,35.86 Z" fill="none" stroke="currentColor" stroke-width="1.5"/><path d="M14.24,31.57 C15.27,31.22 15.82,30.12 15.47,29.09 L14.85,27.24 C14.51,26.22 13.4,25.67 12.38,26.01 L12.17,26.08 C11.15,26.42 10.6,27.53 10.94,28.55 L11.56,30.4 C11.91,31.43 13.01,31.98 14.04,31.64 L14.24,31.57 Z" fill="none" stroke="currentColor" stroke-width="1.5"/><ellipse cx="15.219999999999999" cy="35.34" rx="1.52" ry="1.52" fill="none" stroke="currentColor"/><path d="M40.99,39.09 C39.94,39.35 39.3,40.41 39.56,41.46 L40.04,43.35 C40.3,44.4 41.35,45.04 42.4,44.78 L42.61,44.73 C43.66,44.47 44.3,43.41 44.04,42.36 L43.57,40.46 C43.31,39.42 42.25,38.78 41.2,39.04 L40.99,39.09 Z" fill="none" stroke="currentColor" stroke-width="1.5"/><path d="M44.24,27.45 C43.27,26.97 42.1,27.38 41.63,28.35 L40.77,30.1 C40.29,31.07 40.69,32.24 41.66,32.72 L41.86,32.81 C42.83,33.29 44,32.88 44.48,31.91 L45.33,30.16 C45.81,29.19 45.41,28.02 44.44,27.55 L44.24,27.45 Z" fill="none" stroke="currentColor" stroke-width="1.5"/><path d="M35.88,35.08 C36.01,34.01 35.24,33.03 34.17,32.91 L32.23,32.68 C31.16,32.55 30.18,33.32 30.06,34.39 L30.03,34.6 C29.9,35.67 30.67,36.65 31.74,36.77 L33.68,37 C34.75,37.13 35.73,36.37 35.85,35.3 L35.88,35.08 Z" fill="none" stroke="currentColor" stroke-width="1.5"/><path d="M40.35,34.44 C39.59,34.08 38.69,34.4 38.33,35.16 C37.97,35.92 38.29,36.83 39.05,37.19 C39.81,37.55 40.72,37.22 41.08,36.46 C41.43,35.7 41.11,34.8 40.35,34.44 Z" fill="none" stroke="currentColor" stroke-width="1.5"/><path d="M24.72,35.86 C24.73,34.79 23.87,33.9 22.79,33.88 L20.84,33.86 C19.76,33.84 18.82,34.86 18.85,35.79 C22.35,34.89 24.72,35.86 24.72,35.86 Z" fill="none" stroke="currentColor" stroke-width="1.5"/><path d="M30.05,34.28 C30.18,33.21 31.15,32.45 32.22,32.57 L34.16,32.8 C35.23,32.93 36.03,34.06 35.87,34.97 C32.52,33.63 30.05,34.28 30.05,34.28 Z" fill="none" stroke="currentColor" stroke-width="1.5"/><path d="M13.33,38.86 C13.33,38.86 13.19,38.35 12.8,37.91 C12.35,37.41 11.65,36.86 10.34,37.43 L8.54,38.86 C7.82,39.63 7.85,40.05 7.85,39.95 C7.85,39.95 10.75,37.65 13.33,38.86 Z" fill="none" stroke="currentColor" stroke-width="1.5"/><path d="M14.85,27.24 C14.51,26.22 13.4,25.67 12.38,26.01 L12.17,26.08 C11.15,26.42 10.57,27.52 10.94,28.55 C12.48,26.39 14.85,27.24 14.85,27.24 Z" fill="none" stroke="currentColor" stroke-width="1.5"/><path d="M41.51,28.56 C41.85,27.54 42.96,26.99 43.98,27.33 L44.19,27.4 C45.21,27.74 45.79,28.84 45.42,29.87 C43.89,27.72 41.51,28.56 41.51,28.56 Z" fill="none" stroke="currentColor" stroke-width="1.5"/><path d="M39.52,41.22 C39.44,40.15 40.17,39.1 41.25,39.01 L41.47,38.99 C42.62,38.86 43.52,39.74 43.64,40.77 C41.39,39.38 39.52,41.22 39.52,41.22 Z" fill="none" stroke="currentColor" stroke-width="1.5"/><path d="M7.85,40.68" fill="none" stroke="currentColor" stroke-width="1.5"/><path d="M13.71,35.12 C13.71,35.12 13.99,33.83 15.22,33.82 C16.44,33.8 16.72,35.12 16.72,35.12 C16.72,35.12 15.28,34.06 13.71,35.12 Z" fill="none" stroke="currentColor" stroke-width="1.5"/><path d="M38.18,35.66 C38.18,35.66 38.48,34.31 39.7,34.29 C40.93,34.28 41.72,36.12 41.72,36.12 C41.72,36.12 39.75,34.6 38.18,35.66 Z" fill="none" stroke="currentColor" stroke-width="1.5"/></svg>