<svg xmlns="http://www.w3.org/2000/svg" viewBox="0 0 44.0 58.6" width="24" height="24"><path d="M43.3,8.1 C42,9.3 38.7,10.8 33.5,11.7 C30.3,12.3 26.5,12.6 22,12.6 C10.1,12.6 2.7,10 0.7,8.1 L0,8.1 L0,9.9 C0,11.8 7.8,15.4 22,15.4 C26.5,15.4 30.4,15 33.5,14.5 C40.3,13.3 43.9,11.2 43.9,9.9 L43.9,8.1 L43.3,8.1 Z" fill="none" stroke="currentColor" stroke-width="1.5"/><path d="M43.9,50.5 C43.9,50.6 43.9,50.6 43.8,50.7 C43.8,50.8 43.7,50.9 43.7,51 C42.5,53 36.3,55.8 23.2,55.8 C15.2,55.8 8.5,54.3 4.6,53 L4.7,53.3 C2.1,52.3 0.3,51.3 0,50.5 L0,53.3 C0.2,54.2 2.3,55.3 5.2,56.3 C9.1,57.6 15.2,58.6 23.2,58.6 C36.3,58.6 42.5,55.7 43.7,53.8 C43.8,53.7 43.8,53.6 43.8,53.5 C43.8,53.4 43.8,53.4 43.9,53.3 C43.9,53.2 43.9,53.2 43.9,53.1 L43.9,50.3 C44,50.4 44,50.5 43.9,50.5 Z" fill="none" stroke="currentColor" stroke-width="1.5"/><path d="M33.2,17.1 C32.6,17.2 32,17.3 31.4,17.4 C31.1,17.4 30.8,17.5 30.5,17.5 C29.9,17.6 29.4,17.6 28.8,17.7 C28.4,17.7 28.1,17.8 27.7,17.8 C27,17.9 26.2,17.9 25.5,17.9 L25.1,17.9 C24.2,17.9 23.3,18 22.4,18 C22.2,18 22,18 21.8,18 C13.1,18 4.3,16.5 0,13.6 L0,51.4 C0.2,52.3 2.3,53.4 5.2,54.4 C9.1,55.7 15.2,56.7 23.2,56.7 C37.8,56.7 43.9,53.1 43.9,51.2 L43.9,13.2 C41.7,14.9 38,16.3 33.2,17.1 Z" fill="none" stroke="currentColor" stroke-width="1.5"/><path d="M0,8.1 C0,9.3 3.2,11.2 9.3,12.5 L9.3,3.8 C3.2,4.9 0,6.9 0,8.1 Z" fill="none" stroke="currentColor" stroke-width="1.5"/><path d="M43.9,8.1 C43.9,6.9 40.7,5 34.7,3.8 L34.7,12.5 C40.7,11.2 43.9,9.3 43.9,8.1 Z" fill="none" stroke="currentColor" stroke-width="1.5"/><path d="M9.3,0 L13.6,3 L22,9.1 L30.5,3 L34.8,0 Z" fill="none" stroke="currentColor" stroke-width="1.5"/><path d="M33.2,3.4 L22.1,11.4 L10.9,3.4 L9.3,2.3 L9.3,3.7 L9.3,12.4 C12.7,13.1 16.9,13.6 22,13.6 C26.5,13.6 30.4,13.2 33.5,12.7 C33.9,12.6 34.4,12.5 34.8,12.5 L34.8,3.8 L34.8,2.3 L33.2,3.4 Z" fill="none" stroke="currentColor" stroke-width="1.5"/></svg>