<svg xmlns="http://www.w3.org/2000/svg" viewBox="0 0 71.2 71.2" width="24" height="24"><path d="M62.2,57.8 L9.1,57.8 L9.1,60.8 C9.1,63.4 11.2,65.5 13.9,65.5 L57.5,65.5 C57.8,65.5 58.1,65.5 58.4,65.4 C58.5,65.4 58.5,65.4 58.6,65.4 C58.8,65.3 59.1,65.3 59.3,65.2 C59.3,65.2 59.4,65.2 59.4,65.2 C59.7,65.1 59.9,65 60.1,64.8 C60.2,64.8 60.2,64.7 60.3,64.7 C60.5,64.6 60.7,64.4 60.8,64.3 C60.8,64.3 60.9,64.2 60.9,64.2 C61.1,64 61.3,63.8 61.4,63.6 C61.4,63.5 61.5,63.5 61.5,63.4 C61.6,63.3 61.6,63.2 61.7,63.1 C61.7,63 61.8,63 61.8,62.9 C61.9,62.8 61.9,62.6 62,62.5 C62,62.4 62.1,62.4 62.1,62.3 C62.1,62.2 62.1,62.1 62.2,62 C62.2,61.9 62.3,61.8 62.3,61.7 C62.3,61.6 62.3,61.6 62.3,61.5 L62.3,61.5 C62.3,61.3 62.3,61.1 62.3,60.8 L62.3,57.8 Z" fill="none" stroke="currentColor" stroke-width="1.5"/><path d="M57.4,8.7 C60,8.7 62.2,10.8 62.2,13.4 L62.2,57.7 C62.2,60.3 60.1,62.4 57.4,62.4 L13.8,62.4 C11.2,62.4 9,60.3 9,57.7 L9,13.4 C9,10.8 11.1,8.7 13.8,8.7 L57.4,8.7 Z" fill="none" stroke="currentColor" stroke-width="1.5"/><path d="M24.3,35.8 L27.1,27.8 L42.6,29.4 L48.6,42.3 L29.3,46.8 Z" fill="none" stroke="currentColor" stroke-width="1.5"/><path d="M34.6,39.7 C37.1,39.7 39.2,38.4 40.4,36.4 L41.5,36.4 C45.2,36.4 44.7,40.2 44.7,40.2 L44.7,43.1 L51.4,43.1 L51.4,36.4 C51.4,32.7 48.4,29.7 44.7,29.7 L40.4,29.6 C39.8,28.6 39,27.7 38,27.2 L38,23 L38,23 L41.4,23 C43.2,23 44.7,21.5 44.7,19.7 C44.7,17.9 43.2,16.4 41.4,16.4 L28,16.4 C26.2,16.4 24.7,17.9 24.7,19.7 C24.7,21.5 26.2,23 28,23 L31.3,23 L31.3,27.2 C30.3,27.8 29.4,28.6 28.9,29.6 L17.9,29.6 L17.9,36.3 L28.9,36.3 C30,38.4 32.1,39.7 34.6,39.7 Z" fill="none" stroke="currentColor" stroke-width="1.5"/><path d="M47.9,45.5 C46.1,48.8 44.9,50.6 44.9,53.2 C44.9,54.9 46.2,56.2 47.9,56.2 C49.6,56.2 50.9,54.9 50.9,53.2 C50.9,50.6 49.4,48.7 47.9,45.5 Z" fill="none" stroke="currentColor" stroke-width="1.5"/><rect x="45.6" y="0" width="4" height="8.7" fill="none" stroke="currentColor"/><rect x="21.6" y="0" width="4" height="8.7" fill="none" stroke="currentColor"/><rect x="39.6" y="0" width="4" height="8.7" fill="none" stroke="currentColor"/><rect x="27.6" y="0" width="4" height="8.7" fill="none" stroke="currentColor"/><rect x="33.6" y="0" width="4" height="8.7" fill="none" stroke="currentColor"/><rect x="0" y="45.6" width="9" height="4" fill="none" stroke="currentColor"/><rect x="0" y="27.6" width="9" height="4" fill="none" stroke="currentColor"/><rect x="0" y="39.6" width="9" height="4" fill="none" stroke="currentColor"/><rect x="0" y="33.6" width="9" height="4" fill="none" stroke="currentColor"/><rect x="0" y="21.6" width="9" height="4" fill="none" stroke="currentColor"/><rect x="21.6" y="62.5" width="4" height="8.7" fill="none" stroke="currentColor"/><rect x="45.6" y="62.5" width="4" height="8.7" fill="none" stroke="currentColor"/><rect x="27.6" y="62.5" width="4" height="8.7" fill="none" stroke="currentColor"/><rect x="39.6" y="62.5" width="4" height="8.7" fill="none" stroke="currentColor"/><rect x="33.6" y="62.5" width="4" height="8.7" fill="none" stroke="currentColor"/><rect x="62.2" y="39.6" width="9" height="4" fill="none" stroke="currentColor"/><rect x="62.2" y="21.6" width="9" height="4" fill="none" stroke="currentColor"/><rect x="62.2" y="33.6" width="9" height="4" fill="none" stroke="currentColor"/><rect x="62.2" y="27.6" width="9" height="4" fill="none" stroke="currentColor"/><rect x="62.2" y="45.6" width="9" height="4" fill="none" stroke="currentColor"/></svg>