<svg xmlns="http://www.w3.org/2000/svg" viewBox="0 0 70.49 46.24" width="24" height="24"><path d="M56.84,43.6 L56.94,43.17 L13.52,43.13 L13.63,43.59 C6.05,43.29 0,37.54 0,31.83 L0,34.45 C0,40.31 6.38,46.24 14.25,46.24 L56.23,46.24 C64.1,46.24 70.49,40.31 70.49,34.45 L70.49,31.83 C70.49,37.54 64.42,43.3 56.84,43.6 Z" fill="none" stroke="currentColor" stroke-width="1.5"/><path d="M27.13,0 C34.44,0 40.74,4.35 43.57,10.58 C45.03,9.58 46.82,8.99 48.74,8.99 C53.68,8.99 57.7,12.88 57.85,17.76 C64.97,18.36 70.49,25.2 70.49,30.65 L70.49,31.83 C70.49,37.69 64.1,43.62 56.24,43.62 L14.26,43.62 C6.38,43.62 0,37.69 0,31.83 L0,30.65 C0,26.14 3.8,19.93 9.14,18.41 C9.12,18.23 9.11,18.06 9.11,17.88 C9.11,8 17.18,0 27.13,0 Z" fill="none" stroke="currentColor" stroke-width="1.5"/><path d="M17.09,20.93 L19.89,20.93 L22.68,34.08 L22.72,34.08 L25.68,20.93 L28.47,20.93 L24.32,37.41 L20.97,37.41 L17.09,20.93 Z" fill="none" stroke="currentColor" stroke-width="1.5"/><path d="M30.16,20.93 L35.37,20.93 C38.54,20.93 39.92,22.91 39.92,25.73 C39.92,28.68 38.19,30.6 35.1,30.6 L32.79,30.6 L32.79,37.41 L30.16,37.41 L30.16,20.93 Z M32.79,28.61 L34.66,28.61 C36.06,28.61 37.29,27.85 37.29,25.77 C37.29,23.99 36.57,22.91 34.47,22.91 L32.79,22.91 L32.79,28.61 Z" fill="none" stroke="currentColor" stroke-width="1.5"/><path d="M52.29,31.5 L52.29,31.84 C52.29,34.82 51.09,37.73 47.21,37.73 C43.06,37.73 41.77,35.05 41.77,29.17 C41.77,23.28 43.06,20.6 47.24,20.6 C51.92,20.6 52.2,24.07 52.2,25.77 L52.2,26.08 L49.57,26.08 L49.57,25.8 C49.57,24.28 49.11,22.52 47.21,22.59 C45.28,22.59 44.4,23.79 44.4,29.1 C44.4,34.41 45.28,35.75 47.21,35.75 C49.41,35.75 49.66,33.3 49.66,31.78 L49.66,31.5 L52.29,31.5 Z" fill="none" stroke="currentColor" stroke-width="1.5"/></svg>