<svg xmlns="http://www.w3.org/2000/svg" viewBox="0 0 52.21 41.4" width="24" height="24"><path d="M25.64,5.02 L25.64,7.29 C25.63,7.29 25.61,7.29 25.6,7.29 C22.77,7.29 21.37,8.48 20.66,9.75 L20.66,7.48 C21.36,6.21 22.77,5.02 25.6,5.02 C25.61,5.02 25.63,5.02 25.64,5.02" fill="none" stroke="currentColor" stroke-width="1.5"/><path d="M20.66,7.48 L20.66,9.75 C20.49,10.06 20.37,10.37 20.27,10.67 L20.27,8.4 C20.37,8.1 20.49,7.79 20.66,7.48" fill="none" stroke="currentColor" stroke-width="1.5"/><path d="M20.27,8.4 L20.27,10.67 C20.16,11.02 20.09,11.36 20.04,11.65 L20.04,9.39 C20.09,9.09 20.16,8.75 20.27,8.4" fill="none" stroke="currentColor" stroke-width="1.5"/><path d="M20.04,9.39 L20.04,11.65 C19.99,12.02 19.98,12.32 19.98,12.52 L19.98,10.25 C19.98,10.05 19.99,9.75 20.04,9.39" fill="none" stroke="currentColor" stroke-width="1.5"/><path d="M19.98,12.52 L19.98,10.25 C19.98,9.17 20.33,5.02 25.6,5.02 C25.61,5.02 25.63,5.02 25.64,5.02 L25.64,7.29 C25.63,7.29 25.61,7.29 25.6,7.29 C20.33,7.29 19.98,11.44 19.98,12.52 Z" fill="none" stroke="currentColor" stroke-width="1.5"/><path d="M31.31,10.31 L31.31,12.58 C31.27,11.63 30.86,7.3 25.64,7.29 L25.64,5.02 C30.86,5.03 31.27,9.36 31.31,10.31" fill="none" stroke="currentColor" stroke-width="1.5"/><path d="M31.31,10.31 L31.31,12.58 C31.27,11.63 30.86,7.3 25.64,7.29 L25.64,5.02 C30.86,5.03 31.27,9.36 31.31,10.31 Z" fill="none" stroke="currentColor" stroke-width="1.5"/><rect x="37.87" y="15.67" width="5.49" height="2.27" fill="none" stroke="currentColor"/><rect x="20.02" y="15.67" width="11.3" height="2.27" fill="none" stroke="currentColor"/><rect x="8.88" y="15.67" width="5.38" height="2.27" fill="none" stroke="currentColor"/><path d="M52.21,13.07 L52.21,15.34 L43.36,21.41 L43.36,19.14 Z" fill="none" stroke="currentColor" stroke-width="1.5"/><path d="M8.88,19.16 L8.88,21.43 L0,15.34 L0,13.07 Z" fill="none" stroke="currentColor" stroke-width="1.5"/><rect x="14.25" y="21.81" width="5.76" height="2.27" fill="none" stroke="currentColor"/><path d="M52.21,13.07 L43.36,19.14 L43.36,15.67 L37.87,15.67 L37.87,22.22 L41.79,22.22 L41.79,39.13 L10.35,39.13 L10.35,22.22 L31.31,22.22 L31.31,15.67 L20.02,15.67 L20.02,22.46 L14.25,22.46 L14.25,15.67 L8.88,15.67 L8.88,19.15 L0,13.07 L8.88,6.98 L8.88,10.31 L14.24,10.31 C14.95,3.94 20.01,0 26.1,0 C32.22,0 37.87,3.47 37.87,9.77 L37.87,10.31 L43.36,10.31 L43.36,6.98 L52.21,13.07 Z M19.98,10.31 L31.31,10.31 C31.27,9.36 30.86,5.03 25.64,5.02 C25.63,5.02 25.61,5.02 25.6,5.02 C20.23,5.02 19.97,9.33 19.98,10.31" fill="none" stroke="currentColor" stroke-width="1.5"/><rect x="10.35" y="39.13" width="31.44" height="2.27" fill="none" stroke="currentColor"/></svg>