<svg xmlns="http://www.w3.org/2000/svg" viewBox="0 0 54.85 56.82" width="24" height="24"><path d="M32.11,9.32 L32.11,11.69 L28.37,2.37 L28.37,0 Z" fill="none" stroke="currentColor" stroke-width="1.5"/><rect x="29.33" y="24.78" width="16.19" height="2.37" fill="none" stroke="currentColor"/><path d="M28.37,0 C42.57,0.49 54.01,11.64 54.82,25.66 L45.51,21.98 L45.51,24.78 L29.33,24.78 L29.33,9.32 L32.11,9.32 L28.37,0 Z" fill="none" stroke="currentColor" stroke-width="1.5"/><path d="M54.82,25.66 L54.82,28.03 L45.51,24.35 L45.51,21.98 Z" fill="none" stroke="currentColor" stroke-width="1.5"/><rect x="29.33" y="45.51" width="2.78" height="2.37" fill="none" stroke="currentColor"/><path d="M54.85,28.01 C54.45,42.34 42.92,53.89 28.52,54.45 L32.11,45.51 L29.33,45.51 L29.33,29.6 L45.51,29.6 L45.51,31.7 L54.85,28.01 Z" fill="none" stroke="currentColor" stroke-width="1.5"/><path d="M54.85,28.01 L54.85,30.38 C54.83,31.44 54.73,32.48 54.58,33.51 L54.58,31.14 C54.73,30.11 54.83,29.07 54.85,28.01" fill="none" stroke="currentColor" stroke-width="1.5"/><path d="M54.59,31.14 L54.59,33.51 C54.37,35.02 54.03,36.48 53.57,37.9 L53.57,35.53 C54.03,34.11 54.37,32.64 54.59,31.14" fill="none" stroke="currentColor" stroke-width="1.5"/><path d="M53.57,35.53 L53.57,37.9 C53.03,39.57 52.34,41.16 51.51,42.67 L51.51,40.3 C52.34,38.8 53.03,37.2 53.57,35.53" fill="none" stroke="currentColor" stroke-width="1.5"/><path d="M51.51,40.3 L51.51,42.67 C47.02,50.82 38.45,56.43 28.52,56.82 L28.52,54.45 C38.45,54.06 47.01,48.45 51.51,40.3" fill="none" stroke="currentColor" stroke-width="1.5"/><path d="M54.85,28.01 L54.85,30.38 C54.45,44.71 42.92,56.26 28.52,56.82 L28.52,54.45 C42.92,53.89 54.45,42.34 54.85,28.01 Z" fill="none" stroke="currentColor" stroke-width="1.5"/><rect x="22.72" y="45.51" width="2.77" height="2.37" fill="none" stroke="currentColor"/><path d="M0,28.64 L8.49,31.99 L8.49,29.6 L25.49,29.6 L25.49,45.51 L22.72,45.51 L26.31,54.45 C12.12,53.9 0.72,42.68 0,28.64 Z" fill="none" stroke="currentColor" stroke-width="1.5"/><path d="M26.31,54.45 L26.31,56.82 C12.12,56.27 0.72,45.06 0,31.01 L0,28.64 C0.72,42.68 12.12,53.9 26.31,54.45" fill="none" stroke="currentColor" stroke-width="1.5"/><path d="M26.31,54.45 L26.31,56.82 C12.12,56.27 0.72,45.06 0,31.01 L0,28.64 C0.72,42.68 12.12,53.9 26.31,54.45 Z" fill="none" stroke="currentColor" stroke-width="1.5"/><path d="M26.46,0 L26.46,2.37 L22.72,11.69 L22.72,9.32 Z" fill="none" stroke="currentColor" stroke-width="1.5"/><rect x="8.49" y="24.78" width="17" height="2.37" fill="none" stroke="currentColor"/><path d="M26.46,0 L22.72,9.32 L25.49,9.32 L25.49,24.78 L8.49,24.78 L8.49,22.47 L0,25.83 C0.72,11.73 12.21,0.49 26.46,0 Z" fill="none" stroke="currentColor" stroke-width="1.5"/><path d="M8.49,22.47 L8.49,24.84 L0,28.2 L0,25.83 Z" fill="none" stroke="currentColor" stroke-width="1.5"/></svg>