<svg xmlns="http://www.w3.org/2000/svg" viewBox="0 0 55.31 57.27" width="24" height="24"><path d="M27.65,0 C42.93,0 55.31,12.28 55.31,27.45 C55.31,42.6 42.93,54.88 27.65,54.88 C12.38,54.88 0,42.6 0,27.45 C0,12.28 12.38,0 27.65,0 Z" fill="none" stroke="currentColor" stroke-width="1.5"/><path d="M54.01,35.78 L54.01,38.17 C53.47,39.85 52.77,41.47 51.92,42.99 L51.92,40.61 C52.77,39.08 53.47,37.47 54.01,35.78" fill="none" stroke="currentColor" stroke-width="1.5"/><path d="M51.92,40.61 L51.92,42.99 C47.23,51.5 38.12,57.27 27.65,57.27 C12.38,57.27 0,44.98 0,29.83 L0,27.45 C0,42.6 12.38,54.88 27.65,54.88 C38.12,54.88 47.23,49.12 51.92,40.61" fill="none" stroke="currentColor" stroke-width="1.5"/><path d="M55.31,27.45 L55.31,29.83 C55.31,31.16 55.21,32.47 55.03,33.75 L55.03,31.36 C55.22,30.08 55.31,28.78 55.31,27.45" fill="none" stroke="currentColor" stroke-width="1.5"/><path d="M55.03,31.36 L55.03,33.75 C54.81,35.26 54.47,36.74 54.01,38.17 L54.01,35.78 C54.47,34.36 54.81,32.88 55.03,31.36" fill="none" stroke="currentColor" stroke-width="1.5"/><path d="M55.31,27.45 L55.31,29.83 C55.31,44.98 42.93,57.27 27.65,57.27 C12.38,57.27 0,44.98 0,29.83 L0,27.45 C0,42.6 12.38,54.88 27.65,54.88 C42.93,54.88 55.31,42.6 55.31,27.45 Z" fill="none" stroke="currentColor" stroke-width="1.5"/><path d="M4.72,30.41 L4.72,29.68 C4.72,26.69 6.99,22.74 10.35,21.29 C10.61,14.78 16.03,9.57 22.65,9.57 C27.05,9.57 31.1,11.93 33.29,15.67 C34.13,15.31 35.05,15.12 35.99,15.12 C39.34,15.12 42.12,17.49 42.69,20.68 C47.28,21.59 50.59,25.98 50.59,29.68 L50.59,30.41 C50.59,34.91 45.93,38.86 40.62,38.86 L14.7,38.86 C9.38,38.86 4.72,34.91 4.72,30.41 Z" fill="none" stroke="currentColor" stroke-width="1.5"/><path d="M33.91,18.88 L31.97,20.21 L31.01,18.07 C29.53,14.8 26.24,12.68 22.65,12.68 C20.19,12.68 17.9,13.63 16.17,15.36 C14.43,17.09 13.48,19.41 13.48,21.86 L13.52,23.56 L12.08,23.97 C9.74,24.65 7.85,27.64 7.85,29.68 L7.85,30.41 C7.85,32.87 10.84,35.75 14.7,35.75 L40.62,35.75 C44.47,35.75 47.46,32.87 47.46,30.41 L47.46,29.68 C47.46,27.19 44.69,23.92 41.45,23.65 L39.72,23.5 L39.66,21.77 C39.6,19.79 37.98,18.23 35.99,18.23 C35.24,18.23 34.52,18.45 33.91,18.88 Z" fill="none" stroke="currentColor" stroke-width="1.5"/></svg>