<svg xmlns="http://www.w3.org/2000/svg" viewBox="0 0 55.34 57.02" width="24" height="24"><path d="M25.83,0 L25.83,3.28 L22.54,12 L22.54,8.72 Z" fill="none" stroke="currentColor" stroke-width="1.5"/><rect x="0" y="24.2" width="13.74" height="3.28" fill="none" stroke="currentColor"/><path d="M24.79,27.82 L24.79,31.11 L13.74,24.3 L13.74,21.02 Z" fill="none" stroke="currentColor" stroke-width="1.5"/><rect x="22.68" y="45.53" width="2.58" height="3.28" fill="none" stroke="currentColor"/><path d="M25.83,0 L22.54,8.72 L25.25,8.72 L25.25,45.53 L22.68,45.53 L25.76,53.73 C12.36,53.09 1.5,43.71 0.1,30.62 L13.74,30.62 L13.74,32.95 L24.79,27.82 L13.74,21.02 L13.74,24.2 L0,24.2 C0.84,11.87 12.43,0.39 25.83,0 Z" fill="none" stroke="currentColor" stroke-width="1.5"/><path d="M25.76,53.73 L25.76,57.02 C12.36,56.37 1.5,47 0.1,33.9 L0.1,30.62 C1.5,43.71 12.36,53.09 25.76,53.73" fill="none" stroke="currentColor" stroke-width="1.5"/><path d="M25.76,53.73 L25.76,57.02 C12.36,56.37 1.5,47 0.1,33.9 L0.1,30.62 C1.5,43.71 12.36,53.09 25.76,53.73 Z" fill="none" stroke="currentColor" stroke-width="1.5"/><path d="M32.82,8.72 L32.82,12 L29.53,3.3 L29.53,0.02 Z" fill="none" stroke="currentColor" stroke-width="1.5"/><rect x="41.53" y="24.05" width="13.81" height="3.28" fill="none" stroke="currentColor"/><path d="M41.53,24.05 L41.53,27.33 L41.38,24.3 L41.38,21.02 Z" fill="none" stroke="currentColor" stroke-width="1.5"/><path d="M41.38,21.02 L41.38,24.3 L30.33,31.11 L30.33,27.82 Z" fill="none" stroke="currentColor" stroke-width="1.5"/><rect x="30.09" y="45.53" width="2.59" height="3.28" fill="none" stroke="currentColor"/><path d="M55.09,30.19 L55.09,33.48 C55.05,33.8 55.02,34.12 54.97,34.44 L54.97,31.15 C55.02,30.84 55.05,30.52 55.09,30.19" fill="none" stroke="currentColor" stroke-width="1.5"/><path d="M54.97,31.15 L54.97,34.44 C54.76,35.9 54.43,37.32 53.99,38.69 L53.99,35.41 C54.43,34.04 54.76,32.62 54.97,31.15" fill="none" stroke="currentColor" stroke-width="1.5"/><path d="M53.99,35.41 L53.99,38.69 C53.47,40.29 52.81,41.82 52.01,43.26 L52.01,39.97 C52.81,38.53 53.47,37.01 53.99,35.41" fill="none" stroke="currentColor" stroke-width="1.5"/><path d="M52.01,39.97 L52.01,43.26 C47.65,51.16 39.3,56.49 29.58,57.02 L29.58,53.73 C39.3,53.2 47.65,47.88 52.01,39.97" fill="none" stroke="currentColor" stroke-width="1.5"/><path d="M55.09,30.19 L55.09,33.48 C53.69,46.52 42.92,56.29 29.58,57.02 L29.58,53.73 C42.92,53.01 53.69,43.24 55.09,30.19 Z" fill="none" stroke="currentColor" stroke-width="1.5"/><path d="M29.53,0.02 C42.86,0.97 55.19,11.15 55.34,24.05 L41.53,24.05 L41.38,21.02 L30.33,27.82 L41.38,32.95 L41.38,30.19 L55.09,30.19 C53.69,43.24 42.92,53.01 29.58,53.73 L32.68,45.53 L30.09,45.53 L30.09,8.72 L32.82,8.72 L29.53,0.02 Z" fill="none" stroke="currentColor" stroke-width="1.5"/></svg>