<svg xmlns="http://www.w3.org/2000/svg" viewBox="0 0 60.8 63.4" width="24" height="24"><ellipse cx="30.4" cy="33.0" rx="30.4" ry="30.4" fill="none" stroke="currentColor"/><ellipse cx="30.4" cy="30.4" rx="30.4" ry="30.4" fill="none" stroke="currentColor"/><path d="M30.4,53.1 L29.9,52.9 C29.7,52.8 25.2,51.2 20.6,46 C18,43 15.9,39.4 14.4,35.3 C12.6,30.2 11.6,24.3 11.6,17.8 L11.6,16.4 L13,16.4 C14.3,16.4 16.7,16 17.7,15 C19.1,13.6 19.3,11.1 19.3,11.1 L19.4,10.2 L20.3,9.9 C20.5,9.7 25.4,7.8 30.4,7.8 C35.2,7.8 40.2,9.6 40.5,9.7 L41.4,10 L41.5,10.9 C41.5,10.9 41.7,13.4 43.1,14.8 C44,15.7 46.6,16.1 47.8,16.1 L49.2,16.2 L49.2,17.6 C49.2,24.1 48.3,30 46.4,35.1 C44.9,39.2 42.8,42.8 40.2,45.9 C35.7,51.1 31.1,52.7 30.9,52.8 L30.4,53.1 Z M14.6,19.2 C14.8,29.5 17.6,38 22.7,44 C25.9,47.7 29.2,49.4 30.4,50 C31.6,49.5 34.8,47.8 38.1,44 C43.2,38 46,29.5 46.2,19.1 C44.7,18.9 42.3,18.4 41,17 C39.5,15.5 38.9,13.4 38.7,12.2 C37.2,11.7 33.7,10.7 30.5,10.7 C27.2,10.7 23.8,11.7 22.3,12.2 C22.1,13.4 21.5,15.5 20,17 C18.4,18.5 16.1,19 14.6,19.2 Z" fill="none" stroke="currentColor" stroke-width="1.5"/><path d="M39.5,29.1 C37.7,30.9 32.2,34.7 30.1,36.8 C30.1,35.8 30.1,31.8 30.1,30.8 C26.5,30.8 9.4,30.8 5.9,30.8 C5.9,28.7 5.9,29.4 5.9,27.2 C9.4,27.2 26.5,27.2 30.1,27.2 C30.1,26.2 30.1,22.1 30.1,21.3 C32,23.3 37.5,27.1 39.5,29.1 Z" fill="none" stroke="currentColor" stroke-width="1.5"/></svg>