<svg xmlns="http://www.w3.org/2000/svg" viewBox="0 0 59.57 72.04" width="24" height="24"><path d="M39.27,41.04 L8.41,43.52 L8.41,61.33 L39.27,52.96 Z" fill="none" stroke="currentColor" stroke-width="1.5"/><path d="M23.34,36 L8.3,36 L8.3,10.72 L23.34,14.79 Z" fill="none" stroke="currentColor" stroke-width="1.5"/><path d="M23.81,19.15 L35.58,16.15 L55.76,22.2 L44.96,23.72 Z" fill="none" stroke="currentColor" stroke-width="1.5"/><path d="M38.66,36 L29.74,36 L29.74,0 L38.66,4.46 Z" fill="none" stroke="currentColor" stroke-width="1.5"/><path d="M55.76,36 L59.57,36 L59.57,14.91 L55.76,13.01 Z" fill="none" stroke="currentColor" stroke-width="1.5"/><path d="M59.57,23.35 L29.74,14.4 L29.74,0 L59.57,14.91 Z" fill="none" stroke="currentColor" stroke-width="1.5"/><path d="M13.87,36 L29.74,36 L29.74,0 L13.87,7.94 Z" fill="none" stroke="currentColor" stroke-width="1.5"/><path d="M8.3,10.76 L0,14.95 L0,36.04 L8.3,36.04 Z" fill="none" stroke="currentColor" stroke-width="1.5"/><path d="M45.01,36 L55.76,36 L55.76,22.2 L45.01,23.72 Z" fill="none" stroke="currentColor" stroke-width="1.5"/><path d="M59.57,42.29 L29.74,46.73 L29.74,72 L59.57,57.09 Z" fill="none" stroke="currentColor" stroke-width="1.5"/><path d="M13.87,44.44 L29.74,46.82 L29.74,72.04 L13.87,64.1 Z" fill="none" stroke="currentColor" stroke-width="1.5"/><path d="M0,42.36 L8.41,43.6 L8.41,61.37 L0,57.17 Z" fill="none" stroke="currentColor" stroke-width="1.5"/><path d="M59.57,42.29 L45.23,41.4 L13.87,44.4 L29.6,46.75 Z" fill="none" stroke="currentColor" stroke-width="1.5"/><path d="M39.27,41.04 L29.81,40.45 L0,42.3 L8.41,43.56 Z" fill="none" stroke="currentColor" stroke-width="1.5"/></svg>