<svg xmlns="http://www.w3.org/2000/svg" viewBox="0 0 60.8 63.4" width="24" height="24"><ellipse cx="30.4" cy="33.0" rx="30.4" ry="30.4" fill="none" stroke="currentColor"/><ellipse cx="30.4" cy="30.4" rx="30.4" ry="30.4" fill="none" stroke="currentColor"/><rect x="38.6" y="16.3" width="3.2" height="28.3" fill="none" stroke="currentColor"/><path d="M47.7,23.5 L56.1,30.3 L47.7,37.4 Z" fill="none" stroke="currentColor" stroke-width="1.5"/><path d="M18,28.8 L19.8,30.3 L17.8,32.1 L49.1,32.1 L49.1,28.8 Z" fill="none" stroke="currentColor" stroke-width="1.5"/><path d="M17.8,17.9 L41.9,17.9 L41.9,14.7 L18,14.7 L19.8,16.2 Z" fill="none" stroke="currentColor" stroke-width="1.5"/><path d="M19.8,44.5 L17.8,46.2 L41.9,46.2 L41.9,43 L18,43 Z" fill="none" stroke="currentColor" stroke-width="1.5"/><path d="M11.1,24.9 L17.8,30.3 L11.1,36 Z" fill="none" stroke="currentColor" stroke-width="1.5"/><path d="M11.1,10.7 L17.8,16.2 L11.1,21.9 Z" fill="none" stroke="currentColor" stroke-width="1.5"/><path d="M11.1,39 L17.8,44.5 L11.1,50.2 Z" fill="none" stroke="currentColor" stroke-width="1.5"/></svg>