<svg xmlns="http://www.w3.org/2000/svg" viewBox="0 0 68.2 82.4" width="24" height="24"><path d="M19.7,61.6 L34.1,65.9 L34.1,0 L19.7,7.2 Z" fill="none" stroke="currentColor" stroke-width="1.5"/><path d="M48.5,61.6 L34.1,65.9 L34.1,0 L48.5,7.2 Z" fill="none" stroke="currentColor" stroke-width="1.5"/><path d="M58.4,55.8 L63.8,56.5 L63.8,46.5 L58.4,46.2 Z" fill="none" stroke="currentColor" stroke-width="1.5"/><path d="M9.8,55.8 L4.4,56.5 L4.4,46.5 L9.8,46.2 Z" fill="none" stroke="currentColor" stroke-width="1.5"/><path d="M33.5,55.4 L9.6,51.2 L4.4,51.7 L27.6,56.4 Z" fill="none" stroke="currentColor" stroke-width="1.5"/><path d="M68.2,50.8 L34.1,57.7 L34.1,82.4 L68.2,65.3 Z" fill="none" stroke="currentColor" stroke-width="1.5"/><path d="M63.8,46.5 L68.2,46 L68.2,65.3 L63.8,67.5 Z" fill="none" stroke="currentColor" stroke-width="1.5"/><path d="M68.2,46 L63,45.8 L58.4,46.2 L63.8,46.5 Z" fill="none" stroke="currentColor" stroke-width="1.5"/><path d="M0,50.8 L34.1,57.7 L34.1,82.4 L0,65.3 Z" fill="none" stroke="currentColor" stroke-width="1.5"/><path d="M23.9,77.3 L34.1,82.4 L34.1,49.4 L23.9,48.4 Z" fill="none" stroke="currentColor" stroke-width="1.5"/><path d="M4.4,46.5 L0,46 L0,65.3 L4.4,67.5 Z" fill="none" stroke="currentColor" stroke-width="1.5"/><path d="M0,46 L5.2,45.8 L9.8,46.2 L4.4,46.5 Z" fill="none" stroke="currentColor" stroke-width="1.5"/><path d="M34.1,55.5 L39.9,56.5 L63.8,51.7 L58.7,51.2 Z" fill="none" stroke="currentColor" stroke-width="1.5"/><path d="M44.3,76.5 L34.1,81.6 L34.1,48.6 L44.3,47.6 Z" fill="none" stroke="currentColor" stroke-width="1.5"/><path d="M44.3,48.4 L34.1,47.6 L23.9,48.4 L34.1,49.4 Z" fill="none" stroke="currentColor" stroke-width="1.5"/></svg>