<svg xmlns="http://www.w3.org/2000/svg" viewBox="0 0 71.2 71.2" width="24" height="24"><path d="M62.2,57.8 L9.1,57.8 L9.1,60.8 C9.1,63.4 11.2,65.5 13.9,65.5 L57.5,65.5 C57.8,65.5 58.1,65.5 58.4,65.4 C58.5,65.4 58.5,65.4 58.6,65.4 C58.8,65.3 59.1,65.3 59.3,65.2 C59.3,65.2 59.4,65.2 59.4,65.2 C59.7,65.1 59.9,65 60.1,64.8 C60.2,64.8 60.2,64.7 60.3,64.7 C60.5,64.6 60.7,64.4 60.8,64.3 C60.8,64.3 60.9,64.2 60.9,64.2 C61.1,64 61.3,63.8 61.4,63.6 C61.4,63.5 61.5,63.5 61.5,63.4 C61.6,63.3 61.6,63.2 61.7,63.1 C61.7,63 61.8,63 61.8,62.9 C61.9,62.8 61.9,62.6 62,62.5 C62,62.4 62.1,62.4 62.1,62.3 C62.1,62.2 62.1,62.1 62.2,62 C62.2,61.9 62.3,61.8 62.3,61.7 C62.3,61.6 62.3,61.6 62.3,61.5 L62.3,61.5 C62.3,61.3 62.3,61.1 62.3,60.8 L62.3,57.8 Z" fill="none" stroke="currentColor" stroke-width="1.5"/><path d="M57.4,8.7 C60,8.7 62.2,10.8 62.2,13.4 L62.2,57.7 C62.2,60.3 60.1,62.4 57.4,62.4 L13.8,62.4 C11.2,62.4 9,60.3 9,57.7 L9,13.4 C9,10.8 11.1,8.7 13.8,8.7 L57.4,8.7 Z" fill="none" stroke="currentColor" stroke-width="1.5"/><path d="M35.6,27.4 L35.6,59.9" fill="none" stroke="currentColor" stroke-width="1.5"/><rect x="0" y="0" width="0" height="0" fill="none" stroke="currentColor"/><path d="M52.9,27.3 C40.8,26.2 38,25.9 36.8,26.5 C36.8,25.1 35.3,22.7 28.9,12.5 L28.1,11.2 L25.5,12.6 L26.2,14 C31.2,25 32.4,27.6 33.6,28.3 C32.4,29 31.1,31.5 25.4,42.2 L24.7,43.6 L27.2,45.2 L28.1,43.9 C35.1,34 36.8,31.7 36.8,30.3 C37.4,30.7 38.5,30.8 41.1,30.8 C43.5,30.8 47.2,30.7 52.9,30.5 L54.5,30.4 L54.6,27.4 L52.9,27.3 Z" fill="none" stroke="currentColor" stroke-width="1.5"/><path d="M35.6,24.9 C33.7,24.9 32.1,26.5 32.1,28.4 C32.1,30.3 33.7,31.9 35.6,31.9 C37.5,31.9 39.1,30.3 39.1,28.4 C39.1,26.5 37.5,24.9 35.6,24.9 Z" fill="none" stroke="currentColor" stroke-width="1.5"/><ellipse cx="35.6" cy="28.4" rx="1.0" ry="1.0" fill="none" stroke="currentColor"/><rect x="45.6" y="0" width="4" height="8.7" fill="none" stroke="currentColor"/><rect x="21.6" y="0" width="4" height="8.7" fill="none" stroke="currentColor"/><rect x="39.6" y="0" width="4" height="8.7" fill="none" stroke="currentColor"/><rect x="27.6" y="0" width="4" height="8.7" fill="none" stroke="currentColor"/><rect x="33.6" y="0" width="4" height="8.7" fill="none" stroke="currentColor"/><rect x="0" y="45.6" width="9" height="4" fill="none" stroke="currentColor"/><rect x="0" y="27.6" width="9" height="4" fill="none" stroke="currentColor"/><rect x="0" y="39.6" width="9" height="4" fill="none" stroke="currentColor"/><rect x="0" y="33.6" width="9" height="4" fill="none" stroke="currentColor"/><rect x="0" y="21.6" width="9" height="4" fill="none" stroke="currentColor"/><rect x="21.6" y="62.5" width="4" height="8.7" fill="none" stroke="currentColor"/><rect x="45.6" y="62.5" width="4" height="8.7" fill="none" stroke="currentColor"/><rect x="27.6" y="62.5" width="4" height="8.7" fill="none" stroke="currentColor"/><rect x="39.6" y="62.5" width="4" height="8.7" fill="none" stroke="currentColor"/><rect x="33.6" y="62.5" width="4" height="8.7" fill="none" stroke="currentColor"/><rect x="62.2" y="39.6" width="9" height="4" fill="none" stroke="currentColor"/><rect x="62.2" y="21.6" width="9" height="4" fill="none" stroke="currentColor"/><rect x="62.2" y="33.6" width="9" height="4" fill="none" stroke="currentColor"/><rect x="62.2" y="27.6" width="9" height="4" fill="none" stroke="currentColor"/><rect x="62.2" y="45.6" width="9" height="4" fill="none" stroke="currentColor"/></svg>