<svg xmlns="http://www.w3.org/2000/svg" viewBox="0 0 74.0 84.4" width="24" height="24"><path d="M0,21.1 L37,0 L74,21.1 L74,63.3 L37,84.4 L0,63.3 Z" fill="none" stroke="currentColor" stroke-width="1.5"/><path d="M58.4,28 L58.4,34.5 L58.4,37 L36.3,46.8 L14.2,37 L14.2,34.5 L14.2,28 L10.3,28 L10.3,30.6 L10.3,39.6 L10.3,61 L62.2,61 L62.2,39.6 L62.2,30.6 L62.2,28 C62.3,28 58.4,28 58.4,28 Z M58.4,57.2 L14.3,57.2 L14.3,41.4 L36.4,51.2 L58.5,41.4 L58.5,57.2 Z" fill="none" stroke="currentColor" stroke-width="1.5"/><path d="M36.3,13.9 L10.4,25.5 L10.4,30.6 L14.3,30.6 L14.3,28.1 L36.3,18.2 L58.4,28.1 L58.4,30.6 L62.3,30.6 L62.3,25.5 Z" fill="none" stroke="currentColor" stroke-width="1.5"/><path d="M22.1,40.6 L22.1,34.3 L50.5,34.3 L50.5,40.6 L54.5,38.8 L54.5,30.3 L18.2,30.3 L18.2,38.8 Z" fill="none" stroke="currentColor" stroke-width="1.5"/></svg>