<svg xmlns="http://www.w3.org/2000/svg" viewBox="0 0 125.94 143.62" width="24" height="24"><path d="M0,35.91 L62.97,0 L125.94,35.91 L125.94,107.72 L62.97,143.62 L0,107.72 Z" fill="none" stroke="currentColor" stroke-width="1.5"/><rect x="43.12" y="65.16" width="25.67" height="6.63" fill="none" stroke="currentColor"/><rect x="43.12" y="78.42" width="25.67" height="6.63" fill="none" stroke="currentColor"/><rect x="43.12" y="91.67" width="25.67" height="6.63" fill="none" stroke="currentColor"/><path d="M75.41,55.9 L75.41,94.3 L82.04,94.3 L82.04,49.27 L49.76,49.27 L49.76,55.9 Z" fill="none" stroke="currentColor" stroke-width="1.5"/><path d="M95.3,36.02 L43.13,36.02 L43.13,49.27 L29.87,49.27 L29.87,114.19 L82.04,114.19 L82.04,100.93 L95.3,100.93 L95.3,36.02 Z M75.41,107.56 L36.5,107.56 L36.5,55.9 L75.41,55.9 L75.41,107.56 Z M88.67,94.3 L82.04,94.3 L82.04,49.27 L49.75,49.27 L49.75,42.64 L88.67,42.64 L88.67,94.3 Z" fill="none" stroke="currentColor" stroke-width="1.5"/></svg>