<svg xmlns="http://www.w3.org/2000/svg" viewBox="0 0 74.0 84.98" width="24" height="24"><path d="M0,21.25 L37,0 L74,21.25 L74,63.73 L37,84.98 L0,63.73 Z" fill="none" stroke="currentColor" stroke-width="1.5"/><path d="M32.3,32.74 L32.27,32.74 L13.27,32.74 L13.23,32.74 C12.17,32.74 11.31,33.6 11.31,34.66 L11.31,34.7 L11.31,60.98 L11.31,61.01 C11.31,62.07 12.17,62.94 13.23,62.94 L13.27,62.94 L32.27,62.94 L32.3,62.94 C33.36,62.94 34.23,62.07 34.23,61.01 L34.23,60.98 L34.23,34.7 L34.23,34.66 C34.23,33.6 33.36,32.74 32.3,32.74 Z M22.77,62.05 C21.86,62.05 21.13,61.32 21.13,60.42 C21.13,59.52 21.86,58.78 22.77,58.78 C23.67,58.78 24.4,59.51 24.4,60.42 C24.4,61.32 23.67,62.05 22.77,62.05 Z M30.31,57.9 L15.23,57.9 L15.23,36.66 L30.31,36.66 L30.31,57.9 Z" fill="none" stroke="currentColor" stroke-width="1.5"/><path d="M61.98,50.52 L61.98,22.89 L24.44,22.89 L24.44,32.74 L28.37,32.74 L28.37,26.81 L58.06,26.81 L58.06,46.6 L34.23,46.6 L34.23,50.52 L40.48,50.52 L40.48,53.53 C38.11,53.63 35.97,53.86 34.23,54.18 L34.23,58.2 L40.55,58.2 L43.43,58.2 L46.03,58.2 L56.61,58.2 L56.61,56.22 C56.61,54.89 52,53.79 45.86,53.53 L45.86,50.52 L61.98,50.52 Z" fill="none" stroke="currentColor" stroke-width="1.5"/></svg>