<svg xmlns="http://www.w3.org/2000/svg" viewBox="0 0 98.81 97.33" width="24" height="24"><path d="M15.39,68.55 Z M46.39,82.55 L51.39,60.55 L66.39,60.55 L63.39,64.05 L75.89,64.55 L73.39,52.05 L69.39,56.55 L62.89,51.55 L70.39,38.55 L72.39,42.05 L77.39,30.55 L64.89,29.55 L67.39,34.05 L60.89,38.05 L51.39,24.55 L56.39,24.55 L48.89,14.55 L41.89,24.55 L46.89,24.55 L46.89,32.55 L30.89,33.05 L33.89,28.55 L21.39,29.55 L25.89,41.05 L28.39,37.05 L35.39,41.05 L29.39,55.55 L26.39,51.05 L22.39,63.05 L34.89,63.55 L32.39,59.55 L37.89,56.05 Z" fill="none" stroke="currentColor" stroke-width="1.5"/><ellipse cx="48.89" cy="46.55" rx="10.0" ry="10.0" fill="none" stroke="currentColor"/></svg>