<svg xmlns="http://www.w3.org/2000/svg" viewBox="0 0 100.09 98.4" width="24" height="24"><path d="M0.42,35.7 L0.22,16 L84.42,0.2 L99.72,26.7 L91.62,19.7 L91.62,14.3 L15.52,8.4 L8.72,24.9 L74.92,24.9 C74.84,24.87 74.97,13.75 74.97,13.75 C74.97,13.75 100.09,36 100.09,36 C100.09,36 0.72,35.75 0.72,35.75 Z M0.42,41.6 L99.82,41.6 L99.82,61.7 L62.32,74.7 L64.82,98.4 L31.42,74.7 L13.82,74.7 L0.42,49.2 L8.72,56.3 L8.72,61.4 L84.92,69.3 L91.52,49.9 L22.42,49.9 L22.42,62.3 Z" fill="none" stroke="currentColor" stroke-width="1.5"/></svg>