<svg xmlns="http://www.w3.org/2000/svg" viewBox="0 0 99.11 30.25" width="24" height="24"><path d="M0.11,2.25 L90.11,0.05 L99.11,15.55 L90.11,30.25 L2.91,30.25 Z M2.11,26.55 L89.21,28.25 L97.11,15.55 L89.21,1.95 L4.31,1.95 Z M5.11,7.15 L29.01,5.35 L30.71,23.55 L7.01,24.95 Z M7.81,10.95 L7.81,22.55 L28.21,22.55 L28.21,10.75 L18.81,17.85 Z M17.81,15.65 L27.81,7.85 L7.91,7.85 Z M33.51,7.15 L57.41,5.35 L58.81,23.55 L34.91,24.95 Z M36.01,10.85 L36.01,22.55 L56.41,22.55 L56.31,10.85 L47.11,17.85 Z M46.01,15.65 L56.11,7.85 L36.01,7.85 Z M61.71,7.15 L85.51,5.35 L87.21,23.15 L63.41,24.95 Z M64.11,10.85 L64.11,22.55 L84.51,22.55 L84.51,10.85 L75.11,17.85 Z M74.21,15.65 L84.21,7.85 L64.21,7.85 Z" fill="none" stroke="currentColor" stroke-width="1.5"/></svg>