<svg xmlns="http://www.w3.org/2000/svg" viewBox="0 0 87.13 99.3" width="24" height="24"><path d="M0.12,2.9 L37.92,0 L41.62,38.4 L31.32,38.3 L31.32,3.6 L27.72,42 L35.12,42 L22.42,58.1 L10.82,42 L17.52,42 L17.52,10.3 L10.12,10.3 L10.12,38.3 L4.72,38.3 L4.42,41.2 L10.32,51 L10.32,66.4 L27.62,66.4 L27.62,76.8 L3.72,76.8 Z M45.62,11.3 L71.82,42.3 L87.02,73.4 L45.52,76.8 L45.52,66.4 L77.42,66.4 L77.42,58.8 L56.52,52 Z M41.52,40.8 L41.52,80.3 L51.52,80.3 L36.42,99.3 L21.62,80.3 L31.32,80.3 L31.32,55.8 Z" fill="none" stroke="currentColor" stroke-width="1.5"/></svg>