<svg xmlns="http://www.w3.org/2000/svg" viewBox="0 0 85.56 99.1" width="24" height="24"><path d="M1.96,21 L1.96,3.2 L34.46,0 L36.66,21.1 L26.26,21.2 L26.26,10.5 L12.36,10.5 L12.36,21 Z M38.06,26.5 L40.16,54.9 L2.36,57.3 L0.06,29.3 Z M36.36,30.3 L4.86,30.3 L20.56,42.5 Z M36.36,34.6 L22.06,45.7 L3.66,34.6 L3.66,53.4 L36.36,53.4 Z M22.66,66.2 L22.66,76.7 L5.56,76.7 L1.76,62.6 L12.26,62.6 L12.16,66.4 Z M26.66,62.6 L36.66,62.6 L36.66,80.4 L45.56,80.4 L31.86,99.1 L18.16,80.4 L26.66,80.4 Z M40.16,66.4 L75.16,66.4 L75.16,59.7 L54.66,55.5 L40.16,11.5 L72.26,45.6 L85.56,73.7 L40.16,76.9 Z" fill="none" stroke="currentColor" stroke-width="1.5"/></svg>