<svg xmlns="http://www.w3.org/2000/svg" viewBox="0 0 77.4 99.39" width="24" height="24"><path d="M0,13.89 L73.4,48.79 L60.6,36.89 L25.7,36.89 L25.7,99.39 Z M7.8,13.59 Z M29.5,40.69 L57.6,40.69 L77.4,57.19 L77.4,99.39 L29.5,99.39 Z M33.1,44.29 L33.1,95.89 L73.8,95.89 L73.8,58.99 L59,58.99 L59,44.39 Z M39.7,50.39 L50.6,50.39 L50.6,53.99 L39.7,53.99 Z M50.6,57.79 L50.6,61.29 L39.7,61.29 L39.7,57.79 Z M39.7,65.09 L50.6,65.09 L50.6,68.69 L39.7,68.69 Z M50.6,72.39 L50.6,76.09 L39.7,76.09 L39.7,72.39 Z M39.7,79.89 L50.6,79.89 L50.6,83.49 L39.7,83.49 Z M54.2,65.19 L65.4,65.19 L65.4,68.79 L54.2,68.79 Z M65.4,72.39 L65.4,76.09 L54.2,76.09 L54.2,72.39 Z M65.4,79.89 L65.4,83.49 L54.2,83.49 L54.2,79.89 Z" fill="none" stroke="currentColor" stroke-width="1.5"/></svg>