<svg xmlns="http://www.w3.org/2000/svg" viewBox="0 0 95.7 99.2" width="24" height="24"><path d="M0,11.9 L76,0 L95.5,19.7 L95.5,85.9 L11.6,99.2 Z M6.8,86 L83.4,92.2 L88.5,23.3 L72.6,23.3 L72.6,7.1 L12.9,7.1 Z M17.4,72.9 L16,67.4 L20.2,65.7 L20.5,62.5 L17,59.7 L19.8,55 L24.1,56.7 L26.2,54.9 L25.5,50.4 L31,48.9 L32.8,53.1 L35.8,53.6 L39.2,49.7 L44,52.7 L42.1,57.2 L43.8,59.4 L48.6,58.9 L49.9,64.3 L45.6,66 L45.3,69.1 L49,72 L46.1,76.7 L41.9,75 L39.5,76.9 L39.8,81.5 L34.6,82.8 L32.7,78.6 L29.7,78.3 L26.9,81.9 L22,78.9 L23.7,74.9 L21.7,72.4 Z M25.1,66 Z M46.7,55.9 L45.4,50.4 L49.6,48.9 L50.1,45.5 L46.4,42.8 L49.4,38 L53.5,39.6 L55.7,38.2 L55.1,33.3 L60.5,31.9 L62.2,36.2 L65.4,36.5 L68.5,32.9 L73.4,35.9 L71.5,40 L73.2,42.4 L78.2,41.9 L79.4,47.2 L75.2,49.1 L74.7,52.1 L78.5,55.1 L75.5,59.6 L71.4,58 L69,59.8 L69.4,64.5 L64,65.7 L62.3,61.6 L59.1,61.3 L56.3,64.9 L51.6,61.9 L53.2,57.9 L51.4,55.3 Z M54.5,48.8 Z" fill="none" stroke="currentColor" stroke-width="1.5"/></svg>