<svg xmlns="http://www.w3.org/2000/svg" viewBox="0 0 99.3 88.2" width="24" height="24"><path d="M0,44.2 L24.8,0 L74.5,0 L99.3,44.2 L74.5,88.2 L24.8,88.2 Z M11.5,59.2 L84.3,62.8 L94.7,46.4 L84.3,28.4 L15,28.4 Z M14.2,32.3 L82.9,31.2 L91.5,46.4 L82.9,60.2 L16,60.2 Z M20.1,56.1 L46.6,57.4 L48.3,36.7 L21.7,35.2 Z M22.8,38.1 L44.3,38.1 L33.5,46.5 Z M22.7,41.3 L32.7,49.5 L45.4,41.3 L45.4,54.5 L22.8,54.5 Z M52.3,55.8 L79.1,57.4 L80.75,36.7 L53.9,35.2 Z M55.8,38.2 L77.1,38.2 L66.4,46.7 Z M55.3,41.3 L65.3,49.4 L77.9,41.3 L77.9,54.5 L55.3,54.5 Z" fill="none" stroke="currentColor" stroke-width="1.5"/></svg>