<svg xmlns="http://www.w3.org/2000/svg" viewBox="0 0 99.4 88.3" width="24" height="24"><path d="M0,44 L25,0 L74.7,0 L99.4,44.2 L74.7,88.3 L24.7,88.3 Z M29.4,22.9 L26.3,22.9 L26.3,71.2 L73.2,71.2 L73.2,67.8 L29.4,67.8 Z M32.9,35 L44.4,35 L44.4,23.2 L32.9,23.2 Z M47.4,23.2 L47.4,35 L58.7,35 L58.7,23.2 Z M61.7,35 L73.2,35 L73.2,23.2 L61.7,23.2 Z M32.9,49.8 L44.4,49.8 L44.4,38.1 L32.9,38.1 Z M47.4,38.1 L47.4,49.8 L58.8,49.8 L58.8,38.1 Z M61.7,49.8 L73.2,49.8 L73.2,38.1 L61.7,38.1 Z M32.8,64.7 L44.4,64.7 L44.4,52.8 L32.9,52.8 Z M47.4,52.8 L47.4,64.7 L58.8,64.7 L58.8,52.8 Z M61.7,64.7 L73.2,64.7 L73.2,52.8 L61.7,52.8 Z" fill="none" stroke="currentColor" stroke-width="1.5"/></svg>