<svg xmlns="http://www.w3.org/2000/svg" viewBox="0 0 99.01 89.0" width="24" height="24"><path d="M94.01,0 L99.01,66 L61.51,70.5 L61.51,83.5 L74.01,83.5 L74.01,86.5 L80.01,86.5 L80.01,89 L19.01,89 L19.01,86.5 L25.01,86.5 L25.01,83.5 L37.51,83.5 L37.51,70.5 L5.01,70.5 L0.01,5 Z Z M93.01,5.5 L6.01,5.5 L6.01,65 L93.01,65 Z" fill="none" stroke="currentColor" stroke-width="1.5"/><path d="M51.01,17.5 L67.51,26 L51.51,35 L35.01,26 Z" fill="none" stroke="currentColor" stroke-width="1.5"/><path d="M53.01,38.5 L68.01,29.5 L68.01,47 L53.01,56 Z" fill="none" stroke="currentColor" stroke-width="1.5"/><path d="M49.14,38 L49.14,56.12 L34.39,47 L34.64,29.5 Z" fill="none" stroke="currentColor" stroke-width="1.5"/></svg>