<svg xmlns="http://www.w3.org/2000/svg" viewBox="0 0 99.6 80.3" width="24" height="24"><path d="M0,4.6 L94.8,0 L99.6,75.6 L4.8,80.3 Z M21.2,43.6 Z M24.9,37.9 L33.3,24.6 Z M34.3,22.4 L32.6,21.3 Z M37.3,23.9 L47.7,26.1 Z M50.6,15.7 Z M60.4,17.7 L64.1,22.4 Z M47.7,28.4 L47.7,37.8 L33.3,37.8 Z M50.7,28.4 L50.8,37.6 Z M68.3,37.8 L67.7,23.1 Z M68.3,40.6 L73.6,40.6 L65.4,53.9 Z M62.4,52.5 L50.6,40.5 L65.2,40.5 Z M47.7,40.5 L47.7,50 Z M33.2,53.8 L31,55.4 L30.2,40.5 Z M34.3,56.2 Z M37.2,54.6 L47.7,62.6 Z M50.7,62.6 L50.7,52.2 Z M60.4,61 L66,57.2 Z" fill="none" stroke="currentColor" stroke-width="1.5"/></svg>