<svg xmlns="http://www.w3.org/2000/svg" viewBox="0 0 101.06 86.76" width="24" height="24"><path d="M0,0 L82.9,0 L82.9,33.6 L80.4,16.4 L2.3,16.4 L2.3,67.6 L45.3,67.6 L0,70.1 Z M31.7,35.6 L31.7,21.8 L52.1,21.8 L52.1,35.6 L43.1,35.6 L43.1,42.2 L51.2,42.2 L43.1,44.5 L43.1,51.1 L46.1,51.1 L34.4,62.4 L34.4,51 L40.7,51 L40.7,44.5 L20.2,44.5 L20.2,51.1 L26.6,51.1 L26.6,62.5 L11.4,62.5 L11.4,51.1 L17.8,51.1 L17.8,42.2 L40.7,42.2 L40.7,35.6 Z M47.7,65.7 Z M63.2,47.3 Z M65.6,47.6 Z M79.1,37.9 Z M92.5,46.9 L97,58.7 Z M82.4,58.7 Z M62.7,49.6 L61.9,58.7 Z M49.8,61.3 Z M65.1,70.7 L64.1,61.3 Z M85,61.1 Z M91.2,75.8 Z M81,73 Z M67.6,83.6 Z" fill="none" stroke="currentColor" stroke-width="1.5"/></svg>