<svg xmlns="http://www.w3.org/2000/svg" viewBox="0 0 111.56 92.96" width="24" height="24"><path d="M0.06,5.26 L94.06,0.06 L101.76,5.46 L111.56,88.06 L15.26,92.96 Z M25.06,29.26 L30.56,33.56 L29.96,38.16 L23.66,40.66 L25.66,49.36 L32.76,48.46 L35.46,52.26 L32.86,58.46 L40.26,63.06 L44.56,57.56 L49.36,58.16 L51.86,64.46 L60.46,62.46 L59.66,55.26 L63.36,52.26 L69.26,55.36 L74.26,47.76 L68.46,43.26 L69.06,38.76 L75.56,36.26 L73.66,27.66 L66.16,28.46 L63.56,25.06 L66.26,18.46 L58.76,14.06 L54.06,19.66 L49.46,18.96 L46.56,12.56 L38.26,14.76 L39.06,21.76 L35.96,24.46 L29.56,21.76 Z M37.66,40.96 Z M45.66,40.76 Z M6.56,80.56 L100.76,85.66 L104.36,9.76 L99.16,6.86 L99.16,75.56 Z M12.36,87.06 L107.26,91.46 L110.06,15.76 L105.96,82.76 Z" fill="none" stroke="currentColor" stroke-width="1.5"/></svg>