<svg xmlns="http://www.w3.org/2000/svg" viewBox="0 0 600.0 350.0" width="24" height="24"><path d="M10,350 L0,10 L590,0 L600,340 Z" fill="none" stroke="currentColor" stroke-width="1.5"/><path d="M280.05,198.54 C257.29,198.54 235.31,179.07 235.31,149.47 C235.31,122.6 254.32,99.77 279.64,99.77 C303.94,99.77 324.31,121.99 324.31,147.91 C324.31,179.45 302.64,198.54 280.05,198.54 Z M189.33,298.25 C192.09,274.95 192.98,250.09 199.86,230.18 C202.04,224.42 205.41,219.61 210.25,215.99 C214.9,212.41 230.44,203.68 233.4,202.85 C236.25,201.75 239.66,201.82 241.89,203.62 C264.9,224.94 297.25,222.51 318.29,204 C319.82,202.52 323.06,201.84 326.6,203.08 C333.49,205.64 348.62,214.82 349.96,216.13 C353.81,218.89 356.5,222.36 358.51,226.25 C357.1,226.98 355.69,227.78 354.32,228.83 C350.96,226.28 347.24,224.72 343.46,224.42 L311.07,224.42 C302.93,224.42 295.7,231.27 295.06,239.1 C292.4,241.27 289.02,244.7 289.03,251.37 L289.03,298.25 Z M318.7,262.99 L318.7,257.07 L342.43,257.07 L342.43,262.99 Z M318.7,277.83 L318.7,271.9 L342.43,271.9 L342.43,277.83 Z M318.7,292.66 L318.7,286.74 L342.43,286.74 L342.43,292.66 Z M366.22,262.99 L366.22,257.07 L389.95,257.07 L389.95,262.99 Z M366.22,277.83 L366.22,271.9 L389.95,271.9 L389.95,277.83 Z M366.22,292.66 L366.22,286.74 L389.95,286.74 L389.95,292.66 Z M397.39,239.21 L368.75,239.21 C363.66,239.21 357.28,243.98 357.28,251.75 L357.28,313.39 C363,311.03 363.78,310.67 367.31,310.42 L398.83,310.44 L398.83,240.84 C398.83,239.61 397.98,239.19 397.39,239.19 Z M348.27,325.23 C346.63,325.23 345.41,324.08 345.41,322.28 L303.59,322.28 C300.44,322.28 297.94,319.57 297.94,316.93 L297.94,250.72 C297.94,247.99 300.56,245.2 303.86,245.2 L303.86,240.31 C303.86,236.42 307.64,233.34 310.76,233.34 L342.58,233.34 C347.17,233.42 351.9,238.06 354.32,242.21 C357.94,236.02 362.85,233.36 365.98,233.34 L397.6,233.34 C401.74,233.34 404.76,236.95 404.76,240.48 L404.76,245.2 L405.77,245.25 C408.49,245.75 410.67,248.11 410.67,250.77 L410.67,316.84 C410.67,320.09 407.79,322.28 405.2,322.28 L363.21,322.28 C363.2,324.11 362.06,325.24 360.49,325.23 Z M309.8,310.43 L340.07,310.41 C344.81,310.5 346.42,311.04 351.34,313.39 L351.34,250.44 C351.34,246.09 346.71,239.21 339.34,239.21 L311.19,239.21 C310.15,239.21 309.8,240.09 309.8,240.77 Z M5,80 L5,340 L590,345 L595,80 Z" fill="none" stroke="currentColor" stroke-width="1.5"/></svg>