<svg xmlns="http://www.w3.org/2000/svg" viewBox="0 0 600.0 350.0" width="24" height="24"><path d="M10,350 L0,10 L590,0 L600,340 Z" fill="none" stroke="currentColor" stroke-width="1.5"/><path d="M243.91,178.48 L243.91,147.89 L274.5,147.89 L274.5,178.48 Z M284.71,178.48 L284.71,147.89 L315.3,147.89 L315.3,178.48 Z M325.52,178.48 L325.52,147.89 L356.11,147.89 L356.11,178.48 Z M366.33,178.48 L366.33,147.89 L396.92,147.89 L396.92,178.48 Z M366.33,219.27 L366.33,188.68 L396.92,188.68 L396.92,219.27 Z M325.52,219.27 L325.52,188.68 L356.11,188.68 L356.11,219.27 Z M284.71,219.27 L284.71,188.68 L315.3,188.68 L315.3,219.27 Z M243.91,219.27 L243.91,188.68 L274.5,188.68 L274.5,219.27 Z M203.1,219.27 L203.1,188.68 L233.69,188.68 L233.69,219.27 Z M203.1,300.86 L203.1,270.27 L233.69,270.27 L233.69,300.86 Z M243.91,300.86 L243.91,270.27 L274.5,270.27 L274.5,300.86 Z M284.71,300.86 L284.71,270.27 L315.3,270.27 L315.3,300.86 Z M325.52,300.86 L325.52,270.27 L356.11,270.27 L356.11,300.86 Z M366.33,260.06 L366.33,229.48 L396.92,229.48 L396.92,260.06 Z M325.52,260.06 L325.52,229.48 L356.11,229.48 L356.11,260.06 Z M284.71,260.06 L284.71,229.48 L315.3,229.48 L315.3,260.06 Z M243.91,260.06 L243.91,229.48 L274.5,229.48 L274.5,260.06 Z M203.1,260.06 L203.1,229.48 L233.69,229.48 L233.69,260.06 Z M189.49,314.51 L410.51,314.51 L410.51,134.29 L189.49,134.29 Z M179.29,324.7 L179.29,114.12 C179.29,105.7 186.19,100.3 192.68,100.3 L407.24,100.3 C415.04,100.3 420.71,106.95 420.71,113.62 L420.71,324.7 Z M5,80 L5,340 L590,345 L595,80 Z" fill="none" stroke="currentColor" stroke-width="1.5"/></svg>