<svg xmlns="http://www.w3.org/2000/svg" viewBox="0 0 600.0 350.0" width="24" height="24"><path d="M10,350 L0,10 L590,0 L600,340 Z" fill="none" stroke="currentColor" stroke-width="1.5"/><path d="M300.1,238.41 L269.39,269 L246.78,246.59 L277.61,215.8 L246.46,185.09 L269.57,162.28 L300.13,193.1 L330.86,162.45 L353.47,185.21 L322.53,215.92 L353.47,246.42 L330.71,269.2 Z M299.75,319.9 C239.81,319.9 192.65,272.02 192.65,211.38 C192.65,152.68 240.85,105.03 301.12,105.03 C362.61,105.03 407.46,157.29 407.46,211.48 C407.46,276.58 355.46,319.9 299.75,319.9 Z M5,80 L5,340 C5,342.76 7.24,345 10,345 L590,345 C592.76,345 595,342.76 595,340 L595,80 Z" fill="none" stroke="currentColor" stroke-width="1.5"/></svg>