<svg xmlns="http://www.w3.org/2000/svg" viewBox="0 0 600.0 350.0" width="24" height="24"><path d="M10,350 L0,10 L590,0 L600,340 Z" fill="none" stroke="currentColor" stroke-width="1.5"/><path d="M348.48,263.87 C357.96,263.87 364.63,255.66 364.63,248.17 L364.63,193.14 C364.63,182.48 357.8,175.55 348.48,175.55 Z M284.54,175.55 L284.54,159.57 L316.36,159.57 L316.36,175.55 Z M260.37,263.87 L340.53,263.87 L340.53,175.55 L324.6,175.55 L324.6,159.63 C324.6,154.82 320.7,151.51 317.05,151.51 L284.08,151.51 C280.25,151.51 276.43,155.15 276.43,159.24 L276.43,175.55 L260.37,175.55 Z M252.48,175.55 C242.95,175.55 236.32,183.54 236.32,190.8 L236.32,247.98 C236.32,257.42 245.04,263.87 252.48,263.87 Z M300.3,325.04 C236.02,325.04 188.39,271.27 188.39,215.13 C188.39,149.98 238.92,101.16 299.13,101.16 C365.03,101.16 412.59,153.29 412.59,211.96 C412.59,277.21 359.03,325.04 300.3,325.04 Z M5,80 L5,340 C5,342.76 7.24,345 10,345 L590,345 C592.76,345 595,342.76 595,340 L595,80 Z" fill="none" stroke="currentColor" stroke-width="1.5"/></svg>