<svg xmlns="http://www.w3.org/2000/svg" viewBox="0 0 600.0 350.0" width="24" height="24"><path d="M10,350 L0,10 L590,0 L600,340 Z" fill="none" stroke="currentColor" stroke-width="1.5"/><path d="M164.68,262.83 C165.85,246.35 167.85,229.03 170.23,216.48 C172.47,206.31 175.21,198.84 181.17,194.05 C183.39,192.14 185.72,190.83 188.06,189.58 C192.45,187.09 197.22,184.21 200.71,182.67 C203.89,181.09 207.37,181.22 209.35,183.12 C227.21,198.36 252.79,200.44 273.83,182.69 C277.2,180.54 280.6,181.97 283.35,183.4 C288.27,185.94 292.72,188.96 297.73,191.92 C306.53,197.33 309.28,204.79 311.07,212.39 C313.04,220.04 314.7,232.53 315.93,241.85 C312.33,244.23 308.94,249.02 308.81,255.04 L308.83,262.83 Z M241.15,178.77 C219.38,178.77 203.88,158 203.88,137.42 C203.88,111.03 223.76,95.39 240.92,95.39 C261.75,95.39 278.78,113.27 278.78,138.28 C278.78,156.97 264.07,178.77 241.15,178.77 Z M324.8,315.49 C322.01,315.49 319.07,312.67 319.07,309.5 L319.07,254.7 C319.07,252.4 321.55,249.06 325.06,249.06 L328.26,249.08 L328.27,230.11 C328.27,213.91 342.27,197.82 361.34,197.82 C382.54,197.82 394.66,215.59 394.66,230.26 L394.69,243.83 C388.73,249.13 384.25,257.17 384.44,267.85 C384.96,279.52 391.07,287.44 397.48,291.78 L397.48,315.49 Z M383,249.06 L383,231.24 C383,219.76 374.06,209.82 361.48,209.82 C350.56,209.82 340.59,219.27 340.59,230.58 L340.59,249.06 Z M415.87,329.61 L408.08,321.14 L408.08,285.8 C400.3,283.07 395.03,275.36 395.03,267.47 C395.03,254.81 405.14,246.93 415.06,246.93 C426.04,246.93 435.32,255.79 435.32,267 C435.32,276.11 429.47,283.25 422.58,285.79 L422.58,293.96 L417.65,299.96 L424.86,307.55 L418.34,314.47 L424.32,320.75 Z M415.02,265.7 C418.37,265.7 420.47,262.83 420.47,260.35 C420.47,257.74 418.12,255.08 415.04,255.08 C412,255.08 409.86,257.58 409.86,260.38 C409.86,263.66 412.99,265.7 415.02,265.7 Z M5,80 L5,340 L590,345 L595,80 Z" fill="none" stroke="currentColor" stroke-width="1.5"/></svg>