<svg xmlns="http://www.w3.org/2000/svg" viewBox="0 0 600.0 350.0" width="24" height="24"><path d="M10,350 L0,10 L590,0 L600,340 Z" fill="none" stroke="currentColor" stroke-width="1.5"/><path d="M372.53,188.28 C360.17,188.28 348.38,177.89 348.38,163.51 C348.38,151.57 358.91,139.98 372.71,139.98 C383.06,139.98 396.59,148.37 396.59,164.31 C396.59,178.15 384.47,188.28 372.53,188.28 Z M203.3,284.99 L251.7,156.02 L316.05,236.75 L348.36,212.54 L396.8,284.99 Z M187.15,301.26 L412.92,301.26 L412.92,123.8 L187.15,123.8 Z M171.06,317.22 L171.06,107.81 L428.96,107.81 L428.96,317.22 Z M5,80 L5,340 C5,342.76 7.24,345 10,345 L590,345 C592.76,345 595,342.76 595,340 L595,80 Z" fill="none" stroke="currentColor" stroke-width="1.5"/></svg>