<svg xmlns="http://www.w3.org/2000/svg" viewBox="0 0 600.0 350.0" width="24" height="24"><path d="M10,350 L0,10 L590,0 L600,340 Z" fill="none" stroke="currentColor" stroke-width="1.5"/><path d="M332.27,240.53 C357.62,240.53 391.14,218.64 391.14,181.54 C391.14,143.58 359.87,120.69 332.27,120.69 C295.67,120.69 271.29,148.7 271.29,181.54 C271.29,216.85 302.21,240.53 332.27,240.53 Z M224.73,311.49 C216.45,318.99 205.57,318.47 199.65,312.13 C193.84,305.22 194.22,295.52 200.64,288.1 L251,237.68 C255.32,234.01 261.77,231.56 266.75,232.67 L273.91,225.48 C265.72,214.22 259,201.32 258.52,181.54 C258.52,144.95 286.7,108 332.27,108 C372.27,108 404.45,141.09 404.45,181.54 C404.45,221.68 370.55,253.52 332.27,253.52 C316.09,253.2 300.78,248.97 286.91,238.23 L279.74,245.43 C280.21,251.02 278.84,256 275.26,260.22 Z M5,80 L5,340 L590,345 L595,80 Z" fill="none" stroke="currentColor" stroke-width="1.5"/></svg>