<svg xmlns="http://www.w3.org/2000/svg" viewBox="0 0 600.0 350.0" width="24" height="24"><path d="M10,350 L0,10 L590,0 L600,340 Z" fill="none" stroke="currentColor" stroke-width="1.5"/><path d="M356.55,184 C358.37,182.26 358.91,177.85 356.23,175.05 L348.11,166.79 C346.14,164.72 340.94,165.12 339.13,167.04 L291.73,214.37 L267.16,189.82 C264.91,187.65 260.58,187.07 257.71,189.83 L250.16,197.3 C247.58,199.65 247.52,204.77 250.11,207.24 L286.08,243.16 C289.78,246.98 294.3,246.61 297.56,243.17 Z M299.56,320.65 C279.81,315.33 256.43,302.74 239.54,285.22 C220.73,267.25 207.78,246.06 204.38,198.82 C203.21,180.03 203.33,159.64 206.14,135.93 C206.73,131.92 208.2,129.98 212.66,128.79 L300.09,104.38 L386.55,128.35 C391.67,129.63 393.12,130.7 394.04,136.63 C396.18,152.69 397.13,177.56 395.93,193.45 C393.47,236.48 384.07,260.66 363.45,282.14 C347.09,299.52 325.18,314.38 299.56,320.65 Z M5,80 L5,340 C5,342.76 7.24,345 10,345 L590,345 C592.76,345 595,342.76 595,340 L595,80 Z" fill="none" stroke="currentColor" stroke-width="1.5"/></svg>