<svg xmlns="http://www.w3.org/2000/svg" viewBox="0 0 600.0 350.0" width="24" height="24"><path d="M10,350 L0,10 L590,0 L600,340 Z" fill="none" stroke="currentColor" stroke-width="1.5"/><path d="M268.59,212.71 L360.08,212.71 L378.52,156.94 L253.01,156.94 Z M259.37,239.91 C251.52,239.91 246.52,235.04 244.04,224.8 L217.24,129.39 L202.66,129.39 C195.65,129.39 189.2,122.9 189.2,115 C189.2,108.93 195.23,101.72 203.03,101.72 L227.3,101.72 C233.87,101.72 239.27,107.59 240.42,112.13 L245.17,129.61 L397.97,129.61 C405.95,129.61 412.65,138.34 410.3,146.84 L383.3,227.85 C380.8,235.59 376.64,239.91 365.96,239.91 Z M355.78,323.51 C342.41,323.51 327.42,312.29 327.42,296.47 C327.42,280.59 340.19,267.8 355.78,267.8 C370.97,267.8 383.13,282.42 383.13,296.47 C383.13,308.34 373.01,323.51 355.78,323.51 Z M271.83,323.26 C259.09,323.26 244.41,311.75 244.41,296.47 C244.41,279.71 257.66,267.93 271.83,267.93 C286.03,267.93 300.25,279.51 300.25,296.47 C300.25,309.95 287.86,323.26 271.83,323.26 Z M5,80 L5,340 C5,342.76 7.24,345 10,345 L590,345 C592.76,345 595,342.76 595,340 L595,80 Z" fill="none" stroke="currentColor" stroke-width="1.5"/></svg>