<svg xmlns="http://www.w3.org/2000/svg" viewBox="0 0 600.0 350.0" width="24" height="24"><path d="M10,350 L0,10 L590,0 L600,340 Z" fill="none" stroke="currentColor" stroke-width="1.5"/><path d="M283.92,217.58 L260.23,193.7 C254.72,188.33 247.19,188.09 242.06,192.54 L231.51,203.28 C227.07,207.6 227.31,215.53 230.99,219.76 L273.38,262.57 C280.61,271.21 289.83,267.95 294.1,263.1 L368.83,188.37 C372.43,184.29 373.64,176.76 367.69,170.56 L357.73,161.13 C352.03,156.02 345.15,156.89 340.45,161.31 Z M301.09,320.23 C238.25,320.23 192.13,270.75 192.13,212.74 C192.13,153.69 238.92,104.6 301.09,104.6 C359.85,104.6 407.83,153.68 407.83,212.74 C407.83,276.36 355.05,320.23 301.09,320.23 Z M5,80 L5,340 C5,342.76 7.24,345 10,345 L590,345 C592.76,345 595,342.76 595,340 L595,80 Z" fill="none" stroke="currentColor" stroke-width="1.5"/></svg>