<svg xmlns="http://www.w3.org/2000/svg" viewBox="0 0 600.0 350.0" width="24" height="24"><path d="M10,350 L0,10 L590,0 L600,340 Z" fill="none" stroke="currentColor" stroke-width="1.5"/><path d="M185.04,120.67 L367.24,93.2 L414.96,140.68 L414.96,302.16 L212.75,331.8 Z M203.84,300.71 L386.04,312.52 L395.44,151.77 L356.88,151.77 L356.88,112.72 L213.48,112.72 Z M245.29,169.6 L351.82,169.6 L351.82,189.36 L245.29,189.36 Z M245.29,207.2 L351.82,207.2 L351.82,226.96 L245.29,226.96 Z M245.29,244.8 L351.82,244.8 L351.82,264.8 L245.29,264.8 Z M5,80 L5,340 L590,345 L595,80 Z" fill="none" stroke="currentColor" stroke-width="1.5"/></svg>