<svg xmlns="http://www.w3.org/2000/svg" viewBox="0 0 600.0 350.0" width="24" height="24"><path d="M10,350 L0,10 L590,0 L600,340 Z" fill="none" stroke="currentColor" stroke-width="1.5"/><path d="M317.94,176.81 C318.34,172.14 313.14,164.49 302.34,164.49 C291.86,164.49 284.66,172.14 285.54,177.28 L290.84,240.51 C291.24,246.42 295.92,250.98 301.87,250.98 C308.74,250.98 313.14,246.03 313.34,240.13 Z M301.89,290.78 C311.89,290.78 318.1,282.69 318.1,275.13 C318.1,267.93 312.75,259.09 301.89,259.09 C292.78,259.09 286.23,266.8 286.23,275.13 C286.23,283.02 293.03,290.78 301.89,290.78 Z M199.36,308.42 C193.71,308.42 191.35,303.62 194.52,297.79 L297.13,117.18 C298.58,114.27 303.33,113.93 304.83,117.02 L404.88,296.34 C408.31,301.81 405.93,308.42 400.28,308.42 Z M5,80 L5,340 C5,342.76 7.24,345 10,345 L590,345 C592.76,345 595,342.76 595,340 L595,80 Z" fill="none" stroke="currentColor" stroke-width="1.5"/></svg>