<svg xmlns="http://www.w3.org/2000/svg" viewBox="0 0 24.0 22.4" width="24" height="24"><path d="M0,0 L1.9,0 L1.9,1.5 L3.8,1.5 L3.8,0 L5.7,0 L5.7,1.5 L7.6,1.5 L7.6,0 L9.5,0 L9.5,1.5 L11.4,1.5 L11.4,0 L13.3,0 L13.3,1.5 L15.2,1.5 L15.2,0 L17.1,0 L17.1,1.5 L19,1.5 L19,0 L20.9,0 L20.9,1.5 L22.8,1.5 L22.8,0 L24,0 L24,20.4 L2,22.4 Z M2.5,20 L12.5,20 L12.5,11 L2.5,11 Z M14,20 L22,20 L22,19 L14,19 Z M22,17 L22,16 L14,16 L14,17 Z M22,14.5 L22,13.5 L14,13.5 L14,14.5 Z M22,12 L22,11 L14,11 L14,12 Z M22,9.5 L22,6.5 L2.5,6.5 L2.5,9.5 Z" fill="none" stroke="currentColor" stroke-width="1.5"/></svg>