<svg xmlns="http://www.w3.org/2000/svg" viewBox="0 0 34.95 39.13" width="24" height="24"><path d="M0,35.1 L0,12.6 L22.5,12.6 L22.5,27.18 C20.47,26.91 18.48,27.69 17.12,29.13 C15.84,30.52 14.95,32.68 15.6,35.1 Z" fill="none" stroke="currentColor" stroke-width="1.5"/><path d="M10.67,27.06 L11.06,20.97 L12.91,20.97 C13.41,22.62 13.81,24.04 14.05,25.28 C14.4,23.7 14.86,22.35 15.3,20.97 L17.12,20.97 L17.45,27.06 L16.1,27.06 C16.02,25.25 15.94,23.51 15.95,22.21 C15.56,23.68 15,25.45 14.49,27.06 L13.41,27.06 C12.97,25.47 12.5,23.83 12.18,22.2 C12.11,23.92 12.04,25.53 11.95,27.06 Z M6.46,27.06 L4.49,20.97 L6.01,20.97 C6.49,22.63 7.03,24.36 7.32,25.82 C7.66,24.3 8.19,22.62 8.67,20.97 L10.15,20.97 L8.08,27.06 Z" fill="none" stroke="currentColor" stroke-width="1.5"/><path d="M22.34,12.6 L22.34,0 L34.95,0 L34.95,12.6 Z" fill="none" stroke="currentColor" stroke-width="1.5"/><path d="M28.42,10.39 L30.27,10.39 L30.27,2.21 L28.69,2.21 L26.51,3.22 L26.82,4.65 L28.42,3.9 Z M23.34,11.6 L23.34,1 L33.94,1 L33.94,11.6 Z" fill="none" stroke="currentColor" stroke-width="1.5"/><path d="M21.75,39.13 C18.87,39.13 16.13,36.76 16.13,33.56 C16.13,29.96 19.1,27.87 21.72,27.87 C24.45,27.87 27.38,29.96 27.38,33.49 C27.38,37.31 24,39.13 21.75,39.13 Z" fill="none" stroke="currentColor" stroke-width="1.5"/><path d="M20.39,36.29 C20.23,36.29 20.16,36.17 20.16,36.07 L20.16,30.91 C20.16,30.8 20.22,30.67 20.39,30.67 L21.41,30.67 C21.71,30.71 22.51,31.45 23.02,31.94 C23.53,32.43 24.03,32.93 24.45,33.47 C24.48,33.52 24.49,33.55 24.46,33.59 C24.18,33.99 23.67,34.49 23.16,34.97 C22.57,35.51 21.82,36.2 21.43,36.29 Z" fill="none" stroke="currentColor" stroke-width="1.5"/></svg>