<svg xmlns="http://www.w3.org/2000/svg" viewBox="0 0 39.7 11.3" width="24" height="24"><path d="M39.7,0 L6,0 C2.8,0 0,2.7 0,5.8 L0,11.3 L39.7,11.3 Z" fill="none" stroke="currentColor" stroke-width="1.5"/><path d="M12.6,6.1 L33.9,6.1 L33.9,5.3 L12.6,5.3 Z M8.2,5.7 C8.2,6.6 7.5,7.2 6.7,7.2 C5.8,7.2 5.2,6.5 5.2,5.7 C5.2,4.8 5.9,4.2 6.7,4.2 C7.5,4.1 8.2,4.8 8.2,5.7 Z M12.6,6.1 L33.9,6.1 L33.9,5.3 L12.6,5.3 Z M8.2,5.7 C8.2,6.6 7.5,7.2 6.7,7.2 C5.8,7.2 5.2,6.5 5.2,5.7 C5.2,4.8 5.9,4.2 6.7,4.2 C7.5,4.1 8.2,4.8 8.2,5.7 Z" fill="none" stroke="currentColor" stroke-width="1.5"/></svg>