<svg xmlns="http://www.w3.org/2000/svg" viewBox="0 0 34.96 38.48" width="24" height="24"><path d="M0,35.09 L0,12.59 L22.5,12.59 L22.5,27.64 C22.04,27.57 21.68,27.77 21.38,28.11 C20.45,29.22 18.74,32.71 17.66,35.09 Z" fill="none" stroke="currentColor" stroke-width="1.5"/><path d="M10.68,27.06 L11.07,20.97 L12.92,20.97 C13.42,22.62 13.81,24.04 14.06,25.28 C14.41,23.7 14.87,22.35 15.31,20.97 L17.13,20.97 L17.46,27.06 L16.11,27.06 C16.03,25.25 15.95,23.51 15.95,22.21 C15.57,23.68 15,25.45 14.5,27.06 L13.41,27.06 C12.98,25.47 12.51,23.83 12.18,22.2 C12.11,23.92 12.04,25.53 11.96,27.06 Z M6.47,27.06 L4.5,20.97 L6.01,20.97 C6.49,22.63 7.04,24.36 7.33,25.82 C7.67,24.3 8.2,22.62 8.68,20.97 L10.16,20.97 L8.09,27.06 Z" fill="none" stroke="currentColor" stroke-width="1.5"/><path d="M22.35,12.6 L22.35,0 L34.96,0 L34.96,12.6 Z" fill="none" stroke="currentColor" stroke-width="1.5"/><path d="M31.59,10.29 L31.59,8.81 L28.68,8.81 C29.61,8.04 30.64,7.21 31.17,6.09 C31.52,5.37 31.62,4.23 30.93,3.37 C30.4,2.75 29.54,2.45 28.46,2.52 C27.61,2.57 26.78,2.89 26.26,3.29 L26.77,4.57 C27.29,4.18 27.86,3.94 28.49,3.94 C28.87,3.97 29.2,4.05 29.41,4.32 C29.94,5.04 29.54,5.96 28.75,6.79 C27.92,7.68 27.03,8.41 26.17,9.2 L26.17,10.29 Z M23.35,11.6 L23.35,1 L33.94,1 L33.94,11.6 Z" fill="none" stroke="currentColor" stroke-width="1.5"/><path d="M17.94,38.22 C17.64,38.17 17.42,37.91 17.5,37.57 C18.24,35.16 20.8,30.09 21.82,28.83 C22.14,28.48 22.56,28.55 22.79,28.83 C23.73,29.9 26.08,34.67 27.07,37.4 C27.22,37.92 26.96,38.16 26.6,38.21 C24.56,38.48 18.83,38.45 17.94,38.22 Z" fill="none" stroke="currentColor" stroke-width="1.5"/><path d="M21.71,35.2 L21.71,31.59 C21.71,31.32 21.89,31.14 22.18,31.14 L22.83,31.15 L22.83,34.77 C22.83,34.96 22.69,35.2 22.42,35.2 Z M22.24,37.08 C21.88,37.08 21.51,36.76 21.51,36.33 C21.51,35.88 21.88,35.57 22.27,35.57 C22.59,35.57 23.02,35.82 23.02,36.32 C23.02,36.68 22.76,37.08 22.24,37.08 Z" fill="none" stroke="currentColor" stroke-width="1.5"/></svg>