<svg xmlns="http://www.w3.org/2000/svg" viewBox="0 0 34.95 35.1" width="24" height="24"><path d="M0,35.1 L0,12.6 L22.5,12.6 L22.5,35.1 Z" fill="none" stroke="currentColor" stroke-width="1.5"/><path d="M10.67,27.06 L11.06,20.97 L12.91,20.97 C13.41,22.62 13.81,24.04 14.05,25.28 C14.4,23.7 14.86,22.35 15.3,20.97 L17.12,20.97 L17.45,27.06 L16.1,27.06 C16.02,25.25 15.94,23.51 15.95,22.21 C15.56,23.68 15,25.45 14.49,27.06 L13.41,27.06 C12.97,25.47 12.5,23.83 12.18,22.2 C12.11,23.92 12.04,25.53 11.95,27.06 Z M6.46,27.06 L4.49,20.97 L6.01,20.97 C6.49,22.63 7.03,24.36 7.32,25.82 C7.66,24.3 8.19,22.62 8.67,20.97 L10.15,20.97 L8.08,27.06 Z" fill="none" stroke="currentColor" stroke-width="1.5"/><path d="M22.34,12.6 L22.34,0 L34.95,0 L34.95,12.6 Z" fill="none" stroke="currentColor" stroke-width="1.5"/><path d="M31.58,10.29 L31.59,8.81 L28.68,8.81 C29.6,8.04 30.63,7.21 31.16,6.09 C31.51,5.37 31.62,4.23 30.92,3.37 C30.39,2.75 29.54,2.45 28.45,2.52 C27.61,2.57 26.77,2.89 26.26,3.29 L26.76,4.57 C27.28,4.18 27.85,3.94 28.48,3.94 C28.87,3.97 29.19,4.05 29.4,4.32 C29.94,5.04 29.54,5.96 28.74,6.79 C27.91,7.68 27.03,8.41 26.16,9.2 L26.16,10.29 Z M23.34,11.6 L23.34,1 L33.94,1 L33.94,11.6 Z" fill="none" stroke="currentColor" stroke-width="1.5"/></svg>