<svg xmlns="http://www.w3.org/2000/svg" viewBox="0 0 283.46 283.46" width="24" height="24"><path d="M0,283.46 L0,0 L283.46,0 L283.46,283.46 Z" fill="none" stroke="currentColor" stroke-width="1.5"/><path d="M147,247.97 L248.67,164.18 L147,42.49 L45.27,163.8 Z M104.12,172.22 C101.25,175.07 97.09,177.32 92.09,177.32 C84.03,177.32 76,170.66 76,160.9 C76,149.02 86.86,144.7 91.71,144.7 C95.13,144.7 97.23,145.27 99.82,146.66 L134.33,115.05 C132.37,112.7 130.69,108.94 130.69,104.02 C130.69,95.14 137.97,86.97 149.11,86.97 C161.45,86.97 168,95.55 168,104.21 C168,109 165.49,113.03 163.69,114.91 L190.4,147.18 C195.38,143.09 199.28,142.8 202.84,142.8 C208.13,142.8 218.29,147.85 218.29,159.85 C218.29,170.58 209.23,176.7 201.76,176.7 C197.79,176.7 192.04,174.56 189.19,171.12 L161.7,190.67 C163.7,193.58 164.62,196.65 164.64,199.05 C164.64,207.01 156.77,215.29 148.35,215.29 C139.2,215.29 131.82,207.68 131.82,199.24 C131.82,195.63 133.87,190.99 136.31,188.34 Z M108.34,164.72 L141.41,184.56 C142,184.19 142.98,183.83 143.72,183.61 L143.72,122.3 C142.42,121.8 141.01,120.99 139.82,120.19 L105.86,151.7 C108.2,155.02 108.85,160.35 108.34,164.72 Z M150.72,182.93 C151.82,183.01 152.86,183.22 153.83,183.8 L185.72,163.41 C184.49,160.23 184.55,156.92 185.78,153.49 L157,119.73 C155.73,120.51 153.16,121.32 150.72,121.87 Z" fill="none" stroke="currentColor" stroke-width="1.5"/></svg>