<svg xmlns="http://www.w3.org/2000/svg" viewBox="0 0 283.07 283.46" width="24" height="24"><path d="M0,283.46 L0,0 L283.07,0 L283.07,283.46 L0,283.46 Z" fill="none" stroke="currentColor" stroke-width="1.5"/><path d="M116.72,171.35 L141.6,146.54 L116.82,122.17 L106.45,132.35 L97.41,123.07 C98.98,120.34 99.11,117.13 97.47,113.33 L106.61,104.02 L116.79,114.67 L141.75,90.19 L116.75,65.26 L92.15,90.09 L102.96,100.3 L93.72,109.48 C90.45,107.61 86.18,108.21 83.75,109.51 L74.64,100.34 L85.12,90.16 L60.28,65.15 L35.66,90.23 L60.24,114.74 L70.92,104.12 L80.03,113.13 C78.32,116.74 78.2,119.77 80.05,123.1 L70.84,132.42 L60.2,121.74 L35.6,146.68 L60.29,171.17 L85.35,146.71 L74.74,136.03 L83.85,126.85 C86.65,128.41 90.6,128.59 93.62,126.79 L102.93,136.1 L92.18,146.71 L116.72,171.35 Z M23.24,184.5 L23.24,52.64 L154.98,52.64 L154.98,76.8 C147.01,89.32 140.84,104.24 142.07,123.88 C143,142.29 149.22,156.48 154.98,169.66 L154.98,184.5 L23.24,184.5 Z M167.45,166.33 C166.88,147.45 171.82,129.93 181.51,112.49 C187.78,101.09 197.09,90.11 206.63,81.6 C208.63,79.35 211.15,79.62 212.54,80.9 L223.72,92.03 L223.72,42.85 L174.68,42.85 L185.1,53.06 C187.51,55.21 188.11,57.77 185.8,59.99 C173.57,72.25 161.75,86.74 157.47,100.64 C150.26,121.26 157.86,147.15 167.45,166.33 L167.45,166.33 Z M182.66,165.17 L237.21,165.17 L237.21,132.85 L182.66,132.85 L182.66,165.17 Z M182.66,211.52 L237.21,211.52 L237.21,202.7 L182.66,202.7 L182.66,211.52 Z M182.66,230.49 L237.21,230.49 L237.21,222.22 L182.66,222.22 L182.66,230.49 Z M175.23,248.74 C171.36,248.74 168.68,246.3 168.9,241.96 L168.9,186.05 C155.88,161.32 143.11,134.92 147.87,106.25 C153.72,80.64 169.55,66.23 177.5,57.11 L162.54,42.05 C160.46,39.75 160.84,35.08 165.45,35.08 L227.07,35.08 C230.18,35.02 231.76,36.54 231.62,40.85 L231.62,100.91 C231.62,105.38 227.48,106.48 225.06,104.39 L209.84,89.42 C199.92,99.04 193,108.13 187.49,117.75 L243.09,117.75 C248.06,117.75 250.36,120.28 250.34,125.28 L250.34,242.96 C250.34,246.75 248.2,248.75 244.2,248.75 L175.23,248.74 Z" fill="none" stroke="currentColor" stroke-width="1.5"/></svg>