<svg xmlns="http://www.w3.org/2000/svg" viewBox="0 0 28.35 28.35" width="24" height="24"><path d="M0,28.35 L28.35,28.35 L28.35,0 L0,0 Z" fill="none" stroke="currentColor" stroke-width="1.5"/><path d="M20.84,7.96 L20.42,8.58 C22.29,9.84 23.13,12.51 22.67,15.72 L23.42,15.83 C23.92,12.33 22.95,9.39 20.84,7.96 Z M7.48,7.99 C5.37,9.42 4.42,12.37 4.94,15.86 L5.68,15.76 C5.21,12.55 6.04,9.88 7.9,8.61 Z M14.17,10.06 C13.09,10.06 12.08,10.49 11.32,11.25 C10.56,12.01 10.14,13.03 10.14,14.11 L10.15,19.68 L8.7,19.7 L8.7,20.45 L19.82,20.42 L19.82,19.67 L18.23,19.67 L18.22,14.09 C18.22,11.87 16.41,10.06 14.18,10.06 Z M19.3,10.19 L18.78,10.74 C18.79,10.75 20.57,12.5 20.09,15.72 L20.83,15.84 C21.37,12.23 19.38,10.28 19.3,10.19 Z M9.03,10.21 C8.95,10.3 6.97,12.26 7.53,15.86 L8.27,15.75 C7.77,12.55 9.48,10.82 9.56,10.75 Z M14.18,10.81 L14.18,10.81 C15.99,10.81 17.47,12.28 17.47,14.1 L17.48,19.65 L10.9,19.67 L10.89,14.11 C10.89,13.23 11.23,12.4 11.85,11.78 C12.47,11.16 13.3,10.81 14.18,10.81 Z" fill="none" stroke="currentColor" stroke-width="1.5"/></svg>