<svg xmlns="http://www.w3.org/2000/svg" viewBox="0 0 283.07 283.46" width="24" height="24"><path d="M0,283.46 L0,0 L283.07,0 L283.07,283.46 L0,283.46 Z" fill="none" stroke="currentColor" stroke-width="1.5"/><path d="M167.29,92.76 C170.45,92.76 170.78,91.01 170.03,89.03 L156.26,47.91 C155.61,46.05 155.3,45.13 152.38,45.17 L62.18,45.17 C59.7,45.17 58.88,45.72 57.99,48.38 L44.43,89.19 C43.51,91.85 44.41,92.76 46.84,92.76 L167.29,92.76 Z M117.92,145.03 L117.94,117.46 C117.94,114.33 116.45,112.45 114.01,112.45 L101.4,112.45 C98.11,112.45 96.63,114.45 96.63,117.09 L96.81,145.03 L90.62,145.03 C87.42,145.03 85.95,145.94 85.23,147.55 C84.42,150.22 85.57,151.82 86.78,152.67 L104.53,164.63 C106.09,165.74 107.88,166.08 109.65,164.56 L127.06,153.11 C129.17,151.81 130.08,149.97 129.74,148.26 C129.44,146.78 128.01,145.03 125.69,145.03 L117.92,145.03 Z M37,188.72 C32.32,188.72 31.17,186.79 31.17,182.48 L31.17,101.7 L51.16,40.95 C52.31,37.52 53.47,36.28 57.79,36.28 L157.31,36.28 C161.19,36.28 162.14,37.81 163.02,40.74 L183.61,101.59 L183.61,143.57 L160.04,143.57 L160.04,188.72 L37,188.72 Z M223.44,247.22 L248.34,247.22 L248.34,222.6 L223.44,222.6 L223.44,247.22 Z M174.96,247.22 L200.03,247.22 L200.03,222.6 L174.96,222.6 L174.96,247.22 Z M127.01,247.22 L152.47,247.22 L152.47,222.6 L127.01,222.6 L127.01,247.22 Z M121.41,252.84 L121.41,216.59 L136.79,216.59 L136.79,199.66 L184.68,199.66 L184.68,188.72 L169.01,188.72 L169.01,152.45 L205.73,152.45 L205.73,188.72 L190.38,188.72 L190.38,199.66 L239.2,199.66 L239.2,216.59 L254.45,216.59 L254.45,252.84 L217.73,252.84 L217.73,216.59 L233.49,216.59 L233.49,205.31 L190.38,205.31 L190.38,216.59 L205.73,216.59 L205.73,252.84 L169.01,252.84 L169.01,216.59 L184.68,216.59 L184.68,205.31 L142.77,205.31 L142.77,216.59 L158.07,216.59 L158.07,252.84 L121.41,252.84 Z" fill="none" stroke="currentColor" stroke-width="1.5"/></svg>