<svg xmlns="http://www.w3.org/2000/svg" viewBox="0 0 28.35 39.18" width="24" height="24"><path d="M28.35,7.1 L28.35,39.18 L0,39.18 L0,0 L21.38,0 Z" fill="none" stroke="currentColor" stroke-width="1.5"/><path d="M20.44,22.71 C20.23,22.71 20.07,22.54 20.07,22.33 L20.07,21.57 C20.07,21.36 20.23,21.19 20.44,21.19 C20.65,21.19 20.82,21.36 20.82,21.57 L20.82,22.33 C20.82,22.54 20.65,22.71 20.44,22.71 Z M18.39,23.56 C18.18,23.56 18.02,23.4 18.02,23.19 L18.02,20.9 C18.02,20.69 18.18,20.53 18.39,20.53 C18.6,20.53 18.77,20.69 18.77,20.9 L18.77,23.19 C18.77,23.4 18.6,23.56 18.39,23.56 Z M7.57,22.99 C7.36,22.99 7.2,22.82 7.2,22.62 L7.2,21.47 C7.2,21.27 7.36,21.1 7.57,21.1 C7.78,21.1 7.95,21.27 7.95,21.47 L7.95,22.62 C7.95,22.82 7.78,22.99 7.57,22.99 Z M9.67,23.56 C9.46,23.56 9.29,23.4 9.29,23.19 L9.29,20.9 C9.29,20.69 9.46,20.53 9.67,20.53 C9.88,20.53 10.04,20.69 10.04,20.9 L10.04,23.19 C10.04,23.4 9.88,23.56 9.67,23.56 Z M16.34,24.66 C16.13,24.66 15.97,24.49 15.97,24.29 L15.97,19.8 C15.97,19.6 16.13,19.43 16.34,19.43 C16.55,19.43 16.72,19.6 16.72,19.8 L16.72,24.29 C16.72,24.49 16.55,24.66 16.34,24.66 Z M11.86,24.83 C11.65,24.83 11.49,24.67 11.49,24.46 L11.49,19.63 C11.49,19.42 11.65,19.26 11.86,19.26 C12.07,19.26 12.24,19.42 12.24,19.63 L12.24,24.46 C12.24,24.67 12.07,24.83 11.86,24.83 Z M14.17,26.66 C13.97,26.66 13.8,26.49 13.8,26.29 L13.8,17.61 C13.8,17.41 13.97,17.24 14.17,17.24 C14.38,17.24 14.55,17.41 14.55,17.61 L14.55,26.29 C14.55,26.49 14.38,26.66 14.17,26.66 Z M14.17,30.75 C9.34,30.75 5.4,26.81 5.4,21.97 C5.4,17.14 9.34,13.2 14.17,13.2 C19.01,13.2 22.95,17.14 22.95,21.97 C22.95,26.81 19.01,30.75 14.17,30.75 Z M14.17,13.95 C9.75,13.95 6.15,17.55 6.15,21.97 C6.15,26.4 9.75,30 14.17,30 C18.6,30 22.2,26.4 22.2,21.97 C22.2,17.55 18.6,13.95 14.17,13.95 Z M26.01,7.85 L20.72,7.85 L20.72,2.48 C20.72,2.48 26.06,7.85 26.01,7.85 Z" fill="none" stroke="currentColor" stroke-width="1.5"/></svg>