<svg xmlns="http://www.w3.org/2000/svg" viewBox="0 0 100.0 100.0" width="24" height="24"><path d="M0,100 L0,0 L100,0 L100,100 Z" fill="none" stroke="currentColor" stroke-width="1.5"/><path d="M57.55,50.5 L63.82,42.87 C65.47,43.91 67.53,44.37 69.44,44.37 C77.45,44.37 82.06,37.46 82.06,32.18 C82.06,23.68 75.55,19.11 69.66,19.11 C62.18,19.11 56.82,24.83 56.82,31.33 C56.67,34.31 57.6,36.79 59.14,38.98 L52.14,47.36 L43.78,47.36 C42.63,41.78 37.01,37.86 31.66,37.86 C24.99,37.86 18.98,43.17 18.98,50.35 C18.98,57.06 24.26,63.01 31.7,63.01 C37.58,63.01 42.64,58.69 43.76,53.48 L52.21,53.48 L59.17,61.84 C57.75,63.83 56.62,66.45 56.65,69.53 C56.65,76.91 62.86,81.94 68.99,81.94 C78.19,81.94 81.86,74.31 81.86,69.39 C81.86,61.7 75.68,56.64 69.19,56.64 C66.99,56.64 65.33,57.2 63.84,57.92 Z M44.24,72.1 C41.96,73.53 37.39,75.17 32.46,75.17 C19.39,75.17 7.46,64.32 7.46,50.42 C7.46,35.02 20.19,24.89 31.88,24.89 C36.6,24.89 41.33,26.59 44.22,28.59 C45.64,17.16 55.45,6.62 69.43,6.62 C82.43,6.62 94.19,17.53 94.19,31.91 C94.19,40.17 89.91,46.27 86.1,50.22 C91.8,55.65 94.42,62.08 94.42,69.83 C94.42,86.75 81.37,95.85 69.06,95.85 C55.91,95.85 44.92,85.09 44.24,72.1 Z" fill="none" stroke="currentColor" stroke-width="1.5"/></svg>