<svg xmlns="http://www.w3.org/2000/svg" viewBox="0 0 34.02 34.02" width="24" height="24"><path d="M0,34.02 L34.02,34.02 L34.02,0 L0,0 Z" fill="none" stroke="currentColor" stroke-width="1.5"/><path d="M16.47,5.76 C11.48,5.76 6.17,6.94 6.17,9.12 C6.17,9.34 6.24,9.56 6.34,9.76 L6.32,9.77 L8.46,25.1 L8.5,25.39 C8.5,27.28 12.49,28.26 16.42,28.26 C20.28,28.26 24.39,27.23 24.39,25.37 L25.3,18.89 C25.7,18.96 26.08,19.01 26.42,19.01 C26.9,19.01 27.29,18.93 27.59,18.75 L27.67,18.69 C27.71,18.64 27.9,18.41 27.83,18.03 C27.73,17.42 27.03,16.81 25.73,16.15 L25.67,16.26 L26.58,9.82 L26.58,9.82 C26.7,9.59 26.78,9.36 26.78,9.12 C26.78,6.94 21.47,5.76 16.47,5.76 Z M16.47,6.51 C22.1,6.51 26.03,7.89 26.03,9.12 C26.03,10.36 22.1,11.73 16.47,11.73 C10.84,11.73 6.92,10.36 6.92,9.12 C6.92,7.89 10.84,6.51 16.47,6.51 Z M7.2,10.64 C8.98,11.84 12.81,12.48 16.47,12.48 C20.11,12.48 23.9,11.85 25.7,10.67 L24.67,17.98 C22.53,17.43 19.66,16.17 17.49,15.06 C17.49,15.04 17.49,15.02 17.49,15 C17.49,14.39 17,13.9 16.4,13.9 C15.79,13.9 15.3,14.39 15.3,15 C15.3,15.6 15.79,16.09 16.4,16.09 C16.71,16.09 16.99,15.95 17.19,15.74 C18.57,16.46 21.85,18.07 24.56,18.74 L23.68,24.99 L23.64,25.33 C23.64,26.36 20.55,27.51 16.42,27.51 C12.2,27.51 9.25,26.39 9.25,25.33 Z M25.57,16.92 C26.89,17.62 27.08,18.06 27.11,18.16 C26.74,18.32 26.14,18.3 25.4,18.16 Z" fill="none" stroke="currentColor" stroke-width="1.5"/></svg>