<svg xmlns="http://www.w3.org/2000/svg" viewBox="0 0 34.02 34.02" width="24" height="24"><path d="M0,34.02 L34.02,34.02 L34.02,0 L0,0 Z" fill="none" stroke="currentColor" stroke-width="1.5"/><path d="M27.29,19.83 C26.97,19.42 25.17,19.63 24.36,19.73 C24.12,19.76 24.08,19.54 24.3,19.39 C25.73,18.38 28.08,18.67 28.36,19.01 C28.63,19.35 28.28,21.71 26.94,22.83 C26.73,23 26.54,22.91 26.63,22.68 C26.93,21.93 27.61,20.24 27.29,19.83 Z M26.25,21.02 C23.74,22.87 20.11,23.85 16.98,23.85 C12.6,23.85 8.65,22.23 5.66,19.53 C5.43,19.32 5.64,19.03 5.92,19.19 C9.14,21.07 13.13,22.2 17.24,22.2 C20.02,22.2 23.07,21.62 25.88,20.43 C26.3,20.25 26.66,20.71 26.25,21.02 Z M12.01,15.13 C12.01,15.42 12.04,15.64 12.1,15.81 C12.15,15.98 12.24,16.16 12.34,16.36 C12.38,16.42 12.4,16.48 12.4,16.53 C12.4,16.61 12.35,16.69 12.25,16.76 L11.77,17.08 C11.7,17.12 11.63,17.14 11.57,17.14 C11.49,17.14 11.42,17.11 11.34,17.04 C11.24,16.93 11.15,16.81 11.07,16.68 C11,16.56 10.92,16.41 10.84,16.24 C10.24,16.94 9.5,17.29 8.6,17.29 C7.96,17.29 7.46,17.11 7.08,16.74 C6.71,16.38 6.52,15.89 6.52,15.28 C6.52,14.63 6.76,14.11 7.22,13.71 C7.68,13.32 8.3,13.12 9.08,13.12 C9.34,13.12 9.61,13.14 9.89,13.18 C10.17,13.22 10.46,13.28 10.76,13.35 L10.76,12.79 C10.76,12.21 10.64,11.81 10.4,11.57 C10.16,11.34 9.75,11.22 9.16,11.22 C8.89,11.22 8.62,11.25 8.34,11.32 C8.06,11.38 7.79,11.47 7.52,11.58 C7.4,11.63 7.31,11.66 7.26,11.68 C7.2,11.69 7.16,11.7 7.14,11.7 C7.03,11.7 6.98,11.62 6.98,11.46 L6.98,11.08 C6.98,10.96 6.99,10.87 7.03,10.82 C7.07,10.77 7.14,10.71 7.24,10.66 C7.51,10.53 7.83,10.41 8.2,10.31 C8.57,10.22 8.97,10.17 9.39,10.17 C10.29,10.17 10.96,10.37 11.38,10.79 C11.8,11.2 12.01,11.82 12.01,12.66 Z M8.92,16.29 C9.17,16.29 9.43,16.24 9.71,16.15 C9.98,16.06 10.22,15.9 10.43,15.67 C10.55,15.52 10.64,15.36 10.69,15.18 C10.73,15 10.76,14.78 10.76,14.52 L10.76,14.2 C10.54,14.15 10.3,14.11 10.06,14.07 C9.82,14.04 9.58,14.03 9.35,14.03 C8.84,14.03 8.46,14.13 8.22,14.33 C7.97,14.54 7.84,14.83 7.84,15.21 C7.84,15.57 7.94,15.84 8.12,16.02 C8.31,16.2 8.57,16.29 8.92,16.29 Z M15.03,17.12 C14.9,17.12 14.8,17.09 14.74,17.04 C14.68,16.99 14.62,16.89 14.58,16.74 L12.8,10.86 C12.75,10.71 12.73,10.61 12.73,10.55 C12.73,10.43 12.79,10.37 12.92,10.37 L13.66,10.37 C13.8,10.37 13.9,10.39 13.96,10.44 C14.02,10.49 14.07,10.59 14.11,10.74 L15.39,15.77 L16.58,10.74 C16.61,10.59 16.66,10.49 16.72,10.44 C16.79,10.39 16.89,10.37 17.03,10.37 L17.64,10.37 C17.78,10.37 17.89,10.39 17.95,10.44 C18.01,10.49 18.06,10.59 18.1,10.74 L19.29,15.84 L20.61,10.74 C20.66,10.59 20.71,10.49 20.76,10.44 C20.82,10.39 20.92,10.37 21.06,10.37 L21.77,10.37 C21.89,10.37 21.96,10.43 21.96,10.55 C21.96,10.59 21.95,10.63 21.94,10.67 C21.93,10.72 21.92,10.78 21.89,10.86 L20.05,16.74 C20.01,16.89 19.95,16.99 19.89,17.04 C19.83,17.09 19.73,17.12 19.6,17.12 L18.95,17.12 C18.81,17.12 18.7,17.09 18.64,17.04 C18.58,16.98 18.53,16.88 18.49,16.73 L17.31,11.83 L16.14,16.73 C16.1,16.88 16.05,16.98 15.99,17.04 C15.93,17.09 15.83,17.12 15.69,17.12 Z M24.81,17.32 C24.41,17.32 24.02,17.27 23.63,17.18 C23.25,17.09 22.96,16.99 22.76,16.88 C22.63,16.81 22.55,16.74 22.52,16.66 C22.49,16.59 22.48,16.52 22.48,16.45 L22.48,16.06 C22.48,15.91 22.53,15.83 22.65,15.83 C22.69,15.83 22.74,15.83 22.79,15.85 C22.84,15.87 22.9,15.9 22.98,15.93 C23.24,16.05 23.52,16.14 23.82,16.2 C24.12,16.26 24.42,16.29 24.73,16.29 C25.21,16.29 25.58,16.21 25.84,16.04 C26.1,15.87 26.23,15.63 26.23,15.32 C26.23,15.11 26.16,14.93 26.02,14.79 C25.89,14.64 25.63,14.51 25.26,14.39 L24.15,14.04 C23.59,13.86 23.19,13.61 22.94,13.27 C22.68,12.93 22.56,12.56 22.56,12.16 C22.56,11.84 22.62,11.56 22.76,11.32 C22.9,11.07 23.08,10.87 23.31,10.69 C23.53,10.52 23.8,10.39 24.1,10.3 C24.4,10.21 24.72,10.17 25.06,10.17 C25.23,10.17 25.4,10.18 25.57,10.2 C25.74,10.22 25.91,10.25 26.06,10.29 C26.22,10.32 26.36,10.36 26.5,10.41 C26.63,10.45 26.74,10.49 26.82,10.54 C26.92,10.6 27,10.66 27.04,10.73 C27.09,10.79 27.11,10.87 27.11,10.98 L27.11,11.34 C27.11,11.5 27.05,11.58 26.94,11.58 C26.87,11.58 26.78,11.55 26.64,11.48 C26.21,11.29 25.72,11.19 25.18,11.19 C24.74,11.19 24.41,11.26 24.17,11.4 C23.93,11.55 23.81,11.77 23.81,12.08 C23.81,12.3 23.88,12.48 24.03,12.62 C24.18,12.77 24.46,12.91 24.87,13.04 L25.95,13.39 C26.5,13.57 26.89,13.81 27.13,14.12 C27.36,14.43 27.48,14.79 27.48,15.19 C27.48,15.51 27.42,15.81 27.28,16.07 C27.15,16.33 26.97,16.56 26.73,16.74 C26.49,16.93 26.21,17.07 25.88,17.17 C25.56,17.27 25.2,17.32 24.81,17.32 Z" fill="none" stroke="currentColor" stroke-width="1.5"/></svg>