<svg xmlns="http://www.w3.org/2000/svg" viewBox="0 0 28.93 24.54" width="24" height="24"><path d="M21.76,5.65 L0,5.65 L0,0 L21.76,0 Z M20.57,8.08 L0.97,8.08 L0.97,5.82 L20.57,5.82 Z M12.02,13.9 L0,13.9 L0,8.25 L21.76,8.25 L21.76,9.5 L20.47,10.58 L12.02,10.58 Z M12.02,16.32 L0.97,16.32 L0.97,14.07 L12.02,14.07 Z M12.02,22.15 L0,22.15 L0,16.5 L12.02,16.5 Z" fill="none" stroke="currentColor" stroke-width="1.5"/><path d="M14.66,24.54 C13.58,24.54 12.76,23.48 12.76,22.62 L12.76,11.34 L20.74,11.34 L22.25,10.05 C22.62,9.69 22.8,9.55 23.52,9.55 L28.13,9.55 C28.49,9.55 28.93,9.87 28.93,10.27 L28.93,24.54 Z" fill="none" stroke="currentColor" stroke-width="1.5"/><path d="M19.19,19.24 L19.69,19.25 C19.72,18.61 19.75,17.98 19.78,17.36 C19.88,17.92 20.08,18.59 20.24,19.2 L20.67,19.21 C20.87,18.58 21.08,17.96 21.24,17.37 C21.24,17.99 21.27,18.62 21.3,19.25 L21.83,19.25 L21.7,16.87 L20.99,16.86 C20.81,17.39 20.64,17.94 20.5,18.54 C20.41,18.02 20.22,17.43 20.06,16.86 L19.34,16.86 Z M17.55,19.25 L18.19,19.25 L18.98,16.87 L18.41,16.86 C18.23,17.51 18,18.16 17.89,18.79 C17.79,18.26 17.55,17.51 17.38,16.86 L16.78,16.87 Z M15.04,13.61 L23.79,13.61 L23.79,22.36 L15.04,22.36 Z" fill="none" stroke="currentColor" stroke-width="1.5"/><path d="M25.88,21.49 L26.58,21.49 L26.58,20.4 L25.88,20.4 Z M25.71,22.36 L25.71,20.06 L26.75,20.06 L26.75,22.36 Z" fill="none" stroke="currentColor" stroke-width="1.5"/><path d="M25.76,19.36 L25.76,18.91 L26.69,18.91 L26.69,18.4 L25.76,18.4 L25.76,17.93 L26.69,17.93 L26.69,17.42 L25.76,17.42 L25.76,16.96 L26.69,16.96 L26.69,16.53 L25.76,16.53 L25.76,16.07 L26.69,16.07 L26.69,15.56 L25.76,15.56 L25.76,15.09 L26.69,15.09 L26.69,14.58 L25.76,14.58 L25.76,14.12 L26.69,14.12 L26.69,13.66 L26.25,13.66 L26.25,19.36 Z" fill="none" stroke="currentColor" stroke-width="1.5"/></svg>