<svg xmlns="http://www.w3.org/2000/svg" viewBox="0 0 28.32 28.35" width="24" height="24"><path d="M0,28.35 L28.32,28.35 L28.32,6.52 L0,6.52 Z M0,5.27 L28.32,5.27 L28.32,0 L0,0 Z" fill="none" stroke="currentColor" stroke-width="1.5"/><path d="M18.58,1.77 C18.1,1.77 17.71,2.16 17.71,2.64 C17.71,3.12 18.1,3.51 18.58,3.51 C19.06,3.51 19.45,3.12 19.45,2.64 C19.45,2.16 19.06,1.77 18.58,1.77 Z M21.49,1.77 C21.01,1.77 20.62,2.16 20.62,2.64 C20.62,3.12 21.01,3.51 21.49,3.51 C21.96,3.51 22.35,3.12 22.35,2.64 C22.35,2.16 21.96,1.77 21.49,1.77 Z M24.39,1.77 C23.91,1.77 23.52,2.16 23.52,2.64 C23.52,3.12 23.91,3.51 24.39,3.51 C24.87,3.51 25.26,3.12 25.26,2.64 C25.26,2.16 24.87,1.77 24.39,1.77 Z M14.73,10.56 C12.16,10.56 9.84,11.98 8.66,14.19 L7.08,13.73 L8.1,17.9 L11.2,14.93 L9.41,14.4 C10.48,12.52 12.5,11.31 14.73,11.31 C18.11,11.31 20.86,14.06 20.86,17.44 C20.86,20.83 18.11,23.58 14.73,23.58 C13.02,23.58 11.44,22.9 10.27,21.66 L9.72,22.17 C11.04,23.56 12.81,24.33 14.73,24.33 C18.52,24.33 21.61,21.24 21.61,17.44 C21.61,13.65 18.52,10.56 14.73,10.56 Z" fill="none" stroke="currentColor" stroke-width="1.5"/></svg>