<svg xmlns="http://www.w3.org/2000/svg" viewBox="0 0 28.35 39.18" width="24" height="24"><path d="M28.35,7.1 L28.35,39.18 L0,39.18 L0,0 L21.38,0 Z" fill="none" stroke="currentColor" stroke-width="1.5"/><path d="M20.72,2.49 L20.72,7.86 L26.01,7.86 C26.07,7.86 20.72,2.49 20.72,2.49 Z M14.83,14.95 C11.7,14.95 8.86,16.69 7.42,19.39 L5.5,18.83 L6.74,23.9 L10.52,20.29 L8.16,19.6 C9.5,17.23 12.03,15.7 14.83,15.7 C19.04,15.7 22.47,19.13 22.47,23.35 C22.47,27.56 19.04,30.99 14.83,30.99 C12.7,30.99 10.73,30.14 9.27,28.6 L8.72,29.11 C10.33,30.81 12.49,31.74 14.83,31.74 C19.45,31.74 23.22,27.97 23.22,23.35 C23.22,18.72 19.45,14.95 14.83,14.95 Z" fill="none" stroke="currentColor" stroke-width="1.5"/></svg>