<svg xmlns="http://www.w3.org/2000/svg" viewBox="0 0 567.59 496.53" width="24" height="24"><path d="M0,496.46 L0,246.52 C11.18,242.7 22.2,239.66 33.56,236.9 L33.56,219.51 C50.43,208.42 82.59,205.52 102.38,205.52 L102.38,71.12 C120.76,64.42 139.79,58.73 159.42,53.79 L159.42,24.81 C186.12,5.95 234.75,0.02 285.57,0 C325.9,0 381.12,5.54 407.88,24.56 L407.88,52.37 L465.03,71.31 L465.03,205.5 C493.41,205.38 524.81,210.91 533.97,220.28 L533.97,236.18 C545.6,239.06 556.68,242.58 567.59,246.7 L567.59,496.53 Z" fill="none" stroke="currentColor" stroke-width="1.5"/><path d="M16.33,450.16 C32.59,445.15 48.97,440.96 64.88,438.8 L64.88,402.97 C45.46,406.6 29.67,410.44 16.33,414.42 Z M81.72,435.77 C88.83,434.91 95.23,434.37 101.99,434.23 L101.99,399.17 C94.96,399.54 88.04,399.96 81.72,400.68 Z M131.11,415.8 C160.14,408.39 189.27,400.69 213.45,396.73 L213.45,337.1 C182.52,342.02 156.38,349.23 131.11,356.98 Z M242.2,392.9 C268.05,389.68 295.53,388.58 324.95,391.07 L324.95,332.2 C297.44,329.03 269.71,329.98 242.2,333.22 Z M353.88,395.35 C381.15,399.53 408.79,406.96 436.07,414.65 L436.07,355.28 C410.16,346.46 382.65,340.03 353.88,335.5 Z M464.41,434.3 C471.56,434.1 478.28,434.51 485.67,435.06 L485.67,399.93 C478.75,399.63 472.49,398.96 464.41,399.36 Z M502.53,437.33 C517.46,439.32 535.6,444.04 551.02,449.26 L551.02,413.56 C536.24,408.97 520.58,404.84 502.53,402.01 Z M16.33,394.5 C33.24,389.32 49.4,385.58 64.88,383.26 L64.88,347.84 C47.99,349.94 31.79,354.08 16.33,359.02 Z M81.72,380.19 C87.8,379.66 94.9,379.12 101.99,378.58 L101.99,343.83 C95.42,344.14 88.28,344.66 81.72,345.48 Z M16.33,340.8 C28.81,336.68 43.12,332.67 64.88,329.06 L64.88,293.73 C48.58,296.47 32.37,300.68 16.33,304.91 Z M81.72,327.26 C89.21,325.87 95.5,325.4 101.99,325.27 L101.99,289.94 C95.2,290.25 88.75,290.65 81.72,291.46 Z M16.33,290.32 C30.56,286.23 44.5,282.12 64.88,278.77 L64.88,243.35 C48.09,246.61 32.13,250.62 16.33,254.62 Z M81.72,276.87 C88.52,275.69 95.44,275.16 101.99,274.98 L101.99,239.75 C95.07,240.03 88.13,240.38 81.72,241.17 Z M131.11,321.65 C158.24,314.12 185.82,307.17 213.45,302.14 L213.45,242.67 C186.05,247.46 158.51,253.86 131.11,262.18 Z M242.2,298.73 C265.3,294.74 293.78,294.79 324.95,296.84 L324.95,237.56 C296.56,235.09 269.07,234.8 242.2,238.88 Z M353.88,300.63 C379.91,305.04 407.51,311.68 436.07,320.14 L436.07,261.04 C409.47,251.45 381.98,245.2 353.88,241.16 Z M131.11,230.36 C157.7,222.24 185.34,215.56 213.45,210.47 L213.45,151.19 C184.58,156.54 156.95,163.2 131.11,171.08 Z M242.2,207.06 C267.94,202.98 296.2,203.61 324.95,205.55 L324.95,145.89 C301.02,143.61 268.97,143.27 242.2,147.21 Z M353.88,209.52 C380.36,212.9 408.09,220.48 436.07,228.84 L436.07,169.37 C409.18,160.42 381.77,153.89 353.88,149.48 Z M131.11,144.75 C159.11,136.78 186.46,130.3 213.45,124.86 L213.45,65.58 C184.59,69.73 158.04,77.27 131.11,84.33 Z M242.2,120.88 C268.51,118.08 295.62,116.9 324.95,120.13 L324.95,60.46 C297.36,57.86 269.79,58.41 242.2,60.84 Z M353.88,123.72 C378.14,127.26 404.75,132.96 436.07,143.04 L436.07,83.95 C407.68,73.5 380.79,68.53 353.88,63.49 Z M464.41,378.57 C470.88,378.37 477.45,378.55 485.67,379.61 L485.67,344.38 C479.45,343.8 473.57,343.14 464.41,343.53 Z M502.53,381.79 C520.9,383.93 535.53,389.33 551.02,394.1 L551.02,358.12 C536.73,353.78 521.57,349.65 502.53,346.56 Z M464.41,324.88 C471.69,324.41 477.89,325.1 485.67,326.3 L485.67,290.5 C479.05,290 472.73,289.36 464.41,289.84 Z M502.53,328.66 C516.34,329.76 537.99,335.38 551.02,339.93 L551.02,304.25 C539.74,300.15 516.64,294.73 502.53,292.77 Z M464.41,274.49 C471.22,274.29 479.47,275.14 485.67,275.92 L485.67,240.21 C477.69,239.52 470.38,239.3 464.41,239.36 Z M502.53,278.47 C517.67,279.77 534.33,284.52 551.02,289.55 L551.02,253.94 C533.94,248.89 517.59,244.86 502.53,242.58 Z" fill="none" stroke="currentColor" stroke-width="1.5"/></svg>