<svg xmlns="http://www.w3.org/2000/svg" viewBox="0 0 28.35 28.35" width="24" height="24"><path d="M0,28.35 L28.35,28.35 L28.35,6.63 L0,6.63 Z M0,5.24 L28.35,5.24 L28.35,0 L0,0 Z" fill="none" stroke="currentColor" stroke-width="1.5"/><path d="M2.54,10.21 L2.54,24.76 L20.94,24.76 L21.31,24.68 L21.31,20.32 L25.81,20.32 L25.81,10.21 Z M3.29,10.96 L7.12,10.96 L7.12,14.97 L3.29,14.97 Z M7.88,10.96 L11.6,10.96 L11.6,14.97 L7.88,14.97 Z M12.35,10.96 L16.08,10.96 L16.08,14.97 L12.35,14.97 Z M16.83,10.96 L20.56,10.96 L20.56,14.97 L16.83,14.97 Z M21.31,10.96 L25.06,10.96 L25.06,14.97 L21.31,14.97 Z M3.29,15.72 L7.12,15.72 L7.12,19.57 L3.29,19.57 Z M7.88,15.72 L11.6,15.72 L11.6,19.57 L7.88,19.57 Z M12.35,15.72 L16.08,15.72 L16.08,19.57 L12.35,19.57 Z M16.83,15.72 L20.56,15.72 L20.56,19.57 L16.83,19.57 Z M21.31,15.72 L25.06,15.72 L25.06,19.57 L21.31,19.57 Z M3.29,20.32 L7.12,20.32 L7.12,24.01 L3.29,24.01 Z M7.88,20.32 L11.6,20.32 L11.6,24.01 L7.88,24.01 Z M12.35,20.32 L16.08,20.32 L16.08,24.01 L12.35,24.01 Z M16.83,20.32 L20.56,20.32 L20.56,24.01 L16.83,24.01 Z" fill="none" stroke="currentColor" stroke-width="1.5"/></svg>