<svg xmlns="http://www.w3.org/2000/svg" viewBox="0 0 34.02 34.02" width="24" height="24"><path d="M0,34.02 L34.02,34.02 L34.02,0 L0,0 Z" fill="none" stroke="currentColor" stroke-width="1.5"/><path d="M8.08,4.52 L8.08,7.09 L5.51,7.09 L5.51,21.92 C9.51,21.96 13.59,21.84 17.55,21.92 C17.55,21.87 17.56,21.79 17.57,21.76 C18.34,19.61 20.4,18.17 22.69,18.17 C25.69,18.17 28.13,20.61 28.13,23.61 C28.13,26.61 25.69,29.05 22.69,29.05 C22,29.05 21.32,28.93 20.69,28.68 L20.41,29.37 C21.14,29.66 21.9,29.8 22.69,29.8 C26.1,29.8 28.88,27.03 28.88,23.61 C28.88,20.26 26.22,17.54 22.91,17.43 L22.91,4.52 Z M8.83,5.27 L22.16,5.27 L22.16,17.44 C21.52,17.49 20.91,17.66 20.34,17.9 L20.34,7.09 L8.83,7.09 Z M8.38,12.36 L9.35,12.36 L10.39,15.51 L10.41,15.51 L11.44,12.36 L12.32,12.36 L10.83,16.65 L9.87,16.65 Z M13,12.36 L14.29,12.36 L15.23,15.33 L15.26,15.33 L16.19,12.36 L17.47,12.36 L17.47,16.65 L16.54,16.65 L16.54,13.49 L16.52,13.49 L15.52,16.65 L14.81,16.65 L13.82,13.49 L13.8,13.49 L13.8,16.65 L13,16.65 Z M22.24,19.34 L22.23,24.25 L27.06,24.25 L27.06,23.51 L22.98,23.5 L22.99,19.34 Z M12.33,24.34 L12.33,25.09 L17.2,25.09 L17.2,24.34 Z M14.2,26.36 L14.2,27.11 L17.72,27.11 L17.72,26.36 Z M16.74,28.23 L16.74,28.98 L19.06,28.98 L19.06,28.23 Z" fill="none" stroke="currentColor" stroke-width="1.5"/></svg>