<svg xmlns="http://www.w3.org/2000/svg" viewBox="0 0 283.08 283.46" width="24" height="24"><path d="M0,283.46 L0,0 L283.08,0 L283.08,283.46 L0,283.46 Z" fill="none" stroke="currentColor" stroke-width="1.5"/><path d="M232.68,125.47 L232.68,107.65 L74.84,107.65 L74.84,125.47 L232.68,125.47 Z M192.14,190.65 L192.14,186.4 L180.62,186.4 L180.62,190.65 L192.14,190.65 Z M198.75,190.65 L222.3,190.65 L222.3,186.4 L198.75,186.4 L198.75,190.65 Z M78.17,205.1 C73.62,205.1 67.09,201.75 67.09,194.18 L67.09,180.9 L123.87,180.9 L124.1,149.01 L67.09,149.01 L67.09,91.86 C67.09,81.34 73.25,78.82 79.83,78.82 L228.68,78.82 C235.82,78.82 240.16,84.03 240.16,90.51 L240.16,193.48 C240.28,199.78 236.51,205.1 227.57,205.1 L78.17,205.1 Z M61.6,195.84 L21.83,165.14 L61.6,133.92 L61.6,154.76 L118.17,154.76 L118.19,175.35 L61.6,175.35 L61.6,195.84 Z" fill="none" stroke="currentColor" stroke-width="1.5"/></svg>