<svg xmlns="http://www.w3.org/2000/svg" viewBox="0 0 91.54 100.01" width="24" height="24"><path d="M36.77,54.86 C26.07,54.86 13.41,46.1 13.41,30.91 L13.41,24.44 C13.41,10.3 24.36,0 36.97,0 C51.56,0 61.24,11.4 61.24,24.4 L61.24,31.6 C61.24,42.07 52.25,54.86 36.77,54.86 Z M3.32,99.99 C2.02,99.99 0,98.27 0,96.15 L0,84.59 C0,71.93 8.85,59.9 21.23,56.25 C24.91,58.69 30.64,60.95 37.26,60.95 C44.11,60.95 49.88,58.96 53.76,56.17 C57.07,57.48 59.68,58.75 63.19,61.33 C56.3,64.76 50.38,72.62 50.38,81.79 C50.43,90.74 54.9,96.64 58.79,99.99 Z" fill="none" stroke="currentColor" stroke-width="1.5"/><path d="M73.45,100.01 C64.28,100.01 55.52,92.86 55.52,81.74 C55.52,72.48 62.87,63.93 73.8,63.93 C81.76,63.93 91.54,70.18 91.54,82.13 C91.09,94.15 81.79,100.01 73.45,100.01 Z" fill="none" stroke="currentColor" stroke-width="1.5"/><path d="M76.12,76.15 L76.12,74.42 L70.88,74.42 L70.88,76.15 Z M64.3,82.89 C63.65,82.89 63.27,82.64 63.27,81.94 L63.27,76.43 L69.67,76.43 L69.67,73.88 C69.67,73.13 70,72.66 71.03,72.66 L76.37,72.66 C77.06,72.66 77.47,73.25 77.47,73.86 L77.47,76.43 L83.75,76.43 L83.75,81.75 C83.75,82.54 83.53,82.89 82.57,82.89 L75.99,82.89 C75.96,82.32 75.56,81.56 74.77,81.56 L72.28,81.56 C71.48,81.56 71.09,82.31 70.99,82.89 Z M72.18,84.18 L72.18,82.76 L74.81,82.76 L74.81,84.18 Z M63.27,91.76 L63.27,84.08 L71.01,84.08 C71.06,84.69 71.52,85.22 72.06,85.22 L74.91,85.22 C75.48,85.22 75.92,84.6 76.04,84.08 L83.75,84.08 L83.75,91.76 Z" fill="none" stroke="currentColor" stroke-width="1.5"/></svg>