<svg xmlns="http://www.w3.org/2000/svg" viewBox="0 0 28.35 28.35" width="24" height="24"><path d="M0,28.35 L28.35,28.35 L28.35,0 L0,0 Z" fill="none" stroke="currentColor" stroke-width="1.5"/><path d="M6.17,4.87 L6.17,15.65 L4.7,15.65 L4.7,21.05 L6.17,21.05 L6.17,23.48 L6.92,23.48 L6.92,21.05 L8.4,21.05 L8.4,15.65 L6.92,15.65 L6.92,4.87 Z M5.45,16.4 L7.65,16.4 L7.65,20.3 L5.45,20.3 Z M13.8,4.87 L13.8,7.74 L12.33,7.74 L12.33,13.14 L13.8,13.14 L13.8,23.48 L14.55,23.48 L14.55,13.14 L16.02,13.14 L16.02,7.74 L14.55,7.74 L14.55,4.87 Z M13.08,8.49 L15.27,8.49 L15.27,12.39 L13.08,12.39 Z M21.42,4.87 L21.42,13.74 L19.95,13.74 L19.95,19.14 L21.42,19.14 L21.42,23.48 L22.17,23.48 L22.17,19.14 L23.65,19.14 L23.65,13.74 L22.17,13.74 L22.17,4.87 Z M20.7,14.49 L22.9,14.49 L22.9,18.39 L20.7,18.39 Z" fill="none" stroke="currentColor" stroke-width="1.5"/></svg>