<svg xmlns="http://www.w3.org/2000/svg" viewBox="0 0 39.7 11.3" width="24" height="24"><path d="M0,11.3 L39.7,11.3 L39.7,0 L0,0 Z" fill="none" stroke="currentColor" stroke-width="1.5"/><path d="M31.7,1.2 L31.7,2.8 L33.3,2.8 L33.3,1.2 Z M32,1.5 L33,1.5 L33,2.5 L32,2.5 Z M3.7,2.2 L3.7,9.2 L7.2,9.2 L7.2,2.2 Z M9.4,2.2 L9.4,9.2 L12.9,9.2 L12.9,2.2 Z M15.2,2.2 L15.2,9.2 L18.7,9.2 L18.7,2.2 Z M21,2.2 L21,9.2 L24.5,9.2 L24.5,2.2 Z M30.4,2.4 C29.96,2.4 29.6,2.76 29.6,3.2 C29.6,3.64 29.96,4 30.4,4 C30.84,4 31.2,3.64 31.2,3.2 C31.2,2.76 30.84,2.4 30.4,2.4 Z M34,2.7 L34,4.2 L35.5,4.2 L35.5,2.7 Z M4.4,2.9 L6.4,2.9 L6.4,8.4 L4.4,8.4 Z M10.2,2.9 L12.2,2.9 L12.2,8.4 L10.2,8.4 Z M16,2.9 L18,2.9 L18,8.4 L16,8.4 Z M21.7,2.9 L23.7,2.9 L23.7,8.4 L21.7,8.4 Z M28.6,4.8 L31.5,9.6 L33.6,9.6 L36.4,4.8 Z M29.9,5.5 L35.1,5.5 L33.2,8.8 L31.9,8.8 Z" fill="none" stroke="currentColor" stroke-width="1.5"/></svg>