<svg xmlns="http://www.w3.org/2000/svg" viewBox="0 0 22.5 22.51" width="24" height="24"><path d="M0,22.51 L0,0 L22.5,0.01 L22.5,22.5 Z" fill="none" stroke="currentColor" stroke-width="1.5"/><path d="M8.78,7.25 C8.6,7.19 8.53,7.05 8.8,6.93 C9.45,6.66 10.3,6.65 11.12,6.64 C11.84,6.65 12.7,6.69 13.28,6.9 C13.59,7 13.58,7.18 13.29,7.29 C12.55,7.52 11.89,7.54 11.1,7.55 C10.46,7.54 9.58,7.55 8.78,7.25 Z M5.94,14.01 C4.75,12.61 4.03,10.13 4.02,8.85 C4,7.27 4.76,6 6.13,4.6 L5.08,3.54 C4.99,3.46 4.95,3.11 5.26,3.11 L9.55,3.1 C9.66,3.1 9.74,3.17 9.78,3.23 C10.17,3.15 10.55,3.12 10.91,3.11 C15.52,3.11 17.7,6.81 17.7,9.69 C17.71,10.95 17.39,12.12 16.76,13.18 C16.4,13.02 16,12.88 15.48,12.88 C16.07,12.01 16.54,10.92 16.46,9.4 C16.46,7.55 14.68,4.34 11.01,4.34 C10.52,4.33 10.16,4.4 9.81,4.48 L9.81,6.31 C9.63,6.33 9.42,6.36 9.28,6.39 L9.28,3.63 L5.91,3.63 L6.7,4.42 C6.8,4.52 6.8,4.67 6.67,4.8 C5.52,5.96 4.64,7.12 4.56,8.55 C4.51,9.92 4.97,10.99 5.43,12.05 C5.42,9.96 6.33,7.84 8.16,6.23 C8.29,6.12 8.43,6.13 8.52,6.23 L8.8,6.51 C7.67,7.14 6.09,9.26 5.97,11.64 C6.23,12.36 6.66,12.98 7.18,13.54 C7.1,13.68 7.01,13.8 6.93,14.02 C6.63,13.98 6.33,13.93 5.94,14.01 Z" fill="none" stroke="currentColor" stroke-width="1.5"/><path d="M14.53,14.4 C15.45,14.31 16.31,14.55 16.85,15.51 C17.09,15.43 17.33,15.37 17.56,15.37 C17.1,14.2 15.74,13.58 14.53,14.4 Z M4.79,17 C5.17,16.01 5.96,15.47 6.87,15.47 C6.91,15.19 6.98,14.97 7.07,14.78 C5.84,14.73 4.68,15.43 4.79,17 Z M8.35,18.52 C7.95,18.93 7.3,19.24 6.23,19.22 C5.23,19.22 3.84,18.38 3.84,16.88 C3.84,15.56 4.83,14.59 6,14.38 C6.44,14.31 6.83,14.36 7.14,14.47 C7.45,13.67 7.92,13 8.74,12.49 C9.57,11.96 10.53,11.8 11.39,11.95 C12.72,12.16 13.58,13 14,13.64 C14.46,13.38 14.94,13.26 15.37,13.26 C17.27,13.26 18.36,14.87 18.36,16.21 C18.35,17.6 17.38,18.99 15.65,19.21 C14.82,19.24 13.81,19.24 13.12,18.6 C11.56,19.78 9.68,19.6 8.35,18.52 Z M8.63,10.67 C8.77,10.9 9.32,10.95 9.76,11.03 C10.8,11.15 11.96,11.12 12.85,10.95 C13.17,10.88 13.46,10.8 13.51,10.67 L13.51,11.92 C13.49,12.07 13.23,12.14 13.06,12.19 C12.3,11.7 11.56,11.54 10.82,11.52 C10.16,11.52 9.4,11.66 8.72,12.05 C8.67,12.02 8.63,11.98 8.62,11.92 Z M8.63,8.91 C8.7,9.03 8.93,9.11 9.25,9.18 C10.47,9.38 11.83,9.37 12.94,9.16 C13.22,9.1 13.46,9.02 13.51,8.9 L13.51,10.15 C13.5,10.3 13.15,10.4 12.89,10.45 C11.85,10.65 10.43,10.68 9.26,10.46 C8.84,10.38 8.64,10.28 8.63,10.14 Z M8.62,8.38 L8.62,7.11 C8.71,7.29 9.06,7.36 9.28,7.41 C10.55,7.61 11.78,7.6 12.99,7.38 C13.24,7.33 13.43,7.25 13.51,7.12 L13.51,8.38 C13.48,8.54 13.09,8.64 12.71,8.71 C11.62,8.88 10.33,8.89 9.17,8.67 C8.91,8.59 8.65,8.51 8.62,8.38 Z" fill="none" stroke="currentColor" stroke-width="1.5"/></svg>