<svg xmlns="http://www.w3.org/2000/svg" viewBox="0 0 28.35 28.35" width="24" height="24"><path d="M28.35,14.18 C28.35,6.35 22,0 14.17,0 C6.35,0 0,6.35 0,14.18 C0,22.01 6.35,28.35 14.17,28.35 C22,28.35 28.35,22.01 28.35,14.18 Z" fill="none" stroke="currentColor" stroke-width="1.5"/><path d="M12.16,1.68 C11.85,1.73 11.54,1.79 11.24,1.86 C10.78,2.87 10.19,4.34 9.67,6.17 L4.36,6.17 C4.16,6.41 3.98,6.66 3.8,6.92 L9.47,6.92 C9.26,7.77 9.07,8.69 8.91,9.66 L9.67,9.66 C9.83,8.69 10.02,7.76 10.24,6.92 L18.11,6.92 C18.33,7.76 18.52,8.69 18.68,9.66 L19.43,9.66 C19.28,8.69 19.09,7.77 18.87,6.92 L24.55,6.92 C24.37,6.66 24.18,6.41 23.99,6.17 L18.67,6.17 C18.16,4.34 17.57,2.87 17.11,1.86 C16.81,1.79 16.5,1.73 16.19,1.68 C16.64,2.6 17.3,4.1 17.9,6.17 L10.45,6.17 C11.05,4.1 11.71,2.6 12.16,1.68 Z M18.81,12.05 C17.92,12.05 17.46,12.54 17.46,13.22 C17.46,13.89 17.81,14.21 18.38,14.4 L18.82,14.55 C19.32,14.72 19.49,14.89 19.49,15.3 C19.49,15.75 19.22,16.04 18.6,16.04 C18.16,16.04 17.73,15.93 17.41,15.77 L17.41,16.24 C17.69,16.41 18.09,16.53 18.63,16.53 C19.63,16.53 20.07,16.02 20.07,15.26 C20.07,14.53 19.67,14.25 19.05,14.04 L18.6,13.89 C18.15,13.74 18.02,13.56 18.02,13.17 C18.02,12.77 18.31,12.54 18.79,12.54 C19.25,12.54 19.59,12.65 19.85,12.77 L19.85,12.29 C19.61,12.17 19.33,12.05 18.81,12.05 Z M8.13,12.13 L8.13,16.45 L9.48,16.45 C10.86,16.45 11.42,15.7 11.42,14.41 L11.42,14.04 C11.42,12.74 10.76,12.13 9.47,12.13 Z M12.85,12.13 L12.85,16.45 L13.36,16.45 L13.36,14.16 C13.36,13.58 13.3,12.66 13.3,12.66 L13.32,12.66 C13.32,12.66 13.71,13.49 14,14 L15.41,16.45 L15.99,16.45 L15.99,12.13 L15.48,12.13 L15.48,14.19 C15.48,14.79 15.54,15.73 15.54,15.73 L15.53,15.73 C15.53,15.73 15.12,14.9 14.83,14.39 L13.51,12.13 Z M8.69,12.61 L9.42,12.61 C10.35,12.61 10.81,12.94 10.81,14.04 L10.81,14.5 C10.81,15.55 10.45,15.96 9.5,15.96 L8.69,15.96 Z M1.52,13.8 C1.52,13.93 1.5,14.05 1.5,14.18 C1.5,14.3 1.52,14.43 1.52,14.55 L5.9,14.55 L5.9,13.8 Z M22.44,13.8 L22.44,14.55 L26.83,14.55 C26.83,14.43 26.85,14.3 26.85,14.18 C26.85,14.05 26.83,13.93 26.83,13.8 Z M8.83,18.7 C8.95,19.59 9.14,20.51 9.37,21.44 L3.18,21.44 L3.18,22.19 L9.55,22.19 C9.93,23.58 10.41,25 11.05,26.44 C11.35,26.52 11.65,26.59 11.96,26.64 C11.26,25.13 10.74,23.64 10.33,22.19 L18.02,22.19 C17.61,23.64 17.09,25.13 16.39,26.64 C16.7,26.59 17,26.52 17.3,26.44 C17.93,25 18.42,23.58 18.79,22.19 L25.39,22.19 L25.39,21.44 L18.98,21.44 C19.2,20.51 19.4,19.59 19.52,18.7 L18.77,18.7 C18.64,19.59 18.44,20.51 18.21,21.44 L10.14,21.44 C9.91,20.51 9.71,19.59 9.58,18.7 Z" fill="none" stroke="currentColor" stroke-width="1.5"/></svg>