<svg xmlns="http://www.w3.org/2000/svg" viewBox="0 0 28.35 42.39" width="24" height="24"><path d="M11.06,0.38 C9.98,0.38 9.1,1.25 9.1,2.34 L9.1,3.23 L0,3.23 L0,42.39 L28.35,42.39 L28.35,3.23 L19.25,3.23 L19.25,2.34 C19.25,1.25 18.37,0.38 17.29,0.38 Z" fill="none" stroke="currentColor" stroke-width="1.5"/><path d="M11.06,0 C9.77,0 8.73,1.05 8.73,2.34 L8.73,5.99 L19.62,5.99 L19.62,2.34 C19.62,1.05 18.57,0 17.29,0 Z M11.06,0.75 L17.29,0.75 C18.16,0.75 18.87,1.46 18.87,2.34 L18.87,5.24 L9.48,5.24 L9.48,2.34 C9.48,1.46 10.19,0.75 11.06,0.75 Z M10.51,13.24 C9.79,13.24 9.14,13.3 8.59,13.39 L8.59,20.26 C9.05,20.31 9.59,20.34 10.23,20.34 C11.59,20.34 12.66,19.99 13.32,19.34 C13.97,18.7 14.32,17.76 14.32,16.62 C14.32,15.49 13.96,14.68 13.34,14.11 C12.73,13.54 11.8,13.24 10.51,13.24 Z M17.23,13.24 C16.6,13.24 15.95,13.29 15.49,13.39 L15.49,20.28 L16.4,20.28 L16.4,17.26 L17.25,17.26 C18.07,17.29 18.44,17.65 18.65,18.61 C18.84,19.48 19,20.08 19.11,20.28 L20.05,20.28 C19.9,20.01 19.73,19.34 19.51,18.36 C19.34,17.64 19.02,17.14 18.48,16.95 L18.48,16.92 C19.22,16.67 19.8,16.06 19.8,15.14 C19.8,14.6 19.6,14.12 19.25,13.81 C18.81,13.42 18.19,13.24 17.23,13.24 Z M17.29,13.94 C18.24,13.95 18.9,14.34 18.9,15.24 C18.9,16.04 18.28,16.57 17.32,16.57 L16.4,16.57 L16.4,14.02 C16.54,13.98 16.85,13.94 17.29,13.94 Z M10.55,13.96 C12.46,13.96 13.39,15 13.38,16.65 C13.38,18.54 12.33,19.62 10.41,19.62 C10.05,19.62 9.72,19.61 9.49,19.57 L9.49,14.05 C9.73,14 10.08,13.96 10.55,13.96 Z M5.69,28.52 L5.69,29.27 L22.66,29.27 L22.66,28.52 Z M5.69,34.13 L5.69,34.88 L22.66,34.88 L22.66,34.13 Z" fill="none" stroke="currentColor" stroke-width="1.5"/></svg>