<svg xmlns="http://www.w3.org/2000/svg" viewBox="0 0 99.16 100.0" width="24" height="24"><path d="M0,100 L0,0 L99.16,0 L99.16,100 Z" fill="none" stroke="currentColor" stroke-width="1.5"/><path d="M28.17,74.43 C29.76,74.43 31.15,73.09 31.15,71.46 C31.15,69.92 30.01,68.36 28.05,68.36 C26.37,68.36 24.89,69.97 24.89,71.45 C24.89,73.03 26.38,74.43 28.17,74.43 Z M68.81,74.5 C70.3,74.5 71.87,73.28 71.87,71.73 C71.87,70.1 70.84,68.69 68.84,68.69 C67.39,68.69 65.83,69.87 65.83,71.68 C65.83,73.31 67.28,74.5 68.81,74.5 Z M48.51,83.08 C50.05,83.08 51.48,81.76 51.48,80.3 C51.48,78.59 50.17,77.18 48.49,77.18 C46.66,77.18 45.25,78.52 45.25,80.3 C45.25,82.06 47.01,83.08 48.51,83.08 Z M42.42,73.2 L33.73,73.2 C33.16,75.14 31.21,77.2 27.96,77.2 C25.12,77.2 22.25,74.84 22.25,71.48 C22.25,68.38 24.92,65.81 28.04,65.81 C31.67,65.81 33.3,68.29 33.69,69.78 L39.12,69.78 L39.12,57.56 L24.34,57.56 C19.96,57.56 14.57,53.38 14.57,47.44 C14.57,42.65 17.41,39.74 20.32,38.15 C22.11,37 24.39,36.87 26.82,36.88 C26.66,33.75 27.32,30.23 30.28,27.43 C34.38,24.27 36.53,24.55 40.86,24.61 C43.48,20.52 46.87,18.36 51.44,17.39 C56.45,16.34 61.4,17.96 64.88,21.18 C68.4,24.21 69.44,28.17 69.58,31.24 C74.68,32.01 79.26,35.91 80.56,41.71 C81.49,45.97 80.04,50.41 76.71,53.52 C74.67,55.46 71.68,57.51 68.1,57.56 L57.9,57.56 L57.9,69.78 L63.34,69.78 C64.19,67.07 66.4,65.7 68.89,65.7 C72.12,65.7 74.82,68.41 74.82,71.54 C74.82,74.96 71.68,77.31 68.96,77.31 C66.21,77.31 63.91,75.4 63.35,73.2 L54.59,73.2 L54.59,57.56 L50.21,57.56 L50.21,37.6 L58.75,45.89 L61.21,43.51 L48.55,31 L35.78,43.52 L38.18,45.83 L46.76,37.42 L46.76,57.56 L42.42,57.56 Z M50.21,74.47 C53.13,75.28 54.59,78.02 54.59,80.08 C54.59,82.93 52.28,85.68 48.43,85.68 C44.8,85.68 42.28,82.84 42.28,80.18 C42.28,77.29 44.65,74.98 46.76,74.6 L46.76,57.56 L50.21,57.56 Z" fill="none" stroke="currentColor" stroke-width="1.5"/></svg>