<svg xmlns="http://www.w3.org/2000/svg" viewBox="0 0 133.95 133.99" width="24" height="24"><path d="M67.09,133.99 C31.26,133.99 0,105.41 0,65.48 C0,36.26 24.48,0 67.85,0 C101.93,0 133.95,27.38 133.95,67.09 C133.95,104.32 103.93,133.99 67.09,133.99 Z" fill="none" stroke="currentColor" stroke-width="1.5"/><path d="M32.3,63.15 C29.54,63.15 26.92,61.19 29.79,56.55 C36.99,46.51 55.28,30.6 66.33,23.79 C67.4,23.16 68.36,23.4 69.11,23.88 C81.85,32.04 96.8,45.3 104.79,55.37 C107.07,58.16 107.75,63.15 102.86,63.15 Z M105.48,94.67 L36.88,94.67 C32.9,94.67 29.42,92.17 29.42,86.25 L29.42,74.59 L97.31,74.59 C102.36,74.59 105.48,76.89 105.48,82.56 Z" fill="none" stroke="currentColor" stroke-width="1.5"/></svg>