<svg xmlns="http://www.w3.org/2000/svg" viewBox="0 0 20.59 20.6" width="24" height="24"><path d="M20.22,10.3 C20.22,15.78 15.78,20.22 10.3,20.22 C4.82,20.22 0.38,15.78 0.38,10.3 C0.38,4.82 4.82,0.38 10.3,0.38 C15.78,0.38 20.22,4.82 20.22,10.3 Z" fill="none" stroke="currentColor" stroke-width="1.5"/><path d="M10.3,0 C4.62,0 0,4.62 0,10.3 C0,15.98 4.62,20.6 10.3,20.6 C15.97,20.6 20.59,15.98 20.59,10.3 C20.59,4.62 15.97,0 10.3,0 Z M10.3,0.75 C15.56,0.75 19.84,5.04 19.84,10.3 C19.84,15.56 15.56,19.85 10.3,19.85 C5.03,19.85 0.75,15.56 0.75,10.3 C0.75,5.04 5.03,0.75 10.3,0.75 Z M10.24,4.96 L5.17,11.21 L15.31,11.21 Z M10.24,6.15 L13.74,10.46 L6.74,10.46 Z M4.54,13.75 L4.54,14.5 L16.06,14.5 L16.06,13.75 Z" fill="none" stroke="currentColor" stroke-width="1.5"/></svg>