<svg xmlns="http://www.w3.org/2000/svg" viewBox="0 0 22.5 22.5" width="24" height="24"><path d="M0,22.5 L0,0 L22.5,0 L22.5,22.5 Z" fill="none" stroke="currentColor" stroke-width="1.5"/><path d="M10.5,13.28 L10.51,11.16 L11.67,11.15 L9.93,8.92 L8.2,11.15 L9.36,11.16 L9.36,13.28 Z M12.58,14.28 L14.31,12.05 L13.14,12.06 L13.15,9.93 L12,9.92 L12,12.05 L10.83,12.05 Z M11.24,15.47 C9.61,15.47 7.39,14.23 7.39,11.48 C7.39,9.56 9.1,7.74 11.24,7.74 C13.51,7.74 15.12,9.65 15.12,11.53 C15.12,13.99 13.14,15.47 11.24,15.47 Z" fill="none" stroke="currentColor" stroke-width="1.5"/><path d="M12.13,6.16 C11.95,6.09 11.86,5.91 12.15,5.79 C12.46,5.64 12.98,5.57 13.36,5.52 C14.19,5.43 15.09,5.46 15.88,5.52 C16.42,5.57 16.81,5.63 17.15,5.75 C17.55,5.9 17.44,6.06 17.15,6.19 C16.83,6.33 16.35,6.38 15.87,6.44 C15.04,6.5 14.2,6.53 13.33,6.42 C12.8,6.37 12.4,6.28 12.13,6.16 Z" fill="none" stroke="currentColor" stroke-width="1.5"/><path d="M10.38,5.8 C10.62,5.94 10.59,6.05 10.38,6.15 C10.11,6.28 9.71,6.36 9.22,6.42 C8.41,6.5 7.79,6.53 6.62,6.44 C6.01,6.38 5.74,6.32 5.4,6.21 C4.91,6.02 5.07,5.86 5.44,5.73 C5.87,5.6 6.37,5.52 6.92,5.49 C7.68,5.42 8.63,5.48 9.25,5.54 C9.66,5.58 10.08,5.66 10.38,5.8 Z" fill="none" stroke="currentColor" stroke-width="1.5"/><path d="M8.52,2.83 L13.98,2.79 L13.98,4.27 C13.93,4.39 13.77,4.45 13.46,4.54 C12.09,4.84 10.3,4.82 9.01,4.53 C8.82,4.47 8.56,4.4 8.52,4.25 Z M10.13,7.68 C9.55,7.84 8.99,7.89 8.37,7.91 C7.42,7.93 6.41,7.92 5.55,7.69 C5.36,7.62 5.14,7.57 5.1,7.43 L5.1,5.98 L8.53,5.5 L8.52,4.79 C8.61,4.98 8.88,5.06 9.18,5.12 C10.53,5.36 12.27,5.37 13.51,5.07 C13.74,5.01 13.93,4.93 13.99,4.79 L13.98,5.5 L17.41,5.96 L17.41,7.4 C17.41,7.51 17.29,7.59 17.11,7.65 C16.12,7.94 14.68,7.98 13.38,7.86 C13.01,7.82 12.65,7.78 12.37,7.68 C12.24,7.72 12.12,7.77 12.01,7.85 L10.49,7.85 C10.4,7.77 10.28,7.72 10.13,7.68 Z M17.41,9.93 L17.41,11.33 C17.41,11.5 17.2,11.58 16.95,11.65 C16.4,11.78 15.76,11.85 15.07,11.87 L14.89,10.44 C15.64,10.43 16.36,10.37 17.02,10.2 C17.22,10.13 17.39,10.05 17.41,9.93 Z M17.4,8.01 L17.41,9.35 C17.41,9.54 17.22,9.58 17.01,9.66 C16.16,9.87 15.49,9.89 14.66,9.9 L13.38,8.4 C14.63,8.52 15.78,8.48 16.81,8.28 C17.04,8.22 17.27,8.16 17.4,8.01 Z M5.09,7.98 C5.14,8.08 5.29,8.17 5.54,8.24 C6.23,8.41 6.86,8.44 7.49,8.46 C8.12,8.48 8.65,8.45 9.14,8.41 L7.82,9.9 C7.02,9.89 6.23,9.86 5.49,9.65 C5.28,9.59 5.11,9.52 5.1,9.39 Z M5.09,9.96 C5.15,10.08 5.35,10.16 5.58,10.23 C6.21,10.39 6.99,10.42 7.68,10.44 L7.44,11.88 C6.84,11.85 6.25,11.81 5.64,11.67 C5.42,11.62 5.13,11.52 5.09,11.37 Z M16.45,18.49 L16.45,18.22 C16.28,18.42 16.1,18.6 15.88,18.69 C15.54,18.83 15.24,18.81 14.96,18.7 C14.56,18.5 14.42,17.99 14.4,17.41 C14.39,16.58 14.72,16.1 15.3,15.99 C15.59,15.95 15.85,16.05 16.1,16.26 C16.25,16.41 16.35,16.6 16.41,16.84 L16.5,16.84 L16.5,15.78 L16.42,15.78 C16.4,15.95 16.3,16.05 16.11,15.98 C15.81,15.85 15.51,15.77 15.19,15.79 C14.69,15.83 14.18,16.02 13.81,16.61 C13.56,17.09 13.48,17.62 13.79,18.24 C14.03,18.63 14.4,18.94 15.12,19 C15.72,19.01 16.09,18.87 16.45,18.49 Z M9.11,18.92 L10.15,18.92 L10.15,18.85 C9.94,18.85 9.74,18.77 9.71,18.56 L9.71,16.15 L10.91,18.92 L10.96,18.92 L12.15,16.1 L12.14,18.58 C12.13,18.72 12.07,18.82 11.92,18.84 L11.71,18.85 L11.71,18.94 L13.32,18.94 L13.32,18.84 L13.14,18.84 C12.93,18.84 12.88,18.67 12.88,18.52 L12.88,16.22 C12.89,16.05 12.97,15.94 13.16,15.94 L13.32,15.93 L13.32,15.86 L12.06,15.85 L11.22,17.89 L10.37,15.85 L9.11,15.86 L9.11,15.93 L9.26,15.94 C9.38,15.94 9.54,16 9.53,16.26 L9.53,18.56 C9.53,18.66 9.4,18.79 9.28,18.83 C9.25,18.84 9.2,18.85 9.11,18.84 Z M6,18.93 L8.67,18.93 L8.81,17.95 L8.72,17.95 C8.63,18.27 8.51,18.45 8.31,18.58 C8.15,18.69 7.87,18.76 7.71,18.76 L7.4,18.75 C7.26,18.75 7.18,18.65 7.18,18.52 L7.18,17.45 C7.45,17.46 7.58,17.49 7.71,17.72 C7.78,17.83 7.81,17.99 7.83,18.17 L7.92,18.16 L7.92,16.55 L7.82,16.56 C7.82,16.76 7.77,16.94 7.67,17.09 C7.54,17.28 7.36,17.29 7.18,17.28 L7.18,16.02 L7.78,16.03 C7.99,16.06 8.18,16.13 8.32,16.3 C8.42,16.44 8.45,16.57 8.5,16.76 L8.58,16.76 L8.57,15.85 L6.01,15.86 L6,15.93 L6.15,15.93 C6.3,15.93 6.44,16.03 6.44,16.21 L6.44,18.55 C6.44,18.74 6.31,18.85 6.18,18.85 L6.01,18.85 Z M4.45,20.2 L4.45,14.57 L18.06,14.57 L18.06,20.21 Z M10.54,7.25 C11.01,7.28 11.48,7.28 11.95,7.25 L11.96,6.7 C11.49,6.74 11.02,6.74 10.55,6.71 Z" fill="none" stroke="currentColor" stroke-width="1.5"/><rect x="0" y="0" width="0" height="0" fill="none" stroke="currentColor"/><path d="M8.83,3.04 C8.37,2.84 8.48,2.69 8.86,2.56 C9.21,2.44 9.64,2.39 10.07,2.34 C10.92,2.27 11.85,2.27 12.77,2.38 C13.19,2.43 13.51,2.5 13.75,2.59 C14.14,2.75 13.99,2.91 13.73,3.02 C13.48,3.11 13.16,3.18 12.82,3.23 C11.77,3.34 10.72,3.37 9.68,3.22 C9.39,3.18 9.11,3.14 8.83,3.04 Z" fill="none" stroke="currentColor" stroke-width="1.5"/></svg>