<svg xmlns="http://www.w3.org/2000/svg" viewBox="0 0 35.62 35.74" width="24" height="24"><path d="M0,28.35 L28.35,28.35 L28.35,0 L0,0 Z" fill="none" stroke="currentColor" stroke-width="1.5"/><path d="M35.24,28.28 C35.24,24.36 32.07,21.19 28.16,21.19 C24.24,21.19 21.07,24.36 21.07,28.28 C21.07,32.19 24.24,35.36 28.16,35.36 C32.07,35.36 35.24,32.19 35.24,28.28 Z" fill="none" stroke="currentColor" stroke-width="1.5"/><path d="M14.17,4.14 C11.21,4.14 8.79,6.55 8.79,9.52 C8.79,11.67 10.1,13.62 12.08,14.46 L12.08,22.68 L14.17,24.31 L16.27,22.68 L16.27,14.46 C18.24,13.62 19.55,11.67 19.55,9.52 C19.55,6.55 17.14,4.14 14.17,4.14 Z M14.17,4.89 C16.73,4.89 18.8,6.96 18.8,9.52 C18.8,11.44 17.58,13.18 15.76,13.85 L15.52,13.94 L15.52,15.85 L14.57,15.85 L14.57,16.6 L15.52,16.6 L15.52,18.26 L14.57,18.26 L14.57,19.01 L15.52,19.01 L15.52,20.57 L14.57,20.57 L14.57,21.32 L15.52,21.32 L15.52,22.31 L14.17,23.36 L12.83,22.31 L12.83,13.94 L12.58,13.85 C10.76,13.18 9.54,11.44 9.54,9.52 C9.54,6.96 11.62,4.89 14.17,4.89 Z M14.17,6.66 C13.65,6.66 13.23,7.08 13.23,7.6 C13.23,8.12 13.65,8.54 14.17,8.54 C14.69,8.54 15.11,8.12 15.11,7.6 C15.11,7.08 14.69,6.66 14.17,6.66 Z M28.15,20.81 C24.04,20.81 20.69,24.16 20.69,28.28 C20.69,32.39 24.04,35.74 28.15,35.74 C32.27,35.74 35.62,32.39 35.62,28.28 C35.62,24.16 32.27,20.81 28.15,20.81 Z M28.15,21.56 C31.86,21.56 34.87,24.57 34.87,28.28 C34.87,31.98 31.86,34.99 28.15,34.99 C24.45,34.99 21.44,31.98 21.44,28.28 C21.44,24.57 24.45,21.56 28.15,21.56 Z M27.25,23.44 C26.47,23.44 25.83,24.04 25.83,24.77 L25.83,26.78 L24.46,26.78 L24.46,32.16 L31.85,32.16 L31.85,26.78 L30.48,26.78 L30.48,24.77 C30.48,24.04 29.84,23.44 29.06,23.44 Z M27.25,24.19 L29.06,24.19 C29.43,24.19 29.73,24.45 29.73,24.77 L29.73,26.78 L26.58,26.78 L26.58,24.77 C26.58,24.45 26.88,24.19 27.25,24.19 Z M25.21,27.53 L31.1,27.53 L31.1,31.41 L25.21,31.41 Z M28.16,28.84 C27.84,28.84 27.58,29.1 27.58,29.42 C27.58,29.74 27.84,30 28.16,30 C28.47,30 28.73,29.74 28.73,29.42 C28.73,29.1 28.47,28.84 28.16,28.84 Z" fill="none" stroke="currentColor" stroke-width="1.5"/></svg>