<svg xmlns="http://www.w3.org/2000/svg" viewBox="0 0 283.46 283.08" width="24" height="24"><path d="M0,283.08 L0,0 L283.46,0 L283.46,283.08 L0,283.08 Z" fill="none" stroke="currentColor" stroke-width="1.5"/><path d="M201.44,158.99 L201.44,82.91 L82.89,82.91 L82.89,158.99 L201.44,158.99 Z M99.61,207.62 L99.61,187.43 L122.12,187.43 L122.12,168 L73.88,168 L73.88,73.88 L210.34,73.88 L210.34,168 L159.42,168 L159.42,187.43 L184.6,187.43 L184.6,207.62 L99.61,207.62 Z M164.55,261.32 L164.55,241.14 L241.03,241.14 L241.03,167.66 L258.47,167.66 L258.47,261.32 L164.55,261.32 Z M133.45,43.14 L133.45,26.03 L258.47,26.03 L258.47,148.15 L241.03,148.15 L241.03,43.14 L133.45,43.14 Z M23.08,119.71 L23.08,26.03 L117.03,26.03 L117.03,43.14 L40.38,43.14 L40.38,119.71 L23.08,119.71 Z M23.08,261.32 L23.08,136.56 L40.38,136.56 L40.38,241.14 L148.08,241.14 L148.08,261.32 L23.08,261.32 Z" fill="none" stroke="currentColor" stroke-width="1.5"/></svg>