<svg xmlns="http://www.w3.org/2000/svg" viewBox="0 0 283.46 281.9" width="24" height="24"><path d="M0,281.9 L0,0 L283.46,0 L283.46,281.9 L0,281.9 Z" fill="none" stroke="currentColor" stroke-width="1.5"/><path d="M95.84,177.02 L95.84,167.74 L108.91,167.74 L108.91,177.02 L95.84,177.02 Z M95.84,190.95 L95.84,181.67 L108.91,181.67 L108.91,190.95 L95.84,190.95 Z M95.84,205.82 L95.84,196.54 L108.91,196.54 L108.91,205.82 L95.84,205.82 Z M95.84,220.85 L95.84,211.57 L108.91,211.57 L108.91,220.85 L95.84,220.85 Z M126.52,181.37 L126.52,171.33 C122.13,169.95 117.76,169.06 113.36,168.31 L113.36,177.77 L126.52,181.37 Z M126.52,194.89 L126.52,184.86 C122.13,183.48 117.76,182.59 113.36,181.83 L113.36,191.3 L126.52,194.89 Z M126.52,209.76 L126.52,199.72 C122.13,198.34 117.76,197.46 113.36,196.7 L113.36,206.16 L126.52,209.76 Z M126.52,225.11 L126.52,215.08 C122.13,213.7 117.76,212.81 113.36,212.05 L113.36,221.52 L126.52,225.11 Z M77.74,181.57 L77.74,171.53 C82.13,170.15 86.51,169.27 90.9,168.51 L90.9,177.97 L77.74,181.57 Z M77.74,195.09 L77.74,185.06 C82.13,183.68 86.51,182.79 90.9,182.04 L90.9,191.5 L77.74,195.09 Z M77.74,209.96 L77.74,199.92 C82.13,198.55 86.51,197.66 90.9,196.9 L90.9,206.36 L77.74,209.96 Z M77.74,225.31 L77.74,215.28 C82.13,213.9 86.51,213.01 90.9,212.26 L90.9,221.72 L77.74,225.31 Z M145.31,230.15 L145.31,224.63 L137.65,222.57 L137.65,228.47 L145.31,230.15 Z M145.31,221.21 L145.31,215.69 L137.65,213.63 L137.65,219.53 L145.31,221.21 Z M145.31,212.44 L145.31,206.92 L137.65,204.86 L137.65,210.75 L145.31,212.44 Z M145.31,204.4 L145.31,198.88 L137.65,196.82 L137.65,202.72 L145.31,204.4 Z M130.77,202.16 L130.77,196.77 L134.65,196.77 L134.65,202.16 L130.77,202.16 Z M130.77,210.46 L130.77,205.07 L134.65,205.07 L134.65,210.46 L130.77,210.46 Z M130.77,218.9 L130.77,213.51 L134.65,213.51 L134.65,218.9 L130.77,218.9 Z M130.77,227.63 L130.77,222.24 L134.65,222.24 L134.65,227.63 L130.77,227.63 Z M69.43,202.16 L69.43,196.77 L73.31,196.77 L73.31,202.16 L69.43,202.16 Z M69.43,210.46 L69.43,205.07 L73.31,205.07 L73.31,210.46 L69.43,210.46 Z M69.43,218.9 L69.43,213.51 L73.31,213.51 L73.31,218.9 L69.43,218.9 Z M69.43,227.63 L69.43,222.24 L73.31,222.24 L73.31,227.63 L69.43,227.63 Z M58.95,230.15 L58.95,224.63 L66.61,222.57 L66.61,228.47 L58.95,230.15 Z M58.95,221.21 L58.95,215.69 L66.61,213.63 L66.61,219.53 L58.95,221.21 Z M58.95,212.44 L58.95,206.92 L66.61,204.86 L66.61,210.75 L58.95,212.44 Z M58.95,204.4 L58.95,198.88 L66.61,196.82 L66.61,202.72 L58.95,204.4 Z M49.7,249.18 L49.7,144.21 L155.01,144.21 L155.01,192 L160.13,192 L160.13,201.39 L155.01,201.39 L155.01,249.17 L49.7,249.18 Z M97.68,142.92 L97.68,137 L106.13,137 L106.13,142.92 L97.68,142.92 Z M97.68,125.77 L97.68,114.57 L106.13,114.57 L106.13,125.77 L97.68,125.77 Z M97.68,103.43 L97.68,91.87 L106.13,91.87 L106.13,103.43 L97.68,103.43 Z M97.68,80.62 L97.68,69.1 L106.13,69.1 L106.13,80.62 L97.68,80.62 Z M97.68,56.18 L97.68,47.9 L106.13,47.9 L106.13,56.18 L97.68,56.18 Z M119.38,56.18 L119.38,47.9 L132.12,47.9 L132.12,56.18 L119.38,56.18 Z M144,56.18 L144,47.9 L156.42,47.9 L156.42,56.18 L144,56.18 Z M167.9,56.18 L167.9,47.9 L180.81,47.9 L180.81,56.18 L167.9,56.18 Z M192.96,56.18 L192.96,47.9 L205.38,47.9 L205.38,56.18 L192.96,56.18 Z M217.32,56.18 L217.32,47.9 L230.1,47.9 L230.1,56.18 L217.32,56.18 Z M242.14,56.18 L242.14,47.9 L250.25,47.9 L250.25,56.18 L242.14,56.18 Z M166.77,125.97 L217.14,75.27 L188.34,75.18 L188.34,66.45 L231.91,66.45 L231.91,110.05 L223.67,110.05 L223.67,81.53 L172.69,132.47 L166.77,125.97 Z M242.14,83.44 L242.14,70.19 L250.25,70.19 L250.25,83.44 L242.14,83.44 Z M242.14,107.06 L242.14,94.53 L250.25,94.53 L250.25,107.06 L242.14,107.06 Z M242.14,119.19 L250.25,119.19 L250.25,131.53 L242.14,131.53 L242.14,119.19 Z M242.14,143.48 L250.25,143.48 L250.25,155.87 L242.14,155.87 L242.14,143.48 Z M242.14,167.84 L250.25,167.84 L250.25,180.74 L242.14,180.74 L242.14,167.84 Z M172.09,201.39 L172.09,192 L183.94,192 L183.94,201.39 L172.09,201.39 Z M194.98,201.39 L194.98,192 L206.87,192 L206.87,201.39 L194.98,201.39 Z M217.26,201.39 L217.26,192 L229.21,192 L229.21,201.39 L217.26,201.39 Z M242.14,201.39 L242.14,192 L250.25,192 L250.25,201.39 L242.14,201.39 Z M148.32,237.56 L148.32,197.85 C146.56,197.22 144.25,196.88 142.76,196.88 L142.76,194.58 C139.85,191.92 135.11,191.61 130.82,191.61 L130.82,170.49 C129.35,169.54 125.06,168.12 121.94,167.72 L121.94,161.94 C116.84,158.41 109.07,157.92 102.38,157.92 C95.08,157.92 88.21,158.58 82.68,161.9 L82.68,167.34 C79.29,168.08 75.74,168.71 73.3,169.8 L73.3,191.66 C68.75,191.66 64.58,191.89 62,193.62 L62,196.82 C59.93,196.91 58.06,197.23 56.43,197.83 L56.43,237.56 L148.32,237.56 Z" fill="none" stroke="currentColor" stroke-width="1.5"/></svg>