<svg xmlns="http://www.w3.org/2000/svg" viewBox="0 0 82.04 79.44" width="24" height="24"><path d="M0,43.46 L82.04,43.46 L82.04,21.42 L0,21.42 Z" fill="none" stroke="currentColor" stroke-width="1.5"/><path d="M82.02,43.44 L41.03,68.33 L0.03,43.46 Z" fill="none" stroke="currentColor" stroke-width="1.5"/><rect x="0" y="0" width="0" height="0" fill="none" stroke="currentColor"/><path d="M59.06,68.29 L26.63,68.29 L26.63,68.28 C23.51,68.28 20.88,70.91 20.87,74.03 L20.86,74.03 L20.86,79.44 L59.06,79.44 Z M65.07,16.97 L82.04,16.97 L82.04,0 L65.07,0 Z M43.41,16.97 L60.38,16.97 L60.38,0 L43.41,0 Z M21.75,16.97 L38.72,16.97 L38.72,0 L21.75,0 Z M0.08,16.97 L17.05,16.97 L17.05,0 L0.08,0 Z" fill="none" stroke="currentColor" stroke-width="1.5"/><path d="M3.36,6.03 L5.08,10.94 L6.17,10.94 L7.88,6.03 L6.87,6.03 L5.69,9.64 L5.67,9.64 L4.47,6.03 Z M8.66,6.03 L8.66,10.94 L9.57,10.94 L9.57,7.33 L9.6,7.33 L10.72,10.94 L11.55,10.94 L12.69,7.33 L12.71,7.33 L12.71,10.94 L13.78,10.94 L13.78,6.03 L12.31,6.03 L11.24,9.43 L11.21,9.43 L10.14,6.03 Z M25.02,6.03 L26.74,10.94 L27.83,10.94 L29.54,6.03 L28.54,6.03 L27.35,9.64 L27.33,9.64 L26.14,6.03 Z M30.32,6.03 L30.32,10.94 L31.23,10.94 L31.23,7.33 L31.26,7.33 L32.39,10.94 L33.21,10.94 L34.35,7.33 L34.37,7.33 L34.37,10.94 L35.44,10.94 L35.44,6.03 L33.97,6.03 L32.9,9.43 L32.88,9.43 L31.8,6.03 Z M46.69,6.03 L48.4,10.94 L49.49,10.94 L51.21,6.03 L50.2,6.03 L49.02,9.64 L49,9.64 L47.8,6.03 Z M51.98,6.03 L51.98,10.94 L52.9,10.94 L52.9,7.33 L52.92,7.33 L54.05,10.94 L54.87,10.94 L56.01,7.33 L56.03,7.33 L56.03,10.94 L57.1,10.94 L57.1,6.03 L55.64,6.03 L54.57,9.43 L54.54,9.43 L53.46,6.03 Z M68.35,6.03 L70.06,10.94 L71.16,10.94 L72.87,6.03 L71.86,6.03 L70.68,9.64 L70.66,9.64 L69.46,6.03 Z M73.65,6.03 L73.65,10.94 L74.56,10.94 L74.56,7.33 L74.59,7.33 L75.71,10.94 L76.53,10.94 L77.67,7.33 L77.7,7.33 L77.7,10.94 L78.77,10.94 L78.77,6.03 L77.3,6.03 L76.23,9.43 L76.2,9.43 L75.13,6.03 Z M50.53,29.19 L50.52,30.24 L51.81,30.25 L51.81,29.2 Z M38.78,29.25 C38.41,29.25 38.09,29.3 37.81,29.38 C37.68,29.42 37.55,29.48 37.44,29.54 C37.32,29.6 37.22,29.67 37.13,29.75 C37.04,29.83 36.96,29.92 36.89,30.02 C36.82,30.12 36.76,30.22 36.72,30.33 C36.67,30.44 36.64,30.56 36.62,30.69 C36.59,30.81 36.58,30.95 36.58,31.08 C36.58,31.23 36.59,31.37 36.61,31.49 C36.62,31.61 36.65,31.73 36.68,31.83 C36.72,31.94 36.76,32.04 36.81,32.12 C36.86,32.21 36.92,32.29 36.98,32.36 C37.04,32.43 37.12,32.5 37.19,32.56 C37.27,32.61 37.36,32.67 37.45,32.71 C37.54,32.76 37.64,32.8 37.74,32.84 C37.85,32.87 37.95,32.91 38.07,32.93 L38.61,33.07 C38.77,33.12 38.91,33.16 39.02,33.21 C39.24,33.3 39.36,33.41 39.42,33.57 C39.45,33.66 39.46,33.75 39.46,33.86 C39.46,34.05 39.41,34.2 39.31,34.33 C39.28,34.37 39.24,34.41 39.2,34.44 C39.15,34.47 39.1,34.5 39.04,34.53 C38.99,34.55 38.92,34.57 38.85,34.59 C38.71,34.63 38.54,34.64 38.35,34.64 C38,34.64 37.68,34.6 37.39,34.53 C37.24,34.49 37.09,34.45 36.95,34.41 C36.81,34.36 36.68,34.31 36.55,34.25 L36.54,35.29 C36.65,35.35 36.77,35.41 36.91,35.46 C37.19,35.56 37.52,35.63 37.89,35.66 C38.07,35.68 38.27,35.69 38.48,35.69 C38.68,35.69 38.86,35.68 39.03,35.66 C39.54,35.6 39.94,35.43 40.23,35.18 C40.33,35.1 40.42,35 40.49,34.9 C40.56,34.8 40.62,34.69 40.67,34.56 C40.72,34.44 40.76,34.31 40.78,34.17 C40.81,34.04 40.82,33.89 40.82,33.73 C40.82,33.59 40.81,33.45 40.8,33.33 C40.78,33.2 40.75,33.09 40.72,32.99 C40.68,32.88 40.64,32.79 40.59,32.7 C40.53,32.61 40.47,32.53 40.4,32.46 C40.34,32.39 40.26,32.33 40.17,32.27 C40.09,32.21 40,32.16 39.9,32.11 C39.7,32.01 39.47,31.94 39.21,31.87 L38.67,31.74 C38.38,31.66 38.18,31.58 38.06,31.46 C38,31.4 37.96,31.34 37.93,31.26 C37.91,31.18 37.9,31.09 37.9,30.98 C37.9,30.87 37.92,30.77 37.96,30.69 C38,30.6 38.07,30.53 38.15,30.47 C38.23,30.42 38.33,30.38 38.44,30.35 C38.56,30.32 38.7,30.3 38.85,30.3 C39.03,30.3 39.19,30.31 39.34,30.33 C39.5,30.35 39.64,30.37 39.77,30.4 C40.04,30.46 40.28,30.54 40.49,30.62 L40.49,29.59 C40.4,29.55 40.3,29.51 40.2,29.47 C40.09,29.43 39.97,29.39 39.83,29.36 C39.7,29.33 39.55,29.3 39.37,29.28 C39.2,29.26 39,29.25 38.78,29.25 Z M30.26,29.31 L30.23,35.54 L34.36,35.56 L34.36,34.54 L31.6,34.52 L31.61,32.86 L33.71,32.87 L33.71,31.86 L31.62,31.85 L31.62,30.34 L34.32,30.36 L34.33,29.33 Z M42.85,29.38 L44.63,32.41 L42.68,35.6 L44.06,35.61 L45.42,33.32 L45.45,33.32 L46.79,35.63 L48.3,35.63 L46.44,32.41 L48.21,29.41 L46.85,29.4 L45.65,31.55 L45.61,31.55 L44.36,29.39 Z M50.53,30.93 L50.5,35.65 L51.77,35.65 L51.79,30.93 Z M26.79,72.32 C26.58,72.32 26.38,72.37 26.19,72.45 C26.1,72.48 26.01,72.53 25.93,72.59 C25.85,72.64 25.77,72.71 25.7,72.77 C25.63,72.84 25.57,72.92 25.51,73 C25.46,73.09 25.41,73.17 25.37,73.26 C25.29,73.45 25.25,73.65 25.25,73.86 C25.25,73.97 25.26,74.08 25.28,74.18 C25.3,74.28 25.33,74.38 25.37,74.47 C25.41,74.56 25.46,74.65 25.51,74.73 C25.57,74.81 25.63,74.89 25.7,74.96 C25.77,75.03 25.85,75.1 25.93,75.15 C26.01,75.21 26.1,75.25 26.19,75.29 C26.29,75.33 26.38,75.36 26.49,75.38 C26.59,75.4 26.69,75.41 26.8,75.41 C26.91,75.41 27.01,75.4 27.11,75.38 C27.81,75.24 28.34,74.62 28.34,73.86 C28.34,73.01 27.65,72.32 26.79,72.32 Z M32.73,73.49 L32.73,74.24 L54.03,74.24 L54.03,73.49 Z" fill="none" stroke="currentColor" stroke-width="1.5"/></svg>