<svg xmlns="http://www.w3.org/2000/svg" viewBox="0 0 39.7 51.8" width="24" height="24"><path d="M39.7,40.5 L6,40.5 C2.8,40.5 0,43.2 0,46.3 L0,51.8 L39.7,51.8 Z" fill="none" stroke="currentColor" stroke-width="1.5"/><path d="M39.7,0 L5.7,0 L5.7,34.1 L19.7,34.1 L22.6,38.6 L25.6,34.1 L39.7,34.1 Z" fill="none" stroke="currentColor" stroke-width="1.5"/><path d="M23.9,6.7 L11.8,8.8 L11.8,25.2 L23.9,27.3 Z M25.1,10.7 L25.1,12.2 L25.4,12.2 L25.6,12.3 L26.7,13.4 C26.8,13.5 26.8,13.6 26.7,13.7 L26.3,14.1 C26.2,14.2 26.1,14.2 26,14.1 L25.5,13.6 L25.1,13.6 L25.1,16.5 C25.9,17.2 26.5,17.7 26.3,17.9 C26.2,18 25.7,17.8 25.1,17.5 L25.1,20.5 L25.3,20.5 C26.7,19.5 27.8,17.7 28.1,18 C28.5,18.4 25.9,21.8 25.5,21.9 L25.1,21.9 L25.1,23.4 L32.4,23.4 C33,23.4 33.5,22.9 33.5,22.3 L33.5,11.9 C33.5,11.2 33,10.7 32.4,10.7 Z M19.8,11.8 L19.8,13.5 L17.1,13.7 L17.1,15.7 L19.6,15.6 L19.6,17.3 L17.1,17.3 L17.1,19.4 L20,19.6 L20,21.3 L15.4,20.9 L15.4,12.3 Z M28.9,12.2 L31.8,12.2 C31.9,12.2 32.1,12.3 32.1,12.5 L32.1,13.6 L32,13.6 L32,15.2 L31.9,15.4 L30.8,16.5 C30.7,16.6 30.6,16.6 30.5,16.5 L30.1,16.1 C30,16 30,15.9 30.1,15.8 L30.6,15.3 L30.6,13.6 L29.1,13.6 C27.7,14.6 26.6,16.4 26.3,16.1 C25.9,15.7 28.5,12.3 28.9,12.2 Z M28.21,16.16 C28.91,16.12 31.91,18.42 32,18.8 L32,20.5 L32,21.6 C32,21.7 31.9,21.9 31.7,21.9 L29,21.9 L28.8,21.8 L27.7,20.7 C27.6,20.6 27.6,20.5 27.7,20.4 L28.1,20 C28.2,19.9 28.3,19.9 28.4,20 L28.9,20.5 L30.6,20.5 L30.6,19 C29.6,17.6 27.8,16.5 28.1,16.2 C28.13,16.17 28.16,16.16 28.21,16.16 Z M6.7,44.7 C5.9,44.7 5.2,45.3 5.2,46.2 C5.2,47 5.8,47.7 6.7,47.7 C7.5,47.7 8.2,47.1 8.2,46.2 C8.2,45.4 7.5,44.7 6.7,44.7 Z M12.6,45.8 L12.6,46.6 L33.9,46.6 L33.9,45.8 Z" fill="none" stroke="currentColor" stroke-width="1.5"/></svg>