<svg xmlns="http://www.w3.org/2000/svg" viewBox="0 0 283.07 283.46" width="24" height="24"><path d="M0,283.46 L0,0 L283.07,0 L283.07,283.46 L0,283.46 Z" fill="none" stroke="currentColor" stroke-width="1.5"/><path d="M243.21,45.86 L243.85,45.86 C244.17,45.86 244.27,45.66 244.27,45.39 C244.27,45.17 244.1,44.96 243.86,44.96 L243.21,44.96 L243.21,45.86 Z M242.6,47.76 L242.6,44.39 L244.06,44.39 C244.48,44.39 244.99,44.95 244.99,45.49 C244.99,45.92 244.64,46.27 244.36,46.38 L245.17,47.76 L244.5,47.76 L243.72,46.48 L243.21,46.48 L243.21,47.76 L242.6,47.76 Z M243.9,48.63 C245.03,48.63 245.93,47.64 245.93,46.34 C245.93,44.71 245.18,43.86 243.85,43.86 C242.3,43.86 241.37,45 241.38,46.38 C241.38,47.55 242.63,48.63 243.9,48.63 L243.9,48.63 Z M243.75,49.45 C242.34,49.45 240.6,48.07 240.6,46.45 C240.6,44.41 241.94,43.07 243.81,43.07 C245.57,43.07 246.71,44.18 246.71,46.38 C246.71,48.31 245.31,49.45 243.75,49.45 Z M219.06,70.16 C213.78,70.16 206.51,64.25 206.51,56.92 C206.51,50.36 211.66,43.15 220.38,43.15 L238.88,43.15 L235.63,48.12 L221.45,48.12 C216.58,48.12 214.26,49.92 212.48,54.09 L237.26,54.09 L234.21,59.21 L212.45,59.21 C213.12,62.17 216.14,65.19 219.65,65.19 L239.3,65.19 L235.84,70.16 L219.06,70.16 Z M181.83,70.16 C179.42,70.16 178.78,69.33 178.78,66.74 L178.78,43.15 L184.38,43.15 L184.38,65.19 L208.3,65.19 L204.88,70.16 L181.83,70.16 Z M173.48,70.16 L156.65,70.16 C151.12,70.16 144.08,64.54 144.08,57.04 C144.08,47.57 152.65,43.15 157.83,43.15 L176.56,43.15 L173.1,48.12 L157.97,48.12 C153.64,48.12 149.4,51.73 149.4,56.44 C149.4,62.26 154.33,65.19 157,65.19 L177.01,65.19 L173.48,70.16 Z M107.9,70.16 L123.88,45.67 C124.73,44.35 125.82,42.93 127.53,42.93 C129.19,42.93 130.52,44.2 131.3,45.62 L147.13,70.16 L140.9,70.16 L137.83,65.5 L124.24,65.5 L120.88,60.36 L134.44,60.36 L127.65,49.18 L114.52,70.16 L107.9,70.16 Z M76.6,70.16 L76.6,43.15 L98.41,43.15 C104.38,43.15 108.02,47.4 108.02,52.63 C108.02,58.71 102.31,61.49 99.83,61.49 L96.81,61.48 L107.02,70.16 L99.33,70.16 L84,56.58 L98.33,56.58 C101.16,56.58 102.75,54.48 102.75,52.46 C102.75,50.24 100.94,48.12 97.91,48.12 L81.89,48.12 L81.89,70.16 L76.6,70.16 Z M60.48,65.19 C64.76,65.19 68.67,62.08 68.67,57.13 C68.67,50.84 63.62,48.12 60.05,48.12 L44.66,48.12 C40.4,48.12 36.47,53.04 36.47,56.66 C36.47,61.08 40.49,65.19 44.43,65.19 L60.48,65.19 Z M43.15,70.16 C38.89,70.16 31.41,65.28 31.41,55.85 C31.41,49.95 37.88,43.15 43.34,43.15 L60.1,43.15 C68.92,43.15 73.74,51.06 73.74,56.94 C73.74,63.4 68.78,70.16 60.34,70.16 L43.15,70.16 Z M123.65,107.04 C109.8,107.45 97.28,107.15 85.32,106.55 C80.99,106.38 58.56,104.58 48.63,99.73 C45.93,98.58 44.51,97.2 44.51,95.14 C44.51,93.04 48.77,90.54 52.68,89.45 C67.13,84.46 92.69,83.15 109.14,83.15 C124.5,83.15 149.58,84.88 162.33,89.41 C166.37,90.63 170.8,92.39 170.8,95.66 C170.8,97.43 168.84,99.14 164.61,100.7 C152.65,98.58 138.65,100.06 123.65,107.04 L123.65,107.04 Z M88.92,146.09 C77.37,145.36 64.36,143.96 56.64,141.79 C51.2,140.29 44.28,138.69 44.28,133.55 L44.24,101.4 C45.2,105.46 53.09,107.62 62.76,109.84 C74.62,112.6 102.38,113.82 113.41,113.31 C100.9,123.04 93.13,133.48 88.92,146.09 L88.92,146.09 Z M87.03,185.02 C77.84,184.59 59.43,182.61 52.25,179.46 C49.1,178.32 44.4,176.79 44.4,172.71 L44.31,140.54 C45.11,143.93 51.8,146.07 58.44,147.78 C65.7,149.58 77.66,150.89 87.27,151.39 C84.95,160.41 83.73,172.09 87.03,185.02 L87.03,185.02 Z M112.86,224.69 C97.49,224.39 82.2,224.34 65.97,221.44 C56.35,219.76 44.44,217.28 44.44,212.48 L44.33,179.45 C45.18,183.19 53.46,185.81 59.9,187.3 C66.14,188.9 82.33,190.3 88.45,190.51 C94.33,207.35 104.48,218.23 112.86,224.69 L112.86,224.69 Z M145.65,201.76 L124.73,137.73 L141.04,137.73 L154.57,185.78 L168.43,137.73 L183.76,137.73 L162.54,201.76 L145.65,201.76 Z M154.8,220.12 C179.89,220.12 205.11,199.4 205.11,169.93 C205.11,139.81 182.44,117.86 153.89,117.86 C127.86,117.86 102.74,138.91 102.74,169.99 C102.74,196.67 125.29,220.28 154.8,220.12 Z M153.3,233.59 C127.41,233.59 89.57,213.36 89.57,166.69 C89.57,132.62 120.16,104.48 153.48,104.48 C190.85,104.48 218.59,134.11 218.59,170.24 C218.58,201.08 192.87,233.59 153.3,233.59 Z M235.35,226.84 L211.99,250.62 L196.82,235.52 C193.48,231.58 194.24,226.9 197.13,224.4 L209.4,212.44 C211.88,209.71 217.2,208.25 220.7,212.1 L235.35,226.84 Z M240.94,231.85 C243.55,234.45 244.59,239.74 241.16,243.17 L228.81,255.15 C225.79,258.41 220.5,258.97 216.83,255.34 L240.94,231.85 Z" fill="none" stroke="currentColor" stroke-width="1.5"/></svg>