<svg xmlns="http://www.w3.org/2000/svg" viewBox="0 0 20.59 20.59" width="24" height="24"><path d="M20.22,10.29 C20.22,15.78 15.77,20.22 10.3,20.22 C4.82,20.22 0.38,15.78 0.38,10.29 C0.38,4.82 4.82,0.37 10.3,0.37 C15.77,0.37 20.22,4.82 20.22,10.29 Z" fill="none" stroke="currentColor" stroke-width="1.5"/><path d="M10.3,0 C4.62,0 0,4.62 0,10.29 C0,15.97 4.62,20.59 10.3,20.59 C15.97,20.59 20.59,15.97 20.59,10.29 C20.59,4.62 15.97,0 10.3,0 Z M10.3,0.75 C15.56,0.75 19.84,5.03 19.84,10.29 C19.84,15.56 15.56,19.84 10.3,19.84 C5.03,19.84 0.75,15.56 0.75,10.29 C0.75,5.03 5.03,0.75 10.3,0.75 Z M10.3,3.66 L4.47,9.49 L9.92,9.49 L9.92,16.77 L10.67,16.77 L10.67,9.49 L16.12,9.49 Z M10.3,4.72 L14.31,8.74 L6.28,8.74 Z" fill="none" stroke="currentColor" stroke-width="1.5"/></svg>