<svg xmlns="http://www.w3.org/2000/svg" viewBox="0 0 22.5 22.5" width="24" height="24"><path d="M0,22.5 L0,0 L22.5,0 L22.5,22.5 Z" fill="none" stroke="currentColor" stroke-width="1.5"/><path d="M10.68,12.35 L10.91,7.15 L11.44,7.15 L11.63,11.4 L14.85,11.59 L14.85,12.12 Z M11.29,17.06 C14.35,17.06 17.06,14.59 17.06,11.15 C17.06,8.43 14.82,5.44 11.21,5.44 C8.34,5.44 5.44,7.69 5.44,11.39 C5.44,14.24 7.88,17.06 11.29,17.06 Z M11.25,18.64 C7.04,18.64 3.86,15.19 3.86,11.23 C3.86,6.91 7.49,3.85 11.12,3.85 C15.51,3.85 18.65,7.3 18.65,11.21 C18.65,15.39 15.29,18.64 11.25,18.64 Z" fill="none" stroke="currentColor" stroke-width="1.5"/></svg>