<svg xmlns="http://www.w3.org/2000/svg" viewBox="0 0 20.59 20.59" width="24" height="24"><path d="M20.22,10.3 C20.22,15.78 15.78,20.22 10.3,20.22 C4.82,20.22 0.38,15.78 0.38,10.3 C0.38,4.82 4.82,0.38 10.3,0.38 C15.78,0.38 20.22,4.82 20.22,10.3 Z" fill="none" stroke="currentColor" stroke-width="1.5"/><path d="M10.3,0 C4.62,0 0,4.62 0,10.3 C0,15.97 4.62,20.59 10.3,20.59 C15.97,20.59 20.59,15.97 20.59,10.3 C20.59,4.62 15.97,0 10.3,0 Z M10.3,0.75 C15.56,0.75 19.84,5.03 19.84,10.3 C19.84,15.56 15.56,19.84 10.3,19.84 C5.03,19.84 0.75,15.56 0.75,10.3 C0.75,5.03 5.03,0.75 10.3,0.75 Z M5.98,5.45 L5.45,5.98 L9.77,10.29 L5.45,14.61 L5.98,15.14 L10.3,10.83 L14.61,15.14 L15.14,14.61 L10.83,10.29 L15.14,5.98 L14.61,5.45 L10.3,9.77 Z" fill="none" stroke="currentColor" stroke-width="1.5"/></svg>