<svg xmlns="http://www.w3.org/2000/svg" viewBox="0 0 199.18 283.02" width="24" height="24"><path d="M44.03,71.22 C40.71,71.22 36.58,67.98 36.58,62.94 L36.58,28.38 C36.58,23.74 40.76,20.78 45.12,20.78 L61.42,20.78 C62.35,7.76 73.91,0 85.08,0 L116.19,0 C129.73,0 138.3,10.89 139.15,20.78 L156.04,20.78 C160.35,20.78 163.81,24.14 163.81,28.68 L163.81,63.12 C163.81,67.37 160.59,71.23 154.94,71.22 L44.03,71.22 Z M23.32,283.02 C14.18,283.02 0,274.38 0,257.27 L0,43.36 L28.08,43.36 L28.08,63.54 C28.08,72.1 36.16,76.8 40.79,76.8 L158.35,76.8 C165.98,76.8 171.81,71.06 171.81,62.87 L171.81,43.36 L199.17,43.36 L199.17,260.25 C199.17,273.54 186.44,283.02 176.32,283.02 L23.32,283.02 Z" fill="none" stroke="currentColor" stroke-width="1.5"/></svg>