<svg xmlns="http://www.w3.org/2000/svg" viewBox="0 0 28.35 28.35" width="24" height="24"><path d="M0,28.35 L28.32,28.35 L28.32,6.52 L0,6.52 Z M0.03,5.27 L28.35,5.27 L28.35,0 L0.03,0 Z" fill="none" stroke="currentColor" stroke-width="1.5"/><path d="M20.42,11.78 L20.42,22.37 L7.92,22.37 L7.92,13.43 L12.54,13.44 L12.97,13.43 L13.19,13.21 L14.61,11.78 Z M21.18,11.03 L14.3,11.03 L12.66,12.69 L12.54,12.69 L7.17,12.68 L7.17,23.12 L21.18,23.12 Z M19.46,2.64 C19.46,2.16 19.07,1.77 18.6,1.77 C18.12,1.77 17.73,2.16 17.73,2.64 C17.73,3.12 18.12,3.51 18.6,3.51 C19.07,3.51 19.46,3.12 19.46,2.64 Z M22.37,2.64 C22.37,2.16 21.98,1.77 21.5,1.77 C21.02,1.77 20.63,2.16 20.63,2.64 C20.63,3.12 21.02,3.51 21.5,3.51 C21.98,3.51 22.37,3.12 22.37,2.64 Z M25.27,2.64 C25.27,2.16 24.88,1.77 24.41,1.77 C23.93,1.77 23.54,2.16 23.54,2.64 C23.54,3.12 23.93,3.51 24.41,3.51 C24.88,3.51 25.27,3.12 25.27,2.64 Z" fill="none" stroke="currentColor" stroke-width="1.5"/></svg>