<svg xmlns="http://www.w3.org/2000/svg" viewBox="0 0 28.35 28.35" width="24" height="24"><path d="M0,28.35 L28.35,28.35 L28.35,0 L0,0 Z" fill="none" stroke="currentColor" stroke-width="1.5"/><path d="M3.96,3.63 L3.42,4.16 L7.19,7.93 L4.87,10.26 L10.06,10.26 L10.06,5.07 L7.72,7.4 Z M24.39,3.63 L20.62,7.4 L18.29,5.07 L18.29,10.26 L23.48,10.26 L21.15,7.93 L24.92,4.16 Z M4.87,18.1 L7.19,20.42 L3.42,24.2 L3.96,24.73 L7.72,20.95 L10.06,23.29 L10.06,18.1 Z M18.29,18.1 L18.29,23.29 L20.62,20.95 L24.39,24.73 L24.92,24.2 L21.15,20.42 L23.48,18.1 Z" fill="none" stroke="currentColor" stroke-width="1.5"/></svg>