<svg xmlns="http://www.w3.org/2000/svg" viewBox="0 0 206.68 283.2" width="24" height="24"><path d="M24.01,283.2 C14.28,283.2 0,273.03 0,257.95 L0,0 L154.7,0 L206.68,52.02 L206.68,283.2 L24.01,283.2 Z" fill="none" stroke="currentColor" stroke-width="1.5"/><path d="M163.38,125.5 L120.18,91.81 L163.38,91.81 L163.38,125.5 Z" fill="none" stroke="currentColor" stroke-width="1.5"/><path d="M163.38,91.81 L120.18,91.81 L120.18,48.26 L163.38,91.81 Z" fill="none" stroke="currentColor" stroke-width="1.5"/><rect x="0" y="0" width="0" height="0" fill="none" stroke="currentColor"/><path d="M107.93,245.32 C111.78,244.08 111.95,240.16 111.48,236.01 C110.5,231.2 107.21,227.63 103.77,228.51 C100.66,229.34 98.6,232.34 100.09,238.49 C101.24,243.57 103.9,246.35 107.93,245.32 Z M105.72,247.36 C100.78,247.87 95.62,243.85 95.4,237.68 C95.14,231.89 98.96,227.28 104.48,226.64 C109.6,226.02 115.57,228.41 115.56,236.68 C115.56,243.98 111.97,246.74 105.72,247.36 L105.72,247.36 Z M157.84,232.89 C159.4,232.25 159.22,231.46 158.48,230.5 C157.14,228.66 153.86,228.77 152.45,229.5 C150.71,230.52 150.18,231.71 150.34,236.11 L157.84,232.89 Z M163.21,243.74 C163.74,243.59 163.74,244.16 163.13,244.73 C162.27,245.52 159.55,247.26 157.37,247.22 C152.81,247.22 148.39,245.5 146.86,239.85 C145.15,233.74 146.92,231.46 150.14,228.61 C152.52,226.61 160.77,224.89 163.44,231.15 C163.58,231.52 163.67,232.12 163.4,232.25 L151.41,237.07 C150.86,241.03 152.72,242.58 155.13,243.67 C158.23,245.06 160.67,244.72 163.21,243.74 L163.21,243.74 Z M139.49,218.78 L135.43,218.69 C136.61,217.98 137.94,217.31 139.74,216.73 L145.34,216.74 C146,217.13 143.85,217.63 143.85,219.16 L143.43,242.82 C143.43,244.75 143.88,245.09 144.75,245.09 L146.44,245.14 C147.54,245.59 147,246.35 144.57,246.78 L138.27,246.72 C137.47,245.86 139.04,245.36 138.99,244.36 L139.49,218.78 Z M127.84,240.72 C130.63,239.28 131.28,236.48 130.26,233.71 C129.15,230.77 127.56,228.56 124.23,229.48 C121.17,230.6 121.62,233.42 122.62,236.59 C123.44,239.1 125.83,241.52 127.84,240.72 L127.84,240.72 Z M126.17,257.58 C130.48,257.23 131.95,256.33 132.9,254.17 C133.51,251.54 131.1,249.42 128.06,247.81 C124.97,247.95 119.72,248.97 119.82,252.17 C119.98,256.08 123.93,257.79 126.17,257.58 Z M125.28,259.51 C121.09,259.51 116.4,256.51 116.07,252.94 C116.05,247.94 122.44,246.12 126.82,246.31 C125.66,245.13 125.51,243.07 126.19,242.22 C121.37,242.37 117.92,239.96 117.84,235.28 C117.85,229.78 122.92,227.49 126.51,227.49 L136.87,227.62 C136.11,228.32 134.92,229.21 132.27,229.31 C133.53,230.53 134.84,232.77 134.84,234.46 C134.84,237.31 133.11,239.63 130.57,241.19 C129.97,241.68 129.98,243.11 130.72,244.1 C131.94,245.74 135.24,246.48 136.15,250.21 C136.76,252.91 135.72,255.49 133.45,257.24 C130.37,259.49 128.31,259.73 125.28,259.51 L125.28,259.51 Z M85.52,245.34 C89.38,244.11 89.54,240.19 89.07,236.04 C88.1,231.23 84.81,227.65 81.37,228.54 C78.25,229.36 76.19,232.36 77.68,238.51 C78.84,243.6 81.5,246.37 85.52,245.34 Z M83.31,247.39 C78.37,247.89 73.21,243.87 73,237.71 C72.74,231.91 76.55,227.3 82.07,226.66 C87.19,226.04 93.17,228.43 93.15,236.71 C93.15,244.01 89.56,246.76 83.31,247.39 L83.31,247.39 Z M70.41,244.8 C70.49,246.46 61.08,247.8 57.93,247.8 C52.37,247.8 46.21,245.35 44.01,239.29 C41.51,232.81 42.82,228.48 46.28,223.82 C53.31,215.79 65,217.92 69.87,221.43 C70.28,221.7 70.26,222.22 69.92,222.48 L66.97,224.88 C66.53,225.28 65.24,225.66 65.9,224.16 C66.12,223.72 66.13,223.39 65.66,223.01 C63.79,221.75 61.82,220.12 57.26,220.3 C54.56,220.3 48.01,223.01 47.6,229.85 C47.43,237.09 50.21,241.88 54.04,243.94 C59.65,246.83 63.69,245.84 65.73,244.77 L65.72,239.03 L59.68,239.22 C60.8,238.46 62.12,237.59 64.01,237 L70.47,236.99 C72.11,237.2 71.12,238.03 70.41,238.46 L70.41,244.8 Z M154.22,51.9 L154.22,12.51 L192.41,51.9 L154.22,51.9 Z M54.2,199.76 C49.93,199.76 43.2,196.64 43.2,188.21 L43.2,59.2 C43.2,52.82 47.94,48.23 54.9,48.23 L120.18,48.23 L120.18,91.81 L163.38,125.5 L163.38,188.51 C163.38,195.16 159.1,199.76 152.42,199.76 L54.2,199.76 Z M141.87,118.34 L141.87,113.76 L64.31,113.76 L64.31,118.34 L141.87,118.34 Z M141.87,134.78 L141.87,130.3 L64.31,130.3 L64.31,134.78 L141.87,134.78 Z M141.87,150.82 L141.87,146.34 L64.31,146.34 L64.31,150.82 L141.87,150.82 Z M110.29,167 L110.42,162.31 L64.31,162.31 L64.31,167 L110.29,167 Z" fill="none" stroke="currentColor" stroke-width="1.5"/></svg>