<svg xmlns="http://www.w3.org/2000/svg" viewBox="0 0 38.14 28.46" width="24" height="24"><path d="M5.71,5.01 L5.72,0.03 L0.01,0 L0,2.32 L3.22,2.33 L3.08,28.44 L5.59,28.46 L5.6,25.59 L8.35,25.59 L8.35,23 L16.62,23 L16.62,25.59 L38.14,25.59 L38.14,5.01 Z" fill="none" stroke="currentColor" stroke-width="1.5"/><path d="M35.17,8.17 L35.17,10.49 L35.92,10.49 L35.92,8.17 Z M8.44,8.48 L8.44,12.63 L31.97,12.63 L31.97,8.48 Z M35.17,12.12 L35.17,14.44 L35.92,14.44 L35.92,12.12 Z M35.17,16.07 L35.17,18.39 L35.92,18.39 L35.92,16.07 Z M20.85,16.28 L20.85,22.37 L31.97,22.37 L31.97,16.28 Z M8.44,16.29 L8.44,19.33 L10.36,19.33 L10.36,16.29 Z M13.95,16.29 L13.95,19.33 L15.87,19.33 L15.87,16.29 Z M21.6,17.03 L31.22,17.03 L31.22,21.62 L21.6,21.62 Z M35.16,20.01 L35.16,22.33 L35.91,22.33 L35.91,20.01 Z" fill="none" stroke="currentColor" stroke-width="1.5"/></svg>