<svg xmlns="http://www.w3.org/2000/svg" viewBox="0 0 28.35 34.85" width="24" height="24"><path d="M0,34.85 L28.35,34.85 L28.35,0 L0,0 Z" fill="none" stroke="currentColor" stroke-width="1.5"/><path d="M15.82,14.14 C15.82,13.23 15.08,12.49 14.17,12.49 C13.26,12.49 12.52,13.23 12.52,14.14 C12.52,15.05 13.26,15.79 14.17,15.79 C15.08,15.79 15.82,15.05 15.82,14.14 Z M14.17,5.52 C18.93,5.52 22.8,9.39 22.8,14.14 C22.8,18.9 18.93,22.77 14.17,22.77 C9.41,22.77 5.54,18.9 5.54,14.14 C5.54,9.39 9.41,5.52 14.17,5.52 Z M14.17,4.77 C8.99,4.77 4.79,8.96 4.79,14.14 C4.79,19.32 8.99,23.52 14.17,23.52 C19.35,23.52 23.55,19.32 23.55,14.14 C23.55,8.96 19.35,4.77 14.17,4.77 Z M4.72,29.7 L23.63,29.7 L23.63,28.2 L4.72,28.2 Z" fill="none" stroke="currentColor" stroke-width="1.5"/></svg>