<svg xmlns="http://www.w3.org/2000/svg" viewBox="0 0 28.35 28.35" width="24" height="24"><path d="M0,28.35 L28.32,28.35 L28.32,6.52 L0,6.52 Z M0.03,5.27 L28.35,5.27 L28.35,0 L0.03,0 Z" fill="none" stroke="currentColor" stroke-width="1.5"/><path d="M19.46,2.63 C19.46,2.15 19.08,1.76 18.6,1.76 C18.12,1.76 17.73,2.15 17.73,2.63 C17.73,3.12 18.12,3.51 18.6,3.51 C19.08,3.51 19.46,3.12 19.46,2.63 Z M22.37,2.63 C22.37,2.15 21.98,1.76 21.5,1.76 C21.02,1.76 20.63,2.15 20.63,2.63 C20.63,3.12 21.02,3.51 21.5,3.51 C21.98,3.51 22.37,3.12 22.37,2.63 Z M25.27,2.63 C25.27,2.15 24.88,1.76 24.41,1.76 C23.93,1.76 23.54,2.15 23.54,2.63 C23.54,3.12 23.93,3.51 24.41,3.51 C24.88,3.51 25.27,3.12 25.27,2.63 Z" fill="none" stroke="currentColor" stroke-width="1.5"/></svg>