<svg xmlns="http://www.w3.org/2000/svg" viewBox="0 0 28.35 39.18" width="24" height="24"><path d="M28.35,7.1 L28.35,39.18 L0,39.18 L0,0 L21.38,0 Z" fill="none" stroke="currentColor" stroke-width="1.5"/><path d="M14.17,20.13 C12.69,20.13 11.48,18.92 11.48,17.44 C11.48,15.95 12.69,14.75 14.17,14.75 C15.66,14.75 16.86,15.95 16.86,17.44 C16.86,18.92 15.66,20.13 14.17,20.13 Z M14.17,15.5 C13.1,15.5 12.23,16.37 12.23,17.44 C12.23,18.51 13.1,19.38 14.17,19.38 C15.24,19.38 16.11,18.51 16.11,17.44 C16.11,16.37 15.24,15.5 14.17,15.5 Z M14.17,25.46 C9.75,25.46 6.15,21.86 6.15,17.44 C6.15,13.01 9.75,9.41 14.17,9.41 C18.6,9.41 22.2,13.01 22.2,17.44 C22.2,21.86 18.6,25.46 14.17,25.46 Z M14.17,10.16 C10.16,10.16 6.9,13.43 6.9,17.44 C6.9,21.45 10.16,24.71 14.17,24.71 C18.18,24.71 21.45,21.45 21.45,17.44 C21.45,13.43 18.18,10.16 14.17,10.16 Z M26.01,7.85 L20.72,7.85 L20.72,2.48 C20.72,2.48 26.07,7.85 26.01,7.85 Z M21.38,31.96 C21.38,33.86 20.23,34.86 18.82,34.86 C17.36,34.86 16.34,33.73 16.34,32.06 C16.34,30.31 17.43,29.17 18.9,29.17 C20.41,29.17 21.38,30.32 21.38,31.96 Z M17.1,32.05 C17.1,33.23 17.74,34.28 18.86,34.28 C19.99,34.28 20.63,33.24 20.63,31.99 C20.63,30.89 20.06,29.75 18.87,29.75 C17.69,29.75 17.1,30.84 17.1,32.05 Z M11.41,33.91 C11.72,34.1 12.19,34.27 12.68,34.27 C13.41,34.27 13.84,33.88 13.84,33.32 C13.84,32.81 13.54,32.51 12.8,32.23 C11.9,31.91 11.34,31.44 11.34,30.66 C11.34,29.81 12.05,29.17 13.12,29.17 C13.69,29.17 14.1,29.3 14.34,29.44 L14.15,30.02 C13.97,29.92 13.6,29.76 13.1,29.76 C12.35,29.76 12.06,30.21 12.06,30.58 C12.06,31.1 12.4,31.35 13.16,31.65 C14.09,32.01 14.56,32.46 14.56,33.27 C14.56,34.12 13.93,34.85 12.63,34.85 C12.1,34.85 11.52,34.7 11.23,34.5 Z M7.88,34.77 L8.59,34.77 L8.59,29.25 L7.88,29.25 Z" fill="none" stroke="currentColor" stroke-width="1.5"/></svg>