<svg xmlns="http://www.w3.org/2000/svg" viewBox="0 0 28.35 39.18" width="24" height="24"><path d="M28.35,7.1 L28.35,39.18 L0,39.18 L0,0 L21.38,0 Z" fill="none" stroke="currentColor" stroke-width="1.5"/><path d="M20.72,2.48 L20.72,7.85 L26.01,7.85 C26.06,7.85 20.72,2.48 20.72,2.48 Z M14.17,10.48 C10.68,10.48 7.84,13.32 7.84,16.81 C7.84,19.36 9.4,21.67 11.76,22.64 L11.76,32.43 L14.17,34.33 L16.59,32.43 L16.59,22.64 C18.94,21.67 20.5,19.36 20.5,16.81 C20.5,13.32 17.66,10.48 14.17,10.48 Z M14.17,11.23 C17.25,11.23 19.75,13.74 19.75,16.81 C19.75,19.13 18.28,21.23 16.09,22.03 L15.84,22.12 L15.84,24.43 L14.65,24.43 L14.65,25.18 L15.84,25.18 L15.84,27.28 L14.65,27.28 L14.65,28.03 L15.84,28.03 L15.84,30.03 L14.65,30.03 L14.65,30.78 L15.84,30.78 L15.84,32.07 L14.17,33.37 L12.51,32.07 L12.51,22.12 L12.26,22.03 C10.07,21.23 8.59,19.13 8.59,16.81 C8.59,13.74 11.1,11.23 14.17,11.23 Z M14.17,13.41 C13.56,13.41 13.06,13.91 13.06,14.53 C13.06,15.15 13.56,15.65 14.17,15.65 C14.79,15.65 15.29,15.15 15.29,14.53 C15.29,13.91 14.79,13.41 14.17,13.41 Z" fill="none" stroke="currentColor" stroke-width="1.5"/></svg>