<svg xmlns="http://www.w3.org/2000/svg" viewBox="0 0 22.5 22.5" width="24" height="24"><path d="M0,22.5 L0,0 L22.5,0 L22.5,22.5 Z" fill="none" stroke="currentColor" stroke-width="1.5"/><path d="M11.26,5.77 C11.8,5.77 12.44,5.33 12.44,4.57 C12.44,3.96 11.93,3.38 11.26,3.38 C10.6,3.38 10.06,3.92 10.06,4.57 C10.06,5.27 10.62,5.77 11.26,5.77 Z M11.24,20.56 L9.45,19.32 L9.45,11.1 C7.54,10.34 6.48,8.38 6.52,6.67 C6.52,4.3 8.5,2.01 11.24,2.01 C13.71,2.01 15.97,3.97 15.97,6.72 C15.97,8.56 14.89,10.33 13.05,11.11 L13.05,12.18 L12.26,12.97 L13.05,13.75 L13.05,14.44 L12.27,15.23 L13.05,16.01 L13.05,16.71 L12.26,17.48 L13.05,18.28 L13.05,19.33 Z" fill="none" stroke="currentColor" stroke-width="1.5"/></svg>