<svg xmlns="http://www.w3.org/2000/svg" viewBox="0 0 36.97 38.7" width="24" height="24"><path d="M26.94,26.58 L20.71,26.57 L20.71,38.7 L36.97,38.7 L36.97,24.66 L28.98,24.66 L27.08,26.58 Z" fill="none" stroke="currentColor" stroke-width="1.5"/><rect x="0" y="0" width="0" height="0" fill="none" stroke="currentColor"/><path d="M0,34.68 L18.12,34.68 L18.12,26.54 L0,26.54 Z M2.69,24.88 L27.01,24.88 L27.01,23.17 L2.69,23.17 Z M2.69,11.66 L27.01,11.66 L27.01,9.84 L2.69,9.84 Z M0.74,21.47 L28.96,21.47 L28.96,13.31 L0.74,13.31 Z M0.74,8.16 L28.96,8.16 L28.96,0 L0.74,0 Z" fill="none" stroke="currentColor" stroke-width="1.5"/><path d="M28.43,27.34 C27.42,27.29 27.03,28.03 26.97,28.43 C26.94,28.67 26.95,29.26 26.96,29.74 C26.97,29.93 26.97,30.1 26.97,30.21 C26.97,30.47 26.83,30.73 26.72,30.94 C26.68,31.02 26.65,31.09 26.62,31.15 C26.55,31.32 26.22,31.84 25.9,32.34 C25.81,32.49 25.71,32.64 25.63,32.77 C25.23,33.4 25.35,34.04 25.35,34.06 C25.35,34.06 25.36,34.06 25.36,34.07 C25.28,34.1 25.19,34.16 25.12,34.31 C24.97,34.6 24.94,34.61 24.71,34.65 C24.64,34.67 24.57,34.68 24.48,34.7 C24.06,34.81 24.05,34.96 24.07,35.29 C24.07,35.34 24.08,35.41 24.08,35.48 L24.08,35.63 C24.1,35.95 24.1,35.98 24,36.11 C23.96,36.17 23.95,36.27 23.95,36.34 L23.95,36.38 C23.93,36.72 24.46,36.83 24.92,36.88 C25.63,36.97 25.88,37.14 26.02,37.23 C26.06,37.25 26.09,37.27 26.12,37.28 C26.21,37.32 26.38,37.35 26.57,37.35 C26.84,37.35 27.15,37.28 27.29,37 C27.35,36.88 27.38,36.78 27.4,36.69 C27.41,36.69 27.42,36.69 27.44,36.69 C27.45,36.68 28.34,36.31 29.42,36.81 C29.51,37.18 29.77,37.25 29.84,37.27 C29.88,37.29 30.02,37.34 30.2,37.34 C30.33,37.34 30.48,37.31 30.65,37.23 C30.81,37.14 30.88,37.07 30.96,36.98 C31.07,36.86 31.22,36.7 31.82,36.35 C32.51,35.95 32.62,35.77 32.56,35.59 C32.56,35.52 32.49,35.37 32.13,35.14 C31.98,35.04 31.85,34.78 31.83,34.56 C31.82,34.39 31.72,34.22 31.57,34.14 C31.52,34.1 31.47,34.09 31.41,34.08 C31.47,33.98 31.53,33.84 31.54,33.59 C31.56,32.97 31.01,32.05 30.82,31.73 C30.78,31.66 30.71,31.56 30.61,31.42 C30.33,31.02 29.85,30.35 29.83,29.95 C29.83,29.82 29.83,29.65 29.82,29.47 C29.81,29.09 29.8,28.67 29.77,28.45 C29.75,28.34 29.56,27.39 28.43,27.34 Z M28.43,27.51 C29.41,27.55 29.58,28.39 29.6,28.48 C29.63,28.69 29.64,29.1 29.65,29.47 C29.65,29.65 29.66,29.83 29.66,29.96 C29.68,30.41 30.16,31.08 30.47,31.53 C30.56,31.65 30.64,31.76 30.68,31.83 C30.85,32.12 31.38,33.02 31.36,33.58 C31.35,34.02 31.19,34.09 31.19,34.09 C31.19,34.09 31.19,34.09 31.19,34.09 C31.17,34.1 31.16,34.09 31.15,34.1 C31.15,34.1 31.15,34.1 31.15,34.1 C31.1,34.04 31.04,33.99 30.96,33.95 C30.83,33.82 30.63,33.77 30.45,33.77 L30.43,33.77 L30.16,33.77 L30.13,33.81 C30.13,33.81 30.18,32.98 29.67,32.14 C29.17,31.33 29.1,30.38 29.1,30.31 C29.1,30.31 29.1,30.31 29.1,30.31 C29.2,30.19 29.21,30.09 29.21,30.03 C29.2,29.97 29.16,29.91 29.11,29.88 C29.07,29.85 29.01,29.83 28.93,29.8 C29.08,29.63 29.13,29.51 29.15,29.39 C29.23,28.98 28.95,28.81 28.77,28.79 C28.2,28.74 28.22,29.48 28.22,29.55 C28.05,29.51 27.91,29.51 27.79,29.54 C27.82,29.23 27.67,29.01 27.67,29.01 C27.41,28.69 27.17,29.01 27.17,29.01 C27.15,29.06 27.14,29.12 27.13,29.17 C27.12,28.87 27.12,28.59 27.14,28.45 C27.2,28.11 27.53,27.47 28.43,27.51 Z M28.69,29.15 C28.69,29.15 28.91,29.17 28.86,29.46 C28.86,29.46 28.81,29.61 28.71,29.72 C28.63,29.68 28.55,29.66 28.4,29.6 C28.39,29.52 28.34,29.12 28.69,29.15 Z M27.43,29.18 C27.49,29.16 27.56,29.18 27.62,29.28 C27.62,29.28 27.66,29.43 27.62,29.59 C27.55,29.63 27.48,29.67 27.42,29.71 C27.37,29.68 27.19,29.53 27.31,29.27 C27.32,29.23 27.37,29.19 27.43,29.18 Z M27.13,29.42 C27.17,29.63 27.26,29.76 27.31,29.8 C27.3,29.81 27.29,29.81 27.29,29.82 L27.25,29.85 C27.2,29.89 27.17,29.93 27.14,29.96 C27.14,29.89 27.14,29.83 27.14,29.74 C27.13,29.64 27.13,29.53 27.13,29.42 Z M28,29.59 C28.1,29.59 28.21,29.61 28.33,29.67 C28.61,29.78 28.77,29.84 28.88,29.87 C28.97,29.91 29.02,29.92 29.07,29.95 C29.09,29.97 29.11,30.01 29.12,30.04 C29.13,30.09 29.12,30.16 29.03,30.26 C29.01,30.29 28.99,30.33 28.96,30.35 C28.73,30.49 28.48,30.77 28.28,30.82 C28.08,30.87 27.64,30.91 27.37,30.49 C27.37,30.49 27.29,30.33 27.28,30.37 L27.28,30.37 C27.4,30.45 27.62,30.59 27.88,30.59 L27.91,30.59 C28.26,30.57 28.41,30.53 28.92,30.13 C28.94,30.12 28.95,30.09 28.93,30.07 C28.92,30.05 28.89,30.05 28.87,30.06 C28.37,30.46 28.23,30.48 27.91,30.5 C27.6,30.52 27.23,30.24 27.23,30.23 C27.2,30.22 27.18,30.2 27.17,30.19 C27.16,30.17 27.15,30.15 27.15,30.13 C27.15,30.09 27.18,30.02 27.31,29.91 L27.34,29.88 C27.51,29.74 27.7,29.57 28,29.59 Z M27.14,30.27 C27.15,30.28 27.17,30.29 27.17,30.3 C27.18,30.3 27.25,30.34 27.28,30.36 C27.27,30.39 27.2,30.78 27.18,30.89 C27.16,30.99 26.96,31.73 26.66,32.23 C26.26,32.9 26.22,33.86 26.22,33.86 L26.22,33.96 C26.32,34.3 26.33,34.46 26.99,34.9 C26.99,34.9 27.3,35.11 27.28,35.26 C27.28,35.26 27.27,35.42 26.89,35.63 C26.62,35.28 26.25,34.83 26.02,34.4 C25.9,34.18 25.71,34.04 25.52,34.03 C25.52,34.03 25.52,34.03 25.52,34.03 C25.52,34.02 25.41,33.43 25.77,32.87 C25.86,32.73 25.95,32.58 26.05,32.43 C26.39,31.9 26.71,31.4 26.78,31.22 C26.81,31.16 26.84,31.09 26.88,31.02 C26.99,30.8 27.12,30.54 27.14,30.27 Z M30.46,33.95 C30.53,33.95 30.6,33.96 30.69,33.97 C30.8,33.98 31.08,34.05 31.12,34.2 C31.13,34.24 31.13,34.26 31.12,34.31 C31.07,34.4 30.64,35.03 30.26,34.89 C29.98,34.8 29.93,34.43 29.99,34.2 L30,34.12 C30,34.11 30,34.08 30.04,34.05 C30.09,34.01 30.2,33.95 30.46,33.95 Z M25.5,34.21 L25.51,34.21 C25.63,34.21 25.78,34.32 25.86,34.49 C26.11,34.94 26.49,35.42 26.78,35.77 C26.88,35.89 26.96,36 27.02,36.08 C27.22,36.35 27.33,36.54 27.14,36.92 C26.95,37.28 26.33,37.18 26.18,37.12 C26.16,37.11 26.14,37.1 26.12,37.08 C25.98,36.99 25.69,36.8 24.94,36.71 C24.22,36.62 24.12,36.47 24.12,36.39 L24.13,36.35 C24.13,36.31 24.13,36.23 24.14,36.21 C24.27,36.03 24.27,35.95 24.26,35.63 L24.25,35.47 C24.25,35.4 24.25,35.34 24.24,35.28 C24.23,34.98 24.22,34.94 24.52,34.87 C24.61,34.85 24.68,34.84 24.74,34.82 C25.01,34.77 25.09,34.74 25.27,34.39 C25.33,34.27 25.41,34.21 25.5,34.21 Z M31.37,34.24 C31.41,34.25 31.45,34.27 31.48,34.29 C31.58,34.34 31.65,34.46 31.66,34.57 C31.68,34.85 31.84,35.16 32.04,35.28 C32.35,35.49 32.39,35.6 32.39,35.6 C32.39,35.61 32.39,35.63 32.4,35.64 C32.41,35.67 32.45,35.78 31.73,36.2 C31.11,36.56 30.95,36.74 30.83,36.87 C30.76,36.95 30.71,37 30.57,37.07 C30.22,37.25 29.91,37.11 29.9,37.1 L29.87,37.1 C29.86,37.1 29.53,37.07 29.56,36.44 C29.57,36.29 29.59,36.14 29.68,35.81 C29.72,35.66 29.74,35.48 29.73,35.23 C29.68,34.88 29.68,34.32 29.84,34.27 C29.85,34.26 29.87,34.26 29.89,34.26 C29.86,34.52 29.93,34.87 30.23,34.98 C30.27,34.99 30.32,35 30.37,35 C30.45,35 30.55,34.97 30.64,34.92 C30.95,34.75 31.19,34.37 31.2,34.34 C31.21,34.31 31.2,34.29 31.2,34.27 C31.26,34.24 31.32,34.24 31.37,34.24 Z M29.55,35.36 C29.54,35.51 29.54,35.67 29.51,35.77 C29.42,36.11 29.4,36.27 29.39,36.43 C29.39,36.5 29.39,36.55 29.39,36.61 C28.33,36.17 27.49,36.48 27.39,36.52 C27.38,36.32 27.29,36.15 27.16,35.98 C27.12,35.92 27.06,35.84 27,35.77 C27.17,35.86 28.4,36.45 29.55,35.36 Z" fill="none" stroke="currentColor" stroke-width="1.5"/></svg>