<svg xmlns="http://www.w3.org/2000/svg" viewBox="0 0 34.02 34.02" width="24" height="24"><path d="M0,34.02 L34.02,34.02 L34.02,0 L0,0 Z" fill="none" stroke="currentColor" stroke-width="1.5"/><path d="M16.87,2.95 C14,2.82 12.92,4.9 12.75,6.02 C12.64,6.69 12.69,8.38 12.72,9.73 C12.73,10.26 12.75,10.73 12.75,11.04 C12.75,11.77 12.36,12.51 12.05,13.1 C11.94,13.32 11.83,13.52 11.76,13.69 C11.57,14.16 10.63,15.63 9.73,17.05 C9.46,17.46 9.2,17.88 8.96,18.26 C7.84,20.03 8.17,21.82 8.18,21.9 C8.18,21.9 8.19,21.91 8.19,21.92 C7.96,22.02 7.73,22.21 7.53,22.6 C7.11,23.42 7.04,23.43 6.37,23.56 C6.19,23.6 5.98,23.64 5.71,23.7 C4.54,23.99 4.52,24.42 4.57,25.35 C4.58,25.51 4.59,25.68 4.6,25.88 L4.61,26.32 C4.65,27.2 4.65,27.3 4.39,27.66 C4.25,27.85 4.25,28.12 4.24,28.33 L4.24,28.43 C4.17,29.38 5.66,29.69 6.97,29.85 C8.96,30.09 9.68,30.56 10.07,30.81 C10.18,30.89 10.27,30.94 10.35,30.97 C10.6,31.07 11.08,31.17 11.61,31.17 C12.38,31.17 13.25,30.95 13.65,30.17 C13.81,29.84 13.91,29.55 13.95,29.29 C13.99,29.29 14.03,29.3 14.06,29.29 C14.09,29.28 16.62,28.23 19.66,29.64 C19.91,30.7 20.62,30.89 20.82,30.93 C20.95,30.98 21.33,31.12 21.84,31.12 C22.21,31.12 22.65,31.05 23.1,30.81 C23.57,30.56 23.76,30.36 23.98,30.13 C24.3,29.79 24.73,29.33 26.4,28.35 C28.35,27.22 28.67,26.71 28.51,26.21 C28.49,26.01 28.3,25.58 27.28,24.93 C26.88,24.66 26.5,23.93 26.45,23.29 C26.41,22.82 26.12,22.35 25.72,22.11 C25.58,22.02 25.44,21.98 25.29,21.95 C25.45,21.67 25.59,21.24 25.61,20.56 C25.67,18.83 24.13,16.21 23.61,15.33 C23.49,15.13 23.28,14.84 23.01,14.46 C22.21,13.33 20.87,11.44 20.82,10.32 C20.8,9.94 20.79,9.46 20.78,8.95 C20.76,7.9 20.73,6.71 20.63,6.09 C20.58,5.78 20.04,3.09 16.87,2.95 Z M16.39,3.44 C16.54,3.43 16.69,3.43 16.85,3.44 C19.63,3.56 20.1,5.9 20.15,6.17 C20.24,6.75 20.27,7.92 20.29,8.96 C20.3,9.47 20.31,9.96 20.33,10.34 C20.39,11.61 21.73,13.5 22.62,14.75 C22.86,15.1 23.08,15.4 23.2,15.6 C23.69,16.43 25.18,18.95 25.12,20.54 C25.08,21.67 24.72,21.92 24.66,21.95 C24.66,21.96 24.66,22.17 24.49,22.49 C24.48,22.51 24.46,22.52 24.45,22.53 C24.44,22.56 24.44,22.57 24.44,22.6 C24.31,22.85 23.08,24.61 22.01,24.24 C21.23,23.97 21.09,22.92 21.25,22.28 L21.28,22.05 C21.28,22.04 21.29,21.96 21.4,21.86 C21.53,21.75 21.84,21.59 22.57,21.59 C22.72,21.59 22.89,21.6 23.07,21.62 C23.45,21.6 23.84,21.61 24.13,21.66 C24.09,21.64 24.05,21.62 24.01,21.6 C23.63,21.21 23.06,21.07 22.54,21.08 L22.49,21.08 L21.74,21.08 L21.63,21.19 C21.63,21.19 21.8,18.86 20.35,16.48 C19.01,14.28 18.76,11.74 18.73,11.35 C18.74,11.34 18.74,11.34 18.75,11.34 C19.04,10.99 19.07,10.71 19.04,10.54 C19.02,10.36 18.92,10.21 18.78,10.12 C18.65,10.03 18.5,9.96 18.27,9.88 C18.72,9.41 18.84,9.06 18.9,8.73 C19.1,7.58 18.32,7.08 17.82,7.04 C17.72,7.03 17.62,7.03 17.53,7.04 C16.27,7.16 16.26,8.84 16.26,9.15 C16.05,9.09 15.84,9.05 15.65,9.04 C15.43,9.04 15.23,9.06 15.05,9.1 C15.12,8.26 14.72,7.67 14.72,7.67 C13.98,6.76 13.31,7.67 13.31,7.67 C13.24,7.82 13.21,7.96 13.18,8.1 C13.17,7.26 13.17,6.47 13.23,6.09 C13.37,5.19 14.21,3.55 16.39,3.44 Z M17.6,8.04 C17.6,8.04 18.21,8.11 18.06,8.93 C18.06,8.93 17.94,9.36 17.65,9.66 C17.42,9.58 17.12,9.47 16.77,9.32 C16.73,9 16.67,7.98 17.6,8.04 Z M14.17,8.13 C14.3,8.14 14.44,8.22 14.57,8.43 C14.57,8.43 14.71,8.82 14.6,9.27 C14.38,9.38 14.17,9.5 13.99,9.64 C13.79,9.47 13.41,9.03 13.7,8.39 C13.75,8.27 13.95,8.1 14.17,8.13 Z M13.2,8.99 C13.33,9.5 13.58,9.78 13.69,9.89 C13.67,9.9 13.66,9.91 13.64,9.93 L13.54,10.01 C13.4,10.13 13.31,10.23 13.22,10.34 C13.22,10.13 13.22,9.97 13.21,9.72 C13.2,9.49 13.2,9.23 13.2,8.99 Z M15.65,9.29 C15.93,9.3 16.24,9.36 16.59,9.51 C17.37,9.83 17.82,9.99 18.12,10.09 C18.4,10.19 18.52,10.24 18.65,10.32 C18.73,10.37 18.78,10.47 18.8,10.57 C18.82,10.7 18.79,10.9 18.56,11.18 C18.56,11.18 18.56,11.19 18.56,11.2 C18.49,11.29 18.42,11.39 18.36,11.43 C17.71,11.83 16.99,12.61 16.43,12.76 C15.87,12.91 14.64,13.02 13.86,11.83 C13.86,11.83 13.78,11.66 13.71,11.55 C14.09,11.79 14.69,12.11 15.3,12.11 C15.33,12.11 15.37,12.11 15.4,12.1 C16.38,12.05 16.81,11.93 18.25,10.82 C18.3,10.77 18.31,10.7 18.27,10.64 C18.23,10.59 18.15,10.58 18.1,10.62 C16.68,11.73 16.29,11.81 15.39,11.86 C14.51,11.91 13.48,11.11 13.47,11.1 C13.4,11.06 13.34,11.01 13.32,10.99 C13.27,10.93 13.25,10.87 13.25,10.8 C13.26,10.69 13.34,10.5 13.7,10.2 L13.8,10.11 C14.26,9.72 14.81,9.25 15.65,9.29 Z M13.22,11.21 C13.26,11.24 13.31,11.28 13.32,11.3 C13.33,11.3 13.45,11.39 13.61,11.49 C13.59,11.59 13.38,12.66 13.33,12.95 C13.27,13.25 12.72,15.33 11.88,16.74 C10.75,18.62 10.64,21.32 10.64,21.32 L10.64,21.61 C10.92,22.56 10.93,23 12.81,24.27 C12.81,24.27 13.68,24.84 13.6,25.27 C13.6,25.27 13.58,25.73 12.53,26.33 C11.75,25.36 10.71,24.06 10.06,22.86 C9.72,22.24 9.19,21.84 8.66,21.81 C8.66,21.81 8.66,21.81 8.66,21.81 C8.66,21.79 8.36,20.13 9.37,18.52 C9.61,18.14 9.88,17.73 10.14,17.31 C11.1,15.81 12,14.39 12.21,13.88 C12.28,13.72 12.38,13.53 12.48,13.33 C12.8,12.73 13.16,11.99 13.22,11.21 Z M8.61,22.3 L8.62,22.3 C8.96,22.3 9.38,22.62 9.63,23.09 C10.31,24.36 11.4,25.72 12.2,26.71 C12.48,27.06 12.72,27.36 12.88,27.58 C13.44,28.35 13.76,28.87 13.21,29.95 C12.7,30.96 10.95,30.68 10.52,30.52 C10.47,30.5 10.41,30.46 10.33,30.4 C9.94,30.15 9.13,29.62 7.03,29.36 C4.99,29.11 4.71,28.69 4.72,28.47 L4.73,28.34 C4.73,28.24 4.74,28.01 4.78,27.95 C5.14,27.45 5.13,27.23 5.1,26.3 L5.09,25.86 C5.08,25.66 5.07,25.48 5.06,25.32 C5.01,24.47 5.01,24.38 5.83,24.18 C6.08,24.11 6.29,24.07 6.46,24.04 C7.23,23.89 7.45,23.81 7.96,22.82 C8.14,22.48 8.36,22.3 8.61,22.3 Z M25.13,22.4 C25.27,22.42 25.38,22.47 25.46,22.52 C25.73,22.69 25.93,23.01 25.96,23.33 C26.02,24.13 26.48,24.99 27.02,25.34 C27.92,25.92 28.01,26.23 28.02,26.23 C28.02,26.27 28.03,26.3 28.04,26.34 C28.07,26.44 28.18,26.75 26.15,27.93 C24.42,28.94 23.96,29.43 23.62,29.79 C23.41,30.02 23.27,30.17 22.88,30.38 C21.91,30.89 21.03,30.49 20.99,30.47 C20.97,30.46 20.93,30.45 20.9,30.45 C20.89,30.45 19.97,30.37 20.06,28.6 C20.08,28.17 20.13,27.75 20.38,26.83 C20.5,26.4 20.54,25.88 20.51,25.2 C20.38,24.19 20.39,22.63 20.84,22.47 C20.87,22.46 20.93,22.45 20.97,22.44 C20.87,23.16 21.09,24.17 21.93,24.47 C22.05,24.52 22.18,24.54 22.32,24.54 C22.56,24.54 22.82,24.46 23.09,24.32 C23.95,23.84 24.65,22.76 24.67,22.67 C24.69,22.59 24.7,22.53 24.7,22.46 C24.86,22.41 25.01,22.39 25.13,22.4 Z M20.02,25.53 C20.02,25.99 19.99,26.39 19.91,26.7 C19.65,27.66 19.59,28.12 19.57,28.58 C19.56,28.76 19.57,28.92 19.58,29.07 C16.62,27.82 14.28,28.68 13.97,28.8 C13.92,28.24 13.63,27.78 13.27,27.29 C13.17,27.15 12.99,26.92 12.83,26.72 C13.66,27.12 17.02,28.44 20.02,25.53 Z" fill="none" stroke="currentColor" stroke-width="1.5"/></svg>