<svg xmlns="http://www.w3.org/2000/svg" viewBox="0 0 282.37 282.96" width="24" height="24"><path d="M139.74,282.96 C134,282.96 124.25,279.92 124.25,266.92 L124.25,154.59 L204.17,154.59 L227.14,136.54 L269.93,136.54 C280.04,136.39 282.37,141.93 282.37,147.39 L282.37,282.96 L139.74,282.96 Z" fill="none" stroke="currentColor" stroke-width="1.5"/><rect x="0" y="0" width="0" height="0" fill="none" stroke="currentColor"/><path d="M106.26,109.93 C94.37,109.93 82.6,103.33 82.6,92.2 C82.6,83.51 93.04,75.37 106.54,75.37 C121.31,75.37 130.71,84.02 130.71,92.48 C130.71,101.9 120.43,109.93 106.26,109.93 Z M114.43,179.63 L26.38,179.63 C16.14,179.63 7.32,183.14 0.34,188.64 L0.34,29.33 C0.34,19.13 12.34,0 31.94,0 L181.47,0 C194.28,0 211.74,11.13 211.74,31 L211.74,135.18 L200.32,144.8 L136.14,144.8 C166.39,133.4 178.55,110.21 178.55,92.01 C178.55,59.48 145.42,33.71 105.98,33.71 C67.34,33.71 34.76,60.47 34.76,91.09 C34.76,127.98 74.06,153.38 114.43,149.6 L114.43,179.63 Z M114.43,254.2 L32.12,254.2 C17.46,254.2 0,241.65 0,221.58 C0,202.88 14.22,193.46 26.56,193.46 L114.43,193.46 L114.43,254.2 Z" fill="none" stroke="currentColor" stroke-width="1.5"/><path d="M32.02,240.75 C27.1,240.75 15.88,236.55 15.88,222.88 C15.88,215.51 23.48,207.56 32.62,207.56 C43.1,207.56 48.78,216.94 48.78,223.92 C48.78,233.32 41.16,240.75 32.02,240.75 Z" fill="none" stroke="currentColor" stroke-width="1.5"/></svg>