<svg xmlns="http://www.w3.org/2000/svg" viewBox="0 0 20.59 20.59" width="24" height="24"><path d="M20.22,10.29 C20.22,4.81 15.78,0.37 10.3,0.37 C4.82,0.37 0.38,4.81 0.38,10.29 C0.38,15.77 4.82,20.21 10.3,20.21 C15.78,20.21 20.22,15.77 20.22,10.29 Z" fill="none" stroke="currentColor" stroke-width="1.5"/><path d="M10.3,0 C4.62,0 0,4.61 0,10.29 C0,15.97 4.62,20.59 10.3,20.59 C15.97,20.59 20.59,15.97 20.59,10.29 C20.59,4.61 15.97,0 10.3,0 Z M10.3,0.75 C15.56,0.75 19.84,5.03 19.84,10.29 C19.84,15.56 15.56,19.84 10.3,19.84 C5.03,19.84 0.75,15.56 0.75,10.29 C0.75,5.03 5.03,0.75 10.3,0.75 Z M8.92,3.68 C7.84,3.68 6.96,4.44 6.96,5.38 L6.96,8.35 L4.87,8.35 L4.87,15.58 L15.72,15.58 L15.72,8.35 L13.64,8.35 L13.64,5.38 C13.64,4.44 12.75,3.68 11.67,3.68 Z M8.92,4.43 L11.67,4.43 C12.34,4.43 12.89,4.85 12.89,5.38 L12.89,8.35 L7.71,8.35 L7.71,5.38 C7.71,4.85 8.25,4.43 8.92,4.43 Z M5.62,9.1 L14.97,9.1 L14.97,14.83 L5.62,14.83 Z M10.3,11.09 C9.81,11.09 9.42,11.48 9.42,11.97 C9.42,12.45 9.81,12.84 10.3,12.84 C10.78,12.84 11.17,12.45 11.17,11.97 C11.17,11.48 10.78,11.09 10.3,11.09 Z" fill="none" stroke="currentColor" stroke-width="1.5"/></svg>