<svg xmlns="http://www.w3.org/2000/svg" viewBox="0 0 29.01 11.03" width="24" height="24"><path d="M18.22,11.03 C17.63,11.03 17.05,10.53 17.05,9.84 L17.05,1.41 L23.08,1.41 L24.72,0 L28.7,0 C29.01,0.03 28.99,0.21 28.99,0.39 L28.99,11.03 Z" fill="none" stroke="currentColor" stroke-width="1.5"/><path d="M16.29,8.8 L0,8.8 L0,2.82 L16.29,2.82 L16.29,3.92 L2.23,3.92 L2.23,7.7 L16.29,7.7 Z" fill="none" stroke="currentColor" stroke-width="1.5"/><path d="M13.24,7.32 L13.24,4.29 L16.29,4.29 L16.29,7.32 Z M9.73,7.32 L9.73,4.29 L12.77,4.29 L12.77,7.32 Z M6.22,7.32 L6.22,4.29 L9.26,4.29 L9.26,7.32 Z M2.71,7.32 L2.71,4.29 L5.75,4.29 L5.75,7.32 Z" fill="none" stroke="currentColor" stroke-width="1.5"/></svg>