<svg xmlns="http://www.w3.org/2000/svg" viewBox="0 0 28.35 39.18" width="24" height="24"><path d="M28.35,7.1 L28.35,39.18 L0,39.18 L0,0 L21.38,0 Z" fill="none" stroke="currentColor" stroke-width="1.5"/><path d="M20.72,2.49 L20.72,7.86 L26.01,7.86 C26.07,7.86 20.72,2.49 20.72,2.49 Z M15.7,13.82 L5.35,23.82 L12.33,31.04 L22.41,21.31 L22.68,21.05 L22.85,13.9 Z M16,14.58 L22.08,14.64 L21.93,20.72 L12.35,29.98 L6.41,23.84 Z M18.36,16.38 C17.36,16.38 16.54,17.19 16.54,18.2 C16.54,19.2 17.36,20.02 18.36,20.02 C19.36,20.02 20.18,19.2 20.18,18.2 C20.18,17.19 19.36,16.38 18.36,16.38 Z M18.36,16.88 C19.09,16.88 19.68,17.47 19.68,18.2 C19.68,18.92 19.09,19.52 18.36,19.52 C17.63,19.52 17.04,18.92 17.04,18.2 C17.04,17.47 17.63,16.88 18.36,16.88 Z" fill="none" stroke="currentColor" stroke-width="1.5"/></svg>