<svg xmlns="http://www.w3.org/2000/svg" viewBox="0 0 34.02 34.02" width="24" height="24"><path d="M0,34.02 L34.02,34.02 L34.02,0 L0,0 Z" fill="none" stroke="currentColor" stroke-width="1.5"/><path d="M15.33,4.77 L14.92,4.91 C11.18,6.15 9.4,7.2 9.64,8.01 L9.68,8.14 L9.78,8.2 L9.78,8.21 C9.82,8.24 14.39,11.75 12.65,15.35 C12.64,15.37 12.15,17.36 9.23,20.19 C9.01,20.33 6.38,22.15 6.1,23.92 C6.02,24.42 6.12,24.88 6.41,25.27 C6.54,25.55 7.12,26.46 9.29,27.39 C10.84,28.04 13.2,28.71 16.81,29.14 L17.05,29.17 L17.17,28.97 C17.31,28.74 20.48,23.51 19.46,16.83 C21.06,16.34 22.41,16.01 23.63,15.74 L23.64,15.74 C23.64,15.74 23.64,15.74 23.65,15.73 C26.08,15.19 27.7,14.98 27.74,14.98 L28.34,14.91 L28.01,14.4 C25.79,10.92 20.08,9.54 16.94,9.04 L16.97,9.01 C16.13,8.4 15.56,6.05 15.4,5.2 Z M14.75,5.76 C14.91,6.49 15.28,7.94 15.9,8.9 C15.27,8.82 14.86,8.79 14.79,8.78 C12.1,8.33 10.93,7.92 10.47,7.73 C10.94,7.29 12.72,6.46 14.75,5.76 Z M11.55,8.84 C12.29,9.05 13.23,9.27 14.7,9.53 C14.71,9.53 15.18,9.59 15.43,9.61 C15.57,9.91 15.75,10.34 15.9,10.93 C14.2,10.45 12.87,10.25 12.67,10.22 C12.31,9.69 11.92,9.24 11.55,8.84 Z M16,9.68 C16.63,9.76 17.37,9.89 18.34,10.09 C17.8,10.27 17.15,10.49 16.37,10.81 C16.25,10.35 16.12,9.98 16,9.68 Z M19.32,10.31 C19.5,10.36 19.67,10.39 19.86,10.44 C20.01,10.85 20.15,11.55 19.96,12.52 C18.91,11.96 17.82,11.53 16.79,11.19 C18.06,10.68 19.01,10.4 19.32,10.31 Z M20.41,10.6 C21.53,10.92 22.68,11.32 23.75,11.84 C22.66,11.86 21.56,12.07 20.48,12.4 C20.6,11.63 20.53,11.04 20.41,10.6 Z M13.02,10.8 C13.41,10.86 14.11,10.97 15.3,11.29 C14.73,11.56 14.16,11.87 13.61,12.21 C13.47,11.71 13.26,11.24 13.02,10.8 Z M16.03,11.52 C16.16,12.23 16.2,13.09 16.05,14.02 C15.07,13.37 14.22,13.26 13.8,13.24 C13.79,13.06 13.77,12.89 13.74,12.72 C14.47,12.26 15.26,11.86 16.03,11.52 Z M16.53,11.65 C17.45,11.94 18.43,12.3 19.37,12.78 C18.37,13.17 17.4,13.64 16.52,14.14 C16.66,13.22 16.63,12.38 16.53,11.65 Z M23.78,12.34 C23.94,12.34 24.1,12.35 24.26,12.35 C24.26,12.9 24.15,13.94 23.53,14.99 C23.39,15.02 23.25,15.05 23.1,15.09 C22.44,14.22 21.57,13.49 20.61,12.89 C21.66,12.57 22.73,12.36 23.78,12.34 Z M24.76,12.4 C25.65,12.94 26.44,13.57 27.03,14.32 C26.45,14.4 25.45,14.57 24.18,14.84 C24.65,13.86 24.75,12.94 24.76,12.4 Z M19.79,13.18 C19.5,14.06 18.93,15.13 17.9,16.35 C17.59,15.6 17.19,15.03 16.75,14.59 C17.69,14.07 18.72,13.57 19.79,13.18 Z M20.28,13.28 C21.16,13.82 21.95,14.45 22.57,15.21 C21.39,15.49 20.02,15.88 18.56,16.34 C19.47,15.18 20,14.16 20.28,13.28 Z M13.8,13.73 C14.2,13.76 15,13.87 15.88,14.5 C14.74,15.18 13.76,15.86 13.04,16.4 C13.28,15.89 13.35,15.6 13.35,15.6 C13.66,14.96 13.78,14.34 13.8,13.73 Z M16.35,14.9 C16.79,15.33 17.19,15.9 17.5,16.68 C16.74,16.93 15.96,17.21 15.15,17.52 C15.75,16.62 16.13,15.74 16.35,14.9 Z M15.76,15.18 C15.48,16.04 15,16.95 14.27,17.87 C13.25,18.28 12.2,18.73 11.14,19.23 C11.68,18.6 12.1,18.03 12.41,17.54 C12.98,17.07 14.21,16.14 15.76,15.18 Z M18.74,17.06 C18.83,17.69 18.88,18.3 18.9,18.9 C18.33,19.59 17.37,20.2 16.22,20.74 C16.48,19.3 16.44,18.27 16.4,17.85 C17.2,17.56 17.99,17.29 18.74,17.06 Z M15.9,18.04 C15.93,18.53 15.94,19.52 15.68,20.82 C14.55,19.98 14.16,19.2 14.02,18.78 C14.66,18.51 15.29,18.27 15.9,18.04 Z M13.55,18.98 C13.73,19.49 14.17,20.3 15.28,21.16 C14.16,21.61 12.93,22.01 11.75,22.35 C12.87,20.6 13.22,19.53 13.33,19.08 C13.4,19.04 13.48,19.01 13.55,18.98 Z M12.72,19.34 C12.51,19.96 12.03,21.02 11.09,22.43 C11.07,22.4 11.04,22.37 11.02,22.34 C10.56,21.49 10.6,20.75 10.69,20.29 C11.37,19.96 12.05,19.63 12.72,19.34 Z M18.9,19.62 C18.89,20.59 18.8,21.51 18.66,22.37 C17.7,22.01 16.92,21.63 16.31,21.25 C17.35,20.77 18.26,20.22 18.9,19.62 Z M10.14,20.56 C10.1,21.09 10.16,21.8 10.58,22.56 C10.59,22.58 10.62,22.61 10.63,22.64 C8.9,23.08 7.76,23.31 7.06,23.44 C7.63,22.34 9.08,21.19 9.66,20.8 C9.82,20.71 9.98,20.64 10.14,20.56 Z M15.5,21.6 C15.25,22.56 14.85,23.63 14.24,24.75 C13,24.26 12.05,23.66 11.45,22.94 C12.79,22.58 14.2,22.14 15.5,21.6 Z M16.02,21.67 C16.62,22.04 17.37,22.41 18.28,22.77 C17.63,23.24 16.39,23.88 14.93,24.53 C15.45,23.51 15.79,22.54 16.02,21.67 Z M10.58,23.17 C9.98,24.01 9.21,24.95 8.25,25.99 C7.34,25.4 7.09,24.95 7.08,24.95 L7.03,24.85 C6.85,24.62 6.79,24.36 6.84,24.05 C6.84,24.03 6.85,24.01 6.85,23.99 C7.42,23.89 8.71,23.65 10.59,23.17 Z M18.5,23.21 C18.3,24.13 18.07,24.97 17.82,25.68 C16.78,25.51 15.86,25.29 15.04,25.03 C16.43,24.4 17.73,23.75 18.5,23.21 Z M11.11,23.31 C11.71,24 12.58,24.58 13.7,25.06 C12.32,25.66 10.92,26.23 9.64,26.71 C9.28,26.56 8.95,26.4 8.68,26.26 C9.69,25.17 10.49,24.18 11.11,23.31 Z M14.48,25.37 C15.4,25.69 16.45,25.95 17.64,26.16 C17.23,27.23 16.84,28.02 16.65,28.37 C15.14,28.18 13.87,27.95 12.79,27.7 C13.47,26.91 14.03,26.13 14.48,25.37 Z M13.73,25.6 C13.32,26.25 12.83,26.91 12.25,27.56 C11.52,27.38 10.88,27.18 10.34,26.98 C11.19,26.66 12.33,26.2 13.73,25.6 Z" fill="none" stroke="currentColor" stroke-width="1.5"/></svg>