<svg xmlns="http://www.w3.org/2000/svg" viewBox="0 0 34.02 34.02" width="24" height="24"><path d="M0,34.02 L34.02,34.02 L34.02,0 L0,0 Z" fill="none" stroke="currentColor" stroke-width="1.5"/><path d="M26.75,10.72 L19.46,10.72 L19.46,12.25 L19.77,12.25 C19.84,12.25 19.91,12.28 19.96,12.33 L21.05,13.42 C21.12,13.49 21.12,13.61 21.05,13.69 L20.65,14.08 C20.58,14.16 20.46,14.16 20.39,14.08 L19.9,13.6 C19.88,13.59 19.87,13.58 19.86,13.58 L19.46,13.58 L19.46,16.52 C20.21,17.19 20.84,17.7 20.65,17.9 C20.52,18.04 20.04,17.82 19.46,17.46 L19.46,20.44 L19.64,20.44 C21,19.43 22.1,17.6 22.44,17.91 C22.83,18.27 20.2,21.73 19.88,21.77 L19.46,21.77 L19.46,23.3 L26.75,23.3 C27.35,23.3 27.84,22.82 27.84,22.22 L27.84,11.8 C27.84,11.2 27.35,10.72 26.75,10.72 Z M26.3,20.44 L26.3,21.5 C26.3,21.65 26.18,21.77 26.04,21.77 L23.32,21.77 C23.25,21.77 23.18,21.74 23.13,21.69 L22.04,20.6 C21.96,20.53 21.96,20.41 22.04,20.33 L22.43,19.94 C22.51,19.87 22.63,19.87 22.7,19.94 L23.19,20.43 C23.2,20.44 23.22,20.44 23.23,20.44 L24.97,20.44 L24.97,18.91 C23.96,17.56 22.13,16.45 22.44,16.12 C22.8,15.73 26.26,18.35 26.3,18.68 Z M26.3,13.58 L26.3,15.23 C26.3,15.31 26.28,15.38 26.23,15.43 L25.13,16.52 C25.06,16.59 24.94,16.59 24.87,16.52 L24.47,16.12 C24.4,16.05 24.4,15.93 24.47,15.85 L24.96,15.36 C24.97,15.35 24.97,15.34 24.97,15.32 L24.97,13.58 L23.44,13.58 C22.09,14.59 20.98,16.43 20.65,16.12 C20.26,15.75 22.88,12.29 23.21,12.25 L26.04,12.25 C26.18,12.25 26.31,12.37 26.31,12.52 Z M6.18,8.79 L6.18,25.23 L18.31,27.33 L18.31,6.7 Z M14.33,21.28 L9.73,20.84 L9.73,12.22 L14.16,11.75 L14.16,13.49 L11.46,13.68 L11.46,15.68 L13.97,15.61 L13.97,17.35 L11.46,17.32 L11.46,19.37 L14.33,19.53 Z" fill="none" stroke="currentColor" stroke-width="1.5"/></svg>