<svg xmlns="http://www.w3.org/2000/svg" viewBox="0 0 34.02 34.02" width="24" height="24"><path d="M0,34.02 L34.02,34.02 L34.02,0 L0,0 Z" fill="none" stroke="currentColor" stroke-width="1.5"/><path d="M7.42,5.22 L7.42,12.04 L26.57,12.04 L26.57,5.22 Z M14,7.19 C14.41,7.19 14.64,7.27 14.81,7.36 L14.81,7.79 C14.62,7.71 14.36,7.63 14.01,7.63 C13.68,7.63 13.49,7.77 13.49,8.03 C13.49,8.28 13.59,8.39 13.9,8.48 L14.2,8.57 C14.69,8.71 14.98,8.91 14.98,9.48 C14.98,10.06 14.63,10.43 13.87,10.43 C13.46,10.43 13.14,10.35 12.93,10.23 L12.93,9.8 C13.19,9.91 13.48,9.99 13.82,9.99 C14.25,9.99 14.43,9.81 14.43,9.52 C14.43,9.26 14.32,9.15 13.97,9.05 L13.67,8.96 C13.23,8.84 12.96,8.61 12.96,8.08 C12.96,7.55 13.3,7.19 14,7.19 Z M17.82,7.19 C18.23,7.19 18.46,7.27 18.63,7.36 L18.63,7.79 C18.44,7.71 18.18,7.63 17.83,7.63 C17.5,7.63 17.31,7.77 17.31,8.03 C17.31,8.28 17.41,8.39 17.72,8.48 L18.02,8.57 C18.5,8.71 18.8,8.91 18.8,9.48 C18.8,10.06 18.45,10.43 17.69,10.43 C17.28,10.43 16.96,10.35 16.75,10.23 L16.75,9.8 C17,9.91 17.3,9.99 17.64,9.99 C18.07,9.99 18.25,9.81 18.25,9.52 C18.25,9.26 18.13,9.15 17.79,9.05 L17.49,8.96 C17.04,8.84 16.78,8.61 16.78,8.08 C16.78,7.55 17.12,7.19 17.82,7.19 Z M20.86,7.19 C21.71,7.19 22.27,7.72 22.27,8.75 L22.27,8.84 C22.27,9.62 21.94,10.08 21.38,10.24 L22.37,10.47 L22.25,10.92 L20.48,10.41 C19.82,10.22 19.43,9.77 19.43,8.86 L19.43,8.76 C19.43,7.75 20.01,7.19 20.86,7.19 Z M9.06,7.24 L9.83,7.24 L10.61,9.62 L10.62,9.62 L11.39,7.24 L12.16,7.24 L12.16,10.37 L11.61,10.37 L11.61,7.93 L11.6,7.93 L10.8,10.37 L10.34,10.37 L9.55,7.93 L9.54,7.93 L9.54,10.37 L9.06,10.37 Z M23.08,7.24 L23.63,7.24 L23.63,9.94 L24.96,9.94 L24.96,10.37 L23.08,10.37 Z M20.84,7.62 C20.29,7.62 20.02,8.06 20.02,8.69 L20.02,8.85 C20.02,9.57 20.25,10.01 20.86,10.01 C21.42,10.01 21.69,9.56 21.69,8.92 L21.69,8.77 C21.69,8.06 21.46,7.62 20.84,7.62 Z M7.42,13.6 L7.42,20.42 L26.57,20.42 L26.57,17.39 L19.9,17.39 L19.9,16.64 L26.57,16.64 L26.57,13.6 Z M7.42,21.99 L7.42,28.81 L26.57,28.81 L26.57,25.78 L19.9,25.78 L19.9,25.03 L26.57,25.03 L26.57,21.99 Z" fill="none" stroke="currentColor" stroke-width="1.5"/></svg>