<svg xmlns="http://www.w3.org/2000/svg" viewBox="0 0 39.7 51.8" width="24" height="24"><path d="M39.7,0 L5.7,0 L5.7,34 L19.8,34 L22.7,38.5 L25.7,34 L39.7,34 Z" fill="none" stroke="currentColor" stroke-width="1.5"/><rect x="0" y="0" width="0" height="0" fill="none" stroke="currentColor"/><path d="M39.7,40.5 L6,40.5 C2.8,40.5 0,43.2 0,46.3 L0,51.8 L39.7,51.8 Z" fill="none" stroke="currentColor" stroke-width="1.5"/><path d="M12.8,7 L12.8,26.8 L32.6,26.8 L32.6,7 Z M15.72,9.53 L18.37,12.19 L19.9,10.7 L19.9,14.3 L16.2,14.3 L17.8,12.74 L15.15,10.1 Z M29.8,9.6 L30.36,10.17 L27.71,12.81 L29.2,14.3 L25.6,14.3 L25.6,10.7 L27.15,12.25 Z M16.2,19.8 L19.9,19.8 L19.9,23.4 L18.35,21.89 L15.67,24.56 L15.11,23.99 L17.77,21.33 Z M25.6,19.8 L29.2,19.8 L27.74,21.26 L30.39,23.91 L29.83,24.48 L27.18,21.82 L25.6,23.4 Z M6.8,44.6 C6,44.6 5.3,45.2 5.3,46.1 C5.3,46.9 5.9,47.6 6.8,47.6 C7.6,47.6 8.3,47 8.3,46.1 C8.3,45.3 7.6,44.6 6.8,44.6 Z M12.7,45.8 L12.7,46.6 L34,46.6 L34,45.8 Z" fill="none" stroke="currentColor" stroke-width="1.5"/></svg>