<svg xmlns="http://www.w3.org/2000/svg" viewBox="0 0 100.14 100.0" width="24" height="24"><path d="M0,100 L0,0 L100.14,0 L100.14,100 Z" fill="none" stroke="currentColor" stroke-width="1.5"/><path d="M77.26,46.71 L77.26,38.22 C77.26,37.7 76.95,37.2 76.25,37.2 L68.54,37.2 C66.62,38.9 63.39,42.83 61.24,46.63 C61.08,46.95 60.9,47.56 61.12,47.73 C61.36,47.9 61.82,47.72 62.09,47.48 C63.98,45.96 66.24,42.74 68.7,40.82 L73.6,40.82 L73.6,45.73 L72.66,46.75 C72.52,47.01 72.49,47.44 72.65,47.81 L73.46,49.33 C73.74,49.57 74.38,49.58 74.64,49.34 Z M67.91,64.76 L76.18,64.76 C77.07,64.76 77.26,64.24 77.26,63.7 L77.26,55.3 C74.22,51.99 69.77,49.2 67.08,47.87 C66.74,47.69 66.2,47.46 65.92,47.75 C65.74,48.02 65.91,48.4 66.08,48.61 C67.63,50.8 71.04,52.86 73.6,56.35 L73.6,60.12 L68.65,60.12 L67.1,59.22 C66.81,59.04 66.17,58.98 65.84,59.28 L64.96,60.16 C64.86,60.5 64.82,60.89 64.99,61.13 Z M57.25,68.72 L57.25,64.75 L59.27,64.75 C63.33,60.23 64.8,57.52 66.01,54.99 C66.23,54.51 66.31,53.81 66.04,53.5 C65.53,53.14 65.13,53.48 64.69,53.95 C62.6,56.22 60.81,59.15 58.27,61.08 L57.25,60.07 L57.25,52.37 C58.47,52.92 59.68,53.34 60.99,53.39 C59.91,52.14 58.64,50.85 57.25,49.55 L57.25,40.81 L59.27,40.83 L60.08,41.69 C60.3,41.88 60.89,41.97 61.15,41.72 L61.8,41.09 C62.09,40.81 62.08,40.19 61.87,39.95 L59.22,37.2 L57.25,37.21 L57.25,32.35 L79.17,32.35 C80.44,32.35 81.2,33.09 81.2,34.65 L81.2,65.89 C81.2,67.69 80.36,68.72 78.21,68.72 Z M42.99,62.95 L42.99,57.17 L34.34,57.16 L34.34,51.43 L42.01,51.43 L42.01,46.73 L34.34,46.8 L34.34,40.84 L41.98,40.06 L41.98,36.21 L29.66,37.17 L29.66,62.06 Z M54.38,80.23 L19.1,74.34 L19.1,26.64 L54.38,20.92 Z" fill="none" stroke="currentColor" stroke-width="1.5"/></svg>