<svg xmlns="http://www.w3.org/2000/svg" viewBox="0 0 100.14 100.0" width="24" height="24"><path d="M0,100 L0,0 L100.14,0 L100.14,100 Z" fill="none" stroke="currentColor" stroke-width="1.5"/><path d="M49.7,18.78 C49.12,16.92 47.73,14.55 47.81,11.33 C46.67,12.42 41.34,14.17 37.71,16.81 C42.25,17.34 46.78,17.76 49.7,18.78 Z M52.46,24.43 C51.47,23.41 50.6,22.04 50.55,20.59 C48.94,21.61 47.4,22.7 45.03,23.46 C47.94,23.4 50.87,24.42 52.46,24.43 Z M43.07,23.37 L44.16,23.44 C45.93,21.49 48.31,20.76 50.32,19.83 C48.42,19.72 45.56,19.44 43.59,18.93 C40.72,18.33 38.44,17.76 36.64,16.94 C38.72,19.12 41.12,21.36 43.07,23.37 Z M40.27,22.54 C38.74,21.05 37.22,19.56 35.63,17.89 C34.94,18.72 34.17,19.3 32.78,20.54 C34.81,21.66 37.66,22.34 40.27,22.54 Z M41.13,30.71 C40.77,29.51 40.26,27.57 40,26.85 C39.72,26.05 39.19,25.01 38.45,24.39 C37.33,23.83 35.31,23.27 33.92,22.62 C36.69,24.46 39.45,27.3 41.13,30.71 Z M42.18,30.93 C44.89,28.57 47.46,27.3 49.69,26.2 C46.9,26.13 43.48,25.37 40.32,24.46 C40.61,26.14 41.43,28.67 42.18,30.93 Z M51.46,33.65 C51.68,30.63 51.12,28.39 49.69,26.2 C47.46,27.8 45.41,29.44 43.21,31.94 C44.59,32.21 45.62,32.47 48.4,32.86 C49.47,33 50.49,33.35 51.46,33.65 Z M52.49,33.72 C56.04,31.94 59.28,29.9 62.61,28.12 C60.42,27.61 58.39,27.34 56.42,27.16 C54.66,27.04 52.15,26.6 50.62,26.21 C52.35,27.96 52.49,30.49 52.49,33.72 Z M59.99,38.34 C60.92,36.77 61.87,35.09 62.4,33.76 C62.98,32.34 63.6,30.5 63.67,28.13 C60.24,29.92 57.21,32.26 53.45,34.68 C56.1,35.45 58.23,36.72 59.99,38.34 Z M62.02,38.23 L77.51,32.77 C74.46,32.4 70.44,30.47 64.66,29.06 C64.79,31.82 63.57,34.98 62.02,38.23 Z M68.28,46.86 C70.05,44.42 72.47,41.6 74.95,38.84 C76.64,36.93 77.9,35.24 78.72,33.77 C73.43,35.59 67.69,37.59 62.77,39.33 C65.03,41.53 66.7,44.16 68.28,46.86 Z M70.38,45.82 C73.88,44.85 80.98,43.55 83.91,43.22 C87.2,42.85 88.46,42.62 89.93,42.25 C88.5,40.72 86.9,39.16 84.98,37.54 C83.09,35.98 81.3,34.68 79.67,33.83 C78.69,35.9 77.41,38.17 75.81,40.34 C74.46,42.17 72.76,44 70.38,45.82 Z M43.32,42.03 L49.67,35.63 C47.93,34.85 46.03,34 43.24,33.78 C43.21,36.81 44.04,38.61 43.32,42.03 Z M46.86,45.86 C48.64,43.41 49.69,40.36 50.54,37.59 C48.28,39.18 45.33,41.98 43.19,43.2 C44.48,44.22 45.87,44.91 46.86,45.86 Z M49.87,44.8 C53.05,42.72 56.08,40.82 58.02,40.31 L52.44,37.54 C52.51,39.47 51.38,42.39 49.87,44.8 Z M49.75,52.35 C52.71,48.51 55.4,44.87 57.96,41.33 C54.52,43.08 51.32,44.54 47.87,46.86 C49.02,49.33 49.7,50.76 49.75,52.35 Z M50.76,52.34 C55.93,50.2 61.97,47.84 67.43,46.86 L59.99,41.18 C59.18,42.94 58.09,44.72 56.2,47.14 C54.47,49.23 52.57,50.92 50.76,52.34 Z M39.57,51.36 C42.34,49.72 42.71,49 44.9,47.78 C44.05,46.91 42.99,46.75 42.18,45.89 C42.24,47.39 41.87,48.94 39.57,51.36 Z M34.84,57.99 C39.01,55.02 42.41,52.01 44.91,48.8 L38.71,53.24 C37.77,54.8 36.56,56.39 34.84,57.99 Z M36.84,57.91 C39.85,56.45 42.01,55.89 44.76,54.88 L48.68,53.39 C48.68,52.66 48.58,51.88 48.08,50.88 L46.88,48.77 C43.91,51.66 40.57,55.2 36.84,57.91 Z M34.67,69.19 C36.93,65.3 38.93,61.54 40.22,58.13 C38.31,59.11 35.68,60.09 33.82,61.73 C32.28,65.38 33.47,67.37 34.67,69.19 Z M47.75,65.58 C44.77,63.77 42.94,60.93 42.19,58.02 C41.79,60.58 39.27,64.81 36.71,69.14 C40.69,67.32 44.79,65.76 47.75,65.58 Z M48.81,63.72 C50.22,61.06 50.49,58.68 50.52,54.41 C47.39,56.32 46.46,55.86 44.1,57.13 C45.4,59.72 47.26,62.15 48.81,63.72 Z M60.96,58.08 C60.85,54.49 60.79,52.62 59.99,50.6 L53.51,53.41 C56.12,54.86 58.81,56.45 60.96,58.08 M50.56,63.64 C55,61.94 57.4,59.92 60.96,58.08 C57.67,56.39 54.78,55.19 51.54,53.41 C51.98,54.72 52.13,56.45 51.62,58.73 C51.28,60.51 50.93,62.21 50.56,63.64 Z M59.96,69.26 C60.47,67.76 60.75,65.95 60.86,63.91 C60.93,62.13 60.98,60.25 60.96,58.08 C59.71,59.14 58.42,60.15 56.15,61.58 C54.33,62.76 52.36,63.78 50.59,64.65 C51.88,65.55 53.29,66.44 55.02,67.27 C57.02,68.34 58.55,68.9 59.96,69.26 Z M43.16,76.89 C45.33,73.18 46.96,69.77 47.8,66.55 C46.44,67.35 44.5,68.22 41.53,69.24 C39.73,69.89 37.15,70.41 35.69,71.2 C36.27,72.9 37.94,73.49 38.93,74.47 C40.63,75.94 41.75,76.65 43.16,76.89 Z M45.04,75.79 C46.93,75.46 49.69,74.46 52.86,73.15 C55.06,72.29 57.4,71.2 60.01,70.23 C57.67,69.79 53.37,67.99 49.7,66.57 C48.82,69.47 47.61,72.45 45.04,75.79 Z M57.1,81.44 C58.29,78.19 58.96,73.76 60.01,70.23 C58.82,71.37 56.2,72.69 53.21,74.05 C50.29,75.44 47.59,76.63 44.93,77.8 C47.02,78.79 49.87,80.03 51.77,80.6 C53.61,81.13 55.4,81.45 57.1,81.44 Z M20.77,73.1 C22.85,73.06 25.6,72.39 27.22,71.75 C29.9,70.72 31.39,69.95 32.73,69.21 C31.28,67.7 30.69,65.34 30.98,62.72 C28.8,63.88 26.07,65.32 24.2,67.38 C22.8,68.97 21.4,70.91 20.77,73.1 Z M20.75,74.92 C20.77,78.17 22.96,80.83 25.38,82.37 C27.4,79.18 29,75.86 32.63,72.25 C28.69,73.14 24.72,74.03 20.75,74.92 Z M25.38,82.37 C28.56,81.89 31.31,80.99 34.02,80.05 C36.01,79.4 38.16,78.56 40.27,77.76 C38.26,76.12 35.9,74.56 33.76,72.19 Z M36.54,88.02 C38.25,84.75 40.33,82.01 42.09,79.6 C37.09,80.61 30.55,82.24 27.22,83.35 C29.63,85.95 33.56,86.72 36.54,88.02 Z M37.56,88 C42.48,86.86 49.98,84.31 56.19,82.41 C51.72,81.8 47.4,80.79 43.15,79.62 Z M39.05,88.19 C44.66,89.33 49.09,90.75 53.45,90.84 C54.6,87.98 55.66,85.15 56.19,82.41 C51.3,85.49 45.03,87.2 39.05,88.19 Z M54.37,91.85 C49.34,91.61 44.77,91.09 35.21,89.13 C29.19,86.74 22.33,84.05 18.6,78.81 C15.64,73.15 20.79,68.62 23.49,65.63 C25.4,63.46 31.22,60.84 38.35,50.68 C42.36,45.1 43.36,38.54 40.73,31.95 C39.25,28 32.87,22.97 31.09,20.78 C30.63,20.13 30.4,19.68 31.33,18.9 C35.19,15.35 43.98,11.56 47.81,11.33 C49.87,15.02 51.89,20.98 54.4,25.32 C62.45,26.35 69.51,28.18 75.48,30.37 C81.12,32.43 88.42,36.99 91.9,43.19 C81.93,44.35 71.11,48.33 61.97,51.56 C63.11,56.87 63.36,62.79 62.1,71.26 C60.46,78.98 57.1,84.97 54.37,91.85 Z" fill="none" stroke="currentColor" stroke-width="1.5"/></svg>