<svg xmlns="http://www.w3.org/2000/svg" viewBox="0 0 28.35 28.35" width="24" height="24"><path d="M0,28.35 L28.35,28.35 L28.35,0 L0,0 Z" fill="none" stroke="currentColor" stroke-width="1.5"/><path d="M3.9,3.91 L3.9,9.32 L6.34,6.88 L9.96,10.49 L10.49,9.96 L6.87,6.35 L9.31,3.91 Z M19.03,3.91 L21.48,6.35 L17.89,9.95 L18.42,10.48 L22.01,6.88 L24.44,9.32 L24.44,3.91 Z M18.37,17.84 L17.84,18.37 L21.47,22.01 L19.03,24.45 L24.44,24.45 L24.44,19.04 L22,21.47 Z M10.05,17.87 L6.39,21.52 L3.91,19.04 L3.91,24.45 L9.32,24.45 L6.92,22.05 L10.58,18.4 Z" fill="none" stroke="currentColor" stroke-width="1.5"/></svg>