<svg xmlns="http://www.w3.org/2000/svg" viewBox="0 0 28.2 28.2" width="24" height="24"><path d="M28.2,28.2 L28.2,0 L0,0 L0,28.2 Z" fill="none" stroke="currentColor" stroke-width="1.5"/><path d="M14.68,7.06 C12.35,7.06 10.14,8.27 8.88,10.24 C5.5,9.76 2.67,12.4 2.67,15.66 C2.67,18.68 5.13,21.14 8.14,21.14 L20.88,21.14 C23.14,21.14 25.53,18.57 25.53,16.14 C25.53,13.79 23.62,11.89 21.28,11.89 L21.27,11.89 C20.36,9.03 17.7,7.06 14.68,7.06 Z M14.68,7.81 C17.46,7.81 19.91,9.69 20.63,12.37 L20.74,12.67 L21.05,12.65 C21.13,12.64 21.2,12.64 21.28,12.64 C23.21,12.64 24.78,14.21 24.78,16.14 C24.78,18.16 22.74,20.39 20.88,20.39 L8.14,20.39 C5.54,20.39 3.42,18.27 3.42,15.66 C3.42,13.06 5.54,10.94 8.14,10.94 C8.42,10.94 8.7,10.96 8.99,11.02 L9.25,11.06 L9.39,10.84 C10.49,8.97 12.52,7.81 14.68,7.81 Z M15.01,9.73 C13.83,9.73 12.88,10.69 12.88,11.86 C12.88,13.04 13.83,14 15.01,14 C16.19,14 17.14,13.04 17.14,11.86 C17.14,10.69 16.19,9.73 15.01,9.73 Z M15.01,10.48 C15.77,10.48 16.39,11.1 16.39,11.86 C16.39,12.63 15.77,13.25 15.01,13.25 C14.25,13.25 13.63,12.63 13.63,11.86 C13.63,11.1 14.25,10.48 15.01,10.48 Z M9.16,13.72 L9.54,18.87 L13.81,15.96 Z M19.64,14.38 L16.13,15.59 L17.34,19.1 L20.85,17.89 Z M10,14.96 L12.31,16.07 L10.19,17.52 Z M19.18,15.33 L19.9,17.42 L17.81,18.14 L17.09,16.05 Z" fill="none" stroke="currentColor" stroke-width="1.5"/></svg>