<svg xmlns="http://www.w3.org/2000/svg" viewBox="0 0 34.02 34.02" width="24" height="24"><path d="M0,34.02 L34.02,34.02 L34.02,0 L0,0 Z" fill="none" stroke="currentColor" stroke-width="1.5"/><path d="M17.01,4.75 C10.25,4.75 4.75,10.25 4.75,17.01 C4.75,21.14 6.88,25.03 10.32,27.29 L10.31,27.3 L10.74,27.56 C11.71,28.13 12.75,28.57 13.83,28.86 L13.83,28.86 L14.19,28.95 L14.19,28.94 C15.11,29.16 16.06,29.27 17.01,29.27 C17.88,29.27 18.74,29.18 19.59,29 L19.59,29.01 L20.04,28.9 C21.08,28.63 22.09,28.23 23.02,27.7 L23.31,27.54 L23.31,27.52 C26.99,25.31 29.27,21.31 29.27,17.01 C29.27,10.25 23.77,4.75 17.01,4.75 Z M17.01,5.5 C23.36,5.5 28.52,10.67 28.52,17.01 C28.52,20.99 26.44,24.7 23.07,26.79 L21.46,21.94 C22.85,20.68 23.65,18.89 23.65,17.01 C23.65,13.35 20.67,10.37 17.01,10.37 C13.35,10.37 10.37,13.35 10.37,17.01 C10.37,18.86 11.14,20.62 12.48,21.87 L10.78,26.68 C7.51,24.57 5.5,20.91 5.5,17.01 C5.5,10.67 10.66,5.5 17.01,5.5 Z M17.01,13.63 C18.87,13.63 20.39,15.15 20.39,17.01 C20.39,18.32 19.62,19.52 18.47,20.06 L17.96,20.25 L19.54,28.23 C17.83,28.61 16.03,28.61 14.33,28.21 L15.78,20.69 L15.93,20.23 L15.62,20.1 C14.41,19.55 13.63,18.34 13.63,17.01 C13.63,15.15 15.15,13.63 17.01,13.63 Z" fill="none" stroke="currentColor" stroke-width="1.5"/></svg>