<svg xmlns="http://www.w3.org/2000/svg" viewBox="0 0 34.02 34.02" width="24" height="24"><path d="M0,34.02 L34.02,34.02 L34.02,0 L0,0 Z" fill="none" stroke="currentColor" stroke-width="1.5"/><path d="M7.42,5.22 L7.42,12.04 L26.57,12.04 L26.57,5.22 Z M10.85,7.24 C11.67,7.24 12.21,7.75 12.21,8.76 L12.21,8.85 C12.21,9.83 11.65,10.37 10.83,10.37 C10,10.37 9.46,9.85 9.46,8.85 L9.46,8.76 C9.46,7.78 10.02,7.24 10.85,7.24 Z M19.2,7.24 C19.53,7.24 19.77,7.3 19.96,7.39 L19.96,7.81 C19.73,7.72 19.52,7.67 19.23,7.67 C18.71,7.67 18.35,7.96 18.35,8.68 L18.35,8.84 C18.35,9.54 18.6,9.94 19.24,9.94 C19.59,9.94 19.81,9.85 19.99,9.77 L19.99,10.18 C19.78,10.29 19.5,10.37 19.14,10.37 C18.3,10.37 17.78,9.88 17.78,8.85 L17.78,8.74 C17.78,7.65 18.41,7.24 19.2,7.24 Z M12.67,7.29 L13.68,7.29 C14.37,7.29 14.73,7.58 14.73,8.18 C14.73,8.6 14.52,8.83 14.18,8.96 L14.18,8.98 L14.94,10.32 L14.35,10.32 L13.67,9.09 L13.2,9.09 L13.2,10.32 L12.67,10.32 Z M16.09,7.29 L16.64,7.29 L17.72,10.32 L17.17,10.32 L16.89,9.54 L15.76,9.54 L15.49,10.32 L15,10.32 Z M20.42,7.29 L20.95,7.29 L20.95,9.9 L22.24,9.9 L22.24,10.32 L20.42,10.32 Z M22.64,7.29 L24.53,7.29 L24.53,7.71 L23.17,7.71 L23.17,8.55 L24.22,8.55 L24.22,8.97 L23.17,8.97 L23.17,9.9 L24.55,9.9 L24.55,10.32 L22.64,10.32 Z M10.83,7.65 C10.29,7.65 10.03,8.08 10.03,8.69 L10.03,8.84 C10.03,9.53 10.25,9.95 10.84,9.95 C11.38,9.95 11.64,9.53 11.64,8.91 L11.64,8.76 C11.64,8.08 11.42,7.66 10.83,7.65 Z M13.2,7.7 L13.2,8.72 L13.62,8.72 C14.02,8.72 14.18,8.55 14.18,8.19 C14.18,7.84 14.01,7.7 13.62,7.7 Z M16.31,7.92 L15.9,9.14 L16.76,9.14 L16.33,7.92 Z M7.42,13.6 L7.42,20.42 L26.57,20.42 L26.57,17.39 L19.9,17.39 L19.9,16.64 L26.57,16.64 L26.57,13.6 Z M7.42,21.99 L7.42,28.81 L26.57,28.81 L26.57,25.78 L19.9,25.78 L19.9,25.03 L26.57,25.03 L26.57,21.99 Z" fill="none" stroke="currentColor" stroke-width="1.5"/></svg>