<svg xmlns="http://www.w3.org/2000/svg" viewBox="0 0 22.5 22.5" width="24" height="24"><path d="M0,22.5 L0,0 L22.5,0 L22.5,22.5 Z" fill="none" stroke="currentColor" stroke-width="1.5"/><path d="M19.03,5.04 L19.03,3.53 L17.52,3.53 L17.52,3.08 L19.03,3.08 L19.03,1.57 L19.48,1.57 L19.48,3.08 L20.99,3.08 L20.99,3.53 L19.48,3.53 L19.48,5.04 Z M8.28,17.06 C7.61,17.52 6.76,17.68 6.4,17.19 C6.15,16.8 6.51,16.18 7,15.8 L13.25,11.27 L9.19,6.8 C8.68,6.14 8.73,5.49 9.17,5.18 C9.83,4.79 10.63,5.24 11,5.61 L15.58,10.65 C15.94,11.07 15.58,11.73 15.05,12.14 Z M15.44,17.38 C16.15,17.36 16.6,16.83 16.65,16.4 C16.68,15.87 16.27,15.58 15.84,15.58 L12.17,15.58 C11.66,15.58 11.02,16.03 10.98,16.61 C10.96,17.06 11.29,17.34 11.71,17.38 Z" fill="none" stroke="currentColor" stroke-width="1.5"/></svg>