<svg xmlns="http://www.w3.org/2000/svg" viewBox="0 0 279.58 283.46" width="24" height="24"><path d="M0,283.46 L0,0 L279.58,0 L279.58,283.46 L0,283.46 Z" fill="none" stroke="currentColor" stroke-width="1.5"/><path d="M212.69,113.79 L224.43,113.79 L224.43,102.04 L212.69,102.04 L212.69,113.79 Z M196.67,113.79 L207.77,113.79 L207.77,102.04 L196.67,102.04 L196.67,113.79 Z M180.03,113.79 L191.6,113.79 L191.6,102.04 L180.03,102.04 L180.03,113.79 Z M178.29,238.03 C178.29,211.67 159.34,202.51 143.35,202.51 L143.35,164.67 L149.11,164.64 C152.54,164.64 154.4,167.59 154.8,170.38 L156.71,179.81 L164.41,179.82 L170.36,172.7 C172.62,169.6 174.82,170.08 177.82,171.35 L183.54,173.63 C186.52,174.83 186.87,178.18 186.09,180.92 L183.56,191.44 L189.29,197.23 L196.89,194.29 C200.28,192.75 202.68,194.22 203.77,196.44 L207.09,202.19 C208.71,204.7 208.8,207.17 206.78,209.27 L199.55,216.5 L201.4,224.54 L211.31,226.44 C214.63,227.05 217.41,228.65 217.41,233.21 L217.43,238.03 L178.29,238.03 Z M143.35,255.47 L143.35,244.65 L222.56,244.65 L222.56,123.78 L143.35,123.78 L143.35,89.72 L219.08,89.72 C228.2,89.72 232.87,95.63 232.87,102.42 L232.87,250.52 L226.34,255.47 L143.35,255.47 Z M52.3,173.28 C52.58,149.56 58.88,132.58 66.59,117.17 C74.23,103.96 80.04,97.37 90.36,87.26 C92.42,84.76 94.77,84.61 97.12,87.24 L107.17,97.2 L107.24,48.23 L59.53,48.23 L70.04,58.96 C72.19,61.39 71.95,63.42 69.22,65.41 C55.92,75.58 46.59,89.82 42.45,104.32 C34.6,126.92 39.76,154.96 52.3,173.28 L52.3,173.28 Z M68.74,171.68 L121.49,171.68 L121.49,137.06 L68.74,137.06 L68.74,171.68 Z M68.74,217.34 L121.49,217.34 L121.49,209.03 L68.74,209.03 L68.74,217.34 Z M68.74,237.5 L121.49,237.5 L121.49,227.65 L68.74,227.65 L68.74,237.5 Z M61.47,253.89 C58.62,253.89 55.67,252.12 55.67,247.37 L55.67,194.5 C44.36,174.26 34.3,151.74 32.16,128.91 C29.65,104.66 42.28,82.46 60.61,61.94 L46.74,47.68 C43.82,44.44 45.8,40.1 49.99,40.1 L111.11,40.1 C113.62,40.1 114.91,41.63 114.91,45.33 L114.91,104.7 C114.91,110 109.84,110.65 107.81,108.34 L93.35,93.52 C84.25,101.72 76.52,112.86 71.38,121.97 L128.33,121.97 C133.17,121.97 135.01,124.86 135.01,128.92 L135.01,247.79 C135.01,251.44 133.81,253.89 129.31,253.89 L61.47,253.89 Z" fill="none" stroke="currentColor" stroke-width="1.5"/></svg>