<svg xmlns="http://www.w3.org/2000/svg" viewBox="0 0 22.51 22.51" width="24" height="24"><path d="M0,22.51 L0,0 L22.51,0 L22.51,22.51 Z" fill="none" stroke="currentColor" stroke-width="1.5"/><path d="M18.14,7.58 L18.14,6.64 C18.44,6.7 18.69,6.76 18.96,6.91 C19.18,7.04 19.17,7.17 18.97,7.3 C18.76,7.43 18.49,7.52 18.14,7.58 Z M13.01,7.65 C12.56,7.59 12.15,7.47 11.85,7.33 C11.6,7.18 11.61,7.03 11.86,6.89 C12.25,6.68 12.87,6.59 13.4,6.52 L13.77,6.89 Z M13.53,8.02 L14.41,7.13 C14.56,6.99 14.55,6.82 14.41,6.66 C12.38,4.44 9.86,3.44 7.54,3.47 C8.99,2.77 10.66,2.28 11.97,2.46 C13.88,2.73 15.11,3.99 16.1,4.92 C16.29,5.11 16.48,5.09 16.62,4.94 L17.52,4.04 L17.52,8.02 Z M4.69,8.29 L8.88,8.29 L8.88,5.73 L4.69,5.73 Z M4.69,11.81 L8.88,11.81 L8.88,11.13 L4.69,11.13 Z M4.69,13.31 L8.88,13.31 L8.88,12.64 L4.69,12.64 Z M4.1,14.96 C3.61,14.96 3.38,14.54 3.38,14.28 L3.38,5.11 C3.38,4.72 3.66,4.38 4.1,4.38 L9.48,4.38 C9.75,4.38 10.19,4.54 10.19,5.14 L10.19,14.26 C10.19,14.67 9.85,14.96 9.49,14.96 Z" fill="none" stroke="currentColor" stroke-width="1.5"/><path d="M11.03,18.64 C11.3,18.64 11.52,18.44 11.52,18.15 C11.52,17.89 11.3,17.67 11.03,17.67 C10.79,17.67 10.56,17.93 10.56,18.15 C10.56,18.45 10.82,18.64 11.03,18.64 Z M11.03,18.68 C10.81,18.68 10.53,18.48 10.52,18.15 C10.52,17.88 10.74,17.63 11.03,17.63 C11.35,17.63 11.56,17.89 11.56,18.15 C11.56,18.45 11.32,18.68 11.03,18.68 Z M17.07,18.43 L18.13,18.43 L18.13,17.89 L17.07,17.89 Z M17.03,18.47 L17.03,17.84 L18.18,17.84 L18.18,18.47 Z M11.67,12.52 C11.73,12.8 12.46,12.95 12.88,13.02 C14.61,13.27 16.52,13.27 18.06,13 C18.56,12.9 19.09,12.74 19.12,12.53 L19.12,14.45 C19.12,14.72 18.41,14.9 18.01,14.97 C16.39,15.24 13.96,15.27 12.32,14.86 C12.03,14.78 11.67,14.67 11.67,14.46 Z M11.67,11.76 L11.67,9.82 C11.69,10.03 12.18,10.18 12.52,10.25 C14.13,10.58 16.51,10.57 17.91,10.33 C18.38,10.24 19.07,10.08 19.12,9.82 L19.12,11.75 C19.12,12.02 18.44,12.19 18.02,12.26 C16.36,12.53 14.39,12.53 12.83,12.28 C12.38,12.2 11.67,12.01 11.67,11.76 Z M12.48,9.51 C12.22,9.44 11.67,9.29 11.67,9.06 L11.67,7.12 C11.7,7.38 12.45,7.55 13.01,7.65 L12.57,8.1 C12.32,8.36 12.51,8.65 12.76,8.65 L17.8,8.65 C17.98,8.65 18.14,8.53 18.14,8.33 L18.14,7.58 C18.53,7.52 19.12,7.31 19.12,7.12 L19.12,9.06 C19.12,9.34 18.31,9.52 17.85,9.6 C16.25,9.83 13.94,9.83 12.48,9.51 Z M16.98,18.52 L18.22,18.52 L18.22,17.8 L16.98,17.8 Z M12.34,18.91 L16.5,18.91 L16.5,17.4 L12.34,17.4 Z M11.03,18.72 C11.44,18.72 11.6,18.39 11.6,18.15 C11.6,17.86 11.38,17.58 11.03,17.58 C10.78,17.58 10.48,17.8 10.48,18.15 C10.48,18.47 10.72,18.72 11.03,18.72 Z M5.58,18.91 L9.74,18.91 L9.74,17.4 L5.58,17.4 Z M4.61,18.5 C4.81,18.5 4.97,18.35 4.97,18.18 C4.97,17.98 4.86,17.81 4.61,17.81 C4.46,17.81 4.28,17.93 4.28,18.18 C4.28,18.36 4.46,18.5 4.61,18.5 Z M3.38,20.09 L3.38,16.22 L19.12,16.22 L19.12,20.09 Z" fill="none" stroke="currentColor" stroke-width="1.5"/></svg>