<svg xmlns="http://www.w3.org/2000/svg" viewBox="0 0 21.14 21.7" width="24" height="24"><path d="M5.22,21.7 L5.22,21.19 L0,21.19 L0,20.38 L5.31,20.38 C5.58,19.97 6.03,19.82 6.47,19.82 L9.55,19.82 L9.55,17.7 L3.53,17.7 C2.27,17.7 0.72,16.7 0.72,15.11 L0.72,0 L18.32,0 C19.62,0 21.14,1.02 21.14,2.65 L21.14,17.7 L12.31,17.7 L12.31,19.82 L16.37,19.82 L16.37,20.38 L20.95,20.38 L20.95,21.19 L16.23,21.19 C16.05,21.46 15.66,21.7 15.16,21.7 Z" fill="none" stroke="currentColor" stroke-width="1.5"/><path d="M3.57,15.77 C3.31,15.77 2.66,15.57 2.66,15.07 L2.66,1.94 L18.26,1.94 C18.69,1.94 19.2,2.22 19.2,2.63 L19.2,15.77 Z" fill="none" stroke="currentColor" stroke-width="1.5"/><path d="M8.13,11.79 C7.89,12.08 7.41,12.28 6.77,12.28 C5.88,12.28 4.91,11.4 4.91,10.3 C4.91,9.36 6,8.65 6.76,8.58 C6.6,8.2 6.48,7.77 6.6,7.33 C6.79,6.4 7.69,5.89 8.42,5.89 C8.73,5.89 9.22,6.04 9.5,6.25 C9.81,4.79 11.01,4.29 12.01,4.29 C12.68,4.29 13.3,4.61 13.76,5.29 C14.08,5.79 14.28,6.39 14.36,6.9 C15.58,6.88 16.26,7.46 16.69,7.97 C17.16,8.58 17.36,9.27 17.36,9.85 C17.36,11.72 15.8,12.64 14.72,12.64 C14.03,12.64 13.4,12.42 12.98,12.03 C12.58,12.59 11.81,13.04 10.68,13.05 C9.53,13.05 8.68,12.61 8.13,11.79 Z" fill="none" stroke="currentColor" stroke-width="1.5"/></svg>