<svg xmlns="http://www.w3.org/2000/svg" viewBox="0 0 28.35 39.18" width="24" height="24"><path d="M28.35,7.1 L28.35,39.18 L0,39.18 L0,0 L21.38,0 Z" fill="none" stroke="currentColor" stroke-width="1.5"/><path d="M19.46,33.36 L17.07,30.97 L17.6,30.44 L19.46,32.3 L22.28,29.48 L22.82,30.01 Z M5.16,32.44 L15.69,32.44 L15.69,31.69 L5.16,31.69 Z M5.16,26.58 L23.19,26.58 L23.19,25.83 L5.16,25.83 Z M5.16,20.71 L23.19,20.71 L23.19,19.96 L5.16,19.96 Z M26.01,7.85 L20.72,7.85 L20.72,2.48 C20.72,2.48 26.06,7.85 26.01,7.85 Z" fill="none" stroke="currentColor" stroke-width="1.5"/></svg>