<svg xmlns="http://www.w3.org/2000/svg" viewBox="0 0 279.53 283.46" width="24" height="24"><path d="M0,283.46 L0,0 L279.53,0 L279.53,283.46 L0,283.46 Z" fill="none" stroke="currentColor" stroke-width="1.5"/><path d="M164.84,135.57 L122.82,110.39 L122.82,60.74 C139.69,60.45 155.27,68.32 165.38,84.88 C176.08,104.27 172.68,123.44 164.84,135.57 Z M106.57,116.17 L106.57,71.53 C92.86,72 74.35,82.85 67.91,99.14 C60.79,117.88 65.23,129.96 68.16,138.6 L106.57,116.17 Z M155.5,143.07 C147.96,157.02 133.13,170.37 109.78,170.37 C81,170.37 58.83,144.7 58.83,119.44 C58.83,84.82 88.61,64.76 111.63,66.24 L111.63,117.26 L155.5,143.07 Z M112.75,190.18 C151.35,190.18 184.38,159.4 184.38,119.29 C184.38,73.86 149.72,45.52 113.79,45.52 C74.51,45.52 42.01,76.51 42.01,119.06 C42.01,156.18 72.4,190.18 112.75,190.18 L112.75,190.18 Z M234.4,210.57 L205.05,240.64 L173.45,208.13 L178.85,202.35 L166.77,189.74 C153.84,199.17 137.69,207.86 113.29,207.86 C64.04,207.86 24.72,165.57 24.72,118.97 C24.72,68.24 65.84,27.86 112.37,27.86 C165.62,27.86 202.51,71.01 202.51,119.09 C202.51,138.18 194.59,158.05 184.72,171.62 L197.67,184.9 C202.38,183.21 207.5,183.56 211.74,188.17 L234.4,210.57 Z M235.31,252 C228.55,258.06 220.65,255.92 216.97,252.36 L210.08,245.91 L239.23,215.92 L255.17,231.65 L235.31,252 Z" fill="none" stroke="currentColor" stroke-width="1.5"/></svg>