<svg xmlns="http://www.w3.org/2000/svg" viewBox="0 0 28.2 28.19" width="24" height="24"><path d="M28.2,28.2 L28.2,0 L0,0 L0,28.2 Z" fill="none" stroke="currentColor" stroke-width="1.5"/><path d="M14.1,5.59 C10.94,5.59 8.07,7.34 6.6,10.06 L4.54,9.46 L5.82,14.67 L9.7,10.96 L7.34,10.28 C8.7,7.88 11.27,6.34 14.1,6.34 C18.38,6.34 21.86,9.82 21.86,14.1 C21.86,18.38 18.38,21.86 14.1,21.86 C11.94,21.86 9.94,21 8.46,19.43 L7.91,19.95 C9.54,21.66 11.73,22.61 14.1,22.61 C18.79,22.61 22.61,18.79 22.61,14.1 C22.61,9.4 18.79,5.59 14.1,5.59 Z" fill="none" stroke="currentColor" stroke-width="1.5"/></svg>