<svg xmlns="http://www.w3.org/2000/svg" viewBox="0 0 20.59 20.59" width="24" height="24"><path d="M20.22,10.29 C20.22,15.77 15.77,20.22 10.29,20.22 C4.82,20.22 0.37,15.77 0.37,10.29 C0.37,4.81 4.82,0.37 10.29,0.37 C15.77,0.37 20.22,4.81 20.22,10.29 Z" fill="none" stroke="currentColor" stroke-width="1.5"/><path d="M10.3,0 C4.62,0 0,4.62 0,10.29 C0,15.97 4.62,20.59 10.3,20.59 C15.97,20.59 20.59,15.97 20.59,10.29 C20.59,4.62 15.97,0 10.3,0 Z M10.3,0.75 C15.56,0.75 19.84,5.03 19.84,10.29 C19.84,15.56 15.56,19.84 10.3,19.84 C5.03,19.84 0.75,15.56 0.75,10.29 C0.75,5.03 5.03,0.75 10.3,0.75 Z M10.29,5.19 C8.25,5.19 6.41,6.33 5.47,8.09 L4.32,7.75 L5.12,11.01 L7.54,8.69 L6.22,8.3 C7.04,6.87 8.59,5.94 10.29,5.94 C12.88,5.94 15,8.06 15,10.65 C15,13.25 12.88,15.36 10.29,15.36 C8.98,15.36 7.76,14.84 6.87,13.89 L6.32,14.4 C7.36,15.5 8.77,16.11 10.29,16.11 C13.3,16.11 15.75,13.66 15.75,10.65 C15.75,7.64 13.3,5.19 10.29,5.19 Z" fill="none" stroke="currentColor" stroke-width="1.5"/></svg>