<svg xmlns="http://www.w3.org/2000/svg" viewBox="0 0 22.5 22.31" width="24" height="24"><path d="M0,22.31 L0,0 L22.5,0 L22.5,22.31 Z" fill="none" stroke="currentColor" stroke-width="1.5"/><path d="M11.92,16.08 L13.46,15.42 L12.3,13.43 L11.92,14.75 Z M17.62,18.41 L15.4,15.04 L11.92,16.53 L11.92,16.81 Z M18.02,18.28 L18.87,15.32 L16.79,16.41 Z M14.05,8.14 L17.78,9.01 L17.93,8.37 L14.2,7.5 Z M13.72,9.29 L17.45,10.15 L17.61,9.52 L13.88,8.65 Z M16.57,16.07 L18.92,14.83 L16.5,11.16 L12.52,13.01 L13.85,15.25 L15.38,14.6 C15.46,14.57 15.57,14.58 15.62,14.65 Z M18.05,18.95 L11.92,17.22 L11.92,13.34 C11.92,12.96 12.01,12.8 12.17,12.73 L14.35,11.71 L12.25,11.23 L14.06,3.53 L17.71,4.36 L17.18,6.42 L19.35,6.93 L18.04,12.56 L17.9,12.53 L19.37,14.77 C19.41,14.84 19.43,14.91 19.4,14.98 L18.29,18.83 C18.26,18.92 18.19,18.98 18.05,18.95 Z M4.73,13.08 C4.68,10.65 5.82,8.25 7.87,6.39 C8,6.28 8.17,6.25 8.32,6.39 L9.19,7.26 L9.19,3.39 L5.29,3.39 L6.1,4.19 C6.31,4.41 6.41,4.54 6.04,4.86 C4.99,5.9 4.03,7.13 3.77,8.63 C3.54,10.18 4.14,11.8 4.73,13.08 Z M5.92,12.99 L10.25,12.99 L10.25,10.38 L5.92,10.38 Z M5.92,16.6 L10.25,16.6 L10.25,15.92 L5.92,15.92 Z M5.92,18.16 L10.25,18.16 L10.25,17.45 L5.92,17.45 Z M5.3,19.53 C5.06,19.53 4.87,19.36 4.87,19.1 L4.87,14.65 C4.01,13.04 3.09,11.19 3.09,9.31 C3.15,7.28 4.17,5.89 5.54,4.5 L4.3,3.26 C4.16,3.11 4.23,2.78 4.54,2.78 L9.5,2.78 C9.61,2.78 9.8,2.85 9.8,3.1 L9.8,8.01 C9.8,8.23 9.53,8.41 9.3,8.22 L8.08,7.01 C7.37,7.68 6.78,8.43 6.31,9.29 L10.86,9.29 C11.14,9.29 11.31,9.52 11.31,9.74 L11.31,19.11 C11.31,19.35 11.1,19.53 10.88,19.53 Z" fill="none" stroke="currentColor" stroke-width="1.5"/><path d="M11.91,16.09 L13.46,15.42 L12.29,13.43 L11.92,14.75 Z M17.62,18.41 L15.39,15.04 L11.91,16.53 L11.91,16.81 Z M18.02,18.29 L18.87,15.32 L16.79,16.41 Z" fill="none" stroke="currentColor" stroke-width="1.5"/><path d="M17.17,6.42 L17.71,4.36 L19.35,6.93 Z" fill="none" stroke="currentColor" stroke-width="1.5"/></svg>