<svg xmlns="http://www.w3.org/2000/svg" viewBox="0 0 22.5 22.5" width="24" height="24"><path d="M0,22.5 L0,0 L22.5,0 L22.5,22.5 Z" fill="none" stroke="currentColor" stroke-width="1.5"/><path d="M17.53,14.79 C17.74,14.71 17.98,14.66 18.24,14.64 C18,14.03 17.55,13.65 17.05,13.41 C16.35,13.1 15.62,13.32 15.13,13.65 C16.03,13.54 16.95,13.8 17.53,14.79 Z M13.03,13.5 C13.32,13.37 13.61,13.31 13.84,13.29 C13.67,12.87 13.16,12.21 12.38,11.92 C11.57,11.64 10.85,11.84 10.18,12.31 C11.3,12.11 12.35,12.46 13.03,13.5 Z M5.13,16.33 C5.61,15.12 6.5,14.78 7.26,14.74 C7.3,14.5 7.35,14.25 7.47,14.06 C7.05,13.99 6.25,14.12 5.69,14.64 C5.14,15.19 5.09,15.85 5.13,16.33 Z M8.79,17.88 C8.32,18.38 7.61,18.6 6.72,18.6 C5.2,18.6 4.15,17.42 4.15,16.2 C4.15,14.31 6.12,13.17 7.57,13.74 C8.18,11.96 9.83,11.09 11.28,11.09 C12.76,11.08 13.96,11.92 14.59,12.88 C15.07,12.61 15.71,12.41 16.33,12.49 C18.31,12.73 19.07,14.38 19.07,15.54 C19.07,17.07 17.83,18.59 15.95,18.6 C15.15,18.59 14.29,18.51 13.67,17.95 C11.92,19.3 10,18.86 8.79,17.88 Z" fill="none" stroke="currentColor" stroke-width="1.5"/><rect x="0" y="0" width="0" height="0" fill="none" stroke="currentColor"/><path d="M7.57,13.74 C7.31,13.64 7.03,13.58 6.73,13.59 C6.66,13.59 6.6,13.51 6.63,13.41 L6.95,12.43 C6.7,12.21 6.45,12 6.29,11.78 L5.35,12.08 C5.26,12.12 5.17,12.09 5.11,12 L4.82,11.5 C4.79,11.41 4.82,11.34 4.87,11.29 L5.63,10.62 C5.5,10.32 5.43,10.02 5.38,9.72 L4.39,9.51 C4.3,9.5 4.26,9.41 4.25,9.32 L4.25,8.72 C4.27,8.65 4.31,8.61 4.39,8.59 L5.38,8.38 C5.44,8.08 5.54,7.69 5.63,7.49 L4.9,6.85 C4.82,6.79 4.78,6.69 4.83,6.6 L5.11,6.09 C5.17,6.02 5.24,5.99 5.33,6.02 L6.29,6.34 C6.48,6.07 6.72,5.87 6.96,5.67 L6.64,4.72 C6.61,4.66 6.61,4.56 6.71,4.5 L7.22,4.21 C7.29,4.17 7.39,4.2 7.43,4.25 L8.1,5 C8.41,4.89 8.71,4.8 9,4.76 L9.21,3.79 C9.23,3.7 9.25,3.65 9.36,3.64 L9.96,3.64 C10.12,3.65 10.12,3.73 10.14,3.8 L10.33,4.77 C10.62,4.8 10.92,4.89 11.25,5.01 L11.9,4.26 C11.98,4.18 12.07,4.17 12.16,4.22 L12.65,4.51 C12.7,4.55 12.74,4.64 12.71,4.71 L12.4,5.66 C12.62,5.86 12.83,6.06 13.05,6.34 L14.03,6.01 C14.11,5.99 14.18,6.03 14.22,6.08 L14.52,6.6 C14.55,6.69 14.53,6.77 14.47,6.83 L13.72,7.49 C13.83,7.76 13.91,8.06 13.96,8.38 L14.97,8.6 C15.08,8.63 15.09,8.71 15.09,8.79 L15.09,9.33 C15.09,9.43 15.04,9.49 14.96,9.51 L13.96,9.71 C13.91,10 13.84,10.3 13.72,10.62 L14.47,11.29 C14.55,11.36 14.54,11.43 14.51,11.51 L14.21,12.03 C14.14,12.11 14.01,12.11 13.86,12.04 C13.49,11.73 13.07,11.49 12.6,11.31 C12.24,11.19 11.86,11.09 11.33,11.08 C11.86,10.64 12.27,9.96 12.3,9.14 C12.3,7.53 11.06,6.41 9.62,6.43 C8.32,6.43 7.04,7.54 7.04,9.06 C7.04,10.48 8.14,11.49 9.27,11.64 C8.49,12.11 7.84,12.88 7.57,13.74 Z" fill="none" stroke="currentColor" stroke-width="1.5"/></svg>