<svg xmlns="http://www.w3.org/2000/svg" viewBox="0 0 34.02 34.02" width="24" height="24"><path d="M0,34.02 L34.02,34.02 L34.02,0 L0,0 Z" fill="none" stroke="currentColor" stroke-width="1.5"/><path d="M17.26,3.56 C17.01,3.55 16.76,3.56 16.5,3.57 C16.6,5.36 15.53,7.09 13.75,7.71 C11.97,8.34 10.06,7.66 9.02,6.19 C7.37,7.4 6.06,8.97 5.13,10.74 C6.73,11.55 7.68,13.33 7.33,15.18 C6.98,17.03 5.44,18.34 3.65,18.51 C3.76,19.49 3.97,20.47 4.31,21.44 C4.65,22.42 5.1,23.32 5.63,24.15 C7.13,23.17 9.15,23.24 10.58,24.47 C12.01,25.7 12.38,27.69 11.63,29.32 C13.46,30.12 15.47,30.52 17.52,30.44 C17.41,28.64 18.48,26.93 20.26,26.3 C22.04,25.68 23.95,26.36 24.99,27.83 C26.64,26.61 27.95,25.05 28.89,23.28 C27.29,22.47 26.33,20.69 26.68,18.84 C27.03,16.98 28.57,15.67 30.36,15.5 C30.25,14.52 30.04,13.54 29.7,12.56 C29.36,11.59 28.91,10.69 28.38,9.85 C26.88,10.83 24.86,10.77 23.43,9.54 C22,8.31 21.63,6.33 22.38,4.7 C20.78,4 19.04,3.59 17.26,3.56 Z M17.01,10 C20.88,10 24.01,13.14 24.01,17.01 C24.01,20.88 20.88,24.02 17.01,24.02 C13.14,24.02 10,20.88 10,17.01 C10,13.14 13.14,10 17.01,10 Z M18.74,14.79 C17.92,14.79 17.5,15.23 17.5,15.85 C17.5,16.46 17.82,16.75 18.35,16.92 L18.76,17.06 C19.22,17.21 19.38,17.37 19.38,17.75 C19.38,18.16 19.12,18.42 18.55,18.42 C18.14,18.42 17.76,18.32 17.45,18.17 L17.45,18.6 C17.72,18.75 18.09,18.87 18.58,18.87 C19.51,18.87 19.91,18.4 19.91,17.71 C19.91,17.04 19.55,16.79 18.97,16.6 L18.56,16.46 C18.14,16.32 18.02,16.16 18.02,15.81 C18.02,15.44 18.28,15.23 18.73,15.23 C19.16,15.23 19.47,15.33 19.71,15.44 L19.71,15.01 C19.49,14.9 19.22,14.79 18.74,14.79 Z M11.36,14.86 L11.36,18.79 L11.87,18.79 L11.87,17.13 L12.58,17.13 L13.52,18.79 L14.11,18.79 L13.09,17.03 L13.09,17 C13.55,16.84 13.83,16.54 13.83,15.98 C13.83,15.24 13.38,14.86 12.51,14.86 Z M14.63,14.86 L14.63,18.79 L16.99,18.79 L16.99,18.35 L15.15,18.35 L15.15,16.98 L16.56,16.98 L16.56,16.54 L15.15,16.54 L15.15,15.3 L16.98,15.3 L16.98,14.86 Z M20.16,14.86 L20.16,15.3 L21.32,15.3 L21.32,18.79 L21.84,18.79 L21.84,15.3 L23,15.3 L23,14.86 Z M11.87,15.3 L12.47,15.3 C13.04,15.3 13.28,15.49 13.28,15.99 C13.28,16.49 13.05,16.72 12.48,16.72 L11.87,16.72 Z" fill="none" stroke="currentColor" stroke-width="1.5"/></svg>