<svg xmlns="http://www.w3.org/2000/svg" viewBox="0 0 16.4 11.24" width="24" height="24"><path d="M2.93,11.24 C1.28,11.24 0,9.91 0,8.31 L0,2.85 C0,1.29 1.39,0 2.88,0 L13.48,0 C15.25,0 16.4,1.5 16.4,2.88 L16.4,8.32 C16.4,10.1 14.87,11.24 13.58,11.24 Z" fill="none" stroke="currentColor" stroke-width="1.5"/><path d="M10.8,6.51 C11.14,6.5 11.36,6.33 11.49,6.03 C11.6,5.71 11.61,5.37 11.46,5.01 C11.37,4.84 11.18,4.59 10.78,4.61 C10.39,4.66 10.17,4.93 10.11,5.28 L10.11,5.85 C10.11,6.12 10.38,6.51 10.8,6.51 Z M9.65,6.81 L9.65,3.14 L10.11,3.14 L10.11,4.73 C10.23,4.49 10.53,4.26 10.91,4.25 C11.38,4.24 11.68,4.47 11.86,4.8 C12.09,5.26 12.07,5.75 11.91,6.17 C11.76,6.5 11.49,6.82 10.94,6.87 C10.45,6.87 10.21,6.66 10.05,6.37 L10.03,6.81 Z M7.94,6.81 L7.94,4.3 L8.33,4.3 L8.34,4.82 C8.54,4.35 8.86,4.22 9.18,4.26 L9.18,4.7 C9.03,4.65 8.86,4.66 8.69,4.79 C8.51,4.92 8.42,5.15 8.4,5.36 L8.4,6.81 Z M6.11,6.81 L5.16,4.3 L5.65,4.3 L6.35,6.32 L7.04,4.3 L7.53,4.3 L6.54,6.81 Z M4.6,6.87 C4.45,6.87 4.29,6.75 4.29,6.55 C4.29,6.28 4.5,6.21 4.6,6.21 C4.77,6.21 4.9,6.35 4.9,6.55 C4.9,6.76 4.72,6.87 4.6,6.87 Z" fill="none" stroke="currentColor" stroke-width="1.5"/></svg>