<svg xmlns="http://www.w3.org/2000/svg" viewBox="0 0 34.02 34.02" width="24" height="24"><path d="M0,34.02 L34.02,34.02 L34.02,0 L0,0 Z" fill="none" stroke="currentColor" stroke-width="1.5"/><path d="M7.42,5.22 L7.42,12.04 L26.57,12.04 L26.57,5.22 Z M9.8,7.1 L9.8,7.1 C10.12,7.1 10.51,7.19 10.79,7.33 L10.48,7.86 C10.18,7.71 10.02,7.7 9.85,7.69 C9.59,7.67 9.46,7.77 9.45,7.87 C9.45,7.99 9.7,8.1 9.94,8.18 C10.29,8.29 10.74,8.44 10.81,8.88 L11.46,7.15 L12.22,7.15 L12.98,9.22 L12.98,7.15 L13.85,7.15 C14.68,7.15 15.08,7.44 15.08,8.09 C15.08,8.67 14.67,9.02 13.99,9.02 L13.71,9.02 L13.71,9.85 L12.42,9.85 L12.29,9.45 C12.16,9.5 12,9.52 11.84,9.52 C11.67,9.52 11.51,9.5 11.37,9.45 L11.24,9.85 L10.45,9.85 L10.53,9.62 L10.5,9.65 C10.3,9.81 10.06,9.89 9.75,9.9 L9.71,9.9 C9.35,9.9 9.01,9.8 8.72,9.64 L8.99,9.1 C9.28,9.28 9.46,9.31 9.71,9.31 C9.84,9.31 9.93,9.28 9.99,9.22 C10.03,9.18 10.05,9.14 10.05,9.09 C10.05,8.95 9.85,8.88 9.61,8.81 C9.41,8.75 9.19,8.66 9.02,8.53 C8.81,8.38 8.71,8.19 8.72,7.93 C8.72,7.73 8.79,7.56 8.93,7.42 C9.12,7.22 9.43,7.1 9.8,7.1 Z M16.05,7.19 L16.53,7.19 L16.53,8.24 L17.58,8.24 L17.58,7.19 L18.07,7.19 L18.07,9.85 L17.58,9.85 L17.58,8.68 L16.53,8.68 L16.53,9.85 L16.05,9.85 Z M19.16,7.19 L19.66,7.19 L20.57,9.85 L20.06,9.85 L19.79,9.06 L19.01,9.06 L18.75,9.85 L18.25,9.85 Z M20.75,7.19 L21.23,7.19 L22.05,8.49 C22.16,8.66 22.26,8.82 22.34,8.98 C22.33,8.77 22.33,8.55 22.33,8.31 L22.33,7.19 L22.79,7.19 L22.79,9.85 L22.34,9.85 L21.52,8.54 C21.39,8.34 21.29,8.16 21.2,8 C21.21,8.21 21.21,8.43 21.21,8.7 L21.21,9.85 L20.75,9.85 Z M23.88,7.19 L24.39,7.19 L25.3,9.85 L24.78,9.85 L24.52,9.06 L23.74,9.06 L23.48,9.85 L22.98,9.85 Z M13.71,7.72 L13.71,8.42 L13.9,8.42 C14.16,8.42 14.36,8.33 14.36,8.06 C14.36,7.8 14.16,7.72 13.9,7.72 Z M19.4,7.84 C19.38,7.91 19.36,7.97 19.34,8.03 L19.13,8.65 L19.67,8.65 L19.46,8.03 C19.44,7.97 19.42,7.91 19.4,7.84 Z M24.12,7.84 C24.11,7.91 24.09,7.97 24.07,8.03 L23.86,8.65 L24.39,8.65 L24.18,8.03 C24.16,7.97 24.14,7.91 24.12,7.84 Z M11.83,8 L11.56,8.87 C11.64,8.9 11.74,8.92 11.84,8.92 C11.94,8.92 12.03,8.9 12.11,8.87 L11.84,8 Z M7.42,13.6 L7.42,20.42 L26.57,20.42 L26.57,17.39 L19.9,17.39 L19.9,16.64 L26.57,16.64 L26.57,13.6 Z M7.42,21.99 L7.42,28.81 L26.57,28.81 L26.57,25.77 L19.9,25.77 L19.9,25.02 L26.57,25.02 L26.57,21.99 Z" fill="none" stroke="currentColor" stroke-width="1.5"/></svg>