<svg xmlns="http://www.w3.org/2000/svg" viewBox="0 0 33.91 33.91" width="24" height="24"><path d="M33.91,33.91 L33.91,0 L0,0 L0,33.91 Z" fill="none" stroke="currentColor" stroke-width="1.5"/><path d="M17.15,6.46 C13.58,6.46 10.3,8.28 8.39,11.17 L6.64,10.35 L7.03,14.93 L10.8,12.3 L9.08,11.49 C10.86,8.87 13.86,7.21 17.15,7.21 C22.52,7.21 26.89,11.58 26.89,16.95 C26.89,22.33 22.52,26.7 17.15,26.7 C14.44,26.7 11.92,25.62 10.06,23.65 L9.52,24.17 C11.52,26.29 14.23,27.45 17.15,27.45 C22.94,27.45 27.64,22.74 27.64,16.95 C27.64,11.17 22.94,6.46 17.15,6.46 Z M16.55,9.48 L16.53,17.37 L24.15,17.37 L24.15,16.62 L17.28,16.62 L17.3,9.48 Z" fill="none" stroke="currentColor" stroke-width="1.5"/></svg>