<svg xmlns="http://www.w3.org/2000/svg" viewBox="0 0 22.5 22.5" width="24" height="24"><path d="M0,22.5 L0,0 L22.5,0 L22.5,22.5 Z" fill="none" stroke="currentColor" stroke-width="1.5"/><path d="M17.9,11.88 C18.62,11.88 19.12,11.31 19.12,10.7 C19.12,9.96 18.55,9.47 17.92,9.47 C17.13,9.47 16.71,10.15 16.71,10.61 C16.71,11.5 17.41,11.88 17.9,11.88 Z M14.42,14.31 C14.22,14.12 14.02,13.93 13.87,13.68 L10.45,17.1 C10.3,17.24 10.33,17.51 10.48,17.67 C10.6,17.78 10.86,17.86 11.03,17.69 Z M11.16,18.98 C10.81,19.28 10.02,19.25 9.48,18.76 C9.08,18.38 8.96,17.61 9.43,17.08 L13.52,12.99 C13.39,12.67 13.28,12.2 13.28,11.81 C13.28,10.08 14.49,8.35 16.76,8.27 C18.69,8.27 20.23,9.83 20.23,11.8 C20.23,13.49 18.86,15.22 16.69,15.22 C16.18,15.22 15.68,15.07 15.29,14.89 L14.78,15.39 L14.83,16.43 C14.83,16.57 14.74,16.64 14.58,16.64 L13.85,16.62 C13.7,16.62 13.6,16.71 13.6,16.81 L13.6,17.62 C13.6,17.71 13.53,17.81 13.38,17.81 L12.64,17.81 C12.51,17.81 12.41,17.87 12.4,18.02 L12.41,18.8 C12.41,18.93 12.35,19.03 12.23,19.03 Z" fill="none" stroke="currentColor" stroke-width="1.5"/><path d="M8.99,5.03 C8.97,4.67 8.99,4.43 9.07,4.04 C8.4,4.1 7.66,4.4 7.05,5.04 C6.34,5.81 6.28,6.8 6.53,7.67 C6.83,6.19 7.72,5.32 8.99,5.03 Z M9.16,10.47 C7.21,10.47 5.62,8.8 5.62,6.85 C5.62,4.82 7.32,3.29 9.17,3.29 C11.16,3.29 12.8,4.8 12.8,6.91 C12.8,8.68 11.37,10.47 9.16,10.47 Z M8.58,17.78 L2.27,17.78 C2.66,14.86 4.02,12.03 6.36,10.5 L9.22,13.36 L12.24,10.33 C12.46,10.46 12.67,10.6 12.86,10.74 C12.65,11.5 12.71,12.2 12.88,12.84 L9.03,16.68 C8.77,16.98 8.61,17.34 8.58,17.78 Z M16.62,17.78 L14.14,17.78 C14.15,17.74 14.15,17.69 14.15,17.64 L14.15,17.19 L14.58,17.2 C15.1,17.2 15.39,16.8 15.39,16.49 L15.35,15.6 L15.41,15.54 C15.7,15.65 15.94,15.7 16.16,15.73 C16.38,16.43 16.51,17.11 16.62,17.78 Z" fill="none" stroke="currentColor" stroke-width="1.5"/></svg>