<svg xmlns="http://www.w3.org/2000/svg" viewBox="0 0 29.85 26.43" width="24" height="24"><path d="M0,22.5 L0,0 L22.5,0 L22.51,22.49 Z" fill="none" stroke="currentColor" stroke-width="1.5"/><rect x="0" y="0" width="0" height="0" fill="none" stroke="currentColor"/><path d="M17.7,14.55 L18.75,14.55 L18.75,14.01 L17.7,14.01 Z M16.07,14.55 L17.12,14.55 L17.12,14.01 L16.07,14.01 Z M14.44,14.55 L15.49,14.55 L15.49,14.01 L14.44,14.01 Z M12.81,14.55 L13.86,14.55 L13.86,14.01 L12.81,14.01 Z M11.17,14.55 L12.23,14.55 L12.23,14.01 L11.17,14.01 Z M9.54,14.55 L10.59,14.55 L10.59,14.01 L9.54,14.01 Z M2.78,16.04 L2.78,4.21 L3.26,4.21 L3.26,6.36 L19.72,6.35 L19.72,15.02 L8.4,15.02 L8.4,13.93 L4.92,13.93 L4.92,15.02 L3.26,15.02 L3.26,16.04 Z M4.96,12.15 L8.49,12.15 L8.49,8.13 L4.95,8.13 Z M12.02,12.11 L16.27,12.11 L16.27,8.17 L12.02,8.17 Z M12.92,11.46 L12.92,8.82 L15.37,8.82 L15.38,11.45 Z" fill="none" stroke="currentColor" stroke-width="1.5"/><path d="M21.19,25.7 L21.5,23.59 L21.38,23.46 L19.3,23.75 L18.63,22.11 L20.37,20.82 L20.37,20.68 L18.68,19.4 L19.36,17.76 L21.5,18.08 L21.6,17.98 L21.31,15.88 L22.96,15.21 L24.22,16.92 L24.4,16.92 L25.67,15.25 L27.3,15.94 L26.99,18.01 L27.14,18.16 L29.19,17.88 L29.85,19.53 L28.19,20.76 L28.19,21.01 L29.81,22.24 L29.12,23.87 L27.08,23.57 L26.9,23.74 L27.17,25.76 L25.53,26.43 L24.29,24.75 L24.07,24.74 L22.82,26.38 Z" fill="none" stroke="currentColor" stroke-width="1.5"/><path d="M24.25,22.95 C22.89,22.95 22.11,21.78 22.11,20.85 C22.11,19.45 23.26,18.68 24.19,18.68 C25.46,18.68 26.38,19.66 26.38,20.87 C26.38,21.9 25.49,22.95 24.25,22.95 Z" fill="none" stroke="currentColor" stroke-width="1.5"/></svg>