<svg xmlns="http://www.w3.org/2000/svg" viewBox="0 0 28.35 28.49" width="24" height="24"><path d="M24.45,16.17 C24.82,14.22 26.45,12.83 28.35,12.66 C28.23,11.62 28.01,10.58 27.64,9.56 C27.28,8.53 26.81,7.58 26.25,6.7 C24.65,7.74 22.51,7.67 20.99,6.37 C19.47,5.08 19.09,2.99 19.88,1.27 C17.93,0.42 15.81,0 13.63,0.08 C13.74,1.97 12.61,3.79 10.72,4.45 C8.83,5.1 6.8,4.39 5.7,2.84 C3.95,4.12 2.56,5.77 1.57,7.63 C3.26,8.49 4.28,10.36 3.9,12.31 C3.53,14.27 1.9,15.65 0,15.83 C0.12,16.86 0.34,17.9 0.7,18.93 C1.07,19.95 1.54,20.9 2.1,21.78 C3.7,20.75 5.84,20.81 7.36,22.11 C8.87,23.4 9.26,25.5 8.47,27.22 C10.42,28.06 12.54,28.49 14.72,28.4 C14.6,26.51 15.74,24.69 17.63,24.04 C19.52,23.38 21.55,24.1 22.65,25.64 C24.4,24.36 25.79,22.71 26.78,20.85 C25.09,19.99 24.07,18.12 24.45,16.17 Z M16.32,20.32 C12.94,21.49 9.24,19.72 8.05,16.37 C6.87,13.01 8.65,9.34 12.03,8.16 C15.41,6.99 19.11,8.76 20.29,12.11 C21.48,15.47 19.7,19.14 16.32,20.32 Z" fill="none" stroke="currentColor" stroke-width="1.5"/></svg>