<svg xmlns="http://www.w3.org/2000/svg" viewBox="0 0 39.7 51.8" width="24" height="24"><path d="M39.7,40.5 L6,40.5 C2.8,40.5 0,43.2 0,46.3 L0,51.8 L39.7,51.8 Z" fill="none" stroke="currentColor" stroke-width="1.5"/><path d="M39.7,0 L5.7,0 L5.7,34 L19.8,34 L22.6,38.6 L25.6,34 L39.7,34 Z" fill="none" stroke="currentColor" stroke-width="1.5"/><path d="M11.2,8.7 C11,8.7 10.8,8.8 10.7,9 C10.6,9.2 10.7,9.4 10.9,9.5 C11.8,10.3 12.7,11 13.6,11.8 L19.3,16.6 C19.6,16.8 19.6,17.1 19.3,17.3 C18.5,18 17.6,18.7 16.8,19.4 C15.7,20.4 14.6,21.3 13.5,22.2 C12.6,22.9 11.8,23.6 10.9,24.3 C10.7,24.4 10.5,24.6 10.6,24.9 C10.7,25.2 11,25.2 11.2,25.2 L13.4,25.2 L15.7,25.2 C15.9,25.2 16.1,25.2 16.3,25 C16.7,24.7 17.1,24.4 17.5,24 C18.3,23.2 19.2,22.5 20.1,21.7 C21.1,20.9 22.1,20 23.1,19.2 C23.8,18.5 24.6,17.9 25.3,17.3 C25.5,17.2 25.5,17 25.3,16.8 L25,16.5 C24.3,16 23.6,15.4 22.9,14.8 C21.8,13.8 20.6,12.9 19.5,11.9 C18.4,10.9 17.3,10 16.2,9.1 C16.1,8.9 15.9,8.7 15.6,8.7 Z M32.1,8.7 C31.4,8.7 30.7,8.7 29.9,8.9 C29.7,8.9 29.6,9 29.4,9.1 C27.7,10.5 26.1,11.8 24.4,13.2 C24,13.5 24,13.7 24.4,14 L24.5,14.1 C25.2,14.6 25.8,15.1 26.4,15.7 C26.6,15.9 26.9,15.9 27.1,15.7 C27.5,15.4 27.8,15.1 28.2,14.8 C29.3,13.8 30.4,12.8 31.6,11.9 C32.6,11.1 33.5,10.3 34.5,9.5 C34.7,9.4 34.8,9.2 34.7,9 C34.6,8.7 34.4,8.7 34.2,8.7 Z M26.7,18.11 C26.57,18.13 26.45,18.2 26.3,18.3 C25.8,18.8 25.2,19.3 24.7,19.7 C24,20.3 24.1,20.5 24.7,21 C26.1,22.2 27.6,23.4 29,24.6 C29.4,25 29.9,25.3 30.5,25.2 L32.1,25.2 C32.8,25.2 33.6,25.2 34.3,25.1 C34.5,25.1 34.7,25.1 34.8,24.9 C34.9,24.7 34.8,24.5 34.6,24.4 C32.1,22.3 29.6,20.3 27.1,18.3 C26.95,18.15 26.82,18.1 26.7,18.11 Z M6.99,44.7 C6.9,44.69 6.8,44.69 6.7,44.7 C5.9,44.7 5.2,45.3 5.2,46.2 C5.2,47 5.8,47.7 6.7,47.7 C7.5,47.7 8.2,47.1 8.2,46.2 C8.2,45.41 7.66,44.78 6.99,44.7 Z M12.6,45.8 L12.6,46.6 L33.9,46.6 L33.9,45.8 Z" fill="none" stroke="currentColor" stroke-width="1.5"/></svg>