<svg xmlns="http://www.w3.org/2000/svg" viewBox="0 0 39.7 51.8" width="24" height="24"><path d="M39.7,40.5 L6,40.5 C2.8,40.5 0,43.2 0,46.3 L0,51.8 L39.7,51.8 Z" fill="none" stroke="currentColor" stroke-width="1.5"/><path d="M39.7,0 L5.6,0 L5.6,34 L19.7,34 L22.6,38.5 L25.6,34 L39.7,34 Z" fill="none" stroke="currentColor" stroke-width="1.5"/><path d="M23.8,6.6 L11.7,8.8 L11.7,25.1 L23.8,27.3 Z M26.2,9.3 C25.7,9.3 25.3,9.5 24.9,9.8 L24.9,13 C25.2,13.3 25.7,13.5 26.2,13.5 C26.9,13.5 27.6,13.2 27.9,12.6 C29,13.1 29.8,14.1 30.2,15.2 C29.7,15.6 29.4,16.2 29.4,16.8 C29.4,17.5 29.7,18.1 30.2,18.4 C29.8,19.6 28.9,20.5 27.8,21.1 C27.4,20.5 26.8,20.2 26.1,20.2 C25.6,20.2 25.2,20.4 24.8,20.7 L24.8,23.9 C25.1,24.2 25.6,24.4 26.1,24.4 C27.3,24.4 28.2,23.5 28.2,22.3 L28.2,22 C29.5,21.4 30.6,20.3 31.1,18.9 L31.5,18.9 C32.7,18.9 33.6,18 33.6,16.8 C33.7,15.7 32.7,14.8 31.6,14.8 L31.2,14.8 C30.7,13.4 29.6,12.3 28.3,11.7 L28.3,11.4 C28.3,10.2 27.4,9.3 26.2,9.3 Z M17.6,12.84 C18.08,12.83 18.55,12.9 19,13 L19,14.7 C18.2,14.5 17.2,14 16.6,14.7 C16.1,15.9 17.6,16.3 18.3,16.9 C19.6,17.8 19.7,20 18.5,21 C17.5,21.7 16.2,21.4 15.2,21 L15.2,19.2 C15.9,19.7 16.9,20.4 17.6,19.8 C18.2,18.8 17,18.1 16.3,17.6 C14.8,16.7 14.7,14.2 16.2,13.2 C16.65,12.95 17.13,12.85 17.6,12.84 Z M6.7,44.6 C5.9,44.6 5.2,45.2 5.2,46.1 C5.2,46.9 5.8,47.6 6.7,47.6 C7.5,47.6 8.2,47 8.2,46.1 C8.2,45.3 7.5,44.6 6.7,44.6 Z M12.6,45.8 L12.6,46.6 L33.9,46.6 L33.9,45.8 Z" fill="none" stroke="currentColor" stroke-width="1.5"/></svg>