<svg xmlns="http://www.w3.org/2000/svg" viewBox="0 0 100.33 49.35" width="24" height="24"><path d="M0,34.31 L0,6.06 L23.03,6.12 C25.72,4.1 30.74,1.15 38.18,0.2 C45.71,0 48.93,2.53 52.27,3.96 C60.65,7.64 71.18,11.39 82.85,13.33 C84.48,13.66 87.46,15.3 87.5,17.54 C87.59,19.43 86.05,21.06 80.7,23.04 C75.41,23.88 64.63,23.18 56.29,19.97 C60.35,22.89 68.91,27.12 77.84,26.52 C84.49,25.94 89.4,21.75 92.42,17.21 C93.19,16.04 97.1,14.45 99.08,15.93 C100.33,17.21 99.88,20.08 99.6,21.65 C97.19,31.01 93.28,37.45 86.92,40.41 C82.65,42.61 78.28,44.61 70.17,46.91 C62.53,49.35 55.89,47.71 49.72,44.51 C45.85,42.61 40.55,38.75 37.02,35.42 C33.91,31.95 29.15,30.98 19.92,31.25 C13.58,31.63 6.58,32.73 0,34.31 Z" fill="none" stroke="currentColor" stroke-width="1.5"/></svg>