<svg xmlns="http://www.w3.org/2000/svg" viewBox="0 0 39.7 51.8" width="24" height="24"><path d="M39.7,0 L5.7,0 L5.7,34 L19.7,34 L22.6,38.6 L25.6,34 L39.7,34 Z" fill="none" stroke="currentColor" stroke-width="1.5"/><rect x="0" y="0" width="0" height="0" fill="none" stroke="currentColor"/><path d="M39.7,40.5 L6,40.5 C2.8,40.5 0,43.2 0,46.3 L0,51.8 L39.7,51.8 Z" fill="none" stroke="currentColor" stroke-width="1.5"/><path d="M21.6,4.5 L21.2,4.6 C17.4,5.8 15.7,6.9 15.9,7.7 L15.9,7.78 L15.8,7.9 C15.9,7.9 20.4,11.4 18.7,15 C18.7,15 18.2,17 15.3,19.8 L15.34,19.84 C15.12,20.02 12.89,21.58 12.31,23.2 C12.31,23.2 12.3,23.2 12.3,23.2 L12.3,23.21 C12.26,23.34 12.22,23.47 12.2,23.6 C12.1,24.1 12.2,24.5 12.5,24.9 C12.7,25.4 14.2,27.8 22.9,28.8 L23.1,28.8 L23.5,28.7 C23.6,28.5 26.8,23.3 25.8,16.6 C30.6,15.1 34,14.7 34.1,14.7 L34.7,14.6 L34.4,14.1 C32.2,10.6 26.4,9.2 23.3,8.7 C22.4,8.1 21.9,5.8 21.7,4.9 Z M20.8,5.4 C20.9,6.1 21.3,7.5 21.9,8.5 C21.3,8.4 20.9,8.4 20.8,8.4 C18.1,7.9 17,7.5 16.5,7.3 C17,6.9 18.8,6.1 20.8,5.4 Z M17.51,8.43 C18.25,8.65 19.26,8.91 20.9,9.2 C20.91,9.2 21.14,9.22 21.47,9.26 C21.6,9.53 21.77,9.95 21.91,10.49 C20.18,10 18.82,9.8 18.7,9.8 L18.69,9.86 C18.31,9.3 17.89,8.83 17.51,8.43 Z M22.09,9.33 C22.69,9.41 23.45,9.53 24.36,9.72 C23.84,9.89 23.21,10.11 22.45,10.43 C22.34,9.98 22.21,9.63 22.09,9.33 Z M25.33,9.94 C25.53,9.98 25.7,10.01 25.9,10.06 C26.06,10.44 26.23,11.12 26.04,12.1 C26.03,12.1 26.02,12.1 26.01,12.11 C24.97,11.54 23.88,11.11 22.85,10.77 C24.16,10.24 25.11,9.97 25.33,9.94 Z M26.47,10.22 C27.51,10.52 28.58,10.89 29.6,11.36 C28.58,11.41 27.55,11.61 26.54,11.92 C26.65,11.2 26.58,10.64 26.47,10.22 Z M19.01,10.37 C19.39,10.43 20.14,10.56 21.4,10.9 C20.81,11.17 20.22,11.49 19.65,11.83 C19.49,11.31 19.28,10.82 19.01,10.37 Z M22.06,11.12 C22.18,11.82 22.23,12.66 22.09,13.58 C21.07,12.92 20.18,12.83 19.84,12.82 C19.83,12.65 19.81,12.49 19.78,12.33 C20.51,11.86 21.29,11.46 22.06,11.12 Z M22.61,11.26 C23.5,11.55 24.43,11.9 25.33,12.35 C24.37,12.73 23.45,13.18 22.61,13.66 C22.74,12.78 22.72,11.97 22.61,11.26 Z M29.82,11.86 C29.98,11.86 30.15,11.86 30.31,11.86 C30.31,12.43 30.19,13.6 29.49,14.71 C29.4,14.73 29.31,14.74 29.22,14.77 C28.56,13.85 27.66,13.09 26.64,12.47 C27.7,12.13 28.77,11.9 29.82,11.86 Z M30.82,12 C31.76,12.56 32.59,13.21 33.2,14 C32.59,14.08 31.53,14.26 30.18,14.55 C30.73,13.54 30.82,12.6 30.82,12 Z M25.88,12.74 C25.6,13.63 25.03,14.7 23.99,15.95 C23.68,15.19 23.27,14.62 22.83,14.18 C23.78,13.65 24.81,13.15 25.88,12.74 Z M26.32,12.89 C27.24,13.44 28.06,14.11 28.68,14.89 C27.46,15.18 26.05,15.58 24.54,16.05 C25.49,14.86 26.04,13.79 26.32,12.89 Z M19.86,13.32 C20.22,13.34 21.01,13.44 21.89,14.07 C20.79,14.72 19.84,15.38 19.14,15.92 C19.33,15.5 19.4,15.27 19.4,15.3 C19.73,14.62 19.86,13.96 19.86,13.32 Z M22.42,14.52 C22.87,14.96 23.27,15.56 23.58,16.37 C22.79,16.63 21.99,16.91 21.16,17.23 C21.79,16.3 22.19,15.39 22.42,14.52 Z M21.8,14.8 C21.51,15.69 21.01,16.63 20.25,17.59 C19.2,18.01 18.13,18.47 17.04,18.99 C17.65,18.28 18.11,17.66 18.45,17.13 C18.86,16.82 20,15.92 21.8,14.8 Z M24.8,16.6 C24.89,17.23 24.93,17.85 24.95,18.46 C24.41,19.16 23.45,19.79 22.29,20.34 C22.56,18.87 22.5,17.82 22.44,17.41 C23.24,17.12 24.03,16.85 24.8,16.6 Z M21.92,17.61 C21.95,18.08 21.96,19.06 21.72,20.35 C20.61,19.5 20.22,18.73 20.08,18.32 C20.18,18.28 20.29,18.23 20.39,18.19 L20.4,18.2 C20.4,18.19 20.41,18.19 20.41,18.18 C20.93,17.98 21.42,17.8 21.92,17.61 Z M19.63,18.52 C19.81,19.02 20.28,19.85 21.43,20.73 C20.29,21.21 19.03,21.62 17.82,21.97 C18.94,20.22 19.32,19.06 19.39,18.62 C19.47,18.58 19.55,18.55 19.63,18.52 Z M18.73,18.9 C18.52,19.49 18.06,20.53 17.16,21.91 C16.69,20.98 16.83,20.11 16.93,19.72 C17.53,19.43 18.13,19.16 18.73,18.9 Z M24.96,19.19 C24.95,20.15 24.86,21.07 24.73,21.92 L24.7,21.9 C24.7,21.9 24.69,21.91 24.69,21.91 C23.76,21.56 23.01,21.19 22.41,20.82 C23.44,20.33 24.33,19.79 24.96,19.19 Z M16.28,20.02 C16.22,20.57 16.26,21.37 16.7,22.2 C16.71,22.22 16.72,22.23 16.73,22.25 C14.96,22.7 13.78,22.93 13.08,23.06 C13.6,21.91 15.1,20.73 15.7,20.3 C15.72,20.29 15.74,20.28 15.77,20.27 L15.8,20.3 C15.83,20.27 15.85,20.24 15.88,20.21 C16.02,20.15 16.15,20.09 16.28,20.02 Z M22.11,21.19 C22.69,21.56 23.44,21.93 24.32,22.28 C23.7,22.77 22.47,23.41 21.02,24.07 C21.54,23.05 21.89,22.07 22.11,21.19 Z M21.53,21.2 C21.29,22.16 20.89,23.23 20.28,24.35 C19.06,23.84 18.15,23.23 17.56,22.52 C18.88,22.16 20.26,21.73 21.53,21.2 Z M24.58,22.72 C24.38,23.7 24.14,24.59 23.88,25.34 C22.81,25.15 21.88,24.91 21.04,24.62 C22.5,23.96 23.85,23.28 24.58,22.72 Z M16.58,22.78 C16,23.6 15.26,24.52 14.34,25.53 C13.44,24.95 13.2,24.5 13.2,24.5 L13.1,24.4 C12.9,24.2 12.9,23.9 12.9,23.6 C13.45,23.49 14.73,23.25 16.58,22.78 Z M17.19,22.9 C17.77,23.59 18.62,24.16 19.71,24.64 C18.35,25.22 16.98,25.78 15.73,26.25 C15.37,26.1 15.04,25.95 14.77,25.8 C15.77,24.73 16.56,23.76 17.19,22.9 Z M20.54,24.97 C21.46,25.29 22.52,25.55 23.73,25.75 C23.34,26.8 22.97,27.56 22.8,27.9 C21.26,27.72 19.98,27.49 18.89,27.24 C19.55,26.48 20.1,25.72 20.54,24.97 Z M19.78,25.18 C19.38,25.82 18.91,26.46 18.34,27.11 C17.62,26.93 17.01,26.73 16.47,26.54 C17.34,26.2 18.45,25.75 19.78,25.18 Z M6.99,44.7 C6.9,44.69 6.8,44.69 6.7,44.7 C5.9,44.7 5.2,45.3 5.2,46.2 C5.2,47 5.8,47.7 6.7,47.7 C7.5,47.7 8.2,47.1 8.2,46.2 C8.2,45.41 7.66,44.78 6.99,44.7 Z M12.6,45.8 L12.6,46.6 L33.9,46.6 L33.9,45.8 Z" fill="none" stroke="currentColor" stroke-width="1.5"/></svg>