<svg xmlns="http://www.w3.org/2000/svg" viewBox="0 0 42.8 14.6" width="24" height="24"><path d="M4.6,0 L4.6,3.3 L0,3.3 L0,14.6 L39.7,14.6 L39.7,11.4 L42.8,11.4 L42.8,0 Z M6.1,1.5 L41.3,1.5 L41.3,9.9 L39.7,9.9 L39.7,3.3 L6.1,3.3 Z" fill="none" stroke="currentColor" stroke-width="1.5"/><path d="M3.7,5.4 L3.7,12.4 L7.2,12.4 L7.2,5.4 Z M9.4,5.4 L9.4,12.4 L12.9,12.4 L12.9,5.4 Z M15.2,5.4 L15.2,12.4 L18.7,12.4 L18.7,5.4 Z M21,5.4 L21,12.4 L24.5,12.4 L24.5,5.4 Z M26.7,5.4 L26.7,12.4 L30.2,12.4 L30.2,5.4 Z M32.5,5.4 L32.5,12.4 L36,12.4 L36,5.4 Z M4.4,6.2 L6.4,6.2 L6.4,11.7 L4.4,11.7 Z M10.2,6.2 L12.2,6.2 L12.2,11.7 L10.2,11.7 Z M15.9,6.2 L17.9,6.2 L17.9,11.7 L15.9,11.7 Z M21.7,6.2 L23.7,6.2 L23.7,11.7 L21.7,11.7 Z M27.5,6.2 L29.5,6.2 L29.5,11.7 L27.5,11.7 Z M33.2,6.2 L35.2,6.2 L35.2,11.7 L33.2,11.7 Z" fill="none" stroke="currentColor" stroke-width="1.5"/></svg>