<svg xmlns="http://www.w3.org/2000/svg" viewBox="0 0 34.02 34.02" width="24" height="24"><path d="M0,34.02 L34.02,34.02 L34.02,0 L0,0 Z" fill="none" stroke="currentColor" stroke-width="1.5"/><path d="M17.01,4.68 L4.68,17.01 L17.01,29.34 L20.22,26.12 C20.04,25.95 19.87,25.77 19.72,25.57 L17.01,28.28 L11.41,22.68 L18.89,22.68 C19.08,20.69 20.68,19.13 22.68,18.98 L22.68,11.41 L28.27,17.01 L25.47,19.81 C25.67,19.96 25.86,20.13 26.02,20.31 L29.33,17.01 Z M17.01,5.74 L22.61,11.34 L11.41,11.34 Z M11.34,11.41 L11.34,22.6 L5.74,17.01 Z M12.93,15.09 L13.8,15.09 L14.74,17.91 L14.75,17.91 L15.68,15.09 L16.47,15.09 L15.13,18.93 L14.27,18.93 Z M17.07,15.09 L18.23,15.09 L19.07,17.75 L19.1,17.75 L19.93,15.09 L21.08,15.09 L21.08,18.93 L20.24,18.93 L20.24,16.11 L20.23,16.11 L19.33,18.93 L18.69,18.93 L17.81,16.11 L17.79,16.11 L17.79,18.93 L17.07,18.93 Z M22.98,19.72 C21.13,19.72 19.62,21.23 19.62,23.08 C19.62,24.94 21.13,26.45 22.98,26.45 C24.84,26.45 26.35,24.94 26.35,23.08 C26.35,21.23 24.84,19.72 22.98,19.72 Z M24.72,21.77 L25.26,22.3 L22.63,24.96 L20.71,23.04 L21.24,22.51 L22.63,23.9 Z" fill="none" stroke="currentColor" stroke-width="1.5"/></svg>