<svg xmlns="http://www.w3.org/2000/svg" viewBox="0 0 22.5 22.5" width="24" height="24"><path d="M0,22.5 L0,0 L22.5,0 L22.5,22.5 Z" fill="none" stroke="currentColor" stroke-width="1.5"/><path d="M3.06,14.52 L5.89,14.52 L5.89,12.8 L3.06,12.8 Z M3.06,16.89 L5.89,16.89 L5.89,16.44 L3.06,16.44 Z M3.06,17.9 L5.89,17.9 L5.89,17.45 L3.06,17.45 Z M2.65,18.9 C2.45,18.9 2.18,18.72 2.18,18.44 L2.18,12.26 C2.18,11.95 2.42,11.77 2.65,11.77 L6.29,11.77 C6.58,11.77 6.78,12.01 6.78,12.25 L6.78,18.44 C6.77,18.74 6.57,18.9 6.29,18.9 Z" fill="none" stroke="currentColor" stroke-width="1.5"/><path d="M8.34,14.52 L11.18,14.52 L11.18,12.8 L8.34,12.8 Z M8.34,16.89 L11.18,16.89 L11.18,16.44 L8.34,16.44 Z M8.34,17.91 L11.18,17.91 L11.18,17.45 L8.34,17.45 Z M7.94,18.9 C7.73,18.9 7.47,18.73 7.47,18.44 L7.46,12.27 C7.46,11.95 7.71,11.77 7.94,11.77 L11.57,11.77 C11.86,11.77 12.06,12.01 12.06,12.25 L12.06,18.44 C12.05,18.74 11.86,18.9 11.57,18.9 Z" fill="none" stroke="currentColor" stroke-width="1.5"/><path d="M13.63,14.51 L16.47,14.51 L16.47,12.79 L13.63,12.79 Z M13.63,16.88 L16.47,16.88 L16.47,16.43 L13.63,16.43 Z M13.63,17.9 L16.47,17.9 L16.47,17.44 L13.63,17.44 Z M13.23,18.9 C13.03,18.9 12.76,18.72 12.76,18.43 L12.75,12.26 C12.75,11.94 13,11.76 13.23,11.76 L16.86,11.77 C17.15,11.77 17.35,12 17.35,12.24 L17.35,18.43 C17.34,18.73 17.15,18.9 16.86,18.9 Z" fill="none" stroke="currentColor" stroke-width="1.5"/><rect x="0" y="0" width="0" height="0" fill="none" stroke="currentColor"/><path d="M17.55,19.19 L20.08,16.66 C20.39,17 20.44,17.48 20.11,17.84 L18.75,19.2 C18.43,19.5 17.92,19.56 17.55,19.19 Z M16.98,18.64 L15.34,17 C15.06,16.7 15.1,16.17 15.4,15.88 L16.8,14.48 C17.05,14.26 17.57,14.22 17.88,14.49 L19.51,16.1 Z M10.73,16.78 C7.29,16.78 3.96,13.89 3.96,9.87 C3.96,5.95 7.27,3.05 10.7,3.05 C15.07,3.05 17.69,6.55 17.69,9.94 C17.69,13.05 15.25,16.78 10.73,16.78 Z" fill="none" stroke="currentColor" stroke-width="1.5"/><rect x="0" y="0" width="0" height="0" fill="none" stroke="currentColor"/><path d="M10.77,15.5 C8.09,15.5 5.23,13.35 5.23,9.86 C5.23,6.98 7.66,4.32 10.79,4.32 C14.05,4.32 16.41,7.01 16.41,9.87 C16.41,12.99 13.99,15.5 10.77,15.5 Z" fill="none" stroke="currentColor" stroke-width="1.5"/><path d="M8.3,8.8 L11.14,8.8 L11.14,7.08 L8.3,7.08 Z M8.3,11.17 L11.14,11.17 L11.14,10.72 L8.3,10.72 Z M8.3,12.19 L11.14,12.19 L11.14,11.73 L8.3,11.73 Z M7.9,13.19 C7.7,13.19 7.43,13.01 7.43,12.72 L7.43,6.55 C7.43,6.23 7.67,6.05 7.9,6.05 L11.54,6.05 C11.82,6.05 12.03,6.29 12.03,6.53 L12.03,12.72 C12.02,13.02 11.82,13.19 11.54,13.19 Z" fill="none" stroke="currentColor" stroke-width="1.5"/><rect x="0" y="0" width="0" height="0" fill="none" stroke="currentColor"/><path d="M12.52,13.98 C11.37,13.98 10.27,12.98 10.27,11.76 C10.27,10.46 11.3,9.46 12.51,9.46 C13.95,9.46 14.79,10.65 14.79,11.72 C14.79,12.81 13.91,13.98 12.52,13.98 Z" fill="none" stroke="currentColor" stroke-width="1.5"/><rect x="0" y="0" width="0" height="0" fill="none" stroke="currentColor"/><path d="M12.36,12.7 L11.16,11.59 L11.58,11.16 L12.33,11.91 L13.51,10.75 L13.91,11.15 Z" fill="none" stroke="currentColor" stroke-width="1.5"/></svg>