<svg xmlns="http://www.w3.org/2000/svg" viewBox="0 0 39.69 51.8" width="24" height="24"><path d="M39.7,40.5 L6,40.5 C2.8,40.5 0,43.2 0,46.3 L0,51.8 L39.7,51.8 Z" fill="none" stroke="currentColor" stroke-width="1.5"/><path d="M39.7,0 L5.7,0 L5.7,34 L19.7,34 L22.6,38.6 L25.6,34 L39.7,34 Z" fill="none" stroke="currentColor" stroke-width="1.5"/><path d="M10.5,9.9 L10.5,24.1 L34.9,24.1 L34.9,9.9 Z M12,11.3 L33.1,11.3 L33.1,22.6 L12,22.6 Z M12.7,12.1 L12.7,21.9 L32.3,21.9 L32.3,12.1 Z M17.7,14 C19.4,14 20.7,15.4 20.7,17 C20.7,17.91 20.24,18.74 19.56,19.3 L25.7,19.3 C25.03,18.74 24.6,17.91 24.6,17 C24.6,15.4 26,14 27.6,14 C29.2,14 30.6,15.4 30.6,17 C30.6,18.6 29.2,20 27.6,20 L17.7,20 C16,20 14.7,18.6 14.7,17 C14.7,15.4 16.1,14 17.7,14 Z M17.7,14.7 C16.4,14.7 15.4,15.7 15.4,17 C15.4,18.3 16.4,19.3 17.7,19.3 C19,19.3 20,18.3 20,17 C20,15.7 18.9,14.7 17.7,14.7 Z M27.6,14.7 C26.3,14.7 25.3,15.7 25.3,17 C25.3,18.3 26.3,19.3 27.6,19.3 C28.9,19.3 29.9,18.3 29.9,17 C29.9,15.7 28.8,14.7 27.6,14.7 Z M12.6,46.6 L33.9,46.6 L33.9,45.8 L12.6,45.8 Z M8.2,46.2 C8.2,47.1 7.5,47.7 6.7,47.7 C5.8,47.7 5.2,47 5.2,46.2 C5.2,45.3 5.9,44.7 6.7,44.7 C7.5,44.7 8.2,45.3 8.2,46.2 Z" fill="none" stroke="currentColor" stroke-width="1.5"/></svg>