<svg xmlns="http://www.w3.org/2000/svg" viewBox="0 0 45.73 29.78" width="24" height="24"><path d="M0,22.44 L38.39,22.44 L38.39,0 L0,0 Z" fill="none" stroke="currentColor" stroke-width="1.5"/><path d="M45.48,22.44 C45.48,18.53 42.3,15.36 38.39,15.36 C34.48,15.36 31.3,18.53 31.3,22.44 C31.3,26.36 34.48,29.53 38.39,29.53 C42.3,29.53 45.48,26.36 45.48,22.44 Z" fill="none" stroke="currentColor" stroke-width="1.5"/><path d="M2.59,2.46 L2.59,19.87 L31.53,19.87 C31.22,20.67 31.05,21.53 31.05,22.44 C31.05,26.49 34.34,29.78 38.39,29.78 C42.43,29.78 45.73,26.49 45.73,22.44 C45.73,18.4 42.43,15.1 38.39,15.1 C37.3,15.1 36.27,15.34 35.34,15.77 L35.34,2.46 Z M3.34,3.21 L34.59,3.21 L34.59,16.17 C33.43,16.88 32.48,17.9 31.86,19.12 L3.34,19.12 Z M11.33,6.66 C8.81,6.66 6.77,8.71 6.77,11.22 C6.77,13.74 8.81,15.78 11.33,15.78 L26.93,15.78 L26.93,15.78 C29.45,15.78 31.49,13.74 31.49,11.22 C31.49,8.71 29.45,6.66 26.93,6.66 C24.42,6.66 22.37,8.71 22.37,11.22 C22.37,12.81 23.19,14.21 24.43,15.03 L13.83,15.03 C15.07,14.21 15.89,12.81 15.89,11.22 C15.89,8.71 13.84,6.66 11.33,6.66 Z M11.33,7.41 C13.43,7.41 15.14,9.12 15.14,11.22 C15.14,13.32 13.43,15.03 11.33,15.03 C9.23,15.03 7.52,13.32 7.52,11.22 C7.52,9.12 9.23,7.41 11.33,7.41 Z M26.93,7.41 C29.03,7.41 30.74,9.12 30.74,11.22 C30.74,13.32 29.03,15.03 26.93,15.03 L26.93,15.03 C24.83,15.03 23.12,13.32 23.12,11.22 C23.12,9.12 24.83,7.41 26.93,7.41 Z M38.39,15.6 C42.16,15.6 45.23,18.67 45.23,22.44 C45.23,26.21 42.16,29.28 38.39,29.28 C34.62,29.28 31.55,26.21 31.55,22.44 C31.55,18.67 34.62,15.6 38.39,15.6 Z M37.49,17.61 C36.7,17.61 36.07,18.2 36.07,18.93 L36.07,21.07 L34.82,21.07 L34.82,26.2 L41.95,26.2 L41.95,21.07 L40.71,21.07 L40.71,18.93 C40.71,18.2 40.07,17.61 39.29,17.61 Z M37.49,18.36 L39.29,18.36 C39.66,18.36 39.96,18.62 39.96,18.93 L39.96,21.07 L36.82,21.07 L36.82,18.93 C36.82,18.62 37.12,18.36 37.49,18.36 Z M35.32,21.57 L41.45,21.57 L41.45,25.7 L35.32,25.7 Z M38.39,23.01 C38.07,23.01 37.81,23.29 37.81,23.64 C37.81,23.98 38.07,24.26 38.39,24.26 C38.71,24.26 38.96,23.98 38.96,23.64 C38.96,23.29 38.71,23.01 38.39,23.01 Z" fill="none" stroke="currentColor" stroke-width="1.5"/></svg>