<svg xmlns="http://www.w3.org/2000/svg" viewBox="0 0 28.41 24.52" width="24" height="24"><path d="M10.89,3.36 L0,3.34 L0,24.52 L28.4,24.52 L28.4,0 L14.45,0 L11.12,3.35 Z" fill="none" stroke="currentColor" stroke-width="1.5"/><path d="M5.73,7.07 L5.73,9.18 L3.63,9.18 L3.63,19.45 L22.67,19.45 L22.67,17.35 L24.78,17.35 L24.78,7.07 Z M6.48,7.82 L24.03,7.82 L24.03,16.6 L22.67,16.6 L22.67,9.18 L6.48,9.18 Z M4.38,9.93 L21.92,9.93 L21.92,18.7 L4.38,18.7 Z M8.78,11.58 C7.26,11.58 6.01,12.82 6.01,14.35 C6.01,15.88 7.26,17.12 8.78,17.12 L17.7,17.12 C19.23,17.12 20.47,15.88 20.47,14.35 C20.47,12.82 19.23,11.58 17.7,11.58 C16.18,11.58 14.94,12.82 14.94,14.35 C14.94,15.15 15.28,15.86 15.82,16.37 L10.66,16.37 C11.21,15.86 11.55,15.15 11.55,14.35 C11.55,12.82 10.31,11.58 8.78,11.58 Z M8.78,12.33 C9.89,12.33 10.8,13.24 10.8,14.35 C10.8,15.46 9.89,16.37 8.78,16.37 C7.67,16.37 6.76,15.46 6.76,14.35 C6.76,13.24 7.67,12.33 8.78,12.33 Z M17.7,12.33 C18.82,12.33 19.72,13.24 19.72,14.35 C19.72,15.46 18.82,16.37 17.7,16.37 C16.59,16.37 15.69,15.46 15.69,14.35 C15.69,13.24 16.59,12.33 17.7,12.33 Z" fill="none" stroke="currentColor" stroke-width="1.5"/></svg>