<svg xmlns="http://www.w3.org/2000/svg" viewBox="0 0 34.11 18.91" width="24" height="24"><path d="M22.11,12.15 L21.01,12.15 L21.01,11.39 C21.39,11.39 21.77,11.33 22.11,11.2 L22.11,10.41 C21.75,10.58 21.37,10.68 21.01,10.68 L21.01,5.32 C22.12,5.37 23.01,6.04 23.42,6.92 L24.16,6.92 C23.74,5.64 22.55,4.62 21.01,4.62 L21.01,3.84 L27.97,3.82 L27.97,6.91 L30,6.92 L30,3.86 C30,2.08 28.49,0 26.04,0 L0,0 L0,12.39 C0,14.32 1.75,16.22 3.86,16.22 L22.11,16.22 Z" fill="none" stroke="currentColor" stroke-width="1.5"/><path d="M9.69,4.57 L9.69,3.84 L20.22,3.84 L20.22,4.57 Z M9.69,10.68 L9.69,5.32 L20.22,5.32 L20.22,10.68 Z M9.69,12.15 L9.69,11.39 L20.22,11.39 L20.22,12.15 Z M8.85,10.68 C7.49,10.64 6.21,9.54 6.21,7.97 C6.21,6.79 7.17,5.42 8.85,5.32 Z M1.88,12.16 L1.88,3.84 L8.85,3.84 L8.85,4.62 C7.01,4.62 5.53,6.12 5.53,7.93 C5.53,10.09 7.17,11.39 8.85,11.39 L8.85,12.16 Z" fill="none" stroke="currentColor" stroke-width="1.5"/><path d="M24.17,6.92 C23.74,5.64 22.55,4.62 21.01,4.62 L21.01,3.83 L27.98,3.82 L27.98,6.91 Z M22.11,10.4 C21.75,10.58 21.38,10.67 21.01,10.68 L21.01,5.32 C22.13,5.37 23.02,6.05 23.42,6.92 L22.11,6.92 Z M22.12,12.15 L21.01,12.15 L21.01,11.39 C21.4,11.39 21.77,11.32 22.12,11.2 Z" fill="none" stroke="currentColor" stroke-width="1.5"/><path d="M22.87,18.91 L22.87,7.66 L34.11,7.66 L34.11,18.91 Z" fill="none" stroke="currentColor" stroke-width="1.5"/><path d="M28.49,10.55 C28.78,10.55 29.09,10.32 29.09,9.95 C29.09,9.69 28.87,9.36 28.49,9.36 C28.13,9.36 27.89,9.67 27.89,9.95 C27.89,10.33 28.21,10.55 28.49,10.55 Z M28.48,17.95 L27.58,17.33 L27.58,13.22 C26.89,12.9 26.13,12.22 26.13,11.01 C26.13,9.71 27.23,8.67 28.48,8.67 C29.86,8.67 30.85,9.79 30.85,11.09 C30.85,12.04 30.17,12.92 29.39,13.22 L29.39,13.66 L28.94,14.12 L29.39,14.56 L29.39,14.8 L28.94,15.24 L29.39,15.69 L29.39,15.93 L28.94,16.37 L29.39,16.82 L29.39,17.32 Z" fill="none" stroke="currentColor" stroke-width="1.5"/></svg>