<svg xmlns="http://www.w3.org/2000/svg" viewBox="0 0 38.43 22.46" width="24" height="24"><path d="M0,22.46 L38.43,22.46 L38.43,0 L0,0 Z" fill="none" stroke="currentColor" stroke-width="1.5"/><path d="M2.59,2.46 L2.59,19.89 L35.38,19.89 L35.38,2.46 Z M3.34,3.21 L34.63,3.21 L34.63,19.14 L3.34,19.14 Z M11.34,6.67 C8.82,6.67 6.77,8.71 6.77,11.23 C6.77,13.75 8.82,15.8 11.34,15.8 L26.96,15.8 C29.48,15.8 31.53,13.75 31.53,11.23 C31.53,8.71 29.48,6.67 26.96,6.67 C24.45,6.67 22.4,8.71 22.4,11.23 C22.4,12.83 23.22,14.24 24.46,15.05 L13.84,15.05 C15.08,14.24 15.91,12.83 15.91,11.23 C15.91,8.71 13.86,6.67 11.34,6.67 Z M11.34,7.42 C13.44,7.42 15.16,9.13 15.16,11.23 C15.16,13.34 13.44,15.05 11.34,15.05 C9.24,15.05 7.52,13.34 7.52,11.23 C7.52,9.13 9.24,7.42 11.34,7.42 Z M26.96,7.42 C29.07,7.42 30.78,9.13 30.78,11.23 C30.78,13.34 29.07,15.05 26.96,15.05 C24.86,15.05 23.15,13.34 23.15,11.23 C23.15,9.13 24.86,7.42 26.96,7.42 Z" fill="none" stroke="currentColor" stroke-width="1.5"/></svg>