<svg xmlns="http://www.w3.org/2000/svg" viewBox="0 0 38.17 13.73" width="24" height="24"><path d="M0,13.72 L38.18,13.72 L38.18,0 L0,0 Z" fill="none" stroke="currentColor" stroke-width="1.5"/><path d="M3.27,4.25 L3.27,9.47 L27.98,9.47 L27.98,4.25 Z M33.36,4.27 C31.94,4.27 30.77,5.44 30.77,6.87 C30.77,8.29 31.94,9.46 33.36,9.46 C34.79,9.46 35.96,8.29 35.96,6.87 C35.96,5.44 34.79,4.27 33.36,4.27 Z M4.02,5 L27.23,5 L27.23,8.72 L4.02,8.72 Z M33.36,5.02 C34.38,5.02 35.21,5.85 35.21,6.87 C35.21,7.88 34.38,8.71 33.36,8.71 C32.35,8.71 31.52,7.88 31.52,6.87 C31.52,5.85 32.35,5.02 33.36,5.02 Z" fill="none" stroke="currentColor" stroke-width="1.5"/></svg>