<svg xmlns="http://www.w3.org/2000/svg" viewBox="0 0 28.26 28.26" width="24" height="24"><path d="M28.26,28.26 L28.26,0 L0,0 L0,28.26 Z" fill="none" stroke="currentColor" stroke-width="1.5"/><path d="M14.13,22.88 L14.11,22.88 C9.28,22.88 5.36,18.94 5.38,14.11 C5.39,9.29 9.32,5.38 14.13,5.38 L14.16,5.38 C18.98,5.4 22.9,9.34 22.89,14.16 C22.87,18.98 18.95,22.88 14.13,22.88 Z M14.13,6.12 C12,6.12 10,6.96 8.49,8.46 C6.97,9.96 6.13,11.98 6.13,14.1 C6.12,16.24 6.95,18.26 8.46,19.78 C9.96,21.29 11.97,22.12 14.11,22.13 L14.13,22.13 C18.54,22.13 22.12,18.56 22.14,14.15 L22.51,14.15 L22.14,14.15 C22.15,9.74 18.57,6.13 14.16,6.12 Z M21.04,14.48 L13.7,14.48 L13.7,7.65 L14.45,7.65 L14.45,13.74 L21.04,13.74 Z" fill="none" stroke="currentColor" stroke-width="1.5"/></svg>