<svg xmlns="http://www.w3.org/2000/svg" viewBox="0 0 20.59 20.59" width="24" height="24"><path d="M20.22,10.29 C20.22,15.77 15.77,20.21 10.3,20.21 C4.82,20.21 0.38,15.77 0.38,10.29 C0.38,4.81 4.82,0.37 10.3,0.37 C15.77,0.37 20.22,4.81 20.22,10.29 Z" fill="none" stroke="currentColor" stroke-width="1.5"/><path d="M10.3,0 C4.62,0 0,4.61 0,10.29 C0,15.97 4.62,20.59 10.3,20.59 C15.97,20.59 20.59,15.97 20.59,10.29 C20.59,4.61 15.97,0 10.3,0 Z M10.3,0.75 C15.56,0.75 19.84,5.03 19.84,10.29 C19.84,15.55 15.56,19.84 10.3,19.84 C5.03,19.84 0.75,15.55 0.75,10.29 C0.75,5.03 5.03,0.75 10.3,0.75 Z M9.83,4.31 L9.83,8.07 L10.77,8.07 L10.77,4.31 Z M8.83,6.03 C6.98,6.65 5.63,8.39 5.63,10.45 C5.63,13.03 7.72,15.12 10.3,15.12 C12.87,15.12 14.96,13.03 14.96,10.45 C14.96,8.4 13.62,6.66 11.77,6.04 L11.77,6.83 C13.2,7.41 14.21,8.81 14.21,10.45 C14.21,12.61 12.46,14.37 10.3,14.37 C8.14,14.37 6.38,12.61 6.38,10.45 C6.38,8.81 7.4,7.41 8.83,6.83 Z" fill="none" stroke="currentColor" stroke-width="1.5"/></svg>