<svg xmlns="http://www.w3.org/2000/svg" viewBox="0 0 282.77 262.11" width="24" height="24"><path d="M29.67,262.11 C8.36,262.11 0,250.94 0,228.15 L0,31.51 L139.53,31.51 L169.81,5.19 C174.12,1.35 178.25,0 182.65,0 L267.64,0 C277.38,0 282.77,6.33 282.77,12.38 L282.77,262.11 L29.67,262.11 Z" fill="none" stroke="currentColor" stroke-width="1.5"/><path d="M226.96,172.12 L226.96,164.18 L242.58,164.18 L242.58,156 L226.96,156 L226.96,148.47 L242.58,148.47 L242.58,140.46 L226.96,140.46 L226.96,132.57 L242.58,132.57 L242.58,124.83 L226.96,124.83 L226.96,117.13 L242.58,117.13 L242.58,109.28 L226.96,109.28 L226.96,101.23 L242.58,101.23 L242.58,93.57 L226.96,93.57 L226.96,85.6 L234.85,85.6 L234.85,172.12 L226.96,172.12 Z M229.45,208.95 L241.18,208.95 L241.18,190.19 L229.45,190.19 L229.45,208.95 Z M226.21,183.69 L244.48,183.69 L244.48,224.57 L226.21,224.57 L226.21,183.69 Z M74.88,162.58 L74.88,126.92 C66.68,126.92 57.36,134.32 57.36,144.02 C57.36,157.94 68.77,162.58 74.88,162.58 Z M29.99,171.46 L74.88,171.46 L74.88,166.79 C64.92,166.79 53.14,158.41 53.14,144.4 C53.14,131.83 64.47,122.85 74.88,122.85 L74.88,117.9 L29.99,117.9 L29.99,171.46 Z M79.75,122.85 L148.51,122.85 L148.51,117.9 L79.75,117.9 L79.75,122.85 Z M79.75,162.58 L148.51,162.58 L148.51,126.92 L79.75,126.92 L79.75,162.58 Z M79.75,171.46 L148.51,171.46 L148.51,166.79 L79.75,166.79 L79.75,171.46 Z M153.26,162.58 C162.12,162.58 170.95,155.61 170.95,144.59 C170.95,134.98 162.95,126.92 153.26,126.92 L153.26,162.58 Z M153.26,171.46 L198.13,171.46 L198.13,117.9 L153.26,117.9 L153.26,122.85 C163.2,122.85 174.74,131.13 174.74,144.56 C174.74,157.18 165.51,166.79 153.26,166.79 L153.26,171.46 Z M42.39,198.14 C31,198.14 17.21,187.69 17.21,172.43 L17.21,92.93 L186.01,92.93 C198.58,92.93 211.73,103.06 211.73,119.63 L211.73,198.14 L42.39,198.14 Z" fill="none" stroke="currentColor" stroke-width="1.5"/></svg>