<svg xmlns="http://www.w3.org/2000/svg" viewBox="0 0 20.59 20.59" width="24" height="24"><path d="M20.22,10.29 C20.22,4.82 15.77,0.37 10.3,0.37 C4.82,0.37 0.38,4.82 0.38,10.29 C0.38,15.77 4.82,20.22 10.3,20.22 C15.77,20.22 20.22,15.77 20.22,10.29 Z" fill="none" stroke="currentColor" stroke-width="1.5"/><path d="M10.3,0 C4.62,0 0,4.62 0,10.29 C0,15.97 4.62,20.59 10.3,20.59 C15.97,20.59 20.59,15.97 20.59,10.29 C20.59,4.62 15.97,0 10.3,0 Z M10.3,0.75 C15.56,0.75 19.84,5.03 19.84,10.29 C19.84,15.56 15.56,19.84 10.3,19.84 C5.03,19.84 0.75,15.56 0.75,10.29 C0.75,5.03 5.03,0.75 10.3,0.75 Z M12.64,4.67 C11.7,4.67 10.93,5.34 10.93,6.16 L10.93,8.85 L4.22,8.85 L4.22,15.03 L13.43,15.03 L13.43,8.85 L11.68,8.85 L11.68,6.16 C11.68,5.75 12.11,5.42 12.64,5.42 L14.94,5.42 C15.46,5.42 15.89,5.75 15.89,6.16 L15.89,8.96 L16.64,8.96 L16.64,6.16 C16.64,5.34 15.88,4.67 14.94,4.67 Z M4.97,9.6 L12.68,9.6 L12.68,14.28 L4.97,14.28 Z M8.82,11.2 C8.42,11.2 8.09,11.53 8.09,11.94 C8.09,12.34 8.42,12.67 8.82,12.67 C9.23,12.67 9.56,12.34 9.56,11.94 C9.56,11.53 9.23,11.2 8.82,11.2 Z" fill="none" stroke="currentColor" stroke-width="1.5"/></svg>