<svg xmlns="http://www.w3.org/2000/svg" viewBox="0 0 39.6 16.5" width="24" height="24"><path d="M0,16.5 L27.4,16.5 L27.4,0 L0,0 Z M28.9,14.8 L39.6,14.8 L39.6,2 L28.9,2 Z" fill="none" stroke="currentColor" stroke-width="1.5"/><path d="M16.1,3.9 C15.61,3.9 15.18,4.2 14.99,4.63 C14.99,4.66 14.98,4.68 14.97,4.7 L12.2,4.7 L8.99,8.1 L7.86,8.1 C7.67,7.24 6.91,6.6 6,6.6 C4.95,6.6 4.1,7.45 4.1,8.5 C4.1,9.55 4.95,10.4 6,10.4 C6.91,10.4 7.67,9.76 7.86,8.9 L12.1,8.9 L15,12 L17.8,12 L17.8,12.8 L20.2,12.8 L20.2,10.4 L17.8,10.4 L17.8,11.2 L15.4,11.2 L13.18,8.9 L21.2,8.9 L21.2,9.7 L22.1,9.1 L23.1,8.5 L22.1,7.9 L21.2,7.3 L21.2,8.1 L9.98,8.1 L12.6,5.4 L14.94,5.4 C15.08,5.91 15.54,6.3 16.1,6.3 C16.76,6.3 17.3,5.76 17.3,5.1 C17.3,4.44 16.76,3.9 16.1,3.9 Z M32.32,4.83 L32.31,7.33 L33.11,7.33 L33.12,4.83 Z M32.29,9.61 L32.28,12.11 L33.08,12.11 L33.09,9.61 Z" fill="none" stroke="currentColor" stroke-width="1.5"/></svg>