<svg xmlns="http://www.w3.org/2000/svg" viewBox="0 0 28.35 28.35" width="24" height="24"><path d="M0,28.35 L28.35,28.35 L28.35,0 L0,0 Z" fill="none" stroke="currentColor" stroke-width="1.5"/><path d="M24.9,21.32 C24.69,21.32 24.52,21.15 24.52,20.94 C24.52,18.08 22.19,15.74 19.32,15.74 L18.44,15.74 C18.24,15.74 18.07,15.58 18.07,15.37 C18.07,15.16 18.24,14.99 18.44,14.99 L19.32,14.99 C22.6,14.99 25.28,17.66 25.28,20.94 C25.28,21.15 25.11,21.32 24.9,21.32 Z M21.67,25.16 C21.46,25.16 21.3,25 21.3,24.79 C21.3,21.92 18.96,19.59 16.1,19.59 L9.02,19.59 C6.15,19.59 3.82,21.92 3.82,24.79 C3.82,25 3.65,25.16 3.45,25.16 C3.24,25.16 3.07,25 3.07,24.79 C3.07,21.51 5.74,18.84 9.02,18.84 L16.1,18.84 C19.38,18.84 22.05,21.51 22.05,24.79 C22.05,25 21.88,25.16 21.67,25.16 Z M19.69,11.82 C19.55,11.82 19.41,11.74 19.35,11.59 C19.27,11.4 19.36,11.18 19.55,11.1 C21,10.5 21.94,9.1 21.94,7.52 C21.94,5.39 20.21,3.65 18.07,3.65 C17.15,3.65 16.26,3.98 15.57,4.57 C15.41,4.71 15.17,4.69 15.04,4.53 C14.9,4.37 14.92,4.14 15.08,4 C15.91,3.29 16.98,2.9 18.07,2.9 C20.62,2.9 22.69,4.97 22.69,7.52 C22.69,9.4 21.57,11.08 19.84,11.8 C19.79,11.81 19.74,11.82 19.69,11.82 Z M12.56,16.32 C9.61,16.32 7.21,13.92 7.21,10.97 C7.21,8.02 9.61,5.62 12.56,5.62 C15.51,5.62 17.91,8.02 17.91,10.97 C17.91,13.92 15.51,16.32 12.56,16.32 Z M12.56,6.37 C10.02,6.37 7.96,8.43 7.96,10.97 C7.96,13.5 10.02,15.57 12.56,15.57 C15.09,15.57 17.16,13.5 17.16,10.97 C17.16,8.43 15.09,6.37 12.56,6.37 Z" fill="none" stroke="currentColor" stroke-width="1.5"/></svg>