<svg xmlns="http://www.w3.org/2000/svg" viewBox="0 0 35.27 35.43" width="24" height="24"><path d="M0,28.35 L28.35,28.35 L28.35,0 L0,0 Z" fill="none" stroke="currentColor" stroke-width="1.5"/><path d="M27.81,20.89 C23.9,20.89 20.72,24.06 20.72,27.97 C20.72,31.88 23.9,35.06 27.81,35.06 C31.72,35.06 34.9,31.88 34.9,27.97 C34.9,24.06 31.72,20.89 27.81,20.89 Z" fill="none" stroke="currentColor" stroke-width="1.5"/><path d="M3.23,3.39 L3.23,12.49 L12.15,12.49 L12.86,13.19 C12.71,13.44 12.62,13.73 12.62,14.04 C12.62,14.33 12.7,14.6 12.84,14.84 L11.72,15.86 L3.23,15.86 L3.23,24.96 L12.32,24.96 L12.32,16.33 L13.34,15.4 C13.61,15.59 13.94,15.71 14.29,15.71 C14.41,15.71 14.52,15.69 14.63,15.67 C14.81,15.64 14.98,15.56 15.14,15.47 L16.02,16.36 L16.02,24.96 L20.99,24.96 C20.58,25.88 20.35,26.89 20.35,27.97 C20.35,32.09 23.69,35.43 27.81,35.43 C31.92,35.43 35.27,32.09 35.27,27.97 C35.27,23.86 31.92,20.51 27.81,20.51 C26.86,20.51 25.96,20.69 25.12,21.01 L25.12,15.86 L16.59,15.86 L15.69,14.96 C15.87,14.69 15.97,14.38 15.97,14.04 C15.97,13.73 15.89,13.45 15.75,13.21 L15.89,13.07 L16.02,12.96 L16.09,12.89 L16.19,12.8 L16.54,12.49 L25.12,12.49 L25.12,3.39 L16.02,3.39 L16.02,11.94 L15.24,12.65 C15.24,12.65 15.24,12.65 15.23,12.64 C14.96,12.46 14.64,12.36 14.29,12.36 C13.95,12.36 13.63,12.46 13.37,12.64 L12.7,11.98 L12.7,3.39 Z M3.98,4.14 L11.95,4.14 L11.95,11.74 L3.98,11.74 Z M16.77,4.14 L24.37,4.14 L24.37,11.74 L16.77,11.74 Z M3.98,16.61 L11.57,16.61 L11.57,24.21 L3.98,24.21 Z M16.77,16.61 L24.37,16.61 L24.37,21.35 C23.12,22 22.09,23 21.38,24.21 L16.77,24.21 Z M27.81,21.26 C31.51,21.26 34.52,24.27 34.52,27.97 C34.52,31.67 31.51,34.68 27.81,34.68 C24.11,34.68 21.1,31.67 21.1,27.97 C21.1,24.27 24.11,21.26 27.81,21.26 Z M25.36,24.11 L25.36,31.84 L32.05,27.97 Z M26.11,25.41 L30.55,27.97 L26.11,30.54 Z" fill="none" stroke="currentColor" stroke-width="1.5"/></svg>