<svg xmlns="http://www.w3.org/2000/svg" viewBox="0 0 39.7 51.9" width="24" height="24"><path d="M39.7,0 L5.7,0 L5.7,34 L19.6,34 L22.7,38.6 L25.8,34 L39.7,34 Z" fill="none" stroke="currentColor" stroke-width="1.5"/><rect x="0" y="0" width="0" height="0" fill="none" stroke="currentColor"/><path d="M39.7,40.6 L6,40.6 C2.8,40.6 0,43.3 0,46.4 L0,51.9 L39.7,51.9 Z" fill="none" stroke="currentColor" stroke-width="1.5"/><path d="M21.4,5.7 C17.4,5.7 14.1,8.9 13.9,13 L13.6,13 C12.1,13 10.9,14.2 10.9,15.7 L10.9,16.8 C10.9,18.3 12.1,19.5 13.6,19.5 L19.1,19.5 L19.1,14.9 L32.7,14.9 L32.7,19.4 C33.8,18.6 34.5,17.3 34.5,15.8 L34.5,14.9 C34.5,12.3 32.5,10.3 30,10.3 L28.3,10.3 C27.1,7.6 24.5,5.7 21.4,5.7 Z M20,15.9 L20,22.3 L31.8,22.3 L31.8,15.9 Z M23.7,16.8 L28.2,16.8 L28.2,18.6 L23.7,18.6 Z M13.7,20.5 L13.7,25.9 L19.2,25.9 L19.2,24.1 L15.5,24.1 L15.5,20.5 Z M20,23.2 L20,29.6 L31.8,29.6 L31.8,23.2 Z M23.7,24.1 L28.2,24.1 L28.2,25.9 L23.7,25.9 Z M6.8,44.7 C6,44.7 5.3,45.3 5.3,46.2 C5.3,47 5.9,47.7 6.8,47.7 C7.6,47.7 8.3,47.1 8.3,46.2 C8.3,45.4 7.6,44.7 6.8,44.7 Z M12.6,45.9 L12.6,46.7 L33.9,46.7 L33.9,45.9 Z" fill="none" stroke="currentColor" stroke-width="1.5"/></svg>