<svg xmlns="http://www.w3.org/2000/svg" viewBox="0 0 39.7 51.9" width="24" height="24"><path d="M39.7,0 L5.7,0 L5.7,34.1 L19.8,34.1 L22.7,38.6 L25.7,34.1 L39.7,34.1 Z" fill="none" stroke="currentColor" stroke-width="1.5"/><rect x="0" y="0" width="0" height="0" fill="none" stroke="currentColor"/><path d="M39.7,40.6 L6,40.6 C2.8,40.6 0,43.3 0,46.4 L0,51.9 L39.7,51.9 Z" fill="none" stroke="currentColor" stroke-width="1.5"/><path d="M18.8,5.4 L18.8,11.6 L13.2,6 L11.9,7.3 L17.5,12.9 L11.3,12.9 L11.3,14.7 L20.6,14.7 L20.6,5.4 Z M22.2,5.4 L22.2,6.7 L33,6.7 L33,17.2 L34.2,17.2 L34.2,7 C34.2,5.6 34,5.4 32.6,5.4 Z M23.1,10.1 L23.1,17.1 L30.2,17.1 L30.2,10.1 Z M24.8,11.8 L28.5,11.8 L28.5,15.5 L24.8,15.5 Z M11.3,16.8 L11.3,26.7 C11.3,28.1 11.5,28.3 12.9,28.3 L23.3,28.3 L23.3,27 L12.5,27 L12.5,16.8 Z M15.8,17.2 L15.8,24.2 L22.9,24.2 L22.9,17.2 Z M17.5,18.9 L21.2,18.9 L21.2,22.6 L17.5,22.6 Z M32.3,19.1 L32.3,25.3 L26.8,19.8 L25.5,21 L31,26.6 L24.9,26.6 L24.9,28.4 L34.2,28.4 L34.2,19.1 Z M6.8,44.7 C6,44.7 5.3,45.3 5.3,46.2 C5.3,47 5.9,47.7 6.8,47.7 C7.6,47.7 8.3,47.1 8.3,46.2 C8.3,45.4 7.6,44.7 6.8,44.7 Z M12.7,45.9 L12.7,46.7 L34,46.7 L34,45.9 Z" fill="none" stroke="currentColor" stroke-width="1.5"/></svg>