<svg xmlns="http://www.w3.org/2000/svg" viewBox="0 0 39.7 51.8" width="24" height="24"><path d="M39.7,40.5 L6,40.5 C2.8,40.5 0,43.2 0,46.3 L0,51.8 L39.7,51.8 Z" fill="none" stroke="currentColor" stroke-width="1.5"/><path d="M39.7,0 L5.7,0 L5.7,34 L19.7,34 L22.6,38.6 L25.6,34 L39.7,34 Z" fill="none" stroke="currentColor" stroke-width="1.5"/><path d="M20.3,7.3 C19,7.3 18,8.3 18,9.6 L18,12.3 L15.3,12.3 C14,12.3 13,13.3 13,14.6 L13,24.3 C13,25.6 14,26.6 15.3,26.6 L25.1,26.6 C26.4,26.6 27.4,25.6 27.4,24.3 L27.4,21.6 L30.1,21.6 C31.4,21.6 32.4,20.6 32.4,19.3 L32.4,9.6 C32.4,8.3 31.4,7.3 30.1,7.3 Z M21.7,10 L28.9,10 C29.5,10 30,10.5 30,11.1 L30,18.4 C30,19 29.5,19.5 28.9,19.5 L25,19.5 L25,23.4 C25,24 24.5,24.5 23.9,24.5 L16.7,24.5 C16.1,24.5 15.6,24 15.6,23.4 L15.6,16.1 C15.6,15.5 16.1,15 16.7,15 L20.6,15 L20.6,11.1 C20.6,10.5 21.1,10 21.7,10 Z M23.4,11.6 C22.8,11.6 22.3,12.1 22.3,12.7 L22.3,16.5 C22.3,16.7 22.2,16.8 22,16.8 L18.5,16.8 C17.9,16.8 17.4,17.3 17.4,17.9 L17.4,21.5 C17.4,22.1 17.9,22.6 18.5,22.6 L22,22.6 C22.6,22.6 23.1,22.1 23.1,21.5 L23.1,17.7 C23.1,17.5 23.2,17.4 23.4,17.4 L26.9,17.4 C27.5,17.4 28,16.9 28,16.3 L28,12.7 C28,12.1 27.5,11.6 26.9,11.6 Z M6.99,44.7 C6.9,44.69 6.8,44.69 6.7,44.7 C5.9,44.7 5.2,45.3 5.2,46.2 C5.2,47 5.8,47.7 6.7,47.7 C7.5,47.7 8.2,47.1 8.2,46.2 C8.2,45.41 7.66,44.78 6.99,44.7 Z M12.6,45.8 L12.6,46.6 L33.9,46.6 L33.9,45.8 Z" fill="none" stroke="currentColor" stroke-width="1.5"/></svg>