<svg xmlns="http://www.w3.org/2000/svg" viewBox="0 0 99.86 100.0" width="24" height="24"><path d="M0,100 L0,0 L99.86,0 L99.86,100 Z" fill="none" stroke="currentColor" stroke-width="1.5"/><path d="M12.22,89.7 L12.22,42.52 L59.43,42.52 L59.43,89.7 Z" fill="none" stroke="currentColor" stroke-width="1.5"/><rect x="0" y="0" width="0" height="0" fill="none" stroke="currentColor"/><path d="M22.54,78.38 L22.54,52.86 L31.96,52.86 L31.96,37.04 L22.54,37.04 L22.54,11.53 L48.08,11.53 L48.08,37.04 L38.68,37.04 L38.68,52.86 L43.24,52.86 L63.1,32.25 L63.1,11.53 L88.62,11.53 L88.62,37.04 L67.88,37.04 L48.08,56.82 L48.08,62.4 L63.1,62.4 L63.1,52.86 L88.62,52.86 L88.62,78.38 L63.1,78.38 L63.1,68.99 L48.08,68.99 L48.08,78.38 Z" fill="none" stroke="currentColor" stroke-width="1.5"/></svg>