<svg xmlns="http://www.w3.org/2000/svg" viewBox="0 0 39.7 51.8" width="24" height="24"><path d="M39.7,40.5 L6,40.5 C2.8,40.5 0,43.2 0,46.3 L0,51.8 L39.7,51.8 Z" fill="none" stroke="currentColor" stroke-width="1.5"/><path d="M39.7,0 L5.7,0 L5.7,34 L19.8,34 L22.6,38.6 L25.7,34 L39.7,34 Z" fill="none" stroke="currentColor" stroke-width="1.5"/><path d="M14,5.7 L14,12.6 L16.7,12.6 L16.7,15.9 L11.1,15.9 L11.1,28.7 L23.9,28.7 L23.9,23 L27.1,23 L27.1,25.7 L34,25.7 L34,18.8 L27.1,18.8 L27.1,21.5 L23.9,21.5 L23.9,16.81 L28.12,12.6 L34,12.6 L34,5.7 L27.1,5.7 L27.1,11.49 L22.69,15.9 L18.2,15.9 L18.2,12.6 L20.9,12.6 L20.9,5.7 Z M11.8,16.6 L16.7,16.6 L16.7,18.8 L14,18.8 L14,25.7 L20.9,25.7 L20.9,23 L23.1,23 L23.1,27.9 L11.8,27.9 Z M18.2,16.6 L21.99,16.6 L19.79,18.8 L18.2,18.8 Z M23.1,17.61 L23.1,21.5 L20.9,21.5 L20.9,19.81 Z M7.02,44.7 C6.92,44.69 6.81,44.69 6.7,44.7 C5.9,44.7 5.2,45.3 5.2,46.2 C5.2,47 5.8,47.7 6.7,47.7 C7.5,47.7 8.2,47.1 8.2,46.2 C8.2,45.41 7.74,44.78 7.02,44.7 Z M12.6,45.8 L12.6,46.6 L33.9,46.6 L33.9,45.8 Z" fill="none" stroke="currentColor" stroke-width="1.5"/></svg>