<svg xmlns="http://www.w3.org/2000/svg" viewBox="0 0 34.02 34.01" width="24" height="24"><path d="M20.03,34.01 L34.02,34.01 L34.02,0 L0,0 L0,34.01 Z" fill="none" stroke="currentColor" stroke-width="1.5"/><path d="M5.16,5.22 L5.16,11.57 L7.8,8.93 L12.04,13.16 L13.1,12.1 L8.86,7.87 L11.51,5.22 Z M23.63,5.52 C20.55,5.52 18.04,8.02 18.04,11.11 C18.04,14.19 20.55,16.7 23.63,16.7 C26.72,16.7 29.22,14.19 29.22,11.11 C29.22,8.02 26.72,5.52 23.63,5.52 Z M24.03,7.34 C24.6,7.4 25.15,7.6 25.62,7.89 C25.35,8.32 25.37,8.88 25.72,9.28 C26.07,9.68 26.63,9.78 27.09,9.57 C27.2,9.82 27.29,10.09 27.35,10.38 C27.4,10.66 27.42,10.95 27.41,11.22 C26.91,11.2 26.43,11.5 26.26,12.01 C26.08,12.51 26.28,13.04 26.69,13.33 C26.36,13.79 25.93,14.17 25.42,14.44 C25.19,13.99 24.69,13.73 24.17,13.83 C23.64,13.93 23.28,14.37 23.24,14.87 C22.66,14.81 22.12,14.62 21.64,14.32 C21.91,13.9 21.89,13.33 21.54,12.93 C21.19,12.53 20.63,12.43 20.17,12.65 C20.06,12.39 19.97,12.12 19.92,11.84 C19.86,11.55 19.84,11.27 19.85,10.99 C20.35,11.02 20.84,10.71 21.01,10.21 C21.18,9.71 20.99,9.17 20.57,8.88 C20.9,8.43 21.33,8.04 21.84,7.77 C22.07,8.22 22.57,8.49 23.1,8.39 C23.62,8.28 23.99,7.85 24.03,7.34 Z M23.65,9.39 C23.53,9.39 23.42,9.4 23.3,9.42 C22.37,9.6 21.76,10.51 21.94,11.44 C22.13,12.37 23.03,12.98 23.96,12.8 C24.9,12.61 25.5,11.71 25.32,10.78 C25.16,9.96 24.45,9.4 23.65,9.39 Z M12.86,14.5 L12.1,14.55 C11,14.61 9.92,14.93 8.98,15.46 L8.31,15.83 L8.69,16.49 C8.98,16.98 8.91,17.6 8.53,18 C8.29,18.25 7.97,18.39 7.62,18.39 C7.41,18.39 7.21,18.34 7.02,18.24 L6.35,17.88 L6,18.57 C5.52,19.53 5.25,20.63 5.24,21.73 L5.23,22.49 L5.99,22.49 C6.56,22.49 7.05,22.86 7.21,23.4 C7.37,23.94 7.15,24.51 6.67,24.81 L6.02,25.22 L6.44,25.86 C6.75,26.33 7.11,26.75 7.49,27.12 C7.88,27.49 8.31,27.82 8.8,28.11 L9.45,28.5 L9.83,27.84 C10.06,27.44 10.48,27.2 10.93,27.2 C11.03,27.2 11.13,27.21 11.23,27.23 C11.77,27.37 12.16,27.84 12.18,28.41 L12.22,29.17 L12.98,29.13 C14.08,29.06 15.16,28.75 16.1,28.22 L16.77,27.85 L16.38,27.19 C16.1,26.7 16.17,26.08 16.56,25.67 C16.79,25.42 17.11,25.29 17.46,25.29 C17.67,25.29 17.87,25.34 18.06,25.43 L18.74,25.79 L19.08,25.11 C19.56,24.14 19.83,23.04 19.84,21.94 L19.85,21.18 L19.09,21.18 C18.52,21.18 18.03,20.82 17.87,20.28 C17.71,19.74 17.93,19.17 18.41,18.86 L19.06,18.45 L18.63,17.81 C18.33,17.34 17.97,16.92 17.59,16.55 C17.2,16.18 16.76,15.85 16.28,15.56 L15.63,15.17 L15.25,15.84 C15.02,16.23 14.6,16.48 14.15,16.48 C14.05,16.48 13.95,16.47 13.85,16.44 C13.31,16.31 12.92,15.84 12.9,15.26 Z M12.15,15.3 C12.19,16.17 12.78,16.95 13.68,17.17 C13.84,17.21 14,17.23 14.15,17.23 C14.87,17.23 15.54,16.83 15.9,16.21 C16.31,16.46 16.71,16.75 17.07,17.09 C17.43,17.44 17.74,17.82 18.01,18.23 C17.27,18.7 16.89,19.61 17.15,20.49 C17.41,21.37 18.21,21.93 19.09,21.93 L19.09,21.93 C19.08,22.91 18.85,23.88 18.41,24.77 C18.11,24.62 17.78,24.54 17.46,24.54 C16.93,24.54 16.41,24.74 16.01,25.16 C15.38,25.82 15.29,26.81 15.74,27.56 C14.87,28.05 13.9,28.32 12.93,28.38 C12.89,27.5 12.29,26.72 11.4,26.5 C11.24,26.47 11.08,26.45 10.93,26.45 C10.21,26.45 9.54,26.84 9.18,27.47 C8.77,27.22 8.37,26.93 8.01,26.58 C7.65,26.23 7.34,25.85 7.07,25.45 C7.81,24.98 8.19,24.07 7.93,23.19 C7.67,22.31 6.87,21.74 5.99,21.74 L5.99,21.74 C6,20.77 6.23,19.8 6.67,18.9 C6.97,19.06 7.3,19.14 7.62,19.14 C8.15,19.14 8.67,18.93 9.07,18.52 C9.7,17.85 9.78,16.87 9.34,16.11 C10.21,15.62 11.17,15.36 12.15,15.3 Z M12.54,18.86 C11.76,18.86 10.97,19.17 10.38,19.78 C9.25,20.97 9.29,22.85 10.48,23.99 C11.06,24.54 11.8,24.82 12.54,24.82 C13.33,24.82 14.11,24.51 14.69,23.9 C15.83,22.71 15.79,20.82 14.6,19.68 C14.02,19.13 13.28,18.86 12.54,18.86 Z M12.54,19.61 C13.12,19.61 13.66,19.83 14.08,20.22 C14.97,21.07 15,22.49 14.15,23.38 C13.73,23.82 13.15,24.07 12.54,24.07 C11.96,24.07 11.42,23.85 11,23.45 C10.57,23.04 10.32,22.48 10.31,21.89 C10.3,21.29 10.52,20.73 10.93,20.3 C11.35,19.85 11.93,19.61 12.54,19.61 Z M22.34,21.35 L21.29,22.41 L25.55,26.67 L22.9,29.31 L29.25,29.31 L29.25,22.97 L26.61,25.61 Z" fill="none" stroke="currentColor" stroke-width="1.5"/></svg>