<svg xmlns="http://www.w3.org/2000/svg" viewBox="0 0 28.35 39.19" width="24" height="24"><path d="M28.35,7.11 L28.35,39.19 L0,39.19 L0,0 L21.38,0 Z" fill="none" stroke="currentColor" stroke-width="1.5"/><path d="M20.72,2.49 L20.72,7.86 L26.01,7.86 C26.06,7.86 20.72,2.49 20.72,2.49 Z M15.57,11.88 L6.01,21.12 L12.47,27.81 L22.03,18.58 L22.19,11.95 Z M15.87,12.64 L21.42,12.7 L21.29,18.25 L12.49,26.75 L7.07,21.14 L15.83,12.67 Z M18.03,14.12 C17.02,14.12 16.21,14.94 16.21,15.94 C16.21,16.95 17.02,17.76 18.03,17.76 C19.03,17.76 19.85,16.95 19.85,15.94 C19.85,14.94 19.03,14.12 18.03,14.12 Z M18.03,14.87 C18.62,14.87 19.1,15.35 19.1,15.94 C19.1,16.53 18.62,17.01 18.03,17.01 C17.44,17.01 16.96,16.53 16.96,15.94 C16.96,15.35 17.44,14.87 18.03,14.87 Z M13.58,29.47 L13.58,35.47 C13.95,35.61 14.66,35.7 15.15,35.7 C16.55,35.7 17.29,34.87 17.29,33.45 L17.29,33.33 C17.29,31.75 16.43,31.26 15.64,31.26 C15.07,31.26 14.68,31.4 14.36,31.6 L14.31,31.6 L14.31,29.47 Z M20.96,31.26 C20.48,31.26 20.02,31.46 19.66,31.7 L19.62,31.7 L19.62,31.34 L18.92,31.34 L18.92,35.59 L19.65,35.59 L19.65,32.17 C19.96,32.02 20.33,31.89 20.67,31.89 C21.23,31.89 21.4,32.09 21.4,32.58 L21.4,35.59 L22.13,35.59 L22.13,32.43 C22.13,32.33 22.12,32.26 22.11,32.18 C22.48,32 22.83,31.89 23.14,31.89 C23.71,31.89 23.88,32.09 23.88,32.58 L23.88,35.59 L24.61,35.59 L24.61,32.43 C24.61,31.6 24.18,31.26 23.43,31.26 C22.95,31.26 22.46,31.43 22.02,31.73 L21.98,31.73 C21.78,31.41 21.44,31.26 20.96,31.26 Z M8.27,31.34 L9.83,35.59 L10.56,35.59 L12.13,31.34 L11.42,31.34 L10.24,34.67 L10.21,34.67 L9.06,31.34 Z M15.29,31.88 C16.14,31.88 16.54,32.25 16.54,33.38 L16.54,33.56 C16.54,34.75 15.91,35.09 15.2,35.09 C14.78,35.09 14.49,35.01 14.31,34.95 L14.31,32.12 C14.51,32.04 14.89,31.88 15.29,31.88 Z M6.54,34.75 L6.54,35.59 L7.37,35.59 L7.37,34.75 Z" fill="none" stroke="currentColor" stroke-width="1.5"/></svg>