<svg xmlns="http://www.w3.org/2000/svg" viewBox="0 0 22.51 22.5" width="24" height="24"><path d="M0,22.5 L0,0 L22.5,0 L22.51,22.5 Z" fill="none" stroke="currentColor" stroke-width="1.5"/><path d="M15.88,7.88 L16.64,7.12 L15.88,7.12 Z M6.98,15.39 L15.53,15.39 L15.53,10.16 L13.96,11.72 L11.07,10.02 L6.98,13.34 Z M4.45,15.39 L6.63,15.39 L6.63,13.62 Z M6.63,22.07 L6.63,15.74 L4.02,15.74 L0.44,18.65 L0.44,16.97 L1.93,15.74 L0.44,15.74 L0.44,15.39 L2.35,15.39 L6.63,11.87 L6.63,7.12 L0.44,7.12 L0.44,6.77 L6.63,6.77 L6.63,0.43 L6.98,0.43 L6.98,6.77 L15.53,6.77 L15.53,0.43 L15.88,0.43 L15.88,6.77 L17,6.77 L17.13,6.63 L17.29,6.77 L22.07,6.77 L22.07,7.12 L17.65,7.12 L22.07,11.28 L22.07,13.22 L17.15,8.55 L15.88,9.82 L15.88,15.39 L22.07,15.39 L22.07,15.74 L15.88,15.74 L15.88,22.07 L15.53,22.07 L15.53,15.74 L6.98,15.74 L6.98,22.07 Z M6.98,11.59 L10.94,8.34 L13.75,9.99 L15.53,8.22 L15.53,7.12 L6.98,7.12 Z" fill="none" stroke="currentColor" stroke-width="1.5"/></svg>