<svg xmlns="http://www.w3.org/2000/svg" viewBox="0 0 34.02 34.02" width="24" height="24"><path d="M0,34.02 L34.02,34.02 L34.02,0 L0,0 Z" fill="none" stroke="currentColor" stroke-width="1.5"/><path d="M3.84,11.21 L3.84,22.93 L17.68,22.93 C17.69,22.24 17.83,21.58 18.07,20.98 L17.61,20.98 L17.61,13.17 L21.16,13.17 L21.16,17.86 C21.64,17.66 22.15,17.53 22.68,17.48 L22.68,13.17 L26.24,13.17 L26.24,18.31 C27.78,19.28 28.82,20.98 28.86,22.93 L29.6,22.93 L29.6,11.21 Z M7.2,13.17 L10.76,13.17 L10.76,20.98 L7.2,20.98 Z M12.28,13.17 L15.83,13.17 L15.83,20.98 L12.28,20.98 Z M7.95,13.92 L7.95,20.23 L10.01,20.23 L10.01,13.92 Z M13.03,13.92 L13.03,20.23 L15.08,20.23 L15.08,13.92 Z M18.36,13.92 L18.36,20.23 L18.44,20.23 C18.92,19.41 19.6,18.72 20.41,18.24 L20.41,13.92 Z M23.43,13.92 L23.43,17.46 C24.16,17.48 24.85,17.63 25.49,17.91 L25.49,13.92 Z M23.27,18.2 C20.6,18.2 18.42,20.37 18.42,23.05 C18.42,25.72 20.6,27.9 23.27,27.9 C24.14,27.9 24.96,27.66 25.67,27.26 L28.38,29.98 L29.96,28.4 L27.3,25.73 C27.82,24.96 28.12,24.04 28.12,23.05 C28.12,20.37 25.94,18.2 23.27,18.2 Z M23.27,19.1 C25.45,19.1 27.22,20.87 27.22,23.05 C27.22,25.22 25.45,27 23.27,27 C21.09,27 19.32,25.22 19.32,23.05 C19.32,20.87 21.09,19.1 23.27,19.1 Z" fill="none" stroke="currentColor" stroke-width="1.5"/></svg>