<svg xmlns="http://www.w3.org/2000/svg" viewBox="0 0 34.02 34.02" width="24" height="24"><rect x="0" y="0" width="34.02" height="34.02" fill="none" stroke="currentColor"/><path d="M7.98,6.17 L7.98,12.04 L26.04,12.04 L26.04,6.17 Z M11.09,7.62 C11.9,7.62 12.44,8.12 12.44,9.12 L12.44,9.21 C12.44,10.18 11.88,10.72 11.07,10.72 C10.26,10.72 9.72,10.21 9.72,9.21 L9.72,9.12 C9.72,8.16 10.27,7.62 11.09,7.62 Z M19.33,7.62 C19.67,7.62 19.9,7.68 20.09,7.78 L20.09,8.19 C19.86,8.1 19.65,8.05 19.37,8.05 C18.85,8.05 18.5,8.33 18.5,9.05 L18.5,9.2 C18.5,9.89 18.74,10.29 19.38,10.29 C19.72,10.29 19.94,10.2 20.12,10.12 L20.12,10.53 C19.91,10.64 19.64,10.72 19.28,10.72 C18.45,10.72 17.93,10.23 17.93,9.21 L17.93,9.11 C17.93,8.03 18.56,7.62 19.33,7.62 Z M12.89,7.67 L13.89,7.67 C14.57,7.67 14.93,7.96 14.93,8.55 C14.93,8.97 14.72,9.19 14.38,9.32 L14.38,9.34 L15.13,10.67 L14.55,10.67 L13.88,9.45 L13.42,9.45 L13.42,10.67 L12.89,10.67 Z M16.26,7.67 L16.81,7.67 L17.87,10.67 L17.33,10.67 L17.06,9.9 L15.94,9.9 L15.67,10.67 L15.19,10.67 Z M20.54,7.67 L21.07,7.67 L21.07,10.25 L22.33,10.25 L22.33,10.67 L20.54,10.67 Z M22.73,7.67 L24.6,7.67 L24.6,8.09 L23.26,8.09 L23.26,8.92 L24.29,8.92 L24.29,9.33 L23.26,9.33 L23.26,10.25 L24.62,10.25 L24.62,10.67 L22.73,10.67 Z M11.07,8.03 C10.54,8.03 10.28,8.45 10.28,9.06 L10.28,9.21 C10.28,9.89 10.5,10.31 11.09,10.31 C11.62,10.31 11.88,9.89 11.88,9.27 L11.88,9.13 C11.88,8.45 11.66,8.03 11.07,8.03 Z M13.42,8.08 L13.42,9.09 L13.83,9.09 C14.23,9.09 14.38,8.92 14.38,8.57 C14.38,8.22 14.22,8.08 13.83,8.08 Z M16.48,8.3 L16.07,9.5 L16.92,9.5 L16.5,8.3 Z M7.98,13.23 L7.98,19.1 L17.58,19.1 C18.6,18.07 20,17.44 21.56,17.44 C23.11,17.44 24.52,18.07 25.53,19.1 L26.04,19.1 L26.04,16.66 L20.85,16.66 L20.85,15.67 L26.04,15.67 L26.04,13.23 Z M21.56,18.19 C18.89,18.19 16.71,20.37 16.71,23.05 C16.71,25.72 18.89,27.9 21.56,27.9 C22.43,27.9 23.25,27.66 23.95,27.25 L26.67,29.98 L28.25,28.4 L25.59,25.73 C26.1,24.96 26.41,24.04 26.41,23.05 C26.41,20.37 24.23,18.19 21.56,18.19 Z M21.56,19.09 C23.74,19.09 25.5,20.87 25.5,23.05 C25.5,25.22 23.74,27 21.56,27 C19.38,27 17.6,25.22 17.6,23.05 C17.6,20.87 19.38,19.09 21.56,19.09 Z M7.98,20.6 L7.98,26.47 L17.14,26.47 C16.4,25.52 15.96,24.33 15.96,23.05 C15.96,22.17 16.16,21.34 16.52,20.6 Z" fill="none" stroke="currentColor" stroke-width="1.5"/></svg>