<svg xmlns="http://www.w3.org/2000/svg" viewBox="0 0 22.5 22.5" width="24" height="24"><path d="M0.01,22.5 L0,0 L22.5,0 L22.5,22.5 Z" fill="none" stroke="currentColor" stroke-width="1.5"/><path d="M8.89,10.03 L12.06,10.78 L12.18,10.23 L9.02,9.5 Z M8.62,11.03 L11.78,11.77 L11.91,11.23 L8.75,10.47 Z M4.63,12.24 C4.65,11.07 4.89,10 5.38,9.03 C5.92,7.95 6.61,7.13 7.31,6.5 C7.43,6.39 7.59,6.43 7.65,6.49 L8.43,7.26 L8.43,3.94 L5.11,3.94 L5.87,4.7 C6,4.82 5.97,4.98 5.87,5.09 C4.74,6.24 3.77,7.41 3.77,9.08 C3.77,10.19 4.22,11.29 4.63,12.24 Z M10.06,15.31 C13.68,15.31 15.52,12.37 15.52,10.02 C15.52,6.83 12.9,4.63 10.27,4.63 C9.86,4.63 9.44,4.65 8.95,4.79 L8.95,6.09 L12,6.81 L11.54,8.57 L13.4,9.01 L12.27,13.83 L7.36,12.69 L8.46,8.01 L7.49,7.05 C6.39,8.09 5.26,9.76 5.16,11.84 C6.14,14.36 8.5,15.31 10.06,15.31 Z M10.01,16.53 C7.56,16.53 4.9,14.85 3.96,12.06 C3.37,10.54 3,9.16 3.46,7.65 C3.81,6.58 4.53,5.71 5.32,4.88 L4.29,3.85 C4.16,3.71 4.23,3.42 4.49,3.42 L8.68,3.42 C8.83,3.42 8.87,3.48 8.91,3.54 C9.36,3.45 9.74,3.43 10.19,3.42 C13.87,3.42 16.73,6.4 16.73,10.06 C16.73,12.96 14.45,16.53 10.01,16.53 Z M18.48,15.89 L16.06,18.32 L14.5,16.78 C14.25,16.5 14.23,15.98 14.54,15.68 L15.84,14.37 C16.13,14.1 16.62,14.11 16.9,14.34 Z M19.01,16.42 C19.36,16.79 19.33,17.25 19.03,17.57 L17.73,18.87 C17.41,19.17 16.92,19.16 16.6,18.85 Z" fill="none" stroke="currentColor" stroke-width="1.5"/><path d="M11.54,8.56 L11.99,6.81 L13.39,9.01 Z M8.9,10.04 L8.95,9.8 L11.96,10.51 L11.89,10.75 Z M8.82,10.86 L8.91,10.51 L11.91,11.23 L11.83,11.56 Z" fill="none" stroke="currentColor" stroke-width="1.5"/></svg>