<svg xmlns="http://www.w3.org/2000/svg" viewBox="0 0 34.02 34.02" width="24" height="24"><path d="M0,34.02 L34.02,34.02 L34.02,0 L0,0 Z" fill="none" stroke="currentColor" stroke-width="1.5"/><path d="M21.57,4.76 C17.84,4.76 14.76,7.57 14.35,11.2 C13.27,10.56 12.01,10.19 10.66,10.19 C6.65,10.19 3.39,13.45 3.39,17.47 C3.39,21.48 6.65,24.74 10.66,24.74 C12.01,24.74 13.27,24.37 14.35,23.74 C14.76,27.36 17.84,30.18 21.57,30.18 C25.59,30.18 28.85,26.93 28.85,22.91 C28.85,20.74 27.9,18.8 26.4,17.47 C27.9,16.14 28.85,14.19 28.85,12.03 C28.85,8.01 25.59,4.76 21.57,4.76 Z M22.31,8.4 C23.47,8.48 24.58,9.12 25.21,10.21 C26.21,11.95 25.61,14.17 23.87,15.18 C22.8,15.8 21.54,15.81 20.5,15.32 L18.72,17.47 L20.51,19.62 C22.21,18.82 24.25,19.44 25.21,21.09 C26.21,22.83 25.61,25.05 23.87,26.06 C22.14,27.06 19.91,26.47 18.91,24.73 C18.17,23.45 18.3,21.9 19.11,20.78 L17.11,18.38 L14.67,18.38 C14.43,19.29 13.85,20.11 12.97,20.62 C11.23,21.62 9,21.02 8,19.28 C7,17.55 7.59,15.32 9.33,14.32 C11.07,13.31 13.29,13.91 14.3,15.65 C14.46,15.94 14.59,16.25 14.67,16.56 L17.11,16.56 L19.11,14.16 C19.04,14.06 18.97,13.95 18.91,13.85 C17.9,12.11 18.5,9.89 20.24,8.88 C20.89,8.5 21.61,8.35 22.31,8.4 Z" fill="none" stroke="currentColor" stroke-width="1.5"/></svg>