<svg xmlns="http://www.w3.org/2000/svg" viewBox="0 0 22.5 22.5" width="24" height="24"><path d="M0,22.5 L0,0 L22.5,0 L22.5,22.5 Z" fill="none" stroke="currentColor" stroke-width="1.5"/><path d="M13.81,7.52 L13.81,4.96 L8.78,4.96 L8.78,7.52 Z M19.54,13.31 L19.54,8.26 L3.04,8.26 L3.04,13.31 L9.71,13.31 L9.71,14.94 L11.28,16.52 L12.88,14.95 L12.88,13.31 Z M2.25,19.04 L2.25,7.52 L7.28,7.52 L7.28,4 C7.28,3.65 7.62,3.46 7.81,3.46 L14.7,3.46 C15.07,3.46 15.26,3.75 15.26,4.01 L15.26,7.52 L20.24,7.52 L20.24,19.04 Z" fill="none" stroke="currentColor" stroke-width="1.5"/></svg>