<svg xmlns="http://www.w3.org/2000/svg" viewBox="0 0 17.82 24.63" width="24" height="24"><path d="M17.82,4.47 L17.82,24.63 L0,24.63 L0,0 L13.44,0 Z" fill="none" stroke="currentColor" stroke-width="1.5"/><path d="M13.02,1.56 L13.02,4.94 L16.35,4.94 C16.38,4.94 13.02,1.56 13.02,1.56 Z M8.77,6.56 C6.8,6.56 5.02,7.66 4.12,9.35 L2.91,9 L3.69,12.19 L6.06,9.92 L4.58,9.49 C5.42,7.99 7.01,7.03 8.77,7.03 C11.42,7.03 13.57,9.19 13.57,11.84 C13.57,14.49 11.42,16.64 8.77,16.64 C7.43,16.64 6.19,16.11 5.28,15.14 L4.93,15.46 C5.94,16.53 7.3,17.11 8.77,17.11 C11.68,17.11 14.04,14.75 14.04,11.84 C14.04,8.93 11.68,6.56 8.77,6.56 Z M12.5,18.53 L12.5,22.25 C12.75,22.34 13.19,22.4 13.54,22.4 C14.45,22.4 14.93,21.92 14.93,20.98 L14.93,20.91 C14.93,19.92 14.41,19.61 13.91,19.61 C13.56,19.61 13.31,19.7 13.12,19.84 L13.09,19.84 L13.09,18.53 Z M11.45,19.63 C11.17,19.63 10.9,19.78 10.75,19.97 L10.72,19.97 L10.72,19.66 L10.16,19.66 L10.16,22.34 L10.75,22.34 L10.75,20.34 C10.92,20.23 11.16,20.16 11.41,20.16 C11.46,20.16 11.55,20.16 11.62,20.17 L11.62,19.66 C11.59,19.64 11.52,19.63 11.45,19.63 Z M6.75,19.66 L7.73,22.34 L8.33,22.34 L9.3,19.66 L8.73,19.66 L8.06,21.63 L8.04,21.63 L7.38,19.66 Z M13.63,20.09 C14.1,20.09 14.32,20.3 14.32,20.96 L14.32,21.06 C14.32,21.76 13.98,21.95 13.58,21.95 C13.35,21.95 13.19,21.91 13.09,21.87 L13.09,20.23 C13.2,20.17 13.41,20.09 13.63,20.09 Z M5.64,21.74 L5.64,22.34 L6.26,22.34 L6.26,21.74 Z" fill="none" stroke="currentColor" stroke-width="1.5"/></svg>