<svg xmlns="http://www.w3.org/2000/svg" viewBox="0 0 34.02 34.02" width="24" height="24"><path d="M0,34.02 L34.02,34.02 L34.02,0 L0,0 Z" fill="none" stroke="currentColor" stroke-width="1.5"/><path d="M13.45,6.68 L13.45,12.22 L8.48,7.25 L7.32,8.41 L12.29,13.38 L6.75,13.38 L6.75,13.75 L6.75,15.02 L6.75,15.38 L15.44,15.38 L15.44,6.68 L15.09,6.68 L13.79,6.68 Z M16.86,6.68 L16.86,8.27 L25.78,8.27 L25.78,8.26 C26.05,8.27 26.03,8.38 26.04,8.54 L26.03,8.54 L26.03,17.24 L27.61,17.24 L27.61,8.15 L27.61,8.15 C27.6,6.92 27.42,6.68 26.16,6.69 L26.16,6.68 Z M17.75,12.05 L17.75,24.15 L22.58,24.15 L22.58,12.05 Z M6.75,17.31 L6.75,26.22 C6.76,27.45 6.95,27.69 8.2,27.69 L17.5,27.69 L17.5,26.11 L8.59,26.11 C8.32,26.11 8.34,25.99 8.33,25.83 L8.33,17.31 Z M11.7,17.49 L11.7,24.15 L16.54,24.15 L16.54,17.49 Z M25.96,19.06 L25.96,26.04 L18.99,26.04 L18.99,26.11 L18.98,26.11 L18.98,27.31 L18.99,27.31 L18.99,27.65 L27.58,27.65 L27.58,19.06 Z" fill="none" stroke="currentColor" stroke-width="1.5"/></svg>