<svg xmlns="http://www.w3.org/2000/svg" viewBox="0 0 28.35 28.35" width="24" height="24"><path d="M0,28.35 L28.35,28.35 L28.35,0 L0,0 Z" fill="none" stroke="currentColor" stroke-width="1.5"/><path d="M13.96,5.45 C12.6,5.45 11.24,5.79 9.99,6.44 C7.42,7.76 5.7,10.22 5.38,13.02 L6.12,13.1 C6.41,10.56 7.99,8.32 10.34,7.1 C12.17,6.16 14.24,5.95 16.17,6.52 C17.78,6.98 19.13,7.96 20.06,9.28 L18.18,10.64 L23.08,12.84 L22.54,7.5 L20.67,8.84 C19.65,7.39 18.16,6.31 16.39,5.8 C15.59,5.56 14.78,5.44 13.96,5.45 Z M21.81,15.21 C21.53,17.76 19.97,20.01 17.62,21.23 C15.79,22.18 13.72,22.4 11.79,21.84 C10.25,21.39 8.96,20.49 8.03,19.27 L10.05,17.96 L5.27,15.53 L5.55,20.89 L7.4,19.68 C8.43,21.05 9.87,22.06 11.58,22.56 C12.35,22.78 13.15,22.89 13.94,22.89 C15.32,22.89 16.7,22.56 17.97,21.89 C20.53,20.55 22.25,18.09 22.56,15.29 Z" fill="none" stroke="currentColor" stroke-width="1.5"/></svg>