<svg xmlns="http://www.w3.org/2000/svg" viewBox="0 0 34.02 34.02" width="24" height="24"><path d="M0,34.02 L34.02,34.02 L34.02,0 L0,0 Z" fill="none" stroke="currentColor" stroke-width="1.5"/><path d="M17.67,5.76 C14.85,5.76 12.47,7.29 11.6,9.41 C11.35,9.37 11.1,9.35 10.84,9.35 C7.99,9.35 5.68,11.66 5.68,14.51 C5.68,17.36 7.99,19.67 10.84,19.67 L23.83,19.67 C26.32,19.67 28.34,17.66 28.34,15.17 C28.34,12.76 26.44,10.79 24.06,10.67 C23.77,7.92 21.02,5.76 17.67,5.76 Z M15.14,21.62 L11.49,25.28 L9.05,22.85 L9.05,28.26 L14.46,28.26 L12.02,25.81 L15.67,22.15 Z M19.56,21.89 L22,24.33 L18.35,27.99 L18.88,28.52 L22.53,24.86 L24.97,27.3 L24.97,21.89 Z" fill="none" stroke="currentColor" stroke-width="1.5"/></svg>