<svg xmlns="http://www.w3.org/2000/svg" viewBox="0 0 37.5 36.13" width="24" height="24"><path d="M3.58,36.13 C1.94,36.13 0,34.68 0,32.51 L0,26.25 L33.83,26.25 C36.14,26.25 37.5,28.27 37.5,29.83 L37.5,36.13 Z" fill="none" stroke="currentColor" stroke-width="1.5"/><path d="M7.5,22.5 L7.5,0 L30,0 L30,22.5 Z" fill="none" stroke="currentColor" stroke-width="1.5"/><path d="M16.68,15.05 C19.93,15.05 22.33,12.3 22.33,9.38 C22.33,6.15 19.76,3.63 16.64,3.63 C13.71,3.63 10.92,5.91 10.92,9.34 C10.92,12.81 13.76,15.05 16.68,15.05 Z M23.98,19.05 L21.45,16.51 L21.89,16.05 L20.89,15.05 C19.6,16.02 18.06,16.47 16.72,16.47 C12.65,16.47 9.49,13.32 9.49,9.28 C9.49,5.86 12.25,2.22 16.6,2.22 C20.82,2.22 23.74,5.59 23.74,9.41 C23.74,10.89 23.24,12.42 22.32,13.62 L23.39,14.68 C23.78,14.53 24.21,14.61 24.52,14.9 L26.33,16.7 Z M26.39,19.98 C25.94,20.4 25.35,20.37 24.93,19.99 L24.41,19.47 L26.76,17.13 L28,18.37 Z M31.74,32.09 L31.74,30.29 L34.55,30.29 L34.55,32.09 Z M21.22,33.07 L21.22,29.31 L30.66,29.31 L30.66,33.07 Z M18.28,32.6 C17.63,32.6 16.99,32.04 16.99,31.16 C16.99,30.41 17.58,29.78 18.29,29.78 C19.03,29.78 19.55,30.5 19.55,31.16 C19.55,31.99 18.98,32.6 18.28,32.6 Z M5.9,33.07 L5.9,29.31 L15.33,29.31 L15.33,33.07 Z M3.71,32.06 C3.28,32.06 2.95,31.64 2.95,31.2 C2.95,30.73 3.29,30.33 3.71,30.33 C4.22,30.33 4.52,30.76 4.52,31.2 C4.52,31.67 4.17,32.06 3.71,32.06 Z" fill="none" stroke="currentColor" stroke-width="1.5"/></svg>