<svg xmlns="http://www.w3.org/2000/svg" viewBox="0 0 34.02 34.02" width="24" height="24"><path d="M0,34.02 L34.02,34.02 L34.02,0 L0,0 Z" fill="none" stroke="currentColor" stroke-width="1.5"/><path d="M8.18,6.52 C6.36,6.52 4.88,8 4.88,9.82 C4.88,11.65 6.36,13.13 8.18,13.13 C10.01,13.13 11.48,11.65 11.48,9.82 C11.48,8 10.01,6.52 8.18,6.52 Z M25.42,6.52 C23.59,6.52 22.11,8 22.11,9.82 C22.11,11.65 23.59,13.13 25.42,13.13 C27.24,13.13 28.72,11.65 28.72,9.82 C28.72,8 27.24,6.52 25.42,6.52 Z M13.34,8.8 C13.4,9.13 13.44,9.47 13.44,9.82 C13.44,10.17 13.4,10.51 13.34,10.85 L20.26,10.85 C20.2,10.51 20.16,10.17 20.16,9.82 C20.16,9.47 20.2,9.13 20.26,8.8 Z M11.59,13.81 C11.08,14.25 10.48,14.6 9.82,14.81 L13.41,21.22 C13.92,20.77 14.52,20.42 15.18,20.19 Z M22.01,13.81 L18.45,20.15 C19.11,20.36 19.71,20.69 20.24,21.13 L23.78,14.81 C23.13,14.6 22.52,14.25 22.01,13.81 Z M16.87,21.86 C15.05,21.86 13.57,23.34 13.57,25.17 C13.57,26.99 15.05,28.47 16.87,28.47 C18.7,28.47 20.18,26.99 20.18,25.17 C20.18,23.34 18.7,21.86 16.87,21.86 Z" fill="none" stroke="currentColor" stroke-width="1.5"/></svg>