<svg xmlns="http://www.w3.org/2000/svg" viewBox="0 0 82.05 79.44" width="24" height="24"><path d="M0,43.45 L82.04,43.45 L82.04,21.41 L0,21.41 Z" fill="none" stroke="currentColor" stroke-width="1.5"/><path d="M82.03,43.44 L41.04,68.33 L0.03,43.45 Z" fill="none" stroke="currentColor" stroke-width="1.5"/><rect x="0" y="0" width="0" height="0" fill="none" stroke="currentColor"/><path d="M59.06,68.28 L26.64,68.29 L26.64,68.28 C23.51,68.28 20.88,70.9 20.88,74.03 L20.87,74.03 L20.87,79.44 L59.06,79.43 Z M65.08,16.97 L82.05,16.97 L82.05,0 L65.08,0 Z M43.41,16.97 L60.38,16.97 L60.38,0 L43.41,0 Z M21.75,16.97 L38.72,16.97 L38.72,0 L21.75,0 Z M0.09,16.97 L17.06,16.97 L17.06,0 L0.09,0 Z" fill="none" stroke="currentColor" stroke-width="1.5"/><path d="M50.35,28.91 L50.35,29.97 L51.63,29.97 L51.64,28.92 Z M11.82,28.94 L11.79,35.17 L13.17,35.17 L13.18,32.49 L15.55,32.5 L15.54,35.19 L16.91,35.19 L16.95,28.96 L15.57,28.96 L15.56,31.46 L13.19,31.45 L13.2,28.94 Z M28.46,30.44 C28,30.44 27.63,30.56 27.35,30.73 C27.25,30.79 27.17,30.85 27.1,30.92 L27.05,30.92 L27.05,30.53 L25.83,30.52 L25.8,36.99 L27.06,37 L27.08,35.11 C27.27,35.22 27.61,35.34 28.11,35.34 C29.4,35.35 30.27,34.67 30.28,32.86 L30.28,32.75 C30.29,31.01 29.41,30.45 28.46,30.44 Z M19.09,30.49 L20.84,35.11 L20.69,35.49 C20.53,35.89 20.27,36.05 19.84,36.05 C19.68,36.05 19.5,36.02 19.36,36 L19.35,36.85 C19.51,36.93 19.86,37 20.14,37 C21.07,37 21.54,36.63 21.87,35.71 L23.74,30.51 L22.54,30.5 L21.51,33.61 L21.48,33.61 L20.42,30.49 Z M34.57,30.49 C33.28,30.48 32.34,31.31 32.33,32.85 L32.33,32.97 C32.32,34.49 33.11,35.37 34.71,35.38 C35.55,35.38 36.12,35.16 36.44,34.94 L36.45,34.13 C36.06,34.3 35.6,34.44 35.02,34.43 C34.16,34.43 33.7,34.15 33.61,33.26 L36.62,33.27 L36.62,32.84 C36.63,31.32 36.03,30.49 34.57,30.49 Z M41.37,30.56 C41,30.56 40.65,30.7 40.39,30.91 C40.31,30.99 40.23,31.07 40.17,31.15 L40.12,31.15 L40.12,30.6 L38.9,30.59 L38.88,35.31 L40.14,35.31 L40.16,31.93 C40.45,31.77 40.85,31.67 41.27,31.67 C41.38,31.67 41.55,31.69 41.66,31.71 L41.66,30.59 C41.61,30.57 41.5,30.56 41.37,30.56 Z M55.74,30.6 C54.5,30.59 53.91,31.15 53.91,32.05 C53.9,32.93 54.37,33.32 55.12,33.47 L55.56,33.55 C56.03,33.65 56.19,33.77 56.19,34.07 C56.19,34.38 55.93,34.56 55.31,34.56 C54.66,34.55 54.29,34.42 53.9,34.26 L53.9,35.15 C54.29,35.35 54.87,35.48 55.49,35.48 C55.8,35.49 56.08,35.46 56.32,35.39 C56.44,35.36 56.55,35.32 56.65,35.27 C57.15,35.04 57.41,34.6 57.41,33.98 C57.42,33.16 57.07,32.73 56.13,32.55 L55.68,32.46 C55.26,32.37 55.09,32.27 55.09,31.98 C55.1,31.66 55.35,31.51 55.87,31.51 C56.15,31.52 56.4,31.55 56.61,31.6 C56.83,31.64 57.01,31.7 57.14,31.75 L57.15,30.86 C56.83,30.71 56.4,30.6 55.74,30.6 Z M43.54,30.61 L45.2,35.34 L46.51,35.35 L48.22,30.64 L47.03,30.63 L45.94,33.87 L45.9,33.87 L44.86,30.62 Z M61.76,30.62 C60.42,30.61 59.45,31.45 59.44,33.02 L59.44,33.15 C59.43,34.64 60.24,35.51 61.73,35.52 C63.08,35.52 64.05,34.69 64.06,33.12 L64.06,32.99 C64.07,31.48 63.25,30.63 61.76,30.62 Z M50.35,30.65 L50.33,35.37 L51.6,35.37 L51.62,30.66 Z M68.81,30.7 C68.44,30.7 68.09,30.84 67.83,31.06 C67.74,31.13 67.66,31.22 67.6,31.3 L67.56,31.3 L67.56,30.74 L66.34,30.73 L66.31,35.45 L67.58,35.46 L67.6,32.08 C67.89,31.92 68.28,31.81 68.71,31.81 C68.81,31.81 68.98,31.83 69.09,31.85 L69.1,30.74 C69.04,30.71 68.94,30.7 68.81,30.7 Z M34.55,31.37 C35.1,31.37 35.39,31.67 35.39,32.48 L33.61,32.47 C33.69,31.59 34.12,31.36 34.55,31.37 Z M27.97,31.45 C28.62,31.45 28.98,31.74 28.97,32.84 L28.97,33.01 C28.97,34.11 28.57,34.44 27.9,34.43 C27.55,34.43 27.23,34.32 27.08,34.19 L27.09,31.68 C27.26,31.56 27.56,31.45 27.97,31.45 Z M61.74,31.54 C62.32,31.54 62.76,31.82 62.76,33 L62.76,33.2 C62.75,34.2 62.38,34.61 61.75,34.61 C61.18,34.61 60.73,34.31 60.73,33.15 L60.73,32.94 C60.74,31.94 61.11,31.53 61.74,31.54 Z M3.37,6.03 L5.08,10.94 L6.17,10.94 L7.88,6.03 L6.88,6.03 L5.7,9.63 L5.67,9.63 L4.48,6.03 Z M8.66,6.03 L8.66,10.94 L9.57,10.94 L9.57,7.32 L9.6,7.32 L10.73,10.94 L11.55,10.94 L12.69,7.32 L12.71,7.32 L12.71,10.94 L13.78,10.94 L13.78,6.03 L12.31,6.03 L11.25,9.43 L11.22,9.43 L10.14,6.03 Z M25.03,6.03 L26.74,10.94 L27.83,10.94 L29.55,6.03 L28.54,6.03 L27.36,9.63 L27.34,9.63 L26.14,6.03 Z M30.32,6.03 L30.32,10.94 L31.24,10.94 L31.24,7.32 L31.27,7.32 L32.39,10.94 L33.21,10.94 L34.35,7.32 L34.37,7.32 L34.37,10.94 L35.44,10.94 L35.44,6.03 L33.98,6.03 L32.91,9.43 L32.88,9.43 L31.8,6.03 Z M46.69,6.03 L48.41,10.94 L49.5,10.94 L51.21,6.03 L50.2,6.03 L49.02,9.63 L49,9.63 L47.8,6.03 Z M51.99,6.03 L51.99,10.94 L52.9,10.94 L52.9,7.32 L52.93,7.32 L54.05,10.94 L54.88,10.94 L56.02,7.32 L56.04,7.32 L56.04,10.94 L57.11,10.94 L57.11,6.03 L55.64,6.03 L54.57,9.43 L54.54,9.43 L53.47,6.03 Z M68.36,6.03 L70.07,10.94 L71.16,10.94 L72.87,6.03 L71.87,6.03 L70.69,9.63 L70.66,9.63 L69.47,6.03 Z M73.65,6.03 L73.65,10.94 L74.56,10.94 L74.56,7.32 L74.59,7.32 L75.72,10.94 L76.54,10.94 L77.68,7.32 L77.7,7.32 L77.7,10.94 L78.77,10.94 L78.77,6.03 L77.3,6.03 L76.23,9.43 L76.21,9.43 L75.13,6.03 Z M32.73,74.23 L54.03,74.23 L54.03,73.48 L32.73,73.48 Z M28.34,73.86 C28.34,74.71 27.65,75.4 26.8,75.4 C25.95,75.4 25.26,74.71 25.25,73.86 C25.25,73.01 25.95,72.31 26.8,72.31 C27.65,72.31 28.34,73 28.34,73.86 Z" fill="none" stroke="currentColor" stroke-width="1.5"/></svg>