<svg xmlns="http://www.w3.org/2000/svg" viewBox="0 0 22.5 22.5" width="24" height="24"><path d="M0,22.5 L0,0 L22.5,0 L22.5,22.5 Z" fill="none" stroke="currentColor" stroke-width="1.5"/><path d="M6.27,5.14 C6.08,5.14 5.86,4.96 5.86,4.73 L5.86,4.04 C5.86,3.82 6.03,3.62 6.3,3.62 L11.51,3.61 C11.7,3.61 11.91,3.77 11.91,4.03 L11.91,4.7 C11.91,4.94 11.73,5.14 11.51,5.14 Z M8.73,18.89 C5.96,18.89 2.85,16.64 2.85,12.77 C2.85,10.66 4.15,8.56 6.2,7.56 L6.2,5.66 L11.42,5.66 L11.43,7.56 C13.53,8.57 14.76,10.67 14.78,12.87 C14.78,16.31 12.05,18.89 8.73,18.89 Z" fill="none" stroke="currentColor" stroke-width="1.5"/><rect x="0" y="0" width="0" height="0" fill="none" stroke="currentColor"/><path d="M6.74,17.16 C6.47,17.16 6.15,16.98 6.15,16.56 L6.15,9.35 C6.14,8.87 6.44,8.68 6.73,8.68 L11.04,8.68 C11.45,8.68 11.63,9.01 11.63,9.25 L11.63,16.62 C11.63,16.85 11.41,17.16 11.06,17.16 Z" fill="none" stroke="currentColor" stroke-width="1.5"/><rect x="0" y="0" width="0" height="0" fill="none" stroke="currentColor"/><path d="M7.21,11.8 L7.21,9.75 L10.57,9.75 L10.57,11.8 Z M7.21,14.63 L7.21,14.1 L10.57,14.1 L10.57,14.63 Z M7.21,15.84 L7.21,15.29 L10.57,15.29 L10.57,15.84 Z" fill="none" stroke="currentColor" stroke-width="1.5"/><path d="M13.69,8.63 C13.56,8.47 13.43,8.31 13.2,8.14 L13.2,7.75 C13.2,7.46 13.36,7.31 13.57,7.31 L17.15,7.31 C17.4,7.31 17.5,7.55 17.5,7.69 L17.5,8.28 C17.5,8.48 17.31,8.63 17.14,8.63 Z M15.34,13.55 L15.34,12.27 L16.4,12.27 L16.4,13.55 Z M14.91,15.32 C14.95,15.21 15,15.12 15.03,14.98 L16.4,14.98 L16.4,15.32 Z M14.56,16.07 C14.63,15.95 14.69,15.84 14.72,15.73 L16.4,15.73 L16.4,16.07 Z M14,16.9 L16.7,16.9 C16.87,16.9 17.06,16.78 17.06,16.53 L17.06,11.98 C17.06,11.73 16.89,11.59 16.73,11.59 L15.23,11.59 C15.07,10.68 14.66,9.86 14.15,9.14 L17.23,9.14 L17.23,10.71 C18.51,11.32 19.65,12.71 19.65,14.64 C19.65,16.34 18.47,18.48 15.89,18.86 C14.84,18.96 13.84,18.77 12.82,18.07 C13.27,17.72 13.67,17.34 14,16.9 Z" fill="none" stroke="currentColor" stroke-width="1.5"/></svg>