<svg xmlns="http://www.w3.org/2000/svg" viewBox="0 0 22.5 22.5" width="24" height="24"><path d="M0,22.5 L0,0 L22.5,0 L22.5,22.5 Z" fill="none" stroke="currentColor" stroke-width="1.5"/><rect x="0" y="0" width="0" height="0" fill="none" stroke="currentColor"/><path d="M18.9,11.4 L18.9,10.68 L17.57,10.68 L17.57,11.4 L17.82,11.4 C17.82,11.5 17.92,11.72 18.22,11.72 C18.5,11.72 18.64,11.5 18.64,11.4 Z M17.04,11.4 L17.04,10.68 L15.71,10.68 L15.71,11.4 L15.96,11.4 C15.96,11.5 16.06,11.72 16.36,11.72 C16.64,11.72 16.78,11.5 16.78,11.4 Z M3.66,12.82 C2.8,12.82 1.88,12.33 1.88,11.29 L1.88,9.68 L18.81,9.68 C19.87,9.68 20.63,10.28 20.63,11.21 L20.63,12.82 Z M3.49,11.88 L12.05,11.88 L12.05,10.61 L3.49,10.61 Z M15.18,11.4 L15.18,10.68 L13.85,10.68 L13.85,11.4 L14.1,11.4 C14.1,11.5 14.2,11.72 14.5,11.72 C14.78,11.72 14.92,11.5 14.92,11.4 Z" fill="none" stroke="currentColor" stroke-width="1.5"/></svg>