<svg xmlns="http://www.w3.org/2000/svg" viewBox="0 0 35.83 35.74" width="24" height="24"><path d="M0,28.35 L28.35,28.35 L28.35,0 L0,0 Z" fill="none" stroke="currentColor" stroke-width="1.5"/><path d="M35.46,28.27 C35.46,32.19 32.28,35.36 28.37,35.36 C24.46,35.36 21.28,32.19 21.28,28.27 C21.28,24.36 24.46,21.19 28.37,21.19 C32.28,21.19 35.46,24.36 35.46,28.27 Z" fill="none" stroke="currentColor" stroke-width="1.5"/><path d="M27.83,31.36 L24.66,28.19 L25.19,27.66 L27.82,30.29 L31.8,26.27 L32.33,26.79 Z M28.37,35.74 C24.26,35.74 20.91,32.39 20.91,28.27 C20.91,24.16 24.26,20.81 28.37,20.81 C32.48,20.81 35.83,24.16 35.83,28.27 C35.83,32.39 32.48,35.74 28.37,35.74 Z M28.37,21.56 C24.67,21.56 21.66,24.57 21.66,28.27 C21.66,31.97 24.67,34.99 28.37,34.99 C32.07,34.99 35.08,31.97 35.08,28.27 C35.08,24.57 32.07,21.56 28.37,21.56 Z M14.31,10.08 L16.79,10.08 L18.58,15.76 L18.63,15.76 L20.42,10.08 L22.86,10.08 L22.86,18.28 L21.08,18.28 L21.08,12.25 L21.04,12.25 L19.14,18.28 L17.77,18.28 L15.89,12.25 L15.84,12.25 L15.84,18.28 L14.31,18.28 Z M5.47,10.08 L7.33,10.08 L9.33,16.1 L9.36,16.1 L11.34,10.08 L13.02,10.08 L10.16,18.28 L8.33,18.28 Z" fill="none" stroke="currentColor" stroke-width="1.5"/></svg>