<svg xmlns="http://www.w3.org/2000/svg" viewBox="0 0 18.72 25.22" width="24" height="24"><path d="M0,25.22 L0,0 L18.72,0 L18.72,25.22 Z" fill="none" stroke="currentColor" stroke-width="1.5"/><path d="M6.86,12.85 L11.86,12.85 L11.86,17.86 L6.86,17.86 Z M12.47,17.86 L12.47,12.85 L17.48,12.85 L17.48,17.86 Z M1.24,12.08 L1.24,7.07 L6.24,7.07 L6.24,12.08 Z M6.86,7.07 L11.86,7.07 L11.86,12.08 L6.86,12.08 Z M1.24,6.3 L1.24,1.3 L6.24,1.3 L6.24,6.3 Z M12.47,6.3 L12.47,1.3 L17.48,1.3 L17.48,6.3 Z" fill="none" stroke="currentColor" stroke-width="1.5"/><path d="M1.24,17.86 L1.24,12.85 L6.24,12.85 L6.24,17.86 Z M12.47,12.08 L12.47,7.07 L17.48,7.07 L17.48,12.08 Z M6.86,1.3 L11.86,1.3 L11.86,6.3 L6.86,6.3 Z" fill="none" stroke="currentColor" stroke-width="1.5"/></svg>