<svg xmlns="http://www.w3.org/2000/svg" viewBox="0 0 100.06 97.39" width="24" height="24"><path d="M0,81.89 L0,0 L81.11,0 L81.11,62.85 L77.09,57.3 L69.77,60.32 L70.82,67.87 L63.29,66.63 L60.14,73.99 L66.15,78.48 L61.41,81.89 Z" fill="none" stroke="currentColor" stroke-width="1.5"/><path d="M97.65,88.82 L90.65,87.74 L90.09,88.31 L90.99,95.19 L85.48,97.39 L81.25,91.64 L80.58,91.59 L76.25,97.2 L71.16,95.02 L71.93,87.78 L71.4,87.31 L64.37,88.28 L62.07,82.77 L68.06,78.51 L68.07,77.96 L62.33,73.55 L64.63,68.18 L71.77,69.22 L72.21,68.81 L71.27,61.66 L76.82,59.51 L81.06,65.34 L81.63,65.33 L86.04,59.62 L91.39,61.93 L90.35,68.93 L90.95,69.48 L97.92,68.57 L100.06,74.1 L94.54,78.11 L94.44,79.1 L99.97,83.3 Z" fill="none" stroke="currentColor" stroke-width="1.5"/><path d="M38.5,52.79 L39.81,30.32 L46.68,30.32 L50.74,45.34 L55.14,30.32 L61.84,30.32 L63.06,52.79 L58.1,52.79 L57.41,35.57 L52.31,52.79 L48.42,52.79 L44,35.5 L43.18,52.79 Z M23.23,52.79 L16.07,30.32 L21.75,30.32 L26.46,47.38 L31.32,30.32 L36.78,30.32 L29.15,52.79 Z M81.51,86.39 C77.38,86.39 73.73,83.26 73.73,78.69 C73.73,74.68 76.95,71.12 81.27,71.12 C85.19,71.12 89.04,73.99 89.04,79.05 C89.04,82.89 85.77,86.39 81.51,86.39 Z" fill="none" stroke="currentColor" stroke-width="1.5"/></svg>