<svg xmlns="http://www.w3.org/2000/svg" viewBox="0 0 22.5 41.67" width="24" height="24"><path d="M0,41.67 L0,19.17 L22.5,19.17 L22.5,41.67 Z" fill="none" stroke="currentColor" stroke-width="1.5"/><path d="M10.67,33.63 L11.06,27.53 L12.91,27.53 L14.07,31.45 L15.3,27.53 L17.12,27.53 L17.45,33.63 L16.1,33.63 L15.91,29.03 L14.49,33.63 L13.4,33.63 L12.18,29.05 L11.95,33.63 Z M6.46,33.63 L4.49,27.53 L6.01,27.53 L7.32,32.03 L8.68,27.53 L10.15,27.53 L8.08,33.63 Z" fill="none" stroke="currentColor" stroke-width="1.5"/><path d="M3.75,15 L3.75,0 L18.75,0 L18.75,15 Z" fill="none" stroke="currentColor" stroke-width="1.5"/><path d="M6.22,13.18 C5.74,13.06 5.67,12.82 5.86,12.39 C5.96,12.09 5.94,11.72 5.78,11.41 C5.7,11.23 5.71,11.07 5.89,10.98 L6.75,10.63 C7.08,10.47 7.23,10.32 7.19,10.1 C7.19,9.93 7.43,9.84 7.63,9.83 C7.99,9.87 8.16,10.02 8.31,10.18 C8.59,10.52 8.74,10.78 8.87,11.09 C9.07,11.58 9.63,12.18 9.95,12.66 C10.13,13.02 10.15,13.35 9.87,13.64 C9.62,13.86 9.28,13.94 8.87,13.9 C8.61,13.86 8.36,13.8 8.14,13.64 C7.29,13.28 6.59,13.31 6.22,13.18 Z M10.49,13.37 C10.48,13.14 10.5,12.85 10.43,12.64 C10.99,12.75 11.43,12.73 11.85,12.5 C12.17,12.32 12.38,12.16 12.59,11.99 C12.54,12.24 12.49,12.54 12.46,12.84 C12.44,13.05 12.43,13.26 12.45,13.47 C11.86,13.31 11.39,13.26 10.49,13.37 Z M13.14,10.11 C13.23,9.95 13.36,9.89 13.49,9.88 C13.67,9.88 13.75,10.02 13.76,10.15 C13.79,10.41 13.89,10.75 14.03,10.87 C14.16,10.95 14.62,10.98 14.93,10.68 L15.33,10.24 C15.54,10.1 15.83,10.27 15.92,10.43 C16.01,10.61 16.05,10.8 16.1,10.99 C16.13,11.07 16.3,11.15 16.43,11.19 C16.72,11.29 16.81,11.56 16.74,11.79 C16.68,12.09 16.48,12.33 16.17,12.54 C15.94,12.71 15.62,12.87 15.42,13.01 C15.27,13.11 15.08,13.28 14.89,13.46 C14.56,13.74 14.22,13.95 13.79,13.98 C13.62,13.99 13.33,13.95 13.12,13.84 C12.92,13.71 12.83,13.43 12.82,13.09 C12.83,12.76 12.89,12.57 12.94,12.37 C12.98,12.24 13.01,11.91 13.02,11.59 C13.05,11.03 13.07,10.65 13.14,10.11 Z M8.5,9.8 C8.23,9.42 7.84,9.22 7.28,9.41 C7.44,8.54 7.9,7.57 8.62,6.59 C8.91,6.17 9.2,5.75 9.45,5.35 C9.48,5.29 9.5,5.2 9.46,5.05 C9.43,4.92 9.39,4.81 9.37,4.59 C9.27,3.69 9.31,3 9.39,2.35 C9.5,1.67 9.96,1.3 10.44,1.14 C11.35,0.88 12.09,1.09 12.66,1.62 C13.21,2.13 13.31,2.63 13.27,3.16 C13.23,4.01 13.39,4.63 13.63,5.18 C13.93,5.84 14.34,6.37 14.73,6.91 C15.15,7.46 15.37,7.96 15.53,8.44 C15.58,8.57 15.67,8.69 15.72,8.79 C15.82,8.98 15.8,9.14 15.72,9.34 C15.57,9.6 15.42,9.63 15.28,9.63 C15.13,9.84 15.02,10.04 14.75,10.25 C14.6,10.34 14.41,10.38 14.21,10.29 C14.1,10.21 14.08,10.17 14.07,10.07 C14.06,9.98 14.06,9.77 14.03,9.62 C13.99,9.53 13.92,9.48 13.81,9.49 C13.85,8.98 13.82,8.7 13.79,8.5 C13.72,8.09 13.59,7.72 13.22,7.08 C12.99,6.65 12.79,6.24 12.72,5.85 C12.69,5.7 12.62,5.45 12.54,5.34 C12.48,5.17 12.44,4.98 12.57,4.82 C12.63,4.76 12.69,4.7 12.63,4.54 C12.54,4.34 12.42,4.12 12.17,4.08 L12.17,3.96 C12.27,3.83 12.36,3.65 12.33,3.4 C12.3,3.08 12.1,2.86 11.78,2.83 C11.4,2.8 11.24,2.97 11.16,3.18 C11.02,3.42 11.06,3.63 11.07,3.85 C11.44,3.89 11.75,3.99 12.01,4.12 C12.13,4.2 12.38,4.35 12.36,4.61 C12.34,4.97 12.07,5.14 11.78,5.32 C11.51,5.48 11.17,5.69 10.6,5.54 C10.29,5.45 9.93,5.21 9.74,4.89 C9.66,4.79 9.68,4.71 9.68,4.63 C9.58,4.8 9.52,5.09 9.72,5.31 C9.83,5.54 9.73,5.78 9.66,5.9 C9.59,6.07 9.43,6.21 9.27,6.49 C9.18,6.61 9.17,6.67 9.3,6.77 C9.41,6.91 9.55,6.86 9.59,7.1 C9.31,7.18 9.08,7.69 8.97,7.98 C8.74,8.56 8.56,9.24 8.5,9.8 Z M10.57,3.86 C10.57,3.68 10.56,3.46 10.37,3.26 C10.22,3.12 10.01,2.96 9.74,3.06 C9.48,3.19 9.54,3.55 9.62,3.68 C9.75,3.88 9.88,3.98 10.03,4.14 C10.21,4.01 10.4,3.87 10.57,3.86 Z" fill="none" stroke="currentColor" stroke-width="1.5"/></svg>