<svg xmlns="http://www.w3.org/2000/svg" viewBox="0 0 28.04 26.49" width="24" height="24"><path d="M16.3,22.5 L0,22.5 L0,0 L22.5,0 L22.5,14.52 C20.57,14.51 18.51,15.35 17.14,17.36 C16.14,18.88 15.82,20.74 16.3,22.5 Z" fill="none" stroke="currentColor" stroke-width="1.5"/><path d="M22.42,26.49 C19.39,26.49 16.82,24 16.82,20.92 C16.82,17.41 19.65,15.25 22.53,15.25 C25.27,15.25 28.04,17.54 28.04,20.94 C28.04,23.62 25.85,26.49 22.42,26.49 Z" fill="none" stroke="currentColor" stroke-width="1.5"/><path d="M20.16,21.99 C19.72,21.99 19.54,21.66 19.54,21.25 L19.54,19.75 L24.72,19.75 C25.15,19.75 25.3,20.06 25.32,20.3 L25.32,21.99 Z" fill="none" stroke="currentColor" stroke-width="1.5"/><path d="M10.68,14.46 L11.06,8.38 L12.91,8.38 L14.06,12.25 L15.3,8.38 L17.12,8.38 L17.44,14.46 L16.1,14.46 L15.92,9.78 L14.5,14.46 L13.4,14.46 L12.19,9.92 L11.95,14.46 Z M6.46,14.46 L4.49,8.38 L6.01,8.38 L7.32,12.88 L8.67,8.38 L10.15,8.38 L8.08,14.46 Z" fill="none" stroke="currentColor" stroke-width="1.5"/></svg>