<svg xmlns="http://www.w3.org/2000/svg" viewBox="0 0 283.09 272.59" width="24" height="24"><path d="M0,233.64 L0,0 L234.4,0 L234.4,154.69 C215.23,152.65 199.16,156.36 181.04,174.29 C162.46,193.62 161.61,221.61 167.17,233.64 L0,233.64 Z" fill="none" stroke="currentColor" stroke-width="1.5"/><path d="M228.2,272.59 C195.86,272.59 172.8,246.74 172.8,217.95 C172.8,191.4 192.45,162.5 230.01,162.5 C254.23,162.5 283.09,183.09 283.09,217.87 C283.09,248.05 258.77,272.59 228.2,272.59 L228.2,272.59 Z" fill="none" stroke="currentColor" stroke-width="1.5"/><path d="M111.77,150.64 L115.57,86.61 L134.96,86.61 L147.19,128.34 L159.43,86.61 L178.83,86.61 L182.54,150.64 L168.84,150.64 L167.08,101.82 L151.16,150.64 L139.55,150.64 L127.15,101.89 L125.49,150.64 L111.77,150.64 Z M66.99,150.64 L46.3,86.61 L62.4,86.61 L75.63,133.44 L89.88,86.61 L105.61,86.61 L83.36,150.64 L66.99,150.64 Z M236.29,248.33 L236.29,195.19 C236.14,190.9 237.64,188.03 242.89,188.03 L253.82,188.03 L253.82,242.24 C253.82,245.66 251.76,248.33 247.36,248.33 L236.29,248.33 Z M201.36,248.33 L201.36,193.75 C201.36,190.62 203.37,188.03 207.42,188.03 L218.52,188.03 L218.52,242.26 C218.52,245.73 216.41,248.4 212.61,248.32 L201.36,248.33 Z" fill="none" stroke="currentColor" stroke-width="1.5"/></svg>