<svg xmlns="http://www.w3.org/2000/svg" viewBox="0 0 35.7 35.7" width="24" height="24"><path d="M0,28.35 L28.35,28.35 L28.35,0 L0,0 Z" fill="none" stroke="currentColor" stroke-width="1.5"/><path d="M35.33,28.24 C35.33,24.32 32.15,21.15 28.24,21.15 C24.33,21.15 21.15,24.32 21.15,28.24 C21.15,32.15 24.33,35.32 28.24,35.32 C32.15,35.32 35.33,32.15 35.33,28.24 Z" fill="none" stroke="currentColor" stroke-width="1.5"/><path d="M5.48,10.08 L8.34,18.27 L10.17,18.27 L13.03,10.08 L11.35,10.08 L9.37,16.1 L9.34,16.1 L7.34,10.08 Z M14.32,10.08 L14.32,18.27 L15.85,18.27 L15.85,12.24 L15.9,12.24 L17.78,18.27 L19.15,18.27 L21.05,12.24 L21.09,12.24 L21.09,18.27 L22.87,18.27 L22.87,10.08 L20.43,10.08 L18.64,15.76 L18.59,15.76 L16.79,10.08 Z M28.24,20.77 C24.12,20.77 20.78,24.12 20.78,28.24 C20.78,32.35 24.12,35.7 28.24,35.7 C32.35,35.7 35.7,32.35 35.7,28.24 C35.7,24.12 32.35,20.77 28.24,20.77 Z M28.24,21.52 C31.94,21.52 34.95,24.53 34.95,28.24 C34.95,31.94 31.94,34.95 28.24,34.95 C24.54,34.95 21.53,31.94 21.53,28.24 C21.53,24.53 24.54,21.52 28.24,21.52 Z M25.98,25.07 L25.98,31.4 L26.73,31.4 L26.73,25.07 Z M29.75,25.07 L29.75,31.4 L30.5,31.4 L30.5,25.07 Z" fill="none" stroke="currentColor" stroke-width="1.5"/></svg>