<svg xmlns="http://www.w3.org/2000/svg" viewBox="0 0 27.51 26.52" width="24" height="24"><path d="M0,22.5 L0,0 L22.5,0 L22.5,14.55 C20.27,14.3 17.96,15.34 16.6,17.33 C15.49,18.97 15.29,20.93 15.71,22.5 Z" fill="none" stroke="currentColor" stroke-width="1.5"/><path d="M10.67,14.46 L11.06,8.37 L12.91,8.37 L14.05,12.29 L15.3,8.37 L17.12,8.37 L17.45,14.46 L16.1,14.46 L15.9,9.88 L14.49,14.46 L13.4,14.46 L12.19,9.97 L11.95,14.46 Z M6.46,14.46 L4.49,8.37 L6.01,8.37 L7.32,12.89 L8.68,8.37 L10.15,8.37 L8.08,14.46 Z" fill="none" stroke="currentColor" stroke-width="1.5"/><path d="M21.93,26.52 C18.93,26.52 16.26,24.22 16.26,20.77 C16.26,17.9 18.78,15.27 21.82,15.27 C25.06,15.27 27.51,17.79 27.51,20.92 C27.51,24.18 24.77,26.52 21.93,26.52 Z" fill="none" stroke="currentColor" stroke-width="1.5"/><path d="M21.32,20.1 L21.32,17.17 C21.32,16.82 21.62,16.57 21.89,16.57 L22.44,16.57 L22.44,19.51 C22.44,19.88 22.14,20.1 21.9,20.1 Z M21.97,24.39 C19.53,24.39 18.39,22.35 18.39,21.05 C18.33,18.89 19.93,17.9 20.57,17.65 L20.57,18.74 C20.04,19.06 19.29,19.85 19.37,21.09 C19.56,22.78 20.94,23.41 21.9,23.41 C23.31,23.41 24.41,22.26 24.41,20.88 C24.4,19.82 23.77,19.07 23.19,18.74 L23.19,17.64 C24.59,18.21 25.38,19.53 25.39,20.9 C25.39,22.88 23.72,24.39 21.97,24.39 Z" fill="none" stroke="currentColor" stroke-width="1.5"/></svg>