<svg xmlns="http://www.w3.org/2000/svg" viewBox="0 0 39.7 11.3" width="24" height="24"><path d="M0,11.3 L39.7,11.3 L39.7,0 L0,0 Z" fill="none" stroke="currentColor" stroke-width="1.5"/><path d="M31.8,2 C31.3,2 31,2.4 31,2.9 L31,3.9 L30,3.9 C29.5,3.9 29.2,4.3 29.2,4.8 L29.2,8.5 C29.2,9 29.5,9.4 30,9.4 L33.6,9.4 C34.1,9.4 34.4,9 34.4,8.5 L34.4,7.5 L35.4,7.5 C35.9,7.5 36.2,7.1 36.2,6.6 L36.2,2.9 C36.2,2.4 35.8,2 35.4,2 Z M2.75,2.15 L2.75,9.1 L2.75,9.35 L25.75,9.35 L25.75,2.15 Z M3.25,2.65 L5.45,2.65 L5.45,5.2 L3.25,5.2 Z M5.95,2.65 L8.15,2.65 L8.15,5.2 L5.95,5.2 Z M8.65,2.65 L10.85,2.65 L10.85,5.2 L8.65,5.2 Z M11.35,2.65 L13.6,2.65 L13.6,5.2 L11.35,5.2 Z M14.6,2.65 L17.05,2.65 L17.05,5.2 L14.6,5.2 Z M17.55,2.65 L19.75,2.65 L19.75,5.2 L17.55,5.2 Z M20.25,2.65 L22.45,2.65 L22.45,5.2 L20.25,5.2 Z M22.95,2.65 L25.25,2.65 L25.25,5.2 L22.95,5.2 Z M32.3,3.1 L34.9,3.1 C35.1,3.1 35.3,3.3 35.3,3.5 L35.3,6.3 C35.3,6.5 35.1,6.7 34.9,6.7 L33.5,6.7 L33.5,8.2 C33.5,8.4 33.3,8.6 33.1,8.6 L30.5,8.6 C30.3,8.6 30.1,8.4 30.1,8.2 L30.1,5.4 C30.1,5.2 30.3,5 30.5,5 L31.9,5 L31.9,3.5 C31.9,3.3 32.1,3.1 32.3,3.1 Z M32.9,3.8 C32.7,3.8 32.5,4 32.5,4.2 L32.5,5.5 L32.4,5.6 L31.3,5.6 C31.1,5.6 30.9,5.8 30.9,6 L30.9,7.2 C31,7.5 31.1,7.6 31.3,7.6 L32.4,7.6 C32.45,7.6 32.5,7.59 32.54,7.57 C32.69,7.5 32.8,7.35 32.8,7.2 L32.8,5.9 L32.9,5.8 L34,5.8 C34.2,5.8 34.4,5.6 34.4,5.4 L34.4,4.2 C34.4,4 34.2,3.8 34,3.8 Z M3.25,6.2 L5.45,6.2 L5.45,8.85 L3.25,8.85 Z M5.95,6.2 L8.15,6.2 L8.15,8.85 L5.95,8.85 Z M8.65,6.2 L10.85,6.2 L10.85,8.85 L8.65,8.85 Z M11.35,6.2 L13.6,6.2 L13.6,8.85 L11.35,8.85 Z M14.6,6.2 L17.05,6.2 L17.05,8.85 L14.6,8.85 Z M17.55,6.2 L19.75,6.2 L19.75,8.85 L17.55,8.85 Z M20.25,6.2 L22.45,6.2 L22.45,8.85 L20.25,8.85 Z M22.95,6.2 L25.25,6.2 L25.25,8.85 L22.95,8.85 Z" fill="none" stroke="currentColor" stroke-width="1.5"/></svg>