<svg xmlns="http://www.w3.org/2000/svg" viewBox="0 0 39.7 51.9" width="24" height="24"><path d="M39.7,0 L5.7,0 L5.7,34 L19.7,34 L22.7,38.6 L25.7,34 L39.7,34 Z" fill="none" stroke="currentColor" stroke-width="1.5"/><rect x="0" y="0" width="0" height="0" fill="none" stroke="currentColor"/><path d="M39.7,40.6 L6,40.6 C2.8,40.6 0,43.3 0,46.4 L0,51.9 L39.7,51.9 Z" fill="none" stroke="currentColor" stroke-width="1.5"/><path d="M12.6,46.7 L33.9,46.7 L33.9,45.9 L12.6,45.9 Z M8.2,46.2 C8.2,47.1 7.5,47.7 6.7,47.7 C5.8,47.7 5.2,47 5.2,46.2 C5.2,45.3 5.9,44.7 6.7,44.7 C7.5,44.7 8.2,45.4 8.2,46.2 Z M13.9,6 C12,6 10.5,7.5 10.5,9.4 C10.5,11.3 12,12.8 13.9,12.8 C15.8,12.8 17.3,11.3 17.3,9.4 C17.3,7.5 15.8,6 13.9,6 Z M31.5,6 C29.6,6 28.1,7.5 28.1,9.4 C28.1,11.3 29.6,12.8 31.5,12.8 C33.4,12.8 34.9,11.3 34.9,9.4 C34.9,7.5 33.4,6 31.5,6 Z M19.16,8.3 C19.24,8.65 19.29,9.02 19.3,9.4 C19.3,9.74 19.26,10.08 19.2,10.4 L26.2,10.4 C26.14,10.08 26.1,9.74 26.1,9.4 C26.1,9.02 26.14,8.65 26.21,8.3 Z M27.9,13.43 L24.27,19.92 C24.98,20.12 25.64,20.47 26.21,20.94 L29.81,14.53 C29.09,14.3 28.45,13.92 27.9,13.43 Z M17.37,13.55 C16.85,13.98 16.25,14.31 15.59,14.53 L19.24,21.03 C19.75,20.59 20.34,20.24 20.99,20.02 Z M22.8,21.7 C20.9,21.7 19.4,23.2 19.4,25.1 C19.4,27 20.9,28.5 22.8,28.5 C24.7,28.5 26.2,27 26.2,25.1 C26.2,23.2 24.7,21.7 22.8,21.7 Z" fill="none" stroke="currentColor" stroke-width="1.5"/></svg>