<svg xmlns="http://www.w3.org/2000/svg" viewBox="0 0 206.23 282.92" width="24" height="24"><path d="M23.94,282.92 C16.05,282.92 0,273.33 0,257 L0.11,0 L154.36,0 L206.23,51.94 L206.23,282.92 L23.94,282.92 Z" fill="none" stroke="currentColor" stroke-width="1.5"/><path d="M153.43,52.11 L153.43,12.38 L191.91,52.11 L153.43,52.11 Z M175.74,193.3 L155.94,165.7 L174.65,139.74 L185.12,139.74 L165.83,164.92 L186.62,193.3 L175.74,193.3 Z M144.18,193.3 L144.18,116.1 L153.85,116.1 L153.85,193.3 L144.18,193.3 Z M97.05,184.88 C102.34,186.92 112.47,187.88 118.18,183.95 C124.42,179.14 124.45,172.72 124.44,165.9 C125.01,156.33 121.79,149.26 116.15,147.38 C109.94,145.36 102.64,146.97 97.05,149.71 L97.05,184.88 Z M87.74,191.57 L87.74,116.1 L97.05,116.1 L97.05,142.84 C102.65,138.83 109.06,137.82 115.54,138.24 C123.87,138.66 130.16,144.21 132.51,151.95 C135.07,158.46 135.28,173.04 131.54,180.67 C128.71,187.4 121.76,194.03 110.13,194.36 C104.1,194.94 93.69,193.75 87.74,191.57 L87.74,191.57 Z M50.56,193.3 L31.24,139.74 L41.52,139.74 L56.2,181.85 L71.21,139.74 L80.64,139.74 L60.57,193.3 L50.56,193.3 Z M20.41,193.3 L20.41,182.59 L30.64,182.59 L30.64,193.3 L20.41,193.3 Z" fill="none" stroke="currentColor" stroke-width="1.5"/></svg>