<svg xmlns="http://www.w3.org/2000/svg" viewBox="0 0 283.86 283.46" width="24" height="24"><path d="M0,283.46 L0,0 L283.86,0 L283.86,283.46 L0,283.46 Z" fill="none" stroke="currentColor" stroke-width="1.5"/><path d="M99.4,192.41 C95.14,192.41 92.3,189.39 92.3,183.03 L92.3,153.23 C92.3,145.04 95.48,140.91 103.29,140.91 L137.57,140.78 C139.5,140.78 140.34,139.34 140.34,137.56 L140.65,98.05 C140.65,93.43 144.82,91.22 150.56,91.22 L182.77,91.22 C190.02,91.22 192.28,96.08 192.08,101.74 L191.41,133.95 C191.41,142.15 186.77,143.26 182.24,143.26 L150.9,143.46 C145.88,143.46 143.53,145.98 143.53,150.76 L143.33,185.44 C143.33,190.96 141.16,192.47 136.03,192.47 L99.4,192.41 Z M146.65,211.85 C158.33,211.85 163.48,203.69 163.48,195.46 L163.44,162.65 L192.44,162.91 C203.59,162.91 209.32,157.22 209.32,146.8 L209.51,85.29 C209.51,75.95 205.55,72.4 197.29,72.4 L133.85,72.34 C125.02,72.34 120.46,77.08 120.46,83.55 L120.77,118.79 L85.57,118.66 C76.68,118.66 72.15,123.5 72.15,131.67 L71.99,195.96 C71.99,209.03 75.13,211.69 85.44,211.69 L146.65,211.85 Z M70.61,237.34 C53.62,237.34 46.77,225.08 46.77,208.95 L46.77,120.29 C46.77,105.18 57.32,92.96 71.95,92.96 L92.04,92.96 L91.77,70.2 C91.91,57.84 101.48,46.66 115.48,46.66 L209.9,46.88 C226.4,46.88 236.68,68.38 236.68,78.01 L236.68,157.52 C236.68,171.9 226.95,189.13 208.82,189.13 L191.68,189.13 L191.68,203.06 C191.68,221 184.1,237.61 161.68,237.61 L70.61,237.34 Z" fill="none" stroke="currentColor" stroke-width="1.5"/></svg>