<svg xmlns="http://www.w3.org/2000/svg" viewBox="0 0 28.35 28.35" width="24" height="24"><path d="M0,28.35 L28.35,28.35 L28.35,0 L0,0 Z" fill="none" stroke="currentColor" stroke-width="1.5"/><path d="M15.21,6.83 C12.36,6.83 9.78,8.47 8.57,11.03 C5.25,10.43 2.36,13.02 2.36,16.23 C2.36,19.15 4.73,21.52 7.65,21.52 L11.07,21.52 L11.07,20.77 L7.65,20.77 C5.15,20.77 3.11,18.74 3.11,16.23 C3.11,13.39 5.73,11.11 8.7,11.82 C8.88,11.86 9.06,11.77 9.13,11.6 C10.17,9.16 12.55,7.58 15.21,7.58 C18.84,7.58 21.8,10.54 21.8,14.18 L21.79,14.4 C21.78,14.5 21.86,14.6 21.93,14.68 C22,14.75 22.14,14.79 22.25,14.79 C23.9,14.79 25.24,16.13 25.24,17.78 C25.24,19.43 23.9,20.77 22.25,20.77 L17.35,20.77 L17.35,21.52 L22.25,21.52 C24.31,21.52 25.99,19.85 25.99,17.78 C25.99,15.82 24.47,14.21 22.55,14.05 C22.48,10.06 19.21,6.83 15.21,6.83 Z M18.48,12.05 L15.18,17.17 C14.96,17.1 14.73,17.06 14.49,17.06 C13.25,17.06 12.23,18.08 12.23,19.33 C12.23,20.57 13.25,21.59 14.49,21.59 C15.74,21.59 16.75,20.57 16.75,19.33 C16.75,18.58 16.39,17.93 15.84,17.52 L19.11,12.46 Z M14.49,17.81 C15.33,17.81 16,18.49 16,19.33 C16,20.16 15.33,20.84 14.49,20.84 C13.66,20.84 12.98,20.16 12.98,19.33 C12.98,18.49 13.66,17.81 14.49,17.81 Z" fill="none" stroke="currentColor" stroke-width="1.5"/></svg>