<svg xmlns="http://www.w3.org/2000/svg" viewBox="0 0 39.7 51.8" width="24" height="24"><path d="M39.7,40.5 L6,40.5 C2.8,40.5 0,43.2 0,46.3 L0,51.8 L39.7,51.8 Z" fill="none" stroke="currentColor" stroke-width="1.5"/><path d="M39.7,0 L5.6,0 L5.6,34 L19.7,34 L22.6,38.6 L25.6,34 L39.7,34 Z" fill="none" stroke="currentColor" stroke-width="1.5"/><path d="M31.7,6.9 L21.5,9 L21.5,16.2 L31.7,16.1 Z M20,9.2 L13.6,10.5 L13.6,16.3 L20,16.2 Z M13.6,17.8 L13.6,23.3 L20,24.6 L20,17.8 Z M21.5,17.8 L21.5,24.8 L31.7,26.9 L31.7,18 Z M6.99,44.7 C6.9,44.69 6.8,44.69 6.7,44.7 C5.9,44.7 5.2,45.3 5.2,46.2 C5.2,47 5.8,47.7 6.7,47.7 C7.5,47.7 8.2,47.1 8.2,46.2 C8.2,45.41 7.66,44.78 6.99,44.7 Z M12.6,45.8 L12.6,46.6 L33.9,46.6 L33.9,45.8 Z" fill="none" stroke="currentColor" stroke-width="1.5"/></svg>