<svg xmlns="http://www.w3.org/2000/svg" viewBox="0 0 282.95 248.38" width="24" height="24"><path d="M27.16,248.38 C13.86,248.38 0.31,237.03 0.31,221.4 L0.31,174.6 L255.52,174.6 C272.13,174.6 282.95,188.35 282.95,201.07 L282.95,248.38 L27.16,248.38 Z" fill="none" stroke="currentColor" stroke-width="1.5"/><path d="M239.5,218.32 L239.5,204.64 L261.02,204.64 L261.02,218.37 L239.5,218.32 Z M160.16,225.71 L160.16,197.25 L231.66,197.25 L231.66,225.71 L160.16,225.71 L160.16,225.71 Z M138.15,222.2 C133.56,222.2 128.49,218.28 128.49,211.36 C128.49,206.38 132.08,200.76 138.19,200.76 C143.91,200.76 147.8,205.92 147.8,211.79 C147.81,218.36 142.43,222.2 138.15,222.2 L138.15,222.2 Z M44.6,225.71 L44.6,197.25 L116.13,197.25 L116.13,225.71 L44.6,225.71 L44.6,225.71 Z M28.43,218.23 C25.46,218.23 22.33,215.59 22.33,211.5 C22.33,207.88 25.12,204.69 28.43,204.69 C31.66,204.69 34.68,207.99 34.68,211.41 C34.68,214.95 32.06,218.23 28.43,218.23 Z" fill="none" stroke="currentColor" stroke-width="1.5"/><path d="M0,146.57 L0.08,0 L282.92,0 L282.92,146.57 L0,146.57 Z" fill="none" stroke="currentColor" stroke-width="1.5"/><path d="M139.77,129.38 L144.32,129.38 L144.32,19.91 L139.77,19.91 L139.77,129.38 Z M4.5,141.96 L4.48,4.4 L278.42,4.4 L278.42,141.96 L4.5,141.96 Z" fill="none" stroke="currentColor" stroke-width="1.5"/><path d="M21.51,126.18 L21.51,23.06 L124.71,23.06 L124.71,126.18 L21.51,126.18 L21.51,126.18 Z M51.97,115.31 C56.2,117.61 60.04,117.21 62.16,115.53 C64.73,113.84 64.92,110.78 63.13,107.7 C62.46,106.48 61.68,105.42 59.54,101.78 C57.66,98.56 56.44,95.87 55.16,94.03 C53.74,91.59 51.86,88.84 48.9,88.34 C45.27,87.85 45.07,88.83 45.18,90.18 C45.24,91.63 43.32,93.44 41.13,94.13 C35.39,96 33.88,96.76 35.24,99.02 C36.03,100.41 37.05,104.04 36.24,105.05 C35.21,106.48 34.3,109.69 36.94,111.08 C38.5,111.94 41.62,111.8 44.23,112.46 C47.04,112.98 49.37,113.94 51.97,115.31 Z M67.44,113.53 C71.19,112.47 77.28,112.65 81.32,114.34 C80.44,111.04 81.09,107.21 81.89,103.84 C79.62,106.44 74.5,109.44 67.43,108.13 L67.44,113.53 Z M83.22,111.19 C83.32,114.9 85.26,116.49 86.98,116.73 C92.07,117.73 96.23,116.11 98.18,113.7 C100.3,110.81 103.47,109.34 106.28,107.62 C108.92,106.19 109.9,104.46 110.59,102.6 C111.34,100.65 110.94,98.64 108.56,98.25 C106.93,98.01 105.89,96.58 106.02,95.48 C106.13,93.98 105.13,92.62 104.55,91.99 C103.08,90.55 101.61,90.63 100.5,91.9 C98.83,93.47 97.86,96.03 94.55,96.2 C91.76,96.28 90.79,95.9 90.36,91.82 C90.3,90.39 90.07,89 88.76,88.98 C86.67,89.08 85.88,89.84 85.63,90.71 C85.21,92.19 85.04,94.1 85.16,95.61 C85.33,98.65 85.09,101.7 84.69,103.78 C84.2,106.75 83.44,106.96 83.22,111.19 L83.22,111.19 Z M45.01,85.91 C49.12,84.92 51.01,85.97 54,89.15 C54.08,85.88 54.97,81.54 55.71,79.44 C56.72,76.51 58.18,72.58 59.81,70.88 C61.9,69.8 61.27,68.47 59.9,67.95 C58.51,67.46 58.37,66.54 59.22,65.59 C60.41,64.39 61.6,62.9 62.31,61.64 C63.03,60.44 63.74,58.99 61.68,57.33 C60.61,54.65 61.36,53.35 61.9,52.71 C61.78,54.6 62.11,55.57 64.23,57.33 C65.6,58.65 69.11,60.2 71.48,59.79 C75.06,59.08 75.81,58.47 77.9,57.05 C80.02,55.56 80.88,54.2 80.59,51.99 C80.08,49.94 78.1,48.78 75.73,47.87 C74.35,47.32 72.8,47.29 71.25,47.26 C71.1,45.19 71.42,43.74 71.93,42.62 C72.51,41.32 74,40.22 76.07,40.52 C77.81,40.75 78.9,41.3 79.9,43.09 C80.51,44.13 80.51,46.36 80,46.91 C79.34,47.66 78.26,48.81 79.87,49.22 C80.69,49.38 81.15,50.4 81.64,51.23 C82.64,52.59 82.54,52.94 81.57,54.47 C79.97,57.39 82.06,58.16 82.51,60.36 C83.45,65.3 85.92,67.78 87.24,70.9 C89.11,74.73 91.11,81.86 90.56,84.89 C90.03,87.13 91.42,86.66 91.94,87.58 C92.33,89.21 92.1,89.97 92.08,91.04 C92.88,92.52 96.05,92.77 97.37,91.45 C98.85,90.2 99.53,88.93 100.95,87.71 C103.84,86.86 104.54,84.25 104.03,82.5 C103.57,80.97 102.71,79.71 102.01,78.35 C101.21,75.6 98.81,71.25 96.17,67.63 C93.36,63.92 89.86,59.18 88.51,55.23 C86.9,50.42 86.34,46.25 86.55,42.21 C86.81,38 85.92,34.24 81.05,30.8 C78.17,28.54 73.44,26.94 68.83,28.01 C63.8,29.23 59.88,31.57 59.19,42.15 C58.92,44.31 58.9,47.56 59.39,52.16 C59.46,53.6 60.84,56.79 60.23,57.88 C57.61,60.81 55.41,64.23 53.24,67.69 C50.18,72.28 47.11,79.11 45.01,85.91 L45.01,85.91 Z M63.95,49.47 L68.11,47.86 L66.12,42.56 L61.58,42.27 L60.92,46.16 L63.95,49.47 Z M159.78,126.18 L159.78,23.06 L262.96,23.06 L262.96,126.18 L159.78,126.18 L159.78,126.18 Z M204.81,103.82 L240.56,111.01 L240.56,79.72 L204.81,79.45 L204.81,103.82 Z M199.38,103.12 L199.38,79.45 L177.03,79.19 L177.03,98.32 L199.38,103.12 Z M177.03,73.95 L199.38,73.86 L199.38,49.31 L177.03,54.24 L177.03,73.95 Z M204.81,73.7 L240.56,73.47 L240.56,41.37 L204.81,48.51 L204.81,73.7 Z" fill="none" stroke="currentColor" stroke-width="1.5"/></svg>