<svg xmlns="http://www.w3.org/2000/svg" viewBox="0 0 53.0 53.0" width="24" height="24"><path d="M26.5,0 C11.882,0 0,11.882 0,26.5 C0,41.118 11.882,53 26.5,53 C41.118,53 53,41.118 53,26.5 C53,11.882 41.118,0 26.5,0 Z M26.5,3 C39.496,3 50,13.504 50,26.5 C50,39.496 39.496,50 26.5,50 C13.504,50 3,39.496 3,26.5 C3,13.504 13.504,3 26.5,3 Z M34.781,14.768 C34.147,14.768 33.553,14.877 33.014,15.1 C32.465,15.326 32.013,15.681 31.709,16.148 C31.414,16.597 31.258,17.107 31.258,17.635 C31.258,18.113 31.383,18.574 31.631,18.973 L31.633,18.975 L31.635,18.979 C31.892,19.38 32.274,19.7 32.742,19.945 C33.141,20.157 33.709,20.334 34.516,20.529 L34.518,20.529 C35.3,20.715 35.822,20.863 35.983,20.926 L35.985,20.926 L35.987,20.928 C36.292,21.044 36.465,21.174 36.541,21.274 L36.541,21.276 L36.543,21.278 C36.632,21.391 36.672,21.499 36.672,21.672 C36.672,21.835 36.629,21.966 36.52,22.117 L36.52,22.119 C36.429,22.246 36.273,22.369 36.006,22.473 C35.743,22.575 35.423,22.631 35.039,22.631 C34.609,22.631 34.241,22.558 33.92,22.42 L33.918,22.42 C33.594,22.277 33.391,22.11 33.268,21.932 C33.139,21.736 33.042,21.463 32.998,21.092 L32.942,20.612 L30.916,20.787 L30.93,21.258 C30.948,21.915 31.132,22.531 31.479,23.065 L31.481,23.067 L31.481,23.069 C31.834,23.601 32.333,24.009 32.936,24.27 L32.938,24.272 C33.547,24.534 34.266,24.651 35.092,24.651 C35.766,24.651 36.391,24.527 36.951,24.272 L36.953,24.272 C37.517,24.012 37.977,23.633 38.293,23.147 L38.295,23.145 C38.603,22.667 38.768,22.131 38.768,21.578 C38.768,21.032 38.619,20.518 38.325,20.082 C38.024,19.634 37.573,19.286 37.012,19.028 L37.01,19.028 L37.01,19.026 C36.589,18.834 35.946,18.659 35.01,18.449 C34.113,18.244 33.549,17.974 33.524,17.951 L33.522,17.949 L33.52,17.949 C33.393,17.836 33.354,17.747 33.354,17.559 C33.354,17.35 33.413,17.219 33.635,17.041 C33.814,16.898 34.202,16.77 34.828,16.77 C35.419,16.77 35.792,16.898 36.004,17.072 L36.006,17.074 C36.233,17.26 36.374,17.522 36.422,17.971 L36.475,18.451 L38.528,18.297 L38.508,17.815 C38.485,17.23 38.318,16.682 38.006,16.207 C37.688,15.723 37.223,15.355 36.659,15.119 C36.659,15.119 36.657,15.119 36.657,15.119 C36.1,14.882 35.472,14.768 34.782,14.768 Z M13.984,14.914 L13.984,24.504 L14.484,24.504 L17.584,24.504 C18.134,24.504 18.631,24.453 19.078,24.344 C19.526,24.235 19.924,24.072 20.264,23.846 C20.605,23.617 20.909,23.313 21.176,22.945 L21.176,22.943 L21.178,22.943 C21.456,22.555 21.672,22.085 21.836,21.541 C22.006,20.98 22.086,20.353 22.086,19.662 C22.086,18.848 21.965,18.107 21.713,17.447 C21.464,16.78 21.075,16.212 20.557,15.773 C20.145,15.422 19.645,15.18 19.086,15.051 L19.084,15.051 C18.664,14.953 18.131,14.914 17.443,14.914 Z M22.639,14.914 L22.639,24.504 L23.139,24.504 L24.729,24.504 L24.729,18.904 L28.473,24.504 L30.406,24.504 L30.406,14.914 L28.316,14.914 L28.316,20.514 L24.57,14.914 Z M16.121,16.928 L17.426,16.928 C18.072,16.928 18.525,16.998 18.715,17.07 C19.018,17.188 19.29,17.421 19.541,17.836 L19.541,17.838 L19.543,17.84 C19.767,18.202 19.914,18.801 19.914,19.645 C19.914,20.254 19.841,20.755 19.711,21.145 L19.711,21.147 L19.709,21.149 C19.579,21.545 19.408,21.83 19.205,22.033 C19.081,22.157 18.896,22.271 18.629,22.358 C18.392,22.436 17.99,22.49 17.455,22.49 L16.121,22.49 Z M22.779,29.846 C21.567,29.846 20.503,30.269 19.715,31.09 C18.915,31.919 18.531,33.069 18.531,34.432 C18.531,35.179 18.699,35.9 19.029,36.57 C19.367,37.257 19.88,37.815 20.537,38.213 C21.198,38.613 21.959,38.814 22.775,38.814 C23.533,38.814 24.258,38.633 24.916,38.279 L24.918,38.279 C25.592,37.913 26.126,37.36 26.486,36.664 C26.846,35.972 27.022,35.188 27.022,34.342 C27.022,33.51 26.854,32.743 26.512,32.063 L26.51,32.061 C26.168,31.372 25.652,30.813 24.992,30.426 C24.333,30.039 23.581,29.846 22.779,29.846 Z M12.062,29.98 L12.062,31.947 L15.736,31.947 C15.724,31.962 15.712,31.973 15.699,31.988 L11.613,37.023 L11.613,38.682 L12.154,38.682 L18.82,38.682 L18.82,36.715 L14.498,36.715 L18.691,31.604 L18.691,29.98 Z M27.25,29.98 L27.25,38.682 L27.791,38.682 L29.314,38.682 L29.314,33.906 L32.551,38.682 L34.434,38.682 L34.434,29.98 L32.369,29.98 L32.369,34.752 L29.131,29.98 Z M35.096,29.98 L35.096,38.682 L35.637,38.682 L41.959,38.682 L41.959,36.715 L37.203,36.715 L37.203,35.182 L41.488,35.182 L41.488,33.219 L37.203,33.219 L37.203,31.947 L41.777,31.947 L41.777,29.98 Z M22.785,31.781 L22.787,31.781 C23.205,31.782 23.551,31.88 23.873,32.082 L23.877,32.084 L23.879,32.088 C24.2,32.285 24.433,32.549 24.606,32.93 L24.608,32.932 L24.608,32.934 C24.784,33.313 24.881,33.775 24.881,34.336 C24.881,35.23 24.664,35.837 24.276,36.252 L24.274,36.252 C23.871,36.685 23.414,36.883 22.77,36.883 C22.141,36.883 21.686,36.689 21.275,36.26 L21.275,36.258 C20.882,35.839 20.67,35.271 20.67,34.447 C20.67,33.378 20.915,32.719 21.283,32.373 C21.718,31.965 22.185,31.782 22.785,31.781 Z" fill="none" stroke="currentColor" stroke-width="1.5"/></svg>