<svg xmlns="http://www.w3.org/2000/svg" viewBox="0 0 53.0 53.0" width="24" height="24"><path d="M26.5,0 C11.882,0 0,11.882 0,26.5 C0,41.118 11.882,53 26.5,53 C41.118,53 53,41.118 53,26.5 C53,11.882 41.118,0 26.5,0 Z M26.5,3 C39.496,3 50,13.504 50,26.5 C50,39.496 39.496,50 26.5,50 C13.504,50 3,39.496 3,26.5 C3,13.504 13.504,3 26.5,3 Z M13.426,9.738 C12.495,9.738 11.649,10.091 10.988,10.752 C10.327,11.413 9.975,12.259 9.975,13.189 L9.975,33.266 C9.975,34.196 10.327,35.042 10.988,35.703 C11.649,36.364 12.495,36.717 13.426,36.717 L16.879,36.717 L16.879,33.355 L13.426,33.355 C13.388,33.355 13.401,33.362 13.365,33.326 C13.329,33.29 13.336,33.304 13.336,33.266 L13.336,13.189 C13.336,13.151 13.329,13.165 13.365,13.129 C13.401,13.093 13.388,13.1 13.426,13.1 L33.502,13.1 C33.54,13.1 33.526,13.093 33.563,13.129 C33.599,13.165 33.592,13.151 33.592,13.189 L33.592,16.643 L36.953,16.643 L36.953,13.189 C36.953,12.259 36.6,11.413 35.939,10.752 C35.279,10.091 34.432,9.738 33.502,9.738 Z M20.512,16.822 C19.581,16.822 18.733,17.175 18.072,17.836 C17.411,18.497 17.059,19.345 17.059,20.275 L17.059,40.35 C17.059,41.28 17.411,42.128 18.072,42.789 C18.733,43.45 19.581,43.803 20.512,43.803 L40.586,43.803 C41.516,43.803 42.365,43.45 43.025,42.789 C43.686,42.128 44.039,41.28 44.039,40.35 L44.039,20.275 C44.039,19.345 43.686,18.497 43.025,17.836 C42.365,17.175 41.516,16.822 40.586,16.822 Z M20.48,20.186 C20.487,20.183 20.493,20.186 20.512,20.186 L40.586,20.186 C40.624,20.186 40.612,20.177 40.648,20.213 C40.685,20.249 40.678,20.237 40.678,20.275 L40.678,40.35 C40.678,40.388 40.685,40.376 40.648,40.412 C40.612,40.448 40.624,40.441 40.586,40.441 L20.512,40.441 C20.474,40.441 20.485,40.448 20.449,40.412 C20.413,40.376 20.422,40.388 20.422,40.35 L20.422,20.275 C20.422,20.237 20.413,20.249 20.449,20.213 C20.467,20.195 20.474,20.188 20.48,20.186 Z M25.043,23.934 L25.043,39.25 L27.938,39.25 L27.938,33.43 L31.109,33.43 C33.203,33.43 34.754,33.009 35.676,32.01 L35.676,32.008 L35.678,32.008 C36.533,31.073 36.971,29.898 36.971,28.574 C36.971,27.797 36.807,27.067 36.481,26.404 L36.479,26.402 C36.161,25.746 35.724,25.21 35.172,24.832 C34.627,24.452 33.966,24.205 33.211,24.078 C33.21,24.078 33.208,24.078 33.207,24.078 C32.651,23.977 31.908,23.934 30.943,23.934 Z M27.938,26.623 L31.1,26.623 C31.941,26.623 32.522,26.676 32.734,26.732 C33.125,26.84 33.409,27.041 33.648,27.385 L33.65,27.389 L33.654,27.393 C33.895,27.725 34.018,28.119 34.018,28.633 C34.018,29.356 33.816,29.825 33.414,30.182 C33.047,30.507 32.301,30.74 31.139,30.74 L27.938,30.74 Z" fill="none" stroke="currentColor" stroke-width="1.5"/></svg>