<svg xmlns="http://www.w3.org/2000/svg" viewBox="0 0 53.0 53.0" width="24" height="24"><path d="M26.5,0 C11.882,0 0,11.882 0,26.5 C0,41.118 11.882,53 26.5,53 C41.118,53 53,41.118 53,26.5 C53,11.882 41.118,0 26.5,0 Z M26.5,3 C39.496,3 50,13.504 50,26.5 C50,39.496 39.496,50 26.5,50 C13.504,50 3,39.496 3,26.5 C3,13.504 13.504,3 26.5,3 Z M13.598,13.748 C12.917,13.748 12.335,13.991 11.852,14.475 C11.368,14.959 11.125,15.54 11.125,16.221 L11.125,33.031 C11.125,33.712 11.368,34.293 11.852,34.777 C12.335,35.261 12.917,35.504 13.598,35.504 L22.004,35.504 C22.004,35.896 21.921,36.296 21.756,36.707 C21.591,37.118 21.427,37.479 21.262,37.789 C21.097,38.099 21.014,38.327 21.014,38.471 C21.012,38.74 21.11,38.971 21.307,39.166 C21.503,39.361 21.736,39.459 22.004,39.459 L29.914,39.459 C30.183,39.46 30.416,39.362 30.611,39.166 C30.806,38.97 30.904,38.738 30.904,38.471 C30.904,38.338 30.821,38.112 30.656,37.797 C30.491,37.482 30.327,37.116 30.162,36.699 C29.997,36.283 29.914,35.885 29.914,35.504 L38.32,35.504 C39.001,35.504 39.583,35.261 40.066,34.777 C40.55,34.293 40.793,33.712 40.793,33.031 L40.793,16.221 C40.793,15.54 40.55,14.959 40.066,14.475 C39.583,13.991 39.001,13.748 38.32,13.748 Z M13.598,15.727 L38.32,15.727 C38.455,15.727 38.57,15.775 38.668,15.873 C38.766,15.971 38.814,16.086 38.814,16.221 L38.814,29.076 C38.814,29.211 38.766,29.326 38.668,29.424 C38.57,29.521 38.455,29.57 38.32,29.57 L13.598,29.57 C13.463,29.57 13.348,29.521 13.25,29.424 C13.152,29.326 13.104,29.211 13.104,29.076 L13.104,16.221 C13.104,16.086 13.152,15.971 13.25,15.873 C13.348,15.775 13.463,15.727 13.598,15.727 Z" fill="none" stroke="currentColor" stroke-width="1.5"/></svg>