<svg xmlns="http://www.w3.org/2000/svg" viewBox="0 0 53.0 53.0" width="24" height="24"><path d="M26.5,0 C11.882,0 0,11.882 0,26.5 C0,41.118 11.882,53 26.5,53 C41.118,53 53,41.118 53,26.5 C53,11.882 41.118,0 26.5,0 Z M26.5,3 C39.496,3 50,13.504 50,26.5 C50,39.496 39.496,50 26.5,50 C13.504,50 3,39.496 3,26.5 C3,13.504 13.504,3 26.5,3 Z M22.119,10.143 C19.913,10.143 17.757,10.798 15.648,12.107 C13.54,13.417 11.829,15.126 10.52,17.234 C9.21,19.343 8.557,21.501 8.557,23.707 C8.557,25.953 9.262,27.782 10.676,29.195 C12.089,30.609 13.92,31.316 16.166,31.316 C18.772,31.316 21.288,30.415 23.715,28.609 L37.592,42.484 C37.978,42.871 38.446,43.064 38.996,43.064 C39.575,43.064 40.134,42.794 40.672,42.256 C41.21,41.718 41.48,41.159 41.48,40.58 C41.48,40.03 41.287,39.562 40.9,39.176 L36.35,34.625 L38.336,32.641 C38.375,32.683 38.542,32.862 38.84,33.178 C39.138,33.494 39.404,33.769 39.637,34.004 C39.87,34.239 40.123,34.465 40.393,34.686 C40.663,34.906 40.859,35.018 40.982,35.018 C41.217,35.018 41.672,34.68 42.348,34.004 C43.02,33.331 43.358,32.874 43.361,32.639 C43.361,32.639 43.361,32.637 43.361,32.637 C43.358,32.524 43.162,32.243 42.771,31.793 C42.378,31.339 41.874,30.803 41.262,30.182 C40.649,29.56 40.053,28.967 39.473,28.402 C38.892,27.838 38.328,27.289 37.777,26.758 C37.227,26.227 36.909,25.921 36.826,25.838 C36.689,25.7 36.53,25.631 36.35,25.631 C36.115,25.631 35.66,25.969 34.984,26.644 C34.309,27.32 33.971,27.775 33.971,28.01 C33.969,28.135 34.078,28.333 34.301,28.602 C34.523,28.87 34.751,29.121 34.984,29.355 C35.217,29.59 35.493,29.856 35.811,30.152 C36.128,30.449 36.307,30.618 36.348,30.658 L34.361,32.643 L27.021,25.303 C28.827,22.876 29.73,20.36 29.73,17.754 C29.73,15.507 29.023,13.677 27.609,12.264 C26.196,10.85 24.366,10.143 22.119,10.143 Z M21.793,14.107 C22.894,14.109 23.833,14.496 24.605,15.268 C25.378,16.039 25.764,16.975 25.764,18.078 C25.762,19.179 25.377,20.118 24.605,20.891 C23.834,21.664 22.896,22.049 21.793,22.049 C21.214,22.049 20.643,21.919 20.078,21.658 C20.339,22.223 20.471,22.794 20.471,23.373 C20.473,24.474 20.085,25.411 19.311,26.184 C18.536,26.957 17.599,27.344 16.5,27.344 C15.401,27.344 14.464,26.957 13.689,26.184 C12.915,25.411 12.528,24.474 12.529,23.373 C12.531,22.272 12.918,21.335 13.689,20.563 C14.461,19.79 15.397,19.402 16.5,19.402 C17.079,19.402 17.65,19.534 18.215,19.795 C17.954,19.23 17.824,18.657 17.824,18.078 C17.824,16.979 18.209,16.042 18.982,15.268 C19.755,14.493 20.692,14.106 21.793,14.107 Z" fill="none" stroke="currentColor" stroke-width="1.5"/></svg>