<svg xmlns="http://www.w3.org/2000/svg" viewBox="0 0 101.88 68.0" width="24" height="24"><path d="M7.94,26 L93.94,26 L7.94,68 Z" fill="none" stroke="currentColor" stroke-width="1.5"/><rect x="8.14" y="26" width="85.4" height="42" fill="none" stroke="currentColor"/><ellipse cx="36.94" cy="19.0" rx="4.0" ry="4.0" fill="none" stroke="currentColor"/><ellipse cx="67.44" cy="16.0" rx="8.0" ry="8.0" fill="none" stroke="currentColor"/><path d="M36.07,15.1 L65.29,8.42 M36.97,23.14 L67.29,24.07 M17.44,26 L17.44,21.5 M12.94,21.5 L17.44,16.5 M17.44,0 L17.44,16.5 M13.94,8.4 L21.14,14.7 M14.94,5.7 L20.64,10.5 M15.54,3 L19.94,7 M88.44,26 L88.44,22.5" fill="none" stroke="currentColor" stroke-width="1.5"/><path d="M12.94,12 L22.44,21.5 L12.94,21.5 Z M85.44,12 L91.44,12 L85.44,22.5 L91.44,22.5 Z" fill="none" stroke="currentColor" stroke-width="1.5"/></svg>