<svg xmlns="http://www.w3.org/2000/svg" viewBox="0 0 156.69 115.5" width="24" height="24"><path d="M149,12.5 L19,52.5 Z" fill="none" stroke="currentColor" stroke-width="1.5"/><path d="M149,72.5 L19,112.5 Z" fill="none" stroke="currentColor" stroke-width="1.5"/><path d="M4,79.5 L13,79.5 M4,105.5 L13,105.5 M4,69.5 L4,89.5 M0,69.5 L0,89.5 M4,95.5 L4,115.5 M0,95.5 L0,115.5 M139,12.5 L139,4 M129,4 L149,4 M129,0 L149,0 M29,12.5 L29,4 M19,4 L39,4 M19,0 L39,0" fill="none" stroke="currentColor" stroke-width="1.5"/><rect x="34" y="52.5" width="10" height="20" fill="none" stroke="currentColor"/><rect x="119" y="52.5" width="10" height="20" fill="none" stroke="currentColor"/></svg>