<svg xmlns="http://www.w3.org/2000/svg" viewBox="0 0 140.0 100.0" width="24" height="24"><rect x="60" y="0" width="80" height="100" fill="none" stroke="currentColor"/><rect x="0" y="15" width="40" height="70" fill="none" stroke="currentColor"/><rect x="70" y="17.5" width="60" height="15" fill="none" stroke="currentColor"/><rect x="70" y="42.5" width="60" height="15" fill="none" stroke="currentColor"/><rect x="70" y="67.5" width="60" height="15" fill="none" stroke="currentColor"/><path d="M40,25 L70,25 M40,50 L70,50 M40,75 L70,75 M85,17.5 L85,32.5 M100,17.5 L100,32.5 M115,17.5 L115,32.5 M85,42.5 L85,57.5 M100,42.5 L100,57.5 M115,42.5 L115,57.5 M85,67.5 L85,82.5 M100,67.5 L100,82.5 M115,67.5 L115,82.5 M25,40 L15,40 L15,60 L25,60 M15,50 L22,50" fill="none" stroke="currentColor" stroke-width="1.5"/></svg>