<svg xmlns="http://www.w3.org/2000/svg" viewBox="0 0 80.0 100.0" width="24" height="24"><rect x="0" y="0" width="80" height="100" fill="none" stroke="currentColor"/><path d="M5,60 L75,60 M75,80 L20,80 M15,60 L15,30 L40,30 L40,35 L65,35 L65,60 M15,55 L65,55 M15,50 L65,50 M15,45 L65,45 M15,40 L65,40 M15,35 L40,35 M27.5,35 L27.5,40 M27.5,45 L27.5,50 M27.5,55 L27.5,60 M40,40 L40,45 M40,50 L40,55 M52.5,35 L52.5,40 M52.5,45 L52.5,50 M52.5,55 L52.5,60" fill="none" stroke="currentColor" stroke-width="1.5"/><path d="M20,77 L20,83 L9,80 Z" fill="none" stroke="currentColor" stroke-width="1.5"/></svg>