<svg xmlns="http://www.w3.org/2000/svg" viewBox="0 0 120.0 91.0" width="24" height="24"><rect x="0" y="81" width="120" height="10" fill="none" stroke="currentColor"/><rect x="80" y="3" width="12" height="8" fill="none" stroke="currentColor"/><rect x="10" y="11" width="100" height="70" fill="none" stroke="currentColor"/><path d="M77,3 L95,3 M77,0 L95,0 M40,91 L50,81 M0,91 L10,81 M10,91 L20,81 M20,91 L30,81 M30,91 L40,81 M50,91 L60,81 M60,91 L70,81 M70,91 L80,81 M80,91 L90,81 M90,91 L100,81 M110,91 L120,81 M100,91 L110,81" fill="none" stroke="currentColor" stroke-width="1.5"/></svg>