<svg xmlns="http://www.w3.org/2000/svg" viewBox="0 0 52.0 95.38" width="24" height="24"><path d="M46,7.69 L46,87.69 L6,7.69 Z" fill="none" stroke="currentColor" stroke-width="1.5"/><path d="M6,7.69 L46,7.69 M6,87.69 L46,87.69 M0,12.69 L0,82.69 M52,12.69 L52,82.69 M6,12.69 L0,18.69 M6,17.69 L0,23.69 M6,22.69 L0,28.69 M6,27.69 L0,33.69 M6,32.69 L0,38.69 M6,37.69 L0,43.69 M6,42.69 L0,48.69 M6,47.69 L0,53.69 M6,52.69 L0,58.69 M6,57.69 L0,63.69 M6,62.69 L0,68.69 M6,67.69 L0,73.69 M6,72.69 L0,78.69 M6,77.69 L1,82.69 M52,12.69 L46,18.69 M52,17.69 L46,23.69 M52,22.69 L46,28.69 M52,27.69 L46,33.69 M52,32.69 L46,38.69 M52,37.69 L46,43.69 M52,42.69 L46,48.69 M52,47.69 L46,53.69 M52,52.69 L46,58.69 M52,57.69 L46,63.69 M52,62.69 L46,68.69 M52,67.69 L46,73.69 M52,72.69 L46,78.69 M52,77.69 L47,82.69" fill="none" stroke="currentColor" stroke-width="1.5"/></svg>