<svg xmlns="http://www.w3.org/2000/svg" viewBox="0 0 64.0 64.0" width="24" height="24"><rect x="0" y="0" width="64" height="64" fill="none" stroke="currentColor"/><path d="M32.03,9 L31.08,15.44 L32.99,9.97 Z M45.71,12.71 L42.17,17.95 L46.52,14.13 Z M18.23,12.73 L20.25,18.88 L19.1,13.21 Z M32.01,19.75 C31.31,19.75 30.6,19.79 29.87,19.88 C27.92,20.13 25.86,20.75 23.73,21.87 L23.72,21.88 L23.7,21.89 C15.34,26.58 13.7,34.86 14.77,40.82 L16.62,40.48 C15.67,35.15 16.99,27.83 24.61,23.54 C32.39,19.47 38.77,22.69 42.19,25.46 L43.38,24 C40.9,21.98 36.89,19.77 32.01,19.75 Z M55.83,22.71 L50.58,25.58 L56.26,24.47 Z M8.17,22.82 L12.5,27.34 L8.72,22.96 Z M44.8,28.15 C41.97,28.15 39.48,28.88 37.1,30.32 L38.08,31.94 C40.21,30.65 42.29,30.04 44.8,30.04 C50.9,30.04 56.07,35.17 56.07,41.65 C56.07,47.73 50.91,53.11 44.28,53.11 L16.84,53.06 C14.92,53.06 12.64,52.12 10.89,50.51 C9.15,48.9 7.94,46.68 7.94,44.11 L7.94,44.09 L7.94,44.07 C7.86,41.59 9.02,38.44 11.2,36.44 L9.92,35.05 C7.28,37.47 5.95,41.04 6.05,44.13 C6.06,47.29 7.55,50 9.61,51.9 C11.68,53.81 14.32,54.95 16.84,54.95 L44.28,55 C51.93,55 57.96,48.8 57.96,41.65 C57.96,34.16 51.95,28.15 44.8,28.15 Z" fill="none" stroke="currentColor" stroke-width="1.5"/></svg>