<svg xmlns="http://www.w3.org/2000/svg" viewBox="0 0 64.0 64.0" width="24" height="24"><rect x="0" y="0" width="64" height="64" fill="none" stroke="currentColor"/><path d="M31.9,26.6 C27,26.6 23,22.6 23,17.7 C23,12.8 27,8.8 31.9,8.8 C36.8,8.8 40.8,12.8 40.8,17.7 C40.9,22.6 36.9,26.6 31.9,26.6 Z M31.9,9.9 C27.6,9.9 24.1,13.4 24.1,17.7 C24.1,22 27.6,25.5 31.9,25.5 C36.2,25.5 39.7,22 39.7,17.7 C39.8,13.4 36.3,9.9 31.9,9.9 Z M43.5,44.6 C38.6,44.6 34.6,40.6 34.6,35.7 C34.6,30.8 38.6,26.8 43.5,26.8 C48.4,26.8 52.4,30.8 52.4,35.7 C52.4,40.6 48.4,44.6 43.5,44.6 Z M43.5,27.9 C39.2,27.9 35.7,31.4 35.7,35.7 C35.7,40 39.2,43.5 43.5,43.5 C47.8,43.5 51.3,40 51.3,35.7 C51.3,31.4 47.8,27.9 43.5,27.9 Z M50.5,48.2 L36.5,48.1 C34.6,48.1 33,49.6 33,51.6 L33,55.1 L54,55.2 L54,51.7 C54,49.8 52.5,48.2 50.5,48.2 Z M20.4,44.6 C15.5,44.6 11.5,40.6 11.5,35.7 C11.5,30.8 15.5,26.8 20.4,26.8 C25.3,26.8 29.3,30.8 29.3,35.7 C29.3,40.6 25.3,44.6 20.4,44.6 Z M20.4,27.9 C16.1,27.9 12.6,31.4 12.6,35.7 C12.6,40 16.1,43.5 20.4,43.5 C24.7,43.5 28.2,40 28.2,35.7 C28.2,31.4 24.7,27.9 20.4,27.9 Z M27.5,48.2 L13.5,48.1 C11.6,48.1 10,49.6 10,51.6 L10,55.1 L31,55.2 L31,51.7 C31,49.8 29.4,48.2 27.5,48.2 Z" fill="none" stroke="currentColor" stroke-width="1.5"/></svg>