<svg xmlns="http://www.w3.org/2000/svg" viewBox="0 0 31.1 53.89" width="24" height="24"><path d="M4.45,23.97 C4.34,24.01 4.23,24.03 4.12,24.03 C3.71,24.03 3.32,23.76 3.18,23.35 C3,22.83 3.28,22.26 3.8,22.08 C3.96,22.02 20.2,16.29 28.72,1.29 C21.94,2.18 10.78,4.51 6.77,8.12 C1.09,13.22 0.63,18.56 0.03,25.14 L0,25.14 L0,53.89 L8.25,53.89 L8.25,25.11 C15.64,24.5 22.49,23.09 25.09,20.49 C27.91,17.68 29.25,9.32 29.78,3.44 C20.75,18.23 5.13,23.74 4.45,23.97 Z" fill="none" stroke="currentColor" stroke-width="1.5"/><path d="M30.44,0.27 C29.95,0 29.34,0.18 29.08,0.66 C28.97,0.88 28.84,1.08 28.72,1.29 C20.2,16.29 3.96,22.02 3.8,22.08 C3.28,22.26 3,22.83 3.18,23.35 C3.32,23.76 3.71,24.03 4.12,24.03 C4.23,24.03 4.34,24.01 4.45,23.97 C5.13,23.74 20.75,18.23 29.78,3.44 C30.14,2.85 30.5,2.25 30.84,1.62 C31.1,1.14 30.92,0.53 30.44,0.27 Z" fill="none" stroke="currentColor" stroke-width="1.5"/></svg>