<svg xmlns="http://www.w3.org/2000/svg" viewBox="0 0 59.22 65.72" width="24" height="24"><path d="M5.79,7.15 C2.57,7.15 0,10.05 0,12.94 L0,60.25 C0,63.15 2.57,65.73 5.79,65.73 L53.43,65.73 C56.65,65.73 59.22,63.15 59.22,60.25 L59.22,12.94 C59.22,10.05 56.65,7.15 53.43,7.15 L5.79,7.15 Z" fill="none" stroke="currentColor" stroke-width="1.5"/><path d="M15.25,9.17 L15.25,9.17 C14.23,9.17 14,8.49 14,7.89 L14,7.79 L14.66,7.79 L14.66,7.89 C14.66,8.39 14.85,8.66 15.31,8.66 C15.74,8.66 15.94,8.36 15.94,8.06 C15.94,7.62 15.71,7.42 15.35,7.32 L14.92,7.15 C14.33,6.92 14.06,6.61 14.06,6.01 C14.06,5.27 14.56,4.84 15.31,4.84 C16.37,4.84 16.47,5.51 16.47,5.94 L16.47,6.04 L15.84,6.04 L15.84,5.94 C15.84,5.57 15.68,5.34 15.25,5.34 C14.98,5.34 14.72,5.51 14.72,5.94 C14.72,6.31 14.89,6.48 15.32,6.65 L15.78,6.82 C16.34,7.02 16.6,7.35 16.6,7.92 C16.6,8.8 16.07,9.17 15.25,9.17 L15.25,9.17 Z M12.85,9.1 L12.85,9.1 L12.09,9.1 L11.56,5.94 L11.56,5.94 L11.03,9.1 L10.28,9.1 L9.52,4.94 L10.18,4.94 L10.7,8.16 L10.7,8.16 L11.23,4.94 L11.92,4.94 L12.48,8.16 L12.48,8.16 L13.01,4.94 L13.67,4.94 L12.85,9.1 L12.85,9.1 Z M8.89,9.1 L8.89,9.1 L8.66,8.06 L7.44,8.06 L7.18,9.1 L6.52,9.1 L7.67,4.94 L8.5,4.94 L9.59,9.1 L8.89,9.1 L8.89,9.1 Z M2.9,7.72 L2.9,7.72 L2.9,8.02 C2.9,9.5 4.45,11.01 6.39,11.01 L16.73,11.01 C18.68,11.01 20.22,9.5 20.22,8.02 L20.22,7.72 C20.22,6.35 18.87,4.6 17.13,4.47 C17.1,3.22 16.11,2.25 14.89,2.25 C14.39,2.25 13.97,2.38 13.6,2.65 C12.91,1.07 11.36,0 9.55,0 C7.11,0 5.14,1.98 5.14,4.5 C5.14,4.53 5.14,4.57 5.14,4.63 C3.82,5 2.9,6.58 2.9,7.72 L2.9,7.72 Z" fill="none" stroke="currentColor" stroke-width="1.5"/><path d="M7.57,7.52 L7.57,7.52 L8.07,5.47 L8.07,5.47 L8.53,7.52 L7.57,7.52 L7.57,7.52 Z M7.67,4.94 L7.67,4.94 L6.52,9.1 L7.18,9.1 L7.44,8.06 L8.66,8.06 L8.89,9.1 L9.58,9.1 L8.5,4.94 L7.67,4.94 L7.67,4.94 Z" fill="none" stroke="currentColor" stroke-width="1.5"/><path d="M12.48,8.16 L12.48,8.16 L12.48,8.16 L11.92,4.94 L11.23,4.94 L10.7,8.16 L10.7,8.16 L10.14,4.94 L9.52,4.94 L10.28,9.1 L11.03,9.1 L11.56,5.94 L11.56,5.94 L12.09,9.1 L12.85,9.1 L13.67,4.94 L13.01,4.94 L12.48,8.16 Z" fill="none" stroke="currentColor" stroke-width="1.5"/><path d="M15.78,6.82 L15.78,6.82 L15.31,6.65 C14.89,6.48 14.72,6.31 14.72,5.94 C14.72,5.51 14.98,5.34 15.25,5.34 C15.68,5.34 15.84,5.57 15.84,5.94 L15.84,6.04 L16.47,6.04 L16.47,5.94 C16.47,5.51 16.37,4.84 15.31,4.84 C14.56,4.84 14.06,5.27 14.06,6.01 C14.06,6.61 14.33,6.92 14.92,7.15 L15.35,7.32 C15.71,7.42 15.94,7.62 15.94,8.06 C15.94,8.36 15.74,8.66 15.32,8.66 C14.89,8.66 14.66,8.39 14.66,7.89 L14.66,7.79 L14,7.79 L14,7.89 C14,8.49 14.23,9.16 15.25,9.16 C16.07,9.16 16.6,8.79 16.6,7.92 C16.6,7.35 16.34,7.02 15.78,6.82 L15.78,6.82 Z" fill="none" stroke="currentColor" stroke-width="1.5"/></svg>