<svg xmlns="http://www.w3.org/2000/svg" viewBox="0 0 58.04 58.9" width="24" height="24"><path d="M57.73,11.03 C57.84,10.77 57.9,10.5 57.9,10.24 L57.73,11.03 Z" fill="none" stroke="currentColor" stroke-width="1.5"/><path d="M0.17,11.03 L0,10.24 C0,10.5 0.06,10.77 0.17,11.03 Z" fill="none" stroke="currentColor" stroke-width="1.5"/><path d="M28.95,14.47 C44.94,14.47 57.9,11.24 57.9,7.24 C57.9,3.23 44.94,0 28.95,0 C12.96,0 0,3.23 0,7.24 C0,11.24 12.96,14.47 28.95,14.47 Z" fill="none" stroke="currentColor" stroke-width="1.5"/><path d="M13.72,28.43 L13.72,19.24 L24.33,27.91 L39.95,27.91 L39.95,18.71 L53.58,29.85 L57.73,11.02 C56.16,14.66 43.87,17.47 28.95,17.47 C14.03,17.47 1.75,14.66 0.17,11.02 L4.01,28.43 L13.72,28.43 Z" fill="none" stroke="currentColor" stroke-width="1.5"/><path d="M39.95,45.37 L25.71,45.37 L13.72,55.06 L13.72,45.89 L7.85,45.89 L9.65,54.08 C9.65,56.75 18.29,58.9 28.95,58.9 C39.61,58.9 48.25,56.75 48.25,54.08 L49.92,46.49 L39.96,54.54 L39.96,45.37 Z" fill="none" stroke="currentColor" stroke-width="1.5"/><path d="M16.22,49.83 L24.72,42.95 L24.72,42.95 L31.33,37.29 L23.02,30.06 L23.02,30.06 L16.22,24.51 L16.22,30.93 L2.67,30.93 L2.67,43.39 L16.22,43.39 Z" fill="none" stroke="currentColor" stroke-width="1.5"/><path d="M28.2,42.87 L42.45,42.87 L42.45,49.31 L58.04,36.71 L42.45,23.98 L42.45,30.41 L27.42,30.41 L35.16,37.28 Z" fill="none" stroke="currentColor" stroke-width="1.5"/></svg>