<svg xmlns="http://www.w3.org/2000/svg" viewBox="0 0 58.01 58.01" width="24" height="24"><path d="M29.01,0 C12.99,0 0,12.99 0,29.01 C0,45.03 12.99,58.01 29.01,58.01 C45.03,58.01 58.01,45.03 58.01,29.01 C58.01,12.99 45.03,0 29.01,0 Z M28.88,51.8 L11.26,34.47 L21.62,34.47 L21.62,6.62 L36.14,6.62 L36.13,34.39 L46.49,34.39 L28.88,51.8 Z" fill="none" stroke="currentColor" stroke-width="1.5"/><path d="M34.14,8.62 L23.62,8.62 L23.62,36.47 L16.15,36.47 L28.87,48.99 L41.62,36.39 L34.13,36.39 Z" fill="none" stroke="currentColor" stroke-width="1.5"/><path d="M36.14,6.62 L21.62,6.62 L21.62,34.47 L11.26,34.47 L28.88,51.8 L46.49,34.39 L36.13,34.39 L36.14,6.62 Z M41.62,36.39 L28.87,48.99 L16.15,36.47 L23.62,36.47 L23.62,8.62 L34.14,8.62 L34.13,36.39 L41.62,36.39 Z" fill="none" stroke="currentColor" stroke-width="1.5"/></svg>