<svg xmlns="http://www.w3.org/2000/svg" viewBox="0 0 58.01 58.01" width="24" height="24"><path d="M29.01,0 C12.99,0 0,12.99 0,29.01 C0,45.03 12.99,58.02 29.01,58.02 C45.03,58.02 58.01,45.03 58.01,29.01 C58.01,12.99 45.03,0 29.01,0 Z M39.81,34.48 L42.21,34.48 L42.21,36.48 L39.81,36.48 L39.81,34.48 Z M34.01,6.72 L37.01,6.72 L37.01,9.72 L35.01,9.72 L35.01,8.72 L34.01,8.72 L34.01,6.72 Z M35.01,23.58 L35.01,19.62 L37.01,19.62 L37.01,23.58 L35.01,23.58 Z M37.01,26.55 L37.01,30.51 L35.01,30.51 L35.01,26.55 L37.01,26.55 Z M35.01,16.65 L35.01,12.69 L37.01,12.69 L37.01,16.65 L35.01,16.65 Z M27,6.72 L31.01,6.72 L31.01,8.72 L27,8.72 L27,6.72 Z M21,6.72 L24,6.72 L24,8.72 L23,8.72 L23,9.72 L21,9.72 L21,6.72 Z M21,12.7 L23,12.7 L23,16.68 L21,16.68 L21,12.7 Z M21,19.66 L23,19.66 L23,23.63 L21,23.63 L21,19.66 Z M21,26.61 L23,26.61 L23,30.59 L21,30.59 L21,26.61 Z M15.8,34.57 L18.2,34.57 L18.2,36.57 L15.8,36.57 L15.8,34.57 Z M14,36.39 L14,36.57 L13.82,36.57 L12.72,37.68 L9.56,34.57 L14,34.57 L14,36.13 L14.13,36.26 L14,36.39 Z M18.55,43.41 L15.22,40.14 L16.62,38.71 L19.95,41.99 L18.55,43.41 Z M20,34.57 L21,34.57 L21,33.57 L23,33.57 L23,36.57 L20,36.57 L20,34.57 Z M24.38,49.15 L21.05,45.87 L22.45,44.45 L25.78,47.72 L24.38,49.15 Z M29,53.7 L26.87,51.6 L28.27,50.18 L29,50.89 L29.72,50.17 L31.13,51.6 L29,53.7 Z M33.62,49.13 L32.22,47.71 L35.55,44.41 L36.96,45.84 L33.62,49.13 Z M38.01,36.48 L35.01,36.48 L35.01,33.48 L37.01,33.48 L37.01,34.48 L38.01,34.48 L38.01,36.48 Z M39.46,43.37 L38.05,41.94 L41.38,38.65 L42.79,40.07 L39.46,43.37 Z M45.29,37.6 L44.18,36.48 L44.01,36.48 L44.01,36.3 L43.88,36.18 L44.01,36.05 L44.01,34.48 L48.44,34.48 L45.29,37.6 Z" fill="none" stroke="currentColor" stroke-width="1.5"/></svg>