<svg xmlns="http://www.w3.org/2000/svg" viewBox="0 0 59.26 63.19" width="24" height="24"><path d="M5.8,4.58 C2.58,4.58 0,7.16 0,10.38 L0,57.4 C0,60.62 2.58,63.19 5.8,63.19 L53.46,63.19 C56.68,63.19 59.26,60.62 59.26,57.4 L59.26,10.38 C59.26,7.16 56.68,4.58 53.46,4.58 L5.8,4.58 Z" fill="none" stroke="currentColor" stroke-width="1.5"/><path d="M10.99,6.32 L10.99,6.32 L9.65,6.32 L9.65,5.79 L10.99,5.79 L10.99,6.32 L10.99,6.32 Z M9.64,4.87 L9.64,4.87 L10.98,4.87 L10.98,5.41 L9.64,5.41 L9.64,4.87 L9.64,4.87 Z M10.98,4.49 L10.98,4.49 L9.64,4.49 L9.64,3.95 L10.98,3.95 L10.98,4.49 L10.98,4.49 Z M9.64,3.04 L9.64,3.04 L10.98,3.04 L10.98,3.57 L9.64,3.57 L9.64,3.04 L9.64,3.04 Z M9.63,2.12 L9.63,2.12 L10.97,2.12 L10.97,2.66 L9.63,2.66 L9.63,2.12 L9.63,2.12 Z M9.15,6.32 L9.15,6.32 L7.81,6.32 L7.81,5.79 L9.15,5.79 L9.15,6.32 L9.15,6.32 Z M7.81,4.87 L7.81,4.87 L9.14,4.87 L9.14,5.41 L7.81,5.41 L7.81,4.87 L7.81,4.87 Z M9.14,4.49 L9.14,4.49 L7.81,4.49 L7.81,3.95 L9.14,3.95 L9.14,4.49 L9.14,4.49 Z M7.79,3.04 L7.79,3.04 L9.14,3.04 L9.14,3.57 L7.79,3.57 L7.79,3.04 L7.79,3.04 Z M7.79,2.12 L7.79,2.12 L9.14,2.12 L9.14,2.66 L7.79,2.66 L7.79,2.12 L7.79,2.12 Z M7.32,6.32 L7.32,6.32 L5.97,6.32 L5.97,5.79 L7.32,5.79 L7.32,6.32 L7.32,6.32 Z M5.96,4.87 L5.96,4.87 L7.31,4.87 L7.31,5.41 L5.96,5.41 L5.96,4.87 L5.96,4.87 Z M7.3,4.49 L7.3,4.49 L5.96,4.49 L5.96,3.95 L7.3,3.95 L7.3,4.49 L7.3,4.49 Z M5.96,3.04 L5.96,3.04 L7.31,3.04 L7.31,3.57 L5.96,3.57 L5.96,3.04 L5.96,3.04 Z M5.95,2.12 L5.95,2.12 L7.29,2.12 L7.29,2.66 L5.95,2.66 L5.95,2.12 L5.95,2.12 Z M5.95,1.2 L5.95,1.2 L7.29,1.2 L7.29,1.74 L5.95,1.74 L5.95,1.2 L5.95,1.2 Z M7.79,1.2 L7.79,1.2 L9.14,1.2 L9.14,1.74 L7.79,1.74 L7.79,1.2 L7.79,1.2 Z M9.63,1.2 L9.63,1.2 L10.97,1.2 L10.97,1.74 L9.63,1.74 L9.63,1.2 L9.63,1.2 Z M11.3,0 L11.3,0 L5.63,0 C5.36,0 5.15,0.2 5.15,0.47 L5.15,8.09 C5.15,8.35 5.36,8.57 5.63,8.57 L11.3,8.57 C11.57,8.57 11.79,8.35 11.79,8.09 L11.79,0.47 C11.79,0.2 11.57,0 11.3,0 L11.3,0 Z" fill="none" stroke="currentColor" stroke-width="1.5"/><path d="M5.8,4.58 C2.58,4.58 0,7.16 0,10.38 L0,57.4 C0,60.62 2.58,63.19 5.8,63.19 L53.46,63.19 C56.68,63.19 59.26,60.62 59.26,57.4 L59.26,10.38 C59.26,7.16 56.68,4.58 53.46,4.58 L5.8,4.58 Z" fill="none" stroke="currentColor" stroke-width="1.5"/><path d="M5.8,4.58 C2.58,4.58 0,7.16 0,10.38 L0,57.4 C0,60.62 2.58,63.19 5.8,63.19 L53.46,63.19 C56.68,63.19 59.26,60.62 59.26,57.4 L59.26,10.38 C59.26,7.16 56.68,4.58 53.46,4.58 L5.8,4.58 Z" fill="none" stroke="currentColor" stroke-width="1.5"/><path d="M10.99,6.32 L10.99,6.32 L9.65,6.32 L9.65,5.79 L10.99,5.79 L10.99,6.32 L10.99,6.32 Z M9.64,4.87 L9.64,4.87 L10.98,4.87 L10.98,5.41 L9.64,5.41 L9.64,4.87 L9.64,4.87 Z M10.98,4.49 L10.98,4.49 L9.64,4.49 L9.64,3.95 L10.98,3.95 L10.98,4.49 L10.98,4.49 Z M9.64,3.04 L9.64,3.04 L10.98,3.04 L10.98,3.57 L9.64,3.57 L9.64,3.04 L9.64,3.04 Z M9.63,2.12 L9.63,2.12 L10.97,2.12 L10.97,2.66 L9.63,2.66 L9.63,2.12 L9.63,2.12 Z M9.15,6.32 L9.15,6.32 L7.81,6.32 L7.81,5.79 L9.15,5.79 L9.15,6.32 L9.15,6.32 Z M7.81,4.87 L7.81,4.87 L9.14,4.87 L9.14,5.41 L7.81,5.41 L7.81,4.87 L7.81,4.87 Z M9.14,4.49 L9.14,4.49 L7.81,4.49 L7.81,3.95 L9.14,3.95 L9.14,4.49 L9.14,4.49 Z M7.79,3.04 L7.79,3.04 L9.14,3.04 L9.14,3.57 L7.79,3.57 L7.79,3.04 L7.79,3.04 Z M7.79,2.12 L7.79,2.12 L9.14,2.12 L9.14,2.66 L7.79,2.66 L7.79,2.12 L7.79,2.12 Z M7.32,6.32 L7.32,6.32 L5.97,6.32 L5.97,5.79 L7.32,5.79 L7.32,6.32 L7.32,6.32 Z M5.96,4.87 L5.96,4.87 L7.31,4.87 L7.31,5.41 L5.96,5.41 L5.96,4.87 L5.96,4.87 Z M7.3,4.49 L7.3,4.49 L5.96,4.49 L5.96,3.95 L7.3,3.95 L7.3,4.49 L7.3,4.49 Z M5.96,3.04 L5.96,3.04 L7.31,3.04 L7.31,3.57 L5.96,3.57 L5.96,3.04 L5.96,3.04 Z M5.95,2.12 L5.95,2.12 L7.29,2.12 L7.29,2.66 L5.95,2.66 L5.95,2.12 L5.95,2.12 Z M5.95,1.2 L5.95,1.2 L7.29,1.2 L7.29,1.74 L5.95,1.74 L5.95,1.2 L5.95,1.2 Z M7.79,1.2 L7.79,1.2 L9.14,1.2 L9.14,1.74 L7.79,1.74 L7.79,1.2 L7.79,1.2 Z M9.63,1.2 L9.63,1.2 L10.97,1.2 L10.97,1.74 L9.63,1.74 L9.63,1.2 L9.63,1.2 Z M11.3,0 L11.3,0 L5.63,0 C5.36,0 5.15,0.2 5.15,0.47 L5.15,8.09 C5.15,8.35 5.36,8.57 5.63,8.57 L11.3,8.57 C11.57,8.57 11.79,8.35 11.79,8.09 L11.79,0.47 C11.79,0.2 11.57,0 11.3,0 L11.3,0 Z" fill="none" stroke="currentColor" stroke-width="1.5"/></svg>