<svg xmlns="http://www.w3.org/2000/svg" viewBox="0 0 6.64 8.57" width="24" height="24"><rect x="0.29" y="0.67" width="5.89" height="6.33" fill="none" stroke="currentColor"/><rect x="0" y="0" width="0" height="0" fill="none" stroke="currentColor"/><path d="M5.84,6.32 L5.84,6.32 L4.5,6.32 L4.5,5.79 L5.84,5.79 L5.84,6.32 L5.84,6.32 Z M4.48,4.87 L4.48,4.87 L5.83,4.87 L5.83,5.41 L4.48,5.41 L4.48,4.87 L4.48,4.87 Z M5.83,4.49 L5.83,4.49 L4.48,4.49 L4.48,3.95 L5.83,3.95 L5.83,4.49 L5.83,4.49 Z M4.48,3.04 L4.48,3.04 L5.83,3.04 L5.83,3.56 L4.48,3.56 L4.48,3.04 L4.48,3.04 Z M4.47,2.12 L4.47,2.12 L5.82,2.12 L5.82,2.66 L4.47,2.66 L4.47,2.12 L4.47,2.12 Z M4,6.32 L4,6.32 L2.65,6.32 L2.65,5.79 L4,5.79 L4,6.32 L4,6.32 Z M2.65,4.87 L2.65,4.87 L3.98,4.87 L3.98,5.41 L2.65,5.41 L2.65,4.87 L2.65,4.87 Z M3.98,4.49 L3.98,4.49 L2.65,4.49 L2.65,3.95 L3.98,3.95 L3.98,4.49 L3.98,4.49 Z M2.64,3.04 L2.64,3.04 L3.98,3.04 L3.98,3.56 L2.64,3.56 L2.64,3.04 L2.64,3.04 Z M2.64,2.12 L2.64,2.12 L3.98,2.12 L3.98,2.66 L2.64,2.66 L2.64,2.12 L2.64,2.12 Z M2.16,6.32 L2.16,6.32 L0.82,6.32 L0.82,5.79 L2.16,5.79 L2.16,6.32 L2.16,6.32 Z M0.81,4.87 L0.81,4.87 L2.15,4.87 L2.15,5.41 L0.81,5.41 L0.81,4.87 L0.81,4.87 Z M2.15,4.49 L2.15,4.49 L0.81,4.49 L0.81,3.95 L2.15,3.95 L2.15,4.49 L2.15,4.49 Z M0.81,3.04 L0.81,3.04 L2.15,3.04 L2.15,3.56 L0.81,3.56 L0.81,3.04 L0.81,3.04 Z M0.79,2.12 L0.79,2.12 L2.14,2.12 L2.14,2.66 L0.79,2.66 L0.79,2.12 L0.79,2.12 Z M0.79,1.2 L0.79,1.2 L2.14,1.2 L2.14,1.74 L0.79,1.74 L0.79,1.2 L0.79,1.2 Z M2.64,1.2 L2.64,1.2 L3.98,1.2 L3.98,1.74 L2.64,1.74 L2.64,1.2 L2.64,1.2 Z M4.47,1.2 L4.47,1.2 L5.82,1.2 L5.82,1.74 L4.47,1.74 L4.47,1.2 L4.47,1.2 Z M6.15,0 L6.15,0 L0.48,0 C0.21,0 0,0.2 0,0.47 L0,8.09 C0,8.35 0.21,8.56 0.48,8.56 L6.15,8.56 C6.42,8.56 6.63,8.35 6.63,8.09 L6.63,0.47 C6.64,0.2 6.42,0 6.15,0 L6.15,0 Z" fill="none" stroke="currentColor" stroke-width="1.5"/></svg>