<svg xmlns="http://www.w3.org/2000/svg" viewBox="0 0 53.33 61.64" width="24" height="24"><path d="M0.09,17.57 C0.1,17.61 0.11,17.64 0.12,17.68 L0.11,17.62 C0.1,17.6 0.09,17.59 0.09,17.57 Z" fill="none" stroke="currentColor" stroke-width="1.5"/><path d="M44,22.02 C40.94,22.67 37.27,23.16 33.24,23.41 C30.87,23.58 28.6,23.64 26.65,23.62 C12.89,23.62 1.58,21.03 0.12,17.68 L8.86,57.2 C8.86,59.66 16.82,61.64 26.64,61.64 C36.47,61.64 44.43,59.66 44.43,57.2 L53.12,17.86 C52.25,19.69 48.58,21.07 44,22.02 Z" fill="none" stroke="currentColor" stroke-width="1.5"/><path d="M0.06,17.48 C0.04,17.42 0.02,17.35 0,17.28 C0.01,17.35 0.04,17.42 0.06,17.48 Z" fill="none" stroke="currentColor" stroke-width="1.5"/><path d="M53.33,16.95 L53.32,16.98 L53.32,16.99 C53.32,16.98 53.33,16.96 53.33,16.95 Z" fill="none" stroke="currentColor" stroke-width="1.5"/><path d="M52.56,14.63 C52.56,12.52 47.97,10.67 41,9.58 L41,4.85 L40.52,4.85 L40.52,5 L12.52,5 L12.52,4.85 L12.04,4.85 L12.04,9.58 C5.07,10.67 0.49,12.52 0.49,14.63 C0.49,14.79 0.52,14.95 0.57,15.1 L0.73,14.63 C0.79,16.28 3.92,18.02 9.45,19.21 C14.02,20.14 19.99,20.7 26.52,20.7 C29.14,20.69 31.49,20.6 33.62,20.47 C37.76,20.2 41.48,19.69 44.51,19.02 C51.24,17.43 52.58,15.22 52.36,14.67 L52.5,15.01 C52.53,14.88 52.56,14.76 52.56,14.63 Z" fill="none" stroke="currentColor" stroke-width="1.5"/><path d="M37.52,0 L15.52,0 L12.52,3 L40.52,3 Z" fill="none" stroke="currentColor" stroke-width="1.5"/></svg>