<svg xmlns="http://www.w3.org/2000/svg" viewBox="0 0 58.32 59.57" width="24" height="24"><path d="M24.88,56.57 C24.88,58.22 26.22,59.57 27.88,59.57 L55.32,59.57 C56.98,59.57 58.32,58.22 58.32,56.57 L58.32,28.46 C58.32,26.8 56.98,25.46 55.32,25.46 L27.88,25.46 C26.22,25.46 24.88,26.8 24.88,28.46 L24.88,56.57 Z" fill="none" stroke="currentColor" stroke-width="1.5"/><path d="M22.23,25.85 C22.23,24.19 23.58,22.84 25.23,22.84 L45.8,22.84 L45.8,15.7 C45.8,14.04 44.46,12.7 42.8,12.7 L15.36,12.7 C13.71,12.7 12.36,14.04 12.36,15.7 L12.36,43.8 C12.36,45.46 13.71,46.81 15.36,46.81 L22.23,46.81 L22.23,25.85 Z" fill="none" stroke="currentColor" stroke-width="1.5"/><path d="M9.87,13.15 C9.87,11.49 11.21,10.15 12.87,10.15 L33.44,10.15 L33.44,3 C33.44,1.34 32.09,0 30.44,0 L3,0 C1.34,0 0,1.34 0,3 L0,31.11 C0,32.76 1.34,34.11 3,34.11 L9.87,34.11 L9.87,13.15 Z" fill="none" stroke="currentColor" stroke-width="1.5"/></svg>