<svg xmlns="http://www.w3.org/2000/svg" viewBox="0 0 55.7 56.81" width="24" height="24"><path d="M50.7,0 L5,0 C2.24,0 0,2.24 0,5 L0,51.81 C0,54.57 2.24,56.81 5,56.81 L50.69,56.81 C53.46,56.81 55.69,54.57 55.69,51.81 L55.69,5 C55.7,2.24 53.46,0 50.7,0 Z M45.62,39.1 L52.53,39.1 L52.53,48.19 L45.62,48.19 L45.62,39.1 Z M37.16,27.3 L44.07,27.3 L44.07,48.19 L37.16,48.19 L37.16,27.3 Z M28.7,34.38 L35.6,34.38 L35.6,48.19 L28.7,48.19 L28.7,34.38 Z M53.03,50.22 L53.03,51.96 L53.03,52.96 L52.03,52.96 L29.14,52.96 L28.14,52.96 L28.14,51.96 L28.14,50.22 L28.14,49.22 L29.14,49.22 L52.03,49.22 L53.03,49.22 L53.03,50.22 Z" fill="none" stroke="currentColor" stroke-width="1.5"/><rect x="29.7" y="35.39" width="4.9" height="11.8" fill="none" stroke="currentColor"/><rect x="38.17" y="28.31" width="4.9" height="18.89" fill="none" stroke="currentColor"/><rect x="46.54" y="40.1" width="4.9" height="7.09" fill="none" stroke="currentColor"/><rect x="29.17" y="50.3" width="22.89" height="1.74" fill="none" stroke="currentColor"/></svg>