<svg xmlns="http://www.w3.org/2000/svg" viewBox="0 0 57.15 56.0" width="24" height="24"><path d="M54.76,23 C55.86,23 57.15,22.22 57.15,21.11 L57.15,13.39 C57.15,12.28 55.86,11 54.76,11 L47.04,11 C46.4,11 45.8,11.5 45.43,11.96 L41.15,9.12 L41.15,2.3 C41.15,1.2 40.34,0 39.24,0 L31.52,0 C30.41,0 29.15,1.2 29.15,2.3 L29.15,10.03 C29.15,10.41 29.44,10.76 29.63,11.06 L13.73,29.44 L14.53,30 L14.55,30 L13.66,30.78 L29.15,47.32 L29.15,53.7 C29.15,54.8 30.41,56 31.52,56 L39.24,56 C40.34,56 41.15,54.8 41.15,53.7 L41.15,46.72 L45.83,42.78 C46.16,43.02 46.6,43 47.04,43 L54.76,43 C55.86,43 57.15,42.43 57.15,41.32 L57.15,33.6 C57.15,32.5 55.86,32 54.76,32 L52.15,32 L52.15,23 L54.76,23 Z M31.62,12 L37.16,12 L40.96,19.71 L17.82,27.95 L31.62,12 Z M45.15,18.28 L42.92,19.05 L39.41,12.01 C39.98,11.97 40.53,11.69 40.87,11.26 L45.15,14.29 L45.15,18.28 Z M29.89,44.83 L17.5,31.8 L40.4,36.47 L36.72,44 L31.52,44 C30.85,44 30.26,44.32 29.89,44.83 Z M39.24,44 L38.95,44 L42.48,36.88 L45.15,37.4 L45.15,41.05 L40.74,44.61 C40.37,44.23 39.81,44 39.24,44 Z M45.15,33.6 L45.15,35.36 L43.38,35.01 L45.94,29.73 L46.91,31.62 C45.9,31.72 45.15,32.56 45.15,33.6 Z M41.3,34.6 L18.3,29.92 L41.86,21.53 L44.79,27.47 L41.3,34.6 Z M43.81,20.86 L45.15,20.4 L45.15,21.11 C45.15,22.18 45.93,23.04 46.98,23.1 L45.95,25.2 L43.81,20.86 Z M50.15,32 L49.06,32 L47.02,27.61 L49.15,23 L50.15,23 L50.15,32 Z" fill="none" stroke="currentColor" stroke-width="1.5"/><path d="M13.63,24.07 L13.63,24.06 C13.4,24.1 13.16,24.13 12.93,24.16 C12.78,24.18 12.64,24.21 12.49,24.22 C12.27,24.25 12.05,24.27 11.83,24.29 C11.66,24.3 11.5,24.31 11.33,24.33 C11.04,24.35 10.74,24.36 10.45,24.38 C10.38,24.38 10.31,24.38 10.25,24.38 C9.9,24.39 9.55,24.4 9.18,24.4 C9.1,24.4 9.03,24.41 8.95,24.41 C5.37,24.41 1.77,23.84 0.01,22.75 L0.01,37.14 C0.11,37.48 0.96,37.91 2.16,38.3 C3.77,38.77 6.25,39.17 9.53,39.17 C15.54,39.17 18.03,37.81 18.03,37.08 L18.04,22.62 C17.11,23.23 15.59,23.75 13.63,24.07 Z" fill="none" stroke="currentColor" stroke-width="1.5"/><path d="M8.95,18.83 C3.16,18.83 0,20.22 0,20.93 C0,21.64 3.16,23.03 8.95,23.03 C10.79,23.03 12.36,22.88 13.65,22.67 C16.42,22.21 17.89,21.42 17.89,20.93 C17.89,20.44 16.42,19.65 13.65,19.19 C12.36,18.97 10.79,18.83 8.95,18.83 Z" fill="none" stroke="currentColor" stroke-width="1.5"/></svg>