<svg xmlns="http://www.w3.org/2000/svg" viewBox="0 0 61.01 64.66" width="24" height="24"><path d="M5.97,4.31 C2.98,4.31 0,7.29 0,10.28 L0,59.03 C0,62.01 2.98,64.66 5.97,64.66 L55.38,64.66 C58.36,64.66 61.02,62.01 61.02,59.03 L61.02,10.28 C61.02,7.3 58.36,4.31 55.38,4.31 L5.97,4.31 Z" fill="none" stroke="currentColor" stroke-width="1.5"/><path d="M12.31,8.95 L6.8,8.95 L6.8,0 L12.31,0 L12.31,8.95 Z" fill="none" stroke="currentColor" stroke-width="1.5"/><path d="M7.58,3.69 C7.58,3.69 5.06,3.69 4.43,3.12 C3.8,2.56 3.8,0.85 3.8,0.85 C3.8,0.85 6.01,0.99 6.8,1.56 C7.27,2.13 7.58,3.69 7.58,3.69 L7.58,3.69 Z" fill="none" stroke="currentColor" stroke-width="1.5"/><path d="M7.43,3.84 C6.64,3.84 4.91,3.84 4.28,3.27 C3.65,2.7 3.65,0.99 3.65,0.85 C3.65,0.57 3.65,0.57 3.65,0.57 C3.8,0.57 3.8,0.57 3.8,0.57 C3.96,0.71 6.17,0.85 6.95,1.42 C7.58,1.99 7.74,3.55 7.9,3.69 C7.9,3.84 7.9,3.84 7.9,3.84 C7.58,3.84 7.58,3.84 7.58,3.84 C7.58,3.84 7.58,3.84 7.43,3.84 L7.43,3.84 Z M3.96,0.99 C4.12,1.56 4.12,2.7 4.59,2.98 C4.91,3.41 6.32,3.55 7.43,3.55 C7.27,2.98 6.95,2.13 6.64,1.7 C6.17,1.28 4.75,1.14 3.96,0.99 L3.96,0.99 Z" fill="none" stroke="currentColor" stroke-width="1.5"/><path d="M11.36,7.39 C11.36,7.39 12.47,5.4 13.41,5.11 C14.2,4.97 15.93,5.68 15.93,5.68 C15.93,5.68 14.67,7.53 13.73,7.67 C12.94,7.96 11.36,7.39 11.36,7.39 L11.36,7.39 Z" fill="none" stroke="currentColor" stroke-width="1.5"/><path d="M13.26,7.96 C12.47,7.96 11.37,7.67 11.21,7.67 C11.05,7.53 11.05,7.53 11.05,7.53 C11.05,7.39 11.05,7.39 11.05,7.39 C11.21,7.1 12.31,5.26 13.26,4.97 C13.41,4.97 13.57,4.97 13.73,4.97 C14.52,4.97 15.93,5.54 15.93,5.54 C16.25,5.68 16.25,5.68 16.25,5.68 C16.09,5.82 16.09,5.82 16.09,5.82 C16.09,5.97 14.83,7.67 13.88,7.96 C13.73,7.96 13.57,7.96 13.26,7.96 L13.26,7.96 Z M11.68,7.39 C11.99,7.39 12.78,7.67 13.25,7.67 C13.41,7.67 13.57,7.53 13.73,7.53 C14.36,7.39 15.14,6.39 15.62,5.82 C15.14,5.68 14.2,5.26 13.73,5.26 C13.57,5.26 13.57,5.26 13.41,5.4 C12.78,5.54 12,6.68 11.68,7.39 L11.68,7.39 Z" fill="none" stroke="currentColor" stroke-width="1.5"/><path d="M5.97,4.31 C2.98,4.31 0,7.29 0,10.28 L0,59.03 C0,62.01 2.98,64.66 5.97,64.66 L55.38,64.66 C58.36,64.66 61.02,62.01 61.02,59.03 L61.02,10.28 C61.02,7.3 58.36,4.31 55.38,4.31 L5.97,4.31 Z" fill="none" stroke="currentColor" stroke-width="1.5"/><path d="M12.31,8.95 L6.8,8.95 L6.8,0 L12.31,0 L12.31,8.95 Z" fill="none" stroke="currentColor" stroke-width="1.5"/><path d="M7.58,3.69 C7.58,3.69 5.06,3.69 4.43,3.12 C3.8,2.56 3.8,0.85 3.8,0.85 C3.8,0.85 6.01,0.99 6.8,1.56 C7.27,2.13 7.58,3.69 7.58,3.69 L7.58,3.69 Z" fill="none" stroke="currentColor" stroke-width="1.5"/><path d="M7.43,3.84 C6.64,3.84 4.91,3.84 4.28,3.27 C3.65,2.7 3.65,0.99 3.65,0.85 C3.65,0.57 3.65,0.57 3.65,0.57 C3.8,0.57 3.8,0.57 3.8,0.57 C3.96,0.71 6.17,0.85 6.95,1.42 C7.58,1.99 7.74,3.55 7.9,3.69 C7.9,3.84 7.9,3.84 7.9,3.84 C7.58,3.84 7.58,3.84 7.58,3.84 C7.58,3.84 7.58,3.84 7.43,3.84 L7.43,3.84 Z M3.96,0.99 C4.12,1.56 4.12,2.7 4.59,2.98 C4.91,3.41 6.32,3.55 7.43,3.55 C7.27,2.98 6.95,2.13 6.64,1.7 C6.17,1.28 4.75,1.14 3.96,0.99 L3.96,0.99 Z" fill="none" stroke="currentColor" stroke-width="1.5"/><path d="M11.36,7.39 C11.36,7.39 12.47,5.4 13.41,5.11 C14.2,4.97 15.93,5.68 15.93,5.68 C15.93,5.68 14.67,7.53 13.73,7.67 C12.94,7.96 11.36,7.39 11.36,7.39 L11.36,7.39 Z" fill="none" stroke="currentColor" stroke-width="1.5"/><path d="M13.26,7.96 C12.47,7.96 11.37,7.67 11.21,7.67 C11.05,7.53 11.05,7.53 11.05,7.53 C11.05,7.39 11.05,7.39 11.05,7.39 C11.21,7.1 12.31,5.26 13.26,4.97 C13.41,4.97 13.57,4.97 13.73,4.97 C14.52,4.97 15.93,5.54 15.93,5.54 C16.25,5.68 16.25,5.68 16.25,5.68 C16.09,5.82 16.09,5.82 16.09,5.82 C16.09,5.97 14.83,7.67 13.88,7.96 C13.73,7.96 13.57,7.96 13.26,7.96 L13.26,7.96 Z M11.68,7.39 C11.99,7.39 12.78,7.67 13.25,7.67 C13.41,7.67 13.57,7.53 13.73,7.53 C14.36,7.39 15.14,6.39 15.62,5.82 C15.14,5.68 14.2,5.26 13.73,5.26 C13.57,5.26 13.57,5.26 13.41,5.4 C12.78,5.54 12,6.68 11.68,7.39 L11.68,7.39 Z" fill="none" stroke="currentColor" stroke-width="1.5"/></svg>