<svg xmlns="http://www.w3.org/2000/svg" viewBox="0 0 12.6 8.95" width="24" height="24"><path d="M8.66,8.95 L3.15,8.95 L3.15,0 L8.66,0 L8.66,8.95 Z" fill="none" stroke="currentColor" stroke-width="1.5"/><path d="M3.94,3.69 C3.94,3.69 1.42,3.69 0.79,3.12 C0.16,2.56 0.16,0.85 0.16,0.85 C0.16,0.85 2.36,0.99 3.15,1.56 C3.62,2.13 3.94,3.69 3.94,3.69 L3.94,3.69 Z" fill="none" stroke="currentColor" stroke-width="1.5"/><rect x="0" y="0" width="0" height="0" fill="none" stroke="currentColor"/><path d="M3.78,3.84 C2.99,3.84 1.26,3.84 0.63,3.27 C0,2.7 0,0.99 0,0.85 C0,0.57 0,0.57 0,0.57 C0.16,0.57 0.16,0.57 0.16,0.57 C0.32,0.71 2.52,0.85 3.31,1.42 C3.94,1.99 4.09,3.55 4.25,3.69 C4.25,3.83 4.25,3.83 4.25,3.83 C3.94,3.83 3.94,3.83 3.94,3.83 C3.94,3.83 3.94,3.84 3.78,3.84 L3.78,3.84 Z M0.32,0.99 C0.47,1.56 0.47,2.7 0.95,2.98 C1.26,3.41 2.68,3.55 3.78,3.55 C3.62,2.98 3.31,2.13 2.99,1.7 C2.52,1.28 1.1,1.14 0.32,0.99 L0.32,0.99 Z" fill="none" stroke="currentColor" stroke-width="1.5"/><path d="M7.72,7.39 C7.72,7.39 8.82,5.4 9.77,5.11 C10.55,4.97 12.29,5.68 12.29,5.68 C12.29,5.68 11.03,7.53 10.08,7.67 C9.29,7.96 7.72,7.39 7.72,7.39 L7.72,7.39 Z" fill="none" stroke="currentColor" stroke-width="1.5"/><rect x="0" y="0" width="0" height="0" fill="none" stroke="currentColor"/><path d="M9.61,7.96 C8.82,7.96 7.72,7.67 7.56,7.67 C7.4,7.53 7.4,7.53 7.4,7.53 C7.4,7.39 7.4,7.39 7.4,7.39 C7.56,7.1 8.66,5.26 9.61,4.97 C9.77,4.97 9.92,4.97 10.08,4.97 C10.87,4.97 12.29,5.54 12.29,5.54 C12.6,5.68 12.6,5.68 12.6,5.68 C12.44,5.82 12.44,5.82 12.44,5.82 C12.44,5.97 11.18,7.67 10.24,7.96 C10.08,7.96 9.92,7.96 9.61,7.96 L9.61,7.96 Z M8.03,7.39 C8.35,7.39 9.14,7.67 9.61,7.67 C9.77,7.67 9.92,7.53 10.08,7.53 C10.71,7.39 11.5,6.39 11.97,5.82 C11.5,5.68 10.55,5.26 10.08,5.26 C9.92,5.26 9.92,5.26 9.77,5.4 C9.14,5.54 8.35,6.68 8.03,7.39 L8.03,7.39 Z" fill="none" stroke="currentColor" stroke-width="1.5"/></svg>