<svg xmlns="http://www.w3.org/2000/svg" viewBox="0 0 32.46 17.27" width="24" height="24"><path d="M26.79,7.8 L25.7,7.56 L24.52,6.34 L21.44,6.63 L20.16,4.39 L16.53,4.44 L15.69,4.4 C15.69,4.4 14.96,3.18 13.88,2.37 L13.88,2.37 C11.02,0.07 6.84,0 3.89,2.42 C0.5,5.19 0,10.19 2.78,13.58 C2.97,13.82 3.18,14.05 3.4,14.26 C6.26,17.02 10.79,17.27 13.93,14.69 C14.35,14.37 14.7,14 15,13.63 C15.32,13.24 15.6,12.83 15.84,12.4 L15.82,12.4 C16.09,11.91 16.24,11.55 16.28,11.45 L31.16,11.24 L32.46,8.81 L29.6,6.1 L26.79,7.8 Z M5.43,10.52 C4.28,10.53 3.34,9.61 3.32,8.46 C3.3,7.31 4.22,6.37 5.37,6.35 C6.52,6.34 7.47,7.26 7.48,8.41 C7.5,9.55 6.58,10.5 5.43,10.52 Z" fill="none" stroke="currentColor" stroke-width="1.5"/></svg>