<svg xmlns="http://www.w3.org/2000/svg" viewBox="0 0 40.79 53.76" width="24" height="24"><path d="M37.79,0 L3,0 C1.34,0 0,1.34 0,3 L0,50.76 C0,52.41 1.34,53.76 3,53.76 L37.78,53.76 C39.44,53.76 40.78,52.41 40.78,50.76 L40.78,3 C40.79,1.34 39.44,0 37.79,0 Z M27.5,7.62 L35.74,7.62 L35.74,10.95 L27.5,10.95 L27.5,7.62 Z M16.21,7.62 L24.45,7.62 L24.45,10.95 L16.21,10.95 L16.21,7.62 Z M4.92,7.62 L13.16,7.62 L13.16,10.95 L4.92,10.95 L4.92,7.62 Z M4.92,13.37 L13.16,13.37 L13.16,16.71 L4.92,16.71 L4.92,13.37 Z M4.97,19.12 L13.21,19.12 L13.21,22.46 L4.97,22.46 L4.97,19.12 Z M13.23,24.87 L13.23,28.21 L4.99,28.21 L4.99,24.87 L13.23,24.87 Z M4.99,30.62 L13.23,30.62 L13.23,33.96 L4.99,33.96 L4.99,30.62 Z M13.28,39.71 L5.04,39.71 L5.04,36.37 L13.28,36.37 L13.28,39.71 Z M16.21,13.37 L24.45,13.37 L24.45,16.71 L16.21,16.71 L16.21,13.37 Z M16.26,19.12 L24.5,19.12 L24.5,22.46 L16.26,22.46 L16.26,19.12 Z M24.52,24.87 L24.52,28.21 L16.28,28.21 L16.28,24.87 L24.52,24.87 Z M16.28,30.62 L24.52,30.62 L24.52,33.96 L16.28,33.96 L16.28,30.62 Z M24.58,39.71 L16.33,39.71 L16.33,36.37 L24.57,36.37 L24.57,39.71 Z M27.5,13.37 L35.74,13.37 L35.74,16.71 L27.5,16.71 L27.5,13.37 Z M27.55,19.12 L35.8,19.12 L35.8,22.46 L27.55,22.46 L27.55,19.12 Z M35.81,24.87 L35.81,28.21 L27.57,28.21 L27.57,24.87 L35.81,24.87 Z M27.57,30.62 L35.81,30.62 L35.81,33.96 L27.57,33.96 L27.57,30.62 Z M35.87,39.71 L27.62,39.71 L27.62,36.37 L35.87,36.37 L35.87,39.71 Z" fill="none" stroke="currentColor" stroke-width="1.5"/></svg>