<svg xmlns="http://www.w3.org/2000/svg" viewBox="0 0 60.0 60.0" width="24" height="24"><path d="M60,35 L60,25 L54.99,25 C54.35,22 52.98,18.35 51.06,15.48 L54.3,12.31 L47.25,5.3 L43.86,8.57 C40.98,6.64 38,5.29 34,4.65 L34,0 L24,0 L24,4.77 C21,5.44 17.98,6.71 15.33,8.45 L12.31,5.35 L5.3,12.39 L8.36,15.27 C6.36,18.19 4.96,22 4.3,25 L0,25 L0,35 L4.41,35 C5.09,39 6.41,41.52 8.23,44.22 L4.99,47.54 L12.04,54.62 L15.12,51.39 C17.82,53.21 21,54.54 24,55.23 L24,60 L34,60 L34,55.36 C38,54.69 41.14,53.28 44.07,51.27 L47.53,54.66 L54.62,47.61 L51.18,44.01 C52.92,41.35 54.21,38 54.88,35 L60,35 Z M29.65,48.58 C19.55,48.58 11.36,40.39 11.36,30.3 C11.36,20.2 19.55,12.01 29.65,12.01 C39.74,12.01 47.93,20.2 47.93,30.3 C47.93,40.4 39.74,48.58 29.65,48.58 Z" fill="none" stroke="currentColor" stroke-width="1.5"/></svg>