<svg xmlns="http://www.w3.org/2000/svg" viewBox="0 0 61.77 57.96" width="24" height="24"><path d="M35.45,33.49 C35.43,33.41 35.43,33.34 35.43,33.26 C35.43,33.13 35.46,33.01 35.49,32.89 C36.07,30.25 42.69,28.87 49.25,28.87 C51.47,28.87 53.7,29.04 55.7,29.35 L55.7,5 C55.7,2.24 53.46,0 50.7,0 L5,0 C2.24,0 0,2.24 0,5 L0,51.81 C0,54.57 2.24,56.81 5,56.81 L36.22,56.75 C35.71,56.23 35.43,55.66 35.43,55.08 L35.45,33.49 Z M42.18,8.35 L43.95,8.35 L43.95,17.93 L48.22,17.93 L48.22,19.42 L42.18,19.42 L42.18,8.35 Z M15.74,19.42 L14.06,19.42 L14.06,10.21 L14.03,10.21 L11.8,19.42 L10.31,19.42 L8.08,10.21 L8.05,10.21 L8.05,19.42 L6.37,19.42 L6.37,8.35 L9.13,8.35 L11.09,16.55 L11.12,16.55 L13.04,8.35 L15.74,8.35 L15.74,19.42 Z M21.22,19.73 C20.57,22.01 20.03,22.3 18.31,22.27 C18.09,22.27 17.86,22.24 17.64,22.21 L17.64,20.87 C17.83,20.9 17.99,20.94 18.18,20.94 C18.75,20.94 19.13,20.81 19.31,20.29 L19.53,19.6 L17.16,11.08 L18.96,11.08 L20.4,17.34 L20.43,17.34 L21.76,11.08 L23.51,11.08 L21.22,19.73 Z M27.9,19.63 C25.16,19.63 24.54,17.8 24.54,16.25 L24.54,15.99 L26.3,15.99 L26.3,16.27 C26.3,17.62 26.89,18.3 28.12,18.3 C29.23,18.3 29.79,17.51 29.79,16.69 C29.79,15.53 29.2,15.01 28.21,14.72 L27,14.3 C25.39,13.68 24.69,12.84 24.69,11.26 C24.69,9.25 26.06,8.13 28.13,8.13 C30.97,8.13 31.26,9.9 31.26,11.04 L31.26,11.29 L29.5,11.29 L29.5,11.06 C29.5,10.05 29.05,9.46 27.95,9.46 C27.19,9.46 26.46,9.88 26.46,11.06 C26.46,12.01 26.94,12.49 28.12,12.94 L29.31,13.37 C30.88,13.93 31.56,14.78 31.56,16.3 C31.56,18.66 30.13,19.63 27.9,19.63 Z M33.11,13.88 C33.11,9.93 34.22,8.13 36.77,8.13 C39.31,8.13 40.43,9.93 40.43,13.88 C40.43,15.93 40.05,17.46 39.56,18.27 L40.69,19.46 L39.64,20.41 L38.5,19.26 C38.05,19.53 37.46,19.63 36.77,19.63 C34.22,19.63 33.11,17.84 33.11,13.88 Z" fill="none" stroke="currentColor" stroke-width="1.5"/><path d="M37.4,18.19 L36.57,17.37 L37.57,16.36 L38.3,17.09 C38.55,16.43 38.66,15.39 38.66,13.84 C38.66,10.11 37.82,9.46 36.77,9.46 C35.71,9.46 34.88,10.12 34.88,13.84 C34.88,17.65 35.71,18.3 36.77,18.3 C37,18.3 37.2,18.27 37.4,18.19 Z" fill="none" stroke="currentColor" stroke-width="1.5"/><path d="M55.7,37.18 L55.7,37.17 C55.35,37.23 55.01,37.27 54.66,37.32 C54.49,37.34 54.32,37.37 54.14,37.39 C53.82,37.43 53.49,37.45 53.17,37.48 C52.96,37.5 52.75,37.52 52.54,37.53 C52.13,37.56 51.71,37.58 51.28,37.6 C51.21,37.6 51.14,37.61 51.07,37.61 C50.58,37.62 50.08,37.64 49.56,37.64 C49.46,37.64 49.35,37.64 49.25,37.64 C44.32,37.64 39.36,36.86 36.95,35.36 L36.95,55.17 C37.08,55.63 38.25,56.23 39.89,56.76 C42.11,57.42 45.53,57.96 50.05,57.96 C58.32,57.96 61.75,56.09 61.75,55.09 L61.77,35.18 C60.48,36.02 58.39,36.73 55.7,37.18 Z M43.51,40.25 L47.46,40.25 L49.34,49.55 L49.37,49.55 L51.27,40.25 L55.2,40.25 L55.2,53.42 L52.77,53.42 L52.77,42.91 L52.73,42.91 L50.39,53.42 L48.32,53.42 L45.98,42.91 L45.94,42.91 L45.94,53.42 L43.51,53.42 L43.51,40.25 Z" fill="none" stroke="currentColor" stroke-width="1.5"/><path d="M49.25,30.37 C41.28,30.37 36.93,32.28 36.93,33.26 C36.93,34.24 41.28,36.15 49.25,36.15 C51.78,36.15 53.94,35.95 55.72,35.66 C59.53,35.03 61.56,33.93 61.56,33.26 C61.56,32.59 59.53,31.49 55.72,30.86 C53.94,30.57 51.78,30.37 49.25,30.37 Z" fill="none" stroke="currentColor" stroke-width="1.5"/><path d="M45.94,42.91 L45.98,42.91 L48.32,53.42 L50.39,53.42 L52.73,42.91 L52.77,42.91 L52.77,53.42 L55.21,53.42 L55.21,40.25 L51.28,40.25 L49.38,49.55 L49.34,49.55 L47.46,40.25 L43.51,40.25 L43.51,53.42 L45.94,53.42 Z" fill="none" stroke="currentColor" stroke-width="1.5"/><path d="M11.12,16.55 L11.08,16.55 L9.13,8.35 L6.37,8.35 L6.37,19.42 L8.05,19.42 L8.05,10.21 L8.08,10.21 L10.31,19.42 L11.8,19.42 L14.03,10.21 L14.06,10.21 L14.06,19.42 L15.74,19.42 L15.74,8.35 L13.04,8.35 Z" fill="none" stroke="currentColor" stroke-width="1.5"/><path d="M20.43,17.34 L20.4,17.34 L18.96,11.08 L17.16,11.08 L19.53,19.6 L19.31,20.28 C19.13,20.81 18.75,20.94 18.18,20.94 C17.99,20.94 17.83,20.9 17.64,20.87 L17.64,22.21 C17.86,22.24 18.09,22.27 18.31,22.27 C20.03,22.3 20.57,22 21.22,19.73 L23.51,11.08 L21.76,11.08 L20.43,17.34 Z" fill="none" stroke="currentColor" stroke-width="1.5"/><path d="M29.31,13.37 L28.12,12.94 C26.94,12.49 26.46,12.01 26.46,11.06 C26.46,9.88 27.19,9.46 27.95,9.46 C29.05,9.46 29.5,10.05 29.5,11.06 L29.5,11.29 L31.27,11.29 L31.27,11.05 C31.27,9.9 30.97,8.13 28.13,8.13 C26.06,8.13 24.69,9.25 24.69,11.26 C24.69,12.84 25.39,13.68 27,14.3 L28.21,14.72 C29.21,15.01 29.79,15.53 29.79,16.69 C29.79,17.51 29.24,18.3 28.12,18.3 C26.89,18.3 26.31,17.62 26.31,16.27 L26.31,15.99 L24.54,15.99 L24.54,16.25 C24.54,17.8 25.16,19.63 27.9,19.63 C30.13,19.63 31.56,18.66 31.56,16.3 C31.56,14.78 30.88,13.93 29.31,13.37 Z" fill="none" stroke="currentColor" stroke-width="1.5"/><path d="M38.5,19.26 L39.64,20.41 L40.69,19.46 L39.56,18.27 C40.05,17.46 40.43,15.93 40.43,13.88 C40.43,9.93 39.31,8.13 36.77,8.13 C34.22,8.13 33.11,9.93 33.11,13.88 C33.11,17.84 34.22,19.63 36.77,19.63 C37.46,19.63 38.05,19.52 38.5,19.26 Z M34.88,13.84 C34.88,10.11 35.71,9.46 36.77,9.46 C37.82,9.46 38.66,10.11 38.66,13.84 C38.66,15.39 38.55,16.42 38.3,17.09 L37.57,16.36 L36.57,17.37 L37.4,18.19 C37.2,18.27 37,18.3 36.77,18.3 C35.71,18.3 34.88,17.65 34.88,13.84 Z" fill="none" stroke="currentColor" stroke-width="1.5"/><path d="M48.22,17.93 L43.94,17.93 L43.94,8.35 L42.18,8.35 L42.18,19.42 L48.22,19.42 Z" fill="none" stroke="currentColor" stroke-width="1.5"/></svg>