<svg xmlns="http://www.w3.org/2000/svg" viewBox="0 0 61.77 57.96" width="24" height="24"><path d="M35.45,33.49 C35.43,33.41 35.43,33.34 35.43,33.26 C35.43,33.13 35.46,33.01 35.49,32.89 C36.07,30.25 42.69,28.87 49.25,28.87 C51.47,28.87 53.7,29.04 55.7,29.35 L55.7,5 C55.7,2.24 53.46,0 50.7,0 L5,0 C2.24,0 0,2.24 0,5 L0,51.81 C0,54.57 2.24,56.81 5,56.81 L36.22,56.75 C35.71,56.23 35.43,55.66 35.43,55.08 L35.45,33.49 Z" fill="none" stroke="currentColor" stroke-width="1.5"/><path d="M55.7,37.18 L55.7,37.17 C55.35,37.23 55.01,37.27 54.66,37.32 C54.49,37.34 54.32,37.37 54.14,37.39 C53.82,37.43 53.49,37.45 53.17,37.48 C52.96,37.5 52.75,37.52 52.54,37.53 C52.13,37.56 51.71,37.58 51.28,37.6 C51.21,37.6 51.14,37.61 51.07,37.61 C50.58,37.62 50.08,37.64 49.56,37.64 C49.46,37.64 49.35,37.64 49.25,37.64 C44.32,37.64 39.36,36.86 36.95,35.36 L36.95,55.17 C37.08,55.63 38.25,56.23 39.89,56.76 C42.11,57.42 45.53,57.96 50.05,57.96 C58.32,57.96 61.75,56.09 61.75,55.09 L61.77,35.18 C60.48,36.02 58.39,36.73 55.7,37.18 Z" fill="none" stroke="currentColor" stroke-width="1.5"/><path d="M49.25,30.37 C41.28,30.37 36.93,32.28 36.93,33.26 C36.93,34.24 41.28,36.15 49.25,36.15 C51.78,36.15 53.94,35.95 55.72,35.66 C59.53,35.03 61.56,33.93 61.56,33.26 C61.56,32.59 59.54,31.49 55.72,30.86 C53.94,30.57 51.78,30.37 49.25,30.37 Z" fill="none" stroke="currentColor" stroke-width="1.5"/><path d="M48.06,49.04 L48.06,49.43 C48.06,50.67 48.41,51.46 49.81,51.46 C50.62,51.46 51.4,50.94 51.4,49.84 C51.4,48.64 50.79,48.19 49.03,47.59 C46.67,46.77 45.58,45.8 45.58,43.6 C45.58,41.04 47.15,39.73 49.66,39.73 C52.02,39.73 53.74,40.74 53.74,43.27 L53.74,43.64 L51.19,43.64 C51.19,42.4 50.77,41.68 49.75,41.68 C48.55,41.68 48.24,42.44 48.24,43.21 C48.24,44.03 48.48,44.52 49.61,45 L51.65,45.89 C53.65,46.76 54.16,47.77 54.16,49.38 C54.16,52.16 52.47,53.42 49.59,53.42 C46.58,53.42 45.4,52.01 45.4,49.58 L45.4,49.04 L48.06,49.04 Z" fill="none" stroke="currentColor" stroke-width="1.5"/></svg>