<svg xmlns="http://www.w3.org/2000/svg" viewBox="0 0 49.39 59.76" width="24" height="24"><path d="M49.32,9.54 C47.93,13.37 38.27,15.66 24.66,15.66 C11.05,15.66 1.74,13.04 0,9.32 L0.02,9.29 L0.04,52.45 L0.01,52.48 C0.01,56.5 11.05,59.76 24.66,59.76 C38.27,59.76 49.31,56.5 49.31,52.48 L49.31,52.48 L49.34,52.45 L49.35,9.51 L49.32,9.54 Z" fill="none" stroke="currentColor" stroke-width="1.5"/><path d="M49.39,6.37 C49.39,2.85 38.36,0 24.74,0 C11.13,0 0.1,2.85 0.1,6.37 C0.1,9.89 11.13,12.74 24.74,12.74 C38.36,12.74 49.39,9.88 49.39,6.37 L49.39,6.37 Z" fill="none" stroke="currentColor" stroke-width="1.5"/></svg>