<svg xmlns="http://www.w3.org/2000/svg" viewBox="0 0 58.62 49.57" width="24" height="24"><path d="M0,0 L0,14.12 L58.62,14.12 L58.62,0 L0,0 Z M6.85,11.3 L5.5,11.3 L5.5,5.06 L3.76,5.06 L3.76,4.16 L3.89,4.16 C4.7,4.16 5.63,3.96 5.87,2.87 L5.87,2.7 L6.85,2.7 L6.85,11.3 Z M14.39,3.96 C13.08,5.72 11.95,8.71 11.76,11.3 L10.34,11.3 C10.53,8.73 11.76,5.87 13.09,4.11 L9.43,4.11 L9.43,2.87 L14.39,2.87 L14.39,3.96 Z M20.38,11.3 L15.49,11.3 C15.49,7.56 19,7.64 19,4.97 C19,4.27 18.7,3.67 17.96,3.67 C16.95,3.67 16.79,4.59 16.79,5.47 L15.51,5.47 C15.51,3.76 16.2,2.7 17.98,2.7 C19.7,2.7 20.35,3.75 20.35,5 C20.35,7.85 17.63,8.03 16.99,10.13 L20.38,10.13 L20.38,11.3 Z M23.21,11.3 L21.87,11.3 L21.87,9.69 L23.21,9.69 L23.21,11.3 Z M28.1,11.3 L26.75,11.3 L26.75,5.06 L25.02,5.06 L25.02,4.16 L25.15,4.16 C25.95,4.16 26.89,3.96 27.12,2.87 L27.12,2.7 L28.1,2.7 L28.1,11.3 Z M33.14,11.47 C31.03,11.47 30.63,9.82 30.63,7.35 C30.63,4.78 31.09,2.7 33.3,2.7 C34.76,2.7 35.55,3.38 35.55,4.79 L34.21,4.79 C34.21,4.29 33.98,3.67 33.31,3.67 C32.05,3.67 31.98,5.38 31.98,6.64 L32.01,6.66 C32.34,6.04 32.91,5.75 33.64,5.75 C34.79,5.75 35.71,6.6 35.71,8.31 C35.71,10.29 34.92,11.47 33.14,11.47 Z M38.45,11.3 L37.1,11.3 L37.1,9.69 L38.45,9.69 L38.45,11.3 Z M42.38,11.47 C40.77,11.47 39.87,10.42 39.87,7.08 C39.87,3.74 40.77,2.7 42.38,2.7 C43.99,2.7 44.89,3.74 44.89,7.08 C44.88,10.42 43.99,11.47 42.38,11.47 Z M47.66,11.3 L46.31,11.3 L46.31,9.69 L47.66,9.69 L47.66,11.3 Z M51.59,11.47 C49.98,11.47 49.09,10.42 49.09,7.08 C49.09,3.74 49.98,2.7 51.59,2.7 C53.2,2.7 54.1,3.74 54.1,7.08 C54.1,10.42 53.2,11.47 51.59,11.47 Z" fill="none" stroke="currentColor" stroke-width="1.5"/><path d="M0,32.26 L58.62,32.26 L58.62,18.14 L0,18.14 L0,32.26 Z M51.59,20.84 C53.2,20.84 54.1,21.89 54.1,25.23 C54.1,28.57 53.2,29.61 51.59,29.61 C49.98,29.61 49.09,28.57 49.09,25.23 C49.09,21.89 49.98,20.84 51.59,20.84 Z M46.31,27.84 L47.66,27.84 L47.66,29.44 L46.31,29.44 L46.31,27.84 Z M40.25,22.3 L40.38,22.3 C41.19,22.3 42.12,22.11 42.36,21.01 L42.36,20.84 L43.34,20.84 L43.34,29.44 L41.99,29.44 L41.99,23.2 L40.25,23.2 L40.25,22.3 Z M37.1,27.84 L38.45,27.84 L38.45,29.44 L37.1,29.44 L37.1,27.84 Z M33.3,20.84 C34.76,20.84 35.55,21.52 35.55,22.93 L34.21,22.93 C34.21,22.44 33.98,21.82 33.31,21.82 C32.05,21.82 31.98,23.53 31.98,24.78 L32.01,24.8 C32.34,24.18 32.91,23.89 33.64,23.89 C34.79,23.89 35.71,24.74 35.71,26.46 C35.71,28.43 34.92,29.61 33.15,29.61 C31.03,29.61 30.63,27.96 30.63,25.5 C30.63,22.92 31.09,20.84 33.3,20.84 Z M25.02,22.3 L25.15,22.3 C25.95,22.3 26.88,22.11 27.12,21.01 L27.12,20.84 L28.1,20.84 L28.1,29.44 L26.75,29.44 L26.75,23.2 L25.02,23.2 L25.02,22.3 Z M21.87,27.84 L23.21,27.84 L23.21,29.44 L21.87,29.44 L21.87,27.84 Z M17.96,21.82 C16.95,21.82 16.79,22.74 16.79,23.61 L15.51,23.61 C15.51,21.9 16.2,20.85 17.98,20.85 C19.7,20.85 20.35,21.89 20.35,23.14 C20.35,25.99 17.63,26.18 16.99,28.28 L20.38,28.28 L20.38,29.44 L15.49,29.44 C15.49,25.7 19,25.79 19,23.12 C19,22.41 18.7,21.82 17.96,21.82 Z M9.43,21.01 L14.4,21.01 L14.4,22.11 C13.08,23.87 11.95,26.86 11.76,29.44 L10.34,29.44 C10.53,26.88 11.76,24.01 13.1,22.25 L9.43,22.25 L9.43,21.01 Z M3.76,22.3 L3.89,22.3 C4.7,22.3 5.63,22.11 5.87,21.01 L5.87,20.84 L6.85,20.84 L6.85,29.44 L5.5,29.44 L5.5,23.2 L3.76,23.2 L3.76,22.3 Z" fill="none" stroke="currentColor" stroke-width="1.5"/><path d="M0,49.57 L58.62,49.57 L58.62,35.45 L0,35.45 L0,49.57 Z M51.59,38.15 C53.2,38.15 54.1,39.2 54.1,42.54 C54.1,45.88 53.2,46.92 51.59,46.92 C49.98,46.92 49.09,45.88 49.09,42.54 C49.09,39.2 49.98,38.15 51.59,38.15 Z M46.31,45.15 L47.66,45.15 L47.66,46.75 L46.31,46.75 L46.31,45.15 Z M42.4,39.12 C41.4,39.12 41.23,40.05 41.23,40.92 L39.96,40.92 C39.96,39.21 40.64,38.15 42.43,38.15 C44.14,38.15 44.79,39.2 44.79,40.45 C44.79,43.3 42.07,43.48 41.43,45.59 L44.83,45.59 L44.83,46.75 L39.93,46.75 C39.93,43.01 43.44,43.1 43.44,40.43 C43.44,39.72 43.15,39.12 42.4,39.12 Z M37.1,45.15 L38.45,45.15 L38.45,46.75 L37.1,46.75 L37.1,45.15 Z M33.3,38.15 C34.76,38.15 35.55,38.83 35.55,40.24 L34.21,40.24 C34.21,39.74 33.98,39.12 33.31,39.12 C32.05,39.12 31.98,40.84 31.98,42.09 L32.01,42.11 C32.34,41.49 32.91,41.2 33.64,41.2 C34.79,41.2 35.71,42.05 35.71,43.76 C35.71,45.74 34.92,46.92 33.15,46.92 C31.03,46.92 30.63,45.27 30.63,42.81 C30.63,40.23 31.09,38.15 33.3,38.15 Z M25.02,39.61 L25.15,39.61 C25.95,39.61 26.88,39.42 27.12,38.32 L27.12,38.15 L28.1,38.15 L28.1,46.75 L26.75,46.75 L26.75,40.51 L25.02,40.51 L25.02,39.61 Z M21.87,45.15 L23.21,45.15 L23.21,46.75 L21.87,46.75 L21.87,45.15 Z M17.96,39.12 C16.95,39.12 16.79,40.05 16.79,40.92 L15.51,40.92 C15.51,39.21 16.2,38.15 17.98,38.15 C19.7,38.15 20.35,39.2 20.35,40.45 C20.35,43.3 17.63,43.48 16.99,45.59 L20.38,45.59 L20.38,46.75 L15.49,46.75 C15.49,43.01 19,43.1 19,40.43 C19,39.72 18.7,39.12 17.96,39.12 Z M9.43,38.32 L14.4,38.32 L14.4,39.42 C13.08,41.18 11.95,44.16 11.76,46.75 L10.34,46.75 C10.53,44.19 11.76,41.32 13.1,39.56 L9.43,39.56 L9.43,38.32 Z M3.76,39.61 L3.89,39.61 C4.7,39.61 5.63,39.42 5.87,38.32 L5.87,38.15 L6.85,38.15 L6.85,46.75 L5.5,46.75 L5.5,40.51 L3.76,40.51 L3.76,39.61 Z" fill="none" stroke="currentColor" stroke-width="1.5"/><path d="M42.38,3.8 C41.46,3.8 41.22,4.71 41.22,7.21 C41.22,9.71 41.46,10.62 42.38,10.62 C43.3,10.62 43.54,9.71 43.54,7.21 C43.54,4.71 43.3,3.8 42.38,3.8 Z" fill="none" stroke="currentColor" stroke-width="1.5"/><path d="M51.59,3.8 C50.67,3.8 50.43,4.71 50.43,7.21 C50.43,9.71 50.67,10.62 51.59,10.62 C52.51,10.62 52.75,9.71 52.75,7.21 C52.75,4.71 52.51,3.8 51.59,3.8 Z" fill="none" stroke="currentColor" stroke-width="1.5"/><path d="M51.59,28.77 C52.51,28.77 52.75,27.86 52.75,25.35 C52.75,22.85 52.51,21.94 51.59,21.94 C50.67,21.94 50.43,22.85 50.43,25.35 C50.43,27.86 50.67,28.77 51.59,28.77 Z" fill="none" stroke="currentColor" stroke-width="1.5"/><path d="M33.25,28.77 C34.08,28.77 34.36,27.93 34.36,26.92 C34.36,25.73 34.02,25.06 33.25,25.06 C32.27,25.06 32.09,25.95 32.09,26.98 C32.09,27.98 32.46,28.77 33.25,28.77 Z" fill="none" stroke="currentColor" stroke-width="1.5"/><path d="M51.59,46.08 C52.51,46.08 52.75,45.17 52.75,42.66 C52.75,40.16 52.51,39.25 51.59,39.25 C50.67,39.25 50.43,40.16 50.43,42.66 C50.43,45.17 50.67,46.08 51.59,46.08 Z" fill="none" stroke="currentColor" stroke-width="1.5"/><path d="M33.25,46.08 C34.08,46.08 34.36,45.24 34.36,44.23 C34.36,43.04 34.02,42.37 33.25,42.37 C32.27,42.37 32.09,43.26 32.09,44.29 C32.09,45.29 32.46,46.08 33.25,46.08 Z" fill="none" stroke="currentColor" stroke-width="1.5"/><path d="M33.25,10.62 C34.08,10.62 34.36,9.78 34.36,8.78 C34.36,7.59 34.02,6.92 33.25,6.92 C32.27,6.92 32.09,7.81 32.09,8.84 C32.09,9.83 32.46,10.62 33.25,10.62 Z" fill="none" stroke="currentColor" stroke-width="1.5"/></svg>