<svg xmlns="http://www.w3.org/2000/svg" viewBox="0 0 60.3 56.72" width="24" height="24"><path d="M58.75,38.98 C55.95,52.8 42.56,47.21 31.7,56.21 C31.08,56.72 30.78,56.21 30.78,56.21 C24.2,48.2 3.9,54.88 1.38,38.98 C0,30.28 5.22,29.21 5.51,22.67 C5.74,17.61 1.38,12.1 1.38,12.1 L11.03,0.39 C11.03,0.39 20.53,9.98 30.06,0.39 C30.45,0 31.19,0.28 31.3,0.41 C40.37,10.75 49.62,0.39 49.62,0.39 L57.89,11.18 C57.89,11.18 53.52,16.35 53.75,22.09 C54.02,28.87 60.3,31.31 58.75,38.98 Z" fill="none" stroke="currentColor" stroke-width="1.5"/></svg>