<svg xmlns="http://www.w3.org/2000/svg" viewBox="0 0 57.9 58.9" width="24" height="24"><path d="M57.9,10.24 C57.9,14.24 44.94,17.48 28.95,17.48 C12.96,17.48 0,14.24 0,10.24 L9.65,54.08 C9.65,56.75 18.29,58.9 28.95,58.9 C39.61,58.9 48.25,56.75 48.25,54.08 L48.25,54.08 L57.9,10.24 Z" fill="none" stroke="currentColor" stroke-width="1.5"/><path d="M57.9,7.24 C57.9,3.23 44.94,0 28.95,0 C12.96,0 0,3.23 0,7.24 C0,11.24 12.96,14.48 28.95,14.48 C44.94,14.48 57.9,11.24 57.9,7.24 L57.9,7.24 Z" fill="none" stroke="currentColor" stroke-width="1.5"/><ellipse cx="18.689999999999998" cy="46.089999999999996" rx="5.83" ry="5.83" fill="none" stroke="currentColor"/><rect x="22.4" y="22.82" width="11.83" height="11.83" fill="none" stroke="currentColor"/><path d="M43.62,51.78 L31.93,51.78 L37.77,40.91 Z" fill="none" stroke="currentColor" stroke-width="1.5"/></svg>