<svg xmlns="http://www.w3.org/2000/svg" viewBox="0 0 67.35 47.38" width="24" height="24"><path d="M38.09,30.13 C30.9,25.42 26.1,22.27 22.88,20.16 C20.35,23.17 16.57,25.08 12.34,25.08 C11.4,25.08 10.48,24.98 9.59,24.8 C9.59,47.37 9.59,47.38 9.59,47.38 C67.34,47.38 67.34,47.38 67.34,47.38 C67.34,10.63 67.34,10.63 67.34,10.63 L38.09,30.13 Z" fill="none" stroke="currentColor" stroke-width="1.5"/><path d="M26.03,9.88 C26.08,10.35 26.11,10.83 26.11,11.31 C26.11,14.06 25.29,16.61 23.91,18.76 C38.09,27.88 38.09,27.88 38.09,27.88 L65.09,9.88 C43.44,9.88 32.04,9.88 26.03,9.88 Z" fill="none" stroke="currentColor" stroke-width="1.5"/><path d="M22.06,5.35 C20.53,2.51 17.5,0.97 14.64,0.53 C11.84,0 8.5,0.47 6.1,2.33 C1.19,5.9 0,13.32 3.49,18.19 C6.8,23.28 14.17,24.42 19.03,21.32 L19.05,21.31 C19.45,21.08 19.59,20.58 19.37,20.18 C19.15,19.78 18.64,19.64 18.25,19.86 L18.22,19.87 C13.85,22.51 7.77,21.35 5.09,17.09 C2.26,13.05 3.44,6.87 7.41,4.13 C11.13,1.39 17.77,2.62 19.85,6.54 C20.9,8.47 20.82,11.19 20.02,13.28 C19.29,15.19 17.72,16.15 16.75,15.4 C16.4,14.92 16.03,14.52 16.03,13.62 L16.03,10.58 C16.03,9.3 16.12,8.12 15.18,7.23 C14.43,6.51 13.19,6.26 12.24,6.26 C10.39,6.26 8.32,6.95 7.88,9.24 C7.84,9.49 8.02,9.62 8.18,9.65 L10.06,9.85 C10.24,9.85 10.37,9.67 10.4,9.5 C10.56,8.71 11.23,8.33 11.97,8.33 C12.37,8.33 12.82,8.47 13.06,8.83 C13.34,9.23 13.3,9.78 13.3,10.25 L13.3,10.5 C12.17,10.63 10.69,10.71 9.64,11.18 C8.41,11.7 7.56,12.78 7.56,14.36 C7.56,16.38 8.83,17.39 10.47,17.39 C11.86,17.39 12.62,17.07 13.69,15.98 C13.83,16.18 13.93,16.34 14.05,16.5 C14.05,16.5 14.04,16.51 14.04,16.51 C14.96,18.06 17.53,18.99 19.27,18.01 C20.97,17.18 21.94,15.7 22.49,14.26 C23.49,11.35 23.56,8.2 22.06,5.35 Z M13.3,12.48 C13.3,13.24 13.31,13.87 12.93,14.55 C12.62,15.1 12.13,15.43 11.58,15.43 C10.84,15.43 10.4,14.86 10.4,14.02 C10.4,12.36 11.89,12.06 13.3,12.06 L13.3,12.48 L13.3,12.48 Z" fill="none" stroke="currentColor" stroke-width="1.5"/></svg>