<svg xmlns="http://www.w3.org/2000/svg" viewBox="0 0 54.03 52.78" width="24" height="24"><path d="M27.39,52.78 L54.03,52.78 L54.03,36.79 L27.39,36.79 L27.39,52.78 Z M40.36,39.36 C43.23,39.36 45.55,41.69 45.55,44.56 C45.55,47.43 43.23,49.76 40.36,49.76 C37.48,49.76 35.15,47.43 35.15,44.56 C35.15,41.69 37.48,39.36 40.36,39.36 Z" fill="none" stroke="currentColor" stroke-width="1.5"/><rect x="0" y="36.79" width="25.4" height="15.99" fill="none" stroke="currentColor"/><path d="M27.39,34.79 L54.03,34.79 L54.03,19.01 L27.39,19.01 L27.39,34.79 Z M40.36,21.4 C43.23,21.4 45.55,23.73 45.55,26.6 C45.55,29.47 43.23,31.8 40.36,31.8 C37.48,31.8 35.15,29.47 35.15,26.6 C35.15,23.73 37.48,21.4 40.36,21.4 Z" fill="none" stroke="currentColor" stroke-width="1.5"/><path d="M27.39,0 L27.39,17.01 L54.03,17.01 L54.03,0 L27.39,0 Z M40.36,13.84 C37.48,13.84 35.15,11.51 35.15,8.64 C35.15,5.77 37.48,3.44 40.36,3.44 C43.23,3.44 45.55,5.77 45.55,8.64 C45.55,11.51 43.23,13.84 40.36,13.84 Z" fill="none" stroke="currentColor" stroke-width="1.5"/><rect x="0" y="19.01" width="25.4" height="15.78" fill="none" stroke="currentColor"/><rect x="0" y="0" width="25.4" height="17.01" fill="none" stroke="currentColor"/><ellipse cx="40.35" cy="8.64" rx="5.2" ry="5.2" fill="none" stroke="currentColor"/><ellipse cx="40.35" cy="26.599999999999998" rx="5.2" ry="5.2" fill="none" stroke="currentColor"/><ellipse cx="40.35" cy="44.56" rx="5.2" ry="5.2" fill="none" stroke="currentColor"/></svg>