<svg xmlns="http://www.w3.org/2000/svg" viewBox="0 0 67.41 40.54" width="24" height="24"><path d="M67.41,3.21 L16.13,3.21 C16.59,4.37 16.86,5.63 16.86,6.96 C16.86,10.02 15.49,12.75 13.33,14.58 L67.41,14.58 L67.41,3.21 Z" fill="none" stroke="currentColor" stroke-width="1.5"/><path d="M65.41,19.91 L65.41,25.4 L7.85,25.4 L7.85,19.91 L65.41,19.91 M67.41,17.91 L5.85,17.91 L5.85,27.4 L67.41,27.4 L67.41,17.91 L67.41,17.91 Z" fill="none" stroke="currentColor" stroke-width="1.5"/><path d="M65.41,33.05 L65.41,38.54 L7.85,38.54 L7.85,33.05 L65.41,33.05 M67.41,31.05 L5.85,31.05 L5.85,40.54 L67.41,40.54 L67.41,31.05 L67.41,31.05 Z" fill="none" stroke="currentColor" stroke-width="1.5"/><path d="M24.85,5.45 L30.72,5.45 L30.72,6.75 L26.58,6.75 L26.58,8.26 L30.38,8.26 L30.38,9.47 L26.58,9.47 L26.58,11.19 L30.81,11.19 L30.81,12.5 L24.85,12.5 L24.85,5.45 Z" fill="none" stroke="currentColor" stroke-width="1.5"/><path d="M31.86,7.39 L33.33,7.39 L33.33,8.08 L33.35,8.08 C33.76,7.56 34.35,7.25 35.09,7.25 C35.8,7.25 36.44,7.49 36.75,8.1 C37.08,7.66 37.67,7.25 38.47,7.25 C39.68,7.25 40.54,7.76 40.54,9.08 L40.54,12.5 L38.98,12.5 L38.98,9.6 C38.98,8.92 38.92,8.36 38.03,8.36 C37.14,8.36 36.98,9.01 36.98,9.65 L36.98,12.5 L35.42,12.5 L35.42,9.63 C35.42,9.04 35.46,8.36 34.47,8.36 C34.16,8.36 33.41,8.54 33.41,9.53 L33.41,12.5 L31.86,12.5 L31.86,7.39 Z" fill="none" stroke="currentColor" stroke-width="1.5"/><path d="M41.71,8.96 C41.8,7.65 43.11,7.25 44.38,7.25 C45.52,7.25 46.88,7.48 46.88,8.7 L46.88,11.36 C46.88,11.82 46.94,12.29 47.08,12.5 L45.49,12.5 C45.44,12.34 45.4,12.17 45.38,12 C44.89,12.47 44.16,12.63 43.47,12.63 C42.39,12.63 41.53,12.15 41.53,11.1 C41.53,9.95 42.5,9.67 43.47,9.55 C44.43,9.42 45.32,9.45 45.32,8.88 C45.32,8.28 44.86,8.19 44.31,8.19 C43.71,8.19 43.33,8.41 43.27,8.96 L41.71,8.96 Z M45.32,10 C45.05,10.2 44.51,10.21 44.02,10.29 C43.54,10.38 43.1,10.53 43.1,11.04 C43.1,11.57 43.55,11.69 44.05,11.69 C45.28,11.69 45.32,10.83 45.32,10.52 L45.32,10 Z" fill="none" stroke="currentColor" stroke-width="1.5"/><path d="M49.7,6.6 L48.13,6.6 L48.13,5.45 L49.7,5.45 L49.7,6.6 Z M48.13,7.39 L49.7,7.39 L49.7,12.5 L48.13,12.5 L48.13,7.39 Z" fill="none" stroke="currentColor" stroke-width="1.5"/><path d="M50.97,5.45 L52.54,5.45 L52.54,12.5 L50.97,12.5 L50.97,5.45 Z" fill="none" stroke="currentColor" stroke-width="1.5"/><ellipse cx="6.94" cy="6.94" rx="6.94" ry="6.94" fill="none" stroke="currentColor"/></svg>