<svg xmlns="http://www.w3.org/2000/svg" viewBox="0 0 67.41 40.54" width="24" height="24"><path d="M67.41,3.21 L16.13,3.21 C16.59,4.37 16.86,5.63 16.86,6.96 C16.86,10.02 15.49,12.75 13.33,14.58 L67.41,14.58 L67.41,3.21 Z" fill="none" stroke="currentColor" stroke-width="1.5"/><path d="M65.41,19.91 L65.41,25.4 L7.85,25.4 L7.85,19.91 L65.41,19.91 M67.41,17.91 L5.85,17.91 L5.85,27.4 L67.41,27.4 L67.41,17.91 L67.41,17.91 Z" fill="none" stroke="currentColor" stroke-width="1.5"/><path d="M65.41,33.05 L65.41,38.54 L7.85,38.54 L7.85,33.05 L65.41,33.05 M67.41,31.05 L5.85,31.05 L5.85,40.54 L67.41,40.54 L67.41,31.05 L67.41,31.05 Z" fill="none" stroke="currentColor" stroke-width="1.5"/><ellipse cx="6.94" cy="6.94" rx="6.94" ry="6.94" fill="none" stroke="currentColor"/><path d="M25.25,5.48 L26.97,5.48 L26.97,8.18 L30.15,8.18 L30.15,5.48 L31.88,5.48 L31.88,12.53 L30.15,12.53 L30.15,9.48 L26.97,9.48 L26.97,12.53 L25.25,12.53 L25.25,5.48 Z" fill="none" stroke="currentColor" stroke-width="1.5"/><path d="M35.14,6.78 L32.78,6.78 L32.78,5.48 L39.22,5.48 L39.22,6.78 L36.86,6.78 L36.86,12.53 L35.14,12.53 L35.14,6.78 Z" fill="none" stroke="currentColor" stroke-width="1.5"/><path d="M41.86,6.78 L39.5,6.78 L39.5,5.48 L45.94,5.48 L45.94,6.78 L43.59,6.78 L43.59,12.53 L41.86,12.53 L41.86,6.78 Z" fill="none" stroke="currentColor" stroke-width="1.5"/><path d="M46.84,5.48 L50.38,5.48 C52.34,5.48 53.1,6.59 53.1,7.74 C53.1,8.88 52.34,10 50.38,10 L48.57,10 L48.57,12.53 L46.84,12.53 L46.84,5.48 Z M48.57,8.79 L49.91,8.79 C50.71,8.79 51.43,8.63 51.43,7.74 C51.43,6.84 50.71,6.68 49.91,6.68 L48.57,6.68 L48.57,8.79 Z" fill="none" stroke="currentColor" stroke-width="1.5"/></svg>