<svg xmlns="http://www.w3.org/2000/svg" viewBox="0 0 58.6 35.73" width="24" height="24"><path d="M47.93,23.81 L52.71,18.25 L47.86,12.68 Z" fill="none" stroke="currentColor" stroke-width="1.5"/><path d="M5.68,23.8 L10.47,18.24 L5.62,12.67 Z" fill="none" stroke="currentColor" stroke-width="1.5"/><path d="M0,0 L0,35.73 L58.6,35.73 L58.6,0 L0,0 Z M5.68,23.8 L5.62,12.67 L10.47,18.24 L5.68,23.8 Z M20.91,31.73 L14.95,31.73 L14.95,4.79 L20.91,4.79 L20.91,31.73 Z M32.44,31.73 L26.48,31.73 L26.48,4.79 L32.44,4.79 L32.44,31.73 Z M43.01,31.73 L37.05,31.73 L37.05,4.79 L43.01,4.79 L43.01,31.73 Z M47.93,23.81 L47.86,12.68 L52.71,18.25 L47.93,23.81 Z" fill="none" stroke="currentColor" stroke-width="1.5"/></svg>