<svg xmlns="http://www.w3.org/2000/svg" viewBox="0 0 40.78 53.76" width="24" height="24"><path d="M37.78,0 L3,0 C1.34,0 0,1.34 0,3 L0,50.76 C0,52.41 1.34,53.76 3,53.76 L37.78,53.76 C39.44,53.76 40.78,52.41 40.78,50.76 L40.78,3 C40.78,1.34 39.44,0 37.78,0 Z M34.51,22.52 L6.28,22.52 L6.28,19.19 L34.51,19.19 L34.51,22.52 Z M34.51,16.87 L6.28,16.87 L6.28,13.53 L34.51,13.53 L34.51,16.87 Z M34.51,10.95 L6.28,10.95 L6.28,7.62 L34.51,7.62 L34.51,10.95 Z" fill="none" stroke="currentColor" stroke-width="1.5"/></svg>