<svg xmlns="http://www.w3.org/2000/svg" viewBox="0 0 56.4 62.6" width="24" height="24"><path d="M5.52,6.81 C2.45,6.81 0,9.57 0,12.33 L0,57.39 C0,60.14 2.45,62.59 5.52,62.59 L50.88,62.59 C53.95,62.59 56.4,60.14 56.4,57.39 L56.4,12.33 C56.4,9.57 53.95,6.81 50.88,6.81 L5.52,6.81 Z" fill="none" stroke="currentColor" stroke-width="1.5"/><path d="M4.32,4.41 L4.32,4.41 C4.32,4.35 4.32,4.32 4.32,4.28 C4.32,1.89 6.24,0 8.6,0 C10.36,0 11.86,1.02 12.53,2.52 C12.88,2.27 13.3,2.14 13.78,2.14 C14.96,2.14 15.92,3.07 15.95,4.25 C17.64,4.38 18.95,6.04 18.95,7.35 L18.95,7.64 C18.95,9.05 17.45,10.45 15.57,10.45 L5.53,10.45 C3.65,10.45 2.15,9.05 2.15,7.64 L2.15,7.35 C2.15,6.26 3.04,4.76 4.32,4.41 L4.32,4.41 Z" fill="none" stroke="currentColor" stroke-width="1.5"/><path d="M6.52,4.92 L6.52,4.92 L7.19,4.92 L7.86,8.09 L7.86,8.09 L8.57,4.92 L9.24,4.92 L8.25,8.89 L7.45,8.89 L6.52,4.92 Z" fill="none" stroke="currentColor" stroke-width="1.5"/><path d="M10.29,6.78 L10.29,6.78 L10.74,6.78 C11.06,6.78 11.38,6.58 11.38,6.11 C11.38,5.66 11.19,5.4 10.68,5.4 L10.29,5.4 L10.29,6.78 L10.29,6.78 Z M9.65,4.92 L9.65,4.92 L10.9,4.92 C11.67,4.92 11.99,5.4 11.99,6.07 C11.99,6.81 11.57,7.26 10.84,7.26 L10.29,7.26 L10.29,8.89 L9.65,8.89 L9.65,4.92 L9.65,4.92 Z" fill="none" stroke="currentColor" stroke-width="1.5"/><path d="M14.96,7.48 L14.96,7.48 L14.96,7.54 C14.96,8.28 14.67,8.98 13.74,8.98 C12.75,8.98 12.43,8.31 12.43,6.9 C12.43,5.5 12.75,4.86 13.74,4.86 C14.86,4.86 14.96,5.69 14.96,6.1 L14.96,6.17 L14.32,6.17 L14.32,6.11 C14.32,5.72 14.19,5.31 13.74,5.34 C13.3,5.34 13.07,5.63 13.07,6.9 C13.07,8.18 13.3,8.5 13.74,8.5 C14.29,8.5 14.32,7.9 14.32,7.54 L14.32,7.48 L14.96,7.48 L14.96,7.48 Z" fill="none" stroke="currentColor" stroke-width="1.5"/></svg>