<svg xmlns="http://www.w3.org/2000/svg" viewBox="0 0 16.81 10.45" width="24" height="24"><path d="M2.17,4.41 L2.17,4.41 C2.17,4.35 2.17,4.32 2.17,4.28 C2.17,1.89 4.09,0 6.45,0 C8.21,0 9.71,1.02 10.38,2.52 C10.74,2.27 11.15,2.14 11.63,2.14 C12.81,2.14 13.77,3.07 13.8,4.25 C15.5,4.38 16.81,6.04 16.81,7.35 L16.81,7.64 C16.81,9.05 15.31,10.45 13.42,10.45 L3.39,10.45 C1.5,10.45 0,9.05 0,7.64 L0,7.35 C0,6.26 0.89,4.76 2.17,4.41 L2.17,4.41 Z" fill="none" stroke="currentColor" stroke-width="1.5"/><path d="M4.38,4.92 L4.38,4.92 L5.05,4.92 L5.72,8.09 L5.72,8.09 L6.42,4.92 L7.09,4.92 L6.1,8.89 L5.3,8.89 L4.38,4.92 Z M8.15,6.78 L8.15,6.78 L8.59,6.78 C8.91,6.78 9.23,6.58 9.23,6.11 C9.23,5.66 9.04,5.4 8.53,5.4 L8.15,5.4 L8.15,6.78 L8.15,6.78 Z M7.51,4.92 L7.51,4.92 L8.75,4.92 C9.52,4.92 9.84,5.4 9.84,6.07 C9.84,6.81 9.43,7.26 8.69,7.26 L8.15,7.26 L8.15,8.89 L7.51,8.89 L7.51,4.92 L7.51,4.92 Z M12.81,7.48 L12.81,7.48 L12.81,7.54 C12.81,8.28 12.53,8.98 11.6,8.98 C10.61,8.98 10.29,8.31 10.29,6.9 C10.29,5.5 10.61,4.86 11.6,4.86 C12.72,4.86 12.81,5.69 12.81,6.1 L12.81,6.17 L12.17,6.17 L12.17,6.11 C12.17,5.72 12.04,5.31 11.6,5.34 C11.15,5.34 10.93,5.63 10.93,6.9 C10.93,8.18 11.15,8.5 11.6,8.5 C12.14,8.5 12.17,7.9 12.17,7.54 L12.17,7.48 L12.81,7.48 L12.81,7.48 Z" fill="none" stroke="currentColor" stroke-width="1.5"/></svg>