<svg xmlns="http://www.w3.org/2000/svg" viewBox="0 0 35.47 35.45" width="24" height="24"><path d="M16.54,30.04 L16.54,5.75 L14.76,5.75 L16.92,0 C7.69,0.42 0.32,7.86 0,17.11 L9,17.11 L9,15.26 L16.24,18.36 L9,21.46 L9,19.61 L0.07,19.61 C0.98,28.25 8.09,35.02 16.88,35.45 L14.85,30.04 L16.54,30.04 Z" fill="none" stroke="currentColor" stroke-width="1.5"/><path d="M26.43,21.46 L19.19,18.36 L26.43,15.26 L26.43,17.11 L35.47,17.11 C35.15,7.89 27.83,0.48 18.66,0.01 L20.82,5.75 L19.04,5.75 L19.04,30.04 L20.73,30.04 L18.7,35.44 C27.43,34.97 34.49,28.22 35.4,19.61 L26.43,19.61 L26.43,21.46 Z" fill="none" stroke="currentColor" stroke-width="1.5"/></svg>