<svg xmlns="http://www.w3.org/2000/svg" viewBox="0 0 64.71 51.99" width="24" height="24"><rect x="16.75" y="13.62" width="7.61" height="15.09" fill="none" stroke="currentColor"/><path d="M49.77,26.93 L49.77,20.78 L14.97,20.78 L14.97,26.93 L0,16.6 L14.97,6.26 L14.97,12.24 L49.77,12.24 L49.77,6.26 L64.71,16.6 L49.77,26.93 Z M3.23,16.6 L13.13,23.43 L13.13,18.94 L51.6,18.94 L51.6,23.43 L61.48,16.6 L51.6,9.76 L51.6,14.08 L13.13,14.08 L13.13,9.76 L3.23,16.6 Z" fill="none" stroke="currentColor" stroke-width="1.5"/><path d="M47.74,28.99 L47.74,13.99 L48.12,13.99 C47.27,4.99 40.53,0 32.44,0 C24.32,0 17.56,4.99 16.76,13.99 L24.37,13.99 C24.37,13.99 24.49,6.49 32.56,6.52 C40.29,6.54 40.74,13.67 40.74,13.67 L40.74,28.99 L10.74,28.99 L10.74,51.99 L53.74,51.99 L53.74,28.99 L47.74,28.99 Z" fill="none" stroke="currentColor" stroke-width="1.5"/></svg>