<svg xmlns="http://www.w3.org/2000/svg" viewBox="0 0 68.09 42.46" width="24" height="24"><path d="M0,29.84 L0,30.98 C0,36.69 6.17,42.46 13.77,42.46 L54.32,42.46 C61.93,42.46 68.09,36.69 68.09,30.98 L68.09,29.84 C68.09,24.53 62.75,17.87 55.89,17.28 C55.74,12.54 51.86,8.75 47.08,8.75 C45.22,8.75 43.51,9.32 42.08,10.3 C39.36,4.24 33.28,0 26.2,0 C16.59,0 8.8,7.79 8.8,17.41 C8.8,17.58 8.82,17.74 8.82,17.91 C3.67,19.4 0,25.44 0,29.84 Z M25.01,23.86 L27.56,23.86 L27.56,19.97 L27.56,19.97 C27.83,17.43 30.01,15.46 32.62,15.46 C35.24,15.46 37.42,17.42 37.69,19.97 L37.69,19.97 L37.69,23.86 L40.31,23.86 L40.31,32.43 L25.01,32.43 L25.01,23.86 Z" fill="none" stroke="currentColor" stroke-width="1.5"/><path d="M30.02,19.99 C30.02,19.99 30.13,17.63 32.62,17.63 C35.23,17.62 35.23,19.99 35.23,19.99 L35.23,23.86 L30.02,23.86 L30.02,19.99 Z" fill="none" stroke="currentColor" stroke-width="1.5"/></svg>