<svg xmlns="http://www.w3.org/2000/svg" viewBox="0 0 419.49 397.83" width="24" height="24"><path d="M181.69,397.83 C195.2,375.81 213.24,349.45 217.8,335.99 C162.22,339.55 99.58,323.64 53.07,276.56 C21,244.04 0,191.46 16.32,137.55 C34.23,79.79 84.85,39.36 146.38,23.31 C236.57,0 321.21,36.85 359.65,81.97 C419.49,154.22 395.86,228.26 355.38,275.84 C315.76,326.69 273.5,348.59 181.69,397.83 Z" fill="none" stroke="currentColor" stroke-width="1.5"/><path d="M188.17,237.44 C184.54,244.32 177.31,250.26 162.51,253.72 C159.53,254.55 143.89,254.56 140.28,252.29 C137.21,250.29 134.55,248.09 133.87,244.9 C133.56,239.76 133.29,235.62 134.55,232.91 C137.8,227.93 142.78,225.37 147.44,224.17 L188.17,216.71 Z M230.04,253.29 C224.57,256.26 217.39,258.67 216.02,250.74 L216.02,170.5 C216.02,166.13 212.74,157.87 201.86,150.52 C190.82,143.82 175.82,140.79 156.33,141.93 C136.01,144.16 126.68,152.99 119.27,162.97 C114.08,171.06 115.23,180.24 114.82,187.55 L139.01,187.76 C138.94,184.38 139.12,182.25 140.77,177.45 C143.52,169.68 151.26,164.81 156.83,164.7 C163.47,164.5 171.36,164.52 179.47,167.25 C183.62,168.88 187.33,170.88 188.17,175.02 L188.17,190.25 C188.07,193.25 186.29,195.73 180.04,195.97 C156.63,196.5 147.75,199.22 138.14,201.82 C123.51,206.83 116.26,213.35 111.29,226.09 C107.52,238.74 107.93,252.26 117.28,264.57 C125.41,274.43 139.76,278.16 153.75,278.38 C168.36,278.16 181.06,269.62 191.39,262 C195.19,271.88 203.73,278.82 213.29,278.48 C221.47,277.82 225.45,276.85 229.88,275.38 Z M293.83,273.63 L293.83,255.73 L284.58,255.73 L284.58,96.52 L248.1,96.52 L248.1,123.56 L257.11,123.56 L257.11,273.63 Z M203.22,377.5 C212.52,362.79 222.09,349.13 229.45,326.69 C198.07,333.07 144.35,326.87 106.73,306.49 C72.73,289.52 24.24,251.17 18.53,184.9 C14.48,148.77 33.12,89.66 92.63,54.14 C144.13,21.73 222.75,10.98 292.53,42.65 C353.11,69.34 385.03,119.18 388.06,165.07 C390.73,207.6 377.38,235.29 360.03,257.66 L360.03,255.73 L350.33,255.73 L350.33,96.52 L313.23,96.52 L313.23,123.56 L322.84,123.56 L322.84,273.76 L345.71,273.76 C305.7,326.37 249.75,352.05 203.22,377.5 Z" fill="none" stroke="currentColor" stroke-width="1.5"/></svg>