<svg xmlns="http://www.w3.org/2000/svg" viewBox="0 0 314.36 340.65" width="24" height="24"><path d="M232.04,248.55 C227.08,252.88 223.03,254.2 218.6,250.39 C210.78,243.83 201.67,234.53 194.44,221.66 C183.35,232.41 170.69,245.36 152.08,250.22 C138.17,253.34 119.5,257.52 93.21,248.37 C67.82,238.9 55.52,212.49 55.52,191.7 C55.52,167.52 57.09,138.45 95.32,114.81 C128.42,98.91 157.78,100.5 185.21,96.89 L184.88,73.22 C184.51,69.93 183.63,56.06 164.21,49.57 C152.95,46.6 138.75,49.62 129.31,57.75 C124.62,62.61 121.49,67.84 120.25,75.86 C119.65,79.13 115.16,83.97 110,83.06 C95.82,80.73 85.56,79.8 68.77,78.26 C65,77.9 61.38,73 62.99,67.72 C66.12,47.97 75.01,36.44 85.03,26.53 C100.22,14.22 115.77,0 168.14,1.02 C213.57,2.58 247.16,27.13 247.16,64.9 L247.86,171.05 C247.86,182.48 251.91,190.84 254.19,194.95 L265.97,210.14 C268,213.18 268.28,216.28 265.85,219.49 Z M185.03,133 C159.45,132.97 139.35,137.98 128.27,151.28 C122.75,159.05 118.76,168.71 121.59,186.69 C123.56,196.49 128.26,203.34 136.09,206.81 C146.6,209.7 153.35,209.8 164.65,202.59 C176.27,194.17 185.03,176.58 185.03,161.38 L185.03,133 Z" fill="none" stroke="currentColor" stroke-width="1.5"/><path d="M292.14,311.64 C289.84,312.44 287.81,311.61 288.81,308.03 C292.32,298.09 295.96,290.68 299.26,276.05 C300.08,272.21 300.3,266.99 290.91,265.86 C278.74,264.57 268.5,266.5 257.61,267.35 C254.31,267.43 253.36,264.55 255.42,262.96 C271.68,254.76 284.6,249.35 309.54,255.31 C313.52,256.47 313.88,257.45 314.2,261.82 C314.36,279.81 307.51,298.46 292.14,311.64 Z M2.64,261.55 C0,258.53 3.63,252.65 7.72,255.56 C36.12,278.2 84.27,301.95 140.43,306.75 C179.3,309.34 220.71,307.47 277.91,277.98 C281.66,276.08 285.35,275.94 286.61,278.95 C287.83,283.46 286.47,285.84 284.94,287.12 C258.45,312.89 221.3,328.12 190.92,333.43 C142.59,340.65 103.66,334.21 64.68,311.88 C40.59,298.39 20.08,281.48 2.64,261.55 Z" fill="none" stroke="currentColor" stroke-width="1.5"/></svg>