<svg xmlns="http://www.w3.org/2000/svg" viewBox="0 0 338.53 400.75" width="24" height="24"><path d="M152.41,321.81 L152.41,377.33 C152.41,387.92 143.8,400.38 126.59,400.38 C114.83,400.38 103.35,389.98 103.35,377.33 L103.35,321.81 L83.44,321.81 C74.62,321.81 58.18,312.92 58.18,294.39 L58.18,134.85 L280.4,134.85 L280.4,295.32 C280.4,310.31 267.06,321.81 255.96,321.81 L235.32,321.81 L235.32,377.33 C235.32,390.13 223.64,400.75 209.96,400.75 C198.06,400.75 185.92,389.68 185.92,377.33 L185.92,321.81 Z M338.53,258.51 C338.53,270.72 327.57,282.7 313.83,282.7 C304.28,282.7 289.4,274.88 289.4,258.51 L289.4,153.59 C289.4,142.93 298.64,129.98 313.98,129.98 C328.55,129.98 338.53,142.33 338.53,153.74 Z M49.29,259.47 C49.29,271.51 38.85,282.54 23.89,282.54 C13.02,282.54 0,273.12 0,259.47 L0,153.72 C0,141.82 10.62,130.08 25.26,130.08 C40.25,130.08 49.29,143.29 49.29,152.73 Z M58.3,125.65 C58.14,90.8 77.72,56.26 114.9,36.81 L97.44,4.22 C97.17,2.84 97.74,1.67 99.22,0.73 C101.24,0 102.5,0.83 103.07,1.69 L120.93,33.99 C150.54,21.42 184.95,20.18 217.75,34.06 L236.14,1.41 C236.81,0.67 237.9,0.35 239.73,0.79 C241.29,2.16 241.53,3.43 241.18,4.66 L223.82,36.83 C266.47,59.55 280.98,98.51 280.17,125.65 Z M118.32,85.79 C124.6,85.79 128.4,81.36 128.4,76.54 C128.4,72.78 125.17,66.84 118.65,66.84 C112.46,66.84 109.28,71.5 109.28,76.1 C109.57,83.05 114.18,85.79 118.32,85.79 Z M220.14,85.85 C224.64,85.85 229.12,82.85 229.12,75.98 C229.12,71.59 225.88,66.67 219.86,66.67 C213.95,66.67 210.66,71.58 210.66,75.98 C210.66,82.6 215.14,85.85 220.14,85.85 Z" fill="none" stroke="currentColor" stroke-width="1.5"/></svg>