<svg xmlns="http://www.w3.org/2000/svg" viewBox="0 0 312.13 381.07" width="24" height="24"><path d="M159.31,86.47 C157.39,68.57 163.24,47.67 181.05,26.65 C198.78,8.92 216.88,2.28 234.43,0 C235.72,25.27 228.42,43.06 215.28,59.1 C203.3,74.71 181.09,88.22 159.31,86.47 Z M312.13,275.35 C303.43,305.02 278.66,344.92 258.92,361.86 C237.5,380.66 215.4,374.99 196.94,366.3 C177.52,357.32 156.52,357.26 135.46,366.52 C114.41,375.88 97.54,381.07 76.85,363.61 C57.58,348.29 32.05,308.11 22.76,281.45 C4.24,234.07 0,180.03 22.46,139.47 C40.98,104.82 84.73,84.76 117.86,94.39 C125.82,96.17 137.88,100.7 146.87,104.52 C165.09,113.81 177.41,103.41 193.71,98.26 C218.94,88.19 238.02,89.1 261.89,96.7 C279.14,102.68 293.21,114.61 302.45,128.09 C276.52,144.04 259.2,173.55 262.14,206.56 C266.18,241.72 286.26,263.9 312.13,275.35 Z" fill="none" stroke="currentColor" stroke-width="1.5"/></svg>