<svg xmlns="http://www.w3.org/2000/svg" viewBox="0 0 337.0 159.91" width="24" height="24"><path d="M226.65,87.64 L226.65,72.19 L243.85,72.19 L243.85,55.2 L259.25,55.2 L259.25,72.19 L275.99,72.19 L275.99,87.64 L259.25,87.64 L259.25,104.92 L243.85,104.92 L243.85,87.64 Z M60.78,87.77 L60.78,72.27 L110.46,72.27 L110.46,87.77 Z M82.73,132.03 C109.5,132.13 135.19,113.84 153.52,79.81 C138.38,49.89 112.33,27.59 83.56,27.59 C60.22,27.59 28.67,43.4 28.67,78.9 C28.67,111.65 55.38,132.03 82.73,132.03 Z M184.09,80.06 C200.15,108.15 221.16,131.87 253.3,131.87 C281.62,131.87 309.18,112.69 309.18,80.98 C309.18,47.02 281.32,27.51 255.13,27.51 C227.17,27.89 203.49,43.6 184.09,80.06 Z M168.77,106.64 C147.3,142.17 109.99,159.52 83.56,159.52 C37.75,159.52 0,121.3 0,76.86 C0,42.11 34.57,0 82.9,0 C121.67,0 153.85,28.61 169.12,52.29 C187.89,20.46 221.7,0 255.03,0 C291.01,0 337,30.88 337,80.89 C337,124.83 295.57,159.91 254.79,159.91 C219.4,159.91 188.1,136.39 168.77,106.64 Z" fill="none" stroke="currentColor" stroke-width="1.5"/></svg>