<svg xmlns="http://www.w3.org/2000/svg" viewBox="0 0 343.2 253.09" width="24" height="24"><path d="M230.24,216.82 L266.83,5.43 L303.26,0 L278.97,125.91 L312.69,77.33 L343.2,77.01 L304.86,140.61 L325.47,201.48 L296.55,206.43 L273.38,156.1 L263.16,211.23 Z M154.83,192.05 C161.07,195.27 168.29,199.09 177.51,200.36 C182.41,199.87 187.08,198.89 190.3,194.61 C195.04,188.22 193.17,182.15 189.02,175.44 C183.4,166.29 176.05,162.85 167.93,151.63 C158.53,139.81 161.73,123.9 166.17,112.96 C173.82,95.39 184.75,90.84 197.97,89 C211.86,87.24 222.31,89.32 231.2,93.95 L223.37,121.43 C217.99,117.49 213.25,115.04 209.15,114.08 C202.98,112.54 197.54,113.51 193.49,119.19 C190.08,125.54 191.33,133.38 199.88,140.92 C206.93,149.6 211.46,151.85 218.42,160.58 C227.06,171.94 227.71,186.59 223.85,196.69 C216.52,215.17 204.67,220.62 191.41,224.17 C165.28,227.94 155.88,224.77 146.84,221.45 Z M75.73,176.4 L104.02,171.92 L104.18,102.58 Z M0,253.09 L121.11,7.35 L140.45,231.2 L104.65,236.79 L104.5,201.8 L56.88,209.63 L46.66,246.06 Z" fill="none" stroke="currentColor" stroke-width="1.5"/></svg>