<svg xmlns="http://www.w3.org/2000/svg" viewBox="0 0 301.45 274.49" width="24" height="24"><path d="M1.21,10.92 C0,8.45 0,5.92 2.1,3.3 C5.29,0 8.6,0.57 11.94,2.05 C40.81,19.98 97.78,37.45 154.86,35.77 C205.96,35.77 250.59,23.47 289.56,2.01 C293.17,0.11 296.45,0.18 299.21,3.39 C301.01,5.91 301.45,8.63 299,11.79 C256.65,43.73 204.18,60.95 152.6,61.64 C81.64,61.1 32.62,35.01 1.21,10.92 Z M153.96,120.79 C151.79,122.85 148.38,122.51 146.57,120.57 C139.75,113.45 133.07,104.4 127.18,92.83 C126.09,90.27 126.46,84.85 130.8,84.58 C144.09,85.51 156.87,85.26 169.89,84.75 C174.43,85.36 175.29,89.38 174.18,91.47 C168.18,104.78 161.14,114.13 153.96,120.79 Z M178.7,274.47 C176.09,274.47 173.57,273.12 173.28,268.28 C171.42,250.37 163.83,237.14 154.28,223.88 C142.22,207.02 129.43,194.42 115.68,180.62 C96.47,160.58 69.28,133.7 58.5,109.41 C53.52,98.46 48.82,86.91 47.89,72.03 C47.96,69.09 51.68,66.36 54.83,67.41 C65.31,71.43 78.95,76 90.72,78.68 C92.98,79.1 94.65,80.35 95.42,82.9 C99.93,94.8 107.19,105.73 115.95,116.13 C126.25,128.3 135.72,138.11 144.97,147.31 C148.38,151.25 150.93,152.68 155.39,148.11 C176.92,126.77 196.97,104.78 204.63,85.08 C205.32,81.4 207.02,78.93 211.33,78.39 C220.41,76.59 232.46,72.66 245.36,68.12 C251.23,66.48 253.18,69.44 253.2,72.83 C251.71,94.24 242.49,110.57 233.63,125.14 C222.29,141.98 204.24,161.78 183.79,182.65 C181.53,184.58 180.99,186.88 183.84,189.88 C203.4,214.88 216.66,240.51 218.02,267.61 C218.56,272.54 214.87,274.47 212.6,274.47 Z M87.53,274.47 C85.71,274.47 82.56,273.06 83.06,268.34 C84.77,243.42 93.99,223.51 105.87,205.37 C107.44,203.04 109.62,202.36 112.67,204.07 C121.26,212.23 128.9,221.34 136.44,230.55 C138.52,233.59 138.49,236.95 136.31,240.63 C132.03,248.21 129.06,257.54 127.52,269.19 C126.95,272.48 125.32,274.49 122.04,274.47 Z" fill="none" stroke="currentColor" stroke-width="1.5"/></svg>