<svg xmlns="http://www.w3.org/2000/svg" viewBox="0 0 317.49 291.83" width="24" height="24"><path d="M2.52,31.19 L80.52,5.19 L159.21,31.87 L239.27,4.5 L312.61,32.89 L312.12,132.84 L234.14,157.77 L234.48,260.07 L158.53,283.33 L80.18,255.96 L80.52,154.35 L3.2,130.4 Z" fill="none" stroke="currentColor" stroke-width="1.5"/><path d="M25.66,31.65 L83.48,50.04 L139.07,31.73 L82.97,14.45 Z M76.34,148.48 L76.34,61.15 L14.41,41.14 L14.41,128.13 Z M90.71,148.82 L151.82,128.21 L151.82,41.4 L90.71,61.5 Z M228.22,148.31 L228.22,61.15 L167.17,41.57 L167.17,128.13 Z M235.9,49.83 L292.52,31.7 L236.41,14.51 L180.22,31.68 Z M243.08,149.08 L304.49,128.55 L304.49,41.65 L243.08,61.24 Z M160.03,176.02 L215.2,157.72 L159.34,140.61 L103.66,157.8 Z M167.17,274.9 L228.22,254.63 L228.22,167.38 L167.17,187.48 Z M90.71,254.63 L151.82,274.9 L151.82,187.4 L90.71,167.64 Z M76.34,264.12 L76.34,162.85 L0,137.88 L0,24.63 L83.14,0 L159.43,23.26 L236.75,0 L317.49,24.98 L317.49,138.22 L243.08,163.19 L243.08,264.46 L160.11,291.83 Z" fill="none" stroke="currentColor" stroke-width="1.5"/></svg>