<svg xmlns="http://www.w3.org/2000/svg" viewBox="0 0 355.0 385.24" width="24" height="24"><path d="M108.63,381.26 C82.3,383.05 70.97,382.06 59.1,375.51 C46.28,368.87 32.64,358.12 26.5,331.25 C18.2,295.99 32.95,272.74 60.38,250.4 C88.28,227.39 105.45,212.29 118.69,192.08 C129.37,172.79 148.98,156.93 173.82,156.93 C201.26,156.93 214.02,171.52 225.8,185.65 C245.5,215.13 269.97,238.65 293.63,259.52 C317.34,274.53 330.98,297.93 326.41,326.62 C320.64,364.68 302.82,383.02 263.93,385.09 C248.56,385.03 233.31,385.24 215.04,378.54 C193.01,373.08 172.9,371.84 151.77,374.71 C144.31,375.28 139.68,379.22 108.63,381.26 Z M43.14,204.79 C21.69,206.2 0,180.86 0.13,149.23 C0.16,130.81 11.78,88.16 43.67,89.08 C68.85,90.08 92.1,115.86 90.09,150.91 C88.05,192.43 69.28,203.79 43.14,204.79 Z M130.43,120.39 C109.52,119.76 87.63,97.22 89.46,54.67 C91.76,25.87 106.98,1.95 129.08,0.99 C151.15,0 173.95,20.8 173.18,62.34 C172.36,100.66 149.61,121.12 130.43,120.39 Z M230.06,123.86 C200.43,118.95 190.43,93.85 196.51,58.51 C201.08,37.5 223.8,9.43 246.2,10.09 C263.33,10.67 294.52,42.27 283.75,77.36 C273.01,114.01 250.94,127.64 230.06,123.86 Z M305,229.63 C278.66,227.02 265.31,213.58 264.09,185.85 C263.84,168.15 263.33,152.52 270.41,138.49 C279.86,121.81 288.68,116.89 307.71,116.99 C338.83,118.27 355,145.37 353.57,174.35 C352.34,209.61 340.5,232.58 305,229.63 Z" fill="none" stroke="currentColor" stroke-width="1.5"/><path d="M115.18,328.69 C110.67,328.69 95.69,321.89 95.69,301.21 C95.69,285.01 108.92,275.17 116.46,275.17 L138.71,275.01 L138.71,328.69 Z M264.24,349.68 L264.24,257.75 L237.73,257.75 L237.73,326.86 L213.6,326.86 C207.44,326.86 202.39,324.71 201.86,316.71 L201.86,257.75 L176.8,257.75 L176.8,324.37 C176.8,339.78 196.39,349.68 203.75,349.68 Z M163.35,350.02 L163.35,219 L138.71,219 L138.71,254.56 L111.19,254.56 C94.65,254.56 69.96,272.78 69.96,300.41 C69.76,340.93 103.17,350.02 110.07,350.02 Z" fill="none" stroke="currentColor" stroke-width="1.5"/></svg>