<svg xmlns="http://www.w3.org/2000/svg" viewBox="0 0 351.31 313.69" width="24" height="24"><path d="M250.17,127.58 C249.09,116.96 242.36,106.73 232.57,96.72 C220.83,86.37 204.11,77.35 189.03,78.52 C170.64,80.38 158.86,88.55 157.88,103.41 C165.1,131.32 189.54,146.71 213.1,149.98 C227.57,151.7 244.29,147.29 250.17,127.58 Z M95.95,226.26 C83.38,236.65 51.22,230.85 36.67,220.18 C6.53,197.63 0,173.39 4.72,150.36 L139.41,101.95 L45.78,69.67 C40.07,67.62 34.75,45.63 40.35,38.52 L172.81,69.51 L157.31,26.69 C154.89,20.44 159.99,11.44 168.17,6.56 C189.69,17 233.22,24.32 232.72,37.88 L224.89,77.98 L313.89,100.51 C315.65,106 317.47,115.3 310.37,115.85 L260.84,118.89 L346.48,174.65 C347.88,185.69 349.5,200.82 339.45,215.87 C332,224.52 320.09,228.54 305.74,225.78 L236.08,152.92 L281.93,250.38 C282.22,268.82 280.01,291.57 249.66,305.03 C223.22,313.69 196.52,308.56 180.47,302.63 C161.89,293.48 157.07,277.86 152.67,262.05 C151.59,251.3 153.09,243.79 155.39,237.28 L178.56,147.8 Z" fill="none" stroke="currentColor" stroke-width="1.5"/><path d="M223.12,78.46 L259,47.62 C263.46,46.28 269.72,47.33 276.22,50.25 C287.72,56.04 297.99,67.52 306.11,77.43 C313.31,86.91 320.63,101.66 310.52,104.55 L248.65,109.76 C243.86,95.77 234.04,84.92 223.12,78.46 Z M157.35,97.33 L45.26,58.37 C36.63,47.44 37.3,35.56 40.03,26.28 C48.73,11.94 62.65,5.32 76.87,3.68 C91.1,2.56 102.32,4.45 112.97,6.9 L175.15,70.32 C160.73,75.97 157.41,86.01 157.35,97.33 Z M237.76,145.09 L281.53,242.95 C284.07,255.08 278.4,277.63 258.69,289.61 C238.15,301.17 212.93,300.02 191.26,295.12 C166.93,287.43 149.99,265.7 152.99,236.08 L180.4,136.38 C188.79,144.26 199.74,148.01 211.95,149.72 C221.3,150.68 230.11,149.86 237.76,145.09 Z" fill="none" stroke="currentColor" stroke-width="1.5"/><path d="M249.64,111.45 L317.66,140.6 C337.57,149.78 346.91,159.68 349.06,170.06 C351.31,183.18 346.23,202.64 330.62,211.72 C323.37,215.82 313.82,217.62 305.67,214.78 L238.15,144.87 C247,138.87 253.61,130.58 249.64,111.45 Z M177.61,69.37 L157.08,13.69 C162.57,5.05 171.15,0 184.17,0.1 C197.31,1.28 209.52,5.52 220.26,14.53 C228.31,22.42 231.07,29.1 231.5,33.71 L222.18,77.75 C206.72,69.21 194.78,65.38 177.61,69.37 Z M180.4,136.38 L93.29,217.64 C77.97,225.35 54.43,219.97 40.35,211.12 C32.1,206.22 1.84,181.3 4.03,145.62 C8.25,120.58 26.32,109.31 41.95,101.04 L156.8,98.69 C158.68,117.24 171.66,129.66 180.4,136.38 Z" fill="none" stroke="currentColor" stroke-width="1.5"/></svg>