<svg xmlns="http://www.w3.org/2000/svg" viewBox="0 0 223.09 320.61" width="24" height="24"><path d="M112.48,269.71 C145.79,269.71 171.88,240.51 171.88,208.87 C171.88,176.86 148.05,148.31 109.36,148.31 C75.76,148.31 50.53,177.78 50.53,206.59 C50.53,248.92 83.05,269.71 112.48,269.71 Z M0.04,23.5 C0.04,11.44 10.68,0 25.64,0 C44.5,0 51.09,14.95 51.09,26.02 L50.94,115.8 C65.93,105.17 83.98,97.37 113.68,97.37 C175.72,97.37 223.09,151.47 223.09,208.57 C223.09,263.45 180.22,320.61 107.25,320.61 C64.24,320.61 0,285.05 0,205.79 Z" fill="none" stroke="currentColor" stroke-width="1.5"/></svg>