<svg xmlns="http://www.w3.org/2000/svg" viewBox="0 0 377.09 179.45" width="24" height="24"><path d="M19.85,159.62 L127.49,159.62 L127.49,19.95 L19.85,19.95 Z M306.34,26.17 L306.34,19.04 L357.91,19.04 L357.91,26.17 Z M306.34,45.45 L306.34,38.32 L357.91,38.32 L357.91,45.45 Z M306.34,64.44 L306.34,57.78 L357.91,57.78 L357.91,64.44 Z M306.34,84 L306.34,76.68 L357.91,76.68 L357.91,84 Z M294.1,95.9 L369.84,95.9 L369.84,7.22 L294.1,7.22 Z M286.89,102.87 L286.89,0 L377.09,0 L377.09,102.87 Z M184.94,38.97 L184.94,25.76 L249.11,25.76 L249.11,38.97 Z M184.94,64.51 L184.94,51.21 L249.11,51.21 L249.11,64.51 Z M184.94,90.06 L184.94,76.8 L249.11,76.8 L249.11,90.06 Z M184.94,115.29 L184.94,102.03 L249.11,102.03 L249.11,115.29 Z M172.92,127.71 L261.66,127.71 L261.66,13.4 L172.92,13.4 Z M159.5,141.04 L159.5,0 L274.97,0 L274.97,141.04 Z M32.03,51.65 L32.03,32.1 L115.14,32.1 L115.14,51.65 Z M32.03,83.63 L32.03,64.05 L115.14,64.05 L115.14,83.63 Z M32.03,115.2 L32.03,96.09 L115.14,96.09 L115.14,115.2 Z M32.03,147.42 L32.03,127.91 L115.14,127.91 L115.14,147.42 Z M0,179.29 L0,0 L147.09,0 L147.09,179.45 Z" fill="none" stroke="currentColor" stroke-width="1.5"/></svg>