<svg xmlns="http://www.w3.org/2000/svg" viewBox="0 0 305.52 343.86" width="24" height="24"><path d="M141.63,243.84 C178.97,243.84 205.79,215.7 205.79,180.75 C205.79,145.78 174.08,117.59 142.68,117.59 C109.55,117.59 79.26,147.86 79.26,180.23 C79.26,216.22 109.04,243.84 141.63,243.84 Z M212.93,276.02 L212.93,256.68 C198.38,271 181.5,284.96 139.67,284.96 C91.61,284.96 38.69,244.15 38.69,181.11 C38.69,118.65 89.88,76.61 140.31,76.61 C178.62,76.61 201.44,92.75 212.93,105.37 L212.93,0 L250.64,0 L250.64,276.02 Z" fill="none" stroke="currentColor" stroke-width="1.5"/><path d="M305.52,309.41 C279.52,312.15 250.6,315.47 219.4,322.99 C196.19,329.03 159.13,337.49 135.57,339.52 C116.12,341.31 93.11,343.86 48.46,333.69 C35.14,330.77 11.38,320.18 0,311.47 C29.39,319.52 68.77,326.26 95.57,326.51 C137.65,326.11 170.37,316.72 200.33,311.65 C254.73,301.62 282.19,305.06 305.52,309.41 Z" fill="none" stroke="currentColor" stroke-width="1.5"/></svg>