<svg xmlns="http://www.w3.org/2000/svg" viewBox="0 0 248.35 340.84" width="24" height="24"><path d="M0,191.06 L0,39.55 C0,17.89 19.19,0 36.92,0 L210.28,0 C230.94,0 248.35,20.19 248.35,36.75 L248.35,190.51 C248.35,210.71 227.54,228 211.04,228 L35.19,228 C22.72,228 0,212.42 0,191.06 Z" fill="none" stroke="currentColor" stroke-width="1.5"/><path d="M46.03,183.74 C42.5,183.74 38.53,180.04 38.53,175.75 L38.53,137.35 C38.53,133.26 42.95,129.9 47.35,129.9 L84.87,129.9 L101.48,102.04 L90.81,102.04 C88.96,102.04 84.87,99.83 84.87,95.86 L84.87,51.42 C84.87,47.34 87.66,43.79 91.49,43.79 L159.68,44.67 C163.63,44.67 166.9,49.84 166.9,52.59 L166.85,94.1 C166.89,97.28 163.53,102.04 160.78,102.04 L150.18,102.04 L166.95,129.9 L202.92,129.9 C208.98,129.9 211.91,134.19 211.91,139.11 L211.91,174.2 C211.91,179.51 208.89,183.74 204.36,183.74 L136.39,183.74 C132.72,183.74 129.22,180.54 129.22,175.52 L129.22,138.01 C129.86,134.26 131.5,131.31 135.07,129.9 L149.08,129.9 L133.52,102.04 L117.97,102.04 L101.97,129.9 L114.66,129.9 C118.51,129.9 121.22,133.54 121.22,137.9 L121.22,175.97 C121.22,179.67 118.23,183.74 113.99,183.74 Z" fill="none" stroke="currentColor" stroke-width="1.5"/><rect x="0" y="0" width="0" height="0" fill="none" stroke="currentColor"/><path d="M168.18,331.18 L179.02,331.18 L179.02,340.18 L168.18,340.18 Z M114.27,297.14 L125.99,297.14 L131.43,322.05 L138.49,297.14 L146.43,297.14 L153.79,323.15 L158.78,297.14 L170.34,297.14 L159.93,340.18 L149.33,340.18 L142.1,314.35 L135.31,340.18 L124.95,340.18 Z M99.49,321.88 C96.79,321.14 93.62,320.9 90.66,321.38 C87.59,321.87 86.25,323.92 85.97,326.9 C85.98,329.4 88.46,330.42 91.6,330.38 C93.98,330.17 97.72,329.39 99.54,326.9 Z M76.76,311.01 C77.57,306.1 79.51,301.16 86.74,298.43 C91.34,296.83 99.23,297.05 102.96,298.21 C108.74,300.65 110.96,305.76 110.96,310.07 L110.46,332.25 C110.99,335.65 111.81,338.11 112.78,340.19 L101.74,340.19 C100.6,339.29 99.58,336.96 99.26,334.6 C97,337.8 95.05,339.7 92.87,340.25 C86.13,340.84 84.97,340.29 81.45,338.65 C76.82,335.77 75.7,334.12 74.34,327.82 C73.28,321.96 78.7,316.76 85.25,315.43 C88.9,314.99 95.81,314.94 99.49,315.87 L99.54,309.52 C99.5,307.44 96.6,305.98 93.8,306.05 C89.13,306.36 87.75,308.32 86.85,310.52 Z M52.8,297.26 L63.03,297.26 L63.03,302.11 C64.01,300.52 66.72,298.27 68.47,297.47 C69.81,296.94 72.51,296.83 75.3,297.46 L75.3,307.4 C72.81,306.24 70.42,306.36 68.07,306.88 C66.01,307.61 64.16,308.76 63.55,311.56 L63.55,340 L52.8,340 Z M36.44,310.91 C35.11,308.7 33.66,306.55 29.48,306.38 C25.11,307.74 24.29,309.2 22.47,312.65 C21.46,315.5 21.56,319.86 22.21,324.99 C23.31,329.11 25.75,330.13 29.14,330.58 C32.96,331.02 34.9,329.11 36.44,326.65 Z M37.93,340.06 L37.64,334.21 C34.28,337.87 31.18,340.04 25.73,340.23 C19.28,340.16 15.24,336.2 12.05,332.08 C9.85,326.49 9.42,320.27 10.13,313.65 C11.56,306.04 15.46,300.36 22.72,297.32 C26.43,296.07 33.14,297.99 36.33,301.91 L36.33,278.35 L48.34,278.35 L48.34,340.06 Z" fill="none" stroke="currentColor" stroke-width="1.5"/><path d="M223.4,331.14 C229.36,331.14 232.02,325.15 232.02,319.01 C232.02,311.15 228.92,305.96 223.4,305.96 C218.4,305.96 214.77,309.41 214.77,319.01 C214.77,325.88 218.05,331.14 223.4,331.14 Z M223.43,340.15 C212.58,340.15 203.47,332.29 203.47,319.2 C203.47,302.68 213.27,296.99 223.48,296.99 C233.84,296.99 242.89,303.51 242.89,319.58 C242.89,331.35 234.27,340.15 223.43,340.15 Z M187.27,339.93 L187.27,297.21 L199.43,297.21 L199.43,339.93 Z M187.27,288.19 L187.27,278.78 L199.43,278.78 L199.43,288.19 Z" fill="none" stroke="currentColor" stroke-width="1.5"/></svg>