<svg xmlns="http://www.w3.org/2000/svg" viewBox="0 0 337.0 335.96" width="24" height="24"><path d="M168.33,335.96 C73.35,335.96 0,258.32 0,166.73 C0,77.51 73.14,0 168.5,0 C262.93,0 337,75.9 337,169.24 C337,253.63 268.07,335.96 168.33,335.96 Z" fill="none" stroke="currentColor" stroke-width="1.5"/><path d="M211.2,299.71 C208.84,270.19 203.98,238.32 191.43,199.22 C151.49,214.68 119.64,235.94 88.27,280.98 C119.56,304.25 166.37,315.39 211.2,299.71 Z M239.63,287.15 C269.17,268.93 293.75,243.02 304.7,196.02 C282.38,190.19 257.73,186.07 219.33,192.15 C229.66,219.05 234.57,253.21 239.63,287.15 Z M210.38,164.93 C236.1,159.1 265.54,156.85 307.41,166.58 C307.08,144.19 302.99,120.15 283.54,89.4 C262.7,107.18 240.27,124.97 201.06,142.75 Z M188.2,116.43 C222.19,101.08 245.23,83.54 264.52,67.93 C228.24,34.23 183.7,21.08 133.05,33.53 C156.93,61.56 172.54,88.99 188.2,116.43 Z M160.75,126.51 C146.63,100.92 128.68,73.98 104.32,44.78 C64.3,67.29 38.51,100.35 31.01,146.96 C92.99,147.56 130.49,138.47 160.75,126.51 Z M173.95,153.99 C130.95,170.01 83.13,177.73 29.28,175.08 C31.6,212.5 46.08,239.37 66.43,261.17 C90.74,224.41 126.08,193.16 181.66,172.03 Z" fill="none" stroke="currentColor" stroke-width="1.5"/></svg>