<svg xmlns="http://www.w3.org/2000/svg" viewBox="0 0 438.32 305.82" width="24" height="24"><path d="M31.88,207.01 L187.78,33.31 L192.81,37.47 L36.45,211.22 Z M140.05,173.64 L40.06,218.55 L37.32,213.12 L137.29,167.93 Z M159.22,143.24 L194.25,38.55 L199.64,40.42 L165.29,145.16 Z M374.52,70.46 L220.97,29.2 L222.61,22.97 L376.44,64.71 Z M374.72,190.14 L397.38,108.04 L403.46,109.3 L380.43,191.77 Z M243.35,254.66 L352.63,214.22 L354.95,219.94 L245.35,260.45 Z M210.27,241.74 L206.49,148.81 L175.53,159.62 L173.32,153.77 L206.34,142.33 L201.56,40.18 L207.11,39.86 L212.47,140.14 L283.32,115.88 L213.94,37.95 L218.14,33.99 L290.23,113.36 L373.6,85.09 L375.42,90.93 L294.88,118.62 L326.71,154.91 L382.11,99.1 L386.74,103.15 L331.26,159.86 L361.66,193.93 L357.58,198.6 L326.59,164.57 L240.74,251.2 L235.93,247.16 L322.31,159.54 L287.96,120.95 L212.77,146.99 L217.3,241.74 Z M196.85,250.69 L162.28,182.74 L167.67,179.11 L201.96,247.5 Z M184.34,267.36 L39.27,231.52 L41.13,225.8 L185.81,261.35 Z" fill="none" stroke="currentColor" stroke-width="1.5"/><path d="M20.51,244.98 C13.04,244.98 0,238.51 0,223.48 C0,213.8 8.48,203.06 20.45,203.06 C31.1,203.06 41.88,212.31 41.88,223.15 C41.88,235.86 31.42,244.98 20.51,244.98 Z" fill="none" stroke="currentColor" stroke-width="1.5"/><path d="M216.66,305.82 C201.42,305.82 181.83,293.44 181.83,271.7 C181.83,247.79 204.52,237.75 216.66,237.75 C232.25,237.75 249.73,252.82 249.73,271.7 C249.73,289.46 234.86,305.82 216.66,305.82 Z" fill="none" stroke="currentColor" stroke-width="1.5"/><path d="M155.57,184.38 C144.48,184.38 134.59,172.76 134.59,163.11 C134.59,152 145.31,142.04 155.79,142.04 C168.13,142.04 177.11,152.76 177.11,163.11 C177.11,173.55 167.35,184.38 155.57,184.38 Z" fill="none" stroke="currentColor" stroke-width="1.5"/><path d="M201.16,42.1 C193.28,42.1 181.91,33.19 181.91,21.09 C181.91,11.65 191.25,0 203.24,0 C213.22,0 223.85,6.55 223.85,21.81 C223.85,30.03 218.34,42.1 201.16,42.1 Z" fill="none" stroke="currentColor" stroke-width="1.5"/><path d="M404.93,110.05 C389.61,110.05 370.87,97.94 370.87,75.99 C370.87,57.98 386.52,42.08 404.93,42.08 C421.84,42.08 438.32,54.92 438.32,75.99 C438.32,96.56 422.16,110.05 404.93,110.05 Z" fill="none" stroke="currentColor" stroke-width="1.5"/><path d="M371.56,231.2 C359.5,231.2 350.79,220.26 350.79,210.19 C350.79,201.03 359.21,189.18 371.56,189.18 C384.68,189.18 392.98,200.29 392.98,210.19 C392.98,221.57 383.12,231.2 371.56,231.2 Z" fill="none" stroke="currentColor" stroke-width="1.5"/></svg>