<svg xmlns="http://www.w3.org/2000/svg" viewBox="0 0 346.38 368.76" width="24" height="24"><path d="M173.32,368.76 L113.28,307.29 C95.64,305.69 75.95,303.74 56.1,295.18 C37.6,287.5 19.75,274.35 12,226.72 C7.06,199.34 0,105.29 21.46,53.39 C27.21,37.82 41.43,24.41 61.36,18.26 C121.73,0 235.87,2.41 283.66,17.28 C308.27,25.46 322.92,39.04 331.18,70.17 C346.38,130.02 342.98,225.71 323.93,262.06 C311.64,284.48 304.79,291.65 279.6,299.09 C266.19,303.46 251.57,307.1 231.59,307.59 Z" fill="none" stroke="currentColor" stroke-width="1.5"/><path d="M25.01,123.6 C26.92,98.13 31.07,77.28 37.61,60.21 C40.82,52.13 47.69,41.86 63.92,35.97 C112.92,16.24 254.1,19.57 287.34,37.57 C299.61,44.28 301.22,46.87 305.87,53.87 C315.89,70.83 319.87,97.77 321.71,123.78 L264.22,124.01 C257.43,102.36 238.41,87.85 217.42,87.85 C199.54,87.85 185.08,95.18 172.26,114.54 C163.38,100.75 151.47,88.15 126.33,88.15 C106.99,88.15 88.6,101.2 80.76,124.35 Z M213.84,162.2 C221.46,162.2 226.78,154.23 226.78,147.5 C226.78,142.6 222.71,134.56 214.8,134.56 C206.97,134.56 202.33,140.52 202.33,147.82 C202.33,156.04 208.43,162.2 213.84,162.2 Z M214.96,173.7 C198.01,173.7 179.96,159.02 179.96,135.83 C179.96,115.36 197.95,100.68 217.19,100.68 C237.61,100.68 252.82,117.46 252.82,137.27 C252.82,155.05 241.55,173.7 214.96,173.7 Z M130.46,161.68 C137.37,161.68 142.42,156.45 142.42,148.94 C142.42,139.65 137.54,134.95 131.22,134.95 C124.86,134.95 118.47,141.08 118.47,147.58 C118.47,156.04 124.84,161.68 130.46,161.68 Z M127.23,172.88 C109.06,172.69 92,158.85 92,135.52 C92,116.64 109.09,100.81 129.15,100.81 C150.33,100.81 164.79,117.86 164.79,138.52 C164.79,156.51 150.07,173.67 127.23,172.88 Z M218.95,225.39 C221.53,222.18 221.72,218.72 219.11,214.76 C216.93,212.06 211.99,210.74 208.25,214.13 C197.13,224.65 190.79,228.8 172.46,228.82 C157.95,228.41 151.69,227.81 137.78,214.13 C135.58,211.93 131.26,211.39 128.2,213.17 C124.97,215.1 123.95,219.25 124.92,221 C132.48,232.66 151.09,243.2 171.02,243.2 C194.61,243.01 210.59,233.98 218.95,225.39 Z M121.17,290.41 C100.24,288.69 82.73,287.46 60.29,278.04 C48.45,272.53 40.31,265.58 32.81,240.97 C26.37,216.09 22.94,179.26 24.5,141.91 L79.46,142.86 C83.46,163.14 99.92,186.64 129.16,186.64 C151.63,186.64 163.64,172.71 172.46,159.64 C182.26,174.17 193.94,186.16 218.47,186.16 C239.21,186.16 261.91,170.97 265.77,142.7 L322.33,142.07 C323.17,183.64 322.48,229.41 306.48,258.53 C301.08,269.79 295.77,274.32 282.12,279.42 C264.23,286.78 253.11,288.95 224,290.59 L173.13,343.49 Z" fill="none" stroke="currentColor" stroke-width="1.5"/></svg>