<svg xmlns="http://www.w3.org/2000/svg" viewBox="0 0 380.67 426.27" width="24" height="24"><path d="M127.57,0 C188.41,48.1 245.76,80.9 307.48,126.22 C360.78,167.33 380.67,219.72 379.7,265.55 C375.19,342.24 317.58,426.27 195.9,426.27 C108.68,426.27 0.77,371.44 0,235.29 C0,192.82 18.88,138.87 45.45,94.27 C69.86,53.96 98.4,26.03 127.57,0 Z" fill="none" stroke="currentColor" stroke-width="1.5"/><path d="M126.78,37.87 C132.55,76.99 158.23,92.06 176.79,105.29 C156.99,120.52 136.46,133.81 119.9,157.54 C111.94,170.1 111.86,178.31 116.23,184.06 C122.97,192.25 131.86,192.28 142.43,185.98 C152,179.9 161.15,172.29 169.44,161.54 C179.02,171.14 191.03,180.11 203.91,186.71 C181.87,213.09 161.31,241.05 161.45,291.28 C165.82,351.79 199.2,381.8 218.17,398.49 C171.68,403.62 125.91,390.75 92.26,363.5 C67.36,341.08 41.8,307.52 31.55,247.66 C27.53,225.13 36.57,165.03 59.99,126.7 C82.51,86.55 104.68,60.73 126.78,37.87 Z" fill="none" stroke="currentColor" stroke-width="1.5"/><path d="M129.81,14.38 C194.56,52.54 239.07,89.22 279.36,125.59 C302.64,147.42 302.68,166.41 296.62,178.63 C288.22,192.67 261.75,193.4 237.5,192.37 C203.23,191.44 184.5,178.38 158.57,149.87 C146.22,135.16 139.09,112.24 134.12,87.88 C130.84,63.21 128.45,38.62 129.81,14.38 Z" fill="none" stroke="currentColor" stroke-width="1.5"/></svg>