<svg xmlns="http://www.w3.org/2000/svg" viewBox="0 0 327.46 330.76" width="24" height="24"><path d="M166.72,66.95 C149.93,66.95 133.65,52.57 133.65,33.55 C133.65,16.52 149.47,0 166.72,0 C185.66,0 200.44,15.89 200.44,33.55 C200.44,53.84 181.67,66.95 166.72,66.95 Z" fill="none" stroke="currentColor" stroke-width="1.5"/><rect x="0" y="0" width="0" height="0" fill="none" stroke="currentColor"/><path d="M238.54,275.3 C248.86,265.71 257.6,262.5 270.82,241.11 C275.79,232.05 280.9,223.27 282.56,207.79 C282.89,195.83 282.27,183.97 297.26,170.56 C308.13,162.36 319.04,159.03 326.26,158.74 L327.46,168.49 C321.38,169.63 315.31,170.64 309.64,174.08 C298.09,180.85 292.28,190.77 292.63,203.88 C291.21,228.31 282.49,244.12 271.78,257.56 L244.54,284.01 Z M74.24,51.81 L96.11,58.35 C111.69,64.19 119.86,72.25 123.53,81.13 L134.21,103.2 L225.22,103.2 C237.23,103.69 253.24,109.62 260.71,114.44 C276.16,124.52 285.61,135.28 291.74,144.91 L283.3,150.76 C269.15,131.48 249.59,113.74 221.7,113.74 L127.18,113.74 L118.47,92.35 C109.86,72.25 90.75,66.55 72.96,62.71 Z M76.61,284.96 C69.55,277.57 50.98,257.65 45.13,244.94 C42.86,240.62 41.18,235.64 40.82,229.2 C40.6,224.29 40.43,221.15 35.7,221.77 C29.38,222.37 23.34,222.98 14.13,223.37 C7.04,223.22 2.14,219.33 0.79,209.39 C0.1,196.27 0,184.86 0.79,176 C2.24,164.12 12.33,157.14 18.61,157.14 L36.66,157.22 C50.17,125.11 63.95,108.53 77.89,100.66 L82.84,110.41 C67.19,117.79 56.27,135.82 46.57,161.06 C45.15,164.88 42.16,166.71 37.54,166.49 L21.01,166.65 C14.1,166.65 10.85,173.16 10.62,181.03 L10.44,204.27 C10.13,211.55 11.97,213.69 17.82,212.96 L36.72,211.59 C44.24,211.29 49.61,216.67 50.1,221.51 L51.04,228.8 C51.27,235.46 53.64,239.47 55.46,242.3 C62.73,255.59 73.73,266.19 83.48,277.69 Z M86.16,330.76 L76.46,327.79 C88.18,298.3 117.36,268.77 163.1,268.77 C219.16,268.77 240.45,307.36 246.21,328.26 L236.07,330.66 C228.39,301.07 202.47,277.96 163.49,278.8 C122.91,278.8 98.38,301.83 86.16,330.76 Z" fill="none" stroke="currentColor" stroke-width="1.5"/></svg>