<svg xmlns="http://www.w3.org/2000/svg" viewBox="0 0 374.9 375.43" width="24" height="24"><path d="M187.92,375.43 C77.34,375.43 0,285.2 0,189.16 C0,74.32 92.35,0 189.31,0 C282.71,0 374.9,76.75 374.9,187.64 C374.9,287.01 295.98,375.43 187.92,375.43 Z" fill="none" stroke="currentColor" stroke-width="1.5"/><path d="M147.35,334.33 C147.35,342.45 141.22,345.79 132.02,342.66 C76.54,323.18 23.2,263.06 23.2,187.96 C23.2,86.4 109.95,22.36 185.13,22.36 C282.73,22.36 352.14,102.45 352.14,186.98 C352.14,256.75 307.32,320.95 240.15,343.49 C232.56,345.51 227.85,341.46 227.85,334.76 L227.85,285.89 C227.85,276.44 223.98,266.37 216.9,259.34 C244.17,256.22 260.71,249.4 273.39,236.32 C285.84,223.95 291.43,205.79 292.46,183.36 C293.14,165.55 288.4,148.17 275.51,134.92 C280,123.98 280.76,109.48 273.96,91.56 C260.46,90.51 245.06,98.63 229.33,108.37 C201.65,101.15 173.97,100.21 146.29,108.79 C133.91,100.72 122.68,91.65 101.24,91.56 C95.57,107.38 94.67,121.83 99.54,134.64 C84.21,151.67 82.46,168.39 82.74,185.05 C84.43,217.22 96.17,233.48 109.22,243.17 C120.06,251.23 135.26,256.27 158.43,259.69 C152.2,265.85 148.71,273.19 148.12,281.79 C134.51,288.01 115.03,291.15 101.69,272.23 C95.74,262.72 87.62,251.98 72.2,252.04 C69.66,251.94 67.17,252.92 66.8,254.02 C66.46,255.23 67.87,257.75 69.58,258.73 C83.1,267.33 85.28,272.16 90.79,283.91 C95.91,297.66 104.78,302.96 114.37,306.65 C124.19,310.12 140.04,309.16 147.35,306.65 Z" fill="none" stroke="currentColor" stroke-width="1.5"/></svg>