<svg xmlns="http://www.w3.org/2000/svg" viewBox="0 0 325.95 347.0" width="24" height="24"><path d="M169.1,208.1 L169.1,145.48 L320.87,145.48 C324.51,161.9 325.95,185.97 321.35,213.38 C314.6,249.38 297.61,281.68 269.42,303.81 L217.02,263.23 C243.68,249.11 253.95,226.98 257.28,208.1 Z" fill="none" stroke="currentColor" stroke-width="1.5"/><path d="M224.85,258.51 L276.06,298.22 C245.37,328.46 185.97,347 131.34,332.95 C81.14,321.36 38.72,283.4 20.45,239.54 L75.29,200.67 C85.96,237.12 112.84,264.22 148.63,271.86 C178.12,278.26 204.57,271.99 224.85,258.51 Z" fill="none" stroke="currentColor" stroke-width="1.5"/><path d="M24.4,248.13 C1.15,202.75 0,143.89 29.28,93.9 L80.96,135.2 C71.51,156.01 68.92,182.96 77.38,207.18 Z" fill="none" stroke="currentColor" stroke-width="1.5"/><path d="M24.47,102.7 C45.62,63.96 76.61,36.3 119.16,21.66 C189.13,0 248.33,27.36 276.93,55.92 L231.8,101.29 C214.57,84.11 180.62,69.05 141.28,81 C112.85,89.86 88.21,111.55 77.49,143.99 Z" fill="none" stroke="currentColor" stroke-width="1.5"/></svg>