<svg xmlns="http://www.w3.org/2000/svg" viewBox="0 0 324.39 377.53" width="24" height="24"><path d="M163.54,377.53 L163.03,323.91 C74.36,323.91 0,253.37 0,157.39 C0,78.49 67.54,0 164.18,0 C263.06,5.76 324.39,77.14 324.39,168.13 C324.39,211.64 301.54,264.1 270.57,299.24 C243.45,328.58 209.45,355.31 163.54,377.53 Z" fill="none" stroke="currentColor" stroke-width="1.5"/><path d="M205.71,235.07 C202.71,235.57 199.98,234.35 199.98,229.9 L199.98,214.09 C199.98,211.51 201.86,209.58 205.54,209.33 C216.4,207.31 223.94,197.6 223.94,186.66 L185.06,186.66 C179.01,186.66 176.62,182.57 176.62,177.58 L176.62,121.47 C176.62,116.77 179,113.58 183.29,113.58 L242.54,113.58 C246.7,113.58 249.34,117.82 249.34,121.47 L249.34,185.84 C249.34,213.48 229.98,231.49 205.71,235.07 Z M104.46,235.07 C101.46,235.57 98.73,234.35 98.73,229.9 L98.73,214.09 C98.73,211.51 100.61,209.58 104.29,209.33 C115.15,207.31 122.69,197.6 122.69,186.66 L83.81,186.66 C77.76,186.66 75.37,182.57 75.37,177.58 L75.37,121.47 C75.37,116.77 77.76,113.58 82.04,113.58 L141.3,113.58 C145.45,113.58 148.09,117.82 148.09,121.47 L148.09,185.84 C148.09,213.48 128.73,231.49 104.46,235.07 Z" fill="none" stroke="currentColor" stroke-width="1.5"/></svg>