<svg xmlns="http://www.w3.org/2000/svg" viewBox="0 0 262.2 369.9" width="24" height="24"><path d="M198.03,49.74 L198.03,0 L214.88,0 L214.88,33.22 L238.24,33.22 L238.24,49.74 Z M133.82,49.74 L133.82,0 L150.95,0 L161.74,17.54 L172.31,0 L189.7,0 L189.7,49.74 L173.12,49.74 L173.12,25.31 L161.58,43.05 L149.88,25.25 L149.88,49.74 Z M80.24,0 L126.09,0 L126.09,16.32 L111.46,16.32 L111.46,49.74 L94.99,49.74 L94.99,16.32 L80.24,16.32 Z M24.31,49.74 L24.25,0 L40.92,0 L40.92,16.67 L56.34,16.67 L56.34,0 L73.09,0 L73.09,49.74 L56.34,49.74 L56.34,33.08 L40.92,33.08 L40.92,49.74 Z" fill="none" stroke="currentColor" stroke-width="1.5"/><path d="M262.2,72.81 L237.95,339.82 L130.92,369.9 L23.68,339.98 L0,72.81 Z" fill="none" stroke="currentColor" stroke-width="1.5"/><path d="M130.93,347.21 L130.93,94.24 L237.82,94.24 L218.23,323.21 Z" fill="none" stroke="currentColor" stroke-width="1.5"/><path d="M130.93,226.94 L57.63,226.94 L48.51,127.04 L130.93,127.04 L130.93,160.39 L84.79,160.39 L87.86,193.58 L130.93,193.58 Z M130.93,313.45 L63.41,294.54 L58.7,242.66 L92.05,242.72 L94.67,269.02 L130.93,278.81 Z" fill="none" stroke="currentColor" stroke-width="1.5"/><path d="M130.93,313.45 L130.93,278.81 L167.11,268.85 L170.74,226.94 L130.93,226.94 L130.93,193.58 L207.55,193.58 L198.69,294.66 Z M130.93,127.04 L213.34,127.04 L210.32,160.39 L130.93,160.39 Z" fill="none" stroke="currentColor" stroke-width="1.5"/></svg>