<svg xmlns="http://www.w3.org/2000/svg" viewBox="0 0 371.01 237.86" width="24" height="24"><path d="M80.76,115.47 C101.98,115.47 117.14,98.04 117.14,78.13 C117.14,58.38 101.84,40.79 80.76,40.79 C57.71,40.79 42.35,58.83 42.35,78.13 C42.35,103.47 63.46,115.47 80.76,115.47 Z M123.47,198.51 C114.67,182.04 94.5,154.83 59.52,148.12 C45.67,145.48 18.79,128.99 10.03,99.54 C0,60.73 17.28,25.59 56.24,9.27 C83.94,0 123.94,10.47 140.98,38.42 C154.59,62.04 159.15,92.84 137.82,122.02 C126.5,136.63 121.18,151.07 123.47,198.51 Z" fill="none" stroke="currentColor" stroke-width="1.5"/><path d="M270.78,158.56 C305.99,158.56 326.61,129.41 326.61,104.3 C326.61,69.3 299.73,48 272.89,48 C241.5,48 216.64,71.05 216.64,103.51 C216.64,137.7 247.06,158.56 270.78,158.56 Z M172.61,110.05 C172.61,37.02 226.19,3.45 272.36,3.45 C319.8,3.45 371.01,41 371.01,103.72 C371.01,161.73 321.92,202.57 275.14,202.57 C261.14,202.57 245.6,200.11 235.97,200.11 C220.75,200.11 186.13,200.29 143.85,237.86 C170.67,203.48 184.03,187.01 175.5,127.45 C174.72,122.03 172.61,113.71 172.61,110.05 Z" fill="none" stroke="currentColor" stroke-width="1.5"/></svg>