<svg xmlns="http://www.w3.org/2000/svg" viewBox="0 0 171.48 324.85" width="24" height="24"><path d="M92.83,132.71 C96.63,127.49 105.22,118.27 97.67,109.79 C91.89,103.22 89.94,99.69 88.07,94 C84.54,81.21 89.3,73.49 96.65,66.22 C114.44,53.29 127.42,49 138.15,46.21 C128.48,51.54 121.08,55.64 109.77,65.01 C99.83,73.47 95.73,82.51 102.97,91.43 L108.13,98.42 C112.76,104.64 113.69,112.63 108.27,119.2 C103.7,124.17 99.03,127.99 92.83,132.71 Z M89.73,125.85 C79.92,117.32 70.03,109.75 59.15,92.24 C53.96,83.8 58.87,71.79 65.73,65.32 C77.43,55.31 82.87,51.11 90.36,45.26 C96.39,40.35 105.27,31.89 108.13,21.43 C109.79,15.62 109.79,8.56 107.79,0 C111.38,6.03 117.46,12.65 113.39,26.58 C109.9,37.79 101.27,47.17 91.44,56.12 C84.4,61.47 78.06,67 73.9,73.1 C69.84,78.08 67.36,83.45 70.64,95.27 C73.65,104.7 81.82,114.89 89.73,125.85 Z M153.57,282.73 C149.12,282.24 143.44,282.19 138.41,284.45 C134.96,286.62 133.47,290.24 134.43,293.65 C135.77,298.48 139.19,300.48 144.84,299.19 C149.83,298.08 152.71,295.64 153.57,293.51 Z M126.45,259.06 C131.52,256.45 137.86,254.79 146.38,254.76 C158.25,254.73 163.48,262.28 163.48,267.86 L163.48,306.24 L155.98,306.07 L154.98,300.94 C151.06,303.75 147.23,305.79 143.52,306.66 C139.13,307.71 133.28,307.64 127.74,303.49 C124.08,300.06 122.63,292.34 125.7,285.69 C128.98,280.69 134.32,278.22 140.43,276.46 C144.11,275.79 148.5,275.52 153.69,275.71 C153.69,270.81 154.6,266.47 149.66,263.39 C143.39,260.68 136.47,262.55 128.55,265.43 Z M75.16,255.07 L86.37,255.07 L98.26,295.35 C103.08,284.9 106.37,270.57 109.5,255.48 L119.48,255.48 C115.95,274.4 110.48,291 103.93,306.26 L90.87,306.26 Z M59.14,282.89 C55.38,282.85 51.78,282.55 47.62,283.1 C42.43,283.91 39.99,287.08 39.79,290.42 C39.27,297.53 42.5,299.38 47.4,299.38 C51.42,299.4 55.34,297.77 59.14,294.13 Z M32.21,258.95 C38.9,256.12 47.39,254.34 58,255.27 C65.07,256.63 69.34,262.94 69.34,268.34 L69.34,306.26 L60.85,306.26 L60.66,300.51 C55.76,304.77 50.56,307.15 46.75,307.15 C39.02,307.15 34.96,305.69 32.86,303.25 C29.84,299.33 28.36,295.18 29.87,287.3 C31.24,282.96 37.9,278.42 41.48,277.22 C46.6,275.89 52.59,275.56 59.21,275.95 L59.26,270.98 C59.26,267.93 57.07,262.64 49.15,262.56 C41.87,262.56 39.18,263.12 33.58,265 Z M0,318.22 C6.71,314.26 10.63,311.18 10.63,301.65 L10.63,237.64 L21.43,237.64 L21.43,304.62 C21.43,316.7 10.16,322.04 4.69,324.85 Z" fill="none" stroke="currentColor" stroke-width="1.5"/><path d="M136.1,125.96 C138.36,123.82 140.91,121.77 147.61,120.9 C154.83,120.28 162.26,124 165.31,129.27 C171.48,141.16 164.02,148.39 156.73,154.73 C147.59,160.96 137.65,164.56 128.94,166.27 C136.66,162.15 146,156.61 152.65,150.65 C160.25,142.03 160.96,134.91 155.63,129.1 C148.26,123.07 143.74,122.89 136.1,125.96 Z M135.45,130.76 C131.17,133.25 126.8,135.72 120.13,137.91 C110.61,140.47 97.48,142.05 78.27,143.09 C61.03,143.51 43.61,143.48 24.03,137.76 C21.79,136.8 22.02,134.55 24.03,133.19 C28.58,130.61 33.3,128.07 40.81,126.12 C50.07,123.75 56.79,123.08 62.17,123.3 C55.84,125.01 49.48,126.04 40.89,130.15 C37.78,131.75 36.68,134.32 41.14,135.48 C57.7,139.41 63.22,137.79 78.44,137.58 C102.68,136.96 119.24,133.92 135.45,130.76 Z M125.05,160.37 C112.63,163.13 98.46,165.28 81.33,166.37 C67.48,166.78 49.41,164.77 42.12,159.8 C40.42,158.44 38.53,157.17 41.26,153.74 C45.73,149.94 49.21,149.05 52.35,149.34 C48.67,151.57 47.59,154.44 50.52,155.63 C59.33,158.69 69.81,158.32 80.98,158.25 C93.03,158.14 107.01,156.57 115.9,154.48 C118.11,156.34 121.25,158.31 125.05,160.37 Z M121.62,183.92 C111.8,187.57 99.87,190.49 81.27,191.12 C68.96,190.7 57.2,189.65 48.01,183.23 C45.02,180.89 45.95,178.8 47.32,177.4 C51.39,174 55.25,173.29 57.38,172.71 C53.77,175.24 54.13,177.54 56.41,178.43 C61.41,180.02 72.6,180.89 85.5,180.89 C96.19,180.25 102.78,178.82 108.82,177.29 C112.98,180.01 117.31,181.92 121.62,183.92 Z M7.2,205.18 C3.46,203.38 3.68,199.7 7.43,197.4 C13.1,193.74 18.37,191.69 21.95,190.77 C29.88,188.37 38.13,188.82 41.15,189.63 C32.82,190.76 24.82,192.48 20.8,195.35 C16.95,197.74 18.34,199.57 21.15,200.83 C40.19,207.85 66.99,206.94 84.36,206.78 C111.67,206.38 127.81,204.11 140.59,201.29 C146.24,199.92 150.86,198.55 153.17,196.95 C155.78,195.28 155.01,192.98 153.17,190.32 C156.02,190.73 157.86,192.04 157.97,194.89 C157.48,197.85 156.13,199.32 154.43,200.15 C145.95,203.97 135.08,207.41 120.82,209.41 C99.2,212.23 78.09,212.95 57.38,211.81 C38.51,210.67 20.08,209.31 7.2,205.18 Z M33.38,216.84 C46.07,218.35 60.32,219.44 75.67,219.58 C100.48,220.04 121.41,217.78 140.14,213.98 C151.87,211.65 160.92,209.51 167.68,201.75 C167.7,205.43 166.74,208.82 158.31,213.41 C149.59,217.3 135.26,220.65 108.02,222.78 C91.5,223.47 73.69,223.53 58.75,222.32 C41.02,220.13 40.21,218.75 33.38,216.84 Z" fill="none" stroke="currentColor" stroke-width="1.5"/></svg>