<svg xmlns="http://www.w3.org/2000/svg" viewBox="0 0 401.78 126.31" width="24" height="24"><path d="M269.72,105.71 L269.72,21.56 L291.64,21.56 L324.14,84.01 L324.14,21.56 L338.62,21.56 L338.62,105.71 L319.33,105.71 L283.38,39.3 L283.38,105.71 Z M199.51,88.6 C208.78,95.22 219.75,94.78 226.48,90.13 C233.36,84.87 236.34,76.95 236.29,64.38 C236.45,54.67 236.12,45.06 227.86,36.96 C220.44,31.12 208.71,31.46 200.89,37.57 C193.7,43.77 192.31,52 192.31,62.7 C192.07,78.64 195.82,85.53 199.51,88.6 Z M173.61,63.77 C173.78,48.35 179.18,33.54 193.23,24.39 C208.82,16.37 231.24,19.88 239.5,25.92 C249.58,33.06 254.37,42.14 254.37,63.92 C254.37,80.67 247.65,93 239.05,100.55 C229.39,107.55 202.82,112.24 186.64,99.32 C179.08,92.83 173.61,81.14 173.61,63.77 Z M110.33,85.84 C121.32,92.63 126.68,94.42 136.23,94.42 C142.12,93.19 146.67,89.87 147.41,85.53 C148,80.68 145.97,74.76 136.38,70.51 C129.07,67.05 122.31,65.94 116.46,58.71 C113.5,54.6 110.95,48.03 112.01,36.96 C113.88,29.25 121.72,21.16 137.14,19.18 C149.13,19.18 154.89,22.85 159.59,27.3 L159.59,39.56 C154.15,36.05 149.79,32.65 140.06,32.2 C132.32,32.13 128.28,36.31 127.64,41.09 C129.67,49.36 133.24,51.26 137.14,53.2 C145.37,58.01 150.92,57.61 156.76,63.31 C164.54,71.34 167.52,81.03 161.36,94.26 C156.41,102.88 146.53,107.87 133.31,107.9 C127.62,107.9 117.14,105.11 110.33,99.47 Z M60.53,89.51 C68.05,94.51 78.13,93.89 78.3,86.76 L78.3,21.4 L94.09,21.4 L94.09,89.21 C92.82,98.08 89.58,102.96 83.82,105.3 C76.26,107.16 68.64,107.91 60.68,103.31 Z" fill="none" stroke="currentColor" stroke-width="1.5"/><path d="M362.55,113.88 C370.12,115.45 374.25,113.13 374.04,103.46 L374.04,84.15 C374.04,70.39 383.45,62.12 390.13,61.17 C384.05,59.68 374.23,57.81 374.35,45.08 L374.5,21.17 C374.5,16.87 371.68,12.44 367.46,12.44 L362.55,12.44 L362.55,0.95 C370.88,0 374.5,0.95 378.95,1.56 C386.17,2.99 388.47,13.37 388.6,19.33 L389.06,44.31 C389.06,52.62 393.94,54.66 401.78,55.73 L401.78,66.53 C393.8,66.99 388.91,73.83 388.91,85.84 L388.91,109.13 C388.91,116.84 383.08,124.04 376.04,125.83 C372.09,126.31 367.71,126.31 362.55,124.76 Z M37.85,125.98 L27.99,125.98 C21.76,125.98 11.65,118.28 11.65,106.06 L11.65,82.93 C10.6,76.33 10.14,69.39 0,67.14 L0,55.96 C8.8,55.29 11.83,48.9 11.65,38.79 L11.65,17.34 C11.65,9.16 18.01,0.87 27.43,0.87 L37.85,0.87 L37.85,11.21 C32.34,11.21 27.12,13.46 27.12,19.79 L27.12,46.15 C27.12,53.46 19.04,60.1 12.41,61.78 C22.51,64.7 27.12,71.37 27.12,77.41 L27.12,104.38 C27.18,112.44 30.92,114.76 37.85,114.19 Z" fill="none" stroke="currentColor" stroke-width="1.5"/></svg>