<svg xmlns="http://www.w3.org/2000/svg" viewBox="0 0 415.09 249.08" width="24" height="24"><path d="M221.31,197.81 C200.6,227.05 165.57,246.86 123.84,246.86 C62,246.86 0,199.08 0,123.85 C0,60.15 48.47,0.88 125.12,0.88 C169.4,0.88 212.92,26.15 234.89,72.31 C250.43,106.36 258.07,134.38 278.35,173.29 C292.04,203.52 312.05,210.49 330.94,210.66 C351.16,209.58 371.16,198.4 377.83,183.51 C384.19,169.5 380.08,158.3 370.72,148.21 C364.09,141.05 340.2,132.63 325.49,130.05 C301.65,125.15 266.85,105.88 266.21,63.36 C266.53,26.64 298.03,1.99 325.57,0.95 C361.69,0 380.87,23.41 386.32,38.74 L359.78,51.86 C354.46,40.6 343.12,29.03 323.58,31.59 C305.78,34.94 295.8,51.49 295.98,64.75 C298.64,90.12 318.24,96.55 326.5,97.42 C354.26,99.28 383.92,111.96 400.42,133.02 C413.34,147.99 415.09,173.12 405.98,195.84 C396.6,218.31 376.88,240.46 340.64,245.06 C297.22,249.08 266.96,223.8 252.15,189.26 C236.42,157.32 220.67,123.64 204.82,81.87 C196.96,65.28 175.79,31.91 119.59,30.27 C83.61,31.61 34.44,57.58 28.79,120.69 C29.4,183.46 79.9,218.63 124.16,217.76 C161.59,216.34 190.47,196 204.05,170.73 Z" fill="none" stroke="currentColor" stroke-width="1.5"/></svg>