<svg xmlns="http://www.w3.org/2000/svg" viewBox="0 0 511.39 399.54" width="24" height="24"><path d="M250.94,348.55 C335.17,348.55 401.97,285.61 401.97,201.01 C401.97,122.68 341.44,51.17 251.18,51.17 C171.85,50.59 103.88,118.21 103.88,199.82 C103.88,286.76 178.25,348.55 250.94,348.55 Z M250.55,399.54 C143.74,399.54 53.7,310.3 53.7,198.54 C53.7,88.14 146.74,0.1 247.04,0.1 C362.67,0.1 452.42,89.18 452.42,199.5 C452.42,303.45 369.22,399.54 250.55,399.54 Z" fill="none" stroke="currentColor" stroke-width="1.5"/><path d="M0.1,348.33 C87.6,348.33 160.92,278.58 160.92,201.74 C160.58,169.01 152.95,137.15 132.88,111.94 C143,98.32 155.28,86.5 168.99,76.87 C207.87,128.02 219.33,186.68 206.32,243.28 C176.19,356.56 72.92,399.51 0.26,399.51 C0.2,398.71 0.14,397.65 0.08,396.4 Z M0,0.45 C50.72,0 105.12,19.89 131.7,41.17 C117.54,52.03 103.71,66.89 95.69,77.27 C69.02,59.23 31.67,51.49 0.15,51.28 Z" fill="none" stroke="currentColor" stroke-width="1.5"/><path d="M340.27,321.17 C318.66,290.28 301.19,254.89 299.9,201.89 C299.9,84.9 398.57,0.4 511.27,0.4 L511.29,50.84 C441.35,50.84 357.01,94.79 350.69,199.48 C350.2,239.63 362.2,263.66 375.98,285.38 C366.35,299.28 354.02,311.64 340.27,321.17 Z M412.01,319.57 C444.21,341.08 479.28,348.17 511.39,348.17 L511.31,398.98 C455.9,398.98 409.22,380.76 376.22,356.47 C389.71,345.8 401.54,333.4 412.01,319.57 Z" fill="none" stroke="currentColor" stroke-width="1.5"/></svg>