<svg xmlns="http://www.w3.org/2000/svg" viewBox="0 0 406.39 393.52" width="24" height="24"><path d="M195.49,272.08 C237.73,272.08 273.79,240.44 273.79,194.36 C273.79,153.79 239.58,119.07 197.67,119.07 C153.38,119.07 121.31,157.79 121.31,193.04 C121.31,243.14 162.17,272.08 195.49,272.08 Z M278.49,348.2 C282.56,360.18 280.07,366.34 270.75,372.3 C234.7,393.52 157.73,391.49 97.89,358.56 C46.49,330.33 1.16,274.32 0,188.46 C0,107.5 64.78,0 202.28,0 C350.96,0 406.39,118.32 406.39,188.37 C406.39,234.66 392.35,283.05 362.9,314.17 C349.28,329.51 328.9,336.42 305.41,326.4 C289.99,320.5 274.3,304.66 276.35,275.91 C251.2,302.25 215.76,315.25 169.66,305.16 C115.89,294.03 82.55,243.09 82.55,195.11 C82.55,122.43 144.3,78.77 194.93,78.77 C233.68,78.77 261.04,98.88 276.2,113.27 C278.9,104.22 283.4,95.3 297.6,95.49 C307.84,95.49 314.25,102.23 313.96,115.04 L313.96,278.24 C319.05,286.57 326.88,285.91 332.63,280.49 C346.61,266.35 355.81,246.16 360.18,216.28 C366.26,172.87 352.81,110.96 298.85,73.33 C225.23,26.87 149.79,36.18 98.34,78.69 C57.9,113.51 31.78,176.39 53.23,239.35 C67.41,286.88 99.58,318.16 148.11,334.66 C193.96,349.36 224.07,341.81 254.35,334.48 C267.23,332.48 273.49,334.83 278.49,348.2 Z" fill="none" stroke="currentColor" stroke-width="1.5"/></svg>