<svg xmlns="http://www.w3.org/2000/svg" viewBox="0 0 295.35 241.17" width="24" height="24"><path d="M223.64,185.46 L241.14,185.46 L241.14,241.17 L0,241.17 L0,0 L241.14,0 L241.14,56.78 L223.64,56.78 L223.64,17.16 L17.22,17.16 L17.22,223.55 L223.64,223.55 Z" fill="none" stroke="currentColor" stroke-width="1.5"/><path d="M228.66,149.79 C238.7,149.79 243.16,146.75 247.01,140.91 C253.43,131.41 257.68,116.74 257.9,105.76 C257.52,96.88 257.56,90.2 246.96,87.91 C239.15,86.43 232.08,87.48 224.47,103.14 C221.29,110.83 220.14,114.44 217.77,132.33 C216.68,141.92 221.41,149.79 228.66,149.79 Z M227.05,165.04 C216.43,165.04 200.09,159.74 193.01,148.44 C187.34,139.56 186.13,123.56 190.76,110.57 C198.17,92.64 206.38,85.63 217.17,78.77 C230.25,71.81 257.15,70.08 272.99,80.46 C295.35,96.59 285.23,124.72 278.7,136.87 C269.48,153.61 253.36,164.18 227.05,165.04 Z M34.3,162.56 L34.3,157.33 C37.42,157.42 39.02,157.13 40.61,156.84 C43.96,156.02 45.64,154.36 45.64,151.86 L45.54,89.98 L33.85,89.98 L33.85,85.34 C42.11,82.11 48.05,80.3 53.03,79.03 L60.38,79.03 L60.38,88.1 C67.78,83.01 78.4,78.15 87.5,77.5 C97.23,76.94 104.92,84.63 107.17,89.63 C115.15,85.07 122.82,81.06 129.36,78.98 C134.71,77.49 141.05,77.01 149.43,81.2 C157.25,85.74 159.1,94.33 159.57,100.82 L159.57,150.93 C159.59,154.9 161.47,155.84 164.66,156.49 L171.41,157.74 L171.41,162.56 L134.57,162.56 L134.57,157.47 C137.14,157.43 139.75,157.5 142.13,156.52 C144.76,155.18 145.93,153.73 145.93,151.16 L145.93,106.71 C145.93,100.34 143.49,87.71 129.02,88.74 C122.38,89.34 117.49,90.72 109.93,94.82 L109.93,151.21 C109.93,154.73 110.98,155.53 113.79,156.48 C116.71,157.21 118.69,157.38 121.23,157.57 L121.23,162.56 L83.79,162.56 L83.79,157.68 C87.08,157.67 88.67,157.29 90.34,156.92 C93.25,156.38 95.71,154.97 95.71,151.76 L95.71,107.68 C95.71,98.95 93.18,89.45 80.1,88.74 C73.37,88.47 68.29,90.96 60.38,94.46 L60.38,151.07 C60.38,155.15 61.88,155.84 64.13,156.29 C66.98,157.13 68.92,157.33 70.96,157.33 L70.96,162.56 Z" fill="none" stroke="currentColor" stroke-width="1.5"/></svg>