<svg xmlns="http://www.w3.org/2000/svg" viewBox="0 0 407.15 464.34" width="24" height="24"><path d="M187.91,464.31 C188.26,453.03 188.57,441.62 188.42,428.86 C188.96,414.36 178.38,405.61 156.3,405.93 C131.36,406.24 111.72,413.62 99.96,412.71 C74.09,410.06 66.74,403.77 55.52,387.16 C50.96,378.66 50.9,375.12 53.97,367.11 C57.04,358.67 56.26,348.71 48.86,344.31 C41.61,339.29 42.69,331.79 44.92,324.87 C36.44,320.5 32.48,314.72 37.86,303.04 C43.05,291.79 35.43,287.45 19.62,282.42 C10.87,280.69 2.66,279.33 1.38,272.73 C0,264.36 2.03,259.24 5.16,253.37 C18.94,227.37 38.45,213.13 48.73,195.66 C53.19,189.18 55.23,182.62 48.3,177.64 C43.23,173.91 40.13,165.12 41.43,153.48 C44.89,127.37 50.1,101.62 62.36,77.27 C82.45,36.54 118.45,17.63 154.15,9.95 C201.47,0 250.91,4.67 296.09,13.52 C342.72,24.25 378.17,58.27 392.19,104.51 C405.88,147.2 407.15,200.86 397.42,256.86 C393.11,290.13 386.53,320.78 380.64,342.15 C377.49,353.84 366.58,364.62 366.92,391.4 C365.82,413.42 369.94,438.77 374.25,464.24 Z" fill="none" stroke="currentColor" stroke-width="1.5"/><path d="M249.81,343.35 C226.37,343.35 210.84,319.22 210.84,300.79 C210.84,273.23 229.52,256.8 247.78,256.8 C265.7,256.8 285.58,274.71 285.58,302.08 C285.58,328.77 265.97,343.35 249.81,343.35 Z M244.98,464.34 C239.39,412.78 216.7,387.19 185.6,371.53 C140.92,342.85 125.79,328.4 102.49,236.38 C121.66,290.42 155.28,321.96 186.19,338.08 C228,358.01 276.44,365.43 309.38,332.62 C339.32,299.37 353.44,239.76 352.72,166.6 C358.1,193.35 365.12,242.65 359.52,276.7 C355.57,301.94 353.29,309.47 348.27,325.86 C339.8,355.01 331.26,397.59 338.19,429.71 C341.25,446.4 344.97,446.54 350.05,464.32 Z" fill="none" stroke="currentColor" stroke-width="1.5"/><path d="M81.42,202.75 C83.08,180.43 86.04,161.49 90.71,146.95 C95.65,132.25 111.24,114.8 123.36,104.17 C123.27,126.65 120.06,145.37 112.95,159.32 C106.32,174.07 95.06,188.5 81.42,202.75 Z M141.36,138 C143.91,123.76 148.68,108.91 161.54,86.91 C171.38,70.2 185.99,59.97 202.16,53.2 C199.11,68.28 192.35,82.26 181.18,97.17 C171.62,109.87 157.7,124.08 141.36,138 Z M217.51,100.57 C228.2,83.03 239.15,67.77 250.55,56.26 C270.98,39.84 283.94,36.48 302.42,33.4 C296.45,46.32 285.96,59.85 268.99,73.39 C256.53,83.01 238.43,92.92 217.51,100.57 Z M274.03,117.66 C285.8,102.9 300.46,91.6 315.19,83.18 C328.6,75.62 349.16,72.96 361.15,73.72 C353.38,83.55 344.55,93.8 327.09,104.33 C313.48,112.03 292.2,117.52 274.03,117.66 Z M225.84,162.27 C239.32,153.31 260.28,145.6 282.91,145.6 C304.89,145.6 318.32,153.75 327.65,162.03 C315.1,166.26 302.56,170.49 278.99,171.05 C258.15,169.93 242.03,166.08 225.84,162.27 Z M152.24,205.84 C163.84,201.23 187.25,194.56 209.6,194.56 C228.44,194.56 247.98,200.7 257.02,211.51 C243.86,214.92 221.58,220.59 204.7,220.59 C190.86,220.59 166.77,212.08 152.24,205.84 Z M93.81,250.78 C110.98,225.44 124.2,198.34 138.57,176.71 C157.31,149.05 183.14,132.29 206.94,123.68 C224.85,117.94 239.82,117.62 258.41,126.73 C243.15,122.63 225.53,123.51 204.88,137.42 C167.64,163.35 136.75,208.94 93.81,250.78 Z" fill="none" stroke="currentColor" stroke-width="1.5"/></svg>