<svg xmlns="http://www.w3.org/2000/svg" viewBox="0 0 206.1 430.92" width="24" height="24"><path d="M117.86,374.12 C109.94,370.25 104.09,357.34 103.08,323.15 C105.29,289.28 105.36,249.71 105.55,209.15 C104.64,140.06 106.54,72.94 100.12,0 C107.52,21.36 114.95,30.55 123.82,38.8 C152.85,66.69 174.64,106.27 183.53,133.73 C206.1,195.59 198.07,244.89 185.92,282.65 C165.99,330.44 142.44,355.51 117.86,374.12 Z" fill="none" stroke="currentColor" stroke-width="1.5"/><path d="M94.69,378.99 C70.77,357.82 44.26,335.93 21.67,286.32 C0,234.58 4.22,171.66 19.59,127.98 C34.14,82.26 56.21,53.65 86.54,25.09 C99.33,14.88 99.82,8.64 100.12,0 C105.78,62.5 105.42,135.02 105.55,209.15 C106.53,248.41 106.35,286.86 103.08,323.15 C100.92,342.66 99.68,363.45 94.69,378.99 Z" fill="none" stroke="currentColor" stroke-width="1.5"/><path d="M100.6,426.93 C100.85,415.2 100.98,401.85 94.69,378.99 C99.8,363.63 100.7,342.35 103.08,323.15 C104.1,349.08 107.55,369.47 117.86,374.12 C113.46,378.5 110.87,387.47 110.99,403.28 L111.63,430.92 Z" fill="none" stroke="currentColor" stroke-width="1.5"/></svg>