<svg xmlns="http://www.w3.org/2000/svg" viewBox="0 0 315.45 351.07" width="24" height="24"><path d="M238.26,115.93 C206.22,115.93 179.19,91.15 179.19,57.22 C179.19,28.91 201.24,0 239.04,0 C270.61,0 295.87,26.47 295.87,57.82 C295.87,89.95 269.75,115.93 238.26,115.93 Z M130.81,105.39 C106.62,105.39 87.74,85.59 87.74,63.86 C87.74,32.4 114.38,20.96 131.06,20.96 C154.67,20.96 172.31,41.61 172.31,62.86 C172.31,86.12 154.53,105.39 130.81,105.39 Z M45.97,101.25 C32.13,101.25 11.22,89.48 11.22,65.97 C11.22,42.71 31.05,31.45 46.95,31.45 C64.79,31.45 80.95,45.46 80.95,66.43 C80.95,82.47 67.68,101.25 45.97,101.25 Z M0,237.22 L0,152.74 C0,121.34 25.67,106.98 46.43,106.98 C68.47,106.98 82.35,120.78 87.64,132.44 C101.56,115.97 117.93,112.86 131.5,112.86 C157.99,112.86 177.2,132.1 183.35,149.44 C200.21,131.99 219.75,126.09 240.87,126.95 C278.5,126.95 315.45,161.77 315.45,201.93 L315.45,351.07 L153.98,351.07 L153.98,275.12 L77.96,275.12 L77.96,237.22 Z" fill="none" stroke="currentColor" stroke-width="1.5"/></svg>