<svg xmlns="http://www.w3.org/2000/svg" viewBox="0 0 440.53 158.82" width="24" height="24"><path d="M207.59,84.84 L234.04,84.84 L234.04,48.73 Z M0,154.87 L0,0.52 L42.22,0.52 L115.6,78.21 L115.6,0.52 L169.76,0.52 L169.76,64.87 L220.37,0.52 L284.29,0.52 L284.29,38.51 C300.65,14.23 326.42,0.09 362.46,0 L362.46,32.91 C343.2,38.02 322.99,48.71 323.03,76.77 C323.36,113.67 355.13,120.69 383.95,119.27 L383.95,100.62 L362.1,100.62 L361.94,70.1 L440.53,70.1 L440.53,145.08 C425.19,150.84 396.37,158.47 364.17,158.82 C331.81,158.82 299.75,145.18 284.29,121.11 L284.29,154.87 L234.04,154.87 L234.04,121.99 L169.76,121.99 L169.76,154.87 L125.95,154.87 L57.32,81.17 L57.32,154.87 Z" fill="none" stroke="currentColor" stroke-width="1.5"/><path d="M382.63,2.96 L440.53,2.96 L440.53,53.29 Z" fill="none" stroke="currentColor" stroke-width="1.5"/></svg>