<svg xmlns="http://www.w3.org/2000/svg" viewBox="0 0 203.08 386.41" width="24" height="24"><path d="M93.3,386.41 L93.3,310.19 L43.22,274.4 C37.59,277.03 32.01,278.31 27.32,278.31 C15.93,278.31 0,267.92 0,249.87 C0,232.64 15.44,221.83 28.6,221.83 C46.72,221.83 61.16,238.65 56.32,257.7 L93.3,283.59 L93.3,204.34 L43.22,168.87 C39.57,170.91 32.7,172.62 27.24,172.62 C18.08,172.62 0.24,165.59 0.24,143.38 C0.24,126.73 16.56,116.06 28.36,116.06 C45.04,116.06 60.66,130.82 56.48,152.57 L93.3,177.81 L93.3,99.2 L43.14,63.25 C39.49,65.28 34.01,67.09 27.4,67.09 C16.25,67.09 0,56.32 0,39.13 C0,22.13 14.59,10.84 28.52,10.84 C47.71,10.84 60.63,27.43 56.4,46.56 L93.3,72.36 L93.3,0 L115.47,0 L115.47,125.81 L148.59,101.6 C146.8,96.92 144.87,92.37 148.67,82.51 C152.8,73.73 160.11,65.57 175.92,65.25 C188.13,65.25 203.08,76.44 203.08,93.85 C203.08,107.49 191.28,121.33 177.35,121.33 C171.75,121.33 168.61,121.93 161.78,117.98 L115.47,152.16 L115.47,231.37 L148.52,206.9 C141.44,191.16 154.44,171.03 174.26,171.03 C190.47,171.03 203.07,183.58 203.07,199.16 C203.07,209.92 194.31,227.28 174.91,227.28 C167.95,227.28 164.82,225.46 162.02,223.59 L115.47,257.94 L115.47,337.27 L148.51,312.43 C140.97,292.23 158.88,276.64 174.72,276.64 C192.82,276.64 202.92,291.89 202.92,304.98 C202.92,320.24 189.99,333.15 174.94,333.15 C168.39,333.15 164.47,331.09 161.83,329.19 L115.47,363.59 L115.47,386.41 Z" fill="none" stroke="currentColor" stroke-width="1.5"/></svg>