<svg xmlns="http://www.w3.org/2000/svg" viewBox="0 0 236.96 352.05" width="24" height="24"><path d="M201.74,238.59 C201.74,227.2 192.83,217.39 181.62,217.39 C168.88,217.39 161.23,227.16 161.23,236.34 L161.23,307.92 C161.23,314.73 169.38,324.91 180.94,324.91 C194.69,324.91 201.74,313.81 201.74,305.97 Z M183.58,352.05 C155.02,352.05 125.4,328.44 125.4,294.12 L125.4,243 C125.4,209.09 156.21,185.77 182.9,185.77 C217.74,185.77 236.96,216.09 236.96,238.63 L236.96,299.65 C236.96,320.39 218.3,352.05 183.58,352.05 Z M0,346.51 L0,183.95 L39.1,183.95 L84.06,303.25 L84.06,183.95 L110.72,183.95 L110.72,346.51 L75.23,346.51 L27.74,234.41 L27.74,346.51 Z" fill="none" stroke="currentColor" stroke-width="1.5"/><path d="M131.71,166.56 L131.71,0 L159.63,0 L159.63,93.97 L196.21,47.08 L227.82,47.08 L192.15,87.76 L226.62,168.03 L189.63,166.18 L174.78,110.81 L159.63,129.87 L159.63,166.75 Z M77.54,54.72 C77.54,47.64 72.15,33.63 57.57,33.63 C44.36,33.63 36.96,44.1 36.96,54.57 L36.96,118.8 C36.96,134.53 47.96,141.32 56.13,141.32 C70.25,141.32 77.54,131.75 77.54,119.59 Z M112.88,116.21 C112.88,141.23 91.36,168.25 59.89,168.25 C23.2,168.25 1.58,137.02 1.58,114.68 L1.58,57.76 C1.58,27.22 29.8,2.8 59.48,2.8 C93.94,2.8 112.88,32.36 112.88,53.13 Z" fill="none" stroke="currentColor" stroke-width="1.5"/></svg>