<svg xmlns="http://www.w3.org/2000/svg" viewBox="0 0 448.92 114.66" width="24" height="24"><path d="M0.06,114.66 L0,0.03 L448.92,0 L448.77,114.27 Z" fill="none" stroke="currentColor" stroke-width="1.5"/><path d="M386.68,81.96 L355.59,81.96 C351.68,81.96 346.16,78.39 342.5,71.62 C339.38,64.54 338.92,54.37 342.59,45.26 C344.6,40.56 350.15,34.59 355.3,34.59 L390.26,34.59 L385.15,42.19 L361.96,42.19 C353.81,42.19 348.19,48.29 348.19,55.65 L387.52,55.65 L384.21,62.65 L347.82,62.65 C347.82,69.69 353.2,75.08 360.21,75.08 L389.95,75.08 Z M293.98,81.96 L293.98,34.59 L303.1,34.59 L303.1,75.08 L340.07,75.08 L335.65,81.96 Z M285.62,81.96 L256.43,81.96 C252.17,81.96 248.03,80.57 244.2,75.99 C238.11,67.23 235.77,57.3 241.57,43.73 C245.08,36.91 253.1,34.59 257.42,34.59 L289.84,34.59 L283.38,42.19 L260.1,42.19 C253.76,42.19 246.59,48.58 246.59,58.46 C246.59,70.52 255.64,75.08 260.48,75.08 L290.53,75.08 Z M178.9,81.96 L206.98,34.59 L215.53,34.59 L240.6,81.96 L231.04,81.96 L227.01,75.08 L205.21,75.08 L201.48,65.89 L222.36,65.89 L211.61,42.19 L190.91,81.96 Z M126.23,81.96 L126.23,34.59 L168.55,34.59 C173.22,34.59 176.9,35.89 179.04,42.11 C180.98,50.7 179.47,56.34 177.15,59.78 C173.89,64.21 170.84,66.11 162.31,66.11 L177,81.96 L163.88,81.96 L138.61,56.11 L162.28,56.11 C167.19,56.11 170.6,52.27 170.6,49.5 C170.6,45.86 168.07,42.19 162.24,42.19 L135.81,42.19 L135.81,81.96 Z M99.8,75.08 C106.56,75.08 113.97,67.21 113.97,57.09 C113.97,46.03 108.22,42.19 102.25,42.19 L72.68,42.19 C66.43,42.19 61.44,47.01 61.44,56.92 C61.44,69.56 71.09,75.08 76.41,75.08 Z M74.26,81.96 C65.92,81.96 55.2,76.1 53.94,62.75 C53.57,57.77 53.01,50.53 55.21,44.46 C58.2,37.53 64.57,34.59 71,34.59 L106.14,34.59 C112.14,34.59 115.91,37.18 117.25,39.32 C124.85,51.28 122.72,63.97 118.24,71.36 C114.49,76.77 108.78,81.96 100.96,81.96 Z" fill="none" stroke="currentColor" stroke-width="1.5"/></svg>