<svg xmlns="http://www.w3.org/2000/svg" viewBox="0 0 256.0 290.03" width="24" height="24"><path d="M8.26,254.29 C4.31,254.29 0,250.83 1.21,244.32 L39.81,8.88 C40.54,4.33 47.33,0 50.94,0 L155.86,0.06 C184.1,0.06 209.13,8.82 222.85,27.17 C233.6,45.99 232.61,60.93 227.84,86.51 L71.85,253.8 Z" fill="none" stroke="currentColor" stroke-width="1.5"/><path d="M68.32,290.03 C63.93,290.03 61.59,286.38 62.49,281.28 L80.28,164.42 L218.36,70.7 C237.65,74.38 251.9,84.13 256,112.04 C255.02,143.73 246.04,172.23 222.49,191.43 C209.39,202.5 181.19,210.05 152.82,208.7 C147.41,208.7 140.38,210.95 138.84,221.46 L128.87,279.94 C127.67,286.66 124.27,289.91 116.59,289.91 Z" fill="none" stroke="currentColor" stroke-width="1.5"/><path d="M79.63,168.21 C82.4,163.09 86.6,160.82 94.34,160.55 C139.41,161.99 163.41,160.23 187.84,144.87 C219.87,121.99 227.29,91.14 229.9,73.9 C221.35,70.46 199.24,63.89 182.52,63.89 L112.94,63.41 C104.25,63.41 97.76,66.48 96.41,73.38 Z" fill="none" stroke="currentColor" stroke-width="1.5"/></svg>