<svg xmlns="http://www.w3.org/2000/svg" viewBox="0 0 384.22 372.04" width="24" height="24"><path d="M115.7,356.81 C65.81,334 0,281.48 0,182.18 C0,97.92 71.8,0 194.1,0 C295.18,0 384.22,78.66 384.22,189.33 C384.22,256.74 329.67,372.04 186.95,371.51 C172.5,371.51 153.26,370.04 137.69,363.57 C144,354.9 150.1,344.41 155.7,329.41 L171.06,272.74 C191.19,302.83 231.56,298.76 256.59,288.1 C286.32,274.83 311.45,243.16 318.29,198.33 C323.54,167.86 326.84,122.19 269.83,81.29 C236.52,64.65 174.38,47.58 109.89,90.3 C83.21,112.44 61.05,142.12 63.02,189.33 C67.01,220.9 82.93,240.28 101.64,249.47 C105.26,250.8 109.12,250.31 110.69,245.69 L115.11,230.02 C116.14,226.62 115.79,223.98 112.12,219.87 C95.83,201.45 97.2,175.65 105.39,150.67 C124.91,105.29 164.47,93.33 200.58,94.27 C249.02,95.57 278.79,129.04 274.6,172.52 C271.96,212.73 261.39,245.41 233.15,260.03 C220.3,267.42 205.18,269.19 189.99,255.4 C182.51,247.29 180.1,240.63 182.98,226.53 L198.86,173.05 C201.92,154.64 197.59,140.63 179.67,135.58 C167.55,133.24 151.41,138.62 142.46,157.55 C135.55,175.75 136.28,197.79 144.18,212.9 L119.69,310.08 C116.69,323.56 115.54,334.2 115.7,356.81 Z" fill="none" stroke="currentColor" stroke-width="1.5"/></svg>