<svg xmlns="http://www.w3.org/2000/svg" viewBox="0 0 398.97 399.93" width="24" height="24"><path d="M199.25,399.93 C97.56,399.93 0,320.05 0,200.2 C0,87.95 92.93,0 200.53,0 C307.45,0 398.97,86.65 398.97,201.96 C398.97,307.61 314.83,399.93 199.25,399.93 Z" fill="none" stroke="currentColor" stroke-width="1.5"/><path d="M119.89,383.21 C96.75,372.9 72.07,358.2 47.93,330.92 L48.01,202.61 C48.01,129.86 109.43,49.33 194.98,49.33 C278.27,49.33 350.39,118.67 350.39,198.98 C350.39,283.52 284.05,351.55 199.75,351.55 C178.19,351.55 161.58,335.81 161.58,315.08 C161.58,297.16 173.74,280.14 193.5,278.01 C238.6,277.92 275.08,246.72 275.08,200.87 C275.08,150.8 230.74,123.39 197.26,123.39 C159.91,123.39 119.4,156.99 119.4,198.62 Z" fill="none" stroke="currentColor" stroke-width="1.5"/></svg>