<svg xmlns="http://www.w3.org/2000/svg" viewBox="0 0 313.54 288.73" width="24" height="24"><path d="M284.62,0 C309.31,0 313.54,24.14 313.54,35.23 L313.54,131.51 C313.54,170.96 300.42,199.53 284.05,223.73 C259.66,257.99 221.67,288.73 154.53,288.73 C129.04,288.73 77.52,276.16 47.61,242.75 C20,215.8 0,176.26 0,131.8 L0,36.32 C0,18.94 10.92,0 29.83,0 Z" fill="none" stroke="currentColor" stroke-width="1.5"/><path d="M157.39,151.85 L97.5,91.77 C87.11,82.79 74.94,84.56 66.79,92.18 C58.12,102.48 60.57,113.98 66.15,121.32 L157.62,212.6 L254.46,115.19 C259.64,108.53 261.92,96.3 252.85,86.17 C244.43,78.39 232.16,78.23 222.32,86.62 Z" fill="none" stroke="currentColor" stroke-width="1.5"/></svg>