<svg xmlns="http://www.w3.org/2000/svg" viewBox="0 0 464.14 333.64" width="24" height="24"><path d="M360.92,166.56 C381.72,162.36 420.59,158.25 445.51,166.15 C457.16,171.05 464.14,180.42 459.04,197.16 L444.76,243.59 C433.79,254.95 415.04,264.91 390.28,270.21 C377.18,272.38 350.85,276.32 334,264.42 C323.44,255.16 325.62,236.81 338.85,221.86 C354.81,206.37 384.71,202.53 409.46,201.45 L403.55,221.34 C393.34,222.08 385.91,222.37 377.88,225.92 C368.15,231.01 367.66,236.66 366.94,241.19 C366.06,247.81 374.66,250.03 383.4,250.1 C393.59,250.11 402.08,245.99 408.29,242.31 L420.92,200.06 C422.09,194.45 422.6,188.54 411.94,186.15 C393.21,182.5 373.67,184.63 352.95,192.05 Z M214.49,175.21 C239.07,165.18 283.4,158.5 305.58,162.88 C325.74,166.56 331.7,177.36 325.47,200.36 L303.18,272.16 L265.39,272.16 L284.57,210.36 C285.75,205.69 288.97,193.8 281.44,190.28 C269.8,185.91 256.95,189.84 246.37,194.72 L222.42,272.16 L184.64,272.16 Z M191.56,176.68 C172.96,230.95 144.73,315.09 129.37,330.21 C126.06,333.64 123.64,333.46 123.32,328.58 C121.81,313.84 125.55,289.67 129.41,265.36 C134.93,236.14 141.5,205.51 148.28,174.61 C162.47,178.77 179.84,178.65 191.56,176.68 Z M0,264.99 L9.03,235.67 C17.95,243.26 27.67,248.28 42.82,250.53 C58.45,252.2 66.74,251.16 71.98,249.01 C78.53,246.25 79.03,243.37 79.33,241.1 C79.66,239.14 78.65,236.42 73.02,235.03 C58.43,230.91 47.9,231.62 37.47,227.6 C31.24,225.2 19.48,220.91 19.17,204.43 C20.75,190.68 30.46,178.54 48.57,170.48 C74.82,158.63 111.97,161.04 133.69,169.92 L125.23,199 C119.05,193.15 111.31,187.71 93.15,185.02 C84.12,184.48 73.69,183.87 64.63,188.61 C59.97,191.55 59.85,194.99 60.4,197 C61.34,199.76 63.37,201 69.26,202.2 C81.87,205.19 93.85,206.18 105.45,209.79 C113.12,212.95 123.23,219.13 119.91,234.63 C116.85,248.77 105.73,260.91 82.13,269.06 C63.64,275.44 25.55,276.74 0,264.99 Z" fill="none" stroke="currentColor" stroke-width="1.5"/><path d="M180.65,165.13 C161.37,165.13 127.43,161.27 106.25,143.03 C88.89,127.35 86.26,102.89 102,71.93 C105.46,62.29 110.09,48.08 118.4,39.94 C119.52,38.74 122.93,38.04 123.51,41.86 C123.89,44.45 122.39,50.63 123.49,54.19 C124.62,57.68 126.33,58.96 128.62,58.48 C130.67,58.05 132.63,57.65 136.82,45.26 C139.12,38.13 144.99,27.29 149.66,23.21 C152.56,20.79 154.68,19.31 157.91,20.71 C159.25,21.61 159.4,24.41 159.28,26.61 C159.15,30.22 158.6,33.28 158.43,37.31 C158.37,40.66 159.94,43.32 163.13,43.14 C168.88,42.69 169.37,40.91 173.66,35.52 C188.3,12.5 197.15,2.88 207.7,0.67 C210.85,0.12 214.63,0 215.62,2.63 C216.46,5.71 216.23,7.93 215.28,10.92 C213.11,17.78 210.3,23.52 209.43,28.55 C207.7,37.06 209.92,38.4 212.52,39.61 C217.21,40.9 221.98,37.6 227.59,30.54 C236.28,20.65 247.66,11.22 255.43,8.19 C259.85,6.43 263.49,7.05 265.34,9.13 C266.54,11.09 265.67,16.59 263.17,19.88 C260.44,23.42 256.45,31.71 255.02,35.81 C253.45,41.17 254.11,43.98 256.13,45.06 C258.91,46.13 260.34,46.5 263.8,44.62 C271.28,40.46 280.77,31.19 294.45,27.33 C297.54,26.56 302.85,25.86 305.19,28.32 C306.44,30.12 306.69,33.57 303.03,39.21 C299.92,44.22 295.53,48.37 291.9,53.94 C287.82,59.88 288.78,62.95 291.37,68.1 C295.29,76.14 297.1,85.49 297.16,95.92 C297.1,104.37 292.37,130.81 252.2,149.49 C235.12,157.66 205.16,164.7 180.65,165.13 Z" fill="none" stroke="currentColor" stroke-width="1.5"/><path d="M186.37,154.76 C168.85,155.92 141.02,153.05 125.43,137.09 C111.58,123.02 111.79,107.83 125.19,91.63 C143.3,71.8 172.59,64.8 194.13,65.03 C211.98,64.53 234.55,68.33 249.41,83.51 C260.18,94.29 267.04,117.3 236.67,138.29 C225.24,146.28 209.11,153.31 186.37,154.76 Z" fill="none" stroke="currentColor" stroke-width="1.5"/><path d="M182.83,114.8 C184.49,114.28 185.8,112.73 185.42,109.68 C184.9,106.83 181.84,106.94 180.47,108.09 C179.37,109.15 178.76,110.46 178.63,111.88 C178.51,114.19 180.72,115.3 182.83,114.8 Z M170,131.85 C174.32,130.61 179.2,126.31 179.51,119.67 C179.63,115.07 177.35,110.09 171.44,109.72 C165.17,109.28 160.98,112.68 158.78,117.91 C155.37,128.38 161.78,133.45 170,131.85 Z M185.16,143.55 C176.46,146.92 163.69,146.25 154.22,138.96 C149.02,134.1 143.56,126.29 146.03,112.16 C148.26,103.19 154.72,93.55 167.37,86.68 C178.29,81 196.24,81.16 206.93,94.79 C213.67,103.83 216.48,130.95 185.16,143.55 Z" fill="none" stroke="currentColor" stroke-width="1.5"/></svg>