<svg xmlns="http://www.w3.org/2000/svg" viewBox="0 0 385.79 329.92" width="24" height="24"><path d="M40.9,243.2 L12.47,157.29 C31.01,173.49 51.75,185.91 72.95,190.37 C96.02,194.61 112.48,188.97 121.28,171.91 C127.63,158.21 120.27,143.19 103.3,137.96 C80.47,131.24 46.67,119.88 26.76,103.97 C5.42,86.21 0,60.72 12.29,38.25 C28.12,12.02 58.52,1.76 89.62,0.06 C137.23,0 173.37,20.77 195.98,38.97 L201.47,6.34 L227.74,90.33 C212.08,75.89 195.42,62.26 173.49,52.88 C162.85,48.55 151.8,50.93 145.15,61.04 C138.22,74.18 146.8,81.78 156.99,89.39 C178.3,103.98 194.47,98.64 234.25,120.82 C256.26,133.41 270.53,150.37 264.36,178.86 C260.46,193.95 252.49,206.67 230.19,221.34 C205.07,237.34 157,247.59 121.12,240.52 C99.99,236.61 65.85,222.85 42.89,203.56 Z" fill="none" stroke="currentColor" stroke-width="1.5"/><path d="M124.71,182.22 L248.7,168 C240.75,175.65 226.96,188 223.62,211.62 C222.76,224.34 226.83,240.65 245.99,241.18 C264.36,241.04 278.18,233.95 288.17,215.77 C303.51,186.9 291.68,142.7 270.75,121.34 L182.55,106.64 L385.79,79.8 L315.82,116.04 C334.22,135.29 344.09,142.89 355.23,152.88 C374.68,171.08 379.39,197.98 377.82,218.57 C376.73,242.1 363.68,272.94 341.47,292.92 C316.63,313.45 252.44,329.92 198.21,320.75 C164.98,314.68 131.13,298.08 126.95,253.8 C125.95,225.76 152.62,203.87 184.79,193.88 Z" fill="none" stroke="currentColor" stroke-width="1.5"/></svg>