<svg xmlns="http://www.w3.org/2000/svg" viewBox="0 0 338.87 351.41" width="24" height="24"><path d="M0,233.05 L41.84,233.05 C44.4,252.54 55.68,261.41 71.68,264.71 C91.17,267.96 104.7,267.5 115.86,260.08 C125.56,252.56 126.31,244.3 126.07,240.35 C125.21,229.72 114.22,222.08 96.31,216.26 C64.24,206.13 38.58,203.88 22.92,192.93 C7.87,181.17 0.74,160.98 4.09,137.21 C7.13,119.03 15.79,99.63 49.21,89.62 C81.42,81.6 114.54,86.43 133.34,98.65 C154.68,115.44 158.07,132.89 159.91,150.82 L132.85,150.82 C125.5,150.59 118.57,144.24 114.34,135.23 C108.6,125.11 97.38,122.02 86.88,120.58 C76.22,119.42 60.47,120.25 52.41,127.27 C46.48,132.69 42.19,141.87 45.58,151.14 C52.4,166.01 84.59,170.8 100.48,174.92 C124.29,181.81 145.85,186.56 157.26,202.38 C169.51,221.24 169.63,246.3 160.31,266.33 C146.8,294.12 112.04,304.76 66.11,300.89 C25.29,294.55 3.92,274.85 0,233.05 Z" fill="none" stroke="currentColor" stroke-width="1.5"/><rect x="0" y="0" width="0" height="0" fill="none" stroke="currentColor"/><path d="M174.11,280.53 C179.33,273.27 182.88,262.11 184.45,252.53 L217.3,276.76 L193.32,205.99 L252.73,163.11 L179.67,163.11 C179.43,138.78 175.58,122.19 166.38,107.18 C160.02,95.85 146.8,83.53 132.36,76.35 L157.03,0 L200.63,135.03 L338.87,135.03 L225.8,217.83 L271.46,351.41 Z" fill="none" stroke="currentColor" stroke-width="1.5"/></svg>