<svg xmlns="http://www.w3.org/2000/svg" viewBox="0 0 319.18 395.2" width="24" height="24"><path d="M165.27,395.2 L165.27,319.81 L51.93,319.81 C50.1,319.81 48.74,319.7 44.96,318.29 L104,262.22 L319.18,262.22 C319.12,288.72 300.81,314.91 264.13,319.81 L239.67,319.81 Z" fill="none" stroke="currentColor" stroke-width="1.5"/><path d="M44.96,318.29 C12.72,306.17 3.26,288.2 0,262.22 L105,262.22 Z" fill="none" stroke="currentColor" stroke-width="1.5"/><path d="M0,233.18 L0,169.39 L198.55,169.39 L132.7,233.18 Z" fill="none" stroke="currentColor" stroke-width="1.5"/><path d="M319.18,233.18 L131.7,233.18 L197.55,169.39 L319.18,169.39 Z" fill="none" stroke="currentColor" stroke-width="1.5"/><path d="M319.18,140.6 L223.54,140.6 L287.22,77.22 L319.18,77.22 Z" fill="none" stroke="currentColor" stroke-width="1.5"/><path d="M224.54,140.6 L0,140.6 L0,77.22 L288.22,77.22 Z" fill="none" stroke="currentColor" stroke-width="1.5"/><path d="M319.18,48.68 L0,48.68 C4.27,27.67 25.61,0 58.42,0 L257.27,0 C289.97,0 313.82,20.21 319.18,48.68 Z" fill="none" stroke="currentColor" stroke-width="1.5"/></svg>