<svg xmlns="http://www.w3.org/2000/svg" viewBox="0 0 426.45 198.13" width="24" height="24"><path d="M52.49,86.86 L32.34,78.48 C23.72,75 18.96,62.2 22.27,50.06 C25.31,41.38 36.93,32.19 50.7,36.19 L70.43,44.53 C66.08,38.16 58.67,30.04 43.85,28.97 C23.71,29.37 14.37,48.83 14.45,57.99 C16.15,78.9 33.02,91.48 52.49,86.86 Z M250.69,168.09 C255.13,176.84 265.92,184.3 279.61,183.59 C297.07,182.13 305.86,166.53 306.14,154.51 C305.72,135.11 289.69,120.83 267.47,125.43 L287.6,133.89 C299.8,139.94 304.06,155.92 294.79,168.25 C288.03,176.05 278.26,179.27 269.39,175.76 Z M367.49,88.36 C351.01,88.36 337.45,74.89 337.45,58.16 C337.45,41.67 351.96,28.28 367.49,28.28 C382.23,28.28 397.69,40.86 397.69,58.48 C397.69,71.43 387.86,88.36 367.49,88.36 Z M367.97,96.03 C385.65,96.03 405.04,80.83 405.04,58.8 C405.04,34.35 383.98,20.93 367.49,20.93 C352.41,20.93 330.42,33.94 330.42,58.96 C330.42,80.97 350.96,96.03 367.97,96.03 Z M319.88,149.55 C322.02,181.16 298.83,198.13 276.58,198.13 C256.57,198.13 236.98,183.87 233.6,161.22 L70.3,93.79 C64.37,98.57 54.28,102.58 43.94,102.58 C20.27,102.58 0,83.06 0,58 C0,32.76 21.7,14.22 43.46,14.22 C69.29,14.22 85.23,34.63 87.56,51.45 L250.85,119.03 C256.5,113.11 265.98,110.87 273.54,110.73 L309.01,61.83 C307.1,29.19 331.67,0 368.61,0 C402.57,0 426.45,28.07 426.45,58.48 C426.45,86.21 404.15,119.8 362.7,116.96 Z" fill="none" stroke="currentColor" stroke-width="1.5"/></svg>