<svg xmlns="http://www.w3.org/2000/svg" viewBox="0 0 334.54 337.62" width="24" height="24"><path d="M140.52,334.18 L140.52,322.91 C142.75,308.81 178.62,235.36 193.16,182.95 C196.93,171.11 199.14,165.71 198.62,151.18 C197.59,134.75 194.53,104.56 191.59,78.56 C174.83,77.56 163.46,77.6 147.19,75.29 C136.23,71.82 139.45,61.94 143.07,57.69 C148.06,46.25 156.85,38.93 166.31,30.63 C172.21,24.41 175.22,21.39 177.26,16.3 C178.97,12.71 181.82,10.47 187.15,11.03 C190.93,12.45 192.32,13.87 194.06,15.29 C197.12,19.11 196.87,23.38 194.38,25.47 C189.54,29.95 185.18,29.79 181.03,33.63 C175.21,39.97 168.17,45.99 164.95,51.41 C161.95,57.07 164.2,58.32 168.11,57.74 C172.45,56.83 174.91,55.45 177.61,54.13 C182.67,51.27 187.16,51.6 191.16,51.41 C202.22,52.82 206.86,55.72 211.5,51.87 C211.78,45.97 214.3,41.76 213.57,36.24 C210.04,29.61 208.02,22.39 208.73,14.06 C209.46,7.17 215.39,0.46 225.08,0 C234.53,0.19 238.81,4.48 240.87,9.39 C244.43,20.15 243.42,28.69 237.68,36.77 C237.82,42.21 237.05,46.3 236.36,50.51 C242.58,53.86 248.57,57.51 253.72,62.26 C257.83,66.89 259.22,67.89 266.05,68.35 C272.3,68.76 275.81,69.26 280.78,68.77 C283.87,68.32 285.5,67.35 285.61,62.95 C285.79,56.99 287.05,52.55 285.4,46.34 C279.71,44.53 277.17,41.9 278.78,34.35 C280.56,28.49 284.47,26.1 288.78,26.11 C293.72,26.39 296.93,28.25 299.17,32.89 C300.92,36.99 298.31,41.67 298.37,47.03 L299.33,71.64 C299.19,78.69 297.2,81.84 291.67,84.33 C282.35,87.78 272.29,91.17 253.34,93.79 L252.62,97.51 L260.31,129.14 C262.8,137.16 263.39,143.96 263.02,147.67 C262.34,163.34 264.71,166.09 268.44,173.43 C282.77,196.85 288.6,210.18 293.3,223.14 C299.16,237.5 301.56,253.5 302.36,269.35 C303.62,283.24 307.34,313.99 316.8,318.98 C324.53,322.91 329.98,326.83 334.31,330.76 L334.54,337.54 C315.31,337.62 301.56,336.92 293.69,334.83 C290.19,333.83 288.14,332.51 286.35,325.96 C283.31,311.6 282.39,301.27 278.73,289.95 C277.39,284.76 272.96,273.88 271.34,267.94 C268.22,258.06 266.73,251.55 263.76,239.84 C260.42,229.51 254.44,213.11 244.3,206.82 C237.87,202.64 229.41,198.57 223.67,207.22 C214.31,219.47 207,232.34 199.72,245.21 C188.05,266.45 176.12,288.94 163.6,314.43 L163.46,334.48 Z" fill="none" stroke="currentColor" stroke-width="1.5"/><path d="M15.21,275.22 C27.99,283.58 39.57,290.67 63.17,296.47 C90.77,302.84 109.85,296.08 121.36,280.16 C133.89,260.54 140.72,240.71 133.34,223.86 C123.16,202.43 109.05,196.68 88.28,187.28 C72.53,180.35 57.83,175.53 39.71,163.89 C24.16,153.78 8.12,128.16 11.3,94.8 C13.24,72.68 27.57,39.79 59.65,27.91 C86.72,19.33 131.61,22.07 157.99,38.71 L145.68,70.34 C131.5,63.57 117.13,57.33 100.86,56.02 C85.75,54.48 72.88,55.38 61.81,65.24 C54.12,72.15 46.91,88.41 47,101.13 C47.24,120.66 57.78,129.66 77.28,141.35 C102.76,156.39 110.72,155.19 135.55,168.81 C147.16,175.06 165.86,194 172.69,214.59 C177.19,228.5 182.36,253.18 169.02,282.35 C156.35,311.06 128.92,329.04 96.55,332.72 C60.39,336.72 30.32,326.25 0,309.01 Z" fill="none" stroke="currentColor" stroke-width="1.5"/></svg>