<svg xmlns="http://www.w3.org/2000/svg" viewBox="0 0 382.39 382.31" width="24" height="24"><path d="M382.39,356.85 C382.39,370.6 371.59,382.31 360.1,382.31 L208.58,382.31 L198.28,76.56 L204.61,76.56 L382.39,253 Z" fill="none" stroke="currentColor" stroke-width="1.5"/><path d="M208.58,382.31 L185.68,310.27 L273.99,310.27 Z" fill="none" stroke="currentColor" stroke-width="1.5"/><path d="M382.39,253 L204.61,76.56 L355.79,76.56 C372.28,76.56 382.39,89.98 382.39,103.76 Z" fill="none" stroke="currentColor" stroke-width="1.5"/><path d="M24.7,310.27 C9.73,310.27 0,295.89 0,285.19 L0,25.42 C0,13.18 11.81,0 24.11,0 L173.43,0 L273.99,310.27 Z" fill="none" stroke="currentColor" stroke-width="1.5"/><path d="M227.61,167.32 L263.67,167.32 L263.61,143.39 L286.32,143.39 L286.38,167.32 L358.29,167.32 L358.29,181.88 L326.83,181.88 C321.38,202.6 309.03,223.4 294.63,241.49 L339.14,286 L327.62,297.86 L282.6,252.69 L262.05,273.39 L256.41,255.91 L271.37,241.27 C256.59,224.42 250.32,212.88 244.15,199.98 L263.25,199.98 C269.03,211.1 276.13,220.98 282.9,228.67 C295.6,213.79 304.62,198.46 309.43,181.88 L232.29,181.88 Z" fill="none" stroke="currentColor" stroke-width="1.5"/><path d="M107.05,144.08 L163.6,144.08 C167.04,161.51 163.89,178.1 155.14,191.4 C144.74,206.91 122.25,220.43 91.71,213.47 C68.21,207.01 47.2,184.29 47.2,155.73 C47.2,126.65 67.53,100.01 101.88,95.29 C123.35,93.44 136.9,101.81 147.83,111.01 L131.46,126.46 C125.95,121.43 118.3,115.02 100.75,117.58 C85.78,120.15 69.73,134.31 69.73,156.28 C69.73,176.92 88.39,193.58 106.49,193.58 C131.25,193.58 141.74,176.29 141.98,164.66 L107.05,164.66 Z" fill="none" stroke="currentColor" stroke-width="1.5"/></svg>