<svg xmlns="http://www.w3.org/2000/svg" viewBox="0 0 203.39 325.67" width="24" height="24"><path d="M152.26,268.09 C174.63,267.43 188.63,259.33 203.23,251.79 L203.39,303.08 C176.39,317.45 143.28,325.67 105.76,319.22 C83.46,315.29 60.51,302.41 50.38,282.06 C45.89,273.5 43.74,263.86 43.74,252.11 L43.74,132.41 L0,132.41 L0,86.05 C28.48,77.15 41.48,67.01 52.96,49.82 C62.03,36.24 67.07,19.56 68.95,0.19 L115.38,0 L115.38,73.99 L189.5,73.99 L189.5,132.41 L115.38,132.41 L115.38,236.43 C114.97,244.69 117.93,251 122.21,255.71 C130.25,266.09 143.32,267.79 152.26,268.09 Z" fill="none" stroke="currentColor" stroke-width="1.5"/></svg>