<svg xmlns="http://www.w3.org/2000/svg" viewBox="0 0 323.62 191.46" width="24" height="24"><path d="M50.63,162.78 C48.67,161.3 46.82,157.01 54.24,150.07 C79.73,127.3 154.94,88.35 175.28,78.91 C125.61,96.95 52.66,127.11 23.89,129.18 C16.4,129.87 12.65,128.33 10.01,122.5 C0,96.79 5.75,77.81 17.45,59.47 C34.73,32.55 87.21,7.85 139.2,4.05 C191.06,0 243.59,10.76 280.6,38.84 C313.35,64.59 323.62,96.78 305.77,128.06 C290.05,159.68 229.91,191.46 171.87,191.46 C131.78,191.46 83.63,187.18 50.63,162.78 Z" fill="none" stroke="currentColor" stroke-width="1.5"/></svg>