<svg xmlns="http://www.w3.org/2000/svg" viewBox="0 0 386.96 426.09" width="24" height="24"><path d="M93.83,426.09 L93.55,343.67 C83.86,337.59 66.8,331.43 57.36,324.87 C31.37,310.42 9.99,276.52 5.3,222.89 C2.68,192.65 0,137.48 16.57,88 C33.76,42.83 74.62,18.53 133.61,8.91 C188.08,0 246.34,5.74 293.39,18.49 C333.58,31.72 366.18,54.91 375.67,108.37 C386.96,158.74 384.13,219.31 374.87,253.37 C359.88,310.77 339.53,325.38 297.78,339.65 C272.34,348.67 216.58,356.43 184.14,353.43 C167.19,350.91 159.88,356.94 151.98,364.61 C116.41,399.23 110.76,416.87 93.83,426.09 Z" fill="none" stroke="currentColor" stroke-width="1.5"/><path d="M246.79,308.47 C257.87,312.49 263.91,312.44 274.61,307.67 C284.8,303.14 294.09,295.33 302.01,282.53 C308.76,270.92 307.79,263.4 299.62,254.05 C289.68,245.63 272.56,231.91 259.03,224.21 C244.79,216.51 232.07,221.19 224.88,231.6 C218.9,242.76 210.43,245.66 194.72,238.39 C161.84,221.69 148.19,202.94 138.4,181.07 C132.56,168.42 136.86,155.97 144.79,151.91 C155.91,144.74 162.34,137.4 156.98,124.75 C147.4,106.08 136.26,90.95 120.43,75.61 C112.44,69.97 104.23,71.31 91.67,76.41 C71.55,87.36 69.13,99.7 67.5,110.37 C65.64,129.06 84.15,161.25 103.84,193.52 C124.98,224.52 151.24,250.14 171.09,265.04 C195.35,283.2 218.39,295.63 246.79,308.47 Z M234.47,164.89 C235.08,170.03 238.43,172.17 241.26,172.08 C243.07,172.05 246.22,169.83 246.65,166.69 C248.63,143.99 226.1,124.4 208.27,126.46 C204.64,126.81 202.4,129.54 202.31,133.51 C202.51,136.61 204.54,137.81 207.43,138.28 C218.41,139.78 232.36,143.76 234.47,164.89 Z M262.91,176.37 C263.58,179.04 265.8,181.18 268.31,181.18 C271.28,181.18 273.96,179.45 274.42,177.71 C275.66,150.66 268.38,134.69 249.75,116.26 C238.03,105.8 221.51,98.89 198.62,96.68 C195.41,97.41 194.09,99.82 193.53,102.38 C192.87,104.45 194.13,107.89 197.02,108.67 C222.52,112.54 234.42,119.09 242.76,125.84 C255.05,135.38 262.91,158.91 262.91,176.37 Z M292.54,187.66 C292.54,190.22 295.62,192.2 298.08,192.2 C300.69,192.2 303.67,190.48 303.67,188.26 C305.81,162.38 298.82,131.53 273.13,103.06 C246.18,76.92 220.85,68.55 189.53,68.21 C186.74,68.78 185.07,71.64 185.07,73.81 C185.07,77.13 186.04,79.12 189.36,79.63 C219.88,83.07 246.21,92.21 265.03,111.59 C286.57,135.73 289.78,161.67 292.54,187.66 Z" fill="none" stroke="currentColor" stroke-width="1.5"/></svg>