<svg xmlns="http://www.w3.org/2000/svg" viewBox="0 0 409.87 106.03" width="24" height="24"><path d="M155.74,50.11 C150.48,46.46 143.23,43.72 137.33,43.72 C124.93,43.72 113.92,52.36 113.92,68.8 C113.92,84.69 125.55,93.57 137.89,93.57 C151.56,93.57 161.04,82.07 161.04,65.54 L161.04,0 L174.15,0 L174.15,66.72 C174.15,86.9 162.08,105.93 137.55,105.93 C113.55,105.93 100.86,86.1 100.86,68.21 C100.86,41.67 122.64,31.3 134.97,31.3 C140.89,31.3 147.97,32.18 155.74,36.41 Z M78.25,104.61 L78.25,32.84 L91.31,32.84 L91.31,104.61 Z M14.3,32.84 L35.35,88.62 L56.12,32.84 L70.39,32.84 L44.58,100.39 C43.15,103.72 40.94,106.03 34.88,106.03 C29.81,106.03 26.88,103.85 25.54,99.92 L0,32.84 Z" fill="none" stroke="currentColor" stroke-width="1.5"/><path d="M254.51,0 L254.51,65.65 C254.51,92.05 238.05,106.02 218.06,106.02 C194.49,106.02 181.07,87.78 181.07,66.73 C181.07,48.25 195.86,31.21 215.75,31.21 C224.29,31.21 231.59,33.71 236.03,36.49 L236.03,50.23 C232.48,47.67 224.42,43.84 218.14,43.84 C203.2,43.84 194.17,54.2 194.17,68.29 C194.17,84.17 205.34,93.49 218.1,93.49 C234.66,93.49 241.25,78.72 241.25,64.73 L241.25,0 Z M374.52,32.84 L387.4,32.84 L387.4,41.44 C393.39,32.06 399.58,31.43 409.87,31.38 L409.87,43.84 C399.53,43.3 387.4,47.42 387.4,70.04 L387.4,104.61 L374.52,104.61 Z M346.52,50.87 C338.39,42.08 325.81,42.44 318.08,46.87 C305.98,54.97 305.38,65.98 306.26,72.68 Z M367.25,65.69 C369.29,83.84 354.85,105.91 329.74,105.91 C308.08,105.91 292.27,88.28 292.27,68.6 C292.27,49.5 307.65,31.46 329.9,31.46 C346.11,31.46 358.94,41.28 364.57,54.46 L310.97,83.62 C314.14,88.24 320.35,92.97 329.9,93.53 C342.7,93.53 352.12,82.66 353.35,73.32 Z M267.45,104.61 L267.45,0 L280.75,0 L280.75,104.61 Z" fill="none" stroke="currentColor" stroke-width="1.5"/></svg>