<svg xmlns="http://www.w3.org/2000/svg" viewBox="0 0 351.68 200.14" width="24" height="24"><path d="M205.05,186.51 C205,192.27 202.92,198.27 192.24,199.22 L165.82,199.24 C129.12,196.51 99.72,178.52 75.42,148.94 C51.71,121.5 25.25,74.94 1.53,22.41 C0,18.99 0.67,14.15 1.98,12.92 C4.25,10.82 7.68,9.64 11.69,9.64 L60.16,9.19 C65.68,9.19 71.62,11.98 73.83,17.49 C93.8,62.8 109.21,84.34 119.27,94.14 C122.49,96.88 125.12,98.48 128.94,98.05 C132.98,97.29 135.5,91.37 136.23,86.52 C139.5,69.15 138.76,40.35 135.96,29.64 C134.22,22.75 129.12,16.95 118.69,15.2 C115.51,14.72 116.24,13.77 117.46,11.51 C119.92,7.74 124.09,4.42 133.2,2.28 C145.29,0.08 171.81,0 184.16,1.22 C192.83,2.23 198.23,3.62 201.67,7.61 C206.31,13.5 205.94,22.48 205.63,30.82 C204.99,44.54 204.59,59.95 204.55,77.88 C204.95,92.82 209.67,96.06 212.4,97.54 C216.7,99.24 224.07,92.08 228.9,86.3 C242.33,69.04 256.08,44.97 266.58,18.79 C268.74,13.93 270.18,9.83 278.22,9.87 L335.95,9.41 C345.04,9.23 348.38,12.42 349.05,13.59 C351.68,18.76 349.03,24.67 346.91,30.09 C338.68,49.6 317.91,74.1 300.59,97.2 C295.47,104.31 293.26,109.29 292.9,112.9 C292.75,116.75 294,119.81 300.98,127.42 C317.74,142.84 343.43,166.94 348.94,182.16 C351.53,190.05 349.42,192 348.36,193.18 C346.48,195.41 343.05,198.75 332.18,199.21 C306.98,199.41 292.88,199.74 284.91,200.14 C274.53,200.07 265.27,194.68 257.03,186.96 C248.9,179.27 241.19,168.88 234.04,161.88 C231.51,159.41 224.81,152.98 219.13,153.41 C215.76,153.61 210.87,157.39 208.28,164.42 C206.76,169.16 205.13,177.31 205.05,186.51 Z" fill="none" stroke="currentColor" stroke-width="1.5"/></svg>