<svg xmlns="http://www.w3.org/2000/svg" viewBox="0 0 413.23 224.43" width="24" height="24"><path d="M238.71,108.14 C231.8,90.14 224.06,70.63 209.01,49.4 C230,17.87 266.63,0.49 297.4,0.42 C317.28,15.46 330.36,37.82 340.03,60.38 C324.8,49.65 304.63,41.36 274.27,53.65 C251.61,64.71 238.91,87.76 238.71,108.14 Z M104.42,221.7 C77.37,197.85 64.94,171.07 58.97,145.75 C74.52,171.13 105.4,180.52 133.6,170.42 C152.83,163.31 173.63,142.48 173.63,118.53 C179.77,141.27 195.39,164.22 203.11,173.58 C185.11,201.53 148.85,224.43 104.42,221.7 Z M90.81,220.83 C54.5,213.72 0,180.85 0,108.3 C0,55.15 46.8,0 110.4,0 C163.22,0 198.32,35.26 211.23,59.89 L244.46,130.83 C260.43,175.71 302.77,181.03 330.1,168.54 C366.33,150.38 375.59,105.67 354.27,74.88 C346.25,39.07 327.66,15.45 310.81,0.23 C363.2,4.17 413.23,48.12 413.23,111.87 C413.23,174.16 358.12,222.86 303.9,222.86 C270.1,222.86 233.32,208.15 208.67,171.73 C196.99,153.05 185.22,135.22 175.29,98.38 C166.78,66.5 144.37,47.75 110.25,47.75 C81.86,47.75 47.92,70.28 47.92,113.81 C47.92,148.34 57.49,186.67 90.81,220.83 Z" fill="none" stroke="currentColor" stroke-width="1.5"/></svg>