<svg xmlns="http://www.w3.org/2000/svg" viewBox="0 0 349.6 189.69" width="24" height="24"><path d="M3.1,55.87 L3.1,0 L59.25,0 L59.25,55.87 Z" fill="none" stroke="currentColor" stroke-width="1.5"/><path d="M73.48,55.87 L73.48,0 L129.69,0 L129.69,55.87 Z" fill="none" stroke="currentColor" stroke-width="1.5"/><path d="M144.49,55.87 L144.49,0 L200.36,0 L200.36,55.87 Z" fill="none" stroke="currentColor" stroke-width="1.5"/><path d="M215.27,55.87 L215.27,0 L271.26,0 L271.26,55.87 Z" fill="none" stroke="currentColor" stroke-width="1.5"/><path d="M285.72,55.87 L285.72,0 L341.76,0 L341.76,55.87 Z" fill="none" stroke="currentColor" stroke-width="1.5"/><rect x="0" y="0" width="0" height="0" fill="none" stroke="currentColor"/><path d="M328.6,120.28 C319.12,122.2 313.54,122.85 305.83,127.92 C302.16,130.74 300.75,133.67 301.28,138.63 C302.28,144.09 305.35,146.78 311.81,146.84 C318.6,146.71 324.65,141.6 328.6,138.08 Z M330.9,159.3 C330.38,157.16 329.79,155.61 329.46,151.88 C326.84,154.12 320.42,157.64 315.32,159.23 C306.07,161.59 299.06,161.66 291.12,157.31 C288.51,155.29 282.26,149.02 282.49,137.73 C282.75,128.24 289.05,119.61 297.59,115.69 C309.46,110.63 320.13,108.64 328.6,107.78 L328.6,99.75 C328.62,94.62 324.59,90.99 315.88,90.92 C306.9,90.96 302.69,95.97 298.95,101.19 L286.56,91.6 C290.4,86.59 298.83,80.04 308.05,77.7 C315.32,75.97 326.79,77.48 334.86,80.45 C340.31,83.14 347.76,91.13 347.76,106.9 L347.76,148.12 L349.6,159.3 Z M246.54,176.08 C255.33,176.32 257.23,176.19 263.23,172.73 C269.28,168.93 267.83,165 263.87,162.18 C259.13,159.19 255.59,158.28 248.46,157.47 C241.57,156.87 234.85,157.21 230.88,161.94 C227.05,167.24 229.01,171.14 231.92,173.37 C235.43,175.57 240.23,175.61 246.54,176.08 Z M246.3,117.92 C255.26,117.92 259.8,110.99 259.8,104.5 C259.8,97.84 255.04,91.16 246.3,91.16 C236.6,91.25 231.76,98.35 231.76,104.93 C231.76,112.42 238.41,117.92 246.3,117.92 Z M226.77,126.23 C221.81,122.26 216.34,117.11 214.94,109.01 C213.96,101.26 215.51,94.01 222.85,85.45 C227.32,80.61 238.11,76.68 247.58,77.18 C256.52,77.86 262.25,80.62 266.19,84.53 C272.28,77.58 278.95,76.78 285.33,77.29 L285.33,90.04 C278.39,89.73 275.07,89.73 272.6,91.57 C276.04,96.84 278.54,102.84 276.5,112.49 C273.75,123.52 267.2,129.52 252.69,131.82 C247.02,132.7 240.47,130.67 234.16,133.26 C231.27,134.7 231.14,136.51 231.6,138.57 C232.47,140.91 234.46,141.82 240.15,142.85 C250.3,144.29 256.98,142.71 267.19,145.28 C276.16,147.71 283.27,152.27 284.41,160.06 C285.86,172.29 279.95,180.7 266.07,185.63 C254.1,189.69 238.44,189.43 224.65,185.19 C220.66,183.79 211.5,179.12 211.11,169.53 C210.89,163.77 215.09,154.69 227.28,154.63 C214.12,149.77 213.95,143.79 214.3,138.77 C214.92,134.53 221.74,128.5 226.77,126.23 Z M140.57,159.3 L140.57,78.46 L158.27,78.46 L158.12,87.76 C163.88,82.91 172.13,78.2 181.11,76.86 C185.24,76.38 195.13,77.84 199.96,82.67 C205.86,89.27 206.86,97.09 206.86,101.71 L206.86,159.3 L187.93,159.3 L187.93,101.47 C187.58,97.12 184.37,92.49 178.48,92.05 C173.48,91.78 164.51,94.62 159.72,101.26 L159.72,159.3 Z M109.95,120.47 C103.31,121.35 95.55,122.9 89.96,126.15 C84.66,129.49 82.28,132.19 82.55,137.5 C83.11,143.86 86.48,146.14 90.92,146.66 C95.99,146.98 102.51,144.21 109.95,137.63 Z M112.2,159.3 C111.24,156.39 110.9,154.19 110.57,151.92 C107.15,154.2 103.08,157.3 95.39,159.58 C86.35,161.97 76.89,160.53 72.1,157.11 C66.23,152.36 61.6,143.74 64.23,131.74 C65.79,124.95 74.13,116.27 86.12,112.81 C93.73,110.38 100.36,108.89 109.95,107.84 L109.95,99.87 C109.2,95.65 107.82,91.6 96.43,90.92 C86.8,92.13 83.99,96.74 80.13,100.83 L67.69,91.45 C71.19,87.35 72.94,83.56 88.23,77.95 C98.98,75.77 113.02,77.7 119.11,81.97 C127.03,87.53 128.98,99.21 128.98,104.1 L128.98,149.08 C128.98,152.89 129.56,155.95 130.46,159.3 Z M0,159.3 L24.05,117.2 L0.69,78.46 L22.2,78.46 L33.49,101.6 L45.24,78.46 L65.64,78.46 L42.89,117.5 L67.83,159.3 L47.53,159.3 L33.79,133.98 L20.45,159.3 Z" fill="none" stroke="currentColor" stroke-width="1.5"/></svg>