<svg xmlns="http://www.w3.org/2000/svg" viewBox="0 0 324.71 368.88" width="24" height="24"><path d="M9.16,263.75 C4.83,263.75 0,257.4 4.27,249.82 L62.02,146.06 L23.22,79.25 C20.39,74.79 22.34,62.03 29.06,62.03 L84.58,62.03 C91.04,62.03 93.36,66.39 96.16,71.18 L136.75,147.26 L80.06,254.06 C76.65,260.99 70.77,263.75 65.64,263.75 Z" fill="none" stroke="currentColor" stroke-width="1.5"/><path d="M211.36,368.88 C206.91,368.88 204.83,366.31 202.42,361.74 L123.86,223.69 L245.72,11.5 C250.13,4.68 255.67,0 263.13,0 L316.82,0 C324.71,0 324.32,6.39 322.09,10.39 L202.5,222.25 L279.73,362.08 C281.88,366.38 281.3,368.88 276.6,368.88 Z" fill="none" stroke="currentColor" stroke-width="1.5"/></svg>