<svg xmlns="http://www.w3.org/2000/svg" viewBox="0 0 317.28 415.23" width="24" height="24"><path d="M71.35,385.67 C58.07,374.88 56.04,360.08 68.31,343.49 L117.03,286.53 C130.39,271.89 142.5,270.59 154.03,275.39 C165.75,281.06 171.15,292.01 171.05,300.35 L168.97,384.23 C168.89,398.7 153.18,415.23 132.86,409.64 C107.07,405.07 80.94,393.03 71.35,385.67 Z M184.03,293.96 C180.26,285.67 180.8,273.98 189.03,264 C196.69,255.58 206.39,252.96 217.95,255.61 C246.97,265.46 279.13,275.45 299.83,284.9 C315.29,292.8 317.28,308.41 313.21,318.06 C306.05,337.99 283.32,365.88 269.29,376.3 C260.39,383.32 244.91,386.53 232.49,372.72 C217.07,352.56 199.67,323.88 184.03,293.96 Z M214.3,240.57 C198.61,243.32 187.45,239.24 180.16,227.49 C175.39,218.49 175.49,206.99 182.41,196.75 C197.97,174.58 213.91,152.97 230.08,131.71 C242.21,116.6 258.85,116.89 270.61,126.29 C290.27,144.48 306.07,169.69 311.18,184.03 C316.98,201.94 309.75,214.97 291.18,220.99 C275.66,226.4 240.47,234.91 214.3,240.57 Z M170.89,173.49 C171.18,191.89 164.49,205.74 150.6,208.32 C138.32,211.25 128.54,207.97 117.21,193.46 C92.59,152.42 65.15,109.83 36.73,68.12 C28.69,50.79 31.09,35.68 51.32,24.37 C59.92,19.79 105.6,7.29 124.9,4.37 C147.18,0 158.26,12.3 160.91,26.44 C165.3,75.1 167.62,122.19 170.89,173.49 Z M123.76,220.62 C133.96,227.98 139.07,236.85 136.54,248.26 C133.58,261.27 127.47,267.32 118.48,270.31 L42.27,294.92 C26.56,298.77 10.81,295.91 4.4,275.42 C0,262.29 0.61,228.38 5.04,206.4 C6.78,196.67 19.66,178.8 41.47,186.59 C55,191.54 111.61,211.7 123.76,220.62 Z" fill="none" stroke="currentColor" stroke-width="1.5"/><path d="M85.17,370.17 C96.83,376.76 116.67,384.36 134.94,389.03 C145.72,391.73 148.38,387.02 148.36,379.04 L149.96,302.27 C150.05,295 142.18,291.57 136.46,296.76 C118.04,316.65 95.69,342.46 84.05,357.47 C78.91,363.59 80.98,367.17 85.17,370.17 Z M247.75,358.35 C251.59,361.94 255.27,361.33 257.97,358.75 C270.81,347.23 289.27,322.73 293.44,312.57 C294.79,307.87 293.96,304.8 288.97,302.75 L213.44,276.24 C205.14,273.79 200.35,281.69 203.94,287.92 C215.24,306.78 232.91,337.53 247.75,358.35 Z M286.25,200.65 C293.98,197.94 293.55,193.96 291.51,189.6 C285.9,177.55 268.52,152.87 258.05,142.79 C253.1,138.22 248.86,142.68 246.06,145.76 C228.8,167.71 214.06,188.05 200.08,207.9 C193.34,217.46 202.13,222.4 209.04,220.76 C225.42,216.96 267.33,206.67 286.25,200.65 Z M140.76,32.5 C140.13,25.46 136.88,23.19 129.89,24.72 C112.35,27.92 78.98,36.54 62.45,42.6 C52.6,45.85 52.2,52.99 54.89,57.49 C102.22,125.43 110.87,144.48 135.36,182.75 C139.26,187.42 142.84,189.68 145.2,188.58 C147.96,187.1 150.02,182.38 149.92,176.85 C147.61,130.98 144.86,83.75 140.76,32.5 Z M108.9,251.38 C113.89,249.71 115.63,248.06 116.09,245.39 C116.68,241.68 115.38,239.15 110.18,236.12 C86.25,225.85 51.83,211.96 36.76,206.96 C31.28,205.15 26.03,205.3 24.61,213.11 C21.48,230.93 21.67,253.95 23.62,266.78 C25.52,277.83 30.74,276.3 37.19,274.28 Z" fill="none" stroke="currentColor" stroke-width="1.5"/></svg>