<svg xmlns="http://www.w3.org/2000/svg" viewBox="0 0 785.75 328.73" width="24" height="24"><path d="M296.12,263.81 L268.33,263.81 L268.33,247.31 C259.84,258.76 244.8,267.03 234.54,266.78 C222.74,266.78 214.17,259.62 214.17,237.96 L214.17,110.59 L242.05,110.59 L242.05,227.84 C241.92,242.45 250.94,244.38 258.38,238.31 C262.65,234.36 265.8,230.95 268.33,227.99 L268.33,110.59 L296.12,110.59 Z M149.77,241.34 C160.23,241.34 164.16,231.74 164.16,220.42 L164.16,153.26 C164.16,145.71 162.52,132.57 150.03,132.57 C138.85,132.57 135.46,142.6 135.46,154.76 L135.46,218.26 C135.46,239.4 144.93,241.34 149.77,241.34 Z M149.23,266.87 C127.73,266.87 108.05,250.61 108.05,221.39 L108.05,152.73 C108.05,121.14 130.37,106.99 150.06,106.99 C179.54,106.99 191.75,130.02 191.75,157.32 L191.75,219.64 C191.75,254.01 170.17,266.87 149.23,266.87 Z M39.07,263.81 L39.07,181.53 C35.66,155.64 15.97,104.23 0,57.76 L32.77,57.76 L55.08,138.47 L76.38,57.76 L107.85,57.76 L70.12,181.4 L70.12,263.81 Z" fill="none" stroke="currentColor" stroke-width="1.5"/><rect x="0" y="0" width="0" height="0" fill="none" stroke="currentColor"/><path d="M378.23,319.12 C350.89,315.68 331.79,295.46 327.04,266.69 C317.94,227.72 318.89,107.67 326.6,62.36 C332.45,37.63 344.78,17.07 379.11,10.24 C477.19,0 667.04,2.95 727.38,10.46 C742.53,12.65 765.47,26.25 773.68,52.62 C785.75,100.28 785.32,231.85 774.47,272.81 C769.54,292.85 758.29,310.13 730.66,318.31 C680.71,328.58 450.96,328.73 378.23,319.12 Z" fill="none" stroke="currentColor" stroke-width="1.5"/><path d="M716.96,169.49 L716.96,152.4 C716.96,144.09 714.09,134.56 703.94,134.56 C692.5,134.56 690.18,146.65 690.18,152.14 L690.18,169.49 Z M745.11,210.86 C745.11,220.3 745.38,230.58 743.05,238.07 C737.54,256.38 722.26,265.57 703.86,265.25 C681.29,265.25 662.37,250.89 662.37,214.02 L662.33,160.62 C662.33,124.98 679.95,109.46 703.49,109.46 C736.11,109.46 745,135.99 745,153.83 L745,191.98 L690.18,192.17 L690.18,221.26 C690.18,236.15 698.03,240.33 703.36,240.33 C711.37,240.18 714.65,235.83 716.2,229.96 C717,226.25 716.91,218.12 717.01,210.86 Z M588.28,233.17 C591.64,237.86 597.76,240.27 602.09,240.27 C609.42,240.27 613.74,232.38 613.74,220.54 L613.74,151.33 C613.53,144.89 611.01,134.43 602.43,134.13 C596.31,134.32 591.96,137.26 588.28,140.65 Z M560.89,263.81 L560.89,57.76 L588.28,57.76 L588.28,126.2 C594.77,117.7 604.07,109.26 616.26,109.26 C632.53,109.26 639.19,122.08 640.13,135.19 C642.09,157.53 640.97,194.58 641.16,225.35 C641.16,247.52 637.08,265.27 616.44,265.32 C605.71,265.32 596.63,259.36 588.17,248.57 L588.14,263.81 Z M509.07,263.81 L509.07,246.14 C499.83,257.84 494.49,260.73 487.2,263.34 C469.51,269.49 458.18,263.58 457.7,235.57 L457.7,110.59 L485.24,110.59 L485.24,230.97 C485.04,241.04 492.49,241.63 497.53,238.7 C501.35,236.21 505.24,232.91 509.07,227.97 L509.07,110.59 L536.97,110.59 L536.97,263.81 Z M390.26,263.81 L390.26,88.29 L357.96,88.1 L357.96,57.76 L454.2,57.76 L454.2,88.38 L421.12,87.91 L421.12,263.81 Z" fill="none" stroke="currentColor" stroke-width="1.5"/></svg>