<svg xmlns="http://www.w3.org/2000/svg" viewBox="0 0 50.8 99.97" width="24" height="24"><path d="M48.8,95.64 L48.8,97.98 L2,97.98 L2,95.64 C2,94.81 2.67,94.14 3.5,94.14 L23.4,94.14 C23.95,94.14 24.4,93.69 24.4,93.14 L24.4,17.1 C24.4,16.55 24.85,16.1 25.4,16.1 C25.51,16.1 25.62,16.12 25.72,16.15 C25.73,16.15 25.74,16.16 25.76,16.16 C25.76,16.16 25.76,16.16 25.76,16.16 C25.89,16.21 26.01,16.29 26.1,16.38 C26.29,16.57 26.39,16.82 26.39,17.09 L26.39,93.12 C26.39,93.67 26.84,94.12 27.39,94.12 L47.29,94.12 C48.13,94.14 48.8,94.81 48.8,95.64 Z" fill="none" stroke="currentColor" stroke-width="1.5"/><rect x="0" y="0" width="0" height="0" fill="none" stroke="currentColor"/><path d="M47.3,92.14 L43.04,92.14 L28.4,35.01 L28.4,17.1 C28.4,16.3 28.09,15.55 27.52,14.98 L27.52,14.98 C27.33,14.79 27.11,14.62 26.87,14.49 C26.75,14.42 26.63,14.36 26.5,14.31 C26.48,14.3 26.47,14.3 26.45,14.29 C26.11,14.16 25.76,14.1 25.4,14.1 C24.99,14.1 24.59,14.19 24.23,14.34 C23.16,14.8 22.4,15.86 22.4,17.1 L22.4,35.01 L19.9,44.78 L16.21,59.16 L7.82,91.89 L7.76,92.14 L3.5,92.14 C1.57,92.14 0,93.71 0,95.64 L0,98.98 C0,99.23 0.09,99.46 0.24,99.63 L0.34,99.73 C0.51,99.88 0.74,99.97 0.99,99.97 L49.79,99.97 C50.34,99.97 50.79,99.52 50.79,98.97 L50.79,95.63 C50.8,93.71 49.23,92.14 47.3,92.14 Z M28.4,43.07 L29.65,47.93 L28.4,47.93 L28.4,43.07 Z M28.4,49.92 L30.16,49.92 L32.34,58.41 L28.4,58.41 L28.4,49.92 Z M28.4,60.41 L32.85,60.41 L35.03,68.9 L28.4,68.9 L28.4,60.41 Z M28.4,70.9 L35.54,70.9 L37.72,79.39 L28.4,79.39 L28.4,70.9 Z M28.4,81.39 L38.22,81.39 L40.98,92.14 L28.4,92.14 L28.4,81.39 Z M22.4,43.06 L22.4,47.92 L21.15,47.92 L22.4,43.06 Z M20.64,49.92 L22.4,49.92 L22.4,58.41 L18.47,58.41 L20.64,49.92 Z M17.95,60.41 L22.4,60.41 L22.4,68.9 L15.78,68.9 L17.95,60.41 Z M15.26,70.9 L22.4,70.9 L22.4,79.39 L13.09,79.39 L15.26,70.9 Z M12.57,81.39 L22.39,81.39 L22.39,92.14 L9.82,92.14 L12.57,81.39 Z M48.8,97.98 L2,97.98 L2,95.64 C2,94.81 2.67,94.14 3.5,94.14 L23.4,94.14 C23.95,94.14 24.4,93.69 24.4,93.14 L24.4,17.1 C24.4,16.55 24.85,16.1 25.4,16.1 C25.51,16.1 25.62,16.12 25.72,16.15 C25.73,16.15 25.74,16.16 25.76,16.16 C25.76,16.16 25.76,16.16 25.76,16.16 C25.89,16.21 26.01,16.29 26.1,16.38 C26.29,16.57 26.39,16.82 26.39,17.09 L26.39,93.12 C26.39,93.67 26.84,94.12 27.39,94.12 L47.29,94.12 C48.12,94.12 48.79,94.79 48.79,95.62 L48.79,97.98 Z M38.9,16.94 C38.9,19.54 38.17,22.03 36.81,24.17 C36.81,24.17 36.81,24.17 36.81,24.17 C36.29,25 35.67,25.77 34.96,26.48 C34.76,26.68 34.51,26.77 34.25,26.77 C33.99,26.77 33.74,26.67 33.54,26.48 C33.15,26.09 33.15,25.46 33.54,25.07 C34.25,24.36 34.86,23.57 35.35,22.72 C35.35,22.72 35.35,22.72 35.35,22.72 C36.36,20.99 36.9,19.01 36.9,16.95 C36.9,13.88 35.71,11 33.54,8.83 C33.31,8.6 33.22,8.29 33.26,7.99 L33.26,7.99 L33.26,7.99 C33.29,7.78 33.38,7.57 33.54,7.41 C33.7,7.25 33.91,7.15 34.12,7.13 L34.12,7.13 L34.12,7.13 C34.38,7.1 34.66,7.17 34.88,7.34 C34.89,7.35 34.91,7.36 34.92,7.38 C34.93,7.39 34.95,7.4 34.96,7.42 C35,7.44 35.04,7.49 35.09,7.53 C35.13,7.58 35.18,7.62 35.22,7.67 C37.59,10.18 38.9,13.46 38.9,16.94 Z M17.27,25.08 C17.09,24.9 16.91,24.71 16.74,24.52 C16.74,24.52 16.73,24.51 16.73,24.51 L16.73,24.51 C14.9,22.41 13.9,19.76 13.9,16.95 C13.9,13.87 15.1,10.98 17.28,8.81 C17.66,8.43 17.67,7.82 17.32,7.43 L17.3,7.41 C17.29,7.4 17.28,7.39 17.28,7.38 C17.27,7.37 17.26,7.36 17.25,7.36 L17.24,7.35 C16.85,7 16.24,7.01 15.86,7.38 C13.31,9.93 11.9,13.32 11.9,16.94 C11.9,20.28 13.11,23.44 15.32,25.92 L15.32,25.92 C15.32,25.92 15.33,25.93 15.33,25.94 C15.5,26.13 15.68,26.32 15.86,26.5 C16.06,26.7 16.31,26.79 16.57,26.79 C16.83,26.79 17.08,26.69 17.28,26.5 C17.67,26.1 17.67,25.47 17.27,25.08 Z M43.89,16.34 L43.89,16.34 C43.72,11.88 41.98,7.71 38.94,4.45 C38.77,4.27 38.6,4.1 38.43,3.92 C38.4,3.89 38.36,3.85 38.32,3.83 C38.11,3.67 37.85,3.61 37.6,3.64 L37.6,3.64 L37.6,3.64 C37.39,3.67 37.18,3.76 37.02,3.93 C36.85,4.09 36.75,4.3 36.73,4.5 L36.73,4.5 C36.69,4.8 36.79,5.11 37.02,5.34 C39.45,7.75 41.04,10.78 41.64,14.07 C41.64,14.07 41.64,14.07 41.64,14.08 C41.82,15.05 41.91,16.05 41.91,17.06 C41.91,20.43 40.9,23.65 39.03,26.38 C39.03,26.38 39.03,26.38 39.03,26.38 C38.48,27.19 37.85,27.95 37.14,28.66 C36.75,29.05 36.75,29.69 37.15,30.07 C37.35,30.26 37.6,30.36 37.85,30.36 C38.11,30.36 38.37,30.26 38.56,30.06 C39.26,29.35 39.89,28.6 40.46,27.81 C40.46,27.81 40.46,27.81 40.46,27.81 C42.7,24.69 43.9,20.96 43.9,17.06 C43.9,16.82 43.89,16.58 43.89,16.34 Z M13.15,28.12 C13.15,28.12 13.14,28.11 13.14,28.1 L13.14,28.1 C10.4,25.07 8.9,21.18 8.9,17.06 C8.9,12.61 10.64,8.45 13.8,5.33 C14.19,4.94 14.2,4.32 13.82,3.93 L13.77,3.88 C13.38,3.52 12.77,3.53 12.39,3.91 C8.85,7.41 6.89,12.08 6.89,17.07 C6.89,21.72 8.59,26.11 11.71,29.52 L11.71,29.52 C11.71,29.52 11.72,29.53 11.72,29.54 C11.89,29.73 12.07,29.91 12.25,30.1 C12.45,30.3 12.7,30.4 12.96,30.4 C13.21,30.4 13.47,30.3 13.66,30.11 C14.05,29.72 14.06,29.09 13.67,28.7 C13.5,28.49 13.32,28.31 13.15,28.12 Z M9.62,31.65 C9.62,31.65 9.61,31.64 9.61,31.64 L9.61,31.64 C5.94,27.66 3.92,22.52 3.92,17.07 C3.92,11.3 6.18,5.87 10.28,1.81 C10.67,1.42 10.68,0.8 10.3,0.41 L10.25,0.36 C9.86,0 9.25,0.01 8.87,0.39 C4.38,4.83 1.92,10.75 1.92,17.06 C1.92,23.04 4.14,28.68 8.19,33.04 C8.19,33.04 8.19,33.04 8.19,33.04 C8.19,33.05 8.2,33.05 8.2,33.06 C8.37,33.25 8.55,33.43 8.73,33.61 C8.93,33.81 9.18,33.91 9.44,33.91 C9.69,33.91 9.95,33.81 10.14,33.62 C10.53,33.23 10.53,32.6 10.15,32.21 C9.97,32.02 9.79,31.84 9.62,31.65 Z M48.75,14.27 C48.75,14.26 48.75,14.26 48.75,14.25 C48.13,9.01 45.78,4.16 41.97,0.39 C41.74,0.16 41.43,0.07 41.14,0.11 C40.93,0.14 40.72,0.23 40.56,0.4 C40.4,0.56 40.31,0.76 40.28,0.97 C40.24,1.27 40.34,1.58 40.57,1.81 C43.38,4.6 45.33,8.03 46.27,11.77 C46.27,11.78 46.27,11.79 46.28,11.8 C46.71,13.5 46.93,15.27 46.93,17.08 C46.93,17.82 46.89,18.55 46.82,19.27 C46.82,19.27 46.82,19.27 46.82,19.27 C46.43,23.18 44.98,26.86 42.63,29.99 C42.04,30.77 41.4,31.52 40.7,32.22 C40.31,32.61 40.31,33.24 40.71,33.63 C40.9,33.82 41.16,33.92 41.41,33.92 C41.67,33.92 41.92,33.82 42.12,33.62 C42.82,32.92 43.46,32.18 44.06,31.41 C46.41,28.37 47.96,24.82 48.6,21.04 C48.82,19.74 48.93,18.41 48.93,17.07 C48.92,16.12 48.86,15.19 48.75,14.27 Z" fill="none" stroke="currentColor" stroke-width="1.5"/></svg>