<svg xmlns="http://www.w3.org/2000/svg" viewBox="0 0 140.0 140.0" width="24" height="24"><path d="M140,67.11 L140,135 C140,137.76 137.76,140 135,140 L67.11,140 L46.05,118.94 L46.05,118.94 C47.32,120.21 49.08,121 51.01,121 L88.97,121 C92.84,121 95.99,117.85 95.99,113.98 L95.99,61.95 C96.53,61.93 96.96,61.49 96.96,60.95 L96.96,55.67 C96.96,55.13 96.53,54.69 95.99,54.67 L95.99,53.47 C96.53,53.45 96.96,53.01 96.96,52.47 L96.96,36.21 C96.96,35.67 96.53,35.23 95.99,35.21 L95.99,26.02 C95.99,24.08 95.2,22.33 93.93,21.06 L93.93,21.06 L140,67.11 Z" fill="none" stroke="currentColor" stroke-width="1.5"/></svg>