<svg xmlns="http://www.w3.org/2000/svg" viewBox="0 0 140.0 140.0" width="24" height="24"><path d="M36.22,57.21 L34.63,57.21 C33.92,57.81 33.01,58.15 32.07,58.15 C31.44,58.15 30.84,58 30.31,57.74 C29.97,57.57 29.65,57.35 29.37,57.09 L36.21,63.93 L36.21,57.21 Z" fill="none" stroke="currentColor" stroke-width="1.5"/><path d="M140,57.18 L140,135 C140,137.76 137.76,140 135,140 L52.64,140 L29.05,116.41 C29.68,117.01 30.53,117.38 31.46,117.38 L36.73,117.38 L36.73,119.02 C36.73,119.57 37.18,120.02 37.73,120.02 L50.26,120.02 C50.81,120.02 51.26,119.57 51.26,119.02 L51.26,117.38 L88.73,117.38 L88.73,119.02 C88.73,119.57 89.18,120.02 89.73,120.02 L102.26,120.02 C102.81,120.02 103.26,119.57 103.26,119.02 L103.26,117.38 L108.53,117.38 C110.46,117.38 112.03,115.81 112.03,113.88 L112.03,99.34 C112.03,97.41 110.46,95.84 108.53,95.84 L44.85,95.84 L36.52,87.51 C36.7,87.69 36.95,87.8 37.23,87.8 L102.73,87.8 C103.28,87.8 103.73,87.35 103.73,86.8 L103.73,57.2 L105.46,57.2 C106.17,57.8 107.08,58.14 108.02,58.14 C110.19,58.14 111.97,56.37 111.97,54.2 C111.97,52.02 110.2,50.25 108.02,50.25 C107.08,50.25 106.17,50.59 105.46,51.2 L103.73,51.2 L103.73,21.3 C103.73,21.06 103.64,20.84 103.5,20.66 L140,57.18 Z" fill="none" stroke="currentColor" stroke-width="1.5"/></svg>