<svg xmlns="http://www.w3.org/2000/svg" viewBox="0 0 100.04 72.79" width="24" height="24"><path d="M91.1,17.61 L52.35,29 L49.35,29.88 L24.52,37.18 L15.77,32.46 L15.73,32.44 C15.73,32.44 15.73,32.44 15.72,32.44 L15.06,32.09 L3.65,25.92 L24.32,19.84 L83.51,2.44 C85.1,1.97 86.77,2.89 87.23,4.47 L91.1,17.61 Z M91.75,30.48 L58.8,40.17 L56.83,40.75 L52.36,42.07 L50.39,42.65 L24.46,50.27 C23.69,50.5 22.88,50.41 22.18,50.03 C21.48,49.65 20.97,49.01 20.74,48.24 L16.94,35.36 L23.94,39.14 C24.17,39.26 24.44,39.29 24.7,39.22 L44.97,33.26 L50.16,31.73 L51.42,31.36 L53.39,30.78 L91.67,19.53 L93.79,26.76 C94.25,28.35 93.34,30.02 91.75,30.48 Z M89.34,26.06 C89.18,25.53 88.63,25.23 88.1,25.38 L55.75,34.89 L53.78,35.47 L50.91,36.32 C50.38,36.48 50.08,37.03 50.23,37.56 C50.36,38 50.76,38.28 51.19,38.28 C51.28,38.28 51.38,38.27 51.47,38.24 L54.81,37.26 L56.78,36.68 L88.66,27.31 C89.2,27.15 89.5,26.59 89.34,26.06 Z" fill="none" stroke="currentColor" stroke-width="1.5"/><path d="M88.67,27.3 L56.79,36.67 L54.82,37.25 L51.48,38.23 C51.39,38.26 51.29,38.27 51.2,38.27 C50.77,38.27 50.37,37.99 50.24,37.55 C50.08,37.02 50.39,36.46 50.92,36.31 L53.79,35.47 L55.76,34.89 L88.11,25.38 C88.64,25.22 89.2,25.53 89.35,26.06 C89.5,26.59 89.2,27.15 88.67,27.3 Z M100.04,45 L100.04,72.79 L93.07,72.79 C91.97,72.79 91.07,71.89 91.07,70.79 L91.07,63.16 L70.02,63.16 C68.73,64.78 66.77,65.73 64.68,65.73 C60.91,65.73 57.85,62.66 57.85,58.9 C57.85,58.04 58.01,57.2 58.32,56.41 L51.41,44.44 L25.01,52.2 C24.54,52.34 24.07,52.41 23.59,52.41 C22.76,52.41 21.95,52.2 21.2,51.8 C20.03,51.16 19.17,50.1 18.8,48.82 L18.77,48.7 L15.36,49.7 C15.01,49.8 14.64,49.7 14.39,49.47 L14.35,49.43 C14.24,49.32 14.16,49.18 14.11,49.02 L10.41,36.44 L8.81,30.98 L1.5,27.03 L0.56,26.53 C0.48,26.49 0.41,26.44 0.35,26.38 L0.32,26.36 C0.11,26.15 0,25.86 0.03,25.55 C0.07,25.15 0.35,24.81 0.74,24.7 L5.11,23.41 L22.69,18.24 L82.95,0.52 C84.74,0 86.59,0.52 87.84,1.73 L87.93,1.82 C88.49,2.39 88.92,3.1 89.16,3.91 L95.71,26.19 C96.49,28.84 94.97,31.62 92.32,32.4 L59.83,41.95 L65.71,52.13 C67.42,52.39 68.94,53.27 70.02,54.62 L91.07,54.62 L91.07,46.99 C91.07,45.89 91.97,44.99 93.07,44.99 L100.04,44.99 Z M15.07,32.08 L15.73,32.43 C15.73,32.43 15.73,32.43 15.74,32.43 L15.78,32.45 L24.53,37.17 L49.36,29.87 L52.36,28.99 L91.1,17.6 L87.24,4.47 C86.77,2.88 85.1,1.97 83.52,2.44 L24.33,19.84 L3.65,25.92 L15.07,32.08 Z M58.8,40.17 L91.75,30.48 C93.34,30.01 94.25,28.34 93.78,26.76 L91.66,19.53 L53.38,30.78 L51.41,31.36 L50.15,31.73 L44.96,33.26 L24.69,39.22 C24.44,39.29 24.17,39.27 23.93,39.14 L16.93,35.36 L20.72,48.24 C20.95,49.01 21.46,49.64 22.16,50.03 C22.86,50.41 23.67,50.5 24.44,50.27 L50.37,42.65 L52.34,42.07 L56.81,40.75 L58.8,40.17 Z" fill="none" stroke="currentColor" stroke-width="1.5"/></svg>