<svg xmlns="http://www.w3.org/2000/svg" viewBox="0 0 88.61 99.79" width="24" height="24"><path d="M62.31,16.25 L2,16.25 C1.45,16.25 1,16.7 1,17.25 L1,95.77 C1,96.32 1.45,96.77 2,96.77 L62.31,96.77 C62.86,96.77 63.31,96.32 63.31,95.77 L63.31,17.25 C63.31,16.7 62.86,16.25 62.31,16.25 Z" fill="none" stroke="currentColor" stroke-width="1.5"/><path d="M57.94,20.07 L49.47,20.07 C48.92,20.07 48.47,20.52 48.47,21.07 L48.47,33.68 C48.47,34.23 48.92,34.68 49.47,34.68 L57.94,34.68 C58.49,34.68 58.94,34.23 58.94,33.68 L58.94,21.07 C58.94,20.51 58.49,20.07 57.94,20.07 Z M37.8,20.17 C36.7,20.17 35.8,21.07 35.8,22.17 C35.8,23.27 36.7,24.17 37.8,24.17 C38.9,24.17 39.8,23.27 39.8,22.17 C39.8,21.06 38.9,20.17 37.8,20.17 Z M43.43,20.17 C42.33,20.17 41.43,21.07 41.43,22.17 C41.43,23.27 42.33,24.17 43.43,24.17 C44.53,24.17 45.43,23.27 45.43,22.17 C45.43,21.06 44.54,20.17 43.43,20.17 Z M57.94,20.07 L49.47,20.07 C48.92,20.07 48.47,20.52 48.47,21.07 L48.47,33.68 C48.47,34.23 48.92,34.68 49.47,34.68 L57.94,34.68 C58.49,34.68 58.94,34.23 58.94,33.68 L58.94,21.07 C58.94,20.51 58.49,20.07 57.94,20.07 Z M43.43,20.17 C42.33,20.17 41.43,21.07 41.43,22.17 C41.43,23.27 42.33,24.17 43.43,24.17 C44.53,24.17 45.43,23.27 45.43,22.17 C45.43,21.06 44.54,20.17 43.43,20.17 Z M37.8,20.17 C36.7,20.17 35.8,21.07 35.8,22.17 C35.8,23.27 36.7,24.17 37.8,24.17 C38.9,24.17 39.8,23.27 39.8,22.17 C39.8,21.06 38.9,20.17 37.8,20.17 Z M88.42,42.39 L87.37,39.5 C87.28,39.25 87.09,39.05 86.85,38.93 C86.61,38.82 86.33,38.81 86.09,38.9 L64.31,46.83 L64.31,17.25 C64.31,16.15 63.41,15.25 62.31,15.25 L28.17,15.25 L56.72,4.86 C57.24,4.67 57.51,4.1 57.32,3.58 L56.27,0.69 C56.22,0.55 56.14,0.42 56.03,0.32 C55.95,0.24 55.86,0.17 55.75,0.12 C55.51,0.01 55.23,0 54.98,0.09 L13.32,15.25 L2,15.25 C0.9,15.25 0,16.15 0,17.25 L0,95.77 C0,96.32 0.22,96.82 0.59,97.18 C0.95,97.54 1.45,97.77 2,97.77 L3.29,97.77 L3.29,98.79 C3.29,99.34 3.74,99.79 4.29,99.79 L60.88,99.79 C61.43,99.79 61.88,99.34 61.88,98.79 L61.88,97.77 L62.31,97.77 C63.41,97.77 64.31,96.87 64.31,95.77 L64.31,52.23 L87.82,43.67 C88.34,43.48 88.61,42.9 88.42,42.39 Z M62.31,95.77 L2,95.77 L2,73.96 L14.3,73.96 L14.3,76.48 C14.3,77.03 14.75,77.48 15.3,77.48 L49.02,77.48 C49.57,77.48 50.02,77.03 50.02,76.48 L50.02,73.96 L62.31,73.96 L62.31,95.77 Z M62.31,71.96 L2,71.96 L2,56.83 L14.3,56.83 L14.3,59.35 C14.3,59.9 14.75,60.35 15.3,60.35 L49.02,60.35 C49.57,60.35 50.02,59.9 50.02,59.35 L50.02,56.83 L62.31,56.83 L62.31,71.96 Z M62.31,54.83 L2,54.83 L2,39.71 L14.3,39.71 L14.3,42.23 C14.3,42.78 14.75,43.23 15.3,43.23 L49.02,43.23 C49.57,43.23 50.02,42.78 50.02,42.23 L50.02,39.71 L62.31,39.71 L62.31,54.83 Z M62.31,37.71 L2,37.71 L2,17.25 L62.31,17.25 L62.31,37.71 Z M49.47,34.68 L57.94,34.68 C58.49,34.68 58.94,34.23 58.94,33.68 L58.94,21.07 C58.94,20.52 58.49,20.07 57.94,20.07 L49.47,20.07 C48.92,20.07 48.47,20.52 48.47,21.07 L48.47,33.68 C48.47,34.23 48.92,34.68 49.47,34.68 Z M43.43,24.17 C44.53,24.17 45.43,23.27 45.43,22.17 C45.43,21.07 44.53,20.17 43.43,20.17 C42.33,20.17 41.43,21.07 41.43,22.17 C41.43,23.27 42.33,24.17 43.43,24.17 Z M37.8,24.17 C38.9,24.17 39.8,23.27 39.8,22.17 C39.8,21.07 38.9,20.17 37.8,20.17 C36.7,20.17 35.8,21.07 35.8,22.17 C35.8,23.27 36.7,24.17 37.8,24.17 Z" fill="none" stroke="currentColor" stroke-width="1.5"/></svg>