<svg xmlns="http://www.w3.org/2000/svg" viewBox="0 0 82.52 99.89" width="24" height="24"><path d="M2,91.44 L2,91.44 C3.92,93.27 7.57,94.94 12.57,96.26 C20.22,98.28 30.37,99.39 41.17,99.39 C51.96,99.39 62.12,98.28 69.77,96.26 C73.23,95.35 76.02,94.28 78.06,93.1 C80.63,91.61 81.93,89.98 81.93,88.25 L81.93,66.96 C81.93,65.98 81.51,65.02 80.67,64.11 L80.36,63.77 L80.67,63.43 C81.5,62.52 81.93,61.56 81.93,60.58 L81.93,39.3 C81.93,38.32 81.51,37.36 80.67,36.45 L80.36,36.11 L80.67,35.77 C81.5,34.86 81.93,33.9 81.93,32.92 L81.93,11.64 C81.93,10.61 81.47,9.61 80.55,8.66 L80.4,8.51 C78.51,6.66 74.84,4.97 69.77,3.63 C62.13,1.61 51.97,0.5 41.17,0.5 C33.49,0.5 26.03,1.07 19.59,2.15 C17.07,2.57 14.71,3.07 12.57,3.64 C9.11,4.55 6.32,5.61 4.28,6.79 C1.71,8.28 0.41,9.91 0.41,11.64 L0.41,32.93 C0.41,33.91 0.83,34.87 1.67,35.78 L1.98,36.12 L1.67,36.46 C0.84,37.37 0.41,38.33 0.41,39.31 L0.41,60.6 C0.41,61.58 0.83,62.54 1.67,63.45 L1.98,63.79 L1.67,64.13 C0.84,65.04 0.41,65.99 0.41,66.98 L0.41,88.27 C0.41,89.29 0.87,90.29 1.77,91.23 L2,91.44 Z" fill="none" stroke="currentColor" stroke-width="1.5"/><path d="M82.52,11.64 C82.52,10.4 81.95,9.3 81,8.32 L80.84,8.16 C78.46,5.83 73.95,4.2 69.98,3.15 C62.3,1.12 52.1,0 41.26,0 C33.48,0 26.03,0.58 19.6,1.65 C17.07,2.07 14.7,2.57 12.53,3.15 C6.82,4.66 0,7.36 0,11.64 L0,32.93 C0,34.11 0.52,35.17 1.39,36.12 C0.52,37.07 0,38.12 0,39.3 L0,60.59 C0,61.77 0.52,62.83 1.39,63.78 C0.52,64.72 0,65.78 0,66.96 L0,88.25 C0,89.48 0.57,90.58 1.5,91.56 L1.74,91.8 L1.75,91.81 C4.15,94.1 8.6,95.7 12.53,96.74 C20.22,98.77 30.42,99.89 41.25,99.89 C52.09,99.89 62.29,98.77 69.97,96.74 C75.69,95.23 82.51,92.53 82.51,88.25 L82.51,66.96 C82.51,65.78 81.99,64.72 81.12,63.77 C81.99,62.82 82.51,61.76 82.51,60.58 L82.51,39.3 C82.51,38.12 81.99,37.06 81.12,36.11 C81.99,35.16 82.51,34.1 82.51,32.92 L82.51,11.64 Z M80.52,88.25 C80.52,89.58 79.05,90.78 77.83,91.54 C75.92,92.74 73.03,93.87 69.48,94.8 C61.96,96.79 51.94,97.88 41.27,97.88 C30.6,97.88 20.58,96.79 13.06,94.8 C9.51,93.86 6.62,92.73 4.71,91.54 C3.47,90.78 2,89.58 2,88.25 L2,70.75 C2.12,70.86 2.24,70.96 2.37,71.06 C2.43,71.11 2.49,71.16 2.55,71.2 C2.61,71.25 2.68,71.3 2.74,71.35 C2.78,71.38 2.82,71.41 2.86,71.44 C3.13,71.63 3.4,71.82 3.69,72 C3.79,72.06 3.89,72.12 3.98,72.18 C3.98,72.18 3.99,72.19 4,72.19 C4.09,72.25 4.19,72.3 4.29,72.35 C4.54,72.49 4.81,72.63 5.07,72.77 C5.18,72.82 5.29,72.88 5.4,72.93 C5.73,73.09 6.06,73.24 6.41,73.39 C6.52,73.44 6.64,73.49 6.75,73.54 C6.87,73.59 6.98,73.64 7.1,73.68 C7.22,73.73 7.33,73.77 7.45,73.82 C7.57,73.87 7.69,73.91 7.81,73.96 C7.93,74.01 8.05,74.05 8.17,74.09 C8.29,74.13 8.41,74.18 8.53,74.22 C8.64,74.26 8.75,74.3 8.85,74.33 C8.89,74.34 8.93,74.36 8.97,74.37 C9.15,74.43 9.34,74.49 9.52,74.55 C9.57,74.56 9.61,74.58 9.66,74.59 C9.98,74.7 10.3,74.8 10.62,74.89 C10.77,74.94 10.93,74.98 11.08,75.03 C11.19,75.06 11.3,75.09 11.41,75.12 C11.43,75.13 11.46,75.13 11.48,75.14 C11.71,75.21 11.93,75.27 12.16,75.33 C12.28,75.36 12.41,75.4 12.53,75.43 C20.22,77.46 30.42,78.58 41.25,78.58 C52.09,78.58 62.29,77.46 69.97,75.43 C70.09,75.4 70.22,75.36 70.34,75.33 C70.56,75.27 70.79,75.21 71.02,75.14 C71.04,75.13 71.06,75.13 71.09,75.12 C71.2,75.09 71.31,75.06 71.42,75.03 C71.57,74.99 71.73,74.94 71.88,74.89 C72.2,74.79 72.52,74.69 72.84,74.59 C72.89,74.58 72.93,74.56 72.98,74.55 C73.16,74.49 73.34,74.43 73.53,74.37 C73.56,74.36 73.59,74.35 73.62,74.34 C73.74,74.3 73.85,74.26 73.97,74.22 C74.09,74.18 74.21,74.13 74.33,74.09 C74.46,74.04 74.59,74 74.71,73.95 C74.82,73.91 74.93,73.87 75.04,73.82 C75.13,73.78 75.22,73.75 75.31,73.71 C75.47,73.64 75.63,73.58 75.8,73.51 C75.89,73.47 75.99,73.43 76.08,73.39 C76.43,73.24 76.77,73.08 77.1,72.92 C77.16,72.89 77.21,72.87 77.26,72.84 C77.4,72.77 77.54,72.7 77.68,72.63 C77.75,72.59 77.83,72.55 77.9,72.51 C78,72.45 78.11,72.4 78.21,72.34 C78.31,72.29 78.4,72.23 78.5,72.18 C78.51,72.18 78.51,72.17 78.51,72.17 C78.56,72.14 78.61,72.11 78.66,72.08 C79,71.87 79.33,71.66 79.64,71.44 C79.68,71.41 79.72,71.38 79.76,71.35 C79.83,71.3 79.89,71.25 79.95,71.2 C80.01,71.15 80.07,71.1 80.13,71.06 C80.26,70.96 80.38,70.85 80.5,70.75 L80.5,88.25 Z M80.52,60.59 C80.52,60.63 80.52,60.67 80.52,60.71 C80.52,60.75 80.51,60.79 80.51,60.83 C80.51,60.86 80.5,60.89 80.5,60.92 C80.5,60.93 80.5,60.94 80.49,60.95 C80.48,60.98 80.48,61.01 80.47,61.04 C80.46,61.08 80.45,61.12 80.44,61.15 C80.43,61.19 80.42,61.23 80.4,61.26 C80.39,61.28 80.39,61.29 80.38,61.31 C80.37,61.33 80.36,61.35 80.35,61.37 C80.34,61.41 80.32,61.44 80.3,61.48 C80.28,61.52 80.27,61.55 80.25,61.58 C80.23,61.62 80.21,61.65 80.19,61.68 C80.17,61.71 80.16,61.74 80.14,61.76 C80.14,61.76 80.14,61.77 80.13,61.77 C80.11,61.81 80.09,61.84 80.06,61.87 C80.06,61.87 80.06,61.88 80.05,61.88 C80.02,61.92 80,61.95 79.97,61.99 C79.94,62.03 79.91,62.07 79.89,62.1 C79.87,62.13 79.84,62.16 79.82,62.18 C79.79,62.21 79.77,62.24 79.74,62.27 C79.72,62.3 79.69,62.32 79.67,62.35 C79.65,62.37 79.63,62.39 79.61,62.42 C79.39,62.66 79.13,62.89 78.87,63.1 C78.79,63.16 78.72,63.22 78.64,63.28 C78.59,63.32 78.53,63.36 78.48,63.4 C78.42,63.44 78.37,63.48 78.32,63.52 C78.21,63.6 78.1,63.67 78,63.74 C77.94,63.78 77.88,63.81 77.83,63.85 C75.92,65.05 73.03,66.18 69.48,67.11 C61.96,69.1 51.94,70.2 41.27,70.2 C30.6,70.2 20.58,69.1 13.06,67.11 C9.51,66.17 6.62,65.04 4.71,63.85 C4.65,63.81 4.6,63.78 4.54,63.74 C4.34,63.61 4.13,63.46 3.92,63.31 C3.88,63.28 3.84,63.25 3.8,63.22 C3.74,63.17 3.67,63.12 3.61,63.07 C3.58,63.04 3.55,63.02 3.52,62.99 C3.43,62.91 3.34,62.83 3.25,62.75 C3.22,62.72 3.18,62.69 3.15,62.66 C3.11,62.62 3.07,62.58 3.04,62.55 C3.01,62.52 2.98,62.49 2.95,62.46 C2.94,62.45 2.92,62.44 2.91,62.42 C2.78,62.28 2.66,62.13 2.55,61.98 C2.52,61.94 2.5,61.9 2.47,61.87 C2.47,61.87 2.47,61.86 2.46,61.86 C2.44,61.83 2.41,61.79 2.39,61.76 C2.36,61.72 2.34,61.68 2.32,61.64 C2.3,61.61 2.28,61.57 2.27,61.54 C2.26,61.52 2.24,61.49 2.23,61.47 C2.21,61.43 2.2,61.4 2.18,61.36 C2.17,61.34 2.16,61.32 2.16,61.3 C2.15,61.28 2.15,61.27 2.14,61.25 C2.13,61.21 2.11,61.18 2.1,61.14 C2.09,61.1 2.08,61.06 2.07,61.03 C2.06,61 2.05,60.97 2.05,60.94 C2.05,60.93 2.05,60.92 2.05,60.91 C2.04,60.88 2.04,60.85 2.03,60.82 C2.01,60.76 2,60.67 2,60.59 L2,43.09 C2.12,43.2 2.24,43.3 2.37,43.4 C2.43,43.45 2.49,43.5 2.55,43.54 C2.61,43.59 2.68,43.64 2.74,43.68 C2.78,43.71 2.82,43.74 2.86,43.77 C3.13,43.96 3.4,44.15 3.69,44.33 C3.79,44.39 3.89,44.45 3.98,44.51 C3.98,44.51 3.99,44.52 4,44.52 C4.09,44.58 4.19,44.63 4.29,44.68 C4.54,44.83 4.81,44.97 5.07,45.1 C5.18,45.15 5.29,45.21 5.4,45.26 C5.73,45.42 6.06,45.58 6.41,45.72 C6.52,45.77 6.64,45.82 6.75,45.87 C6.87,45.92 6.98,45.97 7.1,46.01 C7.22,46.06 7.33,46.11 7.45,46.15 C7.57,46.2 7.69,46.24 7.81,46.29 C7.93,46.33 8.05,46.38 8.17,46.42 C8.29,46.46 8.41,46.51 8.53,46.55 C8.64,46.59 8.75,46.63 8.85,46.66 C8.89,46.67 8.93,46.69 8.97,46.7 C9.15,46.76 9.34,46.82 9.52,46.89 C9.57,46.9 9.61,46.92 9.66,46.93 C9.98,47.04 10.3,47.14 10.62,47.23 C10.77,47.28 10.93,47.32 11.08,47.37 C11.19,47.4 11.3,47.43 11.41,47.46 C11.43,47.47 11.46,47.47 11.48,47.48 C11.71,47.54 11.93,47.61 12.16,47.67 C12.28,47.7 12.41,47.74 12.53,47.77 C20.22,49.8 30.42,50.92 41.25,50.92 C52.09,50.92 62.29,49.8 69.97,47.77 C70.09,47.74 70.22,47.7 70.34,47.67 C70.56,47.61 70.79,47.55 71.02,47.48 C71.04,47.47 71.06,47.47 71.09,47.46 C71.2,47.43 71.31,47.4 71.42,47.37 C71.57,47.32 71.73,47.28 71.88,47.23 C72.2,47.13 72.52,47.03 72.84,46.93 C72.89,46.92 72.93,46.9 72.98,46.89 C73.16,46.83 73.34,46.77 73.53,46.7 C73.56,46.69 73.59,46.68 73.62,46.67 C73.74,46.63 73.85,46.59 73.97,46.55 C74.09,46.51 74.21,46.46 74.33,46.42 C74.46,46.37 74.59,46.33 74.71,46.28 C74.82,46.24 74.93,46.2 75.04,46.15 C75.13,46.11 75.22,46.08 75.31,46.04 C75.47,45.97 75.63,45.91 75.8,45.84 C75.89,45.8 75.99,45.76 76.08,45.72 C76.43,45.57 76.77,45.41 77.1,45.25 C77.16,45.22 77.21,45.2 77.26,45.17 C77.4,45.1 77.54,45.03 77.68,44.95 C77.75,44.91 77.83,44.87 77.9,44.84 C78,44.78 78.11,44.73 78.21,44.67 C78.31,44.62 78.4,44.56 78.5,44.51 C78.51,44.51 78.51,44.5 78.51,44.5 C78.56,44.47 78.61,44.44 78.66,44.41 C79,44.2 79.33,43.99 79.64,43.77 C79.68,43.74 79.72,43.71 79.76,43.68 C79.83,43.63 79.89,43.58 79.95,43.54 C80.01,43.49 80.07,43.44 80.13,43.4 C80.26,43.3 80.38,43.19 80.5,43.09 L80.5,60.59 Z M80.52,32.93 C80.52,33.6 80.15,34.24 79.62,34.8 C79.15,35.3 78.55,35.75 78,36.11 C77.94,36.15 77.89,36.18 77.83,36.22 C75.92,37.42 73.03,38.55 69.48,39.48 C61.96,41.47 51.94,42.56 41.27,42.56 C30.6,42.56 20.58,41.47 13.06,39.48 C9.51,38.54 6.62,37.41 4.71,36.22 C4.65,36.19 4.6,36.15 4.54,36.11 C3.98,35.75 3.39,35.3 2.92,34.8 C2.37,34.24 2,33.6 2,32.93 L2,15.43 C2.12,15.54 2.24,15.64 2.37,15.74 C2.43,15.79 2.49,15.84 2.55,15.88 C2.61,15.93 2.68,15.98 2.74,16.03 C2.78,16.06 2.82,16.09 2.86,16.12 C3.13,16.31 3.4,16.5 3.69,16.67 C3.79,16.73 3.89,16.79 3.98,16.85 C3.98,16.85 3.99,16.86 4,16.86 C4.08,16.91 4.16,16.95 4.24,17 C4.26,17.01 4.27,17.02 4.28,17.02 C4.53,17.16 4.8,17.3 5.06,17.44 C5.17,17.49 5.28,17.55 5.39,17.6 C5.72,17.76 6.05,17.91 6.4,18.06 C6.51,18.11 6.63,18.16 6.74,18.21 C6.86,18.26 6.97,18.31 7.09,18.35 C7.21,18.4 7.32,18.45 7.44,18.49 C7.56,18.54 7.68,18.58 7.8,18.63 C7.92,18.68 8.04,18.72 8.16,18.76 C8.28,18.8 8.4,18.85 8.52,18.89 C8.63,18.93 8.74,18.97 8.84,19 C8.88,19.01 8.92,19.03 8.96,19.04 C9.14,19.1 9.33,19.16 9.51,19.22 C9.56,19.24 9.6,19.25 9.65,19.26 C9.97,19.36 10.29,19.47 10.61,19.56 C10.76,19.61 10.92,19.65 11.07,19.7 C11.18,19.73 11.29,19.76 11.4,19.79 C11.42,19.8 11.45,19.8 11.47,19.81 C11.7,19.88 11.92,19.94 12.15,20 C12.27,20.03 12.4,20.07 12.52,20.1 C20.21,22.13 30.41,23.25 41.24,23.25 C52.08,23.25 62.28,22.13 69.96,20.1 C70.08,20.07 70.21,20.03 70.33,20 C70.55,19.94 70.78,19.88 71.01,19.81 C71.03,19.8 71.05,19.8 71.08,19.79 C71.19,19.76 71.3,19.73 71.41,19.7 C71.56,19.65 71.72,19.61 71.87,19.56 C72.19,19.46 72.51,19.36 72.83,19.26 C72.88,19.25 72.92,19.23 72.97,19.22 C73.15,19.16 73.33,19.1 73.52,19.04 C73.55,19.03 73.58,19.02 73.61,19.01 C73.73,18.97 73.84,18.93 73.96,18.89 C74.08,18.85 74.2,18.8 74.32,18.76 C74.45,18.71 74.58,18.67 74.7,18.62 C74.81,18.58 74.92,18.53 75.03,18.49 C75.12,18.45 75.21,18.42 75.3,18.38 C75.46,18.31 75.62,18.25 75.79,18.18 C75.88,18.14 75.98,18.1 76.07,18.06 C76.42,17.91 76.76,17.75 77.09,17.59 C77.15,17.56 77.2,17.54 77.25,17.51 C77.39,17.44 77.53,17.37 77.67,17.29 C77.74,17.25 77.82,17.21 77.89,17.17 C77.99,17.11 78.1,17.06 78.2,17 C78.3,16.95 78.39,16.89 78.49,16.84 C78.5,16.84 78.5,16.83 78.5,16.83 C78.55,16.8 78.6,16.77 78.65,16.74 C78.99,16.53 79.32,16.32 79.63,16.1 C79.67,16.07 79.71,16.04 79.75,16.01 C79.82,15.96 79.88,15.91 79.94,15.86 C80,15.81 80.06,15.76 80.12,15.72 C80.25,15.62 80.37,15.51 80.49,15.41 L80.49,32.93 Z M77.82,14.94 C75.91,16.14 73.02,17.27 69.47,18.2 C61.95,20.19 51.93,21.28 41.26,21.28 C30.59,21.28 20.57,20.18 13.05,18.2 C10.09,17.42 7.59,16.5 5.73,15.53 C5.36,15.34 5.02,15.14 4.7,14.94 C3.47,14.17 2,12.98 2,11.64 C2,10.31 3.47,9.11 4.69,8.34 C6.61,7.14 9.49,6.01 13.04,5.08 C14.32,4.74 15.68,4.43 17.1,4.14 C24.01,2.75 32.41,2 41.26,2 C51.93,2 61.95,3.1 69.47,5.09 C73.02,6.03 75.91,7.16 77.82,8.35 C79.05,9.12 80.51,10.31 80.51,11.65 C80.52,12.98 79.05,14.17 77.82,14.94 Z M65.18,78.91 L65.18,82.66 C64.73,82.76 64.26,82.86 63.78,82.96 C58.82,83.95 53.1,84.58 46.99,84.82 L46.99,80.74 C53.5,80.51 59.69,79.88 65.18,78.91 Z M46.99,86.76 L46.99,90.84 C53.11,90.6 58.83,89.97 63.78,88.98 C64.27,88.88 64.73,88.79 65.18,88.69 L65.18,84.94 C59.69,85.9 53.5,86.53 46.99,86.76 Z M46.99,25.42 L46.99,29.5 C50.8,29.35 54.46,29.05 57.88,28.6 L57.88,28.6 C59.94,28.33 61.92,28.01 63.78,27.64 C64.27,27.54 64.73,27.45 65.18,27.35 L65.18,23.6 C59.69,24.56 53.5,25.19 46.99,25.42 Z M64.87,29.66 C62.7,30.04 60.42,30.36 58.06,30.63 C58.06,30.63 58.06,30.63 58.06,30.63 C54.53,31.03 50.81,31.3 46.99,31.44 L46.99,35.52 C53.11,35.28 58.83,34.65 63.78,33.66 C64.27,33.56 64.73,33.46 65.18,33.36 L65.18,29.61 C65.08,29.63 64.98,29.65 64.87,29.66 Z M46.99,53.08 L46.99,57.16 C50.81,57.01 54.47,56.71 57.89,56.26 C57.89,56.26 57.89,56.26 57.89,56.26 C59.95,55.99 61.92,55.67 63.78,55.3 C64.27,55.2 64.73,55.11 65.18,55 L65.18,51.25 C59.69,52.22 53.5,52.85 46.99,53.08 Z M64.87,57.32 C62.7,57.7 60.43,58.02 58.07,58.29 C58.07,58.29 58.07,58.29 58.07,58.29 C58.07,58.29 58.07,58.29 58.07,58.29 C54.54,58.69 50.82,58.96 46.99,59.1 L46.99,63.18 C53.11,62.94 58.83,62.31 63.78,61.32 C64.27,61.22 64.73,61.13 65.18,61.03 L65.18,57.28 C65.08,57.29 64.98,57.31 64.87,57.32 Z M59.81,10.4 L56.24,10.4 C55.91,10.07 55.44,9.75 54.85,9.45 L57.38,8.73 C57.8,8.61 57.8,8.42 57.38,8.3 L52.83,7.01 C52.41,6.89 51.73,6.89 51.31,7.01 L48.78,7.73 C47.73,7.56 46.61,7.43 45.44,7.34 L45.44,6.33 C45.44,6.16 44.96,6.03 44.37,6.03 L37.94,6.03 C37.35,6.03 36.87,6.17 36.87,6.33 L36.87,7.34 C35.69,7.43 34.57,7.57 33.53,7.73 L31,7.01 C30.58,6.89 29.9,6.89 29.48,7.01 L24.95,8.3 C24.53,8.42 24.53,8.61 24.95,8.73 L27.48,9.45 C26.9,9.75 26.43,10.06 26.09,10.4 L22.52,10.4 C21.93,10.4 21.45,10.54 21.45,10.7 L21.45,12.52 C21.45,12.69 21.93,12.82 22.52,12.82 L26.09,12.82 C26.42,13.15 26.89,13.47 27.48,13.77 L24.95,14.49 C24.53,14.61 24.53,14.8 24.95,14.92 L29.5,16.21 C29.92,16.33 30.6,16.33 31.02,16.21 L33.55,15.49 C34.6,15.66 35.72,15.79 36.89,15.88 L36.89,16.89 C36.89,17.06 37.37,17.19 37.96,17.19 L44.39,17.19 C44.98,17.19 45.46,17.05 45.46,16.89 L45.46,15.88 C46.64,15.79 47.76,15.65 48.8,15.49 L51.33,16.21 C51.75,16.33 52.43,16.33 52.85,16.21 L57.4,14.92 C57.82,14.8 57.82,14.61 57.4,14.49 L54.87,13.77 C55.45,13.47 55.92,13.16 56.26,12.82 L59.83,12.82 C60.42,12.82 60.9,12.68 60.9,12.52 L60.9,10.7 C60.88,10.53 60.4,10.4 59.81,10.4 Z M50.96,12.67 C50.89,12.72 50.81,12.78 50.73,12.83 C49.68,13.49 47.79,14.03 45.45,14.33 C45.27,14.35 45.08,14.37 44.9,14.4 C43.74,14.53 42.48,14.59 41.17,14.59 C39.86,14.59 38.6,14.52 37.44,14.4 C37.25,14.38 37.07,14.36 36.89,14.33 C34.55,14.03 32.66,13.5 31.61,12.83 C31.53,12.78 31.45,12.73 31.38,12.67 C30.94,12.34 30.7,11.99 30.7,11.61 C30.7,11.24 30.94,10.88 31.38,10.55 C31.45,10.5 31.53,10.44 31.61,10.39 C32.66,9.73 34.55,9.19 36.89,8.89 C37.07,8.87 37.26,8.85 37.44,8.82 C38.6,8.69 39.86,8.63 41.17,8.63 C42.48,8.63 43.74,8.7 44.9,8.82 C45.09,8.84 45.27,8.86 45.45,8.89 C47.79,9.19 49.68,9.72 50.73,10.39 C50.81,10.44 50.89,10.49 50.96,10.55 C51.4,10.88 51.64,11.23 51.64,11.61 C51.64,11.98 51.4,12.34 50.96,12.67 Z" fill="none" stroke="currentColor" stroke-width="1.5"/></svg>