<svg xmlns="http://www.w3.org/2000/svg" viewBox="0 0 45.3 99.95" width="24" height="24"><path d="M41.55,94.73 L3.75,94.73 C2.37,94.73 1.25,93.61 1.25,92.23 L1.25,3.75 C1.25,2.37 2.37,1.25 3.75,1.25 L41.55,1.25 C42.93,1.25 44.05,2.37 44.05,3.75 L44.05,92.23 C44.05,93.61 42.93,94.73 41.55,94.73 Z" fill="none" stroke="currentColor" stroke-width="1.5"/><path d="M22.65,5.4 C20.36,5.4 18.5,7.26 18.5,9.55 C18.5,11.84 20.36,13.7 22.65,13.7 C24.94,13.7 26.8,11.84 26.8,9.55 C26.8,7.26 24.94,5.4 22.65,5.4 Z M37.17,79.54 L8.13,79.54 C7.47,79.54 6.93,80.05 6.88,80.69 C6.88,80.72 6.88,80.76 6.88,80.79 C6.88,81.48 7.44,82.04 8.13,82.04 L37.16,82.04 C37.85,82.04 38.41,81.48 38.41,80.79 C38.42,80.1 37.86,79.54 37.17,79.54 Z M37.17,72.05 L8.13,72.05 C7.44,72.05 6.88,72.61 6.88,73.3 C6.88,73.99 7.44,74.55 8.13,74.55 L37.16,74.55 C37.85,74.55 38.41,73.99 38.41,73.3 C38.42,72.61 37.86,72.05 37.17,72.05 Z M37.17,64.56 L8.13,64.56 C7.44,64.56 6.88,65.12 6.88,65.81 C6.88,66.5 7.44,67.06 8.13,67.06 L37.16,67.06 C37.85,67.06 38.41,66.5 38.41,65.81 C38.42,65.12 37.86,64.56 37.17,64.56 Z M37.17,57.06 L8.13,57.06 C7.44,57.06 6.88,57.62 6.88,58.31 C6.88,59 7.44,59.56 8.13,59.56 L37.16,59.56 C37.85,59.56 38.41,59 38.41,58.31 C38.42,57.62 37.86,57.06 37.17,57.06 Z M37.17,49.57 L8.13,49.57 C7.44,49.57 6.88,50.13 6.88,50.82 C6.88,51.51 7.44,52.07 8.13,52.07 L37.16,52.07 C37.85,52.07 38.41,51.51 38.41,50.82 C38.42,50.13 37.86,49.57 37.17,49.57 Z M8.13,52.07 L37.16,52.07 C37.85,52.07 38.41,51.51 38.41,50.82 C38.41,50.13 37.85,49.57 37.16,49.57 L8.13,49.57 C7.44,49.57 6.88,50.13 6.88,50.82 C6.88,51.51 7.44,52.07 8.13,52.07 Z M37.17,57.06 L8.13,57.06 C7.44,57.06 6.88,57.62 6.88,58.31 C6.88,59 7.44,59.56 8.13,59.56 L37.16,59.56 C37.85,59.56 38.41,59 38.41,58.31 C38.42,57.62 37.86,57.06 37.17,57.06 Z M37.17,64.56 L8.13,64.56 C7.44,64.56 6.88,65.12 6.88,65.81 C6.88,66.5 7.44,67.06 8.13,67.06 L37.16,67.06 C37.85,67.06 38.41,66.5 38.41,65.81 C38.42,65.12 37.86,64.56 37.17,64.56 Z M37.17,72.05 L8.13,72.05 C7.44,72.05 6.88,72.61 6.88,73.3 C6.88,73.99 7.44,74.55 8.13,74.55 L37.16,74.55 C37.85,74.55 38.41,73.99 38.41,73.3 C38.42,72.61 37.86,72.05 37.17,72.05 Z M37.17,79.54 L8.13,79.54 C7.47,79.54 6.93,80.05 6.88,80.69 C6.88,80.72 6.88,80.76 6.88,80.79 C6.88,81.48 7.44,82.04 8.13,82.04 L37.16,82.04 C37.85,82.04 38.41,81.48 38.41,80.79 C38.42,80.1 37.86,79.54 37.17,79.54 Z M22.65,13.7 C24.94,13.7 26.8,11.84 26.8,9.55 C26.8,7.26 24.94,5.4 22.65,5.4 C20.36,5.4 18.5,7.26 18.5,9.55 C18.5,11.84 20.36,13.7 22.65,13.7 Z M44.26,1.16 C44.22,1.12 44.18,1.08 44.13,1.03 C43.46,0.4 42.55,0 41.55,0 L3.75,0 C1.68,0 0,1.68 0,3.75 L0,92.23 C0,93.18 0.36,94.05 0.94,94.71 C1.04,94.83 1.16,94.94 1.27,95.04 L1.27,95.04 C1.88,95.57 2.66,95.91 3.51,95.97 L3.51,98.7 C3.51,99.03 3.64,99.34 3.86,99.56 L3.9,99.6 C4.12,99.81 4.43,99.95 4.76,99.95 L40.53,99.95 C41.22,99.95 41.78,99.39 41.78,98.7 L41.78,95.97 C43.74,95.85 45.3,94.22 45.3,92.23 L45.3,3.75 C45.3,2.75 44.91,1.84 44.26,1.16 Z M42.8,92.23 C42.8,92.92 42.24,93.48 41.55,93.48 L3.75,93.48 C3.06,93.48 2.5,92.92 2.5,92.23 L2.5,3.75 C2.5,3.06 3.06,2.5 3.75,2.5 L41.55,2.5 C42.24,2.5 42.8,3.06 42.8,3.75 L42.8,92.23 Z M37.17,49.57 L8.13,49.57 C7.44,49.57 6.88,50.13 6.88,50.82 C6.88,51.51 7.44,52.07 8.13,52.07 L37.16,52.07 C37.85,52.07 38.41,51.51 38.41,50.82 C38.42,50.13 37.86,49.57 37.17,49.57 Z M37.17,57.06 L8.13,57.06 C7.44,57.06 6.88,57.62 6.88,58.31 C6.88,59 7.44,59.56 8.13,59.56 L37.16,59.56 C37.85,59.56 38.41,59 38.41,58.31 C38.42,57.62 37.86,57.06 37.17,57.06 Z M37.17,64.56 L8.13,64.56 C7.44,64.56 6.88,65.12 6.88,65.81 C6.88,66.5 7.44,67.06 8.13,67.06 L37.16,67.06 C37.85,67.06 38.41,66.5 38.41,65.81 C38.42,65.12 37.86,64.56 37.17,64.56 Z M37.17,72.05 L8.13,72.05 C7.44,72.05 6.88,72.61 6.88,73.3 C6.88,73.99 7.44,74.55 8.13,74.55 L37.16,74.55 C37.85,74.55 38.41,73.99 38.41,73.3 C38.42,72.61 37.86,72.05 37.17,72.05 Z M37.17,79.54 L8.13,79.54 C7.47,79.54 6.93,80.05 6.88,80.69 C6.88,80.72 6.88,80.76 6.88,80.79 C6.88,81.48 7.44,82.04 8.13,82.04 L37.16,82.04 C37.85,82.04 38.41,81.48 38.41,80.79 C38.42,80.1 37.86,79.54 37.17,79.54 Z M22.65,13.7 C24.94,13.7 26.8,11.84 26.8,9.55 C26.8,7.26 24.94,5.4 22.65,5.4 C20.36,5.4 18.5,7.26 18.5,9.55 C18.5,11.84 20.36,13.7 22.65,13.7 Z M22.65,5.4 C20.36,5.4 18.5,7.26 18.5,9.55 C18.5,11.84 20.36,13.7 22.65,13.7 C24.94,13.7 26.8,11.84 26.8,9.55 C26.8,7.26 24.94,5.4 22.65,5.4 Z M37.17,79.54 L8.13,79.54 C7.47,79.54 6.93,80.05 6.88,80.69 C6.88,80.72 6.88,80.76 6.88,80.79 C6.88,81.48 7.44,82.04 8.13,82.04 L37.16,82.04 C37.85,82.04 38.41,81.48 38.41,80.79 C38.42,80.1 37.86,79.54 37.17,79.54 Z M37.17,72.05 L8.13,72.05 C7.44,72.05 6.88,72.61 6.88,73.3 C6.88,73.99 7.44,74.55 8.13,74.55 L37.16,74.55 C37.85,74.55 38.41,73.99 38.41,73.3 C38.42,72.61 37.86,72.05 37.17,72.05 Z M37.17,64.56 L8.13,64.56 C7.44,64.56 6.88,65.12 6.88,65.81 C6.88,66.5 7.44,67.06 8.13,67.06 L37.16,67.06 C37.85,67.06 38.41,66.5 38.41,65.81 C38.42,65.12 37.86,64.56 37.17,64.56 Z M37.17,57.06 L8.13,57.06 C7.44,57.06 6.88,57.62 6.88,58.31 C6.88,59 7.44,59.56 8.13,59.56 L37.16,59.56 C37.85,59.56 38.41,59 38.41,58.31 C38.42,57.62 37.86,57.06 37.17,57.06 Z M37.17,49.57 L8.13,49.57 C7.44,49.57 6.88,50.13 6.88,50.82 C6.88,51.51 7.44,52.07 8.13,52.07 L37.16,52.07 C37.85,52.07 38.41,51.51 38.41,50.82 C38.42,50.13 37.86,49.57 37.17,49.57 Z M37.17,79.54 L8.13,79.54 C7.47,79.54 6.93,80.05 6.88,80.69 C6.88,80.72 6.88,80.76 6.88,80.79 C6.88,81.48 7.44,82.04 8.13,82.04 L37.16,82.04 C37.85,82.04 38.41,81.48 38.41,80.79 C38.42,80.1 37.86,79.54 37.17,79.54 Z M37.17,72.05 L8.13,72.05 C7.44,72.05 6.88,72.61 6.88,73.3 C6.88,73.99 7.44,74.55 8.13,74.55 L37.16,74.55 C37.85,74.55 38.41,73.99 38.41,73.3 C38.42,72.61 37.86,72.05 37.17,72.05 Z M37.17,64.56 L8.13,64.56 C7.44,64.56 6.88,65.12 6.88,65.81 C6.88,66.5 7.44,67.06 8.13,67.06 L37.16,67.06 C37.85,67.06 38.41,66.5 38.41,65.81 C38.42,65.12 37.86,64.56 37.17,64.56 Z M37.17,57.06 L8.13,57.06 C7.44,57.06 6.88,57.62 6.88,58.31 C6.88,59 7.44,59.56 8.13,59.56 L37.16,59.56 C37.85,59.56 38.41,59 38.41,58.31 C38.42,57.62 37.86,57.06 37.17,57.06 Z M37.17,49.57 L8.13,49.57 C7.44,49.57 6.88,50.13 6.88,50.82 C6.88,51.51 7.44,52.07 8.13,52.07 L37.16,52.07 C37.85,52.07 38.41,51.51 38.41,50.82 C38.42,50.13 37.86,49.57 37.17,49.57 Z M22.65,5.4 C20.36,5.4 18.5,7.26 18.5,9.55 C18.5,11.84 20.36,13.7 22.65,13.7 C24.94,13.7 26.8,11.84 26.8,9.55 C26.8,7.26 24.94,5.4 22.65,5.4 Z" fill="none" stroke="currentColor" stroke-width="1.5"/></svg>