<svg xmlns="http://www.w3.org/2000/svg" viewBox="0 0 100.01 70.19" width="24" height="24"><path d="M89.53,18.46 L41.61,18.46 C41.22,18.46 40.87,18.24 40.71,17.88 C37.37,10.79 30.15,6.2 22.31,6.2 C11.11,6.2 2,15.31 2,26.51 C2,37.71 11.11,46.82 22.31,46.82 C30.15,46.82 37.37,42.23 40.7,35.14 C40.87,34.79 41.22,34.56 41.6,34.56 L48.61,34.56 L55.14,28.03 C55.33,27.84 55.58,27.74 55.85,27.74 C56.12,27.74 56.37,27.84 56.56,28.03 L62.67,34.14 L68.78,28.03 C68.97,27.84 69.22,27.74 69.49,27.74 C69.76,27.74 70.01,27.84 70.2,28.03 L76.31,34.14 L82.42,28.03 C82.61,27.84 82.86,27.74 83.13,27.74 C83.39,27.74 83.65,27.84 83.84,28.03 L89.95,34.14 L97.59,26.5 L89.53,18.46 Z M10.57,32.56 C7.24,32.56 4.52,29.85 4.52,26.51 C4.52,23.18 7.23,20.46 10.57,20.46 C13.9,20.46 16.62,23.17 16.62,26.51 C16.62,29.85 13.91,32.56 10.57,32.56 Z" fill="none" stroke="currentColor" stroke-width="1.5"/><path d="M99.71,25.81 L90.66,16.76 C90.47,16.57 90.22,16.47 89.95,16.47 L42.23,16.47 C40.45,12.94 37.76,9.94 34.42,7.78 C31.81,6.09 28.89,4.97 25.84,4.49 C24.68,4.3 23.5,4.2 22.31,4.2 C16.35,4.2 10.75,6.52 6.53,10.73 C2.32,14.95 0,20.55 0,26.51 C0,27.71 0.09,28.89 0.28,30.05 C1.01,34.66 3.17,38.92 6.54,42.29 C10.75,46.5 16.36,48.82 22.32,48.82 C26.64,48.82 30.83,47.58 34.44,45.25 C37.78,43.09 40.46,40.1 42.25,36.56 L49.05,36.56 C49.32,36.56 49.57,36.46 49.76,36.27 L55.87,30.16 L61.98,36.27 C62.17,36.46 62.42,36.56 62.69,36.56 C62.95,36.56 63.21,36.46 63.4,36.27 L69.51,30.16 L75.62,36.27 C75.81,36.46 76.06,36.56 76.33,36.56 C76.6,36.56 76.85,36.46 77.04,36.27 L83.15,30.16 L89.26,36.27 C89.65,36.66 90.28,36.66 90.67,36.27 L99.72,27.22 C99.91,27.03 100.01,26.78 100.01,26.51 C100,26.25 99.9,25.99 99.71,25.81 Z M89.95,34.15 L83.84,28.04 C83.65,27.85 83.4,27.75 83.13,27.75 C82.86,27.75 82.61,27.85 82.42,28.04 L76.31,34.15 L70.2,28.04 C70.01,27.85 69.76,27.75 69.49,27.75 C69.23,27.75 68.97,27.85 68.78,28.04 L62.67,34.15 L56.56,28.04 C56.37,27.85 56.12,27.75 55.85,27.75 C55.59,27.75 55.33,27.85 55.14,28.04 L48.61,34.57 L41.6,34.57 C41.21,34.57 40.86,34.79 40.7,35.15 C37.37,42.25 30.15,46.83 22.31,46.83 C11.7,46.83 2.96,38.65 2.07,28.26 C2.03,27.68 2,27.1 2,26.51 C2,15.31 11.11,6.2 22.31,6.2 C22.89,6.2 23.47,6.23 24.05,6.28 C31.2,6.9 37.62,11.32 40.7,17.89 C40.87,18.24 41.22,18.47 41.6,18.47 L89.53,18.47 L97.58,26.52 L89.95,34.15 Z M10.57,20.47 C7.24,20.47 4.52,23.18 4.52,26.52 C4.52,29.85 7.23,32.57 10.57,32.57 C13.9,32.57 16.62,29.86 16.62,26.52 C16.62,23.18 13.91,20.47 10.57,20.47 Z M10.57,30.56 C8.34,30.56 6.52,28.74 6.52,26.51 C6.52,24.28 8.33,22.46 10.57,22.46 C12.81,22.46 14.62,24.27 14.62,26.51 C14.62,28.75 12.8,30.56 10.57,30.56 Z M55.7,9.05 L55.7,2.08 L54.25,2.08 L54.25,0.17 L57.97,0.17 L57.97,9.05 L55.7,9.05 Z M63.12,9.05 L63.12,2.08 L61.67,2.08 L61.67,0.17 L65.39,0.17 L65.39,9.05 L63.12,9.05 Z M74.85,5.89 C74.85,7.94 73.34,9.21 71.57,9.21 C69.79,9.21 68.22,7.93 68.22,5.89 L68.22,3.29 C68.23,1.18 69.9,0 71.55,0 C73.34,0 74.85,1.3 74.85,3.26 L74.85,5.89 Z M72.58,3.28 C72.58,2.5 72.26,2 71.54,2 C70.87,2 70.5,2.53 70.5,3.28 L70.5,5.94 C70.5,6.71 70.87,7.22 71.54,7.22 C72.26,7.22 72.58,6.72 72.58,5.94 L72.58,3.28 Z M77.95,9.05 L77.95,2.08 L76.5,2.08 L76.5,0.17 L80.22,0.17 L80.22,9.05 L77.95,9.05 Z M84.69,62.17 L84.69,56.68 L79.8,51.44 L79.8,44.05 L77.8,44.05 L77.8,52.23 L82.69,57.48 L82.69,62.18 C80.93,62.63 79.62,64.22 79.62,66.12 C79.62,68.36 81.44,70.19 83.69,70.19 C85.93,70.19 87.76,68.37 87.76,66.12 C87.76,64.21 86.45,62.61 84.69,62.17 Z M68.83,62.17 L68.83,44.04 L66.83,44.04 L66.83,62.17 C65.07,62.62 63.76,64.21 63.76,66.11 C63.76,68.35 65.58,70.18 67.83,70.18 C70.07,70.18 71.9,68.36 71.9,66.11 C71.9,64.21 70.59,62.61 68.83,62.17 Z M57.86,52.22 L57.86,44.04 L55.86,44.04 L55.86,51.43 L50.97,56.67 L50.97,62.16 C49.21,62.61 47.9,64.2 47.9,66.1 C47.9,68.34 49.72,70.17 51.97,70.17 C54.21,70.17 56.04,68.35 56.04,66.1 C56.04,64.2 54.73,62.61 52.97,62.16 L52.97,57.46 L57.86,52.22 Z" fill="none" stroke="currentColor" stroke-width="1.5"/></svg>