<svg xmlns="http://www.w3.org/2000/svg" viewBox="0 0 100.0 60.8" width="24" height="24"><path d="M49.12,31.41 C49.12,31.41 49.12,31.41 49.12,31.41 L35.75,31.41 C35.2,31.41 34.75,31.86 34.75,32.41 L34.75,43.11 C34.75,43.66 35.2,44.11 35.75,44.11 L41.3,44.11 C41.32,43.92 41.35,43.74 41.38,43.55 C41.51,42.78 41.76,41.86 42.2,41.22 C42.38,42.24 42.77,43.26 43.37,44.11 L44.72,44.11 C44.49,41.8 44.62,39.46 45.32,37.23 C46,35.05 47.35,32.91 49.12,31.41 L49.12,31.41 Z M45.64,55.03 C43.01,52.76 41.39,49.54 41.23,46.11 L33.64,46.11 C35.74,50.96 40.33,54.14 45.66,55.14 C45.72,55.14 45.75,55.14 45.75,55.12 C45.75,55.1 45.67,55.06 45.64,55.03 Z M56.41,46.11 C56.62,49.48 55.49,52.96 52.89,55.19 C52.89,55.19 52.88,55.2 52.88,55.2 C58.18,54.28 62.92,50.8 65.49,46.11 L56.41,46.11 Z M80.71,46.11 L80.67,46.11 C81.22,46.11 81.67,46.56 81.67,47.11 L81.67,57.81 C81.67,58.36 81.22,58.81 80.67,58.81 L80.71,58.81 C81.26,58.81 81.71,58.36 81.71,57.81 L81.71,47.11 C81.71,46.56 81.27,46.11 80.71,46.11 Z M64.39,31.41 L50.48,31.41 C50.32,33.68 50.79,35.74 52.14,37.67 C53.75,39.96 55.45,41.21 56.12,44.11 L64.39,44.11 C64.94,44.11 65.39,43.66 65.39,43.11 L65.39,32.41 C65.39,31.86 64.94,31.41 64.39,31.41 Z M15.36,16.7 L3.04,16.7 C2.49,16.7 2.04,17.15 2.04,17.7 L2.04,28.4 C2.04,28.95 2.49,29.4 3.04,29.4 L15.36,29.4 C15.91,29.4 16.36,28.95 16.36,28.4 L16.36,17.7 C16.36,17.15 15.91,16.7 15.36,16.7 Z M97.04,31.41 L68.39,31.41 C68.37,31.41 68.36,31.41 68.34,31.41 C67.88,31.43 67.5,31.77 67.41,32.21 C67.4,32.27 67.39,32.34 67.39,32.41 L67.39,43.11 C67.39,43.66 67.84,44.11 68.39,44.11 L97.03,44.11 C97.58,44.11 98.03,43.66 98.03,43.11 L98.03,32.41 C98.04,31.86 97.59,31.41 97.04,31.41 Z M31.68,2 L3.04,2 C2.49,2 2.04,2.45 2.04,3 L2.04,13.7 C2.04,14.25 2.49,14.7 3.04,14.7 L31.68,14.7 C32.23,14.7 32.68,14.25 32.68,13.7 L32.68,3 C32.68,2.45 32.23,2 31.68,2 Z M15.38,46.11 L3.06,46.11 C2.51,46.11 2.06,46.56 2.06,47.11 L2.06,57.81 C2.06,58.36 2.51,58.81 3.06,58.81 L15.38,58.81 C15.93,58.81 16.38,58.36 16.38,57.81 L16.38,47.11 C16.38,46.56 15.93,46.11 15.38,46.11 Z M97.01,16.7 L84.69,16.7 C84.14,16.7 83.69,17.15 83.69,17.7 L83.69,28.4 C83.69,28.95 84.14,29.4 84.69,29.4 L97.04,29.4 C97.58,29.39 98.02,28.94 98.02,28.4 L98.02,17.7 C98.01,17.15 97.56,16.7 97.01,16.7 Z M97.01,2 L68.37,2 C67.82,2 67.37,2.45 67.37,3 L67.37,13.7 C67.37,14.25 67.82,14.7 68.37,14.7 L97.01,14.7 C97.56,14.7 98.01,14.25 98.01,13.7 L98.01,3 C98.01,2.45 97.56,2 97.01,2 Z M97,46.11 L84.68,46.11 C84.13,46.11 83.68,46.56 83.68,47.11 L83.68,57.81 C83.68,58.36 84.13,58.81 84.68,58.81 L97,58.81 C97.55,58.81 98,58.36 98,57.81 L98,47.11 C98,46.56 97.55,46.11 97,46.11 Z M31.7,31.41 L3.04,31.41 C2.5,31.42 2.06,31.87 2.06,32.41 L2.06,43.11 C2.06,43.66 2.51,44.11 3.06,44.11 L31.7,44.11 C32.25,44.11 32.7,43.66 32.7,43.11 L32.7,32.41 C32.7,31.86 32.25,31.41 31.7,31.41 Z M48.05,16.7 L19.41,16.7 C18.86,16.7 18.41,17.15 18.41,17.7 L18.41,28.4 C18.41,28.95 18.86,29.4 19.41,29.4 L48.05,29.4 C48.6,29.4 49.05,28.95 49.05,28.4 L49.05,17.7 C49.05,17.15 48.6,16.7 48.05,16.7 Z M80.69,16.7 L52.05,16.7 C51.5,16.7 51.05,17.15 51.05,17.7 L51.05,28.4 C51.05,28.95 51.5,29.4 52.05,29.4 L80.69,29.4 C81.24,29.4 81.69,28.95 81.69,28.4 L81.69,17.7 C81.69,17.15 81.24,16.7 80.69,16.7 Z M64.37,2 L35.73,2 C35.18,2 34.73,2.45 34.73,3 L34.73,13.7 C34.73,14.25 35.18,14.7 35.73,14.7 L64.37,14.7 C64.92,14.7 65.37,14.25 65.37,13.7 L65.37,3 C65.37,2.45 64.92,2 64.37,2 Z M81.68,47.11 L81.68,57.81 C81.68,58.36 81.23,58.81 80.68,58.81 L52.07,58.81 C51.52,58.81 51.07,58.36 51.07,57.81 L51.07,55.44 L51.03,55.44 C50.52,55.49 49.99,55.51 49.47,55.51 C49.34,55.51 49.2,55.51 49.07,55.51 L49.07,57.81 C49.07,58.36 48.62,58.81 48.07,58.81 L19.43,58.81 C18.88,58.81 18.43,58.36 18.43,57.81 L18.43,47.11 C18.43,46.56 18.88,46.11 19.43,46.11 L33.64,46.11 C35.74,50.96 40.33,54.14 45.66,55.14 C45.72,55.14 45.75,55.14 45.75,55.12 C45.76,55.1 45.68,55.06 45.65,55.02 C43.02,52.75 41.4,49.53 41.24,46.1 L41.24,46.1 C41.21,45.44 41.23,44.77 41.31,44.1 L41.31,44.1 C41.33,43.91 41.36,43.73 41.39,43.54 C41.52,42.77 41.77,41.85 42.21,41.21 C42.39,42.23 42.78,43.25 43.38,44.1 L43.38,44.1 C43.79,44.67 44.3,45.17 44.91,45.53 C44.83,45.05 44.77,44.58 44.73,44.1 L44.73,44.1 C44.5,41.79 44.63,39.45 45.33,37.22 C46.01,35.04 47.36,32.89 49.13,31.39 L49.13,31.39 C49.33,31.22 49.54,31.06 49.75,30.9 C50.02,30.7 50.32,30.52 50.61,30.35 C50.56,30.7 50.52,31.05 50.49,31.39 C50.33,33.66 50.8,35.72 52.15,37.65 C53.76,39.94 55.46,41.19 56.13,44.09 C56.14,44.14 56.15,44.2 56.17,44.25 C56.3,44.85 56.38,45.47 56.42,46.09 C56.63,49.46 55.5,52.94 52.9,55.17 C52.9,55.17 52.89,55.18 52.89,55.18 C58.19,54.26 62.93,50.78 65.5,46.09 L80.69,46.09 C81.23,46.11 81.68,46.56 81.68,47.11 Z" fill="none" stroke="currentColor" stroke-width="1.5"/><path d="M100,32.41 C100,31.63 99.71,30.93 99.22,30.39 C99.69,29.86 99.97,29.17 99.97,28.41 L99.97,17.7 C99.97,16.93 99.68,16.23 99.2,15.7 C99.68,15.17 99.97,14.47 99.97,13.7 L99.97,3 C99.97,2.18 99.64,1.43 99.1,0.89 L99.08,0.87 C98.54,0.33 97.8,0 96.97,0 L68.33,0 C67.56,0 66.86,0.29 66.33,0.77 C65.8,0.29 65.1,0 64.33,0 L35.69,0 C34.91,0 34.2,0.3 33.66,0.79 C33.13,0.3 32.42,0 31.64,0 L3,0 C1.35,0 0,1.35 0,3 L0,13.7 C0,14.47 0.29,15.17 0.77,15.7 C0.29,16.23 0,16.94 0,17.7 L0,28.4 C0,29.17 0.3,29.88 0.78,30.41 C0.31,30.94 0.03,31.64 0.03,32.4 L0.03,43.1 C0.03,43.87 0.32,44.57 0.8,45.1 C0.32,45.63 0.03,46.33 0.03,47.1 L0.03,57.8 C0.03,58.62 0.36,59.36 0.89,59.9 L0.93,59.94 C1.47,60.47 2.21,60.8 3.03,60.8 L15.35,60.8 C16.13,60.8 16.84,60.5 17.37,60.01 C17.9,60.5 18.62,60.8 19.39,60.8 L48.03,60.8 C48.8,60.8 49.5,60.51 50.03,60.03 C50.56,60.51 51.26,60.8 52.03,60.8 L80.67,60.8 C81.44,60.8 82.14,60.51 82.67,60.03 C83.2,60.51 83.9,60.8 84.67,60.8 L97,60.8 C98.65,60.8 100,59.45 100,57.8 L100,47.1 C100,46.33 99.71,45.63 99.23,45.1 C99.71,44.57 100,43.87 100,43.1 L100,32.41 Z M67.33,3 C67.33,2.45 67.78,2 68.33,2 L96.97,2 C97.52,2 97.97,2.45 97.97,3 L97.97,13.7 C97.97,14.25 97.52,14.7 96.97,14.7 L68.33,14.7 C67.78,14.7 67.33,14.25 67.33,13.7 L67.33,3 Z M97.97,17.7 L97.97,28.4 C97.97,28.94 97.54,29.39 97,29.4 L84.65,29.4 C84.1,29.4 83.65,28.95 83.65,28.4 L83.65,17.7 C83.65,17.15 84.1,16.7 84.65,16.7 L96.97,16.7 C97.53,16.7 97.97,17.15 97.97,17.7 Z M80.65,16.7 C81.2,16.7 81.65,17.15 81.65,17.7 L81.65,28.4 C81.65,28.95 81.2,29.4 80.65,29.4 L66.76,29.4 C66.03,26.93 64.92,24.59 63.45,22.52 L62.54,21.36 C62.71,22.51 62.83,23.73 62.85,24.95 C62.87,26.46 62.74,27.98 62.33,29.4 L60.35,29.4 C60.19,28.48 59.97,27.56 59.67,26.67 C58.79,24.11 57.17,22.02 55.49,19.95 C54.62,18.88 53.75,17.81 52.96,16.69 L80.65,16.69 Z M61.51,31.41 C61.29,31.82 61.03,32.21 60.74,32.59 C60.7,32.2 60.66,31.8 60.62,31.41 L61.51,31.41 Z M34.69,3 C34.69,2.45 35.14,2 35.69,2 L64.33,2 C64.88,2 65.33,2.45 65.33,3 L65.33,13.7 C65.33,14.25 64.88,14.7 64.33,14.7 L51.68,14.7 C50.06,11.82 49.04,8.47 50.54,5.29 C47.07,6.64 44.42,9.5 43.37,13.09 C43.21,13.63 43.1,14.16 43.02,14.7 L35.69,14.7 C35.14,14.7 34.69,14.25 34.69,13.7 L34.69,3 Z M42.81,16.7 C42.74,17.89 42.72,19.09 42.6,20.29 C42.56,20.73 42.5,21.17 42.42,21.61 C42,23.97 41.15,26.43 39.41,28.14 C39.39,27.22 39.38,26.34 39.17,25.44 C38.98,24.57 38.63,23.73 38.18,22.95 C37.58,21.91 36.78,20.97 35.87,20.22 C35.79,20.15 35.06,19.56 35,19.62 C35.85,22.21 35.21,24.71 34.42,27.16 C34.18,27.91 33.93,28.65 33.69,29.39 L19.37,29.39 C18.82,29.39 18.37,28.94 18.37,28.39 L18.37,17.7 C18.37,17.15 18.82,16.7 19.37,16.7 L42.81,16.7 Z M2,3 C2,2.45 2.45,2 3,2 L31.64,2 C32.19,2 32.64,2.45 32.64,3 L32.64,13.7 C32.64,14.25 32.19,14.7 31.64,14.7 L3,14.7 C2.45,14.7 2,14.25 2,13.7 L2,3 Z M2,17.7 C2,17.15 2.45,16.7 3,16.7 L15.32,16.7 C15.87,16.7 16.32,17.15 16.32,17.7 L16.32,28.4 C16.32,28.95 15.87,29.4 15.32,29.4 L3,29.4 C2.45,29.4 2,28.95 2,28.4 L2,17.7 Z M16.35,57.81 C16.35,58.36 15.9,58.81 15.35,58.81 L3.02,58.81 C2.47,58.81 2.02,58.36 2.02,57.81 L2.02,47.11 C2.02,46.56 2.47,46.11 3.02,46.11 L15.34,46.11 C15.89,46.11 16.34,46.56 16.34,47.11 L16.34,57.81 Z M3.02,44.11 C2.47,44.11 2.02,43.66 2.02,43.11 L2.02,32.41 C2.02,31.87 2.46,31.42 3,31.41 L31.67,31.41 C32.22,31.41 32.67,31.86 32.67,32.41 L32.67,33.59 C32.12,36.65 32.07,39.7 32.67,42.89 L32.67,43.12 C32.67,43.67 32.22,44.12 31.67,44.12 L3.02,44.12 Z M81.68,57.81 C81.68,58.36 81.23,58.81 80.68,58.81 L52.04,58.81 C51.49,58.81 51.04,58.36 51.04,57.81 L51.04,55.45 C50.53,55.5 50,55.52 49.48,55.52 C49.35,55.52 49.21,55.52 49.08,55.52 L49.08,57.82 C49.08,58.37 48.63,58.82 48.08,58.82 L19.39,58.82 C18.84,58.82 18.39,58.37 18.39,57.82 L18.39,47.12 C18.39,46.57 18.84,46.12 19.39,46.12 L33.63,46.12 C35.73,50.97 40.32,54.15 45.65,55.15 C45.71,55.15 45.74,55.15 45.74,55.13 C45.75,55.11 45.67,55.07 45.64,55.03 C43.01,52.76 41.39,49.54 41.23,46.11 L41.23,46.11 C41.2,45.45 41.22,44.78 41.3,44.11 L41.3,44.11 C41.32,43.92 41.35,43.74 41.38,43.55 C41.51,42.78 41.76,41.86 42.2,41.22 C42.38,42.24 42.77,43.26 43.37,44.11 L43.37,44.11 C43.78,44.68 44.29,45.18 44.9,45.54 C44.82,45.06 44.76,44.59 44.72,44.11 L44.72,44.11 C44.49,41.8 44.62,39.46 45.32,37.23 C46,35.05 47.35,32.9 49.12,31.4 L49.12,31.4 C49.32,31.23 49.53,31.07 49.74,30.91 C50.01,30.71 50.31,30.53 50.6,30.36 C50.55,30.71 50.51,31.06 50.48,31.4 C50.32,33.67 50.79,35.73 52.14,37.66 C53.75,39.95 55.45,41.2 56.12,44.1 C56.13,44.15 56.14,44.21 56.16,44.26 C56.29,44.86 56.37,45.48 56.41,46.1 C56.62,49.47 55.49,52.95 52.89,55.18 C52.89,55.18 52.88,55.19 52.88,55.19 C58.18,54.27 62.92,50.79 65.49,46.1 L80.68,46.1 C81.23,46.1 81.68,46.55 81.68,47.1 L81.68,57.81 Z M98,57.81 C98,58.36 97.55,58.81 97,58.81 L84.68,58.81 C84.13,58.81 83.68,58.36 83.68,57.81 L83.68,47.11 C83.68,46.56 84.13,46.11 84.68,46.11 L97,46.11 C97.55,46.11 98,46.56 98,47.11 L98,57.81 Z M98,43.11 C98,43.66 97.55,44.11 97,44.11 L68.36,44.11 C67.81,44.11 67.36,43.66 67.36,43.11 L67.36,40.75 C67.37,40.68 67.38,40.62 67.4,40.55 C67.89,37.81 67.89,34.97 67.42,32.2 C67.42,32.17 67.41,32.14 67.41,32.12 C67.53,31.71 67.91,31.41 68.35,31.4 C68.36,31.4 68.36,31.4 68.37,31.4 L97,31.4 C97.55,31.4 98,31.85 98,32.4 L98,43.11 Z" fill="none" stroke="currentColor" stroke-width="1.5"/></svg>