<svg xmlns="http://www.w3.org/2000/svg" viewBox="0 0 100.0 100.0" width="24" height="24"><ellipse cx="50.0" cy="50.0" rx="49.0" ry="49.0" fill="none" stroke="currentColor"/><path d="M96.07,30.54 C94.07,25.82 91.39,21.48 88.08,17.59 C87.64,17.07 87.19,16.57 86.73,16.07 C86.31,15.62 85.89,15.17 85.45,14.73 C85.42,14.7 85.39,14.67 85.36,14.64 C85.33,14.61 85.3,14.58 85.27,14.55 C80.7,10 75.38,6.42 69.46,3.92 C63.94,1.6 58.12,0.29 52.12,0.04 C51.47,0.02 50.82,0 50.17,0 C50.11,0 50.06,0 50,0 C49.94,0 49.89,0 49.83,0 C43.14,0.02 36.65,1.34 30.54,3.93 C24.59,6.45 19.24,10.05 14.65,14.65 C14.18,15.12 13.73,15.59 13.28,16.07 C12.82,16.57 12.36,17.08 11.93,17.59 C8.62,21.47 5.94,25.81 3.94,30.54 C1.32,36.7 0,43.25 0,50 C0,50.71 0.02,51.41 0.05,52.12 C0.3,58.12 1.6,63.95 3.93,69.46 C5.93,74.18 8.61,78.52 11.92,82.41 C12.36,82.93 12.81,83.43 13.27,83.93 C13.56,84.24 13.85,84.55 14.15,84.85 C14.31,85.02 14.48,85.18 14.64,85.35 C14.81,85.52 14.98,85.68 15.15,85.85 C19.63,90.21 24.8,93.64 30.53,96.07 C36.64,98.66 43.13,99.98 49.82,100 C49.88,100 49.93,100 49.99,100 C50.05,100 50.1,100 50.16,100 C56.85,99.98 63.34,98.66 69.45,96.07 C75.4,93.55 80.75,89.95 85.34,85.35 C85.81,84.88 86.26,84.41 86.71,83.93 C87.17,83.43 87.63,82.92 88.06,82.41 C91.37,78.53 94.05,74.19 96.05,69.46 C98.68,63.3 100,56.75 100,50 C100,43.25 98.68,36.7 96.07,30.54 Z M2.01,49 C2.25,37.4 6.62,26.79 13.72,18.61 C14.11,18.82 14.5,19.02 14.91,19.22 C18.85,21.19 23.34,22.79 28.19,23.98 C25.88,31.45 24.6,40.03 24.51,49 L2.01,49 Z M84.89,17.08 C84.66,17.2 84.43,17.32 84.2,17.43 C80.35,19.36 75.96,20.92 71.2,22.08 C70.33,19.54 69.34,17.14 68.22,14.91 C65.91,10.29 63.21,6.65 60.18,4.09 C59.59,3.59 59,3.14 58.4,2.74 C68.75,4.57 77.97,9.73 84.89,17.08 Z M51,26.49 C57.59,26.43 63.98,25.72 69.87,24.43 C72.15,31.74 73.41,40.17 73.5,49 L51,49 L51,26.49 Z M51,75.5 C57.38,75.56 63.55,76.24 69.24,77.47 C68.42,79.85 67.48,82.11 66.43,84.2 C62.22,92.61 56.78,97.46 51,97.96 L51,75.5 Z M51,73.51 L51,51 L73.49,51 C73.4,59.83 72.14,68.25 69.86,75.57 C63.98,74.28 57.59,73.57 51,73.51 Z M75.49,51 L97.99,51 C97.75,62.6 93.38,73.21 86.28,81.4 C85.89,81.19 85.5,80.99 85.09,80.79 C81.15,78.82 76.67,77.22 71.81,76.03 C74.13,68.54 75.41,59.96 75.49,51 Z M75.49,49 C75.4,40.03 74.13,31.45 71.81,23.98 C76.66,22.79 81.15,21.19 85.09,19.22 C85.49,19.02 85.89,18.81 86.28,18.61 C93.38,26.79 97.75,37.4 97.99,49 L75.49,49 Z M66.43,15.8 C67.48,17.89 68.41,20.14 69.24,22.53 C63.55,23.76 57.38,24.43 51,24.5 L51,2.04 C56.78,2.55 62.22,7.38 66.43,15.8 Z M41.59,2.74 C40.99,3.14 40.4,3.59 39.82,4.09 C36.8,6.65 34.09,10.29 31.78,14.91 C30.67,17.14 29.67,19.54 28.8,22.08 C24.04,20.92 19.65,19.36 15.8,17.43 C15.57,17.31 15.34,17.2 15.11,17.08 C22.03,9.73 31.25,4.57 41.59,2.74 Z M30.13,75.57 C27.85,68.25 26.59,59.83 26.5,51 L49,51 L49,73.51 C42.41,73.57 36.02,74.28 30.13,75.57 Z M49,75.5 L49,97.95 C43.22,97.45 37.78,92.61 33.57,84.2 C32.52,82.11 31.59,79.86 30.76,77.47 C36.45,76.24 42.62,75.57 49,75.5 Z M26.5,49 C26.59,40.17 27.85,31.75 30.13,24.43 C36.02,25.72 42.4,26.43 49,26.49 L49,49 L26.5,49 Z M24.51,51 C24.6,59.96 25.87,68.54 28.19,76.02 C23.34,77.21 18.85,78.81 14.91,80.78 C14.51,80.98 14.11,81.19 13.72,81.39 C6.62,73.21 2.25,62.6 2.01,51 L24.51,51 Z M15.8,82.57 C19.65,80.64 24.04,79.08 28.8,77.92 C29.67,80.46 30.66,82.86 31.78,85.09 C34.09,89.71 36.8,93.35 39.82,95.91 C40.4,96.4 41,96.85 41.59,97.26 C31.24,95.42 22.03,90.26 15.1,82.92 C15.33,82.81 15.57,82.69 15.8,82.57 Z M49,24.5 C42.62,24.44 36.45,23.76 30.76,22.53 C30.97,21.93 31.18,21.35 31.4,20.77 C32.06,19.03 32.78,17.37 33.57,15.81 C37.78,7.38 43.22,2.55 49,2.04 L49,24.5 Z M58.41,97.26 C59.01,96.85 59.6,96.4 60.19,95.91 C63.21,93.35 65.91,89.71 68.23,85.09 C69.34,82.86 70.34,80.46 71.21,77.92 C75.97,79.08 80.36,80.64 84.21,82.57 C84.44,82.69 84.67,82.81 84.9,82.93 C77.97,90.27 68.75,95.43 58.41,97.26 Z" fill="none" stroke="currentColor" stroke-width="1.5"/><path d="M97,87.03 L3,87.03 C1.9,87.03 1,86.13 1,85.03 L1,73.03 C1,71.93 1.9,71.03 3,71.03 L97,71.03 C98.1,71.03 99,71.93 99,73.03 L99,85.03 C99,86.13 98.1,87.03 97,87.03 Z" fill="none" stroke="currentColor" stroke-width="1.5"/><rect x="18" y="75.5" width="64" height="7" fill="none" stroke="currentColor"/><path d="M97,70 L3,70 C1.35,70 0,71.35 0,73 L0,85 C0,85.81 0.33,86.55 0.86,87.1 L0.91,87.15 C1.45,87.67 2.18,88 3,88 L97,88 C98.65,88 100,86.65 100,85 L100,73 C100,71.35 98.65,70 97,70 Z M98,85 C98,85.2 97.94,85.38 97.84,85.53 C97.76,85.66 97.65,85.76 97.53,85.84 C97.38,85.94 97.2,86 97,86 L93.5,86 L86.72,83.94 L82,82.5 L18,82.5 L6.5,86 L3,86 C2.45,86 2,85.55 2,85 L2,73 C2,72.45 2.45,72 3,72 L6.5,72 L9.14,72.8 L18,75.5 L82,75.5 L89.12,73.33 L93.5,72 L97,72 C97.55,72 98,72.45 98,73 L98,85 Z M9.71,79 C9.71,80.1 8.81,81 7.71,81 C6.61,81 5.71,80.1 5.71,79 C5.71,77.9 6.61,77 7.71,77 C8.81,77 9.71,77.9 9.71,79 Z" fill="none" stroke="currentColor" stroke-width="1.5"/></svg>