<svg xmlns="http://www.w3.org/2000/svg" viewBox="0 0 108.34 75.64" width="24" height="24"><path d="M107.64,22.07 L103.39,22.07 C103.57,21.9 103.69,21.65 103.69,21.37 L103.69,0.96 C103.69,0.7 103.58,0.46 103.42,0.29 L103.4,0.27 C103.23,0.1 103,0 102.74,0 L67.27,0 C66.74,0 66.31,0.43 66.31,0.96 L66.31,21.37 C66.31,21.64 66.43,21.89 66.61,22.07 L62.36,22.07 C61.97,22.07 61.66,22.38 61.66,22.77 L61.66,23.73 C61.66,24.55 61.99,25.29 62.52,25.84 C62.54,25.86 62.57,25.89 62.59,25.91 C63.14,26.44 63.88,26.77 64.7,26.77 L83,26.77 L83,36.07 L25.34,36.07 L25.34,26.77 L43.65,26.77 C45.32,26.77 46.68,25.41 46.68,23.73 L46.68,22.77 C46.68,22.38 46.37,22.07 45.98,22.07 L41.73,22.07 C41.92,21.9 42.03,21.65 42.03,21.37 L42.03,0.96 C42.03,0.7 41.93,0.46 41.76,0.29 L41.74,0.27 C41.58,0.1 41.34,0 41.08,0 L5.61,0 C5.08,0 4.64,0.43 4.64,0.96 L4.64,21.37 C4.64,21.64 4.76,21.89 4.94,22.07 L0.7,22.07 C0.31,22.07 0,22.38 0,22.77 L0,23.73 C0,24.54 0.32,25.27 0.83,25.81 L0.84,25.82 C0.84,25.82 0.85,25.83 0.85,25.83 C0.87,25.85 0.89,25.88 0.92,25.9 C0.92,25.9 0.93,25.91 0.93,25.91 L0.94,25.92 C1.48,26.44 2.22,26.75 3.02,26.75 L21.33,26.75 L21.33,38.05 C21.33,38.58 21.54,39.09 21.92,39.46 C22.3,39.83 22.8,40.05 23.33,40.05 L52.16,40.05 L52.16,48.87 L36.44,48.87 C35.91,48.87 35.48,49.3 35.48,49.83 L35.48,70.24 C35.48,70.51 35.6,70.76 35.78,70.94 L31.53,70.94 C31.14,70.94 30.83,71.25 30.83,71.64 L30.83,72.6 C30.83,73.42 31.16,74.16 31.69,74.71 L31.76,74.78 C32.31,75.31 33.05,75.64 33.87,75.64 L74.49,75.64 C76.16,75.64 77.52,74.28 77.52,72.6 L77.52,71.64 C77.52,71.25 77.21,70.94 76.82,70.94 L72.57,70.94 C72.76,70.76 72.87,70.52 72.87,70.24 L72.87,49.85 C72.87,49.59 72.76,49.35 72.6,49.18 C72.59,49.18 72.59,49.17 72.58,49.16 C72.41,48.99 72.17,48.89 71.91,48.89 L56.17,48.89 L56.17,40.07 L85,40.07 C86.1,40.07 87,39.17 87,38.07 L87,26.77 L105.31,26.77 C106.98,26.77 108.34,25.41 108.34,23.73 L108.34,22.77 C108.34,22.38 108.03,22.07 107.64,22.07 Z M7.58,2.93 L39.11,2.93 L39.11,19.4 L7.58,19.4 L7.58,2.93 Z M69.94,51.82 L69.94,68.28 L38.41,68.28 L38.41,51.82 L69.94,51.82 Z M100.76,19.4 L69.24,19.4 L69.24,2.93 L100.77,2.93 L100.77,19.4 Z" fill="none" stroke="currentColor" stroke-width="1.5"/><path d="M7.58,2.93 L7.58,19.4 L39.11,19.4 L39.11,2.93 L7.58,2.93 Z M69.24,2.93 L69.24,19.4 L100.77,19.4 L100.77,2.93 L69.24,2.93 Z M38.41,51.82 L38.41,68.28 L69.94,68.28 L69.94,51.82 L38.41,51.82 Z M28.46,23.5 L18.26,23.5 C17.98,23.5 17.76,23.28 17.76,23 L17.76,22.5 C17.76,22.22 17.98,22 18.26,22 L28.46,22 C28.74,22 28.96,22.22 28.96,22.5 L28.96,23 C28.96,23.28 28.73,23.5 28.46,23.5 Z M90.6,23.13 L90.6,22.63 C90.6,22.35 90.38,22.13 90.1,22.13 L79.9,22.13 C79.62,22.13 79.4,22.35 79.4,22.63 L79.4,23.13 C79.4,23.41 79.62,23.63 79.9,23.63 L90.1,23.63 C90.38,23.63 90.6,23.4 90.6,23.13 Z M59.79,72.08 L59.79,71.58 C59.79,71.3 59.57,71.08 59.29,71.08 L49.09,71.08 C48.81,71.08 48.59,71.3 48.59,71.58 L48.59,72.08 C48.59,72.36 48.81,72.58 49.09,72.58 L59.29,72.58 C59.56,72.58 59.79,72.36 59.79,72.08 Z" fill="none" stroke="currentColor" stroke-width="1.5"/></svg>