<svg xmlns="http://www.w3.org/2000/svg" viewBox="0 0 100.0 57.34" width="24" height="24"><path d="M93.5,56.33 L6.5,56.33 C3.46,56.33 1,53.87 1,50.83 L1,48.76 C1,48.48 1.22,48.26 1.5,48.26 L98.5,48.26 C98.78,48.26 99,48.48 99,48.76 L99,50.83 C99,53.87 96.54,56.33 93.5,56.33 Z M87.99,2 L12.01,2 C11.98,2 11.95,2.03 11.95,2.06 L11.95,45.77 C11.95,45.8 11.98,45.83 12.01,45.83 L87.99,45.83 C88.02,45.83 88.05,45.8 88.05,45.77 L88.05,2.06 C88.05,2.03 88.02,2 87.99,2 Z" fill="none" stroke="currentColor" stroke-width="1.5"/><path d="M98.5,47.27 L89.41,47.27 C89.81,46.89 90.05,46.36 90.05,45.77 L90.05,2.06 C90.05,1.5 89.83,0.99 89.46,0.62 C89.45,0.61 89.44,0.6 89.43,0.59 C89.06,0.22 88.55,0 87.99,0 L12.01,0 C10.87,0 9.95,0.92 9.95,2.06 L9.95,45.77 C9.95,46.36 10.2,46.89 10.59,47.27 L1.5,47.27 C0.67,47.27 0,47.94 0,48.77 L0,50.84 C0,52.59 0.7,54.19 1.83,55.36 C1.88,55.41 1.93,55.46 1.98,55.51 C3.15,56.64 4.75,57.34 6.5,57.34 L93.5,57.34 C97.08,57.34 100,54.42 100,50.84 L100,48.77 C100,47.94 99.33,47.27 98.5,47.27 Z M13.95,4 L86.05,4 L86.05,43.83 L13.95,43.83 L13.95,4 Z M98,50.83 C98,53.31 95.98,55.33 93.5,55.33 L6.5,55.33 C4.02,55.33 2,53.31 2,50.83 L2,49.26 L38.03,49.26 L38.03,50.25 C38.03,50.8 38.48,51.25 39.03,51.25 L61.03,51.25 C61.58,51.25 62.03,50.8 62.03,50.25 L62.03,49.26 L98,49.26 L98,50.83 Z" fill="none" stroke="currentColor" stroke-width="1.5"/></svg>