<svg xmlns="http://www.w3.org/2000/svg" viewBox="0 0 86.0 76.0" width="24" height="24"><path d="M53,21 L33,21 L33,1 L53,1 L53,21 Z M85,55 L65,55 L65,75 L85,75 L85,55 Z M53,55 L33,55 L33,75 L53,75 L53,55 Z M21,55 L1,55 L1,75 L21,75 L21,55 Z" fill="none" stroke="currentColor" stroke-width="1.5"/><path d="M85.72,54.3 L85.7,54.28 C85.52,54.11 85.27,54 85,54 L77,54 L77,38 C77,36.9 76.11,36 75,36 L45,36 L45,22 L53,22 C53.55,22 54,21.55 54,21 L54,1 C54,0.72 53.89,0.47 53.71,0.29 C53.53,0.11 53.28,0 53,0 L33,0 C32.45,0 32,0.45 32,1 L32,21 C32,21.28 32.11,21.53 32.29,21.71 C32.47,21.89 32.72,22 33,22 L41,22 L41,36 L11,36 C9.9,36 9,36.9 9,38 L9,54 L1,54 C0.45,54 0,54.45 0,55 L0,75 C0,75.28 0.11,75.53 0.29,75.71 C0.47,75.89 0.72,76 1,76 L21,76 C21.55,76 22,75.55 22,75 L22,55 C22,54.72 21.89,54.47 21.71,54.29 C21.53,54.11 21.28,54 21,54 L13,54 L13,40 L41,40 L41,54 L33,54 C32.45,54 32,54.45 32,55 L32,75 C32,75.28 32.11,75.53 32.29,75.71 C32.47,75.89 32.72,76 33,76 L53,76 C53.55,76 54,75.55 54,75 L54,55 C54,54.72 53.89,54.47 53.71,54.29 C53.53,54.11 53.28,54 53,54 L45,54 L45,40 L73,40 L73,54 L65,54 C64.88,54 64.76,54.02 64.65,54.06 C64.27,54.2 64,54.57 64,55 L64,75 C64,75.28 64.11,75.53 64.29,75.71 C64.47,75.89 64.72,76 65,76 L85,76 C85.43,76 85.79,75.73 85.94,75.35 C85.98,75.24 86,75.12 86,75 L86,55 C86,54.73 85.89,54.48 85.72,54.3 Z M34,20 L34,2 L52,2 L52,20 L34,20 Z M20,56 L20,74 L2,74 L2,56 L20,56 Z M52,56 L52,74 L34,74 L34,56 L52,56 Z M84,74 L66,74 L66,56 L84,56 L84,74 Z" fill="none" stroke="currentColor" stroke-width="1.5"/></svg>