<svg xmlns="http://www.w3.org/2000/svg" viewBox="0 0 140.0 140.0" width="24" height="24"><path d="M140,96.74 L140,135 C140,137.76 137.76,140 135,140 L55.13,140 L32.63,117.5 C33.57,118.43 34.72,119.15 35.99,119.58 C36.02,119.59 36.04,119.6 36.07,119.6 C36.89,119.86 37.77,119.99 38.67,119.99 L101.33,119.99 C102.24,119.99 103.11,119.85 103.93,119.6 C103.96,119.59 103.98,119.58 104.01,119.58 C107.49,118.4 110,115.1 110,111.22 L110,70.38 C110,68.13 109.15,66.07 107.76,64.51 C107.71,64.46 107.66,64.4 107.61,64.35 L140,96.74 Z" fill="none" stroke="currentColor" stroke-width="1.5"/></svg>