<svg xmlns="http://www.w3.org/2000/svg" viewBox="0 0 100.0 78.75" width="24" height="24"><path d="M97,57.73 L3,57.73 C1.9,57.73 1,56.83 1,55.73 L1,43.73 C1,42.63 1.9,41.73 3,41.73 L97,41.73 C98.1,41.73 99,42.63 99,43.73 L99,55.73 C99,56.83 98.1,57.73 97,57.73 Z M99,35.67 L99,23.67 C99,22.57 98.1,21.67 97,21.67 L3,21.67 C1.9,21.67 1,22.57 1,23.67 L1,35.67 C1,36.77 1.9,37.67 3,37.67 L97,37.67 C98.1,37.67 99,36.78 99,35.67 Z M68.5,1 L31.5,1 L31.5,25 L68.5,25 L68.5,1 Z M99,75.78 L99,63.78 C99,62.68 98.1,61.78 97,61.78 L3,61.78 C1.9,61.78 1,62.68 1,63.78 L1,75.78 C1,76.88 1.9,77.78 3,77.78 L97,77.78 C98.1,77.78 99,76.89 99,75.78 Z" fill="none" stroke="currentColor" stroke-width="1.5"/><path d="M82,53.2 L18,53.2 L18,46.2 L82,46.2 L82,53.2 Z M82,26.15 L18,26.15 L18,33.15 L82,33.15 L82,26.15 Z M82,66.26 L18,66.26 L18,73.26 L82,73.26 L82,66.26 Z" fill="none" stroke="currentColor" stroke-width="1.5"/><path d="M9.71,49.7 C9.71,50.8 8.81,51.7 7.71,51.7 C6.61,51.7 5.71,50.8 5.71,49.7 C5.71,48.6 6.61,47.7 7.71,47.7 C8.81,47.7 9.71,48.6 9.71,49.7 Z M7.71,27.65 C6.61,27.65 5.71,28.55 5.71,29.65 C5.71,30.75 6.61,31.65 7.71,31.65 C8.81,31.65 9.71,30.75 9.71,29.65 C9.71,28.54 8.82,27.65 7.71,27.65 Z M100,43.7 L100,55.7 C100,57.35 98.65,58.7 97,58.7 L3,58.7 C2.17,58.7 1.42,58.36 0.88,57.82 C0.45,57.4 0.16,56.84 0.05,56.23 C0.02,56.06 0,55.88 0,55.7 L0,43.7 C0,42.05 1.35,40.7 3,40.7 L97,40.7 C98.65,40.7 100,42.05 100,43.7 Z M98,43.7 C98,43.15 97.55,42.7 97,42.7 L93.5,42.7 L91.73,43.24 L82,46.2 L18,46.2 L11.92,44.35 L8.24,43.23 L6.5,42.7 L3,42.7 C2.45,42.7 2,43.15 2,43.7 L2,55.7 C2,56.25 2.45,56.7 3,56.7 L6.5,56.7 L16.71,53.59 L16.71,53.59 L18,53.2 L82,53.2 L84.46,53.95 L93.5,56.7 L97,56.7 C97.55,56.7 98,56.25 98,55.7 L98,43.7 Z M100,23.65 L100,35.65 C100,37.3 98.65,38.65 97,38.65 L3,38.65 C2.2,38.65 1.47,38.33 0.93,37.82 L0.83,37.72 C0.32,37.18 0,36.45 0,35.65 L0,23.65 C0,22 1.35,20.65 3,20.65 L30.5,20.65 L30.5,1 C30.5,0.45 30.95,0 31.5,0 L68.5,0 C68.78,0 69.03,0.11 69.21,0.29 C69.39,0.47 69.5,0.72 69.5,1 L69.5,20.65 L97,20.65 C97.82,20.65 98.56,20.98 99.09,21.51 L99.14,21.56 C99.67,22.09 100,22.83 100,23.65 Z M34.88,2 L45.08,8.61 L50,11.81 L65.12,2 L34.88,2 Z M32.5,24 L67.5,24 L67.5,2.84 L50.54,13.84 C50.38,13.95 50.19,14 50,14 C49.81,14 49.62,13.95 49.46,13.84 L43.63,10.06 L32.5,2.84 L32.5,24 Z M98,23.65 C98,23.1 97.55,22.65 97,22.65 L93.5,22.65 L92.01,23.1 L91.67,23.2 L82,26.15 L18,26.15 L10.43,23.85 L6.9,22.77 L6.5,22.65 L3,22.65 C2.45,22.65 2,23.1 2,23.65 L2,35.65 C2,36.2 2.45,36.65 3,36.65 L6.5,36.65 L18,33.15 L82,33.15 L83.05,33.47 L93.5,36.65 L97,36.65 C97.55,36.65 98,36.2 98,35.65 L98,23.65 Z M100,63.75 L100,75.75 C100,77.4 98.65,78.75 97,78.75 L3,78.75 C2.18,78.75 1.45,78.42 0.9,77.89 L0.85,77.84 C0.33,77.31 0,76.57 0,75.75 L0,63.75 C0,62.1 1.35,60.75 3,60.75 L97,60.75 C97.87,60.75 98.65,61.12 99.2,61.72 C99.7,62.26 100,62.97 100,63.75 Z M97.79,63.14 C97.61,62.91 97.32,62.76 97,62.76 L93.5,62.76 L82,66.25 L18,66.25 L9.14,63.55 L6.5,62.75 L3,62.75 C2.45,62.75 2,63.2 2,63.75 L2,75.75 C2,76.3 2.45,76.75 3,76.75 L6.5,76.75 L16.71,73.64 L18,73.25 L82,73.25 L86.34,74.57 L93.5,76.75 L97,76.75 C97.55,76.75 98,76.3 98,75.75 L98,63.75 C98,63.52 97.92,63.31 97.79,63.14 Z M7.71,67.76 C6.61,67.76 5.71,68.66 5.71,69.76 C5.71,70.86 6.61,71.76 7.71,71.76 C8.81,71.76 9.71,70.86 9.71,69.76 C9.71,68.66 8.82,67.76 7.71,67.76 Z" fill="none" stroke="currentColor" stroke-width="1.5"/></svg>