<svg xmlns="http://www.w3.org/2000/svg" viewBox="0 0 140.0 140.0" width="24" height="24"><path d="M89.5,29.07 C89.5,28.79 89.39,28.54 89.21,28.36 L109.56,48.71 L89.5,48.71 L89.5,29.07 Z M119.14,49.62 C119.67,50.16 120,50.9 120,51.72 L120,63.72 C120,65.37 118.65,66.72 117,66.72 L23,66.72 C22.2,66.72 21.47,66.4 20.93,65.89 L23.81,68.77 L117,68.77 C118.65,68.77 120,70.12 120,71.77 L120,83.77 C120,85.42 118.65,86.77 117,86.77 L23,86.77 C22.17,86.77 21.42,86.43 20.88,85.89 L23.81,88.82 L117,88.82 C117.87,88.82 118.65,89.19 119.2,89.79 C119.7,90.32 120,91.04 120,91.82 L120,103.82 C120,105.47 118.65,106.82 117,106.82 L23,106.82 C22.18,106.82 21.45,106.49 20.9,105.96 L54.93,140 L135,140 C137.76,140 140,137.76 140,135 L140,70.48 L119.14,49.62 Z" fill="none" stroke="currentColor" stroke-width="1.5"/></svg>