<svg xmlns="http://www.w3.org/2000/svg" viewBox="0 0 47.21 100.0" width="24" height="24"><path d="M46.13,1.21 L46.1,1.18 L46.04,1.12 C46.03,1.11 46.01,1.09 46,1.08 C45.29,0.41 44.35,0 43.3,0 L3.91,0 C1.75,0 0,1.75 0,3.91 L0,91.96 C0,92.95 0.37,93.85 0.98,94.54 C1.03,94.6 1.09,94.66 1.15,94.72 C1.21,94.78 1.27,94.83 1.33,94.89 L1.33,94.89 C1.96,95.45 2.77,95.8 3.67,95.86 L3.67,98.7 C3.67,99.05 3.81,99.37 4.03,99.6 L4.07,99.64 C4.3,99.86 4.62,100 4.97,100 L42.24,100 C42.96,100 43.54,99.42 43.54,98.7 L43.54,95.86 C45.58,95.74 47.21,94.03 47.21,91.96 L47.21,3.91 C47.21,2.86 46.8,1.91 46.13,1.21 Z M43.76,91.97 C43.76,92 43.76,92.03 43.75,92.06 C43.72,92.22 43.59,92.34 43.44,92.38 L43.44,92.38 C43.41,92.39 43.38,92.39 43.34,92.39 L41.87,92.39 L37.04,90.92 L10.17,90.92 L5.34,92.39 L3.87,92.39 C3.84,92.39 3.81,92.39 3.77,92.38 L3.77,92.38 C3.61,92.34 3.49,92.22 3.46,92.06 C3.45,92.03 3.45,92 3.45,91.97 L3.45,86.93 C3.45,86.91 3.45,86.89 3.46,86.87 C3.49,86.68 3.63,86.54 3.82,86.51 C3.84,86.51 3.86,86.51 3.88,86.51 L5.35,86.51 L5.52,86.56 L10.18,87.98 L37.06,87.98 L41.89,86.51 L43.36,86.51 C43.38,86.51 43.4,86.51 43.42,86.51 C43.61,86.54 43.75,86.68 43.78,86.87 C43.78,86.89 43.79,86.91 43.79,86.93 L43.79,91.97 Z M43.76,84.41 C43.76,84.44 43.76,84.47 43.75,84.5 L43.75,84.5 C43.72,84.66 43.59,84.78 43.44,84.82 L43.44,84.82 C43.41,84.83 43.38,84.83 43.34,84.83 L41.87,84.83 L37.04,83.36 L10.17,83.36 L5.34,84.83 L3.87,84.83 C3.84,84.83 3.81,84.83 3.77,84.82 L3.77,84.82 C3.61,84.78 3.49,84.66 3.46,84.5 L3.46,84.5 C3.45,84.47 3.45,84.44 3.45,84.41 L3.45,79.37 C3.45,79.35 3.45,79.33 3.46,79.31 L3.46,79.31 C3.49,79.13 3.63,78.98 3.82,78.96 L3.82,78.96 C3.84,78.96 3.86,78.96 3.88,78.96 L5.35,78.96 L5.51,79 L10.17,80.42 L10.17,80.42 L37.05,80.42 L37.05,80.42 L41.88,78.95 L43.35,78.95 C43.37,78.95 43.39,78.95 43.41,78.95 L43.41,78.95 C43.6,78.98 43.74,79.12 43.77,79.3 L43.77,79.3 C43.77,79.32 43.78,79.34 43.78,79.36 L43.78,84.41 Z M43.76,76.85 C43.76,76.88 43.76,76.91 43.75,76.94 C43.72,77.1 43.59,77.22 43.43,77.26 C43.4,77.27 43.37,77.27 43.34,77.27 L41.87,77.27 L37.04,75.8 L10.17,75.8 L5.34,77.27 L3.87,77.27 C3.84,77.27 3.81,77.27 3.78,77.26 C3.62,77.23 3.5,77.1 3.46,76.94 C3.45,76.91 3.45,76.88 3.45,76.85 L3.45,71.81 C3.45,71.79 3.45,71.77 3.46,71.75 L3.46,71.75 C3.49,71.56 3.63,71.42 3.82,71.39 C3.84,71.39 3.86,71.39 3.88,71.39 L5.35,71.39 L5.52,71.44 L10.18,72.86 L37.06,72.86 L41.89,71.39 L43.36,71.39 C43.38,71.39 43.4,71.39 43.42,71.39 C43.61,71.41 43.75,71.56 43.78,71.75 L43.78,71.75 C43.78,71.77 43.79,71.79 43.79,71.81 L43.79,76.85 Z M43.76,69.29 C43.76,69.32 43.76,69.35 43.75,69.38 C43.72,69.54 43.59,69.66 43.44,69.7 L43.44,69.7 C43.41,69.71 43.38,69.71 43.34,69.71 L41.87,69.71 L37.04,68.24 L10.17,68.24 L5.34,69.71 L3.87,69.71 C3.84,69.71 3.81,69.71 3.77,69.7 L3.77,69.7 C3.61,69.66 3.49,69.54 3.46,69.38 C3.45,69.35 3.45,69.32 3.45,69.29 L3.45,64.25 C3.45,64.23 3.45,64.21 3.46,64.19 L3.46,64.19 C3.49,64 3.63,63.86 3.82,63.83 C3.84,63.83 3.86,63.83 3.88,63.83 L5.35,63.83 L5.52,63.88 L10.18,65.3 L37.06,65.3 L41.89,63.83 L43.36,63.83 C43.38,63.83 43.4,63.83 43.42,63.83 C43.61,63.85 43.75,64 43.78,64.19 L43.78,64.19 C43.78,64.21 43.79,64.23 43.79,64.25 L43.79,69.29 Z M43.76,61.73 C43.76,61.76 43.76,61.79 43.75,61.82 C43.72,61.98 43.59,62.1 43.44,62.14 L43.44,62.14 C43.41,62.15 43.38,62.15 43.34,62.15 L41.87,62.15 L37.04,60.68 L10.17,60.68 L5.34,62.15 L3.87,62.15 C3.84,62.15 3.81,62.15 3.77,62.14 L3.77,62.14 C3.61,62.1 3.49,61.98 3.46,61.82 C3.45,61.79 3.45,61.76 3.45,61.73 L3.45,56.69 C3.45,56.67 3.45,56.65 3.46,56.63 L3.46,56.63 C3.49,56.45 3.63,56.3 3.82,56.28 L3.82,56.28 C3.84,56.28 3.86,56.28 3.88,56.28 L5.35,56.28 L5.52,56.33 L10.18,57.75 L37.06,57.75 L41.89,56.28 L43.36,56.28 C43.38,56.28 43.4,56.28 43.42,56.28 L43.42,56.28 C43.61,56.31 43.75,56.45 43.78,56.63 L43.78,56.63 C43.78,56.65 43.79,56.67 43.79,56.69 L43.79,61.73 Z M43.76,54.17 C43.76,54.2 43.76,54.23 43.75,54.26 C43.72,54.42 43.59,54.55 43.43,54.58 C43.4,54.59 43.37,54.59 43.34,54.59 L41.87,54.59 L37.04,53.12 L10.17,53.12 L5.34,54.59 L3.87,54.59 C3.84,54.59 3.81,54.59 3.78,54.58 C3.62,54.55 3.5,54.42 3.46,54.26 C3.45,54.23 3.45,54.2 3.45,54.17 L3.45,49.13 C3.45,49.11 3.45,49.09 3.46,49.07 L3.46,49.07 C3.49,48.88 3.63,48.74 3.82,48.71 L3.82,48.71 C3.84,48.71 3.86,48.71 3.88,48.71 L5.35,48.71 L5.52,48.76 L10.18,50.18 L37.06,50.18 L41.89,48.71 L43.36,48.71 C43.38,48.71 43.4,48.71 43.42,48.71 L43.42,48.71 C43.61,48.74 43.75,48.88 43.78,49.07 L43.78,49.07 C43.78,49.09 43.79,49.11 43.79,49.13 L43.79,54.17 Z M43.76,46.61 C43.76,46.64 43.76,46.67 43.75,46.7 C43.72,46.86 43.59,46.98 43.43,47.02 C43.4,47.03 43.37,47.03 43.34,47.03 L41.87,47.03 L37.04,45.56 L10.17,45.56 L5.34,47.03 L3.87,47.03 C3.84,47.03 3.81,47.03 3.78,47.02 C3.62,46.98 3.5,46.86 3.46,46.7 C3.45,46.67 3.45,46.64 3.45,46.61 L3.45,41.57 C3.45,41.55 3.45,41.53 3.46,41.51 C3.49,41.33 3.63,41.18 3.82,41.15 C3.84,41.15 3.86,41.15 3.88,41.15 L5.35,41.15 L5.52,41.2 L10.18,42.62 L37.06,42.62 L41.89,41.15 L43.36,41.15 C43.38,41.15 43.4,41.15 43.42,41.15 C43.61,41.17 43.75,41.32 43.78,41.51 C43.78,41.53 43.79,41.55 43.79,41.57 L43.79,46.61 Z M43.76,39.05 C43.76,39.08 43.76,39.11 43.75,39.14 C43.72,39.3 43.59,39.42 43.44,39.46 L43.44,39.46 C43.41,39.47 43.38,39.47 43.34,39.47 L41.87,39.47 L37.04,38 L10.17,38 L5.34,39.47 L3.87,39.47 C3.84,39.47 3.81,39.47 3.77,39.46 L3.77,39.46 C3.61,39.42 3.49,39.3 3.46,39.14 C3.45,39.11 3.45,39.08 3.45,39.05 L3.45,34.01 C3.45,33.99 3.45,33.97 3.46,33.95 C3.49,33.76 3.63,33.62 3.82,33.59 C3.84,33.59 3.86,33.59 3.88,33.59 L5.35,33.59 L5.52,33.64 L10.18,35.06 L37.06,35.06 L41.89,33.59 L43.36,33.59 C43.38,33.59 43.4,33.59 43.42,33.59 C43.61,33.62 43.75,33.76 43.78,33.95 C43.78,33.97 43.79,33.99 43.79,34.01 L43.79,39.05 Z M43.76,31.49 C43.76,31.52 43.76,31.55 43.75,31.58 C43.72,31.74 43.59,31.86 43.43,31.9 C43.4,31.91 43.37,31.91 43.34,31.91 L41.87,31.91 L37.04,30.44 L10.17,30.44 L5.34,31.91 L3.87,31.91 C3.84,31.91 3.81,31.91 3.78,31.9 C3.62,31.86 3.5,31.74 3.46,31.58 C3.45,31.55 3.45,31.52 3.45,31.49 L3.45,26.45 C3.45,26.43 3.45,26.41 3.46,26.39 L3.46,26.39 C3.49,26.21 3.63,26.06 3.82,26.04 L3.82,26.04 C3.84,26.04 3.86,26.04 3.88,26.04 L5.35,26.04 L5.52,26.09 L10.18,27.51 L37.06,27.51 L41.89,26.04 L43.36,26.04 C43.38,26.04 43.4,26.04 43.42,26.04 L43.42,26.04 C43.61,26.07 43.75,26.21 43.78,26.39 L43.78,26.39 C43.78,26.41 43.79,26.43 43.79,26.45 L43.79,31.49 Z M43.76,23.93 C43.76,23.96 43.76,23.99 43.75,24.02 C43.72,24.18 43.59,24.31 43.43,24.34 C43.4,24.35 43.37,24.35 43.34,24.35 L41.87,24.35 L37.04,22.88 L10.17,22.88 L5.34,24.35 L3.87,24.35 C3.84,24.35 3.81,24.35 3.78,24.34 C3.62,24.31 3.5,24.18 3.46,24.02 C3.45,23.99 3.45,23.96 3.45,23.93 L3.45,18.89 C3.45,18.87 3.45,18.85 3.46,18.83 L3.46,18.83 C3.49,18.64 3.63,18.5 3.82,18.47 C3.84,18.47 3.86,18.47 3.88,18.47 L5.35,18.47 L5.52,18.52 L10.18,19.94 L37.06,19.94 L41.89,18.47 L43.36,18.47 C43.38,18.47 43.4,18.47 43.42,18.47 C43.61,18.49 43.75,18.64 43.78,18.83 L43.78,18.83 C43.78,18.85 43.79,18.87 43.79,18.89 L43.79,23.93 Z M43.76,16.37 C43.76,16.4 43.76,16.43 43.75,16.46 C43.72,16.62 43.59,16.74 43.44,16.78 L43.44,16.78 C43.41,16.79 43.38,16.79 43.34,16.79 L41.87,16.79 L37.04,15.32 L10.17,15.32 L5.34,16.79 L3.87,16.79 C3.84,16.79 3.81,16.79 3.77,16.78 L3.77,16.78 C3.61,16.74 3.49,16.62 3.46,16.46 C3.45,16.43 3.45,16.4 3.45,16.37 L3.45,11.33 C3.45,11.31 3.45,11.29 3.46,11.27 L3.46,11.27 C3.49,11.09 3.63,10.94 3.82,10.91 C3.84,10.91 3.86,10.91 3.88,10.91 L5.35,10.91 L5.52,10.96 L10.18,12.38 L37.06,12.38 L41.89,10.91 L43.36,10.91 C43.38,10.91 43.4,10.91 43.42,10.91 C43.61,10.93 43.75,11.08 43.78,11.27 L43.78,11.27 C43.78,11.29 43.79,11.31 43.79,11.33 L43.79,16.37 Z M43.76,8.81 C43.76,8.84 43.76,8.87 43.75,8.9 C43.72,9.06 43.59,9.18 43.44,9.22 C43.41,9.23 43.38,9.23 43.34,9.23 L41.87,9.23 L37.04,7.76 L10.17,7.76 L5.34,9.23 L3.87,9.23 C3.84,9.23 3.81,9.23 3.77,9.22 C3.61,9.18 3.49,9.06 3.46,8.9 C3.45,8.87 3.45,8.84 3.45,8.81 L3.45,3.77 C3.45,3.75 3.45,3.73 3.46,3.71 C3.49,3.52 3.63,3.38 3.82,3.35 C3.84,3.35 3.86,3.35 3.88,3.35 L5.35,3.35 L5.51,3.4 L10.17,4.82 L10.17,4.82 L37.05,4.82 L37.05,4.82 L41.88,3.35 L43.35,3.35 C43.37,3.35 43.39,3.35 43.41,3.35 C43.6,3.38 43.74,3.52 43.77,3.71 C43.77,3.73 43.78,3.75 43.78,3.77 L43.78,8.81 Z" fill="none" stroke="currentColor" stroke-width="1.5"/><path d="M43.76,86.93 L43.76,91.97 C43.76,92 43.76,92.03 43.75,92.06 C43.72,92.22 43.59,92.34 43.44,92.38 L43.44,92.38 C43.41,92.39 43.38,92.39 43.34,92.39 L41.87,92.39 L37.04,90.92 L37.04,87.98 L41.87,86.51 L43.34,86.51 C43.36,86.51 43.38,86.51 43.4,86.51 C43.59,86.54 43.73,86.68 43.76,86.87 C43.76,86.89 43.76,86.91 43.76,86.93 Z M43.76,79.31 L43.76,79.31 C43.73,79.12 43.59,78.98 43.4,78.95 L43.4,78.95 C43.38,78.95 43.36,78.95 43.34,78.95 L41.87,78.95 L37.04,80.42 L37.04,83.36 L41.87,84.83 L43.34,84.83 C43.37,84.83 43.4,84.83 43.44,84.82 L43.44,84.82 C43.6,84.78 43.72,84.66 43.75,84.5 L43.75,84.5 C43.76,84.47 43.76,84.44 43.76,84.41 L43.76,79.37 C43.76,79.35 43.76,79.33 43.76,79.31 Z M43.76,71.75 L43.76,71.75 C43.73,71.56 43.59,71.42 43.4,71.39 C43.38,71.39 43.36,71.39 43.34,71.39 L41.87,71.39 L37.04,72.86 L37.04,75.8 L41.87,77.27 L43.34,77.27 C43.37,77.27 43.4,77.27 43.43,77.26 C43.59,77.23 43.71,77.1 43.75,76.94 C43.76,76.91 43.76,76.88 43.76,76.85 L43.76,71.81 C43.76,71.79 43.76,71.77 43.76,71.75 Z M43.76,64.19 L43.76,64.19 C43.73,64 43.59,63.86 43.4,63.83 C43.38,63.83 43.36,63.83 43.34,63.83 L41.87,63.83 L37.04,65.3 L37.04,68.24 L41.87,69.71 L43.34,69.71 C43.37,69.71 43.4,69.71 43.44,69.7 L43.44,69.7 C43.6,69.66 43.72,69.54 43.75,69.38 C43.76,69.35 43.76,69.32 43.76,69.29 L43.76,64.25 C43.76,64.23 43.76,64.21 43.76,64.19 Z M43.76,56.63 L43.76,56.63 C43.73,56.44 43.59,56.3 43.4,56.27 L43.4,56.27 C43.38,56.27 43.36,56.27 43.34,56.27 L41.87,56.27 L37.04,57.74 L37.04,60.68 L41.87,62.15 L43.34,62.15 C43.37,62.15 43.4,62.15 43.44,62.14 L43.44,62.14 C43.6,62.1 43.72,61.98 43.75,61.82 C43.76,61.79 43.76,61.76 43.76,61.73 L43.76,56.69 C43.76,56.67 43.76,56.65 43.76,56.63 Z M43.76,49.07 L43.76,49.07 C43.73,48.88 43.59,48.74 43.4,48.71 L43.4,48.71 C43.38,48.71 43.36,48.71 43.34,48.71 L41.87,48.71 L37.04,50.18 L37.04,53.12 L41.87,54.59 L43.34,54.59 C43.37,54.59 43.4,54.59 43.43,54.58 C43.59,54.55 43.71,54.42 43.75,54.26 C43.76,54.23 43.76,54.2 43.76,54.17 L43.76,49.13 C43.76,49.11 43.76,49.09 43.76,49.07 Z M43.76,41.51 C43.73,41.33 43.59,41.18 43.4,41.15 C43.38,41.15 43.36,41.15 43.34,41.15 L41.87,41.15 L37.04,42.62 L37.04,45.56 L41.87,47.03 L43.34,47.03 C43.37,47.03 43.4,47.03 43.43,47.02 C43.59,46.98 43.71,46.86 43.75,46.7 C43.76,46.67 43.76,46.64 43.76,46.61 L43.76,41.57 C43.76,41.55 43.76,41.53 43.76,41.51 Z M43.76,33.95 C43.73,33.76 43.59,33.62 43.4,33.59 C43.38,33.59 43.36,33.59 43.34,33.59 L41.87,33.59 L37.04,35.06 L37.04,38 L41.87,39.47 L43.34,39.47 C43.37,39.47 43.4,39.47 43.44,39.46 L43.44,39.46 C43.6,39.42 43.72,39.3 43.75,39.14 C43.76,39.11 43.76,39.08 43.76,39.05 L43.76,34.01 C43.76,33.99 43.76,33.97 43.76,33.95 Z M43.76,26.39 L43.76,26.39 C43.73,26.2 43.59,26.06 43.4,26.03 L43.4,26.03 C43.38,26.03 43.36,26.03 43.34,26.03 L41.87,26.03 L37.04,27.5 L37.04,30.44 L41.87,31.91 L43.34,31.91 C43.37,31.91 43.4,31.91 43.43,31.9 C43.59,31.86 43.71,31.74 43.75,31.58 C43.76,31.55 43.76,31.52 43.76,31.49 L43.76,26.45 C43.76,26.43 43.76,26.41 43.76,26.39 Z M43.76,18.83 L43.76,18.83 C43.73,18.64 43.59,18.5 43.4,18.47 C43.38,18.47 43.36,18.47 43.34,18.47 L41.87,18.47 L37.04,19.94 L37.04,22.88 L41.87,24.35 L43.34,24.35 C43.37,24.35 43.4,24.35 43.43,24.34 C43.59,24.31 43.71,24.18 43.75,24.02 C43.76,23.99 43.76,23.96 43.76,23.93 L43.76,18.89 C43.76,18.87 43.76,18.85 43.76,18.83 Z M43.76,11.27 L43.76,11.27 C43.73,11.08 43.59,10.94 43.4,10.91 C43.38,10.91 43.36,10.91 43.34,10.91 L41.87,10.91 L37.04,12.38 L37.04,15.32 L41.87,16.79 L43.34,16.79 C43.37,16.79 43.4,16.79 43.44,16.78 L43.44,16.78 C43.6,16.74 43.72,16.62 43.75,16.46 C43.76,16.43 43.76,16.4 43.76,16.37 L43.76,11.33 C43.76,11.31 43.76,11.29 43.76,11.27 Z M43.76,3.71 C43.73,3.52 43.59,3.38 43.4,3.35 C43.38,3.35 43.36,3.35 43.34,3.35 L41.87,3.35 L37.04,4.82 L37.04,7.76 L41.87,9.23 L43.34,9.23 C43.37,9.23 43.4,9.23 43.44,9.22 C43.6,9.18 43.72,9.06 43.75,8.9 C43.76,8.87 43.76,8.84 43.76,8.81 L43.76,3.77 C43.76,3.75 43.76,3.73 43.76,3.71 Z M10.17,87.98 L10.17,90.92 L5.34,92.39 L3.87,92.39 C3.84,92.39 3.81,92.39 3.77,92.38 L3.77,92.38 C3.61,92.34 3.49,92.22 3.46,92.06 C3.45,92.03 3.45,92 3.45,91.97 L3.45,86.93 C3.45,86.91 3.45,86.89 3.46,86.87 C3.49,86.68 3.63,86.54 3.82,86.51 C3.84,86.51 3.86,86.51 3.88,86.51 L5.35,86.51 L5.52,86.56 L10.17,87.98 Z M5.51,79 L5.34,78.95 L3.87,78.95 C3.85,78.95 3.83,78.95 3.81,78.95 L3.81,78.95 C3.62,78.98 3.48,79.12 3.45,79.3 L3.45,79.3 C3.45,79.32 3.44,79.34 3.44,79.36 L3.44,84.4 C3.44,84.43 3.44,84.46 3.45,84.49 L3.45,84.49 C3.48,84.65 3.61,84.77 3.76,84.81 L3.76,84.81 C3.79,84.82 3.82,84.82 3.86,84.82 L5.33,84.82 L10.16,83.35 L10.16,80.41 L5.51,79 Z M5.51,71.44 L5.34,71.39 L3.87,71.39 C3.85,71.39 3.83,71.39 3.81,71.39 C3.62,71.41 3.48,71.56 3.45,71.75 L3.45,71.75 C3.45,71.77 3.44,71.79 3.44,71.81 L3.44,76.85 C3.44,76.88 3.44,76.91 3.45,76.94 C3.48,77.1 3.61,77.22 3.77,77.26 C3.8,77.27 3.83,77.27 3.86,77.27 L5.33,77.27 L10.16,75.8 L10.16,72.86 L5.51,71.44 Z M5.51,63.88 L5.34,63.83 L3.87,63.83 C3.85,63.83 3.83,63.83 3.81,63.83 C3.62,63.86 3.48,64 3.45,64.19 L3.45,64.19 C3.45,64.21 3.44,64.23 3.44,64.25 L3.44,69.29 C3.44,69.32 3.44,69.35 3.45,69.38 C3.48,69.54 3.61,69.66 3.76,69.7 L3.76,69.7 C3.79,69.71 3.82,69.71 3.86,69.71 L5.33,69.71 L10.16,68.24 L10.16,65.3 L5.51,63.88 Z M5.51,56.32 L5.34,56.27 L3.87,56.27 C3.85,56.27 3.83,56.27 3.81,56.27 L3.81,56.27 C3.62,56.3 3.48,56.44 3.45,56.62 L3.45,56.62 C3.45,56.64 3.44,56.66 3.44,56.68 L3.44,61.72 C3.44,61.75 3.44,61.78 3.45,61.81 C3.48,61.97 3.61,62.09 3.76,62.13 L3.76,62.13 C3.79,62.14 3.82,62.14 3.86,62.14 L5.33,62.14 L10.16,60.67 L10.16,57.73 L5.51,56.32 Z M5.51,48.76 L5.34,48.71 L3.87,48.71 C3.85,48.71 3.83,48.71 3.81,48.71 L3.81,48.71 C3.62,48.74 3.48,48.88 3.45,49.07 L3.45,49.07 C3.45,49.09 3.44,49.11 3.44,49.13 L3.44,54.17 C3.44,54.2 3.44,54.23 3.45,54.26 C3.48,54.42 3.61,54.55 3.77,54.58 C3.8,54.59 3.83,54.59 3.86,54.59 L5.33,54.59 L10.16,53.12 L10.16,50.18 L5.51,48.76 Z M5.51,41.2 L5.34,41.15 L3.87,41.15 C3.85,41.15 3.83,41.15 3.81,41.15 C3.62,41.17 3.48,41.32 3.45,41.51 C3.45,41.53 3.44,41.55 3.44,41.57 L3.44,46.61 C3.44,46.64 3.44,46.67 3.45,46.7 C3.48,46.86 3.61,46.98 3.77,47.02 C3.8,47.03 3.83,47.03 3.86,47.03 L5.33,47.03 L10.16,45.56 L10.16,42.62 L5.51,41.2 Z M5.51,33.64 L5.34,33.59 L3.87,33.59 C3.85,33.59 3.83,33.59 3.81,33.59 C3.62,33.62 3.48,33.76 3.45,33.95 C3.45,33.97 3.44,33.99 3.44,34.01 L3.44,39.05 C3.44,39.08 3.44,39.11 3.45,39.14 C3.48,39.3 3.61,39.42 3.76,39.46 L3.76,39.46 C3.79,39.47 3.82,39.47 3.86,39.47 L5.33,39.47 L10.17,38 L10.17,35.06 L5.51,33.64 Z M10.17,30.44 L10.17,27.5 L5.51,26.08 L5.34,26.03 L3.87,26.03 C3.85,26.03 3.83,26.03 3.81,26.03 L3.81,26.03 C3.62,26.06 3.48,26.2 3.45,26.38 L3.45,26.38 C3.45,26.4 3.44,26.42 3.44,26.44 L3.44,31.48 C3.44,31.51 3.44,31.54 3.45,31.57 C3.48,31.73 3.61,31.85 3.77,31.89 C3.8,31.9 3.83,31.9 3.86,31.9 L5.33,31.9 L10.17,30.44 L10.17,30.44 Z M5.51,18.52 L5.34,18.47 L3.87,18.47 C3.85,18.47 3.83,18.47 3.81,18.47 C3.62,18.49 3.48,18.64 3.45,18.83 L3.45,18.83 C3.45,18.85 3.44,18.87 3.44,18.89 L3.44,23.93 C3.44,23.96 3.44,23.99 3.45,24.02 C3.48,24.18 3.61,24.31 3.77,24.34 C3.8,24.35 3.83,24.35 3.86,24.35 L5.33,24.35 L10.16,22.88 L10.16,19.94 L5.51,18.52 Z M5.51,10.96 L5.34,10.91 L3.87,10.91 C3.85,10.91 3.83,10.91 3.81,10.91 C3.62,10.93 3.48,11.08 3.45,11.27 L3.45,11.27 C3.45,11.29 3.44,11.31 3.44,11.33 L3.44,16.37 C3.44,16.4 3.44,16.43 3.45,16.46 C3.48,16.62 3.61,16.74 3.76,16.78 L3.76,16.78 C3.79,16.79 3.82,16.79 3.86,16.79 L5.33,16.79 L10.16,15.32 L10.16,12.38 L5.51,10.96 Z M5.51,3.4 L5.34,3.35 L3.87,3.35 C3.85,3.35 3.83,3.35 3.81,3.35 C3.62,3.38 3.48,3.53 3.45,3.71 C3.45,3.73 3.44,3.75 3.44,3.77 L3.44,8.81 C3.44,8.84 3.44,8.87 3.45,8.9 C3.48,9.06 3.61,9.18 3.76,9.22 C3.79,9.23 3.82,9.23 3.86,9.23 L5.33,9.23 L10.16,7.76 L10.16,4.82 L5.51,3.4 Z" fill="none" stroke="currentColor" stroke-width="1.5"/><path d="M37.04,87.98 L37.04,90.92 L10.17,90.92 L10.17,87.98 L37.04,87.98 Z M10.17,80.42 L10.17,83.36 L37.05,83.36 L37.05,80.42 L10.17,80.42 Z M10.17,72.86 L10.17,75.8 L37.05,75.8 L37.05,72.86 L10.17,72.86 Z M10.17,65.3 L10.17,68.24 L37.05,68.24 L37.05,65.3 L10.17,65.3 Z M10.17,57.74 L10.17,60.68 L37.05,60.68 L37.05,57.74 L10.17,57.74 Z M10.17,50.18 L10.17,53.12 L37.05,53.12 L37.05,50.18 L10.17,50.18 Z M10.17,42.62 L10.17,45.56 L37.05,45.56 L37.05,42.62 L10.17,42.62 Z M10.17,35.06 L10.17,38 L37.05,38 L37.05,35.06 L10.17,35.06 Z M10.17,27.5 L10.17,30.44 L37.05,30.44 L37.05,27.5 L10.17,27.5 Z M10.17,19.94 L10.17,22.88 L37.05,22.88 L37.05,19.94 L10.17,19.94 Z M10.17,12.38 L10.17,15.32 L37.05,15.32 L37.05,12.38 L10.17,12.38 Z M10.17,4.82 L10.17,7.76 L37.05,7.76 L37.05,4.82 L10.17,4.82 Z" fill="none" stroke="currentColor" stroke-width="1.5"/></svg>