<svg xmlns="http://www.w3.org/2000/svg" viewBox="0 0 52.97 102.0" width="24" height="24"><path d="M44.98,101 L7.02,101 C3.7,101 1,98.3 1,94.98 L1,7.02 C1,3.7 3.7,1 7.02,1 L44.98,1 C48.3,1 51,3.7 51,7.02 L51,94.98 C51,98.3 48.3,101 44.98,101 Z" fill="none" stroke="currentColor" stroke-width="1.5"/><path d="M26,7.75 C24.98,7.75 24.16,6.92 24.16,5.91 C24.16,4.9 24.98,4.07 26,4.07 C27.02,4.07 27.84,4.9 27.84,5.91 C27.84,6.92 27.02,7.75 26,7.75 Z M52.97,33.48 L52.97,17.21 C52.97,16.67 52.54,16.23 52,16.21 L52,7.02 C52,5.08 51.21,3.33 49.94,2.06 C48.67,0.79 46.91,0 44.98,0 L7.02,0 C3.15,0 0,3.15 0,7.02 L0,94.98 C0,96.92 0.79,98.67 2.06,99.94 C3.33,101.21 5.09,102 7.02,102 L44.98,102 C48.85,102 52,98.85 52,94.98 L52,42.95 C52.54,42.93 52.97,42.49 52.97,41.95 L52.97,36.67 C52.97,36.13 52.54,35.69 52,35.67 L52,34.47 C52.54,34.46 52.97,34.02 52.97,33.48 Z M50,94.98 C50,97.75 47.75,100 44.98,100 L7.02,100 C4.25,100 2,97.75 2,94.98 L2,7.02 C2,4.25 4.25,2 7.02,2 L44.98,2 C47.75,2 50,4.25 50,7.02 L50,94.98 Z M12.72,57.11 L16.28,53.55 C16.92,52.91 18,53.36 18,54.26 L18,57.82 C18,58.38 17.55,58.83 16.99,58.83 L13.43,58.83 C12.54,58.83 12.09,57.75 12.72,57.11 Z M23.78,46.06 L20.12,49.72 C19.4,50.43 19,51.4 19,52.41 L19,57.82 C19,58.38 19.45,58.83 20.01,58.83 L24.49,58.83 C25.05,58.83 25.5,58.38 25.5,57.82 L25.5,46.77 C25.5,45.87 24.41,45.42 23.78,46.06 Z M31.28,38.56 L27.62,42.22 C26.9,42.94 26.5,43.91 26.5,44.92 L26.5,57.83 C26.5,58.39 26.95,58.84 27.51,58.84 L31.99,58.84 C32.55,58.84 33,58.39 33,57.83 L33,39.27 C33,38.37 31.91,37.92 31.28,38.56 Z M39.28,30.56 L35.12,34.72 C34.4,35.43 34,36.4 34,37.41 L34,57.82 C34,58.38 34.45,58.83 35.01,58.83 L39.99,58.83 C40.55,58.83 41,58.38 41,57.82 L41,31.27 C41,30.37 39.91,29.92 39.28,30.56 Z" fill="none" stroke="currentColor" stroke-width="1.5"/></svg>