<svg xmlns="http://www.w3.org/2000/svg" viewBox="0 0 140.0 140.0" width="24" height="24"><path d="M140,78.66 L140,135 C140,137.76 137.76,140 135,140 L78.7,140 L21.17,82.47 C21.17,82.47 21.17,82.47 21.17,82.47 L20.93,82.23 C20.93,82.23 20.93,82.23 20.93,82.23 C20.37,81.61 20.02,80.78 20.02,79.88 L20.02,60.13 C20.02,58.2 21.59,56.63 23.52,56.63 L116.52,56.63 C117.46,56.63 118.31,57 118.93,57.6 C118.97,57.64 119.01,57.68 119.05,57.72 L140,78.66 Z" fill="none" stroke="currentColor" stroke-width="1.5"/></svg>