<svg xmlns="http://www.w3.org/2000/svg" viewBox="0 0 140.0 140.0" width="24" height="24"><path d="M140,53.17 L140,135 C140,137.76 137.76,140 135,140 L69.18,140 L20.67,91.49 C21.02,91.81 21.49,92 22,92 L60,92 L60,101.8 L47.5,101.8 C46.95,101.8 46.5,102.25 46.5,102.8 L46.5,105.2 C46.5,105.75 46.95,106.2 47.5,106.2 L92.5,106.2 C93.05,106.2 93.5,105.75 93.5,105.2 L93.5,102.8 C93.5,102.25 93.05,101.8 92.5,101.8 L80,101.8 L80,92 L118,92 C119.1,92 120,91.1 120,90 L120,34 C120,33.46 119.78,32.97 119.44,32.61 L140,53.17 Z" fill="none" stroke="currentColor" stroke-width="1.5"/></svg>