<svg xmlns="http://www.w3.org/2000/svg" viewBox="0 0 100.0 74.2" width="24" height="24"><path d="M98,59 L2,59 C1.45,59 1,58.55 1,58 L1,2 C1,1.45 1.45,1 2,1 L98,1 C98.55,1 99,1.45 99,2 L99,58 C99,58.55 98.55,59 98,59 Z" fill="none" stroke="currentColor" stroke-width="1.5"/><path d="M99.44,0.61 C99.43,0.6 99.41,0.58 99.39,0.57 C99.03,0.21 98.54,0 98,0 L2,0 C0.9,0 0,0.9 0,2 L0,58 C0,58.51 0.19,58.98 0.51,59.33 C0.56,59.39 0.62,59.44 0.67,59.49 C1.02,59.81 1.49,60 2,60 L40,60 L40,69.8 L27.5,69.8 C26.95,69.8 26.5,70.25 26.5,70.8 L26.5,73.2 C26.5,73.75 26.95,74.2 27.5,74.2 L72.5,74.2 C73.05,74.2 73.5,73.75 73.5,73.2 L73.5,70.8 C73.5,70.25 73.05,69.8 72.5,69.8 L60,69.8 L60,60 L98,60 C99.1,60 100,59.1 100,58 L100,2 C100,1.46 99.78,0.97 99.44,0.61 Z M98,58 L2,58 L2,2 L98,2 L98,58 C98,58 98,58 98,58 Z" fill="none" stroke="currentColor" stroke-width="1.5"/></svg>