<svg xmlns="http://www.w3.org/2000/svg" viewBox="0 0 100.0 86.0" width="24" height="24"><path d="M74.5,17 L63.5,17 C62.12,17 61,15.88 61,14.5 L61,3.5 C61,2.12 62.12,1 63.5,1 L74.5,1 C75.88,1 77,2.12 77,3.5 L77,14.5 C77,15.88 75.88,17 74.5,17 Z M89,82.5 L89,71.5 C89,70.12 87.88,69 86.5,69 L75.5,69 C74.12,69 73,70.12 73,71.5 L73,82.5 C73,83.88 74.12,85 75.5,85 L86.5,85 C87.88,85 89,83.88 89,82.5 Z M24,52 L24,34 C24,32.62 22.88,31.5 21.5,31.5 L12.5,31.5 L3.5,31.5 C2.12,31.5 1,32.62 1,34 L1,52 C1,53.38 2.12,54.5 3.5,54.5 L21.5,54.5 C22.88,54.5 24,53.38 24,52 Z M99,48.5 L99,37.5 C99,36.12 97.88,35 96.5,35 L85.5,35 C84.12,35 83,36.12 83,37.5 L83,48.5 C83,49.88 84.12,51 85.5,51 L96.5,51 C97.88,51 99,49.88 99,48.5 Z" fill="none" stroke="currentColor" stroke-width="1.5"/><path d="M96.5,34 L85.5,34 C83.57,34 82,35.57 82,37.5 L82,41 L66.45,41 C66.96,37.84 67.12,34.54 67.25,31.18 C67.26,31 67.19,30.83 67.07,30.7 C66.95,30.57 66.78,30.5 66.6,30.49 C63.74,30.44 61.35,30.05 59.25,29.36 C59.1,29.31 58.95,29.26 58.8,29.21 L66.03,21.98 L70.02,18 L74.5,18 C75.65,18 76.68,17.44 77.32,16.58 C77.74,16 78,15.28 78,14.5 L78,3.5 C78,3.47 78,3.43 78,3.4 C78,3.36 78,3.32 77.99,3.27 C77.99,3.26 77.99,3.25 77.99,3.24 C77.99,3.21 77.99,3.19 77.98,3.16 C77.97,3.08 77.96,3.01 77.95,2.94 C77.95,2.92 77.94,2.9 77.94,2.88 C77.93,2.84 77.93,2.81 77.92,2.77 C77.92,2.75 77.91,2.73 77.91,2.71 C77.91,2.69 77.9,2.67 77.9,2.65 C77.89,2.63 77.89,2.61 77.88,2.58 C77.87,2.55 77.86,2.52 77.85,2.48 C77.84,2.46 77.84,2.44 77.83,2.42 C77.8,2.33 77.77,2.25 77.74,2.17 C77.72,2.12 77.7,2.07 77.68,2.02 C77.66,1.98 77.64,1.94 77.62,1.9 C77.61,1.88 77.59,1.85 77.58,1.83 C77.56,1.8 77.54,1.77 77.52,1.73 C77.49,1.68 77.46,1.64 77.43,1.59 C77.4,1.54 77.37,1.5 77.34,1.46 C77.31,1.42 77.28,1.37 77.24,1.33 C77.21,1.29 77.18,1.25 77.15,1.22 C77.11,1.17 77.07,1.13 77.03,1.09 L76.91,0.97 C76.87,0.93 76.82,0.89 76.78,0.85 C76.74,0.82 76.71,0.79 76.67,0.76 C76.63,0.73 76.58,0.69 76.54,0.66 C76.5,0.63 76.45,0.6 76.4,0.57 C76.36,0.54 76.31,0.51 76.26,0.48 C76.23,0.46 76.2,0.44 76.16,0.43 C76.13,0.42 76.11,0.4 76.09,0.39 C76.05,0.37 76.01,0.35 75.97,0.33 C75.92,0.31 75.87,0.29 75.83,0.27 C75.75,0.23 75.66,0.2 75.57,0.18 C75.55,0.17 75.53,0.17 75.51,0.16 C75.48,0.15 75.45,0.14 75.41,0.13 C75.39,0.12 75.37,0.12 75.34,0.11 C75.32,0.11 75.3,0.1 75.28,0.1 C75.26,0.1 75.24,0.09 75.22,0.09 C75.18,0.08 75.15,0.07 75.11,0.07 C75.09,0.07 75.07,0.06 75.05,0.06 C74.98,0.05 74.9,0.04 74.83,0.03 C74.8,0.03 74.78,0.03 74.75,0.02 C74.74,0.02 74.73,0.02 74.71,0.02 C74.68,0 74.64,0 74.6,0 C74.57,0 74.53,0 74.5,0 L63.5,0 C62.72,0 62,0.25 61.42,0.68 C60.56,1.32 60,2.35 60,3.5 L60,14.5 C60,14.53 60,14.57 60,14.6 C60,14.64 60,14.68 60.01,14.73 C60.01,14.74 60.01,14.75 60.01,14.76 C60.01,14.78 60.01,14.81 60.02,14.84 C60.03,14.91 60.04,14.99 60.05,15.06 C60.05,15.08 60.06,15.1 60.06,15.12 C60.07,15.16 60.07,15.19 60.08,15.23 C60.08,15.25 60.09,15.27 60.09,15.29 C60.09,15.31 60.1,15.33 60.1,15.35 C60.11,15.37 60.11,15.4 60.12,15.42 C60.13,15.45 60.14,15.48 60.15,15.52 C60.16,15.54 60.16,15.56 60.17,15.58 C60.2,15.67 60.23,15.75 60.26,15.83 C60.28,15.88 60.3,15.93 60.32,15.98 C60.34,16.02 60.36,16.06 60.38,16.1 C60.39,16.12 60.41,16.15 60.42,16.17 C60.44,16.2 60.46,16.24 60.48,16.27 C60.51,16.32 60.54,16.36 60.57,16.41 C60.6,16.46 60.63,16.5 60.66,16.55 C60.69,16.59 60.72,16.64 60.76,16.68 C60.79,16.72 60.82,16.76 60.85,16.79 C60.9,16.85 60.95,16.9 61.01,16.96 L61.05,17 C61.1,17.05 61.16,17.1 61.22,17.15 C61.26,17.18 61.29,17.21 61.33,17.24 C61.37,17.27 61.42,17.31 61.46,17.34 C61.5,17.37 61.55,17.4 61.59,17.43 C61.63,17.46 61.68,17.49 61.73,17.52 C61.76,17.54 61.79,17.56 61.83,17.57 C61.86,17.58 61.88,17.6 61.91,17.61 C61.95,17.63 61.99,17.65 62.03,17.67 C62.08,17.69 62.13,17.71 62.17,17.73 C62.25,17.76 62.34,17.8 62.43,17.82 C62.45,17.83 62.47,17.83 62.49,17.84 C62.52,17.85 62.55,17.86 62.59,17.87 C62.61,17.88 62.64,17.88 62.66,17.89 C62.68,17.9 62.7,17.9 62.72,17.9 C62.74,17.9 62.76,17.91 62.78,17.91 C62.82,17.92 62.85,17.93 62.89,17.93 C62.91,17.93 62.93,17.94 62.95,17.94 C63.02,17.95 63.1,17.96 63.17,17.97 C63.2,17.97 63.22,17.98 63.25,17.98 C63.26,17.98 63.27,17.98 63.28,17.98 C63.32,17.98 63.36,17.98 63.41,17.99 C63.44,17.99 63.48,17.99 63.51,17.99 L64.37,17.99 L63.22,19.14 L55,27.36 C53.42,26.38 51.95,25.2 50.46,23.84 C50.21,23.61 49.82,23.61 49.57,23.84 C47.28,25.93 45.04,27.6 42.35,28.75 C41.02,29.32 39.59,29.75 37.99,30.05 C36.61,30.3 35.1,30.45 33.42,30.48 C33.24,30.48 33.07,30.56 32.95,30.69 C32.83,30.82 32.76,30.99 32.77,31.17 C32.89,34.53 33.06,37.83 33.57,40.99 L25,40.99 L25,33.99 C25,33.66 24.95,33.35 24.87,33.05 C24.85,32.98 24.83,32.91 24.8,32.84 C24.63,32.34 24.34,31.89 23.98,31.53 L23.91,31.46 C23.56,31.13 23.14,30.86 22.67,30.7 C22.59,30.67 22.51,30.64 22.43,30.62 C22.35,30.6 22.27,30.58 22.18,30.56 C22.15,30.55 22.12,30.55 22.09,30.54 C22.01,30.53 21.93,30.52 21.85,30.51 C21.85,30.51 21.84,30.51 21.84,30.51 C21.8,30.51 21.75,30.5 21.71,30.5 C21.7,30.5 21.69,30.5 21.68,30.5 C21.66,30.5 21.63,30.5 21.61,30.5 C21.57,30.5 21.53,30.5 21.5,30.5 L3.5,30.5 C3.32,30.5 3.14,30.51 2.97,30.54 C1.46,30.77 0.27,31.96 0.04,33.47 C0.01,33.64 0,33.82 0,34 L0,52 C0,52.18 0.01,52.36 0.04,52.53 C0.15,53.26 0.49,53.92 0.98,54.43 L1.08,54.53 C1.59,55.02 2.25,55.36 2.98,55.47 C3.15,55.5 3.33,55.51 3.51,55.51 L21.51,55.51 C21.56,55.51 21.6,55.51 21.64,55.51 C21.69,55.51 21.74,55.51 21.79,55.5 C21.84,55.5 21.88,55.49 21.93,55.49 C23.27,55.33 24.38,54.41 24.81,53.18 C24.93,52.8 25,52.41 25,52 L25,45 L34.41,45 C34.62,45.75 34.86,46.5 35.13,47.23 C35.3,47.67 35.47,48.11 35.66,48.55 C36.04,49.42 36.47,50.26 36.94,51.07 C37.01,51.2 37.09,51.32 37.16,51.45 C39.8,55.76 43.85,59.25 49.68,62.25 C49.78,62.3 49.88,62.32 49.98,62.32 C50.08,62.32 50.19,62.29 50.28,62.25 C51.27,61.74 52.21,61.22 53.1,60.68 C56.59,58.57 59.32,56.21 61.39,53.51 L75.91,68 L75.5,68 C73.57,68 72,69.57 72,71.5 L72,82.5 C72,84.43 73.57,86 75.5,86 L86.5,86 C88.43,86 90,84.43 90,82.5 L90,71.5 C90,69.57 88.43,68 86.5,68 L81.56,68 L63.62,50.05 C63.88,49.56 64.12,49.06 64.34,48.54 C64.84,47.39 65.26,46.21 65.59,44.99 L82,44.99 L82,48.49 C82,50.42 83.57,51.99 85.5,51.99 L96.5,51.99 C98.43,51.99 100,50.42 100,48.49 L100,37.49 C100,35.57 98.43,34 96.5,34 Z M63.5,16 C62.67,16 62,15.33 62,14.5 L62,3.5 C62,2.9 62.36,2.38 62.87,2.14 C63.06,2.05 63.28,2 63.5,2 L74.5,2 C75.33,2 76,2.67 76,3.5 L76,14.5 C76,14.72 75.95,14.94 75.86,15.13 C75.62,15.64 75.1,16 74.5,16 L63.5,16 Z M23,52 C23,52.08 22.99,52.15 22.98,52.22 C22.88,52.87 22.37,53.38 21.72,53.48 C21.65,53.49 21.57,53.5 21.5,53.5 L3.5,53.5 C3.42,53.5 3.35,53.49 3.28,53.48 C2.63,53.38 2.12,52.87 2.02,52.22 C2.01,52.15 2,52.08 2,52 L2,34 C2,33.92 2.01,33.85 2.02,33.78 C2.12,33.13 2.63,32.62 3.28,32.52 C3.35,32.51 3.43,32.5 3.5,32.5 L21.5,32.5 C21.58,32.5 21.65,32.51 21.72,32.52 C22.37,32.62 22.88,33.13 22.98,33.78 C22.99,33.85 23,33.92 23,34 L23,52 Z M86.5,70 C87.33,70 88,70.67 88,71.5 L88,82.5 C88,83.33 87.33,84 86.5,84 L75.5,84 C74.67,84 74,83.33 74,82.5 L74,71.5 C74,70.67 74.67,70 75.5,70 L86.5,70 Z M98,48.5 C98,49.33 97.33,50 96.5,50 L85.5,50 C84.67,50 84,49.33 84,48.5 L84,37.5 C84,36.67 84.67,36 85.5,36 L96.5,36 C97.33,36 98,36.67 98,37.5 L98,48.5 Z" fill="none" stroke="currentColor" stroke-width="1.5"/><path d="M57.28,41 C56.99,40.54 56.47,40.23 55.88,40.23 L55.38,40.23 L55.38,37.77 C55.38,36.35 54.83,35.05 53.93,34.08 C52.95,33.02 51.56,32.36 50.01,32.34 C49.99,32.34 49.97,32.34 49.95,32.34 C48.8,32.34 47.74,32.7 46.86,33.31 C45.72,34.1 44.9,35.32 44.62,36.73 C44.55,37.07 44.52,37.42 44.52,37.77 L44.52,40.23 L44.02,40.23 C43.43,40.23 42.91,40.54 42.62,41 C42.46,41.26 42.36,41.56 42.36,41.89 L42.36,49.61 C42.36,50.53 43.1,51.27 44.02,51.27 L55.88,51.27 C56.79,51.27 57.52,50.54 57.54,49.64 C57.54,49.63 57.54,49.62 57.54,49.61 L57.54,41.89 C57.54,41.56 57.45,41.26 57.28,41 Z M46.72,37.77 C46.72,36.52 47.43,35.44 48.46,34.9 C48.91,34.67 49.42,34.53 49.96,34.53 C50.93,34.53 51.8,34.96 52.39,35.63 C52.89,36.2 53.2,36.95 53.2,37.77 L53.2,40.23 L46.72,40.23 L46.72,37.77 Z" fill="none" stroke="currentColor" stroke-width="1.5"/></svg>