<svg xmlns="http://www.w3.org/2000/svg" viewBox="0 0 140.0 140.0" width="24" height="24"><path d="M140,73.15 L140,135 C140,137.76 137.76,140 135,140 L79.99,140 L21.05,81.05 C21.08,81.08 21.12,81.12 21.15,81.15 C21.15,81.15 21.15,81.15 21.15,81.15 C21.77,81.71 22.6,82.06 23.5,82.06 L31.28,82.06 L31.28,83.69 C31.28,84.24 31.73,84.69 32.28,84.69 L44.78,84.69 C45.33,84.69 45.78,84.24 45.78,83.69 L45.78,82.06 L94.21,82.06 L94.21,83.69 C94.21,84.24 94.66,84.69 95.21,84.69 L107.71,84.69 C108.26,84.69 108.71,84.24 108.71,83.69 L108.71,82.06 L116.49,82.06 C118.42,82.06 119.99,80.49 119.99,78.56 L119.99,54.6 C119.99,53.66 119.62,52.81 119.02,52.19 L140,73.15 Z" fill="none" stroke="currentColor" stroke-width="1.5"/></svg>