<svg xmlns="http://www.w3.org/2000/svg" viewBox="0 0 99.99 70.96" width="24" height="24"><path d="M59.33,35.86 L1.78,35.86 C1.23,35.86 0.78,35.41 0.78,34.86 L0.78,1.61 C0.78,1.06 1.23,0.61 1.78,0.61 L59.33,0.61 C59.88,0.61 60.33,1.06 60.33,1.61 L60.33,34.85 C60.33,35.41 59.88,35.86 59.33,35.86 Z M59.96,67.97 L59.96,54.24 C59.96,53.14 59.06,52.24 57.96,52.24 L3.05,52.24 C1.95,52.24 1.05,53.14 1.05,54.24 L1.05,67.96 C1.05,69.06 1.95,69.96 3.05,69.96 L57.96,69.96 C59.07,69.97 59.96,69.07 59.96,67.97 Z M96.99,2.04 L70.75,2.04 C70.2,2.04 69.75,2.49 69.75,3.04 L69.75,65.09 C69.75,65.64 70.2,66.09 70.75,66.09 L96.99,66.09 C97.54,66.09 97.99,65.64 97.99,65.09 L97.99,3.04 C97.99,2.49 97.54,2.04 96.99,2.04 Z" fill="none" stroke="currentColor" stroke-width="1.5"/><path d="M83.87,12.44 C81.66,12.44 79.87,10.65 79.87,8.44 C79.87,6.23 81.66,4.44 83.87,4.44 C86.08,4.44 87.87,6.23 87.87,8.44 C87.87,10.65 86.07,12.44 83.87,12.44 Z M60.43,0.65 L60.41,0.63 L60.31,0.53 L60.29,0.51 C59.94,0.2 59.47,0 58.95,0 L2,0 C0.9,0 0,0.9 0,2 L0,34.47 C0,35.01 0.22,35.5 0.57,35.86 L0.6,35.9 C0.96,36.25 1.45,36.47 2,36.47 L24.48,36.47 L24.48,42.42 L17.25,42.42 C16.7,42.42 16.25,42.87 16.25,43.42 L16.25,44.1 C16.25,44.65 16.7,45.1 17.25,45.1 L43.84,45.1 C44.39,45.1 44.84,44.65 44.84,44.1 L44.84,43.42 C44.84,42.87 44.39,42.42 43.84,42.42 L36.64,42.42 L36.64,36.47 L58.95,36.47 C60.05,36.47 60.95,35.57 60.95,34.47 L60.95,2 C60.95,1.48 60.75,1.01 60.43,0.65 Z M58.95,34.47 L2,34.47 L2,2 L58.95,2 L58.95,34.47 C58.95,34.47 58.95,34.47 58.95,34.47 Z M94.16,56.36 L73.58,56.35 C73.58,56.35 73.58,56.35 73.58,56.35 C73.03,56.35 72.58,56.8 72.58,57.35 C72.58,57.9 73.03,58.35 73.58,58.35 L94.16,58.36 C94.16,58.36 94.16,58.36 94.16,58.36 C94.71,58.36 95.16,57.91 95.16,57.36 C95.16,56.81 94.71,56.36 94.16,56.36 Z M94.16,51.05 L73.58,51.04 C73.58,51.04 73.58,51.04 73.58,51.04 C73.03,51.04 72.58,51.49 72.58,52.04 C72.58,52.59 73.03,53.04 73.58,53.04 L94.16,53.05 C94.16,53.05 94.16,53.05 94.16,53.05 C94.71,53.05 95.16,52.6 95.16,52.05 C95.16,51.49 94.71,51.05 94.16,51.05 Z M94.16,45.73 L73.58,45.72 L73.58,45.72 C73.03,45.72 72.58,46.17 72.58,46.72 C72.58,47.27 73.03,47.72 73.58,47.72 L94.16,47.73 C94.16,47.73 94.16,47.73 94.16,47.73 C94.71,47.73 95.16,47.28 95.16,46.73 C95.16,46.18 94.71,45.73 94.16,45.73 Z M94.16,40.41 L73.58,40.4 C73.58,40.4 73.58,40.4 73.58,40.4 C73.03,40.4 72.58,40.85 72.58,41.4 C72.58,41.95 73.03,42.4 73.58,42.4 L94.16,42.41 C94.16,42.41 94.16,42.41 94.16,42.41 C94.71,42.41 95.16,41.96 95.16,41.41 C95.16,40.86 94.71,40.41 94.16,40.41 Z M94.16,35.09 L73.58,35.08 L73.58,35.08 C73.03,35.08 72.58,35.53 72.58,36.08 C72.58,36.63 73.03,37.08 73.58,37.08 L94.16,37.09 C94.16,37.09 94.16,37.09 94.16,37.09 C94.71,37.09 95.16,36.64 95.16,36.09 C95.16,35.54 94.71,35.09 94.16,35.09 Z M73.58,37.08 L94.16,37.09 C94.16,37.09 94.16,37.09 94.16,37.09 C94.71,37.09 95.16,36.64 95.16,36.09 C95.16,35.54 94.71,35.09 94.16,35.09 L73.58,35.08 L73.58,35.08 C73.03,35.08 72.58,35.53 72.58,36.08 C72.58,36.63 73.02,37.08 73.58,37.08 Z M94.16,40.41 L73.58,40.4 C73.58,40.4 73.58,40.4 73.58,40.4 C73.03,40.4 72.58,40.85 72.58,41.4 C72.58,41.95 73.03,42.4 73.58,42.4 L94.16,42.41 C94.16,42.41 94.16,42.41 94.16,42.41 C94.71,42.41 95.16,41.96 95.16,41.41 C95.16,40.86 94.71,40.41 94.16,40.41 Z M94.16,45.73 L73.58,45.72 L73.58,45.72 C73.03,45.72 72.58,46.17 72.58,46.72 C72.58,47.27 73.03,47.72 73.58,47.72 L94.16,47.73 C94.16,47.73 94.16,47.73 94.16,47.73 C94.71,47.73 95.16,47.28 95.16,46.73 C95.16,46.18 94.71,45.73 94.16,45.73 Z M94.16,51.05 L73.58,51.04 C73.58,51.04 73.58,51.04 73.58,51.04 C73.03,51.04 72.58,51.49 72.58,52.04 C72.58,52.59 73.03,53.04 73.58,53.04 L94.16,53.05 C94.16,53.05 94.16,53.05 94.16,53.05 C94.71,53.05 95.16,52.6 95.16,52.05 C95.16,51.49 94.71,51.05 94.16,51.05 Z M94.16,56.36 L73.58,56.35 C73.58,56.35 73.58,56.35 73.58,56.35 C73.03,56.35 72.58,56.8 72.58,57.35 C72.58,57.9 73.03,58.35 73.58,58.35 L94.16,58.36 C94.16,58.36 94.16,58.36 94.16,58.36 C94.71,58.36 95.16,57.91 95.16,57.36 C95.16,56.81 94.71,56.36 94.16,56.36 Z M99.29,1.12 C99.17,0.98 99.05,0.86 98.91,0.74 C98.39,0.3 97.72,0.04 96.99,0.04 L70.75,0.04 C69.1,0.04 67.75,1.39 67.75,3.04 L67.75,65.09 C67.75,66.58 68.85,67.83 70.28,68.05 L70.28,69.95 C70.28,70.5 70.73,70.95 71.28,70.95 L96.46,70.95 C97.01,70.95 97.46,70.5 97.46,69.95 L97.46,68.05 C98.89,67.82 99.99,66.58 99.99,65.09 L99.99,3.04 C99.99,2.31 99.72,1.64 99.29,1.12 Z M97.99,65.09 C97.99,65.64 97.54,66.09 96.99,66.09 L70.75,66.09 C70.2,66.09 69.75,65.64 69.75,65.09 L69.75,3.04 C69.75,2.49 70.2,2.04 70.75,2.04 L96.99,2.04 C97.54,2.04 97.99,2.49 97.99,3.04 L97.99,65.09 Z M94.16,35.09 L73.58,35.08 L73.58,35.08 C73.03,35.08 72.58,35.53 72.58,36.08 C72.58,36.63 73.03,37.08 73.58,37.08 L94.16,37.09 C94.16,37.09 94.16,37.09 94.16,37.09 C94.71,37.09 95.16,36.64 95.16,36.09 C95.16,35.54 94.71,35.09 94.16,35.09 Z M94.16,40.41 L73.58,40.4 C73.58,40.4 73.58,40.4 73.58,40.4 C73.03,40.4 72.58,40.85 72.58,41.4 C72.58,41.95 73.03,42.4 73.58,42.4 L94.16,42.41 C94.16,42.41 94.16,42.41 94.16,42.41 C94.71,42.41 95.16,41.96 95.16,41.41 C95.16,40.86 94.71,40.41 94.16,40.41 Z M94.16,45.73 L73.58,45.72 L73.58,45.72 C73.03,45.72 72.58,46.17 72.58,46.72 C72.58,47.27 73.03,47.72 73.58,47.72 L94.16,47.73 C94.16,47.73 94.16,47.73 94.16,47.73 C94.71,47.73 95.16,47.28 95.16,46.73 C95.16,46.18 94.71,45.73 94.16,45.73 Z M94.16,51.05 L73.58,51.04 C73.58,51.04 73.58,51.04 73.58,51.04 C73.03,51.04 72.58,51.49 72.58,52.04 C72.58,52.59 73.03,53.04 73.58,53.04 L94.16,53.05 C94.16,53.05 94.16,53.05 94.16,53.05 C94.71,53.05 95.16,52.6 95.16,52.05 C95.16,51.49 94.71,51.05 94.16,51.05 Z M94.16,56.36 L73.58,56.35 C73.58,56.35 73.58,56.35 73.58,56.35 C73.03,56.35 72.58,56.8 72.58,57.35 C72.58,57.9 73.03,58.35 73.58,58.35 L94.16,58.36 C94.16,58.36 94.16,58.36 94.16,58.36 C94.71,58.36 95.16,57.91 95.16,57.36 C95.16,56.81 94.71,56.36 94.16,56.36 Z M94.16,56.36 L73.58,56.35 C73.58,56.35 73.58,56.35 73.58,56.35 C73.03,56.35 72.58,56.8 72.58,57.35 C72.58,57.9 73.03,58.35 73.58,58.35 L94.16,58.36 C94.16,58.36 94.16,58.36 94.16,58.36 C94.71,58.36 95.16,57.91 95.16,57.36 C95.16,56.81 94.71,56.36 94.16,56.36 Z M94.16,51.05 L73.58,51.04 C73.58,51.04 73.58,51.04 73.58,51.04 C73.03,51.04 72.58,51.49 72.58,52.04 C72.58,52.59 73.03,53.04 73.58,53.04 L94.16,53.05 C94.16,53.05 94.16,53.05 94.16,53.05 C94.71,53.05 95.16,52.6 95.16,52.05 C95.16,51.49 94.71,51.05 94.16,51.05 Z M94.16,45.73 L73.58,45.72 L73.58,45.72 C73.03,45.72 72.58,46.17 72.58,46.72 C72.58,47.27 73.03,47.72 73.58,47.72 L94.16,47.73 C94.16,47.73 94.16,47.73 94.16,47.73 C94.71,47.73 95.16,47.28 95.16,46.73 C95.16,46.18 94.71,45.73 94.16,45.73 Z M94.16,40.41 L73.58,40.4 C73.58,40.4 73.58,40.4 73.58,40.4 C73.03,40.4 72.58,40.85 72.58,41.4 C72.58,41.95 73.03,42.4 73.58,42.4 L94.16,42.41 C94.16,42.41 94.16,42.41 94.16,42.41 C94.71,42.41 95.16,41.96 95.16,41.41 C95.16,40.86 94.71,40.41 94.16,40.41 Z M94.16,35.09 L73.58,35.08 L73.58,35.08 C73.03,35.08 72.58,35.53 72.58,36.08 C72.58,36.63 73.03,37.08 73.58,37.08 L94.16,37.09 C94.16,37.09 94.16,37.09 94.16,37.09 C94.71,37.09 95.16,36.64 95.16,36.09 C95.16,35.54 94.71,35.09 94.16,35.09 Z M94.16,35.09 L73.58,35.08 L73.58,35.08 C73.03,35.08 72.58,35.53 72.58,36.08 C72.58,36.63 73.03,37.08 73.58,37.08 L94.16,37.09 C94.16,37.09 94.16,37.09 94.16,37.09 C94.71,37.09 95.16,36.64 95.16,36.09 C95.16,35.54 94.71,35.09 94.16,35.09 Z M94.16,40.41 L73.58,40.4 C73.58,40.4 73.58,40.4 73.58,40.4 C73.03,40.4 72.58,40.85 72.58,41.4 C72.58,41.95 73.03,42.4 73.58,42.4 L94.16,42.41 C94.16,42.41 94.16,42.41 94.16,42.41 C94.71,42.41 95.16,41.96 95.16,41.41 C95.16,40.86 94.71,40.41 94.16,40.41 Z M94.16,45.73 L73.58,45.72 L73.58,45.72 C73.03,45.72 72.58,46.17 72.58,46.72 C72.58,47.27 73.03,47.72 73.58,47.72 L94.16,47.73 C94.16,47.73 94.16,47.73 94.16,47.73 C94.71,47.73 95.16,47.28 95.16,46.73 C95.16,46.18 94.71,45.73 94.16,45.73 Z M94.16,51.05 L73.58,51.04 C73.58,51.04 73.58,51.04 73.58,51.04 C73.03,51.04 72.58,51.49 72.58,52.04 C72.58,52.59 73.03,53.04 73.58,53.04 L94.16,53.05 C94.16,53.05 94.16,53.05 94.16,53.05 C94.71,53.05 95.16,52.6 95.16,52.05 C95.16,51.49 94.71,51.05 94.16,51.05 Z M94.16,56.36 L73.58,56.35 C73.58,56.35 73.58,56.35 73.58,56.35 C73.03,56.35 72.58,56.8 72.58,57.35 C72.58,57.9 73.03,58.35 73.58,58.35 L94.16,58.36 C94.16,58.36 94.16,58.36 94.16,58.36 C94.71,58.36 95.16,57.91 95.16,57.36 C95.16,56.81 94.71,56.36 94.16,56.36 Z M42.27,55.35 L5.52,55.35 C4.97,55.35 4.52,55.8 4.52,56.35 C4.52,56.9 4.97,57.35 5.52,57.35 L42.28,57.35 C42.83,57.35 43.28,56.9 43.28,56.35 C43.27,55.8 42.83,55.35 42.27,55.35 Z M41.34,59.26 L6.61,59.26 C5.5,59.26 4.61,60.16 4.61,61.26 L4.61,65.14 C4.61,66.24 5.5,67.14 6.61,67.14 L41.34,67.14 C42.45,67.14 43.34,66.24 43.34,65.14 L43.34,61.26 C43.34,60.15 42.45,59.26 41.34,59.26 Z M55.08,55.15 L49.08,55.15 C47.98,55.15 47.08,56.05 47.08,57.15 L47.08,65.15 C47.08,66.25 47.98,67.15 49.08,67.15 L55.08,67.15 C56.18,67.15 57.08,66.25 57.08,65.15 L57.08,57.15 C57.08,56.04 56.19,55.15 55.08,55.15 Z M55.08,55.15 L49.08,55.15 C47.98,55.15 47.08,56.05 47.08,57.15 L47.08,65.15 C47.08,66.25 47.98,67.15 49.08,67.15 L55.08,67.15 C56.18,67.15 57.08,66.25 57.08,65.15 L57.08,57.15 C57.08,56.04 56.19,55.15 55.08,55.15 Z M41.34,59.26 L6.61,59.26 C5.5,59.26 4.61,60.16 4.61,61.26 L4.61,65.14 C4.61,66.24 5.5,67.14 6.61,67.14 L41.34,67.14 C42.45,67.14 43.34,66.24 43.34,65.14 L43.34,61.26 C43.34,60.15 42.45,59.26 41.34,59.26 Z M5.52,57.35 L42.28,57.35 C42.83,57.35 43.28,56.9 43.28,56.35 C43.28,55.8 42.83,55.35 42.28,55.35 L5.52,55.35 C4.97,55.35 4.52,55.8 4.52,56.35 C4.52,56.9 4.97,57.35 5.52,57.35 Z M57.96,51.24 L3.05,51.24 C1.4,51.24 0.05,52.59 0.05,54.24 L0.05,67.96 C0.05,68.76 0.36,69.48 0.87,70.02 L0.99,70.14 C1.53,70.65 2.25,70.96 3.05,70.96 L57.96,70.96 C59.61,70.96 60.96,69.61 60.96,67.96 L60.96,54.24 C60.96,52.59 59.62,51.24 57.96,51.24 Z M58.96,67.97 C58.96,68.52 58.51,68.97 57.96,68.97 L3.05,68.97 C2.5,68.97 2.05,68.52 2.05,67.97 L2.05,54.24 C2.05,53.69 2.5,53.24 3.05,53.24 L57.96,53.24 C58.51,53.24 58.96,53.69 58.96,54.24 L58.96,67.97 Z M55.08,55.15 L49.08,55.15 C47.98,55.15 47.08,56.05 47.08,57.15 L47.08,65.15 C47.08,66.25 47.98,67.15 49.08,67.15 L55.08,67.15 C56.18,67.15 57.08,66.25 57.08,65.15 L57.08,57.15 C57.08,56.04 56.19,55.15 55.08,55.15 Z M41.34,59.26 L6.61,59.26 C5.5,59.26 4.61,60.16 4.61,61.26 L4.61,65.14 C4.61,66.24 5.5,67.14 6.61,67.14 L41.34,67.14 C42.45,67.14 43.34,66.24 43.34,65.14 L43.34,61.26 C43.34,60.15 42.45,59.26 41.34,59.26 Z M5.52,57.35 L42.28,57.35 C42.83,57.35 43.28,56.9 43.28,56.35 C43.28,55.8 42.83,55.35 42.28,55.35 L5.52,55.35 C4.97,55.35 4.52,55.8 4.52,56.35 C4.52,56.9 4.97,57.35 5.52,57.35 Z M42.27,55.35 L5.52,55.35 C4.97,55.35 4.52,55.8 4.52,56.35 C4.52,56.9 4.97,57.35 5.52,57.35 L42.28,57.35 C42.83,57.35 43.28,56.9 43.28,56.35 C43.27,55.8 42.83,55.35 42.27,55.35 Z M41.34,59.26 L6.61,59.26 C5.5,59.26 4.61,60.16 4.61,61.26 L4.61,65.14 C4.61,66.24 5.5,67.14 6.61,67.14 L41.34,67.14 C42.45,67.14 43.34,66.24 43.34,65.14 L43.34,61.26 C43.34,60.15 42.45,59.26 41.34,59.26 Z M55.08,55.15 L49.08,55.15 C47.98,55.15 47.08,56.05 47.08,57.15 L47.08,65.15 C47.08,66.25 47.98,67.15 49.08,67.15 L55.08,67.15 C56.18,67.15 57.08,66.25 57.08,65.15 L57.08,57.15 C57.08,56.04 56.19,55.15 55.08,55.15 Z M41.34,59.26 L6.61,59.26 C5.5,59.26 4.61,60.16 4.61,61.26 L4.61,65.14 C4.61,66.24 5.5,67.14 6.61,67.14 L41.34,67.14 C42.45,67.14 43.34,66.24 43.34,65.14 L43.34,61.26 C43.34,60.15 42.45,59.26 41.34,59.26 Z M55.08,55.15 L49.08,55.15 C47.98,55.15 47.08,56.05 47.08,57.15 L47.08,65.15 C47.08,66.25 47.98,67.15 49.08,67.15 L55.08,67.15 C56.18,67.15 57.08,66.25 57.08,65.15 L57.08,57.15 C57.08,56.04 56.19,55.15 55.08,55.15 Z M42.27,55.35 L5.52,55.35 C4.97,55.35 4.52,55.8 4.52,56.35 C4.52,56.9 4.97,57.35 5.52,57.35 L42.28,57.35 C42.83,57.35 43.28,56.9 43.28,56.35 C43.27,55.8 42.83,55.35 42.27,55.35 Z" fill="none" stroke="currentColor" stroke-width="1.5"/></svg>