<svg xmlns="http://www.w3.org/2000/svg" viewBox="0 0 140.0 140.0" width="24" height="24"><path d="M119.12,25.88 C119.66,26.42 120,27.17 120,28 C120,29.65 118.65,31 117,31 L115.56,31 L115.56,84 L117,84 C118.65,84 120,85.35 120,87 C120,88.65 118.65,90 117,90 L81.6,90 L92.64,104.13 L104.08,118.77 C104.76,119.64 104.61,120.9 103.73,121.58 C103.36,121.87 102.93,122 102.5,122 C101.91,122 101.32,121.74 100.92,121.23 L89.78,106.98 L76.53,90 L72,90 L72,120 C72,121.11 71.1,122 70,122 C68.9,122 68,121.11 68,120 L68,90 L63.47,90 L45.17,113.42 L39.07,121.23 C38.68,121.73 38.09,122 37.49,122 C37.06,122 36.63,121.86 36.26,121.58 C36.2,121.53 36.14,121.48 36.08,121.42 L54.67,140 L135,140 C137.76,140 140,137.76 140,135 L140,46.76 L119.12,25.88 Z M23,90 C22.17,90 21.42,89.66 20.88,89.12 L42.33,110.57 L58.4,90 L23,90 Z" fill="none" stroke="currentColor" stroke-width="1.5"/></svg>