<svg xmlns="http://www.w3.org/2000/svg" viewBox="0 0 100.0 104.0" width="24" height="24"><rect x="5.2" y="12" width="89.36" height="55" fill="none" stroke="currentColor"/><path d="M97,66 L95.56,66 L95.56,13 L97,13 C98.65,13 100,11.65 100,10 C100,9.17 99.66,8.42 99.12,7.88 C98.58,7.34 97.83,7 97,7 L52,7 L52,2 C52,1.45 51.78,0.95 51.41,0.59 C51.04,0.23 50.55,0 50,0 C48.9,0 48,0.9 48,2 L48,7 L3,7 C1.35,7 0,8.35 0,10 C0,11.65 1.35,13 3,13 L4.2,13 L4.2,66 L3,66 C1.35,66 0,67.35 0,69 C0,69.83 0.34,70.58 0.88,71.12 C1.42,71.66 2.17,72 3,72 L38.4,72 L22.33,92.57 L15.92,100.77 C15.29,101.58 15.38,102.72 16.09,103.42 C16.15,103.48 16.21,103.53 16.27,103.58 C16.64,103.87 17.07,104 17.5,104 C18.09,104 18.68,103.74 19.08,103.23 L25.18,95.42 L43.47,72 L48,72 L48,102 C48,103.11 48.9,104 50,104 C51.1,104 52,103.11 52,102 L52,72 L56.53,72 L69.79,88.98 L80.93,103.23 C81.32,103.73 81.91,104 82.51,104 C82.94,104 83.37,103.86 83.74,103.58 C84.61,102.9 84.77,101.64 84.09,100.77 L72.64,86.13 L61.6,72 L97,72 C98.65,72 100,70.65 100,69 C100,67.35 98.65,66 97,66 Z M93.56,66 L6.2,66 L6.2,13 L93.56,13 L93.56,66 Z" fill="none" stroke="currentColor" stroke-width="1.5"/></svg>