<svg xmlns="http://www.w3.org/2000/svg" viewBox="0 0 140.0 140.0" width="24" height="24"><path d="M92.52,21.21 C93.19,21.91 93.6,22.86 93.6,23.91 L93.6,111.96 C93.6,114.03 91.98,115.73 89.93,115.86 L89.93,118.7 C89.93,119.42 89.35,120 88.63,120 L51.36,120 C51.01,120 50.69,119.86 50.46,119.64 L50.42,119.6 L70.82,140 L135,140 C137.76,140 140,137.76 140,135 L140,68.69 L92.52,21.21 Z M47.72,114.89 L47.72,114.89 C47.66,114.83 47.6,114.78 47.54,114.72 L50.06,117.24 L50.06,115.86 C49.17,115.8 48.36,115.45 47.72,114.89 Z" fill="none" stroke="currentColor" stroke-width="1.5"/></svg>