<svg xmlns="http://www.w3.org/2000/svg" viewBox="0 0 47.21 100.0" width="24" height="24"><path d="M46.13,1.21 L46.1,1.18 L46.04,1.12 C46.03,1.11 46.01,1.09 46,1.08 C45.29,0.41 44.35,0 43.3,0 L3.91,0 C1.75,0 0,1.75 0,3.91 L0,91.96 C0,92.95 0.37,93.85 0.98,94.54 C1.03,94.6 1.09,94.66 1.15,94.72 C1.21,94.78 1.27,94.83 1.33,94.89 L1.33,94.89 C1.96,95.45 2.77,95.8 3.67,95.86 L3.67,98.7 C3.67,99.05 3.81,99.37 4.03,99.6 L4.07,99.64 C4.3,99.86 4.62,100 4.97,100 L42.24,100 C42.96,100 43.54,99.42 43.54,98.7 L43.54,95.86 C45.58,95.74 47.21,94.03 47.21,91.96 L47.21,3.91 C47.21,2.86 46.8,1.91 46.13,1.21 Z" fill="none" stroke="currentColor" stroke-width="1.5"/><path d="M42.76,25.98 L4.45,25.98 C3.9,25.98 3.45,26.43 3.45,26.98 L3.45,30.98 C3.45,31.53 3.9,31.98 4.45,31.98 L42.75,31.98 C43.3,31.98 43.75,31.53 43.75,30.98 L43.75,26.98 C43.76,26.42 43.31,25.98 42.76,25.98 Z M6.4,29.98 C6.4,30.53 5.95,30.98 5.4,30.98 L5.4,30.98 C4.85,30.98 4.4,30.53 4.4,29.98 L4.4,27.98 C4.4,27.43 4.85,26.98 5.4,26.98 L5.4,26.98 C5.95,26.98 6.4,27.43 6.4,27.98 L6.4,29.98 Z M42.8,29.98 C42.8,30.53 42.35,30.98 41.8,30.98 L41.8,30.98 C41.25,30.98 40.8,30.53 40.8,29.98 L40.8,27.98 C40.8,27.43 41.25,26.98 41.8,26.98 L41.8,26.98 C42.35,26.98 42.8,27.43 42.8,27.98 L42.8,29.98 Z M42.76,56.22 L4.45,56.22 C3.9,56.22 3.45,56.67 3.45,57.22 L3.45,61.22 C3.45,61.77 3.9,62.22 4.45,62.22 L42.75,62.22 C43.3,62.22 43.75,61.77 43.75,61.22 L43.75,57.22 C43.76,56.67 43.31,56.22 42.76,56.22 Z M6.4,60.22 C6.4,60.77 5.95,61.22 5.4,61.22 L5.4,61.22 C4.85,61.22 4.4,60.77 4.4,60.22 L4.4,58.22 C4.4,57.67 4.85,57.22 5.4,57.22 L5.4,57.22 C5.95,57.22 6.4,57.67 6.4,58.22 L6.4,60.22 Z M42.8,60.22 C42.8,60.77 42.35,61.22 41.8,61.22 L41.8,61.22 C41.25,61.22 40.8,60.77 40.8,60.22 L40.8,58.22 C40.8,57.67 41.25,57.22 41.8,57.22 L41.8,57.22 C42.35,57.22 42.8,57.67 42.8,58.22 L42.8,60.22 Z M42.76,33.54 L4.45,33.54 C3.9,33.54 3.45,33.99 3.45,34.54 L3.45,38.54 C3.45,39.09 3.9,39.54 4.45,39.54 L42.75,39.54 C43.3,39.54 43.75,39.09 43.75,38.54 L43.75,34.54 C43.76,33.98 43.31,33.54 42.76,33.54 Z M6.4,37.54 C6.4,38.09 5.95,38.54 5.4,38.54 L5.4,38.54 C4.85,38.54 4.4,38.09 4.4,37.54 L4.4,35.54 C4.4,34.99 4.85,34.54 5.4,34.54 L5.4,34.54 C5.95,34.54 6.4,34.99 6.4,35.54 L6.4,37.54 Z M42.8,37.54 C42.8,38.09 42.35,38.54 41.8,38.54 L41.8,38.54 C41.25,38.54 40.8,38.09 40.8,37.54 L40.8,35.54 C40.8,34.99 41.25,34.54 41.8,34.54 L41.8,34.54 C42.35,34.54 42.8,34.99 42.8,35.54 L42.8,37.54 Z M42.76,41.1 L4.45,41.1 C3.9,41.1 3.45,41.55 3.45,42.1 L3.45,46.1 C3.45,46.65 3.9,47.1 4.45,47.1 L42.75,47.1 C43.3,47.1 43.75,46.65 43.75,46.1 L43.75,42.1 C43.76,41.55 43.31,41.1 42.76,41.1 Z M6.4,45.1 C6.4,45.65 5.95,46.1 5.4,46.1 L5.4,46.1 C4.85,46.1 4.4,45.65 4.4,45.1 L4.4,43.1 C4.4,42.55 4.85,42.1 5.4,42.1 L5.4,42.1 C5.95,42.1 6.4,42.55 6.4,43.1 L6.4,45.1 Z M42.8,45.1 C42.8,45.65 42.35,46.1 41.8,46.1 L41.8,46.1 C41.25,46.1 40.8,45.65 40.8,45.1 L40.8,43.1 C40.8,42.55 41.25,42.1 41.8,42.1 L41.8,42.1 C42.35,42.1 42.8,42.55 42.8,43.1 L42.8,45.1 Z M42.76,78.9 L4.45,78.9 C3.9,78.9 3.45,79.35 3.45,79.9 L3.45,83.9 C3.45,84.45 3.9,84.9 4.45,84.9 L42.75,84.9 C43.3,84.9 43.75,84.45 43.75,83.9 L43.75,79.9 C43.76,79.35 43.31,78.9 42.76,78.9 Z M6.4,82.9 C6.4,83.45 5.95,83.9 5.4,83.9 L5.4,83.9 C4.85,83.9 4.4,83.45 4.4,82.9 L4.4,80.9 C4.4,80.35 4.85,79.9 5.4,79.9 L5.4,79.9 C5.95,79.9 6.4,80.35 6.4,80.9 L6.4,82.9 Z M42.8,82.9 C42.8,83.45 42.35,83.9 41.8,83.9 L41.8,83.9 C41.25,83.9 40.8,83.45 40.8,82.9 L40.8,80.9 C40.8,80.35 41.25,79.9 41.8,79.9 L41.8,79.9 C42.35,79.9 42.8,80.35 42.8,80.9 L42.8,82.9 Z M42.76,86.46 L4.45,86.46 C3.9,86.46 3.45,86.91 3.45,87.46 L3.45,91.46 C3.45,92.01 3.9,92.46 4.45,92.46 L42.75,92.46 C43.3,92.46 43.75,92.01 43.75,91.46 L43.75,87.46 C43.76,86.91 43.31,86.46 42.76,86.46 Z M6.4,90.46 C6.4,91.01 5.95,91.46 5.4,91.46 L5.4,91.46 C4.85,91.46 4.4,91.01 4.4,90.46 L4.4,88.46 C4.4,87.91 4.85,87.46 5.4,87.46 L5.4,87.46 C5.95,87.46 6.4,87.91 6.4,88.46 L6.4,90.46 Z M42.8,90.46 C42.8,91.01 42.35,91.46 41.8,91.46 L41.8,91.46 C41.25,91.46 40.8,91.01 40.8,90.46 L40.8,88.46 C40.8,87.91 41.25,87.46 41.8,87.46 L41.8,87.46 C42.35,87.46 42.8,87.91 42.8,88.46 L42.8,90.46 Z M42.76,71.34 L4.45,71.34 C3.9,71.34 3.45,71.79 3.45,72.34 L3.45,76.34 C3.45,76.89 3.9,77.34 4.45,77.34 L42.75,77.34 C43.3,77.34 43.75,76.89 43.75,76.34 L43.75,72.34 C43.76,71.79 43.31,71.34 42.76,71.34 Z M6.4,75.34 C6.4,75.89 5.95,76.34 5.4,76.34 L5.4,76.34 C4.85,76.34 4.4,75.89 4.4,75.34 L4.4,73.34 C4.4,72.79 4.85,72.34 5.4,72.34 L5.4,72.34 C5.95,72.34 6.4,72.79 6.4,73.34 L6.4,75.34 Z M42.8,75.34 C42.8,75.89 42.35,76.34 41.8,76.34 L41.8,76.34 C41.25,76.34 40.8,75.89 40.8,75.34 L40.8,73.34 C40.8,72.79 41.25,72.34 41.8,72.34 L41.8,72.34 C42.35,72.34 42.8,72.79 42.8,73.34 L42.8,75.34 Z M42.76,63.78 L4.45,63.78 C3.9,63.78 3.45,64.23 3.45,64.78 L3.45,68.78 C3.45,69.33 3.9,69.78 4.45,69.78 L42.75,69.78 C43.3,69.78 43.75,69.33 43.75,68.78 L43.75,64.78 C43.76,64.23 43.31,63.78 42.76,63.78 Z M6.4,67.78 C6.4,68.33 5.95,68.78 5.4,68.78 L5.4,68.78 C4.85,68.78 4.4,68.33 4.4,67.78 L4.4,65.78 C4.4,65.23 4.85,64.78 5.4,64.78 L5.4,64.78 C5.95,64.78 6.4,65.23 6.4,65.78 L6.4,67.78 Z M42.8,67.78 C42.8,68.33 42.35,68.78 41.8,68.78 L41.8,68.78 C41.25,68.78 40.8,68.33 40.8,67.78 L40.8,65.78 C40.8,65.23 41.25,64.78 41.8,64.78 L41.8,64.78 C42.35,64.78 42.8,65.23 42.8,65.78 L42.8,67.78 Z M42.76,48.66 L4.45,48.66 C3.9,48.66 3.45,49.11 3.45,49.66 L3.45,53.66 C3.45,54.21 3.9,54.66 4.45,54.66 L42.75,54.66 C43.3,54.66 43.75,54.21 43.75,53.66 L43.75,49.66 C43.76,49.11 43.31,48.66 42.76,48.66 Z M6.4,52.66 C6.4,53.21 5.95,53.66 5.4,53.66 L5.4,53.66 C4.85,53.66 4.4,53.21 4.4,52.66 L4.4,50.66 C4.4,50.11 4.85,49.66 5.4,49.66 L5.4,49.66 C5.95,49.66 6.4,50.11 6.4,50.66 L6.4,52.66 Z M42.8,52.66 C42.8,53.21 42.35,53.66 41.8,53.66 L41.8,53.66 C41.25,53.66 40.8,53.21 40.8,52.66 L40.8,50.66 C40.8,50.11 41.25,49.66 41.8,49.66 L41.8,49.66 C42.35,49.66 42.8,50.11 42.8,50.66 L42.8,52.66 Z M42.76,18.41 L4.45,18.41 C3.9,18.41 3.45,18.86 3.45,19.41 L3.45,23.41 C3.45,23.96 3.9,24.41 4.45,24.41 L42.75,24.41 C43.3,24.41 43.75,23.96 43.75,23.41 L43.75,19.41 C43.76,18.86 43.31,18.41 42.76,18.41 Z M6.4,22.41 C6.4,22.96 5.95,23.41 5.4,23.41 L5.4,23.41 C4.85,23.41 4.4,22.96 4.4,22.41 L4.4,20.41 C4.4,19.86 4.85,19.41 5.4,19.41 L5.4,19.41 C5.95,19.41 6.4,19.86 6.4,20.41 L6.4,22.41 Z M42.8,22.41 C42.8,22.96 42.35,23.41 41.8,23.41 L41.8,23.41 C41.25,23.41 40.8,22.96 40.8,22.41 L40.8,20.41 C40.8,19.86 41.25,19.41 41.8,19.41 L41.8,19.41 C42.35,19.41 42.8,19.86 42.8,20.41 L42.8,22.41 Z M42.76,3.29 L4.45,3.29 C3.9,3.29 3.45,3.74 3.45,4.29 L3.45,8.29 C3.45,8.84 3.9,9.29 4.45,9.29 L42.75,9.29 C43.3,9.29 43.75,8.84 43.75,8.29 L43.75,4.29 C43.76,3.74 43.31,3.29 42.76,3.29 Z M6.4,7.29 C6.4,7.84 5.95,8.29 5.4,8.29 L5.4,8.29 C4.85,8.29 4.4,7.84 4.4,7.29 L4.4,5.29 C4.4,4.74 4.85,4.29 5.4,4.29 L5.4,4.29 C5.95,4.29 6.4,4.74 6.4,5.29 L6.4,7.29 Z M42.8,7.29 C42.8,7.84 42.35,8.29 41.8,8.29 L41.8,8.29 C41.25,8.29 40.8,7.84 40.8,7.29 L40.8,5.29 C40.8,4.74 41.25,4.29 41.8,4.29 L41.8,4.29 C42.35,4.29 42.8,4.74 42.8,5.29 L42.8,7.29 Z M42.76,10.85 L4.45,10.85 C3.9,10.85 3.45,11.3 3.45,11.85 L3.45,15.85 C3.45,16.4 3.9,16.85 4.45,16.85 L42.75,16.85 C43.3,16.85 43.75,16.4 43.75,15.85 L43.75,11.85 C43.76,11.3 43.31,10.85 42.76,10.85 Z M6.4,14.85 C6.4,15.4 5.95,15.85 5.4,15.85 L5.4,15.85 C4.85,15.85 4.4,15.4 4.4,14.85 L4.4,12.85 C4.4,12.3 4.85,11.85 5.4,11.85 L5.4,11.85 C5.95,11.85 6.4,12.3 6.4,12.85 L6.4,14.85 Z M42.8,14.85 C42.8,15.4 42.35,15.85 41.8,15.85 L41.8,15.85 C41.25,15.85 40.8,15.4 40.8,14.85 L40.8,12.85 C40.8,12.3 41.25,11.85 41.8,11.85 L41.8,11.85 C42.35,11.85 42.8,12.3 42.8,12.85 L42.8,14.85 Z" fill="none" stroke="currentColor" stroke-width="1.5"/></svg>