<svg xmlns="http://www.w3.org/2000/svg" viewBox="0 0 115.53 97.41" width="24" height="24"><path d="M78.93,24.62 L62.19,53.62 L42.79,42.42 L59.53,13.42 C60.22,12.23 61.73,11.83 62.92,12.51 L78.02,21.23 C79.2,21.92 79.61,23.44 78.93,24.62 Z M62.18,53.62 L42.78,42.42 L35.24,43.88 L64.68,60.88 L62.18,53.62 Z M63.46,89.18 C66.41,76.08 60.71,62.04 48.47,54.98 C36.23,47.92 21.22,49.99 11.35,59.1 L63.46,89.18 Z M1.69,17 L38.93,38.5 C39.41,38.78 40.02,38.61 40.3,38.13 L48.3,24.27 C48.58,23.79 48.41,23.18 47.93,22.9 L10.69,1.41 C10.21,1.14 9.6,1.3 9.32,1.78 L1.32,15.64 C1.05,16.11 1.21,16.73 1.69,17 Z M67.51,55 L104.75,76.5 C105.23,76.78 105.84,76.61 106.12,76.13 L114.12,62.27 C114.4,61.79 114.23,61.18 113.75,60.9 L76.51,39.4 C76.03,39.12 75.42,39.29 75.14,39.77 L67.14,53.63 C66.87,54.11 67.03,54.73 67.51,55 Z" fill="none" stroke="currentColor" stroke-width="1.5"/><path d="M35.1,91.15 C32.78,91.77 30.26,91.47 28.12,90.23 C25.2,88.55 23.44,85.41 23.52,82.04 L25.52,82.09 C25.46,84.73 26.84,87.19 29.12,88.5 C31.4,89.82 34.22,89.78 36.47,88.41 L37.51,90.12 C36.75,90.58 35.94,90.92 35.1,91.15 Z M40.36,94.78 L39.32,93.07 C38.27,93.71 37.15,94.18 36,94.49 C32.8,95.35 29.34,94.93 26.38,93.22 C22.36,90.9 19.94,86.58 20.05,81.94 L18.05,81.89 C17.92,87.26 20.73,92.27 25.38,94.95 C28.8,96.92 32.81,97.41 36.51,96.42 C37.85,96.07 39.15,95.52 40.36,94.78 Z M114.98,62.78 L106.98,76.64 C106.7,77.12 106.26,77.44 105.77,77.57 C105.28,77.7 104.73,77.65 104.25,77.37 L67.01,55.87 C66.06,55.32 65.73,54.09 66.28,53.14 L67.28,51.41 L65.29,50.26 L63.29,53.73 L65.65,60.56 L65.65,60.57 C65.67,60.64 65.69,60.71 65.69,60.79 C65.69,60.81 65.69,60.83 65.7,60.84 C65.7,60.94 65.69,61.03 65.67,61.12 C65.67,61.14 65.66,61.17 65.65,61.19 C65.64,61.21 65.63,61.23 65.63,61.26 C65.62,61.28 65.61,61.3 65.6,61.32 C65.59,61.34 65.57,61.37 65.56,61.39 L61.84,67.83 C62.1,68.36 62.35,68.89 62.58,69.43 C63.92,72.55 64.76,75.84 65.08,79.22 C65.4,82.64 65.19,86.07 64.43,89.41 C64.36,89.72 64.15,89.98 63.86,90.11 C63.81,90.13 63.77,90.15 63.72,90.16 C63.47,90.23 63.19,90.19 62.96,90.06 L41.46,77.64 L37.77,75.51 L35,80.31 C35.8,81.25 35.97,82.63 35.32,83.76 C35.3,83.79 35.29,83.82 35.27,83.85 C34.85,84.52 34.21,84.97 33.5,85.16 C32.76,85.36 31.94,85.27 31.22,84.86 C30.99,84.73 30.79,84.57 30.62,84.4 L30.57,84.35 C29.66,83.41 29.45,81.95 30.13,80.77 C30.31,80.46 30.54,80.19 30.8,79.97 C31.48,79.4 32.4,79.16 33.27,79.32 L36.04,74.52 L10.85,59.97 C10.78,59.93 10.72,59.88 10.66,59.83 C10.49,59.67 10.38,59.45 10.35,59.22 C10.32,58.9 10.43,58.59 10.67,58.37 C13.19,56.05 16.05,54.15 19.17,52.72 C22.25,51.31 25.53,50.39 28.9,49.99 C29.49,49.92 30.07,49.87 30.66,49.83 L31.53,48.32 L33.25,45.33 L34.37,43.39 C34.4,43.34 34.43,43.3 34.46,43.26 C34.47,43.24 34.49,43.23 34.5,43.21 C34.51,43.2 34.53,43.18 34.54,43.17 C34.54,43.17 34.54,43.17 34.54,43.17 C34.56,43.15 34.58,43.13 34.6,43.12 C34.62,43.11 34.64,43.09 34.66,43.08 C34.68,43.07 34.7,43.05 34.72,43.04 C34.76,43.01 34.8,42.99 34.85,42.97 C34.87,42.96 34.9,42.95 34.92,42.94 C34.96,42.93 35,42.92 35.04,42.91 L35.06,42.91 L42.15,41.54 L44.16,38.07 L42.17,36.92 L41.17,38.65 C40.89,39.13 40.45,39.45 39.96,39.58 C39.47,39.71 38.92,39.66 38.44,39.38 L26.61,32.55 L1.19,17.87 C1.05,17.79 0.92,17.69 0.81,17.59 L0.76,17.54 C0.15,16.92 0,15.93 0.45,15.14 L8.46,1.28 C9.01,0.32 10.23,0 11.19,0.55 L41.24,17.9 L48.43,22.05 C48.59,22.14 48.73,22.25 48.86,22.38 C49.47,23 49.62,23.99 49.16,24.78 L48.16,26.51 L50.15,27.66 L51.61,25.13 L58.66,12.92 C59.13,12.11 59.88,11.54 60.78,11.3 C61.68,11.06 62.62,11.18 63.42,11.65 L65.96,13.12 L67.31,8.41 C67.4,8.11 67.61,7.87 67.9,7.76 C68.19,7.64 68.51,7.67 68.77,7.82 L79.16,13.82 C79.23,13.86 79.29,13.9 79.34,13.96 C79.35,13.97 79.37,13.99 79.38,14 C79.52,14.15 79.62,14.34 79.65,14.55 C79.69,14.86 79.59,15.16 79.38,15.38 L75.97,18.91 L78.51,20.38 C79.32,20.85 79.89,21.6 80.13,22.5 C80.37,23.4 80.25,24.34 79.78,25.14 L71.27,39.88 L73.26,41.03 L74.26,39.3 C74.81,38.34 76.04,38.02 76.99,38.57 L114.23,60.07 C115.2,60.6 115.53,61.82 114.98,62.78 Z M95.49,51.53 L91.99,57.59 L100,62.21 L103.5,56.15 L95.49,51.53 Z M85.75,45.9 L82.25,51.96 L90.26,56.59 L93.76,50.53 L85.75,45.9 Z M72.51,46.34 L80.52,50.97 L84.02,44.91 L76.01,40.28 L75.01,42.01 L72.51,46.34 Z M29.67,13.53 L26.17,19.59 L34.19,24.22 L37.69,18.16 L29.67,13.53 Z M19.93,7.9 L16.43,13.96 L24.44,18.58 L27.94,12.52 L19.93,7.9 Z M6.69,8.34 L14.7,12.96 L18.2,6.9 L10.19,2.28 L6.69,8.34 Z M10.2,20.76 L13.7,14.7 L5.69,10.07 L2.19,16.14 L10.2,20.76 Z M19.94,26.39 L23.44,20.33 L15.43,15.7 L11.93,21.76 L19.94,26.39 Z M29.69,32.01 L33.19,25.95 L25.18,21.32 L21.68,27.38 L28.07,31.07 L29.69,32.01 Z M42.93,31.57 L34.92,26.94 L31.42,33 L39.43,37.62 L40.43,35.89 L42.93,31.57 Z M46.43,25.51 L47.43,23.78 L39.78,19.36 L39.42,19.15 L38.65,20.48 L35.92,25.21 L43.93,29.83 L46.43,25.51 Z M60.52,69.62 C57.96,63.98 53.66,59.13 47.97,55.84 C45.66,54.51 43.23,53.5 40.75,52.81 C37.14,51.81 33.42,51.5 29.76,51.86 C23.74,52.44 17.9,54.83 13.05,58.93 L42.93,76.18 L62.75,87.63 C63.88,81.37 63.02,75.12 60.52,69.62 Z M62.87,58.68 L61.36,54.3 L42.69,43.52 L42.61,43.48 L38.07,44.36 L40.47,45.75 L62.87,58.68 Z M69.55,38.86 L78.06,24.12 C78.16,23.95 78.22,23.76 78.25,23.57 C78.28,23.38 78.26,23.18 78.21,22.99 C78.11,22.61 77.86,22.29 77.52,22.09 L66.08,15.48 L62.43,13.37 C61.72,12.96 60.81,13.2 60.4,13.91 L53.08,26.58 L51.89,28.64 L45.89,39.03 L44.16,42.03 L61.83,52.23 L63.56,49.23 L69.55,38.86 Z M76.02,58.76 L79.52,52.7 L71.51,48.08 L69.01,52.41 L68.01,54.14 L76.02,58.76 Z M85.76,64.39 L89.26,58.33 L81.25,53.7 L77.75,59.76 L85.76,64.39 Z M95.5,70.01 L99,63.95 L90.99,59.32 L87.49,65.38 L95.5,70.01 Z M108.75,69.57 L100.74,64.94 L97.24,71 L105.25,75.62 L108.75,69.57 Z M113.25,61.78 L105.24,57.16 L101.74,63.22 L109.75,67.84 L113.25,61.78 Z" fill="none" stroke="currentColor" stroke-width="1.5"/></svg>