<svg xmlns="http://www.w3.org/2000/svg" viewBox="0 0 100.65 99.57" width="24" height="24"><path d="M21.55,4.51 C17.65,12.09 15.45,20.69 15.45,29.8 C15.45,60.39 40.25,85.19 70.84,85.19 C79.95,85.19 88.55,82.99 96.13,79.09 L21.55,4.51 Z" fill="none" stroke="currentColor" stroke-width="1.5"/><path d="M91.25,30.8 C90.7,30.8 90.25,30.35 90.25,29.8 C90.25,19.1 81.55,10.4 70.85,10.4 C70.3,10.4 69.85,9.95 69.85,9.4 C69.85,8.85 70.3,8.4 70.85,8.4 C76.57,8.4 81.94,10.63 85.98,14.67 C90.02,18.71 92.25,24.09 92.25,29.8 C92.25,30.35 91.8,30.8 91.25,30.8 Z M83.85,29.8 C83.85,22.63 78.02,16.8 70.85,16.8 C70.3,16.8 69.85,17.25 69.85,17.8 C69.85,18.35 70.3,18.8 70.85,18.8 C76.92,18.8 81.85,23.73 81.85,29.8 C81.85,30.35 82.3,30.8 82.85,30.8 C83.4,30.8 83.85,30.35 83.85,29.8 Z M100.65,29.8 C100.65,21.84 97.55,14.36 91.92,8.73 C86.29,3.1 78.81,0 70.85,0 C70.3,0 69.85,0.45 69.85,1 C69.85,1.55 70.3,2 70.85,2 C86.18,2 98.65,14.47 98.65,29.8 C98.65,30.35 99.1,30.8 99.65,30.8 C100.2,30.8 100.65,30.35 100.65,29.8 Z M96.84,78.38 L71.84,53.38 L71.84,34.28 C73.9,33.82 75.44,31.98 75.44,29.79 C75.44,28.59 74.98,27.49 74.22,26.67 C74.14,26.58 74.05,26.49 73.96,26.41 C73.14,25.65 72.04,25.19 70.84,25.19 C68.65,25.19 66.81,26.73 66.35,28.79 L47.25,28.79 L22.25,3.79 C22.02,3.56 21.7,3.46 21.39,3.51 C21.08,3.56 20.8,3.76 20.66,4.04 C18.65,7.94 17.11,12.08 16.07,16.33 C15,20.71 14.45,25.24 14.45,29.79 C14.45,37.4 15.94,44.79 18.88,51.74 C19.85,54.03 20.96,56.24 22.21,58.37 C24.43,62.14 27.09,65.65 30.15,68.84 L16.41,93.57 L3.5,93.57 C1.57,93.57 0,95.14 0,97.07 L0,98.57 C0,98.85 0.11,99.1 0.29,99.28 C0.47,99.46 0.72,99.57 1,99.57 L81,99.57 C81.55,99.57 82,99.12 82,98.57 L82,97.07 C82,95.14 80.43,93.57 78.5,93.57 L65.59,93.57 L61.01,85.33 C64.23,85.9 67.52,86.18 70.85,86.18 C75.4,86.18 79.93,85.64 84.31,84.56 C88.57,83.52 92.7,81.97 96.6,79.97 C96.88,79.82 97.08,79.55 97.13,79.24 C97.17,78.93 97.07,78.61 96.84,78.38 Z M68.25,33.6 C68.72,33.92 69.26,34.16 69.84,34.29 L69.84,51.39 L59.89,41.44 L68.25,33.6 Z M66.36,30.8 C66.47,31.28 66.65,31.73 66.89,32.14 L58.48,40.02 L49.26,30.8 L66.36,30.8 Z M70.84,84.19 C67.03,84.19 63.32,83.8 59.73,83.05 C48.6,80.73 38.7,75 31.2,67 C28.33,63.94 25.81,60.56 23.7,56.91 C19.09,48.93 16.45,39.67 16.45,29.81 C16.45,21.52 18.26,13.59 21.82,6.21 L94.44,78.83 C87.07,82.38 79.13,84.19 70.84,84.19 Z" fill="none" stroke="currentColor" stroke-width="1.5"/></svg>