<svg xmlns="http://www.w3.org/2000/svg" viewBox="0 0 140.0 140.0" width="24" height="24"><path d="M140,62.71 L140,135 C140,137.76 137.76,140 135,140 L62.71,140 L20.9,98.2 C21.44,98.73 22.18,99.06 23,99.06 L117,99.06 C118.65,99.06 120,97.71 120,96.06 L120,84.06 C120,82.41 118.65,81.06 117,81.06 L23.81,81.06 L20.88,78.13 C21.42,78.66 22.17,79 23,79 L117,79 C118.65,79 120,77.65 120,76 L120,64 C120,62.35 118.65,61 117,61 L23.82,61 L20.94,58.12 C21.48,58.64 22.21,58.95 23.01,58.95 L117.01,58.95 C118.66,58.95 120.01,57.6 120.01,55.95 L120.01,43.95 C120.01,43.13 119.68,42.39 119.15,41.85 L140,62.71 Z" fill="none" stroke="currentColor" stroke-width="1.5"/></svg>