<svg xmlns="http://www.w3.org/2000/svg" viewBox="0 0 140.0 140.0" width="24" height="24"><path d="M140,48.42 L140,135 C140,137.76 137.76,140 135,140 L49.35,140 L28.38,119.03 C29.01,119.63 29.86,120 30.79,120 L109.26,120 C110.12,120 110.9,119.69 111.51,119.18 C112.27,118.54 112.76,117.58 112.76,116.5 L112.76,96.21 C112.76,94.28 111.19,92.71 109.26,92.71 L49.95,92.71 L34.76,77.53 L27.81,70.58 C28.17,70.94 28.67,71.17 29.22,71.17 L61.9,71.17 L61.9,80.28 L51.2,80.28 C50.65,80.28 50.2,80.73 50.2,81.28 L50.2,82.5 C50.2,83.05 50.65,83.5 51.2,83.5 L89.08,83.5 C89.63,83.5 90.08,83.05 90.08,82.5 L90.08,81.28 C90.08,80.73 89.63,80.28 89.08,80.28 L78.3,80.28 L78.3,71.17 L110.75,71.17 C111.85,71.17 112.75,70.27 112.75,69.17 L112.75,22 C112.75,21.45 112.53,20.95 112.17,20.59 L140,48.42 Z" fill="none" stroke="currentColor" stroke-width="1.5"/></svg>