<svg xmlns="http://www.w3.org/2000/svg" viewBox="0 0 85.54 100.0" width="24" height="24"><path d="M83.52,50.17 L2,50.17 C1.45,50.17 1,49.72 1,49.17 L1,2 C1,1.45 1.45,1 2,1 L83.52,1 C84.07,1 84.52,1.45 84.52,2 L84.52,49.17 C84.52,49.72 84.07,50.17 83.52,50.17 Z M84.54,96.5 L84.54,76.21 C84.54,74.83 83.42,73.71 82.04,73.71 L3.57,73.71 C2.19,73.71 1.07,74.83 1.07,76.21 L1.07,96.5 C1.07,97.88 2.19,99 3.57,99 L82.04,99 C83.42,99 84.54,97.88 84.54,96.5 Z" fill="none" stroke="currentColor" stroke-width="1.5"/><path d="M58.8,78.8 L7.2,78.8 C6.65,78.8 6.2,79.25 6.2,79.8 C6.2,80.35 6.65,80.8 7.2,80.8 L58.8,80.8 C59.35,80.8 59.8,80.35 59.8,79.8 C59.8,79.25 59.35,78.8 58.8,78.8 Z M57.61,84.21 L8.7,84.21 C7.32,84.21 6.2,85.33 6.2,86.71 L6.2,92.15 C6.2,93.53 7.32,94.65 8.7,94.65 L57.61,94.65 C58.99,94.65 60.11,93.53 60.11,92.15 L60.11,86.71 C60.11,85.33 58.99,84.21 57.61,84.21 Z M76.91,78.44 L68.54,78.44 C67.16,78.44 66.04,79.56 66.04,80.94 L66.04,92.16 C66.04,93.54 67.16,94.66 68.54,94.66 L76.91,94.66 C77.69,94.66 78.39,94.3 78.85,93.74 C79.2,93.31 79.41,92.76 79.41,92.16 L79.41,80.94 C79.41,79.56 78.29,78.44 76.91,78.44 Z M76.91,78.44 L68.54,78.44 C67.16,78.44 66.04,79.56 66.04,80.94 L66.04,92.16 C66.04,93.54 67.16,94.66 68.54,94.66 L76.91,94.66 C77.69,94.66 78.39,94.3 78.85,93.74 C79.2,93.31 79.41,92.76 79.41,92.16 L79.41,80.94 C79.41,79.56 78.29,78.44 76.91,78.44 Z M57.61,84.21 L8.7,84.21 C7.32,84.21 6.2,85.33 6.2,86.71 L6.2,92.15 C6.2,93.53 7.32,94.65 8.7,94.65 L57.61,94.65 C58.99,94.65 60.11,93.53 60.11,92.15 L60.11,86.71 C60.11,85.33 58.99,84.21 57.61,84.21 Z M58.8,78.8 L7.2,78.8 C6.65,78.8 6.2,79.25 6.2,79.8 C6.2,80.35 6.65,80.8 7.2,80.8 L58.8,80.8 C59.35,80.8 59.8,80.35 59.8,79.8 C59.8,79.25 59.35,78.8 58.8,78.8 Z M58.8,78.8 L7.2,78.8 C6.65,78.8 6.2,79.25 6.2,79.8 C6.2,80.35 6.65,80.8 7.2,80.8 L58.8,80.8 C59.35,80.8 59.8,80.35 59.8,79.8 C59.8,79.25 59.35,78.8 58.8,78.8 Z M57.61,84.21 L8.7,84.21 C7.32,84.21 6.2,85.33 6.2,86.71 L6.2,92.15 C6.2,93.53 7.32,94.65 8.7,94.65 L57.61,94.65 C58.99,94.65 60.11,93.53 60.11,92.15 L60.11,86.71 C60.11,85.33 58.99,84.21 57.61,84.21 Z M76.91,78.44 L68.54,78.44 C67.16,78.44 66.04,79.56 66.04,80.94 L66.04,92.16 C66.04,93.54 67.16,94.66 68.54,94.66 L76.91,94.66 C77.69,94.66 78.39,94.3 78.85,93.74 C79.2,93.31 79.41,92.76 79.41,92.16 L79.41,80.94 C79.41,79.56 78.29,78.44 76.91,78.44 Z M76.91,78.44 L68.54,78.44 C67.16,78.44 66.04,79.56 66.04,80.94 L66.04,92.16 C66.04,93.54 67.16,94.66 68.54,94.66 L76.91,94.66 C77.69,94.66 78.39,94.3 78.85,93.74 C79.2,93.31 79.41,92.76 79.41,92.16 L79.41,80.94 C79.41,79.56 78.29,78.44 76.91,78.44 Z M57.61,84.21 L8.7,84.21 C7.32,84.21 6.2,85.33 6.2,86.71 L6.2,92.15 C6.2,93.53 7.32,94.65 8.7,94.65 L57.61,94.65 C58.99,94.65 60.11,93.53 60.11,92.15 L60.11,86.71 C60.11,85.33 58.99,84.21 57.61,84.21 Z M7.2,80.8 L58.8,80.8 C59.35,80.8 59.8,80.35 59.8,79.8 C59.8,79.25 59.35,78.8 58.8,78.8 L7.2,78.8 C6.65,78.8 6.2,79.25 6.2,79.8 C6.2,80.35 6.65,80.8 7.2,80.8 Z M82.04,72.71 L3.57,72.71 C1.64,72.71 0.07,74.28 0.07,76.21 L0.07,96.5 C0.07,97.43 0.44,98.28 1.04,98.91 L1.16,99.03 C1.79,99.63 2.64,100 3.57,100 L82.04,100 C82.9,100 83.68,99.69 84.29,99.18 C85.05,98.54 85.54,97.58 85.54,96.5 L85.54,76.21 C85.54,74.28 83.97,72.71 82.04,72.71 Z M82.04,98 L3.57,98 C2.74,98 2.07,97.33 2.07,96.5 L2.07,76.21 C2.07,75.38 2.74,74.71 3.57,74.71 L82.04,74.71 C82.87,74.71 83.54,75.38 83.54,76.21 L83.54,96.5 C83.54,97.02 83.27,97.48 82.86,97.75 C82.62,97.91 82.34,98 82.04,98 Z M76.91,78.44 L68.54,78.44 C67.16,78.44 66.04,79.56 66.04,80.94 L66.04,92.16 C66.04,93.54 67.16,94.66 68.54,94.66 L76.91,94.66 C77.69,94.66 78.39,94.3 78.85,93.74 C79.2,93.31 79.41,92.76 79.41,92.16 L79.41,80.94 C79.41,79.56 78.29,78.44 76.91,78.44 Z M57.61,84.21 L8.7,84.21 C7.32,84.21 6.2,85.33 6.2,86.71 L6.2,92.15 C6.2,93.53 7.32,94.65 8.7,94.65 L57.61,94.65 C58.99,94.65 60.11,93.53 60.11,92.15 L60.11,86.71 C60.11,85.33 58.99,84.21 57.61,84.21 Z M7.2,80.8 L58.8,80.8 C59.35,80.8 59.8,80.35 59.8,79.8 C59.8,79.25 59.35,78.8 58.8,78.8 L7.2,78.8 C6.65,78.8 6.2,79.25 6.2,79.8 C6.2,80.35 6.65,80.8 7.2,80.8 Z M58.8,78.8 L7.2,78.8 C6.65,78.8 6.2,79.25 6.2,79.8 C6.2,80.35 6.65,80.8 7.2,80.8 L58.8,80.8 C59.35,80.8 59.8,80.35 59.8,79.8 C59.8,79.25 59.35,78.8 58.8,78.8 Z M57.61,84.21 L8.7,84.21 C7.32,84.21 6.2,85.33 6.2,86.71 L6.2,92.15 C6.2,93.53 7.32,94.65 8.7,94.65 L57.61,94.65 C58.99,94.65 60.11,93.53 60.11,92.15 L60.11,86.71 C60.11,85.33 58.99,84.21 57.61,84.21 Z M76.91,78.44 L68.54,78.44 C67.16,78.44 66.04,79.56 66.04,80.94 L66.04,92.16 C66.04,93.54 67.16,94.66 68.54,94.66 L76.91,94.66 C77.69,94.66 78.39,94.3 78.85,93.74 C79.2,93.31 79.41,92.76 79.41,92.16 L79.41,80.94 C79.41,79.56 78.29,78.44 76.91,78.44 Z M76.91,78.44 L68.54,78.44 C67.16,78.44 66.04,79.56 66.04,80.94 L66.04,92.16 C66.04,93.54 67.16,94.66 68.54,94.66 L76.91,94.66 C77.69,94.66 78.39,94.3 78.85,93.74 C79.2,93.31 79.41,92.76 79.41,92.16 L79.41,80.94 C79.41,79.56 78.29,78.44 76.91,78.44 Z M57.61,84.21 L8.7,84.21 C7.32,84.21 6.2,85.33 6.2,86.71 L6.2,92.15 C6.2,93.53 7.32,94.65 8.7,94.65 L57.61,94.65 C58.99,94.65 60.11,93.53 60.11,92.15 L60.11,86.71 C60.11,85.33 58.99,84.21 57.61,84.21 Z M58.8,78.8 L7.2,78.8 C6.65,78.8 6.2,79.25 6.2,79.8 C6.2,80.35 6.65,80.8 7.2,80.8 L58.8,80.8 C59.35,80.8 59.8,80.35 59.8,79.8 C59.8,79.25 59.35,78.8 58.8,78.8 Z M58.8,78.8 L7.2,78.8 C6.65,78.8 6.2,79.25 6.2,79.8 C6.2,80.35 6.65,80.8 7.2,80.8 L58.8,80.8 C59.35,80.8 59.8,80.35 59.8,79.8 C59.8,79.25 59.35,78.8 58.8,78.8 Z M57.61,84.21 L8.7,84.21 C7.32,84.21 6.2,85.33 6.2,86.71 L6.2,92.15 C6.2,93.53 7.32,94.65 8.7,94.65 L57.61,94.65 C58.99,94.65 60.11,93.53 60.11,92.15 L60.11,86.71 C60.11,85.33 58.99,84.21 57.61,84.21 Z M76.91,78.44 L68.54,78.44 C67.16,78.44 66.04,79.56 66.04,80.94 L66.04,92.16 C66.04,93.54 67.16,94.66 68.54,94.66 L76.91,94.66 C77.69,94.66 78.39,94.3 78.85,93.74 C79.2,93.31 79.41,92.76 79.41,92.16 L79.41,80.94 C79.41,79.56 78.29,78.44 76.91,78.44 Z M84.94,0.59 L84.93,0.57 C84.56,0.22 84.06,0 83.52,0 L2,0 C0.9,0 0,0.9 0,2 L0,49.17 C0,49.72 0.22,50.22 0.59,50.58 C0.95,50.94 1.45,51.17 2,51.17 L34.67,51.17 L34.67,60.28 L23.97,60.28 C23.42,60.28 22.97,60.73 22.97,61.28 L22.97,62.5 C22.97,63.05 23.42,63.5 23.97,63.5 L61.85,63.5 C62.4,63.5 62.85,63.05 62.85,62.5 L62.85,61.28 C62.85,60.73 62.4,60.28 61.85,60.28 L51.07,60.28 L51.07,51.17 L83.52,51.17 C84.62,51.17 85.52,50.27 85.52,49.17 L85.52,2 C85.52,1.45 85.29,0.95 84.94,0.59 Z M83.52,49.17 L2,49.17 L2,2 L83.52,2 L83.52,49.17 C83.52,49.17 83.52,49.17 83.52,49.17 Z M58.8,78.8 L7.2,78.8 C6.65,78.8 6.2,79.25 6.2,79.8 C6.2,80.35 6.65,80.8 7.2,80.8 L58.8,80.8 C59.35,80.8 59.8,80.35 59.8,79.8 C59.8,79.25 59.35,78.8 58.8,78.8 Z M57.61,84.21 L8.7,84.21 C7.32,84.21 6.2,85.33 6.2,86.71 L6.2,92.15 C6.2,93.53 7.32,94.65 8.7,94.65 L57.61,94.65 C58.99,94.65 60.11,93.53 60.11,92.15 L60.11,86.71 C60.11,85.33 58.99,84.21 57.61,84.21 Z M76.91,78.44 L68.54,78.44 C67.16,78.44 66.04,79.56 66.04,80.94 L66.04,92.16 C66.04,93.54 67.16,94.66 68.54,94.66 L76.91,94.66 C77.69,94.66 78.39,94.3 78.85,93.74 C79.2,93.31 79.41,92.76 79.41,92.16 L79.41,80.94 C79.41,79.56 78.29,78.44 76.91,78.44 Z" fill="none" stroke="currentColor" stroke-width="1.5"/></svg>