<svg xmlns="http://www.w3.org/2000/svg" viewBox="0 0 62.0 100.06" width="24" height="24"><path d="M58.5,97 L3.5,97 C2.12,97 1,95.88 1,94.5 L1,3.5 C1,2.12 2.12,1 3.5,1 L58.5,1 C59.88,1 61,2.12 61,3.5 L61,94.5 C61,95.88 59.88,97 58.5,97 Z" fill="none" stroke="currentColor" stroke-width="1.5"/><path d="M31,49 C33.21,49 35,50.79 35,53 C35,55.21 33.21,57 31,57 C28.79,57 27,55.21 27,53 C27,50.79 28.79,49 31,49 Z M43.5,33.73 L43.5,35.23 L45,35.23 C45.55,35.23 46,35.68 46,36.23 L46,41.23 C46,41.78 45.55,42.23 45,42.23 L43.5,42.23 L43.5,43.73 C43.5,44.28 43.05,44.73 42.5,44.73 L17,44.73 C16.45,44.73 16,44.28 16,43.73 L16,33.73 C16,33.18 16.45,32.73 17,32.73 L42.5,32.73 C43.05,32.73 43.5,33.18 43.5,33.73 Z M31.44,41.06 L27.94,35.15 C27.66,34.67 27.05,34.52 26.57,34.8 C26.09,35.08 25.94,35.69 26.22,36.17 L29.72,42.08 C29.91,42.4 30.24,42.57 30.58,42.57 C30.75,42.57 30.93,42.53 31.09,42.43 C31.56,42.15 31.72,41.54 31.44,41.06 Z M35.78,41.06 L32.28,35.15 C32,34.67 31.39,34.52 30.91,34.8 C30.43,35.08 30.28,35.69 30.56,36.17 L34.06,42.08 C34.25,42.4 34.58,42.57 34.92,42.57 C35.09,42.57 35.27,42.53 35.43,42.43 C35.9,42.15 36.06,41.54 35.78,41.06 Z M15,69.22 C14.99,69.77 15.43,70.23 15.99,70.23 L45.89,70.64 L45.9,70.64 C46.44,70.64 46.89,70.2 46.9,69.65 C46.91,69.1 46.47,68.64 45.91,68.64 L16.01,68.23 L16,68.23 C15.45,68.24 15.01,68.68 15,69.22 Z M16.04,76.25 L45.94,76.66 L45.95,76.66 C46.5,76.66 46.94,76.22 46.95,75.67 C46.96,75.12 46.52,74.66 45.96,74.66 L16.06,74.25 L16.05,74.25 C15.5,74.25 15.06,74.69 15.05,75.24 C15.04,75.79 15.49,76.24 16.04,76.25 Z M62,3.5 L62,94.5 C62,95.99 61.07,97.26 59.76,97.77 L59.76,99.06 C59.76,99.61 59.31,100.06 58.76,100.06 L4.33,100.06 C4.24,100.06 4.16,100.05 4.08,100.03 C3.91,99.99 3.76,99.9 3.64,99.78 L3.62,99.76 C3.5,99.64 3.42,99.49 3.37,99.32 C3.35,99.24 3.34,99.15 3.34,99.06 L3.34,98 C2.44,97.96 1.63,97.58 1.04,96.98 C0.39,96.34 0,95.47 0,94.5 L0,3.5 C0,1.57 1.57,0 3.5,0 L58.5,0 C59.39,0 60.2,0.33 60.82,0.88 C60.85,0.91 60.88,0.94 60.91,0.96 C60.95,1 60.99,1.04 61.03,1.08 C61.63,1.71 62,2.56 62,3.5 Z M60,3.5 C60,3.01 59.76,2.58 59.4,2.3 C59.15,2.11 58.84,2 58.5,2 L3.5,2 C2.67,2 2,2.67 2,3.5 L2,94.5 C2,95.33 2.67,96 3.5,96 L10,96 L10,50 C10,49.45 10.45,49 11,49 C11.46,49 11.85,49.31 11.97,49.74 C11.99,49.82 12,49.91 12,50 L12,96 L50,96 L50,50 C50,49.45 50.45,49 51,49 C51.55,49 52,49.45 52,50 L52,96 L58.5,96 C59.33,96 60,95.33 60,94.5 L60,3.5 Z M51,4.5 L11,4.5 C10.45,4.5 10,4.95 10,5.5 L10,25.5 C10,26.05 10.45,26.5 11,26.5 L51,26.5 C51.55,26.5 52,26.05 52,25.5 L52,5.5 C52,4.95 51.55,4.5 51,4.5 Z M46.01,80.67 L16.11,80.26 L16.1,80.26 C15.55,80.26 15.11,80.7 15.1,81.25 C15.09,81.8 15.53,82.26 16.09,82.26 L45.99,82.67 L46,82.67 C46.55,82.67 46.99,82.23 47,81.68 C47.01,81.13 46.57,80.68 46.01,80.67 Z" fill="none" stroke="currentColor" stroke-width="1.5"/></svg>