<svg xmlns="http://www.w3.org/2000/svg" viewBox="0 0 100.0 29.4" width="24" height="24"><path d="M96.5,25.8 L3.5,25.8 C2.12,25.8 1,24.68 1,23.3 L1,3.5 C1,2.12 2.12,1 3.5,1 L96.5,1 C97.88,1 99,2.12 99,3.5 L99,23.3 C99,24.68 97.88,25.8 96.5,25.8 Z" fill="none" stroke="currentColor" stroke-width="1.5"/><path d="M99.03,1.09 L98.91,0.97 C98.28,0.37 97.43,0 96.5,0 L3.5,0 C1.57,0 0,1.57 0,3.5 L0,23.3 C0,24.19 0.33,25 0.88,25.62 C0.97,25.73 1.08,25.83 1.19,25.93 C1.8,26.47 2.61,26.8 3.5,26.8 L11.28,26.8 L11.28,28.4 C11.28,28.95 11.73,29.4 12.28,29.4 L24.78,29.4 C25.33,29.4 25.78,28.95 25.78,28.4 L25.78,26.8 L74.21,26.8 L74.21,28.4 C74.21,28.95 74.66,29.4 75.21,29.4 L87.71,29.4 C88.26,29.4 88.71,28.95 88.71,28.4 L88.71,26.8 L96.49,26.8 C98.42,26.8 99.99,25.23 99.99,23.3 L99.99,3.5 C100,2.56 99.63,1.71 99.03,1.09 Z M98,23.3 C98,24.13 97.33,24.8 96.5,24.8 L3.5,24.8 C2.67,24.8 2,24.13 2,23.3 L2,3.5 C2,2.67 2.67,2 3.5,2 L96.5,2 C97.33,2 98,2.67 98,3.5 L98,23.3 Z M56.25,8.39 L8.02,8.39 C7.47,8.39 7.02,7.94 7.02,7.39 C7.02,6.84 7.47,6.39 8.02,6.39 L56.25,6.39 C56.8,6.39 57.25,6.84 57.25,7.39 C57.25,7.94 56.8,8.39 56.25,8.39 Z M57.25,13.4 C57.25,12.85 56.8,12.4 56.25,12.4 L8.02,12.4 C7.47,12.4 7.02,12.85 7.02,13.4 C7.02,13.95 7.47,14.4 8.02,14.4 L56.25,14.4 C56.8,14.4 57.25,13.95 57.25,13.4 Z M57.25,19.41 C57.25,18.86 56.8,18.41 56.25,18.41 L8.02,18.41 C7.47,18.41 7.02,18.86 7.02,19.41 C7.02,19.96 7.47,20.41 8.02,20.41 L56.25,20.41 C56.8,20.41 57.25,19.96 57.25,19.41 Z M77,4.4 C72.03,4.4 68,8.43 68,13.4 C68,18.37 72.03,22.4 77,22.4 C81.97,22.4 86,18.37 86,13.4 C86,8.43 81.97,4.4 77,4.4 Z M92.5,16.4 C90.84,16.4 89.5,17.74 89.5,19.4 C89.5,21.06 90.84,22.4 92.5,22.4 C94.16,22.4 95.5,21.06 95.5,19.4 C95.5,17.74 94.16,16.4 92.5,16.4 Z" fill="none" stroke="currentColor" stroke-width="1.5"/></svg>