<svg xmlns="http://www.w3.org/2000/svg" viewBox="0 0 60.66 36.0" width="24" height="24"><path d="M4.67,6.67 L48.67,6.67 L53.33,11.33 L53.33,32 L48.67,36 L4.67,36 L0,32 L0,11.33 Z M4.67,6.67 L48.67,6.67 L56,0 L12.33,0 Z M48.33,6.67 L53.33,11.33 L60.66,4.67 L56,0 Z M53.33,11.33 L53.33,32 L60.66,25.33 L60.66,4.67 Z" fill="none" stroke="currentColor" stroke-width="1.5"/><rect x="0" y="0" width="0" height="0" fill="none" stroke="currentColor"/><path d="M2,18.67 L52,18.67 L52,24 L2,24 Z" fill="none" stroke="currentColor" stroke-width="1.5"/><path d="M32,21.33 C24.67,21.33 19,16 19,9.33 M32,20.67 C24.67,20.67 19,16 19,9.33 M3.33,20.67 C10.33,20.67 16,16 16,9.33 M51,20.67 C43.67,20.67 38.33,16 38.33,9.33 M22.33,20.67 C29.33,20.67 35,16 35,9.33 M32,22.33 C24.67,22.33 19,26.67 19,33.33 M3.33,22.33 C10.33,22.33 16,26.67 16,33.33 M51,22.33 C43.67,22.33 38.33,26.67 38.33,33.33 M22.33,22.33 C29.33,22.33 35,26.67 35,33.33" fill="none" stroke="currentColor" stroke-width="1.5"/></svg>