<svg xmlns="http://www.w3.org/2000/svg" viewBox="0 0 48.66 41.67" width="24" height="24"><path d="M42.33,6.67 L9,6.67 L9,39.34 L42.33,39.34 Z" fill="none" stroke="currentColor" stroke-width="1.5"/><path d="M42.33,39.34 L48.66,32.67 L48.66,0 L6.66,0 L0,6.67 L42.33,6.67 Z" fill="none" stroke="currentColor" stroke-width="1.5"/><rect x="0" y="0" width="0" height="0" fill="none" stroke="currentColor"/><path d="M42.33,6.67 L48.66,0 M28.33,11.67 L34,11.67 M37,14.34 L37,8 L10,8 L10,14.34 Z M37,22.67 L37,17.34 L33,17.34 L33,22.67 Z" fill="none" stroke="currentColor" stroke-width="1.5"/><path d="M0.66,38.67 L0.66,7 L9,7 L9,38.67 Z" fill="none" stroke="currentColor" stroke-width="1.5"/><path d="M2.33,8.67 L7.66,8.67 M2.33,10.34 L7.66,10.34 M2.33,12 L7.66,12 M2.33,13.67 L7.66,13.67 M2.33,15.34 L7.66,15.34 M2.33,17 L7.66,17 M2.33,18.67 L7.66,18.67 M2.33,20.34 L7.66,20.34 M2.33,22 L7.66,22 M2.33,23.67 L7.66,23.67 M2.33,25.34 L7.66,25.34 M2.33,27 L7.66,27 M2.33,28.67 L7.66,28.67 M2.33,30.34 L7.66,30.34 M2.33,32 L7.66,32 M2.33,33.67 L7.66,33.67 M2.33,35.34 L7.66,35.34 M2.33,37 L7.66,37" fill="none" stroke="currentColor" stroke-width="1.5"/><path d="M6.33,39.34 L4.66,41.67 L39.66,41.67 L38.66,39.34 Z M39.66,41.67 L41.66,39.34 L38.66,39.34 Z" fill="none" stroke="currentColor" stroke-width="1.5"/></svg>