<svg xmlns="http://www.w3.org/2000/svg" viewBox="0 0 47.67 21.0" width="24" height="24"><path d="M0,7.67 L10.34,0 L47.67,0 L40.34,7.67 Z M40.34,20.67 L47.67,13 L47.67,0 L40.34,7.67 Z M40.34,20.67 L40.34,7.67 L0,7.67 L0,20.67 Z" fill="none" stroke="currentColor" stroke-width="1.5"/><path d="M37.67,14.33 C37.67,14.33 35,21 32,14.33 C28.67,7.67 26.34,14.33 26.34,14.33 C26.34,14.33 23.67,21 20.34,14.33 C17.34,7.67 14.67,14.33 14.67,14.33 C14.67,14.33 12,21 9,14.33 C5.67,7.67 3.34,14.33 3.34,14.33" fill="none" stroke="currentColor" stroke-width="1.5"/><path d="M3.34,14.33 C3.34,14.33 5.67,21 9,14.33 C12,7.67 14.67,14.33 14.67,14.33 C14.67,14.33 17.34,21 20.34,14.33 C23.67,7.67 26.34,14.33 26.34,14.33 C26.34,14.33 28.67,21 32,14.33 C35,7.67 37.67,14.33 37.67,14.33" fill="none" stroke="currentColor" stroke-width="1.5"/><path d="M37,14.33 C37,14.33 34.34,21 31.34,14.33 C28.34,7.67 25.67,14.33 25.67,14.33 C25.67,14.33 23,21 19.67,14.33 C16.67,7.67 14,14.33 14,14.33 C14,14.33 11.34,21 8.34,14.33 C5.34,7.67 2.67,14.33 2.67,14.33" fill="none" stroke="currentColor" stroke-width="1.5"/><path d="M2.67,14.33 C2.67,14.33 5.34,21 8.34,14.33 C11.34,7.67 14,14.33 14,14.33 C14,14.33 16.67,21 20,14.33 C23,7.67 25.67,14.33 25.67,14.33 C25.67,14.33 28.34,21 31.34,14.33 C34.34,7.67 37,14.33 37,14.33" fill="none" stroke="currentColor" stroke-width="1.5"/></svg>