<svg xmlns="http://www.w3.org/2000/svg" viewBox="0 0 56.66 40.34" width="24" height="24"><path d="M0,40.34 L51,40.34 L51,7 L0,7 Z M56.66,32 L51,40.34 L51,7 L56.66,0 Z M9,0 L56.66,0 L51,7 L0,7 Z" fill="none" stroke="currentColor" stroke-width="1.5"/><path d="M44,24.34 L35.33,24.34 L35.33,23 L44,23 L44,20.67 L49,23.67 L44,26.34 Z M10,24.34 L1.33,24.34 L1.33,23 L10,23 L10,20.67 L15,23.67 L10,26.34 Z M42.66,15.34 L35.33,20 L34.66,18.67 L41.66,14 L40.66,12.34 L46.33,12 L43.66,17 Z M42.66,32 L35.33,27.34 L34.66,28.34 L41.66,33 L40.66,35 L46.33,35.34 L43.66,30.34 Z" fill="none" stroke="currentColor" stroke-width="1.5"/><path d="M33.66,23.34 C33.66,28 30,31.67 25.33,31.67 C20.66,31.67 17,28 17,23.34 C17,18.67 20.66,15 25.33,15 C30,15 33.66,18.67 33.66,23.34 Z" fill="none" stroke="currentColor" stroke-width="1.5"/></svg>