<svg xmlns="http://www.w3.org/2000/svg" viewBox="0 0 43.66 51.0" width="24" height="24"><path d="M16,6 C16,9.33 13.33,12 10,12 C6.66,12 4.33,9.33 4.33,6 C4.33,2.67 6.66,0 10,0 C13.33,0 16,2.67 16,6 Z M43.66,51 L19.33,51 L19.33,25 L43.66,25 Z M27.66,21.67 L42,21.67 L42,24.67 L27.66,24.67 Z M39.33,13.33 C39.33,21.67 39.33,21.67 39.33,21.67 C28,21.67 28,21.67 28,21.67 C28,10.33 28,10.33 28,10.33 C38,11.67 38,11.67 38,11.67 C38,11.67 39.33,11.67 39.33,13.33 Z M17.66,47.67 C11,47.67 11,47.67 11,47.67 C11,39.67 11,39.67 11,39.67 C7.66,39.67 7.66,39.67 7.66,39.67 C7.66,47.67 7.66,47.67 7.66,47.67 C1,47.67 1,47.67 1,47.67 C0.33,47.67 0,48 0,48.67 C0,49.67 0,49.67 0,49.67 C0,50.33 0.33,51 1,51 C17.66,51 17.66,51 17.66,51 C18.33,51 18.66,50.33 18.66,49.67 C18.66,48.67 18.66,48.67 18.66,48.67 C18.66,48 18.33,47.67 17.66,47.67 Z M18,35.67 C4,35.67 4,35.67 4,35.67 C4,16 4,16 4,16 C4,15.33 3.66,14.67 3,14.67 C1.66,14.67 1.66,14.67 1.66,14.67 C1,14.67 0.33,15.33 0.33,16 C0.33,38.33 0.33,38.33 0.33,38.33 C0.33,39 1,39.33 1.66,39.33 C3,39.33 3,39.33 3,39.33 C18,39.33 18,39.33 18,39.33 C18.66,39.33 19.33,39 19.33,38.33 C19.33,37 19.33,37 19.33,37 C19.33,36.33 18.66,35.67 18,35.67 Z M14.66,13.33 C25.33,21 25.33,21 25.33,21 C26,21.33 26.33,22 26.33,22.67 C26.33,23.67 25.33,24.67 24,24.67 C23.66,24.67 23.33,24.67 23,24.33 C14,19 14,19 14,19 C14,29 14,29 14,29 C19,29 19,29 19,29 C19,35.33 19,35.33 19,35.33 C4.66,35.33 4.66,35.33 4.66,35.33 C4.66,14 4.66,14 4.66,14 C4.66,14 4.66,12.33 7.66,12.33 C12.66,12.33 12.66,12.33 12.66,12.33 C12.66,12.33 13.66,12.33 14.66,13.33 Z" fill="none" stroke="currentColor" stroke-width="1.5"/></svg>