<svg xmlns="http://www.w3.org/2000/svg" viewBox="0 0 37.34 42.33" width="24" height="24"><path d="M0,29.33 L0,42.33 L31.67,42.33 L31.67,29.33 Z" fill="none" stroke="currentColor" stroke-width="1.5"/><path d="M0,4 L5.67,0 L37.34,0 L31.67,4 L0,4 Z" fill="none" stroke="currentColor" stroke-width="1.5"/><path d="M31.67,42.33 L37.34,37.66 L37.34,25 L31.67,29.33 Z" fill="none" stroke="currentColor" stroke-width="1.5"/><path d="M31.67,33.66 L0,33.66 M31.67,38 L0,38 M36.67,34 L32,38 M9.34,38 L9.34,42 M21.67,38 L21.67,42 M15.67,33.66 L15.67,37.66 M3.67,33.66 L3.67,37.66 M28,33.66 L28,37.66" fill="none" stroke="currentColor" stroke-width="1.5"/><path d="M31.67,4 L31.67,33.66 L0,33.66 L0,4 Z M37.34,29 L37.34,0 L31.67,4 L31.67,33.33 Z" fill="none" stroke="currentColor" stroke-width="1.5"/><path d="M36,30 L36,34.67 M34,36.33 L34,40.33" fill="none" stroke="currentColor" stroke-width="1.5"/><path d="M6,15.33 L18.34,15.33 L18.34,14.33 L21,16 L18.34,17.66 L18.34,17 L6,17 Z M25,19.66 L14.67,19.66 L14.67,18.66 L11.67,20.33 L14.67,22 L14.67,21.33 L25,21.33 Z" fill="none" stroke="currentColor" stroke-width="1.5"/><path d="M29,30 C28.34,30.33 27.67,29.66 27.67,29.33 C27.67,28.66 28,28.33 28.67,28 C29.34,28 29.67,28.33 29.67,29 C30,29.66 29.34,30 29,30 Z" fill="none" stroke="currentColor" stroke-width="1.5"/><path d="M29.67,28 L27.67,30 L21.34,25 L23.34,23 Z" fill="none" stroke="currentColor" stroke-width="1.5"/><path d="M7,16.66 C6.34,22 10,26.66 15.34,27.33 C20.34,28 25,24 25.67,19 C26.34,13.66 22.34,9 17.34,8.33 C12,8 7.34,11.66 7,16.66 Z M8.34,17 C8.67,12.66 12.67,9.33 17.34,9.66 C21.67,10.33 24.67,14.33 24.34,18.66 C23.67,23.33 19.67,26.33 15.34,26 C11,25.33 7.67,21.33 8.34,17 Z" fill="none" stroke="currentColor" stroke-width="1.5"/><path d="M5.67,17.33 C5,22.33 9,27 14,27.66 C19.34,28.33 24,24.66 24.34,19.33 C25,14.33 21.34,9.66 16,9 C11,8.33 6.34,12 5.67,17.33 Z M7,17.33 C7.67,13 11.67,9.66 16,10.33 C20.34,10.66 23.67,14.66 23,19.33 C22.67,23.66 18.67,27 14.34,26.33 C9.67,26 6.67,21.66 7,17.33 Z" fill="none" stroke="currentColor" stroke-width="1.5"/><path d="M25,20.66 L30,20.66 M1.67,16 L7,16" fill="none" stroke="currentColor" stroke-width="1.5"/></svg>