<svg xmlns="http://www.w3.org/2000/svg" viewBox="0 0 55.33 54.0" width="24" height="24"><path d="M55.33,17.67 L55.33,43.34 L41.66,54 L13.66,54 L0,43.34 L0,17.67 Z" fill="none" stroke="currentColor" stroke-width="1.5"/><path d="M55.33,17.67 L55.33,43.34 L41.66,54 L13.66,54 L0,43.34 L0,17.67" fill="none" stroke="currentColor" stroke-width="1.5"/><path d="M13.66,53.67 L13.66,28.34 Z" fill="none" stroke="currentColor" stroke-width="1.5"/><path d="M41.66,53.67 L41.66,28.34 Z" fill="none" stroke="currentColor" stroke-width="1.5"/><path d="M55.33,10.34 L55.33,18 L41.66,28.67 L13.66,28.67 L0,18 L0,10.34 Z" fill="none" stroke="currentColor" stroke-width="1.5"/><path d="M41.33,0 L14,0 L0,10.34 L13.66,21.34 L41.66,21.34 L55.33,10.34 L41.33,0 Z" fill="none" stroke="currentColor" stroke-width="1.5"/><path d="M13.66,28.34 L13.66,21.34 M41.66,28.34 L41.66,21.34" fill="none" stroke="currentColor" stroke-width="1.5"/><path d="M22,11 L28.66,12 M8.33,9.34 L15,10 M5.66,6 L11,6.67 M11.66,6.67 L3.66,12.34 M18.33,8 L7.33,15.67 M25.66,8.67 L12,19.34 M11,13 L18.67,14.33 M40.66,16 L47.33,16.67 M27,14 L33.66,15 M30.33,11.34 L17.33,21 M37.33,12.34 L26,20.67 M44,13.34 L34.33,20.67 M51.66,13 L45,18.67 M16.33,15.67 L23,16.67 M30,17.67 L36.66,18.67 M20,0.34 L11.33,7 M29,0 L18.33,8.34 M44.33,7.34 L50.33,8.34 M36.66,0.34 L22.66,11 M43.33,2 L29.33,12 M47.33,5 L36.66,13 M51.66,8 L43.66,14 M20,7 L26.66,8 M33.66,9 L40.66,10 M47.66,11 L53,12" fill="none" stroke="currentColor" stroke-width="1.5"/><path d="M22.33,6.34 L24.33,9.67 L16.33,11 L18.33,9.67 L6.66,6.67 L9.66,4.67 L21,7.34 Z M32.66,14.67 L31.33,11.34 L38.33,10.67 L37,11.67 L48.33,14.34 L45.66,16.34 L34.33,13.34 Z M29.33,5.34 L37.33,3.67 L37.33,7 L35.33,6.67 L31.33,9.34 L27.66,8.67 L32,6 Z M25.33,17 L18,17.67 L17.66,14.34 L20,15 L24.33,11.67 L27.66,12.67 L23,16 Z" fill="none" stroke="currentColor" stroke-width="1.5"/></svg>