<svg xmlns="http://www.w3.org/2000/svg" viewBox="0 0 63.66 31.33" width="24" height="24"><path d="M0,15.67 L19.33,0 L63.66,0 L47.66,15.67 Z M47.66,31.33 L63.66,15.67 L63.66,0 L47.66,15.67 Z M47.66,31.33 L47.66,15.67 L0,15.67 L0,31.33 Z" fill="none" stroke="currentColor" stroke-width="1.5"/><path d="M28.33,18 C28.33,18 29,18 29.33,18.67 C29.33,21 29.33,21 29.33,21 C33.66,22 33.66,22 33.66,22 C34,21 34,21 34,21 C33,18 33,18 33,18 C27.33,16.67 24,17 24,17 C24,17 24,17 24,17 C24,17 21.33,16.67 15.66,18 C14.66,21 14.66,21 14.66,21 C15,22 15,22 15,22 C19.33,21 19.33,21 19.33,21 C19.33,18.67 19.33,18.67 19.33,18.67 C19.66,18 20.33,18 20.33,18 Z" fill="none" stroke="currentColor" stroke-width="1.5"/><rect x="0" y="0" width="0" height="0" fill="none" stroke="currentColor"/><rect x="20" y="20.67" width="8.66" height="9" fill="none" stroke="currentColor"/><path d="M18,12 C18,13 16,13.67 13.66,13.67 C11.33,13.67 9.33,13 9.33,12 C9.33,11 11.33,10.33 13.66,10.33 C16,10.33 18,11 18,12 Z" fill="none" stroke="currentColor" stroke-width="1.5"/><path d="M18,11 C18,12 16,12.67 13.66,12.67 C11.33,12.67 9.33,12 9.33,11 C9.33,10 11.33,9.33 13.66,9.33 C16,9.33 18,10 18,11 Z" fill="none" stroke="currentColor" stroke-width="1.5"/></svg>