<svg xmlns="http://www.w3.org/2000/svg" viewBox="0 0 34.67 35.33" width="24" height="24"><path d="M28.67,35.33 L28.67,6 L0,6 L0,35.33 Z M28.67,6 L0,6 L7.34,0 L34.67,0 L34.67,0 L34.67,29.33 L28.67,35.33 Z M28.67,6 L34.67,0" fill="none" stroke="currentColor" stroke-width="1.5"/><rect x="0" y="0" width="0" height="0" fill="none" stroke="currentColor"/><path d="M25,29.33 L18.67,29.33 L10,12 L4.34,12 M4,29.33 L10,29.33 L18.67,12 L25.34,12" fill="none" stroke="currentColor" stroke-width="1.5"/><path d="M23,9 L23,15 L26.67,12 Z M23,26 L23,32.33 L26.67,29.33 Z M5.34,15.33 L5.34,9 L1.67,12 Z M5.34,32.33 L5.34,26.33 L1.67,29.33 Z" fill="none" stroke="currentColor" stroke-width="1.5"/></svg>