<svg xmlns="http://www.w3.org/2000/svg" viewBox="0 0 56.67 40.33" width="24" height="24"><path d="M0,40.33 L51,40.33 L51,7 L0,7 Z M56.67,32 L51,40.33 L51,7 L56.67,0 Z M8.67,0 L56.67,0 L51,7 L0,7 Z" fill="none" stroke="currentColor" stroke-width="1.5"/><path d="M7.33,16 L3,16 L3,14.33 L7.33,14.33 L7.33,12.33 L12.33,15.33 L7.33,18 Z M7.33,24.33 L3,24.33 L3,23 L7.33,23 L7.33,20.67 L12.33,23.67 L7.33,26.33 Z M7.33,32.67 L3,32.67 L3,31.33 L7.33,31.33 L7.33,29.33 L12.33,32 L7.33,35 Z M45.33,24.33 L39.67,24.33 L39.67,23 L45.33,23 L45.33,21 L50.33,23.67 L45.33,26.33 Z" fill="none" stroke="currentColor" stroke-width="1.5"/><path d="M16.33,24.33 C16.33,29.67 20.67,34 26.33,34 C26.33,24.33 26.33,24.33 26.33,24.33 Z" fill="none" stroke="currentColor" stroke-width="1.5"/><path d="M26.33,14.33 C31.67,14.33 36,18.67 36,24.33 C26.33,24.33 26.33,24.33 26.33,24.33 Z" fill="none" stroke="currentColor" stroke-width="1.5"/></svg>