<svg xmlns="http://www.w3.org/2000/svg" viewBox="0 0 49.0 46.67" width="24" height="24"><rect x="0" y="0" width="0" height="0" fill="none" stroke="currentColor"/><path d="M49,9.67 C49,14.67 38,19 24.67,19 C11,19 0,14.67 0,9.67 C0,20.67 0,20.67 0,20.67 C0,26 11,30.33 24.67,30.33 C38,30.33 49,26 49,20.67 Z" fill="none" stroke="currentColor" stroke-width="1.5"/><rect x="0" y="0" width="0" height="0" fill="none" stroke="currentColor"/><path d="M49,20.33 C49,25.67 38,30 24.67,30 C11,30 0,25.67 0,20.33 C0,37.33 0,37.33 0,37.33 C0,42.67 11,46.67 24.67,46.67 C38,46.67 49,42.67 49,37.33 Z" fill="none" stroke="currentColor" stroke-width="1.5"/><path d="M24.67,19 C38,19 49,14.67 49,9.67 C49,4.33 38,0 24.67,0 C11,0 0,4.33 0,9.67 C0,14.67 11,19 24.67,19 Z" fill="none" stroke="currentColor" stroke-width="1.5"/><path d="M19,5.67 L21,8.67 L13.33,10.67 L15,9.33 L3.33,7.33 L6,5 L17.67,7 Z M29.67,13 L28.33,10 L35.33,8.67 L34,9.67 L45.67,11.67 L42.67,14 L31.33,11.67 Z M26,4 L33.67,2 L33.67,5.33 L32,5 L28,8 L24.33,7.67 L28.33,4.33 Z M22.67,16 L15.33,17.33 L15,14 L17,14.33 L21.33,11 L24.67,11.67 L20.33,15.33 Z" fill="none" stroke="currentColor" stroke-width="1.5"/><path d="M22.33,27.67 L22.33,28.67 L18,28.67 L24.33,36.67 L30.33,28.67 L26.33,28.67 L26.33,27.67 Z" fill="none" stroke="currentColor" stroke-width="1.5"/><path d="M18.33,43.67 L33,29 L31.67,28.33 L17,43 Z" fill="none" stroke="currentColor" stroke-width="1.5"/><path d="M30,43.33 L15.67,29 L17,28.33 L31.33,42.67 Z" fill="none" stroke="currentColor" stroke-width="1.5"/><path d="M26.33,42.67 C26.33,44 26.33,44 26.33,44 C30,43.67 36,43.33 39,42.33 C39.33,41 39.33,41 39.33,41 C36,42 30,42.33 26.33,42.67 Z" fill="none" stroke="currentColor" stroke-width="1.5"/><path d="M10,42.33 C13.33,43.33 18.33,43.67 22.33,44 C22.33,42.67 22.33,42.67 22.33,42.67 C18.33,42.67 13,41.67 10,41 Z" fill="none" stroke="currentColor" stroke-width="1.5"/><path d="M9.67,28.33 C12.67,29 18,29.67 22,30 C22,28.67 22,28.67 22,28.67 C17.67,28.33 12.33,27.67 9.67,27 Z" fill="none" stroke="currentColor" stroke-width="1.5"/><path d="M26.33,28.67 C26.33,30 26.33,30 26.33,30 C30.33,30 36,29.33 39.33,28.33 C39.33,27 39.33,27 39.33,27 C36.33,28 30.33,28.67 26.33,28.67 Z" fill="none" stroke="currentColor" stroke-width="1.5"/><path d="M12.67,39.33 L11,39 L13.67,32 L15.67,32.33 L18.33,40.33 L16.33,40 L16,38.33 L13,38 Z M13.67,36.67 L15.67,37 L14.67,33.67 L14.67,33.67 Z" fill="none" stroke="currentColor" stroke-width="1.5"/><path d="M33.33,40 C31.67,40.33 31.67,40.33 31.67,40.33 C31.67,32.67 31.67,32.67 31.67,32.67 C35,32 35,32 35,32 C36.67,32 37.67,32.67 37.67,34.33 C37.67,35 37,36.67 35,37 C33.33,37.33 33.33,37.33 33.33,37.33 Z M34.67,35.67 C36,35.67 36,34.67 36,34.33 C36,33.67 35.67,33.33 34.67,33.33 C33.33,33.67 33.33,33.67 33.33,33.67 C33.33,36 33.33,36 33.33,36 Z" fill="none" stroke="currentColor" stroke-width="1.5"/></svg>