<svg xmlns="http://www.w3.org/2000/svg" viewBox="0 0 32.67 47.67" width="24" height="24"><path d="M32.67,37 L32.67,0 L23.67,9 L23.67,47.67 Z M23.67,9 L0,9 L0,47.67 L23.67,47.67 Z M23.67,9 L32.67,0 L32.67,0 L11.34,0 L0,9 L23.67,9 Z" fill="none" stroke="currentColor" stroke-width="1.5"/><rect x="0" y="0" width="0" height="0" fill="none" stroke="currentColor"/><path d="M7,35.67 L7,39 L10.34,39 M6.67,39 L10.34,39 M2.34,35.67 L2.34,39 L5.67,39 M1.67,39 L5.67,39 M7,30 L7,33.33 L10.34,33.33 M6.67,33.33 L10.34,33.33 M2.34,30 L2.34,33.33 L5.67,33.33 M1.67,33.33 L5.67,33.33 M7,23.33 L7,26.67 L10.34,26.67 M6.67,26.67 L10.34,26.67 M2.34,23.33 L2.34,26.67 L5.67,26.67 M1.67,26.67 L5.67,26.67 M7,17 L7,20.33 L10.34,20.33 M6.67,20.33 L10.34,20.33 M2.34,17 L2.34,20.33 L5.67,20.33 M1.67,20.33 L5.67,20.33 M7,10.33 L7,13.67 L10.34,13.67 M6.67,13.67 L10.34,13.67 M2.34,10.33 L2.34,13.67 L5.67,13.67 M1.67,13.67 L5.67,13.67 M17.34,35.67 L17.34,39 L20.67,39 M17,39 L20.67,39 M12.67,35.67 L12.67,39 L16,39 M12.34,39 L16,39 M17.34,30 L17.34,33.33 L20.67,33.33 M17,33.33 L20.67,33.33 M12.67,30 L12.67,33.33 L16,33.33 M12.34,33.33 L16,33.33 M17.34,23.33 L17.34,26.67 L20.67,26.67 M17,26.67 L20.67,26.67 M12.67,23.33 L12.67,26.67 L16,26.67 M12.34,26.67 L16,26.67 M17.34,17 L17.34,20.33 L20.67,20.33 M17,20.33 L20.67,20.33 M12.67,17 L12.67,20.33 L16,20.33 M12.34,20.33 L16,20.33 M17.34,10.33 L17.34,13.67 L20.67,13.67 M17,13.67 L20.67,13.67 M12.67,10.33 L12.67,13.67 L16,13.67 M12.34,13.67 L16,13.67" fill="none" stroke="currentColor" stroke-width="1.5"/></svg>