<svg xmlns="http://www.w3.org/2000/svg" viewBox="0 0 46.67 35.67" width="24" height="24"><rect x="0" y="0" width="0" height="0" fill="none" stroke="currentColor"/><path d="M41.67,6 C41.67,6 41.67,6 41.67,6 C41.67,6 26.67,22.67 0,6 C0,6 0,6 0,6 C7.67,0 7.67,0 7.67,0 C35.33,20 46.67,0 46.67,0" fill="none" stroke="currentColor" stroke-width="1.5"/><path d="M0,35.67 C0,6 0,6 0,6 C0,6 0,6 0,6 C0,6 0,6 0,6 C0,6 0,6 0,6 C24.33,21.67 40,5.67 40,5.67 C40,5.67 40,5.67 40,5.67 C40,35.67 40,35.67 40,35.67 Z" fill="none" stroke="currentColor" stroke-width="1.5"/><path d="M40,5.67 L40,35.67 L46.67,28 L46.67,0 L40,5.67 Z" fill="none" stroke="currentColor" stroke-width="1.5"/></svg>