<svg xmlns="http://www.w3.org/2000/svg" viewBox="0 0 43.67 23.0" width="24" height="24"><path d="M43.67,21 L43.67,0 L41.67,1.66 L41.67,23 Z M41.67,23 L41.67,1.66 L0,1.66 L0,23 Z M43.67,0 L2.33,0 L0,1.66 L41.67,1.66 Z M43.67,0 L41.67,1.66" fill="none" stroke="currentColor" stroke-width="1.5"/><rect x="0" y="0" width="0" height="0" fill="none" stroke="currentColor"/><path d="M24.33,5.66 C26.67,3.66 26.67,3.66 26.67,3.66 C34.33,12.66 28.33,19.66 28.33,19.66 C38.67,19.66 38.67,19.66 38.67,19.66 M8,7.66 C8,5.66 10,5.33 10,5.33 C10,5.33 21,5.33 23.33,5.33 C26,5.33 25.67,8 25.67,8 C25.67,8 25.67,17 25.67,18.33 C25.67,20 23.67,20.66 23.67,20.66 C23.67,20.66 12.33,20.66 10.33,20.66 C8.67,20.66 8,18.66 8,18.66 Z M38.67,6.33 L28.33,6.33 M6.33,6.33 L1.33,6.33" fill="none" stroke="currentColor" stroke-width="1.5"/></svg>