<svg xmlns="http://www.w3.org/2000/svg" viewBox="0 0 27.0 39.34" width="24" height="24"><path d="M20.34,6.67 L0,6.67 L0,39.34 L20.34,39.34 Z M20.34,39.34 L27,32.67 L27,0 L6.34,0 L0,6.67 L20.34,6.67 Z M20.34,6.67 L27,0 M0,16 L20.34,16" fill="none" stroke="currentColor" stroke-width="1.5"/><rect x="0" y="0" width="0" height="0" fill="none" stroke="currentColor"/><path d="M5,11.67 L10.67,11.67 M13,13.67 L13,9.67 L2.67,9.67 L2.67,13.67 Z" fill="none" stroke="currentColor" stroke-width="1.5"/><path d="M4,31.34 L4,23.34 L11.67,27.34 L4,31.34 Z M15,31 L15,23.67 L12.67,23.67 L12.67,31 Z" fill="none" stroke="currentColor" stroke-width="1.5"/><path d="M9.67,35.67 C14.34,35.67 18.34,32 18.34,27.34 C18.34,22.67 14.34,19 9.67,19 C5,19 1.34,22.67 1.34,27.34 C1.34,32 5,35.67 9.67,35.67 Z" fill="none" stroke="currentColor" stroke-width="1.5"/></svg>