<svg xmlns="http://www.w3.org/2000/svg" viewBox="0 0 52.33 42.67" width="24" height="24"><path d="M41.33,24.34 L37.33,29.34 L5.67,29.34 L10.67,24.34 Z" fill="none" stroke="currentColor" stroke-width="1.5"/><path d="M5.67,35.34 L5.67,29.34 L36,29.34 L36,35.34 Z M5.33,5.34 L36,5.34 L36,28.34 L5.33,28.34 Z M36,28.34 L41,23 L41,0 L36,5.34 Z M47.33,40.34 L49.67,35.67 L44.33,35.67 L42,40.34 Z M42,40.34 L47.33,40.34 L47.33,41.67 L42,41.67 Z M47.33,41.67 L47.33,40.34 L49.67,35.67 L49.67,38.67 Z M36,35.34 L36,29.67 L41.33,24.34 L41.33,30 Z" fill="none" stroke="currentColor" stroke-width="1.5"/><path d="M10.33,8 C30.67,8 30.67,8 30.67,8 C32,8 33.33,9 33.33,10.34 C33.33,23 33.33,23 33.33,23 C33.33,24.34 32,25.67 30.67,25.67 C10.33,25.67 10.33,25.67 10.33,25.67 C9,25.67 8,24.34 8,23 C8,10.34 8,10.34 8,10.34 C8,9 9,8 10.33,8 Z" fill="none" stroke="currentColor" stroke-width="1.5"/><path d="M41,0 L11.33,0 L5.33,5.34 L36,5.34 Z M35,42.67 L35,40.67 L39,35.34 L39,38.67 Z M35,40.67 L0,40.67 L4,35.34 L39,35.34 Z M35,40.67 L35,42.67 L0,42.67 L0,40.67 Z" fill="none" stroke="currentColor" stroke-width="1.5"/><path d="M48.33,35.67 C52.33,33.67 49,25.34 41,29.34" fill="none" stroke="currentColor" stroke-width="1.5"/><path d="M20,15.67 C21,15.67 21,15.67 21,15.67 C21.33,16 21.33,16 21.33,16 C22.33,16 22.33,16 22.33,16 C23.33,15 23.33,15 23.33,15 C24.33,15 24.33,15 24.33,15 C25,16 25,16 25,16 C26,16 26,16 26,16 C27,15 27,15 27,15 C28,15 28,15 28,15 C28.67,16 28.67,16 28.67,16 C29.67,16 29.67,16 29.67,16 C30,15.34 30,15.34 30,15.34 C32.67,17 32.67,17 32.67,17 C30.67,18.34 30.67,18.34 30.67,18.34 C20,18.34 20,18.34 20,18.34 C20,18.67 20,18.67 20,18.67 C18.33,18.67 18.33,18.67 18.33,18.67 C18,18.67 17.67,19 17.33,19.34 C16.67,20.67 15.33,21.34 13.67,21.34 C11,21.34 9,19.34 9,17 C9,14.34 11,12.34 13.67,12.34 C15.33,12.34 16.67,13.34 17.33,14.67 C17.67,15 18,15 18.33,15 C20,15 20,15 20,15 C20,15.67 20,15.67 20,15.67" fill="none" stroke="currentColor" stroke-width="1.5"/><path d="M31.67,17.67 C20,17.67 20,17.67 20,17.67 C19.67,17.67 19,17.67 18.33,18 C19,18.34 19.67,18.34 20,18.34" fill="none" stroke="currentColor" stroke-width="1.5"/><path d="M32,16.67 C20.67,16.67 20.67,16.67 20.67,16.67 C20,16.67 19,16.67 18.67,16.34" fill="none" stroke="currentColor" stroke-width="1.5"/><path d="M13.67,21 C15.67,21 17.67,19.34 17.67,17 C17.67,14.67 15.67,13 13.67,13 C11.33,13 9.67,14.67 9.67,17 C9.67,19.34 11.33,21 13.67,21 Z" fill="none" stroke="currentColor" stroke-width="1.5"/><path d="M11.33,18 C12,18 12.33,17.67 12.33,17 C12.33,16.34 12,16 11.33,16 C10.67,16 10.33,16.34 10.33,17 C10.33,17.67 10.67,18 11.33,18 Z" fill="none" stroke="currentColor" stroke-width="1.5"/></svg>