<svg xmlns="http://www.w3.org/2000/svg" viewBox="0 0 48.33 42.0" width="24" height="24"><path d="M48.33,9.33 C48.33,14.67 37.67,19 24.33,19 C10.67,19 0,14.67 0,9.33 C0,32.67 0,32.67 0,32.67 C0,37.67 10.67,42 24.33,42 C37.67,42 48.33,37.67 48.33,32.67 Z" fill="none" stroke="currentColor" stroke-width="1.5"/><path d="M24.33,19 C37.67,19 48.33,14.67 48.33,9.33 C48.33,4.33 37.67,0 24.33,0 C10.67,0 0,4.33 0,9.33 C0,14.67 10.67,19 24.33,19 Z" fill="none" stroke="currentColor" stroke-width="1.5"/><path d="M19,5.67 L21,8.67 L13.33,10.33 L15,9 L3,7 L6,5 L17.33,6.67 Z M29.67,13 L28.33,10 L35.33,8.67 L34,9.67 L45.33,11.67 L42.67,13.67 L31.33,11.67 Z M26,4 L33.67,2 L33.67,5.33 L31.67,5 L28,8 L24.33,7.33 L28.33,4.33 Z M22.67,16 L15.33,17.33 L15,14 L17,14.33 L21,11 L24.67,11.33 L20.33,15.33 Z" fill="none" stroke="currentColor" stroke-width="1.5"/><rect x="0" y="0" width="0" height="0" fill="none" stroke="currentColor"/><path d="M44.33,35.67 L44.33,27.33 L39.33,31.33 Z M4,35.67 L4,27.33 L9,31.33 Z M7.33,19.33 L7.33,27.67 L2.33,23.67 Z M40.67,19.33 L40.67,27.67 L45.67,23.67 Z" fill="none" stroke="currentColor" stroke-width="1.5"/><path d="M41.67,23.33 L38.67,23.33 M43,31.33 L46.67,31.33 M5.33,31.33 L1.33,31.33 M5.67,23.67 L9.33,23.67" fill="none" stroke="currentColor" stroke-width="1.5"/><path d="M35,26 L35,40.67 L13.33,40.67 L13,26 Z" fill="none" stroke="currentColor" stroke-width="1.5"/><path d="M29.67,21.67 C29.67,21.67 30.67,21.67 30.67,22.33 C31,25.33 31,25.33 31,25.33 C36.67,26.33 36.67,26.33 36.67,26.33 C37.33,25 37.33,25 37.33,25 C36,21.67 36,21.67 36,21.67 C28.67,19.67 21.67,20.33 21.67,20.33 C21.67,20.33 21.67,20.33 21.67,20.33 C21.67,20.33 19.33,19.67 12,21.67 C10.67,25 10.67,25 10.67,25 C11,26.33 11,26.33 11,26.33 C16.67,25.33 16.67,25.33 16.67,25.33 C17,22.33 17,22.33 17,22.33 C17.33,21.67 18,21.67 18,21.67 Z" fill="none" stroke="currentColor" stroke-width="1.5"/><path d="M33.67,26.67 L33.67,29.33 L14.33,29.33 L14.33,26.67 Z M33.67,30.67 L33.67,39.67 L14.33,39.67 L14.33,30.67 Z" fill="none" stroke="currentColor" stroke-width="1.5"/><path d="M32.33,39 L15.67,39 L15.67,31 L32.33,31 Z" fill="none" stroke="currentColor" stroke-width="1.5"/><path d="M14.33,30.67 L24.33,35.67 L33.67,30.67 Z" fill="none" stroke="currentColor" stroke-width="1.5"/></svg>