<svg xmlns="http://www.w3.org/2000/svg" viewBox="0 0 116.34 66.66" width="24" height="24"><path d="M42.67,10.33 C23.67,6.66 13.34,16.33 15,25 C15,25.33 15,25.33 15,25.33 C0,28 4,45.66 11.34,45.66 C12,45.66 12,45.66 12,45.66 C10,54 27.67,62.33 37.34,58 C38,57.33 38,57.33 38,57.33 C41.34,65 54,66 66,66.33 C76.67,66.66 82.67,66 87.34,61.33 C88,61.33 88,61.33 88,61.33 C105,62.66 112.67,51 109,42.66 C110,42.33 110,42.33 110,42.33 C115.67,41 116.34,27.66 106.34,25.66 C106.67,25 106.67,25 106.67,25 C111,16.33 100.67,8.33 86.67,9.66 C85.67,9.33 85.67,9.33 85.67,9.33 C75.67,0 46.67,1.66 43.34,10.66 Z" fill="none" stroke="currentColor" stroke-width="1.5"/></svg>