<svg xmlns="http://www.w3.org/2000/svg" viewBox="0 0 34.66 35.33" width="24" height="24"><path d="M28.66,35.33 L28.66,6 L0,6 L0,35.33 Z M28.66,6 L0,6 L7.33,0 L34.66,0 L34.66,0.33 L34.66,29.33 L28.66,35.33 L28.66,6 Z M28.66,6 L34.66,0" fill="none" stroke="currentColor" stroke-width="1.5"/><path d="M14.33,25.67 C17,25.67 19.33,23.33 19.33,20.67 C19.33,17.67 17,15.33 14.33,15.33 C11.66,15.33 9.33,17.67 9.33,20.67 C9.33,23.33 11.66,25.67 14.33,25.67 Z" fill="none" stroke="currentColor" stroke-width="1.5"/><path d="M14.33,15.33 L23.33,15.33" fill="none" stroke="currentColor" stroke-width="1.5"/><path d="M23.33,12 L23.33,18.67 L27,15.33 Z M6,11.67 L12.33,11.67 L9.33,7.67 Z M22.66,29.33 L16.33,29.33 L19.33,33.33 Z M5.33,29 L5.33,22.67 L1.66,25.67 Z" fill="none" stroke="currentColor" stroke-width="1.5"/><path d="M9.33,20.67 L9.33,11.33 M19.33,20.67 L19.33,29.33 M14.33,25.67 L5,25.67" fill="none" stroke="currentColor" stroke-width="1.5"/></svg>