<svg xmlns="http://www.w3.org/2000/svg" viewBox="0 0 61.34 40.67" width="24" height="24"><path d="M57,40.67 L0,40.67 L0,5 L57,5 Z M4.34,0 L61.34,0 L57,5 L0,5 Z M61.34,34 L57,40.67 L57,5 L61.34,0 Z" fill="none" stroke="currentColor" stroke-width="1.5"/><rect x="0" y="0" width="0" height="0" fill="none" stroke="currentColor"/><path d="M26.34,29 C30.34,26 30.34,26 30.34,26 C26.34,26 24.34,26 21.67,26.34 C20.34,30 20.34,31 19,33.67 C22.34,32 22.34,32 22.34,32 C25.34,34.34 29,34.67 32.34,33.67 C32.34,33.67 32.34,33.34 32.34,33.34 C37.67,29.67 37.67,29.67 37.67,29.67 C34.34,32 29.67,31.67 26.34,29 Z" fill="none" stroke="currentColor" stroke-width="1.5"/><path d="M22.67,23.67 C21.67,20.34 22,16.67 24.34,14 C25,13.67 25.34,13.34 25.67,12.67 C20.67,16.67 20.67,16.67 20.67,16.67 C20.34,17 19.67,17.34 19.34,17.67 C17,20.34 16.67,24 17.67,27.34 Z" fill="none" stroke="currentColor" stroke-width="1.5"/><path d="M32.67,12.67 C30.67,12 28.67,11.67 26.67,12.34 C26.34,12.34 26,12.67 25.67,12.67 C20.67,16.67 20.67,16.67 20.67,16.67 C23,14.67 26,14.34 29,15.34 C26,17.34 26,17.34 26,17.34 C34.67,17.34 34.67,17.34 34.67,17.34 C35.34,11 35.34,11 35.34,11 Z" fill="none" stroke="currentColor" stroke-width="1.5"/><path d="M39.34,15.34 C42.34,20.34 41.34,25.67 39,28.34 C38.67,29 38,29.34 37.67,29.67 C32.34,33.34 32.34,33.34 32.34,33.34 C33,33 33.34,32.67 34,32 C38,27 35.67,22.34 34.34,19 Z" fill="none" stroke="currentColor" stroke-width="1.5"/><path d="M10.67,24.67 L2.34,24.34 L2.34,22.67 L10.67,22.67 L10.67,20.34 L15.67,23.67 L10.67,27 Z M47.34,24.67 L55.67,24.34 L55.67,22.67 L47.34,22.67 L47.34,20.34 L42.34,23.67 L47.34,27 Z" fill="none" stroke="currentColor" stroke-width="1.5"/></svg>