<svg xmlns="http://www.w3.org/2000/svg" viewBox="0 0 54.34 40.67" width="24" height="24"><path d="M50,40.67 L14.34,40.67 L14.34,4.67 L50,4.67 Z M19,0 L54.34,0 L50,4.67 L14.34,4.67 Z M54.34,33.67 L50,40.33 L50,4.33 L54.34,0 Z M14.34,40.67 L0,40.67 L0,4.67 L14.34,4.67 Z M4.67,0 L19,0 L14.34,4.67 L0,4.67 Z" fill="none" stroke="currentColor" stroke-width="1.5"/><path d="M14.67,17.67 L0.34,17.67" fill="none" stroke="currentColor" stroke-width="1.5"/><path d="M27,22 L19.34,22 L19.34,20.67 L16.34,22.67 L19.34,24.33 L19.34,23 L27,23 Z M28.34,26 L22.67,31.33 L21.67,30.33 L21,33.67 L24.67,33 L23.67,32.33 L29,26.67 Z M31.67,28 L31.67,35.67 L30.34,35.67 L32.34,38.33 L34.34,35.67 L33,35.67 L33,28 Z M35.67,26.67 L41.34,32.33 L40.34,33 L43.67,33.67 L43,30.33 L42,31.33 L36.67,26 Z M37.67,23 L45.34,23 L45.34,24.33 L48.34,22.67 L45.34,20.67 L45.34,22 L37.67,22 Z M36.67,19.33 L42,13.67 L43,14.67 L43.67,11.33 L40.34,12 L41.34,13 L35.67,18.33 Z M33,17.33 L33,9.33 L34.34,9.33 L32.34,6.67 L30.34,9.33 L31.67,9.33 L31.67,17.33 Z M29,18.33 L23.67,13 L24.67,12 L21,11.33 L21.67,14.67 L22.67,13.67 L28.34,19.33 Z" fill="none" stroke="currentColor" stroke-width="1.5"/><path d="M39,17.67 C36.34,14.33 31.34,13.33 27.67,15.67 C24,18.33 23.34,23.33 25.67,27 C28.34,30.67 33.34,31.33 37,29 C40.67,26.33 41.34,21.33 39,17.67 Z" fill="none" stroke="currentColor" stroke-width="1.5"/><path d="M5.67,11.33 L3.67,11.33 L3.67,10.67 L2.67,11.33 L3.67,12 L3.67,11.67 L5.67,11.67 Z M6,12.33 L4.67,14 L4.34,13.67 L4,14.67 L5,14.67 L4.67,14.33 L6.34,12.67 Z M7.34,13 L7.34,15.33 L7,15.33 L7.34,16.33 L8,15.33 L7.67,15.33 L7.67,13 Z M8.34,12.67 L10,14.33 L9.67,14.67 L10.67,14.67 L10.67,13.67 L10.34,14 L8.67,12.33 Z M9,11.67 L11.34,11.67 L11.34,12 L12.34,11.33 L11.34,10.67 L11.34,11.33 L9,11.33 Z M8.67,10.33 L10.34,8.67 L10.67,9 L10.67,8 L9.67,8.33 L10,8.33 L8.34,10 Z M7.67,9.67 L7.67,7.33 L8,7.33 L7.34,6.67 L7,7.33 L7.34,7.33 L7.34,9.67 Z M6.34,10 L4.67,8.33 L5,8.33 L4,8 L4.34,9 L4.67,8.67 L6,10.33 Z" fill="none" stroke="currentColor" stroke-width="1.5"/><path d="M9.34,10 C8.67,9 7,8.67 6,9.33 C5,10 4.67,11.67 5.34,12.67 C6.34,13.67 7.67,14 8.67,13.33 C10,12.67 10,11 9.34,10 Z" fill="none" stroke="currentColor" stroke-width="1.5"/><path d="M6.67,29.33 L6.67,35.67 L5.67,35.67 L7,38.33 L8.67,35.67 L7.67,35.67 L7.67,29.33 Z M8.34,29.33 L10.67,35.33 L9.67,35.67 L12,37.33 L12.67,34.67 L11.67,35 L9.34,29 Z M6,29.33 L3.67,35.33 L4.67,35.67 L2.34,37.33 L1.67,34.67 L2.67,35 L5,29 Z M6.67,19.33 L6.67,25.67 L5.67,25.67 L7,28 L8.67,25.67 L7.67,25.67 L7.67,19.33 Z" fill="none" stroke="currentColor" stroke-width="1.5"/></svg>