<svg xmlns="http://www.w3.org/2000/svg" viewBox="0 0 56.66 40.33" width="24" height="24"><path d="M0,40.33 L51,40.33 L51,7 L0,7 Z M56.66,32 L51,40.33 L51,7 L56.66,0 Z M8.66,0 L56.66,0 L51,7 L0,7 Z" fill="none" stroke="currentColor" stroke-width="1.5"/><path d="M11.33,15.67 L3,16 L3,14.33 L11.33,14.33 L11.33,12.33 L16.33,15 L11.33,18 Z M11.33,24.33 L3,24.33 L3,23 L11.33,23 L11.33,20.67 L16.33,23.67 L11.33,26.33 Z M11.33,32.66 L3,32.66 L3,31.33 L11.33,31.33 L11.33,29.33 L16.33,32 L11.33,35 Z M40,23.33 L48.33,23 L48.33,24.67 L40,24.67 L40,26.67 L35,24 L40,21 Z" fill="none" stroke="currentColor" stroke-width="1.5"/><path d="M33,19 C33,20 30,21 26.33,21 C22.33,21 19.33,20 19.33,19 C19.33,27.66 19.33,27.66 19.33,27.66 C19.33,28.66 22.33,29.66 26.33,29.66 C30,29.66 33,28.66 33,27.66 Z" fill="none" stroke="currentColor" stroke-width="1.5"/><rect x="0" y="0" width="0" height="0" fill="none" stroke="currentColor"/><path d="M26.33,21 C30,21 33,20 33,19 C33,17.67 30,17 26.33,17 C22.33,17 19.33,17.67 19.33,19 C19.33,20 22.33,21 26.33,21 Z" fill="none" stroke="currentColor" stroke-width="1.5"/><path d="M26.33,30.66 C30,30.66 33,29.66 33,28.66 C33,27.33 30,26.33 26.33,26.33 C22.33,26.33 19.33,27.33 19.33,28.66 C19.33,29.66 22.33,30.66 26.33,30.66 Z" fill="none" stroke="currentColor" stroke-width="1.5"/></svg>