<svg xmlns="http://www.w3.org/2000/svg" viewBox="0 0 38.66 41.0" width="24" height="24"><path d="M0,41 L0,4 L35,4 L35,41 Z M3.66,0 L0,4 L35,4 L38.66,0 Z M38.66,37.33 L38.66,0 L35,4 L35,41 Z" fill="none" stroke="currentColor" stroke-width="1.5"/><rect x="0" y="0" width="0" height="0" fill="none" stroke="currentColor"/><path d="M32.66,5.67 L3,5.67 L3,39 L32.66,39 Z" fill="none" stroke="currentColor" stroke-width="1.5"/><path d="M22,33.33 C22,35.67 20,37.33 17.66,37.33 C15.66,37.33 13.66,35.67 13.66,33.33 C13.66,31 15.66,29.33 17.66,29.33 C20,29.33 22,31 22,33.33 Z" fill="none" stroke="currentColor" stroke-width="1.5"/><path d="M7.66,27.33 L30.33,27.33" fill="none" stroke="currentColor" stroke-width="1.5"/><path d="M9.66,25.33 L8.66,27.33 L9.66,29.33 L5,27.33 Z" fill="none" stroke="currentColor" stroke-width="1.5"/><path d="M28.33,14.67 L5.66,14.67" fill="none" stroke="currentColor" stroke-width="1.5"/><path d="M26.33,16.67 L27.33,14.67 L26.33,13 L31,14.67 Z" fill="none" stroke="currentColor" stroke-width="1.5"/><path d="M25,24.33 L11.33,24.33 L11.33,17.33 L25,17.33 Z" fill="none" stroke="currentColor" stroke-width="1.5"/><path d="M11.33,17.33 L18,20.67 L25,17.33" fill="none" stroke="currentColor" stroke-width="1.5"/></svg>