<svg xmlns="http://www.w3.org/2000/svg" viewBox="0 0 59.0 40.34" width="24" height="24"><path d="M47.67,40.34 L47.67,11 L0,11 L0,40.34 Z M0,11 L14.34,0 L59,0 L47.67,11 Z M47.67,40.34 L59,27.67 L59,0 L47.67,11 Z" fill="none" stroke="currentColor" stroke-width="1.5"/><path d="M18.34,21.34 C19.34,17 16.67,14.67 14.34,15 C14,15 14,15 14,15 C13.34,11.67 8.34,12.67 8.34,14.34 C8.34,14.34 8.34,14.34 8.34,14.34 C6,14 3.34,18 4.67,20.34 C5,20.34 5,20.34 5,20.34 C2.67,21.34 2.34,24 2.34,26.67 C2.34,29.34 2.34,30.67 3.67,31.67 C3.67,32 3.67,32 3.67,32 C3.34,35.67 6.67,37.67 9,36.67 C9.34,37 9.34,37 9.34,37 C9.67,38.34 13.34,38.34 14,36 C14.34,36.34 14.34,36.34 14.34,36.34 C16.67,37.34 19,35 18.67,31.67 C18.67,31.34 18.67,31.34 18.67,31.34 C21.34,29 21,22.34 18.34,21.67 Z M42.67,21.34 C43.67,17 41,14.67 38.34,15 C38.34,15 38.34,15 38.34,15 C37.67,11.67 32.34,12.67 32.34,14.34 C32.34,14.34 32.34,14.34 32.34,14.34 C30,14 27.67,18 29,20.34 C29,20.34 29,20.34 29,20.34 C27,21.34 26.67,24 26.34,26.67 C26.34,29.34 26.67,30.67 28,31.67 C28,32 28,32 28,32 C27.34,35.67 31,37.67 33.34,36.67 C33.34,37 33.34,37 33.34,37 C33.67,38.34 37.67,38.34 38.34,36 C38.34,36.34 38.34,36.34 38.34,36.34 C41,37.34 43.34,35 42.67,31.67 C43,31.34 43,31.34 43,31.34 C45.67,29 45,22.34 42.67,21.67 Z" fill="none" stroke="currentColor" stroke-width="1.5"/><rect x="0" y="0" width="0" height="0" fill="none" stroke="currentColor"/><path d="M12.67,22 L10,19 L8.67,20.34 L8.34,16.34 L12.34,16.67 L11,18 L13.67,20.67 Z M12.67,30 L10,32.67 L8.67,31.34 L8.34,35.34 L12.34,35.34 L11,33.67 L13.67,31 Z M10,26.67 L6,26.67 L6,28.67 L3,26 L6,23 L6,25 L10,25 Z M34.67,22 L37.34,19 L39,20.34 L39,16.34 L35,16.67 L36.34,18 L33.67,20.67 Z M34.67,30 L37.34,32.67 L39,31.34 L39,35.34 L35,35.34 L36.34,33.67 L33.67,31 Z M37,26.67 L41,26.67 L41,28.67 L44,26 L41,23 L41,25 L37,25 Z" fill="none" stroke="currentColor" stroke-width="1.5"/><path d="M19.67,25.34 L27.34,25.34 L27.34,26.67 L19.67,26.67 Z" fill="none" stroke="currentColor" stroke-width="1.5"/><path d="M26.34,26.67 L30.34,26.67 L30.34,28.67 L33.34,26 L30.34,23 L30.34,25 L26.34,25 Z M20.34,26.67 L16.34,26.67 L16.34,28.67 L13.34,26 L16.34,23 L16.34,25 L20.34,25 Z" fill="none" stroke="currentColor" stroke-width="1.5"/></svg>