<svg xmlns="http://www.w3.org/2000/svg" viewBox="0 0 47.33 31.0" width="24" height="24"><path d="M0,31 L42.33,31 L42.33,6.34 L0,6.34 Z M47.33,23.67 L42.33,31 L42.33,6.34 L47.33,0 Z M7.67,0 L47.33,0 L42.33,6.34 L0,6.34 Z" fill="none" stroke="currentColor" stroke-width="1.5"/><path d="M31.33,18.34 L37.33,18.34 L37.33,19.67 L40.33,17.67 L37.33,15.67 L37.33,17.34 L31.33,17.34 Z" fill="none" stroke="currentColor" stroke-width="1.5"/><path d="M36.33,28.34 C36,28.34 35.33,28 35.33,27.34 C35,27 35.33,26.34 36,26.34 C36.67,26 37.33,26.34 37.33,27 C37.33,27.67 37,28.34 36.33,28.34 Z" fill="none" stroke="currentColor" stroke-width="1.5"/><path d="M38.33,28.34 C38.33,29 37.67,30 36.67,30 C36,30 35.33,29 35.33,28.34 C35.33,27.34 36,26.67 36.67,26.67 C37.67,26.67 38.33,27.34 38.33,28.34 Z" fill="none" stroke="currentColor" stroke-width="1.5"/><path d="M38,27 L36,30 L27,24.34 L29,21 Z" fill="none" stroke="currentColor" stroke-width="1.5"/><path d="M18,8 C12.67,9 9,14.67 10.33,20 C11.67,25.34 17,29 22.33,27.67 C28,26.67 31.33,21 30,15.67 C29,10.34 23.67,6.67 18,8 Z" fill="none" stroke="currentColor" stroke-width="1.5"/><path d="M10,17.34 L7,17.34 L7,18.67 L10.33,18.67 Z" fill="none" stroke="currentColor" stroke-width="1.5"/><path d="M12.33,23.67 L8,26.67 L8.67,27.34 L13,24.67 Z" fill="none" stroke="currentColor" stroke-width="1.5"/><path d="M12,11.34 L8.33,9 L7.67,10 L11.33,12.34 Z" fill="none" stroke="currentColor" stroke-width="1.5"/><path d="M22,26.34 C17.33,27.34 12.67,24.34 11.67,19.67 C10.67,15 13.67,10.34 18.33,9.34 C23,8.34 27.67,11.34 28.67,16 C29.67,20.67 26.67,25.34 22,26.34 Z" fill="none" stroke="currentColor" stroke-width="1.5"/><path d="M17,11.34 L17,24.67 L25,19 L28.67,19 L28.67,17 L25,17 L17,11.34 Z M10,18.67 L13.67,18.67 L13.67,20 L16.67,18 L13.67,16 L13.67,17.34 L10,17.34 Z M13,24.67 L14.33,24 L15,25 L16.33,21.67 L13,21.67 L13.67,23 L12.33,23.67 Z M11.67,12.34 L13.67,13.34 L13,14.67 L16.33,14.67 L15,11.34 L14.33,12.67 L12.33,11.34 Z" fill="none" stroke="currentColor" stroke-width="1.5"/></svg>