<svg xmlns="http://www.w3.org/2000/svg" viewBox="0 0 65.33 33.67" width="24" height="24"><path d="M59.33,33.67 L59.33,6 L0,6 L0,33.67 Z M59,6 L0,6 L7.33,0 L65,0 L65,0.34 L65,27.67 L59.33,33.67 L59.33,6 Z M59.33,6 L65,0" fill="none" stroke="currentColor" stroke-width="1.5"/><path d="M45.33,26.67 C48,26.67 50.33,24.34 50.33,21.34 C50.33,18.67 48,16.34 45.33,16.34 C42.33,16.34 40,18.67 40,21.34 C40,24.34 42.33,26.67 45.33,26.67 Z M45.33,16.34 L54,16.34 M40,21.34 L40,12.67 M45.33,26.67 L36.33,26.67 M14,26.67 C11,26.67 8.67,24.34 8.67,21.34 C8.67,18.67 11,16.34 14,16.34 C16.67,16.34 19,18.67 19,21.34 C19,24.34 16.67,26.67 14,26.67 Z M14,16.34 L5,16.34 M19,21.34 L19,12.67 M13.67,26.67 L22.67,26.67" fill="none" stroke="currentColor" stroke-width="1.5"/><path d="M54,13 L54,19.34 L58,16.34 Z M37,12.67 L43.33,12.67 L40.33,8.67 Z M36.33,30 L36.33,23.34 L32.33,26.67 Z M5,13 L5,19.34 L1,16.34 Z M22.33,12.67 L15.67,12.67 L19,8.67 Z M22.67,30 L22.67,23.34 L26.67,26.67 Z" fill="none" stroke="currentColor" stroke-width="1.5"/><path d="M29.67,12.34 L29.67,28.34" fill="none" stroke="currentColor" stroke-width="1.5"/></svg>