<svg xmlns="http://www.w3.org/2000/svg" viewBox="0 0 48.0 34.0" width="24" height="24"><path d="M40.34,34 L40.34,6.33 L0,6.33 L0,34 Z M40.34,6.33 L48,0 L10.34,0 L0,6.33 Z M48,27.67 L48,0 L40.34,6.33 L40.34,34 Z" fill="none" stroke="currentColor" stroke-width="1.5"/><path d="M2.67,23 L14.67,23 L20.67,11 L29,28 L32,23 L38,23" fill="none" stroke="currentColor" stroke-width="1.5"/><path d="M6.34,32.66 C7,32.66 7.67,32 7.67,31.33 C7.67,30.66 7,30.33 6.34,30.33 C5.67,30.33 5.34,30.66 5.34,31.33 C5.34,32 5.67,32.66 6.34,32.66 Z" fill="none" stroke="currentColor" stroke-width="1.5"/><path d="M5.34,30 L8,32.66 L15,25.33 L12.34,23 Z" fill="none" stroke="currentColor" stroke-width="1.5"/><path d="M11.34,17.67 C11.34,23 15.67,27 21,27 C26.34,27 30.34,23 30.34,17.67 C30.34,12.33 26.34,8 21,8 C15.67,8 11.34,12.33 11.34,17.67 Z M12.67,17.67 C12.67,13 16.34,9.33 21,9.33 C25.34,9.33 29,13 29,17.67 C29,22 25.34,25.67 21,25.67 C16.34,25.67 12.67,22 12.67,17.67 Z" fill="none" stroke="currentColor" stroke-width="1.5"/><path d="M10.34,18 C10.34,23.33 14.67,27.67 19.67,27.67 C25,27.67 29.34,23.33 29.34,18 C29.34,13 25,8.67 19.67,8.67 C14.67,8.67 10.34,13 10.34,18 Z M11.67,18 C11.67,13.67 15.34,10 19.67,10 C24.34,10 28,13.67 28,18 C28,22.67 24.34,26.33 19.67,26.33 C15.34,26.33 11.67,22.67 11.67,18 Z" fill="none" stroke="currentColor" stroke-width="1.5"/></svg>