<svg xmlns="http://www.w3.org/2000/svg" viewBox="0 0 45.0 37.34" width="24" height="24"><path d="M40,37.34 L45,33.67 L24.33,0 L19,3 Z M0,37.34 L40,37.34 L19,3 L0,37 Z" fill="none" stroke="currentColor" stroke-width="1.5"/><path d="M19.33,26.67 C20.67,26.67 22,25.34 22,23.67 C22,22.34 20.67,21 19.33,21 C17.67,21 16.33,22.34 16.33,23.67 C16.33,25.34 17.67,26.67 19.33,26.67 Z" fill="none" stroke="currentColor" stroke-width="1.5"/><path d="M19.33,16 C20.67,16 22,14.67 22,13.34 C22,11.67 20.67,10.34 19.33,10.34 C17.67,10.34 16.33,11.67 16.33,13.34 C16.33,14.67 17.67,16 19.33,16 Z" fill="none" stroke="currentColor" stroke-width="1.5"/><path d="M27,34.34 C28.67,34.34 30,33.34 30,31.67 C30,30 28.67,28.67 27,28.67 C25.33,28.67 24,30 24,31.67 C24,33.34 25.33,34.34 27,34.34 Z" fill="none" stroke="currentColor" stroke-width="1.5"/><path d="M11.33,34.34 C13,34.34 14.33,33 14.33,31.67 C14.33,30 13,28.67 11.33,28.67 C10,28.67 8.67,30 8.67,31.67 C8.67,33 10,34.34 11.33,34.34 Z" fill="none" stroke="currentColor" stroke-width="1.5"/><path d="M19,13.67 L19,23.67 L11.33,31.67 M19,24 L26.33,31.34" fill="none" stroke="currentColor" stroke-width="1.5"/></svg>