<svg xmlns="http://www.w3.org/2000/svg" viewBox="0 0 79.33 37.67" width="24" height="24"><path d="M0,37.67 L0,20 L53,20 L53,37.67 Z M0,20 L53,20 L61.33,11.67 L10.33,11.67 Z M53,37.67 L61.33,28 L61.33,11.67 L53,20 Z M14.67,9.67 L14,13.33 L20.33,13.33 L19.67,9.67 Z M6.33,15.33 L5.67,19 L12.33,19 L11.67,15.33 Z M15.33,14 L19.33,14 L18.33,12 Z" fill="none" stroke="currentColor" stroke-width="1.5"/><path d="M14.67,9.67 C10.33,9.33 6.33,14.33 6.33,15.33 C11.67,15.33 11.67,15.33 11.67,15.33 C11.67,14.33 15.33,9.33 19.67,9.67 Z" fill="none" stroke="currentColor" stroke-width="1.5"/><path d="M20.33,13.33 C19.33,14 19.33,14 19.33,14 C18.33,12 18.33,12 18.33,12 C15,14.33 15,14.33 15,14.33 C14.67,17.33 14.67,17.33 14.67,17.33 C12.33,19 12.33,19 12.33,19 C11.67,15.33 11.67,15.33 11.67,15.33 C11.67,14.33 15.33,9.33 19.67,9.67 Z" fill="none" stroke="currentColor" stroke-width="1.5"/><path d="M27,0 L18.67,8.67 L19.67,8.67 L28,0 Z M35.33,11.67 L27,20 L19.67,8.67 L28,0 Z" fill="none" stroke="currentColor" stroke-width="1.5"/><path d="M25.67,20 L18.67,8.67 L19.67,8.67 L27,20 Z" fill="none" stroke="currentColor" stroke-width="1.5"/><path d="M79.33,14.33 L71,23 L53,29.33 L61.67,20.67 Z M79.33,15.67 L71,24.33 L71,23 L79.33,14.33 Z M53,29.33 L53,30.33 L71,24.33 L71,23 Z" fill="none" stroke="currentColor" stroke-width="1.5"/><path d="M26.67,2 L33.67,13" fill="none" stroke="currentColor" stroke-width="1.5"/><path d="M25,3.67 L32,14.67" fill="none" stroke="currentColor" stroke-width="1.5"/><path d="M23.33,5.33 L30,16.33" fill="none" stroke="currentColor" stroke-width="1.5"/><path d="M21.67,7 L28.33,18" fill="none" stroke="currentColor" stroke-width="1.5"/></svg>