<svg xmlns="http://www.w3.org/2000/svg" viewBox="0 0 48.0 27.33" width="24" height="24"><path d="M0,3.66 L3.67,0 L48,0 L44.33,3.66 Z M44.33,27.33 L44.33,3.66 L0,3.66 L0,27.33 Z M44.33,27.33 L48,24.66 L48,0 L44.33,3.66 Z" fill="none" stroke="currentColor" stroke-width="1.5"/><rect x="0" y="0" width="0" height="0" fill="none" stroke="currentColor"/><path d="M3.67,11.66 L3.67,19.66 L4.67,20.66 L12.67,20.66 L13.67,19.66 L13.67,11.66 L12.67,10.66 L4.67,10.66 L3.67,11.66 M3.67,11.66 L4.67,12.66 L9,13.33 L12.67,12.66 L13.67,11.66 M17.33,11.66 L17.33,19.66 L18,20.66 L26.33,20.66 L27,19.66 L27,11.66 L26.33,10.66 L18,10.66 L17.33,11.66 M17.33,11.66 L18,12.66 L22.67,13.33 L26.33,12.66 L27,11.66 M30.67,12.66 L30.67,19.66 L31.67,20.66 L36,21.66 L39.67,20.66 L40.67,19.66 L40.67,12.66 L39.67,11.66 L36,10.66 L31.67,11.66 L30.67,12.66 M30.67,12.66 L31.67,13.33 L36,13.33 L39.67,13.33 L40.67,12.66" fill="none" stroke="currentColor" stroke-width="1.5"/></svg>