<svg xmlns="http://www.w3.org/2000/svg" viewBox="0 0 85.67 30.0" width="24" height="24"><rect x="0" y="0" width="0" height="0" fill="none" stroke="currentColor"/><path d="M54.67,27.67 C70,27.67 82.34,22 82.34,15 C82.34,8.33 70,2.67 54.67,2.67 C39.34,2.67 27,8.33 27,15 C27,22 39.34,27.67 54.67,27.67 Z" fill="none" stroke="currentColor" stroke-width="1.5"/><path d="M54.67,30 C71.67,30 85.67,23.33 85.67,15 C85.67,6.67 71.67,0 54.67,0 C37.67,0 23.67,6.67 23.67,15 C23.67,23.33 37.67,30 54.67,30 Z" fill="none" stroke="currentColor" stroke-width="1.5"/><path d="M3.34,17 L27.34,17 M0,14 L24,14" fill="none" stroke="currentColor" stroke-width="1.5"/></svg>