<svg xmlns="http://www.w3.org/2000/svg" viewBox="0 0 27.0 39.0" width="24" height="24"><path d="M20.34,6.33 L0,6.33 L0,39 L20.34,39 Z M20.34,39 L27,32.66 L27,0 L6.67,0 L0,6.33 L20.34,6.33 L20.34,39 Z M20.34,6.33 L27,0" fill="none" stroke="currentColor" stroke-width="1.5"/><path d="M9.67,31.33 C9.67,32 8,32.66 5.67,32.66 C3.67,32.66 2,32 2,31.33 C2,30.33 3.67,29.66 5.67,29.66 C8,29.66 9.67,30.33 9.67,31.33 Z" fill="none" stroke="currentColor" stroke-width="1.5"/><path d="M7,31 C7,31.33 6.34,31.66 5.67,31.66 C5,31.66 4.67,31.33 4.67,31 C4.67,31 5,30.66 5.67,30.66 C6.34,30.66 7,31 7,31 Z" fill="none" stroke="currentColor" stroke-width="1.5"/><path d="M7,30.33 C7,30.66 6.34,30.66 5.67,30.66 C5,30.66 4.67,30.66 4.67,30.33 C4.67,30 5,30 5.67,30 C6.34,30 7,30 7,30.33 Z" fill="none" stroke="currentColor" stroke-width="1.5"/><path d="M9.67,29.66 C9.67,30.33 8,31 5.67,31 C3.67,31 2,30.33 2,29.66 C2,28.66 3.67,28.33 5.67,28.33 C8,28.33 9.67,28.66 9.67,29.66 Z" fill="none" stroke="currentColor" stroke-width="1.5"/><path d="M7,29.66 C7,29.66 6.34,30 5.67,30 C5,30 4.67,29.66 4.67,29.66 C4.67,29.33 5,29 5.67,29 C6.34,29 7,29.33 7,29.66 Z" fill="none" stroke="currentColor" stroke-width="1.5"/><path d="M7,28.66 C7,29 6.34,29.33 5.67,29.33 C5,29.33 4.67,29 4.67,28.66 C4.67,28.66 5,28.33 5.67,28.33 C6.34,28.33 7,28.66 7,28.66 Z" fill="none" stroke="currentColor" stroke-width="1.5"/><path d="M9.67,28 C9.67,29 8,29.66 5.67,29.66 C3.67,29.66 2,29 2,28 C2,27.33 3.67,26.66 5.67,26.66 C8,26.66 9.67,27.33 9.67,28 Z" fill="none" stroke="currentColor" stroke-width="1.5"/><path d="M7,28 C7,28.33 6.34,28.33 5.67,28.33 C5,28.33 4.67,28.33 4.67,28 C4.67,27.66 5,27.66 5.67,27.66 C6.34,27.66 7,27.66 7,28 Z" fill="none" stroke="currentColor" stroke-width="1.5"/><path d="M9.67,25 C9.67,25.66 8,26.33 5.67,26.33 C3.67,26.33 2,25.66 2,25 C2,24 3.67,23.33 5.67,23.33 C8,23.33 9.67,24 9.67,25 Z" fill="none" stroke="currentColor" stroke-width="1.5"/><path d="M7,24.66 C7,25 6.34,25.33 5.67,25.33 C5,25.33 4.67,25 4.67,24.66 C4.67,24.66 5,24.33 5.67,24.33 C6.34,24.33 7,24.66 7,24.66 Z" fill="none" stroke="currentColor" stroke-width="1.5"/><path d="M7,24 C7,24.33 6.34,24.33 5.67,24.33 C5,24.33 4.67,24.33 4.67,24 C4.67,23.66 5,23.66 5.67,23.66 C6.34,23.66 7,23.66 7,24 Z" fill="none" stroke="currentColor" stroke-width="1.5"/><path d="M9.67,23.33 C9.67,24 8,24.66 5.67,24.66 C3.67,24.66 2,24 2,23.33 C2,22.33 3.67,21.66 5.67,21.66 C8,21.66 9.67,22.33 9.67,23.33 Z" fill="none" stroke="currentColor" stroke-width="1.5"/><path d="M7,23 C7,23.33 6.34,23.66 5.67,23.66 C5,23.66 4.67,23.33 4.67,23 C4.67,23 5,22.66 5.67,22.66 C6.34,22.66 7,23 7,23 Z" fill="none" stroke="currentColor" stroke-width="1.5"/><path d="M7,22.33 C7,22.66 6.34,22.66 5.67,22.66 C5,22.66 4.67,22.66 4.67,22.33 C4.67,22 5,22 5.67,22 C6.34,22 7,22 7,22.33 Z" fill="none" stroke="currentColor" stroke-width="1.5"/><path d="M9.67,21.66 C9.67,22.33 8,23 5.67,23 C3.67,23 2,22.33 2,21.66 C2,20.66 3.67,20.33 5.67,20.33 C8,20.33 9.67,20.66 9.67,21.66 Z" fill="none" stroke="currentColor" stroke-width="1.5"/><path d="M7,21.66 C7,21.66 6.34,22 5.67,22 C5,22 4.67,21.66 4.67,21.66 C4.67,21.33 5,21 5.67,21 C6.34,21 7,21.33 7,21.66 Z" fill="none" stroke="currentColor" stroke-width="1.5"/><path d="M9.67,18.33 C9.67,19.33 8,20 5.67,20 C3.67,20 2,19.33 2,18.33 C2,17.66 3.67,17 5.67,17 C8,17 9.67,17.66 9.67,18.33 Z" fill="none" stroke="currentColor" stroke-width="1.5"/><path d="M7,18.33 C7,18.66 6.34,18.66 5.67,18.66 C5,18.66 4.67,18.66 4.67,18.33 C4.67,18 5,18 5.67,18 C6.34,18 7,18 7,18.33 Z" fill="none" stroke="currentColor" stroke-width="1.5"/><path d="M7,17.66 C7,17.66 6.34,18 5.67,18 C5,18 4.67,17.66 4.67,17.66 C4.67,17.33 5,17 5.67,17 C6.34,17 7,17.33 7,17.66 Z" fill="none" stroke="currentColor" stroke-width="1.5"/><path d="M9.67,17 C9.67,17.66 8,18.33 5.67,18.33 C3.67,18.33 2,17.66 2,17 C2,16 3.67,15.33 5.67,15.33 C8,15.33 9.67,16 9.67,17 Z" fill="none" stroke="currentColor" stroke-width="1.5"/><path d="M7,16.66 C7,17 6.34,17.33 5.67,17.33 C5,17.33 4.67,17 4.67,16.66 C4.67,16.66 5,16.33 5.67,16.33 C6.34,16.33 7,16.66 7,16.66 Z" fill="none" stroke="currentColor" stroke-width="1.5"/><path d="M7,16 C7,16.33 6.34,16.33 5.67,16.33 C5,16.33 4.67,16.33 4.67,16 C4.67,15.66 5,15.66 5.67,15.66 C6.34,15.66 7,15.66 7,16 Z" fill="none" stroke="currentColor" stroke-width="1.5"/><path d="M9.67,15.33 C9.67,16 8,16.66 5.67,16.66 C3.67,16.66 2,16 2,15.33 C2,14.33 3.67,13.66 5.67,13.66 C8,13.66 9.67,14.33 9.67,15.33 Z" fill="none" stroke="currentColor" stroke-width="1.5"/><path d="M7,15 C7,15.33 6.34,15.66 5.67,15.66 C5,15.66 4.67,15.33 4.67,15 C4.67,15 5,14.66 5.67,14.66 C6.34,14.66 7,15 7,15 Z" fill="none" stroke="currentColor" stroke-width="1.5"/><path d="M18.34,31.33 C18.34,32 16.67,32.66 14.34,32.66 C12.34,32.66 10.67,32 10.67,31.33 C10.67,30.33 12.34,29.66 14.34,29.66 C16.67,29.66 18.34,30.33 18.34,31.33 Z" fill="none" stroke="currentColor" stroke-width="1.5"/><path d="M15.67,31 C15.67,31.33 15,31.66 14.34,31.66 C13.67,31.66 13.34,31.33 13.34,31 C13.34,31 13.67,30.66 14.34,30.66 C15,30.66 15.67,31 15.67,31 Z" fill="none" stroke="currentColor" stroke-width="1.5"/><path d="M15.67,30.33 C15.67,30.66 15,30.66 14.34,30.66 C13.67,30.66 13.34,30.66 13.34,30.33 C13.34,30 13.67,30 14.34,30 C15,30 15.67,30 15.67,30.33 Z" fill="none" stroke="currentColor" stroke-width="1.5"/><path d="M18.34,29.66 C18.34,30.33 16.67,31 14.34,31 C12.34,31 10.67,30.33 10.67,29.66 C10.67,28.66 12.34,28.33 14.34,28.33 C16.67,28.33 18.34,28.66 18.34,29.66 Z" fill="none" stroke="currentColor" stroke-width="1.5"/><path d="M15.67,29.66 C15.67,29.66 15,30 14.34,30 C13.67,30 13.34,29.66 13.34,29.66 C13.34,29.33 13.67,29 14.34,29 C15,29 15.67,29.33 15.67,29.66 Z" fill="none" stroke="currentColor" stroke-width="1.5"/><path d="M15.67,28.66 C15.67,29 15,29.33 14.34,29.33 C13.67,29.33 13.34,29 13.34,28.66 C13.34,28.66 13.67,28.33 14.34,28.33 C15,28.33 15.67,28.66 15.67,28.66 Z" fill="none" stroke="currentColor" stroke-width="1.5"/><path d="M18.34,28 C18.34,29 16.67,29.66 14.34,29.66 C12.34,29.66 10.67,29 10.67,28 C10.67,27.33 12.34,26.66 14.34,26.66 C16.67,26.66 18.34,27.33 18.34,28 Z" fill="none" stroke="currentColor" stroke-width="1.5"/><path d="M15.67,28 C15.67,28.33 15,28.33 14.34,28.33 C13.67,28.33 13.34,28.33 13.34,28 C13.34,27.66 13.67,27.66 14.34,27.66 C15,27.66 15.67,27.66 15.67,28 Z" fill="none" stroke="currentColor" stroke-width="1.5"/><path d="M18.34,25 C18.34,25.66 16.67,26.33 14.34,26.33 C12.34,26.33 10.67,25.66 10.67,25 C10.67,24 12.34,23.33 14.34,23.33 C16.67,23.33 18.34,24 18.34,25 Z" fill="none" stroke="currentColor" stroke-width="1.5"/><path d="M15.67,24.66 C15.67,25 15,25.33 14.34,25.33 C13.67,25.33 13.34,25 13.34,24.66 C13.34,24.66 13.67,24.33 14.34,24.33 C15,24.33 15.67,24.66 15.67,24.66 Z" fill="none" stroke="currentColor" stroke-width="1.5"/><path d="M15.67,24 C15.67,24.33 15,24.33 14.34,24.33 C13.67,24.33 13.34,24.33 13.34,24 C13.34,23.66 13.67,23.66 14.34,23.66 C15,23.66 15.67,23.66 15.67,24 Z" fill="none" stroke="currentColor" stroke-width="1.5"/><path d="M18.34,23.33 C18.34,24 16.67,24.66 14.34,24.66 C12.34,24.66 10.67,24 10.67,23.33 C10.67,22.33 12.34,21.66 14.34,21.66 C16.67,21.66 18.34,22.33 18.34,23.33 Z" fill="none" stroke="currentColor" stroke-width="1.5"/><path d="M15.67,23 C15.67,23.33 15,23.66 14.34,23.66 C13.67,23.66 13.34,23.33 13.34,23 C13.34,23 13.67,22.66 14.34,22.66 C15,22.66 15.67,23 15.67,23 Z" fill="none" stroke="currentColor" stroke-width="1.5"/><path d="M15.67,22.33 C15.67,22.66 15,22.66 14.34,22.66 C13.67,22.66 13.34,22.66 13.34,22.33 C13.34,22 13.67,22 14.34,22 C15,22 15.67,22 15.67,22.33 Z" fill="none" stroke="currentColor" stroke-width="1.5"/><path d="M18.34,21.66 C18.34,22.33 16.67,23 14.34,23 C12.34,23 10.67,22.33 10.67,21.66 C10.67,20.66 12.34,20.33 14.34,20.33 C16.67,20.33 18.34,20.66 18.34,21.66 Z" fill="none" stroke="currentColor" stroke-width="1.5"/><path d="M15.67,21.66 C15.67,21.66 15,22 14.34,22 C13.67,22 13.34,21.66 13.34,21.66 C13.34,21.33 13.67,21 14.34,21 C15,21 15.67,21.33 15.67,21.66 Z" fill="none" stroke="currentColor" stroke-width="1.5"/><path d="M18.34,18.33 C18.34,19.33 16.67,20 14.34,20 C12.34,20 10.67,19.33 10.67,18.33 C10.67,17.66 12.34,17 14.34,17 C16.67,17 18.34,17.66 18.34,18.33 Z" fill="none" stroke="currentColor" stroke-width="1.5"/><path d="M15.67,18.33 C15.67,18.66 15,18.66 14.34,18.66 C13.67,18.66 13.34,18.66 13.34,18.33 C13.34,18 13.67,18 14.34,18 C15,18 15.67,18 15.67,18.33 Z" fill="none" stroke="currentColor" stroke-width="1.5"/><path d="M15.67,17.66 C15.67,17.66 15,18 14.34,18 C13.67,18 13.34,17.66 13.34,17.66 C13.34,17.33 13.67,17 14.34,17 C15,17 15.67,17.33 15.67,17.66 Z" fill="none" stroke="currentColor" stroke-width="1.5"/><path d="M18.34,17 C18.34,17.66 16.67,18.33 14.34,18.33 C12.34,18.33 10.67,17.66 10.67,17 C10.67,16 12.34,15.33 14.34,15.33 C16.67,15.33 18.34,16 18.34,17 Z" fill="none" stroke="currentColor" stroke-width="1.5"/><path d="M15.67,16.66 C15.67,17 15,17.33 14.34,17.33 C13.67,17.33 13.34,17 13.34,16.66 C13.34,16.66 13.67,16.33 14.34,16.33 C15,16.33 15.67,16.66 15.67,16.66 Z" fill="none" stroke="currentColor" stroke-width="1.5"/><path d="M15.67,16 C15.67,16.33 15,16.33 14.34,16.33 C13.67,16.33 13.34,16.33 13.34,16 C13.34,15.66 13.67,15.66 14.34,15.66 C15,15.66 15.67,15.66 15.67,16 Z" fill="none" stroke="currentColor" stroke-width="1.5"/><path d="M18.34,15.33 C18.34,16 16.67,16.66 14.34,16.66 C12.34,16.66 10.67,16 10.67,15.33 C10.67,14.33 12.34,13.66 14.34,13.66 C16.67,13.66 18.34,14.33 18.34,15.33 Z" fill="none" stroke="currentColor" stroke-width="1.5"/><path d="M15.67,15 C15.67,15.33 15,15.66 14.34,15.66 C13.67,15.66 13.34,15.33 13.34,15 C13.34,15 13.67,14.66 14.34,14.66 C15,14.66 15.67,15 15.67,15 Z" fill="none" stroke="currentColor" stroke-width="1.5"/></svg>