<svg xmlns="http://www.w3.org/2000/svg" viewBox="0 0 27.33 36.0" width="24" height="24"><path d="M20.67,6.67 L0,6.67 L0,36 L20.67,36 Z M20.67,36 L27.33,29.67 L27.33,0 L6.67,0 L0,6.67 L20.67,6.67 L20.67,36 Z" fill="none" stroke="currentColor" stroke-width="1.5"/><rect x="0" y="0" width="0" height="0" fill="none" stroke="currentColor"/><path d="M20.67,6.67 L27.33,0 M0,14.67 L20.67,14.67 M0,24 L20.67,24 M7.33,20.34 L13,20.34 M7.33,18.67 L13,18.67 M10,20.34 L10,20.34 M15.33,22.34 L15.33,16.67 L5,16.67 L5,22.34 Z" fill="none" stroke="currentColor" stroke-width="1.5"/></svg>