<svg xmlns="http://www.w3.org/2000/svg" viewBox="0 0 33.0 53.0" width="24" height="24"><path d="M32.67,0 L29,4.33 L0,4.33 L5,0 Z M0,16 L0,4.33 L29,4.33 L29,16 Z M32.67,12 L32.67,0.33 L29,4.33 L29,16 Z M29,16 L29,39 L32.67,35 L32.67,12 Z M29,16 L29,38.66 L0,38.66 L0,16 Z M0,53 L0,38.66 L29,38.66 L29,53 Z M32.67,49 L32.67,35 L29,38.66 L29,53 Z" fill="none" stroke="currentColor" stroke-width="1.5"/><path d="M29,8 L0.34,8 M31,2 L3,2 M29,12 L0.34,12 M32.67,3.66 L29.34,7.66 M32.67,7.66 L29.34,11.66 M8.67,4.33 L8.67,8 M20,4.33 L20,8 M8.67,12 L8.67,15.66 M20,12 L20,15.66 M14.67,8 L14.67,11.66 M3.34,8 L3.34,11.66 M25.67,8 L25.67,11.66 M13,0 L8.67,4 M24,0 L20,4" fill="none" stroke="currentColor" stroke-width="1.5"/><path d="M31,2 L31,13.66" fill="none" stroke="currentColor" stroke-width="1.5"/><path d="M15,24.66 L15,19.66 L16,19.66 L14.67,17.66 L13.34,19.66 L14.34,19.66 L14.34,24.66 Z M12.67,25.33 L9,21.66 L9.67,21.33 L7.34,20.66 L8,23 L8.34,22.33 L12,26 Z M11.34,27.66 L6.34,27.66 L6.34,26.66 L4.34,28 L6.34,29.33 L6.34,28.33 L11.34,28.33 Z M12,30.33 L8.34,33.66 L8,33 L7.34,35.33 L9.67,35 L9,34.33 L12.67,30.66 Z M14.34,29.66 L14.34,39.33 L13.34,39.33 L14.67,41.33 L16,39.33 L15,39.33 L15,29.66 Z M17,30.66 L20.34,34.33 L19.67,35 L22,35.33 L21.67,33 L21,33.66 L17.34,30.33 Z M18,28.33 L23.34,28.33 L23.34,29.33 L25,28 L23.34,26.66 L23.34,27.66 L18,27.66 Z M17.34,26 L21,22.33 L21.67,23 L22,20.66 L19.67,21.33 L20.34,21.66 L17,25.33 Z" fill="none" stroke="currentColor" stroke-width="1.5"/><path d="M17.67,32.33 C20,30.66 20.67,27.33 19,25 C17.34,22.66 14.34,22 11.67,23.66 C9.34,25.33 9,28.66 10.67,31 C12.34,33.33 15.34,34 17.67,32.33 Z" fill="none" stroke="currentColor" stroke-width="1.5"/><path d="M14.34,44.33 L22,44.33 L22,43.66 L24.67,45 L22,46.66 L22,46 L14.34,46 Z M14.34,49 L22,49 L22,48.33 L24.67,49.66 L22,51.33 L22,50.66 L14.34,50.66 Z M14.67,42 L7,42 L7,41.33 L4.34,42.66 L7,44.33 L7,43.66 L14.67,43.66 Z M14.67,46.66 L7,46.66 L7,46 L4.34,47.66 L7,49 L7,48.33 L14.67,48.33 Z" fill="none" stroke="currentColor" stroke-width="1.5"/></svg>