<svg xmlns="http://www.w3.org/2000/svg" viewBox="0 0 18.67 42.67" width="24" height="24"><path d="M0,42.67 L0,7.34 L10.67,7.34 L10.67,42.67 Z M10.67,7.34 L0,7.34 L9.67,0 L18.67,0 Z M18.67,0 L18.67,33.67 L10.67,42.67 L10.67,7.34 Z" fill="none" stroke="currentColor" stroke-width="1.5"/><path d="M16.33,7.67 L16.33,2 M16.33,19.34 L16.33,13.67 M16.33,30.67 L16.33,25 M18.67,28 L10.67,37 M18.67,22.34 L10.67,31 M18.67,16.67 L10.67,25 M18.67,11 L10.67,19.34 M18.67,5.67 L10.67,13.34 M10.67,7.34 L18.67,0 M10.67,37 L0,37 M10.67,31 L0,31 M10.67,25 L0,25 M10.67,19 L0,19 M10.67,13.34 L0,13.34 M13.67,39.33 L13.67,33.67 M13.67,28 L13.67,22.34 M13.67,16.34 L13.67,10.67" fill="none" stroke="currentColor" stroke-width="1.5"/></svg>