<svg xmlns="http://www.w3.org/2000/svg" viewBox="0 0 36.67 52.0" width="24" height="24"><path d="M4.67,15.67 L0,20.33 L0,52 L32,52 L36.67,47.67 L36.67,15.67 Z M0,20.33 L32,20.33 L36.67,15.67 L4.67,15.67 Z M32,20.33 L36.67,15.67 L36.67,47.67 L32,52 Z M4.67,15.67 L0,20.33 L0,52 L32,52 L36.67,47.67 L36.67,15.67 Z" fill="none" stroke="currentColor" stroke-width="1.5"/><path d="M4.67,0 L0,4.33 L0,20.33 L32,20.33 L36.67,15.67 L36.67,0 Z M32,4.33 L36.67,0 L36.67,15.67 L32,20.33 Z M4.67,0 L0,4.33 L0,20.33 L32,20.33 L36.67,15.67 L36.67,0 Z" fill="none" stroke="currentColor" stroke-width="1.5"/><path d="M32,20.33 L32,4.33 L0,4.33" fill="none" stroke="currentColor" stroke-width="1.5"/><path d="M2.33,6.67 L11.33,6.67 L11.33,11.33 L2.33,11.33 Z" fill="none" stroke="currentColor" stroke-width="1.5"/><path d="M4.67,25 L27.33,25 L27.33,47.67 L4.67,47.67 Z" fill="none" stroke="currentColor" stroke-width="1.5"/><path d="M20.67,6.67 L29.67,6.67 L29.67,11.33 L20.67,11.33 Z M2.33,13.67 L11.33,13.67 L11.33,18 L2.33,18 Z M20.67,13.67 L29.67,13.67 L29.67,18 L20.67,18 Z" fill="none" stroke="currentColor" stroke-width="1.5"/><path d="M11.33,9 L20.67,9" fill="none" stroke="currentColor" stroke-width="1.5"/><path d="M11.33,15.67 L20.67,15.67" fill="none" stroke="currentColor" stroke-width="1.5"/><path d="M11.33,13.67 L20.67,11.33" fill="none" stroke="currentColor" stroke-width="1.5"/><path d="M11.33,11.33 L20.67,13.67" fill="none" stroke="currentColor" stroke-width="1.5"/><rect x="0" y="0" width="0" height="0" fill="none" stroke="currentColor"/><path d="M16,29.33 C19.67,29.33 23,32.33 23,36.33 C23,40 19.67,43 16,43 C12,43 9.33,40 9.33,36.33 C9.33,32.33 12,29.33 16,29.33" fill="none" stroke="currentColor" stroke-width="1.5"/><path d="M16,34 C17.33,34 18.33,34.67 18.33,36.33 C18.33,37.33 17.33,38.33 16,38.33 C14.67,38.33 13.67,37.33 13.67,36.33 C13.67,34.67 14.67,34 16,34" fill="none" stroke="currentColor" stroke-width="1.5"/></svg>