<svg xmlns="http://www.w3.org/2000/svg" viewBox="0 0 56.34 85.0" width="24" height="24"><rect x="0" y="0" width="0" height="0" fill="none" stroke="currentColor"/><path d="M11.34,51.33 L0,51.33 L0,85 L11.34,85 Z M11.34,85 L17.67,78.66 L17.67,45 L6.34,45 L0,51.33 L11.34,51.33 Z" fill="none" stroke="currentColor" stroke-width="1.5"/><path d="M34.34,9.33 L11.34,9.33 L11.34,85 L34.34,85 Z" fill="none" stroke="currentColor" stroke-width="1.5"/><path d="M34.34,85 L43.67,75.66 L43.67,0 L20.67,0 L11.34,9.33 L34.34,9.33 Z" fill="none" stroke="currentColor" stroke-width="1.5"/><path d="M34.34,9.33 L43.67,0" fill="none" stroke="currentColor" stroke-width="1.5"/><path d="M47,21.33 L34.67,21.33 L34.67,85 L47,85 Z" fill="none" stroke="currentColor" stroke-width="1.5"/><path d="M47,85 L56.34,76 L56.34,12.33 L43.67,12.33 L34.67,21.33 L47,21.33 Z" fill="none" stroke="currentColor" stroke-width="1.5"/><path d="M47,21.33 L56.34,12.33" fill="none" stroke="currentColor" stroke-width="1.5"/><rect x="0" y="0" width="0" height="0" fill="none" stroke="currentColor"/><path d="M23.34,40.33 L23.34,44 L26.67,44 M28.34,40.33 L28.34,44 L31.67,44 M13.34,40.66 L13.34,44 L17,44 M18.34,40.66 L18.34,44 L22,44 M23.34,47.66 L23.34,51.33 L26.67,51.33 M28.34,47.66 L28.34,51.33 L31.67,51.33 M13.34,48 L13.34,51.33 L17,51.33 M18.34,48 L18.34,51.33 L21.67,51.33 M23.34,55 L23.34,58.33 L26.67,58.33 M28.34,55 L28.34,58.33 L31.67,58.33 M13.34,55 L13.34,58.33 L17,58.33 M18.34,55 L18.34,58.33 L21.67,58.33 M23.34,61.33 L23.34,65 L26.67,65 M28.34,61.33 L28.34,65 L31.67,65 M13.34,61.33 L13.34,65 L17,65 M18.34,61.33 L18.34,65 L21.67,65 M37,24.33 L37,28 L40.34,28 M41.67,24.33 L41.67,28 L45.34,28 M36.67,31 L36.67,34.33 L40.34,34.33 M41.67,31 L41.67,34.33 L45.34,34.33 M36.67,37 L36.67,40.33 L40.34,40.33 M41.67,37 L41.67,40.33 L45.34,40.33 M1.67,54 L1.67,57.66 L5,57.66 M6.67,54 L6.67,57.66 L10,57.66 M2,60.66 L2,64.33 L5.34,64.33 M6.67,60.66 L6.67,64.33 L10.34,64.33 M2,66.66 L2,70.33 L5.34,70.33 M6.67,66.66 L6.67,70.33 L10.34,70.33 M23.34,13.33 L23.34,16.66 L27,16.66 M28.34,13.33 L28.34,16.66 L32,16.66 M13.34,13.33 L13.34,17 L17,17 M18.34,13.33 L18.34,17 L22,17 M23.34,20.66 L23.34,24 L27,24 M28.34,20.66 L28.34,24 L31.67,24 M13.34,20.66 L13.34,24.33 L17,24.33 M18.34,20.66 L18.34,24.33 L22,24.33 M23.34,27.66 L23.34,31 L27,31 M28.34,27.66 L28.34,31 L31.67,31 M13.34,27.66 L13.34,31.33 L17,31.33 M18.34,27.66 L18.34,31.33 L22,31.33 M23.34,34 L23.34,37.66 L27,37.66 M28.34,34 L28.34,37.66 L31.67,37.66 M13.34,34.33 L13.34,37.66 L17,37.66 M18.34,34.33 L18.34,37.66 L22,37.66 M36.67,43.33 L36.67,46.66 L40.34,46.66 M41.67,43.33 L41.67,46.66 L45.34,46.66 M36.67,49.33 L36.67,52.66 L40.34,52.66 M41.67,49.33 L41.67,52.66 L45.34,52.66" fill="none" stroke="currentColor" stroke-width="1.5"/></svg>