<svg xmlns="http://www.w3.org/2000/svg" viewBox="0 0 40.0 36.66" width="24" height="24"><path d="M33.33,36.66 L40,30 L40,0 L33.33,6.66 Z M40,0 L33.33,6.66 L0,6.66 L8.66,0 Z M33.33,36.66 L33.33,6.66 L0,6.66 L0,36.66 Z" fill="none" stroke="currentColor" stroke-width="1.5"/><rect x="0" y="0" width="0" height="0" fill="none" stroke="currentColor"/><path d="M16,10 L16,31.66 L15,31.66 L16.66,34.33 L18.66,31.66 L17.33,31.66 L17.33,10 Z M7,10 L7,31.66 L5.66,31.66 L7.33,34.33 L9.33,31.66 L8,31.66 L8,10 Z M25,10 L25,31.66 L23.66,31.66 L25.66,34.33 L27.33,31.66 L26,31.66 L26,10 Z" fill="none" stroke="currentColor" stroke-width="1.5"/><path d="M30,18 L3.66,18 L3.66,9.66 L30,9.66 Z" fill="none" stroke="currentColor" stroke-width="1.5"/></svg>