<svg xmlns="http://www.w3.org/2000/svg" viewBox="0 0 41.66 46.66" width="24" height="24"><path d="M41.66,8 C41.66,12.66 32.33,16.33 21,16.33 C9.33,16.33 0,12.66 0,8 C0,38.66 0,38.66 0,38.66 C0,43 9.33,46.66 21,46.66 C32.33,46.66 41.66,43 41.66,38.66 Z M21,16.33 C32.33,16.33 41.66,12.66 41.66,8 C41.66,3.66 32.33,0 21,0 C9.33,0 0,3.66 0,8 C0,12.66 9.33,16.33 21,16.33 Z" fill="none" stroke="currentColor" stroke-width="1.5"/><rect x="0" y="0" width="0" height="0" fill="none" stroke="currentColor"/><path d="M16,5 L18,7.66 L11.33,9 L12.66,8 L2.66,6 L5.33,4.33 L15,6 Z M25.33,11.33 L24,8.66 L30,7.33 L29,8.33 L38.66,10 L36.33,11.66 L26.66,10 Z M22,3.66 L28.66,1.66 L28.66,4.66 L27,4.33 L24,7 L20.66,6.33 L24,4 Z M19.33,13.66 L13,14.66 L12.66,12 L14.66,12.33 L18,9.33 L21,10 L17.33,13 Z M21.33,27 L21.33,20.33 L22.33,20.33 L20.66,18 L19,20.33 L20,20.33 L20,27 Z M18,28 L13.33,23.33 L14,22.33 L11,21.66 L11.66,24.66 L12.33,24 L17,28.66 Z M16,31 L9.66,31 L9.66,29.66 L7,31.33 L9.66,33 L9.66,32 L16,32 Z M17,34.33 L12.33,39 L11.66,38 L11,41 L14,40.33 L13.33,39.66 L18,35 Z M20,36 L20,42.66 L19,42.66 L20.66,45 L22.33,42.66 L21.33,42.66 L21.33,36 Z M23.33,35 L28,39.66 L27.33,40.33 L30.33,41 L29.66,38 L29,39 L24.33,34.33 Z M25.33,32 L31.66,32 L31.66,33 L34.33,31.33 L31.66,29.66 L31.66,31 L25.33,31 Z M24.33,28.66 L29,24 L29.66,24.66 L30.33,21.66 L27.33,22.33 L28,23.33 L23.33,28 Z" fill="none" stroke="currentColor" stroke-width="1.5"/><path d="M24.66,37 C27.66,34.66 28.66,30.66 26.33,27.33 C24.33,24.33 20,23.66 17,25.66 C13.66,28 13,32.33 15.33,35.33 C17.33,38.33 21.66,39 24.66,37 Z" fill="none" stroke="currentColor" stroke-width="1.5"/></svg>