<svg xmlns="http://www.w3.org/2000/svg" viewBox="0 0 42.67 23.0" width="24" height="24"><path d="M42.67,21.34 L42.67,0 L40.34,2 L40.34,23 Z M40.34,23 L40.34,2 L0,2 L0,23 Z M42.67,0 L2.34,0 L0,2 L40.34,2 Z" fill="none" stroke="currentColor" stroke-width="1.5"/><path d="M2.67,6.67 C2.67,4.34 4.67,4 4.67,4 C4.67,4 28,4 30,4 C32.67,4 32.67,6.67 32.67,6.67 C32.67,6.67 32.67,17 32.67,18.67 C32.67,20 30.67,20.67 30.67,20.67 C30.67,20.67 7,20.67 5,20.67 C3.34,20.67 2.67,18.67 2.67,18.67 Z M37.34,6.34 C37.34,6.67 37,7 36.34,7 C35.67,7 35.34,6.67 35.34,6.34 C35.34,6 35.67,5.67 36.34,5.67 C37,5.67 37.34,6 37.34,6.34 Z M37.34,10.67 C37.34,11 37,11.34 36.34,11.34 C35.67,11.34 35.34,11 35.34,10.67 C35.34,10.34 35.67,10 36.34,10 C37,10 37.34,10.34 37.34,10.67 Z M37.34,15 C37.34,15.34 37,15.67 36.34,15.67 C35.67,15.67 35.34,15.34 35.34,15 C35.34,14.67 35.67,14.67 36.34,14.67 C37,14.67 37.34,14.67 37.34,15 Z M37.34,19.67 C37.34,20 37,20.34 36.34,20.34 C35.67,20.34 35.34,20 35.34,19.67 C35.34,19.34 35.67,19 36.34,19 C37,19 37.34,19.34 37.34,19.67 Z" fill="none" stroke="currentColor" stroke-width="1.5"/></svg>