<svg xmlns="http://www.w3.org/2000/svg" viewBox="0 0 40.0 29.33" width="24" height="24"><path d="M0,29.33 L0,22.66 L28,22.66 L28,29.33 Z M28,22.66 L0,22.66 L13.33,3.66 L40,3.66 Z M40,3.66 L40,16 L28,29.33 L28,23 Z" fill="none" stroke="currentColor" stroke-width="1.5"/><path d="M18.66,7 C17,9 15,11.33 13.66,13.66 C13.66,15.66 13.66,15.66 13.66,15.66 C9.33,22 9.33,22 9.33,22 C9,17.33 9,17.33 9,17.33 C9.66,14 19.66,1.33 22,0 C22.66,4 22.66,4 22.66,4 C19,9 19,9 19,9 Z" fill="none" stroke="currentColor" stroke-width="1.5"/><path d="M4,17.33 L3.33,22 L9.33,22 L9,17.33 Z" fill="none" stroke="currentColor" stroke-width="1.5"/><path d="M22,0 C19.66,1.33 9.66,14 9,17.33 C4,17.33 4,17.33 4,17.33 C4.66,14 14.66,1.33 17,0 Z" fill="none" stroke="currentColor" stroke-width="1.5"/><rect x="0" y="0" width="0" height="0" fill="none" stroke="currentColor"/><path d="M14.66,21 L12.66,21 L13.66,20 L15.33,20 Z M18.66,21 L16.66,21 L17.66,20 L19.33,20 Z M22.66,21 L20.66,21 L21.66,20 L23.33,20 Z M26.66,21 L24.66,21 L25.66,20 L27.33,20 Z" fill="none" stroke="currentColor" stroke-width="1.5"/></svg>