<svg xmlns="http://www.w3.org/2000/svg" viewBox="0 0 26.66 48.0" width="24" height="24"><path d="M22,46.33 L22,3.67 L2,3.67 L2,46.33 L22,46.33 Z M2,3.67 L6,0 L25,0 L22,3.67 L2,3.67 Z M22,46.33 L25,40.33 L25,0 L22,3.67 L22,46.33 Z M23.66,48 L22,46.33 L2,46.33 L0,48 L23.66,48 Z M23.66,48 L26.66,41.67 L25,40.33 L22,46.33 L23.66,48 Z M2,6 L22,6" fill="none" stroke="currentColor" stroke-width="1.5"/><rect x="0" y="0" width="0" height="0" fill="none" stroke="currentColor"/><path d="M18,11 L3.33,11 L3.33,12.33 L6,12.33 Z M18,13.33 L3.33,13.33 L3.33,14.67 L6,14.67 Z M18,16 L3.33,16 L3.33,17.33 L6,17.33 Z M18,18.33 L3.33,18.33 L3.33,19.67 L6,19.67 Z M18,21 L3.33,21 L3.33,22.33 L6,22.33 Z M18,23.33 L3.33,23.33 L3.33,24.67 L6,24.67 Z M18,25.67 L3.33,25.67 L3.33,27 L6,27 Z M18,28.33 L3.33,28.33 L3.33,29.67 L6,29.67 Z M18,30.67 L3.33,30.67 L3.33,32 L6,32 Z M18,33.33 L3.33,33.33 L3.33,34.67 L6,34.67 Z M18,35.67 L3.33,35.67 L3.33,37 L6,37 Z M18,38 L3.33,38 L3.33,39.33 L6,39.33 Z M18,40.67 L3.33,40.67 L3.33,42 L6,42 Z M18,43 L3.33,43 L3.33,44.33 L6,44.33 Z" fill="none" stroke="currentColor" stroke-width="1.5"/><path d="M18,11 L3.33,11 L3.33,12.33 L6,12.33 M18,13.33 L3.33,13.33 L3.33,14.67 L6,14.67 M18,16 L3.33,16 L3.33,17.33 L6,17.33 M18,18.33 L3.33,18.33 L3.33,19.67 L6,19.67 M18,21 L3.33,21 L3.33,22.33 L6,22.33 M18,23.33 L3.33,23.33 L3.33,24.67 L6,24.67 M18,25.67 L3.33,25.67 L3.33,27 L6,27 M18,28.33 L3.33,28.33 L3.33,29.67 L6,29.67 M18,30.67 L3.33,30.67 L3.33,32 L6,32 M18,33.33 L3.33,33.33 L3.33,34.67 L6,34.67 M18,35.67 L3.33,35.67 L3.33,37 L6,37 M18,38 L3.33,38 L3.33,39.33 L6,39.33 M18,40.67 L3.33,40.67 L3.33,42 L6,42 M18,43 L3.33,43 L3.33,44.33 L6,44.33" fill="none" stroke="currentColor" stroke-width="1.5"/></svg>