<svg xmlns="http://www.w3.org/2000/svg" viewBox="0 0 23.33 48.67" width="24" height="24"><path d="M1.66,48.33 L4,48.67 L13.66,48.67 L16,48.33 L17.33,47.33 L17.66,46.67 L17.66,8.67 L0,8.67 L0,47.33 Z M23.33,0 L17.66,5.33 L17.66,46.67 L23.33,40 L23.33,0 Z" fill="none" stroke="currentColor" stroke-width="1.5"/><rect x="0" y="0" width="0" height="0" fill="none" stroke="currentColor"/><path d="M17.66,8.67 L23.33,3.33 M17.66,43.67 L23.33,37.33" fill="none" stroke="currentColor" stroke-width="1.5"/><path d="M5,0 C23.33,0 23.33,0 23.33,0 C17.66,5.33 17.66,5.33 17.66,5.33 C17.66,5.33 17.66,5.33 17.66,5.33 C17.66,5.33 10.33,8 0,5 Z M0,5 C10.33,8 17.66,5.33 17.66,5.33 C17.66,8.67 17.66,8.67 17.66,8.67 C17.66,8.67 10.33,11.33 0,8.33 Z" fill="none" stroke="currentColor" stroke-width="1.5"/><path d="M17.33,21 L0,21 L0,21.33 M0,14.67 L17.67,14.67 M0,17.33 L17.67,17.33 M0.33,22.67 L1.66,24 L4,24 M16.66,13.33 L1.33,13.33 L1.33,11.33 L16.66,11.33 Z M4,22.33 L13.66,22.33 L16,22 L17.33,21 M4,24 L13.66,24 L16,24 L17.33,22.67 M0.33,21 L1.66,22 L4,22.33 M0.33,26.67 L1.66,27.67 L4,28 M4,26 L13.66,26 L16,25.67 L17.33,24.67 M4,28 L13.66,28 L16,27.67 L17.33,26.67 M0.33,24.67 L1.66,25.67 L4,26 M0.33,30.33 L1.66,31.33 L4,31.67 M4,30 L13.66,30 L16,29.67 L17.33,28.67 M4,31.67 L13.66,31.67 L16,31.33 L17.33,30.33 M0.33,28.67 L1.66,29.67 L4,30 M0.33,34.33 L1.66,35.33 L4,35.33 M4,33.67 L13.66,33.67 L16,33.33 L17.33,32.33 M4,35.33 L13.66,35.33 L16,35.33 L17.33,34.33 M0.33,32.33 L1.66,33.33 L4,33.67 M0.33,38 L1.66,39 L4,39.33 M4,37.33 L13.66,37.33 L16,37.33 L17.33,36 M4,39.33 L13.66,39.33 L16,39 L17.33,38 M0.33,36 L1.66,37.33 L4,37.33 M0.33,41.67 L1.66,42.67 L4,43 M4,41.33 L13.66,41.33 L16,41 L17.33,40 M4,43 L13.66,43 L16,42.67 L17.33,41.67 M0.33,40 L1.66,41 L4,41.33 M0.33,45.67 L1.66,46.67 L4,47 M4,45 L13.66,45 L16,44.67 L17.33,43.67 M4,47 L13.66,47 L16,46.67 L17.33,45.67 M0.33,43.67 L1.66,44.67 L4,45" fill="none" stroke="currentColor" stroke-width="1.5"/></svg>