<svg xmlns="http://www.w3.org/2000/svg" viewBox="0 0 44.67 48.0" width="24" height="24"><path d="M22.33,48 L0,36.33 L0,11.66 L22.33,23.33 Z M22.33,23.33 L44.67,11.66 L22.33,0 L0,11.66 Z M44.67,36.33 L22.33,48 L22.33,23.33 L44.67,11.66 Z" fill="none" stroke="currentColor" stroke-width="1.5"/><rect x="0" y="0" width="0" height="0" fill="none" stroke="currentColor"/><path d="M22.33,13 L27,15.33 L24.33,15.33 L24.33,20 L20.67,20 L20.67,15.33 L17.67,15.33 Z M39.33,11.66 L34.67,14 L34.67,12.66 L26,12.66 L26,10.66 L34.67,10.66 L34.67,9 Z M22.33,10.33 L17.67,8 L20.67,8 L20.67,3.33 L24.33,3.33 L24.33,8 L27,8 Z M5.33,11.66 L10,9 L10,10.66 L18.67,10.66 L18.67,12.66 L10,12.66 L10,14 Z" fill="none" stroke="currentColor" stroke-width="1.5"/><path d="M42.67,29.33 L42.67,15 L25.33,24 L25.33,38.33 Z" fill="none" stroke="currentColor" stroke-width="1.5"/><path d="M28,24.33 C40,18 40,18 40,18 C40.67,17.66 41.33,18 41.33,18.66 C41.33,27 41.33,27 41.33,27 C41.33,28 40.67,29 40,29.33 C28,35.66 28,35.66 28,35.66 C27,36 26.67,35.66 26.67,35 C26.67,26.66 26.67,26.66 26.67,26.66 C26.67,25.66 27,24.66 28,24.33 Z M38.67,33 L29.33,38 L29.33,36.33 L38.67,31.33 Z M42.67,35 L25.33,44 L25.33,40 L42.67,31 Z M43,35.66 L25,45.33 L25,43.66 L43,34 Z" fill="none" stroke="currentColor" stroke-width="1.5"/><path d="M34.33,27.66 L32.33,31 L32.33,23.66 L37.33,26.33 Z" fill="none" stroke="currentColor" stroke-width="1.5"/><path d="M34.33,28 L35.67,30.66 L36,30.33 L34.67,27.66 Z" fill="none" stroke="currentColor" stroke-width="1.5"/><path d="M20.67,40.33 L20.67,35 L17.33,36 Z M2,30.66 L2,25 L5.33,29.33 Z M4,20.66 L4,26.33 L0.67,22 Z M18.33,28.33 L18.33,33.66 L21.67,32.66 Z" fill="none" stroke="currentColor" stroke-width="1.5"/><path d="M16.67,31 L18.67,32 L19.33,31 L17,30 Z" fill="none" stroke="currentColor" stroke-width="1.5"/><path d="M19.67,37 L22.33,38.33" fill="none" stroke="currentColor" stroke-width="1.5"/><path d="M2.67,28 L0,26.66" fill="none" stroke="currentColor" stroke-width="1.5"/><path d="M2.67,23.33 L5.67,25 L5.67,24 L3,22.66 Z M15.33,29.33 L15.33,40.33 L7.33,36.33 L7.33,25 Z" fill="none" stroke="currentColor" stroke-width="1.5"/><path d="M14,31.66 L8.67,29 L8.67,27 L14,29.66 Z M14,38.66 L8.67,36 L8.67,31 L14,33.66 Z" fill="none" stroke="currentColor" stroke-width="1.5"/><path d="M13,25 C13,25 13.33,25 13.67,25.66 C13.67,27 13.67,27 13.67,27 C17,29 17,29 17,29 C17.33,28.33 17.33,28.33 17.33,28.33 C16.33,26 16.33,26 16.33,26 C13.33,24 12.67,23.66 12.67,23.66 C11.67,23 11.67,23 11.67,23 C11.67,23 9,22 7.67,21.66 C6,22.33 6,22.33 6,22.33 C6,23.33 6,23.33 6,23.33 C9.33,24.66 9.33,24.66 9.33,24.66 C9.33,23.66 9.33,23.66 9.33,23.66 C9.67,23 10.33,23.33 10.33,23.33 Z" fill="none" stroke="currentColor" stroke-width="1.5"/><path d="M14,32.66 L8.67,30" fill="none" stroke="currentColor" stroke-width="1.5"/></svg>