<svg xmlns="http://www.w3.org/2000/svg" viewBox="0 0 41.67 43.99" width="24" height="24"><rect x="0" y="0" width="0" height="0" fill="none" stroke="currentColor"/><path d="M31.33,43.99 L31.33,34 L0,34 L0,43.99 Z" fill="none" stroke="currentColor" stroke-width="1.5"/><path d="M41.67,24.66 L31.33,34 L0,34 L11.33,24.66 Z" fill="none" stroke="currentColor" stroke-width="1.5"/><path d="M41.67,34.33 L41.67,24.66 L31.33,34 L31.33,43.99 Z M31.33,31.66 L31.33,21.66 L0,21.66 L0,31.66 Z" fill="none" stroke="currentColor" stroke-width="1.5"/><path d="M41.67,12 L31.33,21.33 L0,21.33 L11.33,12 Z" fill="none" stroke="currentColor" stroke-width="1.5"/><path d="M41.67,22.67 L41.67,12 L31.33,21.33 L31.33,31.67 Z M31.33,19.33 L31.33,9.33 L0,9.33 L0,19.33 Z M41.67,0 L31.33,9.33 L0,9.33 L11.33,0 Z M41.67,10 L41.67,0 L31.33,9.33 L31.33,19.33 Z" fill="none" stroke="currentColor" stroke-width="1.5"/><path d="M25.67,5.33 L27,4.33 L30.67,5.33 L23.33,7 L24.67,5.66 L17.67,5.66 L18.67,5.33 Z M22.33,2.66 L21.67,3.33 L15.67,3.33 L14.67,4 L11,2.66 L18,1.33 L16.33,2.66 Z M17,6.66 L16.33,7.33 L10.33,7.33 L9.33,8 L5.67,7 L13,5.33 L11.33,6.66 Z M31.33,1.66 L32.67,0.66 L36.33,1.66 L29,3.33 L30.33,2.33 L23.33,2.33 L24.33,1.66 Z" fill="none" stroke="currentColor" stroke-width="1.5"/><path d="M25.67,5.66 L27,4.66 L30.67,5.66 L23.33,7.33 L24.67,6 L17.67,6 L18.67,5.66 Z M22.33,3 L21.67,3.66 L15.67,3.66 L14.67,4.33 L11,3 L18,1.66 L16.33,3 Z M17,7 L16.33,7.66 L10.33,7.66 L9.33,8.33 L5.67,7.33 L13,5.66 L11.33,7 Z M31.33,2 L32.67,1 L36.33,2 L29,3.66 L30.33,2.66 L23.33,2.66 L24.33,2 Z M17,20.66 L17,13.66 L18,13.66 L16.33,11 L14.67,13.66 L15.67,13.66 L15.67,20.66 Z M13.33,23 L8.33,18 L9.33,17.33 L6.33,16.66 L6.67,19.66 L7.67,19 L12.67,23.66 Z M11.67,26.33 L4.67,26.33 L4.67,25 L2,26.66 L4.67,28.66 L4.67,27.33 L11.67,27.33 Z M12.67,29.66 L7.67,34.66 L6.67,33.66 L6.33,37 L9.33,36.33 L8.33,35.33 L13.33,30.66 Z M15.67,31.66 L15.67,38.33 L14.67,38.33 L16.33,41 L18,38.33 L17,38.33 L17,31.66 Z M19.33,30.66 L24.33,35.33 L23.33,36.33 L26.33,37 L25.67,33.66 L25,34.66 L20,29.66 Z M21,27.33 L28,27.33 L28,28.66 L30.67,26.66 L28,25 L28,26.33 L21,26.33 Z M20,23.66 L25,19 L25.67,19.66 L26.33,16.66 L23.33,17.33 L24.33,18 L19.33,23 Z" fill="none" stroke="currentColor" stroke-width="1.5"/><path d="M19.33,31 C21.67,29.33 22.33,26.33 20.67,24 C19,21.66 15.67,21 13.67,22.66 C11.33,24.33 10.67,27.33 12.33,29.66 C14,32 17,32.66 19.33,31 Z" fill="none" stroke="currentColor" stroke-width="1.5"/><path d="M40,22.66 C39.67,29 37.67,34 35.67,34 C34,34 32.67,28.33 33.33,22 C33.67,15.33 35.67,10.33 37.67,10.33 C39.33,10.66 40.67,16 40,22.66 Z" fill="none" stroke="currentColor" stroke-width="1.5"/></svg>