<svg xmlns="http://www.w3.org/2000/svg" viewBox="0 0 25.0 41.0" width="24" height="24"><path d="M21.67,41 L21.67,17.67 L0,17.67 L0,41 Z M21.67,17.67 L21.67,3.67 L0,3.67 L0,17.67 Z M0,3.67 L4,0.33 L25,0.33 L21.67,3.67 Z M21.67,41 L25,37 L25,14.33 L21.67,17.67 Z M21.67,17.67 L25,14 L25,0.33 L21.67,3.67 Z" fill="none" stroke="currentColor" stroke-width="1.5"/><path d="M0,38.33 L21.67,38.33 M0,17.67 L21.33,17.67" fill="none" stroke="currentColor" stroke-width="1.5"/><path d="M9,30.33 L9,33.33 L8,33.33 L10.33,36.33 L13,33.33 L11.67,33.33 L11.67,30.33 Z M9,27.67 L9,24.67 L8,24.67 L10.33,21.67 L13,24.67 L11.67,24.67 L11.67,27.67 Z M3,28 L6,28 L6,26.67 L9,29 L6,31.67 L6,30.33 L3,30.33 Z M18,28 L14.67,28 L14.67,26.67 L11.67,29 L14.67,31.67 L14.67,30.33 L18,30.33 Z" fill="none" stroke="currentColor" stroke-width="1.5"/><rect x="0" y="0" width="0" height="0" fill="none" stroke="currentColor"/><path d="M21.67,8.33 L0,8.33 M23.67,1.67 L2,1.67 M21.67,13 L0,13 M25,5 L21.67,8.33 M25,9.33 L21.67,13 M23.33,2 L23.33,15.33 M6.33,3.67 L6.33,8.33 M14.67,3.67 L14.67,8.33 M6.33,13.33 L6.33,17.67 M14.67,13.33 L14.67,17.67 M10.67,8.33 L10.67,13 M2.33,8.33 L2.33,13 M19,8.33 L19,13 M10.67,0.33 L6.33,3.67 M19,0.33 L14.67,3.67 M25,34.67 L21.67,38.33" fill="none" stroke="currentColor" stroke-width="1.5"/></svg>