<svg xmlns="http://www.w3.org/2000/svg" viewBox="0 0 85.66 46.33" width="24" height="24"><path d="M51,24.33 L55.66,0 L20.33,0 L15,24.33 Z M55.66,0 L57.33,1.66 L53,25.66 L51,24.33 Z M15,24.33 L16.66,25.66 L53,25.66 L51,24.33 Z" fill="none" stroke="currentColor" stroke-width="1.5"/><path d="M51.33,26 C51.33,29.66 51.33,29.66 51.33,29.66 C50.66,30.66 50.66,30.66 50.66,30.66 C50.66,30.66 48.33,31.33 48.66,32.66 C39,41.66 39,41.66 39,41.66 C39,37.66 39,37.66 39,37.66 Z" fill="none" stroke="currentColor" stroke-width="1.5"/><rect x="0" y="0" width="0" height="0" fill="none" stroke="currentColor"/><path d="M0,37.66 L0,41.66 L39,41.66 L39,37.66 Z" fill="none" stroke="currentColor" stroke-width="1.5"/><path d="M0,37.66 L0,41.66 L39,41.66 L39,37.66" fill="none" stroke="currentColor" stroke-width="1.5"/><path d="M15.33,26.33 L51.33,26 L39,37.66 L0,37.66 Z M48,22 L52,3 L23,3 L19.33,22 Z" fill="none" stroke="currentColor" stroke-width="1.5"/><path d="M16.33,26.66 L7.33,34 M19.33,26.66 L10,34 M22,26.66 L13,34 M25,26.66 L16,34 M28,26.66 L19,34 M31,26.66 L21.66,34 M33.66,26.66 L24.66,34 M36.66,26.66 L27.66,34 M39.66,26.66 L30.66,34 M42.66,26.66 L33.33,34 M45.33,26.66 L36.33,34 M48.33,26.66 L39.33,34 M8.33,33.33 L40.66,33.33 M10.33,31.66 L42.33,31.66 M12.66,30 L44.33,30 M14.66,28.33 L46.66,28.33" fill="none" stroke="currentColor" stroke-width="1.5"/><path d="M34.33,9 C39.66,9 39.66,9 39.66,9 C41,9.66 40.66,10.66 40.66,10.66 C40.66,11.66 40,11.66 40,11.66 C30.33,11.66 30.33,11.66 30.33,11.66 C28.66,11.66 29.33,10.33 29.33,10.33 C33.33,5.66 33.33,5.66 33.33,5.66 C34,5 35.33,5.66 35.33,5.66 C36.33,6.33 36,7.33 36,7.33 Z" fill="none" stroke="currentColor" stroke-width="1.5"/><path d="M38,16.33 C33,16.33 33,16.33 33,16.33 C31.66,16 31.66,15 31.66,15 C31.66,14 32.66,13.66 32.66,13.66 C42,13.66 42,13.66 42,13.66 C44,14 43.33,15.33 43.33,15.33 C39.33,20 39.33,20 39.33,20 C38.66,20.66 37,20 37,20 C36.33,19 36.66,18.33 36.66,18.33 Z" fill="none" stroke="currentColor" stroke-width="1.5"/><path d="M49,41 C49,41.66 48.33,42.33 47.66,42.33 C46.66,42.33 46,41.66 46,41 C46,40 46.66,39.33 47.66,39.33 C48.33,39.33 49,40 49,41 Z" fill="none" stroke="currentColor" stroke-width="1.5"/><path d="M75,43.33 C70.66,45 62.33,45.33 55.33,44.33 C51,43.33 48.33,42.33 47.66,41" fill="none" stroke="currentColor" stroke-width="1.5"/><path d="M57.66,36 C58.66,33.33 60.33,31 63,29 C69.33,23.66 77.66,22.66 81.66,26.33 C85.66,30 83.66,37 77.66,42.33 C77,42.66 76.33,43.33 75.66,43.66" fill="none" stroke="currentColor" stroke-width="1.5"/><path d="M78.33,43.66 C78.33,45 77,46.33 75.66,46.33 C74.33,46.33 73,45 73,43.66 C73,42.33 74.33,41 75.66,41 C77,41 78.33,42.33 78.33,43.66 Z" fill="none" stroke="currentColor" stroke-width="1.5"/><path d="M59,36 C59,36.66 58.33,37.33 57.66,37.33 C56.66,37.33 56,36.66 56,36 C56,35 56.66,34.33 57.66,34.33 C58.33,34.33 59,35 59,36 Z" fill="none" stroke="currentColor" stroke-width="1.5"/></svg>