<svg xmlns="http://www.w3.org/2000/svg" viewBox="0 0 56.66 31.66" width="24" height="24"><rect x="0" y="0" width="0" height="0" fill="none" stroke="currentColor"/><path d="M27,2.33 C14.33,2.33 14.33,2.33 14.33,2.33 C0,23 0,23 0,23 C12.66,23 12.66,23 12.66,23 C28,25.33 31.66,24 46.33,23 C56.66,6 56.66,6 56.66,6 C53,6 53,6 53,6 C55.66,2.33 55.66,2.33 55.66,2.33 C30.33,2.33 30.33,2.33 30.33,2.33 C27.33,6 27.33,6 27.33,6 C24.33,6 24.33,6 24.33,6 Z" fill="none" stroke="currentColor" stroke-width="1.5"/><path d="M27,21.66 L18,21.66 L23,15.33 L31.66,15.33 Z M56.66,6 L56.66,18.33 L46.33,29.66 L46.33,23 Z" fill="none" stroke="currentColor" stroke-width="1.5"/><path d="M20.33,7 C18.66,9 16.66,11.33 15.33,13.66 C15.33,15 15.33,15 15.33,15 C11,21.66 11,21.66 11,21.66 C10.66,17.33 10.66,17.33 10.66,17.33 C11.33,14 21.33,1.33 23.66,0 C24.33,4.33 24.33,4.33 24.33,4.33 C20.33,8.33 20.33,8.33 20.33,8.33 Z" fill="none" stroke="currentColor" stroke-width="1.5"/><path d="M2.66,17.33 L2.33,21.66 L11,21.66 L10.66,17.33 Z" fill="none" stroke="currentColor" stroke-width="1.5"/><path d="M23.66,0 C21.33,1.33 11.33,14 10.66,17.33 C2.66,17.33 2.66,17.33 2.66,17.33 C3.33,14 13.33,1.33 15.66,0 Z" fill="none" stroke="currentColor" stroke-width="1.5"/><rect x="0" y="0" width="0" height="0" fill="none" stroke="currentColor"/><path d="M26.33,11 L31.66,4 L52,4 L47.33,11 Z" fill="none" stroke="currentColor" stroke-width="1.5"/><path d="M28.66,9.66 L32,5 L45.66,5 L42.66,9.66 Z" fill="none" stroke="currentColor" stroke-width="1.5"/><path d="M28.66,15.33 L24,21.66 M25.66,15.33 L21,21.66 M22,16.66 L30.66,16.66 M20.66,18.33 L29.33,18.33 M19,20.33 L28,20.33" fill="none" stroke="currentColor" stroke-width="1.5"/><path d="M46.33,29.66 C31.66,30.66 28,31.66 12.66,29.66 C0,29.66 0,29.66 0,29.66 C0,23 0,23 0,23 C12.66,23 12.66,23 12.66,23 C28,25.33 31.66,24 46.33,23 Z" fill="none" stroke="currentColor" stroke-width="1.5"/><path d="M27,2.33 L27,6 L24.33,6 Z" fill="none" stroke="currentColor" stroke-width="1.5"/><path d="M55.66,2.33 L55.66,6 L53,6 Z" fill="none" stroke="currentColor" stroke-width="1.5"/></svg>