<svg xmlns="http://www.w3.org/2000/svg" viewBox="0 0 49.0 43.0" width="24" height="24"><path d="M49,9.33 C49,14.66 38,19 24.33,19 C10.67,19 0,14.66 0,9.33 C0,33.33 0,33.33 0,33.33 C0,38.66 10.67,43 24.33,43 C38,43 49,38.66 49,33.33 Z M24.33,19 C38,19 49,14.66 49,9.33 C49,4.33 38,0 24.33,0 C10.67,0 0,4.33 0,9.33 C0,14.66 10.67,19 24.33,19 Z" fill="none" stroke="currentColor" stroke-width="1.5"/><rect x="0" y="0" width="0" height="0" fill="none" stroke="currentColor"/><path d="M18.67,5.66 L20.67,8.66 L13,10.66 L14.67,9 L3,7 L6,5 L17.33,6.66 Z M29.67,13 L28.33,10 L35,8.66 L34,9.66 L45.33,11.66 L42.67,13.66 L31.33,11.66 Z M25.67,4 L33.67,2 L33.67,5.33 L31.67,5 L28,8 L24.33,7.33 L28.33,4.33 Z M22.33,16 L15,17.33 L14.67,14 L17,14.33 L21,11 L24.67,11.66 L20.33,15.33 Z" fill="none" stroke="currentColor" stroke-width="1.5"/><path d="M36.67,36 L36.67,29.66 L33,32.66 Z M10.67,36 L10.67,29.66 L14.33,32.66 Z M13,23.66 L13,30 L9.33,27 Z M34,23.66 L34,30 L37.67,27 Z" fill="none" stroke="currentColor" stroke-width="1.5"/><path d="M34.67,26.66 L32.67,26.66 M35.67,32.66 L38.33,32.66 M11.67,32.66 L8.67,32.66 M11.67,27 L14.67,27" fill="none" stroke="currentColor" stroke-width="1.5"/><path d="M30,27 L30,38 L17.33,38 L17.33,27 Z" fill="none" stroke="currentColor" stroke-width="1.5"/><path d="M28.67,30.33 L18.67,30.33 L18.67,28.33 L28.67,28.33 Z M28.67,37 L18.67,37 L18.67,32 L28.67,32 Z" fill="none" stroke="currentColor" stroke-width="1.5"/><path d="M26.33,23 C26.33,23 27,23 27,23.66 C27.33,25.66 27.33,25.66 27.33,25.66 C31.33,26.33 31.33,26.33 31.33,26.33 C32,25.33 32,25.33 32,25.33 C31,23 31,23 31,23 C25.33,21.66 23.33,22 23.33,22 C23.67,22 23.67,22 23.67,22 C23.67,22 21.67,21.66 16.33,23 C15.33,25.33 15.33,25.33 15.33,25.33 C15.67,26.33 15.67,26.33 15.67,26.33 C20,25.66 20,25.66 20,25.66 C20,23.66 20,23.66 20,23.66 C20.33,23 21,23 21,23 Z" fill="none" stroke="currentColor" stroke-width="1.5"/><path d="M28.67,31 L18.67,31" fill="none" stroke="currentColor" stroke-width="1.5"/></svg>