<svg xmlns="http://www.w3.org/2000/svg" viewBox="0 0 40.0 45.67" width="24" height="24"><path d="M33.34,45.67 L40,39.33 L40,0 L33.34,6.33 Z M40,0 L33.34,6.33 L0,6.33 L8.67,0 Z M33.34,45.67 L33.34,6.33 L0,6.33 L0,45.67 Z" fill="none" stroke="currentColor" stroke-width="1.5"/><path d="M17.34,12 L18.67,12 L16.67,9.33 L15,12 L16.34,12 L16.34,40.67 L15,40.67 L16.67,43.33 L18.67,40.67 L17.34,40.67 Z M8,12 L9.34,12 L7.67,9.33 L5.67,12 L7,12 L7,40.67 L5.67,40.67 L7.67,43.33 L9.34,40.67 L8,40.67 Z M26.34,12 L27.34,12 L25.67,9.33 L24,12 L25,12 L25,40.67 L24,40.67 L25.67,43.33 L27.34,40.67 L26.34,40.67 Z" fill="none" stroke="currentColor" stroke-width="1.5"/></svg>