<svg xmlns="http://www.w3.org/2000/svg" viewBox="0 0 30.34 12.33" width="24" height="24"><path d="M6.67,6 C8.34,6 9.67,4.66 9.67,3 C9.67,1.33 8.34,0 6.67,0 C5,0 3.67,1.33 3.67,3 C3.67,4.66 5,6 6.67,6 Z" fill="none" stroke="currentColor" stroke-width="1.5"/><path d="M6.67,12 C8.34,12 9.67,10.66 9.67,9 C9.67,7.33 8.34,6 6.67,6 C5,6 3.67,7.33 3.67,9 C3.67,10.66 5,12 6.67,12 Z" fill="none" stroke="currentColor" stroke-width="1.5"/><path d="M2.34,8.33 C3.67,8.33 4.67,7.33 4.67,6 C4.67,4.66 3.67,3.66 2.34,3.66 C1,3.66 0,4.66 0,6 C0,7.33 1,8.33 2.34,8.33 Z" fill="none" stroke="currentColor" stroke-width="1.5"/><path d="M9.67,1.33 C9.67,2.33 10,3.33 10.34,4.33 C10.67,5.33 11.67,6 12.34,6.33" fill="none" stroke="currentColor" stroke-width="1.5"/><path d="M9.67,11 C9.67,10 10,9 10.34,8 C10.67,7 11.67,6.33 12.34,6" fill="none" stroke="currentColor" stroke-width="1.5"/><path d="M30.34,8 C30.34,4.66 30.34,4.66 30.34,4.66 C16.67,4.66 16.67,4.66 16.67,4.66 C16.34,4 16,3.66 15.67,3.66 C15.34,3.66 15,4 15,4.66 C14.67,4.66 14.67,4.66 14.67,4.66 C14.34,4 14,3.66 13.67,3.66 C13.34,3.66 13,4 13,4.66 C10.67,4.66 10.67,4.66 10.67,4.66 C10.67,7.33 10.67,7.33 10.67,7.33 C13,7.33 13,7.33 13,7.33 C13,8 13.34,8.66 13.67,8.66 C14,8.66 14.34,8 14.67,7.33 C15,7.33 15,7.33 15,7.33 C15,8 15.34,8.66 15.67,8.66 C16,8.66 16.34,8 16.67,7.33 C26.67,7.33 26.67,7.33 26.67,7.33 C26.67,12.33 26.67,12.33 26.67,12.33 C30,12.33 30,12.33 30,12.33 C30,11 30,11 30,11 C28.67,11 28.67,11 28.67,11 C28.67,10.33 28.67,10.33 28.67,10.33 C30,10.33 30,10.33 30,10.33 C30,9 30,9 30,9 C28.67,9 28.67,9 28.67,9 C28.67,8 28.67,8 28.67,8 Z" fill="none" stroke="currentColor" stroke-width="1.5"/></svg>