<svg xmlns="http://www.w3.org/2000/svg" viewBox="0 0 49.67 32.34" width="24" height="24"><path d="M0,32.34 L44.33,32.34 L44.33,6.34 L0,6.34 Z M49.67,24.67 L44.33,32.34 L44.33,6.34 L49.67,0 Z M8,0 L49.67,0 L44.33,6.34 L0,6.34 Z" fill="none" stroke="currentColor" stroke-width="1.5"/><rect x="0" y="0" width="0" height="0" fill="none" stroke="currentColor"/><path d="M15.33,20 L5.67,20 L5.67,18.34 L15.33,18.34 L15.33,16 L21,19 L15.33,22.34 Z M35,20 L25.67,20 L25.67,18.34 L35,18.34 L35,16 L40.67,19 L35,22.34 Z M33.67,12.34 L25.67,17.34 L24.67,16.34 L32.67,11 L31.33,9 L37.67,8.67 L34.67,14.34 Z M33.67,26 L25.67,20.67 L24.67,22 L32.67,27.34 L31.33,29.34 L37.67,29.67 L34.67,24 Z" fill="none" stroke="currentColor" stroke-width="1.5"/></svg>