<svg xmlns="http://www.w3.org/2000/svg" viewBox="0 0 42.67 67.33" width="24" height="24"><path d="M38,23.66 C40,22.66 38,19 32,22" fill="none" stroke="currentColor" stroke-width="1.5"/><path d="M33.33,23 L33.33,9.66 L15.33,9.66 L15.33,23 Z" fill="none" stroke="currentColor" stroke-width="1.5"/><path d="M33.33,23 L33.33,9.66 L15.33,9.66 L15.33,23" fill="none" stroke="currentColor" stroke-width="1.5"/><path d="M33.33,9.66 L33.33,23 L35.33,19.33 L35.33,7.66 Z M35.33,7.66 L22.33,7.66 L15.33,9.66 L33.33,9.66 Z M31.67,21.66 L31.67,11 L17,11 L17,21.66 Z" fill="none" stroke="currentColor" stroke-width="1.5"/><path d="M7.67,31.66 C7.67,31.66 7.67,31.66 7.67,31.66 C7.67,52.33 7.67,52.33 7.67,52.33 C7.67,52.33 6,52.33 6,52.33 C6,54 6,54.66 6,56.33 C6,56.33 4,56.33 4,56.33 C4,50.33 4,37.66 4,31" fill="none" stroke="currentColor" stroke-width="1.5"/><path d="M41.33,30.33 C41.33,27.66 42.33,27.33 42.67,27 C42.67,26.66 42.67,26 42.67,25.66 C41.67,25.66 41.33,25.66 40,25.66 C11.33,25.33 11.33,25.33 11.33,25.33 C11.33,25.66 6.67,26.66 6.67,26.66 C5.33,26.66 4.67,27.33 3.33,27.33 C3.33,27.66 3.33,27.66 3.33,28 C3.67,28.33 4,28.33 4.33,28.66 C4.67,29.66 4.67,30 4.67,30.66 C4.67,31.33 4.67,31.66 4.67,32.33" fill="none" stroke="currentColor" stroke-width="1.5"/><path d="M41.33,31.33 C41,31.33 41,31.33 41,31.33 C41,51.66 41,51.66 41,51.66 C41,51.66 39.33,51.66 39.33,51.66 C39.33,53.66 39.33,54 39.67,55.66 C39.33,55.66 37.67,55.66 37.67,55.66 C37.67,49.66 37.67,37.33 37.33,30.33" fill="none" stroke="currentColor" stroke-width="1.5"/><path d="M40.67,33 L40.67,29 L4.33,28.66 L4.33,32.33 Z M42.33,31.33 L42.33,27.33 L40.67,29 L40.67,33 Z M42.33,25.66 L40.33,27.66 L3.33,27.33 L11.33,25.33 Z M37.67,26.66 L37.67,26 L38.67,23.66 L38.67,25.33 Z M37.67,26 L38.67,23.66 L36.33,23.66 L35,26 Z M35,26 L37.67,26 L37.67,26.66 L35,26.66 Z M32,27 L32,26 L33.67,23.66 L33.67,25 Z M32,26 L15.33,26 L17.33,23.66 L33.67,23.66 Z M32,26 L32,27 L15.33,27 L15.33,26 Z" fill="none" stroke="currentColor" stroke-width="1.5"/><path d="M27.33,55.66 C27,57.33 26.67,57.66 28.67,58 C28.67,58.33 28.67,58.33 28.67,58.33 C28.67,58.33 29,57.66 29,58.66 C29,58.66 29.33,60 23.67,58.66 C23.67,58.66 23.33,57.33 22.67,58 C22.67,58.33 22.67,58.33 22.67,58.33 C23,57.33 23.67,57.33 23.33,56 C23.33,56 23.33,56 23.33,56 Z" fill="none" stroke="currentColor" stroke-width="1.5"/><path d="M30.67,26.66 C31,26.33 30.67,26.66 31,26 C31.67,25.33 32,25 32.67,24.33 C33,24 33,23.33 33.33,23 C33.67,22.66 34.33,22.66 35,23 C35.33,23 35.33,23 35.67,23.33 C36,23.33 36.33,23.66 36,24 C36.33,24 36.33,24 36.33,24.33 C36.33,24.33 36.33,24.33 36.33,24.33 C36.67,25 37.33,25.33 37,25.66 C36.67,25.66 36.33,25.33 36,25.66 C35.67,25.66 35.67,25.66 35.33,26 C35.33,26.33 35,26.33 34.67,26.33 C34.33,26.33 34,26.66 33.67,26.66 C33.67,26.66 33.33,27 33,27 C32.33,27.33 32.67,27.33 32,27.66 C31.67,27.66 31,27 30.67,26.66 Z" fill="none" stroke="currentColor" stroke-width="1.5"/><path d="M28.67,58.33 C29.67,58.33 31,58 30.67,58.66 C30.67,60 30.67,60 30,60.66 C29.67,61 29.67,60.66 29.33,61 C27.67,61.33 25,59.66 24.67,61 C24.67,61 24,62 24,62.33 C23.67,62.33 23.33,62.33 23.33,62.33 C22.33,60.33 22,59.33 22.33,58.33 C23,57.66 23.67,58.66 23.67,58.66 C30,60 29,58.66 29,58.66 C29,57.66 28.67,58.33 28.67,58.33 Z" fill="none" stroke="currentColor" stroke-width="1.5"/><path d="M7.67,32.66 C6.67,36.66 6.67,40.33 7.67,44 C8,44.33 8.33,44.33 8.67,44.66 C11,44.33 11,44.33 13.67,44.66 C16.67,44.66 16.67,44.66 16.67,44.66 C17,45 17.33,44.66 17.33,45 C18.67,46.66 25.67,44 26,46 C26,45.33 23,46.66 23,48 C23.33,50.33 23,55 22.67,57 C23.33,57.33 22,57.33 23.33,58 C25,58.33 27.33,57.33 27.33,57.33 C28,57 28,57.66 28.67,57.33 C29,51.33 28.67,47.33 29.33,41.33 C29.33,40.33 29,40.33 29,39.66 C29,39 28.33,39 28,38.33 C27,38 25.33,38 24.33,38 C21,37.33 21,37.33 21,37.33 C21.33,36.33 21.33,32 21.33,31.33 C22,31 22,28 22.33,27.66 C22.67,25.33 22.67,25.33 22.67,25.33 C22.67,25.66 22.33,26.33 23.33,27 C24,27 23.67,27.33 24.33,27.33 C24.33,27.33 24.33,27.33 24.33,27.66 C24.67,27.66 24.67,27.66 25,27.66 C25.33,28.33 26.33,28 26.67,28.66 C27.67,28.66 28.33,29.33 29,29 C29.33,29 29.67,28.66 30,29 C31,28.33 31.67,28.66 32.33,28 C32.33,27.66 33,27.66 33.33,27.66 C33.67,27 33.67,27.66 33.67,27 C34,27 34.33,27 34.67,27 C34.67,27 35.33,25.66 35.33,25.33 C35.33,25.33 34.67,23.33 32.67,23.66 C30.67,23.33 30.67,23.33 30.67,23.33 C29.33,23.33 28,23.33 27,22 C26.67,21.33 26.67,21.33 26.67,21.33 C26.67,20.33 26.67,20.33 26.67,20.33 C27,19.66 26.33,17.66 26,17 C25,16 25.67,16.66 24.33,15.66 C8.33,14.33 8.33,14.33 8.33,14.33 C8.33,14.33 8,14.33 8,14.33 C6.67,14.33 5.67,14 4.33,14.66 C4.33,15.33 3.67,16.66 3.67,17.33 C4,18.33 2,18.33 2.67,19.33 C3,19.66 2.67,20 3,20.33 C2.67,22 3,20.66 2.67,22 C2.33,22 2.33,22 2.33,22 C0.67,26.66 0,31.33 0,31.33 C0,31.66 0.33,31.66 0.33,31.66 C1.33,33 7,34.66 7,34.66 C7,34.66 7,34.66 7,34.66" fill="none" stroke="currentColor" stroke-width="1.5"/><path d="M14,56.66 C13.33,57.33 13,57.66 12.67,58.33 C13.67,57.33 14.33,58.33 14.33,58.33 C16.33,59.33 17.33,59.66 17.33,59.66 C20,59.33 19,58 19,58 C17.67,57.33 17.33,57 17.33,56.66" fill="none" stroke="currentColor" stroke-width="1.5"/><path d="M13,49.33 C12,55.33 12,55.33 12,55.33 C11.67,57 11.67,57 11.67,57 C16.33,57.66 16.33,57.66 16.33,57.66 C16.67,57.66 16.67,57.66 16.67,57.66 C16.67,57.33 17.67,58 18.33,58 C19,57.33 18.33,57.66 19,57.33 C19,57.33 18.67,55 18.67,49.33" fill="none" stroke="currentColor" stroke-width="1.5"/><path d="M13.67,45.66 C14,45.66 14.33,45.33 14.33,45 C13,37.66 13,37.66 13,37.66 C13,37.33 12.67,37 12.33,37.33 C10.67,37.66 10.67,37.66 10.67,37.66 C10.33,37.66 10,38 10,38.33 C11.33,45.33 11.33,45.33 11.33,45.33 C11.33,45.66 11.67,46 12,46 Z" fill="none" stroke="currentColor" stroke-width="1.5"/><path d="M27,45.66 C27.33,45.33 27.33,45 27.33,44.66 C27.33,41 27.33,41 27.33,41 C27.33,40.66 27,40.33 26.67,40.33 C22.33,44.33 22.33,44.33 22.33,44.33 C22,44.33 21.67,44.66 21.67,45 C21.67,49.33 21.67,49.33 21.67,49.33 C21.67,49.66 22,50 22.33,50 Z" fill="none" stroke="currentColor" stroke-width="1.5"/><path d="M5.33,29.33 C5.33,28.33 6.33,26 6.33,25.33 C6.33,26.33 6,30 6.33,30.33 Z" fill="none" stroke="currentColor" stroke-width="1.5"/><path d="M4.67,37.33 C4.67,37.33 4.67,37.33 4.67,37.33 C5,34.66 3.33,30.66 6.33,29 C18.67,29 9,29.33 21.33,29.33 C22,30 22,30 22,30 C23.67,29.66 23.33,37.66 23.33,37.66 C22.33,38.33 22.33,38.33 22.33,38.33" fill="none" stroke="currentColor" stroke-width="1.5"/><path d="M3.33,38 C3.67,35.66 2,30.66 5,29 C17.33,29 8.67,29 21,29 C21,29 21,29 21,29 C22.67,29 22,38.33 22,38.33 Z" fill="none" stroke="currentColor" stroke-width="1.5"/><path d="M21.67,7.66 C21.67,7.66 21.67,7.66 22,8 C22,8.33 22.33,9 22.33,9.33 C22,9.66 21.67,10 21.67,10.33 C21.33,10.66 20.67,10.33 20.33,10.66 C19.67,11 19.67,11.66 19,11.66 C18.33,12 18,12 17.33,12 C17,12.33 16.67,12.66 16.33,13 C16,13.33 15.33,13.33 14.67,13.33 C14.33,13 14,13 13.67,12.66 C13,12 12.33,11.33 11.67,11 C11.33,11 10.67,11 10,10.66 C9.67,10.66 9.67,10.33 9,10 C9,9.66 8.67,9 8.67,8.33 C8.67,8.33 8.33,8.33 8.33,8 C10.33,7.33 9.33,6 9.67,4.66 C10.67,4 9.67,3.66 10,2.66 C11,0 14.33,0.33 16.67,0 C17.33,0 18,0 18.33,0.66 C18.33,1 19,1 19,1 C19.33,1.66 19.33,1.33 20,2 C20.33,2.66 20.33,3 20.33,3.33 C21,4 21.67,4.33 22,5.66 C22,6 21.67,6.66 21.33,6.66 C21.67,7.33 22,6.66 21.67,7.66" fill="none" stroke="currentColor" stroke-width="1.5"/><path d="M22.33,14 C22.33,14 22.33,14.33 22.33,14.33 C21.67,14.33 21.67,15.66 21.33,15.66 C21,15.66 20.67,15.33 20.33,15.33 C20.33,15.33 20,15.33 19.67,15.66 C19.33,16 19,16 18.67,16 C17,15.66 15.67,16.66 14,17 C13.67,17 13,17 12.67,16.66 C12,16.33 12,15.33 11.33,15 C10.33,14.66 9.33,14.66 8.33,14.66 C8,14.66 8,14.33 7.67,14.33 C7.67,14 7.67,14 7.67,13.66 C7.67,13.66 7.33,13.33 7.67,13.33 C7.67,13.33 7.67,13 7.33,12.66 C7,12 7.67,9 8.33,8.33 C8,8.33 8.67,8 8.67,8.33 C8.67,8.66 8.67,9.33 9,10 C9.33,10 9.67,10.33 10,10.66 C10.67,10.66 11,10.66 11.67,10.66 C12.33,11.33 13,12 13.67,12.66 C14,12.66 14.33,13 14.67,13 C15,13 15.67,13.33 16.33,12.66 C16.67,12.33 17,12.33 17.33,12 C17.67,11.66 18.33,11.66 19,11.66 C19.33,11.33 19.67,10.66 20,10.33 C20.67,10.33 21,10.33 21.67,10 C21.67,9.66 22,9.33 22,9.33 C22,8.66 21.67,8.33 21.67,7.66 C21.67,7.66 21.67,7.33 21.33,7.33 C21.67,7.33 21.67,7.33 21.67,7.33 C24,9.33 21.33,11.33 22.67,13.33 Z" fill="none" stroke="currentColor" stroke-width="1.5"/><path d="M19,60.66 C18.67,60.66 18,61 17.33,61 C16,60.66 17.67,60.66 15.33,60.33 C14.67,61 14.67,62 14.67,62.66 C14.33,63 14.33,62.66 14,62.66 C13,60.66 12.33,59.66 12.67,58.33 C13.67,57.33 14.33,58.33 14.33,58.33 C16.33,59.33 17.33,59.66 17.33,59.66 C20,59 19,58 19,58 C20.33,58 20.33,58 20.33,58 C21,58.33 19,60.66 19,60.66 Z" fill="none" stroke="currentColor" stroke-width="1.5"/><path d="M13,49.66 C13,55 13,50.66 13,56 C13,56 13,56.33 12.67,56.33 C11.33,56.66 10,56.33 10,57.33 C9.67,58 10.33,58.33 11,58.33 C9.67,59.33 8.33,60.66 7,61.66 C6,62.66 6.67,63.66 6.67,65 C7,65.33 7.33,65 7.67,65 C7.67,64 8,63.33 8,62.66 C9.67,61 11,59.66 12.67,58.33 C13,58.33 13,58.33 13,58.33 C12.67,60.66 11.67,64.33 12,66.33 C12,66.66 12,67 12.33,67 C12.67,67 13.33,67.33 13.33,67 C13.67,65.66 13,64.33 14,62.66 C13.67,62.66 13.67,62.66 14,62.66 C14,63.33 14,64 14,64.66 C14.33,64.66 15,65 15.33,64.33 C15.33,63 15,61.33 15,59.33 C15,59 14.67,59 15,58.66 C16.67,59.66 18,61.33 19.67,62.66 C20.33,63 20,65.33 20,65.33 C21,65.33 21,65.33 21,65.33 C21.33,65.33 21.33,65.33 21.33,65.33 C21.33,65.33 21.67,63 20.67,61.66 C16.67,58.33 16.67,58.33 16.67,58.33 C16.67,58 17.33,58 17.67,58 C18.33,58 18.33,57.33 18,56.66 C17.33,56.66 17,56.66 16.33,56.66 C15.67,56.66 15.67,56.33 15.67,55.33 C15.67,50.33 15.67,55 15.67,49.66" fill="none" stroke="currentColor" stroke-width="1.5"/><path d="M17.67,56.66 C18,56.66 18,57 18,57.33 C18,57.66 18,57.66 18,57.66 C18,58 18,58 17.67,58 C17.33,58 17.33,58 17.33,58 C17.33,58 14,59 10.67,58 C10.33,58 10,58 10,57.66 C10,57.33 10,57.33 10,57.33 C10,57 10.33,56.66 10.67,56.66 C13.67,57.66 17.67,56.66 17.67,56.66 Z" fill="none" stroke="currentColor" stroke-width="1.5"/><path d="M22,50 C22.33,50 22.67,49.66 22.33,49.33 C22.33,45 22.33,45 22.33,45 C22.67,44.66 22.33,44.33 22,44.33 C8.33,44.33 8.33,44.33 8.33,44.33 C7.67,44 7.67,44 7.67,44 C7.33,44 3.67,44.33 3.67,44.66 C3.67,49.33 3.67,49.33 3.67,49.33 C3.67,49.66 4,50 4.33,50 Z" fill="none" stroke="currentColor" stroke-width="1.5"/><path d="M4.67,49.66 C4.67,49.66 4.33,49.66 4.33,49.33 C4.33,45.33 4.33,45.33 4.33,45.33 C4.33,45 4.67,44.66 4.67,44.66 C21,44.66 21,44.66 21,44.66 C21.33,44.66 21.33,45 21.33,45.33 C21.33,49.33 21.33,49.33 21.33,49.33 C21.33,49.66 21.33,49.66 21,49.66 Z" fill="none" stroke="currentColor" stroke-width="1.5"/><path d="M26.67,45.33 C27,45 27,44.33 27,45 C27,41.33 27,41.33 27,41.33 C27,41 26.67,41 26.33,41 C22.67,44.66 22.67,44.66 22.67,44.66 C22.33,44.66 22.33,45 22.33,45.33 C22.33,48.66 22.33,48.66 22.33,48.66 C22.33,49 22.33,49.33 22.67,49.33 Z" fill="none" stroke="currentColor" stroke-width="1.5"/><path d="M4.33,37.66 C4.67,35.33 3,31 5.67,29.33 C17,29.33 9,29.33 20,29.33 C20.33,29.66 20.33,29.66 20.33,29.66 C21.67,29.33 21.33,37.66 21.33,37.66 Z" fill="none" stroke="currentColor" stroke-width="1.5"/><path d="M8,43.66 L9.33,44.33 L4.33,44.33 L7,42.66 L8,43.66 Z" fill="none" stroke="currentColor" stroke-width="1.5"/></svg>