<svg xmlns="http://www.w3.org/2000/svg" viewBox="0 0 35.0 40.67" width="24" height="24"><path d="M5.33,9.67 L4.67,9.67 L0,9.67 L0,14 L4.67,14" fill="none" stroke="currentColor" stroke-width="1.5"/><path d="M28.67,14 C29.33,14 29.33,14 29.33,14 C34.33,14 35,18.34 35,18.34 C35,14 35,14 35,14 C35,14 34.33,9.67 29.33,9.67 C28.33,9.67 28.33,9.67 28.33,9.67" fill="none" stroke="currentColor" stroke-width="1.5"/><path d="M26,40.67 L26,3.34 L4.67,3.34 L4.67,40.67 Z M4.67,3.34 L8.67,0 L29.67,0 L26,3.34 Z M26,40.67 L29.67,36.67 L29.67,0 L26,3.34 Z" fill="none" stroke="currentColor" stroke-width="1.5"/><path d="M35,13.67 C35,19 35,19 35,19 C34.33,25.34 23.33,25 23.33,25 C23.33,25.34 23.33,25.34 23.33,25.34 C23.33,29.67 23.33,29.67 23.33,29.67 C16,22.34 16,22.34 16,22.34 C23.33,15 23.33,15 23.33,15 C23.33,19.67 23.33,19.67 23.33,19.67 C23.33,19.67 34.67,20 35,13.67" fill="none" stroke="currentColor" stroke-width="1.5"/><path d="M35,13.67 C35,19 35,19 35,19 C34.33,25.34 23.33,25 23.33,25 C23.33,25.34 23.33,25.34 23.33,25.34 C23.33,29.67 23.33,29.67 23.33,29.67 C16,22.34 16,22.34 16,22.34 C23.33,15 23.33,15 23.33,15 C23.33,19.67 23.33,19.67 23.33,19.67 C23.33,19.67 34.67,20 35,13.67" fill="none" stroke="currentColor" stroke-width="1.5"/><path d="M8.33,10.67 L7,11.67 L7,6 L12.67,6 L11.67,7.34 L11.33,7.67 L19.67,16 L17,18.67 L8.67,10.34 Z M8.33,34.34 L7,33 L7,38.67 L12.67,38.67 L11.67,37.34 L11.33,37 L19.67,28.67 L17,26 L8.67,34.34 Z" fill="none" stroke="currentColor" stroke-width="1.5"/></svg>