<svg xmlns="http://www.w3.org/2000/svg" viewBox="0 0 57.0 30.33" width="24" height="24"><path d="M0,11 L13.33,0 L57,0 L45.66,11 Z M45.66,30 L57,18.67 L57,0 L45.66,11 Z M45.66,30.33 L45.66,11 L0,11 L0,30.33 Z" fill="none" stroke="currentColor" stroke-width="1.5"/><path d="M32.33,18 C32.33,19.67 28.66,21.33 23.66,21.33 C19,21.33 15.33,19.67 15.33,18 C15.33,23 15.33,23 15.33,23 C15.33,24.67 19,26.33 23.66,26.33 C28.66,26.33 32.33,24.67 32.33,23 Z M23.66,21.33 C28.66,21.33 32.33,19.67 32.33,18 C32.33,16 28.66,14.67 23.66,14.67 C19,14.67 15.33,16 15.33,18 C15.33,19.67 19,21.33 23.66,21.33 Z" fill="none" stroke="currentColor" stroke-width="1.5"/><path d="M10.66,14.67 L0,14.67 M10.66,20.33 L0,20.33 M42,20.33 L37,20.33 M10.66,26 L0,26" fill="none" stroke="currentColor" stroke-width="1.5"/><path d="M14.33,14.67 L8,17.33 L9.33,14.67 L8,12.33 Z M14.33,20.33 L8,23 L9.33,20.33 L8,17.67 Z M45,20.33 L40,22.33 L41,20.33 L40,18.33 Z M14.33,26 L8,28.67 L9.33,26 L8,23.33 Z M38,18.33 L37,20.33 L38,22.33 L33,20.33 Z" fill="none" stroke="currentColor" stroke-width="1.5"/></svg>