<svg xmlns="http://www.w3.org/2000/svg" viewBox="0 0 25.33 40.67" width="24" height="24"><path d="M22,40.67 L22,3.33 L0,3.33 L0,40.67 Z M0,3.33 L4.33,0 L25.33,0 L22,3.33 Z M22,40.67 L25.33,36.67 L25.33,0 L22,3.33 Z M0,38 L22,38 M0,18 L22,18" fill="none" stroke="currentColor" stroke-width="1.5"/><rect x="0" y="0" width="0" height="0" fill="none" stroke="currentColor"/><path d="M9.66,30 L9.66,33 L8.33,33 L10.66,36 L13.33,33 L12,33 L12,30 Z M9.66,27.67 L9.66,24.33 L8.33,24.33 L10.66,21.33 L13.33,24.33 L12,24.33 L12,27.67 Z M3.33,27.67 L6.33,27.67 L6.33,26.33 L9.33,29 L6.33,31.33 L6.33,30 L3.33,30 Z M18.33,27.67 L15,27.67 L15,26.33 L12,29 L15,31.33 L15,30 L18.33,30 Z" fill="none" stroke="currentColor" stroke-width="1.5"/><path d="M12,10 L12,6 L2,6 L2,10 Z M3,8 L11.33,8" fill="none" stroke="currentColor" stroke-width="1.5"/></svg>