<svg xmlns="http://www.w3.org/2000/svg" viewBox="0 0 63.67 35.33" width="24" height="24"><path d="M0,15.66 L19.33,0 L63.67,0 L48,15.66 Z M48,35.33 L63.67,19.33 L63.67,0 L48,15.66 Z M48,35.33 L48,15.66 L0,15.66 L0,35.33 Z" fill="none" stroke="currentColor" stroke-width="1.5"/><path d="M46,25.99 C46,25.99 42.67,34.33 39,25.99 C35,18 32,25.99 32,25.99 C32,25.99 28.67,34.33 25,25.99 C21,17.66 18,25.99 18,25.99 C18,25.99 14.67,34.33 11,25.99 C7.33,18 4,25.99 4,25.99" fill="none" stroke="currentColor" stroke-width="1.5"/><path d="M4,25.99 C4,25.99 7.33,34.33 11,25.99 C14.67,18 18,25.99 18,25.99 C18,25.99 21,34.33 25,25.99 C28.67,17.66 32,25.99 32,25.99 C32,25.99 35,34.33 39,25.99 C42.67,18 46,25.99 46,25.99" fill="none" stroke="currentColor" stroke-width="1.5"/><path d="M45,25.99 C45,25.99 42,34.33 38.33,25.99 C34.33,18 31.33,25.99 31.33,25.99 C31.33,25.99 28,34.33 24.33,25.99 C20.33,17.66 17.33,25.99 17.33,25.99 C17.33,25.99 14,34.33 10.33,25.99 C6.33,18 3.33,25.99 3.33,25.99" fill="none" stroke="currentColor" stroke-width="1.5"/><path d="M3.33,25.99 C3.33,25.99 6.33,34.33 10.33,25.99 C14,18 17.33,25.99 17.33,25.99 C17.33,25.99 20.33,34.33 24.33,25.99 C28,17.66 31.33,25.99 31.33,25.99 C31.33,25.99 34.33,34.33 38.33,25.99 C42,18 45,25.99 45,25.99" fill="none" stroke="currentColor" stroke-width="1.5"/><path d="M62.67,11 C62.67,11 61.33,20.33 60.67,13.33 C59.67,6 58.33,15.66 58.33,15.66 C58.33,15.66 57,24.99 56,18 C55.33,10.66 54,20.33 54,20.33 C54,20.33 52.67,29.66 51.67,22.66 C51,15.33 49.67,24.99 49.67,24.99" fill="none" stroke="currentColor" stroke-width="1.5"/><path d="M49.67,24.99 C49.67,24.99 50,32.33 51.67,22.66 C53.33,12.66 54,20.33 54,20.33 C54,20.33 54.67,27.66 56,17.66 C57.67,8 58.33,15.66 58.33,15.66 C58.33,15.66 59,23 60.67,13.33 C62,3.33 62.67,11 62.67,11" fill="none" stroke="currentColor" stroke-width="1.5"/><path d="M62.67,11 C62.67,11 61,20.66 60.33,13.33 C59.33,6.33 58,15.66 58,15.66 C58,15.66 56.67,25.33 56,18 C55,11 53.67,20.33 53.67,20.33 C53.67,20.33 52.33,29.99 51.33,22.66 C50.67,15.66 49.33,24.99 49.33,24.99" fill="none" stroke="currentColor" stroke-width="1.5"/><path d="M49.33,24.99 C49.33,24.99 50,32.33 51.33,22.66 C53,13 53.67,20.33 53.67,20.33 C53.67,20.33 54.33,27.66 56,18 C57.33,8.33 58,15.66 58,15.66 C58,15.66 58.67,23.33 60.33,13.33 C62,3.66 62.67,11 62.67,11" fill="none" stroke="currentColor" stroke-width="1.5"/><path d="M34.67,3.33 L33,3 L39,1.66 L41.33,3.66 L39.67,3.33 L39.33,3.33 L36,5.66 L31.67,5.66 L35,3.33 Z M30.33,12 L32,12.33 L26,13.66 L23.67,11.66 L25.33,12 L26,12 L29,9.66 L33.33,9.66 L30,12 Z M21.33,7.66 L14.33,7.66 L16.67,6 L23.67,6 L24.33,5 L27.67,7.33 L19.67,9.66 Z M43.33,7 L50.33,7 L48.33,8.66 L41.33,8.66 L40.33,9.66 L37,7.33 L45.33,5.33 Z" fill="none" stroke="currentColor" stroke-width="1.5"/></svg>