<svg xmlns="http://www.w3.org/2000/svg" viewBox="0 0 49.0 49.33" width="24" height="24"><path d="M49,9.67 C49,15 38,19 24.67,19 C11,19 0,15 0,9.67 C0,40 0,40 0,40 C0,45 11,49.33 24.67,49.33 C38,49.33 49,45 49,40 Z M24.67,19 C38,19 49,15 49,9.67 C49,4.33 38,0 24.67,0 C11,0 0,4.33 0,9.67 C0,15 11,19 24.67,19 Z" fill="none" stroke="currentColor" stroke-width="1.5"/><rect x="0" y="0" width="0" height="0" fill="none" stroke="currentColor"/><path d="M26,4.33 L33.67,2 L33.67,5.33 L31.67,5 L28,8.33 L24.34,7.67 L28.34,4.67 Z M29.67,13.33 L28.34,10 L35.34,8.67 L34,9.67 L45.67,11.67 L42.67,14 L31.34,12 Z M22.67,16 L15.34,17.33 L15,14 L17,14.67 L21,11 L24.67,11.67 L20.34,15.33 Z M19,6 L21,9 L13.34,10.67 L15,9.33 L3,7.33 L6,5 L17.67,7 Z" fill="none" stroke="currentColor" stroke-width="1.5"/><path d="M14,42 L21,42 L29.67,24 L35.34,24" fill="none" stroke="currentColor" stroke-width="1.5"/><path d="M33.34,20.67 L33.34,27 L37.34,24 Z M15,45.33 L15,38.67 L11.34,42 Z" fill="none" stroke="currentColor" stroke-width="1.5"/><path d="M15,45.67 L15,39.33 L11.34,42.33 Z M33.67,21 L33.67,27.33 L37.34,24.33 Z" fill="none" stroke="currentColor" stroke-width="1.5"/><path d="M15,27.33 L15,20.67 L11.34,24 Z" fill="none" stroke="currentColor" stroke-width="1.5"/><path d="M15,27.67 L15,21.33 L11.34,24.33 Z" fill="none" stroke="currentColor" stroke-width="1.5"/><path d="M35.34,42 L29.34,42 L20.34,24 L14.67,24" fill="none" stroke="currentColor" stroke-width="1.5"/><path d="M36,42.33 L29.67,42.33 L20.67,24.33 L13.67,24.33 M13.67,42.33 L20,42.33 L29,24.33 L36,24.33" fill="none" stroke="currentColor" stroke-width="1.5"/><path d="M33.34,38.67 L33.34,45 L37.34,42 Z" fill="none" stroke="currentColor" stroke-width="1.5"/><path d="M33.67,39 L33.67,45.67 L37.34,42.33 Z" fill="none" stroke="currentColor" stroke-width="1.5"/></svg>