<svg xmlns="http://www.w3.org/2000/svg" viewBox="0 0 50.0 60.0" width="24" height="24"><path d="M13.67,8.67 C24.67,28.33 24.67,28.33 24.67,28.33 C26,31 25,34.67 22.34,36 C22.34,36 22.34,36 22.34,36 C19.67,37.67 16.34,36.67 14.67,34 C4,14.67 4,14.67 4,14.67" fill="none" stroke="currentColor" stroke-width="1.5"/><path d="M17,60 C8.67,60 2,58 2,55.33 C2,52.67 8.67,50.67 17,50.67 C25.34,50.67 32,52.67 32,55.33 C32,58 25.34,60 17,60 Z" fill="none" stroke="currentColor" stroke-width="1.5"/><path d="M17,54 C13,54 9.67,53 9.67,51.67 C9.67,50.33 13,49.33 17,49.33 C21.34,49.33 24.67,50.33 24.67,51.67 C24.67,53 21.34,54 17,54 Z" fill="none" stroke="currentColor" stroke-width="1.5"/><path d="M13.67,9 C15.34,11.67 13.67,14 11,15.33 C11,15.33 11,15.33 11,15.33 C8.34,17 5.34,17.33 4,14.67 C2,11 2,11 2,11 C1.67,10.33 1.67,10.33 1.67,10.33 C0,7.67 0.67,3 3.34,1.67 C3.34,1.67 3.34,1.67 3.34,1.67 C6,0 9.67,1.67 11.34,4.67 C11.67,5 11.67,5 11.67,5 Z" fill="none" stroke="currentColor" stroke-width="1.5"/><path d="M17,52.67 C16,52.67 15.34,52 15.34,51 C15.34,24.33 15.34,24.33 15.34,24.33 C15.34,23.33 16,22.67 17,22.67 C17,22.67 17,22.67 17,22.67 C18,22.67 18.67,23.33 18.67,24.33 C18.67,51 18.67,51 18.67,51 C18.67,52 18,52.67 17,52.67 Z" fill="none" stroke="currentColor" stroke-width="1.5"/><path d="M17.34,27.33 C18.34,27.33 19.34,26.67 19.34,25.67 C19.34,24.67 18.34,23.67 17.34,23.67 C16.34,23.67 15.67,24.67 15.67,25.67 C15.67,26.67 16.34,27.33 17.34,27.33 Z" fill="none" stroke="currentColor" stroke-width="1.5"/><path d="M14,9 C15.34,12 14,14 11,15.67 C11,15.67 11,15.67 11,15.67 C8.34,17 5.67,17.33 4,14.67" fill="none" stroke="currentColor" stroke-width="1.5"/><path d="M13,7.67 C14.67,10.33 13,12.67 10.34,14 C10.34,14 10.34,14 10.34,14 C7.67,15.67 4.67,16 3.34,13.33" fill="none" stroke="currentColor" stroke-width="1.5"/><path d="M12.34,6.67 C13.67,9.33 12,11.33 9.67,13 C9.67,13 9.67,13 9.67,13 C7,14.33 4.34,14.67 2.67,12" fill="none" stroke="currentColor" stroke-width="1.5"/><path d="M11.67,5.67 C13,8 11.34,10 8.67,11.67 C8.67,11.67 8.67,11.67 8.67,11.67 C6,13 3.34,13.33 2,10.67" fill="none" stroke="currentColor" stroke-width="1.5"/><path d="M11,4.33 C12.34,6.67 10.67,8.67 8,10.33 C8,10.33 8,10.33 8,10.33 C5.34,11.67 2.67,12 1.34,9.33" fill="none" stroke="currentColor" stroke-width="1.5"/><path d="M10,3 C11.34,5.67 10,7.67 7.34,9 C7.34,9 7.34,9 7.34,9 C5,10.33 2.34,10.67 1,8.33" fill="none" stroke="currentColor" stroke-width="1.5"/><path d="M9,2.33 C10,4.67 8.67,6.33 6.67,7.33 C6.67,7.33 6.67,7.33 6.67,7.33 C4.34,8.67 2.34,9 1,6.67" fill="none" stroke="currentColor" stroke-width="1.5"/><path d="M7.67,1.67 C8.67,3.67 7.67,5 5.67,6 C5.67,6 5.67,6 5.67,6 C4,7 2,7.33 1,5.33" fill="none" stroke="currentColor" stroke-width="1.5"/><path d="M22.67,35 C23.67,39.67 23.67,46.67 28.67,48.67 C30,49.33 31.67,49 33.34,49.67 C36.67,50.67 38,54.33 41,56.67 C43.67,58.67 47,58.67 50,57.33" fill="none" stroke="currentColor" stroke-width="1.5"/></svg>