<svg xmlns="http://www.w3.org/2000/svg" viewBox="0 0 56.33 50.33" width="24" height="24"><path d="M0,28.66 L17.33,28.66 M5.33,33.66 L17,33.66 M17.33,21.66 L7.67,21.66 M3.33,26 L17,26 M44.67,50.33 L18.67,50.33 L30,43.33 L56.33,43.33 L44.67,50.33 Z M30,43.33 L18.67,50.33 L18.67,6.66 L30,0.33 Z M44.33,6.66 L18.67,6.66 L30,0.33 L56.33,0 Z M44.67,50.33 L18.67,50.33 L18.67,6.66 L44.33,6.66 Z" fill="none" stroke="currentColor" stroke-width="1.5"/><path d="M56.33,43.33 L44.67,50.33 L44.33,6.66 L56.33,0 Z M56.33,43.33 L44.67,50.33 L44.33,6.66 L56.33,0 Z" fill="none" stroke="currentColor" stroke-width="1.5"/><rect x="0" y="0" width="0" height="0" fill="none" stroke="currentColor"/><path d="M41.67,25.66 C42.33,24.33 43.67,18 43.67,17 C43.67,16 43.33,15 43,14.66 C43,14.33 43,14.33 43,14.33 C43,14 42.67,14 42.67,14 C42.67,14 42.67,14 42.67,14 C42.67,14 43,12.66 43.33,11.66 C43.67,9.66 43.67,9 43.67,9 C43.67,8.66 43.67,8.66 43.33,8.66 C42.33,8.33 42.33,8.33 42.33,8.33 C42,8 42,8.33 41.67,8.66 C41.67,8.66 41.33,9.33 40.67,11.33 C40.33,12.33 40,13 40,13 C40,13 40,13 40,13 C39.33,13 38.67,12.66 38,12.33 C36.33,12 34.33,11.66 32.67,11.33 C32.67,11.33 32.67,11.33 32.33,11.66 C32.33,11.66 32.33,11.66 32.33,11.66 C32,11.66 31,12.66 30.67,13.33 C30.33,14 28.33,20.66 28,21.66 C27.33,23 26.67,26.33 26.33,28 C26.33,29.66 26,32.66 25,36.33 C24.33,38.66 23.33,42 22.67,43.33 C22.67,43.66 21.33,45.66 23,46.33 C24.67,47 27,47.66 28,48 C29.33,48.33 31.67,49 33.33,49 C35,49.33 35,47.33 35,47 C35.33,45.33 36.33,42 37,39.66 C38,36 39.33,33.33 39.67,31.66 C40.33,30 41.33,27 41.67,25.66 Z" fill="none" stroke="currentColor" stroke-width="1.5"/><path d="M40,26 C40.33,24.66 42,18 42,17 C42,16.33 41.67,15 41.33,15 C41.33,14.66 41.33,14.33 41.33,14.33 C41,14.33 41,14.33 41,14.33 C41,14.33 41,14.33 41,14.33 C41,14.33 41.33,12.66 41.33,11.66 C42,10 42,9.33 42,9.33 C42,9 42,8.66 41.67,8.66 C40.67,8.33 40.67,8.33 40.67,8.33 C40.33,8.33 40,8.33 40,8.66 C40,8.66 39.67,9.66 39,11.33 C38.67,12.33 38.33,13.33 38.33,13.33 C38.33,13.33 38.33,13.33 38.33,13.33 C37.67,13 37,12.66 36.33,12.66 C34.33,12 32.67,11.66 31,11.66 C31,11.66 31,11.66 30.67,12 C30.67,12 30.67,12 30.67,12 C30.33,12 29.33,12.66 29,13.66 C28.33,14.33 26.33,20.66 26,22 C25.67,23.33 25,26.66 24.67,28.33 C24.33,30 24,32.66 23,36.66 C22.33,39 21.33,42.33 21,43.66 C20.67,44 19.67,45.66 21.33,46.33 C23,47 25.33,47.66 26.33,48 C27.67,48.33 30,49 31.67,49.33 C33.33,49.66 33.33,47.33 33.33,47 C33.67,45.66 34.67,42 35,40 C36.33,36 37.33,33.33 38,32 C38.67,30.33 39.67,27 40,26 Z" fill="none" stroke="currentColor" stroke-width="1.5"/><path d="M27,46.33 C27,46.33 27,46.33 27,46.33 C26.67,46.33 26.67,46.33 26.67,46.33 C26.67,46.33 26.67,46.33 27,46.33 C27,46.33 27,46.33 27,46.33 Z M26.67,46.33 C26.33,47.66 26.33,47.66 26.33,47.66 M26.67,46.33 C26.33,47.66 26.33,47.66 26.33,47.66 M27,46.33 C26.67,47.66 26.67,47.66 26.67,47.66 M27,46.33 C26.67,47.66 26.67,47.66 26.67,47.66 M29.67,25.66 C29.33,26.66 29.33,26.66 29.33,26.66 M29.67,25.66 C29.33,26.66 29.33,26.66 29.33,26.66 M35.33,27.33 C35,28.33 35,28.33 35,28.33 M35,27.33 C35,28.33 35,28.33 35,28.33" fill="none" stroke="currentColor" stroke-width="1.5"/><path d="M27,46.33 C27,46.33 27,46.33 27,46.33 C26.67,46.33 26.67,46.33 26.67,46.33 C26.67,46.33 26.67,46.33 27,46.33 C27,46.33 27,46.33 27,46.33 Z M26.67,46.33 C26.33,47.66 26.33,47.66 26.33,47.66 M26.67,46.33 C26.33,47.66 26.33,47.66 26.33,47.66 M27,46.33 C26.67,47.66 26.67,47.66 26.67,47.66 M27,46.33 C26.67,47.66 26.67,47.66 26.67,47.66 M29.67,25.66 C29.33,26.66 29.33,26.66 29.33,26.66 M29.67,25.66 C29.33,26.66 29.33,26.66 29.33,26.66 M35.33,27.33 C35,28.33 35,28.33 35,28.33 M35,27.33 C35,28.33 35,28.33 35,28.33" fill="none" stroke="currentColor" stroke-width="1.5"/><rect x="0" y="0" width="0" height="0" fill="none" stroke="currentColor"/><path d="M41,14.33 C41,14.33 41.33,12.66 41.33,11.66 C42,10 42,9.33 42,9.33 C42,9 42,8.66 41.67,8.66 C40.67,8.33 40.67,8.33 40.67,8.33 C40.33,8.33 40,8.33 40,8.66 C40,8.66 39.67,9.66 39,11.33 C38.67,12.33 38.33,13.33 38.33,13.33 M41,13.66 C40.33,13.33 39.33,13 38.33,12.66 M31,11.66 C31,11.66 29,16.33 27.67,21 C26,26.66 25.67,28.66 26,31.33 C26,31.66 26.67,32.33 27.33,32.66 C27.33,32.66 27.67,32.66 27.67,32.66 C28,32.66 28.33,33 28.67,33.33 C29,33.33 29.33,33.66 29.33,33.66 C29.67,33.66 29.67,34 30.33,34 C31,34.33 31,34 31.33,34 C31.33,34.33 31.67,34 32,34 C32.67,34 33,34.33 33,34.33 C33.33,34.33 33.33,34.33 33.67,34.33 C34.33,34.66 35,34.33 35.33,33.66 C37,31.66 37.67,30 39.33,24.33 C40.67,19.33 41,14.33 41,14.33 M29.67,14 C31.67,14.33 33.67,14.66 35.67,15 C37.33,15.66 39.33,16.33 41,17" fill="none" stroke="currentColor" stroke-width="1.5"/><path d="M34,30.33 C33.67,32 32.33,32.66 30.67,32.33 C29.33,32 28.33,30.33 28.67,29 C29.33,27.66 30.67,26.66 32.33,27 C33.67,27.33 34.67,29 34,30.33 Z" fill="none" stroke="currentColor" stroke-width="1.5"/><path d="M35,16 L36,12.66" fill="none" stroke="currentColor" stroke-width="1.5"/><path d="M35.33,16 L36.33,12.66" fill="none" stroke="currentColor" stroke-width="1.5"/><path d="M38,26.33 C38,26.66 38,26.66 37.67,26.66 C28,24 28,24 28,24 C27.67,24 27.67,23.66 27.67,23.33 C29.33,17.33 29.33,17.33 29.33,17.33 C29.33,17 29.67,17 30,17 C39.67,19.66 39.67,19.66 39.67,19.66 C39.67,19.66 40,20 40,20.33 Z" fill="none" stroke="currentColor" stroke-width="1.5"/><path d="M27.33,35 C27,35.33 26.67,35.66 26,35.66 C25.33,35.33 25,35 25.33,34.33 C25.33,33.66 26,33.33 26.67,33.66 C27,33.66 27.33,34.33 27.33,35 Z M25.33,41.33 C25.33,42 24.67,42.33 24,42 C23.67,42 23.33,41.33 23.33,40.66 C23.33,40.33 24,40 24.67,40 C25.33,40.33 25.67,40.66 25.33,41.33 Z M34.33,37 C34.33,37.33 33.67,37.66 33,37.66 C32.33,37.33 32,37 32.33,36.33 C32.33,35.66 33,35.33 33.67,35.66 C34.33,35.66 34.67,36.33 34.33,37 Z M32.33,43.33 C32.33,44 31.67,44.33 31,44 C30.67,44 30.33,43.33 30.33,43 C30.67,42.33 31,42 31.67,42 C32.33,42.33 32.67,43 32.33,43.33 Z M30.67,36.66 C30.33,37.33 30,37.66 29.33,37.33 C28.67,37.33 28.33,36.66 28.67,36 C28.67,35.66 29.33,35.33 30,35.33 C30.33,35.66 30.67,36 30.67,36.66 Z M26.33,38 C26.33,38.66 25.67,39 25,39 C24.33,38.66 24,38 24.33,37.66 C24.33,37 25,36.66 25.67,37 C26.33,37 26.67,37.66 26.33,38 Z M33.33,40.33 C33.33,40.66 32.67,41 32,41 C31.67,40.66 31.33,40.33 31.33,39.66 C31.67,39 32,38.66 32.67,39 C33.33,39 33.67,39.66 33.33,40.33 Z M29.67,40 C29.67,40.66 29,40.66 28.33,40.66 C27.67,40.66 27.33,40 27.67,39.33 C27.67,38.66 28.33,38.33 29,38.66 C29.67,38.66 30,39.33 29.67,40 Z M28.67,43.33 C28.67,43.66 28,44 27.33,44 C27,43.66 26.67,43.33 26.67,42.66 C26.67,42 27.33,41.66 28,42 C28.67,42 29,42.66 28.67,43.33 Z" fill="none" stroke="currentColor" stroke-width="1.5"/></svg>