<svg xmlns="http://www.w3.org/2000/svg" viewBox="0 0 65.67 44.67" width="24" height="24"><path d="M0,5 L0,44.67 L60.67,44.67 L60.67,5 Z M0,5 L4.67,0 L65.67,0 L60.67,5 Z M60.67,5 L65.67,0 L65.67,39.67 L60.67,44.67 Z" fill="none" stroke="currentColor" stroke-width="1.5"/><rect x="0" y="0" width="0" height="0" fill="none" stroke="currentColor"/><path d="M48.67,13.67 L48.67,11.34 L54.34,15.34 L48.67,19 L48.67,16.67 L41.34,16.67 L41.34,13.67 Z M18.34,33.34 L18.34,31 L23.67,35 L18.34,39 L18.34,36.67 L4,36.67 L4,33.34 Z M48.67,33.67 L48.67,31.34 L54.34,35 L48.67,39 L48.67,36.67 L41.34,36.67 L41.34,33.67 Z" fill="none" stroke="currentColor" stroke-width="1.5"/><path d="M48,13 L48,10.67 L53.67,14.34 L48,18.34 L48,16 L40.67,16 L40.67,13 Z M17.34,32.67 L17.34,30.34 L23,34.34 L17.34,38 L17.34,35.67 L3.34,35.67 L3.34,32.67 Z" fill="none" stroke="currentColor" stroke-width="1.5"/><path d="M53.67,23.67 L53.67,21.34 L59.34,25 L53.67,29 L53.67,26.67 L41,26.67 L41,23.67 Z" fill="none" stroke="currentColor" stroke-width="1.5"/><path d="M53,22.67 L53,20.34 L58.67,24.34 L53,28.34 L53,26 L40.34,26 L40.34,22.67 Z M48,32.67 L48,30.34 L53.67,34.34 L48,38.34 L48,36 L40.67,36 L40.67,32.67 Z" fill="none" stroke="currentColor" stroke-width="1.5"/><path d="M38.67,8.34 L38.67,41.34 L24,41.34 L24,8.34 Z" fill="none" stroke="currentColor" stroke-width="1.5"/><path d="M34.67,33.67 L34.67,38.34 L28.34,38.34 L28.34,33.67 Z" fill="none" stroke="currentColor" stroke-width="1.5"/><path d="M37.67,38.34 L37.67,39.67 L36.34,39.67 L36.34,38.34 Z M37.67,35.67 L37.67,37 L36.34,37 L36.34,35.67 Z M37.67,32.67 L37.67,34 L36.34,34 L36.34,32.67 Z M37.67,30.34 L37.67,31.34 L36.34,31.34 L36.34,30.34 Z M37.67,27.34 L37.67,28.67 L36.34,28.67 L36.34,27.34 Z M37.67,24.67 L37.67,26 L36.34,26 L36.34,24.67 Z M37.67,22 L37.67,23.34 L36.34,23.34 L36.34,22 Z M37.67,19.34 L37.67,20.67 L36.34,20.67 L36.34,19.34 Z M37.67,16.67 L37.67,18 L36.34,18 L36.34,16.67 Z M37.67,14 L37.67,15.34 L36.34,15.34 L36.34,14 Z M37.67,11.34 L37.67,12.67 L36.34,12.67 L36.34,11.34 Z M26.67,38.34 L26.67,39.67 L25.34,39.67 L25.34,38.34 Z M26.67,35.67 L26.67,37 L25.34,37 L25.34,35.67 Z M26.67,32.67 L26.67,34 L25.34,34 L25.34,32.67 Z M26.67,30.34 L26.67,31.34 L25.34,31.34 L25.34,30.34 Z M26.67,27.34 L26.67,28.67 L25.34,28.67 L25.34,27.34 Z M26.67,24.67 L26.67,26 L25.34,26 L25.34,24.67 Z M26.67,22 L26.67,23.34 L25.34,23.34 L25.34,22 Z M26.67,19.34 L26.67,20.67 L25.34,20.67 L25.34,19.34 Z M26.67,16.67 L26.67,18 L25.34,18 L25.34,16.67 Z M26.67,14 L26.67,15.34 L25.34,15.34 L25.34,14 Z M26.67,11.34 L26.67,12.67 L25.34,12.67 L25.34,11.34 Z M34.67,26.67 L34.67,31 L28.34,31 L28.34,26.67 Z M34.67,19.34 L34.67,23.67 L28.34,23.67 L28.34,19.34 Z M34.67,12.34 L34.67,16.67 L28.34,16.67 L28.34,12.34 Z" fill="none" stroke="currentColor" stroke-width="1.5"/><rect x="0" y="0" width="0" height="0" fill="none" stroke="currentColor"/><path d="M18,17 C18.34,16.34 19,13 19,12.34 C19,12 19,11.34 18.67,11.34 C18.67,11 18.67,11 18.67,11 C18.67,11 18.67,11 18.67,11 C18.67,11 18.67,11 18.67,11 C18.67,11 18.67,10 19,9.67 C19,8.67 19,8 19,8 C19,8 19,7.67 19,7.67 C18.34,7.67 18.34,7.67 18.34,7.67 C18,7.67 18,7.67 18,7.67 C18,7.67 17.67,8.34 17.34,9.34 C17.34,9.67 17,10.34 17,10.34 C17,10.34 17,10.34 17,10.34 C16.67,10.34 16.34,10.34 16,10 C15,9.67 14,9.67 13.34,9.34 C13.34,9.34 13,9.67 13,9.67 C13,9.67 13,9.67 13,9.67 C12.67,9.67 12.34,10 12,10.67 C12,11 10.67,14.34 10.67,15 C10.34,15.67 10,17.67 10,18.34 C9.67,19.34 9.67,20.67 9,23 C8.67,24 8,26 8,26.67 C7.67,26.67 7.34,27.67 8,28 C9,28.34 10,29 10.67,29 C11.34,29.34 12.67,29.67 13.67,29.67 C14.34,29.67 14.34,28.67 14.67,28.34 C14.67,27.67 15,26 15.34,24.67 C16,22.67 16.67,21.34 17,20.34 C17.34,19.67 18,17.67 18,17 Z" fill="none" stroke="currentColor" stroke-width="1.5"/><path d="M18,8 C18,8 18,8 17.67,8 C17.34,8 17,7.67 17,7.67" fill="none" stroke="currentColor" stroke-width="1.5"/><path d="M17,17.34 C17.34,16.67 18,13 18.34,12.67 C18.34,12 18,11.34 17.67,11.34 C17.67,11.34 17.67,11 17.67,11 C17.67,11 17.67,11 17.67,11 C17.67,11 17.67,11 17.67,11 C17.67,11 17.67,10.34 18,9.67 C18,8.67 18,8 18,8 C18,8 18,8 18,8 C17.34,7.67 17.34,7.67 17.34,7.67 C17.34,7.67 17,7.67 17,8 C17,8 16.67,8.34 16.34,9.34 C16.34,10 16,10.34 16,10.34 C16,10.34 16,10.34 16,10.34 C15.67,10.34 15.34,10.34 15,10 C14,10 13.34,9.67 12.34,9.67 C12.34,9.67 12.34,9.67 12,9.67 C12,9.67 12,9.67 12,9.67 C12,9.67 11.34,10.34 11.34,10.67 C11,11 10,14.34 9.67,15 C9.34,16 9,17.67 9,18.34 C8.67,19.34 8.67,21 8,23 C7.67,24 7.34,26 7,26.67 C7,27 6.34,28 7,28.34 C8,28.67 9.34,29 10,29 C10.34,29.34 11.67,29.67 12.67,29.67 C13.67,30 13.67,28.67 13.67,28.67 C13.67,27.67 14.34,26 14.67,24.67 C15,22.67 15.67,21.34 16,20.34 C16.34,19.67 17,18 17,17.34 Z" fill="none" stroke="currentColor" stroke-width="1.5"/><path d="M10.67,22 C10.34,22.34 10,22.67 9.67,22.67 C9.34,22.34 9.34,22 9.34,21.67 C9.34,21.34 9.67,21 10,21.34 C10.34,21.34 10.67,21.67 10.67,22 Z" fill="none" stroke="currentColor" stroke-width="1.5"/><path d="M14.34,12 L15,10" fill="none" stroke="currentColor" stroke-width="1.5"/><path d="M12.34,22.67 C12.34,23 11.67,23.34 11.34,23.34 C11,23 11,22.67 11,22.34 C11,22 11.34,22 11.67,22 C12.34,22 12.34,22.34 12.34,22.67 Z" fill="none" stroke="currentColor" stroke-width="1.5"/><path d="M14,23 C14,23.34 13.67,23.67 13.34,23.67 C13,23.34 12.67,23 12.67,22.67 C13,22.34 13.34,22 13.67,22.34 C14,22.34 14.34,22.67 14,23 Z" fill="none" stroke="currentColor" stroke-width="1.5"/><path d="M10.34,23.67 C10,24 9.67,24 9.34,24 C9,24 8.67,23.67 9,23.34 C9,23 9.34,22.67 9.67,22.67 C10,22.67 10.34,23.34 10.34,23.67 Z" fill="none" stroke="currentColor" stroke-width="1.5"/><path d="M12,24.34 C11.67,24.67 11.34,24.67 11,24.67 C10.67,24.67 10.34,24.34 10.67,24 C10.67,23.67 11,23.34 11.34,23.34 C11.67,23.67 12,24 12,24.34 Z" fill="none" stroke="currentColor" stroke-width="1.5"/><path d="M13.67,24.67 C13.67,25 13.34,25 13,25 C12.67,25 12.34,24.67 12.34,24 C12.67,23.67 13,23.67 13.34,23.67 C13.67,23.67 13.67,24 13.67,24.67 Z" fill="none" stroke="currentColor" stroke-width="1.5"/><path d="M9.67,25 C9.67,25.34 9.34,25.67 9,25.34 C8.67,25.34 8.34,25 8.34,24.67 C8.67,24.34 9,24 9.34,24.34 C9.67,24.34 10,24.67 9.67,25 Z" fill="none" stroke="currentColor" stroke-width="1.5"/><path d="M11.34,25.67 C11.34,26 11,26.34 10.67,26.34 C10.34,26 10,25.67 10.34,25.34 C10.34,25 10.67,24.67 11,25 C11.34,25 11.67,25.34 11.34,25.67 Z" fill="none" stroke="currentColor" stroke-width="1.5"/><path d="M13.34,26 C13.34,26.34 12.67,26.67 12.34,26.34 C12,26.34 12,26 12,25.67 C12,25.34 12.34,25 12.67,25 C13.34,25.34 13.34,25.67 13.34,26 Z" fill="none" stroke="currentColor" stroke-width="1.5"/><path d="M9.34,26.34 C9.34,27 9,27 8.67,27 C8.34,27 8,26.34 8,26 C8.34,25.67 8.67,25.67 9,25.67 C9.34,25.67 9.34,26 9.34,26.34 Z M11,27.34 C11,27.67 10.67,27.67 10.34,27.67 C10,27.67 9.67,27.34 9.67,27 C10,26.34 10.34,26.34 10.67,26.34 C11,26.34 11,27 11,27.34 Z" fill="none" stroke="currentColor" stroke-width="1.5"/><path d="M13,27.34 C12.67,27.67 12.34,28 12,28 C11.67,27.67 11.34,27.34 11.67,27 C11.67,26.67 12,26.67 12.34,26.67 C12.67,26.67 13,27 13,27.34 Z" fill="none" stroke="currentColor" stroke-width="1.5"/><path d="M10.34,28.34 C10.34,28.34 10,28.34 10,28.34 C10,28.34 10,28 10,28 C10,28 10,28 10,28 C10.34,28 10.34,28 10.34,28.34 Z" fill="none" stroke="currentColor" stroke-width="1.5"/><path d="M17.67,11 C17.67,11 17.67,10.34 18,9.67 C18,8.67 18,8 18,8 C18,8 18,8 18,8 C17.34,7.67 17.34,7.67 17.34,7.67 C17.34,7.67 17,7.67 17,8 C17,8 16.67,8.34 16.34,9.34 C16.34,10 16,10.34 16,10.34 M16,18 C16,18.34 15.67,18.34 15.67,18.34 C10.34,17 10.34,17 10.34,17 C10.34,16.67 10.34,16.67 10.34,16.67 C11.34,13.34 11.34,13.34 11.34,13.34 C11.34,13 11.34,13 11.34,13 C16.67,14.67 16.67,14.67 16.67,14.67 C16.67,14.67 17,14.67 16.67,14.67 Z M17.67,10.67 C17.34,10.67 16.67,10.34 16.34,10.34 M12.34,9.67 C12.34,9.67 11,12 10.34,14.67 C9.67,17.67 9.34,18.67 9.67,20 C9.67,20.34 10,20.67 10.34,20.67 C10.34,21 10.67,21 10.67,21 C10.67,21 11,21 11,21 C11.34,21.34 11.34,21.34 11.34,21.34 C11.67,21.34 11.67,21.67 12,21.67 C12.34,21.67 12.34,21.67 12.34,21.67 C12.67,21.67 12.67,21.67 13,21.67 C13,21.67 13.34,21.67 13.34,21.67 C13.34,21.67 13.67,21.67 13.67,21.67 C14,22 14.34,21.67 14.67,21.34 C15.34,20.34 16,19.34 16.67,16.34 C17.34,13.67 17.67,11 17.67,11 M11.67,11 C12.67,11 13.67,11.34 14.67,11.34 C15.67,11.67 16.67,12 17.67,12.34" fill="none" stroke="currentColor" stroke-width="1.5"/><path d="M14,20 C13.67,21 12.67,21.34 12,21 C11.34,21 10.67,20 11,19.34 C11.34,18.67 12,18 12.67,18.34 C13.67,18.34 14,19.34 14,20 Z M11,17.67 C11.34,17.67 11.34,17.67 11.67,18 C11.67,18 11.67,18 11.67,18 C11.67,18 11.34,18 11.34,18.34 C11.34,18.34 11.34,18.34 11,18.34 C11,18 10.34,17.67 10.34,17.67 C10.34,17.67 10.34,17.67 10.34,17.67 C10.67,17.67 11,17.67 11,17.67 Z M10,19.34 C10.34,19.34 10.34,19.34 10.67,19.34 C10.67,19.67 10.67,19.67 10.67,19.67 C10.67,20 10.67,20.34 10.67,20.34 C11,20.67 11,20.67 10.67,20.67 C10.67,20.67 10.34,20.67 10.34,20.34 C10,20.34 10,20.34 10,20.34 C10,20 10,19.67 10,19.34 C10,19.34 10,19.34 10,19.34 Z" fill="none" stroke="currentColor" stroke-width="1.5"/><path d="M14.67,18.67 C14.34,18.67 14.34,18.67 14,18.67 C14,18.67 14,18.67 14,18.67 C14,18.67 14,19 14,19 C14.34,19 14.34,19 14.34,19 C14.67,19 15,19 15.34,19 C15.34,19 15.34,19 15.34,19 C15,18.67 14.67,18.67 14.67,18.67 Z M14.67,20.67 C14.67,20.34 14.34,20.34 14.34,20.34 C14,20.34 14,20.67 14,20.67 C13.67,20.67 13.67,21 13.34,21.34 C13.34,21.34 13.34,21.34 13.34,21.34 C13.67,21.34 13.67,21.34 14,21.34 C14,21.34 14,21.34 14.34,21.34 C14.34,21.34 14.67,21 14.67,20.67 C14.67,20.67 14.67,20.67 14.67,20.67 Z" fill="none" stroke="currentColor" stroke-width="1.5"/></svg>