<svg xmlns="http://www.w3.org/2000/svg" viewBox="0 0 35.0 47.67" width="24" height="24"><path d="M29,47.67 L29,35.33 L0,35.33 L0,47.67 Z M17.67,35.33 L17.67,47.67 M29,35.33 L29,6 L0,6 L0,35.33 Z M35,0 L35,41.33 L29,47.67 L29,6 Z M29,6 L0,6 L7.33,0 L35,0 Z" fill="none" stroke="currentColor" stroke-width="1.5"/><path d="M29,35.67 L29,35.67 M0,35.67 L0,35.67 M4,13.33 L27.33,13.33 M3,20.67 L26.33,20.67 M2,27.33 L25.33,27.33 M5.33,31.33 L10,9.33 M20,31.33 L25,9.33 M12.67,31 L17.33,9" fill="none" stroke="currentColor" stroke-width="1.5"/><path d="M11,13.33 C11,14 10,14.67 9,14.67 C8,14.67 7.33,14 7.33,13.33 C7.33,12.67 8,12.33 9,12.33 C10,12.33 11,12.67 11,13.33 Z M18.33,13 C18.33,13.67 17.67,14.33 16.67,14.33 C15.67,14.33 14.67,13.67 14.67,13 C14.67,12.33 15.67,12 16.67,12 C17.67,12 18.33,12.33 18.33,13 Z M26,13.67 C26,14.33 25,14.67 24,14.67 C23,14.67 22.33,14.33 22.33,13.67 C22.33,13 23,12.33 24,12.33 C25,12.33 26,13 26,13.67 Z M9,20.67 C9,21.33 8.33,21.67 7.33,21.67 C6.33,21.67 5.67,21.33 5.67,20.67 C5.67,20 6.33,19.33 7.33,19.33 C8.33,19.33 9,20 9,20.67 Z M16.67,20.67 C16.67,21.33 16,22 15,22 C14,22 13,21.33 13,20.67 C13,20 14,19.67 15,19.67 C16,19.67 16.67,20 16.67,20.67 Z M24.33,20.33 C24.33,21 23.33,21.67 22.33,21.67 C21.33,21.67 20.67,21 20.67,20.33 C20.67,19.67 21.33,19.33 22.33,19.33 C23.33,19.33 24.33,19.67 24.33,20.33 Z M7.67,27.33 C7.67,28 6.67,28.67 5.67,28.67 C4.67,28.67 4,28 4,27.33 C4,26.67 4.67,26.33 5.67,26.33 C6.67,26.33 7.67,26.67 7.67,27.33 Z M15.33,27.33 C15.33,28 14.33,28.67 13.33,28.67 C12.33,28.67 11.67,28 11.67,27.33 C11.67,26.67 12.33,26.33 13.33,26.33 C14.33,26.33 15.33,26.67 15.33,27.33 Z M22.67,27.33 C22.67,28 22,28.67 21,28.67 C20,28.67 19,28 19,27.33 C19,26.67 20,26.33 21,26.33 C22,26.33 22.67,26.67 22.67,27.33 Z" fill="none" stroke="currentColor" stroke-width="1.5"/><path d="M27,38.33 C27,39 25.33,39.67 23.33,39.67 C21.67,39.67 20,39 20,38.33 C20,45 20,45 20,45 C20,45.67 21.67,46 23.33,46 C25.33,46 27,45.67 27,45 Z M23.33,39.67 C25.33,39.67 27,39 27,38.33 C27,37.67 25.33,37 23.33,37 C21.67,37 20,37.67 20,38.33 C20,39 21.67,39.67 23.33,39.67 Z" fill="none" stroke="currentColor" stroke-width="1.5"/><path d="M4,44.67 L11,44.67 L11,46.33 L14,44.33 L11,42 L11,43.67 L4,43.67 Z" fill="none" stroke="currentColor" stroke-width="1.5"/><path d="M13.67,38.67 L6.67,38.67 L6.67,37.33 L3.67,39.33 L6.67,41.67 L6.67,40 L13.67,40 Z" fill="none" stroke="currentColor" stroke-width="1.5"/></svg>