<svg xmlns="http://www.w3.org/2000/svg" viewBox="0 0 63.66 40.67" width="24" height="24"><path d="M0,15.34 L19,0 L63.66,0 L47.66,15.34 Z" fill="none" stroke="currentColor" stroke-width="1.5"/><rect x="0" y="0" width="0" height="0" fill="none" stroke="currentColor"/><path d="M35.33,5.34 L35,5.67 L21.66,5.67 L20.66,7 L17,5.67 L24,3.34 L22.33,5.34 Z" fill="none" stroke="currentColor" stroke-width="1.5"/><path d="M47.66,40.67 L63.66,24.67 L63.66,0 L47.66,15.34 Z" fill="none" stroke="currentColor" stroke-width="1.5"/><path d="M50.33,3 L51.66,1.67 L55.33,3 L48,5.34 L50,3.34 L36.66,3.34 L37.33,3 Z M28.33,12.67 L28,13 L14.66,13 L13.66,14.34 L10,13 L17,10.67 L15.33,12.67 Z M43.33,10.34 L44.66,9 L48.33,10.34 L41,12.67 L43,10.67 L29.66,10.67 L30.33,10.34 Z" fill="none" stroke="currentColor" stroke-width="1.5"/><path d="M47.66,40.67 L47.66,15.34 L0,15.34 L0,40.67 Z" fill="none" stroke="currentColor" stroke-width="1.5"/><path d="M14.66,26.34 L14.66,22.67 L7.66,22.67 L7.66,26.34 Z M31.33,26.34 L31.33,22.67 L38.33,22.67 L38.33,26.34 Z M14.66,35.67 L14.66,32 L7.66,32 L7.66,35.67 Z M31.33,35.67 L31.33,32 L38.33,32 L38.33,35.67 Z" fill="none" stroke="currentColor" stroke-width="1.5"/><path d="M12.33,24.34 L34.66,24.34 M12.33,33.67 L34.66,33.67 M11.33,33.67 L34.66,24.34 M11.33,24.34 L34.66,33.67" fill="none" stroke="currentColor" stroke-width="1.5"/><path d="M55.33,18.67 L57,10 L58.66,8 L58.66,6 L61.66,6 L59,11.67 L59,9 L57.66,10.67 L56.33,19 L55.66,21 L53.66,30.67 L52,32.67 L52,34.67 L49,35.34 L51.66,29 L51.66,31.34 L52.66,30 L55,20.67 Z M51.33,17 L51.33,17 L52.66,16 L54.66,20 L55.66,21.34 L57.66,25.34 L59.66,24 L59.66,26.34 L62.33,21 L59.66,21.34 L59.66,23 L58,24.34 L55.66,20 L55,18.67 L52.66,14.67 L51.33,16 L51.33,13.34 L48.66,19.34 L51.33,18.67 Z" fill="none" stroke="currentColor" stroke-width="1.5"/></svg>