<svg xmlns="http://www.w3.org/2000/svg" viewBox="0 0 56.67 40.34" width="24" height="24"><path d="M0,40.34 L50.67,40.34 L50.67,7 L0,7 Z M56.67,31.67 L50.67,40.34 L50.67,7 L56.67,0 Z M8.67,0 L56.67,0 L50.67,7 L0,7 Z" fill="none" stroke="currentColor" stroke-width="1.5"/><rect x="0" y="0" width="0" height="0" fill="none" stroke="currentColor"/><path d="M8.67,16.67 L8.67,18.67 L3.67,16 L8.67,13 L8.67,15.34 L8.67,15 L17.34,15 L17.34,13 L22.34,15.67 L17.34,18.67 L17.34,16.34 L8.67,16.34 L8.67,16.67 Z M8.67,32 L8.67,34.34 L3.67,31.34 L8.67,28.67 L8.67,30.67 L8.67,30.67 L17.34,30.67 L17.34,28.34 L22.34,31.34 L17.34,34 L17.34,32 L8.67,32 L8.67,32 Z M8.67,24.34 L8.67,26.67 L3.67,23.67 L8.67,21 L8.67,23 L8.67,23 L14.67,23 L14.67,21 L19.67,23.67 L14.67,26.67 L14.67,24.34 L8.67,24.34 L8.67,24.34 Z" fill="none" stroke="currentColor" stroke-width="1.5"/><path d="M47.34,30 C46.34,30 45.67,27.34 46,24.34 C46,21.34 46.67,19 47.34,19 C41,19 41,19 41,19 C40.34,19 39.67,21.34 39.67,24.34 C39.67,27.34 40,29.67 41,29.67 Z" fill="none" stroke="currentColor" stroke-width="1.5"/><rect x="0" y="0" width="0" height="0" fill="none" stroke="currentColor"/><path d="M46,24.34 C45.67,27.34 46.34,29.67 47.34,29.67 C48.34,29.67 49,27.34 49,24.34 C49,21.67 48.34,19.34 47.34,19.34 C46.67,19.34 46,21.67 46,24.34 Z" fill="none" stroke="currentColor" stroke-width="1.5"/><path d="M42.34,24 C42.34,30 37.67,34.67 31.67,34.67 C25.67,34.67 21,29.67 21,24 C21,18 26,13.34 32,13.34 C37.67,13.34 42.67,18 42.34,24 Z" fill="none" stroke="currentColor" stroke-width="1.5"/><path d="M37,24.34 C37,27 34.67,29.34 31.67,29.34 C29,29.34 26.67,27 26.67,24 C26.67,21.34 29,19 32,19 C34.67,19 37,21.34 37,24.34 Z" fill="none" stroke="currentColor" stroke-width="1.5"/></svg>