<svg xmlns="http://www.w3.org/2000/svg" viewBox="0 0 47.34 32.0" width="24" height="24"><path d="M0,6.66 L8,0 L47.34,0 L41,6.66 Z M47.34,0 L41,6.66 L41,32 L47.34,23.33 Z M0,6.66 L41,6.66 L41,32 L0,32 Z" fill="none" stroke="currentColor" stroke-width="1.5"/><path d="M20,30 C26,30 31,25.33 31,19.33 C31,13.33 26,8.66 20,8.66 C14.34,8.66 9.34,13.33 9.34,19.33 C9.34,25.33 14.34,30 20,30 Z" fill="none" stroke="currentColor" stroke-width="1.5"/><path d="M3.34,13.66 L33.67,13.66 L33.67,12.33 L36.34,14.33 L33.67,16.33 L33.67,15 L3.34,15 Z" fill="none" stroke="currentColor" stroke-width="1.5"/><path d="M36,25.33 L5.67,25.33 L5.67,26.66 L3,24.66 L5.67,22.66 L5.67,24 L36,24 Z" fill="none" stroke="currentColor" stroke-width="1.5"/></svg>