<svg xmlns="http://www.w3.org/2000/svg" viewBox="0 0 41.67 28.0" width="24" height="24"><path d="M41.67,8 C41.67,12.67 32.34,16.34 20.67,16.34 C9.34,16.34 0,12.67 0,8 C0,20 0,20 0,20 C0,24.34 9.34,28 20.67,28 C32.34,28 41.67,24.34 41.67,20 Z" fill="none" stroke="currentColor" stroke-width="1.5"/><path d="M20.67,16.34 C32.34,16.34 41.67,12.67 41.67,8 C41.67,3.67 32.34,0 20.67,0 C9.34,0 0,3.67 0,8 C0,12.67 9.34,16.34 20.67,16.34 Z" fill="none" stroke="currentColor" stroke-width="1.5"/><path d="M21,6.34 L18,2 L19.34,1.67 L16.67,0.67 L15.67,2.34 L17,2 L19.67,6.67 Z M19.34,7 L9.34,4.34 L10,4 L6.34,4 L8,5.67 L8.67,5 L18.67,7.67 Z M18.67,8 L7.34,9.34 L7,9 L4.67,10.34 L8,10.67 L7.67,10 L19.34,8.67 Z M19.34,9 L13.34,13.34 L12.34,13 L12.34,14.67 L15.67,14 L14.67,13.67 L20.34,9.34 Z M22,6.67 L27,2.34 L26,2.34 L29,1.34 L29.34,3 L28.34,2.67 L23.34,7 Z M21.34,9.34 L24.34,14.34 L23,14.34 L25.67,15.67 L27,14 L25.67,14 L22.67,9.34 Z M23.34,9 L33.34,11.34 L32.67,12 L36.34,12 L34.67,10.34 L34,10.67 L24,8.34 Z M23.67,8.34 L35,6.67 L35.34,7.34 L37.67,6.34 L34.34,5.67 L34.67,6 L23.34,7.67 Z" fill="none" stroke="currentColor" stroke-width="1.5"/><rect x="0" y="0" width="0" height="0" fill="none" stroke="currentColor"/><path d="M21,9.67 C23,9.67 24.67,9 24.67,8 C24.67,7.34 23,6.34 21.34,6.34 C19.34,6.34 17.67,7 17.67,8 C17.67,8.67 19.34,9.34 21,9.67 Z" fill="none" stroke="currentColor" stroke-width="1.5"/></svg>