<svg xmlns="http://www.w3.org/2000/svg" viewBox="0 0 63.67 31.0" width="24" height="24"><path d="M0,15.66 L19.33,0 L63.67,0 L47.67,15.66 L0,15.66 Z M47.67,31 L63.67,14.66 L63.67,0 L47.67,15.66 Z" fill="none" stroke="currentColor" stroke-width="1.5"/><rect x="0" y="0" width="0" height="0" fill="none" stroke="currentColor"/><path d="M43.67,8.33 L45,7 L48.67,8.66 L42,10.66 L43.67,8.66 L31.67,8.66 L32.33,8.33 Z M36.67,4.33 L36.33,4.66 L24,4.66 L22.33,6 L19.33,4.66 L26.33,2.66 L24.67,4.33 Z M30,11 L29.67,11.33 L17.33,11.33 L15.67,12.66 L12.33,11.33 L19.67,9.33 L18,11 Z M50.67,2.66 L51.67,1.33 L55.33,3 L49,5 L50.33,3 L38.33,3 L39,2.66 Z" fill="none" stroke="currentColor" stroke-width="1.5"/><path d="M43.67,8.66 L45,7.33 L48.33,9 L41.67,10.66 L43.33,9 L31.33,9 L32,8.66 Z M36.33,4.66 L35.67,5 L24,5 L22.67,6.33 L19.33,5 L26,3 L24.33,4.66 Z" fill="none" stroke="currentColor" stroke-width="1.5"/><path d="M29.33,11.33 L29,11.66 L17.33,11.66 L16,13 L12.67,11.66 L19.33,9.66 L17.67,11.33 Z M50.67,3 L51.67,2 L55,3.33 L48.33,5 L50,3.33 L38.33,3.33 L38.67,3 Z" fill="none" stroke="currentColor" stroke-width="1.5"/><path d="M47.67,31 L47.67,15.66 L0,15.66 L0,31 Z" fill="none" stroke="currentColor" stroke-width="1.5"/><path d="M17.67,23.33 L9,23.33 L9,22.66 L5.33,23.66 L9,25 L9,24.33 L17.67,24.33 Z M22.67,26 L22.67,29 L20.33,29 L24,30.33 L27.33,29 L25,29 L25,26 Z M22.67,21.66 L22.67,18.66 L20.33,18.66 L24,17.33 L27.33,18.66 L25,18.66 L25,21.66 Z M30,24.33 L39,24.33 L39,25 L42.33,23.66 L39,22.66 L39,23.33 L30,23.33 Z" fill="none" stroke="currentColor" stroke-width="1.5"/><path d="M38.33,29 C36.67,29.66 29,27.66 21,25 C13.33,22.33 8.33,19.66 10,19 C11.67,18.33 19.33,20 27,22.66 C35,25.66 40,28.33 38.33,29 Z" fill="none" stroke="currentColor" stroke-width="1.5"/><path d="M37.67,19 C39.67,19.33 34.67,22.33 27,25 C19.33,27.66 11.33,29.33 9.67,29 C8,28.33 12.67,25.66 20.67,22.66 C28.33,20 36,18.33 37.67,19 Z" fill="none" stroke="currentColor" stroke-width="1.5"/><path d="M27.67,25.66 C30.33,25 31.33,23.33 29,22.33 C27,21.33 23,21 20,22 C17,22.66 16.33,24 18.33,25 C20.67,26 24.67,26.33 27.67,25.66 Z" fill="none" stroke="currentColor" stroke-width="1.5"/></svg>