<svg xmlns="http://www.w3.org/2000/svg" viewBox="0 0 63.67 31.67" width="24" height="24"><path d="M47.67,31.67 L47.67,15.67 L0,15.67 L0,31.67 Z M0,15.67 L19,0 L63.67,0 L47.67,15.67 Z M47.67,31.67 L63.67,14.33 L63.67,0 L47.67,15.67 Z" fill="none" stroke="currentColor" stroke-width="1.5"/><path d="M13.67,13.67 L28.67,1.67 M25.67,13.67 L40.33,1.67 M37.33,13.67 L52.33,1.67 M19.67,4 L55,4" fill="none" stroke="currentColor" stroke-width="1.5"/><rect x="0" y="0" width="0" height="0" fill="none" stroke="currentColor"/><path d="M18,23 L9.33,23 L9.33,22 L6,23.33 L9.33,24.67 L9.33,23.67 L18,23.67 Z M23.33,25.67 L23.33,28.67 L21,28.67 L24.33,30 L27.67,28.67 L25.33,28.67 L25.33,25.67 Z M23.33,21.33 L23.33,18 L21,18 L24.33,17 L27.67,18 L25.33,18 L25.33,21.33 Z M30.33,23.67 L39.33,23.67 L39.33,24.67 L42.67,23.33 L39.33,22 L39.33,23 L30.33,23 Z" fill="none" stroke="currentColor" stroke-width="1.5"/><path d="M38.67,28.33 C37,29 29.33,27.33 21.33,24.67 C13.67,22 8.67,19 10.33,18.33 C12,18 19.67,19.67 27.67,22.33 C35.33,25 40.33,27.67 38.67,28.33 Z M38.33,18.33 C40,19 35,21.67 27.33,24.67 C19.67,27.33 12,29 10,28.33 C8.33,28 13.33,25 21,22.33 C28.67,19.67 36.33,18 38.33,18.33 Z" fill="none" stroke="currentColor" stroke-width="1.5"/><path d="M28,25.33 C31,24.33 31.67,23 29.67,22 C27.33,21 23.33,20.67 20.33,21.33 C17.67,22 16.67,23.67 19,24.67 C21,25.67 25,26 28,25.33 Z" fill="none" stroke="currentColor" stroke-width="1.5"/><path d="M28.67,4 C28.33,5 23.33,5 23.33,4 C23.33,3 28.33,2.67 28.67,4 M40.33,4 C40,5 35.33,5 35.33,4 C35.33,3 40.33,2.67 40.33,4 M52.33,4 C52,5 47,5 47,4 C47,3 52,2.67 52.33,4" fill="none" stroke="currentColor" stroke-width="1.5"/><path d="M15.33,7.67 L50.33,7.67" fill="none" stroke="currentColor" stroke-width="1.5"/><path d="M24,7.67 C23.67,8.67 19,9 19,7.67 C19,6.67 24,6.67 24,7.67 M36,7.67 C35.67,8.67 30.67,9 30.67,7.67 C30.67,6.67 35.67,6.67 36,7.67 M47.67,7.67 C47.33,8.67 42.67,9 42.67,7.67 C42.67,6.67 47.67,6.67 47.67,7.67" fill="none" stroke="currentColor" stroke-width="1.5"/><path d="M10.67,11.67 L46,11.67" fill="none" stroke="currentColor" stroke-width="1.5"/><path d="M19,11.67 C18.67,12.67 13.67,13 13.67,11.67 C13.67,10.67 18.67,10.67 19,11.67 M30.67,11.67 C30.33,12.67 25.67,13 25.67,11.67 C25.67,10.67 30.67,10.67 30.67,11.67" fill="none" stroke="currentColor" stroke-width="1.5"/><path d="M42.67,11.67 C42.33,12.67 37.33,13 37.33,11.67 C37.33,10.67 42.33,10.67 42.67,11.67" fill="none" stroke="currentColor" stroke-width="1.5"/></svg>