<svg xmlns="http://www.w3.org/2000/svg" viewBox="0 0 46.0 38.67" width="24" height="24"><path d="M34,30.33 C34,25 29,21.33 22.33,21.33 C16.66,21.33 11.66,25 11.66,30.33 C11.66,34.67 16.66,38.67 22.33,38.67 C29,38.67 34,34.67 34,30.33 Z" fill="none" stroke="currentColor" stroke-width="1.5"/><path d="M30,30 L34.66,30 L37.66,30.67 L42.33,30.67 L43.66,30 L44.33,28.67 L45,27.33 L44.33,25.33 L40.33,21.67 L37.66,18.33 L34.66,15.33 L32.66,12.67 L30.66,9.33 L29,7 L27,3.67 L26.33,1 L23.66,0 L21.66,0 L19.33,1 L18.66,3 L17.33,5.67 L15.33,8.33 L14,10.67 L10.33,16 L7.66,19 L1.33,25.33 L0.66,26.67 L0.66,27.33 L2,30 L3.33,30 L4.66,30.67 L7,30.67 L9.66,30 L19.33,30 L30,30 Z" fill="none" stroke="currentColor" stroke-width="1.5"/><path d="M34.66,19 C34.66,14 29,10 22.33,10 C16,10 11,14 11,19 C11,24.33 16,28 22.33,28 C29,28 34.66,24.33 34.66,19 Z" fill="none" stroke="currentColor" stroke-width="1.5"/><path d="M23.66,4.33 L24.33,4.33 L24.33,0 L23.66,0 Z M22.33,4.33 L23,4.33 L23,0 L22.33,0 Z M21,4.33 L21.66,4.33 L21.66,0 L21,0 Z M1.33,30 L1.66,30.67 L5.33,28 L5,27.67 Z M0.66,29 L1,29.67 L4.66,27 L4.33,26.67 Z M0,28 L0.33,28.67 L4,26 L3.66,25.33 Z M44.33,30 L44,30.67 L40.33,28 L40.66,27.67 Z M45.33,29 L44.66,29.67 L41.33,27 L41.66,26.67 Z M46,28 L45.66,28.67 L42,26 L42.33,25.33 Z" fill="none" stroke="currentColor" stroke-width="1.5"/><rect x="19" y="30.67" width="2" height="1" fill="none" stroke="currentColor"/><rect x="21.5" y="30.67" width="2" height="1" fill="none" stroke="currentColor"/><rect x="24" y="30.67" width="2" height="1" fill="none" stroke="currentColor"/><rect x="19" y="32.67" width="2" height="1" fill="none" stroke="currentColor"/><rect x="21.5" y="32.67" width="2" height="1" fill="none" stroke="currentColor"/><rect x="24" y="32.67" width="2" height="1" fill="none" stroke="currentColor"/><rect x="19" y="34.33" width="2" height="1" fill="none" stroke="currentColor"/><rect x="21.5" y="34.33" width="2" height="1" fill="none" stroke="currentColor"/><rect x="24" y="34.33" width="2" height="1" fill="none" stroke="currentColor"/></svg>