<svg xmlns="http://www.w3.org/2000/svg" viewBox="0 0 49.0 45.66" width="24" height="24"><path d="M49,0 L41,7.66 L0,7.66 L10,0 Z M41,45.66 L41,7.66 L0,7.66 L0,45.66 Z M49,38 L49,0 L41,7.66 L41,45.66 Z" fill="none" stroke="currentColor" stroke-width="1.5"/><path d="M17,25 L4,29.33" fill="none" stroke="currentColor" stroke-width="1.5"/><rect x="0" y="0" width="0" height="0" fill="none" stroke="currentColor"/><path d="M38.67,10.66 L2,10.66 L2,42.66 L38.67,42.66 Z M23,21.66 L38.67,16 L38.67,19.33 L23,21.66 Z M23,21.66 L38.67,23 L38.67,26.66 L23,21.66" fill="none" stroke="currentColor" stroke-width="1.5"/><path d="M33.34,39.66 L8.34,39.66 L21,15 L21,15 L33.34,39.66 Z" fill="none" stroke="currentColor" stroke-width="1.5"/><rect x="0" y="0" width="0" height="0" fill="none" stroke="currentColor"/><path d="M19.34,29.33 L16.67,27 L17.34,26.66 L15.67,26.33 L16,27.66 L16.34,27.33 L19,29.66 Z M18.34,31 L15,31 L15,30.33 L13.67,31.33 L15,32 L15,31.66 L18.34,31.66 Z M19,32.66 L16.34,35.33 L16,34.66 L15.67,36.33 L17.34,36 L16.67,35.66 L19.34,33 Z M20.34,33.66 L20.34,37 L20,37 L20.67,38.33 L21.67,37 L21,37 L21,33.66 Z M20.34,29 L20.34,25.66 L20,25.66 L20.67,24.33 L21.67,25.66 L21,25.66 L21,29 Z M22.34,33 L24.67,35.66 L24.34,36 L25.67,36.33 L25.34,34.66 L25,35.33 L22.67,32.66 Z" fill="none" stroke="currentColor" stroke-width="1.5"/><path d="M23,31.66 L26.67,31.66 L26.67,32 L28,31.33 L26.67,30.33 L26.67,31 L23,31 Z" fill="none" stroke="currentColor" stroke-width="1.5"/><path d="M22.67,29.66 L25,27.33 L25.34,27.66 L25.67,26.33 L24.34,26.66 L24.67,27 L22.34,29.33 Z" fill="none" stroke="currentColor" stroke-width="1.5"/><path d="M23,34.33 C24.34,33 25,30.66 23.67,29.33 C22.67,27.66 20.34,27 18.67,28.33 C17,29.33 16.67,31.66 17.67,33.33 C19,35 21.34,35.33 23,34.33 Z" fill="none" stroke="currentColor" stroke-width="1.5"/></svg>