<svg xmlns="http://www.w3.org/2000/svg" viewBox="0 0 40.0 54.0" width="24" height="24"><path d="M19,51 L19,36.34 L15.67,39.67 L15.67,54 Z" fill="none" stroke="currentColor" stroke-width="1.5"/><path d="M15.67,54 L15.67,39.67 L0,39.67 L0,54 Z M33,54 L33,39.67 L17,39.67 L17,54 Z M40,32.67 L40,0 L33,6.34 L33,39.34 Z M40,47.67 L40,33 L33,39.67 L33,54 Z M40,0 L33,6.34 L0,6.34 L8.33,0 Z M33,39.34 L33,6.34 L0,6.34 L0,39.34 Z" fill="none" stroke="currentColor" stroke-width="1.5"/><path d="M13.33,19 L8.33,14 L9.33,13 L6,12.34 L6.67,15.67 L7.67,14.67 L12.67,19.67 Z M11.67,22.34 L4.67,22.34 L4.67,21 L1.67,22.67 L4.67,24.67 L4.67,23.34 L11.67,23.34 Z M12.67,26 L7.67,31 L6.67,30 L6,33.34 L9.33,32.67 L8.33,31.67 L13.33,26.67 Z M16,27.67 L16,35 L14.67,35 L16.67,37.67 L18.33,35 L17,35 L17,27.67 Z M16,18 L16,11 L14.67,11 L16.67,8.34 L18.33,11 L17,11 L17,18 Z M19.67,26.67 L24.67,31.67 L23.67,32.67 L27,33.34 L26.33,30 L25.33,31 L20.33,26 Z M21.33,23.34 L28.67,23.34 L28.67,24.67 L31.33,22.67 L28.67,21 L28.67,22.34 L21.33,22.34 Z M20.33,19.67 L25.33,14.67 L26.33,15.67 L27,12.34 L23.67,13 L24.67,14 L19.67,19 Z M3,43.34 L4,43.34 L2.33,41 L1,43.34 L2,43.34 L2,50.67 L1,50.67 L2.33,53 L4,50.67 L3,50.67 Z M6.67,43.34 L7.67,43.34 L6,41 L4.67,43.34 L5.67,43.34 L5.67,50.67 L4.67,50.67 L6,53 L7.67,50.67 L6.67,50.67 Z M10,43.34 L11.33,43.34 L9.67,41 L8,43.34 L9.33,43.34 L9.33,50.67 L8,50.67 L9.67,53 L11,50.67 L10,50.67 Z M13.67,43.34 L14.67,43.34 L13.33,41 L11.67,43.34 L12.67,43.34 L12.67,50.67 L11.67,50.67 L13.33,53 L14.67,50.67 L13.67,50.67 Z M20,43.34 L21,43.34 L19.67,41 L18,43.34 L19,43.34 L19,50.67 L18,50.67 L19.67,53 L21,50.67 L20,50.67 Z M23.67,43.34 L24.67,43.34 L23.33,41 L21.67,43.34 L22.67,43.34 L22.67,50.67 L21.67,50.67 L23.33,53 L24.67,50.67 L23.67,50.67 Z M27.33,43.34 L28.33,43.34 L27,41 L25.33,43.34 L26.33,43.34 L26.33,50.67 L25.33,50.67 L27,53 L28.33,50.67 L27.33,50.67 Z M31,43.34 L32,43.34 L30.67,41 L29,43.34 L30,43.34 L30,50.67 L29,50.67 L30.67,53 L32,50.67 L31,50.67 Z" fill="none" stroke="currentColor" stroke-width="1.5"/></svg>