<svg xmlns="http://www.w3.org/2000/svg" viewBox="0 0 49.34 44.0" width="24" height="24"><path d="M42,37.33 L42,29.66 L0,29.66 L0,37.33 Z" fill="none" stroke="currentColor" stroke-width="1.5"/><path d="M29.34,33.66 L40,33.66" fill="none" stroke="currentColor" stroke-width="1.5"/><path d="M49.34,23 L7.34,23 L0,29.66 L42,29.66 Z" fill="none" stroke="currentColor" stroke-width="1.5"/><path d="M49.34,30 L49.34,23 L42,29.66 L42,37.33 Z M34.67,44 L34.67,42 L38.34,36.66 L38.34,40 Z M34.67,42 L34.67,44 L1,44 L1,42 Z M34.67,42 L1,42 L5,36.66 L38.34,36.66 Z M36.67,25.66 L36.67,4.33 L7.67,4.33 L7.67,25.66 Z" fill="none" stroke="currentColor" stroke-width="1.5"/><path d="M10,9 C10,7 12.34,6.66 12.34,6.66 C12.34,6.66 29.34,6.66 31.34,6.66 C34,6.66 34,9.33 34,9.33 C34,9.33 34,19.66 34,21 C34,22.66 32,23.33 32,23.33 C32,23.33 14.67,23.33 12.67,23.33 C10.67,23.33 10,21.33 10,21.33 Z" fill="none" stroke="currentColor" stroke-width="1.5"/><path d="M41.34,0 L12.67,0 L7.67,4.33 L36.67,4.33 Z" fill="none" stroke="currentColor" stroke-width="1.5"/><path d="M41.34,21 L41.34,0 L36.67,4.33 L36.67,25.66 Z" fill="none" stroke="currentColor" stroke-width="1.5"/><rect x="0" y="0" width="0" height="0" fill="none" stroke="currentColor"/><path d="M21.67,15.33 L21.67,19.33 L19.67,19.33 L22.34,22.33 L25,19.33 L23,19.33 L23,15.33 Z M21.67,14.33 L21.67,10.33 L19.67,10.33 L22.34,7.33 L25,10.33 L23,10.33 L23,14.33 Z M31.34,16.33 L27.34,16.33 L27.34,18.33 L24.34,15.33 L27.34,12.66 L27.34,14.66 L31.34,14.66 Z M13,16.33 L17,16.33 L17,18.33 L20,15.33 L17,12.66 L17,14.66 L13,14.66 Z" fill="none" stroke="currentColor" stroke-width="1.5"/><path d="M21,15.33 L21,19.33 L19,19.33 L21.67,22.33 L24.67,19.33 L22.67,19.33 L22.67,15.33 Z M21,14.33 L21,10.66 L19,10.66 L21.67,7.33 L24.67,10.66 L22.67,10.66 L22.67,14.33 Z M30.67,15.66 L27,15.66 L27,17.66 L23.67,15 L27,12 L27,14.33 L30.67,14.33 Z M13,15.66 L17,15.66 L17,17.66 L20,15 L17,12 L17,14.33 L13,14.33 Z" fill="none" stroke="currentColor" stroke-width="1.5"/></svg>