<svg xmlns="http://www.w3.org/2000/svg" viewBox="0 0 57.34 54.33" width="24" height="24"><rect x="0" y="0" width="0" height="0" fill="none" stroke="currentColor"/><path d="M50.34,48 L50.34,40 L8.34,40 L8.34,48 Z" fill="none" stroke="currentColor" stroke-width="1.5"/><path d="M37.34,44 L48,44" fill="none" stroke="currentColor" stroke-width="1.5"/><path d="M57.34,40.33 L57.34,33.33 L50.34,40 L50.34,48 Z M43,54.33 L43,52.67 L46.67,47.33 L46.67,50.33 Z M43,52.67 L43,54.33 L9.34,54.33 L9.34,52.67 Z M43,52.67 L9.34,52.67 L13,47.33 L46.67,47.33 Z M57.34,33.33 L15.34,33.33 L8.34,40 L50.34,40 Z M49.34,33.33 L21.34,33.33 L16.67,37.67 L44.67,37.67 Z" fill="none" stroke="currentColor" stroke-width="1.5"/><path d="M44.67,36 L44.67,15 L16,15 L16,36 Z" fill="none" stroke="currentColor" stroke-width="1.5"/><path d="M18.34,19.67 C18.34,17.33 20.34,17 20.34,17 C20.34,17 37.67,17 39.67,17 C42.34,17 42.34,19.67 42.34,19.67 C42.34,19.67 42.34,30 42.34,31.67 C42.34,33 40,33.67 40,33.67 C40,33.67 37,33.67 33,33.67 C28,33.67 22,33.67 20.67,33.67 C19,33.67 18.34,31.67 18.34,31.67 Z" fill="none" stroke="currentColor" stroke-width="1.5"/><path d="M49.67,10.33 L20.67,10.33 L16,15 L44.67,15 Z" fill="none" stroke="currentColor" stroke-width="1.5"/><path d="M49.67,31.67 L49.67,10.33 L44.67,14.67 L44.67,36 Z" fill="none" stroke="currentColor" stroke-width="1.5"/><path d="M26.67,25.67 L26.67,0 L26,0.67 L26,26.33 Z M1,26.33 L26,26.33 L26,0.33 L0,0.33 L0,25.33 Z" fill="none" stroke="currentColor" stroke-width="1.5"/><path d="M24,0.33 C24,15.33 24,15.33 24,15.33 C24,16.67 23,16.33 23,16.33 C2.67,16.33 2.67,16.33 2.67,16.33 C2.67,16.33 2,16.33 2,15.67 C2,0.33 2,0.33 2,0.33" fill="none" stroke="currentColor" stroke-width="1.5"/><path d="M24,0.33 C24,15.33 24,15.33 24,15.33 C24,16.67 23,16.33 23,16.33 C2.67,16.33 2.67,16.33 2.67,16.33 C2.67,16.33 2,16.33 2,15.67 C2,0.33 2,0.33 2,0.33" fill="none" stroke="currentColor" stroke-width="1.5"/><rect x="0.34" y="2" width="1" height="1" fill="none" stroke="currentColor"/><rect x="24.34" y="2" width="1" height="1" fill="none" stroke="currentColor"/><path d="M19.67,19 C19.67,26 19.67,26 19.67,26 C4.34,26 4.34,26 4.34,26 C4.34,18.67 4.34,18.67 4.34,18.67 C4.34,18 5,18 5,18 C19,18 19,18 19,18 C19.67,18 19.67,19 19.67,19 Z" fill="none" stroke="currentColor" stroke-width="1.5"/><path d="M24,26.33 C24,19 24,19 24,19 C24,19 24,18 23,18 C5,18 5,18 5,18 C5,18 4.34,18 4.34,18.67 C4.34,26 4.34,26 4.34,26" fill="none" stroke="currentColor" stroke-width="1.5"/><path d="M10.34,25.67 L10.34,18.67 L7.34,18.67 L7.34,25.67 L10.34,25.67 Z" fill="none" stroke="currentColor" stroke-width="1.5"/></svg>