<svg xmlns="http://www.w3.org/2000/svg" viewBox="0 0 38.34 33.34" width="24" height="24"><path d="M0,33.34 C3.34,13 3.34,13 3.34,13 C3.34,21.67 10.67,28.67 19.34,28.67 C28,28.67 35.34,21.67 35.34,13 C38.34,33.34 38.34,33.34 38.34,33.34 Z M19.34,26.34 C26.34,26.34 32.34,20.67 32.34,13.34 C32.34,6 26.34,0 19.34,0 C12,0 6,6 6,13.34 C6,20.67 12,26.34 19.34,26.34 Z" fill="none" stroke="currentColor" stroke-width="1.5"/><rect x="0" y="0" width="0" height="0" fill="none" stroke="currentColor"/><path d="M28,16.67 L28,10.67 L10,10.67 L10,16.67 Z" fill="none" stroke="currentColor" stroke-width="1.5"/></svg>