<svg xmlns="http://www.w3.org/2000/svg" viewBox="0 0 40.33 29.66" width="24" height="24"><path d="M0,29.66 L0,23 L28.33,23 L28.33,29.66 Z M28.33,23 L0,23 L13.33,3.66 L40.33,3.66 Z M40.33,3.66 L40.33,16 L28.33,29.66 L28.33,23 Z" fill="none" stroke="currentColor" stroke-width="1.5"/><path d="M22.33,7.33 C20.66,9.33 18.33,11.66 17,13.66 C17.33,15.33 17.33,15.33 17.33,15.33 C13,21.66 13,21.66 13,21.66 C12.66,17.66 12.66,17.66 12.66,17.66 C13.33,14.33 23.33,1.66 25.66,0 C26,4.33 26,4.33 26,4.33 C22.33,8.66 22.33,8.66 22.33,8.66 Z" fill="none" stroke="currentColor" stroke-width="1.5"/><path d="M7.33,17.66 L7,21.66 L13,21.66 L12.66,17.66 Z" fill="none" stroke="currentColor" stroke-width="1.5"/><path d="M25.66,0 C23.33,1.66 13.33,14.33 12.66,17.66 C7.33,17.66 7.33,17.66 7.33,17.66 C8.33,14.33 18.33,1.66 20.66,0 Z" fill="none" stroke="currentColor" stroke-width="1.5"/><rect x="0" y="0" width="0" height="0" fill="none" stroke="currentColor"/><path d="M17,21 L23,12.33 L31.66,12.33 L26.66,21 Z" fill="none" stroke="currentColor" stroke-width="1.5"/><path d="M23.33,21 L28.66,12.33 M20,21 L26,12.33 M28,18.66 L18.67,18.66 M29,16.66 L20,16.66 M30.33,14.66 L21.33,14.66" fill="none" stroke="currentColor" stroke-width="1.5"/></svg>