<svg xmlns="http://www.w3.org/2000/svg" viewBox="0 0 76.0 48.0" width="24" height="24"><rect x="0" y="0" width="0" height="0" fill="none" stroke="currentColor"/><path d="M69.67,30.67 L74.34,6.33 L39,6.33 L33.67,30.67 Z M74.34,6.33 L76,8 L71.67,32 L69.67,30.67 Z M33.67,30.67 L35.34,32 L71.67,32 L69.67,30.67 Z" fill="none" stroke="currentColor" stroke-width="1.5"/><path d="M70,32.33 C70,36 70,36 70,36 C69.34,37 69.34,37 69.34,37 C69.34,37 67,37.67 67.34,39 C57.67,48 57.67,48 57.67,48 C57.67,44 57.67,44 57.67,44 Z" fill="none" stroke="currentColor" stroke-width="1.5"/><path d="M18.67,44 L18.67,48 L57.67,48 L57.67,44 Z" fill="none" stroke="currentColor" stroke-width="1.5"/><path d="M34,32.67 L70,32.33 L57.67,44 L18.67,44 Z M66.67,28.33 L70.67,9.33 L41.67,9.33 L38,28.33 Z" fill="none" stroke="currentColor" stroke-width="1.5"/><path d="M35,33 L26,40.33 M38,33 L28.67,40.33 M40.67,33 L31.67,40.33 M43.67,33 L34.67,40.33 M46.67,33 L37.67,40.33 M49.67,33 L40.34,40.33 M52.34,33 L43.34,40.33 M55.34,33 L46.34,40.33 M58.34,33 L49.34,40.33 M61.34,33 L52,40.33 M64,33 L55,40.33 M67,33 L58,40.33 M27,39.67 L59.34,39.67 M29,38 L61,38 M31.34,36.33 L63,36.33 M33.34,34.67 L65.34,34.67" fill="none" stroke="currentColor" stroke-width="1.5"/><path d="M56.34,14 C58.67,16 61.34,19.33 61.67,21.33 C61.67,23 60.67,23.67 60,24.33 C59,25 57.34,25 57.34,25 C55.34,22.67 55.34,22.67 55.34,22.67 C55.34,22.67 59.34,22.33 58.67,20 C58,18 54,12 56.34,14" fill="none" stroke="currentColor" stroke-width="1.5"/><path d="M57,20 L58.67,27 L54.34,24.67 L57,20 Z" fill="none" stroke="currentColor" stroke-width="1.5"/><path d="M52,25 C49.34,23 46.67,19.67 46.67,17.67 C46.34,16 47.34,15.33 48.34,14.67 C49,14 50.67,14 50.67,14 C52.67,16.33 52.67,16.33 52.67,16.33 C52.67,16.33 49,16.67 49.34,19 C50,21 54.34,27 52,25" fill="none" stroke="currentColor" stroke-width="1.5"/><path d="M51.34,19 L49.34,12 L54,14.67" fill="none" stroke="currentColor" stroke-width="1.5"/><path d="M55.34,5.67 C57,5.67 58.34,4.33 58.34,3 C58.34,1.33 57,0 55.34,0 C54,0 52.67,1.33 52.67,3 C52.67,4.33 54,5.67 55.34,5.67 Z" fill="none" stroke="currentColor" stroke-width="1.5"/><path d="M51.34,7.33 C52,2.67 52,2.67 52,2.67 C52,4.67 53.67,6.33 55.67,6.33 C57.34,6.33 59,4.67 59,2.67 C59.67,7.33 59.67,7.33 59.67,7.33 Z" fill="none" stroke="currentColor" stroke-width="1.5"/><path d="M57.34,3.67 L57.34,2.33 L53.67,2.33 L53.67,3.67 Z" fill="none" stroke="currentColor" stroke-width="1.5"/><path d="M3.34,39 C3.67,39.67 3.34,40.67 2.34,41 C1.67,41.33 0.67,41 0.34,40.33 C0,39.33 0.34,38.67 1.34,38.33 C2,38 3,38.33 3.34,39 Z" fill="none" stroke="currentColor" stroke-width="1.5"/><path d="M31,29.67 C31.67,31 31,32.67 29.67,33.33 C28.34,33.67 27,33 26.34,32 C25.67,30.67 26.34,29 27.67,28.33 C29,28 30.34,28.67 31,29.67 Z" fill="none" stroke="currentColor" stroke-width="1.5"/><path d="M10.34,30.33 C10.67,31 10.34,32 9.67,32.33 C8.67,32.67 8,32.33 7.67,31.33 C7.34,30.67 7.67,30 8.34,29.67 C9,29.33 10,29.67 10.34,30.33 Z" fill="none" stroke="currentColor" stroke-width="1.5"/><path d="M28,30.67 C24.67,34 17,37.67 10.34,39.33 C6,40.67 3,40.67 1.67,39.67" fill="none" stroke="currentColor" stroke-width="1.5"/><path d="M9,31 C9,28.33 9.67,25.33 11,22.33 C14.67,15 22,10.67 27.34,12.33 C32.34,14.33 33.67,21.67 30,28.67 C29.34,29.67 29,30.33 28.67,30.67" fill="none" stroke="currentColor" stroke-width="1.5"/></svg>