<svg xmlns="http://www.w3.org/2000/svg" viewBox="0 0 30.67 47.33" width="24" height="24"><path d="M0,47.33 L0,5 L24.67,5 L24.67,47.33 Z M7.33,0 L0,5 L24.67,5 L30.67,0 Z M30.67,39.67 L30.67,0 L24.67,5 L24.67,47.33 Z" fill="none" stroke="currentColor" stroke-width="1.5"/><path d="M18.67,14.67 L18.67,29.33 L17.67,29.33 L17.67,14.67 L15.67,14.67 L18,11.67 L20.33,14.67 Z M6.33,26.33 L6.33,11.67 L5.33,11.67 L5.33,26.33 L3.67,26.33 L6,29.33 L8,26.33 Z" fill="none" stroke="currentColor" stroke-width="1.5"/><path d="M17,38.33 C15.33,38.33 15.33,38.33 15.33,38.33 C17.67,35.33 17.67,35.33 17.67,35.33 C20,38.33 20,38.33 20,38.33 C18.33,38.33 18.33,38.33 18.33,38.33 C17.67,41 14.67,43 12,43 C9,43 5.67,40.33 5.67,36.67 C6.67,36.67 6.67,36.67 6.67,36.67 C6.67,39.67 9.33,41.67 12,41.67 C14,41.67 16.33,40.33 17,38.33 Z" fill="none" stroke="currentColor" stroke-width="1.5"/></svg>