<svg xmlns="http://www.w3.org/2000/svg" viewBox="0 0 46.0 35.33" width="24" height="24"><path d="M39.33,6 L46,0 L46,0 L6.67,0 L0,6 Z M39.67,35.33 L39.67,6 L0,6 L0,35.33 Z M46,29.33 L46,0 L39.67,6 L39.67,35.33 Z" fill="none" stroke="currentColor" stroke-width="1.5"/><path d="M14.33,35.33 L14.33,6 M25.67,35.33 L25.67,6" fill="none" stroke="currentColor" stroke-width="1.5"/><path d="M21.67,9.33 L15,9.33 M21.67,15 L15,15 M21.67,20.33 L15,20.33 M21.67,26 L15,26 M22,32.33 L15,32.33" fill="none" stroke="currentColor" stroke-width="1.5"/><path d="M24.33,9.33 L20.67,11 L21.67,9.33 L20.67,7.66 Z M24.33,15 L20.67,16.33 L21.67,15 L20.67,13.33 Z M24.33,20.33 L20.67,22 L21.67,20.33 L20.67,19 Z M24.33,26 L20.67,27.66 L21.67,26 L20.67,24.33 Z M24.33,32.33 L20.67,33.66 L21.67,32.33 L20.67,30.66 Z M0.67,14.33 L9.33,14.33 L9,15.33 L13,12.33 L9,9.66 L9.33,10.66 L0.67,10.66 Z M0.67,22.33 L9.33,22.33 L9,23.33 L13,20.66 L9,17.66 L9.33,18.66 L0.67,18.66 Z M26.33,19 L35,19 L35,20.33 L39,16.66 L35,13.33 L35,14.66 L26.33,14.66 Z M26.33,29.66 L35,29.66 L35,31 L39,27.33 L35,23.66 L35,25 L26.33,25 Z M0.67,30.33 L9.33,30.33 L9,31.33 L13,28.66 L9,26 L9.33,27 L0.67,27 Z" fill="none" stroke="currentColor" stroke-width="1.5"/></svg>