<svg xmlns="http://www.w3.org/2000/svg" viewBox="0 0 40.0 54.66" width="24" height="24"><path d="M0,54.66 L0,19 L35.67,19 L35.67,54.66 Z M40,50.33 L40,14.33 L35.67,19 L35.67,54.66 Z M6.33,0 L0,4.33 L35.67,4.33 L40,0 Z M0,19 L0,4.33 L35.67,4.33 L35.67,19 Z M40,14.33 L40,0 L35.67,4.33 L35.67,19 Z" fill="none" stroke="currentColor" stroke-width="1.5"/><rect x="0" y="0" width="0" height="0" fill="none" stroke="currentColor"/><path d="M11.33,9.33 L11.33,6.33 L5.67,6.33 L5.67,9.33 Z M24.67,9.33 L24.67,6.33 L30.33,6.33 L30.33,9.33 Z M11.33,17 L11.33,14 L5.67,14 L5.67,17 Z M24.67,17 L24.67,14 L30.33,14 L30.33,17 Z" fill="none" stroke="currentColor" stroke-width="1.5"/><path d="M9.67,8 L27.33,8 M9.67,15.33 L27.33,15.33 M8.67,15.33 L27.33,8 M8.67,8 L27.33,15.33" fill="none" stroke="currentColor" stroke-width="1.5"/><path d="M18.67,31.66 L18.67,24 L19.67,24 L18,21 L16,24 L17.33,24 L17.33,31.66 Z M14.67,32.66 L9,27.33 L10,26.33 L6.67,25.66 L7.33,29 L8.33,28 L13.67,33.66 Z M12.67,36.33 L5,36.33 L5,35 L2,37 L5,39 L5,37.66 L12.67,37.66 Z M13.67,40.33 L8.33,45.66 L7.33,44.66 L6.67,48.33 L10,47.66 L9,46.66 L14.67,41 Z M17.33,42.33 L17.33,50 L16,50 L18,53 L19.67,50 L18.67,50 L18.67,42.33 Z M21.33,41 L26.67,46.66 L25.67,47.66 L29.33,48.33 L28.33,44.66 L27.67,45.66 L22,40.33 Z M23.33,37.66 L31,37.66 L31,39 L34,37 L31,35 L31,36.33 L23.33,36.33 Z M22,33.66 L27.67,28 L28.33,29 L29.33,25.66 L25.67,26.33 L26.67,27.33 L21.33,32.66 Z" fill="none" stroke="currentColor" stroke-width="1.5"/><path d="M22.67,43.33 C26.33,41 27,36 24.67,32.33 C22,28.66 17,27.66 13.33,30.33 C9.67,33 9,37.66 11.33,41.33 C14,45 19,46 22.67,43.33 Z" fill="none" stroke="currentColor" stroke-width="1.5"/></svg>