<svg xmlns="http://www.w3.org/2000/svg" viewBox="0 0 49.66 32.33" width="24" height="24"><path d="M0,32.33 L44.33,32.33 L44.33,6.33 L0,6.33 Z M49.66,24.66 L44.33,32.33 L44.33,6.33 L49.66,0 Z M8,0 L49.66,0 L44.33,6.33 L0,6.33 Z" fill="none" stroke="currentColor" stroke-width="1.5"/><rect x="0" y="0" width="0" height="0" fill="none" stroke="currentColor"/><path d="M22,24.66 C22,24.66 27.66,24.33 27.66,24.33 C27.66,24.33 20.66,21.66 19.33,21 C19.33,21 25.66,21 25.66,21 C6.33,15.66 6.33,15.66 6.33,15.66 C19,20.33 19,20.33 19,20.33 C19,20.33 14.33,20.66 14.33,20.66 C14.33,20.66 19.33,23 20.33,23.33 C20.33,23.33 16.33,24.66 16.33,24.66 C39,31 39,31 39,31 Z" fill="none" stroke="currentColor" stroke-width="1.5"/></svg>