<svg xmlns="http://www.w3.org/2000/svg" viewBox="0 0 62.33 46.34" width="24" height="24"><path d="M31.33,23.34 C48.33,23.34 62.33,20.67 62.33,17.34 C62.33,14.34 48.33,11.67 31.33,11.67 C14,11.67 0,14.34 0,17.34 C0,20.67 14,23.34 31.33,23.34 Z" fill="none" stroke="currentColor" stroke-width="1.5"/><path d="M31.33,33.67 C48.67,33.67 62.33,20.67 62.33,17.34 C62.33,14.34 48.33,11.67 31.33,11.67 C14,11.67 0,14.34 0,17.34 C0,20.67 14.33,33.67 31.33,33.67 Z" fill="none" stroke="currentColor" stroke-width="1.5"/><path d="M31.33,23.34 C48.33,23.34 62.33,20.67 62.33,17.34 C62.33,14.34 48.33,11.67 31.33,11.67 C14,11.67 0,14.34 0,17.34 C0,20.67 14,23.34 31.33,23.34 Z" fill="none" stroke="currentColor" stroke-width="1.5"/><path d="M23,13 C18.33,13.34 14,14 10.33,14.67 M23.33,14.34 C18.67,14.67 14.67,15.34 11.33,16 M23.67,15.67 C19,16 15,16.67 12.33,17.67 M24.33,17.34 C20,17.67 16,18.34 13.33,19.34 M24.67,18.67 C20.33,19 17,20 14.33,21 M25.33,20.34 C22,20.67 19,21.34 17,22.34 M25.67,22 C24.33,22 23,22.34 21.67,22.67 M0,18 L31.67,2.34 L62.33,17.34" fill="none" stroke="currentColor" stroke-width="1.5"/><path d="M31.67,6.34 C32.67,6.34 33.67,6 33.67,5.34 C33.67,4.67 32.67,4.34 31.67,4.34 C30.33,4.34 29.33,4.67 29.33,5.34 C29.33,6 30.33,6.34 31.67,6.34 Z" fill="none" stroke="currentColor" stroke-width="1.5"/><path d="M31.67,0 L31,22 L32.33,22 Z M39.67,37.34 L39.67,34 L24.67,34 L24.67,37.34 Z" fill="none" stroke="currentColor" stroke-width="1.5"/><path d="M27.67,37 C37,37 37,37 37,37 C37,43.34 37,43.34 37,43.34 C37,43.34 27.33,46.34 27.67,46.34 C27.67,46.34 27.67,37 27.67,37 Z" fill="none" stroke="currentColor" stroke-width="1.5"/></svg>