<svg xmlns="http://www.w3.org/2000/svg" viewBox="0 0 84.67 28.33" width="24" height="24"><rect x="0" y="0" width="0" height="0" fill="none" stroke="currentColor"/><path d="M84.67,2.33 L84.67,4 L66.67,10.67 L58.67,9.33 L53.67,8.33 L50.34,7.67 L50.34,5.33 Z" fill="none" stroke="currentColor" stroke-width="1.5"/><path d="M42.67,28.33 C45,28.33 47,27.67 47,26.67 C47,25.67 45,24.67 42.67,24.67 C40.34,24.67 38.67,25.67 38.67,26.67 C38.67,27.67 40.34,28.33 42.67,28.33 Z" fill="none" stroke="currentColor" stroke-width="1.5"/><path d="M55.67,6.33 C50.34,5.33 50.34,5.33 50.34,5.33 C69,0 69,0 69,0 C84.67,2.33 84.67,2.33 84.67,2.33 C66.67,8.33 66.67,8.33 66.67,8.33 C59,7.33 59,7.33 59,7.33 C63.34,6 64.34,4.67 64.34,4.67 C62.67,3.67 56.67,6 56.67,6 C56.67,6 56.67,6 56.67,6 C51.34,7.67 51.34,7.67 51.34,7.67 C51.34,10.67 51.34,10.67 51.34,10.67 C58.34,8.33 58.34,8.33 58.34,8.33 C58.34,8.33 58.34,8.33 58.34,8.33 C58.34,8.33 58.67,7.33 58.67,7.33" fill="none" stroke="currentColor" stroke-width="1.5"/><path d="M34.34,0.33 C34.34,22.67 34.34,22.67 34.34,22.67 C34.34,24.67 38,26.33 42.67,26.33 C47.34,26.33 51.34,24.67 51.34,22.67 C51.34,0 51.34,0 51.34,0 Z" fill="none" stroke="currentColor" stroke-width="1.5"/><path d="M35.34,18 L35.34,20 L16.67,26.67 L0,22.67 L0,20.33 Z" fill="none" stroke="currentColor" stroke-width="1.5"/><path d="M29.34,17 L35.34,18 L16.67,24 L0,20.33 L19.67,14.67 L24,15.67 Z" fill="none" stroke="currentColor" stroke-width="1.5"/><path d="M24,15.33 C20,16.67 18.34,18.67 18.34,18.67 C24.67,18.67 29,17 29,17" fill="none" stroke="currentColor" stroke-width="1.5"/><path d="M23.67,15.67 C37.34,11.67 37.34,11.67 37.34,11.67 C39.34,11.67 39.34,13.33 39.34,13.33 C39.34,14.33 37.67,14.67 37.67,14.67 C28.67,17 28.67,17 28.67,17" fill="none" stroke="currentColor" stroke-width="1.5"/></svg>