<svg xmlns="http://www.w3.org/2000/svg" viewBox="0 0 24.66 40.67" width="24" height="24"><path d="M21.33,40.67 L21.33,3.34 L0,3.34 L0,40.67 Z M0,3.34 L4,0 L24.66,0 L21.33,3.34 Z M21.33,40.67 L24.66,36.67 L24.66,0 L21.33,3.34 Z" fill="none" stroke="currentColor" stroke-width="1.5"/><path d="M0,18 L21.33,18" fill="none" stroke="currentColor" stroke-width="1.5"/><path d="M0,38.34 L21.33,38.34" fill="none" stroke="currentColor" stroke-width="1.5"/><path d="M9,30 L9,33 L7.66,33 L10.33,36 L12.66,33 L11.66,33 L11.66,30 Z M9,27.34 L9,24.34 L7.66,24.34 L10.33,21.34 L12.66,24.34 L11.66,24.34 L11.66,27.34 Z M2.66,27.67 L5.66,27.67 L5.66,26.34 L9,29 L5.66,31.34 L5.66,30 L2.66,30 Z M17.66,27.67 L14.66,27.67 L14.66,26.34 L11.66,29 L14.66,31.34 L14.66,30 L17.66,30 Z" fill="none" stroke="currentColor" stroke-width="1.5"/><rect x="0" y="0" width="0" height="0" fill="none" stroke="currentColor"/><rect x="1.66" y="6" width="10" height="4" fill="none" stroke="currentColor"/><path d="M2.66,8 L10.66,8" fill="none" stroke="currentColor" stroke-width="1.5"/></svg>