<svg xmlns="http://www.w3.org/2000/svg" viewBox="0 0 35.0 34.34" width="24" height="24"><path d="M31,3 L0,3 L3.67,0 L34.67,0 Z" fill="none" stroke="currentColor" stroke-width="1.5"/><path d="M35,31.34 L31,34.34 L31,3 L35,0 Z M31,34.34 L0,34.34 L0,3 L31,3 Z" fill="none" stroke="currentColor" stroke-width="1.5"/><rect x="0" y="0" width="0" height="0" fill="none" stroke="currentColor"/><path d="M15.67,18 C15.67,18 15.34,18.34 15.34,18.34 C11,18.34 11,18.34 11,18.34 C11,18.34 10.67,18 10.67,18 C10.67,13.67 10.67,13.67 10.67,13.67 C10.67,13.34 11,13.34 11,13.34 C15.34,13.34 15.34,13.34 15.34,13.34 C15.34,13.34 15.67,13.34 15.67,13.67 Z" fill="none" stroke="currentColor" stroke-width="1.5"/><path d="M21.34,18 C21.34,18 21.34,18 21,18 C18,18 18,18 18,18 C17.67,18 17.67,18 17.67,18 C17.67,14.67 17.67,14.67 17.67,14.67 C17.67,14.67 17.67,14.67 18,14.67 C21,14.67 21,14.67 21,14.67 C21.34,14.67 21.34,14.67 21.34,14.67 Z" fill="none" stroke="currentColor" stroke-width="1.5"/><path d="M14.34,23 C14.34,23 14.34,23.34 14.34,23.34 C11,23.34 11,23.34 11,23.34 C11,23.34 11,23 11,23 C11,20 11,20 11,20 C11,19.67 11,19.67 11,19.67 C14.34,19.67 14.34,19.67 14.34,19.67 C14.34,19.67 14.34,19.67 14.34,20 Z" fill="none" stroke="currentColor" stroke-width="1.5"/><path d="M20.67,24 C20.67,24 20.67,24 20.67,24 C16.67,24 16.67,24 16.67,24 C16.67,24 16.67,24 16.67,24 C16.67,20 16.67,20 16.67,20 C16.67,20 16.67,19.67 16.67,19.67 C20.67,19.67 20.67,19.67 20.67,19.67 C20.67,19.67 20.67,20 20.67,20 Z" fill="none" stroke="currentColor" stroke-width="1.5"/><path d="M11.67,8.67 L5.67,8.67 L5.67,22.34 L8.67,22.34 L8.67,11.67 L11.67,11.67 Z M16,8.67 L16,11.67 L23.34,11.67 L23.34,19.67 L26.34,19.67 L26.34,8.67 Z M23.34,23.67 L23.34,26.34 L5.67,26.34 L5.67,29.34 L26.34,29.34 L26.34,23.67 Z" fill="none" stroke="currentColor" stroke-width="1.5"/><path d="M15,17.67 C15,17.67 15,17.67 15,17.67 C10.67,17.67 10.67,17.67 10.67,17.67 C10.34,17.67 10.34,17.67 10.34,17.67 C10.34,13 10.34,13 10.34,13 C10.34,13 10.34,13 10.67,13 C15,13 15,13 15,13 C15,13 15,13 15,13 Z" fill="none" stroke="currentColor" stroke-width="1.5"/><path d="M20.67,17.67 C20.67,17.67 20.67,17.67 20.67,17.67 C17.34,17.67 17.34,17.67 17.34,17.67 C17.34,17.67 17.34,17.67 17.34,17.67 C17.34,14.34 17.34,14.34 17.34,14.34 C17.34,14.34 17.34,14.34 17.34,14.34 C20.67,14.34 20.67,14.34 20.67,14.34 C20.67,14.34 20.67,14.34 20.67,14.34 Z" fill="none" stroke="currentColor" stroke-width="1.5"/><path d="M14,22.67 C14,22.67 14,22.67 14,22.67 C10.67,22.67 10.67,22.67 10.67,22.67 C10.67,22.67 10.67,22.67 10.67,22.67 C10.67,19.34 10.67,19.34 10.67,19.34 C10.67,19.34 10.67,19.34 10.67,19.34 C14,19.34 14,19.34 14,19.34 C14,19.34 14,19.34 14,19.34 Z" fill="none" stroke="currentColor" stroke-width="1.5"/><path d="M20.34,23.34 C20.34,23.67 20.34,23.67 20.34,23.67 C16.34,23.67 16.34,23.67 16.34,23.67 C16.34,23.67 16,23.67 16,23.34 C16,19.67 16,19.67 16,19.67 C16,19.34 16.34,19.34 16.34,19.34 C20.34,19.34 20.34,19.34 20.34,19.34 C20.34,19.34 20.34,19.34 20.34,19.67 Z" fill="none" stroke="currentColor" stroke-width="1.5"/><path d="M18.67,21 C18.67,21.34 18.67,21.34 18.67,21.34 C13.67,21.34 13.67,21.34 13.67,21.34 C13.67,21.34 13.34,21.34 13.34,21 C13.34,16.34 13.34,16.34 13.34,16.34 C13.34,16.34 13.67,16 13.67,16 C18.67,16 18.67,16 18.67,16 C18.67,16 18.67,16.34 18.67,16.34 Z" fill="none" stroke="currentColor" stroke-width="1.5"/><path d="M18.34,20.67 C18.34,20.67 18.34,21 18,21 C13.34,21 13.34,21 13.34,21 C13,21 13,20.67 13,20.67 C13,16 13,16 13,16 C13,15.67 13,15.67 13.34,15.67 C18,15.67 18,15.67 18,15.67 C18.34,15.67 18.34,15.67 18.34,16 Z" fill="none" stroke="currentColor" stroke-width="1.5"/><path d="M11.34,8.34 L5.34,8.34 L5.34,22 L8,22 L8,11 L11.34,11 Z M15.34,8.34 L15.34,11 L23,11 L23,19.34 L26,19.34 L26,8.34 Z M23,23.34 L23,26 L5.34,26 L5.34,28.67 L26,28.67 L26,23.34 Z" fill="none" stroke="currentColor" stroke-width="1.5"/></svg>