<svg xmlns="http://www.w3.org/2000/svg" viewBox="0 0 49.0 33.0" width="24" height="24"><path d="M49,9.34 C49,14.67 38,19 24.34,19 C11,19 0,14.67 0,9.34 C0,23.34 0,23.34 0,23.34 C0,28.67 11,33 24.34,33 C38,33 49,28.67 49,23.34 Z M24.34,19 C38,19 49,14.67 49,9.34 C49,4 38,0 24.34,0 C11,0 0,4 0,9.34 C0,14.67 11,19 24.34,19 Z" fill="none" stroke="currentColor" stroke-width="1.5"/><rect x="0" y="0" width="0" height="0" fill="none" stroke="currentColor"/><path d="M19,5.67 L21,8.67 L13.34,10.34 L15,9 L3,7 L6,4.67 L17.34,6.67 Z M29.67,13 L28.34,10 L35,8.67 L34,9.67 L45.34,11.67 L42.67,13.67 L31.34,11.67 Z M25.67,4 L33.67,2 L33.67,5.34 L31.67,4.67 L28,8 L24.34,7.34 L28.34,4.34 Z M22.67,16 L15,17.34 L15,14 L17,14.34 L21,11 L24.67,11.34 L20.34,15.34 Z" fill="none" stroke="currentColor" stroke-width="1.5"/><path d="M13.67,20.67 L35.67,20.67 L35.67,30.67 L13.67,30.67 Z" fill="none" stroke="currentColor" stroke-width="1.5"/><path d="M30.34,23.34 L33.34,23.34 L33.34,27.67 L30.34,27.67 Z M33.34,21.34 L34.34,21.34 L34.34,22.34 L33.34,22.34 Z M31.67,21.34 L32.67,21.34 L32.67,22.34 L31.67,22.34 Z M29.67,21.34 L30.67,21.34 L30.67,22.34 L29.67,22.34 Z M28,21.34 L29,21.34 L29,22.34 L28,22.34 Z M26.34,21.34 L27,21.34 L27,22.34 L26.34,22.34 Z M24.34,21.34 L25.34,21.34 L25.34,22.34 L24.34,22.34 Z M22.67,21.34 L23.67,21.34 L23.67,22.34 L22.67,22.34 Z M20.67,21.34 L21.67,21.34 L21.67,22.34 L20.67,22.34 Z M19,21.34 L20,21.34 L20,22.34 L19,22.34 Z M17.34,21.34 L18,21.34 L18,22.34 L17.34,22.34 Z M15.34,21.34 L16.34,21.34 L16.34,22.34 L15.34,22.34 Z M33.34,28.67 L34.34,28.67 L34.34,29.67 L33.34,29.67 Z M31.67,28.67 L32.67,28.67 L32.67,29.67 L31.67,29.67 Z M29.67,28.67 L30.67,28.67 L30.67,29.67 L29.67,29.67 Z M28,28.67 L29,28.67 L29,29.67 L28,29.67 Z M26.34,28.67 L27,28.67 L27,29.67 L26.34,29.67 Z M24.34,28.67 L25.34,28.67 L25.34,29.67 L24.34,29.67 Z M22.67,28.67 L23.67,28.67 L23.67,29.67 L22.67,29.67 Z M20.67,28.67 L21.67,28.67 L21.67,29.67 L20.67,29.67 Z M19,28.67 L20,28.67 L20,29.67 L19,29.67 Z M17.34,28.67 L18,28.67 L18,29.67 L17.34,29.67 Z M15.34,28.67 L16.34,28.67 L16.34,29.67 L15.34,29.67 Z M25.67,23.34 L28.67,23.34 L28.67,27.67 L25.67,27.67 Z M20.67,23.34 L23.67,23.34 L23.67,27.67 L20.67,27.67 Z M16,23.34 L19,23.34 L19,27.67 L16,27.67 Z" fill="none" stroke="currentColor" stroke-width="1.5"/></svg>