<svg xmlns="http://www.w3.org/2000/svg" viewBox="0 0 35.0 35.0" width="24" height="24"><path d="M29,35 L29,5.67 L0,5.67 L0,35 Z M29,5.67 L0.33,5.67 L7.33,0 L35,0 L35,0 L35,29 L29,35 Z M29,5.67 L35,0" fill="none" stroke="currentColor" stroke-width="1.5"/><path d="M4,13.34 L27.33,13.34 M3,20.34 L26.33,20.34 M2,27.34 L25.33,27.34 M5.33,31 L10,9 M20,31 L25,9 M12.66,31 L17.33,9" fill="none" stroke="currentColor" stroke-width="1.5"/><path d="M11,13.34 C11,14 10,14.34 9,14.34 C8,14.34 7.33,14 7.33,13.34 C7.33,12.67 8,12 9,12 C10,12 11,12.67 11,13.34 Z M18.33,13 C18.33,13.67 17.66,14.34 16.66,14.34 C15.66,14.34 14.66,13.67 14.66,13 C14.66,12.34 15.66,11.67 16.66,11.67 C17.66,11.67 18.33,12.34 18.33,13 Z M26,13.67 C26,14.34 25,14.67 24,14.67 C23,14.67 22.33,14.34 22.33,13.67 C22.33,13 23,12.34 24,12.34 C25,12.34 26,13 26,13.67 Z M9,20.34 C9,21 8.33,21.67 7.33,21.67 C6.33,21.67 5.66,21 5.66,20.34 C5.66,19.67 6.33,19.34 7.33,19.34 C8.33,19.34 9,19.67 9,20.34 Z M16.66,20.67 C16.66,21.34 16,22 15,22 C14,22 13,21.34 13,20.67 C13,20 14,19.34 15,19.34 C16,19.34 16.66,20 16.66,20.67 Z M24.33,20.34 C24.33,21 23.33,21.67 22.33,21.67 C21.33,21.67 20.66,21 20.66,20.34 C20.66,19.67 21.33,19 22.33,19 C23.33,19 24.33,19.67 24.33,20.34 Z M7.66,27.34 C7.66,28 6.66,28.67 5.66,28.67 C4.66,28.67 4,28 4,27.34 C4,26.67 4.66,26 5.66,26 C6.66,26 7.66,26.67 7.66,27.34 Z M15.33,27.34 C15.33,28 14.33,28.67 13.33,28.67 C12.33,28.67 11.66,28 11.66,27.34 C11.66,26.67 12.33,26 13.33,26 C14.33,26 15.33,26.67 15.33,27.34 Z M22.66,27.34 C22.66,28 22,28.67 21,28.67 C20,28.67 19,28 19,27.34 C19,26.67 20,26 21,26 C22,26 22.66,26.67 22.66,27.34 Z" fill="none" stroke="currentColor" stroke-width="1.5"/></svg>