<svg xmlns="http://www.w3.org/2000/svg" viewBox="0 0 71.67 26.34" width="24" height="24"><path d="M55.67,26.34 L55.67,15.34 L0,15.34 L0,26.34 Z" fill="none" stroke="currentColor" stroke-width="1.5"/><path d="M54.33,25.34 L54.33,17 L1,17 L1,25.34 Z M0,15.34 L19,0 L71.67,0 L55.67,15.34 Z M55.67,26.34 L71.67,10.34 L71.67,0 L55.67,15.34 Z" fill="none" stroke="currentColor" stroke-width="1.5"/><rect x="0" y="0" width="0" height="0" fill="none" stroke="currentColor"/><path d="M41.67,16.67 C43.67,17.67 45,19 45,20.67 C45,23.34 41.67,25.67 37.67,25.67 C33.67,25.67 30.67,23.34 30.67,20.67 C30.67,18 33.67,16 37.67,16 C39.33,16 40.67,16.34 41.67,16.67" fill="none" stroke="currentColor" stroke-width="1.5"/><path d="M6.67,22.34 L3.33,22.34 L3.33,19.67 L6.67,19.67 Z M28,22.34 L24.67,22.34 L24.67,19.67 L28,19.67 Z M53,22.34 L49.67,22.34 L49.67,19.67 L53,19.67 Z" fill="none" stroke="currentColor" stroke-width="1.5"/><path d="M43.33,20.67 C43.33,22.67 40.67,24.34 38,24.34 C35,24.34 32.33,22.67 32.33,20.67 C32.33,18.67 35,17 38,17 C40.67,17 43.33,18.67 43.33,20.67 Z" fill="none" stroke="currentColor" stroke-width="1.5"/></svg>