<svg xmlns="http://www.w3.org/2000/svg" viewBox="0 0 28.0 44.33" width="24" height="24"><path d="M21.33,6.67 L0,6.67 L0,44.33 L21.33,44.33 Z M21.33,44.33 L28,37.67 L28,0 L6.67,0 L0,6.67 L21.33,6.67 Z M21.33,6.67 L28,0 M0,19.33 L21.33,19.33 M0,39.33 L21.33,39.33" fill="none" stroke="currentColor" stroke-width="1.5"/><path d="M14,13.67 L14,9.67 L3.67,9.67 L3.67,13.67 Z" fill="none" stroke="currentColor" stroke-width="1.5"/><path d="M19,23.67 C4.67,23.67 4.67,23.67 4.67,23.67 C3,23.67 1.67,25 1.67,26.33 C1.67,28 3.33,29.33 4.67,29.33 C7.33,29.33 7.33,29.33 7.33,29.33 C9,29.33 10,30.67 10,32.33 C10,34 8.67,35.33 7,35.33 C2.67,35.33 2.67,35.33 2.67,35.33" fill="none" stroke="currentColor" stroke-width="1.5"/><path d="M18.33,21.67 L18.33,25.33 L20.67,23.67 Z M2.67,37.33 L2.67,33.67 L0.67,35.33 Z" fill="none" stroke="currentColor" stroke-width="1.5"/></svg>