<svg xmlns="http://www.w3.org/2000/svg" viewBox="0 0 35.33 56.0" width="24" height="24"><path d="M9.33,6.34 L0.33,6 L0,6.67 L2.33,14.34 L12,14 L12.33,13.34 Z M21,0 L24.66,2.67 L24,3.67 L24.33,5.34 L25,6.67 L28.33,8.34 L29,6.34 L28,5.67 L28.33,4.34 L26.33,0.34 Z M21.33,1.34 L20.33,3 L20,4.67 L19,2.34 Z M20.66,2.34 L21,2.67 L21.33,3 L21.33,2.34 L21.33,2 L21.66,2.34 L22,3 L22.66,3.34 L22.66,2.67 L23,2.34 L23.33,2.67 L24,3 L24,2.67 L24.66,2.67 L22,0.34 L20.33,0.34 L20,1 Z M21,7.67 L22.66,7.67 Z" fill="none" stroke="currentColor" stroke-width="1.5"/><path d="M21,7.67 L22.66,7.67" fill="none" stroke="currentColor" stroke-width="1.5"/><path d="M20,4.34 L20,5 L20,7 L19.33,7 L18.66,6.34 L19,5.67 L19.33,5 L19.66,3.67 Z M12.66,14 L3,15 L2.33,15.34 L2.66,16.67 L7,18.34 L16.66,17.34 L17,16 Z M11.33,12.67 L3.66,13 L1.66,7 L9,7 Z M11,18.34 L10.33,16.67 L9,15.67 L9,16 L7.33,15.34 L7.33,16 L6.33,15.67 L6.66,16.34 L6,16 L6.66,17.34 L7.66,18 L9.66,19 Z M13.33,27.67 L9.33,28.67 L8.66,30 L8.66,32.34 L10.66,41.67 L10.66,45.34 L9.33,47.34 L12.33,47.34 L14,46.34 L14.66,46 L14.66,44.34 L13.66,42.34 L13.33,40.67 L13.66,36.34 L13.33,33.67 Z M14.33,43.67 L13.66,43.67 L12.66,44.67 L11.33,46.34 L10,46.67 L10.66,46 L9.33,47 L7.33,48 L7.33,48.34 L9.66,48.67 L11.33,49 L12.33,48.34 L13.33,46.67 L13.66,49 L14,49 L15,46.34 L15,44.67 Z M18.33,27.67 L13.66,28.34 L13,29.67 L12.66,31 L16,40.34 L16,44 L14.66,46 L17.66,46 L19.33,45 L20,44.67 L20,43 L19,41 L18.66,39.34 L18.66,35 L18.33,32.34 Z M19.66,42.34 L19,42.34 L18,43.34 L16.66,45 L15.33,45.34 L15.66,44.67 L14.66,45.67 L12.66,46.67 L12.66,47 L14.66,47.34 L16.66,47.67 L17.66,47 L18.33,45.67 L19,47.67 L19.33,47.67 L20.33,45 L20.33,43.34 Z M25.66,9 L22,10 L18.66,10.34 L16,11.34 L15,12.34 L16,17 L15,18.67 L14,18.67 L13.66,19.34 L12,18 L10.66,18 L9.33,19 L9.66,21 L13.66,23.67 L16.66,24 L18,23 L16.33,27 L13.33,28 L12,30.67 L13.33,34.34 L20,35.67 L23.66,36 L27,35.67 L29,34 L29.33,32.34 L29.66,31 L30.33,30 L29.33,27 L29,23.67 L30,23.67 L31.66,23 L33,12.67 L32,11 L29,9.67 Z" fill="none" stroke="currentColor" stroke-width="1.5"/><path d="M20.33,2 L22,1.67 L25,2.67 L25.66,7.34 L25.33,9.34 L21.66,10.34 L20,8.34 L19.66,5.67 Z" fill="none" stroke="currentColor" stroke-width="1.5"/><path d="M29.66,31.34 L28.33,30.67 L27,32 L23.33,32.67 L19.33,31 L16.33,27 L13.33,28 L12,30.67 L13.33,34.34 L22.33,36 L27,35.67 L29,34 Z M20,7 L21,8.67 L21.66,9.34 L22.33,9.34 L22.33,11 L21,11.67 L20.66,11.67 L18.66,12 L17.66,11.67 L17,10.67 L17.66,11 L18,10.67 L17.33,10.34 L17,9.67 L17,9 L17.66,9.34 L18.33,9.34 L18,9 L18,8.67 L18.66,8.34 L19,8 L19,7.34 L19.33,6.34 Z M25.33,7 L25.33,7.67 L25,8 L24.33,8 L24.66,8.34 L25.33,8.34 L25.33,9 L24.66,9.34 L24,9 L24.33,9.67 L25,9.67 L25.66,9.67 L25.66,10 L25.33,10.67 L24.66,11 L25.33,11.34 L26,11.34 L25.66,11.67 L25.66,12.67 L26.33,12.34 L26.66,11.67 L27,12.34 L27.66,12.67 L29,13 L30,13 L31,12.67 L31,12 L30.66,12 L30,12 L30.33,11.67 L30.66,11.34 L31,10.34 L30.66,10 L30.33,10.34 L30,10.67 L30,10 L30,9.67 L29.66,9.67 L29,9.67 L29.33,9 L29.33,8.34 L29.33,7.67 L29,8 L28.66,8.34 L28,8 L28.33,7.67 L28.33,7 L28,6.67 L28,7 L27.33,7 L27.33,6.34 L26,6.34 Z" fill="none" stroke="currentColor" stroke-width="1.5"/><path d="M25.33,11.67 C24.33,13 24.33,13 24.33,13 C23.33,11.67 23.33,11.67 23.33,11.67 C23.33,11.67 22.66,13.34 22.33,12.67 C22,11.67 22,11.67 22,11.67 C21.33,12.34 21.33,12.34 21.33,12.34 C21.33,12.34 19.66,12.67 20,12.34 C20.33,12 20.33,11.34 20.33,11.34 C23,8.67 23,8.67 23,8.67 C26.33,8.67 26.33,8.67 26.33,8.67 Z" fill="none" stroke="currentColor" stroke-width="1.5"/><path d="M23,36.67 C22.66,42.67 22.66,42.67 22.66,42.67 C14.66,44.67 14.66,44.67 14.66,44.67 C13.33,44.34 13,46 13,46 C13,47 13,47 13,47 C13.66,47 13.66,47 13.66,47 C13.33,48 13.33,48 13.33,48 C14,49.34 15,48.34 15,48.34 C15.33,47 15.33,47 15.33,47 C21.66,44.67 21.66,44.67 21.66,44.67 C16,49 16,49 16,49 C15,50.67 15.66,52.34 15.66,52.34 C15,53.67 16.33,55 16.33,55 C18,56 18,53.67 18,53.67 C18.33,52.34 17,52.34 17,52.34 C16.66,51.34 16.66,51.34 16.66,51.34 C23.66,45.34 23.66,45.34 23.66,45.34 C32,51 32,51 32,51 C32.33,52 32.33,52 32.33,52 C31.33,53.67 33,54.34 33,54.34 C35.33,55 34.33,53 34.33,53 C34.66,52 33.66,51.67 33.66,51.67 C33,51 33,51 33,51 C33,51 32.66,51.34 33.33,50.67 C34,50.34 33.33,48.67 33.33,48.67 C25.66,44.34 25.66,44.34 25.66,44.34 C31.33,45.67 31.33,45.67 31.33,45.67 C32.33,46.67 32.33,46.67 32.33,46.67 C32.33,48.34 33.66,48 33.66,48 C35,48 34.33,46.34 34.33,46.34 C33.66,46 33.33,45.67 33.33,45.67 C32.66,44.67 32.66,44.67 32.66,44.67 C29.33,43.67 29.33,43.67 29.33,43.67 C24.66,42.67 24.66,42.67 24.66,42.67 C24.66,37.34 24.66,37.34 24.66,37.34" fill="none" stroke="currentColor" stroke-width="1.5"/><path d="M21,38.34 C10.33,34.67 10.33,34.67 10.33,34.67 C9.66,34 10.33,32.67 10.33,32.67 C21,36 21,36 21,36" fill="none" stroke="currentColor" stroke-width="1.5"/><path d="M28.66,35.67 C21.33,38.67 21.33,38.67 21.33,38.67 C21.33,32.34 21.33,32.34 21.33,32.34 C26.66,18 27.66,18 27.66,18 C29.66,17 30,17 30,17 C32.66,17 33.66,16 33.66,16 C34.33,15.34 35.33,16.34 35.33,16.34 Z" fill="none" stroke="currentColor" stroke-width="1.5"/></svg>