<svg xmlns="http://www.w3.org/2000/svg" viewBox="0 0 61.0 34.34" width="24" height="24"><path d="M59,31 L59,0 L2.34,0 L2.34,31 Z" fill="none" stroke="currentColor" stroke-width="1.5"/><path d="M30.67,30.34 L30.67,12 L25,12 L25,30.34 Z" fill="none" stroke="currentColor" stroke-width="1.5"/><path d="M36,30.34 L36,12 L30.67,12 L30.67,30.34 Z" fill="none" stroke="currentColor" stroke-width="1.5"/><path d="M37.67,31.67 L37.67,30.34 L23.34,30.34 L23.34,31.67 Z" fill="none" stroke="currentColor" stroke-width="1.5"/><path d="M38.67,33 L38.67,31.67 L22.67,31.67 L22.67,33 Z" fill="none" stroke="currentColor" stroke-width="1.5"/><path d="M39.34,34.34 L39.34,33 L22,33 L22,34.34 Z" fill="none" stroke="currentColor" stroke-width="1.5"/><path d="M27.67,20 L29.34,20 M33.34,20 L32,20" fill="none" stroke="currentColor" stroke-width="1.5"/><path d="M59.67,2.67 L61,5.67 L0,5.67 L1.34,2.67 Z M19,23.67 L19,8.34 L8,8.34 L8,23.67 Z M53,23.67 L53,8.34 L42,8.34 L42,23.67 Z" fill="none" stroke="currentColor" stroke-width="1.5"/></svg>