<svg xmlns="http://www.w3.org/2000/svg" viewBox="0 0 56.34 28.0" width="24" height="24"><path d="M49.67,13.33 L56.34,0 L10.34,0 L0,13.33 Z M56.34,12.33 L56.34,0 L49.67,13.33 L49.67,28 Z M49.67,28 L49.67,13.33 L0,13.33 L0,28 Z" fill="none" stroke="currentColor" stroke-width="1.5"/><rect x="0" y="0" width="0" height="0" fill="none" stroke="currentColor"/><path d="M8.34,26 L8.34,23 L5.34,23 L5.34,26 Z M12.67,26 L12.67,23 L9.67,23 L9.67,26 Z M17,26 L17,23 L14,23 L14,26 Z M21.34,26 L21.34,23 L18.34,23 L18.34,26 Z M25.67,26 L25.67,23 L22.67,23 L22.67,26 Z M30,26 L30,23 L27,23 L27,26 Z M34.34,26 L34.34,23 L31.34,23 L31.34,26 Z M38.67,26 L38.67,23 L35.67,23 L35.67,26 Z M43,26 L43,23 L40,23 L40,26 Z" fill="none" stroke="currentColor" stroke-width="1.5"/><path d="M41.67,6 L43.34,4.33 L46.67,6.33 L40,8 L41.34,6.66 L28.34,6.66 L28.67,6 Z M29.34,6 L29,6.66 L16,6.66 L14.67,8 L11,6.33 L18.34,4 L16.34,6 Z" fill="none" stroke="currentColor" stroke-width="1.5"/></svg>