<svg xmlns="http://www.w3.org/2000/svg" viewBox="0 0 84.67 44.33" width="24" height="24"><path d="M58.67,35.67 C59,37.67 58,40 56,41.67 C54,43.67 51.33,44.33 49.33,44" fill="none" stroke="currentColor" stroke-width="1.5"/><path d="M57.67,35.33 C58,37.33 57,39.33 55.33,41 C53.33,42.67 51,43.33 49,43" fill="none" stroke="currentColor" stroke-width="1.5"/><path d="M57,35 C57,37 56.33,39 54.67,40.33 C53,42 50.67,42.67 49,42" fill="none" stroke="currentColor" stroke-width="1.5"/><path d="M56,34.67 C56,36.33 55.33,38.33 54,39.67 C52.33,41 50.33,41.67 48.67,41.33" fill="none" stroke="currentColor" stroke-width="1.5"/><path d="M55,34.33 C55.33,36 54.67,37.67 53.33,39 C51.67,40.33 50,40.67 48.33,40.33" fill="none" stroke="currentColor" stroke-width="1.5"/><path d="M54.33,34.33 C54.33,35.67 53.67,37 52.33,38 C51.33,39.33 49.67,39.67 48,39.33" fill="none" stroke="currentColor" stroke-width="1.5"/><path d="M53.33,34 C53.33,35 53,36.33 51.67,37.33 C50.67,38.33 49,39 48,38.67" fill="none" stroke="currentColor" stroke-width="1.5"/><path d="M52.33,33.67 C52.67,34.67 52,35.67 51,36.67 C50,37.67 48.67,38 47.67,37.67" fill="none" stroke="currentColor" stroke-width="1.5"/><path d="M0,26 L0,24 L18,17.67 L26,19 L31,20 L34.33,20.67 L34.33,23 Z" fill="none" stroke="currentColor" stroke-width="1.5"/><path d="M42,0 C39.67,0 37.67,0.67 37.67,1.67 C37.67,2.67 39.67,3.67 42,3.67 C44,3.67 46,2.67 46,1.67 C46,0.67 44,0 42,0 Z" fill="none" stroke="currentColor" stroke-width="1.5"/><path d="M29,22 C34.33,23 34.33,23 34.33,23 C15.67,28.33 15.67,28.33 15.67,28.33 C0,26 0,26 0,26 C18,20 18,20 18,20 C25.67,21 25.67,21 25.67,21 C21.33,22.33 20.33,23.67 20.33,23.67 C22,24.67 28,22.33 28,22.33 C28,22.33 28,22.33 28,22.33 C33.33,20.67 33.33,20.67 33.33,20.67 C33.33,17.67 33.33,17.67 33.33,17.67 C26.33,20 26.33,20 26.33,20 C26.33,20 26.33,20 26.33,20 C26.33,20 26,21 26,21" fill="none" stroke="currentColor" stroke-width="1.5"/><path d="M50.33,28 C50.33,5.67 50.33,5.67 50.33,5.67 C50.33,3.67 46.67,2 42,2 C37.33,2 33.33,3.67 33.33,5.67 C33.33,28 33.33,28 33.33,28" fill="none" stroke="currentColor" stroke-width="1.5"/><path d="M49.33,10.33 L49.33,8.33 L68,1.67 L84.67,5.67 L84.67,8 Z" fill="none" stroke="currentColor" stroke-width="1.5"/><path d="M55.33,11.33 L49.33,10.33 L68,4.33 L84.67,8 L65,13.67 L60.33,12.67 Z" fill="none" stroke="currentColor" stroke-width="1.5"/><path d="M60.67,12.67 C64.67,11.67 66.33,9.67 66.33,9.67 C60,9.67 55.67,11.33 55.67,11.33" fill="none" stroke="currentColor" stroke-width="1.5"/><path d="M61,12.67 C47,16.67 47,16.67 47,16.67 C45.33,16.67 45.33,15 45.33,15 C45.33,14 47,13.67 47,13.67 C56,11.33 56,11.33 56,11.33" fill="none" stroke="currentColor" stroke-width="1.5"/><path d="M32.33,34 C32.33,32 36.67,30.33 42,30.33 C47.33,30.33 51.67,32 51.67,34 C51.67,28.67 51.67,28.67 51.67,28.67 C51.67,26.33 47.33,24.67 42,24.67 C36.67,24.67 32.33,26.33 32.33,28.67 Z" fill="none" stroke="currentColor" stroke-width="1.5"/><path d="M42,30.33 C36.67,30.33 32.33,32 32.33,34 C32.33,36 36.67,38 42,38 C47.33,38 51.67,36 51.67,34 C51.67,32 47.33,30.33 42,30.33 Z" fill="none" stroke="currentColor" stroke-width="1.5"/><path d="M44.33,35.67 L43.33,34.33 L46.33,33.67 L45.67,34.33 L50.33,35 L49.33,36 L44.67,35 Z M40,32.67 L40.33,34 L37.67,34.33 L38.33,34 L33.67,33.33 L34.67,32.33 L39.33,33.33 Z M41.33,36.33 L38.33,37 L38.33,35.67 L39,36 L40.67,34.67 L42,35 L40.33,36 Z M42.67,31.67 L45.67,31 L45.67,32.33 L45,32 L43.33,33.33 L42,33.33 L43.67,31.67 Z" fill="none" stroke="currentColor" stroke-width="1.5"/></svg>