<svg xmlns="http://www.w3.org/2000/svg" viewBox="0 0 54.67 23.67" width="24" height="24"><path d="M46.33,23 C54.67,12 54.67,12 54.67,12 C54.67,4 54.67,4 54.67,4 C54.67,2 53,0 50.67,0 C10.33,0 10.33,0 10.33,0 C8.33,0 7.67,1.67 6.33,3 C1.67,9.33 0.33,9.33 1.67,9.33" fill="none" stroke="currentColor" stroke-width="1.5"/><path d="M48,20 C48,22 46.33,23.67 44,23.67 C3.67,23.67 3.67,23.67 3.67,23.67 C1.67,23.67 0,22 0,20 C0,12 0,12 0,12 C0,10 1.67,8 3.67,8 C44,8 44,8 44,8 C46.33,8 48,10 48,12 Z" fill="none" stroke="currentColor" stroke-width="1.5"/><rect x="14.33" y="9.33" width="20.33" height="6.67" fill="none" stroke="currentColor"/><path d="M39.33,12 C39.33,12.67 38.67,13.33 38,13.33 C37.33,13.33 37,12.67 37,12 C37,11.33 37.33,10.67 38,10.67 C38.67,10.67 39.33,11.33 39.33,12 Z" fill="none" stroke="currentColor" stroke-width="1.5"/><path d="M39.33,15.33 C39.33,16 38.67,16.67 38,16.67 C37.33,16.67 37,16 37,15.33 C37,14.67 37.33,14.33 38,14.33 C38.67,14.33 39.33,14.67 39.33,15.33 Z" fill="none" stroke="currentColor" stroke-width="1.5"/><path d="M39.33,19 C39.33,19.67 38.67,20.33 38,20.33 C37.33,20.33 37,19.67 37,19 C37,18.33 37.33,17.67 38,17.67 C38.67,17.67 39.33,18.33 39.33,19 Z" fill="none" stroke="currentColor" stroke-width="1.5"/><path d="M31,20 C31,21 28.33,22 25,22 C22,22 19.33,21 19.33,20 C19.33,19.33 22,18.33 25,18.33 C28.33,18.33 31,19.33 31,20 Z" fill="none" stroke="currentColor" stroke-width="1.5"/></svg>