<svg xmlns="http://www.w3.org/2000/svg" viewBox="0 0 43.33 32.66" width="24" height="24"><path d="M32.67,21 L32.67,10.66 L0,10.66 L0,21 Z M0,10.66 L13,0 L43.33,0 L32.67,10.66 Z M32.67,21.33 L43.33,10.33 L43.33,0 L32.67,10.66 Z M32.67,32.66 L32.67,21 L0,21 L0,32.66 Z M32.67,32.66 L43.33,21.66 L43.33,10.33 L32.67,21 Z" fill="none" stroke="currentColor" stroke-width="1.5"/><path d="M23.33,4.66 L25.33,5 L31,3.66 L33,4 L32,2.66 L25.33,2.66 L28.33,3 Z M12,3 L14,2.66 L19.33,4 L21.33,3.66 L20.33,5 L14,5 L17,4.66 Z M32.33,8 L30.33,8.66 L25.33,7 L23,7.66 L24,6 L30.33,6 L28,6.66 Z M21,6.66 L19,6 L14,7.66 L11.33,7 L12.33,8.66 L19,8.66 L16,8 Z" fill="none" stroke="currentColor" stroke-width="1.5"/><path d="M16.33,19.66 C18.67,19.66 20.33,19 20.33,18.33 C20.33,17.66 18.67,17.33 16.33,17.33 C14.33,17.33 12.33,17.66 12.33,18.33 C12.33,19 14.33,19.66 16.33,19.66 Z" fill="none" stroke="currentColor" stroke-width="1.5"/><path d="M20.33,13 C20.33,13.66 18.67,14 16.33,14 C14.33,14 12.33,13.66 12.33,13 C12.33,18 12.33,18 12.33,18 C12.33,18.66 14.33,19 16.33,19 C18.67,19 20.33,18.66 20.33,18 Z" fill="none" stroke="currentColor" stroke-width="1.5"/><path d="M16.33,14 C18.67,14 20.33,13.66 20.33,13 C20.33,12.33 18.67,11.66 16.33,11.66 C14.33,11.66 12.33,12.33 12.33,13 C12.33,13.66 14.33,14 16.33,14 Z" fill="none" stroke="currentColor" stroke-width="1.5"/><rect x="0" y="0" width="0" height="0" fill="none" stroke="currentColor"/><path d="M12.67,26.33 L6.67,26.33 L6.67,26 L4.33,26.66 L6.67,27.33 L6.67,27 L12.67,27 Z M16,28 L16,30.33 L14.33,30.33 L16.67,31 L19,30.33 L17.33,30.33 L17.33,28 Z M16,25.33 L16,23 L14.33,23 L16.67,22.33 L19,23 L17.33,23 L17.33,25.33 Z M21,27 L27,27 L27,27.33 L29.33,26.66 L27,26 L27,26.33 L21,26.33 Z" fill="none" stroke="currentColor" stroke-width="1.5"/><path d="M26.33,30 C25.33,30.66 20,29.33 14.67,27.66 C9.67,25.66 6,23.66 7.33,23.33 C8.33,23 13.67,24 19,26 C24.33,28 27.67,29.66 26.33,30 Z" fill="none" stroke="currentColor" stroke-width="1.5"/><path d="M26.33,23.33 C27.33,23.66 24,25.66 18.67,27.33 C13.67,29.33 8.33,30.66 7,30 C6,29.66 9.33,28 14.33,26 C19.67,24 25,23 26.33,23.33 Z" fill="none" stroke="currentColor" stroke-width="1.5"/><path d="M19.33,28 C21.33,27.33 21.67,26.33 20.33,25.66 C19,25 16,25 14,25.33 C12,26 11.67,26.66 13,27.66 C14.33,28.33 17.33,28.33 19.33,28 Z" fill="none" stroke="currentColor" stroke-width="1.5"/></svg>