<svg xmlns="http://www.w3.org/2000/svg" viewBox="0 0 58.33 40.66" width="24" height="24"><path d="M0,40.66 L51,40.66 L51,7 L0,7 L0,40.66 Z M58.33,34 L51,40.66 L51,7 L58.33,0 L58.33,34 Z M9,0 L58.33,0 L51,7 L0,7 L9,0 Z" fill="none" stroke="currentColor" stroke-width="1.5"/><rect x="0" y="0" width="0" height="0" fill="none" stroke="currentColor"/><path d="M10.33,25.33 L3,25.33 L3,24 L10.33,24 L10.33,22 L15.33,24.66 L10.33,27.33 Z M40.33,16 L35.33,16 L35.33,14.66 L40.33,14.66 L40.33,12.33 L45.33,15.33 L40.33,18 Z M44.33,24.33 L35.33,24.33 L35.33,23 L44.33,23 L44.33,21 L49.33,23.66 L44.33,26.33 Z M40.33,32.66 L35.33,32.66 L35.33,31.33 L40.33,31.33 L40.33,29.33 L45.33,32 L40.33,35 Z" fill="none" stroke="currentColor" stroke-width="1.5"/><path d="M31.33,9.66 L31.33,38 L18.33,38 L18.33,9.66 Z" fill="none" stroke="currentColor" stroke-width="1.5"/><rect x="21.66" y="31.33" width="5.67" height="3.67" fill="none" stroke="currentColor"/><rect x="29.33" y="35.33" width="1" height="1" fill="none" stroke="currentColor"/><rect x="29.33" y="33" width="1" height="1" fill="none" stroke="currentColor"/><rect x="29.33" y="30.66" width="1" height="1" fill="none" stroke="currentColor"/><rect x="29.33" y="28.33" width="1" height="1" fill="none" stroke="currentColor"/><rect x="29.33" y="26" width="1" height="1" fill="none" stroke="currentColor"/><rect x="29.33" y="23.66" width="1" height="1" fill="none" stroke="currentColor"/><rect x="29.33" y="21.33" width="1" height="1" fill="none" stroke="currentColor"/><rect x="29.33" y="19" width="1" height="1" fill="none" stroke="currentColor"/><rect x="29.33" y="16.66" width="1" height="1" fill="none" stroke="currentColor"/><rect x="29.33" y="14.33" width="1" height="1" fill="none" stroke="currentColor"/><rect x="29.33" y="12" width="1" height="1" fill="none" stroke="currentColor"/><rect x="19" y="35.33" width="1" height="1" fill="none" stroke="currentColor"/><rect x="19" y="33" width="1" height="1" fill="none" stroke="currentColor"/><rect x="19" y="30.66" width="1" height="1" fill="none" stroke="currentColor"/><rect x="19" y="28.33" width="1" height="1" fill="none" stroke="currentColor"/><rect x="19" y="26" width="1" height="1" fill="none" stroke="currentColor"/><rect x="19" y="23.66" width="1" height="1" fill="none" stroke="currentColor"/><rect x="19" y="21.33" width="1" height="1" fill="none" stroke="currentColor"/><rect x="19" y="19" width="1" height="1" fill="none" stroke="currentColor"/><rect x="19" y="16.66" width="1" height="1" fill="none" stroke="currentColor"/><rect x="19" y="14.33" width="1" height="1" fill="none" stroke="currentColor"/><rect x="19" y="12" width="1" height="1" fill="none" stroke="currentColor"/><rect x="21.66" y="25.33" width="5.67" height="3.67" fill="none" stroke="currentColor"/><rect x="21.66" y="19" width="5.67" height="3.67" fill="none" stroke="currentColor"/><rect x="21.66" y="13" width="5.67" height="3.67" fill="none" stroke="currentColor"/></svg>