<svg xmlns="http://www.w3.org/2000/svg" viewBox="0 0 49.0 33.0" width="24" height="24"><path d="M49,9.33 C49,14.66 38,19 24.33,19 C11,19 0,14.66 0,9.33 C0,23.33 0,23.33 0,23.33 C0,28.66 11,33 24.33,33 C38,33 49,28.66 49,23.33 Z" fill="none" stroke="currentColor" stroke-width="1.5"/><path d="M24.33,19 C38,19 49,14.66 49,9.33 C49,4.33 38,0 24.33,0 C11,0 0,4.33 0,9.33 C0,14.66 11,19 24.33,19 Z" fill="none" stroke="currentColor" stroke-width="1.5"/><path d="M19,5.66 L21,8.66 L13.33,10.66 L15,9 L3,7 L6,5 L17.33,6.66 Z M29.67,13 L28.33,10 L35,8.66 L34,9.66 L45.33,11.66 L42.67,13.66 L31.33,11.66 Z M26,4 L33.67,2 L33.67,5.33 L31.67,5 L28,8 L24.33,7.66 L28.33,4.33 Z M22.67,16 L15,17.33 L15,14 L17,14.33 L21,11 L24.67,11.66 L20.33,15.33 Z" fill="none" stroke="currentColor" stroke-width="1.5"/><path d="M23.33,26.66 L23.33,28.66 L21,28.33 L24.33,32.66 L28,28.33 L25.33,28.66 L25.33,26.66 Z" fill="none" stroke="currentColor" stroke-width="1.5"/><path d="M28.67,24.66 L19,24.66 L19,22.66 L15,25.66 L19,29.33 L19,26.66 L28.67,26.66" fill="none" stroke="currentColor" stroke-width="1.5"/><path d="M20.33,26.66 L30,26.66 L30,29 L34,25.66 L30,22.33 L30,24.66 L20.33,24.66 Z" fill="none" stroke="currentColor" stroke-width="1.5"/></svg>