<svg xmlns="http://www.w3.org/2000/svg" viewBox="0 0 86.67 31.0" width="24" height="24"><path d="M56.67,29.34 L56.67,8 L29.67,8 L29.67,29.34 Z" fill="none" stroke="currentColor" stroke-width="1.5"/><path d="M54,26.67 L54,10.34 L32.33,10.34 L32.33,26.67 Z" fill="none" stroke="currentColor" stroke-width="1.5"/><path d="M29.67,8 L27,6 L59.33,6 L56.67,8 Z M83.67,31 L83.67,9.67 L56.67,8 L56.67,29.34 Z" fill="none" stroke="currentColor" stroke-width="1.5"/><path d="M81,28.34 L81,12 L59.33,10.67 L59.33,27 Z" fill="none" stroke="currentColor" stroke-width="1.5"/><path d="M56.67,8 L59.33,6 L86.33,7.67 L83.67,9.67 Z M83.67,31 L86.67,27.67 L86.67,7.67 L83.67,9.67 Z M2.67,31 L2.67,9.67 L29.67,8 L29.67,29.34 Z" fill="none" stroke="currentColor" stroke-width="1.5"/><path d="M5.33,28.34 L5.33,12 L27,10.67 L27,27 Z" fill="none" stroke="currentColor" stroke-width="1.5"/><path d="M29.67,8 L27,6 L0,7.67 L2.67,9.67 Z M2.67,31 L0,27.67 L0,7.67 L2.67,9.67 Z" fill="none" stroke="currentColor" stroke-width="1.5"/><path d="M47,8.67 L47,0 L39.67,0 L39.67,8.67 Z" fill="none" stroke="currentColor" stroke-width="1.5"/><path d="M45.67,5.34 C45.67,6.34 44.67,7.34 43.67,7.34 C42.33,7.34 41.33,6.34 41.33,5.34 C41.33,4 42.33,3 43.67,3 C44.67,3 45.67,4 45.67,5.34 Z" fill="none" stroke="currentColor" stroke-width="1.5"/><path d="M54.33,8.67 L54.33,0 L47,0 L47,8.67 Z" fill="none" stroke="currentColor" stroke-width="1.5"/><path d="M53,5.34 C53,6.34 52,7.34 50.67,7.34 C49.67,7.34 48.67,6.34 48.67,5.34 C48.67,4 49.67,3 50.67,3 C52,3 53,4 53,5.34 Z" fill="none" stroke="currentColor" stroke-width="1.5"/><path d="M39.67,8.67 L39.67,0 L32.67,0 L32.67,8.67 Z" fill="none" stroke="currentColor" stroke-width="1.5"/><path d="M38.33,5.34 C38.33,6.34 37.33,7.34 36.33,7.34 C35,7.34 34,6.34 34,5.34 C34,4 35,3 36.33,3 C37.33,3 38.33,4 38.33,5.34 Z" fill="none" stroke="currentColor" stroke-width="1.5"/><path d="M45.67,18.34 C45.67,21.34 45.67,21.34 45.67,21.34 C40.33,21.34 40.33,21.34 40.33,21.34 C40.33,18.34 40.33,18.34 40.33,18.34 C43,16.67 45.67,18.34 45.67,18.34 Z" fill="none" stroke="currentColor" stroke-width="1.5"/><path d="M44.67,16 C44.67,17 44,17.67 43,17.67 C42.33,17.67 41.33,17 41.33,16 C41.33,15 42.33,14.34 43,14.34 C44,14.34 44.67,15 44.67,16 Z" fill="none" stroke="currentColor" stroke-width="1.5"/><path d="M42.33,20.34 C42.33,23.34 42.33,23.34 42.33,23.34 C36.67,23.34 36.67,23.34 36.67,23.34 C36.67,20.34 36.67,20.34 36.67,20.34 C39.67,18.67 42.33,20.34 42.33,20.34 Z" fill="none" stroke="currentColor" stroke-width="1.5"/><path d="M41.33,18 C41.33,19 40.67,19.67 39.67,19.67 C38.67,19.67 38,19 38,18 C38,17 38.67,16.34 39.67,16.34 C40.67,16.34 41.33,17 41.33,18 Z" fill="none" stroke="currentColor" stroke-width="1.5"/><path d="M49.33,20.34 C49.33,23.34 49.33,23.34 49.33,23.34 C44,23.34 44,23.34 44,23.34 C44,20.34 44,20.34 44,20.34 C46.67,18.67 49.33,20.34 49.33,20.34 Z" fill="none" stroke="currentColor" stroke-width="1.5"/><path d="M48.33,18 C48.33,19 47.67,19.67 46.67,19.67 C45.67,19.67 45,19 45,18 C45,17 45.67,16.34 46.67,16.34 C47.67,16.34 48.33,17 48.33,18 Z" fill="none" stroke="currentColor" stroke-width="1.5"/><path d="M39,22.34 C39,26.34 39,26.34 39,26.34 C33.33,26.34 33.33,26.34 33.33,26.34 C33.33,22.34 33.33,22.34 33.33,22.34 C36.33,20.67 39,22.34 39,22.34 Z" fill="none" stroke="currentColor" stroke-width="1.5"/><path d="M38,20 C38,21 37,21.67 36.33,21.67 C35.33,21.67 34.67,21 34.67,20 C34.67,19 35.33,18.34 36.33,18.34 C37,18.34 38,19 38,20 Z" fill="none" stroke="currentColor" stroke-width="1.5"/><path d="M46,22.34 C46,26.34 46,26.34 46,26.34 C40.67,26.34 40.67,26.34 40.67,26.34 C40.67,22.34 40.67,22.34 40.67,22.34 C43.33,20.67 46,22.34 46,22.34 Z" fill="none" stroke="currentColor" stroke-width="1.5"/><path d="M45,20 C45,21 44.33,21.67 43.33,21.67 C42.33,21.67 41.67,21 41.67,20 C41.67,19 42.33,18.34 43.33,18.34 C44.33,18.34 45,19 45,20 Z" fill="none" stroke="currentColor" stroke-width="1.5"/><path d="M53,22.34 C53,26.34 53,26.34 53,26.34 C47.67,26.34 47.67,26.34 47.67,26.34 C47.67,22.34 47.67,22.34 47.67,22.34 C50.33,20.67 53,22.34 53,22.34 Z" fill="none" stroke="currentColor" stroke-width="1.5"/><path d="M52,20 C52,21 51.33,21.67 50.33,21.67 C49.33,21.67 48.67,21 48.67,20 C48.67,19 49.33,18.34 50.33,18.34 C51.33,18.34 52,19 52,20 Z" fill="none" stroke="currentColor" stroke-width="1.5"/><path d="M13,19.67 C13,23 13,23 13,23 C19.33,22.67 19.33,22.67 19.33,22.67 C19.33,19 19.33,19 19.33,19 C16,17.34 13,19.67 13,19.67 Z" fill="none" stroke="currentColor" stroke-width="1.5"/><path d="M14.33,17 C14.33,18 15,18.67 16,18.67 C17,18.67 18,17.67 18,16.67 C18,15.67 17,15 16,15 C15,15 14.33,16 14.33,17 Z" fill="none" stroke="currentColor" stroke-width="1.5"/><path d="M9.67,21.67 C9.67,26 9.67,26 9.67,26 C15.67,25.67 15.67,25.67 15.67,25.67 C15.67,21 15.67,21 15.67,21 C12.67,19.34 9.67,21.67 9.67,21.67 Z" fill="none" stroke="currentColor" stroke-width="1.5"/><path d="M10.67,19 C10.67,20 11.67,20.67 12.67,20.67 C13.67,20.67 14.67,19.67 14.67,18.67 C14.67,17.67 13.67,17 12.67,17 C11.67,17 10.67,18 10.67,19 Z" fill="none" stroke="currentColor" stroke-width="1.5"/><path d="M16.33,21 C16.33,25.67 16.33,25.67 16.33,25.67 C22.67,24.34 22.67,24.34 22.67,24.34 C22.67,20.67 22.67,20.67 22.67,20.67 C19.67,19 16.33,21 16.33,21 Z" fill="none" stroke="currentColor" stroke-width="1.5"/><path d="M17.67,18.34 C17.67,19.67 18.33,20.34 19.33,20.34 C20.33,20.34 21.33,19.34 21.33,18.34 C21.33,17.34 20.33,16.34 19.33,16.67 C18.33,16.67 17.67,17.34 17.67,18.34 Z" fill="none" stroke="currentColor" stroke-width="1.5"/><path d="M6.33,23.34 C6.33,27.67 6.33,27.67 6.33,27.67 C12.33,27.34 12.33,27.34 12.33,27.34 C12.33,23 12.33,23 12.33,23 C9.33,21.34 6.33,23.34 6.33,23.34 Z" fill="none" stroke="currentColor" stroke-width="1.5"/><path d="M7.33,20.67 C7.33,21.67 8.33,22.34 9.33,22.34 C10.33,22.34 11,21.34 11,20.34 C11,19.34 10.33,18.67 9.33,18.67 C8.33,18.67 7.33,19.67 7.33,20.67 Z" fill="none" stroke="currentColor" stroke-width="1.5"/><path d="M13.33,23 C13.33,27.34 13.33,27.34 13.33,27.34 C19.67,27 19.67,27 19.67,27 C19.67,22.67 19.67,22.67 19.67,22.67 C16.67,21 13.33,23 13.33,23 Z" fill="none" stroke="currentColor" stroke-width="1.5"/><path d="M14.67,20.34 C14.67,21.34 15.33,22 16.33,22 C17.33,22 18.33,21 18.33,20 C18.33,19 17.33,18.34 16.33,18.34 C15.33,18.34 14.67,19.34 14.67,20.34 Z" fill="none" stroke="currentColor" stroke-width="1.5"/><path d="M20.33,22.67 C20.33,27 20.33,27 20.33,27 C26.33,26.67 26.33,26.67 26.33,26.67 C26.33,22 26.33,22 26.33,22 C23.33,20.34 20.33,22.67 20.33,22.67 Z" fill="none" stroke="currentColor" stroke-width="1.5"/><path d="M21.33,20 C21.33,21 22.33,21.67 23.33,21.67 C24.33,21.67 25,20.67 25,19.67 C25,18.67 24.33,18 23.33,18 C22.33,18 21.33,19 21.33,20 Z" fill="none" stroke="currentColor" stroke-width="1.5"/><path d="M73.33,19.67 C73.33,23 73.33,23 73.33,23 C67.33,22.67 67.33,22.67 67.33,22.67 C67.33,19 67.33,19 67.33,19 C70.33,17.34 73.33,19.67 73.33,19.67 Z" fill="none" stroke="currentColor" stroke-width="1.5"/><path d="M72.33,17 C72.33,18 71.33,18.67 70.33,18.67 C69.33,18.67 68.33,17.67 68.33,16.67 C68.33,15.67 69.33,15 70.33,15 C71.33,15 72.33,16 72.33,17 Z" fill="none" stroke="currentColor" stroke-width="1.5"/><path d="M76.67,21.67 C76.67,25.67 76.67,25.67 76.67,25.67 C70.67,24.67 70.67,24.67 70.67,24.67 C70.67,21 70.67,21 70.67,21 C73.67,19.34 76.67,21.67 76.67,21.67 Z" fill="none" stroke="currentColor" stroke-width="1.5"/><path d="M75.67,19 C75.67,20 74.67,20.67 73.67,20.67 C72.67,20.67 72,19.67 72,18.67 C72,17.67 72.67,17 73.67,17 C74.67,17 75.67,18 75.67,19 Z" fill="none" stroke="currentColor" stroke-width="1.5"/><path d="M70,21 C70,24.67 70,24.67 70,24.67 C63.67,24.34 63.67,24.34 63.67,24.34 C63.67,20.67 63.67,20.67 63.67,20.67 C67,19 70,21 70,21 Z" fill="none" stroke="currentColor" stroke-width="1.5"/><path d="M68.67,18.34 C68.67,19.67 68,20.34 67,20.34 C66,20.34 65,19.34 65,18.34 C65,17.34 66,16.34 67,16.67 C68,16.67 68.67,17.34 68.67,18.34 Z" fill="none" stroke="currentColor" stroke-width="1.5"/><path d="M80.33,23.34 C80.33,27.67 80.33,27.67 80.33,27.67 C74,27 74,27 74,27 C74,23 74,23 74,23 C77,21.34 80.33,23.34 80.33,23.34 Z" fill="none" stroke="currentColor" stroke-width="1.5"/><path d="M79,20.67 C79,21.67 78.33,22.34 77,22.34 C76,22.34 75.33,21.34 75.33,20.34 C75.33,19.34 76,18.67 77,18.67 C78.33,18.67 79,19.67 79,20.67 Z" fill="none" stroke="currentColor" stroke-width="1.5"/><path d="M73,23 C73,27 73,27 73,27 C66.67,26.67 66.67,26.67 66.67,26.67 C66.67,22.67 66.67,22.67 66.67,22.67 C70,21 73,23 73,23 Z" fill="none" stroke="currentColor" stroke-width="1.5"/><path d="M71.67,20.34 C71.67,21.34 71,22 70,22 C69,22 68,21 68,20 C68,19 69,18.34 70,18.34 C71,18.34 71.67,19.34 71.67,20.34 Z" fill="none" stroke="currentColor" stroke-width="1.5"/><path d="M66.33,22.34 C66.33,26.67 66.33,26.67 66.33,26.67 C60,26.34 60,26.34 60,26.34 C60,22 60,22 60,22 C63,20.34 66.33,22.34 66.33,22.34 Z" fill="none" stroke="currentColor" stroke-width="1.5"/><path d="M65,20 C65,21 64.33,21.67 63,21.67 C62,21.67 61.33,20.67 61.33,19.67 C61.33,18.67 62,18 63,18 C64.33,18 65,19 65,20 Z" fill="none" stroke="currentColor" stroke-width="1.5"/></svg>