<svg xmlns="http://www.w3.org/2000/svg" viewBox="0 0 65.0 55.34" width="24" height="24"><path d="M27,4 L33,0 L36.33,0 L36,3 L31.67,7 Z" fill="none" stroke="currentColor" stroke-width="1.5"/><path d="M4.67,32.34 L47,32.34 L47,55.34 L4.67,55.34 Z" fill="none" stroke="currentColor" stroke-width="1.5"/><path d="M47,32.34 L62,18 L62,40 L47,55.34 Z" fill="none" stroke="currentColor" stroke-width="1.5"/><path d="M54.67,50.67 L51.67,50.67 L51.33,30 L54,29 L55.33,30.34 L55.67,48 Z" fill="none" stroke="currentColor" stroke-width="1.5"/><path d="M54,29 L54.67,50.67 L60.33,44.34 L58,24.34 Z" fill="none" stroke="currentColor" stroke-width="1.5"/><path d="M50.33,34 L28.67,5.67 L36,0 L65,18 Z" fill="none" stroke="currentColor" stroke-width="1.5"/><path d="M53.67,22 L57,18.67 L55.33,5.34 L52.33,6.67 L52.33,18.67 Z" fill="none" stroke="currentColor" stroke-width="1.5"/><path d="M48.67,17.34 L53.67,22 L53.33,6 L50.67,5.67 Z" fill="none" stroke="currentColor" stroke-width="1.5"/><path d="M50.67,5.67 L53,7.34 L55.33,5.34 L52.67,4.67 Z" fill="none" stroke="currentColor" stroke-width="1.5"/><path d="M30.67,4 L50.67,34 L0,34 L27,4 Z" fill="none" stroke="currentColor" stroke-width="1.5"/><path d="M37,45.34 L37,41 L13.33,41 L13.33,45.34 Z" fill="none" stroke="currentColor" stroke-width="1.5"/><path d="M29.67,43.34 L35.67,43.34" fill="none" stroke="currentColor" stroke-width="1.5"/><path d="M41,41 L41,37 L37,41 L37,45.34 Z" fill="none" stroke="currentColor" stroke-width="1.5"/><path d="M33,49 L33,48 L35,45 L35,46.67 Z" fill="none" stroke="currentColor" stroke-width="1.5"/><path d="M33,48 L33,49 L14,49 L14,48 Z" fill="none" stroke="currentColor" stroke-width="1.5"/><path d="M33,48 L14,48 L16,45 L35,45 Z" fill="none" stroke="currentColor" stroke-width="1.5"/><path d="M41,37 L17.33,37 L13.33,41 L37,41 Z" fill="none" stroke="currentColor" stroke-width="1.5"/><path d="M36.67,37.34 L20.67,37.34 L18,39.67 L34,39.67 Z" fill="none" stroke="currentColor" stroke-width="1.5"/><path d="M17.67,26.67 L34,26.67 L34,38.67 L17.67,38.67 Z" fill="none" stroke="currentColor" stroke-width="1.5"/><path d="M19,29.34 C19,28.34 20.33,28 20.33,28 C20.33,28 30,28 31,28 C32.67,28 32.33,29.34 32.33,29.34 C32.33,29.34 32.33,35.34 32.33,36 C32.33,37 31.33,37.34 31.33,37.34 C31.33,37.34 21.67,37.34 20.33,37.34 C19.33,37.34 19,36.34 19,36.34 Z" fill="none" stroke="currentColor" stroke-width="1.5"/><path d="M36.67,24.34 L20.33,24.34 L17.67,26.67 L34,26.67 Z" fill="none" stroke="currentColor" stroke-width="1.5"/><path d="M36.67,36.34 L36.67,24.34 L34,26.67 L34,38.67 Z" fill="none" stroke="currentColor" stroke-width="1.5"/></svg>