<svg xmlns="http://www.w3.org/2000/svg" viewBox="0 0 38.33 34.67" width="24" height="24"><path d="M5.67,31 L5.67,25.67 L33.33,25.67 L33.33,31 Z" fill="none" stroke="currentColor" stroke-width="1.5"/><path d="M38.33,21 L38.33,26.34 L33.33,31 L33.33,25.67 L5.67,25.67 Z" fill="none" stroke="currentColor" stroke-width="1.5"/><path d="M33.33,25.67 L33.33,4.67 L5.67,4.67 L5.67,25.67 Z M33.33,25.67 L38.33,21 L38.33,0 L10.33,0 L5.67,4.67 L33.33,4.67 Z M33.33,4.67 L38.33,0" fill="none" stroke="currentColor" stroke-width="1.5"/><path d="M32,34.67 L32,31.67 L0,31.67 L3.67,28 L35.67,28 L35.67,31 Z M32,31.67 L32,34.67 L0,34.67 L0,31.67 Z M32,31.67 L35.67,28" fill="none" stroke="currentColor" stroke-width="1.5"/><rect x="0" y="0" width="0" height="0" fill="none" stroke="currentColor"/><path d="M31,23.34 L31,7 L8,7 L8,23.34 Z" fill="none" stroke="currentColor" stroke-width="1.5"/></svg>