<svg xmlns="http://www.w3.org/2000/svg" viewBox="0 0 86.33 33.0" width="24" height="24"><path d="M53,31 L53,9.67 L51,11.67 L51,33 Z M51,33 L51,11.67 L0,11.67 L0,33 Z M53,9.67 L2.33,9.67 L0,11.67 L51,11.67 Z" fill="none" stroke="currentColor" stroke-width="1.5"/><path d="M53,9.67 L51,11.67 M10.67,33 L10.67,11.67 M20.33,33 L20.33,11.67 M30,33 L30,11.67 M40,33 L40,11.67" fill="none" stroke="currentColor" stroke-width="1.5"/><path d="M57.33,14 L59.33,16.67 L53,20.34 L53,16.34 Z M60.33,19 L62,22 L53,27.34 L53,23.34 Z M80,19.34 L69.33,0.67 L68.67,3.34 L79.33,22 Z M79,22 L68.67,3.67 L55.67,11 L66.33,29.34 Z M69.33,0.67 L56.67,8.34 L55.67,11 L68.67,3.67 Z" fill="none" stroke="currentColor" stroke-width="1.5"/><path d="M69.33,0.67 L68.67,3.67" fill="none" stroke="currentColor" stroke-width="1.5"/><path d="M86.33,9.34 L81,0 L80.33,1.67 L85.67,11 Z M85.67,11 L80.33,2 L70.67,5 L78.33,18 Z M81,0 L71.33,3 L70.67,5 L80.33,2 Z" fill="none" stroke="currentColor" stroke-width="1.5"/>M81,0 L80.33,2 </svg>