<svg xmlns="http://www.w3.org/2000/svg" viewBox="0 0 63.66 31.0" width="24" height="24"><path d="M0,15.66 L19.33,0 L63.66,0 L47.66,15.66 Z M47.66,31 L63.66,13.66 L63.66,0 L47.66,15.66 Z M47.66,31 L47.66,15.66 L0,15.66 L0,31 Z" fill="none" stroke="currentColor" stroke-width="1.5"/><path d="M24,31 L24,15.66" fill="none" stroke="currentColor" stroke-width="1.5"/><path d="M32.66,28 L41,23.33 L32.66,18.66 Z" fill="none" stroke="currentColor" stroke-width="1.5"/><path d="M18.33,8 L18.33,8 L39.33,8 L36.66,10.66 L48.33,7.33 L43.66,4 L41,6.66 L20,6.66 Z M13.66,20.33 L3.66,20.33 L3.66,19 L13.66,19 L13.66,17 L19.66,19.66 L13.66,22.33 Z M13.66,27.33 L3.66,27.33 L3.66,26 L13.66,26 L13.66,24 L19.66,26.66 L13.66,29.33 Z" fill="none" stroke="currentColor" stroke-width="1.5"/></svg>