<svg xmlns="http://www.w3.org/2000/svg" viewBox="0 0 57.33 54.99" width="24" height="24"><path d="M51.33,37.66 L56,12.33 L20.33,12.33 L15.33,37.66 Z M56,12.33 L57.33,14 L53,38.66 L51.33,37.66 Z M15.33,37.66 L16.66,38.66 L53,38.66 L51.33,37.66 Z" fill="none" stroke="currentColor" stroke-width="1.5"/><path d="M51.66,39.33 C51.66,43 51.66,43 51.66,43 C50.66,44 50.66,44 50.66,44 C50.66,44 48.66,44.33 49,45.66 C39.33,54.99 39.33,54.99 39.33,54.99 C39.33,51 39.33,51 39.33,51 Z" fill="none" stroke="currentColor" stroke-width="1.5"/><path d="M0,51 L0,54.99 L39.33,54.99 L39.33,51 Z" fill="none" stroke="currentColor" stroke-width="1.5"/><path d="M15.66,39.66 L51.66,39.33 L39.33,51 L0,51 Z" fill="none" stroke="currentColor" stroke-width="1.5"/><path d="M48.33,35.33 L52,15.33 L23.33,15.33 L19.33,35.33 Z" fill="none" stroke="currentColor" stroke-width="1.5"/><path d="M16.66,40 L7.33,47.33 M19.33,40 L10.33,47.33 M22.33,40 L13.33,47.33 M25.33,40 L16.33,47.33 M28.33,40 L19,47.33 M31,40 L22,47.33 M34,40 L25,47.33 M37,40 L28,47.33 M40,40 L30.66,47.33 M42.66,40 L33.66,47.33 M45.66,40 L36.66,47.33 M48.66,40 L39.66,47.33 M8.33,46.33 L40.66,46.33 M10.66,44.66 L42.33,44.66 M13,43 L44.66,43 M15,41.33 L47,41.33" fill="none" stroke="currentColor" stroke-width="1.5"/><path d="M39.33,9 C41.66,9 43.66,7 43.66,4.66 C43.66,2 41.66,0 39.33,0 C36.66,0 34.66,2 34.66,4.66 C34.66,7 36.66,9 39.33,9 Z" fill="none" stroke="currentColor" stroke-width="1.5"/><path d="M32.66,11.33 C34,4.33 34,4.33 34,4.33 C34,7.33 36.33,10 39.33,10 C42.33,10 44.66,7.33 44.66,4.33 C45.66,11.33 45.66,11.33 45.66,11.33 Z" fill="none" stroke="currentColor" stroke-width="1.5"/><rect x="36.33" y="3.66" width="6" height="2" fill="none" stroke="currentColor"/><path d="M35.33,18 C40.33,18 40.33,18 40.33,18 C38,18.66 37,21.33 37,21.33 C39,22.66 39,22.66 39,22.66 C34.66,25.66 34.66,25.66 34.66,25.66 C32.33,19 32.33,19 32.33,19 C34,20 34,20 34,20 C34.33,19 35.33,18 35.33,18 Z" fill="none" stroke="currentColor" stroke-width="1.5"/><path d="M39.33,33.66 C40.33,31.33 38.33,29.33 38.33,29.33 C36.33,30.33 36.33,30.33 36.33,30.33 C36,25 36,25 36,25 C42.66,26.66 42.66,26.66 42.66,26.66 C41,27.66 41,27.66 41,27.66 C42.66,30 42.33,32.66 42.33,32.66 C41.33,34 39.33,33.66 39.33,33.66 Z" fill="none" stroke="currentColor" stroke-width="1.5"/><path d="M27.33,26.33 C29,27 31,26.66 31,26.66 C31,24.33 31,24.33 31,24.33 C35.66,27 35.66,27 35.66,27 C31,32 31,32 31,32 C30.66,30 30.66,30 30.66,30 C29.33,30 28.33,29.66 27.33,29.33 Z" fill="none" stroke="currentColor" stroke-width="1.5"/></svg>