<svg xmlns="http://www.w3.org/2000/svg" viewBox="0 0 49.0 33.33" width="24" height="24"><path d="M49,9.67 C49,15 38,19.33 24.67,19.33 C11,19.33 0,15 0,9.67 C0,23.67 0,23.67 0,23.67 C0,29 11,33.33 24.67,33.33 C38,33.33 49,29 49,23.67 Z" fill="none" stroke="currentColor" stroke-width="1.5"/><path d="M24.67,19.33 C38,19.33 49,15 49,9.67 C49,4.33 38,0 24.67,0 C11,0 0,4.33 0,9.67 C0,15 11,19.33 24.67,19.33 Z" fill="none" stroke="currentColor" stroke-width="1.5"/><rect x="0" y="0" width="0" height="0" fill="none" stroke="currentColor"/><path d="M19,6 L21,9 L13.34,10.67 L15,9.33 L3,7.33 L6,5 L17.67,7 Z M29.67,13.33 L28.34,10.33 L35.34,8.67 L34,10 L45.67,12 L42.67,14 L31.34,12 Z M26,4.33 L33.67,2.33 L33.67,5.33 L31.67,5 L28,8.33 L24.34,7.67 L28.34,4.67 Z M22.67,16.33 L15.34,17.67 L15,14 L17,14.67 L21,11 L24.67,11.67 L20.34,15.67 Z" fill="none" stroke="currentColor" stroke-width="1.5"/><rect x="19" y="20.33" width="11.34" height="11.34" fill="none" stroke="currentColor"/></svg>