<svg xmlns="http://www.w3.org/2000/svg" viewBox="0 0 63.67 31.67" width="24" height="24"><path d="M47.67,31.67 L47.67,15.67 L0,15.67 L0,31.67 Z M0,15.67 L19.34,0 L63.67,0 L47.67,15.67 Z M47.67,31.67 L63.67,14.34 L63.67,0 L47.67,15.67 Z" fill="none" stroke="currentColor" stroke-width="1.5"/><path d="M28,11.67 L27,12.34 L15,12.34 L14,13.67 L10.67,12.34 L17.34,10.34 L16,11.67 Z M37.34,6 L36.34,6.67 L24.34,6.67 L23.34,7.67 L20,6.34 L26.67,4.67 L25.34,6 Z M30,9.67 L31,9 L43,9 L44,7.67 L47.34,9 L40.67,11 L42,9.67 Z M36.34,3.67 L37,3 L49,3 L50.34,2 L53.34,3.34 L47,5 L48,3.67 Z" fill="none" stroke="currentColor" stroke-width="1.5"/><path d="M29,29.34 L29,18.34 L17.67,18.34 L17.67,29.34 Z" fill="none" stroke="currentColor" stroke-width="1.5"/></svg>