<svg xmlns="http://www.w3.org/2000/svg" viewBox="0 0 34.66 35.0" width="24" height="24"><path d="M28.66,35 L28.66,5.66 L0,5.66 L0,35 Z" fill="none" stroke="currentColor" stroke-width="1.5"/><path d="M28.66,5.66 L0,5.66 L7.33,0 L34.66,0 L34.66,0 L34.66,29 L28.66,35 L28.66,6 Z M28.66,5.66 L34.66,0" fill="none" stroke="currentColor" stroke-width="1.5"/><path d="M14.33,26.66 C17.66,26.66 20.66,24 20.66,20.33 C20.66,17 17.66,14.33 14.33,14.33 C11,14.33 8.33,17 8.33,20.33 C8.33,24 11,26.66 14.33,26.66 Z" fill="none" stroke="currentColor" stroke-width="1.5"/><path d="M14.33,14.33 L25,14.33 M8.33,20.33 L8.33,9.66 M20.66,20.33 L20.66,31.33 M14.66,26.66 L3.66,26.66" fill="none" stroke="currentColor" stroke-width="1.5"/><path d="M23.33,11 L23.33,17.33 L27.33,14.33 Z M5,11.66 L11.33,11.66 L8.33,7.66 Z M24,29.33 L17.33,29.33 L20.66,33 Z M5.66,29.66 L5.66,23.33 L1.66,26.33 Z" fill="none" stroke="currentColor" stroke-width="1.5"/></svg>