<svg xmlns="http://www.w3.org/2000/svg" viewBox="0 0 34.66 35.34" width="24" height="24"><path d="M28.66,35.34 L28.66,6 L0,6 L0,35.34 Z M28.66,6 L0,6 L7.33,0 L34.66,0 L34.66,0 L34.66,29.34 L28.66,35.34 Z" fill="none" stroke="currentColor" stroke-width="1.5"/><path d="M28.66,6 L34.66,0" fill="none" stroke="currentColor" stroke-width="1.5"/><path d="M25,29.34 L18.66,29.34 L10,12 L4.33,12 M4,29.34 L10,29.34 L18.66,12 L25,12" fill="none" stroke="currentColor" stroke-width="1.5"/><path d="M23,9 L23,15 L26.66,12 Z M23,26 L23,32.34 L26.66,29.34 Z M5.33,15.34 L5.33,9 L1.66,12 Z M5.33,32.34 L5.33,26.34 L1.66,29.34 Z" fill="none" stroke="currentColor" stroke-width="1.5"/><rect x="0" y="0" width="0" height="0" fill="none" stroke="currentColor"/><path d="M20,26 L20,14.67 L9,14.67 L9,26 Z" fill="none" stroke="currentColor" stroke-width="1.5"/></svg>