<svg xmlns="http://www.w3.org/2000/svg" viewBox="0 0 40.67 37.33" width="24" height="24"><path d="M0,37.33 L10,32.66 L40.67,32.66 L30.67,37.33 Z" fill="none" stroke="currentColor" stroke-width="1.5"/><path d="M0,4.66 L10,0 L10,32.66 L0,37.33 Z" fill="none" stroke="currentColor" stroke-width="1.5"/><path d="M10,0 L40.67,0 L40.67,32.66 L10,32.66 Z" fill="none" stroke="currentColor" stroke-width="1.5"/><path d="M0,4.66 L10,0 L40.67,0 L30.67,4.66 Z" fill="none" stroke="currentColor" stroke-width="1.5"/><path d="M5.34,9.33 C6.34,9.33 7.34,11 7.34,13.66 C7.34,15.66 6.34,17.66 5.34,17.66 C4.34,17.66 3.67,15.66 3.67,13.66 C3.67,11 4.34,9.33 5.34,9.33" fill="none" stroke="currentColor" stroke-width="1.5"/><path d="M5.34,9.33 L30.67,9.33 L30.67,17.66 L5.34,17.66 Z" fill="none" stroke="currentColor" stroke-width="1.5"/><path d="M5.34,21.33 C6.34,21.33 7.34,23 7.34,25.66 C7.34,28 6.34,29.66 5.34,29.66 C4.34,29.66 3.67,28 3.67,25.66 C3.67,23 4.34,21.33 5.34,21.33" fill="none" stroke="currentColor" stroke-width="1.5"/><path d="M5.34,21.33 L30.67,21.33 L30.67,29.66 L5.34,29.66 Z" fill="none" stroke="currentColor" stroke-width="1.5"/><path d="M5.34,9.33 L31.34,9.33 M5.34,17.66 L31.34,17.66 M5.34,21.33 L31.34,21.33 M5.34,29.66 L31.34,29.66" fill="none" stroke="currentColor" stroke-width="1.5"/><path d="M6.67,13.66 L22.67,13.66 M29,25.66 L13.34,25.66" fill="none" stroke="currentColor" stroke-width="1.5"/><path d="M22.34,15.66 L29,13.66 L22.34,11.66 Z M13.67,23.66 L7,25.66 L13.67,27.66" fill="none" stroke="currentColor" stroke-width="1.5"/><path d="M30.67,4.66 L40.67,0 L40.67,32.66 L30.67,37.33 Z" fill="none" stroke="currentColor" stroke-width="1.5"/><path d="M36,9.33 C37,9.33 38,11 38,13.66 C38,15.66 37,17.66 36,17.66 C35,17.66 34.34,15.66 34.34,13.66 C34.34,11 35,9.33 36,9.33" fill="none" stroke="currentColor" stroke-width="1.5"/><path d="M36,21.33 C37,21.33 38,23 38,25.66 C38,28 37,29.66 36,29.66 C35,29.66 34.34,28 34.34,25.66 C34.34,23 35,21.33 36,21.33" fill="none" stroke="currentColor" stroke-width="1.5"/></svg>