<svg xmlns="http://www.w3.org/2000/svg" viewBox="0 0 57.67 30.34" width="24" height="24"><path d="M0,30.34 L0,9 L47.67,9 L47.67,30.34 Z M47.67,9 L0,9 L12,0 L57.67,0 Z M57.67,0 L57.67,20.67 L47.67,30.34 L47.67,9 Z" fill="none" stroke="currentColor" stroke-width="1.5"/><rect x="0" y="0" width="0" height="0" fill="none" stroke="currentColor"/><path d="M25.33,17.34 C27,17.34 27,17.34 27,17.34 C27.33,17.67 27.33,17.67 27.33,17.67 C28.67,17.67 28.67,17.67 28.67,17.67 C30,16.67 30,16.67 30,16.67 C31.33,16.67 31.33,16.67 31.33,16.67 C32.67,18 32.67,18 32.67,18 C34,18 34,18 34,18 C35.67,16.67 35.67,16.67 35.67,16.67 C37,16.67 37,16.67 37,16.67 C38,17.67 38,17.67 38,17.67 C39.33,17.67 39.33,17.67 39.33,17.67 C40,16.67 40,16.67 40,16.67 C43.67,19 43.67,19 43.67,19 C41,21.34 41,21.34 41,21.34 C25.33,21.34 25.33,21.34 25.33,21.34 C25.33,22 25.33,22 25.33,22 C23,22 23,22 23,22 C22.33,22 21.67,22.34 21.33,22.67 C20.33,24.67 18.33,26 16,26 C12.33,26 9.33,23 9.33,19.34 C9.33,15.67 12.33,12.67 16,12.67 C18.33,12.67 20.33,13.67 21.33,15.67 C21.67,16.34 22.33,16.67 23,16.67 C25.33,16.67 25.33,16.67 25.33,16.67 C25.33,17.34 25.33,17.34 25.33,17.34" fill="none" stroke="currentColor" stroke-width="1.5"/><path d="M42.33,20.34 C25.33,20.34 25.33,20.34 25.33,20.34 C24.67,20.34 23.67,20.34 23,21 C23.67,21.34 24.67,21.34 25.33,21.34" fill="none" stroke="currentColor" stroke-width="1.5"/><path d="M43,18.67 C26,18.67 26,18.67 26,18.67 C25.33,18.67 23.67,18.67 23.33,18.34" fill="none" stroke="currentColor" stroke-width="1.5"/><path d="M16,25 C19.33,25 21.67,22.34 21.67,19.34 C21.67,16 19.33,13.34 16,13.34 C12.67,13.34 10,16 10,19.34 C10,22.67 12.67,25 16,25 Z" fill="none" stroke="currentColor" stroke-width="1.5"/><path d="M12.67,20.67 C13.33,20.67 14,20 14,19.34 C14,18.34 13.33,17.67 12.67,17.67 C11.67,17.67 11,18.34 11,19.34 C11,20 11.67,20.67 12.67,20.67 Z" fill="none" stroke="currentColor" stroke-width="1.5"/></svg>