<svg xmlns="http://www.w3.org/2000/svg" viewBox="0 0 39.33 40.67" width="24" height="24"><path d="M5,33 L5.33,27 L34.33,27 L34.33,33 Z M33.66,40.67 L33.66,39 L37.33,33.67 L37.33,37 Z M33.66,39 L33.66,40.67 L0,40.67 L0,39 Z M5.33,5 L34.33,5 L34.33,27 L5.33,27 Z M34.33,27 L39.33,22 L39.33,0 L34.33,5 Z M33.66,39 L0,39 L4,33.67 L37.33,33.67 Z M34.33,33 L34.33,27 L39.33,22 L39.33,28.67 Z" fill="none" stroke="currentColor" stroke-width="1.5"/><path d="M10,7.33 C29.33,7.33 29.33,7.33 29.33,7.33 C30.66,7.33 31.66,8.67 31.66,9.67 C31.66,22 31.66,22 31.66,22 C31.66,23.33 30.66,24.33 29.33,24.33 C10,24.33 10,24.33 10,24.33 C8.66,24.33 7.66,23.33 7.66,22 C7.66,9.67 7.66,9.67 7.66,9.67 C7.66,8.67 8.66,7.33 10,7.33 Z" fill="none" stroke="currentColor" stroke-width="1.5"/><rect x="0" y="0" width="0" height="0" fill="none" stroke="currentColor"/><path d="M39.33,0 L11,0 L5.33,5 L34.33,5 L39.33,0 Z" fill="none" stroke="currentColor" stroke-width="1.5"/><path d="M16.33,11.33 C12.66,10.67 11,12.67 11.33,14 C11.33,14.33 11.33,14.33 11.33,14.33 C8.33,14.67 9.33,18 10.66,18 C10.66,18 10.66,18 10.66,18 C10.33,20.33 13.66,21.67 15.33,20.33 C15.33,20 15.33,20 15.33,20 C16,22.33 23.33,22.33 24.66,21 C24.66,21 24.66,21 24.66,21 C28,21 29.33,19 28.66,17.33 C28.66,17.33 28.66,17.33 28.66,17.33 C30,17 30,14.67 28,14.33 C28.33,14 28.33,14 28.33,14 C29,12.67 27,11 24.66,11.33 C24.33,11.33 24.33,11.33 24.33,11.33 C22.33,9.67 17,9.67 16.33,11.33 Z" fill="none" stroke="currentColor" stroke-width="1.5"/></svg>