<svg xmlns="http://www.w3.org/2000/svg" viewBox="0 0 46.67 40.34" width="24" height="24"><path d="M13,13.34 C8.33,14.34 5,25.67 5,25.67 C3,30.67 0,35 0,35 C32,35 32,35 32,35 C32,35 35.67,30.34 38.33,25.67 C38.33,25.67 41.67,14.34 46.67,13.34 Z" fill="none" stroke="currentColor" stroke-width="1.5"/><path d="M32,34.67 C32,40.34 32,40.34 32,40.34 C46.67,25.67 46.67,25.67 46.67,25.67 C46.67,13.34 46.67,13.34 46.67,13.34 C43.67,14 40.33,17.67 38,21.34 C36.33,23.34 35.33,25.34 34.33,26.67" fill="none" stroke="currentColor" stroke-width="1.5"/><path d="M22,6.67 C24.33,4.67 27.67,3 30.67,3.34 C34,3.34 36,5 36.67,7.34 M23.33,3.34 C25.67,1.34 29,0 32,0 C35.33,0 37.33,1.67 38,4 M21,10 C23.33,7.67 26.33,6.34 29.67,6.34 C32.67,6.67 35,8.34 35.67,10.67 M19.67,13.34 C22,11 25.33,9.67 28.33,9.67 C31.33,10 33.67,11.34 34.33,14" fill="none" stroke="currentColor" stroke-width="1.5"/><rect x="0" y="0" width="0" height="0" fill="none" stroke="currentColor"/><path d="M18.33,16.67 C20.67,14.34 24,13 27,13 C30.33,13 32.33,14.67 33,17.34" fill="none" stroke="currentColor" stroke-width="1.5"/><path d="M35.67,23.67 C36,27.34 29.67,31 21.33,31.67 C13,32.34 6.33,30 6,26 C5.67,22.34 12,18.67 20.33,18 C28.33,17.34 35.33,19.67 35.67,23.67 Z" fill="none" stroke="currentColor" stroke-width="1.5"/><path d="M34.33,22.67 C34.67,26 28.67,29.34 21.33,30 C13.67,30.67 7.67,28.34 7.33,25 C7,21.67 12.67,18.34 20.33,17.67 C27.67,17 34,19.34 34.33,22.67 Z" fill="none" stroke="currentColor" stroke-width="1.5"/><path d="M0,40.34 L32,40.34 L32,34.67 L0,34.67 Z" fill="none" stroke="currentColor" stroke-width="1.5"/></svg>