<svg xmlns="http://www.w3.org/2000/svg" viewBox="0 0 50.67 60.0" width="24" height="24"><path d="M0,24 L10,16.33 L50.67,13 L40.34,24 Z" fill="none" stroke="currentColor" stroke-width="1.5"/><path d="M40.34,60 L50.67,49.33 L50.67,13.33 L40.34,24 Z" fill="none" stroke="currentColor" stroke-width="1.5"/><path d="M40.34,60 L40.34,24 L0,24 L0,60 Z" fill="none" stroke="currentColor" stroke-width="1.5"/><path d="M0,10.67 L13.34,0 L50.67,0 L40.34,10.67 Z" fill="none" stroke="currentColor" stroke-width="1.5"/><path d="M40.34,24 L50.67,13.33 L50.67,0 L40.34,10.67 Z" fill="none" stroke="currentColor" stroke-width="1.5"/><path d="M40.34,24 L40.34,10.67 L0,10.67 L0,24 Z" fill="none" stroke="currentColor" stroke-width="1.5"/><rect x="0" y="0" width="0" height="0" fill="none" stroke="currentColor"/><path d="M37.67,17.33 C37.67,17.33 35,24 32,17.33 C28.67,10.67 26,17.33 26,17.33 C26,17.33 23.34,24 20.34,17.33 C17.34,10.67 14.67,17.33 14.67,17.33 C14.67,17.33 12,24 9,17.33 C5.67,10.67 3,17.33 3,17.33" fill="none" stroke="currentColor" stroke-width="1.5"/><path d="M3,17.33 C3,17.33 5.67,24 9,17.33 C12,10.67 14.67,17.33 14.67,17.33 C14.67,17.33 17.34,24 20.34,17.33 C23.67,10.67 26,17.33 26,17.33 C26,17.33 28.67,24 32,17.33 C35,10.67 37.67,17.33 37.67,17.33" fill="none" stroke="currentColor" stroke-width="1.5"/><path d="M37,17.33 C37,17.33 34.34,24 31.34,17.33 C28,10.67 25.34,17.33 25.34,17.33 C25.34,17.33 23,24 19.67,17.33 C16.67,10.67 14,17.33 14,17.33 C14,17.33 11.34,24 8.34,17.33 C5,10.67 2.67,17.33 2.67,17.33" fill="none" stroke="currentColor" stroke-width="1.5"/><path d="M2.67,17.33 C2.67,17.33 5,24 8.34,17.33 C11.34,10.67 14,17.33 14,17.33 C14,17.33 16.67,24 19.67,17.33 C23,10.67 25.67,17.33 25.67,17.33 C25.67,17.33 28,24 31.34,17.33 C34.34,10.67 37,17.33 37,17.33" fill="none" stroke="currentColor" stroke-width="1.5"/><path d="M21.34,36.67 L21.34,29 L22.67,29 L20.67,26 L18.67,29 L20,29 L20,36.67 Z M17.34,38 L12,32.33 L12.67,31.33 L9.34,30.67 L10,34.33 L11,33.33 L16.34,38.67 Z M15.34,41.33 L7.67,41.33 L7.67,40 L4.67,42 L7.67,44 L7.67,42.67 L15.34,42.67 Z M16.34,45.33 L11,50.67 L10,50 L9.34,53.33 L12.67,52.67 L12,51.67 L17.34,46.33 Z M20,47.33 L20,55 L18.67,55 L20.67,58 L22.67,55 L21.34,55 L21.34,47.33 Z M24,46.33 L29.34,51.67 L28.34,52.67 L32,53.33 L31,50 L30.34,50.67 L24.67,45.33 Z M26,42.67 L33.67,42.67 L33.67,44 L36.34,42 L33.67,40 L33.67,41.33 L26,41.33 Z M24.67,38.67 L30.34,33.33 L31,34.33 L32,30.67 L28.34,31.33 L29.34,32.33 L24,38 Z" fill="none" stroke="currentColor" stroke-width="1.5"/><path d="M25.34,48.67 C29,46 29.67,41 27.34,37.33 C24.67,33.67 19.67,33 16,35.33 C12.34,38 11.67,43 14,46.67 C16.67,50.33 21.67,51 25.34,48.67 Z" fill="none" stroke="currentColor" stroke-width="1.5"/><path d="M15,6.67 L19,6.33 L18.34,7.33 L17.34,7.33 L12.67,9 L11.34,8.67 L16,7 Z M33,6.67 L29.34,6 L29.67,7.33 L30.67,7.33 L34,8.67 L35.34,8.33 L32,7 Z M26.67,2.67 L24.67,2.67 L30.67,1.33 L33.34,3 L31.34,3 L31,3 L27.67,5 L23.34,5 L27,2.67 Z M23,7.67 L21.67,7.67 L25,6 L25.34,7.67 L23.67,7.67 L24,7.67 L22.34,9.33 L21,9.33 L22.67,7.67 Z" fill="none" stroke="currentColor" stroke-width="1.5"/><path d="M14.67,6.33 L19,6 L18.34,7.33 L17,7 L12.34,9 L11.34,8.67 L15.67,7 Z M33,6.33 L29.34,6 L29.67,7.33 L30.67,7 L34,8.67 L35,8.33 L31.67,7 Z M26.34,2.67 L24.67,2.67 L30.67,1.33 L33.34,3 L31.34,3 L31,3 L27.67,5 L23.34,5 Z M22.67,7.67 L21.34,7.67 L24.67,5.67 L25,7.67 L23.67,7.67 L23.67,7.67 L22,9.33 L21,9.33 Z" fill="none" stroke="currentColor" stroke-width="1.5"/></svg>