<svg xmlns="http://www.w3.org/2000/svg" viewBox="0 0 41.34 42.33" width="24" height="24"><path d="M41.34,24.33 L37.34,29.33 L5.67,29.33 L10.67,24 Z" fill="none" stroke="currentColor" stroke-width="1.5"/><path d="M5.67,35 L5.67,29.33 L36,29.33 L36,35 Z" fill="none" stroke="currentColor" stroke-width="1.5"/><path d="M5.34,5.33 L36,5.33 L36,28 L5.34,28 Z" fill="none" stroke="currentColor" stroke-width="1.5"/><path d="M36,28 L41.34,23 L41.34,0 L36,5.33 Z" fill="none" stroke="currentColor" stroke-width="1.5"/><path d="M36,35 L36,29.33 L41.34,24.33 L41.34,30 L36,35 Z" fill="none" stroke="currentColor" stroke-width="1.5"/><path d="M10.34,7.66 C30.67,7.66 30.67,7.66 30.67,7.66 C32,7.66 33.34,9 33.34,10.33 C33.34,23 33.34,23 33.34,23 C33.34,24.33 32,25.33 30.67,25.33 C10.34,25.33 10.34,25.33 10.34,25.33 C9,25.33 8,24.33 8,23 C8,10.33 8,10.33 8,10.33 C8,9 9,7.66 10.34,7.66 Z" fill="none" stroke="currentColor" stroke-width="1.5"/><path d="M41.34,0 L11.34,0 L5.34,5.33 L36,5.33 Z M35,42.33 L35,40.66 L39,35 L39,38.66 Z M35,40.66 L0,40.66 L4,35 L39,35 Z M35,40.66 L35,42.33 L0,42.33 L0,40.66 Z" fill="none" stroke="currentColor" stroke-width="1.5"/><path d="M17.67,11.66 C14,11 12,13 12.34,14.33 C12.34,14.66 12.34,14.66 12.34,14.66 C9.67,15 10.34,18.33 11.67,18.33 C11.67,18.33 11.67,18.33 11.67,18.33 C11.34,20.66 14.67,22 16.67,20.66 C16.67,20.33 16.67,20.33 16.67,20.33 C17,22.66 24.34,22.66 25.67,21.33 C26,21.33 26,21.33 26,21.33 C29,21.33 30.34,19.33 29.67,17.66 C30,17.66 30,17.66 30,17.66 C31,17.33 31,15 29.34,14.66 C29.34,14.33 29.34,14.33 29.34,14.33 C30,13 28.34,11.33 25.67,11.66 C25.34,11.66 25.34,11.66 25.34,11.66 C23.67,10 18.34,10 17.67,11.66 Z" fill="none" stroke="currentColor" stroke-width="1.5"/></svg>