<svg xmlns="http://www.w3.org/2000/svg" viewBox="0 0 304.0 200.0" width="24" height="24"><rect x="0" y="0" width="304" height="200" fill="none" stroke="currentColor"/><path d="M0,188 L32,188 M0,176 L32,176 M0,164 L32,164 M0,152 L32,152 M0,140 L32,140 M0,128 L32,128 M0,116 L32,116 M0,104 L32,104 M0,92 L32,92 M0,80 L32,80 M0,68 L32,68 M0,32 L304,32 M32,0 L32,200 M272,0 L272,200 M44,0 L44,32 M56,0 L56,32 M68,0 L68,32 M80,0 L80,32 M104,0 L104,32 M116,0 L116,32 M128,0 L128,32 M140,0 L140,32 M152,0 L152,32 M92,0 L92,32 M164,0 L164,32 M176,0 L176,32 M188,0 L188,32 M200,0 L200,32 M212,0 L212,32 M224,0 L224,32 M236,0 L236,32 M272,44 L304,44 M272,56 L304,56 M272,68 L304,68 M272,152 L304,152 M272,80 L304,80 M272,92 L304,92 M272,104 L304,104 M272,116 L304,116 M272,128 L304,128 M272,140 L304,140 M272,164 L304,164 M272,176 L304,176 M272,188 L304,188 M32,200 L110,176 M32,32 L110,152 M272,32 L194,152 M272,200 L194,176 M0,56 L32,56 M0,44 L32,44 M248,0 L248,32 M260,0 L260,32" fill="none" stroke="currentColor" stroke-width="1.5"/><rect x="110" y="152" width="84" height="24" fill="none" stroke="currentColor"/></svg>