<svg xmlns="http://www.w3.org/2000/svg" viewBox="0 0 440.03 181.67" width="24" height="24"><path d="M254.61,70.76 L257.61,94.76 L221.61,70.76 L247.61,65.76 Z" fill="none" stroke="currentColor" stroke-width="1.5"/><path d="M253.83,65.27" fill="none" stroke="currentColor" stroke-width="1.5"/><path d="M306.19,70.35 L309.19,94.35 L273.19,70.35 L299.19,65.35 Z" fill="none" stroke="currentColor" stroke-width="1.5"/><path d="M305.41,64.86" fill="none" stroke="currentColor" stroke-width="1.5"/><path d="M221.55,153.39 L218.66,129.37 L254.55,153.53 L228.53,158.42 Z" fill="none" stroke="currentColor" stroke-width="1.5"/><path d="M222.3,158.88" fill="none" stroke="currentColor" stroke-width="1.5"/><path d="M273.47,151.97 L270.57,127.96 L306.47,152.12 L280.44,157 Z" fill="none" stroke="currentColor" stroke-width="1.5"/><path d="M274.22,157.46" fill="none" stroke="currentColor" stroke-width="1.5"/><path d="M444.12,127.58 L420.13,130.63 L444.05,94.58 L449.11,120.57 Z" fill="none" stroke="currentColor" stroke-width="1.5"/><path d="M449.61,126.79" fill="none" stroke="currentColor" stroke-width="1.5"/><path d="M184.34,94.13 L208.35,91.18 L184.27,127.13 L179.33,101.12 Z" fill="none" stroke="currentColor" stroke-width="1.5"/><path d="M178.85,94.9" fill="none" stroke="currentColor" stroke-width="1.5"/><path d="M355.28,71.1 L358.28,95.1 L322.28,71.1 L348.28,66.1 Z" fill="none" stroke="currentColor" stroke-width="1.5"/><path d="M354.5,65.61" fill="none" stroke="currentColor" stroke-width="1.5"/><path d="M406.53,71.01 L409.53,95.01 L373.53,71.01 L399.53,66.01 Z" fill="none" stroke="currentColor" stroke-width="1.5"/><path d="M405.75,65.52" fill="none" stroke="currentColor" stroke-width="1.5"/><path d="M322.22,153.72 L319.32,129.71 L355.22,153.87 L329.19,158.75 Z" fill="none" stroke="currentColor" stroke-width="1.5"/><path d="M322.97,159.21" fill="none" stroke="currentColor" stroke-width="1.5"/><path d="M373.8,152.64 L370.91,128.62 L406.8,152.78 L380.78,157.67 Z" fill="none" stroke="currentColor" stroke-width="1.5"/><path d="M374.55,158.13" fill="none" stroke="currentColor" stroke-width="1.5"/><rect x="190.03" y="76.18" width="250" height="70" fill="none" stroke="currentColor"/></svg>