<svg xmlns="http://www.w3.org/2000/svg" viewBox="0 0 511.13 507.7" width="24" height="24"><path d="M54.89,507.7 L0,54.89 L456.24,0 L511.13,452.81 Z" fill="none" stroke="currentColor" stroke-width="1.5"/><path d="M65.63,351.92 C41.24,337.85 27.89,291.48 45.88,260.56 L162.72,59.74 C177.3,34.67 224.25,26.69 248.81,40.74 L445.41,153.21 C480.15,173.09 483.7,223.8 471.64,244.95 L360.29,440.12 C342.43,471.41 296.04,484.87 264.21,466.5 Z" fill="none" stroke="currentColor" stroke-width="1.5"/><path d="M241.91,385.5 C228.27,384.6 214.03,382.62 191.74,365.81 C183.08,359.48 167.17,345.12 157.22,319.8 C153.45,309.55 154.26,295.85 150.73,279.96 C148.21,266.7 142.65,259.96 132.99,253.92 C145.37,254.85 157.76,259.45 162.15,271.27 C165.37,276.64 167.24,277.65 171.16,271.41 C172.62,268.89 173.96,265.17 174.86,257.29 C175.69,244.61 177.49,240.91 179.14,235.84 C180.38,230.88 182.95,227.01 178.85,217.66 C174.83,207.85 171.53,199.38 170.11,194.37 C179.46,204.24 190.57,221.7 200.41,230.4 C204.25,234 208.55,234.29 208.86,229.12 C209.65,216.35 211.03,204.41 217.3,196.03 C220.24,191.68 221.94,186.53 217.49,173.42 C213.19,163.63 211.82,156.27 203.91,149.61 C196.89,142.67 192.23,138.95 188.32,136.24 C197.25,138.46 206.51,141.48 220.74,156.12 C228.62,165.23 236.22,171.68 243.53,175.53 C248.24,177.55 253.09,179.9 254.35,173.77 C255.79,167.37 256.6,159.85 251.05,142.91 C247.78,130.96 242.13,118.17 240.65,109.8 C237.55,93.37 239.5,82.36 248.14,69.95 C251.16,83.56 254.91,98.98 260.74,112.14 C266.29,122.34 270.51,126.8 275.27,133.09 C282.63,143.84 284.16,169.48 283.03,183.01 C282.02,193.16 280.37,205.23 278.51,217.92 C278.19,222.11 277.75,226.08 282.84,223.7 C285.16,222.49 287.02,223.86 294.9,208.42 C301.54,194.06 300.72,173.77 299.97,153.92 C312.67,166.96 321.96,181.57 319.98,201.39 C318.35,215.77 316.96,229.97 316.47,243.5 C316.12,255.52 319.18,259.18 327.11,254.07 C339.6,246.45 344.29,239.13 349.64,231.79 C355.28,222.86 358.86,212.06 360.49,195.6 C362.92,213.15 367.62,231.28 360.6,247.21 C353.63,261.83 348.14,275.55 346.27,287.06 C345.44,294.47 347.55,299.36 355.1,296.42 C365.2,291.42 371.43,275.06 376.74,255.98 C376.08,282.73 371.11,311.76 352.19,341.26 C332.48,370.16 303.21,381.2 293.23,378.22 C300.56,373.44 311.54,363.11 317.71,342.58 C319.92,333.44 322.58,312.97 312.85,302.7 C303.93,312.85 297.79,319.83 291.63,326.65 C293.84,319.51 296.59,313.02 297.42,304.61 C297.94,300.11 296.89,295.12 291.78,296.74 C281.49,300.59 277.91,307.04 272.23,312.07 C275.07,303.72 281.35,293.64 282.16,276.27 C283.32,258.98 278.23,245.03 271.49,231.97 C267.79,227.42 261.84,218.34 256.38,220.97 C252.96,222.96 253.64,232.54 256.23,241.3 C264.43,260.86 264.31,271.13 262.97,280.03 C260.89,287.87 254.76,289.77 250.8,283.29 C248.3,279.8 247.69,272.01 244.63,264.81 L240.41,254.35 C238.48,251.05 235.39,250.32 232.39,258.11 C228.48,267.31 228.69,277.82 231.01,289.01 C235.09,309.36 238.9,319.32 242.61,328.67 C234.49,323.44 227.33,315.83 223.27,304.97 C221.13,298.78 218.63,290.55 214.3,284.22 C210.15,277.92 207.38,280.6 206.6,283.3 C204.12,290.63 203.61,303.86 206.11,315.97 C201.13,312.7 189.8,307.86 184.61,307.95 C177.58,308.11 178.12,312.03 180.39,315.79 C188.89,326.93 208.95,344.3 218.34,364.36 C226.89,375.31 234.78,382.51 241.91,385.5 Z M271.41,458.22 C296.48,472.52 337.21,459.78 350.24,436.86 L463.79,237.11 C475.85,215.9 465.61,176.44 442.08,162.93 L246.47,50.62 C222.88,37.07 182.83,45.83 171.16,65.77 L53.89,266.23 C38.57,292.41 53.1,333.67 73.93,345.56 Z" fill="none" stroke="currentColor" stroke-width="1.5"/><path d="M0,54.89 L456.24,0 L511.13,188.67 Z" fill="none" stroke="currentColor" stroke-width="1.5"/></svg>