<svg xmlns="http://www.w3.org/2000/svg" viewBox="0 0 511.13 507.7" width="24" height="24"><path d="M54.89,507.7 L0,54.89 L456.24,0 L511.13,452.81 Z" fill="none" stroke="currentColor" stroke-width="1.5"/><path d="M350.27,295.01 C372.02,302.61 379.32,311.01 420.53,317.55 C426.13,318.14 432.13,316.87 435.91,311.21 C437.12,306.71 435.39,304.23 432.82,302.32 C426.81,297.82 418.32,293.63 407.04,293.12 C381.47,292.22 365.59,293.55 350.27,295.01 Z M196.64,321.92 C237.54,305.95 274.42,296.38 309.72,289.2 C280.42,270.19 262.31,245 248.21,217.59 C231.02,260.05 213.83,293.92 196.64,321.92 Z M165.77,336.18 C142.92,356.46 126.84,370.87 113.94,389.9 C111.12,394.1 104.58,402.28 106.46,408.09 C110.4,408.85 117.1,406.74 130.94,393.65 C171.67,344.12 209.64,274.54 241.34,200.34 C236.25,181.53 231.16,162.76 227.25,135.72 C225.55,119.09 224.59,103.55 227.11,93.11 C228.61,88.64 232.94,82.38 238.81,81.34 C242.89,80.9 251.34,80.27 257.3,82.3 C272.46,95.05 266.62,112 264.64,121.25 C264.19,111.43 263.54,103.25 257.79,93.19 C251.64,83.07 250.75,82.24 247.79,81.94 C244.28,82.24 242.37,89.98 241.12,100.75 C239.43,118.81 245.72,152.08 251.58,174.04 C255.72,160.24 259.71,145.77 262.72,126.92 C263.45,143.53 264.12,159.6 256.5,191.81 C273.68,237.66 298.16,267.23 331.26,284.75 C358.4,282.3 390.46,278.84 411.41,282.27 C429.2,285.53 435.5,291.89 437.18,297.55 C438.92,309.32 436.07,317.1 434.52,320.12 C431.68,325.17 422.96,328.47 416.07,328.21 C382,325.93 346.11,310.99 324.41,298.09 C262.63,308.11 232.02,316.88 193.63,328.7 C175.99,358.42 158.35,387.03 140.71,404.09 C131.05,412.15 120.87,418.63 107.24,414.79 L95.03,408.01 C92.11,400.61 95.89,392.55 98.8,386.6 C107.24,370.67 143.9,345.08 165.77,336.18 Z" fill="none" stroke="currentColor" stroke-width="1.5"/><path d="M0,54.89 L456.24,0 L511.13,188.67 Z" fill="none" stroke="currentColor" stroke-width="1.5"/></svg>