<svg xmlns="http://www.w3.org/2000/svg" viewBox="0 0 511.13 507.7" width="24" height="24"><path d="M54.89,507.7 L0,54.89 L456.24,0 L511.13,452.81 Z" fill="none" stroke="currentColor" stroke-width="1.5"/><path d="M104.22,322.67 C163.38,311.34 191.63,288.24 203.13,258.75 C214.21,230.61 213.66,202.46 253.18,174.32 C244.76,154.59 242.23,141.58 241.72,130.9 C249.88,102.82 269.47,85.65 302.63,81.45 C333.25,89.31 351.09,108.95 353.29,142.96 C345.6,176.82 325.48,185.85 306.85,197.84 C326.76,204.1 347.6,209.6 386.46,200.25 L397.31,247.29 C362.11,262.01 327.66,264.59 293.59,261.16 C338.92,303.12 356.19,347.24 372.59,391.42 L318.91,411.32 C302.31,372.55 279.42,340.43 243.53,322.07 C201.53,358.63 158.08,379.77 112.67,379.96 Z" fill="none" stroke="currentColor" stroke-width="1.5"/><path d="M297.44,185.61 C324,185.61 343.47,162.14 343.47,140.08 C343.47,116.26 326.1,92.57 296.09,92.57 C270.01,92.57 250.88,115.37 250.88,136.92 C250.88,170.44 275.71,185.61 297.44,185.61 Z M118.24,371.96 C158.75,371.01 208.84,348.72 234.08,318.58 C235.9,315.39 241.1,312.07 245.72,314.07 C288.26,340.05 312.84,370.26 324.11,399.25 L362.34,384.63 C347.66,342.57 323.8,302.68 285.43,266.24 C283.53,263.06 283.31,260.21 284.25,257.6 C286.22,254.53 289.04,252.9 292.99,253.23 C325.96,257.11 364.47,254.43 387.77,242.25 L380.73,209.52 C334.16,221.62 274.34,205.43 252.59,182.55 C235.61,198.09 223.7,214.38 216.24,240.33 C210.99,265.11 200.76,284.97 179.67,301.1 C156.01,318.95 130.93,324.89 111.34,329.3 Z M111.44,387.98 C106.68,387.84 104.38,386.49 103.13,379.99 L95.02,325.83 C94,319.1 94.96,315.59 102.49,313.89 C135.2,311.26 183.28,292.22 195.77,254.19 C202.92,222.68 214.31,196.31 242.3,169.51 C237.95,160.41 234.53,150.93 234.53,137.89 C234.53,103.22 264.47,76.9 297.69,76.9 C332.12,76.9 359.3,106 359.3,141.4 C359.3,164.27 342.94,186.23 323.06,195.77 C339.65,199.21 359.33,199.1 383.82,191.61 C389.66,190.79 393.51,193.64 394.38,198.12 L404.72,243.42 C405.61,248.95 404.66,252.28 400.24,254.51 C369.27,269.46 340.41,271.3 311.97,270.5 C338.33,299.55 367.7,343.45 378.65,385.53 C380.18,390.71 378.46,395.75 373.86,397.52 L322.63,416.98 C316.76,419.19 312.34,417.6 310.16,410.16 C299.87,371.94 263.07,343.41 243.64,331.37 C213.62,365.38 154.21,389.06 111.44,387.98 Z" fill="none" stroke="currentColor" stroke-width="1.5"/><path d="M0,54.89 L456.24,0 L511.13,188.67 Z" fill="none" stroke="currentColor" stroke-width="1.5"/></svg>