<svg xmlns="http://www.w3.org/2000/svg" viewBox="0 0 511.13 507.7" width="24" height="24"><path d="M54.89,507.7 L0,54.89 L456.24,0 L511.13,452.81 Z" fill="none" stroke="currentColor" stroke-width="1.5"/><path d="M241.72,303.6 C238.09,310.48 230.86,316.43 216.06,319.89 C213.09,320.71 197.44,320.72 193.83,318.45 C190.76,316.46 188.1,314.26 187.42,311.07 C187.11,305.93 186.84,301.78 188.1,299.08 C191.35,294.09 196.34,291.54 200.99,290.34 L241.72,282.87 Z M283.59,319.46 C278.12,322.42 270.94,324.84 269.57,316.91 L269.57,236.66 C269.57,232.29 266.29,224.04 255.41,216.69 C244.37,209.98 229.37,206.96 209.88,208.09 C189.56,210.33 180.23,219.16 172.82,229.14 C167.63,237.22 168.78,246.41 168.37,253.71 L192.56,253.92 C192.49,250.55 192.67,248.41 194.32,243.62 C197.07,235.85 204.81,230.98 210.38,230.86 C217.02,230.67 224.91,230.69 233.02,233.42 C237.17,235.05 240.88,237.04 241.72,241.18 L241.72,256.42 C241.62,259.42 239.84,261.9 233.59,262.13 C210.18,262.67 201.3,265.38 191.69,267.99 C177.06,273 169.81,279.52 164.84,292.25 C161.08,304.9 161.48,318.42 170.84,330.74 C178.96,340.59 193.31,344.33 207.3,344.54 C221.91,344.33 234.61,335.79 244.94,328.17 C248.74,338.05 257.28,344.98 266.84,344.64 C275.02,343.99 279,343.02 283.43,341.54 Z M347.38,339.79 L347.38,321.9 L338.13,321.9 L338.13,162.68 L301.65,162.68 L301.65,189.73 L310.66,189.73 L310.66,339.79 Z M256.77,443.66 C266.07,428.95 275.64,415.3 283,392.86 C251.62,399.23 197.9,393.04 160.28,372.65 C126.28,355.69 77.79,317.33 72.08,251.06 C68.03,214.94 86.67,155.83 146.18,120.31 C197.68,87.89 276.3,77.15 346.08,108.81 C406.67,135.51 438.58,185.35 441.61,231.24 C444.28,273.76 430.93,301.45 413.58,323.82 L413.58,321.9 L403.88,321.9 L403.88,162.68 L366.78,162.68 L366.78,189.73 L376.39,189.73 L376.39,339.93 L399.26,339.93 C359.25,392.54 303.3,418.22 256.77,443.66 Z" fill="none" stroke="currentColor" stroke-width="1.5"/><path d="M0,54.89 L456.24,0 L511.13,188.67 Z" fill="none" stroke="currentColor" stroke-width="1.5"/></svg>