<svg xmlns="http://www.w3.org/2000/svg" viewBox="0 0 511.13 507.7" width="24" height="24"><path d="M54.89,507.7 L0,54.89 L456.24,0 L511.13,452.81 Z" fill="none" stroke="currentColor" stroke-width="1.5"/><path d="M330.23,334.75 C325.27,339.08 321.22,340.4 316.79,336.59 C308.97,330.03 299.86,320.73 292.63,307.86 C281.54,318.61 268.88,331.56 250.27,336.42 C236.36,339.54 217.69,343.72 191.4,334.57 C166.02,325.1 153.71,298.69 153.71,277.9 C153.71,253.72 155.28,224.65 193.51,201.01 C226.61,185.11 255.97,186.7 283.4,183.09 L283.07,159.42 C282.7,156.13 281.82,142.26 262.4,135.77 C251.14,132.8 236.94,135.82 227.5,143.95 C222.82,148.81 219.68,154.05 218.45,162.07 C217.84,165.33 213.35,170.17 208.19,169.26 C194.01,166.94 183.75,166 166.96,164.46 C163.19,164.1 159.57,159.2 161.18,153.92 C164.31,134.17 173.2,122.64 183.22,112.74 C198.41,100.43 213.96,86.2 266.33,87.22 C311.76,88.78 345.35,113.34 345.35,151.11 L346.05,257.25 C346.05,268.68 350.1,277.04 352.38,281.15 L364.16,296.35 C366.2,299.38 366.47,302.49 364.04,305.69 Z M283.23,219.2 C257.64,219.17 237.54,224.18 226.46,237.48 C220.94,245.25 216.95,254.91 219.78,272.89 C221.76,282.69 226.46,289.54 234.28,293.01 C244.79,295.9 251.54,296.01 262.84,288.79 C274.46,280.37 283.23,262.79 283.23,247.58 L283.23,219.2 Z" fill="none" stroke="currentColor" stroke-width="1.5"/><path d="M390.34,397.84 C388.03,398.65 386,397.81 387,394.24 C390.51,384.29 394.15,376.88 397.45,362.25 C398.27,358.41 398.49,353.19 389.11,352.06 C376.93,350.77 366.69,352.71 355.8,353.55 C352.5,353.63 351.55,350.75 353.61,349.16 C369.87,340.96 382.79,335.55 407.73,341.52 C411.71,342.67 412.07,343.65 412.39,348.02 C412.55,366.01 405.7,384.67 390.34,397.84 Z M100.83,347.75 C98.19,344.73 101.82,338.85 105.92,341.76 C134.31,364.4 182.46,388.15 238.62,392.96 C277.49,395.54 318.9,393.67 376.1,364.19 C379.85,362.29 383.54,362.14 384.8,365.15 C386.02,369.66 384.67,372.04 383.13,373.32 C356.64,399.1 319.49,414.32 289.11,419.63 C240.79,426.86 201.85,420.42 162.87,398.09 C138.78,384.59 118.27,367.69 100.83,347.75 Z" fill="none" stroke="currentColor" stroke-width="1.5"/><path d="M0,54.89 L456.24,0 L511.13,188.67 Z" fill="none" stroke="currentColor" stroke-width="1.5"/></svg>