<svg xmlns="http://www.w3.org/2000/svg" viewBox="0 0 511.13 507.7" width="24" height="24"><path d="M54.89,507.7 L0,54.89 L456.24,0 L511.13,452.81 Z" fill="none" stroke="currentColor" stroke-width="1.5"/><path d="M145.13,461.37 L158.8,417.19 L163.62,416.68 L151.53,455.12 C150.44,457.88 148.71,460.22 145.13,461.37 Z" fill="none" stroke="currentColor" stroke-width="1.5"/><path d="M158.8,417.19 L177.86,360.5 C167.57,358.77 158.38,362.24 149.24,365.89 C157.73,359.85 163.23,355.77 173.05,353.74 C165.51,351.65 160.99,347.48 156.23,343.47 C162.68,345.91 169.54,348.05 176.34,346.93 C175.26,332.73 167.6,318.92 158.45,305.76 C166,310.67 173.82,316.6 176.8,321.81 C177.47,309.88 179.3,299.7 181.11,289.5 L197.08,320.74 C185.93,349.28 174.78,383.36 163.62,416.68 Z M198.52,378.09 C194.89,371.36 192.26,367.34 186.74,363.78 L200.54,324.18 C204.44,323.78 208.58,323.84 212.68,322.9 C222.19,324.58 231.77,324.67 241.56,320.65 C250.76,316.94 256.09,312.21 260.94,307.35 C257,314.51 253.25,321.63 244.73,329.79 C237.38,335.82 230.83,339.18 224.49,341.86 C231.79,342.27 239.56,342.32 246.07,333.95 C241.92,342.27 235.62,351.71 218.87,357.39 C208.96,360.17 199.53,360.9 190.36,360.47 C197.02,367.33 198.24,372.82 198.52,378.09 Z" fill="none" stroke="currentColor" stroke-width="1.5"/><path d="M197.08,320.74 L181.11,289.5 C186.22,265.35 193.55,243.19 201.47,224.26 C207.11,211.14 212.83,198.67 218.69,187.41 C226.76,172.18 234.89,156.93 245.27,140.27 L261.11,171.55 C249.14,195.98 236.98,221.76 224.14,252.31 C215.34,273.39 206.3,296.34 197.08,320.74 Z M216.43,322.31 C208.92,323.99 205.13,323.89 200.54,324.18 C210.83,296.32 221.85,268.31 233.6,240.16 C243.4,217.53 253.26,194.98 263.92,173.5 L305.88,168.94 C313.66,167.67 319.97,165.27 325.05,161.93 C323.74,169.13 320.19,178.57 313.28,191.38 C308.04,200.06 300.13,206.29 289.91,210.39 C295.66,210.12 301.81,208.08 310.55,202.37 C303.78,215.07 293.93,227.12 280.55,231.28 C284.89,231.43 291.88,229.68 297.54,226.37 C289.64,249.07 284.51,260.75 278.14,272.11 C265.67,293.5 254.05,303.51 242.61,310.91 C236.09,314.8 229.93,318.71 216.43,322.31 Z" fill="none" stroke="currentColor" stroke-width="1.5"/><path d="M261.11,171.55 L245.27,140.27 C260.82,115.35 277.16,91.42 295.05,69.44 L307.24,92.28 C300.05,102.66 292.44,114.65 284.37,128.27 C275.46,144.04 268.3,157.77 261.11,171.55 Z M304.55,169.1 L263.92,173.5 C272.18,157.28 279.45,141.82 290.22,123.67 C295.59,113.83 302.26,103.33 308.84,92.89 C324.61,91.91 340.37,89.95 356.14,87.2 C354.21,96.83 350.64,106.94 346.51,115.51 C340.95,127.58 334.86,138.3 328.48,148.29 C322.4,158.07 317.02,162.75 304.55,169.1 Z" fill="none" stroke="currentColor" stroke-width="1.5"/><path d="M307.24,92.28 L295.05,69.44 C306.39,55.83 316.67,44.83 324.89,38.89 C329.25,35.99 334.17,35.23 339.46,37.65 C348.18,42.58 354.48,51.29 356.06,60.63 C358.25,71.34 357.3,79.76 356.14,87.2 C338.87,90.11 322.99,92.06 308.84,92.89 C316.39,80.86 323.68,71.09 330.81,62.58 C322.84,71.01 315,81.15 307.24,92.28 Z" fill="none" stroke="currentColor" stroke-width="1.5"/><path d="M0,54.89 L456.24,0 L511.13,188.67 Z" fill="none" stroke="currentColor" stroke-width="1.5"/></svg>