<svg xmlns="http://www.w3.org/2000/svg" viewBox="0 0 511.13 507.7" width="24" height="24"><path d="M54.89,507.7 L0,54.89 L456.24,0 L511.13,452.81 Z" fill="none" stroke="currentColor" stroke-width="1.5"/><path d="M395.09,358.81 C387.01,377.13 374.61,392.47 357.27,404.4 C338.88,416.93 323.76,418.99 312.69,419.14 C302.62,418.9 292.93,416.37 283.81,410.39 C276.79,407.25 272.8,405.14 255.53,405.24 C246.25,405.44 236.37,406.54 224.25,413.86 C214.12,419.05 202.95,419.79 191.72,420.27 C179.5,420.27 166.03,414.74 154.87,402.96 C143.97,390.7 136.46,376.7 129.17,358.92 Z" fill="none" stroke="currentColor" stroke-width="1.5"/><path d="M395.09,358.81 L129.17,358.92 C123.86,345.33 118.6,331.4 113.46,316.54 L405.5,316.08 C404.55,332.16 401.01,346.35 395.09,358.81 Z" fill="none" stroke="currentColor" stroke-width="1.5"/><path d="M405.5,316.08 L113.46,316.54 C106.21,297.81 101.14,279.36 99.09,261.32 L359.73,261.15 C366.96,283.97 385.81,301.11 405.02,310.45 C405.51,312.92 405.51,314.49 405.5,316.08 Z" fill="none" stroke="currentColor" stroke-width="1.5"/><path d="M359.73,261.15 L99.09,261.32 C98.24,244.48 98.56,225.95 105.56,208.29 L363.66,208.15 C357.89,222.94 353.27,239.81 359.73,261.15 Z" fill="none" stroke="currentColor" stroke-width="1.5"/><path d="M363.66,208.15 L105.56,208.29 C114.39,186.77 128.57,169.35 148.02,155.96 L244.39,155.8 C254.98,161.48 268.72,161.94 281.65,155.8 L379.06,155.71 C385.75,161.11 391.86,168.76 395.55,174.07 C381.41,181.45 367.8,197.57 363.66,208.15 Z" fill="none" stroke="currentColor" stroke-width="1.5"/><path d="M254.81,150.95 C255.55,128.27 260.43,108 268.47,94.27 C277.04,80.75 300.26,61.81 322.64,54.24 C323.72,80.24 318.59,102.73 309.46,117.87 C297.92,136.76 277.13,148.44 254.81,150.95 Z M244.39,155.8 L148.02,155.96 C159.8,147.58 179.22,140.81 197.25,141.07 C213.35,141.07 230.38,148.59 244.39,155.8 Z M379.06,155.71 L281.65,155.8 C297.12,147.05 311.05,138.29 335.44,138.31 C350.07,138.31 368.65,147.38 379.06,155.71 Z" fill="none" stroke="currentColor" stroke-width="1.5"/><path d="M0,54.89 L456.24,0 L511.13,188.67 Z" fill="none" stroke="currentColor" stroke-width="1.5"/></svg>