<svg xmlns="http://www.w3.org/2000/svg" viewBox="0 0 511.13 507.7" width="24" height="24"><path d="M54.89,507.7 L0,54.89 L456.24,0 L511.13,452.81 Z" fill="none" stroke="currentColor" stroke-width="1.5"/><path d="M315.22,231.42 L315.22,215.97 L332.42,215.97 L332.42,198.98 L347.83,198.98 L347.83,215.97 L364.57,215.97 L364.57,231.42 L347.83,231.42 L347.83,248.7 L332.42,248.7 L332.42,231.42 Z M149.36,231.55 L149.36,216.06 L199.04,216.06 L199.04,231.55 Z M171.3,275.81 C198.07,275.91 223.77,257.62 242.1,223.59 C226.96,193.67 200.91,171.37 172.14,171.37 C148.79,171.37 117.25,187.19 117.25,222.68 C117.25,255.43 143.96,275.81 171.3,275.81 Z M272.66,223.84 C288.73,251.93 309.74,275.65 341.88,275.65 C370.2,275.65 397.76,256.47 397.76,224.76 C397.76,190.8 369.9,171.29 343.71,171.29 C315.74,171.67 292.06,187.38 272.66,223.84 Z M257.34,250.42 C235.88,285.95 198.56,303.3 172.14,303.3 C126.33,303.3 88.58,265.09 88.58,220.64 C88.58,185.89 123.15,143.78 171.47,143.78 C210.25,143.78 242.43,172.39 257.7,196.07 C276.46,164.24 310.28,143.78 343.61,143.78 C379.59,143.78 425.58,174.66 425.58,224.68 C425.58,268.61 384.15,303.69 343.37,303.69 C307.98,303.69 276.68,280.17 257.34,250.42 Z" fill="none" stroke="currentColor" stroke-width="1.5"/><path d="M0,54.89 L456.24,0 L511.13,188.67 Z" fill="none" stroke="currentColor" stroke-width="1.5"/></svg>