<svg xmlns="http://www.w3.org/2000/svg" viewBox="0 0 511.13 507.7" width="24" height="24"><path d="M54.89,507.7 L0,54.89 L456.24,0 L511.13,452.81 Z" fill="none" stroke="currentColor" stroke-width="1.5"/><path d="M310.49,335.21 L347.08,123.83 L383.51,118.39 L359.23,244.3 L392.94,195.73 L423.46,195.41 L385.11,259 L405.72,319.87 L376.8,324.83 L353.63,274.5 L343.41,329.62 Z M235.08,310.45 C241.32,313.67 248.54,317.48 257.77,318.76 C262.66,318.26 267.34,317.28 270.55,313 C275.3,306.61 273.42,300.54 269.27,293.83 C263.65,284.69 256.3,281.24 248.18,270.02 C238.78,258.2 241.99,242.3 246.42,231.36 C254.07,213.79 265,209.23 278.22,207.39 C292.11,205.64 302.56,207.71 311.45,212.34 L303.62,239.82 C298.25,235.89 293.5,233.43 289.4,232.47 C283.23,230.93 277.79,231.9 273.75,237.59 C270.34,243.94 271.59,251.77 280.14,259.32 C287.19,267.99 291.71,270.25 298.67,278.97 C307.32,290.33 307.96,304.98 304.1,315.08 C296.78,333.56 284.92,339.01 271.67,342.56 C245.54,346.33 236.14,343.16 227.09,339.85 Z M155.99,294.79 L184.27,290.31 L184.43,220.97 Z M80.25,371.48 L201.37,125.74 L220.7,349.59 L184.91,355.18 L184.75,320.19 L137.13,328.02 L126.91,364.45 Z" fill="none" stroke="currentColor" stroke-width="1.5"/><path d="M0,54.89 L456.24,0 L511.13,188.67 Z" fill="none" stroke="currentColor" stroke-width="1.5"/></svg>