<svg xmlns="http://www.w3.org/2000/svg" viewBox="0 0 511.13 507.7" width="24" height="24"><path d="M54.89,507.7 L0,54.89 L456.24,0 L511.13,452.81 Z" fill="none" stroke="currentColor" stroke-width="1.5"/><path d="M106.67,127.07 C105.46,124.6 105.46,122.08 107.56,119.46 C110.75,116.16 114.06,116.73 117.4,118.2 C146.27,136.14 203.25,153.6 260.32,151.93 C311.42,151.93 356.05,139.63 395.02,118.17 C398.63,116.27 401.91,116.34 404.67,119.55 C406.47,122.07 406.91,124.79 404.46,127.95 C362.11,159.89 309.64,177.11 258.06,177.8 C187.1,177.26 138.08,151.16 106.67,127.07 Z M259.42,236.95 C257.26,239 253.84,238.66 252.03,236.73 C245.21,229.61 238.53,220.55 232.64,208.98 C231.55,206.43 231.92,201.01 236.26,200.74 C249.55,201.67 262.33,201.42 275.35,200.91 C279.89,201.52 280.75,205.54 279.64,207.63 C273.64,220.94 266.6,230.29 259.42,236.95 Z M284.16,390.63 C281.55,390.63 279.03,389.28 278.74,384.44 C276.88,366.53 269.29,353.3 259.74,340.04 C247.68,323.18 234.89,310.58 221.14,296.78 C201.93,276.74 174.74,249.86 163.96,225.57 C158.99,214.62 154.29,203.07 153.35,188.19 C153.43,185.25 157.14,182.52 160.29,183.56 C170.77,187.59 184.41,192.15 196.18,194.84 C198.44,195.26 200.11,196.51 200.88,199.06 C205.39,210.96 212.65,221.88 221.41,232.29 C231.71,244.45 241.18,254.27 250.43,263.47 C253.84,267.4 256.39,268.83 260.85,264.27 C282.39,242.93 302.43,220.94 310.09,201.24 C310.79,197.56 312.48,195.09 316.79,194.54 C325.87,192.75 337.93,188.82 350.82,184.28 C356.69,182.63 358.64,185.59 358.66,188.99 C357.17,210.4 347.95,226.73 339.09,241.3 C327.75,258.14 309.7,277.94 289.25,298.8 C286.99,300.74 286.45,303.03 289.3,306.03 C308.86,331.03 322.12,356.66 323.48,383.76 C324.02,388.7 320.33,390.63 318.06,390.63 Z M192.99,390.63 C191.17,390.63 188.02,389.22 188.53,384.5 C190.23,359.58 199.45,339.67 211.33,321.53 C212.9,319.2 215.08,318.52 218.14,320.23 C226.72,328.39 234.37,337.49 241.9,346.71 C243.98,349.75 243.95,353.1 241.77,356.78 C237.49,364.36 234.52,373.69 232.98,385.35 C232.42,388.64 230.78,390.65 227.5,390.63 Z" fill="none" stroke="currentColor" stroke-width="1.5"/><path d="M0,54.89 L456.24,0 L511.13,188.67 Z" fill="none" stroke="currentColor" stroke-width="1.5"/></svg>