<svg xmlns="http://www.w3.org/2000/svg" viewBox="0 0 511.13 507.7" width="24" height="24"><path d="M54.89,507.7 L0,54.89 L456.24,0 L511.13,452.81 Z" fill="none" stroke="currentColor" stroke-width="1.5"/><path d="M311.77,171.76 L311.77,148.11 L403.8,148.11 L403.8,171.76 Z M394.54,262.27 C394.54,238.21 371.98,227.84 359.87,227.84 C344.15,227.84 326.58,234.91 321.52,262.27 Z M437.2,312.36 C435.34,333.87 409.51,366.37 359.39,366.37 C320.01,366.37 288.43,342.12 281.89,315.56 C269.1,268.84 280.8,231.65 302.35,212.02 C326.25,191.85 358.01,186.39 391.98,197.96 C421.16,209.68 440.98,232.74 440.55,291.27 L320.4,291.27 C321.22,318.15 341.52,331.38 357.95,331.38 C374.29,331.97 385.74,325.42 393.1,312.36 Z M126.15,228.85 L177.69,228.85 C186.78,228.85 206.79,224.4 206.79,204.96 C206.79,191.36 201.36,179.6 173.85,179.6 L126.15,179.6 Z M126.15,327.55 L177.65,327.55 C199.2,327.55 211.26,314.82 211.26,297.86 C211.26,267.63 185.99,267.38 176.64,267.38 L126.15,267.38 Z M72.01,367.57 L72.01,139.2 L186.94,139.2 C216.74,139.2 252.81,154.67 252.81,197.32 C252.81,231.48 236.36,238.96 224.69,244.94 C251.39,253.78 260.69,278 260.48,299.74 C260.48,326.71 241.31,367.57 185.39,367.57 Z" fill="none" stroke="currentColor" stroke-width="1.5"/><path d="M0,54.89 L456.24,0 L511.13,188.67 Z" fill="none" stroke="currentColor" stroke-width="1.5"/></svg>