<svg xmlns="http://www.w3.org/2000/svg" viewBox="0 0 511.13 507.7" width="24" height="24"><path d="M54.89,507.7 L0,54.89 L456.24,0 L511.13,452.81 Z" fill="none" stroke="currentColor" stroke-width="1.5"/><path d="M92.29,123.94 C93.65,114.16 98.05,104.58 112.94,95.65 C131.31,86.84 152.06,79.35 191.63,72.45 C228.54,69.02 281.36,67.56 322.8,72.9 C362.33,80.2 379.02,86.86 393.98,94.8 C407.73,102.41 416.85,111.25 417.84,122.27 L391.25,287.66 C387.59,297.41 380.31,306.29 355.23,317.84 C294.84,342.94 216.51,344.71 152.71,317.33 C135.84,310.06 125.4,300.22 120.68,290.61 Z M134.21,337.56 C134.46,332.76 138.55,330.07 143.22,332.33 C172.9,354.91 214.89,365.63 255.35,366.14 C299.09,366.05 341.23,353.22 368.67,333.37 C373.43,329.46 377.09,332.29 376.58,336.88 L364.72,400.6 C361.98,409.18 355.96,415.68 346.13,422.02 C317.36,436.73 290.3,441.4 248.79,441.4 C225.57,441.4 205.26,439.24 183.5,430.74 C167.91,424.62 153.05,418.07 145.7,402.21 Z" fill="none" stroke="currentColor" stroke-width="1.5"/><path d="M162.82,127.07 C157.27,124.57 150.73,120.63 150.73,116.23 C150.73,110.8 157.22,106.59 165.87,103.46 C193.23,94.96 227.95,92.05 256.93,92.05 C289.62,92.05 320.82,96.29 340.54,101.88 C350.36,105.36 359.48,109.82 359.48,115.7 C359.48,121.3 351.75,125.4 342.39,129.07 C314.84,138.36 283.96,139.05 251.74,139.05 C222.95,139.05 184.18,136.54 162.82,127.07 Z M255.88,274 C269.71,274 280.69,260.14 280.69,248.9 C280.69,237.08 271.71,222.96 255.57,222.96 C241.68,222.96 229.57,235.76 229.57,249.14 C229.57,260.92 243.15,274 255.88,274 Z M255.38,301.7 C227.96,301.7 203.38,278.57 203.38,253.16 C203.38,212.24 235.42,197.34 255.73,197.34 C281.09,197.34 307.35,220.47 307.35,250.39 C307.35,276.6 284.54,301.7 255.38,301.7 Z" fill="none" stroke="currentColor" stroke-width="1.5"/><path d="M0,54.89 L456.24,0 L511.13,188.67 Z" fill="none" stroke="currentColor" stroke-width="1.5"/></svg>