<svg xmlns="http://www.w3.org/2000/svg" viewBox="0 0 511.13 507.7" width="24" height="24"><path d="M54.89,507.7 L0,54.89 L456.24,0 L511.13,452.81 Z" fill="none" stroke="currentColor" stroke-width="1.5"/><path d="M257.12,223.23 C268.38,223.23 274.54,213.59 274.54,207.15 C274.54,198.54 268.06,188.87 256.07,188.87 L206.56,188.86 C194.97,188.86 188.66,199.23 188.66,205.95 C188.66,214.25 196.03,223.53 207.44,223.53 Z M309.38,327.86 C320.09,327.86 326.47,320.17 326.47,311.09 C326.41,303.5 320.75,293.83 308.98,293.83 L206.08,293.99 C195.96,293.99 189.06,301.96 189.06,310.77 C189.06,322.51 198.85,328.1 207.44,328.1 Z M198.48,404.06 C155.05,404.06 113.18,358.58 113.18,318.79 L112.95,201.84 C112.95,155.36 156.22,113.6 201.03,113.6 L271.19,112.96 C328.47,128.21 348.31,163.72 350.03,206.12 C351.45,218.7 356.22,222.12 367.55,222.78 L388.15,224.17 C398.86,224.17 402.66,233.74 402.66,236.65 L402.17,316.49 C402.17,362.06 357.65,404.02 315.24,404.02 Z" fill="none" stroke="currentColor" stroke-width="1.5"/><path d="M0,54.89 L456.24,0 L511.13,188.67 Z" fill="none" stroke="currentColor" stroke-width="1.5"/></svg>