<svg xmlns="http://www.w3.org/2000/svg" viewBox="0 0 511.13 507.7" width="24" height="24"><path d="M54.89,507.7 L0,54.89 L456.24,0 L511.13,452.81 Z" fill="none" stroke="currentColor" stroke-width="1.5"/><path d="M332.73,237.81 C331.66,227.2 324.93,216.97 315.14,206.95 C303.4,196.6 286.67,187.58 271.59,188.75 C253.21,190.62 241.43,198.79 240.44,213.64 C247.66,241.56 272.11,256.95 295.66,260.22 C310.14,261.93 326.86,257.53 332.73,237.81 Z M178.52,336.49 C165.95,346.88 133.79,341.09 119.24,330.42 C89.1,307.87 82.57,283.62 87.28,260.6 L221.98,212.18 L128.35,179.91 C122.64,177.86 117.32,155.86 122.91,148.75 L255.37,179.75 L239.87,136.93 C237.46,130.67 242.56,121.68 250.74,116.8 C272.25,127.23 315.78,134.55 315.29,148.11 L307.46,188.22 L396.46,210.75 C398.21,216.24 400.03,225.53 392.94,226.08 L343.41,229.12 L429.05,284.88 C430.45,295.93 432.07,311.06 422.02,326.11 C414.57,334.76 402.66,338.78 388.31,336.01 L318.64,263.15 L364.5,360.62 C364.79,379.05 362.57,401.8 332.22,415.26 C305.79,423.92 279.09,418.79 263.04,412.86 C244.46,403.72 239.64,388.1 235.24,372.28 C234.15,361.54 235.65,354.03 237.95,347.52 L261.12,258.04 Z" fill="none" stroke="currentColor" stroke-width="1.5"/><path d="M305.68,188.7 L341.56,157.85 C346.03,156.51 352.29,157.56 358.79,160.48 C370.29,166.27 380.55,177.75 388.68,187.66 C395.88,197.15 403.2,211.89 393.09,214.79 L331.21,219.99 C326.43,206 316.6,195.16 305.68,188.7 Z M239.91,207.57 L127.82,168.6 C119.19,157.67 119.86,145.8 122.59,136.52 C131.29,122.17 145.22,115.56 159.44,113.92 C173.66,112.8 184.88,114.68 195.53,117.13 L257.71,180.56 C243.29,186.2 239.97,196.24 239.91,207.57 Z M320.32,255.32 L364.1,353.19 C366.64,365.31 360.96,387.86 341.25,399.84 C320.71,411.4 295.49,410.26 273.83,405.36 C249.49,397.66 232.56,375.94 235.56,346.32 L262.97,246.62 C271.35,254.49 282.31,258.25 294.52,259.96 C303.86,260.92 312.68,260.09 320.32,255.32 Z" fill="none" stroke="currentColor" stroke-width="1.5"/><path d="M332.2,221.68 L400.23,250.84 C420.14,260.02 429.48,269.91 431.63,280.3 C433.87,293.42 428.8,312.87 413.19,321.95 C405.94,326.05 396.39,327.85 388.24,325.01 L320.72,255.11 C329.57,249.11 336.18,240.81 332.2,221.68 Z M260.17,179.6 L239.65,123.92 C245.14,115.29 253.71,110.23 266.73,110.33 C279.88,111.52 292.09,115.75 302.83,124.76 C310.87,132.65 313.64,139.33 314.07,143.95 L304.74,187.98 C289.28,179.44 277.34,175.62 260.17,179.6 Z M262.97,246.62 L175.85,327.87 C160.53,335.58 137,330.2 122.91,321.35 C114.67,316.45 84.41,291.54 86.6,255.86 C90.82,230.81 108.89,219.55 124.52,211.27 L239.37,208.92 C241.25,227.47 254.23,239.9 262.97,246.62 Z" fill="none" stroke="currentColor" stroke-width="1.5"/><path d="M0,54.89 L456.24,0 L511.13,188.67 Z" fill="none" stroke="currentColor" stroke-width="1.5"/></svg>