<svg xmlns="http://www.w3.org/2000/svg" viewBox="0 0 511.13 507.7" width="24" height="24"><path d="M54.89,507.7 L0,54.89 L456.24,0 L511.13,452.81 Z" fill="none" stroke="currentColor" stroke-width="1.5"/><path d="M255.51,450.9 C165.22,450.9 59.34,376.9 59.34,254 C59.34,141.9 153.22,57.66 255.51,57.66 C359.63,57.66 451.86,138.86 451.86,254 C451.86,362.85 366.84,450.9 255.51,450.9 Z" fill="none" stroke="currentColor" stroke-width="1.5"/><path d="M165.65,372.6 L126.07,350.71 L194.96,231.87 L264.01,271.94 L303.96,203.19 L260.44,178.88 L368.41,135.12 L384.47,250.08 L341.8,225.2 L281.2,331.95 L210.03,293.35 Z" fill="none" stroke="currentColor" stroke-width="1.5"/><path d="M0,54.89 L456.24,0 L511.13,188.67 Z" fill="none" stroke="currentColor" stroke-width="1.5"/></svg>