<svg xmlns="http://www.w3.org/2000/svg" viewBox="0 0 511.13 507.7" width="24" height="24"><path d="M54.89,507.7 L0,54.89 L456.24,0 L511.13,452.81 Z" fill="none" stroke="currentColor" stroke-width="1.5"/><path d="M89.43,342.75 L197.07,342.75 L197.07,203.08 L89.43,203.08 Z M375.92,209.3 L375.92,202.18 L427.49,202.18 L427.49,209.3 Z M375.92,228.58 L375.92,221.46 L427.49,221.46 L427.49,228.58 Z M375.92,247.58 L375.92,240.91 L427.49,240.91 L427.49,247.58 Z M375.92,267.14 L375.92,259.82 L427.49,259.82 L427.49,267.14 Z M363.67,279.03 L439.42,279.03 L439.42,190.35 L363.67,190.35 Z M356.47,286.01 L356.47,183.13 L446.67,183.13 L446.67,286.01 Z M254.52,222.1 L254.52,208.89 L318.69,208.89 L318.69,222.1 Z M254.52,247.65 L254.52,234.34 L318.69,234.34 L318.69,247.65 Z M254.52,273.19 L254.52,259.93 L318.69,259.93 L318.69,273.19 Z M254.52,298.43 L254.52,285.17 L318.69,285.17 L318.69,298.43 Z M242.5,310.84 L331.24,310.84 L331.24,196.54 L242.5,196.54 Z M229.08,324.17 L229.08,183.13 L344.55,183.13 L344.55,324.17 Z M101.61,234.79 L101.61,215.23 L184.71,215.23 L184.71,234.79 Z M101.61,266.76 L101.61,247.18 L184.71,247.18 L184.71,266.76 Z M101.61,298.33 L101.61,279.22 L184.71,279.22 L184.71,298.33 Z M101.61,330.55 L101.61,311.04 L184.71,311.04 L184.71,330.55 Z M69.58,362.42 L69.58,183.13 L216.67,183.13 L216.67,362.58 Z" fill="none" stroke="currentColor" stroke-width="1.5"/><path d="M0,54.89 L456.24,0 L511.13,188.67 Z" fill="none" stroke="currentColor" stroke-width="1.5"/></svg>