<svg xmlns="http://www.w3.org/2000/svg" viewBox="0 0 511.13 507.7" width="24" height="24"><path d="M54.89,507.7 L0,54.89 L456.24,0 L511.13,452.81 Z" fill="none" stroke="currentColor" stroke-width="1.5"/><path d="M314.61,276.96 C314.17,293 310.25,314.93 296.52,326.52 C285.48,335.15 271.13,337.34 254.41,334.89 C233.76,330.03 220.42,317.95 214.19,291.4 C208.84,261.73 212.05,224.27 216.99,206.65 C224.89,177.91 243.44,168.77 263.7,168.77 C283.51,168.65 298.65,177.55 306.45,193.03 C312.73,212.36 312.29,219.93 311.92,227.62 L280.6,227.62 C280.76,221.34 280.46,214.67 276.97,205.3 C273.86,201.11 271.82,196.15 261.9,196.86 C254.51,196.96 247.66,202.98 245.4,220.6 C243.1,233.52 242.63,261.42 243.88,288.95 C245.49,309.75 251.14,312.34 263.07,312.47 C281.38,312.57 282.54,291.11 283.84,277.05 Z" fill="none" stroke="currentColor" stroke-width="1.5"/><path d="M162.47,160.9 L164.73,89.52 L186.67,111.3 L233.55,65.62 C244.53,56.19 272.77,47.57 298.08,70.75 L353.86,126 L332.83,147.11 L274.86,89.89 C266.6,82.8 256.04,84.42 248.03,91.33 L208.23,132.26 L233.86,156.53 Z M169.35,355.44 L98.97,352.63 L119.68,331.7 L73.11,284.63 C59.49,267.46 62.59,238.16 74.77,224.21 L135.25,163.09 L156.96,183.52 L99.85,240.14 C91.81,248.82 91.81,259.88 98.33,268.03 L140.65,310.63 L166.37,285.58 Z M170.59,382.67 L192.12,362.03 L248.81,418.93 C258,426.41 268.46,426.98 278.04,417.72 L319.05,376.78 L294,353.05 L364.38,347.8 L363.5,418.97 L340.69,397.43 L294.47,443.12 C271.55,460.33 246.09,455.43 230.57,442.2 Z M354.05,154.36 L424.43,157.17 L403.72,178.09 L450.29,225.17 C463.91,242.34 460.81,271.64 448.63,285.59 L388.15,346.71 L366.44,326.28 L423.55,269.66 C431.59,260.98 431.59,249.91 425.07,241.77 L382.76,199.17 L357.03,224.22 Z" fill="none" stroke="currentColor" stroke-width="1.5"/><path d="M0,54.89 L456.24,0 L511.13,188.67 Z" fill="none" stroke="currentColor" stroke-width="1.5"/></svg>