<svg xmlns="http://www.w3.org/2000/svg" viewBox="0 0 511.13 507.7" width="24" height="24"><path d="M54.89,507.7 L0,54.89 L456.24,0 L511.13,452.81 Z" fill="none" stroke="currentColor" stroke-width="1.5"/><path d="M161.3,343.24 L161.3,281.91 L118,281.88 C116.61,281.88 115.44,280.86 115.44,279.2 L115.44,212.2 C115.44,194.14 136.2,162.93 169.02,162.93 C190.42,162.93 206.9,176.62 214.74,190.07 L247.88,190.13 L247.88,126.97 C247.88,125.4 248.63,123.91 250.55,123.91 L352.35,123.91 C354.02,123.91 354.92,125.3 354.92,126.34 L354.93,190.15 L403.44,190.16 C404.65,190.16 405.89,191.26 405.89,192.7 L405.88,263.91 C405.88,265.48 404.8,266.62 403.17,266.62 L365.09,266.62 L365.13,401.75 C365.13,402.78 364.24,404.16 362.47,404.16 L240.21,404.16 C238.9,404.16 237.73,403.03 237.73,401.67 L237.74,266.59 L222.45,266.59 L222.45,279.42 C222.45,280.53 221.48,281.91 219.51,281.91 L176.59,281.89 L176.59,343.25 C189.68,344.82 201.12,349.99 207.57,358.07 C213.2,365.22 214.24,374.24 208.11,383.02 C199.01,394.46 183.09,398.91 168.25,398.91 C159.53,398.7 146.86,397.01 135.93,389.14 C126.44,382.03 120.75,369.27 131.22,356.99 C138.41,348.74 150.56,344.44 161.3,343.24 Z" fill="none" stroke="currentColor" stroke-width="1.5"/><path d="M349.83,230.92 L349.84,129.02 L253.02,129.01 L253.02,230.92 Z M360.01,399.06 L309.08,399.06 L309.05,304.65 C309.05,303.57 308.07,302.26 306.43,302.26 C305.29,302.26 303.96,303.27 303.96,304.92 L303.96,399.06 L242.84,399.08 L242.81,264.09 C242.81,262.7 241.8,261.5 240.3,261.5 L222.45,261.5 L222.45,207.64 C221.25,203.74 220,199.8 217.74,195.25 L247.94,195.28 L247.91,233.4 C247.91,235.08 249.37,236.01 250.47,236.01 L352.22,235.99 C353.86,235.99 354.92,234.9 354.92,233.42 L354.95,195.19 L400.81,195.22 L400.8,261.5 L363.07,261.47 C361.18,261.45 360.01,262.56 360.01,264.12 Z M217.31,276.74 L217.35,208.4 C213.18,192.23 196.93,168.01 168.85,168.01 C147.29,168.01 127.01,184.39 120.51,208.4 L120.53,276.78 L163.95,276.79 C165.24,276.79 166.39,278 166.39,279.2 L166.39,345.51 C166.39,346.56 165.74,347.94 164.05,348.1 C146.88,349.67 130.66,357.94 130.66,371.49 C130.66,381.81 145.79,393.82 168.93,393.82 C188.56,393.82 207.13,383.8 207.13,371.35 C207.66,358.51 190.89,349.35 173.74,348.08 C172.44,347.96 171.49,346.82 171.49,345.72 L171.48,279.84 C171.46,278.06 172.32,276.8 174.08,276.8 Z" fill="none" stroke="currentColor" stroke-width="1.5"/><path d="M0,54.89 L456.24,0 L511.13,188.67 Z" fill="none" stroke="currentColor" stroke-width="1.5"/></svg>