<svg xmlns="http://www.w3.org/2000/svg" viewBox="0 0 511.13 507.7" width="24" height="24"><path d="M54.89,507.7 L0,54.89 L456.24,0 L511.13,452.81 Z" fill="none" stroke="currentColor" stroke-width="1.5"/><path d="M249.38,419.1 C156.92,419.1 81.94,342.08 81.94,249.93 C81.94,160.13 158.39,82.28 249.38,82.28 C337.65,82.28 417.07,151.75 417.07,249.93 C417.07,351.56 335.39,419.1 249.38,419.1 Z" fill="none" stroke="currentColor" stroke-width="1.5"/><path d="M249.38,264.11 C242.17,264.11 235.96,259.72 235.96,249.93 C236.04,242.98 240.24,235.99 249.38,235.99 C258.43,235.99 263.26,240.88 263.18,249.93 C263.18,260.67 255.9,264.11 249.38,264.11 Z M356.27,295.03 C362.05,283.15 365.56,268.11 366,249.93 C366.27,226.96 355.89,194.1 336.81,172.4 L348.2,161.05 C350.55,158.63 350.39,153.71 348.04,150.91 C345.68,148.19 341,147.35 337.58,150.35 L259.68,228.16 C256.9,226.99 254.13,225.76 249.38,225.76 C236.39,225.76 225.38,238.47 225.38,250.17 C225.38,264 238.03,274.1 249.22,274.1 C263.44,274.1 274.22,261.33 274.22,249.93 C274.22,246.23 272.95,241.72 270.55,239.19 L295.16,214.58 C305.02,226.52 306.5,239.59 306.5,249.93 C306.5,284.49 277.6,306.93 249.38,306.93 C220.21,306.93 192.58,283.31 192.58,249.93 C192.66,243.69 193.55,239.1 194.72,232.63 C195.36,228.04 193.12,223.83 188.7,222.78 C184.23,221.64 180.1,223.8 178.74,229.62 C177.04,235.43 176.42,242.32 176.53,249.93 C176.53,289.19 209.6,322.21 249.49,322.21 C289.69,322.21 322.82,287.85 322.82,250.39 C322.82,233.52 316.43,216.24 306.5,203.56 L325.51,183.26 C343.61,205.02 349.87,227.33 350.12,249.93 C350.12,268 344.95,281.21 341.81,288.16 C340.44,291.4 340.98,296.9 344.85,298.54 C350.14,300.42 354.52,298.57 356.27,295.03 Z M331.24,336.05 C339.01,336.05 348.07,328.92 348.07,318.53 C348.07,309.51 340.39,300.9 331.24,300.9 C322.11,300.9 312.96,308.61 312.96,318.53 C312.96,327.42 322.32,336.05 331.24,336.05 Z M312.17,346.65 C314.64,345.04 315.72,339.76 313.33,336.5 C310.98,333.13 306.25,332.37 303.18,334.32 C266.5,356.3 217.02,358.16 181.88,323.19 C158.91,301.13 140.39,267.33 153.59,219.53 C154.28,216.64 151.98,212.49 147.35,211.27 C142.73,210.27 138.71,212.96 137.54,217.25 C125.99,261.78 140.38,304.77 169,332.96 C215.15,374.31 270.58,372.39 312.17,346.65 Z M249.38,397.05 C176.37,397.05 104.46,338.31 104.46,249.93 C104.46,176.69 161.6,104.65 249.38,104.65 C328.2,104.65 396.14,164.08 396.14,249.93 C396.14,332.56 331.41,397.05 249.38,397.05 Z" fill="none" stroke="currentColor" stroke-width="1.5"/><path d="M0,54.89 L456.24,0 L511.13,188.67 Z" fill="none" stroke="currentColor" stroke-width="1.5"/></svg>