<svg xmlns="http://www.w3.org/2000/svg" viewBox="0 0 511.13 507.7" width="24" height="24"><path d="M54.89,507.7 L0,54.89 L456.24,0 L511.13,452.81 Z" fill="none" stroke="currentColor" stroke-width="1.5"/><path d="M255.12,422.12 C160.14,422.12 86.79,344.47 86.79,252.89 C86.79,163.67 159.93,86.16 255.29,86.16 C349.72,86.16 423.79,162.06 423.79,255.39 C423.79,339.79 354.86,422.12 255.12,422.12 Z" fill="none" stroke="currentColor" stroke-width="1.5"/><path d="M297.99,385.86 C295.63,356.34 290.77,324.47 278.22,285.37 C238.28,300.83 206.42,322.1 175.06,367.14 C206.35,390.41 253.16,401.55 297.99,385.86 Z M326.42,373.31 C355.96,355.08 380.53,329.18 391.49,282.18 C369.16,276.34 344.51,272.23 306.11,278.3 C316.45,305.21 321.36,339.36 326.42,373.31 Z M297.17,251.09 C322.89,245.26 352.33,243.01 394.2,252.74 C393.87,230.35 389.78,206.31 370.33,175.56 C349.49,193.34 327.06,211.12 287.84,228.91 Z M274.98,202.59 C308.98,187.23 332.01,169.7 351.3,154.09 C315.03,120.38 270.49,107.23 219.83,119.69 C243.72,147.71 259.33,175.15 274.98,202.59 Z M247.54,212.66 C233.42,187.07 215.47,160.13 191.11,130.93 C151.09,153.45 125.3,186.51 117.8,233.11 C179.77,233.72 217.28,224.63 247.54,212.66 Z M260.74,240.14 C217.73,256.16 169.92,263.89 116.07,261.24 C118.39,298.65 132.87,325.53 153.22,347.33 C177.53,310.56 212.87,279.32 268.45,258.19 Z" fill="none" stroke="currentColor" stroke-width="1.5"/><path d="M0,54.89 L456.24,0 L511.13,188.67 Z" fill="none" stroke="currentColor" stroke-width="1.5"/></svg>