<svg xmlns="http://www.w3.org/2000/svg" viewBox="0 0 511.13 507.7" width="24" height="24"><path d="M54.89,507.7 L0,54.89 L456.24,0 L511.13,452.81 Z" fill="none" stroke="currentColor" stroke-width="1.5"/><path d="M255.37,416.78 L145.65,357.55 L145.65,316.84 L74.99,271.71 L143.32,217.5 L74.72,163.3 L187.83,91.22 L255.65,146.62 L323.58,91.17 L436.3,163.52 L367.92,217.5 L436.41,271.93 L365.84,316.63 L365.84,357.89 Z" fill="none" stroke="currentColor" stroke-width="1.5"/><path d="M153.92,352.62 L153.92,323.53 L187.09,344.57 L255.87,291.1 L324.48,344.63 L357.46,323.65 L357.46,352.85 L255.53,407.34 Z M186.84,333.47 L89.28,270.97 L156.82,217.56 L89.28,164.09 L187.21,101.54 L255.56,157.23 L324.14,101.49 L421.84,164.17 L354.57,217.52 L421.9,271.14 L324.26,333.2 L255.53,278.28 Z M255.53,278.28 L354.57,217.52 L255.56,157.23 L156.82,217.56 Z" fill="none" stroke="currentColor" stroke-width="1.5"/><path d="M0,54.89 L456.24,0 L511.13,188.67 Z" fill="none" stroke="currentColor" stroke-width="1.5"/></svg>