<svg xmlns="http://www.w3.org/2000/svg" viewBox="0 0 511.13 507.7" width="24" height="24"><path d="M54.89,507.7 L0,54.89 L456.24,0 L511.13,452.81 Z" fill="none" stroke="currentColor" stroke-width="1.5"/><path d="M157.47,355.36 L157.47,325.93 L191.04,347.22 L260.64,293.1 L330.07,347.27 L363.44,326.04 L363.44,355.59 L260.3,410.74 Z M190.78,335.99 L92.05,272.73 L160.4,218.68 L92.05,164.57 L191.15,101.28 L260.32,157.63 L329.73,101.22 L428.6,164.65 L360.53,218.64 L428.66,272.91 L329.85,335.72 L260.3,280.14 Z M260.3,280.14 L360.53,218.64 L260.32,157.63 L160.4,218.68 Z" fill="none" stroke="currentColor" stroke-width="1.5"/><path d="M0,54.89 L456.24,0 L511.13,188.67 Z" fill="none" stroke="currentColor" stroke-width="1.5"/></svg>