<svg xmlns="http://www.w3.org/2000/svg" viewBox="0 0 511.13 507.7" width="24" height="24"><path d="M54.89,507.7 L0,54.89 L456.24,0 L511.13,452.81 Z" fill="none" stroke="currentColor" stroke-width="1.5"/><path d="M68.52,312.78 L224.41,139.08 L229.45,143.24 L73.08,316.99 Z M176.68,279.41 L76.7,324.32 L73.95,318.89 L173.92,273.7 Z M195.85,249.01 L230.88,144.32 L236.28,146.19 L201.92,250.93 Z M411.15,176.23 L257.61,134.97 L259.25,128.74 L413.07,170.48 Z M411.35,295.91 L434.01,213.81 L440.1,215.07 L417.07,297.54 Z M279.99,360.43 L389.27,319.99 L391.58,325.71 L281.98,366.22 Z M246.9,347.52 L243.12,254.58 L212.17,265.39 L209.95,259.54 L242.97,248.1 L238.19,145.95 L243.75,145.64 L249.1,245.91 L319.95,221.65 L250.58,143.72 L254.77,139.76 L326.87,219.13 L410.23,190.86 L412.06,196.71 L331.51,224.39 L363.34,260.68 L418.75,204.87 L423.37,208.92 L367.89,265.63 L398.29,299.7 L394.22,304.38 L363.22,270.34 L277.38,356.97 L272.56,352.93 L358.95,265.31 L324.59,226.72 L249.41,252.76 L253.93,347.52 Z M233.48,356.46 L198.92,288.52 L204.31,284.89 L238.59,353.27 Z M220.98,373.13 L75.91,337.29 L77.76,331.57 L222.44,367.12 Z" fill="none" stroke="currentColor" stroke-width="1.5"/><path d="M57.14,350.75 C49.67,350.75 36.63,344.28 36.63,329.25 C36.63,319.57 45.11,308.83 57.08,308.83 C67.74,308.83 78.52,318.08 78.52,328.92 C78.52,341.63 68.05,350.75 57.14,350.75 Z" fill="none" stroke="currentColor" stroke-width="1.5"/><path d="M253.29,411.59 C238.05,411.59 218.46,399.21 218.46,377.47 C218.46,353.56 241.15,343.52 253.29,343.52 C268.89,343.52 286.37,358.59 286.37,377.47 C286.37,395.23 271.49,411.59 253.29,411.59 Z" fill="none" stroke="currentColor" stroke-width="1.5"/><path d="M192.2,290.15 C181.12,290.15 171.23,278.53 171.23,268.89 C171.23,257.77 181.94,247.81 192.43,247.81 C204.77,247.81 213.74,258.54 213.74,268.89 C213.74,279.32 203.98,290.15 192.2,290.15 Z" fill="none" stroke="currentColor" stroke-width="1.5"/><path d="M237.8,147.87 C229.91,147.87 218.54,138.96 218.54,126.86 C218.54,117.42 227.88,105.77 239.87,105.77 C249.86,105.77 260.48,112.32 260.48,127.58 C260.48,135.8 254.98,147.87 237.8,147.87 Z" fill="none" stroke="currentColor" stroke-width="1.5"/><path d="M441.57,215.82 C426.24,215.82 407.51,203.71 407.51,181.76 C407.51,163.76 423.15,147.85 441.57,147.85 C458.47,147.85 474.95,160.69 474.95,181.76 C474.95,202.33 458.79,215.82 441.57,215.82 Z" fill="none" stroke="currentColor" stroke-width="1.5"/><path d="M408.2,336.97 C396.13,336.97 387.43,326.03 387.43,315.96 C387.43,306.8 395.85,294.95 408.2,294.95 C421.31,294.95 429.61,306.07 429.61,315.96 C429.61,327.34 419.75,336.97 408.2,336.97 Z" fill="none" stroke="currentColor" stroke-width="1.5"/><path d="M0,54.89 L456.24,0 L511.13,188.67 Z" fill="none" stroke="currentColor" stroke-width="1.5"/></svg>