<svg xmlns="http://www.w3.org/2000/svg" viewBox="0 0 511.13 507.7" width="24" height="24"><path d="M54.89,507.7 L0,54.89 L456.24,0 L511.13,452.81 Z" fill="none" stroke="currentColor" stroke-width="1.5"/><path d="M134.5,252.45 C134.19,232.4 117.86,225.44 105.66,225.44 C88.16,225.44 73.82,236.4 73.94,252.45 Z M153.91,280.17 C151.36,293.95 139.19,309.57 105.74,309.57 C90.37,309.57 62.2,305.72 54.53,278.33 C52.21,270.53 51.42,256.68 54.07,245.35 C61.47,217.55 85.37,211.54 106.78,211.54 C123.43,211.54 145.75,217.66 153.64,241.02 C156.76,248.54 156.17,258.72 156.07,266.19 L73.54,266.19 C73.68,283.09 86.37,296.02 104.54,296.07 C115.37,296.17 127.76,292.57 132.26,280.17 Z" fill="none" stroke="currentColor" stroke-width="1.5"/><path d="M177.41,260.97 C177.41,282.77 191.63,295.52 209.28,295.52 C229.54,295.52 242.04,279.38 242.04,260.53 C242.04,239.57 228.4,226.06 208.86,226.06 C190.33,226.06 177.41,240.55 177.41,260.97 Z M156.28,175.65 L177.24,175.65 L177.16,227.6 C185.87,216.01 200.62,211.86 214.31,211.86 C243.87,211.86 263.84,232.07 263.84,260.28 C263.84,290.66 242.92,309.81 214.47,309.81 C196.83,309.81 186.9,303.91 176.98,293.91 C177.12,298.4 176.61,303.39 176.32,306.42 L155.67,306.42 C156.59,292.87 156.28,220.25 156.28,175.65 Z" fill="none" stroke="currentColor" stroke-width="1.5"/><path d="M339.1,262.79 C322.12,262.77 308.18,262.88 300.56,264.43 C291.94,266.06 281.99,270.11 283.29,280.6 C284.37,290.64 290.96,295.46 305.04,296.3 C334.01,296.58 338.22,277.97 339.1,270.87 Z M341.78,306.42 C341.35,303.64 341.27,299.61 341.21,293.02 C331.39,305.81 316.91,309.73 300.49,309.98 C292.51,309.98 276.44,308.63 267.27,296.91 C259.15,286.26 259.62,271.73 268.02,262.28 C276.29,253.86 287.28,251.27 299.21,250.02 C310.69,248.77 325.87,249.31 339.14,249.3 C339.38,243.31 338.97,236.62 334.44,232.53 C329.59,228.12 322.77,225.15 313.7,225.34 C298.08,225.39 291.17,232.4 290.14,239.4 L268.2,239.4 C268.62,232.43 273.44,220.52 290.67,214.97 C304.56,210.71 324.6,210.96 334.7,213.94 C354.24,219.31 360.12,233.67 360.1,246.97 L360.1,289.6 C360.1,298.23 360.58,301.2 361.08,306.42 Z" fill="none" stroke="currentColor" stroke-width="1.5"/><path d="M348.44,215.49 L372.98,215.49 L408.27,286.56 L443.42,215.49 L465.45,215.49 L401.91,340.4 L378.55,340.4 L396.9,306.22 Z" fill="none" stroke="currentColor" stroke-width="1.5"/><path d="M0,54.89 L456.24,0 L511.13,188.67 Z" fill="none" stroke="currentColor" stroke-width="1.5"/></svg>