<svg xmlns="http://www.w3.org/2000/svg" viewBox="0 0 511.13 507.7" width="24" height="24"><path d="M54.89,507.7 L0,54.89 L456.24,0 L511.13,452.81 Z" fill="none" stroke="currentColor" stroke-width="1.5"/><path d="M183.79,378.03 C175.47,378.03 157.96,370.46 157.96,347.93 L157.96,171.92 C157.96,110.97 209.66,81.8 241.79,81.8 L273.75,81.8 C313.2,81.8 353.87,123.61 353.87,163.61 L353.87,351.83 C353.87,364.52 341.32,378.03 323.92,378.03 L277.66,378.03 L277.66,455.85 C277.66,469.67 268.81,476.94 255.69,476.94 C246.97,476.94 236.2,469.75 236.2,454.57 L236.2,378.03 Z" fill="none" stroke="currentColor" stroke-width="1.5"/><path d="M0,54.89 L456.24,0 L511.13,188.67 Z" fill="none" stroke="currentColor" stroke-width="1.5"/></svg>