<svg xmlns="http://www.w3.org/2000/svg" viewBox="0 0 511.13 507.7" width="24" height="24"><path d="M54.89,507.7 L0,54.89 L456.24,0 L511.13,452.81 Z" fill="none" stroke="currentColor" stroke-width="1.5"/><path d="M244.59,435.31 L62.6,253.41 L244.59,71.66 L255.61,83 L267.59,70.94 L450.33,253.64 L267.35,436.51 L255.21,424.53 Z" fill="none" stroke="currentColor" stroke-width="1.5"/><path d="M242.27,316.36 L242.27,262.11 L271.51,262.11 L271.35,244.7 L242.27,244.7 L242.27,207.15 L275.42,207.15 L275.42,190.69 L224.05,190.69 L224.05,316.68 Z M244.51,429.08 L68.27,253.49 L244.51,77.57 L420.9,253.53 Z" fill="none" stroke="currentColor" stroke-width="1.5"/><path d="M0,54.89 L456.24,0 L511.13,188.67 Z" fill="none" stroke="currentColor" stroke-width="1.5"/></svg>