<svg xmlns="http://www.w3.org/2000/svg" viewBox="0 0 511.13 507.7" width="24" height="24"><path d="M54.89,507.7 L0,54.89 L456.24,0 L511.13,452.81 Z" fill="none" stroke="currentColor" stroke-width="1.5"/><path d="M325.01,264.34 C331.07,267.85 335.34,263.45 336.38,259.96 C338.76,251.96 339.62,242.88 338.39,232.32 C337.75,228.18 334.98,220.45 326.06,223.6 C321.07,225.18 316.19,228.07 312.09,240.78 C310.07,247.84 310.93,250.57 313.54,254.61 C318.74,260.71 321.82,262.43 325.01,264.34 Z M280.44,264.32 C284.17,258.7 286.25,252.77 278.97,245.07 C272.14,237.59 263.64,230.7 248.45,226.2 C235.47,223.73 220.4,224.29 215.1,234.24 C210.57,244.81 212.48,257.96 221.56,274.17 C231.86,288.56 242.78,290.83 253.97,287.29 C265.3,282.52 273.52,273.63 280.44,264.32 Z M79.53,318.04 C80.18,324.61 80.95,333.22 70.51,337.29 C64.04,339.72 59.48,339.49 53.97,336.57 C49.49,333.76 46.6,327.12 48.46,314.92 C50.2,304.18 55.66,298.06 61.32,293.91 C67.29,290.65 71.64,292.95 77.54,303.42 L163.26,275.7 C162.24,254.22 170.25,240.92 181.79,227.89 C179.67,224.09 176.99,220.25 173.16,216.78 C164.59,222.4 157.32,223.17 151.83,217.3 C148.45,213.01 146.57,205.78 152.95,196.05 C161.46,183.15 168.05,183.87 175.72,189.53 C185.63,197.59 181.82,206.49 179,210.83 C183.5,214.14 186.73,216.89 190.1,219.69 C200.15,209.75 211.7,201.62 225.52,195.45 C225.65,191.46 225.47,187.15 223.46,181.99 C213.67,181.7 210.07,182.62 208.16,172.84 C206.83,165.53 212.38,160.25 219.42,158.94 C228,157.69 235.18,159.33 239.55,164.77 C242.5,169.23 242.28,171.85 239.83,175.07 C237.15,178.19 235.29,179.03 230.8,180.55 C233.47,184.54 235.45,188.11 237.28,191.57 C252.27,186.1 272.73,186.79 288.44,189.15 C289.95,185.35 291.41,180.97 292.17,175.09 C287.01,173.42 280.59,170.42 281.41,163.45 C282.35,157.36 287.96,154.04 293.56,152.59 C298.42,151.41 303.25,153.57 305.87,155.52 C312.16,160.86 315.26,164.65 316.9,167.74 C318.99,172.12 317.55,173.87 314.31,174.82 C311.36,175.61 306.99,175.96 301.62,175.99 C299.78,181.92 298.81,187.01 298.6,191.07 C312.5,193.65 324.58,197.17 333.69,202.57 C336.61,200.33 339.92,195.96 343.07,191.18 C340.56,188.65 338.38,183.89 341.49,176.87 C346.36,169.41 354.68,169.35 359.46,172.6 C365.35,176.94 370.55,182.28 371.79,187.25 C373.31,192.35 370.88,194.27 366.66,194.73 C361.93,195.17 358.96,195.03 351.45,193.72 C349.27,199.58 346.25,203.95 342.71,207.42 C350.38,212.77 356.46,218.53 360.06,224.94 L428.33,210.98 C428.33,202.1 430.83,197.22 434,193.41 C440.45,187.25 445.53,188.06 450.06,191.65 C462.17,202.21 465.63,212.63 465.32,221.45 C465.25,226.78 461.18,233.53 451.34,235.27 C440.92,237.02 430.24,233.57 428.41,221.53 C407.43,225.1 382.66,229.17 362.98,234.71 C364.96,246.11 364.92,254.44 362.42,260.52 C368.93,260.96 373.36,261.73 377.12,262.59 C381.23,255.09 385.17,253.92 390.78,253.97 C398.32,254.3 399.01,263.56 398.85,268.51 C398.52,278.67 396.79,286.05 392.62,288.56 C386.33,291.36 380.46,290.79 375.44,283.6 C373.34,279.61 374.09,274.87 374.57,271.3 C370.72,270.28 365.77,269.69 358.11,269.3 C353.72,276.19 347.73,282.17 336.62,289.44 C338.6,292.66 343.09,296.72 346.84,300.54 C352.54,296.9 358.3,294.47 364.42,298.62 C373.84,306.44 365.48,314.72 362.18,317.96 C357.89,322.26 352.99,325.79 345.33,325.87 C341.67,325.97 337.11,322.69 338.54,315 C339.21,311.3 340.58,309.45 341.89,307.57 C337.07,303.61 332.15,297.83 329.35,293.59 C319.28,300.06 308.63,305.94 297.07,310.93 C298.55,317.41 300.24,321.5 302.51,324.27 C306.4,323.25 313.36,321.72 317.13,323.63 C322.84,326.39 323.49,332.5 321.68,336.65 C319.95,340.13 314.83,344.8 306.98,348.63 C299.1,352.5 293.67,353.44 290.36,350.71 C286.67,347.45 285.8,342.78 288.84,337.45 C291.4,332.8 292.75,331.58 294.92,329.3 C293.01,326.38 290.53,324.19 289.32,314.52 C277.78,320.32 262.31,326.29 246.34,327.86 C245.1,332.11 244.14,336.69 244.59,343.04 C250.67,342.12 253.23,345.08 255.37,347.28 C258.24,350.19 257.03,355.67 252.65,360.06 C246.9,366.25 240.45,368.96 231.72,366.13 C226.5,364.41 221.42,360.9 221.98,354.55 C222.52,348.35 227.76,345.47 233.4,344.24 C233,338.96 233.21,333.64 234.12,329.78 C222.76,329.84 209.7,330.69 197.05,322.75 C193.24,327.25 189.57,332.29 186.19,338.49 C191.68,343.31 193.83,349.14 190.18,352.95 C187.18,355.81 180.91,356.02 171.73,353.35 C168.44,352.2 159.38,350.11 159.42,339.29 C159.54,332.55 162.73,329.56 166.77,327.94 C170.47,326.76 174.7,328.13 178.52,330.66 C181.17,326.07 183.7,321.43 187.37,317.27 C178.72,310.64 169.53,301.41 165.23,285.48 C139.08,295.87 110.15,306.79 79.53,318.04 Z" fill="none" stroke="currentColor" stroke-width="1.5"/><path d="M0,54.89 L456.24,0 L511.13,188.67 Z" fill="none" stroke="currentColor" stroke-width="1.5"/></svg>