<svg xmlns="http://www.w3.org/2000/svg" viewBox="0 0 511.13 507.7" width="24" height="24"><path d="M54.89,507.7 L0,54.89 L456.24,0 L511.13,452.81 Z" fill="none" stroke="currentColor" stroke-width="1.5"/><path d="M261.6,156.9 C244.81,156.9 228.53,142.52 228.53,123.51 C228.53,106.47 244.35,89.95 261.6,89.95 C280.54,89.95 295.32,105.84 295.32,123.51 C295.32,143.79 276.55,156.9 261.6,156.9 Z" fill="none" stroke="currentColor" stroke-width="1.5"/><path d="M333.42,365.25 C343.74,355.67 352.48,352.46 365.7,331.06 C370.67,322 375.78,313.22 377.44,297.74 C377.77,285.79 377.15,273.92 392.14,260.52 C403.01,252.31 413.92,248.99 421.14,248.69 L422.34,258.44 C416.26,259.58 410.19,260.59 404.52,264.03 C392.97,270.8 387.16,280.72 387.51,293.83 C386.09,318.27 377.37,334.07 366.66,347.52 L339.41,373.96 Z M169.12,141.76 L190.99,148.3 C206.57,154.14 214.74,162.2 218.41,171.08 L229.08,193.15 L320.1,193.15 C332.11,193.64 348.12,199.57 355.59,204.39 C371.04,214.47 380.49,225.24 386.62,234.87 L378.18,240.71 C364.03,221.43 344.47,203.7 316.58,203.7 L222.05,203.7 L213.35,182.3 C204.74,162.21 185.63,156.5 167.84,152.66 Z M171.49,374.92 C164.43,367.52 145.86,347.6 140.01,334.89 C137.74,330.58 136.06,325.6 135.7,319.15 C135.48,314.25 135.31,311.11 130.58,311.73 C124.26,312.32 118.22,312.93 109.01,313.32 C101.92,313.17 97.02,309.28 95.67,299.34 C94.98,286.22 94.88,274.81 95.67,265.95 C97.12,254.07 107.21,247.09 113.49,247.09 L131.54,247.17 C145.05,215.06 158.83,198.48 172.77,190.61 L177.72,200.36 C162.07,207.74 151.14,225.77 141.45,251.01 C140.03,254.83 137.04,256.66 132.42,256.44 L115.88,256.6 C108.98,256.6 105.73,263.11 105.5,270.98 L105.32,294.22 C105.01,301.5 106.85,303.64 112.7,302.91 L131.6,301.54 C139.12,301.24 144.49,306.62 144.98,311.47 L145.92,318.76 C146.15,325.42 148.52,329.43 150.34,332.25 C157.61,345.55 168.61,356.15 178.36,367.65 Z M181.04,420.71 L171.34,417.74 C183.06,388.25 212.24,358.72 257.98,358.72 C314.04,358.72 335.33,397.31 341.09,418.22 L330.95,420.61 C323.27,391.02 297.35,367.92 258.36,368.75 C217.79,368.75 193.26,391.79 181.04,420.71 Z" fill="none" stroke="currentColor" stroke-width="1.5"/><path d="M0,54.89 L456.24,0 L511.13,188.67 Z" fill="none" stroke="currentColor" stroke-width="1.5"/></svg>