<svg xmlns="http://www.w3.org/2000/svg" viewBox="0 0 511.13 507.7" width="24" height="24"><path d="M54.89,507.7 L0,54.89 L456.24,0 L511.13,452.81 Z" fill="none" stroke="currentColor" stroke-width="1.5"/><path d="M252.02,97.94 C328.1,127.41 394.74,196.83 418.26,264.67 L389.35,258.44 C366.88,199.78 320.9,151.71 257.69,126.86 Z M262.32,147.43 C304.87,158.64 352.92,203.23 369.28,253.47 L355.4,250.71 C339.8,204.17 302.04,171.72 264.76,159.65 Z M267.83,172.44 C298.57,183.21 328.12,208.5 341.85,247.29 L325.35,243.74 C316.24,215.71 291.61,195.06 270.47,187.7 Z M250.26,225.52 L280.14,232 L273.43,201.56 C291.35,208.08 305.51,222.34 311.93,240.54 L281.02,233.83 L289,264.83 C274.43,260.82 252.74,241.55 250.26,225.52 Z M235.26,221.92 C240.8,240.44 260.43,270.1 292.85,279.77 L298.94,303.04 C262.89,296.71 222.28,259.96 213.54,217.51 Z M196.04,213.94 C210.17,275.74 265.75,316 303.46,320.67 L308.82,342.08 C252.74,334.61 185.46,275.16 178.07,209.88 Z M146.64,202.92 C166.71,293.57 223.77,350.23 317.13,373.56 L343.17,422.61 C226.53,427.3 96.74,290.32 98.71,179.27 Z" fill="none" stroke="currentColor" stroke-width="1.5"/><path d="M0,54.89 L456.24,0 L511.13,188.67 Z" fill="none" stroke="currentColor" stroke-width="1.5"/></svg>