<svg xmlns="http://www.w3.org/2000/svg" viewBox="0 0 511.13 507.7" width="24" height="24"><path d="M54.89,507.7 L0,54.89 L456.24,0 L511.13,452.81 Z" fill="none" stroke="currentColor" stroke-width="1.5"/><path d="M255.86,441.63 C145.28,441.63 67.94,351.41 67.94,255.37 C67.94,140.53 160.29,66.21 257.26,66.21 C350.65,66.21 442.85,142.96 442.85,253.84 C442.85,353.22 363.93,441.63 255.86,441.63 Z" fill="none" stroke="currentColor" stroke-width="1.5"/><path d="M215.29,400.54 C215.29,408.66 209.16,412 199.97,408.87 C144.48,389.39 91.14,329.26 91.14,254.17 C91.14,152.61 177.89,88.57 253.07,88.57 C350.68,88.57 420.08,168.66 420.08,253.18 C420.08,322.96 375.26,387.16 308.1,409.7 C300.5,411.71 295.8,407.67 295.8,400.96 L295.8,352.1 C295.8,342.65 291.93,332.58 284.85,325.55 C312.11,322.43 328.65,315.61 341.34,302.53 C353.79,290.16 359.37,272 360.4,249.57 C361.09,231.76 356.35,214.38 343.45,201.13 C347.94,190.19 348.7,175.69 341.9,157.77 C328.4,156.71 313.01,164.84 297.27,174.58 C269.59,167.36 241.91,166.41 214.23,175 C201.86,166.93 190.62,157.86 169.18,157.77 C163.51,173.59 162.61,188.04 167.49,200.84 C152.16,217.88 150.4,234.6 150.68,251.26 C152.37,283.43 164.12,299.69 177.16,309.38 C188,317.44 203.2,322.47 226.38,325.9 C220.14,332.05 216.66,339.4 216.07,348 C202.45,354.22 182.97,357.36 169.63,338.44 C163.69,328.92 155.57,318.19 140.15,318.25 C137.61,318.15 135.12,319.12 134.75,320.23 C134.4,321.44 135.82,323.96 137.52,324.94 C151.05,333.54 153.23,338.37 158.73,350.12 C163.85,363.87 172.73,369.17 182.32,372.86 C192.13,376.33 207.99,375.37 215.29,372.86 Z" fill="none" stroke="currentColor" stroke-width="1.5"/><path d="M0,54.89 L456.24,0 L511.13,188.67 Z" fill="none" stroke="currentColor" stroke-width="1.5"/></svg>