<svg xmlns="http://www.w3.org/2000/svg" viewBox="0 0 511.13 507.7" width="24" height="24"><path d="M54.89,507.7 L0,54.89 L456.24,0 L511.13,452.81 Z" fill="none" stroke="currentColor" stroke-width="1.5"/><path d="M256.69,442.23 L256.17,388.61 C167.51,388.61 93.15,318.07 93.15,222.09 C93.15,143.19 160.69,64.7 257.32,64.7 C356.2,70.46 417.54,141.84 417.54,232.83 C417.54,276.34 394.69,328.8 363.72,363.94 C336.6,393.28 302.6,420.01 256.69,442.23 Z" fill="none" stroke="currentColor" stroke-width="1.5"/><path d="M298.86,299.77 C295.86,300.27 293.13,299.05 293.13,294.6 L293.13,278.79 C293.13,276.21 295.01,274.28 298.69,274.04 C309.55,272.01 317.09,262.3 317.09,251.36 L278.2,251.36 C272.16,251.36 269.77,247.27 269.77,242.28 L269.77,186.17 C269.77,181.47 272.15,178.28 276.44,178.28 L335.69,178.28 C339.84,178.28 342.49,182.52 342.49,186.17 L342.49,250.54 C342.49,278.18 323.13,296.19 298.86,299.77 Z M197.61,299.77 C194.61,300.27 191.88,299.05 191.88,294.6 L191.88,278.79 C191.88,276.21 193.76,274.28 197.44,274.04 C208.3,272.01 215.84,262.3 215.84,251.36 L176.96,251.36 C170.91,251.36 168.52,247.27 168.52,242.28 L168.52,186.17 C168.52,181.47 170.9,178.28 175.19,178.28 L234.44,178.28 C238.6,178.28 241.24,182.52 241.24,186.17 L241.24,250.54 C241.24,278.18 221.88,296.19 197.61,299.77 Z" fill="none" stroke="currentColor" stroke-width="1.5"/><path d="M0,54.89 L456.24,0 L511.13,188.67 Z" fill="none" stroke="currentColor" stroke-width="1.5"/></svg>