<svg xmlns="http://www.w3.org/2000/svg" viewBox="0 0 511.13 507.7" width="24" height="24"><path d="M54.89,507.7 L0,54.89 L456.24,0 L511.13,452.81 Z" fill="none" stroke="currentColor" stroke-width="1.5"/><path d="M255.45,471.63 L146.68,362.42 L237.32,271.49 L255.45,316.64 Z" fill="none" stroke="currentColor" stroke-width="1.5"/><path d="M146.68,362.42 L146.64,253.66 L193.6,253.66 L237.32,271.49 Z" fill="none" stroke="currentColor" stroke-width="1.5"/><path d="M37.56,253.66 L146.86,145.15 L238.17,235.64 L193.6,253.66 Z" fill="none" stroke="currentColor" stroke-width="1.5"/><path d="M238.17,235.64 L146.86,145.15 L255.71,145.15 L255.71,191.13 Z" fill="none" stroke="currentColor" stroke-width="1.5"/><path d="M255.71,191.13 L255.71,35.24 L364.27,145.07 L273.57,235.67 Z" fill="none" stroke="currentColor" stroke-width="1.5"/><path d="M273.57,235.67 L364.27,145.07 L364.31,253.96 L318.13,253.96 Z" fill="none" stroke="currentColor" stroke-width="1.5"/><path d="M273.66,271.68 L318.13,253.96 L473.31,253.96 L364.49,362.63 Z" fill="none" stroke="currentColor" stroke-width="1.5"/><path d="M255.45,316.64 L273.66,271.68 L364.49,362.63 L255.45,362.7 Z" fill="none" stroke="currentColor" stroke-width="1.5"/><path d="M0,54.89 L456.24,0 L511.13,188.67 Z" fill="none" stroke="currentColor" stroke-width="1.5"/></svg>