<svg xmlns="http://www.w3.org/2000/svg" viewBox="0 0 511.13 507.7" width="24" height="24"><path d="M54.89,507.7 L0,54.89 L456.24,0 L511.13,452.81 Z" fill="none" stroke="currentColor" stroke-width="1.5"/><path d="M359.16,276.57 C362.65,275.08 369.08,270.79 370.93,248.27 C370.36,230.42 367.42,211.9 357.58,192.7 C340,157.84 308.47,131.22 257.05,131.46 C190.61,132.51 149.94,185.3 144.01,224.81 C142.3,237.85 143.63,251.2 151,259.35 C160.03,266.91 169.67,270.23 177.5,270.22 C188.07,270.09 196.11,263.86 202.16,252.89 C212.71,232.96 216.03,197.65 215.32,162.77 C236.25,169.58 263.37,184.31 284.61,212.66 L321.15,263.64 C329.38,274.44 346.17,281.54 359.16,276.57 Z M261.92,408.87 C171.76,408.87 103.74,339.79 103.74,252.61 C103.74,171 170.45,98.11 259.95,98.11 C343.68,98.11 414.65,166.28 414.65,256.48 C414.65,333.16 349.05,408.87 261.92,408.87 Z" fill="none" stroke="currentColor" stroke-width="1.5"/><path d="M0,54.89 L456.24,0 L511.13,188.67 Z" fill="none" stroke="currentColor" stroke-width="1.5"/></svg>