<svg xmlns="http://www.w3.org/2000/svg" viewBox="0 0 511.13 507.7" width="24" height="24"><path d="M54.89,507.7 L0,54.89 L456.24,0 L511.13,452.81 Z" fill="none" stroke="currentColor" stroke-width="1.5"/><path d="M204.61,207.6 L253.02,190.43 L300.96,207.68 L252.62,224.86 Z M40.1,251.23 L88.51,234.06 L136.45,251.31 L88.11,268.49 Z M150.45,251.27 L198.87,234.1 L246.8,251.35 L198.47,268.53 Z M374.44,251.12 L422.86,233.95 L470.79,251.2 L422.46,268.38 Z M316.63,294.79 L365.04,277.61 L412.97,294.87 L364.64,312.04 Z M94.5,294.85 L142.91,277.67 L190.84,294.93 L142.51,312.1 Z M204.35,294.79 L252.77,277.61 L300.7,294.87 L252.37,312.04 Z" fill="none" stroke="currentColor" stroke-width="1.5"/><path d="M150.24,165.09 L198.66,147.91 L246.59,165.17 L198.26,182.34 Z M261.63,164.9 L310.04,147.72 L357.98,164.98 L309.64,182.15 Z M316.53,207.64 L364.95,190.47 L412.88,207.72 L364.55,224.9 Z M94.32,207.61 L142.73,190.43 L190.66,207.69 L142.33,224.87 Z M261.5,251.18 L309.91,234 L357.84,251.26 L309.51,268.44 Z M204.72,351.83 L253.13,334.65 L301.07,351.91 L252.73,369.09 Z" fill="none" stroke="currentColor" stroke-width="1.5"/><path d="M0,54.89 L456.24,0 L511.13,188.67 Z" fill="none" stroke="currentColor" stroke-width="1.5"/></svg>