<svg xmlns="http://www.w3.org/2000/svg" viewBox="0 0 511.13 507.7" width="24" height="24"><path d="M54.89,507.7 L0,54.89 L456.24,0 L511.13,452.81 Z" fill="none" stroke="currentColor" stroke-width="1.5"/><path d="M325.56,302.71 C347.8,315.2 360.94,317.27 375.5,318.53 C390.76,319.07 402.84,309.89 402.84,300.45 C402.84,292.36 399.66,283.04 384.31,273.79 L344.77,253.9 C334.78,247.26 323.77,233.96 324.43,209.62 C326.24,182.91 343.3,168.79 369.17,161.94 C383.5,159.32 412.16,163.24 425.66,173.46 L425.44,200.58 C412,193.34 396.94,187.86 386.57,187.47 C374.98,187.41 366.22,190.17 361.26,196.74 C356.12,207.19 359.13,215.2 366.01,222.04 C384.75,238.24 397.76,238.07 410.97,245.32 C427.75,255.08 437.02,270.29 437.52,279.97 C437.88,309.63 429.45,322 418.22,331.39 C403.93,342.23 386.84,347.41 369.78,347.25 C357.3,346.65 342.92,342.75 325.33,333.22 Z M221.02,319.42 C239.89,319.42 255.21,310.65 262.78,293.52 C268.31,283.47 272.37,252.43 267.68,228.58 C264.55,209.48 245.11,189.08 223.89,189.08 C197.68,189.08 188.58,196.09 177.56,217.07 C171.48,233.45 169.63,260.08 176.28,285.81 C184.69,313.24 207.89,319.42 221.02,319.42 Z M135.58,257.45 C135.58,226.22 142.78,207.17 158.68,187.35 C171.26,172.22 185.4,165.19 208.28,162.39 C228.3,160.92 244.6,162.83 256.59,165.58 C279.6,171.53 294.11,191.1 298.2,209.85 C306.67,250.62 302.82,269.17 300.88,284.63 C295.65,310.93 279.35,327.7 254.2,339.52 C228.79,350.19 189.79,347.6 166.45,332.88 C144.37,316.38 135.58,293.79 135.58,257.45 Z M90.79,192.33 C80.51,192.33 70.11,185.42 70.11,173.46 C70.11,162.76 81.12,153.01 91.46,153.01 C101.41,153.01 111.35,163.53 111.35,172.78 C111.35,182.17 101.84,192.33 90.79,192.33 Z M74.76,343.88 L75.42,212.55 L106.38,212.33 L107.43,343.98 Z" fill="none" stroke="currentColor" stroke-width="1.5"/><path d="M0,54.89 L456.24,0 L511.13,188.67 Z" fill="none" stroke="currentColor" stroke-width="1.5"/></svg>