<svg xmlns="http://www.w3.org/2000/svg" viewBox="0 0 511.13 507.7" width="24" height="24"><path d="M54.89,507.7 L0,54.89 L456.24,0 L511.13,452.81 Z" fill="none" stroke="currentColor" stroke-width="1.5"/><path d="M258.25,447.54 C136.64,447.54 62.54,348.01 62.54,251.55 C62.54,142.29 151.77,57.52 258.25,57.52 C378.36,57.52 452.47,158.8 452.47,251.55 C452.47,362.75 361.1,447.54 258.25,447.54 Z" fill="none" stroke="currentColor" stroke-width="1.5"/><path d="M252.95,358.95 C272.23,358.95 305.67,342.15 305.67,290.59 L305.67,155.62 C305.67,143.95 296.26,132.61 283.49,132.61 C271.47,132.61 261.92,144.56 261.92,154.66 L261.92,290.63 C261.92,306.42 259.25,315.79 248.82,315.79 L199.16,315.79 C184.9,316.87 178.37,329.19 178.37,336.84 C179.17,351.54 190.88,358.95 198.33,358.95 Z M258.25,427.4 C179.74,427.4 82.5,367.32 82.5,251.55 C82.5,158.46 158.6,77.65 258.25,77.65 C371.64,77.65 432.58,177.12 432.58,251.55 C432.58,339.99 360.47,427.4 258.25,427.4 Z" fill="none" stroke="currentColor" stroke-width="1.5"/><path d="M0,54.89 L456.24,0 L511.13,188.67 Z" fill="none" stroke="currentColor" stroke-width="1.5"/></svg>