<svg xmlns="http://www.w3.org/2000/svg" viewBox="0 0 511.13 507.7" width="24" height="24"><path d="M54.89,507.7 L0,54.89 L456.24,0 L511.13,452.81 Z" fill="none" stroke="currentColor" stroke-width="1.5"/><path d="M298.99,89.31 C289.22,105.06 283.58,125.22 291,151.31 C308.06,191.28 339.96,199.79 350.76,200.84 C377.13,203.28 398.47,195.79 414.67,178.79 C405.34,193.84 391.88,215.62 349.8,217.78 C318.38,219.03 287.39,199.73 276.78,162.65 C269.25,116.7 286.38,103.31 298.99,89.31 Z M230.29,88.2 C218.31,108.67 206.44,137.32 213.99,178.63 C227.81,243.18 283.54,275.36 325.35,279.45 C372.03,285.17 406.89,264.22 429.85,242.86 C407.25,277.09 380.49,301.58 330.63,307.09 C265.31,313.86 200.48,271.29 190.02,197.32 C183.22,132.73 219.43,97.98 230.29,88.2 Z M148.96,114.4 C133.41,140.43 120.1,169.18 123.87,218.73 C132.78,301.7 189.12,348.03 239.87,367.01 C311.03,388.96 370.2,370.95 420.16,327.1 C396.03,369.34 350.82,403.6 293.82,412.03 C219.2,423.25 149.16,387.54 113.1,320.71 C60.79,218.55 122.16,137.86 148.96,114.4 Z" fill="none" stroke="currentColor" stroke-width="1.5"/><path d="M0,54.89 L456.24,0 L511.13,188.67 Z" fill="none" stroke="currentColor" stroke-width="1.5"/></svg>