<svg xmlns="http://www.w3.org/2000/svg" viewBox="0 0 511.13 507.7" width="24" height="24"><path d="M54.89,507.7 L0,54.89 L456.24,0 L511.13,452.81 Z" fill="none" stroke="currentColor" stroke-width="1.5"/><path d="M193.29,446.77 C168.01,446.77 135.82,425.97 135.82,386.48 L135.82,344.36 L92.93,344.36 C85.46,344.36 77.2,340.11 77.35,327.27 L77.35,244.37 C77.35,236.61 81.86,228.43 91.75,228.16 L135.82,228.16 L135.82,124.37 C135.82,95.92 160.31,67.45 195.61,67.45 L309.63,67.45 C319.79,67.45 333.05,74.68 345.74,87.12 L409.12,150.89 C424.61,167.72 427.14,176.38 427.14,187.21 L427.14,388.17 C427.14,418.26 403.86,446.77 365.74,446.77 Z" fill="none" stroke="currentColor" stroke-width="1.5"/><path d="M279.51,315.56 L279.51,252.92 L299.33,252.92 L321.28,287.57 L321.28,252.92 L336.61,252.92 L336.61,315.56 L320.51,315.56 L295.07,274.08 L295.07,315.56 Z M250.69,284.61 C250.65,277.08 248.59,264.63 235.42,264.26 C225.66,264.1 220.72,274.27 220.75,283.9 C221.05,298.67 227.8,304.48 235.89,304.49 C244.81,304.3 250.57,297 250.69,284.61 Z M203.47,280.35 C203.87,264.03 216.74,253.11 229.15,251.95 C242.8,250.76 249.65,253.26 255.9,257.16 C264.23,263.18 269.82,274.24 267.49,291.6 C265.24,303.78 257.52,315.65 238.97,316.92 C232.15,317.28 218.97,317.6 209.98,305.56 C205.85,299.55 203.3,295.17 203.47,280.35 Z M143.17,296.48 L145.42,296.23 C155.93,304.12 163.65,304.66 171.07,304.42 C175.49,303.78 179.23,302.72 179.54,298.85 C179.74,296.06 176.81,294.21 173.97,293.48 C165.19,291.17 157.98,291.93 148.9,284.92 C141.66,278.14 142.01,269.91 145.48,263.43 C151.67,253.8 162.44,252.31 168.98,251.73 C180.03,251.64 188.85,253.55 194.38,256.24 L194.32,270.97 L191.89,271.16 C186.83,267.24 181.28,264.68 173.52,264.24 C169.21,264.16 164.11,264.13 160.99,267.63 C159.35,273.47 163.65,273.85 167.39,274.73 C177.29,276.98 182.83,277.57 190.45,282.36 C200.07,289.78 197.02,302.42 191.98,308.15 C185.35,314.59 178.91,316.94 166.78,316.92 C159.81,316.82 151.23,315.79 143.06,311.8 Z M93.66,301.77 C97.56,303.08 100.37,304.89 109.38,303.78 C112.66,302.9 116.01,300.43 116.01,295.5 L116.01,265.18 L101.73,265.18 L101.73,252.92 L132.86,252.92 L132.86,299.19 C131.55,308.86 126.11,313.95 117.66,315.58 C111.75,316.87 104.88,317.56 93.66,315.53 Z M164.77,344.36 L339.57,344.36 C348.64,344.36 354.36,337.31 354.36,328.52 L354.36,243.05 C354.36,234.51 348.27,228.16 338.78,228.16 L164.77,228.16 L164.77,126.31 C164.77,105.53 182,96.4 193.85,96.4 L298.19,96.4 C308.82,96.4 310.66,108.63 310.66,115.1 L310.72,169.1 C310.72,179.05 319.08,184.08 325.37,184.08 L379.8,184.08 C387.25,184.08 398.33,186.42 398.33,199.52 L398.33,386.86 C398.33,403.54 387.52,417.52 367.97,417.52 L194.83,417.52 C180.69,417.52 164.77,407.48 164.77,387.34 Z" fill="none" stroke="currentColor" stroke-width="1.5"/><path d="M0,54.89 L456.24,0 L511.13,188.67 Z" fill="none" stroke="currentColor" stroke-width="1.5"/></svg>