<svg xmlns="http://www.w3.org/2000/svg" viewBox="0 0 511.13 507.7" width="24" height="24"><path d="M54.89,507.7 L0,54.89 L456.24,0 L511.13,452.81 Z" fill="none" stroke="currentColor" stroke-width="1.5"/><path d="M269.75,330.5 C249.04,359.74 214.02,379.55 172.29,379.55 C110.44,379.55 48.44,331.76 48.44,256.54 C48.44,192.84 96.92,133.57 173.56,133.57 C217.84,133.57 261.36,158.84 283.33,204.99 C298.87,239.04 306.51,267.07 326.79,305.97 C340.48,336.21 360.49,343.18 379.39,343.35 C399.6,342.27 419.6,331.09 426.27,316.2 C432.64,302.19 428.52,290.99 419.16,280.9 C412.53,273.74 388.64,265.32 373.93,262.74 C350.09,257.84 315.29,238.57 314.65,196.05 C314.97,159.32 346.47,134.68 374.01,133.64 C410.13,132.69 429.31,156.09 434.76,171.42 L408.22,184.54 C402.9,173.29 391.57,161.72 372.02,164.28 C354.22,167.63 344.24,184.18 344.43,197.44 C347.08,222.81 366.68,229.24 374.94,230.11 C402.71,231.97 432.36,244.65 448.86,265.71 C461.78,280.67 463.53,305.81 454.42,328.53 C445.04,350.99 425.32,373.15 389.09,377.74 C345.66,381.77 315.4,356.49 300.59,321.95 C284.86,290.01 269.11,256.32 253.26,214.55 C245.4,197.97 224.23,164.59 168.03,162.96 C132.05,164.3 82.88,190.27 77.23,253.38 C77.85,316.15 128.34,351.32 172.6,350.45 C210.03,349.02 238.92,328.69 252.49,303.42 Z" fill="none" stroke="currentColor" stroke-width="1.5"/><path d="M0,54.89 L456.24,0 L511.13,188.67 Z" fill="none" stroke="currentColor" stroke-width="1.5"/></svg>