<svg xmlns="http://www.w3.org/2000/svg" viewBox="0 0 511.39 507.7" width="24" height="24"><path d="M55.02,507.7 L0.13,54.89 L456.38,0 L511.27,452.81 Z" fill="none" stroke="currentColor" stroke-width="1.5"/><path d="M250.94,406.13 C335.17,406.13 401.97,343.19 401.97,258.59 C401.97,180.26 341.44,108.75 251.18,108.75 C171.85,108.17 103.88,175.79 103.88,257.4 C103.88,344.34 178.25,406.13 250.94,406.13 Z M250.55,457.12 C143.74,457.12 53.7,367.88 53.7,256.12 C53.7,145.72 146.74,57.68 247.04,57.68 C362.67,57.68 452.42,146.76 452.42,257.08 C452.42,361.04 369.22,457.12 250.55,457.12 Z" fill="none" stroke="currentColor" stroke-width="1.5"/><path d="M0.1,405.91 C87.6,405.91 160.92,336.16 160.92,259.32 C160.58,226.59 152.95,194.73 132.88,169.52 C143,155.9 155.28,144.08 168.99,134.45 C207.87,185.6 219.33,244.26 206.32,300.86 C176.19,414.14 72.92,457.09 0.26,457.09 C0.2,456.29 0.14,455.23 0.08,453.98 Z M0,58.04 C50.72,57.58 105.12,77.47 131.7,98.75 C117.54,109.61 103.71,124.47 95.69,134.85 C69.02,116.81 31.67,109.08 0.15,108.86 Z" fill="none" stroke="currentColor" stroke-width="1.5"/><path d="M340.27,378.75 C318.66,347.86 301.19,312.47 299.9,259.47 C299.9,142.49 398.57,57.98 511.27,57.98 L511.29,108.42 C441.35,108.42 357.01,152.37 350.69,257.06 C350.2,297.21 362.2,321.24 375.98,342.96 C366.35,356.86 354.02,369.22 340.27,378.75 Z M412.01,377.15 C444.21,398.66 479.28,405.75 511.39,405.75 L511.31,456.56 C455.9,456.56 409.22,438.34 376.22,414.05 C389.71,403.38 401.54,390.98 412.01,377.15 Z" fill="none" stroke="currentColor" stroke-width="1.5"/><path d="M0.13,54.89 L456.38,0 L511.27,188.67 Z" fill="none" stroke="currentColor" stroke-width="1.5"/></svg>