<svg xmlns="http://www.w3.org/2000/svg" viewBox="0 0 511.13 507.7" width="24" height="24"><path d="M54.89,507.7 L0,54.89 L456.24,0 L511.13,452.81 Z" fill="none" stroke="currentColor" stroke-width="1.5"/><path d="M246.34,333.91 C288.58,333.91 324.65,302.27 324.65,256.19 C324.65,215.62 290.43,180.9 248.52,180.9 C204.23,180.9 172.17,219.62 172.17,254.88 C172.17,304.97 213.02,333.91 246.34,333.91 Z M329.35,410.04 C333.42,422.01 330.93,428.18 321.6,434.13 C285.55,455.35 208.58,453.33 148.74,420.39 C97.34,392.16 52.01,336.15 50.85,250.29 C50.85,169.33 115.64,61.83 253.13,61.83 C401.82,61.83 457.25,180.15 457.25,250.2 C457.25,296.5 443.21,344.88 413.75,376 C400.13,391.34 379.75,398.25 356.27,388.23 C340.85,382.33 325.15,366.5 327.21,337.74 C302.05,364.08 266.62,377.08 220.51,366.99 C166.74,355.86 133.4,304.92 133.4,256.94 C133.4,184.26 195.15,140.6 245.78,140.6 C284.54,140.6 311.9,160.71 327.06,175.11 C329.75,166.05 334.25,157.14 348.45,157.32 C358.69,157.32 365.11,164.06 364.82,176.87 L364.82,340.07 C369.9,348.41 377.74,347.74 383.49,342.32 C397.46,328.18 406.67,307.99 411.04,278.11 C417.11,234.7 403.67,172.79 349.7,135.16 C276.08,88.71 200.64,98.01 149.2,140.52 C108.76,175.34 82.63,238.22 104.08,301.18 C118.27,348.71 150.44,379.99 198.97,396.49 C244.81,411.2 274.93,403.64 305.2,396.31 C318.08,394.31 324.35,396.66 329.35,410.04 Z" fill="none" stroke="currentColor" stroke-width="1.5"/><path d="M0,54.89 L456.24,0 L511.13,188.67 Z" fill="none" stroke="currentColor" stroke-width="1.5"/></svg>