<svg xmlns="http://www.w3.org/2000/svg" viewBox="0 0 511.13 507.7" width="24" height="24"><path d="M54.89,507.7 L0,54.89 L456.24,0 L511.13,452.81 Z" fill="none" stroke="currentColor" stroke-width="1.5"/><path d="M33.51,354.94 L33.51,166.7 L469.71,166.7 L469.71,354.94 Z" fill="none" stroke="currentColor" stroke-width="1.5"/><path d="M396.46,280.73 C404.26,281.51 410.78,275.9 414.43,270.66 C420.48,261.18 421.88,255.83 422.34,247.25 C422.72,241.87 421.6,232.69 415.79,232.55 C410.29,232.37 406.41,239.02 404.12,243.66 C398.57,255.37 397.43,269.41 396.46,280.73 Z M322.92,242.47 C328.01,243.97 333.54,246.11 337.04,249.34 C340.62,253.15 341.36,259.79 341,263.68 C340.12,271.45 339.23,276.43 339.99,282.63 C340.75,287.27 343.07,289.12 346.36,289.24 C348.8,289.27 353.88,286.11 356.72,279.28 C360.19,269.25 361.38,257.49 356.64,245.82 C364.4,246.17 369.5,248.93 371.58,256.73 C373.08,263.25 370.69,271.12 369.18,274.2 C373.93,277.52 378.18,279.89 384.8,280.03 C385.54,266.4 387.01,257.61 389.12,246.65 C391.64,236.41 395.83,229.09 405.35,224.28 C412.64,221.12 424.41,221.31 431.42,226.18 C440.93,234.18 438.34,249.94 435.14,257.55 C430.08,269.67 426.39,274.46 417.15,280.54 C412.68,282.99 404.06,284.03 396.17,284.04 C395.17,297.17 396.24,315.37 396.46,331.72 L383.99,331.78 C383.65,319.04 383.08,294.75 384.79,280.71 C371.8,279.9 370.89,282.1 366.83,280.39 C362.14,289.25 355.35,297.4 346.6,300.42 C340.44,302.18 332.14,300.71 327.96,290.26 C326.64,286.92 326.48,281.67 326.7,276.22 C326.97,264.41 327.08,253.49 322.92,242.47 Z M287.43,304.51 L283.17,259.88 L266.87,257.56 L270.35,247.17 L287.61,247.05 C285.94,223.69 284.02,202.64 282.05,181.95 L293.43,189.24 C295.42,209.6 296.61,228.35 297.71,246.93 L309.22,247.09 L311.61,256.6 L294.2,256.76 C295.53,270.79 296.7,287.42 297.83,304.62 Z M217.66,272.87 C212.29,271 206.58,268.09 201,261.95 C193.44,265.41 184.59,268.51 174.93,271.37 C176.61,280.09 177,285.08 182.18,291.1 C186.99,295.68 191.85,295.44 202.84,295.07 C212.83,294.58 219.09,292.24 223.47,289.29 C220.84,285.01 217.95,278.82 217.66,272.87 Z M228.99,263.89 C237.17,262.49 240.9,261.19 248.03,256.22 C252.07,253.14 253.92,249.17 252.65,242.7 C250.88,237.03 246.44,233.68 240.96,233.21 C237.29,233.04 235.2,234.39 232.17,242.19 C229.66,248.92 229.35,255.38 228.99,263.89 Z M174.74,265.03 C184.09,262.97 189.48,260.38 194.38,257.72 C197.44,255.85 199.95,253.16 200.91,248.15 C201.47,243.57 200.5,239.15 194.33,235.31 C187.34,232.07 183.39,233.18 179.16,238.26 C173.89,245.87 174.27,255.93 174.74,265.03 Z M68.51,297.82 C69.62,284.82 71.71,272.13 68.67,253.01 C67.61,245.96 67.08,238.45 67.71,229.92 C68.04,225.58 69,224.43 69.95,223.21 C71.65,221.57 73.17,220.94 74.66,220.57 C77.39,220.2 80.11,222.01 81.05,223.65 C88.98,241.83 100.98,258.68 109.89,275.22 C111,260.39 111.94,245.25 113.41,232.79 C114,227.71 114.94,223.5 116.84,220.9 C119.29,217.57 122.75,213.55 125.85,211.91 C129.52,210.24 133.22,211.07 134.31,213.04 C139.38,222.36 145.4,252.99 149.8,273.14 L164.3,267.95 C163.58,259.65 164.27,252.12 165.89,245.1 C167.71,237.05 172.88,229.16 178.22,223.53 C182.67,219.7 189.57,217.85 197.43,221.26 C209.98,228.87 210.82,246.04 209.23,250.74 C208.03,255.24 208.1,257.32 209.59,259.43 C211.9,262.53 214.02,263.06 216.19,264.17 C215.49,254.2 217.46,246.4 220.14,239.19 C223.41,231.47 227.9,225.2 234.04,220.89 C237.7,218.67 246.24,218.47 252.45,223.09 C260.65,230.73 263.07,238.85 262.04,246.78 C260.97,254.44 259.47,258.69 250.3,263.55 C246.02,265.5 233.48,269.6 228.62,270.82 C228.55,278.89 229.09,283.18 232.16,289.04 C237.2,295.97 245.5,295.77 254.24,295.03 C270.77,293.43 273.89,291 277.73,287.98 C276.52,293.21 265.78,299.44 258.73,302.54 C252.16,305.03 246.41,306.11 238.75,303.42 C233.91,301.56 229.23,297.61 224.49,291.07 C219.38,295.48 207.03,304.01 194.54,304.65 C187.91,304.62 180.45,301.52 174.88,294.07 C170.18,287.6 167.75,282.03 165.58,274.34 L152.87,278.77 C154.84,284.64 155.75,288.68 156.35,292.79 L145.6,292.67 C144.49,284.57 143.22,276.19 141.05,266.19 C139.27,258.38 136.85,245.92 133.02,240.54 C131.04,238.04 129.35,238.56 128.55,241.5 C127.05,247.87 127.14,253.39 127.2,261.09 C127.1,269.32 126.56,281.5 125.27,286.6 C124.29,290.44 120.65,293.29 117.52,293.27 C113.18,293.03 109.59,290.74 106.26,286.96 C100.47,279.41 100.47,275.77 96.19,270.5 C92.47,265.62 88.19,261.36 84.05,258.92 C85.98,264.88 91.02,288.68 89.68,294.07 Z" fill="none" stroke="currentColor" stroke-width="1.5"/><path d="M0,54.89 L456.24,0 L511.13,188.67 Z" fill="none" stroke="currentColor" stroke-width="1.5"/></svg>