<svg xmlns="http://www.w3.org/2000/svg" viewBox="0 0 511.13 507.7" width="24" height="24"><path d="M54.89,507.7 L0,54.89 L456.24,0 L511.13,452.81 Z" fill="none" stroke="currentColor" stroke-width="1.5"/><path d="M290.21,434.29 C304.38,427.1 315.93,424.21 328.3,418.16 C343.57,410.5 344.99,410.51 350.68,404.96 C356.37,399.01 357.15,395.38 354.99,390.34 C349.18,379.53 333.32,339.8 323.86,308.34 C320.28,296.47 317.34,281.45 316.53,263.27 C316.91,241.39 324.58,228.85 344.27,217.18 C362.12,207.59 380.78,198.58 394.14,192.5 C417.78,180.34 425.85,167.16 426.76,149.63 C428.2,126.69 426.67,119.52 423.3,104.65 C432.3,120.21 440.86,136.61 435.81,156.29 C429.86,177.96 414.35,193.04 395.18,202.92 C378.16,211.2 361.77,219.48 350.01,227.76 C333.65,239.28 325.38,258.39 331.05,281.58 C338.22,312.57 357.39,350.1 367.7,380.75 C373.57,399.44 369.21,409.41 360.66,416.54 C352.48,422.86 342.65,428.82 325.51,433.16 C315.11,435.37 304.2,437.34 290.32,437.82 C286.48,437.97 286.61,436 290.21,434.29 Z M260.03,261.47 C251.74,265.19 238.51,275 206.24,273.3 C187.17,271.31 164.22,259.81 152.31,232.47 C143.74,211.26 137.36,180.72 152.55,154.85 C162.78,138.34 188.01,117.83 218.78,111.68 C257.06,104.58 290.25,110.84 316.17,123.53 C335.77,132.04 351.99,142.67 367.22,144.81 C375.83,145.67 379.89,143.9 384.95,139.16 C391.39,132.64 391.28,125.35 392.06,115.93 C394.51,124.91 398.63,135.91 392.49,146.25 C381.67,158.4 365.15,157.89 353.2,153.58 C322.36,143.07 300.29,128.38 276.94,125.74 C257.23,122.72 234.27,121.46 208.93,129.65 C182.16,136.57 161.2,158.41 161.11,194.24 C161.31,229.18 185.84,259.99 208.56,265.07 C230.98,267.72 246.79,265.54 260.03,261.47 Z M277.88,439.02 C278.9,415.54 281.18,402.12 280.81,380.22 C280.81,370.22 281.08,367.33 271.41,363.65 C253.96,357.94 226.61,356.72 199.76,356.16 C223.26,354.05 251.82,347.64 286.9,355.68 C292.73,357.6 293.46,362.57 293.52,365.93 C293.03,381.99 290.06,400.85 287.17,417.22 C284.6,428.99 283.22,436.48 277.88,439.02 Z M269.38,434.46 C272.87,435.98 271.97,437.42 269.27,437.63 C238.91,440.04 208.03,441.79 173.95,439.49 C135.22,437.1 100.44,425.17 78.34,388.42 C61.85,359.35 69.69,320.6 82.53,290.03 C93.58,264.12 120.93,234.76 142.14,216.98 C124.55,243.23 104.54,272.32 93.41,304.11 C74.33,360.45 91.78,387.41 115.38,403.68 C146.93,425.72 200.31,429.34 250.1,431.88 C257.8,432.36 264.19,433.23 269.38,434.46 Z" fill="none" stroke="currentColor" stroke-width="1.5"/><path d="M0,54.89 L456.24,0 L511.13,188.67 Z" fill="none" stroke="currentColor" stroke-width="1.5"/></svg>