<svg xmlns="http://www.w3.org/2000/svg" viewBox="0 0 511.13 507.7" width="24" height="24"><path d="M54.89,507.7 L0,54.89 L456.24,0 L511.13,452.81 Z" fill="none" stroke="currentColor" stroke-width="1.5"/><path d="M161.9,353.91 C144.68,353.43 129.46,353.78 104.48,348.42 C94.98,345.84 85.62,342.52 78.03,335.41 C75.22,332.73 72.34,329.91 71.6,324.77 C65.32,323.64 57.64,318.57 53.53,309.26 C50,301.35 51.37,277.84 57.72,261.74 C67.18,238.27 85.9,217.28 120.62,202.26 C108.54,191.63 98.17,178.15 98.43,154.22 C98.43,130.67 120.22,100.2 156.73,100.2 C180.6,100.2 211.73,120.04 211.73,157.76 C211.75,177.82 200.36,193.84 190.62,201.35 C209.64,209.44 220.43,216.6 239.21,235.14 Z" fill="none" stroke="currentColor" stroke-width="1.5"/><path d="M157.58,350.46 C144.44,350.06 129.64,349.34 115.27,346.68 C99.37,343.53 92.09,341.21 83.42,335.17 C78.03,330.86 75.28,327.94 75.46,320.83 C69.62,321.36 58.29,315.27 55.71,304.58 C53.23,292.42 56.54,273.61 62.97,260.36 C75.85,234.63 84.01,228.3 93.22,221.63 C109.46,210.35 120.76,205.85 130.57,203.39 C119.33,198.79 102.71,183.6 102.15,155.54 C102.15,131.58 124.18,104.36 155.82,104.36 C180.35,104.36 207.77,125.37 207.77,158.61 C207.77,178.4 194.8,196.82 179.77,203.61 C201.87,207.61 220.54,221.12 233.21,235.08 Z" fill="none" stroke="currentColor" stroke-width="1.5"/><path d="M178.72,402.69 C167.69,400.35 157.83,392.58 152.77,382.07 C146.23,369.78 146.74,342.65 154.97,316.15 C166.04,284.21 184.71,263.34 199.71,250.19 C218.97,234.44 238.51,225.11 252.43,218.63 C231.79,202.99 219.82,179.09 218.75,151.02 C218.75,101.22 261.44,65.84 305.4,65.84 C345.17,65.84 389.12,99.88 389.12,152.83 C389.12,175.16 377.66,201.15 356.47,217.8 C384.31,228.52 408.98,244.79 429.46,268.19 C449.09,292.82 462.7,326.55 462.31,361.7 C460.8,382.6 451.15,395.88 432.79,402.19 C426.73,423.15 400.86,432.16 380.14,438.39 C334.36,449.74 280.34,448.57 231.63,439.38 C209.83,435.08 180.3,421 178.72,402.69 Z" fill="none" stroke="currentColor" stroke-width="1.5"/><path d="M184.18,397.15 C176.27,397.19 159.43,389.1 155.25,373.82 C151.99,362.26 152.45,339.1 161.27,317.51 C173.67,283.18 189.93,265.64 204.42,253.4 C220.94,239.41 245.56,225.8 266.48,220.96 C247.59,211.14 223.02,187.08 224.96,149.89 C224.96,106.88 261.15,72.5 306.42,72.5 C346.79,72.5 382.68,107.96 382.68,153.06 C382.68,185.65 361.75,211 341.67,220.51 C377.46,230.08 404.77,249.53 423.13,270.78 C440.52,292.52 455.79,324.49 456.85,358.51 C456.85,386.06 441.05,395.17 426.63,397 C425.28,412.72 419.53,417.02 400.68,425.58 C370.87,439.06 317.88,443.33 272.41,439.12 C245.26,436.53 225.59,434.12 204.23,423.25 C193.38,417.12 183.82,410.06 184.18,397.15 Z" fill="none" stroke="currentColor" stroke-width="1.5"/><path d="M0,54.89 L456.24,0 L511.13,188.67 Z" fill="none" stroke="currentColor" stroke-width="1.5"/></svg>