<svg xmlns="http://www.w3.org/2000/svg" viewBox="0 0 511.13 507.7" width="24" height="24"><path d="M54.89,507.7 L0,54.89 L456.24,0 L511.13,452.81 Z" fill="none" stroke="currentColor" stroke-width="1.5"/><path d="M272.55,292.71 L360.43,199 L281.57,242.94 L239.63,198.84 L151.59,292.79 L231.56,248.85 Z M155.59,414.86 L155.51,357.58 C130.1,339.35 95.59,297.2 95.59,244.46 C95.59,144.92 180.22,90.63 256.62,90.63 C345.02,90.63 417.66,156.73 417.66,244.31 C417.66,305.54 362.93,390.98 253.61,390.98 C246.37,390.98 226.32,389.34 210.39,384.58 Z" fill="none" stroke="currentColor" stroke-width="1.5"/><path d="M0,54.89 L456.24,0 L511.13,188.67 Z" fill="none" stroke="currentColor" stroke-width="1.5"/></svg>