<svg xmlns="http://www.w3.org/2000/svg" viewBox="0 0 511.13 507.7" width="24" height="24"><path d="M54.89,507.7 L0,54.89 L456.24,0 L511.13,452.81 Z" fill="none" stroke="currentColor" stroke-width="1.5"/><path d="M329.73,185.76 C297.69,185.76 270.66,160.97 270.66,127.05 C270.66,98.74 292.7,69.83 330.51,69.83 C362.08,69.83 387.34,96.3 387.34,127.65 C387.34,159.77 361.22,185.76 329.73,185.76 Z M222.28,175.22 C198.08,175.22 179.21,155.42 179.21,133.69 C179.21,102.22 205.85,90.79 222.53,90.79 C246.13,90.79 263.78,111.44 263.78,132.69 C263.78,155.95 245.99,175.22 222.28,175.22 Z M137.44,171.08 C123.59,171.08 102.69,159.31 102.69,135.8 C102.69,112.54 122.52,101.28 138.42,101.28 C156.26,101.28 172.42,115.29 172.42,136.25 C172.42,152.3 159.15,171.08 137.44,171.08 Z M91.47,307.05 L91.47,222.57 C91.47,191.17 117.14,176.81 137.89,176.81 C159.93,176.81 173.81,190.6 179.1,202.27 C193.03,185.8 209.4,182.69 222.97,182.69 C249.46,182.69 268.67,201.93 274.81,219.26 C291.67,201.81 311.22,195.92 332.33,196.77 C369.96,196.77 406.92,231.6 406.92,271.75 L406.92,420.9 L245.44,420.9 L245.44,344.95 L169.43,344.95 L169.43,307.05 Z" fill="none" stroke="currentColor" stroke-width="1.5"/><path d="M0,54.89 L456.24,0 L511.13,188.67 Z" fill="none" stroke="currentColor" stroke-width="1.5"/></svg>