<svg xmlns="http://www.w3.org/2000/svg" viewBox="0 0 511.13 507.7" width="24" height="24"><path d="M54.89,507.7 L0,54.89 L456.24,0 L511.13,452.81 Z" fill="none" stroke="currentColor" stroke-width="1.5"/><path d="M411.95,251.33 C411.95,191.62 363.23,103.54 260,103.53 L260,58.16 C379.18,58.16 458.21,156.59 458.21,251.33 Z M344.53,251.33 C344.53,203 307.76,165.53 260,165.53 L260,118.55 C345.92,116.25 391.82,182.01 391.82,251.33 Z M457.81,264.91 C457.81,343.88 386.3,451.8 259.76,451.8 C184.36,451.8 64.34,395.87 64.34,247.74 C64.34,156.75 142.98,64.88 246.55,58.9 L246.55,104.39 C165.3,113.28 110.06,181.26 110.06,251.69 C110.06,355.47 196.14,406.2 259.9,406.2 C326.33,406.2 403.39,360.81 411.63,264.91 Z" fill="none" stroke="currentColor" stroke-width="1.5"/><path d="M313.05,340.71 C310.9,332.75 309.12,323.76 301.71,315.4 C298.56,311.6 290.71,311.02 284.13,314.2 C273.07,320 265.92,321.2 260,321.31 C228.49,321.31 193.15,291.63 193.15,249.32 C195.89,204.21 230.09,182.92 262.2,182.92 C302.8,182.92 329.2,217.42 329.2,250.56 C329.2,262.06 326.08,269.37 324.16,275.97 C320.53,286.43 320.29,293.61 322.39,304.47 C323.32,313.85 317.23,330.09 313.05,340.71 Z" fill="none" stroke="currentColor" stroke-width="1.5"/><path d="M0,54.89 L456.24,0 L511.13,188.67 Z" fill="none" stroke="currentColor" stroke-width="1.5"/></svg>