<svg xmlns="http://www.w3.org/2000/svg" viewBox="0 0 511.13 507.7" width="24" height="24"><path d="M54.89,507.7 L0,54.89 L456.24,0 L511.13,452.81 Z" fill="none" stroke="currentColor" stroke-width="1.5"/><path d="M254.73,194.61 C281.51,194.61 297.23,170.36 297.23,153.7 C297.23,119.67 270.2,108.33 254.57,108.33 C229.97,108.33 211.27,129.78 211.27,150.67 C211.27,179.08 235.02,194.61 254.73,194.61 Z M250.42,259.32 C201.09,259.32 145.92,216.9 145.92,147.47 C145.92,96.74 191.8,43.62 254.57,43.62 C311.05,43.62 362.43,89.94 362.43,151 C362.43,201.02 325.26,259.32 250.42,259.32 Z M193.38,443.38 C184,452.31 162.05,452.82 150.56,438.59 C139.66,424.6 140.94,406.66 149.44,398.01 L211.27,338.41 C188.61,333.55 162.76,325.93 144.17,310.13 C137.55,304.89 130.18,292.67 138.09,272.26 C145.79,256.85 164.42,252.41 174.2,258.04 C201.67,272.91 228.01,278.23 253.77,278.65 C296.29,276.59 315.2,266.94 334.46,257.4 C348.12,252.01 362.48,260.45 369.77,274.34 C376.66,288.46 369.71,304.11 364.5,309.17 C355.1,318.31 326.64,332.38 295.43,338.22 L356.99,397.69 C368.23,410.02 365.55,430.02 355.07,440.51 C342.56,452.7 323.71,452.18 312.57,442.74 L253.61,388.74 Z" fill="none" stroke="currentColor" stroke-width="1.5"/><path d="M0,54.89 L456.24,0 L511.13,188.67 Z" fill="none" stroke="currentColor" stroke-width="1.5"/></svg>