<svg xmlns="http://www.w3.org/2000/svg" viewBox="0 0 511.13 507.7" width="24" height="24"><path d="M54.89,507.7 L0,54.89 L456.24,0 L511.13,452.81 Z" fill="none" stroke="currentColor" stroke-width="1.5"/><path d="M405.23,325.12 C414.39,345.19 410.13,358.81 387.82,366.74 L231.87,403.33 C197.25,411.31 185.34,397.07 180.1,378.09 L114.12,163.03 C108.03,143.99 119.38,136.08 134.41,133.63 L304.65,113.27 Z M225.22,442.18 C192.98,451.84 169.59,440.22 162.58,414.86 L96.71,189.7 C91.98,173.14 102.41,149.22 113.26,138.75 C109.44,146.17 106.59,153.34 109.92,165.4 L175.79,381.12 C185.89,414.11 213.1,413.3 231.79,408.77 L385.74,373.06 C396.62,370.98 410.43,361.9 413.71,351.23 C412.39,361.96 412.05,367.9 406.83,379.85 C402.21,388.87 395.97,393.61 387.81,396.12 Z" fill="none" stroke="currentColor" stroke-width="1.5"/><path d="M129.27,150.55 L292.01,129.88 L339.42,233.38 L166.6,265.78 Z" fill="none" stroke="currentColor" stroke-width="1.5"/><path d="M332.53,339.5 L384.3,327.6 L391.41,341.26 L339.56,354.04 Z M321.98,314.96 L373.33,304.02 L380.29,318.23 L328.67,329.77 Z M311.11,289.47 L362.36,279.84 L369.42,294.17 L317.58,304.77 Z M300.59,263.68 L351.57,255.33 L358.3,270 L306.71,278.94 Z M266.7,356.12 L319.11,342.78 L325.74,357.32 L273.57,371.38 Z M256.08,329.6 L308.17,317.77 L314.72,332.87 L262.79,345.65 Z M270.54,312.74 C256.37,312.74 242.18,301.28 242.18,287.65 C242.18,278.33 250.58,265.76 268.46,265.76 C283.82,265.76 296.82,277.98 296.82,290.61 C296.82,301.78 287.08,312.74 270.54,312.74 Z M201.03,373.54 L252.96,359.47 L259.67,375.13 L207.27,390.47 Z M190.65,345.97 L242.5,333.27 L248.97,349.01 L196.64,362.83 Z M180.18,317.61 L232.11,305.87 L238.66,322.25 L186.41,334.63 Z M170.15,288.79 L221.84,278.3 L228.14,295.03 L176.6,306.16 Z" fill="none" stroke="currentColor" stroke-width="1.5"/><path d="M252.24,170.48 L258.29,132.17 L196.41,94.08 L265.17,96.68 L278.22,57.74 L310.02,100.86 L375.66,107.92 L334.61,135.07 L354.83,179.91 L298.07,152.59 Z" fill="none" stroke="currentColor" stroke-width="1.5"/><path d="M267.88,151.35 L272.31,126.31 L241.3,107.58 L274.15,108.98 L282.16,84.16 L302.77,112.02 L340.43,116.87 L320.21,129.91 L332.01,155.63 L298.67,139.28 Z" fill="none" stroke="currentColor" stroke-width="1.5"/><path d="M0,54.89 L456.24,0 L511.13,188.67 Z" fill="none" stroke="currentColor" stroke-width="1.5"/></svg>