<svg xmlns="http://www.w3.org/2000/svg" viewBox="0 0 511.13 507.7" width="24" height="24"><path d="M54.89,507.7 L0,54.89 L456.24,0 L511.13,452.81 Z" fill="none" stroke="currentColor" stroke-width="1.5"/><path d="M178.37,423.57 C128.48,400.76 62.67,348.24 62.67,248.94 C62.67,164.68 134.47,66.76 256.77,66.76 C357.85,66.76 446.89,145.42 446.89,256.09 C446.89,323.5 392.34,438.8 249.62,438.27 C235.17,438.27 215.93,436.8 200.36,430.33 C206.67,421.66 212.77,411.17 218.37,396.17 L233.73,339.5 C253.85,369.59 294.23,365.52 319.26,354.86 C348.99,341.59 374.12,309.93 380.96,265.1 C386.2,234.62 389.51,188.95 332.5,148.06 C299.19,131.42 237.05,114.35 172.56,157.06 C145.88,179.2 123.72,208.88 125.69,256.09 C129.68,287.66 145.6,307.04 164.31,316.23 C167.93,317.56 171.78,317.08 173.35,312.45 L177.78,296.78 C178.8,293.38 178.46,290.74 174.79,286.63 C158.49,268.22 159.87,242.41 168.06,217.43 C187.57,172.06 227.14,160.09 263.25,161.03 C311.69,162.33 341.45,195.81 337.26,239.28 C334.63,279.5 324.06,312.17 295.82,326.79 C282.96,334.18 267.85,335.95 252.66,322.16 C245.18,314.05 242.77,307.4 245.64,293.3 L261.53,239.81 C264.59,221.4 260.26,207.39 242.33,202.34 C230.21,200 214.08,205.38 205.13,224.32 C198.22,242.51 198.95,264.55 206.85,279.66 L182.36,376.84 C179.36,390.32 178.21,400.96 178.37,423.57 Z" fill="none" stroke="currentColor" stroke-width="1.5"/><path d="M0,54.89 L456.24,0 L511.13,188.67 Z" fill="none" stroke="currentColor" stroke-width="1.5"/></svg>