<svg xmlns="http://www.w3.org/2000/svg" viewBox="0 0 511.13 507.7" width="24" height="24"><path d="M54.89,507.7 L0,54.89 L456.24,0 L511.13,452.81 Z" fill="none" stroke="currentColor" stroke-width="1.5"/><path d="M359.99,240.25 C364.15,275.11 347.97,300.36 322.96,314.6 C358.67,271.98 335.22,224.07 303.46,207.07 C322.27,225.91 321.17,243.75 318.8,256.6 C316.47,237.29 302.25,222.8 279.02,221.29 C263.35,221.29 240.67,236.54 240.67,258.84 C240.67,283.21 256.78,294.69 273.75,299.58 C247.95,303.89 214.26,285.89 211.59,247.33 C210.9,220.5 232.89,194.46 250.74,185.34 C269,175.23 290.05,171.98 315.13,181.99 C296.99,171.71 256.58,160.8 217.5,186.46 C190.25,206.43 182.61,227.01 178.36,247.97 C173.23,280.62 183.83,298.81 196.57,319.87 C180.86,303.57 162.1,272.01 171.01,225.13 C180.6,182.91 207.26,163.24 227.73,151.79 C197.1,158.77 145.53,183.44 137.45,252.77 C131.08,321.6 188.59,374.68 247.06,374.68 C294.13,374.68 332.14,348.45 353.75,307.3 C365.6,282.1 363.44,256.42 359.99,240.25 Z M402.85,109.61 L402.53,266.99 C402.53,336.33 342.16,416.91 247.48,416.91 C160.65,416.91 93.14,345.07 93.14,263.3 C93.14,175.38 162.88,109.58 249.55,109.58 Z" fill="none" stroke="currentColor" stroke-width="1.5"/><path d="M0,54.89 L456.24,0 L511.13,188.67 Z" fill="none" stroke="currentColor" stroke-width="1.5"/></svg>