<svg xmlns="http://www.w3.org/2000/svg" viewBox="0 0 511.13 507.7" width="24" height="24"><path d="M54.89,507.7 L0,54.89 L456.24,0 L511.13,452.81 Z" fill="none" stroke="currentColor" stroke-width="1.5"/><path d="M232.23,253.25 L232.23,225.87 C232.23,208.79 247.9,196.31 265.32,196.31 C281.96,196.31 298.22,208.04 298.22,224.92 C298.22,239.3 285.96,253.25 265.25,253.25 Z M232.23,311.17 L273.11,311.17 C309.11,311.17 365.78,280.74 365.78,225.13 C365.78,178.43 321.48,138.37 265.44,138.37 C207.94,138.37 165.22,179.06 165.22,222.01 L165.22,341.76 C165.22,354.58 178.58,369.16 198.69,369.16 C221.16,369.16 232.23,351.75 232.23,343.15 Z M283.42,365.46 C277.94,386.89 249.86,424.37 196.41,424.37 C149.28,423.21 109.76,386.79 109.76,340.17 L109.76,222.42 C109.76,151.74 174.47,83.48 264.72,83.48 C352.78,83.48 420.86,147.16 420.86,224.13 C420.86,297.9 361.35,358 283.42,365.46 Z" fill="none" stroke="currentColor" stroke-width="1.5"/><path d="M0,54.89 L456.24,0 L511.13,188.67 Z" fill="none" stroke="currentColor" stroke-width="1.5"/></svg>