<svg xmlns="http://www.w3.org/2000/svg" viewBox="0 0 511.13 507.7" width="24" height="24"><path d="M54.89,507.7 L0,54.89 L456.24,0 L511.13,452.81 Z" fill="none" stroke="currentColor" stroke-width="1.5"/><path d="M218.78,250.05 C208.83,250.05 199.13,241.77 199.13,230.16 C199.13,218.43 208.28,210.11 219.1,210.11 C227.9,210.11 238.67,216.83 238.67,230.32 C238.67,238.91 231.74,250.05 218.78,250.05 Z M195.59,273.04 C190.62,273.04 183.59,268.52 183.59,260.65 C183.59,254.9 188.01,248.6 195.59,248.6 C203.85,248.6 207.57,254.65 207.57,260.65 C207.57,267.91 201.78,273.04 195.59,273.04 Z M260.1,365.11 C289.83,341.24 321.56,325.16 360.93,313.19 C369.58,283.51 366.15,256.05 351.9,230.59 C333.82,198.51 296.08,179.31 264.89,177.96 C227.31,178.43 197.01,193.88 175.17,220.78 C153.28,254.04 151.24,284.18 160.02,312.63 C194.11,322.34 229.24,339.68 260.1,365.11 Z M135.89,306.69 L147.26,309.32 C135.26,278.24 131.22,232.63 162.73,189.05 C190.27,150.8 234.78,133.7 281.98,141.16 C318.24,146.84 366.01,176.17 379.53,237.25 C385.82,272.48 379.58,293.1 372.47,309.89 C376.84,308.56 380.76,307.5 383.63,307.07 C386.02,300.61 387.09,295.73 387.99,291.05 C398.88,290.94 404.83,283.54 408.9,270.07 C411.45,260.1 412.37,250.13 409.95,236.46 C407.21,225.81 403.01,217.77 390.35,214.47 L390.35,143.53 C402.78,140.73 407.92,138.33 408.49,124.09 C408.31,111.89 402.6,103.9 389.46,102.81 C380.58,102.52 369.36,111.14 368.1,123.64 C367.8,131.62 371.03,140.69 379.7,143.34 L379.7,216.01 C368.32,186.41 346.75,156.22 309.57,139.44 C277.12,125.52 234.18,125.58 196.09,145.72 C160.93,166.92 144.97,192.23 136.11,214.69 C118.99,206.57 106.84,229.85 105.71,249.51 C105.47,259.21 107.46,268.24 109.96,273.85 C114.91,284.04 120.7,291.21 131.39,291.1 Z M95.64,359.28 C126.07,360.22 162.4,370.14 191.64,386.5 C218.63,401.51 238.79,416.32 257.92,434.28 C280.25,411.71 307.07,393.46 337.84,379.02 C370.89,363.95 395.16,360.18 417.47,358.83 L417.47,316.32 C373.3,319.5 307.26,335.88 259.08,379.96 C228.68,356.05 170.06,316.04 95.64,316.5 Z M74.36,370.3 L74.36,299.05 C88.61,298.91 102.01,300.07 115.06,301.72 L117.84,300 C101.23,292.36 87.98,269.54 90.89,241.72 C94.89,213.06 112.02,196.88 128.89,196.72 C152.41,149.56 194.41,121.49 239.65,114.84 C301.58,106.48 347.37,135.92 371.23,162.89 L371.53,152.59 C363.8,154.01 357.52,140.56 356.34,124.06 C356.24,106.34 370.1,88.73 390.58,88.83 C407.98,88.91 423.64,100.45 424.88,122.85 C424.7,136.72 419.41,144.06 407.68,152.1 L407.68,204.96 C421.32,218.11 430.42,234.6 426.98,260.34 C424.84,277.8 417.76,293.19 403.11,299.02 L402.69,301.5 L434.8,298.87 L434.8,370.6 C404.6,369.7 369.93,375.45 332.85,395.71 C299.17,414.29 275.89,431.61 257.5,449.25 C240.52,433.68 211.14,412.63 180.36,395.9 C148.85,379.8 115.98,369.14 74.36,370.3 Z" fill="none" stroke="currentColor" stroke-width="1.5"/><path d="M0,54.89 L456.24,0 L511.13,188.67 Z" fill="none" stroke="currentColor" stroke-width="1.5"/></svg>