<svg xmlns="http://www.w3.org/2000/svg" viewBox="0 0 511.13 507.7" width="24" height="24"><path d="M54.89,507.7 L0,54.89 L456.24,0 L511.13,452.81 Z" fill="none" stroke="currentColor" stroke-width="1.5"/><path d="M377.35,457.31 C377.57,381.61 350.05,293.73 278.29,223.14 C210.77,159.37 132.63,132.54 51.83,131.86 L51.83,50.18 C172.16,49.61 273.94,103.23 339.94,169.52 C423.1,250.08 459.89,361.64 459.24,457.31 Z M255.32,457.31 C254.71,401.22 234.93,353.5 195.91,313.98 C161.9,280.08 115.94,255.12 51.83,253.89 L51.83,172.61 C117.69,171.54 190.96,195.19 252.13,254.29 C317.45,317.02 337.02,398.51 337.01,457.31 Z M102.72,457.49 C78.52,457.49 51.69,437.38 51.69,407.73 C51.69,377.23 75.61,355.75 101.4,355.75 C136.09,355.75 154.18,382.56 154.18,406.55 C154.18,435.35 129.96,457.49 102.72,457.49 Z" fill="none" stroke="currentColor" stroke-width="1.5"/><path d="M0,54.89 L456.24,0 L511.13,188.67 Z" fill="none" stroke="currentColor" stroke-width="1.5"/></svg>