<svg xmlns="http://www.w3.org/2000/svg" viewBox="0 0 511.15 507.71" width="24" height="24"><path d="M54.9,507.71 C24.59,507.71 0,483.12 0,452.81 L0,54.88 C0,24.57 24.59,0 54.9,0 L456.26,0 C486.57,0 511.15,24.57 511.15,54.88 L511.15,452.81 C511.15,483.12 486.57,507.71 456.26,507.71 Z" fill="none" stroke="currentColor" stroke-width="1.5"/><path d="M280.55,507.71 C294.01,497.62 303.39,478.04 305.05,459.85 C308.62,431.56 294.13,402.12 249.66,379.58 C212.73,360.38 165.41,347.51 111.88,324.44 C72.68,307.84 27.58,282.43 0,252.28 L0,55.91 C0,23.06 26.38,0 54.22,0 L419.7,0 C435.93,21.77 444.97,47.25 444.97,73.66 C444.97,108.22 430.51,152.32 381.12,163.56 C353.93,169.63 313,165.2 288.12,131.4 C274.41,112.69 266.29,85.82 275.31,54.08 C247.25,40.77 196.78,35.04 160.13,44.59 C136.35,51.45 107.03,66.92 102.51,105.6 C99.23,143.87 124.04,166.73 159.56,184.46 C212.74,210.21 272.47,224.01 333.26,256.5 C397.44,290.31 431.71,332.04 444.27,382.85 C455.89,429.71 451.72,474.13 442.12,507.71 Z M0,392.14 C42.63,386.24 74.7,404.79 92.06,431.7 C108.6,458.49 106.37,486.14 99.3,507.71 L54.12,507.71 C26.88,507.71 0,484.93 0,452.68 Z" fill="none" stroke="currentColor" stroke-width="1.5"/><path d="M0,54.88 C0,24.57 24.59,0 54.9,0 L456.26,0 C486.57,0 511.15,24.57 511.15,54.88 L511.15,188.67 C349.84,267.31 161.3,267.31 0,188.67 Z" fill="none" stroke="currentColor" stroke-width="1.5"/></svg>