<svg xmlns="http://www.w3.org/2000/svg" viewBox="0 0 511.13 507.7" width="24" height="24"><path d="M54.89,507.7 L0,54.89 L456.24,0 L511.13,452.81 Z" fill="none" stroke="currentColor" stroke-width="1.5"/><path d="M287.41,424.13 C231.57,434.74 173.36,419.15 123.24,365.81 C98.75,336.55 76.24,292.48 84.49,222.01 C67.57,186.95 62.88,138.2 106.46,97.38 C152.38,59.69 197.87,67.93 224.3,83.8 C269.95,71.67 329.41,84.3 374.09,125.14 C420.1,169.04 439.24,227.96 427.78,284.74 C446.41,321.97 450.61,361.77 411.24,408.15 C387.82,435.2 331.59,453.07 287.41,424.13 Z" fill="none" stroke="currentColor" stroke-width="1.5"/><path d="M169.77,317.07 C166.94,311.01 166.94,297.81 175.77,291.11 C186.59,283.22 200.52,288.24 204.73,295.5 C215.33,310.62 225.85,325.07 255.45,325.46 C277.11,324.9 286.06,318.99 291.01,312.88 C297.07,305.62 298.59,298.77 296.8,292.91 C293.93,283.88 291.34,280.56 279.02,275.73 C260.03,269.14 236.81,265.94 214.91,259.55 C204.71,256.97 184.01,248.41 174.37,230.19 C166.33,213.54 165.97,188 181.76,167.68 C200.95,143.55 236.45,139.19 264.64,140.52 C278.22,141.05 315.81,150.21 331.55,173.87 C340.36,190.78 335.11,197.91 328.75,203.43 C321.24,209.22 306.97,210.22 298.4,199.64 C290.56,188.5 279.3,178.25 256.45,176.67 C242.41,175.46 227.43,176.36 217.91,189.05 C209.41,205.42 219.17,215.83 230.09,219.61 C254.81,227.99 285.62,231.82 303.19,237.78 C323.42,243.25 338.46,259.9 342.33,275.73 C350.54,316.91 333.57,334.61 312.18,348.23 C299,355.56 260.52,364.34 226.49,356.02 C201.85,349.47 182.26,341.79 169.77,317.07 Z" fill="none" stroke="currentColor" stroke-width="1.5"/><path d="M0,54.89 L456.24,0 L511.13,188.67 Z" fill="none" stroke="currentColor" stroke-width="1.5"/></svg>