<svg xmlns="http://www.w3.org/2000/svg" viewBox="0 0 511.13 507.7" width="24" height="24"><path d="M54.89,507.7 L0,54.89 L456.24,0 L511.13,452.81 Z" fill="none" stroke="currentColor" stroke-width="1.5"/><path d="M258.25,308.53 L258.41,254.84 L308.14,226.39 L249.98,213.27 L240.59,156.49 L214.99,206.42 L165.81,207.02 L197.62,242.36 L172.54,285.26 L213.89,270.67 Z M254,373.12 C194.36,373.12 131.26,322.92 131.26,248.09 C131.26,175.98 192.77,125.56 255.02,125.56 C308.68,125.56 378.49,167.19 378.49,250.07 C378.49,307.65 333.48,373.12 254,373.12 Z" fill="none" stroke="currentColor" stroke-width="1.5"/><path d="M0,54.89 L456.24,0 L511.13,188.67 Z" fill="none" stroke="currentColor" stroke-width="1.5"/></svg>