<svg xmlns="http://www.w3.org/2000/svg" viewBox="0 0 511.13 507.7" width="24" height="24"><path d="M54.89,507.7 L0,54.89 L456.24,0 L511.13,452.81 Z" fill="none" stroke="currentColor" stroke-width="1.5"/><path d="M274.06,315.84 C271.4,315.84 268.95,313.51 268.95,310.21 L268.95,167.87 C268.95,165.3 269.53,163.74 272.23,162.57 C295.36,153.27 324.15,153.94 349.64,172.48 C372.71,189.86 379.39,211.49 381.36,229.3 C386.99,227.35 393.81,224.57 406.3,226.39 C428.31,230.13 443.92,248.73 443.92,271.42 C443.92,297.65 421.46,315.84 400.25,315.84 Z M266.68,273.3 L264.48,310.85 C264.34,313.45 262.56,315.68 259.57,315.68 C257.45,315.68 254.93,313.87 254.73,310.37 L252.73,273.3 L254.74,172.65 C254.78,169.41 257.13,167.32 259.61,167.32 C261.79,167.32 264.38,168.97 264.53,172 Z M250.78,273.3 L248.84,311.8 C248.67,314.28 245.98,315.88 244.21,315.88 C242.41,315.88 239.93,314.27 239.67,311.92 L237.95,273.3 L239.58,180.29 C239.98,177.48 242.5,175.99 244.25,175.99 C246.95,175.99 248.79,178.27 248.88,180.65 Z M235.23,273.3 L233.01,311.79 C232.78,314.46 230.4,315.86 228.6,315.86 C227.17,315.86 224.69,314.45 224.46,311.71 L222.59,273.3 L224.43,195.35 C224.44,193.48 226.4,191.19 228.97,191.19 C230.59,191.19 232.95,192.69 232.98,195.76 Z M219.79,273.3 L217.33,311.7 C217.14,313.8 215.91,315.72 213.38,315.72 C211.73,315.72 209.75,314.63 209.41,311.69 L207.33,273.3 L209.33,193.15 C209.41,190.07 211.6,188.56 213.45,188.56 C215.41,188.56 217.34,190.23 217.44,192.89 Z M204.49,273.3 L201.77,312.16 C201.62,314.59 199.34,315.83 198.13,315.83 C196.64,315.83 194.58,314.58 194.45,312.04 L192.15,273.3 L194.42,190.25 C194.49,188.2 196.44,186.76 198.21,186.76 C199.58,186.76 201.77,188.13 201.83,190.37 Z M189.18,273.3 L186.43,312.14 C186.25,314.82 184.21,315.7 182.95,315.7 C181.81,315.7 179.66,314.82 179.58,311.88 L177.12,273.3 L179.68,192.81 C179.76,191.28 181.24,189.81 183.11,189.81 C184.9,189.81 186.29,191.23 186.41,193.61 Z M174.1,273.3 L171.09,312.52 C170.91,314.32 169.63,315.86 167.97,315.86 C166.8,315.86 165.08,314.76 164.92,312.76 L162.24,273.3 L164.95,199.2 C165.07,197.82 166.51,196.28 168.02,196.28 C169.58,196.28 170.89,197.89 171.01,199.08 Z M159.06,273.3 L155.83,313 C155.71,314.43 154.38,315.72 153.09,315.72 C151.76,315.72 150.59,314.67 150.4,313.06 L147.48,273.3 L150.38,213.48 C150.43,211.74 151.49,210.41 153.17,210.41 C154.54,210.41 155.78,211.89 155.83,213.24 Z M144.26,273.3 L140.73,313.2 C140.65,314.08 139.79,315.38 138.31,315.38 C137.05,315.38 136.09,314.34 135.94,313.24 L132.86,273.3 L135.9,236.63 C135.97,235.26 136.89,234.15 138.39,234.15 C139.59,234.15 140.6,235.07 140.75,236.67 Z M129.47,273.3 L125.79,312.64 C125.68,313.74 124.72,314.78 123.65,314.78 C122.87,314.78 121.6,313.93 121.48,312.5 L118.33,273.3 L121.48,234.27 C121.69,232.25 122.48,231.52 123.63,231.52 C124.96,231.52 125.6,232.26 125.79,234.23 Z M111.05,311.17 C110.95,312.26 110.1,313.3 109.11,313.3 C108.21,313.3 107.5,312.52 107.34,311.29 L103.94,273.3 L107.36,234.93 C107.51,233.8 108.09,232.97 109.15,232.97 C110.04,232.97 110.87,233.69 111.03,235.09 L114.85,273.3 Z M96.27,305.87 C96.16,306.69 95.61,307.53 94.69,307.53 C94.15,307.53 93.37,307.05 93.2,305.89 L89.6,273.3 L93.21,240.74 C93.34,239.93 94.08,239.29 94.77,239.29 C95.33,239.29 96.05,239.98 96.18,240.68 L100.37,273.3 Z M82.54,293.74 C82.37,294.8 81.76,295.24 81.05,295.27 C80.44,295.27 79.81,294.7 79.66,293.84 L77.07,273.3 L79.65,253.65 C79.88,252.45 80.57,251.97 81.09,251.97 C81.77,251.97 82.4,252.42 82.61,253.59 L85.8,273.3 Z" fill="none" stroke="currentColor" stroke-width="1.5"/><path d="M0,54.89 L456.24,0 L511.13,188.67 Z" fill="none" stroke="currentColor" stroke-width="1.5"/></svg>