<svg xmlns="http://www.w3.org/2000/svg" viewBox="0 0 511.13 507.7" width="24" height="24"><path d="M54.89,507.7 L0,54.89 L456.24,0 L511.13,452.81 Z" fill="none" stroke="currentColor" stroke-width="1.5"/><path d="M255.23,440.08 C153.63,440.08 70.01,357.67 70.01,253.51 C70.01,147.02 157.59,67.62 257.11,67.62 C347.51,67.62 441.12,138.54 441.12,255.92 C441.12,362.68 351.85,440.08 255.23,440.08 Z" fill="none" stroke="currentColor" stroke-width="1.5"/><path d="M313.35,314.48 C316.95,312.34 319.53,308.33 319.53,301.12 L319.53,243.2 L364.98,243.2 C367.84,243.2 370.89,239.43 370.89,236.58 L370.89,225.55 C370.89,222.37 366.69,220.03 363.55,220.03 L319.53,220.03 L319.53,193.77 L363.33,193.77 C366.71,193.77 370.89,192.16 370.89,187.81 L370.89,176.78 C370.89,174.23 368.02,170.11 363.88,170.11 L319.75,170.11 C309.97,170.11 294.76,181.35 294.76,191.68 L294.76,220.03 L273.96,220.03 C270.39,220.03 268.22,222.24 268.22,225.99 L268.22,238.13 C268.22,241.02 271.37,243.2 274.29,243.2 L294.76,243.2 L294.76,318.67 C294.76,322.34 296.65,323.53 300.11,321.65 Z M215.59,341.23 C233.66,341.23 241.67,328.41 241.67,319.11 L241.67,289.65 C241.67,280.42 233.48,268.56 218.94,268.56 L169.97,268.56 C167.65,268.56 163.49,265.52 163.49,261.63 L163.49,251.2 C163.49,246.24 166.19,243.12 171.46,243.12 L235.51,243.12 C238.46,243.12 241.67,240.02 241.67,236.86 L241.67,225.11 C241.67,222.3 238.9,219.98 235.23,219.98 L160.98,219.98 C149.92,219.98 139.13,230.84 139.13,242.65 L139.13,270.56 C139.13,281.66 150.79,291.53 159.1,291.53 L209.19,291.53 C213.02,291.48 216.92,295.52 216.92,297.93 L216.92,309.73 C216.92,315.07 214.24,317.79 206.88,317.79 L146.75,317.79 C142.67,317.79 139.13,319.96 139.13,323.85 L139.13,333.78 C139.14,339.04 143.4,341.23 147.63,341.23 Z M254.35,404.11 C181.48,404.11 105.44,347.48 105.44,251.12 C105.44,161.94 181.08,102.73 257.25,102.73 C321.91,102.73 406.02,153.17 406.02,256.84 C406.02,317.73 356.54,404.11 254.35,404.11 Z" fill="none" stroke="currentColor" stroke-width="1.5"/><path d="M0,54.89 L456.24,0 L511.13,188.67 Z" fill="none" stroke="currentColor" stroke-width="1.5"/></svg>