<svg xmlns="http://www.w3.org/2000/svg" viewBox="0 0 511.13 507.7" width="24" height="24"><path d="M54.89,507.7 L0,54.89 L456.24,0 L511.13,452.81 Z" fill="none" stroke="currentColor" stroke-width="1.5"/><path d="M408.37,243.3 C408.19,233.28 406.13,223.91 402.38,216.52 C397.66,205.49 388.46,203.15 377.08,202.96 C365.09,202.87 354.78,208.71 348.41,218.19 C343.65,225.86 342.37,234.74 341.77,243.3 Z M341.3,265.28 C343.31,282.85 348.81,292.59 355.5,298.42 C375.86,316.05 401.61,305.06 410.84,286.36 C414.08,279.88 426.09,281.4 430.23,286.52 C434.37,291.53 435.42,298.64 431.84,303.28 C422.56,315.91 408.14,328.87 375.08,329.6 C353.8,329.6 321.64,316.99 312.73,277.85 C306.42,250.37 311.81,211.25 333.82,195.41 C364.2,171.34 394.9,177.39 412.85,190.33 C425.09,198.88 438.82,218.73 439.2,252.47 C439.68,261.38 434.05,265.28 426.77,265.28 Z M169.04,225.14 C163.4,215.19 155.86,203.73 140.92,203.23 C129.82,202.85 115.71,209.79 107.37,238.25 C102.13,254.43 100.7,280.02 101.76,298.42 C102.11,299.5 103.16,299.24 103.57,298.28 C104.89,282.38 108.06,265.71 112.77,256.44 C114.47,252.96 118.67,254.26 119.32,258.04 C122.72,278.81 123.27,291.81 120.04,305.17 C116.26,321.89 110.5,328.46 97.03,328.74 C85.04,328.72 75.87,315.77 75.06,297.35 C73.23,254.57 79.97,226.18 97.35,202.44 C106.82,190.01 121.93,178.5 141.77,179.75 C162.48,181.79 173.76,190.11 182.99,202.28 C191.18,192.7 200.41,180.39 226.26,179.18 C247.75,178.86 267.99,196.24 277.45,216.44 C280.19,221.32 281.44,225.88 278.07,234.24 C273.17,248.83 270.1,279.73 271.19,297.82 C271.82,299.12 272.84,299.56 273.12,296.92 C275.12,278.27 277.08,267.26 282.77,256.28 C284.54,253.28 286.94,253.53 287.81,256.76 C294.51,281.46 291.42,302.14 288.76,309.17 C283.91,323.02 278.57,328.66 266.24,328.66 C258.3,328.66 246.77,320.98 245.07,300.3 C242.82,277.54 245.64,246.17 254.41,225.6 C248.61,216.24 240.82,202.84 224.67,203.32 C209.26,203.32 197.13,218.58 191.24,241.12 C187.07,256.62 185.44,285.95 186.79,300.9 C187.19,301.82 188.01,301.7 188.19,300.4 C189.7,281.87 192.61,266.04 198.33,255.62 C199.26,253.9 202.51,253.48 203.44,256.44 C207.93,270.3 208.41,293.43 205.04,305.33 C202.03,318.25 194.75,329.03 182.97,328.74 C175.2,328.48 161.64,321.97 159.4,296.71 C156.93,267.57 162.92,241.52 169.04,225.14 Z" fill="none" stroke="currentColor" stroke-width="1.5"/><path d="M0,54.89 L456.24,0 L511.13,188.67 Z" fill="none" stroke="currentColor" stroke-width="1.5"/></svg>