<svg xmlns="http://www.w3.org/2000/svg" viewBox="0 0 511.13 507.7" width="24" height="24"><path d="M54.89,507.7 L0,54.89 L456.24,0 L511.13,452.81 Z" fill="none" stroke="currentColor" stroke-width="1.5"/><path d="M103.06,410.11 L103.06,296.94 L130.76,296.94 L130.76,382.4 L333.75,382.4 L333.75,296.94 L361.44,296.94 L361.44,410.11 Z" fill="none" stroke="currentColor" stroke-width="1.5"/><path d="M266.59,106.28 L289.46,89.62 L374.74,204.14 L352.53,220.78 Z M218.45,157.08 L236.6,135.32 L346.2,226.48 L329.07,248.44 Z M182.16,220.48 L194.43,194.69 L324.05,255.69 L312.1,280.79 Z M163.19,287.13 L169.53,259.92 L309.31,289.52 L303.97,316.85 Z M160.04,353.1 L160.04,325.5 L304.49,325.5 L304.49,353.1 Z" fill="none" stroke="currentColor" stroke-width="1.5"/><path d="M0,54.89 L456.24,0 L511.13,188.67 Z" fill="none" stroke="currentColor" stroke-width="1.5"/></svg>