<svg xmlns="http://www.w3.org/2000/svg" viewBox="0 0 511.13 507.7" width="24" height="24"><path d="M54.89,507.7 L0,54.89 L456.24,0 L511.13,452.81 Z" fill="none" stroke="currentColor" stroke-width="1.5"/><path d="M275.85,435.56 C294.18,436.2 316.13,437.97 326.03,440.23 C335.83,442.47 341.93,444.14 341.9,447.63 C341.88,450.73 332.39,453.08 326.76,454.17 C310.49,457.36 286.91,458.62 260.78,459.02 C237.4,458.92 204.29,457.27 188.04,451.96 C183.69,450.4 181.62,449.28 181.51,447.25 C181.51,444.8 190.1,441.94 195.04,441.08 C183.88,426.2 183.26,410.76 177.24,382.99 C173.73,364.59 168.11,360.42 156.07,361.5 C144.72,362.84 112.7,358.92 90.73,351.95 C69.13,344.6 49.48,326.77 60.92,297.03 C67.86,277.52 88.86,263.64 105.06,247.59 C110.55,242.39 121.53,228.6 104.08,205.22 C93.34,190.65 76.79,170.41 80.58,144.96 C87.42,117.71 110.97,107.46 133.67,105.93 C159.63,104.68 186.29,106.13 201.56,108.86 C212.77,92.4 227.23,75.25 249.46,58.45 C268.72,44.42 291.11,37.97 311.08,42.28 C332.78,47.72 340.31,66.51 341.49,85.48 L343.75,116.08 C345.23,131.48 350.2,142.32 371.42,142.92 C392.41,143.42 406.06,141.8 420.71,144.02 C438.78,147.67 451.53,158.29 454.39,176.27 C459.49,199.67 448.87,218.07 432.25,233.41 L409.28,254.58 C401.77,263.12 401.05,270.52 407.13,277.14 C417.5,288.66 428.96,295.12 437.36,305.33 C451.26,320.73 453.82,338.62 448.04,355.83 C441.25,375.45 427.57,389.13 393,387.74 C375.66,387.18 367.59,384.65 345.4,383.79 C327.47,383.22 320.53,386.91 314.46,393.53 C301.91,407.05 289.24,425.04 275.85,435.56 Z" fill="none" stroke="currentColor" stroke-width="1.5"/><path d="M267.99,426.24 C249.96,441.04 238.61,443.9 213.59,441.02 C200.33,439.05 188.35,426.3 184.27,400.56 C182.54,388.4 182.03,378.8 179.16,367.44 C177.4,359.81 173.36,354.47 163.56,355.22 C155.55,355.82 128.11,351.61 109.42,344.02 C89.68,336.52 64.43,322.32 73.7,296.39 C79.85,280.72 90.6,269.57 103.1,258.53 C134.31,231.71 131,212.34 113.74,193.26 C110.13,189.26 86.85,157.06 102.99,132.7 C116.03,115.3 135.95,113.27 157.13,112.78 C185.66,113.29 198.22,114.03 213.86,116.99 C227.37,94.68 245.37,76.19 266.94,65.63 C284.45,58.51 300.67,54.9 319.12,63.75 C335.85,73.22 336.59,95.13 337.66,113.6 C338.97,153.86 348.72,153.52 369.8,153.71 C387.43,153.47 397.33,153.07 415.83,156.87 C428.53,160.72 437.61,171.22 440.07,181.84 C445.41,203.54 438.23,219.84 425.85,232.47 C414.52,244.75 408.09,248.48 400.29,256.76 C393.45,263.5 389.35,270.59 395.18,278.49 C403.58,290.94 415.99,302.81 423.9,313.83 C433.24,328.79 438.07,341.37 430.67,359.15 C424.37,373.8 409.69,381.85 386.87,382.03 C363.55,382.39 346.9,378.04 327.43,378.23 C312.69,378.34 305.34,381.59 298.53,389.62 C284.17,406.17 279.19,416.33 267.99,426.24 Z" fill="none" stroke="currentColor" stroke-width="1.5"/><path d="M103.96,307.74 C94.8,308.61 90.87,307.17 87.05,300.93 C84.4,296.6 84.18,289.02 88.22,283.83 C92.32,279.35 96.24,274.62 101.79,272.17 C112.13,268.31 116.35,273.12 119.72,276.91 C123.75,282.45 123.16,286.55 122.28,289.36 C120.01,295.82 109.68,307.1 103.96,307.74 Z" fill="none" stroke="currentColor" stroke-width="1.5"/><path d="M150.77,279.21 C147.53,267.64 155.17,250.48 164.95,239.65 L175.93,245.56 C171.01,250.3 167.24,255.21 166.53,260.56 C190.92,268.37 215.44,271.11 242.43,267.63 C287.86,259.67 330.98,233.46 353.75,211.19 C350.03,207.27 346.16,203.37 338.9,200.03 L347.36,190.74 C364.61,197.77 371.91,215.67 371.53,227.59 L367.13,233.83 C365.2,228.6 363.67,224.59 360.1,219.05 C337.62,243.93 306.09,265.28 271,274.73 C237.59,283.01 193.96,282.5 163.63,270.63 C162.46,275.26 161.8,281.33 161.3,287.36 Z" fill="none" stroke="currentColor" stroke-width="1.5"/><path d="M127.31,164.92 C120.8,163.8 115.06,158.71 114.5,149.77 C113.81,140.3 122.49,133.48 135.06,129.58 C170.93,120.87 193.39,125.04 215.92,127.1 C236.58,103.31 267.95,73.26 287.81,72.06 C300,71.05 307.32,74.52 308.07,84.05 C308.16,93.64 306.59,96.92 300.36,99.47 C284.37,104.01 271.6,108.38 266.72,112.32 L233.9,157.47 C177.79,156.06 138.4,166.94 127.31,164.92 Z" fill="none" stroke="currentColor" stroke-width="1.5"/><path d="M163.4,205.67 C154.55,205.88 140.25,200.58 134.42,189.65 C128.6,178.16 130.83,166.44 137.35,154.81 C145.01,142.09 165.19,133.05 178.74,140.75 C189.24,146.59 199.24,162.02 198.4,177.44 C197.76,189.94 188.89,204.6 163.4,205.67 Z" fill="none" stroke="currentColor" stroke-width="1.5"/><path d="M163.24,200.73 C153.83,200.16 143.13,195.28 139.02,185.37 C135.82,176.96 135.37,168.7 142.07,158.31 C149.32,150.25 155.86,141.42 173.33,144.45 C183.1,147.23 193.54,161.19 193.35,176.53 C192.91,188.22 184.76,200.98 163.24,200.73 Z" fill="none" stroke="currentColor" stroke-width="1.5"/><path d="M142.07,158.31 C151.76,145.85 160.62,142.14 173.33,144.45 C179.51,146.45 184.43,151.36 188.5,158.17 C173.71,156.97 158.65,156.24 142.07,158.31 Z" fill="none" stroke="currentColor" stroke-width="1.5"/><path d="M161,173.45 C157.54,163.95 161.28,158.94 167.65,157.7 C174.24,156.19 179.14,160.52 181.32,166.4 C184.13,175.36 181.64,179.77 177.11,183.22 C173.99,185.42 164.39,183.2 161,173.45 Z" fill="none" stroke="currentColor" stroke-width="1.5"/><path d="M174.59,176.67 C171.85,170.1 167.63,163.93 160.75,155.67 L174.94,155.54 C176.62,162.74 176.22,169.76 174.59,176.67 Z" fill="none" stroke="currentColor" stroke-width="1.5"/><path d="M222.13,166.12 C216.88,148.31 225.71,131.13 236.79,119.27 C253.48,102.52 276.61,99.85 286.53,102.87 C304.57,109.47 314.13,125.69 315.76,149.39 C317.2,168.39 303.05,187.43 269.86,194.09 C253.21,197.62 230.24,191.55 222.13,166.12 Z" fill="none" stroke="currentColor" stroke-width="1.5"/><path d="M228.18,163.96 C222.3,143.59 237.31,126.56 242.99,122.42 C254.89,113 271.36,106.33 285.73,112.32 C294.78,117.04 305.28,124.81 307.32,151.83 C308.57,170.83 288.42,185.86 266.11,188.15 C250.85,189.62 235.05,185.51 228.18,163.96 Z" fill="none" stroke="currentColor" stroke-width="1.5"/><path d="M228.82,142.89 C232.76,132.74 236.52,128.13 242.99,122.42 C254.72,113.09 271.29,106.37 285.73,112.32 C295.06,117.49 298.67,122.21 301.79,129.12 C276.25,129.16 251.94,133.8 228.82,142.89 Z" fill="none" stroke="currentColor" stroke-width="1.5"/><path d="M254.82,148.4 C254.75,142.93 258.33,133.71 263.46,128.84 C270.77,122.09 279.05,121.96 284.29,127.25 C290.68,135.11 288.96,143.69 285.55,150.76 C280.7,158.96 275.94,164.57 264.72,163.96 C261.98,163.54 254.69,157.88 254.82,148.4 Z" fill="none" stroke="currentColor" stroke-width="1.5"/><path d="M273.82,149.53 C272.28,139.92 269.11,130.89 262.47,123.09 L280.04,118.24 C281.6,131.57 280.13,140.07 273.82,149.53 Z" fill="none" stroke="currentColor" stroke-width="1.5"/><path d="M0,54.89 L456.24,0 L511.13,188.67 Z" fill="none" stroke="currentColor" stroke-width="1.5"/></svg>