<svg xmlns="http://www.w3.org/2000/svg" viewBox="0 0 511.13 507.7" width="24" height="24"><path d="M54.89,507.7 L0,54.89 L456.24,0 L511.13,452.81 Z" fill="none" stroke="currentColor" stroke-width="1.5"/><path d="M93.44,257.67 L73.29,249.28 C64.66,245.8 59.9,233 63.22,220.86 C66.26,212.18 77.88,202.99 91.65,206.99 L111.38,215.33 C107.03,208.96 99.62,200.84 84.79,199.77 C64.66,200.17 55.31,219.63 55.39,228.79 C57.09,249.7 73.96,262.29 93.44,257.67 Z M291.64,338.89 C296.08,347.64 306.87,355.1 320.56,354.39 C338.02,352.93 346.81,337.33 347.08,325.31 C346.67,305.91 330.64,291.63 308.42,296.23 L328.55,304.69 C340.74,310.74 345,326.72 335.74,339.05 C328.98,346.85 319.2,350.07 310.33,346.56 Z M408.44,259.16 C391.95,259.16 378.4,245.69 378.4,228.96 C378.4,212.47 392.91,199.08 408.44,199.08 C423.17,199.08 438.64,211.66 438.64,229.28 C438.64,242.23 428.81,259.16 408.44,259.16 Z M408.92,266.83 C426.6,266.83 445.99,251.63 445.99,229.6 C445.99,205.15 424.93,191.73 408.44,191.73 C393.36,191.73 371.37,204.74 371.37,229.76 C371.37,251.77 391.91,266.83 408.92,266.83 Z M360.82,320.35 C362.97,351.96 339.78,368.93 317.52,368.93 C297.51,368.93 277.93,354.67 274.54,332.02 L111.25,264.59 C105.32,269.37 95.23,273.38 84.89,273.38 C61.22,273.38 40.95,253.86 40.95,228.8 C40.95,203.56 62.65,185.02 84.41,185.02 C110.24,185.02 126.17,205.43 128.51,222.25 L291.8,289.84 C297.45,283.91 306.93,281.67 314.49,281.53 L349.96,232.63 C348.05,199.99 372.62,170.8 409.56,170.8 C443.52,170.8 467.4,198.87 467.4,229.28 C467.4,257.01 445.1,290.6 403.65,287.76 Z" fill="none" stroke="currentColor" stroke-width="1.5"/><path d="M0,54.89 L456.24,0 L511.13,188.67 Z" fill="none" stroke="currentColor" stroke-width="1.5"/></svg>