<svg xmlns="http://www.w3.org/2000/svg" viewBox="0 0 511.13 507.7" width="24" height="24"><path d="M54.89,507.7 L0,54.89 L456.24,0 L511.13,452.81 Z" fill="none" stroke="currentColor" stroke-width="1.5"/><path d="M223.69,422.5 L223.69,411.23 C225.92,397.12 261.79,323.67 276.33,271.26 C280.1,259.42 282.31,254.02 281.79,239.49 C280.76,223.07 277.7,192.87 274.76,166.87 C258,165.88 246.63,165.91 230.37,163.6 C219.4,160.13 222.62,150.25 226.24,146 C231.23,134.57 240.02,127.24 249.48,118.94 C255.39,112.72 258.39,109.7 260.43,104.61 C262.14,101.02 264.99,98.78 270.32,99.35 C274.1,100.76 275.49,102.18 277.23,103.6 C280.29,107.42 280.04,111.69 277.55,113.78 C272.71,118.26 268.35,118.1 264.2,121.94 C258.38,128.29 251.34,134.3 248.12,139.73 C245.12,145.39 247.37,146.63 251.29,146.05 C255.62,145.14 258.08,143.76 260.78,142.44 C265.84,139.58 270.33,139.91 274.33,139.73 C285.39,141.13 290.03,144.03 294.67,140.18 C294.95,134.28 297.47,130.07 296.74,124.55 C293.21,117.93 291.19,110.7 291.9,102.38 C292.63,95.48 298.56,88.77 308.26,88.31 C317.7,88.5 321.98,92.79 324.05,97.7 C327.6,108.47 326.59,117.01 320.85,125.08 C320.99,130.52 320.22,134.62 319.53,138.82 C325.75,142.17 331.74,145.82 336.89,150.57 C341,155.2 342.39,156.2 349.22,156.66 C355.48,157.07 358.99,157.57 363.95,157.09 C367.04,156.63 368.67,155.66 368.79,151.26 C368.97,145.31 370.22,140.86 368.57,134.65 C362.89,132.85 360.34,130.22 361.95,122.66 C363.73,116.81 367.64,114.42 371.95,114.42 C376.89,114.71 380.1,116.56 382.34,121.2 C384.1,125.3 381.48,129.98 381.54,135.34 L382.5,159.95 C382.36,167 380.37,170.15 374.84,172.64 C365.52,176.09 355.46,179.48 336.51,182.1 L335.8,185.82 L343.48,217.46 C345.97,225.48 346.56,232.28 346.19,235.99 C345.51,251.65 347.88,254.41 351.61,261.75 C365.94,285.17 371.77,298.49 376.47,311.46 C382.33,325.81 384.73,341.82 385.53,357.66 C386.79,371.55 390.51,402.3 399.97,407.29 C407.7,411.22 413.15,415.14 417.48,419.07 L417.71,425.85 C398.48,425.93 384.73,425.24 376.86,423.14 C373.36,422.15 371.31,420.83 369.52,414.27 C366.48,399.91 365.56,389.58 361.9,378.26 C360.56,373.07 356.13,362.19 354.51,356.26 C351.39,346.37 349.9,339.87 346.93,328.15 C343.59,317.83 337.61,301.42 327.47,295.14 C321.04,290.96 312.58,286.89 306.84,295.53 C297.48,307.78 290.17,320.65 282.89,333.52 C271.22,354.77 259.29,377.26 246.77,402.74 L246.63,422.79 Z" fill="none" stroke="currentColor" stroke-width="1.5"/><path d="M98.38,363.53 C111.16,371.9 122.74,378.98 146.34,384.78 C173.94,391.16 193.02,384.39 204.53,368.48 C217.06,348.86 223.89,329.03 216.52,312.17 C206.33,290.75 192.22,284.99 171.46,275.6 C155.7,268.66 141,263.84 122.89,252.2 C107.33,242.09 91.29,216.47 94.47,183.11 C96.41,160.99 110.74,128.1 142.82,116.23 C169.89,107.64 214.78,110.39 241.16,127.02 L228.85,158.66 C214.68,151.89 200.3,145.65 184.03,144.33 C168.92,142.79 156.06,143.69 144.98,153.55 C137.3,160.46 130.08,176.72 130.17,189.44 C130.41,208.97 140.95,217.97 160.45,229.66 C185.93,244.71 193.89,243.51 218.72,257.12 C230.33,263.38 249.03,282.31 255.86,302.9 C260.36,316.82 265.53,341.49 252.19,370.66 C239.52,399.37 212.09,417.35 179.72,421.03 C143.56,425.03 113.49,414.56 83.17,397.32 Z" fill="none" stroke="currentColor" stroke-width="1.5"/><path d="M0,54.89 L456.24,0 L511.13,188.67 Z" fill="none" stroke="currentColor" stroke-width="1.5"/></svg>