<svg xmlns="http://www.w3.org/2000/svg" viewBox="0 0 511.13 507.7" width="24" height="24"><path d="M54.89,507.7 L0,54.89 L456.24,0 L511.13,452.81 Z" fill="none" stroke="currentColor" stroke-width="1.5"/><path d="M69.7,399 C112.11,405.04 159.46,391.71 191.29,364.86 C157.36,363.93 125.78,343.05 114.62,307.97 C128.56,310.91 140.65,309.87 151.62,306.43 C121.22,299.71 86.52,273.83 85.54,224.82 C98.1,231.96 111.31,235.34 123.24,235.19 C91.55,214.19 73.65,170.68 97.61,124.87 C139.88,179.6 206.6,208.98 266.84,211.37 C259.63,173.68 274.51,139.71 306.39,121.3 C344.5,99.59 385.05,113.17 407.2,136.41 C424.22,133.3 441.6,126.92 459.47,116.15 C451.43,137.28 440.56,150.97 422.83,162.09 C436.52,160.06 451.12,157.78 470.09,149.01 C459.52,165.09 445.54,179.4 429.16,191.32 C433.49,272.97 390.08,352.98 332.98,392.88 C254.33,447.44 150.54,449.79 69.7,399 Z" fill="none" stroke="currentColor" stroke-width="1.5"/><path d="M0,54.89 L456.24,0 L511.13,188.67 Z" fill="none" stroke="currentColor" stroke-width="1.5"/></svg>