<svg xmlns="http://www.w3.org/2000/svg" viewBox="0 0 511.06 507.78" width="24" height="24"><path d="M54.8,507.78 C24.49,507.78 0,483.21 0,452.9 L0,54.97 C0,24.65 24.49,0 54.8,0 L456.16,0 C486.47,0 511.06,24.65 511.06,54.97 L511.06,452.9 C511.06,483.21 486.47,507.78 456.16,507.78 Z" fill="none" stroke="currentColor" stroke-width="1.5"/><path d="M146.99,314.97 C145.03,313.49 143.19,309.2 150.61,302.26 C176.1,279.49 251.31,240.54 271.65,231.1 C221.98,249.14 149.03,279.3 120.26,281.37 C112.76,282.06 109.01,280.52 106.37,274.69 C96.37,248.98 102.12,230 113.82,211.66 C131.1,184.74 183.58,160.04 235.57,156.24 C287.42,152.19 339.96,162.95 376.97,191.03 C409.72,216.78 419.98,248.97 402.14,280.25 C386.42,311.87 326.27,343.65 268.24,343.65 C228.15,343.65 180,339.37 146.99,314.97 Z" fill="none" stroke="currentColor" stroke-width="1.5"/><path d="M0,54.97 C0,24.65 24.49,0 54.8,0 L456.16,0 C486.47,0 511.06,24.65 511.06,54.97 L511.06,188.75 C349.76,267.4 161.3,267.4 0,188.75 Z" fill="none" stroke="currentColor" stroke-width="1.5"/></svg>