<svg xmlns="http://www.w3.org/2000/svg" viewBox="0 0 511.13 507.7" width="24" height="24"><path d="M54.89,507.7 L0,54.89 L456.24,0 L511.13,452.81 Z" fill="none" stroke="currentColor" stroke-width="1.5"/><path d="M353.74,225.73 C353.74,228.29 356.81,230.28 359.28,230.28 C361.89,230.28 364.87,228.56 364.87,226.33 C367,200.46 360.02,169.61 334.33,141.13 C307.37,114.99 282.05,106.63 250.73,106.29 C247.94,106.85 246.27,109.71 246.27,111.88 C246.27,115.21 247.23,117.19 250.56,117.71 C281.08,121.14 307.4,130.28 326.22,149.66 C347.77,173.81 350.98,199.75 353.74,225.73 Z M324.11,214.45 C324.78,217.11 327,219.26 329.51,219.26 C332.48,219.26 335.16,217.52 335.62,215.79 C336.86,188.74 329.57,172.77 310.95,154.33 C299.23,143.87 282.71,136.97 259.82,134.76 C256.61,135.49 255.29,137.89 254.72,140.45 C254.07,142.53 255.33,145.97 258.22,146.74 C283.72,150.62 295.62,157.17 303.95,163.92 C316.24,173.45 324.11,196.99 324.11,214.45 Z M295.67,202.96 C296.27,208.1 299.63,210.24 302.46,210.15 C304.26,210.13 307.42,207.9 307.85,204.76 C309.83,182.06 287.3,162.48 269.47,164.54 C265.84,164.88 263.59,167.61 263.51,171.59 C263.71,174.68 265.74,175.88 268.63,176.35 C279.61,177.85 293.56,181.84 295.67,202.96 Z M307.99,346.55 C319.07,350.56 325.1,350.51 335.81,345.74 C346,341.22 355.28,333.41 363.21,320.61 C369.96,308.99 368.99,301.48 360.81,292.12 C350.88,283.7 333.76,269.99 320.23,262.28 C305.99,254.58 293.27,259.27 286.08,269.67 C280.09,280.83 271.62,283.74 255.92,276.46 C223.04,259.76 209.39,241.01 199.6,219.14 C193.76,206.5 198.06,194.04 205.99,189.98 C217.11,182.82 223.54,175.47 218.17,162.82 C208.6,144.16 197.46,129.02 181.62,113.69 C173.64,108.05 165.43,109.38 152.86,114.49 C132.75,125.44 130.32,137.78 128.7,148.44 C126.84,167.14 145.34,199.33 165.04,231.59 C186.17,262.6 212.44,288.21 232.29,303.11 C256.55,321.27 279.58,333.7 307.99,346.55 Z M155.03,464.17 L154.75,381.74 C145.06,375.67 128,369.5 118.56,362.94 C92.57,348.5 71.18,314.59 66.5,260.97 C63.88,230.73 61.2,175.56 77.77,126.07 C94.95,80.9 135.82,56.6 194.81,46.98 C249.28,38.08 307.54,43.82 354.58,56.57 C394.78,69.79 427.38,92.98 436.87,146.44 C448.16,196.82 445.33,257.38 436.07,291.44 C421.08,348.84 400.73,363.46 358.98,377.72 C333.54,386.74 277.78,394.5 245.34,391.5 C228.38,388.98 221.08,395.02 213.18,402.69 C177.61,437.3 171.96,454.95 155.03,464.17 Z" fill="none" stroke="currentColor" stroke-width="1.5"/><path d="M0,54.89 L456.24,0 L511.13,188.67 Z" fill="none" stroke="currentColor" stroke-width="1.5"/></svg>