<svg xmlns="http://www.w3.org/2000/svg" viewBox="0 0 511.13 507.7" width="24" height="24"><path d="M54.89,507.7 L0,54.89 L456.24,0 L511.13,452.81 Z" fill="none" stroke="currentColor" stroke-width="1.5"/><path d="M205.6,251.13 C200.34,247.48 193.09,244.74 187.19,244.74 C174.78,244.74 163.78,253.38 163.78,269.82 C163.78,285.7 175.41,294.58 187.75,294.58 C201.41,294.58 210.9,283.08 210.9,266.56 L210.9,201.02 L224.01,201.02 L224.01,267.74 C224.01,287.92 211.94,306.95 187.41,306.95 C163.41,306.95 150.72,287.12 150.72,269.22 C150.72,242.69 172.49,232.32 184.83,232.32 C190.75,232.32 197.82,233.2 205.6,237.43 Z M128.11,305.63 L128.11,233.86 L141.17,233.86 L141.17,305.63 Z M64.16,233.86 L85.21,289.64 L105.98,233.86 L120.25,233.86 L94.44,301.41 C93.01,304.74 90.8,307.04 84.74,307.04 C79.67,307.04 76.74,304.87 75.39,300.93 L49.86,233.86 Z" fill="none" stroke="currentColor" stroke-width="1.5"/><path d="M304.36,201.02 L304.36,266.67 C304.36,293.07 287.9,307.04 267.92,307.04 C244.35,307.04 230.92,288.8 230.92,267.75 C230.92,249.27 245.72,232.23 265.6,232.23 C274.14,232.23 281.44,234.73 285.89,237.51 L285.89,251.25 C282.34,248.69 274.28,244.86 267.99,244.86 C253.05,244.86 244.03,255.21 244.03,269.3 C244.03,285.19 255.2,294.51 267.95,294.51 C284.52,294.51 291.1,279.74 291.1,265.75 L291.1,201.02 Z M424.37,233.86 L437.25,233.86 L437.25,242.46 C443.24,233.07 449.43,232.45 459.73,232.4 L459.73,244.86 C449.39,244.32 437.25,248.44 437.25,271.06 L437.25,305.63 L424.37,305.63 Z M396.38,251.89 C388.24,243.1 375.66,243.46 367.93,247.89 C355.83,255.99 355.24,267 356.11,273.7 Z M417.11,266.71 C419.15,284.86 404.7,306.93 379.6,306.93 C357.93,306.93 342.13,289.29 342.13,269.62 C342.13,250.52 357.51,232.47 379.76,232.47 C395.97,232.47 408.8,242.3 414.43,255.48 L360.82,284.64 C364,289.26 370.21,293.99 379.76,294.55 C392.56,294.55 401.98,283.68 403.21,274.34 Z M317.3,305.63 L317.3,201.02 L330.61,201.02 L330.61,305.63 Z" fill="none" stroke="currentColor" stroke-width="1.5"/><path d="M0,54.89 L456.24,0 L511.13,188.67 Z" fill="none" stroke="currentColor" stroke-width="1.5"/></svg>