<svg xmlns="http://www.w3.org/2000/svg" viewBox="0 0 511.13 507.7" width="24" height="24"><path d="M54.89,507.7 L0,54.89 L456.24,0 L511.13,452.81 Z" fill="none" stroke="currentColor" stroke-width="1.5"/><path d="M104.54,204.35 C129.72,175.64 158.38,149 185.39,136.93 C200.02,130.88 213.47,130.65 223.1,141.56 C234.47,156.55 237.27,173.34 240.83,189.97 C245.03,207.08 248.29,247.56 266.87,293.67 C271.04,302.4 276.24,304.11 284.29,295.91 C292.59,287.72 303.11,274.78 321.68,237.59 C326.54,227.24 327.28,207.85 315.61,200.04 C307.54,194.82 296.87,194.8 281.57,204.03 C287.08,178.61 298.49,154.86 333.98,137.89 C353.05,127.46 389.69,125.79 405.72,148.91 C417.43,166.55 415,190.16 407.64,215.86 C388.09,277.72 345.69,336.15 275.02,390.34 C242.34,415.85 211.02,388.79 199.77,355.5 C181.2,306.13 173.22,262.79 154.71,216.74 C152.3,210.38 150.4,205.87 139.69,208.59 C130.74,211.48 124.72,216.09 117.16,220.97 Z" fill="none" stroke="currentColor" stroke-width="1.5"/><path d="M0,54.89 L456.24,0 L511.13,188.67 Z" fill="none" stroke="currentColor" stroke-width="1.5"/></svg>