<svg xmlns="http://www.w3.org/2000/svg" viewBox="0 0 511.13 507.7" width="24" height="24"><path d="M54.89,507.7 L0,54.89 L456.24,0 L511.13,452.81 Z" fill="none" stroke="currentColor" stroke-width="1.5"/><path d="M283.98,342.69 C283.94,348.45 281.85,354.46 271.17,355.4 L244.75,355.43 C208.05,352.69 178.66,334.71 154.35,305.13 C130.64,277.69 104.18,231.13 80.46,178.59 C78.93,175.18 79.6,170.33 80.91,169.1 C83.18,167 86.61,165.82 90.63,165.82 L139.1,165.37 C144.62,165.37 150.55,168.17 152.77,173.68 C172.74,218.99 188.14,240.53 198.2,250.33 C201.42,253.07 204.06,254.66 207.87,254.23 C211.91,253.47 214.44,247.55 215.16,242.71 C218.43,225.34 217.69,196.54 214.89,185.82 C213.15,178.94 208.05,173.14 197.63,171.39 C194.44,170.91 195.17,169.96 196.39,167.69 C198.85,163.93 203.02,160.6 212.13,158.47 C224.22,156.27 250.74,156.19 263.09,157.41 C271.76,158.41 277.16,159.81 280.6,163.79 C285.25,169.69 284.87,178.66 284.56,187.01 C283.92,200.72 283.52,216.14 283.49,234.07 C283.88,249 288.6,252.25 291.34,253.72 C295.63,255.42 303,248.26 307.83,242.48 C321.27,225.23 335.01,201.15 345.51,174.98 C347.67,170.12 349.11,166.01 357.15,166.05 L414.88,165.6 C423.97,165.42 427.32,168.6 427.99,169.78 C430.61,174.95 427.97,180.86 425.84,186.27 C417.61,205.79 396.85,230.29 379.52,253.38 C374.4,260.49 372.19,265.47 371.84,269.09 C371.68,272.93 372.93,275.99 379.91,283.61 C396.68,299.02 422.37,323.13 427.87,338.35 C430.47,346.23 428.35,348.18 427.3,349.37 C425.41,351.59 421.98,354.93 411.11,355.4 C385.91,355.59 371.81,355.92 363.84,356.33 C353.46,356.26 344.2,350.87 335.96,343.15 C327.83,335.46 320.12,325.07 312.97,318.07 C310.45,315.6 303.75,309.16 298.06,309.59 C294.69,309.79 289.8,313.58 287.21,320.61 C285.7,325.35 284.06,333.5 283.98,342.69 Z" fill="none" stroke="currentColor" stroke-width="1.5"/><path d="M0,54.89 L456.24,0 L511.13,188.67 Z" fill="none" stroke="currentColor" stroke-width="1.5"/></svg>