<svg xmlns="http://www.w3.org/2000/svg" viewBox="0 0 511.13 507.7" width="24" height="24"><path d="M54.89,507.7 L0,54.89 L456.24,0 L511.13,452.81 Z" fill="none" stroke="currentColor" stroke-width="1.5"/><path d="M291,251.97 C284.1,233.96 276.35,214.46 261.3,193.23 C282.29,161.7 318.92,144.31 349.69,144.24 C369.57,159.28 382.65,181.64 392.32,204.21 C377.09,193.47 356.92,185.18 326.57,197.48 C303.91,208.53 291.2,231.58 291,251.97 Z M156.71,365.52 C129.66,341.68 117.23,314.89 111.26,289.58 C126.81,314.96 157.69,324.34 185.89,314.25 C205.12,307.13 225.93,286.31 225.92,262.36 C232.06,285.1 247.68,308.05 255.4,317.4 C237.4,345.36 201.14,368.25 156.71,365.52 Z M143.1,364.66 C106.79,357.55 52.29,324.67 52.29,252.13 C52.29,198.98 99.09,143.83 162.69,143.83 C215.51,143.83 250.61,179.09 263.52,203.71 L296.75,274.66 C312.72,319.54 355.06,324.85 382.39,312.36 C418.63,294.2 427.88,249.49 406.56,218.7 C398.54,182.89 379.95,159.27 363.1,144.05 C415.49,147.99 465.52,191.95 465.52,255.7 C465.52,317.98 410.41,366.69 356.19,366.69 C322.4,366.69 285.62,351.97 260.96,315.56 C249.28,296.87 237.51,279.04 227.58,242.21 C219.07,210.33 196.66,191.57 162.54,191.57 C134.16,191.57 100.21,214.11 100.21,257.63 C100.21,292.17 109.78,330.49 143.1,364.66 Z" fill="none" stroke="currentColor" stroke-width="1.5"/><path d="M0,54.89 L456.24,0 L511.13,188.67 Z" fill="none" stroke="currentColor" stroke-width="1.5"/></svg>