<svg xmlns="http://www.w3.org/2000/svg" viewBox="0 0 511.13 507.7" width="24" height="24"><path d="M54.89,507.7 L0,54.89 L456.24,0 L511.13,452.81 Z" fill="none" stroke="currentColor" stroke-width="1.5"/><path d="M167.2,314.09 L422.45,162.77 C412.21,181.97 401.4,202.72 381.76,233.11 C375.03,243.71 364.3,259.47 337.58,275.85 L406.7,409.75 C411.11,419.1 406.37,426.33 398.15,427.18 C386.73,428.46 357.8,428.34 336.82,427.7 C327.8,427.86 319.8,421.41 309.61,405.04 L267.65,330.11 L262.02,330.11 L222.32,396.09 C213.03,412.2 197.11,429.3 176.37,428.12 C153.68,428.12 132.9,428.75 120.92,427.4 C111.93,426.59 109.79,418.8 114.29,410.23 Z" fill="none" stroke="currentColor" stroke-width="1.5"/><path d="M137.48,367.47 L186.79,278.37 C149.53,257.13 136.4,233.32 113.33,192.21 L91.33,153.18 C87.26,145.04 82.48,142.28 77.54,132.63 C75.41,128.33 74.73,123.61 81.56,122.89 C100.89,120.98 116.16,120.55 136.19,122.36 C153.25,123.99 162.1,133 169.57,139.2 C178.64,146.73 187.99,158.21 193.85,167.47 C198.89,151.03 204.7,141.47 212.24,134.05 C218.89,128.13 222.62,128.16 227.55,127.24 C254.03,123.96 276.06,124.96 295.03,128.9 C302.02,130.85 304.47,133.31 306.72,136.05 C315.72,146.56 321.44,155.49 325.59,167.59 C332.46,157.05 341.77,145.94 356.45,133.6 C369.66,123.74 374.83,122.81 386.56,121.98 C408.81,120.84 425.59,121.77 438.37,122.96 C444.6,123.18 445.37,125.27 442.96,130.48 C437.57,142.05 428.95,147.51 415.8,174.5 C377.51,231.16 327.86,237.02 274.38,259.84 C212.2,282.05 170.8,330.89 137.48,367.47 Z" fill="none" stroke="currentColor" stroke-width="1.5"/><path d="M284.45,173.48 C287.22,169.93 292.11,168.94 294.84,171.8 C300.48,178.98 299.82,187.09 298.51,190.57 C296.66,195.71 295.01,197.02 288.52,197.12 C282.92,197.12 280.16,192.2 280.1,188.78 C280.1,182.78 280.54,178.49 284.45,173.48 Z M284.17,156.98 L299.79,157.14 C298.61,159.35 293.1,162.83 283.77,163.97 Z M233.91,157.17 L234.62,164.4 C225.21,162.77 219.71,159.79 217.54,156.99 Z M237.56,190.45 C236.65,194.84 234.79,196.73 230.61,197.4 C227.27,197.82 220.17,197.56 218.62,189.18 C218.03,186.35 218.35,179.15 221.34,173.52 C223.53,169.5 228.71,169.57 231.96,171.92 C236.66,175.8 238.79,182.27 237.56,190.45 Z M251.98,200.92 C251.44,200.5 251.27,199.83 251.74,199.34 C252.21,198.98 252.94,199.39 253.43,199.74 C258.42,202.97 263.43,203.78 268.71,199.86 C269.22,199.43 269.85,198.76 270.31,199.14 C271.08,199.65 270.81,200.33 270.33,200.84 C264.17,205.55 256.35,204.23 251.98,200.92 Z" fill="none" stroke="currentColor" stroke-width="1.5"/><path d="M293,188.38 C293,190.32 294.4,191.77 296.51,191.77 C294.34,191.77 293.04,193.26 293.04,195.25 C293.04,193.26 291.58,191.65 289.64,191.65 C291.6,191.65 293,190.31 293,188.38 Z M289.04,175.35 C289.04,179.39 291.97,181.31 295.52,181.31 C292.01,181.31 289.04,185.52 289.04,188.18 C289.04,185.49 286.15,181.3 282.85,181.31 C286.06,181.31 289.04,179.41 289.04,175.35 Z M224.91,188.46 C224.91,190.32 226.21,191.53 227.89,191.53 C226.23,191.53 224.91,193.37 224.91,194.85 C224.91,193.36 223.79,191.52 221.7,191.53 C223.79,191.53 224.91,190.42 224.91,188.46 Z M229.05,187.9 C229.05,184.4 225.85,181.19 222.78,181.19 C225.99,181.19 229.05,178.84 229.05,175.27 C228.97,178.91 232.14,181.19 234.68,181.19 C232.17,181.23 229.05,184.18 229.05,187.9 Z" fill="none" stroke="currentColor" stroke-width="1.5"/><path d="M0,54.89 L456.24,0 L511.13,188.67 Z" fill="none" stroke="currentColor" stroke-width="1.5"/></svg>