<svg xmlns="http://www.w3.org/2000/svg" viewBox="0 0 511.13 507.7" width="24" height="24"><path d="M54.89,507.7 L0,54.89 L456.24,0 L511.13,452.81 Z" fill="none" stroke="currentColor" stroke-width="1.5"/><path d="M113.98,191.13 C102.36,221.6 96.61,269.91 111.63,306.92 C137.68,367.76 162.53,372.36 187.71,392.48 Z M331.95,345.99 L354.41,268.84 C360.8,244.73 360.45,229.54 347.17,204.93 C335.53,185.76 326.17,178.24 334.07,152.5 C337.91,142.93 347.25,140.25 358.16,139.52 C331.76,114.37 285.28,98.31 249.19,100.08 C198.89,101.8 152.37,131.31 127.43,167.88 C142.95,169.02 159.78,168.63 176.95,167.46 C181.63,166.34 183.65,169.84 184.29,173.25 C184.81,177.03 182.83,180.03 178.68,180.39 C173.74,180.94 168.69,181.45 160.97,180.62 L217.3,344.57 L249.82,245.68 L225.71,180.74 C220.77,181.24 211.72,181.4 208.85,180.83 C205.22,179.7 203.39,175.96 204.12,172.14 C205.04,168.2 208.19,165.55 214.28,166.38 C237.81,168.87 262.82,168.79 288.93,166.82 C294.73,165.59 298.13,167.36 299.66,171.81 C300.21,175.31 298.22,178.93 294.52,179.77 C290.79,180.65 286.66,181.46 276.46,181.42 Z M333.19,385.18 C358.86,369.29 389.57,336.64 399.98,303.92 C416.06,253.69 407.4,221.02 391.01,180.11 C391.41,201.83 390,221.62 387.77,228.73 Z M258.42,267.97 L210.49,399.79 L306.36,398.79 Z M255.89,425.28 C163.26,425.28 82.92,352.64 82.92,252.24 C82.92,161.08 157.24,81.23 254.43,81.23 C357.55,81.23 426.6,165.06 426.6,254.32 C426.6,353.55 344.13,425.28 255.89,425.28 Z" fill="none" stroke="currentColor" stroke-width="1.5"/><path d="M0,54.89 L456.24,0 L511.13,188.67 Z" fill="none" stroke="currentColor" stroke-width="1.5"/></svg>