<svg xmlns="http://www.w3.org/2000/svg" viewBox="0 0 511.13 507.7" width="24" height="24"><path d="M54.89,507.7 L0,54.89 L456.24,0 L511.13,452.81 Z" fill="none" stroke="currentColor" stroke-width="1.5"/><path d="M256.33,433.32 C233.94,422.52 131.8,311.74 104.38,247.81 C88.51,212.66 79.47,168.16 104.22,137.25 C125.67,112.22 160.76,106.07 195.77,109.77 C220.74,113.02 244.34,126.99 256.01,154.98 C264.41,137.43 273.11,119.95 310.65,110.72 C334.79,105.2 394.9,108.04 415.31,149.39 C430.83,180.16 421.05,219.49 408.76,244.94 C393.44,290.15 300.19,401.88 256.33,433.32 Z" fill="none" stroke="currentColor" stroke-width="1.5"/><path d="M0,54.89 L456.24,0 L511.13,188.67 Z" fill="none" stroke="currentColor" stroke-width="1.5"/></svg>