<svg xmlns="http://www.w3.org/2000/svg" viewBox="0 0 511.13 507.7" width="24" height="24"><path d="M54.89,507.7 L0,54.89 L456.24,0 L511.13,452.81 Z" fill="none" stroke="currentColor" stroke-width="1.5"/><path d="M101.9,339.64 C97.57,339.64 92.74,333.29 97.01,325.71 L154.76,221.95 L115.96,155.14 C113.13,150.69 115.08,137.93 121.8,137.93 L177.32,137.93 C183.78,137.93 186.1,142.28 188.9,147.07 L229.49,223.15 L172.8,329.96 C169.39,336.89 163.51,339.64 158.38,339.64 Z" fill="none" stroke="currentColor" stroke-width="1.5"/><path d="M304.1,444.78 C299.65,444.78 297.58,442.2 295.16,437.63 L216.6,299.59 L338.46,87.4 C342.87,80.57 348.41,75.89 355.87,75.89 L409.56,75.89 C417.45,75.89 417.06,82.28 414.83,86.28 L295.24,298.14 L372.47,437.97 C374.62,442.28 374.04,444.78 369.34,444.78 Z" fill="none" stroke="currentColor" stroke-width="1.5"/><path d="M0,54.89 L456.24,0 L511.13,188.67 Z" fill="none" stroke="currentColor" stroke-width="1.5"/></svg>