<svg xmlns="http://www.w3.org/2000/svg" viewBox="0 0 511.13 507.7" width="24" height="24"><path d="M54.89,507.7 L0,54.89 L456.24,0 L511.13,452.81 Z" fill="none" stroke="currentColor" stroke-width="1.5"/><path d="M394.54,325.55 L394.61,214.88 L441.91,221.54 L414.51,327.86 Z M385.75,365.97 L389.42,339.37 L416.83,343.04 L414.11,369.25 Z M157.77,369.9 L163.89,353.83 C173.29,354.4 190.69,354.36 196.04,352.85 C208.95,348.78 212.14,348.58 212.43,335.79 L211.67,286.4 C178.56,245.04 141.48,196.82 117.8,172.72 L69.47,165.77 L69.47,151.75 L233.04,151.75 L232.2,164.53 L181.07,168.88 L252.57,264.75 L298.91,226.08 C307.85,218.11 315.11,209.08 318.56,203.87 L275.66,196.68 L272.55,180.69 L415.89,180.69 L405.67,196.61 C387.18,200.14 373.56,202.25 362.77,205.71 C322.56,234.76 295.16,256.67 276.87,275.11 C271.12,280.95 268.29,284.67 267.39,287.51 C266.23,302.62 266.37,327.15 266.57,333.79 C266.95,340.06 268.17,351.04 271.64,351.65 L320.63,351.65 L321.15,369.9 Z" fill="none" stroke="currentColor" stroke-width="1.5"/><path d="M0,54.89 L456.24,0 L511.13,188.67 Z" fill="none" stroke="currentColor" stroke-width="1.5"/></svg>