<svg xmlns="http://www.w3.org/2000/svg" viewBox="0 0 511.13 507.7" width="24" height="24"><path d="M54.89,507.7 L0,54.89 L456.24,0 L511.13,452.81 Z" fill="none" stroke="currentColor" stroke-width="1.5"/><path d="M397.41,171.52 C359.62,190.7 324.59,207.36 303.78,211.05 C298.19,212.01 296.05,210.43 295.67,209.31 C295.04,207.15 295.09,204.55 298.93,200 C314.04,182.42 350.98,159.75 380.4,141.24 C387.27,137.22 398.64,140.11 402.93,148.27 C410.07,161.43 400.61,169.7 397.41,171.52 Z M428.37,271.2 C406.09,270.98 351.98,269.88 327.32,262.25 C322.96,260.92 320.32,258.45 320.53,256.47 C320.8,254.22 323.17,250.78 332.18,248.53 C352.13,242.64 405.26,237.69 426.49,236.76 C439.08,235.95 443.41,248.76 443.71,254.47 C443.49,261.46 436.87,271.28 428.37,271.2 Z M378.67,367.55 C347.41,347.34 306.56,320.23 297.31,305.69 C294.56,301.66 294.53,299.52 295.6,298.14 C297.81,296.21 302.36,296.4 308.3,297.86 C336.64,305.75 370.35,323.91 397.57,339.13 C401.34,340.7 407.23,351.89 401.25,361.18 C396.94,367.56 388.77,372.1 378.67,367.55 Z M112.05,396.89 C108.64,396.57 100.8,390.2 100.96,379.96 C101.36,370.58 109.46,363.24 119.72,364.21 C136.12,366.06 154.94,366.18 165.13,342.74 C168.69,335.5 172.3,328.28 174.68,320.75 L97.95,130.11 C95.55,120.82 97.44,112.48 108.55,106.2 C116.97,101.96 128.8,105.74 133.6,117.56 L194.34,271.46 L253.93,116.8 C259.05,106.91 270.68,106.08 277.99,108.86 C287.43,113.08 290.76,123.14 287.81,131.5 L202.16,344.8 C191.09,371.12 179.84,385.37 164.62,391.29 C151.24,396.79 135.58,400.28 112.05,396.89 Z" fill="none" stroke="currentColor" stroke-width="1.5"/><path d="M0,54.89 L456.24,0 L511.13,188.67 Z" fill="none" stroke="currentColor" stroke-width="1.5"/></svg>