<svg xmlns="http://www.w3.org/2000/svg" viewBox="0 0 360.0 100.0" width="24" height="24"><rect x="0" y="0" width="360" height="100" fill="none" stroke="currentColor"/><path d="M0,25 L360,25 M0,75 L360,75 M144,0 L144,100 M216,0 L216,100 M288,0 L288,100 M0,45 L5,45 L5,42 L67,42 L67,45 L77,45 L77,42 L139,42 L139,45 L149,45 L149,42 L211,42 L211,45 L221,45 L221,42 L283,42 L283,45 L293,45 L293,42 L355,42 L355,45 L360,45 M72,0 L72,100 M0,55 L360,55" fill="none" stroke="currentColor" stroke-width="1.5"/><ellipse cx="9.0" cy="12.0" rx="5.0" ry="5.0" fill="none" stroke="currentColor"/><ellipse cx="9.0" cy="88.0" rx="5.0" ry="5.0" fill="none" stroke="currentColor"/><ellipse cx="27.0" cy="12.0" rx="5.0" ry="5.0" fill="none" stroke="currentColor"/><ellipse cx="45.0" cy="12.0" rx="5.0" ry="5.0" fill="none" stroke="currentColor"/><ellipse cx="27.0" cy="88.0" rx="5.0" ry="5.0" fill="none" stroke="currentColor"/><ellipse cx="45.0" cy="88.0" rx="5.0" ry="5.0" fill="none" stroke="currentColor"/><ellipse cx="63.0" cy="12.0" rx="5.0" ry="5.0" fill="none" stroke="currentColor"/><ellipse cx="63.0" cy="88.0" rx="5.0" ry="5.0" fill="none" stroke="currentColor"/><ellipse cx="81.0" cy="12.0" rx="5.0" ry="5.0" fill="none" stroke="currentColor"/><ellipse cx="81.0" cy="88.0" rx="5.0" ry="5.0" fill="none" stroke="currentColor"/><ellipse cx="99.0" cy="12.0" rx="5.0" ry="5.0" fill="none" stroke="currentColor"/><ellipse cx="117.0" cy="12.0" rx="5.0" ry="5.0" fill="none" stroke="currentColor"/><ellipse cx="99.0" cy="88.0" rx="5.0" ry="5.0" fill="none" stroke="currentColor"/><ellipse cx="117.0" cy="88.0" rx="5.0" ry="5.0" fill="none" stroke="currentColor"/><ellipse cx="135.0" cy="12.0" rx="5.0" ry="5.0" fill="none" stroke="currentColor"/><ellipse cx="135.0" cy="88.0" rx="5.0" ry="5.0" fill="none" stroke="currentColor"/><ellipse cx="153.0" cy="12.0" rx="5.0" ry="5.0" fill="none" stroke="currentColor"/><ellipse cx="153.0" cy="88.0" rx="5.0" ry="5.0" fill="none" stroke="currentColor"/><ellipse cx="171.0" cy="12.0" rx="5.0" ry="5.0" fill="none" stroke="currentColor"/><ellipse cx="189.0" cy="12.0" rx="5.0" ry="5.0" fill="none" stroke="currentColor"/><ellipse cx="171.0" cy="88.0" rx="5.0" ry="5.0" fill="none" stroke="currentColor"/><ellipse cx="189.0" cy="88.0" rx="5.0" ry="5.0" fill="none" stroke="currentColor"/><ellipse cx="207.0" cy="12.0" rx="5.0" ry="5.0" fill="none" stroke="currentColor"/><ellipse cx="207.0" cy="88.0" rx="5.0" ry="5.0" fill="none" stroke="currentColor"/><ellipse cx="225.0" cy="12.0" rx="5.0" ry="5.0" fill="none" stroke="currentColor"/><ellipse cx="225.0" cy="88.0" rx="5.0" ry="5.0" fill="none" stroke="currentColor"/><ellipse cx="243.0" cy="12.0" rx="5.0" ry="5.0" fill="none" stroke="currentColor"/><ellipse cx="261.0" cy="12.0" rx="5.0" ry="5.0" fill="none" stroke="currentColor"/><ellipse cx="243.0" cy="88.0" rx="5.0" ry="5.0" fill="none" stroke="currentColor"/><ellipse cx="261.0" cy="88.0" rx="5.0" ry="5.0" fill="none" stroke="currentColor"/><ellipse cx="279.0" cy="12.0" rx="5.0" ry="5.0" fill="none" stroke="currentColor"/><ellipse cx="279.0" cy="88.0" rx="5.0" ry="5.0" fill="none" stroke="currentColor"/><ellipse cx="297.0" cy="12.0" rx="5.0" ry="5.0" fill="none" stroke="currentColor"/><ellipse cx="297.0" cy="88.0" rx="5.0" ry="5.0" fill="none" stroke="currentColor"/><ellipse cx="315.0" cy="12.0" rx="5.0" ry="5.0" fill="none" stroke="currentColor"/><ellipse cx="333.0" cy="12.0" rx="5.0" ry="5.0" fill="none" stroke="currentColor"/><ellipse cx="315.0" cy="88.0" rx="5.0" ry="5.0" fill="none" stroke="currentColor"/><ellipse cx="333.0" cy="88.0" rx="5.0" ry="5.0" fill="none" stroke="currentColor"/><ellipse cx="351.0" cy="12.0" rx="5.0" ry="5.0" fill="none" stroke="currentColor"/><ellipse cx="351.0" cy="88.0" rx="5.0" ry="5.0" fill="none" stroke="currentColor"/></svg>