<svg xmlns="http://www.w3.org/2000/svg" viewBox="0 0 54.0 86.0" width="24" height="24"><rect x="0" y="0" width="54" height="86" fill="none" stroke="currentColor"/><path d="M0,18 L54,18 M0,68 L54,68" fill="none" stroke="currentColor" stroke-width="1.5"/><ellipse cx="9.0" cy="9.0" rx="5.0" ry="5.0" fill="none" stroke="currentColor"/><ellipse cx="9.0" cy="77.0" rx="5.0" ry="5.0" fill="none" stroke="currentColor"/><ellipse cx="27.0" cy="9.0" rx="5.0" ry="5.0" fill="none" stroke="currentColor"/><ellipse cx="45.0" cy="9.0" rx="5.0" ry="5.0" fill="none" stroke="currentColor"/><ellipse cx="27.0" cy="77.0" rx="5.0" ry="5.0" fill="none" stroke="currentColor"/><ellipse cx="45.0" cy="77.0" rx="5.0" ry="5.0" fill="none" stroke="currentColor"/><ellipse cx="9.0" cy="28.0" rx="5.0" ry="5.0" fill="none" stroke="currentColor"/><ellipse cx="45.0" cy="28.0" rx="5.0" ry="5.0" fill="none" stroke="currentColor"/><ellipse cx="27.0" cy="28.0" rx="5.0" ry="5.0" fill="none" stroke="currentColor"/><ellipse cx="45.0" cy="58.0" rx="5.0" ry="5.0" fill="none" stroke="currentColor"/><ellipse cx="27.0" cy="58.0" rx="5.0" ry="5.0" fill="none" stroke="currentColor"/><ellipse cx="9.0" cy="58.0" rx="5.0" ry="5.0" fill="none" stroke="currentColor"/></svg>