<svg xmlns="http://www.w3.org/2000/svg" viewBox="0 0 120.0 180.0" width="24" height="24"><rect x="0" y="0" width="120" height="180" fill="none" stroke="currentColor"/><path d="M0,45 L120,45 M0,135 L120,135 M2,0 L2,40 L5,43 L35,43 L38,40 L38,0 M42,0 L42,40 L45,43 L75,43 L78,40 L78,0 M82,0 L82,40 L85,43 L115,43 L118,40 L118,0 M2,180 L2,140 L5,137 L35,137 L38,140 L38,180 M42,180 L42,140 L45,137 L75,137 L78,140 L78,180 M82,180 L82,140 L85,137 L115,137 L118,140 L118,180" fill="none" stroke="currentColor" stroke-width="1.5"/><rect x="44" y="48" width="32" height="70" fill="none" stroke="currentColor"/><rect x="44" y="64" width="32" height="30" fill="none" stroke="currentColor"/><rect x="84" y="49" width="32" height="30" fill="none" stroke="currentColor"/></svg>