<svg xmlns="http://www.w3.org/2000/svg" viewBox="0 0 110.0 180.0" width="24" height="24"><rect x="0" y="0" width="110" height="180" fill="none" stroke="currentColor"/><path d="M0,30 L110,30 M0,150 L110,150" fill="none" stroke="currentColor" stroke-width="1.5"/><ellipse cx="20.0" cy="15.0" rx="8.0" ry="8.0" fill="none" stroke="currentColor"/><ellipse cx="20.0" cy="164.0" rx="8.0" ry="8.0" fill="none" stroke="currentColor"/><ellipse cx="90.0" cy="15.0" rx="8.0" ry="8.0" fill="none" stroke="currentColor"/><ellipse cx="55.0" cy="15.0" rx="8.0" ry="8.0" fill="none" stroke="currentColor"/><ellipse cx="55.0" cy="164.0" rx="8.0" ry="8.0" fill="none" stroke="currentColor"/><ellipse cx="90.0" cy="164.0" rx="8.0" ry="8.0" fill="none" stroke="currentColor"/><path d="M37,0 L37,30 M73,0 L73,30 M37,150 L37,180 M73,150 L73,180 M95,66 L71,66 L66,71 L71,76 L95,76" fill="none" stroke="currentColor" stroke-width="1.5"/><ellipse cx="71.0" cy="71.0" rx="25.0" ry="25.0" fill="none" stroke="currentColor"/></svg>