<svg xmlns="http://www.w3.org/2000/svg" viewBox="0 0 50.0 60.0" width="24" height="24"><rect x="0" y="0" width="50" height="60" fill="none" stroke="currentColor"/><path d="M0,16 L50,16 M0,44 L50,44 M5,0 L5,60 M10,0 L10,60 M15,0 L15,60 M20,0 L20,60 M25,0 L25,60 M30,0 L30,60 M35,0 L35,60 M40,0 L40,60 M45,0 L45,60" fill="none" stroke="currentColor" stroke-width="1.5"/><ellipse cx="2.5" cy="8.0" rx="1.0" ry="1.0" fill="none" stroke="currentColor"/><ellipse cx="2.5" cy="52.0" rx="1.0" ry="1.0" fill="none" stroke="currentColor"/><ellipse cx="7.5" cy="52.0" rx="1.0" ry="1.0" fill="none" stroke="currentColor"/><ellipse cx="7.5" cy="8.0" rx="1.0" ry="1.0" fill="none" stroke="currentColor"/><ellipse cx="12.5" cy="52.0" rx="1.0" ry="1.0" fill="none" stroke="currentColor"/><ellipse cx="12.5" cy="8.0" rx="1.0" ry="1.0" fill="none" stroke="currentColor"/><ellipse cx="17.5" cy="52.0" rx="1.0" ry="1.0" fill="none" stroke="currentColor"/><ellipse cx="17.5" cy="8.0" rx="1.0" ry="1.0" fill="none" stroke="currentColor"/><ellipse cx="22.5" cy="52.0" rx="1.0" ry="1.0" fill="none" stroke="currentColor"/><ellipse cx="22.5" cy="8.0" rx="1.0" ry="1.0" fill="none" stroke="currentColor"/><ellipse cx="27.5" cy="52.0" rx="1.0" ry="1.0" fill="none" stroke="currentColor"/><ellipse cx="27.5" cy="8.0" rx="1.0" ry="1.0" fill="none" stroke="currentColor"/><ellipse cx="32.5" cy="52.0" rx="1.0" ry="1.0" fill="none" stroke="currentColor"/><ellipse cx="32.5" cy="8.0" rx="1.0" ry="1.0" fill="none" stroke="currentColor"/><ellipse cx="37.5" cy="52.0" rx="1.0" ry="1.0" fill="none" stroke="currentColor"/><ellipse cx="37.5" cy="8.0" rx="1.0" ry="1.0" fill="none" stroke="currentColor"/><ellipse cx="42.5" cy="52.0" rx="1.0" ry="1.0" fill="none" stroke="currentColor"/><ellipse cx="42.5" cy="8.0" rx="1.0" ry="1.0" fill="none" stroke="currentColor"/><ellipse cx="47.5" cy="52.0" rx="1.0" ry="1.0" fill="none" stroke="currentColor"/><ellipse cx="47.5" cy="8.0" rx="1.0" ry="1.0" fill="none" stroke="currentColor"/></svg>