<svg xmlns="http://www.w3.org/2000/svg" viewBox="0 0 300.0 140.0" width="24" height="24"><rect x="0" y="0" width="300" height="140" fill="none" stroke="currentColor"/><path d="M0,40 L300,40 M0,100 L300,100 M30,0 L30,140 M60,0 L60,140 M90,0 L90,140 M120,0 L120,140 M150,0 L150,140 M180,0 L180,140 M210,0 L210,140 M240,0 L240,140 M270,0 L270,140" fill="none" stroke="currentColor" stroke-width="1.5"/><ellipse cx="15.0" cy="20.0" rx="8.0" ry="8.0" fill="none" stroke="currentColor"/><ellipse cx="15.0" cy="120.0" rx="8.0" ry="8.0" fill="none" stroke="currentColor"/><ellipse cx="45.0" cy="120.0" rx="8.0" ry="8.0" fill="none" stroke="currentColor"/><ellipse cx="45.0" cy="20.0" rx="8.0" ry="8.0" fill="none" stroke="currentColor"/><ellipse cx="75.0" cy="120.0" rx="8.0" ry="8.0" fill="none" stroke="currentColor"/><ellipse cx="75.0" cy="20.0" rx="8.0" ry="8.0" fill="none" stroke="currentColor"/><ellipse cx="105.0" cy="120.0" rx="8.0" ry="8.0" fill="none" stroke="currentColor"/><ellipse cx="105.0" cy="20.0" rx="8.0" ry="8.0" fill="none" stroke="currentColor"/><ellipse cx="135.0" cy="120.0" rx="8.0" ry="8.0" fill="none" stroke="currentColor"/><ellipse cx="135.0" cy="20.0" rx="8.0" ry="8.0" fill="none" stroke="currentColor"/><ellipse cx="165.0" cy="120.0" rx="8.0" ry="8.0" fill="none" stroke="currentColor"/><ellipse cx="165.0" cy="20.0" rx="8.0" ry="8.0" fill="none" stroke="currentColor"/><ellipse cx="195.0" cy="120.0" rx="8.0" ry="8.0" fill="none" stroke="currentColor"/><ellipse cx="195.0" cy="20.0" rx="8.0" ry="8.0" fill="none" stroke="currentColor"/><ellipse cx="225.0" cy="120.0" rx="8.0" ry="8.0" fill="none" stroke="currentColor"/><ellipse cx="225.0" cy="20.0" rx="8.0" ry="8.0" fill="none" stroke="currentColor"/><ellipse cx="255.0" cy="120.0" rx="8.0" ry="8.0" fill="none" stroke="currentColor"/><ellipse cx="255.0" cy="20.0" rx="8.0" ry="8.0" fill="none" stroke="currentColor"/><ellipse cx="285.0" cy="120.0" rx="8.0" ry="8.0" fill="none" stroke="currentColor"/><ellipse cx="285.0" cy="20.0" rx="8.0" ry="8.0" fill="none" stroke="currentColor"/></svg>