<svg xmlns="http://www.w3.org/2000/svg" viewBox="0 0 97.96 100.73" width="24" height="24"><path d="M17.16,58.63 L39.16,75.73 L25.16,83.53 L0.36,31.93 L63.46,46.63 L59.66,51.93 L56.16,51.93 L46.46,37.63 Z M56.96,100.73 L52.96,59.83 L93.96,55.83 L97.96,96.73 Z M62.46,89.13 L63.06,72.63 L64.56,76.73 L64.56,80.53 L67.56,80.53 Z M78.96,77.63 L80.46,77.63 L80.46,74.13 L82.56,71.43 L80.46,71.53 L78.96,71.53 Z M87.46,72.13 L87.46,77.43 L88.86,77.43 L88.86,68.53 L87.46,68.53 Z M85.66,76.43 Z" fill="none" stroke="currentColor" stroke-width="1.5"/></svg>