<svg xmlns="http://www.w3.org/2000/svg" viewBox="0 0 44.52 55.26" width="24" height="24"><path d="M32.3,10.41 C33.56,10.41 34.43,9.39 34.43,8.36 C34.43,6.94 33.31,6.2 32.27,6.2 C31.45,6.2 30.23,6.87 30.23,8.34 C30.23,9.44 31.15,10.41 32.3,10.41 Z M37.24,20.08 C38.51,20.08 39.37,19.06 39.37,18.03 C39.37,16.61 38.26,15.87 37.22,15.87 C36.39,15.87 35.18,16.54 35.18,18.01 C35.18,19.11 36.09,20.08 37.24,20.08 Z M0,55.26 L0,5.71 C0,4.3 1.18,2.76 3.04,2.76 L24.05,2.76 C25.37,2.78 26.44,3.66 26.81,4.72 L18.63,19.77 C17.52,22.23 19.06,24.5 21.6,24.5 L27,24.5 L27,26.76 L22.87,26.76 L15,34.92 L20.03,40.26 L5.25,40.26 L5.25,42.51 L20.25,42.51 L20.25,47 L5.25,47 L5.25,49.26 L27,49.26 L27,55.26 Z M5.25,11.76 L21.75,11.76 L21.75,9.5 L5.25,9.5 Z M22.5,44.01 L35.85,44.01 L31.35,39.5 L35.1,39.5 L40.8,45.5 L35.1,51.5 L31.35,51.5 L35.86,47 L22.5,47 Z M23.85,41.01 L18.08,35.01 L23.85,29.01 L27.6,29.01 L23.1,33.51 L36.74,33.51 L36.74,36.51 L23.09,36.51 L27.6,41.01 Z M21.55,22.25 C20.83,22.25 20.21,21.74 20.6,20.86 L31.42,0.97 C32.03,0 32.79,0.25 33.22,0.95 L44.07,20.77 C44.52,21.63 44.06,22.26 43.15,22.25 Z M27.27,20.08 C28.54,20.08 29.4,19.06 29.4,18.03 C29.4,16.61 28.28,15.87 27.25,15.87 C26.42,15.87 25.21,16.54 25.21,18.01 C25.21,19.11 26.12,20.08 27.27,20.08 Z M34.65,18.57 C34.54,18.39 34.56,17.59 34.64,17.38 L29.93,17.38 C30.03,17.66 30.02,18.32 29.92,18.57 Z M35.7,15.73 C36.02,15.5 36.37,15.35 36.82,15.27 L34.12,10.25 C33.84,10.55 33.47,10.76 33.07,10.85 Z M28.94,15.88 L31.58,10.92 C31.18,10.79 30.76,10.58 30.53,10.32 L27.83,15.36 C28.22,15.4 28.68,15.66 28.94,15.88 Z" fill="none" stroke="currentColor" stroke-width="1.5"/></svg>