<svg xmlns="http://www.w3.org/2000/svg" viewBox="0 0 44.62 55.56" width="24" height="24"><path d="M0,52.5 L0,2.91 C0,1.36 1.42,0 2.88,0 L24.01,0 C25.73,0 27,1.45 27,2.95 L27,27.56 C26.81,27.79 26.64,28.02 26.51,28.28 L21.49,37.5 L5.25,37.5 L5.25,39.76 L20.27,39.76 L17.83,44.24 L5.25,44.24 L5.25,46.51 L16.61,46.51 L13.35,52.5 Z M5.25,9 L21.75,9 L21.75,6.75 L5.25,6.75 Z" fill="none" stroke="currentColor" stroke-width="1.5"/><path d="M29.57,40.97 C31.13,40.97 32.19,39.72 32.19,38.44 C32.19,36.7 30.82,35.79 29.54,35.79 C28.52,35.79 27.02,36.62 27.02,38.42 C27.02,39.78 28.15,40.97 29.57,40.97 Z M35.66,52.87 C37.22,52.87 38.28,51.62 38.28,50.35 C38.28,48.6 36.91,47.69 35.63,47.69 C34.61,47.69 33.11,48.52 33.11,50.33 C33.11,51.68 34.24,52.87 35.66,52.87 Z M16.33,55.55 C15.44,55.55 14.69,54.92 15.17,53.84 L28.49,29.34 C29.24,28.15 30.17,28.46 30.71,29.32 L44.07,53.72 C44.62,54.78 44.05,55.56 42.93,55.55 Z M23.38,52.88 C24.94,52.88 26.01,51.62 26.01,50.35 C26.01,48.61 24.63,47.7 23.35,47.7 C22.33,47.7 20.84,48.52 20.84,50.33 C20.84,51.68 21.97,52.88 23.38,52.88 Z M32.46,51.02 C32.33,50.8 32.35,49.81 32.45,49.55 L26.65,49.55 C26.78,49.9 26.77,50.71 26.65,51.02 Z M33.76,47.52 C34.15,47.24 34.59,47.06 35.14,46.96 L31.81,40.77 C31.47,41.14 31.02,41.4 30.52,41.51 Z M25.44,47.7 L28.68,41.6 C28.2,41.44 27.68,41.18 27.39,40.86 L24.06,47.06 C24.55,47.12 25.11,47.43 25.44,47.7 Z" fill="none" stroke="currentColor" stroke-width="1.5"/></svg>