<svg xmlns="http://www.w3.org/2000/svg" viewBox="0 0 52.61 46.21" width="24" height="24"><path d="M26.44,21.76 C28.65,21.76 30.77,19.95 30.77,17.48 C30.77,14.67 28.48,13.06 26.5,13.06 C24.18,13.06 22.07,14.76 22.07,17.54 C22.07,19.78 24.03,21.76 26.44,21.76 Z M36.49,41.04 C38.7,41.04 40.82,39.22 40.82,36.75 C40.82,33.95 38.53,32.34 36.55,32.34 C34.23,32.34 32.12,34.04 32.12,36.82 C32.12,39.05 34.08,41.04 36.49,41.04 Z M32.94,32.02 C33.42,31.65 34.17,31.25 34.83,31.06 L30.16,21.9 C29.64,22.33 29.05,22.69 28.29,22.95 Z M19.99,32.08 L24.65,22.98 C23.95,22.75 23.31,22.42 22.75,21.96 L18.02,31.07 C18.71,31.27 19.46,31.66 19.99,32.08 Z M22.11,37.81 L30.73,37.81 C30.6,37.13 30.58,36.4 30.71,35.71 L22.14,35.71 C22.26,36.44 22.25,37.15 22.11,37.81 Z M16.39,41.03 C18.6,41.03 20.72,39.22 20.72,36.75 C20.72,33.94 18.43,32.33 16.44,32.33 C14.13,32.33 12.02,34.03 12.02,36.81 C12.02,39.05 13.98,41.03 16.39,41.03 Z M2.92,46.21 C1.34,46.21 0,45.15 1.01,43.09 L24.66,1.54 C25.69,0 27.23,0.13 28.14,1.59 L51.63,42.87 C52.61,44.46 52.08,46.1 50,46.2 Z" fill="none" stroke="currentColor" stroke-width="1.5"/></svg>