<svg xmlns="http://www.w3.org/2000/svg" viewBox="0 0 55.2 53.17" width="24" height="24"><path d="M43.2,46.42 L43.2,44.92 L49.2,44.92 L49.2,46.42 Z M43.2,40.42 C43.22,39.86 43.3,39.03 43.46,38.28 C43.52,38.01 43.63,37.77 43.9,37.58 L44.41,37.25 C44.71,37.07 44.93,37.09 45.11,37.23 C45.75,37.65 46.6,37.73 47.23,37.15 C47.39,36.99 47.58,36.91 47.79,37.01 C47.91,37.07 48.42,37.34 48.61,37.52 C48.8,37.68 48.89,37.89 48.94,38.12 C49.07,38.82 49.17,39.76 49.19,40.42 Z M46.16,36.97 C45.32,36.97 44.7,36.11 44.7,35.42 C44.7,34.16 45.58,33.67 46.22,33.67 C46.88,33.67 47.7,34.27 47.7,35.33 C47.7,36.26 46.99,36.97 46.16,36.97 Z M43.2,43.43 L43.2,41.92 L49.2,41.92 L49.2,43.43 Z M31.2,46.42 L31.2,44.92 L37.2,44.92 L37.2,46.42 Z M31.2,40.42 C31.22,39.86 31.3,39.03 31.46,38.28 C31.52,38.01 31.63,37.77 31.9,37.58 L32.41,37.25 C32.71,37.07 32.93,37.09 33.11,37.23 C33.76,37.65 34.6,37.73 35.23,37.15 C35.4,36.99 35.58,36.91 35.8,37.01 C35.91,37.07 36.42,37.34 36.61,37.52 C36.8,37.68 36.9,37.89 36.94,38.12 C37.07,38.82 37.17,39.76 37.2,40.42 Z M34.17,36.97 C33.32,36.97 32.7,36.11 32.7,35.42 C32.7,34.16 33.58,33.67 34.22,33.67 C34.88,33.67 35.7,34.27 35.7,35.33 C35.7,36.26 34.99,36.97 34.17,36.97 Z M31.2,43.43 L31.2,41.92 L37.2,41.92 L37.2,43.43 Z M52.95,48.68 C53.43,48.66 53.7,48.34 53.7,47.94 L53.7,44.87 C53.7,44.51 53.42,44.17 52.95,44.17 C53.42,44.17 53.7,43.85 53.7,43.47 L53.7,40.41 C53.7,40.03 53.45,39.67 52.96,39.67 C53.4,39.67 53.7,39.37 53.7,38.95 L53.7,35.9 C53.7,35.5 53.41,35.17 52.95,35.17 Z M40.95,50.17 C41.32,50.02 41.72,49.83 42.04,49.73 C42.51,49.55 43.01,49.42 43.54,49.43 L51.45,49.43 L51.45,31.81 C51.45,31.61 51.32,31.42 51.1,31.42 L43.92,31.42 C42.33,31.42 40.95,32.95 40.95,34.36 Z M28.95,49.43 L36.9,49.43 C37.45,49.44 37.98,49.52 38.5,49.74 L39.45,50.18 L39.45,34.44 C39.45,32.93 38.13,31.42 36.44,31.42 L29.33,31.42 C29.07,31.42 28.95,31.59 28.95,31.8 Z M27.48,52.42 C26.49,52.42 25.95,51.67 25.95,51.03 L25.95,34.39 C25.95,33.65 26.58,32.92 27.45,32.92 L27.45,31.76 C27.45,30.86 28.21,29.93 29.29,29.93 L37.16,29.93 C38.44,29.93 39.56,31.1 40.2,32.18 C40.93,31.01 42.01,29.93 43.24,29.93 L51.13,29.93 C52.02,29.93 52.95,30.67 52.95,31.76 L52.95,32.93 L53.75,32.92 C54.5,32.92 55.2,33.59 55.2,34.4 L55.2,50.97 C55.2,51.95 54.38,52.42 53.78,52.42 L42.45,52.42 C42.45,52.92 42.08,53.17 41.75,53.17 L38.7,53.17 C38.25,53.17 37.95,52.88 37.95,52.42 Z M45.45,11.55 L45.45,6.03 C45.45,3.9 47.31,2.25 49.24,2.25 L51.68,2.25 C53.12,4.86 52.41,7.36 51.45,8.81 C50.32,10.32 48.77,11.67 45.45,11.55 Z M7.95,34.42 L7.95,6.52 C7.95,3.49 10.56,0 14.63,0 L47.38,0 C47.83,0 48.16,0.06 48.44,0.14 C45.32,0.47 43.27,3.33 43.27,5.77 L43.27,27.67 C42.17,27.68 41.15,28.07 40.2,28.79 C39.26,28.08 38.24,27.67 37.14,27.67 L29.27,27.67 C27.5,27.67 25.47,29 25.2,31.42 C24.09,32.24 23.73,33.42 23.7,34.42 Z M5.83,48.67 C3.11,48.67 0,46.36 0,42.68 C0,39.22 2.81,36.68 6,36.68 L23.7,36.68 L23.7,48.67 Z" fill="none" stroke="currentColor" stroke-width="1.5"/></svg>