<svg xmlns="http://www.w3.org/2000/svg" viewBox="0 0 54.75 43.5" width="24" height="24"><path d="M52.5,34.5 L52.5,29.28 C52.5,28.48 51.92,27.74 51.06,27.74 L50.25,27.74 L50.25,35.99 L50.97,35.99 C52.02,35.99 52.5,35.09 52.5,34.5 Z M31.5,27.01 L31.5,24.75 L44.25,24.75 L44.25,27.01 Z M31.5,31.5 L31.5,29.25 L44.25,29.25 L44.25,31.5 Z M50.25,16.5 L51.07,16.5 C51.84,16.5 52.5,15.77 52.5,15.05 L52.5,9.78 C52.5,8.92 51.82,8.25 51.03,8.25 L50.25,8.25 Z M37.91,14.02 C36.19,14.02 34.79,12.51 34.79,10.52 C34.79,8.87 36.12,7.13 37.82,7.13 C39.76,7.13 40.95,8.85 40.95,10.57 C40.95,12.72 39.36,14.02 37.91,14.02 Z M31.73,21 C31.88,19.49 32.01,17.96 32.3,16.78 C32.47,16.13 32.73,15.56 33.24,15.2 C33.95,14.74 34.36,14.49 34.72,14.32 C35.03,14.19 35.31,14.24 35.4,14.39 C37.11,15.85 39.44,15.54 40.62,14.35 C40.74,14.22 41.01,14.2 41.36,14.37 C41.78,14.63 42.71,15.13 42.79,15.23 C43.39,15.72 43.56,16.3 43.7,16.89 C43.9,17.79 44.03,18.74 44.18,19.67 C44.27,20.15 44.36,20.61 44.48,21 Z M15.42,14.02 C13.69,14.02 12.31,12.55 12.31,10.5 C12.31,8.65 13.78,7.13 15.37,7.13 C16.77,7.13 18.45,8.31 18.45,10.61 C18.45,12.44 17.11,14.02 15.42,14.02 Z M9.23,21 C9.35,19.52 9.49,18.08 9.78,16.89 C9.99,16.05 10.33,15.35 11,15.03 L12.2,14.32 C12.64,14.18 12.81,14.28 12.94,14.43 C14.67,15.79 16.87,15.6 18.11,14.34 C18.22,14.23 18.4,14.24 18.59,14.27 C18.77,14.3 19.38,14.67 20.15,15.14 C20.66,15.47 20.97,15.98 21.13,16.57 C21.32,17.23 21.4,17.82 21.49,18.43 C21.63,19.4 21.78,20.29 21.98,21 Z M9,27.01 L9,24.75 L21.75,24.75 L21.75,27.01 Z M9,31.5 L9,29.25 L21.75,29.25 L21.75,31.5 Z M5.25,37.5 L19.38,37.5 C21.69,37.5 23.86,38.03 25.51,40.5 L25.51,8.26 C25.51,5.69 23.42,2.24 20.27,2.24 L6.75,2.24 C6.24,2.24 5.25,2.61 5.25,3.82 Z M52.5,24.76 L52.5,19.53 C52.5,18.73 51.92,17.99 51.06,17.99 L50.25,17.99 L50.25,26.24 L50.97,26.25 C52.02,26.25 52.5,25.34 52.5,24.76 Z M28.6,43.5 L24.61,43.5 C24.11,43.49 23.69,43.28 23.41,42.74 L3,42.74 C1.29,42.74 0,41.34 0,39.83 L0,8.3 C0,6.37 1.57,5.25 3,5.25 L3,3.73 C3,1.57 4.76,0 6.75,0 L20.33,0 C23.18,0.05 25.29,1.86 26.47,3.82 C28.45,0.49 31.54,0.01 33,0 L46.63,0 C48.65,0 50.25,1.78 50.25,3.61 L50.25,5.25 L51.67,5.25 C53.74,5.25 54.75,6.92 54.75,8.18 L54.75,39.78 C54.75,41.31 53.5,42.74 51.79,42.74 L29.85,42.74 C29.56,43.16 29.21,43.5 28.6,43.5 Z M48.01,3.76 C48.01,2.92 47.36,2.25 46.47,2.25 L32.97,2.25 C29.74,2.25 27.74,4.98 27.74,7.44 L27.74,40.5 C29.35,38.5 31.05,37.51 33.42,37.5 L48,37.5 C48.03,26.26 48.01,15.01 48,3.76 Z" fill="none" stroke="currentColor" stroke-width="1.5"/></svg>