<svg xmlns="http://www.w3.org/2000/svg" viewBox="0 0 58.13 56.25" width="24" height="24"><path d="M52.5,54.75 C53,54.75 53.63,54.31 53.63,53.57 C53.63,53.1 53.17,52.49 52.5,52.49 C51.77,52.49 51.37,53.16 51.37,53.57 C51.37,54.22 51.89,54.75 52.5,54.75 Z M55.13,53.64 C55.13,55.02 53.9,56.25 52.54,56.25 C51.02,56.25 49.88,54.98 49.88,53.67 L49.88,37.56 C48.52,36.87 46.88,35.3 46.88,32.48 C46.96,30.23 48.27,28.53 49.88,27.67 L49.88,32.24 L52.5,33.74 L55.13,32.24 L55.13,27.66 C56.71,28.44 58.13,30.3 58.13,32.61 C58.09,34.78 56.91,36.59 55.13,37.56 Z M40.85,56.24 C40.47,56.24 40.13,55.92 40.13,55.49 L40.13,44.22 C40.13,43.88 40.44,43.49 40.83,43.49 L41.62,43.49 L41.63,33.01 L41.33,30.52 L41.33,26.99 L43.42,26.99 L43.43,30.52 L43.13,33.01 L43.13,43.49 L43.89,43.49 C44.32,43.49 44.63,43.76 44.63,44.26 L44.63,55.52 C44.63,55.95 44.29,56.24 43.91,56.24 Z M23.07,24.97 C17.02,24.97 11.63,19.92 11.63,12.17 C11.63,6.16 16.19,0 22.85,0 C29.36,0 34.13,5.96 34.13,12.46 C34.13,19.98 28.51,24.97 23.07,24.97 Z M0,50.17 C0.52,44.63 1.22,37.07 2.55,33.24 C3.16,31.51 4.05,30.26 5.49,29.22 C6.42,28.53 9.73,26.7 10.34,26.4 C11.4,25.85 12.5,25.56 13.44,26.4 C19.05,31.37 26.82,31.22 32.51,26.42 C33.17,25.74 34.22,25.92 34.91,26.19 C35.68,26.49 37.68,27.62 39,28.4 L39,30.65 L39.3,33.15 L39.3,41.62 C38.46,42.11 37.8,43.06 37.8,44.22 L37.79,50.17 Z" fill="none" stroke="currentColor" stroke-width="1.5"/></svg>