<svg xmlns="http://www.w3.org/2000/svg" viewBox="0 0 53.25 40.51" width="24" height="24"><path d="M39.76,4.51 L42,4.51 L42,2.27 L39.76,2.27 Z M44.25,4.51 L46.5,4.51 L46.5,2.27 L44.25,2.27 Z M48.75,4.51 L51,4.51 L51,2.27 L48.75,2.27 Z M50.23,38.25 C50.8,38.25 51,37.87 51,37.48 L51,7.51 L2.25,7.51 L2.25,37.43 C2.26,37.86 2.41,38.19 2.98,38.25 Z M0,37.52 L0,2.85 C0,1.6 1.1,0 3.15,0 L50.19,0 C51.93,0 53.25,1.39 53.25,2.95 L53.25,37.42 C53.25,38.92 52.16,40.51 50.19,40.51 L2.91,40.5 C1.35,40.5 0,39.12 0,37.52 Z" fill="none" stroke="currentColor" stroke-width="1.5"/></svg>