<svg xmlns="http://www.w3.org/2000/svg" viewBox="0 0 56.24 48.72" width="24" height="24"><path d="M6.75,2.25 L6.75,0 L45.75,0 L45.75,2.25 Z M6.75,6.75 L6.75,4.5 L45.75,4.5 L45.75,6.75 Z M6.75,11.25 L6.75,9 L45.75,9 L45.75,11.25 Z M6.75,15.75 L6.75,13.5 L45.75,13.5 L45.75,15.75 Z M46.87,42.95 C46.93,43.4 46.86,43.79 46.73,44.15 C46.48,44.86 45.73,45.7 44.5,45.71 C43.31,45.72 42.15,44.7 42.15,43.35 C42.15,41.99 43.13,41 44.3,40.92 C44.9,40.89 45.49,41.02 46.05,41.44 C47.76,39.58 48.38,36.7 46.81,34.1 C47.2,33.91 47.78,33.13 47.93,32.68 C49.68,34.89 50.74,39.58 46.87,42.95 Z M34.95,33.8 C36.39,31.19 39.21,29.33 42.83,29.74 C43.61,28.99 44.36,28.95 45.1,29.05 C46.01,29.25 46.92,30 46.95,31.35 C46.97,32.61 46.02,33.74 44.54,33.74 C44.18,33.74 43.42,33.6 42.84,32.99 C42.48,32.58 42.21,32.07 42.08,31.4 C40.28,31.36 38.05,31.92 36.52,34.4 C36.1,34.07 35.58,33.87 34.95,33.8 Z M34.57,39.73 C33.19,39.7 32.26,38.51 32.28,37.35 C32.24,35.96 33.47,34.97 34.78,35 C36.07,35.05 37.09,36.07 37.05,37.46 C37.02,37.98 36.87,38.72 36.16,39.19 C36.84,41.54 39.05,43.02 41.02,43.26 C41.02,43.98 41.15,44.42 41.47,44.97 C39.2,44.92 35.94,43.53 34.57,39.73 Z M6.75,24.73 L6.75,22.48 L25.05,22.48 C24.89,22.86 24.77,23.29 24.75,23.84 L24.75,24.73 Z M0,41.98 L0,26.97 L4.5,21.22 L4.5,26.98 L24.75,26.98 L24.75,41.98 Z M6.75,20.23 L6.75,17.97 L45.75,17.97 L45.75,20.23 Z M53.25,25.48 L54.75,25.48 L54.75,23.98 L53.25,23.98 Z M50.25,25.48 L51.75,25.48 L51.75,23.98 L50.25,23.98 Z M47.25,25.48 L48.75,25.48 L48.75,23.98 L47.25,23.98 Z M28.5,47.23 L54.75,47.22 L54.75,26.98 L28.5,26.98 Z M28.48,48.72 C27.56,48.71 27.02,48.23 27,47.11 L27,24.04 C27.06,22.93 27.63,22.42 28.67,22.47 L54.63,22.47 C55.74,22.45 56.23,23.09 56.24,23.91 L56.24,47.28 C56.23,48.19 55.53,48.72 54.85,48.72 Z" fill="none" stroke="currentColor" stroke-width="1.5"/></svg>