<svg xmlns="http://www.w3.org/2000/svg" viewBox="0 0 59.25 50.37" width="24" height="24"><path d="M39.75,4.5 L42,4.5 L42,2.25 L39.75,2.25 Z M44.25,4.5 L46.5,4.5 L46.5,2.25 L44.25,2.25 Z M23.25,40.5 L2.93,40.5 C1.37,40.5 0,39.09 0,37.56 L0,2.98 C0,1.16 1.58,0 2.91,0 L50.29,0 C52.03,0 53.25,1.55 53.25,2.92 L53.25,15.3 L51,15.63 L51,7.5 L2.25,7.5 L2.25,37.52 C2.25,38.02 2.67,38.25 2.95,38.25 L23.25,38.25 Z M48.75,4.5 L51,4.5 L51,2.25 L48.75,2.25 Z M25.55,45.45 L25.55,33.75 L39,33.75 L39,47.4 Z M39.74,47.48 L39.74,33.75 L59.25,33.75 L59.25,50.37 Z M39.74,32.97 L39.74,19.27 L59.25,16.5 L59.25,32.97 Z M39,32.97 L25.55,32.97 L25.55,21.31 L39,19.39 Z" fill="none" stroke="currentColor" stroke-width="1.5"/></svg>