<svg xmlns="http://www.w3.org/2000/svg" viewBox="0 0 59.35 49.09" width="24" height="24"><path d="M45.22,20.7 C45.22,20.57 45.23,20.46 45.16,20.25 C43.93,16.42 47.38,12.2 51.45,11.25 C51.84,13.5 51.5,15.61 50.07,17.52 C49.13,18.64 48.01,19.78 45.22,20.7 Z M59.34,38.11 C59.35,40.6 58.79,41.61 58.27,42.72 C57.25,44.72 55.84,46.44 53.9,47.6 C52.09,48.67 50.39,48.89 48.79,48.21 L46.56,47.35 C44.58,46.7 43.36,47.04 41.15,47.99 C38.89,49.09 37.37,49.04 35.38,47.43 C33.73,45.96 32.37,43.82 31.27,41.12 C30.04,37.84 28.95,34.49 29.12,30.56 C29.23,28.52 30.23,25.04 33.79,22.58 C35.92,21.14 39.54,19.85 42.07,21.67 C44.03,22.96 45.14,23.04 47.02,22.47 C47.79,22.23 48.8,21.7 49.77,21.22 C51.33,20.46 52.61,20.67 53.87,21.01 C55.05,21.42 56.29,21.98 58.13,24.23 C56.15,25.62 54.57,27.87 54.77,31.55 C55.06,34.99 57.01,36.99 59.34,38.11 Z M48.75,4.5 L51,4.5 L51,2.25 L48.75,2.25 Z M44.25,4.5 L46.5,4.5 L46.5,2.25 L44.25,2.25 Z M39.75,4.5 L42,4.5 L42,2.25 L39.75,2.25 Z M2.93,40.49 C1.51,40.49 0,39.24 0,37.55 L0,2.97 C0,1.18 1.54,0 2.94,0 L50.3,0 C52.03,0 53.25,1.52 53.25,2.93 L53.25,9.67 L52.95,8.55 L51,9.08 L51,7.5 L2.25,7.5 L2.25,37.54 C2.29,37.95 2.49,38.23 3,38.25 L27.72,38.25 C27.92,39.02 28.17,39.76 28.42,40.49 Z" fill="none" stroke="currentColor" stroke-width="1.5"/></svg>