<svg xmlns="http://www.w3.org/2000/svg" viewBox="0 0 58.93 54.73" width="24" height="24"><path d="M45.36,31.43 C45.15,31.63 44.83,31.62 44.63,31.42 L43.04,29.82 C42.84,29.6 42.83,29.32 43.03,29.11 L47.33,24.81 L43.03,20.5 C42.86,20.33 42.82,20.04 43.03,19.82 L44.63,18.21 C44.89,17.97 45.12,18 45.35,18.18 L49.66,22.48 L53.95,18.19 C54.16,17.99 54.44,17.99 54.64,18.17 L56.25,19.77 C56.52,20.05 56.46,20.37 56.22,20.57 L51.98,24.81 L56.27,29.1 C56.46,29.29 56.49,29.6 56.28,29.81 L54.67,31.42 C54.41,31.67 54.1,31.59 53.89,31.38 L49.66,27.13 Z M48.22,15.81 L41.7,8.45 C41.55,8.26 41.55,7.91 41.71,7.78 L43.43,6.2 C43.67,6.01 43.95,6.12 44.11,6.29 L48.22,10.71 L56.2,0.26 C56.37,0 56.71,0.02 56.87,0.15 L58.72,1.69 C58.93,1.9 58.92,2.18 58.78,2.34 Z M0,54.73 C0.52,49.2 1.22,41.64 2.55,37.81 C3.16,36.08 4.05,34.83 5.49,33.79 C6.42,33.09 9.73,31.27 10.34,30.97 C11.4,30.41 12.5,30.12 13.44,30.97 C19.05,35.94 26.82,35.79 32.51,30.98 C33.17,30.31 34.22,30.49 34.91,30.76 C36,31.17 39.49,33.23 40.15,33.65 C42.08,34.92 43.12,36.6 43.89,39.78 C44.88,44.06 45.46,49.51 46.13,54.73 Z M23.07,29.54 C17.02,29.54 11.63,24.48 11.63,16.73 C11.63,10.73 16.19,4.57 22.85,4.57 C29.36,4.57 34.13,10.52 34.13,17.02 C34.13,24.55 28.51,29.54 23.07,29.54 Z" fill="none" stroke="currentColor" stroke-width="1.5"/></svg>