<svg xmlns="http://www.w3.org/2000/svg" viewBox="0 0 22.35 44.55" width="24" height="24"><path d="M18.67,12.85 C18.67,12.23 19.17,11.03 20.51,11.03 C21.45,11.03 22.35,11.74 22.35,12.85 L22.35,33.38 C22.35,39.85 17.14,44.55 11.17,44.55 C5.86,44.55 0,40.57 0,33.38 L0,8.42 C0,4.6 3.43,0 8.4,0 C13.71,0 16.8,4.7 16.8,8.42 L16.8,27.86 C16.8,30.57 14.78,33.52 11.24,33.52 C7.87,33.52 5.7,30.72 5.7,27.86 L5.7,12.27 C5.7,11.1 6.51,10.35 7.53,10.35 C8.39,10.35 9.37,11.11 9.37,12.27 L9.37,27.88 C9.37,29.1 10.37,29.86 11.24,29.86 C12.26,29.86 13.12,28.99 13.12,27.88 L13.12,8.74 C13.12,6.75 11.67,3.83 8.47,3.83 C6.09,3.83 3.81,6.02 3.81,8.74 L3.81,33.62 C3.81,38.01 7.47,40.95 11.24,40.95 C15.31,40.95 18.67,37.74 18.67,33.62 Z" fill="none" stroke="currentColor" stroke-width="1.5"/></svg>