<svg xmlns="http://www.w3.org/2000/svg" viewBox="0 0 56.44 49.16" width="24" height="24"><path d="M37.5,4.5 L39.75,4.5 L39.75,2.25 L37.5,2.25 Z M42,4.5 L44.25,4.5 L44.25,2.25 L42,2.25 Z M29.9,40.5 L2.95,40.5 C1.58,40.5 0,39.36 0,37.5 L0,3.03 C0,1.03 1.75,0 2.84,0 L48.05,0 C49.66,0 51,1.41 51,2.95 L51,18.79 C50.72,18.98 50.58,19.21 48.75,21 L48.75,7.5 L2.25,7.5 L2.25,37.49 C2.25,37.83 2.4,38.25 3.09,38.25 L31.58,38.25 L30.84,39 Z M35.31,34.5 L32.25,34.5 L32.25,28.5 L36,28.5 L36,24 L26.25,24 L26.25,28.5 L30,28.5 L30,34.5 L21,34.5 L21,28.5 L24.75,28.5 L24.75,24 L15,24 L15,28.5 L18.75,28.5 L18.75,34.5 L9.75,34.5 L9.75,28.5 L13.5,28.5 L13.5,22.5 L24.75,22.5 L24.75,18 L20.25,18 L20.25,11.25 L30.75,11.25 L30.75,18 L26.25,18 L26.25,22.5 L37.5,22.5 L37.5,28.5 L41.29,28.5 Z M36.17,44.02 L28.19,48.93 C27.8,49.16 27.42,48.72 27.63,48.4 L32.62,40.43 L52.28,20.62 C52.75,20.16 53.53,20.13 53.97,20.52 L55.97,22.52 C56.44,23.01 56.28,23.74 55.89,24.21 Z M34.81,43.8 L32.78,41.77 L30.16,45.97 L30.61,46.43 Z M42.82,40.5 L45.06,38.25 L48.03,38.25 C48.51,38.24 48.76,37.89 48.75,37.5 L48.75,34.53 L51,32.28 L51,37.54 C51,39.04 49.74,40.5 48.01,40.5 Z M46.5,4.5 L48.75,4.5 L48.75,2.25 L46.5,2.25 Z" fill="none" stroke="currentColor" stroke-width="1.5"/></svg>