<svg xmlns="http://www.w3.org/2000/svg" viewBox="0 0 31.49 45.74" width="24" height="24"><path d="M25.51,24.02 C25.88,24.02 26.25,23.78 26.25,23.29 L26.25,20.29 C26.25,19.87 25.99,19.51 25.5,19.51 L22.5,19.51 C22.04,19.51 21.75,19.81 21.75,20.28 L21.75,23.3 C21.75,23.72 22.07,24.02 22.49,24.02 Z M17.26,24.02 C17.62,24.02 18,23.78 18,23.29 L18,20.29 C18,19.87 17.73,19.51 17.25,19.51 L14.24,19.51 C13.79,19.51 13.49,19.81 13.49,20.28 L13.49,23.3 C13.49,23.72 13.82,24.02 14.23,24.02 Z M9,24.02 C9.36,24.02 9.74,23.78 9.74,23.29 L9.74,20.29 C9.74,19.87 9.48,19.51 8.99,19.51 L5.99,19.51 C5.53,19.51 5.24,19.81 5.24,20.28 L5.24,23.3 C5.24,23.72 5.56,24.02 5.97,24.02 Z M25.51,31.51 C25.88,31.51 26.25,31.28 26.25,30.78 L26.25,27.78 C26.25,27.37 25.99,27.01 25.5,27.01 L22.5,27.01 C22.04,27.01 21.75,27.31 21.75,27.77 L21.75,30.79 C21.75,31.22 22.07,31.51 22.49,31.51 Z M17.26,31.51 C17.62,31.51 18,31.28 18,30.78 L18,27.78 C18,27.37 17.73,27.01 17.25,27.01 L14.24,27.01 C13.79,27.01 13.49,27.31 13.49,27.77 L13.49,30.79 C13.49,31.22 13.82,31.51 14.23,31.51 Z M9,31.51 C9.36,31.51 9.74,31.28 9.74,30.78 L9.74,27.78 C9.74,27.37 9.48,27.01 8.99,27.01 L5.99,27.01 C5.53,27.01 5.24,27.31 5.24,27.77 L5.24,30.79 C5.24,31.22 5.56,31.51 5.97,31.51 Z M25.51,39 C25.88,39 26.25,38.77 26.25,38.27 L26.25,35.27 C26.25,34.86 25.99,34.5 25.5,34.5 L22.5,34.5 C22.04,34.5 21.75,34.8 21.75,35.27 L21.75,38.29 C21.75,38.71 22.07,39 22.49,39 Z M17.26,39 C17.62,39 18,38.77 18,38.27 L18,35.27 C18,34.86 17.73,34.5 17.25,34.5 L14.24,34.5 C13.79,34.5 13.49,34.8 13.49,35.27 L13.49,38.29 C13.49,38.71 13.82,39 14.23,39 Z M9,39 C9.36,39 9.74,38.77 9.74,38.27 L9.74,35.27 C9.74,34.86 9.48,34.5 8.99,34.5 L5.99,34.5 C5.53,34.5 5.24,34.8 5.24,35.27 L5.24,38.29 C5.24,38.71 5.56,39 5.97,39 Z M26.31,13.5 C27.01,13.5 27.75,12.85 27.75,12.01 L27.75,5.19 C27.75,4.42 27.07,3.75 26.26,3.75 L5.13,3.75 C4.52,3.75 3.74,4.38 3.74,5.21 L3.74,12.04 C3.74,12.82 4.46,13.5 5.19,13.5 Z M3.6,45.74 C1.73,45.74 0,44.06 0,42.17 L0,3.65 C0,1.51 1.83,0 3.67,0 L27.72,0 C30.14,0 31.49,1.97 31.49,3.63 L31.49,42.07 C31.49,44.2 29.7,45.74 27.9,45.74 Z" fill="none" stroke="currentColor" stroke-width="1.5"/></svg>