<svg xmlns="http://www.w3.org/2000/svg" viewBox="0 0 53.25 49.5" width="24" height="24"><path d="M14.25,17.24 L14.25,10.5 L21,10.5 L21,17.24 Z M23.25,17.24 L23.25,10.5 L30,10.5 L30,17.24 Z M32.25,17.24 L32.25,10.5 L39,10.5 L39,17.24 Z M41.26,17.24 L41.26,10.5 L48,10.5 L48,17.24 Z M41.26,26.24 L41.26,19.49 L48,19.49 L48,26.24 Z M32.25,26.24 L32.25,19.49 L39,19.49 L39,26.24 Z M23.25,26.24 L23.25,19.49 L30,19.49 L30,26.24 Z M14.25,26.24 L14.25,19.49 L21,19.49 L21,26.24 Z M5.25,26.24 L5.25,19.49 L12,19.49 L12,26.24 Z M5.25,44.24 L5.25,37.49 L12,37.49 L12,44.24 Z M14.25,44.24 L14.25,37.49 L21,37.49 L21,44.24 Z M23.25,44.24 L23.25,37.49 L30,37.49 L30,44.24 Z M32.25,44.24 L32.25,37.49 L39,37.49 L39,44.24 Z M41.26,35.24 L41.26,28.49 L48,28.49 L48,35.24 Z M32.25,35.24 L32.25,28.49 L39,28.49 L39,35.24 Z M23.25,35.24 L23.25,28.49 L30,28.49 L30,35.24 Z M14.25,35.24 L14.25,28.49 L21,28.49 L21,35.24 Z M5.25,35.24 L5.25,28.49 L12,28.49 L12,35.24 Z M2.25,47.25 L51,47.25 L51,7.5 L2.25,7.5 Z M0,49.5 L0,3.05 C0,1.19 1.52,0 2.95,0 L50.28,0 C52,0 53.25,1.47 53.25,2.94 L53.25,49.5 Z" fill="none" stroke="currentColor" stroke-width="1.5"/></svg>