<svg xmlns="http://www.w3.org/2000/svg" viewBox="0 0 48.75 48.75" width="24" height="24"><path d="M24.37,36.08 C30.39,36.08 36.08,31.21 36.08,24.41 C36.01,17.41 30.37,12.67 24.37,12.67 C17.55,12.67 12.67,18.36 12.67,24.41 C12.67,31.57 18.71,36.08 24.37,36.08 Z M24.37,34.12 C20.31,34.12 14.63,30.89 14.63,24.41 C14.63,20.05 18.14,14.62 24.37,14.62 C29.17,14.62 34.12,18.39 34.12,24.41 C34.12,30.06 29.47,34.12 24.37,34.12 Z M24.37,27.3 C26.09,27.3 27.31,25.92 27.31,24.41 C27.31,22.79 26.14,21.45 24.37,21.45 C22.8,21.45 21.45,22.62 21.45,24.41 C21.45,26.07 22.82,27.3 24.37,27.3 Z M0,24.41 C0,12.47 9.55,0 24.37,0 C38.15,0 48.75,11.15 48.75,24.41 C48.75,37.87 37.57,48.75 24.37,48.75 C12.6,48.75 0,39.36 0,24.41 Z" fill="none" stroke="currentColor" stroke-width="1.5"/></svg>