<svg xmlns="http://www.w3.org/2000/svg" viewBox="0 0 45.75 58.79" width="24" height="24"><path d="M21.75,9 L21.75,6.75 L5.25,6.75 L5.25,9 Z M0,52.5 L0,2.93 C0,1.27 1.5,0 2.9,0 L24.06,0 C25.47,0 27,1.19 27,3.02 L27,30.74 L20.1,30.74 L13.5,37.35 L13.5,37.5 L5.25,37.5 L5.25,39.75 L13.5,39.75 L13.5,44.25 L5.25,44.25 L5.25,46.5 L13.5,46.5 L13.5,52.5 Z M15.75,39 L15.75,38.25 L21,33 L21.75,33 L21.75,39 Z M15.75,52.5 L15.75,40.5 L23.25,40.5 L23.25,33 L41.25,33 L41.25,38.76 C40.35,38.25 39.05,37.78 37.53,37.8 C33.79,37.8 30.02,40.8 30.02,45.32 C29.99,47.75 31.12,49.49 32.17,50.63 L31.19,52.5 Z M37.53,50.24 C40.45,50.24 42.44,47.95 42.44,45.32 C42.44,42.84 40.42,40.5 37.53,40.5 C34.82,40.5 32.69,42.77 32.69,45.32 C32.69,48.42 35.23,50.24 37.53,50.24 Z M37.53,49.05 C35.65,49.05 33.9,47.51 33.9,45.32 C33.9,43.48 35.47,41.7 37.53,41.7 C39.82,41.7 41.25,43.57 41.25,45.32 C41.25,47.41 39.64,49.05 37.53,49.05 Z M37.53,48.3 C39.23,48.3 40.5,46.99 40.5,45.32 C40.5,43.97 39.41,42.44 37.53,42.44 C36.28,42.44 34.65,43.42 34.65,45.32 C34.65,46.92 35.9,48.3 37.53,48.3 Z M30.53,57.23 L34.21,50.33 C32.65,49.21 31.65,47.5 31.65,45.32 C31.65,41.94 34.53,39.38 37.53,39.38 C41.29,39.38 43.65,42.4 43.65,45.32 C43.66,47.6 42.52,49.09 41.26,50.18 L45.75,56.7 L42.22,55.88 L40.28,58.58 L37.53,51.53 L35.7,58.79 L33.67,56.69 Z" fill="none" stroke="currentColor" stroke-width="1.5"/></svg>