<svg xmlns="http://www.w3.org/2000/svg" viewBox="0 0 45.03 44.99" width="24" height="24"><path d="M32.69,30.31 C33.12,30.68 33.19,31.36 32.75,31.87 C32.4,32.23 31.8,32.41 31.28,32.06 L21.45,24.5 C21.23,24.28 21.03,24.05 21.04,23.58 L21.04,7.11 C21.04,6.44 21.64,6 22.17,6 C22.87,6 23.29,6.65 23.29,7.11 L23.29,23.1 Z M22.63,41.27 C33.72,41.27 41.28,31.93 41.28,22.52 C41.28,11.08 31.86,3.75 22.57,3.75 C10.24,3.75 3.77,14.41 3.77,22 C3.77,34.78 13.94,41.27 22.63,41.27 Z M22.4,44.99 C11.3,44.99 0.27,36.51 0,22.23 C0,11.3 9.21,0 22.43,0 C34.05,0 45.03,8.99 45.03,22.62 C45.03,34.7 35.26,44.99 22.4,44.99 Z" fill="none" stroke="currentColor" stroke-width="1.5"/></svg>