<svg xmlns="http://www.w3.org/2000/svg" viewBox="0 0 99.92 61.1" width="24" height="24"><path d="M13.12,61.1 L53.72,12.9 L32.92,28 L27.12,27 L80.12,57.2 L85.52,38 L89.22,38 Z" fill="none" stroke="currentColor" stroke-width="1.5"/><path d="M57.62,36.9 L57.62,3.7 L81.72,0 L81.72,7.5 L99.92,7.5 L99.92,34.2 L81.72,34.2 L81.72,40.5 Z M65.92,28.7 L73.62,29.4 L73.62,26.1 L68.72,25.9 L68.72,22.2 L72.92,22.4 L72.92,19.2 L68.62,19.2 L68.62,15.6 L72.92,15.5 L72.92,12.3 L65.92,12.9 Z M81.62,32.4 L99.02,32.4 L99.02,9.4 L81.62,9.4 L81.62,11.4 L84.52,11.4 L86.82,13.5 L85.72,15.1 L84.52,13.9 L81.62,13.9 L81.62,18.2 L86.02,22.4 L85.62,22.9 L81.62,20.6 L81.62,27.9 L83.62,27.9 L89.02,22.4 L89.42,22.9 L81.62,30.4 Z M88.72,27.7 L89.52,26.6 L90.72,27.7 L94.52,27.7 L94.52,24.5 L89.32,19.4 L89.62,19 L96.92,30.4 L90.92,30.4 L88.42,28.1 Z M85.62,18.9 L97.02,11.5 L97.02,17.6 L94.72,20.1 L93.32,19 L94.52,17.6 L94.52,14 L91.42,14 L86.12,19.3 Z" fill="none" stroke="currentColor" stroke-width="1.5"/></svg>