<svg xmlns="http://www.w3.org/2000/svg" viewBox="0 0 51.75 42.74" width="24" height="24"><path d="M47.25,6.75 L49.5,6.75 L49.5,4.5 L47.25,4.5 Z M42.75,6.75 L45,6.75 L45,4.5 L42.75,4.5 Z M39,40.5 L48.78,40.5 C49.05,40.5 49.5,40.33 49.5,39.72 L49.5,9.78 L39,9.78 Z M27,40.5 L36.75,40.5 L36.75,2.25 L27,2.25 Z M15,40.5 L24.75,40.5 L24.75,9.78 L15,9.78 Z M12.72,40.5 L12.72,9.78 L2.29,9.78 L2.29,39.73 C2.29,40.19 2.53,40.51 3.08,40.5 Z M2.97,42.74 C1.47,42.74 0,41.5 0,39.78 L0,5.14 C0,3.91 1.11,2.25 2.97,2.25 L24.75,2.25 L24.75,0 L39,0 L39,2.25 L48.8,2.25 C50.55,2.25 51.75,3.8 51.75,5.14 L51.75,39.84 C51.75,41.21 50.47,42.74 48.88,42.74 Z" fill="none" stroke="currentColor" stroke-width="1.5"/></svg>