<svg xmlns="http://www.w3.org/2000/svg" viewBox="0 0 53.88 57.71" width="24" height="24"><path d="M32.13,8.99 L41.88,8.99 L41.88,7.5 L32.13,7.5 Z M32.13,14.25 L44.88,14.25 L44.88,12.75 L32.13,12.75 Z M26.88,21.75 C26.06,21.75 25.38,21.09 25.38,20.25 L25.38,1.48 C25.38,0.75 26,0 26.86,0 L52.41,0 C53.21,0 53.88,0.7 53.88,1.46 L53.88,20.26 C53.88,21.08 53.19,21.75 52.39,21.75 L46.01,21.75 L39.63,29.24 L39.63,21.75 Z M20.91,34.87 C15.43,34.87 10.54,30.29 10.54,23.27 C10.54,17.83 14.67,12.24 20.72,12.24 C21.56,12.24 22.37,12.35 23.14,12.56 L23.14,20.48 C23.31,22.49 24.74,23.92 26.86,24 L30.93,24 C30.71,30.56 25.73,34.87 20.91,34.87 Z M0,57.71 C0.47,52.69 1.11,45.84 2.32,42.37 C2.86,40.8 3.67,39.67 4.98,38.73 C5.82,38.1 8.81,36.44 9.37,36.17 C10.34,35.67 11.33,35.4 12.18,36.17 C17.27,40.67 24.31,40.54 29.47,36.18 C30.06,35.57 31.02,35.73 31.64,35.98 C32.63,36.35 35.79,38.22 36.39,38.61 C38.14,39.75 39.09,41.28 39.79,44.16 C40.68,48.03 41.21,52.98 41.81,57.71 Z" fill="none" stroke="currentColor" stroke-width="1.5"/></svg>