<svg xmlns="http://www.w3.org/2000/svg" viewBox="0 0 53.22 58.91" width="24" height="24"><path d="M39.59,50.06 L45.78,41.31 C46.33,40.41 46.13,39.27 45.31,38.66 L43.51,37.35 C42.71,36.63 42.48,35.51 43.44,33.89 L45.66,30.91 C46.72,29.64 48.33,29.25 49.55,30.31 C52.21,32.22 53.22,35.44 52.61,38.95 C52.31,40.72 51.57,42.38 50.7,44 C48.67,47.87 46.23,51.31 43.23,54.38 C41.62,56.11 39.62,57.66 37.05,58.32 C34.7,58.91 32.46,58.66 30.06,56.92 C29.11,55.81 29.14,54.48 29.93,53.13 L31.79,50.35 C32.44,49.56 33.77,48.33 35.14,49.23 L36.86,50.47 C37.76,51.11 38.97,50.89 39.59,50.06 Z M19.26,32.65 C18.59,32.64 17.87,32.39 17.51,31.74 C15.29,31.63 12.5,30.46 10.49,28.09 C8.83,26.12 8.23,23.95 8.17,21.76 L8.18,18.63 C7.77,18.66 7.1,18.31 7.05,17.54 C7.07,16.37 7.14,15.35 7.28,14.55 C8.32,7.83 13.56,0.49 22.51,0.11 C31.65,0 37.6,7.62 38.5,14.75 C38.64,15.72 38.71,16.61 38.7,17.57 C38.66,18.18 38.13,18.63 37.57,18.63 C37.73,20.55 35.75,23.2 33.91,23.67 C32.36,24.03 32.46,22.71 32.4,21.58 L32.4,16.17 C32.41,15.24 32.53,14.4 33.51,14.43 C34.78,14.45 35.73,15.06 36.36,15.69 C35.61,8.49 29.99,2.15 22.49,2.36 C15.94,2.63 10.39,7.84 9.42,15.51 C10.31,14.72 11.3,14.46 12.12,14.43 C13.02,14.38 13.25,14.86 13.28,15.93 L13.28,21.64 C13.28,23.65 12.88,23.8 11.98,23.7 C11.15,23.52 10.17,22.81 9.22,21.45 C9.1,26.04 12.52,30.31 17.62,30.7 C18,30.17 18.65,29.91 19.21,29.89 L23.92,29.89 C24.74,29.91 25.68,30.46 25.73,31.27 C25.75,31.98 24.76,32.63 23.92,32.65 Z M23.9,28.31 L19.25,28.31 C18.94,28.31 18.62,28.34 18.26,28.45 C16.9,27.86 15.1,26.4 13.96,24.69 C14.47,24.24 14.76,23.35 14.78,22.36 L14.78,15.85 C14.75,13.87 13.67,13.02 12.22,13 C13.65,8.44 17.6,4.61 22.85,4.61 C27.93,4.61 31.96,8.24 33.48,12.93 C32.18,12.96 30.93,13.83 30.98,16.15 L30.98,22.35 C30.98,22.96 31.15,24.1 31.81,24.72 C30.43,26.62 28.66,28.16 26.08,29.08 C25.47,28.58 24.63,28.31 23.9,28.31 Z M0,54.78 C0.52,49.24 1.22,41.68 2.55,37.85 C3.16,36.12 4.05,34.87 5.49,33.83 C6.42,33.13 9.73,31.31 10.34,31.01 C10.56,30.9 10.79,30.79 11.01,30.71 C12.56,31.99 14.72,32.94 16.57,33.15 C21.71,35.78 27.88,34.99 32.51,31.02 C33.17,30.35 34.22,30.53 34.91,30.8 C36,31.21 39.49,33.27 40.15,33.7 C40.39,33.86 40.63,34.02 40.84,34.2 C40.35,35.93 40.64,37.82 42.3,39.12 L43.8,40.15 L37.95,48.4 L36.54,47.36 C34.54,46.04 32.02,46.16 29.89,48.94 L28.04,51.68 C27.42,52.56 27.04,53.64 26.98,54.78 Z" fill="none" stroke="currentColor" stroke-width="1.5"/></svg>