<svg xmlns="http://www.w3.org/2000/svg" viewBox="0 0 59.42 59.41" width="24" height="24"><path d="M40.58,10.12 L41.48,8.92 C45.9,12.74 46.83,20.24 42,25.12 L41.02,23.99 C44.7,19.85 44.75,14.06 40.58,10.12 Z M38.55,21.15 C40.34,18.98 40.67,15.86 38.4,13.27 L39.3,12 C42.42,15.2 41.9,19.57 39.53,22.27 Z M35.93,27.68 C35.98,28.22 35.21,28.97 34.75,28.37 C33.23,26.77 31.16,25.26 28.37,24.35 C26.03,23.64 23.47,22.91 19.84,23.17 C19.57,23.27 18.68,23.48 18.94,23.99 C19.08,24.32 19.26,24.64 19.31,25 C19.33,25.23 19.36,25.58 19.07,25.77 C18.9,25.85 18.74,25.92 18.58,25.95 C18.28,26.07 18.32,26.22 18.42,26.49 C18.66,27.26 18.87,28.04 19.01,28.83 C19.05,29.24 19.08,29.66 19.05,30.05 C19.01,30.32 19.14,30.48 19.27,30.59 C19.48,30.75 19.7,30.91 19.8,31.08 C19.89,31.22 19.98,31.48 19.75,31.67 C19.1,32.25 17.85,33.06 17.15,33.23 C16.93,33.27 16.72,33.39 16.52,33.13 C16.32,32.79 16.28,32.33 16.26,31.86 C15.88,30.45 15.33,28.93 14.82,27.42 C14.48,26.64 14.17,25.81 13.86,24.94 L13.01,23.1 C11.8,23.15 10.87,22.51 10.54,21.52 C9.07,21.62 8.02,20.62 7.51,19.14 C6.91,17.1 7.57,15.51 8.19,14.74 C8.86,13.93 9.65,13.57 10.53,13.65 C10.84,12.68 11.74,12.02 12.86,12 L21.16,11.99 C24.31,11.87 26.69,11.09 28.92,10.18 C31.4,9.11 33.24,7.79 34.71,6.25 C35.12,5.73 35.95,6.27 35.93,6.88 L35.92,14.07 C38.74,15.86 38.11,19.06 35.93,20.46 Z M33.52,42.62 L30.46,41.35 C30.02,41.11 29.83,40.75 30,40.24 L31.17,37.46 C31.42,37.04 31.76,36.8 32.28,37.01 L35.14,38.45 C36.04,37.37 37.04,36.3 38.15,35.37 L36.9,32.3 C36.8,31.94 36.77,31.58 37.29,31.24 L40.16,30.03 C40.71,29.86 41.02,30.1 41.21,30.41 L42.49,33.55 C43.78,33.3 45.06,33.18 46.56,33.62 L47.85,30.44 C48.13,30 48.5,29.87 48.93,30.03 L51.79,31.24 C52.26,31.54 52.3,31.89 52.19,32.27 L50.92,35.4 C52.03,36.3 53.06,37.25 53.89,38.33 L56.97,37.08 C57.52,36.92 57.85,37.13 58.05,37.54 L59.25,40.39 C59.33,40.81 59.24,41.17 58.82,41.4 L55.7,42.67 C55.85,43.89 55.83,45.42 55.7,46.77 L58.82,48.03 C59.24,48.29 59.42,48.63 59.29,49.07 L58.16,51.74 C57.94,52.09 57.63,52.27 57.17,52.15 L54.03,50.88 C53.19,52.02 52.16,53.02 50.99,53.89 L52.24,56.96 C52.43,57.46 52.18,57.87 51.89,58.02 L48.86,59.29 C48.46,59.36 48.09,59.32 47.92,58.82 L46.64,55.67 C45.48,56 44.05,56.08 42.58,55.7 L41.31,58.8 C41.11,59.13 40.88,59.41 40.32,59.27 L37.37,58.05 C36.95,57.75 36.76,57.39 37.03,56.88 L38.43,54.09 C37.19,53.15 36.15,52.16 35.34,51.1 L32.34,52.33 C31.86,52.51 31.47,52.39 31.2,51.96 L29.99,49.08 C29.87,48.7 29.96,48.25 30.41,48.03 L33.53,46.68 C33.4,45.32 33.39,43.97 33.52,42.62 Z M27.9,40.5 C27.91,41.43 28.23,42.17 28.83,42.75 L0,42.75 L0,0 L52.5,0 L52.5,29.06 L50.25,28.12 L50.25,2.25 L2.25,2.25 L2.25,40.5 Z M36.88,44.58 C36.88,49.38 40.83,52.35 44.69,52.35 C48.88,52.35 52.34,48.79 52.34,44.65 C52.34,40.22 48.61,36.89 44.71,36.89 C40.89,36.89 36.88,39.77 36.88,44.58 Z" fill="none" stroke="currentColor" stroke-width="1.5"/></svg>