<svg xmlns="http://www.w3.org/2000/svg" viewBox="0 0 43.51 31.77" width="24" height="24"><path d="M30.07,18.79 C29.13,20.19 27.55,21.19 25.68,21.19 C22.93,21.19 20.32,18.96 20.32,15.86 C20.32,13.35 22.35,10.53 25.68,10.53 C27.65,10.53 29.16,11.52 30.07,12.86 L40.66,12.86 C41.81,12.86 43.51,13.97 43.51,15.83 C43.51,17.32 42.32,18.79 40.66,18.79 Z M36.83,26.96 C34.37,29.5 30.12,31.77 25.16,31.59 C19.17,31.59 11.76,27.09 10.12,18.79 L2.83,18.79 C1.49,18.79 0,17.63 0,15.82 C0,14.14 1.48,12.86 2.83,12.86 L10.12,12.86 C12,3.94 19.86,0.04 25.14,0.04 C30.31,0 33.92,1.9 36.83,4.69 L33.3,8.21 C31.66,6.58 28.98,4.91 25.14,5.07 C19.11,5.38 14.82,10.38 14.89,15.73 C14.78,21.38 19.02,26.33 25.14,26.65 C28.4,26.79 31.2,25.59 33.31,23.44 Z" fill="none" stroke="currentColor" stroke-width="1.5"/></svg>