<svg xmlns="http://www.w3.org/2000/svg" viewBox="0 0 53.25 39.0" width="24" height="24"><path d="M30.75,14.26 L30.75,12.01 L45.75,12.01 L45.75,14.26 Z M30.75,21.01 L30.75,18.76 L45.75,18.76 L45.75,21.01 Z M30.75,27.75 L30.75,25.51 L45.75,25.51 L45.75,27.75 Z M17.67,19.05 C15.01,19.05 12.67,16.65 12.67,13.65 C12.67,10.61 14.85,8.1 17.67,8.1 C20.55,8.1 22.57,10.86 22.57,13.56 C22.57,17.01 19.92,19.05 17.67,19.05 Z M7.42,30.75 C7.61,28.48 7.84,25.49 8.42,23.12 C8.75,21.92 9.25,21.35 9.89,20.9 L11.69,19.82 C12.2,19.56 12.69,19.22 13.32,19.61 C15.43,21.27 18.52,22.22 21.83,19.64 C22.28,19.31 22.65,19.42 23,19.61 L25.12,20.8 C25.92,21.27 26.36,21.94 26.62,22.71 C27.17,24.16 27.51,28.1 27.67,30.75 Z M2.25,36.75 L51,36.75 L51,2.25 L2.25,2.25 Z M0,39 L0,0 L53.25,0 L53.25,39 Z" fill="none" stroke="currentColor" stroke-width="1.5"/></svg>