<svg xmlns="http://www.w3.org/2000/svg" viewBox="0 0 59.02 43.5" width="24" height="24"><path d="M2.25,27.75 L12,27.75 L12,22.5 L2.25,22.5 Z M2.25,21 L12,21 L12,15.75 L2.25,15.75 Z M2.25,14.25 L12,14.25 L12,9 L2.25,9 Z M24.75,27.75 L34.5,27.75 L34.5,22.5 L24.75,22.5 Z M24.75,21 L34.5,21 L34.5,15.75 L24.75,15.75 Z M24.75,14.25 L34.5,14.25 L34.5,9 L24.75,9 Z M24.75,7.5 L34.5,7.5 L34.5,2.25 L24.75,2.25 Z M13.5,7.5 L23.25,7.5 L23.25,2.25 L13.5,2.25 Z M13.5,14.25 L23.25,14.25 L23.25,9 L13.5,9 Z M13.5,21 L23.25,21 L23.25,15.75 L13.5,15.75 Z M13.5,27.75 L23.25,27.75 L23.25,22.5 L13.5,22.5 Z M13.5,34.5 L23.25,34.5 L23.25,29.25 L13.5,29.25 Z M30.91,36.75 L2.91,36.75 C1.12,36.68 0.01,35.2 0,33.79 L0,2.97 C0,1.29 1.45,0 2.94,0 L44.96,0 C46.85,0 48,1.56 48,2.95 L48,12.64 C47.35,12.45 46.55,12.29 45.75,12.3 L45.75,9 L36,9 L36,14.25 L40.37,14.25 C39.91,14.64 39.39,15.14 38.95,15.75 L36,15.75 L36,21 L37.01,21 C36.97,21.43 36.97,21.98 37.01,22.5 L36,22.5 L36,27.75 L37.41,27.75 C36.11,28.42 35.45,28.79 34.5,29.4 L34.5,29.25 L24.75,29.25 L24.75,34.5 L31.32,34.5 C31.14,35.25 31.03,36 30.91,36.75 Z M12,34.5 L12,29.25 L2.25,29.25 L2.25,33.78 C2.25,34.09 2.62,34.5 2.97,34.5 Z M36,7.5 L45.75,7.5 L45.75,3 C45.75,2.67 45.43,2.25 45.01,2.25 L36,2.25 Z M12,7.5 L12,2.25 L2.97,2.25 C2.58,2.25 2.25,2.7 2.25,2.97 L2.25,7.5 Z M45.76,29.01 C42.29,29.01 39.19,26.11 39.19,21.65 C39.19,18.2 41.81,14.66 45.64,14.66 C49.38,14.66 52.12,18.08 52.12,21.82 C52.12,26.14 48.89,29.01 45.76,29.01 Z M32.5,43.5 C32.8,40.31 33.2,35.97 33.97,33.77 C34.32,32.77 34.83,32.05 35.66,31.46 C36.19,31.06 38.09,30.01 38.45,29.84 C39.06,29.52 39.69,29.35 40.23,29.84 C43.45,32.69 47.92,32.61 51.19,29.84 C51.57,29.46 52.18,29.56 52.57,29.72 C53.2,29.95 55.2,31.14 55.58,31.38 C56.7,32.1 57.29,33.07 57.74,34.9 C58.3,37.36 58.64,40.5 59.02,43.5 Z" fill="none" stroke="currentColor" stroke-width="1.5"/></svg>