<svg xmlns="http://www.w3.org/2000/svg" viewBox="0 0 53.21 53.18" width="24" height="24"><path d="M18.75,6.75 L34.5,6.75 L34.5,4.5 L18.75,4.5 Z M18.75,12 L34.5,12 L34.5,9.75 L18.75,9.75 Z M18.75,17.25 L34.5,17.25 L34.5,15 L18.75,15 Z M18.75,22.5 L34.5,22.5 L34.5,20.25 L18.75,20.25 Z M18.75,27.75 L34.5,27.75 L34.5,25.5 L18.75,25.5 Z M18.75,33 L34.5,33 L34.5,30.75 L18.75,30.75 Z M18.75,38.25 L34.5,38.25 L34.5,36 L18.75,36 Z M18.75,43.5 L34.5,43.5 L34.5,41.25 L18.75,41.25 Z M0,53.18 L0,3.75 L13.5,3.75 L13.5,8.25 L3,8.25 L3,10.5 L13.5,10.5 L13.5,13.5 L3,13.5 L3,15.75 L13.5,15.75 L13.5,18.75 L3,18.75 L3,21 L13.5,21 L13.5,24 L3,24 L3,26.25 L13.5,26.25 L13.5,29.25 L3,29.25 L3,31.5 L13.5,31.5 L13.5,34.5 L3,34.5 L3,36.75 L13.5,36.75 L13.5,39.75 L3,39.75 L3,42 L13.5,42 L13.5,45 L3,45 L3,47.25 L13.5,47.25 L13.5,53.18 Z M15.75,53.18 L15.75,0 L37.5,0 L37.5,53.18 Z M18.75,48.75 L34.5,48.75 L34.5,46.5 L18.75,46.5 Z M39.75,53.18 L39.75,47.25 L50.25,47.25 L50.25,45 L39.75,45 L39.75,42 L50.25,42 L50.25,39.75 L39.75,39.75 L39.75,36.75 L50.25,36.75 L50.25,34.5 L39.75,34.5 L39.75,31.5 L50.25,31.5 L50.25,29.25 L39.75,29.25 L39.75,26.25 L50.25,26.25 L50.25,24 L39.75,24 L39.75,21 L50.25,21 L50.25,18.75 L39.75,18.75 L39.75,15.75 L50.25,15.75 L50.25,13.5 L39.75,13.5 L39.75,10.5 L50.25,10.5 L50.25,8.25 L39.75,8.25 L39.75,3.75 L53.21,3.75 L53.21,53.18 Z" fill="none" stroke="currentColor" stroke-width="1.5"/></svg>