<svg xmlns="http://www.w3.org/2000/svg" viewBox="0 0 59.25 58.88" width="24" height="24"><path d="M0,4.53 C0,1.75 7.05,0 13.56,0 C22.71,0 27.74,2.35 27.74,4.51 C27.74,6.7 22.74,8.99 13.03,8.99 C7.48,8.99 0,7.27 0,4.53 Z M13.57,39 C11.28,39 7.07,38.82 3.63,37.51 C2.17,36.87 0.19,35.84 0,33.56 L0,8.25 C1.9,9.51 4.17,10.13 6.31,10.57 C9.22,11.14 12.07,11.29 14.88,11.24 C14.03,12.09 13.57,12.85 13.57,14.24 Z M15.76,14.31 C15.76,11.47 22.75,9.75 29.81,9.75 C35.97,9.75 43.5,11.41 43.5,14.24 C43.5,16.64 37.59,18.75 29.39,18.75 C22.89,18.75 15.76,16.91 15.76,14.31 Z M29.32,48.75 C25.94,48.77 21,48.35 18.19,46.7 C16.96,45.99 15.84,44.84 15.75,43.35 L15.75,18 C17.41,19.11 19.87,19.92 22.1,20.33 C24.53,20.8 27.85,21.09 30.63,21 C29.87,21.79 29.32,22.47 29.32,24.04 Z M31.5,24.06 C31.5,22.06 35.6,19.51 46.43,19.51 C52.37,19.51 59.25,21.41 59.25,24 C59.25,26.77 51.9,28.49 46.22,28.49 C35.34,28.49 31.58,25.8 31.5,24.06 Z M31.5,27.76 C34.25,29.65 39.63,30.76 45.51,30.76 C50.89,30.76 56.24,29.77 59.18,27.76 L59.18,53.09 C59.01,55.25 57.02,56.69 53.93,57.54 C48.1,58.78 42.28,58.88 36.49,57.48 C34.29,56.85 31.6,55.56 31.5,53 Z" fill="none" stroke="currentColor" stroke-width="1.5"/></svg>