<svg xmlns="http://www.w3.org/2000/svg" viewBox="0 0 43.41 56.17" width="24" height="24"><path d="M22.2,30.29 C24.47,28.88 28.95,28.42 31.49,28.42 C35.84,28.42 39.54,29.06 41.6,30.33 C43.41,31.49 42.85,32.64 41.57,33.43 C39.22,34.84 35.16,35.31 31.63,35.31 C29.09,35.31 24.65,34.94 22.16,33.42 C20.97,32.67 20.25,31.49 22.2,30.29 Z M21,34.42 C23.3,36.13 27.84,36.82 31.71,36.82 C35.17,36.82 40.06,36.35 42.6,34.5 L42.6,52.01 C42.6,52.94 41.86,54.05 40.39,54.76 C37.7,55.98 34.59,56.17 31.25,56.17 C28.35,56.17 24.83,55.62 23.19,54.73 C21.71,54.03 21,52.85 21,52.01 Z" fill="none" stroke="currentColor" stroke-width="1.5"/><rect x="0" y="0" width="0" height="0" fill="none" stroke="currentColor"/><path d="M0,52.5 L0,2.89 C0,1.3 1.46,0 2.94,0 L24,0 C25.73,0 27,1.47 27,2.97 L27,26.5 C24.7,26.8 22.22,27.53 20.79,28.52 C19.63,29.26 18.76,30.36 18.76,31.94 L18.76,37.5 L5.25,37.5 L5.25,39.75 L18.76,39.75 L18.76,44.25 L5.25,44.25 L5.25,46.5 L18.76,46.5 L18.76,52.29 C18.77,52.4 18.75,52.45 18.76,52.5 Z M5.25,9 L21.75,9 L21.75,6.75 L5.25,6.75 Z" fill="none" stroke="currentColor" stroke-width="1.5"/></svg>