<svg xmlns="http://www.w3.org/2000/svg" viewBox="0 0 59.42 58.42" width="24" height="24"><path d="M33.92,46.05 C33.95,47.06 35.46,47.95 36.84,48.37 C40.41,49.65 49.24,49.91 54.04,48.41 C55.62,47.93 56.98,47.15 57.17,46.19 L57.17,21.74 C54.01,23.57 49.79,23.9 45.34,23.92 C41.36,23.87 37.25,23.65 33.92,21.74 Z M33.92,18.27 C33.92,20.41 38.87,21.68 46.01,21.68 C51.7,21.68 57.17,20.33 57.17,18.24 C57.17,16.18 51.58,14.8 45.84,14.8 C39.22,14.8 33.92,16.23 33.92,18.27 Z M31.66,18.18 C31.87,15.34 34.91,14.1 37.78,13.38 C43.55,12.26 49.99,12.56 54.12,13.63 C57.56,14.52 59.41,16.41 59.41,18.08 L59.41,46.17 C59.42,47.9 57.71,49.32 56.22,49.96 C51.71,52.09 43.39,51.95 37.82,50.97 C34.53,50.28 31.66,48.57 31.66,46.13 Z M0,7.58 C3.91,10.35 10.16,10.58 14.19,10.66 C18.1,10.56 24.32,10.2 27.82,7.58 L27.82,33.12 C27.59,35.92 24.22,37.18 21.48,37.76 C17.23,38.72 10.57,38.72 6.07,37.71 C4.49,37.34 0.17,36.25 0,33.07 Z M0,4.45 C0,1.77 7.12,0 13.32,0 C21.68,0 27.82,1.94 27.82,4.44 C27.82,7.19 20.47,8.87 14.19,8.87 C6.45,8.87 0,7.01 0,4.45 Z M16.68,58.42 L22.52,52.42 L15.16,52.42 C9.39,52.18 5.31,46.9 4.36,41.92 L8.86,41.92 C9.76,44.96 12.15,47.73 15.11,47.92 L22.45,47.92 L16.67,41.92 L22.37,41.92 L30.54,50.1 L22.3,58.42 Z" fill="none" stroke="currentColor" stroke-width="1.5"/></svg>