<svg xmlns="http://www.w3.org/2000/svg" viewBox="0 0 46.55 51.99" width="24" height="24"><path d="M0,20.77 L0,13.76 L6.54,17.6 L6.54,24.61 Z M7.99,25.49 L7.99,18.48 L14.53,22.32 L14.53,29.33 Z M15.98,30.13 L15.98,23.12 L22.52,26.96 L22.52,33.97 Z M0,29.71 L0,22.7 L6.54,26.53 L6.54,33.54 Z M8,34.43 L7.99,27.42 L14.53,31.25 L14.53,38.26 Z M15.99,39.07 L15.98,32.06 L22.52,35.89 L22.52,42.9 Z M0.01,38.79 L0.01,31.78 L6.55,35.62 L6.55,42.63 Z M8,43.51 L8,36.5 L14.54,40.34 L14.54,47.35 Z M15.99,48.15 L15.99,41.14 L22.53,44.98 L22.53,51.99 Z M40.02,17.41 L46.55,13.59 L46.55,20.58 L40.02,24.4 Z M32.02,22.07 L38.56,18.24 L38.56,25.23 L32.02,29.06 Z M24.02,26.78 L30.56,22.95 L30.56,29.94 L24.02,33.76 Z M40.02,26.33 L46.55,22.5 L46.55,29.5 L40.02,33.32 Z M32.02,30.98 L38.56,27.16 L38.56,34.15 L32.02,37.97 Z M24.02,35.69 L30.56,31.87 L30.56,38.86 L24.02,42.68 Z M32.66,12.52 L38.87,9 L45.1,12.52 L38.88,16.12 Z M24.87,8.02 L31.09,4.5 L37.32,8.02 L31.09,11.62 Z M17.06,3.52 L23.28,0 L29.5,3.52 L23.28,7.12 Z M24.79,17.09 L31,13.57 L37.23,17.09 L31,20.69 Z M17,12.6 L23.21,9.07 L29.44,12.6 L23.22,16.2 Z M9.19,8.1 L15.4,4.57 L21.63,8.1 L15.4,11.7 Z M17.05,21.6 L23.26,18.07 L29.49,21.59 L23.27,25.19 Z M9.26,17.1 L15.48,13.57 L21.71,17.1 L15.48,20.7 Z M1.45,12.6 L7.67,9.08 L13.89,12.6 L7.67,16.2 Z M40.01,35.56 L46.55,31.74 L46.55,38.73 L40.01,42.55 Z M32.01,40.22 L38.55,36.39 L38.55,43.38 L32.01,47.2 Z M24.02,44.92 L30.55,41.1 L30.55,48.09 L24.02,51.91 Z" fill="none" stroke="currentColor" stroke-width="1.5"/></svg>