<svg xmlns="http://www.w3.org/2000/svg" viewBox="0 0 35.25 56.89" width="24" height="24"><path d="M0,39.63 C1.7,40.97 4.76,42.13 8.2,42.74 C14.25,43.8 20.71,43.78 26.49,42.84 C30.07,42.25 33.19,41.2 35.25,39.64 L35.25,49.52 C34.98,52.25 32.54,53.69 29.9,54.66 C23.92,56.64 13.65,56.89 6.36,54.99 C3.33,54.09 0.26,52.58 0,49.52 Z M0,5.65 C0,3.04 5.47,0.31 17.29,0 C29.02,0 35.25,2.99 35.25,5.64 C35.25,8.57 27.7,11.25 18.43,11.25 C8.92,11.38 0,9 0,5.65 Z M0,9.6 C1.7,10.94 4.76,12.1 8.2,12.71 C14.25,13.77 20.71,13.75 26.49,12.81 C30.07,12.22 33.19,11.17 35.25,9.61 L35.25,19.49 C34.98,22.22 32.54,23.66 29.9,24.63 C23.92,26.61 13.65,26.86 6.36,24.96 C3.33,24.06 0.26,22.55 0,19.49 Z M0,24.55 C1.7,25.88 4.76,27.05 8.2,27.65 C14.25,28.72 20.71,28.69 26.49,27.75 C30.07,27.17 33.19,26.11 35.25,24.55 L35.25,34.44 C34.98,37.17 32.54,38.61 29.9,39.57 C23.92,41.56 13.65,41.81 6.36,39.9 C3.33,39 0.26,37.49 0,34.43 Z" fill="none" stroke="currentColor" stroke-width="1.5"/></svg>