<svg xmlns="http://www.w3.org/2000/svg" viewBox="0 0 56.99 58.96" width="24" height="24"><path d="M26.97,25.95 L28.08,23.99 L26.12,22.88 L25.01,24.84 Z M30.88,28.18 L32,26.22 L30.04,25.11 L28.93,27.07 Z M34.8,30.41 L35.91,28.45 L33.96,27.34 L32.84,29.29 Z M4.11,35.95 L3,34 L2.16,34.46 C0.88,31.63 0,28.01 0,24.53 C0,11.39 10.21,0 24.58,0 C36.46,0 48.75,9.39 48.75,24.87 C48.7,26.48 48.55,27.58 48.38,28.58 C44.38,28.31 39.88,28.77 37.02,29.86 C34.78,30.71 32.99,32.08 32.99,34.21 L32.99,47.18 C30.46,48.16 27.37,48.75 24.68,48.75 C15.49,48.75 7.53,43.87 3.21,36.47 Z M8.03,33.72 L6.91,31.76 L4.96,32.88 L6.07,34.84 Z M11.94,31.49 L10.83,29.53 L8.87,30.65 L9.99,32.6 Z M15.86,29.25 L14.74,27.3 L12.79,28.41 L13.9,30.37 Z M19.77,27.02 L18.66,25.06 L16.7,26.18 L17.82,28.13 Z M23.69,24.78 L22.57,22.83 L20.62,23.94 L21.73,25.9 Z M35.25,36.75 C37.77,38.69 43.05,39.15 46.3,39.15 C50.36,39.15 54.66,38.45 56.84,36.75 L56.84,54.27 C56.84,55.68 55.58,56.73 54.22,57.28 C50.51,58.91 41.51,58.96 37.61,57.14 C36.09,56.47 35.25,55.32 35.25,54.34 Z M35.25,34.19 C35.25,32.64 38.94,30.75 46.66,30.75 C51.1,30.75 56.99,32.08 56.99,34.16 C56.99,36.48 50.75,37.64 46.68,37.64 C38.77,37.64 35.25,35.76 35.25,34.19 Z M23.24,2.93 L25.5,2.93 L25.5,0.68 L23.24,0.68 Z M23.24,7.44 L25.5,7.44 L25.5,5.18 L23.24,5.18 Z M23.24,11.94 L25.5,11.94 L25.5,9.69 L23.24,9.69 Z M23.24,16.45 L25.5,16.45 L25.5,14.2 L23.24,14.2 Z M23.24,20.96 L25.5,20.96 L25.5,18.71 L23.24,18.71 Z" fill="none" stroke="currentColor" stroke-width="1.5"/></svg>