<svg xmlns="http://www.w3.org/2000/svg" viewBox="0 0 56.99 58.96" width="24" height="24"><path d="M32.75,33.32 L30.94,34.66 L32.28,36.47 L33,35.94 L33,47.18 C30.47,48.16 27.37,48.75 24.68,48.75 C10.45,48.75 0,37.52 0,24.53 C0,11.39 10.21,0 24.58,0 C36.46,0 48.75,9.39 48.75,24.87 C48.7,26.48 48.56,27.54 48.39,28.54 C44.39,28.27 39.87,28.74 37.02,29.84 C34.95,30.61 33.3,31.77 33.03,33.7 Z M29.6,32.85 L31.41,31.51 L30.07,29.69 L28.26,31.03 Z M26.92,29.22 L28.73,27.88 L27.39,26.07 L25.58,27.41 Z M44.73,17.63 L45.28,19.82 L47.46,19.27 L46.92,17.09 Z M40.36,18.73 L40.9,20.91 L43.09,20.37 L42.54,18.18 Z M35.98,19.82 L36.53,22.01 L38.72,21.46 L38.17,19.28 Z M31.61,20.92 L32.16,23.1 L34.34,22.56 L33.8,20.37 Z M27.24,22.01 L27.79,24.2 L29.97,23.65 L29.43,21.47 Z M9.4,42.47 L11.22,43.8 L12.55,41.98 L10.73,40.65 Z M12.06,38.83 L13.88,40.16 L15.2,38.34 L13.38,37.01 Z M14.71,35.19 L16.53,36.51 L17.86,34.69 L16.04,33.37 Z M17.37,31.55 L19.19,32.87 L20.51,31.05 L18.69,29.73 Z M20.02,27.9 L21.84,29.23 L23.17,27.41 L21.35,26.08 Z M22.68,24.26 L24.5,25.59 L25.82,23.77 L24,22.44 Z M3.46,19.88 L4,17.7 L1.81,17.15 L1.27,19.34 Z M7.83,20.97 L8.37,18.79 L6.19,18.24 L5.64,20.43 Z M12.2,22.06 L12.75,19.88 L10.56,19.33 L10.02,21.52 Z M16.58,23.15 L17.12,20.97 L14.94,20.42 L14.39,22.61 Z M20.95,24.24 L21.5,22.05 L19.31,21.51 L18.77,23.7 Z M35.25,36.75 C37.77,38.69 43.05,39.15 46.3,39.15 C50.36,39.15 54.66,38.45 56.84,36.75 L56.84,54.27 C56.84,55.68 55.58,56.73 54.22,57.28 C50.51,58.91 41.51,58.96 37.61,57.14 C36.09,56.47 35.25,55.32 35.25,54.34 Z M35.25,34.19 C35.25,32.64 38.94,30.75 46.66,30.75 C51.1,30.75 56.99,32.08 56.99,34.16 C56.99,36.48 50.75,37.64 46.68,37.64 C38.77,37.64 35.25,35.76 35.25,34.19 Z M23.24,2.93 L25.5,2.93 L25.5,0.68 L23.24,0.68 Z M23.24,7.44 L25.5,7.44 L25.5,5.18 L23.24,5.18 Z M23.24,11.94 L25.5,11.94 L25.5,9.69 L23.24,9.69 Z M23.24,16.45 L25.5,16.45 L25.5,14.2 L23.24,14.2 Z M23.24,20.96 L25.5,20.96 L25.5,18.71 L23.24,18.71 Z" fill="none" stroke="currentColor" stroke-width="1.5"/></svg>