<svg xmlns="http://www.w3.org/2000/svg" viewBox="0 0 50.24 54.34" width="24" height="24"><path d="M45.75,13.7 L41.26,8.46 L45,8.46 C45.08,4.51 41.94,2.33 39.12,2.46 C38.32,2.51 37.48,2.71 36.59,3.2 L35.1,1.49 C36.54,0.56 38.22,0 40.45,0.28 C44.53,0.91 47.36,4.23 47.25,8.46 L50.24,8.46 Z M43.65,14.69 C42.36,15.52 40.8,16 39.18,15.95 C36.07,15.95 31.5,13.56 31.5,7.71 L28.51,7.71 L33,2.46 L37.5,7.71 L33.74,7.71 C33.72,11.83 36.72,13.71 39.55,13.71 C40.36,13.67 41.21,13.49 42.15,12.95 Z M2.9,48.2 C1.61,48.2 0,47.08 0,45.26 L0,3.85 C0,2.47 1.23,0.97 2.98,0.97 L23.31,0.97 C24.97,0.97 26.25,2.43 26.25,3.93 L26.25,22.71 C25.88,22.73 25.5,22.8 25.12,22.97 L23.25,23.75 L23.25,6.96 L3,6.96 L3,38.46 L15.86,38.46 L17.09,38.99 L17.09,40.18 L15.52,40.86 C15.13,41.01 14.79,41.28 14.58,41.47 L11.19,41.47 C10.87,41.47 10.5,41.7 10.5,42.21 L10.5,43.73 C10.5,44.22 10.85,44.46 11.25,44.46 L13.75,44.46 C13.85,44.78 13.96,45.06 14.07,45.32 L15.07,47.68 C15.18,47.93 15.25,48.05 15.35,48.2 Z M19.24,37.53 L16.18,36.27 C15.74,36.02 15.55,35.67 15.72,35.16 L16.89,32.37 C17.14,31.95 17.48,31.71 18,31.92 L20.86,33.36 C21.77,32.28 22.77,31.21 23.88,30.28 L22.62,27.21 C22.53,26.85 22.49,26.49 23.02,26.14 L25.89,24.94 C26.44,24.76 26.75,25 26.94,25.32 L28.22,28.46 C29.51,28.21 30.79,28.09 32.3,28.52 L33.59,25.34 C33.87,24.9 34.23,24.78 34.67,24.94 L37.53,26.15 C38,26.44 38.04,26.8 37.93,27.17 L36.66,30.31 C37.77,31.21 38.8,32.16 39.64,33.24 L42.71,31.99 C43.26,31.83 43.59,32.04 43.8,32.45 L45,35.31 C45.08,35.73 44.99,36.08 44.57,36.32 L41.44,37.58 C41.59,38.8 41.57,40.34 41.44,41.69 L44.57,42.95 C44.99,43.21 45.17,43.55 45.04,43.99 L43.91,46.67 C43.68,47.01 43.38,47.19 42.92,47.07 L39.77,45.8 C38.93,46.94 37.9,47.94 36.73,48.82 L37.98,51.89 C38.17,52.39 37.92,52.8 37.63,52.95 L34.6,54.22 C34.19,54.29 33.83,54.26 33.65,53.75 L32.37,50.6 C31.22,50.93 29.78,51.01 28.31,50.63 L27.04,53.73 C26.84,54.06 26.61,54.34 26.05,54.21 L23.1,52.98 C22.68,52.68 22.49,52.32 22.76,51.81 L24.15,49.02 C22.92,48.08 21.88,47.08 21.07,46.03 L18.06,47.26 C17.58,47.43 17.2,47.32 16.92,46.88 L15.71,44 C15.59,43.62 15.68,43.17 16.13,42.95 L19.25,41.6 C19.13,40.24 19.12,38.89 19.24,37.53 Z M22.61,39.5 C22.61,44.3 26.56,47.28 30.42,47.28 C34.62,47.28 38.09,43.71 38.09,39.57 C38.09,35.13 34.35,31.8 30.44,31.8 C26.62,31.8 22.61,34.68 22.61,39.5 Z" fill="none" stroke="currentColor" stroke-width="1.5"/></svg>