<svg xmlns="http://www.w3.org/2000/svg" viewBox="0 0 58.46 59.29" width="24" height="24"><path d="M44.55,59.29 C36.98,59.29 30.72,53 30.72,45.55 C30.72,37.39 37.24,31.53 44.58,31.53 C52.25,31.53 58.46,37.87 58.46,45.29 C58.46,53.59 51.81,59.29 44.55,59.29 Z M44.37,54.19 C44.08,53.54 43.9,52.87 43.91,52.17 C41.48,51.79 39.32,50.28 38.37,47.59 C38.88,47.13 39.3,46.56 39.37,45.62 C39.37,43.54 37.8,42.75 36.7,42.75 C35.18,42.75 33.98,43.91 33.98,45.48 C33.98,47.05 35.28,48.12 36.57,48.19 C38.01,52.44 41.85,54.11 44.37,54.19 Z M50.66,51.87 C52.03,50.66 53.07,49.1 53.48,46.88 C53.82,44.49 53.39,42.26 51.79,40.18 C51.51,40.88 51.06,41.36 50.61,41.82 C51.36,43.06 51.73,44.44 51.62,45.98 C51.46,47.66 50.75,48.99 49.77,50.15 C49.35,49.83 48.9,49.53 48.01,49.51 C47,49.51 45.31,50.24 45.31,52.3 C45.36,53.8 46.57,54.91 48.01,54.91 C49.85,54.91 50.7,53.23 50.7,52.43 C50.72,52.23 50.69,52.05 50.66,51.87 Z M45.18,38.67 C45.4,40.06 46.34,41.32 48.04,41.32 C49.62,41.32 50.71,40.01 50.71,38.7 C50.71,37 49.4,35.92 47.99,35.92 C47.29,35.95 46.62,36.18 46.02,36.78 C44.2,36.58 42.49,36.85 40.89,37.64 C38.99,38.62 37.77,40.08 37.09,41.38 C37.83,41.45 38.42,41.7 38.9,42.04 C39.69,40.7 40.63,40.01 41.61,39.44 C42.75,38.87 43.94,38.61 45.18,38.67 Z M30.98,54 L6.75,54 L6.75,6.75 L34.5,6.75 L46.5,18.75 L46.5,29.37 C45.71,29.28 44.95,29.24 44.25,29.27 L44.25,21 L33,21 L33,9 L9,9 L9,51.75 L29.8,51.75 C30.32,52.95 30.65,53.46 30.98,54 Z M16.5,43.5 L16.5,41.25 L29.03,41.25 C28.82,42 28.7,42.75 28.61,43.5 Z M16.5,37.5 L16.5,35.25 L32.07,35.25 C31.52,35.95 31,36.68 30.55,37.5 Z M16.5,31.5 L16.5,29.25 L36.75,29.25 L36.75,31.3 L36.39,31.5 Z M4.5,47.25 L0,47.25 L0,0 L27.75,0 L32.26,4.51 L26.25,4.51 L26.25,2.25 L2.25,2.25 L2.25,45 L4.5,45 Z" fill="none" stroke="currentColor" stroke-width="1.5"/></svg>