<svg xmlns="http://www.w3.org/2000/svg" viewBox="0 0 47.99 55.5" width="24" height="24"><path d="M30,24.75 L9.75,24.75 L9.75,22.5 L30,22.5 Z M30,30.75 L9.75,30.75 L9.75,28.5 L30,28.5 Z M29.34,36.75 L9.75,36.75 L9.75,34.5 L29.34,34.5 Z M34.35,47.25 L0,47.25 L0,0 L27.74,0 L39.74,12 L39.74,25.5 L37.5,25.5 L37.5,14.25 L26.25,14.25 L26.25,2.25 L2.25,2.25 L2.25,45 L32.09,45 Z M39.75,49.5 L31.54,41.25 L31.54,36.75 L37.5,42.75 L37.5,27.75 L42,27.75 L42,42.71 L47.99,36.76 L47.99,41.25 Z M47.25,55.5 L32.25,55.5 L32.25,51.75 L47.25,51.75 Z" fill="none" stroke="currentColor" stroke-width="1.5"/></svg>