<svg xmlns="http://www.w3.org/2000/svg" viewBox="0 0 57.9 48.08" width="24" height="24"><path d="M36,12 L36,5.25 L42,5.25 L42,12 Z M9,21 L9,18.75 L30,18.75 L30,21 Z M9,27 L9,24.75 L28.09,24.75 C27.87,25.02 27.44,26.24 27.1,27 Z M0,36.75 L0,0 L47.25,0 L47.25,16.43 C46.5,16.4 45.69,16.64 45,17.29 L45,2.25 L2.25,2.25 L2.25,34.5 L28.61,34.5 C27.55,34.87 26.76,35.6 26.48,36.75 Z M32.07,31.34 L29.02,30.08 C28.58,29.83 28.39,29.48 28.57,28.97 L29.72,26.2 C29.98,25.78 30.31,25.54 30.83,25.74 L33.68,27.18 C34.59,26.1 35.58,25.04 36.69,24.11 L35.44,21.05 C35.35,20.69 35.31,20.34 35.83,19.99 L38.69,18.79 C39.24,18.62 39.55,18.85 39.74,19.17 L41.02,22.3 C42.3,22.05 43.58,21.93 45.08,22.36 L46.36,19.19 C46.64,18.75 47,18.63 47.43,18.79 L50.29,20 C50.75,20.29 50.8,20.64 50.69,21.02 L49.42,24.14 C50.53,25.04 51.56,25.98 52.39,27.06 L55.45,25.81 C56,25.66 56.33,25.87 56.53,26.28 L57.73,29.12 C57.81,29.54 57.72,29.89 57.3,30.13 L54.19,31.39 C54.34,32.6 54.32,34.13 54.19,35.48 L57.3,36.74 C57.72,37 57.9,37.33 57.77,37.77 L56.64,40.44 C56.42,40.78 56.11,40.96 55.66,40.84 L52.52,39.58 C51.69,40.71 50.65,41.71 49.49,42.58 L50.74,45.64 C50.93,46.13 50.68,46.55 50.39,46.7 L47.37,47.96 C46.97,48.03 46.6,48 46.43,47.49 L45.15,44.36 C44,44.68 42.57,44.76 41.1,44.38 L39.84,47.48 C39.64,47.8 39.41,48.08 38.85,47.95 L35.91,46.72 C35.49,46.43 35.31,46.07 35.57,45.56 L36.96,42.78 C35.73,41.84 34.7,40.85 33.89,39.8 L30.89,41.03 C30.41,41.2 30.03,41.09 29.75,40.65 L28.55,37.78 C28.43,37.4 28.53,36.95 28.97,36.74 L32.08,35.39 C31.95,34.04 31.95,32.69 32.07,31.34 Z M35.42,33.3 C35.42,38.08 39.36,41.04 43.21,41.04 C47.39,41.04 50.84,37.49 50.84,33.37 C50.84,28.95 47.12,25.63 43.23,25.63 C39.42,25.63 35.42,28.5 35.42,33.3 Z" fill="none" stroke="currentColor" stroke-width="1.5"/></svg>