<svg xmlns="http://www.w3.org/2000/svg" viewBox="0 0 54.55 44.6" width="24" height="24"><path d="M43.58,37.43 L36.73,44.26 C36.37,44.6 35.85,44.5 35.54,44.24 L33,41.7 C32.7,41.38 32.7,40.85 32.99,40.51 L39.83,33.67 L32.96,26.73 C32.7,26.47 32.73,25.88 33.01,25.57 L35.57,23.01 C35.82,22.77 36.31,22.69 36.73,23.01 L43.58,29.85 L50.42,23.01 C50.69,22.74 51.25,22.73 51.6,23.02 L54.17,25.6 C54.5,25.95 54.39,26.52 54.12,26.8 L47.33,33.6 L54.15,40.42 C54.55,40.86 54.34,41.42 54.14,41.63 L51.67,44.25 C51.34,44.58 50.78,44.5 50.49,44.26 Z M0,36.75 L0,0 L47.24,0 L47.24,23.18 L45,25.42 L45,2.25 L2.24,2.25 L2.24,34.5 L35.92,34.5 L33.67,36.75 Z M9.01,27 L9.01,24.75 L30.98,24.75 C30.52,25.64 30.55,26.34 30.7,27 Z M9.01,21 L9.01,18.75 L30,18.75 L30,21 Z M36,11.99 L36,5.24 L42,5.24 L42,11.99 Z" fill="none" stroke="currentColor" stroke-width="1.5"/></svg>