<svg xmlns="http://www.w3.org/2000/svg" viewBox="0 0 59.25 59.25" width="24" height="24"><path d="M6.75,3.74 L6.75,0 L45.75,0 L45.75,3.75 L43.5,3.75 L43.5,2.25 L9,2.25 L9,3.74 Z M36,18 L36,11.25 L42,11.25 L42,18 Z M12.75,24 L12.75,21.75 L28.5,21.75 L28.5,24 Z M12.75,29.25 L12.75,27 L33,27 L33,29.25 Z M0,48.75 L0,33.75 L3.75,18.07 L5.25,18.07 L5.25,6 L47.25,6 L47.25,18.07 L48.75,18.07 L51.42,29.25 L45,29.25 L45,8.24 L7.5,8.24 L7.5,33.75 L27.73,33.75 C27.62,36.09 28.78,37.12 30,37.4 L30,48.75 Z M34.5,50.25 L54.75,50.25 L54.75,35.25 L34.5,35.25 Z M36.75,59.25 C36.74,58.95 36.72,58.65 36.84,58.37 C37,57.99 37.26,57.73 37.68,57.62 L42,57 L43.5,57 L43.5,52.5 L33.73,52.5 C32.99,52.5 32.25,51.85 32.25,51.03 L32.25,35.25 L30.66,35.25 C30.38,35.25 30,34.93 30,34.53 L30,32.15 C30,31.76 30.35,31.5 30.68,31.5 L58.54,31.5 C59.04,31.5 59.25,31.88 59.25,32.15 L59.25,34.52 C59.25,34.81 58.99,35.25 58.56,35.25 L57,35.25 L57,51.06 C57,51.64 56.44,52.5 55.56,52.5 L45.75,52.5 L45.75,57 L47.26,57 L51.44,57.6 C52.07,57.74 52.47,58.28 52.5,58.8 L52.5,59.25 Z" fill="none" stroke="currentColor" stroke-width="1.5"/></svg>