<svg xmlns="http://www.w3.org/2000/svg" viewBox="0 0 51.75 59.17" width="24" height="24"><path d="M21.75,54 C20.9,54 20.25,53.29 20.25,52.51 L20.25,39.89 L22.5,42.14 L22.5,51.75 L47.25,51.75 L47.25,36.75 L27.9,36.75 L25.66,34.5 L47.98,34.5 C48.97,34.5 49.5,35.34 49.5,35.95 L49.5,52.49 C49.5,53.27 48.89,54 47.99,54 L38.1,54 C38,54.44 37.87,54.86 37.84,55.37 C37.75,56.55 38.42,56.96 39.38,57.15 C40.43,57.34 41.4,57.35 42.44,57.37 C43.01,57.37 43.35,57.79 43.35,58.25 C43.35,58.68 43.03,59.17 42.42,59.17 L27.12,59.17 C26.74,59.17 26.25,58.81 26.25,58.29 C26.25,57.74 26.71,57.37 27.12,57.37 C28.27,57.34 29.61,57.33 30.59,57.06 C31.3,56.85 31.86,56.47 31.79,55.44 C31.75,54.93 31.63,54.46 31.5,54 Z M21.75,11.24 L21.75,8.99 L5.25,8.99 L5.25,11.24 Z M15,37.72 L15,29.25 L23.46,29.25 L26.25,32.25 L20.25,32.25 L29.25,41.25 L27,43.49 L18,34.49 L18,40.49 Z M0,54.74 L0,5.2 C0,3.5 1.47,2.25 2.92,2.25 L24.03,2.25 C25.6,2.25 27,3.58 27,5.22 L27,29.72 L24.52,27 L12.75,27 L12.75,38.7 L13.89,39.74 L5.25,39.74 L5.25,42 L16.33,42 L18,43.52 L18,46.49 L5.25,46.49 L5.25,48.75 L18,48.75 L18,52.59 C18.01,53.45 18.36,54.26 18.72,54.74 Z" fill="none" stroke="currentColor" stroke-width="1.5"/><path d="M35.45,7.74 C35.46,7.94 35.52,8.04 35.59,8.12 C37.08,9.53 38.74,11.11 40.28,11.42 C40.53,11.36 40.75,11.27 40.91,11.11 C41,11.03 40.97,10.95 40.87,10.92 C39.9,10.72 38.33,9.25 37.44,7.92 L37.45,5.94 L39.35,5.95 L40.4,6.58 C40.5,6.65 40.54,6.61 40.58,6.56 C40.76,6.29 40.9,5.99 41.03,5.68 C41.06,5.61 41.07,5.53 41.02,5.49 L39.82,4.13 C39.71,4.04 39.59,3.96 39.43,3.96 L36.22,3.96 C35.82,3.96 35.46,4.13 35.46,4.61 Z M43.67,4.13 C42.09,5.79 40.7,7.71 40.48,8.76 C40.48,8.91 40.62,9.2 40.75,9.4 C40.87,9.53 40.96,9.45 40.98,9.34 C41.34,8.08 43.05,6.52 43.98,5.94 L45.89,5.95 L45.88,7.85 L45.23,8.94 C45.18,9.01 45.23,9.04 45.26,9.09 C45.56,9.26 45.85,9.42 46.15,9.53 C46.23,9.56 46.29,9.55 46.35,9.51 L47.67,8.33 C47.77,8.23 47.86,8.13 47.87,7.94 L47.87,4.66 C47.87,4.48 47.75,3.96 47.26,3.96 L44.08,3.96 C43.94,3.96 43.79,3.99 43.67,4.13 Z M42.29,14.66 C42.27,14.73 42.27,14.79 42.31,14.83 L43.5,16.18 C43.6,16.28 43.71,16.35 43.85,16.36 L47.13,16.36 C47.52,16.36 47.87,16.16 47.87,15.69 L47.88,12.55 C47.88,12.42 47.86,12.31 47.72,12.19 C46.51,11.08 44.85,9.3 43.05,8.9 C42.81,8.94 42.64,9.05 42.46,9.14 C42.35,9.25 42.29,9.35 42.47,9.41 C43.64,9.78 44.82,10.9 45.89,12.4 L45.88,14.38 L43.98,14.38 C43.61,14.16 43.27,13.92 42.88,13.72 C42.82,13.69 42.77,13.71 42.73,13.77 C42.54,14.13 42.45,14.26 42.29,14.66 Z M39.08,16.37 C39.23,16.36 39.37,16.35 39.47,16.23 C40.76,14.96 42.52,12.9 42.77,11.55 C42.74,11.36 42.6,11.01 42.45,10.89 C42.37,10.83 42.31,10.85 42.28,10.94 C41.97,12.27 39.94,13.95 39.28,14.38 L37.37,14.37 L37.37,12.47 C37.61,12.11 37.85,11.74 38.04,11.38 C38.05,11.33 38.06,11.28 38.01,11.24 C37.7,11.08 37.39,10.89 37.09,10.78 C37.01,10.75 36.94,10.77 36.89,10.81 L35.63,11.94 C35.5,12.06 35.38,12.2 35.38,12.41 L35.38,15.76 C35.38,16.09 35.53,16.36 35.97,16.36 Z M31.5,20.25 L31.5,0 L51.75,0 L51.75,20.25 Z" fill="none" stroke="currentColor" stroke-width="1.5"/></svg>