<svg xmlns="http://www.w3.org/2000/svg" viewBox="0 0 57.0 54.74" width="24" height="24"><path d="M21.75,39.74 L5.25,39.74 L5.25,41.99 L21.75,41.99 Z M21.75,46.49 L5.25,46.49 L5.25,48.74 L21.75,48.74 Z M0,54.74 L0,5.24 C0,3.28 1.73,2.24 2.86,2.24 L24.01,2.24 C25.79,2.24 27.22,3.78 27,5.12 L27,54.74 Z M21.75,11.24 L21.75,8.99 L5.25,8.99 L5.25,11.24 Z" fill="none" stroke="currentColor" stroke-width="1.5"/><path d="M52.49,11.33 C52.42,11.27 52.45,11.23 52.47,11.2 L53.1,10.58 C53.13,10.55 53.17,10.5 53.17,10.4 L53.17,8.49 C53.17,8.4 53.08,8.33 53.02,8.33 L51.57,8.33 C51.49,8.33 51.34,8.35 51.28,8.41 L48.29,11.48 C48.24,11.52 48.19,11.52 48.14,11.48 C48.04,11.41 47.95,11.32 47.92,11.18 C48.51,10.04 49.75,8.32 50.98,6.95 C51.1,6.83 51.24,6.75 51.38,6.75 L54.41,6.75 C54.66,6.75 54.74,6.98 54.74,7.15 L54.74,10.28 C54.75,10.44 54.7,10.55 54.62,10.63 L53.48,11.84 C53.41,11.9 53.33,11.9 53.24,11.85 Z M50.93,16.29 C50.99,16.35 51.05,16.35 51.11,16.35 L53.01,16.35 C53.07,16.35 53.17,16.3 53.17,16.21 L53.17,14.73 C53.17,14.64 53.17,14.56 53.1,14.49 L50.02,11.48 C49.99,11.43 49.99,11.38 50.02,11.33 C50.11,11.24 50.2,11.14 50.31,11.1 C51.82,11.83 54.01,13.64 54.53,14.16 C54.65,14.29 54.73,14.43 54.75,14.59 L54.75,17.6 C54.75,17.91 54.53,18 54.38,18 L51.2,18 C51.08,18 50.97,17.97 50.81,17.81 L49.64,16.73 C49.61,16.65 49.6,16.58 49.64,16.5 C49.82,16.25 50.09,15.84 50.24,15.68 Z M45.75,19.13 L55.88,19.13 L55.88,5.63 L45.75,5.63 L45.75,6.75 L47,6.75 C47.16,6.75 47.32,6.77 47.46,6.83 L48.68,7.96 C48.72,8.01 48.75,8.07 48.68,8.18 L48.12,8.96 C48.09,8.99 48.06,8.99 48.03,8.96 L47.32,8.32 C47.27,8.28 47.21,8.25 47.12,8.25 L45.75,8.25 L45.75,10.8 C46.58,11.64 47.4,12.42 48.23,13.2 C48.26,13.25 48.27,13.3 48.23,13.35 C48.14,13.43 48.09,13.52 47.92,13.58 C47.18,13.18 46.46,12.7 45.75,12.23 L45.75,16.43 L46.74,16.43 C46.83,16.42 46.91,16.4 46.98,16.32 L49.95,13.28 C49.99,13.25 50.04,13.24 50.1,13.28 C50.2,13.36 50.29,13.45 50.32,13.54 C49.65,14.97 47.68,17.46 47.23,17.83 C47.13,17.92 47.02,18 46.85,18 L45.75,18 Z M36.44,16.95 L40.87,17.33 L40.87,15.46 L38.01,15.3 L38.01,13.12 L40.5,13.21 L40.5,11.41 L38.01,11.41 L38.01,9.23 L40.5,9.16 L40.5,7.36 L36.44,7.66 Z M31.5,21.75 L31.5,2.25 L45.75,0 L45.75,4.5 L56.28,4.5 C56.72,4.5 57,4.84 57,5.21 L57,19.49 C57,19.95 56.69,20.25 56.26,20.25 L45.75,20.25 L45.75,24 Z" fill="none" stroke="currentColor" stroke-width="1.5"/></svg>