<svg xmlns="http://www.w3.org/2000/svg" viewBox="0 0 48.73 48.75" width="24" height="24"><path d="M19.69,15.97 C21.33,15.01 22.96,14.68 24.58,14.7 C31.11,14.97 34.32,20.83 33.8,24.82 L27.5,24.82 L35.11,33.74 L42.72,24.82 L37.62,24.82 C37.84,16.71 31.57,11.18 24.77,10.96 C22.33,10.83 19.48,11.63 17.14,13.05 Z M5.99,23.97 L11.06,23.97 C11.13,30.52 14.95,34.46 18.58,36.14 C23.18,38.47 28.06,37.54 31.55,35.39 L28.98,32.39 C28.02,33.02 26.74,33.45 25.1,33.65 C18.82,34 14.75,29.14 14.81,23.97 L21.12,23.97 L13.54,14.69 Z M24.43,48.75 C10.64,48.75 0,37.09 0,25.32 C0,10.43 10.94,0 24.6,0 C38.93,0 48.73,12.2 48.73,23.86 C48.73,39.16 36.72,48.75 24.43,48.75 Z" fill="none" stroke="currentColor" stroke-width="1.5"/></svg>