<svg xmlns="http://www.w3.org/2000/svg" viewBox="0 0 51.75 59.24" width="24" height="24"><path d="M35.45,7.74 C35.46,7.94 35.52,8.04 35.59,8.12 C37.09,9.53 38.74,11.11 40.28,11.42 C40.53,11.36 40.76,11.27 40.92,11.11 C41.01,11.03 40.97,10.95 40.87,10.92 C39.9,10.72 38.33,9.25 37.45,7.92 L37.45,5.94 L39.35,5.95 L40.4,6.58 C40.51,6.65 40.55,6.61 40.59,6.56 C40.76,6.29 40.91,5.99 41.04,5.68 C41.06,5.61 41.07,5.53 41.02,5.49 L39.82,4.13 C39.71,4.04 39.59,3.96 39.43,3.96 L36.22,3.96 C35.82,3.96 35.46,4.13 35.46,4.61 Z M43.67,4.13 C42.09,5.79 40.7,7.71 40.48,8.76 C40.49,8.91 40.63,9.2 40.76,9.4 C40.88,9.53 40.97,9.45 40.99,9.34 C41.35,8.08 43.06,6.52 43.99,5.94 L45.89,5.95 L45.88,7.85 L45.23,8.94 C45.19,9.01 45.23,9.04 45.27,9.08 C45.56,9.26 45.86,9.42 46.15,9.53 C46.23,9.56 46.3,9.55 46.35,9.51 L47.68,8.33 C47.77,8.23 47.86,8.13 47.87,7.94 L47.87,4.66 C47.87,4.48 47.76,3.96 47.26,3.96 L44.09,3.96 C43.94,3.96 43.8,3.99 43.67,4.13 Z M42.29,14.66 C42.27,14.73 42.28,14.79 42.31,14.83 L43.51,16.18 C43.6,16.28 43.72,16.35 43.86,16.36 L47.14,16.36 C47.52,16.36 47.88,16.16 47.88,15.69 L47.88,12.55 C47.88,12.42 47.86,12.31 47.72,12.19 C46.51,11.08 44.85,9.3 43.05,8.9 C42.81,8.94 42.65,9.05 42.47,9.14 C42.35,9.25 42.29,9.35 42.47,9.41 C43.64,9.78 44.82,10.9 45.89,12.4 L45.89,14.38 L43.98,14.38 C43.62,14.16 43.27,13.92 42.88,13.72 C42.82,13.69 42.77,13.71 42.74,13.77 C42.54,14.13 42.45,14.26 42.29,14.66 Z M39.09,16.37 C39.23,16.36 39.37,16.35 39.47,16.23 C40.77,14.96 42.52,12.9 42.77,11.55 C42.74,11.36 42.61,11.01 42.45,10.89 C42.37,10.83 42.32,10.85 42.28,10.93 C41.97,12.27 39.95,13.95 39.29,14.38 L37.37,14.37 L37.37,12.47 C37.61,12.11 37.86,11.74 38.04,11.38 C38.06,11.33 38.06,11.28 38.01,11.24 C37.7,11.08 37.39,10.89 37.09,10.78 C37.01,10.75 36.95,10.77 36.9,10.81 L35.64,11.94 C35.5,12.06 35.39,12.2 35.38,12.41 L35.38,15.76 C35.38,16.09 35.54,16.36 35.97,16.36 Z M31.5,20.25 L31.5,0 L51.75,0 L51.75,20.25 Z" fill="none" stroke="currentColor" stroke-width="1.5"/><rect x="0" y="0" width="0" height="0" fill="none" stroke="currentColor"/><path d="M21,33.74 L21,31.5 L42.74,31.5 L42.74,33.74 L41.25,33.74 L41.25,32.99 L22.49,32.99 L22.49,33.74 Z M17.25,59.24 L17.25,51 L19.5,41.99 L20.25,41.99 L20.25,35.25 L43.49,35.25 L43.49,41.99 L44.24,41.99 L46.49,50.99 L46.49,59.24 Z M21.75,11.24 L21.75,8.99 L5.25,8.99 L5.25,11.24 Z M0,54.74 L0,5.25 C0,3.29 1.73,2.24 2.86,2.24 L24.01,2.24 C25.79,2.24 27,3.77 27,5.13 L27,29.24 L18.74,29.24 L18.74,32.99 L17.99,32.99 L17.99,39.74 L5.25,39.74 L5.25,41.99 L17.2,41.99 L16.06,46.49 L5.25,46.49 L5.25,48.74 L15.49,48.74 L15,50.69 L15,54.74 Z M21.74,50.99 L42,50.99 L42,36.74 L21.74,36.74 Z M24.75,48.74 L24.75,47.24 L35.99,47.24 L35.99,48.74 Z M24.75,45.74 L24.75,44.24 L33.74,44.24 L33.74,45.74 Z M36.74,42.74 L36.74,38.25 L40.49,38.25 L40.49,42.74 Z" fill="none" stroke="currentColor" stroke-width="1.5"/></svg>