<svg xmlns="http://www.w3.org/2000/svg" viewBox="0 0 51.75 59.25" width="24" height="24"><path d="M35.45,7.74 C35.46,7.94 35.51,8.04 35.59,8.12 C37.08,9.53 38.73,11.11 40.28,11.42 C40.53,11.36 40.75,11.27 40.91,11.11 C41,11.03 40.97,10.95 40.87,10.92 C39.9,10.72 38.33,9.25 37.44,7.92 L37.44,5.94 L39.35,5.95 L40.4,6.58 C40.5,6.65 40.54,6.61 40.58,6.56 C40.75,6.29 40.9,5.99 41.03,5.68 C41.05,5.61 41.07,5.53 41.02,5.49 L39.81,4.13 C39.71,4.04 39.58,3.96 39.43,3.96 L36.22,3.96 C35.82,3.96 35.45,4.13 35.45,4.61 Z M43.66,4.13 C42.09,5.79 40.7,7.71 40.47,8.76 C40.48,8.91 40.62,9.2 40.75,9.4 C40.87,9.53 40.96,9.45 40.98,9.34 C41.34,8.08 43.05,6.52 43.98,5.94 L45.88,5.95 L45.88,7.85 L45.23,8.94 C45.18,9.01 45.22,9.04 45.26,9.08 C45.56,9.26 45.85,9.42 46.15,9.53 C46.22,9.56 46.29,9.55 46.35,9.51 L47.67,8.33 C47.77,8.23 47.85,8.13 47.87,7.94 L47.87,4.66 C47.87,4.48 47.75,3.96 47.25,3.96 L44.08,3.96 C43.94,3.96 43.79,3.99 43.66,4.13 Z M42.29,14.66 C42.27,14.73 42.27,14.79 42.31,14.83 L43.5,16.18 C43.6,16.28 43.71,16.35 43.85,16.36 L47.13,16.36 C47.51,16.36 47.87,16.16 47.87,15.69 L47.87,12.55 C47.87,12.42 47.85,12.31 47.72,12.19 C46.5,11.08 44.84,9.3 43.05,8.9 C42.8,8.94 42.64,9.05 42.46,9.14 C42.35,9.25 42.28,9.35 42.47,9.41 C43.64,9.78 44.82,10.9 45.88,12.4 L45.88,14.38 L43.98,14.38 C43.61,14.16 43.26,13.92 42.88,13.72 C42.82,13.69 42.77,13.71 42.73,13.77 C42.53,14.13 42.44,14.26 42.29,14.66 Z M39.08,16.37 C39.23,16.36 39.37,16.35 39.47,16.23 C40.76,14.96 42.52,12.9 42.77,11.55 C42.74,11.36 42.6,11.01 42.44,10.89 C42.37,10.83 42.31,10.85 42.28,10.93 C41.97,12.27 39.94,13.95 39.28,14.38 L37.36,14.37 L37.37,12.47 C37.6,12.11 37.85,11.74 38.04,11.38 C38.05,11.33 38.06,11.28 38,11.24 C37.7,11.08 37.39,10.89 37.09,10.78 C37,10.75 36.94,10.77 36.89,10.81 L35.63,11.94 C35.49,12.06 35.38,12.2 35.38,12.41 L35.38,15.76 C35.38,16.09 35.53,16.36 35.96,16.36 Z M31.5,20.25 L31.5,0 L51.75,0 L51.75,20.25 Z" fill="none" stroke="currentColor" stroke-width="1.5"/><rect x="0" y="0" width="0" height="0" fill="none" stroke="currentColor"/><path d="M39.74,44.25 L39.74,39.75 L43.5,39.75 L43.5,44.25 Z M24,49.5 L24,48 L35.24,48 L35.24,49.5 Z M24,53.25 L24,51.75 L38.99,51.75 L38.99,53.25 Z M19.49,57.75 L45.75,57.75 L45.75,37.5 L19.49,37.5 Z M17.99,59.25 L17.99,36 L47.25,36 L47.25,59.25 Z M0,54.75 L0,5.25 C0,3.3 1.73,2.25 2.86,2.25 L24.01,2.25 C25.79,2.25 27,3.77 27,5.13 L27,33.75 L15.74,33.75 L15.74,39.75 L5.25,39.75 L5.25,42 L15.74,42 L15.74,46.5 L5.25,46.5 L5.25,48.75 L15.74,48.75 L15.74,54.75 Z M21.75,11.25 L21.75,9 L5.25,9 L5.25,11.25 Z" fill="none" stroke="currentColor" stroke-width="1.5"/></svg>