<svg xmlns="http://www.w3.org/2000/svg" viewBox="0 0 57.16 47.33" width="24" height="24"><path d="M22.66,12 L22.66,10.5 L39.16,10.5 L39.16,12 Z M22.66,15.75 L22.66,14.25 L39.16,14.25 L39.16,15.75 Z M22.66,8.25 L22.66,6.75 L30.91,6.75 L30.91,8.25 Z M11.75,39.83 C11.46,33.01 11.47,26.23 11.75,19.5 L16.67,19.5 L16.67,2.93 C16.67,1.5 17.88,0 19.57,0 L42.19,0 C43.91,0 45.16,1.49 45.16,2.93 L45.16,19.5 L50.81,19.5 C54.55,19.5 57.16,22.57 57.16,25.74 L57.16,39.83 L45.16,39.83 L45.16,44.39 C45.16,45.72 44.03,47.33 42.18,47.33 L19.61,47.33 C18.2,47.33 16.66,46.12 16.66,44.38 L16.66,39.83 Z M1.11,42.11 C0.49,41.76 0.06,41.23 0.01,40.34 C0.32,32.61 0.52,24.82 0,16.63 C0.06,15.94 0.34,15.34 1.02,14.91 C2.31,14.02 6.76,14.05 8.08,14.77 C9.15,15.34 9.3,16.07 9.35,16.89 C8.94,24.59 9.09,32.36 9.33,40.15 C9.29,41.38 8.79,42 7.47,42.39 C5.6,42.92 2.76,42.91 1.11,42.11 Z M18.91,44.99 L42.93,44.99 L42.93,36 L18.91,36 Z M51.94,26.25 C52.91,26.25 53.42,25.39 53.42,24.77 C53.42,23.88 52.71,23.25 51.89,23.25 C51.23,23.25 50.41,23.79 50.41,24.78 C50.43,25.67 51.14,26.25 51.94,26.25 Z M18.91,19.5 L42.93,19.5 L42.93,2.25 L18.91,2.25 Z" fill="none" stroke="currentColor" stroke-width="1.5"/></svg>