<svg xmlns="http://www.w3.org/2000/svg" viewBox="0 0 57.95 59.41" width="24" height="24"><path d="M35.4,44.58 C35.4,49.37 39.35,52.35 43.21,52.35 C47.4,52.35 50.87,48.79 50.87,44.65 C50.87,40.21 47.13,36.89 43.23,36.89 C39.41,36.89 35.4,39.76 35.4,44.58 Z M32.04,42.61 L28.98,41.34 C28.54,41.1 28.35,40.75 28.52,40.23 L29.68,37.45 C29.94,37.03 30.27,36.79 30.79,37 L33.65,38.44 C34.56,37.36 35.56,36.29 36.67,35.36 L35.42,32.29 C35.32,31.93 35.29,31.57 35.81,31.23 L38.68,30.02 C39.23,29.85 39.54,30.09 39.73,30.4 L41.01,33.54 C42.3,33.29 43.58,33.17 45.09,33.61 L46.37,30.43 C46.66,29.98 47.02,29.86 47.45,30.02 L50.31,31.23 C50.78,31.53 50.83,31.88 50.71,32.26 L49.44,35.39 C50.56,36.29 51.59,37.24 52.42,38.32 L55.49,37.07 C56.05,36.91 56.37,37.12 56.58,37.54 L57.78,40.39 C57.86,40.8 57.77,41.16 57.35,41.39 L54.23,42.66 C54.37,43.88 54.36,45.41 54.22,46.76 L57.35,48.03 C57.77,48.29 57.95,48.62 57.82,49.07 L56.69,51.74 C56.47,52.09 56.16,52.26 55.7,52.15 L52.55,50.88 C51.72,52.01 50.68,53.02 49.52,53.89 L50.77,56.96 C50.96,57.45 50.71,57.87 50.41,58.02 L47.39,59.29 C46.98,59.36 46.61,59.32 46.44,58.82 L45.16,55.67 C44.01,56 42.57,56.08 41.1,55.7 L39.83,58.8 C39.64,59.13 39.4,59.41 38.84,59.27 L35.89,58.05 C35.47,57.75 35.28,57.39 35.55,56.88 L36.95,54.09 C35.71,53.15 34.67,52.15 33.86,51.1 L30.85,52.33 C30.37,52.51 29.99,52.39 29.71,51.95 L28.51,49.07 C28.39,48.69 28.48,48.25 28.93,48.03 L32.05,46.67 C31.92,45.32 31.91,43.96 32.04,42.61 Z M25.75,31.41 L28.97,31.41 L28.97,28.2 L25.75,28.2 Z M20.12,37.02 L23.34,37.02 L23.34,33.8 L20.12,33.8 Z M20.12,26.58 L23.34,26.58 L23.34,23.36 L20.12,23.36 Z M9.66,39.45 L12.88,39.45 L12.88,36.23 L9.66,36.23 Z M3.22,39.45 L6.44,39.45 L6.44,36.23 L3.22,36.23 Z M9.66,33.01 L12.88,33.01 L12.88,29.79 L9.66,29.79 Z M3.22,33.01 L6.44,33.01 L6.44,29.79 L3.22,29.79 Z M3.22,26.58 L6.44,26.58 L6.44,23.36 L3.22,23.36 Z M9.66,26.58 L12.88,26.58 L12.88,23.36 L9.66,23.36 Z M9.66,20.13 L12.88,20.13 L12.88,16.91 L9.66,16.91 Z M3.22,20.13 L6.44,20.13 L6.44,16.91 L3.22,16.91 Z M9.66,13.69 L12.88,13.69 L12.88,10.47 L9.66,10.47 Z M3.22,13.69 L6.44,13.69 L6.44,10.47 L3.22,10.47 Z M9.66,7.25 L12.88,7.25 L12.88,4.03 L9.66,4.03 Z M3.22,7.25 L6.44,7.25 L6.44,4.03 L3.22,4.03 Z M0,53.11 L0,0 L16.1,0 L16.1,20.93 L18.51,20.93 L18.51,15.3 L20.93,15.3 L20.93,9.66 L23.34,9.66 L23.34,3.31 L25.76,3.31 L25.76,9.66 L28.17,9.66 L28.17,15.3 L30.58,15.3 L30.58,20.93 L33,20.93 L33,35.43 L31.72,34.89 C29.88,34.14 28.37,35.36 27.91,36.35 L26.59,39.5 C26.02,41.14 26.85,42.71 28.12,43.29 L29.85,44.03 L29.85,45.24 L28.13,45.96 C26.48,46.75 26.13,48.59 26.59,49.78 L28,53.11 Z M38.25,19.51 L38.25,16.51 L51.6,16.51 L47.11,12 L50.85,12 L56.55,18.01 L50.85,24.01 L47.11,24.01 L51.6,19.51 Z M39.6,13.51 L33.83,7.51 L39.6,1.51 L43.35,1.51 L38.85,6.01 L52.5,6.01 L52.5,9.01 L38.85,9.01 L43.34,13.51 Z" fill="none" stroke="currentColor" stroke-width="1.5"/></svg>