<svg xmlns="http://www.w3.org/2000/svg" viewBox="0 0 57.74 59.17" width="24" height="24"><path d="M41.93,53.2 L52.55,39.66 C52.69,39.5 52.77,39.2 52.51,38.94 L50.61,37.36 C50.42,37.23 50.11,37.23 49.97,37.42 L41.93,48.09 L37.76,43.56 C37.61,43.43 37.32,43.36 37.15,43.5 L35.44,45.06 C35.22,45.26 35.26,45.6 35.42,45.79 Z M39.6,13.51 L33.83,7.51 L39.6,1.51 L43.35,1.51 L38.85,6.01 L52.5,6.01 L52.5,9.01 L38.85,9.01 L43.34,13.51 Z M38.25,19.51 L38.25,16.51 L51.6,16.51 L47.11,12 L50.86,12 L56.55,18.01 L50.85,24.01 L47.11,24.01 L51.6,19.51 Z M0,53.11 L0,0 L16.1,0 L16.1,20.93 L18.51,20.93 L18.51,15.3 L20.93,15.3 L20.93,9.66 L23.34,9.66 L23.34,3.31 L25.76,3.31 L25.76,9.66 L28.17,9.66 L28.17,15.3 L30.58,15.3 L30.58,20.93 L33,20.93 L33,33.39 C30.36,35.76 28.72,39.01 28.08,42.03 C27.22,46.25 28.06,49.83 29.74,53.11 Z M3.22,7.25 L6.44,7.25 L6.44,4.03 L3.22,4.03 Z M9.66,7.25 L12.88,7.25 L12.88,4.03 L9.66,4.03 Z M3.22,13.69 L6.44,13.69 L6.44,10.47 L3.22,10.47 Z M9.66,13.69 L12.88,13.69 L12.88,10.47 L9.66,10.47 Z M3.22,20.13 L6.44,20.13 L6.44,16.91 L3.22,16.91 Z M9.66,20.13 L12.88,20.13 L12.88,16.91 L9.66,16.91 Z M9.66,26.58 L12.88,26.58 L12.88,23.36 L9.66,23.36 Z M3.22,26.58 L6.44,26.58 L6.44,23.36 L3.22,23.36 Z M3.22,33.01 L6.44,33.01 L6.44,29.79 L3.22,29.79 Z M9.66,33.01 L12.88,33.01 L12.88,29.79 L9.66,29.79 Z M3.22,39.45 L6.44,39.45 L6.44,36.23 L3.22,36.23 Z M9.66,39.45 L12.88,39.45 L12.88,36.23 L9.66,36.23 Z M20.12,26.58 L23.34,26.58 L23.34,23.36 L20.12,23.36 Z M20.12,37.02 L23.34,37.02 L23.34,33.8 L20.12,33.8 Z M25.75,31.41 L28.97,31.41 L28.97,28.2 L25.75,28.2 Z M30.05,45.25 C30.05,53.84 37.12,59.17 44.03,59.17 C51.53,59.17 57.74,52.79 57.74,45.38 C57.74,37.44 51.05,31.49 44.07,31.49 C37.22,31.49 30.05,36.64 30.05,45.25 Z" fill="none" stroke="currentColor" stroke-width="1.5"/></svg>