<svg xmlns="http://www.w3.org/2000/svg" viewBox="0 0 54.0 52.49" width="24" height="24"><path d="M26.25,5.99 L31.93,0.73 C32.45,0.28 33.05,0.01 33.77,0 L46.57,0 C47.91,0 49.5,1.12 49.5,3.03 L49.5,5.99 Z M0,45 L0,11.17 C0,9.51 1.49,8.25 2.9,8.25 L49.5,8.25 L49.5,25.45 C42.87,20.81 34.5,21.9 29.26,26.69 C24.47,31.14 22.43,38.03 25.28,45 Z M40.72,31.87 C40.93,33.26 41.88,34.51 43.58,34.51 C45.16,34.51 46.24,33.21 46.24,31.9 C46.24,30.19 44.94,29.11 43.53,29.11 C42.83,29.15 42.16,29.38 41.55,29.98 C39.74,29.77 38.03,30.05 36.43,30.84 C34.53,31.82 33.31,33.28 32.62,34.57 C33.37,34.64 33.96,34.9 34.43,35.24 C35.23,33.9 36.17,33.21 37.15,32.64 C38.29,32.07 39.48,31.8 40.72,31.87 Z M46.2,45.07 C47.56,43.85 48.6,42.3 49.02,40.07 C49.36,37.69 48.92,35.46 47.33,33.37 C47.05,34.08 46.6,34.55 46.14,35.01 C46.9,36.26 47.27,37.63 47.15,39.17 C47,40.85 46.29,42.18 45.3,43.34 C44.89,43.03 44.44,42.73 43.55,42.71 C42.53,42.71 40.84,43.43 40.84,45.49 C40.9,47 42.11,48.11 43.55,48.11 C45.39,48.11 46.24,46.43 46.24,45.63 C46.26,45.43 46.23,45.24 46.2,45.07 Z M39.91,47.39 C39.62,46.74 39.44,46.07 39.45,45.37 C37.01,44.99 34.86,43.47 33.9,40.78 C34.42,40.32 34.84,39.76 34.91,38.82 C34.91,36.73 33.34,35.95 32.24,35.95 C30.72,35.95 29.52,37.11 29.52,38.67 C29.52,40.24 30.82,41.32 32.1,41.39 C33.54,45.63 37.39,47.31 39.91,47.39 Z M40.09,52.49 C32.52,52.49 26.26,46.2 26.26,38.75 C26.26,30.58 32.78,24.73 40.12,24.73 C47.79,24.73 54,31.07 54,38.48 C54,46.79 47.35,52.49 40.09,52.49 Z" fill="none" stroke="currentColor" stroke-width="1.5"/></svg>