<svg xmlns="http://www.w3.org/2000/svg" viewBox="0 0 57.0 53.26" width="24" height="24"><path d="M23.26,5.26 L27.44,1.3 C28.13,0.57 28.89,0 29.95,0.02 L40.69,0.02 C42.03,0.02 43.5,1.33 43.5,2.9 L43.5,5.26 Z M26.7,12.76 L9.76,12.76 C6.39,12.76 4.49,15.6 4.49,17.97 L4.49,38.26 L0,38.26 L0,10.39 C0,9.08 1.21,7.52 2.95,7.52 L32.24,7.52 Z M30.01,12.76 L34.71,8.31 C35.2,7.89 35.75,7.54 36.6,7.52 L47.26,7.52 C49.03,7.52 50.25,9.02 50.25,10.43 L50.25,12.76 Z M36.76,20.26 L41.41,15.86 C41.93,15.35 42.57,15.03 43.41,15.02 L54.09,15.02 C55.52,15.01 56.97,16.28 57,17.93 L57,20.26 Z M6.75,45.76 L6.75,17.96 C6.75,16.27 8.26,15.02 9.63,15.02 L38.98,15.02 L33.45,20.26 L16.49,20.26 C13.3,20.26 11.25,22.94 11.25,25.41 L11.25,45.76 Z M13.5,53.26 L13.5,25.55 C13.5,23.66 15.05,22.51 16.48,22.51 L57,22.51 L57,53.26 Z" fill="none" stroke="currentColor" stroke-width="1.5"/></svg>