<svg xmlns="http://www.w3.org/2000/svg" viewBox="0 0 57.75 51.77" width="24" height="24"><path d="M23.26,6.01 L28.48,1.18 C29.14,0.48 29.88,0 30.8,0.02 L43.56,0.02 C45.13,0.02 46.5,1.41 46.5,2.96 L46.5,6.01 Z M30,42.77 L0,42.77 L0,11.25 C0,9.48 1.52,8.27 2.94,8.27 L46.51,8.27 L46.51,24.01 L34.59,24.01 C31.83,24.01 30,26.22 30,28.46 Z M38.32,40.37 L38.32,37.22 L42.82,41.72 C42.51,43.46 43.78,44.42 45.01,44.42 C46.44,44.42 47.55,43.13 47.17,41.65 L51.67,37.15 L51.67,40.3 L53.25,38.72 L53.25,34.52 L48.97,34.52 L47.4,36.1 L50.54,36.1 L46.27,40.37 C45.48,39.71 44.23,39.82 43.57,40.36 L39.31,36.1 L42.45,36.1 L41.02,34.52 L36.75,34.52 L36.75,38.79 Z M34.43,51.77 C33.28,51.77 32.25,50.77 32.25,49.61 L32.25,28.5 C32.25,27.16 33.35,26.26 34.45,26.26 L55.45,26.26 C56.97,26.26 57.75,27.49 57.75,28.42 L57.75,49.59 C57.75,50.74 56.79,51.77 55.54,51.77 Z" fill="none" stroke="currentColor" stroke-width="1.5"/></svg>