<svg xmlns="http://www.w3.org/2000/svg" viewBox="0 0 55.64 49.15" width="24" height="24"><path d="M47.24,4.51 L49.49,4.51 L49.49,2.26 L47.24,2.26 Z M42.74,4.51 L44.99,4.51 L44.99,2.26 L42.74,2.26 Z M38.24,4.51 L40.5,4.51 L40.5,2.26 L38.24,2.26 Z M42.05,40.5 L44.29,38.25 L48.78,38.25 C49.21,38.25 49.5,37.91 49.5,37.55 L49.5,33.03 L51.74,30.76 L51.74,37.64 C51.74,39.08 50.38,40.5 48.9,40.5 Z M32.02,41.77 L29.4,45.97 L29.85,46.43 L34.04,43.81 Z M31.87,40.42 L51.56,20.59 C52.06,20.16 52.8,20.15 53.17,20.47 L55.27,22.57 C55.64,23.03 55.51,23.75 55.18,24.17 L35.4,44.02 L27.42,48.95 C27.1,49.15 26.72,48.78 26.88,48.42 Z M20.24,13.5 L6,13.5 L6,12.01 L20.24,12.01 Z M35.31,33.75 L6,33.75 L6,16.5 L45.75,16.5 L45.75,23.26 L44.24,24.76 L44.24,18 L7.5,18 L7.5,32.25 L36.79,32.25 Z M29.14,40.5 L2.86,40.5 C1.41,40.5 0,39.12 0,37.59 L0,3.03 C0,1.11 1.64,0 2.91,0 L48.74,0 C50.35,0 51.74,1.31 51.74,2.96 L51.74,18.09 C50.71,18.31 50.06,18.87 49.5,19.5 L49.5,7.5 L2.24,7.5 L2.24,37.56 C2.31,38.08 2.59,38.21 2.93,38.25 L30.82,38.25 L30.07,39.02 Z" fill="none" stroke="currentColor" stroke-width="1.5"/></svg>