<svg xmlns="http://www.w3.org/2000/svg" viewBox="0 0 48.75 48.75" width="24" height="24"><path d="M25.56,30.68 C24.9,29.06 24.25,27.19 26.06,25.14 C27.15,23.82 28.65,22.85 29.8,21.51 C31.72,19.15 32.3,17.57 32.06,14.92 C31.74,12.54 30.3,11.07 28.61,10.19 C26.82,9.34 24.75,9.04 22.4,9.33 C20.9,9.55 19.23,9.97 17.1,11.17 L17.1,15.89 C18.5,14.62 20.12,13.35 22.72,13.2 C24.11,13.17 25.6,13.4 26.79,14.53 C27.85,15.55 27.83,17.16 27.32,18.33 C26.72,19.62 25.68,20.52 24.69,21.47 C23.3,22.74 22.1,24 21.41,25.26 C20.54,26.68 20.7,28.32 21.1,30.72 Z M23.52,39.44 C25.13,39.44 26.39,38.18 26.39,36.69 C26.39,34.69 24.67,33.89 23.52,33.89 C22.2,33.89 20.62,34.91 20.62,36.69 C20.62,38.61 22.36,39.44 23.52,39.44 Z M24.27,48.75 C11.9,48.75 0,38.88 0,24.23 C0,12.42 9.48,0 24.46,0 C36.09,0 48.75,9.31 48.75,24.4 C48.75,39.49 36.08,48.75 24.27,48.75 Z" fill="none" stroke="currentColor" stroke-width="1.5"/></svg>