<svg xmlns="http://www.w3.org/2000/svg" viewBox="0 0 50.61 49.97" width="24" height="24"><path d="M4.25,49.97 L4.25,25.97 L2.22,25.97 C0.66,25.91 0,24.28 0.91,23.16 L23.46,1.21 C24.96,0 25.58,0.12 26.9,1.08 L37.25,10.97 L37.25,4.95 C37.25,4.28 37.81,3.47 38.75,3.47 L43.29,3.47 C44.04,3.47 44.75,4.07 44.75,4.99 L44.75,18.48 L49.56,23.14 C50.61,24.37 49.69,25.97 48.24,25.97 L46.25,25.97 L46.25,49.97 L30.5,49.97 L30.5,31.97 L20,31.97 L20,49.97 Z" fill="none" stroke="currentColor" stroke-width="1.5"/></svg>