<svg xmlns="http://www.w3.org/2000/svg" viewBox="0 0 58.45 52.5" width="24" height="24"><path d="M24,32.27 L26.99,32.27 L26.99,29.27 L24,29.27 Z M18.75,37.49 L21.74,37.49 L21.74,34.49 L18.75,34.49 Z M18.75,27.76 L21.74,27.76 L21.74,24.76 L18.75,24.76 Z M9,39.75 L12,39.75 L12,36.75 L9,36.75 Z M3,39.75 L6,39.75 L6,36.75 L3,36.75 Z M9,33.75 L12,33.75 L12,30.75 L9,30.75 Z M3,33.75 L6,33.75 L6,30.75 L3,30.75 Z M3,27.76 L6,27.76 L6,24.76 L3,24.76 Z M9,27.76 L12,27.76 L12,24.76 L9,24.76 Z M9,21.75 L12,21.75 L12,18.75 L9,18.75 Z M3,21.75 L6,21.75 L6,18.75 L3,18.75 Z M9,15.75 L12,15.75 L12,12.75 L9,12.75 Z M3,15.75 L6,15.75 L6,12.75 L3,12.75 Z M9,9.75 L12,9.75 L12,6.75 L9,6.75 Z M3,9.75 L6,9.75 L6,6.75 L3,6.75 Z M30.75,50.25 C35.26,50.3 43.47,50.21 49.82,50.25 C51.61,50.29 53.63,49.04 54.64,47.24 C55.43,45.8 56.29,43.02 54.19,39.98 C53.25,38.86 51.92,37.81 49.9,37.73 L48.75,37.72 C47.4,35.98 46.45,35.1 44.38,34.95 L42.3,34.95 L41.96,32.84 C41.56,30.92 40.61,29.51 39.32,28.44 C36.71,26.45 33.27,26.46 30.75,28.89 Z M36,12 L30.3,6 L36,0 L39.75,0 L35.25,4.5 L48.75,4.5 L48.75,7.5 L35.25,7.5 L39.75,12 Z M34.5,15 L48,15 L43.51,10.5 L47.25,10.5 L52.95,16.5 L47.25,22.5 L43.51,22.5 L47.99,18 L34.5,18 Z M0,52.5 L0,3 L15,3 L15,22.5 L17.25,22.5 L17.25,17.25 L19.5,17.25 L19.5,12 L21.75,12 L21.75,6.08 L24,6.08 L24,12 L26.25,12 L26.25,17.25 L28.5,17.25 L28.5,22.5 L30.75,22.5 L30.75,25.99 C33.01,24.7 35.47,24.33 38.21,25.3 C41.73,26.74 43.61,29.69 44.18,32.71 C46.19,32.71 48.38,33.65 49.79,35.47 C52.17,35.53 54.06,36.44 55.54,38.1 C58.45,41.45 58.03,45.53 56.85,47.83 C55.47,50.62 52.89,52.4 49.89,52.5 Z" fill="none" stroke="currentColor" stroke-width="1.5"/></svg>