<svg xmlns="http://www.w3.org/2000/svg" viewBox="0 0 59.25 38.43" width="24" height="24"><path d="M10.5,9.01 C11.34,9.01 12.02,8.31 12.02,7.53 C12.02,6.63 11.31,6.01 10.51,6.01 C9.78,6.01 9.01,6.61 9.01,7.53 C9.01,8.38 9.74,9.01 10.5,9.01 Z M17.99,9.01 C18.83,9.01 19.5,8.31 19.5,7.53 C19.5,6.63 18.8,6.01 18,6.01 C17.27,6.01 16.5,6.61 16.5,7.53 C16.5,8.38 17.23,9.01 17.99,9.01 Z M25.5,9.01 C26.34,9.01 27.02,8.31 27.02,7.53 C27.02,6.63 26.31,6.01 25.51,6.01 C24.78,6.01 24.01,6.61 24.01,7.53 C24.01,8.38 24.74,9.01 25.5,9.01 Z M32.98,9.01 C33.82,9.01 34.49,8.31 34.49,7.53 C34.49,6.63 33.79,6.01 32.99,6.01 C32.26,6.01 31.49,6.61 31.49,7.53 C31.49,8.38 32.22,9.01 32.98,9.01 Z M51.76,33.78 C51.79,34.21 52.05,34.45 52.44,34.5 L54.06,34.5 C54.45,34.47 54.75,34.21 54.76,33.76 L54.76,32.93 C54.72,32.51 54.44,32.26 54.06,32.25 L52.44,32.25 C52,32.27 51.79,32.56 51.76,32.96 Z M47.24,33.78 C47.28,34.21 47.54,34.45 47.93,34.5 L49.54,34.5 C49.94,34.47 50.23,34.21 50.25,33.76 L50.25,32.93 C50.21,32.51 49.93,32.26 49.54,32.25 L47.93,32.25 C47.49,32.27 47.27,32.56 47.24,32.96 Z M42.76,33.78 C42.79,34.2 43.05,34.45 43.44,34.5 L45.06,34.5 C45.45,34.47 45.74,34.21 45.76,33.75 L45.76,32.93 C45.72,32.51 45.44,32.26 45.06,32.25 L43.44,32.25 C43,32.27 42.78,32.56 42.76,32.95 Z M51.76,30.04 C51.79,30.47 52.05,30.71 52.44,30.76 L54.06,30.76 C54.45,30.74 54.75,30.48 54.76,30.02 L54.76,29.2 C54.72,28.77 54.44,28.52 54.06,28.51 L52.44,28.51 C52,28.54 51.79,28.82 51.76,29.22 Z M47.24,30.04 C47.28,30.47 47.54,30.71 47.93,30.76 L49.54,30.76 C49.94,30.74 50.23,30.48 50.25,30.02 L50.25,29.2 C50.21,28.77 49.93,28.52 49.54,28.51 L47.93,28.51 C47.49,28.54 47.27,28.82 47.24,29.22 Z M42.76,30.04 C42.79,30.46 43.05,30.71 43.44,30.76 L45.06,30.76 C45.45,30.74 45.74,30.47 45.76,30.01 L45.76,29.19 C45.72,28.77 45.44,28.52 45.06,28.51 L43.44,28.51 C43,28.54 42.78,28.82 42.76,29.22 Z M51.76,26.28 C51.79,26.71 52.05,26.95 52.44,27 L54.06,27 C54.45,26.98 54.75,26.72 54.76,26.26 L54.76,25.44 C54.72,25.01 54.44,24.76 54.06,24.75 L52.44,24.75 C52,24.78 51.79,25.06 51.76,25.46 Z M47.24,26.28 C47.28,26.71 47.54,26.95 47.93,27 L49.54,27 C49.94,26.98 50.23,26.72 50.25,26.26 L50.25,25.44 C50.21,25.01 49.93,24.76 49.54,24.75 L47.93,24.75 C47.49,24.78 47.27,25.06 47.24,25.46 Z M51,11.25 L39.67,11.25 C38.77,11.28 37.91,11.53 37.12,12.21 C36.49,11.73 35.57,11.35 33.9,11.25 C33.13,11.26 32.4,11.22 31.5,11.44 C29.53,11.83 28.39,13.08 28.07,15 L0,15 L0,3.38 C0,1.47 2.01,0 3.43,0 L47.55,0 C49.1,0 51,1.47 51,3.37 Z M40.48,9.01 C41.33,9.01 42,8.31 42,7.53 C42,6.63 41.29,6.01 40.5,6.01 C39.77,6.01 39,6.61 39,7.53 C39,8.38 39.73,9.01 40.48,9.01 Z M42.76,26.28 C42.79,26.7 43.05,26.95 43.44,27 L45.06,27 C45.45,26.98 45.74,26.71 45.76,26.25 L45.76,25.43 C45.72,25.01 45.44,24.76 45.06,24.75 L43.44,24.75 C43,24.78 42.78,25.06 42.76,25.46 Z M42,16.5 L42,21.75 L55.5,21.75 L55.5,16.5 Z M38.25,14.95 C38.28,13.85 38.92,13.53 39.67,13.5 L57.76,13.5 C58.74,13.52 59.19,14.02 59.25,14.88 L59.25,36.85 C59.22,37.56 58.87,38.22 57.81,38.25 L39.7,38.25 C38.75,38.22 38.27,37.72 38.25,36.77 Z M30.21,15.74 C30.2,14.46 30.91,13.75 32.12,13.53 C32.98,13.37 34.03,13.4 34.59,13.51 C35.62,13.71 36.53,14.31 36.53,15.58 C36.26,22.65 36.26,29.29 36.46,36.04 C36.51,37.04 35.94,37.94 34.78,38.16 C34.01,38.29 33.25,38.43 32.29,38.23 C31.03,38.03 30.16,37.42 30.19,35.82 C30.39,29.13 30.41,22.43 30.21,15.74 Z M8.25,33.75 L1.8,27.37 L8.25,21 L11.99,21 L7.8,25.5 L21.45,25.5 L17.25,21 L21,21 L27.45,27.37 L21,33.75 L17.25,33.75 L21.45,29.1 L7.8,29.1 L12,33.75 Z" fill="none" stroke="currentColor" stroke-width="1.5"/></svg>