<svg xmlns="http://www.w3.org/2000/svg" viewBox="0 0 46.5 46.5" width="24" height="24"><path d="M35.25,11.25 L39.75,11.25 L39.75,6.75 L35.25,6.75 Z M21,11.25 L25.5,11.25 L25.5,6.75 L21,6.75 Z M6.75,11.25 L11.25,11.25 L11.25,6.75 L6.75,6.75 Z M35.25,25.5 L39.75,25.5 L39.75,21 L35.25,21 Z M21,25.5 L25.5,25.5 L25.5,21 L21,21 Z M6.75,25.5 L11.25,25.5 L11.25,21 L6.75,21 Z M35.25,39.75 L39.75,39.75 L39.75,35.25 L35.25,35.25 Z M21,39.75 L25.5,39.75 L25.5,35.25 L21,35.25 Z M6.75,39.75 L11.25,39.75 L11.25,35.25 L6.75,35.25 Z M0,46.5 L0,0 L46.5,0 L46.5,46.5 Z" fill="none" stroke="currentColor" stroke-width="1.5"/></svg>