<svg xmlns="http://www.w3.org/2000/svg" viewBox="0 0 55.5 49.49" width="24" height="24"><path d="M0,3.76 L0,0 L46.5,0 L46.5,3.75 L25.43,19.47 C24.2,20.27 22.37,20.37 20.98,19.4 Z M0,36.74 L0,6.53 L19.8,21.34 C21.68,22.68 24.83,22.75 26.84,21.23 L46.5,6.53 L46.5,20.25 C39.99,18.25 34.26,20.6 31.19,23.32 C27.54,26.43 25.13,31.33 25.54,36.74 Z M49.5,37.51 L49.5,33.74 L33.75,33.74 L33.75,37.51 Z M27.75,35.66 C27.75,27.66 34.34,21.76 41.48,21.76 C49.38,21.76 55.5,28.03 55.5,35.46 C55.5,43.68 48.87,49.49 41.77,49.49 C34.48,49.49 27.75,43.79 27.75,35.66 Z" fill="none" stroke="currentColor" stroke-width="1.5"/></svg>