<svg xmlns="http://www.w3.org/2000/svg" viewBox="0 0 51.75 57.75" width="24" height="24"><path d="M7.86,36 C9.07,36 9.75,36.93 9.75,37.89 C9.75,38.81 8.97,39.75 7.86,39.75 C6.86,39.75 6.07,38.97 6,37.99 C5.96,36.63 7.1,36.01 7.86,36 Z M7.86,28.5 C8.83,28.5 9.75,29.19 9.75,30.46 C9.75,31.1 9.12,32.24 7.86,32.24 C6.73,32.24 6,31.36 6,30.36 C6,29.31 6.88,28.5 7.86,28.5 Z M7.86,24.74 C6.82,24.74 6,23.85 6,22.94 C6,21.72 7.02,21 7.86,21 C8.95,21 9.75,21.82 9.75,22.94 C9.75,23.64 9.12,24.74 7.86,24.74 Z M12,24 L12,21.75 L30.75,21.75 L30.75,24 Z M24.75,31.49 L12,31.49 L12,29.25 L24.84,29.25 C24.79,29.48 24.76,29.71 24.75,29.94 Z M24.75,39 L12,39 L12,36.75 L24.75,36.75 Z M24.75,50.25 L0,50.25 L0,0 L27.76,0 L39.75,12 L39.75,25.5 L37.5,25.5 L37.5,14.25 L26.25,14.25 L26.25,2.25 L2.25,2.25 L2.25,48 L24.75,48 Z M51.75,54.75 L33,54.75 L33,27.75 L51.75,27.75 Z M51.75,57.75 L29.72,57.75 C27.38,57.75 27.01,56.01 27.01,54.84 L27.01,30.2 C27.01,28.7 28.13,27.75 29.37,27.75 L31.5,27.75 L31.5,54.75 L30.65,54.75 C30.23,54.78 29.82,54.83 29.55,55.19 C29.34,55.48 29.32,55.85 29.41,56.25 L51.75,56.25 Z" fill="none" stroke="currentColor" stroke-width="1.5"/></svg>