<svg xmlns="http://www.w3.org/2000/svg" viewBox="0 0 55.94 56.99" width="24" height="24"><path d="M22.93,24.97 C17.18,24.97 11.62,20.04 11.62,12.56 C11.62,5.77 16.43,0 22.82,0 C28.97,0 34.12,5.62 34.12,12.17 C34.12,20.14 28.64,24.97 22.93,24.97 Z M0,50.17 C0.7,44.28 0.92,37.99 2.66,32.96 C3.21,31.5 4.06,30.29 5.29,29.37 C6.46,28.47 10.39,26.27 11.14,26.05 C11.86,25.78 12.72,25.79 13.28,26.25 C19.1,31.64 27.28,31.02 32.59,26.34 C32.98,25.97 33.8,25.8 34.69,26.11 C36.44,26.76 40.26,29.08 40.6,29.41 C41.57,30.11 42.25,30.99 42.76,31.97 C42.4,32.15 42.05,32.35 41.7,32.62 C40.85,31.98 39.91,31.58 38.96,31.51 L30.77,31.51 C28.71,31.51 26.89,33.24 26.72,35.22 C26.05,35.77 25.2,36.63 25.2,38.32 L25.2,50.17 Z M32.7,41.26 L32.7,39.76 L38.7,39.76 L38.7,41.26 Z M32.7,45.01 L32.7,43.51 L38.7,43.51 L38.7,45.01 Z M32.7,48.75 L32.7,47.26 L38.7,47.26 L38.7,48.75 Z M44.71,41.26 L44.71,39.76 L50.71,39.76 L50.71,41.26 Z M44.71,45.01 L44.71,43.51 L50.71,43.51 L50.71,45.01 Z M44.71,48.75 L44.71,47.26 L50.71,47.26 L50.71,48.75 Z M52.59,35.24 L45.35,35.24 C44.06,35.24 42.45,36.45 42.45,38.41 L42.45,53.99 C43.9,53.4 44.09,53.31 44.98,53.24 L52.95,53.25 L52.95,35.66 C52.95,35.35 52.74,35.24 52.59,35.24 Z M40.17,56.99 C39.76,56.99 39.45,56.69 39.45,56.24 L28.88,56.24 C28.08,56.24 27.45,55.56 27.45,54.89 L27.45,38.15 C27.45,37.46 28.11,36.76 28.95,36.76 L28.95,35.52 C28.95,34.54 29.9,33.76 30.69,33.76 L38.73,33.76 C39.9,33.78 41.09,34.95 41.7,36 C42.62,34.44 43.86,33.77 44.65,33.76 L52.64,33.76 C53.69,33.76 54.45,34.67 54.45,35.56 L54.45,36.76 L54.7,36.77 C55.39,36.9 55.94,37.49 55.94,38.17 L55.94,54.87 C55.94,55.69 55.22,56.24 54.56,56.24 L43.95,56.24 C43.95,56.7 43.66,56.99 43.26,56.99 Z M30.45,53.25 L38.1,53.24 C39.3,53.26 39.7,53.4 40.95,53.99 L40.95,38.08 C40.95,36.98 39.78,35.24 37.91,35.24 L30.8,35.24 C30.54,35.24 30.45,35.47 30.45,35.64 Z" fill="none" stroke="currentColor" stroke-width="1.5"/></svg>