<svg xmlns="http://www.w3.org/2000/svg" viewBox="0 0 61.13 21.05" width="24" height="24"><path d="M33.57,14.88 C34.28,16.48 35.3,17.67 36.5,18.64 C38.5,20.24 40.64,20.96 42.86,21.04 L49.69,21.04 C53.18,20.88 55.72,19.25 57.45,17.22 C59.9,14.46 61.13,9.23 58.41,4.88 C56.68,2.18 53.7,0.11 49.63,0 L42.79,0 C40.76,0 38.14,0.97 36.67,2.2 C35.05,3.52 34.23,4.81 33.64,5.99 L38.74,5.99 C39.69,5.06 40.97,4.27 42.96,4.19 L49.61,4.19 C51.42,4.29 53.12,4.9 54.56,6.84 C56.16,9.23 56.01,12.07 54.46,14.2 C53.32,15.6 51.88,16.69 49.61,16.8 L43.07,16.8 C41.04,16.8 39.55,15.76 38.67,14.88 Z M44.45,12.71 C45.62,12.71 46.53,11.67 46.53,10.54 C46.53,9.24 45.47,8.21 44.42,8.21 L16.31,8.21 C15.37,8.21 14.28,9.26 14.28,10.48 C14.28,11.82 15.37,12.71 16.34,12.71 Z M27.18,15.03 C26.38,16.73 25.17,18.32 23.23,19.52 C21.61,20.47 19.83,21.05 17.69,21.04 L11.17,21.04 C7.72,21.04 3.63,19.03 1.74,14.96 C0.63,12.23 0,9.1 2.36,4.96 C4.31,1.73 7.97,0 10.89,0 L18.16,0 C20.26,0.13 22.24,0.83 24.06,2.21 C25.52,3.36 26.5,4.61 27.17,5.99 L22.09,5.99 C20.99,4.86 19.28,4.17 17.74,4.19 L11.27,4.19 C9.87,4.19 7.65,4.89 6.19,7.01 C4.28,10.06 5.42,12.7 5.96,13.67 C7.34,15.94 9.32,16.68 11.2,16.8 L18.1,16.8 C19.75,16.69 21.02,16.02 22.08,15.03 Z" fill="none" stroke="currentColor" stroke-width="1.5"/></svg>