<svg xmlns="http://www.w3.org/2000/svg" viewBox="0 0 52.49 48.0" width="24" height="24"><path d="M46.51,4.5 L46.51,2.25 L44.26,2.25 L44.26,4.5 Z M42,4.5 L42,2.25 L39.75,2.25 L39.75,4.5 Z M37.5,4.5 L37.5,2.25 L35.25,2.25 L35.25,4.5 Z M12,37.5 L12,7.5 L2.24,7.5 L2.24,36.78 C2.24,37.26 2.64,37.5 2.97,37.5 Z M20.99,39.75 L2.9,39.75 C1.27,39.75 0,38.24 0,36.89 L0,2.91 C0,1.36 1.39,0 2.91,0 L45.74,0 C47.42,0 48.75,1.38 48.75,2.96 L48.75,18.75 L46.5,18.75 L46.5,7.5 L36.75,7.5 L36.75,23.52 L36.15,24.08 L34.5,24.08 L34.5,7.5 L25.49,7.5 L25.49,24.08 C24.8,24.06 24.11,24.07 23.25,24.49 L23.25,7.5 L14.25,7.5 L14.25,37.5 L21,37.5 Z M38.78,24.74 L41.63,22.12 C42.27,21.48 42.91,20.99 43.54,21 L50.73,21 C51.49,21 52.49,21.73 52.49,22.95 L52.49,24.74 Z M23.25,48 L23.25,28.12 C23.25,27.04 24.09,26.25 25.05,26.25 L52.49,26.25 L52.49,48 Z" fill="none" stroke="currentColor" stroke-width="1.5"/></svg>