<svg xmlns="http://www.w3.org/2000/svg" viewBox="0 0 38.25 54.75" width="24" height="24"><path d="M30,25.51 L30,15.08 C30,10.15 25.73,4.48 19.17,4.48 C12.57,4.48 8.25,9.95 8.25,15.19 L8.25,17.99 L3.75,18 L3.75,15.22 C3.75,6.24 11.39,0 18.92,0 C27.91,0 34.5,7.16 34.5,15.35 L34.5,25.51 L35.32,25.51 C36.84,25.51 38.25,26.82 38.25,28.5 L38.25,51.79 C38.25,53.42 36.86,54.75 35.3,54.75 L2.95,54.75 C1.38,54.75 0,53.39 0,51.81 L0,28.42 C0,26.88 1.33,25.51 3.02,25.51 Z" fill="none" stroke="currentColor" stroke-width="1.5"/></svg>