<svg xmlns="http://www.w3.org/2000/svg" viewBox="0 0 79.25 41.21" width="24" height="24"><path d="M68.56,7.73 C68.85,7.58 69.15,7.44 69.46,7.34 L68.8,6.45 C68.53,5.8 68.6,5.24 69.12,4.8 C69.68,4.42 70.33,4.52 70.88,5.17 L74.26,9.44 L71.06,9.44 C70.08,9.46 69.1,9.99 68.56,11.02 Z M70.73,15.22 L73.9,15.22 C75.52,15.22 76.71,13.89 76.74,12.45 C76.74,11.81 76.6,11.15 76.11,10.46 L73.36,7.12 C75.67,6.87 79.25,8.58 79.13,12.55 C79.08,14.33 78.02,16.56 75.54,17.32 L76.21,18.2 C76.52,18.65 76.43,19.45 75.87,19.88 C75.2,20.34 74.55,20.03 74.11,19.49 Z M71.56,17.7 C70.41,17.74 69.71,17.57 68.56,17.02 L68.56,13.73 C68.67,14.01 68.78,14.26 68.9,14.45 Z M58.89,16.73 L63.84,17.02 L63.84,15.08 L60.69,14.99 L60.69,7.16 L58.89,7.16 Z M53.56,21.75 L53.56,2.25 L67.81,0 L67.81,24 Z" fill="none" stroke="currentColor" stroke-width="1.5"/><rect x="0" y="0" width="0" height="0" fill="none" stroke="currentColor"/><path d="M44.9,24.79 C42.32,24.79 40.5,22.57 40.5,20.09 C40.5,17.09 42.6,15.19 44.82,15.19 C47.29,15.19 49.05,17.5 49.05,19.87 C49.05,23.1 46.69,24.79 44.9,24.79 Z M53.63,34.48 L44.9,34.48 L39.23,25.73 C39.62,25.5 40.01,25.26 40.38,25.13 C42.89,27.59 46.82,27.53 49.18,25.11 C49.52,25.19 51.44,26.31 51.59,26.46 C52.29,27.05 52.64,27.68 52.94,29.19 C53.27,30.94 53.44,32.7 53.63,34.45 Z M27.07,15.93 C24.53,15.93 22.73,13.67 22.73,11.24 C22.73,8.09 25.1,6.33 26.86,6.33 C29.56,6.33 31.25,8.58 31.27,11.08 C31.27,14.67 28.6,15.93 27.07,15.93 Z M18.57,22.61 C18.7,21.49 18.85,20.4 19.14,19.4 C19.37,18.71 19.57,18.23 20.16,17.7 C20.41,17.45 22.3,16.37 22.55,16.29 C25.22,18.96 29.05,18.65 31.47,16.28 C31.53,16.28 33.71,17.42 34,17.78 C34.51,18.25 34.79,18.82 34.96,19.43 C35.24,20.43 35.37,21.6 35.52,22.61 Z M8.82,24.78 C6.28,24.78 4.58,22.36 4.58,20.14 C4.58,16.82 6.92,15.19 8.9,15.19 C10.95,15.17 13.19,17.08 13.12,20.11 C13.02,23.02 10.88,24.78 8.82,24.78 Z M8.16,34.48 L0,34.48 C0.25,32.46 0.43,30.33 0.86,28.5 C0.99,27.8 1.31,27.19 1.82,26.64 C2.07,26.37 4.22,25.11 4.42,25.12 C6.6,27.27 10.39,27.87 13.24,25.13 C13.47,25.22 13.91,25.48 14.28,25.67 Z M8.1,41.21 L8.1,38.5 L17.62,24.86 L36,24.86 L44.77,38.5 L44.77,41.21 Z" fill="none" stroke="currentColor" stroke-width="1.5"/></svg>