<svg xmlns="http://www.w3.org/2000/svg" viewBox="0 0 58.02 59.22" width="24" height="24"><path d="M0,50.09 C0.56,43.99 1.2,35.8 2.59,32.84 C3.23,31.24 4.07,30.02 5.78,28.92 L9.83,26.62 C11.1,25.9 12.47,25.55 13.29,26.37 C18.73,30.62 25.43,31.79 32.34,26.38 C32.98,25.77 33.98,25.79 34.83,26.17 C36.14,26.74 37.94,27.85 39.57,28.76 C41.31,29.74 42.4,30.98 43.17,32.97 L25.01,32.97 L25.01,50.09 Z M23.07,24.94 C16.87,24.94 11.73,19.49 11.73,12.33 C11.73,5.76 16.77,0 22.88,0 C29.51,0 34.13,6.15 34.13,12.41 C34.13,19.97 28.43,24.94 23.07,24.94 Z M27.27,59.22 L27.27,35.22 L58.02,35.22 L58.02,59.22 Z M28.77,57.72 L56.52,57.72 L56.52,36.72 L28.77,36.72 Z M33.27,53.22 L33.27,51.72 L50.52,51.72 L50.52,53.22 Z M33.27,48.72 L33.27,47.22 L46.77,47.22 L46.77,48.72 Z M50.52,43.47 L50.52,38.97 L54.27,38.97 L54.27,43.47 Z" fill="none" stroke="currentColor" stroke-width="1.5"/></svg>