<svg xmlns="http://www.w3.org/2000/svg" viewBox="0 0 58.68 56.25" width="24" height="24"><path d="M41.23,56.25 C40.78,56.25 40.49,55.85 40.49,55.52 L40.49,44.41 C40.49,43.94 40.86,43.64 41.27,43.64 L42,43.64 L42,33.04 L41.62,30.39 L41.62,26.98 L43.89,26.98 L43.89,30.38 L43.51,33.04 L43.51,43.64 L44.26,43.64 C44.74,43.64 45.03,44.02 45.03,44.39 L45.03,55.51 C45.03,55.89 44.7,56.25 44.27,56.25 Z M55.53,27.67 C58.08,29.09 58.68,31.62 58.53,33.25 C58.41,35.21 57.01,36.79 55.49,37.58 L55.49,53.66 C55.49,55.16 54.19,56.25 52.83,56.25 C51.68,56.25 50.28,55.37 50.28,53.65 L50.28,37.61 C48.85,36.86 47.72,35.56 47.34,33.55 C46.96,31.5 47.95,28.86 50.25,27.67 L50.25,32.26 L52.89,33.76 L55.53,32.26 Z M52.89,54.76 C53.48,54.76 54.01,54.22 54.01,53.62 C54.01,53.11 53.55,52.51 52.9,52.51 C52.28,52.51 51.76,53.02 51.76,53.62 C51.76,54.23 52.29,54.76 52.89,54.76 Z M39.69,41.63 C38.71,42.22 38.19,43.21 38.19,44.22 L38.21,48.75 L0,48.75 L0,33.75 L3.75,18.07 L5.25,18.07 L5.25,6 L47.25,6 L47.25,18.07 L48.75,18.07 L50.37,24.74 L45,24.75 L45,8.25 L7.5,8.25 L7.5,33.75 L39.69,33.76 Z M33,29.25 L12.75,29.25 L12.75,27 L33,27 Z M28.5,24 L12.75,24 L12.75,21.75 L28.5,21.75 Z M36,18 L36,11.25 L42,11.25 L42,18 Z M9,3.75 L6.75,3.75 L6.75,0 L45.75,0 L45.75,3.75 L43.5,3.75 L43.5,2.25 L9,2.25 Z" fill="none" stroke="currentColor" stroke-width="1.5"/></svg>