<svg xmlns="http://www.w3.org/2000/svg" viewBox="0 0 52.5 48.75" width="24" height="24"><path d="M52.5,48.75 L0,48.75 L0,33.75 L3.75,18.07 L5.25,18.07 L5.25,6 L47.25,6 L47.25,18.07 L48.75,18.07 L52.5,33.74 Z M45,33.75 L45,8.25 L7.5,8.25 L7.5,33.75 Z M33,29.25 L12.75,29.25 L12.75,27 L33,27 Z M28.5,24 L12.75,24 L12.75,21.75 L28.5,21.75 Z M36,18 L36,11.25 L42,11.25 L42,18 Z M9,3.75 L6.75,3.75 L6.75,0 L45.75,0 L45.75,3.75 L43.5,3.75 L43.5,2.25 L9,2.25 Z" fill="none" stroke="currentColor" stroke-width="1.5"/></svg>