<svg xmlns="http://www.w3.org/2000/svg" viewBox="0 0 57.75 48.0" width="24" height="24"><path d="M38.25,15.75 L38.25,7.5 L46.5,7.5 L46.5,15.75 Z M38.25,29.24 L38.25,21 L46.5,21 L46.5,29.24 Z M24.75,15.75 L24.75,7.5 L33,7.5 L33,15.75 Z M24.75,29.24 L24.75,21 L33,21 L33,29.24 Z M11.25,15.75 L11.25,7.5 L19.5,7.5 L19.5,15.75 Z M11.25,29.24 L11.25,21 L19.5,21 L19.5,29.24 Z M3.75,33.75 L54,33.75 L54,3.75 L3.75,3.75 Z M2.88,37.5 C1.58,37.5 0,36.24 0,34.55 L0,3.01 C0,1.4 1.42,0 2.84,0 L54.88,0 C56.4,0 57.75,1.47 57.75,2.93 L57.75,34.52 C57.75,35.88 56.66,37.5 54.77,37.5 L35.48,37.5 C35.16,38.61 34.87,39.73 34.86,40.84 C34.85,42.7 35.93,43.41 37.54,43.83 C39.53,44.28 41.64,44.28 43.74,44.32 C44.61,44.32 45.6,45.06 45.6,46.23 C45.6,47.18 44.72,48 43.93,48 L13.76,48 C12.92,48 12,47.21 12,46.26 C12,45.18 12.77,44.32 13.8,44.32 C16.26,44.26 19.45,44.3 21.29,43.44 C22.12,43.05 22.83,42.43 22.87,41.08 C22.94,39.9 22.59,38.69 22.28,37.5 Z" fill="none" stroke="currentColor" stroke-width="1.5"/></svg>