<svg xmlns="http://www.w3.org/2000/svg" viewBox="0 0 44.92 44.92" width="24" height="24"><path d="M22.38,15.14 C21.08,15.14 19.95,14.12 19.95,12.76 C19.95,11.46 21.04,10.34 22.34,10.34 C23.69,10.34 24.75,11.44 24.75,12.73 C24.75,14.16 23.63,15.14 22.38,15.14 Z M22.43,38.99 L25.73,35.54 L23.4,33.07 L25.88,30.45 L25.88,30.29 L23.18,27.45 L25.36,25.12 L25.35,21.97 C28.42,20.34 30,17.47 30,15.06 C30,10.58 26.79,6.97 22.31,6.97 C18.56,6.97 14.85,10.19 14.85,14.88 C14.85,18.02 17.02,20.76 19.5,21.98 L19.5,35.69 Z M2.83,44.91 C1.35,44.91 0,43.61 0,42.06 L0,2.86 C0,1.19 1.49,0 2.81,0 L41.97,0 C43.81,0 44.92,1.5 44.92,2.91 L44.92,42.03 C44.92,43.55 43.64,44.92 42.04,44.92 Z" fill="none" stroke="currentColor" stroke-width="1.5"/></svg>