<svg xmlns="http://www.w3.org/2000/svg" viewBox="0 0 58.05 50.33" width="24" height="24"><path d="M37.5,4.5 L39.75,4.5 L39.75,2.25 L37.5,2.25 Z M42,4.5 L44.25,4.5 L44.25,2.25 L42,2.25 Z M2.99,40.5 C1.38,40.5 0,39.16 0,37.53 L0,2.99 C0,1.29 1.41,0 3,0 L47.99,0 C49.6,0 51,1.31 51,2.98 L51,30.13 C50.03,30.26 49.33,30.61 48.75,30.98 L48.75,7.5 L2.25,7.5 L2.25,37.48 C2.25,38.1 2.72,38.25 2.96,38.25 L23.65,38.25 C22.56,38.84 21.81,39.55 21.36,40.5 Z M9.75,28.5 L13.5,28.5 L13.5,22.5 L24.75,22.5 L24.75,18 L20.25,18 L20.25,11.25 L30.75,11.25 L30.75,18 L26.25,18 L26.25,22.5 L37.5,22.5 L37.5,25.09 C36.93,25.48 36.41,26.05 36,26.72 L36,24 L26.25,24 L26.25,28.5 L30,28.5 L30,30.2 C28.59,30 27.25,30.34 26,31.25 C25.09,31.95 24.25,33.05 23.84,34.5 L21,34.5 L21,28.5 L24.75,28.5 L24.75,24 L15,24 L15,28.5 L18.75,28.5 L18.75,34.5 L9.75,34.5 Z M22.88,46.57 C22.97,45.48 23.08,44.39 23.25,43.33 C23.36,42.61 23.61,41.25 24.58,40.61 C24.73,40.51 25.5,40.05 25.88,39.85 C26.1,39.73 26.46,39.69 26.73,39.85 C28.21,41.06 30.23,41.39 32.1,39.78 L27.26,46.57 Z M29.24,39.53 C27.78,39.53 26.1,38.21 26.1,36.03 C26.1,34.41 27.31,32.63 29.35,32.63 C31.17,32.71 32.42,34.38 32.4,36.13 C32.4,37.85 31.05,39.53 29.24,39.53 Z M34.73,37.57 C34.85,36.82 34.93,36.03 35.15,35.39 C35.38,34.66 35.82,34.25 36.3,33.98 L37.23,33.45 C37.45,33.34 37.78,33.18 38.06,33.41 C39.46,34.66 41.49,34.86 43.06,33.43 C43.25,33.21 43.56,33.29 43.86,33.43 C44.23,33.6 44.66,33.86 45.07,34.09 C45.64,34.44 45.91,34.97 46.06,35.6 C46.27,36.35 46.32,36.93 46.43,37.57 Z M40.51,33 C39.12,33 37.65,31.68 37.65,29.7 C37.65,27.86 39.05,26.4 40.56,26.4 C42.37,26.4 43.5,28.08 43.5,29.66 C43.5,31.52 42.25,33 40.51,33 Z M27.5,50.33 C27.12,50.33 26.85,49.83 27.01,49.56 L34.12,39.68 C34.47,39.18 34.71,39.08 35.07,39.08 L46.12,39.08 C46.41,39.08 46.64,39.25 46.81,39.45 L55.21,49.5 C55.52,49.87 55.08,50.33 54.79,50.33 Z M54.59,46.57 L48.82,39.75 C48.89,39.75 49,39.78 49.13,39.82 C50.66,41.1 52.7,41.34 54.39,39.87 C54.59,39.67 54.87,39.74 55.07,39.83 L56.42,40.59 C56.99,40.92 57.31,41.42 57.48,42.04 C57.89,43.53 58,45.22 58.05,46.57 Z M51.65,39.52 C50.11,39.47 48.59,38.08 48.6,36 C48.61,34.44 49.81,32.59 51.87,32.62 C53.55,32.7 54.99,34.31 54.89,36.22 C54.84,37.58 53.71,39.59 51.65,39.52 Z M46.5,4.5 L48.75,4.5 L48.75,2.25 L46.5,2.25 Z" fill="none" stroke="currentColor" stroke-width="1.5"/></svg>