<svg xmlns="http://www.w3.org/2000/svg" viewBox="0 0 55.95 53.17" width="24" height="24"><path d="M45.45,11.55 L45.45,6.05 C45.45,4.05 47.17,2.25 49.28,2.25 L51.68,2.25 C53.01,4.64 52.55,7.1 51.57,8.6 C50.44,10.41 48.83,11.19 47.35,11.45 C46.74,11.58 46.16,11.55 45.46,11.55 Z M40.12,47.17 L50.8,33.56 C50.91,33.4 50.93,33.11 50.67,32.88 L48.81,31.34 C48.59,31.2 48.33,31.21 48.19,31.37 L40.12,42.07 L35.97,37.54 C35.83,37.4 35.53,37.31 35.33,37.5 L33.62,39.05 C33.42,39.25 33.49,39.6 33.61,39.76 Z M42.11,53.17 C35.42,53.17 28.19,47.97 28.19,39.22 C28.19,31.3 34.95,25.42 42.21,25.42 C49.86,25.42 55.95,31.81 55.95,39.41 C55.95,47.03 49.63,53.17 42.11,53.17 Z M7.95,34.43 L7.95,6.43 C7.95,3.64 10.41,0 14.71,0 L47.36,0 C47.76,0.01 48.13,0.05 48.44,0.14 C46.06,0.37 43.27,2.54 43.27,5.77 L43.27,23.21 C36.15,22.74 29.25,26.73 26.69,34.43 Z M5.93,48.67 C2.75,48.67 0,45.95 0,42.63 C0,39.23 2.98,36.67 5.81,36.67 L26.16,36.67 C25.84,38.67 25.89,40.67 26.3,42.67 C26.82,45.15 27.79,47.04 28.94,48.67 Z" fill="none" stroke="currentColor" stroke-width="1.5"/></svg>