<svg xmlns="http://www.w3.org/2000/svg" viewBox="0 0 59.25 57.0" width="24" height="24"><path d="M54,31.32 L54,2.25 L11.25,2.25 L11.25,4.5 L9,4.5 L9,0 L56.25,0 L56.25,33.55 Z M49.5,26.85 L49.5,9 L6.75,9 L6.75,11.25 L4.5,11.25 L4.5,6.75 L51.75,6.75 L51.75,29.08 Z M38.25,39.69 L48.75,29.25 L59.25,39.68 L59.25,45.75 L51,37.5 L51,57 L46.5,57 L46.5,37.5 L38.25,45.75 Z M36,25.49 L36,18.75 L42,18.75 L42,25.49 Z M30,34.5 L9,34.5 L9,32.25 L30,32.25 Z M34.5,40.5 L9,40.5 L9,38.25 L34.5,38.25 Z M44.25,50.24 L0,50.24 L0,13.5 L47.25,13.5 L47.25,27.59 L45,29.82 L45,15.75 L2.25,15.75 L2.25,48 L44.25,48 Z" fill="none" stroke="currentColor" stroke-width="1.5"/></svg>