<svg xmlns="http://www.w3.org/2000/svg" viewBox="0 0 59.25 34.5" width="24" height="24"><path d="M49.5,9.74 L49.5,0 L59.24,9.74 Z M32.25,34.5 L32.25,30 L36.98,30 L47.25,19.5 L36.98,8.99 L32.25,9 L32.25,0 L47.25,0 L47.25,12 L59.25,12 L59.25,34.5 Z M17.25,21.75 L17.25,17.25 L35.85,17.25 L30,11.25 L36,11.25 L44.1,19.5 L36,27.75 L30,27.75 L35.85,21.74 Z M0,34.5 L0,0 L18.75,0 L27.75,9 L27.75,15 L25.5,15 L25.5,11.25 L17.25,11.25 L17.25,2.24 L2.25,2.24 L2.25,32.25 L25.5,32.25 L25.5,24 L27.75,24 L27.75,34.5 Z" fill="none" stroke="currentColor" stroke-width="1.5"/></svg>