<svg xmlns="http://www.w3.org/2000/svg" viewBox="0 0 58.88 56.25" width="24" height="24"><path d="M56.63,51 L56.63,30.75 L43.88,30.75 L43.88,51 Z M51.42,54 C51.78,54 52.13,53.7 52.13,53.28 C52.13,52.85 51.89,52.5 51.39,52.5 L49.14,52.5 C48.69,52.5 48.37,52.79 48.37,53.22 C48.37,53.79 48.78,54 49.08,54 Z M43.08,56.25 C42.51,56.25 41.63,55.76 41.63,54.72 L41.63,28.51 C41.63,27.6 42.38,27 43.08,27 L57.35,27 C58.33,27 58.88,27.79 58.88,28.48 L58.88,54.75 C58.88,55.61 58.13,56.25 57.43,56.25 Z M23.07,24.97 C17.02,24.97 11.63,19.92 11.63,12.17 C11.63,6.16 16.19,0 22.85,0 C29.36,0 34.13,5.96 34.13,12.46 C34.13,19.98 28.51,24.97 23.07,24.97 Z M0,50.17 C0.52,44.63 1.22,37.07 2.55,33.24 C3.16,31.51 4.05,30.26 5.49,29.22 C6.42,28.53 9.73,26.7 10.34,26.4 C11.4,25.85 12.5,25.56 13.44,26.4 C19.05,31.37 26.82,31.22 32.51,26.42 C33.17,25.74 34.22,25.92 34.91,26.19 C35.76,26.52 38.09,27.85 39.38,28.62 L39.38,50.17 Z" fill="none" stroke="currentColor" stroke-width="1.5"/></svg>