<svg xmlns="http://www.w3.org/2000/svg" viewBox="0 0 45.17 53.41" width="24" height="24"><path d="M15.36,47.25 L2.92,47.25 C1.39,47.25 0,45.88 0,44.33 L0,2.95 C0,1.41 1.34,0 2.9,0 L23.31,0 C24.85,0 26.25,1.34 26.25,2.95 L26.25,21.75 C25.79,21.75 25.43,21.87 25.09,22.01 L23.25,22.78 L23.25,5.99 L3,5.99 L3,37.49 L15.88,37.49 L17.09,38.02 L17.09,39.22 L15.4,39.95 C15.02,40.11 14.79,40.31 14.59,40.5 L11.25,40.5 C10.76,40.5 10.5,40.83 10.5,41.25 L10.5,42.75 C10.5,43.25 10.87,43.5 11.22,43.5 L13.75,43.5 C13.8,43.69 13.86,43.83 13.91,43.97 L15.11,46.81 C15.19,46.98 15.27,47.13 15.36,47.25 Z M19.29,36.63 L16.23,35.37 C15.79,35.12 15.6,34.77 15.78,34.26 L16.94,31.48 C17.2,31.06 17.53,30.82 18.05,31.03 L20.9,32.47 C21.81,31.39 22.81,30.32 23.91,29.39 L22.67,26.33 C22.57,25.97 22.53,25.61 23.06,25.27 L25.93,24.06 C26.48,23.89 26.79,24.13 26.97,24.44 L28.25,27.58 C29.54,27.32 30.82,27.2 32.32,27.64 L33.61,24.47 C33.89,24.02 34.25,23.9 34.69,24.06 L37.54,25.27 C38.01,25.56 38.06,25.92 37.94,26.29 L36.67,29.43 C37.79,30.32 38.81,31.27 39.65,32.35 L42.71,31.1 C43.27,30.94 43.6,31.15 43.8,31.56 L45,34.41 C45.08,34.83 44.99,35.18 44.57,35.42 L41.45,36.68 C41.6,37.9 41.58,39.43 41.45,40.78 L44.57,42.04 C44.99,42.3 45.17,42.64 45.04,43.08 L43.91,45.75 C43.69,46.1 43.38,46.27 42.92,46.16 L39.78,44.89 C38.95,46.02 37.91,47.03 36.75,47.9 L38,50.97 C38.19,51.46 37.94,51.87 37.64,52.02 L34.62,53.29 C34.21,53.36 33.85,53.33 33.67,52.82 L32.4,49.68 C31.24,50 29.81,50.08 28.34,49.71 L27.08,52.81 C26.88,53.13 26.65,53.41 26.09,53.28 L23.14,52.05 C22.72,51.75 22.53,51.39 22.8,50.89 L24.19,48.1 C22.96,47.16 21.92,46.16 21.11,45.11 L18.11,46.34 C17.63,46.52 17.25,46.4 16.97,45.97 L15.77,43.09 C15.64,42.71 15.74,42.26 16.19,42.04 L19.3,40.69 C19.17,39.34 19.17,37.99 19.29,36.63 Z M22.65,38.6 C22.65,43.39 26.6,46.36 30.45,46.36 C34.64,46.36 38.1,42.8 38.1,38.67 C38.1,34.24 34.37,30.92 30.47,30.92 C26.65,30.92 22.65,33.79 22.65,38.6 Z" fill="none" stroke="currentColor" stroke-width="1.5"/></svg>