<svg xmlns="http://www.w3.org/2000/svg" viewBox="0 0 57.75 57.45" width="24" height="24"><path d="M36,32.65 C36,30.62 41.04,29.18 47.26,29.18 C51.93,29.18 57.75,30.48 57.75,32.62 C57.75,34.85 51.65,36.06 47.42,36.06 C39.76,36.06 36,34.25 36,32.65 Z M36,35.18 C38.72,37.13 43.57,37.59 47.26,37.57 C50.41,37.5 54.99,37.16 57.6,35.25 L57.6,52.64 C57.6,54.23 56.2,55.18 55.02,55.68 C51.08,57.45 42.2,57.18 39.09,55.86 C37.99,55.47 36,54.54 36,52.57 Z M3.75,18.03 L3.75,3.75 L47.25,3.75 L47.25,18.03 L37.28,18.03 C36.96,18.03 36.64,18.16 36.51,18.58 L35.18,22.56 L32.53,12 C32.46,11.71 32.25,11.45 31.79,11.45 C31.37,11.46 31.18,11.66 31.04,12.01 L28.12,18.03 L23.13,18.03 C22.9,18.03 22.58,18.15 22.5,18.44 L20.1,25.72 L16.41,10.87 C16.34,10.6 16.1,10.34 15.69,10.34 C15.34,10.34 15.09,10.55 14.97,10.87 L11.92,18.03 Z M3.75,35.25 L3.75,19.53 L12.38,19.53 C12.73,19.53 12.98,19.18 13.13,18.8 L15.45,13.43 L19.22,28.65 C19.31,28.97 19.6,29.18 19.92,29.18 C20.25,29.18 20.53,28.97 20.63,28.65 L23.7,19.53 L28.59,19.53 C28.83,19.53 29.03,19.36 29.27,18.94 L31.57,14.39 L34.37,25.52 C34.49,25.83 34.7,25.99 35.01,26.03 C35.43,26.03 35.68,25.78 35.75,25.54 L37.8,19.53 L47.25,19.53 L47.25,26.92 C44.48,26.93 40.75,27.09 37.42,28.43 C35.35,29.29 33.75,30.61 33.75,32.6 L33.75,35.25 Z M0,38.99 L0,0 L51,0 L51,27.16 C50.25,27.07 49.5,27 48.75,26.97 L48.75,2.25 L2.25,2.25 L2.25,36.75 L33.75,36.75 L33.75,38.99 Z" fill="none" stroke="currentColor" stroke-width="1.5"/></svg>