<svg xmlns="http://www.w3.org/2000/svg" viewBox="0 0 49.71 59.38" width="24" height="24"><path d="M23.81,42.59 L20.75,41.32 C20.31,41.08 20.12,40.73 20.3,40.21 L21.46,37.44 C21.72,37.01 22.05,36.77 22.57,36.98 L25.43,38.42 C26.34,37.34 27.33,36.27 28.44,35.34 L27.19,32.28 C27.1,31.92 27.06,31.56 27.59,31.21 L30.46,30 C31,29.83 31.32,30.07 31.5,30.39 L32.78,33.53 C34.07,33.27 35.35,33.15 36.86,33.59 L38.14,30.41 C38.43,29.97 38.79,29.85 39.22,30.01 L42.08,31.22 C42.55,31.51 42.6,31.86 42.48,32.24 L41.21,35.38 C42.33,36.27 43.35,37.22 44.19,38.3 L47.26,37.05 C47.81,36.9 48.14,37.11 48.34,37.52 L49.54,40.37 C49.62,40.78 49.53,41.14 49.11,41.37 L45.99,42.64 C46.14,43.86 46.12,45.39 45.99,46.74 L49.11,48.01 C49.53,48.26 49.71,48.6 49.58,49.04 L48.46,51.72 C48.23,52.06 47.92,52.24 47.47,52.12 L44.32,50.85 C43.49,51.99 42.45,52.99 41.29,53.87 L42.53,56.94 C42.73,57.43 42.48,57.84 42.18,58 L39.16,59.26 C38.75,59.33 38.38,59.3 38.21,58.79 L36.93,55.65 C35.78,55.97 34.34,56.05 32.87,55.68 L31.61,58.78 C31.41,59.1 31.17,59.38 30.61,59.25 L27.66,58.02 C27.25,57.73 27.06,57.36 27.32,56.86 L28.72,54.06 C27.48,53.13 26.45,52.13 25.63,51.08 L22.63,52.31 C22.15,52.48 21.77,52.37 21.49,51.93 L20.29,49.05 C20.16,48.67 20.26,48.22 20.7,48 L23.82,46.65 C23.7,45.3 23.69,43.94 23.81,42.59 Z M27.17,44.56 C27.17,49.35 31.13,52.33 34.98,52.33 C39.17,52.33 42.64,48.76 42.64,44.63 C42.64,40.19 38.9,36.87 35,36.87 C31.18,36.87 27.17,39.74 27.17,44.56 Z M21.75,11.06 L21.75,3.01 L46.5,3.01 L46.5,11.06 L41.23,11.06 C40.78,11.09 40.52,11.32 40.36,11.68 L39.82,13.27 L38.38,7.96 C38.29,7.68 37.97,7.36 37.57,7.35 C37.16,7.36 36.81,7.6 36.68,7.93 L35.4,11.06 L32.26,11.06 C31.85,11.06 31.53,11.34 31.35,11.78 L30.08,15.52 L27.9,7.27 C27.73,6.88 27.45,6.62 27,6.6 C26.6,6.61 26.25,6.92 26.09,7.29 L24.82,11.06 Z M21.75,22.5 L21.75,12.98 L25.45,12.98 C25.98,12.99 26.27,12.67 26.43,12.22 L26.93,10.8 L29.09,19.02 C29.26,19.5 29.6,19.73 29.99,19.73 C30.44,19.73 30.71,19.47 30.89,19.07 L32.92,12.98 L36.07,12.98 C36.52,12.96 36.73,12.71 36.88,12.44 L37.35,11.26 L38.85,16.8 C38.99,17.18 39.31,17.48 39.75,17.49 C40.08,17.48 40.48,17.22 40.66,16.78 L41.93,12.98 L46.5,12.98 L46.5,22.5 Z M20.25,24 L48,24 L48,1.5 L20.25,1.5 Z M18.75,25.5 L18.75,0 L49.5,0 L49.5,25.5 Z M0,56.25 L0,6.67 C0,5.27 1.2,3.75 3,3.75 L16.5,3.75 L16.5,10.5 L5.25,10.5 L5.25,12.75 L16.5,12.75 L16.5,27.76 L26.99,27.76 L27,29.11 C25.28,29.76 24.57,31.56 25.2,33.17 L25.87,34.73 L25.05,35.55 L23.4,34.85 C21.68,34.21 20.2,35.18 19.62,36.42 L18.36,39.41 C18.13,40.01 18.09,40.63 18.23,41.25 L5.25,41.25 L5.25,43.5 L20.36,43.5 L21.59,44.03 L21.59,45.23 L19.88,45.96 C18.98,46.4 18.43,47.14 18.23,48 L5.25,48 L5.25,50.25 L18.53,50.25 L19.63,52.86 C20.26,54.24 21.88,54.98 23.43,54.4 L25.04,53.7 L25.87,54.53 L25.14,56.25 Z" fill="none" stroke="currentColor" stroke-width="1.5"/></svg>