<svg xmlns="http://www.w3.org/2000/svg" viewBox="0 0 33.75 56.99" width="24" height="24"><path d="M23.25,6.75 L23.25,5.25 L10.5,5.25 L10.5,6.75 Z M23.25,33 L23.25,31.5 L10.5,31.5 L10.5,33 Z M23.25,36.75 L10.5,36.75 L10.5,38.25 L23.25,38.25 Z M18.75,48.75 L15,48.75 L15,44.25 L18.75,44.25 Z M23.25,55.5 L23.25,51.75 L33.75,51.75 L33.75,55.5 Z M12.01,56.99 L12.01,50.25 L21.75,50.25 L21.75,56.99 Z M10.5,55.5 L0,55.5 L0,51.75 L10.5,51.75 Z M6,42.75 L6,2.3 C6,1.14 7,0 8.28,0 L25.46,0 C26.68,0 27.75,1.05 27.75,2.27 L27.75,42.75 Z" fill="none" stroke="currentColor" stroke-width="1.5"/></svg>