<svg xmlns="http://www.w3.org/2000/svg" viewBox="0 0 55.68 53.34" width="24" height="24"><path d="M26.26,6 L31.68,0.99 C32.34,0.33 33.03,0 33.77,0 L46.58,0 C48.02,0 49.5,1.26 49.5,2.97 L49.5,6 Z M24.84,45 L0,45 L0,11.13 C0,9.64 1.38,8.25 2.92,8.25 L49.5,8.25 L49.5,23.48 C49.33,23.35 49.13,23.23 48.87,23.12 L45.91,21.88 C44.01,21.18 42.45,22.46 42.06,23.58 L41.47,25.13 L40.19,25.13 L39.55,23.51 C38.78,21.9 37.03,21.42 35.75,21.96 L32.54,23.31 C31.26,24.02 30.59,25.61 31.2,27.17 L31.87,28.73 L31.04,29.55 L29.42,28.85 C27.72,28.21 26.2,29.2 25.67,30.32 L24.35,33.44 C23.8,34.92 24.4,36.57 25.84,37.27 L27.59,38.03 L27.59,39.23 L25.9,39.95 C24.28,40.71 23.85,42.45 24.35,43.82 Z M29.8,36.56 L26.74,35.3 C26.3,35.05 26.12,34.7 26.29,34.19 L27.45,31.41 C27.71,30.99 28.04,30.75 28.56,30.96 L31.42,32.39 C32.32,31.32 33.32,30.25 34.43,29.32 L33.18,26.26 C33.08,25.9 33.05,25.54 33.57,25.19 L36.44,23.99 C36.99,23.81 37.3,24.05 37.49,24.37 L38.77,27.5 C40.05,27.25 41.33,27.13 42.83,27.57 L44.12,24.39 C44.4,23.95 44.76,23.83 45.2,23.99 L48.05,25.2 C48.52,25.49 48.57,25.84 48.45,26.22 L47.18,29.35 C48.3,30.25 49.33,31.2 50.16,32.27 L53.23,31.03 C53.78,30.87 54.11,31.08 54.31,31.49 L55.51,34.34 C55.59,34.76 55.5,35.11 55.08,35.35 L51.96,36.61 C52.11,37.83 52.09,39.36 51.96,40.71 L55.08,41.97 C55.5,42.23 55.68,42.57 55.55,43.01 L54.42,45.68 C54.2,46.02 53.89,46.2 53.43,46.08 L50.29,44.82 C49.46,45.95 48.42,46.95 47.26,47.83 L48.51,50.89 C48.7,51.39 48.45,51.8 48.15,51.95 L45.13,53.21 C44.73,53.29 44.36,53.25 44.19,52.75 L42.91,49.6 C41.76,49.93 40.32,50.01 38.85,49.63 L37.59,52.73 C37.39,53.06 37.16,53.34 36.6,53.2 L33.65,51.98 C33.23,51.68 33.04,51.32 33.31,50.81 L34.71,48.02 C33.47,47.09 32.43,46.09 31.62,45.04 L28.62,46.27 C28.14,46.44 27.76,46.33 27.48,45.89 L26.28,43.02 C26.15,42.64 26.25,42.19 26.7,41.97 L29.81,40.62 C29.69,39.27 29.68,37.91 29.8,36.56 Z M33.16,38.52 C33.16,43.32 37.11,46.29 40.96,46.29 C45.15,46.29 48.61,42.73 48.61,38.59 C48.61,34.16 44.88,30.84 40.98,30.84 C37.17,30.84 33.16,33.72 33.16,38.52 Z" fill="none" stroke="currentColor" stroke-width="1.5"/></svg>