<svg xmlns="http://www.w3.org/2000/svg" viewBox="0 0 57.0 38.25" width="24" height="24"><path d="M9.75,34.5 L9.75,24 L30,24 L30,29.25 L40.5,29.25 L40.5,30.75 L51.75,30.75 L51.75,26.25 L40.5,26.25 L40.5,27.75 L31.5,27.75 L31.5,20.25 L45.75,20.25 L45.75,21.75 L54.75,21.75 L54.75,17.25 L45.75,17.25 L45.75,18.75 L30,18.75 L30,22.5 L9.75,22.5 L9.75,16.5 L24,16.5 L24,11.25 L31.5,11.25 L31.5,13.5 L42.75,13.5 L42.75,7.5 L31.5,7.5 L31.5,9.75 L22.5,9.75 L22.5,14.99 L9.75,14.99 L9.75,4.49 L57,4.49 L57,34.5 L37.5,34.5 L37.5,38.25 L36,38.25 L36,34.5 L34.5,34.5 L34.5,38.25 L33,38.25 L33,34.5 L31.5,34.5 L31.5,38.25 L30,38.25 L30,34.5 L28.5,34.5 L28.5,38.25 L27,38.25 L27,34.5 L25.5,34.5 L25.5,38.25 L24,38.25 L24,34.5 L22.5,34.5 L22.5,38.25 L21,38.25 L21,34.5 L19.5,34.5 L19.5,38.25 L18,38.25 L18,34.5 L16.5,34.5 L16.5,38.25 L15,38.25 L15,34.5 Z M5.25,38.25 L5.25,2.25 L0,2.25 L0,0 L7.5,0 L7.5,38.25 Z" fill="none" stroke="currentColor" stroke-width="1.5"/></svg>