<svg xmlns="http://www.w3.org/2000/svg" viewBox="0 0 57.75 47.99" width="24" height="24"><path d="M3.75,33.75 L54,33.75 L54,3.74 L3.75,3.74 Z M13.76,47.99 C12.94,47.99 12,47.34 12,46.22 C12,45.06 12.95,44.32 13.71,44.32 C16.22,44.25 19.14,44.3 21.07,43.54 C22.16,43.08 23.06,42.37 22.85,40.14 C22.72,39.25 22.52,38.36 22.27,37.5 L2.93,37.5 C1.33,37.5 0,36.06 0,34.53 L0,2.85 C0,1.55 1.33,0 2.88,0 L54.82,0 C56.41,0 57.75,1.44 57.75,2.93 L57.75,34.54 C57.75,36.04 56.45,37.5 54.88,37.5 L35.47,37.5 C35.19,38.61 34.85,39.68 34.87,41.06 C34.91,42.26 35.5,43.16 36.98,43.67 C38.58,44.19 41.07,44.32 43.85,44.32 C44.74,44.32 45.6,45.17 45.6,46.21 C45.6,47.19 44.74,47.99 43.86,47.99 Z" fill="none" stroke="currentColor" stroke-width="1.5"/><path d="M18.75,26.16 L18.75,11.4 L31.95,6.75 L39,8.62 L39,28.95 L31.95,30.74 L18.75,26.17 L32.25,27.97 L32.25,10.34 L23.25,12.44 L23.25,24.37 Z" fill="none" stroke="currentColor" stroke-width="1.5"/></svg>