<svg xmlns="http://www.w3.org/2000/svg" viewBox="0 0 44.23 57.67" width="24" height="24"><path d="M32.23,33.68 L41.24,33.68 L41.24,32.17 L32.23,32.17 Z M32.23,50.93 L41.24,50.93 L41.24,49.42 L32.23,49.42 Z M32.23,54.68 L41.24,54.68 L41.24,53.17 L32.23,53.17 Z M29.24,57.67 L29.24,29.95 C29.24,29.11 29.95,28.43 30.72,28.43 L42.65,28.43 C43.51,28.43 44.23,29.01 44.23,30.06 L44.23,57.67 Z M20.13,37.05 L23.35,37.05 L23.35,33.83 L20.13,33.83 Z M20.13,26.59 L23.35,26.59 L23.35,23.37 L20.13,23.37 Z M9.67,39.47 L12.89,39.47 L12.89,36.25 L9.67,36.25 Z M3.22,39.47 L6.44,39.47 L6.44,36.25 L3.22,36.25 Z M9.67,33.03 L12.89,33.03 L12.89,29.81 L9.67,29.81 Z M3.22,33.03 L6.44,33.03 L6.44,29.81 L3.22,29.81 Z M3.22,26.59 L6.44,26.59 L6.44,23.37 L3.22,23.37 Z M9.67,26.59 L12.89,26.59 L12.89,23.37 L9.67,23.37 Z M9.67,20.14 L12.89,20.14 L12.89,16.92 L9.67,16.92 Z M3.22,20.14 L6.44,20.14 L6.44,16.92 L3.22,16.92 Z M9.67,13.7 L12.89,13.7 L12.89,10.48 L9.67,10.48 Z M3.22,13.7 L6.44,13.7 L6.44,10.48 L3.22,10.48 Z M9.67,7.25 L12.89,7.25 L12.89,4.03 L9.67,4.03 Z M3.22,7.25 L6.44,7.25 L6.44,4.03 L3.22,4.03 Z M0,53.16 L0,0 L16.11,0 L16.11,20.94 L18.52,20.94 L18.52,15.31 L20.94,15.31 L20.94,9.67 L23.36,9.67 L23.36,3.31 L25.77,3.31 L25.77,9.67 L28.19,9.67 L28.19,15.31 L30.6,15.31 L30.6,20.94 L33.02,20.94 L33.02,26.17 L30.72,26.17 C28.74,26.17 26.99,27.94 26.99,29.9 L26.99,53.16 Z" fill="none" stroke="currentColor" stroke-width="1.5"/></svg>