<svg xmlns="http://www.w3.org/2000/svg" viewBox="0 0 63.41 54.68" width="24" height="24"><path d="M56.21,12.74 L62.28,7.12 L62.28,6.73 C62.28,6.53 62.14,6.38 61.88,6.38 L52.91,6.38 L52.91,9.08 Z M52.91,17.63 L61.93,17.63 C62.08,17.63 62.26,17.52 62.28,17.29 L62.28,8.63 L56.58,13.95 C56.33,14.19 55.98,14.11 55.82,13.94 L52.91,10.8 Z M45.4,14.85 C44.36,14.85 43.54,13.78 43.54,12.01 C43.54,10.62 44.25,9.16 45.58,9.16 C46.72,9.16 47.39,10.5 47.39,11.97 C47.39,13.25 46.85,14.87 45.4,14.85 Z M45.69,16.51 C47.52,16.48 49.19,14.82 49.18,11.75 C49.18,9.84 48.16,7.41 45.67,7.41 C43.21,7.44 42.07,9.8 41.97,11.72 C41.86,14.9 43.55,16.55 45.69,16.51 Z M38.66,21.74 L38.66,2.25 L52.91,0 L52.91,5.25 L61.9,5.25 C62.81,5.25 63.41,6.02 63.41,6.72 L63.41,17.24 C63.41,18.18 62.63,18.75 61.94,18.75 L52.91,18.75 L52.91,24 Z" fill="none" stroke="currentColor" stroke-width="1.5"/><rect x="0" y="0" width="0" height="0" fill="none" stroke="currentColor"/><path d="M23.07,29.48 C17.02,29.48 11.63,24.43 11.63,16.68 C11.63,10.67 16.19,4.51 22.85,4.51 C29.36,4.51 34.13,10.47 34.13,16.97 C34.13,24.49 28.51,29.48 23.07,29.48 Z M0,54.68 C0.52,49.14 1.22,41.58 2.55,37.75 C3.16,36.02 4.05,34.77 5.49,33.73 C6.42,33.04 9.73,31.21 10.34,30.91 C11.4,30.36 12.5,30.07 13.44,30.91 C19.05,35.88 26.82,35.73 32.51,30.93 C33.17,30.25 34.22,30.43 34.91,30.7 C36,31.11 39.49,33.18 40.15,33.6 C42.08,34.86 43.12,36.55 43.89,39.72 C44.88,44 45.46,49.45 46.13,54.68 Z" fill="none" stroke="currentColor" stroke-width="1.5"/></svg>