<svg xmlns="http://www.w3.org/2000/svg" viewBox="0 0 57.34 51.24" width="24" height="24"><path d="M47.98,23.55 C49.87,24.23 51.25,25.23 52.42,26.36 C51.75,26.73 51.05,27.09 50.23,27.41 C49.41,25.44 48.68,24.4 47.98,23.55 Z M50.83,28.84 C51.83,28.43 52.77,27.96 53.63,27.42 C55.66,29.73 56.12,31.28 56.64,32.75 C55.21,33.73 53.71,34.56 52.05,35.07 C51.87,33.18 51.61,31.22 50.83,28.84 Z M52.08,36.55 C53.98,35.98 55.6,35.23 56.93,34.29 C57.34,36.9 57.16,38.46 56.88,39.84 C54.73,41.45 53.03,42.15 51.37,42.77 C51.6,41.45 51.82,42.06 52.08,36.55 Z M50.89,44.61 C52.41,44.13 53.96,43.62 56.21,42.18 C54.22,46.91 50.79,49.35 47.79,50.38 C48.88,49.16 49.95,47.66 50.89,44.61 Z M49.1,45.07 C47.62,48.97 45.5,50.76 43.67,51.17 L43.67,45.8 C45.56,45.76 47.37,45.52 49.1,45.07 Z M43.66,44.35 L43.66,38.11 C45.51,38.16 47.92,37.74 50.53,37.16 C50.53,39.8 50.15,41.67 49.72,43.46 C47.28,44.12 45.4,44.29 43.66,44.35 Z M43.75,36.55 L43.75,30.21 C45.68,30.11 47.57,29.85 49.4,29.3 C50.03,31.13 50.36,33.29 50.61,35.56 C48.5,36.16 46.19,36.46 43.75,36.55 Z M43.6,22.67 L44.19,22.67 C45.55,23.12 46.52,24.19 47.07,24.89 C47.9,25.94 48.36,26.91 48.79,27.87 C47.4,28.26 45.78,28.62 43.59,28.7 Z M42.16,28.77 C40.43,28.7 38.73,28.42 37.05,27.94 C37.61,26.55 38.34,25.29 39.33,24.23 C39.94,23.62 40.6,23.06 41.56,22.74 L42.16,22.74 Z M42.24,36.55 C39.64,36.45 37.38,36.11 35.38,35.56 C35.51,33.75 35.56,32.02 36.58,29.31 C38.84,30.02 41.45,30.22 42.25,30.2 Z M42.16,38.04 L42.17,44.29 C40.18,44.35 38.19,44 36.2,43.49 C35.58,41.27 35.31,39.14 35.32,37.09 C37.56,37.71 39.85,38 42.16,38.04 Z M42.16,45.89 L42.16,51.24 C41.09,51.01 40.21,50.42 39.42,49.64 C38.18,48.37 37.35,46.83 36.72,45.29 C38.53,45.65 40.34,45.92 42.16,45.89 Z M34.98,44.73 C36,47.85 37.08,49.16 38.16,50.42 C33.42,48.63 31.1,45.37 29.81,42.59 C31.5,43.47 33.19,44.35 34.98,44.73 Z M29.03,40.3 C28.56,38.59 28.43,36.63 28.83,34.29 C30.2,35.13 31.74,35.94 33.78,36.62 C33.77,38.91 34,41.02 34.47,42.94 C32.97,42.52 31.26,41.78 29.03,40.3 Z M29.27,32.76 C29.89,30.67 30.94,28.92 32.3,27.42 C33.28,28.08 34.17,28.43 35.08,28.84 C34.32,30.9 33.99,33.19 33.87,35.1 C32.42,34.58 30.97,34.04 29.27,32.76 Z M33.34,26.29 C34.89,24.98 36.39,24.11 37.87,23.56 C37.12,24.45 36.34,25.58 35.54,27.34 C34.71,26.99 33.96,26.64 33.34,26.29 Z M27.21,42.26 L15.84,42.26 C14.32,42.26 12.85,41.02 12.85,39.26 L12.85,3.21 C12.85,1.59 14.3,0.26 15.75,0.26 L45.93,0.26 C47.41,0.26 48.85,1.6 48.85,3.18 L48.85,21.65 C46.6,20.74 43.74,20.25 40.61,20.67 L40.61,20.47 C40.6,20.15 40.37,19.76 39.88,19.76 L36.07,19.76 C35.62,19.76 35.36,20.13 35.36,20.48 L35.36,22.08 C35.37,22.15 35.38,22.22 35.41,22.29 C33.83,23.06 32.5,24.11 31.54,25.02 L28.57,25.02 C28.12,25.02 27.86,25.37 27.86,25.73 L27.86,27.3 C27.86,27.73 28.19,28.01 28.57,28.01 L29,28.01 C26.22,32.34 25.64,37.8 27.21,42.26 Z M42.11,14.51 C42.52,14.51 42.85,14.24 42.85,13.76 L42.85,5.49 C42.85,5.15 42.61,4.76 42.15,4.76 L19.58,4.76 C19.32,4.76 18.85,4.92 18.85,5.52 L18.85,13.8 C18.85,14.26 19.22,14.51 19.58,14.51 Z M2.33,41.85 C1.07,41.51 0,40.53 0.01,38.54 C0.29,27.09 0.63,15.65 0.01,3.95 C0.05,2.62 0.4,1.43 2.08,0.76 C3.6,0.11 7.22,0 8.86,0.89 C10.1,1.5 10.66,2.66 10.64,4.24 C10.29,15.98 10.28,27.59 10.59,39.08 C10.45,40.81 9.35,41.77 7.43,42.04 C5.64,42.4 3.89,42.29 2.33,41.85 Z M32.38,22.76 C32.74,22.76 33.11,22.51 33.11,22.04 L33.11,20.47 C33.11,20.15 32.87,19.76 32.38,19.76 L28.57,19.76 C28.12,19.76 27.86,20.12 27.86,20.48 L27.86,22.05 C27.86,22.48 28.19,22.76 28.57,22.76 Z M24.88,22.76 C25.24,22.76 25.6,22.51 25.6,22.04 L25.6,20.47 C25.6,20.15 25.36,19.76 24.88,19.76 L21.07,19.76 C20.62,19.76 20.36,20.12 20.36,20.48 L20.36,22.05 C20.36,22.48 20.69,22.76 21.07,22.76 Z M24.88,28.01 C25.24,28.01 25.6,27.76 25.6,27.29 L25.6,25.73 C25.6,25.4 25.36,25.02 24.88,25.02 L21.07,25.02 C20.62,25.02 20.36,25.37 20.36,25.73 L20.36,27.3 C20.36,27.73 20.69,28.01 21.07,28.01 Z M24.88,33.27 C25.24,33.27 25.6,33.01 25.6,32.54 L25.6,30.98 C25.6,30.65 25.36,30.27 24.88,30.27 L21.07,30.27 C20.62,30.27 20.36,30.62 20.36,30.98 L20.36,32.55 C20.36,32.99 20.69,33.27 21.07,33.27 Z" fill="none" stroke="currentColor" stroke-width="1.5"/></svg>