<svg xmlns="http://www.w3.org/2000/svg" viewBox="0 0 47.65 40.18" width="24" height="24"><path d="M30.1,19.18 C30.58,19.18 30.84,18.81 30.84,18.43 L30.84,16.15 C30.84,15.78 30.56,15.43 30.11,15.43 L27.8,15.43 C27.47,15.43 27.08,15.67 27.08,16.19 L27.08,18.45 C27.08,18.87 27.39,19.18 27.81,19.18 Z M24.85,19.18 C25.33,19.18 25.59,18.81 25.59,18.43 L25.59,16.15 C25.59,15.78 25.31,15.43 24.87,15.43 L22.55,15.43 C22.22,15.43 21.83,15.67 21.83,16.19 L21.83,18.45 C21.83,18.87 22.14,19.18 22.56,19.18 Z M19.6,19.18 C20.08,19.18 20.34,18.81 20.34,18.43 L20.34,16.15 C20.34,15.78 20.06,15.43 19.62,15.43 L17.3,15.43 C16.97,15.43 16.58,15.67 16.58,16.19 L16.58,18.45 C16.58,18.87 16.89,19.18 17.31,19.18 Z M30.1,24.44 C30.58,24.44 30.84,24.07 30.84,23.68 L30.84,21.41 C30.84,21.03 30.56,20.69 30.11,20.69 L27.8,20.69 C27.47,20.69 27.08,20.92 27.08,21.44 L27.08,23.7 C27.08,24.13 27.39,24.44 27.81,24.44 Z M24.85,24.44 C25.33,24.44 25.59,24.07 25.59,23.68 L25.59,21.41 C25.59,21.03 25.31,20.69 24.87,20.69 L22.55,20.69 C22.22,20.69 21.83,20.92 21.83,21.44 L21.83,23.7 C21.83,24.13 22.14,24.44 22.56,24.44 Z M19.6,24.44 C20.08,24.44 20.34,24.07 20.34,23.68 L20.34,21.41 C20.34,21.03 20.06,20.69 19.62,20.69 L17.3,20.69 C16.97,20.69 16.58,20.92 16.58,21.44 L16.58,23.7 C16.58,24.13 16.89,24.44 17.31,24.44 Z M30.1,29.69 C30.58,29.69 30.84,29.32 30.84,28.94 L30.84,26.66 C30.84,26.29 30.56,25.94 30.11,25.94 L27.8,25.94 C27.47,25.94 27.08,26.18 27.08,26.7 L27.08,28.96 C27.08,29.38 27.39,29.69 27.81,29.69 Z M24.85,29.69 C25.33,29.69 25.59,29.32 25.59,28.94 L25.59,26.66 C25.59,26.29 25.31,25.94 24.87,25.94 L22.55,25.94 C22.22,25.94 21.83,26.18 21.83,26.7 L21.83,28.96 C21.83,29.38 22.14,29.69 22.56,29.69 Z M19.6,29.69 C20.08,29.69 20.34,29.32 20.34,28.94 L20.34,26.66 C20.34,26.29 20.06,25.94 19.62,25.94 L17.3,25.94 C16.97,25.94 16.58,26.18 16.58,26.7 L16.58,28.96 C16.58,29.38 16.89,29.69 17.31,29.69 Z M9.7,40.18 C7.43,40.18 5.41,38.61 5.41,36.55 L5.42,31.94 L9.44,18.02 C11.7,17.76 13.29,16.32 13.29,14.52 L13.29,11.27 C13.29,9.79 14.56,8.69 15.75,8.69 L32.01,8.69 C33.29,8.69 34.52,9.9 34.52,11.27 L34.52,14.51 C34.52,16.62 36.28,17.7 38.03,18.03 L42.08,31.95 L42.08,36.51 C42.08,38.49 40.23,40.18 37.62,40.18 Z M44.3,16.48 C46.48,16.48 47.65,15.09 47.65,13.86 L47.64,12.95 C47.57,10.59 46.66,8.56 45.18,6.74 C42.72,3.78 38.61,1.8 33.36,1.19 C26.05,0 15.11,0.46 9.82,2.11 C6.59,3.1 3.21,5.15 1.48,8.12 C0.47,9.84 0,11.74 0.02,13.82 C0.01,15.43 1.79,16.37 3.18,16.48 L8.54,16.63 C9.22,16.63 11.76,16.37 11.79,14.4 L11.79,11.27 C11.79,9.4 13.33,7.19 15.78,7.19 L32.05,7.19 C34.18,7.19 36.01,9.14 36.01,11.21 L36.02,14.6 C36.02,15.92 37.9,16.64 39.17,16.64 Z" fill="none" stroke="currentColor" stroke-width="1.5"/></svg>