<svg xmlns="http://www.w3.org/2000/svg" viewBox="0 0 56.25 48.75" width="24" height="24"><path d="M32.25,6 L43.5,6 L43.5,4.5 L32.25,4.5 Z M29.25,11.25 L29.25,1.55 C29.25,0.73 29.87,0 30.87,0 L44.86,0 C46.11,0 46.5,0.98 46.5,1.57 L46.5,11.25 L40.43,11.25 C39.34,11.32 38.52,11.74 37.88,12.37 C37.3,11.8 36.39,11.29 35.25,11.25 Z M12.75,6 L24,6 L24,4.5 L12.75,4.5 Z M9.75,11.25 L9.75,1.55 C9.75,0.73 10.37,0 11.37,0 L25.36,0 C26.61,0 27,0.98 27,1.57 L27,11.25 L20.93,11.25 C19.84,11.32 19.02,11.74 18.38,12.38 C17.8,11.81 16.89,11.29 15.75,11.25 Z M42,19.5 L53.25,19.5 L53.25,18 L42,18 Z M42,40.5 L53.25,40.5 L53.25,39 L42,39 Z M42,45 L53.25,45 L53.25,43.5 L42,43.5 Z M39,48.75 L39,15 C39,14.2 39.69,13.51 40.52,13.5 L54.73,13.5 C55.52,13.5 56.25,14.14 56.25,15.08 L56.25,48.75 Z M22.5,19.5 L33.75,19.5 L33.75,18 L22.5,18 Z M22.5,40.5 L33.75,40.5 L33.75,39 L22.5,39 Z M22.5,45 L33.75,45 L33.75,43.5 L22.5,43.5 Z M19.5,48.75 L19.5,15 C19.5,14.2 20.19,13.51 21.02,13.5 L35.23,13.5 C36.02,13.5 36.75,14.14 36.75,15.08 L36.75,48.75 Z M3,19.5 L14.25,19.5 L14.25,18 L3,18 Z M3,40.51 L14.25,40.51 L14.25,39.01 L3,39.01 Z M3,45 L14.25,45 L14.25,43.5 L3,43.5 Z M0,48.75 L0,15 C0,14.21 0.69,13.51 1.52,13.5 L15.73,13.5 C16.52,13.5 17.25,14.14 17.25,15.08 L17.25,48.75 Z" fill="none" stroke="currentColor" stroke-width="1.5"/></svg>