<svg xmlns="http://www.w3.org/2000/svg" viewBox="0 0 58.45 52.59" width="24" height="24"><path d="M45.89,16.22 C45.5,15.09 45.39,13.71 46.01,12.18 C46.42,11.29 46.89,10.84 47.43,10.34 C48.3,9.61 49.16,8.88 49.64,8.16 C50.03,7.5 50.48,6.61 49.95,5.42 C49.36,4.31 48.33,4.03 47.08,4.17 C45.27,4.39 43.8,5.3 42.82,6.17 L42.82,1.52 C44.19,0.73 45.92,0.22 47.75,0.09 C49.43,0 51.37,0.15 52.91,1.19 C54.66,2.29 55.48,4.75 55,6.92 C54.61,8.67 53.63,9.93 52.37,10.95 C51.58,11.61 50.78,12.26 50.21,13.03 C49.43,14.07 49.19,15.12 49.93,16.29 C48.61,16.21 47.25,16.21 45.89,16.22 Z M48.06,23.05 C46.94,23.05 45.29,22.21 45.29,20.5 C45.29,18.82 46.85,17.98 48.03,17.94 C49.69,17.94 50.99,19 50.99,20.5 C50.99,21.74 49.98,23.05 48.06,23.05 Z M0,52.59 L0,3.09 L15,3.09 L15,22.59 L17.25,22.59 L17.25,17.34 L19.5,17.34 L19.5,12.09 L21.75,12.09 L21.75,6.17 L24,6.17 L24,12.09 L26.25,12.09 L26.25,17.34 L28.5,17.34 L28.5,22.59 L30.75,22.59 L30.75,26.08 C33.01,24.79 35.47,24.42 38.21,25.39 C41.73,26.83 43.61,29.78 44.18,32.8 C46.19,32.8 48.38,33.74 49.79,35.56 C52.17,35.62 54.06,36.53 55.54,38.19 C58.45,41.54 58.03,45.62 56.85,47.92 C55.47,50.71 52.89,52.49 49.89,52.59 Z M30.75,50.35 C35.26,50.39 43.47,50.3 49.82,50.35 C51.61,50.38 53.63,49.13 54.64,47.33 C55.43,45.89 56.29,43.11 54.19,40.07 C53.25,38.95 51.92,37.9 49.9,37.82 L48.75,37.81 C47.4,36.07 46.45,35.19 44.38,35.04 L42.3,35.04 L41.96,32.93 C41.56,31.01 40.61,29.6 39.32,28.53 C36.71,26.54 33.27,26.55 30.75,28.99 Z M3,9.84 L6,9.84 L6,6.84 L3,6.84 Z M9,9.84 L12,9.84 L12,6.84 L9,6.84 Z M3,15.84 L6,15.84 L6,12.84 L3,12.84 Z M9,15.84 L12,15.84 L12,12.84 L9,12.84 Z M3,21.84 L6,21.84 L6,18.84 L3,18.84 Z M9,21.84 L12,21.84 L12,18.84 L9,18.84 Z M9,27.85 L12,27.85 L12,24.85 L9,24.85 Z M3,27.85 L6,27.85 L6,24.85 L3,24.85 Z M3,33.84 L6,33.84 L6,30.84 L3,30.84 Z M9,33.84 L12,33.84 L12,30.84 L9,30.84 Z M3,39.84 L6,39.84 L6,36.84 L3,36.84 Z M9,39.84 L12,39.84 L12,36.84 L9,36.84 Z M18.75,27.85 L21.74,27.85 L21.74,24.85 L18.75,24.85 Z M18.75,37.58 L21.74,37.58 L21.74,34.58 L18.75,34.58 Z M24,32.36 L26.99,32.36 L26.99,29.36 L24,29.36 Z" fill="none" stroke="currentColor" stroke-width="1.5"/></svg>