<svg xmlns="http://www.w3.org/2000/svg" viewBox="0 0 56.25 47.25" width="24" height="24"><path d="M21.75,38.24 L21.75,36.74 L35.25,36.74 L35.25,38.24 Z M0,38.25 L0,24.27 C0,20.82 2.97,18 6.27,18 L15,18 L15,2.99 C15,1.14 16.6,0 17.91,0 L39.06,0 C40.73,0 42,1.45 42,2.99 L42,18 L50.16,18 C53.4,18 56.25,20.91 56.25,24.16 L56.25,38.25 L42,38.25 L42,44.28 C42,45.9 40.58,47.25 39.14,47.25 L17.94,47.25 C16.52,47.25 15,46.03 15,44.33 L15,38.25 Z M5.64,25.5 C6.79,25.5 7.5,24.53 7.5,23.64 C7.5,22.49 6.62,21.75 5.6,21.75 C4.85,21.75 3.75,22.29 3.75,23.69 C3.75,24.59 4.51,25.5 5.64,25.5 Z M17.25,45 L39.75,45 L39.75,34.5 L17.25,34.5 Z M21.75,41.99 L21.75,40.49 L35.25,40.49 L35.25,41.99 Z M17.25,18 L39.75,18 L39.75,2.25 L17.25,2.25 Z" fill="none" stroke="currentColor" stroke-width="1.5"/></svg>