<svg xmlns="http://www.w3.org/2000/svg" viewBox="0 0 59.28 51.0" width="24" height="24"><path d="M38.77,21.52 C36.14,21.52 33.63,19.35 33.63,16.37 C33.63,13.17 36.28,11.17 38.75,11.17 C41.43,11.17 43.97,13.23 43.97,16.4 C43.97,19.2 41.66,21.52 38.77,21.52 Z M15.2,21.52 C12.08,21.52 10,18.9 10,16.43 C10,13.26 12.54,11.18 15.14,11.18 C18.24,11.18 20.34,13.74 20.34,16.27 C20.34,19.45 17.81,21.52 15.2,21.52 Z M2.69,33.67 C1.35,33.67 0.03,32.57 0.03,30.99 L0.03,2.66 C0,1.29 1.21,0 2.66,0 L51.37,0 C52.61,0 53.95,0.95 53.95,2.63 L53.95,20.87 C51.89,19.72 49.7,19.28 47.36,19.58 C47.78,18.54 48.03,17.18 47.95,15.78 C47.95,12.04 44.46,7.19 38.67,7.19 C33.93,7.19 29.41,11.32 29.68,16.8 C29.75,18.05 30.05,19.19 30.58,20.3 C30.99,21.06 30.54,22.18 29.53,22.19 L24.49,22.19 C23.49,22.19 22.99,21.24 23.36,20.38 C23.96,19.16 24.28,17.86 24.3,16.53 C24.3,10.84 19.97,7.19 15.08,7.19 C9.28,7.19 5.84,12.25 6.01,16.52 C6.01,21.84 10.9,25.5 15.32,25.5 L38.68,25.5 C38.93,25.5 39.12,25.48 39.32,25.46 C38.62,26.87 38.28,28.43 38.28,29.99 L38.28,32.54 C37.75,32.79 37.23,33.15 36.83,33.67 Z M54.03,34.5 L54.03,29.9 C54.03,27.04 51.57,24.75 48.89,24.75 C45.55,24.75 43.53,27.36 43.53,29.86 L43.53,34.5 Z M39.71,51 C39,51 38.28,50.31 38.28,49.56 L38.28,35.99 C38.28,35.05 39.12,34.5 39.69,34.5 L40.53,34.5 L40.53,29.82 C40.53,25.49 44.29,21.74 48.61,21.74 C53.85,21.74 57.02,25.88 57.02,29.82 L57.02,34.5 L57.79,34.5 C58.53,34.5 59.28,35.09 59.28,36.02 L59.28,49.48 C59.28,50.49 58.42,51 57.83,51 Z" fill="none" stroke="currentColor" stroke-width="1.5"/></svg>