<svg xmlns="http://www.w3.org/2000/svg" viewBox="0 0 102.47 99.17" width="24" height="24"><path d="M49.29,78.24 L14.19,78.24 L50.89,27.54 L33.19,45.24 L28.29,44.34 L54.49,74.54 L54.49,75.14 L51.69,76.24 Z M54.69,2.34 L98.09,0.04 L101.09,32.34 L88.69,34.84 L77.69,48.34 L77.99,34.84 L57.69,34.84 Z M65.79,16.84 Z M68.09,16.14 L74.59,17.04 L69.59,17.74 Z M87.19,23.14 L85.79,11.14 L83.39,11.14 Z M58.19,77.64 L52.39,68.24 L54.29,61.64 L61.49,63.34 L63.89,52.54 L69.89,49.04 L73.59,55.04 L82.79,49.74 L89.79,51.04 L88.09,58.34 L98.49,61.04 L102.29,66.64 L96.19,70.64 L101.79,79.84 L100.39,86.24 L93.39,84.54 L90.29,95.14 L84.69,99.14 L80.69,93.04 L71.59,98.14 L64.69,97.04 L66.49,90.24 L56.19,87.14 L52.29,81.84 Z M77.79,87.34 Z" fill="none" stroke="currentColor" stroke-width="1.5"/></svg>