<svg xmlns="http://www.w3.org/2000/svg" viewBox="0 0 57.0 47.99" width="24" height="24"><path d="M39.76,4.49 L39.76,2.24 L37.51,2.24 L37.51,4.49 Z M44.25,4.49 L44.25,2.24 L42,2.24 L42,4.49 Z M21,34.49 L21,28.49 L24.75,28.49 L24.75,23.99 L15,23.99 L15,28.49 L18.75,28.49 L18.75,34.49 L9.75,34.49 L9.75,28.49 L13.5,28.49 L13.5,22.49 L24.75,22.49 L24.75,17.98 L20.26,17.98 L20.26,11.24 L30.75,11.23 L30.75,17.98 L26.25,17.98 L26.25,22.49 L37.5,22.49 L37.5,22.95 C36.19,23.29 35.49,23.59 34.67,23.99 L26.25,23.99 L26.25,28.49 L29.46,28.49 C28.35,30.12 27.44,32.15 27.13,34.49 Z M48.75,4.49 L48.75,2.24 L46.5,2.24 L46.5,4.49 Z M50.18,26.15 C49.86,25.87 49.25,25.36 48.75,25.04 L48.75,7.49 L2.25,7.49 L2.25,37.51 C2.25,38 2.64,38.24 2.97,38.24 L27.13,38.24 C27.23,39.06 27.41,39.79 27.63,40.49 L2.89,40.49 C1.34,40.49 0,39.05 0,37.6 L0,3 C0,1.01 1.75,0 2.85,0 L47.93,0 C49.66,0 51,1.3 51,3.05 L51,25.34 Z M57,38.24 L52.5,33.75 L52.5,36.6 C52.5,42.69 47.2,47.99 41.06,47.99 C34.49,47.99 29.25,42.92 29.25,36.46 C29.25,27.87 36.61,24.79 40.52,24.79 C44.17,24.75 46.77,26.14 48.6,27.74 L46.5,29.84 C45.18,28.77 43.5,27.74 40.79,27.74 C36.52,27.74 32.25,31.34 32.25,36.24 C32.25,41.37 36.34,44.96 40.86,44.96 C45.97,44.93 49.5,40.72 49.5,36.63 L49.5,33.74 L45,38.24 L45,34.49 L51,28.5 L57,34.49 Z" fill="none" stroke="currentColor" stroke-width="1.5"/></svg>