<svg xmlns="http://www.w3.org/2000/svg" viewBox="0 0 59.43 56.99" width="24" height="24"><path d="M6.01,50.24 L6.01,45.74 L25.36,45.74 L18.77,38.99 L24.01,38.99 L33.61,47.99 L24.76,56.99 L18.76,56.99 L25.36,50.24 Z M9,3.75 L6.75,3.75 L6.75,0 L45.75,0 L45.75,3.74 L43.5,3.74 L43.5,2.25 L9,2.25 Z M36,17.99 L35.99,11.25 L42,11.25 L42,17.99 Z M12.75,23.99 L12.75,21.75 L28.49,21.75 L28.49,23.99 Z M12.75,29.24 L12.75,27 L33,27 L33,29.24 Z M0,48.74 L0,33.75 L3.76,18.08 L5.25,18.08 L5.25,6 L47.25,6 L47.25,18.08 L48.75,18.08 L50.59,25.71 C49.17,25.17 47.24,24.76 45.01,24.73 L45.01,8.24 L7.5,8.24 L7.5,33.75 L30.27,33.75 C29.56,35.27 28.77,37.2 28.57,39.8 L25.51,36.73 L16.5,36.73 L16.5,39.75 L19.89,43.49 L3.76,43.49 L3.76,48.74 Z M35.56,30.61 C37.09,29.32 38.59,28.44 40.06,27.9 C39.31,28.78 38.54,29.91 37.74,31.66 C36.92,31.31 36.18,30.96 35.56,30.61 Z M31.51,37.05 C32.13,34.97 33.17,33.23 34.52,31.74 C35.49,32.4 36.38,32.74 37.28,33.15 C36.53,35.2 36.2,37.48 36.09,39.37 C34.64,38.86 33.2,38.32 31.51,37.05 Z M30.86,42.1 C30.81,40.86 30.82,39.65 31.07,38.57 C32.43,39.41 33.97,40.21 35.99,40.89 C35.99,43.17 36.21,45.27 36.68,47.17 L35.54,46.77 Z M37.2,48.98 C38.23,52.03 39.27,53.4 40.33,54.58 C38.03,53.73 35.98,52.35 34.33,50.42 L36.12,48.64 Z M44.33,50.1 L44.33,55.43 C43.27,55.2 42.39,54.62 41.61,53.84 C40.37,52.57 39.54,51.04 38.92,49.51 C40.72,49.87 42.52,50.14 44.33,50.1 Z M44.33,42.31 L44.34,48.52 C42.36,48.58 40.38,48.23 38.4,47.72 C37.78,45.51 37.51,43.4 37.52,41.35 C39.76,41.97 42.03,42.26 44.33,42.31 Z M44.4,40.82 C41.83,40.72 39.57,40.38 37.58,39.83 C37.71,38.03 37.76,36.31 38.78,33.62 C41.02,34.32 43.62,34.52 44.41,34.5 Z M44.33,33.08 C42.61,33.01 40.92,32.73 39.24,32.25 C39.8,30.88 40.53,29.62 41.52,28.56 C42.12,27.96 42.78,27.4 43.74,27.08 L44.33,27.09 Z M45.76,27.01 L46.35,27.01 C47.7,27.46 48.66,28.53 49.21,29.22 C50.04,30.27 50.49,31.23 50.93,32.18 C49.54,32.57 47.93,32.93 45.76,33.01 Z M45.91,40.81 L45.91,34.51 C47.83,34.42 49.71,34.16 51.53,33.61 C52.15,35.43 52.49,37.58 52.73,39.83 C50.63,40.43 48.34,40.73 45.91,40.81 Z M45.82,48.58 L45.82,42.37 C47.66,42.42 50.06,42 52.66,41.42 C52.66,44.06 52.27,45.91 51.85,47.69 C49.42,48.35 47.55,48.52 45.82,48.58 Z M51.23,49.3 C49.76,53.18 47.65,54.95 45.83,55.36 L45.83,50.02 C47.71,49.97 49.51,49.75 51.23,49.3 Z M53.01,48.84 C54.52,48.36 56.07,47.85 58.3,46.42 C56.33,51.12 52.91,53.55 49.92,54.58 C51.02,53.36 52.08,51.87 53.01,48.84 Z M54.19,40.82 C56.09,40.25 57.69,39.5 59.02,38.57 C59.43,41.16 59.25,42.72 58.97,44.09 C56.83,45.7 55.14,46.39 53.49,47.01 C53.72,45.69 53.93,46.3 54.19,40.82 Z M52.96,33.15 C53.95,32.74 54.88,32.28 55.74,31.74 C57.75,34.04 58.21,35.57 58.73,37.04 C57.31,38.01 55.82,38.84 54.17,39.35 C53.99,37.47 53.73,35.52 52.96,33.15 Z M50.11,27.89 C52,28.57 53.37,29.56 54.53,30.68 C53.87,31.05 53.17,31.41 52.36,31.73 C51.54,29.77 50.81,28.73 50.11,27.89 Z" fill="none" stroke="currentColor" stroke-width="1.5"/></svg>