<svg xmlns="http://www.w3.org/2000/svg" viewBox="0 0 58.58 40.95" width="24" height="24"><path d="M19.44,12 C21.37,9.8 24.19,7.91 28.5,7.94 C32.14,8.11 34.87,9.74 36.84,12 L35.79,13.04 C34.24,11.08 31.47,9.37 28.42,9.37 C25.29,9.3 22.49,10.74 20.64,13.04 Z M22.74,15.15 C23.69,13.86 25.34,12.53 28.08,12.35 C30.92,12.39 32.73,13.83 33.68,15.15 L32.64,16.19 C31.85,14.95 30.07,13.8 28.08,13.8 C26.61,13.88 25.04,14.43 23.79,16.19 Z M28.22,21.37 C27.19,21.37 26.04,20.49 26.04,19.11 C26.04,17.93 27.04,16.88 28.22,16.88 C29.61,16.88 30.54,17.92 30.54,19.15 C30.54,20.11 29.79,21.37 28.22,21.37 Z M51.47,18.37 C52.56,18.37 53.34,17.51 53.34,16.5 C53.34,15.5 52.59,14.62 51.42,14.62 C50.36,14.62 49.58,15.52 49.58,16.5 C49.58,17.64 50.51,18.37 51.47,18.37 Z M51.69,40.95 L48.92,37.94 L48.92,25.41 C46.88,24.67 44.34,22.52 44.34,18.49 C44.34,15 47.56,11.62 51.32,11.62 C55.21,11.62 58.58,14.51 58.58,18.89 C58.58,21.23 57.16,24.1 54.09,25.34 L54.09,28.27 L52.37,30.36 L54.84,33 L54.84,33.15 L52.59,35.55 L54.77,37.8 Z M32.8,32.32 C33.16,32.31 33.75,32.12 33.53,31.84 L32.48,30.3 C32.32,30.05 32.05,29.99 31.74,30 L24.66,30 C24.43,30 24.16,30.04 23.94,30.3 L22.96,31.84 C22.7,32.19 23.46,32.32 23.75,32.32 Z M2.91,34.5 C1.9,34.47 0.75,34.2 0.25,33.37 C0,32.92 0.03,32.45 0.44,31.96 L4.59,27.75 L4.59,2.91 C4.59,1.53 5.84,0 7.49,0 L48.88,0 C50.54,0 51.84,1.45 51.84,2.95 L51.84,9.3 L48.84,9.68 L48.84,3 L7.59,3 L7.59,27 L46.66,27 L46.66,34.5 Z" fill="none" stroke="currentColor" stroke-width="1.5"/></svg>