<svg xmlns="http://www.w3.org/2000/svg" viewBox="0 0 58.71 56.18" width="24" height="24"><path d="M49.39,28.64 C51.28,29.32 52.65,30.31 53.8,31.43 C53.15,31.8 52.45,32.16 51.63,32.48 C50.81,30.52 50.09,29.48 49.39,28.64 Z M52.23,33.9 C53.22,33.49 54.15,33.03 55.01,32.49 C57.03,34.79 57.48,36.32 58.01,37.79 C56.59,38.76 55.09,39.59 53.44,40.1 C53.26,38.22 53,36.27 52.23,33.9 Z M53.47,41.57 C55.36,41 56.97,40.25 58.3,39.32 C58.71,41.91 58.53,43.47 58.25,44.84 C56.1,46.45 54.42,47.14 52.76,47.76 C52.99,46.44 53.21,47.05 53.47,41.57 Z M52.28,49.59 C53.8,49.11 55.34,48.6 57.57,47.17 C55.6,51.87 52.18,54.3 49.2,55.33 C50.29,54.11 51.36,52.62 52.28,49.59 Z M50.5,50.05 C49.04,53.93 46.93,55.7 45.11,56.11 L45.11,50.77 C46.99,50.72 48.79,50.5 50.5,50.05 Z M45.1,49.33 L45.1,43.12 C46.93,43.17 49.33,42.75 51.93,42.17 C51.93,44.81 51.55,46.66 51.12,48.44 C48.7,49.1 46.83,49.27 45.1,49.33 Z M45.18,41.56 L45.18,35.26 C47.1,35.17 48.98,34.91 50.8,34.36 C51.43,36.18 51.76,38.33 52.01,40.58 C49.91,41.18 47.61,41.48 45.18,41.56 Z M45.03,27.76 L45.62,27.76 C46.98,28.21 47.94,29.28 48.49,29.97 C49.31,31.02 49.77,31.98 50.2,32.93 C48.81,33.32 47.2,33.68 45.03,33.76 Z M43.61,33.83 C41.89,33.76 40.19,33.48 38.52,33 C39.08,31.63 39.8,30.37 40.79,29.31 C41.4,28.71 42.05,28.15 43.01,27.83 L43.61,27.84 Z M43.68,41.57 C41.1,41.47 38.85,41.13 36.86,40.58 C36.99,38.78 37.04,37.06 38.06,34.37 C40.3,35.07 42.89,35.27 43.69,35.25 Z M43.61,43.06 L43.61,49.27 C41.63,49.33 39.66,48.98 37.68,48.47 C37.06,46.26 36.79,44.15 36.8,42.1 C39.03,42.72 41.3,43.01 43.61,43.06 Z M43.61,50.85 L43.61,56.18 C42.54,55.95 41.66,55.37 40.88,54.59 C39.65,53.32 38.81,51.79 38.19,50.26 C39.99,50.62 41.79,50.89 43.61,50.85 Z M36.46,49.71 C37.47,52.81 38.55,54.12 39.63,55.36 C34.91,53.58 32.6,50.34 31.32,47.58 C33,48.45 34.68,49.32 36.46,49.71 Z M30.55,45.3 C30.07,43.6 29.94,41.65 30.34,39.32 C31.71,40.16 33.24,40.96 35.27,41.64 C35.26,43.92 35.49,46.02 35.95,47.92 C34.47,47.5 32.76,46.77 30.55,45.3 Z M30.78,37.8 C31.4,35.72 32.45,33.98 33.8,32.49 C34.77,33.15 35.65,33.49 36.56,33.9 C35.81,35.95 35.48,38.23 35.36,40.12 C33.92,39.61 32.47,39.07 30.78,37.8 Z M34.83,31.36 C36.37,30.07 37.87,29.19 39.34,28.65 C38.59,29.53 37.82,30.66 37.02,32.41 C36.2,32.06 35.45,31.71 34.83,31.36 Z M0,48.74 L0,33.75 L3.76,18.08 L5.25,18.08 L5.25,6 L47.25,6 L47.25,18.08 L48.75,18.08 L50.86,26.86 C49.28,26.21 47.41,25.61 45,25.51 L45,8.24 L7.5,8.24 L7.5,33.74 L29.96,33.74 C27.09,38.75 27.22,44.23 29.19,48.74 Z M12.75,29.24 L12.75,27 L33,27 L33,29.24 Z M12.75,23.99 L12.75,21.75 L28.49,21.75 L28.49,23.99 Z M36,17.99 L35.99,11.25 L42,11.25 L42,17.99 Z M9,3.75 L6.75,3.75 L6.75,0 L45.75,0 L45.75,3.74 L43.5,3.74 L43.5,2.25 L9,2.25 Z" fill="none" stroke="currentColor" stroke-width="1.5"/></svg>