<svg xmlns="http://www.w3.org/2000/svg" viewBox="0 0 40.8 52.5" width="24" height="24"><path d="M21.74,9 L21.75,6.75 L5.25,6.75 L5.25,9 Z M23.85,38.25 L18.08,32.25 L23.85,26.25 L27.6,26.25 L23.09,30.75 L36.75,30.75 L36.75,33.75 L23.09,33.75 L27.6,38.25 Z M22.5,44.25 L22.5,41.25 L35.85,41.25 L31.35,36.75 L35.1,36.75 L40.8,42.75 L35.1,48.75 L31.35,48.75 L35.85,44.25 Z M0,52.5 L0,2.97 C0,1.42 1.26,0 3.02,0 L24.06,0 C25.68,0 27,1.44 27,2.95 L27,24 L22.87,24 L15,32.17 L20.03,37.5 L5.25,37.5 L5.25,39.75 L20.25,39.75 L20.25,44.25 L5.25,44.25 L5.25,46.5 L27,46.5 L27,52.5 Z" fill="none" stroke="currentColor" stroke-width="1.5"/></svg>