<svg xmlns="http://www.w3.org/2000/svg" viewBox="0 0 55.2 53.92" width="24" height="24"><path d="M45.45,11.55 L45.45,6.1 C45.45,3.84 47.39,2.26 49.24,2.26 L51.69,2.26 C53.07,4.69 52.49,7.15 51.51,8.7 C49.96,11.05 47.63,11.69 45.45,11.55 Z M7.95,34.43 L7.95,6.57 C7.95,2.84 11.26,0 14.5,0 L47.1,0 C47.78,0 48.14,0.05 48.45,0.15 C45.99,0.4 43.27,2.59 43.27,5.78 L43.27,26.19 L31.86,26.19 C29.38,26.19 27.45,28.41 27.45,30.57 L27.45,34.43 Z M42.06,36.76 C41.45,36.76 40.49,36.27 40.49,35.14 C40.49,34.53 41.07,33.61 42.02,33.61 C43.03,33.61 43.66,34.37 43.66,35.23 C43.66,35.95 43.14,36.73 42.06,36.76 Z M42.08,52.2 L44.25,49.96 L42.76,48.38 L44.33,46.73 L44.33,46.65 L42.6,44.78 L44.03,43.29 L44.03,41.18 C45.34,40.6 47.03,38.78 47.03,36.73 C47.03,33.34 44.42,31.43 42.15,31.43 C39.34,31.43 37.13,33.69 37.13,36.67 C37.13,38.51 38.47,40.38 40.13,41.18 L40.13,50.11 Z M31.87,53.92 C30.83,53.92 29.7,53.07 29.7,51.71 L29.7,30.7 C29.7,29.47 30.63,28.44 31.9,28.44 L53.01,28.44 C54.24,28.44 55.2,29.46 55.2,30.64 L55.2,51.73 C55.2,53.01 54.1,53.92 53.05,53.92 Z M5.78,48.68 C3.42,48.68 0,46.59 0,42.63 C0,39.16 2.98,36.68 5.9,36.68 L27.45,36.68 L27.45,48.68 Z" fill="none" stroke="currentColor" stroke-width="1.5"/></svg>