<svg xmlns="http://www.w3.org/2000/svg" viewBox="0 0 59.25 56.99" width="24" height="24"><path d="M43.99,40.34 C42.77,40.34 41.85,39.21 41.85,38.09 C41.91,36.26 43.22,35.69 43.95,35.69 C45.01,35.69 46.05,36.63 46.05,38.08 C46.05,39.19 45.2,40.34 43.99,40.34 Z M39.62,43.65 C39.7,43.1 39.73,42.6 39.94,41.98 C40.04,41.71 40.16,41.43 40.49,41.17 C40.58,41.09 41.5,40.57 41.58,40.54 C41.73,40.47 41.92,40.49 42,40.56 C43.06,41.57 44.65,41.55 45.74,40.57 C45.87,40.47 46.02,40.47 46.2,40.55 C46.6,40.77 47,40.98 47.33,41.22 C47.55,41.41 47.73,41.67 47.81,41.96 C47.99,42.48 48.07,43.06 48.11,43.65 Z M51.92,44.99 C50.62,44.99 49.65,43.75 49.65,42.58 C49.66,40.85 50.91,40.04 51.87,40.04 C52.8,40.04 54.15,40.82 54.15,42.6 C54.15,43.73 53.2,44.99 51.92,44.99 Z M53.38,49.94 L49.8,45.16 C49.92,45.12 50.04,45.13 50.18,45.23 C51.42,46.22 52.69,46.21 53.89,45.25 C53.99,45.14 54.11,45.12 54.25,45.16 C54.64,45.35 55.35,45.72 55.51,45.88 C55.86,46.18 55.97,46.53 56.06,46.89 C56.16,47.29 56.23,47.81 56.31,48.3 C56.42,48.96 56.55,49.59 56.7,49.94 Z M34.73,52.64 C34.4,52.64 34.19,52.36 34.35,52.12 L39.38,45.14 C39.6,44.81 39.78,44.69 39.99,44.69 L47.97,44.69 C48.2,44.7 48.29,44.8 48.38,44.92 L53.77,52.11 C53.96,52.37 53.8,52.64 53.41,52.64 Z M35.96,44.99 C34.91,44.99 33.68,44.07 33.68,42.5 C33.68,41.1 34.73,40.04 35.88,40.04 C37.24,40.04 38.17,41.28 38.17,42.46 C38.17,44.11 36.97,44.99 35.96,44.99 Z M31.65,49.94 C31.79,48.76 31.89,47.5 32.15,46.64 C32.27,46.26 32.48,45.94 32.84,45.73 C33.14,45.54 33.45,45.32 33.74,45.19 C33.91,45.11 34.06,45.12 34.21,45.23 C35.18,46.06 36.67,46.35 37.95,45.22 C38.01,45.16 38.06,45.14 38.12,45.14 L34.65,49.94 Z M30,55.49 L57.75,55.49 L57.75,32.99 L30,32.99 Z M28.5,56.99 L28.5,31.49 L59.25,31.49 L59.25,56.99 Z M9,3.75 L6.75,3.75 L6.75,0 L45.75,0 L45.75,3.74 L43.5,3.74 L43.5,2.25 L9,2.25 Z M35.99,17.99 L35.99,11.25 L42,11.25 L42,17.99 Z M12.75,23.99 L12.75,21.75 L28.49,21.75 L28.49,23.99 Z M12.75,29.24 L12.75,27 L33,27 L33,29.24 Z M0,48.74 L0,33.75 L3.76,18.08 L5.25,18.08 L5.25,6 L47.25,6 L47.25,18.08 L48.75,18.08 L51.42,29.25 L45,29.24 L45,8.24 L7.5,8.24 L7.5,33.74 L26.25,33.74 L26.25,48.74 Z" fill="none" stroke="currentColor" stroke-width="1.5"/></svg>