<svg xmlns="http://www.w3.org/2000/svg" viewBox="0 0 50.25 57.56" width="24" height="24"><path d="M2.25,54.85 C1.16,54.42 0,53.76 0,52.92 L0,52.33 C0.02,51.9 0.32,51.6 0.66,51.31 C1.61,50.55 3.06,50.06 3.81,49.81 C4.93,49.39 5.5,48.14 5.87,46.98 C6.8,42.78 7.78,38.58 9.36,34.42 C11.09,29.51 14.3,23.1 19.04,17.44 C19.36,16.88 19.39,16.29 18.6,15.61 L17.9,15.03 C17.46,14.68 17.27,14.14 17.25,13.58 L17.25,2.67 C17.26,2.09 17.87,1.76 18.51,1.44 C21.53,0.11 28.39,0 31.61,1.38 C32.16,1.63 32.93,2.01 33,2.61 L33,13.01 C32.99,13.97 32.41,14.69 31.44,15.13 C28.28,16.56 25.05,17.56 22.24,19.22 C21.06,19.93 20.45,20.41 19.95,21.06 C14.93,27.76 11.12,36.18 9,46.89 C8.88,48 9.52,48.09 10.18,47.95 C12.91,47.23 17.24,45.3 19.73,44.64 C23.72,43.62 27.33,43.31 33.97,45.83 C38.87,47.89 44.11,48.79 47.89,50.39 C48.54,50.69 50.25,51.43 50.25,52.35 L50.25,52.91 C50.25,53.71 49.22,54.32 48.36,54.7 C44.39,56.35 36.05,57.12 29.77,57.32 C23.91,57.56 17.28,57.27 12.26,56.79 C8.91,56.41 5.38,56.02 2.25,54.85 Z" fill="none" stroke="currentColor" stroke-width="1.5"/></svg>