<svg xmlns="http://www.w3.org/2000/svg" viewBox="0 0 53.03 48.75" width="24" height="24"><path d="M45.45,11.55 L45.45,6.06 C45.45,4.12 47.1,2.25 49.26,2.25 L51.68,2.25 C53.03,4.68 52.56,6.96 51.57,8.6 C50.37,10.48 48.45,11.71 45.46,11.55 Z M15.46,15.67 L35.71,15.67 L35.71,13.42 L15.46,13.42 Z M15.46,21.67 L35.71,21.67 L35.71,19.42 L15.46,19.42 Z M15.46,27.67 L35.71,27.67 L35.71,25.42 L15.46,25.42 Z M7.96,34.41 L7.96,6.51 C7.96,3.76 10.38,0 14.46,0 L47.44,0 C47.82,0.01 48.15,0.05 48.44,0.14 C44.87,0.7 43.27,3.56 43.27,5.77 L43.27,42.06 C43.19,46.32 39.49,48.75 37.16,48.75 C35.04,48.75 31.66,46.6 31.57,42.92 C31.58,40.69 32.51,38.72 34.81,37.46 C35.25,37.19 35.5,36.48 35.2,35.64 C34.85,34.82 34.25,34.49 33.54,34.41 Z M5.81,48.67 C3.2,48.67 0,46.45 0,42.53 C0,39.39 2.82,36.68 5.81,36.68 L31.88,36.68 C30.6,38.05 29.47,39.61 29.33,42.48 C29.33,45.33 30.4,47.18 31.87,48.67 Z" fill="none" stroke="currentColor" stroke-width="1.5"/></svg>