<svg xmlns="http://www.w3.org/2000/svg" viewBox="0 0 48.5 48.59" width="24" height="24"><path d="M31.88,30.52 C37.72,30.52 45.44,25.48 45.44,16.94 C45.44,8.2 38.23,2.92 31.88,2.92 C23.45,2.92 17.84,9.37 17.84,16.94 C17.84,25.07 24.96,30.52 31.88,30.52 Z M7.11,46.86 C5.21,48.59 2.7,48.47 1.34,47.01 C0,45.42 0.09,43.19 1.57,41.48 L13.16,29.86 C14.16,29.02 15.64,28.46 16.79,28.71 L18.44,27.06 C16.55,24.46 15.01,21.49 14.89,16.94 C14.89,8.51 21.38,0 31.88,0 C41.09,0 48.5,7.62 48.5,16.94 C48.5,26.18 40.69,33.51 31.88,33.51 C28.15,33.44 24.63,32.46 21.43,29.99 L19.78,31.65 C19.89,32.94 19.57,34.08 18.75,35.06 Z" fill="none" stroke="currentColor" stroke-width="1.5"/></svg>