<svg xmlns="http://www.w3.org/2000/svg" viewBox="0 0 46.02 57.0" width="24" height="24"><path d="M30.15,48.37 L32.17,48.37 L32.4,37.5 L29.85,37.5 Z M31.19,53.1 C31.77,53.1 32.7,52.65 32.7,51.65 C32.7,50.97 32.16,50.17 31.16,50.17 C30.35,50.17 29.62,50.85 29.62,51.67 C29.62,52.43 30.35,53.1 31.19,53.1 Z M17.77,57 C16.98,57 16.09,56.44 16.65,55.27 L30.04,30.67 C30.47,29.98 31.33,29.5 32.13,30.66 L45.58,55.22 C46.02,56.09 45.72,56.93 44.48,57 Z M5.25,9 L21.75,9 L21.75,6.75 L5.25,6.75 Z M5.25,39.75 L21.75,39.75 L21.75,37.5 L5.25,37.5 Z M0,52.5 L0,2.95 C0,1.46 1.3,0 2.88,0 L24.03,0 C25.7,0 27,1.42 27,2.96 L27,31.62 L20.14,44.25 L5.25,44.25 L5.25,46.5 L18.92,46.5 L15.66,52.5 Z" fill="none" stroke="currentColor" stroke-width="1.5"/></svg>