<svg xmlns="http://www.w3.org/2000/svg" viewBox="0 0 59.25 51.74" width="24" height="24"><path d="M52.19,29.25 C53.2,29.25 54.01,28.38 54.01,27.38 C54.01,26.37 53.21,25.49 52.15,25.49 C51.12,25.49 50.26,26.27 50.26,27.39 C50.26,28.37 51.02,29.25 52.19,29.25 Z M52.36,51.74 L49.58,48.76 L49.58,36.3 C47.12,35.38 45.03,32.84 45.01,29.67 C45.01,25.19 48.81,22.49 52.01,22.49 C56.43,22.49 59.25,26.03 59.25,29.7 C59.25,32.69 57.24,35.27 54.76,36.22 L54.76,39.14 L53.03,41.24 L55.51,43.81 L55.51,43.95 L53.26,46.35 L55.43,48.6 Z M0.78,33.75 C0.37,33.75 0.01,33.39 0.01,32.88 L0.01,20.79 C0,20.48 0.27,20.22 0.61,19.97 C1.74,19.26 2.82,19.03 3.76,18.74 L3.76,9 L4.51,9 L4.51,0 L6.01,0 L6.01,9 L6.76,9 L6.76,18.01 C13.89,17.12 20.41,16.91 26.44,16.88 C33.73,16.79 40.34,17.09 45.75,18 L45.75,9 L46.51,9 L46.51,0 L48,0 L48,9 L48.76,9 L48.76,18.75 C49.93,19.02 51.66,19.58 52.22,20.25 C48.85,20.19 46.1,22.04 44.66,23.96 C42.86,26.37 42.63,28.76 42.81,30.75 L6.76,30.75 L6.76,32.92 C6.76,33.41 6.44,33.75 5.97,33.75 Z M39.38,26.27 C40.48,26.24 41.23,25.35 41.24,24.44 C41.27,23.39 40.44,22.52 39.36,22.52 C38.23,22.55 37.47,23.44 37.5,24.43 C37.5,25.45 38.36,26.27 39.38,26.27 Z" fill="none" stroke="currentColor" stroke-width="1.5"/></svg>