<svg xmlns="http://www.w3.org/2000/svg" viewBox="0 0 47.76 47.7" width="24" height="24"><path d="M5.95,20.59 L1.02,18.55 C0.3,18.15 0,17.58 0.28,16.76 L2.16,12.27 C2.57,11.59 3.11,11.2 3.95,11.54 L8.56,13.86 C10.03,12.12 11.64,10.39 13.43,8.89 L11.41,3.95 C11.26,3.36 11.2,2.78 12.05,2.23 L16.68,0.28 C17.57,0 18.07,0.38 18.37,0.9 L20.44,5.96 C22.52,5.55 24.58,5.36 27.01,6.07 L29.09,0.93 C29.54,0.22 30.13,0.02 30.83,0.28 L35.44,2.23 C36.2,2.71 36.27,3.28 36.09,3.89 L34.04,8.95 C35.84,10.39 37.5,11.93 38.84,13.67 L43.8,11.65 C44.69,11.4 45.22,11.74 45.55,12.4 L47.49,17 C47.62,17.68 47.47,18.25 46.8,18.63 L41.76,20.67 C42,22.64 41.97,25.11 41.75,27.29 L46.79,29.33 C47.47,29.75 47.76,30.3 47.55,31.01 L45.73,35.32 C45.37,35.88 44.87,36.17 44.14,35.98 L39.05,33.93 C37.71,35.76 36.04,37.38 34.16,38.79 L36.17,43.75 C36.49,44.54 36.08,45.21 35.61,45.46 L30.72,47.5 C30.07,47.61 29.48,47.56 29.19,46.74 L27.13,41.66 C25.27,42.19 22.95,42.32 20.58,41.71 L18.54,46.72 C18.21,47.24 17.84,47.7 16.94,47.48 L12.17,45.5 C11.5,45.02 11.19,44.43 11.62,43.62 L13.88,39.11 C11.88,37.6 10.21,35.99 8.9,34.29 L4.04,36.28 C3.27,36.56 2.65,36.37 2.21,35.67 L0.27,31.02 C0.06,30.41 0.22,29.68 0.94,29.33 L5.97,27.15 C5.77,24.96 5.75,22.78 5.95,20.59 Z M11.38,23.76 C11.38,31.5 17.76,36.3 23.98,36.3 C30.75,36.3 36.34,30.56 36.34,23.88 C36.34,16.72 30.32,11.35 24.02,11.35 C17.85,11.35 11.38,16 11.38,23.76 Z" fill="none" stroke="currentColor" stroke-width="1.5"/></svg>