<svg xmlns="http://www.w3.org/2000/svg" viewBox="0 0 48.0 47.84" width="24" height="24"><path d="M24.2,27.89 C21.17,27.89 20.04,25.46 20.04,23.94 C20.04,21.22 22.22,19.87 24.19,19.87 C25.81,19.87 28.05,21.27 28.05,23.94 C28.05,25.68 26.58,27.89 24.2,27.89 Z M24.2,34.64 C29.91,34.64 34.71,29.83 34.71,23.94 C34.71,17.12 29.07,13.13 24.2,13.13 C18.1,13.13 13.27,17.87 13.27,23.94 C13.27,29.95 18.02,34.64 24.2,34.64 Z M2.1,34.27 L0,26.47 L6.37,23.92 C6.35,22.68 6.55,21.05 6.9,19.65 L1.34,15.67 L5.25,8.77 L11.4,11.4 C12.46,10.35 13.61,9.4 14.92,8.62 L13.95,2.02 L21.75,0 L24.15,6.22 C25.63,6.22 27.09,6.34 28.5,6.75 L32.4,1.41 L39.3,5.32 L36.67,11.31 C37.73,12.46 38.68,13.65 39.45,14.92 L45.9,13.95 L48,21.67 L41.92,24.07 C41.91,25.58 41.73,27.06 41.32,28.5 L46.5,32.32 L42.6,39.22 L36.6,36.6 C35.56,37.74 34.39,38.51 33.22,39.22 L34.27,45.74 L26.47,47.84 L24,41.7 C22.5,41.72 20.95,41.54 19.57,41.17 L15.67,46.57 L8.77,42.67 L11.4,36.51 C10.43,35.51 9.54,34.42 8.78,33.15 Z" fill="none" stroke="currentColor" stroke-width="1.5"/></svg>