<svg xmlns="http://www.w3.org/2000/svg" viewBox="0 0 56.27 54.75" width="24" height="24"><path d="M5.25,11.25 L21.75,11.25 L21.75,9 L5.25,9 Z M5.25,42 L21.75,42 L21.75,39.75 L5.25,39.75 Z M5.25,48.75 L21.75,48.75 L21.75,46.5 L5.25,46.5 Z M0,54.75 L0,5.18 C0,3.48 1.55,2.25 2.91,2.25 L24.01,2.25 C25.71,2.25 27,3.66 27,5.2 L27,54.75 Z" fill="none" stroke="currentColor" stroke-width="1.5"/><path d="M36,15.63 C36.55,16.28 37.99,16.49 38.87,16.33 C39.52,16.22 40.28,15.96 40.76,15.14 C41.2,14.3 41.22,13.47 40.96,12.66 C40.63,11.81 39.99,11.35 39.41,10.97 C38.94,10.68 38.47,10.47 38,10 C37.77,9.71 37.62,9.34 37.83,8.84 C38.14,8.23 38.83,8.16 39.28,8.23 C39.97,8.34 40.39,8.62 40.73,8.85 L40.73,6.88 C40.18,6.73 39.35,6.76 38.94,6.76 C38.2,6.78 37.64,7.01 37.16,7.33 C36.7,7.67 36.32,8.1 36.13,8.78 C35.97,9.34 35.99,9.93 36.15,10.44 C36.36,11.1 36.82,11.6 37.35,11.99 C37.84,12.29 38.43,12.61 38.77,12.91 C39.13,13.21 39.37,13.58 39.24,14.03 C39.13,14.48 38.75,14.75 38.16,14.74 C37.1,14.72 36.6,14.32 36,13.73 Z M46.57,20.55 L46.57,16.43 C47.57,15.86 48.71,16.16 49.42,16.88 C50.53,16.47 51.79,15.4 52.34,13.88 C51.6,13.14 51.12,11.7 52.34,10.43 C51.8,8.89 50.61,7.87 49.42,7.43 C48.49,8.33 47.38,8.34 46.57,7.88 L46.57,3.75 C47.24,3.36 48.25,3.29 49.09,3.92 C50.04,4.63 50.12,5.79 49.95,6.22 C51.54,6.9 52.81,8.08 53.47,9.75 C55,9.36 56.27,10.75 56.17,12.22 C56.17,13.81 54.81,14.91 53.39,14.56 C52.79,16.21 51.49,17.42 49.95,18.09 C50.26,19.36 49.36,20.4 48.51,20.71 C47.75,20.98 47.14,20.83 46.57,20.55 Z M31.5,21.75 L31.5,2.25 L45.75,0 L45.75,24 Z" fill="none" stroke="currentColor" stroke-width="1.5"/></svg>