<svg xmlns="http://www.w3.org/2000/svg" viewBox="0 0 52.5 40.5" width="24" height="24"><path d="M44.25,33 L35.25,33 L35.25,26.25 L39,26.25 L39,21.75 L27,21.75 L27,26.25 L30.75,26.25 L30.75,33 L21.75,33 L21.75,26.25 L25.5,26.25 L25.5,21.75 L13.5,21.75 L13.5,26.25 L17.25,26.25 L17.25,33 L8.25,33 L8.25,26.25 L12,26.25 L12,20.25 L25.5,20.25 L25.5,15.75 L20.25,15.75 L20.25,7.5 L32.25,7.5 L32.25,15.75 L27,15.75 L27,20.25 L40.5,20.25 L40.5,26.25 L44.25,26.25 Z M49.53,38.25 C49.88,38.25 50.25,38 50.25,37.53 L50.25,2.95 C50.25,2.72 50.09,2.25 49.49,2.25 L2.96,2.25 C2.57,2.25 2.25,2.55 2.25,2.99 L2.25,37.55 C2.25,37.91 2.53,38.25 2.96,38.25 Z M2.97,40.5 C1.55,40.5 0,39.33 0,37.49 L0,2.96 C0,1.21 1.53,0 2.9,0 L49.57,0 C51,0 52.5,1.24 52.5,2.94 L52.5,37.51 C52.5,39.29 50.97,40.5 49.6,40.5 Z" fill="none" stroke="currentColor" stroke-width="1.5"/></svg>