<svg xmlns="http://www.w3.org/2000/svg" viewBox="0 0 59.4 48.74" width="24" height="24"><path d="M49.6,33.22 C46.98,33.22 44.78,30.86 44.78,27.87 C44.78,25.01 46.87,22.57 49.66,22.57 C51.93,22.57 54.38,24.75 54.38,27.83 C54.38,31.22 51.82,33.24 49.6,33.22 Z M45.3,44.09 C45.13,42.71 44.83,41.4 44.3,40.37 C43.92,39.61 43.34,39.06 42.67,38.62 C41.26,37.68 41.14,37.58 40.5,37.56 C40.7,36.9 40.9,36.37 41.12,36.07 C41.4,35.6 41.83,35.21 42.41,34.89 C43.06,34.51 43.87,34.03 44.31,33.85 C44.74,33.68 45.1,33.73 45.4,33.97 C48.16,36.03 50.9,36.12 53.64,33.95 C53.85,33.76 54.25,33.68 54.57,33.81 C55.33,34.12 56.07,34.62 56.82,35.02 C57.76,35.64 58.1,36.36 58.35,37.11 C58.85,38.66 59.18,41.09 59.4,44.09 Z M34.76,38.03 C32.31,38.03 29.93,35.88 29.93,32.55 C29.93,30.33 31.66,27.37 34.84,27.37 C36.79,27.37 39.49,29.2 39.53,32.68 C39.53,35.46 37.42,38.03 34.76,38.03 Z M24.75,48.74 C24.99,46.65 25.22,44.51 25.55,42.74 C25.9,40.94 26.45,40.24 27.38,39.64 C27.97,39.31 28.58,38.94 29.09,38.68 C29.76,38.31 30.17,38.34 30.46,38.55 C33.21,40.7 35.98,40.77 38.76,38.63 C39.19,38.3 39.55,38.33 40.2,38.67 C41,39.15 42,39.6 42.56,40.14 C43.13,40.7 43.44,41.46 43.66,42.29 C44.18,44.73 44.35,46.99 44.33,48.74 Z M46.5,4.5 L48.75,4.5 L48.75,2.25 L46.5,2.25 Z M27.9,34.5 L21,34.5 L21,28.5 L24.75,28.5 L24.75,24 L15,24 L15,28.5 L18.75,28.5 L18.75,34.5 L9.75,34.5 L9.75,28.5 L13.5,28.5 L13.5,22.5 L24.75,22.5 L24.75,18 L20.25,17.99 L20.25,11.25 L30.75,11.25 L30.75,18 L26.25,18 L26.25,22.5 L37.5,22.5 L37.5,25.74 C37.09,25.53 36.6,25.36 36,25.25 L36,23.99 L26.25,23.99 L26.25,28.5 L28.85,28.5 C27.96,29.91 27.3,32.18 27.9,34.5 Z M2.92,40.5 C1.44,40.5 0,39.2 0,37.55 L0,2.91 C0,1.32 1.43,0 2.9,0 L48.12,0 C49.49,0 51,1.26 51,2.92 L51,20.55 C50.19,20.36 49.32,20.37 48.75,20.46 L48.75,7.5 L2.25,7.5 L2.25,37.55 C2.25,37.91 2.54,38.25 2.95,38.25 L25.64,38.25 C25.04,38.78 24.49,39.45 24.08,40.5 Z M42,4.5 L44.25,4.5 L44.25,2.25 L42,2.25 Z M37.5,4.5 L39.75,4.5 L39.75,2.25 L37.5,2.25 Z" fill="none" stroke="currentColor" stroke-width="1.5"/></svg>