<svg xmlns="http://www.w3.org/2000/svg" viewBox="0 0 62.55 58.39" width="24" height="24"><path d="M1.6,11.6 C0.31,10.48 0,9.12 1.58,7.73 C4.18,5.54 8.9,4.84 11.79,4.4 C17.32,3.7 22.95,4.05 27.1,4.81 C30.57,5.47 33.8,6.6 35.17,8.2 C36.1,9.36 35.82,10.24 35.23,11.04 C34.18,12.35 31.8,13.45 28,14.32 C22.32,15.49 16.06,15.57 10.28,14.68 C7.15,14.19 3.55,13.26 1.6,11.6 Z M35.76,29 C35.61,28.66 35.52,28.34 35.23,27.95 C34.57,27.09 33.24,26.39 31.74,26.96 L28.68,28.24 C27.48,28.83 26.54,30.41 27.19,32.11 L27.89,33.72 L27.06,34.55 L25.39,33.83 C24.1,33.37 22.46,33.8 21.67,35.34 L20.36,38.43 C19.8,40.04 20.49,41.62 21.88,42.29 L23.61,43.02 L23.61,44.22 L21.83,44.99 C20.38,45.76 19.86,47.32 20.34,48.75 L21.66,51.89 C21.76,52.15 21.95,52.4 22.16,52.64 C20.78,52.74 19.31,52.78 17.76,52.78 C10.76,52.68 6.07,51.64 3.12,49.9 C1.98,49.02 0.79,48.21 0.51,45.99 L0.51,13.63 C2.95,15.51 7.08,16.55 10.64,17.05 C15.67,17.74 22.13,17.61 26.07,16.99 C30.44,16.34 33.74,15.17 35.76,13.65 Z M37.07,51.34 C40.92,51.34 44.58,48.19 44.58,43.51 C44.58,39.66 41.43,35.9 36.93,35.9 C33.32,35.9 29.15,38.55 29.15,43.83 C29.15,47.17 31.92,51.34 37.07,51.34 Z M29.69,57.05 C29.18,56.76 29.08,56.34 29.27,55.93 L30.7,53.09 C29.45,52.17 28.1,50.8 27.61,50.09 L24.56,51.33 C24.19,51.47 23.76,51.39 23.49,50.97 L22.28,48.1 C22.13,47.69 22.26,47.23 22.66,47.02 L25.59,45.81 C25.4,44.56 25.48,42.64 25.57,41.73 L22.5,40.48 C22.07,40.27 21.88,39.84 22.04,39.41 L23.24,36.58 C23.47,36.17 23.8,35.97 24.3,36.13 L27.38,37.39 C28.3,36.27 29.28,35.26 30.34,34.37 L29.1,31.29 C28.99,30.97 29.01,30.44 29.53,30.21 L32.33,29.03 C32.74,28.86 33.23,29.01 33.42,29.43 L34.69,32.55 C35.87,32.3 37.19,32.13 38.77,32.6 L40.05,29.43 C40.31,28.99 40.71,28.83 41.16,29.03 L43.98,30.23 C44.43,30.48 44.5,30.92 44.41,31.19 L43.11,34.38 C44.4,35.42 45.37,36.39 46.06,37.31 L49.13,36.07 C49.68,35.86 50.08,36.17 50.21,36.45 L51.43,39.35 C51.58,39.8 51.38,40.22 51.02,40.39 L47.88,41.65 C48.08,42.82 48,45.43 47.87,45.73 L51.12,47.07 C51.55,47.28 51.74,47.66 51.53,48.11 L50.47,50.65 C50.19,51.17 49.82,51.26 49.39,51.12 L46.27,49.86 C45.78,50.7 44.12,52.29 43.28,52.86 L44.54,56.02 C44.65,56.41 44.55,56.77 44.15,57.02 L41.26,58.25 C40.94,58.37 40.5,58.31 40.21,57.86 L38.9,54.66 C37.7,55.04 36.19,55.05 34.86,54.68 L33.61,57.77 C33.41,58.16 33.1,58.39 32.58,58.27 Z" fill="none" stroke="currentColor" stroke-width="1.5"/><path d="M54.35,16.88 C53.07,17.6 51.46,17.78 49.87,17.58 C47.96,17.31 46.41,16.41 46.02,15.01 C45.86,14.33 46.05,13.83 46.66,13.55 C47.11,13.4 47.55,13.4 47.98,13.77 C48.39,14.1 48.75,15.04 49.67,15.44 C50.29,15.73 51.31,15.82 52.06,15.55 C52.41,15.42 52.83,15.24 53.15,14.68 C53.58,13.87 53.15,13.05 52.34,12.84 C50.75,12.39 48.44,12.02 47.66,11.49 C47.24,11.23 46.83,10.95 46.49,10.37 C46.08,9.64 46.1,8.94 46.14,8.24 C46.34,6.95 46.99,6.4 47.54,6.02 C48.44,5.41 49.43,5.23 50.36,5.15 C51.18,5.08 52.1,5.16 53.21,5.53 C54.12,5.88 55.05,6.38 55.48,7.22 C55.76,7.82 55.71,8.39 55.17,8.75 C54.77,8.96 54.06,9.15 53.52,8.58 C53.06,8.03 52.59,7.57 52.13,7.4 C51.57,7.18 50.93,7.08 50.16,7.21 C49.74,7.32 49.15,7.41 48.85,8.22 C48.7,8.98 49.03,9.37 49.71,9.65 C52,10.33 52.65,10.28 53.8,10.7 C54.98,11.15 55.83,11.87 56.05,13.1 C56.14,13.84 56.11,14.58 55.78,15.33 C55.53,15.86 55.17,16.38 54.35,16.88 Z M53.16,19.83 C54.69,20.84 56.86,21.29 58.89,19.63 C60.45,18.3 61.1,15.9 59.54,13.53 C60.19,10.25 59.27,6.75 56.14,4.44 C53.29,2.46 50.7,2.71 49.05,3.02 C47.03,1.72 44.67,1.76 42.9,3.65 C41.19,5.7 41.67,8.02 42.66,9.33 L42.52,10.27 C42.12,13.37 43.38,16.01 45.24,17.75 C46.66,19.06 48.95,20.27 51.87,20.02 Z M52.94,21.47 C49.68,22.01 46.61,21.07 44.31,19 C41.78,16.75 40.47,13.34 41.09,9.63 C39.7,7.37 40.08,4.3 42.1,2.26 C44.1,0.42 46.94,0 49.34,1.38 C52.55,0.87 55.41,1.72 57.74,3.66 C60.68,6.2 61.77,9.79 61.19,13.22 C62.55,15.55 62.08,18.26 60.77,19.93 C58.58,22.7 55.18,22.81 52.94,21.47 Z" fill="none" stroke="currentColor" stroke-width="1.5"/></svg>