<svg xmlns="http://www.w3.org/2000/svg" viewBox="0 0 53.76 60.11" width="24" height="24"><path d="M45.57,16.88 C44.29,17.6 42.67,17.78 41.08,17.58 C39.17,17.31 37.62,16.41 37.23,15.01 C37.07,14.33 37.26,13.83 37.87,13.55 C38.32,13.4 38.77,13.4 39.19,13.77 C39.6,14.1 39.96,15.04 40.88,15.44 C41.5,15.73 42.52,15.82 43.28,15.55 C43.62,15.42 44.05,15.24 44.36,14.68 C44.8,13.87 44.36,13.05 43.55,12.84 C41.96,12.39 39.66,12.02 38.88,11.49 C38.46,11.23 38.04,10.95 37.7,10.37 C37.29,9.64 37.31,8.94 37.35,8.24 C37.55,6.95 38.21,6.4 38.75,6.02 C39.65,5.41 40.64,5.23 41.58,5.15 C42.4,5.08 43.31,5.16 44.42,5.53 C45.33,5.88 46.27,6.38 46.69,7.22 C46.97,7.82 46.92,8.39 46.38,8.75 C45.98,8.96 45.27,9.15 44.73,8.58 C44.27,8.03 43.8,7.57 43.34,7.4 C42.78,7.18 42.15,7.08 41.37,7.21 C40.95,7.32 40.36,7.41 40.06,8.22 C39.91,8.98 40.24,9.37 40.93,9.65 C43.21,10.33 43.87,10.28 45.01,10.7 C46.19,11.15 47.05,11.87 47.27,13.1 C47.35,13.84 47.32,14.58 46.99,15.33 C46.75,15.86 46.38,16.38 45.57,16.88 Z M44.37,19.83 C45.91,20.84 48.07,21.29 50.1,19.63 C51.67,18.3 52.32,15.9 50.76,13.53 C51.4,10.25 50.48,6.75 47.35,4.44 C44.5,2.46 41.92,2.71 40.26,3.02 C38.24,1.72 35.88,1.76 34.11,3.65 C32.4,5.7 32.88,8.02 33.87,9.33 L33.73,10.27 C33.34,13.37 34.59,16.01 36.45,17.75 C37.87,19.06 40.17,20.27 43.08,20.02 Z M44.15,21.47 C40.89,22.01 37.83,21.07 35.52,19 C32.99,16.75 31.68,13.34 32.31,9.63 C30.91,7.37 31.29,4.3 33.31,2.26 C35.31,0.42 38.15,0 40.56,1.38 C43.76,0.87 46.62,1.72 48.95,3.66 C51.89,6.2 52.98,9.79 52.4,13.22 C53.76,15.55 53.29,18.26 51.98,19.93 C49.79,22.7 46.39,22.81 44.15,21.47 Z" fill="none" stroke="currentColor" stroke-width="1.5"/><rect x="0" y="0" width="0" height="0" fill="none" stroke="currentColor"/><path d="M28.5,49.31 L23.97,49.31 C20.15,49.31 17.47,45.7 16.95,42.6 L19.88,42.6 C20.57,44.98 22.44,46.43 23.97,46.43 L28.5,46.43 L24.84,42.6 L28.43,42.6 L33.68,47.78 L28.42,53.09 L24.84,53.09 Z M0,55.35 L0,5.85 C0,4.34 1.24,2.86 3.01,2.86 L24.08,2.86 C25.55,2.86 27,4.17 27,5.86 L27,40.35 L5.25,40.35 L5.25,42.6 L14.69,42.6 C14.95,44.32 15.65,45.92 16.42,47.1 L5.25,47.1 L5.25,49.31 L18.4,49.31 C19.7,50.42 21.3,51.31 23.26,51.53 L22.42,52.34 L22.42,55.35 Z M5.25,11.86 L21.75,11.86 L21.75,9.6 L5.25,9.6 Z M31.49,35.48 C31.49,33.84 34.97,32.7 38.23,32.28 C41.32,31.86 44.48,31.98 47.14,32.37 C49.87,32.76 53.25,33.87 53.25,35.45 C53.25,37.07 50.01,38.01 48.45,38.33 C44.41,39.19 39.29,39.03 36.13,38.3 C33.93,37.82 31.49,36.82 31.49,35.48 Z M37.89,40.14 C41.06,40.61 44.9,40.46 47.74,40 C49.39,39.7 51.54,39.22 53.1,38.03 L53.1,55.5 C53.1,56.76 52.16,57.84 50.47,58.54 C47.05,59.93 40.42,60.11 36.11,59.16 C33.46,58.56 31.5,57.27 31.5,55.56 L31.5,53.15 L36.82,47.77 L31.5,42.51 L31.5,38.03 C33.05,39.14 35.43,39.82 37.89,40.14 Z" fill="none" stroke="currentColor" stroke-width="1.5"/></svg>