<svg xmlns="http://www.w3.org/2000/svg" viewBox="0 0 73.73 40.94" width="24" height="24"><path d="M44.9,24.52 C42.32,24.52 40.5,22.3 40.5,19.82 C40.5,16.82 42.6,14.92 44.82,14.92 C47.29,14.92 49.05,17.23 49.05,19.6 C49.05,22.83 46.69,24.52 44.9,24.52 Z M53.63,34.21 L44.89,34.21 L39.23,25.46 C39.62,25.23 40.01,24.99 40.38,24.86 C42.89,27.32 46.82,27.26 49.18,24.85 C49.52,24.92 51.44,26.05 51.59,26.2 C52.29,26.78 52.64,27.41 52.94,28.92 C53.27,30.67 53.44,32.43 53.63,34.18 Z M27.07,15.66 C24.53,15.66 22.73,13.4 22.73,10.97 C22.73,7.82 25.1,6.06 26.86,6.06 C29.56,6.06 31.25,8.32 31.27,10.81 C31.27,14.4 28.6,15.66 27.07,15.66 Z M18.57,22.34 C18.7,21.22 18.85,20.13 19.14,19.13 C19.37,18.44 19.57,17.96 20.16,17.44 C20.41,17.18 22.3,16.1 22.55,16.02 C25.21,18.69 29.05,18.38 31.47,16.01 C31.53,16.01 33.71,17.15 34,17.51 C34.51,17.98 34.79,18.55 34.96,19.16 C35.24,20.16 35.37,21.33 35.52,22.34 Z M8.82,24.51 C6.28,24.51 4.58,22.09 4.58,19.87 C4.58,16.55 6.92,14.92 8.9,14.92 C10.95,14.9 13.19,16.81 13.12,19.84 C13.02,22.75 10.88,24.51 8.82,24.51 Z M8.16,34.21 L0,34.21 C0.25,32.19 0.43,30.06 0.86,28.23 C0.99,27.53 1.31,26.92 1.82,26.37 C2.07,26.1 4.22,24.84 4.42,24.85 C6.6,27 10.39,27.6 13.24,24.87 C13.47,24.95 13.91,25.21 14.28,25.4 Z M8.1,40.94 L8.1,38.23 L17.62,24.59 L36,24.59 L44.77,38.24 L44.77,40.94 Z" fill="none" stroke="currentColor" stroke-width="1.5"/><path d="M65.54,16.88 C64.26,17.6 62.64,17.78 61.05,17.58 C59.14,17.31 57.59,16.41 57.2,15.01 C57.04,14.33 57.24,13.83 57.84,13.55 C58.29,13.4 58.74,13.4 59.16,13.77 C59.57,14.1 59.93,15.04 60.85,15.44 C61.47,15.73 62.49,15.82 63.25,15.55 C63.59,15.42 64.02,15.24 64.33,14.68 C64.77,13.87 64.34,13.05 63.52,12.84 C61.93,12.39 59.63,12.02 58.85,11.49 C58.43,11.23 58.01,10.95 57.67,10.37 C57.26,9.64 57.28,8.94 57.32,8.24 C57.52,6.95 58.18,6.4 58.72,6.02 C59.62,5.41 60.61,5.23 61.55,5.15 C62.37,5.08 63.28,5.16 64.39,5.53 C65.31,5.88 66.24,6.38 66.66,7.22 C66.94,7.82 66.89,8.39 66.35,8.75 C65.95,8.96 65.24,9.15 64.7,8.58 C64.24,8.03 63.77,7.57 63.31,7.4 C62.76,7.18 62.12,7.08 61.34,7.21 C60.92,7.32 60.34,7.41 60.03,8.22 C59.88,8.98 60.21,9.37 60.9,9.65 C63.19,10.33 63.84,10.28 64.98,10.7 C66.16,11.15 67.02,11.87 67.24,13.1 C67.32,13.84 67.3,14.58 66.96,15.33 C66.72,15.86 66.35,16.38 65.54,16.88 Z M64.34,19.83 C65.88,20.84 68.04,21.29 70.08,19.63 C71.64,18.3 72.29,15.9 70.73,13.53 C71.37,10.25 70.45,6.75 67.32,4.44 C64.47,2.46 61.89,2.71 60.23,3.02 C58.22,1.72 55.85,1.76 54.08,3.65 C52.37,5.7 52.85,8.02 53.85,9.33 L53.7,10.27 C53.31,13.37 54.56,16.01 56.42,17.75 C57.84,19.06 60.14,20.27 63.05,20.02 Z M64.12,21.47 C60.86,22.01 57.8,21.07 55.49,19 C52.96,16.75 51.66,13.34 52.28,9.63 C50.88,7.37 51.26,4.3 53.29,2.26 C55.28,0.42 58.12,0 60.53,1.38 C63.74,0.87 66.6,1.72 68.92,3.66 C71.86,6.2 72.95,9.79 72.37,13.22 C73.73,15.55 73.26,18.26 71.95,19.93 C69.76,22.7 66.36,22.81 64.12,21.47 Z" fill="none" stroke="currentColor" stroke-width="1.5"/></svg>