<svg xmlns="http://www.w3.org/2000/svg" viewBox="0 0 53.8 59.8" width="24" height="24"><path d="M44.19,21.47 C40.94,22.01 37.87,21.07 35.56,19 C33.03,16.75 31.73,13.34 32.35,9.63 C30.95,7.37 31.33,4.3 33.36,2.26 C35.36,0.42 38.2,0 40.6,1.38 C43.81,0.87 46.67,1.72 49,3.66 C51.94,6.2 53.02,9.79 52.45,13.22 C53.8,15.55 53.33,18.26 52.02,19.93 C49.83,22.7 46.43,22.81 44.19,21.47 Z M44.41,19.83 C45.95,20.84 48.11,21.29 50.15,19.63 C51.71,18.3 52.36,15.9 50.8,13.53 C51.44,10.25 50.52,6.75 47.4,4.44 C44.54,2.46 41.96,2.71 40.3,3.02 C38.29,1.72 35.93,1.76 34.15,3.65 C32.45,5.7 32.92,8.02 33.92,9.33 L33.78,10.27 C33.38,13.37 34.63,16.01 36.49,17.75 C37.91,19.06 40.21,20.27 43.12,20.02 Z M45.61,16.88 C44.33,17.6 42.71,17.78 41.12,17.58 C39.21,17.31 37.66,16.41 37.27,15.01 C37.11,14.33 37.31,13.83 37.92,13.55 C38.37,13.4 38.81,13.4 39.24,13.77 C39.64,14.1 40,15.04 40.93,15.44 C41.54,15.73 42.56,15.82 43.32,15.55 C43.67,15.42 44.09,15.24 44.4,14.68 C44.84,13.87 44.41,13.05 43.59,12.84 C42,12.39 39.7,12.02 38.92,11.49 C38.5,11.23 38.08,10.95 37.75,10.37 C37.33,9.64 37.35,8.94 37.39,8.24 C37.59,6.95 38.25,6.4 38.79,6.02 C39.7,5.41 40.68,5.23 41.62,5.15 C42.44,5.08 43.35,5.16 44.46,5.53 C45.38,5.88 46.31,6.38 46.73,7.22 C47.01,7.82 46.97,8.39 46.42,8.75 C46.02,8.96 45.32,9.15 44.78,8.58 C44.31,8.03 43.85,7.57 43.38,7.4 C42.83,7.18 42.19,7.08 41.41,7.21 C40.99,7.32 40.41,7.41 40.1,8.22 C39.95,8.98 40.28,9.37 40.97,9.65 C43.26,10.33 43.91,10.28 45.05,10.7 C46.24,11.15 47.09,11.87 47.31,13.1 C47.39,13.84 47.37,14.58 47.03,15.33 C46.79,15.86 46.42,16.38 45.61,16.88 Z" fill="none" stroke="currentColor" stroke-width="1.5"/><rect x="0" y="0" width="0" height="0" fill="none" stroke="currentColor"/><path d="M5.25,11.81 L21.75,11.8 L21.75,9.56 L5.25,9.55 Z M0,55.31 L0,5.79 C0,4.1 1.46,2.81 2.91,2.81 L24.06,2.81 C25.71,2.81 27,4.24 27,5.8 L27,32.06 L12.75,32.06 L12.75,40.3 L5.25,40.3 L5.25,42.55 L12.75,42.55 L12.75,47.05 L5.25,47.05 L5.25,49.31 L12.75,49.3 L12.75,55.3 Z M15,59.8 L15,34.31 L45.75,34.31 L45.75,59.8 Z M16.5,58.31 L44.25,58.31 L44.25,35.81 L16.5,35.81 Z M18,56.8 L18,47.29 L21.71,47.29 C22.23,47.29 22.53,46.98 22.68,46.52 L23.18,45.11 L25.34,53.33 C25.52,53.8 25.85,54.04 26.24,54.04 C26.69,54.04 26.96,53.78 27.15,53.38 L29.17,47.29 L32.32,47.29 C32.78,47.26 32.98,47.02 33.13,46.75 L33.6,45.56 L35.1,51.11 C35.24,51.49 35.57,51.78 36,51.8 C36.34,51.79 36.73,51.52 36.91,51.08 L38.18,47.29 L42.75,47.29 L42.75,56.8 Z M18,45.37 L18,37.31 L42.75,37.31 L42.75,45.37 L37.48,45.37 C37.03,45.39 36.77,45.62 36.61,45.98 L36.07,47.58 L34.63,42.27 C34.54,41.98 34.22,41.67 33.82,41.66 C33.42,41.66 33.07,41.9 32.93,42.24 L31.65,45.37 L28.51,45.37 C28.1,45.37 27.78,45.65 27.6,46.08 L26.33,49.83 L24.15,41.58 C23.99,41.19 23.7,40.92 23.25,40.91 C22.85,40.91 22.5,41.23 22.35,41.59 L21.07,45.37 Z" fill="none" stroke="currentColor" stroke-width="1.5"/></svg>