<svg xmlns="http://www.w3.org/2000/svg" viewBox="0 0 53.77 59.67" width="24" height="24"><path d="M45.57,16.88 C44.29,17.6 42.68,17.78 41.09,17.58 C39.18,17.31 37.63,16.41 37.24,15.01 C37.08,14.33 37.27,13.83 37.88,13.55 C38.33,13.4 38.77,13.4 39.2,13.77 C39.61,14.1 39.97,15.04 40.89,15.44 C41.51,15.73 42.53,15.82 43.29,15.55 C43.63,15.42 44.05,15.24 44.37,14.68 C44.8,13.87 44.37,13.05 43.56,12.84 C41.97,12.39 39.66,12.02 38.89,11.49 C38.46,11.23 38.05,10.95 37.71,10.37 C37.3,9.64 37.32,8.94 37.36,8.24 C37.56,6.95 38.22,6.4 38.76,6.02 C39.66,5.41 40.65,5.23 41.58,5.15 C42.4,5.08 43.32,5.16 44.43,5.53 C45.34,5.88 46.27,6.38 46.7,7.22 C46.98,7.82 46.93,8.39 46.39,8.75 C45.99,8.96 45.28,9.15 44.74,8.58 C44.28,8.03 43.81,7.57 43.35,7.4 C42.79,7.18 42.15,7.08 41.38,7.21 C40.96,7.32 40.37,7.41 40.07,8.22 C39.92,8.98 40.25,9.37 40.94,9.65 C43.22,10.33 43.87,10.28 45.02,10.7 C46.2,11.15 47.05,11.87 47.27,13.1 C47.36,13.84 47.33,14.58 47,15.33 C46.75,15.86 46.39,16.38 45.57,16.88 Z M44.38,19.83 C45.91,20.84 48.08,21.29 50.11,19.63 C51.67,18.3 52.32,15.9 50.76,13.53 C51.41,10.25 50.49,6.75 47.36,4.44 C44.51,2.46 41.92,2.71 40.27,3.02 C38.25,1.72 35.89,1.76 34.12,3.65 C32.41,5.7 32.89,8.02 33.88,9.33 L33.74,10.27 C33.34,13.37 34.6,16.01 36.46,17.75 C37.88,19.06 40.17,20.27 43.09,20.02 Z M44.16,21.47 C40.9,22.01 37.83,21.07 35.53,19 C33,16.75 31.69,13.34 32.31,9.63 C30.92,7.37 31.3,4.3 33.32,2.26 C35.32,0.42 38.16,0 40.56,1.38 C43.77,0.87 46.63,1.72 48.96,3.66 C51.9,6.2 52.99,9.79 52.41,13.22 C53.77,15.55 53.3,18.26 51.99,19.93 C49.8,22.7 46.4,22.81 44.16,21.47 Z" fill="none" stroke="currentColor" stroke-width="1.5"/><rect x="0" y="0" width="0" height="0" fill="none" stroke="currentColor"/><path d="M27.39,39.7 C30.56,40.17 34.4,40.02 37.24,39.56 C38.89,39.26 41.04,38.78 42.6,37.59 L42.6,55.06 C42.6,56.32 41.66,57.4 39.97,58.1 C36.55,59.49 29.92,59.67 25.61,58.72 C22.96,58.12 21,56.83 21,55.12 L21,37.59 C22.55,38.7 24.93,39.38 27.39,39.7 Z M20.99,35.04 C20.99,33.4 24.47,32.26 27.73,31.84 C30.82,31.42 33.98,31.54 36.64,31.93 C39.37,32.32 42.75,33.43 42.75,35.01 C42.75,36.63 39.51,37.57 37.95,37.89 C33.91,38.75 28.79,38.59 25.63,37.85 C23.43,37.38 20.99,36.38 20.99,35.04 Z M5.25,11.78 L21.75,11.77 L21.75,9.53 L5.25,9.52 Z M0,55.28 L0,5.77 C0,4.27 1.24,2.78 3.01,2.78 L24.08,2.78 C25.55,2.78 27,4.09 27,5.78 L27,29.64 C24.85,29.93 22.5,30.58 21.1,31.45 C19.64,32.35 18.75,33.46 18.75,35.03 L18.75,40.27 L5.25,40.28 L5.25,42.53 L18.75,42.52 L18.75,47.02 L5.25,47.02 L5.25,49.28 L18.75,49.28 L18.75,55.27 Z" fill="none" stroke="currentColor" stroke-width="1.5"/></svg>