<svg xmlns="http://www.w3.org/2000/svg" viewBox="0 0 53.81 59.98" width="24" height="24"><path d="M5.25,11.8 L21.75,11.8 L21.75,9.55 L5.25,9.55 Z M0,55.29 L0,5.73 C0,4.11 1.47,2.8 2.88,2.8 L24.05,2.8 C25.69,2.8 27,4.24 27,5.72 L27,32.79 L26,32.8 C25.06,32.86 24.29,33.19 23.63,33.77 C22.94,33.2 22.04,32.98 21.09,32.84 C20.06,32.76 19.13,32.77 18.35,32.91 C15.86,33.34 14.67,34.85 14.53,37.08 C14.53,38.17 14.56,39.24 14.6,40.29 L5.25,40.29 L5.25,42.55 L14.66,42.55 L14.7,47.04 L5.25,47.04 L5.25,49.3 L14.7,49.3 C14.7,51.31 14.64,53.31 14.54,55.29 Z M16.7,37.28 C16.68,36 17.4,35.29 18.61,35.07 C19.46,34.92 20.51,34.94 21.07,35.05 C22.11,35.25 23.02,35.85 23.02,37.13 C22.75,44.19 22.75,50.84 22.95,57.59 C23,58.58 22.42,59.49 21.27,59.71 C20.5,59.84 19.74,59.98 18.77,59.78 C17.52,59.58 16.65,58.96 16.67,57.37 C16.88,50.67 16.89,43.98 16.7,37.28 Z M24.74,36.49 C24.77,35.4 25.41,35.07 26.15,35.04 L44.25,35.04 C45.24,35.06 45.69,35.56 45.74,36.42 L45.74,58.39 C45.71,59.11 45.36,59.77 44.3,59.79 L26.19,59.79 C25.23,59.77 24.76,59.27 24.74,58.32 Z M28.49,38.04 L28.49,43.29 L41.99,43.29 L41.99,38.04 Z M29.24,47.82 C29.28,48.25 29.54,48.5 29.93,48.54 L31.55,48.54 C31.94,48.52 32.23,48.26 32.25,47.8 L32.25,46.98 C32.21,46.55 31.93,46.3 31.55,46.3 L29.93,46.3 C29.49,46.32 29.27,46.6 29.24,47 Z M33.73,47.83 C33.77,48.25 34.03,48.5 34.42,48.54 L36.03,48.54 C36.43,48.52 36.72,48.26 36.74,47.8 L36.74,46.98 C36.7,46.56 36.42,46.3 36.03,46.3 L34.42,46.3 C33.98,46.32 33.76,46.61 33.73,47.01 Z M38.25,47.83 C38.28,48.25 38.55,48.5 38.94,48.54 L40.55,48.54 C40.95,48.52 41.24,48.26 41.25,47.8 L41.25,46.98 C41.22,46.56 40.93,46.3 40.55,46.3 L38.94,46.3 C38.49,46.32 38.28,46.61 38.25,47.01 Z M29.24,51.58 C29.28,52.01 29.54,52.26 29.93,52.3 L31.55,52.3 C31.94,52.28 32.23,52.02 32.25,51.56 L32.25,50.74 C32.21,50.31 31.93,50.06 31.55,50.06 L29.93,50.06 C29.49,50.08 29.27,50.36 29.24,50.76 Z M33.73,51.59 C33.77,52.01 34.03,52.26 34.42,52.3 L36.03,52.3 C36.43,52.28 36.72,52.02 36.74,51.56 L36.74,50.74 C36.7,50.32 36.42,50.06 36.03,50.06 L34.42,50.06 C33.98,50.08 33.76,50.37 33.73,50.77 Z M38.25,51.59 C38.28,52.01 38.55,52.26 38.94,52.3 L40.55,52.3 C40.95,52.28 41.24,52.02 41.25,51.56 L41.25,50.74 C41.22,50.32 40.93,50.06 40.55,50.06 L38.94,50.06 C38.49,50.08 38.28,50.37 38.25,50.77 Z M29.24,55.32 C29.28,55.75 29.54,56 29.93,56.04 L31.55,56.04 C31.94,56.02 32.23,55.76 32.25,55.3 L32.25,54.48 C32.21,54.05 31.93,53.8 31.55,53.8 L29.93,53.8 C29.49,53.82 29.27,54.1 29.24,54.5 Z M33.73,55.33 C33.77,55.75 34.03,56 34.42,56.04 L36.03,56.04 C36.43,56.02 36.72,55.76 36.74,55.3 L36.74,54.48 C36.7,54.06 36.42,53.8 36.03,53.8 L34.42,53.8 C33.98,53.82 33.76,54.11 33.73,54.51 Z M38.25,55.33 C38.28,55.75 38.55,56 38.94,56.04 L40.55,56.04 C40.95,56.02 41.24,55.76 41.25,55.3 L41.25,54.48 C41.22,54.06 40.93,53.8 40.55,53.8 L38.94,53.8 C38.49,53.82 38.28,54.11 38.25,54.51 Z" fill="none" stroke="currentColor" stroke-width="1.5"/><path d="M44.2,21.47 C40.95,22.01 37.88,21.07 35.57,19 C33.04,16.75 31.74,13.34 32.36,9.63 C30.96,7.37 31.34,4.3 33.37,2.26 C35.36,0.42 38.21,0 40.61,1.38 C43.82,0.87 46.68,1.72 49.01,3.66 C51.94,6.2 53.03,9.79 52.46,13.22 C53.81,15.55 53.34,18.26 52.03,19.93 C49.84,22.7 46.44,22.81 44.2,21.47 Z M44.42,19.83 C45.96,20.84 48.12,21.29 50.16,19.63 C51.72,18.3 52.37,15.9 50.81,13.53 C51.45,10.25 50.53,6.75 47.4,4.44 C44.55,2.46 41.97,2.71 40.31,3.02 C38.3,1.72 35.93,1.76 34.16,3.65 C32.45,5.7 32.93,8.02 33.93,9.33 L33.78,10.27 C33.39,13.37 34.64,16.01 36.5,17.75 C37.92,19.06 40.22,20.27 43.13,20.02 Z M45.62,16.88 C44.34,17.6 42.72,17.78 41.13,17.58 C39.22,17.31 37.67,16.41 37.28,15.01 C37.12,14.33 37.32,13.83 37.92,13.55 C38.37,13.4 38.82,13.4 39.24,13.77 C39.65,14.1 40.01,15.04 40.94,15.44 C41.55,15.73 42.57,15.82 43.33,15.55 C43.68,15.42 44.1,15.24 44.41,14.68 C44.85,13.87 44.42,13.05 43.6,12.84 C42.01,12.39 39.71,12.02 38.93,11.49 C38.51,11.23 38.09,10.95 37.75,10.37 C37.34,9.64 37.36,8.94 37.4,8.24 C37.6,6.95 38.26,6.4 38.8,6.02 C39.71,5.41 40.69,5.23 41.63,5.15 C42.45,5.08 43.36,5.16 44.47,5.53 C45.39,5.88 46.32,6.38 46.74,7.22 C47.02,7.82 46.98,8.39 46.43,8.75 C46.03,8.96 45.32,9.15 44.79,8.58 C44.32,8.03 43.86,7.57 43.39,7.4 C42.84,7.18 42.2,7.08 41.42,7.21 C41,7.32 40.42,7.41 40.11,8.22 C39.96,8.98 40.29,9.37 40.98,9.65 C43.27,10.33 43.92,10.28 45.06,10.7 C46.25,11.15 47.1,11.87 47.32,13.1 C47.4,13.84 47.38,14.58 47.04,15.33 C46.8,15.86 46.43,16.38 45.62,16.88 Z" fill="none" stroke="currentColor" stroke-width="1.5"/></svg>