<svg xmlns="http://www.w3.org/2000/svg" viewBox="0 0 53.76 55.28" width="24" height="24"><path d="M44.14,21.47 C40.89,22.01 37.82,21.07 35.52,19 C32.99,16.75 31.68,13.34 32.3,9.63 C30.9,7.37 31.28,4.3 33.31,2.26 C35.31,0.42 38.15,0 40.55,1.38 C43.76,0.87 46.62,1.72 48.95,3.66 C51.89,6.2 52.98,9.79 52.4,13.22 C53.76,15.55 53.29,18.26 51.97,19.93 C49.78,22.7 46.38,22.81 44.14,21.47 Z M44.37,19.83 C45.9,20.84 48.07,21.29 50.1,19.63 C51.66,18.3 52.31,15.9 50.75,13.53 C51.39,10.25 50.47,6.75 47.35,4.44 C44.49,2.46 41.91,2.71 40.26,3.02 C38.24,1.72 35.88,1.76 34.1,3.65 C32.4,5.7 32.88,8.02 33.87,9.33 L33.73,10.27 C33.33,13.37 34.58,16.01 36.45,17.75 C37.87,19.06 40.16,20.27 43.07,20.02 Z M45.56,16.88 C44.28,17.6 42.66,17.78 41.08,17.58 C39.16,17.31 37.61,16.41 37.23,15.01 C37.07,14.33 37.26,13.83 37.87,13.55 C38.32,13.4 38.76,13.4 39.19,13.77 C39.6,14.1 39.96,15.04 40.88,15.44 C41.5,15.73 42.52,15.82 43.27,15.55 C43.62,15.42 44.04,15.24 44.35,14.68 C44.79,13.87 44.36,13.05 43.55,12.84 C41.96,12.39 39.65,12.02 38.87,11.49 C38.45,11.23 38.04,10.95 37.7,10.37 C37.29,9.64 37.31,8.94 37.35,8.24 C37.55,6.95 38.2,6.4 38.75,6.02 C39.65,5.41 40.63,5.23 41.57,5.15 C42.39,5.08 43.31,5.16 44.42,5.53 C45.33,5.88 46.26,6.38 46.68,7.22 C46.96,7.82 46.92,8.39 46.38,8.75 C45.98,8.96 45.27,9.15 44.73,8.58 C44.26,8.03 43.8,7.57 43.33,7.4 C42.78,7.18 42.14,7.08 41.36,7.21 C40.94,7.32 40.36,7.41 40.06,8.22 C39.91,8.98 40.23,9.37 40.92,9.65 C43.21,10.33 43.86,10.28 45,10.7 C46.19,11.15 47.04,11.87 47.26,13.1 C47.35,13.84 47.32,14.58 46.98,15.33 C46.74,15.86 46.37,16.38 45.56,16.88 Z" fill="none" stroke="currentColor" stroke-width="1.5"/><rect x="0" y="0" width="0" height="0" fill="none" stroke="currentColor"/><path d="M5.25,11.78 L21.75,11.78 L21.75,9.52 L5.25,9.52 Z M5.25,42.53 L21.75,42.53 L21.75,40.27 L5.25,40.27 Z M5.25,49.28 L21.75,49.28 L21.75,47.02 L5.25,47.02 Z M0,55.28 L0,5.68 C0,4.09 1.46,2.78 2.91,2.78 L24.07,2.78 C25.58,2.78 27,4.08 27,5.73 L27,55.28 Z" fill="none" stroke="currentColor" stroke-width="1.5"/></svg>