<svg xmlns="http://www.w3.org/2000/svg" viewBox="0 0 53.81 59.85" width="24" height="24"><path d="M44.19,21.47 C40.94,22.01 37.87,21.07 35.56,19 C33.03,16.75 31.73,13.34 32.35,9.63 C30.95,7.37 31.33,4.3 33.36,2.26 C35.36,0.42 38.2,0 40.6,1.38 C43.81,0.87 46.67,1.72 49,3.66 C51.94,6.2 53.02,9.79 52.45,13.22 C53.81,15.55 53.34,18.26 52.02,19.93 C49.83,22.7 46.43,22.81 44.19,21.47 Z M44.41,19.83 C45.95,20.84 48.11,21.29 50.15,19.63 C51.71,18.3 52.36,15.9 50.8,13.53 C51.44,10.25 50.52,6.75 47.4,4.44 C44.54,2.46 41.96,2.71 40.3,3.02 C38.29,1.72 35.93,1.76 34.15,3.65 C32.45,5.7 32.92,8.02 33.92,9.33 L33.78,10.27 C33.38,13.37 34.63,16.01 36.49,17.75 C37.92,19.06 40.21,20.27 43.12,20.02 Z M45.61,16.88 C44.33,17.6 42.71,17.78 41.13,17.58 C39.21,17.31 37.66,16.41 37.27,15.01 C37.11,14.33 37.31,13.83 37.92,13.55 C38.37,13.4 38.81,13.4 39.24,13.77 C39.64,14.1 40,15.04 40.93,15.44 C41.55,15.73 42.57,15.82 43.32,15.55 C43.67,15.42 44.09,15.24 44.4,14.68 C44.84,13.87 44.41,13.05 43.59,12.84 C42,12.39 39.7,12.02 38.92,11.49 C38.5,11.23 38.08,10.95 37.75,10.37 C37.34,9.64 37.35,8.94 37.39,8.24 C37.59,6.95 38.25,6.4 38.79,6.02 C39.7,5.41 40.68,5.23 41.62,5.15 C42.44,5.08 43.35,5.16 44.46,5.53 C45.38,5.88 46.31,6.38 46.73,7.22 C47.01,7.82 46.97,8.39 46.42,8.75 C46.02,8.96 45.32,9.15 44.78,8.58 C44.31,8.03 43.85,7.57 43.38,7.4 C42.83,7.18 42.19,7.08 41.41,7.21 C40.99,7.32 40.41,7.41 40.1,8.22 C39.95,8.98 40.28,9.37 40.97,9.65 C43.26,10.33 43.91,10.28 45.05,10.7 C46.24,11.15 47.09,11.87 47.31,13.1 C47.39,13.84 47.37,14.58 47.03,15.33 C46.79,15.86 46.42,16.38 45.61,16.88 Z" fill="none" stroke="currentColor" stroke-width="1.5"/><rect x="0" y="0" width="0" height="0" fill="none" stroke="currentColor"/><path d="M0,59.84 L0,10.33 C0,8.83 1.24,7.34 3.01,7.34 L24.08,7.34 C25.55,7.34 27,8.65 27,10.34 L27,28.35 L18.76,28.36 L18.76,44.83 L5.25,44.83 L5.25,47.09 L18.76,47.09 L18.76,51.58 L5.25,51.58 L5.25,53.84 L18.76,53.84 L18.76,59.84 Z M5.25,16.34 L21.75,16.34 L21.75,14.09 L5.25,14.09 Z M21.01,59.85 L21.01,30.59 L30.9,30.59 L30.9,42.12 L32.39,42.12 L32.39,39.02 L33.87,39.02 L33.87,35.91 L35.36,35.91 L35.36,32.42 L36.84,32.42 L36.84,35.91 L38.32,35.91 L38.32,39.02 L39.81,39.02 L39.81,42.12 L41.29,42.12 L41.26,59.85 Z M23.26,35.86 L24.76,35.86 L24.76,34.35 L23.26,34.35 Z M27,35.86 L28.5,35.86 L28.5,34.35 L27,34.35 Z M23.26,39.61 L24.76,39.61 L24.76,38.1 L23.26,38.1 Z M27,39.61 L28.5,39.61 L28.5,38.1 L27,38.1 Z M23.26,43.35 L24.76,43.35 L24.76,41.85 L23.26,41.85 Z M27,43.35 L28.5,43.35 L28.5,41.85 L27,41.85 Z M23.26,47.1 L24.76,47.1 L24.76,45.6 L23.26,45.6 Z M27,47.1 L28.5,47.1 L28.5,45.6 L27,45.6 Z M23.26,50.85 L24.76,50.85 L24.76,49.35 L23.26,49.35 Z M27,50.85 L28.5,50.85 L28.5,49.35 L27,49.35 Z M33.76,45.6 L35.26,45.6 L35.26,44.1 L33.76,44.1 Z M36.76,48.6 L38.26,48.6 L38.26,47.09 L36.76,47.09 Z M33.76,51.6 L35.26,51.6 L35.26,50.09 L33.76,50.09 Z" fill="none" stroke="currentColor" stroke-width="1.5"/></svg>