<svg xmlns="http://www.w3.org/2000/svg" viewBox="0 0 80.02 51.43" width="24" height="24"><path d="M46.93,23.89 C48.82,24.57 50.19,25.56 51.34,26.68 C50.69,27.05 49.99,27.41 49.17,27.73 C48.35,25.77 47.63,24.73 46.93,23.89 Z M49.77,29.15 C50.76,28.74 51.69,28.28 52.55,27.74 C54.57,30.04 55.02,31.57 55.55,33.04 C54.13,34.01 52.63,34.84 50.98,35.35 C50.8,33.47 50.54,31.52 49.77,29.15 Z M51.01,36.82 C52.9,36.25 54.51,35.5 55.83,34.57 C56.24,37.16 56.07,38.72 55.78,40.09 C53.64,41.7 51.96,42.39 50.3,43.01 C50.53,41.69 50.75,42.3 51.01,36.82 Z M49.82,44.84 C51.34,44.36 52.88,43.85 55.11,42.42 C53.14,47.12 49.72,49.55 46.74,50.58 C47.83,49.36 48.9,47.87 49.82,44.84 Z M48.04,45.3 C46.58,49.18 44.47,50.95 42.65,51.36 L42.65,46.02 C44.53,45.98 46.33,45.75 48.04,45.3 Z M42.64,44.58 L42.64,38.37 C44.47,38.42 46.87,38 49.47,37.42 C49.47,40.06 49.09,41.91 48.66,43.69 C46.24,44.35 44.37,44.52 42.64,44.58 Z M42.72,36.82 L42.72,30.51 C44.64,30.42 46.52,30.16 48.34,29.61 C48.97,31.43 49.3,33.58 49.55,35.83 C47.45,36.44 45.15,36.73 42.72,36.82 Z M42.57,23.01 L43.16,23.01 C44.52,23.46 45.48,24.53 46.03,25.22 C46.85,26.27 47.31,27.23 47.74,28.18 C46.35,28.57 44.74,28.93 42.57,29.01 Z M41.15,29.09 C39.42,29.01 37.73,28.73 36.06,28.25 C36.62,26.88 37.34,25.62 38.33,24.56 C38.94,23.96 39.59,23.41 40.55,23.09 L41.15,23.09 Z M41.22,36.82 C38.64,36.72 36.39,36.38 34.4,35.83 C34.53,34.03 34.58,32.31 35.6,29.62 C37.84,30.32 40.43,30.52 41.23,30.5 Z M41.15,38.31 L41.15,44.52 C39.17,44.58 37.2,44.23 35.22,43.72 C34.6,41.51 34.33,39.4 34.34,37.35 C36.57,37.97 38.84,38.26 41.15,38.31 Z M41.15,46.11 L41.15,51.43 C40.08,51.2 39.2,50.62 38.42,49.84 C37.19,48.57 36.35,47.04 35.73,45.51 C37.53,45.87 39.33,46.14 41.15,46.11 Z M34,44.96 C35.01,48.06 36.09,49.37 37.17,50.62 C32.45,48.84 30.14,45.59 28.86,42.83 C30.54,43.7 32.22,44.57 34,44.96 Z M28.09,40.55 C27.61,38.85 27.48,36.9 27.88,34.57 C29.25,35.41 30.78,36.21 32.81,36.89 C32.8,39.17 33.03,41.27 33.49,43.17 C32.01,42.75 30.3,42.02 28.09,40.55 Z M28.32,33.05 C28.94,30.97 29.99,29.23 31.34,27.74 C32.31,28.4 33.19,28.74 34.1,29.15 C33.35,31.2 33.02,33.48 32.9,35.38 C31.46,34.86 30.01,34.32 28.32,33.05 Z M32.37,26.61 C33.91,25.32 35.41,24.45 36.88,23.9 C36.13,24.78 35.36,25.91 34.56,27.66 C33.74,27.31 32.99,26.96 32.37,26.61 Z M53.26,25.27 C52.57,24.63 51.81,23.99 51.01,23.47 L51.01,10.26 L2.25,10.26 L2.25,40.26 C2.27,40.72 2.51,41 2.99,41.02 L25.82,41.02 C25.98,41.75 26.23,42.52 26.52,43.26 L3.07,43.26 C1.38,43.28 0.09,41.97 0,40.43 L0,5.7 C0.09,3.72 1.69,2.75 3,2.76 L50.32,2.76 C51.97,2.75 53.28,4.23 53.26,5.71 Z M39.75,7.26 L42,7.26 L42,5.01 L39.75,5.01 Z M44.24,7.27 L46.49,7.27 L46.49,5.01 L44.24,5.01 Z M48.75,7.25 L51,7.25 L51,5.01 L48.75,5.01 Z" fill="none" stroke="currentColor" stroke-width="1.5"/><path d="M71.83,16.88 C70.55,17.6 68.93,17.78 67.34,17.58 C65.43,17.31 63.88,16.41 63.49,15.01 C63.33,14.33 63.53,13.83 64.13,13.55 C64.58,13.4 65.03,13.4 65.45,13.77 C65.86,14.1 66.22,15.04 67.14,15.44 C67.76,15.73 68.78,15.82 69.54,15.55 C69.88,15.42 70.31,15.24 70.62,14.68 C71.06,13.87 70.63,13.05 69.81,12.84 C68.22,12.39 65.92,12.02 65.14,11.49 C64.72,11.23 64.3,10.95 63.96,10.37 C63.55,9.64 63.57,8.94 63.61,8.24 C63.81,6.95 64.47,6.4 65.01,6.02 C65.91,5.41 66.9,5.23 67.84,5.15 C68.66,5.08 69.57,5.16 70.68,5.53 C71.6,5.88 72.53,6.38 72.95,7.22 C73.23,7.82 73.18,8.39 72.64,8.75 C72.24,8.96 71.53,9.15 70.99,8.58 C70.53,8.03 70.06,7.57 69.6,7.4 C69.05,7.18 68.41,7.08 67.63,7.21 C67.21,7.32 66.63,7.41 66.32,8.22 C66.17,8.98 66.5,9.37 67.19,9.65 C69.47,10.33 70.13,10.28 71.27,10.7 C72.45,11.15 73.31,11.87 73.53,13.1 C73.61,13.84 73.59,14.58 73.25,15.33 C73.01,15.86 72.64,16.38 71.83,16.88 Z M70.63,19.83 C72.17,20.84 74.33,21.29 76.37,19.63 C77.93,18.3 78.58,15.9 77.02,13.53 C77.66,10.25 76.74,6.75 73.61,4.44 C70.76,2.46 68.18,2.71 66.52,3.02 C64.51,1.72 62.14,1.76 60.37,3.65 C58.66,5.7 59.14,8.02 60.14,9.33 L59.99,10.27 C59.6,13.37 60.85,16.01 62.71,17.75 C64.13,19.06 66.43,20.27 69.34,20.02 Z M70.41,21.47 C67.15,22.01 64.09,21.07 61.78,19 C59.25,16.75 57.95,13.34 58.57,9.63 C57.17,7.37 57.55,4.3 59.57,2.26 C61.57,0.42 64.41,0 66.82,1.38 C70.03,0.87 72.89,1.72 75.21,3.66 C78.15,6.2 79.24,9.79 78.66,13.22 C80.02,15.55 79.55,18.26 78.24,19.93 C76.05,22.7 72.65,22.81 70.41,21.47 Z" fill="none" stroke="currentColor" stroke-width="1.5"/></svg>