<svg xmlns="http://www.w3.org/2000/svg" viewBox="0 0 39.75 50.25" width="24" height="24"><path d="M11.22,34.5 C10.89,34.5 10.5,34.12 10.5,33.79 L10.5,26.27 C10.5,25.91 10.86,25.5 11.24,25.5 L13.49,25.5 C13.88,25.5 14.25,25.87 14.25,26.24 L14.25,33.77 C14.25,34.18 13.81,34.5 13.52,34.5 Z M22.5,39.8 C22.48,40.23 22.26,40.23 22.04,40.02 L16.3,34.28 C16,33.98 15.79,33.56 15.75,33.02 L15.75,27.09 C15.75,26.58 15.93,26.13 16.25,25.75 L22.03,19.99 C22.29,19.74 22.5,19.9 22.5,20.21 Z M24.45,32.48 C25.26,31.84 25.56,31.03 25.65,30.15 C25.65,29.33 25.28,28.32 24.45,27.67 L25.05,26.4 C26.07,27.18 26.92,28.32 26.92,30.12 C26.87,31.81 25.97,32.97 25.05,33.67 Z M26.03,35.7 C27.63,34.67 29.06,32.78 29.18,30.22 C29.22,27.82 28,25.76 26.03,24.45 L26.7,23.03 C28.78,24.34 30.66,26.47 30.67,30.15 C30.64,33.64 28.4,36.13 26.7,37.04 Z M2.25,48 L37.5,48 L37.5,14.25 L26.25,14.25 L26.25,2.26 L2.25,2.26 Z M0,50.25 L0,0 L27.75,0 L39.75,12 L39.75,50.25 Z" fill="none" stroke="currentColor" stroke-width="1.5"/></svg>