<svg xmlns="http://www.w3.org/2000/svg" viewBox="0 0 57.02 57.11" width="24" height="24"><path d="M22.06,35.85 C22.56,35.85 22.82,35.44 22.82,35.12 C22.82,34.61 22.41,34.34 22.08,34.34 C21.62,34.34 21.32,34.72 21.32,35.1 C21.32,35.57 21.76,35.85 22.06,35.85 Z M19.44,38.48 C19.93,38.48 20.19,38.07 20.19,37.75 C20.19,37.24 19.78,36.97 19.45,36.97 C18.99,36.97 18.69,37.35 18.69,37.73 C18.69,38.2 19.13,38.48 19.44,38.48 Z M16.74,41.18 C17.24,41.18 17.5,40.77 17.5,40.45 C17.5,39.94 17.09,39.67 16.76,39.67 C16.3,39.67 16,40.05 16,40.42 C16,40.9 16.44,41.18 16.74,41.18 Z M14.11,43.8 C14.6,43.8 14.87,43.39 14.87,43.07 C14.87,42.56 14.46,42.3 14.13,42.3 C13.67,42.3 13.37,42.67 13.37,43.05 C13.37,43.52 13.8,43.8 14.11,43.8 Z M9.33,51.97 L2.12,56.03 L1.33,56.81 C1.11,57.01 0.7,57.11 0.35,56.8 C0.05,56.53 0,56.06 0.3,55.75 L1.07,54.97 L5.12,47.77 L36.86,15.93 L35.89,14.95 L48.08,2.76 L49.04,3.71 L52.75,0 L57.02,4.27 Z" fill="none" stroke="currentColor" stroke-width="1.5"/></svg>