<svg xmlns="http://www.w3.org/2000/svg" viewBox="0 0 41.44 57.6" width="24" height="24"><path d="M5.25,9 L21.75,9 L21.75,6.75 L5.25,6.75 Z M0,52.5 L0,2.95 C0,1.09 1.68,0 2.87,0 L23.96,0 C25.8,0 27,1.53 27,2.96 L27,20.99 L18.75,20.99 L18.75,37.5 L5.25,37.5 L5.25,39.75 L18.75,39.75 L18.75,44.25 L5.25,44.25 L5.25,46.5 L18.75,46.5 L18.75,52.5 Z M34.48,56.73 L34.48,54.56 L41.44,54.56 L41.44,56.73 Z M32.74,45.86 L34.48,45.86 L34.48,44.12 L32.74,44.12 Z M32.74,39.77 L34.48,39.77 L34.48,38.03 L32.74,38.03 Z M36.22,42.82 L37.96,42.82 L37.96,41.08 L36.22,41.08 Z M27.09,43.26 L28.83,43.26 L28.83,41.51 L27.09,41.51 Z M23.17,43.26 L24.91,43.26 L24.91,41.51 L23.17,41.51 Z M27.09,39.34 L28.83,39.34 L28.83,37.6 L27.09,37.6 Z M23.17,39.34 L24.91,39.34 L24.91,37.6 L23.17,37.6 Z M27.09,35.43 L28.83,35.43 L28.83,33.69 L27.09,33.69 Z M23.17,35.43 L24.91,35.43 L24.91,33.69 L23.17,33.69 Z M27.09,31.51 L28.83,31.51 L28.83,29.77 L27.09,29.77 Z M23.17,31.51 L24.91,31.51 L24.91,29.77 L23.17,29.77 Z M27.09,27.6 L28.83,27.6 L28.83,25.86 L27.09,25.86 Z M23.17,27.6 L24.91,27.6 L24.91,25.86 L23.17,25.86 Z M21,49.34 L21,23.25 L31,23.25 L31,36.29 L32.31,36.29 L32.31,32.82 L33.61,32.82 L33.61,29.34 L34.92,29.34 L34.92,25.42 L36.22,25.42 L36.22,29.33 L37.52,29.34 L37.53,32.82 L38.83,32.82 L38.83,36.29 L40.13,36.3 L40.13,49.34 Z M20.13,56.73 L20.13,54.56 L27.09,54.56 L27.09,56.73 Z M27.96,57.6 L27.96,53.69 L33.61,53.69 L33.61,57.6 Z M29.7,52.82 L29.7,50.21 L31.87,50.21 L31.87,52.82 Z" fill="none" stroke="currentColor" stroke-width="1.5"/></svg>