<svg xmlns="http://www.w3.org/2000/svg" viewBox="0 0 36.75 59.25" width="24" height="24"><path d="M24.75,57.75 L24.75,54 L36.75,54 L36.75,57.75 Z M21.75,39 L24.75,39 L24.75,36 L21.75,36 Z M21.75,28.5 L24.75,28.5 L24.75,25.5 L21.75,25.5 Z M27.75,33.75 L30.75,33.75 L30.75,30.75 L27.75,30.75 Z M12,34.5 L15,34.5 L15,31.5 L12,31.5 Z M5.25,34.5 L8.25,34.5 L8.25,31.5 L5.25,31.5 Z M12,27.75 L15,27.75 L15,24.75 L12,24.75 Z M5.25,27.75 L8.25,27.75 L8.25,24.75 L5.25,24.75 Z M12,21 L15,21 L15,18 L12,18 Z M5.25,21 L8.25,21 L8.25,18 L5.25,18 Z M12,14.25 L15,14.25 L15,11.25 L12,11.25 Z M5.25,14.25 L8.25,14.25 L8.25,11.25 L5.25,11.25 Z M12,7.5 L15,7.5 L15,4.5 L12,4.5 Z M5.25,7.5 L8.25,7.5 L8.25,4.5 L5.25,4.5 Z M1.5,45 L1.5,0 L18.75,0 L18.75,22.5 L21,22.5 L21,16.5 L23.25,16.5 L23.25,10.5 L25.5,10.5 L25.5,3.75 L27.75,3.75 L27.75,10.49 L30,10.5 L30,16.5 L32.25,16.5 L32.25,22.5 L34.5,22.5 L34.49,45 Z M0,57.75 L0,54 L12,54 L12,57.75 Z M13.5,59.25 L13.5,52.5 L23.25,52.5 L23.25,59.25 Z M16.5,51 L16.5,46.5 L20.25,46.5 L20.25,51 Z" fill="none" stroke="currentColor" stroke-width="1.5"/></svg>