<svg xmlns="http://www.w3.org/2000/svg" viewBox="0 0 57.75 54.73" width="24" height="24"><path d="M37.5,37.48 L45.75,37.48 L45.75,35.23 L37.5,35.23 Z M25.5,41.98 L25.5,41.04 C25.5,39.1 27.28,37.48 29.04,37.48 L36,37.48 L36,35.16 C36,34.33 36.63,33.73 37.5,33.73 L45.77,33.73 C46.83,33.73 47.25,34.54 47.25,35.17 L47.25,37.48 L54.11,37.48 C55.87,37.48 57.75,39.19 57.75,41.07 L57.75,41.98 L51,41.98 L51,41.44 C51,40.99 50.54,40.48 49.85,40.48 C49.39,40.48 48.75,40.84 48.75,41.48 L48.75,41.98 L34.5,41.98 L34.5,41.43 C34.5,40.92 33.93,40.47 33.39,40.47 C32.74,40.47 32.25,40.97 32.25,41.44 L32.25,41.98 Z M25.5,54.73 L25.5,43.48 L32.25,43.48 L32.25,44.77 C32.25,45.22 32.74,45.73 33.39,45.73 C33.84,45.73 34.5,45.39 34.5,44.73 L34.5,43.48 L48.75,43.48 L48.75,44.78 C48.75,45.28 49.26,45.73 49.9,45.73 C50.48,45.73 51,45.25 51,44.8 L51,43.48 L57.75,43.48 L57.75,54.73 Z M9,3.75 L6.75,3.75 L6.75,0 L45.75,0 L45.75,3.74 L43.5,3.74 L43.5,2.25 L9,2.25 Z M35.99,17.99 L35.99,11.25 L42,11.25 L42,17.99 Z M12.75,23.99 L12.75,21.75 L28.49,21.75 L28.49,23.99 Z M12.75,29.24 L12.75,27 L33,27 L33,29.24 Z M0,48.74 L0,33.75 L3.76,18.08 L5.25,18.08 L5.25,6 L47.25,6 L47.25,18.08 L48.75,18.08 L52.5,33.73 L52.5,35.23 L49.5,35.23 C49.47,32.91 47.79,31.52 45.87,31.48 L45,31.48 L45,8.24 L7.5,8.24 L7.5,33.74 L34.02,33.74 C33.81,34.23 33.76,34.73 33.75,35.22 L28.91,35.22 C26.04,35.22 23.25,37.94 23.25,41.03 L23.25,48.74 Z" fill="none" stroke="currentColor" stroke-width="1.5"/></svg>