<svg xmlns="http://www.w3.org/2000/svg" viewBox="0 0 59.25 45.75" width="24" height="24"><path d="M48.03,8.98 C48.98,8.98 49.52,8.23 49.52,7.46 C49.52,6.72 48.88,5.99 48.02,5.99 C47.33,5.99 46.52,6.51 46.52,7.54 C46.52,8.25 47.1,8.98 48.03,8.98 Z M48.04,14.98 C48.98,14.98 49.52,14.22 49.52,13.45 C49.52,12.71 48.88,11.99 48.03,11.99 C47.33,11.99 46.52,12.51 46.52,13.53 C46.52,14.24 47.11,14.98 48.04,14.98 Z M42.02,8.98 C42.97,8.98 43.51,8.23 43.51,7.46 C43.51,6.72 42.87,5.99 42.01,5.99 C41.32,5.99 40.51,6.51 40.51,7.54 C40.51,8.25 41.09,8.98 42.02,8.98 Z M42.03,14.98 C42.97,14.98 43.52,14.22 43.52,13.45 C43.52,12.71 42.87,11.99 42.02,11.99 C41.33,11.99 40.51,12.51 40.51,13.53 C40.51,14.24 41.1,14.98 42.03,14.98 Z M36.02,8.98 C36.96,8.98 37.5,8.23 37.5,7.46 C37.5,6.72 36.86,5.99 36,5.99 C35.31,5.99 34.5,6.51 34.5,7.54 C34.5,8.25 35.08,8.98 36.02,8.98 Z M36.02,14.98 C36.96,14.98 37.51,14.22 37.51,13.45 C37.51,12.71 36.86,11.99 36.01,11.99 C35.32,11.99 34.51,12.51 34.51,13.53 C34.51,14.24 35.09,14.98 36.02,14.98 Z M30.01,8.98 C30.95,8.98 31.49,8.23 31.49,7.46 C31.49,6.72 30.85,5.99 29.99,5.99 C29.3,5.99 28.49,6.51 28.49,7.54 C28.49,8.25 29.08,8.98 30.01,8.98 Z M43.95,33 L40.94,30 L38.69,30 L40.94,32.25 L36,32.25 L36,33.75 L40.94,33.75 L38.7,36 L40.95,36 Z M47.25,30.75 L47.25,25.8 L49.5,28.05 L49.5,25.8 L46.49,22.8 L43.5,25.8 L43.5,28.05 L45.75,25.8 L45.75,30.75 Z M52.05,36 L54.29,36 L52.05,33.75 L57,33.75 L57,32.25 L52.05,32.25 L54.29,30 L52.04,30 L49.05,33 Z M46.5,43.19 L49.5,40.2 L49.5,37.95 L47.25,40.2 L47.25,35.25 L45.75,35.25 L45.75,40.19 L43.5,37.95 L43.5,40.2 Z M35.96,45.75 C34.76,45.75 33.75,44.79 33.75,43.52 L33.75,22.5 C33.75,21.15 34.79,20.25 35.99,20.25 L57,20.25 C58.41,20.25 59.25,21.4 59.25,22.45 L59.25,43.46 C59.25,44.99 58.08,45.75 56.99,45.75 Z M30.01,14.98 C30.95,14.98 31.5,14.22 31.5,13.45 C31.5,12.71 30.85,11.99 30,11.99 C29.31,11.99 28.5,12.51 28.5,13.53 C28.5,14.24 29.08,14.98 30.01,14.98 Z M7.5,14.25 L7.5,7.5 L21,7.5 L21,14.25 Z M6,16.5 L22.5,16.5 L22.5,6 L6,6 Z M6,21 L22.5,21 L22.5,19.5 L6,19.5 Z M0,27.75 L0,3.43 C0,1.4 2.09,0 3.39,0 L52.09,0 C53.82,0 55.5,1.72 55.5,3.38 L55.5,17.99 L35.99,17.99 C33.83,17.99 31.49,19.73 31.49,22.55 L31.49,27.75 Z" fill="none" stroke="currentColor" stroke-width="1.5"/></svg>