<svg xmlns="http://www.w3.org/2000/svg" viewBox="0 0 50.18 55.92" width="24" height="24"><path d="M41.25,38.68 L48,38.68 L48,37.93 L41.25,37.93 Z M41.25,50.69 L48,50.69 L48,49.94 L41.25,49.94 Z M41.25,52.93 L48,52.93 L48,52.18 L41.25,52.18 Z M21.75,38.68 L28.5,38.68 L28.5,37.93 L21.75,37.93 Z M21.75,50.69 L28.5,50.69 L28.5,49.94 L21.75,49.94 Z M21.75,52.93 L28.5,52.93 L28.5,52.18 L21.75,52.18 Z M2.25,38.68 L9,38.68 L9,37.93 L2.25,37.93 Z M2.25,50.69 L9,50.69 L9,49.94 L2.25,49.94 Z M2.25,52.93 L9,52.93 L9,52.18 L2.25,52.18 Z M35.6,16.17 C36.66,16.17 37.61,15.28 38.05,14.16 C38.53,12.88 38.33,11.69 37.49,10.76 C37.13,10.33 36.5,10.02 35.85,9.72 C35.9,9.11 35.96,8.53 35.89,7.72 C35.69,6.19 34.74,4.98 33.56,4.46 C32.43,3.98 31.52,4.18 30.78,4.46 L29.25,5.22 C28.78,4.39 28.36,3.4 27.85,2.92 C26.85,1.9 25.6,1.6 24.39,1.85 C22.1,2.48 21.27,4.51 21.22,5.83 L21.15,7.55 L19.49,7.25 C18.36,7.04 17.41,7.53 16.85,8.37 L16.35,9.2 C15.85,9.16 15.34,9.08 14.88,9.14 C13.76,9.26 12.7,10.05 12.22,11.36 C11.81,12.66 12.01,13.72 12.55,14.66 C13.19,15.61 14.04,16.11 15.11,16.17 Z M11.18,55.92 L0,55.92 L0,36.08 C0,35.55 0.47,34.93 1.17,34.93 L4.5,34.93 L4.5,25.93 L24,25.93 L24,17.67 L14.99,17.67 C13.33,17.56 11.65,16.55 10.85,14.58 C10.13,12.59 10.63,11.05 11.26,9.9 C12.34,8.24 13.86,7.55 15.52,7.62 C16.3,6.4 17.67,5.57 19.2,5.69 L19.72,5.75 C19.79,5.07 19.89,4.1 20.68,2.82 C21.76,1.14 23.69,0 25.96,0.33 C27.92,0.68 29.26,2.02 29.92,3.27 C30.92,2.71 32.6,2.48 34.16,3.22 C35.59,3.9 36.77,5.22 37.21,7.09 C37.32,7.51 37.37,8.15 37.35,8.98 C38.22,9.48 39.01,10.29 39.48,11.63 C40.11,13.41 39.53,15.14 38.54,16.25 C37.84,16.98 37,17.54 35.58,17.67 L26.25,17.67 L26.25,25.93 L45.75,25.93 L45.75,34.93 L49,34.93 C49.6,34.93 50.18,35.41 50.18,36.13 L50.18,55.92 L39,55.92 L39,36.15 C39,35.35 39.64,34.93 40.23,34.93 L43.5,34.93 L43.5,28.17 L26.25,28.17 L26.25,34.94 L29.55,34.93 C30.22,34.93 30.75,35.45 30.75,36.11 L30.75,55.92 L19.58,55.92 L19.58,36.14 C19.58,35.39 20.17,34.93 20.76,34.93 L24,34.93 L24,28.17 L6.75,28.17 L6.75,34.94 L9.96,34.93 C10.74,34.93 11.18,35.55 11.18,36.13 Z" fill="none" stroke="currentColor" stroke-width="1.5"/></svg>