<svg xmlns="http://www.w3.org/2000/svg" viewBox="0 0 59.25 59.17" width="24" height="24"><path d="M57,51.75 L57,41.25 L37.5,41.25 L37.5,51.75 Z M41.22,59.17 C40.82,59.17 40.5,58.88 40.5,58.27 C40.5,57.91 40.67,57.4 41.2,57.38 C42.13,57.34 43.15,57.34 44.03,57.03 C44.72,56.77 44.89,56.31 44.76,55.67 C44.67,55.11 44.43,54.55 44.25,54 L36.72,54 C35.99,54 35.25,53.36 35.25,52.53 L35.25,40.55 C35.25,39.62 35.96,39 36.74,39 L57.72,39 C58.66,39 59.25,39.77 59.25,40.46 L59.25,52.5 C59.25,53.33 58.56,54 57.76,54 L50.25,54 C50.04,54.65 49.77,55.34 49.72,55.83 C49.62,56.55 50.02,56.85 50.52,57.05 C51.41,57.33 52.35,57.34 53.29,57.37 C53.83,57.4 54,57.82 54,58.29 C54,58.71 53.77,59.16 53.28,59.17 Z M57,12.75 L57,2.25 L37.5,2.25 L37.5,12.75 Z M41.22,20.17 C40.81,20.17 40.5,19.88 40.5,19.27 C40.5,18.91 40.66,18.4 41.19,18.37 C42.12,18.34 43.15,18.34 44.02,18.03 C44.72,17.77 44.88,17.31 44.76,16.67 C44.67,16.11 44.42,15.55 44.25,15 L36.71,15 C35.99,15 35.25,14.36 35.25,13.53 L35.25,1.55 C35.25,0.62 35.95,0 36.74,0 L57.72,0 C58.66,0 59.25,0.77 59.25,1.46 L59.25,13.5 C59.25,14.33 58.56,15 57.76,15 L50.25,15 C50.03,15.64 49.77,16.34 49.71,16.83 C49.62,17.55 50.01,17.85 50.52,18.05 C51.41,18.33 52.35,18.34 53.28,18.37 C53.83,18.4 54,18.82 54,19.29 C54,19.71 53.77,20.16 53.27,20.17 Z M21.75,12.76 L21.75,2.25 L2.25,2.25 L2.25,12.76 Z M5.97,20.17 C5.56,20.17 5.25,19.88 5.25,19.27 C5.25,18.91 5.41,18.4 5.94,18.38 C6.87,18.34 7.9,18.34 8.77,18.03 C9.47,17.77 9.64,17.31 9.51,16.68 C9.42,16.12 9.17,15.55 9,15 L1.46,15 C0.74,15 0,14.36 0,13.54 L0,1.55 C0,0.63 0.7,0 1.49,0 L22.47,0 C23.41,0 24,0.78 24,1.46 L24,13.5 C24,14.33 23.31,15 22.51,15 L15,15 C14.78,15.65 14.52,16.34 14.46,16.83 C14.37,17.56 14.76,17.85 15.27,18.05 C16.16,18.33 17.1,18.34 18.04,18.37 C18.58,18.4 18.75,18.82 18.75,19.3 C18.75,19.71 18.52,20.16 18.03,20.17 Z M43.67,34.97 C43.43,34.66 43.44,34.26 43.74,33.96 C43.98,33.74 44.4,33.65 44.72,33.93 L47.8,37.01 C48.09,37.33 48.03,37.77 47.77,38.03 C47.45,38.34 46.99,38.29 46.76,38.06 Z M44.73,25.32 C44.52,25.52 44.06,25.59 43.76,25.31 C43.47,25.03 43.39,24.59 43.7,24.25 L46.77,21.18 C47.11,20.89 47.53,20.96 47.8,21.24 C48.03,21.49 48.1,21.89 47.82,22.22 Z M37.52,29.25 C37.1,29.25 36.75,28.93 36.75,28.51 C36.75,28.18 37,27.75 37.5,27.75 C37.99,27.75 38.25,28.15 38.25,28.48 C38.25,29 37.83,29.25 37.52,29.25 Z M36,31.49 C35.63,31.49 35.25,31.2 35.25,30.75 C35.25,30.37 35.55,29.99 36,29.99 L38.99,29.99 C39.5,29.99 39.75,30.42 39.75,30.72 C39.75,31.16 39.49,31.49 39,31.49 Z M32.27,29.25 C31.85,29.25 31.5,28.93 31.5,28.51 C31.5,28.18 31.75,27.75 32.25,27.75 C32.74,27.75 33,28.15 33,28.48 C33,29 32.58,29.25 32.27,29.25 Z M30.75,31.49 C30.38,31.49 30,31.2 30,30.75 C30,30.37 30.3,29.99 30.75,29.99 L33.73,29.99 C34.25,29.99 34.5,30.42 34.5,30.72 C34.5,31.16 34.24,31.49 33.75,31.49 Z M27.01,29.25 C26.6,29.25 26.25,28.93 26.25,28.51 C26.25,28.18 26.5,27.75 27,27.75 C27.49,27.75 27.75,28.15 27.75,28.48 C27.75,29 27.33,29.25 27.01,29.25 Z M25.5,31.49 C25.13,31.49 24.75,31.2 24.75,30.75 C24.75,30.37 25.05,29.99 25.5,29.99 L28.48,29.99 C29,29.99 29.25,30.42 29.25,30.72 C29.25,31.16 28.99,31.49 28.5,31.49 Z M21.75,51.75 L21.75,41.25 L2.25,41.25 L2.25,51.75 Z M5.97,59.17 C5.56,59.17 5.25,58.88 5.25,58.27 C5.25,57.91 5.41,57.4 5.94,57.37 C6.87,57.34 7.9,57.34 8.77,57.02 C9.47,56.77 9.64,56.31 9.51,55.67 C9.42,55.11 9.18,54.55 9,54 L1.46,54 C0.74,54 0,53.35 0,52.53 L0,40.55 C0,39.62 0.7,39 1.49,39 L22.47,39 C23.41,39 24,39.77 24,40.46 L24,52.5 C24,53.33 23.31,54 22.51,54 L15,54 C14.78,54.64 14.52,55.34 14.47,55.82 C14.37,56.55 14.76,56.85 15.27,57.04 C16.16,57.33 17.1,57.34 18.04,57.37 C18.58,57.4 18.75,57.82 18.75,58.29 C18.75,58.71 18.52,59.15 18.03,59.17 Z M21.76,29.25 C21.35,29.25 21,28.93 21,28.51 C21,28.18 21.25,27.75 21.75,27.75 C22.24,27.75 22.5,28.15 22.5,28.48 C22.5,29 22.08,29.25 21.76,29.25 Z M20.25,31.49 C19.88,31.49 19.5,31.2 19.5,30.75 C19.5,30.37 19.8,29.99 20.25,29.99 L23.23,29.99 C23.74,29.99 24,30.42 24,30.72 C24,31.16 23.74,31.49 23.25,31.49 Z M18,33 L41.25,33 L41.25,27.07 C41.25,26.66 40.85,26.24 40.41,26.24 L18.77,26.24 C18.5,26.24 18,26.61 18,27.04 Z M16.5,34.49 L16.5,27 C16.5,25.94 17.56,24.74 18.76,24.74 L40.45,24.74 C41.8,24.74 42.75,25.95 42.75,26.99 L42.75,34.49 Z M11.42,22.22 C11.18,21.91 11.19,21.51 11.49,21.21 C11.74,20.98 12.15,20.9 12.48,21.18 L15.55,24.25 C15.85,24.57 15.79,25.02 15.52,25.28 C15.2,25.59 14.75,25.54 14.51,25.31 Z M12.48,38.07 C12.27,38.27 11.81,38.34 11.51,38.06 C11.21,37.78 11.14,37.35 11.45,37 L14.52,33.93 C14.86,33.64 15.28,33.71 15.55,34 C15.78,34.25 15.85,34.64 15.57,34.97 Z" fill="none" stroke="currentColor" stroke-width="1.5"/></svg>