<svg xmlns="http://www.w3.org/2000/svg" viewBox="0 0 46.49 57.0" width="24" height="24"><path d="M21.75,9 L21.75,6.75 L5.25,6.75 L5.25,9 Z M32.53,57 C24.77,57 18.75,50.56 18.75,43.02 C18.75,35.92 24.58,29.25 32.6,29.25 C39.91,29.25 46.49,35.07 46.49,43.18 C46.49,50.66 40.4,57 32.53,57 Z M30.67,51 L41.32,37.43 C41.49,37.2 41.45,36.92 41.26,36.74 L39.37,35.18 C39.19,35.05 38.88,35 38.7,35.25 L30.67,45.89 L26.58,41.44 C26.39,41.22 26.07,41.13 25.87,41.34 L24.18,42.87 C23.95,43.05 24.05,43.46 24.15,43.58 Z M0,52.5 L0,2.96 C0,1.48 1.24,0 2.98,0 L24.09,0 C25.72,0 27,1.47 27,2.93 L27,28 C22.08,29.84 19.01,33.57 17.5,37.5 L5.25,37.5 L5.25,39.75 L16.85,39.75 C16.53,41.25 16.43,42.82 16.54,44.25 L5.25,44.25 L5.25,46.5 L16.85,46.5 C17.36,48.88 18.33,50.85 19.49,52.5 Z" fill="none" stroke="currentColor" stroke-width="1.5"/></svg>