<svg xmlns="http://www.w3.org/2000/svg" viewBox="0 0 55.5 56.37" width="24" height="24"><path d="M12.19,26.28 L12.19,25.05 C12.18,24.21 12.44,23.1 13.45,21.93 C14.18,21.13 14.98,20.54 15.76,19.91 C16.48,19.36 17.09,18.83 17.58,18.3 C18.27,17.52 18.86,16.67 18.77,15.37 C18.65,14.42 18.2,13.71 17.22,13.41 C15.59,13.03 14.04,13.75 12.78,14.95 L12.78,12.7 C13.88,11.92 15.12,11.48 16.51,11.41 C18.05,11.39 19.05,11.76 19.82,12.32 C20.93,13.18 21.37,14.4 21.24,15.93 C21.1,17.39 20.3,18.68 19.05,19.83 C18.38,20.47 17.21,21.36 16.14,22.2 C15.24,22.98 14.8,23.55 14.81,24.19 L21.42,24.19 L21.42,26.28 Z M24.35,50.25 L0,50.25 L0,0 L27.75,0 L39.75,12 L39.75,29.25 L37.5,29.25 L37.5,14.25 L26.25,14.25 L26.25,2.25 L2.25,2.25 L2.25,48 L24.42,48 C24.41,48.76 24.39,49.51 24.35,50.25 Z M24.42,41.25 L12,41.25 L12,39 L24.42,39 Z M7.86,42 C6.92,42 6,41.24 6,40.12 C6,39.15 6.79,38.25 7.87,38.25 C8.82,38.25 9.75,39 9.75,40.14 C9.75,41.24 8.84,42 7.86,42 Z M24.8,31.5 C24.52,32.08 24.32,32.65 24.27,33.75 L12,33.75 L12,31.5 Z M7.84,34.5 C7.18,34.5 6,33.98 6,32.6 C6,31.42 7.05,30.75 7.85,30.75 C8.91,30.75 9.75,31.61 9.75,32.59 C9.75,33.75 8.84,34.5 7.84,34.5 Z M28.24,56.17 C27.27,55.94 26.46,55.48 26.45,53.87 C26.62,47.23 26.77,40.57 26.44,33.7 C26.49,32.49 27.1,31.68 28.61,31.5 C29.38,31.38 30.15,31.41 30.91,31.53 C32.34,31.84 32.78,32.66 32.78,33.7 C32.49,40.44 32.49,47.17 32.73,53.91 C32.72,55.13 32.27,55.95 30.84,56.2 C30,56.36 29.13,56.37 28.24,56.17 Z M36.11,56.25 C34.97,56.25 34.56,55.72 34.5,54.88 L34.5,32.96 C34.5,32 35.09,31.5 35.96,31.5 L53.97,31.5 C55.34,31.5 55.5,32.44 55.5,32.96 L55.5,54.73 C55.5,55.59 55.1,56.27 53.96,56.25 Z M38.25,39.75 L51.75,39.75 L51.75,34.5 L38.25,34.5 Z M41.27,52.51 C41.69,52.51 42.01,52.17 42.01,51.75 L42.01,50.99 C42.01,50.66 41.73,50.25 41.27,50.25 L39.73,50.25 C39.24,50.25 39,50.58 39,50.99 L39,51.75 C39,52.37 39.46,52.51 39.73,52.51 Z M45.77,52.51 C46.19,52.51 46.51,52.17 46.51,51.75 L46.51,50.99 C46.51,50.66 46.23,50.25 45.77,50.25 L44.23,50.25 C43.74,50.25 43.5,50.58 43.5,50.99 L43.5,51.75 C43.5,52.37 43.96,52.51 44.23,52.51 Z M50.27,52.51 C50.7,52.51 51.01,52.17 51.01,51.75 L51.01,50.99 C51.01,50.66 50.73,50.25 50.27,50.25 L48.73,50.25 C48.24,50.25 48,50.58 48,50.99 L48,51.75 C48,52.37 48.47,52.51 48.73,52.51 Z M41.27,48.76 C41.69,48.76 42.01,48.43 42.01,48.01 L42.01,47.25 C42.01,46.91 41.73,46.51 41.27,46.51 L39.73,46.51 C39.24,46.51 39,46.84 39,47.25 L39,48.01 C39,48.63 39.46,48.76 39.73,48.76 Z M45.77,48.76 C46.19,48.76 46.51,48.43 46.51,48.01 L46.51,47.25 C46.51,46.91 46.23,46.51 45.77,46.51 L44.23,46.51 C43.74,46.51 43.5,46.84 43.5,47.25 L43.5,48.01 C43.5,48.63 43.96,48.76 44.23,48.76 Z M50.27,48.76 C50.7,48.76 51.01,48.43 51.01,48.01 L51.01,47.25 C51.01,46.91 50.73,46.51 50.27,46.51 L48.73,46.51 C48.24,46.51 48,46.84 48,47.25 L48,48.01 C48,48.63 48.47,48.76 48.73,48.76 Z M41.27,45 C41.69,45 42.01,44.67 42.01,44.25 L42.01,43.49 C42.01,43.15 41.73,42.75 41.27,42.75 L39.73,42.75 C39.24,42.75 39,43.08 39,43.49 L39,44.25 C39,44.87 39.46,45 39.73,45 Z M45.77,45 C46.19,45 46.51,44.67 46.51,44.25 L46.51,43.49 C46.51,43.15 46.23,42.75 45.77,42.75 L44.23,42.75 C43.74,42.75 43.5,43.08 43.5,43.49 L43.5,44.25 C43.5,44.87 43.96,45 44.23,45 Z M50.27,45 C50.7,45 51.01,44.67 51.01,44.25 L51.01,43.49 C51.01,43.15 50.73,42.75 50.27,42.75 L48.73,42.75 C48.24,42.75 48,43.08 48,43.49 L48,44.25 C48,44.87 48.47,45 48.73,45 Z" fill="none" stroke="currentColor" stroke-width="1.5"/></svg>