<svg xmlns="http://www.w3.org/2000/svg" viewBox="0 0 59.26 57.11" width="24" height="24"><path d="M0,48.73 L0,33.75 L3.75,18.07 L5.25,18.07 L5.25,6 L47.25,6 L47.25,18.07 L48.75,18.07 L51.6,29.99 L45,29.99 L45,8.24 L7.5,8.24 L7.5,33.75 L28.09,33.74 C27.98,34.19 28.06,37.02 28.17,39.69 C28.19,42.18 28.23,45.76 28.18,48.73 Z M12.75,29.25 L12.75,27 L33,27 L33,29.25 Z M12.75,24 L12.75,21.75 L28.5,21.75 L28.5,24 Z M36,18 L36,11.25 L42,11.25 L42,18 Z M6.75,3.74 L6.75,0 L45.75,0 L45.75,3.75 L43.5,3.75 L43.5,2.25 L9,2.25 L9,3.74 Z M54.03,45.75 C54.45,45.75 54.77,45.42 54.76,45 L54.76,44.24 C54.76,43.9 54.49,43.5 54.03,43.5 L52.49,43.5 C52,43.5 51.76,43.82 51.76,44.24 L51.76,45 C51.76,45.61 52.22,45.75 52.49,45.75 Z M49.53,45.75 C49.95,45.75 50.26,45.42 50.26,45 L50.26,44.24 C50.26,43.9 49.98,43.5 49.53,43.5 L47.98,43.5 C47.5,43.5 47.26,43.82 47.26,44.24 L47.26,45 C47.26,45.61 47.72,45.75 47.98,45.75 Z M45.03,45.75 C45.45,45.75 45.76,45.42 45.76,45 L45.76,44.24 C45.76,43.9 45.48,43.5 45.03,43.5 L43.48,43.5 C43,43.5 42.76,43.82 42.76,44.24 L42.76,45 C42.76,45.61 43.22,45.75 43.48,45.75 Z M54.03,49.51 C54.45,49.51 54.77,49.18 54.76,48.76 L54.76,48 C54.76,47.66 54.49,47.26 54.03,47.26 L52.49,47.26 C52,47.26 51.76,47.58 51.76,48 L51.76,48.76 C51.76,49.37 52.22,49.51 52.49,49.51 Z M49.53,49.51 C49.95,49.51 50.26,49.18 50.26,48.76 L50.26,48 C50.26,47.66 49.98,47.26 49.53,47.26 L47.98,47.26 C47.5,47.26 47.26,47.58 47.26,48 L47.26,48.76 C47.26,49.37 47.72,49.51 47.98,49.51 Z M45.03,49.51 C45.45,49.51 45.76,49.18 45.76,48.76 L45.76,48 C45.76,47.66 45.48,47.26 45.03,47.26 L43.48,47.26 C43,47.26 42.76,47.58 42.76,48 L42.76,48.76 C42.76,49.37 43.22,49.51 43.48,49.51 Z M54.03,53.25 C54.45,53.25 54.77,52.92 54.76,52.5 L54.76,51.74 C54.76,51.4 54.49,51 54.03,51 L52.49,51 C52,51 51.76,51.32 51.76,51.74 L51.76,52.5 C51.76,53.11 52.22,53.25 52.49,53.25 Z M49.53,53.25 C49.95,53.25 50.26,52.92 50.26,52.5 L50.26,51.74 C50.26,51.4 49.98,51 49.53,51 L47.98,51 C47.5,51 47.26,51.32 47.26,51.74 L47.26,52.5 C47.26,53.11 47.72,53.25 47.98,53.25 Z M45.03,53.25 C45.45,53.25 45.76,52.92 45.76,52.5 L45.76,51.74 C45.76,51.4 45.48,51 45.03,51 L43.48,51 C43,51 42.76,51.32 42.76,51.74 L42.76,52.5 C42.76,53.11 43.22,53.25 43.48,53.25 Z M42.01,40.5 L55.51,40.5 L55.51,35.25 L42.01,35.25 Z M39.86,57 C38.73,57 38.32,56.47 38.25,55.62 L38.25,33.71 C38.25,32.74 38.85,32.25 39.72,32.25 L57.73,32.25 C59.1,32.25 59.26,33.19 59.26,33.7 L59.26,55.48 C59.26,56.34 58.85,57.02 57.71,57 Z M31.99,56.92 C31.03,56.68 30.21,56.23 30.2,54.62 C30.38,47.97 30.53,41.32 30.2,34.44 C30.25,33.24 30.85,32.43 32.36,32.24 C33.14,32.13 33.91,32.15 34.66,32.27 C36.1,32.58 36.53,33.41 36.54,34.45 C36.25,41.18 36.24,47.92 36.48,54.66 C36.48,55.88 36.02,56.69 34.6,56.95 C33.75,57.11 32.89,57.11 31.99,56.92 Z" fill="none" stroke="currentColor" stroke-width="1.5"/></svg>