<svg xmlns="http://www.w3.org/2000/svg" viewBox="0 0 59.25 48.13" width="24" height="24"><path d="M20.41,20.78 C20.99,20.77 21.24,20.34 21.4,19.77 C21.54,19.16 21.56,18.53 21.51,17.89 C21.45,17.33 21.38,16.77 21.16,16.36 C20.99,16.01 20.74,15.83 20.42,15.82 C20.09,15.83 19.79,15.96 19.56,16.48 C19.34,17.03 19.3,17.67 19.29,18.32 C19.28,18.94 19.34,19.5 19.49,19.97 C19.68,20.52 20,20.76 20.41,20.78 Z M20.21,21.53 C19.58,21.48 19,21.3 18.57,20.3 C18.31,19.59 18.18,18.79 18.26,17.84 C18.34,16.9 18.57,16.13 19.01,15.59 C19.49,15.08 20,15.02 20.52,14.99 C21.07,15 21.49,15.18 21.82,15.5 C22.4,16.14 22.58,17.07 22.59,18.13 C22.59,19.71 22.24,20.25 21.92,20.81 C21.62,21.2 21.21,21.52 20.21,21.53 Z M15.15,20.78 C15.73,20.77 15.98,20.34 16.14,19.77 C16.28,19.16 16.3,18.53 16.25,17.89 C16.19,17.33 16.12,16.77 15.9,16.36 C15.73,16.01 15.48,15.83 15.16,15.82 C14.83,15.83 14.53,15.96 14.3,16.48 C14.08,17.03 14.04,17.67 14.03,18.32 C14.02,18.94 14.08,19.5 14.23,19.97 C14.43,20.52 14.74,20.76 15.15,20.78 Z M14.95,21.53 C14.32,21.48 13.74,21.3 13.31,20.3 C13.05,19.59 12.93,18.79 13,17.84 C13.08,16.9 13.31,16.13 13.75,15.59 C14.23,15.08 14.74,15.02 15.26,14.99 C15.81,15 16.23,15.18 16.56,15.5 C17.14,16.14 17.33,17.07 17.33,18.13 C17.33,19.71 16.98,20.25 16.66,20.81 C16.36,21.2 15.95,21.52 14.95,21.53 Z M31.5,11.24 L31.5,9.75 L48,9.75 L48,11.24 Z M31.5,18 L31.5,16.5 L48,16.5 L48,18 Z M9.9,20.78 C10.47,20.77 10.73,20.34 10.88,19.77 C11.03,19.16 11.05,18.53 11,17.89 C10.93,17.33 10.87,16.77 10.64,16.36 C10.47,16.01 10.22,15.83 9.9,15.82 C9.57,15.83 9.27,15.96 9.05,16.48 C8.83,17.03 8.79,17.67 8.77,18.32 C8.76,18.94 8.82,19.5 8.98,19.97 C9.17,20.52 9.49,20.76 9.9,20.78 Z M9.69,21.53 C9.06,21.48 8.48,21.3 8.05,20.3 C7.8,19.59 7.67,18.79 7.74,17.84 C7.82,16.9 8.06,16.13 8.5,15.59 C8.98,15.08 9.49,15.02 10,14.99 C10.55,15 10.98,15.18 11.3,15.5 C11.88,16.14 12.07,17.07 12.07,18.13 C12.07,19.71 11.73,20.25 11.4,20.81 C11.1,21.2 10.69,21.52 9.69,21.53 Z M5.7,21.45 L5.7,16.27 C5.53,16.45 5.03,16.61 4.35,16.8 L4.35,15.9 C5.03,15.7 5.65,15.4 6.22,15 L6.75,15 L6.75,21.45 Z M28.1,28.74 C27.12,28.49 25.6,27.7 25.5,25.23 L25.49,20.59 C25.49,18.37 24.08,18.22 23.63,18.22 L23.63,17.1 C25.15,16.93 25.41,15.54 25.41,14.7 L25.43,9.86 C25.71,7.2 27.39,6.37 29.17,6.38 L29.17,7.72 C28.67,7.77 28.38,7.85 28.03,7.99 C27.36,8.27 27.04,8.51 27,9.7 L26.99,14.65 C26.94,16.38 26.35,17.31 25.35,17.62 L25.34,17.69 C26.51,18.02 27.01,19.16 26.99,20.92 L27,25.2 C26.99,25.96 27.1,26.38 27.57,26.92 C27.72,27.05 27.87,27.17 28.04,27.27 Z M28.2,35.25 L0,35.25 L0,0 L54,0 L54,21 L51.75,21 L51.75,2.25 L2.25,2.25 L2.25,33 L28.2,33 Z M31.98,47.93 C31.02,47.7 30.2,47.24 30.19,45.63 C30.37,38.99 30.52,32.33 30.19,25.45 C30.24,24.25 30.84,23.44 32.35,23.26 C33.13,23.14 33.9,23.17 34.66,23.29 C36.09,23.6 36.52,24.42 36.53,25.46 C36.24,32.2 36.23,38.93 36.47,45.67 C36.47,46.89 36.01,47.7 34.59,47.96 C33.74,48.12 32.88,48.13 31.98,47.93 Z M39.85,48.01 C38.72,48.01 38.31,47.48 38.25,46.64 L38.25,24.72 C38.25,23.75 38.84,23.26 39.71,23.26 L57.72,23.26 C59.09,23.26 59.25,24.2 59.25,24.71 L59.25,46.49 C59.25,47.35 58.84,48.03 57.7,48.01 Z M42,31.51 L55.5,31.51 L55.5,26.26 L42,26.26 Z M45.02,44.26 C45.44,44.26 45.75,43.93 45.75,43.51 L45.75,42.75 C45.75,42.41 45.47,42.01 45.02,42.01 L43.47,42.01 C42.99,42.01 42.75,42.34 42.75,42.75 L42.75,43.51 C42.75,44.13 43.21,44.26 43.47,44.26 Z M49.52,44.26 C49.94,44.26 50.25,43.93 50.25,43.51 L50.25,42.75 C50.25,42.41 49.97,42.01 49.52,42.01 L47.97,42.01 C47.49,42.01 47.25,42.34 47.25,42.75 L47.25,43.51 C47.25,44.13 47.71,44.26 47.97,44.26 Z M54.02,44.26 C54.44,44.26 54.76,43.93 54.75,43.51 L54.75,42.75 C54.75,42.41 54.48,42.01 54.02,42.01 L52.48,42.01 C51.99,42.01 51.75,42.34 51.75,42.75 L51.75,43.51 C51.75,44.13 52.21,44.26 52.48,44.26 Z M45.02,40.52 C45.44,40.52 45.75,40.19 45.75,39.77 L45.75,39.01 C45.75,38.67 45.47,38.27 45.02,38.27 L43.47,38.27 C42.99,38.27 42.75,38.6 42.75,39.01 L42.75,39.77 C42.75,40.39 43.21,40.52 43.47,40.52 Z M49.52,40.52 C49.94,40.52 50.25,40.19 50.25,39.77 L50.25,39.01 C50.25,38.67 49.97,38.27 49.52,38.27 L47.97,38.27 C47.49,38.27 47.25,38.6 47.25,39.01 L47.25,39.77 C47.25,40.39 47.71,40.52 47.97,40.52 Z M54.02,40.52 C54.44,40.52 54.76,40.19 54.75,39.77 L54.75,39.01 C54.75,38.67 54.48,38.27 54.02,38.27 L52.48,38.27 C51.99,38.27 51.75,38.6 51.75,39.01 L51.75,39.77 C51.75,40.39 52.21,40.52 52.48,40.52 Z M45.02,36.76 C45.44,36.76 45.75,36.43 45.75,36.01 L45.75,35.25 C45.75,34.91 45.47,34.51 45.02,34.51 L43.47,34.51 C42.99,34.51 42.75,34.84 42.75,35.25 L42.75,36.01 C42.75,36.63 43.21,36.76 43.47,36.76 Z M49.52,36.76 C49.94,36.76 50.25,36.43 50.25,36.01 L50.25,35.25 C50.25,34.91 49.97,34.51 49.52,34.51 L47.97,34.51 C47.49,34.51 47.25,34.84 47.25,35.25 L47.25,36.01 C47.25,36.63 47.71,36.76 47.97,36.76 Z M54.02,36.76 C54.44,36.76 54.76,36.43 54.75,36.01 L54.75,35.25 C54.75,34.91 54.48,34.51 54.02,34.51 L52.48,34.51 C51.99,34.51 51.75,34.84 51.75,35.25 L51.75,36.01 C51.75,36.63 52.21,36.76 52.48,36.76 Z" fill="none" stroke="currentColor" stroke-width="1.5"/></svg>