<svg xmlns="http://www.w3.org/2000/svg" viewBox="0 0 59.25 38.36" width="24" height="24"><path d="M40.52,9.01 C41.3,9.01 42,8.34 42,7.55 C42,6.74 41.4,6.01 40.5,6.01 C39.71,6.01 38.99,6.63 38.99,7.51 C38.99,8.37 39.69,9.01 40.52,9.01 Z M33.02,9.01 C33.8,9.01 34.5,8.34 34.5,7.55 C34.5,6.74 33.9,6.01 33,6.01 C32.21,6.01 31.49,6.63 31.49,7.51 C31.49,8.37 32.19,9.01 33.02,9.01 Z M25.52,9.01 C26.3,9.01 27,8.34 27,7.55 C27,6.74 26.4,6.01 25.5,6.01 C24.71,6.01 23.99,6.63 23.99,7.51 C23.99,8.37 24.69,9.01 25.52,9.01 Z M18.02,9.01 C18.8,9.01 19.5,8.34 19.5,7.55 C19.5,6.74 18.9,6.01 18,6.01 C17.21,6.01 16.49,6.63 16.49,7.51 C16.49,8.37 17.19,9.01 18.02,9.01 Z M10.52,9.01 C11.3,9.01 12,8.34 12,7.55 C12,6.74 11.4,6.01 10.5,6.01 C9.71,6.01 8.99,6.63 8.99,7.51 C8.99,8.37 9.69,9.01 10.52,9.01 Z M0,14.99 L0,3.31 C0,1.59 1.93,0 3.4,0 L47.54,0 C49.11,0 50.99,1.45 50.99,3.5 L50.99,11.24 L39.63,11.24 C38.82,11.29 37.96,11.49 37.11,12.22 C36.3,11.58 35.12,11.26 33.61,11.24 C32.39,11.27 31.18,11.26 29.73,12.14 C28.93,12.76 28.27,13.59 28.06,14.99 Z M54.02,27 C54.44,27 54.76,26.67 54.75,26.25 L54.75,25.49 C54.75,25.15 54.48,24.75 54.02,24.75 L52.48,24.75 C51.99,24.75 51.75,25.07 51.75,25.49 L51.75,26.25 C51.75,26.86 52.21,27 52.48,27 Z M49.52,27 C49.94,27 50.25,26.67 50.25,26.25 L50.25,25.49 C50.25,25.15 49.97,24.75 49.52,24.75 L47.97,24.75 C47.49,24.75 47.25,25.07 47.25,25.49 L47.25,26.25 C47.25,26.86 47.71,27 47.97,27 Z M45.02,27 C45.44,27 45.75,26.67 45.75,26.25 L45.75,25.49 C45.75,25.15 45.47,24.75 45.02,24.75 L43.47,24.75 C42.99,24.75 42.75,25.07 42.75,25.49 L42.75,26.25 C42.75,26.86 43.21,27 43.47,27 Z M54.02,30.76 C54.44,30.76 54.76,30.43 54.75,30.01 L54.75,29.25 C54.75,28.91 54.48,28.51 54.02,28.51 L52.48,28.51 C51.99,28.51 51.75,28.83 51.75,29.25 L51.75,30.01 C51.75,30.62 52.21,30.76 52.48,30.76 Z M49.52,30.76 C49.94,30.76 50.25,30.43 50.25,30.01 L50.25,29.25 C50.25,28.91 49.97,28.51 49.52,28.51 L47.97,28.51 C47.49,28.51 47.25,28.83 47.25,29.25 L47.25,30.01 C47.25,30.62 47.71,30.76 47.97,30.76 Z M45.02,30.76 C45.44,30.76 45.75,30.43 45.75,30.01 L45.75,29.25 C45.75,28.91 45.47,28.51 45.02,28.51 L43.47,28.51 C42.99,28.51 42.75,28.83 42.75,29.25 L42.75,30.01 C42.75,30.62 43.21,30.76 43.47,30.76 Z M54.02,34.5 C54.44,34.5 54.76,34.17 54.75,33.75 L54.75,32.99 C54.75,32.65 54.48,32.25 54.02,32.25 L52.48,32.25 C51.99,32.25 51.75,32.57 51.75,32.99 L51.75,33.75 C51.75,34.36 52.21,34.5 52.48,34.5 Z M49.52,34.5 C49.94,34.5 50.25,34.17 50.25,33.75 L50.25,32.99 C50.25,32.65 49.97,32.25 49.52,32.25 L47.97,32.25 C47.49,32.25 47.25,32.57 47.25,32.99 L47.25,33.75 C47.25,34.36 47.71,34.5 47.97,34.5 Z M45.02,34.5 C45.44,34.5 45.75,34.17 45.75,33.75 L45.75,32.99 C45.75,32.65 45.47,32.25 45.02,32.25 L43.47,32.25 C42.99,32.25 42.75,32.57 42.75,32.99 L42.75,33.75 C42.75,34.36 43.21,34.5 43.47,34.5 Z M42,21.75 L55.5,21.75 L55.5,16.5 L42,16.5 Z M39.85,38.25 C38.72,38.25 38.31,37.72 38.24,36.87 L38.24,14.96 C38.24,13.99 38.84,13.5 39.71,13.5 L57.72,13.5 C59.09,13.5 59.25,14.44 59.25,14.95 L59.25,36.73 C59.25,37.59 58.84,38.27 57.7,38.25 Z M31.98,38.17 C31.01,37.93 30.2,37.48 30.19,35.87 C30.37,29.22 30.52,22.57 30.19,15.69 C30.23,14.49 30.84,13.68 32.35,13.49 C33.13,13.38 33.89,13.4 34.65,13.52 C36.09,13.83 36.52,14.66 36.53,15.7 C36.24,22.43 36.23,29.17 36.47,35.91 C36.46,37.13 36.01,37.94 34.59,38.2 C33.74,38.36 32.87,38.36 31.98,38.17 Z" fill="none" stroke="currentColor" stroke-width="1.5"/></svg>