<svg xmlns="http://www.w3.org/2000/svg" viewBox="0 0 55.2 53.29" width="24" height="24"><path d="M45.44,11.54 L45.44,6.15 C45.44,3.96 47.26,2.25 49.19,2.25 L51.66,2.25 C52.98,4.54 52.56,6.86 51.61,8.52 C50.37,10.53 48.22,11.74 45.44,11.54 Z M7.94,34.42 L7.94,6.7 C7.94,3.03 10.92,0 14.66,0 L47.26,0 C47.69,0 48.09,0.04 48.43,0.14 C44.84,0.62 43.26,3.69 43.26,5.77 L43.26,26.17 L35.64,26.17 C34.67,26.19 33.81,26.5 33.06,27.15 C32.56,26.69 31.33,26.24 30.11,26.18 C28.02,26.08 26.64,26.39 25.61,27.14 C24.39,28.01 23.97,29.4 23.96,30.75 C23.98,32.4 24.03,33.29 24.06,34.42 Z M5.89,48.67 C2.5,48.67 0,45.76 0,42.69 C0,39.4 2.68,36.67 5.93,36.67 L24.11,36.67 C24.21,40.69 24.16,44.69 23.98,48.67 Z M49.98,41.93 C50.4,41.93 50.71,41.59 50.71,41.17 L50.71,40.41 C50.71,40.08 50.43,39.67 49.98,39.67 L48.43,39.67 C47.95,39.67 47.71,40 47.71,40.41 L47.71,41.17 C47.71,41.79 48.17,41.93 48.43,41.93 Z M45.47,41.93 C45.9,41.93 46.21,41.59 46.21,41.17 L46.21,40.41 C46.21,40.08 45.93,39.67 45.47,39.67 L43.93,39.67 C43.44,39.67 43.2,40 43.2,40.41 L43.2,41.17 C43.2,41.79 43.67,41.93 43.93,41.93 Z M40.97,41.93 C41.4,41.93 41.71,41.59 41.71,41.17 L41.71,40.41 C41.71,40.08 41.43,39.67 40.97,39.67 L39.43,39.67 C38.94,39.67 38.7,40 38.7,40.41 L38.7,41.17 C38.7,41.79 39.17,41.93 39.43,41.93 Z M49.98,45.69 C50.4,45.69 50.71,45.35 50.71,44.93 L50.71,44.17 C50.71,43.84 50.43,43.43 49.98,43.43 L48.43,43.43 C47.95,43.43 47.71,43.76 47.71,44.17 L47.71,44.93 C47.71,45.55 48.17,45.69 48.43,45.69 Z M45.47,45.69 C45.9,45.69 46.21,45.35 46.21,44.93 L46.21,44.17 C46.21,43.84 45.93,43.43 45.47,43.43 L43.93,43.43 C43.44,43.43 43.2,43.76 43.2,44.17 L43.2,44.93 C43.2,45.55 43.67,45.69 43.93,45.69 Z M40.97,45.69 C41.4,45.69 41.71,45.35 41.71,44.93 L41.71,44.17 C41.71,43.84 41.43,43.43 40.97,43.43 L39.43,43.43 C38.94,43.43 38.7,43.76 38.7,44.17 L38.7,44.93 C38.7,45.55 39.17,45.69 39.43,45.69 Z M49.98,49.43 C50.4,49.43 50.71,49.09 50.71,48.67 L50.71,47.91 C50.71,47.58 50.43,47.17 49.98,47.17 L48.43,47.17 C47.95,47.17 47.71,47.5 47.71,47.91 L47.71,48.67 C47.71,49.29 48.17,49.43 48.43,49.43 Z M45.47,49.43 C45.9,49.43 46.21,49.09 46.21,48.67 L46.21,47.91 C46.21,47.58 45.93,47.17 45.47,47.17 L43.93,47.17 C43.44,47.17 43.2,47.5 43.2,47.91 L43.2,48.67 C43.2,49.29 43.67,49.43 43.93,49.43 Z M40.97,49.43 C41.4,49.43 41.71,49.09 41.71,48.67 L41.71,47.91 C41.71,47.58 41.43,47.17 40.97,47.17 L39.43,47.17 C38.94,47.17 38.7,47.5 38.7,47.91 L38.7,48.67 C38.7,49.29 39.17,49.43 39.43,49.43 Z M37.95,36.67 L51.46,36.67 L51.46,31.42 L37.95,31.42 Z M35.81,53.17 C34.67,53.17 34.27,52.64 34.2,51.8 L34.2,29.88 C34.2,28.92 34.79,28.42 35.67,28.42 L53.67,28.42 C55.05,28.42 55.2,29.37 55.2,29.88 L55.2,51.66 C55.2,52.51 54.8,53.2 53.66,53.17 Z M27.94,53.09 C26.97,52.86 26.16,52.4 26.15,50.8 C26.33,44.15 26.48,37.49 26.14,30.62 C26.19,29.42 26.8,28.6 28.31,28.42 C29.09,28.31 29.85,28.33 30.61,28.45 C32.05,28.76 32.48,29.58 32.49,30.62 C32.19,37.36 32.19,44.1 32.43,50.83 C32.42,52.05 31.97,52.87 30.55,53.12 C29.7,53.28 28.83,53.29 27.94,53.09 Z" fill="none" stroke="currentColor" stroke-width="1.5"/></svg>