<svg xmlns="http://www.w3.org/2000/svg" viewBox="0 0 57.45 57.68" width="24" height="24"><path d="M53.14,44.12 C53.85,44.12 54.3,43.51 54.3,42.98 C54.3,42.43 53.8,41.86 53.15,41.86 C52.5,41.86 52.05,42.39 52.05,42.99 C52.05,43.68 52.71,44.12 53.14,44.12 Z M53.32,57.68 L51.67,55.88 L51.67,48.38 C50.02,47.8 48.9,46.17 48.9,44.49 C48.9,41.81 51.04,40.13 53.15,40.13 C55.48,40.13 57.45,42.01 57.45,44.39 C57.45,46.33 56.21,47.84 54.75,48.38 L54.75,50.12 L53.7,51.39 L55.23,53 L53.84,54.47 L55.12,55.8 Z M46.34,40.58 L46.34,36.8 C46.34,34.37 44.45,32.25 41.78,32.25 C39.46,32.25 37.34,34.26 37.34,36.66 L37.34,40.58 Z M33.99,54.68 C33.4,54.68 32.77,54.09 32.77,53.41 L32.77,41.78 C32.77,41.29 33.3,40.58 34.05,40.58 L34.72,40.59 L34.73,36.56 C34.73,33.12 37.7,29.71 41.75,29.71 C46.25,29.71 48.82,33.48 48.82,36.59 L48.82,39.47 C47.56,40.6 46.61,42.31 46.65,44.57 C46.76,47.05 48.06,48.73 49.42,49.65 L49.42,54.68 Z M40.89,17.71 C36.91,17.64 33.07,14.04 33.07,8.82 C33.15,3.64 36.91,0.04 41.02,0.01 C45.85,0 49.21,4.75 48.97,9.23 C48.82,13.53 45.72,17.72 40.89,17.71 Z M51.07,35.56 C50.82,32.88 48.32,27.6 41.92,27.46 C37.95,27.48 34.82,29.77 33.39,32.88 C32.79,29.84 31.7,27.82 29.39,26.44 C28.35,25.83 27.31,25.23 26.14,24.63 C26.28,24.15 26.45,23.54 26.71,23 C27.32,21.59 28.25,20.89 29.23,20.31 C30.25,19.74 31.38,19.06 32.24,18.65 C32.95,18.31 33.73,18.29 34.17,18.71 C38.39,22.18 43.34,22.13 47.64,18.78 C48.08,18.36 48.7,18.29 49.35,18.54 C50.58,19.06 51.66,19.78 52.89,20.45 C54.74,21.51 55.4,23.07 55.8,24.73 C56.7,28.59 57.11,33.37 57.14,35.56 Z M16.23,25.66 C11.61,25.66 8.32,21.25 8.32,16.89 C8.32,11.28 12.54,7.96 16.18,7.96 C20.61,7.96 24.22,11.76 24.22,17.07 C24.22,21.03 21.1,25.66 16.23,25.66 Z M0,43.51 C0.25,40.01 0.67,36.33 1.18,33.67 C1.65,31.51 2.24,29.92 3.5,28.91 C3.97,28.5 4.47,28.22 4.96,27.96 C5.89,27.43 6.91,26.82 7.65,26.49 C8.32,26.16 9.06,26.18 9.48,26.59 C13.27,29.82 18.7,30.26 23.17,26.49 C23.88,26.04 24.61,26.34 25.19,26.65 C26.23,27.19 27.18,27.83 28.24,28.46 C30.11,29.6 30.69,31.19 31.08,32.8 C31.49,34.43 31.84,37.08 32.11,39.05 C31.34,39.56 30.62,40.58 30.6,41.85 L30.6,43.51 Z" fill="none" stroke="currentColor" stroke-width="1.5"/></svg>