<svg xmlns="http://www.w3.org/2000/svg" viewBox="0 0 58.5 42.3" width="24" height="24"><path d="M43.5,4.51 L45.75,4.51 L45.75,2.26 L43.5,2.26 Z M39,4.51 L41.25,4.51 L41.25,2.26 L39,2.26 Z M34.5,4.51 L36.75,4.51 L36.75,2.26 L34.5,2.26 Z M48,31.26 L48,21.82 L42,27.59 L42,21.97 L50.18,13.8 L58.5,22.05 L58.5,27.67 L52.5,21.82 L52.5,31.42 C52.5,36.74 47.21,41.37 42,42.3 L42,37.66 C45.36,36.67 48,33.88 48,31.26 Z M39.75,38.25 L2.92,38.25 C1.41,38.25 0,36.89 0,35.33 L0,3.05 C0,1.28 1.43,0 2.96,0 L45.04,0 C46.61,0 48,1.32 48,3.04 L48,12.69 L45.75,14.94 L45.75,7.5 L2.25,7.5 L2.25,35.27 C2.25,35.77 2.67,36 2.93,36 L39.75,36 Z" fill="none" stroke="currentColor" stroke-width="1.5"/></svg>