<svg xmlns="http://www.w3.org/2000/svg" viewBox="0 0 59.25 48.3" width="24" height="24"><path d="M46.5,4.49 L48.75,4.49 L48.75,2.25 L46.5,2.25 Z M42,4.49 L44.25,4.49 L44.25,2.25 L42,2.25 Z M37.5,4.49 L39.75,4.49 L39.75,2.25 L37.5,2.25 Z M9.75,34.49 L9.75,28.49 L13.5,28.49 L13.5,22.49 L24.75,22.49 L24.75,17.99 L20.25,17.99 L20.25,11.24 L30.75,11.24 L30.75,17.99 L26.25,17.99 L26.25,22.49 L37.5,22.49 L37.5,28.49 L40.5,28.49 L40.5,34.49 L32.25,34.49 L32.25,28.49 L36,28.49 L36,23.99 L26.25,23.99 L26.25,28.49 L30,28.49 L30,34.49 L21,34.49 L21,28.49 L24.75,28.49 L24.75,23.99 L15,23.99 L15,28.49 L18.75,28.49 L18.75,34.49 Z M2.94,40.5 C1.28,40.5 0,39.02 0,37.58 L0,2.96 C0,1.27 1.48,0 2.9,0 L48.01,0 C49.68,0 51,1.44 51,2.87 L51,16.42 L48.75,18.68 L48.75,7.5 L2.25,7.5 L2.25,37.5 C2.25,37.98 2.6,38.25 2.94,38.25 L46.24,38.25 C45.88,39.05 45.2,39.83 44.18,40.5 Z M42.75,43.65 C46.6,42.47 48.75,39.56 48.75,37.16 L48.75,27.81 L42.75,33.59 L42.75,27.97 L50.93,19.8 L59.25,28.04 L59.25,33.66 L53.25,27.81 L53.25,37.24 C53.25,42.84 47.93,47.38 42.75,48.3 Z" fill="none" stroke="currentColor" stroke-width="1.5"/></svg>