<svg xmlns="http://www.w3.org/2000/svg" viewBox="0 0 48.0 55.49" width="24" height="24"><path d="M18,33 L18,30.75 L38.25,30.75 L38.25,33 Z M18,39 L18,36.75 L38.25,36.75 L38.25,39 Z M0.75,3.75 L0.75,0 L15.75,0 L15.75,3.75 Z M6,27.74 L6,12.75 L0,18.74 L0,14.26 L8.25,6 L16.5,14.26 L16.5,18.74 L10.5,12.75 L10.5,27.74 Z M18,45 L18,42.75 L38.25,42.75 L38.25,45 Z M8.25,55.49 L8.25,29.99 L10.5,30 L10.5,53.25 L45.75,53.25 L45.75,22.49 L34.5,22.49 L34.5,10.51 L15.9,10.51 L13.65,8.25 L36,8.25 L48,20.25 L48,55.49 Z" fill="none" stroke="currentColor" stroke-width="1.5"/></svg>