<svg xmlns="http://www.w3.org/2000/svg" viewBox="0 0 51.82 49.42" width="24" height="24"><path d="M37.97,31.68 C40.57,28.07 40.74,22.95 37.85,19.01 C39.93,18.75 41.62,18.17 43.22,16.76 C43.71,16.38 44.41,16.45 45.1,16.79 C45.93,17.17 46.8,17.7 47.65,18.17 C49.3,19.11 49.99,20.38 50.36,21.78 C51.15,24.95 51.48,28.49 51.82,32.02 L39.16,32.02 C38.81,31.89 38.47,31.75 37.97,31.68 Z M0,39.07 C0.28,35.93 0.79,31.29 1.44,28.86 C1.8,27.56 2.32,26.39 3.79,25.46 C4.81,24.86 5.81,24.21 6.76,23.74 C7.36,23.44 8.1,23.35 8.6,23.74 C11.99,26.81 17.04,27.01 21.22,23.63 C20.7,26.81 21.57,29.61 23.07,31.68 C22.1,31.75 19.86,33.04 18.05,34.27 C16.44,35.41 15.52,37.01 15.02,39.07 Z M37.28,15.9 C33.11,15.9 29.92,12.38 29.92,7.88 C29.92,4.11 32.69,0 37.18,0 C41.06,0 44.32,3.62 44.32,7.9 C44.32,12.59 40.71,15.9 37.28,15.9 Z M14.99,23.09 C9.46,23.09 7.5,18.02 7.5,15.27 C7.5,10.67 10.74,7.19 14.66,7.19 C18.59,7.19 21.9,10.69 21.9,15.27 C21.96,19.65 18.27,23.09 14.99,23.09 Z M30.66,33.37 C26.65,33.37 23.33,30.1 23.33,25.25 C23.33,20.88 26.81,17.47 30.33,17.47 C34.97,17.47 37.71,21.61 37.71,25.22 C37.71,31.02 33.31,33.37 30.66,33.37 Z M15.75,49.42 C16.06,45.93 16.57,41.36 17.24,39.02 C17.71,37.34 18.56,36.41 19.56,35.79 L21.64,34.56 C22.4,34.11 23.45,33.45 24.33,34.08 C27.77,37.14 32.59,37.34 36.65,34.13 C37.01,33.87 37.69,33.84 38.05,34.01 C38.96,34.35 40.14,35.13 41.19,35.72 C42.93,36.81 43.52,38.06 43.97,40.03 C44.62,42.59 44.97,46.55 45.22,49.42 Z" fill="none" stroke="currentColor" stroke-width="1.5"/></svg>