<svg xmlns="http://www.w3.org/2000/svg" viewBox="0 0 59.25 59.25" width="24" height="24"><path d="M0,40.5 L0,8.25 L24.75,8.25 L24.75,10.5 L2.25,10.5 L2.25,38.25 L15.75,38.25 L15.75,40.5 Z M52.5,32.25 L52.5,30 L57,30 L57,2.25 L29.25,2.25 L29.25,24.74 L27,24.74 L27,0 L59.25,0 L59.25,32.25 Z M20.25,57 L48,57 L48,29.25 L20.25,29.25 Z M18,59.25 L18,27 L50.25,27 L50.25,59.25 Z M16.13,24.18 C13.67,24.18 11.48,22.13 11.48,18.98 C11.48,16.54 13.33,14.03 16.04,14.03 C18.69,14.03 20.63,16.45 20.63,19.1 C20.63,22.15 18.34,24.18 16.13,24.18 Z M6.75,34.42 C6.97,32.17 7.25,29.1 7.79,27.54 C8.04,26.84 8.4,26.33 8.99,25.91 C9.36,25.63 10.71,24.89 10.96,24.77 C11.39,24.54 11.83,24.42 12.22,24.77 C13.26,25.69 14.5,26.18 15.75,26.25 L15.75,34.42 Z M43.21,15.95 C40.76,15.95 38.56,13.9 38.56,10.75 C38.56,8.31 40.42,5.81 43.13,5.81 C45.77,5.81 47.71,8.23 47.71,10.87 C47.71,13.93 45.43,15.95 43.21,15.95 Z M33.87,24.74 C34.08,22.49 34.34,20.87 34.88,19.32 C35.12,18.61 35.49,18.1 36.07,17.68 C36.45,17.4 37.79,16.66 38.04,16.54 C38.47,16.31 38.92,16.19 39.3,16.54 C41.58,18.55 44.74,18.5 47.05,16.54 C47.32,16.27 47.75,16.34 48.02,16.45 C48.47,16.62 49.89,17.46 50.15,17.63 C50.94,18.14 51.36,18.83 51.68,20.12 C52.08,21.85 52.21,23.17 52.38,24.74 Z M34.13,42.93 C31.67,42.93 29.48,40.88 29.48,37.73 C29.48,35.29 31.33,32.79 34.04,32.79 C36.68,32.79 38.62,35.21 38.62,37.85 C38.62,40.91 36.34,42.93 34.13,42.93 Z M24.75,53.17 C24.96,50.92 25.25,47.85 25.79,46.3 C26.04,45.59 26.4,45.08 26.98,44.66 C27.36,44.38 28.71,43.64 28.96,43.52 C29.39,43.29 29.83,43.17 30.21,43.52 C32.5,45.53 35.65,45.47 37.96,43.52 C38.23,43.25 38.66,43.32 38.94,43.43 C39.38,43.6 40.8,44.44 41.07,44.61 C41.86,45.12 42.28,45.81 42.59,47.1 C42.99,48.83 43.23,51.05 43.5,53.17 Z" fill="none" stroke="currentColor" stroke-width="1.5"/></svg>