<svg xmlns="http://www.w3.org/2000/svg" viewBox="0 0 58.77 50.17" width="24" height="24"><path d="M46.13,16.46 L43.06,13.38 L52.06,4.53 L42.91,4.53 L46.66,0.86 L58.77,0.86 L58.77,12.93 L55.06,16.68 L55.06,7.53 Z M23.07,24.97 C17.02,24.97 11.63,19.92 11.63,12.17 C11.63,6.16 16.19,0 22.85,0 C29.36,0 34.13,5.96 34.13,12.46 C34.13,19.98 28.51,24.97 23.07,24.97 Z M0,50.17 C0.52,44.63 1.22,37.07 2.55,33.24 C3.16,31.51 4.05,30.26 5.49,29.22 C6.42,28.53 9.73,26.7 10.34,26.4 C11.4,25.85 12.5,25.56 13.44,26.4 C19.05,31.37 26.82,31.22 32.51,26.42 C33.17,25.74 34.22,25.92 34.91,26.19 C36,26.61 39.49,28.67 40.15,29.09 C42.08,30.35 43.12,32.04 43.89,35.21 C44.88,39.49 45.46,44.94 46.13,50.17 Z" fill="none" stroke="currentColor" stroke-width="1.5"/></svg>