<svg xmlns="http://www.w3.org/2000/svg" viewBox="0 0 59.25 41.25" width="24" height="24"><path d="M10.51,9.01 C11.36,9.01 12,8.29 12,7.54 C12,6.61 11.28,6 10.5,6 C9.63,6 9,6.73 9,7.5 C9,8.27 9.62,9.01 10.51,9.01 Z M18.01,9.01 C18.86,9.01 19.5,8.29 19.5,7.54 C19.5,6.61 18.77,6 18,6 C17.13,6 16.5,6.73 16.5,7.5 C16.5,8.27 17.12,9.01 18.01,9.01 Z M25.51,9.01 C26.36,9.01 27,8.29 27,7.54 C27,6.61 26.27,6 25.5,6 C24.63,6 23.99,6.73 23.99,7.5 C23.99,8.27 24.61,9.01 25.51,9.01 Z M33.01,9.01 C33.86,9.01 34.5,8.29 34.5,7.54 C34.5,6.61 33.77,6 32.99,6 C32.12,6 31.49,6.73 31.49,7.5 C31.49,8.27 32.11,9.01 33.01,9.01 Z M55.5,37.51 L57.75,37.51 L57.75,35.26 L55.5,35.26 Z M55.5,33.01 L57.75,33.01 L57.75,30.76 L55.5,30.76 Z M55.5,28.51 L57.75,28.51 L57.75,26.26 L55.5,26.26 Z M55.5,24.01 L57.75,24.01 L57.75,21.76 L55.5,21.76 Z M55.5,19.51 L57.75,19.51 L57.75,17.26 L55.5,17.26 Z M33.75,37.51 L36,37.51 L36,35.26 L33.75,35.26 Z M33.75,33.01 L36,33.01 L36,30.76 L33.75,30.76 Z M33.75,28.51 L36,28.51 L36,26.26 L33.75,26.26 Z M33.75,24.01 L36,24.01 L36,21.76 L33.75,21.76 Z M33.75,19.51 L36,19.51 L36,17.26 L33.75,17.26 Z M0,15 L0,3.27 C0,1.86 1.63,0 3.48,0 L47.57,0 C49.35,0 51,1.79 51,3.29 L51,11.25 L30,11.25 L30,15 Z M40.5,9.01 C41.36,9.01 42,8.29 42,7.54 C42,6.61 41.27,6 40.49,6 C39.62,6 38.99,6.73 38.99,7.5 C38.99,8.27 39.61,9.01 40.5,9.01 Z M37.5,26.25 L54,26.25 L54,15.75 L37.5,15.75 Z M37.5,39 L54,39 L53.99,28.49 L37.5,28.5 Z M32.25,41.25 L32.25,13.5 L33.75,13.5 L33.75,15 L36,15 L36,13.5 L55.5,13.5 L55.49,15 L57.75,15 L57.75,13.5 L59.25,13.5 L59.25,41.25 L57.75,41.25 L57.75,39.75 L55.5,39.75 L55.49,41.25 L36,41.25 L36,39.75 L33.75,39.75 L33.75,41.25 Z M8.1,32.25 L1.73,25.88 L8.1,19.5 L11.85,19.5 L7.65,24 L21.31,24 L17.11,19.5 L20.85,19.5 L27.3,25.88 L20.85,32.25 L17.11,32.25 L21.3,27.6 L7.65,27.6 L11.85,32.25 Z" fill="none" stroke="currentColor" stroke-width="1.5"/></svg>