<svg xmlns="http://www.w3.org/2000/svg" viewBox="0 0 53.78 59.78" width="24" height="24"><path d="M45.58,16.88 C44.3,17.6 42.69,17.78 41.1,17.58 C39.19,17.31 37.64,16.41 37.25,15.01 C37.09,14.33 37.28,13.83 37.89,13.55 C38.34,13.4 38.79,13.4 39.21,13.77 C39.62,14.1 39.98,15.04 40.9,15.44 C41.52,15.73 42.54,15.82 43.3,15.55 C43.64,15.42 44.07,15.24 44.38,14.68 C44.82,13.87 44.38,13.05 43.57,12.84 C41.98,12.39 39.68,12.02 38.9,11.49 C38.48,11.23 38.06,10.95 37.72,10.37 C37.31,9.64 37.33,8.94 37.37,8.24 C37.57,6.95 38.23,6.4 38.77,6.02 C39.67,5.41 40.66,5.23 41.6,5.15 C42.41,5.08 43.33,5.16 44.44,5.53 C45.35,5.88 46.29,6.38 46.71,7.22 C46.99,7.82 46.94,8.39 46.4,8.75 C46,8.96 45.29,9.15 44.75,8.58 C44.29,8.03 43.82,7.57 43.36,7.4 C42.8,7.18 42.17,7.08 41.39,7.21 C40.97,7.32 40.38,7.41 40.08,8.22 C39.93,8.98 40.26,9.37 40.95,9.65 C43.23,10.33 43.88,10.28 45.03,10.7 C46.21,11.15 47.07,11.87 47.29,13.1 C47.37,13.84 47.34,14.58 47.01,15.33 C46.77,15.86 46.4,16.38 45.58,16.88 Z M44.39,19.83 C45.93,20.84 48.09,21.29 50.12,19.63 C51.68,18.3 52.33,15.9 50.78,13.53 C51.42,10.25 50.5,6.75 47.37,4.44 C44.52,2.46 41.93,2.71 40.28,3.02 C38.26,1.72 35.9,1.76 34.13,3.65 C32.42,5.7 32.9,8.02 33.89,9.33 L33.75,10.27 C33.36,13.37 34.61,16.01 36.47,17.75 C37.89,19.06 40.18,20.27 43.1,20.02 Z M44.17,21.47 C40.91,22.01 37.84,21.07 35.54,19 C33.01,16.75 31.7,13.34 32.33,9.63 C30.93,7.37 31.31,4.3 33.33,2.26 C35.33,0.42 38.17,0 40.58,1.38 C43.78,0.87 46.64,1.72 48.97,3.66 C51.91,6.2 53,9.79 52.42,13.22 C53.78,15.55 53.31,18.26 52,19.93 C49.81,22.7 46.41,22.81 44.17,21.47 Z" fill="none" stroke="currentColor" stroke-width="1.5"/><rect x="0" y="0" width="0" height="0" fill="none" stroke="currentColor"/><path d="M40.18,38.04 C41.23,38.04 42.21,37.07 42.21,35.8 C42.21,34.63 41.38,33.54 40.15,33.54 C38.93,33.54 38.16,34.7 38.16,35.73 C38.16,37.02 39.07,38.04 40.18,38.04 Z M25.86,38.03 C26.91,38.03 27.89,37.06 27.89,35.79 C27.89,34.62 27.07,33.53 25.83,33.53 C24.62,33.53 23.84,34.69 23.84,35.72 C23.84,37.02 24.75,38.03 25.86,38.03 Z M0,56.03 L0,6.43 C0,4.9 1.41,3.54 2.93,3.54 L24.03,3.54 C25.62,3.54 27,4.88 27,6.49 L27,23.78 L15.71,23.78 C13.27,23.78 11.28,25.84 11.28,28.18 L11.28,41.03 L5.25,41.03 L5.25,43.29 L11.28,43.29 L11.28,47.79 L5.25,47.79 L5.25,50.04 L11.28,50.04 C11.66,52.25 13.63,53.78 15.68,53.78 L26.4,53.78 L26.47,54.3 C25.72,54.53 24.85,54.59 23.96,54.64 C23.39,54.66 22.79,54.68 22.15,54.68 C20.87,54.68 19.88,55.38 19.35,56.03 Z M5.25,12.54 L21.75,12.54 L21.75,10.29 L5.25,10.29 Z M22.22,59.78 C21.51,59.78 20.85,59.13 20.85,58.39 C20.85,57.55 21.49,56.93 22.3,56.93 C24.31,56.89 26.2,56.79 27.38,56.39 C28.52,56 28.98,55.28 28.72,53.73 C28.62,53.08 28.42,52.31 28.2,51.52 L15.67,51.52 C14.66,51.51 13.53,50.78 13.5,49.27 L13.5,28.23 C13.5,27.1 14.42,26.03 15.74,26.03 L50.34,26.03 C51.42,26.03 52.5,26.94 52.5,28.24 L52.5,49.33 C52.5,50.4 51.64,51.52 50.3,51.52 L37.8,51.52 C37.49,52.59 37.31,53.36 37.24,54.13 C37.11,55.56 37.76,56.1 38.77,56.43 C40.05,56.81 41.56,56.88 43.83,56.93 C44.51,56.93 45.22,57.49 45.22,58.36 C45.22,59.29 44.48,59.78 43.86,59.78 Z M49.5,48.53 L49.5,29.04 L16.5,29.04 L16.5,48.53 Z M48,47.03 L18,47.03 L18,30.53 L48,30.53 Z M28.95,45.45 L37.2,45.45 C37.1,44.57 37,43.59 36.69,42.65 C36.57,42.3 36.29,41.95 35.84,41.69 C35.58,41.55 35.44,41.4 35.07,41.27 C34.82,41.2 34.75,41.3 34.66,41.4 C33.4,42.31 32.13,42.05 31.28,41.41 C31.16,41.28 31.08,41.2 30.89,41.29 C30.55,41.48 30.2,41.69 29.82,41.96 C29.6,42.11 29.43,42.38 29.34,42.74 C29.06,43.76 28.98,44.62 28.95,45.45 Z M32.99,41.18 C34.04,41.18 35.02,40.21 35.02,38.94 C35.02,37.77 34.2,36.68 32.97,36.68 C31.75,36.68 30.97,37.84 30.97,38.87 C30.97,40.17 31.88,41.18 32.99,41.18 Z M37.54,42.49 L44.4,42.49 C44.28,41.6 44.19,40.62 43.98,39.89 C43.87,39.5 43.74,39.13 43.39,38.85 C43.21,38.68 42.76,38.45 42.36,38.23 C42.22,38.18 42.03,38.15 41.9,38.26 C40.91,39.19 39.41,39.06 38.5,38.34 C38.38,38.21 38.21,38.12 38,38.23 C37.75,38.33 37.38,38.59 37.06,38.79 C36.87,38.91 36.68,39.07 36.55,39.4 C36.4,39.75 36.3,40.4 36.18,40.93 C36.95,41.26 37.35,41.81 37.54,42.45 Z M28.39,42.49 C28.55,41.91 28.89,41.52 29.35,41.22 L29.91,40.88 L29.78,40.07 C29.67,39.6 29.5,39.13 29.14,38.86 C28.83,38.63 28.45,38.37 28.01,38.2 C27.79,38.13 27.66,38.25 27.53,38.38 C26.32,39.23 25.14,38.97 24.22,38.33 C24.05,38.13 23.93,38.14 23.63,38.34 C23.31,38.53 23,38.71 22.76,38.88 C22.46,39.11 22.35,39.42 22.26,39.75 C22.01,40.78 21.93,41.6 21.82,42.49 Z" fill="none" stroke="currentColor" stroke-width="1.5"/></svg>