<svg xmlns="http://www.w3.org/2000/svg" viewBox="0 0 48.0 55.5" width="24" height="24"><path d="M39,35.25 L40.5,35.25 L40.5,33.76 L39,33.76 Z M42,35.25 L43.5,35.25 L43.5,33.76 L42,33.76 Z M21.74,2.25 L21.74,0 L23.99,0 L23.99,2.25 Z M3.76,2.25 L3.76,0 L6.01,0 L6.01,2.25 Z M8.25,2.25 L8.25,0 L10.5,0 L10.5,2.25 Z M12.75,2.25 L12.75,0 L15,0 L15,2.25 Z M17.24,2.25 L17.24,0 L19.49,0 L19.49,2.25 Z M6,39.76 L6,37.51 L16.5,37.51 L16.5,39.76 Z M25.5,6.75 L25.5,4.51 L27.75,4.51 L27.75,6.75 Z M25.5,11.25 L25.5,9 L27.75,9 L27.75,11.25 Z M25.5,15.75 L25.5,13.5 L27.75,13.5 L27.75,15.75 Z M25.5,20.25 L25.5,18 L27.75,18 L27.75,20.25 Z M25.5,24.75 L25.5,22.5 L27.75,22.5 L27.75,24.75 Z M25.5,29.25 L25.5,27 L27.75,27 L27.75,29.25 Z M0,6.76 L0,4.51 L2.25,4.51 L2.25,6.76 Z M0,11.26 L0,9.01 L2.25,9.01 L2.25,11.26 Z M0,15.76 L0,13.51 L2.25,13.51 L2.25,15.76 Z M0,20.26 L0,18.01 L2.25,18.01 L2.25,20.26 Z M0,24.75 L0,22.5 L2.25,22.5 L2.25,24.75 Z M0,29.25 L0,27 L2.25,27 L2.25,29.25 Z M0,33.75 L0,31.5 L2.25,31.5 L2.25,33.75 Z M0,38.25 L0,36.01 L2.25,36.01 L2.25,38.25 Z M0,42.76 L0,40.51 L2.25,40.51 L2.25,42.76 Z M0,47.26 L0,45.01 L2.25,45.01 L2.25,47.26 Z M0,51.75 L0,49.51 L2.25,49.51 L2.25,51.75 Z M3.75,51.75 L3.75,49.51 L6,49.51 L6,51.75 Z M8.25,51.75 L8.25,49.51 L10.5,49.51 L10.5,51.75 Z M25.05,2.33 L25.86,0.28 C26.59,0.54 27.08,1.07 27.45,1.8 L25.42,2.7 C25.33,2.57 25.25,2.42 25.05,2.33 Z M0.23,2.03 C0.43,1.27 0.94,0.71 1.56,0.35 L2.69,2.25 C2.54,2.39 2.42,2.54 2.33,2.7 Z M6,9.01 L6,6.76 L21.75,6.76 L21.75,9.01 Z M6,45.75 L6,43.5 L16.5,43.5 L16.5,45.75 Z M12.75,51.75 L12.75,49.51 L15,49.51 L15,51.75 Z M45,35.25 L46.5,35.25 L46.5,33.76 L45,33.76 Z M20.25,54 L46.5,54 L46.5,36.75 L20.25,36.75 Z M20.18,55.5 C19.4,55.5 18.75,54.93 18.75,54.08 L18.75,33.72 C18.75,33.01 19.23,32.25 20.21,32.25 L46.51,32.25 C47.49,32.25 48,32.98 48,33.67 L48,54 C48,55.05 47.23,55.5 46.61,55.5 Z" fill="none" stroke="currentColor" stroke-width="1.5"/></svg>