<svg xmlns="http://www.w3.org/2000/svg" viewBox="0 0 40.53 55.76" width="24" height="24"><path d="M40.49,31.25 C40.48,31.95 39.76,32.61 38.58,33.16 C35.98,34.32 32.45,34.65 29.44,34.65 C26.61,34.66 23.85,34.28 21.67,33.56 C20.23,33.08 18.75,32.26 18.75,31.2 C18.75,30.36 19.72,29.66 20.83,29.17 C22.72,28.36 25.88,27.76 29.45,27.75 C32.37,27.8 36.02,27.98 39,29.46 C39.74,29.86 40.53,30.46 40.49,31.25 Z M40.35,51.37 C40.26,52.35 39.75,52.94 39.34,53.3 C37.84,54.62 35.23,55.02 33.78,55.24 C29.97,55.76 25.33,55.47 22.64,54.71 C21.72,54.44 20.88,54.1 20.23,53.65 C19.35,53.05 18.82,52.3 18.75,51.35 L18.75,33.75 C20.03,34.71 22.18,35.42 24.58,35.78 C28.03,36.32 31.84,36.27 35.19,35.7 C36.8,35.38 38.92,34.9 40.35,33.75 Z M12.75,51.75 L12.75,49.51 L15,49.51 L15,51.75 Z M6,45.75 L6,43.5 L16.5,43.5 L16.5,45.75 Z M6,9.01 L6,6.76 L21.75,6.76 L21.75,9.01 Z M0.23,2.03 C0.43,1.27 0.94,0.71 1.56,0.35 L2.69,2.25 C2.54,2.39 2.42,2.54 2.33,2.7 Z M25.05,2.33 L25.86,0.28 C26.59,0.54 27.08,1.07 27.45,1.8 L25.42,2.7 C25.33,2.57 25.25,2.42 25.05,2.33 Z M8.25,51.75 L8.25,49.51 L10.5,49.51 L10.5,51.75 Z M3.75,51.75 L3.75,49.51 L6,49.51 L6,51.75 Z M0,51.75 L0,49.51 L2.25,49.51 L2.25,51.75 Z M0,47.26 L0,45.01 L2.25,45.01 L2.25,47.26 Z M0,42.76 L0,40.51 L2.25,40.51 L2.25,42.76 Z M0,38.25 L0,36 L2.25,36 L2.25,38.25 Z M0,33.75 L0,31.5 L2.25,31.5 L2.25,33.75 Z M0,29.25 L0,27 L2.25,27 L2.25,29.25 Z M0,24.75 L0,22.5 L2.25,22.5 L2.25,24.75 Z M0,20.26 L0,18.01 L2.25,18.01 L2.25,20.26 Z M0,15.76 L0,13.51 L2.25,13.51 L2.25,15.76 Z M0,11.26 L0,9.01 L2.25,9.01 L2.25,11.26 Z M0,6.76 L0,4.51 L2.25,4.51 L2.25,6.76 Z M25.5,24.75 L25.5,22.5 L27.75,22.5 L27.75,24.75 Z M25.5,20.25 L25.5,18 L27.75,18 L27.75,20.25 Z M25.5,15.75 L25.5,13.5 L27.75,13.5 L27.75,15.75 Z M25.5,11.25 L25.5,9 L27.75,9 L27.75,11.25 Z M25.5,6.75 L25.5,4.51 L27.75,4.51 L27.75,6.75 Z M6,39.76 L6,37.51 L16.5,37.51 L16.5,39.76 Z M17.24,2.25 L17.24,0 L19.49,0 L19.49,2.25 Z M12.75,2.25 L12.75,0 L15,0 L15,2.25 Z M8.25,2.25 L8.25,0 L10.5,0 L10.5,2.25 Z M3.76,2.25 L3.76,0 L6.01,0 L6.01,2.25 Z M21.74,2.25 L21.74,0 L23.99,0 L23.99,2.25 Z" fill="none" stroke="currentColor" stroke-width="1.5"/></svg>