<svg xmlns="http://www.w3.org/2000/svg" viewBox="0 0 27.75 51.76" width="24" height="24"><path d="M25.5,51.76 L25.5,49.51 L27.75,49.51 L27.75,51.76 Z M21.75,51.76 L21.75,49.51 L24,49.51 L24,51.76 Z M17.25,51.76 L17.25,49.51 L19.5,49.51 L19.5,51.76 Z M25.5,47.26 L25.5,45.01 L27.75,45.01 L27.75,47.26 Z M25.5,42.76 L25.5,40.51 L27.75,40.51 L27.75,42.76 Z M25.5,38.26 L25.5,36.01 L27.75,36.01 L27.75,38.26 Z M25.5,33.76 L25.5,31.51 L27.75,31.51 L27.75,33.76 Z M6,45.76 L6,43.51 L21.75,43.51 L21.75,45.76 Z M6,39.77 L6,37.52 L21.75,37.52 L21.75,39.77 Z M12.75,51.76 L12.75,49.51 L15,49.51 L15,51.76 Z M6,9.01 L6,6.76 L21.75,6.76 L21.75,9.01 Z M0.23,2.03 C0.43,1.27 0.94,0.71 1.56,0.35 L2.69,2.25 C2.54,2.39 2.42,2.54 2.33,2.7 Z M25.05,2.33 L25.86,0.28 C26.59,0.54 27.08,1.07 27.45,1.8 L25.42,2.7 C25.33,2.57 25.25,2.42 25.05,2.33 Z M8.25,51.76 L8.25,49.51 L10.5,49.51 L10.5,51.76 Z M3.75,51.76 L3.75,49.51 L6,49.51 L6,51.76 Z M0,51.76 L0,49.51 L2.25,49.51 L2.25,51.76 Z M0,47.26 L0,45.01 L2.25,45.01 L2.25,47.26 Z M0,42.76 L0,40.51 L2.25,40.51 L2.25,42.76 Z M0,38.25 L0,36.01 L2.25,36.01 L2.25,38.25 Z M0,33.75 L0,31.5 L2.25,31.5 L2.25,33.75 Z M0,29.25 L0,27 L2.25,27 L2.25,29.25 Z M0,24.75 L0,22.5 L2.25,22.5 L2.25,24.75 Z M0,20.26 L0,18.01 L2.25,18.01 L2.25,20.26 Z M0,15.76 L0,13.51 L2.25,13.51 L2.25,15.76 Z M0,11.26 L0,9.01 L2.25,9.01 L2.25,11.26 Z M0,6.76 L0,4.51 L2.25,4.51 L2.25,6.76 Z M25.5,29.25 L25.5,27 L27.75,27 L27.75,29.25 Z M25.5,24.75 L25.5,22.5 L27.75,22.5 L27.75,24.75 Z M25.5,20.25 L25.5,18 L27.75,18 L27.75,20.25 Z M25.5,15.75 L25.5,13.5 L27.75,13.5 L27.75,15.75 Z M25.5,11.25 L25.5,9 L27.75,9 L27.75,11.25 Z M25.5,6.75 L25.5,4.51 L27.75,4.51 L27.75,6.75 Z M17.24,2.25 L17.24,0 L19.49,0 L19.49,2.25 Z M12.75,2.25 L12.75,0 L15,0 L15,2.25 Z M8.25,2.25 L8.25,0 L10.5,0 L10.5,2.25 Z M3.76,2.25 L3.76,0 L6.01,0 L6.01,2.25 Z M21.74,2.25 L21.74,0 L23.99,0 L23.99,2.25 Z" fill="none" stroke="currentColor" stroke-width="1.5"/></svg>