<svg xmlns="http://www.w3.org/2000/svg" viewBox="0 0 57.83 50.83" width="24" height="24"><path d="M0,41.99 L0,26.98 L4.5,21.21 L4.5,26.99 L45.56,26.99 C45.32,28.57 45.74,30.02 47.02,31.15 L48.67,32.3 L42.83,40.54 L41.32,39.43 C40.16,38.7 39.01,38.43 37.6,38.88 C36.45,39.26 35.31,40.13 34.16,41.99 Z M6.75,24.73 L6.74,22.49 L45.75,22.49 L45.75,24.73 Z M6.74,20.23 L6.74,17.99 L45.75,17.99 L45.75,20.23 Z M6.74,15.74 L6.74,13.49 L45.75,13.49 L45.75,15.74 Z M6.74,11.24 L6.74,8.99 L45.75,8.99 L45.75,11.24 Z M6.74,6.74 L6.74,4.5 L45.75,4.5 L45.75,6.74 Z M6.74,2.25 L6.74,0 L45.75,0 L45.75,2.25 Z M35.26,49.25 C34.5,48.67 33.84,47.79 34.44,45.98 C34.62,45.37 35.73,43.84 36.68,42.44 C37.57,41.35 38.85,40.47 40.11,41.35 L41.86,42.63 C42.7,43.09 43.76,43.02 44.45,42.19 L50.77,33.22 C51.17,32.33 50.99,31.39 50.25,30.76 L48.41,29.43 C47.36,28.51 47.58,27.22 48.39,25.87 L50.55,22.98 C51.62,21.75 53.01,21.46 54.16,22.18 C54.56,22.47 54.95,22.76 55.29,23.07 C56.36,24.09 57.21,25.67 57.51,27.26 C57.83,29.18 57.69,31.24 56.8,33.5 C55.89,35.59 54.81,37.72 53.31,39.95 C51.68,42.33 50.02,44.62 48.2,46.36 C46.9,47.82 45.49,49.02 43.58,49.82 C42.11,50.43 40.56,50.83 38.76,50.62 C37.64,50.5 36.46,49.97 35.26,49.25 Z" fill="none" stroke="currentColor" stroke-width="1.5"/></svg>