<svg xmlns="http://www.w3.org/2000/svg" viewBox="0 0 57.49 52.1" width="24" height="24"><path d="M28.26,33.68 C26.82,31.67 26.19,28.48 27.85,25.51 L38.69,25.51 C39.5,25.48 40.27,25.39 40.97,25.18 C41.59,26.19 42.19,27.51 42.15,29.42 C42.11,31.07 41.59,32.46 40.73,33.68 Z M34.54,39.15 C40.01,39.15 44.39,34.73 44.39,29.04 C44.39,23.66 39.74,19.33 34.57,19.33 C28.55,19.33 24.6,24.24 24.6,29.22 C24.6,34.36 28.59,39.15 34.54,39.15 Z M41.84,38.77 C40.1,40.08 38.06,41.16 34.92,41.33 C26.73,41.33 22.42,34.86 22.42,29.57 C22.42,22.41 27.97,17.1 34.55,17.1 C41.09,17.1 46.58,22.51 46.58,29.04 C46.59,31.52 45.92,34.08 44.03,36.52 L45.22,37.72 C46.35,37.68 47.11,38.06 47.74,38.6 L56.07,46.85 C57.12,48.01 57.49,49.74 56.19,51.07 C55.17,52.1 53.44,51.92 52.21,50.85 L43.89,42.54 C43.31,41.9 42.99,41.03 43.06,39.97 Z M33.8,14.94 C34.38,12.94 36.2,11.18 38.84,11.17 C42.26,11.28 44.14,14.21 43.94,16.67 C43.9,17.33 43.76,17.79 43.6,18.2 C41.11,16.19 37.84,14.75 33.8,14.94 Z M15.27,21.52 C12.29,21.52 9.97,19.2 9.97,16.4 C9.97,13.69 12.03,11.17 15.27,11.17 C17.84,11.17 20.32,13.38 20.32,16.4 C20.32,19.47 17.67,21.52 15.27,21.52 Z M2.62,33.68 C1.24,33.68 0,32.45 0,31.06 L0,2.63 C0,1.2 1.25,0 2.63,0 L51.27,0 C52.81,0 53.92,1.18 53.92,2.51 L53.92,30.98 C53.92,32.38 52.79,33.68 51.24,33.68 L48.13,33.68 C48.67,32 49.02,29.96 48.71,27.45 C48.43,25.46 47.86,23.44 46.42,21.34 C47.34,19.96 47.91,18.34 47.93,16.51 C47.93,11.36 43.99,6.96 38.06,7.22 C32.54,7.8 29.85,12.27 29.67,15.76 C26.81,16.81 24.95,18.36 23.48,20.1 C24.12,18.66 24.4,17.1 24.24,15.37 C23.85,11.26 20.4,7.23 15.21,7.2 C9.96,7.2 5.95,11.28 5.99,16.49 C5.99,21.46 10.39,25.49 15.28,25.49 L20.67,25.51 C19.91,28.33 20.07,31.3 20.88,33.68 Z" fill="none" stroke="currentColor" stroke-width="1.5"/></svg>