<svg xmlns="http://www.w3.org/2000/svg" viewBox="0 0 46.5 56.25" width="24" height="24"><path d="M25.15,49.11 C23.99,49.11 22.5,48.19 22.5,46.51 C22.5,45.2 23.5,43.89 25.14,43.89 C26.62,43.89 27.74,45.13 27.74,46.47 C27.74,47.77 26.71,49.11 25.15,49.11 Z M38.66,49.12 C37.06,49.12 36,47.79 36,46.45 C36,44.95 37.37,43.87 38.65,43.87 C39.86,43.87 41.25,44.9 41.25,46.55 C41.25,47.84 40.12,49.12 38.66,49.12 Z M38.46,51.75 C41.71,51.75 43.88,49.12 43.88,46.59 C43.77,42.94 40.92,41.19 38.7,41.21 C36.25,41.25 34.22,42.97 33.66,45.17 C33.31,47.02 33.69,47.81 34.02,48.68 C34.21,49.02 34.03,49.42 33.55,49.42 L30.39,49.42 C30.04,49.4 29.72,49.09 29.97,48.66 C30.36,47.9 30.43,47.14 30.44,46.39 C30.44,43.28 27.78,41.22 25.25,41.22 C22.22,41.22 19.92,43.58 19.92,46.51 C19.99,49.6 22.6,51.75 25.2,51.75 Z M18.76,56.25 C18.16,56.25 17.25,55.82 17.25,54.68 L17.25,39 C17.25,38.15 17.9,37.5 18.76,37.5 L45,37.5 C45.87,37.5 46.5,38.22 46.5,38.98 L46.5,54.75 C46.5,55.5 45.88,56.25 45.02,56.25 Z M5.25,9 L21.75,9 L21.75,6.75 L5.25,6.75 Z M0,52.5 L0,2.88 C0,1.63 1.15,0 2.98,0 L24.05,0 C25.56,0 27,1.27 27,2.98 L27,35.25 L18.72,35.25 C17.01,35.32 15.94,36.15 15.29,37.5 L5.25,37.5 L5.25,39.75 L15,39.75 L15,44.25 L5.25,44.25 L5.25,46.5 L15,46.5 L15,52.5 Z" fill="none" stroke="currentColor" stroke-width="1.5"/></svg>