<svg xmlns="http://www.w3.org/2000/svg" viewBox="0 0 40.49 57.75" width="24" height="24"><path d="M8.92,12 L8.92,4.67 C8.9,4.6 8.89,4.54 8.81,4.52 C8.63,4.52 8.54,4.62 8.42,4.69 C7.87,5.1 7.19,5.44 6.37,5.7 L6.37,6.53 C6.97,6.36 7.56,6.14 8.1,5.63 L8.1,12 Z M8.26,16.5 C3.95,16.5 0,13.03 0,8.42 C0,3.91 3.52,0 8.26,0 C12.44,0 16.49,3.27 16.49,8.42 C16.49,12.58 12.99,16.5 8.26,16.5 Z M13.2,20.33 C12.74,19.61 12.37,18.93 12.01,18.05 C11.22,18.37 10.53,18.52 9.88,18.63 C10.3,19.69 10.78,20.71 11.39,21.61 Z M16.2,26.1 L17.4,24.16 C16.36,23.57 15.44,22.81 14.62,21.97 L12.97,23.56 C13.91,24.53 15.08,25.43 16.2,26.1 Z M18.37,27.23 C19.45,27.63 20.57,27.97 21.75,28.23 C21.76,27.45 21.87,26.72 22.04,26.02 C21.08,25.79 20.12,25.52 19.2,25.13 Z M34.42,32.25 L34.42,31.49 L30.74,31.49 C30.73,30.99 31.02,30.56 31.61,30.08 L32.83,29.16 C33.66,28.53 34.15,27.78 34.13,26.83 C34.1,25.89 33.48,24.98 32.24,24.79 C31.44,24.7 30.65,24.96 30.14,25.5 L30.14,26.39 C30.68,25.85 31.28,25.6 31.91,25.56 C32.69,25.54 33.09,25.91 33.2,26.59 C33.31,27.64 32.76,28.27 32.15,28.8 L30.87,29.82 C30.26,30.37 29.92,30.96 29.91,31.62 L29.92,32.25 Z M32.22,36.75 C28.82,36.75 23.99,34.09 23.99,28.52 C23.99,23.72 27.89,20.25 32.22,20.25 C36.37,20.25 40.49,23.49 40.49,28.52 C40.49,33.33 36.53,36.75 32.22,36.75 Z M29.99,41.78 C30.36,40.85 30.74,39.94 31.03,38.93 C31.74,38.99 32.46,39.05 33.34,38.94 C33.01,40.24 32.53,41.5 32.02,42.75 Z M26.62,46.27 C27.4,45.6 28.18,44.79 28.94,43.65 L30.81,44.85 C29.97,46.23 29.01,47.22 28.12,47.99 Z M22.38,51.04 C22.47,50.31 22.53,49.68 22.46,48.67 C23.32,48.41 24.11,48 24.89,47.55 L26.01,49.5 C24.88,50.17 23.66,50.68 22.38,51.04 Z M10.34,52.89 C10.42,53.2 11.57,53.34 12.02,53.33 C14.18,53.28 14.61,51.89 14.61,51.27 C14.65,50.18 13.93,49.54 12.82,49.27 C13.68,48.83 14.16,48.39 14.32,47.75 C14.46,47.19 14.16,46.35 13.64,46 C12.69,45.37 11.33,45.67 10.64,46.06 L10.64,46.88 C11.15,46.53 11.75,46.35 12.32,46.36 C13.02,46.38 13.41,46.75 13.5,47.3 C13.59,47.81 13.46,48.38 12.83,48.72 C12.14,49.06 11.7,48.97 11.09,48.97 L11.09,49.73 C11.68,49.72 12.26,49.72 12.78,49.88 C13.21,50.03 13.53,50.26 13.66,50.65 C13.84,51.2 13.75,51.67 13.51,51.97 C13.11,52.45 12.56,52.54 12.01,52.53 C11.41,52.53 10.81,52.32 10.34,51.98 Z M11.99,57.75 C7.7,57.75 3.74,54.32 3.74,49.6 C3.74,44.41 7.95,41.25 11.99,41.25 C16.3,41.25 20.23,44.64 20.23,49.6 C20.23,53.74 16.82,57.75 11.99,57.75 Z" fill="none" stroke="currentColor" stroke-width="1.5"/></svg>