<svg xmlns="http://www.w3.org/2000/svg" viewBox="0 0 59.72 56.02" width="24" height="24"><path d="M33.63,39.11 L30.55,37.84 C30.11,37.59 29.92,37.23 30.1,36.72 L31.27,33.92 C31.52,33.5 31.86,33.25 32.38,33.46 L35.26,34.91 C36.18,33.82 37.18,32.75 38.3,31.81 L37.04,28.73 C36.94,28.36 36.9,28 37.44,27.65 L40.33,26.44 C40.88,26.26 41.19,26.5 41.38,26.82 L42.67,29.98 C43.97,29.73 45.26,29.61 46.77,30.05 L48.07,26.85 C48.35,26.4 48.72,26.28 49.15,26.44 L52.03,27.66 C52.5,27.95 52.55,28.31 52.43,28.69 L51.15,31.85 C52.28,32.75 53.31,33.71 54.15,34.79 L57.24,33.53 C57.8,33.38 58.13,33.59 58.34,34 L59.55,36.87 C59.63,37.29 59.54,37.65 59.11,37.89 L55.97,39.16 C56.12,40.39 56.1,41.93 55.97,43.29 L59.11,44.56 C59.53,44.82 59.72,45.16 59.59,45.61 L58.45,48.3 C58.22,48.65 57.91,48.83 57.45,48.71 L54.28,47.43 C53.44,48.57 52.4,49.58 51.23,50.47 L52.49,53.56 C52.68,54.05 52.43,54.47 52.13,54.62 L49.09,55.89 C48.68,55.97 48.31,55.93 48.13,55.42 L46.85,52.26 C45.68,52.58 44.24,52.67 42.76,52.29 L41.48,55.41 C41.28,55.74 41.05,56.02 40.48,55.88 L37.51,54.65 C37.09,54.35 36.9,53.98 37.17,53.47 L38.58,50.66 C37.33,49.72 36.29,48.72 35.47,47.65 L32.44,48.9 C31.96,49.07 31.58,48.96 31.3,48.52 L30.09,45.62 C29.96,45.23 30.06,44.78 30.51,44.56 L33.65,43.2 C33.52,41.84 33.51,40.47 33.63,39.11 Z M37.02,41.09 C37.02,45.92 41,48.91 44.88,48.91 C49.1,48.91 52.59,45.33 52.59,41.16 C52.59,36.7 48.83,33.35 44.9,33.35 C41.06,33.35 37.02,36.25 37.02,41.09 Z M8.35,6.15 C10.98,3.94 13.54,2.45 16.05,1.52 C14.77,3.03 13.46,4.96 12.08,7.94 C10.68,7.34 9.41,6.75 8.35,6.15 Z M1.44,17.15 C2.5,13.6 4.28,10.63 6.58,8.08 C8.24,9.2 9.76,9.79 11.3,10.5 C10.02,13.99 9.46,17.88 9.26,21.12 C6.79,20.24 4.32,19.32 1.44,17.15 Z M1.03,29.96 C0.22,27.06 0,23.73 0.68,19.75 C3.02,21.19 5.64,22.55 9.1,23.71 C9.09,27.61 9.47,31.19 10.27,34.44 C7.73,33.73 4.82,32.48 1.03,29.96 Z M11.13,37.5 C12.86,42.79 14.7,45.03 16.55,47.16 C8.48,44.12 4.54,38.58 2.36,33.86 C5.23,35.35 8.1,36.84 11.13,37.5 Z M23.34,39.46 L23.34,48.55 C21.53,48.16 20.02,47.17 18.69,45.83 C16.58,43.67 15.16,41.06 14.1,38.44 C17.17,39.06 20.24,39.52 23.34,39.46 Z M23.34,26.13 L23.35,36.75 C19.97,36.84 16.6,36.26 13.22,35.39 C12.15,31.61 11.69,28 11.71,24.51 C15.53,25.56 19.41,26.05 23.34,26.13 Z M23.47,23.6 C19.06,23.43 15.21,22.84 11.81,21.91 C12.04,18.82 12.12,15.89 13.86,11.29 C17.69,12.49 22.13,12.83 23.48,12.8 Z M23.34,10.38 C20.4,10.25 17.51,9.77 14.65,8.95 C15.61,6.61 16.84,4.46 18.54,2.65 C19.57,1.63 20.69,0.67 22.33,0.13 L23.34,0.13 Z M25.78,0 L26.79,0 C29.11,0.77 30.74,2.59 31.68,3.77 C33.09,5.56 33.87,7.2 34.61,8.83 C32.24,9.5 29.49,10.11 25.78,10.25 Z M26.04,23.58 L26.04,12.82 C29.32,12.66 32.53,12.21 35.64,11.28 C36.7,14.39 37.28,18.06 37.69,21.9 C34.11,22.94 30.19,23.44 26.04,23.58 Z M25.89,36.84 L25.89,26.24 C29.03,26.32 33.13,25.61 37.56,24.62 L37.56,25.24 C37.01,25.44 36.58,25.6 36.21,25.83 C34.68,26.87 34.69,28.5 34.99,29.4 L35.73,31.12 L34.89,31.95 L33.23,31.23 C31.77,30.72 30.36,31.35 29.61,32.52 L28.22,35.77 C28.1,36.11 28.01,36.43 28.03,36.73 C26.98,36.87 26.58,36.82 25.89,36.84 Z M29.39,39.53 L31.45,40.43 L31.45,41.63 L29.67,42.39 C28.52,42.99 27.58,44.42 28.17,46.13 L28.64,47.25 C27.88,47.88 26.79,48.23 25.91,48.43 L25.91,39.32 C26.93,39.29 27.47,39.3 28.93,39.14 Z M40.19,23.59 C43.42,22.62 46.17,21.34 48.44,19.75 C48.7,21.42 48.85,22.5 48.85,24.08 C47.75,24.02 46.54,24.66 45.99,25.78 L45.34,27.52 L44.06,27.52 L43.37,25.82 C42.95,24.99 41.91,23.95 40.16,24.19 Z M38.08,10.48 C39.77,9.79 41.36,9 42.83,8.08 C46.27,12 47.05,14.63 47.95,17.13 C45.52,18.79 42.97,20.21 40.14,21.08 C39.84,17.87 39.4,14.54 38.08,10.48 Z M33.22,1.51 C36.45,2.66 38.79,4.35 40.76,6.27 C39.64,6.9 38.44,7.52 37.05,8.07 C35.65,4.72 34.42,2.94 33.22,1.51 Z" fill="none" stroke="currentColor" stroke-width="1.5"/></svg>