<svg xmlns="http://www.w3.org/2000/svg" viewBox="0 0 56.38 59.29" width="24" height="24"><path d="M20.48,59.29 L23.11,47.37 L27.45,47.37 L26.47,51.76 L32.92,51.76 L33.89,47.37 L50.19,47.37 C51.94,47.43 53.54,47.87 54.67,48.84 C56.17,50.11 56.38,51.98 56.31,53.24 C56.15,54.87 55.31,56.31 53.16,57.58 C51.32,58.66 49.02,59.21 46.86,59.29 L39.07,59.29 L40.95,51.09 L45.68,51.09 L44.39,56.49 C45.05,56.53 45.79,56.53 46.47,56.46 C47.62,56.34 48.84,56.11 49.85,55.42 C50.87,54.74 51.41,53.61 51.17,52.12 C50.94,50.88 50,50.26 48.37,50.26 L37.72,50.26 L35.62,59.29 L31.28,59.29 L32.25,54.69 L25.8,54.69 L24.75,59.29 Z M1.44,50.19 C0.75,50.19 0,49.56 0,48.88 L0,45.41 C0,44.84 0.51,44.37 0.97,44.19 C3.6,43.12 7.24,40.82 9.57,38.46 C15.92,42.01 23.99,42.35 30.97,38.44 C33.31,40.64 36.75,42.95 39.64,44.28 C40.08,44.48 40.25,44.8 40.39,45.08 L21.23,45.08 L20.09,50.26 Z M20.31,39.01 C9.4,39.01 0.75,30.51 0.75,19.17 C0.75,9.45 8.65,0 20.63,0.01 C30.61,0.01 39.74,8.31 39.74,19.67 C39.74,30.59 30.66,39.01 20.31,39.01 Z M33.23,27.01 C34.24,25.29 35.25,22.89 35.25,19.23 C35.25,17.09 34.59,14.29 33.23,12.01 L7.27,12.01 C6.03,14.18 5.26,16.63 5.25,19.5 C5.23,22.5 6.13,25.02 7.28,27.01 Z M20.33,23.24 C17.94,23.24 16.5,21.42 16.5,19.54 C16.44,17.92 17.69,15.87 20.17,15.76 C21.85,15.69 23.88,16.98 24,19.39 C24,21.78 22.15,23.24 20.33,23.24 Z" fill="none" stroke="currentColor" stroke-width="1.5"/></svg>