<svg xmlns="http://www.w3.org/2000/svg" viewBox="0 0 59.33 50.36" width="24" height="24"><path d="M37.5,4.5 L39.75,4.5 L39.75,2.25 L37.5,2.25 Z M42,4.5 L44.25,4.5 L44.25,2.25 L42,2.25 Z M30.75,40.5 L2.95,40.5 C1.41,40.5 0,39.18 0,37.53 L0,2.94 C0,1.3 1.43,0 2.92,0 L48.06,0 C49.62,0 51,1.38 51,2.92 L51,17.09 L50.4,16.5 L48.75,16.5 L48.75,7.5 L2.25,7.5 L2.25,37.54 C2.25,37.89 2.5,38.25 2.98,38.25 L30.75,38.25 Z M30,34.5 L21,34.5 L21,28.5 L24.75,28.5 L24.75,24 L15,24 L15,28.5 L18.75,28.5 L18.75,34.5 L9.75,34.5 L9.75,28.5 L13.5,28.5 L13.5,22.5 L24.75,22.5 L24.75,18 L20.25,18 L20.25,11.25 L30.75,11.25 L30.75,18 L26.25,18 L26.25,22.5 L30.75,22.5 L30.75,24 L26.25,24 L26.25,28.5 L30,28.5 Z M46.5,4.5 L48.75,4.5 L48.75,2.24 L46.5,2.24 Z M39.98,47.25 L33,47.25 L33,18.75 L49.5,18.75 L57,26.24 L57,29.79 C56.48,29.83 55.96,30.03 55.5,30.35 L55.5,27.75 L48,27.75 L48,20.25 L34.5,20.25 L34.5,45.75 L40.92,45.75 Z M44.56,41.25 L39,41.25 L39,39.75 L46.05,39.75 Z M48.31,37.5 L39,37.5 L39,36 L49.8,36 Z M51,33.75 L39,33.75 L39,32.25 L51,32.25 Z M49.44,47.24 L50.94,45.75 L55.5,45.75 L55.5,41.18 L57,39.69 L57,47.24 Z M41.33,50.24 C41.16,50.36 40.83,50.04 40.96,49.86 L44.18,44.77 L56.72,32.22 C57.06,31.92 57.57,31.91 57.83,32.16 L59.06,33.41 C59.29,33.7 59.33,34.1 59.04,34.4 L46.43,47.09 Z M42.9,48.6 L45.53,46.95 L44.25,45.68 L42.6,48.3 Z" fill="none" stroke="currentColor" stroke-width="1.5"/></svg>