<svg xmlns="http://www.w3.org/2000/svg" viewBox="0 0 52.5 59.25" width="24" height="24"><path d="M33,44.25 L33,39.3 L35.25,41.55 L35.25,39.3 L32.25,36.3 L29.25,39.3 L29.25,41.55 L31.5,39.3 L31.5,44.25 Z M37.81,49.5 L40.05,49.5 L37.81,47.25 L42.75,47.25 L42.75,45.75 L37.8,45.75 L40.05,43.5 L37.8,43.5 L34.8,46.5 Z M29.7,46.5 L26.7,43.5 L24.45,43.5 L26.71,45.75 L21.75,45.75 L21.75,47.25 L26.7,47.25 L24.45,49.5 L26.71,49.5 Z M32.25,56.7 L35.25,53.7 L35.25,51.45 L33,53.69 L33,48.75 L31.5,48.75 L31.5,53.7 L29.25,51.45 L29.25,53.7 Z M21.68,59.25 C20.59,59.25 19.5,58.35 19.5,57.01 L19.5,35.97 C19.5,34.95 20.25,33.75 21.77,33.75 L42.81,33.75 C43.86,33.75 45,34.57 45,36.01 L45,57.06 C45,58.23 44.02,59.25 42.81,59.25 Z M5.25,12 L21.75,12 L21.75,9.75 L5.25,9.75 Z M0,55.5 L0,5.96 C0,4.4 1.31,3 2.98,3 L24.03,3 C25.69,3 27,4.4 27,5.98 L27,31.5 L21.66,31.5 C19.46,31.5 17.25,33.36 17.25,36.02 L17.25,40.5 L5.25,40.5 L5.25,42.75 L17.25,42.75 L17.25,47.25 L5.25,47.25 L5.25,49.5 L17.25,49.5 L17.25,55.5 Z" fill="none" stroke="currentColor" stroke-width="1.5"/><path d="M40.5,10.5 L31.5,10.5 L31.5,3 L40.5,1.72 Z M41.25,10.5 L41.25,1.57 L52.5,0 L52.5,10.5 Z M41.25,20.1 L41.25,11.25 L52.5,11.25 L52.5,21.46 Z M31.5,18.74 L31.5,11.25 L40.5,11.25 L40.5,20.02 Z" fill="none" stroke="currentColor" stroke-width="1.5"/></svg>