<svg xmlns="http://www.w3.org/2000/svg" viewBox="0 0 60.16 48.99" width="24" height="24"><path d="M32.39,14.85 C29.69,12.66 26.15,11.61 22.78,12.13 C16.69,13.08 11,18.66 12.19,26.33 C13.38,33.98 20.42,37.75 26.57,36.79 C32.55,35.87 36.89,30.55 37.02,24.71 L48.56,26.53 C48.89,26.86 49.15,27.21 49.05,27.95 L47.91,32.49 C47.64,33.1 47.19,33.46 46.43,33.38 L41.1,32.14 C40.05,34.16 38.65,36.01 37.01,37.7 L39.76,42.28 C40.18,43.02 39.89,43.74 39.45,44.06 L34.94,46.82 C34.31,47.03 33.72,47.08 33.31,46.31 L30.5,41.61 C28.74,42.41 26.47,42.9 24.03,42.66 L22.78,47.92 C22.54,48.49 22.24,48.99 21.31,48.92 L16.3,47.69 C15.56,47.32 15.17,46.78 15.47,45.91 L17.01,41.11 C14.8,39.92 12.91,38.59 11.35,37.11 L6.86,39.82 C6.14,40.22 5.5,40.13 4.95,39.5 L2.32,35.2 C2.03,34.63 2.07,33.89 2.73,33.43 L7.37,30.5 C6.83,28.37 6.48,26.22 6.34,24.02 L6.34,24.02 L1.15,22.76 C0.39,22.48 0,21.96 0.15,21.11 L1.32,16.39 C1.62,15.65 2.09,15.18 2.98,15.39 L7.89,16.98 C9.08,15.03 10.4,13.08 11.94,11.32 L9.19,6.74 C8.95,6.19 8.8,5.63 9.56,4.94 L13.83,2.31 C14.67,1.9 15.22,2.2 15.6,2.66 L18.42,7.35 C20.41,6.63 22.42,6.12 24.93,6.45 L26.2,1.06 C26.54,0.28 27.09,0 27.81,0.15 L32.39,1.28 Z" fill="none" stroke="currentColor" stroke-width="1.5"/><path d="M48.9,20.98 L58.66,20.98 C58.86,20.98 59.03,20.85 59.03,20.59 L59.03,4.08 C59.03,3.93 58.93,3.72 58.66,3.72 L48.9,3.72 L48.9,5.6 L57.15,5.6 L57.15,6.72 L48.9,6.72 L48.9,8.6 L57.15,8.6 L57.15,9.72 L48.9,9.72 L48.9,11.6 L57.15,11.6 L57.15,12.73 L48.9,12.73 L48.9,14.6 L57.15,14.6 L57.15,15.73 L48.9,15.73 L48.9,17.6 L57.15,17.6 L57.15,18.72 L48.9,18.72 Z M38.43,15.8 L39.92,15.98 L40.91,11.28 L42.11,16.05 L43.77,16.16 L45.64,8.13 L44.02,8.13 L43.1,13.44 L41.97,8.2 L40.59,8.24 L39.53,13.33 L38.68,8.59 L37.02,8.59 Z M34.65,22.03 L34.65,2.53 L48.9,0.28 L48.9,2.6 L58.65,2.6 C59.41,2.6 60.16,3.22 60.15,4.11 L60.15,20.61 C60.14,21.52 59.38,22.09 58.71,22.1 L48.9,22.1 L48.9,24.28 Z" fill="none" stroke="currentColor" stroke-width="1.5"/></svg>