<svg xmlns="http://www.w3.org/2000/svg" viewBox="0 0 53.25 56.25" width="24" height="24"><path d="M15.75,45 L50.25,45 L50.25,24.75 L15.75,24.75 Z M14.92,48 C13.87,48 12.75,47.12 12.75,45.79 L12.75,23.91 C12.75,22.84 13.64,21.75 14.95,21.75 L51.05,21.75 C52.37,21.75 53.25,22.87 53.25,23.9 L53.25,45.7 C53.25,47.03 52.31,48 50.94,48 L37.8,48 C37.54,48.92 37.28,49.89 37.23,50.72 C37.12,52.42 38.2,52.91 40.12,53.18 C41.41,53.34 42.55,53.37 43.77,53.4 C44.51,53.4 45.22,53.94 45.22,54.82 C45.22,55.67 44.61,56.25 43.78,56.25 L22.26,56.25 C21.5,56.25 20.85,55.63 20.85,54.82 C20.85,54.1 21.42,53.4 22.26,53.4 C23.68,53.35 25.13,53.35 26.62,53.06 C28.05,52.78 28.93,52.25 28.77,50.63 C28.71,49.89 28.46,48.92 28.2,48 Z M5.25,9 L21.75,9 L21.75,6.75 L5.25,6.75 Z M0,52.5 L0,2.94 C0,1.25 1.53,0 2.87,0 L24.09,0 C25.57,0 27,1.33 27,2.94 L27,19.5 L14.84,19.5 C12.56,19.5 10.5,21.62 10.5,23.86 L10.5,37.5 L5.25,37.5 L5.25,39.75 L10.5,39.75 L10.5,44.25 L5.25,44.25 L5.25,46.5 L10.56,46.5 C10.99,48.87 13.08,50.25 14.83,50.25 L26.4,50.25 C26.4,50.43 26.48,50.62 26.47,50.77 C25.71,51.02 24,51.15 22.55,51.15 C21.91,51.12 21.36,51.2 20.8,51.43 C20.25,51.65 19.77,52.01 19.36,52.5 Z" fill="none" stroke="currentColor" stroke-width="1.5"/></svg>