<svg xmlns="http://www.w3.org/2000/svg" viewBox="0 0 53.97 53.97" width="24" height="24"><path d="M26.07,15.75 L41.33,0.6 C41.8,0.09 42.63,0 43.16,0.49 L45.39,2.72 L46.66,1.45 C48.21,0.11 50.47,0.16 52.25,1.73 C53.97,3.72 53.69,6.04 52.59,7.28 L34.05,25.83 L28.18,19.95 L43.86,4.4 L42.31,2.87 L31.1,14.07 C31.11,14.97 30.56,15.79 29.98,16.27 C29.02,16.99 28.3,17.2 27.45,17.15 Z M31.81,26.94 L11.21,47.54 L10.65,46.99 L6.04,51.58 C5.42,52.18 4.61,52.45 3.78,52.3 L0.58,53.83 C0.24,53.97 0,53.93 0.14,53.45 L1.69,50.19 C1.56,49.41 1.85,48.52 2.42,47.93 L7.01,43.34 L6.45,42.79 L27.04,22.19 Z" fill="none" stroke="currentColor" stroke-width="1.5"/></svg>