<svg xmlns="http://www.w3.org/2000/svg" viewBox="0 0 57.94 51.9" width="24" height="24"><path d="M43.21,15.53 L44.49,15.53 C45.65,15.53 46.88,14.95 46.88,13.56 C46.88,11.79 45.33,11.55 44.72,11.55 L43.21,11.55 Z M41.4,21 L41.4,9.94 L44.86,9.94 C46.99,9.94 48.75,11 48.75,13.47 C48.75,14.75 48.2,15.62 47.37,16.28 C46.73,16.75 45.89,17.06 44.7,17.1 L43.21,17.1 L43.21,21 Z M34.42,15.53 L35.71,15.53 C36.87,15.53 38.1,14.95 38.1,13.56 C38.1,11.79 36.55,11.55 35.94,11.55 L34.42,11.55 Z M32.62,21 L32.62,9.94 L36.08,9.94 C38.21,9.94 39.97,11 39.97,13.47 C39.97,14.75 39.42,15.62 38.59,16.27 C37.95,16.75 37.1,17.06 35.92,17.1 L34.42,17.1 L34.42,21 Z M18,21 L18,9.94 L20.62,9.94 L23.97,18.38 L27.45,9.94 L29.92,9.94 L29.92,21 L28.12,21 L28.12,12.2 L24.52,21 L23.33,21 L19.65,12.15 L19.65,21 Z M6.9,21 L10.57,15.45 L7.2,9.94 L9.45,9.94 L11.76,14.24 L14.25,9.94 L16.27,9.94 L12.82,15.45 L16.49,21 L14.32,21 L11.81,16.62 L9.15,21 Z M27.1,30.74 L0,30.74 L0,0 L56.25,0 L56.25,27.15 C55.46,26.97 54.72,27.13 54,27.49 L54,2.25 L2.25,2.25 L2.25,28.5 L28.08,28.5 C27.8,29.04 27.45,29.9 27.1,30.74 Z M32.03,35.11 L28.98,33.84 C28.53,33.6 28.35,33.24 28.52,32.73 L29.68,29.95 C29.94,29.53 30.27,29.29 30.79,29.5 L33.65,30.94 C34.56,29.86 35.56,28.79 36.66,27.86 L35.41,24.8 C35.32,24.43 35.28,24.07 35.81,23.73 L38.68,22.52 C39.23,22.35 39.54,22.59 39.73,22.91 L41.01,26.04 C42.3,25.79 43.58,25.67 45.08,26.11 L46.37,22.93 C46.65,22.49 47.01,22.37 47.44,22.52 L50.3,23.73 C50.77,24.03 50.82,24.38 50.71,24.76 L49.43,27.89 C50.55,28.79 51.58,29.74 52.41,30.82 L55.48,29.57 C56.03,29.41 56.36,29.62 56.57,30.03 L57.77,32.88 C57.85,33.3 57.76,33.66 57.34,33.89 L54.22,35.16 C54.36,36.38 54.35,37.91 54.21,39.26 L57.34,40.52 C57.76,40.78 57.94,41.12 57.81,41.56 L56.68,44.23 C56.45,44.58 56.15,44.76 55.69,44.64 L52.54,43.37 C51.71,44.51 50.67,45.51 49.51,46.38 L50.76,49.45 C50.95,49.95 50.7,50.36 50.4,50.51 L47.38,51.78 C46.97,51.85 46.61,51.82 46.43,51.31 L45.16,48.16 C44,48.49 42.56,48.57 41.1,48.19 L39.83,51.29 C39.63,51.62 39.4,51.9 38.84,51.77 L35.89,50.54 C35.47,50.24 35.28,49.88 35.55,49.37 L36.94,46.58 C35.71,45.64 34.67,44.65 33.86,43.59 L30.85,44.82 C30.37,45 29.99,44.89 29.71,44.45 L28.51,41.57 C28.38,41.19 28.48,40.74 28.93,40.52 L32.05,39.17 C31.92,37.81 31.91,36.46 32.03,35.11 Z M35.39,37.09 C35.39,41.89 39.34,44.86 43.2,44.86 C47.39,44.86 50.86,41.3 50.86,37.16 C50.86,32.73 47.12,29.4 43.22,29.4 C39.4,29.4 35.39,32.28 35.39,37.09 Z" fill="none" stroke="currentColor" stroke-width="1.5"/></svg>