<svg xmlns="http://www.w3.org/2000/svg" viewBox="0 0 82.0 85.0" width="24" height="24"><path d="M0,85 L0,10 L19,0 L38,10 L38,85 Z M44,85 L44,10 L63,0 L82,10 L82,85 Z" fill="none" stroke="currentColor" stroke-width="1.5"/><rect x="28" y="15" width="6" height="4" fill="none" stroke="currentColor"/><rect x="28" y="22.5" width="6" height="4" fill="none" stroke="currentColor"/><rect x="28" y="30" width="6" height="4" fill="none" stroke="currentColor"/><rect x="28" y="37.5" width="6" height="4" fill="none" stroke="currentColor"/><rect x="28" y="45" width="6" height="4" fill="none" stroke="currentColor"/><rect x="28" y="52.5" width="6" height="4" fill="none" stroke="currentColor"/><rect x="28" y="60" width="6" height="4" fill="none" stroke="currentColor"/><rect x="28" y="67.5" width="6" height="4" fill="none" stroke="currentColor"/><rect x="16" y="15" width="6" height="4" fill="none" stroke="currentColor"/><rect x="16" y="22.5" width="6" height="4" fill="none" stroke="currentColor"/><rect x="16" y="30" width="6" height="4" fill="none" stroke="currentColor"/><rect x="16" y="37.5" width="6" height="4" fill="none" stroke="currentColor"/><rect x="16" y="45" width="6" height="4" fill="none" stroke="currentColor"/><rect x="16" y="52.5" width="6" height="4" fill="none" stroke="currentColor"/><rect x="16" y="60" width="6" height="4" fill="none" stroke="currentColor"/><rect x="16" y="67.5" width="6" height="4" fill="none" stroke="currentColor"/><rect x="4" y="15" width="6" height="4" fill="none" stroke="currentColor"/><rect x="4" y="22.5" width="6" height="4" fill="none" stroke="currentColor"/><rect x="4" y="30" width="6" height="4" fill="none" stroke="currentColor"/><rect x="4" y="37.5" width="6" height="4" fill="none" stroke="currentColor"/><rect x="4" y="45" width="6" height="4" fill="none" stroke="currentColor"/><rect x="4" y="52.5" width="6" height="4" fill="none" stroke="currentColor"/><rect x="4" y="60" width="6" height="4" fill="none" stroke="currentColor"/><rect x="4" y="67.5" width="6" height="4" fill="none" stroke="currentColor"/><rect x="16" y="75" width="6" height="9" fill="none" stroke="currentColor"/><rect x="4" y="75" width="6" height="4" fill="none" stroke="currentColor"/><rect x="28" y="75" width="6" height="4" fill="none" stroke="currentColor"/><rect x="72" y="15" width="6" height="4" fill="none" stroke="currentColor"/><rect x="72" y="22.5" width="6" height="4" fill="none" stroke="currentColor"/><rect x="72" y="30" width="6" height="4" fill="none" stroke="currentColor"/><rect x="72" y="37.5" width="6" height="4" fill="none" stroke="currentColor"/><rect x="72" y="45" width="6" height="4" fill="none" stroke="currentColor"/><rect x="72" y="52.5" width="6" height="4" fill="none" stroke="currentColor"/><rect x="72" y="60" width="6" height="4" fill="none" stroke="currentColor"/><rect x="72" y="67.5" width="6" height="4" fill="none" stroke="currentColor"/><rect x="60" y="15" width="6" height="4" fill="none" stroke="currentColor"/><rect x="60" y="22.5" width="6" height="4" fill="none" stroke="currentColor"/><rect x="60" y="30" width="6" height="4" fill="none" stroke="currentColor"/><rect x="60" y="37.5" width="6" height="4" fill="none" stroke="currentColor"/><rect x="60" y="45" width="6" height="4" fill="none" stroke="currentColor"/><rect x="60" y="52.5" width="6" height="4" fill="none" stroke="currentColor"/><rect x="60" y="60" width="6" height="4" fill="none" stroke="currentColor"/><rect x="60" y="67.5" width="6" height="4" fill="none" stroke="currentColor"/><rect x="48" y="15" width="6" height="4" fill="none" stroke="currentColor"/><rect x="48" y="22.5" width="6" height="4" fill="none" stroke="currentColor"/><rect x="48" y="30" width="6" height="4" fill="none" stroke="currentColor"/><rect x="48" y="37.5" width="6" height="4" fill="none" stroke="currentColor"/><rect x="48" y="45" width="6" height="4" fill="none" stroke="currentColor"/><rect x="48" y="52.5" width="6" height="4" fill="none" stroke="currentColor"/><rect x="48" y="60" width="6" height="4" fill="none" stroke="currentColor"/><rect x="48" y="67.5" width="6" height="4" fill="none" stroke="currentColor"/><rect x="60" y="75" width="6" height="9" fill="none" stroke="currentColor"/><rect x="48" y="75" width="6" height="4" fill="none" stroke="currentColor"/><rect x="72" y="75" width="6" height="4" fill="none" stroke="currentColor"/></svg>