<svg xmlns="http://www.w3.org/2000/svg" viewBox="0 0 100.0 100.0" width="24" height="24"><path d="M20,94 L16,46.5 L0,36 L0,33 L16,42 L16,30 L5,23 L5,20 L16,26 L16,18 L33,18 L37,20.5 L45,20.5 L45,6 L65,0 L65,11 L84,4 L84,2 L97,2 L97,5 L100,8 L100,90 Z" fill="none" stroke="currentColor" stroke-width="1.5"/><ellipse cx="92.0" cy="97.0" rx="3.0" ry="3.0" fill="none" stroke="currentColor"/><ellipse cx="22.0" cy="97.0" rx="3.0" ry="3.0" fill="none" stroke="currentColor"/><path d="M45,94 L45,20.5 M45,25 L37,20.5 M45,25 L82,25 M45,54 L100,54 M45,64 L100,64 M63,54 L63,64 M45,74 L100,74 M45,84 L100,84 M82,29 L82,17 L100,17 M45,29 L100,29 M16,25 L16,50" fill="none" stroke="currentColor" stroke-width="1.5"/><rect x="53" y="15" width="24" height="7" fill="none" stroke="currentColor"/><rect x="66" y="87" width="10" height="3" fill="none" stroke="currentColor"/><rect x="66" y="77" width="10" height="3" fill="none" stroke="currentColor"/><rect x="66" y="67" width="10" height="3" fill="none" stroke="currentColor"/><rect x="66" y="57" width="10" height="3" fill="none" stroke="currentColor"/><rect x="55" y="17" width="12" height="3" fill="none" stroke="currentColor"/></svg>