<svg xmlns="http://www.w3.org/2000/svg" viewBox="0 0 100.0 100.0" width="24" height="24"><rect x="0" y="0" width="10.5" height="8" fill="none" stroke="currentColor"/><rect x="13.3" y="0" width="23" height="8" fill="none" stroke="currentColor"/><rect x="38.5" y="0" width="23" height="8" fill="none" stroke="currentColor"/><rect x="64.3" y="0" width="23" height="8" fill="none" stroke="currentColor"/><rect x="89.5" y="0" width="10.5" height="8" fill="none" stroke="currentColor"/><rect x="0" y="10.25" width="23" height="8" fill="none" stroke="currentColor"/><rect x="25.7" y="10.25" width="23" height="8" fill="none" stroke="currentColor"/><rect x="51.4" y="10.25" width="23" height="8" fill="none" stroke="currentColor"/><rect x="77" y="10.25" width="23" height="8" fill="none" stroke="currentColor"/><rect x="0" y="20.5" width="10.5" height="8" fill="none" stroke="currentColor"/><rect x="13.3" y="20.5" width="23" height="8" fill="none" stroke="currentColor"/><rect x="38.5" y="20.5" width="23" height="8" fill="none" stroke="currentColor"/><rect x="64.3" y="20.5" width="23" height="8" fill="none" stroke="currentColor"/><rect x="89.5" y="20.5" width="10.5" height="8" fill="none" stroke="currentColor"/><rect x="0" y="30.75" width="23" height="8" fill="none" stroke="currentColor"/><rect x="25.7" y="30.75" width="23" height="8" fill="none" stroke="currentColor"/><rect x="51.4" y="30.75" width="23" height="8" fill="none" stroke="currentColor"/><rect x="77" y="30.75" width="23" height="8" fill="none" stroke="currentColor"/><rect x="0" y="41" width="10.5" height="8" fill="none" stroke="currentColor"/><rect x="13.3" y="41" width="23" height="8" fill="none" stroke="currentColor"/><rect x="39" y="41" width="23" height="8" fill="none" stroke="currentColor"/><rect x="64.3" y="41" width="23" height="8" fill="none" stroke="currentColor"/><rect x="89.5" y="41" width="10.5" height="8" fill="none" stroke="currentColor"/><rect x="0" y="51.5" width="23" height="8" fill="none" stroke="currentColor"/><rect x="25.7" y="51.5" width="23" height="8" fill="none" stroke="currentColor"/><rect x="51.4" y="51.5" width="23" height="8" fill="none" stroke="currentColor"/><rect x="77" y="51.5" width="23" height="8" fill="none" stroke="currentColor"/><rect x="0" y="61.75" width="10.5" height="8" fill="none" stroke="currentColor"/><rect x="13.3" y="61.75" width="23" height="8" fill="none" stroke="currentColor"/><rect x="39" y="61.75" width="23" height="8" fill="none" stroke="currentColor"/><rect x="64.3" y="61.75" width="23" height="8" fill="none" stroke="currentColor"/><rect x="89.5" y="61.75" width="10.5" height="8" fill="none" stroke="currentColor"/><rect x="0" y="72" width="23" height="8" fill="none" stroke="currentColor"/><rect x="25.7" y="72" width="23" height="8" fill="none" stroke="currentColor"/><rect x="51.4" y="72" width="23" height="8" fill="none" stroke="currentColor"/><rect x="77" y="72" width="23" height="8" fill="none" stroke="currentColor"/><rect x="0" y="82" width="10.5" height="8" fill="none" stroke="currentColor"/><rect x="13.3" y="82" width="23" height="8" fill="none" stroke="currentColor"/><rect x="38.5" y="82" width="23" height="8" fill="none" stroke="currentColor"/><rect x="64.3" y="82" width="23" height="8" fill="none" stroke="currentColor"/><rect x="89.5" y="82" width="10.5" height="8" fill="none" stroke="currentColor"/><rect x="0" y="92" width="23" height="8" fill="none" stroke="currentColor"/><rect x="25.7" y="92" width="23" height="8" fill="none" stroke="currentColor"/><rect x="51.4" y="92" width="23" height="8" fill="none" stroke="currentColor"/><rect x="77" y="92" width="23" height="8" fill="none" stroke="currentColor"/><path d="M43.4,81.6 Z" fill="none" stroke="currentColor" stroke-width="1.5"/></svg>