<svg xmlns="http://www.w3.org/2000/svg" viewBox="0 0 50.0 100.0" width="24" height="24"><rect x="0" y="0" width="50" height="100" fill="none" stroke="currentColor"/><rect x="3" y="3" width="44" height="94" fill="none" stroke="currentColor"/><path d="M3,12 L47,12 M3,21 L47,21 M3,30 L47,30 M3,39 L47,39 M3,48 L47,48 M3,66 L47,66 M3,75 L47,75 M3,93 L47,93" fill="none" stroke="currentColor" stroke-width="1.5"/><rect x="7" y="6" width="3" height="2" fill="none" stroke="currentColor"/><rect x="12" y="6" width="3" height="2" fill="none" stroke="currentColor"/><rect x="17" y="6" width="3" height="2" fill="none" stroke="currentColor"/><ellipse cx="41.0" cy="7.5" rx="1.5" ry="1.5" fill="none" stroke="currentColor"/><rect x="7" y="15" width="3" height="2" fill="none" stroke="currentColor"/><rect x="12" y="15" width="3" height="2" fill="none" stroke="currentColor"/><rect x="17" y="15" width="3" height="2" fill="none" stroke="currentColor"/><ellipse cx="41.0" cy="16.5" rx="1.5" ry="1.5" fill="none" stroke="currentColor"/><rect x="7" y="24" width="3" height="2" fill="none" stroke="currentColor"/><rect x="12" y="24" width="3" height="2" fill="none" stroke="currentColor"/><rect x="17" y="24" width="3" height="2" fill="none" stroke="currentColor"/><ellipse cx="41.0" cy="25.5" rx="1.5" ry="1.5" fill="none" stroke="currentColor"/><rect x="7" y="33" width="3" height="2" fill="none" stroke="currentColor"/><rect x="12" y="33" width="3" height="2" fill="none" stroke="currentColor"/><rect x="17" y="33" width="3" height="2" fill="none" stroke="currentColor"/><ellipse cx="41.0" cy="34.5" rx="1.5" ry="1.5" fill="none" stroke="currentColor"/><rect x="7" y="42" width="3" height="2" fill="none" stroke="currentColor"/><rect x="12" y="42" width="3" height="2" fill="none" stroke="currentColor"/><rect x="17" y="42" width="3" height="2" fill="none" stroke="currentColor"/><ellipse cx="41.0" cy="43.5" rx="1.5" ry="1.5" fill="none" stroke="currentColor"/><rect x="7" y="51" width="3" height="12" fill="none" stroke="currentColor"/><rect x="12" y="51" width="3" height="12" fill="none" stroke="currentColor"/><rect x="17" y="51" width="3" height="12" fill="none" stroke="currentColor"/><ellipse cx="41.0" cy="52.5" rx="1.5" ry="1.5" fill="none" stroke="currentColor"/><rect x="7" y="69" width="3" height="2" fill="none" stroke="currentColor"/><rect x="12" y="69" width="3" height="2" fill="none" stroke="currentColor"/><rect x="17" y="69" width="3" height="2" fill="none" stroke="currentColor"/><ellipse cx="41.0" cy="70.5" rx="1.5" ry="1.5" fill="none" stroke="currentColor"/><rect x="7" y="78" width="3" height="12" fill="none" stroke="currentColor"/><rect x="12" y="78" width="3" height="12" fill="none" stroke="currentColor"/><rect x="17" y="78" width="3" height="12" fill="none" stroke="currentColor"/><ellipse cx="41.0" cy="79.5" rx="1.5" ry="1.5" fill="none" stroke="currentColor"/><rect x="22" y="51" width="3" height="12" fill="none" stroke="currentColor"/><rect x="27" y="51" width="3" height="12" fill="none" stroke="currentColor"/><rect x="22" y="78" width="3" height="12" fill="none" stroke="currentColor"/><rect x="27" y="78" width="3" height="12" fill="none" stroke="currentColor"/></svg>