<svg xmlns="http://www.w3.org/2000/svg" viewBox="0 0 42.5 98.51" width="24" height="24"><path d="M42.5,32.5 L42.5,86 L11.5,98.5 L0,32.5 Z M36.5,51 L27,51 L27,60 L29.5,60 L23.5,65.5 L23.5,47.5 L27.5,47.5 L21,38 L14,47.5 L18.5,47.5 L18.5,71 L14.5,68.5 L12.5,61.5 L8,66.5 L18.5,77 L18.5,79.5 L23.5,70.5 L29,68 L34,60 L36.5,60 Z M9,29.5 L6,2.5 L33,0 L36,26.5 Z M16.5,23.5 L16.5,17 L10.5,17 L10.5,23.5 Z M25.5,23.5 L31.5,23.5 L31.5,17 L25.5,17 Z" fill="none" stroke="currentColor" stroke-width="1.5"/></svg>