<svg xmlns="http://www.w3.org/2000/svg" viewBox="0 0 300.0 150.0" width="24" height="24"><path d="M20,50 L70,50 M230,50 L280,50 M137,12 L150,25 L137,38 M152,12 L165,25 L152,38 M45,50 L45,120 L150,120 M137,107 L150,120 L137,133 M152,107 L165,120 L152,133 M290,150 L275,135 L275,105 L290,120 M165,120 L275,120 L290,135 M165,25 L300,25 M0,25 L150,25" fill="none" stroke="currentColor" stroke-width="1.5"/><ellipse cx="45.0" cy="25.0" rx="25.0" ry="25.0" fill="none" stroke="currentColor"/><ellipse cx="255.0" cy="25.0" rx="25.0" ry="25.0" fill="none" stroke="currentColor"/></svg>