<svg xmlns="http://www.w3.org/2000/svg" viewBox="0 0 57.75 62.25" width="24" height="24"><rect x="0" y="0" width="0" height="0" fill="none" stroke="currentColor"/><ellipse cx="39.75" cy="24.25" rx="3.0" ry="3.0" fill="none" stroke="currentColor"/><ellipse cx="18.25" cy="14.25" rx="3.0" ry="3.0" fill="none" stroke="currentColor"/><path d="M0,14.25 L15,14.25 M42.75,24.25 L57.75,24.25 M20.75,13.5 L39.75,6.5 M42.75,3 L57.75,3 M0.25,49.25 L15.25,49.25 M20.75,48.5 L39.75,41.5 M42.75,59.25 L57.75,59.25 M42.75,38 L57.75,38" fill="none" stroke="currentColor" stroke-width="1.5"/><ellipse cx="39.75" cy="3.0" rx="3.0" ry="3.0" fill="none" stroke="currentColor"/><ellipse cx="18.25" cy="49.25" rx="3.0" ry="3.0" fill="none" stroke="currentColor"/><ellipse cx="39.75" cy="59.25" rx="3.0" ry="3.0" fill="none" stroke="currentColor"/><ellipse cx="39.75" cy="38.0" rx="3.0" ry="3.0" fill="none" stroke="currentColor"/><path d="M29.75,10.25 L29.75,45.25" fill="none" stroke="currentColor" stroke-width="1.5"/></svg>