<svg xmlns="http://www.w3.org/2000/svg" viewBox="0 0 99.0 60.0" width="24" height="24"><rect x="0" y="0" width="99" height="60" fill="none" stroke="currentColor"/><path d="M46.5,33 L49.5,35 L46.5,37 M39.5,25 L49.5,25 M46.5,23 L49.5,25 L46.5,27 M9.5,35 L29.5,35 M59.5,12 L59.5,48 M59.5,22 L79.5,10 L79.5,0 M75.5,47.7 L59.5,38 M79.5,50 L79.5,60 M19.5,0 L19.5,60 M39.5,35 L49.5,35" fill="none" stroke="currentColor" stroke-width="1.5"/><path d="M10.5,25 L19.5,34.5 L28.5,25 Z M76.5,46 L79.5,50 L74.5,49.4 Z" fill="none" stroke="currentColor" stroke-width="1.5"/></svg>