<svg xmlns="http://www.w3.org/2000/svg" viewBox="0 0 41.49 42.9" width="24" height="24"><path d="M20.73,42.9 C9.39,42.9 0,33.93 0,22.4 L0,20.19 C0,9.45 8.78,0 20.78,0 C32.66,0 41.49,9.67 41.49,20.54 L41.48,22.4 C41.48,34.12 31.85,42.9 20.73,42.9 Z" fill="none" stroke="currentColor" stroke-width="1.5"/><path d="M41.49,20.54 L41.48,22.4 C41.48,34.13 31.83,42.9 20.73,42.9 C9.41,42.9 0,33.89 0,22.4 L0,20.19 C0,31.97 9,41.1 20.97,41.1 C32.06,41.1 41.49,32.1 41.49,20.54 Z" fill="none" stroke="currentColor" stroke-width="1.5"/><rect x="0" y="0" width="0" height="0" fill="none" stroke="currentColor"/><path d="M16.95,35.7 L12.9,32.48 L21.83,21.45 L12.9,10.43 L16.95,7.2 L28.5,21.45 Z" fill="none" stroke="currentColor" stroke-width="1.5"/></svg>