<svg xmlns="http://www.w3.org/2000/svg" viewBox="0 0 60.53 47.36" width="24" height="24"><path d="M60.53,22 C60.53,22.87 59.88,23.4 59.15,23.4 L52.75,23.4 L52.75,46 C52.75,46.71 52.17,47.36 51.37,47.36 L9.19,47.36 C8.31,47.36 7.75,46.7 7.75,46.01 L7.75,23.4 L1.3,23.4 C0.6,23.4 0,22.77 0,22.1 L0,17.87 C0,17.63 0.14,17.37 0.37,17.23 L30.25,0 L60.1,17.19 C60.4,17.36 60.53,17.63 60.53,17.97 Z" fill="none" stroke="currentColor" stroke-width="1.5"/><path d="M7.75,23.4 L1.3,23.4 C0.6,23.4 0,22.77 0,22.1 L0,20.19 C0,21.06 0.68,21.6 1.3,21.6 L7.75,21.6 Z M52.75,23.4 L52.75,21.6 L59.21,21.6 C59.81,21.6 60.53,21.13 60.53,20.22 L60.53,22 C60.53,22.87 59.88,23.4 59.15,23.4 Z M52.75,44.19 L52.75,46 C52.75,46.72 52.17,47.36 51.37,47.36 L9.19,47.36 C8.31,47.36 7.75,46.7 7.75,46.01 L7.75,44.21 C7.77,44.94 8.36,45.54 9.08,45.56 L51.38,45.56 C52.18,45.56 52.75,44.89 52.75,44.19 Z" fill="none" stroke="currentColor" stroke-width="1.5"/><rect x="0" y="0" width="0" height="0" fill="none" stroke="currentColor"/><path d="M30.39,35.66 C35.99,35.66 40.02,30.95 40.02,25.97 C40.02,21.82 36.67,16.3 30.06,16.3 C26.41,16.3 20.49,19.56 20.49,26.21 C20.49,31.48 25.36,35.66 30.39,35.66 Z M30.18,39.99 C22.38,39.99 16.17,33.66 16.17,26 C16.17,18.66 21.99,11.9 30.11,11.9 C39.22,11.9 44.32,19.32 44.32,25.91 C44.32,33.68 38.16,39.99 30.18,39.99 Z" fill="none" stroke="currentColor" stroke-width="1.5"/></svg>