<svg xmlns="http://www.w3.org/2000/svg" viewBox="0 0 53.41 53.41" width="24" height="24"><path d="M46.57,28.2 L46.57,34.57 C48.82,36.43 49.9,39.1 49.9,41.51 L49.9,43.38 C49.9,48.58 45.85,52.64 40.69,52.64 C36.05,52.64 31.62,48.92 31.62,43.42 L31.63,41.42 C31.69,38.37 33.29,35.91 34.93,34.6 C31.39,36.91 30.33,40.49 30.15,42.58 C30.31,44.21 30.76,45.45 31.35,46.58 L31.35,48.45 L28.2,48.45 L28.2,53.41 L25.2,53.41 L25.2,48.45 L23.7,48.45 L23.7,53.41 L20.7,53.41 L20.7,48.45 L19.2,48.45 L19.2,53.41 L16.2,53.41 L16.2,48.45 L13.55,48.45 C10.35,48.45 6.82,45.78 6.82,41.62 L6.82,37.2 L0,37.2 L0,34.2 L6.82,34.2 L6.82,32.7 L0,32.7 L0,29.7 L6.82,29.7 L6.82,28.2 L0,28.2 L0,25.2 L6.82,25.2 L6.82,23.7 L0,23.7 L0,20.7 L6.82,20.7 L6.82,19.2 L0,19.2 L0,16.2 L6.82,16.2 L6.82,13.6 C6.82,9.86 9.95,6.83 13.52,6.83 L16.2,6.83 L16.2,0 L19.2,0 L19.2,6.83 L20.7,6.83 L20.7,0 L23.7,0 L23.7,6.83 L25.2,6.83 L25.2,0 L28.2,0 L28.2,6.83 L29.7,6.83 L29.7,0 L32.7,0 L32.7,6.83 L34.2,6.83 L34.2,0 L37.2,0 L37.2,6.83 L39.77,6.83 C43.62,6.83 46.57,10.04 46.57,13.6 L46.57,16.2 L53.41,16.2 L53.41,19.2 L46.57,19.2 L46.57,20.7 L53.41,20.7 L53.41,23.7 L46.57,23.7 L46.57,25.2 L53.41,25.2 L53.41,28.2 Z" fill="none" stroke="currentColor" stroke-width="1.5"/><path d="M16.2,46.58 L16.2,48.45 L13.55,48.45 C10.35,48.45 6.82,45.79 6.82,41.62 L6.82,39.83 C6.82,43.48 9.91,46.58 13.58,46.58 Z M20.7,46.58 L20.7,48.45 L19.2,48.45 L19.2,46.58 Z M25.2,48.45 L23.7,48.45 L23.7,46.58 L25.2,46.58 Z M31.35,46.58 L31.35,48.45 L28.2,48.45 L28.2,46.58 Z M46.57,34.57 C44.85,33.23 42.8,32.31 39.93,32.53 C38.22,32.67 36.54,33.28 34.93,34.6 C31.4,36.91 30.32,40.48 30.15,42.58 C29.89,38.66 31.48,35.89 33.43,33.91 C35.09,32.36 37.74,30.75 41.67,31.03 C43.77,31.21 45.38,31.94 46.57,32.71 Z M49.9,41.51 L49.9,43.38 C49.9,48.57 45.85,52.64 40.69,52.64 C36.05,52.64 31.62,48.92 31.62,43.42 L31.63,41.42 C31.63,46.72 35.67,50.76 40.81,50.76 C45.63,50.76 49.9,46.91 49.9,41.51 Z" fill="none" stroke="currentColor" stroke-width="1.5"/><rect x="0" y="0" width="0" height="0" fill="none" stroke="currentColor"/><path d="M39.84,48.82 C41.03,48.29 41.93,47.68 42.66,47.1 C44.04,45.98 44.92,44.74 45.37,43.61 C45.85,42.46 46.05,40.65 44.92,38.9 C43.69,37.07 41.71,36.58 40.37,36.69 C38.14,36.88 36.65,38.45 36.12,39.87 C35.11,42.5 36.53,45.46 39.09,46.35 C39.46,46.46 39.84,46.76 39.84,47.36 Z M40.8,48.9 C36.9,48.9 33.52,45.71 33.52,41.66 C33.52,37.63 36.77,34.37 40.76,34.37 C45.38,34.37 48.11,38.13 48.11,41.65 C48.11,45.35 45.13,48.9 40.8,48.9 Z" fill="none" stroke="currentColor" stroke-width="1.5"/></svg>