<svg xmlns="http://www.w3.org/2000/svg" viewBox="0 0 39.75 41.55" width="24" height="24"><path d="M39.75,34.84 C39.75,38.36 36.82,41.55 32.98,41.55 L6.85,41.55 C2.99,41.55 0.04,38.4 0,34.86 L0,6.74 C0,3.17 3.03,0 6.77,0 L33.02,0 C36.81,0 39.75,3.23 39.75,6.82 Z" fill="none" stroke="currentColor" stroke-width="1.5"/><path d="M6.85,41.55 C2.91,41.55 0,38.27 0,34.86 L0,32.97 C0,36.78 3.22,39.75 6.73,39.75 L33.03,39.75 C36.86,39.75 39.75,36.4 39.75,33.02 L39.75,34.84 C39.75,38.36 36.82,41.55 32.98,41.55 Z" fill="none" stroke="currentColor" stroke-width="1.5"/><rect x="0" y="0" width="0" height="0" fill="none" stroke="currentColor"/><path d="M15.15,15.82 L15.15,7.87 L9.15,7.87 L9.15,15.82 Z M22.87,15.82 L22.87,7.88 L16.87,7.87 L16.87,15.82 Z M30.6,15.82 L30.6,7.87 L24.6,7.88 L24.6,15.82 Z M32.47,17.85 L7.2,17.85 L7.2,5.92 L32.47,5.92 Z M24.6,31.8 L30.6,31.8 L30.6,23.85 L24.6,23.85 Z M16.87,31.8 L22.87,31.79 L22.87,23.85 L16.87,23.85 Z M9.15,31.8 L15.15,31.8 L15.15,23.85 L9.15,23.85 Z M7.2,33.82 L7.2,21.9 L32.47,21.9 L32.47,33.83 Z" fill="none" stroke="currentColor" stroke-width="1.5"/></svg>