<svg xmlns="http://www.w3.org/2000/svg" viewBox="0 0 49.06 55.72" width="24" height="24"><path d="M24.53,55.72 L0,41.77 L0,13.88 L24.53,0 L49.06,13.88 L49.06,41.77 Z" fill="none" stroke="currentColor" stroke-width="1.5"/><path d="M25.28,53.47 L25.28,42.98 L24.53,43.42 L23.78,42.98 L23.78,53.47 L1.5,40.87 L1.5,15.6 L10.8,20.87 L10.8,20.02 L11.56,19.56 L2.33,14.32 L24.53,1.72 L46.73,14.32 L37.49,19.57 L38.25,19.95 L38.25,20.86 L47.55,15.6 L47.55,40.87 Z" fill="none" stroke="currentColor" stroke-width="1.5"/><rect x="0" y="0" width="0" height="0" fill="none" stroke="currentColor"/><path d="M24.53,26.92 L13.06,20.48 L24.53,13.95 L36,20.4 Z M25.28,41.25 L25.28,28.28 L36.75,21.75 L36.75,34.72 Z M23.78,41.25 L12.3,34.72 L12.3,21.75 L23.78,28.27 Z" fill="none" stroke="currentColor" stroke-width="1.5"/></svg>