<svg xmlns="http://www.w3.org/2000/svg" viewBox="0 0 51.15 61.8" width="24" height="24"><path d="M17.92,57.97 L17.92,49.95 L7.2,52.8 L0,49.2 L0,34.81 L12.46,34.28 L17.92,34.64 L17.92,27.47 L12.47,27.83 L0,27.23 L0,12.75 L7.2,9.23 L17.92,12.15 L17.92,3.82 L25.57,0 L33.22,3.82 L33.22,12.14 L43.95,9.23 L51.15,12.83 L51.15,27.29 L38.7,27.82 L33.22,27.47 L33.22,34.64 L38.69,34.28 L51.15,34.8 L51.15,49.2 L43.95,52.8 L33.22,49.95 L33.22,57.97 L25.57,61.8 Z" fill="none" stroke="currentColor" stroke-width="1.5"/><path d="M43.95,26.55 L33.22,27.16 L33.22,23.19 L33.59,23.25 L39.98,22.57 L39.98,15.45 L33.22,13.23 L33.22,12.14 L43.95,9.23 Z M43.95,52.8 L33.22,49.95 L33.22,48.83 L39.98,46.65 L39.98,39.45 L33.6,38.77 L33.22,38.82 L33.22,34.93 L43.95,35.47 Z M11.17,22.57 L11.17,15.45 L17.92,13.24 L17.92,3.82 L25.57,0 L25.57,61.8 L17.92,57.97 L17.92,48.83 L11.17,46.65 L11.17,39.45 L17.92,40.65 L17.92,21.37 Z M7.2,26.55 L0,27.23 L0,12.75 L7.2,9.23 Z M7.2,52.8 L0,49.2 L0,34.81 L7.2,35.47 Z" fill="none" stroke="currentColor" stroke-width="1.5"/><path d="M17.54,23.25 L11.17,22.57 L17.92,21.37 L17.92,23.2 Z M51.15,27.29 L38.7,27.82 L33.22,27.47 L33.22,27.16 L43.95,26.55 Z M33.22,23.19 L33.22,21.37 L39.98,22.57 L33.59,23.25 Z M12.47,27.83 L0,27.23 L7.2,26.55 L17.92,27.16 L17.92,27.47 Z" fill="none" stroke="currentColor" stroke-width="1.5"/><path d="M43.95,35.47 L33.22,34.93 L33.22,34.64 L38.69,34.28 L51.15,34.8 Z M33.22,40.65 L33.22,38.82 L33.6,38.77 L39.98,39.45 Z M17.92,40.65 L11.17,39.45 L17.54,38.77 L17.92,38.83 Z M7.2,35.47 L0,34.81 L12.46,34.28 L17.92,34.64 L17.92,34.93 Z" fill="none" stroke="currentColor" stroke-width="1.5"/></svg>