<svg xmlns="http://www.w3.org/2000/svg" viewBox="0 0 23.18 42.67" width="24" height="24"><path d="M6.37,42.67 L0,42.67 L0,19.01 C0.42,13.36 1.02,9.05 6.28,5.08 C10.1,2.59 16.77,0.72 21.9,0 L21.9,1.86 C19.66,5.47 16.79,8.37 13.65,10.82 C10.64,13.06 7.37,15.22 2.75,17.07 C2.58,17.13 2.46,17.33 2.35,17.56 C2.64,17.85 3.06,18.14 3.25,18.07 C7.62,16.51 11.77,13.96 15.12,11.21 C18.65,8.26 21.19,5.29 22.95,2.31 C23.16,3.89 22.23,12 20.5,15.45 C19.68,17.07 19.04,17.74 16.73,18.7 C13.61,19.93 9.76,20.4 6.37,20.69 Z" fill="none" stroke="currentColor" stroke-width="1.5"/><path d="M6.37,20.69 L6.37,18.82 C10.25,18.51 14.64,17.89 17.72,16.39 C19.13,15.64 19.98,15.06 20.93,12.6 C21.94,10.17 22.67,5.46 22.95,2.31 C23.18,3.9 22.22,11.98 20.5,15.45 C19.69,17.07 19.04,17.74 16.73,18.7 C13.6,19.93 9.75,20.38 6.37,20.69 Z M2.75,17.07 C2.58,17.12 2.47,17.33 2.35,17.56 C2.16,17.34 2.03,17.21 2.07,16.74 C2.17,16 2.45,15.34 2.69,15.22 C6.28,13.82 10.07,11.62 12.94,9.48 C17.25,6.28 19.94,3.1 21.9,0 L21.9,1.86 C19.65,5.46 16.79,8.37 13.65,10.82 C10.63,13.07 7.36,15.23 2.75,17.07 Z M0,42.67 L0,40.79 L6.37,40.79 L6.37,42.67 Z" fill="none" stroke="currentColor" stroke-width="1.5"/></svg>