<svg xmlns="http://www.w3.org/2000/svg" viewBox="0 0 51.15 61.75" width="24" height="24"><path d="M33.23,44.45 L42.84,42.03 L42.84,19.77 L33.23,17.39 Z M25.57,61.75 L14.76,56.35 L14.76,53.2 L10.53,54.48 L0,49.22 L0,40.03 L7.31,39.29 L14.76,40.68 L14.76,37.36 L10.53,37.75 L0,36.2 L0,25.4 L10.53,23.81 L14.76,24.2 L14.76,21.32 L7.32,22.72 L0,21.98 L0,12.78 L10.53,7.52 L14.76,8.8 L14.76,5.4 L25.57,0 L51.15,12.8 L51.15,48.97 Z" fill="none" stroke="currentColor" stroke-width="1.5"/><path d="M33.23,47.15 L33.23,44.45 L42.84,42.03 L47.89,42.75 Z M10.53,42.6 L0,40.03 L7.31,39.29 L14.76,40.68 L14.76,41.96 Z" fill="none" stroke="currentColor" stroke-width="1.5"/><path d="M33.23,17.39 L33.23,14.75 L47.89,19.1 L42.84,19.77 Z M14.76,21.32 L7.32,22.72 L0,21.98 L10.53,19.42 L14.76,20.06 Z" fill="none" stroke="currentColor" stroke-width="1.5"/><path d="M10.53,19.42 L0,21.98 L0,12.78 L10.53,7.52 Z M47.89,42.75 L42.84,42.03 L42.84,19.77 L47.89,19.1 Z M25.57,61.75 L14.76,56.35 L14.76,5.4 L25.57,0 Z M10.53,54.48 L0,49.22 L0,40.03 L10.53,42.6 Z M10.53,37.75 L0,36.2 L0,25.4 L10.53,23.81 Z" fill="none" stroke="currentColor" stroke-width="1.5"/></svg>