<svg xmlns="http://www.w3.org/2000/svg" viewBox="0 0 30.76 42.16" width="24" height="24"><path d="M30.75,40.43 C30.75,41.13 29.93,42.16 28.53,42.16 L2.45,42.16 C1.19,42.16 0,41.27 0,39.87 L0,2.22 C0,0.93 1.06,0 2.2,0 L28.51,0 C29.37,0 30.75,0.58 30.75,2.32 C30.76,15.05 30.75,27.7 30.75,40.43 Z" fill="none" stroke="currentColor" stroke-width="1.5"/><path d="M30.75,37.93 L30.75,40.43 C30.75,41.13 29.93,42.16 28.53,42.16 L2.45,42.16 C1.19,42.16 0,41.27 0,39.87 L0,38.09 C0,39.26 0.97,40.28 2.22,40.28 L28.46,40.28 C29.52,40.28 30.75,39.51 30.75,37.93 Z" fill="none" stroke="currentColor" stroke-width="1.5"/><rect x="0" y="0" width="0" height="0" fill="none" stroke="currentColor"/><path d="M9.98,5.1 L9.98,7.58 L3.75,7.58 L3.75,5.1 Z M18.45,5.1 L18.45,7.58 L12.23,7.58 L12.23,5.1 Z M27,5.1 L27,7.58 L20.78,7.58 L20.78,5.1 Z M9.98,9.42 L9.98,11.9 L3.75,11.9 L3.75,9.42 Z M18.45,9.42 L18.45,11.9 L12.23,11.9 L12.23,9.42 Z M27,9.42 L27,11.9 L20.78,11.9 L20.78,9.42 Z M9.98,13.74 L9.98,16.22 L3.75,16.22 L3.75,13.74 Z M18.45,13.74 L18.45,16.22 L12.23,16.22 L12.23,13.74 Z M27,13.74 L27,16.22 L20.78,16.22 L20.78,13.74 Z M9.98,18.06 L9.98,20.54 L3.75,20.54 L3.75,18.06 Z M18.45,18.06 L18.45,20.54 L12.23,20.54 L12.23,18.06 Z M27,18.06 L27,20.54 L20.78,20.54 L20.78,18.06 Z M9.98,22.38 L9.98,24.86 L3.75,24.86 L3.75,22.38 Z M18.45,22.38 L18.45,24.86 L12.23,24.86 L12.23,22.38 Z M27,22.38 L27,24.86 L20.78,24.86 L20.78,22.38 Z M9.98,26.7 L9.98,29.18 L3.75,29.18 L3.75,26.7 Z M18.45,26.7 L18.45,29.18 L12.23,29.18 L12.23,26.7 Z M27,26.7 L27,29.18 L20.78,29.18 L20.78,26.7 Z" fill="none" stroke="currentColor" stroke-width="1.5"/></svg>