<svg xmlns="http://www.w3.org/2000/svg" viewBox="0 0 42.0 43.81" width="24" height="24"><path d="M18.75,43.81 L0,43.81 L0,30.98 L18.75,30.98 Z M18.75,28.35 L0,28.35 L0,15.45 L18.75,15.45 Z M18.75,12.75 L0,12.75 L0,0 L18.75,0 Z M42,12.75 L23.25,12.75 L23.25,0 L42,0 Z M42,28.35 L23.25,28.35 L23.25,15.45 L42,15.45 Z M42,43.81 L23.25,43.81 L23.25,30.98 L42,30.98 Z" fill="none" stroke="currentColor" stroke-width="1.5"/><path d="M0,43.81 L0,42 L18.75,42 L18.75,43.81 Z M0,28.35 L0,26.48 L18.75,26.48 L18.75,28.35 Z M0,12.75 L0,11.03 L18.75,11.03 L18.75,12.75 Z M23.25,12.75 L23.25,11.03 L42,11.03 L42,12.75 Z M23.25,28.35 L23.25,26.48 L42,26.48 L42,28.35 Z M23.25,43.81 L23.25,42 L42,42 L42,43.81 Z" fill="none" stroke="currentColor" stroke-width="1.5"/><rect x="0" y="0" width="0" height="0" fill="none" stroke="currentColor"/><path d="M9.35,9.23 C7.32,9.23 5.62,7.57 5.62,5.48 C5.62,3.45 7.24,1.73 9.41,1.73 C11.35,1.73 13.13,3.32 13.13,5.43 C13.13,7.69 11.31,9.23 9.35,9.23 Z M9.29,24.75 C7.59,24.75 5.62,23.34 5.62,21 C5.62,19.12 7.09,17.25 9.43,17.25 C11.41,17.25 13.12,18.91 13.12,20.94 C13.12,22.89 11.73,24.75 9.29,24.75 Z M9.33,40.2 C7.38,40.2 5.62,38.6 5.62,36.42 C5.62,34.54 7.15,32.7 9.41,32.7 C11.5,32.7 13.12,34.49 13.12,36.38 C13.12,38.46 11.57,40.2 9.33,40.2 Z" fill="none" stroke="currentColor" stroke-width="1.5"/></svg>