<svg xmlns="http://www.w3.org/2000/svg" viewBox="0 0 42.0 43.81" width="24" height="24"><path d="M23.25,43.81 L23.25,23.25 L42,23.25 L42,43.81 Z M23.25,20.54 L23.25,0 L42,0 L42,20.54 Z M0,20.54 L0,0 L18.75,0 L18.75,20.54 Z M0,43.81 L0,23.25 L18.75,23.25 L18.75,43.81 Z" fill="none" stroke="currentColor" stroke-width="1.5"/><path d="M23.25,43.81 L23.25,42 L42,42 L42,43.81 Z M23.25,20.54 L23.25,18.75 L42,18.75 L42,20.54 Z M0,20.54 L0,18.75 L18.75,18.75 L18.75,20.54 Z M0,43.81 L0,42 L18.75,42 L18.75,43.81 Z" fill="none" stroke="currentColor" stroke-width="1.5"/><rect x="0" y="0" width="0" height="0" fill="none" stroke="currentColor"/><path d="M9.44,15.9 C5.7,15.9 2.85,12.91 2.85,9.46 C2.85,5.67 5.81,2.85 9.44,2.85 C12.74,2.85 15.9,5.54 15.9,9.46 C15.9,12.76 13.15,15.9 9.44,15.9 Z" fill="none" stroke="currentColor" stroke-width="1.5"/></svg>