<svg xmlns="http://www.w3.org/2000/svg" viewBox="0 0 53.4 51.14" width="24" height="24"><path d="M9.75,37.56 L9.75,32.39 L0,32.39 L0,18.74 L9.75,18.74 L9.75,13.57 L20.48,24.29 L20.48,26.83 Z M43.64,37.56 L32.93,26.84 L32.93,24.29 L43.64,13.57 L43.64,18.74 L53.4,18.74 L53.4,32.39 L43.64,32.39 Z M26.71,51.14 L15.98,40.42 L15.98,37.86 L19.96,37.86 L19.96,29.84 L24.19,25.57 L19.96,21.29 L19.96,13.26 L15.98,13.26 L15.98,10.71 L26.7,0 L37.42,10.71 L37.42,13.26 L33.45,13.26 L33.45,21.29 L29.23,25.56 L33.45,29.85 L33.45,37.86 L37.42,37.86 L37.42,40.42 Z" fill="none" stroke="currentColor" stroke-width="1.5"/><path d="M33.45,13.26 L33.45,10.71 L37.42,10.71 L37.42,13.26 Z M15.98,13.26 L15.98,10.71 L19.96,10.71 L19.96,13.26 Z M37.42,37.86 L37.42,40.42 L26.71,51.14 L15.98,40.42 L15.98,37.86 L26.71,48.59 Z M43.64,29.84 L53.4,29.84 L53.4,32.39 L43.64,32.39 Z M32.93,24.29 L43.64,35.01 L43.64,37.56 L32.93,26.84 Z M27.91,24.29 L33.45,18.74 L33.45,21.29 L29.23,25.56 Z M19.96,21.29 L19.96,18.75 L25.5,24.3 L24.19,25.57 Z M9.75,35.02 L20.48,24.29 L20.48,26.83 L9.75,37.56 Z M0,32.39 L0,29.84 L9.75,29.84 L9.75,32.39 Z" fill="none" stroke="currentColor" stroke-width="1.5"/></svg>