<svg xmlns="http://www.w3.org/2000/svg" viewBox="0 0 44.7 54.01" width="24" height="24"><path d="M22.34,16.21 L26.1,16.97 L26.1,13.52 L22.34,14.41 L18.6,13.52 L18.6,16.97 Z M22.34,54.01 L0,42.83 L0,20.7 L2.85,20.1 L4.5,20.25 L4.5,18.06 L0,17.48 L0,11.18 L2.85,9.75 L8.25,11.02 L12.9,9.16 L15.67,9.96 L15.67,3.38 L22.34,0 L29.02,3.38 L29.02,9.97 L31.8,9.16 L36.45,11.02 L41.85,9.75 L44.7,11.19 L44.7,17.48 L40.2,18.06 L40.2,20.26 L41.85,20.1 L44.7,20.7 L44.7,42.82 Z" fill="none" stroke="currentColor" stroke-width="1.5"/><path d="M41.85,16.65 L40.2,16.88 L40.2,12.52 L36.45,11.02 L41.85,9.75 Z M41.85,20.1 L41.85,30.45 L29.02,29.87 L29.02,17.56 L26.1,16.97 L26.1,13.52 L29.02,12.83 L29.02,9.97 L31.8,9.16 L31.8,27.01 L40.2,27.01 L40.2,20.26 Z M15.67,12.83 L15.67,3.38 L22.34,0 L22.34,10.8 Z M2.85,16.66 L0,17.48 L0,11.18 L2.85,9.75 Z M12.9,27.01 L4.5,27.01 L4.5,12.53 L12.9,9.16 Z M22.34,54.01 L0,42.83 L0,20.7 L2.85,20.1 L2.85,30.45 L15.67,31.74 L15.67,17.56 L22.34,16.21 Z" fill="none" stroke="currentColor" stroke-width="1.5"/><path d="M29.02,31.74 L29.02,29.87 L41.85,30.45 Z M15.67,31.74 L2.85,30.45 L15.67,29.87 Z" fill="none" stroke="currentColor" stroke-width="1.5"/><path d="M40.2,16.88 L41.85,16.65 L44.7,17.48 L40.2,18.06 Z M22.34,14.41 L15.67,12.83 L22.34,10.8 L29.02,12.83 Z M4.5,18.06 L0,17.48 L2.85,16.66 L4.5,16.88 Z" fill="none" stroke="currentColor" stroke-width="1.5"/></svg>