<svg xmlns="http://www.w3.org/2000/svg" viewBox="0 0 53.4 53.41" width="24" height="24"><path d="M37.2,53.41 L34.2,53.41 L34.2,48.45 L32.7,48.45 L32.7,53.41 L29.7,53.41 L29.7,48.45 L28.2,48.46 L28.2,53.41 L25.2,53.4 L25.2,48.46 L23.7,48.45 L23.7,53.4 L20.7,53.41 L20.7,48.45 L19.2,48.45 L19.2,53.41 L16.2,53.41 L16.2,48.46 L13.6,48.45 C10.07,48.45 6.82,45.51 6.82,41.72 L6.82,37.2 L0,37.2 L0,34.2 L6.82,34.2 L6.82,32.7 L0,32.7 L0,29.71 L6.82,29.71 L6.82,28.2 L0,28.2 L0,25.2 L6.82,25.2 L6.82,23.7 L0,23.7 L0,20.7 L6.82,20.7 L6.82,19.2 L0,19.2 L0,16.2 L6.82,16.2 L6.82,13.53 C6.82,10.23 9.63,6.83 13.62,6.83 L16.2,6.83 L16.2,0 L19.2,0.01 L19.2,6.83 L20.7,6.83 L20.7,0 L23.7,0.01 L23.7,6.83 L25.2,6.83 L25.2,0.01 L28.2,0 L28.2,6.83 L29.7,6.83 L29.7,0 L32.7,0.01 L32.7,6.83 L34.2,6.83 L34.2,0 L37.2,0.01 L37.2,6.83 L39.83,6.83 C43.23,6.83 46.57,9.66 46.57,13.66 L46.57,16.2 L53.4,16.2 L53.4,19.2 L46.57,19.2 L46.57,20.7 L53.4,20.7 L53.4,23.7 L46.57,23.7 L46.57,25.2 L53.4,25.21 L53.4,28.2 L46.57,28.2 L46.57,29.71 L53.4,29.71 L53.4,32.7 L46.57,32.7 L46.57,34.2 L53.4,34.2 L53.4,37.2 L46.57,37.2 L46.57,41.71 C46.57,45.13 43.69,48.46 39.76,48.46 L37.2,48.45 Z" fill="none" stroke="currentColor" stroke-width="1.5"/><path d="M16.2,48.46 L13.6,48.45 C10.07,48.45 6.82,45.5 6.82,41.72 L6.82,40 C6.82,42.91 9.39,46.58 13.68,46.58 L16.2,46.58 Z M19.2,48.45 L19.2,46.58 L20.7,46.59 L20.7,48.45 Z M23.7,48.45 L23.7,46.58 L25.2,46.58 L25.2,48.46 Z M28.2,48.46 L28.2,46.58 L29.7,46.58 L29.7,48.45 Z M32.7,48.45 L32.7,46.58 L34.2,46.58 L34.2,48.45 Z M37.2,48.45 L37.2,46.58 L39.9,46.58 C43.41,46.58 46.57,43.51 46.57,39.94 L46.57,41.71 C46.57,45.14 43.69,48.46 39.76,48.46 Z" fill="none" stroke="currentColor" stroke-width="1.5"/><rect x="0" y="0" width="0" height="0" fill="none" stroke="currentColor"/><path d="M22.58,18.23 L24.29,14.7 L33.59,14.7 L35.32,18.23 Z M18.82,23.7 L18.82,21.46 L14.02,21.46 L14.02,23.7 Z M29.01,32.1 C30.97,32.1 32.93,30.47 32.93,28.13 C32.93,25.77 30.97,24.15 28.98,24.15 C26.65,24.15 24.97,26.03 24.97,28.15 C24.97,30.22 26.65,32.1 29.01,32.1 Z M28.94,33.38 C26.03,33.38 23.7,31.03 23.7,28.16 C23.7,25.37 25.79,22.88 29.08,22.88 C31.32,22.88 34.2,24.66 34.2,28.21 C34.2,31.07 31.86,33.38 28.94,33.38 Z M29,35.63 C32.8,35.63 36.45,32.49 36.45,28.14 C36.45,24.03 33.12,20.63 28.96,20.63 C24.67,20.63 21.45,24.13 21.45,28.2 C21.45,31.93 24.52,35.63 29,35.63 Z M41.48,35.29 C41.48,36.51 40.53,37.2 39.59,37.2 L13.49,37.2 C12.38,37.2 11.62,36.31 11.62,35.34 L11.62,20.92 C11.62,19.56 12.7,18.97 13.43,18.97 L39.58,18.97 C40.6,18.97 41.48,19.74 41.48,20.9 Z" fill="none" stroke="currentColor" stroke-width="1.5"/></svg>