<svg xmlns="http://www.w3.org/2000/svg" viewBox="0 0 53.4 53.41" width="24" height="24"><path d="M37.2,53.41 L34.2,53.41 L34.2,48.45 L32.7,48.45 L32.7,53.41 L29.7,53.41 L29.7,48.45 L28.2,48.46 L28.2,53.41 L25.2,53.4 L25.2,48.46 L23.7,48.45 L23.7,53.4 L20.7,53.41 L20.7,48.45 L19.2,48.45 L19.2,53.41 L16.2,53.41 L16.2,48.46 L13.6,48.45 C10.07,48.45 6.82,45.51 6.82,41.72 L6.82,37.2 L0,37.2 L0,34.2 L6.82,34.2 L6.82,32.7 L0,32.7 L0,29.71 L6.82,29.71 L6.82,28.2 L0,28.2 L0,25.2 L6.82,25.2 L6.82,23.7 L0,23.7 L0,20.7 L6.82,20.7 L6.82,19.2 L0,19.2 L0,16.2 L6.82,16.2 L6.82,13.53 C6.82,10.23 9.63,6.83 13.62,6.83 L16.2,6.83 L16.2,0 L19.2,0.01 L19.2,6.83 L20.7,6.83 L20.7,0 L23.7,0.01 L23.7,6.83 L25.2,6.83 L25.2,0.01 L28.2,0 L28.2,6.83 L29.7,6.83 L29.7,0 L32.7,0.01 L32.7,6.83 L34.2,6.83 L34.2,0 L37.2,0.01 L37.2,6.83 L39.83,6.83 C43.23,6.83 46.57,9.66 46.57,13.66 L46.57,16.2 L53.4,16.2 L53.4,19.2 L46.57,19.2 L46.57,20.7 L53.4,20.7 L53.4,23.7 L46.57,23.7 L46.57,25.2 L53.4,25.21 L53.4,28.2 L46.57,28.2 L46.57,29.71 L53.4,29.71 L53.4,32.7 L46.57,32.7 L46.57,34.2 L53.4,34.2 L53.4,37.2 L46.57,37.2 L46.57,41.71 C46.57,45.13 43.69,48.46 39.76,48.46 L37.2,48.45 Z" fill="none" stroke="currentColor" stroke-width="1.5"/><path d="M16.2,48.46 L13.6,48.45 C10.07,48.45 6.82,45.5 6.82,41.72 L6.82,40 C6.82,42.91 9.39,46.58 13.68,46.58 L16.2,46.58 Z M19.2,48.45 L19.2,46.58 L20.7,46.59 L20.7,48.45 Z M23.7,48.45 L23.7,46.58 L25.2,46.58 L25.2,48.46 Z M28.2,48.46 L28.2,46.58 L29.7,46.58 L29.7,48.45 Z M32.7,48.45 L32.7,46.58 L34.2,46.58 L34.2,48.45 Z M37.2,48.45 L37.2,46.58 L39.9,46.58 C43.41,46.58 46.57,43.51 46.57,39.94 L46.57,41.71 C46.57,45.14 43.69,48.46 39.76,48.46 Z" fill="none" stroke="currentColor" stroke-width="1.5"/><rect x="0" y="0" width="0" height="0" fill="none" stroke="currentColor"/><path d="M20.84,31.58 L32.41,31.58 C32.93,29.79 34.5,28.65 36.35,28.65 C38.13,28.65 39.73,29.9 40.2,31.58 L41.48,31.58 L41.48,30.13 C41.49,28.73 40.87,27.65 39.78,26.97 C39.03,26.51 38.09,26.14 36.57,26.04 C35.96,26.09 35.47,25.82 35.2,25.22 L33.15,20.48 L22.96,20.48 L21.59,25.09 C21.5,25.5 21.19,25.7 20.84,25.81 L12.75,28.05 L12.75,31.58 L13.06,31.58 C13.68,29.5 15.5,28.65 16.93,28.65 C18.52,28.65 20.28,29.6 20.84,31.58 Z M18.75,32.71 C18.75,31.65 17.84,30.9 16.97,30.9 C16.01,30.9 15.15,31.68 15.15,32.74 C15.15,33.59 15.94,34.5 16.92,34.5 C17.94,34.5 18.75,33.68 18.75,32.71 Z M38.1,32.67 C38.1,31.75 37.36,30.9 36.3,30.9 C35.43,30.9 34.5,31.63 34.5,32.72 C34.5,33.65 35.3,34.5 36.3,34.5 C37.1,34.5 38.1,33.86 38.1,32.67 Z M40.19,33.83 C39.82,35.29 38.33,36.76 36.32,36.76 C34.16,36.76 32.77,35.21 32.41,33.83 L20.84,33.83 C20.43,35.31 19.04,36.76 16.93,36.76 C15.26,36.76 13.59,35.68 13.06,33.83 L11.6,33.83 C11.23,33.83 10.59,33.52 10.5,32.78 L10.05,32.78 C9.45,32.78 8.92,32.24 8.92,31.66 C8.92,30.91 9.62,30.53 9.99,30.53 L10.5,30.53 L10.5,27.17 C10.5,26.52 10.89,26.18 11.28,26.11 L19.65,23.78 L21.06,19.05 C21.18,18.6 21.62,18.15 22.14,18.15 L33.93,18.15 C34.49,18.15 34.88,18.51 35.06,18.89 L37.13,23.78 C39.04,23.96 40.8,24.65 42.11,25.9 C43.27,27.05 43.92,28.58 43.8,30.75 L44.36,30.75 C44.74,30.75 45.46,31.11 45.44,31.9 C45.44,32.43 44.97,33.01 44.3,33.01 L43.73,33 C43.61,33.31 43.24,33.83 42.57,33.83 Z" fill="none" stroke="currentColor" stroke-width="1.5"/></svg>