<svg xmlns="http://www.w3.org/2000/svg" viewBox="0 0 42.3 57.9" width="24" height="24"><path d="M35.17,38.4 L35.17,57.9 L21.15,48.3 L7.12,57.9 L7.12,38.4 L6,38.55 L6,36.3 L6.36,33.85 L2.03,33.15 L2.03,30.9 L3.25,28.42 L0,26.77 L0,24.52 L2.2,22.27 L0,20.02 L0,17.77 L3.24,16.07 L2.03,13.65 L2.03,11.4 L6.36,10.7 L6,8.26 L6,6 L10.65,6.67 L11.4,2.02 L15.6,4.12 L17.78,0 L21.15,3.3 L24.53,0 L26.7,4.12 L30.89,2.02 L31.65,6.67 L36.3,6 L36.3,8.25 L35.94,10.7 L40.28,11.4 L40.28,13.65 L39.07,16.07 L42.3,17.77 L42.3,20.01 L40.1,22.27 L42.3,24.52 L42.3,26.77 L39.06,28.42 L40.28,30.9 L40.28,33.15 L35.94,33.85 L36.3,36.3 L36.3,38.55 Z" fill="none" stroke="currentColor" stroke-width="1.5"/><path d="M35.63,31.65 L40.28,30.9 L40.28,33.15 L35.94,33.85 Z M38.18,26.62 L42.3,24.52 L42.3,26.77 L39.06,28.42 Z M39,21.15 L42.3,17.77 L42.3,20.01 L40.1,22.27 Z M38.18,15.6 L40.28,11.4 L40.28,13.65 L39.07,16.07 Z M35.63,10.65 L36.3,6 L36.3,8.25 L35.94,10.7 Z M6.36,10.7 L6,8.26 L6,6 L6.68,10.65 Z M3.24,16.07 L2.03,13.65 L2.03,11.4 L4.14,15.6 Z M2.2,22.27 L0,20.02 L0,17.77 L3.3,21.15 Z M3.25,28.42 L0,26.77 L0,24.52 L4.13,26.62 Z M6.36,33.85 L2.03,33.15 L2.03,30.9 L6.68,31.65 Z M35.17,57.9 L21.15,48.3 L7.12,57.9 L7.12,55.66 L21.15,46.05 L35.17,55.65 Z M36.3,36.3 L36.3,38.55 L31.65,37.88 L30.9,42.53 L26.7,40.35 L24.53,44.55 L21.15,41.25 L17.78,44.55 L15.6,40.35 L11.4,42.53 L10.65,37.88 L6,38.55 L6,36.3 L10.66,35.63 L11.4,40.28 L15.6,38.1 L17.78,42.3 L21.15,39 L24.53,42.3 L26.7,38.1 L30.9,40.28 L31.65,35.63 Z" fill="none" stroke="currentColor" stroke-width="1.5"/><rect x="0" y="0" width="0" height="0" fill="none" stroke="currentColor"/><path d="M12.31,23.4 C13.21,23.4 13.95,22.65 13.95,21.77 C13.95,20.56 13.01,20.02 12.23,20.02 C11.33,20.02 10.58,20.77 10.58,21.72 C10.58,22.75 11.43,23.4 12.31,23.4 Z M21.3,24.22 C20.44,26.25 18.24,28.5 14.95,28.35 C12.02,28.28 8.51,25.9 8.63,21.69 C8.75,18.18 11.7,15.28 15.26,15.37 C18.08,15.39 20.03,17.14 20.77,18.41 L24.45,18.41 L25.5,20.17 L28.05,19.95 L29.01,20.91 L29.92,21.15 L32.25,19.8 L34.65,22.05 L33.45,24.22 Z M21.22,36.38 C29.28,36.38 36.37,29.85 36.37,21.19 C36.37,13.02 29.82,5.93 21.17,5.93 C12.86,5.93 5.92,12.53 5.92,21.16 C5.92,30.13 13.31,36.38 21.22,36.38 Z M21.15,38.63 C12.03,38.63 3.67,31.26 3.67,21.11 C3.67,10.89 12.14,3.67 21.15,3.67 C30.75,3.67 38.62,11.56 38.62,21.15 C38.62,31.27 30.38,38.63 21.15,38.63 Z" fill="none" stroke="currentColor" stroke-width="1.5"/></svg>