<svg xmlns="http://www.w3.org/2000/svg" viewBox="0 0 36.6 42.69" width="24" height="24"><path d="M36.6,42.69 L0,42.69 L0,0 L36.6,0 Z" fill="none" stroke="currentColor" stroke-width="1.5"/><path d="M36.6,42.69 L0,42.69 L0,40.8 L36.6,40.8 Z" fill="none" stroke="currentColor" stroke-width="1.5"/><rect x="0" y="0" width="0" height="0" fill="none" stroke="currentColor"/><path d="M19.5,9.68 L19.5,8.47 L14.47,8.47 L14.47,7.05 L19.5,7.05 L19.5,5.85 L21.46,7.73 Z M19.5,22.95 L19.5,21.75 L14.47,21.75 L14.47,20.33 L19.5,20.33 L19.5,19.14 L21.45,21.08 Z M7.54,24.76 C5.37,24.76 3.9,22.89 3.9,21.15 C3.9,18.95 5.62,17.4 7.56,17.4 C9.75,17.4 11.25,19.19 11.25,21.08 C11.25,22.98 9.75,24.76 7.54,24.76 Z M11.25,11.48 L3.82,11.48 L3.82,4.06 L11.25,4.06 Z M32.77,11.25 L24.67,11.25 L28.72,4.28 Z M28.64,24.76 C26.27,24.76 23.47,23.39 23.47,21.07 C23.47,18.98 25.94,17.4 28.73,17.4 C31.63,17.4 33.97,19.05 33.97,21.07 C33.97,23.1 31.72,24.76 28.64,24.76 Z M7.57,38.03 C5.64,38.04 3.78,36.43 3.9,34.14 C3.9,32.94 4.96,30.68 7.72,30.68 C9.17,30.68 11.25,31.97 11.25,34.35 C11.25,36.29 9.7,38.03 7.57,38.03 Z M19.5,36.23 L19.5,35.03 L14.47,35.03 L14.47,33.67 L19.5,33.67 L19.5,32.4 L21.46,34.36 Z M31.8,37.95 L29.02,35.18 L26.25,37.95 L25.35,37.13 L28.11,34.35 L25.35,31.58 L26.25,30.68 L29.02,33.45 L31.79,30.68 L32.71,31.58 L29.85,34.35 L32.7,37.13 Z" fill="none" stroke="currentColor" stroke-width="1.5"/></svg>