<svg xmlns="http://www.w3.org/2000/svg" viewBox="0 0 36.43 45.71" width="24" height="24"><path d="M30.4,33.66 L30.4,31.03 C30.4,29.26 28.91,28.04 27.3,28.04 C25.53,28.04 24.15,29.26 24.15,30.91 L24.15,33.66 Z M36.43,45.71 L18.07,45.71 L18.07,33.66 L0,33.66 L0,0 L28.54,0 L28.54,23.64 L27.19,23.64 C26.21,23.66 25.18,23.84 24.06,24.32 C20.99,25.68 19.33,28.78 19.33,31.38 L19.33,33.66 L21.22,33.66 L21.22,29.13 C21.48,26.66 22.77,25.24 24.25,24.41 C26.36,23.3 28.66,23.47 30.42,24.45 C32.12,25.38 33.22,27.17 33.37,29.15 L33.37,33.66 L36.43,33.66 Z" fill="none" stroke="currentColor" stroke-width="1.5"/><path d="M19.33,31.8 L19.33,33.66 L0,33.66 L0,31.8 Z M28.54,21.76 L28.54,23.64 L27.19,23.64 C26.21,23.66 25.18,23.84 24.06,24.32 C20.99,25.68 19.33,28.77 19.33,31.38 L19.33,29.58 C19.33,27.54 20.39,25.58 21.01,24.88 C22.37,23.13 23.85,22.39 25.31,22 C26.03,21.81 26.85,21.7 28.54,21.76 Z M30.4,31.03 C30.4,29.26 28.91,28.04 27.3,28.04 C25.52,28.04 24.15,29.25 24.15,30.91 L24.15,29.08 C24.15,27.31 25.6,26.2 27.34,26.2 C28.92,26.2 30.4,27.48 30.4,29.17 Z M36.43,45.71 L18.07,45.71 L18.07,43.85 L36.43,43.85 Z" fill="none" stroke="currentColor" stroke-width="1.5"/><rect x="0" y="0" width="0" height="0" fill="none" stroke="currentColor"/><path d="M10.7,4.28 L5.84,9.14 L2.8,6.1 L4.31,4.59 L5.87,6.15 L9.22,2.8 Z M12.67,8.04 L12.67,5.7 L25.29,5.7 L25.29,8.04 Z M12.67,17.08 L12.67,14.74 L25.29,14.74 L25.29,17.08 Z M5.84,18.06 L2.8,15.02 L4.31,13.51 L5.87,15.07 L9.22,11.71 L10.7,13.2 Z M10.7,22.11 L5.84,26.98 L2.8,23.94 L4.31,22.43 L5.87,23.98 L9.23,20.63 Z M21.98,23.8 C21.25,24.57 20.68,25.17 20.2,26.14 L12.67,26.14 L12.67,23.8 Z" fill="none" stroke="currentColor" stroke-width="1.5"/></svg>