<svg xmlns="http://www.w3.org/2000/svg" viewBox="0 0 36.63 42.66" width="24" height="24"><path d="M36.63,42.66 L0,42.66 L0,0 L36.63,0 Z" fill="none" stroke="currentColor" stroke-width="1.5"/><path d="M36.63,42.66 L0,42.66 L0,40.78 L36.63,40.78 Z" fill="none" stroke="currentColor" stroke-width="1.5"/><rect x="0" y="0" width="0" height="0" fill="none" stroke="currentColor"/><path d="M13.74,5.32 L7.49,11.57 L3.59,7.66 L5.53,5.73 L7.53,7.72 L11.84,3.42 Z M32.45,10.48 L16.25,10.48 L16.25,7.48 L32.45,7.48 Z M13.74,16.83 L7.49,23.07 L3.59,19.17 L5.53,17.23 L7.53,19.23 L11.84,14.93 Z M32.45,21.98 L16.25,21.98 L16.25,18.98 L32.45,18.98 Z M13.74,28.33 L7.49,34.57 L3.59,30.67 L5.53,28.74 L7.53,30.73 L11.84,26.43 Z M32.45,33.49 L16.25,33.49 L16.25,30.49 L32.45,30.49 Z" fill="none" stroke="currentColor" stroke-width="1.5"/></svg>