<svg xmlns="http://www.w3.org/2000/svg" viewBox="0 0 40.9 49.38" width="24" height="24"><path d="M40.9,49.38 L16.76,49.38 L16.76,23.68 L15.17,23.68 L15.17,33.66 L0,33.66 L0,0 L28.58,0 L28.55,23.38 L40.9,23.38 Z" fill="none" stroke="currentColor" stroke-width="1.5"/><path d="M28.55,23.38 L16.76,23.38 L16.76,23.68 L15.17,23.68 L15.17,21.78 L28.55,21.78 Z M15.17,33.66 L0,33.66 L0,31.8 L15.17,31.8 Z M40.9,49.38 L16.76,49.38 L16.76,47.51 L40.9,47.51 Z" fill="none" stroke="currentColor" stroke-width="1.5"/><rect x="0" y="0" width="0" height="0" fill="none" stroke="currentColor"/><path d="M10.7,4.26 L5.83,9.13 L2.8,6.09 L4.31,4.58 L5.87,6.13 L9.22,2.78 Z M12.66,8.02 L12.66,5.68 L25.29,5.68 L25.29,8.02 Z M12.66,17.06 L12.66,14.73 L25.29,14.73 L25.29,17.06 Z M5.84,18.04 L2.8,15 L4.31,13.49 L5.87,15.04 L9.22,11.7 L10.71,13.18 Z M10.71,22.1 L5.84,26.96 L2.8,23.93 L4.31,22.41 L5.87,23.96 L9.22,20.61 Z M15.17,26.12 L12.66,26.12 L12.66,23.68 L15.17,23.68 Z M20.86,37.48 L19.27,35.89 L25.29,29.86 L29.27,33.85 L34.84,28.29 L33.67,27.11 L39.15,25.58 L37.63,31.05 L36.44,29.87 L29.27,37.03 L25.29,33.05 Z M36,45.23 L36,34.34 L38.34,34.34 L38.34,45.23 Z M30.51,45.23 L30.51,39.79 L32.85,39.79 L32.85,45.23 Z M24.99,45.23 L24.99,37.07 L27.34,37.07 L27.34,45.23 Z M21.84,45.23 L19.5,45.23 L19.5,42.51 L21.84,42.51 Z" fill="none" stroke="currentColor" stroke-width="1.5"/></svg>