<svg xmlns="http://www.w3.org/2000/svg" viewBox="0 0 45.65 47.52" width="24" height="24"><path d="M22.83,47.52 C9.4,47.52 0,36.46 0,25.08 L0,22.44 C0,10.09 10.4,0 22.91,0 C36.56,0 45.65,11.45 45.65,22.49 L45.65,24.83 C45.65,37.57 35.1,47.52 22.83,47.52 Z" fill="none" stroke="currentColor" stroke-width="1.5"/><path d="M0,22.44 C0,36.44 11.29,45.64 22.81,45.64 C35.13,45.64 45.65,35.88 45.65,22.49 L45.65,24.83 C45.65,37.57 35.19,47.52 22.83,47.52 C9.41,47.52 0,36.44 0,25.08 Z" fill="none" stroke="currentColor" stroke-width="1.5"/><rect x="0" y="0" width="0" height="0" fill="none" stroke="currentColor"/><path d="M30.12,14.46 L30.12,7.06 L37.51,7.06 L37.51,14.46 Z M30.12,26.52 L30.12,19.12 L37.51,19.12 L37.51,26.52 Z M30.12,38.59 L30.12,31.19 L37.51,31.19 L37.51,38.59 Z M3.63,29.49 L3.63,16.16 L11.93,16.16 L11.93,21.5 L25.2,13.01 L24.35,11.7 L30.12,11.03 L27.16,16.03 L26.26,14.65 L15.01,21.85 L24.91,21.85 L24.91,20.22 L30.12,22.79 L24.91,25.37 L24.91,23.8 L15.02,23.8 L26.26,31.01 L27.16,29.62 L30.12,34.61 L24.34,33.95 L25.19,32.64 L11.93,24.14 L11.93,29.49 Z" fill="none" stroke="currentColor" stroke-width="1.5"/></svg>