<svg xmlns="http://www.w3.org/2000/svg" viewBox="0 0 48.31 55.21" width="24" height="24"><path d="M24.3,55.21 L17.07,51.12 L12.08,53.97 L0,47.11 L0,33.43 L6.9,29.5 L6.9,11.78 L27.6,0 L48.31,11.76 L48.31,35.26 L31.65,44.71 L31.65,51 Z" fill="none" stroke="currentColor" stroke-width="1.5"/><path d="M27.6,22.65 L46.13,12.15 L27.68,1.73 L9.23,12.15 Z M11.47,40.51 L1.12,34.66 L1.12,46.43 L11.47,52.36 Z M12,39.61 L22.35,33.68 L12,27.83 L1.65,33.68 Z M22.95,39.2 L22.95,34.73 L12.6,40.58 L12.6,52.36 L16.88,49.92 L16.88,42.61 Z M26.85,39.96 L26.85,24 L8.4,13.5 L8.4,28.65 L12.07,26.56 L24.07,33.38 L24.07,38.57 L24.23,38.49 Z M31.64,43.1 L46.88,34.43 L46.88,13.43 L28.43,23.93 L28.43,40.84 L31.64,42.65 Z M24.08,46.21 L29.78,42.99 L24.15,39.75 L18.52,42.99 Z M23.7,53.56 L23.7,47.11 L18,43.88 L18,50.34 Z M24.74,53.56 L30.45,50.34 L30.45,43.88 L24.74,47.11 Z" fill="none" stroke="currentColor" stroke-width="1.5"/></svg>