<svg xmlns="http://www.w3.org/2000/svg" viewBox="0 0 45.01 54.3" width="24" height="24"><path d="M45.01,43.04 L40.42,45.37 L32.18,43.28 L32.18,49.46 L22.5,54.3 L0,43.05 L0,11.25 L4.57,8.92 L10.42,10.43 L10.42,14.64 L12.97,13.9 L12.97,4.72 L22.5,0 L32.18,4.8 L32.18,13.94 L34.5,14.62 L34.5,10.43 L40.42,8.93 L45.01,11.25 Z" fill="none" stroke="currentColor" stroke-width="1.5"/><path d="M22.5,0 L22.5,54.3 L0,43.05 L0,11.25 L4.57,8.92 L4.57,16.36 L12.97,13.9 L12.97,4.72 Z M34.5,14.62 L34.5,10.43 L40.42,8.93 L40.42,16.36 Z M40.42,45.37 L32.18,43.28 L32.18,27.15 L40.42,27.14 Z" fill="none" stroke="currentColor" stroke-width="1.5"/></svg>