<svg xmlns="http://www.w3.org/2000/svg" viewBox="0 0 44.7 54.0" width="24" height="24"><path d="M44.7,17.48 L22.35,20.26 L15.22,19.36 L15.22,17.99 L10.88,18.83 L0,17.48 L0,11.18 L22.35,0 L34.28,5.94 L34.28,9.17 L38.47,8.03 L44.7,11.18 Z M22.35,32.41 L0,30.15 L0,23.78 L22.35,21.6 L44.7,23.78 L44.7,30.15 Z M22.35,54 L10.5,48.01 L10.5,44.77 L6.3,45.9 L0,42.76 L0,36.46 L22.35,33.68 L29.55,34.58 L29.55,35.94 L33.9,35.1 L44.7,36.46 L44.7,42.75 Z" fill="none" stroke="currentColor" stroke-width="1.5"/><path d="M15.22,19.36 L15.22,17.99 L34.28,14.33 L34.28,9.17 L38.47,8.03 L38.47,15.6 Z M0,11.18 L22.35,0 L22.35,10.81 L0,17.48 Z M22.35,32.41 L0,30.15 L0,23.78 L22.35,21.6 Z M10.5,48.01 L10.5,39.61 L22.35,43.21 L22.35,54 Z M6.3,45.9 L0,42.76 L0,36.46 L6.3,38.33 Z" fill="none" stroke="currentColor" stroke-width="1.5"/><path d="M10.5,39.61 L33.9,35.1 L44.7,36.46 L22.35,43.21 Z M6.3,38.33 L0,36.46 L22.35,33.68 L29.55,34.58 Z" fill="none" stroke="currentColor" stroke-width="1.5"/><path d="M0,17.48 L22.35,10.81 L34.28,14.33 L10.88,18.83 Z" fill="none" stroke="currentColor" stroke-width="1.5"/><path d="M15.22,19.36 L38.47,15.6 L44.7,17.48 L22.35,20.26 Z" fill="none" stroke="currentColor" stroke-width="1.5"/></svg>