<svg xmlns="http://www.w3.org/2000/svg" viewBox="0 0 51.15 61.8" width="24" height="24"><path d="M38.33,42.61 L38.33,40.72 L41.55,40.13 L41.55,21.75 L38.33,21 L38.33,19.25 L34.11,19.87 L33.22,19.69 L33.22,42.04 L34.12,41.85 Z M25.58,61.8 L11.92,54.9 L11.92,51.17 L7.12,52.5 L0,48.97 L0,12.75 L7.12,9.23 L11.92,10.51 L11.92,6.83 L25.58,0 L39.15,6.82 L39.15,10.5 L43.95,9.22 L51.15,12.83 L51.15,48.97 L43.95,52.58 L39.15,51.22 L39.15,54.97 Z" fill="none" stroke="currentColor" stroke-width="1.5"/><path d="M43.95,20.24 L38.33,21 L38.33,19.25 L39.15,19.13 L39.15,10.5 L43.95,9.22 Z M47.03,40.73 L41.55,40.13 L41.55,21.75 L47.03,20.99 Z M39.15,51.22 L39.15,42.75 L38.33,42.61 L38.33,40.72 L43.95,41.48 L43.95,52.58 Z M11.92,54.9 L11.92,6.83 L25.58,0 L25.58,61.8 Z M7.12,52.5 L0,48.97 L0,12.75 L7.12,9.23 Z" fill="none" stroke="currentColor" stroke-width="1.5"/><path d="M43.95,41.48 L38.33,40.72 L41.55,40.13 L47.03,40.73 Z M33.22,44.16 L33.22,42.04 L34.12,41.85 L39.15,42.75 Z" fill="none" stroke="currentColor" stroke-width="1.5"/><path d="M38.33,21 L43.95,20.24 L47.03,20.99 L41.55,21.75 Z M33.22,17.65 L39.15,19.13 L34.11,19.87 L33.22,19.69 Z" fill="none" stroke="currentColor" stroke-width="1.5"/></svg>