<svg xmlns="http://www.w3.org/2000/svg" viewBox="0 0 53.4 53.41" width="24" height="24"><path d="M37.2,53.41 L34.2,53.41 L34.2,48.45 L32.7,48.45 L32.7,53.41 L29.7,53.41 L29.7,48.45 L28.2,48.46 L28.2,53.41 L25.2,53.4 L25.2,48.46 L23.7,48.45 L23.7,53.4 L20.7,53.41 L20.7,48.45 L19.2,48.45 L19.2,53.41 L16.2,53.41 L16.2,48.46 L13.6,48.45 C10.07,48.45 6.82,45.51 6.82,41.72 L6.82,37.2 L0,37.2 L0,34.2 L6.82,34.2 L6.82,32.7 L0,32.7 L0,29.71 L6.82,29.71 L6.82,28.2 L0,28.2 L0,25.2 L6.82,25.2 L6.82,23.7 L0,23.7 L0,20.7 L6.82,20.7 L6.82,19.2 L0,19.2 L0,16.2 L6.82,16.2 L6.82,13.53 C6.82,10.23 9.63,6.83 13.62,6.83 L16.2,6.83 L16.2,0 L19.2,0.01 L19.2,6.83 L20.7,6.83 L20.7,0 L23.7,0.01 L23.7,6.83 L25.2,6.83 L25.2,0.01 L28.2,0 L28.2,6.83 L29.7,6.83 L29.7,0 L32.7,0.01 L32.7,6.83 L34.2,6.83 L34.2,0 L37.2,0.01 L37.2,6.83 L39.83,6.83 C43.23,6.83 46.57,9.66 46.57,13.66 L46.57,16.2 L53.4,16.2 L53.4,19.2 L46.57,19.2 L46.57,20.7 L53.4,20.7 L53.4,23.7 L46.57,23.7 L46.57,25.2 L53.4,25.21 L53.4,28.2 L46.57,28.2 L46.57,29.71 L53.4,29.71 L53.4,32.7 L46.57,32.7 L46.57,34.2 L53.4,34.2 L53.4,37.2 L46.57,37.2 L46.57,41.71 C46.57,45.13 43.69,48.46 39.76,48.46 L37.2,48.45 Z" fill="none" stroke="currentColor" stroke-width="1.5"/><path d="M16.2,48.46 L13.6,48.45 C10.07,48.45 6.82,45.5 6.82,41.72 L6.82,40 C6.82,42.91 9.39,46.58 13.68,46.58 L16.2,46.58 Z M19.2,48.45 L19.2,46.58 L20.7,46.59 L20.7,48.45 Z M23.7,48.45 L23.7,46.58 L25.2,46.58 L25.2,48.46 Z M28.2,48.46 L28.2,46.58 L29.7,46.58 L29.7,48.45 Z M32.7,48.45 L32.7,46.58 L34.2,46.58 L34.2,48.45 Z M37.2,48.45 L37.2,46.58 L39.9,46.58 C43.41,46.58 46.57,43.51 46.57,39.94 L46.57,41.71 C46.57,45.14 43.69,48.46 39.76,48.46 Z" fill="none" stroke="currentColor" stroke-width="1.5"/><rect x="0" y="0" width="0" height="0" fill="none" stroke="currentColor"/><path d="M17.62,16.2 C18.02,13.19 20.57,10.81 23.51,10.81 L25.24,10.81 C28.19,10.81 30.7,13.15 31.13,16.2 Z M33.21,32.41 C34.55,32.43 36.31,31.34 36.38,29.33 L36.38,25.9 C36.35,24.41 35.17,22.85 33.26,22.81 L31.85,22.8 Z M41.71,43.28 L39.91,43.28 C38.76,43.28 37.56,42.52 37.07,41.33 L32.18,41.33 C31.24,42.52 29.26,43.28 27.12,43.28 L21.74,43.28 C18.01,43.22 15.94,41.53 15.32,38.38 C15.04,36.95 15.03,35.13 15.45,32.59 L9.98,19.21 L13.19,17.62 L16.68,23.82 L17.55,17.7 L31.13,17.7 L31.53,20.55 L33.13,20.56 C36.41,20.56 38.55,23.05 38.62,25.83 L38.62,29.44 C38.62,31.04 37.87,32.61 36.45,33.64 C35.61,34.22 34.65,34.6 33.51,34.65 C33.73,36.39 33.62,37.93 33.33,39.08 L36.98,39.08 C37.36,37.92 38.51,36.9 39.98,36.9 L41.71,36.9 L41.71,37.5 L43.74,37.5 C44.29,37.5 44.86,38 44.86,38.63 C44.86,39.19 44.36,39.76 43.75,39.76 L41.71,39.76 L41.71,40.58 L43.74,40.58 C44.22,40.58 44.85,41.01 44.85,41.69 C44.85,42.33 44.38,42.83 43.73,42.83 L41.71,42.83 Z" fill="none" stroke="currentColor" stroke-width="1.5"/></svg>