<svg xmlns="http://www.w3.org/2000/svg" viewBox="0 0 51.16 61.72" width="24" height="24"><path d="M16.43,37.31 L16.43,24.41 L25.58,23.28 L34.72,24.42 L34.72,37.32 L25.58,38.43 Z M9.45,49.76 L4.28,51.03 L0,48.94 L0,12.78 L25.58,0 L39.14,6.79 L39.14,16.46 L33.67,17.51 L25.58,15.48 L9.45,19.46 Z M25.58,61.72 L12,54.94 L12,45.26 L17.48,44.21 L25.58,46.24 L41.7,42.26 L41.7,11.96 L46.87,10.69 L51.16,12.79 L51.16,48.94 Z" fill="none" stroke="currentColor" stroke-width="1.5"/><path d="M41.7,42.26 L41.7,11.96 L46.87,10.69 L46.87,43 Z M25.58,38.43 L16.43,37.31 L16.43,24.41 L25.58,23.28 Z M4.28,51.03 L0,48.94 L0,12.78 L25.58,0 L25.58,12.33 L4.28,18.71 Z M25.58,61.72 L12,54.94 L12,45.26 L25.58,49.39 Z" fill="none" stroke="currentColor" stroke-width="1.5"/><path d="M25.58,49.39 L12,45.26 L17.48,44.21 L25.58,46.24 L41.7,42.26 L46.87,43 Z" fill="none" stroke="currentColor" stroke-width="1.5"/><path d="M33.67,17.51 L25.58,15.48 L9.45,19.46 L4.28,18.71 L25.58,12.33 L39.14,16.46 Z" fill="none" stroke="currentColor" stroke-width="1.5"/></svg>