<svg xmlns="http://www.w3.org/2000/svg" viewBox="0 0 51.08 61.8" width="24" height="24"><path d="M20.51,18.23 L12.41,20.03 L0,18.23 L0,12.83 L7.24,9.23 L11.89,10.49 L11.89,6.84 L25.54,0 L39.19,6.83 L39.19,10.5 L43.84,9.23 L51.08,12.83 L51.08,18.23 L38.66,20.03 L30.56,18.23 L30.56,15.97 L25.54,17.11 L20.51,15.97 Z M51.08,30.9 L25.54,30.91 L0,30.91 L0,23.71 L25.54,18.53 L51.08,23.73 Z M25.54,61.8 L0,48.98 L0,36.3 L25.54,34.73 L51.08,36.31 L51.08,48.97 Z" fill="none" stroke="currentColor" stroke-width="1.5"/><path d="M30.56,18.23 L30.56,15.97 L39.19,14.04 L39.19,10.5 L43.84,9.23 L43.84,15.68 Z M11.89,14.03 L11.89,6.84 L25.54,0 L25.54,9.3 Z M7.24,15.68 L0,18.23 L0,12.83 L7.24,9.23 Z M25.54,30.91 L0,30.91 L0,23.71 L25.54,18.53 Z M25.54,61.8 L0,48.98 L0,36.3 L25.54,40.06 Z" fill="none" stroke="currentColor" stroke-width="1.5"/><path d="M30.56,18.23 L43.84,15.68 L51.08,18.23 L38.66,20.03 Z M25.54,17.11 L11.89,14.03 L25.54,9.3 L39.19,14.04 Z M12.41,20.03 L0,18.23 L7.24,15.68 L20.51,18.23 Z" fill="none" stroke="currentColor" stroke-width="1.5"/><path d="M25.54,40.06 L0,36.3 L25.54,34.73 L51.08,36.31 Z" fill="none" stroke="currentColor" stroke-width="1.5"/></svg>