<svg xmlns="http://www.w3.org/2000/svg" viewBox="0 0 59.6 46.0" width="24" height="24"><path d="M22.7,38.2 L13.9,39.8 L11.69,39.15 L11.69,44.1 L3.8,46 L0,44.1 L0,1.9 L3.8,0 L11.69,1.9 L11.69,6.84 L13.9,6.2 L22.7,7.8 L22.7,16.52 L29.8,15.8 L36.9,16.52 L36.9,7.8 L45.7,6.2 L47.7,6.78 L47.7,1.9 L55.8,0 L59.6,1.9 L59.6,44.1 L55.8,45.99 L47.7,44.1 L47.7,39.21 L45.7,39.8 L36.9,38.2 L36.9,29.49 L29.8,30.2 L22.7,29.48 Z" fill="none" stroke="currentColor" stroke-width="1.5"/><path d="M55.8,45.99 L47.7,44.1 L47.7,39.21 L51.2,38.23 L51.2,7.8 L47.7,6.78 L47.7,1.9 L55.8,0 Z M36.9,38.2 L36.9,29.49 L38.7,29.3 L38.7,16.7 L36.9,16.52 L36.9,7.8 L45.7,6.2 L45.7,39.8 Z M20.9,29.3 L20.9,16.7 L29.8,15.8 L29.8,30.2 Z M13.9,39.8 L8.4,38.2 L8.4,7.8 L13.9,6.2 Z M3.8,46 L0,44.1 L0,1.9 L3.8,0 Z" fill="none" stroke="currentColor" stroke-width="1.5"/></svg>