<svg xmlns="http://www.w3.org/2000/svg" viewBox="0 0 63.94 72.34" width="24" height="24"><path d="M25.38,61.82 L40.71,43.46 L34.83,40.64 L41.21,28.3 L34.66,26.3 L37.69,10.48 L22.33,28.88 L28.22,31.68 L21.89,43.95 L28.39,46.01 Z M63.94,56.37 L55.9,65.18 L41.57,72.34 L21.47,72.34 L7.02,65.18 L0,56.28 L0,48.66 L2,48.42 L2,46.55 L0,45.36 L0,37.74 L2,37.74 L2,34.53 L0,34.53 L0,26.88 L2,25.69 L2,23.85 L0,23.62 L0,15.97 L7.02,7.16 L21.47,0 L41.56,0 L55.9,7.14 L63.94,15.99 L63.94,23.62 L61.26,23.85 L61.26,25.63 L63.94,27.06 L63.94,34.55 L61.26,34.56 L61.26,37.8 L63.94,37.8 L63.94,45.47 L61.26,46.81 L61.26,48.5 L63.94,48.76 Z" fill="none" stroke="currentColor" stroke-width="1.5"/><path d="M45.5,43.69 L21.47,72.34 L25.38,61.82 L40.71,43.46 Z M45.2,25.08 L37.59,39.87 L34.83,40.64 L41.21,28.3 Z M41.56,0 L37.24,22.58 L34.66,26.3 L37.69,10.48 Z M21.47,58.6 L21.47,72.34 L7.02,65.18 L7.02,54.14 Z M21.86,39.52 L17.85,47.26 L21.47,48.41 L21.47,52.57 L7.02,49.39 L7.02,38.47 Z M21.47,19.41 L21.47,24.16 L17.9,28.46 L21.47,30.15 L21.47,33.48 L7.02,33.82 L7.02,22.84 Z M21.47,13.38 L7.02,18.16 L7.02,7.16 L21.47,0 Z" fill="none" stroke="currentColor" stroke-width="1.5"/><path d="M39,13.38 L41.56,13.38 L55.9,18.02 L63.94,23.62 L61.26,23.85 L61.26,25.63 L55.9,22.79 L41.56,19.41 L37.85,19.41 Z M41.21,28.3 L34.66,26.3 L37.24,22.58 L45.2,25.08 Z M37.77,39.51 L40.88,33.48 L55.9,33.94 L63.94,34.55 L61.26,34.56 L61.26,37.8 L63.94,37.8 L55.9,38.47 L41.57,39.52 Z M32.98,58.6 L38.04,52.57 L41.57,52.57 L55.9,49.48 L61.26,46.81 L61.26,48.5 L63.94,48.76 L55.9,54.16 L41.57,58.6 Z M40.71,43.46 L34.83,40.64 L37.59,39.87 L45.5,43.69 Z M7.02,65.18 L0,56.28 L0,48.66 L2,48.42 L2,46.55 L0,45.36 L0,37.74 L2,37.74 L2,34.53 L0,34.53 L0,26.88 L2,25.69 L2,23.85 L0,23.62 L0,15.97 L7.02,7.16 L7.02,18.16 L21.47,13.38 L30.45,13.38 L41.56,0 L37.69,10.48 L22.33,28.88 L17.9,28.46 L25.41,19.41 L21.47,19.41 L7.02,22.84 L7.02,33.82 L21.47,33.48 L24.94,33.48 L25.63,32.15 L28.22,31.68 L21.89,43.95 L17.85,47.26 L21.86,39.52 L7.02,38.47 L7.02,49.39 L21.47,52.57 L25.43,52.57 L25.98,49.83 L28.39,46.01 L25.38,61.82 L21.47,72.34 L24.22,58.6 L21.47,58.6 L7.02,54.14 Z" fill="none" stroke="currentColor" stroke-width="1.5"/><path d="M41.56,13.38 L41.56,0 L55.9,7.14 L55.9,18.02 Z M40.88,33.48 L45.2,25.08 L41.56,23.93 L41.56,19.41 L55.9,22.79 L55.9,33.94 Z M41.57,52.57 L41.57,48.37 L45.5,43.69 L41.57,41.8 L41.57,39.52 L55.9,38.47 L55.9,49.48 Z M41.57,72.34 L41.57,58.6 L55.9,54.16 L55.9,65.18 Z M25.63,32.15 L17.9,28.46 L22.33,28.88 L28.22,31.68 Z M25.98,49.83 L17.85,47.26 L21.89,43.95 L28.39,46.01 Z" fill="none" stroke="currentColor" stroke-width="1.5"/></svg>