<svg xmlns="http://www.w3.org/2000/svg" viewBox="0 0 44.7 54.0" width="24" height="24"><path d="M22.35,54 L0,42.83 L0,36.53 L10.42,35.24 L10.42,31.24 L0,30.15 L0,23.85 L10.42,22.83 L10.42,18.85 L0,17.55 L0,11.18 L22.35,0 L44.7,11.19 L44.7,17.55 L34.27,18.85 L34.27,22.82 L44.7,23.85 L44.7,30.15 L34.27,31.24 L34.27,35.24 L44.7,36.53 L44.7,42.83 Z" fill="none" stroke="currentColor" stroke-width="1.5"/><path d="M22.35,10.8 L0,17.55 L0,11.18 L22.35,0 Z M22.35,37.8 L10.42,35.4 L10.42,35.24 L10.42,31.24 L0,30.15 L0,23.85 L10.42,22.83 L10.42,18.85 L10.42,18.6 L22.35,16.2 Z M22.35,54 L0,42.83 L0,36.53 L22.35,43.2 Z" fill="none" stroke="currentColor" stroke-width="1.5"/><path d="M22.35,43.2 L0,36.53 L10.42,35.24 L10.42,35.4 L22.35,37.8 L34.27,35.4 L34.27,35.24 L44.7,36.53 Z" fill="none" stroke="currentColor" stroke-width="1.5"/><path d="M34.27,18.85 L34.27,18.61 L22.35,16.2 L10.42,18.6 L10.42,18.85 L0,17.55 L22.35,10.8 L44.7,17.55 Z" fill="none" stroke="currentColor" stroke-width="1.5"/></svg>