<svg xmlns="http://www.w3.org/2000/svg" viewBox="0 0 41.25 42.82" width="24" height="24"><path d="M20.65,42.82 C9.6,42.82 0,34 0,22.48 L0,20.2 C0,9.32 9.05,0 20.63,0 C32.01,0 41.25,9.12 41.25,20.54 L41.25,22.38 C41.25,34.11 31.62,42.82 20.65,42.82 Z" fill="none" stroke="currentColor" stroke-width="1.5"/><path d="M41.25,20.54 L41.25,22.38 C41.25,34.1 31.63,42.82 20.65,42.82 C9.57,42.82 0,33.97 0,22.48 L0,20.2 C0,32.83 10.17,40.95 20.69,40.95 C32.08,40.95 41.25,31.69 41.25,20.54 Z" fill="none" stroke="currentColor" stroke-width="1.5"/><rect x="0" y="0" width="0" height="0" fill="none" stroke="currentColor"/><path d="M20.6,24.37 C18.46,24.37 16.72,22.63 16.72,20.45 C16.72,18.42 18.35,16.57 20.6,16.57 C22.79,16.57 24.53,18.25 24.53,20.45 C24.53,22.64 22.75,24.37 20.6,24.37 Z M20.6,26.47 C24.13,26.47 26.62,23.63 26.62,20.45 C26.62,17.42 24.24,14.47 20.6,14.47 C17.03,14.47 14.62,17.45 14.62,20.45 C14.62,23.67 17.19,26.47 20.6,26.47 Z M20.6,27.23 C16.67,27.23 13.87,23.98 13.87,20.45 C13.87,16.76 16.88,13.72 20.6,13.72 C24.42,13.72 27.38,16.78 27.38,20.45 C27.38,24.28 24.3,27.23 20.6,27.23 Z" fill="none" stroke="currentColor" stroke-width="1.5"/></svg>