<svg xmlns="http://www.w3.org/2000/svg" viewBox="0 0 73.72 82.32" width="24" height="24"><path d="M67.63,37.81 L11.8,37.81 L11.8,14.19 L23.17,9.99 L30.37,11.94 L30.37,7.33 L50.2,0 L67.63,8.67 Z M36.85,82.32 L17.23,72.51 L17.23,67.27 L10.43,69.11 L0,63.9 L0,48.25 L13.93,47.1 L25.41,48.71 L25.41,50.65 L28.3,50.29 L28.3,45.91 L36.88,45.2 L48.76,46.18 L48.76,47.66 L55.83,46.78 L73.72,48.25 L73.72,63.89 L66.32,67.59 L52.43,64.1 L52.43,74.54 Z" fill="none" stroke="currentColor" stroke-width="1.5"/><path d="M23.17,37.81 L11.8,37.81 L11.8,14.19 L23.17,9.99 Z M50.2,37.81 L30.37,37.81 L30.37,7.33 L50.2,0 Z M40.23,50.79 L32.65,49.73 L28.3,50.29 L28.3,45.91 L40.23,47.11 Z M10.43,69.11 L0,63.9 L0,48.25 L10.43,50.34 Z M36.85,82.32 L17.23,72.51 L17.23,51.7 L36.85,55.62 Z M66.32,67.59 L52.43,64.1 L52.43,52.51 L47.47,51.81 L47.47,47.83 L66.32,49.73 Z" fill="none" stroke="currentColor" stroke-width="1.5"/><path d="M25.41,48.71 L10.43,50.34 L0,48.25 L13.93,47.1 Z M52.43,52.51 L36.85,55.62 L17.23,51.7 L32.65,49.73 Z M40.23,47.11 L28.3,45.91 L36.88,45.2 L48.76,46.18 Z M66.32,49.73 L47.47,47.83 L55.83,46.78 L73.72,48.25 Z" fill="none" stroke="currentColor" stroke-width="1.5"/></svg>