<svg xmlns="http://www.w3.org/2000/svg" viewBox="0 0 39.76 22.3" width="24" height="24"><path d="M0,22.3 L0,0 L39.75,0 L39.76,22.3 Z" fill="none" stroke="currentColor" stroke-width="1.5"/><path d="M0,22.3 L0,20.44 L39.76,20.44 L39.76,22.3 Z" fill="none" stroke="currentColor" stroke-width="1.5"/><path d="M1.65,19.22 L1.65,1.22 L3.53,1.22 L3.53,19.22 Z M5.1,19.22 L5.1,1.22 L6.98,1.22 L6.98,19.22 Z M8.55,19.22 L8.55,1.22 L10.43,1.22 L10.43,19.22 Z M29.25,19.22 L29.25,1.22 L31.13,1.22 L31.13,19.22 Z M32.7,19.22 L32.7,1.22 L34.58,1.22 L34.58,19.22 Z M36.15,19.22 L36.15,1.22 L38.03,1.22 L38.03,19.22 Z" fill="none" stroke="currentColor" stroke-width="1.5"/><rect x="0" y="0" width="0" height="0" fill="none" stroke="currentColor"/><path d="M24.72,11.37 C24.96,11.37 25.13,11.17 25.13,10.94 L25.13,5.52 C25.13,5.22 24.9,5.07 24.67,5.07 L15.03,5.07 C14.76,5.07 14.58,5.25 14.59,5.57 L14.59,10.92 C14.59,11.21 14.81,11.37 15.02,11.37 Z M15.03,12.4 C14.29,12.4 13.55,11.75 13.55,10.89 L13.55,5.53 C13.55,4.65 14.32,4.05 15.02,4.05 L24.76,4.05 C25.56,4.05 26.22,4.75 26.22,5.54 L26.22,10.97 C26.22,11.62 25.63,12.4 24.78,12.4 Z M24.89,15.22 C25.15,15.22 25.27,15.08 25.27,14.86 C25.27,14.61 25.11,14.48 24.89,14.48 L20.64,14.48 C20.48,14.48 20.34,14.66 20.34,14.82 C20.34,15.13 20.52,15.22 20.7,15.22 Z M14.52,16.17 C13.93,16.17 13.55,15.67 13.55,15.22 L13.55,14.45 C13.55,13.98 13.92,13.49 14.56,13.49 L25.26,13.49 C25.85,13.49 26.22,14.02 26.22,14.42 L26.22,15.23 C26.22,15.72 25.79,16.17 25.26,16.17 Z M38.03,19.22 L36.64,19.22 L36.64,1.71 L38.03,1.71 Z M34.58,19.22 L33.19,19.22 L33.19,1.71 L34.58,1.71 Z M31.13,19.22 L29.74,19.22 L29.74,1.71 L31.13,1.71 Z M10.43,19.22 L9.04,19.22 L9.04,1.71 L10.43,1.71 Z M6.98,19.22 L5.59,19.22 L5.59,1.71 L6.98,1.71 Z M3.53,19.22 L2.14,19.22 L2.14,1.71 L3.53,1.71 Z" fill="none" stroke="currentColor" stroke-width="1.5"/></svg>