<svg xmlns="http://www.w3.org/2000/svg" viewBox="0 0 26.98 61.48" width="24" height="24"><path d="M26.98,58.45 C26.87,59.59 24.53,60.25 22.92,60.62 C20.01,61.23 16.78,61.47 13.68,61.48 C10.38,61.48 7.11,61.26 4.11,60.62 C2.83,60.33 0.08,59.64 0.08,58.42 L0.08,3.04 C0.05,1.85 2.98,1.12 4.41,0.81 C7.52,0.21 10.72,0 13.93,0.02 C17.84,0.02 21.87,0.5 24.34,1.23 C25.59,1.61 26.94,2.2 26.98,3.02 Z" fill="none" stroke="currentColor" stroke-width="1.5"/><path d="M26.98,58.45 C26.87,59.6 24.53,60.26 22.92,60.62 C20.01,61.23 16.79,61.46 13.68,61.48 C10.38,61.48 7.11,61.26 4.11,60.62 C2.83,60.33 0.08,59.64 0.08,58.42 L0.08,56.58 C0.08,57.62 2.29,58.35 3.91,58.71 C7.04,59.4 10.38,59.64 13.82,59.61 C16.9,59.59 20.14,59.36 23.14,58.71 C24.47,58.36 26.8,57.8 26.98,56.62 Z" fill="none" stroke="currentColor" stroke-width="1.5"/><path d="M26.98,56.62 C26.81,57.8 24.47,58.36 23.14,58.71 C20.14,59.36 16.9,59.6 13.82,59.61 C10.37,59.63 7.03,59.4 3.91,58.71 C2.29,58.35 0.07,57.62 0.08,56.58 L0.08,53.52 C0,54.9 3.43,55.65 5.08,55.95 C7.83,56.41 10.69,56.62 13.73,56.61 C17.33,56.6 20.65,56.26 23.14,55.71 C24.84,55.3 26.83,54.69 26.98,53.61 Z" fill="none" stroke="currentColor" stroke-width="1.5"/><path d="M26.98,28.73 C26.81,29.94 23.94,30.65 22.01,31.01 C19.34,31.46 16.2,31.73 13.17,31.68 C9.97,31.66 6.94,31.4 4.32,30.87 C2.64,30.49 0.14,29.85 0.08,28.66 L0.08,8.43 C0.1,9.71 3.41,10.41 4.31,10.62 C7.28,11.21 10.48,11.42 13.5,11.43 C16.66,11.44 19.57,11.18 22.31,10.69 C24.3,10.32 26.84,9.62 26.98,8.42 Z" fill="none" stroke="currentColor" stroke-width="1.5"/><path d="M26.98,8.42 C26.84,9.62 24.28,10.32 22.31,10.69 C19.57,11.17 16.66,11.45 13.5,11.43 C10.48,11.42 7.29,11.22 4.31,10.62 C3.41,10.41 0.1,9.71 0.08,8.43 L0.08,6.88 C0.19,8.02 3.12,8.79 4.98,9.11 C7.61,9.59 10.48,9.79 13.51,9.79 C16.45,9.8 19.72,9.56 22.22,9.08 C24.17,8.69 26.8,8.03 26.98,6.79 Z" fill="none" stroke="currentColor" stroke-width="1.5"/><rect x="0" y="0" width="0" height="0" fill="none" stroke="currentColor"/><path d="M26.98,4.55 L26.98,6.79 C26.8,8.03 24.17,8.69 22.22,9.08 C19.71,9.56 16.46,9.8 13.51,9.79 C10.48,9.78 7.61,9.59 4.98,9.11 C3.13,8.79 0.19,8.02 0.08,6.88 L0.08,4.63 C0.26,5.85 3.46,6.64 5.29,6.93 C7.97,7.39 10.69,7.52 13.26,7.54 C16.39,7.55 19.42,7.36 22.26,6.83 C24.85,6.33 26.91,5.57 26.98,4.55 Z" fill="none" stroke="currentColor" stroke-width="1.5"/><path d="M26.98,3.02 L26.98,4.55 C26.91,5.57 24.85,6.33 22.26,6.83 C19.42,7.36 16.39,7.55 13.26,7.54 C10.69,7.52 7.97,7.38 5.29,6.93 C3.46,6.64 0.26,5.86 0.08,4.63 L0.08,3.04 C0.17,4.33 3.41,5.08 5.51,5.43 C7.75,5.8 10.5,6.02 13.21,6.01 C15.97,6.05 19.01,5.84 21.8,5.38 C24.49,4.9 26.92,4.13 26.98,3.02 Z" fill="none" stroke="currentColor" stroke-width="1.5"/><path d="M26.98,3.02 C26.91,4.13 24.5,4.91 21.8,5.38 C19,5.85 15.97,6.04 13.21,6.01 C10.5,6.02 7.75,5.8 5.51,5.43 C3.41,5.08 0.16,4.32 0.08,3.04 C0.05,1.85 2.98,1.12 4.41,0.81 C7.53,0.2 10.72,0 13.93,0.02 C17.84,0.02 21.86,0.5 24.34,1.23 C25.59,1.62 26.93,2.19 26.98,3.02 Z" fill="none" stroke="currentColor" stroke-width="1.5"/></svg>