<svg xmlns="http://www.w3.org/2000/svg" viewBox="0 0 51.3 61.8" width="24" height="24"><path d="M33.23,14.7 L25.62,16.43 L17.92,14.7 L17.92,3.83 L25.62,0 L33.23,3.82 Z M45,32.93 L39.22,33.23 L34.8,33.08 L34.8,33.45 L25.62,33.9 L16.43,33.46 L16.43,33.08 L12,33.23 L6.23,32.93 L6.23,22.43 L12,21.3 L16.43,21.89 L16.43,20.4 L25.62,18.52 L34.8,20.4 L34.8,21.89 L39.22,21.3 L45,22.43 Z M51.3,48.97 L44.18,52.5 L39.23,51.18 L39.23,54.97 L25.62,61.8 L12.08,54.97 L12.08,51.18 L7.12,52.5 L0,48.97 L0,36.3 L11.99,35.55 L20.03,36.37 L20.03,37.35 L25.62,36.83 L31.28,37.35 L31.28,36.37 L39.28,35.55 L51.3,36.3 Z" fill="none" stroke="currentColor" stroke-width="1.5"/><path d="M25.62,12.38 L17.92,14.7 L17.92,3.83 L25.62,0 Z M34.8,33.08 L34.8,21.89 L39.22,21.3 L39.22,33.23 Z M16.43,33.46 L16.43,20.4 L25.62,18.52 L25.62,33.9 Z M12,33.23 L6.23,32.93 L6.23,22.43 L12,21.3 Z M7.12,52.5 L0,48.97 L0,36.3 L7.12,37.35 Z M25.62,61.8 L12.08,54.97 L12.08,38.1 L25.62,40.12 Z M44.18,52.5 L39.23,51.18 L39.23,38.1 L31.28,37.35 L31.28,36.37 L44.18,37.35 Z" fill="none" stroke="currentColor" stroke-width="1.5"/><path d="M20.03,36.37 L7.12,37.35 L0,36.3 L11.99,35.55 Z M39.23,38.1 L25.62,40.12 L12.08,38.1 L25.62,36.83 Z M51.3,36.3 L44.18,37.35 L31.28,36.37 L39.28,35.55 Z" fill="none" stroke="currentColor" stroke-width="1.5"/><path d="M33.23,14.7 L25.62,16.43 L17.92,14.7 L25.62,12.38 Z" fill="none" stroke="currentColor" stroke-width="1.5"/></svg>