<svg xmlns="http://www.w3.org/2000/svg" viewBox="0 0 51.15 61.8" width="24" height="24"><path d="M25.57,61.8 L20.48,59.25 L20.48,55.33 L15.98,57 L12.08,55.05 L12.08,52.25 L8.55,53.25 L5.4,51.67 L5.4,49.61 L2.55,50.25 L0,48.97 L0,12.82 L2.55,11.55 L5.4,12.2 L5.4,10.13 L8.55,8.55 L12.08,9.55 L12.08,6.75 L15.98,4.8 L20.48,6.45 L20.48,2.55 L25.57,0 L39.2,6.83 L39.2,13.32 L40.65,13.84 L40.65,9.98 L43.87,9.15 L51.15,12.83 L51.15,27.22 L48.22,27.38 L42.6,26.87 L42.6,34.78 L48.22,34.27 L51.15,34.42 L51.15,48.97 L43.87,52.65 L40.65,51.82 L40.65,47.83 L39.2,48.36 L39.2,54.97 Z" fill="none" stroke="currentColor" stroke-width="1.5"/><path d="M40.65,26.7 L40.65,9.98 L43.87,9.15 L43.87,26.47 Z M40.65,34.95 L43.87,35.17 L43.87,52.65 L40.65,51.82 Z M20.48,25.19 L20.48,2.55 L25.57,0 L25.57,24.68 Z M20.48,59.25 L20.48,36.45 L25.57,36.98 L25.57,61.8 Z M12.08,55.05 L12.08,6.75 L15.98,4.8 L15.98,57 Z M5.4,51.67 L5.4,10.13 L8.55,8.55 L8.55,53.25 Z M2.55,50.25 L0,48.97 L0,12.82 L2.55,11.55 Z" fill="none" stroke="currentColor" stroke-width="1.5"/><path d="M40.65,26.7 L43.87,26.47 L51.15,27.22 L48.22,27.38 Z M20.48,25.19 L25.57,24.68 L39.2,26.02 L34.34,26.33 Z" fill="none" stroke="currentColor" stroke-width="1.5"/><path d="M40.65,34.95 L48.22,34.27 L51.15,34.42 L43.87,35.17 Z M20.48,36.45 L34.34,35.32 L39.2,35.62 L25.57,36.98 Z" fill="none" stroke="currentColor" stroke-width="1.5"/></svg>