<svg xmlns="http://www.w3.org/2000/svg" viewBox="0 0 44.7 53.99" width="24" height="24"><path d="M29.03,38.88 L37.5,36.75 L37.5,17.32 L29.03,15.19 Z M22.35,53.99 L14.4,50.02 L14.4,46.84 L10.42,48.07 L5.55,45.59 L5.55,43.7 L2.85,44.32 L0,42.82 L0,23.85 L2.85,23.54 L5.55,23.7 L5.55,15.9 L10.42,14.39 L14.4,15.14 L14.4,3.97 L22.35,0 L44.7,11.17 L44.7,42.82 Z" fill="none" stroke="currentColor" stroke-width="1.5"/><path d="M41.85,37.35 L37.5,36.75 L37.5,17.32 L41.85,16.72 Z M14.4,50.02 L14.4,3.97 L22.35,0 L22.35,53.99 Z M5.55,45.59 L5.55,15.9 L10.42,14.39 L10.42,48.07 Z M0,42.82 L0,23.85 L2.85,23.54 L2.85,44.32 Z" fill="none" stroke="currentColor" stroke-width="1.5"/><path d="M29.03,15.19 L29.03,12.9 L41.85,16.72 L37.5,17.32 Z" fill="none" stroke="currentColor" stroke-width="1.5"/><path d="M29.03,38.88 L37.5,36.75 L41.85,37.35 L29.03,41.17 Z" fill="none" stroke="currentColor" stroke-width="1.5"/></svg>