<svg xmlns="http://www.w3.org/2000/svg" viewBox="0 0 45.0 53.99" width="24" height="24"><path d="M22.5,53.99 L0,42.82 L0,36.54 L17.26,34.4 L12.75,33.74 L12.75,20.39 L17.71,19.67 L0,17.46 L0,11.17 L22.5,0 L45,11.17 L45,17.47 L27.17,19.65 L32.25,20.39 L32.25,33.73 L27.75,34.4 L45,36.53 L45,42.82 Z" fill="none" stroke="currentColor" stroke-width="1.5"/><path d="M22.5,10.79 L0,17.46 L0,11.17 L22.5,0 Z M22.5,35.17 L12.75,33.74 L12.75,20.39 L22.5,18.97 Z M22.5,53.99 L0,42.82 L0,36.54 L22.5,43.2 Z" fill="none" stroke="currentColor" stroke-width="1.5"/><path d="M0,17.46 L22.5,10.79 L45,17.47 L27.17,19.65 L22.5,18.97 L17.71,19.67 Z" fill="none" stroke="currentColor" stroke-width="1.5"/><path d="M0,36.54 L17.26,34.4 L22.5,35.17 L27.75,34.4 L45,36.53 L22.5,43.2 Z" fill="none" stroke="currentColor" stroke-width="1.5"/></svg>