<svg xmlns="http://www.w3.org/2000/svg" viewBox="0 0 67.27 42.01" width="24" height="24"><path d="M67.27,16.27 L13.31,16.27 L13.31,14.38 C15.2,12.81 16.5,10.43 16.77,7.76 C16.68,6.88 16.47,5.93 16.07,4.96 L16.07,3.14 L67.27,3.14 Z M5.84,29 L5.84,17.73 L67.27,17.73 L67.27,29 Z M5.84,42.01 L5.84,30.76 L67.27,30.76 L67.27,42.01 Z" fill="none" stroke="currentColor" stroke-width="1.5"/><path d="M49.84,12.39 L49.84,4.73 L51.34,4.73 L51.34,12.39 Z M47.26,5.95 L47.26,4.73 L48.76,4.73 L48.76,5.95 Z M47.26,12.39 L47.26,6.64 L48.76,6.65 L48.76,12.39 Z M44.73,9.53 C44.55,9.65 44.43,9.74 43.98,9.85 C43.59,9.95 43.32,10.16 43.26,10.54 C43.21,11.13 43.35,11.32 43.45,11.43 C43.6,11.58 43.96,11.6 44.26,11.46 C44.57,11.28 44.73,10.98 44.73,10.68 Z M46.33,12.35 L44.88,12.36 C44.8,12.18 44.72,11.99 44.68,11.75 C44.52,12.09 44.21,12.35 43.82,12.47 C43.5,12.57 42.76,12.55 42.43,12.29 C42.19,12.13 41.77,11.7 41.79,10.75 C41.81,9.93 42.14,9.56 42.59,9.31 C43,9.08 43.51,8.99 44.2,8.79 C44.65,8.65 44.75,8.36 44.66,7.86 C44.57,7.57 44.26,7.39 43.92,7.45 C43.61,7.51 43.41,7.73 43.38,8 C43.37,8.14 43.37,8.28 43.38,8.41 L42.02,8.41 C41.99,7.85 42.11,7.36 42.45,7 C43.01,6.47 43.84,6.43 44.5,6.49 C45.59,6.57 46.14,7.08 46.15,8.14 L46.15,11.61 C46.15,11.92 46.25,12.14 46.33,12.35 Z M33.87,12.39 L33.87,6.65 L35.28,6.65 L35.28,7.25 C35.64,6.68 36.22,6.48 36.78,6.48 C37.61,6.47 38,6.95 38.13,7.41 C38.42,6.74 39.01,6.41 39.83,6.51 C40.74,6.61 41.08,7.32 41.08,8.11 L41.08,12.39 L39.57,12.39 L39.57,8.39 C39.57,7.9 39.42,7.65 39,7.63 C38.48,7.63 38.23,8.04 38.23,8.65 L38.23,12.39 L36.73,12.39 L36.73,8.35 C36.73,7.91 36.56,7.63 36.15,7.63 C35.71,7.63 35.4,7.98 35.4,8.62 L35.4,12.39 Z M28.71,12.39 L28.71,4.73 L33.07,4.73 L33.07,6 L30.27,6 L30.27,7.8 L32.88,7.8 L32.87,9.06 L30.27,9.06 L30.27,11.12 L33.07,11.12 L33.07,12.39 Z M7.83,25.16 L7.83,19.72 L65.26,19.72 L65.26,25.16 Z M7.83,38.16 L7.83,32.73 L65.26,32.73 L65.26,38.16 Z" fill="none" stroke="currentColor" stroke-width="1.5"/><path d="M13.84,6.89 L13.86,8.87 C13.86,12.7 10.58,15.7 7.09,15.7 C3.05,15.7 0,12.64 0,8.64 L0,6.72 C0,3.42 2.79,0 6.94,0 C10.69,0 13.84,3.05 13.84,6.89 Z" fill="none" stroke="currentColor" stroke-width="1.5"/><path d="M13.84,6.89 L13.86,8.87 C13.86,12.7 10.58,15.7 7.09,15.7 C3.06,15.7 0,12.64 0,8.64 L0,6.72 C0,10.74 2.98,13.82 6.94,13.82 C11.26,13.82 13.84,10.28 13.84,6.89 Z" fill="none" stroke="currentColor" stroke-width="1.5"/><path d="M16.77,7.76 C16.68,6.88 16.48,5.93 16.07,4.96 L16.07,3.14 C16.71,4.5 16.91,6.34 16.77,7.76 Z M67.27,16.27 L13.31,16.27 L13.31,14.38 L67.27,14.38 Z M67.27,29 L5.84,29 L5.84,27.13 L67.27,27.13 Z M67.27,42.01 L5.84,42.01 L5.84,40.15 L67.27,40.15 Z" fill="none" stroke="currentColor" stroke-width="1.5"/></svg>