<svg xmlns="http://www.w3.org/2000/svg" viewBox="0 0 55.57 40.13" width="24" height="24"><path d="M55.57,34.6 C55.57,36.06 54.41,37.13 52.67,37.13 L50.61,37.13 C48.92,37.13 48.07,35.97 48.07,34.69 L48.07,34.12 L44.47,34.12 C44.3,36.97 43.04,40.13 41.68,40.13 L25.07,40.13 C24.11,40.13 23.14,39.06 22.5,36.38 L9.62,36.38 C7.83,36.38 6.75,34.84 6.75,33.51 L6.75,25.13 L3,25.13 L3,34.8 C3,35.49 2.06,35.85 1.57,35.85 C0.68,35.85 0,35.3 0,34.77 L0,9.71 C0,9.02 0.8,8.63 1.5,8.63 C2.26,8.63 3,9.15 3,9.7 L3,19.5 L6.75,19.5 L6.75,10.66 C6.75,9.08 7.99,7.54 9.64,7.54 L15.75,7.54 L15.75,6.58 C15.75,5.35 16.81,4.41 17.95,3.98 C17.66,3.8 17.25,3.32 17.25,2.85 L17.25,0.79 C17.3,0.23 17.9,0 18.38,0 L34.52,0 C35.14,0 36,0.36 36,0.81 L36,2.84 C36,3.29 35.34,3.84 34.86,4.04 C35.46,4.4 36,5.16 36,6.57 L36,7.54 L41.46,7.54 C43.04,7.54 44.04,10.9 44.25,12.83 L47.62,12.83 C47.74,11.51 48.94,10.58 50.52,10.58 L52.56,10.58 C54.29,10.58 55.57,11.79 55.57,13.39 Z" fill="none" stroke="currentColor" stroke-width="1.5"/><path d="M30,3.75 L30,2.25 L34.49,2.25 C34.98,2.25 36,1.52 36,1 L36,2.84 C36,3.3 35.34,3.84 34.86,4.04 C34.59,3.9 34.27,3.75 33.67,3.75 Z M23.25,3.75 L19.16,3.75 C18.71,3.75 18.3,3.86 17.95,3.98 C17.65,3.8 17.25,3.33 17.25,2.85 L17.25,0.79 L17.25,1.02 C17.25,1.45 17.84,2.25 18.34,2.25 L23.25,2.25 Z M3,23.33 L6.75,23.33 L6.75,25.13 L3,25.13 Z M3,32.91 L3,34.8 C3,35.49 2.06,35.85 1.57,35.85 C0.67,35.85 0,35.3 0,34.77 L0,32.86 C0,33.59 0.92,33.98 1.49,33.98 C2.08,33.98 3,33.65 3,32.91 Z M55.57,32.8 L55.57,34.6 C55.57,36.06 54.4,37.13 52.67,37.13 L50.61,37.13 C48.92,37.13 48.07,35.98 48.07,34.69 L48.07,34.12 L44.47,34.12 C44.27,37.19 42.98,40.13 41.68,40.13 L25.07,40.13 C23.99,40.13 23.1,38.85 22.5,36.38 L9.62,36.38 C7.84,36.38 6.75,34.84 6.75,33.51 L6.75,31.66 C6.75,33.41 8.26,34.58 9.44,34.58 L22.5,34.58 C23.04,36.93 23.97,38.33 25.03,38.33 L41.62,38.33 C43.14,38.33 44.31,34.9 44.47,32.33 L48.07,32.33 L48.07,32.85 C48.07,34.21 48.93,35.33 50.64,35.33 L52.65,35.33 C54.34,35.33 55.57,34.32 55.57,32.8 Z" fill="none" stroke="currentColor" stroke-width="1.5"/><rect x="0" y="0" width="0" height="0" fill="none" stroke="currentColor"/><path d="M46.79,21.15 L47.39,17.7 L50.62,17.7 L50.7,18.45 L47.99,18.45 L47.62,20.32 C47.92,20.03 48.31,19.85 48.96,19.88 C50.61,19.97 50.95,21.36 50.92,22.2 C50.87,23.28 50.18,24.26 48.66,24.31 C47.25,24.3 46.5,23.46 46.49,22.42 L47.31,22.42 C47.39,22.94 47.69,23.55 48.68,23.62 C49.52,23.64 50.15,23.08 50.16,22.11 C50.19,21.01 49.4,20.54 48.67,20.55 C48.2,20.54 47.76,20.77 47.47,21.15 Z M11.33,24.23 L11.33,17.62 L12.53,17.62 L14.63,23.26 L16.73,17.62 L17.93,17.62 L17.93,24.23 L17.11,24.23 L17.11,18.76 L15.01,24.23 L14.25,24.23 L12.16,18.68 L12.16,24.23 Z M23.47,24.26 C23.3,24.35 22.97,24.43 22.69,24.34 C22.46,24.25 22.28,24.05 22.27,23.63 C22.01,23.98 21.43,24.33 20.82,24.37 C20.27,24.41 19.61,24.35 19.25,23.9 C19.03,23.66 18.81,22.98 19.14,22.28 C19.41,21.85 19.87,21.66 20.52,21.55 C21.06,21.45 21.57,21.44 21.93,21.31 C22.25,21.2 22.3,20.95 22.27,20.7 C22.19,20.3 21.91,20.13 21.54,20.06 C21.34,20.03 21.04,20.01 20.68,20.09 C20.21,20.21 20.03,20.53 20.02,20.93 L19.19,20.93 C19.24,20.55 19.3,20.16 19.73,19.77 C19.95,19.6 20.32,19.38 21.08,19.35 C22.24,19.32 23.03,19.65 23.03,20.7 L23.03,23.21 C23.03,23.42 23.04,23.54 23.11,23.6 C23.27,23.66 23.39,23.64 23.48,23.54 Z M22.28,21.75 C22.15,21.85 21.92,21.93 21.59,21.97 C21.25,22 20.88,22.04 20.65,22.09 C20.35,22.16 20.12,22.29 19.99,22.51 C19.86,22.75 19.84,23.05 19.96,23.28 C20.1,23.54 20.43,23.61 20.72,23.63 C21.18,23.64 21.56,23.51 21.81,23.33 C22.07,23.13 22.28,22.84 22.28,22.48 Z M24.3,26.1 L24.3,19.43 L25.12,19.43 L25.12,20.11 C25.25,19.81 25.61,19.45 26.35,19.37 C27.2,19.28 27.97,19.58 28.42,20.28 C29.07,21.26 29.05,22.97 28.17,23.82 C27.43,24.55 25.75,24.63 25.12,23.63 L25.12,26.1 Z M26.64,23.62 C27.44,23.57 27.7,23.03 27.84,22.66 C27.96,22.31 28.09,21.4 27.84,20.85 C27.5,20.13 26.96,20.04 26.57,20.02 C25.84,20.02 25.39,20.44 25.19,21.01 C24.96,21.66 25.06,22.29 25.19,22.68 C25.38,23.18 25.77,23.65 26.64,23.62 Z M30,24.23 L30,17.62 L33.21,17.62 C33.88,17.62 34.92,17.92 35.13,18.92 C35.34,20.03 34.79,20.88 34.06,21 C34.42,21.09 34.8,21.27 34.96,21.94 C35.03,22.26 35.06,22.72 35.08,23.22 C35.15,23.75 35.26,24.07 35.41,24.23 L34.42,24.23 C34.32,24.11 34.28,23.76 34.28,23.28 C34.29,22.95 34.21,22.5 34.13,22.08 C34.01,21.57 33.68,21.27 33.01,21.31 L30.86,21.31 L30.86,24.23 Z M30.86,20.62 L32.86,20.62 C33.33,20.62 33.86,20.47 34.07,20.05 C34.23,19.73 34.25,19.24 34.1,18.89 C33.92,18.48 33.48,18.29 32.97,18.31 L30.86,18.31 Z M38.93,24.23 L38.93,17.62 L40.12,17.62 L42.23,23.26 L44.33,17.62 L45.53,17.62 L45.53,24.23 L44.71,24.23 L44.71,18.75 L42.61,24.23 L41.86,24.23 L39.76,18.76 L39.76,24.23 Z" fill="none" stroke="currentColor" stroke-width="1.5"/></svg>