<svg xmlns="http://www.w3.org/2000/svg" viewBox="0 0 37.12 42.01" width="24" height="24"><path d="M25.64,31.61 L28.65,29.33 L28.65,29.17 L27,28.8 Z M18.81,31.65 L22.57,31.65 L24.29,28.15 L14.76,25.8 L14.76,27.46 Z M14.76,21.98 L25.95,24.75 L27.74,21.03 L26.17,17.77 L14.76,21.52 Z M24.56,14.44 L22.57,10.35 L19.2,10.35 L14.74,15.6 C14.76,15.75 14.76,15.86 14.76,16.01 L14.76,17.7 Z M27.15,13.58 L28.57,13.13 L28.57,12.52 L25.47,10.13 Z M33.9,23.18 L35.69,23.18 C36.62,23.18 37.12,23.97 37.12,24.68 L37.12,31.98 C37.12,32.9 36.47,33.52 35.73,33.52 L30.19,33.52 C29.89,33.52 29.52,33.41 29.24,33.15 L25.86,35.71 L25.86,40.55 C25.86,41.19 25.33,42.01 24.32,42 L18.88,42 C18.12,42 17.4,41.36 17.4,40.5 L17.4,34.65 L13.11,30.22 C12.97,30.28 12.82,30.3 12.67,30.3 L2.18,30.31 C1.12,30.31 0,29.43 0,28.09 L0,15.94 C0,14.78 0.88,13.73 2.26,13.73 L12.37,13.73 L17.32,7.83 L17.32,7.02 L17.32,1.56 C17.32,0.51 18.17,0 18.78,0 L24.25,0 C25.22,0 25.79,0.76 25.79,1.52 L25.79,6.23 L29.17,8.78 C29.37,8.65 29.64,8.48 30.05,8.48 L35.49,8.48 C36.5,8.48 37.12,9.26 37.12,9.99 L37.12,15.48 L37.12,17.26 C37.12,18.14 36.28,18.75 35.61,18.75 L33.9,18.75 Z M31.87,23.18 L31.87,18.75 L31.8,18.75 L30.75,20.94 Z" fill="none" stroke="currentColor" stroke-width="1.5"/><path d="M33.9,16.91 L35.58,16.91 C36.26,16.91 37.12,16.35 37.12,15.48 L37.12,17.26 C37.12,18.14 36.28,18.75 35.61,18.75 L33.9,18.75 Z M17.32,7.83 L17.32,7.83 L17.32,7.02 C17.34,7.24 17.39,7.45 17.47,7.65 Z M24.67,8.48 C24.88,8.41 25.08,8.31 25.26,8.18 L28.57,10.73 L28.57,12.52 L25.47,10.13 Z M14.74,15.6 C14.66,15.24 14.51,14.79 14.16,14.48 L19.19,8.48 L22.57,8.48 L25.35,14.18 L24.56,14.44 L22.57,10.35 L19.2,10.35 Z M27.96,15.3 L28.56,15.08 L28.56,15.44 C28.56,16.17 29.14,16.74 29.69,16.88 L29.24,17.94 Z M30.3,20.03 L31.79,16.91 L31.87,16.91 L31.87,18.75 L31.8,18.75 L30.75,20.94 Z M27.82,25.2 L29.25,22.2 L29.77,23.25 C29.08,23.41 28.65,24.01 28.65,24.67 L28.65,25.43 Z M14.76,19.65 L26.17,15.9 L28.2,20.09 L27.74,21.03 L26.17,17.77 L14.76,21.52 Z M14.76,25.8 L14.76,23.93 L25.11,26.48 L24.29,28.15 Z M14.76,27.46 L14.54,27.24 C14.67,27 14.76,26.59 14.76,26.26 Z M17.4,34.65 L13.11,30.22 C12.97,30.28 12.82,30.3 12.67,30.3 L2.18,30.31 C1.25,30.31 0,29.54 0,28.09 L0,26.31 C0,27.47 0.92,28.5 2.24,28.5 L12.64,28.5 C12.86,28.5 13.01,28.46 13.11,28.42 L17.4,32.85 Z M25.19,31.95 C25.01,31.78 24.84,31.74 24.67,31.73 L26.99,26.93 L28.65,27.3 L28.65,29.17 L27,28.8 L25.64,31.61 Z M25.86,38.62 L25.86,40.55 C25.86,41.23 25.3,42 24.32,42 L18.88,42 C18.12,42 17.4,41.37 17.4,40.5 L17.4,38.7 C17.4,39.35 18.01,40.13 18.88,40.13 L24.43,40.13 C25.19,40.13 25.86,39.44 25.86,38.62 Z M25.86,33.83 L29.24,31.28 C29.53,31.54 29.91,31.65 30.19,31.65 L35.68,31.65 C36.48,31.65 37.12,31 37.12,30.14 L37.12,31.98 C37.12,32.89 36.47,33.52 35.73,33.52 L30.19,33.52 C29.89,33.52 29.52,33.4 29.24,33.15 L25.86,35.71 Z" fill="none" stroke="currentColor" stroke-width="1.5"/></svg>