<svg xmlns="http://www.w3.org/2000/svg" viewBox="0 0 28.5 36.75" width="24" height="24"><path d="M0,36.75 L0,0 L19.87,0 L28.5,9.31 L28.5,36.75 Z" fill="none" stroke="currentColor" stroke-width="1.5"/><path d="M0,36.75 L0,0 L19.87,0 L28.5,9.31 L28.5,36.75 Z" fill="none" stroke="currentColor" stroke-width="1.5"/><path d="M11.17,21 L17.44,21 L17.44,16.59 C17.44,15.85 17.03,13.57 14.3,13.57 C11.92,13.57 11.17,15.26 11.17,16.53 Z M5.1,31.19 L5.1,21 L8.25,21 L8.25,16.53 C8.25,14.11 10.63,11.01 14.31,11.01 C17.44,11.01 20.4,13.48 20.4,16.9 L20.4,21 L23.47,21 L23.47,31.19 Z" fill="none" stroke="currentColor" stroke-width="1.5"/></svg>