<svg xmlns="http://www.w3.org/2000/svg" viewBox="0 0 39.22 54.22" width="24" height="24"><path d="M39.22,16.33 C39.22,17.55 38.23,18.6 36.96,18.6 L24.73,18.6 C23.46,18.6 22.51,17.51 22.51,16.42 L22.51,2.24 C22.51,1.07 23.45,0 24.76,0 L36.98,0 C38.24,0 39.22,1.01 39.22,2.28 Z M9.49,46.82 L1.46,46.82 L1.46,25.13 L9.49,25.13 Z M22.18,46.82 L14.15,46.82 L14.15,29 L22.18,29 Z M34.87,46.82 L26.84,46.82 L26.84,20.72 L34.87,20.72 Z M36.34,54.22 L0,54.22 L0,48.11 L36.34,48.11 Z" fill="none" stroke="currentColor" stroke-width="1.5"/><path d="M39.22,14.47 L39.22,16.33 C39.22,17.55 38.24,18.6 36.96,18.6 L24.73,18.6 C23.46,18.6 22.51,17.51 22.51,16.42 L22.51,14.5 C22.51,15.65 23.49,16.71 24.74,16.71 L37.05,16.71 C38.07,16.71 39.22,15.79 39.22,14.47 Z M9.49,44.97 L9.49,46.82 L1.46,46.82 L1.46,44.97 Z M22.18,44.97 L22.18,46.82 L14.15,46.82 L14.15,44.97 Z M34.87,46.82 L26.84,46.82 L26.84,44.97 L34.87,44.97 Z M36.34,54.22 L0,54.22 L0,52.35 L36.34,52.35 Z" fill="none" stroke="currentColor" stroke-width="1.5"/></svg>