<svg xmlns="http://www.w3.org/2000/svg" viewBox="0 0 45.65 47.52" width="24" height="24"><path d="M45.65,24.87 C45.65,36.86 35.88,47.52 22.84,47.52 C10.18,47.52 0,37.24 0,25.08 L0,22.56 C0,10.5 9.89,0 22.8,0 C36.71,0 45.65,11.64 45.65,22.61 Z" fill="none" stroke="currentColor" stroke-width="1.5"/><path d="M45.65,22.61 L45.65,24.87 C45.65,36.85 35.88,47.52 22.84,47.52 C10.18,47.52 0,37.23 0,25.08 L0,22.56 C0,35.56 10.15,45.65 22.99,45.65 C35.44,45.65 45.65,35.44 45.65,22.61 Z" fill="none" stroke="currentColor" stroke-width="1.5"/><rect x="0" y="0" width="0" height="0" fill="none" stroke="currentColor"/><path d="M19.41,40.64 L19.41,26.7 L6.04,13.33 L39.6,13.33 L26.23,26.7 L26.23,33.7 Z" fill="none" stroke="currentColor" stroke-width="1.5"/></svg>