<svg xmlns="http://www.w3.org/2000/svg" viewBox="0 0 57.38 55.2" width="24" height="24"><path d="M0,12.15 L0,0 L57.38,0 L57.38,12.15 Z M0,26.47 L0,14.4 L57.38,14.4 L57.38,26.47 Z M0,40.8 L0,28.72 L57.38,28.72 L57.38,40.8 Z M0,55.2 L0,43.05 L57.38,43.05 L57.38,55.2 Z" fill="none" stroke="currentColor" stroke-width="1.5"/><path d="M11.02,8.1 L11.02,2.17 L55.2,2.17 L55.2,8.1 Z M2.17,22.42 L2.17,16.5 L46.35,16.5 L46.35,22.42 Z M11.02,36.83 L11.02,30.9 L55.2,30.9 L55.2,36.83 Z M2.17,51.15 L2.17,45.22 L46.35,45.22 L46.35,51.15 Z" fill="none" stroke="currentColor" stroke-width="1.5"/><path d="M0,12.15 L0,10.2 L57.38,10.2 L57.38,12.15 Z M0,26.47 L0,24.6 L57.38,24.6 L57.38,26.47 Z M0,40.8 L0,38.92 L57.38,38.92 L57.38,40.8 Z M0,55.2 L0,53.25 L57.38,53.25 L57.38,55.2 Z" fill="none" stroke="currentColor" stroke-width="1.5"/></svg>