<svg xmlns="http://www.w3.org/2000/svg" viewBox="0 0 53.4 53.41" width="24" height="24"><path d="M37.2,53.41 L34.2,53.41 L34.2,48.45 L32.7,48.45 L32.7,53.41 L29.7,53.41 L29.7,48.45 L28.2,48.46 L28.2,53.41 L25.2,53.4 L25.2,48.46 L23.7,48.45 L23.7,53.4 L20.7,53.41 L20.7,48.45 L19.2,48.45 L19.2,53.41 L16.2,53.41 L16.2,48.46 L13.6,48.45 C10.07,48.45 6.82,45.51 6.82,41.72 L6.82,37.2 L0,37.2 L0,34.2 L6.82,34.2 L6.82,32.7 L0,32.7 L0,29.71 L6.82,29.71 L6.82,28.2 L0,28.2 L0,25.2 L6.82,25.2 L6.82,23.7 L0,23.7 L0,20.7 L6.82,20.7 L6.82,19.2 L0,19.2 L0,16.2 L6.82,16.2 L6.82,13.53 C6.82,10.23 9.63,6.83 13.62,6.83 L16.2,6.83 L16.2,0 L19.2,0.01 L19.2,6.83 L20.7,6.83 L20.7,0 L23.7,0.01 L23.7,6.83 L25.2,6.83 L25.2,0.01 L28.2,0 L28.2,6.83 L29.7,6.83 L29.7,0 L32.7,0.01 L32.7,6.83 L34.2,6.83 L34.2,0 L37.2,0.01 L37.2,6.83 L39.83,6.83 C43.23,6.83 46.57,9.66 46.57,13.66 L46.57,16.2 L53.4,16.2 L53.4,19.2 L46.57,19.2 L46.57,20.7 L53.4,20.7 L53.4,23.7 L46.57,23.7 L46.57,25.2 L53.4,25.21 L53.4,28.2 L46.57,28.2 L46.57,29.71 L53.4,29.71 L53.4,32.7 L46.57,32.7 L46.57,34.2 L53.4,34.2 L53.4,37.2 L46.57,37.2 L46.57,41.71 C46.57,45.13 43.69,48.46 39.76,48.46 L37.2,48.45 Z" fill="none" stroke="currentColor" stroke-width="1.5"/><path d="M16.2,48.46 L13.6,48.45 C10.07,48.45 6.82,45.5 6.82,41.72 L6.82,40 C6.82,42.91 9.39,46.58 13.68,46.58 L16.2,46.58 Z M19.2,48.45 L19.2,46.58 L20.7,46.59 L20.7,48.45 Z M23.7,48.45 L23.7,46.58 L25.2,46.58 L25.2,48.46 Z M28.2,48.46 L28.2,46.58 L29.7,46.58 L29.7,48.45 Z M32.7,48.45 L32.7,46.58 L34.2,46.58 L34.2,48.45 Z M37.2,48.45 L37.2,46.58 L39.9,46.58 C43.41,46.58 46.57,43.51 46.57,39.94 L46.57,41.71 C46.57,45.14 43.69,48.46 39.76,48.46 Z" fill="none" stroke="currentColor" stroke-width="1.5"/><rect x="0" y="0" width="0" height="0" fill="none" stroke="currentColor"/><path d="M19.72,35.4 C18.72,35.4 18,34.63 18,33.68 L18,31.88 L28.2,31.88 C28.68,33.1 29.9,33.75 30.9,33.75 C32.75,33.75 33.97,32.32 33.97,30.75 C33.97,29.04 32.57,27.75 30.96,27.75 C29.76,27.75 28.63,28.52 28.2,29.63 L18,29.63 L18,19.61 C18,18.62 18.84,17.92 19.7,17.92 L33.78,17.92 C34.64,17.92 35.48,18.6 35.48,19.65 L35.48,21.38 L25.21,21.38 C24.8,20.35 23.75,19.5 22.43,19.5 C20.78,19.5 19.43,20.86 19.43,22.53 C19.43,24.06 20.64,25.5 22.52,25.5 C23.55,25.5 24.75,24.8 25.2,23.63 L35.48,23.63 L35.48,33.63 C35.48,34.74 34.65,35.41 33.76,35.41 Z" fill="none" stroke="currentColor" stroke-width="1.5"/></svg>