<svg xmlns="http://www.w3.org/2000/svg" viewBox="0 0 50.96 61.5" width="24" height="24"><path d="M25.49,38.55 L18.47,37.66 L18.47,23.83 L25.49,22.94 L32.53,23.87 L32.53,37.65 Z M25.49,41.5 L34.93,39.85 L34.93,21.68 L25.49,20.04 L16.05,21.69 L16.05,39.85 Z M25.49,61.5 L11.92,54.71 L11.92,40.36 L0,37.98 L0,23.54 L11.92,21.16 L11.92,6.78 L25.49,0 L39.04,6.78 L39.04,21.16 L50.96,23.54 L50.96,37.98 L39.04,40.37 L39.04,54.72 Z" fill="none" stroke="currentColor" stroke-width="1.5"/><path d="M39.04,40.37 L34.93,39.85 L34.93,21.68 L39.04,21.16 Z M25.49,18.45 L11.92,21.16 L11.92,6.78 L25.49,0 Z M11.92,40.36 L0,37.98 L0,23.54 L11.92,21.16 Z M25.49,38.55 L18.47,37.66 L18.47,23.83 L25.49,22.94 Z M25.49,61.5 L11.92,54.71 L11.92,40.36 L25.49,43.09 Z" fill="none" stroke="currentColor" stroke-width="1.5"/><path d="M25.49,43.09 L11.92,40.36 L16.05,39.85 L25.49,41.5 L34.93,39.85 L39.04,40.37 Z" fill="none" stroke="currentColor" stroke-width="1.5"/><path d="M34.93,21.68 L25.49,20.04 L16.05,21.69 L11.92,21.16 L25.49,18.45 L39.04,21.16 Z" fill="none" stroke="currentColor" stroke-width="1.5"/></svg>