<svg xmlns="http://www.w3.org/2000/svg" viewBox="0 0 40.96 42.01" width="24" height="24"><path d="M28.46,14.36 L26.47,10.35 L23.1,10.35 L16.36,18.33 Z M32.47,13.13 L32.47,12.52 L29.35,10.24 L30.97,13.58 Z M31.59,21 L30,17.7 L17.73,21.77 L29.78,24.75 Z M35.74,23.19 L35.74,18.75 L35.74,18.75 L34.66,20.95 Z M29.37,31.74 L32.47,29.34 L32.47,29.1 L30.83,28.72 Z M22.65,31.65 L26.41,31.65 L28.14,28.07 L16.5,25.18 Z M0,13.05 C0,12.76 0.38,12.46 1.14,12.21 C4.67,11.16 10.43,11.53 12.29,12.35 C12.85,12.6 13.03,12.83 13.05,13.03 L13.05,14.92 C13.05,15.41 12.15,15.73 11.45,15.91 C8.27,16.7 3.42,16.58 0.96,15.71 C0.58,15.55 0,15.31 0,14.92 Z M29.7,40.49 C29.7,41.42 28.93,42.01 28.21,42.01 L22.74,42.01 C21.84,42.01 21.22,41.25 21.22,40.53 L21.22,34.72 L13.05,26.18 L13.05,28.73 C13.05,28.99 12.72,29.27 12.18,29.47 C9.34,30.5 3.69,30.41 1,29.52 C0.59,29.37 0.08,29.16 0,28.76 L0,16.67 C0.03,17.08 0.68,17.37 1.58,17.63 C4.31,18.37 8.94,18.29 11.43,17.64 C12.45,17.38 13.05,17.03 13.05,16.67 L13.05,17.55 L21.23,7.83 L21.23,1.54 C21.23,0.53 22.05,0 22.71,0 L28.23,0 C29.03,0 29.7,0.69 29.7,1.51 L29.7,6.23 L33.07,8.78 C33.47,8.53 33.68,8.48 34.02,8.48 L39.44,8.48 C40.33,8.48 40.96,9.2 40.96,10 L40.96,17.25 C40.96,17.99 40.36,18.76 39.43,18.75 L37.65,18.75 L37.65,23.18 L39.44,23.18 C40.36,23.18 40.96,23.95 40.96,24.64 L40.96,31.95 C40.96,32.93 40.2,33.52 39.48,33.52 L33.95,33.52 C33.59,33.52 33.29,33.41 33.07,33.23 L29.7,35.77 Z" fill="none" stroke="currentColor" stroke-width="1.5"/><path d="M28.5,8.48 C28.72,8.4 28.9,8.31 29.1,8.18 L32.47,10.73 L32.47,12.52 L29.35,10.24 Z M28.46,14.36 L26.47,10.35 L23.1,10.35 L16.36,18.33 L14.17,19.05 L23.1,8.48 L26.47,8.48 L29.25,14.1 Z M31.59,21 L30,17.7 L17.73,21.77 L14.62,21 L30,15.9 L32.03,20.1 Z M33.08,17.93 L31.8,15.3 L32.41,15.08 L32.4,15.41 C32.4,16.2 33.01,16.76 33.53,16.88 Z M34.2,20.03 L35.74,16.74 L35.74,18.75 L35.74,18.75 L34.66,20.95 Z M37.65,16.95 L39.46,16.95 C40.27,16.95 40.96,16.29 40.96,15.44 L40.96,17.25 C40.96,17.99 40.36,18.75 39.43,18.75 L37.65,18.75 Z M31.65,25.2 L33.07,22.2 L33.6,23.25 C32.92,23.39 32.47,24.02 32.47,24.66 L32.47,25.43 Z M29.7,33.9 L33.08,31.35 C33.24,31.53 33.59,31.64 33.87,31.65 L39.44,31.65 C40.38,31.65 40.96,30.88 40.96,30.15 L40.96,31.95 C40.96,32.94 40.19,33.52 39.48,33.52 L33.95,33.52 C33.58,33.52 33.28,33.41 33.07,33.23 L29.7,35.77 Z M30.83,26.85 L32.47,27.23 L32.47,29.1 L30.83,28.72 L29.37,31.74 L29.1,31.95 C28.95,31.79 28.72,31.73 28.5,31.65 Z M14.18,22.73 L28.95,26.4 L28.14,28.07 L16.5,25.18 Z M13.05,13.03 L13.05,14.92 C13.05,15.41 12.15,15.72 11.45,15.91 C8.27,16.7 3.43,16.58 0.96,15.71 C0.58,15.54 0,15.3 0,14.92 L0,13.05 C0,13.46 0.7,13.77 1.33,13.96 C3.78,14.66 8.06,14.82 11.38,14.06 C12.48,13.77 13.05,13.44 13.05,13.03 Z M13.05,26.93 L13.05,28.73 C13.05,28.99 12.72,29.26 12.18,29.47 C9.74,30.42 3.91,30.5 1,29.52 C0.59,29.36 0.08,29.15 0,28.76 L0,26.92 C0,27.45 1.08,27.75 1.54,27.9 C3.68,28.5 8.8,28.76 11.94,27.77 C12.79,27.48 13.05,27.18 13.05,26.93 Z M21.22,34.72 L13.05,26.18 L13.05,24.38 L21.22,32.85 Z M29.7,38.58 L29.7,40.49 C29.7,41.41 28.93,42.01 28.21,42.01 L22.74,42.01 C21.85,42.01 21.22,41.25 21.22,40.53 L21.22,38.64 C21.22,39.46 21.92,40.13 22.71,40.13 L28.21,40.13 C28.96,40.13 29.7,39.53 29.7,38.58 Z" fill="none" stroke="currentColor" stroke-width="1.5"/></svg>