<svg xmlns="http://www.w3.org/2000/svg" viewBox="0 0 53.4 53.41" width="24" height="24"><path d="M37.2,53.41 L34.2,53.41 L34.2,48.45 L32.7,48.45 L32.7,53.41 L29.7,53.41 L29.7,48.45 L28.2,48.46 L28.2,53.41 L25.2,53.4 L25.2,48.46 L23.7,48.45 L23.7,53.4 L20.7,53.41 L20.7,48.45 L19.2,48.45 L19.2,53.41 L16.2,53.41 L16.2,48.46 L13.6,48.45 C10.07,48.45 6.82,45.51 6.82,41.72 L6.82,37.2 L0,37.2 L0,34.2 L6.82,34.2 L6.82,32.7 L0,32.7 L0,29.71 L6.82,29.71 L6.82,28.2 L0,28.2 L0,25.2 L6.82,25.2 L6.82,23.7 L0,23.7 L0,20.7 L6.82,20.7 L6.82,19.2 L0,19.2 L0,16.2 L6.82,16.2 L6.82,13.53 C6.82,10.23 9.63,6.83 13.62,6.83 L16.2,6.83 L16.2,0 L19.2,0.01 L19.2,6.83 L20.7,6.83 L20.7,0 L23.7,0.01 L23.7,6.83 L25.2,6.83 L25.2,0.01 L28.2,0 L28.2,6.83 L29.7,6.83 L29.7,0 L32.7,0.01 L32.7,6.83 L34.2,6.83 L34.2,0 L37.2,0.01 L37.2,6.83 L39.83,6.83 C43.23,6.83 46.57,9.66 46.57,13.66 L46.57,16.2 L53.4,16.2 L53.4,19.2 L46.57,19.2 L46.57,20.7 L53.4,20.7 L53.4,23.7 L46.57,23.7 L46.57,25.2 L53.4,25.21 L53.4,28.2 L46.57,28.2 L46.57,29.71 L53.4,29.71 L53.4,32.7 L46.57,32.7 L46.57,34.2 L53.4,34.2 L53.4,37.2 L46.57,37.2 L46.57,41.71 C46.57,45.13 43.69,48.46 39.76,48.46 L37.2,48.45 Z" fill="none" stroke="currentColor" stroke-width="1.5"/><path d="M16.2,48.46 L13.6,48.45 C10.07,48.45 6.82,45.5 6.82,41.72 L6.82,40 C6.82,42.91 9.39,46.58 13.68,46.58 L16.2,46.58 Z M19.2,48.45 L19.2,46.58 L20.7,46.59 L20.7,48.45 Z M23.7,48.45 L23.7,46.58 L25.2,46.58 L25.2,48.46 Z M28.2,48.46 L28.2,46.58 L29.7,46.58 L29.7,48.45 Z M32.7,48.45 L32.7,46.58 L34.2,46.58 L34.2,48.45 Z M37.2,48.45 L37.2,46.58 L39.9,46.58 C43.41,46.58 46.57,43.51 46.57,39.94 L46.57,41.71 C46.57,45.14 43.69,48.46 39.76,48.46 Z" fill="none" stroke="currentColor" stroke-width="1.5"/><rect x="0" y="0" width="0" height="0" fill="none" stroke="currentColor"/><path d="M21.21,33.3 C21.56,33.3 21.83,33.07 21.83,32.66 L21.83,29.8 C21.83,29.44 21.59,29.1 21.18,29.1 L18.75,29.1 C18.4,29.1 18.15,29.37 18.15,29.7 L18.15,32.74 C18.15,32.97 18.35,33.3 18.74,33.3 Z M34.72,33.3 C35.02,33.3 35.33,33.08 35.33,32.72 L35.33,29.72 C35.33,29.39 35.03,29.1 34.72,29.1 L32.26,29.1 C31.92,29.1 31.65,29.34 31.65,29.74 L31.65,32.66 C31.65,33.05 31.91,33.3 32.24,33.3 Z M28.41,38.33 C28.76,38.33 29.02,38.09 29.02,37.72 L29.02,29.81 C29.02,29.5 28.8,29.1 28.38,29.1 L25.13,29.1 C24.8,29.1 24.53,29.36 24.53,29.7 L24.53,37.73 C24.53,38.12 24.84,38.33 25.1,38.33 Z M14.88,38.85 C14.45,38.85 14.1,38.54 14.1,38.12 L14.1,25.43 L10.43,25.43 C9.98,25.43 9.68,25.15 9.68,24.69 L9.68,23.1 L26.71,13.28 L43.72,23.1 L43.72,24.67 C43.72,25.21 43.37,25.43 42.94,25.43 L39.3,25.43 L39.3,38.11 C39.3,38.56 38.92,38.85 38.55,38.85 Z" fill="none" stroke="currentColor" stroke-width="1.5"/></svg>