<svg xmlns="http://www.w3.org/2000/svg" viewBox="0 0 41.7 43.74" width="24" height="24"><path d="M14.32,41.63 L6.75,41.63 C2.89,41.63 0,38.34 0,34.91 L0,6.65 C0,3.07 3.19,0 6.69,0 L33.03,0 C36.45,0 39.75,2.85 39.75,6.9 L39.75,29.93 L41.7,29.93 L41.7,43.74 L16.2,43.74 L16.2,29.93 L14.32,29.93 Z" fill="none" stroke="currentColor" stroke-width="1.5"/><path d="M14.32,29.93 L14.32,28.06 L39.75,28.06 L39.75,29.93 Z M16.2,43.74 L16.2,41.85 L41.7,41.85 L41.7,43.74 Z M14.32,41.63 L6.75,41.63 C2.89,41.63 0,38.34 0,34.91 L0,33.12 C0,36.4 2.86,39.76 6.83,39.76 L14.32,39.76 Z" fill="none" stroke="currentColor" stroke-width="1.5"/><rect x="0" y="0" width="0" height="0" fill="none" stroke="currentColor"/><path d="M36.94,35.63 L37.83,35.63 C38.37,35.61 38.8,35.37 38.98,34.88 C39.15,34.38 39.08,33.72 38.87,33.38 C38.64,32.96 38.11,32.9 37.79,32.9 L36.94,32.9 Z M35.66,39.91 L35.66,31.88 L38.21,31.88 C39.14,31.88 40.1,32.29 40.35,33.48 C40.52,34.26 40.42,35.26 39.89,35.87 C39.45,36.38 38.83,36.62 38.05,36.61 L36.94,36.61 L36.94,39.91 Z M31.27,39.91 L31.27,32.9 L29.32,32.9 L29.32,31.88 L34.42,31.88 L34.42,32.9 L32.54,32.9 L32.54,39.91 Z M25.57,39.91 L25.57,32.9 L23.62,32.9 L23.62,31.88 L28.72,31.88 L28.72,32.9 L26.84,32.9 L26.84,39.91 Z M17.55,39.91 L17.55,31.88 L18.82,31.88 L18.82,35.11 L21.22,35.11 L21.22,31.88 L22.5,31.88 L22.5,39.91 L21.22,39.91 L21.22,36.16 L18.82,36.16 L18.82,39.91 Z" fill="none" stroke="currentColor" stroke-width="1.5"/></svg>