<svg xmlns="http://www.w3.org/2000/svg" viewBox="0 0 34.95 36.67" width="24" height="24"><path d="M20.84,36.67 L14.24,36.67 L14.25,33.96 C12.93,33.76 10.94,33 9.37,32.01 L7.51,33.89 L2.94,29.32 L2.93,27.29 L4.05,26.13 C3.56,25.13 3.08,24.01 2.78,22.56 L0,22.56 L0,14.09 L2.7,14.1 C2.96,12.95 3.27,11.83 4,10.43 L2.77,9.21 L2.78,7.42 L7.43,2.77 L9.3,4.65 C10.88,3.7 12.48,3.05 14.1,2.7 L14.1,0 L20.7,0 L20.7,2.69 C22.58,3.08 24.15,3.81 25.5,4.65 L27.37,2.77 L32.02,7.42 L32,9.39 L30.85,10.54 C31.38,11.6 31.84,12.76 32.15,14.01 L34.95,14.02 L34.95,22.49 L32.18,22.49 C31.89,23.82 31.45,24.98 30.93,26.04 L32.18,27.3 L32.18,29.17 L27.46,33.89 L25.57,32.01 C24.18,32.85 22.56,33.58 20.85,33.94 Z" fill="none" stroke="currentColor" stroke-width="1.5"/><path d="M27.94,18.19 C27.3,12.69 23.03,8.68 17.17,8.69 C13.22,8.69 7.67,11.77 7.02,18.28 C7.4,23.15 11.38,27.82 17.56,27.82 C22.19,27.82 27.32,24.38 27.94,18.19 Z" fill="none" stroke="currentColor" stroke-width="1.5"/><path d="M4,10.43 L2.77,9.21 L2.78,7.42 L4.65,9.3 C4.42,9.64 4.21,10.03 4,10.43 Z M4.65,25.49 L4.05,26.13 C3.56,25.13 3.08,24 2.78,22.56 L0,22.56 L0,20.69 L2.7,20.7 C3.09,22.61 3.92,24.23 4.65,25.49 Z M14.25,32.01 L14.25,33.96 C12.93,33.76 10.94,33 9.37,32.01 L7.51,33.89 L2.94,29.32 L2.93,27.29 L7.58,31.84 L9.45,30.07 C10.52,30.72 12.08,31.54 14.25,32.01 Z M20.85,34.72 L20.84,36.67 L14.24,36.67 L14.25,34.72 Z M32.18,27.3 L32.18,29.17 L27.46,33.89 L25.57,32.01 C24.18,32.86 22.57,33.58 20.85,33.94 L20.85,32.01 C22.72,31.61 24.32,30.88 25.65,30.06 L27.53,31.95 Z M34.95,20.62 L34.95,22.49 L32.18,22.49 C31.89,23.82 31.45,24.99 30.93,26.04 L30.31,25.42 C31.23,23.98 31.9,22.23 32.25,20.62 Z M30.15,9.29 L32.02,7.42 L32,9.39 L30.85,10.54 C30.62,10.11 30.39,9.67 30.15,9.29 Z M27.94,18.19 C27.3,12.67 23.04,8.69 17.17,8.69 C13.22,8.69 7.67,11.75 7.02,18.28 C6.45,11.63 11.82,6.82 17.36,6.82 C23.66,6.82 28.52,12.07 27.94,18.19 Z" fill="none" stroke="currentColor" stroke-width="1.5"/></svg>