<svg xmlns="http://www.w3.org/2000/svg" viewBox="0 0 44.7 54.0" width="24" height="24"><path d="M31.8,29.7 L22.35,30.45 L12.9,29.7 L12.9,4.72 L22.35,0 L31.79,4.72 Z M22.35,54 L0,42.83 L0,38.77 L12.9,36.34 L12.9,33.75 L22.34,32.78 L31.79,33.74 L31.8,36.35 L44.7,38.77 L44.7,42.82 Z" fill="none" stroke="currentColor" stroke-width="1.5"/><path d="M22.35,30.45 L12.9,29.7 L12.9,4.72 L22.35,0 Z M22.35,43.2 L12.9,40.35 L12.9,33.75 L22.35,35.1 Z M22.35,54 L0,42.83 L0,38.77 L22.35,47.18 Z" fill="none" stroke="currentColor" stroke-width="1.5"/><path d="M22.35,35.1 L12.9,33.75 L22.34,32.78 L31.79,33.74 Z M22.35,47.18 L0,38.77 L12.9,36.34 L12.9,40.35 L22.35,43.2 L31.8,40.35 L31.8,36.35 L44.7,38.77 Z" fill="none" stroke="currentColor" stroke-width="1.5"/></svg>