<svg xmlns="http://www.w3.org/2000/svg" viewBox="0 0 39.76 41.5" width="24" height="24"><path d="M6.82,41.5 C2.88,41.5 0,38.13 0,34.81 L0,6.61 C0,3.5 2.72,0 6.96,0 L33.03,0 C36.66,0 39.76,3.08 39.76,6.72 L39.76,34.71 C39.76,38.57 36.59,41.5 32.91,41.5 Z" fill="none" stroke="currentColor" stroke-width="1.5"/><path d="M6.82,41.5 C2.88,41.5 0,38.14 0,34.81 L0,32.91 C0,36.82 3.29,39.7 6.88,39.7 L32.96,39.7 C36.59,39.7 39.76,36.72 39.76,32.89 L39.76,34.71 C39.76,38.57 36.6,41.5 32.91,41.5 Z" fill="none" stroke="currentColor" stroke-width="1.5"/></svg>