<svg xmlns="http://www.w3.org/2000/svg" viewBox="0 0 52.85 35.21" width="24" height="24"><path d="M52.85,23.96 L52.85,26.4 C52.85,30.6 48.25,35.21 42.1,35.21 L10.67,35.21 C4.79,35.21 0,30.71 0,26.37 L0,24.03 C0,19.07 3.94,15.16 6.84,14.42 C6.64,11.59 7.96,6.42 12.25,3.29 C15.59,0.83 19.98,0 23.99,1.13 C28.14,2.33 31.1,5.17 32.65,8.55 C35.01,6.93 37.98,6.97 40.25,8.45 C42.47,9.91 43.31,12.11 43.38,13.93 C45.85,14.12 48.31,15.48 49.96,17.24 C51.42,18.79 52.85,21.15 52.85,23.96 Z" fill="none" stroke="currentColor" stroke-width="1.5"/><path d="M52.85,23.96 L52.85,26.4 C52.85,30.59 48.26,35.21 42.1,35.21 L10.67,35.21 C4.79,35.21 0,30.7 0,26.37 L0,24.03 C0,30.09 6.06,33.31 10.54,33.31 L42.23,33.31 C47.44,33.31 52.85,29.55 52.85,23.96 Z" fill="none" stroke="currentColor" stroke-width="1.5"/><rect x="0" y="0" width="0" height="0" fill="none" stroke="currentColor"/><path d="M41.21,18.5 C41.69,19.06 41.72,20.01 40.99,20.64 C40.36,21.12 39.5,21.05 38.96,20.49 C35.87,17.35 31.29,15.34 26.58,15.3 C21.69,15.23 17.02,17.29 13.81,20.57 C13.26,21.13 12.34,21.3 11.58,20.43 C11.11,19.82 11.1,19.15 11.59,18.55 C15.62,14.42 21.06,12.3 26.38,12.3 C31.71,12.3 36.92,14.19 41.21,18.5 Z M36.71,22.46 C37.46,23.29 37.12,24.24 36.57,24.69 C35.92,25.2 35.06,25.1 34.46,24.44 C32.48,22.52 29.62,21.13 26.28,21.18 C23.88,21.19 20.69,22.13 18.3,24.52 C17.69,25.04 16.8,25.03 16.17,24.3 C15.82,23.84 15.62,23.22 16.14,22.46 C19.03,19.59 22.81,18.17 26.59,18.2 C30.79,18.15 34.76,20.38 36.71,22.46 Z M32.73,26.61 C33.33,27.38 33.05,28.4 32.34,28.84 C31.62,29.23 30.94,29.08 30.41,28.53 C29.47,27.64 28.1,26.94 26.39,26.93 C24.71,26.96 23.28,27.66 22.31,28.65 C21.67,29.32 20.71,29.36 20,28.46 C19.65,27.95 19.49,27.21 20.21,26.51 C21.76,24.99 23.82,23.93 26.66,23.93 C28.82,24.01 31.11,24.87 32.73,26.61 Z" fill="none" stroke="currentColor" stroke-width="1.5"/></svg>