<svg xmlns="http://www.w3.org/2000/svg" viewBox="0 0 52.86 35.5" width="24" height="24"><path d="M52.86,24.13 L52.86,26.61 C52.86,31.22 47.77,35.5 42.36,35.5 L10.67,35.5 C5.39,35.5 0.01,31.47 0.01,26.54 L0,24.7 C0,20.25 2.57,16.11 6.84,14.7 C6.73,10.91 8.19,7.54 10.9,4.74 C14.49,1.1 20.15,0 24.89,1.69 C28.53,3.02 31.29,5.7 32.66,8.83 C35.08,7.23 38.13,7.17 40.66,9.02 C42.01,10.01 43.26,11.71 43.38,14.22 C45.84,14.44 48.4,15.62 50.46,18.09 C51.96,19.84 52.83,22.12 52.86,24.13 Z" fill="none" stroke="currentColor" stroke-width="1.5"/><path d="M52.86,24.13 L52.86,26.61 C52.86,31.23 47.77,35.5 42.36,35.5 L10.67,35.5 C5.37,35.5 0.01,31.47 0.01,26.54 L0,24.7 C0,29.55 5.23,33.61 10.61,33.61 L42.23,33.61 C48.17,33.61 52.86,29.23 52.86,24.13 Z" fill="none" stroke="currentColor" stroke-width="1.5"/><rect x="0" y="0" width="0" height="0" fill="none" stroke="currentColor"/><path d="M25.31,24.66 L20.82,24.66 L20.82,30.78 L14.81,30.78 L14.81,24.66 L10.33,24.66 L17.82,11.69 Z M32.8,30.73 L25.31,17.75 L29.79,17.75 L29.79,11.63 L35.8,11.63 L35.8,17.75 L40.29,17.75 Z" fill="none" stroke="currentColor" stroke-width="1.5"/></svg>