<svg xmlns="http://www.w3.org/2000/svg" viewBox="0 0 60.0 70.25" width="24" height="24"><path d="M1.78,70.25 C0.86,70.25 0,69.47 0,68.36 L0,18.97 C0,17.6 0.86,16.74 1.63,16.35 L30,0 L58.36,16.35 C59.3,16.8 60,17.8 60,18.93 L60,68.43 C60,69.36 59.23,70.25 58.18,70.25 Z" fill="none" stroke="currentColor" stroke-width="1.5"/><path d="M60,65.92 L60,68.43 C60,69.36 59.23,70.25 58.18,70.25 L1.78,70.25 C0.86,70.25 0,69.47 0,68.36 L0,65.81 C0,67.07 1.02,67.7 1.8,67.7 L58.15,67.7 C59.19,67.7 60,66.87 60,65.92 Z" fill="none" stroke="currentColor" stroke-width="1.5"/><rect x="0" y="0" width="0" height="0" fill="none" stroke="currentColor"/><path d="M20.33,37.64 L28.64,37.64 L28.64,29.34 L20.33,29.34 Z M9.44,37.64 L17.75,37.64 L17.75,29.34 L9.44,29.34 Z M9.44,48.53 L17.75,48.53 L17.75,40.23 L9.44,40.23 Z M20.33,48.53 L28.64,48.53 L28.64,40.23 L20.33,40.23 Z M31.22,48.53 L39.53,48.53 L39.53,40.23 L31.22,40.23 Z M42.11,59.42 L50.42,59.42 L50.42,51.12 L42.11,51.12 Z M31.22,59.42 L39.53,59.42 L39.53,51.12 L31.22,51.12 Z M20.33,59.42 L28.64,59.42 L28.64,51.12 L20.33,51.12 Z M9.44,59.42 L17.75,59.42 L17.75,51.12 L9.44,51.12 Z M7,61.82 L7,22.22 L53,22.22 L53,61.82 Z" fill="none" stroke="currentColor" stroke-width="1.5"/></svg>