<svg xmlns="http://www.w3.org/2000/svg" viewBox="0 0 42.0 43.8" width="24" height="24"><path d="M23.25,43.8 L23.25,30.97 L42,30.97 L42,43.8 Z M23.25,28.35 L23.25,15.45 L42,15.45 L42,28.35 Z M0,28.35 L0,15.45 L18.75,15.45 L18.75,28.35 Z M0,43.8 L0,30.97 L18.75,30.97 L18.75,43.8 Z M0,12.82 L0,0 L18.75,0 L18.75,12.82 Z M23.25,12.82 L23.25,0 L42,0 L42,12.82 Z" fill="none" stroke="currentColor" stroke-width="1.5"/><path d="M32.63,9.23 C30.5,9.23 28.87,7.51 28.87,5.47 C28.87,3.56 30.38,1.72 32.65,1.72 C34.49,1.72 36.38,3.22 36.38,5.48 C36.38,7.56 34.67,9.23 32.63,9.23 Z M32.55,24.75 C30.66,24.75 28.87,23.14 28.87,21.05 C28.87,18.82 30.6,17.25 32.68,17.25 C34.61,17.25 36.37,18.88 36.37,20.97 C36.37,23.03 34.78,24.75 32.55,24.75 Z M32.59,40.2 C30.64,40.2 28.87,38.58 28.87,36.47 C28.87,34.12 30.81,32.7 32.6,32.7 C34.7,32.7 36.37,34.37 36.37,36.42 C36.37,38.46 34.76,40.2 32.59,40.2 Z" fill="none" stroke="currentColor" stroke-width="1.5"/><path d="M23.25,43.8 L23.25,42 L42,42 L42,43.8 Z M23.25,28.35 L23.25,26.47 L42,26.47 L42,28.35 Z M23.25,12.82 L23.25,11.02 L42,11.02 L42,12.82 Z M0,12.82 L0,11.02 L18.75,11.02 L18.75,12.82 Z M0,28.35 L0,26.47 L18.75,26.47 L18.75,28.35 Z M0,43.8 L0,42 L18.75,42 L18.75,43.8 Z" fill="none" stroke="currentColor" stroke-width="1.5"/></svg>