<svg xmlns="http://www.w3.org/2000/svg" viewBox="0 0 49.51 50.34" width="24" height="24"><path d="M29.18,41.34 C28.56,38.46 25.93,35.78 22.05,35.84 L24.15,36.31 L24.14,37.96 C24.64,38.24 25.15,38.77 25.5,39.31 L26.92,38.95 L27.75,41.56 L27.74,43.44 L26.32,43.89 C26.32,44.17 26.32,44.45 26.28,44.63 L26.85,45.18 L26.85,47.19 L24.98,49.21 L23.84,48.16 C22.95,48.68 22.42,48.73 21.67,48.84 L21.37,50.34 L18.67,49.74 L18.68,48.09 C18.19,47.73 17.7,47.28 17.33,46.74 L15.9,47.19 L15.07,44.56 L15.08,42.64 L16.57,42.17 C16.57,41.97 16.58,41.77 16.61,41.55 L15.97,40.96 L15.97,38.86 L17.31,37.42 L15.97,36.91 C15.58,37.49 15.1,38.08 14.65,38.45 L14.7,38.57 L14.7,40.51 L11.7,41.87 L11.02,40.37 C10.07,40.59 9.13,40.58 8.18,40.43 L7.58,42.01 L4.5,40.89 L4.5,38.94 C3.98,38.54 3.41,38.01 2.93,37.37 L1.42,38.03 L0.15,35.21 L0.15,33.08 L1.43,32.51 C1.41,32.15 1.45,31.79 1.5,31.43 L0,30.87 L0,28.97 L1.13,25.89 L2.71,26.42 C3.09,25.79 3.57,25.27 4.04,24.84 L3.97,24.69 L3.98,22.74 L6.98,21.39 L7.65,22.96 C8.62,22.74 9.61,22.73 10.5,22.89 L11.18,21.32 L14.25,22.43 L14.26,24.44 C14.76,24.87 15.26,25.34 15.74,25.97 L17.25,25.29 L18.6,28.29 L18.61,30.16 L17.28,30.85 C17.27,31.25 17.23,31.58 17.18,31.89 L18.68,32.48 L18.68,34.43 L17.76,36.93 L17.85,36.84 L18.97,37.89 C19.72,37.51 20.06,37.34 21.15,37.21 L21.41,35.89 C20.78,35.97 20.29,36.09 19.87,36.24 L19.87,34.6 C20.52,33.26 20.89,31.42 20.82,30.01 C20.45,27.41 19,24.77 16.36,22.83 C14.69,21.65 12.47,20.78 9.83,20.86 L9.83,6.81 C9.83,2.93 13.13,0.01 16.56,0.01 L42.71,0.01 C46.35,0 49.51,2.92 49.51,6.64 L49.51,34.3 C49.51,38.66 46.1,41.34 42.63,41.34 Z" fill="none" stroke="currentColor" stroke-width="1.5"/><path d="M9.83,19.21 C12.65,19.09 15.4,20.2 17.44,22.06 C19.64,24.03 20.85,27.22 20.82,30.01 C20.45,27.42 19.02,24.76 16.36,22.83 C14.67,21.64 12.46,20.77 9.83,20.86 Z M17.1,29.03 L18.6,28.29 L18.61,30.16 L17.28,30.85 C17.31,30.33 17.24,29.61 17.1,29.03 Z M14.25,22.43 L14.26,24.44 C14.05,24.29 13.84,24.13 13.65,24.02 Z M4.04,24.84 L3.97,24.69 L3.98,22.74 L4.65,24.31 C4.45,24.48 4.24,24.65 4.04,24.84 Z M1.5,31.43 L0,30.87 L0,28.97 L1.58,29.57 C1.49,30.19 1.44,30.79 1.5,31.43 Z M1.43,32.51 C1.41,31.96 1.47,31.74 1.5,31.46 C1.55,31.96 1.6,32.13 1.65,32.41 Z M3,35.41 C3.52,36.17 4.38,36.92 5.1,37.36 L4.5,38.94 C3.98,38.54 3.4,38.01 2.93,37.37 L1.42,38.03 L0.15,35.21 L0.15,33.08 L1.5,36.08 Z M14.7,38.57 L14.7,40.51 L11.7,41.87 L11.02,40.37 C10.08,40.59 9.13,40.58 8.18,40.43 L7.58,42.01 L4.5,40.89 L4.5,38.94 L7.58,40.07 L8.18,38.48 C9.04,38.62 10.02,38.66 11.03,38.41 L11.7,39.92 Z M18.68,32.48 L18.68,34.43 L17.76,36.93 L17.31,37.42 L15.97,36.91 C15.58,37.5 15.11,38.08 14.65,38.45 L14.03,37.06 C14.65,36.6 15.25,36.08 15.98,34.97 L17.55,35.56 Z M49.51,32.93 L49.51,34.3 C49.51,38.66 46.09,41.34 42.63,41.34 L29.18,41.34 C28.89,39.82 27.71,37.68 25.41,36.57 C24.41,36.06 23.12,35.81 22.05,35.84 L21.45,35.71 L21.41,35.89 C20.78,35.97 20.29,36.09 19.87,36.24 L19.87,34.6 C21.69,33.97 23.82,34.02 25.8,35.13 C28.02,36.32 29.07,38.76 29.17,39.69 L42.67,39.69 C46.67,39.69 49.51,36.34 49.51,32.93 Z M15.97,40.96 L15.97,38.86 L17.1,39.91 C16.87,40.44 16.69,40.97 16.61,41.55 Z M26.85,45.18 L26.85,47.19 L24.98,49.21 L23.84,48.16 C22.94,48.67 22.5,48.72 21.67,48.84 L21.37,50.34 L18.67,49.74 L18.68,48.09 C18.19,47.74 17.7,47.28 17.33,46.74 L15.9,47.19 L15.07,44.56 L15.08,42.64 L15.97,45.24 L17.4,44.79 C17.92,45.57 18.46,46.03 19.05,46.29 L18.75,47.79 L21.45,48.39 L21.75,46.89 C22.72,46.76 23.09,46.67 23.92,46.21 L25.05,47.26 Z M23.85,37.8 L24.15,36.31 L24.14,37.96 Z M27.75,41.56 L27.74,43.44 L26.32,43.89 C26.32,44.16 26.33,44.45 26.28,44.63 L25.8,44.18 C26.1,43.63 26.31,42.95 26.32,42.01 Z" fill="none" stroke="currentColor" stroke-width="1.5"/><rect x="0" y="0" width="0" height="0" fill="none" stroke="currentColor"/><path d="M26.85,16.07 L26.85,5.48 L36.15,5.48 L36.15,2.49 L44.47,10.82 L36.15,19.07 L36.15,16.07 Z M13.57,16.07 L13.57,5.48 L23.92,5.48 L23.92,16.07 Z M29.7,23.22 L39.07,23.22 L39.07,20.18 L47.32,28.52 L39.07,36.77 L39.07,33.77 L29.7,33.77 Z M26.78,33.77 L20.23,33.77 C20.49,32.96 20.9,31.51 20.82,30.01 C20.79,28.43 20.62,26.12 18.56,23.22 L26.78,23.22 Z M20.1,42.09 C20.1,41.27 20.77,40.73 21.44,40.73 C22.28,40.73 22.8,41.42 22.8,42.09 C22.8,42.65 22.38,43.44 21.4,43.44 C20.75,43.44 20.1,42.86 20.1,42.09 Z M9.4,32.86 C8.23,32.86 7.27,31.94 7.27,30.74 C7.27,29.64 8.18,28.66 9.41,28.66 C10.45,28.66 11.47,29.53 11.47,30.77 C11.47,31.92 10.53,32.86 9.4,32.86 Z" fill="none" stroke="currentColor" stroke-width="1.5"/></svg>