<svg xmlns="http://www.w3.org/2000/svg" viewBox="0 0 43.43 45.29" width="24" height="24"><path d="M34.37,45.29 C31.16,45.29 28.42,44.13 26.69,41.42 C25.46,39.43 25.08,37.21 25.12,34.79 C25.12,33.36 25.38,31.99 26.07,30.59 C27.54,27.7 30.44,25.49 34.38,25.49 C37.32,25.49 40.56,27.17 42.18,30.05 C42.88,31.32 43.43,32.7 43.43,34.81 C43.43,40.6 40.33,45.29 34.37,45.29 Z M25.57,42.67 L3.7,42.67 C1.53,42.67 0,40.92 0,38.66 L0,3.54 C0,1.81 1.55,0 3.71,0 L36.45,0 C38.51,0 39.83,1.63 39.83,3.7 L39.83,25.42 C37.06,24.07 33.47,23.16 29.71,24.68 C26.22,26.11 23.99,29.06 23.11,31.23 C21.75,36.36 23.56,40.41 25.57,42.67 Z" fill="none" stroke="currentColor" stroke-width="1.5"/><path d="M31.42,39.82 L31.42,30.15 L32.7,30.15 L32.7,34.95 L37.57,30.15 L39.22,30.15 L35.17,34.05 L39.37,39.82 L37.72,39.82 L34.27,34.95 L32.7,36.45 L32.7,39.82 Z" fill="none" stroke="currentColor" stroke-width="1.5"/><path d="M39.83,25.42 C37.06,24.06 33.47,23.15 29.71,24.68 C26.22,26.12 23.98,29.05 23.11,31.23 C24.06,28.04 26.43,24.33 31.33,22.73 C33.98,21.92 37.11,21.99 39.83,23.25 Z M43.43,34.81 C43.43,40.57 40.29,45.29 34.37,45.29 C31.16,45.29 28.42,44.13 26.69,41.42 C25.45,39.42 25.09,37.21 25.12,34.79 C25.12,38.24 27.25,41.17 29.58,42.51 C32.48,44.23 35.84,44.11 38.37,42.83 C41.53,41.23 43.43,37.98 43.43,34.81 Z M25.57,42.67 L3.7,42.67 C1.53,42.67 0,40.9 0,38.66 L0,37 C0,38.71 1.56,40.5 3.63,40.5 L24.06,40.5 C24.54,41.36 25.04,42.08 25.57,42.67 Z" fill="none" stroke="currentColor" stroke-width="1.5"/></svg>