<svg xmlns="http://www.w3.org/2000/svg" viewBox="0 0 51.15 61.76" width="24" height="24"><path d="M33.22,21.62 L37.87,21 L43.99,28.49 L43.99,19.65 L33.22,16.82 Z M33.22,44.99 L43.99,42.1 L43.99,33.39 L37.87,40.82 L33.22,40.18 Z M25.57,61.76 L17.92,57.97 L17.92,52.97 L11.93,54.94 L7.2,52.57 L7.2,49.68 L3.22,50.62 L0,48.97 L0,12.83 L3.22,11.17 L7.2,12.11 L7.2,9.23 L11.93,6.82 L17.92,8.74 L17.92,3.82 L25.57,0 L51.15,12.82 L51.15,48.89 Z" fill="none" stroke="currentColor" stroke-width="1.5"/><path d="M43.99,42.1 L43.99,33.39 L45.98,30.89 L43.99,28.49 L43.99,19.65 L47.84,19.13 L47.84,42.68 Z M33.22,40.18 L33.22,21.62 L37.87,21 L37.87,40.82 Z M17.92,57.97 L17.92,3.82 L25.57,0 L25.57,61.76 Z M7.2,52.57 L7.2,9.23 L11.93,6.82 L11.93,54.94 Z M0,48.97 L0,12.83 L3.22,11.17 L3.22,50.62 Z" fill="none" stroke="currentColor" stroke-width="1.5"/><path d="M33.22,16.82 L33.22,14.69 L47.84,19.13 L43.99,19.65 Z" fill="none" stroke="currentColor" stroke-width="1.5"/><path d="M33.22,44.99 L43.99,42.1 L47.84,42.68 L47.84,42.68 L33.22,47.18 Z" fill="none" stroke="currentColor" stroke-width="1.5"/></svg>