<svg xmlns="http://www.w3.org/2000/svg" viewBox="0 0 51.0 53.97" width="24" height="24"><path d="M33.23,53.87 L17.91,53.97 L0,45.01 L0,8.93 L17.86,0 L33.18,0 L51,8.94 L51,45.01 Z" fill="none" stroke="currentColor" stroke-width="1.5"/><path d="M32.29,21.48 L32.29,17.33 L47.7,15.16 L47.7,23.02 Z M17.91,53.97 L0,45.01 L0,8.93 L17.86,0 L25.49,8.49 L9.44,13.31 L9.44,8.76 L3.24,19.09 L9.44,27.02 L9.44,22.41 L25.49,20.8 L25.49,33.18 L3.24,30.94 L3.24,38.72 L25.49,45.38 Z" fill="none" stroke="currentColor" stroke-width="1.5"/><path d="M47.76,34.83 L27.73,32.95 L41.71,31.54 L41.71,27 Z M32.29,17.33 L9.44,13.31 L25.49,8.49 L47.7,15.16 Z" fill="none" stroke="currentColor" stroke-width="1.5"/><path d="M9.44,27.02 L3.24,19.09 L23.51,21 L9.44,22.41 Z M25.49,45.38 L3.24,38.72 L18.83,36.53 L41.71,40.53 Z" fill="none" stroke="currentColor" stroke-width="1.5"/><path d="M33.23,53.87 L25.49,45.38 L41.71,40.53 L41.71,45.09 L47.76,34.83 L41.71,27 L41.71,31.54 L25.49,33.18 L25.49,20.8 L47.7,23.02 L47.7,15.16 L25.49,8.49 L33.18,0 L51,8.94 L51,45.01 Z M3.24,38.72 L3.24,30.94 L18.83,32.5 L18.83,36.53 Z" fill="none" stroke="currentColor" stroke-width="1.5"/></svg>