<svg xmlns="http://www.w3.org/2000/svg" viewBox="0 0 39.75 31.81" width="24" height="24"><path d="M39.75,27.18 C39.75,29.65 37.65,31.81 35.14,31.81 L4.7,31.81 C1.88,31.81 0,29.45 0,27.26 L0,4.57 C0,1.94 2.27,0 4.51,0 L35.26,0 C37.55,0 39.75,2.07 39.75,4.57 Z" fill="none" stroke="currentColor" stroke-width="1.5"/><path d="M6.78,22.43 C7.94,22.43 8.7,21.53 8.7,20.54 C8.7,19.38 7.71,18.68 6.86,18.68 C5.58,18.68 4.95,19.73 4.95,20.5 C4.95,21.76 5.98,22.43 6.78,22.43 Z M30.22,23.55 L16.44,23.55 C15.33,25.93 12.89,27.68 9.94,27.68 C6.32,27.68 2.81,24.77 2.85,20.41 C2.85,16.62 6.11,13.42 10,13.42 C13.06,13.42 15.4,15.34 16.4,17.47 L20.63,17.47 L21.37,18.82 L24.15,18.52 L25.27,19.65 L26.26,19.87 L28.81,18.3 L31.95,20.77 Z M39.75,25.25 L39.75,27.18 C39.75,29.65 37.66,31.81 35.14,31.81 L4.7,31.81 C1.88,31.81 0,29.45 0,27.26 L0,25.31 C0,27.89 2.16,29.93 4.64,29.93 L35.2,29.93 C37.42,29.93 39.75,28.02 39.75,25.25 Z" fill="none" stroke="currentColor" stroke-width="1.5"/><rect x="0" y="0" width="0" height="0" fill="none" stroke="currentColor"/><path d="M32.91,11.4 C33.8,11.4 34.8,10.73 34.8,9.49 C34.8,8.58 34.03,7.65 32.93,7.65 C31.91,7.65 31.05,8.48 31.05,9.49 C31.05,10.7 32.02,11.4 32.91,11.4 Z M10.95,11.77 L7.8,9.3 L9.53,6.52 L23.31,6.52 C24.25,4.52 26.41,2.37 30.06,2.41 C32.94,2.41 36.9,4.88 36.9,9.69 C36.9,13.07 33.92,16.64 29.89,16.64 C26.7,16.64 24.38,14.78 23.35,12.6 L19.13,12.6 L18.38,11.25 L15.6,11.55 L14.48,10.42 L13.51,10.2 Z" fill="none" stroke="currentColor" stroke-width="1.5"/></svg>