<svg xmlns="http://www.w3.org/2000/svg" viewBox="0 0 51.02 61.5" width="24" height="24"><path d="M51.02,21.8 L25.51,24.41 L0,21.8 L0,12.75 L25.51,0 L51.02,12.76 Z M51.02,36.76 L42.55,38.18 L38.26,37.77 L38.26,38.91 L25.51,41.04 L12.75,38.9 L12.75,37.77 L8.47,38.19 L0,36.77 L0,27.71 L8.47,27.01 L12.75,27.2 L12.75,26.65 L25.51,25.62 L38.26,26.66 L38.26,27.21 L42.55,27.01 L51.02,27.71 Z M25.51,61.5 L16.23,56.86 L16.23,53.98 L12.75,55.12 L6.73,52.11 L6.73,50.22 L4.18,50.83 L0,48.75 L0,39.7 L8.01,38.87 L12.75,39.76 L12.75,40.58 L15.65,40.19 L21.94,41.35 L21.94,42.69 L25.51,42.03 L29.08,42.69 L29.08,41.34 L35.37,40.19 L38.26,40.57 L38.26,39.76 L42.99,38.88 L51.02,39.69 L51.02,48.75 L46.83,50.83 L44.28,50.21 L44.28,52.11 L38.26,55.12 L34.79,53.99 L34.79,56.86 Z" fill="none" stroke="currentColor" stroke-width="1.5"/><path d="M25.51,15.45 L0,21.8 L0,12.75 L25.51,0 Z M38.26,37.77 L38.26,27.21 L42.55,27.01 L42.55,38.18 Z M12.75,38.9 L12.75,26.65 L25.51,25.62 L25.51,41.04 Z M8.47,38.19 L0,36.77 L0,27.71 L8.47,27.01 Z M4.18,50.83 L0,48.75 L0,39.7 L4.18,40.77 Z M12.75,55.12 L6.73,52.11 L6.73,41.38 L12.75,42.86 Z M25.51,61.5 L16.23,56.86 L16.23,43.74 L25.51,46.05 Z M38.26,55.12 L34.79,53.99 L34.79,43.74 L29.08,42.69 L29.08,41.34 L38.26,42.86 Z M46.83,50.83 L44.28,50.21 L44.28,41.37 L38.26,40.57 L38.26,39.76 L46.83,40.77 Z" fill="none" stroke="currentColor" stroke-width="1.5"/><path d="M25.51,24.41 L0,21.8 L25.51,15.45 L51.02,21.8 Z" fill="none" stroke="currentColor" stroke-width="1.5"/><path d="M38.26,39.76 L42.99,38.88 L51.02,39.69 L46.83,40.77 Z M29.08,41.34 L35.37,40.19 L44.28,41.37 L38.26,42.86 Z M16.23,43.74 L25.51,42.03 L34.79,43.74 L25.51,46.05 Z M6.73,41.38 L15.65,40.19 L21.94,41.35 L12.75,42.86 Z M4.18,40.77 L0,39.7 L8.01,38.87 L12.75,39.76 Z" fill="none" stroke="currentColor" stroke-width="1.5"/></svg>