<svg xmlns="http://www.w3.org/2000/svg" viewBox="0 0 89.23 36.29" width="24" height="24"><path d="M60.06,14.35 L85.96,34.18 C86.41,34.5 86.89,34.46 87.2,34.11 C87.42,33.8 87.4,33.49 87.03,32.83 L70.14,3.03 C69.7,2.18 69.19,1.66 68.3,1.68 C67.57,1.71 67.14,1.94 66.59,3 Z M38.19,26.59 L41.6,32.61 C42.58,34.03 43.73,34.54 45.03,34.32 C46.86,34.22 47.41,33.36 48.29,31.78 L58,14.8 L53.74,11.63 C52.57,10.92 51.16,10.76 49.79,10.97 C48.41,11.29 47.67,11.65 46.33,13.14 Z M36.33,26.53 L22.9,2.93 C22.53,2.25 21.92,1.59 21.26,1.62 C20.12,1.77 19.87,2.12 19.5,2.78 L1.97,33.55 C1.79,33.86 1.78,34.09 1.91,34.24 C2.14,34.43 2.42,34.36 2.57,34.24 L19.03,19.74 C19.8,19.1 20.32,18.98 21.15,19.13 C22.15,19.32 22.68,19.98 23.13,20.85 L30.09,33.68 C30.36,34.19 30.63,34.38 31.02,34.38 C31.41,34.39 31.59,34.11 31.9,33.61 Z M3.42,35.62 C2.63,36.29 1.45,36.12 0.83,35.53 C0.3,35.04 0,33.85 0.34,33.13 L18.22,1.79 C18.68,0.89 19.9,0 21.29,0 C22.2,0 23.39,0.66 23.87,1.47 L37.25,24.88 L44.73,12.65 C45.86,10.74 48.24,9.48 50.16,9.2 C51.68,8.97 53.83,9.7 55.23,10.65 L58.78,13.41 L65.29,1.9 C66.07,0.68 67.3,0 68.32,0 C69.28,0 70.7,0.8 71.29,1.89 L88.81,32.57 C89.23,33.35 89.07,34.67 88.17,35.47 C87.34,36.14 86.23,36.21 85.33,35.73 L59.31,15.86 L49.39,33.19 C48.48,34.77 46.88,35.91 44.89,36.09 C43.38,36.13 41.15,35.07 40.29,33.59 L37.18,28.06 L33.37,34.4 C32.95,35.16 32.05,36.08 30.85,36.08 C30.15,36.08 29.21,35.46 28.7,34.48 L21.77,21.71 C21.49,21.2 21.33,20.79 20.82,20.64 C20.46,20.55 20.17,20.84 19.67,21.32 Z" fill="none" stroke="currentColor" stroke-width="1.5"/></svg>