<svg xmlns="http://www.w3.org/2000/svg" viewBox="0 0 94.41 99.57" width="24" height="24"><path d="M38.22,99.57 L38.22,92.32 C33.59,91.2 29.26,89.37 25.18,86.82 L20.1,92.04 L7.51,79.44 L7.47,74.46 L10.82,71.02 C9.45,68.3 8.18,65.39 7.24,61.23 L0,61.19 L0,38.37 L7.28,38.41 C7.78,35.51 8.78,32.71 10.72,28.53 L7.5,25.22 L7.43,20.22 L20.09,7.55 L25.27,12.72 C27.83,10.85 33.2,8.49 38.32,7.25 L38.32,0 L56.12,0 L56.12,7.23 C60.96,8.54 65.47,10.21 69.19,12.68 L74.28,7.46 L86.86,20.19 L86.86,25.25 L83.56,28.57 C85.1,31.47 86.53,35.25 87.16,38.37 L94.41,38.38 L94.41,61.19 L87.19,61.21 C86.47,64.66 84.96,68.62 83.63,71.01 L86.96,74.42 L86.85,79.5 L74.3,92.05 L69.14,86.89 C65.99,88.95 60.45,91.44 56.11,92.33 L56.11,99.57 Z" fill="none" stroke="currentColor" stroke-width="1.5"/><path d="M86.96,74.42 L86.85,79.5 L74.3,92.05 L69.14,86.89 C65.99,88.94 60.44,91.41 56.11,92.33 L56.11,87.27 C60.9,86.45 65.96,83.86 69.17,81.93 L74.32,87.13 Z M87.25,56.21 L94.41,56.3 L94.41,61.19 L87.19,61.21 C86.53,64.24 84.96,68.72 83.63,71.01 L81.89,69.23 C83.94,65.82 85.86,62.09 87.25,56.21 Z M81.83,25.34 L86.86,20.19 L86.86,25.25 L83.56,28.56 Z M10.72,28.53 L7.5,25.22 L7.43,20.22 L12.46,25.27 Z M12.44,69.21 L10.82,71.02 C9.47,68.3 8.18,65.39 7.24,61.23 L0,61.19 L0,56.28 L7.14,56.33 C8.1,61.02 10.46,65.74 12.44,69.21 Z M38.22,92.32 C33.6,91.19 29.26,89.36 25.18,86.82 L20.1,92.04 L7.51,79.44 L7.47,74.46 L20.05,87.16 L25.24,81.85 C28.66,84.3 33.77,86.33 38.22,87.36 Z M56.11,94.61 L56.11,99.57 L38.22,99.57 L38.22,94.61 Z" fill="none" stroke="currentColor" stroke-width="1.5"/><path d="M74.93,47.26 C74.93,41.29 73.02,33.75 66.76,27.51 C61.63,22.55 54.49,19.41 47.2,19.41 L47.2,12.31 C56.19,12.31 64.16,14.92 72.05,22.58 C79.24,29.74 82.2,38.93 82.2,47.26 Z" fill="none" stroke="currentColor" stroke-width="1.5"/><path d="M82.2,47.26 C82.2,66.81 66.07,82.25 47.2,82.25 C27.54,82.25 12.24,66.15 12.24,47.26 C12.24,27.94 28.02,12.31 47.2,12.31 L47.2,19.41 C32.41,19.41 19.35,31.74 19.35,47.26 C19.35,63.01 32.36,75.05 47.2,75.05 C61.66,75.05 74.93,63.4 74.93,47.26 Z" fill="none" stroke="currentColor" stroke-width="1.5"/><rect x="0" y="0" width="0" height="0" fill="none" stroke="currentColor"/><path d="M63.55,50.84 L63.55,43.69 L50.8,43.69 L50.8,25.44 L43.63,25.42 L43.63,50.84 Z M74.93,47.26 C74.93,63.4 61.64,75.05 47.2,75.05 C32.39,75.05 19.35,62.96 19.35,47.26 C19.35,31.76 32.36,19.41 47.2,19.41 C54.48,19.41 61.59,22.56 66.76,27.51 C73,33.75 74.93,41.26 74.93,47.26 Z" fill="none" stroke="currentColor" stroke-width="1.5"/></svg>