<svg xmlns="http://www.w3.org/2000/svg" viewBox="0 0 39.75 41.55" width="24" height="24"><path d="M6.84,41.55 C2.92,41.55 0,38.23 0,34.89 L0,6.66 C0,3.1 3.17,0 6.69,0 L32.95,0 C36.63,0 39.75,2.99 39.75,6.88 L39.75,34.84 C39.75,38.39 36.78,41.55 32.98,41.55 Z" fill="none" stroke="currentColor" stroke-width="1.5"/><path d="M0,33.17 C0,36.01 2.51,39.75 6.86,39.75 L32.95,39.75 C37,39.75 39.75,36.37 39.75,32.93 L39.75,34.84 C39.75,38.4 36.78,41.55 32.98,41.55 L6.84,41.55 C2.91,41.55 0,38.24 0,34.89 Z" fill="none" stroke="currentColor" stroke-width="1.5"/><rect x="0" y="0" width="0" height="0" fill="none" stroke="currentColor"/><path d="M13.13,25.87 L16.12,25.87 L16.12,18.45 L18.83,25.87 L20.92,25.87 L23.62,18.45 L23.62,25.87 L26.62,25.87 L26.62,13.88 L22.65,13.88 L19.95,22.13 L17.02,13.88 L13.13,13.88 Z M9.37,34.13 L9.37,30.37 L5.62,30.37 L5.62,27.37 L9.37,27.37 L9.37,25.88 L5.62,25.88 L5.62,22.87 L9.37,22.87 L9.37,21.38 L5.62,21.38 L5.62,18.37 L9.37,18.37 L9.37,16.87 L5.62,16.88 L5.62,13.87 L9.37,13.87 L9.37,12.37 L5.62,12.37 L5.62,9.37 L9.37,9.37 L9.37,5.62 L12.37,5.62 L12.37,9.37 L13.87,9.37 L13.87,5.62 L16.87,5.62 L16.87,9.37 L18.37,9.37 L18.37,5.62 L21.37,5.62 L21.37,9.37 L22.87,9.37 L22.87,5.62 L25.87,5.62 L25.87,9.37 L27.37,9.37 L27.37,5.62 L30.37,5.62 L30.37,9.37 L34.12,9.37 L34.12,12.37 L30.37,12.37 L30.37,13.87 L34.12,13.87 L34.12,16.87 L30.37,16.87 L30.37,18.37 L34.12,18.37 L34.12,21.38 L30.37,21.38 L30.37,22.87 L34.12,22.87 L34.12,25.88 L30.37,25.88 L30.37,27.37 L34.12,27.37 L34.12,30.37 L30.37,30.37 L30.37,34.12 L27.37,34.13 L27.37,30.37 L25.87,30.37 L25.87,34.12 L22.87,34.12 L22.87,30.37 L21.37,30.37 L21.37,34.13 L18.37,34.13 L18.37,30.37 L16.87,30.37 L16.87,34.12 L13.87,34.13 L13.87,30.37 L12.37,30.37 L12.37,34.12 Z" fill="none" stroke="currentColor" stroke-width="1.5"/></svg>