<svg xmlns="http://www.w3.org/2000/svg" viewBox="0 0 75.9 81.0" width="24" height="24"><path d="M50.7,10.3 C50.12,10.87 48.59,12.21 46.09,12.21 C43.17,12.21 40.1,9.88 40.1,5.99 C40.1,2.76 42.83,0 46.17,0 C49.55,0 52.3,2.63 52.3,6.13 C52.3,6.81 52.17,7.38 52,7.9 L65.3,15.6 C66.91,14.16 68.37,13.72 69.78,13.7 C73.3,13.7 75.9,16.44 75.9,19.88 C75.9,22.43 74.15,25.04 71.2,25.7 L71.2,41.01 C74.12,41.69 75.89,44.26 75.89,46.89 C75.89,50.59 72.94,53 69.85,53 C66.33,53 63.7,50.32 63.7,46.8 C63.7,44.24 65.5,41.66 68.4,41.01 L68.4,25.59 C65.43,25.02 62.8,21.64 64,17.9 Z M7.5,41.1 C10.04,41.67 12.2,43.89 12.2,47.05 C12.2,50.18 9.72,53.1 6.08,53.1 C2.95,53.1 0,50.65 0,46.93 C0,44.52 1.57,41.86 4.7,41.1 L4.7,25.7 C2.06,25.1 0,22.78 0,19.78 C0,16.31 2.77,13.63 6.33,13.7 C8.21,13.75 9.67,14.57 10.61,15.61 L24.01,7.9 C23.78,7.17 23.61,6.49 23.76,5.25 C24.16,2.34 26.58,0 29.92,0 C32.81,0 35.9,2.36 35.9,6.18 C35.9,8.97 33.71,12.29 29.52,12.19 C27.69,12.11 26.21,11.33 25.31,10.29 L11.9,18 C12.09,18.56 12.2,19.17 12.2,19.83 C12.16,22.53 10.43,25.04 7.5,25.7 Z M43.7,73.1 C44.02,74.03 44.05,74.91 43.94,75.77 C43.49,78.67 41.19,81 37.8,81 C35.18,81 32.3,79.07 31.85,75.68 C31.73,74.75 31.84,73.9 32.1,73.1 L18.7,65.4 C17.99,66.1 16.48,67.3 14.17,67.3 C11.03,67.3 8.1,64.81 8.1,61.21 C8.1,57.73 10.88,55.1 14.19,55.1 C17.53,55.1 20.18,57.7 20.3,60.98 C20.33,61.94 20.15,62.54 20,63 L33.4,70.7 C34.59,69.56 36.13,68.77 38.06,68.8 C39.13,68.8 41.04,69.2 42.41,70.7 L55.5,63.2 C55.21,62.33 55.13,61.3 55.26,60.34 C55.68,57.34 58.21,55.1 61.3,55.1 C64.73,55.1 67.4,58.02 67.4,61.21 C67.4,64.44 64.86,67.3 61.27,67.3 C59.53,67.3 58.01,66.52 57,65.5 Z" fill="none" stroke="currentColor" stroke-width="1.5"/><path d="M54.4,42 L38,25.6 L21.61,42 L16.31,36.6 L38,14.9 L59.7,36.61 Z" fill="none" stroke="currentColor" stroke-width="1.5"/><path d="M51.2,51.6 L38,38.4 L24.8,51.6 L19.51,46.2 L38,27.7 L56.5,46.2 Z" fill="none" stroke="currentColor" stroke-width="1.5"/><path d="M52.6,55.1 L47.3,60.4 L38,51.2 L28.7,60.39 L23.41,55.1 L38.01,40.5 Z" fill="none" stroke="currentColor" stroke-width="1.5"/></svg>