<svg xmlns="http://www.w3.org/2000/svg" viewBox="0 0 22.25 53.57" width="24" height="24"><path d="M22.25,53.57 L0,53.57 L0,17.13 L2.08,17.13 L2.08,0 L20.16,0 L20.16,17.13 L22.25,17.13 Z" fill="none" stroke="currentColor" stroke-width="1.5"/><path d="M22.25,53.57 L0,53.57 L0,51.71 L22.25,51.71 Z" fill="none" stroke="currentColor" stroke-width="1.5"/><rect x="0" y="0" width="0" height="0" fill="none" stroke="currentColor"/><path d="M16.54,5.98 L14.03,5.98 L14.03,3.47 L16.54,3.47 Z M12.36,5.98 L9.86,5.98 L9.86,3.47 L12.36,3.47 Z M8.19,5.98 L5.69,5.98 L5.69,3.47 L8.19,3.47 Z M16.54,10.29 L14.03,10.29 L14.03,7.79 L16.54,7.79 Z M12.36,10.29 L9.86,10.29 L9.86,7.79 L12.36,7.79 Z M8.19,10.29 L5.69,10.29 L5.69,7.79 L8.19,7.79 Z M16.54,14.61 L14.03,14.61 L14.03,12.1 L16.54,12.1 Z M12.36,14.61 L9.86,14.61 L9.86,12.1 L12.36,12.1 Z M8.19,14.61 L5.69,14.61 L5.69,12.1 L8.19,12.1 Z M6.11,22.72 L3.61,22.72 L3.61,20.21 L6.11,20.21 Z M10.29,22.72 L7.78,22.72 L7.78,20.21 L10.29,20.21 Z M14.46,22.72 L11.95,22.72 L11.95,20.21 L14.46,20.21 Z M18.63,22.72 L16.12,22.72 L16.12,20.21 L18.63,20.21 Z M6.11,27.04 L3.61,27.04 L3.61,24.53 L6.11,24.53 Z M10.29,27.04 L7.78,27.04 L7.78,24.53 L10.29,24.53 Z M14.46,27.04 L11.95,27.04 L11.95,24.53 L14.46,24.53 Z M18.63,27.04 L16.12,27.04 L16.12,24.53 L18.63,24.53 Z M6.11,31.36 L3.61,31.36 L3.61,28.85 L6.11,28.85 Z M10.29,31.36 L7.78,31.36 L7.78,28.85 L10.29,28.85 Z M14.46,31.36 L11.95,31.36 L11.95,28.85 L14.46,28.85 Z M18.63,31.36 L16.12,31.36 L16.12,28.85 L18.63,28.85 Z M6.11,35.68 L3.61,35.68 L3.61,33.17 L6.11,33.17 Z M10.29,35.68 L7.78,35.68 L7.78,33.17 L10.29,33.17 Z M14.46,35.68 L11.95,35.68 L11.95,33.17 L14.46,33.17 Z M18.63,35.68 L16.12,35.68 L16.12,33.17 L18.63,33.17 Z M6.11,40 L3.61,40 L3.61,37.5 L6.11,37.5 Z M10.29,40 L7.78,40 L7.78,37.5 L10.29,37.5 Z M14.46,40 L11.95,40 L11.95,37.5 L14.46,37.5 Z M18.63,40 L16.12,40 L16.12,37.5 L18.63,37.5 Z M6.11,44.32 L3.61,44.32 L3.61,41.82 L6.11,41.82 Z M10.29,44.32 L7.78,44.32 L7.78,41.82 L10.29,41.82 Z M14.46,44.32 L11.95,44.32 L11.95,41.82 L14.46,41.82 Z M18.63,44.32 L16.12,44.32 L16.12,41.82 L18.63,41.82 Z M6.11,48.64 L3.61,48.64 L3.61,46.14 L6.11,46.14 Z M10.29,48.64 L7.78,48.64 L7.78,46.14 L10.29,46.14 Z M14.46,48.64 L11.95,48.64 L11.95,46.14 L14.46,46.14 Z M18.63,48.64 L16.12,48.64 L16.12,46.14 L18.63,46.14 Z" fill="none" stroke="currentColor" stroke-width="1.5"/></svg>