<svg xmlns="http://www.w3.org/2000/svg" viewBox="0 0 51.16 61.65" width="24" height="24"><path d="M25.57,61.65 L12,54.89 L10.81,51.45 L7.12,52.41 L0,48.89 L0,30.82 L3.7,30.82 L0,20.09 L0,12.74 L7.27,9.14 L14.52,11.1 L12.07,6.74 L25.57,0 L39.07,6.75 L36.63,11.1 L43.87,9.14 L51.16,12.75 L51.16,20.08 L47.46,30.82 L51.16,30.82 L51.16,48.88 L44.02,52.41 L40.34,51.45 L39.15,54.89 Z" fill="none" stroke="currentColor" stroke-width="1.5"/><path d="M40.34,51.45 L47.46,30.82 L51.16,30.82 L44.02,52.41 Z M25.57,30.81 L12.07,6.74 L25.57,0 Z M25.57,43.42 L25.57,30.81 L36.63,11.1 L43.87,9.14 Z M12,54.89 L0,20.09 L0,12.74 L7.27,9.14 L25.57,43.42 L25.57,61.65 Z M7.12,52.41 L0,48.89 L0,30.82 Z" fill="none" stroke="currentColor" stroke-width="1.5"/></svg>