<svg xmlns="http://www.w3.org/2000/svg" viewBox="0 0 50.95 61.5" width="24" height="24"><path d="M50.95,48.77 L44.48,52 L36.24,49.82 L36.24,56.11 L25.47,61.5 L14.7,56.11 L14.7,49.82 L6.47,52 L0,48.77 L0,35.54 L6.47,35.18 L6.47,22.27 L14.7,20.62 L14.7,5.39 L25.47,0 L36.24,5.39 L36.24,20.62 L44.48,22.26 L44.48,35.18 L50.95,35.54 Z" fill="none" stroke="currentColor" stroke-width="1.5"/><path d="M25.47,18.48 L14.7,20.62 L14.7,5.39 L25.47,0 Z M25.47,36.47 L25.47,22.13 L36.24,20.62 L36.24,37.48 Z M14.7,37.49 L6.47,36.39 L6.47,22.27 L14.7,20.62 Z M6.47,52 L0,48.77 L0,35.54 L6.47,36.39 Z M25.47,61.5 L14.7,56.11 L14.7,37.49 L25.47,38.91 Z M44.48,52 L36.24,49.82 L36.24,37.48 L44.48,36.39 Z" fill="none" stroke="currentColor" stroke-width="1.5"/><path d="M6.47,36.39 L0,35.54 L6.47,35.18 Z M36.24,37.48 L25.47,38.91 L14.7,37.49 L25.47,36.47 Z M50.95,35.54 L44.48,36.39 L44.48,35.18 Z" fill="none" stroke="currentColor" stroke-width="1.5"/><path d="M25.47,22.13 L14.7,20.62 L25.47,18.48 L36.24,20.62 Z" fill="none" stroke="currentColor" stroke-width="1.5"/></svg>