<svg xmlns="http://www.w3.org/2000/svg" viewBox="0 0 50.36 68.59" width="24" height="24"><path d="M33.36,56.16 L35.07,56.16 L35.09,51.97 C35.09,50.47 35.73,49.13 36.83,47.79 C35.24,49.02 33.63,50.55 33.37,53.98 Z M38.04,56.16 L44.34,56.16 L44.34,53.76 C44.29,52.47 43.43,50.84 41.28,50.83 C39.45,50.79 38.34,51.67 38.04,53.31 Z M31.96,68.59 L31.91,56.84 L0,56.84 L0,10.52 L40.25,10.52 L40.25,46.13 C42.08,45.97 43.59,46.35 44.87,47.33 C46.45,48.56 47.25,50.43 47.25,51.61 L47.25,56.16 L50.36,56.16 L50.36,68.59 Z M0.51,7.63 L0.51,5.52 L6.46,0 L33.88,0 L39.34,5.52 L39.34,7.63 Z" fill="none" stroke="currentColor" stroke-width="1.5"/><path d="M13.19,27.44 L13.19,24.5 L27.07,24.5 L27.07,27.44 Z M13.19,33.84 L13.19,30.91 L27.07,30.91 L27.07,33.84 Z M13.19,40.27 L13.19,37.33 L27.07,37.33 L27.07,40.27 Z M10.81,43.73 L29.5,43.73 L29.5,21.05 L10.81,21.05 Z M7.87,46.59 L7.87,18.08 L32.42,18.08 L32.42,46.59 Z" fill="none" stroke="currentColor" stroke-width="1.5"/><path d="M31.96,68.59 L31.96,66.42 L50.36,66.42 L50.36,68.59 Z M38.04,53.31 L38.04,51.49 C38.04,50.04 39.29,48.66 41.19,48.66 C43.22,48.66 44.34,50.21 44.34,51.57 L44.34,53.76 C44.29,52.47 43.43,50.84 41.28,50.83 C39.45,50.8 38.35,51.68 38.04,53.31 Z M40.25,46.13 C39.02,46.27 37.83,46.86 36.83,47.79 C35.24,49.02 33.64,50.56 33.37,53.98 C33.09,49.91 34.49,47.87 35.37,46.94 C37.28,44.97 39.03,44.55 40.25,44.44 Z M0,56.84 L0,54.79 L33.38,54.79 L33.36,56.16 L31.91,56.16 L31.91,56.84 Z M0.51,7.63 L0.51,5.52 L39.34,5.52 L39.34,7.63 Z" fill="none" stroke="currentColor" stroke-width="1.5"/></svg>