<svg xmlns="http://www.w3.org/2000/svg" viewBox="0 0 57.73 60.42" width="24" height="24"><path d="M33.68,58.29 L25.35,52.5 L25.35,60.42 L22.71,60.42 L22.71,50.66 L19.28,48.28 L19.28,56.2 L16.64,56.2 L16.64,46.45 L13.21,44.06 L13.21,51.97 L10.57,51.97 L10.57,42.22 L2.03,36.28 L3.21,34.59 L2.03,33.77 L6.1,27.94 L0,27.94 L0,22.81 L9.67,22.81 L10.33,21.85 L4.17,21.85 L4.17,16.74 L13.9,16.74 L14.56,15.79 L8.33,15.79 L8.33,10.67 L18.11,10.67 L24.07,2.14 L32.38,7.92 L32.38,0 L35.03,0 L35.03,9.77 L38.46,12.15 L38.46,4.26 L41.1,4.26 L41.1,14 L44.53,16.38 L44.53,8.53 L47.17,8.53 L47.17,18.22 L55.71,24.17 L54.54,25.85 L55.68,26.63 L51.62,32.48 L57.73,32.48 L57.73,37.6 L48.06,37.6 L47.4,38.55 L53.57,38.55 L53.57,43.67 L43.84,43.67 L43.17,44.62 L49.4,44.62 L49.4,49.75 L39.61,49.75 Z" fill="none" stroke="currentColor" stroke-width="1.5"/><path d="M53.57,41.2 L53.57,43.67 L43.84,43.67 L43.17,44.62 L41.48,44.62 L43.84,41.2 Z M47.4,38.55 L45.68,38.55 L48.05,35.13 L57.73,35.13 L57.73,37.6 L48.06,37.6 Z M49.92,32.48 L54.54,25.85 L55.68,26.63 L51.62,32.48 Z M14.56,15.79 L8.33,15.79 L8.33,13.31 L16.27,13.31 Z M10.33,21.85 L4.17,21.85 L4.17,19.38 L12.06,19.38 Z M6.1,27.94 L0,27.94 L0,25.45 L7.83,25.45 Z M10.57,42.22 L2.03,36.28 L3.21,34.59 L10.57,39.7 Z M16.64,46.45 L13.21,44.06 L13.21,41.51 L16.64,43.93 Z M22.71,50.66 L19.28,48.28 L19.28,45.77 L22.71,48.16 Z M13.21,51.97 L10.57,51.97 L10.57,49.41 L13.21,49.41 Z M19.28,56.2 L16.64,56.2 L16.64,53.67 L19.28,53.67 Z M25.35,60.42 L22.71,60.42 L22.71,57.94 L25.35,57.94 Z M49.4,49.75 L39.61,49.75 L33.68,58.29 L25.35,52.5 L25.35,50.01 L33.68,55.81 L39.62,47.27 L49.4,47.27 Z" fill="none" stroke="currentColor" stroke-width="1.5"/><rect x="0" y="0" width="0" height="0" fill="none" stroke="currentColor"/><path d="M31.69,44.62 L41.48,44.62 L39.62,47.27 L31.69,47.27 Z M35.92,38.55 L45.68,38.55 L43.84,41.2 L35.92,41.2 Z M40.14,35.13 L40.14,32.48 L49.92,32.48 L48.05,35.13 Z M44.53,26.15 L44.53,16.38 L47.17,18.22 L47.17,26.15 Z M38.46,21.92 L38.46,12.15 L41.1,14 L41.1,21.92 Z M32.38,17.7 L32.38,7.92 L35.03,9.77 L35.03,17.7 Z M16.27,13.31 L18.11,10.67 L26.04,10.67 L26.04,13.31 Z M21.82,19.38 L12.06,19.38 L13.9,16.74 L21.82,16.74 Z M17.6,25.45 L7.83,25.45 L9.67,22.81 L17.6,22.81 Z M13.21,41.51 L10.57,39.7 L10.57,31.79 L13.21,31.79 Z M19.28,45.77 L16.64,43.93 L16.64,36.01 L19.28,36.01 Z M25.35,50.01 L22.71,48.16 L22.71,40.23 L25.35,40.23 Z" fill="none" stroke="currentColor" stroke-width="1.5"/></svg>