<svg xmlns="http://www.w3.org/2000/svg" viewBox="0 0 45.01 53.26" width="24" height="24"><path d="M12.83,22.5 L32.13,22.5 L32.13,14 C32.13,11.79 30.3,8.33 26.23,8.33 L18.56,8.33 C15.75,8.33 12.83,10.62 12.83,14 Z M0,53.26 L0,22.5 L6.38,22.5 L6.38,9.51 C6.38,4.4 10.82,0 15.87,0 L29.05,0 C34.17,0 38.55,4.32 38.55,9.74 L38.55,22.5 L45.01,22.5 L45.01,53.26 Z" fill="none" stroke="currentColor" stroke-width="1.5"/><path d="M32.13,14 C32.13,11.79 30.3,8.33 26.23,8.33 L18.56,8.33 C15.75,8.33 12.83,10.64 12.83,14 L12.83,12.2 C12.83,9.24 15.23,6.45 18.59,6.45 L26.45,6.45 C29.31,6.45 32.13,8.93 32.13,12.11 Z M0,53.26 L0,51.45 L45.01,51.45 L45.01,53.26 Z" fill="none" stroke="currentColor" stroke-width="1.5"/></svg>