<svg xmlns="http://www.w3.org/2000/svg" viewBox="0 0 39.75 41.55" width="24" height="24"><path d="M6.83,41.55 C2.79,41.55 0,38.18 0,34.83 L0,6.66 C0,3.08 3.17,0 6.7,0 L32.94,0 C36.8,0 39.75,3.2 39.75,6.83 L39.75,34.78 C39.75,38.3 36.91,41.55 32.93,41.55 Z" fill="none" stroke="currentColor" stroke-width="1.5"/><path d="M33.69,36.52 C35.24,36.52 36.37,35.27 36.37,33.94 L36.37,29.51 C36.37,27.79 35.04,26.77 33.74,26.77 L19.48,26.77 C18.08,26.77 16.87,27.95 16.87,29.41 L16.87,33.98 C16.87,35.23 18,36.52 19.43,36.52 Z M19.53,37.27 C17.44,37.27 16.12,35.58 16.12,33.96 L16.12,29.36 C16.12,27.37 17.8,26.03 19.46,26.03 L33.76,26.03 C35.49,26.03 37.12,27.35 37.12,29.48 L37.12,33.85 C37.12,36.13 35.19,37.27 33.83,37.27 Z M32.98,39.76 C36.58,39.76 39.75,36.7 39.75,32.88 L39.75,34.78 C39.75,38.31 36.93,41.55 32.93,41.55 L6.83,41.55 C2.78,41.55 0,38.16 0,34.83 L0,33.05 C0,36.56 2.9,39.76 6.96,39.76 Z" fill="none" stroke="currentColor" stroke-width="1.5"/><rect x="0" y="0" width="0" height="0" fill="none" stroke="currentColor"/><path d="M31.76,31.43 L31.76,29.63 L32.29,29.63 C32.69,29.64 32.94,29.81 33.03,30.14 C33.11,30.52 33.07,30.83 32.95,31.04 C32.82,31.27 32.59,31.44 32.19,31.43 Z M30.6,34.65 L31.76,34.65 L31.76,32.31 L32.47,32.31 C33.18,32.3 33.69,32.03 33.96,31.65 C34.23,31.27 34.33,30.68 34.24,30.14 C34.06,29.03 33.28,28.73 32.66,28.73 L30.6,28.73 Z M27.79,33.9 C27.4,33.9 27.12,33.66 27.04,32.86 C26.97,32.1 26.99,31.19 27.03,30.72 C27.06,30.42 27.11,29.81 27.5,29.61 C27.65,29.54 27.91,29.51 28.16,29.62 C28.42,29.76 28.53,30.09 28.59,30.48 C28.66,31.09 28.67,31.99 28.61,32.78 C28.54,33.34 28.46,33.9 27.79,33.9 Z M28.37,34.75 C29.09,34.61 29.37,34.22 29.55,33.84 C29.79,33.33 29.85,32.53 29.84,31.61 C29.84,30.84 29.79,30.01 29.47,29.45 C29.23,29.04 28.89,28.82 28.48,28.73 C27.96,28.6 27.57,28.65 27.19,28.71 C26.62,28.84 26.33,29.15 26.12,29.53 C25.93,29.93 25.8,30.52 25.8,31.54 C25.8,32.24 25.76,33.6 26.34,34.26 C26.5,34.46 26.77,34.62 27.09,34.71 C27.53,34.82 27.97,34.83 28.37,34.75 Z M23.85,34.65 L25.05,34.65 L25.05,28.73 L23.85,28.73 Z M20.73,31.43 L20.73,29.63 L21.26,29.63 C21.72,29.63 21.96,29.85 22.02,30.22 C22.1,30.68 22,30.97 21.84,31.17 C21.66,31.35 21.45,31.43 21.22,31.43 Z M20.73,34.65 L20.73,32.31 C21.14,32.32 21.6,32.36 21.89,32.31 C22.59,32.16 23.03,31.71 23.18,31.12 C23.32,30.48 23.24,29.86 22.94,29.39 C22.59,28.86 22.03,28.73 21.65,28.73 L19.58,28.73 L19.58,34.65 Z M19.43,36.52 C18.01,36.52 16.87,35.23 16.87,33.98 L16.87,29.41 C16.87,27.95 18.08,26.77 19.48,26.77 L33.74,26.77 C35.04,26.77 36.37,27.79 36.37,29.51 L36.37,33.94 C36.37,35.27 35.24,36.52 33.69,36.52 Z" fill="none" stroke="currentColor" stroke-width="1.5"/></svg>