<svg xmlns="http://www.w3.org/2000/svg" viewBox="0 0 53.4 53.41" width="24" height="24"><path d="M37.2,53.41 L34.2,53.41 L34.2,48.45 L32.7,48.45 L32.7,53.41 L29.7,53.41 L29.7,48.45 L28.2,48.46 L28.2,53.41 L25.2,53.4 L25.2,48.46 L23.7,48.45 L23.7,53.4 L20.7,53.41 L20.7,48.45 L19.2,48.45 L19.2,53.41 L16.2,53.41 L16.2,48.46 L13.6,48.45 C10.07,48.45 6.82,45.51 6.82,41.72 L6.82,37.2 L0,37.2 L0,34.2 L6.82,34.2 L6.82,32.7 L0,32.7 L0,29.71 L6.82,29.71 L6.82,28.2 L0,28.2 L0,25.2 L6.82,25.2 L6.82,23.7 L0,23.7 L0,20.7 L6.82,20.7 L6.82,19.2 L0,19.2 L0,16.2 L6.82,16.2 L6.82,13.53 C6.82,10.23 9.63,6.83 13.62,6.83 L16.2,6.83 L16.2,0 L19.2,0.01 L19.2,6.83 L20.7,6.83 L20.7,0 L23.7,0.01 L23.7,6.83 L25.2,6.83 L25.2,0.01 L28.2,0 L28.2,6.83 L29.7,6.83 L29.7,0 L32.7,0.01 L32.7,6.83 L34.2,6.83 L34.2,0 L37.2,0.01 L37.2,6.83 L39.83,6.83 C43.23,6.83 46.57,9.66 46.57,13.66 L46.57,16.2 L53.4,16.2 L53.4,19.2 L46.57,19.2 L46.57,20.7 L53.4,20.7 L53.4,23.7 L46.57,23.7 L46.57,25.2 L53.4,25.21 L53.4,28.2 L46.57,28.2 L46.57,29.71 L53.4,29.71 L53.4,32.7 L46.57,32.7 L46.57,34.2 L53.4,34.2 L53.4,37.2 L46.57,37.2 L46.57,41.71 C46.57,45.13 43.69,48.46 39.76,48.46 L37.2,48.45 Z" fill="none" stroke="currentColor" stroke-width="1.5"/><path d="M16.2,48.46 L13.6,48.45 C10.07,48.45 6.82,45.5 6.82,41.72 L6.82,40 C6.82,42.91 9.39,46.58 13.68,46.58 L16.2,46.58 Z M19.2,48.45 L19.2,46.58 L20.7,46.59 L20.7,48.45 Z M23.7,48.45 L23.7,46.58 L25.2,46.58 L25.2,48.46 Z M28.2,48.46 L28.2,46.58 L29.7,46.58 L29.7,48.45 Z M32.7,48.45 L32.7,46.58 L34.2,46.58 L34.2,48.45 Z M37.2,48.45 L37.2,46.58 L39.9,46.58 C43.41,46.58 46.57,43.51 46.57,39.94 L46.57,41.71 C46.57,45.14 43.69,48.46 39.76,48.46 Z" fill="none" stroke="currentColor" stroke-width="1.5"/><rect x="0" y="0" width="0" height="0" fill="none" stroke="currentColor"/><path d="M37.65,17.18 L35.87,20.67 C35.26,21.73 35.21,22.96 35.81,24.05 C37.16,26.81 37.86,29.62 37.33,33.06 C36.51,37.09 32.93,38.46 28.74,38.79 C27.94,38.87 26.59,39.7 26.55,40.41 C26.53,39.78 25.19,38.9 24.33,38.78 C20.97,38.48 17.34,37.51 16.08,34.13 C15.2,31.7 15.48,28.52 17.17,24.6 C17.76,23.61 18.17,22.27 17.51,20.91 L15.6,17.18 L16.65,16.13 C18.23,17.04 19.8,17.41 21.89,17.13 C23.53,16.94 25.82,16.13 26.62,15 C27.53,16.23 30.03,17.03 31.64,17.17 C33.21,17.35 34.92,17.16 36.6,16.13 Z" fill="none" stroke="currentColor" stroke-width="1.5"/></svg>