<svg xmlns="http://www.w3.org/2000/svg" viewBox="0 0 32.74 43.86" width="24" height="24"><path d="M32.7,4.89 L32.7,6.74 C32.7,8.26 29.77,9.18 28.21,9.61 C21.36,11.34 11.23,11.23 5.43,9.84 C4.06,9.54 0,8.48 0,6.8 L0,4.86 C0.08,3.59 2.24,2.6 5.09,1.92 C13.81,0 24.25,0.77 29.21,2.36 C30.66,2.82 32.7,3.7 32.7,4.89 Z M32.7,39.05 C32.73,40.1 31.3,40.9 29.65,41.49 C23.34,43.61 11.45,43.83 4.32,41.89 C2.66,41.46 0,40.44 0,39.15 L0,8.27 C0.11,9.67 2.73,10.58 4.73,11.1 C9.07,12.34 20.44,13.17 28.65,10.92 C30.6,10.35 32.7,9.45 32.7,8.17 Z" fill="none" stroke="currentColor" stroke-width="1.5"/><path d="M32.7,4.89 L32.7,6.74 C32.7,8.27 29.76,9.18 28.21,9.61 C21.37,11.33 11.21,11.23 5.43,9.84 C4.06,9.54 0,8.48 0,6.8 L0,4.86 C0,6.58 3.74,7.62 6.15,8.13 C12.24,9.28 21.14,9.44 27.93,7.82 C30.37,7.18 32.7,6.22 32.7,4.89 Z M32.7,37.23 L32.7,39.05 C32.74,40.1 31.3,40.9 29.65,41.49 C23.37,43.61 11.46,43.86 4.32,41.89 C2.66,41.46 0,40.44 0,39.15 L0,37.31 C0.05,38.75 2.62,39.63 4.82,40.22 C12.28,42.04 23,41.72 29.24,39.84 C30.82,39.31 32.7,38.52 32.7,37.23 Z" fill="none" stroke="currentColor" stroke-width="1.5"/><rect x="0" y="0" width="0" height="0" fill="none" stroke="currentColor"/><path d="M13.39,25.9 L17.66,25.9 C19.05,25.86 19.52,25.11 19.7,24.47 C19.83,23.89 19.85,23.29 19.62,22.78 C19.17,21.82 18.04,21.64 17.43,21.64 L13.39,21.64 Z M8.44,36.56 L8.44,17.66 L18.21,17.66 C20.03,17.66 22.5,18.23 23.79,20.02 C25.01,21.75 24.85,24.12 24.04,25.64 C23.62,26.39 22.92,27.29 21.52,27.76 C22.59,27.92 23.63,28.67 24.16,30.57 C24.42,31.47 24.48,32.65 24.56,33.85 C24.68,34.93 24.83,36.07 25.28,36.56 L20.4,36.56 C20.06,36.09 19.9,34.9 19.88,33.54 C19.79,32.5 19.66,31.47 19.23,30.77 C18.84,30.09 18.15,29.64 17.1,29.66 L13.39,29.66 L13.39,36.56 Z" fill="none" stroke="currentColor" stroke-width="1.5"/></svg>