<svg xmlns="http://www.w3.org/2000/svg" viewBox="0 0 32.7 44.04" width="24" height="24"><path d="M0,4.86 C0,3.93 1.47,2.98 3.58,2.33 C11.03,0 24.64,0.44 30.34,2.77 C31.25,3.18 32.63,3.83 32.7,4.89 L32.7,6.74 C32.7,8.22 29.91,9.19 27.77,9.72 C20.41,11.47 10.48,11.17 4.64,9.65 C3.17,9.29 0,8.25 0,6.82 Z M32.7,39.08 C32.7,40.29 30.81,41.14 28.99,41.72 C20.32,44 9.79,43.5 3.42,41.62 C1.71,41.08 0,40.21 0,39.11 L0,8.25 C0.07,9.67 2.84,10.58 4.08,10.93 C10.01,12.62 20.89,12.93 28.19,11.05 C29.96,10.57 32.7,9.65 32.7,8.15 Z" fill="none" stroke="currentColor" stroke-width="1.5"/><path d="M4.95,7.87 C10.91,9.35 19.53,9.65 27.67,7.9 C30.54,7.16 32.7,6.23 32.7,4.89 L32.7,6.74 C32.7,8.22 29.92,9.19 27.77,9.72 C20.42,11.47 10.5,11.17 4.64,9.65 C3.17,9.29 0,8.26 0,6.82 L0,4.86 C0,6.22 2.36,7.22 4.95,7.87 Z M32.7,37.26 L32.7,39.08 C32.7,40.29 30.81,41.14 28.99,41.72 C20.33,44.04 9.8,43.49 3.42,41.62 C1.7,41.07 0,40.21 0,39.11 L0,37.27 C0,38.63 2.27,39.47 4.01,40.01 C9.57,41.65 20.76,42.14 28.47,40.07 C29.82,39.66 32.7,38.78 32.7,37.26 Z" fill="none" stroke="currentColor" stroke-width="1.5"/><rect x="0" y="0" width="0" height="0" fill="none" stroke="currentColor"/><path d="M5.89,36.26 L5.89,17.55 L13.13,17.55 L16.35,30.04 L19.58,17.55 L26.85,17.55 L26.85,36.26 L22.28,36.26 L22.28,21.72 L18.23,36.26 L14.48,36.26 L10.43,21.77 L10.43,36.26 Z" fill="none" stroke="currentColor" stroke-width="1.5"/></svg>