<svg xmlns="http://www.w3.org/2000/svg" viewBox="0 0 51.15 61.79" width="24" height="24"><path d="M51.15,48.89 L47.02,50.99 L34.89,48.04 L34.89,57.07 L25.58,61.79 L16.2,57.07 L16.2,48.04 L4.12,50.99 L0,48.9 L0,12.82 L4.12,10.73 L16.2,13.63 L16.2,4.72 L25.58,0 L34.89,4.72 L34.89,13.63 L47.02,10.72 L51.15,12.82 Z" fill="none" stroke="currentColor" stroke-width="1.5"/><path d="M4.12,10.73 L4.12,50.99 L0,48.9 L0,12.82 Z M25.58,15.6 L16.2,17.92 L16.2,4.72 L25.58,0 Z M25.58,38.69 L16.2,37.49 L16.2,24.29 L25.58,23.09 Z M25.58,61.79 L16.2,57.07 L16.2,43.87 L25.58,46.19 Z M47.02,50.99 L34.89,48.04 L34.89,43.82 L25.58,42.14 L25.58,38.69 L34.89,37.49 L34.89,24.29 L25.58,23.09 L25.58,19.64 L34.89,17.92 L34.89,13.63 L47.02,10.72 Z" fill="none" stroke="currentColor" stroke-width="1.5"/><path d="M25.58,19.64 L16.2,17.92 L25.58,15.6 L34.89,17.92 Z" fill="none" stroke="currentColor" stroke-width="1.5"/><path d="M34.89,43.92 L25.58,46.19 L16.2,43.87 L25.58,42.14 Z" fill="none" stroke="currentColor" stroke-width="1.5"/></svg>