<svg xmlns="http://www.w3.org/2000/svg" viewBox="0 0 51.17 60.12" width="24" height="24"><path d="M23.7,32.21 L8.62,32.21 C4.19,32.21 0,28.73 0,25.31 L0,22.12 C0,20.18 1.44,17.45 3.42,15.91 C4.57,15.02 5.41,14.82 7.36,14.29 L7.27,12.23 C7.27,8.3 8.91,4.89 12.17,2.45 C14.73,0.61 17.85,0 20.48,0.35 C24.75,0.93 27.91,3.47 29.6,6.69 L31.12,10.01 L33.9,8.07 C35.26,7.24 37.08,7.26 38.17,7.74 C39.87,8.46 41.04,10.03 41.1,11.99 L41.17,14.22 L43.39,14.37 C47.49,14.69 51.17,18.93 51.17,22.23 L51.15,25.29 C51.15,28.57 47.18,32.21 42.4,32.21 L25.99,32.21 L25.99,41.21 L46.58,41.21 L46.58,60.12 L3.08,60.12 L3.08,41.21 L23.7,41.21 Z" fill="none" stroke="currentColor" stroke-width="1.5"/><path d="M25.99,32.21 L25.99,30.04 L42.23,30.04 C47.1,30.04 51.16,26.52 51.16,23.17 L51.15,25.29 C51.15,28.57 47.18,32.21 42.4,32.21 Z M23.7,32.21 L8.62,32.21 C4.2,32.21 0,28.73 0,25.31 L0,23.25 C0,26.24 3.88,30.04 8.72,30.04 L23.7,30.04 Z M46.58,60.12 L3.08,60.12 L3.08,57.87 L46.58,57.87 Z" fill="none" stroke="currentColor" stroke-width="1.5"/><rect x="0" y="0" width="0" height="0" fill="none" stroke="currentColor"/><path d="M23.7,30.04 L23.7,23.14 L21.46,23.14 L24.84,18.26 L28.21,23.14 L25.99,23.14 L25.99,30.04 Z M15.52,49.37 C15.52,51.34 13.97,52.99 11.92,52.99 C10.11,52.99 8.37,51.73 8.33,49.35 C8.33,47.39 9.95,45.79 11.94,45.79 C13.71,45.79 15.52,47.19 15.52,49.37 Z M29.41,52.99 L20.03,52.99 L24.76,45.72 Z M33.9,52.99 L33.9,45.71 L41.17,45.71 L41.17,52.99 Z" fill="none" stroke="currentColor" stroke-width="1.5"/></svg>