<svg xmlns="http://www.w3.org/2000/svg" viewBox="0 0 50.93 61.48" width="24" height="24"><path d="M50.93,22.23 L43.08,22.99 L43.08,31.82 L39.75,31.9 L36.31,31.84 L36.31,23.66 L33.65,23.92 L33.65,26.9 L29.79,27.12 L26.89,26.93 L26.89,24.58 L25.46,24.72 L24.06,24.58 L24.06,32.04 L20.61,32.12 L17.34,32.03 L17.34,23.93 L14.56,23.65 L14.56,25.34 L10.98,25.73 L7.84,25.51 L7.84,22.99 L0,22.23 L0,12.73 L25.46,0 L50.93,12.8 Z M25.46,61.48 L19.8,58.64 L19.8,54.62 L15.11,56.28 L11.13,54.3 L11.13,51.69 L7.76,52.62 L4.82,51.14 L4.82,49.28 L2.28,49.85 L0,48.72 L0,39.25 L7.84,38.49 L7.84,29.64 L11.32,29.56 L14.56,29.61 L14.56,37.83 L17.34,37.56 L17.34,36.86 L20.8,36.57 L24.06,36.9 L25.46,36.76 L26.89,36.9 L26.89,29.94 L30.77,29.89 L33.65,29.93 L33.65,37.4 L35.01,37.54 L35.01,38.38 L36.31,38.19 L36.31,35.9 L39.75,35.56 L43.08,35.77 L43.08,39.38 L46.09,38.78 L50.93,39.26 L50.93,48.75 Z" fill="none" stroke="currentColor" stroke-width="1.5"/><path d="M25.46,16.22 L0,22.23 L0,12.73 L25.46,0 Z M11.32,25.1 L7.84,25.51 L7.84,22.23 L11.32,21.55 Z M20.61,32.12 L17.34,32.03 L17.34,20.4 L20.61,19.77 Z M30.77,26.69 L26.89,26.93 L26.89,22.76 L30.77,22.27 Z M39.75,31.9 L36.31,31.84 L36.31,21.95 L39.75,21.53 Z M36.31,39.59 L36.31,35.9 L39.75,36.15 L39.75,40.01 Z M26.89,38.74 L26.89,29.94 L30.77,29.89 L30.77,39.23 Z M17.34,41.12 L17.34,36.86 L20.61,37.24 L20.61,41.76 Z M11.32,39.94 L7.84,39.26 L7.84,29.64 L11.32,29.56 Z M2.28,49.85 L0,48.72 L0,39.25 L2.28,39.79 Z M7.76,52.62 L4.82,51.14 L4.82,40.39 L7.76,41.11 Z M11.13,54.3 L11.13,41.91 L15.11,42.86 L15.11,56.28 Z M25.46,61.48 L19.8,58.64 L19.8,43.97 L25.46,45.3 Z" fill="none" stroke="currentColor" stroke-width="1.5"/><path d="M14.56,25.34 L10.98,25.73 L7.84,25.51 L11.32,25.1 Z M33.65,26.9 L29.79,27.12 L26.89,26.93 L30.77,26.69 Z M36.31,23.66 L33.65,23.92 L33.65,22.69 L30.77,22.27 L26.89,22.76 L26.89,24.58 L25.46,24.72 L24.06,24.58 L24.06,20.33 L20.61,19.77 L17.34,20.4 L17.34,23.93 L14.56,23.65 L14.56,21.95 L11.32,21.55 L7.84,22.23 L7.84,22.99 L0,22.23 L25.46,16.22 L50.93,22.23 L43.08,22.99 L43.08,22.21 L39.75,21.53 L36.31,21.95 Z" fill="none" stroke="currentColor" stroke-width="1.5"/><path d="M7.84,39.2 L2.28,39.79 L0,39.25 L7.84,38.49 Z M17.34,38.18 L14.56,38.48 L14.56,37.83 L17.34,37.56 Z M17.34,39.86 L7.76,41.11 L4.82,40.39 L10.31,39.75 L11.32,39.94 L14.56,39.5 L14.56,39.24 L17.34,38.92 Z M24.06,36.9 L20.61,37.24 L17.34,36.86 L20.8,36.57 Z M26.89,37.16 L24.06,37.46 L24.06,36.9 L25.46,36.76 L26.89,36.9 Z M26.89,38.6 L24.06,38.97 L24.06,38.13 L26.89,37.79 Z M35.01,37.54 L33.65,37.72 L33.65,37.4 Z M36.31,39.28 L15.11,42.86 L11.13,41.91 L17.34,40.99 L17.34,41.12 L20.61,41.76 L24.06,41.19 L24.06,40 L29.94,39.13 L30.77,39.23 L33.65,38.8 L33.65,38.58 L35.01,38.38 L36.31,38.19 Z M43.08,35.77 L39.75,36.15 L36.31,35.9 L39.75,35.56 Z M50.93,39.26 L25.46,45.3 L19.8,43.97 L46.09,38.78 Z" fill="none" stroke="currentColor" stroke-width="1.5"/></svg>