<svg xmlns="http://www.w3.org/2000/svg" viewBox="0 0 50.1 52.51" width="24" height="24"><path d="M7.54,31.43 C4.06,31.43 0.01,28.4 0,23.6 L0,21.26 C0,16.95 3.69,13.8 7.28,13.65 C6.68,11.19 7.17,7.34 9.6,4.37 C11.44,2.14 14.36,0.06 18.68,0 C21.41,0.01 24.19,0.99 26.35,2.92 C28.37,4.73 29.64,7.09 30.08,9.61 C31.1,7.8 33.2,6.64 35.58,6.96 C37.08,7.19 38.36,8 39.19,9.13 C40.21,10.53 40.44,12.07 40.18,13.14 C42.35,12.79 43.71,13.1 44.95,13.58 C48.46,15.07 50.1,18.32 50.1,21.12 L50.1,23.37 C50.1,27.88 46.37,31.43 42.19,31.43 Z M18.85,52.51 C17.59,52.51 17.03,51.6 17.03,50.79 L17.03,36.83 C17.03,35.7 17.97,35.11 18.69,35.11 L31.15,35.11 C32.37,35.11 32.92,36.06 32.92,36.76 L32.92,50.75 C32.92,51.62 32.26,52.51 31.12,52.51 Z" fill="none" stroke="currentColor" stroke-width="1.5"/><path d="M7.54,31.43 C4.07,31.43 0,28.39 0,23.6 L0,21.26 C0,26.02 3.82,29.18 7.6,29.18 L41.96,29.18 C46.45,29.18 50.1,25.66 50.1,21.12 L50.1,23.37 C50.1,27.88 46.37,31.43 42.19,31.43 Z M18.85,52.51 C17.6,52.51 17.03,51.6 17.03,50.79 L17.03,49.32 C17.03,50.36 17.9,51.01 18.74,51.01 L31.19,51.01 C32.05,51.01 32.92,50.31 32.92,49.27 L32.92,50.75 C32.92,51.62 32.26,52.51 31.12,52.51 Z" fill="none" stroke="currentColor" stroke-width="1.5"/><rect x="0" y="0" width="0" height="0" fill="none" stroke="currentColor"/><path d="M18.73,27.31 C17.85,27.31 17.03,26.61 17.03,25.58 L17.03,24.16 L26.42,24.16 C26.82,25 27.63,25.68 28.82,25.73 C30.49,25.73 31.58,24.42 31.58,23.01 C31.58,21.56 30.39,20.33 28.84,20.33 C27.75,20.33 26.78,21.06 26.43,21.91 L17.03,21.91 L17.03,13.12 C17.03,12.12 17.81,11.4 18.76,11.4 L31.26,11.4 C32,11.4 32.93,12.01 32.93,13.12 L32.93,14.48 L23.53,14.48 C23.14,13.62 22.26,12.91 21.04,12.91 C19.75,12.91 18.37,13.95 18.37,15.64 C18.37,17.09 19.61,18.31 21.06,18.31 C22.15,18.31 23.1,17.67 23.53,16.73 L32.93,16.73 L32.93,25.65 C32.93,26.36 32.37,27.31 31.17,27.31 Z M23.53,40.43 C23.26,41.05 22.45,42.01 21.02,42.01 C19.89,42.01 18.37,41.07 18.37,39.28 C18.37,37.76 19.64,36.6 21.07,36.6 C22.32,36.6 23.23,37.45 23.53,38.18 L32.92,38.18 L32.92,40.43 Z M17.03,47.85 L17.03,45.6 L26.42,45.6 C26.89,44.58 27.89,44.02 28.92,44.03 C30.35,44.03 31.57,45.22 31.57,46.73 C31.57,48.4 30.2,49.43 28.89,49.43 C27.73,49.43 26.82,48.75 26.42,47.85 Z" fill="none" stroke="currentColor" stroke-width="1.5"/></svg>