<svg xmlns="http://www.w3.org/2000/svg" viewBox="0 0 39.75 41.63" width="24" height="24"><path d="M6.83,41.63 C3.19,41.63 0,38.6 0,34.9 L0,6.68 C0,3.05 3.16,0 6.76,0 L33.04,0 C36.61,0 39.75,3.08 39.75,6.78 L39.75,34.83 C39.75,37.99 37.12,41.63 32.89,41.63 Z" fill="none" stroke="currentColor" stroke-width="1.5"/><path d="M0,32.82 C0,37.13 3.48,39.76 6.8,39.76 L33.02,39.76 C36.54,39.76 39.75,36.73 39.75,33.01 L39.75,34.83 C39.75,38 37.14,41.63 32.89,41.63 L6.83,41.63 C3.19,41.63 0,38.61 0,34.9 Z" fill="none" stroke="currentColor" stroke-width="1.5"/><rect x="0" y="0" width="0" height="0" fill="none" stroke="currentColor"/><path d="M19.46,27.3 L19.46,12.98 C17.6,13.13 16.46,14.34 15.78,15.84 C14.61,18.49 14.71,22.22 15.67,24.19 C16.61,26.29 18.05,27.05 19.46,27.3 Z M29.63,22.66 C29.2,25.07 28.27,27.55 26.09,29.26 C24.86,30.22 23.14,30.84 21.11,30.82 L21.11,34.35 L19.46,34.35 L19.46,30.82 C17.05,30.82 15.03,29.96 13.49,28.45 C11.42,26.36 10.25,23.26 10.44,19.53 C10.63,15.46 12.31,12.5 14.59,10.92 C16.06,9.89 17.81,9.44 19.46,9.45 L19.46,5.92 L21.11,5.92 L21.11,9.44 C23.81,9.47 26,10.49 27.34,11.88 C28.73,13.3 29.36,15.08 29.47,16.81 L24.97,16.81 C24.69,14.76 23.41,13 21.11,12.98 L21.11,27.3 C23.99,26.85 24.93,24.57 25.12,22.66 Z" fill="none" stroke="currentColor" stroke-width="1.5"/></svg>