<svg xmlns="http://www.w3.org/2000/svg" viewBox="0 0 39.72 42.46" width="24" height="24"><path d="M39.71,22.13 L39.71,23.99 C39.71,24.49 38.36,25.08 36.77,25.41 C34.1,25.97 30.13,26.05 27.39,25.55 C25.29,25.18 23.69,24.49 23.69,24 L23.69,22.11 C23.79,21.52 25.32,20.96 27,20.64 C29.89,20.16 33.34,20.09 36.59,20.68 C37.76,20.91 39.66,21.47 39.71,22.13 Z M39.71,40.46 C39.71,41 37.46,41.75 35.93,41.94 C32.8,42.45 29.37,42.42 26.51,41.9 C25.18,41.64 23.69,41.05 23.69,40.4 L23.69,25.72 C24.2,26.08 24.91,26.55 27.23,27.03 C29.71,27.56 33.94,27.47 36.51,26.95 C37.71,26.72 38.94,26.36 39.71,25.88 Z M22.79,41.48 L6.81,41.48 C2.7,41.48 0,37.94 0,34.86 L0,6.71 C0,3.26 2.92,0 6.78,0 L33.03,0 C36.57,0 39.71,3 39.71,6.85 L39.71,19.95 C38.35,19.28 36.41,18.89 34.27,18.67 C31.51,18.42 27.68,18.45 24.73,19.17 C23.34,19.5 21.63,20.13 21.52,20.76 L21.52,38.59 C21.52,39.1 22.41,39.67 22.79,39.75 Z" fill="none" stroke="currentColor" stroke-width="1.5"/><path d="M39.71,22.13 L39.71,23.99 C39.72,24.49 38.36,25.09 36.77,25.41 C34.1,25.97 30.13,26.05 27.39,25.55 C25.29,25.18 23.69,24.49 23.69,24 L23.69,22.11 C23.77,22.84 26.05,23.43 27.63,23.72 C29.58,24.09 33.84,24.11 36.24,23.65 C37.75,23.36 39.61,22.81 39.71,22.13 Z M39.71,38.59 L39.71,40.46 C39.71,41 37.46,41.75 35.93,41.94 C32.79,42.46 29.38,42.43 26.51,41.9 C25.19,41.64 23.69,41.06 23.69,40.4 L23.69,38.52 C23.69,39.19 25.23,39.81 26.98,40.12 C29.85,40.6 33.24,40.46 35.77,40.09 C37.77,39.82 39.69,39.09 39.71,38.59 Z M39.71,19.95 C38.35,19.28 36.41,18.9 34.27,18.67 C31.5,18.42 27.68,18.46 24.73,19.17 C23.34,19.5 21.62,20.13 21.52,20.76 L21.52,19.15 C21.52,18.51 23.4,17.84 24.49,17.58 C28.12,16.67 32.51,16.79 34.85,17.08 C36.98,17.32 38.57,17.74 39.71,18.3 Z M22.79,41.48 L6.81,41.48 C2.7,41.48 0,37.96 0,34.86 L0,32.89 C0,36.64 3.09,39.75 6.8,39.75 L22.79,39.75 Z" fill="none" stroke="currentColor" stroke-width="1.5"/><rect x="0" y="0" width="0" height="0" fill="none" stroke="currentColor"/><path d="M35.7,38.48 L34.19,38.48 L34.19,30.31 L32.25,38.48 L30.9,38.48 L28.95,30.31 L28.95,38.48 L27.45,38.48 L27.45,28.65 L29.84,28.65 L31.57,35.93 L33.29,28.65 L35.7,28.65 Z" fill="none" stroke="currentColor" stroke-width="1.5"/></svg>