<svg xmlns="http://www.w3.org/2000/svg" viewBox="0 0 41.65 51.82" width="24" height="24"><path d="M20.93,51.82 C13.01,48.93 7.1,41.37 4.16,34.42 C1.81,28.88 0,20.59 0.21,12.84 L0.22,9.41 C3.09,9.53 5.56,9.04 6.8,8.03 C8.07,7.02 8.79,4.42 8.81,2.49 C12.87,0.79 17.93,0 20.87,0 C24.94,0.16 29.11,0.94 33.03,2.47 C33.05,4.91 34.06,7.56 35.47,8.28 C37.06,9.08 39.19,9.38 41.64,9.43 L41.65,12.61 C41.65,21.75 40.14,29.15 36.87,36.2 C33.51,42.82 28.36,49.05 20.93,51.82 Z" fill="none" stroke="currentColor" stroke-width="1.5"/><path d="M24.06,21.13 L24.06,16.67 C24.06,15.49 23.22,13.69 20.84,13.69 C18.94,13.69 17.83,15.04 17.83,16.63 L17.83,21.13 Z M30.11,31.33 L11.76,31.33 L11.76,21.13 L14.9,21.13 L14.9,16.83 C14.9,13.91 17.43,11.14 20.85,11.14 C25.31,11.14 27.05,14.74 27.05,16.68 L27.05,21.13 L30.11,21.13 Z M41.65,12.61 C41.65,21.71 40.14,29.15 36.87,36.2 C33.51,42.82 28.35,49.04 20.93,51.82 C13.01,48.92 7.11,41.37 4.16,34.42 C1.83,28.88 0,20.59 0.21,12.84 C0.21,20.51 2.44,29.3 4.9,34.17 C7.77,40.04 12.95,46.91 20.92,50.01 C27.45,47.58 32.53,42.2 36.04,35.93 C40.02,28.82 41.65,18.76 41.65,12.61 Z" fill="none" stroke="currentColor" stroke-width="1.5"/><rect x="0" y="0" width="0" height="0" fill="none" stroke="currentColor"/><path d="M35,15.01 C32.96,14.68 30.92,13.48 29.99,12.4 C29.22,11.42 28.34,10.29 27.8,8.14 C25.42,7.42 23.02,7.06 20.61,7.05 C18.62,7.13 16.43,7.45 14.06,8.16 C13.74,9.59 12.99,11.14 11.95,12.37 C10.93,13.63 8.79,14.77 6.88,15.1 C7.14,23.05 9.58,29.74 11.41,32.85 C14.01,37.66 17.81,40.91 20.93,42.53 C25.43,40.21 28.29,36.49 30.2,33.27 C32.83,28.6 34.65,22.77 35,15.01 Z M38.09,12.43 C38.14,21.82 36.04,29.02 33.05,34.42 C30.95,38.33 26.61,43.57 20.93,45.84 C15.62,43.4 11.76,39.76 8.6,33.94 C5.34,27.85 3.71,20.01 3.84,12.51 C6.41,12.24 8.18,11.83 9.37,10.77 C10.25,9.89 11.24,8.21 11.53,5.83 C14.91,4.61 18.75,3.92 21.77,4.08 C24.28,4.23 26.69,4.59 30.39,5.8 C30.84,8.51 31.65,10.02 32.89,11.01 C33.91,11.7 35.57,12.14 38.09,12.43 Z" fill="none" stroke="currentColor" stroke-width="1.5"/></svg>