<svg xmlns="http://www.w3.org/2000/svg" viewBox="0 0 48.72 39.3" width="24" height="24"><path d="M48.72,12.3 L0,12.3 L0,0 L48.72,0 Z M22.87,25.8 L0,25.8 L0,13.5 L22.87,13.5 Z M48.72,25.8 L25.8,25.8 L25.8,13.5 L48.72,13.5 Z M14.25,39.3 L0,39.3 L0,27 L14.25,27 Z M31.5,39.3 L17.25,39.3 L17.25,27 L31.5,27 Z M48.72,39.3 L34.5,39.3 L34.5,27 L48.72,27 Z" fill="none" stroke="currentColor" stroke-width="1.5"/><path d="M48.72,12.3 L0,12.3 L0,10.5 L48.72,10.5 Z M22.87,25.8 L0,25.8 L0,24 L22.87,24 Z M48.72,25.8 L25.8,25.8 L25.8,24 L48.72,24 Z M14.25,39.3 L0,39.3 L0,37.5 L14.25,37.5 Z M31.5,39.3 L17.25,39.3 L17.25,37.5 L31.5,37.5 Z M48.72,39.3 L34.5,39.3 L34.5,37.5 L48.72,37.5 Z" fill="none" stroke="currentColor" stroke-width="1.5"/></svg>