<svg xmlns="http://www.w3.org/2000/svg" viewBox="0 0 50.95 61.5" width="24" height="24"><path d="M25.46,61.5 L17.84,57.62 L17.84,52.74 L11.9,54.64 L7.14,52.26 L7.14,49.39 L3.25,50.31 L0,48.69 L0,37.88 L6.65,37.33 L10.18,37.88 L10.18,38.97 L14.36,38.53 L19.35,39.3 L19.35,41.21 L25.48,40.26 L33.08,41.44 L33.08,44.69 L43.78,42 L43.78,35.05 L40.26,42.49 L32.84,41.34 L29.26,36.28 L26.55,40.43 L21.47,39.63 L19.15,36.82 L17.29,38.97 L13.59,38.39 L6.53,30.69 L13.58,22.94 L17.34,22.36 L19.16,24.51 L21.47,21.71 L26.55,20.93 L29.25,25.06 L32.85,20 L40.26,18.86 L43.78,26.31 L43.78,19.44 L33.08,16.67 L33.08,19.97 L25.46,21.09 L19.38,20.14 L19.38,22.04 L14.37,22.82 L10.2,22.37 L10.2,23.47 L6.68,24.02 L0,23.47 L0,12.66 L3.24,11.04 L7.14,11.95 L7.14,9.08 L11.9,6.7 L17.84,8.6 L17.84,3.74 L25.46,0 L50.95,12.75 L50.95,48.76 Z" fill="none" stroke="currentColor" stroke-width="1.5"/><path d="M43.78,42 L43.78,35.05 L45.85,30.69 L43.78,26.31 L43.78,19.44 L47.65,18.95 L47.65,42.58 Z M17.84,19.9 L17.84,3.74 L25.46,0 L25.46,18.46 Z M7.14,22.04 L7.14,9.08 L11.9,6.7 L11.9,21.09 Z M0,23.47 L0,12.66 L3.24,11.04 L3.24,22.82 Z M17.84,57.62 L17.84,41.45 L25.46,42.98 L25.46,61.5 Z M7.14,52.26 L7.14,39.3 L11.9,40.27 L11.9,54.64 Z M0,48.69 L0,37.88 L3.25,38.53 L3.25,50.31 Z" fill="none" stroke="currentColor" stroke-width="1.5"/><path d="M25.27,30.69 L32.85,20 L40.26,18.86 L32.92,30.69 Z M14.08,30.69 L21.47,21.71 L26.55,20.93 L19.22,30.69 Z M6.53,30.69 L13.58,22.94 L17.34,22.36 L10.02,30.69 Z M33.08,44.69 L43.78,42 L47.65,42.58 L33.08,46.95 Z M17.84,41.45 L25.48,40.26 L33.08,41.44 L25.46,42.98 Z M7.14,39.3 L14.36,38.53 L19.35,39.3 L11.9,40.27 Z M0,37.88 L6.65,37.33 L10.18,37.88 L3.25,38.53 Z" fill="none" stroke="currentColor" stroke-width="1.5"/><path d="M10.02,30.69 L17.29,38.97 L13.59,38.39 L6.53,30.69 Z M19.22,30.69 L26.55,40.43 L21.47,39.63 L14.08,30.69 Z M25.27,30.69 L32.92,30.69 L40.26,42.49 L32.84,41.34 Z M33.08,16.67 L33.08,14.54 L47.65,18.95 L43.78,19.44 Z M17.84,19.9 L25.46,18.46 L33.08,19.97 L25.46,21.09 Z M7.14,22.04 L11.9,21.09 L19.38,22.04 L14.37,22.82 Z M0,23.47 L3.24,22.82 L10.2,23.47 L6.68,24.02 Z" fill="none" stroke="currentColor" stroke-width="1.5"/></svg>