<svg xmlns="http://www.w3.org/2000/svg" viewBox="0 0 45.0 43.8" width="24" height="24"><path d="M45,43.8 L10.13,43.8 L10.13,34.87 L45,34.87 Z M7.12,43.8 L0,43.8 L0,34.87 L7.12,34.87 Z M45,32.17 L10.13,32.17 L10.13,23.25 L45,23.25 Z M7.12,32.17 L0,32.17 L0,23.25 L7.12,23.25 Z M45,20.55 L10.13,20.55 L10.13,11.62 L45,11.62 Z M7.12,20.55 L0,20.55 L0,11.62 L7.12,11.62 Z M45,8.92 L10.13,8.92 L10.13,0 L45,0 Z M7.12,8.92 L0,8.92 L0,0 L7.12,0 Z" fill="none" stroke="currentColor" stroke-width="1.5"/><path d="M45,43.8 L10.13,43.8 L10.13,42 L45,42 Z M7.12,43.8 L0,43.8 L0,42 L7.12,42 Z M45,32.17 L10.13,32.17 L10.13,30.38 L45,30.38 Z M7.12,32.17 L0,32.17 L0,30.38 L7.12,30.38 Z M45,20.55 L10.13,20.55 L10.13,18.75 L45,18.75 Z M7.12,20.55 L0,20.55 L0,18.75 L7.12,18.75 Z M45,8.92 L10.13,8.92 L10.13,7.12 L45,7.12 Z M7.12,8.92 L0,8.92 L0,7.12 L7.12,7.12 Z" fill="none" stroke="currentColor" stroke-width="1.5"/></svg>