<svg xmlns="http://www.w3.org/2000/svg" viewBox="0 0 49.81 25.29" width="24" height="24"><path d="M11.5,24.75 C6.37,24.75 0,20.56 0,12.75 L0,11.57 C0,3.64 6.63,0 11.72,0 C18.16,0 23.32,5.2 23.32,11.52 L23.32,13.13 C23.32,15.91 22.4,18.25 21.16,19.92 C23.43,19.84 25.68,19.53 27.91,19.03 C27.33,17.86 26.65,16.49 26.54,13.79 L26.55,11.34 C26.55,6.74 30.91,0.44 38.15,0.44 C44.63,0.44 49.81,5.8 49.81,12.21 L49.81,13.56 C49.81,20.84 44.07,25.29 38.26,25.29 C35.56,25.29 32.63,24.17 30.9,22.65 C28.15,23.39 22.85,23.93 17.41,23.25 C15.69,24.23 13.92,24.75 11.5,24.75 Z" fill="none" stroke="currentColor" stroke-width="1.5"/><path d="M23.32,12.58 L23.32,13.13 C23.32,15.89 22.39,18.26 21.16,19.92 L19.81,19.95 C22.02,17.82 23.04,15.2 23.32,12.58 Z M26.55,12.48 C26.67,15.28 27.61,17.22 28.72,18.83 L27.91,19.03 C27.32,17.86 26.65,16.49 26.54,13.79 Z M49.81,12.21 L49.81,13.56 C49.81,20.84 44.07,25.29 38.26,25.29 C35.56,25.29 32.63,24.17 30.9,22.65 C28.14,23.38 22.85,23.93 17.41,23.25 C15.69,24.22 13.91,24.75 11.5,24.75 C6.38,24.75 0,20.57 0,12.75 L0,11.57 C0,16.67 3.87,22.93 11.26,23.25 C13.75,23.34 15.88,22.62 17.41,21.75 C22.96,22.26 26.62,22.19 30.9,21.15 C32.79,22.79 35.95,24.03 39.14,23.77 C45.68,23.19 49.81,17.94 49.81,12.21 Z" fill="none" stroke="currentColor" stroke-width="1.5"/><rect x="0" y="0" width="0" height="0" fill="none" stroke="currentColor"/><path d="M43.35,7.86 C42.8,8.95 41.56,9.43 40.25,8.78 C39.13,8.18 38.82,6.93 39.28,5.96 L40.34,3.79 C41.24,2.64 42.32,2.75 43.04,3.07 C44.24,3.47 44.79,4.8 44.29,5.91 Z M42.81,19.14 C43.09,20.28 42.4,21.46 41.2,21.77 C40.1,22.12 38.78,21.53 38.44,20.14 L37.95,18.23 C37.7,16.84 38.64,15.95 39.44,15.69 C40.46,15.33 41.83,15.73 42.29,17.11 Z M38.17,13.73 C37.32,13.73 36.52,13.03 36.52,12.11 C36.52,10.98 37.45,10.42 38.15,10.42 C39.07,10.42 39.82,11.14 39.82,12.11 C39.82,12.86 39.19,13.73 38.17,13.73 Z M29.5,13.2 C28.33,13.01 27.54,12.06 27.66,10.88 C27.7,9.23 29.17,8.64 29.97,8.78 L32.13,9 C33.26,9.12 34.16,10.11 33.98,11.48 C33.88,12.54 33.03,13.5 31.76,13.45 Z M19.74,9.98 C20.55,9.98 21.9,10.58 21.9,12.16 C21.96,13.48 20.96,14.5 19.68,14.48 L17.63,14.48 C16.71,14.45 15.52,13.77 15.52,12.23 C15.52,10.75 16.68,9.98 17.68,9.98 Z M11.91,4.76 C12.36,6.07 11.53,7.27 10.44,7.55 C9.06,8.01 7.98,7.26 7.62,6.15 L6.95,4.13 C6.67,3.2 7.07,1.94 8.28,1.52 C9.6,0.98 10.82,1.6 11.24,2.74 Z M11.59,13.27 C10.78,13.27 9.97,12.6 9.97,11.6 C9.97,10.63 10.83,9.97 11.57,9.97 C12.7,9.97 13.27,10.86 13.27,11.62 C13.27,12.43 12.65,13.27 11.59,13.27 Z M7.23,18.94 C6.17,19.78 4.78,19.33 4.15,18.49 C3.45,17.71 3.4,16.29 4.48,15.41 L6,14.16 C6.87,13.38 8.21,13.44 9.04,14.37 C9.95,15.22 9.93,16.67 8.94,17.54 Z" fill="none" stroke="currentColor" stroke-width="1.5"/></svg>