<svg xmlns="http://www.w3.org/2000/svg" viewBox="0 0 36.6 42.68" width="24" height="24"><path d="M0,42.68 L0,0 L36.6,0 L36.6,42.68 Z" fill="none" stroke="currentColor" stroke-width="1.5"/><path d="M0,42.68 L0,40.8 L36.6,40.8 L36.6,42.68 Z" fill="none" stroke="currentColor" stroke-width="1.5"/><rect x="0" y="0" width="0" height="0" fill="none" stroke="currentColor"/><path d="M14.77,10.35 L14.77,7.35 L30.97,7.35 L30.97,10.35 Z M5.7,12.08 L5.7,5.55 L12.22,5.55 L12.22,12.08 Z M14.77,21.94 L14.77,18.94 L30.97,18.94 L30.97,21.94 Z M5.7,23.67 L5.7,17.14 L12.22,17.14 L12.22,23.67 Z M14.77,33.53 L14.77,30.53 L30.97,30.53 L30.97,33.53 Z M5.7,35.26 L5.7,28.72 L12.22,28.72 L12.22,35.26 Z" fill="none" stroke="currentColor" stroke-width="1.5"/></svg>