<svg xmlns="http://www.w3.org/2000/svg" viewBox="0 0 30.23 41.93" width="24" height="24"><path d="M15.08,19.42 C10.5,19.42 6.22,15.91 6.22,10.46 L6.23,8.53 C6.23,4.13 10.11,0 15.11,0 C19.96,0 23.92,3.89 23.92,8.74 L23.92,10.65 C23.92,15.28 20.24,19.42 15.08,19.42 Z M30.23,41.93 L24.45,41.93 L24.45,34.12 L23.48,34.12 L23.48,41.93 L6.98,41.93 L6.98,34.12 L6,34.12 L6,41.93 L0,41.93 L0,28.77 C0,23.51 4.51,20.02 9.99,20.02 L20.34,20.02 C25.45,20.02 30.23,23.34 30.23,28.85 Z" fill="none" stroke="currentColor" stroke-width="1.5"/><path d="M6,41.93 L0,41.93 L0,40.05 L6,40.05 Z M6.98,34.12 L6,34.12 L6,32.25 L6.98,32.25 Z M23.48,41.93 L6.98,41.93 L6.98,40.05 L23.48,40.05 Z M24.45,34.12 L23.48,34.12 L23.48,32.25 L24.45,32.25 Z M30.23,41.93 L24.45,41.93 L24.45,40.05 L30.23,40.05 Z M15.08,19.42 C10.51,19.42 6.22,15.9 6.22,10.46 L6.23,8.7 C6.23,14.35 10.93,17.55 15.09,17.55 C20.01,17.55 23.92,13.59 23.92,8.74 L23.92,10.65 C23.92,15.25 20.26,19.42 15.08,19.42 Z" fill="none" stroke="currentColor" stroke-width="1.5"/></svg>