<svg xmlns="http://www.w3.org/2000/svg" viewBox="0 0 39.75 49.21" width="24" height="24"><path d="M39.75,49.21 L25.65,49.21 L25.65,41.62 L14.1,41.62 L14.1,49.21 L0,49.21 L0,0 L39.75,0 Z" fill="none" stroke="currentColor" stroke-width="1.5"/><path d="M25.31,12.34 L25.31,3.79 L26.47,3.79 L26.47,11.32 L30.97,11.32 L30.97,12.34 Z M19.72,12.34 L19.72,4.73 L16.87,4.73 L16.87,3.79 L23.7,3.79 L23.7,4.73 L20.85,4.73 L20.85,12.34 Z M11.77,12.34 L8.77,3.79 L9.97,3.79 L12.46,11.25 L14.92,3.79 L16.13,3.79 L13.05,12.34 Z M5.62,29.18 C5.03,29.72 4.89,30.54 5.37,31.23 C5.94,31.96 6.86,32.09 7.42,31.64 L8.77,30.57 C9.18,30.11 9.36,29.23 8.9,28.51 C8.44,27.87 7.46,27.64 6.73,28.21 Z M10.35,20.41 C10.09,19.49 8.98,19.22 8.27,19.58 C7.6,19.86 7.15,20.56 7.39,21.39 L7.87,22.87 C8.09,23.62 8.91,24.09 10.02,23.65 C10.79,23.31 11.01,22.47 10.84,21.95 Z M10.62,27.6 C11.29,27.6 11.77,27.07 11.77,26.46 C11.77,25.9 11.27,25.35 10.64,25.35 C10.07,25.35 9.52,25.88 9.52,26.49 C9.52,27.05 10.02,27.6 10.62,27.6 Z M16.29,28.5 C16.84,28.5 17.77,28.17 17.77,26.97 C17.77,26.04 17.13,25.43 16.33,25.43 L14.82,25.43 C14.18,25.43 13.35,25.9 13.35,26.88 C13.35,28.09 14.18,28.51 14.75,28.51 Z M24.61,27.76 C25.54,27.8 26.09,27.08 26.16,26.46 C26.31,25.52 25.7,24.79 24.81,24.67 L23.44,24.53 C22.87,24.47 22,24.78 21.81,25.84 C21.74,26.83 22.27,27.47 23.15,27.61 Z M33.24,22.59 C33.6,21.85 33.26,21.02 32.5,20.68 C31.85,20.31 30.96,20.38 30.48,21.24 L29.77,22.65 C29.43,23.37 29.64,24.16 30.43,24.59 C31.35,25.16 32.18,24.65 32.5,24.1 Z M29.05,27.95 C29.63,27.95 30.16,27.54 30.16,26.84 C30.16,26.42 29.83,25.68 29.03,25.68 C28.49,25.68 27.93,26.15 27.93,26.85 C27.93,27.42 28.45,27.95 29.05,27.95 Z M31.42,33.49 C32.26,33.07 32.54,32.33 32.27,31.57 L31.96,30.42 C31.76,29.71 31.04,29.06 30.05,29.33 C29.37,29.57 28.72,30.13 28.93,31.04 L29.3,32.5 C29.59,33.4 30.41,33.93 31.42,33.49 Z M37.07,26.69 C37.07,31.29 33.46,34.82 28.91,34.82 C27.45,34.82 25.62,34.37 23.92,33 C21.87,33.48 19.23,33.89 14.62,33.45 C13.54,34.12 12.18,34.5 10.78,34.5 C5.91,34.5 2.7,30.48 2.7,26.66 C2.7,21.36 7,18.45 10.62,18.45 C15.92,18.45 18.75,22.89 18.75,26.33 C18.79,28.87 17.64,30.87 16.27,32.25 C18.49,32.24 20.51,31.96 22.42,31.5 C21.82,30.62 21,29.02 20.98,26.84 C20.98,22.26 24.68,18.82 29.03,18.82 C33.23,18.82 37.07,22.12 37.07,26.69 Z" fill="none" stroke="currentColor" stroke-width="1.5"/><path d="M10.63,23.15 C10.85,22.82 10.97,22.39 10.84,21.95 L10.35,20.41 C10.09,19.49 8.98,19.22 8.27,19.58 C7.61,19.85 7.14,20.56 7.39,21.39 L7.59,22 C7.9,21.55 8.43,21.34 8.84,21.28 C9.41,21.23 10.08,21.54 10.34,22.24 Z M8.91,30.4 C9.19,29.91 9.33,29.18 8.9,28.51 C8.44,27.87 7.47,27.64 6.73,28.21 L5.62,29.18 C5.03,29.71 4.89,30.54 5.37,31.23 L5.46,31.34 C5.46,31.21 5.55,31.12 5.65,31.03 L6.73,30.1 C7.47,29.5 8.45,29.76 8.91,30.4 Z M11.25,27.41 C11.64,27.16 11.77,26.78 11.77,26.46 C11.77,25.9 11.27,25.35 10.64,25.35 C10.07,25.35 9.52,25.88 9.52,26.49 C9.54,26.84 9.64,27.12 10.05,27.42 C10.36,27.2 10.83,27.14 11.25,27.41 Z M17.5,27.91 C17.67,27.69 17.77,27.35 17.77,26.97 C17.77,26.04 17.12,25.43 16.33,25.43 L14.82,25.43 C14.17,25.43 13.35,25.9 13.35,26.88 C13.34,27.29 13.43,27.62 13.62,27.89 C13.98,27.44 14.47,27.31 14.82,27.31 L16.35,27.31 C16.88,27.31 17.28,27.59 17.5,27.91 Z M18.75,26.33 C18.78,28.87 17.64,30.85 16.27,32.25 C16.8,32.25 17.04,32.25 17.76,32.2 C18.35,31.2 18.87,29.79 18.82,28.12 Z M21.55,31.69 C21.92,31.62 22.16,31.56 22.42,31.5 C21.82,30.62 21,29.01 20.98,26.84 L20.97,28.74 C20.99,29.93 21.24,30.91 21.55,31.69 Z M25.89,27.15 C26.04,26.93 26.14,26.7 26.16,26.46 C26.31,25.52 25.7,24.79 24.81,24.67 L23.44,24.53 C22.87,24.47 22,24.78 21.81,25.84 C21.78,26.36 21.9,26.73 22.1,27.01 C22.5,26.48 23.02,26.37 23.4,26.4 L24.79,26.54 C25.29,26.59 25.68,26.86 25.89,27.15 Z M33.05,22.98 L33.24,22.59 C33.6,21.86 33.26,21.02 32.5,20.68 C31.85,20.31 30.96,20.38 30.48,21.24 L29.77,22.65 C29.48,23.26 29.62,23.83 29.94,24.2 L30.47,23.12 C30.92,22.32 31.71,22.19 32.39,22.5 C32.6,22.6 32.82,22.73 33.05,22.98 Z M29.67,27.77 C29.87,27.64 30.16,27.39 30.16,26.84 C30.16,26.42 29.83,25.68 29.03,25.68 C28.49,25.68 27.93,26.14 27.93,26.85 C27.93,27.15 28.1,27.54 28.42,27.75 C28.73,27.54 29.27,27.44 29.67,27.77 Z M32.13,32.9 C32.45,32.41 32.4,31.98 32.27,31.57 L31.96,30.42 C31.77,29.7 31.04,29.06 30.05,29.33 C29.37,29.57 28.73,30.13 28.93,31.04 L29.13,31.83 C29.41,31.49 29.72,31.19 30.36,31.15 C31.05,31.09 31.72,31.52 31.93,32.22 Z M37.07,26.69 L37.13,28.77 C37.13,32.53 34.22,36.68 28.76,36.68 C28.1,36.68 26.37,36.42 25.1,35.63 C24.73,35.39 24.36,35.14 23.99,34.88 C21.15,35.54 18.04,35.66 14.69,35.33 C13.79,35.85 12.63,36.38 10.57,36.38 C6.99,36.38 2.77,33.32 2.77,28.37 L2.7,26.66 C2.7,30.5 5.91,34.5 10.78,34.5 C12.18,34.5 13.54,34.12 14.62,33.45 C19.23,33.88 21.86,33.49 23.92,33 C25.62,34.36 27.44,34.82 28.91,34.82 C33.46,34.82 37.07,31.29 37.07,26.69 Z M14.1,49.21 L0,49.21 L0,47.33 L14.1,47.33 Z M25.65,41.62 L14.1,41.62 L14.1,39.75 L25.65,39.75 Z M25.65,49.21 L25.65,47.33 L39.75,47.33 L39.75,49.21 Z" fill="none" stroke="currentColor" stroke-width="1.5"/></svg>