<svg xmlns="http://www.w3.org/2000/svg" viewBox="0 0 53.27 35.69" width="24" height="24"><path d="M11.14,35.69 C5.12,35.69 0.47,31.16 0.47,26.96 L0.47,25.21 C0,19.9 4.3,15.73 7.29,14.91 C7.12,11.15 8.78,6.87 12.29,4.01 C17.37,0 23.34,0.61 26.94,2.51 C29.48,3.78 31.77,6.02 33.09,8.98 C35.8,7.17 38.7,7.71 40.36,8.65 C42.6,9.92 43.79,12.17 43.82,14.38 C46.13,14.62 48.87,15.64 51.24,18.69 C52.48,20.32 53.24,23.22 53.27,24.95 L53.27,26.75 C53.27,31.29 48.38,35.69 42.63,35.69 Z" fill="none" stroke="currentColor" stroke-width="1.5"/><path d="M53.27,24.95 L53.27,26.75 C53.27,31.28 48.38,35.69 42.63,35.69 L11.14,35.69 C5.12,35.69 0.47,31.15 0.47,26.96 L0.47,25.21 C0.47,29.03 4.88,33.82 11.05,33.82 L42.16,33.82 C48.75,33.82 53.27,29.27 53.27,24.95 Z" fill="none" stroke="currentColor" stroke-width="1.5"/><rect x="0" y="0" width="0" height="0" fill="none" stroke="currentColor"/><path d="M18.6,29.12 L16.13,29.12 L13.2,16.78 L15.3,16.78 L17.4,26.69 L19.65,16.78 L21.76,16.78 Z M24.98,22.56 L26.44,22.56 C27.23,22.56 27.84,22.18 28.14,21.55 C28.37,21.06 28.44,20.14 28.19,19.38 C27.88,18.52 27.05,18.28 26.41,18.28 L24.98,18.28 Z M24.98,29.12 L23.03,29.12 L23.03,16.78 L26.97,16.78 C28.05,16.78 29.27,17.13 29.87,18.33 C30.36,19.28 30.36,20.59 30.21,21.35 C30.05,22.16 29.64,22.99 28.83,23.51 C28.42,23.74 27.93,24.02 26.77,24.06 L24.98,24.06 Z M39.61,20.61 L37.66,20.61 C37.69,19.87 37.56,19.2 37.29,18.74 C37.01,18.24 36.56,17.92 35.68,17.99 C35.16,18.05 34.48,18.14 34.1,19.37 C33.66,21.03 33.71,23.37 33.85,25.05 C34,26.48 34.34,27.17 34.84,27.55 C35.39,27.9 36.36,27.91 36.88,27.48 C37.49,26.98 37.69,25.95 37.66,24.62 L39.61,24.62 C39.62,25.56 39.52,26.59 39.08,27.47 C38.58,28.45 37.7,29.15 36.28,29.29 C34.46,29.41 33.36,28.9 32.73,27.99 C32.13,27.18 31.75,25.65 31.73,23.21 C31.7,20.97 31.9,19.02 32.69,17.84 C33.25,17.01 34.18,16.37 36.01,16.41 C37.63,16.44 38.66,17.07 39.18,18.09 C39.54,18.85 39.63,19.66 39.61,20.61 Z" fill="none" stroke="currentColor" stroke-width="1.5"/></svg>