<svg xmlns="http://www.w3.org/2000/svg" viewBox="0 0 44.71 54.0" width="24" height="24"><path d="M0,27 L0,11.17 L6.26,8.02 L10.42,9.16 L10.42,5.92 L22.35,0 L44.71,11.17 L44.71,27 L33.75,27 L33.75,17.78 L29.02,16.75 L29.02,27 Z M22.35,54 L10.42,48.07 L10.42,44.85 L6.26,45.97 L0,42.89 L0,31.8 L22.35,30.3 L29.46,30.75 L29.47,31.48 L33.92,31.05 L44.71,31.72 L44.71,42.81 Z" fill="none" stroke="currentColor" stroke-width="1.5"/><path d="M33.75,27 L33.75,17.78 L41.85,16.65 L41.85,27 Z M10.42,27 L10.42,5.92 L22.35,0 L22.35,27 Z M6.26,27 L0,27 L0,11.17 L6.26,8.02 Z M10.42,48.07 L10.42,33.3 L22.35,35.02 L22.35,54 Z M0,42.89 L0,31.8 L6.26,32.69 L6.26,45.97 Z" fill="none" stroke="currentColor" stroke-width="1.5"/><path d="M29.02,16.75 L29.02,12.82 L41.85,16.65 L33.75,17.78 Z" fill="none" stroke="currentColor" stroke-width="1.5"/><path d="M10.42,33.3 L33.92,31.05 L44.71,31.72 L22.35,35.02 Z M0,31.8 L22.35,30.3 L29.46,30.75 L6.26,32.69 Z" fill="none" stroke="currentColor" stroke-width="1.5"/></svg>