<svg xmlns="http://www.w3.org/2000/svg" viewBox="0 0 39.31 32.01" width="24" height="24"><path d="M23.14,8.54 C22.45,7.02 20.99,6.47 19.53,6.43 C17.97,6.43 16.36,6.76 15.52,8.53 Z M15.15,17.46 L23.63,17.45 L23.63,14.38 L15.15,14.38 Z M7.8,32.01 L7.8,17.53 L10.74,17.52 L10.73,14.38 L6.69,14.38 L6.68,17 L0,12.43 L0,10.63 L6.68,6.05 L6.68,8.53 L10.73,8.53 C11.08,5.44 12.76,3.18 15.14,1.89 C18.73,0 23.52,0.72 26.14,2.97 C28.21,4.77 28.52,6.84 28.5,8.53 L32.63,8.53 L32.64,6.06 L39.3,10.63 L39.31,12.35 L32.55,17 L32.55,14.38 L28.43,14.39 L28.43,17.46 L31.35,17.46 L31.35,32.01 Z" fill="none" stroke="currentColor" stroke-width="1.5"/><path d="M15.15,8.53 C15.18,7.02 15.74,5.92 16.62,5.3 C18.14,4.18 21.18,4.36 22.29,5.52 C23.2,6.32 23.54,7.48 23.63,8.53 L23.14,8.54 C22.45,7.02 21,6.47 19.53,6.43 C17.98,6.43 16.36,6.75 15.52,8.53 Z M32.55,15.21 L39.3,10.63 L39.31,12.35 L32.55,17 Z M28.43,14.39 L28.43,12.58 L32.55,12.59 L32.55,14.38 Z M15.15,14.38 L15.15,12.58 L23.63,12.58 L23.63,14.38 Z M6.69,14.38 L6.68,12.58 L10.74,12.58 L10.73,14.38 Z M6.68,17 L0,12.43 L0,10.63 L6.69,15.21 Z M7.8,32.01 L7.8,30.2 L31.35,30.2 L31.35,32.01 Z" fill="none" stroke="currentColor" stroke-width="1.5"/></svg>