<svg xmlns="http://www.w3.org/2000/svg" viewBox="0 0 45.6 47.54" width="24" height="24"><path d="M22.9,47.54 C9.82,47.54 0,37.09 0,25.05 L0,22.4 C0,10.92 9.38,0 22.99,0 C35.55,0 45.6,10.36 45.6,22.5 L45.6,24.82 C45.6,37.83 35.04,47.54 22.9,47.54 Z" fill="none" stroke="currentColor" stroke-width="1.5"/><path d="M22.9,47.54 C9.81,47.54 0,37.04 0,25.05 L0,22.4 C0,35.92 10.5,45.6 22.93,45.6 C34.46,45.6 45.6,36.51 45.6,22.5 L45.6,24.82 C45.6,37.78 35.04,47.54 22.9,47.54 Z" fill="none" stroke="currentColor" stroke-width="1.5"/><rect x="0" y="0" width="0" height="0" fill="none" stroke="currentColor"/><path d="M19.73,22.72 L25.99,22.72 L25.99,18.39 C25.99,17.02 25.18,15.29 22.88,15.29 C20.43,15.29 19.73,17.08 19.73,18.22 Z M13.65,32.93 L13.65,22.72 L16.8,22.72 L16.8,18.19 C16.8,15.88 19.2,12.74 22.87,12.74 C26.67,12.74 28.95,16 28.95,18.4 L28.95,22.72 L32.03,22.72 L32.03,32.93 Z" fill="none" stroke="currentColor" stroke-width="1.5"/></svg>