<svg xmlns="http://www.w3.org/2000/svg" viewBox="0 0 40.32 42.17" width="24" height="24"><path d="M0,42.17 L0,0 L40.32,0 L40.32,42.17 Z" fill="none" stroke="currentColor" stroke-width="1.5"/><path d="M0,42.17 L0,40.27 L40.32,40.27 L40.32,42.17 Z" fill="none" stroke="currentColor" stroke-width="1.5"/><rect x="0" y="0" width="0" height="0" fill="none" stroke="currentColor"/><path d="M20.21,26.01 C16.88,26.01 14.27,23.37 14.27,20.14 C14.27,16.66 17.18,14.23 20.03,14.23 C23.84,14.23 26.04,17.35 26.04,20.04 C26.04,23.5 23.29,26.01 20.21,26.01 Z M20.33,30.6 C25.72,30.6 30.66,26.08 30.66,19.98 C30.66,14.48 26.16,9.6 19.99,9.6 C14.93,9.6 9.66,13.79 9.66,20.19 C9.66,25.69 14.07,30.6 20.33,30.6 Z M10.22,34.73 L5.58,30.07 L7.47,28.17 C6.55,26.69 5.85,25.09 5.49,23.41 L2.82,23.41 L2.82,16.85 L5.49,16.84 C5.84,15.15 6.58,13.48 7.47,12.07 L5.58,10.2 L10.22,5.55 L12.12,7.44 C13.69,6.46 15.28,5.82 16.88,5.47 L16.88,2.79 L23.44,2.79 L23.44,5.48 C25.35,5.9 26.9,6.64 28.2,7.45 L30.1,5.56 L34.75,10.18 L32.86,12.07 C33.9,13.72 34.49,15.38 34.82,16.84 L37.49,16.84 L37.49,23.42 L34.82,23.42 C34.38,25.33 33.67,26.88 32.84,28.18 L34.74,30.07 L30.11,34.72 L28.21,32.82 C26.86,33.65 25.37,34.37 23.46,34.79 L23.45,37.48 L16.88,37.48 L16.88,34.81 C15.1,34.4 13.52,33.72 12.12,32.82 Z" fill="none" stroke="currentColor" stroke-width="1.5"/></svg>