<svg xmlns="http://www.w3.org/2000/svg" viewBox="0 0 55.5 63.75" width="24" height="24"><path d="M27.75,63.75 L0,47.77 L0,15.9 L27.75,0 L55.5,15.9 L55.5,47.77 Z" fill="none" stroke="currentColor" stroke-width="1.5"/><path d="M25.61,34.94 L43.57,34.94 L43.57,20.18 L21.3,20.18 L21.3,24.59 L24.19,24.59 C25.04,24.59 25.61,25.24 25.61,26.03 Z M22.72,43.42 L22.72,27.53 L11.4,27.53 L11.4,43.42 Z M18.23,45.29 C18.23,44.57 17.63,44.1 17.05,44.1 C16.25,44.1 15.83,44.75 15.83,45.24 C15.83,46.07 16.42,46.49 16.98,46.49 C17.9,46.49 18.23,45.75 18.23,45.29 Z M30.29,40.12 L30.29,37.84 L25.61,37.84 L25.61,40.57 C27.22,40.31 28.75,40.18 30.29,40.12 Z M42.37,43.65 L25.61,43.65 L25.61,45.77 C25.61,46.38 25.07,47.18 24.17,47.18 L9.88,47.18 C9.12,47.18 8.47,46.53 8.47,45.77 L8.47,26.06 C8.47,25.21 9.11,24.59 9.9,24.59 L18.29,24.59 L18.29,17.18 L46.35,17.18 L46.35,37.84 L34.27,37.84 L34.27,40.13 C36.03,40.22 37.77,40.37 39.46,40.72 C40.39,40.91 42.37,41.39 42.37,42.15 Z" fill="none" stroke="currentColor" stroke-width="1.5"/></svg>