<svg xmlns="http://www.w3.org/2000/svg" viewBox="0 0 51.0 57.48" width="24" height="24"><path d="M39.12,52.72 L29.63,57.47 L25.55,55.68 L21.4,57.48 L11.91,52.73 L15.31,46.78 L5.12,49.35 L0,46.79 L7.22,28.77 L0,10.7 L5.12,8.15 L15.31,10.71 L11.91,4.75 L21.4,0 L25.55,1.82 L29.63,0.02 L39.12,4.77 L35.77,10.69 L45.88,8.15 L51,10.71 L43.84,28.77 L51,46.78 L45.88,49.34 L35.77,46.8 Z" fill="none" stroke="currentColor" stroke-width="1.5"/><path d="M25.55,5.74 L25.55,1.82 L29.63,0.02 Z M25.55,28.77 L11.91,4.75 L21.4,0 L25.55,5.74 Z M25.55,55.68 L25.55,51.75 L29.63,57.47 Z M11.91,52.73 L25.55,28.77 L25.55,51.75 L21.4,57.48 Z M5.12,49.35 L0,46.79 L7.22,28.77 L0,10.7 L5.12,8.15 L14.79,28.77 Z" fill="none" stroke="currentColor" stroke-width="1.5"/><path d="M25.55,28.77 L36.28,28.77 L45.88,49.34 L35.77,46.8 Z M5.12,49.35 L14.79,28.77 L25.55,28.77 L15.31,46.78 Z" fill="none" stroke="currentColor" stroke-width="1.5"/><path d="M25.55,28.77 L35.77,10.69 L45.88,8.15 L36.28,28.77 Z M14.79,28.77 L5.12,8.15 L15.31,10.71 L25.55,28.77 Z" fill="none" stroke="currentColor" stroke-width="1.5"/></svg>