<svg xmlns="http://www.w3.org/2000/svg" viewBox="0 0 162.7 162.7" width="24" height="24"><path d="M105.29,106.59 L103.03,123.8 L120.49,126.07 L122.76,108.85 Z M107.56,111.12 L118.23,111.12 L118.23,121.54 L107.56,121.54 Z M88.89,60.28 L86.62,77.5 L104.09,79.77 L106.36,62.55 Z M91.16,64.82 L101.82,64.82 L101.82,75.23 L91.16,75.23 Z M41.42,106.59 C40.16,106.59 39.15,107.6 39.15,108.85 L39.15,123.8 C39.15,125.06 40.16,126.07 41.42,126.07 L56.62,126.07 C57.87,126.07 58.88,125.06 58.88,123.8 L58.88,108.85 C58.88,107.6 57.87,106.59 56.62,106.59 Z M59.59,60.28 C58.34,60.28 57.32,61.3 57.32,62.55 L57.32,77.5 C57.32,78.75 58.34,79.77 59.59,79.77 L74.79,79.77 C76.04,79.77 77.06,78.75 77.06,77.5 L77.06,62.55 C77.06,61.3 76.04,60.28 74.79,60.28 Z M88.89,31.09 C87.64,31.09 86.62,32.1 86.62,33.36 L86.62,48.3 C86.62,49.56 87.64,50.57 88.89,50.57 L104.09,50.57 C105.34,50.57 106.36,49.56 106.36,48.3 L106.36,33.36 C106.36,32.1 105.34,31.09 104.09,31.09 Z M81.69,85.12 L61.33,102.02 L63.57,104.71 L81.69,89.67 L99.88,104.78 L102.12,102.09 Z M162.7,81.35 Z M59.59,31.09 L57.32,48.3 L74.79,50.57 L77.06,33.36 Z M61.86,35.62 L72.53,35.62 L72.53,46.04 L61.86,46.04 Z" fill="none" stroke="currentColor" stroke-width="1.5"/></svg>