<svg xmlns="http://www.w3.org/2000/svg" viewBox="0 0 172.47 152.79" width="24" height="24"><path d="M51.7,152.79 C45.87,152.79 40.28,149.66 37.37,143.8 L3.1,83.87 C0,78.64 0.49,72.56 3.09,68.2 L37.66,8.26 C40.59,2.8 45.82,0 51.14,0 L120.54,0 C125.7,0 130.81,2.54 133.87,7.65 L168.31,67.55 C172.47,73.86 171.04,80.59 168.69,84.34 L134.44,143.89 C132.15,148.72 126.97,152.79 120.31,152.79 Z" fill="none" stroke="currentColor" stroke-width="1.5"/><path d="M102.8,152.79 L48.37,98.75 L49.61,55.75 L79.72,53.44 L85.87,59.33 L86.31,59.06 L69.92,43.48 L124.5,54.6 L163.54,93.29 L134.44,143.89 C132.17,148.72 126.97,152.79 120.31,152.79 Z" fill="none" stroke="currentColor" stroke-width="1.5"/><rect x="0" y="0" width="0" height="0" fill="none" stroke="currentColor"/><path d="M86.06,32.19 C85.78,32.18 85.5,32.25 85.26,32.4 L70.19,41.2 C69.18,41.79 69.19,43.25 70.2,43.83 L107.15,64.82 L107.15,81.39 C107.15,82.55 108.41,83.28 109.41,82.71 L124.63,74 C125.1,73.73 125.39,73.23 125.39,72.68 L125.39,56.44 C125.39,55.59 124.72,54.57 123.84,54.11 L86.78,32.4 C86.56,32.27 86.32,32.2 86.06,32.19 Z M64.68,44.87 C64.4,44.86 64.13,44.93 63.89,45.07 L48.72,53.75 C48.17,54.07 47.95,54.46 47.95,55.06 L47.95,97.72 C47.95,98.27 48.25,98.77 48.72,99.04 L62.67,107.02 C63.68,107.6 64.93,106.87 64.93,105.71 L64.93,64.18 L79.36,55.73 C80.36,55.15 80.35,53.7 79.35,53.12 L65.4,45.07 C65.18,44.95 64.93,44.88 64.68,44.87 Z M86.38,57.52 C86.11,57.52 85.83,57.59 85.6,57.72 L70.42,66.4 C70.4,66.41 70.39,66.42 70.38,66.43 C70.35,66.44 70.33,66.46 70.31,66.47 C70.29,66.48 70.28,66.49 70.26,66.51 C70.24,66.52 70.21,66.54 70.19,66.56 C70.17,66.58 70.15,66.59 70.14,66.61 C70.12,66.63 70.1,66.65 70.08,66.67 C70.07,66.68 70.06,66.69 70.04,66.71 C70.02,66.73 70,66.76 69.98,66.79 C69.97,66.8 69.96,66.81 69.95,66.82 C69.93,66.85 69.91,66.88 69.89,66.91 C69.88,66.92 69.88,66.93 69.87,66.94 C69.85,66.97 69.83,67.01 69.81,67.05 C69.81,67.05 69.81,67.06 69.8,67.07 C69.78,67.11 69.77,67.15 69.75,67.19 L69.75,67.19 C69.75,67.2 69.75,67.2 69.75,67.2 C69.73,67.24 69.72,67.28 69.71,67.33 C69.7,67.34 69.7,67.36 69.7,67.38 C69.69,67.4 69.68,67.43 69.68,67.45 C69.67,67.48 69.67,67.51 69.67,67.54 C69.66,67.56 69.66,67.59 69.66,67.61 C69.66,67.63 69.66,67.65 69.66,67.67 C69.66,67.68 69.66,67.7 69.66,67.71 L69.66,85.12 C69.66,85.66 69.95,86.17 70.42,86.44 L85.63,95.15 C86.11,95.43 86.63,95.45 87.14,95.15 L102.35,86.43 C102.82,86.17 103.11,85.66 103.11,85.12 L103.11,68.15 C103.11,66.87 102.38,66.34 101.56,65.91 L87.1,57.73 C86.88,57.6 86.63,57.53 86.38,57.52 Z M50.98,57.71 L61.91,64.17 L61.91,103.1 L50.98,96.85 Z M72.68,70.36 L84.87,77.45 L84.87,91.23 L72.68,84.25 Z M123.24,79.11 C122.99,79.12 122.75,79.19 122.53,79.31 L86.15,100.2 L71.68,91.96 C71.46,91.84 71.21,91.77 70.96,91.77 C70.11,91.75 69.42,92.43 69.42,93.28 L69.42,110.69 C69.42,111.23 69.71,111.73 70.18,112 L85.4,120.71 C85.4,120.71 85.4,120.71 85.4,120.71 C85.44,120.73 85.48,120.75 85.53,120.77 C85.53,120.78 85.54,120.78 85.54,120.78 C85.58,120.8 85.62,120.81 85.66,120.83 C85.67,120.83 85.67,120.83 85.68,120.83 C85.87,120.9 86.07,120.92 86.27,120.9 L86.28,120.9 C86.32,120.9 86.37,120.89 86.42,120.88 C86.42,120.88 86.42,120.88 86.43,120.88 C86.6,120.85 86.77,120.79 86.92,120.7 L124.06,98.72 C124.52,98.45 124.8,97.95 124.8,97.42 L124.8,80.62 C124.8,79.77 124.1,79.08 123.24,79.11 Z M72.44,95.88 L84.64,102.82 L84.64,116.79 L72.44,109.81 Z" fill="none" stroke="currentColor" stroke-width="1.5"/></svg>