<svg xmlns="http://www.w3.org/2000/svg" viewBox="0 0 172.47 152.76" width="24" height="24"><path d="M51.7,152.76 C45.87,152.76 40.28,149.66 37.37,143.8 L3.1,83.87 C0,78.64 0.49,72.56 3.09,68.2 L37.66,8.26 C40.59,2.8 45.82,0 51.14,0 L120.54,0 C125.7,0 130.81,2.54 133.87,7.65 L168.31,67.55 C172.47,73.86 171.04,80.59 168.69,84.34 L134.44,143.89 C132.15,148.72 126.97,152.76 120.31,152.76 Z" fill="none" stroke="currentColor" stroke-width="1.5"/><path d="M111.02,152.76 L45.97,88.45 C41.77,65.03 52.28,57.64 73.36,61.77 L93.52,82.36 L93.2,77.6 L85.2,69.52 C88.81,61.03 93.76,56.38 96.84,54.09 L104.06,60.62 L123.9,62.44 L160.39,98.76 L134.44,143.89 C132.17,148.72 126.97,152.76 120.31,152.76 Z" fill="none" stroke="currentColor" stroke-width="1.5"/><rect x="0" y="0" width="0" height="0" fill="none" stroke="currentColor"/><path d="M75.23,56.09 C74.05,55.29 74.93,53.51 76.08,53.51 L95.51,53.51 C97,53.51 97.61,55.02 96.42,56.04 C93.27,58.78 89.12,63.34 87.18,68.83 C86.83,70.06 85.19,70.12 84.78,68.9 C82.77,63.45 79.28,58.91 75.23,56.09 Z M111.15,84.2 C106.4,84.2 103.2,80.38 103.2,76.2 C103.2,71.87 106.62,68.6 110.95,68.6 C115.2,68.6 118.76,71.71 118.76,76.56 C118.76,80.8 115.28,84.2 111.15,84.2 Z M110.64,89.75 C117.8,89.75 124.2,83.31 124.2,76.62 C124.2,70.13 118.76,63.05 111.17,63.05 C105.01,63.05 97.71,67.7 97.71,76.66 C97.71,84.15 104.6,89.75 110.64,89.75 Z M111.08,95.78 C101.99,95.78 91.7,88.15 91.7,76.82 C91.7,66.22 99.86,57.13 111.18,57.13 C120.53,57.13 130.03,64.34 130.03,76.76 C130.03,87.45 120.98,95.78 111.08,95.78 Z M61.15,84.06 C57.19,84.06 53.15,80.73 53.15,76.36 C53.15,72.77 55.96,68.71 60.96,68.71 C65.5,68.71 68.56,71.98 68.56,76.92 C68.56,80.86 64.9,84.06 61.15,84.06 Z M60.85,89.63 C67.77,89.63 74.09,83.5 74.09,76.82 C74.09,67.62 66.76,63.12 61.14,63.12 C53.27,63.12 47.54,70.18 47.54,76.18 C47.54,83.15 53.41,89.63 60.85,89.63 Z M60.82,95.63 C49.59,95.63 41.79,85.98 41.79,76.04 C41.79,63.79 52.5,56.94 60.96,56.94 C70.53,56.94 80.13,65.17 80.13,76.61 C80.13,85.64 72.49,95.63 60.82,95.63 Z" fill="none" stroke="currentColor" stroke-width="1.5"/></svg>