<svg xmlns="http://www.w3.org/2000/svg" viewBox="0 0 172.47 152.79" width="24" height="24"><path d="M51.7,152.79 C45.87,152.79 40.28,149.66 37.37,143.8 L3.1,83.87 C0,78.64 0.49,72.56 3.09,68.2 L37.66,8.26 C40.59,2.8 45.82,0 51.14,0 L120.54,0 C125.7,0 130.81,2.54 133.87,7.65 L168.31,67.55 C172.47,73.86 171.04,80.59 168.69,84.34 L134.44,143.89 C132.15,148.72 126.97,152.79 120.31,152.79 Z" fill="none" stroke="currentColor" stroke-width="1.5"/><path d="M98.45,152.79 L52.88,107.25 L53.87,88.21 L64.92,75.53 L51.99,60.16 L59.57,43.81 L72.99,43.57 L85.62,55.28 L101.47,43.89 L117.91,44.41 L164.66,91.32 L134.44,143.89 C132.17,148.72 126.97,152.79 120.31,152.79 Z" fill="none" stroke="currentColor" stroke-width="1.5"/><rect x="0" y="0" width="0" height="0" fill="none" stroke="currentColor"/><path d="M65.56,70.96 L80.57,56.05 L72.75,48.36 C70.17,45.75 63.68,45.7 59.27,49.47 C56.27,52.28 54.69,58.95 58.02,63.1 Z M106.09,71.22 L113.76,63.55 C116.82,60.01 116.57,53.95 112.81,49.79 C107.84,45.06 101.13,46.52 98.62,48.95 L90.88,56.14 Z M65.95,81.7 L58.28,89.12 C55.72,91.24 54.69,98 58.79,102.86 C62.43,106.76 68.96,106.91 71.96,104.91 L80.65,96.53 Z M85.76,87.97 C91.91,87.97 97.33,82.88 97.33,76.97 C97.33,67.28 89.46,64.89 86.59,64.89 C78.58,64.89 74.26,71.19 74.26,76.33 C74.26,83.32 80.79,87.97 85.76,87.97 Z M91.16,96.6 L98.42,103.63 C102.67,107.79 109.04,106.58 112.74,103.18 C116.96,99.21 116.38,92.3 113.82,89.41 L106.18,81.38 Z M78.15,109.67 C70.97,115.39 60.47,115.68 52.88,107.25 C47.98,101.83 46.77,89.64 53.74,83.17 L60.64,76.53 L52.14,67.77 C47.98,62.66 46.37,51.6 53.93,44.37 C60.58,37.77 71.32,37.4 76.94,42.2 L86.02,50.89 L92.92,43.74 C100.54,36.65 111.77,37.76 117.91,44.41 C124.53,51.05 124.95,62.53 119.38,68.47 L111.2,76.53 L118.94,84 C124.33,90.22 125.39,101.25 117.59,108.68 C109.31,115.96 99.18,114.89 93.69,109.57 L86.06,101.76 Z" fill="none" stroke="currentColor" stroke-width="1.5"/></svg>