<svg xmlns="http://www.w3.org/2000/svg" viewBox="0 0 31.63 25.38" width="24" height="24"><path d="M3.12,0 L28.51,0 C30.24,0 31.63,1.39 31.63,3.12 L31.63,22.26 C31.63,23.99 30.24,25.38 28.51,25.38 L3.12,25.38 C1.39,25.38 0,23.99 0,22.26 L0,3.12 C0,1.39 1.39,0 3.12,0 Z" fill="none" stroke="currentColor" stroke-width="1.5"/><path d="M28.56,7.33 L28.56,21.77 L22.02,21.77 L22.02,7.33 Z M3.11,15.28 L20.71,15.28 L20.71,21.77 L3.11,21.77 Z M3.11,7.33 L20.71,7.33 L20.71,13.83 L3.11,13.83 Z" fill="none" stroke="currentColor" stroke-width="1.5"/></svg>