<svg xmlns="http://www.w3.org/2000/svg" viewBox="0 0 126.72 120.23" width="24" height="24"><path d="M84.72,46.58 L91.29,36.98 C83,29.53 74.67,21.45 66.62,17.24 C57.18,11.67 45.65,8.65 36.48,14.21 C45.42,3.32 60.47,0 76.26,4.34 C86.57,7.08 96.43,12.37 104.23,17.66 L110.61,7.93 L126.72,46.67 Z M40.14,105.25 C31.26,103.57 18,95.46 12.95,76.44 C10.49,67.23 9.94,55.42 11.42,43.67 L0,42.63 L26.68,10.31 L46.08,47.39 L34.5,46.01 C31.9,56.74 28.69,67.43 28.51,77.03 C27.94,92.39 32.52,99.7 40.14,105.25 Z M44.98,111.82 L68.57,76.99 L72.99,87.92 C85.65,85.24 101.77,81.18 111.03,73.97 C118.57,68.49 122.06,62.19 122.53,55.35 C126.53,67.75 120.29,81.81 113.26,89.05 C105.27,97.82 93.54,104.6 81.79,109.56 L86.23,120.23 Z" fill="none" stroke="currentColor" stroke-width="1.5"/></svg>