<svg xmlns="http://www.w3.org/2000/svg" viewBox="0 0 172.47 152.79" width="24" height="24"><path d="M51.7,152.79 C45.87,152.79 40.28,149.66 37.37,143.8 L3.1,83.87 C0,78.64 0.49,72.56 3.09,68.2 L37.66,8.26 C40.59,2.8 45.82,0 51.14,0 L120.54,0 C125.7,0 130.81,2.54 133.87,7.65 L168.31,67.55 C172.47,73.86 171.04,80.59 168.69,84.34 L134.44,143.89 C132.15,148.72 126.97,152.79 120.31,152.79 Z" fill="none" stroke="currentColor" stroke-width="1.5"/><path d="M106.27,152.79 L68.55,115 L71.15,105.49 L52.17,86.8 L68.77,48.96 L103.74,38.22 L161.86,96.21 L134.44,143.89 C132.17,148.72 126.97,152.79 120.31,152.79 Z" fill="none" stroke="currentColor" stroke-width="1.5"/><rect x="0" y="0" width="0" height="0" fill="none" stroke="currentColor"/><path d="M83.76,59.74 L83.76,64.31 L72.92,64.31 L72.92,69.31 L99.67,69.31 L99.67,64.31 L88.76,64.31 L88.76,59.74 Z M77.73,73.27 C78.91,76.43 80.94,79.5 83.07,81.97 C80.17,84.46 76.47,86.42 72.26,87.81 L74.86,92.18 C79.4,90.35 83,88.53 86.45,85.27 C89.76,88.65 93.75,90.51 97.86,91.89 L100.34,87.35 C96.47,85.99 92.84,84.37 89.88,81.93 C92.25,79.29 93.95,76.15 95.19,73.25 L89.65,73.2 C88.95,74.75 87.87,76.95 86.39,78.65 C85.11,77.12 84.02,75.35 83.18,73.19 Z M120.13,66.42 L128.21,80.43 L108.23,115 L68.55,115 L64.37,108.07 L68.38,100.99 L100.16,100.99 Z M52.17,86.8 L44.09,72.79 L64.07,38.22 L103.74,38.22 L107.93,45.15 L103.91,52.23 L72.14,52.23 Z" fill="none" stroke="currentColor" stroke-width="1.5"/></svg>