<svg xmlns="http://www.w3.org/2000/svg" viewBox="0 0 189.19 62.99" width="24" height="24"><path d="M0.68,42.91 C0.29,42.91 0,42.55 0.22,41.75 L7.36,21.18 C7.64,20.33 7.92,20.07 8.63,20.07 L12.5,20.07 C13.08,20.07 13.5,20.42 13.63,20.77 L20.98,41.74 C21.26,42.44 21.02,42.91 20.19,42.91 L17.05,42.94 C16.66,42.94 16.31,42.67 16.19,42.16 L14.75,37.59 L6.01,37.59 L4.59,42.13 C4.4,42.69 3.95,42.91 3.42,42.91 Z M6.95,34.26 L13.77,34.26 L10.33,24.07 Z M63.36,20.07 C64.13,20.07 64.31,20.37 64.09,21.12 L57.17,41.73 C56.97,42.43 56.66,42.91 55.74,42.91 L51.92,42.91 C51.29,42.91 50.92,42.41 50.68,41.65 L43.81,21.31 C43.62,20.7 43.65,20.07 44.5,20.07 L47.15,20.07 C47.87,20.07 48.41,20.29 48.62,21.04 L54.16,38.77 L59.77,20.8 C59.93,20.35 60.15,20.07 60.87,20.07 Z M132.79,42.91 C132.21,42.91 131.87,42.39 131.87,41.71 L131.87,21.62 C131.86,20.84 132.32,20.07 133.13,20.07 L140.62,20.07 C145.21,20.07 147.6,22.82 147.6,26.34 C147.6,29.06 146.28,31.31 143.19,32.17 C144.27,32.85 145.47,34.18 146.08,35.57 L148.62,41.53 C148.92,42.37 148.64,42.91 147.96,42.91 L144.92,42.91 C144.32,42.91 144.12,42.75 143.83,42.09 L141.53,36.42 C140.92,34.83 139.9,33.41 137.91,33.41 L136.48,33.41 L136.48,41.84 C136.48,42.46 136.14,42.91 135.38,42.91 Z M139.38,30.21 C141.61,30.21 142.98,28.53 142.98,26.79 C142.98,24.65 141.38,23.57 139.63,23.57 L136.48,23.57 L136.48,30.21 Z M177.17,42.91 C176.38,42.91 175.81,42.35 175.81,41.29 L175.81,21.53 C175.81,20.72 176.27,20.07 176.87,20.07 L188.23,20.07 C188.81,20.07 189.19,20.48 189.19,21.01 L189.19,22.61 C189.19,23.27 188.76,23.57 188.29,23.57 L180.34,23.57 L180.34,29.33 L187,29.33 C187.54,29.33 187.87,29.66 187.87,30.19 L187.87,32.11 C187.87,32.58 187.45,32.8 187,32.8 L180.34,32.8 L180.34,39.3 L188.14,39.3 C188.84,39.3 189.19,39.63 189.19,40.27 L189.19,42.18 C189.19,42.69 188.86,42.92 188.37,42.91 Z" fill="none" stroke="currentColor" stroke-width="1.5"/><path d="M91.93,43.16 C91.13,43.16 90.54,42.6 90.54,41.51 L90.54,21.41 C90.54,20.59 91.01,19.9 91.62,19.9 L103.28,19.9 C103.87,19.9 104.29,20.28 104.29,20.82 L104.29,22.87 C104.29,23.53 103.77,23.82 103.29,23.82 L95.48,23.82 L95.48,29.1 L102.16,29.1 C102.71,29.1 103.04,29.44 103.04,29.97 L103.04,32.26 C103.04,32.74 102.62,32.98 102.16,32.98 L95.48,32.98 L95.48,39.06 L103.36,39.06 C104.07,39.06 104.29,39.68 104.29,40.33 L104.29,42.27 C104.29,42.79 103.82,43.17 103.32,43.16 Z" fill="none" stroke="currentColor" stroke-width="1.5"/><path d="M90.72,49.77 L103.88,49.77 L103.88,53.04 L90.72,53.04 Z M90.72,9.97 L103.88,9.97 L103.88,13.24 L90.72,13.24 Z" fill="none" stroke="currentColor" stroke-width="1.5"/><path d="M90.72,59.72 L103.88,59.72 L103.88,62.99 L90.72,62.99 Z M90.72,0 L103.88,0 L103.88,3.27 L90.72,3.27 Z" fill="none" stroke="currentColor" stroke-width="1.5"/></svg>