<svg xmlns="http://www.w3.org/2000/svg" viewBox="0 0 172.47 152.79" width="24" height="24"><path d="M51.7,152.79 C45.87,152.79 40.28,149.66 37.37,143.8 L3.1,83.87 C0,78.64 0.49,72.56 3.09,68.2 L37.66,8.26 C40.59,2.8 45.82,0 51.14,0 L120.54,0 C125.7,0 130.81,2.54 133.87,7.65 L168.31,67.55 C172.47,73.86 171.04,80.59 168.69,84.34 L134.44,143.89 C132.15,148.72 126.97,152.79 120.31,152.79 Z" fill="none" stroke="currentColor" stroke-width="1.5"/><path d="M101.89,152.79 L54.34,105.29 L46.83,61.75 L72.65,37.75 L98.78,37.53 L101.98,35.71 L117.95,31.91 L169.31,83.27 L168.69,84.34 L134.44,143.89 C132.17,148.72 126.97,152.79 120.31,152.79 Z" fill="none" stroke="currentColor" stroke-width="1.5"/><rect x="0" y="0" width="0" height="0" fill="none" stroke="currentColor"/><path d="M110.27,44.18 C112.55,44.18 115.26,42.44 115.26,39.13 C115.26,36.63 113.09,34.37 110.53,34.37 C108.15,34.37 105.32,36.38 105.32,39.23 C105.32,41.64 108.22,44.18 110.27,44.18 Z M84.8,119.1 C65.63,119.1 42.82,101.91 42.82,77.27 C42.82,50.66 64.87,33.76 84.74,33.76 C91.33,33.76 96.19,35.18 99.79,36.35 C100.72,31.86 104.93,28.3 110.29,28.3 C116.23,28.3 121.5,33.26 121.5,39.37 C121.55,44.42 117.9,48.55 116.2,50.16 C113.36,52.96 108.6,56.14 105.52,58.11 C102.98,53.2 100.61,48.67 99.82,43.22 C88.84,39.08 78.66,39.23 65.8,46.16 L73.42,46.16 C72.37,48.12 71.27,49.72 70.32,52.46 L58.4,52.46 C57.27,53.87 56.16,55.13 54.92,57.22 L68.48,57.22 C67.93,59.13 67.36,60.84 66.92,63.55 L51.64,63.55 C51.12,64.92 50.59,66.12 49.94,68.31 L66.04,68.31 C65.9,70.55 65.66,72.6 65.86,75.06 L49.03,75.06 C49.12,76.6 49.14,77.81 49.34,79.68 L65.88,79.68 C65.97,81.77 66.18,83.77 66.74,86.22 L50.58,86.22 C50.84,87.87 51.25,89.4 51.73,90.84 L67.45,90.84 C68.07,93.19 68.73,95.46 69.46,97.2 L55.72,97.2 C57.06,98.81 58.28,100.32 60.19,102.17 L71.6,102.17 L75.69,108.53 L68.54,108.53 C72.95,110.46 78.03,112.54 86.85,112.54 C102.3,112.54 121.43,99.03 121.43,76.14 C121.43,69.96 119.46,62.63 114.59,55.11 L119.06,50.7 C123.72,56.32 127.82,64.49 127.82,76.46 C127.82,100.47 108.38,119.1 84.8,119.1 Z" fill="none" stroke="currentColor" stroke-width="1.5"/></svg>