<svg xmlns="http://www.w3.org/2000/svg" viewBox="0 0 146.36 146.82" width="24" height="24"><path d="M70.4,81.09 C69.13,81.97 68.64,81.5 68.64,80.33 L68.64,59.46 C68.64,58.79 68.95,58.55 69.69,58.55 L80.53,58.55 C80.91,58.55 81.17,58.73 81.17,59.17 L81.17,69.13 C78.96,73.93 74.69,78.29 70.4,81.09 Z M35.66,81.04 C35.66,81.99 34.88,82.19 33.89,81.48 C29.97,78.73 25.7,74.5 23.01,69.97 L23.01,51.81 C23.01,51.08 23.5,50.8 24.29,50.8 L34.45,50.82 C35.38,50.82 35.66,51.15 35.66,51.93 Z M45.32,85.41 L45.32,35.99 C45.32,35.55 45.72,35.2 46.34,35.2 L56.83,35.2 C57.6,35.2 57.97,35.56 57.97,36.24 L57.97,85.31 C57.97,85.95 57.47,86.24 56.46,86.48 C54.9,86.84 48.85,86.9 46.47,86.38 C45.99,86.31 45.31,85.89 45.31,85.41 Z M51.07,91.8 C74.39,91.8 91.8,73.04 91.8,51.74 C91.8,30.4 74.43,11.39 51.65,11.39 C29.46,11.39 11.16,29.65 11.16,51.78 C11.16,72.9 28.81,91.8 51.07,91.8 Z M83.97,91.72 C75.02,98.92 62.94,103.24 51.78,103.24 C21.68,103.24 0,78.46 0,52.02 C0,21.6 24.44,0 51.51,0 C78.37,0 103.06,21.3 103.06,51.89 C103.06,64.06 98.92,74.86 91.65,84.1 L93.06,85.73 L104.38,87.77 L144.16,127.59 C146.36,129.97 145.25,135.97 140.49,140.48 C135.84,144.89 130.45,146.82 127.44,144.2 L87.7,104.52 L85.74,93.43 Z" fill="none" stroke="currentColor" stroke-width="1.5"/></svg>