<svg xmlns="http://www.w3.org/2000/svg" viewBox="0 0 172.47 152.82" width="24" height="24"><path d="M51.7,152.82 C45.87,152.82 40.28,149.66 37.37,143.8 L3.1,83.87 C0,78.64 0.49,72.56 3.09,68.2 L37.66,8.26 C40.59,2.8 45.82,0 51.14,0 L120.54,0 C125.7,0 130.81,2.54 133.87,7.65 L168.31,67.55 C172.47,73.86 171.04,80.59 168.69,84.34 L134.44,143.89 C132.15,148.72 126.97,152.82 120.31,152.82 Z" fill="none" stroke="currentColor" stroke-width="1.5"/><path d="M118.38,152.82 L63.1,97.65 L60.69,62.3 L89.57,46.94 L107.94,54.49 L157.23,104.31 L134.44,143.89 C132.17,148.72 126.97,152.82 120.31,152.82 Z" fill="none" stroke="currentColor" stroke-width="1.5"/><rect x="0" y="0" width="0" height="0" fill="none" stroke="currentColor"/><path d="M94.68,78.93 L101.18,78.93 L101.18,84.2 C99.68,87.07 97.25,89.19 94.68,91.23 Z M82.55,92.83 L82.55,67.01 L88.91,67.01 L88.91,92.86 C86.82,93.72 84.2,93.53 82.55,92.83 Z M77.38,90.92 C75.05,89.56 72.64,88.14 70.89,84.53 L70.89,74.93 L77.38,74.93 Z M85.02,99.74 C98.95,99.74 109.1,88.38 109.1,76.99 C109.1,60.76 95.5,53.02 85.94,53.02 C75.41,53.02 62.71,62.21 62.71,76.26 C62.71,90.18 75.04,99.74 85.02,99.74 Z M119.77,112.48 C118.64,113.36 117,113.3 116,112.29 L104.84,100.98 C99.7,104.73 94.08,107.62 85.09,107.62 C69.59,107.62 54.57,93.62 54.57,77.04 C54.57,59.92 67.89,45.27 86.02,45.27 C105.63,45.27 117.21,62.36 117.21,75.95 C117.21,84.24 114.68,90.6 110.68,95.22 L122.2,106.89 C122.93,107.69 123.04,109.22 122.06,110.28 Z" fill="none" stroke="currentColor" stroke-width="1.5"/></svg>