<svg xmlns="http://www.w3.org/2000/svg" viewBox="0 0 143.91 97.57" width="24" height="24"><path d="M0,0 L42.89,0 L42.89,9.24 L36.51,9.24 L36.79,81.22 C36.79,90.18 30.62,97.57 21.06,97.57 C12.36,97.57 6.08,90.29 6.08,82.26 L6.18,9.24 L0,9.24 Z M12.58,9.24 L12.58,29.06 C15.2,27.54 17.89,26.84 21.11,26.84 C24.07,26.84 27.52,27.77 30.25,29.39 L30.25,9.24 Z M14.96,35.31 L14.96,35.31 C16.18,36.43 19.23,37.18 21.3,37.18 C23.55,37.18 25.98,36.59 27.56,35.63 C28.49,35.1 28.72,34.13 27.51,33.31 C25.72,32.13 23.48,31.54 21.33,31.54 C18.56,31.54 16.79,32.1 15.08,32.99 C13.97,33.6 13.91,34.55 14.96,35.31 Z M50.51,0 L93.4,0 L93.4,9.24 L87.02,9.24 L87.31,61.98 C87.31,70.93 81.13,78.33 71.57,78.33 C62.87,78.33 56.59,71.05 56.59,63.02 L56.69,9.24 L50.51,9.24 Z M63.09,9.24 L63.09,29.06 C65.71,27.54 68.4,26.84 71.62,26.84 C74.58,26.84 78.03,27.77 80.76,29.39 L80.76,9.24 Z M65.48,35.31 L65.48,35.31 C66.69,36.43 69.74,37.18 71.81,37.18 C74.06,37.18 76.49,36.59 78.07,35.63 C79,35.1 79.23,34.13 78.02,33.31 C76.23,32.13 73.99,31.54 71.84,31.54 C69.07,31.54 67.3,32.1 65.59,32.99 C64.48,33.6 64.42,34.55 65.48,35.31 Z M101.02,0 L143.91,0 L143.91,9.24 L137.53,9.24 L137.82,45.14 C137.82,54.09 131.64,61.49 122.08,61.49 C113.39,61.49 107.11,54.21 107.11,46.18 L107.2,9.24 L101.02,9.24 Z M113.6,9.24 L113.6,29.06 C116.22,27.54 118.91,26.84 122.13,26.84 C125.09,26.84 128.55,27.77 131.27,29.39 L131.27,9.24 Z M115.99,35.31 L115.99,35.31 C117.2,36.43 120.25,37.18 122.32,37.18 C124.58,37.18 127,36.59 128.58,35.63 C129.52,35.1 129.74,34.13 128.53,33.31 C126.74,32.13 124.51,31.54 122.35,31.54 C119.58,31.54 117.81,32.1 116.11,32.99 C114.99,33.6 114.94,34.55 115.99,35.31 Z" fill="none" stroke="currentColor" stroke-width="1.5"/></svg>