<svg xmlns="http://www.w3.org/2000/svg" viewBox="0 0 238.98 181.97" width="24" height="24"><path d="M201.96,87.57 C213.02,87.57 219.82,77.78 219.82,69.71 C219.82,59.06 211.47,51.33 201.58,51.33 C191.83,51.33 183.39,59.32 183.39,69 C183.39,79.48 191.03,87.57 201.96,87.57 Z M177.53,97.84 C175.47,95.97 173.48,93.98 171.67,91.6 L175.22,86.64 C173.78,84.5 172.8,82.43 172.14,80.41 L165.93,80.31 C165.24,77.61 164.8,74.82 164.49,72 L170.28,69.59 C170.01,67.08 170.31,64.65 170.8,62.74 L165.77,59.33 C166.72,56.4 167.76,53.91 168.84,51.54 L174.93,52.51 C176.09,50.74 177.61,48.96 179.4,47.19 L177.01,41.71 C178.36,40.14 181.79,37.82 183.91,36.7 L188.37,40.96 C190.4,39.81 193.16,38.98 195.08,38.66 L195.96,32.73 C198.42,32.32 201.22,32.2 204.25,32.29 L205.97,38.26 C208.29,38.58 210.98,39.2 212.54,39.96 L216.75,35.52 C219.48,36.63 221.97,38.11 223.97,39.73 L222.06,45.47 C224.02,47.05 225.54,48.75 226.81,50.52 L232.74,49.06 C234.28,51.61 235.6,54.13 236.52,56.62 L231.75,60.35 C232.42,62.62 232.86,64.91 232.9,67.25 L238.67,69.14 C238.98,72.08 238.43,75.23 237.98,77.41 L231.91,78.11 C231.17,80.55 230.32,82.76 229.23,84.49 L233.08,89.2 C231.89,91.2 230.27,93.36 227.85,95.81 L222.42,93.18 C220.74,94.44 219.02,95.71 216.63,97.05 L217.34,103.13 C215.23,104.17 212.14,105.2 209.26,105.66 L206.28,100.7 C204.12,100.91 201.25,101.03 199.36,100.87 L196.69,106.27 C193.94,105.84 191.2,105.25 188.52,104.24 L188.59,98.12 C186.59,97.21 184.62,96.14 182.75,94.6 Z M136.78,156.07 C153.2,156.07 162.65,142.88 162.65,130.41 C162.65,117.66 151.56,105.57 137.3,105.57 C121.94,105.57 112,118.28 112,130.56 C112,143.84 122.19,156.07 136.78,156.07 Z M103.75,170.34 C101.03,167.89 98.33,165.2 95.7,161.78 L100.5,154.7 C99.09,152.59 97.6,150.06 96.15,146.12 L87.64,145.83 C86.46,141.54 85.81,137.98 85.63,134.29 L93.46,131.03 C93.3,127.78 93.68,124.61 94.23,121.46 L87.45,116.64 C88.44,112.97 89.98,109.42 91.85,105.92 L100.43,107.41 C101.53,104.68 104.27,101.75 106.34,99.85 L102.93,92.08 C105.75,89.63 108.97,87.35 112.6,85.26 L118.78,91.11 C121.77,89.67 125.21,88.52 128.05,87.97 L129.36,79.68 C132.5,79.19 137.03,78.99 141.19,79.22 L143.19,87.5 C146.93,87.77 149.91,88.66 152.58,89.81 L158.35,83.49 C161.97,85.26 165.34,87.25 168.36,89.52 L165.73,97.52 L172.43,104.59 L180.58,102.51 C182.96,106.23 184.46,109.62 185.87,112.98 L179.21,118.4 C180.22,121.43 180.87,124.54 180.99,127.75 L188.97,130.34 C188.9,134.77 188.44,138.5 187.84,141.97 L179.45,142.88 C178.23,146.92 176.86,149.79 175.72,151.8 L181.1,158.45 C179.23,161.32 176.6,164.65 173.81,167.57 L166.17,163.84 C163.72,165.84 160.77,168.13 158.19,169.31 L159.22,177.64 C156.28,179.05 152.49,180.46 148.02,181.42 L143.73,174.23 C140.51,174.83 136.26,174.89 134.26,174.49 L130.58,181.83 C127.69,181.97 122.61,180.71 118.88,179.23 L119.18,170.81 C116.89,169.86 113.42,167.84 111.01,165.86 Z M46,91.39 L45.85,71.5 C48.49,70.47 54.05,70.15 56.3,69.45 L64.64,52.72 C64.51,49.17 64.42,45.63 63.76,41.47 C64.86,40.55 68.4,40.11 69.99,42.09 C71.53,43.94 72.54,46.65 72.86,48.59 C73.45,51.28 73.86,55.29 73.69,57.61 C73.59,59.63 72.86,61.09 72.14,61.88 C78.93,61.34 84.51,60.88 90.63,60.33 C91.62,61.47 92.62,62.52 93.48,64.23 C94.97,67.04 96.14,69.66 96.55,71.81 C95.69,79.19 93.01,89.07 91.27,91.86 C87.18,92.89 74.65,95.39 71,95.67 C67.82,96.12 62.15,95.33 56.09,93.3 C53.33,92.4 49.64,90.64 46,91.39 Z M137,48.38 C139.29,47.42 142.26,48.42 143.29,50.66 C144.66,53.35 142.81,56.51 141.06,57.18 L128.33,62.31 C125.69,63.26 122.52,62.09 121.65,59.7 C120.73,57.21 121.75,54.58 124.48,53.32 Z M115.56,19.69 C117.52,17.31 120.91,17.5 122.74,19.21 C124.69,21.05 124.38,23.94 123.47,25.16 L114.77,36.34 C113.75,37.95 110.32,39.09 108,37.45 C105.99,36 105.1,33.05 107.11,30.29 Z M80.77,4.84 C81.06,2.51 83.32,0 86.58,0.54 C89.99,1.02 90.84,4.23 90.5,6.58 L88.71,19.01 C88.32,21.49 86.39,23.98 83.04,23.69 C79.83,22.97 78.63,20.44 78.97,17.07 Z M47.01,10.95 C46.05,8.31 46.97,5.02 49.39,4.12 C52.53,2.69 55.04,4.73 55.97,6.76 L60.88,18.79 C61.99,21.67 61,24.57 58.48,25.69 C55.85,26.71 52.68,25.41 51.63,22.34 Z M18.03,31.74 C16.36,30.48 15.91,27.16 17.46,25.27 C19.46,22.57 23.12,23.21 24.73,24.56 L35.29,32.95 C37.52,34.84 37.18,38.15 35.93,39.59 C34.19,41.62 31.19,42.13 28.96,40.44 Z M4.24,65 C1.79,64.61 0,61.83 0.26,59.47 C0.55,57 3.36,55 5.42,55.33 L18.93,57.22 C21.6,57.49 23.81,59.95 23.5,62.81 C23.15,65.26 20.88,67.4 17.97,67.08 Z M8.89,100.63 C7.55,101.18 3.61,100.78 2.68,97.97 C1.61,94.86 3.6,92.04 5.24,91.53 L17.96,86.48 C20.36,85.54 23.29,86.68 24.29,89.09 C25.43,92.13 23.78,94.59 21.61,95.49 Z M30.52,129.21 C28.87,131.11 25.67,131.39 23.8,129.95 C21.42,128.06 21.54,124.82 22.99,123 L31.47,112.19 C33.34,110.12 36.44,110.23 38.08,111.44 C40.37,113.07 40.32,116.3 39.46,117.8 Z M63.76,142.42 C63.41,144.89 61.37,147.55 57.76,147.14 C54.96,146.52 53.63,143.89 53.98,141.57 L55.68,128.95 C56.02,126.03 58.26,123.59 61.45,123.95 C63.73,124.24 65.91,126.22 65.56,129.71 Z" fill="none" stroke="currentColor" stroke-width="1.5"/></svg>