<svg xmlns="http://www.w3.org/2000/svg" viewBox="0 0 171.44 133.64" width="24" height="24"><path d="M109.01,80.47 L109.01,85.47 L150.05,85.47 L150.05,80.47 Z M109.01,65.73 L109.01,70.73 L150.05,70.73 L150.05,65.73 Z M109.01,51 L109.01,56 L150.05,56 L150.05,51 Z M56.93,40.34 C48.11,40.34 40.96,47.49 40.96,56.31 C40.96,65.13 48.11,72.27 56.93,72.27 C65.75,72.27 72.9,65.13 72.9,56.31 C72.9,47.49 65.75,40.34 56.93,40.34 Z M65.37,24.85 L70.51,33 L80.08,33.33 L80.42,42.91 L88.41,47.83 L84.02,56.26 L88.52,64.59 L80.54,69.77 L80.12,79.34 L70.77,79.69 L65.41,87.86 L57.11,83.3 L48.78,87.71 L43.37,79.68 L41.92,79.63 L33.96,79.37 L33.73,69.8 L25.56,64.65 L30.07,56.17 L25.62,47.92 L33.58,42.67 L34.04,33.32 L43.38,32.81 L48.57,24.88 L57.11,29.27 Z M67.36,17.32 L57.06,22.84 L46.61,17.46 L40.19,27.28 L28.6,27.91 L28.03,39.5 L18.13,46.03 L23.6,56.19 L18.04,66.64 L28.1,73 L28.4,84.89 L35.19,85.11 L35.19,132.79 L56.64,117.29 L78.65,133.64 L78.65,85.1 L85.59,84.85 L86.1,72.96 L96.04,66.51 L90.47,56.21 L95.91,45.76 L86.01,39.66 L85.58,27.81 L73.72,27.4 Z M167.86,0 L3.93,0 C1.52,0 0,1.8 0,3.86 L0,104.03 C0,106.29 1.8,107.75 3.75,107.75 L29.07,107.75 L29.03,100.41 L7.33,100.41 L7.33,7.29 L164.11,7.29 L164.11,100.41 L84.96,100.41 L84.99,107.75 L167.86,107.75 C169.72,107.75 171.44,106.54 171.44,105.17 L171.44,3.4 C171.44,1.4 169.75,0 167.86,0 Z" fill="none" stroke="currentColor" stroke-width="1.5"/></svg>