<svg xmlns="http://www.w3.org/2000/svg" viewBox="0 0 201.21 174.37" width="24" height="24"><path d="M60.6,30.45 L70.81,30.45 L70.81,20.26 L60.6,20.26 Z M40.36,30.45 L50.51,30.45 L50.51,20.26 L40.36,20.26 Z M20.14,30.45 L30.32,30.45 L30.32,20.26 L20.14,20.26 Z M137.9,174.37 L97.65,133.91 L113.72,117.85 L134.35,138.58 C157.16,114.8 183.75,93.26 201.21,91.68 C169.46,119.24 146.65,152.15 137.9,174.37 Z M0,161.89 L0,0 L161.81,0.01 L161.81,91.41 C154.59,96.51 148.17,102.14 141.74,107.85 L141.74,40.32 L20.14,40.32 L20.14,141.78 L81.65,141.78 L101.7,161.89 Z" fill="none" stroke="currentColor" stroke-width="1.5"/></svg>