<svg xmlns="http://www.w3.org/2000/svg" viewBox="0 0 155.48 108.58" width="24" height="24"><path d="M118.25,79.67 L118.25,44.77 C122.38,47.45 129.12,49.65 136.75,48.24 L136.75,53.81 C136.75,58.9 133.42,66.16 130.12,70 C126.68,74.2 122.28,77.32 118.25,79.67 Z M118.25,84.83 C123.73,82.65 130.65,77.5 135.13,71.24 C137.53,68.01 141.52,61.37 141.52,52.8 L141.52,41.6 C138.01,43.23 135.31,44.14 130.71,43.86 C126.22,43.82 121.31,41.55 118.25,39.26 C115.73,41.07 112.98,42.73 108.68,43.57 C103.72,44.47 99.08,43.84 95,41.6 L95,53.62 C95,62.19 100.08,70.16 104.84,75.27 C108.47,79.27 114.52,83.61 118.25,84.83 Z M118.25,92.51 C108.86,88.4 103.12,83.98 97.89,78.05 C91.94,70.84 88.1,62.12 88.1,53.46 L88.1,33.48 C93.27,35.94 99.79,37.15 105.57,36.99 C110.32,37.13 115.67,33.28 118.25,29.54 C121.7,34.24 127.06,37.58 134,36.99 C139.3,36.68 144.05,35.38 148.34,33.63 L148.34,54.23 C148.34,63.29 143.37,73.11 136.91,79.95 C131.18,85.87 125.41,89.35 118.25,92.51 Z M29.28,108.58 C17.26,108.58 0,96.8 0,75.37 C0,57.23 14.68,42.82 29.47,42.42 C28.15,36.07 30.86,25.51 39.86,19.41 C47.34,14.52 56.9,15.63 62.64,20.15 C72.22,5.78 88.03,0 103.4,4.68 C118.32,9.41 125.9,21.94 128.73,31.73 C124.27,30.45 121.09,26.55 118.25,19.96 C116.04,25.13 112.91,31.27 105.3,32.29 C99.88,32.9 90.52,30.16 83.37,26.17 L83.37,53.82 C83.37,65.03 88.98,75.43 96.29,83.31 C102.03,89.39 108.4,93.63 118.25,97.65 C132.43,91.74 145.1,82.19 150.8,66.17 C154.08,72.92 155.48,78.23 153.9,87.21 C151.52,99.48 140.15,108.58 130.38,108.58 Z" fill="none" stroke="currentColor" stroke-width="1.5"/></svg>