<svg xmlns="http://www.w3.org/2000/svg" viewBox="0 0 172.47 152.79" width="24" height="24"><path d="M51.7,152.79 C45.87,152.79 40.28,149.66 37.37,143.8 L3.1,83.87 C0,78.64 0.49,72.56 3.09,68.2 L37.66,8.26 C40.59,2.8 45.82,0 51.14,0 L120.54,0 C125.7,0 130.81,2.54 133.87,7.65 L168.31,67.55 C172.47,73.86 171.04,80.59 168.69,84.34 L134.44,143.89 C132.15,148.72 126.97,152.79 120.31,152.79 Z" fill="none" stroke="currentColor" stroke-width="1.5"/><path d="M94.34,152.79 L45.81,104.51 L52.52,88.59 L45.81,81.69 L52.17,71.99 L45.81,65.74 L74.63,48.2 L91.83,66.27 L93.69,64.92 L86.65,57.87 L103.56,48.2 L117.35,62.21 L126.08,52.24 L164.57,91.48 L134.44,143.89 C132.17,148.72 126.97,152.79 120.31,152.79 Z" fill="none" stroke="currentColor" stroke-width="1.5"/><rect x="0" y="0" width="0" height="0" fill="none" stroke="currentColor"/><path d="M109.85,89.05 L109.85,63.84 L126.08,52.24 L126.08,101.17 Z M103.56,104.51 L80.52,104.51 L86.85,94.85 L95.16,94.85 L95.16,89.92 L83.78,89.92 L74.42,104.51 L45.81,104.51 L45.81,86.75 L54.12,86.75 L59.3,96.15 L68.86,96.15 L72.56,91.16 L61.98,91.16 L57.03,81.69 L45.81,81.69 L45.81,70.84 L57.32,70.84 L62.27,61.44 L72.53,61.44 L68.95,56.42 L59.04,56.42 L54.22,65.74 L45.81,65.74 L45.81,48.2 L74.63,48.2 L83.81,62.82 L95.17,62.82 L95.17,57.87 L86.65,57.87 L80.78,48.2 L103.56,48.2 L103.56,73.95 L77.39,73.95 L74.11,68.42 L67.13,68.42 L72.4,76.46 L67.19,84.2 L74.13,84.2 L77.36,78.76 L103.56,78.76 Z" fill="none" stroke="currentColor" stroke-width="1.5"/></svg>