<svg xmlns="http://www.w3.org/2000/svg" viewBox="0 0 172.47 152.79" width="24" height="24"><path d="M51.7,152.79 C45.87,152.79 40.28,149.66 37.37,143.8 L3.1,83.87 C0,78.64 0.49,72.56 3.09,68.2 L37.66,8.26 C40.59,2.8 45.82,0 51.14,0 L120.54,0 C125.7,0 130.81,2.54 133.87,7.65 L168.31,67.55 C172.47,73.86 171.04,80.59 168.69,84.34 L134.44,143.89 C132.15,148.72 126.97,152.79 120.31,152.79 Z" fill="none" stroke="currentColor" stroke-width="1.5"/><path d="M96.13,152.79 L52.86,109.35 L59.88,53.5 L85.61,49.8 L93.38,57.47 L102.71,46.66 L119.09,43.29 L165.47,89.94 L134.44,143.89 C132.17,148.72 126.97,152.79 120.31,152.79 Z" fill="none" stroke="currentColor" stroke-width="1.5"/><rect x="0" y="0" width="0" height="0" fill="none" stroke="currentColor"/><path d="M110.95,57.73 C111.74,57.73 112.41,57.15 112.41,56.58 L112.41,51.33 C112.41,50.45 111.96,49.86 111.14,49.86 L105.92,49.86 C104.94,49.86 104.49,50.4 104.49,51.35 L104.49,56.41 C104.49,57.07 104.75,57.73 105.5,57.73 Z M93.84,69.96 C92.78,69.96 92.31,69.41 92.31,68.36 L92.31,44.33 C92.31,43.28 92.78,42.86 94.12,42.88 L117.83,42.88 C119.07,42.88 119.43,43.5 119.43,44.38 L119.43,67.91 C119.43,69.32 118.75,69.96 116.97,69.96 Z M112.79,108.11 C112.79,109.44 112.14,109.84 111.15,109.84 L53.93,109.84 C52.79,109.84 52.38,108.92 52.38,108.05 L52.38,51.54 C52.38,50.18 52.69,49.52 54.05,49.52 L84.59,49.52 C85.54,49.52 86.06,49.97 86.06,50.85 L86.06,56.56 C86.06,57.91 85.14,58.53 83.99,58.53 L62.39,58.53 C61.59,58.53 61.25,58.91 61.25,59.7 L61.25,99.61 C61.25,100.42 61.79,100.92 62.67,100.92 L102.37,100.92 C103.63,100.92 103.76,100.44 103.76,99.49 L103.76,78 C103.76,76.82 104.24,76.17 105.46,76.17 L111.64,76.17 C112.41,76.17 112.79,76.77 112.79,77.73 Z" fill="none" stroke="currentColor" stroke-width="1.5"/></svg>