<svg xmlns="http://www.w3.org/2000/svg" viewBox="0 0 172.47 152.79" width="24" height="24"><path d="M51.7,152.79 C45.87,152.79 40.28,149.66 37.37,143.8 L3.1,83.87 C0,78.64 0.49,72.56 3.09,68.2 L37.66,8.26 C40.59,2.8 45.82,0 51.14,0 L120.54,0 C125.7,0 130.81,2.54 133.87,7.65 L168.31,67.55 C172.47,73.86 171.04,80.59 168.69,84.34 L134.44,143.89 C132.15,148.72 126.97,152.79 120.31,152.79 Z" fill="none" stroke="currentColor" stroke-width="1.5"/><path d="M99.77,152.79 L49.54,104.12 L58.32,47.98 L67.35,57.79 L74.32,47.98 L84.42,57.17 L90.32,47.98 L100.18,57.55 L106.32,47.98 L115.24,57.2 L122.31,47.98 L165.94,89.12 L134.44,143.89 C132.17,148.72 126.97,152.79 120.31,152.79 Z" fill="none" stroke="currentColor" stroke-width="1.5"/><rect x="0" y="0" width="0" height="0" fill="none" stroke="currentColor"/><path d="M113.53,47.98 L122.31,47.98 L122.31,104.12 L113.53,104.12 Z M97.53,47.98 L106.32,47.98 L106.32,104.12 L97.53,104.12 Z M81.53,47.98 L90.32,47.98 L90.32,104.12 L81.53,104.12 Z M65.54,47.98 L74.32,47.98 L74.32,104.12 L65.54,104.12 Z M49.54,47.98 L58.32,47.98 L58.32,104.12 L49.54,104.12 Z" fill="none" stroke="currentColor" stroke-width="1.5"/></svg>