<svg xmlns="http://www.w3.org/2000/svg" viewBox="0 0 201.94 159.88" width="24" height="24"><path d="M110.38,67.47 L110.38,64.34 L135.85,64.34 L135.85,67.47 Z M99.55,67.47 L99.55,64.34 L106.71,64.34 L106.71,67.47 Z M110.38,77.82 L110.38,74.69 L135.85,74.69 L135.85,77.82 Z M99.55,77.82 L99.55,74.69 L106.71,74.69 L106.71,77.82 Z M110.38,88.16 L110.38,85.04 L135.85,85.04 L135.85,88.16 Z M99.55,88.16 L99.55,85.04 L106.71,85.04 L106.71,88.16 Z M110.13,53.9 L113.87,53.9 L113.87,50.51 L110.13,50.51 Z M102.79,53.9 L106.53,53.9 L106.53,50.51 L102.79,50.51 Z M95.44,53.9 L99.18,53.9 L99.18,50.51 L95.44,50.51 Z M95.03,94.18 L139.88,94.25 L139.81,57.35 L95.09,57.41 Z M173.23,14.73 L173.23,12.83 L188.67,12.83 L188.67,14.73 Z M166.67,14.73 L166.67,12.83 L171.01,12.83 L171.01,14.73 Z M173.23,21 L173.23,19.11 L188.67,19.11 L188.67,21 Z M166.67,21 L166.67,19.11 L171.01,19.11 L171.01,21 Z M173.23,27.27 L173.23,25.38 L188.67,25.38 L188.67,27.27 Z M166.67,27.27 L166.67,25.38 L171.01,25.38 L171.01,27.27 Z M173.08,6.5 L175.35,6.5 L175.35,4.45 L173.08,4.45 Z M168.63,6.5 L170.9,6.5 L170.9,4.45 L168.63,4.45 Z M164.17,6.5 L166.44,6.5 L166.44,4.45 L164.17,4.45 Z M163.93,30.92 L191.12,30.96 L191.08,8.59 L163.96,8.63 Z M53.36,14.8 L53.36,12.9 L68.8,12.9 L68.8,14.8 Z M46.8,14.8 L46.8,12.9 L51.14,12.9 L51.14,14.8 Z M53.36,21.07 L53.36,19.17 L68.8,19.17 L68.8,21.07 Z M46.8,21.07 L46.8,19.17 L51.14,19.17 L51.14,21.07 Z M53.36,27.34 L53.36,25.45 L68.8,25.45 L68.8,27.34 Z M46.8,27.34 L46.8,25.45 L51.14,25.45 L51.14,27.34 Z M53.21,6.57 L55.48,6.57 L55.48,4.51 L53.21,4.51 Z M48.76,6.57 L51.03,6.57 L51.03,4.51 L48.76,4.51 Z M44.3,6.57 L46.57,6.57 L46.57,4.51 L44.3,4.51 Z M44.06,30.99 L71.25,31.03 L71.2,8.66 L44.09,8.7 Z M113.39,139.51 L113.39,137.61 L128.83,137.61 L128.83,139.51 Z M106.83,139.51 L106.83,137.61 L111.17,137.61 L111.17,139.51 Z M113.39,145.78 L113.39,143.89 L128.83,143.89 L128.83,145.78 Z M106.83,145.78 L106.83,143.89 L111.17,143.89 L111.17,145.78 Z M113.39,152.06 L113.39,150.16 L128.83,150.16 L128.83,152.06 Z M106.83,152.06 L106.83,150.16 L111.17,150.16 L111.17,152.06 Z M113.25,131.28 L115.51,131.28 L115.51,129.23 L113.25,129.23 Z M108.79,131.28 L111.06,131.28 L111.06,129.23 L108.79,129.23 Z M104.34,131.28 L106.61,131.28 L106.61,129.23 L104.34,129.23 Z M104.09,155.7 L131.28,155.74 L131.24,133.38 L104.13,133.42 Z M101.75,18.54 C100.43,16.75 100.11,13.64 101.67,11.53 C102.75,9.7 104.82,8.68 106.72,8.66 C106.54,6.89 106.75,5.48 108.26,4.34 C109.74,3 112.09,3.29 113.5,4.22 C115.18,1.69 118.24,0.34 121.55,1.05 C125.03,1.81 126.35,4.01 126.85,5.96 C129.68,5.29 131.98,6.23 133.47,7.99 C135.17,9.99 135.15,12.04 134.44,13.73 C136.3,14.55 137.01,16.26 136.62,18.54 Z M3.26,86.44 C0,81.74 0.85,76.87 2.78,72.86 C4.48,69.39 9,66.55 13.39,66.48 C12.98,63.89 13.68,60.73 16.77,57.84 C19.47,55.38 24.58,55.2 27.22,57.6 C29.98,52.71 36.58,49.44 44.12,51.24 C49.55,52.51 53.33,56.13 54.15,61.16 C58.28,59.54 63.23,60.55 67.05,64.37 C70.93,67.97 71.19,73.17 69.72,76.83 C73.61,78.71 74.94,82.51 73.81,86.49 Z M147.59,144.29 C145.54,141.33 145.28,137.63 147.25,133.83 C148.11,131.46 151.83,128.88 155.14,129.12 C154.72,126.56 155.92,123.69 158.12,122.15 C160.08,120.65 163.38,120.54 165.72,122.2 C168.39,118.05 173.64,116.31 177.6,117.32 C182.35,118.38 185.28,121.1 185.94,124.89 C189.23,123.92 192.39,124.53 195.33,126.94 C198.2,129.74 199.28,133.65 197.77,136.79 C200.38,137.81 201.94,141.05 200.84,144.23 Z M99.91,159.88 L99.9,124.81 L115.96,124.81 L116.1,101.8 L88.18,101.8 L88.18,45.27 L72.35,35.12 L40.24,35.12 L40.24,0 L75.4,0 L75.4,32.89 L90.45,42.7 L144.88,42.7 L159.89,33.04 L159.89,0 L195.11,0 L195.11,35.12 L162.96,35.12 L147.05,45.5 L147.05,101.8 L119.26,101.8 L119.39,124.81 L135.53,124.81 L135.39,159.88 Z" fill="none" stroke="currentColor" stroke-width="1.5"/></svg>