<svg xmlns="http://www.w3.org/2000/svg" viewBox="0 0 146.62 101.1" width="24" height="24"><path d="M23.96,101.1 C13.92,98.47 7.21,90.56 3.98,82.99 C1.17,76.03 0,63.55 7.66,52.79 C12.03,45.83 20.39,41.07 29.31,40.43 C28.64,34.49 29.88,24.89 38.99,18.85 C45.87,14.58 54.56,15.11 60.24,19.91 C66.37,8.79 81.2,0 99.6,5.82 C110.41,10.26 117.2,18.72 121.25,29.94 C127.36,29.62 133.21,30.51 138.32,38.26 C142.7,45.95 140.85,52.9 138.02,56.9 C146.3,67.21 146.62,77.6 143.39,86.03 C140.46,92.75 133.13,101.1 124.65,101.1 Z" fill="none" stroke="currentColor" stroke-width="1.5"/></svg>