<svg xmlns="http://www.w3.org/2000/svg" viewBox="0 0 172.47 152.79" width="24" height="24"><path d="M51.7,152.79 C45.87,152.79 40.28,149.66 37.37,143.8 L3.1,83.87 C0,78.64 0.49,72.56 3.09,68.2 L37.66,8.26 C40.59,2.8 45.82,0 51.14,0 L120.54,0 C125.7,0 130.81,2.54 133.87,7.65 L168.31,67.55 C172.47,73.86 171.04,80.59 168.69,84.34 L134.44,143.89 C132.67,147.62 129.18,150.9 124.62,152.2 C123.27,152.58 121.83,152.79 120.31,152.79 Z" fill="none" stroke="currentColor" stroke-width="1.5"/><path d="M53.97,82.14 L61.01,76.5 L91.56,75.59 L83.8,67.72 L91.65,44.21 L155.05,108.05 L134.44,143.89 C132.69,147.6 129.05,151.09 124.17,152.33 Z" fill="none" stroke="currentColor" stroke-width="1.5"/><rect x="0" y="0" width="0" height="0" fill="none" stroke="currentColor"/><path d="M87.48,95.21 C91.55,95.85 93.77,99.57 93.77,102.77 C93.77,107.37 90.77,110.69 86.01,110.69 C82.38,110.69 78.18,107.83 78.18,103.57 C78.12,102.09 78.28,101.19 78.69,100.13 L62.29,83.76 C61.48,84 60.32,84.26 58.64,84.26 C54.47,84.26 51.64,79.99 51.64,76.72 C51.64,70.76 55.83,68.54 59.59,68.54 C63.18,68.54 65.88,70.53 66.8,73.59 L105.34,73.59 L88.83,57.09 C88.42,57.2 88.09,57.3 87.48,57.38 L87.48,67.72 L83.8,67.72 L83.8,57.28 C80.41,56.54 78.01,53.9 78.01,49.8 C78.01,44.19 82.49,42.09 85.78,42.09 C90.73,42.09 93.96,45.61 93.96,49.1 C93.96,50.91 93.65,51.78 93.33,52.72 L109.8,69.02 C111.04,68.52 111.79,68.37 113.12,68.41 C116.7,68.41 120.14,71.89 120.14,76.42 C120.14,81.19 116.97,84.38 112.61,84.38 C109,84.38 105.99,82.13 105.06,79.15 L66.59,79.15 L82.91,95.56 C83.23,95.5 83.48,95.49 83.8,95.5 L83.8,85.11 L87.48,85.11 Z" fill="none" stroke="currentColor" stroke-width="1.5"/></svg>