<svg xmlns="http://www.w3.org/2000/svg" viewBox="0 0 172.47 152.79" width="24" height="24"><path d="M51.7,152.79 C45.87,152.79 40.28,149.66 37.37,143.8 L3.1,83.87 C0,78.64 0.49,72.56 3.09,68.2 L37.66,8.26 C40.59,2.8 45.82,0 51.14,0 L120.54,0 C125.7,0 130.81,2.54 133.87,7.65 L168.31,67.55 C172.47,73.86 171.04,80.59 168.69,84.34 L134.44,143.89 C132.15,148.72 126.97,152.79 120.31,152.79 Z" fill="none" stroke="currentColor" stroke-width="1.5"/><path d="M106.11,152.79 L53.62,100.38 L56.73,99.94 L49.93,94.1 L56.99,87.95 L89.07,71.98 L72.46,56.94 L82.21,37.57 L91.57,47.64 L99.66,42.49 L158.47,102.1 L134.44,143.89 C132.17,148.72 126.97,152.79 120.31,152.79 Z" fill="none" stroke="currentColor" stroke-width="1.5"/><rect x="0" y="0" width="0" height="0" fill="none" stroke="currentColor"/><path d="M109.16,106.8 L96.96,99.73 L97.63,90.67 L86.05,83.82 L74.07,90.67 L74.73,99.64 L62.71,106.75 L53.62,100.38 L63.86,94.2 L63.42,90 L59.84,88.01 L49.93,94.1 L49.1,82.93 L60.99,75.91 L68.64,80.94 L80.52,73.96 L80.52,60.79 L72.46,56.94 L72.46,42.49 L82.21,37.57 L82.38,49.26 L86,51.51 L89.94,49.26 L89.81,37.68 L99.66,42.49 L99.66,56.55 L91.35,60.84 L91.35,74.05 L103.06,81.03 L110.71,75.86 L122.69,82.89 L122.29,94.29 L111.99,88.32 L108.28,90.45 L108.19,94.6 L118.75,100.3 Z" fill="none" stroke="currentColor" stroke-width="1.5"/></svg>