<svg xmlns="http://www.w3.org/2000/svg" viewBox="0 0 172.47 152.79" width="24" height="24"><path d="M51.7,152.79 C45.87,152.79 40.28,149.66 37.37,143.8 L3.1,83.87 C0,78.64 0.49,72.56 3.09,68.2 L37.66,8.26 C40.59,2.8 45.82,0 51.14,0 L120.54,0 C125.7,0 130.81,2.54 133.87,7.65 L168.31,67.55 C172.47,73.86 171.04,80.59 168.69,84.34 L134.44,143.89 C132.15,148.72 126.97,152.79 120.31,152.79 Z" fill="none" stroke="currentColor" stroke-width="1.5"/><path d="M104.15,152.79 L50.38,99.12 L70.5,82.99 L51.78,64.76 L62.5,54.59 L80.13,72.58 L86.98,66 L82.51,62.14 L92.92,37.18 L111.29,55.65 L119.73,54.07 L161.72,96.46 L134.44,143.89 C132.17,148.72 126.97,152.79 120.31,152.79 Z" fill="none" stroke="currentColor" stroke-width="1.5"/><rect x="0" y="0" width="0" height="0" fill="none" stroke="currentColor"/><path d="M96.36,86.61 C97.82,84.65 99.15,82.56 100.12,80.12 L108.9,85.53 C110.75,84.34 112.09,83.57 115.49,83.57 C119.51,83.57 123.95,87.68 123.95,92.81 C123.95,98.24 119.8,102.29 114.78,102.29 C110.08,102.29 105.39,98.32 105.39,94.4 C105.39,93.14 105.48,92.49 105.61,91.93 Z M114.56,67.13 C110,67.13 107.24,63.62 107.24,59.84 C107.24,55.07 110.51,52.4 114.72,52.4 C119.51,52.4 122.07,55.43 122.07,60.03 C122.07,63.38 119.83,67.13 114.56,67.13 Z M82.51,62.14 L82.6,51.95 C79.02,50.58 76.69,47.47 76.69,43.22 C76.69,37.29 81.03,34.05 86.11,34.05 C91.07,34.05 95.22,38.11 95.22,43.35 C95.22,47.61 92.7,50.89 89.36,51.69 L89.37,62.3 C87.36,61.75 84.96,61.71 82.51,62.14 Z M86.02,88.16 C79.29,88.16 74.26,83.04 74.26,76.46 C74.26,70.16 78.34,64.64 86.46,64.64 C93.22,64.64 97.62,70.53 97.62,76.65 C97.62,83.14 92.29,88.16 86.02,88.16 Z M57.57,67.16 C52.96,67.16 49.84,63.81 49.84,59.84 C49.84,54.71 53.87,52.36 57.48,52.36 C61.9,52.36 64.64,56.29 64.64,59.81 C64.64,64.24 61.41,67.16 57.57,67.16 Z M57.49,102.21 C52.23,102.21 47.92,98.03 47.92,93.27 C47.92,86.31 53.71,83.64 57.21,83.64 C59.8,83.64 61.67,84.49 62.95,85.65 L71.93,80.35 C72.91,82.73 74.01,84.79 75.71,86.44 L66.16,91.86 C67.39,96.47 63.8,102.21 57.49,102.21 Z M85.76,116.73 C82.32,116.73 78.47,114.37 78.47,109.59 C78.47,105.44 81.18,102.29 86.27,102.29 C90.41,102.29 93.27,105.3 93.27,109.45 C93.27,113.3 90.69,116.73 85.76,116.73 Z" fill="none" stroke="currentColor" stroke-width="1.5"/></svg>