<svg xmlns="http://www.w3.org/2000/svg" viewBox="0 0 172.47 152.79" width="24" height="24"><path d="M51.7,152.79 C45.87,152.79 40.28,149.66 37.37,143.8 L3.1,83.87 C0,78.64 0.49,72.56 3.09,68.2 L37.66,8.26 C40.59,2.8 45.82,0 51.14,0 L120.54,0 C125.7,0 130.81,2.54 133.87,7.65 L168.31,67.55 C172.47,73.86 171.04,80.59 168.69,84.34 L134.44,143.89 C132.15,148.72 126.97,152.79 120.31,152.79 Z" fill="none" stroke="currentColor" stroke-width="1.5"/><path d="M110.45,152.79 L59.81,102.03 L64.92,86.03 L52.9,74.41 L65.44,50.92 L119.88,53.85 L162.04,95.82 L134.44,143.89 C132.17,148.72 126.97,152.79 120.31,152.79 Z" fill="none" stroke="currentColor" stroke-width="1.5"/><rect x="0" y="0" width="0" height="0" fill="none" stroke="currentColor"/><path d="M83.86,78.04 L67.89,78.04 L67.89,67.18 C69.27,66.28 69.98,65.05 69.98,63.47 C69.98,61.71 68.57,59.27 65.84,59.27 C63.76,59.27 61.73,60.97 61.73,63.24 C61.73,65.22 62.85,66.49 63.91,67.13 L63.91,78.04 C56.77,78.04 53.77,76.38 50.6,71.42 C46.99,66.22 47.9,58.95 51.47,54.24 C56.77,48.22 62.88,48.03 68.32,49.76 C70.81,43.62 75.67,40.4 81.15,38.82 C86.57,37.66 91.45,38 96.14,40.78 C101.13,43.98 102.72,46.05 104.18,49.53 C109.52,48.19 115.05,48.32 119.88,53.85 C124.54,59.2 124.8,66.51 120.98,71.79 C117.45,76.93 113.56,78.04 107.85,78.04 L107.85,67.18 C109.21,66.53 110.02,65.35 110.02,63.7 C110.02,61.71 108.08,59.58 105.95,59.58 C104.1,59.58 102.1,60.91 101.91,63.58 C101.91,65.53 102.99,66.57 103.93,67.24 L103.93,78.04 L87.94,78.04 L87.94,61.21 C89.32,60.29 89.86,59.26 89.86,57.35 C89.9,54.48 87.67,53.12 85.82,53.12 C83.94,53.12 81.82,54.98 81.82,57.37 C81.82,59.25 82.89,60.67 83.86,61.26 Z M106.09,100.44 C107.6,100.44 109.35,98.93 109.3,96.96 C109.28,94.64 108.01,93.19 106.14,93.19 C104.21,93.19 102.43,94.29 102.43,96.8 C102.43,99.2 104.64,100.44 106.09,100.44 Z M107.85,88.92 C111.05,89.76 114.14,92.23 114.14,96.87 C114.14,101.28 110.45,104.74 106,104.74 C100.62,104.74 97.73,101.12 97.73,96.65 C97.73,92.15 100.96,89.81 103.93,88.78 L103.93,78.04 L107.85,78.04 Z M86.02,109.9 C87.9,109.9 89.21,108.5 89.21,106.38 C89.18,104.62 88.33,103.02 86,103.02 C83.85,103.02 82.31,104.31 82.31,106.43 C82.31,108.18 83.62,109.9 86.02,109.9 Z M87.94,98.81 C91.71,99.49 94.11,103.4 94.11,106.61 C94.11,110.64 90.41,114.56 85.96,114.56 C80.7,114.56 77.77,110.75 77.77,106.63 C77.77,102.35 80.52,99.84 83.86,98.66 L83.86,78.04 L87.94,78.04 Z M65.97,100.28 C68.16,100.28 69.41,98.36 69.41,96.79 C69.41,94.56 67.99,93.11 66.07,93.11 C64.15,93.11 62.16,94.39 62.16,96.61 C62.16,98.54 64.28,100.28 65.97,100.28 Z M67.89,88.97 C71.49,89.82 73.99,92.68 73.99,96.54 C73.99,101.39 70.95,104.68 65.81,104.68 C61.51,104.68 57.84,101.39 57.84,97.04 C57.84,92.8 59.98,89.9 63.91,88.69 L63.91,78.04 L67.89,78.04 Z" fill="none" stroke="currentColor" stroke-width="1.5"/></svg>