<svg xmlns="http://www.w3.org/2000/svg" viewBox="0 0 172.47 152.82" width="24" height="24"><path d="M51.7,152.82 C45.87,152.82 40.28,149.66 37.37,143.8 L3.1,83.87 C0,78.64 0.49,72.56 3.09,68.2 L37.66,8.26 C40.59,2.8 45.82,0 51.14,0 L120.54,0 C125.7,0 130.81,2.54 133.87,7.65 L168.31,67.55 C172.47,73.86 171.04,80.59 168.69,84.34 L134.44,143.89 C132.15,148.72 126.97,152.82 120.31,152.82 Z" fill="none" stroke="currentColor" stroke-width="1.5"/><path d="M52.94,95.99 L64.75,81.37 L52.94,70.43 L70.88,51.41 L118.83,55.66 L161,97.71 L134.44,143.89 C132.15,148.72 126.97,152.82 120.31,152.82 L110.08,152.82 Z" fill="none" stroke="currentColor" stroke-width="1.5"/><rect x="0" y="0" width="0" height="0" fill="none" stroke="currentColor"/><path d="M118.83,70.43 L85.91,55.65 L52.94,70.43 L52.94,55.66 L85.91,40.92 L118.83,55.66 Z M118.83,95.99 L85.91,81.29 L52.94,95.99 L52.94,81.11 L85.91,66.46 L118.83,81.11 Z M85.73,114.26 L85.79,99.46 L98.35,93.79 L114.94,101.31 Z" fill="none" stroke="currentColor" stroke-width="1.5"/></svg>