<svg xmlns="http://www.w3.org/2000/svg" viewBox="0 0 172.47 152.79" width="24" height="24"><path d="M51.7,152.79 C45.87,152.79 40.28,149.66 37.37,143.8 L3.1,83.87 C0,78.64 0.49,72.56 3.09,68.2 L37.66,8.26 C40.59,2.8 45.82,0 51.14,0 L120.54,0 C125.7,0 130.81,2.54 133.87,7.65 L168.31,67.55 C172.47,73.86 171.04,80.59 168.69,84.34 L134.44,143.89 C132.15,148.72 126.97,152.79 120.31,152.79 Z" fill="none" stroke="currentColor" stroke-width="1.5"/><path d="M96.96,152.79 L54.96,113.76 L69.84,76.39 L67.31,47.34 L85.6,65.96 L81.96,47.97 L130.85,76.39 L157.98,102.95 L134.44,143.89 C132.17,148.72 126.97,152.79 120.31,152.79 Z" fill="none" stroke="currentColor" stroke-width="1.5"/><rect x="0" y="0" width="0" height="0" fill="none" stroke="currentColor"/><path d="M90.99,71.08 L112.61,70.95 L85.1,52.21 Z M75.12,113.89 L86.83,76.52 L75.18,38.84 L130.85,76.39 Z M54.96,113.76 L66.42,76.2 L54.9,38.9 L67.31,47.34 L76.4,76.01 L67.38,105.44 Z" fill="none" stroke="currentColor" stroke-width="1.5"/></svg>