<svg xmlns="http://www.w3.org/2000/svg" viewBox="0 0 172.47 152.79" width="24" height="24"><path d="M51.7,152.79 C45.87,152.79 40.28,149.66 37.37,143.8 L3.1,83.87 C0,78.64 0.49,72.56 3.09,68.2 L37.66,8.26 C40.59,2.8 45.82,0 51.14,0 L120.54,0 C125.7,0 130.81,2.54 133.87,7.65 L168.31,67.55 C172.47,73.86 171.04,80.59 168.69,84.34 L134.44,143.89 C132.15,148.72 126.97,152.79 120.31,152.79 Z" fill="none" stroke="currentColor" stroke-width="1.5"/><path d="M82.21,152.79 L45.81,116.74 L54.11,43 L63.59,36.29 L79.04,52.65 L106.27,50.85 L117.91,62.83 L126.17,36.29 L170.39,80.36 C170.03,81.75 169.49,83.02 168.69,84.34 L134.44,143.89 C132.17,148.72 126.97,152.79 120.31,152.79 Z" fill="none" stroke="currentColor" stroke-width="1.5"/><rect x="0" y="0" width="0" height="0" fill="none" stroke="currentColor"/><path d="M108.55,116.77 L108.55,105.63 L115.17,105.65 L115.17,47.39 L108.55,47.39 L108.55,36.29 L126.17,36.29 L126.17,116.64 Z M65.84,62.02 L65.84,50.85 L106.27,50.85 L106.27,62.02 Z M65.84,82.17 L65.84,70.89 L106.27,70.89 L106.27,82.17 Z M65.84,102.11 L65.84,90.82 L106.27,90.82 L106.27,102.11 Z M63.59,116.79 L45.86,116.74 L45.86,36.29 L63.59,36.29 L63.59,47.39 L56.92,47.39 L56.92,105.53 L63.59,105.57 Z" fill="none" stroke="currentColor" stroke-width="1.5"/></svg>