<svg xmlns="http://www.w3.org/2000/svg" viewBox="0 0 172.47 152.79" width="24" height="24"><path d="M51.7,152.79 C45.87,152.79 40.28,149.66 37.37,143.8 L3.1,83.87 C0,78.64 0.49,72.56 3.09,68.2 L37.66,8.26 C40.59,2.8 45.82,0 51.14,0 L120.54,0 C125.7,0 130.81,2.54 133.87,7.65 L168.31,67.55 C172.47,73.86 171.04,80.59 168.69,84.34 L134.44,143.89 C132.15,148.72 126.97,152.79 120.31,152.79 Z" fill="none" stroke="currentColor" stroke-width="1.5"/><path d="M104.85,152.79 L51.14,99.24 L58.75,92.88 L51.14,85.87 L58.91,79.91 L51.14,72.53 L59.25,67.09 L51.14,59.19 L110.09,44.23 L118.67,53.09 L120.76,52.23 L162.92,94.37 L134.44,143.89 C132.17,148.72 126.97,152.79 120.31,152.79 Z" fill="none" stroke="currentColor" stroke-width="1.5"/><rect x="0" y="0" width="0" height="0" fill="none" stroke="currentColor"/><path d="M81.89,97.1 L100.33,72.33 L90.2,72.33 L90.02,53.71 L71.4,78.84 L81.71,78.84 Z M61.87,107.24 L61.87,99.24 L51.14,99.24 L51.14,92.27 L61.87,92.27 L61.87,85.87 L51.14,85.87 L51.14,78.86 L61.87,78.86 L61.87,72.53 L51.14,72.53 L51.14,65.56 L61.87,65.56 L61.87,59.19 L51.14,59.19 L51.14,52.23 L61.87,52.23 L61.87,44.23 L110.09,44.23 L110.09,52.23 L120.76,52.23 L120.76,59.19 L110.09,59.19 L110.09,65.56 L120.76,65.56 L120.76,72.53 L110.09,72.53 L110.09,78.86 L120.76,78.86 L120.76,85.87 L110.09,85.87 L110.09,92.27 L120.76,92.27 L120.76,99.24 L110.09,99.24 L110.09,107.24 Z" fill="none" stroke="currentColor" stroke-width="1.5"/></svg>