<svg xmlns="http://www.w3.org/2000/svg" viewBox="0 0 172.47 152.79" width="24" height="24"><path d="M51.7,152.79 C45.87,152.79 40.28,149.66 37.37,143.8 L3.1,83.87 C0,78.64 0.49,72.56 3.09,68.2 L37.66,8.26 C40.59,2.8 45.82,0 51.14,0 L120.54,0 C125.7,0 130.81,2.54 133.87,7.65 L168.31,67.55 C172.47,73.86 171.04,80.59 168.69,84.34 L134.44,143.89 C132.15,148.72 126.97,152.79 120.31,152.79 Z" fill="none" stroke="currentColor" stroke-width="1.5"/><path d="M106.45,152.79 L50.46,97.06 L59.39,88.86 L50.46,81.04 L59.16,72.88 L50.46,65.04 L74.54,40.93 L83.21,50.14 L90.28,40.93 L97.38,49.1 L106.49,40.93 L161.83,96.42 L134.44,143.89 C132.17,148.72 126.97,152.79 120.31,152.79 Z" fill="none" stroke="currentColor" stroke-width="1.5"/><rect x="0" y="0" width="0" height="0" fill="none" stroke="currentColor"/><path d="M67.5,64.74 L71.85,63.95 C71.68,62.24 73.2,60.46 75.48,60.75 L76.3,57.85 L69.5,57.85 C68.33,57.85 67.5,58.48 67.5,59.5 Z M67.5,88.94 L73.84,83.58 C73.35,81.56 73.89,78.81 76.73,78.02 L74.66,67.79 C73.67,67.88 72.73,67.42 72.3,66.77 L67.5,67.76 Z M94.18,64.46 L96.69,57.85 L79.42,57.85 L78.09,61.91 C78.68,62.34 78.97,63.49 78.85,64.25 L88.71,67.54 C89.48,65.48 91.62,64.13 94.18,64.46 Z M88.44,72.76 C88.01,71.96 87.89,71.15 87.97,70.61 L77.48,67.04 L79.58,77.35 C80.57,77.39 81.5,78.05 81.98,78.39 Z M104.47,73.46 L104.47,59.97 C104.47,58.72 103.85,57.85 102.88,57.85 L100.08,57.85 L97.14,65.37 C99.27,66.6 100.42,68.78 99.85,71.31 Z M104.47,92.37 L104.47,76.98 L98.75,74.2 C97.65,75.23 96.3,75.77 94.9,76.19 L94.75,81.91 C96.71,82.11 97.77,84.27 97.46,85.73 Z M102.56,94.74 L95.27,87.97 C94.03,88.43 92.67,88.43 91.45,87.22 C90.08,85.75 90.36,83.58 91.79,82.61 L92.09,76.02 C91.48,75.85 90.7,75.31 90.33,74.87 L83.6,80.92 C84.08,83.28 83.47,85.16 82.03,86.29 C79.65,87.85 77.31,87.85 75.56,86.25 L67.5,92.62 C67.5,93.74 67.99,94.74 69.32,94.74 Z M106.49,111.9 L97.38,111.9 L97.38,103.62 L90.28,103.62 L90.28,111.9 L81.63,111.9 L81.63,103.62 L74.54,103.62 L74.54,111.9 L65.4,111.9 L65.4,103.62 C62.44,103.62 58.79,100 58.79,97.06 L50.46,97.06 L50.46,87.74 L58.79,87.74 L58.79,81.04 L50.46,81.04 L50.46,71.75 L58.79,71.75 L58.79,65.04 L50.46,65.04 L50.46,55.74 L58.79,55.74 C58.79,52.5 61.9,49.1 65.4,49.1 L65.4,40.93 L74.54,40.93 L74.54,49.1 L81.63,49.1 L81.63,40.93 L90.28,40.93 L90.28,49.1 L97.38,49.1 L97.38,40.93 L106.49,40.93 L106.49,49.1 C109.39,49.1 113.2,52.23 113.2,55.74 L121.5,55.74 L121.5,65.04 L113.2,65.04 L113.2,71.75 L121.5,71.75 L121.5,81.04 L113.2,81.04 L113.2,87.74 L121.5,87.74 L121.5,97.06 L113.2,97.06 C113.2,100.1 109.35,103.62 106.49,103.62 Z" fill="none" stroke="currentColor" stroke-width="1.5"/></svg>