<svg xmlns="http://www.w3.org/2000/svg" viewBox="0 0 135.9 118.76" width="24" height="24"><path d="M65.54,66.87 C64.9,65.07 64.88,63.38 66.44,61.34 C67.74,59.84 69.19,59.13 72.46,59.12 C71.92,57.23 71.56,55.64 73.24,54.04 C75.41,52.31 77.43,53.8 78.56,55.08 C80.54,51.73 83.3,49.46 87.63,50.57 C90.85,51.53 91.9,53.98 92.12,56.74 C94.59,55.6 97.28,55.37 99.32,57.35 C102.1,59.89 101.04,62.77 99.82,64.32 C101.57,64.79 103.1,65.65 103.1,66.87 Z M32.56,60.25 C30.1,57.03 29.75,51.4 32.42,47.76 C34.52,44.49 37.75,42.27 41.57,42.35 C41.28,39.24 41.91,36.72 45.46,33.96 C47.93,32.12 51.74,32.71 53.85,34.37 C56.91,30.2 61.09,27.54 68.02,28.51 C73.88,29.3 77.47,33.96 77.85,37.48 C81.68,36.27 85.31,37.19 88.58,39.78 C92.11,42.52 92.65,45.85 92.57,48.94 C90.68,47.3 88.39,46.01 83.99,46.51 C81.15,46.93 78.91,48.31 77.61,49.91 C75.62,49 73.08,49.19 71.07,50.97 C68.77,52.83 68.36,54.35 68.28,55.86 C65.62,56.17 63.68,58.14 62.57,60.25 Z M16.61,85.01 L118.84,85.01 L118.84,16.73 L16.61,16.73 Z M25.32,118.76 L25.32,110.49 L42.37,110.49 L42.37,101.92 L0,101.92 L0,0 L135.9,0 L135.9,101.92 L93.29,101.92 L93.29,110.49 L110.44,110.49 L110.44,118.76 Z" fill="none" stroke="currentColor" stroke-width="1.5"/></svg>