<svg xmlns="http://www.w3.org/2000/svg" viewBox="0 0 172.47 152.79" width="24" height="24"><path d="M51.7,152.79 C45.87,152.79 40.28,149.66 37.37,143.8 L3.1,83.87 C0,78.64 0.49,72.56 3.09,68.2 L37.66,8.26 C40.59,2.8 45.82,0 51.14,0 L120.54,0 C125.7,0 130.81,2.54 133.87,7.65 L168.31,67.55 C172.47,73.86 171.04,80.59 168.69,84.34 L134.44,143.89 C132.15,148.72 126.97,152.79 120.31,152.79 Z" fill="none" stroke="currentColor" stroke-width="1.5"/><path d="M104.18,152.79 L65.81,114.62 L59.62,83.8 L45.87,70.55 L79.93,30.37 L96.1,47.34 L124.95,45.47 L166.56,88.04 L134.44,143.89 C132.17,148.72 126.97,152.79 120.31,152.79 Z" fill="none" stroke="currentColor" stroke-width="1.5"/><rect x="0" y="0" width="0" height="0" fill="none" stroke="currentColor"/><path d="M91.31,53.49 L91.31,30.45 L124.95,45.47 L124.96,70.55 L108.61,70.55 C106.45,61.69 99.4,55.45 91.31,53.49 Z M45.87,70.55 L45.82,45.66 L79.93,30.37 L79.93,53.39 C70.27,56.36 64.07,63.51 62.54,70.55 Z M85.25,88.5 C78.57,88.5 73.17,83.59 73.17,76.26 C73.17,69.81 78.06,64.35 85.69,64.35 C93.94,64.35 97.77,70.39 97.77,76.77 C97.77,83.1 93.07,88.5 85.25,88.5 Z M91.31,122.5 L91.31,99.25 C100.4,96.97 106.23,89.35 108.43,82.3 L123.87,82.3 C121.06,100.62 106.52,117.98 91.31,122.5 Z M79.93,122.64 C67.12,118.47 51.05,104.08 47.08,82.3 L62.36,82.3 C66.2,93.04 72.62,97.11 79.93,99.24 Z" fill="none" stroke="currentColor" stroke-width="1.5"/></svg>