<svg xmlns="http://www.w3.org/2000/svg" viewBox="0 0 172.47 152.79" width="24" height="24"><path d="M51.7,152.79 C45.87,152.79 40.28,149.66 37.37,143.8 L3.1,83.87 C0,78.64 0.49,72.56 3.09,68.2 L37.66,8.26 C40.59,2.8 45.82,0 51.14,0 L120.54,0 C125.7,0 130.81,2.54 133.87,7.65 L168.31,67.55 C172.47,73.86 171.04,80.59 168.69,84.34 L134.44,143.89 C132.15,148.72 126.97,152.79 120.31,152.79 Z" fill="none" stroke="currentColor" stroke-width="1.5"/><path d="M95.11,152.79 L49.74,108.02 L49.74,69.46 L40.7,60.69 L75.37,45.08 L91.26,48.77 L80.02,37.42 L112.14,50.53 L116.84,54.8 L122,44.66 L165.79,89.35 L134.44,143.89 C132.17,148.72 126.97,152.79 120.31,152.79 Z" fill="none" stroke="currentColor" stroke-width="1.5"/><rect x="0" y="0" width="0" height="0" fill="none" stroke="currentColor"/><path d="M68.86,70.09 L68.86,68.58 C68.86,67.43 69.58,66.59 70.32,66.16 L83.37,58.45 C85.22,57.43 86.74,57.36 88.29,58.38 L101.27,65.9 C102.11,66.39 102.81,67.27 102.81,68.11 L102.81,70.2 L86.02,79.93 Z M68.86,73.5 L86.02,83.2 L102.81,73.45 L102.81,78.29 L86.02,88.16 L68.86,78.27 Z M70.54,87.44 C69.67,86.95 68.86,86.08 68.86,84.7 L68.86,81.65 L86.02,91.77 L102.81,81.69 L102.81,85.08 C102.81,86.26 102.14,87.08 101.03,87.68 L88.04,95 C86.65,95.88 85.29,95.98 83.95,95.13 Z M95.62,123.9 L62.21,104.57 C60.22,103.4 59.3,102.41 59.3,98.87 L59.3,74.52 C59.3,73.26 59.7,71.91 60.95,71.22 L65.41,68.62 L65.41,97.13 C65.41,99.35 65.89,99.8 67.15,100.59 L89.08,113.25 C92.7,114.96 95.42,120.13 95.62,123.9 Z M131.12,92.17 L97.93,111.31 C96.32,112.33 94.67,112 93.31,111.24 L71.17,98.6 C69.95,97.87 68.86,97 68.86,95.33 L68.86,90.49 L93.64,104.86 C94.67,105.42 96.07,105.67 97.9,104.66 L119.84,91.97 C123.72,89.81 128.48,90.22 131.12,92.17 Z M122,44.66 L122,83.69 C122,86.06 121.02,86.79 119.33,87.82 L97.97,100.18 C96.35,101.11 95.03,101.23 93.21,100.31 L89.76,98.15 L114.91,83.62 C115.87,83.08 116.55,82.17 116.55,80.33 L116.55,53.42 C116.55,50.4 119.35,46.88 122,44.66 Z M76.36,29.04 L109.68,48.15 C112.39,49.6 112.73,51.41 112.73,54.06 L112.73,78.02 C112.73,79.76 112.02,80.96 111.15,81.51 L106.5,84.31 L106.5,56.12 C106.5,54.33 106.5,52.83 103.99,51.64 L81.73,38.82 C78.13,36.46 77.03,32.72 76.36,29.04 Z M40.7,60.69 L73.13,41.92 C74.53,41.08 76.65,40.34 78.79,41.6 L100.58,54.13 C102.07,54.89 102.76,55.82 102.76,57.22 L102.78,62.23 L78.62,48.25 C76.99,47.2 75.54,47.16 73.84,48.18 L51.56,61.36 C48.67,62.85 43.33,62.63 40.7,60.69 Z M49.74,108.02 L49.74,68.22 C49.79,66.85 50.35,66.2 51.49,65.56 L74.47,52.31 C75.76,51.55 76.83,51.57 78.03,52.2 L82.51,54.71 L58.47,68.23 C56.96,68.97 55.38,70.59 55.39,72.33 L55.39,98.6 C55.39,102.64 52.59,106.53 49.74,108.02 Z" fill="none" stroke="currentColor" stroke-width="1.5"/></svg>