<svg xmlns="http://www.w3.org/2000/svg" viewBox="0 0 21.31 19.71" width="24" height="24"><path d="M8.31,15.41 L14.93,11.57 L8.31,7.71 Z M4.13,17.46 C5.08,17.46 6.18,16.66 6.18,15.57 C6.18,14.5 5.26,13.56 4.18,13.56 C3.36,13.56 2.24,14.39 2.24,15.5 C2.24,16.64 3.28,17.46 4.13,17.46 Z M10.31,6.08 C11.15,6.08 12.23,5.43 12.23,4.13 C12.23,3.13 11.42,2.22 10.37,2.22 C9.38,2.22 8.38,3.14 8.38,4.02 C8.38,5.44 9.48,6.08 10.31,6.08 Z M17.19,17.07 C18.16,17.07 19.08,16.11 19.08,15.18 C19.08,14.18 18.11,13.19 17.22,13.19 C16.11,13.19 15.16,14.12 15.16,15.1 C15.16,16.36 16.32,17.07 17.19,17.07 Z M17.12,19.37 C14.76,19.37 12.99,17.43 12.99,15.27 L6.7,18.95 C5.9,19.42 5.2,19.71 4.04,19.71 C1.87,19.71 0,17.91 0,15.69 C0,12.77 2.19,11.35 4.06,11.35 C5.12,11.35 5.56,11.54 6.17,11.86 L6.17,3.82 C6.17,2.06 7.63,0 10.56,0 C12.72,0 14.48,1.94 14.48,4.15 C14.48,6.15 13.55,7.09 12.59,7.67 L19.24,11.54 C20.54,12.28 21.31,13.62 21.31,15.09 C21.31,17.49 19.47,19.37 17.12,19.37 Z" fill="none" stroke="currentColor" stroke-width="1.5"/></svg>