<svg xmlns="http://www.w3.org/2000/svg" viewBox="0 0 159.78 144.5" width="24" height="24"><path d="M97.49,59.59 C98.53,59.59 99.03,59.17 99.03,58.03 L98.97,31.11 C98.97,30.16 98.14,29.96 97.44,29.96 L77.34,30.01 C76.13,30.01 75.22,29.62 74.65,28.97 L72,25.93 C71.26,24.96 70.36,24.04 69.07,24.04 L56.08,24.04 C55.54,24.04 54.97,24.38 54.97,24.98 L54.97,57.91 C54.97,59.26 55.68,59.62 56.57,59.62 Z M8.93,69.58 C5.4,64.18 2.37,55.35 8.74,44.07 C12.35,37.44 21.92,32.32 28.49,32.12 C27.62,26.28 29.48,19.5 36.57,14.78 C42.37,10.95 50.97,12.05 54.52,15.67 C60.39,5.94 73.7,0 86.13,3.25 C97.46,5.81 103.19,13.08 105.55,21.96 C112.57,19.99 122.1,20.45 130.69,29.26 C136.63,35.14 138.01,44.63 134.93,51.74 C138.67,53.53 141.09,56.26 142.2,59.12 C143.61,62.22 144.03,66.21 142.75,69.68 Z M137.37,112.02 L137.33,109.28 L148.66,109.28 L148.69,112.02 Z M137.4,117.66 L137.33,115.06 L151.6,115.02 L151.6,117.66 Z M137.43,123.47 L137.33,120.63 L151.57,120.8 L151.57,123.41 Z M134.44,129.3 L154.57,129.35 L154.64,111.95 L146.74,103.33 L134.38,103.35 Z M120.03,137.87 L140.24,137.81 L140.26,134.88 L128.7,134.93 L128.7,132.19 L123.1,132.14 L123.03,129.4 L128.83,129.32 L128.81,126.33 L123.08,126.35 L123.03,123.54 L128.71,123.46 L128.65,120.53 L123.05,120.53 L123.07,117.73 L128.73,117.71 L128.65,112.18 L120.16,112.08 Z M114.38,143.5 L114.41,106.47 L128.71,106.34 L128.63,97.7 L149.31,97.8 L159.72,109.14 L159.78,134.93 L145.85,134.77 L145.79,143.49 Z M6.06,132.01 L44.22,132.01 L44.22,106.62 L6.06,106.62 Z M9.4,144.5 L9.4,141.39 L15.7,141.39 L15.7,138.34 L0,138.34 L0,100.48 L50.54,100.48 L50.54,138.34 L34.62,138.34 L34.62,141.39 L41.15,141.39 L41.15,144.5 Z" fill="none" stroke="currentColor" stroke-width="1.5"/><path d="M103.62,74.32 L104.01,74.73 L105.45,73.34 L105.05,72.93 Z M105.4,76.17 L106.79,77.61 L108.23,76.22 L106.84,74.78 Z M108.18,79.05 L109.57,80.48 L111.01,79.09 L109.62,77.66 Z M110.96,81.92 L112.35,83.36 L113.79,81.97 L112.4,80.53 Z M113.74,84.8 L115.13,86.24 L116.57,84.85 L115.18,83.41 Z M116.52,87.67 L117.91,89.11 L119.35,87.72 L117.96,86.28 Z M119.3,90.55 L120.7,91.99 L122.13,90.6 L120.74,89.16 Z M122.08,93.43 L123.47,94.86 L124.91,93.47 L123.52,92.03 Z M124.87,96.3 L126.25,97.74 L127.69,96.35 L126.3,94.91 Z M46.93,74.75 L48.38,76.13 L49.76,74.69 L48.32,73.31 Z M44.16,77.63 L45.6,79.02 L46.99,77.58 L45.55,76.19 Z M41.39,80.51 L42.83,81.9 L44.21,80.46 L42.77,79.07 Z M38.61,83.39 L40.05,84.78 L41.44,83.34 L40,81.95 Z M35.84,86.28 L37.28,87.66 L38.67,86.22 L37.23,84.84 Z M33.06,89.16 L34.51,90.54 L35.89,89.1 L34.45,87.72 Z M30.29,92.04 L31.73,93.43 L33.12,91.99 L31.68,90.6 Z M27.52,94.92 L28.96,96.31 L30.35,94.87 L28.9,93.48 Z M24.74,97.8 L26.19,99.19 L27.57,97.75 L26.13,96.36 Z" fill="none" stroke="currentColor" stroke-width="1.5"/></svg>