<svg xmlns="http://www.w3.org/2000/svg" viewBox="0 0 172.47 152.79" width="24" height="24"><path d="M51.7,152.79 C45.87,152.79 40.28,149.66 37.37,143.8 L3.1,83.87 C0,78.64 0.49,72.56 3.09,68.2 L37.66,8.26 C40.59,2.8 45.82,0 51.14,0 L120.54,0 C125.7,0 130.81,2.54 133.87,7.65 L168.31,67.55 C172.47,73.86 171.04,80.59 168.69,84.34 L134.44,143.89 C132.15,148.72 126.97,152.79 120.31,152.79 Z" fill="none" stroke="currentColor" stroke-width="1.5"/><path d="M98.96,152.79 L53.27,107.3 L64.48,53.13 L76.27,43.52 L80.62,47.7 L83.28,43.52 L94.37,54.87 L96.94,36.73 L101.56,41.18 L123.29,39.26 L168.34,84.95 L134.44,143.89 C132.17,148.72 126.97,152.79 120.31,152.79 Z" fill="none" stroke="currentColor" stroke-width="1.5"/><rect x="0" y="0" width="0" height="0" fill="none" stroke="currentColor"/><path d="M96.94,36.73 L93.26,36.73 L93.26,53.73 L96.94,53.73 Z M108.78,64.24 L108.78,68.3 L125.78,68.3 L125.78,64.24 Z M125.78,60.91 L125.78,45.23 C125.78,40.54 121.98,36.73 117.28,36.73 L100.58,36.73 L100.58,53.73 L108.78,53.73 L108.78,60.91 Z M79.82,60.52 L83.28,60.52 L83.28,43.52 L79.82,43.52 Z M119.26,81.79 L119.26,78.17 L102.26,78.17 L102.26,81.79 Z M102.26,85.23 L102.26,93.1 L68.07,93.1 L68.07,60.52 L76.27,60.52 L76.27,43.52 L59.57,43.52 C54.88,43.52 51.07,47.32 51.07,52.02 L51.07,101.6 C51.07,106.3 54.88,110.1 59.57,110.1 L110.76,110.1 C115.45,110.1 119.26,106.3 119.26,101.6 L119.26,85.23 Z" fill="none" stroke="currentColor" stroke-width="1.5"/></svg>