<svg xmlns="http://www.w3.org/2000/svg" viewBox="0 0 161.24 143.98" width="24" height="24"><path d="M139.38,132.65 C142.45,132.65 144.99,130.19 144.99,127.07 C144.99,124.24 143.17,121.59 139.34,121.59 C135.74,121.59 133.76,124.3 133.76,126.94 C133.76,130.37 136.12,132.65 139.38,132.65 Z M103.87,132.65 C106.94,132.65 109.48,130.19 109.48,127.07 C109.48,124.24 107.66,121.59 103.84,121.59 C100.24,121.59 98.26,124.3 98.26,126.94 C98.26,130.37 100.62,132.65 103.87,132.65 Z M65.61,132.65 C68.68,132.65 71.22,130.19 71.22,127.07 C71.22,124.24 69.4,121.59 65.57,121.59 C61.98,121.59 59.99,124.3 59.99,126.94 C59.99,130.37 62.35,132.65 65.61,132.65 Z M25.68,136.76 C31.02,136.76 35.64,133.26 35.64,127.24 C35.64,121.32 31.34,117.48 26.42,117.48 C19.35,117.48 16.36,122.47 16.36,127.04 C16.36,132.72 20.61,136.76 25.68,136.76 Z M41.39,72.25 L122.22,72.25 C122.82,70.3 122.93,68.01 121.83,65.46 C121.07,63.53 119.99,62.02 117.46,60.89 C118.84,57.31 119.55,52.19 114.48,46.92 C109.56,42.02 104.36,41.62 99.64,42.73 C98.08,36.53 93.41,32.31 86.85,31.43 C78.18,29.97 72.5,33.48 68.83,38.93 C66.08,36.77 61.59,36.1 57.66,38.67 C52.94,42.03 52.67,45.73 52.95,49.03 C47.97,49.43 43.87,51.48 40.92,56.54 C37.41,62.62 39.13,69.16 41.39,72.21 Z M0.06,105.68 L26.65,0 L132.89,0 L161.24,105.68 Z M0,143.98 L0,108.42 L161.13,108.42 L161.13,143.98 Z" fill="none" stroke="currentColor" stroke-width="1.5"/></svg>