<svg xmlns="http://www.w3.org/2000/svg" viewBox="0 0 172.47 152.79" width="24" height="24"><path d="M51.7,152.79 C45.87,152.79 40.28,149.66 37.37,143.8 L3.1,83.87 C0,78.64 0.49,72.56 3.09,68.2 L37.66,8.26 C40.59,2.8 45.82,0 51.14,0 L120.54,0 C125.7,0 130.81,2.54 133.87,7.65 L168.31,67.55 C172.47,73.86 171.04,80.59 168.69,84.34 L134.44,143.89 C132.15,148.72 126.97,152.79 120.31,152.79 Z" fill="none" stroke="currentColor" stroke-width="1.5"/><path d="M112.32,152.79 L36.03,76.41 L51.57,60.75 L134.44,143.89 L135.57,141.95 L53.14,59.16 L68.69,43.5 L147.02,122.01 L148.11,120.2 L87.55,59.07 L103.09,43.41 L159.6,100.15 L134.44,143.89 C132.17,148.72 126.97,152.79 120.31,152.79 Z" fill="none" stroke="currentColor" stroke-width="1.5"/><rect x="0" y="0" width="0" height="0" fill="none" stroke="currentColor"/><path d="M104.79,76.45 L120.34,60.79 L135.92,76.45 L120.34,92.18 Z M87.57,93.62 L103.12,77.96 L118.7,93.62 L103.12,109.34 Z M87.55,59.07 L103.09,43.41 L118.67,59.07 L103.09,74.79 Z M53.25,93.71 L68.8,78.05 L84.38,93.71 L68.8,109.43 Z M53.14,59.16 L68.69,43.5 L84.27,59.16 L68.69,74.89 Z M36.03,76.41 L51.57,60.75 L67.15,76.41 L51.57,92.13 Z" fill="none" stroke="currentColor" stroke-width="1.5"/></svg>