<svg xmlns="http://www.w3.org/2000/svg" viewBox="0 0 172.47 152.79" width="24" height="24"><path d="M51.7,152.79 C45.87,152.79 40.28,149.66 37.37,143.8 L3.1,83.87 C0,78.64 0.49,72.56 3.09,68.2 L37.66,8.26 C40.59,2.8 45.82,0 51.14,0 L120.54,0 C125.7,0 130.81,2.54 133.87,7.65 L168.31,67.55 C172.47,73.86 171.04,80.59 168.69,84.34 L134.44,143.89 C132.15,148.72 126.97,152.79 120.31,152.79 Z" fill="none" stroke="currentColor" stroke-width="1.5"/><path d="M51.2,107.08 L57.83,98.7 L51.2,92.45 L59.29,81.35 L51.2,74.12 L57.49,62.55 L51.2,56.01 L75.67,45.92 L79.93,52.2 L112.46,45.92 L162.11,95.78 L134.44,143.89 C132.15,148.72 126.97,152.79 120.31,152.79 L97.88,152.79 Z" fill="none" stroke="currentColor" stroke-width="1.5"/><rect x="0" y="0" width="0" height="0" fill="none" stroke="currentColor"/><path d="M81.96,82.04 C84.65,82.04 87.27,79.47 87.27,76.61 C87.27,73.72 85.2,71.15 81.96,71.15 C78.81,71.19 76.31,73.73 76.31,76.61 C76.31,79.71 79.23,82.04 81.96,82.04 Z M81.16,107.08 L71.63,92.45 L51.2,92.45 L51.2,78.95 L63.69,78.95 L68.48,86.57 L74.03,86.57 L67.29,76.68 L74.03,66.54 L68.48,66.54 L63.69,74.12 L51.2,74.12 L51.2,60.57 L71.63,60.57 L81.16,45.92 L112.46,45.92 L112.46,59.01 L125.13,59.01 L125.13,65.34 L94.78,65.3 L88.94,55.89 L81.54,55.89 L78.29,60.57 L86.17,60.57 L92.07,69.72 L112.46,69.72 L112.46,73.45 L125.13,73.45 L125.13,79.8 L112.46,79.8 L112.46,83.28 L92.07,83.28 L86.17,92.45 L78.29,92.45 L81.54,97.18 L88.94,97.18 L94.78,87.87 L125.13,87.87 L125.13,94.31 L112.46,94.31 L112.46,107.08 Z M51.2,56.01 L51.2,45.92 L75.67,45.92 L69.26,56.01 Z M75.67,107.08 L51.2,107.08 L51.2,97.18 L69.26,97.18 Z" fill="none" stroke="currentColor" stroke-width="1.5"/></svg>