<svg xmlns="http://www.w3.org/2000/svg" viewBox="0 0 172.47 152.79" width="24" height="24"><path d="M51.7,152.79 C45.87,152.79 40.28,149.66 37.37,143.8 L3.1,83.87 C0,78.64 0.49,72.56 3.09,68.2 L37.66,8.26 C40.59,2.8 45.82,0 51.14,0 L120.54,0 C125.7,0 130.81,2.54 133.87,7.65 L168.31,67.55 C172.47,73.86 171.04,80.59 168.69,84.34 L134.44,143.89 C132.15,148.72 126.97,152.79 120.31,152.79 Z" fill="none" stroke="currentColor" stroke-width="1.5"/><path d="M90.42,152.79 L44.78,107.33 L65.58,74.32 L51.27,60.04 L72.45,56.34 L62.4,46.62 L111.77,41.71 L163.5,93.38 L134.44,143.89 C132.17,148.72 126.97,152.79 120.31,152.79 Z" fill="none" stroke="currentColor" stroke-width="1.5"/><rect x="0" y="0" width="0" height="0" fill="none" stroke="currentColor"/><path d="M62.4,46.62 L62.4,41.71 L111.77,41.71 L111.77,46.62 Z M51.27,60.04 L51.27,55.12 L122.29,55.12 L122.29,60.04 Z M44.78,107.33 L44.78,72.38 L68.11,72.38 C70.96,72.38 73.07,74.69 73.07,77.51 L73.07,82.01 L100.95,82.01 L100.95,77.51 C100.95,74.49 103.35,72.38 107.4,72.38 L130,72.38 L130,107.33 Z" fill="none" stroke="currentColor" stroke-width="1.5"/></svg>