<svg xmlns="http://www.w3.org/2000/svg" viewBox="0 0 172.47 152.79" width="24" height="24"><path d="M51.7,152.79 C45.87,152.79 40.28,149.66 37.37,143.8 L3.1,83.87 C0,78.64 0.49,72.56 3.09,68.2 L37.66,8.26 C40.59,2.8 45.82,0 51.14,0 L120.54,0 C125.7,0 130.81,2.54 133.87,7.65 L168.31,67.55 C172.47,73.86 171.04,80.59 168.69,84.34 L134.44,143.89 C132.15,148.72 126.97,152.79 120.31,152.79 Z" fill="none" stroke="currentColor" stroke-width="1.5"/><path d="M94.4,152.79 L48.94,107.71 L54.75,86.65 L69.87,83.79 L77.82,39.35 L96.01,40.86 L157.96,103 L134.44,143.89 C132.17,148.72 126.97,152.79 120.31,152.79 Z" fill="none" stroke="currentColor" stroke-width="1.5"/><rect x="0" y="0" width="0" height="0" fill="none" stroke="currentColor"/><path d="M76.83,95.95 L102.47,81.07 L76.83,66.12 Z M60.64,103.88 C64.31,103.88 68.58,100.8 68.58,96.55 C68.58,92.41 64.99,88.79 60.81,88.79 C57.64,88.79 53.32,91.98 53.32,96.3 C53.32,100.71 57.36,103.88 60.64,103.88 Z M84.57,59.8 C87.8,59.8 92,57.29 92,52.25 C92,48.39 88.86,44.87 84.79,44.87 C80.95,44.87 77.1,48.43 77.1,51.85 C77.1,57.35 81.36,59.8 84.57,59.8 Z M111.2,102.38 C114.97,102.38 118.53,98.66 118.53,95.04 C118.53,91.17 114.77,87.35 111.33,87.35 C107.02,87.35 103.33,90.95 103.33,94.73 C103.33,99.63 107.85,102.38 111.2,102.38 Z M110.92,111.3 C101.78,111.3 94.95,103.75 94.95,95.41 L70.6,109.64 C67.49,111.47 64.78,112.59 60.28,112.59 C51.88,112.59 44.64,105.62 44.64,97.03 C44.64,85.72 53.11,80.24 60.37,80.24 C64.48,80.24 66.16,80.95 68.54,82.2 L68.54,51.08 C68.54,44.24 74.18,36.27 85.55,36.27 C93.88,36.27 100.7,43.8 100.7,52.35 C100.7,60.09 97.09,63.73 93.38,65.96 L119.15,80.94 C124.16,83.83 127.17,89 127.17,94.69 C127.17,104 120.03,111.3 110.92,111.3 Z" fill="none" stroke="currentColor" stroke-width="1.5"/></svg>