<svg xmlns="http://www.w3.org/2000/svg" viewBox="0 0 138.51 92.63" width="24" height="24"><path d="M27.66,92.63 C20.12,92.63 11.71,87.41 7.2,80.39 C2.44,73.38 0,61.23 5.83,50.16 C10.32,40.93 20.22,35.56 27.8,35.56 C26.75,28.71 29.62,20.58 36.92,15.57 C42.54,12.27 49.67,11.43 56.46,16.34 C62.79,6.57 73.93,0 86.8,1.9 C97.78,3.63 104.72,10.28 108.26,15.45 C97,23.68 89.88,30.13 80.92,39.12 L65.28,23.47 L47.38,41.45 L85.03,79.01 C89.49,67.37 95.89,56.17 104.3,44.67 C108.8,38.32 115.49,30.79 119.73,26.25 C124.93,28.11 129.53,31.87 130.9,37.54 C132.26,42.97 131.47,47.37 128.9,50.86 C135.1,59.39 138.51,68.7 133.02,79.97 C129.42,86.74 122.08,92.6 114.44,92.6 Z" fill="none" stroke="currentColor" stroke-width="1.5"/><path d="M27.66,92.63 C20.12,92.63 11.71,87.41 7.2,80.39 C2.44,73.38 0,61.23 5.83,50.16 C10.32,40.93 20.22,35.56 27.8,35.56 C26.75,28.71 29.62,20.58 36.92,15.57 C42.54,12.27 49.67,11.43 56.46,16.34 C62.79,6.57 73.93,0 86.8,1.9 C97.78,3.63 104.72,10.28 108.26,15.45 C97,23.68 89.88,30.13 80.92,39.12 L65.28,23.47 L47.38,41.45 L85.03,79.01 C89.49,67.37 95.89,56.17 104.3,44.67 C108.8,38.32 115.49,30.79 119.73,26.25 C124.93,28.11 129.53,31.87 130.9,37.54 C132.26,42.97 131.47,47.37 128.9,50.86 C135.1,59.39 138.51,68.7 133.02,79.97 C129.42,86.74 122.08,92.6 114.44,92.6 Z" fill="none" stroke="currentColor" stroke-width="1.5"/><rect x="0" y="0" width="0" height="0" fill="none" stroke="currentColor"/><path d="M83.6,71.89 L53.32,41.37 L65.36,29.18 L81,44.96 C87.69,37.88 95.47,30.62 103.73,24.08 C112.06,17.23 123.83,9.82 131.45,9.41 C120.59,19.05 109.8,30.07 100.94,42.22 C93.72,52.14 87.29,62.64 83.6,71.89 Z" fill="none" stroke="currentColor" stroke-width="1.5"/></svg>