<svg xmlns="http://www.w3.org/2000/svg" viewBox="0 0 98.75 98.75" width="24" height="24"><path d="M49.51,98.75 C22.71,98.75 0,77.87 0,49.04 C0,21.12 23.28,0 49.42,0 C76.54,0 98.75,23.66 98.75,49.14 C98.75,76.02 76.88,98.75 49.51,98.75 Z" fill="none" stroke="currentColor" stroke-width="1.5"/><path d="M31.6,35.91 C28.97,35.91 27.26,33.88 27.26,31.38 C27.26,29.25 28.96,27.08 31.6,27.08 C34.1,27.08 36.07,29.09 36.07,31.38 C36.07,33.74 34.38,35.91 31.6,35.91 Z M66.95,35.91 C64.32,35.91 62.62,33.88 62.62,31.38 C62.62,29.25 64.32,27.08 66.95,27.08 C69.46,27.08 71.43,29.09 71.43,31.38 C71.43,33.74 69.73,35.91 66.95,35.91 Z M66.95,71.41 C64.32,71.41 62.62,69.37 62.62,66.87 C62.62,64.74 64.32,62.58 66.95,62.58 C69.46,62.58 71.43,64.58 71.43,66.87 C71.43,69.24 69.73,71.41 66.95,71.41 Z M27.27,58.49 C22.18,58.49 18.03,54.51 18.03,49.31 C18.03,45.31 21.34,40.16 27.27,40.16 C32.44,40.16 36.41,44.27 36.41,49.31 C36.41,54.45 32.34,58.49 27.27,58.49 Z M49.44,36.27 C44.35,36.27 40.2,32.29 40.2,27.09 C40.2,23.09 43.51,17.94 49.44,17.94 C54.61,17.94 58.58,22.05 58.58,27.09 C58.58,32.23 54.51,36.27 49.44,36.27 Z M71.53,58.49 C66.44,58.49 62.28,54.51 62.28,49.31 C62.28,45.31 65.59,40.16 71.53,40.16 C76.7,40.16 80.67,44.27 80.67,49.31 C80.67,54.45 76.6,58.49 71.53,58.49 Z M49.34,56.22 C45.61,56.22 42.46,53.35 42.46,49.32 C42.46,45.83 45.18,42.43 49.37,42.43 C52.95,42.43 56.31,45.18 56.31,49.35 C56.31,53.31 53.18,56.22 49.34,56.22 Z M31.6,71.41 C28.97,71.41 27.26,69.37 27.26,66.87 C27.26,64.74 28.96,62.58 31.6,62.58 C34.1,62.58 36.07,64.58 36.07,66.87 C36.07,69.24 34.38,71.41 31.6,71.41 Z M49.44,80.81 C44.35,80.81 40.2,76.83 40.2,71.64 C40.2,67.63 43.51,62.48 49.44,62.48 C54.61,62.48 58.58,66.59 58.58,71.64 C58.58,76.77 54.51,80.81 49.44,80.81 Z" fill="none" stroke="currentColor" stroke-width="1.5"/></svg>