<svg xmlns="http://www.w3.org/2000/svg" viewBox="0 0 20.79 20.9" width="24" height="24"><path d="M13.3,12.74 C13.3,13.22 13.18,13.43 12.57,13.41 L8.01,13.41 C7.61,13.41 7.33,13.17 7.33,12.74 L7.33,8.13 C7.33,7.8 7.49,7.49 7.88,7.49 L12.76,7.49 C13.08,7.49 13.3,7.66 13.3,7.95 Z M16.12,16.25 L16.12,4.69 L4.55,4.69 L4.55,16.25 Z M7.21,18.14 L7.21,20.21 C7.21,20.58 7,20.9 6.73,20.9 L5.82,20.9 C5.55,20.9 5.32,20.64 5.32,20.36 L5.32,18.14 L3.28,18.14 C2.95,18.14 2.72,17.91 2.72,17.57 L2.72,15.51 L0.55,15.51 C0.21,15.51 0,15.29 0,14.92 L0,14.2 C0,13.79 0.23,13.61 0.56,13.61 L2.72,13.61 L2.72,11.35 L0.41,11.35 C0.14,11.35 0,11.1 0,10.8 L0,10.08 C0,9.77 0.11,9.58 0.42,9.58 L2.72,9.58 L2.72,7.27 L0.53,7.27 C0.29,7.27 0,7.03 0,6.73 L0,5.91 C0,5.59 0.15,5.4 0.41,5.4 L2.72,5.4 L2.72,3.22 C2.72,2.96 2.88,2.73 3.18,2.73 L5.32,2.73 L5.32,0.52 C5.32,0.2 5.5,0 5.74,0 L6.79,0 C7.07,0 7.21,0.17 7.21,0.54 L7.21,2.73 L9.47,2.73 L9.47,0.48 C9.47,0.18 9.64,0 9.98,0 L10.78,0 C10.99,0 11.22,0.23 11.22,0.45 L11.22,2.73 L13.59,2.73 L13.59,0.46 C13.59,0.21 13.82,0 14.17,0 L14.93,0 C15.15,0.01 15.36,0.18 15.36,0.43 L15.36,2.73 L17.52,2.73 C17.98,2.73 18.07,3.05 18.07,3.4 L18.07,5.4 L20.13,5.4 C20.53,5.4 20.79,5.67 20.79,6 L20.79,6.87 C20.79,7.06 20.61,7.27 20.32,7.27 L18.07,7.27 L18.07,9.58 L20.42,9.58 C20.69,9.58 20.79,9.76 20.79,9.97 L20.79,10.84 C20.79,11.13 20.65,11.35 20.34,11.35 L18.07,11.35 L18.07,13.61 L20.09,13.61 C20.53,13.61 20.79,13.77 20.79,14.17 L20.79,15.07 C20.79,15.26 20.6,15.51 20.35,15.51 L18.07,15.51 L18.07,17.38 C18.07,17.86 17.86,18.14 17.25,18.14 L15.36,18.14 L15.36,20.21 C15.36,20.62 15.21,20.9 14.77,20.9 L13.92,20.9 C13.72,20.9 13.59,20.7 13.59,20.45 L13.59,18.14 L11.22,18.14 L11.22,20.35 C11.22,20.6 11.11,20.9 10.73,20.9 L9.82,20.9 C9.6,20.9 9.47,20.59 9.47,20.36 L9.47,18.14 Z" fill="none" stroke="currentColor" stroke-width="1.5"/></svg>