<svg xmlns="http://www.w3.org/2000/svg" viewBox="0 0 165.55 118.26" width="24" height="24"><path d="M0,118.26 L0,88.87 L21.08,88.87 L21.08,67.19 L80.16,67.19 L80.16,50.12 L42.2,50.12 L42.2,0 L123.3,0 L123.3,50.12 L85.14,50.12 L85.14,67.19 L144.27,67.19 L144.27,88.87 L165.55,88.87 L165.55,118.26 L118.05,118.26 L118.05,88.87 L139.18,88.87 L139.18,72.08 L85.14,72.08 L85.14,88.87 L106.43,88.87 L106.43,118.26 L58.91,118.26 L58.91,88.87 L80.16,88.87 L80.16,72.08 L25.92,72.08 L25.92,88.87 L47.42,88.87 L47.42,118.26 Z" fill="none" stroke="currentColor" stroke-width="1.5"/></svg>