<svg xmlns="http://www.w3.org/2000/svg" viewBox="0 0 172.47 152.79" width="24" height="24"><path d="M51.7,152.79 C45.87,152.79 40.28,149.66 37.37,143.8 L3.1,83.87 C0,78.64 0.49,72.56 3.09,68.2 L37.66,8.26 C40.59,2.8 45.82,0 51.14,0 L120.54,0 C125.7,0 130.81,2.54 133.87,7.65 L168.31,67.55 C172.47,73.86 171.04,80.59 168.69,84.34 L134.44,143.89 C132.15,148.72 126.97,152.79 120.31,152.79 Z" fill="none" stroke="currentColor" stroke-width="1.5"/><path d="M102.84,152.79 L55.36,104.14 L50.36,60.05 L78.93,38.84 L114.31,47.12 L162.52,95.07 L134.44,143.89 C132.17,148.72 126.97,152.79 120.31,152.79 Z" fill="none" stroke="currentColor" stroke-width="1.5"/><rect x="0" y="0" width="0" height="0" fill="none" stroke="currentColor"/><path d="M86.18,109.17 C102.15,109.17 115.9,95.85 117.86,82.5 L104.21,74.32 L104.21,87.29 L87.81,96.87 L87.81,77.71 L104.17,68.26 L118.59,76.67 C118.35,65.5 112.45,55.61 104.03,49.91 C95.9,44.34 85.43,42.95 75.02,46.43 L75.02,61.17 L85.86,54.84 L102.36,64.78 L85.68,74.32 L69.75,64.74 L69.75,48.56 C61.04,54.95 53.5,63.19 53.5,76.76 C53.5,88.25 59.48,96.42 64.8,101.3 L78.18,93.35 L67.33,87.33 L67.33,67.95 L84.03,77.84 L84.03,96.37 L69.5,104.78 C73.73,107.01 80.23,109.17 86.18,109.17 Z M86.07,117.87 C62.7,117.87 44.94,99.18 44.94,76.51 C44.94,54.66 63.04,35.76 86.5,35.76 C108.2,35.76 126.82,53.6 126.82,76.75 C126.82,100.43 108.2,117.87 86.07,117.87 Z" fill="none" stroke="currentColor" stroke-width="1.5"/></svg>