<svg xmlns="http://www.w3.org/2000/svg" viewBox="0 0 172.47 152.79" width="24" height="24"><path d="M51.7,152.79 C45.87,152.79 40.28,149.66 37.37,143.8 L3.1,83.87 C0,78.64 0.49,72.56 3.09,68.2 L37.66,8.26 C40.59,2.8 45.82,0 51.14,0 L120.54,0 C125.7,0 130.81,2.54 133.87,7.65 L168.31,67.55 C172.47,73.86 171.04,80.59 168.69,84.34 L134.44,143.89 C132.15,148.72 126.97,152.79 120.31,152.79 Z" fill="none" stroke="currentColor" stroke-width="1.5"/><path d="M104.31,152.79 L49.07,97.65 L65.65,67.73 L71.73,73.55 L71.56,72.33 L51.57,53.73 L85.62,50.86 L120.23,53.75 L161.9,96.13 L134.44,143.89 C132.17,148.72 126.97,152.79 120.31,152.79 Z" fill="none" stroke="currentColor" stroke-width="1.5"/><rect x="0" y="0" width="0" height="0" fill="none" stroke="currentColor"/><path d="M103.72,63.45 L85.99,53.1 L68.25,63.42 L51.57,53.73 L85.94,33.92 L120.23,53.75 Z M76.27,88.19 L70.9,85.44 L70.9,67.71 L86.18,58.81 L91.68,62.08 Z M85.95,93.98 L80.52,90.75 L95.77,64.41 L101.33,67.9 L101.33,85.06 Z M88.35,117.66 L88.57,98.32 L106.6,88.03 L106.6,67.45 L122.68,58.18 L122.68,97.81 Z M83.33,117.55 L49.07,97.65 L49.07,57.9 L65.65,67.73 L65.65,88.03 L83.49,98.31 Z" fill="none" stroke="currentColor" stroke-width="1.5"/></svg>