<svg xmlns="http://www.w3.org/2000/svg" viewBox="0 0 18.61 21.33" width="24" height="24"><path d="M9.29,19.39 L16.31,15.3 L13.65,13.72 L9.68,15.99 L9.68,10.9 L14.12,8.26 L14.12,12.82 L16.87,14.38 L16.87,6.35 L9.87,2.25 L9.87,5.43 L13.79,7.62 L9.3,10.26 L4.84,7.64 L8.77,5.4 L8.77,2.25 L1.77,6.36 L1.77,14.38 L4.45,12.76 L4.45,8.23 L8.94,10.9 L8.94,16.02 L5.02,13.73 L2.3,15.34 Z M9.88,21.08 C9.43,21.33 8.97,21.25 8.48,20.97 L0.53,16.31 C0.08,16.01 0,15.81 0,15.33 L0,5.91 C0,5.49 0.14,5.18 0.55,4.95 L8.54,0.31 C9.11,0 9.59,0 10.12,0.35 L18.16,5.02 C18.55,5.23 18.61,5.54 18.61,5.96 L18.61,15.31 C18.61,15.75 18.43,16.16 18.08,16.34 Z" fill="none" stroke="currentColor" stroke-width="1.5"/></svg>