<svg xmlns="http://www.w3.org/2000/svg" viewBox="0 0 115.13 136.94" width="24" height="24"><path d="M52.65,67.64 L52.64,75.22 C50.62,74.69 48.76,73.27 48.76,71.3 C48.76,69.41 50.34,67.98 52.65,67.64 Z M59.08,100.52 L59.08,92.24 C60.97,92.52 64.26,93.93 64.26,96.61 C64.26,98.81 62.09,100.43 59.08,100.52 Z M52.64,119.57 L59.06,119.55 L59.06,113.93 C63.57,113.7 68.44,112.41 71.64,110.55 C77.92,106.84 80.4,100.84 80.4,95.11 C80.4,88.73 77.59,85 74.03,82.57 C70.55,79.99 64.22,78.13 59.07,77.02 L59.01,68.04 C63.18,68.58 67.58,70.81 70.75,73.1 L78.79,61.89 C74.94,58.34 67.01,54.84 59.11,54.28 L59.12,43.63 L52.63,43.58 L52.72,54.2 C49.29,54.48 46.32,55.11 42.79,56.68 C35.09,60.47 32.4,67.44 32.66,73.35 C32.81,80.49 36.54,84.12 40.66,86.31 C44.58,88.47 48.96,89.69 52.71,90.58 L52.75,100.28 C48.28,99.64 42.4,96.81 38.85,93.76 L29.87,104.37 C35.61,109.34 43.1,112.86 52.71,113.73 Z M0.18,136.94 L0,0.01 L71.85,0 L115.13,40.16 L115.13,136.92 Z" fill="none" stroke="currentColor" stroke-width="1.5"/><path d="M115.13,79.62 L71.85,40.16 L115.13,40.16 Z" fill="none" stroke="currentColor" stroke-width="1.5"/><path d="M115.13,40.16 L71.85,40.16 L71.85,0 Z" fill="none" stroke="currentColor" stroke-width="1.5"/></svg>