<svg xmlns="http://www.w3.org/2000/svg" viewBox="0 0 93.28 140.27" width="24" height="24"><path d="M42.06,44.41 C37.78,45.03 34.87,47.67 34.87,51.16 C34.87,54.8 38.31,57.41 42.04,58.39 Z M53.92,105.09 C59.48,104.93 63.48,101.94 63.48,97.88 C63.48,92.94 57.41,90.33 53.92,89.83 Z M42.03,140.27 L42.16,129.48 C24.42,127.89 10.6,121.39 0,112.21 L16.57,92.63 C23.13,98.25 33.99,103.48 42.23,104.66 L42.16,86.75 C35.23,85.11 27.15,82.86 19.91,78.87 C12.32,74.84 5.43,68.13 5.16,54.95 C4.66,44.03 9.64,31.18 23.85,24.18 C30.37,21.28 35.86,20.12 42.18,19.59 L42.02,0 L53.99,0.08 L53.97,19.75 C68.56,20.78 83.2,27.24 90.31,33.79 L75.46,54.49 C69.61,50.26 61.49,46.15 53.8,45.14 L53.91,61.72 C63.41,63.77 75.1,67.21 81.52,71.96 C88.08,76.45 93.28,83.34 93.28,95.12 C93.28,105.7 88.69,116.76 77.1,123.62 C71.21,127.05 62.22,129.44 53.89,129.85 L53.89,140.24 Z" fill="none" stroke="currentColor" stroke-width="1.5"/></svg>