<svg xmlns="http://www.w3.org/2000/svg" viewBox="0 0 165.25 139.56" width="24" height="24"><path d="M110.47,33.77 L138.13,27.69 L135.12,34.97 C144.94,38.91 151.83,43.33 157.37,49.27 C163.6,56.89 165.25,65.97 162.85,70.92 C162.9,64.88 158.31,60.32 151.96,56.69 C145.84,52.96 137.26,51.3 129.44,49.47 L126.57,56.89 Z M101.85,15.19 C101.85,18.26 98.43,20.73 93.8,22.96 C88.82,25.28 82.02,26.83 72.95,28.26 C58.47,30.34 41.96,30.22 29.3,28.24 C21.85,27.3 12.26,25.3 5.53,21.81 C3.37,20.85 0.1,18.16 0,15.19 C0.01,12.43 3.13,9.7 6.5,8.15 C13.85,4.72 23.26,2.71 33.12,1.6 C45.35,0 61.94,0.6 74.18,2.23 C83.39,3.5 92.08,5.88 97.9,9.55 C99.82,10.86 101.85,12.91 101.85,15.19 Z M102.05,39.78 C102.05,46.28 91.41,49.55 75.65,52.81 C61.81,55.18 43.02,55.19 29.22,53.28 C18,51.77 0.39,47.33 0,40.52 L0,22.54 C6.27,27.84 19.89,30.23 29.48,31.5 C43.14,33.51 60.22,33.17 73.85,31.36 C82.96,30.28 95.7,27.45 102.05,22.48 Z M74.25,78.37 C65.82,79.92 53.82,80.42 44.28,80.04 C30.68,79.23 2.76,76.35 0,66.17 L0,47.87 C5.36,52.9 19.71,55.73 29.61,57.05 C45.53,59.29 64.02,58.46 76.76,56.37 C90.08,54.42 97.61,51.21 102.05,48.07 L102.05,67.31 L79.73,67.31 C75.87,67.31 74.25,70.47 74.25,73.29 Z M74.33,103.85 C68.09,104.92 56.73,105.7 48.28,105.56 C29.87,104.85 2.66,101.99 0,91.31 L0,73.3 C7.95,80.51 29.77,83.04 44.55,83.82 C52.92,84.41 68.49,83.27 74.31,82.19 Z M74.32,129.47 C66.93,130.69 57.11,131.09 48.96,131.12 C36.08,131.12 1.03,127.72 0,116.4 L0,98.73 C6.34,105.23 27.9,108.58 44.45,109.3 C54.79,109.8 67.25,108.92 74.32,107.8 Z M81.12,139.56 L81.12,74.01 L107.99,74.01 L115.77,83.07 C117.78,85.33 119.8,86.01 122.37,86.01 L164.73,86.01 L164.73,139.56 Z" fill="none" stroke="currentColor" stroke-width="1.5"/></svg>