<svg xmlns="http://www.w3.org/2000/svg" viewBox="0 0 107.41 137.73" width="24" height="24"><path d="M107.41,26.5 L107.41,44.03 C106.98,45.85 105.44,47.62 104.23,48.75 L104.23,51.47 L107.41,49.34 L107.41,70.13 C106.91,72.35 105.36,73.76 104.23,74.67 L104.23,77.49 L107.41,75.38 L107.41,95.94 C107.04,98.13 105.69,99.74 104.23,100.78 L104.23,103.53 L107.41,101.52 L107.41,122.2 C107.01,125.35 103.12,128.5 96.59,131.23 C83.71,136.19 67.44,137.73 52.52,137.73 C41.29,137.73 25.72,136.11 14.69,132.67 C10.34,131.31 1.06,127.3 0,122.28 L0,101.51 L3.19,103.66 L3.19,100.78 C2.12,99.95 0.53,98.5 0,95.99 L0,75.45 L3.19,77.41 L3.19,74.69 C1.96,73.64 0.23,72.05 0,69.59 L0,49.36 L3.19,51.49 L3.19,48.59 C1.89,47.61 0.21,46.03 0,43.22 L0,26.44 C4.85,30.26 13.82,32.91 20.53,34.21 C34.14,36.89 40.32,37.31 56.59,37.31 C69.15,37.31 82.58,35.66 91.86,33.03 C98.68,31.4 103.6,29.13 107.41,26.5 Z M107.41,15.07 C107.41,17.89 104.86,20.57 101.86,22.25 C91.23,28.05 70.19,30.66 57.54,30.66 C42.7,30.67 26.27,29.55 14.22,25.8 C10,24.38 0,20.86 0,15.21 C0,12.3 3.41,9.26 7.89,7.37 C20.07,2.09 37.08,0 55.32,0 C68.62,0 86.06,2.01 97.75,6.57 C102.68,8.56 107.41,11.49 107.41,15.07 Z M25.85,120.54 L35.11,91.9 L47.65,107.75 C48.81,109.19 49.93,109.74 51.37,109.71 C52.79,109.84 54.43,109.16 55.23,107.95 L81.07,65.23 L89.86,70.07 L87.34,43.31 L63.69,55.84 L72.84,60.81 L50.96,97.05 L37.01,79.4 C35.76,77.76 33.62,77.41 31.99,77.83 C30.11,78.36 29.35,79.72 29.01,80.67 L17.34,116.86 C16.43,120.32 17.51,122.25 20.13,123.08 C22.95,124.01 25.19,122.62 25.85,120.54 Z" fill="none" stroke="currentColor" stroke-width="1.5"/></svg>