<svg xmlns="http://www.w3.org/2000/svg" viewBox="0 0 155.55 168.01" width="24" height="24"><path d="M77.44,58.21 C89.11,58.21 97.1,49.3 97.1,39.19 C97.1,27.91 87.78,19.79 78.17,19.79 C67.95,19.79 58.67,27.76 58.67,38.97 C58.67,50.14 67.52,58.21 77.44,58.21 Z M77.43,106.78 L57.1,86.49 L67.28,86.49 L67.28,70.67 C66.4,70.38 65.57,70.14 64.32,69.36 L59.55,73.96 C56.86,72.48 54.35,70.79 52.07,68.83 L54.57,62.81 C53.11,61.55 51.15,59.38 50.04,57.23 L43.52,58.59 C42.18,55.96 41.03,53.18 40.07,50.24 L45.29,46.61 C44.83,44.37 44.52,41.96 44.45,39.23 L38.5,36.8 C38.69,33.98 39.13,31.08 40.01,28.06 L46.54,27.83 C47.22,25.43 48.32,23.24 49.63,21.16 L45.9,15.96 C47.64,13.66 49.68,11.42 51.98,9.25 L57.67,12.64 C59.12,11.23 61.54,9.78 63.81,8.78 L63.48,2.39 C65.77,1.51 68.98,0.52 72.13,0 L75.08,5.79 C77.51,5.44 80.1,5.66 82.36,6 L85.6,0.36 C88.23,0.95 91.22,1.82 94.21,3.18 L93.59,9.61 C95.91,10.62 97.93,12.19 99.58,13.72 L105.29,10.68 C107.26,12.7 109.18,15.05 111.09,17.56 L106.93,22.81 C108.28,24.82 109.29,27.24 109.83,29.35 L116.34,30 C116.91,33.07 117.18,36.01 117.31,38.9 L111.16,40.99 C111.11,43.53 110.61,46.14 110,48.28 L115.07,52.24 C113.92,55.12 112.66,57.87 111.07,60.24 L104.77,58.58 C103.46,60.57 101.84,62.41 99.9,64.08 L101.98,70.14 C99.69,71.88 97.24,73.53 94.33,74.89 L89.97,70.12 L87.46,70.99 L87.46,86.49 L97.6,86.49 Z M0,168.01 L0,109.68 L20.71,61.12 L38.17,61.12 L45.76,70.88 L27.13,70.88 L14.61,100.06 L48.59,100.06 C48.53,104.17 49.61,108.34 50.86,111.19 L104.9,111.19 C106.47,107.43 107.16,103.5 107.14,100.06 L141.2,100.06 L128.62,70.88 L110.65,70.88 L118.2,61.12 L135.11,61.12 L155.55,109.09 L155.55,168.01 Z" fill="none" stroke="currentColor" stroke-width="1.5"/></svg>