<svg xmlns="http://www.w3.org/2000/svg" viewBox="0 0 172.47 152.79" width="24" height="24"><path d="M51.7,152.79 C45.87,152.79 40.28,149.66 37.37,143.8 L3.1,83.87 C0,78.64 0.49,72.56 3.09,68.2 L37.66,8.26 C40.59,2.8 45.82,0 51.14,0 L120.54,0 C125.7,0 130.81,2.54 133.87,7.65 L168.31,67.55 C172.47,73.86 171.04,80.59 168.69,84.34 L134.44,143.89 C132.15,148.72 126.97,152.79 120.31,152.79 Z" fill="none" stroke="currentColor" stroke-width="1.5"/><path d="M99.52,152.79 L54.53,108.38 L63.6,90.95 L81.42,108.79 L81.45,98.81 L64.2,82.39 L69.23,76.8 L54.53,62.38 L71.78,44.9 L82.03,55.35 L91.07,37.6 L103.01,49.9 L117.42,44.9 L164.19,92.13 L134.44,143.89 C132.17,148.72 126.97,152.79 120.31,152.79 Z" fill="none" stroke="currentColor" stroke-width="1.5"/><rect x="0" y="0" width="0" height="0" fill="none" stroke="currentColor"/><path d="M80.77,115.76 L80.77,82.22 L64.2,82.39 L91.07,37.6 L91.07,70.36 L107.3,70.4 Z M117.42,108.38 L99.94,108.38 L99.94,98.96 L108.38,98.96 L108.38,90.95 L117.42,90.95 Z M117.42,44.9 L117.42,62.38 L108.38,62.38 L108.38,54.32 L99.94,54.32 L99.94,44.9 Z M54.53,44.9 L71.78,44.9 L71.78,54.32 L63.6,54.32 L63.6,62.38 L54.53,62.38 Z M54.53,108.38 L54.53,90.95 L63.6,90.95 L63.6,98.96 L71.78,98.96 L71.78,108.38 Z" fill="none" stroke="currentColor" stroke-width="1.5"/></svg>