<svg xmlns="http://www.w3.org/2000/svg" viewBox="0 0 172.47 152.79" width="24" height="24"><path d="M51.7,152.79 C45.87,152.79 40.28,149.66 37.37,143.8 L3.1,83.87 C0,78.64 0.49,72.56 3.09,68.2 L37.66,8.26 C40.59,2.8 45.82,0 51.14,0 L120.54,0 C125.7,0 130.81,2.54 133.87,7.65 L168.31,67.55 C172.47,73.86 171.04,80.59 168.69,84.34 L134.44,143.89 C132.15,148.72 126.97,152.79 120.31,152.79 Z" fill="none" stroke="currentColor" stroke-width="1.5"/><path d="M110.64,152.79 L67.54,109.44 L68.14,103.62 L44.47,80.49 L79.8,64.18 L67.18,51.19 L108.5,43.11 L161.63,96.59 L134.44,143.89 C132.17,148.72 126.97,152.79 120.31,152.79 Z" fill="none" stroke="currentColor" stroke-width="1.5"/><rect x="0" y="0" width="0" height="0" fill="none" stroke="currentColor"/><path d="M91.5,90.57 C91.5,91.83 90.46,92.54 89.01,92.54 L60.97,92.54 C59.78,92.54 59.17,91.72 59.17,90.64 L59.17,80.49 L44.47,80.49 L44.47,72.21 L59.17,72.21 L59.17,62.12 C59.17,61.05 59.84,60.26 61.17,60.26 L89.18,60.26 C90.88,60.26 91.5,61.11 91.5,62.41 Z M124.84,80.49 L108.81,80.49 L108.81,107.81 C108.81,108.91 108.28,109.8 106.88,109.8 L68.47,109.8 C67.55,109.8 67.18,109.16 67.18,108.22 L67.18,101.43 L100.44,101.43 L100.44,51.19 L67.18,51.19 L67.18,44.56 C67.18,43.57 67.55,42.96 68.54,42.96 L106.72,42.96 C108.33,42.96 108.81,43.61 108.81,45.04 L108.81,72.21 L124.84,72.21 Z" fill="none" stroke="currentColor" stroke-width="1.5"/></svg>