<svg xmlns="http://www.w3.org/2000/svg" viewBox="0 0 37.98 25.24" width="24" height="24"><path d="M27.19,6.26 C26.17,6.26 25.35,7.08 25.35,8.1 L25.35,23.43 C25.35,24.45 26.17,25.24 27.19,25.24 L36.14,25.24 C37.16,25.24 37.98,24.45 37.98,23.43 L37.98,8.1 C37.98,7.08 37.16,6.26 36.14,6.26 Z M6.1,0 C4.77,0 3.17,1.5 3.17,3 L3.17,20.63 L0,20.63 L0,25.24 L22.09,25.24 L22.09,20.63 L6.19,20.63 L6.19,2.99 L34.76,2.99 L34.76,0 Z" fill="none" stroke="currentColor" stroke-width="1.5"/><path d="M28.42,9.36 L34.87,9.36 L34.87,20.62 L28.42,20.62 Z" fill="none" stroke="currentColor" stroke-width="1.5"/></svg>