<svg xmlns="http://www.w3.org/2000/svg" viewBox="0 0 172.47 152.79" width="24" height="24"><path d="M51.7,152.79 C45.87,152.79 40.28,149.66 37.37,143.8 L3.1,83.87 C0,78.64 0.49,72.56 3.09,68.2 L37.66,8.26 C40.59,2.8 45.82,0 51.14,0 L120.54,0 C125.7,0 130.81,2.54 133.87,7.65 L168.31,67.55 C172.47,73.86 171.04,80.59 168.69,84.34 L134.44,143.89 C132.15,148.72 126.97,152.79 120.31,152.79 Z" fill="none" stroke="currentColor" stroke-width="1.5"/><path d="M107.64,152.79 L48.22,93.43 L45.88,76.67 L48.22,58.04 L66.88,77.62 L75.04,65.56 L64.22,54.14 L75.33,42.01 L113.84,48.18 L161.77,96.36 L134.44,143.89 C132.17,148.72 126.97,152.79 120.31,152.79 Z" fill="none" stroke="currentColor" stroke-width="1.5"/><rect x="0" y="0" width="0" height="0" fill="none" stroke="currentColor"/><path d="M86.02,84.32 C89.98,84.32 94.58,80.63 94.58,75.79 C94.58,71.39 91.24,67.1 85.92,67.1 C80.89,67.1 77.07,71.43 77.07,75.57 C77.07,80.45 81.38,84.32 86.02,84.32 Z M48.22,93.43 L30.25,75.79 L48.22,58.04 L48.22,71.49 L69.08,71.49 C71.69,63.02 78.29,58.5 86.24,58.5 C94.19,58.5 101.12,64.14 102.28,71.49 L123.39,71.49 L123.39,58.07 L140.86,75.44 L123.39,93.61 L123.39,79.98 L102.44,79.98 C100.95,85.87 96,92.76 85.67,92.76 C76.43,92.76 70.87,86.67 69.07,79.98 L48.22,79.98 Z M64.22,54.14 L57.99,48.24 C63.51,42.18 73.05,36.61 86.27,36.61 C97.24,36.61 106.75,40.95 113.84,48.18 L107.75,54.35 C103.4,50.18 95.01,45.05 86.46,45.05 C76.91,45.05 68.78,49.55 64.22,54.14 Z M113.89,103.08 C107.37,109.6 98.82,114.65 86.62,114.65 C73.01,114.65 65.55,110.85 57.89,102.92 L64.25,97.11 C69.59,102.59 77.81,106.28 86.43,106.28 C95.19,106.28 103.12,101.57 107.53,96.92 Z" fill="none" stroke="currentColor" stroke-width="1.5"/></svg>