<svg xmlns="http://www.w3.org/2000/svg" viewBox="0 0 172.47 152.79" width="24" height="24"><path d="M51.7,152.79 C45.87,152.79 40.28,149.66 37.37,143.8 L3.1,83.87 C0,78.64 0.49,72.56 3.09,68.2 L37.66,8.26 C40.59,2.8 45.82,0 51.14,0 L120.54,0 C125.7,0 130.81,2.54 133.87,7.65 L168.31,67.55 C172.47,73.86 171.04,80.59 168.69,84.34 L134.44,143.89 C132.15,148.72 126.97,152.79 120.31,152.79 Z" fill="none" stroke="currentColor" stroke-width="1.5"/><path d="M96.96,152.79 L69.66,124.89 L71.44,118.16 L48.63,96.18 L68.69,70.8 L47.18,49.44 L124.39,49.37 L165.29,90.3 L134.44,143.89 C132.17,148.72 126.97,152.79 120.31,152.79 Z" fill="none" stroke="currentColor" stroke-width="1.5"/><rect x="0" y="0" width="0" height="0" fill="none" stroke="currentColor"/><path d="M86.66,70.65 L47.18,49.44 L82.27,29.23 C84.46,27.92 87.38,27.89 89.99,29.37 L124.39,49.37 Z M72.2,125.37 C70.85,126.15 69.11,124.94 69.11,123.64 L69.1,109.99 C69.1,109.26 68.47,107.85 67.33,107.22 L48.63,96.18 C46.57,94.7 45.83,93.57 45.83,90.29 L45.83,56.6 L86.59,78.67 L126.08,56.5 L126.08,90.65 C126.08,93.42 125.17,94.91 123.06,96.27 Z" fill="none" stroke="currentColor" stroke-width="1.5"/></svg>