<svg xmlns="http://www.w3.org/2000/svg" viewBox="0 0 198.18 180.7" width="24" height="24"><path d="M141.85,97.18 L138.59,71.06 L116.63,85.84 L128.2,61.88 L101.68,62.56 L124.13,48.68 L101.46,34.72 L128.05,35.41 L116.44,11.4 L138.63,26.43 L141.8,0 L152.27,24.4 L169.28,3.76 L164.88,30.11 L190.01,22.17 L172.43,41.73 L198.18,48.68 L172.49,55.59 L190.27,75.29 L164.93,67.24 L169.41,93.69 L152.35,72.9 Z M32.58,180.7 L32.58,169.95 L54.46,169.95 L54.46,159.06 L0,159.06 L0,28.45 L72.63,28.45 L105.77,48.53 L101.49,50.14 L21.58,50.14 L21.58,137.34 L152.41,137.34 L152.41,97.74 L154.35,91.39 L174.09,115.02 L174.09,159.06 L119.56,159.06 L119.56,169.95 L141.44,169.95 L141.44,180.7 Z" fill="none" stroke="currentColor" stroke-width="1.5"/></svg>