<svg xmlns="http://www.w3.org/2000/svg" viewBox="0 0 104.36 137.63" width="24" height="24"><path d="M60.8,75.26 L33.11,47.54 L44.27,36.39 L58.31,50.6 C65.06,43.9 71.92,37.31 79.37,31.31 C87.91,24.65 97.97,18.67 104.36,18.4 C95.73,25.51 87.1,35.01 78.47,45.68 C72.15,54.36 65.6,63.67 60.8,75.26 Z M58.19,128.23 C60.31,128.23 62.15,126.58 62.15,124.46 C62.15,122.05 60.62,120.34 58.44,120.34 C55.51,120.34 54.13,122.14 54.13,124.17 C54.13,126.87 56.21,128.23 58.19,128.23 Z M39.63,131.05 C42.58,131.05 46.18,128.69 46.18,124.53 C46.18,120.89 43.57,118.08 39.82,118.08 C36.17,118.08 33.11,120.73 33.11,124.56 C33.11,128 36.01,131.05 39.63,131.05 Z M20.91,128.4 C23.23,128.4 25.04,126.39 25.04,124.51 C25.04,122.1 23.3,120.4 21.06,120.4 C18.47,120.4 16.94,122.46 16.94,124.42 C16.94,126.49 18.7,128.4 20.91,128.4 Z M3.26,137.63 C1.25,137.63 0,135.41 0,133.45 L0,3.95 C0,1.74 1.57,0 3.94,0 L74.56,0 C77.28,0 78.51,1.84 78.51,3.55 L78.51,24.93 L74.03,28.52 L74.03,19.56 C74.03,18.11 73.35,17.21 72,17.21 L6.99,17.21 C5.59,17.21 5.04,18.16 5.04,19.33 L5.04,111.02 C5.04,112.78 5.72,113.54 7.1,113.54 L71.79,113.54 C73.26,113.54 74.03,112.79 74.03,111.27 L74.03,61.81 L78.51,55.06 L78.51,134 C78.51,136.32 76.75,137.63 75.25,137.63 Z" fill="none" stroke="currentColor" stroke-width="1.5"/></svg>