<svg xmlns="http://www.w3.org/2000/svg" viewBox="0 0 111.05 140.58" width="24" height="24"><path d="M94.45,102.2 C96.87,102.2 98.89,100.1 98.89,97.64 C98.89,94.94 97.31,92.94 94.26,92.94 C91.36,92.94 89.72,95.13 89.72,97.45 C89.72,100.35 91.57,102.2 94.45,102.2 Z M70.63,102.2 C73.05,102.2 75.07,100.1 75.07,97.64 C75.07,94.94 73.5,92.94 70.44,92.94 C67.55,92.94 65.91,95.13 65.91,97.45 C65.91,100.35 67.76,102.2 70.63,102.2 Z M19.13,105.64 C22.82,105.64 27.02,103.01 27.02,97.57 C27.02,92.82 23.03,89.49 18.99,89.49 C14.8,89.49 10.96,92.99 10.96,97.66 C10.96,102.2 14.74,105.64 19.13,105.64 Z M46.84,102.2 C49.27,102.2 51.29,100.1 51.29,97.64 C51.29,94.94 49.71,92.93 46.66,92.93 C43.76,92.93 42.12,95.13 42.12,97.45 C42.12,100.35 43.97,102.2 46.84,102.2 Z M0,140.58 L0,81.26 L111.05,81.26 L111.05,140.58 L98.37,140.58 L83.82,125.54 L27.54,125.54 L12.66,140.58 Z M0,73.5 L0,54.23 L111.05,54.23 L111.05,73.5 Z M0,46.25 L0,27 L111.05,27 L111.05,46.25 Z M0,19.28 L0,0 L111.05,0 L111.05,19.28 Z" fill="none" stroke="currentColor" stroke-width="1.5"/></svg>