<svg xmlns="http://www.w3.org/2000/svg" viewBox="0 0 135.1 175.67" width="24" height="24"><path d="M97.35,78.74 C102.83,77.84 109.55,76.7 114.67,74.97 L114.67,59.13 C108.87,60.4 103.06,61.49 97.35,62.31 Z M71.66,80.51 C77.44,80.51 83.97,80.24 88.95,79.51 L88.95,63.04 C84.15,63.68 77.17,64.05 71.66,63.91 Z M46.08,79.48 C50.86,80.11 57.61,80.62 63.52,80.62 L63.52,63.94 C57.58,64 51.56,63.61 46.08,63.14 Z M20.38,74.77 C24.96,76.33 31.88,77.79 37.81,78.48 L37.81,62.17 C32.06,61.44 25.65,60.34 20.38,59.1 Z M97.35,103.32 C102.83,102.41 109.55,101.27 114.67,99.54 L114.67,83.7 C108.87,84.97 103.06,86.06 97.35,86.88 Z M71.66,105.09 C77.44,105.09 83.97,104.81 88.95,104.08 L88.95,87.61 C84.15,88.25 77.17,88.62 71.66,88.48 Z M46.08,104.05 C50.86,104.68 57.61,105.19 63.52,105.19 L63.52,88.51 C57.58,88.57 51.56,88.18 46.08,87.71 Z M20.38,99.34 C24.96,100.91 31.88,102.36 37.81,103.05 L37.81,86.74 C32.06,86.01 25.65,84.91 20.38,83.67 Z M97.35,127.89 C102.83,126.98 109.55,125.84 114.67,124.11 L114.67,108.27 C108.87,109.54 103.06,110.63 97.35,111.45 Z M71.66,129.66 C77.44,129.66 83.97,129.38 88.95,128.65 L88.95,112.18 C84.15,112.82 77.17,113.19 71.66,113.05 Z M46.08,128.62 C50.86,129.25 57.61,129.76 63.52,129.76 L63.52,113.09 C57.58,113.14 51.56,112.75 46.08,112.28 Z M20.38,123.91 C24.96,125.48 31.88,126.93 37.81,127.62 L37.81,111.32 C32.06,110.58 25.65,109.48 20.38,108.24 Z M97.35,152.46 C102.83,151.55 109.55,150.41 114.67,148.68 L114.67,132.85 C108.87,134.11 103.06,135.2 97.35,136.02 Z M71.66,154.23 C77.44,154.23 83.97,153.95 88.95,153.23 L88.95,136.75 C84.15,137.39 77.17,137.76 71.66,137.62 Z M46.08,153.19 C50.86,153.82 57.61,154.33 63.52,154.33 L63.52,137.66 C57.58,137.71 51.56,137.32 46.08,136.85 Z M20.38,148.48 C24.96,150.05 31.88,151.5 37.81,152.19 L37.81,135.89 C32.06,135.15 25.65,134.05 20.38,132.81 Z M0,19.12 C0,13 11.98,6.9 26.19,4.06 C37.25,1.39 50.44,0 67.47,0 C87.95,0 101.1,1.73 115.23,5.69 C125.16,8.57 135.01,12.79 135.01,19.17 C135.01,25.14 126.47,29.07 120.83,31.24 C106.91,36.57 82.26,38.64 71.09,38.64 C50.2,38.64 38.6,37.35 24.69,34.36 C16.67,32.12 0,27.66 0,19.12 Z M0.03,151.9 L0.03,33.05 C9.51,40.46 28.24,44.24 46.76,45.95 C66.43,47.78 89.36,47 107.88,43.21 C120.29,40.88 129.59,37.13 135.1,33.1 L135.1,152.57 C135.1,160.29 119.6,166.41 105.81,169.29 C78.05,175.67 44.43,173.01 24.62,168.19 C13.21,164.81 0.03,160.57 0.03,151.9 Z" fill="none" stroke="currentColor" stroke-width="1.5"/></svg>