<svg xmlns="http://www.w3.org/2000/svg" viewBox="0 0 62.05 86.33" width="24" height="24"><path d="M0,69.43 L10.5,2.18 C10.73,0.4 13.26,0 13.98,1.36 L24.98,21.93 L29.37,13.5 C29.9,12.3 32.06,12.21 32.7,13.51 L40.64,28.7 L50.56,18.74 C51.73,17.51 53.72,17.69 54.07,20.01 L62.05,69.35 L33.8,85.11 C31.51,86.33 29.78,86.19 27.66,84.93 Z" fill="none" stroke="currentColor" stroke-width="1.5"/><path d="M0,69.43 L10.5,2.18 C10.73,0.39 13.26,0 13.98,1.36 L24.98,21.93 L29.37,13.5 C29.9,12.3 32.06,12.21 32.7,13.51 L40.64,28.7 Z" fill="none" stroke="currentColor" stroke-width="1.5"/><path d="M0,69.43 L24.98,21.93 L32.7,36.82 Z" fill="none" stroke="currentColor" stroke-width="1.5"/></svg>