<svg xmlns="http://www.w3.org/2000/svg" viewBox="0 0 98.75 98.75" width="24" height="24"><path d="M49.51,98.75 C22.71,98.75 0,77.87 0,49.04 C0,21.12 23.28,0 49.42,0 C76.54,0 98.75,23.66 98.75,49.14 C98.75,76.02 76.88,98.75 49.51,98.75 Z" fill="none" stroke="currentColor" stroke-width="1.5"/><path d="M27.83,24.38 C24.14,24.38 21.17,27.35 21.17,31.04 L21.17,67.71 C21.17,71.4 24.14,74.37 27.83,74.37 L70.92,74.37 C74.61,74.37 77.58,71.4 77.58,67.71 L77.58,31.04 C77.58,27.35 74.61,24.38 70.92,24.38 Z M27.86,37.2 L70.62,37.2 L70.62,67.4 L27.86,67.4 Z" fill="none" stroke="currentColor" stroke-width="1.5"/></svg>