<svg xmlns="http://www.w3.org/2000/svg" viewBox="0 0 147.44 147.04" width="24" height="24"><path d="M73.53,109.84 C93.84,109.84 109.58,93.54 109.58,73.72 C109.58,55.89 95.84,37.98 72.84,37.98 C56.36,37.98 37.65,51.46 37.65,73.96 C37.65,92.73 52.81,109.84 73.53,109.84 Z M63.86,147.04 C58.32,146.08 52.86,144.87 47.7,142.78 L48,130.68 C44.18,129.2 40.36,127.06 36.54,123.95 L25.78,130.28 C21.99,126.42 18.21,122.64 14.42,117.93 L21.41,107.57 C19.16,104.69 16.63,100.29 15.22,95.55 L3.02,95.46 C1.74,90.58 0.65,85.22 0,78.72 L11.32,74.3 C11.09,70.22 11.71,64.5 12.5,60.42 L2.7,53.7 C4.35,48.49 6.28,43.35 9.06,38.39 L21.03,40.65 C23.04,36.81 26.07,33.22 29.59,29.76 L24.79,18.88 C28.73,15.14 33.45,11.92 38.52,8.94 L47.48,17.21 C51.8,15.08 56.78,13.68 60.43,13.25 L62.41,1.04 C68.11,0.07 74.14,0 79.28,0.55 L82.08,11.98 C86.51,12.69 90.96,13.69 95.51,15.4 L103.65,6.63 C108.71,8.86 113.62,11.86 117.94,15.09 L114.36,26.3 C117.95,29.84 121.47,33.28 123.43,36.58 L135.3,33.59 C138.45,38.38 140.88,43.31 142.77,48.34 L133.49,55.84 C134.81,60.43 135.57,65.58 135.82,69.6 L147.44,73.2 C147.2,78.78 146.75,85.7 145.63,89.73 L133.47,91.2 C132.28,95.89 130.52,100.01 128.45,103.82 L136.07,113.31 C133.72,117.11 129.82,122.14 125.65,126.21 L114.76,120.73 C112.02,123.41 108.1,126.29 103.64,128.29 L104.79,140.63 C100.1,142.9 94.85,144.68 89.16,146.07 L82.98,135.42 C79.23,136.15 73.35,136.57 69.21,135.94 Z" fill="none" stroke="currentColor" stroke-width="1.5"/></svg>