<svg xmlns="http://www.w3.org/2000/svg" viewBox="0 0 172.47 152.79" width="24" height="24"><path d="M51.7,152.79 C45.87,152.79 40.28,149.66 37.37,143.8 L3.1,83.87 C0,78.64 0.49,72.56 3.09,68.2 L37.66,8.26 C40.59,2.8 45.82,0 51.14,0 L120.54,0 C125.7,0 130.81,2.54 133.87,7.65 L168.31,67.55 C172.47,73.86 171.04,80.59 168.69,84.34 L134.44,143.89 C132.15,148.72 126.97,152.79 120.31,152.79 Z" fill="none" stroke="currentColor" stroke-width="1.5"/><path d="M108.77,152.79 L52.07,96.06 L55.65,69.18 L48.41,61.45 L85.17,40.54 L110.04,49.66 L115.99,56.1 L122.35,56.03 L162,95.97 L134.44,143.89 C132.17,148.72 126.97,152.79 120.31,152.79 Z" fill="none" stroke="currentColor" stroke-width="1.5"/><rect x="0" y="0" width="0" height="0" fill="none" stroke="currentColor"/><path d="M64.29,74.48 L64.36,65.68 L85.98,78.55 L107.78,65.81 L107.81,74.63 L86.07,87.3 Z M104.97,72.52 C104.97,71.67 104.52,70.98 103.97,70.98 C103.41,70.98 102.96,71.67 102.96,72.52 C102.96,73.38 103.41,74.07 103.97,74.07 C104.52,74.07 104.97,73.38 104.97,72.52 Z M64.32,87.7 L64.32,78.9 L85.98,91.77 L107.79,79.03 L107.79,87.85 L86.07,100.52 Z M104.97,85.75 C104.97,84.89 104.52,84.2 103.97,84.2 C103.41,84.2 102.96,84.89 102.96,85.75 C102.96,86.6 103.41,87.29 103.97,87.29 C104.52,87.29 104.97,86.6 104.97,85.75 Z M65.66,62.59 L86.25,50.76 L106.45,62.59 L86.25,74.15 Z M85.91,36.23 C85.32,36.22 84.75,36.36 84.24,36.65 L57.87,51.56 C56.74,50.81 55.41,50.41 54.05,50.41 C50.18,50.41 47.05,53.54 47.05,57.4 C47.05,61.26 50.18,64.39 54.05,64.39 C57.91,64.39 61.04,61.26 61.04,57.4 C61.04,57.35 61.04,57.29 61.03,57.24 L85.82,43.22 L106.79,55.29 L110.04,49.66 L87.46,36.66 C86.98,36.39 86.45,36.24 85.91,36.23 Z M117.4,53.97 C113.54,53.97 110.41,57.1 110.41,60.96 C110.41,63.53 111.82,65.89 114.08,67.11 L114.08,95.44 L92.81,107.86 L96.09,113.48 L118.97,100.11 C119.97,99.53 120.58,98.46 120.58,97.3 L120.58,67.18 C122.92,65.99 124.39,63.59 124.4,60.96 C124.4,57.1 121.27,53.97 117.4,53.97 Z M51.19,67.86 L51.19,93.84 C51.19,95 51.81,96.08 52.82,96.66 L75.5,109.63 C75.49,109.72 75.49,109.82 75.48,109.91 C75.48,113.77 78.61,116.9 82.48,116.9 C86.34,116.9 89.47,113.77 89.47,109.91 C89.47,106.05 86.34,102.92 82.48,102.92 C81.16,102.92 79.86,103.29 78.75,104 L57.69,91.95 L57.69,67.86 Z" fill="none" stroke="currentColor" stroke-width="1.5"/></svg>