<svg xmlns="http://www.w3.org/2000/svg" viewBox="0 0 98.71 88.46" width="24" height="24"><path d="M49.21,0.25 C49.06,0.26 48.92,0.26 48.78,0.27 C48.59,0.27 48.4,0.27 48.21,0.27 C42.08,0.56 36.7,4.44 34.49,10.16 L4.41,62.81 C0,70.26 2.54,79.88 10.06,84.17 C17.57,88.46 27.15,85.77 31.32,78.19 L49.22,46.87 L67.49,77.98 C71.76,85.5 81.36,88.08 88.82,83.7 C96.27,79.32 98.71,69.68 94.22,62.29 L62.97,9.12 C60.82,4.87 56.59,0.81 49.89,0.29 C49.8,0.28 49.72,0.28 49.64,0.27 C49.49,0.26 49.35,0.26 49.21,0.25 Z" fill="none" stroke="currentColor" stroke-width="1.5"/><path d="M48.21,0.27 L67.48,77.98 L62.4,8.09 Z" fill="none" stroke="currentColor" stroke-width="1.5"/><path d="M35.21,67.36 Z" fill="none" stroke="currentColor" stroke-width="1.5"/></svg>