<svg xmlns="http://www.w3.org/2000/svg" viewBox="0 0 306.96 33.28" width="24" height="24"><path d="M13.03,26.59 L7.33,16.61 L13.07,6.64 L24.58,6.64 L30.31,16.62 L24.57,26.59 Z" fill="none" stroke="currentColor" stroke-width="1.5"/><path d="M18.77,21.62 C16.07,21.62 13.85,19.64 13.85,16.49 C13.85,14.05 15.84,11.66 18.81,11.66 C21.97,11.66 23.73,13.89 23.73,16.62 C23.73,19.81 21.21,21.62 18.77,21.62 Z" fill="none" stroke="currentColor" stroke-width="1.5"/><path d="M20.79,33.18 L10.9,33.18 C9.62,33.18 8.83,32.56 8.44,31.7 L0.52,17.89 C0,17.08 0.1,16.08 0.5,15.31 L3.55,10.01 L13.03,26.59 L24.57,26.59 Z" fill="none" stroke="currentColor" stroke-width="1.5"/><path d="M27.05,33.18 L20.79,33.18 L30.31,16.62 L24.58,6.64 L32.16,6.64 L37.1,15.31 C37.58,16.14 37.61,16.98 37.13,17.9 L29.3,31.54 C28.79,32.46 28.19,33.18 27.05,33.18 Z" fill="none" stroke="currentColor" stroke-width="1.5"/><path d="M26.97,0.04 C27.91,0.04 28.69,0.57 29.12,1.41 L32.16,6.64 L13.07,6.64 L7.33,16.61 L3.55,10.01 L8.38,1.58 C8.95,0.6 9.56,0 11.18,0.04 Z" fill="none" stroke="currentColor" stroke-width="1.5"/><rect x="0" y="0" width="0" height="0" fill="none" stroke="currentColor"/><path d="M268.98,24.41 C271.36,24.41 272.96,22.44 272.96,20.09 C272.96,17.62 271.51,15.65 268.98,15.65 C266.59,15.65 264.98,17.73 264.98,19.7 C264.98,23.05 267.02,24.41 268.98,24.41 Z M269.03,26.99 C265.2,26.99 261.98,23.84 262.04,19.9 C262.09,15.96 265.18,12.87 269.06,12.96 C272.94,13.06 276.03,15.88 276.03,20.07 C276.03,24.26 272.86,26.99 269.03,26.99 Z M226.8,26.56 L226.8,7.49 L229.35,7.49 L229.35,26.56 Z M170.56,24.41 C172.93,24.41 174.54,22.44 174.54,20.09 C174.54,17.62 173.08,15.65 170.56,15.65 C168.16,15.65 166.55,17.73 166.55,19.7 C166.55,23.05 168.59,24.41 170.56,24.41 Z M170.6,26.99 C166.77,26.99 163.55,23.84 163.61,19.9 C163.66,15.96 166.75,12.87 170.63,12.96 C174.51,13.06 177.6,15.88 177.6,20.07 C177.6,24.26 174.44,26.99 170.6,26.99 Z M92.68,24.41 C95.06,24.41 96.66,22.44 96.66,20.09 C96.66,17.62 95.21,15.65 92.68,15.65 C90.29,15.65 88.68,17.73 88.68,19.7 C88.68,23.05 90.71,24.41 92.68,24.41 Z M92.73,26.99 C88.9,26.99 85.68,23.84 85.73,19.9 C85.79,15.96 88.88,12.87 92.76,12.96 C96.64,13.06 99.73,15.88 99.73,20.07 C99.73,24.26 96.56,26.99 92.73,26.99 Z M159.69,26.66 L159.69,7.59 L161.99,7.59 L161.99,26.66 Z M287.11,26.51 L287.11,13.62 L289.43,13.62 L289.43,15.51 C290.48,14.32 291.52,13.2 294.03,13.08 C295.64,13.08 296.97,14.16 297.72,15.46 C298.59,14.59 299.61,13.15 302.76,13.15 C305.03,13.15 306.96,15.27 306.96,18.05 L306.96,26.51 L304.69,26.51 L304.69,18.31 C304.69,16.37 303.4,15.18 301.77,15.18 C299.99,15.18 298.3,16.69 298.3,19.27 L298.3,26.51 L295.92,26.51 L295.92,18.42 C295.92,16.54 295.06,15.18 292.84,15.18 C291.28,15.18 289.43,16.73 289.43,19.4 L289.43,26.51 Z M277.7,13.67 L279.96,13.67 L279.98,15.78 C281.45,13.51 283.32,12.71 285.63,13.53 L284.88,15.68 C282.07,14.92 280.41,16.8 280.12,18.77 L280.12,26.51 L277.7,26.51 Z M253.4,13.63 L255.79,13.63 L255.79,11.5 C255.76,10.12 256.47,8.89 258.28,7.78 C259.08,7.28 260.88,7.31 262.31,7.64 L261.52,9.59 C260.7,9.39 259.91,9.29 259.27,9.72 C258.72,10.1 258.27,10.57 258.27,11.29 L258.27,13.63 L261.64,13.63 L261.56,15.49 L258.27,15.49 L258.27,26.54 L255.79,26.51 L255.79,15.49 L253.4,15.49 Z M246.56,9.62 L248.9,9.62 L248.9,13.63 L252.02,13.63 L252,15.49 L248.9,15.49 L248.9,22.99 C249.19,24.73 250.62,24.9 251.73,24.29 L252.45,26.4 C251.13,26.92 250.07,26.92 248.66,26.45 C247.48,25.95 246.56,24.6 246.56,22.91 L246.56,15.49 L244.36,15.49 L244.4,13.63 L246.56,13.63 Z M237.13,24.7 C239.98,24.11 240.63,22.16 240.73,20.96 C240,20.43 238.86,19.81 236.82,20 C234.56,20.28 234.05,21.57 233.85,22.59 C233.63,23.88 235.17,25.09 237.13,24.7 Z M231.91,16.14 C232.32,15.04 234.06,13.14 237.2,13.14 C240.85,13.14 242.96,15.6 242.96,18.87 L242.96,26.49 L240.72,26.49 L240.67,24.54 C239.72,25.55 238.35,26.88 235.97,26.88 C233.51,26.88 231.31,25.18 231.31,22.58 C231.31,19.45 234.62,18.02 236.62,18.02 C237.73,18.02 239.47,18.19 240.84,18.99 C240.84,17.44 240.12,15.58 237.69,15.15 C235.83,14.88 234.56,15.94 234.06,17.06 Z M214.94,16.49 L219.48,16.49 C221.36,16.49 222.52,14.78 222.52,13.22 C222.52,11.3 221.12,9.76 219.14,9.76 L214.94,9.76 Z M212.65,26.48 L212.65,7.57 L219.69,7.57 C221.85,7.57 224.99,9.58 224.99,13.41 C224.99,16.11 222.3,18.87 219.11,18.87 L214.94,18.87 L214.94,26.41 Z M203.55,20.09 C203.55,16.36 201.11,15.25 199.07,15.25 C196.84,15.25 195.03,17.53 195.03,19.85 C195.03,22.5 196.81,24.82 199.25,24.82 C202.2,24.82 203.55,22.49 203.55,20.09 Z M205.88,26.45 L203.55,26.48 L203.55,24.71 C202.53,25.66 201.12,26.95 198.8,26.95 C196.43,26.95 192.81,24.68 192.81,19.98 C192.81,15.8 196,13.1 198.96,13.1 C200.5,13.1 202.13,13.83 203.55,15.21 L203.55,7.57 L205.88,7.57 Z M179.33,13.61 L181.62,13.61 L181.62,21.52 C181.62,23.48 182.57,24.72 184.9,24.72 C186.97,24.72 188.38,22.99 188.38,20.68 L188.38,13.61 L190.7,13.61 L190.7,26.52 L188.38,26.46 L188.38,24.73 C187.4,25.9 186.22,26.92 184.23,26.92 C181.77,26.92 179.33,25.41 179.33,21.91 Z M157.63,23.55 C156.25,25.12 153.83,26.86 149.91,26.86 C144.35,26.86 140.3,22.28 140.3,17.13 C140.3,9.23 146.89,7.09 149.88,7.09 C153.06,7.09 155.84,8.56 157.08,10.07 L155.43,11.75 C154.34,10.15 152.15,9.17 149.99,9.17 C146,9.17 142.58,12.51 142.58,16.88 C142.58,20.92 145.28,24.61 149.94,24.61 C153.72,24.61 154.57,23.14 156,21.85 Z M124.36,19.78 L130.75,17.23 C129.97,16.01 128.8,14.94 126.55,15.83 C124.32,16.81 124.03,18.46 124.36,19.78 Z M134.01,23.84 C132.89,25.35 130.93,26.92 127.9,26.92 C125.27,26.92 121.34,25.11 121.34,19.71 C121.34,15.3 124.81,12.91 127.81,12.91 C130.29,12.91 132.96,14.46 134.08,18.12 L124.77,21.91 C125.17,23.36 126.52,24.32 127.95,24.32 C129.99,24.32 130.8,23.39 131.67,22.22 Z M116.7,26.49 L116.7,5.97 L119.63,5.97 L119.63,26.49 Z M108,24.29 C109.91,24.29 111.76,23.1 111.76,20.02 C111.76,17.47 110.32,15.59 107.9,15.59 C105.72,15.59 103.92,17.47 103.92,19.9 C103.92,22.39 105.77,24.29 108,24.29 Z M114.33,13.43 L114.33,27.12 C114.33,30.48 111.53,33.24 108.03,33.24 C104.91,33.28 102.85,31.63 101.65,29.13 L104.26,28.13 C105.01,29.66 106.26,30.71 107.74,30.71 C111.68,30.71 111.64,26.9 111.64,25.19 C110.25,26.53 108.93,26.92 107.64,26.92 C104.13,26.92 101.03,24.01 101.03,19.52 C101.03,16.14 104.7,12.88 107.66,12.88 C109.75,12.88 110.83,13.93 111.84,14.89 L111.79,13.43 Z M77.22,24.32 C79.59,24.32 81.2,22.35 81.2,20 C81.2,17.53 79.74,15.56 77.22,15.56 C74.82,15.56 73.21,17.64 73.21,19.61 C73.21,22.97 75.25,24.32 77.22,24.32 Z M77.27,26.9 C73.43,26.9 70.21,23.75 70.27,19.81 C70.32,15.87 73.42,12.78 77.3,12.88 C81.18,12.97 84.26,15.79 84.26,19.98 C84.26,24.17 81.1,26.9 77.27,26.9 Z M59.08,15.16 L68.92,15.16 C68.92,16.34 69,17.61 68.8,18.83 C67.98,23.89 64.52,26.92 58.52,26.92 C53.66,26.92 47.86,22.75 47.86,15.73 C47.86,9.84 53.71,5.21 58.21,5.21 C61.62,5.21 64.26,6.27 66.31,8.08 L64.24,10.16 C62.89,8.72 61.03,7.94 58.33,7.94 C54.31,7.94 50.9,11.88 50.9,16 C50.9,20.93 54.94,24.05 58.71,24.05 C63.37,24.05 66.07,21.2 66.07,17.86 L59.08,17.86 Z" fill="none" stroke="currentColor" stroke-width="1.5"/></svg>