<svg xmlns="http://www.w3.org/2000/svg" viewBox="0 0 122.31 84.5" width="24" height="24"><path d="M7.68,24.85 C10.13,9.76 20.44,0 33.76,0 L89.43,0 C97.67,0 111.6,6.97 113.93,24.01 L121.26,70.52 C122.29,75.41 119.16,79.69 115.94,81.57 C111.07,84.49 105.9,82.08 102.88,79.37 L83.47,59.37 L38.71,59.37 L17.93,80.03 C15.22,82.59 11.25,83.91 7.24,82.13 C3.02,80.14 0,75.69 0.62,71.31 Z" fill="none" stroke="currentColor" stroke-width="1.5"/><path d="M38.71,59.37 L45.91,52.39 L86.08,52.39 C103.3,52.39 113.93,40.97 113.93,24.01 L121.26,70.52 C122.31,75.42 119.13,79.68 115.94,81.57 C111.09,84.5 105.9,82.09 102.88,79.37 L83.47,59.37 Z" fill="none" stroke="currentColor" stroke-width="1.5"/><rect x="0" y="0" width="0" height="0" fill="none" stroke="currentColor"/><path d="M102.28,26.44 C102.28,29.1 100.13,31.25 97.47,31.25 C94.81,31.25 92.66,29.1 92.66,26.44 C92.66,23.79 94.81,21.63 97.47,21.63 C100.13,21.63 102.28,23.79 102.28,26.44 Z M92.88,36.05 C92.88,38.71 90.72,40.86 88.07,40.86 C85.41,40.86 83.26,38.71 83.26,36.05 C83.26,33.39 85.41,31.24 88.07,31.24 C90.72,31.24 92.88,33.39 92.88,36.05 Z M92.88,16.96 C92.88,19.62 90.72,21.77 88.07,21.77 C85.41,21.77 83.26,19.62 83.26,16.96 C83.26,14.31 85.41,12.15 88.07,12.15 C90.72,12.15 92.88,14.31 92.88,16.96 Z M83.51,26.44 C83.51,29.1 81.36,31.25 78.7,31.25 C76.04,31.25 73.89,29.1 73.89,26.44 C73.89,23.79 76.04,21.63 78.7,21.63 C81.36,21.63 83.51,23.79 83.51,26.44 Z M29.85,40.71 L29.85,30.79 L19.74,30.79 L19.74,22.77 L29.85,22.77 L29.85,12.53 L37.8,12.53 L37.8,22.77 L48.2,22.77 L48.2,30.79 L37.8,30.79 L37.8,40.71 Z" fill="none" stroke="currentColor" stroke-width="1.5"/></svg>