<svg xmlns="http://www.w3.org/2000/svg" viewBox="0 0 172.47 152.79" width="24" height="24"><path d="M51.7,152.79 C45.87,152.79 40.28,149.66 37.37,143.8 L3.1,83.87 C0,78.64 0.49,72.56 3.09,68.2 L37.66,8.26 C40.59,2.8 45.82,0 51.14,0 L120.54,0 C125.7,0 130.81,2.54 133.87,7.65 L168.31,67.55 C172.47,73.86 171.04,80.59 168.69,84.34 L134.44,143.89 C132.15,148.72 126.97,152.79 120.31,152.79 Z" fill="none" stroke="currentColor" stroke-width="1.5"/><path d="M106.73,152.79 L50.47,97.06 L58.81,87.84 L50.47,81 L58.81,71.75 L50.47,65.03 L74.58,40.91 L82.69,49.43 L90.27,40.91 L98.42,49.27 L106.47,40.91 L161.77,96.36 L134.44,143.89 C132.17,148.72 126.97,152.79 120.31,152.79 Z" fill="none" stroke="currentColor" stroke-width="1.5"/><rect x="0" y="0" width="0" height="0" fill="none" stroke="currentColor"/><path d="M83.2,91.37 L83.2,77.86 L75.45,77.86 L89.16,59.79 L89.16,72.98 L96.45,72.98 Z M101.63,94.79 C103.48,94.79 104.28,93.82 104.28,92.4 L104.28,60.33 C104.28,58.79 103.05,58.01 101.63,58.01 L69.55,58.01 C68.29,58.01 67.4,58.75 67.4,60.03 L67.4,92.61 C67.4,93.82 68.02,94.79 69.31,94.79 Z M106.47,111.84 L97.26,111.84 L97.26,103.64 L90.27,103.64 L90.27,111.84 L81.61,111.84 L81.61,103.64 L74.58,103.64 L74.58,111.84 L65.41,111.84 L65.41,103.64 C62.69,103.64 58.81,100.44 58.81,97.06 L50.47,97.06 L50.47,87.78 L58.81,87.78 L58.81,81 L50.47,81 L50.47,71.73 L58.81,71.73 L58.81,65.03 L50.47,65.03 L50.47,55.77 L58.81,55.77 C58.81,52.92 62.04,49.07 65.41,49.07 L65.41,40.91 L74.58,40.91 L74.58,49.07 L81.61,49.07 L81.61,40.91 L90.27,40.91 L90.27,49.07 L97.26,49.07 L97.26,40.91 L106.47,40.91 L106.47,49.07 C109.57,49.07 113.22,52.64 113.22,55.77 L121.39,55.77 L121.39,65.03 L113.22,65.03 L113.22,71.73 L121.39,71.73 L121.39,81 L113.22,81 L113.22,87.78 L121.39,87.78 L121.39,97.06 L113.22,97.06 C113.22,99.55 109.68,103.64 106.47,103.64 Z" fill="none" stroke="currentColor" stroke-width="1.5"/></svg>