<svg xmlns="http://www.w3.org/2000/svg" viewBox="0 0 98.75 98.75" width="24" height="24"><path d="M49.51,98.75 C22.71,98.75 0,77.87 0,49.04 C0,21.12 23.28,0 49.42,0 C76.54,0 98.75,23.66 98.75,49.14 C98.75,76.02 76.88,98.75 49.51,98.75 Z" fill="none" stroke="currentColor" stroke-width="1.5"/><path d="M36.6,24.26 L36.6,39.97 L45.83,39.97 L45.83,46.09 L33.19,46.09 C31.24,46.09 30.37,47.17 30.37,49.03 L30.37,58.53 L20.77,58.53 L20.77,74.29 L43.56,74.29 L43.56,58.53 L37.37,58.53 L37.37,53.09 L61.27,53.09 L61.27,58.53 L54.83,58.53 L54.83,74.29 L77.63,74.29 L77.63,58.53 L68.27,58.53 L68.27,49.26 C68.27,47.17 67.23,46.09 65.3,46.09 L52.83,46.09 L52.83,39.97 L62.26,39.97 L62.26,24.26 Z" fill="none" stroke="currentColor" stroke-width="1.5"/></svg>