<svg xmlns="http://www.w3.org/2000/svg" viewBox="0 0 946.98 918.14" width="24" height="24"><path d="M283.13,918.14 C264.43,918.14 249.72,905.59 236.15,887.96 L14.94,613.94 C0,594.15 0.3,568.02 9.11,536.44 L84.56,209.6 C91.37,182.27 107.61,170.3 132.23,160.56 L436.97,14.66 C464.62,0 484.85,1.5 506.13,13.13 L824.08,164.44 C843.89,174.26 858.27,188.82 862.39,207.12 L940.91,546.38 C946.98,568.89 946.6,592.92 938.51,604.68 L713.19,886.59 C699.67,903.32 683.48,918.14 662.44,918.14 Z" fill="none" stroke="currentColor" stroke-width="1.5"/><path d="M474.11,512.25 L500.54,499.64 L507.57,470.78 L488.66,447.74 L458.1,448.23 L439.91,471.27 L447.67,499.64 Z M284.88,549.56 C300.5,589.04 327.43,621.61 362.6,647.77 L397.36,562.69 C400.9,555.86 404.23,545.12 398.93,537.51 C393.83,530.69 384.8,531.86 374.23,534.06 Z M300.11,373.59 C280.23,408.72 269.29,451.5 271.39,497.54 L360.77,472.06 C369.99,469.58 379.78,464.43 381.18,457.48 C382.53,451.02 376.91,443.54 369.51,436.96 Z M447.04,277.22 C396.15,287.41 360,307.42 333.78,334.06 L409.33,386.39 C415.35,390.82 424.88,396.31 431.48,393.74 C439.57,389.51 442.59,382.71 442.82,372.61 Z M613.19,333.19 C581.21,303.8 541.29,283.91 500.11,277.78 L504.82,368.54 C504.91,378.26 507.84,388.02 513.92,392.49 C522.18,396.73 532.79,390.22 541.69,383.69 Z M676.93,498.51 C678.8,446.77 664.22,405.09 646.55,374.12 L576.75,436.42 C571.68,440.32 565.05,447.29 565.91,455.74 C567.45,464.48 573.22,467.44 582.55,470.45 Z M585.28,647.86 C617.31,625.86 645.17,592.96 663.62,549.65 L570.33,533.64 C559.57,531.76 553.55,531.65 548.64,537.12 C543.12,543.32 544.93,549.41 548.02,557.97 Z M410.71,670.53 C449.21,683.07 494.41,683.15 537.43,670.87 L490.96,587.71 C486.49,579.8 481.58,573.99 473.81,573.99 C465.34,573.99 460.77,580.87 457.01,588.91 Z M382.93,718.37 L381.04,726.26 C373.67,727.6 368.01,732.67 363.72,743.24 C353.78,768.91 355.83,776.61 346.19,792.77 C341.09,801.27 326.92,804.52 317.51,799.7 C307.57,794.37 302.76,780.75 310.17,767.14 L333.52,731.88 C339,723.65 342.07,715.33 338.04,706.9 L342.64,699.77 C285.64,664.15 245.04,612.84 230.23,557.09 L221.4,559.76 C217.11,555.47 212.02,554.17 202.54,556.5 C178.22,562.01 170.78,571.79 146.98,574.5 C136.73,575.26 127.14,566.8 126.06,557.01 C125.03,548.24 127.4,536.91 141.34,531.84 C156.95,527.47 164.34,530.42 189.16,528.89 C201.08,527.83 208.65,522.12 210.26,514.65 L219.58,512.43 C213.71,448.47 220.94,388.26 260.15,337.18 L252.44,330.84 C251.31,323.58 248.54,319.02 241.29,313.86 C224.98,302.1 215.23,300.92 198.59,286.94 C189.87,279.24 187.35,266.54 193.19,256.25 C200.38,245.95 218.1,246.26 225.43,252.3 C245.44,267.87 251.31,280.29 264.77,291.08 C272.14,297.25 275.52,295.49 279.99,294.84 L287.57,300.08 C335.14,250.09 391.05,227.42 451.54,222.65 L451.5,214.47 C455.49,212.08 459,207.6 459,198.85 C459.05,177.75 452.8,165.54 451.26,145.01 C450.17,133.56 461.35,121.44 473.01,121.44 C483.01,121.49 494.76,131.53 494.71,143.14 C496.08,162.64 489.66,172.45 488.5,198.41 C487.83,205.76 491.4,211.61 496.05,213.74 L496.29,222.73 C561.16,227.59 619.07,257.74 658.89,301.13 L667.64,295.16 C673.9,296 677.78,295.24 683.17,290.8 C700.86,277.1 700.93,268.58 722.3,251.87 C729.86,246.57 743.68,245.27 753.02,255.82 C760.14,264.53 756.9,278.42 751.16,283.75 C733.26,300.19 722.7,298.6 700.85,317.4 C695.24,321.8 694.31,325.37 696,330.31 L687.59,337.4 C728.13,394.94 736.29,459.75 728.12,511.14 L735.5,512.47 C736.41,517.59 740.1,521.5 746.51,523.68 C767.6,528.86 792.71,526.38 807.24,531.23 C816.65,534.78 824.92,544.67 821.49,558.54 C818.32,570.32 808.32,574.85 798.45,574.32 C787.08,573.76 757.94,558.92 742.61,555.32 C735.94,553.46 732.17,553.99 728.2,557.86 L718.8,556.61 C700.37,605.99 672.72,658.88 605.46,698.67 L608.89,705.89 C606.2,712.11 606.94,716.7 612.16,728.21 C621.74,747.98 634.98,758.19 639.24,769.36 C644.1,783.29 638.86,795.52 628.55,800.18 C617.99,804.42 604.56,801.1 597.76,787.27 C590.79,772.73 591.19,761.06 582.35,742.06 C578.35,732.55 574.77,727.83 568.46,726.23 L564.72,718.16 C511.37,741.92 433.65,740.11 382.93,718.37 Z" fill="none" stroke="currentColor" stroke-width="1.5"/></svg>