<svg xmlns="http://www.w3.org/2000/svg" viewBox="0 0 163.13 112.85" width="24" height="24"><path d="M86.41,68.65 L98.8,49.03 C99.09,48.35 98.67,48.06 98.14,48.49 L80.27,65.12 C78.09,67.2 78.1,70.13 80.46,71.47 L93.43,79.6 C94.49,80.29 94.78,79.62 94.18,78.87 Z M86.71,100.29 C108.84,100.29 120.69,82.03 120.69,66.91 C120.69,51.5 108.56,33.25 87.18,33.25 C75.23,33.23 66.29,39.03 62.59,43.89 C67.56,39.5 74.62,35.88 82.39,35.88 C98.17,35.88 113.42,47.72 113.42,66.32 C113.94,81.11 101.3,93.29 87.06,93.29 C75.66,93.29 62.12,84.54 60.56,69.02 L66.54,69.02 L57.26,55.13 L47.93,69.02 L53.61,69.02 C54.57,87.46 70.2,100.29 86.71,100.29 Z M33.83,112.85 C22.11,112.85 6.67,103.31 3.39,85.25 C0,65.36 13.33,46.22 32.86,44.82 C31.8,37.96 34.16,29.17 41.28,23.05 C49.53,16.26 59.56,16.77 67.02,21.98 C76.02,7.95 93.82,0 112.09,7.44 C124.39,12.98 131.52,23.57 134.36,33.31 C140.31,32.49 148.58,35.07 152.97,42.04 C158.6,50.85 155.63,59.55 152.96,63.06 C162.37,74.74 163.13,87.11 157.29,98.58 C153.05,106.11 145.3,112.85 132.81,112.85 Z" fill="none" stroke="currentColor" stroke-width="1.5"/></svg>