<svg xmlns="http://www.w3.org/2000/svg" viewBox="0 0 450.36 450.27" width="24" height="24"><path d="M342.01,35.02 C336.49,34.93 331.36,37.86 328.63,42.66 L307.73,78.2 C303.49,85.4 305.9,94.67 313.1,98.91 C320.3,103.14 329.57,100.73 333.8,93.52 L354.69,57.98 C360.75,47.99 353.68,35.21 342.01,35.02 Z M413.88,116.22 C410.99,116.14 408.14,116.89 405.66,118.38 L370.05,139.17 C362.67,143.3 360.1,152.68 364.37,159.99 C368.64,167.3 378.07,169.68 385.3,165.28 L420.91,144.49 C426.82,141.15 429.77,134.27 428.13,127.68 C426.5,121.1 420.67,116.41 413.88,116.22 Z M393.77,222.84 C385.34,222.69 378.43,229.47 378.4,237.9 C378.37,246.33 385.24,253.16 393.67,253.07 L434.9,253.21 C443.35,253.39 450.31,246.6 450.33,238.14 C450.36,229.69 443.45,222.86 435,222.98 Z M74.03,282.98 C71.14,282.86 68.28,283.58 65.79,285.05 L29.94,305.42 C22.56,309.48 19.93,318.8 24.1,326.13 C28.26,333.45 37.61,335.96 44.88,331.7 L80.73,311.34 C86.68,308.06 89.72,301.22 88.16,294.61 C86.6,288 80.82,283.24 74.03,282.98 Z M365.48,305.29 C358.49,305 352.22,309.53 350.3,316.25 C348.39,322.98 351.33,330.14 357.42,333.57 L393.04,354.32 C400.26,358.53 409.52,356.09 413.72,348.87 C417.93,341.66 415.49,332.4 408.27,328.2 L372.65,307.44 C370.47,306.13 368.01,305.39 365.48,305.29 Z M130.64,349.08 C125.11,349.02 120,351.98 117.3,356.8 L96.64,392.48 C92.26,399.72 94.68,409.14 102,413.38 C109.32,417.62 118.69,415.03 122.8,407.63 L143.47,371.96 C149.46,361.93 142.31,349.19 130.64,349.08 Z M298.62,362.28 C298.11,362.26 297.6,362.26 297.1,362.29 C285.64,362.87 278.98,375.49 284.96,385.27 L305.99,420.74 C310.25,427.92 319.52,430.29 326.7,426.04 C333.89,421.78 336.26,412.5 332,405.32 L310.98,369.86 C308.42,365.4 303.76,362.54 298.62,362.28 Z M211.95,378.37 C203.61,378.58 197.02,385.52 197.22,393.86 L197.65,435.09 C197.66,443.49 204.52,450.27 212.93,450.18 C221.33,450.1 228.05,443.17 227.89,434.77 L227.46,393.54 C227.49,385.02 220.47,378.15 211.95,378.37 Z M144.58,297.13 C141.93,297.13 140,295.34 140,292.41 L140,156.09 C140,152.76 142.17,151.47 145.11,151.47 L197.14,151.47 C201.89,151.47 204.55,152.67 207.45,156.12 L221.1,171.5 C224.04,174.5 226.96,175.74 231.16,175.74 L315.66,175.74 C318.38,175.74 321.7,176.37 321.7,180.92 L321.7,291.95 C321.7,294.58 319.8,297.13 317.22,297.13 Z" fill="none" stroke="currentColor" stroke-width="1.5"/><path d="M238.59,0.07 L223.84,56.67 L253.97,15.37 Z M125.75,21.48 L133.09,80.15 L139.41,29.42 Z M50.65,93.54 L78.68,142.31 L57.84,95.62 Z M57.25,196.92 L16.01,197.12 L57.39,227.16 Z" fill="none" stroke="currentColor" stroke-width="1.5"/><path d="M238.59,0.07 L223.84,56.67 L253.97,15.37 Z M125.75,21.48 L133.09,80.15 L139.41,29.42 Z M50.65,93.54 L78.68,142.31 L57.84,95.62 Z M57.25,196.92 L16.01,197.12 L57.39,227.16 Z" fill="none" stroke="currentColor" stroke-width="1.5"/></svg>