<svg xmlns="http://www.w3.org/2000/svg" viewBox="0 0 130.59 130.48" width="24" height="24"><path d="M57.42,89.63 L34.99,67.28 L44.05,58.45 L55.45,69.94 C60.6,64.48 66.25,59.07 77.15,50.87 C82.32,47.2 88.37,44.29 92.46,43.97 C83.8,51.26 76.9,58.63 71.06,66.98 C64.46,75.12 60.51,82.49 57.42,89.63 Z M96.12,117.61 C97.26,119.74 96.7,122.68 94.09,123.96 C92.34,124.73 89.69,123.67 88.71,121.86 L82.52,111.09 C81.81,109.54 82.32,106.68 84.13,105.78 C86.11,104.66 88.99,105.3 90.11,107.28 Z M118.77,95.65 C120.57,96.9 121.21,99.27 119.84,101.23 C118.33,103.43 115.57,103.62 113.92,102.6 L103.04,96.32 C101.75,95.51 101.02,92.65 102.18,90.71 C103.51,88.7 105.83,88.37 107.94,89.46 Z M126.07,64.72 C128.68,64.72 130.59,66.76 130.59,69.08 C130.59,71.63 128.52,73.15 126.01,73.15 L113.68,73.15 C111.9,73.15 109.99,71.34 109.99,68.98 C109.99,66.64 111.87,64.72 114.34,64.72 Z M118.12,34.24 C120.07,33.26 122.79,33.83 123.79,35.66 C125.1,37.92 123.94,40.78 121.38,42.18 L111.74,47.66 C109.29,48.77 106.85,47.87 105.88,46.19 C104.81,44.08 105.28,41.64 107.11,40.43 Z M95.65,11.82 C96.48,10.14 98.7,9.28 101.28,10.61 C103.37,11.9 103.71,14.53 102.52,16.48 L96.61,26.96 C95.61,28.73 93.22,29.66 90.97,28.49 C89.27,27.45 88.2,24.71 89.01,23.27 Z M64.81,4.23 C64.81,2.25 66.59,0 69.44,0 C71.3,0 73.25,1.76 73.25,3.75 L73.32,16.38 C73.32,18.33 71.7,20.35 69.32,20.35 C66.67,20.35 64.85,18.73 64.85,16.4 Z M32.48,12.14 C31.76,10.55 32.35,7.75 34.1,6.89 C35.85,5.77 38.45,6.42 39.64,7.97 L45.23,17.41 C47.01,20.54 46.73,23.33 44.61,24.52 C42.38,25.61 39.8,24.78 38.75,23.06 Z M11.88,34.78 C10.52,33.89 9.36,31.03 10.68,29.02 C11.84,27.3 14.81,26.75 16.51,27.63 L27.1,33.82 C29.12,35.29 29.75,37.98 28.25,39.91 C26.75,41.83 24.4,41.98 22.44,40.85 Z M4.3,65.61 C1.77,65.61 0,63.6 0,61.48 C0,58.97 1.82,57.23 3.99,57.23 L15.85,57.23 C18.71,57.23 20.43,58.74 20.43,61.34 C20.43,63.76 18.97,65.61 15.97,65.61 Z M12.52,96.13 C10.65,97.17 7.83,96.32 6.85,94.46 C6.05,92.9 6.39,89.95 8.03,89.07 L18.83,82.62 C20.81,81.53 23.52,82.11 24.64,83.94 C26.06,86.49 25.22,88.7 23.84,89.52 Z M35.08,118.48 C33.84,120.27 31.16,120.81 29.41,119.76 C27.17,118.55 26.99,115.38 27.76,114.06 L33.94,103.28 C34.82,101.75 37.39,100.92 39.8,102.08 C41.63,103.25 42.19,105.48 41.53,106.89 Z M65.77,125.71 C65.77,128.74 63.5,130.48 61.33,130.48 C59.25,130.48 57.26,128.66 57.26,126.37 L57.38,115.06 C57.38,112.1 59.01,109.84 61.47,109.84 C64.26,109.84 65.84,112.49 65.84,114.7 Z" fill="none" stroke="currentColor" stroke-width="1.5"/></svg>