<svg xmlns="http://www.w3.org/2000/svg" viewBox="0 0 172.47 152.79" width="24" height="24"><path d="M51.7,152.79 C45.87,152.79 40.28,149.66 37.37,143.8 L3.1,83.87 C0,78.64 0.49,72.56 3.09,68.2 L37.66,8.26 C40.59,2.8 45.82,0 51.14,0 L120.54,0 C125.7,0 130.81,2.54 133.87,7.65 L168.31,67.55 C172.47,73.86 171.04,80.59 168.69,84.34 L134.44,143.89 C132.15,148.72 126.97,152.79 120.31,152.79 Z" fill="none" stroke="currentColor" stroke-width="1.5"/><path d="M96.96,152.79 L53.96,109.99 L54.5,66.22 L45.9,57.78 L66,37.76 L79.48,50.6 L126.03,41.75 L168.69,84.34 L134.44,143.89 C132.17,148.72 126.97,152.79 120.31,152.79 Z" fill="none" stroke="currentColor" stroke-width="1.5"/><rect x="0" y="0" width="0" height="0" fill="none" stroke="currentColor"/><path d="M126.03,56.71 L76.62,56.71 L76.62,41.75 L126.03,41.75 Z M126.03,115.2 L76.62,115.2 L76.62,109.99 L53.96,109.99 L53.96,57.78 L45.9,57.78 L45.9,37.76 L66,37.76 L66,57.78 L58.02,57.78 L58.02,76.21 L76.62,76.21 L76.62,70.9 L126.03,70.9 L126.03,85.73 L76.62,85.73 L76.62,80.43 L58.02,80.43 L58.02,105.55 L76.62,105.55 L76.62,100.24 L126.03,100.24 Z" fill="none" stroke="currentColor" stroke-width="1.5"/></svg>