<svg xmlns="http://www.w3.org/2000/svg" viewBox="0 0 98.75 98.75" width="24" height="24"><path d="M49.51,98.75 C22.71,98.75 0,77.87 0,49.04 C0,21.12 23.28,0 49.42,0 C76.54,0 98.75,23.66 98.75,49.14 C98.75,76.02 76.88,98.75 49.51,98.75 Z" fill="none" stroke="currentColor" stroke-width="1.5"/><path d="M24.22,27.3 L74.45,27.3 L74.45,34.1 L24.22,34.1 Z M30.35,36.64 L71.45,36.64 L71.45,43.47 L30.35,43.47 Z M30.36,46 L74.59,46 L74.59,52.82 L30.36,52.82 Z M30.35,55.35 L71.19,55.35 L71.19,62.18 L30.35,62.18 Z M30.36,64.71 L74.59,64.71 L74.59,71.53 L30.36,71.53 Z" fill="none" stroke="currentColor" stroke-width="1.5"/></svg>