<svg xmlns="http://www.w3.org/2000/svg" viewBox="0 0 158.19 158.19" width="24" height="24"><path d="M78.74,114.6 C84.13,111.82 90.58,106.85 94.8,100.22 C97.75,95.51 100.17,90.2 100.04,83.75 L100.04,54.08 L78.74,54.08 Z M78.93,120.43 C71.81,116.8 65.53,111.94 60.19,105.14 C56.83,100.64 52.99,92.89 52.99,85.25 L52.99,49.13 L104.98,49.13 L104.98,85.23 C104.98,92.56 101.83,98.68 98.73,103.77 C93.34,111.83 85.55,117.04 78.93,120.43 Z M79.04,129.38 C91.53,124.1 99.54,117.09 105.36,108.4 C110.29,101.39 113.18,94.73 113.18,82.67 L113.18,40.38 L44.76,40.38 L44.76,84.01 C44.76,97.39 50.39,106.66 57.06,114.18 C62.94,121.18 71.58,126.21 79.04,129.38 Z M158.19,79.1 C158.19,122.78 122.78,158.19 79.1,158.19 C35.41,158.19 0,122.78 0,79.1 C0,35.41 35.41,0 79.1,0 C122.78,0 158.19,35.41 158.19,79.1 Z" fill="none" stroke="currentColor" stroke-width="1.5"/></svg>