<svg xmlns="http://www.w3.org/2000/svg" viewBox="0 0 98.75 98.75" width="24" height="24"><path d="M49.51,98.75 C22.71,98.75 0,77.87 0,49.04 C0,21.12 23.28,0 49.42,0 C76.54,0 98.75,23.66 98.75,49.14 C98.75,76.02 76.88,98.75 49.51,98.75 Z" fill="none" stroke="currentColor" stroke-width="1.5"/><path d="M39.4,71.88 L64.25,49.67 L51.66,49.67 L57.61,28.82 L33.9,49.67 L47.43,49.67 Z M29.62,78.15 C26.32,78.15 23.94,74.78 23.94,71.7 L23.94,65.64 L17.74,65.64 L17.74,58.63 L23.94,58.63 L23.94,53.18 L17.74,53.18 L17.74,46.14 L23.94,46.14 L23.94,40.75 L17.74,40.75 L17.74,33.77 L23.94,33.77 L23.94,27.33 C23.94,23.93 27.15,21.45 30.85,21.45 L67.87,21.45 C71.76,21.45 74.37,24.35 74.37,27.6 L74.37,33.77 L80.46,33.77 L80.46,40.75 L74.37,40.75 L74.37,46.14 L80.46,46.14 L80.46,53.18 L74.37,53.18 L74.37,58.63 L80.46,58.63 L80.46,65.64 L74.37,65.64 L74.37,71.09 C74.37,75.64 70.42,78.15 66.65,78.15 Z" fill="none" stroke="currentColor" stroke-width="1.5"/></svg>