<svg xmlns="http://www.w3.org/2000/svg" viewBox="0 0 127.4 135.75" width="24" height="24"><path d="M33.25,43.61 L49.38,43.61 L49.38,11.05 L33.25,11.05 Z M56.5,43.61 L72.7,43.61 L72.7,11.05 L56.5,11.05 Z M78.77,43.61 L94.91,43.61 L94.91,11.05 L78.77,11.05 Z M101.52,43.61 L117.75,43.61 L117.75,11.05 L101.52,11.05 Z M25.54,135.75 C22.99,135.75 20.92,134.3 20.92,131.27 L20.92,128.93 L1.71,114.36 C0.26,113.15 0,112.37 0,110.67 L0,72.05 C0,69.77 0.24,68.71 2.04,67.47 L20.92,53.34 L20.92,4.77 C20.92,1.99 22.67,0 25.86,0 L123.19,0 C126.16,0 127.4,2.49 127.4,4.64 L127.4,131.44 C127.4,134.01 125.68,135.75 122.39,135.75 Z" fill="none" stroke="currentColor" stroke-width="1.5"/></svg>