<svg xmlns="http://www.w3.org/2000/svg" viewBox="0 0 23.91 23.88" width="24" height="24"><path d="M2.62,23.88 C1.56,23.88 0,23.05 0,21.22 L0,2.51 C0,1.35 1.18,0 2.53,0 L21.35,0 C22.94,0 23.91,1.35 23.91,2.72 L23.91,21.31 C23.91,22.55 22.74,23.88 21.03,23.88 Z" fill="none" stroke="currentColor" stroke-width="1.5"/><path d="M14.5,8.02 L14.5,5.17 L20.04,5.17 L20.04,18.7 L17.21,18.7 L17.21,8.02 Z M3.85,18.7 L3.85,5.17 L9.45,5.17 C10.75,5.17 12.02,6.44 12.02,8.02 L12.02,18.7 L9.2,18.7 L9.2,8.02 L6.69,8.02 L6.69,18.7 Z" fill="none" stroke="currentColor" stroke-width="1.5"/></svg>