<svg xmlns="http://www.w3.org/2000/svg" viewBox="0 0 23.9 23.9" width="24" height="24"><path d="M2.57,23.9 C1.16,23.9 0,22.81 0,21.22 L0,2.65 C0,0.86 1.33,0 2.78,0 L21.27,0 C23.12,0 23.9,1.54 23.9,2.62 L23.9,21.2 C23.9,22.37 23.09,23.9 21.1,23.9 Z" fill="none" stroke="currentColor" stroke-width="1.5"/><path d="M17.24,18.7 L17.24,8.01 L14.56,8.01 L14.56,5.25 L20.03,5.25 L20.03,18.7 Z M6.45,18.7 C5.18,18.7 3.89,17.5 3.89,16 L3.89,7.93 C3.95,6.22 5.2,5.25 6.91,5.25 L12,5.25 L12,8.01 L6.64,8.01 L6.64,15.9 L9.25,15.9 L9.25,11.9 L12,11.9 L12,18.7 Z" fill="none" stroke="currentColor" stroke-width="1.5"/></svg>