<svg xmlns="http://www.w3.org/2000/svg" viewBox="0 0 26.55 26.59" width="24" height="24"><path d="M2.8,26.55 C1.08,26.55 0,25.1 0,23.66 L0,2.89 C0,1.62 1.11,0 2.97,0 L23.54,0.04 C25.27,0.04 26.55,1.3 26.55,3.14 L26.55,23.49 C26.55,25.39 25.05,26.59 23.62,26.59 Z" fill="none" stroke="currentColor" stroke-width="1.5"/><path d="M12.88,22.64 L12.88,16.58 C12.88,15.61 13.94,14.55 14.71,14.55 L16.46,14.55 C16.82,14.55 17.14,14.78 17.33,15.02 C17.49,14.76 17.83,14.55 18.16,14.55 L19.76,14.55 C20.57,14.55 21.59,15.54 21.59,16.41 L21.59,22.64 L19.57,22.64 L19.57,16.76 L18.38,16.76 L18.38,22.64 L16.14,22.64 L16.14,16.76 L15,16.76 L15,22.64 Z M7.31,22.64 L4.96,14.6 L6.88,14.6 L8.34,19.27 L9.64,14.6 L11.65,14.6 L9.28,22.64 Z M17.77,9.89 L22.59,9.89 L22.59,9.11 L20.26,9.11 C18.82,9.11 17.76,7.89 17.76,6.45 C17.76,5.23 18.48,3.89 19.94,3.89 L24.77,3.89 L24.77,6.09 L20,6.09 L20,6.83 L22.5,6.83 C23.91,6.83 24.78,8.25 24.78,9.52 C24.78,10.84 23.72,12 22.6,12 L17.77,11.99 Z M11.99,3.89 L11.99,9.89 L14.57,9.89 L14.57,3.89 L16.8,3.89 L16.8,9.43 C16.8,10.88 15.62,11.96 14.67,11.96 L11.81,11.98 C10.73,11.98 9.78,10.78 9.78,9.5 L9.78,3.89 Z M3.76,3.89 C2.78,3.89 1.79,4.96 1.79,6.15 L1.79,9.75 C1.79,10.9 2.87,12.03 3.91,12.04 L8.73,12.04 L8.73,9.89 L3.99,9.89 L3.99,6.09 L8.73,6.09 L8.73,3.89 Z" fill="none" stroke="currentColor" stroke-width="1.5"/></svg>