<svg xmlns="http://www.w3.org/2000/svg" viewBox="0 0 26.57 19.97" width="24" height="24"><path d="M18.11,19.97 L18.11,14.05 C18.11,13.1 18.98,12.08 19.94,12.08 L21.71,12.08 C22.11,12.08 22.32,12.41 22.45,12.66 C22.61,12.34 22.71,12.08 23.12,12.08 L25.06,12.08 C25.73,12.08 26.57,12.77 26.57,13.81 L26.57,19.97 L24.78,19.97 L24.78,13.89 L23.35,13.89 L23.35,19.97 L21.57,19.97 L21.57,13.89 L19.92,13.89 L19.92,19.97 Z M4,9.24 L13.29,0 L22.51,9.24 Z M10.11,19.97 L10.11,12.08 L16.47,12.08 L16.47,13.89 L11.9,13.89 L11.9,15.1 L15.14,15.1 L15.14,16.86 L11.9,16.86 L11.9,18.21 L16.47,18.21 L16.47,19.97 Z M0,19.97 L0,14.05 C0,13.1 0.86,12.08 1.83,12.08 L3.6,12.08 C3.99,12.08 4.21,12.41 4.34,12.66 C4.5,12.34 4.6,12.08 5.01,12.08 L6.95,12.08 C7.61,12.08 8.45,12.77 8.45,13.81 L8.45,19.97 L6.67,19.97 L6.67,13.89 L5.23,13.89 L5.23,19.97 L3.46,19.97 L3.46,13.89 L1.81,13.89 L1.81,19.97 Z" fill="none" stroke="currentColor" stroke-width="1.5"/></svg>