<svg xmlns="http://www.w3.org/2000/svg" viewBox="0 0 182.7 158.97" width="24" height="24"><path d="M34.51,158.97 L34.51,148.01 L57.31,148.01 L57.31,136.26 L0,136.26 L0,0 L182.7,0 L182.7,136.26 L125.85,136.26 L125.85,148.01 L148.96,148.01 L148.96,158.97 Z M160.29,113.68 L160.29,22.01 L22.71,22.01 L22.71,113.68 Z M51.36,25.34 C45.7,25.34 41.09,29.95 41.09,35.61 C41.09,41.27 45.7,45.88 51.36,45.88 C54.08,45.88 56.55,44.82 58.39,43.1 L69.51,51.8 C66.68,56.05 65.18,60.82 65.18,64.99 C65.18,73.57 68.74,80.49 73.94,85.12 L69.47,91.29 C67.97,90.43 66.23,89.93 64.38,89.93 C58.72,89.93 54.11,94.54 54.11,100.21 C54.11,105.87 58.72,110.48 64.38,110.48 C70.04,110.48 74.66,105.87 74.66,100.21 C74.66,97.18 73.33,94.45 71.24,92.56 L75.64,86.5 C80.01,89.77 85.28,91.56 90.52,91.56 C101.94,91.56 112.47,83.63 115.69,73.02 L127.07,73.02 C128.22,75.96 131.09,78.05 134.43,78.05 C138.78,78.05 142.33,74.49 142.33,70.14 C142.33,65.79 138.78,62.23 134.43,62.23 C130.07,62.23 126.52,65.79 126.52,70.14 C126.52,70.37 126.53,70.61 126.55,70.83 L116.24,70.83 C116.54,69.36 116.7,67.84 116.7,66.29 C116.7,50.51 103.64,39.97 91.49,39.97 C82.29,39.97 75.26,44.34 70.79,50.03 L59.81,41.44 C60.96,39.78 61.64,37.77 61.64,35.61 C61.64,29.95 57.02,25.34 51.36,25.34 Z M51.36,27.52 C55.84,27.52 59.45,31.13 59.45,35.61 C59.45,40.09 55.84,43.7 51.36,43.7 C46.88,43.7 43.27,40.09 43.27,35.61 C43.27,31.13 46.88,27.52 51.36,27.52 Z M90.76,43.19 C94.2,43.16 97.52,43.88 99.69,45.2 L97.19,50.98 C93.51,49.12 88.11,49.27 84.8,51 L82.09,45.14 C84.6,43.83 87.73,43.21 90.76,43.19 Z M91.3,52.84 C97.64,52.84 103.8,57.77 103.8,66.07 C103.8,72.55 98.39,78.57 91.19,78.57 C83.89,78.57 78.09,73.32 78.09,65.43 C78.09,58.56 83.65,52.84 91.3,52.84 Z M70.4,56.89 L76.23,59.61 C74.65,63.27 74.14,67.73 76.26,71.99 L70.46,74.48 C67.69,69.4 67.41,62.55 70.4,56.89 Z M111.6,56.89 C114.58,62.49 113.9,70.39 111.52,74.5 L105.74,71.96 C106.82,68.76 108.03,64.16 105.8,59.54 Z M134.43,64.42 C137.6,64.42 140.15,66.97 140.15,70.14 C140.15,73.31 137.6,75.86 134.43,75.86 C131.25,75.86 128.7,73.31 128.7,70.14 C128.7,66.97 131.25,64.42 134.43,64.42 Z M97.23,80.48 L99.84,86.32 C94.16,89.1 86.69,88.95 82.21,86.34 L84.74,80.53 C88.47,82.3 93.99,81.89 97.23,80.48 Z M64.38,92.12 C68.86,92.12 72.47,95.72 72.47,100.2 C72.47,104.69 68.86,108.3 64.38,108.3 C59.9,108.3 56.29,104.69 56.29,100.2 C56.29,95.72 59.9,92.12 64.38,92.12 Z" fill="none" stroke="currentColor" stroke-width="1.5"/></svg>