<svg xmlns="http://www.w3.org/2000/svg" viewBox="0 0 182.7 158.97" width="24" height="24"><path d="M76.28,62.06 L70.27,59.25 C67.19,65.09 67.48,72.16 70.34,77.39 L76.32,74.82 C74.13,70.44 74.65,65.83 76.28,62.06 Z M97.89,53.17 L100.48,47.2 C96.25,44.64 87.86,44.25 82.33,47.14 L85.12,53.18 C88.54,51.4 94.1,51.24 97.89,53.17 Z M106.71,74.79 L112.67,77.41 C115.12,73.18 115.83,65.03 112.75,59.26 L106.77,61.99 C109.07,66.75 107.82,71.49 106.71,74.79 Z M82.45,89.62 C87.07,92.31 94.77,92.46 100.63,89.6 L97.94,83.58 C94.6,85.03 88.91,85.45 85.05,83.63 Z M91.71,81.61 C99.13,81.61 104.71,75.41 104.71,68.72 C104.71,60.16 98.36,55.08 91.82,55.08 C83.93,55.08 78.2,60.98 78.2,68.06 C78.2,76.2 84.19,81.61 91.71,81.61 Z M91.02,95 C78.06,95 64.89,84.37 64.89,67.61 C64.89,56.7 74.77,41.81 92.02,41.81 C104.55,41.81 118.01,52.68 118.01,68.94 C118.01,83.18 105.18,95 91.02,95 Z M160.29,113.68 L160.29,22.01 L22.71,22.01 L22.71,113.68 Z M34.51,158.97 L34.51,148.01 L57.31,148.01 L57.31,136.26 L0,136.26 L0,0 L182.7,0 L182.7,136.26 L125.85,136.26 L125.85,148.01 L148.96,148.01 L148.96,158.97 Z" fill="none" stroke="currentColor" stroke-width="1.5"/></svg>