<svg xmlns="http://www.w3.org/2000/svg" viewBox="0 0 98.75 98.75" width="24" height="24"><path d="M49.51,98.75 C22.71,98.75 0,77.87 0,49.04 C0,21.12 23.28,0 49.42,0 C76.54,0 98.75,23.66 98.75,49.14 C98.75,76.02 76.88,98.75 49.51,98.75 Z" fill="none" stroke="currentColor" stroke-width="1.5"/><path d="M21.05,74.86 L21.05,58.47 L30.19,58.47 L30.19,49.47 C30.19,47.43 31.7,46.06 34.07,46.06 L45.87,46.06 L45.87,40.69 L36.49,40.69 L36.49,24.4 L62.24,24.4 L62.24,40.69 L52.94,40.69 L52.94,46.06 L63.98,46.06 C66.81,46.06 68.45,47.91 68.45,50.56 L68.45,58.47 L77.51,58.47 L77.51,74.86 L55.04,74.86 L55.04,58.47 L61.37,58.47 L61.37,53.22 L37.28,53.22 L37.28,58.47 L43.59,58.47 L43.59,74.86 Z" fill="none" stroke="currentColor" stroke-width="1.5"/></svg>