<svg xmlns="http://www.w3.org/2000/svg" viewBox="0 0 172.47 152.79" width="24" height="24"><path d="M51.7,152.79 C45.87,152.79 40.28,149.66 37.37,143.8 L3.1,83.87 C0,78.64 0.49,72.56 3.09,68.2 L37.66,8.26 C40.59,2.8 45.82,0 51.14,0 L120.54,0 C125.7,0 130.81,2.54 133.87,7.65 L168.31,67.55 C172.47,73.86 171.04,80.59 168.69,84.34 L134.44,143.89 C132.15,148.72 126.97,152.79 120.31,152.79 Z" fill="none" stroke="currentColor" stroke-width="1.5"/><path d="M104.27,152.79 L60.31,108.81 L68.4,98.02 L60.31,90.24 L67.42,78.65 L60.31,71.64 L69.7,55.08 L111.46,44.4 L162.28,95.48 L134.44,143.89 C132.17,148.72 126.97,152.79 120.31,152.79 Z" fill="none" stroke="currentColor" stroke-width="1.5"/><rect x="0" y="0" width="0" height="0" fill="none" stroke="currentColor"/><path d="M111.46,56.97 L72.79,56.97 L72.79,71.64 L60.31,71.64 L60.31,44.4 L111.46,44.4 Z M111.46,75.57 L92.87,75.57 L92.87,90.24 L60.31,90.24 L60.31,77.7 L79.06,77.7 L79.06,63.12 L111.46,63.12 Z M111.46,108.81 L60.31,108.81 L60.31,96.38 L99.01,96.38 L99.01,81.72 L111.46,81.72 Z" fill="none" stroke="currentColor" stroke-width="1.5"/></svg>