<svg xmlns="http://www.w3.org/2000/svg" viewBox="0 0 112.08 112.08" width="24" height="24"><path d="M46.81,74.34 C45.97,74.84 45.23,74.56 45.23,73.52 L45.23,39.53 C45.23,38.7 45.86,38.15 46.71,38.65 L73.49,55.75 C74.11,56.14 74.02,56.91 73.54,57.25 Z M56.04,0 C25.2,0 0,25.2 0,56.04 C0,86.88 25.2,112.08 56.04,112.08 C86.88,112.08 112.08,86.88 112.08,56.04 C112.08,25.2 86.88,0 56.04,0 Z M56.04,18 C77.15,18 94.08,34.92 94.08,56.04 C94.08,77.15 77.15,94.08 56.04,94.08 C34.92,94.08 18,77.15 18,56.04 C18,34.92 34.92,18 56.04,18 Z" fill="none" stroke="currentColor" stroke-width="1.5"/></svg>