<svg xmlns="http://www.w3.org/2000/svg" viewBox="0 0 172.47 152.79" width="24" height="24"><path d="M51.7,152.79 C45.87,152.79 40.28,149.66 37.37,143.8 L3.1,83.87 C0,78.64 0.49,72.56 3.09,68.2 L37.66,8.26 C40.59,2.8 45.82,0 51.14,0 L120.54,0 C125.7,0 130.81,2.54 133.87,7.65 L168.31,67.55 C172.47,73.86 171.04,80.59 168.69,84.34 L134.44,143.89 C132.15,148.72 126.97,152.79 120.31,152.79 Z" fill="none" stroke="currentColor" stroke-width="1.5"/><path d="M104.34,152.79 L38.39,86.53 L48.81,64.32 L76.45,43.33 L118.16,49.97 L162.67,94.8 L134.44,143.89 C132.17,148.72 126.97,152.79 120.31,152.79 Z" fill="none" stroke="currentColor" stroke-width="1.5"/><rect x="0" y="0" width="0" height="0" fill="none" stroke="currentColor"/><path d="M132.33,87.98 C130.06,87.98 127.76,86.52 127.76,83.82 C127.76,80.94 129.84,79.1 132.33,79.1 C134.54,79.1 136.78,81.09 136.78,83.82 C136.78,85.85 135.2,87.98 132.33,87.98 Z M126.72,72.83 C124.76,72.83 122.37,71.53 122.37,68.49 C122.37,65.86 124.46,64.08 126.72,64.08 C129.54,64.08 131.12,66.24 131.12,68.49 C131.12,70.87 129.77,72.83 126.72,72.83 Z M97.18,80.17 C96.62,84.38 93.29,88.61 87.4,88.61 C80.44,88.61 77.18,83.42 77.18,78.73 C77.18,72.22 82.5,68.29 86.56,68.29 C88.51,68.29 89.61,68.73 90.81,69.14 L119.9,55.94 C121.12,55.53 122.82,55.3 123.64,56.1 C124.5,56.94 123.53,59.03 122.34,59.89 Z M45.81,84.34 C45.44,87.27 43.39,88.18 40.72,87.79 C38.47,87.33 37.03,85.44 37.48,83.25 C41.96,61.4 53.54,50.62 64.73,44.36 C84.43,33.28 106.3,39.6 118.16,49.97 L109.56,54.05 C93.58,44.37 80.46,45.44 68.02,52.31 C56.91,58.29 47.96,72.14 45.81,84.34 Z" fill="none" stroke="currentColor" stroke-width="1.5"/></svg>