<svg xmlns="http://www.w3.org/2000/svg" viewBox="0 0 172.47 152.79" width="24" height="24"><path d="M51.7,152.79 C45.87,152.79 40.28,149.66 37.37,143.8 L3.1,83.87 C0,78.64 0.49,72.56 3.09,68.2 L37.66,8.26 C40.59,2.8 45.82,0 51.14,0 L120.54,0 C125.7,0 130.81,2.54 133.87,7.65 L168.31,67.55 C172.47,73.86 171.04,80.59 168.69,84.34 L134.44,143.89 C132.15,148.72 126.97,152.79 120.31,152.79 Z" fill="none" stroke="currentColor" stroke-width="1.5"/><path d="M106.51,152.79 L60.31,106.1 L59.83,69.9 L77.33,53.78 L69.5,46.14 L100.43,35.83 L161.5,96.82 L134.44,143.89 C132.17,148.72 126.97,152.79 120.31,152.79 Z" fill="none" stroke="currentColor" stroke-width="1.5"/><rect x="0" y="0" width="0" height="0" fill="none" stroke="currentColor"/><path d="M69.5,46.14 L69.5,35.83 L100.43,35.83 L100.43,46.14 Z M84.95,99.49 C76.99,99.49 69.52,93.56 69.52,83.92 C69.52,75.87 75.86,68.42 84.83,68.42 C93.74,68.42 100.45,75.75 100.45,84.05 C100.45,92 94.02,99.49 84.95,99.49 Z M85.58,106.49 C97.74,106.49 107.64,94.8 107.64,85.61 C107.64,69.08 95.44,61.4 85.29,61.4 C71.69,61.4 62.08,72.38 62.08,83.92 C62.08,94.75 71.05,106.49 85.58,106.49 Z M86.11,116.97 C65.48,116.97 51.88,101.64 51.88,84.39 C51.88,65.39 67.11,50.86 84.58,50.86 C93.8,50.86 99.34,53.44 104.4,57.25 L113.17,48.77 L120.48,56.03 L111.83,64.67 C116.61,71.05 118.2,78.36 118.2,84.17 C118.2,103.58 101.84,116.97 86.11,116.97 Z" fill="none" stroke="currentColor" stroke-width="1.5"/></svg>