<svg xmlns="http://www.w3.org/2000/svg" viewBox="0 0 98.75 98.75" width="24" height="24"><path d="M49.51,98.75 C22.71,98.75 0,77.87 0,49.04 C0,21.12 23.28,0 49.42,0 C76.54,0 98.75,23.66 98.75,49.14 C98.75,76.02 76.88,98.75 49.51,98.75 Z" fill="none" stroke="currentColor" stroke-width="1.5"/><path d="M24.63,17.9 C20.83,17.9 17.55,20.97 17.58,24.77 L17.58,81.7 L30.78,68.56 L73.94,68.56 C77.75,68.56 80.81,65.49 80.81,61.69 L80.81,24.77 C80.81,20.97 77.75,17.9 73.94,17.9 Z M30.78,30.92 L68.09,30.92 L68.09,36.51 L30.78,36.51 Z M30.78,40.3 L68.09,40.3 L68.09,45.89 L30.78,45.89 Z M30.78,49.69 L68.09,49.69 L68.09,55.27 L30.78,55.27 Z" fill="none" stroke="currentColor" stroke-width="1.5"/></svg>