<svg xmlns="http://www.w3.org/2000/svg" viewBox="0 0 172.47 152.79" width="24" height="24"><path d="M51.7,152.79 C45.87,152.79 40.28,149.66 37.37,143.8 L3.1,83.87 C0,78.64 0.49,72.56 3.09,68.2 L37.66,8.26 C40.59,2.8 45.82,0 51.14,0 L120.54,0 C125.7,0 130.81,2.54 133.87,7.65 L168.31,67.55 C172.47,73.86 171.04,80.59 168.69,84.34 L134.44,143.89 C132.15,148.72 126.97,152.79 120.31,152.79 Z" fill="none" stroke="currentColor" stroke-width="1.5"/><path d="M89.99,152.79 L49.24,112.92 L55.03,83.54 L49.19,77.72 L53.25,51.94 L79.16,47.69 L85.53,54.33 L84.35,39.68 L110.97,43.94 L122.95,52.58 L122.46,39.68 L168.56,84.56 L134.44,143.89 C132.17,148.72 126.97,152.79 120.31,152.79 Z" fill="none" stroke="currentColor" stroke-width="1.5"/><rect x="0" y="0" width="0" height="0" fill="none" stroke="currentColor"/><path d="M100.18,68.46 L116.28,52.34 L111.84,47.91 L100.15,59.68 L94.65,54.12 L90.22,58.54 Z M84.35,39.68 L122.46,39.68 L122.46,77.66 L84.35,77.66 Z M84.34,82.93 L84.34,112.96 L114.3,112.96 L114.3,82.93 Z M89.84,88.43 L108.8,88.43 L108.8,107.46 L89.84,107.46 Z M49.24,82.89 L49.24,112.92 L79.2,112.92 L79.2,82.89 Z M54.74,88.39 L73.7,88.39 L73.7,107.42 L54.74,107.42 Z M49.19,47.69 L49.19,77.72 L79.16,77.72 L79.16,47.69 Z M54.69,53.19 L73.66,53.19 L73.66,72.22 L54.69,72.22 Z" fill="none" stroke="currentColor" stroke-width="1.5"/></svg>