<svg xmlns="http://www.w3.org/2000/svg" viewBox="0 0 112.73 103.32" width="24" height="24"><path d="M46.78,69.49 L54.53,69.49 L54.53,57.43 L66.18,57.43 L66.18,49.78 L54.53,49.78 L54.53,37.58 L46.78,37.58 L46.78,49.78 L35.15,49.78 L35.15,57.43 L46.78,57.43 Z M50.65,83.67 C33.09,83.67 20.45,69.23 20.45,52.34 C20.45,39 32.88,23.04 50.88,23.04 C56.75,23.04 62.36,25.09 65.92,27.41 C70.48,23.45 78.89,22.33 84.29,29.25 C88.96,36.67 85.7,43.66 80.38,47.16 C81.45,51.54 81.31,54.22 80.95,57.15 C79.57,69.78 68.56,83.67 50.65,83.67 Z M50.32,90.06 C75.62,90.06 87.53,68.87 87.53,55.74 C87.56,53.19 87.49,51.67 87.33,49.39 C92.73,44.4 95.1,34.86 89.67,26.08 C82.04,15.56 70.63,16.99 65.68,20.13 C61.84,17.87 56.7,16.92 51.25,16.92 C30.23,16.92 14.23,33.62 14.23,52.54 C14.23,72.81 29.55,90.06 50.32,90.06 Z M101.59,44.26 C102.01,47.35 102.11,50.96 102.13,54.17 C102.13,78.6 80.21,103.32 50.71,103.32 C22.58,103.32 0,79.86 0,51.93 C0,23.68 23.5,0.96 50.88,0.96 C60.26,0.82 67.8,3.3 73.81,6.46 C82.97,0.99 97.12,0 106.42,13.09 C112.73,22.5 111.81,35.29 101.59,44.26 Z" fill="none" stroke="currentColor" stroke-width="1.5"/></svg>