<svg xmlns="http://www.w3.org/2000/svg" viewBox="0 0 113.32 103.53" width="24" height="24"><path d="M65.51,49.53 C65.76,50.48 66.05,52.09 66.05,53.66 C66.05,63 57.87,69.05 50.54,69.05 C40.81,69.05 34.81,60.59 34.81,53.58 C34.81,45.15 42.32,38.06 49.91,38.06 C53.92,38.06 56.91,39.03 58.8,40.54 C61.51,38.03 65.5,37.67 67.72,40.81 C70.09,44.24 68.53,47.46 65.51,49.53 Z M71.58,51.76 C74.9,48.43 76.36,42.59 72.29,37.26 C69.46,33.25 63.42,31.55 58.68,33.98 C55.78,32.93 52.73,32.23 49.7,32.23 C39.75,32.23 29.2,41.19 29.2,53.45 C29.2,66.28 39.84,74.84 50.15,74.84 C67.03,74.84 71.81,59.71 71.81,55.05 C71.81,54.17 71.73,53.02 71.58,51.76 Z M82.48,45.58 C82.9,48.44 83.11,50.3 83.09,53.52 C83.09,69.68 68.45,84.89 50.24,84.89 C36.15,84.89 18.69,73.63 18.69,51.29 C18.69,36.42 32.61,20.35 51,20.35 C56.16,20.35 61.71,21.91 66.72,24.7 C73.14,19.7 82.21,20.18 87.11,28.55 C91.01,36.02 86.7,42.99 82.48,45.58 Z M88.97,48.2 C94.98,43.16 97.31,32.43 91.74,24.08 C85.65,15.25 75.68,12.85 66.34,17.57 C60.1,15.06 56.81,14.13 49.51,14.13 C30.14,14.13 12.33,31.18 12.33,52.27 C12.33,72.75 28.07,90.88 50.59,90.88 C76.87,90.88 89.39,69.18 89.39,52.93 C89.39,50.97 89.18,49.68 88.97,48.2 Z M101.44,44.56 C101.93,47.37 102.05,49.86 102.05,52.93 C102.05,77.16 82.98,103.53 50.74,103.53 C25.27,103.53 0,83.46 0,51.56 C0,25.41 22.42,1.38 50.84,1.38 C59.01,1.38 66.79,3.16 73.8,6.96 C81.64,1.44 97.68,0 106.83,14.28 C113.32,24.43 110.25,37.71 101.44,44.56 Z" fill="none" stroke="currentColor" stroke-width="1.5"/></svg>