<svg xmlns="http://www.w3.org/2000/svg" viewBox="0 0 144.46 144.46" width="24" height="24"><path d="M72.37,51.75 L90.58,39.32 L72.37,27.16 L54.2,39.32 Z M47.51,60.59 L47.48,35.88 L72.37,19.18 L97.38,35.88 L97.38,60.59 L72.37,77.44 Z M101.08,99.74 L119.25,87.51 L101.08,75.37 L82.84,87.51 Z M76.21,108.81 L76.21,84.03 L101.08,67.43 L126.16,84.03 L126.16,108.81 L101.08,125.61 Z M43.49,99.74 L61.91,87.51 L43.49,75.37 L25.13,87.51 Z M18.7,108.81 L18.7,84.03 L43.49,67.43 L68.52,84.03 L68.52,108.81 L43.49,125.61 Z M7.6,137.04 L137.09,137.04 L137.09,7.57 L7.6,7.59 Z M0,144.46 L0,0 L144.46,0 L144.46,144.46 Z" fill="none" stroke="currentColor" stroke-width="1.5"/></svg>