<svg xmlns="http://www.w3.org/2000/svg" viewBox="0 0 31.57 31.6" width="24" height="24"><path d="M3.1,0 L28.47,0 C30.19,0 31.57,1.38 31.57,3.1 L31.57,28.5 C31.57,30.22 30.19,31.6 28.47,31.6 L3.1,31.6 C1.38,31.6 0,30.22 0,28.5 L0,3.1 C0,1.38 1.38,0 3.1,0 Z" fill="none" stroke="currentColor" stroke-width="1.5"/><path d="M22.07,22.18 L28.53,22.18 L28.53,28.68 L22.07,28.68 Z M12.56,22.18 L19.02,22.18 L19.02,28.68 L12.56,28.68 Z M3.05,22.18 L9.51,22.18 L9.51,28.68 L3.05,28.68 Z M22.07,12.61 L28.53,12.61 L28.53,19.11 L22.07,19.11 Z M12.56,12.61 L19.02,12.61 L19.02,19.11 L12.56,19.11 Z M3.05,12.61 L9.51,12.61 L9.51,19.11 L3.05,19.11 Z M22.07,3.04 L28.53,3.04 L28.53,9.54 L22.07,9.54 Z M12.56,3.04 L19.02,3.04 L19.02,9.54 L12.56,9.54 Z M3.05,3.04 L9.51,3.04 L9.51,9.54 L3.05,9.54 Z" fill="none" stroke="currentColor" stroke-width="1.5"/></svg>