<svg xmlns="http://www.w3.org/2000/svg" viewBox="0 0 137.31 145.77" width="24" height="24"><path d="M115.01,26.74 L115.01,17.96 L118.55,17.96 L111.17,10.53 L103.87,17.96 L107.51,17.96 L107.51,26.74 Z M125.69,27.29 L133.2,19.78 L129.29,19.78 L129.29,11.01 L121.95,11.01 L121.95,19.78 L118.35,19.78 Z M118.01,38.05 C108.03,38.05 99.46,29.74 99.46,18.76 C99.46,9.24 107.82,0 118.38,0 C128.41,0 137.31,8.12 137.31,19.3 C137.31,28.82 129.52,38.05 118.01,38.05 Z M57.41,86.39 L99.55,58.48 L57.44,30.53 L15.08,58.44 Z M15.08,78 L57.39,107.37 L99.55,78.45 L99.55,70.35 L57.33,99.31 L15.08,69.81 Z M15.08,97.48 L57.52,126.78 L99.55,97.79 L99.55,89.62 L57.41,118.78 L15.08,89.41 Z M57.45,145.77 L0,107.53 L0,50.31 L57.41,11.92 L114.77,50.23 L114.77,107.5 Z" fill="none" stroke="currentColor" stroke-width="1.5"/></svg>