<svg xmlns="http://www.w3.org/2000/svg" viewBox="0 0 103.42 173.2" width="24" height="24"><path d="M51.9,66.87 L17.69,35.63 L33.1,35.71 L33.15,0.02 L70.59,0 L70.59,35.69 L86.08,35.66 Z M18.11,79.72 C22.41,79.72 25.41,76.3 25.41,72.01 C25.41,67.63 21.84,64.66 17.96,64.66 C13.95,64.66 10.4,67.78 10.4,72.21 C10.4,76.93 14.02,79.72 18.11,79.72 Z M4.01,90.01 C1.77,90.01 0,88.27 0,85.75 L0,58.28 C0,56.6 1.37,54.51 4.68,54.51 L31.78,54.51 L48.74,70.24 C50.68,71.89 53.45,71.86 54.8,70.42 L72.03,54.51 L99.46,54.51 C101.42,54.51 103.42,55.84 103.42,57.55 L103.42,86.97 C103.42,88.94 101.08,90.01 99.5,90.01 Z M18.11,121.32 C22.41,121.32 25.41,117.9 25.41,113.6 C25.41,109.23 21.84,106.26 17.96,106.26 C13.95,106.26 10.4,109.38 10.4,113.8 C10.4,118.53 14.02,121.32 18.11,121.32 Z M4.01,131.6 C1.77,131.6 0,129.86 0,127.34 L0,99.88 C0,98.19 1.37,96.11 4.68,96.11 L99.46,96.11 C101.42,96.11 103.42,97.44 103.42,99.15 L103.42,128.57 C103.42,130.53 101.08,131.6 99.5,131.6 Z M18.11,162.91 C22.41,162.91 25.41,159.5 25.41,155.2 C25.41,150.83 21.84,147.85 17.96,147.85 C13.95,147.85 10.4,150.98 10.4,155.4 C10.4,160.12 14.02,162.91 18.11,162.91 Z M4.01,173.2 C1.77,173.2 0,171.46 0,168.94 L0,141.47 C0,139.79 1.37,137.71 4.68,137.71 L99.46,137.71 C101.42,137.71 103.42,139.03 103.42,140.74 L103.42,170.16 C103.42,172.13 101.08,173.2 99.5,173.2 Z" fill="none" stroke="currentColor" stroke-width="1.5"/></svg>