<svg xmlns="http://www.w3.org/2000/svg" viewBox="0 0 172.1 144.84" width="24" height="24"><path d="M153.02,104.54 L161.78,104.54 L161.78,95.84 L153.02,95.84 Z M138.19,104.54 L146.95,104.54 L146.95,95.84 L138.19,95.84 Z M123.37,104.54 L132.13,104.54 L132.13,95.84 L123.37,95.84 Z M108.54,104.54 L117.3,104.54 L117.3,95.84 L108.54,95.84 Z M153.02,119.45 L161.78,119.45 L161.78,110.75 L153.02,110.75 Z M138.19,119.45 L146.95,119.45 L146.95,110.75 L138.19,110.75 Z M123.37,119.45 L132.13,119.45 L132.13,110.75 L123.37,110.75 Z M108.54,119.45 L117.3,119.45 L117.3,110.75 L108.54,110.75 Z M153.08,134.36 L161.84,134.36 L161.84,125.66 L153.08,125.66 Z M138.25,134.36 L147.01,134.36 L147.01,125.66 L138.25,125.66 Z M123.43,134.36 L132.19,134.36 L132.19,125.66 L123.43,125.66 Z M108.6,134.36 L117.37,134.36 L117.37,125.66 L108.6,125.66 Z M152.55,86.1 L152.55,79.92 L157.38,79.92 L157.38,86.1 Z M107.95,90.49 L162.41,90.49 L162.41,75.62 L107.95,75.62 Z M98.09,144.84 L98.09,65.82 L172.1,65.82 L172.1,144.84 Z M92.27,79.14 L80.48,72.42 L112.68,0 C136.19,9.04 155.77,33.15 157.41,59.89 L92.27,59.89 Z M92.27,128.46 C83.59,132.67 75.52,134.94 63,134.94 C33.16,134.94 0,110.34 0,70.2 C0,38.32 22.5,16.8 44.4,9.53 L58.99,76.19 L92.27,95.07 Z" fill="none" stroke="currentColor" stroke-width="1.5"/></svg>