<svg xmlns="http://www.w3.org/2000/svg" viewBox="0 0 139.14 139.57" width="24" height="24"><path d="M79.83,87.19 C71.32,94.03 59.84,98.14 49.23,98.14 C20.61,98.14 0,74.59 0,49.45 C0,20.53 23.23,0 48.97,0 C74.5,0 97.98,20.25 97.98,49.33 C97.98,60.9 94.03,71.16 87.13,79.95 L88.47,81.5 L99.23,83.44 L137.05,121.29 C139.14,123.55 138.08,129.26 133.56,133.55 C129.13,137.74 124.01,139.57 121.15,137.08 L83.37,99.36 L81.51,88.82 Z M48.55,87.27 C70.72,87.27 87.27,69.44 87.27,49.19 C87.27,28.9 70.76,10.82 49.1,10.82 C28.01,10.82 10.61,28.19 10.61,49.22 C10.61,69.3 27.38,87.27 48.55,87.27 Z M43.96,62.71 C51.79,65.55 60.15,61.46 62.92,53.81 C65.41,46.93 62.61,38.1 53.74,34.88 C47.38,32.58 38.28,35.16 35.13,43.84 C32.5,51.09 35.96,59.81 43.96,62.71 Z M35.02,75.71 C33.02,74.56 31.08,73.34 29.38,71.81 L31.19,67.18 C29.92,66.07 28.75,64.71 27.71,62.98 L22.67,63.92 C21.75,61.9 20.82,59.91 20.02,57.56 L24.16,54.54 C23.7,53.12 23.34,51.07 23.45,49.04 L18.76,47.3 C18.95,45.24 19.28,43.02 19.94,40.41 L24.92,40.29 C25.4,38.69 26.44,36.56 27.32,35.1 L24.48,31.14 C25.84,29.36 27.31,27.65 29.07,26.12 L33.38,28.67 C34.69,27.47 36.36,26.51 38.2,25.66 L37.87,20.79 C39.91,19.9 42.18,19.32 44.56,18.88 L46.86,23.32 C48.82,23.1 50.94,23.26 52.41,23.6 L54.88,19.17 C57.22,19.59 59.55,20.41 61.46,21.34 L60.94,26.14 C62.55,27.04 64.13,28.04 65.64,29.34 L70.01,27.1 C71.65,28.66 73.13,30.51 74.34,32.36 L71.39,36.18 C72.28,38.05 73.16,39.87 73.46,41.42 L78.45,41.92 C79,44.21 79.25,46.45 79.27,48.66 L74.65,50.26 C74.51,52.21 74.08,54.31 73.62,55.89 L77.6,58.91 C76.73,61.03 75.59,63.63 74.59,65.03 L69.69,63.89 C68.58,65.54 67.32,66.89 65.99,68.07 L67.6,72.79 C66.17,73.93 63.96,75.33 61.78,76.31 L58.34,72.67 C56.91,73.32 54.99,73.89 53,74.04 L51.71,78.96 C49.59,79.18 47.31,79.13 44.92,78.87 L44.02,73.9 C42.48,73.66 40.15,73 38.64,72.18 Z" fill="none" stroke="currentColor" stroke-width="1.5"/></svg>