<svg xmlns="http://www.w3.org/2000/svg" viewBox="0 0 156.65 143.98" width="24" height="24"><path d="M60.07,43.64 L60.07,16.57 L87.42,16.57 L87.42,43.64 Z M51.69,52.05 L95.79,52.05 L95.79,8.2 L51.69,8.2 Z M112.78,43.64 L112.78,16.57 L139.96,16.57 L139.96,43.64 Z M104.42,52.05 L148.22,52.05 L148.22,8.2 L104.42,8.2 Z M112.78,96.3 L112.78,69.14 L139.96,69.14 L139.96,96.3 Z M104.42,104.65 L148.22,104.65 L148.22,60.84 L104.42,60.84 Z M60.07,96.3 L60.07,69.14 L87.42,69.14 L87.42,96.3 Z M51.69,104.65 L95.79,104.65 L95.79,60.84 L51.69,60.84 Z M60.69,135.58 L104.56,135.58 L104.56,113.11 L96.17,113.11 L96.17,127.2 L69.11,127.2 L69.11,113.11 L60.69,113.11 Z M7.93,82.97 L43.61,82.97 L43.61,74.49 L16.45,74.49 L16.45,47.52 L43.61,47.52 L43.61,39.14 L7.93,39.14 Z M7.93,135.58 L51.9,135.58 L51.9,113.11 L43.59,113.11 L43.59,127.2 L16.45,127.2 L16.45,100.12 L43.61,100.12 L43.61,91.67 L7.93,91.67 Z M0,143.98 L0,31 L43.61,31 L43.61,0 L156.65,0 L156.65,113.11 L112.86,113.11 L112.86,143.98 Z" fill="none" stroke="currentColor" stroke-width="1.5"/></svg>