<svg xmlns="http://www.w3.org/2000/svg" viewBox="0 0 142.69 147.33" width="24" height="24"><path d="M0,64.27 L0.05,39.65 C4.83,38.98 9.7,38.32 13.13,37.52 L23.81,15.22 L22.21,1.62 C25.6,0 28.03,0.17 29.93,2.89 C34.16,8.27 34.68,15.72 34.73,20.52 C34.64,22.82 33.99,25.78 32.27,27.79 L56.04,25.68 C59.44,29.09 62.19,35.33 63.5,39.65 C63.04,46.62 60.24,56.93 57.12,64.64 C51.95,66.42 42.35,68.19 34.89,69.36 C26.7,70.44 21.45,69.88 12.96,67.1 C8.34,65.75 6.02,63.99 0,64.27 Z M99.36,102.15 L83.67,81.69 L108.43,42.61 C108.91,41.72 108.15,41.49 107.63,41.98 L72.89,74.29 C70.49,76.45 68.8,78.85 68.9,81.26 C69.05,83.34 70.93,85.93 73.64,87.41 L98.34,103.2 C99.43,103.9 100.09,103.11 99.36,102.15 Z M76.45,147.33 C35.18,147.33 9.99,112.5 9.99,84.72 C9.99,80.41 10.03,77.87 10.23,75.07 C13.84,76.56 18.23,77.36 21.18,77.62 C20.81,120.59 55.15,136.18 77.63,136.18 C104.06,136.18 131.35,113.02 131.35,80.14 C131.35,43.05 94.68,19.73 66.9,26.56 C65.83,24.56 64.87,22.35 62.93,20.47 C60.96,18.61 59.15,18.02 57.17,17.3 C61.66,15.86 68.91,14.56 76.26,14.33 C114.66,14.33 142.69,45.78 142.69,80.24 C142.69,117.81 112.69,147.33 76.45,147.33 Z" fill="none" stroke="currentColor" stroke-width="1.5"/></svg>