<svg xmlns="http://www.w3.org/2000/svg" viewBox="0 0 373.21 373.21" width="24" height="24"><path d="M187.14,373.21 C85.83,373.21 0,294.32 0,185.36 C0,79.84 88,0 186.79,0 C289.3,0 373.21,89.43 373.21,185.71 C373.21,287.33 290.58,373.21 187.14,373.21 Z" fill="none" stroke="currentColor" stroke-width="1.5"/><path d="M186.72,198.97 Z M186.71,82.91 C195.67,82.91 204.22,87.22 210.59,93.56 C216.95,99.89 220.27,108.23 220.27,112.36 L220.27,140.72 L153.15,140.72 L153.15,112.36 C153.15,105.27 156.91,97.99 163.43,92.24 C169.95,86.49 178.93,82.91 186.71,82.91 Z M186.71,56.45 C171.47,56.45 157.05,62.61 145.94,72.4 C134.82,82.19 126.7,96.24 126.7,112.36 L126.7,140.72 L115.13,140.72 C101.99,140.72 91.41,151.3 91.41,164.44 L91.41,283.12 C91.41,296.26 101.99,306.84 115.13,306.84 L258.23,306.84 C271.37,306.84 281.95,296.26 281.95,283.12 L281.95,164.44 C281.95,151.3 271.37,140.72 258.23,140.72 L246.73,140.72 L246.73,112.36 C246.73,98.25 239.74,85.26 229.25,74.81 C218.77,64.37 203.91,56.45 186.71,56.45 Z" fill="none" stroke="currentColor" stroke-width="1.5"/></svg>