<svg xmlns="http://www.w3.org/2000/svg" viewBox="0 0 172.47 152.79" width="24" height="24"><path d="M51.7,152.79 C45.87,152.79 40.28,149.66 37.37,143.8 L3.1,83.87 C0,78.64 0.49,72.56 3.09,68.2 L37.66,8.26 C40.59,2.8 45.82,0 51.14,0 L120.54,0 C125.7,0 130.81,2.54 133.87,7.65 L168.31,67.55 C172.47,73.86 171.04,80.59 168.69,84.34 L134.44,143.89 C132.15,148.72 126.97,152.79 120.31,152.79 Z" fill="none" stroke="currentColor" stroke-width="1.5"/><path d="M109.36,152.79 L64.09,111.43 L51.82,81.69 L45.36,74.06 L101.61,41.59 L108.5,48.43 L107.51,43.97 L160.9,97.86 L134.44,143.89 C132.17,148.72 126.97,152.79 120.31,152.79 Z" fill="none" stroke="currentColor" stroke-width="1.5"/><rect x="0" y="0" width="0" height="0" fill="none" stroke="currentColor"/><path d="M82.76,74.06 L45.36,74.06 L64.29,41.59 L101.61,41.59 Z M107.39,109.11 L88.64,76.47 L107.51,43.97 L126.35,76.59 Z M64.09,111.43 L45.66,78.92 L83.02,78.92 L101.83,111.43 Z" fill="none" stroke="currentColor" stroke-width="1.5"/><path d="M107.39,109.11 L88.64,76.47 L107.51,43.97 L126.35,76.59 Z" fill="none" stroke="currentColor" stroke-width="1.5"/><path d="M64.09,111.43 L45.66,78.92 L83.02,78.92 L101.83,111.43 Z" fill="none" stroke="currentColor" stroke-width="1.5"/></svg>