<svg xmlns="http://www.w3.org/2000/svg" viewBox="0 0 172.47 152.79" width="24" height="24"><path d="M134.44,143.89 C132.15,148.72 126.97,152.79 120.31,152.79 L51.7,152.79 C45.87,152.79 40.28,149.66 37.37,143.8 L3.1,83.87 C0,78.64 0.49,72.56 3.09,68.2 L37.66,8.26 C40.59,2.8 45.82,0 51.14,0 L120.54,0 C125.7,0 130.81,2.54 133.87,7.65 L168.31,67.55 C172.47,73.86 171.04,80.59 168.69,84.34 Z" fill="none" stroke="currentColor" stroke-width="1.5"/><path d="M134.44,143.89 C132.17,148.72 126.97,152.79 120.31,152.79 L103.42,152.79 L36.84,86.43 L50.2,54.47 L76.25,80.93 L91.16,71.46 L68.08,48.52 L74.42,42.34 L149.59,117.55 Z M152.16,113.09 L83.79,45.83 L90.11,39.6 L99.51,49.56 L105.91,43.51 L115.73,53.73 L119.14,52.33 L162.28,95.46 Z" fill="none" stroke="currentColor" stroke-width="1.5"/><rect x="0" y="0" width="0" height="0" fill="none" stroke="currentColor"/><path d="M131.44,88.17 C129.04,88.17 127.11,86.63 127.11,83.8 C127.11,81.26 129.09,79.36 131.56,79.36 C134.09,79.36 135.91,81.71 135.91,83.68 C135.91,86.13 134.22,88.17 131.44,88.17 Z M126.1,72.98 C123.71,72.98 121.78,71.44 121.78,68.62 C121.78,66.07 123.76,64.17 126.23,64.17 C128.76,64.17 130.58,66.53 130.58,68.49 C130.58,70.94 128.89,72.98 126.1,72.98 Z M116.16,59.97 C113.77,59.97 111.84,58.42 111.84,55.6 C111.84,53.06 113.82,51.16 116.29,51.16 C118.81,51.16 120.64,53.51 120.64,55.47 C120.64,57.93 118.94,59.97 116.16,59.97 Z M102.74,50.97 C100.34,50.97 98.41,49.43 98.41,46.61 C98.41,44.06 100.39,42.16 102.86,42.16 C105.39,42.16 107.21,44.52 107.21,46.48 C107.21,48.93 105.52,50.97 102.74,50.97 Z M87.1,47.22 C84.7,47.22 82.77,45.68 82.77,42.86 C82.77,40.31 84.75,38.41 87.23,38.41 C89.75,38.41 91.58,40.76 91.58,42.73 C91.58,45.18 89.88,47.22 87.1,47.22 Z M71.33,49.86 C68.93,49.86 67,48.32 67,45.5 C67,42.95 68.98,41.05 71.45,41.05 C73.98,41.05 75.8,43.41 75.8,45.37 C75.8,47.83 74.11,49.86 71.33,49.86 Z M85.59,89.22 C79.14,89.22 74.64,83.11 75.34,77.63 L55.73,51.73 C55.1,50.58 55.16,49.46 55.9,48.75 C56.77,48.11 58.15,48.24 59.02,48.92 L84.33,68.94 C91.55,68.05 95.67,73.55 95.67,78.93 C95.67,85.19 90.72,89.22 85.59,89.22 Z M44.06,84.31 C43.75,86.62 41.83,88.21 38.88,87.7 C36.66,87.08 35.15,84.69 35.88,82.66 C38.54,68.61 44.78,60.05 50.2,54.47 L55.33,61.46 C50.49,67.54 46.46,73.89 44.06,84.31 Z" fill="none" stroke="currentColor" stroke-width="1.5"/></svg>