<svg xmlns="http://www.w3.org/2000/svg" viewBox="0 0 98.75 98.75" width="24" height="24"><path d="M49.51,98.75 C22.71,98.75 0,77.87 0,49.04 C0,21.12 23.28,0 49.42,0 C76.54,0 98.75,23.66 98.75,49.14 C98.75,76.02 76.88,98.75 49.51,98.75 Z" fill="none" stroke="currentColor" stroke-width="1.5"/><path d="M39.55,31.44 L39.55,21.42 L74.49,21.42 L74.49,31.44 Z M24.1,31.44 L24.1,21.42 L34.28,21.42 L34.28,31.44 Z M39.55,46.94 L39.55,36.92 L74.49,36.92 L74.49,46.94 Z M24.1,46.94 L24.1,36.92 L34.28,36.92 L34.28,46.94 Z M39.55,62.44 L39.55,52.42 L74.49,52.42 L74.49,62.44 Z M24.1,62.44 L24.1,52.42 L34.28,52.42 L34.28,62.44 Z M39.55,77.94 L39.55,67.93 L74.49,67.93 L74.49,77.94 Z M24.1,77.94 L24.1,67.93 L34.28,67.93 L34.28,77.94 Z" fill="none" stroke="currentColor" stroke-width="1.5"/></svg>