<svg xmlns="http://www.w3.org/2000/svg" viewBox="0 0 152.98 162.59" width="24" height="24"><path d="M43.71,149.98 L43.71,74.9 L21.81,87.19 L0,74.3 L0,49.62 L87.39,0 L152.98,37.77 L152.98,62.49 L131.1,75.18 L87.44,49.86 L87.44,74.84 L109.28,87.34 L109.32,112.14 L87.44,124.91 L87.44,149.89 L65.45,162.59 Z" fill="none" stroke="currentColor" stroke-width="1.5"/><path d="M87.44,74.84 L65.45,87.65 L65.45,62.66 L21.81,87.19 L21.81,62.33 L87.44,24.99 Z M131.1,75.18 L131.1,50.33 L152.98,37.77 L152.98,62.49 Z M109.32,112.14 L87.44,124.91 L87.44,100.12 L109.28,87.34 Z M65.45,162.59 L65.45,112.06 L87.44,124.91 L87.44,149.89 Z" fill="none" stroke="currentColor" stroke-width="1.5"/><path d="M131.1,50.33 L87.44,24.99 L21.81,62.33 L0,49.62 L87.39,0 L152.98,37.77 Z M87.44,100.12 L65.45,87.65 L87.44,74.84 L109.28,87.34 Z" fill="none" stroke="currentColor" stroke-width="1.5"/></svg>