<svg xmlns="http://www.w3.org/2000/svg" viewBox="0 0 1359.09 922.78" width="24" height="24"><path d="M562.5,586.34 L562.5,292.84 L476.87,340.86 L391.61,290.49 L391.61,193.98 L733.27,0 L989.68,147.68 L989.68,244.29 L904.14,293.92 L733.44,194.91 L733.44,292.59 L818.82,341.46 L818.97,438.41 L733.44,488.33 L733.44,586 L647.47,635.65 Z" fill="none" stroke="currentColor" stroke-width="1.5"/><path d="M733.44,292.59 L647.47,342.65 L647.47,244.95 L476.87,340.86 L476.87,243.68 L733.44,97.69 Z M904.14,293.92 L904.14,196.75 L989.68,147.68 L989.68,244.29 Z M818.97,438.41 L733.44,488.33 L733.44,391.42 L818.82,341.46 Z M647.47,635.65 L647.47,438.11 L733.44,488.33 L733.44,586 Z" fill="none" stroke="currentColor" stroke-width="1.5"/><path d="M904.14,196.75 L733.44,97.69 L476.87,243.68 L391.61,193.98 L733.27,0 L989.68,147.68 Z M733.44,391.42 L647.47,342.65 L733.44,292.59 L818.82,341.46 Z" fill="none" stroke="currentColor" stroke-width="1.5"/><path d="M710.76,917.93 L710.76,759.31 L741.54,759.31 L741.54,774.8 C750.15,762.75 762.12,756.22 780.46,755.78 C789.43,755.78 798.93,758.66 804.26,762.58 L796.78,791.82 C788.38,786.33 768.03,783.2 756.82,789.95 C750.31,793.17 741.54,806.43 741.54,822.94 L741.54,917.93 Z M623.61,892.11 C645.01,892.11 662.24,869.36 662.24,838.54 C662.24,810.37 648.86,785.19 621.12,785.19 C595.17,785.19 582.56,810.57 582.56,838.12 C582.56,866.93 594.74,892.11 623.61,892.11 Z M621.28,921.56 C586.05,921.56 551.39,894.67 551.39,835.83 C551.39,800.58 572.78,755.61 622.17,755.61 C662.01,755.61 693.77,787.59 693.77,839.1 C693.77,871.14 677.05,921.56 621.28,921.56 Z M437.27,878.45 C450.63,887.31 466.44,893.05 481.73,893.92 C493.26,894.87 504.49,892.33 509.61,885.59 C514.32,879.96 513.88,870.99 509.87,867.23 C503.36,857.79 487.82,854.47 476.12,849.21 C459.34,841.24 432.27,833.49 429.53,806.45 C426.94,779.85 440.15,764.72 460.65,759.01 C485.56,751.92 512.72,756.59 536.99,773.38 L523.56,796.93 C510.83,788.23 496.28,782.08 476.12,783.75 C467.73,784.14 460.31,789.16 460.31,797.27 C460.31,807.64 469.4,812.71 479.56,816.86 C497.38,824.94 510.91,828.2 528.87,840.83 C539.9,848.75 545.59,865.45 542.89,882.08 C540.4,899.29 530.8,917.24 493.46,921.04 C470.28,922.78 446.35,917.54 423.33,901.32 Z M284.91,918.04 L284.91,759.14 L315.62,759.14 L315.62,773.97 C323.97,764.14 337.13,756.09 357.61,755.7 C393.48,755.7 412.18,784.88 412.18,821.05 L412.18,918.04 L381.93,918.04 L381.93,830.33 C381.93,809.36 378.31,784.51 349.03,784.51 C327.35,784.51 315.99,798.59 315.62,825.4 L315.62,918.04 Z M233.63,811.15 C228.76,791.05 210.36,779.39 188.23,784.78 C171.99,789.42 160.14,807.23 161.7,833.27 Z M254.07,900.64 C242.93,910.24 229.53,921.55 198.9,921.55 C166.48,921.55 136.94,896.41 131.32,853.71 C127.13,804.53 143.22,771.26 177.1,759.1 C199.07,752.06 228.63,756.71 243.75,771.7 C259.5,787.29 265.5,807.57 266.99,827.47 L162.42,859.31 C167.21,879.34 178.73,892.38 201.45,893.84 C215.35,893.84 227.09,887.76 235.71,881.34 Z M61.71,918.22 L61.71,736.69 L0,736.69 L0,706.4 L155.04,706.4 L155.04,736.69 L93.21,736.69 L93.21,918.22 Z" fill="none" stroke="currentColor" stroke-width="1.5"/><path d="M1202.87,918.04 L1159.42,759.17 L1189.87,759.17 L1216.95,870.64 L1247,759.17 L1271.92,759.17 L1302.32,872 L1329.05,759.17 L1359.09,759.17 L1315.48,918.04 L1289.08,918.04 L1259.52,804.43 L1229.6,918.04 Z M1086.01,892.08 C1107.07,892.08 1126.18,872.91 1126.18,839.15 C1126.18,811.5 1114.55,785.26 1085.78,785.26 C1056.4,785.26 1046.49,813.9 1046.49,837.59 C1046.49,863.47 1057.22,892.08 1086.01,892.08 Z M1086.3,921.32 C1041.84,921.32 1015.53,884.54 1015.53,835.95 C1015.53,792.01 1043.57,755.78 1087.01,755.78 C1123.61,755.78 1157.73,785.96 1157.73,838.58 C1157.73,883.59 1131.33,921.32 1086.3,921.32 Z M963.87,917.93 L963.87,714.04 L993.87,697.8 L993.87,917.93 Z M817.82,917.93 L817.82,706.55 L946.94,706.55 L946.94,736.6 L849.06,736.6 L849.06,792.95 L909.67,792.95 L909.67,823.11 L849.06,823.11 L849.06,917.93 Z" fill="none" stroke="currentColor" stroke-width="1.5"/></svg>