<svg xmlns="http://www.w3.org/2000/svg" viewBox="0 0 172.47 152.79" width="24" height="24"><path d="M51.7,152.79 C45.87,152.79 40.28,149.66 37.37,143.8 L3.1,83.87 C0,78.64 0.49,72.56 3.09,68.2 L37.66,8.26 C40.59,2.8 45.82,0 51.14,0 L120.54,0 C125.7,0 130.81,2.54 133.87,7.65 L168.31,67.55 C172.47,73.86 171.04,80.59 168.69,84.34 L134.44,143.89 C132.15,148.72 126.97,152.79 120.31,152.79 Z" fill="none" stroke="currentColor" stroke-width="1.5"/><path d="M99.09,152.79 L54.15,107.99 L68.36,79.84 L54.36,67.04 L76.18,44.63 L89.64,57.46 L117.74,44.63 L164.5,91.62 L134.44,143.89 C132.17,148.72 126.97,152.79 120.31,152.79 Z" fill="none" stroke="currentColor" stroke-width="1.5"/><rect x="0" y="0" width="0" height="0" fill="none" stroke="currentColor"/><path d="M95.09,92.21 L95.09,87.17 C95.09,86.23 95.74,85.48 96.76,85.48 L101.74,85.48 L101.74,67.21 L97.03,67.21 C95.66,67.21 95.09,66.43 95.09,65.4 L95.09,60.6 L76.75,60.6 L76.75,65.12 C76.75,66.7 76.11,67.21 74.54,67.21 L70.13,67.21 L70.13,85.48 L75.01,85.48 C75.94,85.48 76.75,86.01 76.75,87.21 L76.75,92.21 Z M55.32,108.4 C54.19,108.4 53.89,107.73 53.89,106.91 L53.89,87 C53.89,86.12 54.3,85.48 55.33,85.48 L63.1,85.48 L63.1,67.21 L55.61,67.21 C54.71,67.21 53.89,66.76 53.89,65.59 L53.89,45.98 C53.89,44.87 54.58,44.29 55.89,44.29 L75.07,44.29 C76.23,44.29 76.75,45.04 76.75,46.29 L76.75,53.54 L95.09,53.54 L95.09,45.71 C95.09,44.77 95.53,44.29 96.64,44.29 L116.54,44.29 C117.48,44.29 118.09,44.56 118.09,45.7 L118.09,65.39 C118.09,66.62 117.34,67.21 115.96,67.21 L108.88,67.21 L108.88,85.48 L115.91,85.48 C117.32,85.48 118.09,85.63 118.09,87.79 L118.09,106.93 C118.09,107.71 117.56,108.4 116.47,108.4 L96.73,108.4 C95.45,108.4 95.09,107.63 95.09,106.56 L95.09,99.26 L76.75,99.26 L76.75,106.37 C76.75,107.47 76.14,108.4 74.77,108.4 Z" fill="none" stroke="currentColor" stroke-width="1.5"/></svg>