<svg xmlns="http://www.w3.org/2000/svg" viewBox="0 0 98.75 98.75" width="24" height="24"><path d="M49.51,98.75 C22.71,98.75 0,77.87 0,49.04 C0,21.12 23.28,0 49.42,0 C76.54,0 98.75,23.66 98.75,49.14 C98.75,76.02 76.88,98.75 49.51,98.75 Z" fill="none" stroke="currentColor" stroke-width="1.5"/><path d="M27.74,36.58 C23.97,36.58 20.94,39.62 20.94,43.39 L20.94,55.38 C20.94,59.15 23.97,62.18 27.74,62.18 L70.7,62.18 C74.47,62.18 77.5,59.15 77.5,55.38 L77.5,43.39 C77.5,39.62 74.47,36.58 70.7,36.58 Z M30.91,46.64 L36.72,46.64 L36.72,52.27 L30.91,52.27 Z M41.71,46.64 L47.51,46.64 L47.51,52.27 L41.71,52.27 Z M52.51,46.64 L58.31,46.64 L58.31,52.27 L52.51,52.27 Z" fill="none" stroke="currentColor" stroke-width="1.5"/></svg>