<svg xmlns="http://www.w3.org/2000/svg" viewBox="0 0 100.79 100.63" width="24" height="24"><path d="M17.145,0 C16.438,0.003 15.789,0.053 15.22,0.132 C14.518,0.239 13.822,0.486 13.255,1.074 C12.972,1.369 12.721,1.795 12.681,2.302 C12.64,2.809 12.829,3.324 13.133,3.728 L20.128,11.156 C22.173,13.546 21.537,17.327 19.461,19.216 C16.676,21.544 13.698,21.407 11.826,19.841 L4.923,12.916 C4.252,12.278 3.27,12.063 2.517,12.381 C1.77,12.697 1.298,13.388 1.146,14.163 C0,18.975 1.385,24.924 6.415,29.208 C10.362,32.267 13.966,33.775 21.252,32.794 C21.253,32.793 21.255,32.794 21.256,32.794 C21.828,32.726 23.531,33.27 24.199,33.975 L34.17,43.922 L6.248,71.708 C0.581,77.999 0.29,86.103 5.443,92.991 C11.817,100.63 21.732,100.315 28.143,94.85 L56.718,66.416 L67.345,77.017 C67.398,77.073 67.555,77.388 67.609,77.938 C67.664,78.49 67.639,79.224 67.573,80.001 C67.235,83.956 67.464,86.807 68.382,89.23 C69.299,91.65 70.875,93.555 73.007,95.666 C73.008,95.666 73.008,95.667 73.009,95.668 C75.124,97.801 77.683,98.987 80.032,99.557 C82.382,100.127 84.5,100.11 85.985,99.719 C86.964,99.429 87.736,98.868 88.066,98.037 C88.395,97.207 88.154,96.245 87.593,95.576 L80.687,88.527 C80.086,87.85 79.674,86.426 79.797,84.907 C79.92,83.385 80.54,81.821 81.612,80.805 C82.68,79.704 84.189,79.165 85.649,79.102 C87.109,79.039 88.469,79.503 89.078,80.074 L89.071,80.065 L96.609,87.259 C96.61,87.26 96.61,87.259 96.611,87.261 C97.317,87.959 98.337,87.838 98.99,87.487 C99.643,87.136 100.201,86.531 100.329,85.653 C100.79,81.214 100.021,76.511 96.525,72.563 C91.287,67.248 86.594,66.497 81.249,67.045 L81.259,67.043 C79.882,67.169 78.791,66.782 77.966,66.006 L61.567,49.569 L85.387,25.886 L91.78,23.646 L98.146,13.565 C98.632,12.734 98.616,11.896 98.545,11.101 C98.509,10.704 98.442,10.325 98.34,9.975 C98.238,9.625 98.144,9.312 97.824,8.955 L91.355,2.6 C90.812,2.057 90.142,1.822 89.514,1.74 L89.513,1.74 C88.885,1.659 88.285,1.675 87.675,2.068 L77.435,8.099 L74.594,15.523 L50.938,38.915 L34.034,21.971 C33.938,21.873 33.708,21.445 33.596,20.95 C33.485,20.455 33.463,19.891 33.499,19.607 C33.662,17.245 33.837,14.776 33.145,12.147 C32.453,9.519 30.876,6.787 27.747,3.996 C24.604,1.094 20.836,0.134 17.871,0.014 L17.87,0.014 C17.623,0.004 17.381,0 17.145,0.001 Z M17.135,2.172 C19.734,2.171 23.388,2.911 26.286,5.591 C29.187,8.176 30.466,10.481 31.05,12.698 C31.634,14.915 31.502,17.102 31.346,19.397 L31.353,19.334 C31.272,19.976 31.321,20.694 31.486,21.425 C31.651,22.156 31.903,22.899 32.504,23.5 L76.451,67.553 C77.758,68.785 79.54,69.373 81.456,69.198 C86.525,68.68 90.092,69.133 94.92,74.019 C97.938,77.44 98.59,81.364 98.186,85.347 C98.181,85.362 98.085,85.503 97.977,85.571 L90.565,78.502 C89.321,77.335 87.476,76.857 85.557,76.94 C83.644,77.023 81.611,77.717 80.11,79.254 C78.568,80.727 77.801,82.769 77.643,84.732 C77.484,86.702 77.891,88.645 79.077,89.973 L85.941,96.979 C86.095,97.167 86.073,97.201 86.057,97.241 C86.041,97.282 85.907,97.477 85.413,97.629 C84.443,97.88 82.56,97.944 80.541,97.454 C78.51,96.962 76.328,95.94 74.546,94.141 C72.483,92.103 71.166,90.473 70.404,88.463 C69.642,86.453 69.404,83.97 69.728,80.184 C69.799,79.347 69.84,78.511 69.762,77.724 C69.684,76.937 69.511,76.146 68.904,75.515 L25.769,32.485 C24.489,31.133 22.626,30.449 20.993,30.647 C14.042,31.586 11.508,30.411 7.805,27.548 C3.377,23.767 2.28,18.678 3.254,14.633 C3.288,14.463 3.325,14.416 3.344,14.395 C3.355,14.407 3.355,14.409 3.413,14.464 L10.353,21.427 C13.144,23.779 17.431,23.751 20.872,20.859 C23.864,18.155 24.666,13.124 21.77,9.745 L14.954,2.517 C15.085,2.435 15.29,2.314 15.527,2.276 C15.992,2.212 16.535,2.172 17.135,2.172 Z M89.138,3.878 C89.169,3.878 89.2,3.88 89.232,3.884 C89.484,3.917 89.73,4.036 89.826,4.131 L96.18,10.37 C96.177,10.375 96.226,10.455 96.263,10.579 C96.316,10.764 96.366,11.025 96.39,11.293 C96.438,11.83 96.307,12.422 96.286,12.458 L90.698,21.732 L84.441,23.925 L60.04,48.037 L52.466,40.446 L76.292,16.885 L78.876,9.759 L88.81,3.909 C88.748,3.949 88.924,3.876 89.138,3.878 Z M35.703,45.45 L55.187,64.888 L26.728,93.21 C21.11,97.991 12.782,98.377 7.165,91.674 C2.519,85.449 2.769,78.814 7.807,73.21 Z M37.074,53.076 C37.025,53.075 36.976,53.075 36.928,53.076 C36.149,53.1 35.453,53.422 34.919,53.89 L9.805,78.938 C9.209,79.531 8.797,80.28 8.72,81.111 C8.643,81.943 8.96,82.839 9.622,83.481 C10.864,84.689 13.107,84.641 14.648,83.009 L39.194,58.428 L39.196,58.424 C40.356,57.296 40.51,55.302 39.247,54.015 C38.578,53.398 37.809,53.093 37.074,53.076 Z M36.993,55.238 C37.198,55.232 37.419,55.3 37.711,55.557 C38.11,55.987 38.012,56.561 37.688,56.875 L13.095,81.502 C12.126,82.529 11.533,82.32 11.13,81.929 C10.888,81.694 10.854,81.536 10.875,81.31 C10.896,81.083 11.03,80.769 11.331,80.471 L36.345,55.517 C36.346,55.516 36.348,55.516 36.349,55.515 C36.549,55.341 36.78,55.244 36.992,55.238 Z M44.61,60.246 C44.561,60.245 44.512,60.245 44.464,60.247 C43.685,60.27 42.988,60.592 42.454,61.06 L17.339,86.11 C16.744,86.703 16.332,87.451 16.255,88.281 C16.178,89.113 16.496,90.009 17.158,90.652 C18.4,91.859 20.641,91.811 22.181,90.178 L46.728,65.598 C47.89,64.471 48.047,62.473 46.783,61.185 C46.114,60.568 45.345,60.263 44.61,60.246 Z M44.529,62.408 L44.529,62.408 C44.735,62.402 44.955,62.467 45.249,62.727 C45.647,63.157 45.545,63.732 45.221,64.046 L20.629,88.673 C19.66,89.7 19.067,89.493 18.664,89.101 C18.422,88.866 18.387,88.707 18.408,88.48 C18.429,88.254 18.566,87.94 18.867,87.641 L43.88,62.687 C43.881,62.686 43.883,62.686 43.884,62.685 C44.084,62.511 44.316,62.414 44.528,62.407 Z" fill="none" stroke="currentColor" stroke-width="1.5"/></svg>