<svg xmlns="http://www.w3.org/2000/svg" viewBox="0 0 100.0 91.775" width="24" height="24"><path d="M49.51,0 C33.385,0 19.006,3.253 6.662,7.217 C4.42,7.986 2.738,9.119 1.64,10.65 C0.543,12.182 0.068,14.06 0.068,16.166 L0,41.216 C0,62.033 18.157,82.144 44.357,90.487 C48.415,91.775 51.226,91.622 55.205,90.424 C80.987,82.787 99.98,62.411 99.982,40.396 L99.982,40.394 L100,16.033 C100,11.488 97.199,8.486 93.25,7.189 L93.246,7.187 C79.598,2.664 64.651,0 49.51,0 Z M49.51,2.038 L49.51,2.039 C64.413,2.039 79.155,4.665 92.609,9.124 C96.013,10.24 97.961,12.263 97.961,16.032 L97.943,40.395 C97.943,61.232 79.72,81.039 54.621,88.471 C50.821,89.617 48.758,89.745 44.975,88.545 C19.42,80.407 2.041,60.841 2.039,41.222 L2.039,41.218 L2.106,16.168 C2.106,14.359 2.491,12.962 3.296,11.839 C4.099,10.719 5.36,9.821 7.293,9.156 C19.505,5.234 33.662,2.038 49.51,2.038 Z M50,16.747 C48.903,16.747 47.821,16.812 46.758,16.939 L43.919,22.354 C42.214,22.835 40.59,23.513 39.075,24.362 L33.342,22.458 C31.554,23.847 29.849,25.586 28.458,27.371 L30.488,32.911 C29.576,34.521 28.859,36.256 28.366,38.082 L23.043,40.462 C22.898,41.595 22.824,42.751 22.824,43.923 C22.824,45.084 22.897,46.228 23.038,47.351 L28.448,50.067 C28.939,51.789 29.632,53.426 30.498,54.953 L28.437,60.43 C29.834,62.233 31.657,64.095 33.457,65.497 L39.189,63.548 C40.687,64.376 42.291,65.038 43.973,65.508 L46.658,70.896 C47.784,71.039 48.836,71.1 50,71.1 C51.116,71.1 52.514,70.996 53.595,70.866 L56.181,65.465 C57.832,64.991 59.405,64.332 60.877,63.512 L66.602,65.53 C68.337,64.166 70.213,62.323 71.572,60.583 L69.635,54.716 C70.448,53.242 71.1,51.667 71.567,50.015 L76.963,47.426 C77.088,46.367 77.177,45.016 77.177,43.923 C77.177,42.766 77.104,41.626 76.964,40.507 L71.569,37.837 C71.098,36.169 70.438,34.579 69.614,33.092 L71.566,27.407 C70.227,25.688 68.329,23.813 66.622,22.46 L60.882,24.339 C59.358,23.489 57.725,22.811 56.009,22.334 L53.45,16.965 C52.412,16.845 51.07,16.747 50,16.747 Z M50,18.785 C50.714,18.785 51.419,18.816 52.117,18.874 L54.588,24.071 C56.743,24.566 58.827,25.426 60.66,26.544 L66.209,24.701 C67.327,25.645 68.361,26.684 69.299,27.807 L67.425,33.357 C68.504,35.135 69.367,37.236 69.863,39.319 L75.043,41.736 C75.105,42.457 75.138,43.186 75.138,43.923 C75.138,44.656 75.105,45.381 75.044,46.097 L69.855,48.569 C69.366,50.634 68.526,52.659 67.462,54.426 L69.288,60.054 C68.324,61.206 67.26,62.269 66.107,63.232 L60.748,61.28 C58.968,62.354 56.854,63.271 54.772,63.762 L52.291,68.957 C51.536,69.025 50.773,69.061 50,69.061 C49.317,69.061 48.64,69.033 47.97,68.98 L45.461,63.779 C43.301,63.28 41.095,62.413 39.26,61.288 L33.849,63.194 C32.738,62.262 31.709,61.235 30.774,60.127 L32.704,54.697 C31.548,52.845 30.682,50.792 30.169,48.602 L24.956,46.092 C24.895,45.377 24.862,44.654 24.862,43.923 C24.862,43.231 24.891,42.546 24.946,41.869 L30.129,39.519 C30.629,37.349 31.571,35.038 32.703,33.196 L30.76,27.737 C31.667,26.66 32.662,25.661 33.735,24.75 L39.284,26.591 C41.135,25.446 43.184,24.588 45.368,24.082 L47.92,18.871 C48.606,18.815 49.3,18.786 50,18.786 Z M50,34.18 C44.632,34.18 40.258,38.555 40.258,43.923 C40.258,49.292 44.632,53.666 50,53.666 C55.369,53.666 59.743,49.292 59.743,43.923 C59.743,38.555 55.369,34.18 50,34.18 Z M50,36.218 C54.268,36.218 57.705,39.656 57.705,43.923 C57.705,48.19 54.268,51.628 50,51.628 C45.733,51.628 42.296,48.19 42.296,43.923 C42.296,39.656 45.733,36.218 50,36.218 Z" fill="none" stroke="currentColor" stroke-width="1.5"/></svg>