<svg xmlns="http://www.w3.org/2000/svg" viewBox="0 0 100.0 98.648" width="24" height="24"><path d="M5.376,0 C2.416,0 0,2.415 0,5.376 L0,41.333 C0,44.293 2.416,46.709 5.376,46.709 L41.935,46.709 C44.895,46.709 47.31,44.293 47.31,41.333 L47.31,5.376 C47.31,2.415 44.895,0 41.935,0 Z M58.066,0 C55.106,0 52.69,2.415 52.69,5.376 L52.69,41.333 C52.69,44.293 55.106,46.709 58.066,46.709 L94.625,46.709 C97.585,46.709 100,44.293 100,41.333 L100,5.376 C100,2.415 97.585,0 94.625,0 Z M5.376,2.06 L41.935,2.06 C43.789,2.06 45.25,3.521 45.25,5.376 L45.25,41.333 C45.25,43.188 43.789,44.648 41.935,44.648 L5.376,44.648 C3.521,44.648 2.06,43.188 2.06,41.333 L2.06,5.376 C2.06,3.521 3.521,2.06 5.376,2.06 Z M58.066,2.06 L94.625,2.06 C96.479,2.06 97.94,3.521 97.94,5.376 L97.94,41.333 C97.94,43.188 96.479,44.648 94.625,44.648 L58.066,44.648 C56.211,44.648 54.75,43.188 54.75,41.333 L54.75,5.376 C54.75,3.521 56.211,2.06 58.066,2.06 Z M23.656,5.529 C13.824,5.529 5.83,13.522 5.83,23.354 C5.83,33.187 13.824,41.18 23.656,41.18 C33.489,41.18 41.482,33.187 41.482,23.354 C41.482,13.522 33.489,5.529 23.656,5.529 Z M76.346,5.529 C66.514,5.529 58.521,13.522 58.521,23.354 C58.521,33.187 66.514,41.18 76.346,41.18 C86.179,41.18 94.172,33.187 94.172,23.354 C94.172,13.522 86.179,5.529 76.346,5.529 Z M23.656,7.589 C32.376,7.589 39.421,14.635 39.421,23.354 C39.421,32.074 32.376,39.12 23.656,39.12 C14.937,39.12 7.891,32.074 7.891,23.354 C7.891,14.635 14.937,7.589 23.656,7.589 Z M76.346,7.589 C85.066,7.589 92.112,14.635 92.112,23.354 C92.112,32.074 85.066,39.12 76.346,39.12 C67.627,39.12 60.581,32.074 60.581,23.354 C60.581,14.635 67.627,7.589 76.346,7.589 Z M5.376,51.939 C2.416,51.939 0,54.354 0,57.315 L0,93.272 C0,96.232 2.416,98.648 5.376,98.648 L41.935,98.648 C44.895,98.648 47.31,96.232 47.31,93.272 L47.31,57.315 C47.31,54.354 44.895,51.939 41.935,51.939 Z M58.066,51.939 C55.106,51.939 52.69,54.354 52.69,57.315 L52.69,93.272 C52.69,96.232 55.106,98.648 58.066,98.648 L94.625,98.648 C97.585,98.648 100,96.232 100,93.272 L100,57.315 C100,54.354 97.585,51.939 94.625,51.939 Z M5.376,53.999 L41.935,53.999 C43.789,53.999 45.25,55.46 45.25,57.315 L45.25,93.272 C45.25,95.127 43.789,96.587 41.935,96.587 L5.376,96.587 C3.521,96.587 2.06,95.127 2.06,93.272 L2.06,57.315 C2.06,55.46 3.521,53.999 5.376,53.999 Z M58.066,53.999 L94.625,53.999 C96.479,53.999 97.94,55.46 97.94,57.315 L97.94,93.272 C97.94,95.127 96.479,96.587 94.625,96.587 L58.066,96.587 C56.211,96.587 54.75,95.127 54.75,93.272 L54.75,57.315 C54.75,55.46 56.211,53.999 58.066,53.999 Z M23.656,57.468 C13.824,57.468 5.83,65.461 5.83,75.293 C5.83,85.126 13.824,93.119 23.656,93.119 C33.489,93.119 41.482,85.126 41.482,75.293 C41.482,65.461 33.489,57.468 23.656,57.468 Z M76.346,57.468 C66.514,57.468 58.521,65.461 58.521,75.293 C58.521,85.126 66.514,93.119 76.346,93.119 C86.179,93.119 94.172,85.126 94.172,75.293 C94.172,65.461 86.179,57.468 76.346,57.468 Z M23.656,59.528 C32.376,59.528 39.421,66.574 39.421,75.293 C39.421,84.013 32.376,91.059 23.656,91.059 C14.937,91.059 7.891,84.013 7.891,75.293 C7.891,66.574 14.937,59.528 23.656,59.528 Z M76.346,59.528 C85.066,59.528 92.112,66.574 92.112,75.293 C92.112,84.013 85.066,91.059 76.346,91.059 C67.627,91.059 60.581,84.013 60.581,75.293 C60.581,66.574 67.627,59.528 76.346,59.528 Z" fill="none" stroke="currentColor" stroke-width="1.5"/></svg>