<svg xmlns="http://www.w3.org/2000/svg" viewBox="0 0 100.0 100.0" width="24" height="24"><path d="M49.999,0 C22.397,0 0,22.398 0,50 C0,77.602 22.397,100 49.999,100 C77.602,100 100,77.602 100,50 C100,22.398 77.602,0 49.999,0 Z M49.999,2.016 C76.512,2.016 97.984,23.487 97.984,50 C97.984,76.513 76.512,97.984 49.999,97.984 C23.487,97.984 2.016,76.513 2.016,50 C2.016,23.487 23.487,2.016 49.999,2.016 Z M22.987,25.053 C19.367,25.053 16.422,27.998 16.422,31.617 L16.422,45.813 C16.422,49.432 19.367,52.375 22.987,52.375 L43.176,52.375 L22.987,50.375 C20.441,50.375 18.422,48.358 18.422,45.813 L18.422,31.617 C18.422,29.071 20.441,27.053 22.987,27.053 L77.071,27.053 C79.616,27.053 81.635,29.071 81.635,31.617 L81.635,41.838 L83.635,31.617 C83.635,27.998 80.69,25.053 77.071,25.053 Z M33.172,36.381 C31.819,36.381 30.701,37.499 30.701,38.852 C30.701,40.204 31.819,41.323 33.172,41.323 C34.525,41.323 35.643,40.204 35.643,38.852 C35.643,37.499 34.525,36.381 33.172,36.381 Z M46.654,36.381 C45.302,36.381 44.184,37.499 44.184,38.852 C44.184,40.204 45.302,41.323 46.654,41.323 C48.007,41.323 49.125,40.204 49.125,38.852 C49.125,37.499 48.007,36.381 46.654,36.381 Z M33.172,38.381 C33.444,38.381 33.643,38.58 33.643,38.852 C33.643,39.124 33.444,39.323 33.172,39.323 C32.9,39.323 32.701,39.124 32.701,38.852 C32.701,38.58 32.9,38.381 33.172,38.381 Z M46.654,38.381 C46.926,38.381 47.125,38.58 47.125,38.852 C47.125,39.124 46.926,39.323 46.654,39.323 C46.383,39.323 46.184,39.124 46.184,38.852 C46.184,38.58 46.383,38.381 46.654,38.381 Z M65.703,39.023 C55.774,39.023 47.704,47.093 47.704,57.022 C47.704,66.951 55.774,75.022 65.703,75.022 C75.632,75.022 83.701,66.951 83.701,57.022 C83.701,47.093 75.632,39.023 65.703,39.023 Z M65.703,41.024 C74.552,41.024 81.701,48.174 81.701,57.022 C81.701,65.87 74.552,73.022 65.703,73.022 C56.855,73.022 49.703,65.87 49.703,57.022 C49.703,48.174 56.855,41.024 65.703,41.024 Z M73.348,51.059 L64.056,62.613 C63.723,62.951 63.514,63.011 63.303,63.002 C63.089,62.994 62.779,62.873 62.41,62.551 C62.408,62.55 62.408,62.551 62.406,62.549 L58.186,58.358 L61.043,64.012 C61.689,64.58 62.407,64.97 63.225,65.002 C64.042,65.034 64.869,64.657 65.508,63.998 L74.088,52.66 Z" fill="none" stroke="currentColor" stroke-width="1.5"/></svg>