<svg xmlns="http://www.w3.org/2000/svg" viewBox="0 0 100.0 100.0" width="24" height="24"><path d="M49.999,0 C22.397,0 0,22.398 0,50 C0,77.602 22.397,100 49.999,100 C77.602,100 100,77.602 100,50 C100,22.398 77.602,0 49.999,0 Z M49.999,2.016 C76.512,2.016 97.984,23.487 97.984,50 C97.984,76.513 76.512,97.984 49.999,97.984 C23.487,97.984 2.016,76.513 2.016,50 C2.016,23.487 23.487,2.016 49.999,2.016 Z M22.687,29.807 L21.688,69.057 L60.705,70.057 L61.705,55.953 L77.121,65.668 L78.655,34.991 L61.705,43.891 L61.705,30.807 Z M23.687,31.807 L59.705,31.807 L59.705,45.707 L76.654,36.807 L76.654,63.01 L61.239,53.295 L59.705,68.057 L23.687,68.057 Z" fill="none" stroke="currentColor" stroke-width="1.5"/></svg>