<svg xmlns="http://www.w3.org/2000/svg" viewBox="0 0 100.0 100.0" width="24" height="24"><path d="M49.999,0 C22.397,0 0,22.398 0,50 C0,77.602 22.397,100 49.999,100 C77.602,100 100,77.602 100,50 C100,22.398 77.602,0 49.999,0 Z M49.999,2.016 C76.512,2.016 97.984,23.487 97.984,50 C97.984,76.513 76.512,97.984 49.999,97.984 C23.487,97.984 2.016,76.513 2.016,50 C2.016,23.487 23.487,2.016 49.999,2.016 Z M50,26.059 L48.972,32.385 L47.666,32.351 L48.272,38.589 L52.436,26.183 Z M44.148,26.799 L42.988,33.823 L41.748,34.233 L44.426,39.9 Z M56.733,27.026 L55.03,33.111 L53.815,32.629 L52.234,38.678 L60.436,28.455 Z M36.582,30.176 L37.925,37.215 L36.9,38.025 L41.323,42.402 Z M64.199,30.726 L60.511,35.846 L59.536,34.976 L55.964,40.119 L67.189,33.336 Z M30.633,35.952 L34.237,42.078 L33.548,43.189 L39.243,45.822 Z M69.925,36.73 L64.788,40.263 L64.164,39.115 L59.013,42.791 L71.838,40.192 Z M26.987,43.447 L32.492,47.957 L32.228,49.237 L38.468,49.743 Z M73.26,44.337 L67.13,45.896 L66.942,44.603 L60.914,46.247 L73.877,48.26 Z M61.534,50.213 L73.035,56.471 L67.572,51.989 L67.832,50.708 Z M38.479,50.556 L26.123,51.732 L32.874,54.083 L33.065,55.376 L39.083,53.722 Z M60.767,54.151 L69.403,64 L65.797,57.89 L66.484,56.778 Z M39.368,54.474 L28.178,59.811 L35.305,59.714 L35.927,60.863 L41.016,57.242 Z M58.691,57.582 L63.467,69.793 L62.162,62.826 L63.186,62.014 Z M41.554,57.865 L32.848,66.683 L39.506,64.18 L40.482,65.049 L44.057,59.887 Z M55.601,60.085 L55.882,73.192 L57.035,66.151 L58.276,65.741 Z M44.751,60.271 L39.571,71.549 L44.996,66.877 L46.21,67.361 L47.799,61.322 Z M51.775,61.402 L47.576,73.803 L51.057,67.614 L52.364,67.651 Z" fill="none" stroke="currentColor" stroke-width="1.5"/></svg>