<svg xmlns="http://www.w3.org/2000/svg" viewBox="0 0 100.0 100.0" width="24" height="24"><path d="M49.999,0 C22.397,0 0,22.398 0,50 C0,77.602 22.397,100 49.999,100 C77.602,100 100,77.602 100,50 C100,22.398 77.602,0 49.999,0 Z M49.999,2.016 C76.512,2.016 97.984,23.487 97.984,50 C97.984,76.513 76.512,97.984 49.999,97.984 C23.487,97.984 2.016,76.513 2.016,50 C2.016,23.487 23.487,2.016 49.999,2.016 Z M50.911,15.989 C40.454,15.989 31.108,24.866 31.108,36.795 L31.164,45.692 L27.527,45.692 C25.048,45.692 23.022,47.718 23.022,50.197 L23.022,79.807 C23.022,82.286 25.048,84.313 27.527,84.313 L72.352,84.313 C74.831,84.313 76.858,82.286 76.858,79.807 L76.858,50.197 C76.858,47.718 74.831,45.692 72.352,45.692 L70.09,45.692 L70.09,36.908 C70.09,25.854 61.959,15.989 50.911,15.989 Z M50.911,17.989 C60.766,17.989 68.09,26.83 68.09,36.908 L68.09,45.692 L33.164,45.692 L33.108,36.789 C33.111,25.905 41.587,17.989 50.911,17.989 Z M27.527,47.692 L72.352,47.692 C73.757,47.692 74.857,48.792 74.857,50.197 L74.857,79.807 C74.857,81.213 73.757,82.313 72.352,82.313 L27.527,82.313 C26.122,82.313 25.022,81.213 25.022,79.807 L25.022,50.197 C25.022,48.792 26.122,47.692 27.527,47.692 Z M50.705,56.448 C49.386,56.448 48.208,57.03 47.432,57.959 C46.659,58.884 46.262,60.116 46.258,61.453 C46.258,61.454 46.258,61.454 46.258,61.455 C46.25,61.95 46.333,62.57 46.596,63.234 C46.785,63.711 47.14,64.182 47.6,64.584 L47.572,67.537 C47.572,68.568 48.011,69.435 48.606,70.007 C49.2,70.578 49.927,70.909 50.699,70.909 C51.587,70.909 52.3,70.43 52.825,69.821 C53.349,69.212 53.715,68.413 53.715,67.514 L53.668,64.518 C54.035,64.218 54.343,63.861 54.555,63.442 C54.885,62.788 55.073,62.028 55.073,61.239 C55.073,60.043 54.603,58.897 53.844,58.004 C53.084,57.111 51.981,56.448 50.705,56.448 Z M50.705,58.448 C51.28,58.448 51.859,58.757 52.32,59.299 C52.781,59.841 53.072,60.59 53.072,61.239 C53.072,61.697 52.948,62.189 52.77,62.541 C52.592,62.894 52.36,63.061 52.332,63.071 L51.715,67.514 C51.715,67.835 51.553,68.233 51.309,68.516 C51.065,68.798 50.77,68.908 50.699,68.908 C50.576,68.908 50.238,68.801 49.992,68.565 C49.747,68.329 49.573,68.016 49.573,67.547 L49.604,64.155 C48.809,63.131 48.601,62.867 48.455,62.498 C48.309,62.129 48.253,61.676 48.256,61.488 C48.256,60.523 48.54,59.75 48.967,59.24 C49.394,58.73 49.939,58.448 50.705,58.448 Z" fill="none" stroke="currentColor" stroke-width="1.5"/></svg>