<svg xmlns="http://www.w3.org/2000/svg" viewBox="0 0 100.0 100.0" width="24" height="24"><path d="M49.999,0 C22.397,0 0,22.398 0,50 C0,77.602 22.397,100 49.999,100 C77.602,100 100,77.602 100,50 C100,22.398 77.602,0 49.999,0 Z M49.999,2.016 C76.512,2.016 97.984,23.487 97.984,50 C97.984,76.513 76.512,97.984 49.999,97.984 C23.487,97.984 2.016,76.513 2.016,50 C2.016,23.487 23.487,2.016 49.999,2.016 Z M62.541,19.407 C53.789,19.407 45.367,26.191 45.367,36.016 C45.367,38.28 45.841,40.152 46.504,41.631 L22.065,65.391 C20.668,66.612 19.789,68.135 19.825,69.993 L19.852,77.494 C19.904,79.233 21.29,80.758 23.102,80.637 L26.848,80.356 C27.779,80.258 28.487,79.746 28.946,79.164 C29.405,78.583 29.676,77.933 29.676,77.225 L29.592,75.664 L29.592,75.662 C29.593,75.079 29.872,74.667 30.385,74.654 L33.86,74.732 L38.867,70.277 L39.147,66.473 C39.143,65.957 39.256,65.667 39.36,65.543 C39.464,65.419 39.612,65.306 40.159,65.309 L43.622,65.233 L48.655,60.648 L48.936,56.441 C48.942,56.24 49.04,55.994 49.172,55.844 C49.304,55.693 49.417,55.649 49.524,55.652 L53.338,55.707 L56.956,52.547 C58.414,52.921 60.136,53.353 62.475,53.353 C73.051,53.353 80.11,45.014 80.11,36.744 C80.11,26.784 72.134,19.406 62.541,19.406 Z M62.541,21.406 C71.12,21.406 78.109,27.843 78.109,36.745 C78.109,43.875 72.002,51.354 62.475,51.354 C60.132,51.354 58.483,50.883 56.891,50.479 L52.948,53.702 L49.584,53.653 C48.799,53.629 48.115,54.015 47.668,54.526 C47.221,55.036 46.957,55.682 46.936,56.381 L46.95,59.52 L43.18,63.241 L40.168,63.309 C39.23,63.305 38.363,63.62 37.828,64.256 C37.294,64.892 37.141,65.692 37.147,66.486 L37.168,69.143 L33.485,72.725 L30.387,72.654 C28.676,72.692 27.592,74.193 27.592,75.664 L27.676,77.227 C27.675,77.315 27.576,77.669 27.375,77.924 C27.173,78.179 26.927,78.336 26.666,78.364 L22.961,78.643 L22.969,78.641 C22.531,78.67 21.868,78.002 21.852,77.461 L21.841,74.347 L50.391,46.065 L21.83,71.541 L21.825,69.969 C21.8,68.678 22.242,67.893 23.381,66.897 L48.356,42.621 C47.908,40.297 47.367,38.339 47.367,36.016 C47.367,27.334 54.818,21.406 62.541,21.406 Z M67.776,25.455 C64.97,25.455 62.676,27.749 62.676,30.555 C62.676,33.36 64.97,35.656 67.776,35.656 C70.581,35.656 72.877,33.36 72.877,30.555 C72.877,27.749 70.581,25.455 67.776,25.455 Z M67.776,27.455 C69.5,27.455 70.877,28.83 70.877,30.555 C70.877,32.279 69.5,33.656 67.776,33.656 C66.051,33.656 64.676,32.279 64.676,30.555 C64.676,28.83 66.051,27.455 67.776,27.455 Z" fill="none" stroke="currentColor" stroke-width="1.5"/></svg>