<svg xmlns="http://www.w3.org/2000/svg" viewBox="0 0 100.0 100.0" width="24" height="24"><path d="M49.999,0 C22.397,0 0,22.398 0,50 C0,77.602 22.397,100 49.999,100 C77.602,100 100,77.602 100,50 C100,22.398 77.602,0 49.999,0 Z M49.999,2.016 C76.512,2.016 97.984,23.487 97.984,50 C97.984,76.513 76.512,97.984 49.999,97.984 C23.487,97.984 2.016,76.513 2.016,50 C2.016,23.487 23.487,2.016 49.999,2.016 Z M22.065,21.075 C13.093,29.587 9.307,40.794 9.307,49.11 C9.307,60.925 12.408,68.829 21.502,78.615 C14.076,67.686 11.307,60.589 11.307,49.11 C11.307,41.411 14.93,30.588 22.91,22.779 Z M77.935,21.075 C85.07,30.588 88.693,41.411 88.693,49.11 C88.693,60.589 85.925,67.686 77.033,77.254 C87.592,68.829 90.694,60.925 90.694,49.11 C90.694,40.794 86.907,29.587 78.488,21.35 Z M27.39,26.413 L26.834,26.684 C20.374,32.915 16.965,41.821 16.965,49.281 C16.965,57.593 19.268,65.583 26.912,73.299 C21.026,64.517 18.965,57.235 18.965,49.282 C18.965,42.441 22.202,33.932 28.223,28.123 Z M72.61,26.413 C77.799,33.932 81.033,42.44 81.033,49.281 C81.033,57.235 78.972,64.517 71.666,71.893 C80.732,65.582 83.034,57.593 83.034,49.281 C83.034,41.821 79.626,32.915 73.167,26.684 L73.166,26.684 Z M32.908,31.522 C27.295,37.024 24.699,42.979 24.699,49.285 C24.699,55.708 27.094,62.918 32.219,68.178 C28.952,61.957 26.699,55.206 26.699,49.285 C26.699,43.522 29.028,38.103 33.662,33.209 Z M67.092,31.522 C70.972,38.103 73.301,43.522 73.301,49.285 C73.301,55.206 71.048,61.956 66.348,66.781 C72.906,62.918 75.301,55.708 75.301,49.285 C75.301,42.978 72.706,37.024 67.791,31.834 Z M38.314,36.928 C34.53,40.416 32.351,44.591 32.351,49.283 C32.351,54.023 33.871,59.017 37.612,62.778 C35.723,58.042 34.352,53.597 34.352,49.283 C34.352,45.211 36.245,41.517 39.049,38.623 Z M61.684,36.928 C63.755,41.517 65.649,45.211 65.649,49.283 C65.649,53.597 64.278,58.043 60.971,61.367 C66.129,59.017 67.648,54.023 67.648,49.283 C67.648,44.591 65.47,40.415 62.387,37.232 Z M43.67,43.123 C41.447,44.632 40.075,46.952 40.075,49.256 C40.075,52.211 41.34,54.865 42.899,56.555 C43.169,53.898 42.074,51.619 42.074,49.256 C42.074,47.891 43.288,45.712 44.287,44.899 Z M56.33,43.123 C56.712,45.712 57.926,47.891 57.926,49.256 C57.926,51.619 56.832,53.898 55.631,55.199 C58.66,54.865 59.926,52.211 59.926,49.256 C59.926,46.952 58.554,44.632 56.977,43.348 Z M50,47.574 C48.672,47.574 47.574,48.672 47.574,50 C47.574,51.328 48.672,52.426 50,52.426 C51.328,52.426 52.426,51.328 52.426,50 C52.426,48.672 51.328,47.574 50,47.574 Z M50,49.574 C50.247,49.574 50.426,49.753 50.426,50 C50.426,50.247 50.247,50.426 50,50.426 C49.753,50.426 49.574,50.247 49.574,50 C49.574,49.753 49.753,49.574 50,49.574 Z" fill="none" stroke="currentColor" stroke-width="1.5"/></svg>