<svg xmlns="http://www.w3.org/2000/svg" viewBox="0 0 70.082 100.0" width="24" height="24"><path d="M35.041,0 C15.7,0 0,15.701 0,35.041 C0,54.035 15.143,69.517 34.005,70.065 L34.005,98.964 L36.076,70.065 C54.938,69.517 70.082,54.035 70.082,35.041 C70.082,15.701 54.381,0 35.041,0 Z M35.041,2.071 C53.262,2.071 68.011,16.82 68.011,35.041 C68.011,53.263 53.262,68.011 35.041,68.011 C16.82,68.011 2.071,53.263 2.071,35.041 C2.071,16.82 16.82,2.071 35.041,2.071 Z M35.041,20.014 C26.729,20.014 19.971,26.772 19.971,35.084 C19.971,43.395 26.729,50.156 35.041,50.156 C43.352,50.156 50.113,43.395 50.113,35.084 C50.113,26.772 43.352,20.014 35.041,20.014 Z M35.041,22.085 C42.233,22.085 48.042,27.892 48.042,35.084 C48.042,42.276 42.233,48.085 35.041,48.085 C27.849,48.085 22.042,42.276 22.042,35.084 C22.042,27.892 27.849,22.085 35.041,22.085 Z" fill="none" stroke="currentColor" stroke-width="1.5"/></svg>