<svg xmlns="http://www.w3.org/2000/svg" viewBox="0 0 100.0 85.915" width="24" height="24"><path d="M6.402,0 C2.87,0 0,2.87 0,6.402 L0,79.513 C0,83.044 2.87,85.915 6.402,85.915 L93.598,85.915 C97.13,85.915 100,83.044 100,79.513 L100,6.402 C100,2.87 97.13,0 93.598,0 Z M6.402,1.771 L93.598,1.771 C96.179,1.771 98.229,3.821 98.229,6.402 L98.229,79.513 C98.229,82.094 96.179,84.144 93.598,84.144 L6.402,84.144 C3.821,84.144 1.771,82.094 1.771,79.513 L1.771,6.402 C1.771,3.821 3.821,1.771 6.402,1.771 Z M55.38,6.859 C53.858,6.859 52.606,8.111 52.606,9.632 L52.606,9.961 C52.606,11.483 53.858,12.735 55.38,12.735 L91.476,12.735 C92.998,12.735 94.252,11.483 94.252,9.961 L94.252,9.632 C94.252,8.111 92.998,6.859 91.476,6.859 Z M9.231,6.907 C7.274,6.907 5.67,8.513 5.67,10.469 C5.67,12.426 7.274,14.03 9.231,14.03 C11.188,14.03 12.794,12.426 12.794,10.469 C12.794,8.513 11.188,6.907 9.231,6.907 Z M18.962,6.907 C17.006,6.907 15.4,8.513 15.4,10.469 C15.4,12.426 17.006,14.03 18.962,14.03 C20.919,14.03 22.523,12.426 22.523,10.469 C22.523,8.513 20.919,6.907 18.962,6.907 Z M28.691,6.907 C26.735,6.907 25.129,8.513 25.129,10.469 C25.129,12.426 26.735,14.03 28.691,14.03 C30.648,14.03 32.252,12.426 32.252,10.469 C32.252,8.513 30.648,6.907 28.691,6.907 Z M55.38,8.629 L91.476,8.629 C92.048,8.629 92.481,9.061 92.481,9.632 L92.481,9.961 C92.481,10.532 92.048,10.964 91.476,10.964 L55.38,10.964 C54.809,10.964 54.377,10.532 54.377,9.961 L54.377,9.632 C54.377,9.061 54.809,8.629 55.38,8.629 Z M9.231,8.678 C10.231,8.678 11.023,9.47 11.023,10.469 C11.023,11.469 10.231,12.259 9.231,12.259 C8.232,12.259 7.442,11.469 7.442,10.469 C7.442,9.47 8.232,8.678 9.231,8.678 Z M18.962,8.678 C19.962,8.678 20.752,9.47 20.752,10.469 C20.752,11.469 19.962,12.259 18.962,12.259 C17.963,12.259 17.17,11.469 17.17,10.469 C17.17,9.47 17.963,8.678 18.962,8.678 Z M28.691,8.678 C29.691,8.678 30.481,9.47 30.481,10.469 C30.481,11.469 29.691,12.259 28.691,12.259 C27.692,12.259 26.9,11.469 26.9,10.469 C26.9,9.47 27.692,8.678 28.691,8.678 Z M9.128,19.26 C8.158,19.26 7.351,20.068 7.351,21.037 L7.351,77.32 C7.351,78.289 8.158,79.098 9.128,79.098 L91.284,79.098 C92.253,79.098 93.06,78.289 93.06,77.32 L93.06,21.037 C93.06,20.068 92.253,19.26 91.284,19.26 Z M9.118,21.027 C9.117,21.027 9.118,21.031 9.128,21.031 L91.284,21.031 C91.303,21.031 91.289,21.019 91.289,21.038 L91.289,77.321 C91.289,77.339 91.303,77.328 91.284,77.328 L9.128,77.328 C9.109,77.328 9.123,77.34 9.123,77.321 L9.123,21.038 C9.123,21.029 9.119,21.027 9.118,21.027 Z M51.01,32.196 C45.681,32.196 41.979,36.725 41.979,41.566 L41.979,44.44 L39.98,44.44 C38.524,44.44 37.324,45.64 37.324,47.097 L37.324,62.116 C37.324,63.572 38.524,64.772 39.98,64.772 L62.258,64.772 C63.714,64.772 64.914,63.572 64.914,62.116 L64.914,47.097 C64.914,45.64 63.714,44.44 62.258,44.44 L60.156,44.44 L60.156,41.566 C60.156,39.456 59.396,37.159 57.869,35.337 C56.341,33.515 53.998,32.196 51.01,32.196 Z M51.01,33.968 C53.49,33.968 55.277,35.001 56.513,36.475 C57.748,37.949 58.386,39.891 58.386,41.566 L58.386,44.44 L43.751,44.44 L43.751,41.566 C43.751,37.615 46.68,33.968 51.01,33.968 Z M39.98,46.211 L62.258,46.211 C62.764,46.211 63.143,46.59 63.143,47.097 L63.143,62.116 C63.143,62.622 62.764,63.001 62.258,63.001 L39.98,63.001 C39.474,63.001 39.095,62.622 39.095,62.116 L39.095,47.097 C39.095,46.59 39.474,46.211 39.98,46.211 Z M51.06,51.474 C49.504,51.474 48.222,52.755 48.222,54.311 C48.222,55.167 48.61,55.94 49.217,56.462 L49.217,57.209 C49.202,58.277 50.094,59.01 51.06,59.01 C52.094,59.01 52.919,58.145 52.905,57.145 L52.905,56.46 C53.511,55.938 53.898,55.166 53.898,54.311 C53.898,52.755 52.617,51.474 51.06,51.474 Z M51.06,53.244 C51.66,53.244 52.127,53.712 52.127,54.311 C52.127,54.911 51.66,55.378 51.06,55.378 C50.461,55.378 49.993,54.911 49.993,54.311 C49.993,53.712 50.461,53.244 51.06,53.244 Z" fill="none" stroke="currentColor" stroke-width="1.5"/></svg>