<svg xmlns="http://www.w3.org/2000/svg" viewBox="0 0 86.028 101.31" width="24" height="24"><path d="M42.863,1.311 C34.227,1.251 25.636,4.395 18.266,10.934 C33.678,0 51.96,0.466 66.415,12.49 C60.178,4.635 51.499,1.371 42.863,1.311 Z M43.092,18.719 C38.082,18.728 32.897,20.548 28.163,24.444 C38.583,18.525 48.912,19.321 56.369,26.046 C53.686,20.866 48.735,18.834 43.576,18.723 C43.415,18.72 43.253,18.718 43.092,18.718 Z M5.327,18.739 C2.394,18.739 0,21.132 0,24.064 L0,78.639 C0,81.571 2.394,83.963 5.327,83.963 L36.178,83.963 C35.423,90.414 33.8,95.043 30.796,99.26 L24.662,99.26 L61.209,101.31 L55.151,99.26 C52.396,95.016 50.167,90.107 49.849,83.963 L80.704,83.963 C83.636,83.963 86.028,81.571 86.028,78.639 L86.028,24.064 C86.028,21.132 83.636,18.739 80.704,18.739 L72.887,18.739 L80.704,20.79 C82.536,20.79 83.978,22.232 83.978,24.064 L83.978,68.793 L2.05,68.793 L2.05,24.064 C2.05,22.232 3.495,20.79 5.327,20.79 L12.838,20.79 Z M43.009,34.098 C39.509,34.098 36.652,36.957 36.652,40.457 C36.652,43.957 39.509,46.815 43.009,46.815 C46.509,46.815 49.369,43.957 49.369,40.457 C49.369,36.957 46.509,34.098 43.009,34.098 Z M43.009,36.149 C45.401,36.149 47.318,38.066 47.318,40.457 C47.318,42.849 45.401,44.765 43.009,44.765 C40.618,44.765 38.702,42.849 38.702,40.457 C38.702,38.066 40.618,36.149 43.009,36.149 Z M2.05,70.844 L83.978,70.844 L83.978,78.639 C83.978,80.471 82.536,81.913 80.704,81.913 L5.327,81.913 C3.495,81.913 2.05,80.471 2.05,78.639 Z M38.242,83.963 L47.795,83.963 C48.091,90.049 50.156,95.036 52.728,99.26 L33.272,99.26 C36.012,94.991 37.535,90.183 38.242,83.963 Z" fill="none" stroke="currentColor" stroke-width="1.5"/></svg>