<svg xmlns="http://www.w3.org/2000/svg" viewBox="0 0 100.0 69.102" width="24" height="24"><path d="M65.877,0 C49.564,0.275 36.918,10.395 33.668,22.211 C28.522,19.611 23.776,19.081 18.728,19.702 L18.726,19.702 C6.726,21.193 0,30.758 0,38.19 C0,44.313 2.897,49.066 6.781,52.262 C10.666,55.458 15.516,57.173 19.706,57.435 L19.836,55.353 C16.122,55.121 11.609,53.533 8.106,50.65 C4.603,47.768 2.087,43.664 2.087,38.19 C2.087,32.052 7.982,23.139 18.983,21.772 C24.122,21.14 28.55,21.616 33.782,24.554 C34.394,24.897 35.164,24.551 35.313,23.865 C37.742,12.669 49.909,2.36 65.906,2.087 C86.15,2.092 97.913,15.68 97.913,28.705 C97.913,35.841 94.795,41.701 90.52,46.02 C86.246,50.34 80.795,53.068 76.39,53.837 L76.748,55.893 C81.678,55.032 87.419,52.12 92.004,47.488 C96.589,42.855 100,36.451 100,28.705 C100,14.421 87.086,0 65.896,0 C65.89,0 65.884,0 65.878,0 Z M62.201,35.455 C59.869,35.455 57.957,37.368 57.957,39.701 C57.957,40.503 58.183,41.256 58.575,41.898 L53.382,47.948 C52.862,47.719 52.289,47.592 51.688,47.592 C50.453,47.592 49.336,48.128 48.558,48.978 L45.217,46.566 C45.285,46.267 45.321,45.957 45.321,45.639 C45.321,43.306 43.409,41.394 41.076,41.394 C38.744,41.394 36.83,43.306 36.83,45.639 C36.83,47.971 38.744,49.885 41.076,49.885 C42.368,49.885 43.53,49.298 44.31,48.378 L47.586,50.744 C47.492,51.094 47.441,51.46 47.441,51.838 C47.441,54.17 49.355,56.082 51.688,56.082 C54.02,56.082 55.932,54.17 55.932,51.838 C55.932,50.826 55.572,49.894 54.975,49.162 L59.991,43.319 C60.636,43.716 61.393,43.945 62.201,43.945 C64.534,43.945 66.447,42.034 66.447,39.701 C66.447,37.368 64.534,35.455 62.201,35.455 Z M62.201,37.455 C63.453,37.455 64.448,38.449 64.448,39.701 C64.448,40.953 63.453,41.945 62.201,41.945 C60.949,41.945 59.957,40.953 59.957,39.701 C59.957,38.449 60.949,37.455 62.201,37.455 Z M41.076,43.394 C42.328,43.394 43.32,44.387 43.32,45.639 C43.32,46.89 42.328,47.884 41.076,47.884 C39.825,47.884 38.83,46.89 38.83,45.639 C38.83,44.387 39.825,43.394 41.076,43.394 Z M60.06,46.71 L60.06,56.795 C60.884,55.713 62.254,54.772 64.344,54.426 L64.344,46.71 Z M51.688,49.592 C52.94,49.592 53.932,50.586 53.932,51.838 C53.932,53.089 52.94,54.082 51.688,54.082 C50.436,54.082 49.441,53.089 49.441,51.838 C49.441,50.586 50.436,49.592 51.688,49.592 Z M38.901,52.551 L38.901,69.102 L43.185,69.102 L43.185,52.551 Z M64.522,58.041 C62.726,58.041 61.267,59.507 61.267,61.266 L61.267,63.261 L60.06,63.261 L60.06,69.07 L68.984,69.07 L68.984,63.261 L67.778,63.261 L67.778,61.266 C67.778,59.529 66.34,58.041 64.522,58.041 Z M49.481,58.64 L49.481,68.875 L53.765,68.875 L53.765,58.64 Z M64.522,60.041 C65.299,60.041 65.777,60.584 65.777,61.266 L65.777,63.261 L63.268,63.261 L63.268,61.266 C63.268,60.62 63.814,60.041 64.522,60.041 Z" fill="none" stroke="currentColor" stroke-width="1.5"/></svg>