<svg xmlns="http://www.w3.org/2000/svg" viewBox="0 0 100.0 99.152" width="24" height="24"><path d="M6.195,0 C4.409,0 2.826,0.405 1.688,1.462 C0.55,2.52 0,4.134 0,6.127 L0,92.985 C0,94.771 0.392,96.352 1.472,97.478 C2.552,98.604 4.191,99.117 6.264,99.117 L47.947,99.117 L6.264,97.05 C4.52,97.05 3.545,96.652 2.964,96.046 C2.383,95.441 2.068,94.473 2.068,92.985 L2.068,6.127 C2.068,4.495 2.468,3.561 3.096,2.979 C3.723,2.396 4.72,2.068 6.195,2.068 L60.953,2.068 C62.958,2.068 63.571,2.268 64.841,3.682 L79.922,18.593 C80.656,19.331 80.97,20.282 80.97,21.473 L80.97,34.935 L83.038,21.473 C83.038,19.887 82.56,18.308 81.38,17.127 L66.337,2.256 C64.828,0.598 63.198,0 60.953,0 Z M17.988,21.092 L48.004,23.159 Z M17.964,33.785 L58.621,35.852 Z M17.905,46.48 L58.819,48.547 Z M80.347,46.48 C76.173,46.48 73.066,48.228 71.076,50.449 C69.087,52.67 68.148,55.297 68.148,57.37 L68.148,63.312 L65.075,63.312 C62.127,63.312 59.72,65.719 59.72,68.667 L59.72,93.797 C59.72,96.745 62.127,99.152 65.075,99.152 L94.647,99.152 C97.595,99.152 100,96.745 100,93.797 L100,68.667 C100,65.719 97.595,63.312 94.647,63.312 L91.501,63.312 L91.501,57.864 C91.501,52.445 86.976,46.48 80.347,46.48 Z M80.347,48.547 C85.707,48.547 89.433,53.622 89.433,57.864 L89.433,63.312 L70.216,63.312 L70.216,57.37 C70.216,55.969 70.969,53.668 72.616,51.829 C74.264,49.99 76.738,48.547 80.347,48.547 Z M17.893,59.104 L45.997,61.171 Z M65.075,65.38 L94.647,65.38 C96.485,65.38 97.932,66.829 97.932,68.667 L97.932,93.797 C97.932,95.635 96.485,97.084 94.647,97.084 L65.075,97.084 C63.236,97.084 61.787,95.635 61.787,93.797 L61.787,68.667 C61.787,66.829 63.236,65.38 65.075,65.38 Z M17.824,71.787 L46.09,73.855 Z M79.819,75.22 C76.325,75.22 73.471,78.074 73.471,81.568 C73.471,85.062 76.325,87.917 79.819,87.917 C83.314,87.917 86.168,85.062 86.168,81.568 C86.168,78.074 83.314,75.22 79.819,75.22 Z M79.819,77.287 C82.196,77.287 84.1,79.191 84.1,81.568 C84.1,83.945 82.196,85.849 79.819,85.849 C77.443,85.849 75.538,83.945 75.538,81.568 C75.538,79.191 77.443,77.287 79.819,77.287 Z" fill="none" stroke="currentColor" stroke-width="1.5"/></svg>