<svg xmlns="http://www.w3.org/2000/svg" viewBox="0 0 100.0 70.554" width="24" height="24"><path d="M65.877,0 C49.564,0.275 36.918,10.395 33.668,22.211 C28.522,19.611 23.776,19.081 18.728,19.702 L18.726,19.702 C6.726,21.193 0,30.758 0,38.19 C0,44.313 2.897,49.066 6.781,52.262 C10.666,55.458 15.516,57.174 19.706,57.435 L19.836,55.353 C16.122,55.121 11.609,53.533 8.106,50.65 C4.603,47.768 2.087,43.664 2.087,38.19 C2.087,32.052 7.982,23.139 18.983,21.772 C24.122,21.14 28.55,21.616 33.782,24.554 C34.394,24.897 35.164,24.551 35.313,23.865 C37.742,12.669 49.909,2.36 65.906,2.087 C86.15,2.092 97.913,15.68 97.913,28.705 C97.913,35.841 94.795,41.701 90.52,46.02 C86.246,50.34 80.795,53.068 76.39,53.837 L76.748,55.893 C81.678,55.032 87.419,52.12 92.004,47.488 C96.589,42.855 100,36.451 100,28.705 C100,14.421 87.086,0 65.896,0 C65.89,0 65.884,0 65.878,0 Z M29.883,42.496 C29.331,42.496 28.883,42.944 28.883,43.496 L28.883,69.554 C28.883,70.107 29.331,70.554 29.883,70.554 L67.405,70.554 C67.957,70.554 68.404,70.107 68.405,69.554 L68.405,43.496 C68.404,42.944 67.957,42.496 67.405,42.496 Z M30.883,44.496 L66.404,44.496 L66.404,46.99 L30.883,46.99 Z M30.883,48.99 L66.404,48.99 L66.404,68.554 L30.883,68.554 Z M55.853,49.945 C53.339,49.945 51.28,52.005 51.28,54.519 C51.28,56.107 52.101,57.514 53.34,58.335 C52.028,58.623 50.923,59.116 50.043,59.758 C48.593,60.814 47.754,62.306 47.754,63.837 C47.754,64.614 48.089,65.34 48.59,65.879 C49.091,66.418 49.741,66.809 50.483,67.115 C51.965,67.728 53.847,68.006 55.879,68.006 C58.228,68.012 60.18,67.655 61.645,66.963 C63.11,66.27 64.193,65.102 64.193,63.646 C64.193,62.331 63.393,61.027 62.029,59.941 C61.11,59.209 59.903,58.603 58.439,58.286 C59.638,57.459 60.428,56.076 60.428,54.519 C60.428,52.005 58.368,49.945 55.853,49.945 Z M55.853,51.945 C57.287,51.945 58.428,53.086 58.428,54.519 C58.428,55.953 57.287,57.094 55.853,57.094 C54.42,57.094 53.279,55.953 53.279,54.519 C53.279,53.086 54.42,51.945 55.853,51.945 Z M34.574,52.805 C33.034,52.805 31.764,54.077 31.764,55.617 L31.764,62.097 C31.764,63.637 33.034,64.908 34.574,64.908 L42.51,64.908 C44.05,64.908 45.32,63.637 45.32,62.097 L45.32,55.617 C45.32,54.077 44.05,52.805 42.51,52.805 Z M34.574,54.804 L42.51,54.804 C42.977,54.804 43.32,55.15 43.32,55.617 L43.32,56.26 L41.375,56.26 L41.375,55.972 C41.375,55.42 40.927,54.972 40.375,54.972 L36.887,54.972 C36.334,54.972 35.887,55.42 35.887,55.972 L35.887,56.26 L33.764,56.26 L33.764,55.617 C33.764,55.15 34.108,54.804 34.574,54.804 Z M37.887,56.972 L39.375,56.972 L39.375,60.807 L37.887,60.807 Z M33.764,58.259 L35.887,58.259 L35.887,59.479 L33.764,59.479 Z M41.375,58.259 L43.32,58.259 L43.32,59.517 L41.375,59.517 Z M56.141,60.046 C58.249,60.046 59.78,60.708 60.783,61.506 C61.786,62.304 62.194,63.3 62.194,63.646 C62.194,64.13 61.861,64.649 60.791,65.154 C59.721,65.66 58.017,66.011 55.881,66.006 C55.88,66.006 55.879,66.006 55.879,66.006 C54.04,66.006 52.358,65.725 51.246,65.265 C50.69,65.035 50.285,64.763 50.055,64.515 C49.825,64.268 49.754,64.085 49.754,63.837 C49.754,63.033 50.186,62.129 51.221,61.375 C52.255,60.621 53.89,60.046 56.141,60.046 Z M33.764,61.478 L35.887,61.478 L35.887,61.807 C35.887,62.359 36.334,62.806 36.887,62.806 L40.375,62.806 C40.927,62.806 41.375,62.359 41.375,61.807 L41.375,61.517 L43.32,61.517 L43.32,62.097 C43.32,62.564 42.977,62.908 42.51,62.908 L34.574,62.908 C34.107,62.908 33.764,62.564 33.764,62.097 Z" fill="none" stroke="currentColor" stroke-width="1.5"/></svg>