<svg xmlns="http://www.w3.org/2000/svg" viewBox="0 0 83.632 100.0" width="24" height="24"><path d="M41.815,0 C28.273,0 17.273,11 17.273,24.542 C17.273,38.084 28.273,49.084 41.815,49.084 C55.357,49.084 66.357,38.084 66.357,24.542 C66.357,11 55.357,0 41.815,0 Z M41.815,2.06 C54.244,2.06 64.297,12.113 64.297,24.542 C64.297,36.97 54.244,47.023 41.815,47.023 C29.387,47.023 19.334,36.97 19.334,24.542 C19.334,12.113 29.387,2.06 41.815,2.06 Z M41.815,8.061 C32.726,8.061 25.337,15.452 25.337,24.542 C25.337,33.631 32.726,41.02 41.815,41.02 C50.905,41.02 58.296,33.631 58.296,24.542 C58.296,15.452 50.905,8.061 41.815,8.061 Z M41.815,10.121 C49.791,10.121 56.236,16.566 56.236,24.542 C56.236,32.517 49.791,38.96 41.815,38.96 C33.839,38.96 27.397,32.517 27.397,24.542 C27.397,16.566 33.839,10.121 41.815,10.121 Z M41.815,16.148 C37.192,16.148 33.422,19.918 33.422,24.542 C33.422,29.165 37.192,32.935 41.815,32.935 C46.439,32.935 50.208,29.165 50.208,24.542 C50.208,19.918 46.439,16.148 41.815,16.148 Z M41.815,18.208 C45.325,18.208 48.148,21.032 48.148,24.542 C48.148,28.052 45.325,30.875 41.815,30.875 C38.305,30.875 35.482,28.052 35.482,24.542 C35.482,21.032 38.305,18.208 41.815,18.208 Z M5.195,19.637 C2.334,19.637 0,21.971 0,24.831 L0,77.856 C0,80.716 2.334,83.05 5.195,83.05 L34.946,83.05 C34.713,88.732 32.908,93.41 29.919,97.94 L23.854,97.94 L59.776,100 L53.694,97.94 C51.311,94.419 49.144,90.302 48.437,83.05 L78.436,83.05 C81.296,83.05 83.632,80.716 83.632,77.856 L83.632,24.831 C83.632,21.971 81.296,19.637 78.436,19.637 L70.92,19.637 L78.436,21.697 C80.191,21.697 81.572,23.076 81.572,24.831 L81.572,68.423 L2.06,68.23 L2.06,24.831 C2.06,23.076 3.44,21.697 5.195,21.697 L12.674,21.697 Z M2.06,70.29 L81.572,70.483 L81.572,77.856 C81.572,79.611 80.191,80.99 78.436,80.99 L5.195,80.99 C3.44,80.99 2.06,79.611 2.06,77.856 Z M37.007,83.05 L46.366,83.05 C47.018,89.983 49.023,94.424 51.234,97.94 L32.358,97.94 C35.09,93.476 36.786,88.68 37.007,83.05 Z" fill="none" stroke="currentColor" stroke-width="1.5"/></svg>