<svg xmlns="http://www.w3.org/2000/svg" viewBox="0 0 100.0 60.193" width="24" height="24"><path d="M7.517,0 C3.371,0 0,3.372 0,7.518 L0,13.967 C0,16.705 1.472,19.105 3.665,20.42 C1.472,21.734 0,24.133 0,26.872 L0,33.324 C0,36.061 1.471,38.46 3.663,39.774 C1.471,41.089 0,43.488 0,46.226 L0,52.678 C0,56.824 3.371,60.193 7.517,60.193 L44.738,60.193 C44.291,59.56 43.962,58.84 43.783,58.063 L7.517,58.063 C4.515,58.063 2.13,55.681 2.13,52.678 L2.13,46.226 C2.13,43.224 4.515,40.839 7.517,40.839 L43.626,40.839 L43.626,38.709 L7.517,38.709 C4.515,38.709 2.13,36.326 2.13,33.324 L2.13,26.872 C2.13,23.869 4.515,21.484 7.517,21.484 L44.652,21.484 C45.267,20.568 46.124,19.827 47.131,19.355 L7.517,19.355 C4.515,19.355 2.13,16.97 2.13,13.967 L2.13,7.518 C2.13,4.515 4.515,2.13 7.517,2.13 L68.758,2.13 C71.761,2.13 74.143,4.515 74.143,7.518 L74.143,13.967 C74.143,16.092 72.948,17.902 71.187,18.782 L74.521,18.782 C75.613,17.477 76.273,15.799 76.273,13.967 L76.273,7.518 C76.273,3.372 72.904,0 68.758,0 Z M14.698,9.082 C13.781,9.082 13.038,9.825 13.038,10.742 C13.037,11.66 13.781,12.403 14.698,12.404 C15.615,12.403 16.358,11.66 16.358,10.742 C16.358,9.825 15.615,9.082 14.698,9.082 Z M25.965,9.082 C25.048,9.082 24.305,9.825 24.305,10.742 C24.305,11.66 25.048,12.403 25.965,12.404 C26.882,12.404 27.626,11.66 27.626,10.742 C27.626,9.825 26.882,9.082 25.965,9.082 Z M49.731,21.575 C47.907,21.575 46.41,23.071 46.41,24.894 L46.41,56.734 C46.41,58.557 47.907,60.054 49.731,60.054 L96.681,60.054 C98.505,60.054 100,58.557 100,56.734 L100,24.894 C100,23.071 98.505,21.575 96.681,21.575 Z M49.731,23.389 L96.681,23.389 C97.532,23.389 98.187,24.044 98.187,24.894 L98.187,28.048 L48.224,28.048 L48.224,24.894 C48.224,24.044 48.881,23.389 49.731,23.389 Z M14.698,28.437 C13.781,28.437 13.038,29.18 13.038,30.097 C13.038,31.014 13.781,31.757 14.698,31.757 C15.615,31.757 16.358,31.014 16.358,30.097 C16.358,29.18 15.615,28.437 14.698,28.437 Z M25.965,28.437 C25.048,28.437 24.305,29.18 24.305,30.097 C24.305,31.014 25.048,31.757 25.965,31.757 C26.882,31.757 27.626,31.014 27.626,30.097 C27.626,29.18 26.882,28.437 25.965,28.437 Z M48.224,29.862 L98.187,29.862 L98.187,56.734 C98.187,57.584 97.532,58.241 96.681,58.241 L49.731,58.241 C48.881,58.241 48.224,57.584 48.224,56.734 Z M83.129,31.992 C79.795,31.992 77.074,34.715 77.074,38.049 C77.074,40.423 78.453,42.485 80.451,43.477 C77.945,43.974 76.075,45.087 74.779,46.317 C73.903,47.148 73.283,48.025 72.875,48.808 C72.467,49.591 72.248,50.22 72.248,50.849 C72.248,51.917 72.806,52.845 73.573,53.549 C74.339,54.253 75.332,54.793 76.433,55.23 C78.635,56.104 81.286,56.553 83.484,56.553 C85.196,56.553 87.665,56.104 89.833,55.28 C90.917,54.867 91.92,54.365 92.711,53.716 C93.501,53.067 94.129,52.198 94.129,51.143 C94.129,49.432 93.07,47.539 91.228,45.969 C89.877,44.818 88.07,43.868 85.876,43.443 C87.837,42.439 89.186,40.396 89.186,38.049 C89.186,34.715 86.464,31.992 83.129,31.992 Z M83.129,33.806 C85.483,33.806 87.372,35.695 87.372,38.049 C87.372,40.403 85.483,42.291 83.129,42.291 C80.775,42.291 78.888,40.403 78.888,38.049 C78.888,35.695 80.775,33.806 83.129,33.806 Z M53.586,36.464 C51.893,36.464 50.501,37.856 50.501,39.549 L50.501,48.966 C50.501,50.659 51.893,52.049 53.586,52.049 L65.003,52.049 C66.696,52.049 68.088,50.659 68.088,48.966 L68.088,39.549 C68.088,37.856 66.696,36.464 65.003,36.464 Z M53.586,38.278 L58.432,38.278 L58.432,38.848 L57.676,38.848 C56.845,38.848 56.127,39.41 55.885,40.169 L52.315,40.169 L52.315,39.549 C52.315,38.83 52.867,38.278 53.586,38.278 Z M60.245,38.278 L65.003,38.278 C65.722,38.278 66.274,38.83 66.274,39.549 L66.274,40.169 L62.822,40.169 C62.58,39.41 61.861,38.848 61.03,38.848 L60.245,38.848 Z M57.676,40.662 L61.03,40.662 C61.082,40.662 61.096,40.676 61.096,40.727 L61.096,47.7 C61.096,47.751 61.082,47.765 61.03,47.765 L57.676,47.765 C57.624,47.765 57.612,47.751 57.612,47.7 L57.612,40.727 C57.612,40.676 57.624,40.662 57.676,40.662 Z M52.315,41.983 L55.799,41.983 L55.799,43.325 L52.315,43.325 Z M62.909,41.983 L66.274,41.983 L66.274,43.325 L62.909,43.325 Z M83.337,45.017 C86.271,45.017 88.525,46.047 90.052,47.349 C91.58,48.651 92.316,50.273 92.316,51.143 C92.316,51.471 92.113,51.859 91.559,52.313 C91.006,52.768 90.153,53.218 89.188,53.585 C87.257,54.319 84.857,54.74 83.484,54.74 C81.542,54.74 79.028,54.31 77.101,53.546 C76.137,53.164 75.324,52.695 74.8,52.214 C74.277,51.734 74.061,51.302 74.061,50.849 C74.061,50.803 74.167,50.253 74.483,49.646 C74.799,49.039 75.304,48.317 76.026,47.632 C77.469,46.263 79.761,45.017 83.337,45.017 Z M52.315,45.139 L55.799,45.139 L55.799,46.481 L52.315,46.481 Z M62.909,45.139 L66.274,45.139 L66.274,46.481 L62.909,46.481 Z M14.698,47.791 C13.781,47.791 13.037,48.535 13.037,49.452 C13.037,50.368 13.781,51.112 14.698,51.112 C15.615,51.112 16.358,50.368 16.358,49.452 C16.358,48.535 15.615,47.791 14.698,47.791 Z M25.965,47.791 C25.048,47.791 24.305,48.535 24.305,49.452 C24.305,50.368 25.048,51.112 25.965,51.112 C26.882,51.112 27.626,50.369 27.626,49.452 C27.626,48.534 26.882,47.791 25.965,47.791 Z M52.315,48.295 L55.898,48.295 C56.151,49.035 56.858,49.579 57.676,49.579 L58.432,49.579 L58.432,50.236 L53.586,50.236 C52.867,50.236 52.315,49.686 52.315,48.966 Z M62.81,48.295 L66.274,48.295 L66.274,48.966 C66.274,49.686 65.722,50.236 65.003,50.236 L60.245,50.236 L60.245,49.579 L61.03,49.579 C61.848,49.579 62.556,49.035 62.81,48.295 Z" fill="none" stroke="currentColor" stroke-width="1.5"/></svg>