<svg xmlns="http://www.w3.org/2000/svg" viewBox="0 0 91.456 100.0" width="24" height="24"><path d="M5.345,0 C2.543,0 0,2.53 0,5.727 L0,93.884 C0,95.445 0.446,96.95 1.396,98.103 C2.346,99.257 3.827,100 5.591,100 L85.026,100 C87.262,100 88.951,99.351 90.019,98.187 C91.087,97.023 91.456,95.477 91.456,93.933 L91.456,22.221 C91.456,19.648 90.6,18.068 89.209,16.864 L89.229,16.881 L73.138,2.231 C71.053,0.351 69.279,0 66.552,0 Z M5.345,2.084 L66.552,2.084 C69.172,2.084 69.931,2.145 71.738,3.776 L71.736,3.771 L87.825,18.423 C88.976,19.417 89.372,20.012 89.372,22.221 L89.372,93.933 C89.372,95.149 89.09,96.117 88.485,96.776 C87.88,97.435 86.876,97.916 85.027,97.916 L5.591,97.916 C4.377,97.916 3.584,97.483 3.004,96.778 C2.424,96.074 2.084,95.044 2.084,93.884 L2.084,5.727 C2.084,3.684 3.893,2.084 5.345,2.084 Z M45.893,7.57 Z M68.705,27.285 L45.841,51.984 L25.35,28.535 L41.346,57.136 L20.198,81.377 L45.845,62.283 L66.336,85.733 L50.339,57.131 L71.488,32.89 Z" fill="none" stroke="currentColor" stroke-width="1.5"/></svg>