<svg xmlns="http://www.w3.org/2000/svg" viewBox="0 0 100.0 66.381" width="24" height="24"><path d="M8.29,0 C3.718,0 0,3.718 0,8.29 L0,15.403 C0,18.423 1.623,21.069 4.041,22.519 C1.623,23.968 0,26.614 0,29.634 L0,36.75 C0,39.769 1.622,42.414 4.04,43.863 C1.622,45.313 0,47.959 0,50.979 L0,58.094 C0,62.666 3.718,66.381 8.29,66.381 L75.827,66.381 C77.061,66.381 78.231,66.109 79.284,65.624 C78.785,65.02 78.384,64.334 78.092,63.594 C77.396,63.876 76.632,64.033 75.827,64.033 L8.29,64.033 C4.979,64.033 2.349,61.405 2.349,58.094 L2.349,50.979 C2.349,47.667 4.979,45.038 8.29,45.038 L48.522,45.038 L48.522,42.688 L8.29,42.688 C4.979,42.688 2.349,40.061 2.349,36.75 L2.349,29.634 C2.349,26.323 4.979,23.693 8.29,23.693 L75.827,23.693 C79.114,23.693 81.726,26.285 81.764,29.562 C82.425,28.938 83.152,28.385 83.933,27.911 C83.448,25.625 82.02,23.685 80.075,22.519 C82.493,21.069 84.115,18.423 84.115,15.403 L84.115,8.29 C84.115,3.718 80.399,0 75.827,0 Z M8.29,2.349 L75.827,2.349 C79.139,2.349 81.766,4.979 81.766,8.29 L81.766,15.403 C81.766,18.715 79.139,21.344 75.827,21.344 L8.29,21.344 C4.979,21.344 2.349,18.715 2.349,15.403 L2.349,8.29 C2.349,4.979 4.979,2.349 8.29,2.349 Z M16.209,10.016 C15.198,10.016 14.378,10.836 14.378,11.847 C14.377,12.858 15.197,13.678 16.209,13.679 C17.22,13.678 18.04,12.858 18.04,11.847 C18.04,10.836 17.22,10.016 16.209,10.016 Z M28.635,10.016 C27.623,10.016 26.804,10.836 26.804,11.847 C26.803,12.858 27.623,13.678 28.635,13.679 C29.646,13.679 30.467,12.859 30.466,11.847 C30.466,10.835 29.646,10.016 28.635,10.016 Z M90.567,29.533 C85.407,29.533 81.163,33.734 81.163,38.901 L81.163,42.106 L77.479,42.106 L77.479,38.236 C77.479,36.277 75.864,34.665 73.905,34.665 L55.63,34.665 C53.671,34.665 52.057,36.277 52.057,38.236 L52.057,51.603 C52.057,53.562 53.671,55.176 55.63,55.176 L73.905,55.176 C75.864,55.176 77.479,53.562 77.479,51.603 L77.479,48.004 L81.163,48.004 L81.163,60.76 C81.163,63.277 82.951,64.884 84.709,64.884 L96.414,64.884 C97.442,64.884 98.402,64.505 99.048,63.82 C99.694,63.134 100,62.202 100,61.243 L100,38.901 C100,33.73 95.728,29.533 90.567,29.533 Z M16.209,31.36 C15.198,31.36 14.378,32.18 14.378,33.191 C14.378,34.203 15.198,35.022 16.209,35.022 C17.22,35.022 18.04,34.203 18.04,33.191 C18.04,32.18 17.22,31.36 16.209,31.36 Z M28.635,31.36 C27.623,31.36 26.804,32.18 26.804,33.191 C26.804,34.203 27.623,35.022 28.635,35.022 C29.646,35.023 30.466,34.203 30.466,33.191 C30.466,32.18 29.646,31.36 28.635,31.36 Z M90.567,31.882 C94.458,31.882 97.651,35.021 97.651,38.901 C97.651,42.781 94.458,45.923 90.567,45.923 C86.677,45.923 83.511,42.786 83.511,38.901 C83.511,35.017 86.677,31.882 90.567,31.882 Z M90.588,34.222 C87.985,34.222 85.849,36.356 85.849,38.959 C85.849,41.562 87.985,43.698 90.588,43.698 C93.191,43.698 95.325,41.562 95.325,38.959 C95.325,36.356 93.191,34.222 90.588,34.222 Z M90.588,36.571 C91.921,36.571 92.976,37.625 92.976,38.959 C92.976,40.292 91.921,41.349 90.588,41.349 C89.255,41.349 88.198,40.292 88.198,38.959 C88.198,37.625 89.255,36.571 90.588,36.571 Z M55.63,37.014 L73.905,37.014 C74.604,37.014 75.13,37.537 75.13,38.236 L75.13,51.603 C75.13,52.301 74.604,52.827 73.905,52.827 L55.63,52.827 C54.931,52.827 54.405,52.301 54.405,51.603 L54.405,38.236 C54.405,37.537 54.931,37.014 55.63,37.014 Z M55.868,37.424 L54.694,51.226 L73.754,52.401 L74.928,38.599 Z M57.043,39.773 L63.267,39.773 L62.195,45.797 L64.234,46.886 L64.939,48.536 L67.645,48.675 L67.576,45.638 L68.024,45.444 L64.622,39.959 L72.579,39.773 L72.579,50.052 L57.043,50.052 Z M64.771,43.34 L65.482,44.017 Z M77.479,44.455 L81.163,44.455 L81.163,45.654 L77.479,45.654 Z M97.651,45.069 L97.651,61.243 C97.651,61.721 97.516,62.02 97.339,62.209 C97.161,62.397 96.914,62.535 96.414,62.535 L84.709,62.535 C84.314,62.535 83.511,62.269 83.511,60.76 L83.511,45.079 C85.24,47.035 87.769,48.272 90.567,48.272 C93.372,48.272 95.914,47.031 97.651,45.069 Z M92.836,50.63 L91.662,59.883 L95.561,61.058 L96.735,51.804 Z M16.209,52.705 C15.198,52.705 14.378,53.525 14.378,54.536 C14.378,55.547 15.198,56.367 16.209,56.367 C17.22,56.367 18.04,55.547 18.04,54.536 C18.04,53.525 17.22,52.705 16.209,52.705 Z M28.635,52.705 C27.623,52.705 26.804,53.525 26.804,54.536 C26.804,55.547 27.623,56.367 28.635,56.367 C29.646,56.367 30.466,55.547 30.466,54.536 C30.466,53.524 29.646,52.704 28.635,52.705 Z M94.01,52.978 L94.387,52.978 L94.387,58.709 L94.01,58.709 Z" fill="none" stroke="currentColor" stroke-width="1.5"/></svg>