<svg xmlns="http://www.w3.org/2000/svg" viewBox="0 0 100.0 79.759" width="24" height="24"><path d="M65.878,0 C49.565,0.275 36.918,10.395 33.669,22.211 C28.523,19.611 23.777,19.081 18.729,19.702 L18.726,19.702 C6.726,21.193 0,30.758 0,38.19 C0,44.313 2.897,49.066 6.781,52.262 C10.666,55.458 15.516,57.174 19.706,57.436 L19.836,55.353 C16.122,55.121 11.609,53.533 8.106,50.65 C4.603,47.768 2.087,43.664 2.087,38.19 C2.087,32.052 7.982,23.139 18.983,21.772 C24.122,21.14 28.55,21.616 33.782,24.554 C34.394,24.897 35.164,24.551 35.313,23.865 C37.742,12.669 49.909,2.36 65.906,2.087 C86.15,2.092 97.913,15.68 97.913,28.705 C97.913,35.841 94.796,41.701 90.521,46.02 C86.246,50.34 80.795,53.068 76.39,53.837 L76.748,55.893 C81.678,55.033 87.419,52.12 92.004,47.488 C96.589,42.855 100,36.451 100,28.705 C100,14.421 87.086,0 65.896,0 C65.89,0 65.884,0 65.878,0 Z M49.137,30.339 C45.987,30.327 42.849,30.777 40.733,31.9 L28.34,38.412 C27.937,38.607 27.518,38.947 27.338,39.396 C27.158,39.845 27.198,40.17 27.198,40.474 L27.198,51.796 C27.198,55.929 30.043,60.505 32.405,63.027 L32.405,74.364 L30.768,74.364 C29.418,74.364 28.299,75.483 28.299,76.833 L28.299,77.29 C28.299,78.641 29.418,79.759 30.768,79.759 L67.342,79.759 C68.692,79.759 69.811,78.641 69.811,77.29 L69.811,76.833 C69.811,75.483 68.692,74.364 67.342,74.364 L65.694,74.364 L65.694,63.066 C68.505,60.21 70.911,55.325 70.911,50.439 L70.911,40.98 C70.911,39.471 69.884,38.366 68.805,37.829 L68.817,37.833 L57.457,32.019 C55.397,30.82 52.289,30.352 49.137,30.339 Z M49.129,32.339 C52.063,32.351 55.004,32.905 56.451,33.747 L67.904,39.615 C68.487,39.903 68.911,40.393 68.911,40.98 L68.911,50.439 C68.911,53.782 67.478,57.371 65.693,59.924 L65.693,56.574 C65.693,56.493 65.69,56.413 65.686,56.332 C66.793,55.2 67.791,53.254 67.791,50.252 L67.696,41.367 L56.676,34.995 C54.469,33.744 51.594,33.254 48.776,33.296 C45.957,33.339 43.201,33.912 41.195,35.058 L30.924,40.486 L30.366,50.023 C30.366,53.415 31.345,55.37 32.405,56.639 L32.405,59.816 C30.761,57.447 29.198,54.198 29.198,51.796 L29.198,40.474 C29.198,40.356 29.203,40.276 29.207,40.215 C29.211,40.213 29.211,40.213 29.216,40.211 L41.663,33.672 C43.213,32.85 46.196,32.328 49.13,32.339 Z M50.039,35.32 C52.172,35.431 54.233,35.91 55.689,36.736 L65.701,41.986 L65.791,50.251 C65.791,52.18 65.353,53.425 64.82,54.243 C64.248,53.685 63.427,53.415 62.541,53.415 L50.039,53.415 Z M48.039,35.325 L48.039,53.415 L35.66,53.415 C34.699,53.415 33.847,53.799 33.255,54.399 C32.735,53.481 32.365,52.2 32.365,50.028 L32.365,50.026 L32.388,41.974 L42.158,36.81 C43.579,35.998 45.757,35.455 48.039,35.325 Z M35.66,55.415 L62.541,55.415 C63.081,55.415 63.302,55.544 63.439,55.688 C63.576,55.833 63.693,56.089 63.693,56.573 L63.693,74.364 L34.404,74.364 L34.404,56.415 C34.404,55.9 34.746,55.415 35.66,55.415 Z M41.066,59.001 C40.123,59.001 39.332,59.792 39.332,60.736 L39.332,62.382 C39.332,63.326 40.123,64.116 41.066,64.116 L42.713,64.116 C43.656,64.116 44.447,63.326 44.447,62.382 L44.447,60.736 C44.447,59.792 43.656,59.001 42.713,59.001 Z M48.57,59.001 C47.627,59.001 46.836,59.792 46.836,60.736 L46.836,62.382 C46.836,63.326 47.627,64.116 48.57,64.116 L50.217,64.116 C51.16,64.116 51.951,63.326 51.951,62.382 L51.951,60.736 C51.951,59.792 51.16,59.001 50.217,59.001 Z M56.072,59.001 C55.129,59.001 54.338,59.792 54.338,60.736 L54.338,62.382 C54.338,63.326 55.129,64.116 56.072,64.116 L57.719,64.116 C58.662,64.116 59.453,63.326 59.453,62.382 L59.453,60.736 C59.453,59.792 58.662,59.001 57.719,59.001 Z M41.332,61.001 L42.447,61.001 L42.447,62.116 L41.332,62.116 Z M48.836,61.001 L49.951,61.001 L49.951,62.116 L48.836,62.116 Z M56.338,61.001 L57.453,61.001 L57.453,62.116 L56.338,62.116 Z M41.066,65.815 C40.123,65.815 39.332,66.606 39.332,67.55 L39.332,69.197 C39.332,70.14 40.123,70.931 41.066,70.931 L42.713,70.931 C43.656,70.931 44.447,70.14 44.447,69.197 L44.447,67.55 C44.447,66.606 43.656,65.815 42.713,65.815 Z M48.57,65.815 C47.627,65.815 46.836,66.606 46.836,67.55 L46.836,69.197 C46.836,70.14 47.627,70.931 48.57,70.931 L50.217,70.931 C51.16,70.931 51.951,70.14 51.951,69.197 L51.951,67.55 C51.951,66.606 51.16,65.815 50.217,65.815 Z M56.072,65.815 C55.129,65.815 54.338,66.606 54.338,67.55 L54.338,69.197 C54.338,70.14 55.129,70.931 56.072,70.931 L57.719,70.931 C58.662,70.931 59.453,70.14 59.453,69.197 L59.453,67.55 C59.453,66.606 58.662,65.815 57.719,65.815 Z M41.332,67.815 L42.447,67.815 L42.447,68.931 L41.332,68.931 Z M48.836,67.815 L49.951,67.815 L49.951,68.931 L48.836,68.931 Z M56.338,67.815 L57.453,67.815 L57.453,68.931 L56.338,68.931 Z M30.768,76.364 L67.342,76.364 C67.619,76.364 67.81,76.556 67.81,76.833 L67.81,77.29 C67.81,77.567 67.619,77.759 67.342,77.759 L30.768,77.759 C30.491,77.759 30.299,77.567 30.299,77.29 L30.299,76.833 C30.299,76.556 30.491,76.364 30.768,76.364 Z" fill="none" stroke="currentColor" stroke-width="1.5"/></svg>