<svg xmlns="http://www.w3.org/2000/svg" viewBox="0 0 100.0 75.469" width="24" height="24"><path d="M58.656,41.499 C56.92,41.53 55.19,42.18 53.829,43.462 L51.024,46.102 C49.468,47.459 47.781,47.192 46.724,46.184 L43.832,43.462 C40.928,40.728 36.343,40.866 33.609,43.77 C30.876,46.673 31.015,51.257 33.919,53.991 L36.613,56.527 C37.664,57.564 37.711,58.655 36.794,59.498 L33.919,62.205 C31.015,64.939 30.875,69.523 33.609,72.426 C36.342,75.33 40.928,75.469 43.831,72.735 L46.939,69.809 C48.09,68.737 49.619,68.633 50.826,69.907 L53.829,72.735 C56.733,75.468 61.317,75.331 64.051,72.428 C66.784,69.524 66.646,64.939 63.742,62.205 L61.093,59.712 C60.045,58.712 60.216,57.281 61.116,56.463 L63.742,53.991 C66.645,51.258 66.784,46.672 64.05,43.769 C62.598,42.226 60.623,41.464 58.656,41.499 Z M62.312,63.725 C64.4,65.691 64.497,68.909 62.531,70.998 C60.566,73.086 57.348,73.181 55.26,71.215 L52.407,68.53 C50.383,66.576 47.468,66.428 45.376,68.415 L42.401,71.216 C40.313,73.182 37.094,73.085 35.128,70.997 C33.162,68.908 33.261,65.691 35.349,63.725 L38.201,61.04 C39.536,59.8 39.81,56.919 38.214,55.169 L35.349,52.471 C33.261,50.506 33.163,47.288 35.128,45.2 C36.173,44.091 37.571,43.544 38.965,43.569 C40.195,43.591 41.423,44.059 42.401,44.981 L45.333,47.741 C47.338,49.575 49.948,49.85 52.361,47.709 L55.26,44.981 C56.238,44.059 57.465,43.591 58.695,43.568 C60.089,43.543 61.486,44.09 62.531,45.199 C64.497,47.287 64.4,50.506 62.311,52.472 L59.589,55.035 C57.518,56.995 57.425,59.327 59.547,61.122 Z M48.831,50.012 C44.377,50.012 40.745,53.645 40.745,58.098 C40.745,62.551 44.377,66.183 48.831,66.183 C53.284,66.183 56.916,62.551 56.916,58.098 C56.916,53.645 53.284,50.012 48.831,50.012 Z M48.831,52.099 C52.156,52.099 54.829,54.772 54.829,58.098 C54.829,61.423 52.156,64.097 48.831,64.097 C45.505,64.097 42.832,61.423 42.832,58.098 C42.832,54.772 45.505,52.099 48.831,52.099 Z M65.878,0 C49.565,0.275 36.918,10.395 33.668,22.211 C28.523,19.611 23.776,19.081 18.728,19.702 C6.726,21.193 0,30.758 0,38.19 C0,44.313 2.896,49.065 6.781,52.262 C10.666,55.458 15.516,57.174 19.706,57.435 L19.837,55.353 C16.122,55.121 11.609,53.532 8.106,50.65 C4.603,47.768 2.087,43.664 2.087,38.19 C2.087,32.051 7.982,23.139 18.983,21.772 C24.122,21.14 28.549,21.615 33.782,24.554 C37.742,12.669 49.909,2.36 65.906,2.087 C86.15,2.092 97.913,15.68 97.913,28.705 C97.913,35.841 94.796,41.701 90.521,46.021 C86.246,50.34 80.795,53.068 76.39,53.837 L76.748,55.893 C81.678,55.032 87.42,52.12 92.004,47.488 C96.589,42.855 100,36.451 100,28.705 C100,14.421 87.086,0 65.896,0 Z" fill="none" stroke="currentColor" stroke-width="1.5"/></svg>