<svg xmlns="http://www.w3.org/2000/svg" viewBox="0 0 97.779 100.905" width="24" height="24"><path d="M69.94,0 C62.936,0 57.722,2.152 52.064,6.354 C58.825,4.103 63.377,2.224 69.941,2.224 C75.554,2.224 80.788,4.405 85.581,8.059 C81.853,2.421 76.132,0 69.94,0 Z M19.866,0.258 C13.53,0.258 8.37,5.418 8.37,11.754 C8.37,18.089 13.53,23.249 19.866,23.249 C26.201,23.249 31.363,18.089 31.363,11.754 C31.363,5.418 26.201,0.258 19.866,0.258 Z M19.866,2.483 C24.999,2.483 29.139,6.62 29.139,11.754 C29.139,16.887 24.999,21.024 19.866,21.024 C14.732,21.024 10.595,16.887 10.595,11.754 C10.595,6.62 14.732,2.483 19.866,2.483 Z M69.689,12.811 C66.002,12.811 62.39,13.861 58.978,16.715 C63.444,15.881 66.405,15.036 69.689,15.036 C72.785,15.036 76.355,16.462 78.603,18.378 C77.352,14.389 73.436,12.811 69.689,12.811 Z M96.614,23.421 L88.13,44.855 C87.739,45.588 87.424,45.999 86.99,46.26 C86.547,46.528 85.86,46.714 84.6,46.714 L65.24,46.714 L84.6,48.938 C86.079,48.938 87.219,48.721 88.139,48.165 C89.059,47.61 89.638,46.774 90.12,45.861 L97.575,24.899 Z M69.581,25.076 Z M19.735,27.658 C19.038,27.671 18.336,27.779 17.657,27.986 C14.94,28.814 12.6,31.433 12.6,35.543 L12.743,68.895 C12.744,71.207 13.487,73.037 14.605,74.303 L8.456,74.303 L2.323,35.083 L6.368,75.352 L0.077,98.555 L8.355,76.527 L19.485,76.527 L32.13,76.527 C34.573,76.484 36.175,77.676 37.449,80.703 L44.214,96.344 C45.92,99.861 50.224,100.905 53.624,99.19 C57.353,97.134 58.583,92.863 57.277,89.867 L57.275,89.862 L49.975,72.854 C48.985,70.295 46.806,67.561 43.819,65.393 C40.833,63.225 37.013,61.643 32.769,61.643 L27.304,61.643 L27.252,53.639 L28.692,54.588 C31.718,56.371 35.44,57.443 39.264,57.443 L51.102,57.443 C51.11,57.443 51.118,57.442 51.125,57.442 L66.588,57.442 L66.449,98.627 L68.812,57.442 L95.278,57.442 L56.073,55.218 C57.261,53.968 58.134,52.112 58.134,49.69 C58.134,47.925 57.357,46.209 56.17,44.879 C54.982,43.549 53.327,42.567 51.463,42.567 L40.828,42.567 C37.607,42.394 35.318,42.023 32.682,38.871 L25.137,30.106 C23.88,28.444 21.828,27.618 19.736,27.657 Z M19.753,29.896 C20.238,29.892 20.719,29.954 21.171,30.076 C22.076,30.318 22.869,30.795 23.363,31.449 L30.976,40.298 C34.006,43.92 37.323,44.61 40.721,44.792 L51.462,44.792 C52.524,44.792 53.649,45.397 54.509,46.36 C55.369,47.324 55.908,48.611 55.908,49.69 C55.908,51.878 55.105,53.171 54.104,54.021 C53.102,54.872 51.811,55.218 51.101,55.218 L39.263,55.218 C35.861,55.218 32.488,54.241 29.871,52.703 C29.87,52.702 29.868,52.702 29.867,52.701 L26.738,50.638 L25.088,62.762 L32.768,63.868 C36.458,63.868 39.838,65.252 42.51,67.192 C45.183,69.132 47.122,71.646 47.899,73.656 L55.233,90.744 C55.993,92.479 55.272,95.724 52.6,97.211 C50.18,98.42 47.351,97.703 46.238,95.423 L39.5,79.84 C38.014,76.31 35.399,74.245 32.111,74.304 L19.485,74.304 C18.521,74.304 17.379,73.92 16.505,73.078 C15.632,72.236 14.967,70.941 14.967,68.89 L14.824,35.537 C14.826,32.217 16.421,30.69 18.306,30.115 C18.778,29.971 19.268,29.901 19.753,29.897 Z" fill="none" stroke="currentColor" stroke-width="1.5"/></svg>