<svg xmlns="http://www.w3.org/2000/svg" viewBox="0 0 100.0 99.835" width="24" height="24"><path d="M63.012,0.002 C62.863,0 62.71,0.01 62.556,0.033 L62.557,0.032 C56.269,1.042 51.088,2.776 45.781,6.162 C45.778,6.164 45.774,6.166 45.77,6.168 C41.107,8.939 36.347,13.35 32.107,20.337 L27.507,15.776 C26.691,15.101 25.829,14.752 24.955,14.795 C24.08,14.838 23.26,15.295 22.684,15.995 C19.121,20.547 16.807,25.346 15.945,29.266 C14.177,37.75 15.22,42.433 16.76,47.869 C17.217,41.928 16.258,37.877 17.956,29.709 C18.725,26.212 20.91,21.612 24.281,17.303 C24.557,16.97 24.794,16.865 25.057,16.852 C25.319,16.84 25.678,16.941 26.117,17.297 L31.553,22.688 C37.432,15.035 42.208,10.675 46.851,7.921 C51.946,4.669 56.775,3.049 62.862,2.07 C63.291,2.005 63.491,2.152 63.707,2.489 C63.923,2.827 63.989,3.352 63.882,3.668 C60.696,13.083 61.675,21.381 63.888,29.305 L73.366,20.193 C79.629,29.479 79.566,39.04 76.775,47.503 C81.785,38.891 81.775,28.025 74.293,17.828 L65.408,26.741 C63.653,19.675 63.066,12.507 65.833,4.33 C66.175,3.322 65.998,2.248 65.443,1.38 C64.957,0.62 64.056,0.017 63.012,0.001 Z M46.147,29.688 C45.587,29.697 45.017,29.846 44.492,30.139 L44.492,30.137 C39.055,33.163 34.135,38.343 32.536,47.617 C36.068,39.251 40.45,34.744 45.493,31.937 C46.035,31.635 46.556,31.716 46.875,31.963 C47.193,32.209 47.434,32.603 47.144,33.517 C46.022,37.578 46.234,42.482 48.739,46.716 C52.126,47.495 54.44,46.405 55.679,44.041 C55.933,43.669 56.249,43.471 56.513,43.419 C56.782,43.367 57.033,43.404 57.394,43.739 C58.955,45.295 59.826,46.851 60.218,48.127 C61.681,45.876 60.619,44.037 58.83,42.26 C58.039,41.517 57.024,41.222 56.119,41.399 C55.214,41.575 54.454,42.156 53.941,42.933 C53.063,44.646 51.936,45.15 50.259,45.103 C48.376,41.552 48.188,37.468 49.119,34.103 C49.587,32.576 49.134,31.107 48.135,30.334 C47.632,29.944 47.021,29.728 46.386,29.692 C46.306,29.688 46.227,29.686 46.147,29.687 Z M5.122,55.217 C2.302,55.217 0,57.52 0,60.339 L0,94.713 C0,97.532 2.302,99.835 5.122,99.835 L94.878,99.835 C97.697,99.835 100,97.532 100,94.713 L100,60.339 C100,57.52 97.697,55.217 94.878,55.217 Z M5.122,57.276 L16.979,57.276 L16.979,67.908 L2.059,67.908 L2.059,60.339 C2.059,58.625 3.408,57.276 5.122,57.276 Z M19.038,57.276 L68.109,57.276 L68.109,67.908 L19.038,67.908 Z M70.168,57.276 L94.878,57.276 C96.592,57.276 97.94,58.625 97.94,60.339 L97.94,67.908 L70.168,67.908 Z M2.059,69.968 L44.652,69.968 L44.652,82.824 L2.059,82.824 Z M46.712,69.968 L97.94,69.968 L97.94,82.824 L46.712,82.824 Z M2.059,84.883 L16.979,84.883 L16.979,97.776 L5.122,97.776 C3.408,97.776 2.059,96.427 2.059,94.713 Z M19.038,84.883 L68.109,84.883 L68.109,97.776 L19.038,97.776 Z M70.168,84.883 L97.94,84.883 L97.94,94.713 C97.94,96.427 96.592,97.776 94.878,97.776 L70.168,97.776 Z" fill="none" stroke="currentColor" stroke-width="1.5"/></svg>