<svg xmlns="http://www.w3.org/2000/svg" viewBox="0 0 100.832 56.652" width="24" height="24"><path d="M63.117,0.197 C48.096,1.521 36.655,11.981 34.118,22.285 C28.123,19.01 20.6,18.549 14.111,20.774 C7.203,23.143 1.46,28.561 0.519,36.556 C0,44.117 3.462,49.286 8.016,52.384 C12.569,55.482 18.151,56.652 22.287,56.652 L30.9,56.652 L30.9,54.576 L22.287,54.576 C18.555,54.576 13.277,53.451 9.183,50.667 C5.097,47.886 2.131,43.591 2.587,36.779 C3.435,29.655 8.456,24.909 14.784,22.739 C21.119,20.566 28.688,21.106 34.205,24.594 C37.665,13.114 51.934,0.517 69.82,2.31 C88.475,4.107 98.719,17.036 98.378,28.834 C98.152,35.948 95.074,42.293 90.886,46.909 C86.698,51.526 81.398,54.36 76.972,54.578 L77.073,56.652 C82.278,56.396 87.941,53.247 92.425,48.304 C96.909,43.362 100.212,36.571 100.455,28.897 C100.832,15.855 89.555,2.127 70.027,0.243 L70.023,0.243 C67.657,0.006 65.348,0 63.117,0.197 Z M36.728,54.576 L36.728,56.652 L44.902,56.652 L44.902,54.576 Z M50.865,54.576 L50.865,56.652 L59.25,56.652 L59.25,54.576 Z M65.158,54.576 L65.158,56.652 L73.253,56.652 L73.253,54.576 Z" fill="none" stroke="currentColor" stroke-width="1.5"/></svg>