<svg xmlns="http://www.w3.org/2000/svg" viewBox="0 0 100.0 98.686" width="24" height="24"><path d="M10.57,0 C4.732,0 0,4.732 0,10.57 L0,88.116 C0,93.953 4.732,98.686 10.57,98.686 L89.43,98.686 C95.268,98.686 100,93.953 100,88.116 L100,10.57 C100,4.732 95.268,0 89.43,0 Z M10.57,2.083 L89.43,2.083 C94.15,2.083 97.917,5.85 97.917,10.57 L97.917,88.116 C97.917,92.836 94.15,96.603 89.43,96.603 L10.57,96.603 C5.85,96.603 2.083,92.836 2.083,88.116 L2.083,10.57 C2.083,5.85 5.85,2.083 10.57,2.083 Z M49.876,12.106 C29.22,12.106 12.452,28.872 12.452,49.528 C12.452,70.184 29.22,86.952 49.876,86.952 C70.531,86.952 87.298,70.184 87.298,49.528 C87.298,28.872 70.531,12.106 49.876,12.106 Z M49.876,14.189 C69.406,14.189 85.216,29.998 85.216,49.528 C85.216,58.91 81.565,67.433 75.609,73.758 C74.597,72.684 73.945,71.598 73.945,68.62 L73.945,49.178 C73.945,33.787 62.342,23.772 50.5,23.772 C35.408,23.772 26.055,35.648 26.055,47.295 L25.969,68.45 C25.969,70.552 25.529,71.73 25.027,72.513 C24.721,72.993 24.381,73.325 24.03,73.637 C18.139,67.324 14.534,58.85 14.534,49.528 C14.534,29.998 30.346,14.188 49.876,14.188 Z M50.5,25.855 C61.171,25.855 71.863,34.828 71.863,49.178 L71.863,68.62 C71.863,72.039 72.95,73.878 74.148,75.222 C71.355,77.861 68.133,80.049 64.595,81.67 C62.689,77.745 57.733,72.924 49.756,72.924 C41.627,72.924 37.314,77.85 35.343,81.756 C31.689,80.107 28.366,77.856 25.501,75.127 C25.901,74.764 26.368,74.286 26.783,73.636 C27.511,72.499 28.051,70.856 28.052,68.458 L28.052,68.454 L28.137,47.299 C28.137,36.757 36.496,25.855 50.5,25.855 Z M42.32,39.997 C40.691,39.997 39.349,41.34 39.349,42.969 C39.349,44.597 40.691,45.94 42.32,45.94 C43.949,45.94 45.291,44.597 45.291,42.969 C45.291,41.34 43.949,39.997 42.32,39.997 Z M57.269,39.997 C55.64,39.997 54.298,41.34 54.298,42.969 C54.298,44.597 55.64,45.94 57.269,45.94 C58.898,45.94 60.241,44.597 60.241,42.969 C60.241,41.34 58.898,39.997 57.269,39.997 Z M42.32,42.08 C42.823,42.08 43.209,42.465 43.209,42.969 C43.209,43.472 42.823,43.858 42.32,43.858 C41.817,43.858 41.431,43.472 41.431,42.969 C41.431,42.465 41.817,42.08 42.32,42.08 Z M57.269,42.08 C57.772,42.08 58.158,42.465 58.158,42.969 C58.158,43.472 57.772,43.858 57.269,43.858 C56.766,43.858 56.38,43.472 56.38,42.969 C56.38,42.465 56.766,42.08 57.269,42.08 Z M50.05,46.58 C49.851,46.581 49.65,46.588 49.451,46.601 C47.843,46.707 46.205,47.204 44.58,48.043 C40.794,50.144 38.3,51.747 35.49,54.224 C34.14,55.436 33.465,56.84 33.57,58.192 C33.674,59.544 34.576,60.683 35.817,61.304 L45.403,66.289 C46.649,67.115 48.231,67.389 49.776,67.394 C51.344,67.398 52.872,67.12 54.047,66.536 L64.032,61.332 C65.566,60.508 66.402,59.091 66.318,57.677 C66.234,56.264 65.404,54.976 64.194,53.935 C61.553,51.673 58.447,49.329 54.118,47.496 C52.808,46.87 51.442,46.574 50.049,46.58 Z M50.032,48.636 C51.131,48.631 52.19,48.878 53.238,49.382 C57.371,51.129 60.264,53.312 62.838,55.516 C63.227,55.852 63.533,56.204 63.759,56.547 L53.741,60.428 C51.415,61.066 48.678,61.191 46.801,60.548 L46.799,60.548 C42.048,58.88 39.395,57.756 36.368,56.294 C36.509,56.13 36.674,55.96 36.867,55.786 L36.871,55.782 C39.551,53.419 41.853,51.942 45.543,49.892 C46.967,49.157 48.292,48.74 49.559,48.653 L49.559,48.653 C49.717,48.642 49.875,48.636 50.032,48.635 Z M35.686,58.276 C38.681,59.714 41.427,60.869 46.115,62.515 C48.628,63.377 51.672,63.161 54.318,62.431 L64.047,58.668 C63.875,58.948 63.57,59.217 63.058,59.492 L53.12,64.67 C53.119,64.67 53.118,64.67 53.118,64.67 C52.389,65.032 51.073,65.315 49.782,65.311 C48.49,65.307 47.221,65.01 46.52,64.532 L36.763,59.449 C36.126,59.131 35.797,58.731 35.686,58.276 Z M49.756,75.007 C56.8,75.007 61.073,79.32 62.671,82.483 C58.704,84.023 54.39,84.87 49.876,84.87 C45.432,84.87 41.183,84.048 37.266,82.554 C38.993,79.141 42.55,75.007 49.756,75.007 Z" fill="none" stroke="currentColor" stroke-width="1.5"/></svg>