<svg xmlns="http://www.w3.org/2000/svg" viewBox="0 0 100.008 88.844" width="24" height="24"><path d="M4.771,0.006 L0.353,3.633 L4.074,8.674 L3.705,5.46 L16.94,5.46 C11.604,8.378 7.977,14.044 7.977,20.544 C7.977,30.02 15.683,37.724 25.158,37.724 L46.53,37.724 L44.824,39.259 L49.961,37.454 L46.24,32.413 L46.608,35.63 L33.374,35.63 C38.71,32.712 42.336,27.045 42.336,20.544 C42.336,11.069 34.633,3.366 25.158,3.366 L3.786,3.366 L5.492,1.831 Z M54.471,0.006 L50.052,3.633 L53.773,8.674 L53.404,5.46 L66.64,5.46 C61.303,8.378 57.677,14.044 57.677,20.544 C57.677,30.02 65.382,37.724 74.857,37.724 L96.229,37.724 L94.523,39.259 L99.66,37.454 L95.939,32.413 L96.307,35.63 L83.073,35.63 C88.409,32.712 92.035,27.045 92.035,20.544 C92.035,11.069 84.332,3.366 74.857,3.366 L53.485,3.366 L55.191,1.831 Z M25.158,5.46 C33.501,5.46 40.241,12.201 40.241,20.544 C40.241,28.887 33.501,35.63 25.158,35.63 C16.815,35.63 10.072,28.887 10.072,20.544 C10.072,12.201 16.815,5.46 25.158,5.46 Z M74.857,5.46 C83.201,5.46 89.941,12.201 89.941,20.544 C89.941,28.887 83.201,35.63 74.857,35.63 C66.514,35.63 59.771,28.887 59.771,20.544 C59.771,12.201 66.514,5.46 74.857,5.46 Z M25.166,12.893 C20.958,12.893 17.525,16.326 17.525,20.534 C17.525,24.742 20.958,28.177 25.166,28.177 C29.374,28.177 32.809,24.742 32.809,20.534 C32.809,16.326 29.374,12.893 25.166,12.893 Z M74.866,12.893 C70.658,12.893 67.224,16.326 67.224,20.534 C67.224,24.742 70.658,28.177 74.866,28.177 C79.074,28.177 82.508,24.742 82.508,20.534 C82.508,16.326 79.074,12.893 74.866,12.893 Z M25.166,14.987 C28.242,14.987 30.714,17.458 30.714,20.534 C30.714,23.61 28.242,26.082 25.166,26.082 C22.09,26.082 19.62,23.61 19.62,20.534 C19.62,17.458 22.09,14.987 25.166,14.987 Z M74.866,14.987 C77.941,14.987 80.414,17.458 80.414,20.534 C80.414,23.61 77.941,26.082 74.866,26.082 C71.79,26.082 69.319,23.61 69.319,20.534 C69.319,17.458 71.79,14.987 74.866,14.987 Z M4.771,47.647 L0.353,51.275 L4.074,56.316 L3.705,53.102 L16.94,53.102 C11.604,56.019 7.977,61.685 7.977,68.186 C7.977,77.661 15.683,85.366 25.158,85.366 L46.53,85.366 L44.824,86.9 L49.961,85.096 L46.24,80.055 L46.608,83.271 L33.374,83.271 C38.71,80.353 42.336,74.686 42.336,68.186 C42.336,58.71 34.633,51.007 25.158,51.007 L3.786,51.007 L5.492,49.472 Z M54.471,47.647 L50.052,51.275 L53.773,56.316 L53.404,53.102 L66.64,53.102 C61.303,56.019 57.677,61.685 57.677,68.186 C57.677,77.661 65.382,85.366 74.857,85.366 L96.229,85.366 L94.523,86.9 L99.66,85.096 L95.939,80.055 L96.307,83.271 L83.073,83.271 C88.409,80.353 92.035,74.686 92.035,68.186 C92.035,58.71 84.332,51.007 74.857,51.007 L53.485,51.007 L55.191,49.472 Z M25.158,53.102 C33.501,53.102 40.241,59.842 40.241,68.186 C40.241,76.529 33.501,83.271 25.158,83.271 C16.815,83.271 10.072,76.529 10.072,68.186 C10.072,59.842 16.815,53.102 25.158,53.102 Z M74.857,53.102 C83.201,53.102 89.941,59.842 89.941,68.186 C89.941,76.529 83.201,83.271 74.857,83.271 C66.514,83.271 59.771,76.529 59.771,68.186 C59.771,59.842 66.514,53.102 74.857,53.102 Z M25.166,60.534 C20.958,60.534 17.525,63.967 17.525,68.175 C17.525,72.383 20.958,75.818 25.166,75.818 C29.374,75.818 32.809,72.383 32.809,68.175 C32.809,63.967 29.374,60.534 25.166,60.534 Z M74.866,60.534 C70.658,60.534 67.224,63.967 67.224,68.175 C67.224,72.383 70.658,75.818 74.866,75.818 C79.074,75.818 82.508,72.383 82.508,68.175 C82.508,63.967 79.074,60.534 74.866,60.534 Z M25.166,62.629 C28.242,62.629 30.714,65.099 30.714,68.175 C30.714,71.251 28.242,73.723 25.166,73.723 C22.09,73.723 19.62,71.251 19.62,68.175 C19.62,65.099 22.09,62.629 25.166,62.629 Z M74.866,62.629 C77.941,62.629 80.414,65.099 80.414,68.175 C80.414,71.251 77.941,73.723 74.866,73.723 C71.79,73.723 69.319,71.251 69.319,68.175 C69.319,65.099 71.79,62.629 74.866,62.629 Z" fill="none" stroke="currentColor" stroke-width="1.5"/></svg>