<svg xmlns="http://www.w3.org/2000/svg" viewBox="0 0 100.0 77.324" width="24" height="24"><path d="M5.991,0 C4.43,0 3.002,0.427 1.901,1.191 C0.801,1.954 0,3.129 0,4.493 L0,52.348 C0,53.712 0.801,54.887 1.901,55.65 C3.002,56.414 4.43,56.84 5.991,56.84 L42.199,56.84 L40.644,67.398 C38.544,67.802 36.631,68.345 34.944,69.011 C30.906,70.605 28.042,72.903 27.227,75.866 L71.72,77.324 C72.229,73.345 69.783,71.051 65.988,69.365 C64.119,68.534 61.898,67.85 59.344,67.369 L57.608,56.84 L94.006,56.84 C95.567,56.84 96.998,56.414 98.098,55.65 C99.199,54.887 100,53.712 100,52.348 L100,4.493 C100,3.129 99.199,1.954 98.098,1.191 C96.998,0.427 95.567,0 94.006,0 Z M5.991,2.18 L94.006,2.18 C95.161,2.18 96.183,2.514 96.855,2.981 C97.527,3.447 97.82,3.972 97.82,4.493 L97.82,52.348 C97.82,52.868 97.527,53.393 96.855,53.859 C96.183,54.325 95.161,54.66 94.006,54.66 L5.991,54.66 C4.836,54.66 3.814,54.325 3.142,53.859 C2.47,53.393 2.18,52.868 2.18,52.348 L2.18,4.493 C2.18,3.972 2.47,3.447 3.142,2.981 C3.814,2.514 4.836,2.18 5.991,2.18 Z M50.07,7.031 C43.506,7.031 38.515,11.193 38.515,16.338 L38.478,20.662 L34.97,20.662 C32.247,20.662 30.023,22.886 30.023,25.609 L30.023,41.488 C30.023,44.212 32.247,46.435 34.97,46.435 L65.354,46.435 C68.077,46.435 70.301,44.212 70.301,41.488 L70.301,25.609 C70.301,22.886 68.077,20.662 65.354,20.662 L61.696,20.662 L61.764,17.588 L61.764,17.578 C61.764,14.965 60.87,12.315 58.926,10.318 C56.981,8.321 54.006,7.031 50.07,7.031 Z M50.07,9.031 C53.579,9.031 55.951,10.13 57.492,11.713 C59.033,13.296 59.763,15.418 59.764,17.576 L59.764,17.578 L59.696,20.662 L40.479,20.662 L40.515,16.342 L40.515,16.338 C40.515,12.5 44.333,9.032 50.07,9.032 Z M34.97,22.662 L65.354,22.662 C67.003,22.662 68.301,23.959 68.301,25.609 L68.301,41.488 C68.301,43.138 67.003,44.435 65.354,44.435 L34.97,44.435 C33.321,44.435 32.023,43.138 32.023,41.488 L32.023,25.609 C32.023,23.959 33.321,22.662 34.97,22.662 Z M50.209,28.738 C47.59,28.738 45.445,30.883 45.445,33.502 C45.445,36.121 47.59,38.266 50.209,38.266 C52.828,38.266 54.971,36.121 54.971,33.502 C54.971,30.883 52.828,28.738 50.209,28.738 Z M50.209,30.738 C51.747,30.738 52.97,31.964 52.97,33.502 C52.97,35.04 51.747,36.265 50.209,36.265 C48.671,36.265 47.445,35.04 47.445,33.502 C47.445,31.964 48.671,30.738 50.209,30.738 Z M44.402,56.84 L55.4,56.84 L57.074,67.009 C55.036,66.741 52.817,66.595 50.423,66.595 L50.41,66.595 C47.741,66.561 45.226,66.713 42.902,67.028 Z M49.301,68.771 L49.3,68.771 C49.662,68.768 50.028,68.771 50.396,68.775 C56.708,68.775 61.675,69.834 65.102,71.357 C67.653,72.49 69.015,73.845 69.827,75.139 L30.295,75.068 C31.297,73.595 32.937,72.148 35.745,71.04 C39.201,69.675 43.876,68.811 49.301,68.771 Z" fill="none" stroke="currentColor" stroke-width="1.5"/></svg>