<svg xmlns="http://www.w3.org/2000/svg" viewBox="0 0 89.738 100.0" width="24" height="24"><path d="M47.759,0 C44.515,0.002 41.528,0.742 38.922,2.209 C35.117,4.352 32.197,8.062 30.381,13.055 C21.678,12.372 14.826,17.146 12.908,24.081 L12.901,24.104 L12.896,24.127 C11.613,29.929 12.257,34.348 14.107,37.724 C15.957,41.101 18.955,43.385 22.197,45.124 L23.046,43.541 C19.974,41.893 17.302,39.82 15.681,36.862 C14.064,33.91 13.438,30.023 14.644,24.544 C16.38,18.295 22.565,13.937 30.866,14.861 L31.587,14.941 L31.816,14.254 C33.497,9.249 36.265,5.767 39.803,3.775 C43.331,1.788 47.672,1.26 52.617,2.351 C57.649,4.087 60.6,6.767 62.299,9.844 C64.005,12.934 64.446,16.476 64.231,19.899 L64.178,20.719 L64.989,20.844 C70.781,21.729 74.922,25.369 75.87,30.791 C76.537,35.795 73.854,41.546 68.265,43.774 L68.93,45.443 C75.324,42.894 78.432,36.345 77.649,30.535 L77.647,30.517 L77.643,30.501 C76.614,24.564 72.022,20.478 65.987,19.284 C66.115,15.842 65.668,12.231 63.871,8.977 C61.949,5.495 58.553,2.486 53.146,0.634 L53.099,0.618 L53.052,0.606 C51.726,0.311 50.428,0.124 49.165,0.045 L49.164,0.045 C48.691,0.015 48.223,0 47.759,0 Z M40.734,28.5 L31.868,37.089 L33.116,38.378 L39.837,31.868 L39.837,50.862 L41.632,50.862 L41.632,31.868 L48.355,38.378 L49.603,37.089 Z M49.629,42.593 L49.629,61.588 L42.908,55.078 L41.66,56.366 L50.526,64.956 L59.395,56.366 L58.147,55.078 L51.424,61.588 L51.424,42.593 Z M0,54.088 L0,62.232 L1.891,62.232 L1.891,55.978 L7.451,55.978 L7.451,54.088 Z M10.563,54.088 L10.563,55.978 L21.797,55.978 L21.797,54.088 Z M68.666,54.088 L68.666,55.978 L87.847,55.978 L87.847,98.11 L35.775,98.11 L35.775,100 L89.738,100 L89.738,54.088 Z M0,66.047 L0,76.614 L1.891,76.614 L1.891,66.047 Z M18.174,78.248 L18.174,80.139 L24.901,80.139 L24.901,78.248 Z M29.331,78.248 L29.331,80.139 L35.95,80.139 L35.95,78.248 Z M40.379,78.248 L40.379,80.139 L71.214,80.139 L71.214,78.248 Z M0,80.295 L0,87.749 L1.891,87.749 L1.891,80.295 Z M0,92.09 L0,100 L6.88,100 L6.88,98.11 L1.891,98.11 L1.891,92.09 Z M10.651,98.11 L10.651,100 L20.78,100 L20.78,98.11 Z M24.856,98.11 L24.856,100 L33.187,100 L33.187,98.11 Z" fill="none" stroke="currentColor" stroke-width="1.5"/></svg>