<svg xmlns="http://www.w3.org/2000/svg" viewBox="0 0 100.0 71.875" width="24" height="24"><path d="M65.877,0 C49.564,0.275 36.918,10.395 33.668,22.211 C28.522,19.611 23.776,19.081 18.728,19.702 L18.726,19.702 C6.726,21.193 0,30.758 0,38.19 C0,44.313 2.897,49.066 6.781,52.262 C10.666,55.458 15.516,57.173 19.706,57.435 L19.836,55.353 C16.122,55.121 11.609,53.533 8.106,50.65 C4.603,47.768 2.087,43.664 2.087,38.19 C2.087,32.052 7.982,23.139 18.983,21.772 C24.122,21.14 28.55,21.616 33.782,24.554 C34.394,24.897 35.164,24.551 35.313,23.865 C37.742,12.669 49.909,2.36 65.906,2.087 C86.15,2.092 97.913,15.68 97.913,28.705 C97.913,35.841 94.795,41.701 90.52,46.02 C86.246,50.34 80.795,53.068 76.39,53.837 L76.748,55.893 C81.678,55.032 87.419,52.12 92.004,47.488 C96.589,42.855 100,36.451 100,28.705 C100,14.421 87.086,0 65.896,0 C65.89,0 65.884,0 65.878,0 Z M23.546,35.053 L22.546,70.875 L72.977,71.875 L73.977,36.053 Z M24.546,37.053 L71.977,37.053 L71.977,43.176 L24.546,43.176 Z M29.79,38.753 Z M36.029,38.753 Z M42.267,38.753 Z M24.546,45.176 L71.977,45.176 L71.977,69.875 L24.546,69.875 Z M37.999,46.941 C32.111,46.941 27.317,51.736 27.317,57.623 C27.317,63.511 32.111,68.305 37.999,68.305 C43.886,68.305 48.681,63.511 48.681,57.623 C48.681,51.736 43.886,46.941 37.999,46.941 Z M37.999,48.942 C39.808,48.942 41.485,49.491 42.873,50.432 L37.636,56.614 L29.375,56.614 C29.873,52.285 33.534,48.942 37.999,48.942 Z M52.761,49.838 L65.343,51.838 Z M44.387,51.736 C45.812,53.281 46.68,55.348 46.68,57.623 C46.68,59.54 46.064,61.307 45.018,62.741 L39.477,57.536 Z M52.761,54.826 L65.343,56.827 Z M29.373,58.613 L37.705,58.613 L43.663,64.211 C42.144,65.517 40.166,66.305 37.999,66.305 C33.527,66.305 29.863,62.951 29.373,58.613 Z M52.761,59.787 L65.343,61.787 Z" fill="none" stroke="currentColor" stroke-width="1.5"/></svg>