<svg xmlns="http://www.w3.org/2000/svg" viewBox="0 0 100.063 57.728" width="24" height="24"><path d="M67.332,0.007 C68.882,2.134 70.479,2.258 72.07,2.459 C73.168,2.641 74.258,2.86 75.334,3.12 C74.687,0.812 73.537,0.585 72.386,0.394 L72.368,0.39 L72.347,0.388 C70.685,0.178 69.012,0.046 67.332,0.007 Z M58.806,0.651 C58.465,0.712 58.134,0.78 57.808,0.847 L57.806,0.847 C55.334,1.366 52.907,2.135 50.592,3.169 C53.613,4.108 55.898,3.384 58.233,2.894 C58.551,2.828 58.864,2.764 59.171,2.71 Z M83.102,3.904 C85.23,6.926 87.344,8.287 89.229,9.908 L89.462,10.11 L89.674,10.298 L90.841,8.541 L90.594,8.325 L90.592,8.323 C88.56,6.576 86.294,5.122 83.9,3.953 Z M44.02,7.437 C41.018,9.486 39.032,11.616 37.39,13.993 C40.635,12.972 42.487,10.984 44.572,9.286 Z M95.11,15.06 C96.017,18.675 96.972,21.056 97.55,23.522 L97.644,23.942 L99.586,23.05 L99.584,23.044 C98.958,20.372 97.926,17.8 96.54,15.434 Z M19.499,19.58 C18.995,19.63 18.497,19.699 18.003,19.777 C15.639,20.157 13.316,20.85 11.137,21.875 C14.016,22.83 16.15,22.191 18.332,21.84 C18.792,21.767 19.251,21.705 19.709,21.659 Z M28.144,20.094 C29.573,22.567 31.413,23.25 33.108,24.185 L33.377,24.338 L34.869,25.207 L35.195,23.84 C35.313,23.346 35.446,22.858 35.595,22.375 C33.562,21.88 33.535,22.003 33.5,22.124 C31.79,21.248 30.004,20.522 28.144,20.094 Z M4.847,26.717 C3.653,27.612 3.21,28.182 2.801,28.773 C1.527,30.611 0.6,32.678 0.066,34.845 C2.569,33.424 3.393,31.587 4.519,29.963 C4.884,29.435 5.276,28.928 5.698,28.449 Z M99.127,30.987 C97.658,34.146 97.009,36.362 96.054,38.436 C95.893,38.786 95.726,39.129 95.55,39.465 C97.597,40.06 97.781,39.686 97.954,39.31 C98.994,37.049 99.7,34.633 100.027,32.16 Z M1.068,42.336 C0.752,44.65 1.182,45.603 1.684,46.51 C2.614,48.184 3.794,49.705 5.147,51.038 C5.394,48.346 4.335,46.982 3.511,45.496 C3.064,44.691 2.686,43.852 2.392,42.988 Z M92.274,45.908 C89.192,47.53 87.397,48.961 85.475,50.201 L85.475,50.199 C85.123,50.425 84.771,50.645 84.416,50.854 C85.863,52.427 86.237,52.195 86.606,51.958 L86.606,51.956 L86.608,51.956 C88.647,50.64 90.559,49.116 92.278,47.385 Z M12.417,53.902 C15.098,56.958 17.984,57.585 20.888,57.705 L27.352,57.728 L21.976,55.639 C18.312,55.508 15.668,54.933 13.216,53.906 Z M77.022,54.161 C75.004,54.796 72.931,55.247 70.838,55.475 C70.254,55.538 69.673,55.584 69.091,55.61 C69.814,57.669 70.44,57.62 71.062,57.552 L71.064,57.552 C73.304,57.308 75.511,56.828 77.65,56.155 Z M35.709,55.639 L44.066,57.728 Z M52.424,55.639 L60.781,57.728 Z" fill="none" stroke="currentColor" stroke-width="1.5"/></svg>