<svg xmlns="http://www.w3.org/2000/svg" viewBox="0 0 100.0 71.902" width="24" height="24"><path d="M65.877,0 C49.564,0.275 36.918,10.395 33.668,22.211 C28.522,19.611 23.776,19.081 18.728,19.702 L18.726,19.702 C6.726,21.193 0,30.758 0,38.19 C0,44.313 2.897,49.066 6.781,52.262 C10.666,55.458 15.516,57.173 19.706,57.435 L19.836,55.353 C16.122,55.121 11.609,53.533 8.106,50.65 C4.603,47.768 2.087,43.664 2.087,38.19 C2.087,32.052 7.982,23.139 18.983,21.772 C24.122,21.14 28.55,21.616 33.782,24.554 C34.394,24.897 35.164,24.551 35.313,23.865 C37.742,12.669 49.909,2.36 65.906,2.087 C86.15,2.092 97.913,15.68 97.913,28.705 C97.913,35.841 94.795,41.701 90.52,46.02 C86.246,50.34 80.795,53.068 76.39,53.837 L76.748,55.893 C81.678,55.032 87.419,52.12 92.004,47.488 C96.589,42.855 100,36.451 100,28.705 C100,14.421 87.086,0 65.896,0 C65.89,0 65.884,0 65.878,0 Z M23.725,36.339 L22.725,70.902 L73.328,71.902 L74.328,37.339 Z M24.725,38.339 L72.328,38.339 L72.328,45.703 L24.725,45.508 Z M31.398,40.337 Z M37.883,40.337 Z M44.369,40.337 Z M24.725,47.508 L72.328,47.703 L72.328,69.902 L24.725,69.902 Z M47.582,49.22 C44.665,49.22 42.297,51.209 42.297,53.763 L42.291,54.806 L41.113,54.806 L40.113,65.241 L54.052,66.241 L55.052,55.806 L52.848,54.806 L52.869,53.771 L52.869,53.763 C52.869,51.167 50.341,49.22 47.582,49.22 Z M47.582,51.22 C49.367,51.22 50.869,52.594 50.869,53.763 L50.849,54.806 L44.291,54.806 L44.297,53.765 L44.297,53.763 C44.297,52.451 45.529,51.22 47.582,51.22 Z M42.113,56.806 L53.053,56.806 L53.053,64.242 L42.113,64.242 Z M47.586,58.961 Z" fill="none" stroke="currentColor" stroke-width="1.5"/></svg>