<svg xmlns="http://www.w3.org/2000/svg" viewBox="0 0 100.0 100.0" width="24" height="24"><path d="M49.999,0 C22.397,0 0,22.399 0,50.001 C0,77.604 22.397,100 49.999,100 C77.602,100 100,77.604 100,50.001 C100,22.399 77.602,0 49.999,0 Z M49.999,1.993 C76.525,1.993 98.007,23.476 98.007,50.001 C98.007,76.527 76.525,98.007 49.999,98.007 C23.474,98.007 1.993,76.527 1.993,50.001 C1.993,23.476 23.474,1.993 49.999,1.993 Z M50.001,9.219 L45.073,16.674 L49.005,18.173 L49.005,45.055 L50.998,18.173 L54.067,18.173 L50.862,9.713 Z M50.001,12.19 L52.331,16.18 L47.672,16.18 Z M38.097,44.938 L37.098,49.005 L10.215,49.005 L37.098,50.998 L37.098,54.067 L45.557,50.862 L38.596,45.073 Z M61.938,44.939 L54.443,49.141 L61.404,54.927 L62.903,50.998 L89.785,50.998 L62.903,49.005 L62.903,45.936 Z M39.09,47.672 L43.08,50.001 L39.09,52.331 Z M60.91,47.672 L60.91,52.331 L56.92,50.001 Z M50.001,53.949 L49.005,81.828 L45.936,81.828 L49.141,90.287 L54.927,83.326 L50.998,81.828 L50.998,54.945 Z M47.672,83.821 L52.331,83.821 L50.001,87.81 Z" fill="none" stroke="currentColor" stroke-width="1.5"/></svg>