<svg xmlns="http://www.w3.org/2000/svg" viewBox="0 0 100.0 69.64" width="24" height="24"><path d="M83.266,0 C78.12,0 74.538,4.263 74.538,8.515 L74.538,11.389 C72.357,11.909 70.723,13.881 70.723,16.215 L70.723,27.464 C70.723,30.191 72.955,32.423 75.682,32.423 L90.68,32.423 C93.408,32.423 95.64,30.191 95.64,27.464 L95.64,16.215 C95.64,13.924 94.065,11.983 91.946,11.419 L91.946,8.515 C91.946,4.175 88.284,0 83.266,0 Z M83.266,2.394 C86.939,2.394 89.552,5.543 89.552,8.515 L89.552,11.253 L76.933,11.253 L76.933,8.515 C76.933,5.628 79.455,2.394 83.266,2.394 Z M45.659,7.496 C40.841,7.496 36.925,11.414 36.925,16.231 L36.925,42.53 C36.925,47.348 40.841,51.265 45.659,51.265 L57.303,51.265 L55.879,56.4 L51.248,56.4 L81.331,58.794 L76.635,56.4 L75.357,51.265 L86.954,51.265 C91.772,51.265 95.689,47.348 95.689,42.53 L95.689,38.74 L93.295,41.401 L39.32,41.401 L39.32,16.231 C39.32,12.699 42.126,9.891 45.659,9.891 L64.403,9.891 Z M75.682,13.647 L90.68,13.647 C92.123,13.647 93.245,14.772 93.245,16.215 L93.245,27.464 C93.245,28.906 92.123,30.028 90.68,30.028 L75.682,30.028 C74.24,30.028 73.117,28.906 73.117,27.464 L73.117,16.215 C73.117,14.772 74.24,13.647 75.682,13.647 Z M61.056,15.649 L51.602,26.243 L49.03,22.621 L50.549,28.899 L61.899,17.608 Z M51.611,16.807 C46.424,16.807 42.193,21.037 42.193,26.224 C42.193,31.411 46.424,35.64 51.611,35.64 C56.797,35.64 61.029,31.411 61.029,26.224 C61.029,24.897 60.75,23.629 60.252,22.481 C58.428,24.288 58.635,25.228 58.635,26.224 C58.635,30.117 55.504,33.245 51.611,33.245 C47.718,33.245 44.588,30.117 44.588,26.224 C44.588,22.331 47.718,19.201 51.611,19.201 C52.923,19.201 54.14,19.558 55.188,20.18 C55.006,17.286 53.359,16.807 51.611,16.807 Z M83.159,19.801 C81.989,19.801 81.041,20.749 81.041,21.918 C81.041,23.088 81.989,24.036 83.159,24.036 C84.328,24.036 85.276,23.088 85.276,21.918 C85.276,20.749 84.328,19.801 83.159,19.801 Z M9.706,41.756 C4.35,41.756 0,46.106 0,51.462 L0,59.935 C0,65.291 4.35,69.64 9.706,69.64 L90.295,69.64 C95.651,69.64 100,65.291 100,59.935 L100,51.462 C100,49.593 99.469,47.848 98.552,46.366 C98.227,47.347 97.781,48.273 97.23,49.127 C97.473,49.858 97.606,50.643 97.606,51.462 L97.606,59.935 C97.606,64.006 94.366,67.246 90.295,67.246 L9.706,67.246 C5.635,67.246 2.394,64.006 2.394,59.935 L2.394,51.462 C2.394,47.391 5.635,44.15 9.706,44.15 L33.515,44.15 C33.444,43.62 33.404,43.081 33.404,42.533 L33.404,41.756 Z M39.443,43.795 L93.171,43.795 C92.593,46.71 90.053,48.871 86.954,48.871 L45.659,48.871 C42.56,48.871 40.02,46.71 39.443,43.795 Z M59.788,51.265 L72.888,51.265 L74.168,56.4 L58.364,56.4 Z M19.242,53.479 Z M34.082,53.479 Z" fill="none" stroke="currentColor" stroke-width="1.5"/></svg>