<svg xmlns="http://www.w3.org/2000/svg" viewBox="0 0 100.0 72.047" width="24" height="24"><path d="M65.877,0 C49.564,0.275 36.918,10.395 33.668,22.211 C28.522,19.611 23.776,19.081 18.728,19.702 L18.726,19.702 C6.726,21.193 0,30.758 0,38.19 C0,44.313 2.897,49.066 6.781,52.262 C10.666,55.458 15.516,57.173 19.706,57.435 L19.836,55.353 C16.122,55.121 11.609,53.533 8.106,50.65 C4.603,47.768 2.087,43.664 2.087,38.19 C2.087,32.052 7.982,23.139 18.983,21.772 C24.122,21.14 28.55,21.616 33.782,24.554 C34.394,24.897 35.164,24.551 35.313,23.865 C37.742,12.669 49.909,2.36 65.906,2.087 C86.15,2.092 97.913,15.68 97.913,28.705 C97.913,35.841 94.795,41.701 90.52,46.02 C86.246,50.34 80.795,53.068 76.39,53.837 L76.748,55.893 C81.678,55.032 87.419,52.12 92.004,47.488 C96.589,42.855 100,36.451 100,28.705 C100,14.421 87.086,0 65.896,0 C65.89,0 65.884,0 65.878,0 Z M63.151,26.996 C61.6,26.996 59.987,27.606 58.689,28.646 C57.392,29.687 56.391,31.23 56.391,33.067 L56.391,33.07 L56.409,35.641 C54.78,36.039 53.559,37.516 53.559,39.262 L53.559,48.104 C53.559,50.15 55.238,51.83 57.285,51.83 L69.049,51.83 C71.096,51.83 72.773,50.15 72.773,48.104 L72.773,39.262 C72.773,37.494 71.523,36.002 69.863,35.627 L69.863,33.09 C69.863,30.011 67.005,26.996 63.151,26.996 Z M63.151,28.996 C65.928,28.996 67.863,31.333 67.863,33.09 L67.863,35.535 L58.408,35.535 L58.391,33.067 C58.391,31.957 58.996,30.964 59.942,30.205 C60.887,29.447 62.157,28.996 63.151,28.996 Z M34.533,32.649 C30.76,32.649 27.691,35.717 27.691,39.49 L27.691,59.325 C27.691,63.097 30.76,66.164 34.533,66.164 L43.218,66.164 L42.261,70.047 L38.67,70.047 L61.643,72.047 L58.3,70.047 L57.175,66.164 L65.797,66.164 C69.57,66.164 72.639,63.097 72.639,59.325 L72.639,56.772 L70.639,58.66 L29.692,58.572 L29.692,39.49 C29.692,36.791 31.834,34.649 34.533,34.649 L48.555,34.649 Z M57.285,37.535 L69.049,37.535 C70.022,37.535 70.773,38.288 70.773,39.262 L70.773,48.104 C70.773,49.077 70.022,49.83 69.049,49.83 L57.285,49.83 C56.312,49.83 55.559,49.077 55.559,48.104 L55.559,39.262 C55.559,38.288 56.312,37.535 57.285,37.535 Z M46.183,38.983 L39,46.922 L37.123,44.328 L38.133,49.135 L46.881,40.623 Z M38.918,39.754 C34.88,39.754 31.584,43.05 31.584,47.088 C31.584,51.126 34.88,54.42 38.918,54.42 C42.956,54.42 46.252,51.126 46.252,47.088 C46.252,46.113 46.059,45.176 45.711,44.322 C44.112,45.696 44.252,46.374 44.252,47.088 C44.252,50.045 41.875,52.42 38.918,52.42 C35.961,52.42 33.584,50.045 33.584,47.088 C33.584,44.131 35.961,41.754 38.918,41.754 C39.896,41.754 40.804,42.015 41.59,42.471 C41.513,40.113 40.253,39.754 38.918,39.754 Z M63.058,42.108 Z M29.851,60.573 L70.455,60.66 C69.883,62.697 68.032,64.164 65.797,64.164 L34.533,64.164 C32.267,64.164 30.393,62.655 29.851,60.573 Z M45.277,66.164 L55.093,66.164 L56.219,70.047 L44.32,70.047 Z" fill="none" stroke="currentColor" stroke-width="1.5"/></svg>