<svg xmlns="http://www.w3.org/2000/svg" viewBox="0 0 90.786 100.0" width="24" height="24"><path d="M45.251,0 C28.42,0 17.205,2.994 10.124,6.854 C3.043,10.713 0.011,15.414 0.011,19.089 L0,80.261 C0,85.525 4.766,90.41 12.644,94.015 C20.522,97.619 31.702,100 45.251,100 C59.87,100 71.129,97.524 78.818,93.888 C86.507,90.251 90.786,85.396 90.786,80.453 L90.786,80.453 L90.786,80.452 L90.786,80.452 L90.767,19.422 C90.571,14.772 86.822,10.559 79.651,6.827 C72.272,2.987 61.014,0 45.251,0 Z M45.251,2.091 C60.749,2.091 71.686,5.041 78.685,8.683 C85.685,12.326 88.595,16.751 88.475,19.659 C88.355,22.568 87.018,24.855 84.763,26.927 C82.264,29.225 78.644,31.192 74.391,32.758 C65.883,35.889 54.868,37.431 45.296,37.431 C35.318,37.431 24.356,35.815 16.002,32.648 C11.825,31.064 8.305,29.091 5.886,26.807 C3.467,24.523 2.116,21.753 2.189,19.059 C2.262,16.366 4.671,12.208 11.125,8.69 C17.788,5.058 28.669,2.091 45.251,2.091 Z M2.101,25.571 C2.753,26.549 3.542,27.471 4.45,28.329 C7.164,30.891 10.911,32.956 15.26,34.604 C23.958,37.902 35.094,39.522 45.296,39.522 C55.09,39.522 66.268,37.975 75.113,34.719 C79.536,33.091 83.383,31.04 86.18,28.467 C87.115,27.608 87.93,26.681 88.606,25.694 L88.626,38.191 C88.488,40.962 87.13,43.371 84.763,45.547 C82.264,47.845 78.644,49.812 74.39,51.377 C65.883,54.509 54.868,56.05 45.296,56.05 C35.318,56.05 24.355,54.436 16.001,51.269 C11.824,49.686 8.305,47.711 5.886,45.426 C3.467,43.142 2.099,40.304 2.099,38.851 C2.098,38.746 2.101,25.571 2.101,25.571 Z M2.098,44.186 C2.751,45.166 3.541,46.089 4.451,46.948 C7.164,49.51 10.912,51.575 15.26,53.224 C23.958,56.521 35.094,58.142 45.296,58.142 C55.09,58.142 66.269,56.596 75.114,53.34 C79.536,51.712 83.383,49.659 86.181,47.087 C87.13,46.214 87.955,45.272 88.636,44.268 L88.628,59.886 C88.628,61.371 87.262,64.269 84.763,66.566 C82.264,68.864 78.644,70.831 74.39,72.397 C65.883,75.528 54.868,77.07 45.296,77.07 C35.317,77.07 24.355,75.456 16.001,72.289 C11.824,70.705 8.305,68.73 5.886,66.446 C3.466,64.162 2.095,61.314 2.095,59.861 C2.095,59.753 2.097,44.186 2.097,44.186 Z M2.095,65.2 C2.749,66.182 3.54,67.106 4.451,67.967 C7.165,70.529 10.912,72.594 15.261,74.243 C23.958,77.54 35.095,79.161 45.297,79.161 C55.091,79.161 66.269,77.615 75.114,74.359 C79.537,72.731 83.383,70.678 86.181,68.106 C87.146,67.218 87.983,66.26 88.67,65.237 L88.695,80.455 C88.694,84.148 85.229,88.542 77.924,91.996 C70.619,95.451 59.634,97.909 45.252,97.909 C31.949,97.909 21.027,95.55 13.515,92.113 C6.003,88.676 2.092,84.212 2.092,80.261 Z" fill="none" stroke="currentColor" stroke-width="1.5"/></svg>