<svg xmlns="http://www.w3.org/2000/svg" viewBox="0 0 100.0 54.639" width="24" height="24"><path d="M4.869,0 C2.189,0 0,2.19 0,4.87 L0,49.769 C0,52.449 2.189,54.639 4.869,54.639 L95.132,54.639 C97.812,54.639 100,52.449 100,49.769 L100,4.87 C100,2.19 97.812,0 95.132,0 Z M4.869,2.029 L95.132,2.029 C96.723,2.029 97.971,3.279 97.971,4.87 L97.971,49.769 C97.971,51.36 96.723,52.61 95.132,52.61 L4.869,52.61 C3.278,52.61 2.029,51.36 2.029,49.769 L2.029,4.87 C2.029,3.279 3.278,2.029 4.869,2.029 Z M18.68,13.148 L12.311,16.612 L18.25,21.72 L19.762,18.513 L41.606,18.542 L48.793,26.076 L41.606,33.611 L19.762,33.639 L19.762,31.316 L12.312,33.77 L18.25,38.878 L19.762,35.669 L42.042,35.64 L50.195,27.547 L57.646,35.357 L80.627,35.655 L80.627,37.994 L88.077,35.539 L82.137,30.433 L80.627,33.626 L58.813,33.641 L51.597,26.077 L58.813,18.513 L80.627,18.528 L80.627,20.837 L88.077,18.382 L82.137,13.276 L80.627,16.499 L58.381,16.484 L50.195,24.607 L42.775,16.829 L19.762,16.485 L19.762,14.16 Z M17.733,15.893 L17.733,19.101 L14.879,17.498 Z M82.656,15.893 L85.509,17.498 L82.656,19.101 Z M17.733,33.05 L17.733,36.258 L14.879,34.655 Z M82.656,33.05 L85.509,34.655 L82.656,36.258 Z" fill="none" stroke="currentColor" stroke-width="1.5"/></svg>