<svg xmlns="http://www.w3.org/2000/svg" viewBox="0 0 73.132 100.0" width="24" height="24"><path d="M51.706,0 L22.127,0.06 C20.184,0.06 18.479,0.47 17.256,1.612 C16.033,2.755 15.467,4.504 15.467,6.705 L15.499,74.484 L12.264,74.484 C10.169,74.484 8.611,76.062 7.752,77.706 L0.855,92.116 C0,94.117 0.258,96.129 1.248,97.595 C2.239,99.06 3.939,100 5.839,100 L67.361,100 C69.613,100 71.273,98.714 72.1,97.214 C72.926,95.715 73.132,94.026 72.467,92.66 L65.568,77.858 C64.73,76.03 63.04,74.484 60.847,74.484 L57.597,74.484 L57.644,6.113 C57.644,4.497 57.218,2.962 56.205,1.813 C55.192,0.664 53.617,0 51.709,0 Z M51.708,2.19 C53.143,2.19 53.992,2.613 54.563,3.261 C55.134,3.909 55.454,4.881 55.454,6.111 L55.449,12.651 L30.991,12.651 L30.991,2.232 Z M28.802,2.236 L28.802,89.413 L17.696,89.399 L17.656,6.703 C17.656,4.862 18.085,3.833 18.75,3.211 C19.416,2.59 20.492,2.249 22.129,2.249 Z M30.991,14.84 L55.448,14.84 L55.441,25.516 L30.991,25.516 Z M30.991,27.705 L55.439,27.705 L55.432,38.285 L30.991,38.285 Z M30.991,40.474 L55.43,40.474 L55.397,89.446 L30.991,89.416 Z M43.169,66.741 Z M12.263,76.673 L15.5,76.673 L15.507,90.494 L56.489,91.638 L57.596,76.673 L60.847,76.673 C62.001,76.673 63.002,77.511 63.578,78.769 L70.49,93.599 C70.695,94.021 70.701,95.214 70.182,96.156 C69.663,97.098 68.829,97.811 67.362,97.811 L5.839,97.811 C4.654,97.811 3.651,97.238 3.064,96.37 C2.477,95.502 2.28,94.357 2.848,93.024 C2.848,93.023 2.847,93.021 2.848,93.02 L9.694,78.72 L9.696,78.718 C10.299,77.564 11.378,76.674 12.264,76.674 Z" fill="none" stroke="currentColor" stroke-width="1.5"/></svg>