<svg xmlns="http://www.w3.org/2000/svg" viewBox="0 0 100.038 82.37" width="24" height="24"><path d="M8.347,0.006 L0.315,7.28 L7.135,15.892 L3.407,9.038 L38.763,9.038 C25.603,13.81 16.191,26.426 16.191,41.226 C16.191,60.118 31.527,75.455 50.419,75.455 L96.468,75.455 L91.159,80.615 L99.691,75.166 L93.08,66.185 L96.723,73.414 L62.076,73.414 C75.236,68.642 84.648,56.025 84.648,41.226 C84.648,22.334 69.311,6.997 50.419,6.997 L3.561,6.997 L9.03,1.761 Z M50.419,9.038 C68.209,9.038 82.607,23.437 82.607,41.226 C82.607,59.015 68.209,73.414 50.419,73.414 C32.63,73.414 18.231,59.015 18.231,41.226 C18.231,23.437 32.63,9.038 50.419,9.038 Z M50.419,26.592 C42.349,26.592 35.787,33.156 35.787,41.226 C35.787,49.296 42.349,55.859 50.419,55.859 C58.489,55.859 65.054,49.296 65.054,41.226 C65.054,33.156 58.489,26.592 50.419,26.592 Z M50.419,28.632 C57.387,28.632 63.014,34.259 63.014,41.226 C63.014,48.193 57.387,53.819 50.419,53.819 C43.452,53.819 37.827,48.193 37.827,41.226 C37.827,34.259 43.452,28.632 50.419,28.632 Z" fill="none" stroke="currentColor" stroke-width="1.5"/></svg>