<svg xmlns="http://www.w3.org/2000/svg" viewBox="0 0 100.0 49.413" width="24" height="24"><path d="M4.238,0 C1.907,0 0,1.909 0,4.24 L0,26.64 C0,28.971 1.907,30.88 4.238,30.88 L59.59,30.88 C60.327,35.22 62.613,39.024 65.538,42.045 C69.115,45.74 73.645,48.31 77.715,49.378 L81.489,49.325 C91.52,46.411 100,37.542 100,27.334 L100,17.35 C100,15.665 99.02,13.894 97.264,13.208 C92.87,11.6 87.924,10.513 83.291,10.14 L83.291,4.241 C83.291,1.91 81.382,0 79.051,0 Z M4.238,2.005 L14.089,2.005 L14.089,8.464 L2.005,8.483 L2.005,4.24 C2.005,2.986 2.983,2.005 4.238,2.005 Z M16.094,2.005 L56.494,2.005 L56.494,8.395 L16.094,8.461 Z M58.499,2.005 L79.051,2.005 C80.306,2.005 81.286,2.986 81.286,4.24 L81.286,8.354 L58.499,8.392 Z M74.054,10.372 C69.131,10.959 64.608,12.132 62.215,13.109 C61.578,13.386 60.863,13.787 60.292,14.479 C59.72,15.17 59.338,16.149 59.338,17.346 L59.338,19.006 L39.131,19.006 L39.131,10.428 Z M37.126,10.432 L37.126,19.006 L2.005,19.006 L2.005,10.489 Z M79.874,12.001 C85.104,12.001 91.3,13.165 96.538,15.08 C97.289,15.377 97.995,16.589 97.995,17.35 L97.995,27.334 C97.995,36.378 90.233,44.647 81.28,47.323 L78.137,47.401 C74.503,46.429 70.262,44.041 66.98,40.651 C63.672,37.234 61.343,32.858 61.343,27.901 L61.343,17.345 C61.343,16.542 61.551,16.101 61.837,15.755 C62.121,15.412 62.53,15.161 62.985,14.962 C65.873,13.784 73.318,12.017 79.874,12.001 Z M79.742,16.901 C78.306,16.901 76.961,17.404 76.006,18.392 C75.051,19.379 74.523,20.808 74.523,22.488 L74.523,23.608 L73.783,23.608 C72.375,23.608 71.21,24.774 71.21,26.182 L71.21,36.487 C71.21,37.895 72.375,39.061 73.783,39.061 L85.739,39.061 C87.148,39.061 88.312,37.895 88.312,36.487 L88.312,26.182 C88.312,24.774 87.148,23.608 85.739,23.608 L85.066,23.608 L85.066,22.488 C85.066,19.227 82.541,16.901 79.742,16.901 Z M79.742,18.907 C81.463,18.907 83.06,20.225 83.06,22.488 L83.06,23.608 L76.529,23.608 L76.529,22.488 C76.529,21.214 76.9,20.352 77.447,19.786 C77.994,19.22 78.756,18.907 79.742,18.907 Z M2.005,21.012 L14.089,21.012 L14.089,28.875 L4.238,28.875 C2.983,28.875 2.005,27.895 2.005,26.64 Z M16.094,21.012 L56.494,21.012 L56.494,28.875 L16.094,28.875 Z M58.499,21.012 L59.338,21.012 L59.338,27.901 C59.338,28.228 59.348,28.553 59.365,28.875 L58.499,28.875 Z M73.783,25.614 L85.739,25.614 C86.071,25.614 86.307,25.85 86.307,26.182 L86.307,36.487 C86.307,36.819 86.071,37.055 85.739,37.055 L73.783,37.055 C73.451,37.055 73.215,36.819 73.215,36.487 L73.215,26.182 C73.215,25.85 73.451,25.614 73.783,25.614 Z M79.723,28.368 C78.02,28.368 76.619,29.77 76.619,31.474 C76.619,33.177 78.02,34.577 79.723,34.577 C81.426,34.577 82.829,33.177 82.829,31.474 C82.829,29.77 81.426,28.368 79.723,28.368 Z M79.723,30.373 C80.342,30.373 80.823,30.854 80.823,31.474 C80.823,32.093 80.342,32.572 79.723,32.572 C79.103,32.572 78.624,32.093 78.624,31.474 C78.624,30.854 79.103,30.373 79.723,30.373 Z" fill="none" stroke="currentColor" stroke-width="1.5"/></svg>