<svg xmlns="http://www.w3.org/2000/svg" viewBox="0 0 74.07 100.0" width="24" height="24"><path d="M5.169,0 C2.281,0 0,2.261 0,5.294 L0,94.129 C0,95.538 0.275,96.984 1.178,98.136 C2.081,99.287 3.605,100 5.6,100 L68.422,100 C70.235,100 71.746,99.463 72.723,98.346 C73.7,97.23 74.07,95.69 74.07,93.902 L74.07,21.209 C74.07,19.89 73.676,18.356 72.524,17.16 L59.17,2.179 C57.931,0.721 56.523,0 54.491,0 Z M5.169,2.037 L54.491,2.037 C56.178,2.037 56.568,2.261 57.619,3.498 C57.624,3.504 57.629,3.51 57.635,3.516 L71.03,18.545 C71.039,18.554 71.048,18.563 71.058,18.572 C71.76,19.302 72.033,20.297 72.033,21.209 L72.033,93.902 C72.033,95.407 71.714,96.406 71.189,97.005 C70.665,97.605 69.863,97.962 68.422,97.962 L5.6,97.962 C4.048,97.962 3.283,97.518 2.782,96.878 C2.28,96.239 2.037,95.261 2.037,94.129 L2.037,5.294 C2.037,3.18 3.241,2.037 5.169,2.037 Z M17.498,24.957 C11.547,24.957 6.725,29.78 6.725,35.731 L6.725,74.853 C6.725,80.804 11.547,85.626 17.498,85.626 L56.572,85.626 C62.523,85.626 67.346,80.804 67.346,74.853 L67.346,35.731 C67.346,29.78 62.523,24.957 56.572,24.957 Z M17.498,26.995 L56.572,26.995 C61.43,26.995 65.308,30.874 65.308,35.731 L65.308,74.853 C65.308,79.71 61.43,83.589 56.572,83.589 L17.498,83.589 C12.641,83.589 8.762,79.71 8.762,74.853 L8.762,35.731 C8.762,30.874 12.641,26.995 17.498,26.995 Z M56.077,35.062 L35.449,38.679 L35.449,54.585 L36.468,54.585 L56.077,54.585 Z M54.04,37.488 L54.04,52.548 L37.487,52.548 L37.487,40.39 Z M33.872,38.993 L17.993,41.65 L17.993,54.585 L19.012,54.585 L33.872,54.585 Z M31.835,41.401 L31.835,52.548 L20.031,52.548 L20.031,43.375 Z M17.993,55.927 L17.993,68.831 L18.833,68.98 L33.872,71.65 L33.872,55.927 Z M35.449,55.927 L35.449,71.857 L36.293,72.004 L56.077,75.473 L56.077,55.927 Z M20.031,57.964 L31.835,57.964 L31.835,69.219 L20.031,67.123 Z M37.487,57.964 L54.04,57.964 L54.04,73.048 L37.487,70.143 Z" fill="none" stroke="currentColor" stroke-width="1.5"/></svg>