<svg xmlns="http://www.w3.org/2000/svg" viewBox="0 0 100.0 84.568" width="24" height="24"><path d="M7.154,0 C3.208,0 0,3.209 0,7.155 L0,31.621 C0,35.567 3.208,38.776 7.154,38.776 L38.746,38.776 C42.692,38.776 45.9,35.567 45.9,31.621 L45.9,7.155 C45.9,3.209 42.692,0 38.746,0 Z M61.254,0 C57.308,0 54.1,3.209 54.1,7.155 L54.1,31.621 C54.1,35.567 57.308,38.776 61.254,38.776 L92.846,38.776 C96.792,38.776 100,35.567 100,31.621 L100,7.155 C100,3.209 96.792,0 92.846,0 Z M7.154,2.002 L38.746,2.002 C41.618,2.002 43.899,4.283 43.899,7.155 L43.899,31.621 C43.899,34.493 41.618,36.774 38.746,36.774 L7.154,36.774 C4.283,36.774 2.001,34.493 2.001,31.621 L2.001,7.155 C2.001,4.283 4.283,2.002 7.154,2.002 Z M61.254,2.002 L92.846,2.002 C95.717,2.002 97.999,4.283 97.999,7.155 L97.999,31.621 C97.999,34.493 95.717,36.774 92.846,36.774 L61.254,36.774 C58.382,36.774 56.101,34.493 56.101,31.621 L56.101,7.155 C56.101,4.283 58.382,2.002 61.254,2.002 Z M36.586,6.929 L9.173,10.198 L8.313,27.652 L36.449,31.848 L37.606,7.93 Z M90.686,6.929 L63.273,10.198 L62.412,27.652 L90.549,31.848 L91.706,7.93 Z M35.603,9.056 L35.587,18.286 L21.883,18.286 L21.883,10.694 Z M89.702,9.056 L89.687,18.286 L75.983,18.286 L75.983,10.694 Z M19.881,10.933 L19.881,18.286 L10.302,18.286 L10.294,12.078 Z M73.981,10.933 L73.981,18.286 L64.401,18.286 L64.393,12.078 Z M10.304,20.288 L19.881,20.288 L19.881,27.885 L10.313,26.76 Z M21.883,20.288 L35.584,20.288 L35.568,29.729 L21.883,28.12 Z M64.404,20.288 L73.981,20.288 L73.981,27.885 L64.413,26.76 Z M75.983,20.288 L89.683,20.288 L89.667,29.729 L75.983,28.12 Z M7.154,45.792 C3.208,45.792 0,49.001 0,52.947 L0,77.414 C0,81.359 3.208,84.568 7.154,84.568 L38.746,84.568 C42.692,84.568 45.9,81.359 45.9,77.414 L45.9,52.947 C45.9,49.001 42.692,45.792 38.746,45.792 Z M61.254,45.792 C57.308,45.792 54.1,49.001 54.1,52.947 L54.1,77.414 C54.1,81.359 57.308,84.568 61.254,84.568 L92.846,84.568 C96.792,84.568 100,81.359 100,77.414 L100,52.947 C100,49.001 96.792,45.792 92.846,45.792 Z M7.154,47.794 L38.746,47.794 C41.618,47.794 43.899,50.075 43.899,52.947 L43.899,77.414 C43.899,80.285 41.618,82.566 38.746,82.566 L7.154,82.566 C4.283,82.566 2.001,80.285 2.001,77.414 L2.001,52.947 C2.001,50.075 4.283,47.794 7.154,47.794 Z M61.254,47.794 L92.846,47.794 C95.717,47.794 97.999,50.075 97.999,52.947 L97.999,77.414 C97.999,80.285 95.717,82.566 92.846,82.566 L61.254,82.566 C58.382,82.566 56.101,80.285 56.101,77.414 L56.101,52.947 C56.101,50.075 58.382,47.794 61.254,47.794 Z M36.586,52.721 L9.173,55.99 L8.313,73.444 L36.449,77.64 L37.606,53.723 Z M90.686,52.721 L63.273,55.99 L62.412,73.444 L90.549,77.64 L91.706,53.723 Z M35.603,54.849 L35.587,64.079 L21.883,64.079 L21.883,56.486 Z M89.702,54.849 L89.687,64.079 L75.983,64.079 L75.983,56.486 Z M19.881,56.725 L19.881,64.079 L10.302,64.079 L10.294,57.87 Z M73.981,56.725 L73.981,64.079 L64.401,64.079 L64.393,57.87 Z M10.304,66.08 L19.881,66.08 L19.881,73.677 L10.313,72.552 Z M21.883,66.08 L35.584,66.08 L35.568,75.521 L21.883,73.912 Z M64.404,66.08 L73.981,66.08 L73.981,73.677 L64.413,72.552 Z M75.983,66.08 L89.683,66.08 L89.667,75.521 L75.983,73.912 Z" fill="none" stroke="currentColor" stroke-width="1.5"/></svg>